<?xml version="1.0" encoding="utf-8" standalone="no"?>
<!DOCTYPE svg PUBLIC "-//W3C//DTD SVG 1.1//EN"
  "http://www.w3.org/Graphics/SVG/1.1/DTD/svg11.dtd">
<svg xmlns:xlink="http://www.w3.org/1999/xlink" width="558pt" height="54.36pt" viewBox="0 0 558 54.36" xmlns="http://www.w3.org/2000/svg" version="1.1">
 <metadata>
  <rdf:RDF xmlns:dc="http://purl.org/dc/elements/1.1/" xmlns:cc="http://creativecommons.org/ns#" xmlns:rdf="http://www.w3.org/1999/02/22-rdf-syntax-ns#">
   <cc:Work>
    <dc:type rdf:resource="http://purl.org/dc/dcmitype/StillImage"/>
    <dc:date>2024-09-14T12:47:04.484288</dc:date>
    <dc:format>image/svg+xml</dc:format>
    <dc:creator>
     <cc:Agent>
      <dc:title>Matplotlib v3.5.2, https://matplotlib.org/</dc:title>
     </cc:Agent>
    </dc:creator>
   </cc:Work>
  </rdf:RDF>
 </metadata>
 <defs>
  <style type="text/css">*{stroke-linejoin: round; stroke-linecap: butt}</style>
 </defs>
 <g id="figure_1">
  <g id="patch_1">
   <path d="M 0 54.36 
L 558 54.36 
L 558 0 
L 0 0 
L 0 54.36 
z
" style="fill: none; opacity: 0"/>
  </g>
  <g id="axes_1">
   <g id="PolyCollection_1">
    <defs>
     <path id="mf3d70731c7" d="M 351.402481 -2.470909 
L 351.402481 -4.195149 
L 352.313204 -4.284223 
L 353.223927 -4.375822 
L 354.13465 -4.471519 
L 355.045373 -4.573031 
L 355.956096 -4.68207 
L 356.866819 -4.800182 
L 357.777542 -4.928606 
L 358.688265 -5.068175 
L 359.598988 -5.219272 
L 360.509711 -5.381859 
L 361.420434 -5.555579 
L 362.331157 -5.739921 
L 363.24188 -5.934418 
L 364.152603 -6.138846 
L 365.063326 -6.353393 
L 365.974049 -6.578738 
L 366.884772 -6.81605 
L 367.795495 -7.066867 
L 368.706218 -7.332883 
L 369.616941 -7.615658 
L 370.527664 -7.916313 
L 371.438387 -8.235227 
L 372.34911 -8.571822 
L 373.259834 -8.924445 
L 374.170557 -9.29041 
L 375.08128 -9.66618 
L 375.992003 -10.047718 
L 376.902726 -10.430942 
L 377.813449 -10.812267 
L 378.724172 -11.189137 
L 379.634895 -11.560496 
L 380.545618 -11.927106 
L 381.456341 -12.291663 
L 382.367064 -12.658669 
L 383.277787 -13.03406 
L 384.18851 -13.42462 
L 385.099233 -13.837268 
L 386.009956 -14.278289 
L 386.920679 -14.752626 
L 387.831402 -15.263328 
L 388.742125 -15.811232 
L 389.652848 -16.394916 
L 390.563571 -17.010934 
L 391.474294 -17.654291 
L 392.385017 -18.319083 
L 393.29574 -18.999226 
L 394.206463 -19.689148 
L 395.117186 -20.384369 
L 396.027909 -21.081879 
L 396.938632 -21.780262 
L 397.849355 -22.479579 
L 398.760078 -23.181003 
L 399.670801 -23.886292 
L 400.581524 -24.597169 
L 401.492247 -25.314712 
L 402.40297 -26.038847 
L 403.313693 -26.768023 
L 404.224417 -27.49912 
L 405.13514 -28.227609 
L 406.045863 -28.947944 
L 406.956586 -29.654115 
L 407.867309 -30.340297 
L 408.778032 -31.001478 
L 409.688755 -31.633986 
L 410.599478 -32.235821 
L 411.510201 -32.806764 
L 412.420924 -33.34823 
L 413.331647 -33.862919 
L 414.24237 -34.354311 
L 415.153093 -34.826087 
L 416.063816 -35.281584 
L 416.974539 -35.723335 
L 417.885262 -36.152793 
L 418.795985 -36.57025 
L 419.706708 -36.974956 
L 420.617431 -37.365432 
L 421.528154 -37.739893 
L 422.438877 -38.096735 
L 423.3496 -38.434994 
L 424.260323 -38.754701 
L 425.171046 -39.057079 
L 426.081769 -39.344538 
L 426.992492 -39.620471 
L 427.903215 -39.888864 
L 428.813938 -40.153789 
L 429.724661 -40.418835 
L 430.635384 -40.686564 
L 431.546107 -40.958072 
L 432.45683 -41.232696 
L 433.367553 -41.507927 
L 434.278276 -41.779526 
L 435.189 -42.041828 
L 436.099723 -42.288212 
L 437.010446 -42.511676 
L 437.921169 -42.705456 
L 438.831892 -42.863622 
L 439.742615 -42.981599 
L 440.653338 -43.056539 
L 441.564061 -43.087524 
L 442.474784 -43.075564 
L 443.385507 -43.023406 
L 444.29623 -42.935174 
L 445.206953 -42.815883 
L 446.117676 -42.670891 
L 447.028399 -42.505341 
L 447.939122 -42.323667 
L 448.849845 -42.129201 
L 449.760568 -41.923925 
L 450.671291 -41.708377 
L 451.582014 -41.481722 
L 452.492737 -41.241966 
L 453.40346 -40.986286 
L 454.314183 -40.711435 
L 455.224906 -40.414164 
L 456.135629 -40.091617 
L 457.046352 -39.741643 
L 457.957075 -39.362979 
L 458.867798 -38.955298 
L 459.778521 -38.519104 
L 460.689244 -38.055531 
L 461.599967 -37.566078 
L 462.51069 -37.052355 
L 463.421413 -36.515905 
L 464.332136 -35.95815 
L 465.242859 -35.380474 
L 466.153583 -34.784421 
L 467.064306 -34.171974 
L 467.975029 -33.545812 
L 468.885752 -32.909489 
L 469.796475 -32.267457 
L 470.707198 -31.624902 
L 471.617921 -30.987397 
L 472.528644 -30.360414 
L 473.439367 -29.748773 
L 474.35009 -29.156126 
L 475.260813 -28.58454 
L 476.171536 -28.034274 
L 477.082259 -27.503769 
L 477.992982 -26.989852 
L 478.903705 -26.48813 
L 479.814428 -25.993506 
L 480.725151 -25.500739 
L 481.635874 -25.004982 
L 482.546597 -24.502217 
L 483.45732 -23.98955 
L 484.368043 -23.465346 
L 485.278766 -22.929197 
L 486.189489 -22.381767 
L 487.100212 -21.824551 
L 488.010935 -21.259605 
L 488.921658 -20.689289 
L 489.832381 -20.116061 
L 490.743104 -19.542352 
L 491.653827 -18.970513 
L 492.56455 -18.402818 
L 493.475273 -17.841516 
L 494.385996 -17.288878 
L 495.296719 -16.747221 
L 496.207442 -16.218887 
L 497.118165 -15.706147 
L 498.028889 -15.211045 
L 498.939612 -14.735189 
L 499.850335 -14.279517 
L 500.761058 -13.844082 
L 501.671781 -13.427898 
L 502.582504 -13.028896 
L 503.493227 -12.644029 
L 504.40395 -12.269519 
L 505.314673 -11.901258 
L 506.225396 -11.535299 
L 507.136119 -11.168377 
L 508.046842 -10.798382 
L 508.957565 -10.424692 
L 509.868288 -10.048304 
L 510.779011 -9.671741 
L 511.689734 -9.298724 
L 512.600457 -8.933671 
L 513.51118 -8.581106 
L 514.421903 -8.245059 
L 515.332626 -7.928583 
L 516.243349 -7.633423 
L 517.154072 -7.35991 
L 518.064795 -7.107057 
L 518.975518 -6.872823 
L 519.886241 -6.654482 
L 520.796964 -6.449028 
L 521.707687 -6.253536 
L 522.61841 -6.065446 
L 523.529133 -5.882737 
L 524.439856 -5.703993 
L 525.350579 -5.528385 
L 526.261302 -5.355597 
L 527.172025 -5.185728 
L 528.082748 -5.01919 
L 528.993472 -4.856616 
L 529.904195 -4.698794 
L 530.814918 -4.546592 
L 531.725641 -4.400912 
L 532.636364 -4.262623 
L 532.636364 -2.470909 
L 532.636364 -2.470909 
L 531.725641 -2.470909 
L 530.814918 -2.470909 
L 529.904195 -2.470909 
L 528.993472 -2.470909 
L 528.082748 -2.470909 
L 527.172025 -2.470909 
L 526.261302 -2.470909 
L 525.350579 -2.470909 
L 524.439856 -2.470909 
L 523.529133 -2.470909 
L 522.61841 -2.470909 
L 521.707687 -2.470909 
L 520.796964 -2.470909 
L 519.886241 -2.470909 
L 518.975518 -2.470909 
L 518.064795 -2.470909 
L 517.154072 -2.470909 
L 516.243349 -2.470909 
L 515.332626 -2.470909 
L 514.421903 -2.470909 
L 513.51118 -2.470909 
L 512.600457 -2.470909 
L 511.689734 -2.470909 
L 510.779011 -2.470909 
L 509.868288 -2.470909 
L 508.957565 -2.470909 
L 508.046842 -2.470909 
L 507.136119 -2.470909 
L 506.225396 -2.470909 
L 505.314673 -2.470909 
L 504.40395 -2.470909 
L 503.493227 -2.470909 
L 502.582504 -2.470909 
L 501.671781 -2.470909 
L 500.761058 -2.470909 
L 499.850335 -2.470909 
L 498.939612 -2.470909 
L 498.028889 -2.470909 
L 497.118165 -2.470909 
L 496.207442 -2.470909 
L 495.296719 -2.470909 
L 494.385996 -2.470909 
L 493.475273 -2.470909 
L 492.56455 -2.470909 
L 491.653827 -2.470909 
L 490.743104 -2.470909 
L 489.832381 -2.470909 
L 488.921658 -2.470909 
L 488.010935 -2.470909 
L 487.100212 -2.470909 
L 486.189489 -2.470909 
L 485.278766 -2.470909 
L 484.368043 -2.470909 
L 483.45732 -2.470909 
L 482.546597 -2.470909 
L 481.635874 -2.470909 
L 480.725151 -2.470909 
L 479.814428 -2.470909 
L 478.903705 -2.470909 
L 477.992982 -2.470909 
L 477.082259 -2.470909 
L 476.171536 -2.470909 
L 475.260813 -2.470909 
L 474.35009 -2.470909 
L 473.439367 -2.470909 
L 472.528644 -2.470909 
L 471.617921 -2.470909 
L 470.707198 -2.470909 
L 469.796475 -2.470909 
L 468.885752 -2.470909 
L 467.975029 -2.470909 
L 467.064306 -2.470909 
L 466.153583 -2.470909 
L 465.242859 -2.470909 
L 464.332136 -2.470909 
L 463.421413 -2.470909 
L 462.51069 -2.470909 
L 461.599967 -2.470909 
L 460.689244 -2.470909 
L 459.778521 -2.470909 
L 458.867798 -2.470909 
L 457.957075 -2.470909 
L 457.046352 -2.470909 
L 456.135629 -2.470909 
L 455.224906 -2.470909 
L 454.314183 -2.470909 
L 453.40346 -2.470909 
L 452.492737 -2.470909 
L 451.582014 -2.470909 
L 450.671291 -2.470909 
L 449.760568 -2.470909 
L 448.849845 -2.470909 
L 447.939122 -2.470909 
L 447.028399 -2.470909 
L 446.117676 -2.470909 
L 445.206953 -2.470909 
L 444.29623 -2.470909 
L 443.385507 -2.470909 
L 442.474784 -2.470909 
L 441.564061 -2.470909 
L 440.653338 -2.470909 
L 439.742615 -2.470909 
L 438.831892 -2.470909 
L 437.921169 -2.470909 
L 437.010446 -2.470909 
L 436.099723 -2.470909 
L 435.189 -2.470909 
L 434.278276 -2.470909 
L 433.367553 -2.470909 
L 432.45683 -2.470909 
L 431.546107 -2.470909 
L 430.635384 -2.470909 
L 429.724661 -2.470909 
L 428.813938 -2.470909 
L 427.903215 -2.470909 
L 426.992492 -2.470909 
L 426.081769 -2.470909 
L 425.171046 -2.470909 
L 424.260323 -2.470909 
L 423.3496 -2.470909 
L 422.438877 -2.470909 
L 421.528154 -2.470909 
L 420.617431 -2.470909 
L 419.706708 -2.470909 
L 418.795985 -2.470909 
L 417.885262 -2.470909 
L 416.974539 -2.470909 
L 416.063816 -2.470909 
L 415.153093 -2.470909 
L 414.24237 -2.470909 
L 413.331647 -2.470909 
L 412.420924 -2.470909 
L 411.510201 -2.470909 
L 410.599478 -2.470909 
L 409.688755 -2.470909 
L 408.778032 -2.470909 
L 407.867309 -2.470909 
L 406.956586 -2.470909 
L 406.045863 -2.470909 
L 405.13514 -2.470909 
L 404.224417 -2.470909 
L 403.313693 -2.470909 
L 402.40297 -2.470909 
L 401.492247 -2.470909 
L 400.581524 -2.470909 
L 399.670801 -2.470909 
L 398.760078 -2.470909 
L 397.849355 -2.470909 
L 396.938632 -2.470909 
L 396.027909 -2.470909 
L 395.117186 -2.470909 
L 394.206463 -2.470909 
L 393.29574 -2.470909 
L 392.385017 -2.470909 
L 391.474294 -2.470909 
L 390.563571 -2.470909 
L 389.652848 -2.470909 
L 388.742125 -2.470909 
L 387.831402 -2.470909 
L 386.920679 -2.470909 
L 386.009956 -2.470909 
L 385.099233 -2.470909 
L 384.18851 -2.470909 
L 383.277787 -2.470909 
L 382.367064 -2.470909 
L 381.456341 -2.470909 
L 380.545618 -2.470909 
L 379.634895 -2.470909 
L 378.724172 -2.470909 
L 377.813449 -2.470909 
L 376.902726 -2.470909 
L 375.992003 -2.470909 
L 375.08128 -2.470909 
L 374.170557 -2.470909 
L 373.259834 -2.470909 
L 372.34911 -2.470909 
L 371.438387 -2.470909 
L 370.527664 -2.470909 
L 369.616941 -2.470909 
L 368.706218 -2.470909 
L 367.795495 -2.470909 
L 366.884772 -2.470909 
L 365.974049 -2.470909 
L 365.063326 -2.470909 
L 364.152603 -2.470909 
L 363.24188 -2.470909 
L 362.331157 -2.470909 
L 361.420434 -2.470909 
L 360.509711 -2.470909 
L 359.598988 -2.470909 
L 358.688265 -2.470909 
L 357.777542 -2.470909 
L 356.866819 -2.470909 
L 355.956096 -2.470909 
L 355.045373 -2.470909 
L 354.13465 -2.470909 
L 353.223927 -2.470909 
L 352.313204 -2.470909 
L 351.402481 -2.470909 
z
" style="stroke: #cf1313; stroke-opacity: 0.2"/>
    </defs>
    <g clip-path="url(#pabe066a1dc)">
     <use xlink:href="#mf3d70731c7" x="0" y="54.36" style="fill: #cf1313; fill-opacity: 0.2; stroke: #cf1313; stroke-opacity: 0.2"/>
    </g>
   </g>
   <g id="PolyCollection_2">
    <defs>
     <path id="m6f64ceca8b" d="M 294.937653 -2.470909 
L 294.937653 -4.216834 
L 295.848376 -4.365836 
L 296.759099 -4.525247 
L 297.669822 -4.693559 
L 298.580545 -4.869558 
L 299.491268 -5.052597 
L 300.401991 -5.242731 
L 301.312714 -5.440681 
L 302.223437 -5.64764 
L 303.13416 -5.864966 
L 304.044883 -6.093849 
L 304.955606 -6.335029 
L 305.866329 -6.588654 
L 306.777052 -6.85428 
L 307.687775 -7.13103 
L 308.598498 -7.417829 
L 309.509221 -7.71366 
L 310.419945 -8.017751 
L 311.330668 -8.32966 
L 312.241391 -8.64925 
L 313.152114 -8.976598 
L 314.062837 -9.311902 
L 314.97356 -9.655442 
L 315.884283 -10.007631 
L 316.795006 -10.369152 
L 317.705729 -10.741112 
L 318.616452 -11.125161 
L 319.527175 -11.523478 
L 320.437898 -11.938605 
L 321.348621 -12.373129 
L 322.259344 -12.829276 
L 323.170067 -13.308523 
L 324.08079 -13.811317 
L 324.991513 -14.336997 
L 325.902236 -14.883935 
L 326.812959 -15.449872 
L 327.723682 -16.032349 
L 328.634405 -16.629132 
L 329.545128 -17.238502 
L 330.455851 -17.859322 
L 331.366574 -18.490869 
L 332.277297 -19.132458 
L 333.18802 -19.782967 
L 334.098743 -20.440417 
L 335.009466 -21.101723 
L 335.920189 -21.762756 
L 336.830912 -22.418732 
L 337.741635 -23.064903 
L 338.652358 -23.697428 
L 339.563081 -24.314267 
L 340.473804 -24.915907 
L 341.384528 -25.50577 
L 342.295251 -26.090193 
L 343.205974 -26.677943 
L 344.116697 -27.279298 
L 345.02742 -27.904809 
L 345.938143 -28.563877 
L 346.848866 -29.263353 
L 347.759589 -30.006343 
L 348.670312 -30.791423 
L 349.581035 -31.612395 
L 350.491758 -32.458671 
L 351.402481 -33.316248 
L 352.313204 -34.169166 
L 353.223927 -35.001236 
L 354.13465 -35.797779 
L 355.045373 -36.547113 
L 355.956096 -37.241587 
L 356.866819 -37.878017 
L 357.777542 -38.457525 
L 358.688265 -38.984832 
L 359.598988 -39.46717 
L 360.509711 -39.912996 
L 361.420434 -40.330703 
L 362.331157 -40.727501 
L 363.24188 -41.108592 
L 364.152603 -41.476716 
L 365.063326 -41.83209 
L 365.974049 -42.172699 
L 366.884772 -42.494874 
L 367.795495 -42.794029 
L 368.706218 -43.065445 
L 369.616941 -43.304963 
L 370.527664 -43.509496 
L 371.438387 -43.677283 
L 372.34911 -43.807882 
L 373.259834 -43.901928 
L 374.170557 -43.960717 
L 375.08128 -43.985717 
L 375.992003 -43.978097 
L 376.902726 -43.938342 
L 377.813449 -43.866021 
L 378.724172 -43.759731 
L 379.634895 -43.617213 
L 380.545618 -43.435637 
L 381.456341 -43.21201 
L 382.367064 -42.943685 
L 383.277787 -42.628916 
L 384.18851 -42.267404 
L 385.099233 -41.86076 
L 386.009956 -41.412801 
L 386.920679 -40.929596 
L 387.831402 -40.419204 
L 388.742125 -39.891098 
L 389.652848 -39.355315 
L 390.563571 -38.821455 
L 391.474294 -38.29769 
L 392.385017 -37.789944 
L 393.29574 -37.301387 
L 394.206463 -36.832315 
L 395.117186 -36.380386 
L 396.027909 -35.941141 
L 396.938632 -35.508674 
L 397.849355 -35.07632 
L 398.760078 -34.637271 
L 399.670801 -34.185073 
L 400.581524 -33.714005 
L 401.492247 -33.219378 
L 402.40297 -32.697757 
L 403.313693 -32.147141 
L 404.224417 -31.567058 
L 405.13514 -30.958564 
L 406.045863 -30.324118 
L 406.956586 -29.667333 
L 407.867309 -28.992633 
L 408.778032 -28.304862 
L 409.688755 -27.60891 
L 410.599478 -26.909385 
L 411.510201 -26.210379 
L 412.420924 -25.515311 
L 413.331647 -24.826841 
L 414.24237 -24.146852 
L 415.153093 -23.476463 
L 416.063816 -22.816097 
L 416.974539 -22.165598 
L 417.885262 -21.5244 
L 418.795985 -20.891746 
L 419.706708 -20.266938 
L 420.617431 -19.649569 
L 421.528154 -19.039704 
L 422.438877 -18.437955 
L 423.3496 -17.845434 
L 424.260323 -17.263579 
L 425.171046 -16.693884 
L 426.081769 -16.137592 
L 426.992492 -15.595424 
L 427.903215 -15.067401 
L 428.813938 -14.55281 
L 429.724661 -14.050331 
L 430.635384 -13.558274 
L 431.546107 -13.0749 
L 432.45683 -12.598737 
L 433.367553 -12.128848 
L 434.278276 -11.664988 
L 435.189 -11.207663 
L 436.099723 -10.75808 
L 437.010446 -10.318028 
L 437.921169 -9.889704 
L 438.831892 -9.475523 
L 439.742615 -9.077902 
L 440.653338 -8.699067 
L 441.564061 -8.34085 
L 442.474784 -8.004527 
L 443.385507 -7.690702 
L 444.29623 -7.399253 
L 445.206953 -7.129356 
L 446.117676 -6.879581 
L 447.028399 -6.648049 
L 447.939122 -6.432619 
L 448.849845 -6.231077 
L 449.760568 -6.0413 
L 450.671291 -5.861377 
L 451.582014 -5.689671 
L 452.492737 -5.524848 
L 453.40346 -5.36586 
L 454.314183 -5.211914 
L 455.224906 -5.062438 
L 456.135629 -4.917044 
L 457.046352 -4.775503 
L 457.957075 -4.637725 
L 458.867798 -4.503744 
L 459.778521 -4.373704 
L 460.689244 -4.247855 
L 460.689244 -2.470909 
L 460.689244 -2.470909 
L 459.778521 -2.470909 
L 458.867798 -2.470909 
L 457.957075 -2.470909 
L 457.046352 -2.470909 
L 456.135629 -2.470909 
L 455.224906 -2.470909 
L 454.314183 -2.470909 
L 453.40346 -2.470909 
L 452.492737 -2.470909 
L 451.582014 -2.470909 
L 450.671291 -2.470909 
L 449.760568 -2.470909 
L 448.849845 -2.470909 
L 447.939122 -2.470909 
L 447.028399 -2.470909 
L 446.117676 -2.470909 
L 445.206953 -2.470909 
L 444.29623 -2.470909 
L 443.385507 -2.470909 
L 442.474784 -2.470909 
L 441.564061 -2.470909 
L 440.653338 -2.470909 
L 439.742615 -2.470909 
L 438.831892 -2.470909 
L 437.921169 -2.470909 
L 437.010446 -2.470909 
L 436.099723 -2.470909 
L 435.189 -2.470909 
L 434.278276 -2.470909 
L 433.367553 -2.470909 
L 432.45683 -2.470909 
L 431.546107 -2.470909 
L 430.635384 -2.470909 
L 429.724661 -2.470909 
L 428.813938 -2.470909 
L 427.903215 -2.470909 
L 426.992492 -2.470909 
L 426.081769 -2.470909 
L 425.171046 -2.470909 
L 424.260323 -2.470909 
L 423.3496 -2.470909 
L 422.438877 -2.470909 
L 421.528154 -2.470909 
L 420.617431 -2.470909 
L 419.706708 -2.470909 
L 418.795985 -2.470909 
L 417.885262 -2.470909 
L 416.974539 -2.470909 
L 416.063816 -2.470909 
L 415.153093 -2.470909 
L 414.24237 -2.470909 
L 413.331647 -2.470909 
L 412.420924 -2.470909 
L 411.510201 -2.470909 
L 410.599478 -2.470909 
L 409.688755 -2.470909 
L 408.778032 -2.470909 
L 407.867309 -2.470909 
L 406.956586 -2.470909 
L 406.045863 -2.470909 
L 405.13514 -2.470909 
L 404.224417 -2.470909 
L 403.313693 -2.470909 
L 402.40297 -2.470909 
L 401.492247 -2.470909 
L 400.581524 -2.470909 
L 399.670801 -2.470909 
L 398.760078 -2.470909 
L 397.849355 -2.470909 
L 396.938632 -2.470909 
L 396.027909 -2.470909 
L 395.117186 -2.470909 
L 394.206463 -2.470909 
L 393.29574 -2.470909 
L 392.385017 -2.470909 
L 391.474294 -2.470909 
L 390.563571 -2.470909 
L 389.652848 -2.470909 
L 388.742125 -2.470909 
L 387.831402 -2.470909 
L 386.920679 -2.470909 
L 386.009956 -2.470909 
L 385.099233 -2.470909 
L 384.18851 -2.470909 
L 383.277787 -2.470909 
L 382.367064 -2.470909 
L 381.456341 -2.470909 
L 380.545618 -2.470909 
L 379.634895 -2.470909 
L 378.724172 -2.470909 
L 377.813449 -2.470909 
L 376.902726 -2.470909 
L 375.992003 -2.470909 
L 375.08128 -2.470909 
L 374.170557 -2.470909 
L 373.259834 -2.470909 
L 372.34911 -2.470909 
L 371.438387 -2.470909 
L 370.527664 -2.470909 
L 369.616941 -2.470909 
L 368.706218 -2.470909 
L 367.795495 -2.470909 
L 366.884772 -2.470909 
L 365.974049 -2.470909 
L 365.063326 -2.470909 
L 364.152603 -2.470909 
L 363.24188 -2.470909 
L 362.331157 -2.470909 
L 361.420434 -2.470909 
L 360.509711 -2.470909 
L 359.598988 -2.470909 
L 358.688265 -2.470909 
L 357.777542 -2.470909 
L 356.866819 -2.470909 
L 355.956096 -2.470909 
L 355.045373 -2.470909 
L 354.13465 -2.470909 
L 353.223927 -2.470909 
L 352.313204 -2.470909 
L 351.402481 -2.470909 
L 350.491758 -2.470909 
L 349.581035 -2.470909 
L 348.670312 -2.470909 
L 347.759589 -2.470909 
L 346.848866 -2.470909 
L 345.938143 -2.470909 
L 345.02742 -2.470909 
L 344.116697 -2.470909 
L 343.205974 -2.470909 
L 342.295251 -2.470909 
L 341.384528 -2.470909 
L 340.473804 -2.470909 
L 339.563081 -2.470909 
L 338.652358 -2.470909 
L 337.741635 -2.470909 
L 336.830912 -2.470909 
L 335.920189 -2.470909 
L 335.009466 -2.470909 
L 334.098743 -2.470909 
L 333.18802 -2.470909 
L 332.277297 -2.470909 
L 331.366574 -2.470909 
L 330.455851 -2.470909 
L 329.545128 -2.470909 
L 328.634405 -2.470909 
L 327.723682 -2.470909 
L 326.812959 -2.470909 
L 325.902236 -2.470909 
L 324.991513 -2.470909 
L 324.08079 -2.470909 
L 323.170067 -2.470909 
L 322.259344 -2.470909 
L 321.348621 -2.470909 
L 320.437898 -2.470909 
L 319.527175 -2.470909 
L 318.616452 -2.470909 
L 317.705729 -2.470909 
L 316.795006 -2.470909 
L 315.884283 -2.470909 
L 314.97356 -2.470909 
L 314.062837 -2.470909 
L 313.152114 -2.470909 
L 312.241391 -2.470909 
L 311.330668 -2.470909 
L 310.419945 -2.470909 
L 309.509221 -2.470909 
L 308.598498 -2.470909 
L 307.687775 -2.470909 
L 306.777052 -2.470909 
L 305.866329 -2.470909 
L 304.955606 -2.470909 
L 304.044883 -2.470909 
L 303.13416 -2.470909 
L 302.223437 -2.470909 
L 301.312714 -2.470909 
L 300.401991 -2.470909 
L 299.491268 -2.470909 
L 298.580545 -2.470909 
L 297.669822 -2.470909 
L 296.759099 -2.470909 
L 295.848376 -2.470909 
L 294.937653 -2.470909 
z
" style="stroke: #116dc2; stroke-opacity: 0.2"/>
    </defs>
    <g clip-path="url(#pabe066a1dc)">
     <use xlink:href="#m6f64ceca8b" x="0" y="54.36" style="fill: #116dc2; fill-opacity: 0.2; stroke: #116dc2; stroke-opacity: 0.2"/>
    </g>
   </g>
   <g id="PolyCollection_3">
    <defs>
     <path id="mce94d35ef4" d="M 25.363636 -2.470909 
L 25.363636 -4.510271 
L 26.274359 -4.944316 
L 27.185082 -5.484702 
L 28.095805 -6.137199 
L 29.006528 -6.895247 
L 29.917252 -7.737151 
L 30.827975 -8.628056 
L 31.738698 -9.529093 
L 32.649421 -10.414261 
L 33.560144 -11.289232 
L 34.470867 -12.19726 
L 35.38159 -13.199585 
L 36.292313 -14.336045 
L 37.203036 -15.589376 
L 38.113759 -16.879358 
L 39.024482 -18.100811 
L 39.935205 -19.192132 
L 40.845928 -20.188987 
L 41.756651 -21.218091 
L 42.667374 -22.433728 
L 43.578097 -23.945928 
L 44.48882 -25.784119 
L 45.399543 -27.902552 
L 46.310266 -30.209841 
L 47.220989 -32.602802 
L 48.131712 -34.990438 
L 49.042435 -37.303915 
L 49.953158 -39.496509 
L 50.863881 -41.535578 
L 51.774604 -43.38941 
L 52.685327 -45.025329 
L 53.59605 -46.433458 
L 54.506773 -47.654462 
L 55.417496 -48.765642 
L 56.328219 -49.816852 
L 57.238942 -50.769938 
L 58.149665 -51.503932 
L 59.060388 -51.889091 
L 59.971111 -51.869273 
L 60.881835 -51.486833 
L 61.792558 -50.83916 
L 62.703281 -50.01678 
L 63.614004 -49.079555 
L 64.524727 -48.074733 
L 65.43545 -47.050075 
L 66.346173 -46.027918 
L 67.256896 -44.965949 
L 68.167619 -43.76144 
L 69.078342 -42.316819 
L 69.989065 -40.618914 
L 70.899788 -38.763236 
L 71.810511 -36.898308 
L 72.721234 -35.131339 
L 73.631957 -33.467959 
L 74.54268 -31.827391 
L 75.453403 -30.108306 
L 76.364126 -28.246792 
L 77.274849 -26.23602 
L 78.185572 -24.118532 
L 79.096295 -21.968051 
L 80.007018 -19.867816 
L 80.917741 -17.895191 
L 81.828464 -16.119761 
L 82.739187 -14.603128 
L 83.64991 -13.381865 
L 84.560633 -12.437048 
L 85.471356 -11.679135 
L 86.382079 -10.974805 
L 87.292802 -10.209394 
L 88.203525 -9.344146 
L 89.114248 -8.427265 
L 90.024971 -7.553194 
L 90.935694 -6.800542 
L 91.846417 -6.188607 
L 92.757141 -5.676807 
L 93.667864 -5.203228 
L 94.578587 -4.732309 
L 94.578587 -2.470909 
L 94.578587 -2.470909 
L 93.667864 -2.470909 
L 92.757141 -2.470909 
L 91.846417 -2.470909 
L 90.935694 -2.470909 
L 90.024971 -2.470909 
L 89.114248 -2.470909 
L 88.203525 -2.470909 
L 87.292802 -2.470909 
L 86.382079 -2.470909 
L 85.471356 -2.470909 
L 84.560633 -2.470909 
L 83.64991 -2.470909 
L 82.739187 -2.470909 
L 81.828464 -2.470909 
L 80.917741 -2.470909 
L 80.007018 -2.470909 
L 79.096295 -2.470909 
L 78.185572 -2.470909 
L 77.274849 -2.470909 
L 76.364126 -2.470909 
L 75.453403 -2.470909 
L 74.54268 -2.470909 
L 73.631957 -2.470909 
L 72.721234 -2.470909 
L 71.810511 -2.470909 
L 70.899788 -2.470909 
L 69.989065 -2.470909 
L 69.078342 -2.470909 
L 68.167619 -2.470909 
L 67.256896 -2.470909 
L 66.346173 -2.470909 
L 65.43545 -2.470909 
L 64.524727 -2.470909 
L 63.614004 -2.470909 
L 62.703281 -2.470909 
L 61.792558 -2.470909 
L 60.881835 -2.470909 
L 59.971111 -2.470909 
L 59.060388 -2.470909 
L 58.149665 -2.470909 
L 57.238942 -2.470909 
L 56.328219 -2.470909 
L 55.417496 -2.470909 
L 54.506773 -2.470909 
L 53.59605 -2.470909 
L 52.685327 -2.470909 
L 51.774604 -2.470909 
L 50.863881 -2.470909 
L 49.953158 -2.470909 
L 49.042435 -2.470909 
L 48.131712 -2.470909 
L 47.220989 -2.470909 
L 46.310266 -2.470909 
L 45.399543 -2.470909 
L 44.48882 -2.470909 
L 43.578097 -2.470909 
L 42.667374 -2.470909 
L 41.756651 -2.470909 
L 40.845928 -2.470909 
L 39.935205 -2.470909 
L 39.024482 -2.470909 
L 38.113759 -2.470909 
L 37.203036 -2.470909 
L 36.292313 -2.470909 
L 35.38159 -2.470909 
L 34.470867 -2.470909 
L 33.560144 -2.470909 
L 32.649421 -2.470909 
L 31.738698 -2.470909 
L 30.827975 -2.470909 
L 29.917252 -2.470909 
L 29.006528 -2.470909 
L 28.095805 -2.470909 
L 27.185082 -2.470909 
L 26.274359 -2.470909 
L 25.363636 -2.470909 
z
" style="stroke: #8a8a8a; stroke-opacity: 0.2"/>
    </defs>
    <g clip-path="url(#pabe066a1dc)">
     <use xlink:href="#mce94d35ef4" x="0" y="54.36" style="fill: #8a8a8a; fill-opacity: 0.2; stroke: #8a8a8a; stroke-opacity: 0.2"/>
    </g>
   </g>
   <g id="line2d_1">
    <path d="M 351.402481 50.164851 
L 357.777542 49.431394 
L 361.420434 48.804421 
L 365.974049 47.781262 
L 369.616941 46.744342 
L 373.259834 45.435555 
L 384.18851 40.93538 
L 386.920679 39.607374 
L 389.652848 37.965084 
L 392.385017 36.040917 
L 399.670801 30.473708 
L 409.688755 22.726014 
L 412.420924 21.01177 
L 416.063816 19.078416 
L 419.706708 17.385044 
L 423.3496 15.925006 
L 426.992492 14.739529 
L 437.010446 11.848324 
L 439.742615 11.378401 
L 441.564061 11.272476 
L 443.385507 11.336594 
L 446.117676 11.689109 
L 449.760568 12.436075 
L 453.40346 13.373714 
L 456.135629 14.268383 
L 458.867798 15.404702 
L 461.599967 16.793922 
L 464.332136 18.40185 
L 467.975029 20.814188 
L 475.260813 25.77546 
L 478.903705 27.87187 
L 485.278766 31.430803 
L 491.653827 35.389487 
L 496.207442 38.141113 
L 499.850335 40.080483 
L 503.493227 41.715971 
L 514.421903 46.114941 
L 517.154072 47.00009 
L 520.796964 47.910972 
L 527.172025 49.174272 
L 532.636364 50.097377 
L 532.636364 50.097377 
" clip-path="url(#pabe066a1dc)" style="fill: none; stroke: #cf1313; stroke-width: 1.5; stroke-linecap: square"/>
   </g>
   <g id="line2d_2">
    <path d="M 294.937653 50.143166 
L 299.491268 49.307403 
L 304.044883 48.266151 
L 307.687775 47.22897 
L 312.241391 45.71075 
L 316.795006 43.990848 
L 320.437898 42.421395 
L 323.170067 41.051477 
L 325.902236 39.476065 
L 329.545128 37.121498 
L 334.098743 33.919583 
L 339.563081 30.045733 
L 345.938143 25.796123 
L 348.670312 23.568577 
L 355.956096 17.118413 
L 357.777542 15.902475 
L 360.509711 14.447004 
L 364.152603 12.883284 
L 367.795495 11.565971 
L 370.527664 10.850504 
L 373.259834 10.458072 
L 375.992003 10.381903 
L 378.724172 10.600269 
L 380.545618 10.924363 
L 382.367064 11.416315 
L 384.18851 12.092596 
L 386.920679 13.430404 
L 396.027909 18.418859 
L 400.581524 20.645995 
L 403.313693 22.212859 
L 406.045863 24.035882 
L 410.599478 27.450615 
L 416.063816 31.543903 
L 421.528154 35.320296 
L 426.081769 38.222408 
L 429.724661 40.309669 
L 435.189 43.152337 
L 439.742615 45.282098 
L 442.474784 46.355473 
L 445.206953 47.230644 
L 448.849845 48.128923 
L 453.40346 48.99414 
L 459.778521 49.986296 
L 460.689244 50.112145 
L 460.689244 50.112145 
" clip-path="url(#pabe066a1dc)" style="fill: none; stroke: #116dc2; stroke-width: 1.5; stroke-linecap: square"/>
   </g>
   <g id="line2d_3">
    <path d="M 25.363636 49.849729 
L 26.274359 49.415684 
L 27.185082 48.875298 
L 28.095805 48.222801 
L 29.006528 47.464753 
L 29.917252 46.622849 
L 30.827975 45.731944 
L 31.738698 44.830907 
L 32.649421 43.945739 
L 33.560144 43.070768 
L 34.470867 42.16274 
L 35.38159 41.160415 
L 36.292313 40.023955 
L 37.203036 38.770624 
L 38.113759 37.480642 
L 39.024482 36.259189 
L 39.935205 35.167868 
L 40.845928 34.171013 
L 41.756651 33.141909 
L 42.667374 31.926272 
L 43.578097 30.414072 
L 44.48882 28.575881 
L 45.399543 26.457448 
L 46.310266 24.150159 
L 47.220989 21.757198 
L 48.131712 19.369562 
L 49.042435 17.056085 
L 49.953158 14.863491 
L 50.863881 12.824422 
L 51.774604 10.97059 
L 52.685327 9.334671 
L 53.59605 7.926542 
L 54.506773 6.705538 
L 55.417496 5.594358 
L 56.328219 4.543148 
L 57.238942 3.590062 
L 58.149665 2.856068 
L 59.060388 2.470909 
L 59.971111 2.490727 
L 60.881835 2.873167 
L 61.792558 3.52084 
L 62.703281 4.34322 
L 63.614004 5.280445 
L 64.524727 6.285267 
L 65.43545 7.309925 
L 66.346173 8.332082 
L 67.256896 9.394051 
L 68.167619 10.59856 
L 69.078342 12.043181 
L 69.989065 13.741086 
L 70.899788 15.596764 
L 71.810511 17.461692 
L 72.721234 19.228661 
L 73.631957 20.892041 
L 74.54268 22.532609 
L 75.453403 24.251694 
L 76.364126 26.113208 
L 77.274849 28.12398 
L 78.185572 30.241468 
L 79.096295 32.391949 
L 80.007018 34.492184 
L 80.917741 36.464809 
L 81.828464 38.240239 
L 82.739187 39.756872 
L 83.64991 40.978135 
L 84.560633 41.922952 
L 85.471356 42.680865 
L 86.382079 43.385195 
L 87.292802 44.150606 
L 88.203525 45.015854 
L 89.114248 45.932735 
L 90.024971 46.806806 
L 90.935694 47.559458 
L 91.846417 48.171393 
L 92.757141 48.683193 
L 93.667864 49.156772 
L 94.578587 49.627691 
" clip-path="url(#pabe066a1dc)" style="fill: none; stroke: #8a8a8a; stroke-width: 1.5; stroke-linecap: square"/>
   </g>
  </g>
 </g>
 <defs>
  <clipPath id="pabe066a1dc">
   <rect x="0" y="-0" width="558" height="54.36"/>
  </clipPath>
 </defs>
</svg>
