<?xml version="1.0" encoding="utf-8" standalone="no"?>
<!DOCTYPE svg PUBLIC "-//W3C//DTD SVG 1.1//EN"
  "http://www.w3.org/Graphics/SVG/1.1/DTD/svg11.dtd">
<svg xmlns:xlink="http://www.w3.org/1999/xlink" width="558pt" height="54.36pt" viewBox="0 0 558 54.36" xmlns="http://www.w3.org/2000/svg" version="1.1">
 <metadata>
  <rdf:RDF xmlns:dc="http://purl.org/dc/elements/1.1/" xmlns:cc="http://creativecommons.org/ns#" xmlns:rdf="http://www.w3.org/1999/02/22-rdf-syntax-ns#">
   <cc:Work>
    <dc:type rdf:resource="http://purl.org/dc/dcmitype/StillImage"/>
    <dc:date>2024-09-15T09:31:01.915173</dc:date>
    <dc:format>image/svg+xml</dc:format>
    <dc:creator>
     <cc:Agent>
      <dc:title>Matplotlib v3.5.2, https://matplotlib.org/</dc:title>
     </cc:Agent>
    </dc:creator>
   </cc:Work>
  </rdf:RDF>
 </metadata>
 <defs>
  <style type="text/css">*{stroke-linejoin: round; stroke-linecap: butt}</style>
 </defs>
 <g id="figure_1">
  <g id="patch_1">
   <path d="M 0 54.36 
L 558 54.36 
L 558 0 
L 0 0 
L 0 54.36 
z
" style="fill: none; opacity: 0"/>
  </g>
  <g id="axes_1">
   <g id="PolyCollection_1">
    <defs>
     <path id="m463806c1f0" d="M 350.953578 -2.470909 
L 350.953578 -4.074015 
L 351.852998 -4.187401 
L 352.752418 -4.30909 
L 353.651838 -4.439689 
L 354.551257 -4.579911 
L 355.450677 -4.730538 
L 356.350097 -4.892367 
L 357.249516 -5.066174 
L 358.148936 -5.252685 
L 359.048356 -5.452574 
L 359.947776 -5.666471 
L 360.847195 -5.894971 
L 361.746615 -6.138623 
L 362.646035 -6.39789 
L 363.545455 -6.67305 
L 364.444874 -6.964067 
L 365.344294 -7.270432 
L 366.243714 -7.591017 
L 367.143133 -7.923979 
L 368.042553 -8.266747 
L 368.941973 -8.616141 
L 369.841393 -8.968607 
L 370.740812 -9.320565 
L 371.640232 -9.668833 
L 372.539652 -10.011054 
L 373.439072 -10.346064 
L 374.338491 -10.674145 
L 375.237911 -10.997093 
L 376.137331 -11.318098 
L 377.03675 -11.641435 
L 377.93617 -11.972008 
L 378.83559 -12.314807 
L 379.73501 -12.674364 
L 380.634429 -13.054271 
L 381.533849 -13.456839 
L 382.433269 -13.88294 
L 383.332689 -14.332034 
L 384.232108 -14.802376 
L 385.131528 -15.291359 
L 386.030948 -15.795913 
L 386.930368 -16.312917 
L 387.829787 -16.839534 
L 388.729207 -17.373435 
L 389.628627 -17.912894 
L 390.528046 -18.456745 
L 391.427466 -19.004255 
L 392.326886 -19.554939 
L 393.226306 -20.108383 
L 394.125725 -20.664121 
L 395.025145 -21.221573 
L 395.924565 -21.780072 
L 396.823985 -22.338933 
L 397.723404 -22.897552 
L 398.622824 -23.455486 
L 399.522244 -24.01249 
L 400.421663 -24.568503 
L 401.321083 -25.123593 
L 402.220503 -25.677887 
L 403.119923 -26.231519 
L 404.019342 -26.784639 
L 404.918762 -27.33748 
L 405.818182 -27.890498 
L 406.717602 -28.44454 
L 407.617021 -29.001002 
L 408.516441 -29.561927 
L 409.415861 -30.129978 
L 410.31528 -30.708264 
L 411.2147 -31.300008 
L 412.11412 -31.908069 
L 413.01354 -32.534396 
L 413.912959 -33.179459 
L 414.812379 -33.841781 
L 415.711799 -34.517641 
L 416.611219 -35.201036 
L 417.510638 -35.88394 
L 418.410058 -36.556849 
L 419.309478 -37.209586 
L 420.208897 -37.832242 
L 421.108317 -38.416134 
L 422.007737 -38.954656 
L 422.907157 -39.443874 
L 423.806576 -39.882803 
L 424.705996 -40.273308 
L 425.605416 -40.619686 
L 426.504836 -40.927979 
L 427.404255 -41.205142 
L 428.303675 -41.458193 
L 429.203095 -41.693456 
L 430.102515 -41.91598 
L 431.001934 -42.129196 
L 431.901354 -42.334809 
L 432.800774 -42.532924 
L 433.700193 -42.722337 
L 434.599613 -42.900943 
L 435.499033 -43.066181 
L 436.398453 -43.215451 
L 437.297872 -43.346433 
L 438.197292 -43.457289 
L 439.096712 -43.5467 
L 439.996132 -43.613773 
L 440.895551 -43.657843 
L 441.794971 -43.678221 
L 442.694391 -43.67396 
L 443.59381 -43.643683 
L 444.49323 -43.585526 
L 445.39265 -43.497202 
L 446.29207 -43.376175 
L 447.191489 -43.219916 
L 448.090909 -43.026189 
L 448.990329 -42.793319 
L 449.889749 -42.5204 
L 450.789168 -42.207423 
L 451.688588 -41.855302 
L 452.588008 -41.465831 
L 453.487427 -41.04156 
L 454.386847 -40.585641 
L 455.286267 -40.101652 
L 456.185687 -39.593418 
L 457.085106 -39.064842 
L 457.984526 -38.519755 
L 458.883946 -37.961773 
L 459.783366 -37.394179 
L 460.682785 -36.819824 
L 461.582205 -36.241053 
L 462.481625 -35.659674 
L 463.381044 -35.076958 
L 464.280464 -34.493685 
L 465.179884 -33.910223 
L 466.079304 -33.326629 
L 466.978723 -32.742752 
L 467.878143 -32.158311 
L 468.777563 -31.572958 
L 469.676983 -30.986288 
L 470.576402 -30.397834 
L 471.475822 -29.807051 
L 472.375242 -29.213314 
L 473.274662 -28.615974 
L 474.174081 -28.014461 
L 475.073501 -27.408448 
L 475.972921 -26.798061 
L 476.87234 -26.184063 
L 477.77176 -25.567998 
L 478.67118 -24.952222 
L 479.5706 -24.339811 
L 480.470019 -23.734319 
L 481.369439 -23.139437 
L 482.268859 -22.558583 
L 483.168279 -21.994495 
L 484.067698 -21.448894 
L 484.967118 -20.922265 
L 485.866538 -20.413791 
L 486.765957 -19.921447 
L 487.665377 -19.44224 
L 488.564797 -18.972552 
L 489.464217 -18.508557 
L 490.363636 -18.046645 
L 491.263056 -17.583821 
L 492.162476 -17.118023 
L 493.061896 -16.648323 
L 493.961315 -16.174993 
L 494.860735 -15.699424 
L 495.760155 -15.223901 
L 496.659574 -14.751285 
L 497.558994 -14.284626 
L 498.458414 -13.826778 
L 499.357834 -13.380067 
L 500.257253 -12.946056 
L 501.156673 -12.525432 
L 502.056093 -12.118026 
L 502.955513 -11.722942 
L 503.854932 -11.338765 
L 504.754352 -10.963815 
L 505.653772 -10.596405 
L 506.553191 -10.235061 
L 507.452611 -9.8787 
L 508.352031 -9.526733 
L 509.251451 -9.179099 
L 510.15087 -8.836231 
L 511.05029 -8.498977 
L 511.94971 -8.168473 
L 512.84913 -7.846002 
L 513.748549 -7.532863 
L 514.647969 -7.230251 
L 515.547389 -6.939183 
L 516.446809 -6.660458 
L 517.346228 -6.394665 
L 518.245648 -6.142215 
L 519.145068 -5.903393 
L 520.044487 -5.678415 
L 520.943907 -5.467461 
L 521.843327 -5.270697 
L 522.742747 -5.088258 
L 523.642166 -4.920219 
L 524.541586 -4.766538 
L 525.441006 -4.627003 
L 526.340426 -4.501178 
L 527.239845 -4.388366 
L 528.139265 -4.287595 
L 529.038685 -4.197622 
L 529.938104 -4.116974 
L 530.837524 -4.044004 
L 531.736944 -3.976975 
L 532.636364 -3.914159 
L 532.636364 -2.470909 
L 532.636364 -2.470909 
L 531.736944 -2.470909 
L 530.837524 -2.470909 
L 529.938104 -2.470909 
L 529.038685 -2.470909 
L 528.139265 -2.470909 
L 527.239845 -2.470909 
L 526.340426 -2.470909 
L 525.441006 -2.470909 
L 524.541586 -2.470909 
L 523.642166 -2.470909 
L 522.742747 -2.470909 
L 521.843327 -2.470909 
L 520.943907 -2.470909 
L 520.044487 -2.470909 
L 519.145068 -2.470909 
L 518.245648 -2.470909 
L 517.346228 -2.470909 
L 516.446809 -2.470909 
L 515.547389 -2.470909 
L 514.647969 -2.470909 
L 513.748549 -2.470909 
L 512.84913 -2.470909 
L 511.94971 -2.470909 
L 511.05029 -2.470909 
L 510.15087 -2.470909 
L 509.251451 -2.470909 
L 508.352031 -2.470909 
L 507.452611 -2.470909 
L 506.553191 -2.470909 
L 505.653772 -2.470909 
L 504.754352 -2.470909 
L 503.854932 -2.470909 
L 502.955513 -2.470909 
L 502.056093 -2.470909 
L 501.156673 -2.470909 
L 500.257253 -2.470909 
L 499.357834 -2.470909 
L 498.458414 -2.470909 
L 497.558994 -2.470909 
L 496.659574 -2.470909 
L 495.760155 -2.470909 
L 494.860735 -2.470909 
L 493.961315 -2.470909 
L 493.061896 -2.470909 
L 492.162476 -2.470909 
L 491.263056 -2.470909 
L 490.363636 -2.470909 
L 489.464217 -2.470909 
L 488.564797 -2.470909 
L 487.665377 -2.470909 
L 486.765957 -2.470909 
L 485.866538 -2.470909 
L 484.967118 -2.470909 
L 484.067698 -2.470909 
L 483.168279 -2.470909 
L 482.268859 -2.470909 
L 481.369439 -2.470909 
L 480.470019 -2.470909 
L 479.5706 -2.470909 
L 478.67118 -2.470909 
L 477.77176 -2.470909 
L 476.87234 -2.470909 
L 475.972921 -2.470909 
L 475.073501 -2.470909 
L 474.174081 -2.470909 
L 473.274662 -2.470909 
L 472.375242 -2.470909 
L 471.475822 -2.470909 
L 470.576402 -2.470909 
L 469.676983 -2.470909 
L 468.777563 -2.470909 
L 467.878143 -2.470909 
L 466.978723 -2.470909 
L 466.079304 -2.470909 
L 465.179884 -2.470909 
L 464.280464 -2.470909 
L 463.381044 -2.470909 
L 462.481625 -2.470909 
L 461.582205 -2.470909 
L 460.682785 -2.470909 
L 459.783366 -2.470909 
L 458.883946 -2.470909 
L 457.984526 -2.470909 
L 457.085106 -2.470909 
L 456.185687 -2.470909 
L 455.286267 -2.470909 
L 454.386847 -2.470909 
L 453.487427 -2.470909 
L 452.588008 -2.470909 
L 451.688588 -2.470909 
L 450.789168 -2.470909 
L 449.889749 -2.470909 
L 448.990329 -2.470909 
L 448.090909 -2.470909 
L 447.191489 -2.470909 
L 446.29207 -2.470909 
L 445.39265 -2.470909 
L 444.49323 -2.470909 
L 443.59381 -2.470909 
L 442.694391 -2.470909 
L 441.794971 -2.470909 
L 440.895551 -2.470909 
L 439.996132 -2.470909 
L 439.096712 -2.470909 
L 438.197292 -2.470909 
L 437.297872 -2.470909 
L 436.398453 -2.470909 
L 435.499033 -2.470909 
L 434.599613 -2.470909 
L 433.700193 -2.470909 
L 432.800774 -2.470909 
L 431.901354 -2.470909 
L 431.001934 -2.470909 
L 430.102515 -2.470909 
L 429.203095 -2.470909 
L 428.303675 -2.470909 
L 427.404255 -2.470909 
L 426.504836 -2.470909 
L 425.605416 -2.470909 
L 424.705996 -2.470909 
L 423.806576 -2.470909 
L 422.907157 -2.470909 
L 422.007737 -2.470909 
L 421.108317 -2.470909 
L 420.208897 -2.470909 
L 419.309478 -2.470909 
L 418.410058 -2.470909 
L 417.510638 -2.470909 
L 416.611219 -2.470909 
L 415.711799 -2.470909 
L 414.812379 -2.470909 
L 413.912959 -2.470909 
L 413.01354 -2.470909 
L 412.11412 -2.470909 
L 411.2147 -2.470909 
L 410.31528 -2.470909 
L 409.415861 -2.470909 
L 408.516441 -2.470909 
L 407.617021 -2.470909 
L 406.717602 -2.470909 
L 405.818182 -2.470909 
L 404.918762 -2.470909 
L 404.019342 -2.470909 
L 403.119923 -2.470909 
L 402.220503 -2.470909 
L 401.321083 -2.470909 
L 400.421663 -2.470909 
L 399.522244 -2.470909 
L 398.622824 -2.470909 
L 397.723404 -2.470909 
L 396.823985 -2.470909 
L 395.924565 -2.470909 
L 395.025145 -2.470909 
L 394.125725 -2.470909 
L 393.226306 -2.470909 
L 392.326886 -2.470909 
L 391.427466 -2.470909 
L 390.528046 -2.470909 
L 389.628627 -2.470909 
L 388.729207 -2.470909 
L 387.829787 -2.470909 
L 386.930368 -2.470909 
L 386.030948 -2.470909 
L 385.131528 -2.470909 
L 384.232108 -2.470909 
L 383.332689 -2.470909 
L 382.433269 -2.470909 
L 381.533849 -2.470909 
L 380.634429 -2.470909 
L 379.73501 -2.470909 
L 378.83559 -2.470909 
L 377.93617 -2.470909 
L 377.03675 -2.470909 
L 376.137331 -2.470909 
L 375.237911 -2.470909 
L 374.338491 -2.470909 
L 373.439072 -2.470909 
L 372.539652 -2.470909 
L 371.640232 -2.470909 
L 370.740812 -2.470909 
L 369.841393 -2.470909 
L 368.941973 -2.470909 
L 368.042553 -2.470909 
L 367.143133 -2.470909 
L 366.243714 -2.470909 
L 365.344294 -2.470909 
L 364.444874 -2.470909 
L 363.545455 -2.470909 
L 362.646035 -2.470909 
L 361.746615 -2.470909 
L 360.847195 -2.470909 
L 359.947776 -2.470909 
L 359.048356 -2.470909 
L 358.148936 -2.470909 
L 357.249516 -2.470909 
L 356.350097 -2.470909 
L 355.450677 -2.470909 
L 354.551257 -2.470909 
L 353.651838 -2.470909 
L 352.752418 -2.470909 
L 351.852998 -2.470909 
L 350.953578 -2.470909 
z
" style="stroke: #cf1313; stroke-opacity: 0.2"/>
    </defs>
    <g clip-path="url(#pccdbc9c8b6)">
     <use xlink:href="#m463806c1f0" x="0" y="54.36" style="fill: #cf1313; fill-opacity: 0.2; stroke: #cf1313; stroke-opacity: 0.2"/>
    </g>
   </g>
   <g id="PolyCollection_2">
    <defs>
     <path id="m2d047c286c" d="M 292.491296 -2.470909 
L 292.491296 -4.150521 
L 293.390716 -4.288188 
L 294.290135 -4.433588 
L 295.189555 -4.58598 
L 296.088975 -4.745054 
L 296.988395 -4.911095 
L 297.887814 -5.085054 
L 298.787234 -5.26851 
L 299.686654 -5.463519 
L 300.586074 -5.672368 
L 301.485493 -5.897272 
L 302.384913 -6.140063 
L 303.284333 -6.401922 
L 304.183752 -6.683202 
L 305.083172 -6.983368 
L 305.982592 -7.301073 
L 306.882012 -7.634353 
L 307.781431 -7.98093 
L 308.680851 -8.338576 
L 309.580271 -8.705476 
L 310.479691 -9.080539 
L 311.37911 -9.46359 
L 312.27853 -9.855394 
L 313.17795 -10.257488 
L 314.077369 -10.671819 
L 314.976789 -11.100226 
L 315.876209 -11.543858 
L 316.775629 -12.002595 
L 317.675048 -12.474613 
L 318.574468 -12.956156 
L 319.473888 -13.441615 
L 320.373308 -13.923912 
L 321.272727 -14.395186 
L 322.172147 -14.847704 
L 323.071567 -15.274889 
L 323.970986 -15.672341 
L 324.870406 -16.03871 
L 325.769826 -16.3763 
L 326.669246 -16.691301 
L 327.568665 -16.993606 
L 328.468085 -17.296179 
L 329.367505 -17.614048 
L 330.266925 -17.962991 
L 331.166344 -18.358084 
L 332.065764 -18.812279 
L 332.965184 -19.335209 
L 333.864603 -19.932399 
L 334.764023 -20.605005 
L 335.663443 -21.350123 
L 336.562863 -22.161608 
L 337.462282 -23.031245 
L 338.361702 -23.950023 
L 339.261122 -24.909257 
L 340.160542 -25.901314 
L 341.059961 -26.919798 
L 341.959381 -27.959178 
L 342.858801 -29.013995 
L 343.758221 -30.077861 
L 344.65764 -31.142578 
L 345.55706 -32.197628 
L 346.45648 -33.230254 
L 347.355899 -34.226163 
L 348.255319 -35.170774 
L 349.154739 -36.050774 
L 350.054159 -36.855673 
L 350.953578 -37.579062 
L 351.852998 -38.219317 
L 352.752418 -38.779651 
L 353.651838 -39.267515 
L 354.551257 -39.693527 
L 355.450677 -40.070135 
L 356.350097 -40.410271 
L 357.249516 -40.726179 
L 358.148936 -41.02853 
L 359.048356 -41.325816 
L 359.947776 -41.623972 
L 360.847195 -41.926135 
L 361.746615 -42.232477 
L 362.646035 -42.540125 
L 363.545455 -42.843236 
L 364.444874 -43.133347 
L 365.344294 -43.400097 
L 366.243714 -43.632366 
L 367.143133 -43.81975 
L 368.042553 -43.954205 
L 368.941973 -44.031569 
L 369.841393 -44.052668 
L 370.740812 -44.023734 
L 371.640232 -43.955991 
L 372.539652 -43.864409 
L 373.439072 -43.765793 
L 374.338491 -43.676511 
L 375.237911 -43.610239 
L 376.137331 -43.576089 
L 377.03675 -43.577416 
L 377.93617 -43.611482 
L 378.83559 -43.669973 
L 379.73501 -43.740246 
L 380.634429 -43.807061 
L 381.533849 -43.8545 
L 382.433269 -43.867771 
L 383.332689 -43.834659 
L 384.232108 -43.746465 
L 385.131528 -43.598383 
L 386.030948 -43.389366 
L 386.930368 -43.12159 
L 387.829787 -42.799679 
L 388.729207 -42.429817 
L 389.628627 -42.018905 
L 390.528046 -41.573806 
L 391.427466 -41.100744 
L 392.326886 -40.604859 
L 393.226306 -40.089917 
L 394.125725 -39.558177 
L 395.025145 -39.010409 
L 395.924565 -38.446059 
L 396.823985 -37.863566 
L 397.723404 -37.260784 
L 398.622824 -36.635477 
L 399.522244 -35.985823 
L 400.421663 -35.310863 
L 401.321083 -34.610832 
L 402.220503 -33.88734 
L 403.119923 -33.143378 
L 404.019342 -32.383156 
L 404.918762 -31.611803 
L 405.818182 -30.834961 
L 406.717602 -30.058317 
L 407.617021 -29.287118 
L 408.516441 -28.525719 
L 409.415861 -27.777189 
L 410.31528 -27.043046 
L 411.2147 -26.323132 
L 412.11412 -25.615701 
L 413.01354 -24.917717 
L 413.912959 -24.225376 
L 414.812379 -23.534807 
L 415.711799 -22.842855 
L 416.611219 -22.14782 
L 417.510638 -21.450001 
L 418.410058 -20.751904 
L 419.309478 -20.058034 
L 420.208897 -19.374273 
L 421.108317 -18.706943 
L 422.007737 -18.061733 
L 422.907157 -17.442723 
L 423.806576 -16.851705 
L 424.705996 -16.287952 
L 425.605416 -15.748489 
L 426.504836 -15.228783 
L 427.404255 -14.723691 
L 428.303675 -14.228464 
L 429.203095 -13.739575 
L 430.102515 -13.255229 
L 431.001934 -12.775465 
L 431.901354 -12.301883 
L 432.800774 -11.837096 
L 433.700193 -11.38405 
L 434.599613 -10.945371 
L 435.499033 -10.522875 
L 436.398453 -10.117305 
L 437.297872 -9.728311 
L 438.197292 -9.354631 
L 439.096712 -8.99442 
L 439.996132 -8.645609 
L 440.895551 -8.30627 
L 441.794971 -7.974895 
L 442.694391 -7.650597 
L 443.59381 -7.333201 
L 444.49323 -7.023244 
L 445.39265 -6.721881 
L 446.29207 -6.430722 
L 447.191489 -6.151612 
L 448.090909 -5.886379 
L 448.990329 -5.636599 
L 449.889749 -5.403406 
L 450.789168 -5.187384 
L 451.688588 -4.988558 
L 452.588008 -4.806491 
L 453.487427 -4.640442 
L 454.386847 -4.489559 
L 455.286267 -4.353049 
L 456.185687 -4.230281 
L 457.085106 -4.120809 
L 457.984526 -4.024306 
L 458.883946 -3.940432 
L 459.783366 -3.868671 
L 459.783366 -2.470909 
L 459.783366 -2.470909 
L 458.883946 -2.470909 
L 457.984526 -2.470909 
L 457.085106 -2.470909 
L 456.185687 -2.470909 
L 455.286267 -2.470909 
L 454.386847 -2.470909 
L 453.487427 -2.470909 
L 452.588008 -2.470909 
L 451.688588 -2.470909 
L 450.789168 -2.470909 
L 449.889749 -2.470909 
L 448.990329 -2.470909 
L 448.090909 -2.470909 
L 447.191489 -2.470909 
L 446.29207 -2.470909 
L 445.39265 -2.470909 
L 444.49323 -2.470909 
L 443.59381 -2.470909 
L 442.694391 -2.470909 
L 441.794971 -2.470909 
L 440.895551 -2.470909 
L 439.996132 -2.470909 
L 439.096712 -2.470909 
L 438.197292 -2.470909 
L 437.297872 -2.470909 
L 436.398453 -2.470909 
L 435.499033 -2.470909 
L 434.599613 -2.470909 
L 433.700193 -2.470909 
L 432.800774 -2.470909 
L 431.901354 -2.470909 
L 431.001934 -2.470909 
L 430.102515 -2.470909 
L 429.203095 -2.470909 
L 428.303675 -2.470909 
L 427.404255 -2.470909 
L 426.504836 -2.470909 
L 425.605416 -2.470909 
L 424.705996 -2.470909 
L 423.806576 -2.470909 
L 422.907157 -2.470909 
L 422.007737 -2.470909 
L 421.108317 -2.470909 
L 420.208897 -2.470909 
L 419.309478 -2.470909 
L 418.410058 -2.470909 
L 417.510638 -2.470909 
L 416.611219 -2.470909 
L 415.711799 -2.470909 
L 414.812379 -2.470909 
L 413.912959 -2.470909 
L 413.01354 -2.470909 
L 412.11412 -2.470909 
L 411.2147 -2.470909 
L 410.31528 -2.470909 
L 409.415861 -2.470909 
L 408.516441 -2.470909 
L 407.617021 -2.470909 
L 406.717602 -2.470909 
L 405.818182 -2.470909 
L 404.918762 -2.470909 
L 404.019342 -2.470909 
L 403.119923 -2.470909 
L 402.220503 -2.470909 
L 401.321083 -2.470909 
L 400.421663 -2.470909 
L 399.522244 -2.470909 
L 398.622824 -2.470909 
L 397.723404 -2.470909 
L 396.823985 -2.470909 
L 395.924565 -2.470909 
L 395.025145 -2.470909 
L 394.125725 -2.470909 
L 393.226306 -2.470909 
L 392.326886 -2.470909 
L 391.427466 -2.470909 
L 390.528046 -2.470909 
L 389.628627 -2.470909 
L 388.729207 -2.470909 
L 387.829787 -2.470909 
L 386.930368 -2.470909 
L 386.030948 -2.470909 
L 385.131528 -2.470909 
L 384.232108 -2.470909 
L 383.332689 -2.470909 
L 382.433269 -2.470909 
L 381.533849 -2.470909 
L 380.634429 -2.470909 
L 379.73501 -2.470909 
L 378.83559 -2.470909 
L 377.93617 -2.470909 
L 377.03675 -2.470909 
L 376.137331 -2.470909 
L 375.237911 -2.470909 
L 374.338491 -2.470909 
L 373.439072 -2.470909 
L 372.539652 -2.470909 
L 371.640232 -2.470909 
L 370.740812 -2.470909 
L 369.841393 -2.470909 
L 368.941973 -2.470909 
L 368.042553 -2.470909 
L 367.143133 -2.470909 
L 366.243714 -2.470909 
L 365.344294 -2.470909 
L 364.444874 -2.470909 
L 363.545455 -2.470909 
L 362.646035 -2.470909 
L 361.746615 -2.470909 
L 360.847195 -2.470909 
L 359.947776 -2.470909 
L 359.048356 -2.470909 
L 358.148936 -2.470909 
L 357.249516 -2.470909 
L 356.350097 -2.470909 
L 355.450677 -2.470909 
L 354.551257 -2.470909 
L 353.651838 -2.470909 
L 352.752418 -2.470909 
L 351.852998 -2.470909 
L 350.953578 -2.470909 
L 350.054159 -2.470909 
L 349.154739 -2.470909 
L 348.255319 -2.470909 
L 347.355899 -2.470909 
L 346.45648 -2.470909 
L 345.55706 -2.470909 
L 344.65764 -2.470909 
L 343.758221 -2.470909 
L 342.858801 -2.470909 
L 341.959381 -2.470909 
L 341.059961 -2.470909 
L 340.160542 -2.470909 
L 339.261122 -2.470909 
L 338.361702 -2.470909 
L 337.462282 -2.470909 
L 336.562863 -2.470909 
L 335.663443 -2.470909 
L 334.764023 -2.470909 
L 333.864603 -2.470909 
L 332.965184 -2.470909 
L 332.065764 -2.470909 
L 331.166344 -2.470909 
L 330.266925 -2.470909 
L 329.367505 -2.470909 
L 328.468085 -2.470909 
L 327.568665 -2.470909 
L 326.669246 -2.470909 
L 325.769826 -2.470909 
L 324.870406 -2.470909 
L 323.970986 -2.470909 
L 323.071567 -2.470909 
L 322.172147 -2.470909 
L 321.272727 -2.470909 
L 320.373308 -2.470909 
L 319.473888 -2.470909 
L 318.574468 -2.470909 
L 317.675048 -2.470909 
L 316.775629 -2.470909 
L 315.876209 -2.470909 
L 314.976789 -2.470909 
L 314.077369 -2.470909 
L 313.17795 -2.470909 
L 312.27853 -2.470909 
L 311.37911 -2.470909 
L 310.479691 -2.470909 
L 309.580271 -2.470909 
L 308.680851 -2.470909 
L 307.781431 -2.470909 
L 306.882012 -2.470909 
L 305.982592 -2.470909 
L 305.083172 -2.470909 
L 304.183752 -2.470909 
L 303.284333 -2.470909 
L 302.384913 -2.470909 
L 301.485493 -2.470909 
L 300.586074 -2.470909 
L 299.686654 -2.470909 
L 298.787234 -2.470909 
L 297.887814 -2.470909 
L 296.988395 -2.470909 
L 296.088975 -2.470909 
L 295.189555 -2.470909 
L 294.290135 -2.470909 
L 293.390716 -2.470909 
L 292.491296 -2.470909 
z
" style="stroke: #116dc2; stroke-opacity: 0.2"/>
    </defs>
    <g clip-path="url(#pccdbc9c8b6)">
     <use xlink:href="#m2d047c286c" x="0" y="54.36" style="fill: #116dc2; fill-opacity: 0.2; stroke: #116dc2; stroke-opacity: 0.2"/>
    </g>
   </g>
   <g id="PolyCollection_3">
    <defs>
     <path id="mbe69d452d6" d="M 25.363636 -2.470909 
L 25.363636 -4.110147 
L 26.263056 -4.322796 
L 27.162476 -4.532381 
L 28.061896 -4.738813 
L 28.961315 -4.96176 
L 29.860735 -5.239006 
L 30.760155 -5.611005 
L 31.659574 -6.098265 
L 32.558994 -6.690053 
L 33.458414 -7.359641 
L 34.357834 -8.098921 
L 35.257253 -8.942313 
L 36.156673 -9.952614 
L 37.056093 -11.173603 
L 37.955513 -12.588066 
L 38.854932 -14.120095 
L 39.754352 -15.682745 
L 40.653772 -17.232593 
L 41.553191 -18.7903 
L 42.452611 -20.418538 
L 43.352031 -22.178573 
L 44.251451 -24.091296 
L 45.15087 -26.118547 
L 46.05029 -28.172142 
L 46.94971 -30.148796 
L 47.84913 -31.975471 
L 48.748549 -33.641403 
L 49.647969 -35.201086 
L 50.547389 -36.750041 
L 51.446809 -38.384798 
L 52.346228 -40.156936 
L 53.245648 -42.034106 
L 54.145068 -43.893883 
L 55.044487 -45.574228 
L 55.943907 -46.965854 
L 56.843327 -48.08259 
L 57.742747 -49.042485 
L 58.642166 -49.958827 
L 59.541586 -50.827802 
L 60.441006 -51.519198 
L 61.340426 -51.886539 
L 62.239845 -51.889091 
L 63.139265 -51.602714 
L 64.038685 -51.124854 
L 64.938104 -50.499817 
L 65.837524 -49.746777 
L 66.736944 -48.926227 
L 67.636364 -48.132023 
L 68.535783 -47.403384 
L 69.435203 -46.661547 
L 70.334623 -45.750351 
L 71.234043 -44.544867 
L 72.133462 -43.028705 
L 73.032882 -41.285106 
L 73.932302 -39.429979 
L 74.831721 -37.549141 
L 75.731141 -35.676076 
L 76.630561 -33.807941 
L 77.529981 -31.93927 
L 78.4294 -30.089682 
L 79.32882 -28.305448 
L 80.22824 -26.631683 
L 81.12766 -25.077707 
L 82.027079 -23.605412 
L 82.926499 -22.148786 
L 83.825919 -20.648637 
L 84.725338 -19.082875 
L 85.624758 -17.479799 
L 86.524178 -15.907512 
L 87.423598 -14.442067 
L 88.323017 -13.131419 
L 89.222437 -11.97776 
L 90.121857 -10.94844 
L 91.021277 -10.004659 
L 91.920696 -9.125048 
L 92.820116 -8.308493 
L 93.719536 -7.560681 
L 94.618956 -6.881555 
L 95.518375 -6.264856 
L 96.417795 -5.706197 
L 97.317215 -5.209115 
L 98.216634 -4.782591 
L 98.216634 -2.470909 
L 98.216634 -2.470909 
L 97.317215 -2.470909 
L 96.417795 -2.470909 
L 95.518375 -2.470909 
L 94.618956 -2.470909 
L 93.719536 -2.470909 
L 92.820116 -2.470909 
L 91.920696 -2.470909 
L 91.021277 -2.470909 
L 90.121857 -2.470909 
L 89.222437 -2.470909 
L 88.323017 -2.470909 
L 87.423598 -2.470909 
L 86.524178 -2.470909 
L 85.624758 -2.470909 
L 84.725338 -2.470909 
L 83.825919 -2.470909 
L 82.926499 -2.470909 
L 82.027079 -2.470909 
L 81.12766 -2.470909 
L 80.22824 -2.470909 
L 79.32882 -2.470909 
L 78.4294 -2.470909 
L 77.529981 -2.470909 
L 76.630561 -2.470909 
L 75.731141 -2.470909 
L 74.831721 -2.470909 
L 73.932302 -2.470909 
L 73.032882 -2.470909 
L 72.133462 -2.470909 
L 71.234043 -2.470909 
L 70.334623 -2.470909 
L 69.435203 -2.470909 
L 68.535783 -2.470909 
L 67.636364 -2.470909 
L 66.736944 -2.470909 
L 65.837524 -2.470909 
L 64.938104 -2.470909 
L 64.038685 -2.470909 
L 63.139265 -2.470909 
L 62.239845 -2.470909 
L 61.340426 -2.470909 
L 60.441006 -2.470909 
L 59.541586 -2.470909 
L 58.642166 -2.470909 
L 57.742747 -2.470909 
L 56.843327 -2.470909 
L 55.943907 -2.470909 
L 55.044487 -2.470909 
L 54.145068 -2.470909 
L 53.245648 -2.470909 
L 52.346228 -2.470909 
L 51.446809 -2.470909 
L 50.547389 -2.470909 
L 49.647969 -2.470909 
L 48.748549 -2.470909 
L 47.84913 -2.470909 
L 46.94971 -2.470909 
L 46.05029 -2.470909 
L 45.15087 -2.470909 
L 44.251451 -2.470909 
L 43.352031 -2.470909 
L 42.452611 -2.470909 
L 41.553191 -2.470909 
L 40.653772 -2.470909 
L 39.754352 -2.470909 
L 38.854932 -2.470909 
L 37.955513 -2.470909 
L 37.056093 -2.470909 
L 36.156673 -2.470909 
L 35.257253 -2.470909 
L 34.357834 -2.470909 
L 33.458414 -2.470909 
L 32.558994 -2.470909 
L 31.659574 -2.470909 
L 30.760155 -2.470909 
L 29.860735 -2.470909 
L 28.961315 -2.470909 
L 28.061896 -2.470909 
L 27.162476 -2.470909 
L 26.263056 -2.470909 
L 25.363636 -2.470909 
z
" style="stroke: #8a8a8a; stroke-opacity: 0.2"/>
    </defs>
    <g clip-path="url(#pccdbc9c8b6)">
     <use xlink:href="#mbe69d452d6" x="0" y="54.36" style="fill: #8a8a8a; fill-opacity: 0.2; stroke: #8a8a8a; stroke-opacity: 0.2"/>
    </g>
   </g>
   <g id="line2d_1">
    <path d="M 350.953578 50.285985 
L 355.450677 49.629462 
L 359.048356 48.907426 
L 362.646035 47.96211 
L 366.243714 46.768983 
L 379.73501 41.685636 
L 382.433269 40.47706 
L 386.030948 38.564087 
L 391.427466 35.355745 
L 409.415861 24.230022 
L 413.01354 21.825604 
L 417.510638 18.47606 
L 420.208897 16.527758 
L 422.007737 15.405344 
L 423.806576 14.477197 
L 425.605416 13.740314 
L 428.303675 12.901807 
L 432.800774 11.827076 
L 436.398453 11.144549 
L 439.096712 10.8133 
L 441.794971 10.681779 
L 444.49323 10.774474 
L 447.191489 11.140084 
L 448.990329 11.566681 
L 450.789168 12.152577 
L 453.487427 13.31844 
L 456.185687 14.766582 
L 459.783366 16.965821 
L 471.475822 24.552949 
L 479.5706 30.020189 
L 483.168279 32.365505 
L 486.765957 34.438553 
L 497.558994 40.075374 
L 502.056093 42.241974 
L 506.553191 44.124939 
L 512.84913 46.513998 
L 517.346228 47.965335 
L 520.943907 48.892539 
L 524.541586 49.593462 
L 528.139265 50.072405 
L 532.636364 50.445841 
L 532.636364 50.445841 
" clip-path="url(#pccdbc9c8b6)" style="fill: none; stroke: #cf1313; stroke-width: 1.5; stroke-linecap: square"/>
   </g>
   <g id="line2d_2">
    <path d="M 292.491296 50.209479 
L 297.887814 49.274946 
L 301.485493 48.462728 
L 305.083172 47.376632 
L 308.680851 46.021424 
L 313.17795 44.102512 
L 316.775629 42.357405 
L 323.970986 38.687659 
L 326.669246 37.668699 
L 330.266925 36.397009 
L 332.065764 35.547721 
L 333.864603 34.427601 
L 335.663443 33.009877 
L 337.462282 31.328755 
L 340.160542 28.458686 
L 344.65764 23.217422 
L 347.355899 20.133837 
L 349.154739 18.309226 
L 350.953578 16.780938 
L 352.752418 15.580349 
L 354.551257 14.666473 
L 357.249516 13.633821 
L 365.344294 10.959903 
L 367.143133 10.54025 
L 368.941973 10.328431 
L 370.740812 10.336266 
L 377.03675 10.782584 
L 384.232108 10.613535 
L 386.030948 10.970634 
L 387.829787 11.560321 
L 390.528046 12.786194 
L 394.125725 14.801823 
L 397.723404 17.099216 
L 400.421663 19.049137 
L 404.019342 21.976844 
L 411.2147 28.036868 
L 420.208897 34.985727 
L 422.907157 36.917277 
L 425.605416 38.611511 
L 430.102515 41.104771 
L 434.599613 43.414629 
L 438.197292 45.005369 
L 442.694391 46.709403 
L 447.191489 48.208388 
L 450.789168 49.172616 
L 454.386847 49.870441 
L 457.984526 50.335694 
L 459.783366 50.491329 
L 459.783366 50.491329 
" clip-path="url(#pccdbc9c8b6)" style="fill: none; stroke: #116dc2; stroke-width: 1.5; stroke-linecap: square"/>
   </g>
   <g id="line2d_3">
    <path d="M 25.363636 50.249853 
L 26.263056 50.037204 
L 27.162476 49.827619 
L 28.061896 49.621187 
L 28.961315 49.39824 
L 29.860735 49.120994 
L 30.760155 48.748995 
L 31.659574 48.261735 
L 32.558994 47.669947 
L 33.458414 47.000359 
L 34.357834 46.261079 
L 35.257253 45.417687 
L 36.156673 44.407386 
L 37.056093 43.186397 
L 37.955513 41.771934 
L 38.854932 40.239905 
L 39.754352 38.677255 
L 40.653772 37.127407 
L 41.553191 35.5697 
L 42.452611 33.941462 
L 43.352031 32.181427 
L 44.251451 30.268704 
L 45.15087 28.241453 
L 46.05029 26.187858 
L 46.94971 24.211204 
L 47.84913 22.384529 
L 48.748549 20.718597 
L 49.647969 19.158914 
L 50.547389 17.609959 
L 51.446809 15.975202 
L 52.346228 14.203064 
L 53.245648 12.325894 
L 54.145068 10.466117 
L 55.044487 8.785772 
L 55.943907 7.394146 
L 56.843327 6.27741 
L 57.742747 5.317515 
L 58.642166 4.401173 
L 59.541586 3.532198 
L 60.441006 2.840802 
L 61.340426 2.473461 
L 62.239845 2.470909 
L 63.139265 2.757286 
L 64.038685 3.235146 
L 64.938104 3.860183 
L 65.837524 4.613223 
L 66.736944 5.433773 
L 67.636364 6.227977 
L 68.535783 6.956616 
L 69.435203 7.698453 
L 70.334623 8.609649 
L 71.234043 9.815133 
L 72.133462 11.331295 
L 73.032882 13.074894 
L 73.932302 14.930021 
L 74.831721 16.810859 
L 75.731141 18.683924 
L 76.630561 20.552059 
L 77.529981 22.42073 
L 78.4294 24.270318 
L 79.32882 26.054552 
L 80.22824 27.728317 
L 81.12766 29.282293 
L 82.027079 30.754588 
L 82.926499 32.211214 
L 83.825919 33.711363 
L 84.725338 35.277125 
L 85.624758 36.880201 
L 86.524178 38.452488 
L 87.423598 39.917933 
L 88.323017 41.228581 
L 89.222437 42.38224 
L 90.121857 43.41156 
L 91.021277 44.355341 
L 91.920696 45.234952 
L 92.820116 46.051507 
L 93.719536 46.799319 
L 94.618956 47.478445 
L 95.518375 48.095144 
L 96.417795 48.653803 
L 97.317215 49.150885 
L 98.216634 49.577409 
" clip-path="url(#pccdbc9c8b6)" style="fill: none; stroke: #8a8a8a; stroke-width: 1.5; stroke-linecap: square"/>
   </g>
  </g>
 </g>
 <defs>
  <clipPath id="pccdbc9c8b6">
   <rect x="0" y="-0" width="558" height="54.36"/>
  </clipPath>
 </defs>
</svg>
