<?xml version="1.0" encoding="utf-8" standalone="no"?>
<!DOCTYPE svg PUBLIC "-//W3C//DTD SVG 1.1//EN"
  "http://www.w3.org/Graphics/SVG/1.1/DTD/svg11.dtd">
<svg xmlns:xlink="http://www.w3.org/1999/xlink" width="558pt" height="54.36pt" viewBox="0 0 558 54.36" xmlns="http://www.w3.org/2000/svg" version="1.1">
 <metadata>
  <rdf:RDF xmlns:dc="http://purl.org/dc/elements/1.1/" xmlns:cc="http://creativecommons.org/ns#" xmlns:rdf="http://www.w3.org/1999/02/22-rdf-syntax-ns#">
   <cc:Work>
    <dc:type rdf:resource="http://purl.org/dc/dcmitype/StillImage"/>
    <dc:date>2024-09-14T12:46:42.127397</dc:date>
    <dc:format>image/svg+xml</dc:format>
    <dc:creator>
     <cc:Agent>
      <dc:title>Matplotlib v3.5.2, https://matplotlib.org/</dc:title>
     </cc:Agent>
    </dc:creator>
   </cc:Work>
  </rdf:RDF>
 </metadata>
 <defs>
  <style type="text/css">*{stroke-linejoin: round; stroke-linecap: butt}</style>
 </defs>
 <g id="figure_1">
  <g id="patch_1">
   <path d="M 0 54.36 
L 558 54.36 
L 558 0 
L 0 0 
L 0 54.36 
z
" style="fill: none; opacity: 0"/>
  </g>
  <g id="axes_1">
   <g id="PolyCollection_1">
    <defs>
     <path id="m59a2ab6182" d="M 322.981273 -2.470909 
L 322.981273 -3.963769 
L 323.642645 -4.017599 
L 324.304018 -4.071768 
L 324.965391 -4.12652 
L 325.626763 -4.182099 
L 326.288136 -4.238739 
L 326.949508 -4.296653 
L 327.610881 -4.356024 
L 328.272253 -4.417007 
L 328.933626 -4.47973 
L 329.594998 -4.544296 
L 330.256371 -4.610798 
L 330.917743 -4.679323 
L 331.579116 -4.74997 
L 332.240488 -4.822863 
L 332.901861 -4.898159 
L 333.563233 -4.97606 
L 334.224606 -5.056821 
L 334.885978 -5.140748 
L 335.547351 -5.228201 
L 336.208723 -5.319588 
L 336.870096 -5.415351 
L 337.531469 -5.515955 
L 338.192841 -5.621872 
L 338.854214 -5.733564 
L 339.515586 -5.851462 
L 340.176959 -5.975947 
L 340.838331 -6.107336 
L 341.499704 -6.245864 
L 342.161076 -6.391671 
L 342.822449 -6.544795 
L 343.483821 -6.705167 
L 344.145194 -6.872605 
L 344.806566 -7.046819 
L 345.467939 -7.227421 
L 346.129311 -7.413927 
L 346.790684 -7.605778 
L 347.452056 -7.802355 
L 348.113429 -8.002997 
L 348.774801 -8.207024 
L 349.436174 -8.41376 
L 350.097547 -8.622559 
L 350.758919 -8.832824 
L 351.420292 -9.044032 
L 352.081664 -9.255752 
L 352.743037 -9.467662 
L 353.404409 -9.679558 
L 354.065782 -9.891363 
L 354.727154 -10.10313 
L 355.388527 -10.315033 
L 356.049899 -10.527364 
L 356.711272 -10.740521 
L 357.372644 -10.954987 
L 358.034017 -11.171318 
L 358.695389 -11.390118 
L 359.356762 -11.612021 
L 360.018134 -11.837672 
L 360.679507 -12.067704 
L 361.340879 -12.302723 
L 362.002252 -12.543288 
L 362.663625 -12.789896 
L 363.324997 -13.042969 
L 363.98637 -13.302837 
L 364.647742 -13.56973 
L 365.309115 -13.843761 
L 365.970487 -14.124923 
L 366.63186 -14.413076 
L 367.293232 -14.707949 
L 367.954605 -15.00913 
L 368.615977 -15.316076 
L 369.27735 -15.628117 
L 369.938722 -15.944467 
L 370.600095 -16.264244 
L 371.261467 -16.586487 
L 371.92284 -16.910183 
L 372.584212 -17.234292 
L 373.245585 -17.557781 
L 373.906957 -17.879649 
L 374.56833 -18.198961 
L 375.229703 -18.514876 
L 375.891075 -18.826673 
L 376.552448 -19.13378 
L 377.21382 -19.43579 
L 377.875193 -19.732488 
L 378.536565 -20.023861 
L 379.197938 -20.310111 
L 379.85931 -20.591664 
L 380.520683 -20.869166 
L 381.182055 -21.143482 
L 381.843428 -21.415675 
L 382.5048 -21.686985 
L 383.166173 -21.958793 
L 383.827545 -22.232571 
L 384.488918 -22.509828 
L 385.15029 -22.792044 
L 385.811663 -23.080596 
L 386.473035 -23.376684 
L 387.134408 -23.681257 
L 387.79578 -23.994943 
L 388.457153 -24.318001 
L 389.118526 -24.650273 
L 389.779898 -24.991174 
L 390.441271 -25.339695 
L 391.102643 -25.694434 
L 391.764016 -26.053654 
L 392.425388 -26.415361 
L 393.086761 -26.777403 
L 393.748133 -27.137579 
L 394.409506 -27.493755 
L 395.070878 -27.843977 
L 395.732251 -28.186579 
L 396.393623 -28.520266 
L 397.054996 -28.844185 
L 397.716368 -29.157961 
L 398.377741 -29.46171 
L 399.039113 -29.756021 
L 399.700486 -30.041908 
L 400.361858 -30.320745 
L 401.023231 -30.594174 
L 401.684604 -30.864005 
L 402.345976 -31.132112 
L 403.007349 -31.400319 
L 403.668721 -31.670298 
L 404.330094 -31.943482 
L 404.991466 -32.22098 
L 405.652839 -32.503524 
L 406.314211 -32.791422 
L 406.975584 -33.084544 
L 407.636956 -33.382318 
L 408.298329 -33.68375 
L 408.959701 -33.987461 
L 409.621074 -34.29174 
L 410.282446 -34.594603 
L 410.943819 -34.893875 
L 411.605191 -35.187264 
L 412.266564 -35.472448 
L 412.927936 -35.747159 
L 413.589309 -36.009263 
L 414.250682 -36.256833 
L 414.912054 -36.48821 
L 415.573427 -36.702056 
L 416.234799 -36.897386 
L 416.896172 -37.073586 
L 417.557544 -37.230411 
L 418.218917 -37.36797 
L 418.880289 -37.486692 
L 419.541662 -37.587281 
L 420.203034 -37.670661 
L 420.864407 -37.737917 
L 421.525779 -37.790231 
L 422.187152 -37.828824 
L 422.848524 -37.854902 
L 423.509897 -37.869611 
L 424.171269 -37.874006 
L 424.832642 -37.869024 
L 425.494014 -37.855478 
L 426.155387 -37.834051 
L 426.81676 -37.805309 
L 427.478132 -37.769707 
L 428.139505 -37.727614 
L 428.800877 -37.679322 
L 429.46225 -37.625069 
L 430.123622 -37.565048 
L 430.784995 -37.499416 
L 431.446367 -37.428303 
L 432.10774 -37.351807 
L 432.769112 -37.269997 
L 433.430485 -37.182907 
L 434.091857 -37.090531 
L 434.75323 -36.992821 
L 435.414602 -36.889685 
L 436.075975 -36.78099 
L 436.737347 -36.666569 
L 437.39872 -36.546229 
L 438.060092 -36.419771 
L 438.721465 -36.287 
L 439.382838 -36.147749 
L 440.04421 -36.001895 
L 440.705583 -35.849377 
L 441.366955 -35.690205 
L 442.028328 -35.524471 
L 442.6897 -35.352347 
L 443.351073 -35.174079 
L 444.012445 -34.98997 
L 444.673818 -34.800363 
L 445.33519 -34.605611 
L 445.996563 -34.406045 
L 446.657935 -34.201947 
L 447.319308 -33.993515 
L 447.98068 -33.780839 
L 448.642053 -33.563884 
L 449.303425 -33.342476 
L 449.964798 -33.116303 
L 450.62617 -32.884927 
L 451.287543 -32.647804 
L 451.948915 -32.404317 
L 452.610288 -32.153811 
L 453.271661 -31.895637 
L 453.933033 -31.629198 
L 454.594406 -31.353988 
L 455.255778 -31.069633 
L 455.917151 -30.775914 
L 456.578523 -30.472793 
L 457.239896 -30.160415 
L 457.901268 -29.839103 
L 458.562641 -29.509344 
L 459.224013 -29.171759 
L 459.885386 -28.827071 
L 460.546758 -28.476063 
L 461.208131 -28.119544 
L 461.869503 -27.758302 
L 462.530876 -27.393078 
L 463.192248 -27.02454 
L 463.853621 -26.653267 
L 464.514993 -26.279744 
L 465.176366 -25.904369 
L 465.837739 -25.527467 
L 466.499111 -25.149311 
L 467.160484 -24.77015 
L 467.821856 -24.390234 
L 468.483229 -24.009839 
L 469.144601 -23.62929 
L 469.805974 -23.248972 
L 470.467346 -22.869338 
L 471.128719 -22.490906 
L 471.790091 -22.114245 
L 472.451464 -21.739963 
L 473.112836 -21.368682 
L 473.774209 -21.001009 
L 474.435581 -20.637516 
L 475.096954 -20.278709 
L 475.758326 -19.925015 
L 476.419699 -19.57676 
L 477.081071 -19.234161 
L 477.742444 -18.897324 
L 478.403817 -18.566246 
L 479.065189 -18.240821 
L 479.726562 -17.920853 
L 480.387934 -17.606074 
L 481.049307 -17.296157 
L 481.710679 -16.99074 
L 482.372052 -16.68944 
L 483.033424 -16.391879 
L 483.694797 -16.097694 
L 484.356169 -15.80656 
L 485.017542 -15.518198 
L 485.678914 -15.23239 
L 486.340287 -14.948986 
L 487.001659 -14.667909 
L 487.663032 -14.389158 
L 488.324404 -14.112802 
L 488.985777 -13.838978 
L 489.647149 -13.56788 
L 490.308522 -13.299748 
L 490.969895 -13.034854 
L 491.631267 -12.773485 
L 492.29264 -12.515932 
L 492.954012 -12.262469 
L 493.615385 -12.013349 
L 494.276757 -11.768786 
L 494.93813 -11.528959 
L 495.599502 -11.294001 
L 496.260875 -11.064007 
L 496.922247 -10.839042 
L 497.58362 -10.619141 
L 498.244992 -10.404328 
L 498.906365 -10.194622 
L 499.567737 -9.990046 
L 500.22911 -9.790634 
L 500.890482 -9.596436 
L 501.551855 -9.407513 
L 502.213227 -9.223932 
L 502.8746 -9.045756 
L 503.535973 -8.87303 
L 504.197345 -8.705763 
L 504.858718 -8.543914 
L 505.52009 -8.387371 
L 506.181463 -8.235944 
L 506.842835 -8.089354 
L 507.504208 -7.947233 
L 508.16558 -7.809125 
L 508.826953 -7.674501 
L 509.488325 -7.542779 
L 510.149698 -7.413343 
L 510.81107 -7.285573 
L 511.472443 -7.158875 
L 512.133815 -7.032706 
L 512.795188 -6.906605 
L 513.45656 -6.78021 
L 514.117933 -6.653275 
L 514.779305 -6.52568 
L 515.440678 -6.397432 
L 516.10205 -6.26866 
L 516.763423 -6.139603 
L 517.424796 -6.010598 
L 518.086168 -5.882057 
L 518.747541 -5.754446 
L 519.408913 -5.628269 
L 520.070286 -5.50404 
L 520.731658 -5.38227 
L 521.393031 -5.263448 
L 522.054403 -5.148028 
L 522.715776 -5.036414 
L 523.377148 -4.928956 
L 524.038521 -4.825936 
L 524.699893 -4.727566 
L 525.361266 -4.633981 
L 526.022638 -4.545237 
L 526.684011 -4.461305 
L 527.345383 -4.382072 
L 528.006756 -4.307345 
L 528.668128 -4.23685 
L 529.329501 -4.170243 
L 529.990874 -4.107119 
L 530.652246 -4.047026 
L 531.313619 -3.989481 
L 531.974991 -3.933992 
L 532.636364 -3.880077 
L 532.636364 -2.470909 
L 532.636364 -2.470909 
L 531.974991 -2.470909 
L 531.313619 -2.470909 
L 530.652246 -2.470909 
L 529.990874 -2.470909 
L 529.329501 -2.470909 
L 528.668128 -2.470909 
L 528.006756 -2.470909 
L 527.345383 -2.470909 
L 526.684011 -2.470909 
L 526.022638 -2.470909 
L 525.361266 -2.470909 
L 524.699893 -2.470909 
L 524.038521 -2.470909 
L 523.377148 -2.470909 
L 522.715776 -2.470909 
L 522.054403 -2.470909 
L 521.393031 -2.470909 
L 520.731658 -2.470909 
L 520.070286 -2.470909 
L 519.408913 -2.470909 
L 518.747541 -2.470909 
L 518.086168 -2.470909 
L 517.424796 -2.470909 
L 516.763423 -2.470909 
L 516.10205 -2.470909 
L 515.440678 -2.470909 
L 514.779305 -2.470909 
L 514.117933 -2.470909 
L 513.45656 -2.470909 
L 512.795188 -2.470909 
L 512.133815 -2.470909 
L 511.472443 -2.470909 
L 510.81107 -2.470909 
L 510.149698 -2.470909 
L 509.488325 -2.470909 
L 508.826953 -2.470909 
L 508.16558 -2.470909 
L 507.504208 -2.470909 
L 506.842835 -2.470909 
L 506.181463 -2.470909 
L 505.52009 -2.470909 
L 504.858718 -2.470909 
L 504.197345 -2.470909 
L 503.535973 -2.470909 
L 502.8746 -2.470909 
L 502.213227 -2.470909 
L 501.551855 -2.470909 
L 500.890482 -2.470909 
L 500.22911 -2.470909 
L 499.567737 -2.470909 
L 498.906365 -2.470909 
L 498.244992 -2.470909 
L 497.58362 -2.470909 
L 496.922247 -2.470909 
L 496.260875 -2.470909 
L 495.599502 -2.470909 
L 494.93813 -2.470909 
L 494.276757 -2.470909 
L 493.615385 -2.470909 
L 492.954012 -2.470909 
L 492.29264 -2.470909 
L 491.631267 -2.470909 
L 490.969895 -2.470909 
L 490.308522 -2.470909 
L 489.647149 -2.470909 
L 488.985777 -2.470909 
L 488.324404 -2.470909 
L 487.663032 -2.470909 
L 487.001659 -2.470909 
L 486.340287 -2.470909 
L 485.678914 -2.470909 
L 485.017542 -2.470909 
L 484.356169 -2.470909 
L 483.694797 -2.470909 
L 483.033424 -2.470909 
L 482.372052 -2.470909 
L 481.710679 -2.470909 
L 481.049307 -2.470909 
L 480.387934 -2.470909 
L 479.726562 -2.470909 
L 479.065189 -2.470909 
L 478.403817 -2.470909 
L 477.742444 -2.470909 
L 477.081071 -2.470909 
L 476.419699 -2.470909 
L 475.758326 -2.470909 
L 475.096954 -2.470909 
L 474.435581 -2.470909 
L 473.774209 -2.470909 
L 473.112836 -2.470909 
L 472.451464 -2.470909 
L 471.790091 -2.470909 
L 471.128719 -2.470909 
L 470.467346 -2.470909 
L 469.805974 -2.470909 
L 469.144601 -2.470909 
L 468.483229 -2.470909 
L 467.821856 -2.470909 
L 467.160484 -2.470909 
L 466.499111 -2.470909 
L 465.837739 -2.470909 
L 465.176366 -2.470909 
L 464.514993 -2.470909 
L 463.853621 -2.470909 
L 463.192248 -2.470909 
L 462.530876 -2.470909 
L 461.869503 -2.470909 
L 461.208131 -2.470909 
L 460.546758 -2.470909 
L 459.885386 -2.470909 
L 459.224013 -2.470909 
L 458.562641 -2.470909 
L 457.901268 -2.470909 
L 457.239896 -2.470909 
L 456.578523 -2.470909 
L 455.917151 -2.470909 
L 455.255778 -2.470909 
L 454.594406 -2.470909 
L 453.933033 -2.470909 
L 453.271661 -2.470909 
L 452.610288 -2.470909 
L 451.948915 -2.470909 
L 451.287543 -2.470909 
L 450.62617 -2.470909 
L 449.964798 -2.470909 
L 449.303425 -2.470909 
L 448.642053 -2.470909 
L 447.98068 -2.470909 
L 447.319308 -2.470909 
L 446.657935 -2.470909 
L 445.996563 -2.470909 
L 445.33519 -2.470909 
L 444.673818 -2.470909 
L 444.012445 -2.470909 
L 443.351073 -2.470909 
L 442.6897 -2.470909 
L 442.028328 -2.470909 
L 441.366955 -2.470909 
L 440.705583 -2.470909 
L 440.04421 -2.470909 
L 439.382838 -2.470909 
L 438.721465 -2.470909 
L 438.060092 -2.470909 
L 437.39872 -2.470909 
L 436.737347 -2.470909 
L 436.075975 -2.470909 
L 435.414602 -2.470909 
L 434.75323 -2.470909 
L 434.091857 -2.470909 
L 433.430485 -2.470909 
L 432.769112 -2.470909 
L 432.10774 -2.470909 
L 431.446367 -2.470909 
L 430.784995 -2.470909 
L 430.123622 -2.470909 
L 429.46225 -2.470909 
L 428.800877 -2.470909 
L 428.139505 -2.470909 
L 427.478132 -2.470909 
L 426.81676 -2.470909 
L 426.155387 -2.470909 
L 425.494014 -2.470909 
L 424.832642 -2.470909 
L 424.171269 -2.470909 
L 423.509897 -2.470909 
L 422.848524 -2.470909 
L 422.187152 -2.470909 
L 421.525779 -2.470909 
L 420.864407 -2.470909 
L 420.203034 -2.470909 
L 419.541662 -2.470909 
L 418.880289 -2.470909 
L 418.218917 -2.470909 
L 417.557544 -2.470909 
L 416.896172 -2.470909 
L 416.234799 -2.470909 
L 415.573427 -2.470909 
L 414.912054 -2.470909 
L 414.250682 -2.470909 
L 413.589309 -2.470909 
L 412.927936 -2.470909 
L 412.266564 -2.470909 
L 411.605191 -2.470909 
L 410.943819 -2.470909 
L 410.282446 -2.470909 
L 409.621074 -2.470909 
L 408.959701 -2.470909 
L 408.298329 -2.470909 
L 407.636956 -2.470909 
L 406.975584 -2.470909 
L 406.314211 -2.470909 
L 405.652839 -2.470909 
L 404.991466 -2.470909 
L 404.330094 -2.470909 
L 403.668721 -2.470909 
L 403.007349 -2.470909 
L 402.345976 -2.470909 
L 401.684604 -2.470909 
L 401.023231 -2.470909 
L 400.361858 -2.470909 
L 399.700486 -2.470909 
L 399.039113 -2.470909 
L 398.377741 -2.470909 
L 397.716368 -2.470909 
L 397.054996 -2.470909 
L 396.393623 -2.470909 
L 395.732251 -2.470909 
L 395.070878 -2.470909 
L 394.409506 -2.470909 
L 393.748133 -2.470909 
L 393.086761 -2.470909 
L 392.425388 -2.470909 
L 391.764016 -2.470909 
L 391.102643 -2.470909 
L 390.441271 -2.470909 
L 389.779898 -2.470909 
L 389.118526 -2.470909 
L 388.457153 -2.470909 
L 387.79578 -2.470909 
L 387.134408 -2.470909 
L 386.473035 -2.470909 
L 385.811663 -2.470909 
L 385.15029 -2.470909 
L 384.488918 -2.470909 
L 383.827545 -2.470909 
L 383.166173 -2.470909 
L 382.5048 -2.470909 
L 381.843428 -2.470909 
L 381.182055 -2.470909 
L 380.520683 -2.470909 
L 379.85931 -2.470909 
L 379.197938 -2.470909 
L 378.536565 -2.470909 
L 377.875193 -2.470909 
L 377.21382 -2.470909 
L 376.552448 -2.470909 
L 375.891075 -2.470909 
L 375.229703 -2.470909 
L 374.56833 -2.470909 
L 373.906957 -2.470909 
L 373.245585 -2.470909 
L 372.584212 -2.470909 
L 371.92284 -2.470909 
L 371.261467 -2.470909 
L 370.600095 -2.470909 
L 369.938722 -2.470909 
L 369.27735 -2.470909 
L 368.615977 -2.470909 
L 367.954605 -2.470909 
L 367.293232 -2.470909 
L 366.63186 -2.470909 
L 365.970487 -2.470909 
L 365.309115 -2.470909 
L 364.647742 -2.470909 
L 363.98637 -2.470909 
L 363.324997 -2.470909 
L 362.663625 -2.470909 
L 362.002252 -2.470909 
L 361.340879 -2.470909 
L 360.679507 -2.470909 
L 360.018134 -2.470909 
L 359.356762 -2.470909 
L 358.695389 -2.470909 
L 358.034017 -2.470909 
L 357.372644 -2.470909 
L 356.711272 -2.470909 
L 356.049899 -2.470909 
L 355.388527 -2.470909 
L 354.727154 -2.470909 
L 354.065782 -2.470909 
L 353.404409 -2.470909 
L 352.743037 -2.470909 
L 352.081664 -2.470909 
L 351.420292 -2.470909 
L 350.758919 -2.470909 
L 350.097547 -2.470909 
L 349.436174 -2.470909 
L 348.774801 -2.470909 
L 348.113429 -2.470909 
L 347.452056 -2.470909 
L 346.790684 -2.470909 
L 346.129311 -2.470909 
L 345.467939 -2.470909 
L 344.806566 -2.470909 
L 344.145194 -2.470909 
L 343.483821 -2.470909 
L 342.822449 -2.470909 
L 342.161076 -2.470909 
L 341.499704 -2.470909 
L 340.838331 -2.470909 
L 340.176959 -2.470909 
L 339.515586 -2.470909 
L 338.854214 -2.470909 
L 338.192841 -2.470909 
L 337.531469 -2.470909 
L 336.870096 -2.470909 
L 336.208723 -2.470909 
L 335.547351 -2.470909 
L 334.885978 -2.470909 
L 334.224606 -2.470909 
L 333.563233 -2.470909 
L 332.901861 -2.470909 
L 332.240488 -2.470909 
L 331.579116 -2.470909 
L 330.917743 -2.470909 
L 330.256371 -2.470909 
L 329.594998 -2.470909 
L 328.933626 -2.470909 
L 328.272253 -2.470909 
L 327.610881 -2.470909 
L 326.949508 -2.470909 
L 326.288136 -2.470909 
L 325.626763 -2.470909 
L 324.965391 -2.470909 
L 324.304018 -2.470909 
L 323.642645 -2.470909 
L 322.981273 -2.470909 
z
" style="stroke: #cf1313; stroke-opacity: 0.2"/>
    </defs>
    <g clip-path="url(#p95ea68ba31)">
     <use xlink:href="#m59a2ab6182" x="0" y="54.36" style="fill: #cf1313; fill-opacity: 0.2; stroke: #cf1313; stroke-opacity: 0.2"/>
    </g>
   </g>
   <g id="PolyCollection_2">
    <defs>
     <path id="m19b4a21616" d="M 134.490103 -2.470909 
L 134.490103 -4.125709 
L 135.151476 -4.224601 
L 135.812848 -4.328121 
L 136.474221 -4.436154 
L 137.135593 -4.548521 
L 137.796966 -4.664981 
L 138.458338 -4.785241 
L 139.119711 -4.908975 
L 139.781083 -5.035844 
L 140.442456 -5.165524 
L 141.103828 -5.29774 
L 141.765201 -5.432297 
L 142.426573 -5.569113 
L 143.087946 -5.708251 
L 143.749318 -5.849933 
L 144.410691 -5.994555 
L 145.072064 -6.142683 
L 145.733436 -6.295028 
L 146.394809 -6.452417 
L 147.056181 -6.615742 
L 147.717554 -6.785898 
L 148.378926 -6.963721 
L 149.040299 -7.149912 
L 149.701671 -7.344985 
L 150.363044 -7.54921 
L 151.024416 -7.762585 
L 151.685789 -7.984826 
L 152.347161 -8.215383 
L 153.008534 -8.453476 
L 153.669906 -8.698156 
L 154.331279 -8.948376 
L 154.992651 -9.203074 
L 155.654024 -9.461247 
L 156.315396 -9.722019 
L 156.976769 -9.984696 
L 157.638142 -10.248792 
L 158.299514 -10.514039 
L 158.960887 -10.78037 
L 159.622259 -11.04789 
L 160.283632 -11.316834 
L 160.945004 -11.587528 
L 161.606377 -11.860348 
L 162.267749 -12.135701 
L 162.929122 -12.414012 
L 163.590494 -12.695739 
L 164.251867 -12.98139 
L 164.913239 -13.27156 
L 165.574612 -13.566959 
L 166.235984 -13.868445 
L 166.897357 -14.177025 
L 167.558729 -14.493853 
L 168.220102 -14.820188 
L 168.881474 -15.157332 
L 169.542847 -15.506553 
L 170.20422 -15.868979 
L 170.865592 -16.245496 
L 171.526965 -16.636647 
L 172.188337 -17.042548 
L 172.84971 -17.462821 
L 173.511082 -17.896575 
L 174.172455 -18.34241 
L 174.833827 -18.798471 
L 175.4952 -19.262539 
L 176.156572 -19.732155 
L 176.817945 -20.204759 
L 177.479317 -20.677852 
L 178.14069 -21.149146 
L 178.802062 -21.616703 
L 179.463435 -22.079044 
L 180.124807 -22.535214 
L 180.78618 -22.984815 
L 181.447552 -23.427984 
L 182.108925 -23.865334 
L 182.770297 -24.297864 
L 183.43167 -24.726843 
L 184.093043 -25.153689 
L 184.754415 -25.579852 
L 185.415788 -26.006716 
L 186.07716 -26.435517 
L 186.738533 -26.8673 
L 187.399905 -27.302894 
L 188.061278 -27.74292 
L 188.72265 -28.187801 
L 189.384023 -28.637785 
L 190.045395 -29.092964 
L 190.706768 -29.55327 
L 191.36814 -30.018459 
L 192.029513 -30.488075 
L 192.690885 -30.961396 
L 193.352258 -31.437365 
L 194.01363 -31.914533 
L 194.675003 -32.391006 
L 195.336375 -32.864418 
L 195.997748 -33.331934 
L 196.659121 -33.790301 
L 197.320493 -34.235928 
L 197.981866 -34.665018 
L 198.643238 -35.073726 
L 199.304611 -35.45834 
L 199.965983 -35.815482 
L 200.627356 -36.1423 
L 201.288728 -36.436653 
L 201.950101 -36.697257 
L 202.611473 -36.923804 
L 203.272846 -37.117025 
L 203.934218 -37.278691 
L 204.595591 -37.411563 
L 205.256963 -37.519272 
L 205.918336 -37.606138 
L 206.579708 -37.676941 
L 207.241081 -37.736653 
L 207.902453 -37.790145 
L 208.563826 -37.841892 
L 209.225199 -37.895702 
L 209.886571 -37.954485 
L 210.547944 -38.02009 
L 211.209316 -38.093226 
L 211.870689 -38.17347 
L 212.532061 -38.259381 
L 213.193434 -38.348689 
L 213.854806 -38.43857 
L 214.516179 -38.525957 
L 215.177551 -38.607872 
L 215.838924 -38.681748 
L 216.500296 -38.745693 
L 217.161669 -38.798681 
L 217.823041 -38.840643 
L 218.484414 -38.872447 
L 219.145786 -38.895768 
L 219.807159 -38.912866 
L 220.468531 -38.926281 
L 221.129904 -38.938498 
L 221.791277 -38.951597 
L 222.452649 -38.966942 
L 223.114022 -38.984936 
L 223.775394 -39.004863 
L 224.436767 -39.024851 
L 225.098139 -39.041934 
L 225.759512 -39.052232 
L 226.420884 -39.051202 
L 227.082257 -39.033958 
L 227.743629 -38.99561 
L 228.405002 -38.931599 
L 229.066374 -38.837988 
L 229.727747 -38.711701 
L 230.389119 -38.55068 
L 231.050492 -38.353962 
L 231.711864 -38.121678 
L 232.373237 -37.854987 
L 233.034609 -37.555943 
L 233.695982 -37.227338 
L 234.357355 -36.872515 
L 235.018727 -36.495175 
L 235.6801 -36.099195 
L 236.341472 -35.688455 
L 237.002845 -35.266685 
L 237.664217 -34.837346 
L 238.32559 -34.403528 
L 238.986962 -33.967876 
L 239.648335 -33.532543 
L 240.309707 -33.09917 
L 240.97108 -32.668883 
L 241.632452 -32.242309 
L 242.293825 -31.819608 
L 242.955197 -31.400524 
L 243.61657 -30.984429 
L 244.277942 -30.570394 
L 244.939315 -30.157248 
L 245.600687 -29.743653 
L 246.26206 -29.328175 
L 246.923432 -28.909372 
L 247.584805 -28.48587 
L 248.246178 -28.056459 
L 248.90755 -27.620178 
L 249.568923 -27.176404 
L 250.230295 -26.724926 
L 250.891668 -26.265999 
L 251.55304 -25.800384 
L 252.214413 -25.32934 
L 252.875785 -24.854587 
L 253.537158 -24.37823 
L 254.19853 -23.902638 
L 254.859903 -23.430302 
L 255.521275 -22.963661 
L 256.182648 -22.504928 
L 256.84402 -22.055928 
L 257.505393 -21.617956 
L 258.166765 -21.19168 
L 258.828138 -20.777098 
L 259.48951 -20.373549 
L 260.150883 -19.979791 
L 260.812256 -19.594119 
L 261.473628 -19.214536 
L 262.135001 -18.838941 
L 262.796373 -18.465315 
L 263.457746 -18.091907 
L 264.119118 -17.717371 
L 264.780491 -17.340869 
L 265.441863 -16.962115 
L 266.103236 -16.581367 
L 266.764608 -16.199371 
L 267.425981 -15.817263 
L 268.087353 -15.436444 
L 268.748726 -15.058449 
L 269.410098 -14.68481 
L 270.071471 -14.316946 
L 270.732843 -13.956072 
L 271.394216 -13.603137 
L 272.055588 -13.258797 
L 272.716961 -12.923418 
L 273.378334 -12.597099 
L 274.039706 -12.279712 
L 274.701079 -11.970954 
L 275.362451 -11.670391 
L 276.023824 -11.377508 
L 276.685196 -11.091745 
L 277.346569 -10.812524 
L 278.007941 -10.53927 
L 278.669314 -10.271426 
L 279.330686 -10.008456 
L 279.992059 -9.749861 
L 280.653431 -9.495183 
L 281.314804 -9.244017 
L 281.976176 -8.996027 
L 282.637549 -8.750961 
L 283.298921 -8.508662 
L 283.960294 -8.269088 
L 284.621666 -8.032314 
L 285.283039 -7.798542 
L 285.944412 -7.568096 
L 286.605784 -7.341414 
L 287.267157 -7.119036 
L 287.928529 -6.901583 
L 288.589902 -6.689734 
L 289.251274 -6.484202 
L 289.912647 -6.285703 
L 290.574019 -6.09493 
L 291.235392 -5.912522 
L 291.896764 -5.739037 
L 292.558137 -5.574927 
L 293.219509 -5.420519 
L 293.880882 -5.275996 
L 294.542254 -5.141388 
L 295.203627 -5.01657 
L 295.864999 -4.901261 
L 296.526372 -4.795037 
L 297.187744 -4.697346 
L 297.849117 -4.607523 
L 298.51049 -4.524818 
L 299.171862 -4.448414 
L 299.833235 -4.377458 
L 300.494607 -4.311081 
L 301.15598 -4.248422 
L 301.817352 -4.188655 
L 302.478725 -4.131006 
L 303.140097 -4.074776 
L 303.80147 -4.019361 
L 304.462842 -3.964267 
L 305.124215 -3.909121 
L 305.785587 -3.853685 
L 305.785587 -2.470909 
L 305.785587 -2.470909 
L 305.124215 -2.470909 
L 304.462842 -2.470909 
L 303.80147 -2.470909 
L 303.140097 -2.470909 
L 302.478725 -2.470909 
L 301.817352 -2.470909 
L 301.15598 -2.470909 
L 300.494607 -2.470909 
L 299.833235 -2.470909 
L 299.171862 -2.470909 
L 298.51049 -2.470909 
L 297.849117 -2.470909 
L 297.187744 -2.470909 
L 296.526372 -2.470909 
L 295.864999 -2.470909 
L 295.203627 -2.470909 
L 294.542254 -2.470909 
L 293.880882 -2.470909 
L 293.219509 -2.470909 
L 292.558137 -2.470909 
L 291.896764 -2.470909 
L 291.235392 -2.470909 
L 290.574019 -2.470909 
L 289.912647 -2.470909 
L 289.251274 -2.470909 
L 288.589902 -2.470909 
L 287.928529 -2.470909 
L 287.267157 -2.470909 
L 286.605784 -2.470909 
L 285.944412 -2.470909 
L 285.283039 -2.470909 
L 284.621666 -2.470909 
L 283.960294 -2.470909 
L 283.298921 -2.470909 
L 282.637549 -2.470909 
L 281.976176 -2.470909 
L 281.314804 -2.470909 
L 280.653431 -2.470909 
L 279.992059 -2.470909 
L 279.330686 -2.470909 
L 278.669314 -2.470909 
L 278.007941 -2.470909 
L 277.346569 -2.470909 
L 276.685196 -2.470909 
L 276.023824 -2.470909 
L 275.362451 -2.470909 
L 274.701079 -2.470909 
L 274.039706 -2.470909 
L 273.378334 -2.470909 
L 272.716961 -2.470909 
L 272.055588 -2.470909 
L 271.394216 -2.470909 
L 270.732843 -2.470909 
L 270.071471 -2.470909 
L 269.410098 -2.470909 
L 268.748726 -2.470909 
L 268.087353 -2.470909 
L 267.425981 -2.470909 
L 266.764608 -2.470909 
L 266.103236 -2.470909 
L 265.441863 -2.470909 
L 264.780491 -2.470909 
L 264.119118 -2.470909 
L 263.457746 -2.470909 
L 262.796373 -2.470909 
L 262.135001 -2.470909 
L 261.473628 -2.470909 
L 260.812256 -2.470909 
L 260.150883 -2.470909 
L 259.48951 -2.470909 
L 258.828138 -2.470909 
L 258.166765 -2.470909 
L 257.505393 -2.470909 
L 256.84402 -2.470909 
L 256.182648 -2.470909 
L 255.521275 -2.470909 
L 254.859903 -2.470909 
L 254.19853 -2.470909 
L 253.537158 -2.470909 
L 252.875785 -2.470909 
L 252.214413 -2.470909 
L 251.55304 -2.470909 
L 250.891668 -2.470909 
L 250.230295 -2.470909 
L 249.568923 -2.470909 
L 248.90755 -2.470909 
L 248.246178 -2.470909 
L 247.584805 -2.470909 
L 246.923432 -2.470909 
L 246.26206 -2.470909 
L 245.600687 -2.470909 
L 244.939315 -2.470909 
L 244.277942 -2.470909 
L 243.61657 -2.470909 
L 242.955197 -2.470909 
L 242.293825 -2.470909 
L 241.632452 -2.470909 
L 240.97108 -2.470909 
L 240.309707 -2.470909 
L 239.648335 -2.470909 
L 238.986962 -2.470909 
L 238.32559 -2.470909 
L 237.664217 -2.470909 
L 237.002845 -2.470909 
L 236.341472 -2.470909 
L 235.6801 -2.470909 
L 235.018727 -2.470909 
L 234.357355 -2.470909 
L 233.695982 -2.470909 
L 233.034609 -2.470909 
L 232.373237 -2.470909 
L 231.711864 -2.470909 
L 231.050492 -2.470909 
L 230.389119 -2.470909 
L 229.727747 -2.470909 
L 229.066374 -2.470909 
L 228.405002 -2.470909 
L 227.743629 -2.470909 
L 227.082257 -2.470909 
L 226.420884 -2.470909 
L 225.759512 -2.470909 
L 225.098139 -2.470909 
L 224.436767 -2.470909 
L 223.775394 -2.470909 
L 223.114022 -2.470909 
L 222.452649 -2.470909 
L 221.791277 -2.470909 
L 221.129904 -2.470909 
L 220.468531 -2.470909 
L 219.807159 -2.470909 
L 219.145786 -2.470909 
L 218.484414 -2.470909 
L 217.823041 -2.470909 
L 217.161669 -2.470909 
L 216.500296 -2.470909 
L 215.838924 -2.470909 
L 215.177551 -2.470909 
L 214.516179 -2.470909 
L 213.854806 -2.470909 
L 213.193434 -2.470909 
L 212.532061 -2.470909 
L 211.870689 -2.470909 
L 211.209316 -2.470909 
L 210.547944 -2.470909 
L 209.886571 -2.470909 
L 209.225199 -2.470909 
L 208.563826 -2.470909 
L 207.902453 -2.470909 
L 207.241081 -2.470909 
L 206.579708 -2.470909 
L 205.918336 -2.470909 
L 205.256963 -2.470909 
L 204.595591 -2.470909 
L 203.934218 -2.470909 
L 203.272846 -2.470909 
L 202.611473 -2.470909 
L 201.950101 -2.470909 
L 201.288728 -2.470909 
L 200.627356 -2.470909 
L 199.965983 -2.470909 
L 199.304611 -2.470909 
L 198.643238 -2.470909 
L 197.981866 -2.470909 
L 197.320493 -2.470909 
L 196.659121 -2.470909 
L 195.997748 -2.470909 
L 195.336375 -2.470909 
L 194.675003 -2.470909 
L 194.01363 -2.470909 
L 193.352258 -2.470909 
L 192.690885 -2.470909 
L 192.029513 -2.470909 
L 191.36814 -2.470909 
L 190.706768 -2.470909 
L 190.045395 -2.470909 
L 189.384023 -2.470909 
L 188.72265 -2.470909 
L 188.061278 -2.470909 
L 187.399905 -2.470909 
L 186.738533 -2.470909 
L 186.07716 -2.470909 
L 185.415788 -2.470909 
L 184.754415 -2.470909 
L 184.093043 -2.470909 
L 183.43167 -2.470909 
L 182.770297 -2.470909 
L 182.108925 -2.470909 
L 181.447552 -2.470909 
L 180.78618 -2.470909 
L 180.124807 -2.470909 
L 179.463435 -2.470909 
L 178.802062 -2.470909 
L 178.14069 -2.470909 
L 177.479317 -2.470909 
L 176.817945 -2.470909 
L 176.156572 -2.470909 
L 175.4952 -2.470909 
L 174.833827 -2.470909 
L 174.172455 -2.470909 
L 173.511082 -2.470909 
L 172.84971 -2.470909 
L 172.188337 -2.470909 
L 171.526965 -2.470909 
L 170.865592 -2.470909 
L 170.20422 -2.470909 
L 169.542847 -2.470909 
L 168.881474 -2.470909 
L 168.220102 -2.470909 
L 167.558729 -2.470909 
L 166.897357 -2.470909 
L 166.235984 -2.470909 
L 165.574612 -2.470909 
L 164.913239 -2.470909 
L 164.251867 -2.470909 
L 163.590494 -2.470909 
L 162.929122 -2.470909 
L 162.267749 -2.470909 
L 161.606377 -2.470909 
L 160.945004 -2.470909 
L 160.283632 -2.470909 
L 159.622259 -2.470909 
L 158.960887 -2.470909 
L 158.299514 -2.470909 
L 157.638142 -2.470909 
L 156.976769 -2.470909 
L 156.315396 -2.470909 
L 155.654024 -2.470909 
L 154.992651 -2.470909 
L 154.331279 -2.470909 
L 153.669906 -2.470909 
L 153.008534 -2.470909 
L 152.347161 -2.470909 
L 151.685789 -2.470909 
L 151.024416 -2.470909 
L 150.363044 -2.470909 
L 149.701671 -2.470909 
L 149.040299 -2.470909 
L 148.378926 -2.470909 
L 147.717554 -2.470909 
L 147.056181 -2.470909 
L 146.394809 -2.470909 
L 145.733436 -2.470909 
L 145.072064 -2.470909 
L 144.410691 -2.470909 
L 143.749318 -2.470909 
L 143.087946 -2.470909 
L 142.426573 -2.470909 
L 141.765201 -2.470909 
L 141.103828 -2.470909 
L 140.442456 -2.470909 
L 139.781083 -2.470909 
L 139.119711 -2.470909 
L 138.458338 -2.470909 
L 137.796966 -2.470909 
L 137.135593 -2.470909 
L 136.474221 -2.470909 
L 135.812848 -2.470909 
L 135.151476 -2.470909 
L 134.490103 -2.470909 
z
" style="stroke: #116dc2; stroke-opacity: 0.2"/>
    </defs>
    <g clip-path="url(#p95ea68ba31)">
     <use xlink:href="#m19b4a21616" x="0" y="54.36" style="fill: #116dc2; fill-opacity: 0.2; stroke: #116dc2; stroke-opacity: 0.2"/>
    </g>
   </g>
   <g id="PolyCollection_3">
    <defs>
     <path id="mdb02b7a6cf" d="M 25.363636 -2.470909 
L 25.363636 -4.524359 
L 26.025009 -4.967834 
L 26.686381 -5.550782 
L 27.347754 -6.243009 
L 28.009126 -7.007636 
L 28.670499 -7.857474 
L 29.331872 -8.851145 
L 29.993244 -10.016777 
L 30.654617 -11.308999 
L 31.315989 -12.690481 
L 31.977362 -14.216623 
L 32.638734 -15.959512 
L 33.300107 -17.877177 
L 33.961479 -19.835938 
L 34.622852 -21.760666 
L 35.284224 -23.740748 
L 35.945597 -26.000563 
L 36.606969 -28.733184 
L 37.268342 -31.875523 
L 37.929714 -35.039072 
L 38.591087 -37.765661 
L 39.252459 -39.917792 
L 39.913832 -41.789208 
L 40.575204 -43.80113 
L 41.236577 -46.076882 
L 41.89795 -48.303975 
L 42.559322 -50.028717 
L 43.220695 -51.071947 
L 43.882067 -51.604703 
L 44.54344 -51.85918 
L 45.204812 -51.889091 
L 45.866185 -51.617723 
L 46.527557 -50.998836 
L 47.18893 -50.078386 
L 47.850302 -48.919332 
L 48.511675 -47.484554 
L 49.173047 -45.660005 
L 49.83442 -43.41711 
L 50.495792 -40.87898 
L 51.157165 -38.216521 
L 51.818537 -35.523994 
L 52.47991 -32.80763 
L 53.141282 -30.109474 
L 53.802655 -27.593813 
L 54.464027 -25.410365 
L 55.1254 -23.503203 
L 55.786773 -21.662724 
L 56.448145 -19.746348 
L 57.109518 -17.773703 
L 57.77089 -15.837269 
L 58.432263 -13.997873 
L 59.093635 -12.284901 
L 59.755008 -10.746737 
L 60.41638 -9.431898 
L 61.077753 -8.331152 
L 61.739125 -7.399418 
L 62.400498 -6.618031 
L 63.06187 -5.98244 
L 63.723243 -5.449217 
L 64.384615 -4.946156 
L 64.384615 -2.470909 
L 64.384615 -2.470909 
L 63.723243 -2.470909 
L 63.06187 -2.470909 
L 62.400498 -2.470909 
L 61.739125 -2.470909 
L 61.077753 -2.470909 
L 60.41638 -2.470909 
L 59.755008 -2.470909 
L 59.093635 -2.470909 
L 58.432263 -2.470909 
L 57.77089 -2.470909 
L 57.109518 -2.470909 
L 56.448145 -2.470909 
L 55.786773 -2.470909 
L 55.1254 -2.470909 
L 54.464027 -2.470909 
L 53.802655 -2.470909 
L 53.141282 -2.470909 
L 52.47991 -2.470909 
L 51.818537 -2.470909 
L 51.157165 -2.470909 
L 50.495792 -2.470909 
L 49.83442 -2.470909 
L 49.173047 -2.470909 
L 48.511675 -2.470909 
L 47.850302 -2.470909 
L 47.18893 -2.470909 
L 46.527557 -2.470909 
L 45.866185 -2.470909 
L 45.204812 -2.470909 
L 44.54344 -2.470909 
L 43.882067 -2.470909 
L 43.220695 -2.470909 
L 42.559322 -2.470909 
L 41.89795 -2.470909 
L 41.236577 -2.470909 
L 40.575204 -2.470909 
L 39.913832 -2.470909 
L 39.252459 -2.470909 
L 38.591087 -2.470909 
L 37.929714 -2.470909 
L 37.268342 -2.470909 
L 36.606969 -2.470909 
L 35.945597 -2.470909 
L 35.284224 -2.470909 
L 34.622852 -2.470909 
L 33.961479 -2.470909 
L 33.300107 -2.470909 
L 32.638734 -2.470909 
L 31.977362 -2.470909 
L 31.315989 -2.470909 
L 30.654617 -2.470909 
L 29.993244 -2.470909 
L 29.331872 -2.470909 
L 28.670499 -2.470909 
L 28.009126 -2.470909 
L 27.347754 -2.470909 
L 26.686381 -2.470909 
L 26.025009 -2.470909 
L 25.363636 -2.470909 
z
" style="stroke: #8a8a8a; stroke-opacity: 0.2"/>
    </defs>
    <g clip-path="url(#p95ea68ba31)">
     <use xlink:href="#mdb02b7a6cf" x="0" y="54.36" style="fill: #8a8a8a; fill-opacity: 0.2; stroke: #8a8a8a; stroke-opacity: 0.2"/>
    </g>
   </g>
   <g id="line2d_1">
    <path d="M 322.981273 50.396231 
L 332.240488 49.537137 
L 337.531469 48.844045 
L 341.499704 48.114136 
L 345.467939 47.132579 
L 350.758919 45.527176 
L 361.340879 42.057277 
L 365.309115 40.516239 
L 369.27735 38.731883 
L 379.85931 33.768336 
L 388.457153 30.041999 
L 392.425388 27.944639 
L 397.054996 25.515815 
L 400.361858 24.039255 
L 408.959701 20.372539 
L 413.589309 18.350737 
L 416.234799 17.462614 
L 418.218917 16.99203 
L 420.864407 16.622083 
L 423.509897 16.490389 
L 426.81676 16.554691 
L 430.784995 16.860584 
L 434.75323 17.367179 
L 438.721465 18.073 
L 442.6897 19.007653 
L 447.319308 20.366485 
L 451.948915 21.955683 
L 455.255778 23.290367 
L 458.562641 24.850656 
L 463.192248 27.33546 
L 479.065189 36.119179 
L 483.694797 38.262306 
L 490.308522 41.060252 
L 495.599502 43.065999 
L 500.22911 44.569366 
L 504.858718 45.816086 
L 509.488325 46.817221 
L 523.377148 49.431044 
L 528.006756 50.052655 
L 532.636364 50.479923 
L 532.636364 50.479923 
" clip-path="url(#p95ea68ba31)" style="fill: none; stroke: #cf1313; stroke-width: 1.5; stroke-linecap: square"/>
   </g>
   <g id="line2d_2">
    <path d="M 134.490103 50.234291 
L 139.119711 49.451025 
L 145.072064 48.217317 
L 149.040299 47.210088 
L 152.347161 46.144617 
L 156.976769 44.375304 
L 164.913239 41.08844 
L 168.881474 39.202668 
L 171.526965 37.723353 
L 174.172455 36.01759 
L 186.07716 27.924483 
L 191.36814 24.341541 
L 198.643238 19.286274 
L 200.627356 18.2177 
L 202.611473 17.436196 
L 204.595591 16.948437 
L 207.241081 16.623347 
L 212.532061 16.100619 
L 217.161669 15.561319 
L 220.468531 15.433719 
L 227.743629 15.36439 
L 229.727747 15.648299 
L 231.711864 16.238322 
L 233.695982 17.132662 
L 236.341472 18.671545 
L 250.230295 27.635074 
L 259.48951 33.986451 
L 264.780491 37.019131 
L 272.716961 41.436582 
L 276.023824 42.982492 
L 280.653431 44.864817 
L 286.605784 47.018586 
L 290.574019 48.26507 
L 293.880882 49.084004 
L 297.187744 49.662654 
L 301.15598 50.111578 
L 305.785587 50.506315 
L 305.785587 50.506315 
" clip-path="url(#p95ea68ba31)" style="fill: none; stroke: #116dc2; stroke-width: 1.5; stroke-linecap: square"/>
   </g>
   <g id="line2d_3">
    <path d="M 25.363636 49.835641 
L 26.025009 49.392166 
L 26.686381 48.809218 
L 27.347754 48.116991 
L 28.009126 47.352364 
L 28.670499 46.502526 
L 29.331872 45.508855 
L 29.993244 44.343223 
L 30.654617 43.051001 
L 31.315989 41.669519 
L 31.977362 40.143377 
L 32.638734 38.400488 
L 33.300107 36.482823 
L 33.961479 34.524062 
L 34.622852 32.599334 
L 35.284224 30.619252 
L 35.945597 28.359437 
L 36.606969 25.626816 
L 37.268342 22.484477 
L 37.929714 19.320928 
L 38.591087 16.594339 
L 39.252459 14.442208 
L 39.913832 12.570792 
L 40.575204 10.55887 
L 41.236577 8.283118 
L 41.89795 6.056025 
L 42.559322 4.331283 
L 43.220695 3.288053 
L 43.882067 2.755297 
L 44.54344 2.50082 
L 45.204812 2.470909 
L 45.866185 2.742277 
L 46.527557 3.361164 
L 47.18893 4.281614 
L 47.850302 5.440668 
L 48.511675 6.875446 
L 49.173047 8.699995 
L 49.83442 10.94289 
L 50.495792 13.48102 
L 51.157165 16.143479 
L 51.818537 18.836006 
L 52.47991 21.55237 
L 53.141282 24.250526 
L 53.802655 26.766187 
L 54.464027 28.949635 
L 55.1254 30.856797 
L 55.786773 32.697276 
L 56.448145 34.613652 
L 57.109518 36.586297 
L 57.77089 38.522731 
L 58.432263 40.362127 
L 59.093635 42.075099 
L 59.755008 43.613263 
L 60.41638 44.928102 
L 61.077753 46.028848 
L 61.739125 46.960582 
L 62.400498 47.741969 
L 63.06187 48.37756 
L 63.723243 48.910783 
L 64.384615 49.413844 
" clip-path="url(#p95ea68ba31)" style="fill: none; stroke: #8a8a8a; stroke-width: 1.5; stroke-linecap: square"/>
   </g>
  </g>
 </g>
 <defs>
  <clipPath id="p95ea68ba31">
   <rect x="0" y="-0" width="558" height="54.36"/>
  </clipPath>
 </defs>
</svg>
