<?xml version="1.0" encoding="utf-8" standalone="no"?>
<!DOCTYPE svg PUBLIC "-//W3C//DTD SVG 1.1//EN"
  "http://www.w3.org/Graphics/SVG/1.1/DTD/svg11.dtd">
<svg xmlns:xlink="http://www.w3.org/1999/xlink" width="558pt" height="54.36pt" viewBox="0 0 558 54.36" xmlns="http://www.w3.org/2000/svg" version="1.1">
 <metadata>
  <rdf:RDF xmlns:dc="http://purl.org/dc/elements/1.1/" xmlns:cc="http://creativecommons.org/ns#" xmlns:rdf="http://www.w3.org/1999/02/22-rdf-syntax-ns#">
   <cc:Work>
    <dc:type rdf:resource="http://purl.org/dc/dcmitype/StillImage"/>
    <dc:date>2024-09-15T09:30:45.503139</dc:date>
    <dc:format>image/svg+xml</dc:format>
    <dc:creator>
     <cc:Agent>
      <dc:title>Matplotlib v3.5.2, https://matplotlib.org/</dc:title>
     </cc:Agent>
    </dc:creator>
   </cc:Work>
  </rdf:RDF>
 </metadata>
 <defs>
  <style type="text/css">*{stroke-linejoin: round; stroke-linecap: butt}</style>
 </defs>
 <g id="figure_1">
  <g id="patch_1">
   <path d="M 0 54.36 
L 558 54.36 
L 558 0 
L 0 0 
L 0 54.36 
z
" style="fill: none; opacity: 0"/>
  </g>
  <g id="axes_1">
   <g id="PolyCollection_1">
    <defs>
     <path id="mbca61d1374" d="M 324.268432 -2.470909 
L 324.268432 -3.712791 
L 324.934145 -3.770989 
L 325.599857 -3.832923 
L 326.265569 -3.898585 
L 326.931281 -3.967947 
L 327.596994 -4.040972 
L 328.262706 -4.117613 
L 328.928418 -4.197822 
L 329.59413 -4.281549 
L 330.259843 -4.368739 
L 330.925555 -4.459334 
L 331.591267 -4.553265 
L 332.256979 -4.650446 
L 332.922691 -4.750768 
L 333.588404 -4.854092 
L 334.254116 -4.960243 
L 334.919828 -5.069001 
L 335.58554 -5.180108 
L 336.251253 -5.29326 
L 336.916965 -5.408117 
L 337.582677 -5.524313 
L 338.248389 -5.641464 
L 338.914102 -5.759193 
L 339.579814 -5.877141 
L 340.245526 -5.994996 
L 340.911238 -6.11251 
L 341.576951 -6.229522 
L 342.242663 -6.345975 
L 342.908375 -6.46193 
L 343.574087 -6.577574 
L 344.2398 -6.693219 
L 344.905512 -6.809302 
L 345.571224 -6.926367 
L 346.236936 -7.045054 
L 346.902649 -7.166068 
L 347.568361 -7.29016 
L 348.234073 -7.418097 
L 348.899785 -7.550635 
L 349.565497 -7.688495 
L 350.23121 -7.832341 
L 350.896922 -7.982763 
L 351.562634 -8.140268 
L 352.228346 -8.305274 
L 352.894059 -8.478105 
L 353.559771 -8.658996 
L 354.225483 -8.848097 
L 354.891195 -9.045481 
L 355.556908 -9.251145 
L 356.22262 -9.465022 
L 356.888332 -9.686978 
L 357.554044 -9.916818 
L 358.219757 -10.154287 
L 358.885469 -10.399065 
L 359.551181 -10.650773 
L 360.216893 -10.908968 
L 360.882606 -11.17315 
L 361.548318 -11.442764 
L 362.21403 -11.717214 
L 362.879742 -11.995871 
L 363.545455 -12.278093 
L 364.211167 -12.563242 
L 364.876879 -12.850707 
L 365.542591 -13.139924 
L 366.208304 -13.430393 
L 366.874016 -13.721702 
L 367.539728 -14.013533 
L 368.20544 -14.305673 
L 368.871152 -14.598016 
L 369.536865 -14.890557 
L 370.202577 -15.183382 
L 370.868289 -15.47665 
L 371.534001 -15.770577 
L 372.199714 -16.065409 
L 372.865426 -16.361401 
L 373.531138 -16.658792 
L 374.19685 -16.957788 
L 374.862563 -17.258545 
L 375.528275 -17.561158 
L 376.193987 -17.865661 
L 376.859699 -18.172028 
L 377.525412 -18.480181 
L 378.191124 -18.790008 
L 378.856836 -19.10138 
L 379.522548 -19.414172 
L 380.188261 -19.728282 
L 380.853973 -20.043653 
L 381.519685 -20.360286 
L 382.185397 -20.678251 
L 382.85111 -20.997687 
L 383.516822 -21.318797 
L 384.182534 -21.641837 
L 384.848246 -21.967093 
L 385.513958 -22.294859 
L 386.179671 -22.625399 
L 386.845383 -22.958921 
L 387.511095 -23.295541 
L 388.176807 -23.635249 
L 388.84252 -23.977887 
L 389.508232 -24.323126 
L 390.173944 -24.670455 
L 390.839656 -25.019178 
L 391.505369 -25.368423 
L 392.171081 -25.717161 
L 392.836793 -26.064232 
L 393.502505 -26.408389 
L 394.168218 -26.748338 
L 394.83393 -27.082794 
L 395.499642 -27.410535 
L 396.165354 -27.73046 
L 396.831067 -28.041641 
L 397.496779 -28.343375 
L 398.162491 -28.635223 
L 398.828203 -28.91704 
L 399.493916 -29.188996 
L 400.159628 -29.451573 
L 400.82534 -29.705556 
L 401.491052 -29.952004 
L 402.156764 -30.192206 
L 402.822477 -30.427628 
L 403.488189 -30.659843 
L 404.153901 -30.890464 
L 404.819613 -31.121066 
L 405.485326 -31.35311 
L 406.151038 -31.587877 
L 406.81675 -31.826405 
L 407.482462 -32.069439 
L 408.148175 -32.317396 
L 408.813887 -32.570349 
L 409.479599 -32.82802 
L 410.145311 -33.089799 
L 410.811024 -33.354772 
L 411.476736 -33.621766 
L 412.142448 -33.889409 
L 412.80816 -34.156187 
L 413.473873 -34.42052 
L 414.139585 -34.680829 
L 414.805297 -34.935602 
L 415.471009 -35.18345 
L 416.136722 -35.423159 
L 416.802434 -35.653717 
L 417.468146 -35.874339 
L 418.133858 -36.084459 
L 418.799571 -36.283718 
L 419.465283 -36.47193 
L 420.130995 -36.649037 
L 420.796707 -36.815052 
L 421.462419 -36.970001 
L 422.128132 -37.113855 
L 422.793844 -37.246482 
L 423.459556 -37.367592 
L 424.125268 -37.476708 
L 424.790981 -37.57315 
L 425.456693 -37.656038 
L 426.122405 -37.724321 
L 426.788117 -37.77682 
L 427.45383 -37.812297 
L 428.119542 -37.82953 
L 428.785254 -37.827408 
L 429.450966 -37.805022 
L 430.116679 -37.761754 
L 430.782391 -37.69736 
L 431.448103 -37.612035 
L 432.113815 -37.506457 
L 432.779528 -37.381804 
L 433.44524 -37.239744 
L 434.110952 -37.082396 
L 434.776664 -36.912263 
L 435.442377 -36.732141 
L 436.108089 -36.545003 
L 436.773801 -36.353881 
L 437.439513 -36.161725 
L 438.105225 -35.971283 
L 438.770938 -35.784972 
L 439.43665 -35.604781 
L 440.102362 -35.432185 
L 440.768074 -35.268101 
L 441.433787 -35.112856 
L 442.099499 -34.966209 
L 442.765211 -34.827381 
L 443.430923 -34.695131 
L 444.096636 -34.567841 
L 444.762348 -34.443625 
L 445.42806 -34.320437 
L 446.093772 -34.196192 
L 446.759485 -34.068868 
L 447.425197 -33.936602 
L 448.090909 -33.797766 
L 448.756621 -33.651017 
L 449.422334 -33.495328 
L 450.088046 -33.329993 
L 450.753758 -33.154607 
L 451.41947 -32.969032 
L 452.085183 -32.773346 
L 452.750895 -32.567778 
L 453.416607 -32.352654 
L 454.082319 -32.128326 
L 454.748031 -31.895121 
L 455.413744 -31.653298 
L 456.079456 -31.403008 
L 456.745168 -31.144283 
L 457.41088 -30.877027 
L 458.076593 -30.601027 
L 458.742305 -30.315967 
L 459.408017 -30.021464 
L 460.073729 -29.717094 
L 460.739442 -29.40243 
L 461.405154 -29.077083 
L 462.070866 -28.740731 
L 462.736578 -28.393154 
L 463.402291 -28.034259 
L 464.068003 -27.664101 
L 464.733715 -27.282903 
L 465.399427 -26.891062 
L 466.06514 -26.489159 
L 466.730852 -26.077961 
L 467.396564 -25.658421 
L 468.062276 -25.231673 
L 468.727989 -24.799029 
L 469.393701 -24.361961 
L 470.059413 -23.922095 
L 470.725125 -23.481186 
L 471.390838 -23.041097 
L 472.05655 -22.603768 
L 472.722262 -22.171179 
L 473.387974 -21.74531 
L 474.053686 -21.328087 
L 474.719399 -20.921331 
L 475.385111 -20.526701 
L 476.050823 -20.145639 
L 476.716535 -19.77931 
L 477.382248 -19.428555 
L 478.04796 -19.093853 
L 478.713672 -18.775289 
L 479.379384 -18.472542 
L 480.045097 -18.184889 
L 480.710809 -17.911223 
L 481.376521 -17.650095 
L 482.042233 -17.399764 
L 482.707946 -17.158269 
L 483.373658 -16.923505 
L 484.03937 -16.693306 
L 484.705082 -16.465533 
L 485.370795 -16.238157 
L 486.036507 -16.009333 
L 486.702219 -15.777468 
L 487.367931 -15.541272 
L 488.033644 -15.299788 
L 488.699356 -15.052419 
L 489.365068 -14.79892 
L 490.03078 -14.539391 
L 490.696492 -14.274241 
L 491.362205 -14.004152 
L 492.027917 -13.730023 
L 492.693629 -13.452918 
L 493.359341 -13.174004 
L 494.025054 -12.89449 
L 494.690766 -12.615576 
L 495.356478 -12.338395 
L 496.02219 -12.063977 
L 496.687903 -11.793211 
L 497.353615 -11.52682 
L 498.019327 -11.265348 
L 498.685039 -11.00916 
L 499.350752 -10.75844 
L 500.016464 -10.513215 
L 500.682176 -10.273368 
L 501.347888 -10.038672 
L 502.013601 -9.808821 
L 502.679313 -9.58346 
L 503.345025 -9.362224 
L 504.010737 -9.144768 
L 504.67645 -8.930798 
L 505.342162 -8.720095 
L 506.007874 -8.512533 
L 506.673586 -8.308093 
L 507.339298 -8.106865 
L 508.005011 -7.909043 
L 508.670723 -7.714918 
L 509.336435 -7.524857 
L 510.002147 -7.339279 
L 510.66786 -7.158632 
L 511.333572 -6.983356 
L 511.999284 -6.813861 
L 512.664996 -6.650495 
L 513.330709 -6.493518 
L 513.996421 -6.343089 
L 514.662133 -6.199251 
L 515.327845 -6.061925 
L 515.993558 -5.930916 
L 516.65927 -5.805926 
L 517.324982 -5.686566 
L 517.990694 -5.57238 
L 518.656407 -5.462875 
L 519.322119 -5.357539 
L 519.987831 -5.255875 
L 520.653543 -5.157421 
L 521.319256 -5.06177 
L 521.984968 -4.968582 
L 522.65068 -4.877594 
L 523.316392 -4.788625 
L 523.982105 -4.701567 
L 524.647817 -4.616381 
L 525.313529 -4.533085 
L 525.979241 -4.451741 
L 526.644953 -4.372436 
L 527.310666 -4.295275 
L 527.976378 -4.220361 
L 528.64209 -4.14779 
L 529.307802 -4.077642 
L 529.973515 -4.009977 
L 530.639227 -3.944832 
L 531.304939 -3.882223 
L 531.970651 -3.822148 
L 532.636364 -3.764589 
L 532.636364 -2.470909 
L 532.636364 -2.470909 
L 531.970651 -2.470909 
L 531.304939 -2.470909 
L 530.639227 -2.470909 
L 529.973515 -2.470909 
L 529.307802 -2.470909 
L 528.64209 -2.470909 
L 527.976378 -2.470909 
L 527.310666 -2.470909 
L 526.644953 -2.470909 
L 525.979241 -2.470909 
L 525.313529 -2.470909 
L 524.647817 -2.470909 
L 523.982105 -2.470909 
L 523.316392 -2.470909 
L 522.65068 -2.470909 
L 521.984968 -2.470909 
L 521.319256 -2.470909 
L 520.653543 -2.470909 
L 519.987831 -2.470909 
L 519.322119 -2.470909 
L 518.656407 -2.470909 
L 517.990694 -2.470909 
L 517.324982 -2.470909 
L 516.65927 -2.470909 
L 515.993558 -2.470909 
L 515.327845 -2.470909 
L 514.662133 -2.470909 
L 513.996421 -2.470909 
L 513.330709 -2.470909 
L 512.664996 -2.470909 
L 511.999284 -2.470909 
L 511.333572 -2.470909 
L 510.66786 -2.470909 
L 510.002147 -2.470909 
L 509.336435 -2.470909 
L 508.670723 -2.470909 
L 508.005011 -2.470909 
L 507.339298 -2.470909 
L 506.673586 -2.470909 
L 506.007874 -2.470909 
L 505.342162 -2.470909 
L 504.67645 -2.470909 
L 504.010737 -2.470909 
L 503.345025 -2.470909 
L 502.679313 -2.470909 
L 502.013601 -2.470909 
L 501.347888 -2.470909 
L 500.682176 -2.470909 
L 500.016464 -2.470909 
L 499.350752 -2.470909 
L 498.685039 -2.470909 
L 498.019327 -2.470909 
L 497.353615 -2.470909 
L 496.687903 -2.470909 
L 496.02219 -2.470909 
L 495.356478 -2.470909 
L 494.690766 -2.470909 
L 494.025054 -2.470909 
L 493.359341 -2.470909 
L 492.693629 -2.470909 
L 492.027917 -2.470909 
L 491.362205 -2.470909 
L 490.696492 -2.470909 
L 490.03078 -2.470909 
L 489.365068 -2.470909 
L 488.699356 -2.470909 
L 488.033644 -2.470909 
L 487.367931 -2.470909 
L 486.702219 -2.470909 
L 486.036507 -2.470909 
L 485.370795 -2.470909 
L 484.705082 -2.470909 
L 484.03937 -2.470909 
L 483.373658 -2.470909 
L 482.707946 -2.470909 
L 482.042233 -2.470909 
L 481.376521 -2.470909 
L 480.710809 -2.470909 
L 480.045097 -2.470909 
L 479.379384 -2.470909 
L 478.713672 -2.470909 
L 478.04796 -2.470909 
L 477.382248 -2.470909 
L 476.716535 -2.470909 
L 476.050823 -2.470909 
L 475.385111 -2.470909 
L 474.719399 -2.470909 
L 474.053686 -2.470909 
L 473.387974 -2.470909 
L 472.722262 -2.470909 
L 472.05655 -2.470909 
L 471.390838 -2.470909 
L 470.725125 -2.470909 
L 470.059413 -2.470909 
L 469.393701 -2.470909 
L 468.727989 -2.470909 
L 468.062276 -2.470909 
L 467.396564 -2.470909 
L 466.730852 -2.470909 
L 466.06514 -2.470909 
L 465.399427 -2.470909 
L 464.733715 -2.470909 
L 464.068003 -2.470909 
L 463.402291 -2.470909 
L 462.736578 -2.470909 
L 462.070866 -2.470909 
L 461.405154 -2.470909 
L 460.739442 -2.470909 
L 460.073729 -2.470909 
L 459.408017 -2.470909 
L 458.742305 -2.470909 
L 458.076593 -2.470909 
L 457.41088 -2.470909 
L 456.745168 -2.470909 
L 456.079456 -2.470909 
L 455.413744 -2.470909 
L 454.748031 -2.470909 
L 454.082319 -2.470909 
L 453.416607 -2.470909 
L 452.750895 -2.470909 
L 452.085183 -2.470909 
L 451.41947 -2.470909 
L 450.753758 -2.470909 
L 450.088046 -2.470909 
L 449.422334 -2.470909 
L 448.756621 -2.470909 
L 448.090909 -2.470909 
L 447.425197 -2.470909 
L 446.759485 -2.470909 
L 446.093772 -2.470909 
L 445.42806 -2.470909 
L 444.762348 -2.470909 
L 444.096636 -2.470909 
L 443.430923 -2.470909 
L 442.765211 -2.470909 
L 442.099499 -2.470909 
L 441.433787 -2.470909 
L 440.768074 -2.470909 
L 440.102362 -2.470909 
L 439.43665 -2.470909 
L 438.770938 -2.470909 
L 438.105225 -2.470909 
L 437.439513 -2.470909 
L 436.773801 -2.470909 
L 436.108089 -2.470909 
L 435.442377 -2.470909 
L 434.776664 -2.470909 
L 434.110952 -2.470909 
L 433.44524 -2.470909 
L 432.779528 -2.470909 
L 432.113815 -2.470909 
L 431.448103 -2.470909 
L 430.782391 -2.470909 
L 430.116679 -2.470909 
L 429.450966 -2.470909 
L 428.785254 -2.470909 
L 428.119542 -2.470909 
L 427.45383 -2.470909 
L 426.788117 -2.470909 
L 426.122405 -2.470909 
L 425.456693 -2.470909 
L 424.790981 -2.470909 
L 424.125268 -2.470909 
L 423.459556 -2.470909 
L 422.793844 -2.470909 
L 422.128132 -2.470909 
L 421.462419 -2.470909 
L 420.796707 -2.470909 
L 420.130995 -2.470909 
L 419.465283 -2.470909 
L 418.799571 -2.470909 
L 418.133858 -2.470909 
L 417.468146 -2.470909 
L 416.802434 -2.470909 
L 416.136722 -2.470909 
L 415.471009 -2.470909 
L 414.805297 -2.470909 
L 414.139585 -2.470909 
L 413.473873 -2.470909 
L 412.80816 -2.470909 
L 412.142448 -2.470909 
L 411.476736 -2.470909 
L 410.811024 -2.470909 
L 410.145311 -2.470909 
L 409.479599 -2.470909 
L 408.813887 -2.470909 
L 408.148175 -2.470909 
L 407.482462 -2.470909 
L 406.81675 -2.470909 
L 406.151038 -2.470909 
L 405.485326 -2.470909 
L 404.819613 -2.470909 
L 404.153901 -2.470909 
L 403.488189 -2.470909 
L 402.822477 -2.470909 
L 402.156764 -2.470909 
L 401.491052 -2.470909 
L 400.82534 -2.470909 
L 400.159628 -2.470909 
L 399.493916 -2.470909 
L 398.828203 -2.470909 
L 398.162491 -2.470909 
L 397.496779 -2.470909 
L 396.831067 -2.470909 
L 396.165354 -2.470909 
L 395.499642 -2.470909 
L 394.83393 -2.470909 
L 394.168218 -2.470909 
L 393.502505 -2.470909 
L 392.836793 -2.470909 
L 392.171081 -2.470909 
L 391.505369 -2.470909 
L 390.839656 -2.470909 
L 390.173944 -2.470909 
L 389.508232 -2.470909 
L 388.84252 -2.470909 
L 388.176807 -2.470909 
L 387.511095 -2.470909 
L 386.845383 -2.470909 
L 386.179671 -2.470909 
L 385.513958 -2.470909 
L 384.848246 -2.470909 
L 384.182534 -2.470909 
L 383.516822 -2.470909 
L 382.85111 -2.470909 
L 382.185397 -2.470909 
L 381.519685 -2.470909 
L 380.853973 -2.470909 
L 380.188261 -2.470909 
L 379.522548 -2.470909 
L 378.856836 -2.470909 
L 378.191124 -2.470909 
L 377.525412 -2.470909 
L 376.859699 -2.470909 
L 376.193987 -2.470909 
L 375.528275 -2.470909 
L 374.862563 -2.470909 
L 374.19685 -2.470909 
L 373.531138 -2.470909 
L 372.865426 -2.470909 
L 372.199714 -2.470909 
L 371.534001 -2.470909 
L 370.868289 -2.470909 
L 370.202577 -2.470909 
L 369.536865 -2.470909 
L 368.871152 -2.470909 
L 368.20544 -2.470909 
L 367.539728 -2.470909 
L 366.874016 -2.470909 
L 366.208304 -2.470909 
L 365.542591 -2.470909 
L 364.876879 -2.470909 
L 364.211167 -2.470909 
L 363.545455 -2.470909 
L 362.879742 -2.470909 
L 362.21403 -2.470909 
L 361.548318 -2.470909 
L 360.882606 -2.470909 
L 360.216893 -2.470909 
L 359.551181 -2.470909 
L 358.885469 -2.470909 
L 358.219757 -2.470909 
L 357.554044 -2.470909 
L 356.888332 -2.470909 
L 356.22262 -2.470909 
L 355.556908 -2.470909 
L 354.891195 -2.470909 
L 354.225483 -2.470909 
L 353.559771 -2.470909 
L 352.894059 -2.470909 
L 352.228346 -2.470909 
L 351.562634 -2.470909 
L 350.896922 -2.470909 
L 350.23121 -2.470909 
L 349.565497 -2.470909 
L 348.899785 -2.470909 
L 348.234073 -2.470909 
L 347.568361 -2.470909 
L 346.902649 -2.470909 
L 346.236936 -2.470909 
L 345.571224 -2.470909 
L 344.905512 -2.470909 
L 344.2398 -2.470909 
L 343.574087 -2.470909 
L 342.908375 -2.470909 
L 342.242663 -2.470909 
L 341.576951 -2.470909 
L 340.911238 -2.470909 
L 340.245526 -2.470909 
L 339.579814 -2.470909 
L 338.914102 -2.470909 
L 338.248389 -2.470909 
L 337.582677 -2.470909 
L 336.916965 -2.470909 
L 336.251253 -2.470909 
L 335.58554 -2.470909 
L 334.919828 -2.470909 
L 334.254116 -2.470909 
L 333.588404 -2.470909 
L 332.922691 -2.470909 
L 332.256979 -2.470909 
L 331.591267 -2.470909 
L 330.925555 -2.470909 
L 330.259843 -2.470909 
L 329.59413 -2.470909 
L 328.928418 -2.470909 
L 328.262706 -2.470909 
L 327.596994 -2.470909 
L 326.931281 -2.470909 
L 326.265569 -2.470909 
L 325.599857 -2.470909 
L 324.934145 -2.470909 
L 324.268432 -2.470909 
z
" style="stroke: #cf1313; stroke-opacity: 0.2"/>
    </defs>
    <g clip-path="url(#pddc3dc6093)">
     <use xlink:href="#mbca61d1374" x="0" y="54.36" style="fill: #cf1313; fill-opacity: 0.2; stroke: #cf1313; stroke-opacity: 0.2"/>
    </g>
   </g>
   <g id="PolyCollection_2">
    <defs>
     <path id="m99f7b3a478" d="M 132.543307 -2.470909 
L 132.543307 -3.695353 
L 133.209019 -3.763328 
L 133.874732 -3.838528 
L 134.540444 -3.921601 
L 135.206156 -4.013034 
L 135.871868 -4.113115 
L 136.537581 -4.221915 
L 137.203293 -4.33927 
L 137.869005 -4.464797 
L 138.534717 -4.597907 
L 139.200429 -4.737845 
L 139.866142 -4.883734 
L 140.531854 -5.03463 
L 141.197566 -5.189575 
L 141.863278 -5.347649 
L 142.528991 -5.508023 
L 143.194703 -5.669992 
L 143.860415 -5.833007 
L 144.526127 -5.996686 
L 145.19184 -6.160818 
L 145.857552 -6.325352 
L 146.523264 -6.490373 
L 147.188976 -6.656071 
L 147.854689 -6.822714 
L 148.520401 -6.990602 
L 149.186113 -7.160041 
L 149.851825 -7.331315 
L 150.517538 -7.50467 
L 151.18325 -7.680309 
L 151.848962 -7.858406 
L 152.514674 -8.039127 
L 153.180387 -8.222667 
L 153.846099 -8.409296 
L 154.511811 -8.599401 
L 155.177523 -8.793534 
L 155.843236 -8.992444 
L 156.508948 -9.197092 
L 157.17466 -9.408653 
L 157.840372 -9.628483 
L 158.506084 -9.858073 
L 159.171797 -10.098977 
L 159.837509 -10.352722 
L 160.503221 -10.620713 
L 161.168933 -10.904133 
L 161.834646 -11.203853 
L 162.500358 -11.520351 
L 163.16607 -11.853655 
L 163.831782 -12.203305 
L 164.497495 -12.568342 
L 165.163207 -12.947321 
L 165.828919 -13.338339 
L 166.494631 -13.739088 
L 167.160344 -14.146922 
L 167.826056 -14.558934 
L 168.491768 -14.972053 
L 169.15748 -15.383144 
L 169.823193 -15.789119 
L 170.488905 -16.18707 
L 171.154617 -16.574388 
L 171.820329 -16.948904 
L 172.486042 -17.309018 
L 173.151754 -17.653815 
L 173.817466 -17.983159 
L 174.483178 -18.297756 
L 175.14889 -18.599174 
L 175.814603 -18.889808 
L 176.480315 -19.172797 
L 177.146027 -19.451885 
L 177.811739 -19.731237 
L 178.477452 -20.01522 
L 179.143164 -20.308163 
L 179.808876 -20.614115 
L 180.474588 -20.936623 
L 181.140301 -21.278528 
L 181.806013 -21.641821 
L 182.471725 -22.027543 
L 183.137437 -22.435738 
L 183.80315 -22.865469 
L 184.468862 -23.31488 
L 185.134574 -23.781304 
L 185.800286 -24.261406 
L 186.465999 -24.751349 
L 187.131711 -25.246982 
L 187.797423 -25.744043 
L 188.463135 -26.238352 
L 189.128848 -26.726017 
L 189.79456 -27.203622 
L 190.460272 -27.668389 
L 191.125984 -28.118327 
L 191.791696 -28.552322 
L 192.457409 -28.970191 
L 193.123121 -29.372666 
L 193.788833 -29.76132 
L 194.454545 -30.138418 
L 195.120258 -30.506712 
L 195.78597 -30.869183 
L 196.451682 -31.228755 
L 197.117394 -31.587993 
L 197.783107 -31.94883 
L 198.448819 -32.312331 
L 199.114531 -32.678532 
L 199.780243 -33.046371 
L 200.445956 -33.413718 
L 201.111668 -33.777509 
L 201.77738 -34.133973 
L 202.443092 -34.478941 
L 203.108805 -34.808194 
L 203.774517 -35.117839 
L 204.440229 -35.404661 
L 205.105941 -35.666426 
L 205.771654 -35.902104 
L 206.437366 -36.111995 
L 207.103078 -36.297743 
L 207.76879 -36.462227 
L 208.434503 -36.60936 
L 209.100215 -36.743791 
L 209.765927 -36.870549 
L 210.431639 -36.994653 
L 211.097351 -37.12072 
L 211.763064 -37.252607 
L 212.428776 -37.39311 
L 213.094488 -37.543745 
L 213.7602 -37.704623 
L 214.425913 -37.87443 
L 215.091625 -38.050511 
L 215.757337 -38.229042 
L 216.423049 -38.405285 
L 217.088762 -38.573897 
L 217.754474 -38.729277 
L 218.420186 -38.865915 
L 219.085898 -38.978735 
L 219.751611 -39.063393 
L 220.417323 -39.116519 
L 221.083035 -39.135886 
L 221.748747 -39.120502 
L 222.41446 -39.070609 
L 223.080172 -38.987598 
L 223.745884 -38.873859 
L 224.411596 -38.732554 
L 225.077309 -38.567357 
L 225.743021 -38.382166 
L 226.408733 -38.180827 
L 227.074445 -37.966871 
L 227.740157 -37.743304 
L 228.40587 -37.512459 
L 229.071582 -37.275916 
L 229.737294 -37.034499 
L 230.403006 -36.78834 
L 231.068719 -36.537003 
L 231.734431 -36.279649 
L 232.400143 -36.015223 
L 233.065855 -35.742643 
L 233.731568 -35.460972 
L 234.39728 -35.169551 
L 235.062992 -34.868091 
L 235.728704 -34.556709 
L 236.394417 -34.235914 
L 237.060129 -33.906544 
L 237.725841 -33.569661 
L 238.391553 -33.226429 
L 239.057266 -32.87797 
L 239.722978 -32.525242 
L 240.38869 -32.168917 
L 241.054402 -31.809313 
L 241.720115 -31.44635 
L 242.385827 -31.079558 
L 243.051539 -30.708135 
L 243.717251 -30.331039 
L 244.382963 -29.947111 
L 245.048676 -29.55522 
L 245.714388 -29.154409 
L 246.3801 -28.744031 
L 247.045812 -28.323857 
L 247.711525 -27.894146 
L 248.377237 -27.455675 
L 249.042949 -27.009719 
L 249.708661 -26.557985 
L 250.374374 -26.102512 
L 251.040086 -25.645542 
L 251.705798 -25.189383 
L 252.37151 -24.736268 
L 253.037223 -24.28823 
L 253.702935 -23.847002 
L 254.368647 -23.413946 
L 255.034359 -22.99002 
L 255.700072 -22.57577 
L 256.365784 -22.171361 
L 257.031496 -21.776621 
L 257.697208 -21.39111 
L 258.362921 -21.014188 
L 259.028633 -20.645089 
L 259.694345 -20.282995 
L 260.360057 -19.927098 
L 261.02577 -19.576654 
L 261.691482 -19.231025 
L 262.357194 -18.889713 
L 263.022906 -18.552375 
L 263.688618 -18.218822 
L 264.354331 -17.889013 
L 265.020043 -17.563019 
L 265.685755 -17.240986 
L 266.351467 -16.923082 
L 267.01718 -16.609434 
L 267.682892 -16.300075 
L 268.348604 -15.994889 
L 269.014316 -15.693573 
L 269.680029 -15.395624 
L 270.345741 -15.100345 
L 271.011453 -14.806882 
L 271.677165 -14.514282 
L 272.342878 -14.221574 
L 273.00859 -13.927857 
L 273.674302 -13.632397 
L 274.340014 -13.334705 
L 275.005727 -13.034605 
L 275.671439 -12.732273 
L 276.337151 -12.428239 
L 277.002863 -12.123367 
L 277.668576 -11.818792 
L 278.334288 -11.515844 
L 279 -11.215946 
L 279.665712 -10.92051 
L 280.331424 -10.63083 
L 280.997137 -10.347993 
L 281.662849 -10.072804 
L 282.328561 -9.80574 
L 282.994273 -9.546929 
L 283.659986 -9.296157 
L 284.325698 -9.052905 
L 284.99141 -8.816401 
L 285.657122 -8.585697 
L 286.322835 -8.359746 
L 286.988547 -8.13749 
L 287.654259 -7.917937 
L 288.319971 -7.700239 
L 288.985684 -7.483745 
L 289.651396 -7.268045 
L 290.317108 -7.052997 
L 290.98282 -6.838735 
L 291.648533 -6.625656 
L 292.314245 -6.414397 
L 292.979957 -6.2058 
L 293.645669 -6.000864 
L 294.311382 -5.800691 
L 294.977094 -5.606433 
L 295.642806 -5.419225 
L 296.308518 -5.240138 
L 296.97423 -5.070117 
L 297.639943 -4.909946 
L 298.305655 -4.760202 
L 298.971367 -4.621237 
L 299.637079 -4.493162 
L 300.302792 -4.375847 
L 300.968504 -4.268935 
L 301.634216 -4.171867 
L 302.299928 -4.083913 
L 302.965641 -4.004214 
L 303.631353 -3.931826 
L 304.297065 -3.865765 
L 304.297065 -2.470909 
L 304.297065 -2.470909 
L 303.631353 -2.470909 
L 302.965641 -2.470909 
L 302.299928 -2.470909 
L 301.634216 -2.470909 
L 300.968504 -2.470909 
L 300.302792 -2.470909 
L 299.637079 -2.470909 
L 298.971367 -2.470909 
L 298.305655 -2.470909 
L 297.639943 -2.470909 
L 296.97423 -2.470909 
L 296.308518 -2.470909 
L 295.642806 -2.470909 
L 294.977094 -2.470909 
L 294.311382 -2.470909 
L 293.645669 -2.470909 
L 292.979957 -2.470909 
L 292.314245 -2.470909 
L 291.648533 -2.470909 
L 290.98282 -2.470909 
L 290.317108 -2.470909 
L 289.651396 -2.470909 
L 288.985684 -2.470909 
L 288.319971 -2.470909 
L 287.654259 -2.470909 
L 286.988547 -2.470909 
L 286.322835 -2.470909 
L 285.657122 -2.470909 
L 284.99141 -2.470909 
L 284.325698 -2.470909 
L 283.659986 -2.470909 
L 282.994273 -2.470909 
L 282.328561 -2.470909 
L 281.662849 -2.470909 
L 280.997137 -2.470909 
L 280.331424 -2.470909 
L 279.665712 -2.470909 
L 279 -2.470909 
L 278.334288 -2.470909 
L 277.668576 -2.470909 
L 277.002863 -2.470909 
L 276.337151 -2.470909 
L 275.671439 -2.470909 
L 275.005727 -2.470909 
L 274.340014 -2.470909 
L 273.674302 -2.470909 
L 273.00859 -2.470909 
L 272.342878 -2.470909 
L 271.677165 -2.470909 
L 271.011453 -2.470909 
L 270.345741 -2.470909 
L 269.680029 -2.470909 
L 269.014316 -2.470909 
L 268.348604 -2.470909 
L 267.682892 -2.470909 
L 267.01718 -2.470909 
L 266.351467 -2.470909 
L 265.685755 -2.470909 
L 265.020043 -2.470909 
L 264.354331 -2.470909 
L 263.688618 -2.470909 
L 263.022906 -2.470909 
L 262.357194 -2.470909 
L 261.691482 -2.470909 
L 261.02577 -2.470909 
L 260.360057 -2.470909 
L 259.694345 -2.470909 
L 259.028633 -2.470909 
L 258.362921 -2.470909 
L 257.697208 -2.470909 
L 257.031496 -2.470909 
L 256.365784 -2.470909 
L 255.700072 -2.470909 
L 255.034359 -2.470909 
L 254.368647 -2.470909 
L 253.702935 -2.470909 
L 253.037223 -2.470909 
L 252.37151 -2.470909 
L 251.705798 -2.470909 
L 251.040086 -2.470909 
L 250.374374 -2.470909 
L 249.708661 -2.470909 
L 249.042949 -2.470909 
L 248.377237 -2.470909 
L 247.711525 -2.470909 
L 247.045812 -2.470909 
L 246.3801 -2.470909 
L 245.714388 -2.470909 
L 245.048676 -2.470909 
L 244.382963 -2.470909 
L 243.717251 -2.470909 
L 243.051539 -2.470909 
L 242.385827 -2.470909 
L 241.720115 -2.470909 
L 241.054402 -2.470909 
L 240.38869 -2.470909 
L 239.722978 -2.470909 
L 239.057266 -2.470909 
L 238.391553 -2.470909 
L 237.725841 -2.470909 
L 237.060129 -2.470909 
L 236.394417 -2.470909 
L 235.728704 -2.470909 
L 235.062992 -2.470909 
L 234.39728 -2.470909 
L 233.731568 -2.470909 
L 233.065855 -2.470909 
L 232.400143 -2.470909 
L 231.734431 -2.470909 
L 231.068719 -2.470909 
L 230.403006 -2.470909 
L 229.737294 -2.470909 
L 229.071582 -2.470909 
L 228.40587 -2.470909 
L 227.740157 -2.470909 
L 227.074445 -2.470909 
L 226.408733 -2.470909 
L 225.743021 -2.470909 
L 225.077309 -2.470909 
L 224.411596 -2.470909 
L 223.745884 -2.470909 
L 223.080172 -2.470909 
L 222.41446 -2.470909 
L 221.748747 -2.470909 
L 221.083035 -2.470909 
L 220.417323 -2.470909 
L 219.751611 -2.470909 
L 219.085898 -2.470909 
L 218.420186 -2.470909 
L 217.754474 -2.470909 
L 217.088762 -2.470909 
L 216.423049 -2.470909 
L 215.757337 -2.470909 
L 215.091625 -2.470909 
L 214.425913 -2.470909 
L 213.7602 -2.470909 
L 213.094488 -2.470909 
L 212.428776 -2.470909 
L 211.763064 -2.470909 
L 211.097351 -2.470909 
L 210.431639 -2.470909 
L 209.765927 -2.470909 
L 209.100215 -2.470909 
L 208.434503 -2.470909 
L 207.76879 -2.470909 
L 207.103078 -2.470909 
L 206.437366 -2.470909 
L 205.771654 -2.470909 
L 205.105941 -2.470909 
L 204.440229 -2.470909 
L 203.774517 -2.470909 
L 203.108805 -2.470909 
L 202.443092 -2.470909 
L 201.77738 -2.470909 
L 201.111668 -2.470909 
L 200.445956 -2.470909 
L 199.780243 -2.470909 
L 199.114531 -2.470909 
L 198.448819 -2.470909 
L 197.783107 -2.470909 
L 197.117394 -2.470909 
L 196.451682 -2.470909 
L 195.78597 -2.470909 
L 195.120258 -2.470909 
L 194.454545 -2.470909 
L 193.788833 -2.470909 
L 193.123121 -2.470909 
L 192.457409 -2.470909 
L 191.791696 -2.470909 
L 191.125984 -2.470909 
L 190.460272 -2.470909 
L 189.79456 -2.470909 
L 189.128848 -2.470909 
L 188.463135 -2.470909 
L 187.797423 -2.470909 
L 187.131711 -2.470909 
L 186.465999 -2.470909 
L 185.800286 -2.470909 
L 185.134574 -2.470909 
L 184.468862 -2.470909 
L 183.80315 -2.470909 
L 183.137437 -2.470909 
L 182.471725 -2.470909 
L 181.806013 -2.470909 
L 181.140301 -2.470909 
L 180.474588 -2.470909 
L 179.808876 -2.470909 
L 179.143164 -2.470909 
L 178.477452 -2.470909 
L 177.811739 -2.470909 
L 177.146027 -2.470909 
L 176.480315 -2.470909 
L 175.814603 -2.470909 
L 175.14889 -2.470909 
L 174.483178 -2.470909 
L 173.817466 -2.470909 
L 173.151754 -2.470909 
L 172.486042 -2.470909 
L 171.820329 -2.470909 
L 171.154617 -2.470909 
L 170.488905 -2.470909 
L 169.823193 -2.470909 
L 169.15748 -2.470909 
L 168.491768 -2.470909 
L 167.826056 -2.470909 
L 167.160344 -2.470909 
L 166.494631 -2.470909 
L 165.828919 -2.470909 
L 165.163207 -2.470909 
L 164.497495 -2.470909 
L 163.831782 -2.470909 
L 163.16607 -2.470909 
L 162.500358 -2.470909 
L 161.834646 -2.470909 
L 161.168933 -2.470909 
L 160.503221 -2.470909 
L 159.837509 -2.470909 
L 159.171797 -2.470909 
L 158.506084 -2.470909 
L 157.840372 -2.470909 
L 157.17466 -2.470909 
L 156.508948 -2.470909 
L 155.843236 -2.470909 
L 155.177523 -2.470909 
L 154.511811 -2.470909 
L 153.846099 -2.470909 
L 153.180387 -2.470909 
L 152.514674 -2.470909 
L 151.848962 -2.470909 
L 151.18325 -2.470909 
L 150.517538 -2.470909 
L 149.851825 -2.470909 
L 149.186113 -2.470909 
L 148.520401 -2.470909 
L 147.854689 -2.470909 
L 147.188976 -2.470909 
L 146.523264 -2.470909 
L 145.857552 -2.470909 
L 145.19184 -2.470909 
L 144.526127 -2.470909 
L 143.860415 -2.470909 
L 143.194703 -2.470909 
L 142.528991 -2.470909 
L 141.863278 -2.470909 
L 141.197566 -2.470909 
L 140.531854 -2.470909 
L 139.866142 -2.470909 
L 139.200429 -2.470909 
L 138.534717 -2.470909 
L 137.869005 -2.470909 
L 137.203293 -2.470909 
L 136.537581 -2.470909 
L 135.871868 -2.470909 
L 135.206156 -2.470909 
L 134.540444 -2.470909 
L 133.874732 -2.470909 
L 133.209019 -2.470909 
L 132.543307 -2.470909 
z
" style="stroke: #116dc2; stroke-opacity: 0.2"/>
    </defs>
    <g clip-path="url(#pddc3dc6093)">
     <use xlink:href="#m99f7b3a478" x="0" y="54.36" style="fill: #116dc2; fill-opacity: 0.2; stroke: #116dc2; stroke-opacity: 0.2"/>
    </g>
   </g>
   <g id="PolyCollection_3">
    <defs>
     <path id="m8b63d8834e" d="M 25.363636 -2.470909 
L 25.363636 -4.806859 
L 26.029349 -5.285058 
L 26.695061 -5.86405 
L 27.360773 -6.586723 
L 28.026485 -7.427746 
L 28.692198 -8.310726 
L 29.35791 -9.207791 
L 30.023622 -10.175853 
L 30.689334 -11.279541 
L 31.355047 -12.529379 
L 32.020759 -13.915454 
L 32.686471 -15.455485 
L 33.352183 -17.204641 
L 34.017895 -19.252056 
L 34.683608 -21.669157 
L 35.34932 -24.418005 
L 36.015032 -27.345244 
L 36.680744 -30.262722 
L 37.346457 -32.993191 
L 38.012169 -35.399111 
L 38.677881 -37.451952 
L 39.343593 -39.252707 
L 40.009306 -40.941143 
L 40.675018 -42.602693 
L 41.34073 -44.270798 
L 42.006442 -45.942342 
L 42.672155 -47.541141 
L 43.337867 -48.949612 
L 44.003579 -50.125263 
L 44.669291 -51.091086 
L 45.335004 -51.762609 
L 46.000716 -51.889091 
L 46.666428 -51.255532 
L 47.33214 -49.882973 
L 47.997853 -47.964229 
L 48.663565 -45.694062 
L 49.329277 -43.243986 
L 49.994989 -40.803356 
L 50.660702 -38.520661 
L 51.326414 -36.404717 
L 51.992126 -34.338827 
L 52.657838 -32.200713 
L 53.32355 -29.929126 
L 53.989263 -27.505822 
L 54.654975 -24.989946 
L 55.320687 -22.551997 
L 55.986399 -20.349501 
L 56.652112 -18.404949 
L 57.317824 -16.668763 
L 57.983536 -15.100428 
L 58.649248 -13.645581 
L 59.314961 -12.230941 
L 59.980673 -10.818614 
L 60.646385 -9.430699 
L 61.312097 -8.122931 
L 61.97781 -6.953611 
L 62.643522 -5.966468 
L 63.309234 -5.183126 
L 63.974946 -4.599979 
L 63.974946 -2.470909 
L 63.974946 -2.470909 
L 63.309234 -2.470909 
L 62.643522 -2.470909 
L 61.97781 -2.470909 
L 61.312097 -2.470909 
L 60.646385 -2.470909 
L 59.980673 -2.470909 
L 59.314961 -2.470909 
L 58.649248 -2.470909 
L 57.983536 -2.470909 
L 57.317824 -2.470909 
L 56.652112 -2.470909 
L 55.986399 -2.470909 
L 55.320687 -2.470909 
L 54.654975 -2.470909 
L 53.989263 -2.470909 
L 53.32355 -2.470909 
L 52.657838 -2.470909 
L 51.992126 -2.470909 
L 51.326414 -2.470909 
L 50.660702 -2.470909 
L 49.994989 -2.470909 
L 49.329277 -2.470909 
L 48.663565 -2.470909 
L 47.997853 -2.470909 
L 47.33214 -2.470909 
L 46.666428 -2.470909 
L 46.000716 -2.470909 
L 45.335004 -2.470909 
L 44.669291 -2.470909 
L 44.003579 -2.470909 
L 43.337867 -2.470909 
L 42.672155 -2.470909 
L 42.006442 -2.470909 
L 41.34073 -2.470909 
L 40.675018 -2.470909 
L 40.009306 -2.470909 
L 39.343593 -2.470909 
L 38.677881 -2.470909 
L 38.012169 -2.470909 
L 37.346457 -2.470909 
L 36.680744 -2.470909 
L 36.015032 -2.470909 
L 35.34932 -2.470909 
L 34.683608 -2.470909 
L 34.017895 -2.470909 
L 33.352183 -2.470909 
L 32.686471 -2.470909 
L 32.020759 -2.470909 
L 31.355047 -2.470909 
L 30.689334 -2.470909 
L 30.023622 -2.470909 
L 29.35791 -2.470909 
L 28.692198 -2.470909 
L 28.026485 -2.470909 
L 27.360773 -2.470909 
L 26.695061 -2.470909 
L 26.029349 -2.470909 
L 25.363636 -2.470909 
z
" style="stroke: #8a8a8a; stroke-opacity: 0.2"/>
    </defs>
    <g clip-path="url(#pddc3dc6093)">
     <use xlink:href="#m8b63d8834e" x="0" y="54.36" style="fill: #8a8a8a; fill-opacity: 0.2; stroke: #8a8a8a; stroke-opacity: 0.2"/>
    </g>
   </g>
   <g id="line2d_1">
    <path d="M 324.268432 50.647209 
L 329.59413 50.078451 
L 334.919828 49.290999 
L 347.568361 47.06984 
L 351.562634 46.219732 
L 354.891195 45.314519 
L 358.219757 44.205713 
L 362.21403 42.642786 
L 369.536865 39.469443 
L 378.856836 35.25862 
L 386.845383 31.401079 
L 398.828203 25.44296 
L 402.156764 24.167794 
L 410.811024 21.005228 
L 416.802434 18.706283 
L 420.130995 17.710963 
L 423.459556 16.992408 
L 426.122405 16.635679 
L 428.785254 16.532592 
L 430.782391 16.66264 
L 432.779528 16.978196 
L 435.442377 17.627859 
L 442.099499 19.393791 
L 452.085183 21.586654 
L 455.413744 22.706702 
L 458.742305 24.044033 
L 462.070866 25.619269 
L 465.399427 27.468938 
L 469.393701 29.998039 
L 475.385111 33.833299 
L 478.04796 35.266147 
L 480.710809 36.448777 
L 484.03937 37.666694 
L 490.03078 39.820609 
L 502.679313 44.77654 
L 508.005011 46.450957 
L 512.664996 47.709505 
L 516.65927 48.554074 
L 521.319256 49.29823 
L 528.64209 50.21221 
L 532.636364 50.595411 
L 532.636364 50.595411 
" clip-path="url(#pddc3dc6093)" style="fill: none; stroke: #cf1313; stroke-width: 1.5; stroke-linecap: square"/>
   </g>
   <g id="line2d_2">
    <path d="M 132.543307 50.664647 
L 135.871868 50.246885 
L 139.200429 49.622155 
L 145.19184 48.199182 
L 153.846099 45.950704 
L 157.840372 44.731517 
L 160.503221 43.739287 
L 163.16607 42.506345 
L 165.828919 41.021661 
L 173.151754 36.706185 
L 175.814603 35.470192 
L 180.474588 33.423377 
L 182.471725 32.332457 
L 185.134574 30.578696 
L 192.457409 25.389809 
L 195.78597 23.490817 
L 203.774517 19.242161 
L 205.771654 18.457896 
L 207.76879 17.897773 
L 219.751611 15.296607 
L 221.748747 15.239498 
L 223.745884 15.486141 
L 225.743021 15.977834 
L 229.071582 17.084084 
L 233.065855 18.617357 
L 236.394417 20.124086 
L 241.054402 22.550687 
L 245.714388 25.205591 
L 249.042949 27.350281 
L 256.365784 32.188639 
L 260.360057 34.432902 
L 265.685755 37.119014 
L 271.011453 39.553118 
L 284.325698 45.307095 
L 289.651396 47.091955 
L 295.642806 48.940775 
L 298.971367 49.738763 
L 302.299928 50.276087 
L 304.297065 50.494235 
L 304.297065 50.494235 
" clip-path="url(#pddc3dc6093)" style="fill: none; stroke: #116dc2; stroke-width: 1.5; stroke-linecap: square"/>
   </g>
   <g id="line2d_3">
    <path d="M 25.363636 49.553141 
L 26.029349 49.074942 
L 26.695061 48.49595 
L 27.360773 47.773277 
L 28.026485 46.932254 
L 28.692198 46.049274 
L 29.35791 45.152209 
L 30.023622 44.184147 
L 30.689334 43.080459 
L 31.355047 41.830621 
L 32.020759 40.444546 
L 32.686471 38.904515 
L 33.352183 37.155359 
L 34.017895 35.107944 
L 34.683608 32.690843 
L 35.34932 29.941995 
L 36.015032 27.014756 
L 36.680744 24.097278 
L 37.346457 21.366809 
L 38.012169 18.960889 
L 38.677881 16.908048 
L 39.343593 15.107293 
L 40.009306 13.418857 
L 40.675018 11.757307 
L 41.34073 10.089202 
L 42.006442 8.417658 
L 42.672155 6.818859 
L 43.337867 5.410388 
L 44.003579 4.234737 
L 44.669291 3.268914 
L 45.335004 2.597391 
L 46.000716 2.470909 
L 46.666428 3.104468 
L 47.33214 4.477027 
L 47.997853 6.395771 
L 48.663565 8.665938 
L 49.329277 11.116014 
L 49.994989 13.556644 
L 50.660702 15.839339 
L 51.326414 17.955283 
L 51.992126 20.021173 
L 52.657838 22.159287 
L 53.32355 24.430874 
L 53.989263 26.854178 
L 54.654975 29.370054 
L 55.320687 31.808003 
L 55.986399 34.010499 
L 56.652112 35.955051 
L 57.317824 37.691237 
L 57.983536 39.259572 
L 58.649248 40.714419 
L 59.314961 42.129059 
L 59.980673 43.541386 
L 60.646385 44.929301 
L 61.312097 46.237069 
L 61.97781 47.406389 
L 62.643522 48.393532 
L 63.309234 49.176874 
L 63.974946 49.760021 
" clip-path="url(#pddc3dc6093)" style="fill: none; stroke: #8a8a8a; stroke-width: 1.5; stroke-linecap: square"/>
   </g>
  </g>
 </g>
 <defs>
  <clipPath id="pddc3dc6093">
   <rect x="0" y="-0" width="558" height="54.36"/>
  </clipPath>
 </defs>
</svg>
