<?xml version="1.0" encoding="utf-8" standalone="no"?>
<!DOCTYPE svg PUBLIC "-//W3C//DTD SVG 1.1//EN"
  "http://www.w3.org/Graphics/SVG/1.1/DTD/svg11.dtd">
<svg xmlns:xlink="http://www.w3.org/1999/xlink" width="558pt" height="54.36pt" viewBox="0 0 558 54.36" xmlns="http://www.w3.org/2000/svg" version="1.1">
 <metadata>
  <rdf:RDF xmlns:dc="http://purl.org/dc/elements/1.1/" xmlns:cc="http://creativecommons.org/ns#" xmlns:rdf="http://www.w3.org/1999/02/22-rdf-syntax-ns#">
   <cc:Work>
    <dc:type rdf:resource="http://purl.org/dc/dcmitype/StillImage"/>
    <dc:date>2024-09-15T09:30:52.581928</dc:date>
    <dc:format>image/svg+xml</dc:format>
    <dc:creator>
     <cc:Agent>
      <dc:title>Matplotlib v3.5.2, https://matplotlib.org/</dc:title>
     </cc:Agent>
    </dc:creator>
   </cc:Work>
  </rdf:RDF>
 </metadata>
 <defs>
  <style type="text/css">*{stroke-linejoin: round; stroke-linecap: butt}</style>
 </defs>
 <g id="figure_1">
  <g id="patch_1">
   <path d="M 0 54.36 
L 558 54.36 
L 558 0 
L 0 0 
L 0 54.36 
z
" style="fill: none; opacity: 0"/>
  </g>
  <g id="axes_1">
   <g id="PolyCollection_1">
    <defs>
     <path id="m050b150a61" d="M 354.040344 -2.470909 
L 354.040344 -3.752192 
L 354.790748 -3.816766 
L 355.541151 -3.886988 
L 356.291555 -3.963111 
L 357.041958 -4.045288 
L 357.792361 -4.133582 
L 358.542765 -4.227982 
L 359.293168 -4.328424 
L 360.043572 -4.434813 
L 360.793975 -4.547053 
L 361.544379 -4.665074 
L 362.294782 -4.788858 
L 363.045186 -4.918461 
L 363.795589 -5.054021 
L 364.545992 -5.195769 
L 365.296396 -5.344011 
L 366.046799 -5.499117 
L 366.797203 -5.661485 
L 367.547606 -5.831508 
L 368.29801 -6.009539 
L 369.048413 -6.195851 
L 369.798817 -6.390615 
L 370.54922 -6.593884 
L 371.299623 -6.805592 
L 372.050027 -7.025575 
L 372.80043 -7.253589 
L 373.550834 -7.489355 
L 374.301237 -7.732587 
L 375.051641 -7.983034 
L 375.802044 -8.240499 
L 376.552448 -8.504853 
L 377.302851 -8.776035 
L 378.053254 -9.054033 
L 378.803658 -9.338861 
L 379.554061 -9.630525 
L 380.304465 -9.92898 
L 381.054868 -10.234098 
L 381.805272 -10.545625 
L 382.555675 -10.863156 
L 383.306079 -11.186107 
L 384.056482 -11.513707 
L 384.806885 -11.844999 
L 385.557289 -12.17886 
L 386.307692 -12.514039 
L 387.058096 -12.849226 
L 387.808499 -13.183124 
L 388.558903 -13.514555 
L 389.309306 -13.842559 
L 390.05971 -14.166499 
L 390.810113 -14.486133 
L 391.560516 -14.801671 
L 392.31092 -15.113788 
L 393.061323 -15.423582 
L 393.811727 -15.73251 
L 394.56213 -16.042278 
L 395.312534 -16.354719 
L 396.062937 -16.671672 
L 396.813341 -16.994877 
L 397.563744 -17.325908 
L 398.314147 -17.666148 
L 399.064551 -18.016799 
L 399.814954 -18.378948 
L 400.565358 -18.753638 
L 401.315761 -19.141961 
L 402.066165 -19.545125 
L 402.816568 -19.964494 
L 403.566971 -20.401576 
L 404.317375 -20.857963 
L 405.067778 -21.335208 
L 405.818182 -21.834666 
L 406.568585 -22.357318 
L 407.318989 -22.90358 
L 408.069392 -23.47315 
L 408.819796 -24.064893 
L 409.570199 -24.676782 
L 410.320602 -25.305913 
L 411.071006 -25.948571 
L 411.821409 -26.600353 
L 412.571813 -27.256322 
L 413.322216 -27.911182 
L 414.07262 -28.55945 
L 414.823023 -29.195633 
L 415.573427 -29.814392 
L 416.32383 -30.410702 
L 417.074233 -30.980025 
L 417.824637 -31.518475 
L 418.57504 -32.022998 
L 419.325444 -32.491543 
L 420.075847 -32.923204 
L 420.826251 -33.318326 
L 421.576654 -33.678522 
L 422.327058 -34.006607 
L 423.077461 -34.306422 
L 423.827864 -34.582551 
L 424.578268 -34.839968 
L 425.328671 -35.083631 
L 426.079075 -35.318091 
L 426.829478 -35.547141 
L 427.579882 -35.773581 
L 428.330285 -35.999101 
L 429.080689 -36.224319 
L 429.831092 -36.448954 
L 430.581495 -36.672098 
L 431.331899 -36.892559 
L 432.082302 -37.109206 
L 432.832706 -37.321267 
L 433.583109 -37.528533 
L 434.333513 -37.731441 
L 435.083916 -37.931027 
L 435.83432 -38.128752 
L 436.584723 -38.326239 
L 437.335126 -38.524953 
L 438.08553 -38.725881 
L 438.835933 -38.929255 
L 439.586337 -39.134344 
L 440.33674 -39.339371 
L 441.087144 -39.541531 
L 441.837547 -39.737138 
L 442.587951 -39.921858 
L 443.338354 -40.09102 
L 444.088757 -40.239955 
L 444.839161 -40.364335 
L 445.589564 -40.460472 
L 446.339968 -40.525554 
L 447.090371 -40.557793 
L 447.840775 -40.556471 
L 448.591178 -40.521905 
L 449.341581 -40.455313 
L 450.091985 -40.358633 
L 450.842388 -40.234294 
L 451.592792 -40.08498 
L 452.343195 -39.913408 
L 453.093599 -39.722136 
L 453.844002 -39.513418 
L 454.594406 -39.289108 
L 455.344809 -39.050614 
L 456.095212 -38.79889 
L 456.845616 -38.53446 
L 457.596019 -38.257465 
L 458.346423 -37.96772 
L 459.096826 -37.664788 
L 459.84723 -37.348045 
L 460.597633 -37.01676 
L 461.348037 -36.670175 
L 462.09844 -36.307577 
L 462.848843 -35.928381 
L 463.599247 -35.532188 
L 464.34965 -35.118837 
L 465.100054 -34.688443 
L 465.850457 -34.241394 
L 466.600861 -33.778341 
L 467.351264 -33.300158 
L 468.101668 -32.807894 
L 468.852071 -32.302707 
L 469.602474 -31.785817 
L 470.352878 -31.258458 
L 471.103281 -30.721853 
L 471.853685 -30.177208 
L 472.604088 -29.625728 
L 473.354492 -29.068645 
L 474.104895 -28.507254 
L 474.855299 -27.942958 
L 475.605702 -27.377294 
L 476.356105 -26.811952 
L 477.106509 -26.248767 
L 477.856912 -25.68969 
L 478.607316 -25.136735 
L 479.357719 -24.591911 
L 480.108123 -24.057134 
L 480.858526 -23.534141 
L 481.60893 -23.024411 
L 482.359333 -22.529098 
L 483.109736 -22.048981 
L 483.86014 -21.584447 
L 484.610543 -21.13549 
L 485.360947 -20.701734 
L 486.11135 -20.282474 
L 486.861754 -19.876719 
L 487.612157 -19.483243 
L 488.362561 -19.100635 
L 489.112964 -18.727343 
L 489.863367 -18.361712 
L 490.613771 -18.002025 
L 491.364174 -17.646541 
L 492.114578 -17.293538 
L 492.864981 -16.941359 
L 493.615385 -16.58846 
L 494.365788 -16.233464 
L 495.116192 -15.875202 
L 495.866595 -15.512753 
L 496.616998 -15.145467 
L 497.367402 -14.772976 
L 498.117805 -14.395193 
L 498.868209 -14.012303 
L 499.618612 -13.624745 
L 500.369016 -13.2332 
L 501.119419 -12.838589 
L 501.869822 -12.442067 
L 502.620226 -12.045032 
L 503.370629 -11.649135 
L 504.121033 -11.256271 
L 504.871436 -10.86857 
L 505.62184 -10.488356 
L 506.372243 -10.118076 
L 507.122647 -9.760205 
L 507.87305 -9.417131 
L 508.623453 -9.091015 
L 509.373857 -8.78366 
L 510.12426 -8.496383 
L 510.874664 -8.229918 
L 511.625067 -7.984353 
L 512.375471 -7.759108 
L 513.125874 -7.552969 
L 513.876278 -7.364149 
L 514.626681 -7.190402 
L 515.377084 -7.029156 
L 516.127488 -6.877659 
L 516.877891 -6.733141 
L 517.628295 -6.59295 
L 518.378698 -6.454693 
L 519.129102 -6.316333 
L 519.879505 -6.176274 
L 520.629909 -6.033401 
L 521.380312 -5.887102 
L 522.130715 -5.73725 
L 522.881119 -5.584169 
L 523.631522 -5.428569 
L 524.381926 -5.271473 
L 525.132329 -5.114133 
L 525.882733 -4.957944 
L 526.633136 -4.804357 
L 527.38354 -4.654805 
L 528.133943 -4.510636 
L 528.884346 -4.373061 
L 529.63475 -4.243112 
L 530.385153 -4.12162 
L 531.135557 -4.009198 
L 531.88596 -3.906233 
L 532.636364 -3.812894 
L 532.636364 -2.470909 
L 532.636364 -2.470909 
L 531.88596 -2.470909 
L 531.135557 -2.470909 
L 530.385153 -2.470909 
L 529.63475 -2.470909 
L 528.884346 -2.470909 
L 528.133943 -2.470909 
L 527.38354 -2.470909 
L 526.633136 -2.470909 
L 525.882733 -2.470909 
L 525.132329 -2.470909 
L 524.381926 -2.470909 
L 523.631522 -2.470909 
L 522.881119 -2.470909 
L 522.130715 -2.470909 
L 521.380312 -2.470909 
L 520.629909 -2.470909 
L 519.879505 -2.470909 
L 519.129102 -2.470909 
L 518.378698 -2.470909 
L 517.628295 -2.470909 
L 516.877891 -2.470909 
L 516.127488 -2.470909 
L 515.377084 -2.470909 
L 514.626681 -2.470909 
L 513.876278 -2.470909 
L 513.125874 -2.470909 
L 512.375471 -2.470909 
L 511.625067 -2.470909 
L 510.874664 -2.470909 
L 510.12426 -2.470909 
L 509.373857 -2.470909 
L 508.623453 -2.470909 
L 507.87305 -2.470909 
L 507.122647 -2.470909 
L 506.372243 -2.470909 
L 505.62184 -2.470909 
L 504.871436 -2.470909 
L 504.121033 -2.470909 
L 503.370629 -2.470909 
L 502.620226 -2.470909 
L 501.869822 -2.470909 
L 501.119419 -2.470909 
L 500.369016 -2.470909 
L 499.618612 -2.470909 
L 498.868209 -2.470909 
L 498.117805 -2.470909 
L 497.367402 -2.470909 
L 496.616998 -2.470909 
L 495.866595 -2.470909 
L 495.116192 -2.470909 
L 494.365788 -2.470909 
L 493.615385 -2.470909 
L 492.864981 -2.470909 
L 492.114578 -2.470909 
L 491.364174 -2.470909 
L 490.613771 -2.470909 
L 489.863367 -2.470909 
L 489.112964 -2.470909 
L 488.362561 -2.470909 
L 487.612157 -2.470909 
L 486.861754 -2.470909 
L 486.11135 -2.470909 
L 485.360947 -2.470909 
L 484.610543 -2.470909 
L 483.86014 -2.470909 
L 483.109736 -2.470909 
L 482.359333 -2.470909 
L 481.60893 -2.470909 
L 480.858526 -2.470909 
L 480.108123 -2.470909 
L 479.357719 -2.470909 
L 478.607316 -2.470909 
L 477.856912 -2.470909 
L 477.106509 -2.470909 
L 476.356105 -2.470909 
L 475.605702 -2.470909 
L 474.855299 -2.470909 
L 474.104895 -2.470909 
L 473.354492 -2.470909 
L 472.604088 -2.470909 
L 471.853685 -2.470909 
L 471.103281 -2.470909 
L 470.352878 -2.470909 
L 469.602474 -2.470909 
L 468.852071 -2.470909 
L 468.101668 -2.470909 
L 467.351264 -2.470909 
L 466.600861 -2.470909 
L 465.850457 -2.470909 
L 465.100054 -2.470909 
L 464.34965 -2.470909 
L 463.599247 -2.470909 
L 462.848843 -2.470909 
L 462.09844 -2.470909 
L 461.348037 -2.470909 
L 460.597633 -2.470909 
L 459.84723 -2.470909 
L 459.096826 -2.470909 
L 458.346423 -2.470909 
L 457.596019 -2.470909 
L 456.845616 -2.470909 
L 456.095212 -2.470909 
L 455.344809 -2.470909 
L 454.594406 -2.470909 
L 453.844002 -2.470909 
L 453.093599 -2.470909 
L 452.343195 -2.470909 
L 451.592792 -2.470909 
L 450.842388 -2.470909 
L 450.091985 -2.470909 
L 449.341581 -2.470909 
L 448.591178 -2.470909 
L 447.840775 -2.470909 
L 447.090371 -2.470909 
L 446.339968 -2.470909 
L 445.589564 -2.470909 
L 444.839161 -2.470909 
L 444.088757 -2.470909 
L 443.338354 -2.470909 
L 442.587951 -2.470909 
L 441.837547 -2.470909 
L 441.087144 -2.470909 
L 440.33674 -2.470909 
L 439.586337 -2.470909 
L 438.835933 -2.470909 
L 438.08553 -2.470909 
L 437.335126 -2.470909 
L 436.584723 -2.470909 
L 435.83432 -2.470909 
L 435.083916 -2.470909 
L 434.333513 -2.470909 
L 433.583109 -2.470909 
L 432.832706 -2.470909 
L 432.082302 -2.470909 
L 431.331899 -2.470909 
L 430.581495 -2.470909 
L 429.831092 -2.470909 
L 429.080689 -2.470909 
L 428.330285 -2.470909 
L 427.579882 -2.470909 
L 426.829478 -2.470909 
L 426.079075 -2.470909 
L 425.328671 -2.470909 
L 424.578268 -2.470909 
L 423.827864 -2.470909 
L 423.077461 -2.470909 
L 422.327058 -2.470909 
L 421.576654 -2.470909 
L 420.826251 -2.470909 
L 420.075847 -2.470909 
L 419.325444 -2.470909 
L 418.57504 -2.470909 
L 417.824637 -2.470909 
L 417.074233 -2.470909 
L 416.32383 -2.470909 
L 415.573427 -2.470909 
L 414.823023 -2.470909 
L 414.07262 -2.470909 
L 413.322216 -2.470909 
L 412.571813 -2.470909 
L 411.821409 -2.470909 
L 411.071006 -2.470909 
L 410.320602 -2.470909 
L 409.570199 -2.470909 
L 408.819796 -2.470909 
L 408.069392 -2.470909 
L 407.318989 -2.470909 
L 406.568585 -2.470909 
L 405.818182 -2.470909 
L 405.067778 -2.470909 
L 404.317375 -2.470909 
L 403.566971 -2.470909 
L 402.816568 -2.470909 
L 402.066165 -2.470909 
L 401.315761 -2.470909 
L 400.565358 -2.470909 
L 399.814954 -2.470909 
L 399.064551 -2.470909 
L 398.314147 -2.470909 
L 397.563744 -2.470909 
L 396.813341 -2.470909 
L 396.062937 -2.470909 
L 395.312534 -2.470909 
L 394.56213 -2.470909 
L 393.811727 -2.470909 
L 393.061323 -2.470909 
L 392.31092 -2.470909 
L 391.560516 -2.470909 
L 390.810113 -2.470909 
L 390.05971 -2.470909 
L 389.309306 -2.470909 
L 388.558903 -2.470909 
L 387.808499 -2.470909 
L 387.058096 -2.470909 
L 386.307692 -2.470909 
L 385.557289 -2.470909 
L 384.806885 -2.470909 
L 384.056482 -2.470909 
L 383.306079 -2.470909 
L 382.555675 -2.470909 
L 381.805272 -2.470909 
L 381.054868 -2.470909 
L 380.304465 -2.470909 
L 379.554061 -2.470909 
L 378.803658 -2.470909 
L 378.053254 -2.470909 
L 377.302851 -2.470909 
L 376.552448 -2.470909 
L 375.802044 -2.470909 
L 375.051641 -2.470909 
L 374.301237 -2.470909 
L 373.550834 -2.470909 
L 372.80043 -2.470909 
L 372.050027 -2.470909 
L 371.299623 -2.470909 
L 370.54922 -2.470909 
L 369.798817 -2.470909 
L 369.048413 -2.470909 
L 368.29801 -2.470909 
L 367.547606 -2.470909 
L 366.797203 -2.470909 
L 366.046799 -2.470909 
L 365.296396 -2.470909 
L 364.545992 -2.470909 
L 363.795589 -2.470909 
L 363.045186 -2.470909 
L 362.294782 -2.470909 
L 361.544379 -2.470909 
L 360.793975 -2.470909 
L 360.043572 -2.470909 
L 359.293168 -2.470909 
L 358.542765 -2.470909 
L 357.792361 -2.470909 
L 357.041958 -2.470909 
L 356.291555 -2.470909 
L 355.541151 -2.470909 
L 354.790748 -2.470909 
L 354.040344 -2.470909 
z
" style="stroke: #cf1313; stroke-opacity: 0.2"/>
    </defs>
    <g clip-path="url(#pf8c25711d2)">
     <use xlink:href="#m050b150a61" x="0" y="54.36" style="fill: #cf1313; fill-opacity: 0.2; stroke: #cf1313; stroke-opacity: 0.2"/>
    </g>
   </g>
   <g id="PolyCollection_2">
    <defs>
     <path id="m18863a4a18" d="M 185.949973 -2.470909 
L 185.949973 -4.006554 
L 186.700377 -4.088467 
L 187.45078 -4.173423 
L 188.201183 -4.261481 
L 188.951587 -4.352727 
L 189.70199 -4.447275 
L 190.452394 -4.545258 
L 191.202797 -4.646813 
L 191.953201 -4.752056 
L 192.703604 -4.861052 
L 193.454008 -4.973795 
L 194.204411 -5.090186 
L 194.954814 -5.210026 
L 195.705218 -5.333031 
L 196.455621 -5.458862 
L 197.206025 -5.587178 
L 197.956428 -5.717701 
L 198.706832 -5.850296 
L 199.457235 -5.985044 
L 200.207639 -6.122312 
L 200.958042 -6.262796 
L 201.708445 -6.407534 
L 202.458849 -6.557884 
L 203.209252 -6.715467 
L 203.959656 -6.882065 
L 204.710059 -7.059501 
L 205.460463 -7.249495 
L 206.210866 -7.453519 
L 206.961269 -7.672666 
L 207.711673 -7.907533 
L 208.462076 -8.158151 
L 209.21248 -8.42395 
L 209.962883 -8.703773 
L 210.713287 -8.995926 
L 211.46369 -9.298279 
L 212.214094 -9.608388 
L 212.964497 -9.923639 
L 213.7149 -10.241409 
L 214.465304 -10.559222 
L 215.215707 -10.874899 
L 215.966111 -11.186689 
L 216.716514 -11.493378 
L 217.466918 -11.794372 
L 218.217321 -12.089734 
L 218.967725 -12.380193 
L 219.718128 -12.667107 
L 220.468531 -12.952387 
L 221.218935 -13.238381 
L 221.969338 -13.527736 
L 222.719742 -13.823231 
L 223.470145 -14.127613 
L 224.220549 -14.443435 
L 224.970952 -14.772923 
L 225.721356 -15.117877 
L 226.471759 -15.479615 
L 227.222162 -15.858968 
L 227.972566 -16.256321 
L 228.722969 -16.67168 
L 229.473373 -17.104773 
L 230.223776 -17.555142 
L 230.97418 -18.022237 
L 231.724583 -18.505468 
L 232.474987 -19.004238 
L 233.22539 -19.517927 
L 233.975793 -20.045851 
L 234.726197 -20.587185 
L 235.4766 -21.140884 
L 236.227004 -21.7056 
L 236.977407 -22.279617 
L 237.727811 -22.860819 
L 238.478214 -23.446681 
L 239.228618 -24.034317 
L 239.979021 -24.62055 
L 240.729424 -25.20203 
L 241.479828 -25.775374 
L 242.230231 -26.337318 
L 242.980635 -26.884884 
L 243.731038 -27.415536 
L 244.481442 -27.92732 
L 245.231845 -28.418971 
L 245.982249 -28.889985 
L 246.732652 -29.340643 
L 247.483055 -29.77198 
L 248.233459 -30.185702 
L 248.983862 -30.584059 
L 249.734266 -30.969671 
L 250.484669 -31.345329 
L 251.235073 -31.713788 
L 251.985476 -32.077561 
L 252.73588 -32.438744 
L 253.486283 -32.798876 
L 254.236686 -33.158855 
L 254.98709 -33.518915 
L 255.737493 -33.87866 
L 256.487897 -34.237155 
L 257.2383 -34.59306 
L 257.988704 -34.944795 
L 258.739107 -35.29071 
L 259.48951 -35.629255 
L 260.239914 -35.959115 
L 260.990317 -36.279312 
L 261.740721 -36.589256 
L 262.491124 -36.888746 
L 263.241528 -37.177914 
L 263.991931 -37.45713 
L 264.742335 -37.726873 
L 265.492738 -37.987581 
L 266.243141 -38.239507 
L 266.993545 -38.482581 
L 267.743948 -38.716307 
L 268.494352 -38.939709 
L 269.244755 -39.151318 
L 269.995159 -39.34923 
L 270.745562 -39.531206 
L 271.495966 -39.694827 
L 272.246369 -39.837674 
L 272.996772 -39.957528 
L 273.747176 -40.052558 
L 274.497579 -40.121483 
L 275.247983 -40.163691 
L 275.998386 -40.179295 
L 276.74879 -40.169129 
L 277.499193 -40.134682 
L 278.249597 -40.077985 
L 279 -40.001456 
L 279.750403 -39.907735 
L 280.500807 -39.799521 
L 281.25121 -39.679425 
L 282.001614 -39.549864 
L 282.752017 -39.412978 
L 283.502421 -39.270592 
L 284.252824 -39.124202 
L 285.003228 -38.974983 
L 285.753631 -38.823799 
L 286.504034 -38.671217 
L 287.254438 -38.517509 
L 288.004841 -38.362638 
L 288.755245 -38.206248 
L 289.505648 -38.047629 
L 290.256052 -37.885709 
L 291.006455 -37.719039 
L 291.756859 -37.545814 
L 292.507262 -37.363914 
L 293.257665 -37.170976 
L 294.008069 -36.964502 
L 294.758472 -36.741987 
L 295.508876 -36.501071 
L 296.259279 -36.239693 
L 297.009683 -35.956252 
L 297.760086 -35.649745 
L 298.51049 -35.319881 
L 299.260893 -34.967154 
L 300.011296 -34.592871 
L 300.7617 -34.199115 
L 301.512103 -33.78866 
L 302.262507 -33.364809 
L 303.01291 -32.93119 
L 303.763314 -32.491504 
L 304.513717 -32.049245 
L 305.26412 -31.607421 
L 306.014524 -31.168292 
L 306.764927 -30.73317 
L 307.515331 -30.302284 
L 308.265734 -29.874747 
L 309.016138 -29.44863 
L 309.766541 -29.021138 
L 310.516945 -28.588879 
L 311.267348 -28.1482 
L 312.017751 -27.695553 
L 312.768155 -27.227858 
L 313.518558 -26.742813 
L 314.268962 -26.239133 
L 315.019365 -25.716675 
L 315.769769 -25.176461 
L 316.520172 -24.620582 
L 317.270576 -24.052015 
L 318.020979 -23.474375 
L 318.771382 -22.891632 
L 319.521786 -22.30783 
L 320.272189 -21.726843 
L 321.022593 -21.152172 
L 321.772996 -20.586815 
L 322.5234 -20.033197 
L 323.273803 -19.49316 
L 324.024207 -18.967991 
L 324.77461 -18.458492 
L 325.525013 -17.965049 
L 326.275417 -17.48771 
L 327.02582 -17.026259 
L 327.776224 -16.580272 
L 328.526627 -16.149169 
L 329.277031 -15.732258 
L 330.027434 -15.32877 
L 330.777838 -14.937901 
L 331.528241 -14.558843 
L 332.278644 -14.190823 
L 333.029048 -13.833128 
L 333.779451 -13.485138 
L 334.529855 -13.146329 
L 335.280258 -12.816279 
L 336.030662 -12.494658 
L 336.781065 -12.181202 
L 337.531469 -11.875685 
L 338.281872 -11.577889 
L 339.032275 -11.287577 
L 339.782679 -11.004471 
L 340.533082 -10.728251 
L 341.283486 -10.458564 
L 342.033889 -10.195043 
L 342.784293 -9.937346 
L 343.534696 -9.685192 
L 344.2851 -9.438411 
L 345.035503 -9.196971 
L 345.785906 -8.961012 
L 346.53631 -8.730848 
L 347.286713 -8.506958 
L 348.037117 -8.289952 
L 348.78752 -8.080518 
L 349.537924 -7.879348 
L 350.288327 -7.687054 
L 351.038731 -7.504075 
L 351.789134 -7.330591 
L 352.539537 -7.166448 
L 353.289941 -7.011099 
L 354.040344 -6.863586 
L 354.790748 -6.722552 
L 355.541151 -6.586294 
L 356.291555 -6.452858 
L 357.041958 -6.320169 
L 357.792361 -6.18618 
L 358.542765 -6.049039 
L 359.293168 -5.90725 
L 360.043572 -5.75981 
L 360.793975 -5.606316 
L 361.544379 -5.447018 
L 362.294782 -5.282822 
L 363.045186 -5.115239 
L 363.795589 -4.946276 
L 364.545992 -4.778297 
L 365.296396 -4.613844 
L 366.046799 -4.455458 
L 366.797203 -4.305503 
L 367.547606 -4.166006 
L 368.29801 -4.038541 
L 369.048413 -3.924144 
L 369.798817 -3.823279 
L 369.798817 -2.470909 
L 369.798817 -2.470909 
L 369.048413 -2.470909 
L 368.29801 -2.470909 
L 367.547606 -2.470909 
L 366.797203 -2.470909 
L 366.046799 -2.470909 
L 365.296396 -2.470909 
L 364.545992 -2.470909 
L 363.795589 -2.470909 
L 363.045186 -2.470909 
L 362.294782 -2.470909 
L 361.544379 -2.470909 
L 360.793975 -2.470909 
L 360.043572 -2.470909 
L 359.293168 -2.470909 
L 358.542765 -2.470909 
L 357.792361 -2.470909 
L 357.041958 -2.470909 
L 356.291555 -2.470909 
L 355.541151 -2.470909 
L 354.790748 -2.470909 
L 354.040344 -2.470909 
L 353.289941 -2.470909 
L 352.539537 -2.470909 
L 351.789134 -2.470909 
L 351.038731 -2.470909 
L 350.288327 -2.470909 
L 349.537924 -2.470909 
L 348.78752 -2.470909 
L 348.037117 -2.470909 
L 347.286713 -2.470909 
L 346.53631 -2.470909 
L 345.785906 -2.470909 
L 345.035503 -2.470909 
L 344.2851 -2.470909 
L 343.534696 -2.470909 
L 342.784293 -2.470909 
L 342.033889 -2.470909 
L 341.283486 -2.470909 
L 340.533082 -2.470909 
L 339.782679 -2.470909 
L 339.032275 -2.470909 
L 338.281872 -2.470909 
L 337.531469 -2.470909 
L 336.781065 -2.470909 
L 336.030662 -2.470909 
L 335.280258 -2.470909 
L 334.529855 -2.470909 
L 333.779451 -2.470909 
L 333.029048 -2.470909 
L 332.278644 -2.470909 
L 331.528241 -2.470909 
L 330.777838 -2.470909 
L 330.027434 -2.470909 
L 329.277031 -2.470909 
L 328.526627 -2.470909 
L 327.776224 -2.470909 
L 327.02582 -2.470909 
L 326.275417 -2.470909 
L 325.525013 -2.470909 
L 324.77461 -2.470909 
L 324.024207 -2.470909 
L 323.273803 -2.470909 
L 322.5234 -2.470909 
L 321.772996 -2.470909 
L 321.022593 -2.470909 
L 320.272189 -2.470909 
L 319.521786 -2.470909 
L 318.771382 -2.470909 
L 318.020979 -2.470909 
L 317.270576 -2.470909 
L 316.520172 -2.470909 
L 315.769769 -2.470909 
L 315.019365 -2.470909 
L 314.268962 -2.470909 
L 313.518558 -2.470909 
L 312.768155 -2.470909 
L 312.017751 -2.470909 
L 311.267348 -2.470909 
L 310.516945 -2.470909 
L 309.766541 -2.470909 
L 309.016138 -2.470909 
L 308.265734 -2.470909 
L 307.515331 -2.470909 
L 306.764927 -2.470909 
L 306.014524 -2.470909 
L 305.26412 -2.470909 
L 304.513717 -2.470909 
L 303.763314 -2.470909 
L 303.01291 -2.470909 
L 302.262507 -2.470909 
L 301.512103 -2.470909 
L 300.7617 -2.470909 
L 300.011296 -2.470909 
L 299.260893 -2.470909 
L 298.51049 -2.470909 
L 297.760086 -2.470909 
L 297.009683 -2.470909 
L 296.259279 -2.470909 
L 295.508876 -2.470909 
L 294.758472 -2.470909 
L 294.008069 -2.470909 
L 293.257665 -2.470909 
L 292.507262 -2.470909 
L 291.756859 -2.470909 
L 291.006455 -2.470909 
L 290.256052 -2.470909 
L 289.505648 -2.470909 
L 288.755245 -2.470909 
L 288.004841 -2.470909 
L 287.254438 -2.470909 
L 286.504034 -2.470909 
L 285.753631 -2.470909 
L 285.003228 -2.470909 
L 284.252824 -2.470909 
L 283.502421 -2.470909 
L 282.752017 -2.470909 
L 282.001614 -2.470909 
L 281.25121 -2.470909 
L 280.500807 -2.470909 
L 279.750403 -2.470909 
L 279 -2.470909 
L 278.249597 -2.470909 
L 277.499193 -2.470909 
L 276.74879 -2.470909 
L 275.998386 -2.470909 
L 275.247983 -2.470909 
L 274.497579 -2.470909 
L 273.747176 -2.470909 
L 272.996772 -2.470909 
L 272.246369 -2.470909 
L 271.495966 -2.470909 
L 270.745562 -2.470909 
L 269.995159 -2.470909 
L 269.244755 -2.470909 
L 268.494352 -2.470909 
L 267.743948 -2.470909 
L 266.993545 -2.470909 
L 266.243141 -2.470909 
L 265.492738 -2.470909 
L 264.742335 -2.470909 
L 263.991931 -2.470909 
L 263.241528 -2.470909 
L 262.491124 -2.470909 
L 261.740721 -2.470909 
L 260.990317 -2.470909 
L 260.239914 -2.470909 
L 259.48951 -2.470909 
L 258.739107 -2.470909 
L 257.988704 -2.470909 
L 257.2383 -2.470909 
L 256.487897 -2.470909 
L 255.737493 -2.470909 
L 254.98709 -2.470909 
L 254.236686 -2.470909 
L 253.486283 -2.470909 
L 252.73588 -2.470909 
L 251.985476 -2.470909 
L 251.235073 -2.470909 
L 250.484669 -2.470909 
L 249.734266 -2.470909 
L 248.983862 -2.470909 
L 248.233459 -2.470909 
L 247.483055 -2.470909 
L 246.732652 -2.470909 
L 245.982249 -2.470909 
L 245.231845 -2.470909 
L 244.481442 -2.470909 
L 243.731038 -2.470909 
L 242.980635 -2.470909 
L 242.230231 -2.470909 
L 241.479828 -2.470909 
L 240.729424 -2.470909 
L 239.979021 -2.470909 
L 239.228618 -2.470909 
L 238.478214 -2.470909 
L 237.727811 -2.470909 
L 236.977407 -2.470909 
L 236.227004 -2.470909 
L 235.4766 -2.470909 
L 234.726197 -2.470909 
L 233.975793 -2.470909 
L 233.22539 -2.470909 
L 232.474987 -2.470909 
L 231.724583 -2.470909 
L 230.97418 -2.470909 
L 230.223776 -2.470909 
L 229.473373 -2.470909 
L 228.722969 -2.470909 
L 227.972566 -2.470909 
L 227.222162 -2.470909 
L 226.471759 -2.470909 
L 225.721356 -2.470909 
L 224.970952 -2.470909 
L 224.220549 -2.470909 
L 223.470145 -2.470909 
L 222.719742 -2.470909 
L 221.969338 -2.470909 
L 221.218935 -2.470909 
L 220.468531 -2.470909 
L 219.718128 -2.470909 
L 218.967725 -2.470909 
L 218.217321 -2.470909 
L 217.466918 -2.470909 
L 216.716514 -2.470909 
L 215.966111 -2.470909 
L 215.215707 -2.470909 
L 214.465304 -2.470909 
L 213.7149 -2.470909 
L 212.964497 -2.470909 
L 212.214094 -2.470909 
L 211.46369 -2.470909 
L 210.713287 -2.470909 
L 209.962883 -2.470909 
L 209.21248 -2.470909 
L 208.462076 -2.470909 
L 207.711673 -2.470909 
L 206.961269 -2.470909 
L 206.210866 -2.470909 
L 205.460463 -2.470909 
L 204.710059 -2.470909 
L 203.959656 -2.470909 
L 203.209252 -2.470909 
L 202.458849 -2.470909 
L 201.708445 -2.470909 
L 200.958042 -2.470909 
L 200.207639 -2.470909 
L 199.457235 -2.470909 
L 198.706832 -2.470909 
L 197.956428 -2.470909 
L 197.206025 -2.470909 
L 196.455621 -2.470909 
L 195.705218 -2.470909 
L 194.954814 -2.470909 
L 194.204411 -2.470909 
L 193.454008 -2.470909 
L 192.703604 -2.470909 
L 191.953201 -2.470909 
L 191.202797 -2.470909 
L 190.452394 -2.470909 
L 189.70199 -2.470909 
L 188.951587 -2.470909 
L 188.201183 -2.470909 
L 187.45078 -2.470909 
L 186.700377 -2.470909 
L 185.949973 -2.470909 
z
" style="stroke: #116dc2; stroke-opacity: 0.2"/>
    </defs>
    <g clip-path="url(#pf8c25711d2)">
     <use xlink:href="#m18863a4a18" x="0" y="54.36" style="fill: #116dc2; fill-opacity: 0.2; stroke: #116dc2; stroke-opacity: 0.2"/>
    </g>
   </g>
   <g id="PolyCollection_3">
    <defs>
     <path id="m35f4fd29a3" d="M 25.363636 -2.470909 
L 25.363636 -4.529339 
L 26.11404 -4.893508 
L 26.864443 -5.412903 
L 27.614847 -6.132904 
L 28.36525 -7.039354 
L 29.115654 -8.063946 
L 29.866057 -9.129368 
L 30.61646 -10.199709 
L 31.366864 -11.284964 
L 32.117267 -12.409848 
L 32.867671 -13.602915 
L 33.618074 -14.908239 
L 34.368478 -16.393358 
L 35.118881 -18.152542 
L 35.869285 -20.275178 
L 36.619688 -22.767401 
L 37.370091 -25.524483 
L 38.120495 -28.402795 
L 38.870898 -31.272142 
L 39.621302 -33.986052 
L 40.371705 -36.391302 
L 41.122109 -38.428448 
L 41.872512 -40.17458 
L 42.622916 -41.75739 
L 43.373319 -43.286867 
L 44.123722 -44.865686 
L 44.874126 -46.549145 
L 45.624529 -48.2564 
L 46.374933 -49.789894 
L 47.125336 -50.957294 
L 47.87574 -51.656192 
L 48.626143 -51.889091 
L 49.376547 -51.742815 
L 50.12695 -51.323295 
L 50.877353 -50.668254 
L 51.627757 -49.726372 
L 52.37816 -48.431193 
L 53.128564 -46.778799 
L 53.878967 -44.827196 
L 54.629371 -42.6595 
L 55.379774 -40.387194 
L 56.130178 -38.15195 
L 56.880581 -36.054565 
L 57.630984 -34.08805 
L 58.381388 -32.175066 
L 59.131791 -30.242815 
L 59.882195 -28.242453 
L 60.632598 -26.146936 
L 61.383002 -23.967025 
L 62.133405 -21.758803 
L 62.883808 -19.603076 
L 63.634212 -17.559218 
L 64.384615 -15.631815 
L 65.135019 -13.810068 
L 65.885422 -12.141072 
L 66.635826 -10.725156 
L 67.386229 -9.632108 
L 68.136633 -8.839056 
L 68.887036 -8.233578 
L 69.637439 -7.659822 
L 70.387843 -6.996461 
L 71.138246 -6.234634 
L 71.88865 -5.473948 
L 72.639053 -4.818989 
L 72.639053 -2.470909 
L 72.639053 -2.470909 
L 71.88865 -2.470909 
L 71.138246 -2.470909 
L 70.387843 -2.470909 
L 69.637439 -2.470909 
L 68.887036 -2.470909 
L 68.136633 -2.470909 
L 67.386229 -2.470909 
L 66.635826 -2.470909 
L 65.885422 -2.470909 
L 65.135019 -2.470909 
L 64.384615 -2.470909 
L 63.634212 -2.470909 
L 62.883808 -2.470909 
L 62.133405 -2.470909 
L 61.383002 -2.470909 
L 60.632598 -2.470909 
L 59.882195 -2.470909 
L 59.131791 -2.470909 
L 58.381388 -2.470909 
L 57.630984 -2.470909 
L 56.880581 -2.470909 
L 56.130178 -2.470909 
L 55.379774 -2.470909 
L 54.629371 -2.470909 
L 53.878967 -2.470909 
L 53.128564 -2.470909 
L 52.37816 -2.470909 
L 51.627757 -2.470909 
L 50.877353 -2.470909 
L 50.12695 -2.470909 
L 49.376547 -2.470909 
L 48.626143 -2.470909 
L 47.87574 -2.470909 
L 47.125336 -2.470909 
L 46.374933 -2.470909 
L 45.624529 -2.470909 
L 44.874126 -2.470909 
L 44.123722 -2.470909 
L 43.373319 -2.470909 
L 42.622916 -2.470909 
L 41.872512 -2.470909 
L 41.122109 -2.470909 
L 40.371705 -2.470909 
L 39.621302 -2.470909 
L 38.870898 -2.470909 
L 38.120495 -2.470909 
L 37.370091 -2.470909 
L 36.619688 -2.470909 
L 35.869285 -2.470909 
L 35.118881 -2.470909 
L 34.368478 -2.470909 
L 33.618074 -2.470909 
L 32.867671 -2.470909 
L 32.117267 -2.470909 
L 31.366864 -2.470909 
L 30.61646 -2.470909 
L 29.866057 -2.470909 
L 29.115654 -2.470909 
L 28.36525 -2.470909 
L 27.614847 -2.470909 
L 26.864443 -2.470909 
L 26.11404 -2.470909 
L 25.363636 -2.470909 
z
" style="stroke: #8a8a8a; stroke-opacity: 0.2"/>
    </defs>
    <g clip-path="url(#pf8c25711d2)">
     <use xlink:href="#m35f4fd29a3" x="0" y="54.36" style="fill: #8a8a8a; fill-opacity: 0.2; stroke: #8a8a8a; stroke-opacity: 0.2"/>
    </g>
   </g>
   <g id="line2d_1">
    <path d="M 354.040344 50.607808 
L 358.542765 50.132018 
L 363.045186 49.441539 
L 367.547606 48.528492 
L 371.299623 47.554408 
L 375.802044 46.119501 
L 380.304465 44.43102 
L 385.557289 42.18114 
L 393.061323 38.936418 
L 398.314147 36.693852 
L 401.315761 35.218039 
L 404.317375 33.502037 
L 406.568585 32.002682 
L 409.570199 29.683218 
L 417.824637 22.841525 
L 420.075847 21.436796 
L 422.327058 20.353393 
L 424.578268 19.520032 
L 429.831092 17.911046 
L 435.83432 16.231248 
L 444.088757 14.120045 
L 446.339968 13.834446 
L 448.591178 13.838095 
L 450.842388 14.125706 
L 453.093599 14.637864 
L 456.095212 15.56111 
L 459.096826 16.695212 
L 462.09844 18.052423 
L 465.100054 19.671557 
L 468.101668 21.552106 
L 471.853685 24.182792 
L 482.359333 31.830902 
L 485.360947 33.658266 
L 489.112964 35.632657 
L 502.620226 42.314968 
L 507.122647 44.599795 
L 510.12426 45.863617 
L 512.375471 46.600892 
L 515.377084 47.330844 
L 529.63475 50.116888 
L 532.636364 50.547106 
L 532.636364 50.547106 
" clip-path="url(#pf8c25711d2)" style="fill: none; stroke: #cf1313; stroke-width: 1.5; stroke-linecap: square"/>
   </g>
   <g id="line2d_2">
    <path d="M 185.949973 50.353446 
L 191.953201 49.607944 
L 197.956428 48.642299 
L 203.959656 47.477935 
L 206.961269 46.687334 
L 209.962883 45.656227 
L 214.465304 43.800778 
L 219.718128 41.692893 
L 224.970952 39.587077 
L 227.972566 38.103679 
L 230.97418 36.337763 
L 233.975793 34.314149 
L 237.727811 31.499181 
L 243.731038 26.944464 
L 246.732652 25.019357 
L 249.734266 23.390329 
L 256.487897 20.122845 
L 260.990317 18.080688 
L 264.742335 16.633127 
L 268.494352 15.420291 
L 271.495966 14.665173 
L 273.747176 14.307442 
L 275.998386 14.180705 
L 278.249597 14.282015 
L 281.25121 14.680575 
L 286.504034 15.688783 
L 292.507262 16.996086 
L 295.508876 17.858929 
L 297.760086 18.710255 
L 300.011296 19.767129 
L 303.01291 21.42881 
L 314.268962 28.120867 
L 317.270576 30.307985 
L 324.024207 35.392009 
L 327.02582 37.333741 
L 330.027434 39.03123 
L 333.779451 40.874862 
L 337.531469 42.484315 
L 342.033889 44.164957 
L 347.286713 45.853042 
L 351.038731 46.855925 
L 354.790748 47.637448 
L 363.045186 49.244761 
L 368.29801 50.321459 
L 369.798817 50.536721 
L 369.798817 50.536721 
" clip-path="url(#pf8c25711d2)" style="fill: none; stroke: #116dc2; stroke-width: 1.5; stroke-linecap: square"/>
   </g>
   <g id="line2d_3">
    <path d="M 25.363636 49.830661 
L 26.11404 49.466492 
L 26.864443 48.947097 
L 27.614847 48.227096 
L 28.36525 47.320646 
L 29.115654 46.296054 
L 29.866057 45.230632 
L 30.61646 44.160291 
L 31.366864 43.075036 
L 32.117267 41.950152 
L 32.867671 40.757085 
L 33.618074 39.451761 
L 34.368478 37.966642 
L 35.118881 36.207458 
L 35.869285 34.084822 
L 36.619688 31.592599 
L 37.370091 28.835517 
L 38.120495 25.957205 
L 38.870898 23.087858 
L 39.621302 20.373948 
L 40.371705 17.968698 
L 41.122109 15.931552 
L 41.872512 14.18542 
L 42.622916 12.60261 
L 43.373319 11.073133 
L 44.123722 9.494314 
L 44.874126 7.810855 
L 45.624529 6.1036 
L 46.374933 4.570106 
L 47.125336 3.402706 
L 47.87574 2.703808 
L 48.626143 2.470909 
L 49.376547 2.617185 
L 50.12695 3.036705 
L 50.877353 3.691746 
L 51.627757 4.633628 
L 52.37816 5.928807 
L 53.128564 7.581201 
L 53.878967 9.532804 
L 54.629371 11.7005 
L 55.379774 13.972806 
L 56.130178 16.20805 
L 56.880581 18.305435 
L 57.630984 20.27195 
L 58.381388 22.184934 
L 59.131791 24.117185 
L 59.882195 26.117547 
L 60.632598 28.213064 
L 61.383002 30.392975 
L 62.133405 32.601197 
L 62.883808 34.756924 
L 63.634212 36.800782 
L 64.384615 38.728185 
L 65.135019 40.549932 
L 65.885422 42.218928 
L 66.635826 43.634844 
L 67.386229 44.727892 
L 68.136633 45.520944 
L 68.887036 46.126422 
L 69.637439 46.700178 
L 70.387843 47.363539 
L 71.138246 48.125366 
L 71.88865 48.886052 
L 72.639053 49.541011 
" clip-path="url(#pf8c25711d2)" style="fill: none; stroke: #8a8a8a; stroke-width: 1.5; stroke-linecap: square"/>
   </g>
  </g>
 </g>
 <defs>
  <clipPath id="pf8c25711d2">
   <rect x="0" y="-0" width="558" height="54.36"/>
  </clipPath>
 </defs>
</svg>
