<?xml version="1.0" encoding="utf-8" standalone="no"?>
<!DOCTYPE svg PUBLIC "-//W3C//DTD SVG 1.1//EN"
  "http://www.w3.org/Graphics/SVG/1.1/DTD/svg11.dtd">
<svg xmlns:xlink="http://www.w3.org/1999/xlink" width="558pt" height="54.36pt" viewBox="0 0 558 54.36" xmlns="http://www.w3.org/2000/svg" version="1.1">
 <metadata>
  <rdf:RDF xmlns:dc="http://purl.org/dc/elements/1.1/" xmlns:cc="http://creativecommons.org/ns#" xmlns:rdf="http://www.w3.org/1999/02/22-rdf-syntax-ns#">
   <cc:Work>
    <dc:type rdf:resource="http://purl.org/dc/dcmitype/StillImage"/>
    <dc:date>2024-09-14T12:46:57.069388</dc:date>
    <dc:format>image/svg+xml</dc:format>
    <dc:creator>
     <cc:Agent>
      <dc:title>Matplotlib v3.5.2, https://matplotlib.org/</dc:title>
     </cc:Agent>
    </dc:creator>
   </cc:Work>
  </rdf:RDF>
 </metadata>
 <defs>
  <style type="text/css">*{stroke-linejoin: round; stroke-linecap: butt}</style>
 </defs>
 <g id="figure_1">
  <g id="patch_1">
   <path d="M 0 54.36 
L 558 54.36 
L 558 0 
L 0 0 
L 0 54.36 
z
" style="fill: none; opacity: 0"/>
  </g>
  <g id="axes_1">
   <g id="PolyCollection_1">
    <defs>
     <path id="m6bb8cf7108" d="M 357.273537 -2.470909 
L 357.273537 -4.266918 
L 358.026167 -4.340729 
L 358.778797 -4.413519 
L 359.531427 -4.485858 
L 360.284057 -4.558541 
L 361.036687 -4.632563 
L 361.789318 -4.709085 
L 362.541948 -4.789386 
L 363.294578 -4.874818 
L 364.047208 -4.966759 
L 364.799838 -5.066574 
L 365.552468 -5.175572 
L 366.305098 -5.294973 
L 367.057729 -5.425884 
L 367.810359 -5.569261 
L 368.562989 -5.725888 
L 369.315619 -5.896344 
L 370.068249 -6.080972 
L 370.820879 -6.279855 
L 371.57351 -6.492785 
L 372.32614 -6.719254 
L 373.07877 -6.958449 
L 373.8314 -7.209262 
L 374.58403 -7.470328 
L 375.33666 -7.740077 
L 376.089291 -8.016799 
L 376.841921 -8.29874 
L 377.594551 -8.584188 
L 378.347181 -8.87158 
L 379.099811 -9.159591 
L 379.852441 -9.447222 
L 380.605071 -9.733862 
L 381.357702 -10.019328 
L 382.110332 -10.303876 
L 382.862962 -10.58818 
L 383.615592 -10.873287 
L 384.368222 -11.160543 
L 385.120852 -11.451494 
L 385.873483 -11.747792 
L 386.626113 -12.051082 
L 387.378743 -12.362905 
L 388.131373 -12.684622 
L 388.884003 -13.017345 
L 389.636633 -13.361908 
L 390.389264 -13.718854 
L 391.141894 -14.088446 
L 391.894524 -14.470689 
L 392.647154 -14.865367 
L 393.399784 -15.272073 
L 394.152414 -15.690235 
L 394.905045 -16.119132 
L 395.657675 -16.557902 
L 396.410305 -17.005533 
L 397.162935 -17.46086 
L 397.915565 -17.922565 
L 398.668195 -18.389193 
L 399.420825 -18.859189 
L 400.173456 -19.330969 
L 400.926086 -19.80302 
L 401.678716 -20.274023 
L 402.431346 -20.742999 
L 403.183976 -21.20945 
L 403.936606 -21.673478 
L 404.689237 -22.135869 
L 405.441867 -22.598105 
L 406.194497 -23.0623 
L 406.947127 -23.531053 
L 407.699757 -24.007217 
L 408.452387 -24.493605 
L 409.205018 -24.992654 
L 409.957648 -25.506097 
L 410.710278 -26.034667 
L 411.462908 -26.577887 
L 412.215538 -27.133964 
L 412.968168 -27.699817 
L 413.720798 -28.271238 
L 414.473429 -28.84317 
L 415.226059 -29.410073 
L 415.978689 -29.966341 
L 416.731319 -30.506727 
L 417.483949 -31.026719 
L 418.236579 -31.522846 
L 418.98921 -31.992872 
L 419.74184 -32.435884 
L 420.49447 -32.852252 
L 421.2471 -33.243493 
L 421.99973 -33.612055 
L 422.75236 -33.961032 
L 423.504991 -34.293862 
L 424.257621 -34.614011 
L 425.010251 -34.924678 
L 425.762881 -35.228542 
L 426.515511 -35.527557 
L 427.268141 -35.822827 
L 428.020772 -36.114551 
L 428.773402 -36.402059 
L 429.526032 -36.683936 
L 430.278662 -36.958218 
L 431.031292 -37.222647 
L 431.783922 -37.474971 
L 432.536552 -37.713239 
L 433.289183 -37.936069 
L 434.041813 -38.14286 
L 434.794443 -38.333907 
L 435.547073 -38.51041 
L 436.299703 -38.674369 
L 437.052333 -38.828377 
L 437.804964 -38.975327 
L 438.557594 -39.118071 
L 439.310224 -39.259069 
L 440.062854 -39.400058 
L 440.815484 -39.541791 
L 441.568114 -39.683863 
L 442.320745 -39.824644 
L 443.073375 -39.96132 
L 443.826005 -40.09004 
L 444.578635 -40.206149 
L 445.331265 -40.304485 
L 446.083895 -40.379713 
L 446.836525 -40.426663 
L 447.589156 -40.440662 
L 448.341786 -40.417815 
L 449.094416 -40.355237 
L 449.847046 -40.251217 
L 450.599676 -40.1053 
L 451.352306 -39.918302 
L 452.104937 -39.692244 
L 452.857567 -39.430231 
L 453.610197 -39.136269 
L 454.362827 -38.815048 
L 455.115457 -38.471698 
L 455.868087 -38.111537 
L 456.620718 -37.739826 
L 457.373348 -37.361526 
L 458.125978 -36.981101 
L 458.878608 -36.602325 
L 459.631238 -36.228143 
L 460.383868 -35.860557 
L 461.136499 -35.500543 
L 461.889129 -35.148021 
L 462.641759 -34.801857 
L 463.394389 -34.459922 
L 464.147019 -34.119201 
L 464.899649 -33.775967 
L 465.652279 -33.426014 
L 466.40491 -33.064941 
L 467.15754 -32.688478 
L 467.91017 -32.292838 
L 468.6628 -31.875047 
L 469.41543 -31.433242 
L 470.16806 -30.966887 
L 470.920691 -30.476897 
L 471.673321 -29.965628 
L 472.425951 -29.436758 
L 473.178581 -28.895048 
L 473.931211 -28.346005 
L 474.683841 -27.795507 
L 475.436472 -27.249395 
L 476.189102 -26.713103 
L 476.941732 -26.191337 
L 477.694362 -25.687846 
L 478.446992 -25.205281 
L 479.199622 -24.745149 
L 479.952252 -24.307847 
L 480.704883 -23.892759 
L 481.457513 -23.498385 
L 482.210143 -23.122494 
L 482.962773 -22.762279 
L 483.715403 -22.414506 
L 484.468033 -22.075659 
L 485.220664 -21.742077 
L 485.973294 -21.410089 
L 486.725924 -21.076157 
L 487.478554 -20.737007 
L 488.231184 -20.38977 
L 488.983814 -20.032095 
L 489.736445 -19.662254 
L 490.489075 -19.279204 
L 491.241705 -18.882616 
L 491.994335 -18.472861 
L 492.746965 -18.050953 
L 493.499595 -17.61846 
L 494.252226 -17.177392 
L 495.004856 -16.730069 
L 495.757486 -16.278996 
L 496.510116 -15.826735 
L 497.262746 -15.375804 
L 498.015376 -14.928582 
L 498.768006 -14.48725 
L 499.520637 -14.053742 
L 500.273267 -13.629727 
L 501.025897 -13.216596 
L 501.778527 -12.815474 
L 502.531157 -12.427233 
L 503.283787 -12.052516 
L 504.036418 -11.691756 
L 504.789048 -11.345197 
L 505.541678 -11.012902 
L 506.294308 -10.694765 
L 507.046938 -10.390501 
L 507.799568 -10.099637 
L 508.552199 -9.8215 
L 509.304829 -9.555203 
L 510.057459 -9.299644 
L 510.810089 -9.053519 
L 511.562719 -8.815352 
L 512.315349 -8.583551 
L 513.067979 -8.356485 
L 513.82061 -8.132581 
L 514.57324 -7.910434 
L 515.32587 -7.688912 
L 516.0785 -7.467263 
L 516.83113 -7.245183 
L 517.58376 -7.022869 
L 518.336391 -6.801024 
L 519.089021 -6.580817 
L 519.841651 -6.363813 
L 520.594281 -6.151853 
L 521.346911 -5.946923 
L 522.099541 -5.751 
L 522.852172 -5.565898 
L 523.604802 -5.393126 
L 524.357432 -5.233775 
L 525.110062 -5.088424 
L 525.862692 -4.957096 
L 526.615322 -4.839251 
L 527.367953 -4.733819 
L 528.120583 -4.639275 
L 528.873213 -4.553744 
L 529.625843 -4.475131 
L 530.378473 -4.401267 
L 531.131103 -4.33006 
L 531.883733 -4.25963 
L 532.636364 -4.188432 
L 532.636364 -2.470909 
L 532.636364 -2.470909 
L 531.883733 -2.470909 
L 531.131103 -2.470909 
L 530.378473 -2.470909 
L 529.625843 -2.470909 
L 528.873213 -2.470909 
L 528.120583 -2.470909 
L 527.367953 -2.470909 
L 526.615322 -2.470909 
L 525.862692 -2.470909 
L 525.110062 -2.470909 
L 524.357432 -2.470909 
L 523.604802 -2.470909 
L 522.852172 -2.470909 
L 522.099541 -2.470909 
L 521.346911 -2.470909 
L 520.594281 -2.470909 
L 519.841651 -2.470909 
L 519.089021 -2.470909 
L 518.336391 -2.470909 
L 517.58376 -2.470909 
L 516.83113 -2.470909 
L 516.0785 -2.470909 
L 515.32587 -2.470909 
L 514.57324 -2.470909 
L 513.82061 -2.470909 
L 513.067979 -2.470909 
L 512.315349 -2.470909 
L 511.562719 -2.470909 
L 510.810089 -2.470909 
L 510.057459 -2.470909 
L 509.304829 -2.470909 
L 508.552199 -2.470909 
L 507.799568 -2.470909 
L 507.046938 -2.470909 
L 506.294308 -2.470909 
L 505.541678 -2.470909 
L 504.789048 -2.470909 
L 504.036418 -2.470909 
L 503.283787 -2.470909 
L 502.531157 -2.470909 
L 501.778527 -2.470909 
L 501.025897 -2.470909 
L 500.273267 -2.470909 
L 499.520637 -2.470909 
L 498.768006 -2.470909 
L 498.015376 -2.470909 
L 497.262746 -2.470909 
L 496.510116 -2.470909 
L 495.757486 -2.470909 
L 495.004856 -2.470909 
L 494.252226 -2.470909 
L 493.499595 -2.470909 
L 492.746965 -2.470909 
L 491.994335 -2.470909 
L 491.241705 -2.470909 
L 490.489075 -2.470909 
L 489.736445 -2.470909 
L 488.983814 -2.470909 
L 488.231184 -2.470909 
L 487.478554 -2.470909 
L 486.725924 -2.470909 
L 485.973294 -2.470909 
L 485.220664 -2.470909 
L 484.468033 -2.470909 
L 483.715403 -2.470909 
L 482.962773 -2.470909 
L 482.210143 -2.470909 
L 481.457513 -2.470909 
L 480.704883 -2.470909 
L 479.952252 -2.470909 
L 479.199622 -2.470909 
L 478.446992 -2.470909 
L 477.694362 -2.470909 
L 476.941732 -2.470909 
L 476.189102 -2.470909 
L 475.436472 -2.470909 
L 474.683841 -2.470909 
L 473.931211 -2.470909 
L 473.178581 -2.470909 
L 472.425951 -2.470909 
L 471.673321 -2.470909 
L 470.920691 -2.470909 
L 470.16806 -2.470909 
L 469.41543 -2.470909 
L 468.6628 -2.470909 
L 467.91017 -2.470909 
L 467.15754 -2.470909 
L 466.40491 -2.470909 
L 465.652279 -2.470909 
L 464.899649 -2.470909 
L 464.147019 -2.470909 
L 463.394389 -2.470909 
L 462.641759 -2.470909 
L 461.889129 -2.470909 
L 461.136499 -2.470909 
L 460.383868 -2.470909 
L 459.631238 -2.470909 
L 458.878608 -2.470909 
L 458.125978 -2.470909 
L 457.373348 -2.470909 
L 456.620718 -2.470909 
L 455.868087 -2.470909 
L 455.115457 -2.470909 
L 454.362827 -2.470909 
L 453.610197 -2.470909 
L 452.857567 -2.470909 
L 452.104937 -2.470909 
L 451.352306 -2.470909 
L 450.599676 -2.470909 
L 449.847046 -2.470909 
L 449.094416 -2.470909 
L 448.341786 -2.470909 
L 447.589156 -2.470909 
L 446.836525 -2.470909 
L 446.083895 -2.470909 
L 445.331265 -2.470909 
L 444.578635 -2.470909 
L 443.826005 -2.470909 
L 443.073375 -2.470909 
L 442.320745 -2.470909 
L 441.568114 -2.470909 
L 440.815484 -2.470909 
L 440.062854 -2.470909 
L 439.310224 -2.470909 
L 438.557594 -2.470909 
L 437.804964 -2.470909 
L 437.052333 -2.470909 
L 436.299703 -2.470909 
L 435.547073 -2.470909 
L 434.794443 -2.470909 
L 434.041813 -2.470909 
L 433.289183 -2.470909 
L 432.536552 -2.470909 
L 431.783922 -2.470909 
L 431.031292 -2.470909 
L 430.278662 -2.470909 
L 429.526032 -2.470909 
L 428.773402 -2.470909 
L 428.020772 -2.470909 
L 427.268141 -2.470909 
L 426.515511 -2.470909 
L 425.762881 -2.470909 
L 425.010251 -2.470909 
L 424.257621 -2.470909 
L 423.504991 -2.470909 
L 422.75236 -2.470909 
L 421.99973 -2.470909 
L 421.2471 -2.470909 
L 420.49447 -2.470909 
L 419.74184 -2.470909 
L 418.98921 -2.470909 
L 418.236579 -2.470909 
L 417.483949 -2.470909 
L 416.731319 -2.470909 
L 415.978689 -2.470909 
L 415.226059 -2.470909 
L 414.473429 -2.470909 
L 413.720798 -2.470909 
L 412.968168 -2.470909 
L 412.215538 -2.470909 
L 411.462908 -2.470909 
L 410.710278 -2.470909 
L 409.957648 -2.470909 
L 409.205018 -2.470909 
L 408.452387 -2.470909 
L 407.699757 -2.470909 
L 406.947127 -2.470909 
L 406.194497 -2.470909 
L 405.441867 -2.470909 
L 404.689237 -2.470909 
L 403.936606 -2.470909 
L 403.183976 -2.470909 
L 402.431346 -2.470909 
L 401.678716 -2.470909 
L 400.926086 -2.470909 
L 400.173456 -2.470909 
L 399.420825 -2.470909 
L 398.668195 -2.470909 
L 397.915565 -2.470909 
L 397.162935 -2.470909 
L 396.410305 -2.470909 
L 395.657675 -2.470909 
L 394.905045 -2.470909 
L 394.152414 -2.470909 
L 393.399784 -2.470909 
L 392.647154 -2.470909 
L 391.894524 -2.470909 
L 391.141894 -2.470909 
L 390.389264 -2.470909 
L 389.636633 -2.470909 
L 388.884003 -2.470909 
L 388.131373 -2.470909 
L 387.378743 -2.470909 
L 386.626113 -2.470909 
L 385.873483 -2.470909 
L 385.120852 -2.470909 
L 384.368222 -2.470909 
L 383.615592 -2.470909 
L 382.862962 -2.470909 
L 382.110332 -2.470909 
L 381.357702 -2.470909 
L 380.605071 -2.470909 
L 379.852441 -2.470909 
L 379.099811 -2.470909 
L 378.347181 -2.470909 
L 377.594551 -2.470909 
L 376.841921 -2.470909 
L 376.089291 -2.470909 
L 375.33666 -2.470909 
L 374.58403 -2.470909 
L 373.8314 -2.470909 
L 373.07877 -2.470909 
L 372.32614 -2.470909 
L 371.57351 -2.470909 
L 370.820879 -2.470909 
L 370.068249 -2.470909 
L 369.315619 -2.470909 
L 368.562989 -2.470909 
L 367.810359 -2.470909 
L 367.057729 -2.470909 
L 366.305098 -2.470909 
L 365.552468 -2.470909 
L 364.799838 -2.470909 
L 364.047208 -2.470909 
L 363.294578 -2.470909 
L 362.541948 -2.470909 
L 361.789318 -2.470909 
L 361.036687 -2.470909 
L 360.284057 -2.470909 
L 359.531427 -2.470909 
L 358.778797 -2.470909 
L 358.026167 -2.470909 
L 357.273537 -2.470909 
z
" style="stroke: #cf1313; stroke-opacity: 0.2"/>
    </defs>
    <g clip-path="url(#p18e2aea742)">
     <use xlink:href="#m6bb8cf7108" x="0" y="54.36" style="fill: #cf1313; fill-opacity: 0.2; stroke: #cf1313; stroke-opacity: 0.2"/>
    </g>
   </g>
   <g id="PolyCollection_2">
    <defs>
     <path id="mf84ceb12f1" d="M 192.447532 -2.470909 
L 192.447532 -4.284811 
L 193.200162 -4.381349 
L 193.952792 -4.479518 
L 194.705422 -4.579164 
L 195.458052 -4.680226 
L 196.210682 -4.782753 
L 196.963313 -4.886926 
L 197.715943 -4.993055 
L 198.468573 -5.101582 
L 199.221203 -5.213057 
L 199.973833 -5.32811 
L 200.726463 -5.447405 
L 201.479094 -5.571591 
L 202.231724 -5.701248 
L 202.984354 -5.836833 
L 203.736984 -5.978644 
L 204.489614 -6.126798 
L 205.242244 -6.281232 
L 205.994875 -6.441732 
L 206.747505 -6.607991 
L 207.500135 -6.779677 
L 208.252765 -6.956533 
L 209.005395 -7.138457 
L 209.758025 -7.325588 
L 210.510656 -7.518358 
L 211.263286 -7.717521 
L 212.015916 -7.924132 
L 212.768546 -8.139498 
L 213.521176 -8.365086 
L 214.273806 -8.60241 
L 215.026436 -8.85291 
L 215.779067 -9.117833 
L 216.531697 -9.398134 
L 217.284327 -9.694418 
L 218.036957 -10.006909 
L 218.789587 -10.335467 
L 219.542217 -10.679638 
L 220.294848 -11.038724 
L 221.047478 -11.411859 
L 221.800108 -11.798079 
L 222.552738 -12.196371 
L 223.305368 -12.605693 
L 224.057998 -13.024962 
L 224.810629 -13.453021 
L 225.563259 -13.8886 
L 226.315889 -14.330277 
L 227.068519 -14.776461 
L 227.821149 -15.225421 
L 228.573779 -15.675339 
L 229.326409 -16.124423 
L 230.07904 -16.571033 
L 230.83167 -17.013829 
L 231.5843 -17.451911 
L 232.33693 -17.884919 
L 233.08956 -18.313099 
L 233.84219 -18.737292 
L 234.594821 -19.158872 
L 235.347451 -19.579612 
L 236.100081 -20.001514 
L 236.852711 -20.426599 
L 237.605341 -20.856694 
L 238.357971 -21.293233 
L 239.110602 -21.737088 
L 239.863232 -22.188451 
L 240.615862 -22.646772 
L 241.368492 -23.11077 
L 242.121122 -23.578503 
L 242.873752 -24.047512 
L 243.626383 -24.515015 
L 244.379013 -24.978144 
L 245.131643 -25.43421 
L 245.884273 -25.880966 
L 246.636903 -26.316856 
L 247.389533 -26.74121 
L 248.142163 -27.15438 
L 248.894794 -27.557779 
L 249.647424 -27.953832 
L 250.400054 -28.345827 
L 251.152684 -28.737676 
L 251.905314 -29.133612 
L 252.657944 -29.537838 
L 253.410575 -29.954174 
L 254.163205 -30.385722 
L 254.915835 -30.834586 
L 255.668465 -31.301683 
L 256.421095 -31.786634 
L 257.173725 -32.287776 
L 257.926356 -32.802263 
L 258.678986 -33.326259 
L 259.431616 -33.855185 
L 260.184246 -34.384018 
L 260.936876 -34.907578 
L 261.689506 -35.420809 
L 262.442136 -35.919001 
L 263.194767 -36.397963 
L 263.947397 -36.854116 
L 264.700027 -37.284531 
L 265.452657 -37.686905 
L 266.205287 -38.059501 
L 266.957917 -38.401081 
L 267.710548 -38.710825 
L 268.463178 -38.98829 
L 269.215808 -39.23338 
L 269.968438 -39.446353 
L 270.721068 -39.627847 
L 271.473698 -39.778916 
L 272.226329 -39.901061 
L 272.978959 -39.996237 
L 273.731589 -40.066842 
L 274.484219 -40.115663 
L 275.236849 -40.145795 
L 275.989479 -40.160537 
L 276.74211 -40.16327 
L 277.49474 -40.157333 
L 278.24737 -40.145893 
L 279 -40.13183 
L 279.75263 -40.117623 
L 280.50526 -40.10524 
L 281.25789 -40.096044 
L 282.010521 -40.090704 
L 282.763151 -40.089118 
L 283.515781 -40.090371 
L 284.268411 -40.092713 
L 285.021041 -40.0936 
L 285.773671 -40.089776 
L 286.526302 -40.077419 
L 287.278932 -40.052339 
L 288.031562 -40.010221 
L 288.784192 -39.946889 
L 289.536822 -39.858579 
L 290.289452 -39.74219 
L 291.042083 -39.595496 
L 291.794713 -39.417294 
L 292.547343 -39.207476 
L 293.299973 -38.967026 
L 294.052603 -38.697933 
L 294.805233 -38.403028 
L 295.557864 -38.085773 
L 296.310494 -37.749995 
L 297.063124 -37.39962 
L 297.815754 -37.038394 
L 298.568384 -36.669642 
L 299.321014 -36.296067 
L 300.073644 -35.919607 
L 300.826275 -35.541366 
L 301.578905 -35.161615 
L 302.331535 -34.779854 
L 303.084165 -34.394942 
L 303.836795 -34.005267 
L 304.589425 -33.608942 
L 305.342056 -33.204009 
L 306.094686 -32.788632 
L 306.847316 -32.361265 
L 307.599946 -31.920778 
L 308.352576 -31.466541 
L 309.105206 -30.998465 
L 309.857837 -30.51699 
L 310.610467 -30.023053 
L 311.363097 -29.518013 
L 312.115727 -29.003575 
L 312.868357 -28.481697 
L 313.620987 -27.954503 
L 314.373617 -27.424196 
L 315.126248 -26.892982 
L 315.878878 -26.362996 
L 316.631508 -25.836239 
L 317.384138 -25.314512 
L 318.136768 -24.799359 
L 318.889398 -24.292011 
L 319.642029 -23.793342 
L 320.394659 -23.303827 
L 321.147289 -22.823521 
L 321.899919 -22.352057 
L 322.652549 -21.888657 
L 323.405179 -21.432174 
L 324.15781 -20.981159 
L 324.91044 -20.533936 
L 325.66307 -20.08871 
L 326.4157 -19.643679 
L 327.16833 -19.197149 
L 327.92096 -18.74766 
L 328.673591 -18.2941 
L 329.426221 -17.835802 
L 330.178851 -17.372628 
L 330.931481 -16.905021 
L 331.684111 -16.434029 
L 332.436741 -15.961285 
L 333.189371 -15.488959 
L 333.942002 -15.019654 
L 334.694632 -14.556284 
L 335.447262 -14.10191 
L 336.199892 -13.659568 
L 336.952522 -13.232083 
L 337.705152 -12.821904 
L 338.457783 -12.430951 
L 339.210413 -12.060503 
L 339.963043 -11.711124 
L 340.715673 -11.382646 
L 341.468303 -11.074191 
L 342.220933 -10.78424 
L 342.973564 -10.51074 
L 343.726194 -10.251241 
L 344.478824 -10.003048 
L 345.231454 -9.763388 
L 345.984084 -9.52957 
L 346.736714 -9.29914 
L 347.489344 -9.070016 
L 348.241975 -8.8406 
L 348.994605 -8.609851 
L 349.747235 -8.377329 
L 350.499865 -8.143188 
L 351.252495 -7.908131 
L 352.005125 -7.673325 
L 352.757756 -7.440279 
L 353.510386 -7.210699 
L 354.263016 -6.986336 
L 355.015646 -6.768832 
L 355.768276 -6.559591 
L 356.520906 -6.359682 
L 357.273537 -6.169777 
L 358.026167 -5.990146 
L 358.778797 -5.820681 
L 359.531427 -5.660969 
L 360.284057 -5.510382 
L 361.036687 -5.368175 
L 361.789318 -5.233589 
L 362.541948 -5.105924 
L 363.294578 -4.984594 
L 364.047208 -4.869145 
L 364.799838 -4.759244 
L 365.552468 -4.654645 
L 366.305098 -4.555132 
L 367.057729 -4.460467 
L 367.810359 -4.370339 
L 368.562989 -4.284331 
L 369.315619 -4.201911 
L 370.068249 -4.12245 
L 370.820879 -4.045258 
L 370.820879 -2.470909 
L 370.820879 -2.470909 
L 370.068249 -2.470909 
L 369.315619 -2.470909 
L 368.562989 -2.470909 
L 367.810359 -2.470909 
L 367.057729 -2.470909 
L 366.305098 -2.470909 
L 365.552468 -2.470909 
L 364.799838 -2.470909 
L 364.047208 -2.470909 
L 363.294578 -2.470909 
L 362.541948 -2.470909 
L 361.789318 -2.470909 
L 361.036687 -2.470909 
L 360.284057 -2.470909 
L 359.531427 -2.470909 
L 358.778797 -2.470909 
L 358.026167 -2.470909 
L 357.273537 -2.470909 
L 356.520906 -2.470909 
L 355.768276 -2.470909 
L 355.015646 -2.470909 
L 354.263016 -2.470909 
L 353.510386 -2.470909 
L 352.757756 -2.470909 
L 352.005125 -2.470909 
L 351.252495 -2.470909 
L 350.499865 -2.470909 
L 349.747235 -2.470909 
L 348.994605 -2.470909 
L 348.241975 -2.470909 
L 347.489344 -2.470909 
L 346.736714 -2.470909 
L 345.984084 -2.470909 
L 345.231454 -2.470909 
L 344.478824 -2.470909 
L 343.726194 -2.470909 
L 342.973564 -2.470909 
L 342.220933 -2.470909 
L 341.468303 -2.470909 
L 340.715673 -2.470909 
L 339.963043 -2.470909 
L 339.210413 -2.470909 
L 338.457783 -2.470909 
L 337.705152 -2.470909 
L 336.952522 -2.470909 
L 336.199892 -2.470909 
L 335.447262 -2.470909 
L 334.694632 -2.470909 
L 333.942002 -2.470909 
L 333.189371 -2.470909 
L 332.436741 -2.470909 
L 331.684111 -2.470909 
L 330.931481 -2.470909 
L 330.178851 -2.470909 
L 329.426221 -2.470909 
L 328.673591 -2.470909 
L 327.92096 -2.470909 
L 327.16833 -2.470909 
L 326.4157 -2.470909 
L 325.66307 -2.470909 
L 324.91044 -2.470909 
L 324.15781 -2.470909 
L 323.405179 -2.470909 
L 322.652549 -2.470909 
L 321.899919 -2.470909 
L 321.147289 -2.470909 
L 320.394659 -2.470909 
L 319.642029 -2.470909 
L 318.889398 -2.470909 
L 318.136768 -2.470909 
L 317.384138 -2.470909 
L 316.631508 -2.470909 
L 315.878878 -2.470909 
L 315.126248 -2.470909 
L 314.373617 -2.470909 
L 313.620987 -2.470909 
L 312.868357 -2.470909 
L 312.115727 -2.470909 
L 311.363097 -2.470909 
L 310.610467 -2.470909 
L 309.857837 -2.470909 
L 309.105206 -2.470909 
L 308.352576 -2.470909 
L 307.599946 -2.470909 
L 306.847316 -2.470909 
L 306.094686 -2.470909 
L 305.342056 -2.470909 
L 304.589425 -2.470909 
L 303.836795 -2.470909 
L 303.084165 -2.470909 
L 302.331535 -2.470909 
L 301.578905 -2.470909 
L 300.826275 -2.470909 
L 300.073644 -2.470909 
L 299.321014 -2.470909 
L 298.568384 -2.470909 
L 297.815754 -2.470909 
L 297.063124 -2.470909 
L 296.310494 -2.470909 
L 295.557864 -2.470909 
L 294.805233 -2.470909 
L 294.052603 -2.470909 
L 293.299973 -2.470909 
L 292.547343 -2.470909 
L 291.794713 -2.470909 
L 291.042083 -2.470909 
L 290.289452 -2.470909 
L 289.536822 -2.470909 
L 288.784192 -2.470909 
L 288.031562 -2.470909 
L 287.278932 -2.470909 
L 286.526302 -2.470909 
L 285.773671 -2.470909 
L 285.021041 -2.470909 
L 284.268411 -2.470909 
L 283.515781 -2.470909 
L 282.763151 -2.470909 
L 282.010521 -2.470909 
L 281.25789 -2.470909 
L 280.50526 -2.470909 
L 279.75263 -2.470909 
L 279 -2.470909 
L 278.24737 -2.470909 
L 277.49474 -2.470909 
L 276.74211 -2.470909 
L 275.989479 -2.470909 
L 275.236849 -2.470909 
L 274.484219 -2.470909 
L 273.731589 -2.470909 
L 272.978959 -2.470909 
L 272.226329 -2.470909 
L 271.473698 -2.470909 
L 270.721068 -2.470909 
L 269.968438 -2.470909 
L 269.215808 -2.470909 
L 268.463178 -2.470909 
L 267.710548 -2.470909 
L 266.957917 -2.470909 
L 266.205287 -2.470909 
L 265.452657 -2.470909 
L 264.700027 -2.470909 
L 263.947397 -2.470909 
L 263.194767 -2.470909 
L 262.442136 -2.470909 
L 261.689506 -2.470909 
L 260.936876 -2.470909 
L 260.184246 -2.470909 
L 259.431616 -2.470909 
L 258.678986 -2.470909 
L 257.926356 -2.470909 
L 257.173725 -2.470909 
L 256.421095 -2.470909 
L 255.668465 -2.470909 
L 254.915835 -2.470909 
L 254.163205 -2.470909 
L 253.410575 -2.470909 
L 252.657944 -2.470909 
L 251.905314 -2.470909 
L 251.152684 -2.470909 
L 250.400054 -2.470909 
L 249.647424 -2.470909 
L 248.894794 -2.470909 
L 248.142163 -2.470909 
L 247.389533 -2.470909 
L 246.636903 -2.470909 
L 245.884273 -2.470909 
L 245.131643 -2.470909 
L 244.379013 -2.470909 
L 243.626383 -2.470909 
L 242.873752 -2.470909 
L 242.121122 -2.470909 
L 241.368492 -2.470909 
L 240.615862 -2.470909 
L 239.863232 -2.470909 
L 239.110602 -2.470909 
L 238.357971 -2.470909 
L 237.605341 -2.470909 
L 236.852711 -2.470909 
L 236.100081 -2.470909 
L 235.347451 -2.470909 
L 234.594821 -2.470909 
L 233.84219 -2.470909 
L 233.08956 -2.470909 
L 232.33693 -2.470909 
L 231.5843 -2.470909 
L 230.83167 -2.470909 
L 230.07904 -2.470909 
L 229.326409 -2.470909 
L 228.573779 -2.470909 
L 227.821149 -2.470909 
L 227.068519 -2.470909 
L 226.315889 -2.470909 
L 225.563259 -2.470909 
L 224.810629 -2.470909 
L 224.057998 -2.470909 
L 223.305368 -2.470909 
L 222.552738 -2.470909 
L 221.800108 -2.470909 
L 221.047478 -2.470909 
L 220.294848 -2.470909 
L 219.542217 -2.470909 
L 218.789587 -2.470909 
L 218.036957 -2.470909 
L 217.284327 -2.470909 
L 216.531697 -2.470909 
L 215.779067 -2.470909 
L 215.026436 -2.470909 
L 214.273806 -2.470909 
L 213.521176 -2.470909 
L 212.768546 -2.470909 
L 212.015916 -2.470909 
L 211.263286 -2.470909 
L 210.510656 -2.470909 
L 209.758025 -2.470909 
L 209.005395 -2.470909 
L 208.252765 -2.470909 
L 207.500135 -2.470909 
L 206.747505 -2.470909 
L 205.994875 -2.470909 
L 205.242244 -2.470909 
L 204.489614 -2.470909 
L 203.736984 -2.470909 
L 202.984354 -2.470909 
L 202.231724 -2.470909 
L 201.479094 -2.470909 
L 200.726463 -2.470909 
L 199.973833 -2.470909 
L 199.221203 -2.470909 
L 198.468573 -2.470909 
L 197.715943 -2.470909 
L 196.963313 -2.470909 
L 196.210682 -2.470909 
L 195.458052 -2.470909 
L 194.705422 -2.470909 
L 193.952792 -2.470909 
L 193.200162 -2.470909 
L 192.447532 -2.470909 
z
" style="stroke: #116dc2; stroke-opacity: 0.2"/>
    </defs>
    <g clip-path="url(#p18e2aea742)">
     <use xlink:href="#mf84ceb12f1" x="0" y="54.36" style="fill: #116dc2; fill-opacity: 0.2; stroke: #116dc2; stroke-opacity: 0.2"/>
    </g>
   </g>
   <g id="PolyCollection_3">
    <defs>
     <path id="m6449073967" d="M 25.363636 -2.470909 
L 25.363636 -4.739265 
L 26.116267 -5.057521 
L 26.868897 -5.45958 
L 27.621527 -5.997298 
L 28.374157 -6.706752 
L 29.126787 -7.601371 
L 29.879417 -8.652904 
L 30.632047 -9.799714 
L 31.384678 -10.997605 
L 32.137308 -12.257838 
L 32.889938 -13.645322 
L 33.642568 -15.256848 
L 34.395198 -17.159335 
L 35.147828 -19.300306 
L 35.900459 -21.509093 
L 36.653089 -23.626662 
L 37.405719 -25.624605 
L 38.158349 -27.60387 
L 38.910979 -29.697328 
L 39.663609 -31.950257 
L 40.41624 -34.285424 
L 41.16887 -36.60379 
L 41.9215 -38.881466 
L 42.67413 -41.115361 
L 43.42676 -43.225009 
L 44.17939 -45.097047 
L 44.932021 -46.704521 
L 45.684651 -48.103011 
L 46.437281 -49.326721 
L 47.189911 -50.354917 
L 47.942541 -51.154208 
L 48.695171 -51.685722 
L 49.447801 -51.889091 
L 50.200432 -51.725017 
L 50.953062 -51.222964 
L 51.705692 -50.417743 
L 52.458322 -49.251167 
L 53.210952 -47.620945 
L 53.963582 -45.522562 
L 54.716213 -43.081171 
L 55.468843 -40.478692 
L 56.221473 -37.897158 
L 56.974103 -35.472301 
L 57.726733 -33.245179 
L 58.479363 -31.167945 
L 59.231994 -29.152557 
L 59.984624 -27.111174 
L 60.737254 -24.979688 
L 61.489884 -22.729214 
L 62.242514 -20.388144 
L 62.995144 -18.077121 
L 63.747774 -15.98051 
L 64.500405 -14.235826 
L 65.253035 -12.857436 
L 66.005665 -11.754547 
L 66.758295 -10.786402 
L 67.510925 -9.83054 
L 68.263555 -8.854907 
L 69.016186 -7.919062 
L 69.768816 -7.088471 
L 70.521446 -6.371847 
L 71.274076 -5.746641 
L 72.026706 -5.204437 
L 72.779336 -4.750417 
L 72.779336 -2.470909 
L 72.779336 -2.470909 
L 72.026706 -2.470909 
L 71.274076 -2.470909 
L 70.521446 -2.470909 
L 69.768816 -2.470909 
L 69.016186 -2.470909 
L 68.263555 -2.470909 
L 67.510925 -2.470909 
L 66.758295 -2.470909 
L 66.005665 -2.470909 
L 65.253035 -2.470909 
L 64.500405 -2.470909 
L 63.747774 -2.470909 
L 62.995144 -2.470909 
L 62.242514 -2.470909 
L 61.489884 -2.470909 
L 60.737254 -2.470909 
L 59.984624 -2.470909 
L 59.231994 -2.470909 
L 58.479363 -2.470909 
L 57.726733 -2.470909 
L 56.974103 -2.470909 
L 56.221473 -2.470909 
L 55.468843 -2.470909 
L 54.716213 -2.470909 
L 53.963582 -2.470909 
L 53.210952 -2.470909 
L 52.458322 -2.470909 
L 51.705692 -2.470909 
L 50.953062 -2.470909 
L 50.200432 -2.470909 
L 49.447801 -2.470909 
L 48.695171 -2.470909 
L 47.942541 -2.470909 
L 47.189911 -2.470909 
L 46.437281 -2.470909 
L 45.684651 -2.470909 
L 44.932021 -2.470909 
L 44.17939 -2.470909 
L 43.42676 -2.470909 
L 42.67413 -2.470909 
L 41.9215 -2.470909 
L 41.16887 -2.470909 
L 40.41624 -2.470909 
L 39.663609 -2.470909 
L 38.910979 -2.470909 
L 38.158349 -2.470909 
L 37.405719 -2.470909 
L 36.653089 -2.470909 
L 35.900459 -2.470909 
L 35.147828 -2.470909 
L 34.395198 -2.470909 
L 33.642568 -2.470909 
L 32.889938 -2.470909 
L 32.137308 -2.470909 
L 31.384678 -2.470909 
L 30.632047 -2.470909 
L 29.879417 -2.470909 
L 29.126787 -2.470909 
L 28.374157 -2.470909 
L 27.621527 -2.470909 
L 26.868897 -2.470909 
L 26.116267 -2.470909 
L 25.363636 -2.470909 
z
" style="stroke: #8a8a8a; stroke-opacity: 0.2"/>
    </defs>
    <g clip-path="url(#p18e2aea742)">
     <use xlink:href="#m6449073967" x="0" y="54.36" style="fill: #8a8a8a; fill-opacity: 0.2; stroke: #8a8a8a; stroke-opacity: 0.2"/>
    </g>
   </g>
   <g id="line2d_1">
    <path d="M 357.273537 50.093082 
L 365.552468 49.184428 
L 368.562989 48.634112 
L 371.57351 47.867215 
L 375.33666 46.619923 
L 385.120852 42.908506 
L 388.884003 41.342655 
L 391.894524 39.889311 
L 395.657675 37.802098 
L 400.926086 34.55698 
L 410.710278 28.325333 
L 419.74184 21.924116 
L 421.99973 20.747945 
L 425.010251 19.435322 
L 430.278662 17.401782 
L 433.289183 16.423931 
L 436.299703 15.685631 
L 443.073375 14.39868 
L 446.083895 13.980287 
L 448.341786 13.942185 
L 449.847046 14.108783 
L 451.352306 14.441698 
L 453.610197 15.223731 
L 456.620718 16.620174 
L 462.641759 19.558143 
L 467.91017 22.067162 
L 470.16806 23.393113 
L 473.178581 25.464952 
L 477.694362 28.672154 
L 479.952252 30.052153 
L 482.962773 31.597721 
L 491.994335 35.887139 
L 496.510116 38.533265 
L 501.025897 41.143404 
L 504.036418 42.668244 
L 507.046938 43.969499 
L 510.810089 45.306481 
L 517.58376 47.337131 
L 522.852172 48.794102 
L 525.862692 49.402904 
L 529.625843 49.884869 
L 532.636364 50.171568 
L 532.636364 50.171568 
" clip-path="url(#p18e2aea742)" style="fill: none; stroke: #cf1313; stroke-width: 1.5; stroke-linecap: square"/>
   </g>
   <g id="line2d_2">
    <path d="M 192.447532 50.075189 
L 200.726463 48.912595 
L 205.242244 48.078768 
L 209.758025 47.034412 
L 213.521176 45.994914 
L 216.531697 44.961866 
L 219.542217 43.680362 
L 222.552738 42.163629 
L 227.068519 39.583539 
L 234.594821 35.201128 
L 240.615862 31.713228 
L 247.389533 27.61879 
L 256.421095 22.573366 
L 265.452657 16.673095 
L 267.710548 15.649175 
L 269.968438 14.913647 
L 272.226329 14.458939 
L 274.484219 14.244337 
L 277.49474 14.202667 
L 288.784192 14.413111 
L 291.042083 14.764504 
L 293.299973 15.392974 
L 295.557864 16.274227 
L 299.321014 18.063933 
L 306.094686 21.571368 
L 309.105206 23.361535 
L 312.868357 25.878303 
L 320.394659 31.056173 
L 324.91044 33.826064 
L 332.436741 38.398715 
L 336.952522 41.127917 
L 339.963043 42.648876 
L 342.973564 43.84926 
L 347.489344 45.289984 
L 357.273537 48.190223 
L 361.036687 48.991825 
L 365.552468 49.705355 
L 370.820879 50.314742 
L 370.820879 50.314742 
" clip-path="url(#p18e2aea742)" style="fill: none; stroke: #116dc2; stroke-width: 1.5; stroke-linecap: square"/>
   </g>
   <g id="line2d_3">
    <path d="M 25.363636 49.620735 
L 26.116267 49.302479 
L 26.868897 48.90042 
L 27.621527 48.362702 
L 28.374157 47.653248 
L 29.126787 46.758629 
L 29.879417 45.707096 
L 30.632047 44.560286 
L 31.384678 43.362395 
L 32.137308 42.102162 
L 32.889938 40.714678 
L 33.642568 39.103152 
L 34.395198 37.200665 
L 35.147828 35.059694 
L 35.900459 32.850907 
L 36.653089 30.733338 
L 37.405719 28.735395 
L 38.158349 26.75613 
L 38.910979 24.662672 
L 39.663609 22.409743 
L 40.41624 20.074576 
L 41.16887 17.75621 
L 41.9215 15.478534 
L 42.67413 13.244639 
L 43.42676 11.134991 
L 44.17939 9.262953 
L 44.932021 7.655479 
L 45.684651 6.256989 
L 46.437281 5.033279 
L 47.189911 4.005083 
L 47.942541 3.205792 
L 48.695171 2.674278 
L 49.447801 2.470909 
L 50.200432 2.634983 
L 50.953062 3.137036 
L 51.705692 3.942257 
L 52.458322 5.108833 
L 53.210952 6.739055 
L 53.963582 8.837438 
L 54.716213 11.278829 
L 55.468843 13.881308 
L 56.221473 16.462842 
L 56.974103 18.887699 
L 57.726733 21.114821 
L 58.479363 23.192055 
L 59.231994 25.207443 
L 59.984624 27.248826 
L 60.737254 29.380312 
L 61.489884 31.630786 
L 62.242514 33.971856 
L 62.995144 36.282879 
L 63.747774 38.37949 
L 64.500405 40.124174 
L 65.253035 41.502564 
L 66.005665 42.605453 
L 66.758295 43.573598 
L 67.510925 44.52946 
L 68.263555 45.505093 
L 69.016186 46.440938 
L 69.768816 47.271529 
L 70.521446 47.988153 
L 71.274076 48.613359 
L 72.026706 49.155563 
L 72.779336 49.609583 
" clip-path="url(#p18e2aea742)" style="fill: none; stroke: #8a8a8a; stroke-width: 1.5; stroke-linecap: square"/>
   </g>
  </g>
 </g>
 <defs>
  <clipPath id="p18e2aea742">
   <rect x="0" y="-0" width="558" height="54.36"/>
  </clipPath>
 </defs>
</svg>
