<?xml version="1.0" encoding="utf-8" standalone="no"?>
<!DOCTYPE svg PUBLIC "-//W3C//DTD SVG 1.1//EN"
  "http://www.w3.org/Graphics/SVG/1.1/DTD/svg11.dtd">
<svg xmlns:xlink="http://www.w3.org/1999/xlink" width="558pt" height="54.36pt" viewBox="0 0 558 54.36" xmlns="http://www.w3.org/2000/svg" version="1.1">
 <metadata>
  <rdf:RDF xmlns:dc="http://purl.org/dc/elements/1.1/" xmlns:cc="http://creativecommons.org/ns#" xmlns:rdf="http://www.w3.org/1999/02/22-rdf-syntax-ns#">
   <cc:Work>
    <dc:type rdf:resource="http://purl.org/dc/dcmitype/StillImage"/>
    <dc:date>2024-09-14T12:47:17.637777</dc:date>
    <dc:format>image/svg+xml</dc:format>
    <dc:creator>
     <cc:Agent>
      <dc:title>Matplotlib v3.5.2, https://matplotlib.org/</dc:title>
     </cc:Agent>
    </dc:creator>
   </cc:Work>
  </rdf:RDF>
 </metadata>
 <defs>
  <style type="text/css">*{stroke-linejoin: round; stroke-linecap: butt}</style>
 </defs>
 <g id="figure_1">
  <g id="patch_1">
   <path d="M 0 54.36 
L 558 54.36 
L 558 0 
L 0 0 
L 0 54.36 
z
" style="fill: none; opacity: 0"/>
  </g>
  <g id="axes_1">
   <g id="PolyCollection_1">
    <defs>
     <path id="m57a6ae2bd3" d="M 395.087413 -2.470909 
L 395.087413 -4.039847 
L 396.062937 -4.152793 
L 397.038462 -4.276893 
L 398.013986 -4.41564 
L 398.98951 -4.571281 
L 399.965035 -4.744468 
L 400.940559 -4.934476 
L 401.916084 -5.139952 
L 402.891608 -5.359944 
L 403.867133 -5.594831 
L 404.842657 -5.846796 
L 405.818182 -6.119606 
L 406.793706 -6.417744 
L 407.769231 -6.745102 
L 408.744755 -7.103655 
L 409.72028 -7.492479 
L 410.695804 -7.907429 
L 411.671329 -8.341599 
L 412.646853 -8.786528 
L 413.622378 -9.233966 
L 414.597902 -9.677853 
L 415.573427 -10.116126 
L 416.548951 -10.551893 
L 417.524476 -10.993646 
L 418.5 -11.454338 
L 419.475524 -11.949404 
L 420.451049 -12.494049 
L 421.426573 -13.100336 
L 422.402098 -13.774632 
L 423.377622 -14.515963 
L 424.353147 -15.315668 
L 425.328671 -16.158535 
L 426.304196 -17.025301 
L 427.27972 -17.896136 
L 428.255245 -18.754382 
L 429.230769 -19.589678 
L 430.206294 -20.399598 
L 431.181818 -21.189274 
L 432.157343 -21.969011 
L 433.132867 -22.750621 
L 434.108392 -23.543645 
L 435.083916 -24.352757 
L 436.059441 -25.177183 
L 437.034965 -26.012203 
L 438.01049 -26.851962 
L 438.986014 -27.692293 
L 439.961538 -28.532312 
L 440.937063 -29.374094 
L 441.912587 -30.220577 
L 442.888112 -31.072588 
L 443.863636 -31.926252 
L 444.839161 -32.771893 
L 445.814685 -33.594984 
L 446.79021 -34.378917 
L 447.765734 -35.108719 
L 448.741259 -35.774508 
L 449.716783 -36.37361 
L 450.692308 -36.910722 
L 451.667832 -37.396166 
L 452.643357 -37.842894 
L 453.618881 -38.263233 
L 454.594406 -38.66636 
L 455.56993 -39.057201 
L 456.545455 -39.436851 
L 457.520979 -39.804117 
L 458.496503 -40.157336 
L 459.472028 -40.495587 
L 460.447552 -40.818695 
L 461.423077 -41.125969 
L 462.398601 -41.414226 
L 463.374126 -41.676062 
L 464.34965 -41.899336 
L 465.325175 -42.068449 
L 466.300699 -42.167226 
L 467.276224 -42.182544 
L 468.251748 -42.107412 
L 469.227273 -41.942329 
L 470.202797 -41.694388 
L 471.178322 -41.374431 
L 472.153846 -40.993324 
L 473.129371 -40.558703 
L 474.104895 -40.073294 
L 475.08042 -39.535307 
L 476.055944 -38.940616 
L 477.031469 -38.285893 
L 478.006993 -37.571591 
L 478.982517 -36.803846 
L 479.958042 -35.994719 
L 480.933566 -35.160744 
L 481.909091 -34.320195 
L 482.884615 -33.489825 
L 483.86014 -32.681937 
L 484.835664 -31.902499 
L 485.811189 -31.150719 
L 486.786713 -30.420068 
L 487.762238 -29.700355 
L 488.737762 -28.980269 
L 489.713287 -28.249742 
L 490.688811 -27.501701 
L 491.664336 -26.733018 
L 492.63986 -25.944701 
L 493.615385 -25.141495 
L 494.590909 -24.331049 
L 495.566434 -23.522732 
L 496.541958 -22.726117 
L 497.517483 -21.949218 
L 498.493007 -21.196724 
L 499.468531 -20.468671 
L 500.444056 -19.760071 
L 501.41958 -19.061874 
L 502.395105 -18.363243 
L 503.370629 -17.654623 
L 504.346154 -16.930672 
L 505.321678 -16.192064 
L 506.297203 -15.445512 
L 507.272727 -14.701963 
L 508.248252 -13.973609 
L 509.223776 -13.270735 
L 510.199301 -12.59946 
L 511.174825 -11.960985 
L 512.15035 -11.352418 
L 513.125874 -10.768689 
L 514.101399 -10.20481 
L 515.076923 -9.65777 
L 516.052448 -9.127583 
L 517.027972 -8.617344 
L 518.003497 -8.132399 
L 518.979021 -7.678938 
L 519.954545 -7.262348 
L 520.93007 -6.885732 
L 521.905594 -6.548933 
L 522.881119 -6.248316 
L 523.856643 -5.977413 
L 524.832168 -5.728277 
L 525.807692 -5.493203 
L 526.783217 -5.266331 
L 527.758741 -5.044661 
L 528.734266 -4.828223 
L 529.70979 -4.619423 
L 530.685315 -4.421837 
L 531.660839 -4.238909 
L 532.636364 -4.072934 
L 532.636364 -2.470909 
L 532.636364 -2.470909 
L 531.660839 -2.470909 
L 530.685315 -2.470909 
L 529.70979 -2.470909 
L 528.734266 -2.470909 
L 527.758741 -2.470909 
L 526.783217 -2.470909 
L 525.807692 -2.470909 
L 524.832168 -2.470909 
L 523.856643 -2.470909 
L 522.881119 -2.470909 
L 521.905594 -2.470909 
L 520.93007 -2.470909 
L 519.954545 -2.470909 
L 518.979021 -2.470909 
L 518.003497 -2.470909 
L 517.027972 -2.470909 
L 516.052448 -2.470909 
L 515.076923 -2.470909 
L 514.101399 -2.470909 
L 513.125874 -2.470909 
L 512.15035 -2.470909 
L 511.174825 -2.470909 
L 510.199301 -2.470909 
L 509.223776 -2.470909 
L 508.248252 -2.470909 
L 507.272727 -2.470909 
L 506.297203 -2.470909 
L 505.321678 -2.470909 
L 504.346154 -2.470909 
L 503.370629 -2.470909 
L 502.395105 -2.470909 
L 501.41958 -2.470909 
L 500.444056 -2.470909 
L 499.468531 -2.470909 
L 498.493007 -2.470909 
L 497.517483 -2.470909 
L 496.541958 -2.470909 
L 495.566434 -2.470909 
L 494.590909 -2.470909 
L 493.615385 -2.470909 
L 492.63986 -2.470909 
L 491.664336 -2.470909 
L 490.688811 -2.470909 
L 489.713287 -2.470909 
L 488.737762 -2.470909 
L 487.762238 -2.470909 
L 486.786713 -2.470909 
L 485.811189 -2.470909 
L 484.835664 -2.470909 
L 483.86014 -2.470909 
L 482.884615 -2.470909 
L 481.909091 -2.470909 
L 480.933566 -2.470909 
L 479.958042 -2.470909 
L 478.982517 -2.470909 
L 478.006993 -2.470909 
L 477.031469 -2.470909 
L 476.055944 -2.470909 
L 475.08042 -2.470909 
L 474.104895 -2.470909 
L 473.129371 -2.470909 
L 472.153846 -2.470909 
L 471.178322 -2.470909 
L 470.202797 -2.470909 
L 469.227273 -2.470909 
L 468.251748 -2.470909 
L 467.276224 -2.470909 
L 466.300699 -2.470909 
L 465.325175 -2.470909 
L 464.34965 -2.470909 
L 463.374126 -2.470909 
L 462.398601 -2.470909 
L 461.423077 -2.470909 
L 460.447552 -2.470909 
L 459.472028 -2.470909 
L 458.496503 -2.470909 
L 457.520979 -2.470909 
L 456.545455 -2.470909 
L 455.56993 -2.470909 
L 454.594406 -2.470909 
L 453.618881 -2.470909 
L 452.643357 -2.470909 
L 451.667832 -2.470909 
L 450.692308 -2.470909 
L 449.716783 -2.470909 
L 448.741259 -2.470909 
L 447.765734 -2.470909 
L 446.79021 -2.470909 
L 445.814685 -2.470909 
L 444.839161 -2.470909 
L 443.863636 -2.470909 
L 442.888112 -2.470909 
L 441.912587 -2.470909 
L 440.937063 -2.470909 
L 439.961538 -2.470909 
L 438.986014 -2.470909 
L 438.01049 -2.470909 
L 437.034965 -2.470909 
L 436.059441 -2.470909 
L 435.083916 -2.470909 
L 434.108392 -2.470909 
L 433.132867 -2.470909 
L 432.157343 -2.470909 
L 431.181818 -2.470909 
L 430.206294 -2.470909 
L 429.230769 -2.470909 
L 428.255245 -2.470909 
L 427.27972 -2.470909 
L 426.304196 -2.470909 
L 425.328671 -2.470909 
L 424.353147 -2.470909 
L 423.377622 -2.470909 
L 422.402098 -2.470909 
L 421.426573 -2.470909 
L 420.451049 -2.470909 
L 419.475524 -2.470909 
L 418.5 -2.470909 
L 417.524476 -2.470909 
L 416.548951 -2.470909 
L 415.573427 -2.470909 
L 414.597902 -2.470909 
L 413.622378 -2.470909 
L 412.646853 -2.470909 
L 411.671329 -2.470909 
L 410.695804 -2.470909 
L 409.72028 -2.470909 
L 408.744755 -2.470909 
L 407.769231 -2.470909 
L 406.793706 -2.470909 
L 405.818182 -2.470909 
L 404.842657 -2.470909 
L 403.867133 -2.470909 
L 402.891608 -2.470909 
L 401.916084 -2.470909 
L 400.940559 -2.470909 
L 399.965035 -2.470909 
L 398.98951 -2.470909 
L 398.013986 -2.470909 
L 397.038462 -2.470909 
L 396.062937 -2.470909 
L 395.087413 -2.470909 
z
" style="stroke: #cf1313; stroke-opacity: 0.2"/>
    </defs>
    <g clip-path="url(#p0b3d99eb90)">
     <use xlink:href="#m57a6ae2bd3" x="0" y="54.36" style="fill: #cf1313; fill-opacity: 0.2; stroke: #cf1313; stroke-opacity: 0.2"/>
    </g>
   </g>
   <g id="PolyCollection_2">
    <defs>
     <path id="m9600ed6532" d="M 388.258741 -2.470909 
L 388.258741 -3.979527 
L 389.234266 -4.102186 
L 390.20979 -4.235499 
L 391.185315 -4.380542 
L 392.160839 -4.536763 
L 393.136364 -4.702065 
L 394.111888 -4.873525 
L 395.087413 -5.048555 
L 396.062937 -5.226168 
L 397.038462 -5.407946 
L 398.013986 -5.598409 
L 398.98951 -5.804669 
L 399.965035 -6.035412 
L 400.940559 -6.299466 
L 401.916084 -6.604278 
L 402.891608 -6.954658 
L 403.867133 -7.352091 
L 404.842657 -7.79472 
L 405.818182 -8.277965 
L 406.793706 -8.795524 
L 407.769231 -9.340498 
L 408.744755 -9.906392 
L 409.72028 -10.487914 
L 410.695804 -11.0816 
L 411.671329 -11.686328 
L 412.646853 -12.303754 
L 413.622378 -12.938542 
L 414.597902 -13.59817 
L 415.573427 -14.292068 
L 416.548951 -15.029988 
L 417.524476 -15.819761 
L 418.5 -16.664954 
L 419.475524 -17.563107 
L 420.451049 -18.505253 
L 421.426573 -19.477092 
L 422.402098 -20.461649 
L 423.377622 -21.442726 
L 424.353147 -22.408116 
L 425.328671 -23.351605 
L 426.304196 -24.273195 
L 427.27972 -25.177548 
L 428.255245 -26.071209 
L 429.230769 -26.959438 
L 430.206294 -27.843517 
L 431.181818 -28.719179 
L 432.157343 -29.576473 
L 433.132867 -30.401103 
L 434.108392 -31.177009 
L 435.083916 -31.889764 
L 436.059441 -32.530161 
L 437.034965 -33.097207 
L 438.01049 -33.599762 
L 438.986014 -34.056192 
L 439.961538 -34.491908 
L 440.937063 -34.935167 
L 441.912587 -35.412026 
L 442.888112 -35.941583 
L 443.863636 -36.53248 
L 444.839161 -37.181326 
L 445.814685 -37.873179 
L 446.79021 -38.583887 
L 447.765734 -39.283809 
L 448.741259 -39.942298 
L 449.716783 -40.532245 
L 450.692308 -41.033932 
L 451.667832 -41.437502 
L 452.643357 -41.743581 
L 453.618881 -41.961907 
L 454.594406 -42.108253 
L 455.56993 -42.200277 
L 456.545455 -42.253147 
L 457.520979 -42.275823 
L 458.496503 -42.268774 
L 459.472028 -42.223633 
L 460.447552 -42.124951 
L 461.423077 -41.953727 
L 462.398601 -41.691982 
L 463.374126 -41.32731 
L 464.34965 -40.856301 
L 465.325175 -40.285995 
L 466.300699 -39.633055 
L 467.276224 -38.920925 
L 468.251748 -38.175794 
L 469.227273 -37.422363 
L 470.202797 -36.680362 
L 471.178322 -35.96242 
L 472.153846 -35.273438 
L 473.129371 -34.611268 
L 474.104895 -33.968259 
L 475.08042 -33.33324 
L 476.055944 -32.693613 
L 477.031469 -32.037339 
L 478.006993 -31.354707 
L 478.982517 -30.63972 
L 479.958042 -29.890881 
L 480.933566 -29.111154 
L 481.909091 -28.306977 
L 482.884615 -27.486463 
L 483.86014 -26.657258 
L 484.835664 -25.824685 
L 485.811189 -24.99079 
L 486.786713 -24.15457 
L 487.762238 -23.313218 
L 488.737762 -22.463833 
L 489.713287 -21.60494 
L 490.688811 -20.737314 
L 491.664336 -19.864047 
L 492.63986 -18.990079 
L 493.615385 -18.121625 
L 494.590909 -17.265731 
L 495.566434 -16.42999 
L 496.541958 -15.622182 
L 497.517483 -14.849602 
L 498.493007 -14.118054 
L 499.468531 -13.430766 
L 500.444056 -12.787661 
L 501.41958 -12.185395 
L 502.395105 -11.618295 
L 503.370629 -11.079968 
L 504.346154 -10.5651 
L 505.321678 -10.070844 
L 506.297203 -9.597396 
L 507.272727 -9.147605 
L 508.248252 -8.725817 
L 509.223776 -8.336317 
L 510.199301 -7.981813 
L 511.174825 -7.662331 
L 512.15035 -7.37474 
L 513.125874 -7.112985 
L 514.101399 -6.868989 
L 515.076923 -6.634039 
L 516.052448 -6.400393 
L 517.027972 -6.162752 
L 518.003497 -5.919211 
L 518.979021 -5.671433 
L 519.954545 -5.423978 
L 520.93007 -5.182993 
L 521.905594 -4.954643 
L 522.881119 -4.743728 
L 523.856643 -4.552807 
L 524.832168 -4.381947 
L 524.832168 -2.470909 
L 524.832168 -2.470909 
L 523.856643 -2.470909 
L 522.881119 -2.470909 
L 521.905594 -2.470909 
L 520.93007 -2.470909 
L 519.954545 -2.470909 
L 518.979021 -2.470909 
L 518.003497 -2.470909 
L 517.027972 -2.470909 
L 516.052448 -2.470909 
L 515.076923 -2.470909 
L 514.101399 -2.470909 
L 513.125874 -2.470909 
L 512.15035 -2.470909 
L 511.174825 -2.470909 
L 510.199301 -2.470909 
L 509.223776 -2.470909 
L 508.248252 -2.470909 
L 507.272727 -2.470909 
L 506.297203 -2.470909 
L 505.321678 -2.470909 
L 504.346154 -2.470909 
L 503.370629 -2.470909 
L 502.395105 -2.470909 
L 501.41958 -2.470909 
L 500.444056 -2.470909 
L 499.468531 -2.470909 
L 498.493007 -2.470909 
L 497.517483 -2.470909 
L 496.541958 -2.470909 
L 495.566434 -2.470909 
L 494.590909 -2.470909 
L 493.615385 -2.470909 
L 492.63986 -2.470909 
L 491.664336 -2.470909 
L 490.688811 -2.470909 
L 489.713287 -2.470909 
L 488.737762 -2.470909 
L 487.762238 -2.470909 
L 486.786713 -2.470909 
L 485.811189 -2.470909 
L 484.835664 -2.470909 
L 483.86014 -2.470909 
L 482.884615 -2.470909 
L 481.909091 -2.470909 
L 480.933566 -2.470909 
L 479.958042 -2.470909 
L 478.982517 -2.470909 
L 478.006993 -2.470909 
L 477.031469 -2.470909 
L 476.055944 -2.470909 
L 475.08042 -2.470909 
L 474.104895 -2.470909 
L 473.129371 -2.470909 
L 472.153846 -2.470909 
L 471.178322 -2.470909 
L 470.202797 -2.470909 
L 469.227273 -2.470909 
L 468.251748 -2.470909 
L 467.276224 -2.470909 
L 466.300699 -2.470909 
L 465.325175 -2.470909 
L 464.34965 -2.470909 
L 463.374126 -2.470909 
L 462.398601 -2.470909 
L 461.423077 -2.470909 
L 460.447552 -2.470909 
L 459.472028 -2.470909 
L 458.496503 -2.470909 
L 457.520979 -2.470909 
L 456.545455 -2.470909 
L 455.56993 -2.470909 
L 454.594406 -2.470909 
L 453.618881 -2.470909 
L 452.643357 -2.470909 
L 451.667832 -2.470909 
L 450.692308 -2.470909 
L 449.716783 -2.470909 
L 448.741259 -2.470909 
L 447.765734 -2.470909 
L 446.79021 -2.470909 
L 445.814685 -2.470909 
L 444.839161 -2.470909 
L 443.863636 -2.470909 
L 442.888112 -2.470909 
L 441.912587 -2.470909 
L 440.937063 -2.470909 
L 439.961538 -2.470909 
L 438.986014 -2.470909 
L 438.01049 -2.470909 
L 437.034965 -2.470909 
L 436.059441 -2.470909 
L 435.083916 -2.470909 
L 434.108392 -2.470909 
L 433.132867 -2.470909 
L 432.157343 -2.470909 
L 431.181818 -2.470909 
L 430.206294 -2.470909 
L 429.230769 -2.470909 
L 428.255245 -2.470909 
L 427.27972 -2.470909 
L 426.304196 -2.470909 
L 425.328671 -2.470909 
L 424.353147 -2.470909 
L 423.377622 -2.470909 
L 422.402098 -2.470909 
L 421.426573 -2.470909 
L 420.451049 -2.470909 
L 419.475524 -2.470909 
L 418.5 -2.470909 
L 417.524476 -2.470909 
L 416.548951 -2.470909 
L 415.573427 -2.470909 
L 414.597902 -2.470909 
L 413.622378 -2.470909 
L 412.646853 -2.470909 
L 411.671329 -2.470909 
L 410.695804 -2.470909 
L 409.72028 -2.470909 
L 408.744755 -2.470909 
L 407.769231 -2.470909 
L 406.793706 -2.470909 
L 405.818182 -2.470909 
L 404.842657 -2.470909 
L 403.867133 -2.470909 
L 402.891608 -2.470909 
L 401.916084 -2.470909 
L 400.940559 -2.470909 
L 399.965035 -2.470909 
L 398.98951 -2.470909 
L 398.013986 -2.470909 
L 397.038462 -2.470909 
L 396.062937 -2.470909 
L 395.087413 -2.470909 
L 394.111888 -2.470909 
L 393.136364 -2.470909 
L 392.160839 -2.470909 
L 391.185315 -2.470909 
L 390.20979 -2.470909 
L 389.234266 -2.470909 
L 388.258741 -2.470909 
z
" style="stroke: #116dc2; stroke-opacity: 0.2"/>
    </defs>
    <g clip-path="url(#p0b3d99eb90)">
     <use xlink:href="#m9600ed6532" x="0" y="54.36" style="fill: #116dc2; fill-opacity: 0.2; stroke: #116dc2; stroke-opacity: 0.2"/>
    </g>
   </g>
   <g id="PolyCollection_3">
    <defs>
     <path id="mceb7a9bfb6" d="M 25.363636 -2.470909 
L 25.363636 -5.165281 
L 26.339161 -6.267321 
L 27.314685 -7.553791 
L 28.29021 -8.922404 
L 29.265734 -10.184096 
L 30.241259 -11.272953 
L 31.216783 -12.589069 
L 32.192308 -14.667004 
L 33.167832 -17.502946 
L 34.143357 -20.575514 
L 35.118881 -23.55311 
L 36.094406 -26.625512 
L 37.06993 -29.97035 
L 38.045455 -33.351245 
L 39.020979 -36.583828 
L 39.996503 -39.771619 
L 40.972028 -42.87051 
L 41.947552 -45.725692 
L 42.923077 -48.297968 
L 43.898601 -50.344248 
L 44.874126 -51.513936 
L 45.84965 -51.889091 
L 46.825175 -51.827483 
L 47.800699 -51.390387 
L 48.776224 -50.522559 
L 49.751748 -49.39284 
L 50.727273 -47.933935 
L 51.702797 -45.8669 
L 52.678322 -43.303898 
L 53.653846 -40.502417 
L 54.629371 -37.424412 
L 55.604895 -33.986917 
L 56.58042 -30.327951 
L 57.555944 -26.709028 
L 58.531469 -23.396404 
L 59.506993 -20.526977 
L 60.482517 -18.118077 
L 61.458042 -16.094593 
L 62.433566 -14.229585 
L 63.409091 -12.413159 
L 64.384615 -10.729714 
L 65.36014 -9.157836 
L 66.335664 -7.612109 
L 67.311189 -6.158668 
L 68.286713 -4.956876 
L 68.286713 -2.470909 
L 68.286713 -2.470909 
L 67.311189 -2.470909 
L 66.335664 -2.470909 
L 65.36014 -2.470909 
L 64.384615 -2.470909 
L 63.409091 -2.470909 
L 62.433566 -2.470909 
L 61.458042 -2.470909 
L 60.482517 -2.470909 
L 59.506993 -2.470909 
L 58.531469 -2.470909 
L 57.555944 -2.470909 
L 56.58042 -2.470909 
L 55.604895 -2.470909 
L 54.629371 -2.470909 
L 53.653846 -2.470909 
L 52.678322 -2.470909 
L 51.702797 -2.470909 
L 50.727273 -2.470909 
L 49.751748 -2.470909 
L 48.776224 -2.470909 
L 47.800699 -2.470909 
L 46.825175 -2.470909 
L 45.84965 -2.470909 
L 44.874126 -2.470909 
L 43.898601 -2.470909 
L 42.923077 -2.470909 
L 41.947552 -2.470909 
L 40.972028 -2.470909 
L 39.996503 -2.470909 
L 39.020979 -2.470909 
L 38.045455 -2.470909 
L 37.06993 -2.470909 
L 36.094406 -2.470909 
L 35.118881 -2.470909 
L 34.143357 -2.470909 
L 33.167832 -2.470909 
L 32.192308 -2.470909 
L 31.216783 -2.470909 
L 30.241259 -2.470909 
L 29.265734 -2.470909 
L 28.29021 -2.470909 
L 27.314685 -2.470909 
L 26.339161 -2.470909 
L 25.363636 -2.470909 
z
" style="stroke: #8a8a8a; stroke-opacity: 0.2"/>
    </defs>
    <g clip-path="url(#p0b3d99eb90)">
     <use xlink:href="#mceb7a9bfb6" x="0" y="54.36" style="fill: #8a8a8a; fill-opacity: 0.2; stroke: #8a8a8a; stroke-opacity: 0.2"/>
    </g>
   </g>
   <g id="line2d_1">
    <path d="M 395.087413 50.320153 
L 398.98951 49.788719 
L 402.891608 49.000056 
L 405.818182 48.240394 
L 408.744755 47.256345 
L 411.671329 46.018401 
L 419.475524 42.410596 
L 421.426573 41.259664 
L 423.377622 39.844037 
L 426.304196 37.334699 
L 430.206294 33.960402 
L 438.01049 27.508038 
L 447.765734 19.251281 
L 449.716783 17.98639 
L 451.667832 16.963834 
L 454.594406 15.69364 
L 458.496503 14.202664 
L 462.398601 12.945774 
L 464.34965 12.460664 
L 466.300699 12.192774 
L 468.251748 12.252588 
L 470.202797 12.665612 
L 472.153846 13.366676 
L 474.104895 14.286706 
L 476.055944 15.419384 
L 478.006993 16.788409 
L 480.933566 19.199256 
L 484.835664 22.457501 
L 495.566434 30.837268 
L 499.468531 33.891329 
L 512.15035 43.007582 
L 516.052448 45.232417 
L 518.979021 46.681062 
L 521.905594 47.811067 
L 524.832168 48.631723 
L 530.685315 49.938163 
L 532.636364 50.287066 
L 532.636364 50.287066 
" clip-path="url(#p0b3d99eb90)" style="fill: none; stroke: #cf1313; stroke-width: 1.5; stroke-linecap: square"/>
   </g>
   <g id="line2d_2">
    <path d="M 388.258741 50.380473 
L 393.136364 49.657935 
L 398.98951 48.555331 
L 401.916084 47.755722 
L 403.867133 47.007909 
L 406.793706 45.564476 
L 410.695804 43.2784 
L 414.597902 40.76183 
L 416.548951 39.330012 
L 418.5 37.695046 
L 421.426573 34.882908 
L 426.304196 30.086805 
L 432.157343 24.783527 
L 434.108392 23.182991 
L 436.059441 21.829839 
L 438.01049 20.760238 
L 442.888112 18.418417 
L 444.839161 17.178674 
L 449.716783 13.827755 
L 451.667832 12.922498 
L 453.618881 12.398093 
L 455.56993 12.159723 
L 458.496503 12.091226 
L 460.447552 12.235049 
L 462.398601 12.668018 
L 464.34965 13.503699 
L 466.300699 14.726945 
L 475.08042 21.02676 
L 478.006993 23.005293 
L 480.933566 25.248846 
L 486.786713 30.20543 
L 493.615385 36.238375 
L 496.541958 38.737818 
L 499.468531 40.929234 
L 502.395105 42.741705 
L 505.321678 44.289156 
L 508.248252 45.634183 
L 511.174825 46.697669 
L 514.101399 47.491011 
L 524.832168 49.978053 
L 524.832168 49.978053 
" clip-path="url(#p0b3d99eb90)" style="fill: none; stroke: #116dc2; stroke-width: 1.5; stroke-linecap: square"/>
   </g>
   <g id="line2d_3">
    <path d="M 25.363636 49.194719 
L 26.339161 48.092679 
L 27.314685 46.806209 
L 28.29021 45.437596 
L 29.265734 44.175904 
L 30.241259 43.087047 
L 31.216783 41.770931 
L 32.192308 39.692996 
L 33.167832 36.857054 
L 34.143357 33.784486 
L 35.118881 30.80689 
L 36.094406 27.734488 
L 37.06993 24.38965 
L 38.045455 21.008755 
L 39.020979 17.776172 
L 39.996503 14.588381 
L 40.972028 11.48949 
L 41.947552 8.634308 
L 42.923077 6.062032 
L 43.898601 4.015752 
L 44.874126 2.846064 
L 45.84965 2.470909 
L 46.825175 2.532517 
L 47.800699 2.969613 
L 48.776224 3.837441 
L 49.751748 4.96716 
L 50.727273 6.426065 
L 51.702797 8.4931 
L 52.678322 11.056102 
L 53.653846 13.857583 
L 54.629371 16.935588 
L 55.604895 20.373083 
L 56.58042 24.032049 
L 57.555944 27.650972 
L 58.531469 30.963596 
L 59.506993 33.833023 
L 60.482517 36.241923 
L 61.458042 38.265407 
L 62.433566 40.130415 
L 63.409091 41.946841 
L 64.384615 43.630286 
L 65.36014 45.202164 
L 66.335664 46.747891 
L 67.311189 48.201332 
L 68.286713 49.403124 
" clip-path="url(#p0b3d99eb90)" style="fill: none; stroke: #8a8a8a; stroke-width: 1.5; stroke-linecap: square"/>
   </g>
  </g>
 </g>
 <defs>
  <clipPath id="p0b3d99eb90">
   <rect x="0" y="-0" width="558" height="54.36"/>
  </clipPath>
 </defs>
</svg>
