<?xml version="1.0" encoding="utf-8" standalone="no"?>
<!DOCTYPE svg PUBLIC "-//W3C//DTD SVG 1.1//EN"
  "http://www.w3.org/Graphics/SVG/1.1/DTD/svg11.dtd">
<svg xmlns:xlink="http://www.w3.org/1999/xlink" width="558pt" height="54.36pt" viewBox="0 0 558 54.36" xmlns="http://www.w3.org/2000/svg" version="1.1">
 <metadata>
  <rdf:RDF xmlns:dc="http://purl.org/dc/elements/1.1/" xmlns:cc="http://creativecommons.org/ns#" xmlns:rdf="http://www.w3.org/1999/02/22-rdf-syntax-ns#">
   <cc:Work>
    <dc:type rdf:resource="http://purl.org/dc/dcmitype/StillImage"/>
    <dc:date>2024-09-15T09:31:20.348244</dc:date>
    <dc:format>image/svg+xml</dc:format>
    <dc:creator>
     <cc:Agent>
      <dc:title>Matplotlib v3.5.2, https://matplotlib.org/</dc:title>
     </cc:Agent>
    </dc:creator>
   </cc:Work>
  </rdf:RDF>
 </metadata>
 <defs>
  <style type="text/css">*{stroke-linejoin: round; stroke-linecap: butt}</style>
 </defs>
 <g id="figure_1">
  <g id="patch_1">
   <path d="M 0 54.36 
L 558 54.36 
L 558 0 
L 0 0 
L 0 54.36 
z
" style="fill: none; opacity: 0"/>
  </g>
  <g id="axes_1">
   <g id="PolyCollection_1">
    <defs>
     <path id="m0a6a661132" d="M 398.732002 -2.470909 
L 398.732002 -3.933665 
L 399.709406 -4.071697 
L 400.68681 -4.227335 
L 401.664214 -4.403997 
L 402.641618 -4.603771 
L 403.619023 -4.827028 
L 404.596427 -5.072655 
L 405.573831 -5.338873 
L 406.551235 -5.624297 
L 407.528639 -5.928705 
L 408.506043 -6.253067 
L 409.483447 -6.598707 
L 410.460851 -6.965936 
L 411.438255 -7.352816 
L 412.415659 -7.754768 
L 413.393064 -8.1654 
L 414.370468 -8.57844 
L 415.347872 -8.990172 
L 416.325276 -9.401553 
L 417.30268 -9.819271 
L 418.280084 -10.255341 
L 419.257488 -10.725297 
L 420.234892 -11.245363 
L 421.212296 -11.829231 
L 422.1897 -12.485144 
L 423.167105 -13.213925 
L 424.144509 -14.008421 
L 425.121913 -14.854574 
L 426.099317 -15.73395 
L 427.076721 -16.627214 
L 428.054125 -17.517752 
L 429.031529 -18.394621 
L 430.008933 -19.254138 
L 430.986337 -20.099777 
L 431.963741 -20.940375 
L 432.941146 -21.787076 
L 433.91855 -22.649703 
L 434.895954 -23.533471 
L 435.873358 -24.436991 
L 436.850762 -25.352255 
L 437.828166 -26.266773 
L 438.80557 -27.167334 
L 439.782974 -28.044203 
L 440.760378 -28.894264 
L 441.737782 -29.721828 
L 442.715187 -30.536598 
L 443.692591 -31.34929 
L 444.669995 -32.166395 
L 445.647399 -32.986026 
L 446.624803 -33.796566 
L 447.602207 -34.578881 
L 448.579611 -35.311574 
L 449.557015 -35.977545 
L 450.534419 -36.569534 
L 451.511823 -37.092633 
L 452.489228 -37.562796 
L 453.466632 -38.001861 
L 454.444036 -38.430802 
L 455.42144 -38.863511 
L 456.398844 -39.303073 
L 457.376248 -39.74153 
L 458.353652 -40.162926 
L 459.331056 -40.54842 
L 460.30846 -40.881817 
L 461.285864 -41.153938 
L 462.263269 -41.364732 
L 463.240673 -41.522733 
L 464.218077 -41.642156 
L 465.195481 -41.738541 
L 466.172885 -41.824175 
L 467.150289 -41.904535 
L 468.127693 -41.976649 
L 469.105097 -42.029589 
L 470.082501 -42.046678 
L 471.059905 -42.008506 
L 472.03731 -41.895823 
L 473.014714 -41.691741 
L 473.992118 -41.383204 
L 474.969522 -40.962083 
L 475.946926 -40.426254 
L 476.92433 -39.780658 
L 477.901734 -39.037844 
L 478.879138 -38.217285 
L 479.856542 -37.343056 
L 480.833946 -36.440118 
L 481.81135 -35.530234 
L 482.788755 -34.628826 
L 483.766159 -33.74378 
L 484.743563 -32.876412 
L 485.720967 -32.023913 
L 486.698371 -31.182087 
L 487.675775 -30.34728 
L 488.653179 -29.516931 
L 489.630583 -28.68893 
L 490.607987 -27.860438 
L 491.585391 -27.026999 
L 492.562796 -26.182485 
L 493.5402 -25.320062 
L 494.517604 -24.433855 
L 495.495008 -23.520756 
L 496.472412 -22.581694 
L 497.449816 -21.621864 
L 498.42722 -20.649815 
L 499.404624 -19.675762 
L 500.382028 -18.709853 
L 501.359432 -17.761135 
L 502.336837 -16.837605 
L 503.314241 -15.947051 
L 504.291645 -15.097937 
L 505.269049 -14.299428 
L 506.246453 -13.560162 
L 507.223857 -12.886089 
L 508.201261 -12.278333 
L 509.178665 -11.732154 
L 510.156069 -11.237649 
L 511.133473 -10.781996 
L 512.110878 -10.352409 
L 513.088282 -9.938673 
L 514.065686 -9.534425 
L 515.04309 -9.136975 
L 516.020494 -8.746079 
L 516.997898 -8.362424 
L 517.975302 -7.986551 
L 518.952706 -7.618583 
L 519.93011 -7.258675 
L 520.907514 -6.907756 
L 521.884919 -6.568056 
L 522.862323 -6.243032 
L 523.839727 -5.936645 
L 524.817131 -5.65226 
L 525.794535 -5.391607 
L 526.771939 -5.154236 
L 527.749343 -4.937674 
L 528.726747 -4.738205 
L 529.704151 -4.551944 
L 530.681555 -4.375818 
L 531.65896 -4.208142 
L 532.636364 -4.048669 
L 532.636364 -2.470909 
L 532.636364 -2.470909 
L 531.65896 -2.470909 
L 530.681555 -2.470909 
L 529.704151 -2.470909 
L 528.726747 -2.470909 
L 527.749343 -2.470909 
L 526.771939 -2.470909 
L 525.794535 -2.470909 
L 524.817131 -2.470909 
L 523.839727 -2.470909 
L 522.862323 -2.470909 
L 521.884919 -2.470909 
L 520.907514 -2.470909 
L 519.93011 -2.470909 
L 518.952706 -2.470909 
L 517.975302 -2.470909 
L 516.997898 -2.470909 
L 516.020494 -2.470909 
L 515.04309 -2.470909 
L 514.065686 -2.470909 
L 513.088282 -2.470909 
L 512.110878 -2.470909 
L 511.133473 -2.470909 
L 510.156069 -2.470909 
L 509.178665 -2.470909 
L 508.201261 -2.470909 
L 507.223857 -2.470909 
L 506.246453 -2.470909 
L 505.269049 -2.470909 
L 504.291645 -2.470909 
L 503.314241 -2.470909 
L 502.336837 -2.470909 
L 501.359432 -2.470909 
L 500.382028 -2.470909 
L 499.404624 -2.470909 
L 498.42722 -2.470909 
L 497.449816 -2.470909 
L 496.472412 -2.470909 
L 495.495008 -2.470909 
L 494.517604 -2.470909 
L 493.5402 -2.470909 
L 492.562796 -2.470909 
L 491.585391 -2.470909 
L 490.607987 -2.470909 
L 489.630583 -2.470909 
L 488.653179 -2.470909 
L 487.675775 -2.470909 
L 486.698371 -2.470909 
L 485.720967 -2.470909 
L 484.743563 -2.470909 
L 483.766159 -2.470909 
L 482.788755 -2.470909 
L 481.81135 -2.470909 
L 480.833946 -2.470909 
L 479.856542 -2.470909 
L 478.879138 -2.470909 
L 477.901734 -2.470909 
L 476.92433 -2.470909 
L 475.946926 -2.470909 
L 474.969522 -2.470909 
L 473.992118 -2.470909 
L 473.014714 -2.470909 
L 472.03731 -2.470909 
L 471.059905 -2.470909 
L 470.082501 -2.470909 
L 469.105097 -2.470909 
L 468.127693 -2.470909 
L 467.150289 -2.470909 
L 466.172885 -2.470909 
L 465.195481 -2.470909 
L 464.218077 -2.470909 
L 463.240673 -2.470909 
L 462.263269 -2.470909 
L 461.285864 -2.470909 
L 460.30846 -2.470909 
L 459.331056 -2.470909 
L 458.353652 -2.470909 
L 457.376248 -2.470909 
L 456.398844 -2.470909 
L 455.42144 -2.470909 
L 454.444036 -2.470909 
L 453.466632 -2.470909 
L 452.489228 -2.470909 
L 451.511823 -2.470909 
L 450.534419 -2.470909 
L 449.557015 -2.470909 
L 448.579611 -2.470909 
L 447.602207 -2.470909 
L 446.624803 -2.470909 
L 445.647399 -2.470909 
L 444.669995 -2.470909 
L 443.692591 -2.470909 
L 442.715187 -2.470909 
L 441.737782 -2.470909 
L 440.760378 -2.470909 
L 439.782974 -2.470909 
L 438.80557 -2.470909 
L 437.828166 -2.470909 
L 436.850762 -2.470909 
L 435.873358 -2.470909 
L 434.895954 -2.470909 
L 433.91855 -2.470909 
L 432.941146 -2.470909 
L 431.963741 -2.470909 
L 430.986337 -2.470909 
L 430.008933 -2.470909 
L 429.031529 -2.470909 
L 428.054125 -2.470909 
L 427.076721 -2.470909 
L 426.099317 -2.470909 
L 425.121913 -2.470909 
L 424.144509 -2.470909 
L 423.167105 -2.470909 
L 422.1897 -2.470909 
L 421.212296 -2.470909 
L 420.234892 -2.470909 
L 419.257488 -2.470909 
L 418.280084 -2.470909 
L 417.30268 -2.470909 
L 416.325276 -2.470909 
L 415.347872 -2.470909 
L 414.370468 -2.470909 
L 413.393064 -2.470909 
L 412.415659 -2.470909 
L 411.438255 -2.470909 
L 410.460851 -2.470909 
L 409.483447 -2.470909 
L 408.506043 -2.470909 
L 407.528639 -2.470909 
L 406.551235 -2.470909 
L 405.573831 -2.470909 
L 404.596427 -2.470909 
L 403.619023 -2.470909 
L 402.641618 -2.470909 
L 401.664214 -2.470909 
L 400.68681 -2.470909 
L 399.709406 -2.470909 
L 398.732002 -2.470909 
z
" style="stroke: #cf1313; stroke-opacity: 0.2"/>
    </defs>
    <g clip-path="url(#p793c61fb9d)">
     <use xlink:href="#m0a6a661132" x="0" y="54.36" style="fill: #cf1313; fill-opacity: 0.2; stroke: #cf1313; stroke-opacity: 0.2"/>
    </g>
   </g>
   <g id="PolyCollection_2">
    <defs>
     <path id="mea51fec057" d="M 389.935365 -2.470909 
L 389.935365 -4.06761 
L 390.912769 -4.23457 
L 391.890173 -4.423838 
L 392.867578 -4.636629 
L 393.844982 -4.874214 
L 394.822386 -5.137947 
L 395.79979 -5.429115 
L 396.777194 -5.748701 
L 397.754598 -6.09714 
L 398.732002 -6.474088 
L 399.709406 -6.878153 
L 400.68681 -7.306575 
L 401.664214 -7.754914 
L 402.641618 -8.216959 
L 403.619023 -8.685139 
L 404.596427 -9.151565 
L 405.573831 -9.609629 
L 406.551235 -10.055736 
L 407.528639 -10.490601 
L 408.506043 -10.919607 
L 409.483447 -11.351971 
L 410.460851 -11.798921 
L 411.438255 -12.271412 
L 412.415659 -12.778063 
L 413.393064 -13.323942 
L 414.370468 -13.910463 
L 415.347872 -14.536335 
L 416.325276 -15.199122 
L 417.30268 -15.896843 
L 418.280084 -16.629042 
L 419.257488 -17.396999 
L 420.234892 -18.202992 
L 421.212296 -19.048858 
L 422.1897 -19.934272 
L 423.167105 -20.855278 
L 424.144509 -21.803519 
L 425.121913 -22.766439 
L 426.099317 -23.728462 
L 427.076721 -24.672957 
L 428.054125 -25.584619 
L 429.031529 -26.451881 
L 430.008933 -27.268956 
L 430.986337 -28.037161 
L 431.963741 -28.765172 
L 432.941146 -29.467983 
L 433.91855 -30.164549 
L 434.895954 -30.874381 
L 435.873358 -31.61374 
L 436.850762 -32.392286 
L 437.828166 -33.211019 
L 438.80557 -34.062053 
L 439.782974 -34.930223 
L 440.760378 -35.796026 
L 441.737782 -36.639011 
L 442.715187 -37.440743 
L 443.692591 -38.186715 
L 444.669995 -38.867034 
L 445.647399 -39.47609 
L 446.624803 -40.011606 
L 447.602207 -40.473412 
L 448.579611 -40.862254 
L 449.557015 -41.178831 
L 450.534419 -41.423381 
L 451.511823 -41.596084 
L 452.489228 -41.6984 
L 453.466632 -41.735034 
L 454.444036 -41.71574 
L 455.42144 -41.655942 
L 456.398844 -41.575415 
L 457.376248 -41.49496 
L 458.353652 -41.431915 
L 459.331056 -41.395888 
L 460.30846 -41.38612 
L 461.285864 -41.391215 
L 462.263269 -41.391145 
L 463.240673 -41.360668 
L 464.218077 -41.273091 
L 465.195481 -41.103587 
L 466.172885 -40.831778 
L 467.150289 -40.443712 
L 468.127693 -39.933442 
L 469.105097 -39.304166 
L 470.082501 -38.568604 
L 471.059905 -37.748112 
L 472.03731 -36.870259 
L 473.014714 -35.965017 
L 473.992118 -35.060217 
L 474.969522 -34.177305 
L 475.946926 -33.328424 
L 476.92433 -32.515585 
L 477.901734 -31.732137 
L 478.879138 -30.966126 
L 479.856542 -30.204617 
L 480.833946 -29.437726 
L 481.81135 -28.661234 
L 482.788755 -27.877071 
L 483.766159 -27.091659 
L 484.743563 -26.31284 
L 485.720967 -25.546515 
L 486.698371 -24.794204 
L 487.675775 -24.052278 
L 488.653179 -23.313014 
L 489.630583 -22.566972 
L 490.607987 -21.805803 
L 491.585391 -21.024576 
L 492.562796 -20.22296 
L 493.5402 -19.40508 
L 494.517604 -18.578307 
L 495.495008 -17.751528 
L 496.472412 -16.933557 
L 497.449816 -16.132123 
L 498.42722 -15.353593 
L 499.404624 -14.603222 
L 500.382028 -13.885535 
L 501.359432 -13.204408 
L 502.336837 -12.562682 
L 503.314241 -11.961405 
L 504.291645 -11.399094 
L 505.269049 -10.871451 
L 506.246453 -10.371815 
L 507.223857 -9.892343 
L 508.201261 -9.425592 
L 509.178665 -8.966036 
L 510.156069 -8.51107 
L 511.133473 -8.061275 
L 512.110878 -7.619954 
L 513.088282 -7.192194 
L 514.065686 -6.783741 
L 515.04309 -6.399989 
L 516.020494 -6.04522 
L 516.997898 -5.722142 
L 517.975302 -5.431701 
L 518.952706 -5.173108 
L 519.93011 -4.944045 
L 520.907514 -4.741015 
L 521.884919 -4.559791 
L 522.862323 -4.395914 
L 523.839727 -4.245164 
L 524.817131 -4.10396 
L 524.817131 -2.470909 
L 524.817131 -2.470909 
L 523.839727 -2.470909 
L 522.862323 -2.470909 
L 521.884919 -2.470909 
L 520.907514 -2.470909 
L 519.93011 -2.470909 
L 518.952706 -2.470909 
L 517.975302 -2.470909 
L 516.997898 -2.470909 
L 516.020494 -2.470909 
L 515.04309 -2.470909 
L 514.065686 -2.470909 
L 513.088282 -2.470909 
L 512.110878 -2.470909 
L 511.133473 -2.470909 
L 510.156069 -2.470909 
L 509.178665 -2.470909 
L 508.201261 -2.470909 
L 507.223857 -2.470909 
L 506.246453 -2.470909 
L 505.269049 -2.470909 
L 504.291645 -2.470909 
L 503.314241 -2.470909 
L 502.336837 -2.470909 
L 501.359432 -2.470909 
L 500.382028 -2.470909 
L 499.404624 -2.470909 
L 498.42722 -2.470909 
L 497.449816 -2.470909 
L 496.472412 -2.470909 
L 495.495008 -2.470909 
L 494.517604 -2.470909 
L 493.5402 -2.470909 
L 492.562796 -2.470909 
L 491.585391 -2.470909 
L 490.607987 -2.470909 
L 489.630583 -2.470909 
L 488.653179 -2.470909 
L 487.675775 -2.470909 
L 486.698371 -2.470909 
L 485.720967 -2.470909 
L 484.743563 -2.470909 
L 483.766159 -2.470909 
L 482.788755 -2.470909 
L 481.81135 -2.470909 
L 480.833946 -2.470909 
L 479.856542 -2.470909 
L 478.879138 -2.470909 
L 477.901734 -2.470909 
L 476.92433 -2.470909 
L 475.946926 -2.470909 
L 474.969522 -2.470909 
L 473.992118 -2.470909 
L 473.014714 -2.470909 
L 472.03731 -2.470909 
L 471.059905 -2.470909 
L 470.082501 -2.470909 
L 469.105097 -2.470909 
L 468.127693 -2.470909 
L 467.150289 -2.470909 
L 466.172885 -2.470909 
L 465.195481 -2.470909 
L 464.218077 -2.470909 
L 463.240673 -2.470909 
L 462.263269 -2.470909 
L 461.285864 -2.470909 
L 460.30846 -2.470909 
L 459.331056 -2.470909 
L 458.353652 -2.470909 
L 457.376248 -2.470909 
L 456.398844 -2.470909 
L 455.42144 -2.470909 
L 454.444036 -2.470909 
L 453.466632 -2.470909 
L 452.489228 -2.470909 
L 451.511823 -2.470909 
L 450.534419 -2.470909 
L 449.557015 -2.470909 
L 448.579611 -2.470909 
L 447.602207 -2.470909 
L 446.624803 -2.470909 
L 445.647399 -2.470909 
L 444.669995 -2.470909 
L 443.692591 -2.470909 
L 442.715187 -2.470909 
L 441.737782 -2.470909 
L 440.760378 -2.470909 
L 439.782974 -2.470909 
L 438.80557 -2.470909 
L 437.828166 -2.470909 
L 436.850762 -2.470909 
L 435.873358 -2.470909 
L 434.895954 -2.470909 
L 433.91855 -2.470909 
L 432.941146 -2.470909 
L 431.963741 -2.470909 
L 430.986337 -2.470909 
L 430.008933 -2.470909 
L 429.031529 -2.470909 
L 428.054125 -2.470909 
L 427.076721 -2.470909 
L 426.099317 -2.470909 
L 425.121913 -2.470909 
L 424.144509 -2.470909 
L 423.167105 -2.470909 
L 422.1897 -2.470909 
L 421.212296 -2.470909 
L 420.234892 -2.470909 
L 419.257488 -2.470909 
L 418.280084 -2.470909 
L 417.30268 -2.470909 
L 416.325276 -2.470909 
L 415.347872 -2.470909 
L 414.370468 -2.470909 
L 413.393064 -2.470909 
L 412.415659 -2.470909 
L 411.438255 -2.470909 
L 410.460851 -2.470909 
L 409.483447 -2.470909 
L 408.506043 -2.470909 
L 407.528639 -2.470909 
L 406.551235 -2.470909 
L 405.573831 -2.470909 
L 404.596427 -2.470909 
L 403.619023 -2.470909 
L 402.641618 -2.470909 
L 401.664214 -2.470909 
L 400.68681 -2.470909 
L 399.709406 -2.470909 
L 398.732002 -2.470909 
L 397.754598 -2.470909 
L 396.777194 -2.470909 
L 395.79979 -2.470909 
L 394.822386 -2.470909 
L 393.844982 -2.470909 
L 392.867578 -2.470909 
L 391.890173 -2.470909 
L 390.912769 -2.470909 
L 389.935365 -2.470909 
z
" style="stroke: #116dc2; stroke-opacity: 0.2"/>
    </defs>
    <g clip-path="url(#p793c61fb9d)">
     <use xlink:href="#mea51fec057" x="0" y="54.36" style="fill: #116dc2; fill-opacity: 0.2; stroke: #116dc2; stroke-opacity: 0.2"/>
    </g>
   </g>
   <g id="PolyCollection_3">
    <defs>
     <path id="mc15df7ab20" d="M 25.363636 -2.470909 
L 25.363636 -4.998826 
L 26.34104 -5.876696 
L 27.318445 -6.902186 
L 28.295849 -8.236618 
L 29.273253 -9.80045 
L 30.250657 -11.258284 
L 31.228061 -12.576681 
L 32.205465 -14.193996 
L 33.182869 -16.547722 
L 34.160273 -19.649642 
L 35.137677 -23.068207 
L 36.115081 -26.405489 
L 37.092486 -29.747037 
L 38.06989 -33.251817 
L 39.047294 -36.600766 
L 40.024698 -39.365409 
L 41.002102 -41.538084 
L 41.979506 -43.455867 
L 42.95691 -45.397955 
L 43.934314 -47.418194 
L 44.911718 -49.437824 
L 45.889122 -51.096487 
L 46.866527 -51.889091 
L 47.843931 -51.61955 
L 48.821335 -50.477202 
L 49.798739 -48.83522 
L 50.776143 -46.886177 
L 51.753547 -44.364371 
L 52.730951 -41.229905 
L 53.708355 -38.135577 
L 54.685759 -35.381973 
L 55.663163 -32.64971 
L 56.640568 -29.799723 
L 57.617972 -26.868297 
L 58.595376 -23.715086 
L 59.57278 -20.267154 
L 60.550184 -16.876841 
L 61.527588 -14.103662 
L 62.504992 -12.108507 
L 63.482396 -10.512062 
L 64.4598 -8.990845 
L 65.437204 -7.640508 
L 66.414609 -6.606299 
L 67.392013 -5.823463 
L 68.369417 -5.17946 
L 69.346821 -4.627535 
L 69.346821 -2.470909 
L 69.346821 -2.470909 
L 68.369417 -2.470909 
L 67.392013 -2.470909 
L 66.414609 -2.470909 
L 65.437204 -2.470909 
L 64.4598 -2.470909 
L 63.482396 -2.470909 
L 62.504992 -2.470909 
L 61.527588 -2.470909 
L 60.550184 -2.470909 
L 59.57278 -2.470909 
L 58.595376 -2.470909 
L 57.617972 -2.470909 
L 56.640568 -2.470909 
L 55.663163 -2.470909 
L 54.685759 -2.470909 
L 53.708355 -2.470909 
L 52.730951 -2.470909 
L 51.753547 -2.470909 
L 50.776143 -2.470909 
L 49.798739 -2.470909 
L 48.821335 -2.470909 
L 47.843931 -2.470909 
L 46.866527 -2.470909 
L 45.889122 -2.470909 
L 44.911718 -2.470909 
L 43.934314 -2.470909 
L 42.95691 -2.470909 
L 41.979506 -2.470909 
L 41.002102 -2.470909 
L 40.024698 -2.470909 
L 39.047294 -2.470909 
L 38.06989 -2.470909 
L 37.092486 -2.470909 
L 36.115081 -2.470909 
L 35.137677 -2.470909 
L 34.160273 -2.470909 
L 33.182869 -2.470909 
L 32.205465 -2.470909 
L 31.228061 -2.470909 
L 30.250657 -2.470909 
L 29.273253 -2.470909 
L 28.295849 -2.470909 
L 27.318445 -2.470909 
L 26.34104 -2.470909 
L 25.363636 -2.470909 
z
" style="stroke: #8a8a8a; stroke-opacity: 0.2"/>
    </defs>
    <g clip-path="url(#p793c61fb9d)">
     <use xlink:href="#mc15df7ab20" x="0" y="54.36" style="fill: #8a8a8a; fill-opacity: 0.2; stroke: #8a8a8a; stroke-opacity: 0.2"/>
    </g>
   </g>
   <g id="line2d_1">
    <path d="M 398.732002 50.426335 
L 401.664214 49.956003 
L 404.596427 49.287345 
L 407.528639 48.431295 
L 410.460851 47.394064 
L 416.325276 44.958447 
L 419.257488 43.634703 
L 421.212296 42.530769 
L 423.167105 41.146075 
L 426.099317 38.62605 
L 430.986337 34.260223 
L 435.873358 29.923009 
L 440.760378 25.465736 
L 447.602207 19.781119 
L 449.557015 18.382455 
L 451.511823 17.267367 
L 455.42144 15.496489 
L 459.331056 13.81158 
L 461.285864 13.206062 
L 463.240673 12.837267 
L 467.150289 12.455465 
L 470.082501 12.313322 
L 472.03731 12.464177 
L 473.992118 12.976796 
L 475.946926 13.933746 
L 477.901734 15.322156 
L 480.833946 17.919882 
L 485.720967 22.336087 
L 495.495008 30.839244 
L 504.291645 39.262063 
L 506.246453 40.799838 
L 508.201261 42.081667 
L 510.156069 43.122351 
L 514.065686 44.825575 
L 519.93011 47.101325 
L 523.839727 48.423355 
L 526.771939 49.205764 
L 530.681555 49.984182 
L 532.636364 50.311331 
L 532.636364 50.311331 
" clip-path="url(#p793c61fb9d)" style="fill: none; stroke: #cf1313; stroke-width: 1.5; stroke-linecap: square"/>
   </g>
   <g id="line2d_2">
    <path d="M 389.935365 50.29239 
L 392.867578 49.723371 
L 395.79979 48.930885 
L 398.732002 47.885912 
L 401.664214 46.605086 
L 413.393064 41.036058 
L 416.325276 39.160878 
L 419.257488 36.963001 
L 422.1897 34.425728 
L 430.008933 27.091044 
L 432.941146 24.892017 
L 435.873358 22.74626 
L 438.80557 20.297947 
L 442.715187 16.919257 
L 444.669995 15.492966 
L 446.624803 14.348394 
L 448.579611 13.497746 
L 450.534419 12.936619 
L 452.489228 12.6616 
L 454.444036 12.64426 
L 461.285864 12.968785 
L 463.240673 12.999332 
L 465.195481 13.256413 
L 466.172885 13.528222 
L 467.150289 13.916288 
L 469.105097 15.055834 
L 471.059905 16.611888 
L 477.901734 22.627863 
L 494.517604 35.781693 
L 498.42722 39.006407 
L 501.359432 41.155592 
L 504.291645 42.960906 
L 507.223857 44.467657 
L 513.088282 47.167806 
L 516.020494 48.31478 
L 518.952706 49.186892 
L 521.884919 49.800209 
L 524.817131 50.25604 
L 524.817131 50.25604 
" clip-path="url(#p793c61fb9d)" style="fill: none; stroke: #116dc2; stroke-width: 1.5; stroke-linecap: square"/>
   </g>
   <g id="line2d_3">
    <path d="M 25.363636 49.361174 
L 26.34104 48.483304 
L 27.318445 47.457814 
L 28.295849 46.123382 
L 29.273253 44.55955 
L 30.250657 43.101716 
L 31.228061 41.783319 
L 32.205465 40.166004 
L 33.182869 37.812278 
L 34.160273 34.710358 
L 35.137677 31.291793 
L 36.115081 27.954511 
L 37.092486 24.612963 
L 38.06989 21.108183 
L 39.047294 17.759234 
L 40.024698 14.994591 
L 41.002102 12.821916 
L 41.979506 10.904133 
L 42.95691 8.962045 
L 43.934314 6.941806 
L 44.911718 4.922176 
L 45.889122 3.263513 
L 46.866527 2.470909 
L 47.843931 2.74045 
L 48.821335 3.882798 
L 49.798739 5.52478 
L 50.776143 7.473823 
L 51.753547 9.995629 
L 52.730951 13.130095 
L 53.708355 16.224423 
L 54.685759 18.978027 
L 55.663163 21.71029 
L 56.640568 24.560277 
L 57.617972 27.491703 
L 58.595376 30.644914 
L 59.57278 34.092846 
L 60.550184 37.483159 
L 61.527588 40.256338 
L 62.504992 42.251493 
L 63.482396 43.847938 
L 64.4598 45.369155 
L 65.437204 46.719492 
L 66.414609 47.753701 
L 67.392013 48.536537 
L 68.369417 49.18054 
L 69.346821 49.732465 
" clip-path="url(#p793c61fb9d)" style="fill: none; stroke: #8a8a8a; stroke-width: 1.5; stroke-linecap: square"/>
   </g>
  </g>
 </g>
 <defs>
  <clipPath id="p793c61fb9d">
   <rect x="0" y="-0" width="558" height="54.36"/>
  </clipPath>
 </defs>
</svg>
