<?xml version="1.0" encoding="utf-8" standalone="no"?>
<!DOCTYPE svg PUBLIC "-//W3C//DTD SVG 1.1//EN"
  "http://www.w3.org/Graphics/SVG/1.1/DTD/svg11.dtd">
<svg xmlns:xlink="http://www.w3.org/1999/xlink" width="558pt" height="54.36pt" viewBox="0 0 558 54.36" xmlns="http://www.w3.org/2000/svg" version="1.1">
 <metadata>
  <rdf:RDF xmlns:dc="http://purl.org/dc/elements/1.1/" xmlns:cc="http://creativecommons.org/ns#" xmlns:rdf="http://www.w3.org/1999/02/22-rdf-syntax-ns#">
   <cc:Work>
    <dc:type rdf:resource="http://purl.org/dc/dcmitype/StillImage"/>
    <dc:date>2024-09-15T09:31:51.182025</dc:date>
    <dc:format>image/svg+xml</dc:format>
    <dc:creator>
     <cc:Agent>
      <dc:title>Matplotlib v3.5.2, https://matplotlib.org/</dc:title>
     </cc:Agent>
    </dc:creator>
   </cc:Work>
  </rdf:RDF>
 </metadata>
 <defs>
  <style type="text/css">*{stroke-linejoin: round; stroke-linecap: butt}</style>
 </defs>
 <g id="figure_1">
  <g id="patch_1">
   <path d="M 0 54.36 
L 558 54.36 
L 558 0 
L 0 0 
L 0 54.36 
z
" style="fill: none; opacity: 0"/>
  </g>
  <g id="axes_1">
   <g id="PolyCollection_1">
    <defs>
     <path id="m43772db078" d="M 190.894737 -2.470909 
L 190.894737 -3.99412 
L 191.657553 -4.130056 
L 192.420369 -4.277984 
L 193.183185 -4.438658 
L 193.946001 -4.612973 
L 194.708817 -4.802029 
L 195.471634 -5.007251 
L 196.23445 -5.230426 
L 196.997266 -5.473583 
L 197.760082 -5.738711 
L 198.522898 -6.027413 
L 199.285714 -6.340599 
L 200.04853 -6.678223 
L 200.811347 -7.039029 
L 201.574163 -7.420266 
L 202.336979 -7.817535 
L 203.099795 -8.225093 
L 203.862611 -8.63692 
L 204.625427 -9.04864 
L 205.388243 -9.459825 
L 206.151059 -9.875855 
L 206.913876 -10.308356 
L 207.676692 -10.773678 
L 208.439508 -11.289589 
L 209.202324 -11.87111 
L 209.96514 -12.526781 
L 210.727956 -13.256491 
L 211.490772 -14.051468 
L 212.253589 -14.896324 
L 213.016405 -15.772532 
L 213.779221 -16.662373 
L 214.542037 -17.552378 
L 215.304853 -18.435441 
L 216.067669 -19.31118 
L 216.830485 -20.184649 
L 217.593301 -21.064025 
L 218.356118 -21.958138 
L 219.118934 -22.874563 
L 219.88175 -23.818508 
L 220.644566 -24.792253 
L 221.407382 -25.794685 
L 222.170198 -26.820704 
L 222.933014 -27.860638 
L 223.69583 -28.900166 
L 224.458647 -29.921202 
L 225.221463 -30.903894 
L 225.984279 -31.829536 
L 226.747095 -32.68389 
L 227.509911 -33.460287 
L 228.272727 -34.161842 
L 229.035543 -34.802074 
L 229.79836 -35.40342 
L 230.561176 -35.993493 
L 231.323992 -36.599632 
L 232.086808 -37.242941 
L 232.849624 -37.933397 
L 233.61244 -38.667399 
L 234.375256 -39.428386 
L 235.138072 -40.190224 
L 235.900889 -40.922273 
L 236.663705 -41.594666 
L 237.426521 -42.182534 
L 238.189337 -42.668423 
L 238.952153 -43.04279 
L 239.714969 -43.303048 
L 240.477785 -43.451851 
L 241.240602 -43.495299 
L 242.003418 -43.441438 
L 242.766234 -43.29911 
L 243.52905 -43.076981 
L 244.291866 -42.782578 
L 245.054682 -42.42136 
L 245.817498 -41.996114 
L 246.580314 -41.507037 
L 247.343131 -40.95272 
L 248.105947 -40.331831 
L 248.868763 -39.644875 
L 249.631579 -38.89535 
L 250.394395 -38.089882 
L 251.157211 -37.237564 
L 251.920027 -36.349136 
L 252.682843 -35.436724 
L 253.44566 -34.514262 
L 254.208476 -33.598009 
L 254.971292 -32.706066 
L 255.734108 -31.856038 
L 256.496924 -31.060871 
L 257.25974 -30.324123 
L 258.022556 -29.636665 
L 258.785373 -28.976715 
L 259.548189 -28.313961 
L 260.311005 -27.61687 
L 261.073821 -26.860855 
L 261.836637 -26.034485 
L 262.599453 -25.141628 
L 263.362269 -24.199121 
L 264.125085 -23.231279 
L 264.887902 -22.263659 
L 265.650718 -21.318336 
L 266.413534 -20.411757 
L 267.17635 -19.554801 
L 267.939166 -18.753719 
L 268.701982 -18.010698 
L 269.464798 -17.323592 
L 270.227614 -16.685315 
L 270.990431 -16.083818 
L 271.753247 -15.503347 
L 272.516063 -14.926983 
L 273.278879 -14.339828 
L 274.041695 -13.731876 
L 274.804511 -13.099732 
L 275.567327 -12.446782 
L 276.330144 -11.781872 
L 277.09296 -11.117 
L 277.855776 -10.464737 
L 278.618592 -9.836065 
L 279.381408 -9.239084 
L 280.144224 -8.67868 
L 280.90704 -8.156954 
L 281.669856 -7.673997 
L 282.432673 -7.228677 
L 283.195489 -6.819218 
L 283.958305 -6.443568 
L 284.721121 -6.099638 
L 285.483937 -5.785488 
L 286.246753 -5.499428 
L 287.009569 -5.23995 
L 287.772386 -5.005447 
L 288.535202 -4.793826 
L 289.298018 -4.602235 
L 290.060834 -4.427168 
L 290.82365 -4.264977 
L 291.586466 -4.112634 
L 291.586466 -2.470909 
L 291.586466 -2.470909 
L 290.82365 -2.470909 
L 290.060834 -2.470909 
L 289.298018 -2.470909 
L 288.535202 -2.470909 
L 287.772386 -2.470909 
L 287.009569 -2.470909 
L 286.246753 -2.470909 
L 285.483937 -2.470909 
L 284.721121 -2.470909 
L 283.958305 -2.470909 
L 283.195489 -2.470909 
L 282.432673 -2.470909 
L 281.669856 -2.470909 
L 280.90704 -2.470909 
L 280.144224 -2.470909 
L 279.381408 -2.470909 
L 278.618592 -2.470909 
L 277.855776 -2.470909 
L 277.09296 -2.470909 
L 276.330144 -2.470909 
L 275.567327 -2.470909 
L 274.804511 -2.470909 
L 274.041695 -2.470909 
L 273.278879 -2.470909 
L 272.516063 -2.470909 
L 271.753247 -2.470909 
L 270.990431 -2.470909 
L 270.227614 -2.470909 
L 269.464798 -2.470909 
L 268.701982 -2.470909 
L 267.939166 -2.470909 
L 267.17635 -2.470909 
L 266.413534 -2.470909 
L 265.650718 -2.470909 
L 264.887902 -2.470909 
L 264.125085 -2.470909 
L 263.362269 -2.470909 
L 262.599453 -2.470909 
L 261.836637 -2.470909 
L 261.073821 -2.470909 
L 260.311005 -2.470909 
L 259.548189 -2.470909 
L 258.785373 -2.470909 
L 258.022556 -2.470909 
L 257.25974 -2.470909 
L 256.496924 -2.470909 
L 255.734108 -2.470909 
L 254.971292 -2.470909 
L 254.208476 -2.470909 
L 253.44566 -2.470909 
L 252.682843 -2.470909 
L 251.920027 -2.470909 
L 251.157211 -2.470909 
L 250.394395 -2.470909 
L 249.631579 -2.470909 
L 248.868763 -2.470909 
L 248.105947 -2.470909 
L 247.343131 -2.470909 
L 246.580314 -2.470909 
L 245.817498 -2.470909 
L 245.054682 -2.470909 
L 244.291866 -2.470909 
L 243.52905 -2.470909 
L 242.766234 -2.470909 
L 242.003418 -2.470909 
L 241.240602 -2.470909 
L 240.477785 -2.470909 
L 239.714969 -2.470909 
L 238.952153 -2.470909 
L 238.189337 -2.470909 
L 237.426521 -2.470909 
L 236.663705 -2.470909 
L 235.900889 -2.470909 
L 235.138072 -2.470909 
L 234.375256 -2.470909 
L 233.61244 -2.470909 
L 232.849624 -2.470909 
L 232.086808 -2.470909 
L 231.323992 -2.470909 
L 230.561176 -2.470909 
L 229.79836 -2.470909 
L 229.035543 -2.470909 
L 228.272727 -2.470909 
L 227.509911 -2.470909 
L 226.747095 -2.470909 
L 225.984279 -2.470909 
L 225.221463 -2.470909 
L 224.458647 -2.470909 
L 223.69583 -2.470909 
L 222.933014 -2.470909 
L 222.170198 -2.470909 
L 221.407382 -2.470909 
L 220.644566 -2.470909 
L 219.88175 -2.470909 
L 219.118934 -2.470909 
L 218.356118 -2.470909 
L 217.593301 -2.470909 
L 216.830485 -2.470909 
L 216.067669 -2.470909 
L 215.304853 -2.470909 
L 214.542037 -2.470909 
L 213.779221 -2.470909 
L 213.016405 -2.470909 
L 212.253589 -2.470909 
L 211.490772 -2.470909 
L 210.727956 -2.470909 
L 209.96514 -2.470909 
L 209.202324 -2.470909 
L 208.439508 -2.470909 
L 207.676692 -2.470909 
L 206.913876 -2.470909 
L 206.151059 -2.470909 
L 205.388243 -2.470909 
L 204.625427 -2.470909 
L 203.862611 -2.470909 
L 203.099795 -2.470909 
L 202.336979 -2.470909 
L 201.574163 -2.470909 
L 200.811347 -2.470909 
L 200.04853 -2.470909 
L 199.285714 -2.470909 
L 198.522898 -2.470909 
L 197.760082 -2.470909 
L 196.997266 -2.470909 
L 196.23445 -2.470909 
L 195.471634 -2.470909 
L 194.708817 -2.470909 
L 193.946001 -2.470909 
L 193.183185 -2.470909 
L 192.420369 -2.470909 
L 191.657553 -2.470909 
L 190.894737 -2.470909 
z
" style="stroke: #cf1313; stroke-opacity: 0.2"/>
    </defs>
    <g clip-path="url(#p776ec50bcf)">
     <use xlink:href="#m43772db078" x="0" y="54.36" style="fill: #cf1313; fill-opacity: 0.2; stroke: #cf1313; stroke-opacity: 0.2"/>
    </g>
   </g>
   <g id="PolyCollection_2">
    <defs>
     <path id="mb539ca6c37" d="M 397.617908 -2.470909 
L 397.617908 -3.939128 
L 398.380725 -4.044391 
L 399.143541 -4.157403 
L 399.906357 -4.279287 
L 400.669173 -4.410912 
L 401.431989 -4.552813 
L 402.194805 -4.705182 
L 402.957621 -4.867918 
L 403.720437 -5.040728 
L 404.483254 -5.223257 
L 405.24607 -5.415225 
L 406.008886 -5.616532 
L 406.771702 -5.827334 
L 407.534518 -6.048061 
L 408.297334 -6.279383 
L 409.06015 -6.522133 
L 409.822967 -6.777202 
L 410.585783 -7.04541 
L 411.348599 -7.327373 
L 412.111415 -7.62337 
L 412.874231 -7.933232 
L 413.637047 -8.256273 
L 414.399863 -8.591291 
L 415.162679 -8.936669 
L 415.925496 -9.290573 
L 416.688312 -9.651225 
L 417.451128 -10.017202 
L 418.213944 -10.387666 
L 418.97676 -10.762479 
L 419.739576 -11.142136 
L 420.502392 -11.527554 
L 421.265208 -11.919753 
L 422.028025 -12.319544 
L 422.790841 -12.727307 
L 423.553657 -13.142935 
L 424.316473 -13.565959 
L 425.079289 -13.995799 
L 425.842105 -14.432089 
L 426.604921 -14.874973 
L 427.367738 -15.325309 
L 428.130554 -15.784755 
L 428.89337 -16.255726 
L 429.656186 -16.74125 
L 430.419002 -17.244751 
L 431.181818 -17.769776 
L 431.944634 -18.319689 
L 432.70745 -18.897327 
L 433.470267 -19.504654 
L 434.233083 -20.142425 
L 434.995899 -20.809907 
L 435.758715 -21.504712 
L 436.521531 -22.222772 
L 437.284347 -22.958492 
L 438.047163 -23.705072 
L 438.809979 -24.454971 
L 439.572796 -25.200453 
L 440.335612 -25.93417 
L 441.098428 -26.649694 
L 441.861244 -27.341973 
L 442.62406 -28.007653 
L 443.386876 -28.645264 
L 444.149692 -29.255243 
L 444.912509 -29.83982 
L 445.675325 -30.402755 
L 446.438141 -30.948937 
L 447.200957 -31.483882 
L 447.963773 -32.013138 
L 448.726589 -32.541684 
L 449.489405 -33.073367 
L 450.252221 -33.610474 
L 451.015038 -34.153505 
L 451.777854 -34.701186 
L 452.54067 -35.250704 
L 453.303486 -35.798098 
L 454.066302 -36.338728 
L 454.829118 -36.867683 
L 455.591934 -37.38009 
L 456.354751 -37.871268 
L 457.117567 -38.336789 
L 457.880383 -38.772509 
L 458.643199 -39.174646 
L 459.406015 -39.53996 
L 460.168831 -39.865986 
L 460.931647 -40.151259 
L 461.694463 -40.3954 
L 462.45728 -40.598958 
L 463.220096 -40.762991 
L 463.982912 -40.888442 
L 464.745728 -40.975488 
L 465.508544 -41.023069 
L 466.27136 -41.0288 
L 467.034176 -40.989371 
L 467.796992 -40.901394 
L 468.559809 -40.762539 
L 469.322625 -40.572657 
L 470.085441 -40.334611 
L 470.848257 -40.054553 
L 471.611073 -39.741541 
L 472.373889 -39.406531 
L 473.136705 -39.060929 
L 473.899522 -38.714993 
L 474.662338 -38.37638 
L 475.425154 -38.049125 
L 476.18797 -37.733184 
L 476.950786 -37.424626 
L 477.713602 -37.116345 
L 478.476418 -36.799159 
L 479.239234 -36.463048 
L 480.002051 -36.098345 
L 480.764867 -35.69673 
L 481.527683 -35.251934 
L 482.290499 -34.760193 
L 483.053315 -34.220459 
L 483.816131 -33.63445 
L 484.578947 -33.006535 
L 485.341763 -32.343452 
L 486.10458 -31.653779 
L 486.867396 -30.947155 
L 487.630212 -30.23324 
L 488.393028 -29.520554 
L 489.155844 -28.815383 
L 489.91866 -28.120988 
L 490.681476 -27.437321 
L 491.444293 -26.761361 
L 492.207109 -26.088007 
L 492.969925 -25.411348 
L 493.732741 -24.726036 
L 494.495557 -24.028443 
L 495.258373 -23.317392 
L 496.021189 -22.594326 
L 496.784005 -21.862957 
L 497.546822 -21.128532 
L 498.309638 -20.396919 
L 499.072454 -19.673726 
L 499.83527 -18.963635 
L 500.598086 -18.270042 
L 501.360902 -17.595029 
L 502.123718 -16.939609 
L 502.886535 -16.304151 
L 503.649351 -15.688855 
L 504.412167 -15.094153 
L 505.174983 -14.520937 
L 505.937799 -13.970575 
L 506.700615 -13.44469 
L 507.463431 -12.944786 
L 508.226247 -12.471792 
L 508.989064 -12.025661 
L 509.75188 -11.605115 
L 510.514696 -11.207619 
L 511.277512 -10.829598 
L 512.040328 -10.466856 
L 512.803144 -10.115122 
L 513.56596 -9.770601 
L 514.328776 -9.430435 
L 515.091593 -9.092991 
L 515.854409 -8.757928 
L 516.617225 -8.426065 
L 517.380041 -8.099079 
L 518.142857 -7.779112 
L 518.905673 -7.468358 
L 519.668489 -7.168709 
L 520.431306 -6.881511 
L 521.194122 -6.607459 
L 521.956938 -6.346625 
L 522.719754 -6.098603 
L 523.48257 -5.862719 
L 524.245386 -5.638253 
L 525.008202 -5.424627 
L 525.771018 -5.221517 
L 526.533835 -5.028878 
L 527.296651 -4.846899 
L 528.059467 -4.675896 
L 528.822283 -4.516203 
L 529.585099 -4.368075 
L 530.347915 -4.231632 
L 531.110731 -4.10685 
L 531.873548 -3.993584 
L 532.636364 -3.891601 
L 532.636364 -2.470909 
L 532.636364 -2.470909 
L 531.873548 -2.470909 
L 531.110731 -2.470909 
L 530.347915 -2.470909 
L 529.585099 -2.470909 
L 528.822283 -2.470909 
L 528.059467 -2.470909 
L 527.296651 -2.470909 
L 526.533835 -2.470909 
L 525.771018 -2.470909 
L 525.008202 -2.470909 
L 524.245386 -2.470909 
L 523.48257 -2.470909 
L 522.719754 -2.470909 
L 521.956938 -2.470909 
L 521.194122 -2.470909 
L 520.431306 -2.470909 
L 519.668489 -2.470909 
L 518.905673 -2.470909 
L 518.142857 -2.470909 
L 517.380041 -2.470909 
L 516.617225 -2.470909 
L 515.854409 -2.470909 
L 515.091593 -2.470909 
L 514.328776 -2.470909 
L 513.56596 -2.470909 
L 512.803144 -2.470909 
L 512.040328 -2.470909 
L 511.277512 -2.470909 
L 510.514696 -2.470909 
L 509.75188 -2.470909 
L 508.989064 -2.470909 
L 508.226247 -2.470909 
L 507.463431 -2.470909 
L 506.700615 -2.470909 
L 505.937799 -2.470909 
L 505.174983 -2.470909 
L 504.412167 -2.470909 
L 503.649351 -2.470909 
L 502.886535 -2.470909 
L 502.123718 -2.470909 
L 501.360902 -2.470909 
L 500.598086 -2.470909 
L 499.83527 -2.470909 
L 499.072454 -2.470909 
L 498.309638 -2.470909 
L 497.546822 -2.470909 
L 496.784005 -2.470909 
L 496.021189 -2.470909 
L 495.258373 -2.470909 
L 494.495557 -2.470909 
L 493.732741 -2.470909 
L 492.969925 -2.470909 
L 492.207109 -2.470909 
L 491.444293 -2.470909 
L 490.681476 -2.470909 
L 489.91866 -2.470909 
L 489.155844 -2.470909 
L 488.393028 -2.470909 
L 487.630212 -2.470909 
L 486.867396 -2.470909 
L 486.10458 -2.470909 
L 485.341763 -2.470909 
L 484.578947 -2.470909 
L 483.816131 -2.470909 
L 483.053315 -2.470909 
L 482.290499 -2.470909 
L 481.527683 -2.470909 
L 480.764867 -2.470909 
L 480.002051 -2.470909 
L 479.239234 -2.470909 
L 478.476418 -2.470909 
L 477.713602 -2.470909 
L 476.950786 -2.470909 
L 476.18797 -2.470909 
L 475.425154 -2.470909 
L 474.662338 -2.470909 
L 473.899522 -2.470909 
L 473.136705 -2.470909 
L 472.373889 -2.470909 
L 471.611073 -2.470909 
L 470.848257 -2.470909 
L 470.085441 -2.470909 
L 469.322625 -2.470909 
L 468.559809 -2.470909 
L 467.796992 -2.470909 
L 467.034176 -2.470909 
L 466.27136 -2.470909 
L 465.508544 -2.470909 
L 464.745728 -2.470909 
L 463.982912 -2.470909 
L 463.220096 -2.470909 
L 462.45728 -2.470909 
L 461.694463 -2.470909 
L 460.931647 -2.470909 
L 460.168831 -2.470909 
L 459.406015 -2.470909 
L 458.643199 -2.470909 
L 457.880383 -2.470909 
L 457.117567 -2.470909 
L 456.354751 -2.470909 
L 455.591934 -2.470909 
L 454.829118 -2.470909 
L 454.066302 -2.470909 
L 453.303486 -2.470909 
L 452.54067 -2.470909 
L 451.777854 -2.470909 
L 451.015038 -2.470909 
L 450.252221 -2.470909 
L 449.489405 -2.470909 
L 448.726589 -2.470909 
L 447.963773 -2.470909 
L 447.200957 -2.470909 
L 446.438141 -2.470909 
L 445.675325 -2.470909 
L 444.912509 -2.470909 
L 444.149692 -2.470909 
L 443.386876 -2.470909 
L 442.62406 -2.470909 
L 441.861244 -2.470909 
L 441.098428 -2.470909 
L 440.335612 -2.470909 
L 439.572796 -2.470909 
L 438.809979 -2.470909 
L 438.047163 -2.470909 
L 437.284347 -2.470909 
L 436.521531 -2.470909 
L 435.758715 -2.470909 
L 434.995899 -2.470909 
L 434.233083 -2.470909 
L 433.470267 -2.470909 
L 432.70745 -2.470909 
L 431.944634 -2.470909 
L 431.181818 -2.470909 
L 430.419002 -2.470909 
L 429.656186 -2.470909 
L 428.89337 -2.470909 
L 428.130554 -2.470909 
L 427.367738 -2.470909 
L 426.604921 -2.470909 
L 425.842105 -2.470909 
L 425.079289 -2.470909 
L 424.316473 -2.470909 
L 423.553657 -2.470909 
L 422.790841 -2.470909 
L 422.028025 -2.470909 
L 421.265208 -2.470909 
L 420.502392 -2.470909 
L 419.739576 -2.470909 
L 418.97676 -2.470909 
L 418.213944 -2.470909 
L 417.451128 -2.470909 
L 416.688312 -2.470909 
L 415.925496 -2.470909 
L 415.162679 -2.470909 
L 414.399863 -2.470909 
L 413.637047 -2.470909 
L 412.874231 -2.470909 
L 412.111415 -2.470909 
L 411.348599 -2.470909 
L 410.585783 -2.470909 
L 409.822967 -2.470909 
L 409.06015 -2.470909 
L 408.297334 -2.470909 
L 407.534518 -2.470909 
L 406.771702 -2.470909 
L 406.008886 -2.470909 
L 405.24607 -2.470909 
L 404.483254 -2.470909 
L 403.720437 -2.470909 
L 402.957621 -2.470909 
L 402.194805 -2.470909 
L 401.431989 -2.470909 
L 400.669173 -2.470909 
L 399.906357 -2.470909 
L 399.143541 -2.470909 
L 398.380725 -2.470909 
L 397.617908 -2.470909 
z
" style="stroke: #116dc2; stroke-opacity: 0.2"/>
    </defs>
    <g clip-path="url(#p776ec50bcf)">
     <use xlink:href="#mb539ca6c37" x="0" y="54.36" style="fill: #116dc2; fill-opacity: 0.2; stroke: #116dc2; stroke-opacity: 0.2"/>
    </g>
   </g>
   <g id="PolyCollection_3">
    <defs>
     <path id="m6a8ba43d2a" d="M 25.363636 -2.470909 
L 25.363636 -5.03509 
L 26.126452 -5.744424 
L 26.889269 -6.605085 
L 27.652085 -7.579933 
L 28.414901 -8.617887 
L 29.177717 -9.738093 
L 29.940533 -11.080458 
L 30.703349 -12.783203 
L 31.466165 -14.847957 
L 32.228982 -17.13322 
L 32.991798 -19.55108 
L 33.754614 -22.332188 
L 34.51743 -25.721503 
L 35.280246 -29.442797 
L 36.043062 -32.999748 
L 36.805878 -36.263771 
L 37.568694 -39.323521 
L 38.331511 -41.994986 
L 39.094327 -43.950174 
L 39.857143 -45.33932 
L 40.619959 -46.755707 
L 41.382775 -48.537649 
L 42.145591 -50.389122 
L 42.908407 -51.626466 
L 43.671224 -51.889091 
L 44.43404 -51.564088 
L 45.196856 -51.127803 
L 45.959672 -50.336034 
L 46.722488 -48.714825 
L 47.485304 -46.506896 
L 48.24812 -44.276588 
L 49.010936 -42.005293 
L 49.773753 -39.323362 
L 50.536569 -36.145644 
L 51.299385 -32.711687 
L 52.062201 -29.2864 
L 52.825017 -26.063741 
L 53.587833 -23.234853 
L 54.350649 -20.801601 
L 55.113465 -18.490336 
L 55.876282 -16.105401 
L 56.639098 -13.768994 
L 57.401914 -11.698276 
L 58.16473 -9.929782 
L 58.927546 -8.417055 
L 59.690362 -7.213381 
L 60.453178 -6.353684 
L 61.215995 -5.703877 
L 61.978811 -5.073653 
L 61.978811 -2.470909 
L 61.978811 -2.470909 
L 61.215995 -2.470909 
L 60.453178 -2.470909 
L 59.690362 -2.470909 
L 58.927546 -2.470909 
L 58.16473 -2.470909 
L 57.401914 -2.470909 
L 56.639098 -2.470909 
L 55.876282 -2.470909 
L 55.113465 -2.470909 
L 54.350649 -2.470909 
L 53.587833 -2.470909 
L 52.825017 -2.470909 
L 52.062201 -2.470909 
L 51.299385 -2.470909 
L 50.536569 -2.470909 
L 49.773753 -2.470909 
L 49.010936 -2.470909 
L 48.24812 -2.470909 
L 47.485304 -2.470909 
L 46.722488 -2.470909 
L 45.959672 -2.470909 
L 45.196856 -2.470909 
L 44.43404 -2.470909 
L 43.671224 -2.470909 
L 42.908407 -2.470909 
L 42.145591 -2.470909 
L 41.382775 -2.470909 
L 40.619959 -2.470909 
L 39.857143 -2.470909 
L 39.094327 -2.470909 
L 38.331511 -2.470909 
L 37.568694 -2.470909 
L 36.805878 -2.470909 
L 36.043062 -2.470909 
L 35.280246 -2.470909 
L 34.51743 -2.470909 
L 33.754614 -2.470909 
L 32.991798 -2.470909 
L 32.228982 -2.470909 
L 31.466165 -2.470909 
L 30.703349 -2.470909 
L 29.940533 -2.470909 
L 29.177717 -2.470909 
L 28.414901 -2.470909 
L 27.652085 -2.470909 
L 26.889269 -2.470909 
L 26.126452 -2.470909 
L 25.363636 -2.470909 
z
" style="stroke: #8a8a8a; stroke-opacity: 0.2"/>
    </defs>
    <g clip-path="url(#p776ec50bcf)">
     <use xlink:href="#m6a8ba43d2a" x="0" y="54.36" style="fill: #8a8a8a; fill-opacity: 0.2; stroke: #8a8a8a; stroke-opacity: 0.2"/>
    </g>
   </g>
   <g id="line2d_1">
    <path d="M 190.894737 50.36588 
L 193.946001 49.747027 
L 196.997266 48.886417 
L 199.285714 48.019401 
L 201.574163 46.939734 
L 206.913876 44.051644 
L 208.439508 43.070411 
L 209.96514 41.833219 
L 211.490772 40.308532 
L 215.304853 35.924559 
L 219.88175 30.541492 
L 222.933014 26.499362 
L 225.221463 23.456106 
L 226.747095 21.67611 
L 228.272727 20.198158 
L 234.375256 14.931614 
L 236.663705 12.765334 
L 238.189337 11.691577 
L 239.714969 11.056952 
L 241.240602 10.864701 
L 242.766234 11.06089 
L 244.291866 11.577422 
L 245.817498 12.363886 
L 247.343131 13.40728 
L 248.868763 14.715125 
L 250.394395 16.270118 
L 253.44566 19.845738 
L 255.734108 22.503962 
L 257.25974 24.035877 
L 261.073821 27.499145 
L 262.599453 29.218372 
L 267.17635 34.805199 
L 268.701982 36.349302 
L 270.990431 38.276182 
L 274.804511 41.260268 
L 279.381408 45.120916 
L 281.669856 46.686003 
L 283.958305 47.916432 
L 286.246753 48.860572 
L 288.535202 49.566174 
L 291.586466 50.247366 
L 291.586466 50.247366 
" clip-path="url(#p776ec50bcf)" style="fill: none; stroke: #cf1313; stroke-width: 1.5; stroke-linecap: square"/>
   </g>
   <g id="line2d_2">
    <path d="M 397.617908 50.420872 
L 401.431989 49.807187 
L 405.24607 48.944775 
L 409.06015 47.837867 
L 412.111415 46.73663 
L 415.925496 45.069427 
L 421.265208 42.440247 
L 425.842105 39.927911 
L 429.656186 37.61875 
L 431.944634 36.040311 
L 434.233083 34.217575 
L 437.284347 31.401508 
L 441.861244 27.018027 
L 444.149692 25.104757 
L 447.200957 22.876118 
L 457.880383 15.587491 
L 460.168831 14.494014 
L 461.694463 13.9646 
L 463.220096 13.597009 
L 464.745728 13.384512 
L 466.27136 13.3312 
L 467.796992 13.458606 
L 469.322625 13.787343 
L 470.848257 14.305447 
L 474.662338 15.98362 
L 480.764867 18.66327 
L 482.290499 19.599807 
L 484.578947 21.353465 
L 487.630212 24.12676 
L 492.207109 28.271993 
L 496.021189 31.765674 
L 501.360902 36.764971 
L 504.412167 39.265847 
L 506.700615 40.91531 
L 508.989064 42.334339 
L 512.040328 43.893144 
L 517.380041 46.260921 
L 521.194122 47.752541 
L 524.245386 48.721747 
L 528.059467 49.684104 
L 531.110731 50.25315 
L 532.636364 50.468399 
L 532.636364 50.468399 
" clip-path="url(#p776ec50bcf)" style="fill: none; stroke: #116dc2; stroke-width: 1.5; stroke-linecap: square"/>
   </g>
   <g id="line2d_3">
    <path d="M 25.363636 49.32491 
L 26.126452 48.615576 
L 26.889269 47.754915 
L 27.652085 46.780067 
L 28.414901 45.742113 
L 29.177717 44.621907 
L 29.940533 43.279542 
L 30.703349 41.576797 
L 31.466165 39.512043 
L 32.228982 37.22678 
L 32.991798 34.80892 
L 33.754614 32.027812 
L 34.51743 28.638497 
L 35.280246 24.917203 
L 36.043062 21.360252 
L 36.805878 18.096229 
L 37.568694 15.036479 
L 38.331511 12.365014 
L 39.094327 10.409826 
L 39.857143 9.02068 
L 40.619959 7.604293 
L 41.382775 5.822351 
L 42.145591 3.970878 
L 42.908407 2.733534 
L 43.671224 2.470909 
L 44.43404 2.795912 
L 45.196856 3.232197 
L 45.959672 4.023966 
L 46.722488 5.645175 
L 47.485304 7.853104 
L 48.24812 10.083412 
L 49.010936 12.354707 
L 49.773753 15.036638 
L 50.536569 18.214356 
L 51.299385 21.648313 
L 52.062201 25.0736 
L 52.825017 28.296259 
L 53.587833 31.125147 
L 54.350649 33.558399 
L 55.113465 35.869664 
L 55.876282 38.254599 
L 56.639098 40.591006 
L 57.401914 42.661724 
L 58.16473 44.430218 
L 58.927546 45.942945 
L 59.690362 47.146619 
L 60.453178 48.006316 
L 61.215995 48.656123 
L 61.978811 49.286347 
" clip-path="url(#p776ec50bcf)" style="fill: none; stroke: #8a8a8a; stroke-width: 1.5; stroke-linecap: square"/>
   </g>
  </g>
 </g>
 <defs>
  <clipPath id="p776ec50bcf">
   <rect x="0" y="-0" width="558" height="54.36"/>
  </clipPath>
 </defs>
</svg>
