<?xml version="1.0" encoding="utf-8" standalone="no"?>
<!DOCTYPE svg PUBLIC "-//W3C//DTD SVG 1.1//EN"
  "http://www.w3.org/Graphics/SVG/1.1/DTD/svg11.dtd">
<svg xmlns:xlink="http://www.w3.org/1999/xlink" width="558pt" height="54.36pt" viewBox="0 0 558 54.36" xmlns="http://www.w3.org/2000/svg" version="1.1">
 <metadata>
  <rdf:RDF xmlns:dc="http://purl.org/dc/elements/1.1/" xmlns:cc="http://creativecommons.org/ns#" xmlns:rdf="http://www.w3.org/1999/02/22-rdf-syntax-ns#">
   <cc:Work>
    <dc:type rdf:resource="http://purl.org/dc/dcmitype/StillImage"/>
    <dc:date>2024-09-14T12:47:51.142290</dc:date>
    <dc:format>image/svg+xml</dc:format>
    <dc:creator>
     <cc:Agent>
      <dc:title>Matplotlib v3.5.2, https://matplotlib.org/</dc:title>
     </cc:Agent>
    </dc:creator>
   </cc:Work>
  </rdf:RDF>
 </metadata>
 <defs>
  <style type="text/css">*{stroke-linejoin: round; stroke-linecap: butt}</style>
 </defs>
 <g id="figure_1">
  <g id="patch_1">
   <path d="M 0 54.36 
L 558 54.36 
L 558 0 
L 0 0 
L 0 54.36 
z
" style="fill: none; opacity: 0"/>
  </g>
  <g id="axes_1">
   <g id="PolyCollection_1">
    <defs>
     <path id="mfd3f4782c7" d="M 193.435926 -2.470909 
L 193.435926 -4.21929 
L 194.19989 -4.399783 
L 194.963855 -4.594775 
L 195.72782 -4.804202 
L 196.491785 -5.027911 
L 197.25575 -5.26551 
L 198.019715 -5.516332 
L 198.78368 -5.779595 
L 199.547645 -6.054726 
L 200.31161 -6.341746 
L 201.075575 -6.641613 
L 201.83954 -6.956502 
L 202.603505 -7.290029 
L 203.36747 -7.647326 
L 204.131435 -8.034762 
L 204.8954 -8.459071 
L 205.659365 -8.925769 
L 206.42333 -9.437156 
L 207.187295 -9.990523 
L 207.95126 -10.577414 
L 208.715225 -11.184545 
L 209.479189 -11.796455 
L 210.243154 -12.399173 
L 211.007119 -12.983766 
L 211.771084 -13.548535 
L 212.535049 -14.099201 
L 213.299014 -14.647168 
L 214.062979 -15.206673 
L 214.826944 -15.791919 
L 215.590909 -16.415044 
L 216.354874 -17.085197 
L 217.118839 -17.808419 
L 217.882804 -18.587699 
L 218.646769 -19.422714 
L 219.410734 -20.309187 
L 220.174699 -21.23827 
L 220.938664 -22.196604 
L 221.702629 -23.167513 
L 222.466594 -24.133325 
L 223.230559 -25.078236 
L 223.994524 -25.990804 
L 224.758488 -26.865248 
L 225.522453 -27.701193 
L 226.286418 -28.502098 
L 227.050383 -29.273087 
L 227.814348 -30.019083 
L 228.578313 -30.743909 
L 229.342278 -31.450621 
L 230.106243 -32.142816 
L 230.870208 -32.826293 
L 231.634173 -33.51026 
L 232.398138 -34.207359 
L 233.162103 -34.932062 
L 233.926068 -35.697475 
L 234.690033 -36.511219 
L 235.453998 -37.371561 
L 236.217963 -38.26518 
L 236.981928 -39.167621 
L 237.745893 -40.046671 
L 238.509858 -40.867804 
L 239.273823 -41.60006 
L 240.037788 -42.220525 
L 240.801752 -42.716083 
L 241.565717 -43.082146 
L 242.329682 -43.319183 
L 243.093647 -43.428648 
L 243.857612 -43.410147 
L 244.621577 -43.261187 
L 245.385542 -42.979835 
L 246.149507 -42.569287 
L 246.913472 -42.042299 
L 247.677437 -41.423145 
L 248.441402 -40.745514 
L 249.205367 -40.046362 
L 249.969332 -39.35758 
L 250.733297 -38.698518 
L 251.497262 -38.072321 
L 252.261227 -37.467603 
L 253.025192 -36.864816 
L 253.789157 -36.244755 
L 254.553122 -35.595863 
L 255.317087 -34.917682 
L 256.081051 -34.219568 
L 256.845016 -33.515781 
L 257.608981 -32.819272 
L 258.372946 -32.136616 
L 259.136911 -31.465594 
L 259.900876 -30.79565 
L 260.664841 -30.110468 
L 261.428806 -29.391555 
L 262.192771 -28.621965 
L 262.956736 -27.789698 
L 263.720701 -26.890505 
L 264.484666 -25.92978 
L 265.248631 -24.92294 
L 266.012596 -23.89373 
L 266.776561 -22.870266 
L 267.540526 -21.879479 
L 268.304491 -20.941425 
L 269.068456 -20.065278 
L 269.832421 -19.248403 
L 270.596386 -18.478792 
L 271.36035 -17.739892 
L 272.124315 -17.015991 
L 272.88828 -16.296305 
L 273.652245 -15.576652 
L 274.41621 -14.858667 
L 275.180175 -14.147484 
L 275.94414 -13.449113 
L 276.708105 -12.768607 
L 277.47207 -12.109494 
L 278.236035 -11.474366 
L 279 -10.866038 
L 279.763965 -10.288597 
L 280.52793 -9.747715 
L 281.291895 -9.250009 
L 282.05586 -8.801541 
L 282.819825 -8.40596 
L 283.58379 -8.062869 
L 284.347755 -7.767 
L 285.11172 -7.508496 
L 285.875685 -7.274298 
L 286.63965 -7.050341 
L 287.403614 -6.82403 
L 288.167579 -6.586415 
L 288.931544 -6.333503 
L 289.695509 -6.066378 
L 290.459474 -5.790142 
L 291.223439 -5.512038 
L 291.987404 -5.239379 
L 292.751369 -4.977919 
L 293.515334 -4.731081 
L 294.279299 -4.500078 
L 294.279299 -2.470909 
L 294.279299 -2.470909 
L 293.515334 -2.470909 
L 292.751369 -2.470909 
L 291.987404 -2.470909 
L 291.223439 -2.470909 
L 290.459474 -2.470909 
L 289.695509 -2.470909 
L 288.931544 -2.470909 
L 288.167579 -2.470909 
L 287.403614 -2.470909 
L 286.63965 -2.470909 
L 285.875685 -2.470909 
L 285.11172 -2.470909 
L 284.347755 -2.470909 
L 283.58379 -2.470909 
L 282.819825 -2.470909 
L 282.05586 -2.470909 
L 281.291895 -2.470909 
L 280.52793 -2.470909 
L 279.763965 -2.470909 
L 279 -2.470909 
L 278.236035 -2.470909 
L 277.47207 -2.470909 
L 276.708105 -2.470909 
L 275.94414 -2.470909 
L 275.180175 -2.470909 
L 274.41621 -2.470909 
L 273.652245 -2.470909 
L 272.88828 -2.470909 
L 272.124315 -2.470909 
L 271.36035 -2.470909 
L 270.596386 -2.470909 
L 269.832421 -2.470909 
L 269.068456 -2.470909 
L 268.304491 -2.470909 
L 267.540526 -2.470909 
L 266.776561 -2.470909 
L 266.012596 -2.470909 
L 265.248631 -2.470909 
L 264.484666 -2.470909 
L 263.720701 -2.470909 
L 262.956736 -2.470909 
L 262.192771 -2.470909 
L 261.428806 -2.470909 
L 260.664841 -2.470909 
L 259.900876 -2.470909 
L 259.136911 -2.470909 
L 258.372946 -2.470909 
L 257.608981 -2.470909 
L 256.845016 -2.470909 
L 256.081051 -2.470909 
L 255.317087 -2.470909 
L 254.553122 -2.470909 
L 253.789157 -2.470909 
L 253.025192 -2.470909 
L 252.261227 -2.470909 
L 251.497262 -2.470909 
L 250.733297 -2.470909 
L 249.969332 -2.470909 
L 249.205367 -2.470909 
L 248.441402 -2.470909 
L 247.677437 -2.470909 
L 246.913472 -2.470909 
L 246.149507 -2.470909 
L 245.385542 -2.470909 
L 244.621577 -2.470909 
L 243.857612 -2.470909 
L 243.093647 -2.470909 
L 242.329682 -2.470909 
L 241.565717 -2.470909 
L 240.801752 -2.470909 
L 240.037788 -2.470909 
L 239.273823 -2.470909 
L 238.509858 -2.470909 
L 237.745893 -2.470909 
L 236.981928 -2.470909 
L 236.217963 -2.470909 
L 235.453998 -2.470909 
L 234.690033 -2.470909 
L 233.926068 -2.470909 
L 233.162103 -2.470909 
L 232.398138 -2.470909 
L 231.634173 -2.470909 
L 230.870208 -2.470909 
L 230.106243 -2.470909 
L 229.342278 -2.470909 
L 228.578313 -2.470909 
L 227.814348 -2.470909 
L 227.050383 -2.470909 
L 226.286418 -2.470909 
L 225.522453 -2.470909 
L 224.758488 -2.470909 
L 223.994524 -2.470909 
L 223.230559 -2.470909 
L 222.466594 -2.470909 
L 221.702629 -2.470909 
L 220.938664 -2.470909 
L 220.174699 -2.470909 
L 219.410734 -2.470909 
L 218.646769 -2.470909 
L 217.882804 -2.470909 
L 217.118839 -2.470909 
L 216.354874 -2.470909 
L 215.590909 -2.470909 
L 214.826944 -2.470909 
L 214.062979 -2.470909 
L 213.299014 -2.470909 
L 212.535049 -2.470909 
L 211.771084 -2.470909 
L 211.007119 -2.470909 
L 210.243154 -2.470909 
L 209.479189 -2.470909 
L 208.715225 -2.470909 
L 207.95126 -2.470909 
L 207.187295 -2.470909 
L 206.42333 -2.470909 
L 205.659365 -2.470909 
L 204.8954 -2.470909 
L 204.131435 -2.470909 
L 203.36747 -2.470909 
L 202.603505 -2.470909 
L 201.83954 -2.470909 
L 201.075575 -2.470909 
L 200.31161 -2.470909 
L 199.547645 -2.470909 
L 198.78368 -2.470909 
L 198.019715 -2.470909 
L 197.25575 -2.470909 
L 196.491785 -2.470909 
L 195.72782 -2.470909 
L 194.963855 -2.470909 
L 194.19989 -2.470909 
L 193.435926 -2.470909 
z
" style="stroke: #cf1313; stroke-opacity: 0.2"/>
    </defs>
    <g clip-path="url(#p555d0d1880)">
     <use xlink:href="#mfd3f4782c7" x="0" y="54.36" style="fill: #cf1313; fill-opacity: 0.2; stroke: #cf1313; stroke-opacity: 0.2"/>
    </g>
   </g>
   <g id="PolyCollection_2">
    <defs>
     <path id="m89250ddfdf" d="M 399.706462 -2.470909 
L 399.706462 -3.925573 
L 400.470427 -4.047034 
L 401.234392 -4.173879 
L 401.998357 -4.304385 
L 402.762322 -4.437279 
L 403.526287 -4.571975 
L 404.290252 -4.708734 
L 405.054217 -4.848727 
L 405.818182 -4.993984 
L 406.582147 -5.147237 
L 407.346112 -5.31166 
L 408.110077 -5.490531 
L 408.874042 -5.686859 
L 409.638007 -5.903024 
L 410.401972 -6.140468 
L 411.165936 -6.399512 
L 411.929901 -6.679322 
L 412.693866 -6.978066 
L 413.457831 -7.293254 
L 414.221796 -7.62221 
L 414.985761 -7.962595 
L 415.749726 -8.312882 
L 416.513691 -8.672655 
L 417.277656 -9.042673 
L 418.041621 -9.42467 
L 418.805586 -9.820938 
L 419.569551 -10.233821 
L 420.333516 -10.665249 
L 421.097481 -11.116451 
L 421.861446 -11.587917 
L 422.625411 -12.079603 
L 423.389376 -12.591285 
L 424.153341 -13.122908 
L 424.917306 -13.674792 
L 425.681271 -14.24756 
L 426.445235 -14.841793 
L 427.2092 -15.457455 
L 427.973165 -16.093262 
L 428.73713 -16.746185 
L 429.501095 -17.411247 
L 430.26506 -18.081752 
L 431.029025 -18.749938 
L 431.79299 -19.40798 
L 432.556955 -20.049182 
L 433.32092 -20.669129 
L 434.084885 -21.266601 
L 434.84885 -21.844071 
L 435.612815 -22.407685 
L 436.37678 -22.966704 
L 437.140745 -23.532461 
L 437.90471 -24.116988 
L 438.668675 -24.73147 
L 439.43264 -25.384765 
L 440.196605 -26.082182 
L 440.96057 -26.824681 
L 441.724535 -27.608606 
L 442.488499 -28.425976 
L 443.252464 -29.265256 
L 444.016429 -30.112498 
L 444.780394 -30.952669 
L 445.544359 -31.770993 
L 446.308324 -32.554154 
L 447.072289 -33.291241 
L 447.836254 -33.974382 
L 448.600219 -34.599036 
L 449.364184 -35.163964 
L 450.128149 -35.670918 
L 450.892114 -36.124078 
L 451.656079 -36.529335 
L 452.420044 -36.89346 
L 453.184009 -37.223278 
L 453.947974 -37.524922 
L 454.711939 -37.803278 
L 455.475904 -38.061676 
L 456.239869 -38.30188 
L 457.003834 -38.524355 
L 457.767798 -38.728754 
L 458.531763 -38.914523 
L 459.295728 -39.081495 
L 460.059693 -39.230361 
L 460.823658 -39.362921 
L 461.587623 -39.482072 
L 462.351588 -39.59155 
L 463.115553 -39.695478 
L 463.879518 -39.797794 
L 464.643483 -39.901665 
L 465.407448 -40.008959 
L 466.171413 -40.119854 
L 466.935378 -40.232617 
L 467.699343 -40.343603 
L 468.463308 -40.447468 
L 469.227273 -40.537564 
L 469.991238 -40.606492 
L 470.755203 -40.646704 
L 471.519168 -40.651086 
L 472.283133 -40.61342 
L 473.047097 -40.528669 
L 473.811062 -40.393056 
L 474.575027 -40.203969 
L 475.338992 -39.959766 
L 476.102957 -39.659572 
L 476.866922 -39.303157 
L 477.630887 -38.890961 
L 478.394852 -38.424278 
L 479.158817 -37.905554 
L 479.922782 -37.338719 
L 480.686747 -36.729435 
L 481.450712 -36.08517 
L 482.214677 -35.415022 
L 482.978642 -34.729257 
L 483.742607 -34.0386 
L 484.506572 -33.35335 
L 485.270537 -32.682432 
L 486.034502 -32.032539 
L 486.798467 -31.407477 
L 487.562432 -30.807853 
L 488.326396 -30.231145 
L 489.090361 -29.672166 
L 489.854326 -29.123849 
L 490.618291 -28.578225 
L 491.382256 -28.027449 
L 492.146221 -27.464714 
L 492.910186 -26.884952 
L 493.674151 -26.285224 
L 494.438116 -25.664811 
L 495.202081 -25.025027 
L 495.966046 -24.368819 
L 496.730011 -23.70024 
L 497.493976 -23.023897 
L 498.257941 -22.344428 
L 499.021906 -21.666097 
L 499.785871 -20.992509 
L 500.549836 -20.32649 
L 501.313801 -19.670087 
L 502.077766 -19.02467 
L 502.841731 -18.391095 
L 503.605696 -17.769877 
L 504.36966 -17.161353 
L 505.133625 -16.565818 
L 505.89759 -15.983633 
L 506.661555 -15.415326 
L 507.42552 -14.861684 
L 508.189485 -14.323832 
L 508.95345 -13.803271 
L 509.717415 -13.301828 
L 510.48138 -12.821483 
L 511.245345 -12.364046 
L 512.00931 -11.930726 
L 512.773275 -11.521669 
L 513.53724 -11.135585 
L 514.301205 -10.769601 
L 515.06517 -10.419414 
L 515.829135 -10.079771 
L 516.5931 -9.745194 
L 517.357065 -9.410819 
L 518.12103 -9.073152 
L 518.884995 -8.730599 
L 519.648959 -8.38365 
L 520.412924 -8.034724 
L 521.176889 -7.687701 
L 521.940854 -7.347297 
L 522.704819 -7.018366 
L 523.468784 -6.705292 
L 524.232749 -6.411499 
L 524.996714 -6.139164 
L 525.760679 -5.889108 
L 526.524644 -5.660848 
L 527.288609 -5.452813 
L 528.052574 -5.262642 
L 528.816539 -5.087563 
L 529.580504 -4.924768 
L 530.344469 -4.771752 
L 531.108434 -4.62655 
L 531.872399 -4.487858 
L 532.636364 -4.35501 
L 532.636364 -2.470909 
L 532.636364 -2.470909 
L 531.872399 -2.470909 
L 531.108434 -2.470909 
L 530.344469 -2.470909 
L 529.580504 -2.470909 
L 528.816539 -2.470909 
L 528.052574 -2.470909 
L 527.288609 -2.470909 
L 526.524644 -2.470909 
L 525.760679 -2.470909 
L 524.996714 -2.470909 
L 524.232749 -2.470909 
L 523.468784 -2.470909 
L 522.704819 -2.470909 
L 521.940854 -2.470909 
L 521.176889 -2.470909 
L 520.412924 -2.470909 
L 519.648959 -2.470909 
L 518.884995 -2.470909 
L 518.12103 -2.470909 
L 517.357065 -2.470909 
L 516.5931 -2.470909 
L 515.829135 -2.470909 
L 515.06517 -2.470909 
L 514.301205 -2.470909 
L 513.53724 -2.470909 
L 512.773275 -2.470909 
L 512.00931 -2.470909 
L 511.245345 -2.470909 
L 510.48138 -2.470909 
L 509.717415 -2.470909 
L 508.95345 -2.470909 
L 508.189485 -2.470909 
L 507.42552 -2.470909 
L 506.661555 -2.470909 
L 505.89759 -2.470909 
L 505.133625 -2.470909 
L 504.36966 -2.470909 
L 503.605696 -2.470909 
L 502.841731 -2.470909 
L 502.077766 -2.470909 
L 501.313801 -2.470909 
L 500.549836 -2.470909 
L 499.785871 -2.470909 
L 499.021906 -2.470909 
L 498.257941 -2.470909 
L 497.493976 -2.470909 
L 496.730011 -2.470909 
L 495.966046 -2.470909 
L 495.202081 -2.470909 
L 494.438116 -2.470909 
L 493.674151 -2.470909 
L 492.910186 -2.470909 
L 492.146221 -2.470909 
L 491.382256 -2.470909 
L 490.618291 -2.470909 
L 489.854326 -2.470909 
L 489.090361 -2.470909 
L 488.326396 -2.470909 
L 487.562432 -2.470909 
L 486.798467 -2.470909 
L 486.034502 -2.470909 
L 485.270537 -2.470909 
L 484.506572 -2.470909 
L 483.742607 -2.470909 
L 482.978642 -2.470909 
L 482.214677 -2.470909 
L 481.450712 -2.470909 
L 480.686747 -2.470909 
L 479.922782 -2.470909 
L 479.158817 -2.470909 
L 478.394852 -2.470909 
L 477.630887 -2.470909 
L 476.866922 -2.470909 
L 476.102957 -2.470909 
L 475.338992 -2.470909 
L 474.575027 -2.470909 
L 473.811062 -2.470909 
L 473.047097 -2.470909 
L 472.283133 -2.470909 
L 471.519168 -2.470909 
L 470.755203 -2.470909 
L 469.991238 -2.470909 
L 469.227273 -2.470909 
L 468.463308 -2.470909 
L 467.699343 -2.470909 
L 466.935378 -2.470909 
L 466.171413 -2.470909 
L 465.407448 -2.470909 
L 464.643483 -2.470909 
L 463.879518 -2.470909 
L 463.115553 -2.470909 
L 462.351588 -2.470909 
L 461.587623 -2.470909 
L 460.823658 -2.470909 
L 460.059693 -2.470909 
L 459.295728 -2.470909 
L 458.531763 -2.470909 
L 457.767798 -2.470909 
L 457.003834 -2.470909 
L 456.239869 -2.470909 
L 455.475904 -2.470909 
L 454.711939 -2.470909 
L 453.947974 -2.470909 
L 453.184009 -2.470909 
L 452.420044 -2.470909 
L 451.656079 -2.470909 
L 450.892114 -2.470909 
L 450.128149 -2.470909 
L 449.364184 -2.470909 
L 448.600219 -2.470909 
L 447.836254 -2.470909 
L 447.072289 -2.470909 
L 446.308324 -2.470909 
L 445.544359 -2.470909 
L 444.780394 -2.470909 
L 444.016429 -2.470909 
L 443.252464 -2.470909 
L 442.488499 -2.470909 
L 441.724535 -2.470909 
L 440.96057 -2.470909 
L 440.196605 -2.470909 
L 439.43264 -2.470909 
L 438.668675 -2.470909 
L 437.90471 -2.470909 
L 437.140745 -2.470909 
L 436.37678 -2.470909 
L 435.612815 -2.470909 
L 434.84885 -2.470909 
L 434.084885 -2.470909 
L 433.32092 -2.470909 
L 432.556955 -2.470909 
L 431.79299 -2.470909 
L 431.029025 -2.470909 
L 430.26506 -2.470909 
L 429.501095 -2.470909 
L 428.73713 -2.470909 
L 427.973165 -2.470909 
L 427.2092 -2.470909 
L 426.445235 -2.470909 
L 425.681271 -2.470909 
L 424.917306 -2.470909 
L 424.153341 -2.470909 
L 423.389376 -2.470909 
L 422.625411 -2.470909 
L 421.861446 -2.470909 
L 421.097481 -2.470909 
L 420.333516 -2.470909 
L 419.569551 -2.470909 
L 418.805586 -2.470909 
L 418.041621 -2.470909 
L 417.277656 -2.470909 
L 416.513691 -2.470909 
L 415.749726 -2.470909 
L 414.985761 -2.470909 
L 414.221796 -2.470909 
L 413.457831 -2.470909 
L 412.693866 -2.470909 
L 411.929901 -2.470909 
L 411.165936 -2.470909 
L 410.401972 -2.470909 
L 409.638007 -2.470909 
L 408.874042 -2.470909 
L 408.110077 -2.470909 
L 407.346112 -2.470909 
L 406.582147 -2.470909 
L 405.818182 -2.470909 
L 405.054217 -2.470909 
L 404.290252 -2.470909 
L 403.526287 -2.470909 
L 402.762322 -2.470909 
L 401.998357 -2.470909 
L 401.234392 -2.470909 
L 400.470427 -2.470909 
L 399.706462 -2.470909 
z
" style="stroke: #116dc2; stroke-opacity: 0.2"/>
    </defs>
    <g clip-path="url(#p555d0d1880)">
     <use xlink:href="#m89250ddfdf" x="0" y="54.36" style="fill: #116dc2; fill-opacity: 0.2; stroke: #116dc2; stroke-opacity: 0.2"/>
    </g>
   </g>
   <g id="PolyCollection_3">
    <defs>
     <path id="m627d3a855d" d="M 25.363636 -2.470909 
L 25.363636 -4.494466 
L 26.127601 -5.053761 
L 26.891566 -5.731723 
L 27.655531 -6.535856 
L 28.419496 -7.50853 
L 29.183461 -8.718496 
L 29.947426 -10.20241 
L 30.711391 -11.960557 
L 31.475356 -13.950811 
L 32.239321 -16.023951 
L 33.003286 -17.996545 
L 33.767251 -19.890436 
L 34.531216 -22.03051 
L 35.295181 -24.71728 
L 36.059146 -27.793109 
L 36.823111 -30.765967 
L 37.587076 -33.3381 
L 38.351041 -35.729723 
L 39.115005 -38.447969 
L 39.87897 -41.553771 
L 40.642935 -44.499582 
L 41.4069 -46.889798 
L 42.170865 -48.727975 
L 42.93483 -50.022309 
L 43.698795 -50.832662 
L 44.46276 -51.421829 
L 45.226725 -51.889091 
L 45.99069 -51.831208 
L 46.754655 -50.689094 
L 47.51862 -48.465062 
L 48.282585 -45.823158 
L 49.04655 -43.327234 
L 49.810515 -40.923409 
L 50.57448 -38.3132 
L 51.338445 -35.455749 
L 52.10241 -32.509562 
L 52.866375 -29.564647 
L 53.63034 -26.618507 
L 54.394304 -23.69214 
L 55.158269 -20.919042 
L 55.922234 -18.469358 
L 56.686199 -16.322784 
L 57.450164 -14.298911 
L 58.214129 -12.348265 
L 58.978094 -10.588003 
L 59.742059 -9.102229 
L 60.506024 -7.871708 
L 61.269989 -6.845357 
L 62.033954 -6.007261 
L 62.797919 -5.360738 
L 63.561884 -4.851159 
L 63.561884 -2.470909 
L 63.561884 -2.470909 
L 62.797919 -2.470909 
L 62.033954 -2.470909 
L 61.269989 -2.470909 
L 60.506024 -2.470909 
L 59.742059 -2.470909 
L 58.978094 -2.470909 
L 58.214129 -2.470909 
L 57.450164 -2.470909 
L 56.686199 -2.470909 
L 55.922234 -2.470909 
L 55.158269 -2.470909 
L 54.394304 -2.470909 
L 53.63034 -2.470909 
L 52.866375 -2.470909 
L 52.10241 -2.470909 
L 51.338445 -2.470909 
L 50.57448 -2.470909 
L 49.810515 -2.470909 
L 49.04655 -2.470909 
L 48.282585 -2.470909 
L 47.51862 -2.470909 
L 46.754655 -2.470909 
L 45.99069 -2.470909 
L 45.226725 -2.470909 
L 44.46276 -2.470909 
L 43.698795 -2.470909 
L 42.93483 -2.470909 
L 42.170865 -2.470909 
L 41.4069 -2.470909 
L 40.642935 -2.470909 
L 39.87897 -2.470909 
L 39.115005 -2.470909 
L 38.351041 -2.470909 
L 37.587076 -2.470909 
L 36.823111 -2.470909 
L 36.059146 -2.470909 
L 35.295181 -2.470909 
L 34.531216 -2.470909 
L 33.767251 -2.470909 
L 33.003286 -2.470909 
L 32.239321 -2.470909 
L 31.475356 -2.470909 
L 30.711391 -2.470909 
L 29.947426 -2.470909 
L 29.183461 -2.470909 
L 28.419496 -2.470909 
L 27.655531 -2.470909 
L 26.891566 -2.470909 
L 26.127601 -2.470909 
L 25.363636 -2.470909 
z
" style="stroke: #8a8a8a; stroke-opacity: 0.2"/>
    </defs>
    <g clip-path="url(#p555d0d1880)">
     <use xlink:href="#m627d3a855d" x="0" y="54.36" style="fill: #8a8a8a; fill-opacity: 0.2; stroke: #8a8a8a; stroke-opacity: 0.2"/>
    </g>
   </g>
   <g id="line2d_1">
    <path d="M 193.435926 50.14071 
L 196.491785 49.332089 
L 199.547645 48.305274 
L 202.603505 47.069971 
L 204.8954 45.900929 
L 206.42333 44.922844 
L 208.715225 43.175455 
L 211.771084 40.811465 
L 215.590909 37.944956 
L 217.118839 36.551581 
L 218.646769 34.937286 
L 220.938664 32.163396 
L 223.994524 28.369196 
L 226.286418 25.857902 
L 229.342278 22.909379 
L 233.926068 18.662525 
L 236.217963 16.09482 
L 238.509858 13.492196 
L 240.037788 12.139475 
L 241.565717 11.277854 
L 242.329682 11.040817 
L 243.093647 10.931352 
L 243.857612 10.949853 
L 244.621577 11.098813 
L 245.385542 11.380165 
L 246.913472 12.317701 
L 249.205367 14.313638 
L 251.497262 16.287679 
L 255.317087 19.442318 
L 262.956736 26.570302 
L 265.248631 29.43706 
L 268.304491 33.418575 
L 270.596386 35.881208 
L 275.94414 40.910887 
L 279 43.493962 
L 281.291895 45.109991 
L 282.819825 45.95404 
L 284.347755 46.593 
L 288.167579 47.773585 
L 294.279299 49.859922 
L 294.279299 49.859922 
" clip-path="url(#p555d0d1880)" style="fill: none; stroke: #cf1313; stroke-width: 1.5; stroke-linecap: square"/>
   </g>
   <g id="line2d_2">
    <path d="M 399.706462 50.434427 
L 405.818182 49.366016 
L 408.874042 48.673141 
L 411.165936 47.960488 
L 414.221796 46.73779 
L 418.041621 44.93533 
L 421.097481 43.243549 
L 424.153341 41.237092 
L 427.2092 38.902545 
L 436.37678 31.393296 
L 438.668675 29.62853 
L 440.96057 27.535319 
L 444.016429 24.247502 
L 446.308324 21.805846 
L 447.836254 20.385618 
L 449.364184 19.196036 
L 450.892114 18.235922 
L 453.184009 17.136722 
L 455.475904 16.298324 
L 458.531763 15.445477 
L 461.587623 14.877928 
L 469.991238 13.753508 
L 471.519168 13.708914 
L 473.047097 13.831331 
L 474.575027 14.156031 
L 476.102957 14.700428 
L 477.630887 15.469039 
L 479.158817 16.454446 
L 481.450712 18.27483 
L 487.562432 23.552147 
L 495.966046 29.991181 
L 504.36966 37.198647 
L 508.189485 40.036168 
L 511.245345 41.995954 
L 513.53724 43.224415 
L 517.357065 44.949181 
L 524.996714 48.220836 
L 527.288609 48.907187 
L 530.344469 49.588248 
L 532.636364 50.00499 
L 532.636364 50.00499 
" clip-path="url(#p555d0d1880)" style="fill: none; stroke: #116dc2; stroke-width: 1.5; stroke-linecap: square"/>
   </g>
   <g id="line2d_3">
    <path d="M 25.363636 49.865534 
L 26.127601 49.306239 
L 26.891566 48.628277 
L 27.655531 47.824144 
L 28.419496 46.85147 
L 29.183461 45.641504 
L 29.947426 44.15759 
L 30.711391 42.399443 
L 31.475356 40.409189 
L 32.239321 38.336049 
L 33.003286 36.363455 
L 33.767251 34.469564 
L 34.531216 32.32949 
L 35.295181 29.64272 
L 36.059146 26.566891 
L 36.823111 23.594033 
L 37.587076 21.0219 
L 38.351041 18.630277 
L 39.115005 15.912031 
L 39.87897 12.806229 
L 40.642935 9.860418 
L 41.4069 7.470202 
L 42.170865 5.632025 
L 42.93483 4.337691 
L 43.698795 3.527338 
L 44.46276 2.938171 
L 45.226725 2.470909 
L 45.99069 2.528792 
L 46.754655 3.670906 
L 47.51862 5.894938 
L 48.282585 8.536842 
L 49.04655 11.032766 
L 49.810515 13.436591 
L 50.57448 16.0468 
L 51.338445 18.904251 
L 52.10241 21.850438 
L 52.866375 24.795353 
L 53.63034 27.741493 
L 54.394304 30.66786 
L 55.158269 33.440958 
L 55.922234 35.890642 
L 56.686199 38.037216 
L 57.450164 40.061089 
L 58.214129 42.011735 
L 58.978094 43.771997 
L 59.742059 45.257771 
L 60.506024 46.488292 
L 61.269989 47.514643 
L 62.033954 48.352739 
L 62.797919 48.999262 
L 63.561884 49.508841 
" clip-path="url(#p555d0d1880)" style="fill: none; stroke: #8a8a8a; stroke-width: 1.5; stroke-linecap: square"/>
   </g>
  </g>
 </g>
 <defs>
  <clipPath id="p555d0d1880">
   <rect x="0" y="-0" width="558" height="54.36"/>
  </clipPath>
 </defs>
</svg>
