<?xml version="1.0" encoding="utf-8" standalone="no"?>
<!DOCTYPE svg PUBLIC "-//W3C//DTD SVG 1.1//EN"
  "http://www.w3.org/Graphics/SVG/1.1/DTD/svg11.dtd">
<svg xmlns:xlink="http://www.w3.org/1999/xlink" width="558pt" height="54.36pt" viewBox="0 0 558 54.36" xmlns="http://www.w3.org/2000/svg" version="1.1">
 <metadata>
  <rdf:RDF xmlns:dc="http://purl.org/dc/elements/1.1/" xmlns:cc="http://creativecommons.org/ns#" xmlns:rdf="http://www.w3.org/1999/02/22-rdf-syntax-ns#">
   <cc:Work>
    <dc:type rdf:resource="http://purl.org/dc/dcmitype/StillImage"/>
    <dc:date>2024-09-14T12:47:44.903428</dc:date>
    <dc:format>image/svg+xml</dc:format>
    <dc:creator>
     <cc:Agent>
      <dc:title>Matplotlib v3.5.2, https://matplotlib.org/</dc:title>
     </cc:Agent>
    </dc:creator>
   </cc:Work>
  </rdf:RDF>
 </metadata>
 <defs>
  <style type="text/css">*{stroke-linejoin: round; stroke-linecap: butt}</style>
 </defs>
 <g id="figure_1">
  <g id="patch_1">
   <path d="M 0 54.36 
L 558 54.36 
L 558 0 
L 0 0 
L 0 54.36 
z
" style="fill: none; opacity: 0"/>
  </g>
  <g id="axes_1">
   <g id="PolyCollection_1">
    <defs>
     <path id="mc2dee98887" d="M 246.482517 -2.470909 
L 246.482517 -4.499098 
L 247.34965 -4.627332 
L 248.216783 -4.758994 
L 249.083916 -4.895156 
L 249.951049 -5.037088 
L 250.818182 -5.186122 
L 251.685315 -5.343509 
L 252.552448 -5.510263 
L 253.41958 -5.68703 
L 254.286713 -5.87398 
L 255.153846 -6.070741 
L 256.020979 -6.27638 
L 256.888112 -6.489437 
L 257.755245 -6.708008 
L 258.622378 -6.92988 
L 259.48951 -7.152704 
L 260.356643 -7.374205 
L 261.223776 -7.5924 
L 262.090909 -7.80582 
L 262.958042 -8.013708 
L 263.825175 -8.21617 
L 264.692308 -8.414258 
L 265.559441 -8.609982 
L 266.426573 -8.806233 
L 267.293706 -9.006622 
L 268.160839 -9.215251 
L 269.027972 -9.436437 
L 269.895105 -9.674411 
L 270.762238 -9.933018 
L 271.629371 -10.215452 
L 272.496503 -10.524046 
L 273.363636 -10.860124 
L 274.230769 -11.223928 
L 275.097902 -11.614631 
L 275.965035 -12.0304 
L 276.832168 -12.468533 
L 277.699301 -12.925635 
L 278.566434 -13.397824 
L 279.433566 -13.88096 
L 280.300699 -14.37088 
L 281.167832 -14.86363 
L 282.034965 -15.355673 
L 282.902098 -15.84408 
L 283.769231 -16.326675 
L 284.636364 -16.802128 
L 285.503497 -17.26999 
L 286.370629 -17.73066 
L 287.237762 -18.185285 
L 288.104895 -18.635598 
L 288.972028 -19.083707 
L 289.839161 -19.53186 
L 290.706294 -19.982206 
L 291.573427 -20.436576 
L 292.440559 -20.896322 
L 293.307692 -21.362217 
L 294.174825 -21.834436 
L 295.041958 -22.312614 
L 295.909091 -22.79597 
L 296.776224 -23.283464 
L 297.643357 -23.773984 
L 298.51049 -24.266498 
L 299.377622 -24.760192 
L 300.244755 -25.254532 
L 301.111888 -25.749291 
L 301.979021 -26.244515 
L 302.846154 -26.740461 
L 303.713287 -27.237519 
L 304.58042 -27.736141 
L 305.447552 -28.236774 
L 306.314685 -28.739815 
L 307.181818 -29.24556 
L 308.048951 -29.754159 
L 308.916084 -30.26554 
L 309.783217 -30.779311 
L 310.65035 -31.294638 
L 311.517483 -31.810111 
L 312.384615 -32.323626 
L 313.251748 -32.832313 
L 314.118881 -33.33254 
L 314.986014 -33.820017 
L 315.853147 -34.289997 
L 316.72028 -34.737584 
L 317.587413 -35.158105 
L 318.454545 -35.547507 
L 319.321678 -35.902739 
L 320.188811 -36.222061 
L 321.055944 -36.505249 
L 321.923077 -36.753667 
L 322.79021 -36.970194 
L 323.657343 -37.159039 
L 324.524476 -37.325441 
L 325.391608 -37.475314 
L 326.258741 -37.614866 
L 327.125874 -37.750221 
L 327.993007 -37.887079 
L 328.86014 -38.030413 
L 329.727273 -38.184235 
L 330.594406 -38.351395 
L 331.461538 -38.533451 
L 332.328671 -38.730582 
L 333.195804 -38.941564 
L 334.062937 -39.163812 
L 334.93007 -39.3935 
L 335.797203 -39.625748 
L 336.664336 -39.854888 
L 337.531469 -40.07477 
L 338.398601 -40.279094 
L 339.265734 -40.461735 
L 340.132867 -40.617026 
L 341 -40.739981 
L 341.867133 -40.826457 
L 342.734266 -40.873251 
L 343.601399 -40.878157 
L 344.468531 -40.840012 
L 345.335664 -40.758732 
L 346.202797 -40.635368 
L 347.06993 -40.472151 
L 347.937063 -40.272511 
L 348.804196 -40.041038 
L 349.671329 -39.783336 
L 350.538462 -39.505763 
L 351.405594 -39.215042 
L 352.272727 -38.917767 
L 353.13986 -38.619868 
L 354.006993 -38.326076 
L 354.874126 -38.039486 
L 355.741259 -37.761266 
L 356.608392 -37.490567 
L 357.475524 -37.224635 
L 358.342657 -36.959123 
L 359.20979 -36.68856 
L 360.076923 -36.406894 
L 360.944056 -36.108073 
L 361.811189 -35.786568 
L 362.678322 -35.437807 
L 363.545455 -35.058484 
L 364.412587 -34.646723 
L 365.27972 -34.202115 
L 366.146853 -33.725631 
L 367.013986 -33.219455 
L 367.881119 -32.686743 
L 368.748252 -32.131362 
L 369.615385 -31.557608 
L 370.482517 -30.969946 
L 371.34965 -30.372778 
L 372.216783 -29.770256 
L 373.083916 -29.16616 
L 373.951049 -28.563826 
L 374.818182 -27.966146 
L 375.685315 -27.375605 
L 376.552448 -26.794365 
L 377.41958 -26.224356 
L 378.286713 -25.667355 
L 379.153846 -25.125043 
L 380.020979 -24.599001 
L 380.888112 -24.090661 
L 381.755245 -23.60119 
L 382.622378 -23.131336 
L 383.48951 -22.681246 
L 384.356643 -22.250292 
L 385.223776 -21.836932 
L 386.090909 -21.438632 
L 386.958042 -21.051886 
L 387.825175 -20.672333 
L 388.692308 -20.29498 
L 389.559441 -19.914515 
L 390.426573 -19.525685 
L 391.293706 -19.123701 
L 392.160839 -18.704631 
L 393.027972 -18.265738 
L 393.895105 -17.805729 
L 394.762238 -17.324887 
L 395.629371 -16.825078 
L 396.496503 -16.309622 
L 397.363636 -15.783063 
L 398.230769 -15.250828 
L 399.097902 -14.718846 
L 399.965035 -14.193125 
L 400.832168 -13.679346 
L 401.699301 -13.182502 
L 402.566434 -12.706591 
L 403.433566 -12.254419 
L 404.300699 -11.827486 
L 405.167832 -11.425988 
L 406.034965 -11.048916 
L 406.902098 -10.694243 
L 407.769231 -10.359179 
L 408.636364 -10.040467 
L 409.503497 -9.734701 
L 410.370629 -9.438619 
L 411.237762 -9.149369 
L 412.104895 -8.864705 
L 412.972028 -8.583119 
L 413.839161 -8.303876 
L 414.706294 -8.026988 
L 415.573427 -7.753111 
L 416.440559 -7.483389 
L 417.307692 -7.219281 
L 418.174825 -6.962367 
L 419.041958 -6.714183 
L 419.909091 -6.476082 
L 420.776224 -6.249133 
L 421.643357 -6.034077 
L 422.51049 -5.83132 
L 423.377622 -5.640959 
L 424.244755 -5.462838 
L 425.111888 -5.296611 
L 425.979021 -5.141805 
L 426.846154 -4.997876 
L 427.713287 -4.864252 
L 428.58042 -4.740352 
L 429.447552 -4.625599 
L 430.314685 -4.519411 
L 431.181818 -4.421192 
L 432.048951 -4.330307 
L 432.916084 -4.246074 
L 433.783217 -4.167743 
L 434.65035 -4.094497 
L 435.517483 -4.025455 
L 435.517483 -2.470909 
L 435.517483 -2.470909 
L 434.65035 -2.470909 
L 433.783217 -2.470909 
L 432.916084 -2.470909 
L 432.048951 -2.470909 
L 431.181818 -2.470909 
L 430.314685 -2.470909 
L 429.447552 -2.470909 
L 428.58042 -2.470909 
L 427.713287 -2.470909 
L 426.846154 -2.470909 
L 425.979021 -2.470909 
L 425.111888 -2.470909 
L 424.244755 -2.470909 
L 423.377622 -2.470909 
L 422.51049 -2.470909 
L 421.643357 -2.470909 
L 420.776224 -2.470909 
L 419.909091 -2.470909 
L 419.041958 -2.470909 
L 418.174825 -2.470909 
L 417.307692 -2.470909 
L 416.440559 -2.470909 
L 415.573427 -2.470909 
L 414.706294 -2.470909 
L 413.839161 -2.470909 
L 412.972028 -2.470909 
L 412.104895 -2.470909 
L 411.237762 -2.470909 
L 410.370629 -2.470909 
L 409.503497 -2.470909 
L 408.636364 -2.470909 
L 407.769231 -2.470909 
L 406.902098 -2.470909 
L 406.034965 -2.470909 
L 405.167832 -2.470909 
L 404.300699 -2.470909 
L 403.433566 -2.470909 
L 402.566434 -2.470909 
L 401.699301 -2.470909 
L 400.832168 -2.470909 
L 399.965035 -2.470909 
L 399.097902 -2.470909 
L 398.230769 -2.470909 
L 397.363636 -2.470909 
L 396.496503 -2.470909 
L 395.629371 -2.470909 
L 394.762238 -2.470909 
L 393.895105 -2.470909 
L 393.027972 -2.470909 
L 392.160839 -2.470909 
L 391.293706 -2.470909 
L 390.426573 -2.470909 
L 389.559441 -2.470909 
L 388.692308 -2.470909 
L 387.825175 -2.470909 
L 386.958042 -2.470909 
L 386.090909 -2.470909 
L 385.223776 -2.470909 
L 384.356643 -2.470909 
L 383.48951 -2.470909 
L 382.622378 -2.470909 
L 381.755245 -2.470909 
L 380.888112 -2.470909 
L 380.020979 -2.470909 
L 379.153846 -2.470909 
L 378.286713 -2.470909 
L 377.41958 -2.470909 
L 376.552448 -2.470909 
L 375.685315 -2.470909 
L 374.818182 -2.470909 
L 373.951049 -2.470909 
L 373.083916 -2.470909 
L 372.216783 -2.470909 
L 371.34965 -2.470909 
L 370.482517 -2.470909 
L 369.615385 -2.470909 
L 368.748252 -2.470909 
L 367.881119 -2.470909 
L 367.013986 -2.470909 
L 366.146853 -2.470909 
L 365.27972 -2.470909 
L 364.412587 -2.470909 
L 363.545455 -2.470909 
L 362.678322 -2.470909 
L 361.811189 -2.470909 
L 360.944056 -2.470909 
L 360.076923 -2.470909 
L 359.20979 -2.470909 
L 358.342657 -2.470909 
L 357.475524 -2.470909 
L 356.608392 -2.470909 
L 355.741259 -2.470909 
L 354.874126 -2.470909 
L 354.006993 -2.470909 
L 353.13986 -2.470909 
L 352.272727 -2.470909 
L 351.405594 -2.470909 
L 350.538462 -2.470909 
L 349.671329 -2.470909 
L 348.804196 -2.470909 
L 347.937063 -2.470909 
L 347.06993 -2.470909 
L 346.202797 -2.470909 
L 345.335664 -2.470909 
L 344.468531 -2.470909 
L 343.601399 -2.470909 
L 342.734266 -2.470909 
L 341.867133 -2.470909 
L 341 -2.470909 
L 340.132867 -2.470909 
L 339.265734 -2.470909 
L 338.398601 -2.470909 
L 337.531469 -2.470909 
L 336.664336 -2.470909 
L 335.797203 -2.470909 
L 334.93007 -2.470909 
L 334.062937 -2.470909 
L 333.195804 -2.470909 
L 332.328671 -2.470909 
L 331.461538 -2.470909 
L 330.594406 -2.470909 
L 329.727273 -2.470909 
L 328.86014 -2.470909 
L 327.993007 -2.470909 
L 327.125874 -2.470909 
L 326.258741 -2.470909 
L 325.391608 -2.470909 
L 324.524476 -2.470909 
L 323.657343 -2.470909 
L 322.79021 -2.470909 
L 321.923077 -2.470909 
L 321.055944 -2.470909 
L 320.188811 -2.470909 
L 319.321678 -2.470909 
L 318.454545 -2.470909 
L 317.587413 -2.470909 
L 316.72028 -2.470909 
L 315.853147 -2.470909 
L 314.986014 -2.470909 
L 314.118881 -2.470909 
L 313.251748 -2.470909 
L 312.384615 -2.470909 
L 311.517483 -2.470909 
L 310.65035 -2.470909 
L 309.783217 -2.470909 
L 308.916084 -2.470909 
L 308.048951 -2.470909 
L 307.181818 -2.470909 
L 306.314685 -2.470909 
L 305.447552 -2.470909 
L 304.58042 -2.470909 
L 303.713287 -2.470909 
L 302.846154 -2.470909 
L 301.979021 -2.470909 
L 301.111888 -2.470909 
L 300.244755 -2.470909 
L 299.377622 -2.470909 
L 298.51049 -2.470909 
L 297.643357 -2.470909 
L 296.776224 -2.470909 
L 295.909091 -2.470909 
L 295.041958 -2.470909 
L 294.174825 -2.470909 
L 293.307692 -2.470909 
L 292.440559 -2.470909 
L 291.573427 -2.470909 
L 290.706294 -2.470909 
L 289.839161 -2.470909 
L 288.972028 -2.470909 
L 288.104895 -2.470909 
L 287.237762 -2.470909 
L 286.370629 -2.470909 
L 285.503497 -2.470909 
L 284.636364 -2.470909 
L 283.769231 -2.470909 
L 282.902098 -2.470909 
L 282.034965 -2.470909 
L 281.167832 -2.470909 
L 280.300699 -2.470909 
L 279.433566 -2.470909 
L 278.566434 -2.470909 
L 277.699301 -2.470909 
L 276.832168 -2.470909 
L 275.965035 -2.470909 
L 275.097902 -2.470909 
L 274.230769 -2.470909 
L 273.363636 -2.470909 
L 272.496503 -2.470909 
L 271.629371 -2.470909 
L 270.762238 -2.470909 
L 269.895105 -2.470909 
L 269.027972 -2.470909 
L 268.160839 -2.470909 
L 267.293706 -2.470909 
L 266.426573 -2.470909 
L 265.559441 -2.470909 
L 264.692308 -2.470909 
L 263.825175 -2.470909 
L 262.958042 -2.470909 
L 262.090909 -2.470909 
L 261.223776 -2.470909 
L 260.356643 -2.470909 
L 259.48951 -2.470909 
L 258.622378 -2.470909 
L 257.755245 -2.470909 
L 256.888112 -2.470909 
L 256.020979 -2.470909 
L 255.153846 -2.470909 
L 254.286713 -2.470909 
L 253.41958 -2.470909 
L 252.552448 -2.470909 
L 251.685315 -2.470909 
L 250.818182 -2.470909 
L 249.951049 -2.470909 
L 249.083916 -2.470909 
L 248.216783 -2.470909 
L 247.34965 -2.470909 
L 246.482517 -2.470909 
z
" style="stroke: #cf1313; stroke-opacity: 0.2"/>
    </defs>
    <g clip-path="url(#p0bdfe766ae)">
     <use xlink:href="#mc2dee98887" x="0" y="54.36" style="fill: #cf1313; fill-opacity: 0.2; stroke: #cf1313; stroke-opacity: 0.2"/>
    </g>
   </g>
   <g id="PolyCollection_2">
    <defs>
     <path id="m649538129a" d="M 347.937063 -2.470909 
L 347.937063 -3.839953 
L 348.804196 -3.925946 
L 349.671329 -4.018107 
L 350.538462 -4.117579 
L 351.405594 -4.2253 
L 352.272727 -4.341919 
L 353.13986 -4.467752 
L 354.006993 -4.602789 
L 354.874126 -4.746731 
L 355.741259 -4.899066 
L 356.608392 -5.059154 
L 357.475524 -5.22632 
L 358.342657 -5.399932 
L 359.20979 -5.579473 
L 360.076923 -5.764582 
L 360.944056 -5.955088 
L 361.811189 -6.151022 
L 362.678322 -6.352606 
L 363.545455 -6.560242 
L 364.412587 -6.774479 
L 365.27972 -6.995981 
L 366.146853 -7.225469 
L 367.013986 -7.463677 
L 367.881119 -7.711277 
L 368.748252 -7.96882 
L 369.615385 -8.236667 
L 370.482517 -8.514926 
L 371.34965 -8.803415 
L 372.216783 -9.101645 
L 373.083916 -9.408837 
L 373.951049 -9.723992 
L 374.818182 -10.04599 
L 375.685315 -10.373738 
L 376.552448 -10.70633 
L 377.41958 -11.043211 
L 378.286713 -11.384309 
L 379.153846 -11.730115 
L 380.020979 -12.081698 
L 380.888112 -12.440632 
L 381.755245 -12.808848 
L 382.622378 -13.188438 
L 383.48951 -13.581413 
L 384.356643 -13.989472 
L 385.223776 -14.413797 
L 386.090909 -14.854906 
L 386.958042 -15.312579 
L 387.825175 -15.78586 
L 388.692308 -16.273126 
L 389.559441 -16.772231 
L 390.426573 -17.280676 
L 391.293706 -17.79582 
L 392.160839 -18.315098 
L 393.027972 -18.836225 
L 393.895105 -19.357384 
L 394.762238 -19.877379 
L 395.629371 -20.395721 
L 396.496503 -20.912667 
L 397.363636 -21.429177 
L 398.230769 -21.946795 
L 399.097902 -22.467462 
L 399.965035 -22.993271 
L 400.832168 -23.52619 
L 401.699301 -24.067775 
L 402.566434 -24.618909 
L 403.433566 -25.179601 
L 404.300699 -25.748864 
L 405.167832 -26.324687 
L 406.034965 -26.90412 
L 406.902098 -27.483452 
L 407.769231 -28.058478 
L 408.636364 -28.62482 
L 409.503497 -29.178284 
L 410.370629 -29.715205 
L 411.237762 -30.23276 
L 412.104895 -30.729204 
L 412.972028 -31.20401 
L 413.839161 -31.657891 
L 414.706294 -32.092702 
L 415.573427 -32.511222 
L 416.440559 -32.916853 
L 417.307692 -33.313259 
L 418.174825 -33.704005 
L 419.041958 -34.092236 
L 419.909091 -34.480437 
L 420.776224 -34.870305 
L 421.643357 -35.262734 
L 422.51049 -35.657897 
L 423.377622 -36.055397 
L 424.244755 -36.45444 
L 425.111888 -36.853981 
L 425.979021 -37.252819 
L 426.846154 -37.649625 
L 427.713287 -38.042891 
L 428.58042 -38.43084 
L 429.447552 -38.811319 
L 430.314685 -39.181709 
L 431.181818 -39.538891 
L 432.048951 -39.879276 
L 432.916084 -40.198913 
L 433.783217 -40.493647 
L 434.65035 -40.759314 
L 435.517483 -40.991933 
L 436.384615 -41.187878 
L 437.251748 -41.343993 
L 438.118881 -41.457658 
L 438.986014 -41.526806 
L 439.853147 -41.549903 
L 440.72028 -41.52593 
L 441.587413 -41.454368 
L 442.454545 -41.335228 
L 443.321678 -41.169119 
L 444.188811 -40.957341 
L 445.055944 -40.702 
L 445.923077 -40.406106 
L 446.79021 -40.073618 
L 447.657343 -39.709424 
L 448.524476 -39.319216 
L 449.391608 -38.909277 
L 450.258741 -38.486169 
L 451.125874 -38.056359 
L 451.993007 -37.625818 
L 452.86014 -37.199635 
L 453.727273 -36.781684 
L 454.594406 -36.374402 
L 455.461538 -35.978694 
L 456.328671 -35.593977 
L 457.195804 -35.218365 
L 458.062937 -34.848975 
L 458.93007 -34.482294 
L 459.797203 -34.114587 
L 460.664336 -33.742266 
L 461.531469 -33.362208 
L 462.398601 -32.971965 
L 463.265734 -32.569866 
L 464.132867 -32.155022 
L 465 -31.727237 
L 465.867133 -31.28688 
L 466.734266 -30.834724 
L 467.601399 -30.371801 
L 468.468531 -29.899286 
L 469.335664 -29.418417 
L 470.202797 -28.930454 
L 471.06993 -28.436672 
L 471.937063 -27.938356 
L 472.804196 -27.43681 
L 473.671329 -26.93334 
L 474.538462 -26.429226 
L 475.405594 -25.925675 
L 476.272727 -25.423757 
L 477.13986 -24.924349 
L 478.006993 -24.428089 
L 478.874126 -23.935359 
L 479.741259 -23.446302 
L 480.608392 -22.960872 
L 481.475524 -22.478911 
L 482.342657 -22.000233 
L 483.20979 -21.524696 
L 484.076923 -21.052249 
L 484.944056 -20.582925 
L 485.811189 -20.116795 
L 486.678322 -19.653874 
L 487.545455 -19.194015 
L 488.412587 -18.736803 
L 489.27972 -18.281494 
L 490.146853 -17.827018 
L 491.013986 -17.372053 
L 491.881119 -16.915194 
L 492.748252 -16.455166 
L 493.615385 -15.991081 
L 494.482517 -15.522675 
L 495.34965 -15.050494 
L 496.216783 -14.575986 
L 497.083916 -14.101478 
L 497.951049 -13.630026 
L 498.818182 -13.16517 
L 499.685315 -12.710601 
L 500.552448 -12.269811 
L 501.41958 -11.845765 
L 502.286713 -11.440639 
L 503.153846 -11.055672 
L 504.020979 -10.691134 
L 504.888112 -10.346415 
L 505.755245 -10.020214 
L 506.622378 -9.710785 
L 507.48951 -9.416207 
L 508.356643 -9.134622 
L 509.223776 -8.864423 
L 510.090909 -8.604365 
L 510.958042 -8.353582 
L 511.825175 -8.111548 
L 512.692308 -7.877975 
L 513.559441 -7.652688 
L 514.426573 -7.435502 
L 515.293706 -7.226134 
L 516.160839 -7.024142 
L 517.027972 -6.828923 
L 517.895105 -6.639748 
L 518.762238 -6.455834 
L 519.629371 -6.276422 
L 520.496503 -6.100864 
L 521.363636 -5.928676 
L 522.230769 -5.759577 
L 523.097902 -5.593487 
L 523.965035 -5.430496 
L 524.832168 -5.270819 
L 525.699301 -5.114738 
L 526.566434 -4.962547 
L 527.433566 -4.81452 
L 528.300699 -4.670882 
L 529.167832 -4.531821 
L 530.034965 -4.397496 
L 530.902098 -4.268068 
L 531.769231 -4.143726 
L 532.636364 -4.024701 
L 532.636364 -2.470909 
L 532.636364 -2.470909 
L 531.769231 -2.470909 
L 530.902098 -2.470909 
L 530.034965 -2.470909 
L 529.167832 -2.470909 
L 528.300699 -2.470909 
L 527.433566 -2.470909 
L 526.566434 -2.470909 
L 525.699301 -2.470909 
L 524.832168 -2.470909 
L 523.965035 -2.470909 
L 523.097902 -2.470909 
L 522.230769 -2.470909 
L 521.363636 -2.470909 
L 520.496503 -2.470909 
L 519.629371 -2.470909 
L 518.762238 -2.470909 
L 517.895105 -2.470909 
L 517.027972 -2.470909 
L 516.160839 -2.470909 
L 515.293706 -2.470909 
L 514.426573 -2.470909 
L 513.559441 -2.470909 
L 512.692308 -2.470909 
L 511.825175 -2.470909 
L 510.958042 -2.470909 
L 510.090909 -2.470909 
L 509.223776 -2.470909 
L 508.356643 -2.470909 
L 507.48951 -2.470909 
L 506.622378 -2.470909 
L 505.755245 -2.470909 
L 504.888112 -2.470909 
L 504.020979 -2.470909 
L 503.153846 -2.470909 
L 502.286713 -2.470909 
L 501.41958 -2.470909 
L 500.552448 -2.470909 
L 499.685315 -2.470909 
L 498.818182 -2.470909 
L 497.951049 -2.470909 
L 497.083916 -2.470909 
L 496.216783 -2.470909 
L 495.34965 -2.470909 
L 494.482517 -2.470909 
L 493.615385 -2.470909 
L 492.748252 -2.470909 
L 491.881119 -2.470909 
L 491.013986 -2.470909 
L 490.146853 -2.470909 
L 489.27972 -2.470909 
L 488.412587 -2.470909 
L 487.545455 -2.470909 
L 486.678322 -2.470909 
L 485.811189 -2.470909 
L 484.944056 -2.470909 
L 484.076923 -2.470909 
L 483.20979 -2.470909 
L 482.342657 -2.470909 
L 481.475524 -2.470909 
L 480.608392 -2.470909 
L 479.741259 -2.470909 
L 478.874126 -2.470909 
L 478.006993 -2.470909 
L 477.13986 -2.470909 
L 476.272727 -2.470909 
L 475.405594 -2.470909 
L 474.538462 -2.470909 
L 473.671329 -2.470909 
L 472.804196 -2.470909 
L 471.937063 -2.470909 
L 471.06993 -2.470909 
L 470.202797 -2.470909 
L 469.335664 -2.470909 
L 468.468531 -2.470909 
L 467.601399 -2.470909 
L 466.734266 -2.470909 
L 465.867133 -2.470909 
L 465 -2.470909 
L 464.132867 -2.470909 
L 463.265734 -2.470909 
L 462.398601 -2.470909 
L 461.531469 -2.470909 
L 460.664336 -2.470909 
L 459.797203 -2.470909 
L 458.93007 -2.470909 
L 458.062937 -2.470909 
L 457.195804 -2.470909 
L 456.328671 -2.470909 
L 455.461538 -2.470909 
L 454.594406 -2.470909 
L 453.727273 -2.470909 
L 452.86014 -2.470909 
L 451.993007 -2.470909 
L 451.125874 -2.470909 
L 450.258741 -2.470909 
L 449.391608 -2.470909 
L 448.524476 -2.470909 
L 447.657343 -2.470909 
L 446.79021 -2.470909 
L 445.923077 -2.470909 
L 445.055944 -2.470909 
L 444.188811 -2.470909 
L 443.321678 -2.470909 
L 442.454545 -2.470909 
L 441.587413 -2.470909 
L 440.72028 -2.470909 
L 439.853147 -2.470909 
L 438.986014 -2.470909 
L 438.118881 -2.470909 
L 437.251748 -2.470909 
L 436.384615 -2.470909 
L 435.517483 -2.470909 
L 434.65035 -2.470909 
L 433.783217 -2.470909 
L 432.916084 -2.470909 
L 432.048951 -2.470909 
L 431.181818 -2.470909 
L 430.314685 -2.470909 
L 429.447552 -2.470909 
L 428.58042 -2.470909 
L 427.713287 -2.470909 
L 426.846154 -2.470909 
L 425.979021 -2.470909 
L 425.111888 -2.470909 
L 424.244755 -2.470909 
L 423.377622 -2.470909 
L 422.51049 -2.470909 
L 421.643357 -2.470909 
L 420.776224 -2.470909 
L 419.909091 -2.470909 
L 419.041958 -2.470909 
L 418.174825 -2.470909 
L 417.307692 -2.470909 
L 416.440559 -2.470909 
L 415.573427 -2.470909 
L 414.706294 -2.470909 
L 413.839161 -2.470909 
L 412.972028 -2.470909 
L 412.104895 -2.470909 
L 411.237762 -2.470909 
L 410.370629 -2.470909 
L 409.503497 -2.470909 
L 408.636364 -2.470909 
L 407.769231 -2.470909 
L 406.902098 -2.470909 
L 406.034965 -2.470909 
L 405.167832 -2.470909 
L 404.300699 -2.470909 
L 403.433566 -2.470909 
L 402.566434 -2.470909 
L 401.699301 -2.470909 
L 400.832168 -2.470909 
L 399.965035 -2.470909 
L 399.097902 -2.470909 
L 398.230769 -2.470909 
L 397.363636 -2.470909 
L 396.496503 -2.470909 
L 395.629371 -2.470909 
L 394.762238 -2.470909 
L 393.895105 -2.470909 
L 393.027972 -2.470909 
L 392.160839 -2.470909 
L 391.293706 -2.470909 
L 390.426573 -2.470909 
L 389.559441 -2.470909 
L 388.692308 -2.470909 
L 387.825175 -2.470909 
L 386.958042 -2.470909 
L 386.090909 -2.470909 
L 385.223776 -2.470909 
L 384.356643 -2.470909 
L 383.48951 -2.470909 
L 382.622378 -2.470909 
L 381.755245 -2.470909 
L 380.888112 -2.470909 
L 380.020979 -2.470909 
L 379.153846 -2.470909 
L 378.286713 -2.470909 
L 377.41958 -2.470909 
L 376.552448 -2.470909 
L 375.685315 -2.470909 
L 374.818182 -2.470909 
L 373.951049 -2.470909 
L 373.083916 -2.470909 
L 372.216783 -2.470909 
L 371.34965 -2.470909 
L 370.482517 -2.470909 
L 369.615385 -2.470909 
L 368.748252 -2.470909 
L 367.881119 -2.470909 
L 367.013986 -2.470909 
L 366.146853 -2.470909 
L 365.27972 -2.470909 
L 364.412587 -2.470909 
L 363.545455 -2.470909 
L 362.678322 -2.470909 
L 361.811189 -2.470909 
L 360.944056 -2.470909 
L 360.076923 -2.470909 
L 359.20979 -2.470909 
L 358.342657 -2.470909 
L 357.475524 -2.470909 
L 356.608392 -2.470909 
L 355.741259 -2.470909 
L 354.874126 -2.470909 
L 354.006993 -2.470909 
L 353.13986 -2.470909 
L 352.272727 -2.470909 
L 351.405594 -2.470909 
L 350.538462 -2.470909 
L 349.671329 -2.470909 
L 348.804196 -2.470909 
L 347.937063 -2.470909 
z
" style="stroke: #116dc2; stroke-opacity: 0.2"/>
    </defs>
    <g clip-path="url(#p0bdfe766ae)">
     <use xlink:href="#m649538129a" x="0" y="54.36" style="fill: #116dc2; fill-opacity: 0.2; stroke: #116dc2; stroke-opacity: 0.2"/>
    </g>
   </g>
   <g id="PolyCollection_3">
    <defs>
     <path id="ma8f93e9132" d="M 25.363636 -2.470909 
L 25.363636 -4.976403 
L 26.230769 -5.471748 
L 27.097902 -6.136687 
L 27.965035 -7.018881 
L 28.832168 -8.096313 
L 29.699301 -9.263812 
L 30.566434 -10.379146 
L 31.433566 -11.363125 
L 32.300699 -12.266169 
L 33.167832 -13.243917 
L 34.034965 -14.486098 
L 34.902098 -16.142847 
L 35.769231 -18.251004 
L 36.636364 -20.70808 
L 37.503497 -23.342766 
L 38.370629 -26.00791 
L 39.237762 -28.591274 
L 40.104895 -30.976317 
L 40.972028 -33.063353 
L 41.839161 -34.86672 
L 42.706294 -36.566562 
L 43.573427 -38.400852 
L 44.440559 -40.476723 
L 45.307692 -42.699303 
L 46.174825 -44.847905 
L 47.041958 -46.670737 
L 47.909091 -47.976902 
L 48.776224 -48.768531 
L 49.643357 -49.300535 
L 50.51049 -49.912374 
L 51.377622 -50.722816 
L 52.244755 -51.503919 
L 53.111888 -51.889091 
L 53.979021 -51.672728 
L 54.846154 -50.877649 
L 55.713287 -49.612357 
L 56.58042 -47.972092 
L 57.447552 -46.053879 
L 58.314685 -43.951875 
L 59.181818 -41.71206 
L 60.048951 -39.364299 
L 60.916084 -37.009366 
L 61.783217 -34.787283 
L 62.65035 -32.729473 
L 63.517483 -30.727714 
L 64.384615 -28.682992 
L 65.251748 -26.594943 
L 66.118881 -24.479487 
L 66.986014 -22.313115 
L 67.853147 -20.121125 
L 68.72028 -18.040619 
L 69.587413 -16.219523 
L 70.454545 -14.677437 
L 71.321678 -13.304749 
L 72.188811 -11.977778 
L 73.055944 -10.656537 
L 73.923077 -9.401301 
L 74.79021 -8.31481 
L 75.657343 -7.448836 
L 76.524476 -6.753986 
L 77.391608 -6.127622 
L 78.258741 -5.509601 
L 79.125874 -4.92195 
L 79.125874 -2.470909 
L 79.125874 -2.470909 
L 78.258741 -2.470909 
L 77.391608 -2.470909 
L 76.524476 -2.470909 
L 75.657343 -2.470909 
L 74.79021 -2.470909 
L 73.923077 -2.470909 
L 73.055944 -2.470909 
L 72.188811 -2.470909 
L 71.321678 -2.470909 
L 70.454545 -2.470909 
L 69.587413 -2.470909 
L 68.72028 -2.470909 
L 67.853147 -2.470909 
L 66.986014 -2.470909 
L 66.118881 -2.470909 
L 65.251748 -2.470909 
L 64.384615 -2.470909 
L 63.517483 -2.470909 
L 62.65035 -2.470909 
L 61.783217 -2.470909 
L 60.916084 -2.470909 
L 60.048951 -2.470909 
L 59.181818 -2.470909 
L 58.314685 -2.470909 
L 57.447552 -2.470909 
L 56.58042 -2.470909 
L 55.713287 -2.470909 
L 54.846154 -2.470909 
L 53.979021 -2.470909 
L 53.111888 -2.470909 
L 52.244755 -2.470909 
L 51.377622 -2.470909 
L 50.51049 -2.470909 
L 49.643357 -2.470909 
L 48.776224 -2.470909 
L 47.909091 -2.470909 
L 47.041958 -2.470909 
L 46.174825 -2.470909 
L 45.307692 -2.470909 
L 44.440559 -2.470909 
L 43.573427 -2.470909 
L 42.706294 -2.470909 
L 41.839161 -2.470909 
L 40.972028 -2.470909 
L 40.104895 -2.470909 
L 39.237762 -2.470909 
L 38.370629 -2.470909 
L 37.503497 -2.470909 
L 36.636364 -2.470909 
L 35.769231 -2.470909 
L 34.902098 -2.470909 
L 34.034965 -2.470909 
L 33.167832 -2.470909 
L 32.300699 -2.470909 
L 31.433566 -2.470909 
L 30.566434 -2.470909 
L 29.699301 -2.470909 
L 28.832168 -2.470909 
L 27.965035 -2.470909 
L 27.097902 -2.470909 
L 26.230769 -2.470909 
L 25.363636 -2.470909 
z
" style="stroke: #8a8a8a; stroke-opacity: 0.2"/>
    </defs>
    <g clip-path="url(#p0bdfe766ae)">
     <use xlink:href="#ma8f93e9132" x="0" y="54.36" style="fill: #8a8a8a; fill-opacity: 0.2; stroke: #8a8a8a; stroke-opacity: 0.2"/>
    </g>
   </g>
   <g id="line2d_1">
    <path d="M 246.482517 49.860902 
L 251.685315 49.016491 
L 256.020979 48.08362 
L 271.629371 44.144548 
L 274.230769 43.136072 
L 276.832168 41.891467 
L 281.167832 39.49637 
L 287.237762 36.174715 
L 295.909091 31.56403 
L 307.181818 25.11444 
L 316.72028 19.622416 
L 319.321678 18.457261 
L 321.923077 17.606333 
L 324.524476 17.034559 
L 332.328671 15.629418 
L 341 13.620019 
L 342.734266 13.486749 
L 344.468531 13.519988 
L 346.202797 13.724632 
L 348.804196 14.318962 
L 352.272727 15.442233 
L 357.475524 17.135365 
L 361.811189 18.573432 
L 364.412587 19.713277 
L 367.013986 21.140545 
L 370.482517 23.390054 
L 379.153846 29.234957 
L 382.622378 31.228664 
L 386.090909 32.921368 
L 393.027972 36.094262 
L 396.496503 38.050378 
L 402.566434 41.653409 
L 405.167832 42.934012 
L 407.769231 44.000821 
L 412.104895 45.495295 
L 419.041958 47.645817 
L 422.51049 48.52868 
L 425.979021 49.218195 
L 430.314685 49.840589 
L 435.517483 50.334545 
L 435.517483 50.334545 
" clip-path="url(#p0bdfe766ae)" style="fill: none; stroke: #cf1313; stroke-width: 1.5; stroke-linecap: square"/>
   </g>
   <g id="line2d_2">
    <path d="M 347.937063 50.520047 
L 352.272727 50.018081 
L 356.608392 49.300846 
L 361.811189 48.208978 
L 367.013986 46.896323 
L 371.34965 45.556585 
L 376.552448 43.65367 
L 381.755245 41.551152 
L 385.223776 39.946203 
L 388.692308 38.086874 
L 394.762238 34.482621 
L 403.433566 29.180399 
L 411.237762 24.12724 
L 414.706294 22.267298 
L 419.041958 20.267764 
L 432.916084 14.161087 
L 435.517483 13.368067 
L 437.251748 13.016007 
L 438.986014 12.833194 
L 440.72028 12.83407 
L 442.454545 13.024772 
L 444.188811 13.402659 
L 445.923077 13.953894 
L 448.524476 15.040784 
L 458.93007 19.877706 
L 463.265734 21.790134 
L 466.734266 23.525276 
L 471.937063 26.421644 
L 483.20979 32.835304 
L 491.881119 37.444806 
L 503.153846 43.304328 
L 506.622378 44.649215 
L 510.958042 46.006418 
L 515.293706 47.133866 
L 520.496503 48.259136 
L 527.433566 49.54548 
L 532.636364 50.335299 
L 532.636364 50.335299 
" clip-path="url(#p0bdfe766ae)" style="fill: none; stroke: #116dc2; stroke-width: 1.5; stroke-linecap: square"/>
   </g>
   <g id="line2d_3">
    <path d="M 25.363636 49.383597 
L 26.230769 48.888252 
L 27.097902 48.223313 
L 27.965035 47.341119 
L 28.832168 46.263687 
L 29.699301 45.096188 
L 30.566434 43.980854 
L 31.433566 42.996875 
L 32.300699 42.093831 
L 33.167832 41.116083 
L 34.034965 39.873902 
L 34.902098 38.217153 
L 35.769231 36.108996 
L 36.636364 33.65192 
L 37.503497 31.017234 
L 38.370629 28.35209 
L 39.237762 25.768726 
L 40.104895 23.383683 
L 40.972028 21.296647 
L 41.839161 19.49328 
L 42.706294 17.793438 
L 43.573427 15.959148 
L 44.440559 13.883277 
L 45.307692 11.660697 
L 46.174825 9.512095 
L 47.041958 7.689263 
L 47.909091 6.383098 
L 48.776224 5.591469 
L 49.643357 5.059465 
L 50.51049 4.447626 
L 51.377622 3.637184 
L 52.244755 2.856081 
L 53.111888 2.470909 
L 53.979021 2.687272 
L 54.846154 3.482351 
L 55.713287 4.747643 
L 56.58042 6.387908 
L 57.447552 8.306121 
L 58.314685 10.408125 
L 59.181818 12.64794 
L 60.048951 14.995701 
L 60.916084 17.350634 
L 61.783217 19.572717 
L 62.65035 21.630527 
L 63.517483 23.632286 
L 64.384615 25.677008 
L 65.251748 27.765057 
L 66.118881 29.880513 
L 66.986014 32.046885 
L 67.853147 34.238875 
L 68.72028 36.319381 
L 69.587413 38.140477 
L 70.454545 39.682563 
L 71.321678 41.055251 
L 72.188811 42.382222 
L 73.055944 43.703463 
L 73.923077 44.958699 
L 74.79021 46.04519 
L 75.657343 46.911164 
L 76.524476 47.606014 
L 77.391608 48.232378 
L 78.258741 48.850399 
L 79.125874 49.43805 
" clip-path="url(#p0bdfe766ae)" style="fill: none; stroke: #8a8a8a; stroke-width: 1.5; stroke-linecap: square"/>
   </g>
  </g>
 </g>
 <defs>
  <clipPath id="p0bdfe766ae">
   <rect x="0" y="-0" width="558" height="54.36"/>
  </clipPath>
 </defs>
</svg>
