<?xml version="1.0" encoding="utf-8" standalone="no"?>
<!DOCTYPE svg PUBLIC "-//W3C//DTD SVG 1.1//EN"
  "http://www.w3.org/Graphics/SVG/1.1/DTD/svg11.dtd">
<svg xmlns:xlink="http://www.w3.org/1999/xlink" width="558pt" height="54.36pt" viewBox="0 0 558 54.36" xmlns="http://www.w3.org/2000/svg" version="1.1">
 <metadata>
  <rdf:RDF xmlns:dc="http://purl.org/dc/elements/1.1/" xmlns:cc="http://creativecommons.org/ns#" xmlns:rdf="http://www.w3.org/1999/02/22-rdf-syntax-ns#">
   <cc:Work>
    <dc:type rdf:resource="http://purl.org/dc/dcmitype/StillImage"/>
    <dc:date>2024-09-15T09:31:35.446392</dc:date>
    <dc:format>image/svg+xml</dc:format>
    <dc:creator>
     <cc:Agent>
      <dc:title>Matplotlib v3.5.2, https://matplotlib.org/</dc:title>
     </cc:Agent>
    </dc:creator>
   </cc:Work>
  </rdf:RDF>
 </metadata>
 <defs>
  <style type="text/css">*{stroke-linejoin: round; stroke-linecap: butt}</style>
 </defs>
 <g id="figure_1">
  <g id="patch_1">
   <path d="M 0 54.36 
L 558 54.36 
L 558 0 
L 0 0 
L 0 54.36 
z
" style="fill: none; opacity: 0"/>
  </g>
  <g id="axes_1">
   <g id="PolyCollection_1">
    <defs>
     <path id="m0d013c68af" d="M 245.239528 -2.470909 
L 245.239528 -3.892795 
L 246.105182 -3.997338 
L 246.970835 -4.109406 
L 247.836488 -4.229191 
L 248.702141 -4.35697 
L 249.567794 -4.493101 
L 250.433447 -4.637981 
L 251.2991 -4.791996 
L 252.164753 -4.955453 
L 253.030406 -5.128521 
L 253.89606 -5.311167 
L 254.761713 -5.503117 
L 255.627366 -5.703838 
L 256.493019 -5.912543 
L 257.358672 -6.128221 
L 258.224325 -6.349693 
L 259.089978 -6.57568 
L 259.955631 -6.804899 
L 260.821285 -7.036148 
L 261.686938 -7.268414 
L 262.552591 -7.500953 
L 263.418244 -7.733379 
L 264.283897 -7.965707 
L 265.14955 -8.198376 
L 266.015203 -8.432229 
L 266.880856 -8.668446 
L 267.746509 -8.908435 
L 268.612163 -9.153692 
L 269.477816 -9.405641 
L 270.343469 -9.665477 
L 271.209122 -9.934043 
L 272.074775 -10.211751 
L 272.940428 -10.498574 
L 273.806081 -10.794101 
L 274.671734 -11.097665 
L 275.537388 -11.408507 
L 276.403041 -11.725965 
L 277.268694 -12.049638 
L 278.134347 -12.379513 
L 279 -12.716025 
L 279.865653 -13.060043 
L 280.731306 -13.412787 
L 281.596959 -13.775702 
L 282.462612 -14.150297 
L 283.328266 -14.538001 
L 284.193919 -14.940049 
L 285.059572 -15.357407 
L 285.925225 -15.790762 
L 286.790878 -16.240555 
L 287.656531 -16.707042 
L 288.522184 -17.190368 
L 289.387837 -17.690627 
L 290.253491 -18.207886 
L 291.119144 -18.742166 
L 291.984797 -19.293386 
L 292.85045 -19.861263 
L 293.716103 -20.445209 
L 294.581756 -21.044229 
L 295.447409 -21.656858 
L 296.313062 -22.281146 
L 297.178715 -22.914708 
L 298.044369 -23.55482 
L 298.910022 -24.198566 
L 299.775675 -24.842995 
L 300.641328 -25.485264 
L 301.506981 -26.122746 
L 302.372634 -26.753083 
L 303.238287 -27.374177 
L 304.10394 -27.984149 
L 304.969594 -28.58127 
L 305.835247 -29.163914 
L 306.7009 -29.73055 
L 307.566553 -30.279811 
L 308.432206 -30.810619 
L 309.297859 -31.322371 
L 310.163512 -31.815142 
L 311.029165 -32.289853 
L 311.894818 -32.748366 
L 312.760472 -33.193459 
L 313.626125 -33.62866 
L 314.491778 -34.057935 
L 315.357431 -34.485277 
L 316.223084 -34.914216 
L 317.088737 -35.347345 
L 317.95439 -35.785902 
L 318.820043 -36.229496 
L 319.685697 -36.675992 
L 320.55135 -37.121611 
L 321.417003 -37.5612 
L 322.282656 -37.98868 
L 323.148309 -38.397583 
L 324.013962 -38.78164 
L 324.879615 -39.135335 
L 325.745268 -39.454368 
L 326.610922 -39.735978 
L 327.476575 -39.979092 
L 328.342228 -40.184316 
L 329.207881 -40.353762 
L 330.073534 -40.490768 
L 330.939187 -40.599549 
L 331.80484 -40.684828 
L 332.670493 -40.751478 
L 333.536146 -40.804214 
L 334.4018 -40.847335 
L 335.267453 -40.884512 
L 336.133106 -40.918625 
L 336.998759 -40.95163 
L 337.864412 -40.984468 
L 338.730065 -41.017009 
L 339.595718 -41.048067 
L 340.461371 -41.07549 
L 341.327025 -41.096353 
L 342.192678 -41.107242 
L 343.058331 -41.104623 
L 343.923984 -41.085245 
L 344.789637 -41.046521 
L 345.65529 -40.986835 
L 346.520943 -40.905697 
L 347.386596 -40.803727 
L 348.252249 -40.682446 
L 349.117903 -40.543898 
L 349.983556 -40.39017 
L 350.849209 -40.222869 
L 351.714862 -40.042655 
L 352.580515 -39.8489 
L 353.446168 -39.639535 
L 354.311821 -39.411102 
L 355.177474 -39.159009 
L 356.043128 -38.877958 
L 356.908781 -38.562467 
L 357.774434 -38.207443 
L 358.640087 -37.808718 
L 359.50574 -37.363502 
L 360.371393 -36.8707 
L 361.237046 -36.331078 
L 362.102699 -35.747263 
L 362.968352 -35.123583 
L 363.834006 -34.46577 
L 364.699659 -33.780567 
L 365.565312 -33.075257 
L 366.430965 -32.357193 
L 367.296618 -31.633357 
L 368.162271 -30.909998 
L 369.027924 -30.192395 
L 369.893577 -29.484752 
L 370.759231 -28.790226 
L 371.624884 -28.111067 
L 372.490537 -27.44882 
L 373.35619 -26.804544 
L 374.221843 -26.178992 
L 375.087496 -25.572716 
L 375.953149 -24.986089 
L 376.818802 -24.419237 
L 377.684455 -23.871932 
L 378.550109 -23.343478 
L 379.415762 -22.832648 
L 380.281415 -22.3377 
L 381.147068 -21.856496 
L 382.012721 -21.386705 
L 382.878374 -20.926059 
L 383.744027 -20.47261 
L 384.60968 -20.024935 
L 385.475334 -19.582235 
L 386.340987 -19.144319 
L 387.20664 -18.711462 
L 388.072293 -18.284177 
L 388.937946 -17.862945 
L 389.803599 -17.447965 
L 390.669252 -17.038973 
L 391.534905 -16.635171 
L 392.400558 -16.235278 
L 393.266212 -15.837681 
L 394.131865 -15.440661 
L 394.997518 -15.04265 
L 395.863171 -14.642449 
L 396.728824 -14.239393 
L 397.594477 -13.833429 
L 398.46013 -13.425101 
L 399.325783 -13.015474 
L 400.191437 -12.60601 
L 401.05709 -12.198436 
L 401.922743 -11.794633 
L 402.788396 -11.396554 
L 403.654049 -11.006176 
L 404.519702 -10.625476 
L 405.385355 -10.256411 
L 406.251008 -9.900887 
L 407.116661 -9.560693 
L 407.982315 -9.237413 
L 408.847968 -8.932304 
L 409.713621 -8.646182 
L 410.579274 -8.379307 
L 411.444927 -8.131324 
L 412.31058 -7.901247 
L 413.176233 -7.687514 
L 414.041886 -7.488094 
L 414.90754 -7.300654 
L 415.773193 -7.122737 
L 416.638846 -6.951958 
L 417.504499 -6.786169 
L 418.370152 -6.623597 
L 419.235805 -6.462933 
L 420.101458 -6.303367 
L 420.967111 -6.144576 
L 421.832765 -5.986678 
L 422.698418 -5.83015 
L 423.564071 -5.67573 
L 424.429724 -5.524316 
L 425.295377 -5.376858 
L 426.16103 -5.234261 
L 427.026683 -5.097298 
L 427.892336 -4.966544 
L 428.757989 -4.842322 
L 429.623643 -4.724681 
L 430.489296 -4.613396 
L 431.354949 -4.507997 
L 432.220602 -4.407822 
L 433.086255 -4.312098 
L 433.951908 -4.220022 
L 433.951908 -2.470909 
L 433.951908 -2.470909 
L 433.086255 -2.470909 
L 432.220602 -2.470909 
L 431.354949 -2.470909 
L 430.489296 -2.470909 
L 429.623643 -2.470909 
L 428.757989 -2.470909 
L 427.892336 -2.470909 
L 427.026683 -2.470909 
L 426.16103 -2.470909 
L 425.295377 -2.470909 
L 424.429724 -2.470909 
L 423.564071 -2.470909 
L 422.698418 -2.470909 
L 421.832765 -2.470909 
L 420.967111 -2.470909 
L 420.101458 -2.470909 
L 419.235805 -2.470909 
L 418.370152 -2.470909 
L 417.504499 -2.470909 
L 416.638846 -2.470909 
L 415.773193 -2.470909 
L 414.90754 -2.470909 
L 414.041886 -2.470909 
L 413.176233 -2.470909 
L 412.31058 -2.470909 
L 411.444927 -2.470909 
L 410.579274 -2.470909 
L 409.713621 -2.470909 
L 408.847968 -2.470909 
L 407.982315 -2.470909 
L 407.116661 -2.470909 
L 406.251008 -2.470909 
L 405.385355 -2.470909 
L 404.519702 -2.470909 
L 403.654049 -2.470909 
L 402.788396 -2.470909 
L 401.922743 -2.470909 
L 401.05709 -2.470909 
L 400.191437 -2.470909 
L 399.325783 -2.470909 
L 398.46013 -2.470909 
L 397.594477 -2.470909 
L 396.728824 -2.470909 
L 395.863171 -2.470909 
L 394.997518 -2.470909 
L 394.131865 -2.470909 
L 393.266212 -2.470909 
L 392.400558 -2.470909 
L 391.534905 -2.470909 
L 390.669252 -2.470909 
L 389.803599 -2.470909 
L 388.937946 -2.470909 
L 388.072293 -2.470909 
L 387.20664 -2.470909 
L 386.340987 -2.470909 
L 385.475334 -2.470909 
L 384.60968 -2.470909 
L 383.744027 -2.470909 
L 382.878374 -2.470909 
L 382.012721 -2.470909 
L 381.147068 -2.470909 
L 380.281415 -2.470909 
L 379.415762 -2.470909 
L 378.550109 -2.470909 
L 377.684455 -2.470909 
L 376.818802 -2.470909 
L 375.953149 -2.470909 
L 375.087496 -2.470909 
L 374.221843 -2.470909 
L 373.35619 -2.470909 
L 372.490537 -2.470909 
L 371.624884 -2.470909 
L 370.759231 -2.470909 
L 369.893577 -2.470909 
L 369.027924 -2.470909 
L 368.162271 -2.470909 
L 367.296618 -2.470909 
L 366.430965 -2.470909 
L 365.565312 -2.470909 
L 364.699659 -2.470909 
L 363.834006 -2.470909 
L 362.968352 -2.470909 
L 362.102699 -2.470909 
L 361.237046 -2.470909 
L 360.371393 -2.470909 
L 359.50574 -2.470909 
L 358.640087 -2.470909 
L 357.774434 -2.470909 
L 356.908781 -2.470909 
L 356.043128 -2.470909 
L 355.177474 -2.470909 
L 354.311821 -2.470909 
L 353.446168 -2.470909 
L 352.580515 -2.470909 
L 351.714862 -2.470909 
L 350.849209 -2.470909 
L 349.983556 -2.470909 
L 349.117903 -2.470909 
L 348.252249 -2.470909 
L 347.386596 -2.470909 
L 346.520943 -2.470909 
L 345.65529 -2.470909 
L 344.789637 -2.470909 
L 343.923984 -2.470909 
L 343.058331 -2.470909 
L 342.192678 -2.470909 
L 341.327025 -2.470909 
L 340.461371 -2.470909 
L 339.595718 -2.470909 
L 338.730065 -2.470909 
L 337.864412 -2.470909 
L 336.998759 -2.470909 
L 336.133106 -2.470909 
L 335.267453 -2.470909 
L 334.4018 -2.470909 
L 333.536146 -2.470909 
L 332.670493 -2.470909 
L 331.80484 -2.470909 
L 330.939187 -2.470909 
L 330.073534 -2.470909 
L 329.207881 -2.470909 
L 328.342228 -2.470909 
L 327.476575 -2.470909 
L 326.610922 -2.470909 
L 325.745268 -2.470909 
L 324.879615 -2.470909 
L 324.013962 -2.470909 
L 323.148309 -2.470909 
L 322.282656 -2.470909 
L 321.417003 -2.470909 
L 320.55135 -2.470909 
L 319.685697 -2.470909 
L 318.820043 -2.470909 
L 317.95439 -2.470909 
L 317.088737 -2.470909 
L 316.223084 -2.470909 
L 315.357431 -2.470909 
L 314.491778 -2.470909 
L 313.626125 -2.470909 
L 312.760472 -2.470909 
L 311.894818 -2.470909 
L 311.029165 -2.470909 
L 310.163512 -2.470909 
L 309.297859 -2.470909 
L 308.432206 -2.470909 
L 307.566553 -2.470909 
L 306.7009 -2.470909 
L 305.835247 -2.470909 
L 304.969594 -2.470909 
L 304.10394 -2.470909 
L 303.238287 -2.470909 
L 302.372634 -2.470909 
L 301.506981 -2.470909 
L 300.641328 -2.470909 
L 299.775675 -2.470909 
L 298.910022 -2.470909 
L 298.044369 -2.470909 
L 297.178715 -2.470909 
L 296.313062 -2.470909 
L 295.447409 -2.470909 
L 294.581756 -2.470909 
L 293.716103 -2.470909 
L 292.85045 -2.470909 
L 291.984797 -2.470909 
L 291.119144 -2.470909 
L 290.253491 -2.470909 
L 289.387837 -2.470909 
L 288.522184 -2.470909 
L 287.656531 -2.470909 
L 286.790878 -2.470909 
L 285.925225 -2.470909 
L 285.059572 -2.470909 
L 284.193919 -2.470909 
L 283.328266 -2.470909 
L 282.462612 -2.470909 
L 281.596959 -2.470909 
L 280.731306 -2.470909 
L 279.865653 -2.470909 
L 279 -2.470909 
L 278.134347 -2.470909 
L 277.268694 -2.470909 
L 276.403041 -2.470909 
L 275.537388 -2.470909 
L 274.671734 -2.470909 
L 273.806081 -2.470909 
L 272.940428 -2.470909 
L 272.074775 -2.470909 
L 271.209122 -2.470909 
L 270.343469 -2.470909 
L 269.477816 -2.470909 
L 268.612163 -2.470909 
L 267.746509 -2.470909 
L 266.880856 -2.470909 
L 266.015203 -2.470909 
L 265.14955 -2.470909 
L 264.283897 -2.470909 
L 263.418244 -2.470909 
L 262.552591 -2.470909 
L 261.686938 -2.470909 
L 260.821285 -2.470909 
L 259.955631 -2.470909 
L 259.089978 -2.470909 
L 258.224325 -2.470909 
L 257.358672 -2.470909 
L 256.493019 -2.470909 
L 255.627366 -2.470909 
L 254.761713 -2.470909 
L 253.89606 -2.470909 
L 253.030406 -2.470909 
L 252.164753 -2.470909 
L 251.2991 -2.470909 
L 250.433447 -2.470909 
L 249.567794 -2.470909 
L 248.702141 -2.470909 
L 247.836488 -2.470909 
L 246.970835 -2.470909 
L 246.105182 -2.470909 
L 245.239528 -2.470909 
z
" style="stroke: #cf1313; stroke-opacity: 0.2"/>
    </defs>
    <g clip-path="url(#p77d5b48a15)">
     <use xlink:href="#m0d013c68af" x="0" y="54.36" style="fill: #cf1313; fill-opacity: 0.2; stroke: #cf1313; stroke-opacity: 0.2"/>
    </g>
   </g>
   <g id="PolyCollection_2">
    <defs>
     <path id="m19a2d20185" d="M 348.252249 -2.470909 
L 348.252249 -4.384062 
L 349.117903 -4.507231 
L 349.983556 -4.631487 
L 350.849209 -4.756278 
L 351.714862 -4.881179 
L 352.580515 -5.005954 
L 353.446168 -5.130615 
L 354.311821 -5.255467 
L 355.177474 -5.381132 
L 356.043128 -5.508539 
L 356.908781 -5.638885 
L 357.774434 -5.773554 
L 358.640087 -5.914012 
L 359.50574 -6.06169 
L 360.371393 -6.21785 
L 361.237046 -6.38348 
L 362.102699 -6.559207 
L 362.968352 -6.745263 
L 363.834006 -6.941486 
L 364.699659 -7.14739 
L 365.565312 -7.362262 
L 366.430965 -7.585306 
L 367.296618 -7.815792 
L 368.162271 -8.053199 
L 369.027924 -8.29734 
L 369.893577 -8.548433 
L 370.759231 -8.807122 
L 371.624884 -9.074431 
L 372.490537 -9.351668 
L 373.35619 -9.640268 
L 374.221843 -9.941619 
L 375.087496 -10.256866 
L 375.953149 -10.586742 
L 376.818802 -10.931439 
L 377.684455 -11.290542 
L 378.550109 -11.663032 
L 379.415762 -12.047387 
L 380.281415 -12.441737 
L 381.147068 -12.844089 
L 382.012721 -13.252572 
L 382.878374 -13.66568 
L 383.744027 -14.082474 
L 384.60968 -14.502708 
L 385.475334 -14.92687 
L 386.340987 -15.35612 
L 387.20664 -15.792131 
L 388.072293 -16.236867 
L 388.937946 -16.692308 
L 389.803599 -17.160181 
L 390.669252 -17.641716 
L 391.534905 -18.137461 
L 392.400558 -18.647185 
L 393.266212 -19.169868 
L 394.131865 -19.703788 
L 394.997518 -20.246675 
L 395.863171 -20.795928 
L 396.728824 -21.348849 
L 397.594477 -21.902871 
L 398.46013 -22.455749 
L 399.325783 -23.005691 
L 400.191437 -23.551414 
L 401.05709 -24.092129 
L 401.922743 -24.627468 
L 402.788396 -25.157388 
L 403.654049 -25.682057 
L 404.519702 -26.201776 
L 405.385355 -26.716934 
L 406.251008 -27.228009 
L 407.116661 -27.735595 
L 407.982315 -28.24044 
L 408.847968 -28.743458 
L 409.713621 -29.245709 
L 410.579274 -29.748308 
L 411.444927 -30.2523 
L 412.31058 -30.758495 
L 413.176233 -31.267307 
L 414.041886 -31.778628 
L 414.90754 -32.291757 
L 415.773193 -32.805415 
L 416.638846 -33.317834 
L 417.504499 -33.826907 
L 418.370152 -34.330378 
L 419.235805 -34.826027 
L 420.101458 -35.311834 
L 420.967111 -35.786089 
L 421.832765 -36.247447 
L 422.698418 -36.694909 
L 423.564071 -37.127762 
L 424.429724 -37.545474 
L 425.295377 -37.947582 
L 426.16103 -38.33357 
L 427.026683 -38.702773 
L 427.892336 -39.054312 
L 428.757989 -39.387066 
L 429.623643 -39.699689 
L 430.489296 -39.990679 
L 431.354949 -40.258473 
L 432.220602 -40.501584 
L 433.086255 -40.718742 
L 433.951908 -40.909029 
L 434.817561 -41.071983 
L 435.683214 -41.207657 
L 436.548868 -41.316603 
L 437.414521 -41.399796 
L 438.280174 -41.45849 
L 439.145827 -41.494029 
L 440.01148 -41.507641 
L 440.877133 -41.500246 
L 441.742786 -41.472313 
L 442.608439 -41.423789 
L 443.474092 -41.354109 
L 444.339746 -41.26229 
L 445.205399 -41.147091 
L 446.071052 -41.007201 
L 446.936705 -40.841437 
L 447.802358 -40.648889 
L 448.668011 -40.429017 
L 449.533664 -40.18167 
L 450.399317 -39.907029 
L 451.264971 -39.605511 
L 452.130624 -39.277658 
L 452.996277 -38.92404 
L 453.86193 -38.545219 
L 454.727583 -38.141766 
L 455.593236 -37.714356 
L 456.458889 -37.26389 
L 457.324542 -36.791626 
L 458.190195 -36.299269 
L 459.055849 -35.788986 
L 459.921502 -35.263317 
L 460.787155 -34.724994 
L 461.652808 -34.176686 
L 462.518461 -33.620712 
L 463.384114 -33.058795 
L 464.249767 -32.49189 
L 465.11542 -31.920146 
L 465.981074 -31.34302 
L 466.846727 -30.759525 
L 467.71238 -30.16858 
L 468.578033 -29.569407 
L 469.443686 -28.961905 
L 470.309339 -28.346923 
L 471.174992 -27.726395 
L 472.040645 -27.103304 
L 472.906298 -26.481474 
L 473.771952 -25.86522 
L 474.637605 -25.258922 
L 475.503258 -24.666571 
L 476.368911 -24.091364 
L 477.234564 -23.535409 
L 478.100217 -22.999558 
L 478.96587 -22.483413 
L 479.831523 -21.985463 
L 480.697177 -21.503344 
L 481.56283 -21.03417 
L 482.428483 -20.574882 
L 483.294136 -20.122575 
L 484.159789 -19.674752 
L 485.025442 -19.229492 
L 485.891095 -18.785509 
L 486.756748 -18.342133 
L 487.622401 -17.899204 
L 488.488055 -17.456939 
L 489.353708 -17.015792 
L 490.219361 -16.576337 
L 491.085014 -16.139193 
L 491.950667 -15.705007 
L 492.81632 -15.274478 
L 493.681973 -14.848414 
L 494.547626 -14.427794 
L 495.41328 -14.013816 
L 496.278933 -13.607913 
L 497.144586 -13.21172 
L 498.010239 -12.827003 
L 498.875892 -12.455545 
L 499.741545 -12.099011 
L 500.607198 -11.758799 
L 501.472851 -11.435903 
L 502.338504 -11.130791 
L 503.204158 -10.843318 
L 504.069811 -10.572683 
L 504.935464 -10.317423 
L 505.801117 -10.075463 
L 506.66677 -9.844225 
L 507.532423 -9.620773 
L 508.398076 -9.402005 
L 509.263729 -9.184882 
L 510.129383 -8.966649 
L 510.995036 -8.745063 
L 511.860689 -8.518572 
L 512.726342 -8.286434 
L 513.591995 -8.048771 
L 514.457648 -7.806531 
L 515.323301 -7.561364 
L 516.188954 -7.315442 
L 517.054608 -7.071221 
L 517.920261 -6.831188 
L 518.785914 -6.597625 
L 519.651567 -6.37241 
L 520.51722 -6.156883 
L 521.382873 -5.951783 
L 522.248526 -5.757264 
L 523.114179 -5.572974 
L 523.979832 -5.39818 
L 524.845486 -5.231918 
L 525.711139 -5.073145 
L 526.576792 -4.920875 
L 527.442445 -4.77427 
L 528.308098 -4.632715 
L 529.173751 -4.495828 
L 530.039404 -4.363463 
L 530.905057 -4.23567 
L 531.770711 -4.112656 
L 532.636364 -3.994736 
L 532.636364 -2.470909 
L 532.636364 -2.470909 
L 531.770711 -2.470909 
L 530.905057 -2.470909 
L 530.039404 -2.470909 
L 529.173751 -2.470909 
L 528.308098 -2.470909 
L 527.442445 -2.470909 
L 526.576792 -2.470909 
L 525.711139 -2.470909 
L 524.845486 -2.470909 
L 523.979832 -2.470909 
L 523.114179 -2.470909 
L 522.248526 -2.470909 
L 521.382873 -2.470909 
L 520.51722 -2.470909 
L 519.651567 -2.470909 
L 518.785914 -2.470909 
L 517.920261 -2.470909 
L 517.054608 -2.470909 
L 516.188954 -2.470909 
L 515.323301 -2.470909 
L 514.457648 -2.470909 
L 513.591995 -2.470909 
L 512.726342 -2.470909 
L 511.860689 -2.470909 
L 510.995036 -2.470909 
L 510.129383 -2.470909 
L 509.263729 -2.470909 
L 508.398076 -2.470909 
L 507.532423 -2.470909 
L 506.66677 -2.470909 
L 505.801117 -2.470909 
L 504.935464 -2.470909 
L 504.069811 -2.470909 
L 503.204158 -2.470909 
L 502.338504 -2.470909 
L 501.472851 -2.470909 
L 500.607198 -2.470909 
L 499.741545 -2.470909 
L 498.875892 -2.470909 
L 498.010239 -2.470909 
L 497.144586 -2.470909 
L 496.278933 -2.470909 
L 495.41328 -2.470909 
L 494.547626 -2.470909 
L 493.681973 -2.470909 
L 492.81632 -2.470909 
L 491.950667 -2.470909 
L 491.085014 -2.470909 
L 490.219361 -2.470909 
L 489.353708 -2.470909 
L 488.488055 -2.470909 
L 487.622401 -2.470909 
L 486.756748 -2.470909 
L 485.891095 -2.470909 
L 485.025442 -2.470909 
L 484.159789 -2.470909 
L 483.294136 -2.470909 
L 482.428483 -2.470909 
L 481.56283 -2.470909 
L 480.697177 -2.470909 
L 479.831523 -2.470909 
L 478.96587 -2.470909 
L 478.100217 -2.470909 
L 477.234564 -2.470909 
L 476.368911 -2.470909 
L 475.503258 -2.470909 
L 474.637605 -2.470909 
L 473.771952 -2.470909 
L 472.906298 -2.470909 
L 472.040645 -2.470909 
L 471.174992 -2.470909 
L 470.309339 -2.470909 
L 469.443686 -2.470909 
L 468.578033 -2.470909 
L 467.71238 -2.470909 
L 466.846727 -2.470909 
L 465.981074 -2.470909 
L 465.11542 -2.470909 
L 464.249767 -2.470909 
L 463.384114 -2.470909 
L 462.518461 -2.470909 
L 461.652808 -2.470909 
L 460.787155 -2.470909 
L 459.921502 -2.470909 
L 459.055849 -2.470909 
L 458.190195 -2.470909 
L 457.324542 -2.470909 
L 456.458889 -2.470909 
L 455.593236 -2.470909 
L 454.727583 -2.470909 
L 453.86193 -2.470909 
L 452.996277 -2.470909 
L 452.130624 -2.470909 
L 451.264971 -2.470909 
L 450.399317 -2.470909 
L 449.533664 -2.470909 
L 448.668011 -2.470909 
L 447.802358 -2.470909 
L 446.936705 -2.470909 
L 446.071052 -2.470909 
L 445.205399 -2.470909 
L 444.339746 -2.470909 
L 443.474092 -2.470909 
L 442.608439 -2.470909 
L 441.742786 -2.470909 
L 440.877133 -2.470909 
L 440.01148 -2.470909 
L 439.145827 -2.470909 
L 438.280174 -2.470909 
L 437.414521 -2.470909 
L 436.548868 -2.470909 
L 435.683214 -2.470909 
L 434.817561 -2.470909 
L 433.951908 -2.470909 
L 433.086255 -2.470909 
L 432.220602 -2.470909 
L 431.354949 -2.470909 
L 430.489296 -2.470909 
L 429.623643 -2.470909 
L 428.757989 -2.470909 
L 427.892336 -2.470909 
L 427.026683 -2.470909 
L 426.16103 -2.470909 
L 425.295377 -2.470909 
L 424.429724 -2.470909 
L 423.564071 -2.470909 
L 422.698418 -2.470909 
L 421.832765 -2.470909 
L 420.967111 -2.470909 
L 420.101458 -2.470909 
L 419.235805 -2.470909 
L 418.370152 -2.470909 
L 417.504499 -2.470909 
L 416.638846 -2.470909 
L 415.773193 -2.470909 
L 414.90754 -2.470909 
L 414.041886 -2.470909 
L 413.176233 -2.470909 
L 412.31058 -2.470909 
L 411.444927 -2.470909 
L 410.579274 -2.470909 
L 409.713621 -2.470909 
L 408.847968 -2.470909 
L 407.982315 -2.470909 
L 407.116661 -2.470909 
L 406.251008 -2.470909 
L 405.385355 -2.470909 
L 404.519702 -2.470909 
L 403.654049 -2.470909 
L 402.788396 -2.470909 
L 401.922743 -2.470909 
L 401.05709 -2.470909 
L 400.191437 -2.470909 
L 399.325783 -2.470909 
L 398.46013 -2.470909 
L 397.594477 -2.470909 
L 396.728824 -2.470909 
L 395.863171 -2.470909 
L 394.997518 -2.470909 
L 394.131865 -2.470909 
L 393.266212 -2.470909 
L 392.400558 -2.470909 
L 391.534905 -2.470909 
L 390.669252 -2.470909 
L 389.803599 -2.470909 
L 388.937946 -2.470909 
L 388.072293 -2.470909 
L 387.20664 -2.470909 
L 386.340987 -2.470909 
L 385.475334 -2.470909 
L 384.60968 -2.470909 
L 383.744027 -2.470909 
L 382.878374 -2.470909 
L 382.012721 -2.470909 
L 381.147068 -2.470909 
L 380.281415 -2.470909 
L 379.415762 -2.470909 
L 378.550109 -2.470909 
L 377.684455 -2.470909 
L 376.818802 -2.470909 
L 375.953149 -2.470909 
L 375.087496 -2.470909 
L 374.221843 -2.470909 
L 373.35619 -2.470909 
L 372.490537 -2.470909 
L 371.624884 -2.470909 
L 370.759231 -2.470909 
L 369.893577 -2.470909 
L 369.027924 -2.470909 
L 368.162271 -2.470909 
L 367.296618 -2.470909 
L 366.430965 -2.470909 
L 365.565312 -2.470909 
L 364.699659 -2.470909 
L 363.834006 -2.470909 
L 362.968352 -2.470909 
L 362.102699 -2.470909 
L 361.237046 -2.470909 
L 360.371393 -2.470909 
L 359.50574 -2.470909 
L 358.640087 -2.470909 
L 357.774434 -2.470909 
L 356.908781 -2.470909 
L 356.043128 -2.470909 
L 355.177474 -2.470909 
L 354.311821 -2.470909 
L 353.446168 -2.470909 
L 352.580515 -2.470909 
L 351.714862 -2.470909 
L 350.849209 -2.470909 
L 349.983556 -2.470909 
L 349.117903 -2.470909 
L 348.252249 -2.470909 
z
" style="stroke: #116dc2; stroke-opacity: 0.2"/>
    </defs>
    <g clip-path="url(#p77d5b48a15)">
     <use xlink:href="#m19a2d20185" x="0" y="54.36" style="fill: #116dc2; fill-opacity: 0.2; stroke: #116dc2; stroke-opacity: 0.2"/>
    </g>
   </g>
   <g id="PolyCollection_3">
    <defs>
     <path id="m3b285b1eb2" d="M 25.363636 -2.470909 
L 25.363636 -4.773558 
L 26.229289 -5.154275 
L 27.094943 -5.549035 
L 27.960596 -6.00554 
L 28.826249 -6.589257 
L 29.691902 -7.344067 
L 30.557555 -8.270724 
L 31.423208 -9.350325 
L 32.288861 -10.585835 
L 33.154514 -12.008104 
L 34.020168 -13.633087 
L 34.885821 -15.421295 
L 35.751474 -17.301107 
L 36.617127 -19.24323 
L 37.48278 -21.29765 
L 38.348433 -23.531403 
L 39.214086 -25.923798 
L 40.079739 -28.352987 
L 40.945392 -30.701804 
L 41.811046 -32.927388 
L 42.676699 -35.002389 
L 43.542352 -36.872825 
L 44.408005 -38.540967 
L 45.273658 -40.132457 
L 46.139311 -41.812047 
L 47.004964 -43.635726 
L 47.870617 -45.492439 
L 48.736271 -47.180123 
L 49.601924 -48.559967 
L 50.467577 -49.660141 
L 51.33323 -50.603839 
L 52.198883 -51.408261 
L 53.064536 -51.889091 
L 53.930189 -51.828292 
L 54.795842 -51.230518 
L 55.661496 -50.32634 
L 56.527149 -49.304108 
L 57.392802 -48.147113 
L 58.258455 -46.768105 
L 59.124108 -45.165433 
L 59.989761 -43.37427 
L 60.855414 -41.379015 
L 61.721067 -39.153141 
L 62.58672 -36.719347 
L 63.452374 -34.120912 
L 64.318027 -31.385403 
L 65.18368 -28.576272 
L 66.049333 -25.856682 
L 66.914986 -23.418041 
L 67.780639 -21.310549 
L 68.646292 -19.400737 
L 69.511945 -17.541286 
L 70.377599 -15.747265 
L 71.243252 -14.168429 
L 72.108905 -12.914944 
L 72.974558 -11.944667 
L 73.840211 -11.104473 
L 74.705864 -10.241991 
L 75.571517 -9.278594 
L 76.43717 -8.228381 
L 77.302823 -7.187611 
L 78.168477 -6.281422 
L 79.03413 -5.576969 
L 79.899783 -5.042889 
L 79.899783 -2.470909 
L 79.899783 -2.470909 
L 79.03413 -2.470909 
L 78.168477 -2.470909 
L 77.302823 -2.470909 
L 76.43717 -2.470909 
L 75.571517 -2.470909 
L 74.705864 -2.470909 
L 73.840211 -2.470909 
L 72.974558 -2.470909 
L 72.108905 -2.470909 
L 71.243252 -2.470909 
L 70.377599 -2.470909 
L 69.511945 -2.470909 
L 68.646292 -2.470909 
L 67.780639 -2.470909 
L 66.914986 -2.470909 
L 66.049333 -2.470909 
L 65.18368 -2.470909 
L 64.318027 -2.470909 
L 63.452374 -2.470909 
L 62.58672 -2.470909 
L 61.721067 -2.470909 
L 60.855414 -2.470909 
L 59.989761 -2.470909 
L 59.124108 -2.470909 
L 58.258455 -2.470909 
L 57.392802 -2.470909 
L 56.527149 -2.470909 
L 55.661496 -2.470909 
L 54.795842 -2.470909 
L 53.930189 -2.470909 
L 53.064536 -2.470909 
L 52.198883 -2.470909 
L 51.33323 -2.470909 
L 50.467577 -2.470909 
L 49.601924 -2.470909 
L 48.736271 -2.470909 
L 47.870617 -2.470909 
L 47.004964 -2.470909 
L 46.139311 -2.470909 
L 45.273658 -2.470909 
L 44.408005 -2.470909 
L 43.542352 -2.470909 
L 42.676699 -2.470909 
L 41.811046 -2.470909 
L 40.945392 -2.470909 
L 40.079739 -2.470909 
L 39.214086 -2.470909 
L 38.348433 -2.470909 
L 37.48278 -2.470909 
L 36.617127 -2.470909 
L 35.751474 -2.470909 
L 34.885821 -2.470909 
L 34.020168 -2.470909 
L 33.154514 -2.470909 
L 32.288861 -2.470909 
L 31.423208 -2.470909 
L 30.557555 -2.470909 
L 29.691902 -2.470909 
L 28.826249 -2.470909 
L 27.960596 -2.470909 
L 27.094943 -2.470909 
L 26.229289 -2.470909 
L 25.363636 -2.470909 
z
" style="stroke: #8a8a8a; stroke-opacity: 0.2"/>
    </defs>
    <g clip-path="url(#p77d5b48a15)">
     <use xlink:href="#m3b285b1eb2" x="0" y="54.36" style="fill: #8a8a8a; fill-opacity: 0.2; stroke: #8a8a8a; stroke-opacity: 0.2"/>
    </g>
   </g>
   <g id="line2d_1">
    <path d="M 245.239528 50.467205 
L 249.567794 49.866899 
L 253.89606 49.048833 
L 259.089978 47.78432 
L 270.343469 44.694523 
L 274.671734 43.262335 
L 279.865653 41.299957 
L 284.193919 39.419951 
L 287.656531 37.652958 
L 291.119144 35.617834 
L 294.581756 33.315771 
L 299.775675 29.517005 
L 304.969594 25.77873 
L 308.432206 23.549381 
L 311.894818 21.611634 
L 322.282656 16.37132 
L 324.879615 15.224665 
L 327.476575 14.380908 
L 330.073534 13.869232 
L 332.670493 13.608522 
L 338.730065 13.342991 
L 343.058331 13.255377 
L 345.65529 13.373165 
L 348.252249 13.677554 
L 351.714862 14.317345 
L 355.177474 15.200991 
L 357.774434 16.152557 
L 359.50574 16.996498 
L 361.237046 18.028922 
L 363.834006 19.89423 
L 368.162271 23.450002 
L 372.490537 26.91118 
L 375.953149 29.373911 
L 379.415762 31.527352 
L 383.744027 33.88739 
L 389.803599 36.912035 
L 403.654049 43.353824 
L 407.116661 44.799307 
L 410.579274 45.980693 
L 414.041886 46.871906 
L 419.235805 47.897067 
L 427.892336 49.393456 
L 433.086255 50.047902 
L 433.951908 50.139978 
L 433.951908 50.139978 
" clip-path="url(#p77d5b48a15)" style="fill: none; stroke: #cf1313; stroke-width: 1.5; stroke-linecap: square"/>
   </g>
   <g id="line2d_2">
    <path d="M 348.252249 49.975938 
L 360.371393 48.14215 
L 364.699659 47.21261 
L 369.893577 45.811567 
L 374.221843 44.418381 
L 377.684455 43.069458 
L 382.012721 41.107428 
L 388.072293 38.123133 
L 391.534905 36.222539 
L 395.863171 33.564072 
L 404.519702 28.158224 
L 418.370152 20.029622 
L 422.698418 17.665091 
L 426.16103 16.02643 
L 429.623643 14.660311 
L 432.220602 13.858416 
L 434.817561 13.288017 
L 437.414521 12.960204 
L 440.01148 12.852359 
L 442.608439 12.936211 
L 445.205399 13.212909 
L 447.802358 13.711111 
L 450.399317 14.452971 
L 452.996277 15.43596 
L 455.593236 16.645644 
L 459.055849 18.571014 
L 463.384114 21.301205 
L 469.443686 25.398095 
L 477.234564 30.824591 
L 480.697177 32.856656 
L 486.756748 36.017867 
L 495.41328 40.346184 
L 499.741545 42.260989 
L 503.204158 43.516682 
L 506.66677 44.515775 
L 517.920261 47.528812 
L 522.248526 48.602736 
L 526.576792 49.439125 
L 532.636364 50.365264 
L 532.636364 50.365264 
" clip-path="url(#p77d5b48a15)" style="fill: none; stroke: #116dc2; stroke-width: 1.5; stroke-linecap: square"/>
   </g>
   <g id="line2d_3">
    <path d="M 25.363636 49.586442 
L 26.229289 49.205725 
L 27.094943 48.810965 
L 27.960596 48.35446 
L 28.826249 47.770743 
L 29.691902 47.015933 
L 30.557555 46.089276 
L 31.423208 45.009675 
L 32.288861 43.774165 
L 33.154514 42.351896 
L 34.020168 40.726913 
L 34.885821 38.938705 
L 35.751474 37.058893 
L 36.617127 35.11677 
L 37.48278 33.06235 
L 38.348433 30.828597 
L 39.214086 28.436202 
L 40.079739 26.007013 
L 40.945392 23.658196 
L 41.811046 21.432612 
L 42.676699 19.357611 
L 43.542352 17.487175 
L 44.408005 15.819033 
L 45.273658 14.227543 
L 46.139311 12.547953 
L 47.004964 10.724274 
L 47.870617 8.867561 
L 48.736271 7.179877 
L 49.601924 5.800033 
L 50.467577 4.699859 
L 51.33323 3.756161 
L 52.198883 2.951739 
L 53.064536 2.470909 
L 53.930189 2.531708 
L 54.795842 3.129482 
L 55.661496 4.03366 
L 56.527149 5.055892 
L 57.392802 6.212887 
L 58.258455 7.591895 
L 59.124108 9.194567 
L 59.989761 10.98573 
L 60.855414 12.980985 
L 61.721067 15.206859 
L 62.58672 17.640653 
L 63.452374 20.239088 
L 64.318027 22.974597 
L 65.18368 25.783728 
L 66.049333 28.503318 
L 66.914986 30.941959 
L 67.780639 33.049451 
L 68.646292 34.959263 
L 69.511945 36.818714 
L 70.377599 38.612735 
L 71.243252 40.191571 
L 72.108905 41.445056 
L 72.974558 42.415333 
L 73.840211 43.255527 
L 74.705864 44.118009 
L 75.571517 45.081406 
L 76.43717 46.131619 
L 77.302823 47.172389 
L 78.168477 48.078578 
L 79.03413 48.783031 
L 79.899783 49.317111 
" clip-path="url(#p77d5b48a15)" style="fill: none; stroke: #8a8a8a; stroke-width: 1.5; stroke-linecap: square"/>
   </g>
  </g>
 </g>
 <defs>
  <clipPath id="p77d5b48a15">
   <rect x="0" y="-0" width="558" height="54.36"/>
  </clipPath>
 </defs>
</svg>
