<?xml version="1.0" encoding="utf-8" standalone="no"?>
<!DOCTYPE svg PUBLIC "-//W3C//DTD SVG 1.1//EN"
  "http://www.w3.org/Graphics/SVG/1.1/DTD/svg11.dtd">
<svg xmlns:xlink="http://www.w3.org/1999/xlink" width="558pt" height="54.36pt" viewBox="0 0 558 54.36" xmlns="http://www.w3.org/2000/svg" version="1.1">
 <metadata>
  <rdf:RDF xmlns:dc="http://purl.org/dc/elements/1.1/" xmlns:cc="http://creativecommons.org/ns#" xmlns:rdf="http://www.w3.org/1999/02/22-rdf-syntax-ns#">
   <cc:Work>
    <dc:type rdf:resource="http://purl.org/dc/dcmitype/StillImage"/>
    <dc:date>2024-09-15T09:31:47.835526</dc:date>
    <dc:format>image/svg+xml</dc:format>
    <dc:creator>
     <cc:Agent>
      <dc:title>Matplotlib v3.5.2, https://matplotlib.org/</dc:title>
     </cc:Agent>
    </dc:creator>
   </cc:Work>
  </rdf:RDF>
 </metadata>
 <defs>
  <style type="text/css">*{stroke-linejoin: round; stroke-linecap: butt}</style>
 </defs>
 <g id="figure_1">
  <g id="patch_1">
   <path d="M 0 54.36 
L 558 54.36 
L 558 0 
L 0 0 
L 0 54.36 
z
" style="fill: none; opacity: 0"/>
  </g>
  <g id="axes_1">
   <g id="PolyCollection_1">
    <defs>
     <path id="mff09e9a68e" d="M 188.388504 -2.470909 
L 188.388504 -3.937898 
L 189.146759 -3.981725 
L 189.905014 -4.025964 
L 190.663269 -4.070931 
L 191.421525 -4.117012 
L 192.17978 -4.164658 
L 192.938035 -4.214372 
L 193.69629 -4.266689 
L 194.454545 -4.32215 
L 195.212801 -4.381278 
L 195.971056 -4.444549 
L 196.729311 -4.512364 
L 197.487566 -4.585028 
L 198.245821 -4.662737 
L 199.004077 -4.745565 
L 199.762332 -4.833472 
L 200.520587 -4.926316 
L 201.278842 -5.02387 
L 202.037097 -5.125855 
L 202.795353 -5.231973 
L 203.553608 -5.341943 
L 204.311863 -5.455539 
L 205.070118 -5.57262 
L 205.828373 -5.693157 
L 206.586629 -5.817254 
L 207.344884 -5.945146 
L 208.103139 -6.077204 
L 208.861394 -6.213912 
L 209.619649 -6.355844 
L 210.377905 -6.503625 
L 211.13616 -6.657895 
L 211.894415 -6.819261 
L 212.65267 -6.988249 
L 213.410925 -7.165264 
L 214.169181 -7.350553 
L 214.927436 -7.544174 
L 215.685691 -7.745978 
L 216.443946 -7.955603 
L 217.202201 -8.172478 
L 217.960457 -8.395847 
L 218.718712 -8.624793 
L 219.476967 -8.858286 
L 220.235222 -9.095232 
L 220.993477 -9.334526 
L 221.751733 -9.575115 
L 222.509988 -9.816052 
L 223.268243 -10.05655 
L 224.026498 -10.296027 
L 224.784753 -10.534141 
L 225.543009 -10.770809 
L 226.301264 -11.00621 
L 227.059519 -11.240777 
L 227.817774 -11.475168 
L 228.576029 -11.710224 
L 229.334285 -11.946912 
L 230.09254 -12.186265 
L 230.850795 -12.42931 
L 231.60905 -12.677001 
L 232.367305 -12.930153 
L 233.125561 -13.189385 
L 233.883816 -13.455084 
L 234.642071 -13.727376 
L 235.400326 -14.006127 
L 236.158581 -14.290951 
L 236.916837 -14.58125 
L 237.675092 -14.876263 
L 238.433347 -15.175129 
L 239.191602 -15.476954 
L 239.949857 -15.780883 
L 240.708113 -16.086162 
L 241.466368 -16.392195 
L 242.224623 -16.69858 
L 242.982878 -17.005129 
L 243.741133 -17.311868 
L 244.499389 -17.619022 
L 245.257644 -17.926978 
L 246.015899 -18.23624 
L 246.774154 -18.547377 
L 247.532409 -18.860967 
L 248.290664 -19.177545 
L 249.04892 -19.497563 
L 249.807175 -19.821348 
L 250.56543 -20.14909 
L 251.323685 -20.480827 
L 252.08194 -20.816445 
L 252.840196 -21.155694 
L 253.598451 -21.498199 
L 254.356706 -21.843476 
L 255.114961 -22.190959 
L 255.873216 -22.540007 
L 256.631472 -22.889924 
L 257.389727 -23.239972 
L 258.147982 -23.589375 
L 258.906237 -23.937336 
L 259.664492 -24.283047 
L 260.422748 -24.625704 
L 261.181003 -24.964531 
L 261.939258 -25.298802 
L 262.697513 -25.62788 
L 263.455768 -25.95124 
L 264.214024 -26.268515 
L 264.972279 -26.57952 
L 265.730534 -26.884286 
L 266.488789 -27.183072 
L 267.247044 -27.476374 
L 268.0053 -27.76492 
L 268.763555 -28.049647 
L 269.52181 -28.331668 
L 270.280065 -28.612225 
L 271.03832 -28.892634 
L 271.796576 -29.174219 
L 272.554831 -29.458249 
L 273.313086 -29.74587 
L 274.071341 -30.038043 
L 274.829596 -30.335485 
L 275.587852 -30.638628 
L 276.346107 -30.947575 
L 277.104362 -31.262082 
L 277.862617 -31.581546 
L 278.620872 -31.905009 
L 279.379128 -32.231173 
L 280.137383 -32.558435 
L 280.895638 -32.884933 
L 281.653893 -33.208596 
L 282.412148 -33.527223 
L 283.170404 -33.838548 
L 283.928659 -34.140333 
L 284.686914 -34.430442 
L 285.445169 -34.706933 
L 286.203424 -34.968125 
L 286.96168 -35.212663 
L 287.719935 -35.439568 
L 288.47819 -35.648258 
L 289.236445 -35.838554 
L 289.9947 -36.010657 
L 290.752956 -36.165101 
L 291.511211 -36.302684 
L 292.269466 -36.424384 
L 293.027721 -36.531259 
L 293.785976 -36.624346 
L 294.544232 -36.704564 
L 295.302487 -36.772629 
L 296.060742 -36.828982 
L 296.818997 -36.873753 
L 297.577252 -36.906742 
L 298.335508 -36.927436 
L 299.093763 -36.93505 
L 299.852018 -36.928591 
L 300.610273 -36.906942 
L 301.368528 -36.868953 
L 302.126784 -36.813531 
L 302.885039 -36.739728 
L 303.643294 -36.646817 
L 304.401549 -36.534343 
L 305.159804 -36.402161 
L 305.91806 -36.250452 
L 306.676315 -36.079717 
L 307.43457 -35.890759 
L 308.192825 -35.684648 
L 308.95108 -35.462681 
L 309.709336 -35.226341 
L 310.467591 -34.977246 
L 311.225846 -34.717103 
L 311.984101 -34.447669 
L 312.742356 -34.170698 
L 313.500611 -33.887902 
L 314.258867 -33.600899 
L 315.017122 -33.311174 
L 315.775377 -33.020022 
L 316.533632 -32.728509 
L 317.291887 -32.437428 
L 318.050143 -32.147271 
L 318.808398 -31.858208 
L 319.566653 -31.570091 
L 320.324908 -31.282468 
L 321.083163 -30.994634 
L 321.841419 -30.705685 
L 322.599674 -30.414601 
L 323.357929 -30.120342 
L 324.116184 -29.821937 
L 324.874439 -29.518587 
L 325.632695 -29.209741 
L 326.39095 -28.895165 
L 327.149205 -28.57498 
L 327.90746 -28.249671 
L 328.665715 -27.920075 
L 329.423971 -27.587326 
L 330.182226 -27.252786 
L 330.940481 -26.917953 
L 331.698736 -26.584356 
L 332.456991 -26.25345 
L 333.215247 -25.926511 
L 333.973502 -25.604551 
L 334.731757 -25.288245 
L 335.490012 -24.977887 
L 336.248267 -24.673376 
L 337.006523 -24.374224 
L 337.764778 -24.079597 
L 338.523033 -23.788377 
L 339.281288 -23.499236 
L 340.039543 -23.210733 
L 340.797799 -22.9214 
L 341.556054 -22.629834 
L 342.314309 -22.334777 
L 343.072564 -22.035174 
L 343.830819 -21.730219 
L 344.589075 -21.419377 
L 345.34733 -21.102384 
L 346.105585 -20.779238 
L 346.86384 -20.450163 
L 347.622095 -20.115581 
L 348.380351 -19.776066 
L 349.138606 -19.432312 
L 349.896861 -19.085097 
L 350.655116 -18.735262 
L 351.413371 -18.383691 
L 352.171627 -18.031308 
L 352.929882 -17.679066 
L 353.688137 -17.32795 
L 354.446392 -16.978975 
L 355.204647 -16.633175 
L 355.962903 -16.291597 
L 356.721158 -15.955278 
L 357.479413 -15.62522 
L 358.237668 -15.302356 
L 358.995923 -14.987523 
L 359.754179 -14.681418 
L 360.512434 -14.384575 
L 361.270689 -14.09733 
L 362.028944 -13.819815 
L 362.787199 -13.551939 
L 363.545455 -13.2934 
L 364.30371 -13.043697 
L 365.061965 -12.802153 
L 365.82022 -12.567951 
L 366.578475 -12.34017 
L 367.336731 -12.117835 
L 368.094986 -11.899956 
L 368.853241 -11.68558 
L 369.611496 -11.47383 
L 370.369751 -11.263946 
L 371.128007 -11.055315 
L 371.886262 -10.847498 
L 372.644517 -10.640242 
L 373.402772 -10.433487 
L 374.161027 -10.227359 
L 374.919283 -10.022156 
L 375.677538 -9.818317 
L 376.435793 -9.616395 
L 377.194048 -9.417007 
L 377.952303 -9.220791 
L 378.710558 -9.028359 
L 379.468814 -8.840249 
L 380.227069 -8.656879 
L 380.985324 -8.47852 
L 381.743579 -8.305265 
L 382.501834 -8.137021 
L 383.26009 -7.973514 
L 384.018345 -7.814299 
L 384.7766 -7.658791 
L 385.534855 -7.506307 
L 386.29311 -7.356105 
L 387.051366 -7.20744 
L 387.809621 -7.059612 
L 388.567876 -6.912009 
L 389.326131 -6.764147 
L 390.084386 -6.615697 
L 390.842642 -6.4665 
L 391.600897 -6.316574 
L 392.359152 -6.166101 
L 393.117407 -6.015412 
L 393.875662 -5.864958 
L 394.633918 -5.715279 
L 395.392173 -5.566969 
L 396.150428 -5.420643 
L 396.908683 -5.276904 
L 397.666938 -5.136321 
L 398.425194 -4.999406 
L 399.183449 -4.866602 
L 399.941704 -4.73828 
L 400.699959 -4.614735 
L 401.458214 -4.496194 
L 402.21647 -4.382823 
L 402.974725 -4.274736 
L 403.73298 -4.172008 
L 404.491235 -4.074685 
L 405.24949 -3.982791 
L 406.007746 -3.896333 
L 406.766001 -3.815312 
L 407.524256 -3.739716 
L 408.282511 -3.669526 
L 409.040766 -3.604707 
L 409.799022 -3.545214 
L 409.799022 -2.470909 
L 409.799022 -2.470909 
L 409.040766 -2.470909 
L 408.282511 -2.470909 
L 407.524256 -2.470909 
L 406.766001 -2.470909 
L 406.007746 -2.470909 
L 405.24949 -2.470909 
L 404.491235 -2.470909 
L 403.73298 -2.470909 
L 402.974725 -2.470909 
L 402.21647 -2.470909 
L 401.458214 -2.470909 
L 400.699959 -2.470909 
L 399.941704 -2.470909 
L 399.183449 -2.470909 
L 398.425194 -2.470909 
L 397.666938 -2.470909 
L 396.908683 -2.470909 
L 396.150428 -2.470909 
L 395.392173 -2.470909 
L 394.633918 -2.470909 
L 393.875662 -2.470909 
L 393.117407 -2.470909 
L 392.359152 -2.470909 
L 391.600897 -2.470909 
L 390.842642 -2.470909 
L 390.084386 -2.470909 
L 389.326131 -2.470909 
L 388.567876 -2.470909 
L 387.809621 -2.470909 
L 387.051366 -2.470909 
L 386.29311 -2.470909 
L 385.534855 -2.470909 
L 384.7766 -2.470909 
L 384.018345 -2.470909 
L 383.26009 -2.470909 
L 382.501834 -2.470909 
L 381.743579 -2.470909 
L 380.985324 -2.470909 
L 380.227069 -2.470909 
L 379.468814 -2.470909 
L 378.710558 -2.470909 
L 377.952303 -2.470909 
L 377.194048 -2.470909 
L 376.435793 -2.470909 
L 375.677538 -2.470909 
L 374.919283 -2.470909 
L 374.161027 -2.470909 
L 373.402772 -2.470909 
L 372.644517 -2.470909 
L 371.886262 -2.470909 
L 371.128007 -2.470909 
L 370.369751 -2.470909 
L 369.611496 -2.470909 
L 368.853241 -2.470909 
L 368.094986 -2.470909 
L 367.336731 -2.470909 
L 366.578475 -2.470909 
L 365.82022 -2.470909 
L 365.061965 -2.470909 
L 364.30371 -2.470909 
L 363.545455 -2.470909 
L 362.787199 -2.470909 
L 362.028944 -2.470909 
L 361.270689 -2.470909 
L 360.512434 -2.470909 
L 359.754179 -2.470909 
L 358.995923 -2.470909 
L 358.237668 -2.470909 
L 357.479413 -2.470909 
L 356.721158 -2.470909 
L 355.962903 -2.470909 
L 355.204647 -2.470909 
L 354.446392 -2.470909 
L 353.688137 -2.470909 
L 352.929882 -2.470909 
L 352.171627 -2.470909 
L 351.413371 -2.470909 
L 350.655116 -2.470909 
L 349.896861 -2.470909 
L 349.138606 -2.470909 
L 348.380351 -2.470909 
L 347.622095 -2.470909 
L 346.86384 -2.470909 
L 346.105585 -2.470909 
L 345.34733 -2.470909 
L 344.589075 -2.470909 
L 343.830819 -2.470909 
L 343.072564 -2.470909 
L 342.314309 -2.470909 
L 341.556054 -2.470909 
L 340.797799 -2.470909 
L 340.039543 -2.470909 
L 339.281288 -2.470909 
L 338.523033 -2.470909 
L 337.764778 -2.470909 
L 337.006523 -2.470909 
L 336.248267 -2.470909 
L 335.490012 -2.470909 
L 334.731757 -2.470909 
L 333.973502 -2.470909 
L 333.215247 -2.470909 
L 332.456991 -2.470909 
L 331.698736 -2.470909 
L 330.940481 -2.470909 
L 330.182226 -2.470909 
L 329.423971 -2.470909 
L 328.665715 -2.470909 
L 327.90746 -2.470909 
L 327.149205 -2.470909 
L 326.39095 -2.470909 
L 325.632695 -2.470909 
L 324.874439 -2.470909 
L 324.116184 -2.470909 
L 323.357929 -2.470909 
L 322.599674 -2.470909 
L 321.841419 -2.470909 
L 321.083163 -2.470909 
L 320.324908 -2.470909 
L 319.566653 -2.470909 
L 318.808398 -2.470909 
L 318.050143 -2.470909 
L 317.291887 -2.470909 
L 316.533632 -2.470909 
L 315.775377 -2.470909 
L 315.017122 -2.470909 
L 314.258867 -2.470909 
L 313.500611 -2.470909 
L 312.742356 -2.470909 
L 311.984101 -2.470909 
L 311.225846 -2.470909 
L 310.467591 -2.470909 
L 309.709336 -2.470909 
L 308.95108 -2.470909 
L 308.192825 -2.470909 
L 307.43457 -2.470909 
L 306.676315 -2.470909 
L 305.91806 -2.470909 
L 305.159804 -2.470909 
L 304.401549 -2.470909 
L 303.643294 -2.470909 
L 302.885039 -2.470909 
L 302.126784 -2.470909 
L 301.368528 -2.470909 
L 300.610273 -2.470909 
L 299.852018 -2.470909 
L 299.093763 -2.470909 
L 298.335508 -2.470909 
L 297.577252 -2.470909 
L 296.818997 -2.470909 
L 296.060742 -2.470909 
L 295.302487 -2.470909 
L 294.544232 -2.470909 
L 293.785976 -2.470909 
L 293.027721 -2.470909 
L 292.269466 -2.470909 
L 291.511211 -2.470909 
L 290.752956 -2.470909 
L 289.9947 -2.470909 
L 289.236445 -2.470909 
L 288.47819 -2.470909 
L 287.719935 -2.470909 
L 286.96168 -2.470909 
L 286.203424 -2.470909 
L 285.445169 -2.470909 
L 284.686914 -2.470909 
L 283.928659 -2.470909 
L 283.170404 -2.470909 
L 282.412148 -2.470909 
L 281.653893 -2.470909 
L 280.895638 -2.470909 
L 280.137383 -2.470909 
L 279.379128 -2.470909 
L 278.620872 -2.470909 
L 277.862617 -2.470909 
L 277.104362 -2.470909 
L 276.346107 -2.470909 
L 275.587852 -2.470909 
L 274.829596 -2.470909 
L 274.071341 -2.470909 
L 273.313086 -2.470909 
L 272.554831 -2.470909 
L 271.796576 -2.470909 
L 271.03832 -2.470909 
L 270.280065 -2.470909 
L 269.52181 -2.470909 
L 268.763555 -2.470909 
L 268.0053 -2.470909 
L 267.247044 -2.470909 
L 266.488789 -2.470909 
L 265.730534 -2.470909 
L 264.972279 -2.470909 
L 264.214024 -2.470909 
L 263.455768 -2.470909 
L 262.697513 -2.470909 
L 261.939258 -2.470909 
L 261.181003 -2.470909 
L 260.422748 -2.470909 
L 259.664492 -2.470909 
L 258.906237 -2.470909 
L 258.147982 -2.470909 
L 257.389727 -2.470909 
L 256.631472 -2.470909 
L 255.873216 -2.470909 
L 255.114961 -2.470909 
L 254.356706 -2.470909 
L 253.598451 -2.470909 
L 252.840196 -2.470909 
L 252.08194 -2.470909 
L 251.323685 -2.470909 
L 250.56543 -2.470909 
L 249.807175 -2.470909 
L 249.04892 -2.470909 
L 248.290664 -2.470909 
L 247.532409 -2.470909 
L 246.774154 -2.470909 
L 246.015899 -2.470909 
L 245.257644 -2.470909 
L 244.499389 -2.470909 
L 243.741133 -2.470909 
L 242.982878 -2.470909 
L 242.224623 -2.470909 
L 241.466368 -2.470909 
L 240.708113 -2.470909 
L 239.949857 -2.470909 
L 239.191602 -2.470909 
L 238.433347 -2.470909 
L 237.675092 -2.470909 
L 236.916837 -2.470909 
L 236.158581 -2.470909 
L 235.400326 -2.470909 
L 234.642071 -2.470909 
L 233.883816 -2.470909 
L 233.125561 -2.470909 
L 232.367305 -2.470909 
L 231.60905 -2.470909 
L 230.850795 -2.470909 
L 230.09254 -2.470909 
L 229.334285 -2.470909 
L 228.576029 -2.470909 
L 227.817774 -2.470909 
L 227.059519 -2.470909 
L 226.301264 -2.470909 
L 225.543009 -2.470909 
L 224.784753 -2.470909 
L 224.026498 -2.470909 
L 223.268243 -2.470909 
L 222.509988 -2.470909 
L 221.751733 -2.470909 
L 220.993477 -2.470909 
L 220.235222 -2.470909 
L 219.476967 -2.470909 
L 218.718712 -2.470909 
L 217.960457 -2.470909 
L 217.202201 -2.470909 
L 216.443946 -2.470909 
L 215.685691 -2.470909 
L 214.927436 -2.470909 
L 214.169181 -2.470909 
L 213.410925 -2.470909 
L 212.65267 -2.470909 
L 211.894415 -2.470909 
L 211.13616 -2.470909 
L 210.377905 -2.470909 
L 209.619649 -2.470909 
L 208.861394 -2.470909 
L 208.103139 -2.470909 
L 207.344884 -2.470909 
L 206.586629 -2.470909 
L 205.828373 -2.470909 
L 205.070118 -2.470909 
L 204.311863 -2.470909 
L 203.553608 -2.470909 
L 202.795353 -2.470909 
L 202.037097 -2.470909 
L 201.278842 -2.470909 
L 200.520587 -2.470909 
L 199.762332 -2.470909 
L 199.004077 -2.470909 
L 198.245821 -2.470909 
L 197.487566 -2.470909 
L 196.729311 -2.470909 
L 195.971056 -2.470909 
L 195.212801 -2.470909 
L 194.454545 -2.470909 
L 193.69629 -2.470909 
L 192.938035 -2.470909 
L 192.17978 -2.470909 
L 191.421525 -2.470909 
L 190.663269 -2.470909 
L 189.905014 -2.470909 
L 189.146759 -2.470909 
L 188.388504 -2.470909 
z
" style="stroke: #cf1313; stroke-opacity: 0.2"/>
    </defs>
    <g clip-path="url(#p2ef3a144a5)">
     <use xlink:href="#mff09e9a68e" x="0" y="54.36" style="fill: #cf1313; fill-opacity: 0.2; stroke: #cf1313; stroke-opacity: 0.2"/>
    </g>
   </g>
   <g id="PolyCollection_2">
    <defs>
     <path id="m3d9eb1f40d" d="M 349.896861 -2.470909 
L 349.896861 -3.898969 
L 350.655116 -3.973053 
L 351.413371 -4.051033 
L 352.171627 -4.13302 
L 352.929882 -4.219118 
L 353.688137 -4.309452 
L 354.446392 -4.404193 
L 355.204647 -4.503567 
L 355.962903 -4.607845 
L 356.721158 -4.717321 
L 357.479413 -4.832268 
L 358.237668 -4.952895 
L 358.995923 -5.079296 
L 359.754179 -5.211405 
L 360.512434 -5.348973 
L 361.270689 -5.491562 
L 362.028944 -5.638556 
L 362.787199 -5.789206 
L 363.545455 -5.942687 
L 364.30371 -6.098168 
L 365.061965 -6.254892 
L 365.82022 -6.412246 
L 366.578475 -6.569832 
L 367.336731 -6.727505 
L 368.094986 -6.885404 
L 368.853241 -7.043954 
L 369.611496 -7.203839 
L 370.369751 -7.365968 
L 371.128007 -7.531408 
L 371.886262 -7.701323 
L 372.644517 -7.87689 
L 373.402772 -8.059227 
L 374.161027 -8.249323 
L 374.919283 -8.447972 
L 375.677538 -8.655735 
L 376.435793 -8.872902 
L 377.194048 -9.099495 
L 377.952303 -9.335275 
L 378.710558 -9.579781 
L 379.468814 -9.832383 
L 380.227069 -10.092348 
L 380.985324 -10.35891 
L 381.743579 -10.63135 
L 382.501834 -10.90905 
L 383.26009 -11.19155 
L 384.018345 -11.478569 
L 384.7766 -11.770021 
L 385.534855 -12.065995 
L 386.29311 -12.366733 
L 387.051366 -12.672589 
L 387.809621 -12.983998 
L 388.567876 -13.301441 
L 389.326131 -13.62543 
L 390.084386 -13.95651 
L 390.842642 -14.295264 
L 391.600897 -14.642342 
L 392.359152 -14.99848 
L 393.117407 -15.364521 
L 393.875662 -15.741412 
L 394.633918 -16.13019 
L 395.392173 -16.531929 
L 396.150428 -16.947668 
L 396.908683 -17.378319 
L 397.666938 -17.824559 
L 398.425194 -18.28672 
L 399.183449 -18.764694 
L 399.941704 -19.257859 
L 400.699959 -19.765032 
L 401.458214 -20.284471 
L 402.21647 -20.813905 
L 402.974725 -21.350614 
L 403.73298 -21.891529 
L 404.491235 -22.433366 
L 405.24949 -22.972768 
L 406.007746 -23.506453 
L 406.766001 -24.031349 
L 407.524256 -24.544723 
L 408.282511 -25.044275 
L 409.040766 -25.52822 
L 409.799022 -25.995323 
L 410.557277 -26.444922 
L 411.315532 -26.876904 
L 412.073787 -27.291671 
L 412.832042 -27.690068 
L 413.590298 -28.073304 
L 414.348553 -28.44286 
L 415.106808 -28.800378 
L 415.865063 -29.147571 
L 416.623318 -29.48612 
L 417.381574 -29.817601 
L 418.139829 -30.143414 
L 418.898084 -30.464749 
L 419.656339 -30.782566 
L 420.414594 -31.097596 
L 421.17285 -31.410366 
L 421.931105 -31.721231 
L 422.68936 -32.03042 
L 423.447615 -32.338073 
L 424.20587 -32.644278 
L 424.964126 -32.949092 
L 425.722381 -33.252552 
L 426.480636 -33.554666 
L 427.238891 -33.855392 
L 427.997146 -34.154604 
L 428.755402 -34.452052 
L 429.513657 -34.747318 
L 430.271912 -35.039768 
L 431.030167 -35.328517 
L 431.788422 -35.612399 
L 432.546678 -35.889947 
L 433.304933 -36.159397 
L 434.063188 -36.418711 
L 434.821443 -36.665616 
L 435.579698 -36.897677 
L 436.337954 -37.112386 
L 437.096209 -37.307276 
L 437.854464 -37.480044 
L 438.612719 -37.628692 
L 439.370974 -37.751653 
L 440.12923 -37.847911 
L 440.887485 -37.917091 
L 441.64574 -37.959521 
L 442.403995 -37.976239 
L 443.16225 -37.968962 
L 443.920506 -37.939995 
L 444.678761 -37.8921 
L 445.437016 -37.828315 
L 446.195271 -37.751753 
L 446.953526 -37.66538 
L 447.711781 -37.571799 
L 448.470037 -37.473055 
L 449.228292 -37.370482 
L 449.986547 -37.264599 
L 450.744802 -37.155079 
L 451.503057 -37.040782 
L 452.261313 -36.919859 
L 453.019568 -36.789912 
L 453.777823 -36.648197 
L 454.536078 -36.491843 
L 455.294333 -36.318074 
L 456.052589 -36.124409 
L 456.810844 -35.908818 
L 457.569099 -35.669835 
L 458.327354 -35.406614 
L 459.085609 -35.118938 
L 459.843865 -34.807186 
L 460.60212 -34.472278 
L 461.360375 -34.115603 
L 462.11863 -33.73894 
L 462.876885 -33.344394 
L 463.635141 -32.934331 
L 464.393396 -32.51132 
L 465.151651 -32.07808 
L 465.909906 -31.637417 
L 466.668161 -31.192161 
L 467.426417 -30.745083 
L 468.184672 -30.298801 
L 468.942927 -29.855684 
L 469.701182 -29.417756 
L 470.459437 -28.986603 
L 471.217693 -28.563303 
L 471.975948 -28.148387 
L 472.734203 -27.741821 
L 473.492458 -27.343037 
L 474.250713 -26.950984 
L 475.008969 -26.564218 
L 475.767224 -26.181008 
L 476.525479 -25.799459 
L 477.283734 -25.417638 
L 478.041989 -25.033694 
L 478.800245 -24.64597 
L 479.5585 -24.253091 
L 480.316755 -23.854038 
L 481.07501 -23.44819 
L 481.833265 -23.035343 
L 482.591521 -22.615706 
L 483.349776 -22.189867 
L 484.108031 -21.758738 
L 484.866286 -21.323479 
L 485.624541 -20.885406 
L 486.382797 -20.445889 
L 487.141052 -20.006248 
L 487.899307 -19.567654 
L 488.657562 -19.131049 
L 489.415817 -18.697091 
L 490.174073 -18.266132 
L 490.932328 -17.838236 
L 491.690583 -17.413233 
L 492.448838 -16.990811 
L 493.207093 -16.570626 
L 493.965349 -16.152434 
L 494.723604 -15.736206 
L 495.481859 -15.322236 
L 496.240114 -14.911202 
L 496.998369 -14.504194 
L 497.756625 -14.102684 
L 498.51488 -13.708448 
L 499.273135 -13.32345 
L 500.03139 -12.949684 
L 500.789645 -12.589014 
L 501.547901 -12.243 
L 502.306156 -11.912761 
L 503.064411 -11.598853 
L 503.822666 -11.301215 
L 504.580921 -11.019149 
L 505.339177 -10.751372 
L 506.097432 -10.496112 
L 506.855687 -10.251244 
L 507.613942 -10.014465 
L 508.372197 -9.783469 
L 509.130453 -9.556121 
L 509.888708 -9.33061 
L 510.646963 -9.10556 
L 511.405218 -8.880094 
L 512.163473 -8.653845 
L 512.921728 -8.426918 
L 513.679984 -8.199806 
L 514.438239 -7.973279 
L 515.196494 -7.748252 
L 515.954749 -7.525659 
L 516.713004 -7.306343 
L 517.47126 -7.090973 
L 518.229515 -6.879995 
L 518.98777 -6.673629 
L 519.746025 -6.471889 
L 520.50428 -6.274643 
L 521.262536 -6.081677 
L 522.020791 -5.89277 
L 522.779046 -5.707762 
L 523.537301 -5.526607 
L 524.295556 -5.349405 
L 525.053812 -5.176413 
L 525.812067 -5.008038 
L 526.570322 -4.844809 
L 527.328577 -4.68734 
L 528.086832 -4.536288 
L 528.845088 -4.392309 
L 529.603343 -4.256015 
L 530.361598 -4.127939 
L 531.119853 -4.008501 
L 531.878108 -3.89799 
L 532.636364 -3.796545 
L 532.636364 -2.470909 
L 532.636364 -2.470909 
L 531.878108 -2.470909 
L 531.119853 -2.470909 
L 530.361598 -2.470909 
L 529.603343 -2.470909 
L 528.845088 -2.470909 
L 528.086832 -2.470909 
L 527.328577 -2.470909 
L 526.570322 -2.470909 
L 525.812067 -2.470909 
L 525.053812 -2.470909 
L 524.295556 -2.470909 
L 523.537301 -2.470909 
L 522.779046 -2.470909 
L 522.020791 -2.470909 
L 521.262536 -2.470909 
L 520.50428 -2.470909 
L 519.746025 -2.470909 
L 518.98777 -2.470909 
L 518.229515 -2.470909 
L 517.47126 -2.470909 
L 516.713004 -2.470909 
L 515.954749 -2.470909 
L 515.196494 -2.470909 
L 514.438239 -2.470909 
L 513.679984 -2.470909 
L 512.921728 -2.470909 
L 512.163473 -2.470909 
L 511.405218 -2.470909 
L 510.646963 -2.470909 
L 509.888708 -2.470909 
L 509.130453 -2.470909 
L 508.372197 -2.470909 
L 507.613942 -2.470909 
L 506.855687 -2.470909 
L 506.097432 -2.470909 
L 505.339177 -2.470909 
L 504.580921 -2.470909 
L 503.822666 -2.470909 
L 503.064411 -2.470909 
L 502.306156 -2.470909 
L 501.547901 -2.470909 
L 500.789645 -2.470909 
L 500.03139 -2.470909 
L 499.273135 -2.470909 
L 498.51488 -2.470909 
L 497.756625 -2.470909 
L 496.998369 -2.470909 
L 496.240114 -2.470909 
L 495.481859 -2.470909 
L 494.723604 -2.470909 
L 493.965349 -2.470909 
L 493.207093 -2.470909 
L 492.448838 -2.470909 
L 491.690583 -2.470909 
L 490.932328 -2.470909 
L 490.174073 -2.470909 
L 489.415817 -2.470909 
L 488.657562 -2.470909 
L 487.899307 -2.470909 
L 487.141052 -2.470909 
L 486.382797 -2.470909 
L 485.624541 -2.470909 
L 484.866286 -2.470909 
L 484.108031 -2.470909 
L 483.349776 -2.470909 
L 482.591521 -2.470909 
L 481.833265 -2.470909 
L 481.07501 -2.470909 
L 480.316755 -2.470909 
L 479.5585 -2.470909 
L 478.800245 -2.470909 
L 478.041989 -2.470909 
L 477.283734 -2.470909 
L 476.525479 -2.470909 
L 475.767224 -2.470909 
L 475.008969 -2.470909 
L 474.250713 -2.470909 
L 473.492458 -2.470909 
L 472.734203 -2.470909 
L 471.975948 -2.470909 
L 471.217693 -2.470909 
L 470.459437 -2.470909 
L 469.701182 -2.470909 
L 468.942927 -2.470909 
L 468.184672 -2.470909 
L 467.426417 -2.470909 
L 466.668161 -2.470909 
L 465.909906 -2.470909 
L 465.151651 -2.470909 
L 464.393396 -2.470909 
L 463.635141 -2.470909 
L 462.876885 -2.470909 
L 462.11863 -2.470909 
L 461.360375 -2.470909 
L 460.60212 -2.470909 
L 459.843865 -2.470909 
L 459.085609 -2.470909 
L 458.327354 -2.470909 
L 457.569099 -2.470909 
L 456.810844 -2.470909 
L 456.052589 -2.470909 
L 455.294333 -2.470909 
L 454.536078 -2.470909 
L 453.777823 -2.470909 
L 453.019568 -2.470909 
L 452.261313 -2.470909 
L 451.503057 -2.470909 
L 450.744802 -2.470909 
L 449.986547 -2.470909 
L 449.228292 -2.470909 
L 448.470037 -2.470909 
L 447.711781 -2.470909 
L 446.953526 -2.470909 
L 446.195271 -2.470909 
L 445.437016 -2.470909 
L 444.678761 -2.470909 
L 443.920506 -2.470909 
L 443.16225 -2.470909 
L 442.403995 -2.470909 
L 441.64574 -2.470909 
L 440.887485 -2.470909 
L 440.12923 -2.470909 
L 439.370974 -2.470909 
L 438.612719 -2.470909 
L 437.854464 -2.470909 
L 437.096209 -2.470909 
L 436.337954 -2.470909 
L 435.579698 -2.470909 
L 434.821443 -2.470909 
L 434.063188 -2.470909 
L 433.304933 -2.470909 
L 432.546678 -2.470909 
L 431.788422 -2.470909 
L 431.030167 -2.470909 
L 430.271912 -2.470909 
L 429.513657 -2.470909 
L 428.755402 -2.470909 
L 427.997146 -2.470909 
L 427.238891 -2.470909 
L 426.480636 -2.470909 
L 425.722381 -2.470909 
L 424.964126 -2.470909 
L 424.20587 -2.470909 
L 423.447615 -2.470909 
L 422.68936 -2.470909 
L 421.931105 -2.470909 
L 421.17285 -2.470909 
L 420.414594 -2.470909 
L 419.656339 -2.470909 
L 418.898084 -2.470909 
L 418.139829 -2.470909 
L 417.381574 -2.470909 
L 416.623318 -2.470909 
L 415.865063 -2.470909 
L 415.106808 -2.470909 
L 414.348553 -2.470909 
L 413.590298 -2.470909 
L 412.832042 -2.470909 
L 412.073787 -2.470909 
L 411.315532 -2.470909 
L 410.557277 -2.470909 
L 409.799022 -2.470909 
L 409.040766 -2.470909 
L 408.282511 -2.470909 
L 407.524256 -2.470909 
L 406.766001 -2.470909 
L 406.007746 -2.470909 
L 405.24949 -2.470909 
L 404.491235 -2.470909 
L 403.73298 -2.470909 
L 402.974725 -2.470909 
L 402.21647 -2.470909 
L 401.458214 -2.470909 
L 400.699959 -2.470909 
L 399.941704 -2.470909 
L 399.183449 -2.470909 
L 398.425194 -2.470909 
L 397.666938 -2.470909 
L 396.908683 -2.470909 
L 396.150428 -2.470909 
L 395.392173 -2.470909 
L 394.633918 -2.470909 
L 393.875662 -2.470909 
L 393.117407 -2.470909 
L 392.359152 -2.470909 
L 391.600897 -2.470909 
L 390.842642 -2.470909 
L 390.084386 -2.470909 
L 389.326131 -2.470909 
L 388.567876 -2.470909 
L 387.809621 -2.470909 
L 387.051366 -2.470909 
L 386.29311 -2.470909 
L 385.534855 -2.470909 
L 384.7766 -2.470909 
L 384.018345 -2.470909 
L 383.26009 -2.470909 
L 382.501834 -2.470909 
L 381.743579 -2.470909 
L 380.985324 -2.470909 
L 380.227069 -2.470909 
L 379.468814 -2.470909 
L 378.710558 -2.470909 
L 377.952303 -2.470909 
L 377.194048 -2.470909 
L 376.435793 -2.470909 
L 375.677538 -2.470909 
L 374.919283 -2.470909 
L 374.161027 -2.470909 
L 373.402772 -2.470909 
L 372.644517 -2.470909 
L 371.886262 -2.470909 
L 371.128007 -2.470909 
L 370.369751 -2.470909 
L 369.611496 -2.470909 
L 368.853241 -2.470909 
L 368.094986 -2.470909 
L 367.336731 -2.470909 
L 366.578475 -2.470909 
L 365.82022 -2.470909 
L 365.061965 -2.470909 
L 364.30371 -2.470909 
L 363.545455 -2.470909 
L 362.787199 -2.470909 
L 362.028944 -2.470909 
L 361.270689 -2.470909 
L 360.512434 -2.470909 
L 359.754179 -2.470909 
L 358.995923 -2.470909 
L 358.237668 -2.470909 
L 357.479413 -2.470909 
L 356.721158 -2.470909 
L 355.962903 -2.470909 
L 355.204647 -2.470909 
L 354.446392 -2.470909 
L 353.688137 -2.470909 
L 352.929882 -2.470909 
L 352.171627 -2.470909 
L 351.413371 -2.470909 
L 350.655116 -2.470909 
L 349.896861 -2.470909 
z
" style="stroke: #116dc2; stroke-opacity: 0.2"/>
    </defs>
    <g clip-path="url(#p2ef3a144a5)">
     <use xlink:href="#m3d9eb1f40d" x="0" y="54.36" style="fill: #116dc2; fill-opacity: 0.2; stroke: #116dc2; stroke-opacity: 0.2"/>
    </g>
   </g>
   <g id="PolyCollection_3">
    <defs>
     <path id="m667d001f61" d="M 25.363636 -2.470909 
L 25.363636 -4.908628 
L 26.121892 -5.696056 
L 26.880147 -6.593915 
L 27.638402 -7.622089 
L 28.396657 -8.854022 
L 29.154912 -10.299881 
L 29.913168 -11.84844 
L 30.671423 -13.453829 
L 31.429678 -15.231687 
L 32.187933 -17.362644 
L 32.946188 -19.942784 
L 33.704444 -22.892893 
L 34.462699 -26.09099 
L 35.220954 -29.441658 
L 35.979209 -32.69737 
L 36.737464 -35.623138 
L 37.49572 -38.465524 
L 38.253975 -41.695331 
L 39.01223 -45.223001 
L 39.770485 -48.399785 
L 40.52874 -50.673402 
L 41.286996 -51.83339 
L 42.045251 -51.889091 
L 42.803506 -51.105704 
L 43.561761 -49.882698 
L 44.320016 -48.303223 
L 45.078272 -46.315903 
L 45.836527 -44.171483 
L 46.594782 -42.109601 
L 47.353037 -40.120742 
L 48.111292 -38.042155 
L 48.869547 -35.611723 
L 49.627803 -32.71214 
L 50.386058 -29.593244 
L 51.144313 -26.652573 
L 51.902568 -24.058174 
L 52.660823 -21.68261 
L 53.419079 -19.258207 
L 54.177334 -16.625989 
L 54.935589 -13.979274 
L 55.693844 -11.754712 
L 56.452099 -10.14638 
L 57.210355 -8.921097 
L 57.96861 -7.800825 
L 58.726865 -6.738137 
L 59.48512 -5.815294 
L 60.243375 -5.079195 
L 61.001631 -4.505445 
L 61.001631 -2.470909 
L 61.001631 -2.470909 
L 60.243375 -2.470909 
L 59.48512 -2.470909 
L 58.726865 -2.470909 
L 57.96861 -2.470909 
L 57.210355 -2.470909 
L 56.452099 -2.470909 
L 55.693844 -2.470909 
L 54.935589 -2.470909 
L 54.177334 -2.470909 
L 53.419079 -2.470909 
L 52.660823 -2.470909 
L 51.902568 -2.470909 
L 51.144313 -2.470909 
L 50.386058 -2.470909 
L 49.627803 -2.470909 
L 48.869547 -2.470909 
L 48.111292 -2.470909 
L 47.353037 -2.470909 
L 46.594782 -2.470909 
L 45.836527 -2.470909 
L 45.078272 -2.470909 
L 44.320016 -2.470909 
L 43.561761 -2.470909 
L 42.803506 -2.470909 
L 42.045251 -2.470909 
L 41.286996 -2.470909 
L 40.52874 -2.470909 
L 39.770485 -2.470909 
L 39.01223 -2.470909 
L 38.253975 -2.470909 
L 37.49572 -2.470909 
L 36.737464 -2.470909 
L 35.979209 -2.470909 
L 35.220954 -2.470909 
L 34.462699 -2.470909 
L 33.704444 -2.470909 
L 32.946188 -2.470909 
L 32.187933 -2.470909 
L 31.429678 -2.470909 
L 30.671423 -2.470909 
L 29.913168 -2.470909 
L 29.154912 -2.470909 
L 28.396657 -2.470909 
L 27.638402 -2.470909 
L 26.880147 -2.470909 
L 26.121892 -2.470909 
L 25.363636 -2.470909 
z
" style="stroke: #8a8a8a; stroke-opacity: 0.2"/>
    </defs>
    <g clip-path="url(#p2ef3a144a5)">
     <use xlink:href="#m667d001f61" x="0" y="54.36" style="fill: #8a8a8a; fill-opacity: 0.2; stroke: #8a8a8a; stroke-opacity: 0.2"/>
    </g>
   </g>
   <g id="line2d_1">
    <path d="M 188.388504 50.422102 
L 196.729311 49.847636 
L 202.037097 49.234145 
L 208.103139 48.282796 
L 212.65267 47.371751 
L 216.443946 46.404397 
L 221.751733 44.784885 
L 235.400326 40.353873 
L 241.466368 37.967805 
L 251.323685 33.879173 
L 268.0053 26.59508 
L 277.862617 22.778454 
L 285.445169 19.653067 
L 288.47819 18.711742 
L 291.511211 18.057316 
L 294.544232 17.655436 
L 297.577252 17.453258 
L 300.610273 17.453058 
L 303.643294 17.713183 
L 305.91806 18.109548 
L 308.95108 18.897319 
L 312.742356 20.189302 
L 324.116184 24.538063 
L 329.423971 26.772674 
L 336.248267 29.686624 
L 348.380351 34.583934 
L 360.512434 39.975425 
L 364.30371 41.316303 
L 368.853241 42.67442 
L 378.710558 45.331641 
L 384.018345 46.545701 
L 396.908683 49.083096 
L 402.21647 49.977177 
L 406.766001 50.544688 
L 409.799022 50.814786 
L 409.799022 50.814786 
" clip-path="url(#p2ef3a144a5)" style="fill: none; stroke: #cf1313; stroke-width: 1.5; stroke-linecap: square"/>
   </g>
   <g id="line2d_2">
    <path d="M 349.896861 50.461031 
L 355.204647 49.856433 
L 359.754179 49.148595 
L 365.82022 47.947754 
L 374.161027 46.110677 
L 377.952303 45.024725 
L 382.501834 43.45095 
L 387.809621 41.376002 
L 392.359152 39.36152 
L 396.150428 37.412332 
L 399.183449 35.595306 
L 402.974725 33.009386 
L 408.282511 29.315725 
L 411.315532 27.483096 
L 414.348553 25.91714 
L 418.139829 24.216586 
L 425.722381 21.107448 
L 433.304933 18.200603 
L 436.337954 17.247614 
L 438.612719 16.731308 
L 440.887485 16.442909 
L 443.16225 16.391038 
L 446.195271 16.608247 
L 451.503057 17.319218 
L 454.536078 17.868157 
L 456.810844 18.451182 
L 459.085609 19.241062 
L 461.360375 20.244397 
L 464.393396 21.84868 
L 475.008969 27.795782 
L 482.591521 31.744294 
L 499.273135 41.03655 
L 502.306156 42.447239 
L 505.339177 43.608628 
L 509.888708 45.02939 
L 520.50428 48.085357 
L 526.570322 49.515191 
L 531.119853 50.351499 
L 532.636364 50.563455 
L 532.636364 50.563455 
" clip-path="url(#p2ef3a144a5)" style="fill: none; stroke: #116dc2; stroke-width: 1.5; stroke-linecap: square"/>
   </g>
   <g id="line2d_3">
    <path d="M 25.363636 49.451372 
L 26.121892 48.663944 
L 26.880147 47.766085 
L 27.638402 46.737911 
L 28.396657 45.505978 
L 29.154912 44.060119 
L 29.913168 42.51156 
L 30.671423 40.906171 
L 31.429678 39.128313 
L 32.187933 36.997356 
L 32.946188 34.417216 
L 33.704444 31.467107 
L 34.462699 28.26901 
L 35.220954 24.918342 
L 35.979209 21.66263 
L 36.737464 18.736862 
L 37.49572 15.894476 
L 38.253975 12.664669 
L 39.01223 9.136999 
L 39.770485 5.960215 
L 40.52874 3.686598 
L 41.286996 2.52661 
L 42.045251 2.470909 
L 42.803506 3.254296 
L 43.561761 4.477302 
L 44.320016 6.056777 
L 45.078272 8.044097 
L 45.836527 10.188517 
L 46.594782 12.250399 
L 47.353037 14.239258 
L 48.111292 16.317845 
L 48.869547 18.748277 
L 49.627803 21.64786 
L 50.386058 24.766756 
L 51.144313 27.707427 
L 51.902568 30.301826 
L 52.660823 32.67739 
L 53.419079 35.101793 
L 54.177334 37.734011 
L 54.935589 40.380726 
L 55.693844 42.605288 
L 56.452099 44.21362 
L 57.210355 45.438903 
L 57.96861 46.559175 
L 58.726865 47.621863 
L 59.48512 48.544706 
L 60.243375 49.280805 
L 61.001631 49.854555 
" clip-path="url(#p2ef3a144a5)" style="fill: none; stroke: #8a8a8a; stroke-width: 1.5; stroke-linecap: square"/>
   </g>
  </g>
 </g>
 <defs>
  <clipPath id="p2ef3a144a5">
   <rect x="0" y="-0" width="558" height="54.36"/>
  </clipPath>
 </defs>
</svg>
