<?xml version="1.0" encoding="utf-8" standalone="no"?>
<!DOCTYPE svg PUBLIC "-//W3C//DTD SVG 1.1//EN"
  "http://www.w3.org/Graphics/SVG/1.1/DTD/svg11.dtd">
<svg xmlns:xlink="http://www.w3.org/1999/xlink" width="558pt" height="54.36pt" viewBox="0 0 558 54.36" xmlns="http://www.w3.org/2000/svg" version="1.1">
 <metadata>
  <rdf:RDF xmlns:dc="http://purl.org/dc/elements/1.1/" xmlns:cc="http://creativecommons.org/ns#" xmlns:rdf="http://www.w3.org/1999/02/22-rdf-syntax-ns#">
   <cc:Work>
    <dc:type rdf:resource="http://purl.org/dc/dcmitype/StillImage"/>
    <dc:date>2024-09-14T12:47:26.020123</dc:date>
    <dc:format>image/svg+xml</dc:format>
    <dc:creator>
     <cc:Agent>
      <dc:title>Matplotlib v3.5.2, https://matplotlib.org/</dc:title>
     </cc:Agent>
    </dc:creator>
   </cc:Work>
  </rdf:RDF>
 </metadata>
 <defs>
  <style type="text/css">*{stroke-linejoin: round; stroke-linecap: butt}</style>
 </defs>
 <g id="figure_1">
  <g id="patch_1">
   <path d="M 0 54.36 
L 558 54.36 
L 558 0 
L 0 0 
L 0 54.36 
z
" style="fill: none; opacity: 0"/>
  </g>
  <g id="axes_1">
   <g id="PolyCollection_1">
    <defs>
     <path id="m2fab34e1cc" d="M 188.684381 -2.470909 
L 188.684381 -4.189949 
L 189.437011 -4.285684 
L 190.189641 -4.385571 
L 190.942271 -4.489319 
L 191.694902 -4.596539 
L 192.447532 -4.706742 
L 193.200162 -4.819358 
L 193.952792 -4.933748 
L 194.705422 -5.049235 
L 195.458052 -5.165126 
L 196.210682 -5.280756 
L 196.963313 -5.395515 
L 197.715943 -5.508891 
L 198.468573 -5.620492 
L 199.221203 -5.73008 
L 199.973833 -5.837577 
L 200.726463 -5.943073 
L 201.479094 -6.046818 
L 202.231724 -6.149204 
L 202.984354 -6.250733 
L 203.736984 -6.351979 
L 204.489614 -6.45355 
L 205.242244 -6.556041 
L 205.994875 -6.659992 
L 206.747505 -6.765858 
L 207.500135 -6.873978 
L 208.252765 -6.984566 
L 209.005395 -7.097712 
L 209.758025 -7.21339 
L 210.510656 -7.331493 
L 211.263286 -7.451867 
L 212.015916 -7.574353 
L 212.768546 -7.698841 
L 213.521176 -7.825318 
L 214.273806 -7.953908 
L 215.026436 -8.084907 
L 215.779067 -8.218809 
L 216.531697 -8.356311 
L 217.284327 -8.498304 
L 218.036957 -8.645846 
L 218.789587 -8.800129 
L 219.542217 -8.962417 
L 220.294848 -9.13399 
L 221.047478 -9.316071 
L 221.800108 -9.509761 
L 222.552738 -9.715965 
L 223.305368 -9.935345 
L 224.057998 -10.168263 
L 224.810629 -10.414755 
L 225.563259 -10.674519 
L 226.315889 -10.946914 
L 227.068519 -11.230989 
L 227.821149 -11.525522 
L 228.573779 -11.829073 
L 229.326409 -12.140053 
L 230.07904 -12.456797 
L 230.83167 -12.777638 
L 231.5843 -13.100982 
L 232.33693 -13.425373 
L 233.08956 -13.749547 
L 233.84219 -14.072478 
L 234.594821 -14.393398 
L 235.347451 -14.711808 
L 236.100081 -15.027473 
L 236.852711 -15.340398 
L 237.605341 -15.650798 
L 238.357971 -15.959054 
L 239.110602 -16.265676 
L 239.863232 -16.571249 
L 240.615862 -16.876402 
L 241.368492 -17.18177 
L 242.121122 -17.487972 
L 242.873752 -17.795594 
L 243.626383 -18.105189 
L 244.379013 -18.417275 
L 245.131643 -18.732352 
L 245.884273 -19.050907 
L 246.636903 -19.373432 
L 247.389533 -19.700426 
L 248.142163 -20.032399 
L 248.894794 -20.36986 
L 249.647424 -20.713299 
L 250.400054 -21.063156 
L 251.152684 -21.419787 
L 251.905314 -21.783422 
L 252.657944 -22.154127 
L 253.410575 -22.53177 
L 254.163205 -22.915995 
L 254.915835 -23.306218 
L 255.668465 -23.701629 
L 256.421095 -24.101222 
L 257.173725 -24.503833 
L 257.926356 -24.908201 
L 258.678986 -25.313024 
L 259.431616 -25.71703 
L 260.184246 -26.119032 
L 260.936876 -26.517978 
L 261.689506 -26.912982 
L 262.442136 -27.303332 
L 263.194767 -27.68848 
L 263.947397 -28.068008 
L 264.700027 -28.441585 
L 265.452657 -28.808908 
L 266.205287 -29.169645 
L 266.957917 -29.523386 
L 267.710548 -29.869609 
L 268.463178 -30.207665 
L 269.215808 -30.536785 
L 269.968438 -30.856121 
L 270.721068 -31.164796 
L 271.473698 -31.461978 
L 272.226329 -31.74696 
L 272.978959 -32.019237 
L 273.731589 -32.27857 
L 274.484219 -32.525034 
L 275.236849 -32.759035 
L 275.989479 -32.981297 
L 276.74211 -33.192824 
L 277.49474 -33.394832 
L 278.24737 -33.588656 
L 279 -33.775658 
L 279.75263 -33.957123 
L 280.50526 -34.134172 
L 281.25789 -34.307685 
L 282.010521 -34.478259 
L 282.763151 -34.646182 
L 283.515781 -34.811447 
L 284.268411 -34.973779 
L 285.021041 -35.132691 
L 285.773671 -35.287546 
L 286.526302 -35.437622 
L 287.278932 -35.582176 
L 288.031562 -35.720494 
L 288.784192 -35.851922 
L 289.536822 -35.975883 
L 290.289452 -36.091876 
L 291.042083 -36.199453 
L 291.794713 -36.2982 
L 292.547343 -36.387698 
L 293.299973 -36.467498 
L 294.052603 -36.5371 
L 294.805233 -36.595942 
L 295.557864 -36.643412 
L 296.310494 -36.678866 
L 297.063124 -36.701668 
L 297.815754 -36.711237 
L 298.568384 -36.707103 
L 299.321014 -36.688962 
L 300.073644 -36.65673 
L 300.826275 -36.610578 
L 301.578905 -36.550966 
L 302.331535 -36.478644 
L 303.084165 -36.394645 
L 303.836795 -36.300248 
L 304.589425 -36.196933 
L 305.342056 -36.086307 
L 306.094686 -35.970033 
L 306.847316 -35.849742 
L 307.599946 -35.726949 
L 308.352576 -35.60297 
L 309.105206 -35.478855 
L 309.857837 -35.355327 
L 310.610467 -35.232749 
L 311.363097 -35.111101 
L 312.115727 -34.989982 
L 312.868357 -34.868637 
L 313.620987 -34.745994 
L 314.373617 -34.620722 
L 315.126248 -34.491304 
L 315.878878 -34.356108 
L 316.631508 -34.213468 
L 317.384138 -34.061766 
L 318.136768 -33.899493 
L 318.889398 -33.72532 
L 319.642029 -33.538132 
L 320.394659 -33.337068 
L 321.147289 -33.12153 
L 321.899919 -32.891179 
L 322.652549 -32.645922 
L 323.405179 -32.385878 
L 324.15781 -32.111348 
L 324.91044 -31.822765 
L 325.66307 -31.520661 
L 326.4157 -31.205625 
L 327.16833 -30.878273 
L 327.92096 -30.539227 
L 328.673591 -30.189102 
L 329.426221 -29.828507 
L 330.178851 -29.458048 
L 330.931481 -29.078345 
L 331.684111 -28.690049 
L 332.436741 -28.29386 
L 333.189371 -27.89055 
L 333.942002 -27.480975 
L 334.694632 -27.066084 
L 335.447262 -26.646929 
L 336.199892 -26.224659 
L 336.952522 -25.800511 
L 337.705152 -25.375795 
L 338.457783 -24.951878 
L 339.210413 -24.530152 
L 339.963043 -24.112014 
L 340.715673 -23.698826 
L 341.468303 -23.291889 
L 342.220933 -22.892402 
L 342.973564 -22.50143 
L 343.726194 -22.119866 
L 344.478824 -21.7484 
L 345.231454 -21.38749 
L 345.984084 -21.037331 
L 346.736714 -20.697843 
L 347.489344 -20.368657 
L 348.241975 -20.04912 
L 348.994605 -19.738306 
L 349.747235 -19.435042 
L 350.499865 -19.137944 
L 351.252495 -18.845475 
L 352.005125 -18.555998 
L 352.757756 -18.267847 
L 353.510386 -17.979401 
L 354.263016 -17.689152 
L 355.015646 -17.395776 
L 355.768276 -17.09819 
L 356.520906 -16.795597 
L 357.273537 -16.487516 
L 358.026167 -16.173796 
L 358.778797 -15.854612 
L 359.531427 -15.530434 
L 360.284057 -15.201995 
L 361.036687 -14.870238 
L 361.789318 -14.536252 
L 362.541948 -14.201215 
L 363.294578 -13.866326 
L 364.047208 -13.532752 
L 364.799838 -13.201578 
L 365.552468 -12.873771 
L 366.305098 -12.550159 
L 367.057729 -12.231424 
L 367.810359 -11.918098 
L 368.562989 -11.610586 
L 369.315619 -11.309184 
L 370.068249 -11.014104 
L 370.820879 -10.725507 
L 371.57351 -10.443529 
L 372.32614 -10.168301 
L 373.07877 -9.899971 
L 373.8314 -9.638714 
L 374.58403 -9.384737 
L 375.33666 -9.138277 
L 376.089291 -8.899591 
L 376.841921 -8.668949 
L 377.594551 -8.446617 
L 378.347181 -8.232841 
L 379.099811 -8.027832 
L 379.852441 -7.831753 
L 380.605071 -7.644703 
L 381.357702 -7.466709 
L 382.110332 -7.29772 
L 382.862962 -7.137598 
L 383.615592 -6.986119 
L 384.368222 -6.842974 
L 385.120852 -6.707772 
L 385.873483 -6.580044 
L 386.626113 -6.459253 
L 387.378743 -6.3448 
L 388.131373 -6.23604 
L 388.884003 -6.13229 
L 389.636633 -6.032846 
L 390.389264 -5.936991 
L 391.141894 -5.844019 
L 391.894524 -5.753239 
L 392.647154 -5.663995 
L 393.399784 -5.575675 
L 394.152414 -5.487725 
L 394.905045 -5.399658 
L 395.657675 -5.311061 
L 396.410305 -5.221605 
L 397.162935 -5.131047 
L 397.915565 -5.039237 
L 398.668195 -4.946116 
L 399.420825 -4.851718 
L 400.173456 -4.756167 
L 400.926086 -4.659673 
L 401.678716 -4.562527 
L 402.431346 -4.465091 
L 403.183976 -4.367788 
L 403.936606 -4.271094 
L 404.689237 -4.175515 
L 404.689237 -2.470909 
L 404.689237 -2.470909 
L 403.936606 -2.470909 
L 403.183976 -2.470909 
L 402.431346 -2.470909 
L 401.678716 -2.470909 
L 400.926086 -2.470909 
L 400.173456 -2.470909 
L 399.420825 -2.470909 
L 398.668195 -2.470909 
L 397.915565 -2.470909 
L 397.162935 -2.470909 
L 396.410305 -2.470909 
L 395.657675 -2.470909 
L 394.905045 -2.470909 
L 394.152414 -2.470909 
L 393.399784 -2.470909 
L 392.647154 -2.470909 
L 391.894524 -2.470909 
L 391.141894 -2.470909 
L 390.389264 -2.470909 
L 389.636633 -2.470909 
L 388.884003 -2.470909 
L 388.131373 -2.470909 
L 387.378743 -2.470909 
L 386.626113 -2.470909 
L 385.873483 -2.470909 
L 385.120852 -2.470909 
L 384.368222 -2.470909 
L 383.615592 -2.470909 
L 382.862962 -2.470909 
L 382.110332 -2.470909 
L 381.357702 -2.470909 
L 380.605071 -2.470909 
L 379.852441 -2.470909 
L 379.099811 -2.470909 
L 378.347181 -2.470909 
L 377.594551 -2.470909 
L 376.841921 -2.470909 
L 376.089291 -2.470909 
L 375.33666 -2.470909 
L 374.58403 -2.470909 
L 373.8314 -2.470909 
L 373.07877 -2.470909 
L 372.32614 -2.470909 
L 371.57351 -2.470909 
L 370.820879 -2.470909 
L 370.068249 -2.470909 
L 369.315619 -2.470909 
L 368.562989 -2.470909 
L 367.810359 -2.470909 
L 367.057729 -2.470909 
L 366.305098 -2.470909 
L 365.552468 -2.470909 
L 364.799838 -2.470909 
L 364.047208 -2.470909 
L 363.294578 -2.470909 
L 362.541948 -2.470909 
L 361.789318 -2.470909 
L 361.036687 -2.470909 
L 360.284057 -2.470909 
L 359.531427 -2.470909 
L 358.778797 -2.470909 
L 358.026167 -2.470909 
L 357.273537 -2.470909 
L 356.520906 -2.470909 
L 355.768276 -2.470909 
L 355.015646 -2.470909 
L 354.263016 -2.470909 
L 353.510386 -2.470909 
L 352.757756 -2.470909 
L 352.005125 -2.470909 
L 351.252495 -2.470909 
L 350.499865 -2.470909 
L 349.747235 -2.470909 
L 348.994605 -2.470909 
L 348.241975 -2.470909 
L 347.489344 -2.470909 
L 346.736714 -2.470909 
L 345.984084 -2.470909 
L 345.231454 -2.470909 
L 344.478824 -2.470909 
L 343.726194 -2.470909 
L 342.973564 -2.470909 
L 342.220933 -2.470909 
L 341.468303 -2.470909 
L 340.715673 -2.470909 
L 339.963043 -2.470909 
L 339.210413 -2.470909 
L 338.457783 -2.470909 
L 337.705152 -2.470909 
L 336.952522 -2.470909 
L 336.199892 -2.470909 
L 335.447262 -2.470909 
L 334.694632 -2.470909 
L 333.942002 -2.470909 
L 333.189371 -2.470909 
L 332.436741 -2.470909 
L 331.684111 -2.470909 
L 330.931481 -2.470909 
L 330.178851 -2.470909 
L 329.426221 -2.470909 
L 328.673591 -2.470909 
L 327.92096 -2.470909 
L 327.16833 -2.470909 
L 326.4157 -2.470909 
L 325.66307 -2.470909 
L 324.91044 -2.470909 
L 324.15781 -2.470909 
L 323.405179 -2.470909 
L 322.652549 -2.470909 
L 321.899919 -2.470909 
L 321.147289 -2.470909 
L 320.394659 -2.470909 
L 319.642029 -2.470909 
L 318.889398 -2.470909 
L 318.136768 -2.470909 
L 317.384138 -2.470909 
L 316.631508 -2.470909 
L 315.878878 -2.470909 
L 315.126248 -2.470909 
L 314.373617 -2.470909 
L 313.620987 -2.470909 
L 312.868357 -2.470909 
L 312.115727 -2.470909 
L 311.363097 -2.470909 
L 310.610467 -2.470909 
L 309.857837 -2.470909 
L 309.105206 -2.470909 
L 308.352576 -2.470909 
L 307.599946 -2.470909 
L 306.847316 -2.470909 
L 306.094686 -2.470909 
L 305.342056 -2.470909 
L 304.589425 -2.470909 
L 303.836795 -2.470909 
L 303.084165 -2.470909 
L 302.331535 -2.470909 
L 301.578905 -2.470909 
L 300.826275 -2.470909 
L 300.073644 -2.470909 
L 299.321014 -2.470909 
L 298.568384 -2.470909 
L 297.815754 -2.470909 
L 297.063124 -2.470909 
L 296.310494 -2.470909 
L 295.557864 -2.470909 
L 294.805233 -2.470909 
L 294.052603 -2.470909 
L 293.299973 -2.470909 
L 292.547343 -2.470909 
L 291.794713 -2.470909 
L 291.042083 -2.470909 
L 290.289452 -2.470909 
L 289.536822 -2.470909 
L 288.784192 -2.470909 
L 288.031562 -2.470909 
L 287.278932 -2.470909 
L 286.526302 -2.470909 
L 285.773671 -2.470909 
L 285.021041 -2.470909 
L 284.268411 -2.470909 
L 283.515781 -2.470909 
L 282.763151 -2.470909 
L 282.010521 -2.470909 
L 281.25789 -2.470909 
L 280.50526 -2.470909 
L 279.75263 -2.470909 
L 279 -2.470909 
L 278.24737 -2.470909 
L 277.49474 -2.470909 
L 276.74211 -2.470909 
L 275.989479 -2.470909 
L 275.236849 -2.470909 
L 274.484219 -2.470909 
L 273.731589 -2.470909 
L 272.978959 -2.470909 
L 272.226329 -2.470909 
L 271.473698 -2.470909 
L 270.721068 -2.470909 
L 269.968438 -2.470909 
L 269.215808 -2.470909 
L 268.463178 -2.470909 
L 267.710548 -2.470909 
L 266.957917 -2.470909 
L 266.205287 -2.470909 
L 265.452657 -2.470909 
L 264.700027 -2.470909 
L 263.947397 -2.470909 
L 263.194767 -2.470909 
L 262.442136 -2.470909 
L 261.689506 -2.470909 
L 260.936876 -2.470909 
L 260.184246 -2.470909 
L 259.431616 -2.470909 
L 258.678986 -2.470909 
L 257.926356 -2.470909 
L 257.173725 -2.470909 
L 256.421095 -2.470909 
L 255.668465 -2.470909 
L 254.915835 -2.470909 
L 254.163205 -2.470909 
L 253.410575 -2.470909 
L 252.657944 -2.470909 
L 251.905314 -2.470909 
L 251.152684 -2.470909 
L 250.400054 -2.470909 
L 249.647424 -2.470909 
L 248.894794 -2.470909 
L 248.142163 -2.470909 
L 247.389533 -2.470909 
L 246.636903 -2.470909 
L 245.884273 -2.470909 
L 245.131643 -2.470909 
L 244.379013 -2.470909 
L 243.626383 -2.470909 
L 242.873752 -2.470909 
L 242.121122 -2.470909 
L 241.368492 -2.470909 
L 240.615862 -2.470909 
L 239.863232 -2.470909 
L 239.110602 -2.470909 
L 238.357971 -2.470909 
L 237.605341 -2.470909 
L 236.852711 -2.470909 
L 236.100081 -2.470909 
L 235.347451 -2.470909 
L 234.594821 -2.470909 
L 233.84219 -2.470909 
L 233.08956 -2.470909 
L 232.33693 -2.470909 
L 231.5843 -2.470909 
L 230.83167 -2.470909 
L 230.07904 -2.470909 
L 229.326409 -2.470909 
L 228.573779 -2.470909 
L 227.821149 -2.470909 
L 227.068519 -2.470909 
L 226.315889 -2.470909 
L 225.563259 -2.470909 
L 224.810629 -2.470909 
L 224.057998 -2.470909 
L 223.305368 -2.470909 
L 222.552738 -2.470909 
L 221.800108 -2.470909 
L 221.047478 -2.470909 
L 220.294848 -2.470909 
L 219.542217 -2.470909 
L 218.789587 -2.470909 
L 218.036957 -2.470909 
L 217.284327 -2.470909 
L 216.531697 -2.470909 
L 215.779067 -2.470909 
L 215.026436 -2.470909 
L 214.273806 -2.470909 
L 213.521176 -2.470909 
L 212.768546 -2.470909 
L 212.015916 -2.470909 
L 211.263286 -2.470909 
L 210.510656 -2.470909 
L 209.758025 -2.470909 
L 209.005395 -2.470909 
L 208.252765 -2.470909 
L 207.500135 -2.470909 
L 206.747505 -2.470909 
L 205.994875 -2.470909 
L 205.242244 -2.470909 
L 204.489614 -2.470909 
L 203.736984 -2.470909 
L 202.984354 -2.470909 
L 202.231724 -2.470909 
L 201.479094 -2.470909 
L 200.726463 -2.470909 
L 199.973833 -2.470909 
L 199.221203 -2.470909 
L 198.468573 -2.470909 
L 197.715943 -2.470909 
L 196.963313 -2.470909 
L 196.210682 -2.470909 
L 195.458052 -2.470909 
L 194.705422 -2.470909 
L 193.952792 -2.470909 
L 193.200162 -2.470909 
L 192.447532 -2.470909 
L 191.694902 -2.470909 
L 190.942271 -2.470909 
L 190.189641 -2.470909 
L 189.437011 -2.470909 
L 188.684381 -2.470909 
z
" style="stroke: #cf1313; stroke-opacity: 0.2"/>
    </defs>
    <g clip-path="url(#p0c2794ea83)">
     <use xlink:href="#m2fab34e1cc" x="0" y="54.36" style="fill: #cf1313; fill-opacity: 0.2; stroke: #cf1313; stroke-opacity: 0.2"/>
    </g>
   </g>
   <g id="PolyCollection_2">
    <defs>
     <path id="m4773422a64" d="M 349.747235 -2.470909 
L 349.747235 -4.012398 
L 350.499865 -4.093998 
L 351.252495 -4.176326 
L 352.005125 -4.259485 
L 352.757756 -4.343689 
L 353.510386 -4.429241 
L 354.263016 -4.516498 
L 355.015646 -4.60584 
L 355.768276 -4.697636 
L 356.520906 -4.79223 
L 357.273537 -4.889926 
L 358.026167 -4.990999 
L 358.778797 -5.095713 
L 359.531427 -5.204348 
L 360.284057 -5.317239 
L 361.036687 -5.434803 
L 361.789318 -5.557569 
L 362.541948 -5.686188 
L 363.294578 -5.821429 
L 364.047208 -5.964157 
L 364.799838 -6.115294 
L 365.552468 -6.275757 
L 366.305098 -6.446399 
L 367.057729 -6.627937 
L 367.810359 -6.820887 
L 368.562989 -7.025514 
L 369.315619 -7.241795 
L 370.068249 -7.469413 
L 370.820879 -7.707771 
L 371.57351 -7.956038 
L 372.32614 -8.213216 
L 373.07877 -8.478226 
L 373.8314 -8.750009 
L 374.58403 -9.027619 
L 375.33666 -9.310314 
L 376.089291 -9.597619 
L 376.841921 -9.889359 
L 377.594551 -10.185664 
L 378.347181 -10.486919 
L 379.099811 -10.793694 
L 379.852441 -11.106631 
L 380.605071 -11.426322 
L 381.357702 -11.753181 
L 382.110332 -12.087338 
L 382.862962 -12.428556 
L 383.615592 -12.776204 
L 384.368222 -13.129281 
L 385.120852 -13.486497 
L 385.873483 -13.846408 
L 386.626113 -14.207582 
L 387.378743 -14.568787 
L 388.131373 -14.929167 
L 388.884003 -15.288388 
L 389.636633 -15.646727 
L 390.389264 -16.005095 
L 391.141894 -16.364979 
L 391.894524 -16.72831 
L 392.647154 -17.097271 
L 393.399784 -17.474061 
L 394.152414 -17.860639 
L 394.905045 -18.258484 
L 395.657675 -18.668396 
L 396.410305 -19.090348 
L 397.162935 -19.523438 
L 397.915565 -19.965913 
L 398.668195 -20.415292 
L 399.420825 -20.868565 
L 400.173456 -21.322457 
L 400.926086 -21.773724 
L 401.678716 -22.219456 
L 402.431346 -22.657363 
L 403.183976 -23.086001 
L 403.936606 -23.504923 
L 404.689237 -23.914741 
L 405.441867 -24.317088 
L 406.194497 -24.714481 
L 406.947127 -25.110116 
L 407.699757 -25.507593 
L 408.452387 -25.910621 
L 409.205018 -26.322721 
L 409.957648 -26.746958 
L 410.710278 -27.185716 
L 411.462908 -27.640543 
L 412.215538 -28.112064 
L 412.968168 -28.59995 
L 413.720798 -29.102954 
L 414.473429 -29.618985 
L 415.226059 -30.145207 
L 415.978689 -30.678162 
L 416.731319 -31.213895 
L 417.483949 -31.74809 
L 418.236579 -32.276198 
L 418.98921 -32.793585 
L 419.74184 -33.295668 
L 420.49447 -33.778077 
L 421.2471 -34.236802 
L 421.99973 -34.668351 
L 422.75236 -35.06989 
L 423.504991 -35.43935 
L 424.257621 -35.775511 
L 425.010251 -36.078022 
L 425.762881 -36.347382 
L 426.515511 -36.584855 
L 427.268141 -36.792355 
L 428.020772 -36.972284 
L 428.773402 -37.127366 
L 429.526032 -37.260473 
L 430.278662 -37.37448 
L 431.031292 -37.472137 
L 431.783922 -37.555982 
L 432.536552 -37.628284 
L 433.289183 -37.691014 
L 434.041813 -37.745826 
L 434.794443 -37.794053 
L 435.547073 -37.836691 
L 436.299703 -37.874383 
L 437.052333 -37.90739 
L 437.804964 -37.93557 
L 438.557594 -37.958368 
L 439.310224 -37.974818 
L 440.062854 -37.983585 
L 440.815484 -37.983042 
L 441.568114 -37.971374 
L 442.320745 -37.946714 
L 443.073375 -37.907285 
L 443.826005 -37.851544 
L 444.578635 -37.778298 
L 445.331265 -37.686777 
L 446.083895 -37.576669 
L 446.836525 -37.448094 
L 447.589156 -37.301531 
L 448.341786 -37.137719 
L 449.094416 -36.95753 
L 449.847046 -36.76185 
L 450.599676 -36.551482 
L 451.352306 -36.327078 
L 452.104937 -36.089125 
L 452.857567 -35.837969 
L 453.610197 -35.573889 
L 454.362827 -35.297188 
L 455.115457 -35.008313 
L 455.868087 -34.70796 
L 456.620718 -34.39716 
L 457.373348 -34.077336 
L 458.125978 -33.750308 
L 458.878608 -33.418255 
L 459.631238 -33.08362 
L 460.383868 -32.748981 
L 461.136499 -32.416882 
L 461.889129 -32.089649 
L 462.641759 -31.769209 
L 463.394389 -31.456915 
L 464.147019 -31.153419 
L 464.899649 -30.858583 
L 465.652279 -30.571452 
L 466.40491 -30.290294 
L 467.15754 -30.012693 
L 467.91017 -29.735698 
L 468.6628 -29.456009 
L 469.41543 -29.170176 
L 470.16806 -28.874806 
L 470.920691 -28.566736 
L 471.673321 -28.243193 
L 472.425951 -27.901892 
L 473.178581 -27.541112 
L 473.931211 -27.159711 
L 474.683841 -26.757133 
L 475.436472 -26.333371 
L 476.189102 -25.888928 
L 476.941732 -25.424776 
L 477.694362 -24.942307 
L 478.446992 -24.443286 
L 479.199622 -23.929814 
L 479.952252 -23.404278 
L 480.704883 -22.869302 
L 481.457513 -22.327695 
L 482.210143 -21.78238 
L 482.962773 -21.236325 
L 483.715403 -20.692463 
L 484.468033 -20.153605 
L 485.220664 -19.622361 
L 485.973294 -19.101058 
L 486.725924 -18.591671 
L 487.478554 -18.09577 
L 488.231184 -17.614481 
L 488.983814 -17.148473 
L 489.736445 -16.697968 
L 490.489075 -16.262779 
L 491.241705 -15.842362 
L 491.994335 -15.4359 
L 492.746965 -15.042392 
L 493.499595 -14.660751 
L 494.252226 -14.289891 
L 495.004856 -13.928818 
L 495.757486 -13.576683 
L 496.510116 -13.232824 
L 497.262746 -12.896782 
L 498.015376 -12.568287 
L 498.768006 -12.247238 
L 499.520637 -11.933659 
L 500.273267 -11.627661 
L 501.025897 -11.329402 
L 501.778527 -11.039054 
L 502.531157 -10.756779 
L 503.283787 -10.482714 
L 504.036418 -10.216958 
L 504.789048 -9.959562 
L 505.541678 -9.710516 
L 506.294308 -9.469729 
L 507.046938 -9.237014 
L 507.799568 -9.012057 
L 508.552199 -8.794404 
L 509.304829 -8.583451 
L 510.057459 -8.378443 
L 510.810089 -8.178507 
L 511.562719 -7.982688 
L 512.315349 -7.790015 
L 513.067979 -7.599574 
L 513.82061 -7.410589 
L 514.57324 -7.222495 
L 515.32587 -7.034997 
L 516.0785 -6.84811 
L 516.83113 -6.662164 
L 517.58376 -6.477787 
L 518.336391 -6.29585 
L 519.089021 -6.117396 
L 519.841651 -5.943546 
L 520.594281 -5.775409 
L 521.346911 -5.613984 
L 522.099541 -5.460087 
L 522.852172 -5.314289 
L 523.604802 -5.176887 
L 524.357432 -5.047895 
L 525.110062 -4.927064 
L 525.862692 -4.813924 
L 526.615322 -4.707837 
L 527.367953 -4.608064 
L 528.120583 -4.513829 
L 528.873213 -4.42438 
L 529.625843 -4.339039 
L 530.378473 -4.257235 
L 531.131103 -4.178525 
L 531.883733 -4.102593 
L 532.636364 -4.02924 
L 532.636364 -2.470909 
L 532.636364 -2.470909 
L 531.883733 -2.470909 
L 531.131103 -2.470909 
L 530.378473 -2.470909 
L 529.625843 -2.470909 
L 528.873213 -2.470909 
L 528.120583 -2.470909 
L 527.367953 -2.470909 
L 526.615322 -2.470909 
L 525.862692 -2.470909 
L 525.110062 -2.470909 
L 524.357432 -2.470909 
L 523.604802 -2.470909 
L 522.852172 -2.470909 
L 522.099541 -2.470909 
L 521.346911 -2.470909 
L 520.594281 -2.470909 
L 519.841651 -2.470909 
L 519.089021 -2.470909 
L 518.336391 -2.470909 
L 517.58376 -2.470909 
L 516.83113 -2.470909 
L 516.0785 -2.470909 
L 515.32587 -2.470909 
L 514.57324 -2.470909 
L 513.82061 -2.470909 
L 513.067979 -2.470909 
L 512.315349 -2.470909 
L 511.562719 -2.470909 
L 510.810089 -2.470909 
L 510.057459 -2.470909 
L 509.304829 -2.470909 
L 508.552199 -2.470909 
L 507.799568 -2.470909 
L 507.046938 -2.470909 
L 506.294308 -2.470909 
L 505.541678 -2.470909 
L 504.789048 -2.470909 
L 504.036418 -2.470909 
L 503.283787 -2.470909 
L 502.531157 -2.470909 
L 501.778527 -2.470909 
L 501.025897 -2.470909 
L 500.273267 -2.470909 
L 499.520637 -2.470909 
L 498.768006 -2.470909 
L 498.015376 -2.470909 
L 497.262746 -2.470909 
L 496.510116 -2.470909 
L 495.757486 -2.470909 
L 495.004856 -2.470909 
L 494.252226 -2.470909 
L 493.499595 -2.470909 
L 492.746965 -2.470909 
L 491.994335 -2.470909 
L 491.241705 -2.470909 
L 490.489075 -2.470909 
L 489.736445 -2.470909 
L 488.983814 -2.470909 
L 488.231184 -2.470909 
L 487.478554 -2.470909 
L 486.725924 -2.470909 
L 485.973294 -2.470909 
L 485.220664 -2.470909 
L 484.468033 -2.470909 
L 483.715403 -2.470909 
L 482.962773 -2.470909 
L 482.210143 -2.470909 
L 481.457513 -2.470909 
L 480.704883 -2.470909 
L 479.952252 -2.470909 
L 479.199622 -2.470909 
L 478.446992 -2.470909 
L 477.694362 -2.470909 
L 476.941732 -2.470909 
L 476.189102 -2.470909 
L 475.436472 -2.470909 
L 474.683841 -2.470909 
L 473.931211 -2.470909 
L 473.178581 -2.470909 
L 472.425951 -2.470909 
L 471.673321 -2.470909 
L 470.920691 -2.470909 
L 470.16806 -2.470909 
L 469.41543 -2.470909 
L 468.6628 -2.470909 
L 467.91017 -2.470909 
L 467.15754 -2.470909 
L 466.40491 -2.470909 
L 465.652279 -2.470909 
L 464.899649 -2.470909 
L 464.147019 -2.470909 
L 463.394389 -2.470909 
L 462.641759 -2.470909 
L 461.889129 -2.470909 
L 461.136499 -2.470909 
L 460.383868 -2.470909 
L 459.631238 -2.470909 
L 458.878608 -2.470909 
L 458.125978 -2.470909 
L 457.373348 -2.470909 
L 456.620718 -2.470909 
L 455.868087 -2.470909 
L 455.115457 -2.470909 
L 454.362827 -2.470909 
L 453.610197 -2.470909 
L 452.857567 -2.470909 
L 452.104937 -2.470909 
L 451.352306 -2.470909 
L 450.599676 -2.470909 
L 449.847046 -2.470909 
L 449.094416 -2.470909 
L 448.341786 -2.470909 
L 447.589156 -2.470909 
L 446.836525 -2.470909 
L 446.083895 -2.470909 
L 445.331265 -2.470909 
L 444.578635 -2.470909 
L 443.826005 -2.470909 
L 443.073375 -2.470909 
L 442.320745 -2.470909 
L 441.568114 -2.470909 
L 440.815484 -2.470909 
L 440.062854 -2.470909 
L 439.310224 -2.470909 
L 438.557594 -2.470909 
L 437.804964 -2.470909 
L 437.052333 -2.470909 
L 436.299703 -2.470909 
L 435.547073 -2.470909 
L 434.794443 -2.470909 
L 434.041813 -2.470909 
L 433.289183 -2.470909 
L 432.536552 -2.470909 
L 431.783922 -2.470909 
L 431.031292 -2.470909 
L 430.278662 -2.470909 
L 429.526032 -2.470909 
L 428.773402 -2.470909 
L 428.020772 -2.470909 
L 427.268141 -2.470909 
L 426.515511 -2.470909 
L 425.762881 -2.470909 
L 425.010251 -2.470909 
L 424.257621 -2.470909 
L 423.504991 -2.470909 
L 422.75236 -2.470909 
L 421.99973 -2.470909 
L 421.2471 -2.470909 
L 420.49447 -2.470909 
L 419.74184 -2.470909 
L 418.98921 -2.470909 
L 418.236579 -2.470909 
L 417.483949 -2.470909 
L 416.731319 -2.470909 
L 415.978689 -2.470909 
L 415.226059 -2.470909 
L 414.473429 -2.470909 
L 413.720798 -2.470909 
L 412.968168 -2.470909 
L 412.215538 -2.470909 
L 411.462908 -2.470909 
L 410.710278 -2.470909 
L 409.957648 -2.470909 
L 409.205018 -2.470909 
L 408.452387 -2.470909 
L 407.699757 -2.470909 
L 406.947127 -2.470909 
L 406.194497 -2.470909 
L 405.441867 -2.470909 
L 404.689237 -2.470909 
L 403.936606 -2.470909 
L 403.183976 -2.470909 
L 402.431346 -2.470909 
L 401.678716 -2.470909 
L 400.926086 -2.470909 
L 400.173456 -2.470909 
L 399.420825 -2.470909 
L 398.668195 -2.470909 
L 397.915565 -2.470909 
L 397.162935 -2.470909 
L 396.410305 -2.470909 
L 395.657675 -2.470909 
L 394.905045 -2.470909 
L 394.152414 -2.470909 
L 393.399784 -2.470909 
L 392.647154 -2.470909 
L 391.894524 -2.470909 
L 391.141894 -2.470909 
L 390.389264 -2.470909 
L 389.636633 -2.470909 
L 388.884003 -2.470909 
L 388.131373 -2.470909 
L 387.378743 -2.470909 
L 386.626113 -2.470909 
L 385.873483 -2.470909 
L 385.120852 -2.470909 
L 384.368222 -2.470909 
L 383.615592 -2.470909 
L 382.862962 -2.470909 
L 382.110332 -2.470909 
L 381.357702 -2.470909 
L 380.605071 -2.470909 
L 379.852441 -2.470909 
L 379.099811 -2.470909 
L 378.347181 -2.470909 
L 377.594551 -2.470909 
L 376.841921 -2.470909 
L 376.089291 -2.470909 
L 375.33666 -2.470909 
L 374.58403 -2.470909 
L 373.8314 -2.470909 
L 373.07877 -2.470909 
L 372.32614 -2.470909 
L 371.57351 -2.470909 
L 370.820879 -2.470909 
L 370.068249 -2.470909 
L 369.315619 -2.470909 
L 368.562989 -2.470909 
L 367.810359 -2.470909 
L 367.057729 -2.470909 
L 366.305098 -2.470909 
L 365.552468 -2.470909 
L 364.799838 -2.470909 
L 364.047208 -2.470909 
L 363.294578 -2.470909 
L 362.541948 -2.470909 
L 361.789318 -2.470909 
L 361.036687 -2.470909 
L 360.284057 -2.470909 
L 359.531427 -2.470909 
L 358.778797 -2.470909 
L 358.026167 -2.470909 
L 357.273537 -2.470909 
L 356.520906 -2.470909 
L 355.768276 -2.470909 
L 355.015646 -2.470909 
L 354.263016 -2.470909 
L 353.510386 -2.470909 
L 352.757756 -2.470909 
L 352.005125 -2.470909 
L 351.252495 -2.470909 
L 350.499865 -2.470909 
L 349.747235 -2.470909 
z
" style="stroke: #116dc2; stroke-opacity: 0.2"/>
    </defs>
    <g clip-path="url(#p0c2794ea83)">
     <use xlink:href="#m4773422a64" x="0" y="54.36" style="fill: #116dc2; fill-opacity: 0.2; stroke: #116dc2; stroke-opacity: 0.2"/>
    </g>
   </g>
   <g id="PolyCollection_3">
    <defs>
     <path id="m2e7fa60082" d="M 25.363636 -2.470909 
L 25.363636 -4.689184 
L 26.116267 -5.451346 
L 26.868897 -6.396383 
L 27.621527 -7.509332 
L 28.374157 -8.750814 
L 29.126787 -10.082225 
L 29.879417 -11.605866 
L 30.632047 -13.525244 
L 31.384678 -15.864791 
L 32.137308 -18.518933 
L 32.889938 -21.381274 
L 33.642568 -24.16439 
L 34.395198 -26.645138 
L 35.147828 -29.046027 
L 35.900459 -31.758357 
L 36.653089 -35.012371 
L 37.405719 -38.636195 
L 38.158349 -41.999875 
L 38.910979 -44.758067 
L 39.663609 -47.213414 
L 40.41624 -49.509598 
L 41.16887 -51.196327 
L 41.9215 -51.889091 
L 42.67413 -51.697091 
L 43.42676 -50.825952 
L 44.17939 -49.433049 
L 44.932021 -47.83342 
L 45.684651 -46.211085 
L 46.437281 -44.436372 
L 47.189911 -42.385277 
L 47.942541 -40.043196 
L 48.695171 -37.379547 
L 49.447801 -34.368903 
L 50.200432 -31.124857 
L 50.953062 -27.913241 
L 51.705692 -24.940345 
L 52.458322 -22.126205 
L 53.210952 -19.349838 
L 53.963582 -16.728882 
L 54.716213 -14.36176 
L 55.468843 -12.279046 
L 56.221473 -10.579795 
L 56.974103 -9.203606 
L 57.726733 -7.937671 
L 58.479363 -6.754969 
L 59.231994 -5.760335 
L 59.984624 -4.974574 
L 60.737254 -4.385091 
L 60.737254 -2.470909 
L 60.737254 -2.470909 
L 59.984624 -2.470909 
L 59.231994 -2.470909 
L 58.479363 -2.470909 
L 57.726733 -2.470909 
L 56.974103 -2.470909 
L 56.221473 -2.470909 
L 55.468843 -2.470909 
L 54.716213 -2.470909 
L 53.963582 -2.470909 
L 53.210952 -2.470909 
L 52.458322 -2.470909 
L 51.705692 -2.470909 
L 50.953062 -2.470909 
L 50.200432 -2.470909 
L 49.447801 -2.470909 
L 48.695171 -2.470909 
L 47.942541 -2.470909 
L 47.189911 -2.470909 
L 46.437281 -2.470909 
L 45.684651 -2.470909 
L 44.932021 -2.470909 
L 44.17939 -2.470909 
L 43.42676 -2.470909 
L 42.67413 -2.470909 
L 41.9215 -2.470909 
L 41.16887 -2.470909 
L 40.41624 -2.470909 
L 39.663609 -2.470909 
L 38.910979 -2.470909 
L 38.158349 -2.470909 
L 37.405719 -2.470909 
L 36.653089 -2.470909 
L 35.900459 -2.470909 
L 35.147828 -2.470909 
L 34.395198 -2.470909 
L 33.642568 -2.470909 
L 32.889938 -2.470909 
L 32.137308 -2.470909 
L 31.384678 -2.470909 
L 30.632047 -2.470909 
L 29.879417 -2.470909 
L 29.126787 -2.470909 
L 28.374157 -2.470909 
L 27.621527 -2.470909 
L 26.868897 -2.470909 
L 26.116267 -2.470909 
L 25.363636 -2.470909 
z
" style="stroke: #8a8a8a; stroke-opacity: 0.2"/>
    </defs>
    <g clip-path="url(#p0c2794ea83)">
     <use xlink:href="#m2e7fa60082" x="0" y="54.36" style="fill: #8a8a8a; fill-opacity: 0.2; stroke: #8a8a8a; stroke-opacity: 0.2"/>
    </g>
   </g>
   <g id="line2d_1">
    <path d="M 188.684381 50.170051 
L 194.705422 49.310765 
L 204.489614 47.90645 
L 212.015916 46.785647 
L 218.789587 45.559871 
L 222.552738 44.644035 
L 225.563259 43.685481 
L 229.326409 42.219947 
L 251.152684 32.940213 
L 255.668465 30.658371 
L 265.452657 25.551092 
L 269.968438 23.503879 
L 272.978959 22.340763 
L 275.989479 21.378703 
L 279.75263 20.402877 
L 286.526302 18.922378 
L 291.042083 18.160547 
L 294.805233 17.764058 
L 297.815754 17.648763 
L 300.826275 17.749422 
L 303.836795 18.059752 
L 309.105206 18.881145 
L 318.136768 20.460507 
L 321.147289 21.23847 
L 324.15781 22.248652 
L 327.16833 23.481727 
L 330.931481 25.281655 
L 335.447262 27.713071 
L 343.726194 32.240134 
L 347.489344 33.991343 
L 352.005125 35.804002 
L 358.778797 38.505388 
L 371.57351 43.916471 
L 376.089291 45.460409 
L 379.852441 46.528247 
L 383.615592 47.373881 
L 388.131373 48.12396 
L 394.905045 48.960342 
L 404.689237 50.184485 
L 404.689237 50.184485 
" clip-path="url(#p0c2794ea83)" style="fill: none; stroke: #cf1313; stroke-width: 1.5; stroke-linecap: square"/>
   </g>
   <g id="line2d_2">
    <path d="M 349.747235 50.347602 
L 358.778797 49.264287 
L 364.047208 48.395843 
L 367.810359 47.539113 
L 371.57351 46.403962 
L 376.089291 44.762381 
L 381.357702 42.606819 
L 386.626113 40.152418 
L 394.905045 36.101516 
L 398.668195 33.944708 
L 404.689237 30.445259 
L 411.462908 26.719457 
L 414.473429 24.741015 
L 421.2471 20.123198 
L 423.504991 18.92065 
L 425.762881 18.012618 
L 428.020772 17.387716 
L 430.278662 16.98552 
L 433.289183 16.668986 
L 437.804964 16.42443 
L 441.568114 16.388626 
L 444.578635 16.581702 
L 447.589156 17.058469 
L 450.599676 17.808518 
L 453.610197 18.786111 
L 457.373348 20.282664 
L 465.652279 23.788548 
L 471.673321 26.116807 
L 474.683841 27.602867 
L 477.694362 29.417693 
L 481.457513 32.032305 
L 487.478554 36.26423 
L 490.489075 38.097221 
L 493.499595 39.699249 
L 497.262746 41.463218 
L 501.778527 43.320946 
L 505.541678 44.649484 
L 510.057459 45.981557 
L 517.58376 47.882213 
L 522.852172 49.045711 
L 526.615322 49.652163 
L 531.883733 50.257407 
L 532.636364 50.33076 
L 532.636364 50.33076 
" clip-path="url(#p0c2794ea83)" style="fill: none; stroke: #116dc2; stroke-width: 1.5; stroke-linecap: square"/>
   </g>
   <g id="line2d_3">
    <path d="M 25.363636 49.670816 
L 26.116267 48.908654 
L 26.868897 47.963617 
L 27.621527 46.850668 
L 28.374157 45.609186 
L 29.126787 44.277775 
L 29.879417 42.754134 
L 30.632047 40.834756 
L 31.384678 38.495209 
L 32.137308 35.841067 
L 32.889938 32.978726 
L 33.642568 30.19561 
L 34.395198 27.714862 
L 35.147828 25.313973 
L 35.900459 22.601643 
L 36.653089 19.347629 
L 37.405719 15.723805 
L 38.158349 12.360125 
L 38.910979 9.601933 
L 39.663609 7.146586 
L 40.41624 4.850402 
L 41.16887 3.163673 
L 41.9215 2.470909 
L 42.67413 2.662909 
L 43.42676 3.534048 
L 44.17939 4.926951 
L 44.932021 6.52658 
L 45.684651 8.148915 
L 46.437281 9.923628 
L 47.189911 11.974723 
L 47.942541 14.316804 
L 48.695171 16.980453 
L 49.447801 19.991097 
L 50.200432 23.235143 
L 50.953062 26.446759 
L 51.705692 29.419655 
L 52.458322 32.233795 
L 53.210952 35.010162 
L 53.963582 37.631118 
L 54.716213 39.99824 
L 55.468843 42.080954 
L 56.221473 43.780205 
L 56.974103 45.156394 
L 57.726733 46.422329 
L 58.479363 47.605031 
L 59.231994 48.599665 
L 59.984624 49.385426 
L 60.737254 49.974909 
" clip-path="url(#p0c2794ea83)" style="fill: none; stroke: #8a8a8a; stroke-width: 1.5; stroke-linecap: square"/>
   </g>
  </g>
 </g>
 <defs>
  <clipPath id="p0c2794ea83">
   <rect x="0" y="-0" width="558" height="54.36"/>
  </clipPath>
 </defs>
</svg>
