<?xml version="1.0" encoding="utf-8" standalone="no"?>
<!DOCTYPE svg PUBLIC "-//W3C//DTD SVG 1.1//EN"
  "http://www.w3.org/Graphics/SVG/1.1/DTD/svg11.dtd">
<svg xmlns:xlink="http://www.w3.org/1999/xlink" width="558pt" height="54.36pt" viewBox="0 0 558 54.36" xmlns="http://www.w3.org/2000/svg" version="1.1">
 <metadata>
  <rdf:RDF xmlns:dc="http://purl.org/dc/elements/1.1/" xmlns:cc="http://creativecommons.org/ns#" xmlns:rdf="http://www.w3.org/1999/02/22-rdf-syntax-ns#">
   <cc:Work>
    <dc:type rdf:resource="http://purl.org/dc/dcmitype/StillImage"/>
    <dc:date>2024-09-15T09:31:59.113824</dc:date>
    <dc:format>image/svg+xml</dc:format>
    <dc:creator>
     <cc:Agent>
      <dc:title>Matplotlib v3.5.2, https://matplotlib.org/</dc:title>
     </cc:Agent>
    </dc:creator>
   </cc:Work>
  </rdf:RDF>
 </metadata>
 <defs>
  <style type="text/css">*{stroke-linejoin: round; stroke-linecap: butt}</style>
 </defs>
 <g id="figure_1">
  <g id="patch_1">
   <path d="M 0 54.36 
L 558 54.36 
L 558 0 
L 0 0 
L 0 54.36 
z
" style="fill: none; opacity: 0"/>
  </g>
  <g id="axes_1">
   <g id="PolyCollection_1">
    <defs>
     <path id="m8af5677f84" d="M 25.363636 -2.470909 
L 25.363636 -51.636858 
L 25.871417 -51.889091 
L 26.379197 -51.336503 
L 26.886978 -50.033779 
L 27.394758 -48.074573 
L 27.902539 -45.582702 
L 28.410319 -42.70113 
L 28.9181 -39.580059 
L 29.42588 -36.365478 
L 29.933661 -33.189335 
L 30.441441 -30.162167 
L 30.949222 -27.368627 
L 31.457002 -24.865935 
L 31.964783 -22.684932 
L 32.472563 -20.833153 
L 32.980344 -19.299224 
L 33.488124 -18.057864 
L 33.995905 -17.074882 
L 34.503686 -16.311665 
L 35.011466 -15.72888 
L 35.519247 -15.289243 
L 36.027027 -14.959355 
L 36.534808 -14.710719 
L 37.042588 -14.520086 
L 37.550369 -14.369319 
L 38.058149 -14.244931 
L 38.56593 -14.137438 
L 39.07371 -14.040642 
L 39.581491 -13.950916 
L 40.089271 -13.866526 
L 40.597052 -13.787036 
L 41.104832 -13.712798 
L 41.612613 -13.644529 
L 42.120393 -13.582987 
L 42.628174 -13.528735 
L 43.135954 -13.481991 
L 43.643735 -13.442555 
L 44.151515 -13.4098 
L 44.659296 -13.382714 
L 45.167076 -13.359987 
L 45.674857 -13.340106 
L 46.182637 -13.321467 
L 46.690418 -13.302483 
L 47.198198 -13.281671 
L 47.705979 -13.257727 
L 48.213759 -13.229583 
L 48.72154 -13.196437 
L 49.22932 -13.157767 
L 49.737101 -13.113331 
L 50.244881 -13.06315 
L 50.752662 -13.007472 
L 51.260442 -12.946732 
L 51.768223 -12.881499 
L 52.276003 -12.812417 
L 52.783784 -12.740141 
L 53.291564 -12.665278 
L 53.799345 -12.588337 
L 54.307125 -12.509685 
L 54.814906 -12.429526 
L 55.322686 -12.347898 
L 55.830467 -12.264687 
L 56.338247 -12.17966 
L 56.846028 -12.092505 
L 57.353808 -12.002889 
L 57.861589 -11.910501 
L 58.369369 -11.815099 
L 58.87715 -11.71654 
L 59.38493 -11.614797 
L 59.892711 -11.509966 
L 60.400491 -11.402251 
L 60.908272 -11.29195 
L 61.416052 -11.179434 
L 61.923833 -11.065127 
L 62.431613 -10.94949 
L 62.939394 -10.833011 
L 63.447174 -10.716202 
L 63.954955 -10.599597 
L 64.462735 -10.483753 
L 64.970516 -10.36924 
L 65.478296 -10.25663 
L 65.986077 -10.146468 
L 66.493857 -10.039246 
L 67.001638 -9.935353 
L 67.509419 -9.835045 
L 68.017199 -9.738396 
L 68.52498 -9.645281 
L 69.03276 -9.555361 
L 69.540541 -9.468091 
L 70.048321 -9.382747 
L 70.556102 -9.29847 
L 71.063882 -9.214324 
L 71.571663 -9.129359 
L 72.079443 -9.042679 
L 72.587224 -8.953505 
L 73.095004 -8.861224 
L 73.602785 -8.765433 
L 74.110565 -8.665957 
L 74.618346 -8.562866 
L 75.126126 -8.456453 
L 75.633907 -8.347214 
L 76.141687 -8.235803 
L 76.649468 -8.122975 
L 77.157248 -8.009526 
L 77.665029 -7.896228 
L 78.172809 -7.78376 
L 78.68059 -7.672669 
L 79.18837 -7.56332 
L 79.696151 -7.455893 
L 80.203931 -7.350381 
L 80.711712 -7.24662 
L 81.219492 -7.144334 
L 81.727273 -7.04319 
L 82.235053 -6.942856 
L 82.742834 -6.84306 
L 83.250614 -6.743636 
L 83.758395 -6.644552 
L 84.266175 -6.545925 
L 84.773956 -6.448011 
L 85.281736 -6.351189 
L 85.789517 -6.255917 
L 86.297297 -6.162693 
L 86.805078 -6.072006 
L 87.312858 -5.984297 
L 87.820639 -5.899915 
L 88.328419 -5.819098 
L 88.8362 -5.741949 
L 89.34398 -5.66844 
L 89.851761 -5.598413 
L 90.359541 -5.531597 
L 90.867322 -5.467631 
L 91.375102 -5.406086 
L 91.882883 -5.346492 
L 92.390663 -5.288366 
L 92.898444 -5.231231 
L 93.406224 -5.174642 
L 93.914005 -5.118198 
L 94.421785 -5.06156 
L 94.929566 -5.004458 
L 95.437346 -4.946702 
L 95.945127 -4.888184 
L 96.452907 -4.828883 
L 96.960688 -4.768862 
L 97.468468 -4.708269 
L 97.976249 -4.647328 
L 98.484029 -4.586336 
L 98.99181 -4.52565 
L 99.49959 -4.465672 
L 100.007371 -4.406835 
L 100.515152 -4.349578 
L 101.022932 -4.294329 
L 101.530713 -4.241473 
L 102.038493 -4.191328 
L 102.546274 -4.14412 
L 103.054054 -4.099958 
L 103.561835 -4.058819 
L 104.069615 -4.020536 
L 104.577396 -3.984807 
L 105.085176 -3.951202 
L 105.592957 -3.919196 
L 106.100737 -3.888205 
L 106.608518 -3.857632 
L 107.116298 -3.826913 
L 107.624079 -3.795572 
L 108.131859 -3.763253 
L 108.63964 -3.729753 
L 109.14742 -3.695034 
L 109.655201 -3.659218 
L 110.162981 -3.622567 
L 110.670762 -3.585453 
L 111.178542 -3.548312 
L 111.686323 -3.5116 
L 112.194103 -3.475746 
L 112.701884 -3.441115 
L 113.209664 -3.407976 
L 113.717445 -3.376483 
L 114.225225 -3.346674 
L 114.733006 -3.31847 
L 115.240786 -3.291698 
L 115.748567 -3.266113 
L 116.256347 -3.241426 
L 116.764128 -3.217334 
L 117.271908 -3.193557 
L 117.779689 -3.169857 
L 118.287469 -3.146065 
L 118.79525 -3.122092 
L 119.30303 -3.09794 
L 119.810811 -3.073695 
L 120.318591 -3.049519 
L 120.826372 -3.025631 
L 121.334152 -3.002287 
L 121.841933 -2.979748 
L 122.349713 -2.958258 
L 122.857494 -2.938015 
L 123.365274 -2.919156 
L 123.365274 -2.470909 
L 123.365274 -2.470909 
L 122.857494 -2.470909 
L 122.349713 -2.470909 
L 121.841933 -2.470909 
L 121.334152 -2.470909 
L 120.826372 -2.470909 
L 120.318591 -2.470909 
L 119.810811 -2.470909 
L 119.30303 -2.470909 
L 118.79525 -2.470909 
L 118.287469 -2.470909 
L 117.779689 -2.470909 
L 117.271908 -2.470909 
L 116.764128 -2.470909 
L 116.256347 -2.470909 
L 115.748567 -2.470909 
L 115.240786 -2.470909 
L 114.733006 -2.470909 
L 114.225225 -2.470909 
L 113.717445 -2.470909 
L 113.209664 -2.470909 
L 112.701884 -2.470909 
L 112.194103 -2.470909 
L 111.686323 -2.470909 
L 111.178542 -2.470909 
L 110.670762 -2.470909 
L 110.162981 -2.470909 
L 109.655201 -2.470909 
L 109.14742 -2.470909 
L 108.63964 -2.470909 
L 108.131859 -2.470909 
L 107.624079 -2.470909 
L 107.116298 -2.470909 
L 106.608518 -2.470909 
L 106.100737 -2.470909 
L 105.592957 -2.470909 
L 105.085176 -2.470909 
L 104.577396 -2.470909 
L 104.069615 -2.470909 
L 103.561835 -2.470909 
L 103.054054 -2.470909 
L 102.546274 -2.470909 
L 102.038493 -2.470909 
L 101.530713 -2.470909 
L 101.022932 -2.470909 
L 100.515152 -2.470909 
L 100.007371 -2.470909 
L 99.49959 -2.470909 
L 98.99181 -2.470909 
L 98.484029 -2.470909 
L 97.976249 -2.470909 
L 97.468468 -2.470909 
L 96.960688 -2.470909 
L 96.452907 -2.470909 
L 95.945127 -2.470909 
L 95.437346 -2.470909 
L 94.929566 -2.470909 
L 94.421785 -2.470909 
L 93.914005 -2.470909 
L 93.406224 -2.470909 
L 92.898444 -2.470909 
L 92.390663 -2.470909 
L 91.882883 -2.470909 
L 91.375102 -2.470909 
L 90.867322 -2.470909 
L 90.359541 -2.470909 
L 89.851761 -2.470909 
L 89.34398 -2.470909 
L 88.8362 -2.470909 
L 88.328419 -2.470909 
L 87.820639 -2.470909 
L 87.312858 -2.470909 
L 86.805078 -2.470909 
L 86.297297 -2.470909 
L 85.789517 -2.470909 
L 85.281736 -2.470909 
L 84.773956 -2.470909 
L 84.266175 -2.470909 
L 83.758395 -2.470909 
L 83.250614 -2.470909 
L 82.742834 -2.470909 
L 82.235053 -2.470909 
L 81.727273 -2.470909 
L 81.219492 -2.470909 
L 80.711712 -2.470909 
L 80.203931 -2.470909 
L 79.696151 -2.470909 
L 79.18837 -2.470909 
L 78.68059 -2.470909 
L 78.172809 -2.470909 
L 77.665029 -2.470909 
L 77.157248 -2.470909 
L 76.649468 -2.470909 
L 76.141687 -2.470909 
L 75.633907 -2.470909 
L 75.126126 -2.470909 
L 74.618346 -2.470909 
L 74.110565 -2.470909 
L 73.602785 -2.470909 
L 73.095004 -2.470909 
L 72.587224 -2.470909 
L 72.079443 -2.470909 
L 71.571663 -2.470909 
L 71.063882 -2.470909 
L 70.556102 -2.470909 
L 70.048321 -2.470909 
L 69.540541 -2.470909 
L 69.03276 -2.470909 
L 68.52498 -2.470909 
L 68.017199 -2.470909 
L 67.509419 -2.470909 
L 67.001638 -2.470909 
L 66.493857 -2.470909 
L 65.986077 -2.470909 
L 65.478296 -2.470909 
L 64.970516 -2.470909 
L 64.462735 -2.470909 
L 63.954955 -2.470909 
L 63.447174 -2.470909 
L 62.939394 -2.470909 
L 62.431613 -2.470909 
L 61.923833 -2.470909 
L 61.416052 -2.470909 
L 60.908272 -2.470909 
L 60.400491 -2.470909 
L 59.892711 -2.470909 
L 59.38493 -2.470909 
L 58.87715 -2.470909 
L 58.369369 -2.470909 
L 57.861589 -2.470909 
L 57.353808 -2.470909 
L 56.846028 -2.470909 
L 56.338247 -2.470909 
L 55.830467 -2.470909 
L 55.322686 -2.470909 
L 54.814906 -2.470909 
L 54.307125 -2.470909 
L 53.799345 -2.470909 
L 53.291564 -2.470909 
L 52.783784 -2.470909 
L 52.276003 -2.470909 
L 51.768223 -2.470909 
L 51.260442 -2.470909 
L 50.752662 -2.470909 
L 50.244881 -2.470909 
L 49.737101 -2.470909 
L 49.22932 -2.470909 
L 48.72154 -2.470909 
L 48.213759 -2.470909 
L 47.705979 -2.470909 
L 47.198198 -2.470909 
L 46.690418 -2.470909 
L 46.182637 -2.470909 
L 45.674857 -2.470909 
L 45.167076 -2.470909 
L 44.659296 -2.470909 
L 44.151515 -2.470909 
L 43.643735 -2.470909 
L 43.135954 -2.470909 
L 42.628174 -2.470909 
L 42.120393 -2.470909 
L 41.612613 -2.470909 
L 41.104832 -2.470909 
L 40.597052 -2.470909 
L 40.089271 -2.470909 
L 39.581491 -2.470909 
L 39.07371 -2.470909 
L 38.56593 -2.470909 
L 38.058149 -2.470909 
L 37.550369 -2.470909 
L 37.042588 -2.470909 
L 36.534808 -2.470909 
L 36.027027 -2.470909 
L 35.519247 -2.470909 
L 35.011466 -2.470909 
L 34.503686 -2.470909 
L 33.995905 -2.470909 
L 33.488124 -2.470909 
L 32.980344 -2.470909 
L 32.472563 -2.470909 
L 31.964783 -2.470909 
L 31.457002 -2.470909 
L 30.949222 -2.470909 
L 30.441441 -2.470909 
L 29.933661 -2.470909 
L 29.42588 -2.470909 
L 28.9181 -2.470909 
L 28.410319 -2.470909 
L 27.902539 -2.470909 
L 27.394758 -2.470909 
L 26.886978 -2.470909 
L 26.379197 -2.470909 
L 25.871417 -2.470909 
L 25.363636 -2.470909 
z
" style="stroke: #cf1313; stroke-opacity: 0.2"/>
    </defs>
    <g clip-path="url(#p73ed4c6b33)">
     <use xlink:href="#m8af5677f84" x="0" y="54.36" style="fill: #cf1313; fill-opacity: 0.2; stroke: #cf1313; stroke-opacity: 0.2"/>
    </g>
   </g>
   <g id="PolyCollection_2">
    <defs>
     <path id="m5e619ad4dc" d="M 402.644554 -2.470909 
L 402.644554 -4.036634 
L 403.152334 -4.090529 
L 403.660115 -4.145162 
L 404.167895 -4.200751 
L 404.675676 -4.257548 
L 405.183456 -4.315815 
L 405.691237 -4.375806 
L 406.199017 -4.437744 
L 406.706798 -4.501807 
L 407.214578 -4.568106 
L 407.722359 -4.636685 
L 408.230139 -4.707512 
L 408.73792 -4.780495 
L 409.2457 -4.855493 
L 409.753481 -4.932343 
L 410.261261 -5.010895 
L 410.769042 -5.091045 
L 411.276822 -5.172776 
L 411.784603 -5.256199 
L 412.292383 -5.34158 
L 412.800164 -5.429368 
L 413.307944 -5.520207 
L 413.815725 -5.614929 
L 414.323505 -5.714543 
L 414.831286 -5.820196 
L 415.339066 -5.933125 
L 415.846847 -6.054598 
L 416.354627 -6.185842 
L 416.862408 -6.327971 
L 417.370188 -6.481917 
L 417.877969 -6.648363 
L 418.385749 -6.827691 
L 418.89353 -7.01995 
L 419.40131 -7.224835 
L 419.909091 -7.441698 
L 420.416871 -7.66957 
L 420.924652 -7.907215 
L 421.432432 -8.153185 
L 421.940213 -8.405906 
L 422.447993 -8.663756 
L 422.955774 -8.925153 
L 423.463554 -9.18864 
L 423.971335 -9.452955 
L 424.479115 -9.717093 
L 424.986896 -9.980347 
L 425.494676 -10.242332 
L 426.002457 -10.502989 
L 426.510238 -10.762564 
L 427.018018 -11.02157 
L 427.525799 -11.280735 
L 428.033579 -11.540938 
L 428.54136 -11.803126 
L 429.04914 -12.068244 
L 429.556921 -12.337151 
L 430.064701 -12.610557 
L 430.572482 -12.888959 
L 431.080262 -13.172599 
L 431.588043 -13.461448 
L 432.095823 -13.755197 
L 432.603604 -14.053282 
L 433.111384 -14.354925 
L 433.619165 -14.659193 
L 434.126945 -14.965075 
L 434.634726 -15.271562 
L 435.142506 -15.577735 
L 435.650287 -15.882845 
L 436.158067 -16.186381 
L 436.665848 -16.488133 
L 437.173628 -16.78822 
L 437.681409 -17.087105 
L 438.189189 -17.385587 
L 438.69697 -17.684768 
L 439.20475 -17.986005 
L 439.712531 -18.290838 
L 440.220311 -18.600921 
L 440.728092 -18.917936 
L 441.235872 -19.243508 
L 441.743653 -19.579128 
L 442.251433 -19.926075 
L 442.759214 -20.28535 
L 443.266994 -20.657624 
L 443.774775 -21.043195 
L 444.282555 -21.441959 
L 444.790336 -21.853406 
L 445.298116 -22.276619 
L 445.805897 -22.710306 
L 446.313677 -23.152842 
L 446.821458 -23.602328 
L 447.329238 -24.056674 
L 447.837019 -24.513681 
L 448.344799 -24.971144 
L 448.85258 -25.426945 
L 449.36036 -25.879143 
L 449.868141 -26.326057 
L 450.375921 -26.76632 
L 450.883702 -27.198915 
L 451.391482 -27.623185 
L 451.899263 -28.038815 
L 452.407043 -28.445788 
L 452.914824 -28.844323 
L 453.422604 -29.234808 
L 453.930385 -29.617716 
L 454.438165 -29.993537 
L 454.945946 -30.362716 
L 455.453726 -30.725611 
L 455.961507 -31.082474 
L 456.469287 -31.43345 
L 456.977068 -31.778603 
L 457.484848 -32.11796 
L 457.992629 -32.451559 
L 458.50041 -32.779512 
L 459.00819 -33.10206 
L 459.515971 -33.419613 
L 460.023751 -33.732785 
L 460.531532 -34.042394 
L 461.039312 -34.349447 
L 461.547093 -34.655091 
L 462.054873 -34.960546 
L 462.562654 -35.267011 
L 463.070434 -35.575563 
L 463.578215 -35.887039 
L 464.085995 -36.20193 
L 464.593776 -36.520279 
L 465.101556 -36.841602 
L 465.609337 -37.164843 
L 466.117117 -37.488359 
L 466.624898 -37.809951 
L 467.132678 -38.126933 
L 467.640459 -38.436244 
L 468.148239 -38.73459 
L 468.65602 -39.018616 
L 469.1638 -39.285084 
L 469.671581 -39.531059 
L 470.179361 -39.754073 
L 470.687142 -39.952267 
L 471.194922 -40.124493 
L 471.702703 -40.270373 
L 472.210483 -40.390305 
L 472.718264 -40.485425 
L 473.226044 -40.557519 
L 473.733825 -40.608903 
L 474.241605 -40.64228 
L 474.749386 -40.660579 
L 475.257166 -40.666797 
L 475.764947 -40.663853 
L 476.272727 -40.65446 
L 476.780508 -40.641028 
L 477.288288 -40.625593 
L 477.796069 -40.609777 
L 478.303849 -40.594784 
L 478.81163 -40.581404 
L 479.31941 -40.57005 
L 479.827191 -40.560796 
L 480.334971 -40.553421 
L 480.842752 -40.547456 
L 481.350532 -40.542224 
L 481.858313 -40.536873 
L 482.366093 -40.530404 
L 482.873874 -40.521684 
L 483.381654 -40.509464 
L 483.889435 -40.49238 
L 484.397215 -40.46896 
L 484.904996 -40.437628 
L 485.412776 -40.396717 
L 485.920557 -40.344476 
L 486.428337 -40.2791 
L 486.936118 -40.198755 
L 487.443898 -40.101627 
L 487.951679 -39.985966 
L 488.459459 -39.85015 
L 488.96724 -39.692744 
L 489.47502 -39.512566 
L 489.982801 -39.308745 
L 490.490581 -39.080769 
L 490.998362 -38.828516 
L 491.506143 -38.552271 
L 492.013923 -38.252716 
L 492.521704 -37.930898 
L 493.029484 -37.588175 
L 493.537265 -37.226146 
L 494.045045 -36.846565 
L 494.552826 -36.451257 
L 495.060606 -36.04203 
L 495.568387 -35.620605 
L 496.076167 -35.188559 
L 496.583948 -34.747294 
L 497.091728 -34.298035 
L 497.599509 -33.841845 
L 498.107289 -33.379671 
L 498.61507 -32.9124 
L 499.12285 -32.440928 
L 499.630631 -31.966226 
L 500.138411 -31.489397 
L 500.646192 -31.011719 
L 501.153972 -30.534664 
L 501.661753 -30.05989 
L 502.169533 -29.58921 
L 502.677314 -29.124536 
L 503.185094 -28.667801 
L 503.692875 -28.220874 
L 504.200655 -27.78547 
L 504.708436 -27.363062 
L 505.216216 -26.954807 
L 505.723997 -26.561488 
L 506.231777 -26.183482 
L 506.739558 -25.82075 
L 507.247338 -25.472845 
L 507.755119 -25.138951 
L 508.262899 -24.81793 
L 508.77068 -24.508382 
L 509.27846 -24.208709 
L 509.786241 -23.917183 
L 510.294021 -23.632002 
L 510.801802 -23.351343 
L 511.309582 -23.073406 
L 511.817363 -22.79644 
L 512.325143 -22.518774 
L 512.832924 -22.238833 
L 513.340704 -21.955151 
L 513.848485 -21.666395 
L 514.356265 -21.371382 
L 514.864046 -21.069111 
L 515.371826 -20.758801 
L 515.879607 -20.439937 
L 516.387387 -20.112325 
L 516.895168 -19.776151 
L 517.402948 -19.432046 
L 517.910729 -19.081149 
L 518.418509 -18.725161 
L 518.92629 -18.366388 
L 519.43407 -18.007772 
L 519.941851 -17.65289 
L 520.449631 -17.305928 
L 520.957412 -16.971618 
L 521.465192 -16.65513 
L 521.972973 -16.361916 
L 522.480753 -16.097503 
L 522.988534 -15.867238 
L 523.496314 -15.67598 
L 524.004095 -15.527757 
L 524.511876 -15.425404 
L 525.019656 -15.37019 
L 525.527437 -15.36148 
L 526.035217 -15.396445 
L 526.542998 -15.46987 
L 527.050778 -15.574071 
L 527.558559 -15.698971 
L 528.066339 -15.832334 
L 528.57412 -15.960171 
L 529.0819 -16.067317 
L 529.589681 -16.138136 
L 530.097461 -16.157332 
L 530.605242 -16.110802 
L 531.113022 -15.986481 
L 531.620803 -15.775095 
L 532.128583 -15.470782 
L 532.636364 -15.071505 
L 532.636364 -2.470909 
L 532.636364 -2.470909 
L 532.128583 -2.470909 
L 531.620803 -2.470909 
L 531.113022 -2.470909 
L 530.605242 -2.470909 
L 530.097461 -2.470909 
L 529.589681 -2.470909 
L 529.0819 -2.470909 
L 528.57412 -2.470909 
L 528.066339 -2.470909 
L 527.558559 -2.470909 
L 527.050778 -2.470909 
L 526.542998 -2.470909 
L 526.035217 -2.470909 
L 525.527437 -2.470909 
L 525.019656 -2.470909 
L 524.511876 -2.470909 
L 524.004095 -2.470909 
L 523.496314 -2.470909 
L 522.988534 -2.470909 
L 522.480753 -2.470909 
L 521.972973 -2.470909 
L 521.465192 -2.470909 
L 520.957412 -2.470909 
L 520.449631 -2.470909 
L 519.941851 -2.470909 
L 519.43407 -2.470909 
L 518.92629 -2.470909 
L 518.418509 -2.470909 
L 517.910729 -2.470909 
L 517.402948 -2.470909 
L 516.895168 -2.470909 
L 516.387387 -2.470909 
L 515.879607 -2.470909 
L 515.371826 -2.470909 
L 514.864046 -2.470909 
L 514.356265 -2.470909 
L 513.848485 -2.470909 
L 513.340704 -2.470909 
L 512.832924 -2.470909 
L 512.325143 -2.470909 
L 511.817363 -2.470909 
L 511.309582 -2.470909 
L 510.801802 -2.470909 
L 510.294021 -2.470909 
L 509.786241 -2.470909 
L 509.27846 -2.470909 
L 508.77068 -2.470909 
L 508.262899 -2.470909 
L 507.755119 -2.470909 
L 507.247338 -2.470909 
L 506.739558 -2.470909 
L 506.231777 -2.470909 
L 505.723997 -2.470909 
L 505.216216 -2.470909 
L 504.708436 -2.470909 
L 504.200655 -2.470909 
L 503.692875 -2.470909 
L 503.185094 -2.470909 
L 502.677314 -2.470909 
L 502.169533 -2.470909 
L 501.661753 -2.470909 
L 501.153972 -2.470909 
L 500.646192 -2.470909 
L 500.138411 -2.470909 
L 499.630631 -2.470909 
L 499.12285 -2.470909 
L 498.61507 -2.470909 
L 498.107289 -2.470909 
L 497.599509 -2.470909 
L 497.091728 -2.470909 
L 496.583948 -2.470909 
L 496.076167 -2.470909 
L 495.568387 -2.470909 
L 495.060606 -2.470909 
L 494.552826 -2.470909 
L 494.045045 -2.470909 
L 493.537265 -2.470909 
L 493.029484 -2.470909 
L 492.521704 -2.470909 
L 492.013923 -2.470909 
L 491.506143 -2.470909 
L 490.998362 -2.470909 
L 490.490581 -2.470909 
L 489.982801 -2.470909 
L 489.47502 -2.470909 
L 488.96724 -2.470909 
L 488.459459 -2.470909 
L 487.951679 -2.470909 
L 487.443898 -2.470909 
L 486.936118 -2.470909 
L 486.428337 -2.470909 
L 485.920557 -2.470909 
L 485.412776 -2.470909 
L 484.904996 -2.470909 
L 484.397215 -2.470909 
L 483.889435 -2.470909 
L 483.381654 -2.470909 
L 482.873874 -2.470909 
L 482.366093 -2.470909 
L 481.858313 -2.470909 
L 481.350532 -2.470909 
L 480.842752 -2.470909 
L 480.334971 -2.470909 
L 479.827191 -2.470909 
L 479.31941 -2.470909 
L 478.81163 -2.470909 
L 478.303849 -2.470909 
L 477.796069 -2.470909 
L 477.288288 -2.470909 
L 476.780508 -2.470909 
L 476.272727 -2.470909 
L 475.764947 -2.470909 
L 475.257166 -2.470909 
L 474.749386 -2.470909 
L 474.241605 -2.470909 
L 473.733825 -2.470909 
L 473.226044 -2.470909 
L 472.718264 -2.470909 
L 472.210483 -2.470909 
L 471.702703 -2.470909 
L 471.194922 -2.470909 
L 470.687142 -2.470909 
L 470.179361 -2.470909 
L 469.671581 -2.470909 
L 469.1638 -2.470909 
L 468.65602 -2.470909 
L 468.148239 -2.470909 
L 467.640459 -2.470909 
L 467.132678 -2.470909 
L 466.624898 -2.470909 
L 466.117117 -2.470909 
L 465.609337 -2.470909 
L 465.101556 -2.470909 
L 464.593776 -2.470909 
L 464.085995 -2.470909 
L 463.578215 -2.470909 
L 463.070434 -2.470909 
L 462.562654 -2.470909 
L 462.054873 -2.470909 
L 461.547093 -2.470909 
L 461.039312 -2.470909 
L 460.531532 -2.470909 
L 460.023751 -2.470909 
L 459.515971 -2.470909 
L 459.00819 -2.470909 
L 458.50041 -2.470909 
L 457.992629 -2.470909 
L 457.484848 -2.470909 
L 456.977068 -2.470909 
L 456.469287 -2.470909 
L 455.961507 -2.470909 
L 455.453726 -2.470909 
L 454.945946 -2.470909 
L 454.438165 -2.470909 
L 453.930385 -2.470909 
L 453.422604 -2.470909 
L 452.914824 -2.470909 
L 452.407043 -2.470909 
L 451.899263 -2.470909 
L 451.391482 -2.470909 
L 450.883702 -2.470909 
L 450.375921 -2.470909 
L 449.868141 -2.470909 
L 449.36036 -2.470909 
L 448.85258 -2.470909 
L 448.344799 -2.470909 
L 447.837019 -2.470909 
L 447.329238 -2.470909 
L 446.821458 -2.470909 
L 446.313677 -2.470909 
L 445.805897 -2.470909 
L 445.298116 -2.470909 
L 444.790336 -2.470909 
L 444.282555 -2.470909 
L 443.774775 -2.470909 
L 443.266994 -2.470909 
L 442.759214 -2.470909 
L 442.251433 -2.470909 
L 441.743653 -2.470909 
L 441.235872 -2.470909 
L 440.728092 -2.470909 
L 440.220311 -2.470909 
L 439.712531 -2.470909 
L 439.20475 -2.470909 
L 438.69697 -2.470909 
L 438.189189 -2.470909 
L 437.681409 -2.470909 
L 437.173628 -2.470909 
L 436.665848 -2.470909 
L 436.158067 -2.470909 
L 435.650287 -2.470909 
L 435.142506 -2.470909 
L 434.634726 -2.470909 
L 434.126945 -2.470909 
L 433.619165 -2.470909 
L 433.111384 -2.470909 
L 432.603604 -2.470909 
L 432.095823 -2.470909 
L 431.588043 -2.470909 
L 431.080262 -2.470909 
L 430.572482 -2.470909 
L 430.064701 -2.470909 
L 429.556921 -2.470909 
L 429.04914 -2.470909 
L 428.54136 -2.470909 
L 428.033579 -2.470909 
L 427.525799 -2.470909 
L 427.018018 -2.470909 
L 426.510238 -2.470909 
L 426.002457 -2.470909 
L 425.494676 -2.470909 
L 424.986896 -2.470909 
L 424.479115 -2.470909 
L 423.971335 -2.470909 
L 423.463554 -2.470909 
L 422.955774 -2.470909 
L 422.447993 -2.470909 
L 421.940213 -2.470909 
L 421.432432 -2.470909 
L 420.924652 -2.470909 
L 420.416871 -2.470909 
L 419.909091 -2.470909 
L 419.40131 -2.470909 
L 418.89353 -2.470909 
L 418.385749 -2.470909 
L 417.877969 -2.470909 
L 417.370188 -2.470909 
L 416.862408 -2.470909 
L 416.354627 -2.470909 
L 415.846847 -2.470909 
L 415.339066 -2.470909 
L 414.831286 -2.470909 
L 414.323505 -2.470909 
L 413.815725 -2.470909 
L 413.307944 -2.470909 
L 412.800164 -2.470909 
L 412.292383 -2.470909 
L 411.784603 -2.470909 
L 411.276822 -2.470909 
L 410.769042 -2.470909 
L 410.261261 -2.470909 
L 409.753481 -2.470909 
L 409.2457 -2.470909 
L 408.73792 -2.470909 
L 408.230139 -2.470909 
L 407.722359 -2.470909 
L 407.214578 -2.470909 
L 406.706798 -2.470909 
L 406.199017 -2.470909 
L 405.691237 -2.470909 
L 405.183456 -2.470909 
L 404.675676 -2.470909 
L 404.167895 -2.470909 
L 403.660115 -2.470909 
L 403.152334 -2.470909 
L 402.644554 -2.470909 
z
" style="stroke: #116dc2; stroke-opacity: 0.2"/>
    </defs>
    <g clip-path="url(#p73ed4c6b33)">
     <use xlink:href="#m5e619ad4dc" x="0" y="54.36" style="fill: #116dc2; fill-opacity: 0.2; stroke: #116dc2; stroke-opacity: 0.2"/>
    </g>
   </g>
   <g id="PolyCollection_3">
    <defs>
     <path id="m9748f61d00" d="M 30.949222 -2.470909 
L 30.949222 -4.411218 
L 31.457002 -4.72743 
L 31.964783 -5.079508 
L 32.472563 -5.458411 
L 32.980344 -5.852099 
L 33.488124 -6.248254 
L 33.995905 -6.636674 
L 34.503686 -7.01214 
L 35.011466 -7.378646 
L 35.519247 -7.753669 
L 36.027027 -8.1688 
L 36.534808 -8.663699 
L 37.042588 -9.274181 
L 37.550369 -10.019508 
L 38.058149 -10.895295 
L 38.56593 -11.875894 
L 39.07371 -12.925469 
L 39.581491 -14.012596 
L 40.089271 -15.121632 
L 40.597052 -16.25603 
L 41.104832 -17.43309 
L 41.612613 -18.673469 
L 42.120393 -19.990045 
L 42.628174 -21.379602 
L 43.135954 -22.819326 
L 43.643735 -24.26941 
L 44.151515 -25.682465 
L 44.659296 -27.018757 
L 45.167076 -28.263275 
L 45.674857 -29.43773 
L 46.182637 -30.600089 
L 46.690418 -31.82803 
L 47.198198 -33.190234 
L 47.705979 -34.71699 
L 48.213759 -36.383924 
L 48.72154 -38.117413 
L 49.22932 -39.819781 
L 49.737101 -41.402519 
L 50.244881 -42.811934 
L 50.752662 -44.03608 
L 51.260442 -45.092476 
L 51.768223 -46.006796 
L 52.276003 -46.796445 
L 52.783784 -47.467329 
L 53.291564 -48.021664 
L 53.799345 -48.467811 
L 54.307125 -48.824236 
L 54.814906 -49.116239 
L 55.322686 -49.369224 
L 55.830467 -49.601944 
L 56.338247 -49.81952 
L 56.846028 -50.004915 
L 57.353808 -50.111478 
L 57.861589 -50.064213 
L 58.369369 -49.776354 
L 58.87715 -49.178514 
L 59.38493 -48.246937 
L 59.892711 -47.015304 
L 60.400491 -45.564147 
L 60.908272 -43.99534 
L 61.416052 -42.405433 
L 61.923833 -40.867389 
L 62.431613 -39.422116 
L 62.939394 -38.076982 
L 63.447174 -36.810052 
L 63.954955 -35.580856 
L 64.462735 -34.346636 
L 64.970516 -33.078391 
L 65.478296 -31.769208 
L 65.986077 -30.431291 
L 66.493857 -29.085119 
L 67.001638 -27.748373 
L 67.509419 -26.430907 
L 68.017199 -25.136936 
L 68.52498 -23.870902 
L 69.03276 -22.641904 
L 69.540541 -21.463184 
L 70.048321 -20.346595 
L 70.556102 -19.295197 
L 71.063882 -18.29868 
L 71.571663 -17.335173 
L 72.079443 -16.379629 
L 72.587224 -15.414981 
L 73.095004 -14.440029 
L 73.602785 -13.469324 
L 74.110565 -12.524897 
L 74.618346 -11.624816 
L 75.126126 -10.775638 
L 75.633907 -9.973174 
L 76.141687 -9.210239 
L 76.649468 -8.48536 
L 77.157248 -7.80629 
L 77.665029 -7.186453 
L 78.172809 -6.637639 
L 78.68059 -6.164304 
L 79.18837 -5.762558 
L 79.696151 -5.422931 
L 80.203931 -5.133661 
L 80.711712 -4.882101 
L 81.219492 -4.654565 
L 81.219492 -2.470909 
L 81.219492 -2.470909 
L 80.711712 -2.470909 
L 80.203931 -2.470909 
L 79.696151 -2.470909 
L 79.18837 -2.470909 
L 78.68059 -2.470909 
L 78.172809 -2.470909 
L 77.665029 -2.470909 
L 77.157248 -2.470909 
L 76.649468 -2.470909 
L 76.141687 -2.470909 
L 75.633907 -2.470909 
L 75.126126 -2.470909 
L 74.618346 -2.470909 
L 74.110565 -2.470909 
L 73.602785 -2.470909 
L 73.095004 -2.470909 
L 72.587224 -2.470909 
L 72.079443 -2.470909 
L 71.571663 -2.470909 
L 71.063882 -2.470909 
L 70.556102 -2.470909 
L 70.048321 -2.470909 
L 69.540541 -2.470909 
L 69.03276 -2.470909 
L 68.52498 -2.470909 
L 68.017199 -2.470909 
L 67.509419 -2.470909 
L 67.001638 -2.470909 
L 66.493857 -2.470909 
L 65.986077 -2.470909 
L 65.478296 -2.470909 
L 64.970516 -2.470909 
L 64.462735 -2.470909 
L 63.954955 -2.470909 
L 63.447174 -2.470909 
L 62.939394 -2.470909 
L 62.431613 -2.470909 
L 61.923833 -2.470909 
L 61.416052 -2.470909 
L 60.908272 -2.470909 
L 60.400491 -2.470909 
L 59.892711 -2.470909 
L 59.38493 -2.470909 
L 58.87715 -2.470909 
L 58.369369 -2.470909 
L 57.861589 -2.470909 
L 57.353808 -2.470909 
L 56.846028 -2.470909 
L 56.338247 -2.470909 
L 55.830467 -2.470909 
L 55.322686 -2.470909 
L 54.814906 -2.470909 
L 54.307125 -2.470909 
L 53.799345 -2.470909 
L 53.291564 -2.470909 
L 52.783784 -2.470909 
L 52.276003 -2.470909 
L 51.768223 -2.470909 
L 51.260442 -2.470909 
L 50.752662 -2.470909 
L 50.244881 -2.470909 
L 49.737101 -2.470909 
L 49.22932 -2.470909 
L 48.72154 -2.470909 
L 48.213759 -2.470909 
L 47.705979 -2.470909 
L 47.198198 -2.470909 
L 46.690418 -2.470909 
L 46.182637 -2.470909 
L 45.674857 -2.470909 
L 45.167076 -2.470909 
L 44.659296 -2.470909 
L 44.151515 -2.470909 
L 43.643735 -2.470909 
L 43.135954 -2.470909 
L 42.628174 -2.470909 
L 42.120393 -2.470909 
L 41.612613 -2.470909 
L 41.104832 -2.470909 
L 40.597052 -2.470909 
L 40.089271 -2.470909 
L 39.581491 -2.470909 
L 39.07371 -2.470909 
L 38.56593 -2.470909 
L 38.058149 -2.470909 
L 37.550369 -2.470909 
L 37.042588 -2.470909 
L 36.534808 -2.470909 
L 36.027027 -2.470909 
L 35.519247 -2.470909 
L 35.011466 -2.470909 
L 34.503686 -2.470909 
L 33.995905 -2.470909 
L 33.488124 -2.470909 
L 32.980344 -2.470909 
L 32.472563 -2.470909 
L 31.964783 -2.470909 
L 31.457002 -2.470909 
L 30.949222 -2.470909 
z
" style="stroke: #8a8a8a; stroke-opacity: 0.2"/>
    </defs>
    <g clip-path="url(#p73ed4c6b33)">
     <use xlink:href="#m9748f61d00" x="0" y="54.36" style="fill: #8a8a8a; fill-opacity: 0.2; stroke: #8a8a8a; stroke-opacity: 0.2"/>
    </g>
   </g>
   <g id="line2d_1">
    <path d="M 25.363636 2.723142 
L 25.871417 2.470909 
L 26.379197 3.023497 
L 26.886978 4.326221 
L 27.394758 6.285427 
L 28.410319 11.65887 
L 30.949222 26.991373 
L 31.964783 31.675068 
L 32.980344 35.060776 
L 33.995905 37.285118 
L 35.011466 38.63112 
L 36.027027 39.400645 
L 37.042588 39.839914 
L 38.56593 40.222562 
L 41.612613 40.715471 
L 44.659296 40.977286 
L 50.752662 41.352528 
L 54.814906 41.930474 
L 59.892711 42.850034 
L 71.571663 45.230641 
L 75.633907 46.012786 
L 84.773956 47.911989 
L 89.34398 48.69156 
L 94.929566 49.355542 
L 105.085176 50.408798 
L 122.857494 51.421985 
L 123.365274 51.440844 
L 123.365274 51.440844 
" clip-path="url(#p73ed4c6b33)" style="fill: none; stroke: #cf1313; stroke-width: 1.5; stroke-linecap: square"/>
   </g>
   <g id="line2d_2">
    <path d="M 402.644554 50.323366 
L 408.73792 49.579505 
L 414.323505 48.645457 
L 416.862408 48.032029 
L 418.89353 47.34005 
L 421.432432 46.206815 
L 428.54136 42.556874 
L 432.095823 40.604803 
L 441.235872 35.116492 
L 443.774775 33.316805 
L 446.313677 31.207158 
L 452.407043 25.914212 
L 455.453726 23.634389 
L 459.00819 21.25794 
L 468.65602 15.341384 
L 470.179361 14.605927 
L 471.702703 14.089627 
L 473.226044 13.802481 
L 475.257166 13.693203 
L 483.381654 13.850536 
L 485.920557 14.015524 
L 487.951679 14.374034 
L 489.47502 14.847434 
L 490.998362 15.531484 
L 492.521704 16.429102 
L 494.552826 17.908743 
L 497.091728 20.061965 
L 502.169533 24.77079 
L 504.708436 26.996938 
L 506.739558 28.53925 
L 509.27846 30.151291 
L 517.402948 34.927954 
L 521.972973 37.998084 
L 523.496314 38.68402 
L 524.511876 38.934596 
L 525.527437 38.99852 
L 527.050778 38.785929 
L 529.589681 38.221864 
L 530.605242 38.249198 
L 531.620803 38.584905 
L 532.636364 39.288495 
L 532.636364 39.288495 
" clip-path="url(#p73ed4c6b33)" style="fill: none; stroke: #116dc2; stroke-width: 1.5; stroke-linecap: square"/>
   </g>
   <g id="line2d_3">
    <path d="M 30.949222 49.948782 
L 31.457002 49.63257 
L 31.964783 49.280492 
L 32.472563 48.901589 
L 32.980344 48.507901 
L 33.488124 48.111746 
L 33.995905 47.723326 
L 34.503686 47.34786 
L 35.011466 46.981354 
L 35.519247 46.606331 
L 36.027027 46.1912 
L 36.534808 45.696301 
L 37.042588 45.085819 
L 37.550369 44.340492 
L 38.058149 43.464705 
L 38.56593 42.484106 
L 39.07371 41.434531 
L 39.581491 40.347404 
L 40.089271 39.238368 
L 40.597052 38.10397 
L 41.104832 36.92691 
L 41.612613 35.686531 
L 42.120393 34.369955 
L 42.628174 32.980398 
L 43.135954 31.540674 
L 43.643735 30.09059 
L 44.151515 28.677535 
L 44.659296 27.341243 
L 45.167076 26.096725 
L 45.674857 24.92227 
L 46.182637 23.759911 
L 46.690418 22.53197 
L 47.198198 21.169766 
L 47.705979 19.64301 
L 48.213759 17.976076 
L 48.72154 16.242587 
L 49.22932 14.540219 
L 49.737101 12.957481 
L 50.244881 11.548066 
L 50.752662 10.32392 
L 51.260442 9.267524 
L 51.768223 8.353204 
L 52.276003 7.563555 
L 52.783784 6.892671 
L 53.291564 6.338336 
L 53.799345 5.892189 
L 54.307125 5.535764 
L 54.814906 5.243761 
L 55.322686 4.990776 
L 55.830467 4.758056 
L 56.338247 4.54048 
L 56.846028 4.355085 
L 57.353808 4.248522 
L 57.861589 4.295787 
L 58.369369 4.583646 
L 58.87715 5.181486 
L 59.38493 6.113063 
L 59.892711 7.344696 
L 60.400491 8.795853 
L 60.908272 10.36466 
L 61.416052 11.954567 
L 61.923833 13.492611 
L 62.431613 14.937884 
L 62.939394 16.283018 
L 63.447174 17.549948 
L 63.954955 18.779144 
L 64.462735 20.013364 
L 64.970516 21.281609 
L 65.478296 22.590792 
L 65.986077 23.928709 
L 66.493857 25.274881 
L 67.001638 26.611627 
L 67.509419 27.929093 
L 68.017199 29.223064 
L 68.52498 30.489098 
L 69.03276 31.718096 
L 69.540541 32.896816 
L 70.048321 34.013405 
L 70.556102 35.064803 
L 71.063882 36.06132 
L 71.571663 37.024827 
L 72.079443 37.980371 
L 72.587224 38.945019 
L 73.095004 39.919971 
L 73.602785 40.890676 
L 74.110565 41.835103 
L 74.618346 42.735184 
L 75.126126 43.584362 
L 75.633907 44.386826 
L 76.141687 45.149761 
L 76.649468 45.87464 
L 77.157248 46.55371 
L 77.665029 47.173547 
L 78.172809 47.722361 
L 78.68059 48.195696 
L 79.18837 48.597442 
L 79.696151 48.937069 
L 80.203931 49.226339 
L 80.711712 49.477899 
L 81.219492 49.705435 
" clip-path="url(#p73ed4c6b33)" style="fill: none; stroke: #8a8a8a; stroke-width: 1.5; stroke-linecap: square"/>
   </g>
  </g>
 </g>
 <defs>
  <clipPath id="p73ed4c6b33">
   <rect x="0" y="-0" width="558" height="54.36"/>
  </clipPath>
 </defs>
</svg>
