<?xml version="1.0" encoding="utf-8" standalone="no"?>
<!DOCTYPE svg PUBLIC "-//W3C//DTD SVG 1.1//EN"
  "http://www.w3.org/Graphics/SVG/1.1/DTD/svg11.dtd">
<svg xmlns:xlink="http://www.w3.org/1999/xlink" width="558pt" height="54.36pt" viewBox="0 0 558 54.36" xmlns="http://www.w3.org/2000/svg" version="1.1">
 <metadata>
  <rdf:RDF xmlns:dc="http://purl.org/dc/elements/1.1/" xmlns:cc="http://creativecommons.org/ns#" xmlns:rdf="http://www.w3.org/1999/02/22-rdf-syntax-ns#">
   <cc:Work>
    <dc:type rdf:resource="http://purl.org/dc/dcmitype/StillImage"/>
    <dc:date>2024-09-14T12:47:57.026254</dc:date>
    <dc:format>image/svg+xml</dc:format>
    <dc:creator>
     <cc:Agent>
      <dc:title>Matplotlib v3.5.2, https://matplotlib.org/</dc:title>
     </cc:Agent>
    </dc:creator>
   </cc:Work>
  </rdf:RDF>
 </metadata>
 <defs>
  <style type="text/css">*{stroke-linejoin: round; stroke-linecap: butt}</style>
 </defs>
 <g id="figure_1">
  <g id="patch_1">
   <path d="M 0 54.36 
L 558 54.36 
L 558 0 
L 0 0 
L 0 54.36 
z
" style="fill: none; opacity: 0"/>
  </g>
  <g id="axes_1">
   <g id="PolyCollection_1">
    <defs>
     <path id="m220befc692" d="M 25.363636 -2.470909 
L 25.363636 -51.643675 
L 25.871417 -51.889091 
L 26.379197 -51.349348 
L 26.886978 -50.076491 
L 27.394758 -48.159719 
L 27.902539 -45.717216 
L 28.410319 -42.885884 
L 28.9181 -39.810197 
L 29.42588 -36.631406 
L 29.933661 -33.478173 
L 30.441441 -30.459422 
L 30.949222 -27.659861 
L 31.457002 -25.138212 
L 31.964783 -22.92791 
L 32.472563 -21.039759 
L 32.980344 -19.465921 
L 33.488124 -18.184561 
L 33.995905 -17.164587 
L 34.503686 -16.369972 
L 35.011466 -15.76339 
L 35.519247 -15.308959 
L 36.027027 -14.974115 
L 36.534808 -14.730657 
L 37.042588 -14.555131 
L 37.550369 -14.428717 
L 38.058149 -14.336793 
L 38.56593 -14.268321 
L 39.07371 -14.215188 
L 39.581491 -14.171579 
L 40.089271 -14.133426 
L 40.597052 -14.097974 
L 41.104832 -14.063439 
L 41.612613 -14.028771 
L 42.120393 -13.993475 
L 42.628174 -13.957479 
L 43.135954 -13.921035 
L 43.643735 -13.884615 
L 44.151515 -13.848818 
L 44.659296 -13.814265 
L 45.167076 -13.7815 
L 45.674857 -13.750901 
L 46.182637 -13.722596 
L 46.690418 -13.696423 
L 47.198198 -13.671905 
L 47.705979 -13.648269 
L 48.213759 -13.624493 
L 48.72154 -13.599381 
L 49.22932 -13.571654 
L 49.737101 -13.540046 
L 50.244881 -13.503398 
L 50.752662 -13.460734 
L 51.260442 -13.411318 
L 51.768223 -13.354688 
L 52.276003 -13.290657 
L 52.783784 -13.219297 
L 53.291564 -13.140904 
L 53.799345 -13.055946 
L 54.307125 -12.96501 
L 54.814906 -12.868752 
L 55.322686 -12.767844 
L 55.830467 -12.662947 
L 56.338247 -12.554684 
L 56.846028 -12.443626 
L 57.353808 -12.330301 
L 57.861589 -12.215189 
L 58.369369 -12.098739 
L 58.87715 -11.981371 
L 59.38493 -11.86348 
L 59.892711 -11.745437 
L 60.400491 -11.627572 
L 60.908272 -11.510177 
L 61.416052 -11.393486 
L 61.923833 -11.277678 
L 62.431613 -11.162879 
L 62.939394 -11.049173 
L 63.447174 -10.936626 
L 63.954955 -10.82531 
L 64.462735 -10.715331 
L 64.970516 -10.606853 
L 65.478296 -10.500106 
L 65.986077 -10.395387 
L 66.493857 -10.293043 
L 67.001638 -10.193438 
L 67.509419 -10.096913 
L 68.017199 -10.003738 
L 68.52498 -9.91407 
L 69.03276 -9.827917 
L 69.540541 -9.745114 
L 70.048321 -9.665318 
L 70.556102 -9.588021 
L 71.063882 -9.512577 
L 71.571663 -9.438236 
L 72.079443 -9.36419 
L 72.587224 -9.289624 
L 73.095004 -9.213749 
L 73.602785 -9.135844 
L 74.110565 -9.05528 
L 74.618346 -8.971536 
L 75.126126 -8.884209 
L 75.633907 -8.793011 
L 76.141687 -8.697768 
L 76.649468 -8.598412 
L 77.157248 -8.494973 
L 77.665029 -8.387574 
L 78.172809 -8.276424 
L 78.68059 -8.161818 
L 79.18837 -8.044136 
L 79.696151 -7.923839 
L 80.203931 -7.801471 
L 80.711712 -7.677654 
L 81.219492 -7.553079 
L 81.727273 -7.428496 
L 82.235053 -7.304691 
L 82.742834 -7.182459 
L 83.250614 -7.062578 
L 83.758395 -6.945766 
L 84.266175 -6.832645 
L 84.773956 -6.723706 
L 85.281736 -6.619278 
L 85.789517 -6.519506 
L 86.297297 -6.424346 
L 86.805078 -6.333574 
L 87.312858 -6.246806 
L 87.820639 -6.163538 
L 88.328419 -6.083192 
L 88.8362 -6.005166 
L 89.34398 -5.928892 
L 89.851761 -5.853874 
L 90.359541 -5.77973 
L 90.867322 -5.706207 
L 91.375102 -5.633193 
L 91.882883 -5.560708 
L 92.390663 -5.488879 
L 92.898444 -5.417916 
L 93.406224 -5.348073 
L 93.914005 -5.279613 
L 94.421785 -5.212775 
L 94.929566 -5.147741 
L 95.437346 -5.08462 
L 95.945127 -5.023435 
L 96.452907 -4.964116 
L 96.960688 -4.90651 
L 97.468468 -4.850394 
L 97.976249 -4.795494 
L 98.484029 -4.741512 
L 98.99181 -4.688148 
L 99.49959 -4.635127 
L 100.007371 -4.582221 
L 100.515152 -4.52927 
L 101.022932 -4.476185 
L 101.530713 -4.422961 
L 102.038493 -4.369674 
L 102.546274 -4.316468 
L 103.054054 -4.263553 
L 103.561835 -4.21118 
L 104.069615 -4.159632 
L 104.577396 -4.109204 
L 105.085176 -4.060188 
L 105.592957 -4.012854 
L 106.100737 -3.967444 
L 106.608518 -3.924149 
L 107.116298 -3.883105 
L 107.624079 -3.844382 
L 108.131859 -3.807969 
L 108.63964 -3.773777 
L 109.14742 -3.741631 
L 109.655201 -3.711276 
L 110.162981 -3.682385 
L 110.670762 -3.654577 
L 111.178542 -3.627435 
L 111.686323 -3.600538 
L 112.194103 -3.573487 
L 112.701884 -3.545934 
L 113.209664 -3.51761 
L 113.717445 -3.488343 
L 114.225225 -3.458068 
L 114.733006 -3.426832 
L 115.240786 -3.39478 
L 115.748567 -3.36214 
L 116.256347 -3.329201 
L 116.764128 -3.29628 
L 117.271908 -3.263699 
L 117.779689 -3.231754 
L 118.287469 -3.200704 
L 118.79525 -3.170747 
L 119.30303 -3.142023 
L 119.810811 -3.114607 
L 120.318591 -3.088522 
L 120.826372 -3.063745 
L 121.334152 -3.040219 
L 121.841933 -3.017865 
L 122.349713 -2.996596 
L 122.857494 -2.976321 
L 123.365274 -2.956952 
L 123.873055 -2.93841 
L 123.873055 -2.470909 
L 123.873055 -2.470909 
L 123.365274 -2.470909 
L 122.857494 -2.470909 
L 122.349713 -2.470909 
L 121.841933 -2.470909 
L 121.334152 -2.470909 
L 120.826372 -2.470909 
L 120.318591 -2.470909 
L 119.810811 -2.470909 
L 119.30303 -2.470909 
L 118.79525 -2.470909 
L 118.287469 -2.470909 
L 117.779689 -2.470909 
L 117.271908 -2.470909 
L 116.764128 -2.470909 
L 116.256347 -2.470909 
L 115.748567 -2.470909 
L 115.240786 -2.470909 
L 114.733006 -2.470909 
L 114.225225 -2.470909 
L 113.717445 -2.470909 
L 113.209664 -2.470909 
L 112.701884 -2.470909 
L 112.194103 -2.470909 
L 111.686323 -2.470909 
L 111.178542 -2.470909 
L 110.670762 -2.470909 
L 110.162981 -2.470909 
L 109.655201 -2.470909 
L 109.14742 -2.470909 
L 108.63964 -2.470909 
L 108.131859 -2.470909 
L 107.624079 -2.470909 
L 107.116298 -2.470909 
L 106.608518 -2.470909 
L 106.100737 -2.470909 
L 105.592957 -2.470909 
L 105.085176 -2.470909 
L 104.577396 -2.470909 
L 104.069615 -2.470909 
L 103.561835 -2.470909 
L 103.054054 -2.470909 
L 102.546274 -2.470909 
L 102.038493 -2.470909 
L 101.530713 -2.470909 
L 101.022932 -2.470909 
L 100.515152 -2.470909 
L 100.007371 -2.470909 
L 99.49959 -2.470909 
L 98.99181 -2.470909 
L 98.484029 -2.470909 
L 97.976249 -2.470909 
L 97.468468 -2.470909 
L 96.960688 -2.470909 
L 96.452907 -2.470909 
L 95.945127 -2.470909 
L 95.437346 -2.470909 
L 94.929566 -2.470909 
L 94.421785 -2.470909 
L 93.914005 -2.470909 
L 93.406224 -2.470909 
L 92.898444 -2.470909 
L 92.390663 -2.470909 
L 91.882883 -2.470909 
L 91.375102 -2.470909 
L 90.867322 -2.470909 
L 90.359541 -2.470909 
L 89.851761 -2.470909 
L 89.34398 -2.470909 
L 88.8362 -2.470909 
L 88.328419 -2.470909 
L 87.820639 -2.470909 
L 87.312858 -2.470909 
L 86.805078 -2.470909 
L 86.297297 -2.470909 
L 85.789517 -2.470909 
L 85.281736 -2.470909 
L 84.773956 -2.470909 
L 84.266175 -2.470909 
L 83.758395 -2.470909 
L 83.250614 -2.470909 
L 82.742834 -2.470909 
L 82.235053 -2.470909 
L 81.727273 -2.470909 
L 81.219492 -2.470909 
L 80.711712 -2.470909 
L 80.203931 -2.470909 
L 79.696151 -2.470909 
L 79.18837 -2.470909 
L 78.68059 -2.470909 
L 78.172809 -2.470909 
L 77.665029 -2.470909 
L 77.157248 -2.470909 
L 76.649468 -2.470909 
L 76.141687 -2.470909 
L 75.633907 -2.470909 
L 75.126126 -2.470909 
L 74.618346 -2.470909 
L 74.110565 -2.470909 
L 73.602785 -2.470909 
L 73.095004 -2.470909 
L 72.587224 -2.470909 
L 72.079443 -2.470909 
L 71.571663 -2.470909 
L 71.063882 -2.470909 
L 70.556102 -2.470909 
L 70.048321 -2.470909 
L 69.540541 -2.470909 
L 69.03276 -2.470909 
L 68.52498 -2.470909 
L 68.017199 -2.470909 
L 67.509419 -2.470909 
L 67.001638 -2.470909 
L 66.493857 -2.470909 
L 65.986077 -2.470909 
L 65.478296 -2.470909 
L 64.970516 -2.470909 
L 64.462735 -2.470909 
L 63.954955 -2.470909 
L 63.447174 -2.470909 
L 62.939394 -2.470909 
L 62.431613 -2.470909 
L 61.923833 -2.470909 
L 61.416052 -2.470909 
L 60.908272 -2.470909 
L 60.400491 -2.470909 
L 59.892711 -2.470909 
L 59.38493 -2.470909 
L 58.87715 -2.470909 
L 58.369369 -2.470909 
L 57.861589 -2.470909 
L 57.353808 -2.470909 
L 56.846028 -2.470909 
L 56.338247 -2.470909 
L 55.830467 -2.470909 
L 55.322686 -2.470909 
L 54.814906 -2.470909 
L 54.307125 -2.470909 
L 53.799345 -2.470909 
L 53.291564 -2.470909 
L 52.783784 -2.470909 
L 52.276003 -2.470909 
L 51.768223 -2.470909 
L 51.260442 -2.470909 
L 50.752662 -2.470909 
L 50.244881 -2.470909 
L 49.737101 -2.470909 
L 49.22932 -2.470909 
L 48.72154 -2.470909 
L 48.213759 -2.470909 
L 47.705979 -2.470909 
L 47.198198 -2.470909 
L 46.690418 -2.470909 
L 46.182637 -2.470909 
L 45.674857 -2.470909 
L 45.167076 -2.470909 
L 44.659296 -2.470909 
L 44.151515 -2.470909 
L 43.643735 -2.470909 
L 43.135954 -2.470909 
L 42.628174 -2.470909 
L 42.120393 -2.470909 
L 41.612613 -2.470909 
L 41.104832 -2.470909 
L 40.597052 -2.470909 
L 40.089271 -2.470909 
L 39.581491 -2.470909 
L 39.07371 -2.470909 
L 38.56593 -2.470909 
L 38.058149 -2.470909 
L 37.550369 -2.470909 
L 37.042588 -2.470909 
L 36.534808 -2.470909 
L 36.027027 -2.470909 
L 35.519247 -2.470909 
L 35.011466 -2.470909 
L 34.503686 -2.470909 
L 33.995905 -2.470909 
L 33.488124 -2.470909 
L 32.980344 -2.470909 
L 32.472563 -2.470909 
L 31.964783 -2.470909 
L 31.457002 -2.470909 
L 30.949222 -2.470909 
L 30.441441 -2.470909 
L 29.933661 -2.470909 
L 29.42588 -2.470909 
L 28.9181 -2.470909 
L 28.410319 -2.470909 
L 27.902539 -2.470909 
L 27.394758 -2.470909 
L 26.886978 -2.470909 
L 26.379197 -2.470909 
L 25.871417 -2.470909 
L 25.363636 -2.470909 
z
" style="stroke: #cf1313; stroke-opacity: 0.2"/>
    </defs>
    <g clip-path="url(#p0971e4b94a)">
     <use xlink:href="#m220befc692" x="0" y="54.36" style="fill: #cf1313; fill-opacity: 0.2; stroke: #cf1313; stroke-opacity: 0.2"/>
    </g>
   </g>
   <g id="PolyCollection_2">
    <defs>
     <path id="m6dc79bb7de" d="M 404.167895 -2.470909 
L 404.167895 -3.997187 
L 404.675676 -4.074735 
L 405.183456 -4.154404 
L 405.691237 -4.236202 
L 406.199017 -4.320147 
L 406.706798 -4.406262 
L 407.214578 -4.494569 
L 407.722359 -4.585091 
L 408.230139 -4.677853 
L 408.73792 -4.772891 
L 409.2457 -4.870259 
L 409.753481 -4.970045 
L 410.261261 -5.072376 
L 410.769042 -5.177434 
L 411.276822 -5.285458 
L 411.784603 -5.396746 
L 412.292383 -5.511655 
L 412.800164 -5.630594 
L 413.307944 -5.754013 
L 413.815725 -5.882386 
L 414.323505 -6.016196 
L 414.831286 -6.155919 
L 415.339066 -6.302002 
L 415.846847 -6.454848 
L 416.354627 -6.614802 
L 416.862408 -6.782131 
L 417.370188 -6.957017 
L 417.877969 -7.139547 
L 418.385749 -7.329703 
L 418.89353 -7.527358 
L 419.40131 -7.732277 
L 419.909091 -7.944111 
L 420.416871 -8.162403 
L 420.924652 -8.386599 
L 421.432432 -8.616048 
L 421.940213 -8.850029 
L 422.447993 -9.087758 
L 422.955774 -9.328415 
L 423.463554 -9.571171 
L 423.971335 -9.815208 
L 424.479115 -10.059752 
L 424.986896 -10.3041 
L 425.494676 -10.54764 
L 426.002457 -10.789878 
L 426.510238 -11.030455 
L 427.018018 -11.269155 
L 427.525799 -11.505914 
L 428.033579 -11.740822 
L 428.54136 -11.974115 
L 429.04914 -12.206167 
L 429.556921 -12.437479 
L 430.064701 -12.668662 
L 430.572482 -12.90042 
L 431.080262 -13.133539 
L 431.588043 -13.368863 
L 432.095823 -13.607288 
L 432.603604 -13.84974 
L 433.111384 -14.097163 
L 433.619165 -14.350504 
L 434.126945 -14.610693 
L 434.634726 -14.878623 
L 435.142506 -15.155126 
L 435.650287 -15.440944 
L 436.158067 -15.736697 
L 436.665848 -16.042852 
L 437.173628 -16.359689 
L 437.681409 -16.687276 
L 438.189189 -17.025443 
L 438.69697 -17.373772 
L 439.20475 -17.731599 
L 439.712531 -18.098025 
L 440.220311 -18.471951 
L 440.728092 -18.85212 
L 441.235872 -19.237172 
L 441.743653 -19.625716 
L 442.251433 -20.016399 
L 442.759214 -20.407976 
L 443.266994 -20.799374 
L 443.774775 -21.189753 
L 444.282555 -21.57854 
L 444.790336 -21.96545 
L 445.298116 -22.350493 
L 445.805897 -22.733953 
L 446.313677 -23.11635 
L 446.821458 -23.498396 
L 447.329238 -23.880928 
L 447.837019 -24.264843 
L 448.344799 -24.651026 
L 448.85258 -25.040287 
L 449.36036 -25.433298 
L 449.868141 -25.830549 
L 450.375921 -26.232303 
L 450.883702 -26.638582 
L 451.391482 -27.049147 
L 451.899263 -27.463506 
L 452.407043 -27.880922 
L 452.914824 -28.300442 
L 453.422604 -28.72092 
L 453.930385 -29.141058 
L 454.438165 -29.559446 
L 454.945946 -29.974606 
L 455.453726 -30.385045 
L 455.961507 -30.789301 
L 456.469287 -31.185997 
L 456.977068 -31.573896 
L 457.484848 -31.951947 
L 457.992629 -32.319335 
L 458.50041 -32.675518 
L 459.00819 -33.020257 
L 459.515971 -33.35363 
L 460.023751 -33.676032 
L 460.531532 -33.988152 
L 461.039312 -34.290939 
L 461.547093 -34.585539 
L 462.054873 -34.873226 
L 462.562654 -35.155318 
L 463.070434 -35.433083 
L 463.578215 -35.707655 
L 464.085995 -35.97995 
L 464.593776 -36.250604 
L 465.101556 -36.519922 
L 465.609337 -36.787858 
L 466.117117 -37.05402 
L 466.624898 -37.317694 
L 467.132678 -37.577898 
L 467.640459 -37.833448 
L 468.148239 -38.083037 
L 468.65602 -38.325319 
L 469.1638 -38.558992 
L 469.671581 -38.78287 
L 470.179361 -38.995944 
L 470.687142 -39.197428 
L 471.194922 -39.38678 
L 471.702703 -39.563716 
L 472.210483 -39.728193 
L 472.718264 -39.880385 
L 473.226044 -40.020647 
L 473.733825 -40.14946 
L 474.241605 -40.267379 
L 474.749386 -40.374973 
L 475.257166 -40.472761 
L 475.764947 -40.561155 
L 476.272727 -40.640403 
L 476.780508 -40.710538 
L 477.288288 -40.77134 
L 477.796069 -40.822304 
L 478.303849 -40.862635 
L 478.81163 -40.891244 
L 479.31941 -40.906779 
L 479.827191 -40.907667 
L 480.334971 -40.892181 
L 480.842752 -40.858521 
L 481.350532 -40.804909 
L 481.858313 -40.729697 
L 482.366093 -40.63147 
L 482.873874 -40.509151 
L 483.381654 -40.362085 
L 483.889435 -40.190113 
L 484.397215 -39.993616 
L 484.904996 -39.773534 
L 485.412776 -39.531355 
L 485.920557 -39.269078 
L 486.428337 -38.989153 
L 486.936118 -38.694392 
L 487.443898 -38.387878 
L 487.951679 -38.072849 
L 488.459459 -37.752597 
L 488.96724 -37.430345 
L 489.47502 -37.109156 
L 489.982801 -36.791827 
L 490.490581 -36.480814 
L 490.998362 -36.178157 
L 491.506143 -35.88543 
L 492.013923 -35.603698 
L 492.521704 -35.3335 
L 493.029484 -35.074838 
L 493.537265 -34.827192 
L 494.045045 -34.589552 
L 494.552826 -34.360461 
L 495.060606 -34.138082 
L 495.568387 -33.920279 
L 496.076167 -33.704704 
L 496.583948 -33.488904 
L 497.091728 -33.270426 
L 497.599509 -33.046922 
L 498.107289 -32.81625 
L 498.61507 -32.576565 
L 499.12285 -32.326388 
L 499.630631 -32.064656 
L 500.138411 -31.790748 
L 500.646192 -31.504478 
L 501.153972 -31.206072 
L 501.661753 -30.896107 
L 502.169533 -30.575444 
L 502.677314 -30.245131 
L 503.185094 -29.906319 
L 503.692875 -29.560161 
L 504.200655 -29.207729 
L 504.708436 -28.84995 
L 505.216216 -28.487559 
L 505.723997 -28.121077 
L 506.231777 -27.750819 
L 506.739558 -27.376928 
L 507.247338 -26.999423 
L 507.755119 -26.618268 
L 508.262899 -26.233449 
L 508.77068 -25.845046 
L 509.27846 -25.453298 
L 509.786241 -25.058657 
L 510.294021 -24.661814 
L 510.801802 -24.263708 
L 511.309582 -23.865505 
L 511.817363 -23.468559 
L 512.325143 -23.074354 
L 512.832924 -22.684427 
L 513.340704 -22.300292 
L 513.848485 -21.923362 
L 514.356265 -21.554876 
L 514.864046 -21.195847 
L 515.371826 -20.847024 
L 515.879607 -20.508885 
L 516.387387 -20.181651 
L 516.895168 -19.865332 
L 517.402948 -19.5598 
L 517.910729 -19.264879 
L 518.418509 -18.980461 
L 518.92629 -18.706624 
L 519.43407 -18.443757 
L 519.941851 -18.192667 
L 520.449631 -17.954667 
L 520.957412 -17.731624 
L 521.465192 -17.525952 
L 521.972973 -17.340558 
L 522.480753 -17.178701 
L 522.988534 -17.043791 
L 523.496314 -16.939114 
L 524.004095 -16.867504 
L 524.511876 -16.830958 
L 525.019656 -16.830256 
L 525.527437 -16.864573 
L 526.035217 -16.931157 
L 526.542998 -17.025082 
L 527.050778 -17.139132 
L 527.558559 -17.263825 
L 528.066339 -17.387615 
L 528.57412 -17.497266 
L 529.0819 -17.578398 
L 529.589681 -17.616171 
L 530.097461 -17.596076 
L 530.605242 -17.504772 
L 531.113022 -17.330918 
L 531.620803 -17.06592 
L 532.128583 -16.704546 
L 532.636364 -16.24534 
L 532.636364 -2.470909 
L 532.636364 -2.470909 
L 532.128583 -2.470909 
L 531.620803 -2.470909 
L 531.113022 -2.470909 
L 530.605242 -2.470909 
L 530.097461 -2.470909 
L 529.589681 -2.470909 
L 529.0819 -2.470909 
L 528.57412 -2.470909 
L 528.066339 -2.470909 
L 527.558559 -2.470909 
L 527.050778 -2.470909 
L 526.542998 -2.470909 
L 526.035217 -2.470909 
L 525.527437 -2.470909 
L 525.019656 -2.470909 
L 524.511876 -2.470909 
L 524.004095 -2.470909 
L 523.496314 -2.470909 
L 522.988534 -2.470909 
L 522.480753 -2.470909 
L 521.972973 -2.470909 
L 521.465192 -2.470909 
L 520.957412 -2.470909 
L 520.449631 -2.470909 
L 519.941851 -2.470909 
L 519.43407 -2.470909 
L 518.92629 -2.470909 
L 518.418509 -2.470909 
L 517.910729 -2.470909 
L 517.402948 -2.470909 
L 516.895168 -2.470909 
L 516.387387 -2.470909 
L 515.879607 -2.470909 
L 515.371826 -2.470909 
L 514.864046 -2.470909 
L 514.356265 -2.470909 
L 513.848485 -2.470909 
L 513.340704 -2.470909 
L 512.832924 -2.470909 
L 512.325143 -2.470909 
L 511.817363 -2.470909 
L 511.309582 -2.470909 
L 510.801802 -2.470909 
L 510.294021 -2.470909 
L 509.786241 -2.470909 
L 509.27846 -2.470909 
L 508.77068 -2.470909 
L 508.262899 -2.470909 
L 507.755119 -2.470909 
L 507.247338 -2.470909 
L 506.739558 -2.470909 
L 506.231777 -2.470909 
L 505.723997 -2.470909 
L 505.216216 -2.470909 
L 504.708436 -2.470909 
L 504.200655 -2.470909 
L 503.692875 -2.470909 
L 503.185094 -2.470909 
L 502.677314 -2.470909 
L 502.169533 -2.470909 
L 501.661753 -2.470909 
L 501.153972 -2.470909 
L 500.646192 -2.470909 
L 500.138411 -2.470909 
L 499.630631 -2.470909 
L 499.12285 -2.470909 
L 498.61507 -2.470909 
L 498.107289 -2.470909 
L 497.599509 -2.470909 
L 497.091728 -2.470909 
L 496.583948 -2.470909 
L 496.076167 -2.470909 
L 495.568387 -2.470909 
L 495.060606 -2.470909 
L 494.552826 -2.470909 
L 494.045045 -2.470909 
L 493.537265 -2.470909 
L 493.029484 -2.470909 
L 492.521704 -2.470909 
L 492.013923 -2.470909 
L 491.506143 -2.470909 
L 490.998362 -2.470909 
L 490.490581 -2.470909 
L 489.982801 -2.470909 
L 489.47502 -2.470909 
L 488.96724 -2.470909 
L 488.459459 -2.470909 
L 487.951679 -2.470909 
L 487.443898 -2.470909 
L 486.936118 -2.470909 
L 486.428337 -2.470909 
L 485.920557 -2.470909 
L 485.412776 -2.470909 
L 484.904996 -2.470909 
L 484.397215 -2.470909 
L 483.889435 -2.470909 
L 483.381654 -2.470909 
L 482.873874 -2.470909 
L 482.366093 -2.470909 
L 481.858313 -2.470909 
L 481.350532 -2.470909 
L 480.842752 -2.470909 
L 480.334971 -2.470909 
L 479.827191 -2.470909 
L 479.31941 -2.470909 
L 478.81163 -2.470909 
L 478.303849 -2.470909 
L 477.796069 -2.470909 
L 477.288288 -2.470909 
L 476.780508 -2.470909 
L 476.272727 -2.470909 
L 475.764947 -2.470909 
L 475.257166 -2.470909 
L 474.749386 -2.470909 
L 474.241605 -2.470909 
L 473.733825 -2.470909 
L 473.226044 -2.470909 
L 472.718264 -2.470909 
L 472.210483 -2.470909 
L 471.702703 -2.470909 
L 471.194922 -2.470909 
L 470.687142 -2.470909 
L 470.179361 -2.470909 
L 469.671581 -2.470909 
L 469.1638 -2.470909 
L 468.65602 -2.470909 
L 468.148239 -2.470909 
L 467.640459 -2.470909 
L 467.132678 -2.470909 
L 466.624898 -2.470909 
L 466.117117 -2.470909 
L 465.609337 -2.470909 
L 465.101556 -2.470909 
L 464.593776 -2.470909 
L 464.085995 -2.470909 
L 463.578215 -2.470909 
L 463.070434 -2.470909 
L 462.562654 -2.470909 
L 462.054873 -2.470909 
L 461.547093 -2.470909 
L 461.039312 -2.470909 
L 460.531532 -2.470909 
L 460.023751 -2.470909 
L 459.515971 -2.470909 
L 459.00819 -2.470909 
L 458.50041 -2.470909 
L 457.992629 -2.470909 
L 457.484848 -2.470909 
L 456.977068 -2.470909 
L 456.469287 -2.470909 
L 455.961507 -2.470909 
L 455.453726 -2.470909 
L 454.945946 -2.470909 
L 454.438165 -2.470909 
L 453.930385 -2.470909 
L 453.422604 -2.470909 
L 452.914824 -2.470909 
L 452.407043 -2.470909 
L 451.899263 -2.470909 
L 451.391482 -2.470909 
L 450.883702 -2.470909 
L 450.375921 -2.470909 
L 449.868141 -2.470909 
L 449.36036 -2.470909 
L 448.85258 -2.470909 
L 448.344799 -2.470909 
L 447.837019 -2.470909 
L 447.329238 -2.470909 
L 446.821458 -2.470909 
L 446.313677 -2.470909 
L 445.805897 -2.470909 
L 445.298116 -2.470909 
L 444.790336 -2.470909 
L 444.282555 -2.470909 
L 443.774775 -2.470909 
L 443.266994 -2.470909 
L 442.759214 -2.470909 
L 442.251433 -2.470909 
L 441.743653 -2.470909 
L 441.235872 -2.470909 
L 440.728092 -2.470909 
L 440.220311 -2.470909 
L 439.712531 -2.470909 
L 439.20475 -2.470909 
L 438.69697 -2.470909 
L 438.189189 -2.470909 
L 437.681409 -2.470909 
L 437.173628 -2.470909 
L 436.665848 -2.470909 
L 436.158067 -2.470909 
L 435.650287 -2.470909 
L 435.142506 -2.470909 
L 434.634726 -2.470909 
L 434.126945 -2.470909 
L 433.619165 -2.470909 
L 433.111384 -2.470909 
L 432.603604 -2.470909 
L 432.095823 -2.470909 
L 431.588043 -2.470909 
L 431.080262 -2.470909 
L 430.572482 -2.470909 
L 430.064701 -2.470909 
L 429.556921 -2.470909 
L 429.04914 -2.470909 
L 428.54136 -2.470909 
L 428.033579 -2.470909 
L 427.525799 -2.470909 
L 427.018018 -2.470909 
L 426.510238 -2.470909 
L 426.002457 -2.470909 
L 425.494676 -2.470909 
L 424.986896 -2.470909 
L 424.479115 -2.470909 
L 423.971335 -2.470909 
L 423.463554 -2.470909 
L 422.955774 -2.470909 
L 422.447993 -2.470909 
L 421.940213 -2.470909 
L 421.432432 -2.470909 
L 420.924652 -2.470909 
L 420.416871 -2.470909 
L 419.909091 -2.470909 
L 419.40131 -2.470909 
L 418.89353 -2.470909 
L 418.385749 -2.470909 
L 417.877969 -2.470909 
L 417.370188 -2.470909 
L 416.862408 -2.470909 
L 416.354627 -2.470909 
L 415.846847 -2.470909 
L 415.339066 -2.470909 
L 414.831286 -2.470909 
L 414.323505 -2.470909 
L 413.815725 -2.470909 
L 413.307944 -2.470909 
L 412.800164 -2.470909 
L 412.292383 -2.470909 
L 411.784603 -2.470909 
L 411.276822 -2.470909 
L 410.769042 -2.470909 
L 410.261261 -2.470909 
L 409.753481 -2.470909 
L 409.2457 -2.470909 
L 408.73792 -2.470909 
L 408.230139 -2.470909 
L 407.722359 -2.470909 
L 407.214578 -2.470909 
L 406.706798 -2.470909 
L 406.199017 -2.470909 
L 405.691237 -2.470909 
L 405.183456 -2.470909 
L 404.675676 -2.470909 
L 404.167895 -2.470909 
z
" style="stroke: #116dc2; stroke-opacity: 0.2"/>
    </defs>
    <g clip-path="url(#p0971e4b94a)">
     <use xlink:href="#m6dc79bb7de" x="0" y="54.36" style="fill: #116dc2; fill-opacity: 0.2; stroke: #116dc2; stroke-opacity: 0.2"/>
    </g>
   </g>
   <g id="PolyCollection_3">
    <defs>
     <path id="ma4c984e161" d="M 30.949222 -2.470909 
L 30.949222 -4.453747 
L 31.457002 -4.733809 
L 31.964783 -5.039084 
L 32.472563 -5.384003 
L 32.980344 -5.78035 
L 33.488124 -6.232812 
L 33.995905 -6.739141 
L 34.503686 -7.294154 
L 35.011466 -7.894414 
L 35.519247 -8.540457 
L 36.027027 -9.235478 
L 36.534808 -9.981667 
L 37.042588 -10.776353 
L 37.550369 -11.60979 
L 38.058149 -12.465603 
L 38.56593 -13.324052 
L 39.07371 -14.167569 
L 39.581491 -14.987255 
L 40.089271 -15.788439 
L 40.597052 -16.593119 
L 41.104832 -17.437511 
L 41.612613 -18.364431 
L 42.120393 -19.412347 
L 42.628174 -20.60468 
L 43.135954 -21.943156 
L 43.643735 -23.407723 
L 44.151515 -24.963469 
L 44.659296 -26.572433 
L 45.167076 -28.205904 
L 45.674857 -29.851883 
L 46.182637 -31.514194 
L 46.690418 -33.203677 
L 47.198198 -34.92563 
L 47.705979 -36.669077 
L 48.213759 -38.402544 
L 48.72154 -40.078869 
L 49.22932 -41.648267 
L 49.737101 -43.074736 
L 50.244881 -44.347837 
L 50.752662 -45.482767 
L 51.260442 -46.507367 
L 51.768223 -47.442178 
L 52.276003 -48.284084 
L 52.783784 -49.002436 
L 53.291564 -49.549894 
L 53.799345 -49.882318 
L 54.307125 -49.977644 
L 54.814906 -49.845726 
L 55.322686 -49.528094 
L 55.830467 -49.092858 
L 56.338247 -48.629226 
L 56.846028 -48.239001 
L 57.353808 -48.017584 
L 57.861589 -48.023149 
L 58.369369 -48.246556 
L 58.87715 -48.602018 
L 59.38493 -48.948793 
L 59.892711 -49.133689 
L 60.400491 -49.031536 
L 60.908272 -48.566777 
L 61.416052 -47.716231 
L 61.923833 -46.503613 
L 62.431613 -44.992846 
L 62.939394 -43.277779 
L 63.447174 -41.463277 
L 63.954955 -39.63963 
L 64.462735 -37.860624 
L 64.970516 -36.136587 
L 65.478296 -34.44631 
L 65.986077 -32.76158 
L 66.493857 -31.07137 
L 67.001638 -29.393222 
L 67.509419 -27.76691 
L 68.017199 -26.235727 
L 68.52498 -24.826998 
L 69.03276 -23.541721 
L 69.540541 -22.355892 
L 70.048321 -21.2297 
L 70.556102 -20.11946 
L 71.063882 -18.989573 
L 71.571663 -17.82315 
L 72.079443 -16.628404 
L 72.587224 -15.436302 
L 73.095004 -14.287735 
L 73.602785 -13.215426 
L 74.110565 -12.23091 
L 74.618346 -11.324522 
L 75.126126 -10.477355 
L 75.633907 -9.67599 
L 76.141687 -8.920028 
L 76.649468 -8.218811 
L 77.157248 -7.581695 
L 77.665029 -7.009767 
L 78.172809 -6.494654 
L 78.68059 -6.024411 
L 79.18837 -5.591762 
L 79.696151 -5.198727 
L 80.203931 -4.854472 
L 80.711712 -4.567817 
L 81.219492 -4.339387 
L 81.219492 -2.470909 
L 81.219492 -2.470909 
L 80.711712 -2.470909 
L 80.203931 -2.470909 
L 79.696151 -2.470909 
L 79.18837 -2.470909 
L 78.68059 -2.470909 
L 78.172809 -2.470909 
L 77.665029 -2.470909 
L 77.157248 -2.470909 
L 76.649468 -2.470909 
L 76.141687 -2.470909 
L 75.633907 -2.470909 
L 75.126126 -2.470909 
L 74.618346 -2.470909 
L 74.110565 -2.470909 
L 73.602785 -2.470909 
L 73.095004 -2.470909 
L 72.587224 -2.470909 
L 72.079443 -2.470909 
L 71.571663 -2.470909 
L 71.063882 -2.470909 
L 70.556102 -2.470909 
L 70.048321 -2.470909 
L 69.540541 -2.470909 
L 69.03276 -2.470909 
L 68.52498 -2.470909 
L 68.017199 -2.470909 
L 67.509419 -2.470909 
L 67.001638 -2.470909 
L 66.493857 -2.470909 
L 65.986077 -2.470909 
L 65.478296 -2.470909 
L 64.970516 -2.470909 
L 64.462735 -2.470909 
L 63.954955 -2.470909 
L 63.447174 -2.470909 
L 62.939394 -2.470909 
L 62.431613 -2.470909 
L 61.923833 -2.470909 
L 61.416052 -2.470909 
L 60.908272 -2.470909 
L 60.400491 -2.470909 
L 59.892711 -2.470909 
L 59.38493 -2.470909 
L 58.87715 -2.470909 
L 58.369369 -2.470909 
L 57.861589 -2.470909 
L 57.353808 -2.470909 
L 56.846028 -2.470909 
L 56.338247 -2.470909 
L 55.830467 -2.470909 
L 55.322686 -2.470909 
L 54.814906 -2.470909 
L 54.307125 -2.470909 
L 53.799345 -2.470909 
L 53.291564 -2.470909 
L 52.783784 -2.470909 
L 52.276003 -2.470909 
L 51.768223 -2.470909 
L 51.260442 -2.470909 
L 50.752662 -2.470909 
L 50.244881 -2.470909 
L 49.737101 -2.470909 
L 49.22932 -2.470909 
L 48.72154 -2.470909 
L 48.213759 -2.470909 
L 47.705979 -2.470909 
L 47.198198 -2.470909 
L 46.690418 -2.470909 
L 46.182637 -2.470909 
L 45.674857 -2.470909 
L 45.167076 -2.470909 
L 44.659296 -2.470909 
L 44.151515 -2.470909 
L 43.643735 -2.470909 
L 43.135954 -2.470909 
L 42.628174 -2.470909 
L 42.120393 -2.470909 
L 41.612613 -2.470909 
L 41.104832 -2.470909 
L 40.597052 -2.470909 
L 40.089271 -2.470909 
L 39.581491 -2.470909 
L 39.07371 -2.470909 
L 38.56593 -2.470909 
L 38.058149 -2.470909 
L 37.550369 -2.470909 
L 37.042588 -2.470909 
L 36.534808 -2.470909 
L 36.027027 -2.470909 
L 35.519247 -2.470909 
L 35.011466 -2.470909 
L 34.503686 -2.470909 
L 33.995905 -2.470909 
L 33.488124 -2.470909 
L 32.980344 -2.470909 
L 32.472563 -2.470909 
L 31.964783 -2.470909 
L 31.457002 -2.470909 
L 30.949222 -2.470909 
z
" style="stroke: #8a8a8a; stroke-opacity: 0.2"/>
    </defs>
    <g clip-path="url(#p0971e4b94a)">
     <use xlink:href="#ma4c984e161" x="0" y="54.36" style="fill: #8a8a8a; fill-opacity: 0.2; stroke: #8a8a8a; stroke-opacity: 0.2"/>
    </g>
   </g>
   <g id="line2d_1">
    <path d="M 25.363636 2.716325 
L 25.871417 2.470909 
L 26.379197 3.010652 
L 26.886978 4.283509 
L 27.394758 6.200281 
L 28.410319 11.474116 
L 30.949222 26.700139 
L 31.964783 31.43209 
L 32.980344 34.894079 
L 33.995905 37.195413 
L 35.011466 38.59661 
L 36.027027 39.385885 
L 37.042588 39.804869 
L 38.56593 40.091679 
L 42.120393 40.366525 
L 53.799345 41.304054 
L 57.353808 42.029699 
L 68.017199 44.356262 
L 73.095004 45.146251 
L 77.157248 45.865027 
L 81.727273 46.931504 
L 86.297297 47.935654 
L 90.867322 48.653793 
L 97.976249 49.564506 
L 108.131859 50.552031 
L 120.826372 51.296255 
L 123.873055 51.42159 
L 123.873055 51.42159 
" clip-path="url(#p0971e4b94a)" style="fill: none; stroke: #cf1313; stroke-width: 1.5; stroke-linecap: square"/>
   </g>
   <g id="line2d_2">
    <path d="M 404.167895 50.362813 
L 409.2457 49.489741 
L 413.307944 48.605987 
L 416.354627 47.745198 
L 419.40131 46.627723 
L 422.955774 45.031585 
L 436.158067 38.623303 
L 438.69697 36.986228 
L 441.743653 34.734284 
L 453.930385 25.218942 
L 457.484848 22.408053 
L 460.023751 20.683968 
L 463.070434 18.926917 
L 468.148239 16.276963 
L 470.687142 15.162572 
L 472.718264 14.479615 
L 475.257166 13.887239 
L 477.796069 13.537696 
L 479.827191 13.452333 
L 481.350532 13.555091 
L 482.873874 13.850849 
L 484.397215 14.366384 
L 485.920557 15.090922 
L 488.459459 16.607403 
L 492.013923 18.756302 
L 494.552826 19.999539 
L 499.630631 22.295344 
L 502.169533 23.784556 
L 505.216216 25.872441 
L 509.786241 29.301343 
L 514.864046 33.164153 
L 517.402948 34.8002 
L 519.941851 36.167333 
L 521.972973 37.019442 
L 523.496314 37.420886 
L 525.019656 37.529744 
L 526.542998 37.334918 
L 529.589681 36.743829 
L 530.605242 36.855228 
L 531.620803 37.29408 
L 532.636364 38.11466 
L 532.636364 38.11466 
" clip-path="url(#p0971e4b94a)" style="fill: none; stroke: #116dc2; stroke-width: 1.5; stroke-linecap: square"/>
   </g>
   <g id="line2d_3">
    <path d="M 30.949222 49.906253 
L 31.457002 49.626191 
L 31.964783 49.320916 
L 32.472563 48.975997 
L 32.980344 48.57965 
L 33.488124 48.127188 
L 33.995905 47.620859 
L 34.503686 47.065846 
L 35.011466 46.465586 
L 35.519247 45.819543 
L 36.027027 45.124522 
L 36.534808 44.378333 
L 37.042588 43.583647 
L 37.550369 42.75021 
L 38.058149 41.894397 
L 38.56593 41.035948 
L 39.07371 40.192431 
L 39.581491 39.372745 
L 40.089271 38.571561 
L 40.597052 37.766881 
L 41.104832 36.922489 
L 41.612613 35.995569 
L 42.120393 34.947653 
L 42.628174 33.75532 
L 43.135954 32.416844 
L 43.643735 30.952277 
L 44.151515 29.396531 
L 44.659296 27.787567 
L 45.167076 26.154096 
L 45.674857 24.508117 
L 46.182637 22.845806 
L 46.690418 21.156323 
L 47.198198 19.43437 
L 47.705979 17.690923 
L 48.213759 15.957456 
L 48.72154 14.281131 
L 49.22932 12.711733 
L 49.737101 11.285264 
L 50.244881 10.012163 
L 50.752662 8.877233 
L 51.260442 7.852633 
L 51.768223 6.917822 
L 52.276003 6.075916 
L 52.783784 5.357564 
L 53.291564 4.810106 
L 53.799345 4.477682 
L 54.307125 4.382356 
L 54.814906 4.514274 
L 55.322686 4.831906 
L 55.830467 5.267142 
L 56.338247 5.730774 
L 56.846028 6.120999 
L 57.353808 6.342416 
L 57.861589 6.336851 
L 58.369369 6.113444 
L 58.87715 5.757982 
L 59.38493 5.411207 
L 59.892711 5.226311 
L 60.400491 5.328464 
L 60.908272 5.793223 
L 61.416052 6.643769 
L 61.923833 7.856387 
L 62.431613 9.367154 
L 62.939394 11.082221 
L 63.447174 12.896723 
L 63.954955 14.72037 
L 64.462735 16.499376 
L 64.970516 18.223413 
L 65.478296 19.91369 
L 65.986077 21.59842 
L 66.493857 23.28863 
L 67.001638 24.966778 
L 67.509419 26.59309 
L 68.017199 28.124273 
L 68.52498 29.533002 
L 69.03276 30.818279 
L 69.540541 32.004108 
L 70.048321 33.1303 
L 70.556102 34.24054 
L 71.063882 35.370427 
L 71.571663 36.53685 
L 72.079443 37.731596 
L 72.587224 38.923698 
L 73.095004 40.072265 
L 73.602785 41.144574 
L 74.110565 42.12909 
L 74.618346 43.035478 
L 75.126126 43.882645 
L 75.633907 44.68401 
L 76.141687 45.439972 
L 76.649468 46.141189 
L 77.157248 46.778305 
L 77.665029 47.350233 
L 78.172809 47.865346 
L 78.68059 48.335589 
L 79.18837 48.768238 
L 79.696151 49.161273 
L 80.203931 49.505528 
L 80.711712 49.792183 
L 81.219492 50.020613 
" clip-path="url(#p0971e4b94a)" style="fill: none; stroke: #8a8a8a; stroke-width: 1.5; stroke-linecap: square"/>
   </g>
  </g>
 </g>
 <defs>
  <clipPath id="p0971e4b94a">
   <rect x="0" y="-0" width="558" height="54.36"/>
  </clipPath>
 </defs>
</svg>
