<?xml version="1.0" encoding="utf-8" standalone="no"?>
<!DOCTYPE svg PUBLIC "-//W3C//DTD SVG 1.1//EN"
  "http://www.w3.org/Graphics/SVG/1.1/DTD/svg11.dtd">
<svg xmlns:xlink="http://www.w3.org/1999/xlink" width="558pt" height="54.36pt" viewBox="0 0 558 54.36" xmlns="http://www.w3.org/2000/svg" version="1.1">
 <metadata>
  <rdf:RDF xmlns:dc="http://purl.org/dc/elements/1.1/" xmlns:cc="http://creativecommons.org/ns#" xmlns:rdf="http://www.w3.org/1999/02/22-rdf-syntax-ns#">
   <cc:Work>
    <dc:type rdf:resource="http://purl.org/dc/dcmitype/StillImage"/>
    <dc:date>2024-09-15T09:31:49.572607</dc:date>
    <dc:format>image/svg+xml</dc:format>
    <dc:creator>
     <cc:Agent>
      <dc:title>Matplotlib v3.5.2, https://matplotlib.org/</dc:title>
     </cc:Agent>
    </dc:creator>
   </cc:Work>
  </rdf:RDF>
 </metadata>
 <defs>
  <style type="text/css">*{stroke-linejoin: round; stroke-linecap: butt}</style>
 </defs>
 <g id="figure_1">
  <g id="patch_1">
   <path d="M 0 54.36 
L 558 54.36 
L 558 0 
L 0 0 
L 0 54.36 
z
" style="fill: none; opacity: 0"/>
  </g>
  <g id="axes_1">
   <g id="PolyCollection_1">
    <defs>
     <path id="m12c415de9a" d="M 217.910754 -2.470909 
L 217.910754 -3.765149 
L 218.684035 -3.842313 
L 219.457317 -3.923343 
L 220.230599 -4.009082 
L 221.00388 -4.100352 
L 221.777162 -4.197876 
L 222.550443 -4.302222 
L 223.323725 -4.413778 
L 224.097007 -4.532752 
L 224.870288 -4.659207 
L 225.64357 -4.793107 
L 226.416851 -4.934373 
L 227.190133 -5.082923 
L 227.963415 -5.238703 
L 228.736696 -5.401684 
L 229.509978 -5.571833 
L 230.283259 -5.749072 
L 231.056541 -5.933219 
L 231.829823 -6.123947 
L 232.603104 -6.320766 
L 233.376386 -6.523046 
L 234.149667 -6.730077 
L 234.922949 -6.941177 
L 235.696231 -7.155813 
L 236.469512 -7.37373 
L 237.242794 -7.595049 
L 238.016075 -7.820312 
L 238.789357 -8.050467 
L 239.562639 -8.286774 
L 240.33592 -8.53066 
L 241.109202 -8.783534 
L 241.882483 -9.046598 
L 242.655765 -9.320689 
L 243.429047 -9.606173 
L 244.202328 -9.902922 
L 244.97561 -10.210349 
L 245.748891 -10.527528 
L 246.522173 -10.85334 
L 247.295455 -11.186658 
L 248.068736 -11.526513 
L 248.842018 -11.87225 
L 249.615299 -12.223647 
L 250.388581 -12.580986 
L 251.161863 -12.945092 
L 251.935144 -13.317313 
L 252.708426 -13.699463 
L 253.481707 -14.093708 
L 254.254989 -14.502415 
L 255.028271 -14.927953 
L 255.801552 -15.372473 
L 256.574834 -15.83767 
L 257.348115 -16.324578 
L 258.121397 -16.833392 
L 258.894678 -17.363369 
L 259.66796 -17.91281 
L 260.441242 -18.479135 
L 261.214523 -19.059052 
L 261.987805 -19.648791 
L 262.761086 -20.244394 
L 263.534368 -20.842025 
L 264.30765 -21.438263 
L 265.080931 -22.030351 
L 265.854213 -22.616369 
L 266.627494 -23.195319 
L 267.400776 -23.767098 
L 268.174058 -24.33237 
L 268.947339 -24.892345 
L 269.720621 -25.448494 
L 270.493902 -26.002236 
L 271.267184 -26.554631 
L 272.040466 -27.106135 
L 272.813747 -27.656429 
L 273.587029 -28.204378 
L 274.36031 -28.748098 
L 275.133592 -29.285138 
L 275.906874 -29.812747 
L 276.680155 -30.328185 
L 277.453437 -30.829023 
L 278.226718 -31.313396 
L 279 -31.78016 
L 279.773282 -32.228937 
L 280.546563 -32.660037 
L 281.319845 -33.074294 
L 282.093126 -33.472832 
L 282.866408 -33.856831 
L 283.63969 -34.227326 
L 284.412971 -34.585078 
L 285.186253 -34.930533 
L 285.959534 -35.263865 
L 286.732816 -35.585065 
L 287.506098 -35.894045 
L 288.279379 -36.190708 
L 289.052661 -36.47496 
L 289.825942 -36.746656 
L 290.599224 -37.005489 
L 291.372506 -37.250872 
L 292.145787 -37.481847 
L 292.919069 -37.697067 
L 293.69235 -37.894884 
L 294.465632 -38.073536 
L 295.238914 -38.2314 
L 296.012195 -38.367274 
L 296.785477 -38.480609 
L 297.558758 -38.571647 
L 298.33204 -38.641425 
L 299.105322 -38.69164 
L 299.878603 -38.724395 
L 300.651885 -38.741891 
L 301.425166 -38.746117 
L 302.198448 -38.738615 
L 302.971729 -38.720349 
L 303.745011 -38.691716 
L 304.518293 -38.652663 
L 305.291574 -38.602892 
L 306.064856 -38.542075 
L 306.838137 -38.470045 
L 307.611419 -38.386892 
L 308.384701 -38.292958 
L 309.157982 -38.188722 
L 309.931264 -38.0746 
L 310.704545 -37.950705 
L 311.477827 -37.816608 
L 312.251109 -37.671157 
L 313.02439 -37.512378 
L 313.797672 -37.337497 
L 314.570953 -37.143067 
L 315.344235 -36.9252 
L 316.117517 -36.679872 
L 316.890798 -36.403267 
L 317.66408 -36.092121 
L 318.437361 -35.744021 
L 319.210643 -35.357628 
L 319.983925 -34.932796 
L 320.757206 -34.470569 
L 321.530488 -33.973064 
L 322.303769 -33.443243 
L 323.077051 -32.884614 
L 323.850333 -32.300902 
L 324.623614 -31.695734 
L 325.396896 -31.072401 
L 326.170177 -30.433724 
L 326.943459 -29.782053 
L 327.716741 -29.119393 
L 328.490022 -28.447641 
L 329.263304 -27.768871 
L 330.036585 -27.085609 
L 330.809867 -26.401047 
L 331.583149 -25.719126 
L 332.35643 -25.044464 
L 333.129712 -24.382131 
L 333.902993 -23.737307 
L 334.676275 -23.11485 
L 335.449557 -22.518861 
L 336.222838 -21.952303 
L 336.99612 -21.416721 
L 337.769401 -20.912097 
L 338.542683 -20.436854 
L 339.315965 -19.987996 
L 340.089246 -19.561355 
L 340.862528 -19.151924 
L 341.635809 -18.754225 
L 342.409091 -18.362699 
L 343.182373 -17.972082 
L 343.955654 -17.57775 
L 344.728936 -17.176012 
L 345.502217 -16.76434 
L 346.275499 -16.341513 
L 347.04878 -15.907666 
L 347.822062 -15.464239 
L 348.595344 -15.013819 
L 349.368625 -14.559892 
L 350.141907 -14.106508 
L 350.915188 -13.657918 
L 351.68847 -13.21818 
L 352.461752 -12.790804 
L 353.235033 -12.378457 
L 354.008315 -11.982763 
L 354.781596 -11.604228 
L 355.554878 -11.242285 
L 356.32816 -10.895468 
L 357.101441 -10.561684 
L 357.874723 -10.238547 
L 358.648004 -9.92373 
L 359.421286 -9.615287 
L 360.194568 -9.311886 
L 360.967849 -9.012945 
L 361.741131 -8.718629 
L 362.514412 -8.429736 
L 363.287694 -8.147481 
L 364.060976 -7.873238 
L 364.834257 -7.608279 
L 365.607539 -7.353559 
L 366.38082 -7.109587 
L 367.154102 -6.876394 
L 367.927384 -6.653602 
L 368.700665 -6.440565 
L 369.473947 -6.236548 
L 370.247228 -6.0409 
L 371.02051 -5.853189 
L 371.793792 -5.673268 
L 372.567073 -5.501267 
L 373.340355 -5.337509 
L 374.113636 -5.182399 
L 374.886918 -5.036276 
L 375.6602 -4.899299 
L 376.433481 -4.771363 
L 377.206763 -4.652078 
L 377.980044 -4.540793 
L 378.753326 -4.436674 
L 379.526608 -4.3388 
L 380.299889 -4.24627 
L 381.073171 -4.158286 
L 381.846452 -4.074208 
L 382.619734 -3.993577 
L 382.619734 -2.470909 
L 382.619734 -2.470909 
L 381.846452 -2.470909 
L 381.073171 -2.470909 
L 380.299889 -2.470909 
L 379.526608 -2.470909 
L 378.753326 -2.470909 
L 377.980044 -2.470909 
L 377.206763 -2.470909 
L 376.433481 -2.470909 
L 375.6602 -2.470909 
L 374.886918 -2.470909 
L 374.113636 -2.470909 
L 373.340355 -2.470909 
L 372.567073 -2.470909 
L 371.793792 -2.470909 
L 371.02051 -2.470909 
L 370.247228 -2.470909 
L 369.473947 -2.470909 
L 368.700665 -2.470909 
L 367.927384 -2.470909 
L 367.154102 -2.470909 
L 366.38082 -2.470909 
L 365.607539 -2.470909 
L 364.834257 -2.470909 
L 364.060976 -2.470909 
L 363.287694 -2.470909 
L 362.514412 -2.470909 
L 361.741131 -2.470909 
L 360.967849 -2.470909 
L 360.194568 -2.470909 
L 359.421286 -2.470909 
L 358.648004 -2.470909 
L 357.874723 -2.470909 
L 357.101441 -2.470909 
L 356.32816 -2.470909 
L 355.554878 -2.470909 
L 354.781596 -2.470909 
L 354.008315 -2.470909 
L 353.235033 -2.470909 
L 352.461752 -2.470909 
L 351.68847 -2.470909 
L 350.915188 -2.470909 
L 350.141907 -2.470909 
L 349.368625 -2.470909 
L 348.595344 -2.470909 
L 347.822062 -2.470909 
L 347.04878 -2.470909 
L 346.275499 -2.470909 
L 345.502217 -2.470909 
L 344.728936 -2.470909 
L 343.955654 -2.470909 
L 343.182373 -2.470909 
L 342.409091 -2.470909 
L 341.635809 -2.470909 
L 340.862528 -2.470909 
L 340.089246 -2.470909 
L 339.315965 -2.470909 
L 338.542683 -2.470909 
L 337.769401 -2.470909 
L 336.99612 -2.470909 
L 336.222838 -2.470909 
L 335.449557 -2.470909 
L 334.676275 -2.470909 
L 333.902993 -2.470909 
L 333.129712 -2.470909 
L 332.35643 -2.470909 
L 331.583149 -2.470909 
L 330.809867 -2.470909 
L 330.036585 -2.470909 
L 329.263304 -2.470909 
L 328.490022 -2.470909 
L 327.716741 -2.470909 
L 326.943459 -2.470909 
L 326.170177 -2.470909 
L 325.396896 -2.470909 
L 324.623614 -2.470909 
L 323.850333 -2.470909 
L 323.077051 -2.470909 
L 322.303769 -2.470909 
L 321.530488 -2.470909 
L 320.757206 -2.470909 
L 319.983925 -2.470909 
L 319.210643 -2.470909 
L 318.437361 -2.470909 
L 317.66408 -2.470909 
L 316.890798 -2.470909 
L 316.117517 -2.470909 
L 315.344235 -2.470909 
L 314.570953 -2.470909 
L 313.797672 -2.470909 
L 313.02439 -2.470909 
L 312.251109 -2.470909 
L 311.477827 -2.470909 
L 310.704545 -2.470909 
L 309.931264 -2.470909 
L 309.157982 -2.470909 
L 308.384701 -2.470909 
L 307.611419 -2.470909 
L 306.838137 -2.470909 
L 306.064856 -2.470909 
L 305.291574 -2.470909 
L 304.518293 -2.470909 
L 303.745011 -2.470909 
L 302.971729 -2.470909 
L 302.198448 -2.470909 
L 301.425166 -2.470909 
L 300.651885 -2.470909 
L 299.878603 -2.470909 
L 299.105322 -2.470909 
L 298.33204 -2.470909 
L 297.558758 -2.470909 
L 296.785477 -2.470909 
L 296.012195 -2.470909 
L 295.238914 -2.470909 
L 294.465632 -2.470909 
L 293.69235 -2.470909 
L 292.919069 -2.470909 
L 292.145787 -2.470909 
L 291.372506 -2.470909 
L 290.599224 -2.470909 
L 289.825942 -2.470909 
L 289.052661 -2.470909 
L 288.279379 -2.470909 
L 287.506098 -2.470909 
L 286.732816 -2.470909 
L 285.959534 -2.470909 
L 285.186253 -2.470909 
L 284.412971 -2.470909 
L 283.63969 -2.470909 
L 282.866408 -2.470909 
L 282.093126 -2.470909 
L 281.319845 -2.470909 
L 280.546563 -2.470909 
L 279.773282 -2.470909 
L 279 -2.470909 
L 278.226718 -2.470909 
L 277.453437 -2.470909 
L 276.680155 -2.470909 
L 275.906874 -2.470909 
L 275.133592 -2.470909 
L 274.36031 -2.470909 
L 273.587029 -2.470909 
L 272.813747 -2.470909 
L 272.040466 -2.470909 
L 271.267184 -2.470909 
L 270.493902 -2.470909 
L 269.720621 -2.470909 
L 268.947339 -2.470909 
L 268.174058 -2.470909 
L 267.400776 -2.470909 
L 266.627494 -2.470909 
L 265.854213 -2.470909 
L 265.080931 -2.470909 
L 264.30765 -2.470909 
L 263.534368 -2.470909 
L 262.761086 -2.470909 
L 261.987805 -2.470909 
L 261.214523 -2.470909 
L 260.441242 -2.470909 
L 259.66796 -2.470909 
L 258.894678 -2.470909 
L 258.121397 -2.470909 
L 257.348115 -2.470909 
L 256.574834 -2.470909 
L 255.801552 -2.470909 
L 255.028271 -2.470909 
L 254.254989 -2.470909 
L 253.481707 -2.470909 
L 252.708426 -2.470909 
L 251.935144 -2.470909 
L 251.161863 -2.470909 
L 250.388581 -2.470909 
L 249.615299 -2.470909 
L 248.842018 -2.470909 
L 248.068736 -2.470909 
L 247.295455 -2.470909 
L 246.522173 -2.470909 
L 245.748891 -2.470909 
L 244.97561 -2.470909 
L 244.202328 -2.470909 
L 243.429047 -2.470909 
L 242.655765 -2.470909 
L 241.882483 -2.470909 
L 241.109202 -2.470909 
L 240.33592 -2.470909 
L 239.562639 -2.470909 
L 238.789357 -2.470909 
L 238.016075 -2.470909 
L 237.242794 -2.470909 
L 236.469512 -2.470909 
L 235.696231 -2.470909 
L 234.922949 -2.470909 
L 234.149667 -2.470909 
L 233.376386 -2.470909 
L 232.603104 -2.470909 
L 231.829823 -2.470909 
L 231.056541 -2.470909 
L 230.283259 -2.470909 
L 229.509978 -2.470909 
L 228.736696 -2.470909 
L 227.963415 -2.470909 
L 227.190133 -2.470909 
L 226.416851 -2.470909 
L 225.64357 -2.470909 
L 224.870288 -2.470909 
L 224.097007 -2.470909 
L 223.323725 -2.470909 
L 222.550443 -2.470909 
L 221.777162 -2.470909 
L 221.00388 -2.470909 
L 220.230599 -2.470909 
L 219.457317 -2.470909 
L 218.684035 -2.470909 
L 217.910754 -2.470909 
z
" style="stroke: #cf1313; stroke-opacity: 0.2"/>
    </defs>
    <g clip-path="url(#p7ba2bd6df2)">
     <use xlink:href="#m12c415de9a" x="0" y="54.36" style="fill: #cf1313; fill-opacity: 0.2; stroke: #cf1313; stroke-opacity: 0.2"/>
    </g>
   </g>
   <g id="PolyCollection_2">
    <defs>
     <path id="ma23c4c439a" d="M 355.554878 -2.470909 
L 355.554878 -3.864962 
L 356.32816 -3.941879 
L 357.101441 -4.022459 
L 357.874723 -4.107055 
L 358.648004 -4.196044 
L 359.421286 -4.289791 
L 360.194568 -4.388629 
L 360.967849 -4.492833 
L 361.741131 -4.602612 
L 362.514412 -4.7181 
L 363.287694 -4.839364 
L 364.060976 -4.966416 
L 364.834257 -5.099227 
L 365.607539 -5.237753 
L 366.38082 -5.381957 
L 367.154102 -5.53183 
L 367.927384 -5.687411 
L 368.700665 -5.848804 
L 369.473947 -6.016187 
L 370.247228 -6.189814 
L 371.02051 -6.370012 
L 371.793792 -6.557177 
L 372.567073 -6.751753 
L 373.340355 -6.954229 
L 374.113636 -7.165117 
L 374.886918 -7.384941 
L 375.6602 -7.614233 
L 376.433481 -7.853525 
L 377.206763 -8.103342 
L 377.980044 -8.364207 
L 378.753326 -8.636627 
L 379.526608 -8.921093 
L 380.299889 -9.218053 
L 381.073171 -9.527883 
L 381.846452 -9.85084 
L 382.619734 -10.187 
L 383.393016 -10.536188 
L 384.166297 -10.897892 
L 384.939579 -11.271191 
L 385.71286 -11.654693 
L 386.486142 -12.046504 
L 387.259424 -12.444246 
L 388.032705 -12.84512 
L 388.805987 -13.246036 
L 389.579268 -13.643795 
L 390.35255 -14.03532 
L 391.125831 -14.417907 
L 391.899113 -14.789482 
L 392.672395 -15.148829 
L 393.445676 -15.495757 
L 394.218958 -15.831198 
L 394.992239 -16.157201 
L 395.765521 -16.476826 
L 396.538803 -16.793948 
L 397.312084 -17.112977 
L 398.085366 -17.43853 
L 398.858647 -17.775083 
L 399.631929 -18.126641 
L 400.405211 -18.49645 
L 401.178492 -18.886795 
L 401.951774 -19.298883 
L 402.725055 -19.732824 
L 403.498337 -20.187707 
L 404.271619 -20.661748 
L 405.0449 -21.152483 
L 405.818182 -21.656991 
L 406.591463 -22.172108 
L 407.364745 -22.694614 
L 408.138027 -23.221387 
L 408.911308 -23.749508 
L 409.68459 -24.276322 
L 410.457871 -24.799472 
L 411.231153 -25.3169 
L 412.004435 -25.826839 
L 412.777716 -26.3278 
L 413.550998 -26.818555 
L 414.324279 -27.298133 
L 415.097561 -27.765814 
L 415.870843 -28.221135 
L 416.644124 -28.663889 
L 417.417406 -29.094141 
L 418.190687 -29.512224 
L 418.963969 -29.918742 
L 419.737251 -30.314557 
L 420.510532 -30.700762 
L 421.283814 -31.07863 
L 422.057095 -31.449561 
L 422.830377 -31.814993 
L 423.603659 -32.17632 
L 424.37694 -32.5348 
L 425.150222 -32.891473 
L 425.923503 -33.247092 
L 426.696785 -33.602076 
L 427.470067 -33.956471 
L 428.243348 -34.309941 
L 429.01663 -34.661752 
L 429.789911 -35.010774 
L 430.563193 -35.355469 
L 431.336475 -35.693896 
L 432.109756 -36.02371 
L 432.883038 -36.342192 
L 433.656319 -36.6463 
L 434.429601 -36.932755 
L 435.202882 -37.198179 
L 435.976164 -37.439256 
L 436.749446 -37.652927 
L 437.522727 -37.836574 
L 438.296009 -37.988195 
L 439.06929 -38.10653 
L 439.842572 -38.191122 
L 440.615854 -38.242314 
L 441.389135 -38.261176 
L 442.162417 -38.249388 
L 442.935698 -38.209091 
L 443.70898 -38.142741 
L 444.482262 -38.052986 
L 445.255543 -37.942584 
L 446.028825 -37.814367 
L 446.802106 -37.671239 
L 447.575388 -37.516193 
L 448.34867 -37.352309 
L 449.121951 -37.182722 
L 449.895233 -37.010523 
L 450.668514 -36.838594 
L 451.441796 -36.669385 
L 452.215078 -36.504655 
L 452.988359 -36.345215 
L 453.761641 -36.190722 
L 454.534922 -36.039556 
L 455.308204 -35.888825 
L 456.081486 -35.734505 
L 456.854767 -35.571724 
L 457.628049 -35.395147 
L 458.40133 -35.199447 
L 459.174612 -34.979789 
L 459.947894 -34.732291 
L 460.721175 -34.454392 
L 461.494457 -34.145113 
L 462.267738 -33.805157 
L 463.04102 -33.436862 
L 463.814302 -33.044009 
L 464.587583 -32.631499 
L 465.360865 -32.204951 
L 466.134146 -31.770235 
L 466.907428 -31.333014 
L 467.68071 -30.8983 
L 468.453991 -30.470086 
L 469.227273 -30.051067 
L 470.000554 -29.642466 
L 470.773836 -29.243989 
L 471.547118 -28.853898 
L 472.320399 -28.469187 
L 473.093681 -28.085867 
L 473.866962 -27.69932 
L 474.640244 -27.304694 
L 475.413525 -26.897326 
L 476.186807 -26.473141 
L 476.960089 -26.02901 
L 477.73337 -25.56304 
L 478.506652 -25.074764 
L 479.279933 -24.56523 
L 480.053215 -24.036972 
L 480.826497 -23.493864 
L 481.599778 -22.940869 
L 482.37306 -22.383698 
L 483.146341 -21.828406 
L 483.919623 -21.280954 
L 484.692905 -20.746769 
L 485.466186 -20.230359 
L 486.239468 -19.734994 
L 487.012749 -19.262512 
L 487.786031 -18.813253 
L 488.559313 -18.386141 
L 489.332594 -17.978894 
L 490.105876 -17.588356 
L 490.879157 -17.210891 
L 491.652439 -16.842797 
L 492.425721 -16.480693 
L 493.199002 -16.121824 
L 493.972284 -15.764251 
L 494.745565 -15.406909 
L 495.518847 -15.049537 
L 496.292129 -14.6925 
L 497.06541 -14.336545 
L 497.838692 -13.982529 
L 498.611973 -13.631174 
L 499.385255 -13.282882 
L 500.158537 -12.937631 
L 500.931818 -12.594974 
L 501.7051 -12.254116 
L 502.478381 -11.914067 
L 503.251663 -11.573821 
L 504.024945 -11.232545 
L 504.798226 -10.889743 
L 505.571508 -10.54537 
L 506.344789 -10.199888 
L 507.118071 -9.854265 
L 507.891353 -9.509912 
L 508.664634 -9.16859 
L 509.437916 -8.832283 
L 510.211197 -8.503075 
L 510.984479 -8.183023 
L 511.757761 -7.87405 
L 512.531042 -7.577858 
L 513.304324 -7.295864 
L 514.077605 -7.029152 
L 514.850887 -6.778445 
L 515.624169 -6.544092 
L 516.39745 -6.32607 
L 517.170732 -6.123992 
L 517.944013 -5.93714 
L 518.717295 -5.764504 
L 519.490576 -5.604848 
L 520.263858 -5.456779 
L 521.03714 -5.318834 
L 521.810421 -5.189572 
L 522.583703 -5.067655 
L 523.356984 -4.951921 
L 524.130266 -4.841428 
L 524.903548 -4.735481 
L 525.676829 -4.633614 
L 526.450111 -4.53556 
L 527.223392 -4.441192 
L 527.996674 -4.350455 
L 528.769956 -4.263303 
L 529.543237 -4.179646 
L 530.316519 -4.099322 
L 531.0898 -4.022086 
L 531.863082 -3.947629 
L 532.636364 -3.875616 
L 532.636364 -2.470909 
L 532.636364 -2.470909 
L 531.863082 -2.470909 
L 531.0898 -2.470909 
L 530.316519 -2.470909 
L 529.543237 -2.470909 
L 528.769956 -2.470909 
L 527.996674 -2.470909 
L 527.223392 -2.470909 
L 526.450111 -2.470909 
L 525.676829 -2.470909 
L 524.903548 -2.470909 
L 524.130266 -2.470909 
L 523.356984 -2.470909 
L 522.583703 -2.470909 
L 521.810421 -2.470909 
L 521.03714 -2.470909 
L 520.263858 -2.470909 
L 519.490576 -2.470909 
L 518.717295 -2.470909 
L 517.944013 -2.470909 
L 517.170732 -2.470909 
L 516.39745 -2.470909 
L 515.624169 -2.470909 
L 514.850887 -2.470909 
L 514.077605 -2.470909 
L 513.304324 -2.470909 
L 512.531042 -2.470909 
L 511.757761 -2.470909 
L 510.984479 -2.470909 
L 510.211197 -2.470909 
L 509.437916 -2.470909 
L 508.664634 -2.470909 
L 507.891353 -2.470909 
L 507.118071 -2.470909 
L 506.344789 -2.470909 
L 505.571508 -2.470909 
L 504.798226 -2.470909 
L 504.024945 -2.470909 
L 503.251663 -2.470909 
L 502.478381 -2.470909 
L 501.7051 -2.470909 
L 500.931818 -2.470909 
L 500.158537 -2.470909 
L 499.385255 -2.470909 
L 498.611973 -2.470909 
L 497.838692 -2.470909 
L 497.06541 -2.470909 
L 496.292129 -2.470909 
L 495.518847 -2.470909 
L 494.745565 -2.470909 
L 493.972284 -2.470909 
L 493.199002 -2.470909 
L 492.425721 -2.470909 
L 491.652439 -2.470909 
L 490.879157 -2.470909 
L 490.105876 -2.470909 
L 489.332594 -2.470909 
L 488.559313 -2.470909 
L 487.786031 -2.470909 
L 487.012749 -2.470909 
L 486.239468 -2.470909 
L 485.466186 -2.470909 
L 484.692905 -2.470909 
L 483.919623 -2.470909 
L 483.146341 -2.470909 
L 482.37306 -2.470909 
L 481.599778 -2.470909 
L 480.826497 -2.470909 
L 480.053215 -2.470909 
L 479.279933 -2.470909 
L 478.506652 -2.470909 
L 477.73337 -2.470909 
L 476.960089 -2.470909 
L 476.186807 -2.470909 
L 475.413525 -2.470909 
L 474.640244 -2.470909 
L 473.866962 -2.470909 
L 473.093681 -2.470909 
L 472.320399 -2.470909 
L 471.547118 -2.470909 
L 470.773836 -2.470909 
L 470.000554 -2.470909 
L 469.227273 -2.470909 
L 468.453991 -2.470909 
L 467.68071 -2.470909 
L 466.907428 -2.470909 
L 466.134146 -2.470909 
L 465.360865 -2.470909 
L 464.587583 -2.470909 
L 463.814302 -2.470909 
L 463.04102 -2.470909 
L 462.267738 -2.470909 
L 461.494457 -2.470909 
L 460.721175 -2.470909 
L 459.947894 -2.470909 
L 459.174612 -2.470909 
L 458.40133 -2.470909 
L 457.628049 -2.470909 
L 456.854767 -2.470909 
L 456.081486 -2.470909 
L 455.308204 -2.470909 
L 454.534922 -2.470909 
L 453.761641 -2.470909 
L 452.988359 -2.470909 
L 452.215078 -2.470909 
L 451.441796 -2.470909 
L 450.668514 -2.470909 
L 449.895233 -2.470909 
L 449.121951 -2.470909 
L 448.34867 -2.470909 
L 447.575388 -2.470909 
L 446.802106 -2.470909 
L 446.028825 -2.470909 
L 445.255543 -2.470909 
L 444.482262 -2.470909 
L 443.70898 -2.470909 
L 442.935698 -2.470909 
L 442.162417 -2.470909 
L 441.389135 -2.470909 
L 440.615854 -2.470909 
L 439.842572 -2.470909 
L 439.06929 -2.470909 
L 438.296009 -2.470909 
L 437.522727 -2.470909 
L 436.749446 -2.470909 
L 435.976164 -2.470909 
L 435.202882 -2.470909 
L 434.429601 -2.470909 
L 433.656319 -2.470909 
L 432.883038 -2.470909 
L 432.109756 -2.470909 
L 431.336475 -2.470909 
L 430.563193 -2.470909 
L 429.789911 -2.470909 
L 429.01663 -2.470909 
L 428.243348 -2.470909 
L 427.470067 -2.470909 
L 426.696785 -2.470909 
L 425.923503 -2.470909 
L 425.150222 -2.470909 
L 424.37694 -2.470909 
L 423.603659 -2.470909 
L 422.830377 -2.470909 
L 422.057095 -2.470909 
L 421.283814 -2.470909 
L 420.510532 -2.470909 
L 419.737251 -2.470909 
L 418.963969 -2.470909 
L 418.190687 -2.470909 
L 417.417406 -2.470909 
L 416.644124 -2.470909 
L 415.870843 -2.470909 
L 415.097561 -2.470909 
L 414.324279 -2.470909 
L 413.550998 -2.470909 
L 412.777716 -2.470909 
L 412.004435 -2.470909 
L 411.231153 -2.470909 
L 410.457871 -2.470909 
L 409.68459 -2.470909 
L 408.911308 -2.470909 
L 408.138027 -2.470909 
L 407.364745 -2.470909 
L 406.591463 -2.470909 
L 405.818182 -2.470909 
L 405.0449 -2.470909 
L 404.271619 -2.470909 
L 403.498337 -2.470909 
L 402.725055 -2.470909 
L 401.951774 -2.470909 
L 401.178492 -2.470909 
L 400.405211 -2.470909 
L 399.631929 -2.470909 
L 398.858647 -2.470909 
L 398.085366 -2.470909 
L 397.312084 -2.470909 
L 396.538803 -2.470909 
L 395.765521 -2.470909 
L 394.992239 -2.470909 
L 394.218958 -2.470909 
L 393.445676 -2.470909 
L 392.672395 -2.470909 
L 391.899113 -2.470909 
L 391.125831 -2.470909 
L 390.35255 -2.470909 
L 389.579268 -2.470909 
L 388.805987 -2.470909 
L 388.032705 -2.470909 
L 387.259424 -2.470909 
L 386.486142 -2.470909 
L 385.71286 -2.470909 
L 384.939579 -2.470909 
L 384.166297 -2.470909 
L 383.393016 -2.470909 
L 382.619734 -2.470909 
L 381.846452 -2.470909 
L 381.073171 -2.470909 
L 380.299889 -2.470909 
L 379.526608 -2.470909 
L 378.753326 -2.470909 
L 377.980044 -2.470909 
L 377.206763 -2.470909 
L 376.433481 -2.470909 
L 375.6602 -2.470909 
L 374.886918 -2.470909 
L 374.113636 -2.470909 
L 373.340355 -2.470909 
L 372.567073 -2.470909 
L 371.793792 -2.470909 
L 371.02051 -2.470909 
L 370.247228 -2.470909 
L 369.473947 -2.470909 
L 368.700665 -2.470909 
L 367.927384 -2.470909 
L 367.154102 -2.470909 
L 366.38082 -2.470909 
L 365.607539 -2.470909 
L 364.834257 -2.470909 
L 364.060976 -2.470909 
L 363.287694 -2.470909 
L 362.514412 -2.470909 
L 361.741131 -2.470909 
L 360.967849 -2.470909 
L 360.194568 -2.470909 
L 359.421286 -2.470909 
L 358.648004 -2.470909 
L 357.874723 -2.470909 
L 357.101441 -2.470909 
L 356.32816 -2.470909 
L 355.554878 -2.470909 
z
" style="stroke: #116dc2; stroke-opacity: 0.2"/>
    </defs>
    <g clip-path="url(#p7ba2bd6df2)">
     <use xlink:href="#ma23c4c439a" x="0" y="54.36" style="fill: #116dc2; fill-opacity: 0.2; stroke: #116dc2; stroke-opacity: 0.2"/>
    </g>
   </g>
   <g id="PolyCollection_3">
    <defs>
     <path id="m84f06f0d90" d="M 25.363636 -2.470909 
L 25.363636 -4.362122 
L 26.136918 -5.020934 
L 26.9102 -5.937806 
L 27.683481 -6.97038 
L 28.456763 -7.987105 
L 29.230044 -9.135976 
L 30.003326 -10.781136 
L 30.776608 -13.093056 
L 31.549889 -15.886618 
L 32.323171 -18.830537 
L 33.096452 -21.549137 
L 33.869734 -24.00733 
L 34.643016 -26.665329 
L 35.416297 -29.926887 
L 36.189579 -33.697688 
L 36.96286 -37.4502 
L 37.736142 -40.786299 
L 38.509424 -43.837013 
L 39.282705 -46.838435 
L 40.055987 -49.415009 
L 40.829268 -50.971661 
L 41.60255 -51.637301 
L 42.375831 -51.889091 
L 43.149113 -51.793066 
L 43.922395 -51.216655 
L 44.695676 -50.391196 
L 45.468958 -49.535169 
L 46.242239 -48.071 
L 47.015521 -45.281067 
L 47.788803 -41.478209 
L 48.562084 -37.680508 
L 49.335366 -34.214321 
L 50.108647 -30.608898 
L 50.881929 -26.889719 
L 51.655211 -23.500024 
L 52.428492 -20.464679 
L 53.201774 -17.641588 
L 53.975055 -15.073671 
L 54.748337 -12.8369 
L 55.521619 -10.905104 
L 56.2949 -9.316824 
L 57.068182 -8.121951 
L 57.841463 -7.183451 
L 58.614745 -6.288027 
L 59.388027 -5.36647 
L 60.161308 -4.56019 
L 60.161308 -2.470909 
L 60.161308 -2.470909 
L 59.388027 -2.470909 
L 58.614745 -2.470909 
L 57.841463 -2.470909 
L 57.068182 -2.470909 
L 56.2949 -2.470909 
L 55.521619 -2.470909 
L 54.748337 -2.470909 
L 53.975055 -2.470909 
L 53.201774 -2.470909 
L 52.428492 -2.470909 
L 51.655211 -2.470909 
L 50.881929 -2.470909 
L 50.108647 -2.470909 
L 49.335366 -2.470909 
L 48.562084 -2.470909 
L 47.788803 -2.470909 
L 47.015521 -2.470909 
L 46.242239 -2.470909 
L 45.468958 -2.470909 
L 44.695676 -2.470909 
L 43.922395 -2.470909 
L 43.149113 -2.470909 
L 42.375831 -2.470909 
L 41.60255 -2.470909 
L 40.829268 -2.470909 
L 40.055987 -2.470909 
L 39.282705 -2.470909 
L 38.509424 -2.470909 
L 37.736142 -2.470909 
L 36.96286 -2.470909 
L 36.189579 -2.470909 
L 35.416297 -2.470909 
L 34.643016 -2.470909 
L 33.869734 -2.470909 
L 33.096452 -2.470909 
L 32.323171 -2.470909 
L 31.549889 -2.470909 
L 30.776608 -2.470909 
L 30.003326 -2.470909 
L 29.230044 -2.470909 
L 28.456763 -2.470909 
L 27.683481 -2.470909 
L 26.9102 -2.470909 
L 26.136918 -2.470909 
L 25.363636 -2.470909 
z
" style="stroke: #8a8a8a; stroke-opacity: 0.2"/>
    </defs>
    <g clip-path="url(#p7ba2bd6df2)">
     <use xlink:href="#m84f06f0d90" x="0" y="54.36" style="fill: #8a8a8a; fill-opacity: 0.2; stroke: #8a8a8a; stroke-opacity: 0.2"/>
    </g>
   </g>
   <g id="line2d_1">
    <path d="M 217.910754 50.594851 
L 223.323725 49.946222 
L 227.963415 49.121297 
L 232.603104 48.039234 
L 238.789357 46.309533 
L 242.655765 45.039311 
L 246.522173 43.50666 
L 251.161863 41.414908 
L 255.028271 39.432047 
L 258.121397 37.526608 
L 261.214523 35.300948 
L 270.493902 28.357764 
L 276.680155 24.031815 
L 279.773282 22.131063 
L 282.866408 20.503169 
L 285.959534 19.096135 
L 289.052661 17.88504 
L 292.145787 16.878153 
L 295.238914 16.1286 
L 297.558758 15.788353 
L 300.651885 15.618109 
L 304.518293 15.707337 
L 308.384701 16.067042 
L 312.251109 16.688843 
L 315.344235 17.4348 
L 317.66408 18.267879 
L 319.983925 19.427204 
L 322.303769 20.916757 
L 325.396896 23.287599 
L 329.263304 26.591129 
L 334.676275 31.24515 
L 336.99612 32.943279 
L 339.315965 34.372004 
L 343.182373 36.387918 
L 347.04878 38.452334 
L 354.008315 42.377237 
L 357.101441 43.798316 
L 361.741131 45.641371 
L 365.607539 47.006441 
L 369.473947 48.123452 
L 373.340355 49.022491 
L 377.206763 49.707922 
L 381.846452 50.285792 
L 382.619734 50.366423 
L 382.619734 50.366423 
" clip-path="url(#p7ba2bd6df2)" style="fill: none; stroke: #cf1313; stroke-width: 1.5; stroke-linecap: square"/>
   </g>
   <g id="line2d_2">
    <path d="M 355.554878 50.495038 
L 360.967849 49.867167 
L 365.607539 49.122247 
L 370.247228 48.170186 
L 374.886918 46.975059 
L 378.753326 45.723373 
L 381.846452 44.50916 
L 384.939579 43.088809 
L 394.992239 38.202799 
L 400.405211 35.86355 
L 402.725055 34.627176 
L 405.818182 32.703009 
L 415.870843 26.138865 
L 419.737251 24.045443 
L 424.37694 21.8252 
L 432.883038 18.017808 
L 435.976164 16.920744 
L 438.296009 16.371805 
L 440.615854 16.117686 
L 442.935698 16.150909 
L 445.255543 16.417416 
L 448.34867 17.007691 
L 459.947894 19.627709 
L 462.267738 20.554843 
L 464.587583 21.728501 
L 472.320399 25.890813 
L 476.186807 27.886859 
L 478.506652 29.285236 
L 481.599778 31.419131 
L 485.466186 34.129641 
L 487.786031 35.546747 
L 490.879157 37.149109 
L 499.385255 41.077118 
L 511.757761 46.48595 
L 514.850887 47.581555 
L 517.944013 48.42286 
L 521.03714 49.041166 
L 525.676829 49.726386 
L 531.863082 50.412371 
L 532.636364 50.484384 
L 532.636364 50.484384 
" clip-path="url(#p7ba2bd6df2)" style="fill: none; stroke: #116dc2; stroke-width: 1.5; stroke-linecap: square"/>
   </g>
   <g id="line2d_3">
    <path d="M 25.363636 49.997878 
L 26.136918 49.339066 
L 26.9102 48.422194 
L 27.683481 47.38962 
L 28.456763 46.372895 
L 29.230044 45.224024 
L 30.003326 43.578864 
L 30.776608 41.266944 
L 31.549889 38.473382 
L 32.323171 35.529463 
L 33.096452 32.810863 
L 33.869734 30.35267 
L 34.643016 27.694671 
L 35.416297 24.433113 
L 36.189579 20.662312 
L 36.96286 16.9098 
L 37.736142 13.573701 
L 38.509424 10.522987 
L 39.282705 7.521565 
L 40.055987 4.944991 
L 40.829268 3.388339 
L 41.60255 2.722699 
L 42.375831 2.470909 
L 43.149113 2.566934 
L 43.922395 3.143345 
L 44.695676 3.968804 
L 45.468958 4.824831 
L 46.242239 6.289 
L 47.015521 9.078933 
L 47.788803 12.881791 
L 48.562084 16.679492 
L 49.335366 20.145679 
L 50.108647 23.751102 
L 50.881929 27.470281 
L 51.655211 30.859976 
L 52.428492 33.895321 
L 53.201774 36.718412 
L 53.975055 39.286329 
L 54.748337 41.5231 
L 55.521619 43.454896 
L 56.2949 45.043176 
L 57.068182 46.238049 
L 57.841463 47.176549 
L 58.614745 48.071973 
L 59.388027 48.99353 
L 60.161308 49.79981 
" clip-path="url(#p7ba2bd6df2)" style="fill: none; stroke: #8a8a8a; stroke-width: 1.5; stroke-linecap: square"/>
   </g>
  </g>
 </g>
 <defs>
  <clipPath id="p7ba2bd6df2">
   <rect x="0" y="-0" width="558" height="54.36"/>
  </clipPath>
 </defs>
</svg>
