<?xml version="1.0" encoding="utf-8" standalone="no"?>
<!DOCTYPE svg PUBLIC "-//W3C//DTD SVG 1.1//EN"
  "http://www.w3.org/Graphics/SVG/1.1/DTD/svg11.dtd">
<svg xmlns:xlink="http://www.w3.org/1999/xlink" width="558pt" height="54.36pt" viewBox="0 0 558 54.36" xmlns="http://www.w3.org/2000/svg" version="1.1">
 <metadata>
  <rdf:RDF xmlns:dc="http://purl.org/dc/elements/1.1/" xmlns:cc="http://creativecommons.org/ns#" xmlns:rdf="http://www.w3.org/1999/02/22-rdf-syntax-ns#">
   <cc:Work>
    <dc:type rdf:resource="http://purl.org/dc/dcmitype/StillImage"/>
    <dc:date>2024-09-14T12:47:27.456931</dc:date>
    <dc:format>image/svg+xml</dc:format>
    <dc:creator>
     <cc:Agent>
      <dc:title>Matplotlib v3.5.2, https://matplotlib.org/</dc:title>
     </cc:Agent>
    </dc:creator>
   </cc:Work>
  </rdf:RDF>
 </metadata>
 <defs>
  <style type="text/css">*{stroke-linejoin: round; stroke-linecap: butt}</style>
 </defs>
 <g id="figure_1">
  <g id="patch_1">
   <path d="M 0 54.36 
L 558 54.36 
L 558 0 
L 0 0 
L 0 54.36 
z
" style="fill: none; opacity: 0"/>
  </g>
  <g id="axes_1">
   <g id="PolyCollection_1">
    <defs>
     <path id="mf71a025645" d="M 218.573734 -2.470909 
L 218.573734 -4.038719 
L 219.343496 -4.109587 
L 220.113257 -4.180826 
L 220.883018 -4.253968 
L 221.65278 -4.330932 
L 222.422541 -4.413903 
L 223.192302 -4.505163 
L 223.962064 -4.606912 
L 224.731825 -4.721073 
L 225.501586 -4.84911 
L 226.271348 -4.991879 
L 227.041109 -5.149524 
L 227.81087 -5.321425 
L 228.580632 -5.506232 
L 229.350393 -5.701949 
L 230.120155 -5.906097 
L 230.889916 -6.115926 
L 231.659677 -6.328656 
L 232.429439 -6.541737 
L 233.1992 -6.753085 
L 233.968961 -6.961283 
L 234.738723 -7.165721 
L 235.508484 -7.36666 
L 236.278245 -7.565223 
L 237.048007 -7.763305 
L 237.817768 -7.963416 
L 238.587529 -8.168486 
L 239.357291 -8.381633 
L 240.127052 -8.605935 
L 240.896813 -8.844208 
L 241.666575 -9.098832 
L 242.436336 -9.371615 
L 243.206097 -9.663718 
L 243.975859 -9.975636 
L 244.74562 -10.307239 
L 245.515381 -10.65785 
L 246.285143 -11.026358 
L 247.054904 -11.411347 
L 247.824665 -11.811218 
L 248.594427 -12.224305 
L 249.364188 -12.648955 
L 250.13395 -13.083601 
L 250.903711 -13.526796 
L 251.673472 -13.977239 
L 252.443234 -14.433794 
L 253.212995 -14.895506 
L 253.982756 -15.36162 
L 254.752518 -15.831603 
L 255.522279 -16.305166 
L 256.29204 -16.782277 
L 257.061802 -17.263159 
L 257.831563 -17.748263 
L 258.601324 -18.238214 
L 259.371086 -18.73373 
L 260.140847 -19.235525 
L 260.910608 -19.744188 
L 261.68037 -20.260073 
L 262.450131 -20.783186 
L 263.219892 -21.313115 
L 263.989654 -21.848977 
L 264.759415 -22.389424 
L 265.529176 -22.932684 
L 266.298938 -23.476651 
L 267.068699 -24.019003 
L 267.83846 -24.557345 
L 268.608222 -25.089349 
L 269.377983 -25.612893 
L 270.147745 -26.126161 
L 270.917506 -26.627727 
L 271.687267 -27.116593 
L 272.457029 -27.592203 
L 273.22679 -28.054428 
L 273.996551 -28.503548 
L 274.766313 -28.940212 
L 275.536074 -29.365401 
L 276.305835 -29.780376 
L 277.075597 -30.186626 
L 277.845358 -30.585782 
L 278.615119 -30.979536 
L 279.384881 -31.369536 
L 280.154642 -31.757285 
L 280.924403 -32.14406 
L 281.694165 -32.530849 
L 282.463926 -32.91833 
L 283.233687 -33.306876 
L 284.003449 -33.696582 
L 284.77321 -34.087288 
L 285.542971 -34.478579 
L 286.312733 -34.869744 
L 287.082494 -35.259691 
L 287.852255 -35.646834 
L 288.622017 -36.028965 
L 289.391778 -36.403174 
L 290.16154 -36.765827 
L 290.931301 -37.112661 
L 291.701062 -37.438976 
L 292.470824 -37.739943 
L 293.240585 -38.010961 
L 294.010346 -38.24804 
L 294.780108 -38.448131 
L 295.549869 -38.609361 
L 296.31963 -38.731135 
L 297.089392 -38.814085 
L 297.859153 -38.859886 
L 298.628914 -38.870967 
L 299.398676 -38.850159 
L 300.168437 -38.800335 
L 300.938198 -38.724107 
L 301.70796 -38.623594 
L 302.477721 -38.500315 
L 303.247482 -38.355206 
L 304.017244 -38.18875 
L 304.787005 -38.001219 
L 305.556766 -37.792963 
L 306.326528 -37.564731 
L 307.096289 -37.317953 
L 307.86605 -37.054946 
L 308.635812 -36.778996 
L 309.405573 -36.494297 
L 310.175335 -36.205734 
L 310.945096 -35.918521 
L 311.714857 -35.637749 
L 312.484619 -35.367876 
L 313.25438 -35.112231 
L 314.024141 -34.872612 
L 314.793903 -34.649006 
L 315.563664 -34.439486 
L 316.333425 -34.240294 
L 317.103187 -34.0461 
L 317.872948 -33.850402 
L 318.642709 -33.646028 
L 319.412471 -33.425681 
L 320.182232 -33.182469 
L 320.951993 -32.910392 
L 321.721755 -32.604722 
L 322.491516 -32.262279 
L 323.261277 -31.881572 
L 324.031039 -31.462815 
L 324.8008 -31.007822 
L 325.570561 -30.519795 
L 326.340323 -30.003032 
L 327.110084 -29.462578 
L 327.879845 -28.903854 
L 328.649607 -28.332287 
L 329.419368 -27.752982 
L 330.18913 -27.170453 
L 330.958891 -26.588436 
L 331.728652 -26.009792 
L 332.498414 -25.436496 
L 333.268175 -24.869707 
L 334.037936 -24.309884 
L 334.807698 -23.756952 
L 335.577459 -23.210456 
L 336.34722 -22.669714 
L 337.116982 -22.13393 
L 337.886743 -21.602268 
L 338.656504 -21.073895 
L 339.426266 -20.547993 
L 340.196027 -20.023776 
L 340.965788 -19.500517 
L 341.73555 -18.977613 
L 342.505311 -18.454691 
L 343.275072 -17.93174 
L 344.044834 -17.409266 
L 344.814595 -16.888424 
L 345.584356 -16.371093 
L 346.354118 -15.859865 
L 347.123879 -15.357938 
L 347.893641 -14.868889 
L 348.663402 -14.396373 
L 349.433163 -13.94377 
L 350.202925 -13.513838 
L 350.972686 -13.108412 
L 351.742447 -12.728203 
L 352.512209 -12.372714 
L 353.28197 -12.040276 
L 354.051731 -11.7282 
L 354.821493 -11.433005 
L 355.591254 -11.150701 
L 356.361015 -10.877092 
L 357.130777 -10.608065 
L 357.900538 -10.339864 
L 358.670299 -10.069318 
L 359.440061 -9.794036 
L 360.209822 -9.512546 
L 360.979583 -9.22439 
L 361.749345 -8.930145 
L 362.519106 -8.631377 
L 363.288867 -8.330521 
L 364.058629 -8.030684 
L 364.82839 -7.735384 
L 365.598151 -7.448251 
L 366.367913 -7.172711 
L 367.137674 -6.911697 
L 367.907436 -6.667407 
L 368.677197 -6.441147 
L 369.446958 -6.233265 
L 370.21672 -6.043189 
L 370.986481 -5.869557 
L 371.756242 -5.710408 
L 372.526004 -5.563423 
L 373.295765 -5.426176 
L 374.065526 -5.296357 
L 374.835288 -5.17196 
L 375.605049 -5.051408 
L 376.37481 -4.93362 
L 377.144572 -4.818006 
L 377.914333 -4.704426 
L 378.684094 -4.593104 
L 379.453856 -4.484522 
L 380.223617 -4.379314 
L 380.993378 -4.278157 
L 381.76314 -4.181675 
L 382.532901 -4.090365 
L 383.302662 -4.004538 
L 384.072424 -3.924283 
L 384.842185 -3.849456 
L 384.842185 -2.470909 
L 384.842185 -2.470909 
L 384.072424 -2.470909 
L 383.302662 -2.470909 
L 382.532901 -2.470909 
L 381.76314 -2.470909 
L 380.993378 -2.470909 
L 380.223617 -2.470909 
L 379.453856 -2.470909 
L 378.684094 -2.470909 
L 377.914333 -2.470909 
L 377.144572 -2.470909 
L 376.37481 -2.470909 
L 375.605049 -2.470909 
L 374.835288 -2.470909 
L 374.065526 -2.470909 
L 373.295765 -2.470909 
L 372.526004 -2.470909 
L 371.756242 -2.470909 
L 370.986481 -2.470909 
L 370.21672 -2.470909 
L 369.446958 -2.470909 
L 368.677197 -2.470909 
L 367.907436 -2.470909 
L 367.137674 -2.470909 
L 366.367913 -2.470909 
L 365.598151 -2.470909 
L 364.82839 -2.470909 
L 364.058629 -2.470909 
L 363.288867 -2.470909 
L 362.519106 -2.470909 
L 361.749345 -2.470909 
L 360.979583 -2.470909 
L 360.209822 -2.470909 
L 359.440061 -2.470909 
L 358.670299 -2.470909 
L 357.900538 -2.470909 
L 357.130777 -2.470909 
L 356.361015 -2.470909 
L 355.591254 -2.470909 
L 354.821493 -2.470909 
L 354.051731 -2.470909 
L 353.28197 -2.470909 
L 352.512209 -2.470909 
L 351.742447 -2.470909 
L 350.972686 -2.470909 
L 350.202925 -2.470909 
L 349.433163 -2.470909 
L 348.663402 -2.470909 
L 347.893641 -2.470909 
L 347.123879 -2.470909 
L 346.354118 -2.470909 
L 345.584356 -2.470909 
L 344.814595 -2.470909 
L 344.044834 -2.470909 
L 343.275072 -2.470909 
L 342.505311 -2.470909 
L 341.73555 -2.470909 
L 340.965788 -2.470909 
L 340.196027 -2.470909 
L 339.426266 -2.470909 
L 338.656504 -2.470909 
L 337.886743 -2.470909 
L 337.116982 -2.470909 
L 336.34722 -2.470909 
L 335.577459 -2.470909 
L 334.807698 -2.470909 
L 334.037936 -2.470909 
L 333.268175 -2.470909 
L 332.498414 -2.470909 
L 331.728652 -2.470909 
L 330.958891 -2.470909 
L 330.18913 -2.470909 
L 329.419368 -2.470909 
L 328.649607 -2.470909 
L 327.879845 -2.470909 
L 327.110084 -2.470909 
L 326.340323 -2.470909 
L 325.570561 -2.470909 
L 324.8008 -2.470909 
L 324.031039 -2.470909 
L 323.261277 -2.470909 
L 322.491516 -2.470909 
L 321.721755 -2.470909 
L 320.951993 -2.470909 
L 320.182232 -2.470909 
L 319.412471 -2.470909 
L 318.642709 -2.470909 
L 317.872948 -2.470909 
L 317.103187 -2.470909 
L 316.333425 -2.470909 
L 315.563664 -2.470909 
L 314.793903 -2.470909 
L 314.024141 -2.470909 
L 313.25438 -2.470909 
L 312.484619 -2.470909 
L 311.714857 -2.470909 
L 310.945096 -2.470909 
L 310.175335 -2.470909 
L 309.405573 -2.470909 
L 308.635812 -2.470909 
L 307.86605 -2.470909 
L 307.096289 -2.470909 
L 306.326528 -2.470909 
L 305.556766 -2.470909 
L 304.787005 -2.470909 
L 304.017244 -2.470909 
L 303.247482 -2.470909 
L 302.477721 -2.470909 
L 301.70796 -2.470909 
L 300.938198 -2.470909 
L 300.168437 -2.470909 
L 299.398676 -2.470909 
L 298.628914 -2.470909 
L 297.859153 -2.470909 
L 297.089392 -2.470909 
L 296.31963 -2.470909 
L 295.549869 -2.470909 
L 294.780108 -2.470909 
L 294.010346 -2.470909 
L 293.240585 -2.470909 
L 292.470824 -2.470909 
L 291.701062 -2.470909 
L 290.931301 -2.470909 
L 290.16154 -2.470909 
L 289.391778 -2.470909 
L 288.622017 -2.470909 
L 287.852255 -2.470909 
L 287.082494 -2.470909 
L 286.312733 -2.470909 
L 285.542971 -2.470909 
L 284.77321 -2.470909 
L 284.003449 -2.470909 
L 283.233687 -2.470909 
L 282.463926 -2.470909 
L 281.694165 -2.470909 
L 280.924403 -2.470909 
L 280.154642 -2.470909 
L 279.384881 -2.470909 
L 278.615119 -2.470909 
L 277.845358 -2.470909 
L 277.075597 -2.470909 
L 276.305835 -2.470909 
L 275.536074 -2.470909 
L 274.766313 -2.470909 
L 273.996551 -2.470909 
L 273.22679 -2.470909 
L 272.457029 -2.470909 
L 271.687267 -2.470909 
L 270.917506 -2.470909 
L 270.147745 -2.470909 
L 269.377983 -2.470909 
L 268.608222 -2.470909 
L 267.83846 -2.470909 
L 267.068699 -2.470909 
L 266.298938 -2.470909 
L 265.529176 -2.470909 
L 264.759415 -2.470909 
L 263.989654 -2.470909 
L 263.219892 -2.470909 
L 262.450131 -2.470909 
L 261.68037 -2.470909 
L 260.910608 -2.470909 
L 260.140847 -2.470909 
L 259.371086 -2.470909 
L 258.601324 -2.470909 
L 257.831563 -2.470909 
L 257.061802 -2.470909 
L 256.29204 -2.470909 
L 255.522279 -2.470909 
L 254.752518 -2.470909 
L 253.982756 -2.470909 
L 253.212995 -2.470909 
L 252.443234 -2.470909 
L 251.673472 -2.470909 
L 250.903711 -2.470909 
L 250.13395 -2.470909 
L 249.364188 -2.470909 
L 248.594427 -2.470909 
L 247.824665 -2.470909 
L 247.054904 -2.470909 
L 246.285143 -2.470909 
L 245.515381 -2.470909 
L 244.74562 -2.470909 
L 243.975859 -2.470909 
L 243.206097 -2.470909 
L 242.436336 -2.470909 
L 241.666575 -2.470909 
L 240.896813 -2.470909 
L 240.127052 -2.470909 
L 239.357291 -2.470909 
L 238.587529 -2.470909 
L 237.817768 -2.470909 
L 237.048007 -2.470909 
L 236.278245 -2.470909 
L 235.508484 -2.470909 
L 234.738723 -2.470909 
L 233.968961 -2.470909 
L 233.1992 -2.470909 
L 232.429439 -2.470909 
L 231.659677 -2.470909 
L 230.889916 -2.470909 
L 230.120155 -2.470909 
L 229.350393 -2.470909 
L 228.580632 -2.470909 
L 227.81087 -2.470909 
L 227.041109 -2.470909 
L 226.271348 -2.470909 
L 225.501586 -2.470909 
L 224.731825 -2.470909 
L 223.962064 -2.470909 
L 223.192302 -2.470909 
L 222.422541 -2.470909 
L 221.65278 -2.470909 
L 220.883018 -2.470909 
L 220.113257 -2.470909 
L 219.343496 -2.470909 
L 218.573734 -2.470909 
z
" style="stroke: #cf1313; stroke-opacity: 0.2"/>
    </defs>
    <g clip-path="url(#pdf6532dc20)">
     <use xlink:href="#mf71a025645" x="0" y="54.36" style="fill: #cf1313; fill-opacity: 0.2; stroke: #cf1313; stroke-opacity: 0.2"/>
    </g>
   </g>
   <g id="PolyCollection_2">
    <defs>
     <path id="me82118a90a" d="M 355.591254 -2.470909 
L 355.591254 -3.91088 
L 356.361015 -3.997708 
L 357.130777 -4.091074 
L 357.900538 -4.192112 
L 358.670299 -4.301897 
L 359.440061 -4.421326 
L 360.209822 -4.551003 
L 360.979583 -4.691128 
L 361.749345 -4.84141 
L 362.519106 -5.001019 
L 363.288867 -5.168593 
L 364.058629 -5.342291 
L 364.82839 -5.519915 
L 365.598151 -5.699078 
L 366.367913 -5.877403 
L 367.137674 -6.052748 
L 367.907436 -6.22341 
L 368.677197 -6.388295 
L 369.446958 -6.547044 
L 370.21672 -6.700073 
L 370.986481 -6.848546 
L 371.756242 -6.99428 
L 372.526004 -7.139584 
L 373.295765 -7.287073 
L 374.065526 -7.439454 
L 374.835288 -7.599332 
L 375.605049 -7.769039 
L 376.37481 -7.950512 
L 377.144572 -8.145215 
L 377.914333 -8.354123 
L 378.684094 -8.577745 
L 379.453856 -8.816201 
L 380.223617 -9.069313 
L 380.993378 -9.336716 
L 381.76314 -9.617972 
L 382.532901 -9.912661 
L 383.302662 -10.220452 
L 384.072424 -10.541139 
L 384.842185 -10.874629 
L 385.611946 -11.220902 
L 386.381708 -11.579938 
L 387.151469 -11.951616 
L 387.921231 -12.335627 
L 388.690992 -12.731392 
L 389.460753 -13.138017 
L 390.230515 -13.554302 
L 391.000276 -13.978796 
L 391.770037 -14.409905 
L 392.539799 -14.846036 
L 393.30956 -15.285759 
L 394.079321 -15.727949 
L 394.849083 -16.1719 
L 395.618844 -16.617367 
L 396.388605 -17.064538 
L 397.158367 -17.513925 
L 397.928128 -17.96619 
L 398.697889 -18.421934 
L 399.467651 -18.881477 
L 400.237412 -19.34468 
L 401.007173 -19.81083 
L 401.776935 -20.278634 
L 402.546696 -20.746317 
L 403.316457 -21.211824 
L 404.086219 -21.673104 
L 404.85598 -22.128425 
L 405.625741 -22.576675 
L 406.395503 -23.017602 
L 407.165264 -23.451939 
L 407.935026 -23.881401 
L 408.704787 -24.308537 
L 409.474548 -24.736472 
L 410.24431 -25.16856 
L 411.014071 -25.608014 
L 411.783832 -26.057571 
L 412.553594 -26.519225 
L 413.323355 -26.994083 
L 414.093116 -27.482345 
L 414.862878 -27.983405 
L 415.632639 -28.496038 
L 416.4024 -29.018634 
L 417.172162 -29.549427 
L 417.941923 -30.08668 
L 418.711684 -30.628787 
L 419.481446 -31.174281 
L 420.251207 -31.721747 
L 421.020968 -32.269668 
L 421.79073 -32.816229 
L 422.560491 -33.359124 
L 423.330252 -33.895401 
L 424.100014 -34.42138 
L 424.869775 -34.932665 
L 425.639536 -35.42426 
L 426.409298 -35.890783 
L 427.179059 -36.326755 
L 427.948821 -36.726946 
L 428.718582 -37.086726 
L 429.488343 -37.402401 
L 430.258105 -37.671479 
L 431.027866 -37.892846 
L 431.797627 -38.066832 
L 432.567389 -38.195146 
L 433.33715 -38.280706 
L 434.106911 -38.327364 
L 434.876673 -38.339579 
L 435.646434 -38.322052 
L 436.416195 -38.279394 
L 437.185957 -38.215839 
L 437.955718 -38.135051 
L 438.725479 -38.040031 
L 439.495241 -37.93313 
L 440.265002 -37.816154 
L 441.034763 -37.690535 
L 441.804525 -37.557529 
L 442.574286 -37.418411 
L 443.344047 -37.274619 
L 444.113809 -37.127834 
L 444.88357 -36.979971 
L 445.653331 -36.833085 
L 446.423093 -36.689212 
L 447.192854 -36.550156 
L 447.962616 -36.417275 
L 448.732377 -36.291284 
L 449.502138 -36.172106 
L 450.2719 -36.058811 
L 451.041661 -35.949625 
L 451.811422 -35.842029 
L 452.581184 -35.732928 
L 453.350945 -35.618868 
L 454.120706 -35.496276 
L 454.890468 -35.361695 
L 455.660229 -35.212006 
L 456.42999 -35.044587 
L 457.199752 -34.85744 
L 457.969513 -34.649239 
L 458.739274 -34.419333 
L 459.509036 -34.167696 
L 460.278797 -33.894829 
L 461.048558 -33.601642 
L 461.81832 -33.289319 
L 462.588081 -32.959175 
L 463.357842 -32.612541 
L 464.127604 -32.250655 
L 464.897365 -31.874606 
L 465.667127 -31.485298 
L 466.436888 -31.083472 
L 467.206649 -30.669756 
L 467.976411 -30.244744 
L 468.746172 -29.809101 
L 469.515933 -29.363662 
L 470.285695 -28.909523 
L 471.055456 -28.4481 
L 471.825217 -27.981148 
L 472.594979 -27.510724 
L 473.36474 -27.039102 
L 474.134501 -26.568627 
L 474.904263 -26.101545 
L 475.674024 -25.639798 
L 476.443785 -25.184831 
L 477.213547 -24.737423 
L 477.983308 -24.297582 
L 478.753069 -23.8645 
L 479.522831 -23.43661 
L 480.292592 -23.011724 
L 481.062353 -22.587253 
L 481.832115 -22.16048 
L 482.601876 -21.728866 
L 483.371637 -21.290339 
L 484.141399 -20.84354 
L 484.91116 -20.388002 
L 485.680922 -19.924224 
L 486.450683 -19.453645 
L 487.220444 -18.978522 
L 487.990206 -18.501727 
L 488.759967 -18.026478 
L 489.529728 -17.556054 
L 490.29949 -17.093514 
L 491.069251 -16.641445 
L 491.839012 -16.201781 
L 492.608774 -15.775689 
L 493.378535 -15.363548 
L 494.148296 -14.964996 
L 494.918058 -14.579065 
L 495.687819 -14.204355 
L 496.45758 -13.83924 
L 497.227342 -13.482086 
L 497.997103 -13.131437 
L 498.766864 -12.786169 
L 499.536626 -12.445585 
L 500.306387 -12.109453 
L 501.076148 -11.777973 
L 501.84591 -11.451709 
L 502.615671 -11.13147 
L 503.385432 -10.818179 
L 504.155194 -10.51274 
L 504.924955 -10.215915 
L 505.694717 -9.928234 
L 506.464478 -9.649931 
L 507.234239 -9.380918 
L 508.004001 -9.120796 
L 508.773762 -8.86889 
L 509.543523 -8.62431 
L 510.313285 -8.386032 
L 511.083046 -8.15298 
L 511.852807 -7.924118 
L 512.622569 -7.698537 
L 513.39233 -7.475528 
L 514.162091 -7.254645 
L 514.931853 -7.03574 
L 515.701614 -6.818983 
L 516.471375 -6.604841 
L 517.241137 -6.394042 
L 518.010898 -6.187508 
L 518.780659 -5.986272 
L 519.550421 -5.791385 
L 520.320182 -5.603824 
L 521.089943 -5.424408 
L 521.859705 -5.253733 
L 522.629466 -5.092142 
L 523.399227 -4.939711 
L 524.168989 -4.796274 
L 524.93875 -4.661474 
L 525.708512 -4.53482 
L 526.478273 -4.415761 
L 527.248034 -4.303755 
L 528.017796 -4.198322 
L 528.787557 -4.099083 
L 529.557318 -4.005772 
L 530.32708 -3.91823 
L 531.096841 -3.836383 
L 531.866602 -3.7602 
L 532.636364 -3.689655 
L 532.636364 -2.470909 
L 532.636364 -2.470909 
L 531.866602 -2.470909 
L 531.096841 -2.470909 
L 530.32708 -2.470909 
L 529.557318 -2.470909 
L 528.787557 -2.470909 
L 528.017796 -2.470909 
L 527.248034 -2.470909 
L 526.478273 -2.470909 
L 525.708512 -2.470909 
L 524.93875 -2.470909 
L 524.168989 -2.470909 
L 523.399227 -2.470909 
L 522.629466 -2.470909 
L 521.859705 -2.470909 
L 521.089943 -2.470909 
L 520.320182 -2.470909 
L 519.550421 -2.470909 
L 518.780659 -2.470909 
L 518.010898 -2.470909 
L 517.241137 -2.470909 
L 516.471375 -2.470909 
L 515.701614 -2.470909 
L 514.931853 -2.470909 
L 514.162091 -2.470909 
L 513.39233 -2.470909 
L 512.622569 -2.470909 
L 511.852807 -2.470909 
L 511.083046 -2.470909 
L 510.313285 -2.470909 
L 509.543523 -2.470909 
L 508.773762 -2.470909 
L 508.004001 -2.470909 
L 507.234239 -2.470909 
L 506.464478 -2.470909 
L 505.694717 -2.470909 
L 504.924955 -2.470909 
L 504.155194 -2.470909 
L 503.385432 -2.470909 
L 502.615671 -2.470909 
L 501.84591 -2.470909 
L 501.076148 -2.470909 
L 500.306387 -2.470909 
L 499.536626 -2.470909 
L 498.766864 -2.470909 
L 497.997103 -2.470909 
L 497.227342 -2.470909 
L 496.45758 -2.470909 
L 495.687819 -2.470909 
L 494.918058 -2.470909 
L 494.148296 -2.470909 
L 493.378535 -2.470909 
L 492.608774 -2.470909 
L 491.839012 -2.470909 
L 491.069251 -2.470909 
L 490.29949 -2.470909 
L 489.529728 -2.470909 
L 488.759967 -2.470909 
L 487.990206 -2.470909 
L 487.220444 -2.470909 
L 486.450683 -2.470909 
L 485.680922 -2.470909 
L 484.91116 -2.470909 
L 484.141399 -2.470909 
L 483.371637 -2.470909 
L 482.601876 -2.470909 
L 481.832115 -2.470909 
L 481.062353 -2.470909 
L 480.292592 -2.470909 
L 479.522831 -2.470909 
L 478.753069 -2.470909 
L 477.983308 -2.470909 
L 477.213547 -2.470909 
L 476.443785 -2.470909 
L 475.674024 -2.470909 
L 474.904263 -2.470909 
L 474.134501 -2.470909 
L 473.36474 -2.470909 
L 472.594979 -2.470909 
L 471.825217 -2.470909 
L 471.055456 -2.470909 
L 470.285695 -2.470909 
L 469.515933 -2.470909 
L 468.746172 -2.470909 
L 467.976411 -2.470909 
L 467.206649 -2.470909 
L 466.436888 -2.470909 
L 465.667127 -2.470909 
L 464.897365 -2.470909 
L 464.127604 -2.470909 
L 463.357842 -2.470909 
L 462.588081 -2.470909 
L 461.81832 -2.470909 
L 461.048558 -2.470909 
L 460.278797 -2.470909 
L 459.509036 -2.470909 
L 458.739274 -2.470909 
L 457.969513 -2.470909 
L 457.199752 -2.470909 
L 456.42999 -2.470909 
L 455.660229 -2.470909 
L 454.890468 -2.470909 
L 454.120706 -2.470909 
L 453.350945 -2.470909 
L 452.581184 -2.470909 
L 451.811422 -2.470909 
L 451.041661 -2.470909 
L 450.2719 -2.470909 
L 449.502138 -2.470909 
L 448.732377 -2.470909 
L 447.962616 -2.470909 
L 447.192854 -2.470909 
L 446.423093 -2.470909 
L 445.653331 -2.470909 
L 444.88357 -2.470909 
L 444.113809 -2.470909 
L 443.344047 -2.470909 
L 442.574286 -2.470909 
L 441.804525 -2.470909 
L 441.034763 -2.470909 
L 440.265002 -2.470909 
L 439.495241 -2.470909 
L 438.725479 -2.470909 
L 437.955718 -2.470909 
L 437.185957 -2.470909 
L 436.416195 -2.470909 
L 435.646434 -2.470909 
L 434.876673 -2.470909 
L 434.106911 -2.470909 
L 433.33715 -2.470909 
L 432.567389 -2.470909 
L 431.797627 -2.470909 
L 431.027866 -2.470909 
L 430.258105 -2.470909 
L 429.488343 -2.470909 
L 428.718582 -2.470909 
L 427.948821 -2.470909 
L 427.179059 -2.470909 
L 426.409298 -2.470909 
L 425.639536 -2.470909 
L 424.869775 -2.470909 
L 424.100014 -2.470909 
L 423.330252 -2.470909 
L 422.560491 -2.470909 
L 421.79073 -2.470909 
L 421.020968 -2.470909 
L 420.251207 -2.470909 
L 419.481446 -2.470909 
L 418.711684 -2.470909 
L 417.941923 -2.470909 
L 417.172162 -2.470909 
L 416.4024 -2.470909 
L 415.632639 -2.470909 
L 414.862878 -2.470909 
L 414.093116 -2.470909 
L 413.323355 -2.470909 
L 412.553594 -2.470909 
L 411.783832 -2.470909 
L 411.014071 -2.470909 
L 410.24431 -2.470909 
L 409.474548 -2.470909 
L 408.704787 -2.470909 
L 407.935026 -2.470909 
L 407.165264 -2.470909 
L 406.395503 -2.470909 
L 405.625741 -2.470909 
L 404.85598 -2.470909 
L 404.086219 -2.470909 
L 403.316457 -2.470909 
L 402.546696 -2.470909 
L 401.776935 -2.470909 
L 401.007173 -2.470909 
L 400.237412 -2.470909 
L 399.467651 -2.470909 
L 398.697889 -2.470909 
L 397.928128 -2.470909 
L 397.158367 -2.470909 
L 396.388605 -2.470909 
L 395.618844 -2.470909 
L 394.849083 -2.470909 
L 394.079321 -2.470909 
L 393.30956 -2.470909 
L 392.539799 -2.470909 
L 391.770037 -2.470909 
L 391.000276 -2.470909 
L 390.230515 -2.470909 
L 389.460753 -2.470909 
L 388.690992 -2.470909 
L 387.921231 -2.470909 
L 387.151469 -2.470909 
L 386.381708 -2.470909 
L 385.611946 -2.470909 
L 384.842185 -2.470909 
L 384.072424 -2.470909 
L 383.302662 -2.470909 
L 382.532901 -2.470909 
L 381.76314 -2.470909 
L 380.993378 -2.470909 
L 380.223617 -2.470909 
L 379.453856 -2.470909 
L 378.684094 -2.470909 
L 377.914333 -2.470909 
L 377.144572 -2.470909 
L 376.37481 -2.470909 
L 375.605049 -2.470909 
L 374.835288 -2.470909 
L 374.065526 -2.470909 
L 373.295765 -2.470909 
L 372.526004 -2.470909 
L 371.756242 -2.470909 
L 370.986481 -2.470909 
L 370.21672 -2.470909 
L 369.446958 -2.470909 
L 368.677197 -2.470909 
L 367.907436 -2.470909 
L 367.137674 -2.470909 
L 366.367913 -2.470909 
L 365.598151 -2.470909 
L 364.82839 -2.470909 
L 364.058629 -2.470909 
L 363.288867 -2.470909 
L 362.519106 -2.470909 
L 361.749345 -2.470909 
L 360.979583 -2.470909 
L 360.209822 -2.470909 
L 359.440061 -2.470909 
L 358.670299 -2.470909 
L 357.900538 -2.470909 
L 357.130777 -2.470909 
L 356.361015 -2.470909 
L 355.591254 -2.470909 
z
" style="stroke: #116dc2; stroke-opacity: 0.2"/>
    </defs>
    <g clip-path="url(#pdf6532dc20)">
     <use xlink:href="#me82118a90a" x="0" y="54.36" style="fill: #116dc2; fill-opacity: 0.2; stroke: #116dc2; stroke-opacity: 0.2"/>
    </g>
   </g>
   <g id="PolyCollection_3">
    <defs>
     <path id="m2cc5e45763" d="M 25.363636 -2.470909 
L 25.363636 -4.84501 
L 26.133398 -5.425264 
L 26.903159 -6.048273 
L 27.67292 -6.812527 
L 28.442682 -7.859762 
L 29.212443 -9.348679 
L 29.982204 -11.297362 
L 30.751966 -13.548646 
L 31.521727 -16.025414 
L 32.291488 -18.831093 
L 33.06125 -21.927802 
L 33.831011 -25.030366 
L 34.600773 -28.09254 
L 35.370534 -31.379827 
L 36.140295 -34.83746 
L 36.910057 -38.099863 
L 37.679818 -41.051423 
L 38.449579 -43.65664 
L 39.219341 -45.871604 
L 39.989102 -48.056455 
L 40.758863 -50.250106 
L 41.528625 -51.640835 
L 42.298386 -51.889091 
L 43.068147 -51.616456 
L 43.837909 -51.163896 
L 44.60767 -50.417542 
L 45.377431 -49.367984 
L 46.147193 -47.885103 
L 46.916954 -45.725336 
L 47.686715 -42.806404 
L 48.456477 -39.234059 
L 49.226238 -35.350305 
L 49.995999 -31.500065 
L 50.765761 -27.814532 
L 51.535522 -24.410544 
L 52.305283 -21.291362 
L 53.075045 -18.337958 
L 53.844806 -15.60664 
L 54.614568 -13.248583 
L 55.384329 -11.409101 
L 56.15409 -10.055928 
L 56.923852 -8.859812 
L 57.693613 -7.655607 
L 58.463374 -6.55334 
L 59.233136 -5.592033 
L 60.002897 -4.755497 
L 60.002897 -2.470909 
L 60.002897 -2.470909 
L 59.233136 -2.470909 
L 58.463374 -2.470909 
L 57.693613 -2.470909 
L 56.923852 -2.470909 
L 56.15409 -2.470909 
L 55.384329 -2.470909 
L 54.614568 -2.470909 
L 53.844806 -2.470909 
L 53.075045 -2.470909 
L 52.305283 -2.470909 
L 51.535522 -2.470909 
L 50.765761 -2.470909 
L 49.995999 -2.470909 
L 49.226238 -2.470909 
L 48.456477 -2.470909 
L 47.686715 -2.470909 
L 46.916954 -2.470909 
L 46.147193 -2.470909 
L 45.377431 -2.470909 
L 44.60767 -2.470909 
L 43.837909 -2.470909 
L 43.068147 -2.470909 
L 42.298386 -2.470909 
L 41.528625 -2.470909 
L 40.758863 -2.470909 
L 39.989102 -2.470909 
L 39.219341 -2.470909 
L 38.449579 -2.470909 
L 37.679818 -2.470909 
L 36.910057 -2.470909 
L 36.140295 -2.470909 
L 35.370534 -2.470909 
L 34.600773 -2.470909 
L 33.831011 -2.470909 
L 33.06125 -2.470909 
L 32.291488 -2.470909 
L 31.521727 -2.470909 
L 30.751966 -2.470909 
L 29.982204 -2.470909 
L 29.212443 -2.470909 
L 28.442682 -2.470909 
L 27.67292 -2.470909 
L 26.903159 -2.470909 
L 26.133398 -2.470909 
L 25.363636 -2.470909 
z
" style="stroke: #8a8a8a; stroke-opacity: 0.2"/>
    </defs>
    <g clip-path="url(#pdf6532dc20)">
     <use xlink:href="#m2cc5e45763" x="0" y="54.36" style="fill: #8a8a8a; fill-opacity: 0.2; stroke: #8a8a8a; stroke-opacity: 0.2"/>
    </g>
   </g>
   <g id="line2d_1">
    <path d="M 218.573734 50.321281 
L 223.962064 49.753088 
L 227.041109 49.210476 
L 230.889916 48.244074 
L 242.436336 44.988385 
L 245.515381 43.70215 
L 248.594427 42.135695 
L 253.212995 39.464494 
L 259.371086 35.62627 
L 263.989654 32.511023 
L 270.917506 27.732273 
L 273.996551 25.856452 
L 277.845358 23.774218 
L 290.16154 17.594173 
L 292.470824 16.620057 
L 294.780108 15.911869 
L 296.31963 15.628865 
L 298.628914 15.489033 
L 300.938198 15.635893 
L 303.247482 16.004794 
L 305.556766 16.567037 
L 308.635812 17.581004 
L 314.024141 19.487388 
L 318.642709 20.713972 
L 320.951993 21.449608 
L 323.261277 22.478428 
L 325.570561 23.840205 
L 328.649607 26.027713 
L 336.34722 31.690286 
L 345.584356 37.988907 
L 349.433163 40.41623 
L 351.742447 41.631797 
L 354.051731 42.6318 
L 358.670299 44.290682 
L 364.058629 46.329316 
L 367.907436 47.692593 
L 370.986481 48.490443 
L 374.835288 49.18804 
L 381.76314 50.178325 
L 384.842185 50.510544 
L 384.842185 50.510544 
" clip-path="url(#pdf6532dc20)" style="fill: none; stroke: #cf1313; stroke-width: 1.5; stroke-linecap: square"/>
   </g>
   <g id="line2d_2">
    <path d="M 355.591254 50.44912 
L 359.440061 49.938674 
L 363.288867 49.191407 
L 372.526004 47.220416 
L 376.37481 46.409488 
L 379.453856 45.543799 
L 382.532901 44.447339 
L 385.611946 43.139098 
L 389.460753 41.221983 
L 394.849083 38.1881 
L 402.546696 33.613683 
L 407.935026 30.478599 
L 413.323355 27.365917 
L 417.172162 24.810573 
L 426.409298 18.469217 
L 428.718582 17.273274 
L 430.258105 16.688521 
L 431.797627 16.293168 
L 433.33715 16.079294 
L 435.646434 16.037948 
L 437.955718 16.224949 
L 441.804525 16.802471 
L 451.811422 18.517971 
L 455.660229 19.147994 
L 457.969513 19.710761 
L 460.278797 20.465171 
L 463.357842 21.747459 
L 466.436888 23.276528 
L 470.285695 25.450477 
L 480.292592 31.348276 
L 485.680922 34.435776 
L 492.608774 38.584311 
L 496.45758 40.52076 
L 501.84591 42.908291 
L 506.464478 44.710069 
L 511.083046 46.20702 
L 518.010898 48.172492 
L 522.629466 49.267858 
L 526.478273 49.944239 
L 531.096841 50.523617 
L 532.636364 50.670345 
L 532.636364 50.670345 
" clip-path="url(#pdf6532dc20)" style="fill: none; stroke: #116dc2; stroke-width: 1.5; stroke-linecap: square"/>
   </g>
   <g id="line2d_3">
    <path d="M 25.363636 49.51499 
L 26.133398 48.934736 
L 26.903159 48.311727 
L 27.67292 47.547473 
L 28.442682 46.500238 
L 29.212443 45.011321 
L 29.982204 43.062638 
L 30.751966 40.811354 
L 31.521727 38.334586 
L 32.291488 35.528907 
L 33.06125 32.432198 
L 33.831011 29.329634 
L 34.600773 26.26746 
L 35.370534 22.980173 
L 36.140295 19.52254 
L 36.910057 16.260137 
L 37.679818 13.308577 
L 38.449579 10.70336 
L 39.219341 8.488396 
L 39.989102 6.303545 
L 40.758863 4.109894 
L 41.528625 2.719165 
L 42.298386 2.470909 
L 43.068147 2.743544 
L 43.837909 3.196104 
L 44.60767 3.942458 
L 45.377431 4.992016 
L 46.147193 6.474897 
L 46.916954 8.634664 
L 47.686715 11.553596 
L 48.456477 15.125941 
L 49.226238 19.009695 
L 49.995999 22.859935 
L 50.765761 26.545468 
L 51.535522 29.949456 
L 52.305283 33.068638 
L 53.075045 36.022042 
L 53.844806 38.75336 
L 54.614568 41.111417 
L 55.384329 42.950899 
L 56.15409 44.304072 
L 56.923852 45.500188 
L 57.693613 46.704393 
L 58.463374 47.80666 
L 59.233136 48.767967 
L 60.002897 49.604503 
" clip-path="url(#pdf6532dc20)" style="fill: none; stroke: #8a8a8a; stroke-width: 1.5; stroke-linecap: square"/>
   </g>
  </g>
 </g>
 <defs>
  <clipPath id="pdf6532dc20">
   <rect x="0" y="-0" width="558" height="54.36"/>
  </clipPath>
 </defs>
</svg>
