<?xml version="1.0" encoding="utf-8" standalone="no"?>
<!DOCTYPE svg PUBLIC "-//W3C//DTD SVG 1.1//EN"
  "http://www.w3.org/Graphics/SVG/1.1/DTD/svg11.dtd">
<svg xmlns:xlink="http://www.w3.org/1999/xlink" width="558pt" height="54.36pt" viewBox="0 0 558 54.36" xmlns="http://www.w3.org/2000/svg" version="1.1">
 <metadata>
  <rdf:RDF xmlns:dc="http://purl.org/dc/elements/1.1/" xmlns:cc="http://creativecommons.org/ns#" xmlns:rdf="http://www.w3.org/1999/02/22-rdf-syntax-ns#">
   <cc:Work>
    <dc:type rdf:resource="http://purl.org/dc/dcmitype/StillImage"/>
    <dc:date>2024-09-14T12:47:09.627722</dc:date>
    <dc:format>image/svg+xml</dc:format>
    <dc:creator>
     <cc:Agent>
      <dc:title>Matplotlib v3.5.2, https://matplotlib.org/</dc:title>
     </cc:Agent>
    </dc:creator>
   </cc:Work>
  </rdf:RDF>
 </metadata>
 <defs>
  <style type="text/css">*{stroke-linejoin: round; stroke-linecap: butt}</style>
 </defs>
 <g id="figure_1">
  <g id="patch_1">
   <path d="M 0 54.36 
L 558 54.36 
L 558 0 
L 0 0 
L 0 54.36 
z
" style="fill: none; opacity: 0"/>
  </g>
  <g id="axes_1">
   <g id="PolyCollection_1">
    <defs>
     <path id="m1f4e431fa1" d="M 392.978686 -2.470909 
L 392.978686 -3.958549 
L 393.879703 -4.121916 
L 394.78072 -4.301255 
L 395.681737 -4.495038 
L 396.582755 -4.701308 
L 397.483772 -4.917477 
L 398.384789 -5.140269 
L 399.285807 -5.365949 
L 400.186824 -5.590893 
L 401.087841 -5.812389 
L 401.988858 -6.029418 
L 402.889876 -6.243164 
L 403.790893 -6.457048 
L 404.69191 -6.67626 
L 405.592927 -6.906929 
L 406.493945 -7.155193 
L 407.394962 -7.426417 
L 408.295979 -7.724765 
L 409.196997 -8.053118 
L 410.098014 -8.413261 
L 410.999031 -8.806113 
L 411.900048 -9.231824 
L 412.801066 -9.68965 
L 413.702083 -10.177637 
L 414.6031 -10.692301 
L 415.504118 -11.228539 
L 416.405135 -11.77997 
L 417.306152 -12.33976 
L 418.207169 -12.901812 
L 419.108187 -13.462017 
L 420.009204 -14.019218 
L 420.910221 -14.575571 
L 421.811238 -15.136199 
L 422.712256 -15.708218 
L 423.613273 -16.299451 
L 424.51429 -16.917166 
L 425.415308 -17.56716 
L 426.316325 -18.253308 
L 427.217342 -18.977513 
L 428.118359 -19.73987 
L 429.019377 -20.538836 
L 429.920394 -21.371269 
L 430.821411 -22.232389 
L 431.722429 -23.115792 
L 432.623446 -24.013686 
L 433.524463 -24.917423 
L 434.42548 -25.818277 
L 435.326498 -26.708227 
L 436.227515 -27.580537 
L 437.128532 -28.429928 
L 438.029549 -29.252352 
L 438.930567 -30.044519 
L 439.831584 -30.803422 
L 440.732601 -31.526101 
L 441.633619 -32.209757 
L 442.534636 -32.852141 
L 443.435653 -33.452054 
L 444.33667 -34.009714 
L 445.237688 -34.526853 
L 446.138705 -35.006512 
L 447.039722 -35.452629 
L 447.94074 -35.869591 
L 448.841757 -36.261883 
L 449.742774 -36.633922 
L 450.643791 -36.990018 
L 451.544809 -37.334359 
L 452.445826 -37.670869 
L 453.346843 -38.002842 
L 454.24786 -38.332305 
L 455.148878 -38.659209 
L 456.049895 -38.980633 
L 456.950912 -39.290294 
L 457.85193 -39.578636 
L 458.752947 -39.833721 
L 459.653964 -40.042932 
L 460.554981 -40.195255 
L 461.455999 -40.283666 
L 462.357016 -40.306998 
L 463.258033 -40.270709 
L 464.159051 -40.186217 
L 465.060068 -40.068819 
L 465.961085 -39.934619 
L 466.862102 -39.797145 
L 467.76312 -39.664404 
L 468.664137 -39.536985 
L 469.565154 -39.40752 
L 470.466171 -39.261494 
L 471.367189 -39.079156 
L 472.268206 -38.838155 
L 473.169223 -38.516522 
L 474.070241 -38.095661 
L 474.971258 -37.56302 
L 475.872275 -36.914163 
L 476.773292 -36.153898 
L 477.67431 -35.296236 
L 478.575327 -34.363058 
L 479.476344 -33.381629 
L 480.377362 -32.381363 
L 481.278379 -31.390415 
L 482.179396 -30.432707 
L 483.080413 -29.525872 
L 483.981431 -28.680305 
L 484.882448 -27.899269 
L 485.783465 -27.179797 
L 486.684482 -26.514107 
L 487.5855 -25.891257 
L 488.486517 -25.298887 
L 489.387534 -24.724905 
L 490.288552 -24.158966 
L 491.189569 -23.593534 
L 492.090586 -23.02434 
L 492.991603 -22.450112 
L 493.892621 -21.871684 
L 494.793638 -21.290751 
L 495.694655 -20.708657 
L 496.595673 -20.125584 
L 497.49669 -19.54031 
L 498.397707 -18.950482 
L 499.298724 -18.353212 
L 500.199742 -17.745692 
L 501.100759 -17.125696 
L 502.001776 -16.491881 
L 502.902793 -15.844007 
L 503.803811 -15.183139 
L 504.704828 -14.511875 
L 505.605845 -13.834538 
L 506.506863 -13.157183 
L 507.40788 -12.487343 
L 508.308897 -11.833455 
L 509.209914 -11.204078 
L 510.110932 -10.607062 
L 511.011949 -10.04882 
L 511.912966 -9.533838 
L 512.813984 -9.064436 
L 513.715001 -8.640753 
L 514.616018 -8.260893 
L 515.517035 -7.921177 
L 516.418053 -7.616498 
L 517.31907 -7.340767 
L 518.220087 -7.08746 
L 519.121104 -6.850213 
L 520.022122 -6.623406 
L 520.923139 -6.402636 
L 521.824156 -6.185003 
L 522.725174 -5.969185 
L 523.626191 -5.755312 
L 524.527208 -5.544679 
L 525.428225 -5.339368 
L 526.329243 -5.141811 
L 527.23026 -4.954341 
L 528.131277 -4.778758 
L 529.032295 -4.615967 
L 529.933312 -4.465758 
L 530.834329 -4.326799 
L 531.735346 -4.196862 
L 532.636364 -4.073282 
L 532.636364 -2.470909 
L 532.636364 -2.470909 
L 531.735346 -2.470909 
L 530.834329 -2.470909 
L 529.933312 -2.470909 
L 529.032295 -2.470909 
L 528.131277 -2.470909 
L 527.23026 -2.470909 
L 526.329243 -2.470909 
L 525.428225 -2.470909 
L 524.527208 -2.470909 
L 523.626191 -2.470909 
L 522.725174 -2.470909 
L 521.824156 -2.470909 
L 520.923139 -2.470909 
L 520.022122 -2.470909 
L 519.121104 -2.470909 
L 518.220087 -2.470909 
L 517.31907 -2.470909 
L 516.418053 -2.470909 
L 515.517035 -2.470909 
L 514.616018 -2.470909 
L 513.715001 -2.470909 
L 512.813984 -2.470909 
L 511.912966 -2.470909 
L 511.011949 -2.470909 
L 510.110932 -2.470909 
L 509.209914 -2.470909 
L 508.308897 -2.470909 
L 507.40788 -2.470909 
L 506.506863 -2.470909 
L 505.605845 -2.470909 
L 504.704828 -2.470909 
L 503.803811 -2.470909 
L 502.902793 -2.470909 
L 502.001776 -2.470909 
L 501.100759 -2.470909 
L 500.199742 -2.470909 
L 499.298724 -2.470909 
L 498.397707 -2.470909 
L 497.49669 -2.470909 
L 496.595673 -2.470909 
L 495.694655 -2.470909 
L 494.793638 -2.470909 
L 493.892621 -2.470909 
L 492.991603 -2.470909 
L 492.090586 -2.470909 
L 491.189569 -2.470909 
L 490.288552 -2.470909 
L 489.387534 -2.470909 
L 488.486517 -2.470909 
L 487.5855 -2.470909 
L 486.684482 -2.470909 
L 485.783465 -2.470909 
L 484.882448 -2.470909 
L 483.981431 -2.470909 
L 483.080413 -2.470909 
L 482.179396 -2.470909 
L 481.278379 -2.470909 
L 480.377362 -2.470909 
L 479.476344 -2.470909 
L 478.575327 -2.470909 
L 477.67431 -2.470909 
L 476.773292 -2.470909 
L 475.872275 -2.470909 
L 474.971258 -2.470909 
L 474.070241 -2.470909 
L 473.169223 -2.470909 
L 472.268206 -2.470909 
L 471.367189 -2.470909 
L 470.466171 -2.470909 
L 469.565154 -2.470909 
L 468.664137 -2.470909 
L 467.76312 -2.470909 
L 466.862102 -2.470909 
L 465.961085 -2.470909 
L 465.060068 -2.470909 
L 464.159051 -2.470909 
L 463.258033 -2.470909 
L 462.357016 -2.470909 
L 461.455999 -2.470909 
L 460.554981 -2.470909 
L 459.653964 -2.470909 
L 458.752947 -2.470909 
L 457.85193 -2.470909 
L 456.950912 -2.470909 
L 456.049895 -2.470909 
L 455.148878 -2.470909 
L 454.24786 -2.470909 
L 453.346843 -2.470909 
L 452.445826 -2.470909 
L 451.544809 -2.470909 
L 450.643791 -2.470909 
L 449.742774 -2.470909 
L 448.841757 -2.470909 
L 447.94074 -2.470909 
L 447.039722 -2.470909 
L 446.138705 -2.470909 
L 445.237688 -2.470909 
L 444.33667 -2.470909 
L 443.435653 -2.470909 
L 442.534636 -2.470909 
L 441.633619 -2.470909 
L 440.732601 -2.470909 
L 439.831584 -2.470909 
L 438.930567 -2.470909 
L 438.029549 -2.470909 
L 437.128532 -2.470909 
L 436.227515 -2.470909 
L 435.326498 -2.470909 
L 434.42548 -2.470909 
L 433.524463 -2.470909 
L 432.623446 -2.470909 
L 431.722429 -2.470909 
L 430.821411 -2.470909 
L 429.920394 -2.470909 
L 429.019377 -2.470909 
L 428.118359 -2.470909 
L 427.217342 -2.470909 
L 426.316325 -2.470909 
L 425.415308 -2.470909 
L 424.51429 -2.470909 
L 423.613273 -2.470909 
L 422.712256 -2.470909 
L 421.811238 -2.470909 
L 420.910221 -2.470909 
L 420.009204 -2.470909 
L 419.108187 -2.470909 
L 418.207169 -2.470909 
L 417.306152 -2.470909 
L 416.405135 -2.470909 
L 415.504118 -2.470909 
L 414.6031 -2.470909 
L 413.702083 -2.470909 
L 412.801066 -2.470909 
L 411.900048 -2.470909 
L 410.999031 -2.470909 
L 410.098014 -2.470909 
L 409.196997 -2.470909 
L 408.295979 -2.470909 
L 407.394962 -2.470909 
L 406.493945 -2.470909 
L 405.592927 -2.470909 
L 404.69191 -2.470909 
L 403.790893 -2.470909 
L 402.889876 -2.470909 
L 401.988858 -2.470909 
L 401.087841 -2.470909 
L 400.186824 -2.470909 
L 399.285807 -2.470909 
L 398.384789 -2.470909 
L 397.483772 -2.470909 
L 396.582755 -2.470909 
L 395.681737 -2.470909 
L 394.78072 -2.470909 
L 393.879703 -2.470909 
L 392.978686 -2.470909 
z
" style="stroke: #cf1313; stroke-opacity: 0.2"/>
    </defs>
    <g clip-path="url(#pbe3d794cf3)">
     <use xlink:href="#m1f4e431fa1" x="0" y="54.36" style="fill: #cf1313; fill-opacity: 0.2; stroke: #cf1313; stroke-opacity: 0.2"/>
    </g>
   </g>
   <g id="PolyCollection_2">
    <defs>
     <path id="mded0017668" d="M 356.937995 -2.470909 
L 356.937995 -4.176104 
L 357.839012 -4.348581 
L 358.740029 -4.537518 
L 359.641046 -4.741004 
L 360.542064 -4.957002 
L 361.443081 -5.183805 
L 362.344098 -5.420391 
L 363.245115 -5.666602 
L 364.146133 -5.92316 
L 365.04715 -6.191519 
L 365.948167 -6.473634 
L 366.849185 -6.771652 
L 367.750202 -7.087573 
L 368.651219 -7.422897 
L 369.552236 -7.7783 
L 370.453254 -8.153383 
L 371.354271 -8.546564 
L 372.255288 -8.955164 
L 373.156306 -9.375709 
L 374.057323 -9.804417 
L 374.95834 -10.237801 
L 375.859357 -10.673266 
L 376.760375 -11.109614 
L 377.661392 -11.547349 
L 378.562409 -11.988768 
L 379.463426 -12.437791 
L 380.364444 -12.899572 
L 381.265461 -13.37991 
L 382.166478 -13.884511 
L 383.067496 -14.418189 
L 383.968513 -14.9841 
L 384.86953 -15.583156 
L 385.770547 -16.21376 
L 386.671565 -16.871973 
L 387.572582 -17.552153 
L 388.473599 -18.247991 
L 389.374617 -18.953728 
L 390.275634 -19.665252 
L 391.176651 -20.380771 
L 392.077668 -21.100825 
L 392.978686 -21.827642 
L 393.879703 -22.564034 
L 394.78072 -23.312228 
L 395.681737 -24.073047 
L 396.582755 -24.845725 
L 397.483772 -25.6284 
L 398.384789 -26.419046 
L 399.285807 -27.216421 
L 400.186824 -28.020642 
L 401.087841 -28.833072 
L 401.988858 -29.655508 
L 402.889876 -30.488854 
L 403.790893 -31.331663 
L 404.69191 -32.178978 
L 405.592927 -33.02188 
L 406.493945 -33.847984 
L 407.394962 -34.642908 
L 408.295979 -35.392434 
L 409.196997 -36.084863 
L 410.098014 -36.712905 
L 410.999031 -37.274588 
L 411.900048 -37.772901 
L 412.801066 -38.214355 
L 413.702083 -38.606966 
L 414.6031 -38.958303 
L 415.504118 -39.274157 
L 416.405135 -39.55803 
L 417.306152 -39.811333 
L 418.207169 -40.03389 
L 419.108187 -40.224377 
L 420.009204 -40.38045 
L 420.910221 -40.498572 
L 421.811238 -40.573754 
L 422.712256 -40.599482 
L 423.613273 -40.568058 
L 424.51429 -40.471393 
L 425.415308 -40.302143 
L 426.316325 -40.05496 
L 427.217342 -39.727574 
L 428.118359 -39.321498 
L 429.019377 -38.842212 
L 429.920394 -38.298803 
L 430.821411 -37.703122 
L 431.722429 -37.068613 
L 432.623446 -36.408953 
L 433.524463 -35.736752 
L 434.42548 -35.06248 
L 435.326498 -34.393854 
L 436.227515 -33.735774 
L 437.128532 -33.090849 
L 438.029549 -32.460353 
L 438.930567 -31.845349 
L 439.831584 -31.247626 
L 440.732601 -30.670138 
L 441.633619 -30.116755 
L 442.534636 -29.591344 
L 443.435653 -29.096417 
L 444.33667 -28.631731 
L 445.237688 -28.19325 
L 446.138705 -27.772826 
L 447.039722 -27.358743 
L 447.94074 -26.937068 
L 448.841757 -26.493533 
L 449.742774 -26.015557 
L 450.643791 -25.493984 
L 451.544809 -24.924202 
L 452.445826 -24.306462 
L 453.346843 -23.645378 
L 454.24786 -22.948771 
L 455.148878 -22.226125 
L 456.049895 -21.487001 
L 456.950912 -20.739734 
L 457.85193 -19.990698 
L 458.752947 -19.244242 
L 459.653964 -18.503243 
L 460.554981 -17.770022 
L 461.455999 -17.04727 
L 462.357016 -16.338641 
L 463.258033 -15.648812 
L 464.159051 -14.983014 
L 465.060068 -14.346232 
L 465.961085 -13.742348 
L 466.862102 -13.173499 
L 467.76312 -12.639788 
L 468.664137 -12.139366 
L 469.565154 -11.668778 
L 470.466171 -11.223466 
L 471.367189 -10.798319 
L 472.268206 -10.388234 
L 473.169223 -9.988645 
L 474.070241 -9.596005 
L 474.971258 -9.208156 
L 475.872275 -8.824521 
L 476.773292 -8.446045 
L 477.67431 -8.074901 
L 478.575327 -7.71399 
L 479.476344 -7.366381 
L 480.377362 -7.034801 
L 481.278379 -6.721258 
L 482.179396 -6.42685 
L 483.080413 -6.151719 
L 483.981431 -5.895123 
L 484.882448 -5.655587 
L 485.783465 -5.431125 
L 486.684482 -5.219513 
L 487.5855 -5.018613 
L 488.486517 -4.82667 
L 489.387534 -4.642511 
L 490.288552 -4.465606 
L 490.288552 -2.470909 
L 490.288552 -2.470909 
L 489.387534 -2.470909 
L 488.486517 -2.470909 
L 487.5855 -2.470909 
L 486.684482 -2.470909 
L 485.783465 -2.470909 
L 484.882448 -2.470909 
L 483.981431 -2.470909 
L 483.080413 -2.470909 
L 482.179396 -2.470909 
L 481.278379 -2.470909 
L 480.377362 -2.470909 
L 479.476344 -2.470909 
L 478.575327 -2.470909 
L 477.67431 -2.470909 
L 476.773292 -2.470909 
L 475.872275 -2.470909 
L 474.971258 -2.470909 
L 474.070241 -2.470909 
L 473.169223 -2.470909 
L 472.268206 -2.470909 
L 471.367189 -2.470909 
L 470.466171 -2.470909 
L 469.565154 -2.470909 
L 468.664137 -2.470909 
L 467.76312 -2.470909 
L 466.862102 -2.470909 
L 465.961085 -2.470909 
L 465.060068 -2.470909 
L 464.159051 -2.470909 
L 463.258033 -2.470909 
L 462.357016 -2.470909 
L 461.455999 -2.470909 
L 460.554981 -2.470909 
L 459.653964 -2.470909 
L 458.752947 -2.470909 
L 457.85193 -2.470909 
L 456.950912 -2.470909 
L 456.049895 -2.470909 
L 455.148878 -2.470909 
L 454.24786 -2.470909 
L 453.346843 -2.470909 
L 452.445826 -2.470909 
L 451.544809 -2.470909 
L 450.643791 -2.470909 
L 449.742774 -2.470909 
L 448.841757 -2.470909 
L 447.94074 -2.470909 
L 447.039722 -2.470909 
L 446.138705 -2.470909 
L 445.237688 -2.470909 
L 444.33667 -2.470909 
L 443.435653 -2.470909 
L 442.534636 -2.470909 
L 441.633619 -2.470909 
L 440.732601 -2.470909 
L 439.831584 -2.470909 
L 438.930567 -2.470909 
L 438.029549 -2.470909 
L 437.128532 -2.470909 
L 436.227515 -2.470909 
L 435.326498 -2.470909 
L 434.42548 -2.470909 
L 433.524463 -2.470909 
L 432.623446 -2.470909 
L 431.722429 -2.470909 
L 430.821411 -2.470909 
L 429.920394 -2.470909 
L 429.019377 -2.470909 
L 428.118359 -2.470909 
L 427.217342 -2.470909 
L 426.316325 -2.470909 
L 425.415308 -2.470909 
L 424.51429 -2.470909 
L 423.613273 -2.470909 
L 422.712256 -2.470909 
L 421.811238 -2.470909 
L 420.910221 -2.470909 
L 420.009204 -2.470909 
L 419.108187 -2.470909 
L 418.207169 -2.470909 
L 417.306152 -2.470909 
L 416.405135 -2.470909 
L 415.504118 -2.470909 
L 414.6031 -2.470909 
L 413.702083 -2.470909 
L 412.801066 -2.470909 
L 411.900048 -2.470909 
L 410.999031 -2.470909 
L 410.098014 -2.470909 
L 409.196997 -2.470909 
L 408.295979 -2.470909 
L 407.394962 -2.470909 
L 406.493945 -2.470909 
L 405.592927 -2.470909 
L 404.69191 -2.470909 
L 403.790893 -2.470909 
L 402.889876 -2.470909 
L 401.988858 -2.470909 
L 401.087841 -2.470909 
L 400.186824 -2.470909 
L 399.285807 -2.470909 
L 398.384789 -2.470909 
L 397.483772 -2.470909 
L 396.582755 -2.470909 
L 395.681737 -2.470909 
L 394.78072 -2.470909 
L 393.879703 -2.470909 
L 392.978686 -2.470909 
L 392.077668 -2.470909 
L 391.176651 -2.470909 
L 390.275634 -2.470909 
L 389.374617 -2.470909 
L 388.473599 -2.470909 
L 387.572582 -2.470909 
L 386.671565 -2.470909 
L 385.770547 -2.470909 
L 384.86953 -2.470909 
L 383.968513 -2.470909 
L 383.067496 -2.470909 
L 382.166478 -2.470909 
L 381.265461 -2.470909 
L 380.364444 -2.470909 
L 379.463426 -2.470909 
L 378.562409 -2.470909 
L 377.661392 -2.470909 
L 376.760375 -2.470909 
L 375.859357 -2.470909 
L 374.95834 -2.470909 
L 374.057323 -2.470909 
L 373.156306 -2.470909 
L 372.255288 -2.470909 
L 371.354271 -2.470909 
L 370.453254 -2.470909 
L 369.552236 -2.470909 
L 368.651219 -2.470909 
L 367.750202 -2.470909 
L 366.849185 -2.470909 
L 365.948167 -2.470909 
L 365.04715 -2.470909 
L 364.146133 -2.470909 
L 363.245115 -2.470909 
L 362.344098 -2.470909 
L 361.443081 -2.470909 
L 360.542064 -2.470909 
L 359.641046 -2.470909 
L 358.740029 -2.470909 
L 357.839012 -2.470909 
L 356.937995 -2.470909 
z
" style="stroke: #116dc2; stroke-opacity: 0.2"/>
    </defs>
    <g clip-path="url(#pbe3d794cf3)">
     <use xlink:href="#mded0017668" x="0" y="54.36" style="fill: #116dc2; fill-opacity: 0.2; stroke: #116dc2; stroke-opacity: 0.2"/>
    </g>
   </g>
   <g id="PolyCollection_3">
    <defs>
     <path id="m4a05d3431b" d="M 25.363636 -2.470909 
L 25.363636 -4.207599 
L 26.264654 -4.656791 
L 27.165671 -5.47836 
L 28.066688 -6.62188 
L 28.967705 -7.907797 
L 29.868723 -9.554967 
L 30.76974 -11.905423 
L 31.670757 -14.666924 
L 32.571775 -17.333052 
L 33.472792 -19.884914 
L 34.373809 -22.70832 
L 35.274826 -26.15998 
L 36.175844 -30.100064 
L 37.076861 -34.154087 
L 37.977878 -38.168462 
L 38.878896 -42.245325 
L 39.779913 -46.280616 
L 40.68093 -49.445605 
L 41.581947 -51.161146 
L 42.482965 -51.829586 
L 43.383982 -51.889091 
L 44.284999 -51.638183 
L 45.186016 -51.29561 
L 46.087034 -50.382113 
L 46.988051 -48.455698 
L 47.889068 -45.666102 
L 48.790086 -41.92713 
L 49.691103 -37.536011 
L 50.59212 -33.508967 
L 51.493137 -30.222957 
L 52.394155 -27.279281 
L 53.295172 -24.157651 
L 54.196189 -20.614382 
L 55.097207 -17.025791 
L 55.998224 -14.038157 
L 56.899241 -11.860834 
L 57.800258 -10.113018 
L 58.701276 -8.492275 
L 59.602293 -6.980436 
L 60.50331 -5.614998 
L 61.404327 -4.611713 
L 62.305345 -4.052731 
L 62.305345 -2.470909 
L 62.305345 -2.470909 
L 61.404327 -2.470909 
L 60.50331 -2.470909 
L 59.602293 -2.470909 
L 58.701276 -2.470909 
L 57.800258 -2.470909 
L 56.899241 -2.470909 
L 55.998224 -2.470909 
L 55.097207 -2.470909 
L 54.196189 -2.470909 
L 53.295172 -2.470909 
L 52.394155 -2.470909 
L 51.493137 -2.470909 
L 50.59212 -2.470909 
L 49.691103 -2.470909 
L 48.790086 -2.470909 
L 47.889068 -2.470909 
L 46.988051 -2.470909 
L 46.087034 -2.470909 
L 45.186016 -2.470909 
L 44.284999 -2.470909 
L 43.383982 -2.470909 
L 42.482965 -2.470909 
L 41.581947 -2.470909 
L 40.68093 -2.470909 
L 39.779913 -2.470909 
L 38.878896 -2.470909 
L 37.977878 -2.470909 
L 37.076861 -2.470909 
L 36.175844 -2.470909 
L 35.274826 -2.470909 
L 34.373809 -2.470909 
L 33.472792 -2.470909 
L 32.571775 -2.470909 
L 31.670757 -2.470909 
L 30.76974 -2.470909 
L 29.868723 -2.470909 
L 28.967705 -2.470909 
L 28.066688 -2.470909 
L 27.165671 -2.470909 
L 26.264654 -2.470909 
L 25.363636 -2.470909 
z
" style="stroke: #8a8a8a; stroke-opacity: 0.2"/>
    </defs>
    <g clip-path="url(#pbe3d794cf3)">
     <use xlink:href="#m4a05d3431b" x="0" y="54.36" style="fill: #8a8a8a; fill-opacity: 0.2; stroke: #8a8a8a; stroke-opacity: 0.2"/>
    </g>
   </g>
   <g id="line2d_1">
    <path d="M 392.978686 50.401451 
L 396.582755 49.658692 
L 406.493945 47.204807 
L 409.196997 46.306882 
L 411.900048 45.128176 
L 414.6031 43.667699 
L 420.009204 40.340782 
L 424.51429 37.442834 
L 427.217342 35.382487 
L 429.920394 32.988731 
L 434.42548 28.541723 
L 438.029549 25.107648 
L 440.732601 22.833899 
L 443.435653 20.907946 
L 446.138705 19.353488 
L 448.841757 18.098117 
L 453.346843 16.357158 
L 457.85193 14.781364 
L 459.653964 14.317068 
L 461.455999 14.076334 
L 463.258033 14.089291 
L 465.961085 14.425381 
L 471.367189 15.280844 
L 473.169223 15.843478 
L 474.971258 16.79698 
L 476.773292 18.206102 
L 478.575327 19.996942 
L 483.080413 24.834128 
L 484.882448 26.460731 
L 486.684482 27.845893 
L 489.387534 29.635095 
L 498.397707 35.409518 
L 502.902793 38.515993 
L 510.110932 43.752938 
L 511.912966 44.826162 
L 513.715001 45.719247 
L 516.418053 46.743502 
L 520.022122 47.736594 
L 527.23026 49.405659 
L 530.834329 50.033201 
L 532.636364 50.286718 
L 532.636364 50.286718 
" clip-path="url(#pbe3d794cf3)" style="fill: none; stroke: #cf1313; stroke-width: 1.5; stroke-linecap: square"/>
   </g>
   <g id="line2d_2">
    <path d="M 356.937995 50.183896 
L 360.542064 49.402998 
L 365.04715 48.168481 
L 368.651219 46.937103 
L 372.255288 45.404836 
L 379.463426 41.922209 
L 382.166478 40.475489 
L 384.86953 38.776844 
L 387.572582 36.807847 
L 392.978686 32.532358 
L 397.483772 28.7316 
L 402.889876 23.871146 
L 407.394962 19.717092 
L 409.196997 18.275137 
L 410.999031 17.085412 
L 412.801066 16.145645 
L 415.504118 15.085843 
L 418.207169 14.32611 
L 420.910221 13.861428 
L 422.712256 13.760518 
L 424.51429 13.888607 
L 426.316325 14.30504 
L 428.118359 15.038502 
L 429.920394 16.061197 
L 432.623446 17.951047 
L 438.029549 21.899647 
L 441.633619 24.243245 
L 444.33667 25.728269 
L 450.643791 28.866016 
L 452.445826 30.053538 
L 455.148878 32.133875 
L 463.258033 38.711188 
L 465.961085 40.617652 
L 468.664137 42.220634 
L 471.367189 43.561681 
L 476.773292 45.913955 
L 480.377362 47.325199 
L 483.981431 48.464877 
L 487.5855 49.341387 
L 490.288552 49.894394 
L 490.288552 49.894394 
" clip-path="url(#pbe3d794cf3)" style="fill: none; stroke: #116dc2; stroke-width: 1.5; stroke-linecap: square"/>
   </g>
   <g id="line2d_3">
    <path d="M 25.363636 50.152401 
L 26.264654 49.703209 
L 27.165671 48.88164 
L 28.066688 47.73812 
L 28.967705 46.452203 
L 29.868723 44.805033 
L 30.76974 42.454577 
L 31.670757 39.693076 
L 32.571775 37.026948 
L 33.472792 34.475086 
L 34.373809 31.65168 
L 35.274826 28.20002 
L 36.175844 24.259936 
L 37.076861 20.205913 
L 37.977878 16.191538 
L 38.878896 12.114675 
L 39.779913 8.079384 
L 40.68093 4.914395 
L 41.581947 3.198854 
L 42.482965 2.530414 
L 43.383982 2.470909 
L 44.284999 2.721817 
L 45.186016 3.06439 
L 46.087034 3.977887 
L 46.988051 5.904302 
L 47.889068 8.693898 
L 48.790086 12.43287 
L 49.691103 16.823989 
L 50.59212 20.851033 
L 51.493137 24.137043 
L 52.394155 27.080719 
L 53.295172 30.202349 
L 54.196189 33.745618 
L 55.097207 37.334209 
L 55.998224 40.321843 
L 56.899241 42.499166 
L 57.800258 44.246982 
L 58.701276 45.867725 
L 59.602293 47.379564 
L 60.50331 48.745002 
L 61.404327 49.748287 
L 62.305345 50.307269 
" clip-path="url(#pbe3d794cf3)" style="fill: none; stroke: #8a8a8a; stroke-width: 1.5; stroke-linecap: square"/>
   </g>
  </g>
 </g>
 <defs>
  <clipPath id="pbe3d794cf3">
   <rect x="0" y="-0" width="558" height="54.36"/>
  </clipPath>
 </defs>
</svg>
