<?xml version="1.0" encoding="utf-8" standalone="no"?>
<!DOCTYPE svg PUBLIC "-//W3C//DTD SVG 1.1//EN"
  "http://www.w3.org/Graphics/SVG/1.1/DTD/svg11.dtd">
<svg xmlns:xlink="http://www.w3.org/1999/xlink" width="558pt" height="54.36pt" viewBox="0 0 558 54.36" xmlns="http://www.w3.org/2000/svg" version="1.1">
 <metadata>
  <rdf:RDF xmlns:dc="http://purl.org/dc/elements/1.1/" xmlns:cc="http://creativecommons.org/ns#" xmlns:rdf="http://www.w3.org/1999/02/22-rdf-syntax-ns#">
   <cc:Work>
    <dc:type rdf:resource="http://purl.org/dc/dcmitype/StillImage"/>
    <dc:date>2024-09-15T09:31:06.781047</dc:date>
    <dc:format>image/svg+xml</dc:format>
    <dc:creator>
     <cc:Agent>
      <dc:title>Matplotlib v3.5.2, https://matplotlib.org/</dc:title>
     </cc:Agent>
    </dc:creator>
   </cc:Work>
  </rdf:RDF>
 </metadata>
 <defs>
  <style type="text/css">*{stroke-linejoin: round; stroke-linecap: butt}</style>
 </defs>
 <g id="figure_1">
  <g id="patch_1">
   <path d="M 0 54.36 
L 558 54.36 
L 558 0 
L 0 0 
L 0 54.36 
z
" style="fill: none; opacity: 0"/>
  </g>
  <g id="axes_1">
   <g id="PolyCollection_1">
    <defs>
     <path id="ma3fda98799" d="M 394.289256 -2.470909 
L 394.289256 -3.917231 
L 395.193486 -4.058208 
L 396.097715 -4.215531 
L 397.001945 -4.387923 
L 397.906174 -4.573466 
L 398.810404 -4.769925 
L 399.714633 -4.975057 
L 400.618862 -5.186803 
L 401.523092 -5.403398 
L 402.427321 -5.623423 
L 403.331551 -5.845918 
L 404.23578 -6.070576 
L 405.14001 -6.298067 
L 406.044239 -6.530385 
L 406.948469 -6.77111 
L 407.852698 -7.025438 
L 408.756928 -7.299866 
L 409.661157 -7.601546 
L 410.565386 -7.937398 
L 411.469616 -8.31318 
L 412.373845 -8.732718 
L 413.278075 -9.197455 
L 414.182304 -9.706364 
L 415.086534 -10.256158 
L 415.990763 -10.841651 
L 416.894993 -11.456116 
L 417.799222 -12.091583 
L 418.703452 -12.739117 
L 419.607681 -13.389201 
L 420.511911 -14.032388 
L 421.41614 -14.660281 
L 422.320369 -15.266776 
L 423.224599 -15.849319 
L 424.128828 -16.409871 
L 425.033058 -16.955237 
L 425.937287 -17.496578 
L 426.841517 -18.048103 
L 427.745746 -18.62513 
L 428.649976 -19.24189 
L 429.554205 -19.909446 
L 430.458435 -20.634084 
L 431.362664 -21.416395 
L 432.266894 -22.251141 
L 433.171123 -23.127848 
L 434.075352 -24.031987 
L 434.979582 -24.946547 
L 435.883811 -25.85377 
L 436.788041 -26.736843 
L 437.69227 -27.581389 
L 438.5965 -28.376686 
L 439.500729 -29.116569 
L 440.404959 -29.800009 
L 441.309188 -30.431301 
L 442.213418 -31.019781 
L 443.117647 -31.578936 
L 444.021877 -32.124888 
L 444.926106 -32.674363 
L 445.830335 -33.242399 
L 446.734565 -33.840168 
L 447.638794 -34.473261 
L 448.543024 -35.140685 
L 449.447253 -35.83466 
L 450.351483 -36.5412 
L 451.255712 -37.241393 
L 452.159942 -37.913282 
L 453.064171 -38.53419 
L 453.968401 -39.083291 
L 454.87263 -39.544065 
L 455.77686 -39.906233 
L 456.681089 -40.166758 
L 457.585318 -40.329659 
L 458.489548 -40.404651 
L 459.393777 -40.40496 
L 460.298007 -40.344852 
L 461.202236 -40.237543 
L 462.106466 -40.093971 
L 463.010695 -39.92265 
L 463.914925 -39.730394 
L 464.819154 -39.523435 
L 465.723384 -39.308302 
L 466.627613 -39.09193 
L 467.531842 -38.880822 
L 468.436072 -38.679461 
L 469.340301 -38.488535 
L 470.244531 -38.303675 
L 471.14876 -38.115281 
L 472.05299 -37.909711 
L 472.957219 -37.671639 
L 473.861449 -37.387047 
L 474.765678 -37.046083 
L 475.669908 -36.64504 
L 476.574137 -36.186969 
L 477.478367 -35.680767 
L 478.382596 -35.139019 
L 479.286825 -34.575134 
L 480.191055 -34.000483 
L 481.095284 -33.422166 
L 481.999514 -32.841885 
L 482.903743 -32.256067 
L 483.807973 -31.65714 
L 484.712202 -31.035633 
L 485.616432 -30.382597 
L 486.520661 -29.691837 
L 487.424891 -28.961447 
L 488.32912 -28.194359 
L 489.23335 -27.397784 
L 490.137579 -26.581782 
L 491.041808 -25.757393 
L 491.946038 -24.934868 
L 492.850267 -24.122474 
L 493.754497 -23.326082 
L 494.658726 -22.549425 
L 495.562956 -21.794716 
L 496.467185 -21.0632 
L 497.371415 -20.35538 
L 498.275644 -19.670878 
L 499.179874 -19.008096 
L 500.084103 -18.364004 
L 500.988333 -17.73426 
L 501.892562 -17.113761 
L 502.796791 -16.497506 
L 503.701021 -15.88151 
L 504.60525 -15.263518 
L 505.50948 -14.643333 
L 506.413709 -14.022704 
L 507.317939 -13.404863 
L 508.222168 -12.793881 
L 509.126398 -12.194005 
L 510.030627 -11.609122 
L 510.934857 -11.042396 
L 511.839086 -10.496085 
L 512.743316 -9.971498 
L 513.647545 -9.469049 
L 514.551774 -8.988416 
L 515.456004 -8.528798 
L 516.360233 -8.089271 
L 517.264463 -7.669217 
L 518.168692 -7.268733 
L 519.072922 -6.888903 
L 519.977151 -6.531822 
L 520.881381 -6.200294 
L 521.78561 -5.897259 
L 522.68984 -5.62503 
L 523.594069 -5.384577 
L 524.498298 -5.175029 
L 525.402528 -4.99357 
L 526.306757 -4.835766 
L 527.210987 -4.696246 
L 528.115216 -4.569543 
L 529.019446 -4.450871 
L 529.923675 -4.336649 
L 530.827905 -4.22466 
L 531.732134 -4.113899 
L 532.636364 -4.004209 
L 532.636364 -2.470909 
L 532.636364 -2.470909 
L 531.732134 -2.470909 
L 530.827905 -2.470909 
L 529.923675 -2.470909 
L 529.019446 -2.470909 
L 528.115216 -2.470909 
L 527.210987 -2.470909 
L 526.306757 -2.470909 
L 525.402528 -2.470909 
L 524.498298 -2.470909 
L 523.594069 -2.470909 
L 522.68984 -2.470909 
L 521.78561 -2.470909 
L 520.881381 -2.470909 
L 519.977151 -2.470909 
L 519.072922 -2.470909 
L 518.168692 -2.470909 
L 517.264463 -2.470909 
L 516.360233 -2.470909 
L 515.456004 -2.470909 
L 514.551774 -2.470909 
L 513.647545 -2.470909 
L 512.743316 -2.470909 
L 511.839086 -2.470909 
L 510.934857 -2.470909 
L 510.030627 -2.470909 
L 509.126398 -2.470909 
L 508.222168 -2.470909 
L 507.317939 -2.470909 
L 506.413709 -2.470909 
L 505.50948 -2.470909 
L 504.60525 -2.470909 
L 503.701021 -2.470909 
L 502.796791 -2.470909 
L 501.892562 -2.470909 
L 500.988333 -2.470909 
L 500.084103 -2.470909 
L 499.179874 -2.470909 
L 498.275644 -2.470909 
L 497.371415 -2.470909 
L 496.467185 -2.470909 
L 495.562956 -2.470909 
L 494.658726 -2.470909 
L 493.754497 -2.470909 
L 492.850267 -2.470909 
L 491.946038 -2.470909 
L 491.041808 -2.470909 
L 490.137579 -2.470909 
L 489.23335 -2.470909 
L 488.32912 -2.470909 
L 487.424891 -2.470909 
L 486.520661 -2.470909 
L 485.616432 -2.470909 
L 484.712202 -2.470909 
L 483.807973 -2.470909 
L 482.903743 -2.470909 
L 481.999514 -2.470909 
L 481.095284 -2.470909 
L 480.191055 -2.470909 
L 479.286825 -2.470909 
L 478.382596 -2.470909 
L 477.478367 -2.470909 
L 476.574137 -2.470909 
L 475.669908 -2.470909 
L 474.765678 -2.470909 
L 473.861449 -2.470909 
L 472.957219 -2.470909 
L 472.05299 -2.470909 
L 471.14876 -2.470909 
L 470.244531 -2.470909 
L 469.340301 -2.470909 
L 468.436072 -2.470909 
L 467.531842 -2.470909 
L 466.627613 -2.470909 
L 465.723384 -2.470909 
L 464.819154 -2.470909 
L 463.914925 -2.470909 
L 463.010695 -2.470909 
L 462.106466 -2.470909 
L 461.202236 -2.470909 
L 460.298007 -2.470909 
L 459.393777 -2.470909 
L 458.489548 -2.470909 
L 457.585318 -2.470909 
L 456.681089 -2.470909 
L 455.77686 -2.470909 
L 454.87263 -2.470909 
L 453.968401 -2.470909 
L 453.064171 -2.470909 
L 452.159942 -2.470909 
L 451.255712 -2.470909 
L 450.351483 -2.470909 
L 449.447253 -2.470909 
L 448.543024 -2.470909 
L 447.638794 -2.470909 
L 446.734565 -2.470909 
L 445.830335 -2.470909 
L 444.926106 -2.470909 
L 444.021877 -2.470909 
L 443.117647 -2.470909 
L 442.213418 -2.470909 
L 441.309188 -2.470909 
L 440.404959 -2.470909 
L 439.500729 -2.470909 
L 438.5965 -2.470909 
L 437.69227 -2.470909 
L 436.788041 -2.470909 
L 435.883811 -2.470909 
L 434.979582 -2.470909 
L 434.075352 -2.470909 
L 433.171123 -2.470909 
L 432.266894 -2.470909 
L 431.362664 -2.470909 
L 430.458435 -2.470909 
L 429.554205 -2.470909 
L 428.649976 -2.470909 
L 427.745746 -2.470909 
L 426.841517 -2.470909 
L 425.937287 -2.470909 
L 425.033058 -2.470909 
L 424.128828 -2.470909 
L 423.224599 -2.470909 
L 422.320369 -2.470909 
L 421.41614 -2.470909 
L 420.511911 -2.470909 
L 419.607681 -2.470909 
L 418.703452 -2.470909 
L 417.799222 -2.470909 
L 416.894993 -2.470909 
L 415.990763 -2.470909 
L 415.086534 -2.470909 
L 414.182304 -2.470909 
L 413.278075 -2.470909 
L 412.373845 -2.470909 
L 411.469616 -2.470909 
L 410.565386 -2.470909 
L 409.661157 -2.470909 
L 408.756928 -2.470909 
L 407.852698 -2.470909 
L 406.948469 -2.470909 
L 406.044239 -2.470909 
L 405.14001 -2.470909 
L 404.23578 -2.470909 
L 403.331551 -2.470909 
L 402.427321 -2.470909 
L 401.523092 -2.470909 
L 400.618862 -2.470909 
L 399.714633 -2.470909 
L 398.810404 -2.470909 
L 397.906174 -2.470909 
L 397.001945 -2.470909 
L 396.097715 -2.470909 
L 395.193486 -2.470909 
L 394.289256 -2.470909 
z
" style="stroke: #cf1313; stroke-opacity: 0.2"/>
    </defs>
    <g clip-path="url(#p996bc60168)">
     <use xlink:href="#ma3fda98799" x="0" y="54.36" style="fill: #cf1313; fill-opacity: 0.2; stroke: #cf1313; stroke-opacity: 0.2"/>
    </g>
   </g>
   <g id="PolyCollection_2">
    <defs>
     <path id="m7a52ecfcc3" d="M 355.407389 -2.470909 
L 355.407389 -4.022373 
L 356.311619 -4.127917 
L 357.215848 -4.234724 
L 358.120078 -4.344894 
L 359.024307 -4.460907 
L 359.928537 -4.585374 
L 360.832766 -4.720899 
L 361.736996 -4.870084 
L 362.641225 -5.035657 
L 363.545455 -5.220626 
L 364.449684 -5.428338 
L 365.353913 -5.662326 
L 366.258143 -5.925902 
L 367.162372 -6.221546 
L 368.066602 -6.550219 
L 368.970831 -6.910796 
L 369.875061 -7.299794 
L 370.77929 -7.711519 
L 371.68352 -8.138679 
L 372.587749 -8.573402 
L 373.491979 -9.00853 
L 374.396208 -9.439003 
L 375.300438 -9.863075 
L 376.204667 -10.283109 
L 377.108896 -10.705691 
L 378.013126 -11.140904 
L 378.917355 -11.600773 
L 379.821585 -12.097111 
L 380.725814 -12.63921 
L 381.630044 -13.231914 
L 382.534273 -13.874563 
L 383.438503 -14.56111 
L 384.342732 -15.281378 
L 385.246962 -16.023169 
L 386.151191 -16.774694 
L 387.055421 -17.526731 
L 387.95965 -18.274009 
L 388.863879 -19.015544 
L 389.768109 -19.753913 
L 390.672338 -20.493765 
L 391.576568 -21.240053 
L 392.480797 -21.996514 
L 393.385027 -22.764822 
L 394.289256 -23.544555 
L 395.193486 -24.333818 
L 396.097715 -25.130111 
L 397.001945 -25.930993 
L 397.906174 -26.73417 
L 398.810404 -27.536983 
L 399.714633 -28.335525 
L 400.618862 -29.123869 
L 401.523092 -29.893868 
L 402.427321 -30.635814 
L 403.331551 -31.339908 
L 404.23578 -31.998149 
L 405.14001 -32.606069 
L 406.044239 -33.16373 
L 406.948469 -33.675638 
L 407.852698 -34.14959 
L 408.756928 -34.594813 
L 409.661157 -35.019986 
L 410.565386 -35.431729 
L 411.469616 -35.833927 
L 412.373845 -36.227941 
L 413.278075 -36.613464 
L 414.182304 -36.9896 
L 415.086534 -37.355766 
L 415.990763 -37.71214 
L 416.894993 -38.05959 
L 417.799222 -38.399157 
L 418.703452 -38.731251 
L 419.607681 -39.054759 
L 420.511911 -39.366254 
L 421.41614 -39.659496 
L 422.320369 -39.925434 
L 423.224599 -40.152834 
L 424.128828 -40.329565 
L 425.033058 -40.444379 
L 425.937287 -40.488817 
L 426.841517 -40.458791 
L 427.745746 -40.355364 
L 428.649976 -40.184447 
L 429.554205 -39.955395 
L 430.458435 -39.678805 
L 431.362664 -39.364069 
L 432.266894 -39.017359 
L 433.171123 -38.640593 
L 434.075352 -38.231701 
L 434.979582 -37.786064 
L 435.883811 -37.298663 
L 436.788041 -36.766239 
L 437.69227 -36.188783 
L 438.5965 -35.569935 
L 439.500729 -34.916261 
L 440.404959 -34.235728 
L 441.309188 -33.535947 
L 442.213418 -32.822742 
L 443.117647 -32.099435 
L 444.021877 -31.366964 
L 444.926106 -30.62469 
L 445.830335 -29.871571 
L 446.734565 -29.107307 
L 447.638794 -28.333145 
L 448.543024 -27.552104 
L 449.447253 -26.76859 
L 450.351483 -25.987554 
L 451.255712 -25.21345 
L 452.159942 -24.449381 
L 453.064171 -23.696713 
L 453.968401 -22.955339 
L 454.87263 -22.224501 
L 455.77686 -21.503902 
L 456.681089 -20.794694 
L 457.585318 -20.099955 
L 458.489548 -19.424465 
L 459.393777 -18.77378 
L 460.298007 -18.152882 
L 461.202236 -17.564791 
L 462.106466 -17.009533 
L 463.010695 -16.48375 
L 463.914925 -15.981012 
L 464.819154 -15.492745 
L 465.723384 -15.00952 
L 466.627613 -14.52242 
L 467.531842 -14.024242 
L 468.436072 -13.510359 
L 469.340301 -12.979189 
L 470.244531 -12.432258 
L 471.14876 -11.873912 
L 472.05299 -11.310725 
L 472.957219 -10.750679 
L 473.861449 -10.202204 
L 474.765678 -9.673185 
L 475.669908 -9.170074 
L 476.574137 -8.697246 
L 477.478367 -8.256712 
L 478.382596 -7.8482 
L 479.286825 -7.469597 
L 480.191055 -7.117612 
L 481.095284 -6.788522 
L 481.999514 -6.478863 
L 482.903743 -6.185944 
L 483.807973 -5.908164 
L 484.712202 -5.64511 
L 485.616432 -5.397485 
L 486.520661 -5.166884 
L 487.424891 -4.955435 
L 488.32912 -4.76532 
L 489.23335 -4.598207 
L 490.137579 -4.454667 
L 491.041808 -4.333692 
L 491.946038 -4.232466 
L 492.850267 -4.146476 
L 493.754497 -4.070015 
L 494.658726 -3.996986 
L 495.562956 -3.921857 
L 495.562956 -2.470909 
L 495.562956 -2.470909 
L 494.658726 -2.470909 
L 493.754497 -2.470909 
L 492.850267 -2.470909 
L 491.946038 -2.470909 
L 491.041808 -2.470909 
L 490.137579 -2.470909 
L 489.23335 -2.470909 
L 488.32912 -2.470909 
L 487.424891 -2.470909 
L 486.520661 -2.470909 
L 485.616432 -2.470909 
L 484.712202 -2.470909 
L 483.807973 -2.470909 
L 482.903743 -2.470909 
L 481.999514 -2.470909 
L 481.095284 -2.470909 
L 480.191055 -2.470909 
L 479.286825 -2.470909 
L 478.382596 -2.470909 
L 477.478367 -2.470909 
L 476.574137 -2.470909 
L 475.669908 -2.470909 
L 474.765678 -2.470909 
L 473.861449 -2.470909 
L 472.957219 -2.470909 
L 472.05299 -2.470909 
L 471.14876 -2.470909 
L 470.244531 -2.470909 
L 469.340301 -2.470909 
L 468.436072 -2.470909 
L 467.531842 -2.470909 
L 466.627613 -2.470909 
L 465.723384 -2.470909 
L 464.819154 -2.470909 
L 463.914925 -2.470909 
L 463.010695 -2.470909 
L 462.106466 -2.470909 
L 461.202236 -2.470909 
L 460.298007 -2.470909 
L 459.393777 -2.470909 
L 458.489548 -2.470909 
L 457.585318 -2.470909 
L 456.681089 -2.470909 
L 455.77686 -2.470909 
L 454.87263 -2.470909 
L 453.968401 -2.470909 
L 453.064171 -2.470909 
L 452.159942 -2.470909 
L 451.255712 -2.470909 
L 450.351483 -2.470909 
L 449.447253 -2.470909 
L 448.543024 -2.470909 
L 447.638794 -2.470909 
L 446.734565 -2.470909 
L 445.830335 -2.470909 
L 444.926106 -2.470909 
L 444.021877 -2.470909 
L 443.117647 -2.470909 
L 442.213418 -2.470909 
L 441.309188 -2.470909 
L 440.404959 -2.470909 
L 439.500729 -2.470909 
L 438.5965 -2.470909 
L 437.69227 -2.470909 
L 436.788041 -2.470909 
L 435.883811 -2.470909 
L 434.979582 -2.470909 
L 434.075352 -2.470909 
L 433.171123 -2.470909 
L 432.266894 -2.470909 
L 431.362664 -2.470909 
L 430.458435 -2.470909 
L 429.554205 -2.470909 
L 428.649976 -2.470909 
L 427.745746 -2.470909 
L 426.841517 -2.470909 
L 425.937287 -2.470909 
L 425.033058 -2.470909 
L 424.128828 -2.470909 
L 423.224599 -2.470909 
L 422.320369 -2.470909 
L 421.41614 -2.470909 
L 420.511911 -2.470909 
L 419.607681 -2.470909 
L 418.703452 -2.470909 
L 417.799222 -2.470909 
L 416.894993 -2.470909 
L 415.990763 -2.470909 
L 415.086534 -2.470909 
L 414.182304 -2.470909 
L 413.278075 -2.470909 
L 412.373845 -2.470909 
L 411.469616 -2.470909 
L 410.565386 -2.470909 
L 409.661157 -2.470909 
L 408.756928 -2.470909 
L 407.852698 -2.470909 
L 406.948469 -2.470909 
L 406.044239 -2.470909 
L 405.14001 -2.470909 
L 404.23578 -2.470909 
L 403.331551 -2.470909 
L 402.427321 -2.470909 
L 401.523092 -2.470909 
L 400.618862 -2.470909 
L 399.714633 -2.470909 
L 398.810404 -2.470909 
L 397.906174 -2.470909 
L 397.001945 -2.470909 
L 396.097715 -2.470909 
L 395.193486 -2.470909 
L 394.289256 -2.470909 
L 393.385027 -2.470909 
L 392.480797 -2.470909 
L 391.576568 -2.470909 
L 390.672338 -2.470909 
L 389.768109 -2.470909 
L 388.863879 -2.470909 
L 387.95965 -2.470909 
L 387.055421 -2.470909 
L 386.151191 -2.470909 
L 385.246962 -2.470909 
L 384.342732 -2.470909 
L 383.438503 -2.470909 
L 382.534273 -2.470909 
L 381.630044 -2.470909 
L 380.725814 -2.470909 
L 379.821585 -2.470909 
L 378.917355 -2.470909 
L 378.013126 -2.470909 
L 377.108896 -2.470909 
L 376.204667 -2.470909 
L 375.300438 -2.470909 
L 374.396208 -2.470909 
L 373.491979 -2.470909 
L 372.587749 -2.470909 
L 371.68352 -2.470909 
L 370.77929 -2.470909 
L 369.875061 -2.470909 
L 368.970831 -2.470909 
L 368.066602 -2.470909 
L 367.162372 -2.470909 
L 366.258143 -2.470909 
L 365.353913 -2.470909 
L 364.449684 -2.470909 
L 363.545455 -2.470909 
L 362.641225 -2.470909 
L 361.736996 -2.470909 
L 360.832766 -2.470909 
L 359.928537 -2.470909 
L 359.024307 -2.470909 
L 358.120078 -2.470909 
L 357.215848 -2.470909 
L 356.311619 -2.470909 
L 355.407389 -2.470909 
z
" style="stroke: #116dc2; stroke-opacity: 0.2"/>
    </defs>
    <g clip-path="url(#p996bc60168)">
     <use xlink:href="#m7a52ecfcc3" x="0" y="54.36" style="fill: #116dc2; fill-opacity: 0.2; stroke: #116dc2; stroke-opacity: 0.2"/>
    </g>
   </g>
   <g id="PolyCollection_3">
    <defs>
     <path id="md5ff1541b2" d="M 25.363636 -2.470909 
L 25.363636 -4.61511 
L 26.267866 -5.447059 
L 27.172095 -6.521792 
L 28.076325 -7.767483 
L 28.980554 -9.226519 
L 29.884784 -10.938838 
L 30.789013 -12.864512 
L 31.693243 -15.116546 
L 32.597472 -17.838017 
L 33.501702 -20.860971 
L 34.405931 -23.966808 
L 35.31016 -27.46812 
L 36.21439 -31.646136 
L 37.118619 -35.774905 
L 38.022849 -38.818475 
L 38.927078 -41.040731 
L 39.831308 -43.698868 
L 40.735537 -46.971811 
L 41.639767 -49.499996 
L 42.543996 -50.57477 
L 43.448226 -51.034309 
L 44.352455 -51.562779 
L 45.256684 -51.889091 
L 46.160914 -51.13671 
L 47.065143 -48.864484 
L 47.969373 -45.6968 
L 48.873602 -42.270044 
L 49.777832 -38.543364 
L 50.682061 -34.37308 
L 51.586291 -30.14168 
L 52.49052 -26.513525 
L 53.39475 -23.420633 
L 54.298979 -20.054968 
L 55.203209 -16.389429 
L 56.107438 -13.190328 
L 57.011667 -10.833333 
L 57.915897 -9.358978 
L 58.820126 -8.466194 
L 59.724356 -7.535933 
L 60.628585 -6.354192 
L 61.532815 -5.217484 
L 61.532815 -2.470909 
L 61.532815 -2.470909 
L 60.628585 -2.470909 
L 59.724356 -2.470909 
L 58.820126 -2.470909 
L 57.915897 -2.470909 
L 57.011667 -2.470909 
L 56.107438 -2.470909 
L 55.203209 -2.470909 
L 54.298979 -2.470909 
L 53.39475 -2.470909 
L 52.49052 -2.470909 
L 51.586291 -2.470909 
L 50.682061 -2.470909 
L 49.777832 -2.470909 
L 48.873602 -2.470909 
L 47.969373 -2.470909 
L 47.065143 -2.470909 
L 46.160914 -2.470909 
L 45.256684 -2.470909 
L 44.352455 -2.470909 
L 43.448226 -2.470909 
L 42.543996 -2.470909 
L 41.639767 -2.470909 
L 40.735537 -2.470909 
L 39.831308 -2.470909 
L 38.927078 -2.470909 
L 38.022849 -2.470909 
L 37.118619 -2.470909 
L 36.21439 -2.470909 
L 35.31016 -2.470909 
L 34.405931 -2.470909 
L 33.501702 -2.470909 
L 32.597472 -2.470909 
L 31.693243 -2.470909 
L 30.789013 -2.470909 
L 29.884784 -2.470909 
L 28.980554 -2.470909 
L 28.076325 -2.470909 
L 27.172095 -2.470909 
L 26.267866 -2.470909 
L 25.363636 -2.470909 
z
" style="stroke: #8a8a8a; stroke-opacity: 0.2"/>
    </defs>
    <g clip-path="url(#p996bc60168)">
     <use xlink:href="#md5ff1541b2" x="0" y="54.36" style="fill: #8a8a8a; fill-opacity: 0.2; stroke: #8a8a8a; stroke-opacity: 0.2"/>
    </g>
   </g>
   <g id="line2d_1">
    <path d="M 394.289256 50.442769 
L 397.906174 49.786534 
L 403.331551 48.514082 
L 408.756928 47.060134 
L 411.469616 46.04682 
L 413.278075 45.162545 
L 415.990763 43.518349 
L 425.937287 36.863422 
L 428.649976 35.11811 
L 430.458435 33.725916 
L 433.171123 31.232152 
L 437.69227 26.778611 
L 439.500729 25.243431 
L 441.309188 23.928699 
L 449.447253 18.52534 
L 453.064171 15.82581 
L 454.87263 14.815935 
L 456.681089 14.193242 
L 458.489548 13.955349 
L 460.298007 14.015148 
L 463.010695 14.43735 
L 472.05299 16.450289 
L 473.861449 16.972953 
L 475.669908 17.71496 
L 477.478367 18.679233 
L 481.095284 20.937834 
L 484.712202 23.324367 
L 487.424891 25.398553 
L 491.041808 28.602607 
L 495.562956 32.565284 
L 499.179874 35.351904 
L 504.60525 39.096482 
L 510.934857 43.317604 
L 513.647545 44.890951 
L 517.264463 46.690783 
L 519.977151 47.828178 
L 522.68984 48.73497 
L 525.402528 49.36643 
L 529.019446 49.909129 
L 532.636364 50.355791 
L 532.636364 50.355791 
" clip-path="url(#p996bc60168)" style="fill: none; stroke: #cf1313; stroke-width: 1.5; stroke-linecap: square"/>
   </g>
   <g id="line2d_2">
    <path d="M 355.407389 50.337627 
L 361.736996 49.489916 
L 364.449684 48.931662 
L 367.162372 48.138454 
L 369.875061 47.060206 
L 377.108896 43.654309 
L 379.821585 42.262889 
L 381.630044 41.128086 
L 384.342732 39.078622 
L 394.289256 30.815445 
L 403.331551 23.020092 
L 405.14001 21.753931 
L 407.852698 20.21041 
L 411.469616 18.526073 
L 415.990763 16.64786 
L 420.511911 14.993746 
L 423.224599 14.207166 
L 425.033058 13.915621 
L 426.841517 13.901209 
L 428.649976 14.175553 
L 430.458435 14.681195 
L 433.171123 15.719407 
L 435.883811 17.061337 
L 437.69227 18.171217 
L 440.404959 20.124272 
L 444.926106 23.73531 
L 451.255712 29.14655 
L 455.77686 32.856098 
L 459.393777 35.58622 
L 462.106466 37.350467 
L 465.723384 39.35048 
L 469.340301 41.380811 
L 476.574137 45.662754 
L 479.286825 46.890403 
L 481.999514 47.881137 
L 485.616432 48.962515 
L 488.32912 49.59468 
L 491.041808 50.026308 
L 495.562956 50.438143 
L 495.562956 50.438143 
" clip-path="url(#p996bc60168)" style="fill: none; stroke: #116dc2; stroke-width: 1.5; stroke-linecap: square"/>
   </g>
   <g id="line2d_3">
    <path d="M 25.363636 49.74489 
L 26.267866 48.912941 
L 27.172095 47.838208 
L 28.076325 46.592517 
L 28.980554 45.133481 
L 29.884784 43.421162 
L 30.789013 41.495488 
L 31.693243 39.243454 
L 32.597472 36.521983 
L 33.501702 33.499029 
L 34.405931 30.393192 
L 35.31016 26.89188 
L 36.21439 22.713864 
L 37.118619 18.585095 
L 38.022849 15.541525 
L 38.927078 13.319269 
L 39.831308 10.661132 
L 40.735537 7.388189 
L 41.639767 4.860004 
L 42.543996 3.78523 
L 43.448226 3.325691 
L 44.352455 2.797221 
L 45.256684 2.470909 
L 46.160914 3.22329 
L 47.065143 5.495516 
L 47.969373 8.6632 
L 48.873602 12.089956 
L 49.777832 15.816636 
L 50.682061 19.98692 
L 51.586291 24.21832 
L 52.49052 27.846475 
L 53.39475 30.939367 
L 54.298979 34.305032 
L 55.203209 37.970571 
L 56.107438 41.169672 
L 57.011667 43.526667 
L 57.915897 45.001022 
L 58.820126 45.893806 
L 59.724356 46.824067 
L 60.628585 48.005808 
L 61.532815 49.142516 
" clip-path="url(#p996bc60168)" style="fill: none; stroke: #8a8a8a; stroke-width: 1.5; stroke-linecap: square"/>
   </g>
  </g>
 </g>
 <defs>
  <clipPath id="p996bc60168">
   <rect x="0" y="-0" width="558" height="54.36"/>
  </clipPath>
 </defs>
</svg>
