<?xml version="1.0" encoding="utf-8" standalone="no"?>
<!DOCTYPE svg PUBLIC "-//W3C//DTD SVG 1.1//EN"
  "http://www.w3.org/Graphics/SVG/1.1/DTD/svg11.dtd">
<svg xmlns:xlink="http://www.w3.org/1999/xlink" width="558pt" height="54.36pt" viewBox="0 0 558 54.36" xmlns="http://www.w3.org/2000/svg" version="1.1">
 <metadata>
  <rdf:RDF xmlns:dc="http://purl.org/dc/elements/1.1/" xmlns:cc="http://creativecommons.org/ns#" xmlns:rdf="http://www.w3.org/1999/02/22-rdf-syntax-ns#">
   <cc:Work>
    <dc:type rdf:resource="http://purl.org/dc/dcmitype/StillImage"/>
    <dc:date>2024-09-14T12:47:14.498041</dc:date>
    <dc:format>image/svg+xml</dc:format>
    <dc:creator>
     <cc:Agent>
      <dc:title>Matplotlib v3.5.2, https://matplotlib.org/</dc:title>
     </cc:Agent>
    </dc:creator>
   </cc:Work>
  </rdf:RDF>
 </metadata>
 <defs>
  <style type="text/css">*{stroke-linejoin: round; stroke-linecap: butt}</style>
 </defs>
 <g id="figure_1">
  <g id="patch_1">
   <path d="M 0 54.36 
L 558 54.36 
L 558 0 
L 0 0 
L 0 54.36 
z
" style="fill: none; opacity: 0"/>
  </g>
  <g id="axes_1">
   <g id="PolyCollection_1">
    <defs>
     <path id="m14e49889d8" d="M 397.2365 -2.470909 
L 397.2365 -4.18312 
L 398.190021 -4.331717 
L 399.143541 -4.482424 
L 400.097061 -4.636199 
L 401.050581 -4.795055 
L 402.004101 -4.962045 
L 402.957621 -5.140977 
L 403.911141 -5.335843 
L 404.864662 -5.55011 
L 405.818182 -5.786068 
L 406.771702 -6.044442 
L 407.725222 -6.324397 
L 408.678742 -6.624003 
L 409.632262 -6.941058 
L 410.585783 -7.274102 
L 411.539303 -7.62336 
L 412.492823 -7.991305 
L 413.446343 -8.382614 
L 414.399863 -8.803433 
L 415.353383 -9.260102 
L 416.306904 -9.757672 
L 417.260424 -10.29864 
L 418.213944 -10.882246 
L 419.167464 -11.504494 
L 420.120984 -12.158822 
L 421.074504 -12.837219 
L 422.028025 -13.531525 
L 422.981545 -14.23465 
L 423.935065 -14.941558 
L 424.888585 -15.649851 
L 425.842105 -16.359891 
L 426.795625 -17.07444 
L 427.749146 -17.79793 
L 428.702666 -18.535549 
L 429.656186 -19.292403 
L 430.609706 -20.072943 
L 431.563226 -20.880698 
L 432.516746 -21.718192 
L 433.470267 -22.586818 
L 434.423787 -23.486473 
L 435.377307 -24.414931 
L 436.330827 -25.367132 
L 437.284347 -26.334733 
L 438.237867 -27.30625 
L 439.191388 -28.267981 
L 440.144908 -29.205569 
L 441.098428 -30.105853 
L 442.051948 -30.958485 
L 443.005468 -31.756909 
L 443.958988 -32.498558 
L 444.912509 -33.184438 
L 445.866029 -33.818473 
L 446.819549 -34.406965 
L 447.773069 -34.958254 
L 448.726589 -35.482356 
L 449.680109 -35.990149 
L 450.63363 -36.491842 
L 451.58715 -36.994806 
L 452.54067 -37.501406 
L 453.49419 -38.007716 
L 454.44771 -38.503939 
L 455.40123 -38.976722 
L 456.354751 -39.412823 
L 457.308271 -39.802884 
L 458.261791 -40.14389 
L 459.215311 -40.439294 
L 460.168831 -40.696695 
L 461.122351 -40.92389 
L 462.075871 -41.124816 
L 463.029392 -41.296912 
L 463.982912 -41.430873 
L 464.936432 -41.512799 
L 465.889952 -41.527877 
L 466.843472 -41.464284 
L 467.796992 -41.316106 
L 468.750513 -41.08464 
L 469.704033 -40.778071 
L 470.657553 -40.409966 
L 471.611073 -39.997103 
L 472.564593 -39.557069 
L 473.518113 -39.105865 
L 474.471634 -38.655793 
L 475.425154 -38.21395 
L 476.378674 -37.78166 
L 477.332194 -37.355021 
L 478.285714 -36.926374 
L 479.239234 -36.486195 
L 480.192755 -36.02476 
L 481.146275 -35.533151 
L 482.099795 -35.003531 
L 483.053315 -34.429019 
L 484.006835 -33.803638 
L 484.960355 -33.122703 
L 485.913876 -32.383664 
L 486.867396 -31.587113 
L 487.820916 -30.737483 
L 488.774436 -29.843053 
L 489.727956 -28.915152 
L 490.681476 -27.966739 
L 491.634997 -27.010756 
L 492.588517 -26.058658 
L 493.542037 -25.119394 
L 494.495557 -24.198905 
L 495.449077 -23.300086 
L 496.402597 -22.423114 
L 497.356118 -21.566127 
L 498.309638 -20.726257 
L 499.263158 -19.900981 
L 500.216678 -19.089598 
L 501.170198 -18.294441 
L 502.123718 -17.521334 
L 503.077239 -16.778948 
L 504.030759 -16.076998 
L 504.984279 -15.423638 
L 505.937799 -14.822762 
L 506.891319 -14.272009 
L 507.844839 -13.762149 
L 508.79836 -13.278088 
L 509.75188 -12.801325 
L 510.7054 -12.313245 
L 511.65892 -11.798502 
L 512.61244 -11.247786 
L 513.56596 -10.659494 
L 514.519481 -10.040118 
L 515.473001 -9.4034 
L 516.426521 -8.768423 
L 517.380041 -8.156909 
L 518.333561 -7.590052 
L 519.287081 -7.085345 
L 520.240602 -6.653914 
L 521.194122 -6.298924 
L 522.147642 -6.015412 
L 523.101162 -5.791618 
L 524.054682 -5.61151 
L 525.008202 -5.457882 
L 525.961722 -5.315292 
L 526.915243 -5.172208 
L 527.868763 -5.021999 
L 528.822283 -4.862753 
L 529.775803 -4.696223 
L 530.729323 -4.52634 
L 531.682843 -4.357761 
L 532.636364 -4.194766 
L 532.636364 -2.470909 
L 532.636364 -2.470909 
L 531.682843 -2.470909 
L 530.729323 -2.470909 
L 529.775803 -2.470909 
L 528.822283 -2.470909 
L 527.868763 -2.470909 
L 526.915243 -2.470909 
L 525.961722 -2.470909 
L 525.008202 -2.470909 
L 524.054682 -2.470909 
L 523.101162 -2.470909 
L 522.147642 -2.470909 
L 521.194122 -2.470909 
L 520.240602 -2.470909 
L 519.287081 -2.470909 
L 518.333561 -2.470909 
L 517.380041 -2.470909 
L 516.426521 -2.470909 
L 515.473001 -2.470909 
L 514.519481 -2.470909 
L 513.56596 -2.470909 
L 512.61244 -2.470909 
L 511.65892 -2.470909 
L 510.7054 -2.470909 
L 509.75188 -2.470909 
L 508.79836 -2.470909 
L 507.844839 -2.470909 
L 506.891319 -2.470909 
L 505.937799 -2.470909 
L 504.984279 -2.470909 
L 504.030759 -2.470909 
L 503.077239 -2.470909 
L 502.123718 -2.470909 
L 501.170198 -2.470909 
L 500.216678 -2.470909 
L 499.263158 -2.470909 
L 498.309638 -2.470909 
L 497.356118 -2.470909 
L 496.402597 -2.470909 
L 495.449077 -2.470909 
L 494.495557 -2.470909 
L 493.542037 -2.470909 
L 492.588517 -2.470909 
L 491.634997 -2.470909 
L 490.681476 -2.470909 
L 489.727956 -2.470909 
L 488.774436 -2.470909 
L 487.820916 -2.470909 
L 486.867396 -2.470909 
L 485.913876 -2.470909 
L 484.960355 -2.470909 
L 484.006835 -2.470909 
L 483.053315 -2.470909 
L 482.099795 -2.470909 
L 481.146275 -2.470909 
L 480.192755 -2.470909 
L 479.239234 -2.470909 
L 478.285714 -2.470909 
L 477.332194 -2.470909 
L 476.378674 -2.470909 
L 475.425154 -2.470909 
L 474.471634 -2.470909 
L 473.518113 -2.470909 
L 472.564593 -2.470909 
L 471.611073 -2.470909 
L 470.657553 -2.470909 
L 469.704033 -2.470909 
L 468.750513 -2.470909 
L 467.796992 -2.470909 
L 466.843472 -2.470909 
L 465.889952 -2.470909 
L 464.936432 -2.470909 
L 463.982912 -2.470909 
L 463.029392 -2.470909 
L 462.075871 -2.470909 
L 461.122351 -2.470909 
L 460.168831 -2.470909 
L 459.215311 -2.470909 
L 458.261791 -2.470909 
L 457.308271 -2.470909 
L 456.354751 -2.470909 
L 455.40123 -2.470909 
L 454.44771 -2.470909 
L 453.49419 -2.470909 
L 452.54067 -2.470909 
L 451.58715 -2.470909 
L 450.63363 -2.470909 
L 449.680109 -2.470909 
L 448.726589 -2.470909 
L 447.773069 -2.470909 
L 446.819549 -2.470909 
L 445.866029 -2.470909 
L 444.912509 -2.470909 
L 443.958988 -2.470909 
L 443.005468 -2.470909 
L 442.051948 -2.470909 
L 441.098428 -2.470909 
L 440.144908 -2.470909 
L 439.191388 -2.470909 
L 438.237867 -2.470909 
L 437.284347 -2.470909 
L 436.330827 -2.470909 
L 435.377307 -2.470909 
L 434.423787 -2.470909 
L 433.470267 -2.470909 
L 432.516746 -2.470909 
L 431.563226 -2.470909 
L 430.609706 -2.470909 
L 429.656186 -2.470909 
L 428.702666 -2.470909 
L 427.749146 -2.470909 
L 426.795625 -2.470909 
L 425.842105 -2.470909 
L 424.888585 -2.470909 
L 423.935065 -2.470909 
L 422.981545 -2.470909 
L 422.028025 -2.470909 
L 421.074504 -2.470909 
L 420.120984 -2.470909 
L 419.167464 -2.470909 
L 418.213944 -2.470909 
L 417.260424 -2.470909 
L 416.306904 -2.470909 
L 415.353383 -2.470909 
L 414.399863 -2.470909 
L 413.446343 -2.470909 
L 412.492823 -2.470909 
L 411.539303 -2.470909 
L 410.585783 -2.470909 
L 409.632262 -2.470909 
L 408.678742 -2.470909 
L 407.725222 -2.470909 
L 406.771702 -2.470909 
L 405.818182 -2.470909 
L 404.864662 -2.470909 
L 403.911141 -2.470909 
L 402.957621 -2.470909 
L 402.004101 -2.470909 
L 401.050581 -2.470909 
L 400.097061 -2.470909 
L 399.143541 -2.470909 
L 398.190021 -2.470909 
L 397.2365 -2.470909 
z
" style="stroke: #cf1313; stroke-opacity: 0.2"/>
    </defs>
    <g clip-path="url(#pcb079e87b1)">
     <use xlink:href="#m14e49889d8" x="0" y="54.36" style="fill: #cf1313; fill-opacity: 0.2; stroke: #cf1313; stroke-opacity: 0.2"/>
    </g>
   </g>
   <g id="PolyCollection_2">
    <defs>
     <path id="mfb2e5ff5db" d="M 384.840738 -2.470909 
L 384.840738 -4.088973 
L 385.794258 -4.226446 
L 386.747779 -4.371532 
L 387.701299 -4.526714 
L 388.654819 -4.694702 
L 389.608339 -4.87819 
L 390.561859 -5.079575 
L 391.515379 -5.300692 
L 392.4689 -5.542588 
L 393.42242 -5.805413 
L 394.37594 -6.088457 
L 395.32946 -6.390355 
L 396.28298 -6.709428 
L 397.2365 -7.044109 
L 398.190021 -7.393391 
L 399.143541 -7.757241 
L 400.097061 -8.136938 
L 401.050581 -8.535242 
L 402.004101 -8.956314 
L 402.957621 -9.40524 
L 403.911141 -9.887153 
L 404.864662 -10.406035 
L 405.818182 -10.963529 
L 406.771702 -11.558158 
L 407.725222 -12.1853 
L 408.678742 -12.83804 
L 409.632262 -13.508679 
L 410.585783 -14.19046 
L 411.539303 -14.879012 
L 412.492823 -15.573144 
L 413.446343 -16.274893 
L 414.399863 -16.988912 
L 415.353383 -17.721371 
L 416.306904 -18.478553 
L 417.260424 -19.265317 
L 418.213944 -20.083674 
L 419.167464 -20.931823 
L 420.120984 -21.804024 
L 421.074504 -22.69155 
L 422.028025 -23.584615 
L 422.981545 -24.474778 
L 423.935065 -25.357045 
L 424.888585 -26.230944 
L 425.842105 -27.100145 
L 426.795625 -27.970769 
L 427.749146 -28.848988 
L 428.702666 -29.738742 
L 429.656186 -30.640283 
L 430.609706 -31.549881 
L 431.563226 -32.460577 
L 432.516746 -33.363536 
L 433.470267 -34.249439 
L 434.423787 -35.10945 
L 435.377307 -35.935523 
L 436.330827 -36.720096 
L 437.284347 -37.455446 
L 438.237867 -38.133159 
L 439.191388 -38.744142 
L 440.144908 -39.279476 
L 441.098428 -39.732081 
L 442.051948 -40.098827 
L 443.005468 -40.382432 
L 443.958988 -40.592431 
L 444.912509 -40.744688 
L 445.866029 -40.859244 
L 446.819549 -40.956809 
L 447.773069 -41.054563 
L 448.726589 -41.162247 
L 449.680109 -41.279568 
L 450.63363 -41.395738 
L 451.58715 -41.491514 
L 452.54067 -41.543452 
L 453.49419 -41.529443 
L 454.44771 -41.434098 
L 455.40123 -41.252498 
L 456.354751 -40.991164 
L 457.308271 -40.66593 
L 458.261791 -40.297294 
L 459.215311 -39.904671 
L 460.168831 -39.501275 
L 461.122351 -39.091148 
L 462.075871 -38.669053 
L 463.029392 -38.223006 
L 463.982912 -37.738355 
L 464.936432 -37.201958 
L 465.889952 -36.605248 
L 466.843472 -35.945574 
L 467.796992 -35.22595 
L 468.750513 -34.453912 
L 469.704033 -33.64024 
L 470.657553 -32.798134 
L 471.611073 -31.942925 
L 472.564593 -31.092003 
L 473.518113 -30.2644 
L 474.471634 -29.479483 
L 475.425154 -28.754502 
L 476.378674 -28.101199 
L 477.332194 -27.5222 
L 478.285714 -27.008259 
L 479.239234 -26.537545 
L 480.192755 -26.077764 
L 481.146275 -25.591192 
L 482.099795 -25.04172 
L 483.053315 -24.402244 
L 484.006835 -23.660401 
L 484.960355 -22.821034 
L 485.913876 -21.90465 
L 486.867396 -20.942312 
L 487.820916 -19.968439 
L 488.774436 -19.013468 
L 489.727956 -18.098299 
L 490.681476 -17.231764 
L 491.634997 -16.411466 
L 492.588517 -15.627354 
L 493.542037 -14.866747 
L 494.495557 -14.11923 
L 495.449077 -13.380107 
L 496.402597 -12.65165 
L 497.356118 -11.942145 
L 498.309638 -11.263349 
L 499.263158 -10.627323 
L 500.216678 -10.043587 
L 501.170198 -9.517237 
L 502.123718 -9.048268 
L 503.077239 -8.631982 
L 504.030759 -8.260164 
L 504.984279 -7.922658 
L 505.937799 -7.609041 
L 506.891319 -7.310143 
L 507.844839 -7.019245 
L 508.79836 -6.732768 
L 509.75188 -6.450343 
L 510.7054 -6.174225 
L 511.65892 -5.908158 
L 512.61244 -5.655968 
L 513.56596 -5.420236 
L 514.519481 -5.201423 
L 515.473001 -4.997673 
L 516.426521 -4.805331 
L 517.380041 -4.619968 
L 517.380041 -2.470909 
L 517.380041 -2.470909 
L 516.426521 -2.470909 
L 515.473001 -2.470909 
L 514.519481 -2.470909 
L 513.56596 -2.470909 
L 512.61244 -2.470909 
L 511.65892 -2.470909 
L 510.7054 -2.470909 
L 509.75188 -2.470909 
L 508.79836 -2.470909 
L 507.844839 -2.470909 
L 506.891319 -2.470909 
L 505.937799 -2.470909 
L 504.984279 -2.470909 
L 504.030759 -2.470909 
L 503.077239 -2.470909 
L 502.123718 -2.470909 
L 501.170198 -2.470909 
L 500.216678 -2.470909 
L 499.263158 -2.470909 
L 498.309638 -2.470909 
L 497.356118 -2.470909 
L 496.402597 -2.470909 
L 495.449077 -2.470909 
L 494.495557 -2.470909 
L 493.542037 -2.470909 
L 492.588517 -2.470909 
L 491.634997 -2.470909 
L 490.681476 -2.470909 
L 489.727956 -2.470909 
L 488.774436 -2.470909 
L 487.820916 -2.470909 
L 486.867396 -2.470909 
L 485.913876 -2.470909 
L 484.960355 -2.470909 
L 484.006835 -2.470909 
L 483.053315 -2.470909 
L 482.099795 -2.470909 
L 481.146275 -2.470909 
L 480.192755 -2.470909 
L 479.239234 -2.470909 
L 478.285714 -2.470909 
L 477.332194 -2.470909 
L 476.378674 -2.470909 
L 475.425154 -2.470909 
L 474.471634 -2.470909 
L 473.518113 -2.470909 
L 472.564593 -2.470909 
L 471.611073 -2.470909 
L 470.657553 -2.470909 
L 469.704033 -2.470909 
L 468.750513 -2.470909 
L 467.796992 -2.470909 
L 466.843472 -2.470909 
L 465.889952 -2.470909 
L 464.936432 -2.470909 
L 463.982912 -2.470909 
L 463.029392 -2.470909 
L 462.075871 -2.470909 
L 461.122351 -2.470909 
L 460.168831 -2.470909 
L 459.215311 -2.470909 
L 458.261791 -2.470909 
L 457.308271 -2.470909 
L 456.354751 -2.470909 
L 455.40123 -2.470909 
L 454.44771 -2.470909 
L 453.49419 -2.470909 
L 452.54067 -2.470909 
L 451.58715 -2.470909 
L 450.63363 -2.470909 
L 449.680109 -2.470909 
L 448.726589 -2.470909 
L 447.773069 -2.470909 
L 446.819549 -2.470909 
L 445.866029 -2.470909 
L 444.912509 -2.470909 
L 443.958988 -2.470909 
L 443.005468 -2.470909 
L 442.051948 -2.470909 
L 441.098428 -2.470909 
L 440.144908 -2.470909 
L 439.191388 -2.470909 
L 438.237867 -2.470909 
L 437.284347 -2.470909 
L 436.330827 -2.470909 
L 435.377307 -2.470909 
L 434.423787 -2.470909 
L 433.470267 -2.470909 
L 432.516746 -2.470909 
L 431.563226 -2.470909 
L 430.609706 -2.470909 
L 429.656186 -2.470909 
L 428.702666 -2.470909 
L 427.749146 -2.470909 
L 426.795625 -2.470909 
L 425.842105 -2.470909 
L 424.888585 -2.470909 
L 423.935065 -2.470909 
L 422.981545 -2.470909 
L 422.028025 -2.470909 
L 421.074504 -2.470909 
L 420.120984 -2.470909 
L 419.167464 -2.470909 
L 418.213944 -2.470909 
L 417.260424 -2.470909 
L 416.306904 -2.470909 
L 415.353383 -2.470909 
L 414.399863 -2.470909 
L 413.446343 -2.470909 
L 412.492823 -2.470909 
L 411.539303 -2.470909 
L 410.585783 -2.470909 
L 409.632262 -2.470909 
L 408.678742 -2.470909 
L 407.725222 -2.470909 
L 406.771702 -2.470909 
L 405.818182 -2.470909 
L 404.864662 -2.470909 
L 403.911141 -2.470909 
L 402.957621 -2.470909 
L 402.004101 -2.470909 
L 401.050581 -2.470909 
L 400.097061 -2.470909 
L 399.143541 -2.470909 
L 398.190021 -2.470909 
L 397.2365 -2.470909 
L 396.28298 -2.470909 
L 395.32946 -2.470909 
L 394.37594 -2.470909 
L 393.42242 -2.470909 
L 392.4689 -2.470909 
L 391.515379 -2.470909 
L 390.561859 -2.470909 
L 389.608339 -2.470909 
L 388.654819 -2.470909 
L 387.701299 -2.470909 
L 386.747779 -2.470909 
L 385.794258 -2.470909 
L 384.840738 -2.470909 
z
" style="stroke: #116dc2; stroke-opacity: 0.2"/>
    </defs>
    <g clip-path="url(#pcb079e87b1)">
     <use xlink:href="#mfb2e5ff5db" x="0" y="54.36" style="fill: #116dc2; fill-opacity: 0.2; stroke: #116dc2; stroke-opacity: 0.2"/>
    </g>
   </g>
   <g id="PolyCollection_3">
    <defs>
     <path id="ma3e3e13d36" d="M 25.363636 -2.470909 
L 25.363636 -5.26433 
L 26.317157 -6.051197 
L 27.270677 -6.945974 
L 28.224197 -7.934023 
L 29.177717 -9.025633 
L 30.131237 -10.380757 
L 31.084757 -12.251383 
L 32.038278 -14.62202 
L 32.991798 -17.168797 
L 33.945318 -19.682265 
L 34.898838 -22.289807 
L 35.852358 -25.080097 
L 36.805878 -27.860993 
L 37.759398 -30.57426 
L 38.712919 -33.391153 
L 39.666439 -36.361327 
L 40.619959 -39.403593 
L 41.573479 -42.318789 
L 42.526999 -44.841508 
L 43.480519 -46.992843 
L 44.43404 -49.001623 
L 45.38756 -50.794953 
L 46.34108 -51.889091 
L 47.2946 -51.876375 
L 48.24812 -50.919901 
L 49.20164 -49.343502 
L 50.155161 -46.95864 
L 51.108681 -43.735804 
L 52.062201 -40.357128 
L 53.015721 -37.215116 
L 53.969241 -34.164672 
L 54.922761 -31.341099 
L 55.876282 -28.935694 
L 56.829802 -26.529735 
L 57.783322 -23.602088 
L 58.736842 -20.314526 
L 59.690362 -17.251104 
L 60.643882 -14.741084 
L 61.597403 -12.653219 
L 62.550923 -10.73772 
L 63.504443 -8.997197 
L 64.457963 -7.585774 
L 65.411483 -6.530637 
L 66.365003 -5.700279 
L 67.318524 -4.965895 
L 67.318524 -2.470909 
L 67.318524 -2.470909 
L 66.365003 -2.470909 
L 65.411483 -2.470909 
L 64.457963 -2.470909 
L 63.504443 -2.470909 
L 62.550923 -2.470909 
L 61.597403 -2.470909 
L 60.643882 -2.470909 
L 59.690362 -2.470909 
L 58.736842 -2.470909 
L 57.783322 -2.470909 
L 56.829802 -2.470909 
L 55.876282 -2.470909 
L 54.922761 -2.470909 
L 53.969241 -2.470909 
L 53.015721 -2.470909 
L 52.062201 -2.470909 
L 51.108681 -2.470909 
L 50.155161 -2.470909 
L 49.20164 -2.470909 
L 48.24812 -2.470909 
L 47.2946 -2.470909 
L 46.34108 -2.470909 
L 45.38756 -2.470909 
L 44.43404 -2.470909 
L 43.480519 -2.470909 
L 42.526999 -2.470909 
L 41.573479 -2.470909 
L 40.619959 -2.470909 
L 39.666439 -2.470909 
L 38.712919 -2.470909 
L 37.759398 -2.470909 
L 36.805878 -2.470909 
L 35.852358 -2.470909 
L 34.898838 -2.470909 
L 33.945318 -2.470909 
L 32.991798 -2.470909 
L 32.038278 -2.470909 
L 31.084757 -2.470909 
L 30.131237 -2.470909 
L 29.177717 -2.470909 
L 28.224197 -2.470909 
L 27.270677 -2.470909 
L 26.317157 -2.470909 
L 25.363636 -2.470909 
z
" style="stroke: #8a8a8a; stroke-opacity: 0.2"/>
    </defs>
    <g clip-path="url(#pcb079e87b1)">
     <use xlink:href="#ma3e3e13d36" x="0" y="54.36" style="fill: #8a8a8a; fill-opacity: 0.2; stroke: #8a8a8a; stroke-opacity: 0.2"/>
    </g>
   </g>
   <g id="line2d_1">
    <path d="M 397.2365 50.17688 
L 402.957621 49.219023 
L 405.818182 48.573932 
L 408.678742 47.735997 
L 412.492823 46.368695 
L 415.353383 45.099898 
L 417.260424 44.06136 
L 420.120984 42.201178 
L 425.842105 38.000109 
L 429.656186 35.067597 
L 432.516746 32.641808 
L 435.377307 29.945069 
L 442.051948 23.401515 
L 443.958988 21.861442 
L 445.866029 20.541527 
L 448.726589 18.877644 
L 455.40123 15.383278 
L 457.308271 14.557116 
L 459.215311 13.920706 
L 462.075871 13.235184 
L 463.982912 12.929127 
L 465.889952 12.832123 
L 467.796992 13.043894 
L 469.704033 13.581929 
L 472.564593 14.802931 
L 482.099795 19.356469 
L 484.006835 20.556362 
L 485.913876 21.976336 
L 487.820916 23.622517 
L 491.634997 27.349244 
L 495.449077 31.059914 
L 499.263158 34.459019 
L 503.077239 37.581052 
L 504.984279 38.936362 
L 506.891319 40.087991 
L 513.56596 43.700506 
L 518.333561 46.769948 
L 520.240602 47.706086 
L 522.147642 48.344588 
L 525.008202 48.902118 
L 531.682843 50.002239 
L 532.636364 50.165234 
L 532.636364 50.165234 
" clip-path="url(#pcb079e87b1)" style="fill: none; stroke: #cf1313; stroke-width: 1.5; stroke-linecap: square"/>
   </g>
   <g id="line2d_2">
    <path d="M 384.840738 50.271027 
L 389.608339 49.48181 
L 392.4689 48.817412 
L 395.32946 47.969645 
L 399.143541 46.602759 
L 402.004101 45.403686 
L 404.864662 43.953965 
L 407.725222 42.1747 
L 412.492823 38.786856 
L 416.306904 35.881447 
L 419.167464 33.428177 
L 429.656186 23.719717 
L 434.423787 19.25055 
L 437.284347 16.904554 
L 439.191388 15.615858 
L 441.098428 14.627919 
L 443.005468 13.977568 
L 444.912509 13.615312 
L 451.58715 12.868486 
L 453.49419 12.830557 
L 455.40123 13.107502 
L 457.308271 13.69407 
L 461.122351 15.268852 
L 463.982912 16.621645 
L 465.889952 17.754752 
L 467.796992 19.13405 
L 470.657553 21.561866 
L 474.471634 24.880517 
L 476.378674 26.258801 
L 478.285714 27.351741 
L 482.099795 29.31828 
L 484.006835 30.699599 
L 485.913876 32.45535 
L 490.681476 37.128236 
L 493.542037 39.493253 
L 498.309638 43.096651 
L 500.216678 44.316413 
L 502.123718 45.311732 
L 504.030759 46.099836 
L 507.844839 47.340755 
L 512.61244 48.704032 
L 516.426521 49.554669 
L 517.380041 49.740032 
L 517.380041 49.740032 
" clip-path="url(#pcb079e87b1)" style="fill: none; stroke: #116dc2; stroke-width: 1.5; stroke-linecap: square"/>
   </g>
   <g id="line2d_3">
    <path d="M 25.363636 49.09567 
L 26.317157 48.308803 
L 27.270677 47.414026 
L 28.224197 46.425977 
L 29.177717 45.334367 
L 30.131237 43.979243 
L 31.084757 42.108617 
L 32.038278 39.73798 
L 32.991798 37.191203 
L 33.945318 34.677735 
L 34.898838 32.070193 
L 35.852358 29.279903 
L 36.805878 26.499007 
L 37.759398 23.78574 
L 38.712919 20.968847 
L 39.666439 17.998673 
L 40.619959 14.956407 
L 41.573479 12.041211 
L 42.526999 9.518492 
L 43.480519 7.367157 
L 44.43404 5.358377 
L 45.38756 3.565047 
L 46.34108 2.470909 
L 47.2946 2.483625 
L 48.24812 3.440099 
L 49.20164 5.016498 
L 50.155161 7.40136 
L 51.108681 10.624196 
L 52.062201 14.002872 
L 53.015721 17.144884 
L 53.969241 20.195328 
L 54.922761 23.018901 
L 55.876282 25.424306 
L 56.829802 27.830265 
L 57.783322 30.757912 
L 58.736842 34.045474 
L 59.690362 37.108896 
L 60.643882 39.618916 
L 61.597403 41.706781 
L 62.550923 43.62228 
L 63.504443 45.362803 
L 64.457963 46.774226 
L 65.411483 47.829363 
L 66.365003 48.659721 
L 67.318524 49.394105 
" clip-path="url(#pcb079e87b1)" style="fill: none; stroke: #8a8a8a; stroke-width: 1.5; stroke-linecap: square"/>
   </g>
  </g>
 </g>
 <defs>
  <clipPath id="pcb079e87b1">
   <rect x="0" y="-0" width="558" height="54.36"/>
  </clipPath>
 </defs>
</svg>
