<?xml version="1.0" encoding="utf-8" standalone="no"?>
<!DOCTYPE svg PUBLIC "-//W3C//DTD SVG 1.1//EN"
  "http://www.w3.org/Graphics/SVG/1.1/DTD/svg11.dtd">
<svg xmlns:xlink="http://www.w3.org/1999/xlink" width="558pt" height="54.36pt" viewBox="0 0 558 54.36" xmlns="http://www.w3.org/2000/svg" version="1.1">
 <metadata>
  <rdf:RDF xmlns:dc="http://purl.org/dc/elements/1.1/" xmlns:cc="http://creativecommons.org/ns#" xmlns:rdf="http://www.w3.org/1999/02/22-rdf-syntax-ns#">
   <cc:Work>
    <dc:type rdf:resource="http://purl.org/dc/dcmitype/StillImage"/>
    <dc:date>2024-09-15T09:31:16.836082</dc:date>
    <dc:format>image/svg+xml</dc:format>
    <dc:creator>
     <cc:Agent>
      <dc:title>Matplotlib v3.5.2, https://matplotlib.org/</dc:title>
     </cc:Agent>
    </dc:creator>
   </cc:Work>
  </rdf:RDF>
 </metadata>
 <defs>
  <style type="text/css">*{stroke-linejoin: round; stroke-linecap: butt}</style>
 </defs>
 <g id="figure_1">
  <g id="patch_1">
   <path d="M 0 54.36 
L 558 54.36 
L 558 0 
L 0 0 
L 0 54.36 
z
" style="fill: none; opacity: 0"/>
  </g>
  <g id="axes_1">
   <g id="PolyCollection_1">
    <defs>
     <path id="mf5bae15318" d="M 400.097061 -2.470909 
L 400.097061 -4.696145 
L 401.050581 -4.936628 
L 402.004101 -5.184326 
L 402.957621 -5.435465 
L 403.911141 -5.68623 
L 404.864662 -5.933636 
L 405.818182 -6.176364 
L 406.771702 -6.415359 
L 407.725222 -6.654007 
L 408.678742 -6.897797 
L 409.632262 -7.153478 
L 410.585783 -7.427865 
L 411.539303 -7.726537 
L 412.492823 -8.05277 
L 413.446343 -8.406999 
L 414.399863 -8.786975 
L 415.353383 -9.188606 
L 416.306904 -9.607272 
L 417.260424 -10.03925 
L 418.213944 -10.482921 
L 419.167464 -10.939431 
L 420.120984 -11.41271 
L 421.074504 -11.908876 
L 422.028025 -12.435231 
L 422.981545 -12.99915 
L 423.935065 -13.607153 
L 424.888585 -14.264351 
L 425.842105 -14.974255 
L 426.795625 -15.738759 
L 427.749146 -16.558027 
L 428.702666 -17.430056 
L 429.656186 -18.349948 
L 430.609706 -19.309176 
L 431.563226 -20.2953 
L 432.516746 -21.2926 
L 433.470267 -22.283801 
L 434.423787 -23.252669 
L 435.377307 -24.186875 
L 436.330827 -25.080281 
L 437.284347 -25.933896 
L 438.237867 -26.755083 
L 439.191388 -27.55514 
L 440.144908 -28.34589 
L 441.098428 -29.136277 
L 442.051948 -29.929989 
L 443.005468 -30.724868 
L 443.958988 -31.514245 
L 444.912509 -32.28974 
L 445.866029 -33.044528 
L 446.819549 -33.775906 
L 447.773069 -34.486246 
L 448.726589 -35.181956 
L 449.680109 -35.870755 
L 450.63363 -36.558105 
L 451.58715 -37.243887 
L 452.54067 -37.92037 
L 453.49419 -38.572157 
L 454.44771 -39.178308 
L 455.40123 -39.716317 
L 456.354751 -40.167087 
L 457.308271 -40.519736 
L 458.261791 -40.774934 
L 459.215311 -40.945722 
L 460.168831 -41.055342 
L 461.122351 -41.132416 
L 462.075871 -41.204633 
L 463.029392 -41.292632 
L 463.982912 -41.405776 
L 464.936432 -41.540949 
L 465.889952 -41.68455 
L 466.843472 -41.816856 
L 467.796992 -41.917239 
L 468.750513 -41.968629 
L 469.704033 -41.960124 
L 470.657553 -41.887417 
L 471.611073 -41.751499 
L 472.564593 -41.556498 
L 473.518113 -41.307512 
L 474.471634 -41.009005 
L 475.425154 -40.663946 
L 476.378674 -40.273636 
L 477.332194 -39.838027 
L 478.285714 -39.356304 
L 479.239234 -38.827512 
L 480.192755 -38.251006 
L 481.146275 -37.626631 
L 482.099795 -36.95468 
L 483.053315 -36.235842 
L 484.006835 -35.471424 
L 484.960355 -34.663948 
L 485.913876 -33.818021 
L 486.867396 -32.941042 
L 487.820916 -32.043283 
L 488.774436 -31.137008 
L 489.727956 -30.234667 
L 490.681476 -29.346628 
L 491.634997 -28.479122 
L 492.588517 -27.633059 
L 493.542037 -26.804091 
L 494.495557 -25.983841 
L 495.449077 -25.161897 
L 496.402597 -24.328013 
L 497.356118 -23.47405 
L 498.309638 -22.595362 
L 499.263158 -21.691592 
L 500.216678 -20.7669 
L 501.170198 -19.829684 
L 502.123718 -18.891809 
L 503.077239 -17.967334 
L 504.030759 -17.070809 
L 504.984279 -16.215323 
L 505.937799 -15.410632 
L 506.891319 -14.661797 
L 507.844839 -13.968699 
L 508.79836 -13.326597 
L 509.75188 -12.727627 
L 510.7054 -12.162801 
L 511.65892 -11.623925 
L 512.61244 -11.104879 
L 513.56596 -10.601975 
L 514.519481 -10.113441 
L 515.473001 -9.638415 
L 516.426521 -9.175967 
L 517.380041 -8.724594 
L 518.333561 -8.282387 
L 519.287081 -7.847777 
L 520.240602 -7.420491 
L 521.194122 -7.002321 
L 522.147642 -6.597363 
L 523.101162 -6.211584 
L 524.054682 -5.851825 
L 525.008202 -5.524477 
L 525.961722 -5.234189 
L 526.915243 -4.982899 
L 527.868763 -4.769424 
L 528.822283 -4.589679 
L 529.775803 -4.437447 
L 530.729323 -4.305511 
L 531.682843 -4.186856 
L 532.636364 -4.07567 
L 532.636364 -2.470909 
L 532.636364 -2.470909 
L 531.682843 -2.470909 
L 530.729323 -2.470909 
L 529.775803 -2.470909 
L 528.822283 -2.470909 
L 527.868763 -2.470909 
L 526.915243 -2.470909 
L 525.961722 -2.470909 
L 525.008202 -2.470909 
L 524.054682 -2.470909 
L 523.101162 -2.470909 
L 522.147642 -2.470909 
L 521.194122 -2.470909 
L 520.240602 -2.470909 
L 519.287081 -2.470909 
L 518.333561 -2.470909 
L 517.380041 -2.470909 
L 516.426521 -2.470909 
L 515.473001 -2.470909 
L 514.519481 -2.470909 
L 513.56596 -2.470909 
L 512.61244 -2.470909 
L 511.65892 -2.470909 
L 510.7054 -2.470909 
L 509.75188 -2.470909 
L 508.79836 -2.470909 
L 507.844839 -2.470909 
L 506.891319 -2.470909 
L 505.937799 -2.470909 
L 504.984279 -2.470909 
L 504.030759 -2.470909 
L 503.077239 -2.470909 
L 502.123718 -2.470909 
L 501.170198 -2.470909 
L 500.216678 -2.470909 
L 499.263158 -2.470909 
L 498.309638 -2.470909 
L 497.356118 -2.470909 
L 496.402597 -2.470909 
L 495.449077 -2.470909 
L 494.495557 -2.470909 
L 493.542037 -2.470909 
L 492.588517 -2.470909 
L 491.634997 -2.470909 
L 490.681476 -2.470909 
L 489.727956 -2.470909 
L 488.774436 -2.470909 
L 487.820916 -2.470909 
L 486.867396 -2.470909 
L 485.913876 -2.470909 
L 484.960355 -2.470909 
L 484.006835 -2.470909 
L 483.053315 -2.470909 
L 482.099795 -2.470909 
L 481.146275 -2.470909 
L 480.192755 -2.470909 
L 479.239234 -2.470909 
L 478.285714 -2.470909 
L 477.332194 -2.470909 
L 476.378674 -2.470909 
L 475.425154 -2.470909 
L 474.471634 -2.470909 
L 473.518113 -2.470909 
L 472.564593 -2.470909 
L 471.611073 -2.470909 
L 470.657553 -2.470909 
L 469.704033 -2.470909 
L 468.750513 -2.470909 
L 467.796992 -2.470909 
L 466.843472 -2.470909 
L 465.889952 -2.470909 
L 464.936432 -2.470909 
L 463.982912 -2.470909 
L 463.029392 -2.470909 
L 462.075871 -2.470909 
L 461.122351 -2.470909 
L 460.168831 -2.470909 
L 459.215311 -2.470909 
L 458.261791 -2.470909 
L 457.308271 -2.470909 
L 456.354751 -2.470909 
L 455.40123 -2.470909 
L 454.44771 -2.470909 
L 453.49419 -2.470909 
L 452.54067 -2.470909 
L 451.58715 -2.470909 
L 450.63363 -2.470909 
L 449.680109 -2.470909 
L 448.726589 -2.470909 
L 447.773069 -2.470909 
L 446.819549 -2.470909 
L 445.866029 -2.470909 
L 444.912509 -2.470909 
L 443.958988 -2.470909 
L 443.005468 -2.470909 
L 442.051948 -2.470909 
L 441.098428 -2.470909 
L 440.144908 -2.470909 
L 439.191388 -2.470909 
L 438.237867 -2.470909 
L 437.284347 -2.470909 
L 436.330827 -2.470909 
L 435.377307 -2.470909 
L 434.423787 -2.470909 
L 433.470267 -2.470909 
L 432.516746 -2.470909 
L 431.563226 -2.470909 
L 430.609706 -2.470909 
L 429.656186 -2.470909 
L 428.702666 -2.470909 
L 427.749146 -2.470909 
L 426.795625 -2.470909 
L 425.842105 -2.470909 
L 424.888585 -2.470909 
L 423.935065 -2.470909 
L 422.981545 -2.470909 
L 422.028025 -2.470909 
L 421.074504 -2.470909 
L 420.120984 -2.470909 
L 419.167464 -2.470909 
L 418.213944 -2.470909 
L 417.260424 -2.470909 
L 416.306904 -2.470909 
L 415.353383 -2.470909 
L 414.399863 -2.470909 
L 413.446343 -2.470909 
L 412.492823 -2.470909 
L 411.539303 -2.470909 
L 410.585783 -2.470909 
L 409.632262 -2.470909 
L 408.678742 -2.470909 
L 407.725222 -2.470909 
L 406.771702 -2.470909 
L 405.818182 -2.470909 
L 404.864662 -2.470909 
L 403.911141 -2.470909 
L 402.957621 -2.470909 
L 402.004101 -2.470909 
L 401.050581 -2.470909 
L 400.097061 -2.470909 
z
" style="stroke: #cf1313; stroke-opacity: 0.2"/>
    </defs>
    <g clip-path="url(#peaf0fc530c)">
     <use xlink:href="#mf5bae15318" x="0" y="54.36" style="fill: #cf1313; fill-opacity: 0.2; stroke: #cf1313; stroke-opacity: 0.2"/>
    </g>
   </g>
   <g id="PolyCollection_2">
    <defs>
     <path id="m8c953f4b3a" d="M 386.747779 -2.470909 
L 386.747779 -4.276848 
L 387.701299 -4.393869 
L 388.654819 -4.504899 
L 389.608339 -4.613441 
L 390.561859 -4.724859 
L 391.515379 -4.845584 
L 392.4689 -4.982305 
L 393.42242 -5.141385 
L 394.37594 -5.328572 
L 395.32946 -5.548993 
L 396.28298 -5.80727 
L 397.2365 -6.107564 
L 398.190021 -6.453375 
L 399.143541 -6.84704 
L 400.097061 -7.288994 
L 401.050581 -7.777033 
L 402.004101 -8.305886 
L 402.957621 -8.867384 
L 403.911141 -9.451327 
L 404.864662 -10.046952 
L 405.818182 -10.644655 
L 406.771702 -11.237572 
L 407.725222 -11.822634 
L 408.678742 -12.40093 
L 409.632262 -12.977385 
L 410.585783 -13.559919 
L 411.539303 -14.158285 
L 412.492823 -14.782742 
L 413.446343 -15.442668 
L 414.399863 -16.145214 
L 415.353383 -16.894154 
L 416.306904 -17.68918 
L 417.260424 -18.525886 
L 418.213944 -19.396577 
L 419.167464 -20.291767 
L 420.120984 -21.201964 
L 421.074504 -22.119102 
L 422.028025 -23.037071 
L 422.981545 -23.95111 
L 423.935065 -24.856361 
L 424.888585 -25.746367 
L 425.842105 -26.612423 
L 426.795625 -27.444395 
L 427.749146 -28.232953 
L 428.702666 -28.972468 
L 429.656186 -29.663409 
L 430.609706 -30.313237 
L 431.563226 -30.935373 
L 432.516746 -31.546572 
L 433.470267 -32.163614 
L 434.423787 -32.800337 
L 435.377307 -33.465729 
L 436.330827 -34.163255 
L 437.284347 -34.891145 
L 438.237867 -35.643148 
L 439.191388 -36.409389 
L 440.144908 -37.177207 
L 441.098428 -37.93207 
L 442.051948 -38.658686 
L 443.005468 -39.342231 
L 443.958988 -39.969511 
L 444.912509 -40.529787 
L 445.866029 -41.015153 
L 446.819549 -41.420568 
L 447.773069 -41.743743 
L 448.726589 -41.985047 
L 449.680109 -42.147407 
L 450.63363 -42.236045 
L 451.58715 -42.257884 
L 452.54067 -42.220668 
L 453.49419 -42.131985 
L 454.44771 -41.998556 
L 455.40123 -41.825953 
L 456.354751 -41.618735 
L 457.308271 -41.38069 
L 458.261791 -41.114831 
L 459.215311 -40.822941 
L 460.168831 -40.504809 
L 461.122351 -40.157577 
L 462.075871 -39.775732 
L 463.029392 -39.352027 
L 463.982912 -38.879221 
L 464.936432 -38.352054 
L 465.889952 -37.768741 
L 466.843472 -37.131431 
L 467.796992 -36.445525 
L 468.750513 -35.718217 
L 469.704033 -34.956907 
L 470.657553 -34.168107 
L 471.611073 -33.357156 
L 472.564593 -32.528762 
L 473.518113 -31.688064 
L 474.471634 -30.841737 
L 475.425154 -29.998673 
L 476.378674 -29.169779 
L 477.332194 -28.366679 
L 478.285714 -27.599386 
L 479.239234 -26.873444 
L 480.192755 -26.187421 
L 481.146275 -25.531739 
L 482.099795 -24.88959 
L 483.053315 -24.240032 
L 484.006835 -23.562535 
L 484.960355 -22.841656 
L 485.913876 -22.070347 
L 486.867396 -21.250889 
L 487.820916 -20.393269 
L 488.774436 -19.511747 
L 489.727956 -18.620929 
L 490.681476 -17.732642 
L 491.634997 -16.854439 
L 492.588517 -15.98983 
L 493.542037 -15.139714 
L 494.495557 -14.304253 
L 495.449077 -13.484513 
L 496.402597 -12.683476 
L 497.356118 -11.906358 
L 498.309638 -11.160328 
L 499.263158 -10.453753 
L 500.216678 -9.795112 
L 501.170198 -9.191726 
L 502.123718 -8.648506 
L 503.077239 -8.166978 
L 504.030759 -7.744854 
L 504.984279 -7.376305 
L 505.937799 -7.052946 
L 506.891319 -6.765314 
L 507.844839 -6.504468 
L 508.79836 -6.263286 
L 509.75188 -6.037108 
L 510.7054 -5.823584 
L 511.65892 -5.621858 
L 512.61244 -5.431451 
L 513.56596 -5.251278 
L 514.519481 -5.079189 
L 515.473001 -4.912155 
L 516.426521 -4.747001 
L 517.380041 -4.581337 
L 518.333561 -4.414321 
L 519.287081 -4.246957 
L 519.287081 -2.470909 
L 519.287081 -2.470909 
L 518.333561 -2.470909 
L 517.380041 -2.470909 
L 516.426521 -2.470909 
L 515.473001 -2.470909 
L 514.519481 -2.470909 
L 513.56596 -2.470909 
L 512.61244 -2.470909 
L 511.65892 -2.470909 
L 510.7054 -2.470909 
L 509.75188 -2.470909 
L 508.79836 -2.470909 
L 507.844839 -2.470909 
L 506.891319 -2.470909 
L 505.937799 -2.470909 
L 504.984279 -2.470909 
L 504.030759 -2.470909 
L 503.077239 -2.470909 
L 502.123718 -2.470909 
L 501.170198 -2.470909 
L 500.216678 -2.470909 
L 499.263158 -2.470909 
L 498.309638 -2.470909 
L 497.356118 -2.470909 
L 496.402597 -2.470909 
L 495.449077 -2.470909 
L 494.495557 -2.470909 
L 493.542037 -2.470909 
L 492.588517 -2.470909 
L 491.634997 -2.470909 
L 490.681476 -2.470909 
L 489.727956 -2.470909 
L 488.774436 -2.470909 
L 487.820916 -2.470909 
L 486.867396 -2.470909 
L 485.913876 -2.470909 
L 484.960355 -2.470909 
L 484.006835 -2.470909 
L 483.053315 -2.470909 
L 482.099795 -2.470909 
L 481.146275 -2.470909 
L 480.192755 -2.470909 
L 479.239234 -2.470909 
L 478.285714 -2.470909 
L 477.332194 -2.470909 
L 476.378674 -2.470909 
L 475.425154 -2.470909 
L 474.471634 -2.470909 
L 473.518113 -2.470909 
L 472.564593 -2.470909 
L 471.611073 -2.470909 
L 470.657553 -2.470909 
L 469.704033 -2.470909 
L 468.750513 -2.470909 
L 467.796992 -2.470909 
L 466.843472 -2.470909 
L 465.889952 -2.470909 
L 464.936432 -2.470909 
L 463.982912 -2.470909 
L 463.029392 -2.470909 
L 462.075871 -2.470909 
L 461.122351 -2.470909 
L 460.168831 -2.470909 
L 459.215311 -2.470909 
L 458.261791 -2.470909 
L 457.308271 -2.470909 
L 456.354751 -2.470909 
L 455.40123 -2.470909 
L 454.44771 -2.470909 
L 453.49419 -2.470909 
L 452.54067 -2.470909 
L 451.58715 -2.470909 
L 450.63363 -2.470909 
L 449.680109 -2.470909 
L 448.726589 -2.470909 
L 447.773069 -2.470909 
L 446.819549 -2.470909 
L 445.866029 -2.470909 
L 444.912509 -2.470909 
L 443.958988 -2.470909 
L 443.005468 -2.470909 
L 442.051948 -2.470909 
L 441.098428 -2.470909 
L 440.144908 -2.470909 
L 439.191388 -2.470909 
L 438.237867 -2.470909 
L 437.284347 -2.470909 
L 436.330827 -2.470909 
L 435.377307 -2.470909 
L 434.423787 -2.470909 
L 433.470267 -2.470909 
L 432.516746 -2.470909 
L 431.563226 -2.470909 
L 430.609706 -2.470909 
L 429.656186 -2.470909 
L 428.702666 -2.470909 
L 427.749146 -2.470909 
L 426.795625 -2.470909 
L 425.842105 -2.470909 
L 424.888585 -2.470909 
L 423.935065 -2.470909 
L 422.981545 -2.470909 
L 422.028025 -2.470909 
L 421.074504 -2.470909 
L 420.120984 -2.470909 
L 419.167464 -2.470909 
L 418.213944 -2.470909 
L 417.260424 -2.470909 
L 416.306904 -2.470909 
L 415.353383 -2.470909 
L 414.399863 -2.470909 
L 413.446343 -2.470909 
L 412.492823 -2.470909 
L 411.539303 -2.470909 
L 410.585783 -2.470909 
L 409.632262 -2.470909 
L 408.678742 -2.470909 
L 407.725222 -2.470909 
L 406.771702 -2.470909 
L 405.818182 -2.470909 
L 404.864662 -2.470909 
L 403.911141 -2.470909 
L 402.957621 -2.470909 
L 402.004101 -2.470909 
L 401.050581 -2.470909 
L 400.097061 -2.470909 
L 399.143541 -2.470909 
L 398.190021 -2.470909 
L 397.2365 -2.470909 
L 396.28298 -2.470909 
L 395.32946 -2.470909 
L 394.37594 -2.470909 
L 393.42242 -2.470909 
L 392.4689 -2.470909 
L 391.515379 -2.470909 
L 390.561859 -2.470909 
L 389.608339 -2.470909 
L 388.654819 -2.470909 
L 387.701299 -2.470909 
L 386.747779 -2.470909 
z
" style="stroke: #116dc2; stroke-opacity: 0.2"/>
    </defs>
    <g clip-path="url(#peaf0fc530c)">
     <use xlink:href="#m8c953f4b3a" x="0" y="54.36" style="fill: #116dc2; fill-opacity: 0.2; stroke: #116dc2; stroke-opacity: 0.2"/>
    </g>
   </g>
   <g id="PolyCollection_3">
    <defs>
     <path id="m10efd05872" d="M 25.363636 -2.470909 
L 25.363636 -4.736815 
L 26.317157 -5.559343 
L 27.270677 -6.525751 
L 28.224197 -7.577115 
L 29.177717 -8.683219 
L 30.131237 -9.929309 
L 31.084757 -11.476117 
L 32.038278 -13.546018 
L 32.991798 -16.326997 
L 33.945318 -19.657571 
L 34.898838 -22.984409 
L 35.852358 -25.952229 
L 36.805878 -28.781744 
L 37.759398 -31.67589 
L 38.712919 -34.349721 
L 39.666439 -36.667648 
L 40.619959 -39.145721 
L 41.573479 -42.187212 
L 42.526999 -45.426722 
L 43.480519 -48.33298 
L 44.43404 -50.626367 
L 45.38756 -51.857677 
L 46.34108 -51.889091 
L 47.2946 -51.580118 
L 48.24812 -51.657287 
L 49.20164 -51.764801 
L 50.155161 -51.327551 
L 51.108681 -50.087881 
L 52.062201 -47.618586 
L 53.015721 -43.88227 
L 53.969241 -39.873037 
L 54.922761 -36.259408 
L 55.876282 -32.694351 
L 56.829802 -29.014929 
L 57.783322 -25.59117 
L 58.736842 -22.584883 
L 59.690362 -19.846495 
L 60.643882 -17.298138 
L 61.597403 -14.969972 
L 62.550923 -12.909713 
L 63.504443 -11.08637 
L 64.457963 -9.401922 
L 65.411483 -7.896408 
L 66.365003 -6.693213 
L 67.318524 -5.799813 
L 68.272044 -5.132562 
L 69.225564 -4.61177 
L 69.225564 -2.470909 
L 69.225564 -2.470909 
L 68.272044 -2.470909 
L 67.318524 -2.470909 
L 66.365003 -2.470909 
L 65.411483 -2.470909 
L 64.457963 -2.470909 
L 63.504443 -2.470909 
L 62.550923 -2.470909 
L 61.597403 -2.470909 
L 60.643882 -2.470909 
L 59.690362 -2.470909 
L 58.736842 -2.470909 
L 57.783322 -2.470909 
L 56.829802 -2.470909 
L 55.876282 -2.470909 
L 54.922761 -2.470909 
L 53.969241 -2.470909 
L 53.015721 -2.470909 
L 52.062201 -2.470909 
L 51.108681 -2.470909 
L 50.155161 -2.470909 
L 49.20164 -2.470909 
L 48.24812 -2.470909 
L 47.2946 -2.470909 
L 46.34108 -2.470909 
L 45.38756 -2.470909 
L 44.43404 -2.470909 
L 43.480519 -2.470909 
L 42.526999 -2.470909 
L 41.573479 -2.470909 
L 40.619959 -2.470909 
L 39.666439 -2.470909 
L 38.712919 -2.470909 
L 37.759398 -2.470909 
L 36.805878 -2.470909 
L 35.852358 -2.470909 
L 34.898838 -2.470909 
L 33.945318 -2.470909 
L 32.991798 -2.470909 
L 32.038278 -2.470909 
L 31.084757 -2.470909 
L 30.131237 -2.470909 
L 29.177717 -2.470909 
L 28.224197 -2.470909 
L 27.270677 -2.470909 
L 26.317157 -2.470909 
L 25.363636 -2.470909 
z
" style="stroke: #8a8a8a; stroke-opacity: 0.2"/>
    </defs>
    <g clip-path="url(#peaf0fc530c)">
     <use xlink:href="#m10efd05872" x="0" y="54.36" style="fill: #8a8a8a; fill-opacity: 0.2; stroke: #8a8a8a; stroke-opacity: 0.2"/>
    </g>
   </g>
   <g id="line2d_1">
    <path d="M 400.097061 49.663855 
L 410.585783 46.932135 
L 413.446343 45.953001 
L 417.260424 44.32075 
L 421.074504 42.451124 
L 423.935065 40.752847 
L 425.842105 39.385745 
L 427.749146 37.801973 
L 430.609706 35.050824 
L 436.330827 29.279719 
L 440.144908 26.01411 
L 446.819549 20.584094 
L 452.54067 16.43963 
L 454.44771 15.181692 
L 456.354751 14.192913 
L 458.261791 13.585066 
L 460.168831 13.304658 
L 464.936432 12.819051 
L 467.796992 12.442761 
L 469.704033 12.399876 
L 471.611073 12.608501 
L 473.518113 13.052488 
L 475.425154 13.696054 
L 477.332194 14.521973 
L 479.239234 15.532488 
L 481.146275 16.733369 
L 483.053315 18.124158 
L 485.913876 20.541979 
L 495.449077 29.198103 
L 499.263158 32.668408 
L 504.984279 38.144677 
L 506.891319 39.698203 
L 508.79836 41.033403 
L 511.65892 42.736075 
L 515.473001 44.721585 
L 520.240602 46.939509 
L 524.054682 48.508175 
L 526.915243 49.377101 
L 529.775803 49.922553 
L 532.636364 50.28433 
L 532.636364 50.28433 
" clip-path="url(#peaf0fc530c)" style="fill: none; stroke: #cf1313; stroke-width: 1.5; stroke-linecap: square"/>
   </g>
   <g id="line2d_2">
    <path d="M 386.747779 50.083152 
L 393.42242 49.218615 
L 396.28298 48.55273 
L 398.190021 47.906625 
L 400.097061 47.071006 
L 402.957621 45.492616 
L 412.492823 39.577258 
L 415.353383 37.465846 
L 418.213944 34.963423 
L 427.749146 26.127047 
L 430.609706 24.046763 
L 436.330827 20.196745 
L 443.958988 14.390489 
L 445.866029 13.344847 
L 447.773069 12.616257 
L 449.680109 12.212593 
L 451.58715 12.102116 
L 453.49419 12.228015 
L 455.40123 12.534047 
L 458.261791 13.245169 
L 461.122351 14.202423 
L 463.029392 15.007973 
L 464.936432 16.007946 
L 466.843472 17.228569 
L 469.704033 19.403093 
L 473.518113 22.671936 
L 478.285714 26.760614 
L 481.146275 28.828261 
L 484.960355 31.518344 
L 487.820916 33.966731 
L 495.449077 40.875487 
L 498.309638 43.199672 
L 500.216678 44.564888 
L 502.123718 45.711494 
L 504.030759 46.615146 
L 505.937799 47.307054 
L 508.79836 48.096714 
L 512.61244 48.928549 
L 519.287081 50.113043 
L 519.287081 50.113043 
" clip-path="url(#peaf0fc530c)" style="fill: none; stroke: #116dc2; stroke-width: 1.5; stroke-linecap: square"/>
   </g>
   <g id="line2d_3">
    <path d="M 25.363636 49.623185 
L 26.317157 48.800657 
L 27.270677 47.834249 
L 28.224197 46.782885 
L 29.177717 45.676781 
L 30.131237 44.430691 
L 31.084757 42.883883 
L 32.038278 40.813982 
L 32.991798 38.033003 
L 33.945318 34.702429 
L 34.898838 31.375591 
L 35.852358 28.407771 
L 36.805878 25.578256 
L 37.759398 22.68411 
L 38.712919 20.010279 
L 39.666439 17.692352 
L 40.619959 15.214279 
L 41.573479 12.172788 
L 42.526999 8.933278 
L 43.480519 6.02702 
L 44.43404 3.733633 
L 45.38756 2.502323 
L 46.34108 2.470909 
L 47.2946 2.779882 
L 48.24812 2.702713 
L 49.20164 2.595199 
L 50.155161 3.032449 
L 51.108681 4.272119 
L 52.062201 6.741414 
L 53.015721 10.47773 
L 53.969241 14.486963 
L 54.922761 18.100592 
L 55.876282 21.665649 
L 56.829802 25.345071 
L 57.783322 28.76883 
L 58.736842 31.775117 
L 59.690362 34.513505 
L 60.643882 37.061862 
L 61.597403 39.390028 
L 62.550923 41.450287 
L 63.504443 43.27363 
L 64.457963 44.958078 
L 65.411483 46.463592 
L 66.365003 47.666787 
L 67.318524 48.560187 
L 68.272044 49.227438 
L 69.225564 49.74823 
" clip-path="url(#peaf0fc530c)" style="fill: none; stroke: #8a8a8a; stroke-width: 1.5; stroke-linecap: square"/>
   </g>
  </g>
 </g>
 <defs>
  <clipPath id="peaf0fc530c">
   <rect x="0" y="-0" width="558" height="54.36"/>
  </clipPath>
 </defs>
</svg>
