<?xml version="1.0" encoding="utf-8" standalone="no"?>
<!DOCTYPE svg PUBLIC "-//W3C//DTD SVG 1.1//EN"
  "http://www.w3.org/Graphics/SVG/1.1/DTD/svg11.dtd">
<svg xmlns:xlink="http://www.w3.org/1999/xlink" width="558pt" height="54.36pt" viewBox="0 0 558 54.36" xmlns="http://www.w3.org/2000/svg" version="1.1">
 <metadata>
  <rdf:RDF xmlns:dc="http://purl.org/dc/elements/1.1/" xmlns:cc="http://creativecommons.org/ns#" xmlns:rdf="http://www.w3.org/1999/02/22-rdf-syntax-ns#">
   <cc:Work>
    <dc:type rdf:resource="http://purl.org/dc/dcmitype/StillImage"/>
    <dc:date>2024-09-14T12:47:52.450953</dc:date>
    <dc:format>image/svg+xml</dc:format>
    <dc:creator>
     <cc:Agent>
      <dc:title>Matplotlib v3.5.2, https://matplotlib.org/</dc:title>
     </cc:Agent>
    </dc:creator>
   </cc:Work>
  </rdf:RDF>
 </metadata>
 <defs>
  <style type="text/css">*{stroke-linejoin: round; stroke-linecap: butt}</style>
 </defs>
 <g id="figure_1">
  <g id="patch_1">
   <path d="M 0 54.36 
L 558 54.36 
L 558 0 
L 0 0 
L 0 54.36 
z
" style="fill: none; opacity: 0"/>
  </g>
  <g id="axes_1">
   <g id="PolyCollection_1">
    <defs>
     <path id="m18ad6a67bf" d="M 68.748804 -2.470909 
L 68.748804 -3.625101 
L 69.416268 -3.663636 
L 70.083732 -3.703283 
L 70.751196 -3.744186 
L 71.41866 -3.786479 
L 72.086124 -3.830268 
L 72.753589 -3.875633 
L 73.421053 -3.922615 
L 74.088517 -3.971222 
L 74.755981 -4.021424 
L 75.423445 -4.073163 
L 76.090909 -4.126357 
L 76.758373 -4.180912 
L 77.425837 -4.236735 
L 78.093301 -4.293747 
L 78.760766 -4.351898 
L 79.42823 -4.411181 
L 80.095694 -4.471646 
L 80.763158 -4.533404 
L 81.430622 -4.596637 
L 82.098086 -4.661598 
L 82.76555 -4.728605 
L 83.433014 -4.798038 
L 84.100478 -4.870319 
L 84.767943 -4.945903 
L 85.435407 -5.025256 
L 86.102871 -5.108835 
L 86.770335 -5.197066 
L 87.437799 -5.290331 
L 88.105263 -5.388945 
L 88.772727 -5.493148 
L 89.440191 -5.603098 
L 90.107656 -5.718865 
L 90.77512 -5.840438 
L 91.442584 -5.96773 
L 92.110048 -6.100595 
L 92.777512 -6.238839 
L 93.444976 -6.38224 
L 94.11244 -6.530567 
L 94.779904 -6.683597 
L 95.447368 -6.841129 
L 96.114833 -7.002993 
L 96.782297 -7.169058 
L 97.449761 -7.33923 
L 98.117225 -7.513447 
L 98.784689 -7.691665 
L 99.452153 -7.873846 
L 100.119617 -8.059934 
L 100.787081 -8.24984 
L 101.454545 -8.44342 
L 102.12201 -8.64046 
L 102.789474 -8.840665 
L 103.456938 -9.043656 
L 104.124402 -9.248977 
L 104.791866 -9.456102 
L 105.45933 -9.664466 
L 106.126794 -9.873488 
L 106.794258 -10.082609 
L 107.461722 -10.291336 
L 108.129187 -10.499279 
L 108.796651 -10.706191 
L 109.464115 -10.912003 
L 110.131579 -11.116848 
L 110.799043 -11.321081 
L 111.466507 -11.52528 
L 112.133971 -11.730235 
L 112.801435 -11.93693 
L 113.4689 -12.146507 
L 114.136364 -12.360221 
L 114.803828 -12.579388 
L 115.471292 -12.805329 
L 116.138756 -13.03931 
L 116.80622 -13.282483 
L 117.473684 -13.535837 
L 118.141148 -13.800152 
L 118.808612 -14.075963 
L 119.476077 -14.363537 
L 120.143541 -14.662864 
L 120.811005 -14.973657 
L 121.478469 -15.295364 
L 122.145933 -15.627195 
L 122.813397 -15.968153 
L 123.480861 -16.317072 
L 124.148325 -16.672663 
L 124.815789 -17.033559 
L 125.483254 -17.398361 
L 126.150718 -17.765676 
L 126.818182 -18.134161 
L 127.485646 -18.502555 
L 128.15311 -18.869701 
L 128.820574 -19.23457 
L 129.488038 -19.596271 
L 130.155502 -19.95406 
L 130.822967 -20.307337 
L 131.490431 -20.655642 
L 132.157895 -20.998652 
L 132.825359 -21.336164 
L 133.492823 -21.668086 
L 134.160287 -21.994428 
L 134.827751 -22.315287 
L 135.495215 -22.630843 
L 136.162679 -22.941348 
L 136.830144 -23.247123 
L 137.497608 -23.548557 
L 138.165072 -23.846106 
L 138.832536 -24.140293 
L 139.5 -24.431712 
L 140.167464 -24.721023 
L 140.834928 -25.008958 
L 141.502392 -25.296309 
L 142.169856 -25.583925 
L 142.837321 -25.872695 
L 143.504785 -26.16353 
L 144.172249 -26.457338 
L 144.839713 -26.754994 
L 145.507177 -27.057307 
L 146.174641 -27.36498 
L 146.842105 -27.678568 
L 147.509569 -27.998447 
L 148.177033 -28.324765 
L 148.844498 -28.65742 
L 149.511962 -28.996032 
L 150.179426 -29.339927 
L 150.84689 -29.688137 
L 151.514354 -30.03941 
L 152.181818 -30.392235 
L 152.849282 -30.744882 
L 153.516746 -31.095453 
L 154.184211 -31.441944 
L 154.851675 -31.782323 
L 155.519139 -32.1146 
L 156.186603 -32.436907 
L 156.854067 -32.747574 
L 157.521531 -33.045191 
L 158.188995 -33.328662 
L 158.856459 -33.597243 
L 159.523923 -33.85056 
L 160.191388 -34.088609 
L 160.858852 -34.311735 
L 161.526316 -34.520596 
L 162.19378 -34.716109 
L 162.861244 -34.899389 
L 163.528708 -35.071676 
L 164.196172 -35.23427 
L 164.863636 -35.388464 
L 165.5311 -35.535483 
L 166.198565 -35.676448 
L 166.866029 -35.812342 
L 167.533493 -35.943997 
L 168.200957 -36.072103 
L 168.868421 -36.197218 
L 169.535885 -36.319801 
L 170.203349 -36.440246 
L 170.870813 -36.558916 
L 171.538278 -36.676177 
L 172.205742 -36.792427 
L 172.873206 -36.908113 
L 173.54067 -37.023732 
L 174.208134 -37.139821 
L 174.875598 -37.256938 
L 175.543062 -37.375622 
L 176.210526 -37.49635 
L 176.87799 -37.619487 
L 177.545455 -37.745236 
L 178.212919 -37.873585 
L 178.880383 -38.00427 
L 179.547847 -38.136742 
L 180.215311 -38.270145 
L 180.882775 -38.403318 
L 181.550239 -38.534802 
L 182.217703 -38.662867 
L 182.885167 -38.785553 
L 183.552632 -38.900725 
L 184.220096 -39.006128 
L 184.88756 -39.099462 
L 185.555024 -39.178448 
L 186.222488 -39.240898 
L 186.889952 -39.284788 
L 187.557416 -39.308314 
L 188.22488 -39.309947 
L 188.892344 -39.288479 
L 189.559809 -39.243049 
L 190.227273 -39.173168 
L 190.894737 -39.078718 
L 191.562201 -38.959951 
L 192.229665 -38.817465 
L 192.897129 -38.652174 
L 193.564593 -38.46527 
L 194.232057 -38.258175 
L 194.899522 -38.032491 
L 195.566986 -37.789943 
L 196.23445 -37.532328 
L 196.901914 -37.261464 
L 197.569378 -36.979144 
L 198.236842 -36.687097 
L 198.904306 -36.386958 
L 199.57177 -36.080242 
L 200.239234 -35.768332 
L 200.906699 -35.452469 
L 201.574163 -35.133757 
L 202.241627 -34.81316 
L 202.909091 -34.491516 
L 203.576555 -34.169547 
L 204.244019 -33.847869 
L 204.911483 -33.527003 
L 205.578947 -33.207382 
L 206.246411 -32.889361 
L 206.913876 -32.573219 
L 207.58134 -32.259159 
L 208.248804 -31.947312 
L 208.916268 -31.637732 
L 209.583732 -31.330399 
L 210.251196 -31.025215 
L 210.91866 -30.722008 
L 211.586124 -30.420538 
L 212.253589 -30.120502 
L 212.921053 -29.821542 
L 213.588517 -29.523259 
L 214.255981 -29.225229 
L 214.923445 -28.927011 
L 215.590909 -28.628164 
L 216.258373 -28.32826 
L 216.925837 -28.026891 
L 217.593301 -27.723676 
L 218.260766 -27.418265 
L 218.92823 -27.110337 
L 219.595694 -26.799599 
L 220.263158 -26.48578 
L 220.930622 -26.168627 
L 221.598086 -25.847899 
L 222.26555 -25.523366 
L 222.933014 -25.194809 
L 223.600478 -24.862023 
L 224.267943 -24.524823 
L 224.935407 -24.18306 
L 225.602871 -23.836628 
L 226.270335 -23.485482 
L 226.937799 -23.129655 
L 227.605263 -22.769269 
L 228.272727 -22.404546 
L 228.940191 -22.035817 
L 229.607656 -21.663525 
L 230.27512 -21.288219 
L 230.942584 -20.910547 
L 231.610048 -20.531239 
L 232.277512 -20.151095 
L 232.944976 -19.770956 
L 233.61244 -19.391683 
L 234.279904 -19.014131 
L 234.947368 -18.639128 
L 235.614833 -18.267449 
L 236.282297 -17.899799 
L 236.949761 -17.536798 
L 237.617225 -17.178973 
L 238.284689 -16.82675 
L 238.952153 -16.480457 
L 239.619617 -16.140328 
L 240.287081 -15.806511 
L 240.954545 -15.479078 
L 241.62201 -15.15804 
L 242.289474 -14.843361 
L 242.956938 -14.534967 
L 243.624402 -14.232761 
L 244.291866 -13.936628 
L 244.95933 -13.646445 
L 245.626794 -13.362081 
L 246.294258 -13.083395 
L 246.961722 -12.810242 
L 247.629187 -12.542464 
L 248.296651 -12.279889 
L 248.964115 -12.022332 
L 249.631579 -11.769597 
L 250.299043 -11.521478 
L 250.966507 -11.277772 
L 251.633971 -11.038283 
L 252.301435 -10.802844 
L 252.9689 -10.571323 
L 253.636364 -10.343644 
L 254.303828 -10.119799 
L 254.971292 -9.899854 
L 255.638756 -9.683958 
L 256.30622 -9.472339 
L 256.973684 -9.265296 
L 257.641148 -9.063184 
L 258.308612 -8.866393 
L 258.976077 -8.67532 
L 259.643541 -8.49034 
L 260.311005 -8.311773 
L 260.978469 -8.139857 
L 261.645933 -7.974718 
L 262.313397 -7.816353 
L 262.980861 -7.664614 
L 263.648325 -7.519206 
L 264.315789 -7.379692 
L 264.983254 -7.245512 
L 265.650718 -7.115999 
L 266.318182 -6.990421 
L 266.985646 -6.868008 
L 267.65311 -6.747998 
L 268.320574 -6.629671 
L 268.988038 -6.512389 
L 269.655502 -6.395626 
L 270.322967 -6.278991 
L 270.990431 -6.162245 
L 271.657895 -6.045309 
L 272.325359 -5.928257 
L 272.992823 -5.811305 
L 273.660287 -5.694791 
L 274.327751 -5.579147 
L 274.995215 -5.464871 
L 275.662679 -5.352492 
L 276.330144 -5.242536 
L 276.997608 -5.1355 
L 277.665072 -5.031821 
L 278.332536 -4.931861 
L 279 -4.835889 
L 279.667464 -4.744078 
L 280.334928 -4.6565 
L 281.002392 -4.573138 
L 281.669856 -4.493892 
L 282.337321 -4.418597 
L 283.004785 -4.347039 
L 283.672249 -4.278971 
L 284.339713 -4.214133 
L 285.007177 -4.152264 
L 285.674641 -4.093116 
L 286.342105 -4.036464 
L 287.009569 -3.982109 
L 287.677033 -3.929886 
L 288.344498 -3.879658 
L 289.011962 -3.831319 
L 289.679426 -3.784787 
L 290.34689 -3.740004 
L 291.014354 -3.696926 
L 291.681818 -3.655526 
L 292.349282 -3.615783 
L 293.016746 -3.577683 
L 293.684211 -3.541218 
L 294.351675 -3.506381 
L 294.351675 -2.470909 
L 294.351675 -2.470909 
L 293.684211 -2.470909 
L 293.016746 -2.470909 
L 292.349282 -2.470909 
L 291.681818 -2.470909 
L 291.014354 -2.470909 
L 290.34689 -2.470909 
L 289.679426 -2.470909 
L 289.011962 -2.470909 
L 288.344498 -2.470909 
L 287.677033 -2.470909 
L 287.009569 -2.470909 
L 286.342105 -2.470909 
L 285.674641 -2.470909 
L 285.007177 -2.470909 
L 284.339713 -2.470909 
L 283.672249 -2.470909 
L 283.004785 -2.470909 
L 282.337321 -2.470909 
L 281.669856 -2.470909 
L 281.002392 -2.470909 
L 280.334928 -2.470909 
L 279.667464 -2.470909 
L 279 -2.470909 
L 278.332536 -2.470909 
L 277.665072 -2.470909 
L 276.997608 -2.470909 
L 276.330144 -2.470909 
L 275.662679 -2.470909 
L 274.995215 -2.470909 
L 274.327751 -2.470909 
L 273.660287 -2.470909 
L 272.992823 -2.470909 
L 272.325359 -2.470909 
L 271.657895 -2.470909 
L 270.990431 -2.470909 
L 270.322967 -2.470909 
L 269.655502 -2.470909 
L 268.988038 -2.470909 
L 268.320574 -2.470909 
L 267.65311 -2.470909 
L 266.985646 -2.470909 
L 266.318182 -2.470909 
L 265.650718 -2.470909 
L 264.983254 -2.470909 
L 264.315789 -2.470909 
L 263.648325 -2.470909 
L 262.980861 -2.470909 
L 262.313397 -2.470909 
L 261.645933 -2.470909 
L 260.978469 -2.470909 
L 260.311005 -2.470909 
L 259.643541 -2.470909 
L 258.976077 -2.470909 
L 258.308612 -2.470909 
L 257.641148 -2.470909 
L 256.973684 -2.470909 
L 256.30622 -2.470909 
L 255.638756 -2.470909 
L 254.971292 -2.470909 
L 254.303828 -2.470909 
L 253.636364 -2.470909 
L 252.9689 -2.470909 
L 252.301435 -2.470909 
L 251.633971 -2.470909 
L 250.966507 -2.470909 
L 250.299043 -2.470909 
L 249.631579 -2.470909 
L 248.964115 -2.470909 
L 248.296651 -2.470909 
L 247.629187 -2.470909 
L 246.961722 -2.470909 
L 246.294258 -2.470909 
L 245.626794 -2.470909 
L 244.95933 -2.470909 
L 244.291866 -2.470909 
L 243.624402 -2.470909 
L 242.956938 -2.470909 
L 242.289474 -2.470909 
L 241.62201 -2.470909 
L 240.954545 -2.470909 
L 240.287081 -2.470909 
L 239.619617 -2.470909 
L 238.952153 -2.470909 
L 238.284689 -2.470909 
L 237.617225 -2.470909 
L 236.949761 -2.470909 
L 236.282297 -2.470909 
L 235.614833 -2.470909 
L 234.947368 -2.470909 
L 234.279904 -2.470909 
L 233.61244 -2.470909 
L 232.944976 -2.470909 
L 232.277512 -2.470909 
L 231.610048 -2.470909 
L 230.942584 -2.470909 
L 230.27512 -2.470909 
L 229.607656 -2.470909 
L 228.940191 -2.470909 
L 228.272727 -2.470909 
L 227.605263 -2.470909 
L 226.937799 -2.470909 
L 226.270335 -2.470909 
L 225.602871 -2.470909 
L 224.935407 -2.470909 
L 224.267943 -2.470909 
L 223.600478 -2.470909 
L 222.933014 -2.470909 
L 222.26555 -2.470909 
L 221.598086 -2.470909 
L 220.930622 -2.470909 
L 220.263158 -2.470909 
L 219.595694 -2.470909 
L 218.92823 -2.470909 
L 218.260766 -2.470909 
L 217.593301 -2.470909 
L 216.925837 -2.470909 
L 216.258373 -2.470909 
L 215.590909 -2.470909 
L 214.923445 -2.470909 
L 214.255981 -2.470909 
L 213.588517 -2.470909 
L 212.921053 -2.470909 
L 212.253589 -2.470909 
L 211.586124 -2.470909 
L 210.91866 -2.470909 
L 210.251196 -2.470909 
L 209.583732 -2.470909 
L 208.916268 -2.470909 
L 208.248804 -2.470909 
L 207.58134 -2.470909 
L 206.913876 -2.470909 
L 206.246411 -2.470909 
L 205.578947 -2.470909 
L 204.911483 -2.470909 
L 204.244019 -2.470909 
L 203.576555 -2.470909 
L 202.909091 -2.470909 
L 202.241627 -2.470909 
L 201.574163 -2.470909 
L 200.906699 -2.470909 
L 200.239234 -2.470909 
L 199.57177 -2.470909 
L 198.904306 -2.470909 
L 198.236842 -2.470909 
L 197.569378 -2.470909 
L 196.901914 -2.470909 
L 196.23445 -2.470909 
L 195.566986 -2.470909 
L 194.899522 -2.470909 
L 194.232057 -2.470909 
L 193.564593 -2.470909 
L 192.897129 -2.470909 
L 192.229665 -2.470909 
L 191.562201 -2.470909 
L 190.894737 -2.470909 
L 190.227273 -2.470909 
L 189.559809 -2.470909 
L 188.892344 -2.470909 
L 188.22488 -2.470909 
L 187.557416 -2.470909 
L 186.889952 -2.470909 
L 186.222488 -2.470909 
L 185.555024 -2.470909 
L 184.88756 -2.470909 
L 184.220096 -2.470909 
L 183.552632 -2.470909 
L 182.885167 -2.470909 
L 182.217703 -2.470909 
L 181.550239 -2.470909 
L 180.882775 -2.470909 
L 180.215311 -2.470909 
L 179.547847 -2.470909 
L 178.880383 -2.470909 
L 178.212919 -2.470909 
L 177.545455 -2.470909 
L 176.87799 -2.470909 
L 176.210526 -2.470909 
L 175.543062 -2.470909 
L 174.875598 -2.470909 
L 174.208134 -2.470909 
L 173.54067 -2.470909 
L 172.873206 -2.470909 
L 172.205742 -2.470909 
L 171.538278 -2.470909 
L 170.870813 -2.470909 
L 170.203349 -2.470909 
L 169.535885 -2.470909 
L 168.868421 -2.470909 
L 168.200957 -2.470909 
L 167.533493 -2.470909 
L 166.866029 -2.470909 
L 166.198565 -2.470909 
L 165.5311 -2.470909 
L 164.863636 -2.470909 
L 164.196172 -2.470909 
L 163.528708 -2.470909 
L 162.861244 -2.470909 
L 162.19378 -2.470909 
L 161.526316 -2.470909 
L 160.858852 -2.470909 
L 160.191388 -2.470909 
L 159.523923 -2.470909 
L 158.856459 -2.470909 
L 158.188995 -2.470909 
L 157.521531 -2.470909 
L 156.854067 -2.470909 
L 156.186603 -2.470909 
L 155.519139 -2.470909 
L 154.851675 -2.470909 
L 154.184211 -2.470909 
L 153.516746 -2.470909 
L 152.849282 -2.470909 
L 152.181818 -2.470909 
L 151.514354 -2.470909 
L 150.84689 -2.470909 
L 150.179426 -2.470909 
L 149.511962 -2.470909 
L 148.844498 -2.470909 
L 148.177033 -2.470909 
L 147.509569 -2.470909 
L 146.842105 -2.470909 
L 146.174641 -2.470909 
L 145.507177 -2.470909 
L 144.839713 -2.470909 
L 144.172249 -2.470909 
L 143.504785 -2.470909 
L 142.837321 -2.470909 
L 142.169856 -2.470909 
L 141.502392 -2.470909 
L 140.834928 -2.470909 
L 140.167464 -2.470909 
L 139.5 -2.470909 
L 138.832536 -2.470909 
L 138.165072 -2.470909 
L 137.497608 -2.470909 
L 136.830144 -2.470909 
L 136.162679 -2.470909 
L 135.495215 -2.470909 
L 134.827751 -2.470909 
L 134.160287 -2.470909 
L 133.492823 -2.470909 
L 132.825359 -2.470909 
L 132.157895 -2.470909 
L 131.490431 -2.470909 
L 130.822967 -2.470909 
L 130.155502 -2.470909 
L 129.488038 -2.470909 
L 128.820574 -2.470909 
L 128.15311 -2.470909 
L 127.485646 -2.470909 
L 126.818182 -2.470909 
L 126.150718 -2.470909 
L 125.483254 -2.470909 
L 124.815789 -2.470909 
L 124.148325 -2.470909 
L 123.480861 -2.470909 
L 122.813397 -2.470909 
L 122.145933 -2.470909 
L 121.478469 -2.470909 
L 120.811005 -2.470909 
L 120.143541 -2.470909 
L 119.476077 -2.470909 
L 118.808612 -2.470909 
L 118.141148 -2.470909 
L 117.473684 -2.470909 
L 116.80622 -2.470909 
L 116.138756 -2.470909 
L 115.471292 -2.470909 
L 114.803828 -2.470909 
L 114.136364 -2.470909 
L 113.4689 -2.470909 
L 112.801435 -2.470909 
L 112.133971 -2.470909 
L 111.466507 -2.470909 
L 110.799043 -2.470909 
L 110.131579 -2.470909 
L 109.464115 -2.470909 
L 108.796651 -2.470909 
L 108.129187 -2.470909 
L 107.461722 -2.470909 
L 106.794258 -2.470909 
L 106.126794 -2.470909 
L 105.45933 -2.470909 
L 104.791866 -2.470909 
L 104.124402 -2.470909 
L 103.456938 -2.470909 
L 102.789474 -2.470909 
L 102.12201 -2.470909 
L 101.454545 -2.470909 
L 100.787081 -2.470909 
L 100.119617 -2.470909 
L 99.452153 -2.470909 
L 98.784689 -2.470909 
L 98.117225 -2.470909 
L 97.449761 -2.470909 
L 96.782297 -2.470909 
L 96.114833 -2.470909 
L 95.447368 -2.470909 
L 94.779904 -2.470909 
L 94.11244 -2.470909 
L 93.444976 -2.470909 
L 92.777512 -2.470909 
L 92.110048 -2.470909 
L 91.442584 -2.470909 
L 90.77512 -2.470909 
L 90.107656 -2.470909 
L 89.440191 -2.470909 
L 88.772727 -2.470909 
L 88.105263 -2.470909 
L 87.437799 -2.470909 
L 86.770335 -2.470909 
L 86.102871 -2.470909 
L 85.435407 -2.470909 
L 84.767943 -2.470909 
L 84.100478 -2.470909 
L 83.433014 -2.470909 
L 82.76555 -2.470909 
L 82.098086 -2.470909 
L 81.430622 -2.470909 
L 80.763158 -2.470909 
L 80.095694 -2.470909 
L 79.42823 -2.470909 
L 78.760766 -2.470909 
L 78.093301 -2.470909 
L 77.425837 -2.470909 
L 76.758373 -2.470909 
L 76.090909 -2.470909 
L 75.423445 -2.470909 
L 74.755981 -2.470909 
L 74.088517 -2.470909 
L 73.421053 -2.470909 
L 72.753589 -2.470909 
L 72.086124 -2.470909 
L 71.41866 -2.470909 
L 70.751196 -2.470909 
L 70.083732 -2.470909 
L 69.416268 -2.470909 
L 68.748804 -2.470909 
z
" style="stroke: #cf1313; stroke-opacity: 0.2"/>
    </defs>
    <g clip-path="url(#p459b0a1e8c)">
     <use xlink:href="#m18ad6a67bf" x="0" y="54.36" style="fill: #cf1313; fill-opacity: 0.2; stroke: #cf1313; stroke-opacity: 0.2"/>
    </g>
   </g>
   <g id="PolyCollection_2">
    <defs>
     <path id="m3cf11274a5" d="M 321.717703 -2.470909 
L 321.717703 -4.357587 
L 322.385167 -4.428626 
L 323.052632 -4.499365 
L 323.720096 -4.570069 
L 324.38756 -4.641074 
L 325.055024 -4.712773 
L 325.722488 -4.785609 
L 326.389952 -4.860057 
L 327.057416 -4.936617 
L 327.72488 -5.0158 
L 328.392344 -5.09811 
L 329.059809 -5.184032 
L 329.727273 -5.274019 
L 330.394737 -5.368473 
L 331.062201 -5.467737 
L 331.729665 -5.572076 
L 332.397129 -5.681671 
L 333.064593 -5.796605 
L 333.732057 -5.916866 
L 334.399522 -6.042337 
L 335.066986 -6.172809 
L 335.73445 -6.307981 
L 336.401914 -6.447484 
L 337.069378 -6.590896 
L 337.736842 -6.737763 
L 338.404306 -6.887632 
L 339.07177 -7.040078 
L 339.739234 -7.194729 
L 340.406699 -7.351296 
L 341.074163 -7.509595 
L 341.741627 -7.669562 
L 342.409091 -7.831266 
L 343.076555 -7.994909 
L 343.744019 -8.160818 
L 344.411483 -8.329434 
L 345.078947 -8.501289 
L 345.746411 -8.676978 
L 346.413876 -8.857124 
L 347.08134 -9.042349 
L 347.748804 -9.233233 
L 348.416268 -9.430284 
L 349.083732 -9.633908 
L 349.751196 -9.844382 
L 350.41866 -10.06184 
L 351.086124 -10.286263 
L 351.753589 -10.517472 
L 352.421053 -10.755143 
L 353.088517 -10.998814 
L 353.755981 -11.247914 
L 354.423445 -11.501784 
L 355.090909 -11.759716 
L 355.758373 -12.020986 
L 356.425837 -12.284896 
L 357.093301 -12.550806 
L 357.760766 -12.818172 
L 358.42823 -13.086579 
L 359.095694 -13.355759 
L 359.763158 -13.625617 
L 360.430622 -13.896231 
L 361.098086 -14.167857 
L 361.76555 -14.440911 
L 362.433014 -14.715957 
L 363.100478 -14.993672 
L 363.767943 -15.27481 
L 364.435407 -15.560168 
L 365.102871 -15.850535 
L 365.770335 -16.146654 
L 366.437799 -16.449181 
L 367.105263 -16.758648 
L 367.772727 -17.075438 
L 368.440191 -17.39976 
L 369.107656 -17.731645 
L 369.77512 -18.070943 
L 370.442584 -18.417333 
L 371.110048 -18.770342 
L 371.777512 -19.129371 
L 372.444976 -19.493732 
L 373.11244 -19.862674 
L 373.779904 -20.23543 
L 374.447368 -20.611245 
L 375.114833 -20.989412 
L 375.782297 -21.369295 
L 376.449761 -21.750352 
L 377.117225 -22.13214 
L 377.784689 -22.514316 
L 378.452153 -22.896632 
L 379.119617 -23.278913 
L 379.787081 -23.661033 
L 380.454545 -24.042885 
L 381.12201 -24.424344 
L 381.789474 -24.805239 
L 382.456938 -25.185314 
L 383.124402 -25.564206 
L 383.791866 -25.941426 
L 384.45933 -26.316348 
L 385.126794 -26.688213 
L 385.794258 -27.056139 
L 386.461722 -27.41915 
L 387.129187 -27.776203 
L 387.796651 -28.126233 
L 388.464115 -28.46819 
L 389.131579 -28.801094 
L 389.799043 -29.124071 
L 390.466507 -29.436396 
L 391.133971 -29.737522 
L 391.801435 -30.027108 
L 392.4689 -30.305034 
L 393.136364 -30.571402 
L 393.803828 -30.826534 
L 394.471292 -31.070967 
L 395.138756 -31.305429 
L 395.80622 -31.530825 
L 396.473684 -31.748209 
L 397.141148 -31.958766 
L 397.808612 -32.163787 
L 398.476077 -32.364643 
L 399.143541 -32.562769 
L 399.811005 -32.759634 
L 400.478469 -32.956719 
L 401.145933 -33.15549 
L 401.813397 -33.357367 
L 402.480861 -33.563683 
L 403.148325 -33.77565 
L 403.815789 -33.99431 
L 404.483254 -34.220488 
L 405.150718 -34.454743 
L 405.818182 -34.697325 
L 406.485646 -34.948128 
L 407.15311 -35.206668 
L 407.820574 -35.472054 
L 408.488038 -35.742989 
L 409.155502 -36.017786 
L 409.822967 -36.294396 
L 410.490431 -36.570462 
L 411.157895 -36.843389 
L 411.825359 -37.110429 
L 412.492823 -37.368775 
L 413.160287 -37.615668 
L 413.827751 -37.8485 
L 414.495215 -38.064916 
L 415.162679 -38.262903 
L 415.830144 -38.440874 
L 416.497608 -38.597719 
L 417.165072 -38.732849 
L 417.832536 -38.846205 
L 418.5 -38.938251 
L 419.167464 -39.009939 
L 419.834928 -39.062655 
L 420.502392 -39.098149 
L 421.169856 -39.118447 
L 421.837321 -39.12576 
L 422.504785 -39.122382 
L 423.172249 -39.110594 
L 423.839713 -39.092566 
L 424.507177 -39.070273 
L 425.174641 -39.045416 
L 425.842105 -39.019365 
L 426.509569 -38.993111 
L 427.177033 -38.967233 
L 427.844498 -38.941888 
L 428.511962 -38.916815 
L 429.179426 -38.891353 
L 429.84689 -38.864476 
L 430.514354 -38.834838 
L 431.181818 -38.800835 
L 431.849282 -38.760666 
L 432.516746 -38.712407 
L 433.184211 -38.654081 
L 433.851675 -38.583734 
L 434.519139 -38.499502 
L 435.186603 -38.39967 
L 435.854067 -38.282732 
L 436.521531 -38.147428 
L 437.188995 -37.992781 
L 437.856459 -37.818117 
L 438.523923 -37.623078 
L 439.191388 -37.407619 
L 439.858852 -37.172009 
L 440.526316 -36.916812 
L 441.19378 -36.642878 
L 441.861244 -36.351318 
L 442.528708 -36.04349 
L 443.196172 -35.720971 
L 443.863636 -35.385541 
L 444.5311 -35.039156 
L 445.198565 -34.683924 
L 445.866029 -34.322072 
L 446.533493 -33.955913 
L 447.200957 -33.587804 
L 447.868421 -33.220102 
L 448.535885 -32.855111 
L 449.203349 -32.495021 
L 449.870813 -32.141856 
L 450.538278 -31.79741 
L 451.205742 -31.463196 
L 451.873206 -31.140394 
L 452.54067 -30.829816 
L 453.208134 -30.531879 
L 453.875598 -30.246594 
L 454.543062 -29.973573 
L 455.210526 -29.712053 
L 455.87799 -29.46093 
L 456.545455 -29.218813 
L 457.212919 -28.984089 
L 457.880383 -28.754985 
L 458.547847 -28.529652 
L 459.215311 -28.30623 
L 459.882775 -28.082924 
L 460.550239 -27.858063 
L 461.217703 -27.630156 
L 461.885167 -27.397932 
L 462.552632 -27.160367 
L 463.220096 -26.9167 
L 463.88756 -26.666431 
L 464.555024 -26.409316 
L 465.222488 -26.145336 
L 465.889952 -25.874672 
L 466.557416 -25.597665 
L 467.22488 -25.314772 
L 467.892344 -25.026525 
L 468.559809 -24.733484 
L 469.227273 -24.436199 
L 469.894737 -24.135173 
L 470.562201 -23.830834 
L 471.229665 -23.523515 
L 471.897129 -23.213442 
L 472.564593 -22.900727 
L 473.232057 -22.585379 
L 473.899522 -22.267315 
L 474.566986 -21.946378 
L 475.23445 -21.622367 
L 475.901914 -21.295059 
L 476.569378 -20.964241 
L 477.236842 -20.629738 
L 477.904306 -20.291439 
L 478.57177 -19.949316 
L 479.239234 -19.603441 
L 479.906699 -19.253994 
L 480.574163 -18.901269 
L 481.241627 -18.545672 
L 481.909091 -18.187709 
L 482.576555 -17.827979 
L 483.244019 -17.467158 
L 483.911483 -17.105983 
L 484.578947 -16.745237 
L 485.246411 -16.385729 
L 485.913876 -16.028282 
L 486.58134 -15.67372 
L 487.248804 -15.322855 
L 487.916268 -14.976475 
L 488.583732 -14.635337 
L 489.251196 -14.300159 
L 489.91866 -13.971606 
L 490.586124 -13.650289 
L 491.253589 -13.336748 
L 491.921053 -13.03145 
L 492.588517 -12.734775 
L 493.255981 -12.44701 
L 493.923445 -12.168342 
L 494.590909 -11.89885 
L 495.258373 -11.638508 
L 495.925837 -11.387181 
L 496.593301 -11.144633 
L 497.260766 -10.910536 
L 497.92823 -10.684481 
L 498.595694 -10.465994 
L 499.263158 -10.254559 
L 499.930622 -10.049631 
L 500.598086 -9.850664 
L 501.26555 -9.657126 
L 501.933014 -9.468522 
L 502.600478 -9.284405 
L 503.267943 -9.104391 
L 503.935407 -8.928169 
L 504.602871 -8.7555 
L 505.270335 -8.586221 
L 505.937799 -8.420236 
L 506.605263 -8.257515 
L 507.272727 -8.098079 
L 507.940191 -7.941991 
L 508.607656 -7.789343 
L 509.27512 -7.64024 
L 509.942584 -7.494794 
L 510.610048 -7.35311 
L 511.277512 -7.215273 
L 511.944976 -7.081345 
L 512.61244 -6.951356 
L 513.279904 -6.825299 
L 513.947368 -6.703125 
L 514.614833 -6.584745 
L 515.282297 -6.470027 
L 515.949761 -6.358794 
L 516.617225 -6.250835 
L 517.284689 -6.1459 
L 517.952153 -6.043711 
L 518.619617 -5.943968 
L 519.287081 -5.846356 
L 519.954545 -5.750556 
L 520.62201 -5.656258 
L 521.289474 -5.563167 
L 521.956938 -5.471017 
L 522.624402 -5.379581 
L 523.291866 -5.288677 
L 523.95933 -5.19818 
L 524.626794 -5.108022 
L 525.294258 -5.018197 
L 525.961722 -4.928759 
L 526.629187 -4.839819 
L 527.296651 -4.751538 
L 527.964115 -4.664125 
L 528.631579 -4.577817 
L 529.299043 -4.492879 
L 529.966507 -4.409585 
L 530.633971 -4.32821 
L 531.301435 -4.249019 
L 531.9689 -4.172255 
L 532.636364 -4.098134 
L 532.636364 -2.470909 
L 532.636364 -2.470909 
L 531.9689 -2.470909 
L 531.301435 -2.470909 
L 530.633971 -2.470909 
L 529.966507 -2.470909 
L 529.299043 -2.470909 
L 528.631579 -2.470909 
L 527.964115 -2.470909 
L 527.296651 -2.470909 
L 526.629187 -2.470909 
L 525.961722 -2.470909 
L 525.294258 -2.470909 
L 524.626794 -2.470909 
L 523.95933 -2.470909 
L 523.291866 -2.470909 
L 522.624402 -2.470909 
L 521.956938 -2.470909 
L 521.289474 -2.470909 
L 520.62201 -2.470909 
L 519.954545 -2.470909 
L 519.287081 -2.470909 
L 518.619617 -2.470909 
L 517.952153 -2.470909 
L 517.284689 -2.470909 
L 516.617225 -2.470909 
L 515.949761 -2.470909 
L 515.282297 -2.470909 
L 514.614833 -2.470909 
L 513.947368 -2.470909 
L 513.279904 -2.470909 
L 512.61244 -2.470909 
L 511.944976 -2.470909 
L 511.277512 -2.470909 
L 510.610048 -2.470909 
L 509.942584 -2.470909 
L 509.27512 -2.470909 
L 508.607656 -2.470909 
L 507.940191 -2.470909 
L 507.272727 -2.470909 
L 506.605263 -2.470909 
L 505.937799 -2.470909 
L 505.270335 -2.470909 
L 504.602871 -2.470909 
L 503.935407 -2.470909 
L 503.267943 -2.470909 
L 502.600478 -2.470909 
L 501.933014 -2.470909 
L 501.26555 -2.470909 
L 500.598086 -2.470909 
L 499.930622 -2.470909 
L 499.263158 -2.470909 
L 498.595694 -2.470909 
L 497.92823 -2.470909 
L 497.260766 -2.470909 
L 496.593301 -2.470909 
L 495.925837 -2.470909 
L 495.258373 -2.470909 
L 494.590909 -2.470909 
L 493.923445 -2.470909 
L 493.255981 -2.470909 
L 492.588517 -2.470909 
L 491.921053 -2.470909 
L 491.253589 -2.470909 
L 490.586124 -2.470909 
L 489.91866 -2.470909 
L 489.251196 -2.470909 
L 488.583732 -2.470909 
L 487.916268 -2.470909 
L 487.248804 -2.470909 
L 486.58134 -2.470909 
L 485.913876 -2.470909 
L 485.246411 -2.470909 
L 484.578947 -2.470909 
L 483.911483 -2.470909 
L 483.244019 -2.470909 
L 482.576555 -2.470909 
L 481.909091 -2.470909 
L 481.241627 -2.470909 
L 480.574163 -2.470909 
L 479.906699 -2.470909 
L 479.239234 -2.470909 
L 478.57177 -2.470909 
L 477.904306 -2.470909 
L 477.236842 -2.470909 
L 476.569378 -2.470909 
L 475.901914 -2.470909 
L 475.23445 -2.470909 
L 474.566986 -2.470909 
L 473.899522 -2.470909 
L 473.232057 -2.470909 
L 472.564593 -2.470909 
L 471.897129 -2.470909 
L 471.229665 -2.470909 
L 470.562201 -2.470909 
L 469.894737 -2.470909 
L 469.227273 -2.470909 
L 468.559809 -2.470909 
L 467.892344 -2.470909 
L 467.22488 -2.470909 
L 466.557416 -2.470909 
L 465.889952 -2.470909 
L 465.222488 -2.470909 
L 464.555024 -2.470909 
L 463.88756 -2.470909 
L 463.220096 -2.470909 
L 462.552632 -2.470909 
L 461.885167 -2.470909 
L 461.217703 -2.470909 
L 460.550239 -2.470909 
L 459.882775 -2.470909 
L 459.215311 -2.470909 
L 458.547847 -2.470909 
L 457.880383 -2.470909 
L 457.212919 -2.470909 
L 456.545455 -2.470909 
L 455.87799 -2.470909 
L 455.210526 -2.470909 
L 454.543062 -2.470909 
L 453.875598 -2.470909 
L 453.208134 -2.470909 
L 452.54067 -2.470909 
L 451.873206 -2.470909 
L 451.205742 -2.470909 
L 450.538278 -2.470909 
L 449.870813 -2.470909 
L 449.203349 -2.470909 
L 448.535885 -2.470909 
L 447.868421 -2.470909 
L 447.200957 -2.470909 
L 446.533493 -2.470909 
L 445.866029 -2.470909 
L 445.198565 -2.470909 
L 444.5311 -2.470909 
L 443.863636 -2.470909 
L 443.196172 -2.470909 
L 442.528708 -2.470909 
L 441.861244 -2.470909 
L 441.19378 -2.470909 
L 440.526316 -2.470909 
L 439.858852 -2.470909 
L 439.191388 -2.470909 
L 438.523923 -2.470909 
L 437.856459 -2.470909 
L 437.188995 -2.470909 
L 436.521531 -2.470909 
L 435.854067 -2.470909 
L 435.186603 -2.470909 
L 434.519139 -2.470909 
L 433.851675 -2.470909 
L 433.184211 -2.470909 
L 432.516746 -2.470909 
L 431.849282 -2.470909 
L 431.181818 -2.470909 
L 430.514354 -2.470909 
L 429.84689 -2.470909 
L 429.179426 -2.470909 
L 428.511962 -2.470909 
L 427.844498 -2.470909 
L 427.177033 -2.470909 
L 426.509569 -2.470909 
L 425.842105 -2.470909 
L 425.174641 -2.470909 
L 424.507177 -2.470909 
L 423.839713 -2.470909 
L 423.172249 -2.470909 
L 422.504785 -2.470909 
L 421.837321 -2.470909 
L 421.169856 -2.470909 
L 420.502392 -2.470909 
L 419.834928 -2.470909 
L 419.167464 -2.470909 
L 418.5 -2.470909 
L 417.832536 -2.470909 
L 417.165072 -2.470909 
L 416.497608 -2.470909 
L 415.830144 -2.470909 
L 415.162679 -2.470909 
L 414.495215 -2.470909 
L 413.827751 -2.470909 
L 413.160287 -2.470909 
L 412.492823 -2.470909 
L 411.825359 -2.470909 
L 411.157895 -2.470909 
L 410.490431 -2.470909 
L 409.822967 -2.470909 
L 409.155502 -2.470909 
L 408.488038 -2.470909 
L 407.820574 -2.470909 
L 407.15311 -2.470909 
L 406.485646 -2.470909 
L 405.818182 -2.470909 
L 405.150718 -2.470909 
L 404.483254 -2.470909 
L 403.815789 -2.470909 
L 403.148325 -2.470909 
L 402.480861 -2.470909 
L 401.813397 -2.470909 
L 401.145933 -2.470909 
L 400.478469 -2.470909 
L 399.811005 -2.470909 
L 399.143541 -2.470909 
L 398.476077 -2.470909 
L 397.808612 -2.470909 
L 397.141148 -2.470909 
L 396.473684 -2.470909 
L 395.80622 -2.470909 
L 395.138756 -2.470909 
L 394.471292 -2.470909 
L 393.803828 -2.470909 
L 393.136364 -2.470909 
L 392.4689 -2.470909 
L 391.801435 -2.470909 
L 391.133971 -2.470909 
L 390.466507 -2.470909 
L 389.799043 -2.470909 
L 389.131579 -2.470909 
L 388.464115 -2.470909 
L 387.796651 -2.470909 
L 387.129187 -2.470909 
L 386.461722 -2.470909 
L 385.794258 -2.470909 
L 385.126794 -2.470909 
L 384.45933 -2.470909 
L 383.791866 -2.470909 
L 383.124402 -2.470909 
L 382.456938 -2.470909 
L 381.789474 -2.470909 
L 381.12201 -2.470909 
L 380.454545 -2.470909 
L 379.787081 -2.470909 
L 379.119617 -2.470909 
L 378.452153 -2.470909 
L 377.784689 -2.470909 
L 377.117225 -2.470909 
L 376.449761 -2.470909 
L 375.782297 -2.470909 
L 375.114833 -2.470909 
L 374.447368 -2.470909 
L 373.779904 -2.470909 
L 373.11244 -2.470909 
L 372.444976 -2.470909 
L 371.777512 -2.470909 
L 371.110048 -2.470909 
L 370.442584 -2.470909 
L 369.77512 -2.470909 
L 369.107656 -2.470909 
L 368.440191 -2.470909 
L 367.772727 -2.470909 
L 367.105263 -2.470909 
L 366.437799 -2.470909 
L 365.770335 -2.470909 
L 365.102871 -2.470909 
L 364.435407 -2.470909 
L 363.767943 -2.470909 
L 363.100478 -2.470909 
L 362.433014 -2.470909 
L 361.76555 -2.470909 
L 361.098086 -2.470909 
L 360.430622 -2.470909 
L 359.763158 -2.470909 
L 359.095694 -2.470909 
L 358.42823 -2.470909 
L 357.760766 -2.470909 
L 357.093301 -2.470909 
L 356.425837 -2.470909 
L 355.758373 -2.470909 
L 355.090909 -2.470909 
L 354.423445 -2.470909 
L 353.755981 -2.470909 
L 353.088517 -2.470909 
L 352.421053 -2.470909 
L 351.753589 -2.470909 
L 351.086124 -2.470909 
L 350.41866 -2.470909 
L 349.751196 -2.470909 
L 349.083732 -2.470909 
L 348.416268 -2.470909 
L 347.748804 -2.470909 
L 347.08134 -2.470909 
L 346.413876 -2.470909 
L 345.746411 -2.470909 
L 345.078947 -2.470909 
L 344.411483 -2.470909 
L 343.744019 -2.470909 
L 343.076555 -2.470909 
L 342.409091 -2.470909 
L 341.741627 -2.470909 
L 341.074163 -2.470909 
L 340.406699 -2.470909 
L 339.739234 -2.470909 
L 339.07177 -2.470909 
L 338.404306 -2.470909 
L 337.736842 -2.470909 
L 337.069378 -2.470909 
L 336.401914 -2.470909 
L 335.73445 -2.470909 
L 335.066986 -2.470909 
L 334.399522 -2.470909 
L 333.732057 -2.470909 
L 333.064593 -2.470909 
L 332.397129 -2.470909 
L 331.729665 -2.470909 
L 331.062201 -2.470909 
L 330.394737 -2.470909 
L 329.727273 -2.470909 
L 329.059809 -2.470909 
L 328.392344 -2.470909 
L 327.72488 -2.470909 
L 327.057416 -2.470909 
L 326.389952 -2.470909 
L 325.722488 -2.470909 
L 325.055024 -2.470909 
L 324.38756 -2.470909 
L 323.720096 -2.470909 
L 323.052632 -2.470909 
L 322.385167 -2.470909 
L 321.717703 -2.470909 
z
" style="stroke: #116dc2; stroke-opacity: 0.2"/>
    </defs>
    <g clip-path="url(#p459b0a1e8c)">
     <use xlink:href="#m3cf11274a5" x="0" y="54.36" style="fill: #116dc2; fill-opacity: 0.2; stroke: #116dc2; stroke-opacity: 0.2"/>
    </g>
   </g>
   <g id="PolyCollection_3">
    <defs>
     <path id="mfc8dad1123" d="M 25.363636 -2.470909 
L 25.363636 -4.292514 
L 26.0311 -4.631913 
L 26.698565 -5.045832 
L 27.366029 -5.530062 
L 28.033493 -6.06478 
L 28.700957 -6.633757 
L 29.368421 -7.253113 
L 30.035885 -7.978053 
L 30.703349 -8.869605 
L 31.370813 -9.94781 
L 32.038278 -11.183906 
L 32.705742 -12.5467 
L 33.373206 -14.050517 
L 34.04067 -15.742288 
L 34.708134 -17.638021 
L 35.375598 -19.683668 
L 36.043062 -21.783513 
L 36.710526 -23.855735 
L 37.37799 -25.854519 
L 38.045455 -27.757832 
L 38.712919 -29.565025 
L 39.380383 -31.31619 
L 40.047847 -33.091869 
L 40.715311 -34.969454 
L 41.382775 -36.979579 
L 42.050239 -39.109334 
L 42.717703 -41.327386 
L 43.385167 -43.578418 
L 44.052632 -45.755976 
L 44.720096 -47.708115 
L 45.38756 -49.288657 
L 46.055024 -50.415397 
L 46.722488 -51.104263 
L 47.389952 -51.465973 
L 48.057416 -51.652461 
L 48.72488 -51.775677 
L 49.392344 -51.8649 
L 50.059809 -51.889091 
L 50.727273 -51.790845 
L 51.394737 -51.489031 
L 52.062201 -50.882779 
L 52.729665 -49.890853 
L 53.397129 -48.495864 
L 54.064593 -46.754176 
L 54.732057 -44.780123 
L 55.399522 -42.723504 
L 56.066986 -40.729621 
L 56.73445 -38.875881 
L 57.401914 -37.123582 
L 58.069378 -35.336494 
L 58.736842 -33.369808 
L 59.404306 -31.171246 
L 60.07177 -28.819378 
L 60.739234 -26.469484 
L 61.406699 -24.249786 
L 62.074163 -22.192512 
L 62.741627 -20.254239 
L 63.409091 -18.393275 
L 64.076555 -16.617313 
L 64.744019 -14.961991 
L 65.411483 -13.449158 
L 66.078947 -12.08544 
L 66.746411 -10.888905 
L 67.413876 -9.883944 
L 68.08134 -9.05595 
L 68.748804 -8.332037 
L 69.416268 -7.630093 
L 70.083732 -6.92465 
L 70.751196 -6.254479 
L 71.41866 -5.671422 
L 72.086124 -5.190505 
L 72.753589 -4.783775 
L 72.753589 -2.470909 
L 72.753589 -2.470909 
L 72.086124 -2.470909 
L 71.41866 -2.470909 
L 70.751196 -2.470909 
L 70.083732 -2.470909 
L 69.416268 -2.470909 
L 68.748804 -2.470909 
L 68.08134 -2.470909 
L 67.413876 -2.470909 
L 66.746411 -2.470909 
L 66.078947 -2.470909 
L 65.411483 -2.470909 
L 64.744019 -2.470909 
L 64.076555 -2.470909 
L 63.409091 -2.470909 
L 62.741627 -2.470909 
L 62.074163 -2.470909 
L 61.406699 -2.470909 
L 60.739234 -2.470909 
L 60.07177 -2.470909 
L 59.404306 -2.470909 
L 58.736842 -2.470909 
L 58.069378 -2.470909 
L 57.401914 -2.470909 
L 56.73445 -2.470909 
L 56.066986 -2.470909 
L 55.399522 -2.470909 
L 54.732057 -2.470909 
L 54.064593 -2.470909 
L 53.397129 -2.470909 
L 52.729665 -2.470909 
L 52.062201 -2.470909 
L 51.394737 -2.470909 
L 50.727273 -2.470909 
L 50.059809 -2.470909 
L 49.392344 -2.470909 
L 48.72488 -2.470909 
L 48.057416 -2.470909 
L 47.389952 -2.470909 
L 46.722488 -2.470909 
L 46.055024 -2.470909 
L 45.38756 -2.470909 
L 44.720096 -2.470909 
L 44.052632 -2.470909 
L 43.385167 -2.470909 
L 42.717703 -2.470909 
L 42.050239 -2.470909 
L 41.382775 -2.470909 
L 40.715311 -2.470909 
L 40.047847 -2.470909 
L 39.380383 -2.470909 
L 38.712919 -2.470909 
L 38.045455 -2.470909 
L 37.37799 -2.470909 
L 36.710526 -2.470909 
L 36.043062 -2.470909 
L 35.375598 -2.470909 
L 34.708134 -2.470909 
L 34.04067 -2.470909 
L 33.373206 -2.470909 
L 32.705742 -2.470909 
L 32.038278 -2.470909 
L 31.370813 -2.470909 
L 30.703349 -2.470909 
L 30.035885 -2.470909 
L 29.368421 -2.470909 
L 28.700957 -2.470909 
L 28.033493 -2.470909 
L 27.366029 -2.470909 
L 26.698565 -2.470909 
L 26.0311 -2.470909 
L 25.363636 -2.470909 
z
" style="stroke: #8a8a8a; stroke-opacity: 0.2"/>
    </defs>
    <g clip-path="url(#p459b0a1e8c)">
     <use xlink:href="#mfc8dad1123" x="0" y="54.36" style="fill: #8a8a8a; fill-opacity: 0.2; stroke: #8a8a8a; stroke-opacity: 0.2"/>
    </g>
   </g>
   <g id="line2d_1">
    <path d="M 68.748804 50.734899 
L 77.425837 50.123265 
L 85.435407 49.334744 
L 90.107656 48.641135 
L 94.11244 47.829433 
L 98.784689 46.668335 
L 104.124402 45.111023 
L 116.80622 41.077517 
L 120.143541 39.697136 
L 123.480861 38.042928 
L 135.495215 31.729157 
L 140.834928 29.351042 
L 147.509569 26.361553 
L 152.181818 23.967765 
L 156.854067 21.612426 
L 159.523923 20.50944 
L 162.19378 19.643891 
L 165.5311 18.824517 
L 170.870813 17.801084 
L 182.217703 15.697133 
L 185.555024 15.181552 
L 187.557416 15.051686 
L 189.559809 15.116951 
L 191.562201 15.400049 
L 193.564593 15.89473 
L 196.23445 16.827672 
L 199.57177 18.279758 
L 226.270335 30.874518 
L 231.610048 33.828761 
L 238.284689 37.53325 
L 242.289474 39.516639 
L 246.294258 41.276605 
L 250.966507 43.082228 
L 256.30622 44.887661 
L 260.311005 46.048227 
L 264.315789 46.980308 
L 270.322967 48.081009 
L 279.667464 49.615922 
L 285.007177 50.207736 
L 291.681818 50.704474 
L 294.351675 50.853619 
L 294.351675 50.853619 
" clip-path="url(#p459b0a1e8c)" style="fill: none; stroke: #cf1313; stroke-width: 1.5; stroke-linecap: square"/>
   </g>
   <g id="line2d_2">
    <path d="M 321.717703 50.002413 
L 330.394737 48.991527 
L 335.066986 48.187191 
L 340.406699 47.008704 
L 347.08134 45.317651 
L 351.086124 44.073737 
L 355.758373 42.339014 
L 364.435407 38.799832 
L 368.440191 36.96024 
L 372.444976 34.866268 
L 380.454545 30.317115 
L 387.796651 26.233767 
L 391.133971 24.622478 
L 394.471292 23.289033 
L 398.476077 21.995357 
L 405.150718 19.905257 
L 409.155502 18.342214 
L 413.827751 16.5115 
L 416.497608 15.762281 
L 418.5 15.421749 
L 421.169856 15.241553 
L 424.507177 15.289727 
L 433.184211 15.705919 
L 435.854067 16.077268 
L 437.856459 16.541883 
L 439.858852 17.187991 
L 442.528708 18.31651 
L 445.866029 20.037928 
L 451.873206 23.219606 
L 454.543062 24.386427 
L 457.880383 25.605015 
L 464.555024 27.950684 
L 468.559809 29.626516 
L 474.566986 32.413622 
L 479.906699 35.106006 
L 491.253589 41.023252 
L 494.590909 42.46115 
L 497.92823 43.675519 
L 501.933014 44.891478 
L 507.272727 46.261921 
L 512.61244 47.408644 
L 517.952153 48.316289 
L 527.296651 49.608462 
L 532.636364 50.261866 
L 532.636364 50.261866 
" clip-path="url(#p459b0a1e8c)" style="fill: none; stroke: #116dc2; stroke-width: 1.5; stroke-linecap: square"/>
   </g>
   <g id="line2d_3">
    <path d="M 25.363636 50.067486 
L 26.0311 49.728087 
L 26.698565 49.314168 
L 27.366029 48.829938 
L 28.033493 48.29522 
L 28.700957 47.726243 
L 29.368421 47.106887 
L 30.035885 46.381947 
L 30.703349 45.490395 
L 31.370813 44.41219 
L 32.038278 43.176094 
L 32.705742 41.8133 
L 33.373206 40.309483 
L 34.04067 38.617712 
L 34.708134 36.721979 
L 35.375598 34.676332 
L 36.043062 32.576487 
L 36.710526 30.504265 
L 37.37799 28.505481 
L 38.045455 26.602168 
L 38.712919 24.794975 
L 39.380383 23.04381 
L 40.047847 21.268131 
L 40.715311 19.390546 
L 41.382775 17.380421 
L 42.050239 15.250666 
L 42.717703 13.032614 
L 43.385167 10.781582 
L 44.052632 8.604024 
L 44.720096 6.651885 
L 45.38756 5.071343 
L 46.055024 3.944603 
L 46.722488 3.255737 
L 47.389952 2.894027 
L 48.057416 2.707539 
L 48.72488 2.584323 
L 49.392344 2.4951 
L 50.059809 2.470909 
L 50.727273 2.569155 
L 51.394737 2.870969 
L 52.062201 3.477221 
L 52.729665 4.469147 
L 53.397129 5.864136 
L 54.064593 7.605824 
L 54.732057 9.579877 
L 55.399522 11.636496 
L 56.066986 13.630379 
L 56.73445 15.484119 
L 57.401914 17.236418 
L 58.069378 19.023506 
L 58.736842 20.990192 
L 59.404306 23.188754 
L 60.07177 25.540622 
L 60.739234 27.890516 
L 61.406699 30.110214 
L 62.074163 32.167488 
L 62.741627 34.105761 
L 63.409091 35.966725 
L 64.076555 37.742687 
L 64.744019 39.398009 
L 65.411483 40.910842 
L 66.078947 42.27456 
L 66.746411 43.471095 
L 67.413876 44.476056 
L 68.08134 45.30405 
L 68.748804 46.027963 
L 69.416268 46.729907 
L 70.083732 47.43535 
L 70.751196 48.105521 
L 71.41866 48.688578 
L 72.086124 49.169495 
L 72.753589 49.576225 
" clip-path="url(#p459b0a1e8c)" style="fill: none; stroke: #8a8a8a; stroke-width: 1.5; stroke-linecap: square"/>
   </g>
  </g>
 </g>
 <defs>
  <clipPath id="p459b0a1e8c">
   <rect x="0" y="-0" width="558" height="54.36"/>
  </clipPath>
 </defs>
</svg>
