<?xml version="1.0" encoding="utf-8" standalone="no"?>
<!DOCTYPE svg PUBLIC "-//W3C//DTD SVG 1.1//EN"
  "http://www.w3.org/Graphics/SVG/1.1/DTD/svg11.dtd">
<svg xmlns:xlink="http://www.w3.org/1999/xlink" width="558pt" height="54.36pt" viewBox="0 0 558 54.36" xmlns="http://www.w3.org/2000/svg" version="1.1">
 <metadata>
  <rdf:RDF xmlns:dc="http://purl.org/dc/elements/1.1/" xmlns:cc="http://creativecommons.org/ns#" xmlns:rdf="http://www.w3.org/1999/02/22-rdf-syntax-ns#">
   <cc:Work>
    <dc:type rdf:resource="http://purl.org/dc/dcmitype/StillImage"/>
    <dc:date>2024-09-15T09:31:57.498786</dc:date>
    <dc:format>image/svg+xml</dc:format>
    <dc:creator>
     <cc:Agent>
      <dc:title>Matplotlib v3.5.2, https://matplotlib.org/</dc:title>
     </cc:Agent>
    </dc:creator>
   </cc:Work>
  </rdf:RDF>
 </metadata>
 <defs>
  <style type="text/css">*{stroke-linejoin: round; stroke-linecap: butt}</style>
 </defs>
 <g id="figure_1">
  <g id="patch_1">
   <path d="M 0 54.36 
L 558 54.36 
L 558 0 
L 0 0 
L 0 54.36 
z
" style="fill: none; opacity: 0"/>
  </g>
  <g id="axes_1">
   <g id="PolyCollection_1">
    <defs>
     <path id="m6383214d10" d="M 72.147682 -2.470909 
L 72.147682 -4.096917 
L 72.816026 -4.160975 
L 73.484369 -4.227048 
L 74.152713 -4.295011 
L 74.821056 -4.364696 
L 75.4894 -4.435891 
L 76.157743 -4.508355 
L 76.826087 -4.581824 
L 77.49443 -4.656029 
L 78.162774 -4.730716 
L 78.831117 -4.805654 
L 79.499461 -4.880665 
L 80.167805 -4.955628 
L 80.836148 -5.030502 
L 81.504492 -5.105333 
L 82.172835 -5.180259 
L 82.841179 -5.255518 
L 83.509522 -5.331439 
L 84.177866 -5.40844 
L 84.846209 -5.487012 
L 85.514553 -5.567706 
L 86.182896 -5.651109 
L 86.85124 -5.737826 
L 87.519583 -5.828455 
L 88.187927 -5.923563 
L 88.85627 -6.023665 
L 89.524614 -6.129198 
L 90.192957 -6.240512 
L 90.861301 -6.35785 
L 91.529644 -6.481344 
L 92.197988 -6.611009 
L 92.866331 -6.746751 
L 93.534675 -6.888374 
L 94.203018 -7.035592 
L 94.871362 -7.188057 
L 95.539705 -7.345374 
L 96.208049 -7.507136 
L 96.876392 -7.672946 
L 97.544736 -7.842444 
L 98.213079 -8.015337 
L 98.881423 -8.191414 
L 99.549766 -8.37056 
L 100.21811 -8.552768 
L 100.886453 -8.738131 
L 101.554797 -8.926838 
L 102.22314 -9.119152 
L 102.891484 -9.315388 
L 103.559828 -9.515878 
L 104.228171 -9.720943 
L 104.896515 -9.930851 
L 105.564858 -10.145788 
L 106.233202 -10.365826 
L 106.901545 -10.590903 
L 107.569889 -10.820811 
L 108.238232 -11.055189 
L 108.906576 -11.293538 
L 109.574919 -11.535241 
L 110.243263 -11.779592 
L 110.911606 -12.025835 
L 111.57995 -12.273215 
L 112.248293 -12.521023 
L 112.916637 -12.768643 
L 113.58498 -13.015599 
L 114.253324 -13.261592 
L 114.921667 -13.506526 
L 115.590011 -13.750521 
L 116.258354 -13.993923 
L 116.926698 -14.237286 
L 117.595041 -14.481353 
L 118.263385 -14.727024 
L 118.931728 -14.975312 
L 119.600072 -15.2273 
L 120.268415 -15.484088 
L 120.936759 -15.746751 
L 121.605102 -16.016291 
L 122.273446 -16.293598 
L 122.941789 -16.579423 
L 123.610133 -16.874354 
L 124.278476 -17.178802 
L 124.94682 -17.493001 
L 125.615163 -17.817003 
L 126.283507 -18.150699 
L 126.951851 -18.493824 
L 127.620194 -18.845981 
L 128.288538 -19.206662 
L 128.956881 -19.575267 
L 129.625225 -19.95113 
L 130.293568 -20.333536 
L 130.961912 -20.721747 
L 131.630255 -21.115014 
L 132.298599 -21.512601 
L 132.966942 -21.913795 
L 133.635286 -22.317922 
L 134.303629 -22.724356 
L 134.971973 -23.132526 
L 135.640316 -23.54192 
L 136.30866 -23.952084 
L 136.977003 -24.362616 
L 137.645347 -24.77316 
L 138.31369 -25.183388 
L 138.982034 -25.592985 
L 139.650377 -26.001626 
L 140.318721 -26.408955 
L 140.987064 -26.814565 
L 141.655408 -27.217974 
L 142.323751 -27.618607 
L 142.992095 -28.015791 
L 143.660438 -28.408743 
L 144.328782 -28.796581 
L 144.997125 -29.17833 
L 145.665469 -29.552949 
L 146.333812 -29.919353 
L 147.002156 -30.276457 
L 147.670499 -30.623207 
L 148.338843 -30.958627 
L 149.007186 -31.28186 
L 149.67553 -31.592203 
L 150.343874 -31.88914 
L 151.012217 -32.172372 
L 151.680561 -32.441824 
L 152.348904 -32.697659 
L 153.017248 -32.940271 
L 153.685591 -33.170273 
L 154.353935 -33.388474 
L 155.022278 -33.595856 
L 155.690622 -33.793535 
L 156.358965 -33.982732 
L 157.027309 -34.164732 
L 157.695652 -34.340845 
L 158.363996 -34.512377 
L 159.032339 -34.680591 
L 159.700683 -34.846678 
L 160.369026 -35.011735 
L 161.03737 -35.176734 
L 161.705713 -35.34251 
L 162.374057 -35.509742 
L 163.0424 -35.678938 
L 163.710744 -35.850435 
L 164.379087 -36.024386 
L 165.047431 -36.200764 
L 165.715774 -36.379366 
L 166.384118 -36.559818 
L 167.052461 -36.741588 
L 167.720805 -36.924003 
L 168.389148 -37.106264 
L 169.057492 -37.28747 
L 169.725835 -37.466642 
L 170.394179 -37.642746 
L 171.062522 -37.814719 
L 171.730866 -37.981492 
L 172.399209 -38.142014 
L 173.067553 -38.295271 
L 173.735897 -38.440301 
L 174.40424 -38.576208 
L 175.072584 -38.702167 
L 175.740927 -38.817431 
L 176.409271 -38.921326 
L 177.077614 -39.013246 
L 177.745958 -39.092645 
L 178.414301 -39.159026 
L 179.082645 -39.211922 
L 179.750988 -39.250887 
L 180.419332 -39.275477 
L 181.087675 -39.28524 
L 181.756019 -39.279704 
L 182.424362 -39.25837 
L 183.092706 -39.220713 
L 183.761049 -39.166185 
L 184.429393 -39.094227 
L 185.097736 -39.00429 
L 185.76608 -38.895861 
L 186.434423 -38.768496 
L 187.102767 -38.621864 
L 187.77111 -38.455791 
L 188.439454 -38.270311 
L 189.107797 -38.065709 
L 189.776141 -37.842577 
L 190.444484 -37.601845 
L 191.112828 -37.344814 
L 191.781171 -37.07317 
L 192.449515 -36.788985 
L 193.117858 -36.494695 
L 193.786202 -36.193056 
L 194.454545 -35.887086 
L 195.122889 -35.579983 
L 195.791232 -35.275024 
L 196.459576 -34.975458 
L 197.12792 -34.684384 
L 197.796263 -34.404636 
L 198.464607 -34.138663 
L 199.13295 -33.888431 
L 199.801294 -33.655332 
L 200.469637 -33.440124 
L 201.137981 -33.242888 
L 201.806324 -33.063025 
L 202.474668 -32.899267 
L 203.143011 -32.74973 
L 203.811355 -32.611983 
L 204.479698 -32.483142 
L 205.148042 -32.359976 
L 205.816385 -32.239033 
L 206.484729 -32.11676 
L 207.153072 -31.98963 
L 207.821416 -31.854257 
L 208.489759 -31.707506 
L 209.158103 -31.546584 
L 209.826446 -31.369117 
L 210.49479 -31.173204 
L 211.163133 -30.957456 
L 211.831477 -30.721012 
L 212.49982 -30.463537 
L 213.168164 -30.185208 
L 213.836507 -29.886673 
L 214.504851 -29.569015 
L 215.173194 -29.233685 
L 215.841538 -28.882447 
L 216.509881 -28.517305 
L 217.178225 -28.140428 
L 217.846568 -27.754087 
L 218.514912 -27.360574 
L 219.183255 -26.962144 
L 219.851599 -26.56095 
L 220.519943 -26.158991 
L 221.188286 -25.758068 
L 221.85663 -25.359748 
L 222.524973 -24.965342 
L 223.193317 -24.575889 
L 223.86166 -24.192157 
L 224.530004 -23.814652 
L 225.198347 -23.443631 
L 225.866691 -23.079135 
L 226.535034 -22.721018 
L 227.203378 -22.368986 
L 227.871721 -22.022638 
L 228.540065 -21.681506 
L 229.208408 -21.34509 
L 229.876752 -21.012896 
L 230.545095 -20.684462 
L 231.213439 -20.359377 
L 231.881782 -20.037296 
L 232.550126 -19.71794 
L 233.218469 -19.401098 
L 233.886813 -19.086612 
L 234.555156 -18.774366 
L 235.2235 -18.464267 
L 235.891843 -18.156226 
L 236.560187 -17.850144 
L 237.22853 -17.545895 
L 237.896874 -17.243321 
L 238.565217 -16.942228 
L 239.233561 -16.642391 
L 239.901904 -16.343564 
L 240.570248 -16.045494 
L 241.238591 -15.747946 
L 241.906935 -15.450721 
L 242.575278 -15.153682 
L 243.243622 -14.85678 
L 243.911966 -14.560066 
L 244.580309 -14.263714 
L 245.248653 -13.968023 
L 245.916996 -13.673425 
L 246.58534 -13.380475 
L 247.253683 -13.089843 
L 247.922027 -12.802288 
L 248.59037 -12.518639 
L 249.258714 -12.239763 
L 249.927057 -11.966528 
L 250.595401 -11.699774 
L 251.263744 -11.440273 
L 251.932088 -11.1887 
L 252.600431 -10.945605 
L 253.268775 -10.711384 
L 253.937118 -10.486268 
L 254.605462 -10.27031 
L 255.273805 -10.063381 
L 255.942149 -9.86518 
L 256.610492 -9.675242 
L 257.278836 -9.492964 
L 257.947179 -9.317623 
L 258.615523 -9.148412 
L 259.283866 -8.984468 
L 259.95221 -8.824909 
L 260.620553 -8.668865 
L 261.288897 -8.515509 
L 261.95724 -8.364085 
L 262.625584 -8.213929 
L 263.293927 -8.064491 
L 263.962271 -7.91534 
L 264.630614 -7.766177 
L 265.298958 -7.616826 
L 265.967301 -7.467239 
L 266.635645 -7.317478 
L 267.303989 -7.167705 
L 267.972332 -7.018166 
L 268.640676 -6.869174 
L 269.309019 -6.721089 
L 269.977363 -6.574299 
L 270.645706 -6.429208 
L 271.31405 -6.286217 
L 271.982393 -6.14571 
L 272.650737 -6.008048 
L 273.31908 -5.87356 
L 273.987424 -5.742533 
L 274.655767 -5.615219 
L 275.324111 -5.491824 
L 275.992454 -5.372517 
L 276.660798 -5.257427 
L 277.329141 -5.146647 
L 277.997485 -5.04024 
L 278.665828 -4.938238 
L 279.334172 -4.840646 
L 280.002515 -4.747447 
L 280.670859 -4.6586 
L 281.339202 -4.574043 
L 282.007546 -4.493696 
L 282.675889 -4.417459 
L 283.344233 -4.345214 
L 284.012576 -4.276828 
L 284.68092 -4.212152 
L 285.349263 -4.151023 
L 286.017607 -4.093264 
L 286.68595 -4.038691 
L 287.354294 -3.987108 
L 288.022637 -3.938312 
L 288.690981 -3.892094 
L 289.359324 -3.848239 
L 290.027668 -3.806529 
L 290.027668 -2.470909 
L 290.027668 -2.470909 
L 289.359324 -2.470909 
L 288.690981 -2.470909 
L 288.022637 -2.470909 
L 287.354294 -2.470909 
L 286.68595 -2.470909 
L 286.017607 -2.470909 
L 285.349263 -2.470909 
L 284.68092 -2.470909 
L 284.012576 -2.470909 
L 283.344233 -2.470909 
L 282.675889 -2.470909 
L 282.007546 -2.470909 
L 281.339202 -2.470909 
L 280.670859 -2.470909 
L 280.002515 -2.470909 
L 279.334172 -2.470909 
L 278.665828 -2.470909 
L 277.997485 -2.470909 
L 277.329141 -2.470909 
L 276.660798 -2.470909 
L 275.992454 -2.470909 
L 275.324111 -2.470909 
L 274.655767 -2.470909 
L 273.987424 -2.470909 
L 273.31908 -2.470909 
L 272.650737 -2.470909 
L 271.982393 -2.470909 
L 271.31405 -2.470909 
L 270.645706 -2.470909 
L 269.977363 -2.470909 
L 269.309019 -2.470909 
L 268.640676 -2.470909 
L 267.972332 -2.470909 
L 267.303989 -2.470909 
L 266.635645 -2.470909 
L 265.967301 -2.470909 
L 265.298958 -2.470909 
L 264.630614 -2.470909 
L 263.962271 -2.470909 
L 263.293927 -2.470909 
L 262.625584 -2.470909 
L 261.95724 -2.470909 
L 261.288897 -2.470909 
L 260.620553 -2.470909 
L 259.95221 -2.470909 
L 259.283866 -2.470909 
L 258.615523 -2.470909 
L 257.947179 -2.470909 
L 257.278836 -2.470909 
L 256.610492 -2.470909 
L 255.942149 -2.470909 
L 255.273805 -2.470909 
L 254.605462 -2.470909 
L 253.937118 -2.470909 
L 253.268775 -2.470909 
L 252.600431 -2.470909 
L 251.932088 -2.470909 
L 251.263744 -2.470909 
L 250.595401 -2.470909 
L 249.927057 -2.470909 
L 249.258714 -2.470909 
L 248.59037 -2.470909 
L 247.922027 -2.470909 
L 247.253683 -2.470909 
L 246.58534 -2.470909 
L 245.916996 -2.470909 
L 245.248653 -2.470909 
L 244.580309 -2.470909 
L 243.911966 -2.470909 
L 243.243622 -2.470909 
L 242.575278 -2.470909 
L 241.906935 -2.470909 
L 241.238591 -2.470909 
L 240.570248 -2.470909 
L 239.901904 -2.470909 
L 239.233561 -2.470909 
L 238.565217 -2.470909 
L 237.896874 -2.470909 
L 237.22853 -2.470909 
L 236.560187 -2.470909 
L 235.891843 -2.470909 
L 235.2235 -2.470909 
L 234.555156 -2.470909 
L 233.886813 -2.470909 
L 233.218469 -2.470909 
L 232.550126 -2.470909 
L 231.881782 -2.470909 
L 231.213439 -2.470909 
L 230.545095 -2.470909 
L 229.876752 -2.470909 
L 229.208408 -2.470909 
L 228.540065 -2.470909 
L 227.871721 -2.470909 
L 227.203378 -2.470909 
L 226.535034 -2.470909 
L 225.866691 -2.470909 
L 225.198347 -2.470909 
L 224.530004 -2.470909 
L 223.86166 -2.470909 
L 223.193317 -2.470909 
L 222.524973 -2.470909 
L 221.85663 -2.470909 
L 221.188286 -2.470909 
L 220.519943 -2.470909 
L 219.851599 -2.470909 
L 219.183255 -2.470909 
L 218.514912 -2.470909 
L 217.846568 -2.470909 
L 217.178225 -2.470909 
L 216.509881 -2.470909 
L 215.841538 -2.470909 
L 215.173194 -2.470909 
L 214.504851 -2.470909 
L 213.836507 -2.470909 
L 213.168164 -2.470909 
L 212.49982 -2.470909 
L 211.831477 -2.470909 
L 211.163133 -2.470909 
L 210.49479 -2.470909 
L 209.826446 -2.470909 
L 209.158103 -2.470909 
L 208.489759 -2.470909 
L 207.821416 -2.470909 
L 207.153072 -2.470909 
L 206.484729 -2.470909 
L 205.816385 -2.470909 
L 205.148042 -2.470909 
L 204.479698 -2.470909 
L 203.811355 -2.470909 
L 203.143011 -2.470909 
L 202.474668 -2.470909 
L 201.806324 -2.470909 
L 201.137981 -2.470909 
L 200.469637 -2.470909 
L 199.801294 -2.470909 
L 199.13295 -2.470909 
L 198.464607 -2.470909 
L 197.796263 -2.470909 
L 197.12792 -2.470909 
L 196.459576 -2.470909 
L 195.791232 -2.470909 
L 195.122889 -2.470909 
L 194.454545 -2.470909 
L 193.786202 -2.470909 
L 193.117858 -2.470909 
L 192.449515 -2.470909 
L 191.781171 -2.470909 
L 191.112828 -2.470909 
L 190.444484 -2.470909 
L 189.776141 -2.470909 
L 189.107797 -2.470909 
L 188.439454 -2.470909 
L 187.77111 -2.470909 
L 187.102767 -2.470909 
L 186.434423 -2.470909 
L 185.76608 -2.470909 
L 185.097736 -2.470909 
L 184.429393 -2.470909 
L 183.761049 -2.470909 
L 183.092706 -2.470909 
L 182.424362 -2.470909 
L 181.756019 -2.470909 
L 181.087675 -2.470909 
L 180.419332 -2.470909 
L 179.750988 -2.470909 
L 179.082645 -2.470909 
L 178.414301 -2.470909 
L 177.745958 -2.470909 
L 177.077614 -2.470909 
L 176.409271 -2.470909 
L 175.740927 -2.470909 
L 175.072584 -2.470909 
L 174.40424 -2.470909 
L 173.735897 -2.470909 
L 173.067553 -2.470909 
L 172.399209 -2.470909 
L 171.730866 -2.470909 
L 171.062522 -2.470909 
L 170.394179 -2.470909 
L 169.725835 -2.470909 
L 169.057492 -2.470909 
L 168.389148 -2.470909 
L 167.720805 -2.470909 
L 167.052461 -2.470909 
L 166.384118 -2.470909 
L 165.715774 -2.470909 
L 165.047431 -2.470909 
L 164.379087 -2.470909 
L 163.710744 -2.470909 
L 163.0424 -2.470909 
L 162.374057 -2.470909 
L 161.705713 -2.470909 
L 161.03737 -2.470909 
L 160.369026 -2.470909 
L 159.700683 -2.470909 
L 159.032339 -2.470909 
L 158.363996 -2.470909 
L 157.695652 -2.470909 
L 157.027309 -2.470909 
L 156.358965 -2.470909 
L 155.690622 -2.470909 
L 155.022278 -2.470909 
L 154.353935 -2.470909 
L 153.685591 -2.470909 
L 153.017248 -2.470909 
L 152.348904 -2.470909 
L 151.680561 -2.470909 
L 151.012217 -2.470909 
L 150.343874 -2.470909 
L 149.67553 -2.470909 
L 149.007186 -2.470909 
L 148.338843 -2.470909 
L 147.670499 -2.470909 
L 147.002156 -2.470909 
L 146.333812 -2.470909 
L 145.665469 -2.470909 
L 144.997125 -2.470909 
L 144.328782 -2.470909 
L 143.660438 -2.470909 
L 142.992095 -2.470909 
L 142.323751 -2.470909 
L 141.655408 -2.470909 
L 140.987064 -2.470909 
L 140.318721 -2.470909 
L 139.650377 -2.470909 
L 138.982034 -2.470909 
L 138.31369 -2.470909 
L 137.645347 -2.470909 
L 136.977003 -2.470909 
L 136.30866 -2.470909 
L 135.640316 -2.470909 
L 134.971973 -2.470909 
L 134.303629 -2.470909 
L 133.635286 -2.470909 
L 132.966942 -2.470909 
L 132.298599 -2.470909 
L 131.630255 -2.470909 
L 130.961912 -2.470909 
L 130.293568 -2.470909 
L 129.625225 -2.470909 
L 128.956881 -2.470909 
L 128.288538 -2.470909 
L 127.620194 -2.470909 
L 126.951851 -2.470909 
L 126.283507 -2.470909 
L 125.615163 -2.470909 
L 124.94682 -2.470909 
L 124.278476 -2.470909 
L 123.610133 -2.470909 
L 122.941789 -2.470909 
L 122.273446 -2.470909 
L 121.605102 -2.470909 
L 120.936759 -2.470909 
L 120.268415 -2.470909 
L 119.600072 -2.470909 
L 118.931728 -2.470909 
L 118.263385 -2.470909 
L 117.595041 -2.470909 
L 116.926698 -2.470909 
L 116.258354 -2.470909 
L 115.590011 -2.470909 
L 114.921667 -2.470909 
L 114.253324 -2.470909 
L 113.58498 -2.470909 
L 112.916637 -2.470909 
L 112.248293 -2.470909 
L 111.57995 -2.470909 
L 110.911606 -2.470909 
L 110.243263 -2.470909 
L 109.574919 -2.470909 
L 108.906576 -2.470909 
L 108.238232 -2.470909 
L 107.569889 -2.470909 
L 106.901545 -2.470909 
L 106.233202 -2.470909 
L 105.564858 -2.470909 
L 104.896515 -2.470909 
L 104.228171 -2.470909 
L 103.559828 -2.470909 
L 102.891484 -2.470909 
L 102.22314 -2.470909 
L 101.554797 -2.470909 
L 100.886453 -2.470909 
L 100.21811 -2.470909 
L 99.549766 -2.470909 
L 98.881423 -2.470909 
L 98.213079 -2.470909 
L 97.544736 -2.470909 
L 96.876392 -2.470909 
L 96.208049 -2.470909 
L 95.539705 -2.470909 
L 94.871362 -2.470909 
L 94.203018 -2.470909 
L 93.534675 -2.470909 
L 92.866331 -2.470909 
L 92.197988 -2.470909 
L 91.529644 -2.470909 
L 90.861301 -2.470909 
L 90.192957 -2.470909 
L 89.524614 -2.470909 
L 88.85627 -2.470909 
L 88.187927 -2.470909 
L 87.519583 -2.470909 
L 86.85124 -2.470909 
L 86.182896 -2.470909 
L 85.514553 -2.470909 
L 84.846209 -2.470909 
L 84.177866 -2.470909 
L 83.509522 -2.470909 
L 82.841179 -2.470909 
L 82.172835 -2.470909 
L 81.504492 -2.470909 
L 80.836148 -2.470909 
L 80.167805 -2.470909 
L 79.499461 -2.470909 
L 78.831117 -2.470909 
L 78.162774 -2.470909 
L 77.49443 -2.470909 
L 76.826087 -2.470909 
L 76.157743 -2.470909 
L 75.4894 -2.470909 
L 74.821056 -2.470909 
L 74.152713 -2.470909 
L 73.484369 -2.470909 
L 72.816026 -2.470909 
L 72.147682 -2.470909 
z
" style="stroke: #cf1313; stroke-opacity: 0.2"/>
    </defs>
    <g clip-path="url(#pb85b8ef8b8)">
     <use xlink:href="#m6383214d10" x="0" y="54.36" style="fill: #cf1313; fill-opacity: 0.2; stroke: #cf1313; stroke-opacity: 0.2"/>
    </g>
   </g>
   <g id="PolyCollection_2">
    <defs>
     <path id="me74b9fae0b" d="M 318.766439 -2.470909 
L 318.766439 -4.10596 
L 319.434783 -4.181634 
L 320.103126 -4.259279 
L 320.77147 -4.338887 
L 321.439813 -4.420507 
L 322.108157 -4.504239 
L 322.7765 -4.590229 
L 323.444844 -4.678656 
L 324.113187 -4.769719 
L 324.781531 -4.86362 
L 325.449874 -4.960552 
L 326.118218 -5.060674 
L 326.786561 -5.164104 
L 327.454905 -5.270905 
L 328.123248 -5.381074 
L 328.791592 -5.49454 
L 329.459935 -5.611164 
L 330.128279 -5.73074 
L 330.796622 -5.853005 
L 331.464966 -5.977651 
L 332.133309 -6.104335 
L 332.801653 -6.232702 
L 333.469996 -6.362394 
L 334.13834 -6.493072 
L 334.806683 -6.62443 
L 335.475027 -6.756212 
L 336.14337 -6.888221 
L 336.811714 -7.020332 
L 337.480057 -7.152497 
L 338.148401 -7.284752 
L 338.816745 -7.41722 
L 339.485088 -7.550106 
L 340.153432 -7.683701 
L 340.821775 -7.818376 
L 341.490119 -7.954578 
L 342.158462 -8.092826 
L 342.826806 -8.233704 
L 343.495149 -8.377859 
L 344.163493 -8.525993 
L 344.831836 -8.678853 
L 345.50018 -8.83723 
L 346.168523 -9.00194 
L 346.836867 -9.173821 
L 347.50521 -9.353707 
L 348.173554 -9.542417 
L 348.841897 -9.740726 
L 349.510241 -9.949345 
L 350.178584 -10.168884 
L 350.846928 -10.399829 
L 351.515271 -10.642506 
L 352.183615 -10.897056 
L 352.851958 -11.163404 
L 353.520302 -11.441244 
L 354.188645 -11.73002 
L 354.856989 -12.028928 
L 355.525332 -12.336916 
L 356.193676 -12.652701 
L 356.862019 -12.974798 
L 357.530363 -13.301555 
L 358.198706 -13.631195 
L 358.86705 -13.961872 
L 359.535393 -14.291727 
L 360.203737 -14.618941 
L 360.87208 -14.941803 
L 361.540424 -15.258754 
L 362.208768 -15.568446 
L 362.877111 -15.869779 
L 363.545455 -16.161939 
L 364.213798 -16.444415 
L 364.882142 -16.717021 
L 365.550485 -16.97989 
L 366.218829 -17.233473 
L 366.887172 -17.478515 
L 367.555516 -17.716029 
L 368.223859 -17.947264 
L 368.892203 -18.173658 
L 369.560546 -18.396798 
L 370.22889 -18.618362 
L 370.897233 -18.840074 
L 371.565577 -19.063652 
L 372.23392 -19.290758 
L 372.902264 -19.522953 
L 373.570607 -19.761664 
L 374.238951 -20.008145 
L 374.907294 -20.26346 
L 375.575638 -20.528467 
L 376.243981 -20.803812 
L 376.912325 -21.089931 
L 377.580668 -21.387058 
L 378.249012 -21.695243 
L 378.917355 -22.014369 
L 379.585699 -22.344169 
L 380.254042 -22.684249 
L 380.922386 -23.034103 
L 381.590729 -23.393128 
L 382.259073 -23.760637 
L 382.927416 -24.135859 
L 383.59576 -24.517947 
L 384.264103 -24.905978 
L 384.932447 -25.298946 
L 385.600791 -25.695768 
L 386.269134 -26.095279 
L 386.937478 -26.496237 
L 387.605821 -26.897329 
L 388.274165 -27.297182 
L 388.942508 -27.694377 
L 389.610852 -28.087469 
L 390.279195 -28.475004 
L 390.947539 -28.855543 
L 391.615882 -29.227688 
L 392.284226 -29.590102 
L 392.952569 -29.941533 
L 393.620913 -30.280833 
L 394.289256 -30.606984 
L 394.9576 -30.91911 
L 395.625943 -31.216504 
L 396.294287 -31.498641 
L 396.96263 -31.7652 
L 397.630974 -32.01608 
L 398.299317 -32.25142 
L 398.967661 -32.471609 
L 399.636004 -32.677304 
L 400.304348 -32.86943 
L 400.972691 -33.049181 
L 401.641035 -33.218005 
L 402.309378 -33.377585 
L 402.977722 -33.529803 
L 403.646065 -33.67669 
L 404.314409 -33.82037 
L 404.982752 -33.962989 
L 405.651096 -34.106638 
L 406.319439 -34.253274 
L 406.987783 -34.404639 
L 407.656126 -34.562183 
L 408.32447 -34.727002 
L 408.992814 -34.899787 
L 409.661157 -35.080788 
L 410.329501 -35.26981 
L 410.997844 -35.466217 
L 411.666188 -35.668971 
L 412.334531 -35.876687 
L 413.002875 -36.087705 
L 413.671218 -36.300183 
L 414.339562 -36.512189 
L 415.007905 -36.721808 
L 415.676249 -36.927229 
L 416.344592 -37.12684 
L 417.012936 -37.319296 
L 417.681279 -37.503568 
L 418.349623 -37.678973 
L 419.017966 -37.845174 
L 419.68631 -38.00216 
L 420.354653 -38.150198 
L 421.022997 -38.289767 
L 421.69134 -38.421478 
L 422.359684 -38.545979 
L 423.028027 -38.663869 
L 423.696371 -38.775597 
L 424.364714 -38.88139 
L 425.033058 -38.981179 
L 425.701401 -39.074557 
L 426.369745 -39.160751 
L 427.038088 -39.238625 
L 427.706432 -39.306702 
L 428.374775 -39.363212 
L 429.043119 -39.406153 
L 429.711462 -39.433383 
L 430.379806 -39.442703 
L 431.048149 -39.431958 
L 431.716493 -39.399136 
L 432.384837 -39.342462 
L 433.05318 -39.260473 
L 433.721524 -39.152098 
L 434.389867 -39.016699 
L 435.058211 -38.854116 
L 435.726554 -38.664677 
L 436.394898 -38.449196 
L 437.063241 -38.208957 
L 437.731585 -37.945676 
L 438.399928 -37.66145 
L 439.068272 -37.358703 
L 439.736615 -37.04011 
L 440.404959 -36.708525 
L 441.073302 -36.366898 
L 441.741646 -36.018197 
L 442.409989 -35.665322 
L 443.078333 -35.311031 
L 443.746676 -34.957863 
L 444.41502 -34.608077 
L 445.083363 -34.263597 
L 445.751707 -33.925967 
L 446.42005 -33.596328 
L 447.088394 -33.275403 
L 447.756737 -32.963502 
L 448.425081 -32.660544 
L 449.093424 -32.366085 
L 449.761768 -32.079373 
L 450.430111 -31.799401 
L 451.098455 -31.52497 
L 451.766798 -31.254758 
L 452.435142 -30.987386 
L 453.103485 -30.721479 
L 453.771829 -30.455725 
L 454.440172 -30.188916 
L 455.108516 -29.919986 
L 455.77686 -29.64803 
L 456.445203 -29.372321 
L 457.113547 -29.092303 
L 457.78189 -28.807584 
L 458.450234 -28.51792 
L 459.118577 -28.223187 
L 459.786921 -27.923361 
L 460.455264 -27.618489 
L 461.123608 -27.308662 
L 461.791951 -26.993998 
L 462.460295 -26.674622 
L 463.128638 -26.350657 
L 463.796982 -26.022219 
L 464.465325 -25.689419 
L 465.133669 -25.352368 
L 465.802012 -25.011193 
L 466.470356 -24.666046 
L 467.138699 -24.317125 
L 467.807043 -23.96469 
L 468.475386 -23.60907 
L 469.14373 -23.250683 
L 469.812073 -22.890028 
L 470.480417 -22.527694 
L 471.14876 -22.16434 
L 471.817104 -21.800685 
L 472.485447 -21.437478 
L 473.153791 -21.075471 
L 473.822134 -20.715388 
L 474.490478 -20.357885 
L 475.158821 -20.003522 
L 475.827165 -19.652729 
L 476.495508 -19.305789 
L 477.163852 -18.962817 
L 477.832195 -18.623763 
L 478.500539 -18.288417 
L 479.168883 -17.956427 
L 479.837226 -17.627328 
L 480.50557 -17.300584 
L 481.173913 -16.975629 
L 481.842257 -16.651916 
L 482.5106 -16.328966 
L 483.178944 -16.006412 
L 483.847287 -15.684039 
L 484.515631 -15.361817 
L 485.183974 -15.039915 
L 485.852318 -14.718714 
L 486.520661 -14.398799 
L 487.189005 -14.080943 
L 487.857348 -13.76608 
L 488.525692 -13.455266 
L 489.194035 -13.149633 
L 489.862379 -12.850346 
L 490.530722 -12.558548 
L 491.199066 -12.27531 
L 491.867409 -12.001589 
L 492.535753 -11.738186 
L 493.204096 -11.48571 
L 493.87244 -11.244557 
L 494.540783 -11.01489 
L 495.209127 -10.796638 
L 495.87747 -10.589494 
L 496.545814 -10.39293 
L 497.214157 -10.206218 
L 497.882501 -10.028455 
L 498.550844 -9.8586 
L 499.219188 -9.69551 
L 499.887531 -9.537983 
L 500.555875 -9.384799 
L 501.224218 -9.234763 
L 501.892562 -9.086749 
L 502.560905 -8.939728 
L 503.229249 -8.792806 
L 503.897593 -8.645244 
L 504.565936 -8.496478 
L 505.23428 -8.346125 
L 505.902623 -8.193984 
L 506.570967 -8.040031 
L 507.23931 -7.884402 
L 507.907654 -7.727377 
L 508.575997 -7.569351 
L 509.244341 -7.410813 
L 509.912684 -7.252311 
L 510.581028 -7.094432 
L 511.249371 -6.937767 
L 511.917715 -6.782895 
L 512.586058 -6.630358 
L 513.254402 -6.480648 
L 513.922745 -6.334194 
L 514.591089 -6.191352 
L 515.259432 -6.052409 
L 515.927776 -5.917577 
L 516.596119 -5.787 
L 517.264463 -5.660759 
L 517.932806 -5.538883 
L 518.60115 -5.421356 
L 519.269493 -5.30813 
L 519.937837 -5.199134 
L 520.60618 -5.094285 
L 521.274524 -4.993496 
L 521.942867 -4.896682 
L 522.611211 -4.803766 
L 523.279554 -4.714682 
L 523.947898 -4.629372 
L 524.616241 -4.547785 
L 525.284585 -4.469873 
L 525.952928 -4.395584 
L 526.621272 -4.324858 
L 527.289616 -4.257613 
L 527.957959 -4.193746 
L 528.626303 -4.133125 
L 529.294646 -4.075584 
L 529.96299 -4.020927 
L 530.631333 -3.968923 
L 531.299677 -3.919321 
L 531.96802 -3.871844 
L 532.636364 -3.826211 
L 532.636364 -2.470909 
L 532.636364 -2.470909 
L 531.96802 -2.470909 
L 531.299677 -2.470909 
L 530.631333 -2.470909 
L 529.96299 -2.470909 
L 529.294646 -2.470909 
L 528.626303 -2.470909 
L 527.957959 -2.470909 
L 527.289616 -2.470909 
L 526.621272 -2.470909 
L 525.952928 -2.470909 
L 525.284585 -2.470909 
L 524.616241 -2.470909 
L 523.947898 -2.470909 
L 523.279554 -2.470909 
L 522.611211 -2.470909 
L 521.942867 -2.470909 
L 521.274524 -2.470909 
L 520.60618 -2.470909 
L 519.937837 -2.470909 
L 519.269493 -2.470909 
L 518.60115 -2.470909 
L 517.932806 -2.470909 
L 517.264463 -2.470909 
L 516.596119 -2.470909 
L 515.927776 -2.470909 
L 515.259432 -2.470909 
L 514.591089 -2.470909 
L 513.922745 -2.470909 
L 513.254402 -2.470909 
L 512.586058 -2.470909 
L 511.917715 -2.470909 
L 511.249371 -2.470909 
L 510.581028 -2.470909 
L 509.912684 -2.470909 
L 509.244341 -2.470909 
L 508.575997 -2.470909 
L 507.907654 -2.470909 
L 507.23931 -2.470909 
L 506.570967 -2.470909 
L 505.902623 -2.470909 
L 505.23428 -2.470909 
L 504.565936 -2.470909 
L 503.897593 -2.470909 
L 503.229249 -2.470909 
L 502.560905 -2.470909 
L 501.892562 -2.470909 
L 501.224218 -2.470909 
L 500.555875 -2.470909 
L 499.887531 -2.470909 
L 499.219188 -2.470909 
L 498.550844 -2.470909 
L 497.882501 -2.470909 
L 497.214157 -2.470909 
L 496.545814 -2.470909 
L 495.87747 -2.470909 
L 495.209127 -2.470909 
L 494.540783 -2.470909 
L 493.87244 -2.470909 
L 493.204096 -2.470909 
L 492.535753 -2.470909 
L 491.867409 -2.470909 
L 491.199066 -2.470909 
L 490.530722 -2.470909 
L 489.862379 -2.470909 
L 489.194035 -2.470909 
L 488.525692 -2.470909 
L 487.857348 -2.470909 
L 487.189005 -2.470909 
L 486.520661 -2.470909 
L 485.852318 -2.470909 
L 485.183974 -2.470909 
L 484.515631 -2.470909 
L 483.847287 -2.470909 
L 483.178944 -2.470909 
L 482.5106 -2.470909 
L 481.842257 -2.470909 
L 481.173913 -2.470909 
L 480.50557 -2.470909 
L 479.837226 -2.470909 
L 479.168883 -2.470909 
L 478.500539 -2.470909 
L 477.832195 -2.470909 
L 477.163852 -2.470909 
L 476.495508 -2.470909 
L 475.827165 -2.470909 
L 475.158821 -2.470909 
L 474.490478 -2.470909 
L 473.822134 -2.470909 
L 473.153791 -2.470909 
L 472.485447 -2.470909 
L 471.817104 -2.470909 
L 471.14876 -2.470909 
L 470.480417 -2.470909 
L 469.812073 -2.470909 
L 469.14373 -2.470909 
L 468.475386 -2.470909 
L 467.807043 -2.470909 
L 467.138699 -2.470909 
L 466.470356 -2.470909 
L 465.802012 -2.470909 
L 465.133669 -2.470909 
L 464.465325 -2.470909 
L 463.796982 -2.470909 
L 463.128638 -2.470909 
L 462.460295 -2.470909 
L 461.791951 -2.470909 
L 461.123608 -2.470909 
L 460.455264 -2.470909 
L 459.786921 -2.470909 
L 459.118577 -2.470909 
L 458.450234 -2.470909 
L 457.78189 -2.470909 
L 457.113547 -2.470909 
L 456.445203 -2.470909 
L 455.77686 -2.470909 
L 455.108516 -2.470909 
L 454.440172 -2.470909 
L 453.771829 -2.470909 
L 453.103485 -2.470909 
L 452.435142 -2.470909 
L 451.766798 -2.470909 
L 451.098455 -2.470909 
L 450.430111 -2.470909 
L 449.761768 -2.470909 
L 449.093424 -2.470909 
L 448.425081 -2.470909 
L 447.756737 -2.470909 
L 447.088394 -2.470909 
L 446.42005 -2.470909 
L 445.751707 -2.470909 
L 445.083363 -2.470909 
L 444.41502 -2.470909 
L 443.746676 -2.470909 
L 443.078333 -2.470909 
L 442.409989 -2.470909 
L 441.741646 -2.470909 
L 441.073302 -2.470909 
L 440.404959 -2.470909 
L 439.736615 -2.470909 
L 439.068272 -2.470909 
L 438.399928 -2.470909 
L 437.731585 -2.470909 
L 437.063241 -2.470909 
L 436.394898 -2.470909 
L 435.726554 -2.470909 
L 435.058211 -2.470909 
L 434.389867 -2.470909 
L 433.721524 -2.470909 
L 433.05318 -2.470909 
L 432.384837 -2.470909 
L 431.716493 -2.470909 
L 431.048149 -2.470909 
L 430.379806 -2.470909 
L 429.711462 -2.470909 
L 429.043119 -2.470909 
L 428.374775 -2.470909 
L 427.706432 -2.470909 
L 427.038088 -2.470909 
L 426.369745 -2.470909 
L 425.701401 -2.470909 
L 425.033058 -2.470909 
L 424.364714 -2.470909 
L 423.696371 -2.470909 
L 423.028027 -2.470909 
L 422.359684 -2.470909 
L 421.69134 -2.470909 
L 421.022997 -2.470909 
L 420.354653 -2.470909 
L 419.68631 -2.470909 
L 419.017966 -2.470909 
L 418.349623 -2.470909 
L 417.681279 -2.470909 
L 417.012936 -2.470909 
L 416.344592 -2.470909 
L 415.676249 -2.470909 
L 415.007905 -2.470909 
L 414.339562 -2.470909 
L 413.671218 -2.470909 
L 413.002875 -2.470909 
L 412.334531 -2.470909 
L 411.666188 -2.470909 
L 410.997844 -2.470909 
L 410.329501 -2.470909 
L 409.661157 -2.470909 
L 408.992814 -2.470909 
L 408.32447 -2.470909 
L 407.656126 -2.470909 
L 406.987783 -2.470909 
L 406.319439 -2.470909 
L 405.651096 -2.470909 
L 404.982752 -2.470909 
L 404.314409 -2.470909 
L 403.646065 -2.470909 
L 402.977722 -2.470909 
L 402.309378 -2.470909 
L 401.641035 -2.470909 
L 400.972691 -2.470909 
L 400.304348 -2.470909 
L 399.636004 -2.470909 
L 398.967661 -2.470909 
L 398.299317 -2.470909 
L 397.630974 -2.470909 
L 396.96263 -2.470909 
L 396.294287 -2.470909 
L 395.625943 -2.470909 
L 394.9576 -2.470909 
L 394.289256 -2.470909 
L 393.620913 -2.470909 
L 392.952569 -2.470909 
L 392.284226 -2.470909 
L 391.615882 -2.470909 
L 390.947539 -2.470909 
L 390.279195 -2.470909 
L 389.610852 -2.470909 
L 388.942508 -2.470909 
L 388.274165 -2.470909 
L 387.605821 -2.470909 
L 386.937478 -2.470909 
L 386.269134 -2.470909 
L 385.600791 -2.470909 
L 384.932447 -2.470909 
L 384.264103 -2.470909 
L 383.59576 -2.470909 
L 382.927416 -2.470909 
L 382.259073 -2.470909 
L 381.590729 -2.470909 
L 380.922386 -2.470909 
L 380.254042 -2.470909 
L 379.585699 -2.470909 
L 378.917355 -2.470909 
L 378.249012 -2.470909 
L 377.580668 -2.470909 
L 376.912325 -2.470909 
L 376.243981 -2.470909 
L 375.575638 -2.470909 
L 374.907294 -2.470909 
L 374.238951 -2.470909 
L 373.570607 -2.470909 
L 372.902264 -2.470909 
L 372.23392 -2.470909 
L 371.565577 -2.470909 
L 370.897233 -2.470909 
L 370.22889 -2.470909 
L 369.560546 -2.470909 
L 368.892203 -2.470909 
L 368.223859 -2.470909 
L 367.555516 -2.470909 
L 366.887172 -2.470909 
L 366.218829 -2.470909 
L 365.550485 -2.470909 
L 364.882142 -2.470909 
L 364.213798 -2.470909 
L 363.545455 -2.470909 
L 362.877111 -2.470909 
L 362.208768 -2.470909 
L 361.540424 -2.470909 
L 360.87208 -2.470909 
L 360.203737 -2.470909 
L 359.535393 -2.470909 
L 358.86705 -2.470909 
L 358.198706 -2.470909 
L 357.530363 -2.470909 
L 356.862019 -2.470909 
L 356.193676 -2.470909 
L 355.525332 -2.470909 
L 354.856989 -2.470909 
L 354.188645 -2.470909 
L 353.520302 -2.470909 
L 352.851958 -2.470909 
L 352.183615 -2.470909 
L 351.515271 -2.470909 
L 350.846928 -2.470909 
L 350.178584 -2.470909 
L 349.510241 -2.470909 
L 348.841897 -2.470909 
L 348.173554 -2.470909 
L 347.50521 -2.470909 
L 346.836867 -2.470909 
L 346.168523 -2.470909 
L 345.50018 -2.470909 
L 344.831836 -2.470909 
L 344.163493 -2.470909 
L 343.495149 -2.470909 
L 342.826806 -2.470909 
L 342.158462 -2.470909 
L 341.490119 -2.470909 
L 340.821775 -2.470909 
L 340.153432 -2.470909 
L 339.485088 -2.470909 
L 338.816745 -2.470909 
L 338.148401 -2.470909 
L 337.480057 -2.470909 
L 336.811714 -2.470909 
L 336.14337 -2.470909 
L 335.475027 -2.470909 
L 334.806683 -2.470909 
L 334.13834 -2.470909 
L 333.469996 -2.470909 
L 332.801653 -2.470909 
L 332.133309 -2.470909 
L 331.464966 -2.470909 
L 330.796622 -2.470909 
L 330.128279 -2.470909 
L 329.459935 -2.470909 
L 328.791592 -2.470909 
L 328.123248 -2.470909 
L 327.454905 -2.470909 
L 326.786561 -2.470909 
L 326.118218 -2.470909 
L 325.449874 -2.470909 
L 324.781531 -2.470909 
L 324.113187 -2.470909 
L 323.444844 -2.470909 
L 322.7765 -2.470909 
L 322.108157 -2.470909 
L 321.439813 -2.470909 
L 320.77147 -2.470909 
L 320.103126 -2.470909 
L 319.434783 -2.470909 
L 318.766439 -2.470909 
z
" style="stroke: #116dc2; stroke-opacity: 0.2"/>
    </defs>
    <g clip-path="url(#pb85b8ef8b8)">
     <use xlink:href="#me74b9fae0b" x="0" y="54.36" style="fill: #116dc2; fill-opacity: 0.2; stroke: #116dc2; stroke-opacity: 0.2"/>
    </g>
   </g>
   <g id="PolyCollection_3">
    <defs>
     <path id="md4adae7acc" d="M 25.363636 -2.470909 
L 25.363636 -5.125294 
L 26.03198 -5.573122 
L 26.700323 -6.067394 
L 27.368667 -6.649762 
L 28.03701 -7.354518 
L 28.705354 -8.184545 
L 29.373697 -9.098893 
L 30.042041 -10.037722 
L 30.710384 -10.976443 
L 31.378728 -11.956773 
L 32.047072 -13.058842 
L 32.715415 -14.339542 
L 33.383759 -15.791823 
L 34.052102 -17.358717 
L 34.720446 -18.99234 
L 35.388789 -20.705176 
L 36.057133 -22.558296 
L 36.725476 -24.594747 
L 37.39382 -26.789444 
L 38.062163 -29.064216 
L 38.730507 -31.344424 
L 39.39885 -33.606512 
L 40.067194 -35.886947 
L 40.735537 -38.241979 
L 41.403881 -40.673868 
L 42.072224 -43.08547 
L 42.740568 -45.323426 
L 43.408911 -47.275178 
L 44.077255 -48.907781 
L 44.745598 -50.212332 
L 45.413942 -51.153221 
L 46.082285 -51.701203 
L 46.750629 -51.889091 
L 47.418972 -51.805957 
L 48.087316 -51.555719 
L 48.755659 -51.239549 
L 49.424003 -50.947938 
L 50.092346 -50.731875 
L 50.76069 -50.57574 
L 51.429033 -50.393066 
L 52.097377 -50.034159 
L 52.76572 -49.317206 
L 53.434064 -48.103767 
L 54.102407 -46.375275 
L 54.770751 -44.237737 
L 55.439095 -41.856145 
L 56.107438 -39.387055 
L 56.775782 -36.946374 
L 57.444125 -34.595424 
L 58.112469 -32.338925 
L 58.780812 -30.154342 
L 59.449156 -28.042978 
L 60.117499 -26.052344 
L 60.785843 -24.238892 
L 61.454186 -22.60421 
L 62.12253 -21.071984 
L 62.790873 -19.536113 
L 63.459217 -17.939188 
L 64.12756 -16.310333 
L 64.795904 -14.731263 
L 65.464247 -13.266088 
L 66.132591 -11.921952 
L 66.800934 -10.673767 
L 67.469278 -9.516916 
L 68.137621 -8.483532 
L 68.805965 -7.607244 
L 69.474308 -6.884283 
L 70.142652 -6.275333 
L 70.810995 -5.73757 
L 71.479339 -5.247463 
L 72.147682 -4.798792 
L 72.147682 -2.470909 
L 72.147682 -2.470909 
L 71.479339 -2.470909 
L 70.810995 -2.470909 
L 70.142652 -2.470909 
L 69.474308 -2.470909 
L 68.805965 -2.470909 
L 68.137621 -2.470909 
L 67.469278 -2.470909 
L 66.800934 -2.470909 
L 66.132591 -2.470909 
L 65.464247 -2.470909 
L 64.795904 -2.470909 
L 64.12756 -2.470909 
L 63.459217 -2.470909 
L 62.790873 -2.470909 
L 62.12253 -2.470909 
L 61.454186 -2.470909 
L 60.785843 -2.470909 
L 60.117499 -2.470909 
L 59.449156 -2.470909 
L 58.780812 -2.470909 
L 58.112469 -2.470909 
L 57.444125 -2.470909 
L 56.775782 -2.470909 
L 56.107438 -2.470909 
L 55.439095 -2.470909 
L 54.770751 -2.470909 
L 54.102407 -2.470909 
L 53.434064 -2.470909 
L 52.76572 -2.470909 
L 52.097377 -2.470909 
L 51.429033 -2.470909 
L 50.76069 -2.470909 
L 50.092346 -2.470909 
L 49.424003 -2.470909 
L 48.755659 -2.470909 
L 48.087316 -2.470909 
L 47.418972 -2.470909 
L 46.750629 -2.470909 
L 46.082285 -2.470909 
L 45.413942 -2.470909 
L 44.745598 -2.470909 
L 44.077255 -2.470909 
L 43.408911 -2.470909 
L 42.740568 -2.470909 
L 42.072224 -2.470909 
L 41.403881 -2.470909 
L 40.735537 -2.470909 
L 40.067194 -2.470909 
L 39.39885 -2.470909 
L 38.730507 -2.470909 
L 38.062163 -2.470909 
L 37.39382 -2.470909 
L 36.725476 -2.470909 
L 36.057133 -2.470909 
L 35.388789 -2.470909 
L 34.720446 -2.470909 
L 34.052102 -2.470909 
L 33.383759 -2.470909 
L 32.715415 -2.470909 
L 32.047072 -2.470909 
L 31.378728 -2.470909 
L 30.710384 -2.470909 
L 30.042041 -2.470909 
L 29.373697 -2.470909 
L 28.705354 -2.470909 
L 28.03701 -2.470909 
L 27.368667 -2.470909 
L 26.700323 -2.470909 
L 26.03198 -2.470909 
L 25.363636 -2.470909 
z
" style="stroke: #8a8a8a; stroke-opacity: 0.2"/>
    </defs>
    <g clip-path="url(#pb85b8ef8b8)">
     <use xlink:href="#md4adae7acc" x="0" y="54.36" style="fill: #8a8a8a; fill-opacity: 0.2; stroke: #8a8a8a; stroke-opacity: 0.2"/>
    </g>
   </g>
   <g id="line2d_1">
    <path d="M 72.147682 50.263083 
L 81.504492 49.254667 
L 88.85627 48.336335 
L 92.866331 47.613249 
L 97.544736 46.517556 
L 102.891484 45.044612 
L 107.569889 43.539189 
L 115.590011 40.609479 
L 122.273446 38.066402 
L 125.615163 36.542997 
L 128.956881 34.784733 
L 133.635286 32.042078 
L 146.333812 24.440647 
L 149.67553 22.767797 
L 152.348904 21.662341 
L 155.690622 20.566465 
L 160.369026 19.348265 
L 167.720805 17.435997 
L 173.067553 16.064729 
L 176.409271 15.438674 
L 179.082645 15.148078 
L 181.756019 15.080296 
L 184.429393 15.265773 
L 186.434423 15.591504 
L 188.439454 16.089689 
L 191.112828 17.015186 
L 194.454545 18.472914 
L 198.464607 20.221337 
L 201.137981 21.117112 
L 203.811355 21.748017 
L 209.826446 22.990883 
L 211.831477 23.638988 
L 213.836507 24.473327 
L 216.509881 25.842695 
L 221.188286 28.601932 
L 225.866691 31.280865 
L 230.545095 33.675538 
L 237.22853 36.814105 
L 248.59037 41.841361 
L 252.600431 43.414395 
L 255.942149 44.49482 
L 259.95221 45.535091 
L 271.31405 48.073783 
L 276.660798 49.102573 
L 281.339202 49.785957 
L 286.68595 50.321309 
L 290.027668 50.553471 
L 290.027668 50.553471 
" clip-path="url(#pb85b8ef8b8)" style="fill: none; stroke: #cf1313; stroke-width: 1.5; stroke-linecap: square"/>
   </g>
   <g id="line2d_2">
    <path d="M 318.766439 50.25404 
L 325.449874 49.399448 
L 330.796622 48.506995 
L 341.490119 46.405422 
L 346.836867 45.186179 
L 350.178584 44.191116 
L 352.851958 43.196596 
L 356.193676 41.707299 
L 364.882142 37.642979 
L 368.223859 36.412736 
L 375.575638 33.831533 
L 378.917355 32.345631 
L 382.259073 30.599363 
L 386.937478 27.863763 
L 392.284226 24.769898 
L 394.9576 23.44089 
L 397.630974 22.34392 
L 400.304348 21.49057 
L 403.646065 20.68331 
L 409.661157 19.279212 
L 414.339562 17.847811 
L 418.349623 16.681027 
L 421.69134 15.938522 
L 425.701401 15.285443 
L 429.043119 14.953847 
L 431.048149 14.928042 
L 433.05318 15.099527 
L 435.058211 15.505884 
L 437.063241 16.151043 
L 439.736615 17.31989 
L 445.083363 20.096403 
L 448.425081 21.699456 
L 452.435142 23.372614 
L 459.118577 26.136813 
L 463.796982 28.337781 
L 469.14373 31.109317 
L 479.168883 36.403573 
L 488.525692 40.904734 
L 492.535753 42.621814 
L 495.87747 43.770506 
L 499.219188 44.66449 
L 513.922745 48.025806 
L 518.60115 48.938644 
L 523.279554 49.645318 
L 528.626303 50.226875 
L 532.636364 50.533789 
L 532.636364 50.533789 
" clip-path="url(#pb85b8ef8b8)" style="fill: none; stroke: #116dc2; stroke-width: 1.5; stroke-linecap: square"/>
   </g>
   <g id="line2d_3">
    <path d="M 25.363636 49.234706 
L 26.03198 48.786878 
L 26.700323 48.292606 
L 27.368667 47.710238 
L 28.03701 47.005482 
L 28.705354 46.175455 
L 29.373697 45.261107 
L 30.042041 44.322278 
L 30.710384 43.383557 
L 31.378728 42.403227 
L 32.047072 41.301158 
L 32.715415 40.020458 
L 33.383759 38.568177 
L 34.052102 37.001283 
L 34.720446 35.36766 
L 35.388789 33.654824 
L 36.057133 31.801704 
L 36.725476 29.765253 
L 37.39382 27.570556 
L 38.062163 25.295784 
L 38.730507 23.015576 
L 39.39885 20.753488 
L 40.067194 18.473053 
L 40.735537 16.118021 
L 41.403881 13.686132 
L 42.072224 11.27453 
L 42.740568 9.036574 
L 43.408911 7.084822 
L 44.077255 5.452219 
L 44.745598 4.147668 
L 45.413942 3.206779 
L 46.082285 2.658797 
L 46.750629 2.470909 
L 47.418972 2.554043 
L 48.087316 2.804281 
L 48.755659 3.120451 
L 49.424003 3.412062 
L 50.092346 3.628125 
L 50.76069 3.78426 
L 51.429033 3.966934 
L 52.097377 4.325841 
L 52.76572 5.042794 
L 53.434064 6.256233 
L 54.102407 7.984725 
L 54.770751 10.122263 
L 55.439095 12.503855 
L 56.107438 14.972945 
L 56.775782 17.413626 
L 57.444125 19.764576 
L 58.112469 22.021075 
L 58.780812 24.205658 
L 59.449156 26.317022 
L 60.117499 28.307656 
L 60.785843 30.121108 
L 61.454186 31.75579 
L 62.12253 33.288016 
L 62.790873 34.823887 
L 63.459217 36.420812 
L 64.12756 38.049667 
L 64.795904 39.628737 
L 65.464247 41.093912 
L 66.132591 42.438048 
L 66.800934 43.686233 
L 67.469278 44.843084 
L 68.137621 45.876468 
L 68.805965 46.752756 
L 69.474308 47.475717 
L 70.142652 48.084667 
L 70.810995 48.62243 
L 71.479339 49.112537 
L 72.147682 49.561208 
" clip-path="url(#pb85b8ef8b8)" style="fill: none; stroke: #8a8a8a; stroke-width: 1.5; stroke-linecap: square"/>
   </g>
  </g>
 </g>
 <defs>
  <clipPath id="pb85b8ef8b8">
   <rect x="0" y="-0" width="558" height="54.36"/>
  </clipPath>
 </defs>
</svg>
