<?xml version="1.0" encoding="utf-8" standalone="no"?>
<!DOCTYPE svg PUBLIC "-//W3C//DTD SVG 1.1//EN"
  "http://www.w3.org/Graphics/SVG/1.1/DTD/svg11.dtd">
<svg xmlns:xlink="http://www.w3.org/1999/xlink" width="558pt" height="54.36pt" viewBox="0 0 558 54.36" xmlns="http://www.w3.org/2000/svg" version="1.1">
 <metadata>
  <rdf:RDF xmlns:dc="http://purl.org/dc/elements/1.1/" xmlns:cc="http://creativecommons.org/ns#" xmlns:rdf="http://www.w3.org/1999/02/22-rdf-syntax-ns#">
   <cc:Work>
    <dc:type rdf:resource="http://purl.org/dc/dcmitype/StillImage"/>
    <dc:date>2024-09-14T12:46:55.664057</dc:date>
    <dc:format>image/svg+xml</dc:format>
    <dc:creator>
     <cc:Agent>
      <dc:title>Matplotlib v3.5.2, https://matplotlib.org/</dc:title>
     </cc:Agent>
    </dc:creator>
   </cc:Work>
  </rdf:RDF>
 </metadata>
 <defs>
  <style type="text/css">*{stroke-linejoin: round; stroke-linecap: butt}</style>
 </defs>
 <g id="figure_1">
  <g id="patch_1">
   <path d="M 0 54.36 
L 558 54.36 
L 558 0 
L 0 0 
L 0 54.36 
z
" style="fill: none; opacity: 0"/>
  </g>
  <g id="axes_1">
   <g id="PolyCollection_1">
    <defs>
     <path id="me59bb0d856" d="M 251.824675 -2.470909 
L 251.824675 -3.888071 
L 252.579545 -3.952254 
L 253.334416 -4.01905 
L 254.089286 -4.088392 
L 254.844156 -4.160216 
L 255.599026 -4.234457 
L 256.353896 -4.311058 
L 257.108766 -4.389967 
L 257.863636 -4.471144 
L 258.618506 -4.554559 
L 259.373377 -4.640196 
L 260.128247 -4.728055 
L 260.883117 -4.818149 
L 261.637987 -4.910508 
L 262.392857 -5.00518 
L 263.147727 -5.102227 
L 263.902597 -5.201726 
L 264.657468 -5.303771 
L 265.412338 -5.408468 
L 266.167208 -5.515934 
L 266.922078 -5.626295 
L 267.676948 -5.739685 
L 268.431818 -5.856237 
L 269.186688 -5.976084 
L 269.941558 -6.099351 
L 270.696429 -6.226149 
L 271.451299 -6.356571 
L 272.206169 -6.490685 
L 272.961039 -6.628525 
L 273.715909 -6.770089 
L 274.470779 -6.915331 
L 275.225649 -7.064159 
L 275.980519 -7.216428 
L 276.73539 -7.37194 
L 277.49026 -7.530446 
L 278.24513 -7.691643 
L 279 -7.855184 
L 279.75487 -8.020676 
L 280.50974 -8.187695 
L 281.26461 -8.355792 
L 282.019481 -8.5245 
L 282.774351 -8.693352 
L 283.529221 -8.86189 
L 284.284091 -9.029679 
L 285.038961 -9.196318 
L 285.793831 -9.361453 
L 286.548701 -9.524788 
L 287.303571 -9.686099 
L 288.058442 -9.845234 
L 288.813312 -10.002128 
L 289.568182 -10.156804 
L 290.323052 -10.309374 
L 291.077922 -10.460043 
L 291.832792 -10.6091 
L 292.587662 -10.756921 
L 293.342532 -10.903954 
L 294.097403 -11.050712 
L 294.852273 -11.197761 
L 295.607143 -11.345704 
L 296.362013 -11.495165 
L 297.116883 -11.646771 
L 297.871753 -11.801135 
L 298.626623 -11.958835 
L 299.381494 -12.120396 
L 300.136364 -12.286276 
L 300.891234 -12.456846 
L 301.646104 -12.632384 
L 302.400974 -12.813059 
L 303.155844 -12.99893 
L 303.910714 -13.189947 
L 304.665584 -13.385951 
L 305.420455 -13.586686 
L 306.175325 -13.79181 
L 306.930195 -14.000913 
L 307.685065 -14.213538 
L 308.439935 -14.429204 
L 309.194805 -14.647427 
L 309.949675 -14.86775 
L 310.704545 -15.08976 
L 311.459416 -15.313113 
L 312.214286 -15.537552 
L 312.969156 -15.762918 
L 313.724026 -15.989161 
L 314.478896 -16.216342 
L 315.233766 -16.444629 
L 315.988636 -16.674293 
L 316.743506 -16.905692 
L 317.498377 -17.139254 
L 318.253247 -17.375456 
L 319.008117 -17.614801 
L 319.762987 -17.857791 
L 320.517857 -18.104906 
L 321.272727 -18.356572 
L 322.027597 -18.613149 
L 322.782468 -18.874901 
L 323.537338 -19.141989 
L 324.292208 -19.414453 
L 325.047078 -19.692211 
L 325.801948 -19.97505 
L 326.556818 -20.262636 
L 327.311688 -20.554514 
L 328.066558 -20.850125 
L 328.821429 -21.148813 
L 329.576299 -21.449848 
L 330.331169 -21.75244 
L 331.086039 -22.055763 
L 331.840909 -22.358972 
L 332.595779 -22.661225 
L 333.350649 -22.961704 
L 334.105519 -23.259632 
L 334.86039 -23.554293 
L 335.61526 -23.845041 
L 336.37013 -24.131321 
L 337.125 -24.412672 
L 337.87987 -24.688738 
L 338.63474 -24.959268 
L 339.38961 -25.224123 
L 340.144481 -25.483269 
L 340.899351 -25.736775 
L 341.654221 -25.984804 
L 342.409091 -26.227603 
L 343.163961 -26.465495 
L 343.918831 -26.698859 
L 344.673701 -26.928122 
L 345.428571 -27.153741 
L 346.183442 -27.376186 
L 346.938312 -27.595929 
L 347.693182 -27.813427 
L 348.448052 -28.02911 
L 349.202922 -28.243372 
L 349.957792 -28.456558 
L 350.712662 -28.668961 
L 351.467532 -28.880815 
L 352.222403 -29.092291 
L 352.977273 -29.3035 
L 353.732143 -29.514494 
L 354.487013 -29.725265 
L 355.241883 -29.935753 
L 355.996753 -30.145852 
L 356.751623 -30.355412 
L 357.506494 -30.56425 
L 358.261364 -30.772151 
L 359.016234 -30.97888 
L 359.771104 -31.184183 
L 360.525974 -31.387794 
L 361.280844 -31.589443 
L 362.035714 -31.788854 
L 362.790584 -31.985757 
L 363.545455 -32.179885 
L 364.300325 -32.370983 
L 365.055195 -32.558807 
L 365.810065 -32.743133 
L 366.564935 -32.92375 
L 367.319805 -33.100473 
L 368.074675 -33.273134 
L 368.829545 -33.441589 
L 369.584416 -33.605711 
L 370.339286 -33.765392 
L 371.094156 -33.920535 
L 371.849026 -34.07105 
L 372.603896 -34.216846 
L 373.358766 -34.357821 
L 374.113636 -34.493858 
L 374.868506 -34.624812 
L 375.623377 -34.750505 
L 376.378247 -34.870717 
L 377.133117 -34.985184 
L 377.887987 -35.093593 
L 378.642857 -35.195585 
L 379.397727 -35.290759 
L 380.152597 -35.378677 
L 380.907468 -35.458879 
L 381.662338 -35.530888 
L 382.417208 -35.594235 
L 383.172078 -35.648467 
L 383.926948 -35.693164 
L 384.681818 -35.727962 
L 385.436688 -35.752558 
L 386.191558 -35.766728 
L 386.946429 -35.770336 
L 387.701299 -35.763336 
L 388.456169 -35.74578 
L 389.211039 -35.717813 
L 389.965909 -35.679667 
L 390.720779 -35.63166 
L 391.475649 -35.574181 
L 392.230519 -35.507679 
L 392.98539 -35.432656 
L 393.74026 -35.349651 
L 394.49513 -35.25923 
L 395.25 -35.161978 
L 396.00487 -35.058488 
L 396.75974 -34.949358 
L 397.51461 -34.835185 
L 398.269481 -34.71656 
L 399.024351 -34.594073 
L 399.779221 -34.468307 
L 400.534091 -34.339838 
L 401.288961 -34.209239 
L 402.043831 -34.077074 
L 402.798701 -33.943898 
L 403.553571 -33.81025 
L 404.308442 -33.676649 
L 405.063312 -33.543584 
L 405.818182 -33.411505 
L 406.573052 -33.280808 
L 407.327922 -33.151826 
L 408.082792 -33.024812 
L 408.837662 -32.89993 
L 409.592532 -32.777242 
L 410.347403 -32.656698 
L 411.102273 -32.53813 
L 411.857143 -32.421256 
L 412.612013 -32.305673 
L 413.366883 -32.190872 
L 414.121753 -32.076243 
L 414.876623 -31.961096 
L 415.631494 -31.844676 
L 416.386364 -31.726188 
L 417.141234 -31.604821 
L 417.896104 -31.47977 
L 418.650974 -31.350261 
L 419.405844 -31.215574 
L 420.160714 -31.07506 
L 420.915584 -30.928159 
L 421.670455 -30.774403 
L 422.425325 -30.61343 
L 423.180195 -30.444974 
L 423.935065 -30.268868 
L 424.689935 -30.085025 
L 425.444805 -29.893433 
L 426.199675 -29.694133 
L 426.954545 -29.487206 
L 427.709416 -29.272752 
L 428.464286 -29.050881 
L 429.219156 -28.821692 
L 429.974026 -28.585274 
L 430.728896 -28.341693 
L 431.483766 -28.090997 
L 432.238636 -27.833214 
L 432.993506 -27.568367 
L 433.748377 -27.296481 
L 434.503247 -27.017595 
L 435.258117 -26.731778 
L 436.012987 -26.439143 
L 436.767857 -26.139858 
L 437.522727 -25.834156 
L 438.277597 -25.522345 
L 439.032468 -25.204806 
L 439.787338 -24.881997 
L 440.542208 -24.554441 
L 441.297078 -24.222726 
L 442.051948 -23.887486 
L 442.806818 -23.549388 
L 443.561688 -23.20912 
L 444.316558 -22.867372 
L 445.071429 -22.524822 
L 445.826299 -22.182125 
L 446.581169 -21.839899 
L 447.336039 -21.49872 
L 448.090909 -21.159119 
L 448.845779 -20.821578 
L 449.600649 -20.486534 
L 450.355519 -20.154386 
L 451.11039 -19.825497 
L 451.86526 -19.500205 
L 452.62013 -19.178831 
L 453.375 -18.861687 
L 454.12987 -18.549081 
L 454.88474 -18.241319 
L 455.63961 -17.938712 
L 456.394481 -17.641571 
L 457.149351 -17.350203 
L 457.904221 -17.064907 
L 458.659091 -16.785962 
L 459.413961 -16.513619 
L 460.168831 -16.248089 
L 460.923701 -15.989529 
L 461.678571 -15.738033 
L 462.433442 -15.493624 
L 463.188312 -15.256242 
L 463.943182 -15.02574 
L 464.698052 -14.801884 
L 465.452922 -14.584355 
L 466.207792 -14.372747 
L 466.962662 -14.166586 
L 467.717532 -13.96533 
L 468.472403 -13.768389 
L 469.227273 -13.575141 
L 469.982143 -13.384945 
L 470.737013 -13.197159 
L 471.491883 -13.01116 
L 472.246753 -12.826359 
L 473.001623 -12.642215 
L 473.756494 -12.458247 
L 474.511364 -12.274048 
L 475.266234 -12.089289 
L 476.021104 -11.903726 
L 476.775974 -11.717201 
L 477.530844 -11.529643 
L 478.285714 -11.341064 
L 479.040584 -11.151552 
L 479.795455 -10.961268 
L 480.550325 -10.770433 
L 481.305195 -10.579325 
L 482.060065 -10.38826 
L 482.814935 -10.197589 
L 483.569805 -10.007686 
L 484.324675 -9.818934 
L 485.079545 -9.631722 
L 485.834416 -9.44643 
L 486.589286 -9.263426 
L 487.344156 -9.083055 
L 488.099026 -8.905634 
L 488.853896 -8.731447 
L 489.608766 -8.560743 
L 490.363636 -8.393728 
L 491.118506 -8.230569 
L 491.873377 -8.071387 
L 492.628247 -7.916263 
L 493.383117 -7.765236 
L 494.137987 -7.618304 
L 494.892857 -7.475435 
L 495.647727 -7.336561 
L 496.402597 -7.201592 
L 497.157468 -7.070416 
L 497.912338 -6.942909 
L 498.667208 -6.818938 
L 499.422078 -6.698368 
L 500.176948 -6.581069 
L 500.931818 -6.466917 
L 501.686688 -6.355802 
L 502.441558 -6.247628 
L 503.196429 -6.142313 
L 503.951299 -6.039791 
L 504.706169 -5.940013 
L 505.461039 -5.84294 
L 506.215909 -5.748541 
L 506.970779 -5.656792 
L 507.725649 -5.567668 
L 508.480519 -5.481142 
L 509.23539 -5.397178 
L 509.99026 -5.315729 
L 510.74513 -5.236738 
L 511.5 -5.160128 
L 512.25487 -5.085809 
L 513.00974 -5.013678 
L 513.76461 -4.943615 
L 514.519481 -4.875494 
L 515.274351 -4.809178 
L 516.029221 -4.744529 
L 516.784091 -4.681411 
L 517.538961 -4.619693 
L 518.293831 -4.559252 
L 519.048701 -4.49998 
L 519.803571 -4.441784 
L 520.558442 -4.384589 
L 521.313312 -4.328337 
L 522.068182 -4.272994 
L 522.823052 -4.21854 
L 523.577922 -4.164977 
L 524.332792 -4.11232 
L 525.087662 -4.0606 
L 525.842532 -4.009859 
L 526.597403 -3.960146 
L 527.352273 -3.911518 
L 528.107143 -3.864035 
L 528.862013 -3.817759 
L 529.616883 -3.772748 
L 530.371753 -3.729062 
L 531.126623 -3.686753 
L 531.881494 -3.64587 
L 532.636364 -3.606455 
L 532.636364 -2.470909 
L 532.636364 -2.470909 
L 531.881494 -2.470909 
L 531.126623 -2.470909 
L 530.371753 -2.470909 
L 529.616883 -2.470909 
L 528.862013 -2.470909 
L 528.107143 -2.470909 
L 527.352273 -2.470909 
L 526.597403 -2.470909 
L 525.842532 -2.470909 
L 525.087662 -2.470909 
L 524.332792 -2.470909 
L 523.577922 -2.470909 
L 522.823052 -2.470909 
L 522.068182 -2.470909 
L 521.313312 -2.470909 
L 520.558442 -2.470909 
L 519.803571 -2.470909 
L 519.048701 -2.470909 
L 518.293831 -2.470909 
L 517.538961 -2.470909 
L 516.784091 -2.470909 
L 516.029221 -2.470909 
L 515.274351 -2.470909 
L 514.519481 -2.470909 
L 513.76461 -2.470909 
L 513.00974 -2.470909 
L 512.25487 -2.470909 
L 511.5 -2.470909 
L 510.74513 -2.470909 
L 509.99026 -2.470909 
L 509.23539 -2.470909 
L 508.480519 -2.470909 
L 507.725649 -2.470909 
L 506.970779 -2.470909 
L 506.215909 -2.470909 
L 505.461039 -2.470909 
L 504.706169 -2.470909 
L 503.951299 -2.470909 
L 503.196429 -2.470909 
L 502.441558 -2.470909 
L 501.686688 -2.470909 
L 500.931818 -2.470909 
L 500.176948 -2.470909 
L 499.422078 -2.470909 
L 498.667208 -2.470909 
L 497.912338 -2.470909 
L 497.157468 -2.470909 
L 496.402597 -2.470909 
L 495.647727 -2.470909 
L 494.892857 -2.470909 
L 494.137987 -2.470909 
L 493.383117 -2.470909 
L 492.628247 -2.470909 
L 491.873377 -2.470909 
L 491.118506 -2.470909 
L 490.363636 -2.470909 
L 489.608766 -2.470909 
L 488.853896 -2.470909 
L 488.099026 -2.470909 
L 487.344156 -2.470909 
L 486.589286 -2.470909 
L 485.834416 -2.470909 
L 485.079545 -2.470909 
L 484.324675 -2.470909 
L 483.569805 -2.470909 
L 482.814935 -2.470909 
L 482.060065 -2.470909 
L 481.305195 -2.470909 
L 480.550325 -2.470909 
L 479.795455 -2.470909 
L 479.040584 -2.470909 
L 478.285714 -2.470909 
L 477.530844 -2.470909 
L 476.775974 -2.470909 
L 476.021104 -2.470909 
L 475.266234 -2.470909 
L 474.511364 -2.470909 
L 473.756494 -2.470909 
L 473.001623 -2.470909 
L 472.246753 -2.470909 
L 471.491883 -2.470909 
L 470.737013 -2.470909 
L 469.982143 -2.470909 
L 469.227273 -2.470909 
L 468.472403 -2.470909 
L 467.717532 -2.470909 
L 466.962662 -2.470909 
L 466.207792 -2.470909 
L 465.452922 -2.470909 
L 464.698052 -2.470909 
L 463.943182 -2.470909 
L 463.188312 -2.470909 
L 462.433442 -2.470909 
L 461.678571 -2.470909 
L 460.923701 -2.470909 
L 460.168831 -2.470909 
L 459.413961 -2.470909 
L 458.659091 -2.470909 
L 457.904221 -2.470909 
L 457.149351 -2.470909 
L 456.394481 -2.470909 
L 455.63961 -2.470909 
L 454.88474 -2.470909 
L 454.12987 -2.470909 
L 453.375 -2.470909 
L 452.62013 -2.470909 
L 451.86526 -2.470909 
L 451.11039 -2.470909 
L 450.355519 -2.470909 
L 449.600649 -2.470909 
L 448.845779 -2.470909 
L 448.090909 -2.470909 
L 447.336039 -2.470909 
L 446.581169 -2.470909 
L 445.826299 -2.470909 
L 445.071429 -2.470909 
L 444.316558 -2.470909 
L 443.561688 -2.470909 
L 442.806818 -2.470909 
L 442.051948 -2.470909 
L 441.297078 -2.470909 
L 440.542208 -2.470909 
L 439.787338 -2.470909 
L 439.032468 -2.470909 
L 438.277597 -2.470909 
L 437.522727 -2.470909 
L 436.767857 -2.470909 
L 436.012987 -2.470909 
L 435.258117 -2.470909 
L 434.503247 -2.470909 
L 433.748377 -2.470909 
L 432.993506 -2.470909 
L 432.238636 -2.470909 
L 431.483766 -2.470909 
L 430.728896 -2.470909 
L 429.974026 -2.470909 
L 429.219156 -2.470909 
L 428.464286 -2.470909 
L 427.709416 -2.470909 
L 426.954545 -2.470909 
L 426.199675 -2.470909 
L 425.444805 -2.470909 
L 424.689935 -2.470909 
L 423.935065 -2.470909 
L 423.180195 -2.470909 
L 422.425325 -2.470909 
L 421.670455 -2.470909 
L 420.915584 -2.470909 
L 420.160714 -2.470909 
L 419.405844 -2.470909 
L 418.650974 -2.470909 
L 417.896104 -2.470909 
L 417.141234 -2.470909 
L 416.386364 -2.470909 
L 415.631494 -2.470909 
L 414.876623 -2.470909 
L 414.121753 -2.470909 
L 413.366883 -2.470909 
L 412.612013 -2.470909 
L 411.857143 -2.470909 
L 411.102273 -2.470909 
L 410.347403 -2.470909 
L 409.592532 -2.470909 
L 408.837662 -2.470909 
L 408.082792 -2.470909 
L 407.327922 -2.470909 
L 406.573052 -2.470909 
L 405.818182 -2.470909 
L 405.063312 -2.470909 
L 404.308442 -2.470909 
L 403.553571 -2.470909 
L 402.798701 -2.470909 
L 402.043831 -2.470909 
L 401.288961 -2.470909 
L 400.534091 -2.470909 
L 399.779221 -2.470909 
L 399.024351 -2.470909 
L 398.269481 -2.470909 
L 397.51461 -2.470909 
L 396.75974 -2.470909 
L 396.00487 -2.470909 
L 395.25 -2.470909 
L 394.49513 -2.470909 
L 393.74026 -2.470909 
L 392.98539 -2.470909 
L 392.230519 -2.470909 
L 391.475649 -2.470909 
L 390.720779 -2.470909 
L 389.965909 -2.470909 
L 389.211039 -2.470909 
L 388.456169 -2.470909 
L 387.701299 -2.470909 
L 386.946429 -2.470909 
L 386.191558 -2.470909 
L 385.436688 -2.470909 
L 384.681818 -2.470909 
L 383.926948 -2.470909 
L 383.172078 -2.470909 
L 382.417208 -2.470909 
L 381.662338 -2.470909 
L 380.907468 -2.470909 
L 380.152597 -2.470909 
L 379.397727 -2.470909 
L 378.642857 -2.470909 
L 377.887987 -2.470909 
L 377.133117 -2.470909 
L 376.378247 -2.470909 
L 375.623377 -2.470909 
L 374.868506 -2.470909 
L 374.113636 -2.470909 
L 373.358766 -2.470909 
L 372.603896 -2.470909 
L 371.849026 -2.470909 
L 371.094156 -2.470909 
L 370.339286 -2.470909 
L 369.584416 -2.470909 
L 368.829545 -2.470909 
L 368.074675 -2.470909 
L 367.319805 -2.470909 
L 366.564935 -2.470909 
L 365.810065 -2.470909 
L 365.055195 -2.470909 
L 364.300325 -2.470909 
L 363.545455 -2.470909 
L 362.790584 -2.470909 
L 362.035714 -2.470909 
L 361.280844 -2.470909 
L 360.525974 -2.470909 
L 359.771104 -2.470909 
L 359.016234 -2.470909 
L 358.261364 -2.470909 
L 357.506494 -2.470909 
L 356.751623 -2.470909 
L 355.996753 -2.470909 
L 355.241883 -2.470909 
L 354.487013 -2.470909 
L 353.732143 -2.470909 
L 352.977273 -2.470909 
L 352.222403 -2.470909 
L 351.467532 -2.470909 
L 350.712662 -2.470909 
L 349.957792 -2.470909 
L 349.202922 -2.470909 
L 348.448052 -2.470909 
L 347.693182 -2.470909 
L 346.938312 -2.470909 
L 346.183442 -2.470909 
L 345.428571 -2.470909 
L 344.673701 -2.470909 
L 343.918831 -2.470909 
L 343.163961 -2.470909 
L 342.409091 -2.470909 
L 341.654221 -2.470909 
L 340.899351 -2.470909 
L 340.144481 -2.470909 
L 339.38961 -2.470909 
L 338.63474 -2.470909 
L 337.87987 -2.470909 
L 337.125 -2.470909 
L 336.37013 -2.470909 
L 335.61526 -2.470909 
L 334.86039 -2.470909 
L 334.105519 -2.470909 
L 333.350649 -2.470909 
L 332.595779 -2.470909 
L 331.840909 -2.470909 
L 331.086039 -2.470909 
L 330.331169 -2.470909 
L 329.576299 -2.470909 
L 328.821429 -2.470909 
L 328.066558 -2.470909 
L 327.311688 -2.470909 
L 326.556818 -2.470909 
L 325.801948 -2.470909 
L 325.047078 -2.470909 
L 324.292208 -2.470909 
L 323.537338 -2.470909 
L 322.782468 -2.470909 
L 322.027597 -2.470909 
L 321.272727 -2.470909 
L 320.517857 -2.470909 
L 319.762987 -2.470909 
L 319.008117 -2.470909 
L 318.253247 -2.470909 
L 317.498377 -2.470909 
L 316.743506 -2.470909 
L 315.988636 -2.470909 
L 315.233766 -2.470909 
L 314.478896 -2.470909 
L 313.724026 -2.470909 
L 312.969156 -2.470909 
L 312.214286 -2.470909 
L 311.459416 -2.470909 
L 310.704545 -2.470909 
L 309.949675 -2.470909 
L 309.194805 -2.470909 
L 308.439935 -2.470909 
L 307.685065 -2.470909 
L 306.930195 -2.470909 
L 306.175325 -2.470909 
L 305.420455 -2.470909 
L 304.665584 -2.470909 
L 303.910714 -2.470909 
L 303.155844 -2.470909 
L 302.400974 -2.470909 
L 301.646104 -2.470909 
L 300.891234 -2.470909 
L 300.136364 -2.470909 
L 299.381494 -2.470909 
L 298.626623 -2.470909 
L 297.871753 -2.470909 
L 297.116883 -2.470909 
L 296.362013 -2.470909 
L 295.607143 -2.470909 
L 294.852273 -2.470909 
L 294.097403 -2.470909 
L 293.342532 -2.470909 
L 292.587662 -2.470909 
L 291.832792 -2.470909 
L 291.077922 -2.470909 
L 290.323052 -2.470909 
L 289.568182 -2.470909 
L 288.813312 -2.470909 
L 288.058442 -2.470909 
L 287.303571 -2.470909 
L 286.548701 -2.470909 
L 285.793831 -2.470909 
L 285.038961 -2.470909 
L 284.284091 -2.470909 
L 283.529221 -2.470909 
L 282.774351 -2.470909 
L 282.019481 -2.470909 
L 281.26461 -2.470909 
L 280.50974 -2.470909 
L 279.75487 -2.470909 
L 279 -2.470909 
L 278.24513 -2.470909 
L 277.49026 -2.470909 
L 276.73539 -2.470909 
L 275.980519 -2.470909 
L 275.225649 -2.470909 
L 274.470779 -2.470909 
L 273.715909 -2.470909 
L 272.961039 -2.470909 
L 272.206169 -2.470909 
L 271.451299 -2.470909 
L 270.696429 -2.470909 
L 269.941558 -2.470909 
L 269.186688 -2.470909 
L 268.431818 -2.470909 
L 267.676948 -2.470909 
L 266.922078 -2.470909 
L 266.167208 -2.470909 
L 265.412338 -2.470909 
L 264.657468 -2.470909 
L 263.902597 -2.470909 
L 263.147727 -2.470909 
L 262.392857 -2.470909 
L 261.637987 -2.470909 
L 260.883117 -2.470909 
L 260.128247 -2.470909 
L 259.373377 -2.470909 
L 258.618506 -2.470909 
L 257.863636 -2.470909 
L 257.108766 -2.470909 
L 256.353896 -2.470909 
L 255.599026 -2.470909 
L 254.844156 -2.470909 
L 254.089286 -2.470909 
L 253.334416 -2.470909 
L 252.579545 -2.470909 
L 251.824675 -2.470909 
z
" style="stroke: #cf1313; stroke-opacity: 0.2"/>
    </defs>
    <g clip-path="url(#p6ffd66d0f9)">
     <use xlink:href="#me59bb0d856" x="0" y="54.36" style="fill: #cf1313; fill-opacity: 0.2; stroke: #cf1313; stroke-opacity: 0.2"/>
    </g>
   </g>
   <g id="PolyCollection_2">
    <defs>
     <path id="m5272f59cf8" d="M 152.181818 -2.470909 
L 152.181818 -3.778809 
L 152.936688 -3.817145 
L 153.691558 -3.856295 
L 154.446429 -3.896244 
L 155.201299 -3.936982 
L 155.956169 -3.978508 
L 156.711039 -4.020835 
L 157.465909 -4.063985 
L 158.220779 -4.107995 
L 158.975649 -4.152917 
L 159.730519 -4.198817 
L 160.48539 -4.245778 
L 161.24026 -4.293898 
L 161.99513 -4.343289 
L 162.75 -4.394079 
L 163.50487 -4.446407 
L 164.25974 -4.500422 
L 165.01461 -4.556284 
L 165.769481 -4.614157 
L 166.524351 -4.674209 
L 167.279221 -4.736608 
L 168.034091 -4.801518 
L 168.788961 -4.869098 
L 169.543831 -4.939496 
L 170.298701 -5.012849 
L 171.053571 -5.089277 
L 171.808442 -5.168878 
L 172.563312 -5.251732 
L 173.318182 -5.337891 
L 174.073052 -5.427383 
L 174.827922 -5.520205 
L 175.582792 -5.616325 
L 176.337662 -5.715683 
L 177.092532 -5.818185 
L 177.847403 -5.923712 
L 178.602273 -6.032115 
L 179.357143 -6.143221 
L 180.112013 -6.256837 
L 180.866883 -6.37275 
L 181.621753 -6.490736 
L 182.376623 -6.610561 
L 183.131494 -6.731991 
L 183.886364 -6.854794 
L 184.641234 -6.978745 
L 185.396104 -7.103635 
L 186.150974 -7.229274 
L 186.905844 -7.355494 
L 187.660714 -7.482153 
L 188.415584 -7.609138 
L 189.170455 -7.736364 
L 189.925325 -7.863778 
L 190.680195 -7.991353 
L 191.435065 -8.119091 
L 192.189935 -8.247014 
L 192.944805 -8.375165 
L 193.699675 -8.503602 
L 194.454545 -8.632392 
L 195.209416 -8.761607 
L 195.964286 -8.89132 
L 196.719156 -9.021601 
L 197.474026 -9.152515 
L 198.228896 -9.284115 
L 198.983766 -9.416447 
L 199.738636 -9.549546 
L 200.493506 -9.683439 
L 201.248377 -9.818146 
L 202.003247 -9.953688 
L 202.758117 -10.090083 
L 203.512987 -10.22736 
L 204.267857 -10.365556 
L 205.022727 -10.50473 
L 205.777597 -10.644958 
L 206.532468 -10.786346 
L 207.287338 -10.929029 
L 208.042208 -11.073172 
L 208.797078 -11.218971 
L 209.551948 -11.366657 
L 210.306818 -11.516486 
L 211.061688 -11.668736 
L 211.816558 -11.823706 
L 212.571429 -11.981703 
L 213.326299 -12.143036 
L 214.081169 -12.308006 
L 214.836039 -12.476899 
L 215.590909 -12.649972 
L 216.345779 -12.82745 
L 217.100649 -13.009512 
L 217.855519 -13.196289 
L 218.61039 -13.387859 
L 219.36526 -13.584241 
L 220.12013 -13.785397 
L 220.875 -13.991233 
L 221.62987 -14.201602 
L 222.38474 -14.416308 
L 223.13961 -14.635115 
L 223.894481 -14.857755 
L 224.649351 -15.083939 
L 225.404221 -15.313361 
L 226.159091 -15.545717 
L 226.913961 -15.780706 
L 227.668831 -16.018046 
L 228.423701 -16.257477 
L 229.178571 -16.498772 
L 229.933442 -16.741736 
L 230.688312 -16.986215 
L 231.443182 -17.232092 
L 232.198052 -17.479288 
L 232.952922 -17.727762 
L 233.707792 -17.9775 
L 234.462662 -18.228513 
L 235.217532 -18.480831 
L 235.972403 -18.734489 
L 236.727273 -18.989523 
L 237.482143 -19.245959 
L 238.237013 -19.503804 
L 238.991883 -19.763037 
L 239.746753 -20.023604 
L 240.501623 -20.285408 
L 241.256494 -20.548311 
L 242.011364 -20.812123 
L 242.766234 -21.07661 
L 243.521104 -21.341491 
L 244.275974 -21.606441 
L 245.030844 -21.871103 
L 245.785714 -22.135089 
L 246.540584 -22.397996 
L 247.295455 -22.659411 
L 248.050325 -22.918927 
L 248.805195 -23.176153 
L 249.560065 -23.430728 
L 250.314935 -23.682328 
L 251.069805 -23.930682 
L 251.824675 -24.175577 
L 252.579545 -24.416865 
L 253.334416 -24.654468 
L 254.089286 -24.888381 
L 254.844156 -25.118672 
L 255.599026 -25.345474 
L 256.353896 -25.568988 
L 257.108766 -25.789467 
L 257.863636 -26.007211 
L 258.618506 -26.222557 
L 259.373377 -26.435861 
L 260.128247 -26.64749 
L 260.883117 -26.857803 
L 261.637987 -27.067144 
L 262.392857 -27.275823 
L 263.147727 -27.484105 
L 263.902597 -27.692201 
L 264.657468 -27.900258 
L 265.412338 -28.108351 
L 266.167208 -28.31648 
L 266.922078 -28.524564 
L 267.676948 -28.732446 
L 268.431818 -28.939894 
L 269.186688 -29.146604 
L 269.941558 -29.352214 
L 270.696429 -29.556308 
L 271.451299 -29.758434 
L 272.206169 -29.958113 
L 272.961039 -30.154859 
L 273.715909 -30.348193 
L 274.470779 -30.537658 
L 275.225649 -30.722834 
L 275.980519 -30.903355 
L 276.73539 -31.078915 
L 277.49026 -31.249287 
L 278.24513 -31.414319 
L 279 -31.573947 
L 279.75487 -31.728189 
L 280.50974 -31.877144 
L 281.26461 -32.020987 
L 282.019481 -32.159955 
L 282.774351 -32.294339 
L 283.529221 -32.424466 
L 284.284091 -32.550684 
L 285.038961 -32.673346 
L 285.793831 -32.792795 
L 286.548701 -32.909342 
L 287.303571 -33.023257 
L 288.058442 -33.134757 
L 288.813312 -33.243993 
L 289.568182 -33.351048 
L 290.323052 -33.455932 
L 291.077922 -33.558587 
L 291.832792 -33.658887 
L 292.587662 -33.75665 
L 293.342532 -33.851648 
L 294.097403 -33.943621 
L 294.852273 -34.032292 
L 295.607143 -34.117382 
L 296.362013 -34.198628 
L 297.116883 -34.275797 
L 297.871753 -34.3487 
L 298.626623 -34.417203 
L 299.381494 -34.481237 
L 300.136364 -34.540801 
L 300.891234 -34.595965 
L 301.646104 -34.646865 
L 302.400974 -34.693701 
L 303.155844 -34.736725 
L 303.910714 -34.776226 
L 304.665584 -34.812521 
L 305.420455 -34.845933 
L 306.175325 -34.876775 
L 306.930195 -34.905335 
L 307.685065 -34.931857 
L 308.439935 -34.956528 
L 309.194805 -34.979464 
L 309.949675 -35.000704 
L 310.704545 -35.020202 
L 311.459416 -35.037828 
L 312.214286 -35.053368 
L 312.969156 -35.066531 
L 313.724026 -35.076962 
L 314.478896 -35.084247 
L 315.233766 -35.087937 
L 315.988636 -35.087559 
L 316.743506 -35.082633 
L 317.498377 -35.072693 
L 318.253247 -35.057299 
L 319.008117 -35.036054 
L 319.762987 -35.008619 
L 320.517857 -34.974717 
L 321.272727 -34.934145 
L 322.027597 -34.886776 
L 322.782468 -34.83256 
L 323.537338 -34.771522 
L 324.292208 -34.703756 
L 325.047078 -34.629419 
L 325.801948 -34.548722 
L 326.556818 -34.461919 
L 327.311688 -34.369297 
L 328.066558 -34.271164 
L 328.821429 -34.167839 
L 329.576299 -34.05964 
L 330.331169 -33.946877 
L 331.086039 -33.829843 
L 331.840909 -33.708804 
L 332.595779 -33.583998 
L 333.350649 -33.455628 
L 334.105519 -33.32386 
L 334.86039 -33.188817 
L 335.61526 -33.050582 
L 336.37013 -32.909195 
L 337.125 -32.76465 
L 337.87987 -32.6169 
L 338.63474 -32.465856 
L 339.38961 -32.311386 
L 340.144481 -32.153315 
L 340.899351 -31.991435 
L 341.654221 -31.825497 
L 342.409091 -31.655224 
L 343.163961 -31.480309 
L 343.918831 -31.300427 
L 344.673701 -31.115235 
L 345.428571 -30.924384 
L 346.183442 -30.727531 
L 346.938312 -30.524343 
L 347.693182 -30.31451 
L 348.448052 -30.097761 
L 349.202922 -29.873865 
L 349.957792 -29.642654 
L 350.712662 -29.404022 
L 351.467532 -29.157941 
L 352.222403 -28.904465 
L 352.977273 -28.643734 
L 353.732143 -28.37598 
L 354.487013 -28.101523 
L 355.241883 -27.820774 
L 355.996753 -27.534224 
L 356.751623 -27.242441 
L 357.506494 -26.946057 
L 358.261364 -26.645759 
L 359.016234 -26.342276 
L 359.771104 -26.03636 
L 360.525974 -25.728778 
L 361.280844 -25.420292 
L 362.035714 -25.111646 
L 362.790584 -24.803551 
L 363.545455 -24.496677 
L 364.300325 -24.191635 
L 365.055195 -23.888973 
L 365.810065 -23.589166 
L 366.564935 -23.292616 
L 367.319805 -22.999641 
L 368.074675 -22.710481 
L 368.829545 -22.425296 
L 369.584416 -22.144172 
L 370.339286 -21.867121 
L 371.094156 -21.59409 
L 371.849026 -21.324966 
L 372.603896 -21.059587 
L 373.358766 -20.797746 
L 374.113636 -20.539203 
L 374.868506 -20.283692 
L 375.623377 -20.03093 
L 376.378247 -19.780625 
L 377.133117 -19.532486 
L 377.887987 -19.286228 
L 378.642857 -19.04158 
L 379.397727 -18.798291 
L 380.152597 -18.556135 
L 380.907468 -18.314917 
L 381.662338 -18.074476 
L 382.417208 -17.834686 
L 383.172078 -17.595462 
L 383.926948 -17.356757 
L 384.681818 -17.118563 
L 385.436688 -16.880912 
L 386.191558 -16.643871 
L 386.946429 -16.407543 
L 387.701299 -16.172062 
L 388.456169 -15.937587 
L 389.211039 -15.704302 
L 389.965909 -15.472406 
L 390.720779 -15.242112 
L 391.475649 -15.013639 
L 392.230519 -14.787209 
L 392.98539 -14.563038 
L 393.74026 -14.341335 
L 394.49513 -14.122294 
L 395.25 -13.906092 
L 396.00487 -13.692888 
L 396.75974 -13.482812 
L 397.51461 -13.275973 
L 398.269481 -13.072451 
L 399.024351 -12.872299 
L 399.779221 -12.675543 
L 400.534091 -12.482182 
L 401.288961 -12.292192 
L 402.043831 -12.105527 
L 402.798701 -11.92212 
L 403.553571 -11.741887 
L 404.308442 -11.564733 
L 405.063312 -11.390549 
L 405.818182 -11.219221 
L 406.573052 -11.05063 
L 407.327922 -10.884655 
L 408.082792 -10.721175 
L 408.837662 -10.560073 
L 409.592532 -10.401235 
L 410.347403 -10.244554 
L 411.102273 -10.089927 
L 411.857143 -9.937262 
L 412.612013 -9.786471 
L 413.366883 -9.637478 
L 414.121753 -9.490211 
L 414.876623 -9.344611 
L 415.631494 -9.200625 
L 416.386364 -9.058209 
L 417.141234 -8.917328 
L 417.896104 -8.777957 
L 418.650974 -8.640079 
L 419.405844 -8.503687 
L 420.160714 -8.368783 
L 420.915584 -8.235376 
L 421.670455 -8.103487 
L 422.425325 -7.973139 
L 423.180195 -7.844365 
L 423.935065 -7.717201 
L 424.689935 -7.591686 
L 425.444805 -7.46786 
L 426.199675 -7.345761 
L 426.954545 -7.225425 
L 427.709416 -7.106885 
L 428.464286 -6.990166 
L 429.219156 -6.875285 
L 429.974026 -6.762253 
L 430.728896 -6.651071 
L 431.483766 -6.541734 
L 432.238636 -6.434231 
L 432.993506 -6.328542 
L 433.748377 -6.224648 
L 434.503247 -6.122526 
L 435.258117 -6.022156 
L 436.012987 -5.923522 
L 436.767857 -5.826614 
L 437.522727 -5.731427 
L 438.277597 -5.637971 
L 439.032468 -5.546262 
L 439.787338 -5.45633 
L 440.542208 -5.368213 
L 441.297078 -5.281961 
L 442.051948 -5.19763 
L 442.806818 -5.115283 
L 443.561688 -5.034986 
L 444.316558 -4.956804 
L 445.071429 -4.880802 
L 445.826299 -4.807038 
L 446.581169 -4.735561 
L 447.336039 -4.666412 
L 448.090909 -4.599617 
L 448.845779 -4.53519 
L 449.600649 -4.473132 
L 450.355519 -4.413427 
L 451.11039 -4.356047 
L 451.86526 -4.300952 
L 452.62013 -4.248089 
L 453.375 -4.197398 
L 454.12987 -4.148809 
L 454.88474 -4.102249 
L 455.63961 -4.057641 
L 456.394481 -4.014907 
L 457.149351 -3.973967 
L 457.904221 -3.934744 
L 458.659091 -3.897163 
L 459.413961 -3.861152 
L 460.168831 -3.826641 
L 460.923701 -3.79356 
L 461.678571 -3.761844 
L 462.433442 -3.731426 
L 463.188312 -3.702242 
L 463.943182 -3.674223 
L 464.698052 -3.647301 
L 465.452922 -3.621404 
L 465.452922 -2.470909 
L 465.452922 -2.470909 
L 464.698052 -2.470909 
L 463.943182 -2.470909 
L 463.188312 -2.470909 
L 462.433442 -2.470909 
L 461.678571 -2.470909 
L 460.923701 -2.470909 
L 460.168831 -2.470909 
L 459.413961 -2.470909 
L 458.659091 -2.470909 
L 457.904221 -2.470909 
L 457.149351 -2.470909 
L 456.394481 -2.470909 
L 455.63961 -2.470909 
L 454.88474 -2.470909 
L 454.12987 -2.470909 
L 453.375 -2.470909 
L 452.62013 -2.470909 
L 451.86526 -2.470909 
L 451.11039 -2.470909 
L 450.355519 -2.470909 
L 449.600649 -2.470909 
L 448.845779 -2.470909 
L 448.090909 -2.470909 
L 447.336039 -2.470909 
L 446.581169 -2.470909 
L 445.826299 -2.470909 
L 445.071429 -2.470909 
L 444.316558 -2.470909 
L 443.561688 -2.470909 
L 442.806818 -2.470909 
L 442.051948 -2.470909 
L 441.297078 -2.470909 
L 440.542208 -2.470909 
L 439.787338 -2.470909 
L 439.032468 -2.470909 
L 438.277597 -2.470909 
L 437.522727 -2.470909 
L 436.767857 -2.470909 
L 436.012987 -2.470909 
L 435.258117 -2.470909 
L 434.503247 -2.470909 
L 433.748377 -2.470909 
L 432.993506 -2.470909 
L 432.238636 -2.470909 
L 431.483766 -2.470909 
L 430.728896 -2.470909 
L 429.974026 -2.470909 
L 429.219156 -2.470909 
L 428.464286 -2.470909 
L 427.709416 -2.470909 
L 426.954545 -2.470909 
L 426.199675 -2.470909 
L 425.444805 -2.470909 
L 424.689935 -2.470909 
L 423.935065 -2.470909 
L 423.180195 -2.470909 
L 422.425325 -2.470909 
L 421.670455 -2.470909 
L 420.915584 -2.470909 
L 420.160714 -2.470909 
L 419.405844 -2.470909 
L 418.650974 -2.470909 
L 417.896104 -2.470909 
L 417.141234 -2.470909 
L 416.386364 -2.470909 
L 415.631494 -2.470909 
L 414.876623 -2.470909 
L 414.121753 -2.470909 
L 413.366883 -2.470909 
L 412.612013 -2.470909 
L 411.857143 -2.470909 
L 411.102273 -2.470909 
L 410.347403 -2.470909 
L 409.592532 -2.470909 
L 408.837662 -2.470909 
L 408.082792 -2.470909 
L 407.327922 -2.470909 
L 406.573052 -2.470909 
L 405.818182 -2.470909 
L 405.063312 -2.470909 
L 404.308442 -2.470909 
L 403.553571 -2.470909 
L 402.798701 -2.470909 
L 402.043831 -2.470909 
L 401.288961 -2.470909 
L 400.534091 -2.470909 
L 399.779221 -2.470909 
L 399.024351 -2.470909 
L 398.269481 -2.470909 
L 397.51461 -2.470909 
L 396.75974 -2.470909 
L 396.00487 -2.470909 
L 395.25 -2.470909 
L 394.49513 -2.470909 
L 393.74026 -2.470909 
L 392.98539 -2.470909 
L 392.230519 -2.470909 
L 391.475649 -2.470909 
L 390.720779 -2.470909 
L 389.965909 -2.470909 
L 389.211039 -2.470909 
L 388.456169 -2.470909 
L 387.701299 -2.470909 
L 386.946429 -2.470909 
L 386.191558 -2.470909 
L 385.436688 -2.470909 
L 384.681818 -2.470909 
L 383.926948 -2.470909 
L 383.172078 -2.470909 
L 382.417208 -2.470909 
L 381.662338 -2.470909 
L 380.907468 -2.470909 
L 380.152597 -2.470909 
L 379.397727 -2.470909 
L 378.642857 -2.470909 
L 377.887987 -2.470909 
L 377.133117 -2.470909 
L 376.378247 -2.470909 
L 375.623377 -2.470909 
L 374.868506 -2.470909 
L 374.113636 -2.470909 
L 373.358766 -2.470909 
L 372.603896 -2.470909 
L 371.849026 -2.470909 
L 371.094156 -2.470909 
L 370.339286 -2.470909 
L 369.584416 -2.470909 
L 368.829545 -2.470909 
L 368.074675 -2.470909 
L 367.319805 -2.470909 
L 366.564935 -2.470909 
L 365.810065 -2.470909 
L 365.055195 -2.470909 
L 364.300325 -2.470909 
L 363.545455 -2.470909 
L 362.790584 -2.470909 
L 362.035714 -2.470909 
L 361.280844 -2.470909 
L 360.525974 -2.470909 
L 359.771104 -2.470909 
L 359.016234 -2.470909 
L 358.261364 -2.470909 
L 357.506494 -2.470909 
L 356.751623 -2.470909 
L 355.996753 -2.470909 
L 355.241883 -2.470909 
L 354.487013 -2.470909 
L 353.732143 -2.470909 
L 352.977273 -2.470909 
L 352.222403 -2.470909 
L 351.467532 -2.470909 
L 350.712662 -2.470909 
L 349.957792 -2.470909 
L 349.202922 -2.470909 
L 348.448052 -2.470909 
L 347.693182 -2.470909 
L 346.938312 -2.470909 
L 346.183442 -2.470909 
L 345.428571 -2.470909 
L 344.673701 -2.470909 
L 343.918831 -2.470909 
L 343.163961 -2.470909 
L 342.409091 -2.470909 
L 341.654221 -2.470909 
L 340.899351 -2.470909 
L 340.144481 -2.470909 
L 339.38961 -2.470909 
L 338.63474 -2.470909 
L 337.87987 -2.470909 
L 337.125 -2.470909 
L 336.37013 -2.470909 
L 335.61526 -2.470909 
L 334.86039 -2.470909 
L 334.105519 -2.470909 
L 333.350649 -2.470909 
L 332.595779 -2.470909 
L 331.840909 -2.470909 
L 331.086039 -2.470909 
L 330.331169 -2.470909 
L 329.576299 -2.470909 
L 328.821429 -2.470909 
L 328.066558 -2.470909 
L 327.311688 -2.470909 
L 326.556818 -2.470909 
L 325.801948 -2.470909 
L 325.047078 -2.470909 
L 324.292208 -2.470909 
L 323.537338 -2.470909 
L 322.782468 -2.470909 
L 322.027597 -2.470909 
L 321.272727 -2.470909 
L 320.517857 -2.470909 
L 319.762987 -2.470909 
L 319.008117 -2.470909 
L 318.253247 -2.470909 
L 317.498377 -2.470909 
L 316.743506 -2.470909 
L 315.988636 -2.470909 
L 315.233766 -2.470909 
L 314.478896 -2.470909 
L 313.724026 -2.470909 
L 312.969156 -2.470909 
L 312.214286 -2.470909 
L 311.459416 -2.470909 
L 310.704545 -2.470909 
L 309.949675 -2.470909 
L 309.194805 -2.470909 
L 308.439935 -2.470909 
L 307.685065 -2.470909 
L 306.930195 -2.470909 
L 306.175325 -2.470909 
L 305.420455 -2.470909 
L 304.665584 -2.470909 
L 303.910714 -2.470909 
L 303.155844 -2.470909 
L 302.400974 -2.470909 
L 301.646104 -2.470909 
L 300.891234 -2.470909 
L 300.136364 -2.470909 
L 299.381494 -2.470909 
L 298.626623 -2.470909 
L 297.871753 -2.470909 
L 297.116883 -2.470909 
L 296.362013 -2.470909 
L 295.607143 -2.470909 
L 294.852273 -2.470909 
L 294.097403 -2.470909 
L 293.342532 -2.470909 
L 292.587662 -2.470909 
L 291.832792 -2.470909 
L 291.077922 -2.470909 
L 290.323052 -2.470909 
L 289.568182 -2.470909 
L 288.813312 -2.470909 
L 288.058442 -2.470909 
L 287.303571 -2.470909 
L 286.548701 -2.470909 
L 285.793831 -2.470909 
L 285.038961 -2.470909 
L 284.284091 -2.470909 
L 283.529221 -2.470909 
L 282.774351 -2.470909 
L 282.019481 -2.470909 
L 281.26461 -2.470909 
L 280.50974 -2.470909 
L 279.75487 -2.470909 
L 279 -2.470909 
L 278.24513 -2.470909 
L 277.49026 -2.470909 
L 276.73539 -2.470909 
L 275.980519 -2.470909 
L 275.225649 -2.470909 
L 274.470779 -2.470909 
L 273.715909 -2.470909 
L 272.961039 -2.470909 
L 272.206169 -2.470909 
L 271.451299 -2.470909 
L 270.696429 -2.470909 
L 269.941558 -2.470909 
L 269.186688 -2.470909 
L 268.431818 -2.470909 
L 267.676948 -2.470909 
L 266.922078 -2.470909 
L 266.167208 -2.470909 
L 265.412338 -2.470909 
L 264.657468 -2.470909 
L 263.902597 -2.470909 
L 263.147727 -2.470909 
L 262.392857 -2.470909 
L 261.637987 -2.470909 
L 260.883117 -2.470909 
L 260.128247 -2.470909 
L 259.373377 -2.470909 
L 258.618506 -2.470909 
L 257.863636 -2.470909 
L 257.108766 -2.470909 
L 256.353896 -2.470909 
L 255.599026 -2.470909 
L 254.844156 -2.470909 
L 254.089286 -2.470909 
L 253.334416 -2.470909 
L 252.579545 -2.470909 
L 251.824675 -2.470909 
L 251.069805 -2.470909 
L 250.314935 -2.470909 
L 249.560065 -2.470909 
L 248.805195 -2.470909 
L 248.050325 -2.470909 
L 247.295455 -2.470909 
L 246.540584 -2.470909 
L 245.785714 -2.470909 
L 245.030844 -2.470909 
L 244.275974 -2.470909 
L 243.521104 -2.470909 
L 242.766234 -2.470909 
L 242.011364 -2.470909 
L 241.256494 -2.470909 
L 240.501623 -2.470909 
L 239.746753 -2.470909 
L 238.991883 -2.470909 
L 238.237013 -2.470909 
L 237.482143 -2.470909 
L 236.727273 -2.470909 
L 235.972403 -2.470909 
L 235.217532 -2.470909 
L 234.462662 -2.470909 
L 233.707792 -2.470909 
L 232.952922 -2.470909 
L 232.198052 -2.470909 
L 231.443182 -2.470909 
L 230.688312 -2.470909 
L 229.933442 -2.470909 
L 229.178571 -2.470909 
L 228.423701 -2.470909 
L 227.668831 -2.470909 
L 226.913961 -2.470909 
L 226.159091 -2.470909 
L 225.404221 -2.470909 
L 224.649351 -2.470909 
L 223.894481 -2.470909 
L 223.13961 -2.470909 
L 222.38474 -2.470909 
L 221.62987 -2.470909 
L 220.875 -2.470909 
L 220.12013 -2.470909 
L 219.36526 -2.470909 
L 218.61039 -2.470909 
L 217.855519 -2.470909 
L 217.100649 -2.470909 
L 216.345779 -2.470909 
L 215.590909 -2.470909 
L 214.836039 -2.470909 
L 214.081169 -2.470909 
L 213.326299 -2.470909 
L 212.571429 -2.470909 
L 211.816558 -2.470909 
L 211.061688 -2.470909 
L 210.306818 -2.470909 
L 209.551948 -2.470909 
L 208.797078 -2.470909 
L 208.042208 -2.470909 
L 207.287338 -2.470909 
L 206.532468 -2.470909 
L 205.777597 -2.470909 
L 205.022727 -2.470909 
L 204.267857 -2.470909 
L 203.512987 -2.470909 
L 202.758117 -2.470909 
L 202.003247 -2.470909 
L 201.248377 -2.470909 
L 200.493506 -2.470909 
L 199.738636 -2.470909 
L 198.983766 -2.470909 
L 198.228896 -2.470909 
L 197.474026 -2.470909 
L 196.719156 -2.470909 
L 195.964286 -2.470909 
L 195.209416 -2.470909 
L 194.454545 -2.470909 
L 193.699675 -2.470909 
L 192.944805 -2.470909 
L 192.189935 -2.470909 
L 191.435065 -2.470909 
L 190.680195 -2.470909 
L 189.925325 -2.470909 
L 189.170455 -2.470909 
L 188.415584 -2.470909 
L 187.660714 -2.470909 
L 186.905844 -2.470909 
L 186.150974 -2.470909 
L 185.396104 -2.470909 
L 184.641234 -2.470909 
L 183.886364 -2.470909 
L 183.131494 -2.470909 
L 182.376623 -2.470909 
L 181.621753 -2.470909 
L 180.866883 -2.470909 
L 180.112013 -2.470909 
L 179.357143 -2.470909 
L 178.602273 -2.470909 
L 177.847403 -2.470909 
L 177.092532 -2.470909 
L 176.337662 -2.470909 
L 175.582792 -2.470909 
L 174.827922 -2.470909 
L 174.073052 -2.470909 
L 173.318182 -2.470909 
L 172.563312 -2.470909 
L 171.808442 -2.470909 
L 171.053571 -2.470909 
L 170.298701 -2.470909 
L 169.543831 -2.470909 
L 168.788961 -2.470909 
L 168.034091 -2.470909 
L 167.279221 -2.470909 
L 166.524351 -2.470909 
L 165.769481 -2.470909 
L 165.01461 -2.470909 
L 164.25974 -2.470909 
L 163.50487 -2.470909 
L 162.75 -2.470909 
L 161.99513 -2.470909 
L 161.24026 -2.470909 
L 160.48539 -2.470909 
L 159.730519 -2.470909 
L 158.975649 -2.470909 
L 158.220779 -2.470909 
L 157.465909 -2.470909 
L 156.711039 -2.470909 
L 155.956169 -2.470909 
L 155.201299 -2.470909 
L 154.446429 -2.470909 
L 153.691558 -2.470909 
L 152.936688 -2.470909 
L 152.181818 -2.470909 
z
" style="stroke: #116dc2; stroke-opacity: 0.2"/>
    </defs>
    <g clip-path="url(#p6ffd66d0f9)">
     <use xlink:href="#m5272f59cf8" x="0" y="54.36" style="fill: #116dc2; fill-opacity: 0.2; stroke: #116dc2; stroke-opacity: 0.2"/>
    </g>
   </g>
   <g id="PolyCollection_3">
    <defs>
     <path id="m8bb9245667" d="M 25.363636 -2.470909 
L 25.363636 -4.534046 
L 26.118506 -5.066427 
L 26.873377 -5.670848 
L 27.628247 -6.393751 
L 28.383117 -7.231567 
L 29.137987 -8.183372 
L 29.892857 -9.309419 
L 30.647727 -10.642107 
L 31.402597 -12.162556 
L 32.157468 -13.91326 
L 32.912338 -16.003049 
L 33.667208 -18.471017 
L 34.422078 -21.194641 
L 35.176948 -23.99106 
L 35.931818 -26.828488 
L 36.686688 -29.783025 
L 37.441558 -32.823761 
L 38.196429 -35.873055 
L 38.951299 -38.856574 
L 39.706169 -41.54793 
L 40.461039 -43.765834 
L 41.215909 -45.68314 
L 41.970779 -47.554182 
L 42.725649 -49.301737 
L 43.480519 -50.597756 
L 44.23539 -51.28571 
L 44.99026 -51.629162 
L 45.74513 -51.889091 
L 46.5 -51.762626 
L 47.25487 -50.743089 
L 48.00974 -48.825365 
L 48.76461 -46.432235 
L 49.519481 -43.916765 
L 50.274351 -41.37119 
L 51.029221 -38.751534 
L 51.784091 -36.028351 
L 52.538961 -33.239206 
L 53.293831 -30.428965 
L 54.048701 -27.549467 
L 54.803571 -24.594363 
L 55.558442 -21.763455 
L 56.313312 -19.242694 
L 57.068182 -17.02711 
L 57.823052 -15.066932 
L 58.577922 -13.312572 
L 59.332792 -11.677924 
L 60.087662 -10.136796 
L 60.842532 -8.753518 
L 61.597403 -7.600413 
L 62.352273 -6.690679 
L 63.107143 -5.965133 
L 63.862013 -5.352241 
L 64.616883 -4.813621 
L 65.371753 -4.331719 
L 65.371753 -2.470909 
L 65.371753 -2.470909 
L 64.616883 -2.470909 
L 63.862013 -2.470909 
L 63.107143 -2.470909 
L 62.352273 -2.470909 
L 61.597403 -2.470909 
L 60.842532 -2.470909 
L 60.087662 -2.470909 
L 59.332792 -2.470909 
L 58.577922 -2.470909 
L 57.823052 -2.470909 
L 57.068182 -2.470909 
L 56.313312 -2.470909 
L 55.558442 -2.470909 
L 54.803571 -2.470909 
L 54.048701 -2.470909 
L 53.293831 -2.470909 
L 52.538961 -2.470909 
L 51.784091 -2.470909 
L 51.029221 -2.470909 
L 50.274351 -2.470909 
L 49.519481 -2.470909 
L 48.76461 -2.470909 
L 48.00974 -2.470909 
L 47.25487 -2.470909 
L 46.5 -2.470909 
L 45.74513 -2.470909 
L 44.99026 -2.470909 
L 44.23539 -2.470909 
L 43.480519 -2.470909 
L 42.725649 -2.470909 
L 41.970779 -2.470909 
L 41.215909 -2.470909 
L 40.461039 -2.470909 
L 39.706169 -2.470909 
L 38.951299 -2.470909 
L 38.196429 -2.470909 
L 37.441558 -2.470909 
L 36.686688 -2.470909 
L 35.931818 -2.470909 
L 35.176948 -2.470909 
L 34.422078 -2.470909 
L 33.667208 -2.470909 
L 32.912338 -2.470909 
L 32.157468 -2.470909 
L 31.402597 -2.470909 
L 30.647727 -2.470909 
L 29.892857 -2.470909 
L 29.137987 -2.470909 
L 28.383117 -2.470909 
L 27.628247 -2.470909 
L 26.873377 -2.470909 
L 26.118506 -2.470909 
L 25.363636 -2.470909 
z
" style="stroke: #8a8a8a; stroke-opacity: 0.2"/>
    </defs>
    <g clip-path="url(#p6ffd66d0f9)">
     <use xlink:href="#m8bb9245667" x="0" y="54.36" style="fill: #8a8a8a; fill-opacity: 0.2; stroke: #8a8a8a; stroke-opacity: 0.2"/>
    </g>
   </g>
   <g id="line2d_1">
    <path d="M 251.824675 50.471929 
L 259.373377 49.719804 
L 266.922078 48.733705 
L 272.961039 47.731475 
L 279 46.504816 
L 293.342532 43.456046 
L 300.891234 41.903154 
L 306.175325 40.56819 
L 313.724026 38.370839 
L 321.272727 36.003428 
L 326.556818 34.097364 
L 341.654221 28.375196 
L 347.693182 26.546573 
L 361.280844 22.770557 
L 368.074675 21.086866 
L 373.358766 20.002179 
L 377.887987 19.266407 
L 382.417208 18.765765 
L 386.191558 18.593272 
L 389.965909 18.680333 
L 393.74026 19.010349 
L 398.269481 19.64344 
L 420.160714 23.28494 
L 424.689935 24.274975 
L 429.219156 25.538308 
L 433.748377 27.063519 
L 438.277597 28.837655 
L 444.316558 31.492628 
L 453.375 35.498313 
L 458.659091 37.574038 
L 463.188312 39.103758 
L 467.717532 40.39467 
L 476.021104 42.456274 
L 491.873377 46.288613 
L 497.912338 47.417091 
L 503.951299 48.320209 
L 510.74513 49.123262 
L 519.048701 49.86002 
L 530.371753 50.630938 
L 532.636364 50.753545 
L 532.636364 50.753545 
" clip-path="url(#p6ffd66d0f9)" style="fill: none; stroke: #cf1313; stroke-width: 1.5; stroke-linecap: square"/>
   </g>
   <g id="line2d_2">
    <path d="M 152.181818 50.581191 
L 164.25974 49.859578 
L 171.808442 49.191122 
L 177.847403 48.436288 
L 185.396104 47.256365 
L 203.512987 44.13264 
L 212.571429 42.378297 
L 217.855519 41.163711 
L 223.13961 39.724885 
L 229.933442 37.618264 
L 239.746753 34.336396 
L 254.089286 29.471619 
L 260.883117 27.502197 
L 275.225649 23.637166 
L 280.50974 22.482856 
L 285.793831 21.567205 
L 293.342532 20.508352 
L 299.381494 19.878763 
L 304.665584 19.547479 
L 312.214286 19.306632 
L 318.253247 19.302701 
L 322.782468 19.52744 
L 327.311688 19.990703 
L 332.595779 20.776002 
L 338.63474 21.894144 
L 343.918831 23.059573 
L 348.448052 24.262239 
L 352.977273 25.716266 
L 357.506494 27.413943 
L 372.603896 33.300413 
L 380.152597 35.803865 
L 392.98539 39.796962 
L 399.779221 41.684457 
L 405.818182 43.140779 
L 413.366883 44.722522 
L 422.425325 46.386861 
L 430.728896 47.708929 
L 439.032468 48.813738 
L 447.336039 49.693588 
L 454.88474 50.257751 
L 463.943182 50.685777 
L 465.452922 50.738596 
L 465.452922 50.738596 
" clip-path="url(#p6ffd66d0f9)" style="fill: none; stroke: #116dc2; stroke-width: 1.5; stroke-linecap: square"/>
   </g>
   <g id="line2d_3">
    <path d="M 25.363636 49.825954 
L 26.118506 49.293573 
L 26.873377 48.689152 
L 27.628247 47.966249 
L 28.383117 47.128433 
L 29.137987 46.176628 
L 29.892857 45.050581 
L 30.647727 43.717893 
L 31.402597 42.197444 
L 32.157468 40.44674 
L 32.912338 38.356951 
L 33.667208 35.888983 
L 34.422078 33.165359 
L 35.176948 30.36894 
L 35.931818 27.531512 
L 36.686688 24.576975 
L 37.441558 21.536239 
L 38.196429 18.486945 
L 38.951299 15.503426 
L 39.706169 12.81207 
L 40.461039 10.594166 
L 41.215909 8.67686 
L 41.970779 6.805818 
L 42.725649 5.058263 
L 43.480519 3.762244 
L 44.23539 3.07429 
L 44.99026 2.730838 
L 45.74513 2.470909 
L 46.5 2.597374 
L 47.25487 3.616911 
L 48.00974 5.534635 
L 48.76461 7.927765 
L 49.519481 10.443235 
L 50.274351 12.98881 
L 51.029221 15.608466 
L 51.784091 18.331649 
L 52.538961 21.120794 
L 53.293831 23.931035 
L 54.048701 26.810533 
L 54.803571 29.765637 
L 55.558442 32.596545 
L 56.313312 35.117306 
L 57.068182 37.33289 
L 57.823052 39.293068 
L 58.577922 41.047428 
L 59.332792 42.682076 
L 60.087662 44.223204 
L 60.842532 45.606482 
L 61.597403 46.759587 
L 62.352273 47.669321 
L 63.107143 48.394867 
L 63.862013 49.007759 
L 64.616883 49.546379 
L 65.371753 50.028281 
" clip-path="url(#p6ffd66d0f9)" style="fill: none; stroke: #8a8a8a; stroke-width: 1.5; stroke-linecap: square"/>
   </g>
  </g>
 </g>
 <defs>
  <clipPath id="p6ffd66d0f9">
   <rect x="0" y="-0" width="558" height="54.36"/>
  </clipPath>
 </defs>
</svg>
