<?xml version="1.0" encoding="utf-8" standalone="no"?>
<!DOCTYPE svg PUBLIC "-//W3C//DTD SVG 1.1//EN"
  "http://www.w3.org/Graphics/SVG/1.1/DTD/svg11.dtd">
<svg xmlns:xlink="http://www.w3.org/1999/xlink" width="558pt" height="54.36pt" viewBox="0 0 558 54.36" xmlns="http://www.w3.org/2000/svg" version="1.1">
 <metadata>
  <rdf:RDF xmlns:dc="http://purl.org/dc/elements/1.1/" xmlns:cc="http://creativecommons.org/ns#" xmlns:rdf="http://www.w3.org/1999/02/22-rdf-syntax-ns#">
   <cc:Work>
    <dc:type rdf:resource="http://purl.org/dc/dcmitype/StillImage"/>
    <dc:date>2024-09-15T09:31:08.257490</dc:date>
    <dc:format>image/svg+xml</dc:format>
    <dc:creator>
     <cc:Agent>
      <dc:title>Matplotlib v3.5.2, https://matplotlib.org/</dc:title>
     </cc:Agent>
    </dc:creator>
   </cc:Work>
  </rdf:RDF>
 </metadata>
 <defs>
  <style type="text/css">*{stroke-linejoin: round; stroke-linecap: butt}</style>
 </defs>
 <g id="figure_1">
  <g id="patch_1">
   <path d="M 0 54.36 
L 558 54.36 
L 558 0 
L 0 0 
L 0 54.36 
z
" style="fill: none; opacity: 0"/>
  </g>
  <g id="axes_1">
   <g id="PolyCollection_1">
    <defs>
     <path id="m56625823d9" d="M 254.330202 -2.470909 
L 254.330202 -3.724189 
L 255.101133 -3.769734 
L 255.872064 -3.817769 
L 256.642995 -3.868404 
L 257.413926 -3.921731 
L 258.184858 -3.977819 
L 258.955789 -4.036711 
L 259.72672 -4.098424 
L 260.497651 -4.162946 
L 261.268582 -4.230239 
L 262.039514 -4.300238 
L 262.810445 -4.372857 
L 263.581376 -4.447991 
L 264.352307 -4.525522 
L 265.123238 -4.60532 
L 265.89417 -4.687253 
L 266.665101 -4.77119 
L 267.436032 -4.857006 
L 268.206963 -4.944588 
L 268.977894 -5.033837 
L 269.748826 -5.124672 
L 270.519757 -5.217035 
L 271.290688 -5.310886 
L 272.061619 -5.40621 
L 272.83255 -5.503012 
L 273.603482 -5.601318 
L 274.374413 -5.701173 
L 275.145344 -5.802637 
L 275.916275 -5.905785 
L 276.687206 -6.010703 
L 277.458138 -6.117485 
L 278.229069 -6.226231 
L 279 -6.337043 
L 279.770931 -6.450026 
L 280.541862 -6.565282 
L 281.312794 -6.682907 
L 282.083725 -6.802995 
L 282.854656 -6.92563 
L 283.625587 -7.050883 
L 284.396518 -7.178818 
L 285.16745 -7.30948 
L 285.938381 -7.442899 
L 286.709312 -7.579086 
L 287.480243 -7.718031 
L 288.251174 -7.859701 
L 289.022106 -8.004043 
L 289.793037 -8.150977 
L 290.563968 -8.300401 
L 291.334899 -8.452193 
L 292.10583 -8.606208 
L 292.876762 -8.762289 
L 293.647693 -8.920264 
L 294.418624 -9.079957 
L 295.189555 -9.241193 
L 295.960486 -9.403803 
L 296.731418 -9.567636 
L 297.502349 -9.732564 
L 298.27328 -9.89849 
L 299.044211 -10.06536 
L 299.815142 -10.233162 
L 300.586074 -10.401939 
L 301.357005 -10.57179 
L 302.127936 -10.742871 
L 302.898867 -10.9154 
L 303.669798 -11.08965 
L 304.440729 -11.26595 
L 305.211661 -11.444675 
L 305.982592 -11.626243 
L 306.753523 -11.811103 
L 307.524454 -11.999723 
L 308.295385 -12.192582 
L 309.066317 -12.390158 
L 309.837248 -12.592912 
L 310.608179 -12.80128 
L 311.37911 -13.015658 
L 312.150041 -13.236394 
L 312.920973 -13.463777 
L 313.691904 -13.698029 
L 314.462835 -13.939297 
L 315.233766 -14.187648 
L 316.004697 -14.443065 
L 316.775629 -14.705443 
L 317.54656 -14.974588 
L 318.317491 -15.250221 
L 319.088422 -15.531975 
L 319.859353 -15.819404 
L 320.630285 -16.111987 
L 321.401216 -16.409138 
L 322.172147 -16.710215 
L 322.943078 -17.014532 
L 323.714009 -17.321377 
L 324.484941 -17.630024 
L 325.255872 -17.939753 
L 326.026803 -18.249865 
L 326.797734 -18.559701 
L 327.568665 -18.868657 
L 328.339597 -19.176201 
L 329.110528 -19.481882 
L 329.881459 -19.785343 
L 330.65239 -20.086321 
L 331.423321 -20.38465 
L 332.194253 -20.680259 
L 332.965184 -20.973161 
L 333.736115 -21.263445 
L 334.507046 -21.551258 
L 335.277977 -21.836791 
L 336.048909 -22.120261 
L 336.81984 -22.401895 
L 337.590771 -22.681915 
L 338.361702 -22.960523 
L 339.132633 -23.237896 
L 339.903565 -23.514181 
L 340.674496 -23.789495 
L 341.445427 -24.063931 
L 342.216358 -24.337565 
L 342.987289 -24.610473 
L 343.758221 -24.88274 
L 344.529152 -25.15448 
L 345.300083 -25.425848 
L 346.071014 -25.69705 
L 346.841945 -25.968354 
L 347.612876 -26.240089 
L 348.383808 -26.512646 
L 349.154739 -26.786462 
L 349.92567 -27.062011 
L 350.696601 -27.339777 
L 351.467532 -27.62023 
L 352.238464 -27.903798 
L 353.009395 -28.190833 
L 353.780326 -28.481579 
L 354.551257 -28.77615 
L 355.322188 -29.074497 
L 356.09312 -29.376392 
L 356.864051 -29.681417 
L 357.634982 -29.988957 
L 358.405913 -30.2982 
L 359.176844 -30.608153 
L 359.947776 -30.917656 
L 360.718707 -31.225409 
L 361.489638 -31.53 
L 362.260569 -31.829942 
L 363.0315 -32.123708 
L 363.802432 -32.409772 
L 364.573363 -32.686644 
L 365.344294 -32.952909 
L 366.115225 -33.207263 
L 366.886156 -33.448544 
L 367.657088 -33.675757 
L 368.428019 -33.8881 
L 369.19895 -34.084983 
L 369.969881 -34.26604 
L 370.740812 -34.431141 
L 371.511744 -34.580391 
L 372.282675 -34.714134 
L 373.053606 -34.832939 
L 373.824537 -34.937597 
L 374.595468 -35.029096 
L 375.3664 -35.108598 
L 376.137331 -35.177414 
L 376.908262 -35.236967 
L 377.679193 -35.288753 
L 378.450124 -35.334301 
L 379.221056 -35.375123 
L 379.991987 -35.412672 
L 380.762918 -35.448296 
L 381.533849 -35.483187 
L 382.30478 -35.518352 
L 383.075712 -35.554569 
L 383.846643 -35.592368 
L 384.617574 -35.632013 
L 385.388505 -35.673499 
L 386.159436 -35.716552 
L 386.930368 -35.760656 
L 387.701299 -35.805077 
L 388.47223 -35.848901 
L 389.243161 -35.891083 
L 390.014092 -35.9305 
L 390.785023 -35.966003 
L 391.555955 -35.996478 
L 392.326886 -36.020892 
L 393.097817 -36.038347 
L 393.868748 -36.048113 
L 394.639679 -36.049663 
L 395.410611 -36.042685 
L 396.181542 -36.027095 
L 396.952473 -36.003026 
L 397.723404 -35.970817 
L 398.494335 -35.930981 
L 399.265267 -35.88418 
L 400.036198 -35.831177 
L 400.807129 -35.772802 
L 401.57806 -35.709901 
L 402.348991 -35.643298 
L 403.119923 -35.573753 
L 403.890854 -35.501929 
L 404.661785 -35.428359 
L 405.432716 -35.353425 
L 406.203647 -35.277337 
L 406.974579 -35.200129 
L 407.74551 -35.121649 
L 408.516441 -35.041565 
L 409.287372 -34.959372 
L 410.058303 -34.874409 
L 410.829235 -34.785874 
L 411.600166 -34.69285 
L 412.371097 -34.594332 
L 413.142028 -34.489259 
L 413.912959 -34.376546 
L 414.683891 -34.255122 
L 415.454822 -34.123964 
L 416.225753 -33.982139 
L 416.996684 -33.828838 
L 417.767615 -33.663405 
L 418.538547 -33.485376 
L 419.309478 -33.294493 
L 420.080409 -33.090729 
L 420.85134 -32.874294 
L 421.622271 -32.645635 
L 422.393203 -32.405434 
L 423.164134 -32.154582 
L 423.935065 -31.89416 
L 424.705996 -31.625406 
L 425.476927 -31.349672 
L 426.247859 -31.068384 
L 427.01879 -30.782998 
L 427.789721 -30.49495 
L 428.560652 -30.205615 
L 429.331583 -29.916269 
L 430.102515 -29.628051 
L 430.873446 -29.341941 
L 431.644377 -29.058735 
L 432.415308 -28.779042 
L 433.186239 -28.503276 
L 433.95717 -28.231667 
L 434.728102 -27.964271 
L 435.499033 -27.700993 
L 436.269964 -27.441612 
L 437.040895 -27.185809 
L 437.811826 -26.933197 
L 438.582758 -26.683353 
L 439.353689 -26.43585 
L 440.12462 -26.190278 
L 440.895551 -25.946276 
L 441.666482 -25.703545 
L 442.437414 -25.461865 
L 443.208345 -25.221102 
L 443.979276 -24.981211 
L 444.750207 -24.742236 
L 445.521138 -24.504296 
L 446.29207 -24.267575 
L 447.063001 -24.032306 
L 447.833932 -23.798748 
L 448.604863 -23.567167 
L 449.375794 -23.337808 
L 450.146726 -23.11088 
L 450.917657 -22.886524 
L 451.688588 -22.664804 
L 452.459519 -22.445683 
L 453.23045 -22.229016 
L 454.001382 -22.014541 
L 454.772313 -21.801874 
L 455.543244 -21.590518 
L 456.314175 -21.379866 
L 457.085106 -21.169214 
L 457.856038 -20.957782 
L 458.626969 -20.744733 
L 459.3979 -20.529199 
L 460.168831 -20.31031 
L 460.939762 -20.087217 
L 461.710694 -19.859128 
L 462.481625 -19.625335 
L 463.252556 -19.385237 
L 464.023487 -19.138369 
L 464.794418 -18.884423 
L 465.56535 -18.623259 
L 466.336281 -18.354924 
L 467.107212 -18.079652 
L 467.878143 -17.797868 
L 468.649074 -17.510178 
L 469.420006 -17.217358 
L 470.190937 -16.92034 
L 470.961868 -16.620181 
L 471.732799 -16.318043 
L 472.50373 -16.015158 
L 473.274662 -15.712795 
L 474.045593 -15.412224 
L 474.816524 -15.114684 
L 475.587455 -14.821347 
L 476.358386 -14.533285 
L 477.129317 -14.251449 
L 477.900249 -13.976637 
L 478.67118 -13.709484 
L 479.442111 -13.450443 
L 480.213042 -13.199787 
L 480.983973 -12.957603 
L 481.754905 -12.723803 
L 482.525836 -12.498134 
L 483.296767 -12.2802 
L 484.067698 -12.069477 
L 484.838629 -11.865345 
L 485.609561 -11.667113 
L 486.380492 -11.474043 
L 487.151423 -11.285386 
L 487.922354 -11.100402 
L 488.693285 -10.91839 
L 489.464217 -10.738707 
L 490.235148 -10.560785 
L 491.006079 -10.38415 
L 491.77701 -10.208425 
L 492.547941 -10.03334 
L 493.318873 -9.858731 
L 494.089804 -9.684537 
L 494.860735 -9.510792 
L 495.631666 -9.337618 
L 496.402597 -9.165207 
L 497.173529 -8.993814 
L 497.94446 -8.823737 
L 498.715391 -8.655301 
L 499.486322 -8.488848 
L 500.257253 -8.324718 
L 501.028185 -8.163237 
L 501.799116 -8.004707 
L 502.570047 -7.849394 
L 503.340978 -7.697525 
L 504.111909 -7.549277 
L 504.882841 -7.404778 
L 505.653772 -7.264102 
L 506.424703 -7.127275 
L 507.195634 -6.99427 
L 507.966565 -6.865018 
L 508.737497 -6.739406 
L 509.508428 -6.617287 
L 510.279359 -6.498485 
L 511.05029 -6.382803 
L 511.821221 -6.270028 
L 512.592153 -6.159941 
L 513.363084 -6.052323 
L 514.134015 -5.94696 
L 514.904946 -5.843654 
L 515.675877 -5.742224 
L 516.446809 -5.642513 
L 517.21774 -5.544392 
L 517.988671 -5.447762 
L 518.759602 -5.352557 
L 519.530533 -5.258743 
L 520.301464 -5.166317 
L 521.072396 -5.075306 
L 521.843327 -4.985764 
L 522.614258 -4.897764 
L 523.385189 -4.8114 
L 524.15612 -4.726775 
L 524.927052 -4.643997 
L 525.697983 -4.563174 
L 526.468914 -4.484408 
L 527.239845 -4.407789 
L 528.010776 -4.333392 
L 528.781708 -4.26127 
L 529.552639 -4.191459 
L 530.32357 -4.12397 
L 531.094501 -4.058794 
L 531.865432 -3.995903 
L 532.636364 -3.93525 
L 532.636364 -2.470909 
L 532.636364 -2.470909 
L 531.865432 -2.470909 
L 531.094501 -2.470909 
L 530.32357 -2.470909 
L 529.552639 -2.470909 
L 528.781708 -2.470909 
L 528.010776 -2.470909 
L 527.239845 -2.470909 
L 526.468914 -2.470909 
L 525.697983 -2.470909 
L 524.927052 -2.470909 
L 524.15612 -2.470909 
L 523.385189 -2.470909 
L 522.614258 -2.470909 
L 521.843327 -2.470909 
L 521.072396 -2.470909 
L 520.301464 -2.470909 
L 519.530533 -2.470909 
L 518.759602 -2.470909 
L 517.988671 -2.470909 
L 517.21774 -2.470909 
L 516.446809 -2.470909 
L 515.675877 -2.470909 
L 514.904946 -2.470909 
L 514.134015 -2.470909 
L 513.363084 -2.470909 
L 512.592153 -2.470909 
L 511.821221 -2.470909 
L 511.05029 -2.470909 
L 510.279359 -2.470909 
L 509.508428 -2.470909 
L 508.737497 -2.470909 
L 507.966565 -2.470909 
L 507.195634 -2.470909 
L 506.424703 -2.470909 
L 505.653772 -2.470909 
L 504.882841 -2.470909 
L 504.111909 -2.470909 
L 503.340978 -2.470909 
L 502.570047 -2.470909 
L 501.799116 -2.470909 
L 501.028185 -2.470909 
L 500.257253 -2.470909 
L 499.486322 -2.470909 
L 498.715391 -2.470909 
L 497.94446 -2.470909 
L 497.173529 -2.470909 
L 496.402597 -2.470909 
L 495.631666 -2.470909 
L 494.860735 -2.470909 
L 494.089804 -2.470909 
L 493.318873 -2.470909 
L 492.547941 -2.470909 
L 491.77701 -2.470909 
L 491.006079 -2.470909 
L 490.235148 -2.470909 
L 489.464217 -2.470909 
L 488.693285 -2.470909 
L 487.922354 -2.470909 
L 487.151423 -2.470909 
L 486.380492 -2.470909 
L 485.609561 -2.470909 
L 484.838629 -2.470909 
L 484.067698 -2.470909 
L 483.296767 -2.470909 
L 482.525836 -2.470909 
L 481.754905 -2.470909 
L 480.983973 -2.470909 
L 480.213042 -2.470909 
L 479.442111 -2.470909 
L 478.67118 -2.470909 
L 477.900249 -2.470909 
L 477.129317 -2.470909 
L 476.358386 -2.470909 
L 475.587455 -2.470909 
L 474.816524 -2.470909 
L 474.045593 -2.470909 
L 473.274662 -2.470909 
L 472.50373 -2.470909 
L 471.732799 -2.470909 
L 470.961868 -2.470909 
L 470.190937 -2.470909 
L 469.420006 -2.470909 
L 468.649074 -2.470909 
L 467.878143 -2.470909 
L 467.107212 -2.470909 
L 466.336281 -2.470909 
L 465.56535 -2.470909 
L 464.794418 -2.470909 
L 464.023487 -2.470909 
L 463.252556 -2.470909 
L 462.481625 -2.470909 
L 461.710694 -2.470909 
L 460.939762 -2.470909 
L 460.168831 -2.470909 
L 459.3979 -2.470909 
L 458.626969 -2.470909 
L 457.856038 -2.470909 
L 457.085106 -2.470909 
L 456.314175 -2.470909 
L 455.543244 -2.470909 
L 454.772313 -2.470909 
L 454.001382 -2.470909 
L 453.23045 -2.470909 
L 452.459519 -2.470909 
L 451.688588 -2.470909 
L 450.917657 -2.470909 
L 450.146726 -2.470909 
L 449.375794 -2.470909 
L 448.604863 -2.470909 
L 447.833932 -2.470909 
L 447.063001 -2.470909 
L 446.29207 -2.470909 
L 445.521138 -2.470909 
L 444.750207 -2.470909 
L 443.979276 -2.470909 
L 443.208345 -2.470909 
L 442.437414 -2.470909 
L 441.666482 -2.470909 
L 440.895551 -2.470909 
L 440.12462 -2.470909 
L 439.353689 -2.470909 
L 438.582758 -2.470909 
L 437.811826 -2.470909 
L 437.040895 -2.470909 
L 436.269964 -2.470909 
L 435.499033 -2.470909 
L 434.728102 -2.470909 
L 433.95717 -2.470909 
L 433.186239 -2.470909 
L 432.415308 -2.470909 
L 431.644377 -2.470909 
L 430.873446 -2.470909 
L 430.102515 -2.470909 
L 429.331583 -2.470909 
L 428.560652 -2.470909 
L 427.789721 -2.470909 
L 427.01879 -2.470909 
L 426.247859 -2.470909 
L 425.476927 -2.470909 
L 424.705996 -2.470909 
L 423.935065 -2.470909 
L 423.164134 -2.470909 
L 422.393203 -2.470909 
L 421.622271 -2.470909 
L 420.85134 -2.470909 
L 420.080409 -2.470909 
L 419.309478 -2.470909 
L 418.538547 -2.470909 
L 417.767615 -2.470909 
L 416.996684 -2.470909 
L 416.225753 -2.470909 
L 415.454822 -2.470909 
L 414.683891 -2.470909 
L 413.912959 -2.470909 
L 413.142028 -2.470909 
L 412.371097 -2.470909 
L 411.600166 -2.470909 
L 410.829235 -2.470909 
L 410.058303 -2.470909 
L 409.287372 -2.470909 
L 408.516441 -2.470909 
L 407.74551 -2.470909 
L 406.974579 -2.470909 
L 406.203647 -2.470909 
L 405.432716 -2.470909 
L 404.661785 -2.470909 
L 403.890854 -2.470909 
L 403.119923 -2.470909 
L 402.348991 -2.470909 
L 401.57806 -2.470909 
L 400.807129 -2.470909 
L 400.036198 -2.470909 
L 399.265267 -2.470909 
L 398.494335 -2.470909 
L 397.723404 -2.470909 
L 396.952473 -2.470909 
L 396.181542 -2.470909 
L 395.410611 -2.470909 
L 394.639679 -2.470909 
L 393.868748 -2.470909 
L 393.097817 -2.470909 
L 392.326886 -2.470909 
L 391.555955 -2.470909 
L 390.785023 -2.470909 
L 390.014092 -2.470909 
L 389.243161 -2.470909 
L 388.47223 -2.470909 
L 387.701299 -2.470909 
L 386.930368 -2.470909 
L 386.159436 -2.470909 
L 385.388505 -2.470909 
L 384.617574 -2.470909 
L 383.846643 -2.470909 
L 383.075712 -2.470909 
L 382.30478 -2.470909 
L 381.533849 -2.470909 
L 380.762918 -2.470909 
L 379.991987 -2.470909 
L 379.221056 -2.470909 
L 378.450124 -2.470909 
L 377.679193 -2.470909 
L 376.908262 -2.470909 
L 376.137331 -2.470909 
L 375.3664 -2.470909 
L 374.595468 -2.470909 
L 373.824537 -2.470909 
L 373.053606 -2.470909 
L 372.282675 -2.470909 
L 371.511744 -2.470909 
L 370.740812 -2.470909 
L 369.969881 -2.470909 
L 369.19895 -2.470909 
L 368.428019 -2.470909 
L 367.657088 -2.470909 
L 366.886156 -2.470909 
L 366.115225 -2.470909 
L 365.344294 -2.470909 
L 364.573363 -2.470909 
L 363.802432 -2.470909 
L 363.0315 -2.470909 
L 362.260569 -2.470909 
L 361.489638 -2.470909 
L 360.718707 -2.470909 
L 359.947776 -2.470909 
L 359.176844 -2.470909 
L 358.405913 -2.470909 
L 357.634982 -2.470909 
L 356.864051 -2.470909 
L 356.09312 -2.470909 
L 355.322188 -2.470909 
L 354.551257 -2.470909 
L 353.780326 -2.470909 
L 353.009395 -2.470909 
L 352.238464 -2.470909 
L 351.467532 -2.470909 
L 350.696601 -2.470909 
L 349.92567 -2.470909 
L 349.154739 -2.470909 
L 348.383808 -2.470909 
L 347.612876 -2.470909 
L 346.841945 -2.470909 
L 346.071014 -2.470909 
L 345.300083 -2.470909 
L 344.529152 -2.470909 
L 343.758221 -2.470909 
L 342.987289 -2.470909 
L 342.216358 -2.470909 
L 341.445427 -2.470909 
L 340.674496 -2.470909 
L 339.903565 -2.470909 
L 339.132633 -2.470909 
L 338.361702 -2.470909 
L 337.590771 -2.470909 
L 336.81984 -2.470909 
L 336.048909 -2.470909 
L 335.277977 -2.470909 
L 334.507046 -2.470909 
L 333.736115 -2.470909 
L 332.965184 -2.470909 
L 332.194253 -2.470909 
L 331.423321 -2.470909 
L 330.65239 -2.470909 
L 329.881459 -2.470909 
L 329.110528 -2.470909 
L 328.339597 -2.470909 
L 327.568665 -2.470909 
L 326.797734 -2.470909 
L 326.026803 -2.470909 
L 325.255872 -2.470909 
L 324.484941 -2.470909 
L 323.714009 -2.470909 
L 322.943078 -2.470909 
L 322.172147 -2.470909 
L 321.401216 -2.470909 
L 320.630285 -2.470909 
L 319.859353 -2.470909 
L 319.088422 -2.470909 
L 318.317491 -2.470909 
L 317.54656 -2.470909 
L 316.775629 -2.470909 
L 316.004697 -2.470909 
L 315.233766 -2.470909 
L 314.462835 -2.470909 
L 313.691904 -2.470909 
L 312.920973 -2.470909 
L 312.150041 -2.470909 
L 311.37911 -2.470909 
L 310.608179 -2.470909 
L 309.837248 -2.470909 
L 309.066317 -2.470909 
L 308.295385 -2.470909 
L 307.524454 -2.470909 
L 306.753523 -2.470909 
L 305.982592 -2.470909 
L 305.211661 -2.470909 
L 304.440729 -2.470909 
L 303.669798 -2.470909 
L 302.898867 -2.470909 
L 302.127936 -2.470909 
L 301.357005 -2.470909 
L 300.586074 -2.470909 
L 299.815142 -2.470909 
L 299.044211 -2.470909 
L 298.27328 -2.470909 
L 297.502349 -2.470909 
L 296.731418 -2.470909 
L 295.960486 -2.470909 
L 295.189555 -2.470909 
L 294.418624 -2.470909 
L 293.647693 -2.470909 
L 292.876762 -2.470909 
L 292.10583 -2.470909 
L 291.334899 -2.470909 
L 290.563968 -2.470909 
L 289.793037 -2.470909 
L 289.022106 -2.470909 
L 288.251174 -2.470909 
L 287.480243 -2.470909 
L 286.709312 -2.470909 
L 285.938381 -2.470909 
L 285.16745 -2.470909 
L 284.396518 -2.470909 
L 283.625587 -2.470909 
L 282.854656 -2.470909 
L 282.083725 -2.470909 
L 281.312794 -2.470909 
L 280.541862 -2.470909 
L 279.770931 -2.470909 
L 279 -2.470909 
L 278.229069 -2.470909 
L 277.458138 -2.470909 
L 276.687206 -2.470909 
L 275.916275 -2.470909 
L 275.145344 -2.470909 
L 274.374413 -2.470909 
L 273.603482 -2.470909 
L 272.83255 -2.470909 
L 272.061619 -2.470909 
L 271.290688 -2.470909 
L 270.519757 -2.470909 
L 269.748826 -2.470909 
L 268.977894 -2.470909 
L 268.206963 -2.470909 
L 267.436032 -2.470909 
L 266.665101 -2.470909 
L 265.89417 -2.470909 
L 265.123238 -2.470909 
L 264.352307 -2.470909 
L 263.581376 -2.470909 
L 262.810445 -2.470909 
L 262.039514 -2.470909 
L 261.268582 -2.470909 
L 260.497651 -2.470909 
L 259.72672 -2.470909 
L 258.955789 -2.470909 
L 258.184858 -2.470909 
L 257.413926 -2.470909 
L 256.642995 -2.470909 
L 255.872064 -2.470909 
L 255.101133 -2.470909 
L 254.330202 -2.470909 
z
" style="stroke: #cf1313; stroke-opacity: 0.2"/>
    </defs>
    <g clip-path="url(#pe969726c9f)">
     <use xlink:href="#m56625823d9" x="0" y="54.36" style="fill: #cf1313; fill-opacity: 0.2; stroke: #cf1313; stroke-opacity: 0.2"/>
    </g>
   </g>
   <g id="PolyCollection_2">
    <defs>
     <path id="m7081ecda14" d="M 151.796353 -2.470909 
L 151.796353 -3.76513 
L 152.567284 -3.796376 
L 153.338215 -3.827251 
L 154.109146 -3.857824 
L 154.880077 -3.888181 
L 155.651009 -3.918423 
L 156.42194 -3.948664 
L 157.192871 -3.979028 
L 157.963802 -4.009647 
L 158.734733 -4.040656 
L 159.505665 -4.072194 
L 160.276596 -4.104394 
L 161.047527 -4.137388 
L 161.818458 -4.171298 
L 162.589389 -4.206237 
L 163.360321 -4.242307 
L 164.131252 -4.279596 
L 164.902183 -4.318181 
L 165.673114 -4.358124 
L 166.444045 -4.399475 
L 167.214977 -4.442275 
L 167.985908 -4.486553 
L 168.756839 -4.532334 
L 169.52777 -4.57964 
L 170.298701 -4.628493 
L 171.069632 -4.678916 
L 171.840564 -4.730943 
L 172.611495 -4.784617 
L 173.382426 -4.839994 
L 174.153357 -4.897146 
L 174.924288 -4.956164 
L 175.69522 -5.017159 
L 176.466151 -5.080257 
L 177.237082 -5.145607 
L 178.008013 -5.213371 
L 178.778944 -5.283725 
L 179.549876 -5.356856 
L 180.320807 -5.432952 
L 181.091738 -5.512203 
L 181.862669 -5.59479 
L 182.6336 -5.680878 
L 183.404532 -5.770615 
L 184.175463 -5.86412 
L 184.946394 -5.961478 
L 185.717325 -6.062737 
L 186.488256 -6.167903 
L 187.259188 -6.276938 
L 188.030119 -6.389757 
L 188.80105 -6.506229 
L 189.571981 -6.626183 
L 190.342912 -6.749404 
L 191.113844 -6.875647 
L 191.884775 -7.004637 
L 192.655706 -7.136083 
L 193.426637 -7.26968 
L 194.197568 -7.405125 
L 194.9685 -7.542124 
L 195.739431 -7.680399 
L 196.510362 -7.819698 
L 197.281293 -7.959807 
L 198.052224 -8.100548 
L 198.823156 -8.241788 
L 199.594087 -8.383445 
L 200.365018 -8.525479 
L 201.135949 -8.667903 
L 201.90688 -8.810768 
L 202.677812 -8.954168 
L 203.448743 -9.098228 
L 204.219674 -9.243097 
L 204.990605 -9.388944 
L 205.761536 -9.535944 
L 206.532468 -9.684274 
L 207.303399 -9.834102 
L 208.07433 -9.985581 
L 208.845261 -10.138841 
L 209.616192 -10.293987 
L 210.387124 -10.45109 
L 211.158055 -10.610189 
L 211.928986 -10.771291 
L 212.699917 -10.934365 
L 213.470848 -11.099353 
L 214.241779 -11.266167 
L 215.012711 -11.434695 
L 215.783642 -11.604807 
L 216.554573 -11.776361 
L 217.325504 -11.949208 
L 218.096435 -12.1232 
L 218.867367 -12.298193 
L 219.638298 -12.474059 
L 220.409229 -12.650684 
L 221.18016 -12.827979 
L 221.951091 -13.00588 
L 222.722023 -13.184356 
L 223.492954 -13.363405 
L 224.263885 -13.543062 
L 225.034816 -13.723397 
L 225.805747 -13.904511 
L 226.576679 -14.086543 
L 227.34761 -14.269662 
L 228.118541 -14.454065 
L 228.889472 -14.639978 
L 229.660403 -14.827648 
L 230.431335 -15.017341 
L 231.202266 -15.209337 
L 231.973197 -15.403929 
L 232.744128 -15.601412 
L 233.515059 -15.802086 
L 234.285991 -16.006248 
L 235.056922 -16.214186 
L 235.827853 -16.42618 
L 236.598784 -16.642494 
L 237.369715 -16.863377 
L 238.140647 -17.089055 
L 238.911578 -17.319733 
L 239.682509 -17.555587 
L 240.45344 -17.796767 
L 241.224371 -18.04339 
L 241.995303 -18.295539 
L 242.766234 -18.553262 
L 243.537165 -18.816567 
L 244.308096 -19.085422 
L 245.079027 -19.35975 
L 245.849959 -19.639428 
L 246.62089 -19.924283 
L 247.391821 -20.214092 
L 248.162752 -20.508579 
L 248.933683 -20.807412 
L 249.704615 -21.110206 
L 250.475546 -21.416518 
L 251.246477 -21.725853 
L 252.017408 -22.037661 
L 252.788339 -22.351347 
L 253.559271 -22.666269 
L 254.330202 -22.981749 
L 255.101133 -23.29708 
L 255.872064 -23.611534 
L 256.642995 -23.924374 
L 257.413926 -24.234865 
L 258.184858 -24.542287 
L 258.955789 -24.845951 
L 259.72672 -25.145207 
L 260.497651 -25.439462 
L 261.268582 -25.728191 
L 262.039514 -26.010949 
L 262.810445 -26.287379 
L 263.581376 -26.557225 
L 264.352307 -26.820332 
L 265.123238 -27.076654 
L 265.89417 -27.326252 
L 266.665101 -27.569292 
L 267.436032 -27.80604 
L 268.206963 -28.036854 
L 268.977894 -28.262175 
L 269.748826 -28.482512 
L 270.519757 -28.698427 
L 271.290688 -28.910523 
L 272.061619 -29.11942 
L 272.83255 -29.325747 
L 273.603482 -29.530116 
L 274.374413 -29.733109 
L 275.145344 -29.935263 
L 275.916275 -30.137053 
L 276.687206 -30.338884 
L 277.458138 -30.541075 
L 278.229069 -30.743854 
L 279 -30.947351 
L 279.770931 -31.151594 
L 280.541862 -31.35651 
L 281.312794 -31.561922 
L 282.083725 -31.767555 
L 282.854656 -31.973041 
L 283.625587 -32.177924 
L 284.396518 -32.38167 
L 285.16745 -32.58368 
L 285.938381 -32.783294 
L 286.709312 -32.979812 
L 287.480243 -33.172503 
L 288.251174 -33.360617 
L 289.022106 -33.543408 
L 289.793037 -33.720137 
L 290.563968 -33.890099 
L 291.334899 -34.052627 
L 292.10583 -34.207112 
L 292.876762 -34.353014 
L 293.647693 -34.489871 
L 294.418624 -34.617315 
L 295.189555 -34.735071 
L 295.960486 -34.84297 
L 296.731418 -34.940949 
L 297.502349 -35.029051 
L 298.27328 -35.107426 
L 299.044211 -35.17632 
L 299.815142 -35.236075 
L 300.586074 -35.287111 
L 301.357005 -35.329919 
L 302.127936 -35.365043 
L 302.898867 -35.393064 
L 303.669798 -35.414582 
L 304.440729 -35.430197 
L 305.211661 -35.440489 
L 305.982592 -35.446001 
L 306.753523 -35.447223 
L 307.524454 -35.444571 
L 308.295385 -35.438378 
L 309.066317 -35.428881 
L 309.837248 -35.416214 
L 310.608179 -35.400405 
L 311.37911 -35.381377 
L 312.150041 -35.358949 
L 312.920973 -35.332849 
L 313.691904 -35.302723 
L 314.462835 -35.268154 
L 315.233766 -35.22868 
L 316.004697 -35.183814 
L 316.775629 -35.13307 
L 317.54656 -35.075986 
L 318.317491 -35.012148 
L 319.088422 -34.941211 
L 319.859353 -34.862925 
L 320.630285 -34.777146 
L 321.401216 -34.683856 
L 322.172147 -34.583168 
L 322.943078 -34.475336 
L 323.714009 -34.36075 
L 324.484941 -34.23993 
L 325.255872 -34.113522 
L 326.026803 -33.982274 
L 326.797734 -33.847022 
L 327.568665 -33.708666 
L 328.339597 -33.568143 
L 329.110528 -33.4264 
L 329.881459 -33.284367 
L 330.65239 -33.142932 
L 331.423321 -33.002912 
L 332.194253 -32.86503 
L 332.965184 -32.729898 
L 333.736115 -32.598003 
L 334.507046 -32.469689 
L 335.277977 -32.34516 
L 336.048909 -32.224471 
L 336.81984 -32.107539 
L 337.590771 -31.994144 
L 338.361702 -31.88395 
L 339.132633 -31.776512 
L 339.903565 -31.671301 
L 340.674496 -31.567721 
L 341.445427 -31.46513 
L 342.216358 -31.362862 
L 342.987289 -31.260246 
L 343.758221 -31.156621 
L 344.529152 -31.051356 
L 345.300083 -30.94386 
L 346.071014 -30.833589 
L 346.841945 -30.720058 
L 347.612876 -30.602837 
L 348.383808 -30.481551 
L 349.154739 -30.355884 
L 349.92567 -30.225563 
L 350.696601 -30.090361 
L 351.467532 -29.950084 
L 352.238464 -29.804564 
L 353.009395 -29.653655 
L 353.780326 -29.497224 
L 354.551257 -29.335149 
L 355.322188 -29.167317 
L 356.09312 -28.99362 
L 356.864051 -28.813961 
L 357.634982 -28.628257 
L 358.405913 -28.436439 
L 359.176844 -28.238465 
L 359.947776 -28.034319 
L 360.718707 -27.824023 
L 361.489638 -27.607637 
L 362.260569 -27.385269 
L 363.0315 -27.157075 
L 363.802432 -26.923259 
L 364.573363 -26.684073 
L 365.344294 -26.439817 
L 366.115225 -26.190828 
L 366.886156 -25.937479 
L 367.657088 -25.680169 
L 368.428019 -25.419314 
L 369.19895 -25.155337 
L 369.969881 -24.888659 
L 370.740812 -24.619692 
L 371.511744 -24.348827 
L 372.282675 -24.076429 
L 373.053606 -23.802833 
L 373.824537 -23.528339 
L 374.595468 -23.253208 
L 375.3664 -22.977667 
L 376.137331 -22.701906 
L 376.908262 -22.426082 
L 377.679193 -22.150328 
L 378.450124 -21.874752 
L 379.221056 -21.599449 
L 379.991987 -21.324505 
L 380.762918 -21.050005 
L 381.533849 -20.77604 
L 382.30478 -20.502711 
L 383.075712 -20.230138 
L 383.846643 -19.958461 
L 384.617574 -19.687847 
L 385.388505 -19.418484 
L 386.159436 -19.150592 
L 386.930368 -18.884413 
L 387.701299 -18.620209 
L 388.47223 -18.358263 
L 389.243161 -18.098866 
L 390.014092 -17.842314 
L 390.785023 -17.588899 
L 391.555955 -17.338897 
L 392.326886 -17.092565 
L 393.097817 -16.850123 
L 393.868748 -16.611754 
L 394.639679 -16.377586 
L 395.410611 -16.147693 
L 396.181542 -15.922086 
L 396.952473 -15.700707 
L 397.723404 -15.483432 
L 398.494335 -15.270071 
L 399.265267 -15.060367 
L 400.036198 -14.854008 
L 400.807129 -14.650633 
L 401.57806 -14.449842 
L 402.348991 -14.251211 
L 403.119923 -14.054302 
L 403.890854 -13.858684 
L 404.661785 -13.66394 
L 405.432716 -13.469692 
L 406.203647 -13.275607 
L 406.974579 -13.081411 
L 407.74551 -12.886906 
L 408.516441 -12.69197 
L 409.287372 -12.496565 
L 410.058303 -12.300745 
L 410.829235 -12.104645 
L 411.600166 -11.908487 
L 412.371097 -11.712569 
L 413.142028 -11.517256 
L 413.912959 -11.322969 
L 414.683891 -11.130172 
L 415.454822 -10.939358 
L 416.225753 -10.751033 
L 416.996684 -10.565702 
L 417.767615 -10.383854 
L 418.538547 -10.205947 
L 419.309478 -10.032395 
L 420.080409 -9.863559 
L 420.85134 -9.699737 
L 421.622271 -9.541157 
L 422.393203 -9.387971 
L 423.164134 -9.240253 
L 423.935065 -9.098001 
L 424.705996 -8.961137 
L 425.476927 -8.829508 
L 426.247859 -8.702895 
L 427.01879 -8.581021 
L 427.789721 -8.463552 
L 428.560652 -8.350114 
L 429.331583 -8.240294 
L 430.102515 -8.133656 
L 430.873446 -8.029748 
L 431.644377 -7.92811 
L 432.415308 -7.828287 
L 433.186239 -7.729832 
L 433.95717 -7.632318 
L 434.728102 -7.535344 
L 435.499033 -7.438541 
L 436.269964 -7.341578 
L 437.040895 -7.244166 
L 437.811826 -7.146063 
L 438.582758 -7.047073 
L 439.353689 -6.947053 
L 440.12462 -6.845911 
L 440.895551 -6.743607 
L 441.666482 -6.640153 
L 442.437414 -6.535608 
L 443.208345 -6.430083 
L 443.979276 -6.323731 
L 444.750207 -6.216745 
L 445.521138 -6.109359 
L 446.29207 -6.001837 
L 447.063001 -5.894468 
L 447.833932 -5.787567 
L 448.604863 -5.681461 
L 449.375794 -5.576487 
L 450.146726 -5.472984 
L 450.917657 -5.371288 
L 451.688588 -5.271723 
L 452.459519 -5.174599 
L 453.23045 -5.080203 
L 454.001382 -4.988792 
L 454.772313 -4.900593 
L 455.543244 -4.815796 
L 456.314175 -4.734549 
L 457.085106 -4.656959 
L 457.856038 -4.583089 
L 458.626969 -4.512956 
L 459.3979 -4.446532 
L 460.168831 -4.383748 
L 460.939762 -4.324491 
L 461.710694 -4.268611 
L 462.481625 -4.215925 
L 463.252556 -4.166219 
L 464.023487 -4.119253 
L 464.794418 -4.07477 
L 465.56535 -4.0325 
L 466.336281 -3.992161 
L 467.107212 -3.953475 
L 467.878143 -3.916163 
L 468.649074 -3.879958 
L 469.420006 -3.844605 
L 470.190937 -3.809869 
L 470.190937 -2.470909 
L 470.190937 -2.470909 
L 469.420006 -2.470909 
L 468.649074 -2.470909 
L 467.878143 -2.470909 
L 467.107212 -2.470909 
L 466.336281 -2.470909 
L 465.56535 -2.470909 
L 464.794418 -2.470909 
L 464.023487 -2.470909 
L 463.252556 -2.470909 
L 462.481625 -2.470909 
L 461.710694 -2.470909 
L 460.939762 -2.470909 
L 460.168831 -2.470909 
L 459.3979 -2.470909 
L 458.626969 -2.470909 
L 457.856038 -2.470909 
L 457.085106 -2.470909 
L 456.314175 -2.470909 
L 455.543244 -2.470909 
L 454.772313 -2.470909 
L 454.001382 -2.470909 
L 453.23045 -2.470909 
L 452.459519 -2.470909 
L 451.688588 -2.470909 
L 450.917657 -2.470909 
L 450.146726 -2.470909 
L 449.375794 -2.470909 
L 448.604863 -2.470909 
L 447.833932 -2.470909 
L 447.063001 -2.470909 
L 446.29207 -2.470909 
L 445.521138 -2.470909 
L 444.750207 -2.470909 
L 443.979276 -2.470909 
L 443.208345 -2.470909 
L 442.437414 -2.470909 
L 441.666482 -2.470909 
L 440.895551 -2.470909 
L 440.12462 -2.470909 
L 439.353689 -2.470909 
L 438.582758 -2.470909 
L 437.811826 -2.470909 
L 437.040895 -2.470909 
L 436.269964 -2.470909 
L 435.499033 -2.470909 
L 434.728102 -2.470909 
L 433.95717 -2.470909 
L 433.186239 -2.470909 
L 432.415308 -2.470909 
L 431.644377 -2.470909 
L 430.873446 -2.470909 
L 430.102515 -2.470909 
L 429.331583 -2.470909 
L 428.560652 -2.470909 
L 427.789721 -2.470909 
L 427.01879 -2.470909 
L 426.247859 -2.470909 
L 425.476927 -2.470909 
L 424.705996 -2.470909 
L 423.935065 -2.470909 
L 423.164134 -2.470909 
L 422.393203 -2.470909 
L 421.622271 -2.470909 
L 420.85134 -2.470909 
L 420.080409 -2.470909 
L 419.309478 -2.470909 
L 418.538547 -2.470909 
L 417.767615 -2.470909 
L 416.996684 -2.470909 
L 416.225753 -2.470909 
L 415.454822 -2.470909 
L 414.683891 -2.470909 
L 413.912959 -2.470909 
L 413.142028 -2.470909 
L 412.371097 -2.470909 
L 411.600166 -2.470909 
L 410.829235 -2.470909 
L 410.058303 -2.470909 
L 409.287372 -2.470909 
L 408.516441 -2.470909 
L 407.74551 -2.470909 
L 406.974579 -2.470909 
L 406.203647 -2.470909 
L 405.432716 -2.470909 
L 404.661785 -2.470909 
L 403.890854 -2.470909 
L 403.119923 -2.470909 
L 402.348991 -2.470909 
L 401.57806 -2.470909 
L 400.807129 -2.470909 
L 400.036198 -2.470909 
L 399.265267 -2.470909 
L 398.494335 -2.470909 
L 397.723404 -2.470909 
L 396.952473 -2.470909 
L 396.181542 -2.470909 
L 395.410611 -2.470909 
L 394.639679 -2.470909 
L 393.868748 -2.470909 
L 393.097817 -2.470909 
L 392.326886 -2.470909 
L 391.555955 -2.470909 
L 390.785023 -2.470909 
L 390.014092 -2.470909 
L 389.243161 -2.470909 
L 388.47223 -2.470909 
L 387.701299 -2.470909 
L 386.930368 -2.470909 
L 386.159436 -2.470909 
L 385.388505 -2.470909 
L 384.617574 -2.470909 
L 383.846643 -2.470909 
L 383.075712 -2.470909 
L 382.30478 -2.470909 
L 381.533849 -2.470909 
L 380.762918 -2.470909 
L 379.991987 -2.470909 
L 379.221056 -2.470909 
L 378.450124 -2.470909 
L 377.679193 -2.470909 
L 376.908262 -2.470909 
L 376.137331 -2.470909 
L 375.3664 -2.470909 
L 374.595468 -2.470909 
L 373.824537 -2.470909 
L 373.053606 -2.470909 
L 372.282675 -2.470909 
L 371.511744 -2.470909 
L 370.740812 -2.470909 
L 369.969881 -2.470909 
L 369.19895 -2.470909 
L 368.428019 -2.470909 
L 367.657088 -2.470909 
L 366.886156 -2.470909 
L 366.115225 -2.470909 
L 365.344294 -2.470909 
L 364.573363 -2.470909 
L 363.802432 -2.470909 
L 363.0315 -2.470909 
L 362.260569 -2.470909 
L 361.489638 -2.470909 
L 360.718707 -2.470909 
L 359.947776 -2.470909 
L 359.176844 -2.470909 
L 358.405913 -2.470909 
L 357.634982 -2.470909 
L 356.864051 -2.470909 
L 356.09312 -2.470909 
L 355.322188 -2.470909 
L 354.551257 -2.470909 
L 353.780326 -2.470909 
L 353.009395 -2.470909 
L 352.238464 -2.470909 
L 351.467532 -2.470909 
L 350.696601 -2.470909 
L 349.92567 -2.470909 
L 349.154739 -2.470909 
L 348.383808 -2.470909 
L 347.612876 -2.470909 
L 346.841945 -2.470909 
L 346.071014 -2.470909 
L 345.300083 -2.470909 
L 344.529152 -2.470909 
L 343.758221 -2.470909 
L 342.987289 -2.470909 
L 342.216358 -2.470909 
L 341.445427 -2.470909 
L 340.674496 -2.470909 
L 339.903565 -2.470909 
L 339.132633 -2.470909 
L 338.361702 -2.470909 
L 337.590771 -2.470909 
L 336.81984 -2.470909 
L 336.048909 -2.470909 
L 335.277977 -2.470909 
L 334.507046 -2.470909 
L 333.736115 -2.470909 
L 332.965184 -2.470909 
L 332.194253 -2.470909 
L 331.423321 -2.470909 
L 330.65239 -2.470909 
L 329.881459 -2.470909 
L 329.110528 -2.470909 
L 328.339597 -2.470909 
L 327.568665 -2.470909 
L 326.797734 -2.470909 
L 326.026803 -2.470909 
L 325.255872 -2.470909 
L 324.484941 -2.470909 
L 323.714009 -2.470909 
L 322.943078 -2.470909 
L 322.172147 -2.470909 
L 321.401216 -2.470909 
L 320.630285 -2.470909 
L 319.859353 -2.470909 
L 319.088422 -2.470909 
L 318.317491 -2.470909 
L 317.54656 -2.470909 
L 316.775629 -2.470909 
L 316.004697 -2.470909 
L 315.233766 -2.470909 
L 314.462835 -2.470909 
L 313.691904 -2.470909 
L 312.920973 -2.470909 
L 312.150041 -2.470909 
L 311.37911 -2.470909 
L 310.608179 -2.470909 
L 309.837248 -2.470909 
L 309.066317 -2.470909 
L 308.295385 -2.470909 
L 307.524454 -2.470909 
L 306.753523 -2.470909 
L 305.982592 -2.470909 
L 305.211661 -2.470909 
L 304.440729 -2.470909 
L 303.669798 -2.470909 
L 302.898867 -2.470909 
L 302.127936 -2.470909 
L 301.357005 -2.470909 
L 300.586074 -2.470909 
L 299.815142 -2.470909 
L 299.044211 -2.470909 
L 298.27328 -2.470909 
L 297.502349 -2.470909 
L 296.731418 -2.470909 
L 295.960486 -2.470909 
L 295.189555 -2.470909 
L 294.418624 -2.470909 
L 293.647693 -2.470909 
L 292.876762 -2.470909 
L 292.10583 -2.470909 
L 291.334899 -2.470909 
L 290.563968 -2.470909 
L 289.793037 -2.470909 
L 289.022106 -2.470909 
L 288.251174 -2.470909 
L 287.480243 -2.470909 
L 286.709312 -2.470909 
L 285.938381 -2.470909 
L 285.16745 -2.470909 
L 284.396518 -2.470909 
L 283.625587 -2.470909 
L 282.854656 -2.470909 
L 282.083725 -2.470909 
L 281.312794 -2.470909 
L 280.541862 -2.470909 
L 279.770931 -2.470909 
L 279 -2.470909 
L 278.229069 -2.470909 
L 277.458138 -2.470909 
L 276.687206 -2.470909 
L 275.916275 -2.470909 
L 275.145344 -2.470909 
L 274.374413 -2.470909 
L 273.603482 -2.470909 
L 272.83255 -2.470909 
L 272.061619 -2.470909 
L 271.290688 -2.470909 
L 270.519757 -2.470909 
L 269.748826 -2.470909 
L 268.977894 -2.470909 
L 268.206963 -2.470909 
L 267.436032 -2.470909 
L 266.665101 -2.470909 
L 265.89417 -2.470909 
L 265.123238 -2.470909 
L 264.352307 -2.470909 
L 263.581376 -2.470909 
L 262.810445 -2.470909 
L 262.039514 -2.470909 
L 261.268582 -2.470909 
L 260.497651 -2.470909 
L 259.72672 -2.470909 
L 258.955789 -2.470909 
L 258.184858 -2.470909 
L 257.413926 -2.470909 
L 256.642995 -2.470909 
L 255.872064 -2.470909 
L 255.101133 -2.470909 
L 254.330202 -2.470909 
L 253.559271 -2.470909 
L 252.788339 -2.470909 
L 252.017408 -2.470909 
L 251.246477 -2.470909 
L 250.475546 -2.470909 
L 249.704615 -2.470909 
L 248.933683 -2.470909 
L 248.162752 -2.470909 
L 247.391821 -2.470909 
L 246.62089 -2.470909 
L 245.849959 -2.470909 
L 245.079027 -2.470909 
L 244.308096 -2.470909 
L 243.537165 -2.470909 
L 242.766234 -2.470909 
L 241.995303 -2.470909 
L 241.224371 -2.470909 
L 240.45344 -2.470909 
L 239.682509 -2.470909 
L 238.911578 -2.470909 
L 238.140647 -2.470909 
L 237.369715 -2.470909 
L 236.598784 -2.470909 
L 235.827853 -2.470909 
L 235.056922 -2.470909 
L 234.285991 -2.470909 
L 233.515059 -2.470909 
L 232.744128 -2.470909 
L 231.973197 -2.470909 
L 231.202266 -2.470909 
L 230.431335 -2.470909 
L 229.660403 -2.470909 
L 228.889472 -2.470909 
L 228.118541 -2.470909 
L 227.34761 -2.470909 
L 226.576679 -2.470909 
L 225.805747 -2.470909 
L 225.034816 -2.470909 
L 224.263885 -2.470909 
L 223.492954 -2.470909 
L 222.722023 -2.470909 
L 221.951091 -2.470909 
L 221.18016 -2.470909 
L 220.409229 -2.470909 
L 219.638298 -2.470909 
L 218.867367 -2.470909 
L 218.096435 -2.470909 
L 217.325504 -2.470909 
L 216.554573 -2.470909 
L 215.783642 -2.470909 
L 215.012711 -2.470909 
L 214.241779 -2.470909 
L 213.470848 -2.470909 
L 212.699917 -2.470909 
L 211.928986 -2.470909 
L 211.158055 -2.470909 
L 210.387124 -2.470909 
L 209.616192 -2.470909 
L 208.845261 -2.470909 
L 208.07433 -2.470909 
L 207.303399 -2.470909 
L 206.532468 -2.470909 
L 205.761536 -2.470909 
L 204.990605 -2.470909 
L 204.219674 -2.470909 
L 203.448743 -2.470909 
L 202.677812 -2.470909 
L 201.90688 -2.470909 
L 201.135949 -2.470909 
L 200.365018 -2.470909 
L 199.594087 -2.470909 
L 198.823156 -2.470909 
L 198.052224 -2.470909 
L 197.281293 -2.470909 
L 196.510362 -2.470909 
L 195.739431 -2.470909 
L 194.9685 -2.470909 
L 194.197568 -2.470909 
L 193.426637 -2.470909 
L 192.655706 -2.470909 
L 191.884775 -2.470909 
L 191.113844 -2.470909 
L 190.342912 -2.470909 
L 189.571981 -2.470909 
L 188.80105 -2.470909 
L 188.030119 -2.470909 
L 187.259188 -2.470909 
L 186.488256 -2.470909 
L 185.717325 -2.470909 
L 184.946394 -2.470909 
L 184.175463 -2.470909 
L 183.404532 -2.470909 
L 182.6336 -2.470909 
L 181.862669 -2.470909 
L 181.091738 -2.470909 
L 180.320807 -2.470909 
L 179.549876 -2.470909 
L 178.778944 -2.470909 
L 178.008013 -2.470909 
L 177.237082 -2.470909 
L 176.466151 -2.470909 
L 175.69522 -2.470909 
L 174.924288 -2.470909 
L 174.153357 -2.470909 
L 173.382426 -2.470909 
L 172.611495 -2.470909 
L 171.840564 -2.470909 
L 171.069632 -2.470909 
L 170.298701 -2.470909 
L 169.52777 -2.470909 
L 168.756839 -2.470909 
L 167.985908 -2.470909 
L 167.214977 -2.470909 
L 166.444045 -2.470909 
L 165.673114 -2.470909 
L 164.902183 -2.470909 
L 164.131252 -2.470909 
L 163.360321 -2.470909 
L 162.589389 -2.470909 
L 161.818458 -2.470909 
L 161.047527 -2.470909 
L 160.276596 -2.470909 
L 159.505665 -2.470909 
L 158.734733 -2.470909 
L 157.963802 -2.470909 
L 157.192871 -2.470909 
L 156.42194 -2.470909 
L 155.651009 -2.470909 
L 154.880077 -2.470909 
L 154.109146 -2.470909 
L 153.338215 -2.470909 
L 152.567284 -2.470909 
L 151.796353 -2.470909 
z
" style="stroke: #116dc2; stroke-opacity: 0.2"/>
    </defs>
    <g clip-path="url(#pe969726c9f)">
     <use xlink:href="#m7081ecda14" x="0" y="54.36" style="fill: #116dc2; fill-opacity: 0.2; stroke: #116dc2; stroke-opacity: 0.2"/>
    </g>
   </g>
   <g id="PolyCollection_3">
    <defs>
     <path id="m610e895a1a" d="M 25.363636 -2.470909 
L 25.363636 -4.431738 
L 26.134568 -4.868011 
L 26.905499 -5.458404 
L 27.67643 -6.332187 
L 28.447361 -7.537367 
L 29.218292 -8.958622 
L 29.989224 -10.441284 
L 30.760155 -11.943353 
L 31.531086 -13.509814 
L 32.302017 -15.166137 
L 33.072948 -16.922435 
L 33.84388 -18.852604 
L 34.614811 -21.058576 
L 35.385742 -23.605941 
L 36.156673 -26.571384 
L 36.927604 -29.974961 
L 37.698536 -33.605431 
L 38.469467 -37.08973 
L 39.240398 -40.131618 
L 40.011329 -42.630911 
L 40.78226 -44.661136 
L 41.553191 -46.394366 
L 42.324123 -48.044884 
L 43.095054 -49.728736 
L 43.865985 -51.16276 
L 44.636916 -51.774975 
L 45.407847 -51.547513 
L 46.178779 -51.317003 
L 46.94971 -51.642961 
L 47.720641 -51.889091 
L 48.491572 -51.004514 
L 49.262503 -48.763616 
L 50.033435 -45.830724 
L 50.804366 -42.931541 
L 51.575297 -40.296023 
L 52.346228 -37.776674 
L 53.117159 -35.213424 
L 53.888091 -32.598734 
L 54.659022 -29.980568 
L 55.429953 -27.360159 
L 56.200884 -24.723004 
L 56.971815 -22.077887 
L 57.742747 -19.466701 
L 58.513678 -16.950908 
L 59.284609 -14.578697 
L 60.05554 -12.42771 
L 60.826471 -10.612242 
L 61.597403 -9.142364 
L 62.368334 -7.891355 
L 63.139265 -6.777091 
L 63.910196 -5.846412 
L 64.681127 -5.135049 
L 64.681127 -2.470909 
L 64.681127 -2.470909 
L 63.910196 -2.470909 
L 63.139265 -2.470909 
L 62.368334 -2.470909 
L 61.597403 -2.470909 
L 60.826471 -2.470909 
L 60.05554 -2.470909 
L 59.284609 -2.470909 
L 58.513678 -2.470909 
L 57.742747 -2.470909 
L 56.971815 -2.470909 
L 56.200884 -2.470909 
L 55.429953 -2.470909 
L 54.659022 -2.470909 
L 53.888091 -2.470909 
L 53.117159 -2.470909 
L 52.346228 -2.470909 
L 51.575297 -2.470909 
L 50.804366 -2.470909 
L 50.033435 -2.470909 
L 49.262503 -2.470909 
L 48.491572 -2.470909 
L 47.720641 -2.470909 
L 46.94971 -2.470909 
L 46.178779 -2.470909 
L 45.407847 -2.470909 
L 44.636916 -2.470909 
L 43.865985 -2.470909 
L 43.095054 -2.470909 
L 42.324123 -2.470909 
L 41.553191 -2.470909 
L 40.78226 -2.470909 
L 40.011329 -2.470909 
L 39.240398 -2.470909 
L 38.469467 -2.470909 
L 37.698536 -2.470909 
L 36.927604 -2.470909 
L 36.156673 -2.470909 
L 35.385742 -2.470909 
L 34.614811 -2.470909 
L 33.84388 -2.470909 
L 33.072948 -2.470909 
L 32.302017 -2.470909 
L 31.531086 -2.470909 
L 30.760155 -2.470909 
L 29.989224 -2.470909 
L 29.218292 -2.470909 
L 28.447361 -2.470909 
L 27.67643 -2.470909 
L 26.905499 -2.470909 
L 26.134568 -2.470909 
L 25.363636 -2.470909 
z
" style="stroke: #8a8a8a; stroke-opacity: 0.2"/>
    </defs>
    <g clip-path="url(#pe969726c9f)">
     <use xlink:href="#m610e895a1a" x="0" y="54.36" style="fill: #8a8a8a; fill-opacity: 0.2; stroke: #8a8a8a; stroke-opacity: 0.2"/>
    </g>
   </g>
   <g id="line2d_1">
    <path d="M 254.330202 50.635811 
L 261.268582 50.129761 
L 268.977894 49.326163 
L 278.229069 48.133769 
L 285.938381 46.917101 
L 292.876762 45.597711 
L 302.898867 43.4446 
L 309.837248 41.767088 
L 314.462835 40.420703 
L 319.088422 38.828025 
L 325.255872 36.420247 
L 334.507046 32.808742 
L 344.529152 29.20552 
L 354.551257 25.58385 
L 366.886156 20.911456 
L 369.969881 20.09396 
L 373.053606 19.527061 
L 376.137331 19.182586 
L 381.533849 18.876813 
L 395.410611 18.317315 
L 399.265267 18.47582 
L 405.432716 19.006575 
L 413.142028 19.870741 
L 416.996684 20.531162 
L 420.080409 21.269271 
L 423.935065 22.46584 
L 430.102515 24.731949 
L 436.269964 26.918388 
L 444.750207 29.617764 
L 453.23045 32.130984 
L 464.023487 35.221631 
L 468.649074 36.849822 
L 480.213042 41.160213 
L 484.067698 42.290523 
L 489.464217 43.621293 
L 501.799116 46.355293 
L 507.966565 47.494982 
L 514.904946 48.516346 
L 524.15612 49.633225 
L 531.865432 50.364097 
L 532.636364 50.42475 
L 532.636364 50.42475 
" clip-path="url(#pe969726c9f)" style="fill: none; stroke: #cf1313; stroke-width: 1.5; stroke-linecap: square"/>
   </g>
   <g id="line2d_2">
    <path d="M 151.796353 50.59487 
L 169.52777 49.78036 
L 178.008013 49.146629 
L 184.175463 48.49588 
L 190.342912 47.610596 
L 198.823156 46.118212 
L 211.158055 43.749811 
L 220.409229 41.709316 
L 231.973197 38.956071 
L 238.140647 37.270945 
L 243.537165 35.543433 
L 248.933683 33.552588 
L 265.123238 27.283346 
L 269.748826 25.877488 
L 278.229069 23.616146 
L 290.563968 20.469901 
L 294.418624 19.742685 
L 298.27328 19.252574 
L 302.127936 18.994957 
L 306.753523 18.912777 
L 312.920973 19.027151 
L 318.317491 19.347852 
L 322.943078 19.884664 
L 328.339597 20.791857 
L 336.81984 22.252461 
L 353.009395 24.706345 
L 357.634982 25.731743 
L 362.260569 26.974731 
L 367.657088 28.679831 
L 376.137331 31.658094 
L 390.014092 36.517686 
L 396.181542 38.437914 
L 402.348991 40.108789 
L 419.309478 44.327605 
L 424.705996 45.398863 
L 430.102515 46.226344 
L 455.543244 49.544204 
L 461.710694 50.091389 
L 469.420006 50.515395 
L 470.190937 50.550131 
L 470.190937 50.550131 
" clip-path="url(#pe969726c9f)" style="fill: none; stroke: #116dc2; stroke-width: 1.5; stroke-linecap: square"/>
   </g>
   <g id="line2d_3">
    <path d="M 25.363636 49.928262 
L 26.134568 49.491989 
L 26.905499 48.901596 
L 27.67643 48.027813 
L 28.447361 46.822633 
L 29.218292 45.401378 
L 29.989224 43.918716 
L 30.760155 42.416647 
L 31.531086 40.850186 
L 32.302017 39.193863 
L 33.072948 37.437565 
L 33.84388 35.507396 
L 34.614811 33.301424 
L 35.385742 30.754059 
L 36.156673 27.788616 
L 36.927604 24.385039 
L 37.698536 20.754569 
L 38.469467 17.27027 
L 39.240398 14.228382 
L 40.011329 11.729089 
L 40.78226 9.698864 
L 41.553191 7.965634 
L 42.324123 6.315116 
L 43.095054 4.631264 
L 43.865985 3.19724 
L 44.636916 2.585025 
L 45.407847 2.812487 
L 46.178779 3.042997 
L 46.94971 2.717039 
L 47.720641 2.470909 
L 48.491572 3.355486 
L 49.262503 5.596384 
L 50.033435 8.529276 
L 50.804366 11.428459 
L 51.575297 14.063977 
L 52.346228 16.583326 
L 53.117159 19.146576 
L 53.888091 21.761266 
L 54.659022 24.379432 
L 55.429953 26.999841 
L 56.200884 29.636996 
L 56.971815 32.282113 
L 57.742747 34.893299 
L 58.513678 37.409092 
L 59.284609 39.781303 
L 60.05554 41.93229 
L 60.826471 43.747758 
L 61.597403 45.217636 
L 62.368334 46.468645 
L 63.139265 47.582909 
L 63.910196 48.513588 
L 64.681127 49.224951 
" clip-path="url(#pe969726c9f)" style="fill: none; stroke: #8a8a8a; stroke-width: 1.5; stroke-linecap: square"/>
   </g>
  </g>
 </g>
 <defs>
  <clipPath id="pe969726c9f">
   <rect x="0" y="-0" width="558" height="54.36"/>
  </clipPath>
 </defs>
</svg>
