<?xml version="1.0" encoding="utf-8" standalone="no"?>
<!DOCTYPE svg PUBLIC "-//W3C//DTD SVG 1.1//EN"
  "http://www.w3.org/Graphics/SVG/1.1/DTD/svg11.dtd">
<svg xmlns:xlink="http://www.w3.org/1999/xlink" width="558pt" height="54.36pt" viewBox="0 0 558 54.36" xmlns="http://www.w3.org/2000/svg" version="1.1">
 <metadata>
  <rdf:RDF xmlns:dc="http://purl.org/dc/elements/1.1/" xmlns:cc="http://creativecommons.org/ns#" xmlns:rdf="http://www.w3.org/1999/02/22-rdf-syntax-ns#">
   <cc:Work>
    <dc:type rdf:resource="http://purl.org/dc/dcmitype/StillImage"/>
    <dc:date>2024-09-14T12:46:51.194565</dc:date>
    <dc:format>image/svg+xml</dc:format>
    <dc:creator>
     <cc:Agent>
      <dc:title>Matplotlib v3.5.2, https://matplotlib.org/</dc:title>
     </cc:Agent>
    </dc:creator>
   </cc:Work>
  </rdf:RDF>
 </metadata>
 <defs>
  <style type="text/css">*{stroke-linejoin: round; stroke-linecap: butt}</style>
 </defs>
 <g id="figure_1">
  <g id="patch_1">
   <path d="M 0 54.36 
L 558 54.36 
L 558 0 
L 0 0 
L 0 54.36 
z
" style="fill: none; opacity: 0"/>
  </g>
  <g id="axes_1">
   <g id="PolyCollection_1">
    <defs>
     <path id="mef0a9fc110" d="M 323.55774 -2.470909 
L 323.55774 -4.388364 
L 324.243243 -4.481435 
L 324.928747 -4.574078 
L 325.614251 -4.665872 
L 326.299754 -4.756496 
L 326.985258 -4.845743 
L 327.670762 -4.933531 
L 328.356265 -5.019905 
L 329.041769 -5.105035 
L 329.727273 -5.189207 
L 330.412776 -5.272802 
L 331.09828 -5.356284 
L 331.783784 -5.440168 
L 332.469287 -5.524998 
L 333.154791 -5.611321 
L 333.840295 -5.699668 
L 334.525799 -5.790528 
L 335.211302 -5.884344 
L 335.896806 -5.981497 
L 336.58231 -6.082316 
L 337.267813 -6.187076 
L 337.953317 -6.296016 
L 338.638821 -6.409351 
L 339.324324 -6.527296 
L 340.009828 -6.650084 
L 340.695332 -6.777985 
L 341.380835 -6.911319 
L 342.066339 -7.050471 
L 342.751843 -7.195889 
L 343.437346 -7.348084 
L 344.12285 -7.507617 
L 344.808354 -7.675078 
L 345.493857 -7.851062 
L 346.179361 -8.036133 
L 346.864865 -8.230793 
L 347.550369 -8.435442 
L 348.235872 -8.650338 
L 348.921376 -8.875572 
L 349.60688 -9.111031 
L 350.292383 -9.356386 
L 350.977887 -9.611079 
L 351.663391 -9.874322 
L 352.348894 -10.145116 
L 353.034398 -10.422274 
L 353.719902 -10.704461 
L 354.405405 -10.990239 
L 355.090909 -11.278129 
L 355.776413 -11.566673 
L 356.461916 -11.854501 
L 357.14742 -12.1404 
L 357.832924 -12.423372 
L 358.518428 -12.702696 
L 359.203931 -12.977969 
L 359.889435 -13.249132 
L 360.574939 -13.516492 
L 361.260442 -13.780707 
L 361.945946 -14.042767 
L 362.63145 -14.30395 
L 363.316953 -14.565761 
L 364.002457 -14.829859 
L 364.687961 -15.097973 
L 365.373464 -15.371814 
L 366.058968 -15.652981 
L 366.744472 -15.942882 
L 367.429975 -16.242658 
L 368.115479 -16.553122 
L 368.800983 -16.874718 
L 369.486486 -17.207503 
L 370.17199 -17.551143 
L 370.857494 -17.904938 
L 371.542998 -18.267863 
L 372.228501 -18.638622 
L 372.914005 -19.015717 
L 373.599509 -19.397524 
L 374.285012 -19.782373 
L 374.970516 -20.168616 
L 375.65602 -20.554698 
L 376.341523 -20.939215 
L 377.027027 -21.320953 
L 377.712531 -21.69892 
L 378.398034 -22.072359 
L 379.083538 -22.440748 
L 379.769042 -22.803791 
L 380.454545 -23.161394 
L 381.140049 -23.513645 
L 381.825553 -23.860776 
L 382.511057 -24.203139 
L 383.19656 -24.541175 
L 383.882064 -24.875388 
L 384.567568 -25.206327 
L 385.253071 -25.534565 
L 385.938575 -25.860696 
L 386.624079 -26.18532 
L 387.309582 -26.509043 
L 387.995086 -26.832473 
L 388.68059 -27.156217 
L 389.366093 -27.480875 
L 390.051597 -27.807039 
L 390.737101 -28.135278 
L 391.422604 -28.466134 
L 392.108108 -28.800102 
L 392.793612 -29.137615 
L 393.479115 -29.479027 
L 394.164619 -29.824596 
L 394.850123 -30.174459 
L 395.535627 -30.52862 
L 396.22113 -30.886936 
L 396.906634 -31.249098 
L 397.592138 -31.614634 
L 398.277641 -31.982899 
L 398.963145 -32.353087 
L 399.648649 -32.724236 
L 400.334152 -33.095251 
L 401.019656 -33.464927 
L 401.70516 -33.83198 
L 402.390663 -34.19508 
L 403.076167 -34.552894 
L 403.761671 -34.904124 
L 404.447174 -35.247548 
L 405.132678 -35.582056 
L 405.818182 -35.906683 
L 406.503686 -36.220635 
L 407.189189 -36.523306 
L 407.874693 -36.814286 
L 408.560197 -37.093359 
L 409.2457 -37.360488 
L 409.931204 -37.615801 
L 410.616708 -37.859552 
L 411.302211 -38.092095 
L 411.987715 -38.313837 
L 412.673219 -38.525204 
L 413.358722 -38.7266 
L 414.044226 -38.918368 
L 414.72973 -39.100766 
L 415.415233 -39.273941 
L 416.100737 -39.437913 
L 416.786241 -39.592576 
L 417.471744 -39.737696 
L 418.157248 -39.872927 
L 418.842752 -39.997824 
L 419.528256 -40.111873 
L 420.213759 -40.21451 
L 420.899263 -40.305153 
L 421.584767 -40.383224 
L 422.27027 -40.448173 
L 422.955774 -40.499495 
L 423.641278 -40.536747 
L 424.326781 -40.559553 
L 425.012285 -40.567619 
L 425.697789 -40.560731 
L 426.383292 -40.538761 
L 427.068796 -40.501675 
L 427.7543 -40.449537 
L 428.439803 -40.382523 
L 429.125307 -40.300925 
L 429.810811 -40.205173 
L 430.496314 -40.095841 
L 431.181818 -39.973656 
L 431.867322 -39.839505 
L 432.552826 -39.694426 
L 433.238329 -39.539591 
L 433.923833 -39.376281 
L 434.609337 -39.205839 
L 435.29484 -39.029627 
L 435.980344 -38.848956 
L 436.665848 -38.665026 
L 437.351351 -38.478858 
L 438.036855 -38.291238 
L 438.722359 -38.10266 
L 439.407862 -37.913295 
L 440.093366 -37.722976 
L 440.77887 -37.531199 
L 441.464373 -37.337151 
L 442.149877 -37.139757 
L 442.835381 -36.937747 
L 443.520885 -36.729729 
L 444.206388 -36.514283 
L 444.891892 -36.290045 
L 445.577396 -36.055795 
L 446.262899 -35.810533 
L 446.948403 -35.553543 
L 447.633907 -35.284433 
L 448.31941 -35.00316 
L 449.004914 -34.710032 
L 449.690418 -34.405683 
L 450.375921 -34.091037 
L 451.061425 -33.767247 
L 451.746929 -33.435629 
L 452.432432 -33.097581 
L 453.117936 -32.754506 
L 453.80344 -32.407731 
L 454.488943 -32.058441 
L 455.174447 -31.707618 
L 455.859951 -31.355996 
L 456.545455 -31.004034 
L 457.230958 -30.651907 
L 457.916462 -30.299512 
L 458.601966 -29.946493 
L 459.287469 -29.592279 
L 459.972973 -29.236133 
L 460.658477 -28.877211 
L 461.34398 -28.514628 
L 462.029484 -28.14752 
L 462.714988 -27.775107 
L 463.400491 -27.396756 
L 464.085995 -27.012029 
L 464.771499 -26.620729 
L 465.457002 -26.222931 
L 466.142506 -25.819001 
L 466.82801 -25.409608 
L 467.513514 -24.995713 
L 468.199017 -24.578555 
L 468.884521 -24.159618 
L 469.570025 -23.740588 
L 470.255528 -23.3233 
L 470.941032 -22.909671 
L 471.626536 -22.501634 
L 472.312039 -22.101064 
L 472.997543 -21.709696 
L 473.683047 -21.329061 
L 474.36855 -20.960413 
L 475.054054 -20.604676 
L 475.739558 -20.262397 
L 476.425061 -19.933727 
L 477.110565 -19.618408 
L 477.796069 -19.31579 
L 478.481572 -19.024865 
L 479.167076 -18.744318 
L 479.85258 -18.472594 
L 480.538084 -18.207986 
L 481.223587 -17.948715 
L 481.909091 -17.693022 
L 482.594595 -17.439257 
L 483.280098 -17.18595 
L 483.965602 -16.931875 
L 484.651106 -16.676094 
L 485.336609 -16.417976 
L 486.022113 -16.157205 
L 486.707617 -15.893757 
L 487.39312 -15.627867 
L 488.078624 -15.359982 
L 488.764128 -15.0907 
L 489.449631 -14.820712 
L 490.135135 -14.55074 
L 490.820639 -14.281486 
L 491.506143 -14.013588 
L 492.191646 -13.747589 
L 492.87715 -13.483918 
L 493.562654 -13.22289 
L 494.248157 -12.964709 
L 494.933661 -12.709487 
L 495.619165 -12.45727 
L 496.304668 -12.208058 
L 496.990172 -11.961833 
L 497.675676 -11.718577 
L 498.361179 -11.47829 
L 499.046683 -11.240998 
L 499.732187 -11.006749 
L 500.41769 -10.77561 
L 501.103194 -10.547659 
L 501.788698 -10.322965 
L 502.474201 -10.101579 
L 503.159705 -9.883523 
L 503.845209 -9.668777 
L 504.530713 -9.457284 
L 505.216216 -9.248947 
L 505.90172 -9.043645 
L 506.587224 -8.841245 
L 507.272727 -8.641625 
L 507.958231 -8.444694 
L 508.643735 -8.250415 
L 509.329238 -8.058823 
L 510.014742 -7.870045 
L 510.700246 -7.684303 
L 511.385749 -7.50192 
L 512.071253 -7.323313 
L 512.756757 -7.148974 
L 513.44226 -6.979456 
L 514.127764 -6.815335 
L 514.813268 -6.657184 
L 515.498771 -6.505533 
L 516.184275 -6.360837 
L 516.869779 -6.22344 
L 517.555283 -6.093546 
L 518.240786 -5.971201 
L 518.92629 -5.856276 
L 519.611794 -5.748468 
L 520.297297 -5.647303 
L 520.982801 -5.552154 
L 521.668305 -5.46227 
L 522.353808 -5.376806 
L 523.039312 -5.294867 
L 523.724816 -5.215548 
L 524.410319 -5.137982 
L 525.095823 -5.061378 
L 525.781327 -4.98506 
L 526.46683 -4.908497 
L 527.152334 -4.831323 
L 527.837838 -4.75335 
L 528.523342 -4.674565 
L 529.208845 -4.595124 
L 529.894349 -4.515324 
L 530.579853 -4.435582 
L 531.265356 -4.356395 
L 531.95086 -4.278307 
L 532.636364 -4.201863 
L 532.636364 -2.470909 
L 532.636364 -2.470909 
L 531.95086 -2.470909 
L 531.265356 -2.470909 
L 530.579853 -2.470909 
L 529.894349 -2.470909 
L 529.208845 -2.470909 
L 528.523342 -2.470909 
L 527.837838 -2.470909 
L 527.152334 -2.470909 
L 526.46683 -2.470909 
L 525.781327 -2.470909 
L 525.095823 -2.470909 
L 524.410319 -2.470909 
L 523.724816 -2.470909 
L 523.039312 -2.470909 
L 522.353808 -2.470909 
L 521.668305 -2.470909 
L 520.982801 -2.470909 
L 520.297297 -2.470909 
L 519.611794 -2.470909 
L 518.92629 -2.470909 
L 518.240786 -2.470909 
L 517.555283 -2.470909 
L 516.869779 -2.470909 
L 516.184275 -2.470909 
L 515.498771 -2.470909 
L 514.813268 -2.470909 
L 514.127764 -2.470909 
L 513.44226 -2.470909 
L 512.756757 -2.470909 
L 512.071253 -2.470909 
L 511.385749 -2.470909 
L 510.700246 -2.470909 
L 510.014742 -2.470909 
L 509.329238 -2.470909 
L 508.643735 -2.470909 
L 507.958231 -2.470909 
L 507.272727 -2.470909 
L 506.587224 -2.470909 
L 505.90172 -2.470909 
L 505.216216 -2.470909 
L 504.530713 -2.470909 
L 503.845209 -2.470909 
L 503.159705 -2.470909 
L 502.474201 -2.470909 
L 501.788698 -2.470909 
L 501.103194 -2.470909 
L 500.41769 -2.470909 
L 499.732187 -2.470909 
L 499.046683 -2.470909 
L 498.361179 -2.470909 
L 497.675676 -2.470909 
L 496.990172 -2.470909 
L 496.304668 -2.470909 
L 495.619165 -2.470909 
L 494.933661 -2.470909 
L 494.248157 -2.470909 
L 493.562654 -2.470909 
L 492.87715 -2.470909 
L 492.191646 -2.470909 
L 491.506143 -2.470909 
L 490.820639 -2.470909 
L 490.135135 -2.470909 
L 489.449631 -2.470909 
L 488.764128 -2.470909 
L 488.078624 -2.470909 
L 487.39312 -2.470909 
L 486.707617 -2.470909 
L 486.022113 -2.470909 
L 485.336609 -2.470909 
L 484.651106 -2.470909 
L 483.965602 -2.470909 
L 483.280098 -2.470909 
L 482.594595 -2.470909 
L 481.909091 -2.470909 
L 481.223587 -2.470909 
L 480.538084 -2.470909 
L 479.85258 -2.470909 
L 479.167076 -2.470909 
L 478.481572 -2.470909 
L 477.796069 -2.470909 
L 477.110565 -2.470909 
L 476.425061 -2.470909 
L 475.739558 -2.470909 
L 475.054054 -2.470909 
L 474.36855 -2.470909 
L 473.683047 -2.470909 
L 472.997543 -2.470909 
L 472.312039 -2.470909 
L 471.626536 -2.470909 
L 470.941032 -2.470909 
L 470.255528 -2.470909 
L 469.570025 -2.470909 
L 468.884521 -2.470909 
L 468.199017 -2.470909 
L 467.513514 -2.470909 
L 466.82801 -2.470909 
L 466.142506 -2.470909 
L 465.457002 -2.470909 
L 464.771499 -2.470909 
L 464.085995 -2.470909 
L 463.400491 -2.470909 
L 462.714988 -2.470909 
L 462.029484 -2.470909 
L 461.34398 -2.470909 
L 460.658477 -2.470909 
L 459.972973 -2.470909 
L 459.287469 -2.470909 
L 458.601966 -2.470909 
L 457.916462 -2.470909 
L 457.230958 -2.470909 
L 456.545455 -2.470909 
L 455.859951 -2.470909 
L 455.174447 -2.470909 
L 454.488943 -2.470909 
L 453.80344 -2.470909 
L 453.117936 -2.470909 
L 452.432432 -2.470909 
L 451.746929 -2.470909 
L 451.061425 -2.470909 
L 450.375921 -2.470909 
L 449.690418 -2.470909 
L 449.004914 -2.470909 
L 448.31941 -2.470909 
L 447.633907 -2.470909 
L 446.948403 -2.470909 
L 446.262899 -2.470909 
L 445.577396 -2.470909 
L 444.891892 -2.470909 
L 444.206388 -2.470909 
L 443.520885 -2.470909 
L 442.835381 -2.470909 
L 442.149877 -2.470909 
L 441.464373 -2.470909 
L 440.77887 -2.470909 
L 440.093366 -2.470909 
L 439.407862 -2.470909 
L 438.722359 -2.470909 
L 438.036855 -2.470909 
L 437.351351 -2.470909 
L 436.665848 -2.470909 
L 435.980344 -2.470909 
L 435.29484 -2.470909 
L 434.609337 -2.470909 
L 433.923833 -2.470909 
L 433.238329 -2.470909 
L 432.552826 -2.470909 
L 431.867322 -2.470909 
L 431.181818 -2.470909 
L 430.496314 -2.470909 
L 429.810811 -2.470909 
L 429.125307 -2.470909 
L 428.439803 -2.470909 
L 427.7543 -2.470909 
L 427.068796 -2.470909 
L 426.383292 -2.470909 
L 425.697789 -2.470909 
L 425.012285 -2.470909 
L 424.326781 -2.470909 
L 423.641278 -2.470909 
L 422.955774 -2.470909 
L 422.27027 -2.470909 
L 421.584767 -2.470909 
L 420.899263 -2.470909 
L 420.213759 -2.470909 
L 419.528256 -2.470909 
L 418.842752 -2.470909 
L 418.157248 -2.470909 
L 417.471744 -2.470909 
L 416.786241 -2.470909 
L 416.100737 -2.470909 
L 415.415233 -2.470909 
L 414.72973 -2.470909 
L 414.044226 -2.470909 
L 413.358722 -2.470909 
L 412.673219 -2.470909 
L 411.987715 -2.470909 
L 411.302211 -2.470909 
L 410.616708 -2.470909 
L 409.931204 -2.470909 
L 409.2457 -2.470909 
L 408.560197 -2.470909 
L 407.874693 -2.470909 
L 407.189189 -2.470909 
L 406.503686 -2.470909 
L 405.818182 -2.470909 
L 405.132678 -2.470909 
L 404.447174 -2.470909 
L 403.761671 -2.470909 
L 403.076167 -2.470909 
L 402.390663 -2.470909 
L 401.70516 -2.470909 
L 401.019656 -2.470909 
L 400.334152 -2.470909 
L 399.648649 -2.470909 
L 398.963145 -2.470909 
L 398.277641 -2.470909 
L 397.592138 -2.470909 
L 396.906634 -2.470909 
L 396.22113 -2.470909 
L 395.535627 -2.470909 
L 394.850123 -2.470909 
L 394.164619 -2.470909 
L 393.479115 -2.470909 
L 392.793612 -2.470909 
L 392.108108 -2.470909 
L 391.422604 -2.470909 
L 390.737101 -2.470909 
L 390.051597 -2.470909 
L 389.366093 -2.470909 
L 388.68059 -2.470909 
L 387.995086 -2.470909 
L 387.309582 -2.470909 
L 386.624079 -2.470909 
L 385.938575 -2.470909 
L 385.253071 -2.470909 
L 384.567568 -2.470909 
L 383.882064 -2.470909 
L 383.19656 -2.470909 
L 382.511057 -2.470909 
L 381.825553 -2.470909 
L 381.140049 -2.470909 
L 380.454545 -2.470909 
L 379.769042 -2.470909 
L 379.083538 -2.470909 
L 378.398034 -2.470909 
L 377.712531 -2.470909 
L 377.027027 -2.470909 
L 376.341523 -2.470909 
L 375.65602 -2.470909 
L 374.970516 -2.470909 
L 374.285012 -2.470909 
L 373.599509 -2.470909 
L 372.914005 -2.470909 
L 372.228501 -2.470909 
L 371.542998 -2.470909 
L 370.857494 -2.470909 
L 370.17199 -2.470909 
L 369.486486 -2.470909 
L 368.800983 -2.470909 
L 368.115479 -2.470909 
L 367.429975 -2.470909 
L 366.744472 -2.470909 
L 366.058968 -2.470909 
L 365.373464 -2.470909 
L 364.687961 -2.470909 
L 364.002457 -2.470909 
L 363.316953 -2.470909 
L 362.63145 -2.470909 
L 361.945946 -2.470909 
L 361.260442 -2.470909 
L 360.574939 -2.470909 
L 359.889435 -2.470909 
L 359.203931 -2.470909 
L 358.518428 -2.470909 
L 357.832924 -2.470909 
L 357.14742 -2.470909 
L 356.461916 -2.470909 
L 355.776413 -2.470909 
L 355.090909 -2.470909 
L 354.405405 -2.470909 
L 353.719902 -2.470909 
L 353.034398 -2.470909 
L 352.348894 -2.470909 
L 351.663391 -2.470909 
L 350.977887 -2.470909 
L 350.292383 -2.470909 
L 349.60688 -2.470909 
L 348.921376 -2.470909 
L 348.235872 -2.470909 
L 347.550369 -2.470909 
L 346.864865 -2.470909 
L 346.179361 -2.470909 
L 345.493857 -2.470909 
L 344.808354 -2.470909 
L 344.12285 -2.470909 
L 343.437346 -2.470909 
L 342.751843 -2.470909 
L 342.066339 -2.470909 
L 341.380835 -2.470909 
L 340.695332 -2.470909 
L 340.009828 -2.470909 
L 339.324324 -2.470909 
L 338.638821 -2.470909 
L 337.953317 -2.470909 
L 337.267813 -2.470909 
L 336.58231 -2.470909 
L 335.896806 -2.470909 
L 335.211302 -2.470909 
L 334.525799 -2.470909 
L 333.840295 -2.470909 
L 333.154791 -2.470909 
L 332.469287 -2.470909 
L 331.783784 -2.470909 
L 331.09828 -2.470909 
L 330.412776 -2.470909 
L 329.727273 -2.470909 
L 329.041769 -2.470909 
L 328.356265 -2.470909 
L 327.670762 -2.470909 
L 326.985258 -2.470909 
L 326.299754 -2.470909 
L 325.614251 -2.470909 
L 324.928747 -2.470909 
L 324.243243 -2.470909 
L 323.55774 -2.470909 
z
" style="stroke: #cf1313; stroke-opacity: 0.2"/>
    </defs>
    <g clip-path="url(#pff4dc586b2)">
     <use xlink:href="#mef0a9fc110" x="0" y="54.36" style="fill: #cf1313; fill-opacity: 0.2; stroke: #cf1313; stroke-opacity: 0.2"/>
    </g>
   </g>
   <g id="PolyCollection_2">
    <defs>
     <path id="mcf3e1c81b5" d="M 124.076167 -2.470909 
L 124.076167 -4.346004 
L 124.761671 -4.486339 
L 125.447174 -4.630188 
L 126.132678 -4.777409 
L 126.818182 -4.928014 
L 127.503686 -5.082187 
L 128.189189 -5.240295 
L 128.874693 -5.402902 
L 129.560197 -5.570755 
L 130.2457 -5.744761 
L 130.931204 -5.925929 
L 131.616708 -6.115288 
L 132.302211 -6.313779 
L 132.987715 -6.522136 
L 133.673219 -6.740757 
L 134.358722 -6.969609 
L 135.044226 -7.208181 
L 135.72973 -7.455512 
L 136.415233 -7.71033 
L 137.100737 -7.971287 
L 137.786241 -8.237273 
L 138.471744 -8.507777 
L 139.157248 -8.783193 
L 139.842752 -9.065019 
L 140.528256 -9.355861 
L 141.213759 -9.659214 
L 141.899263 -9.979009 
L 142.584767 -10.319 
L 143.27027 -10.682087 
L 143.955774 -11.069704 
L 144.641278 -11.481423 
L 145.326781 -11.914866 
L 146.012285 -12.365974 
L 146.697789 -12.829627 
L 147.383292 -13.300509 
L 148.068796 -13.774069 
L 148.7543 -14.247395 
L 149.439803 -14.719837 
L 150.125307 -15.193224 
L 150.810811 -15.67164 
L 151.496314 -16.160769 
L 152.181818 -16.666935 
L 152.867322 -17.196014 
L 153.552826 -17.752425 
L 154.238329 -18.338393 
L 154.923833 -18.953624 
L 155.609337 -19.595432 
L 156.29484 -20.259276 
L 156.980344 -20.939558 
L 157.665848 -21.630517 
L 158.351351 -22.327003 
L 159.036855 -23.024996 
L 159.722359 -23.721776 
L 160.407862 -24.415758 
L 161.093366 -25.106085 
L 161.77887 -25.792123 
L 162.464373 -26.473005 
L 163.149877 -27.147375 
L 163.835381 -27.81338 
L 164.520885 -28.468917 
L 165.206388 -29.112038 
L 165.891892 -29.741394 
L 166.577396 -30.35658 
L 167.262899 -30.958246 
L 167.948403 -31.547951 
L 168.633907 -32.127755 
L 169.31941 -32.699651 
L 170.004914 -33.264974 
L 170.690418 -33.823926 
L 171.375921 -34.375339 
L 172.061425 -34.91674 
L 172.746929 -35.444707 
L 173.432432 -35.95544 
L 174.117936 -36.44545 
L 174.80344 -36.912212 
L 175.488943 -37.354687 
L 176.174447 -37.773643 
L 176.859951 -38.171714 
L 177.545455 -38.553234 
L 178.230958 -38.923861 
L 178.916462 -39.290032 
L 179.601966 -39.658307 
L 180.287469 -40.034632 
L 180.972973 -40.423589 
L 181.658477 -40.827673 
L 182.34398 -41.246699 
L 183.029484 -41.677406 
L 183.714988 -42.113351 
L 184.400491 -42.545156 
L 185.085995 -42.961124 
L 185.771499 -43.348178 
L 186.457002 -43.693033 
L 187.142506 -43.983437 
L 187.82801 -44.209316 
L 188.513514 -44.363663 
L 189.199017 -44.443035 
L 189.884521 -44.447612 
L 190.570025 -44.380828 
L 191.255528 -44.248672 
L 191.941032 -44.058798 
L 192.626536 -43.819591 
L 193.312039 -43.539353 
L 193.997543 -43.225695 
L 194.683047 -42.885173 
L 195.36855 -42.523156 
L 196.054054 -42.143854 
L 196.739558 -41.75043 
L 197.425061 -41.345119 
L 198.110565 -40.929297 
L 198.796069 -40.503526 
L 199.481572 -40.067565 
L 200.167076 -39.620424 
L 200.85258 -39.160493 
L 201.538084 -38.685759 
L 202.223587 -38.194133 
L 202.909091 -37.683817 
L 203.594595 -37.153681 
L 204.280098 -36.603558 
L 204.965602 -36.034431 
L 205.651106 -35.448458 
L 206.336609 -34.84883 
L 207.022113 -34.239499 
L 207.707617 -33.624798 
L 208.39312 -33.009023 
L 209.078624 -32.396027 
L 209.764128 -31.788878 
L 210.449631 -31.189624 
L 211.135135 -30.599181 
L 211.820639 -30.017347 
L 212.506143 -29.442925 
L 213.191646 -28.873932 
L 213.87715 -28.307844 
L 214.562654 -27.741863 
L 215.248157 -27.173155 
L 215.933661 -26.599062 
L 216.619165 -26.017276 
L 217.304668 -25.425967 
L 217.990172 -24.8239 
L 218.675676 -24.210525 
L 219.361179 -23.586053 
L 220.046683 -22.951523 
L 220.732187 -22.308839 
L 221.41769 -21.660776 
L 222.103194 -21.01093 
L 222.788698 -20.363605 
L 223.474201 -19.723628 
L 224.159705 -19.096083 
L 224.845209 -18.48598 
L 225.530713 -17.89787 
L 226.216216 -17.335464 
L 226.90172 -16.801273 
L 227.587224 -16.296363 
L 228.272727 -15.820239 
L 228.958231 -15.370922 
L 229.643735 -14.9452 
L 230.329238 -14.53904 
L 231.014742 -14.148075 
L 231.700246 -13.768115 
L 232.385749 -13.395561 
L 233.071253 -13.027678 
L 233.756757 -12.662681 
L 234.44226 -12.299646 
L 235.127764 -11.9383 
L 235.813268 -11.578746 
L 236.498771 -11.221221 
L 237.184275 -10.865948 
L 237.869779 -10.513093 
L 238.555283 -10.162854 
L 239.240786 -9.815606 
L 239.92629 -9.47206 
L 240.611794 -9.13337 
L 241.297297 -8.801128 
L 241.982801 -8.477244 
L 242.668305 -8.16372 
L 243.353808 -7.862369 
L 244.039312 -7.574542 
L 244.724816 -7.300917 
L 245.410319 -7.041411 
L 246.095823 -6.795217 
L 246.781327 -6.560963 
L 247.46683 -6.33696 
L 248.152334 -6.121483 
L 248.837838 -5.913034 
L 249.523342 -5.710552 
L 250.208845 -5.51352 
L 250.894349 -5.321987 
L 251.579853 -5.136492 
L 252.265356 -4.957915 
L 252.95086 -4.787288 
L 253.636364 -4.625594 
L 254.321867 -4.473584 
L 255.007371 -4.331643 
L 255.692875 -4.199712 
L 255.692875 -2.470909 
L 255.692875 -2.470909 
L 255.007371 -2.470909 
L 254.321867 -2.470909 
L 253.636364 -2.470909 
L 252.95086 -2.470909 
L 252.265356 -2.470909 
L 251.579853 -2.470909 
L 250.894349 -2.470909 
L 250.208845 -2.470909 
L 249.523342 -2.470909 
L 248.837838 -2.470909 
L 248.152334 -2.470909 
L 247.46683 -2.470909 
L 246.781327 -2.470909 
L 246.095823 -2.470909 
L 245.410319 -2.470909 
L 244.724816 -2.470909 
L 244.039312 -2.470909 
L 243.353808 -2.470909 
L 242.668305 -2.470909 
L 241.982801 -2.470909 
L 241.297297 -2.470909 
L 240.611794 -2.470909 
L 239.92629 -2.470909 
L 239.240786 -2.470909 
L 238.555283 -2.470909 
L 237.869779 -2.470909 
L 237.184275 -2.470909 
L 236.498771 -2.470909 
L 235.813268 -2.470909 
L 235.127764 -2.470909 
L 234.44226 -2.470909 
L 233.756757 -2.470909 
L 233.071253 -2.470909 
L 232.385749 -2.470909 
L 231.700246 -2.470909 
L 231.014742 -2.470909 
L 230.329238 -2.470909 
L 229.643735 -2.470909 
L 228.958231 -2.470909 
L 228.272727 -2.470909 
L 227.587224 -2.470909 
L 226.90172 -2.470909 
L 226.216216 -2.470909 
L 225.530713 -2.470909 
L 224.845209 -2.470909 
L 224.159705 -2.470909 
L 223.474201 -2.470909 
L 222.788698 -2.470909 
L 222.103194 -2.470909 
L 221.41769 -2.470909 
L 220.732187 -2.470909 
L 220.046683 -2.470909 
L 219.361179 -2.470909 
L 218.675676 -2.470909 
L 217.990172 -2.470909 
L 217.304668 -2.470909 
L 216.619165 -2.470909 
L 215.933661 -2.470909 
L 215.248157 -2.470909 
L 214.562654 -2.470909 
L 213.87715 -2.470909 
L 213.191646 -2.470909 
L 212.506143 -2.470909 
L 211.820639 -2.470909 
L 211.135135 -2.470909 
L 210.449631 -2.470909 
L 209.764128 -2.470909 
L 209.078624 -2.470909 
L 208.39312 -2.470909 
L 207.707617 -2.470909 
L 207.022113 -2.470909 
L 206.336609 -2.470909 
L 205.651106 -2.470909 
L 204.965602 -2.470909 
L 204.280098 -2.470909 
L 203.594595 -2.470909 
L 202.909091 -2.470909 
L 202.223587 -2.470909 
L 201.538084 -2.470909 
L 200.85258 -2.470909 
L 200.167076 -2.470909 
L 199.481572 -2.470909 
L 198.796069 -2.470909 
L 198.110565 -2.470909 
L 197.425061 -2.470909 
L 196.739558 -2.470909 
L 196.054054 -2.470909 
L 195.36855 -2.470909 
L 194.683047 -2.470909 
L 193.997543 -2.470909 
L 193.312039 -2.470909 
L 192.626536 -2.470909 
L 191.941032 -2.470909 
L 191.255528 -2.470909 
L 190.570025 -2.470909 
L 189.884521 -2.470909 
L 189.199017 -2.470909 
L 188.513514 -2.470909 
L 187.82801 -2.470909 
L 187.142506 -2.470909 
L 186.457002 -2.470909 
L 185.771499 -2.470909 
L 185.085995 -2.470909 
L 184.400491 -2.470909 
L 183.714988 -2.470909 
L 183.029484 -2.470909 
L 182.34398 -2.470909 
L 181.658477 -2.470909 
L 180.972973 -2.470909 
L 180.287469 -2.470909 
L 179.601966 -2.470909 
L 178.916462 -2.470909 
L 178.230958 -2.470909 
L 177.545455 -2.470909 
L 176.859951 -2.470909 
L 176.174447 -2.470909 
L 175.488943 -2.470909 
L 174.80344 -2.470909 
L 174.117936 -2.470909 
L 173.432432 -2.470909 
L 172.746929 -2.470909 
L 172.061425 -2.470909 
L 171.375921 -2.470909 
L 170.690418 -2.470909 
L 170.004914 -2.470909 
L 169.31941 -2.470909 
L 168.633907 -2.470909 
L 167.948403 -2.470909 
L 167.262899 -2.470909 
L 166.577396 -2.470909 
L 165.891892 -2.470909 
L 165.206388 -2.470909 
L 164.520885 -2.470909 
L 163.835381 -2.470909 
L 163.149877 -2.470909 
L 162.464373 -2.470909 
L 161.77887 -2.470909 
L 161.093366 -2.470909 
L 160.407862 -2.470909 
L 159.722359 -2.470909 
L 159.036855 -2.470909 
L 158.351351 -2.470909 
L 157.665848 -2.470909 
L 156.980344 -2.470909 
L 156.29484 -2.470909 
L 155.609337 -2.470909 
L 154.923833 -2.470909 
L 154.238329 -2.470909 
L 153.552826 -2.470909 
L 152.867322 -2.470909 
L 152.181818 -2.470909 
L 151.496314 -2.470909 
L 150.810811 -2.470909 
L 150.125307 -2.470909 
L 149.439803 -2.470909 
L 148.7543 -2.470909 
L 148.068796 -2.470909 
L 147.383292 -2.470909 
L 146.697789 -2.470909 
L 146.012285 -2.470909 
L 145.326781 -2.470909 
L 144.641278 -2.470909 
L 143.955774 -2.470909 
L 143.27027 -2.470909 
L 142.584767 -2.470909 
L 141.899263 -2.470909 
L 141.213759 -2.470909 
L 140.528256 -2.470909 
L 139.842752 -2.470909 
L 139.157248 -2.470909 
L 138.471744 -2.470909 
L 137.786241 -2.470909 
L 137.100737 -2.470909 
L 136.415233 -2.470909 
L 135.72973 -2.470909 
L 135.044226 -2.470909 
L 134.358722 -2.470909 
L 133.673219 -2.470909 
L 132.987715 -2.470909 
L 132.302211 -2.470909 
L 131.616708 -2.470909 
L 130.931204 -2.470909 
L 130.2457 -2.470909 
L 129.560197 -2.470909 
L 128.874693 -2.470909 
L 128.189189 -2.470909 
L 127.503686 -2.470909 
L 126.818182 -2.470909 
L 126.132678 -2.470909 
L 125.447174 -2.470909 
L 124.761671 -2.470909 
L 124.076167 -2.470909 
z
" style="stroke: #116dc2; stroke-opacity: 0.2"/>
    </defs>
    <g clip-path="url(#pff4dc586b2)">
     <use xlink:href="#mcf3e1c81b5" x="0" y="54.36" style="fill: #116dc2; fill-opacity: 0.2; stroke: #116dc2; stroke-opacity: 0.2"/>
    </g>
   </g>
   <g id="PolyCollection_3">
    <defs>
     <path id="m64e113d0c3" d="M 25.363636 -2.470909 
L 25.363636 -4.748116 
L 26.04914 -5.089576 
L 26.734644 -5.463217 
L 27.420147 -5.891607 
L 28.105651 -6.395414 
L 28.791155 -6.985012 
L 29.476658 -7.656813 
L 30.162162 -8.395974 
L 30.847666 -9.186086 
L 31.53317 -10.024226 
L 32.218673 -10.932938 
L 32.904177 -11.95614 
L 33.589681 -13.134877 
L 34.275184 -14.477388 
L 34.960688 -15.947358 
L 35.646192 -17.482436 
L 36.331695 -19.031237 
L 37.017199 -20.580978 
L 37.702703 -22.154543 
L 38.388206 -23.782426 
L 39.07371 -25.477525 
L 39.759214 -27.233589 
L 40.444717 -29.038065 
L 41.130221 -30.874989 
L 41.815725 -32.713122 
L 42.501229 -34.50089 
L 43.186732 -36.185506 
L 43.872236 -37.743976 
L 44.55774 -39.197594 
L 45.243243 -40.596387 
L 45.928747 -41.98374 
L 46.614251 -43.361208 
L 47.299754 -44.673324 
L 47.985258 -45.828657 
L 48.670762 -46.755861 
L 49.356265 -47.462538 
L 50.041769 -48.049911 
L 50.727273 -48.661192 
L 51.412776 -49.390833 
L 52.09828 -50.217054 
L 52.783784 -51.009417 
L 53.469287 -51.605157 
L 54.154791 -51.889091 
L 54.840295 -51.816108 
L 55.525799 -51.38196 
L 56.211302 -50.596928 
L 56.896806 -49.491966 
L 57.58231 -48.133039 
L 58.267813 -46.6114 
L 58.953317 -45.015374 
L 59.638821 -43.411941 
L 60.324324 -41.846895 
L 61.009828 -40.347163 
L 61.695332 -38.91483 
L 62.380835 -37.52383 
L 63.066339 -36.130499 
L 63.751843 -34.689943 
L 64.437346 -33.164184 
L 65.12285 -31.523338 
L 65.808354 -29.751424 
L 66.493857 -27.859115 
L 67.179361 -25.892547 
L 67.864865 -23.926832 
L 68.550369 -22.042994 
L 69.235872 -20.29887 
L 69.921376 -18.711716 
L 70.60688 -17.264972 
L 71.292383 -15.933202 
L 71.977887 -14.703382 
L 72.663391 -13.575604 
L 73.348894 -12.547876 
L 74.034398 -11.604869 
L 74.719902 -10.723743 
L 75.405405 -9.890012 
L 76.090909 -9.105075 
L 76.776413 -8.376819 
L 77.461916 -7.704291 
L 78.14742 -7.073688 
L 78.832924 -6.469329 
L 79.518428 -5.887188 
L 80.203931 -5.337813 
L 80.889435 -4.837772 
L 80.889435 -2.470909 
L 80.889435 -2.470909 
L 80.203931 -2.470909 
L 79.518428 -2.470909 
L 78.832924 -2.470909 
L 78.14742 -2.470909 
L 77.461916 -2.470909 
L 76.776413 -2.470909 
L 76.090909 -2.470909 
L 75.405405 -2.470909 
L 74.719902 -2.470909 
L 74.034398 -2.470909 
L 73.348894 -2.470909 
L 72.663391 -2.470909 
L 71.977887 -2.470909 
L 71.292383 -2.470909 
L 70.60688 -2.470909 
L 69.921376 -2.470909 
L 69.235872 -2.470909 
L 68.550369 -2.470909 
L 67.864865 -2.470909 
L 67.179361 -2.470909 
L 66.493857 -2.470909 
L 65.808354 -2.470909 
L 65.12285 -2.470909 
L 64.437346 -2.470909 
L 63.751843 -2.470909 
L 63.066339 -2.470909 
L 62.380835 -2.470909 
L 61.695332 -2.470909 
L 61.009828 -2.470909 
L 60.324324 -2.470909 
L 59.638821 -2.470909 
L 58.953317 -2.470909 
L 58.267813 -2.470909 
L 57.58231 -2.470909 
L 56.896806 -2.470909 
L 56.211302 -2.470909 
L 55.525799 -2.470909 
L 54.840295 -2.470909 
L 54.154791 -2.470909 
L 53.469287 -2.470909 
L 52.783784 -2.470909 
L 52.09828 -2.470909 
L 51.412776 -2.470909 
L 50.727273 -2.470909 
L 50.041769 -2.470909 
L 49.356265 -2.470909 
L 48.670762 -2.470909 
L 47.985258 -2.470909 
L 47.299754 -2.470909 
L 46.614251 -2.470909 
L 45.928747 -2.470909 
L 45.243243 -2.470909 
L 44.55774 -2.470909 
L 43.872236 -2.470909 
L 43.186732 -2.470909 
L 42.501229 -2.470909 
L 41.815725 -2.470909 
L 41.130221 -2.470909 
L 40.444717 -2.470909 
L 39.759214 -2.470909 
L 39.07371 -2.470909 
L 38.388206 -2.470909 
L 37.702703 -2.470909 
L 37.017199 -2.470909 
L 36.331695 -2.470909 
L 35.646192 -2.470909 
L 34.960688 -2.470909 
L 34.275184 -2.470909 
L 33.589681 -2.470909 
L 32.904177 -2.470909 
L 32.218673 -2.470909 
L 31.53317 -2.470909 
L 30.847666 -2.470909 
L 30.162162 -2.470909 
L 29.476658 -2.470909 
L 28.791155 -2.470909 
L 28.105651 -2.470909 
L 27.420147 -2.470909 
L 26.734644 -2.470909 
L 26.04914 -2.470909 
L 25.363636 -2.470909 
z
" style="stroke: #8a8a8a; stroke-opacity: 0.2"/>
    </defs>
    <g clip-path="url(#pff4dc586b2)">
     <use xlink:href="#m64e113d0c3" x="0" y="54.36" style="fill: #8a8a8a; fill-opacity: 0.2; stroke: #8a8a8a; stroke-opacity: 0.2"/>
    </g>
   </g>
   <g id="line2d_1">
    <path d="M 323.55774 49.971636 
L 341.380835 47.448681 
L 345.493857 46.508938 
L 348.921376 45.484428 
L 352.348894 44.214884 
L 368.800983 37.485282 
L 372.228501 35.721378 
L 382.511057 30.156861 
L 390.051597 26.552961 
L 395.535627 23.83138 
L 407.189189 17.836694 
L 410.616708 16.500448 
L 414.044226 15.441632 
L 417.471744 14.622304 
L 420.899263 14.054847 
L 423.641278 13.823253 
L 426.383292 13.821239 
L 429.125307 14.059075 
L 431.867322 14.520495 
L 435.29484 15.330373 
L 442.835381 17.422253 
L 446.262899 18.549467 
L 449.004914 19.649968 
L 452.432432 21.262419 
L 461.34398 25.845372 
L 466.142506 28.540999 
L 475.054054 33.755324 
L 477.796069 35.04421 
L 481.223587 36.411285 
L 492.87715 40.876082 
L 499.046683 43.119002 
L 505.216216 45.111053 
L 511.385749 46.85808 
L 516.184275 47.999163 
L 520.297297 48.712697 
L 525.781327 49.37494 
L 532.636364 50.158137 
L 532.636364 50.158137 
" clip-path="url(#pff4dc586b2)" style="fill: none; stroke: #cf1313; stroke-width: 1.5; stroke-linecap: square"/>
   </g>
   <g id="line2d_2">
    <path d="M 124.076167 50.013996 
L 129.560197 48.789245 
L 132.987715 47.837864 
L 136.415233 46.64967 
L 140.528256 45.004139 
L 143.27027 43.677913 
L 145.326781 42.445134 
L 150.125307 39.166776 
L 152.867322 37.163986 
L 154.923833 35.406376 
L 157.665848 32.729483 
L 164.520885 25.891083 
L 167.948403 22.812049 
L 172.061425 19.44326 
L 174.80344 17.447788 
L 177.545455 15.806766 
L 182.34398 13.113301 
L 185.771499 11.011822 
L 187.142506 10.376563 
L 188.513514 9.996337 
L 189.884521 9.912388 
L 191.255528 10.111328 
L 192.626536 10.540409 
L 194.683047 11.474827 
L 197.425061 13.014881 
L 200.85258 15.199507 
L 203.594595 17.206319 
L 206.336609 19.51117 
L 213.191646 25.486068 
L 218.675676 30.149475 
L 226.90172 37.558727 
L 228.958231 38.989078 
L 231.700246 40.591885 
L 238.555283 44.197146 
L 242.668305 46.19628 
L 245.410319 47.318589 
L 248.837838 48.446966 
L 252.95086 49.572712 
L 255.692875 50.160288 
L 255.692875 50.160288 
" clip-path="url(#pff4dc586b2)" style="fill: none; stroke: #116dc2; stroke-width: 1.5; stroke-linecap: square"/>
   </g>
   <g id="line2d_3">
    <path d="M 25.363636 49.611884 
L 26.04914 49.270424 
L 26.734644 48.896783 
L 27.420147 48.468393 
L 28.105651 47.964586 
L 28.791155 47.374988 
L 29.476658 46.703187 
L 30.162162 45.964026 
L 30.847666 45.173914 
L 31.53317 44.335774 
L 32.218673 43.427062 
L 32.904177 42.40386 
L 33.589681 41.225123 
L 34.275184 39.882612 
L 34.960688 38.412642 
L 35.646192 36.877564 
L 36.331695 35.328763 
L 37.017199 33.779022 
L 37.702703 32.205457 
L 38.388206 30.577574 
L 39.07371 28.882475 
L 39.759214 27.126411 
L 40.444717 25.321935 
L 41.130221 23.485011 
L 41.815725 21.646878 
L 42.501229 19.85911 
L 43.186732 18.174494 
L 43.872236 16.616024 
L 44.55774 15.162406 
L 45.243243 13.763613 
L 45.928747 12.37626 
L 46.614251 10.998792 
L 47.299754 9.686676 
L 47.985258 8.531343 
L 48.670762 7.604139 
L 49.356265 6.897462 
L 50.041769 6.310089 
L 50.727273 5.698808 
L 51.412776 4.969167 
L 52.09828 4.142946 
L 52.783784 3.350583 
L 53.469287 2.754843 
L 54.154791 2.470909 
L 54.840295 2.543892 
L 55.525799 2.97804 
L 56.211302 3.763072 
L 56.896806 4.868034 
L 57.58231 6.226961 
L 58.267813 7.7486 
L 58.953317 9.344626 
L 59.638821 10.948059 
L 60.324324 12.513105 
L 61.009828 14.012837 
L 61.695332 15.44517 
L 62.380835 16.83617 
L 63.066339 18.229501 
L 63.751843 19.670057 
L 64.437346 21.195816 
L 65.12285 22.836662 
L 65.808354 24.608576 
L 66.493857 26.500885 
L 67.179361 28.467453 
L 67.864865 30.433168 
L 68.550369 32.317006 
L 69.235872 34.06113 
L 69.921376 35.648284 
L 70.60688 37.095028 
L 71.292383 38.426798 
L 71.977887 39.656618 
L 72.663391 40.784396 
L 73.348894 41.812124 
L 74.034398 42.755131 
L 74.719902 43.636257 
L 75.405405 44.469988 
L 76.090909 45.254925 
L 76.776413 45.983181 
L 77.461916 46.655709 
L 78.14742 47.286312 
L 78.832924 47.890671 
L 79.518428 48.472812 
L 80.203931 49.022187 
L 80.889435 49.522228 
" clip-path="url(#pff4dc586b2)" style="fill: none; stroke: #8a8a8a; stroke-width: 1.5; stroke-linecap: square"/>
   </g>
  </g>
 </g>
 <defs>
  <clipPath id="pff4dc586b2">
   <rect x="0" y="-0" width="558" height="54.36"/>
  </clipPath>
 </defs>
</svg>
