<?xml version="1.0" encoding="utf-8" standalone="no"?>
<!DOCTYPE svg PUBLIC "-//W3C//DTD SVG 1.1//EN"
  "http://www.w3.org/Graphics/SVG/1.1/DTD/svg11.dtd">
<svg xmlns:xlink="http://www.w3.org/1999/xlink" width="558pt" height="54.36pt" viewBox="0 0 558 54.36" xmlns="http://www.w3.org/2000/svg" version="1.1">
 <metadata>
  <rdf:RDF xmlns:dc="http://purl.org/dc/elements/1.1/" xmlns:cc="http://creativecommons.org/ns#" xmlns:rdf="http://www.w3.org/1999/02/22-rdf-syntax-ns#">
   <cc:Work>
    <dc:type rdf:resource="http://purl.org/dc/dcmitype/StillImage"/>
    <dc:date>2024-09-15T09:30:39.502018</dc:date>
    <dc:format>image/svg+xml</dc:format>
    <dc:creator>
     <cc:Agent>
      <dc:title>Matplotlib v3.5.2, https://matplotlib.org/</dc:title>
     </cc:Agent>
    </dc:creator>
   </cc:Work>
  </rdf:RDF>
 </metadata>
 <defs>
  <style type="text/css">*{stroke-linejoin: round; stroke-linecap: butt}</style>
 </defs>
 <g id="figure_1">
  <g id="patch_1">
   <path d="M 0 54.36 
L 558 54.36 
L 558 0 
L 0 0 
L 0 54.36 
z
" style="fill: none; opacity: 0"/>
  </g>
  <g id="axes_1">
   <g id="PolyCollection_1">
    <defs>
     <path id="mb3b596b9c1" d="M 325.334112 -2.470909 
L 325.334112 -4.080853 
L 326.020544 -4.146668 
L 326.706975 -4.213364 
L 327.393406 -4.281107 
L 328.079838 -4.350125 
L 328.766269 -4.420706 
L 329.4527 -4.493181 
L 330.139132 -4.567914 
L 330.825563 -4.645277 
L 331.511994 -4.725634 
L 332.198425 -4.809318 
L 332.884857 -4.896614 
L 333.571288 -4.987741 
L 334.257719 -5.082842 
L 334.944151 -5.181979 
L 335.630582 -5.28513 
L 336.317013 -5.392194 
L 337.003444 -5.503002 
L 337.689876 -5.617333 
L 338.376307 -5.734928 
L 339.062738 -5.855511 
L 339.74917 -5.978815 
L 340.435601 -6.104594 
L 341.122032 -6.23265 
L 341.808464 -6.362848 
L 342.494895 -6.495132 
L 343.181326 -6.629535 
L 343.867757 -6.766191 
L 344.554189 -6.90534 
L 345.24062 -7.047327 
L 345.927051 -7.192605 
L 346.613483 -7.341728 
L 347.299914 -7.495339 
L 347.986345 -7.654162 
L 348.672776 -7.818979 
L 349.359208 -7.990615 
L 350.045639 -8.169905 
L 350.73207 -8.357672 
L 351.418502 -8.554688 
L 352.104933 -8.761644 
L 352.791364 -8.979115 
L 353.477796 -9.20753 
L 354.164227 -9.447138 
L 354.850658 -9.697994 
L 355.537089 -9.95994 
L 356.223521 -10.232608 
L 356.909952 -10.515426 
L 357.596383 -10.807647 
L 358.282815 -11.108378 
L 358.969246 -11.416631 
L 359.655677 -11.731374 
L 360.342109 -12.051592 
L 361.02854 -12.376341 
L 361.714971 -12.7048 
L 362.401402 -13.036316 
L 363.087834 -13.370431 
L 363.774265 -13.706889 
L 364.460696 -14.045629 
L 365.147128 -14.386759 
L 365.833559 -14.730508 
L 366.51999 -15.077172 
L 367.206421 -15.427045 
L 367.892853 -15.780353 
L 368.579284 -16.137192 
L 369.265715 -16.497474 
L 369.952147 -16.860895 
L 370.638578 -17.226916 
L 371.325009 -17.594777 
L 372.011441 -17.963522 
L 372.697872 -18.332051 
L 373.384303 -18.699188 
L 374.070734 -19.063758 
L 374.757166 -19.42467 
L 375.443597 -19.78099 
L 376.130028 -20.13202 
L 376.81646 -20.477344 
L 377.502891 -20.816867 
L 378.189322 -21.150825 
L 378.875753 -21.479779 
L 379.562185 -21.804584 
L 380.248616 -22.126339 
L 380.935047 -22.446324 
L 381.621479 -22.765938 
L 382.30791 -23.086616 
L 382.994341 -23.40977 
L 383.680773 -23.736721 
L 384.367204 -24.068655 
L 385.053635 -24.406584 
L 385.740066 -24.751327 
L 386.426498 -25.1035 
L 387.112929 -25.463524 
L 387.79936 -25.831634 
L 388.485792 -26.207897 
L 389.172223 -26.59223 
L 389.858654 -26.984416 
L 390.545085 -27.384109 
L 391.231517 -27.790841 
L 391.917948 -28.204013 
L 392.604379 -28.622884 
L 393.290811 -29.046557 
L 393.977242 -29.473956 
L 394.663673 -29.90382 
L 395.350105 -30.33469 
L 396.036536 -30.764914 
L 396.722967 -31.192669 
L 397.409398 -31.615993 
L 398.09583 -32.032837 
L 398.782261 -32.441129 
L 399.468692 -32.838856 
L 400.155124 -33.224148 
L 400.841555 -33.595363 
L 401.527986 -33.951177 
L 402.214418 -34.290652 
L 402.900849 -34.61329 
L 403.58728 -34.91907 
L 404.273711 -35.20845 
L 404.960143 -35.482352 
L 405.646574 -35.742108 
L 406.333005 -35.989391 
L 407.019437 -36.226116 
L 407.705868 -36.454338 
L 408.392299 -36.67613 
L 409.07873 -36.893463 
L 409.765162 -37.1081 
L 410.451593 -37.321493 
L 411.138024 -37.534704 
L 411.824456 -37.74835 
L 412.510887 -37.962571 
L 413.197318 -38.17703 
L 413.88375 -38.390932 
L 414.570181 -38.603077 
L 415.256612 -38.811928 
L 415.943043 -39.015692 
L 416.629475 -39.212423 
L 417.315906 -39.400117 
L 418.002337 -39.576813 
L 418.688769 -39.740685 
L 419.3752 -39.890124 
L 420.061631 -40.023802 
L 420.748062 -40.140721 
L 421.434494 -40.240245 
L 422.120925 -40.322109 
L 422.807356 -40.386412 
L 423.493788 -40.433605 
L 424.180219 -40.46445 
L 424.86665 -40.479987 
L 425.553082 -40.481482 
L 426.239513 -40.47038 
L 426.925944 -40.448247 
L 427.612375 -40.416722 
L 428.298807 -40.377454 
L 428.985238 -40.332053 
L 429.671669 -40.28203 
L 430.358101 -40.228741 
L 431.044532 -40.173335 
L 431.730963 -40.116694 
L 432.417395 -40.059389 
L 433.103826 -40.001632 
L 433.790257 -39.943242 
L 434.476688 -39.883621 
L 435.16312 -39.821745 
L 435.849551 -39.756175 
L 436.535982 -39.685084 
L 437.222414 -39.606305 
L 437.908845 -39.517409 
L 438.595276 -39.415784 
L 439.281707 -39.298749 
L 439.968139 -39.163666 
L 440.65457 -39.008065 
L 441.341001 -38.829765 
L 442.027433 -38.626992 
L 442.713864 -38.398474 
L 443.400295 -38.143527 
L 444.086727 -37.862106 
L 444.773158 -37.55483 
L 445.459589 -37.222976 
L 446.14602 -36.868438 
L 446.832452 -36.493658 
L 447.518883 -36.101531 
L 448.205314 -35.695286 
L 448.891746 -35.278349 
L 449.578177 -34.854207 
L 450.264608 -34.426264 
L 450.951039 -33.997701 
L 451.637471 -33.571362 
L 452.323902 -33.149647 
L 453.010333 -32.734438 
L 453.696765 -32.327052 
L 454.383196 -31.928221 
L 455.069627 -31.538108 
L 455.756059 -31.15635 
L 456.44249 -30.782123 
L 457.128921 -30.414239 
L 457.815352 -30.051244 
L 458.501784 -29.691538 
L 459.188215 -29.33349 
L 459.874646 -28.975548 
L 460.561078 -28.616336 
L 461.247509 -28.254738 
L 461.93394 -27.889948 
L 462.620372 -27.521509 
L 463.306803 -27.149312 
L 463.993234 -26.77358 
L 464.679665 -26.394824 
L 465.366097 -26.013784 
L 466.052528 -25.631356 
L 466.738959 -25.248517 
L 467.425391 -24.866245 
L 468.111822 -24.485451 
L 468.798253 -24.106923 
L 469.484684 -23.731279 
L 470.171116 -23.35895 
L 470.857547 -22.990167 
L 471.543978 -22.62498 
L 472.23041 -22.263286 
L 472.916841 -21.904865 
L 473.603272 -21.549435 
L 474.289704 -21.196701 
L 474.976135 -20.846403 
L 475.662566 -20.498364 
L 476.348997 -20.152528 
L 477.035429 -19.808975 
L 477.72186 -19.467938 
L 478.408291 -19.129794 
L 479.094723 -18.795046 
L 479.781154 -18.464293 
L 480.467585 -18.138185 
L 481.154016 -17.817379 
L 481.840448 -17.502488 
L 482.526879 -17.194033 
L 483.21331 -16.892399 
L 483.899742 -16.5978 
L 484.586173 -16.310257 
L 485.272604 -16.029587 
L 485.959036 -15.755411 
L 486.645467 -15.48717 
L 487.331898 -15.224156 
L 488.018329 -14.965554 
L 488.704761 -14.71049 
L 489.391192 -14.458079 
L 490.077623 -14.207475 
L 490.764055 -13.957916 
L 491.450486 -13.708757 
L 492.136917 -13.459497 
L 492.823349 -13.209796 
L 493.50978 -12.959472 
L 494.196211 -12.708501 
L 494.882642 -12.456995 
L 495.569074 -12.205184 
L 496.255505 -11.953389 
L 496.941936 -11.701997 
L 497.628368 -11.451439 
L 498.314799 -11.202164 
L 499.00123 -10.954627 
L 499.687661 -10.709277 
L 500.374093 -10.466549 
L 501.060524 -10.226859 
L 501.746955 -9.990608 
L 502.433387 -9.758176 
L 503.119818 -9.529927 
L 503.806249 -9.306205 
L 504.492681 -9.087329 
L 505.179112 -8.873593 
L 505.865543 -8.66525 
L 506.551974 -8.462508 
L 507.238406 -8.265514 
L 507.924837 -8.074346 
L 508.611268 -7.889003 
L 509.2977 -7.709394 
L 509.984131 -7.535337 
L 510.670562 -7.366559 
L 511.356993 -7.202699 
L 512.043425 -7.043321 
L 512.729856 -6.887927 
L 513.416287 -6.735981 
L 514.102719 -6.58693 
L 514.78915 -6.440231 
L 515.475581 -6.295382 
L 516.162013 -6.151946 
L 516.848444 -6.009578 
L 517.534875 -5.868046 
L 518.221306 -5.727249 
L 518.907738 -5.587223 
L 519.594169 -5.448147 
L 520.2806 -5.310336 
L 520.967032 -5.174231 
L 521.653463 -5.040378 
L 522.339894 -4.909403 
L 523.026326 -4.781986 
L 523.712757 -4.658825 
L 524.399188 -4.540611 
L 525.085619 -4.427991 
L 525.772051 -4.321541 
L 526.458482 -4.221745 
L 527.144913 -4.128971 
L 527.831345 -4.043461 
L 528.517776 -3.965319 
L 529.204207 -3.894514 
L 529.890638 -3.830876 
L 530.57707 -3.774114 
L 531.263501 -3.723817 
L 531.949932 -3.679481 
L 532.636364 -3.640517 
L 532.636364 -2.470909 
L 532.636364 -2.470909 
L 531.949932 -2.470909 
L 531.263501 -2.470909 
L 530.57707 -2.470909 
L 529.890638 -2.470909 
L 529.204207 -2.470909 
L 528.517776 -2.470909 
L 527.831345 -2.470909 
L 527.144913 -2.470909 
L 526.458482 -2.470909 
L 525.772051 -2.470909 
L 525.085619 -2.470909 
L 524.399188 -2.470909 
L 523.712757 -2.470909 
L 523.026326 -2.470909 
L 522.339894 -2.470909 
L 521.653463 -2.470909 
L 520.967032 -2.470909 
L 520.2806 -2.470909 
L 519.594169 -2.470909 
L 518.907738 -2.470909 
L 518.221306 -2.470909 
L 517.534875 -2.470909 
L 516.848444 -2.470909 
L 516.162013 -2.470909 
L 515.475581 -2.470909 
L 514.78915 -2.470909 
L 514.102719 -2.470909 
L 513.416287 -2.470909 
L 512.729856 -2.470909 
L 512.043425 -2.470909 
L 511.356993 -2.470909 
L 510.670562 -2.470909 
L 509.984131 -2.470909 
L 509.2977 -2.470909 
L 508.611268 -2.470909 
L 507.924837 -2.470909 
L 507.238406 -2.470909 
L 506.551974 -2.470909 
L 505.865543 -2.470909 
L 505.179112 -2.470909 
L 504.492681 -2.470909 
L 503.806249 -2.470909 
L 503.119818 -2.470909 
L 502.433387 -2.470909 
L 501.746955 -2.470909 
L 501.060524 -2.470909 
L 500.374093 -2.470909 
L 499.687661 -2.470909 
L 499.00123 -2.470909 
L 498.314799 -2.470909 
L 497.628368 -2.470909 
L 496.941936 -2.470909 
L 496.255505 -2.470909 
L 495.569074 -2.470909 
L 494.882642 -2.470909 
L 494.196211 -2.470909 
L 493.50978 -2.470909 
L 492.823349 -2.470909 
L 492.136917 -2.470909 
L 491.450486 -2.470909 
L 490.764055 -2.470909 
L 490.077623 -2.470909 
L 489.391192 -2.470909 
L 488.704761 -2.470909 
L 488.018329 -2.470909 
L 487.331898 -2.470909 
L 486.645467 -2.470909 
L 485.959036 -2.470909 
L 485.272604 -2.470909 
L 484.586173 -2.470909 
L 483.899742 -2.470909 
L 483.21331 -2.470909 
L 482.526879 -2.470909 
L 481.840448 -2.470909 
L 481.154016 -2.470909 
L 480.467585 -2.470909 
L 479.781154 -2.470909 
L 479.094723 -2.470909 
L 478.408291 -2.470909 
L 477.72186 -2.470909 
L 477.035429 -2.470909 
L 476.348997 -2.470909 
L 475.662566 -2.470909 
L 474.976135 -2.470909 
L 474.289704 -2.470909 
L 473.603272 -2.470909 
L 472.916841 -2.470909 
L 472.23041 -2.470909 
L 471.543978 -2.470909 
L 470.857547 -2.470909 
L 470.171116 -2.470909 
L 469.484684 -2.470909 
L 468.798253 -2.470909 
L 468.111822 -2.470909 
L 467.425391 -2.470909 
L 466.738959 -2.470909 
L 466.052528 -2.470909 
L 465.366097 -2.470909 
L 464.679665 -2.470909 
L 463.993234 -2.470909 
L 463.306803 -2.470909 
L 462.620372 -2.470909 
L 461.93394 -2.470909 
L 461.247509 -2.470909 
L 460.561078 -2.470909 
L 459.874646 -2.470909 
L 459.188215 -2.470909 
L 458.501784 -2.470909 
L 457.815352 -2.470909 
L 457.128921 -2.470909 
L 456.44249 -2.470909 
L 455.756059 -2.470909 
L 455.069627 -2.470909 
L 454.383196 -2.470909 
L 453.696765 -2.470909 
L 453.010333 -2.470909 
L 452.323902 -2.470909 
L 451.637471 -2.470909 
L 450.951039 -2.470909 
L 450.264608 -2.470909 
L 449.578177 -2.470909 
L 448.891746 -2.470909 
L 448.205314 -2.470909 
L 447.518883 -2.470909 
L 446.832452 -2.470909 
L 446.14602 -2.470909 
L 445.459589 -2.470909 
L 444.773158 -2.470909 
L 444.086727 -2.470909 
L 443.400295 -2.470909 
L 442.713864 -2.470909 
L 442.027433 -2.470909 
L 441.341001 -2.470909 
L 440.65457 -2.470909 
L 439.968139 -2.470909 
L 439.281707 -2.470909 
L 438.595276 -2.470909 
L 437.908845 -2.470909 
L 437.222414 -2.470909 
L 436.535982 -2.470909 
L 435.849551 -2.470909 
L 435.16312 -2.470909 
L 434.476688 -2.470909 
L 433.790257 -2.470909 
L 433.103826 -2.470909 
L 432.417395 -2.470909 
L 431.730963 -2.470909 
L 431.044532 -2.470909 
L 430.358101 -2.470909 
L 429.671669 -2.470909 
L 428.985238 -2.470909 
L 428.298807 -2.470909 
L 427.612375 -2.470909 
L 426.925944 -2.470909 
L 426.239513 -2.470909 
L 425.553082 -2.470909 
L 424.86665 -2.470909 
L 424.180219 -2.470909 
L 423.493788 -2.470909 
L 422.807356 -2.470909 
L 422.120925 -2.470909 
L 421.434494 -2.470909 
L 420.748062 -2.470909 
L 420.061631 -2.470909 
L 419.3752 -2.470909 
L 418.688769 -2.470909 
L 418.002337 -2.470909 
L 417.315906 -2.470909 
L 416.629475 -2.470909 
L 415.943043 -2.470909 
L 415.256612 -2.470909 
L 414.570181 -2.470909 
L 413.88375 -2.470909 
L 413.197318 -2.470909 
L 412.510887 -2.470909 
L 411.824456 -2.470909 
L 411.138024 -2.470909 
L 410.451593 -2.470909 
L 409.765162 -2.470909 
L 409.07873 -2.470909 
L 408.392299 -2.470909 
L 407.705868 -2.470909 
L 407.019437 -2.470909 
L 406.333005 -2.470909 
L 405.646574 -2.470909 
L 404.960143 -2.470909 
L 404.273711 -2.470909 
L 403.58728 -2.470909 
L 402.900849 -2.470909 
L 402.214418 -2.470909 
L 401.527986 -2.470909 
L 400.841555 -2.470909 
L 400.155124 -2.470909 
L 399.468692 -2.470909 
L 398.782261 -2.470909 
L 398.09583 -2.470909 
L 397.409398 -2.470909 
L 396.722967 -2.470909 
L 396.036536 -2.470909 
L 395.350105 -2.470909 
L 394.663673 -2.470909 
L 393.977242 -2.470909 
L 393.290811 -2.470909 
L 392.604379 -2.470909 
L 391.917948 -2.470909 
L 391.231517 -2.470909 
L 390.545085 -2.470909 
L 389.858654 -2.470909 
L 389.172223 -2.470909 
L 388.485792 -2.470909 
L 387.79936 -2.470909 
L 387.112929 -2.470909 
L 386.426498 -2.470909 
L 385.740066 -2.470909 
L 385.053635 -2.470909 
L 384.367204 -2.470909 
L 383.680773 -2.470909 
L 382.994341 -2.470909 
L 382.30791 -2.470909 
L 381.621479 -2.470909 
L 380.935047 -2.470909 
L 380.248616 -2.470909 
L 379.562185 -2.470909 
L 378.875753 -2.470909 
L 378.189322 -2.470909 
L 377.502891 -2.470909 
L 376.81646 -2.470909 
L 376.130028 -2.470909 
L 375.443597 -2.470909 
L 374.757166 -2.470909 
L 374.070734 -2.470909 
L 373.384303 -2.470909 
L 372.697872 -2.470909 
L 372.011441 -2.470909 
L 371.325009 -2.470909 
L 370.638578 -2.470909 
L 369.952147 -2.470909 
L 369.265715 -2.470909 
L 368.579284 -2.470909 
L 367.892853 -2.470909 
L 367.206421 -2.470909 
L 366.51999 -2.470909 
L 365.833559 -2.470909 
L 365.147128 -2.470909 
L 364.460696 -2.470909 
L 363.774265 -2.470909 
L 363.087834 -2.470909 
L 362.401402 -2.470909 
L 361.714971 -2.470909 
L 361.02854 -2.470909 
L 360.342109 -2.470909 
L 359.655677 -2.470909 
L 358.969246 -2.470909 
L 358.282815 -2.470909 
L 357.596383 -2.470909 
L 356.909952 -2.470909 
L 356.223521 -2.470909 
L 355.537089 -2.470909 
L 354.850658 -2.470909 
L 354.164227 -2.470909 
L 353.477796 -2.470909 
L 352.791364 -2.470909 
L 352.104933 -2.470909 
L 351.418502 -2.470909 
L 350.73207 -2.470909 
L 350.045639 -2.470909 
L 349.359208 -2.470909 
L 348.672776 -2.470909 
L 347.986345 -2.470909 
L 347.299914 -2.470909 
L 346.613483 -2.470909 
L 345.927051 -2.470909 
L 345.24062 -2.470909 
L 344.554189 -2.470909 
L 343.867757 -2.470909 
L 343.181326 -2.470909 
L 342.494895 -2.470909 
L 341.808464 -2.470909 
L 341.122032 -2.470909 
L 340.435601 -2.470909 
L 339.74917 -2.470909 
L 339.062738 -2.470909 
L 338.376307 -2.470909 
L 337.689876 -2.470909 
L 337.003444 -2.470909 
L 336.317013 -2.470909 
L 335.630582 -2.470909 
L 334.944151 -2.470909 
L 334.257719 -2.470909 
L 333.571288 -2.470909 
L 332.884857 -2.470909 
L 332.198425 -2.470909 
L 331.511994 -2.470909 
L 330.825563 -2.470909 
L 330.139132 -2.470909 
L 329.4527 -2.470909 
L 328.766269 -2.470909 
L 328.079838 -2.470909 
L 327.393406 -2.470909 
L 326.706975 -2.470909 
L 326.020544 -2.470909 
L 325.334112 -2.470909 
z
" style="stroke: #cf1313; stroke-opacity: 0.2"/>
    </defs>
    <g clip-path="url(#p16da0d5c6e)">
     <use xlink:href="#mb3b596b9c1" x="0" y="54.36" style="fill: #cf1313; fill-opacity: 0.2; stroke: #cf1313; stroke-opacity: 0.2"/>
    </g>
   </g>
   <g id="PolyCollection_2">
    <defs>
     <path id="m186c76db97" d="M 127.641899 -2.470909 
L 127.641899 -4.621172 
L 128.328331 -4.789155 
L 129.014762 -4.963999 
L 129.701193 -5.144833 
L 130.387625 -5.331044 
L 131.074056 -5.522349 
L 131.760487 -5.718822 
L 132.446918 -5.920849 
L 133.13335 -6.129047 
L 133.819781 -6.344159 
L 134.506212 -6.566939 
L 135.192644 -6.798059 
L 135.879075 -7.03804 
L 136.565506 -7.287221 
L 137.251938 -7.545742 
L 137.938369 -7.813552 
L 138.6248 -8.090406 
L 139.311231 -8.37587 
L 139.997663 -8.669332 
L 140.684094 -8.970041 
L 141.370525 -9.277179 
L 142.056957 -9.589985 
L 142.743388 -9.907926 
L 143.429819 -10.230873 
L 144.11625 -10.559269 
L 144.802682 -10.894227 
L 145.489113 -11.237533 
L 146.175544 -11.591519 
L 146.861976 -11.958843 
L 147.548407 -12.34217 
L 148.234838 -12.743841 
L 148.92127 -13.165568 
L 149.607701 -13.608236 
L 150.294132 -14.071825 
L 150.980563 -14.555488 
L 151.666995 -15.057757 
L 152.353426 -15.576822 
L 153.039857 -16.11084 
L 153.726289 -16.658191 
L 154.41272 -17.217657 
L 155.099151 -17.788475 
L 155.785582 -18.370307 
L 156.472014 -18.963141 
L 157.158445 -19.567174 
L 157.844876 -20.182727 
L 158.531308 -20.810213 
L 159.217739 -21.450137 
L 159.90417 -22.103109 
L 160.590602 -22.769822 
L 161.277033 -23.450944 
L 161.963464 -24.146921 
L 162.649895 -24.857694 
L 163.336327 -25.5824 
L 164.022758 -26.319107 
L 164.709189 -27.064667 
L 165.395621 -27.814728 
L 166.082052 -28.563931 
L 166.768483 -29.306263 
L 167.454915 -30.035518 
L 168.141346 -30.745807 
L 168.827777 -31.432052 
L 169.514208 -32.090405 
L 170.20064 -32.718576 
L 170.887071 -33.316014 
L 171.573502 -33.883964 
L 172.259934 -34.425352 
L 172.946365 -34.944521 
L 173.632796 -35.446811 
L 174.319227 -35.938015 
L 175.005659 -36.423744 
L 175.69209 -36.908779 
L 176.378521 -37.396484 
L 177.064953 -37.888355 
L 177.751384 -38.383782 
L 178.437815 -38.880056 
L 179.124247 -39.372641 
L 179.810678 -39.855687 
L 180.497109 -40.322719 
L 181.18354 -40.767429 
L 181.869972 -41.184452 
L 182.556403 -41.570025 
L 183.242834 -41.922404 
L 183.929266 -42.24198 
L 184.615697 -42.531026 
L 185.302128 -42.793111 
L 185.988559 -43.032244 
L 186.674991 -43.25189 
L 187.361422 -43.45401 
L 188.047853 -43.638309 
L 188.734285 -43.80183 
L 189.420716 -43.938984 
L 190.107147 -44.042028 
L 190.793579 -44.101927 
L 191.48001 -44.109459 
L 192.166441 -44.056407 
L 192.852872 -43.936641 
L 193.539304 -43.746945 
L 194.225735 -43.487466 
L 194.912166 -43.161752 
L 195.598598 -42.776394 
L 196.285029 -42.340352 
L 196.97146 -41.864104 
L 197.657891 -41.358732 
L 198.344323 -40.835098 
L 199.030754 -40.303199 
L 199.717185 -39.771742 
L 200.403617 -39.247935 
L 201.090048 -38.737446 
L 201.776479 -38.244437 
L 202.462911 -37.771606 
L 203.149342 -37.320178 
L 203.835773 -36.88983 
L 204.522204 -36.478583 
L 205.208636 -36.082742 
L 205.895067 -35.696942 
L 206.581498 -35.314394 
L 207.26793 -34.927342 
L 207.954361 -34.527715 
L 208.640792 -34.10789 
L 209.327224 -33.661454 
L 210.013655 -33.183845 
L 210.700086 -32.672755 
L 211.386517 -32.128243 
L 212.072949 -31.552561 
L 212.75938 -30.949749 
L 213.445811 -30.325101 
L 214.132243 -29.684621 
L 214.818674 -29.034561 
L 215.505105 -28.381099 
L 216.191536 -27.730151 
L 216.877968 -27.087273 
L 217.564399 -26.457566 
L 218.25083 -25.845521 
L 218.937262 -25.25475 
L 219.623693 -24.687621 
L 220.310124 -24.144865 
L 220.996556 -23.62527 
L 221.682987 -23.125563 
L 222.369418 -22.64059 
L 223.055849 -22.163811 
L 223.742281 -21.688065 
L 224.428712 -21.206505 
L 225.115143 -20.713528 
L 225.801575 -20.205533 
L 226.488006 -19.681388 
L 227.174437 -19.14249 
L 227.860868 -18.592448 
L 228.5473 -18.036435 
L 229.233731 -17.480344 
L 229.920162 -16.929907 
L 230.606594 -16.389908 
L 231.293025 -15.863636 
L 231.979456 -15.352624 
L 232.665888 -14.856703 
L 233.352319 -14.374315 
L 234.03875 -13.903011 
L 234.725181 -13.440029 
L 235.411613 -12.982851 
L 236.098044 -12.529649 
L 236.784475 -12.079573 
L 237.470907 -11.632863 
L 238.157338 -11.190783 
L 238.843769 -10.755429 
L 239.530201 -10.329443 
L 240.216632 -9.915692 
L 240.903063 -9.516951 
L 241.589494 -9.135628 
L 242.275926 -8.773556 
L 242.962357 -8.43186 
L 243.648788 -8.11091 
L 244.33522 -7.810353 
L 245.021651 -7.529216 
L 245.708082 -7.266056 
L 246.394513 -7.019145 
L 247.080945 -6.786672 
L 247.767376 -6.566914 
L 248.453807 -6.358377 
L 249.140239 -6.159886 
L 249.82667 -5.970597 
L 250.513101 -5.789961 
L 251.199533 -5.617628 
L 251.885964 -5.453328 
L 252.572395 -5.296749 
L 253.258826 -5.147438 
L 253.945258 -5.00475 
L 254.631689 -4.867852 
L 255.31812 -4.735778 
L 256.004552 -4.607529 
L 256.004552 -2.470909 
L 256.004552 -2.470909 
L 255.31812 -2.470909 
L 254.631689 -2.470909 
L 253.945258 -2.470909 
L 253.258826 -2.470909 
L 252.572395 -2.470909 
L 251.885964 -2.470909 
L 251.199533 -2.470909 
L 250.513101 -2.470909 
L 249.82667 -2.470909 
L 249.140239 -2.470909 
L 248.453807 -2.470909 
L 247.767376 -2.470909 
L 247.080945 -2.470909 
L 246.394513 -2.470909 
L 245.708082 -2.470909 
L 245.021651 -2.470909 
L 244.33522 -2.470909 
L 243.648788 -2.470909 
L 242.962357 -2.470909 
L 242.275926 -2.470909 
L 241.589494 -2.470909 
L 240.903063 -2.470909 
L 240.216632 -2.470909 
L 239.530201 -2.470909 
L 238.843769 -2.470909 
L 238.157338 -2.470909 
L 237.470907 -2.470909 
L 236.784475 -2.470909 
L 236.098044 -2.470909 
L 235.411613 -2.470909 
L 234.725181 -2.470909 
L 234.03875 -2.470909 
L 233.352319 -2.470909 
L 232.665888 -2.470909 
L 231.979456 -2.470909 
L 231.293025 -2.470909 
L 230.606594 -2.470909 
L 229.920162 -2.470909 
L 229.233731 -2.470909 
L 228.5473 -2.470909 
L 227.860868 -2.470909 
L 227.174437 -2.470909 
L 226.488006 -2.470909 
L 225.801575 -2.470909 
L 225.115143 -2.470909 
L 224.428712 -2.470909 
L 223.742281 -2.470909 
L 223.055849 -2.470909 
L 222.369418 -2.470909 
L 221.682987 -2.470909 
L 220.996556 -2.470909 
L 220.310124 -2.470909 
L 219.623693 -2.470909 
L 218.937262 -2.470909 
L 218.25083 -2.470909 
L 217.564399 -2.470909 
L 216.877968 -2.470909 
L 216.191536 -2.470909 
L 215.505105 -2.470909 
L 214.818674 -2.470909 
L 214.132243 -2.470909 
L 213.445811 -2.470909 
L 212.75938 -2.470909 
L 212.072949 -2.470909 
L 211.386517 -2.470909 
L 210.700086 -2.470909 
L 210.013655 -2.470909 
L 209.327224 -2.470909 
L 208.640792 -2.470909 
L 207.954361 -2.470909 
L 207.26793 -2.470909 
L 206.581498 -2.470909 
L 205.895067 -2.470909 
L 205.208636 -2.470909 
L 204.522204 -2.470909 
L 203.835773 -2.470909 
L 203.149342 -2.470909 
L 202.462911 -2.470909 
L 201.776479 -2.470909 
L 201.090048 -2.470909 
L 200.403617 -2.470909 
L 199.717185 -2.470909 
L 199.030754 -2.470909 
L 198.344323 -2.470909 
L 197.657891 -2.470909 
L 196.97146 -2.470909 
L 196.285029 -2.470909 
L 195.598598 -2.470909 
L 194.912166 -2.470909 
L 194.225735 -2.470909 
L 193.539304 -2.470909 
L 192.852872 -2.470909 
L 192.166441 -2.470909 
L 191.48001 -2.470909 
L 190.793579 -2.470909 
L 190.107147 -2.470909 
L 189.420716 -2.470909 
L 188.734285 -2.470909 
L 188.047853 -2.470909 
L 187.361422 -2.470909 
L 186.674991 -2.470909 
L 185.988559 -2.470909 
L 185.302128 -2.470909 
L 184.615697 -2.470909 
L 183.929266 -2.470909 
L 183.242834 -2.470909 
L 182.556403 -2.470909 
L 181.869972 -2.470909 
L 181.18354 -2.470909 
L 180.497109 -2.470909 
L 179.810678 -2.470909 
L 179.124247 -2.470909 
L 178.437815 -2.470909 
L 177.751384 -2.470909 
L 177.064953 -2.470909 
L 176.378521 -2.470909 
L 175.69209 -2.470909 
L 175.005659 -2.470909 
L 174.319227 -2.470909 
L 173.632796 -2.470909 
L 172.946365 -2.470909 
L 172.259934 -2.470909 
L 171.573502 -2.470909 
L 170.887071 -2.470909 
L 170.20064 -2.470909 
L 169.514208 -2.470909 
L 168.827777 -2.470909 
L 168.141346 -2.470909 
L 167.454915 -2.470909 
L 166.768483 -2.470909 
L 166.082052 -2.470909 
L 165.395621 -2.470909 
L 164.709189 -2.470909 
L 164.022758 -2.470909 
L 163.336327 -2.470909 
L 162.649895 -2.470909 
L 161.963464 -2.470909 
L 161.277033 -2.470909 
L 160.590602 -2.470909 
L 159.90417 -2.470909 
L 159.217739 -2.470909 
L 158.531308 -2.470909 
L 157.844876 -2.470909 
L 157.158445 -2.470909 
L 156.472014 -2.470909 
L 155.785582 -2.470909 
L 155.099151 -2.470909 
L 154.41272 -2.470909 
L 153.726289 -2.470909 
L 153.039857 -2.470909 
L 152.353426 -2.470909 
L 151.666995 -2.470909 
L 150.980563 -2.470909 
L 150.294132 -2.470909 
L 149.607701 -2.470909 
L 148.92127 -2.470909 
L 148.234838 -2.470909 
L 147.548407 -2.470909 
L 146.861976 -2.470909 
L 146.175544 -2.470909 
L 145.489113 -2.470909 
L 144.802682 -2.470909 
L 144.11625 -2.470909 
L 143.429819 -2.470909 
L 142.743388 -2.470909 
L 142.056957 -2.470909 
L 141.370525 -2.470909 
L 140.684094 -2.470909 
L 139.997663 -2.470909 
L 139.311231 -2.470909 
L 138.6248 -2.470909 
L 137.938369 -2.470909 
L 137.251938 -2.470909 
L 136.565506 -2.470909 
L 135.879075 -2.470909 
L 135.192644 -2.470909 
L 134.506212 -2.470909 
L 133.819781 -2.470909 
L 133.13335 -2.470909 
L 132.446918 -2.470909 
L 131.760487 -2.470909 
L 131.074056 -2.470909 
L 130.387625 -2.470909 
L 129.701193 -2.470909 
L 129.014762 -2.470909 
L 128.328331 -2.470909 
L 127.641899 -2.470909 
z
" style="stroke: #116dc2; stroke-opacity: 0.2"/>
    </defs>
    <g clip-path="url(#p16da0d5c6e)">
     <use xlink:href="#m186c76db97" x="0" y="54.36" style="fill: #116dc2; fill-opacity: 0.2; stroke: #116dc2; stroke-opacity: 0.2"/>
    </g>
   </g>
   <g id="PolyCollection_3">
    <defs>
     <path id="m3f22c23d06" d="M 25.363636 -2.470909 
L 25.363636 -4.243358 
L 26.050068 -4.433066 
L 26.736499 -4.654734 
L 27.42293 -4.937344 
L 28.109362 -5.305545 
L 28.795793 -5.773707 
L 29.482224 -6.340756 
L 30.168655 -6.988156 
L 30.855087 -7.685801 
L 31.541518 -8.40602 
L 32.227949 -9.137502 
L 32.914381 -9.888829 
L 33.600812 -10.679897 
L 34.287243 -11.530241 
L 34.973674 -12.454671 
L 35.660106 -13.467396 
L 36.346537 -14.586335 
L 37.032968 -15.830522 
L 37.7194 -17.212935 
L 38.405831 -18.734809 
L 39.092262 -20.380749 
L 39.778694 -22.111439 
L 40.465125 -23.862677 
L 41.151556 -25.566774 
L 41.837987 -27.192593 
L 42.524419 -28.771298 
L 43.21085 -30.377621 
L 43.897281 -32.075691 
L 44.583713 -33.871027 
L 45.270144 -35.701681 
L 45.956575 -37.467829 
L 46.643007 -39.077929 
L 47.329438 -40.490441 
L 48.015869 -41.734526 
L 48.7023 -42.895391 
L 49.388732 -44.065439 
L 50.075163 -45.290742 
L 50.761594 -46.552022 
L 51.448026 -47.789936 
L 52.134457 -48.944343 
L 52.820888 -49.971764 
L 53.507319 -50.835892 
L 54.193751 -51.490481 
L 54.880182 -51.869493 
L 55.566613 -51.889091 
L 56.253045 -51.468645 
L 56.939476 -50.574465 
L 57.625907 -49.265851 
L 58.312339 -47.704135 
L 58.99877 -46.102737 
L 59.685201 -44.64025 
L 60.371632 -43.389483 
L 61.058064 -42.30504 
L 61.744495 -41.268269 
L 62.430926 -40.150577 
L 63.117358 -38.857659 
L 63.803789 -37.347433 
L 64.49022 -35.633272 
L 65.176651 -33.777543 
L 65.863083 -31.871786 
L 66.549514 -30.005833 
L 67.235945 -28.237453 
L 67.922377 -26.575478 
L 68.608808 -24.98585 
L 69.295239 -23.422275 
L 69.981671 -21.866697 
L 70.668102 -20.349992 
L 71.354533 -18.932126 
L 72.040964 -17.654144 
L 72.727396 -16.501488 
L 73.413827 -15.410164 
L 74.100258 -14.310174 
L 74.78669 -13.169384 
L 75.473121 -12.004462 
L 76.159552 -10.858375 
L 76.845984 -9.771778 
L 77.532415 -8.771663 
L 78.218846 -7.875022 
L 78.905277 -7.091051 
L 79.591709 -6.416082 
L 80.27814 -5.83107 
L 80.964571 -5.310229 
L 81.651003 -4.835728 
L 81.651003 -2.470909 
L 81.651003 -2.470909 
L 80.964571 -2.470909 
L 80.27814 -2.470909 
L 79.591709 -2.470909 
L 78.905277 -2.470909 
L 78.218846 -2.470909 
L 77.532415 -2.470909 
L 76.845984 -2.470909 
L 76.159552 -2.470909 
L 75.473121 -2.470909 
L 74.78669 -2.470909 
L 74.100258 -2.470909 
L 73.413827 -2.470909 
L 72.727396 -2.470909 
L 72.040964 -2.470909 
L 71.354533 -2.470909 
L 70.668102 -2.470909 
L 69.981671 -2.470909 
L 69.295239 -2.470909 
L 68.608808 -2.470909 
L 67.922377 -2.470909 
L 67.235945 -2.470909 
L 66.549514 -2.470909 
L 65.863083 -2.470909 
L 65.176651 -2.470909 
L 64.49022 -2.470909 
L 63.803789 -2.470909 
L 63.117358 -2.470909 
L 62.430926 -2.470909 
L 61.744495 -2.470909 
L 61.058064 -2.470909 
L 60.371632 -2.470909 
L 59.685201 -2.470909 
L 58.99877 -2.470909 
L 58.312339 -2.470909 
L 57.625907 -2.470909 
L 56.939476 -2.470909 
L 56.253045 -2.470909 
L 55.566613 -2.470909 
L 54.880182 -2.470909 
L 54.193751 -2.470909 
L 53.507319 -2.470909 
L 52.820888 -2.470909 
L 52.134457 -2.470909 
L 51.448026 -2.470909 
L 50.761594 -2.470909 
L 50.075163 -2.470909 
L 49.388732 -2.470909 
L 48.7023 -2.470909 
L 48.015869 -2.470909 
L 47.329438 -2.470909 
L 46.643007 -2.470909 
L 45.956575 -2.470909 
L 45.270144 -2.470909 
L 44.583713 -2.470909 
L 43.897281 -2.470909 
L 43.21085 -2.470909 
L 42.524419 -2.470909 
L 41.837987 -2.470909 
L 41.151556 -2.470909 
L 40.465125 -2.470909 
L 39.778694 -2.470909 
L 39.092262 -2.470909 
L 38.405831 -2.470909 
L 37.7194 -2.470909 
L 37.032968 -2.470909 
L 36.346537 -2.470909 
L 35.660106 -2.470909 
L 34.973674 -2.470909 
L 34.287243 -2.470909 
L 33.600812 -2.470909 
L 32.914381 -2.470909 
L 32.227949 -2.470909 
L 31.541518 -2.470909 
L 30.855087 -2.470909 
L 30.168655 -2.470909 
L 29.482224 -2.470909 
L 28.795793 -2.470909 
L 28.109362 -2.470909 
L 27.42293 -2.470909 
L 26.736499 -2.470909 
L 26.050068 -2.470909 
L 25.363636 -2.470909 
z
" style="stroke: #8a8a8a; stroke-opacity: 0.2"/>
    </defs>
    <g clip-path="url(#p16da0d5c6e)">
     <use xlink:href="#m3f22c23d06" x="0" y="54.36" style="fill: #8a8a8a; fill-opacity: 0.2; stroke: #8a8a8a; stroke-opacity: 0.2"/>
    </g>
   </g>
   <g id="line2d_1">
    <path d="M 325.334112 50.279147 
L 332.884857 49.463386 
L 338.376307 48.625072 
L 345.24062 47.312673 
L 350.045639 46.190095 
L 353.477796 45.15247 
L 356.909952 43.844574 
L 361.02854 41.983659 
L 367.892853 38.579647 
L 380.935047 31.913676 
L 386.426498 29.2565 
L 390.545085 26.975891 
L 396.036536 23.595086 
L 400.155124 21.135852 
L 402.900849 19.74671 
L 405.646574 18.617892 
L 409.765162 17.2519 
L 418.002337 14.783187 
L 420.748062 14.219279 
L 423.493788 13.926395 
L 426.239513 13.88962 
L 430.358101 14.131259 
L 437.908845 14.842591 
L 440.65457 15.351935 
L 442.713864 15.961526 
L 444.773158 16.80517 
L 446.832452 17.866342 
L 450.264608 19.933736 
L 455.069627 22.821892 
L 459.874646 25.384452 
L 466.052528 28.728644 
L 472.916841 32.455135 
L 479.781154 35.895707 
L 483.899742 37.7622 
L 488.018329 39.394446 
L 501.060524 44.133141 
L 505.865543 45.69475 
L 509.984131 46.824663 
L 515.475581 48.064618 
L 524.399188 49.819389 
L 528.517776 50.394681 
L 532.636364 50.719483 
L 532.636364 50.719483 
" clip-path="url(#p16da0d5c6e)" style="fill: none; stroke: #cf1313; stroke-width: 1.5; stroke-linecap: square"/>
   </g>
   <g id="line2d_2">
    <path d="M 127.641899 49.738828 
L 131.760487 48.641178 
L 135.879075 47.32196 
L 139.311231 45.98413 
L 143.429819 44.129127 
L 146.861976 42.401157 
L 149.607701 40.751764 
L 152.353426 38.783178 
L 155.785582 35.989693 
L 159.217739 32.909863 
L 162.649895 29.502306 
L 170.20064 21.641424 
L 172.259934 19.934648 
L 175.69209 17.451221 
L 181.869972 13.175548 
L 183.929266 12.11802 
L 185.988559 11.327756 
L 188.734285 10.55817 
L 190.793579 10.258073 
L 192.166441 10.303593 
L 193.539304 10.613055 
L 194.912166 11.198248 
L 196.285029 12.019648 
L 199.030754 14.056801 
L 202.462911 16.588394 
L 205.208636 18.277258 
L 209.327224 20.698546 
L 211.386517 22.231757 
L 214.132243 24.675379 
L 218.937262 29.10525 
L 221.682987 31.234437 
L 227.174437 35.21751 
L 232.665888 39.503297 
L 236.784475 42.280427 
L 240.903063 44.843049 
L 243.648788 46.24909 
L 246.394513 47.340855 
L 249.82667 48.389403 
L 253.258826 49.212562 
L 256.004552 49.752471 
L 256.004552 49.752471 
" clip-path="url(#p16da0d5c6e)" style="fill: none; stroke: #116dc2; stroke-width: 1.5; stroke-linecap: square"/>
   </g>
   <g id="line2d_3">
    <path d="M 25.363636 50.116642 
L 26.050068 49.926934 
L 26.736499 49.705266 
L 27.42293 49.422656 
L 28.109362 49.054455 
L 28.795793 48.586293 
L 29.482224 48.019244 
L 30.168655 47.371844 
L 30.855087 46.674199 
L 31.541518 45.95398 
L 32.227949 45.222498 
L 32.914381 44.471171 
L 33.600812 43.680103 
L 34.287243 42.829759 
L 34.973674 41.905329 
L 35.660106 40.892604 
L 36.346537 39.773665 
L 37.032968 38.529478 
L 37.7194 37.147065 
L 38.405831 35.625191 
L 39.092262 33.979251 
L 39.778694 32.248561 
L 40.465125 30.497323 
L 41.151556 28.793226 
L 41.837987 27.167407 
L 42.524419 25.588702 
L 43.21085 23.982379 
L 43.897281 22.284309 
L 44.583713 20.488973 
L 45.270144 18.658319 
L 45.956575 16.892171 
L 46.643007 15.282071 
L 47.329438 13.869559 
L 48.015869 12.625474 
L 48.7023 11.464609 
L 49.388732 10.294561 
L 50.075163 9.069258 
L 50.761594 7.807978 
L 51.448026 6.570064 
L 52.134457 5.415657 
L 52.820888 4.388236 
L 53.507319 3.524108 
L 54.193751 2.869519 
L 54.880182 2.490507 
L 55.566613 2.470909 
L 56.253045 2.891355 
L 56.939476 3.785535 
L 57.625907 5.094149 
L 58.312339 6.655865 
L 58.99877 8.257263 
L 59.685201 9.71975 
L 60.371632 10.970517 
L 61.058064 12.05496 
L 61.744495 13.091731 
L 62.430926 14.209423 
L 63.117358 15.502341 
L 63.803789 17.012567 
L 64.49022 18.726728 
L 65.176651 20.582457 
L 65.863083 22.488214 
L 66.549514 24.354167 
L 67.235945 26.122547 
L 67.922377 27.784522 
L 68.608808 29.37415 
L 69.295239 30.937725 
L 69.981671 32.493303 
L 70.668102 34.010008 
L 71.354533 35.427874 
L 72.040964 36.705856 
L 72.727396 37.858512 
L 73.413827 38.949836 
L 74.100258 40.049826 
L 74.78669 41.190616 
L 75.473121 42.355538 
L 76.159552 43.501625 
L 76.845984 44.588222 
L 77.532415 45.588337 
L 78.218846 46.484978 
L 78.905277 47.268949 
L 79.591709 47.943918 
L 80.27814 48.52893 
L 80.964571 49.049771 
L 81.651003 49.524272 
" clip-path="url(#p16da0d5c6e)" style="fill: none; stroke: #8a8a8a; stroke-width: 1.5; stroke-linecap: square"/>
   </g>
  </g>
 </g>
 <defs>
  <clipPath id="p16da0d5c6e">
   <rect x="0" y="-0" width="558" height="54.36"/>
  </clipPath>
 </defs>
</svg>
