<?xml version="1.0" encoding="utf-8" standalone="no"?>
<!DOCTYPE svg PUBLIC "-//W3C//DTD SVG 1.1//EN"
  "http://www.w3.org/Graphics/SVG/1.1/DTD/svg11.dtd">
<svg xmlns:xlink="http://www.w3.org/1999/xlink" width="558pt" height="54.36pt" viewBox="0 0 558 54.36" xmlns="http://www.w3.org/2000/svg" version="1.1">
 <metadata>
  <rdf:RDF xmlns:dc="http://purl.org/dc/elements/1.1/" xmlns:cc="http://creativecommons.org/ns#" xmlns:rdf="http://www.w3.org/1999/02/22-rdf-syntax-ns#">
   <cc:Work>
    <dc:type rdf:resource="http://purl.org/dc/dcmitype/StillImage"/>
    <dc:date>2024-09-14T12:47:32.172919</dc:date>
    <dc:format>image/svg+xml</dc:format>
    <dc:creator>
     <cc:Agent>
      <dc:title>Matplotlib v3.5.2, https://matplotlib.org/</dc:title>
     </cc:Agent>
    </dc:creator>
   </cc:Work>
  </rdf:RDF>
 </metadata>
 <defs>
  <style type="text/css">*{stroke-linejoin: round; stroke-linecap: butt}</style>
 </defs>
 <g id="figure_1">
  <g id="patch_1">
   <path d="M 0 54.36 
L 558 54.36 
L 558 0 
L 0 0 
L 0 54.36 
z
" style="fill: none; opacity: 0"/>
  </g>
  <g id="axes_1">
   <g id="PolyCollection_1">
    <defs>
     <path id="mb743d1b052" d="M 221.550777 -2.470909 
L 221.550777 -4.281708 
L 222.332399 -4.421499 
L 223.114022 -4.570224 
L 223.895644 -4.727205 
L 224.677266 -4.891402 
L 225.458888 -5.061474 
L 226.24051 -5.235895 
L 227.022132 -5.413091 
L 227.803754 -5.591604 
L 228.585376 -5.770244 
L 229.366998 -5.94823 
L 230.14862 -6.125276 
L 230.930242 -6.301631 
L 231.711864 -6.478072 
L 232.493486 -6.655829 
L 233.275109 -6.83649 
L 234.056731 -7.021859 
L 234.838353 -7.213818 
L 235.619975 -7.414185 
L 236.401597 -7.624594 
L 237.183219 -7.846409 
L 237.964841 -8.080686 
L 238.746463 -8.328174 
L 239.528085 -8.589383 
L 240.309707 -8.864686 
L 241.091329 -9.154458 
L 241.872951 -9.459225 
L 242.654573 -9.779806 
L 243.436196 -10.117404 
L 244.217818 -10.47365 
L 244.99944 -10.850547 
L 245.781062 -11.250337 
L 246.562684 -11.675277 
L 247.344306 -12.127348 
L 248.125928 -12.607943 
L 248.90755 -13.117555 
L 249.689172 -13.655533 
L 250.470794 -14.219921 
L 251.252416 -14.807435 
L 252.034038 -15.413567 
L 252.81566 -16.032818 
L 253.597283 -16.659041 
L 254.378905 -17.285855 
L 255.160527 -17.907097 
L 255.942149 -18.517274 
L 256.723771 -19.111972 
L 257.505393 -19.688206 
L 258.287015 -20.24466 
L 259.068637 -20.781808 
L 259.850259 -21.301876 
L 260.631881 -21.808638 
L 261.413503 -22.307044 
L 262.195125 -22.802707 
L 262.976747 -23.301293 
L 263.75837 -23.807889 
L 264.539992 -24.326434 
L 265.321614 -24.859294 
L 266.103236 -25.407051 
L 266.884858 -25.968538 
L 267.66648 -26.541117 
L 268.448102 -27.121167 
L 269.229724 -27.704696 
L 270.011346 -28.287995 
L 270.792968 -28.868237 
L 271.57459 -29.443916 
L 272.356212 -30.015071 
L 273.137834 -30.583225 
L 273.919457 -31.151053 
L 274.701079 -31.721772 
L 275.482701 -32.298354 
L 276.264323 -32.882646 
L 277.045945 -33.474563 
L 277.827567 -34.07148 
L 278.609189 -34.667988 
L 279.390811 -35.256078 
L 280.172433 -35.825796 
L 280.954055 -36.366285 
L 281.735677 -36.867081 
L 282.517299 -37.31945 
L 283.298921 -37.71755 
L 284.080543 -38.059212 
L 284.862166 -38.346207 
L 285.643788 -38.583949 
L 286.42541 -38.780689 
L 287.207032 -38.946321 
L 287.988654 -39.091022 
L 288.770276 -39.223913 
L 289.551898 -39.351972 
L 290.33352 -39.47933 
L 291.115142 -39.607056 
L 291.896764 -39.733425 
L 292.678386 -39.85459 
L 293.460008 -39.965537 
L 294.24163 -40.061124 
L 295.023253 -40.13703 
L 295.804875 -40.190443 
L 296.586497 -40.220364 
L 297.368119 -40.227511 
L 298.149741 -40.213839 
L 298.931363 -40.181811 
L 299.712985 -40.133575 
L 300.494607 -40.070239 
L 301.276229 -39.991386 
L 302.057851 -39.894966 
L 302.839473 -39.777562 
L 303.621095 -39.635 
L 304.402717 -39.46317 
L 305.18434 -39.258881 
L 305.965962 -39.020587 
L 306.747584 -38.748798 
L 307.529206 -38.446106 
L 308.310828 -38.116778 
L 309.09245 -37.766004 
L 309.874072 -37.398917 
L 310.655694 -37.01958 
L 311.437316 -36.630134 
L 312.218938 -36.230265 
L 313.00056 -35.817102 
L 313.782182 -35.385569 
L 314.563804 -34.929126 
L 315.345427 -34.440786 
L 316.127049 -33.914234 
L 316.908671 -33.344887 
L 317.690293 -32.730738 
L 318.471915 -32.072876 
L 319.253537 -31.375652 
L 320.035159 -30.646451 
L 320.816781 -29.89516 
L 321.598403 -29.133359 
L 322.380025 -28.373355 
L 323.161647 -27.627149 
L 323.943269 -26.905425 
L 324.724891 -26.216686 
L 325.506514 -25.566593 
L 326.288136 -24.957608 
L 327.069758 -24.388957 
L 327.85138 -23.85694 
L 328.633002 -23.355532 
L 329.414624 -22.877207 
L 330.196246 -22.413855 
L 330.977868 -21.957678 
L 331.75949 -21.501929 
L 332.541112 -21.041411 
L 333.322734 -20.572702 
L 334.104356 -20.094106 
L 334.885978 -19.605398 
L 335.667601 -19.107445 
L 336.449223 -18.601804 
L 337.230845 -18.090372 
L 338.012467 -17.575136 
L 338.794089 -17.058037 
L 339.575711 -16.540939 
L 340.357333 -16.025649 
L 341.138955 -15.513976 
L 341.920577 -15.007763 
L 342.702199 -14.508898 
L 343.483821 -14.01927 
L 344.265443 -13.540697 
L 345.047065 -13.074823 
L 345.828687 -12.623002 
L 346.61031 -12.186199 
L 347.391932 -11.764906 
L 348.173554 -11.359106 
L 348.955176 -10.96828 
L 349.736798 -10.591475 
L 350.51842 -10.227419 
L 351.300042 -9.874678 
L 352.081664 -9.531838 
L 352.863286 -9.197684 
L 353.644908 -8.871365 
L 354.42653 -8.552517 
L 355.208152 -8.241324 
L 355.989774 -7.938528 
L 356.771397 -7.645368 
L 357.553019 -7.363454 
L 358.334641 -7.094597 
L 359.116263 -6.840588 
L 359.897885 -6.602968 
L 360.679507 -6.382789 
L 361.461129 -6.180421 
L 362.242751 -5.995413 
L 363.024373 -5.826458 
L 363.805995 -5.671455 
L 364.587617 -5.527684 
L 365.369239 -5.392069 
L 366.150861 -5.261498 
L 366.932484 -5.133138 
L 367.714106 -5.004723 
L 368.495728 -4.874751 
L 369.27735 -4.742574 
L 370.058972 -4.608381 
L 370.840594 -4.473076 
L 371.622216 -4.338081 
L 371.622216 -2.470909 
L 371.622216 -2.470909 
L 370.840594 -2.470909 
L 370.058972 -2.470909 
L 369.27735 -2.470909 
L 368.495728 -2.470909 
L 367.714106 -2.470909 
L 366.932484 -2.470909 
L 366.150861 -2.470909 
L 365.369239 -2.470909 
L 364.587617 -2.470909 
L 363.805995 -2.470909 
L 363.024373 -2.470909 
L 362.242751 -2.470909 
L 361.461129 -2.470909 
L 360.679507 -2.470909 
L 359.897885 -2.470909 
L 359.116263 -2.470909 
L 358.334641 -2.470909 
L 357.553019 -2.470909 
L 356.771397 -2.470909 
L 355.989774 -2.470909 
L 355.208152 -2.470909 
L 354.42653 -2.470909 
L 353.644908 -2.470909 
L 352.863286 -2.470909 
L 352.081664 -2.470909 
L 351.300042 -2.470909 
L 350.51842 -2.470909 
L 349.736798 -2.470909 
L 348.955176 -2.470909 
L 348.173554 -2.470909 
L 347.391932 -2.470909 
L 346.61031 -2.470909 
L 345.828687 -2.470909 
L 345.047065 -2.470909 
L 344.265443 -2.470909 
L 343.483821 -2.470909 
L 342.702199 -2.470909 
L 341.920577 -2.470909 
L 341.138955 -2.470909 
L 340.357333 -2.470909 
L 339.575711 -2.470909 
L 338.794089 -2.470909 
L 338.012467 -2.470909 
L 337.230845 -2.470909 
L 336.449223 -2.470909 
L 335.667601 -2.470909 
L 334.885978 -2.470909 
L 334.104356 -2.470909 
L 333.322734 -2.470909 
L 332.541112 -2.470909 
L 331.75949 -2.470909 
L 330.977868 -2.470909 
L 330.196246 -2.470909 
L 329.414624 -2.470909 
L 328.633002 -2.470909 
L 327.85138 -2.470909 
L 327.069758 -2.470909 
L 326.288136 -2.470909 
L 325.506514 -2.470909 
L 324.724891 -2.470909 
L 323.943269 -2.470909 
L 323.161647 -2.470909 
L 322.380025 -2.470909 
L 321.598403 -2.470909 
L 320.816781 -2.470909 
L 320.035159 -2.470909 
L 319.253537 -2.470909 
L 318.471915 -2.470909 
L 317.690293 -2.470909 
L 316.908671 -2.470909 
L 316.127049 -2.470909 
L 315.345427 -2.470909 
L 314.563804 -2.470909 
L 313.782182 -2.470909 
L 313.00056 -2.470909 
L 312.218938 -2.470909 
L 311.437316 -2.470909 
L 310.655694 -2.470909 
L 309.874072 -2.470909 
L 309.09245 -2.470909 
L 308.310828 -2.470909 
L 307.529206 -2.470909 
L 306.747584 -2.470909 
L 305.965962 -2.470909 
L 305.18434 -2.470909 
L 304.402717 -2.470909 
L 303.621095 -2.470909 
L 302.839473 -2.470909 
L 302.057851 -2.470909 
L 301.276229 -2.470909 
L 300.494607 -2.470909 
L 299.712985 -2.470909 
L 298.931363 -2.470909 
L 298.149741 -2.470909 
L 297.368119 -2.470909 
L 296.586497 -2.470909 
L 295.804875 -2.470909 
L 295.023253 -2.470909 
L 294.24163 -2.470909 
L 293.460008 -2.470909 
L 292.678386 -2.470909 
L 291.896764 -2.470909 
L 291.115142 -2.470909 
L 290.33352 -2.470909 
L 289.551898 -2.470909 
L 288.770276 -2.470909 
L 287.988654 -2.470909 
L 287.207032 -2.470909 
L 286.42541 -2.470909 
L 285.643788 -2.470909 
L 284.862166 -2.470909 
L 284.080543 -2.470909 
L 283.298921 -2.470909 
L 282.517299 -2.470909 
L 281.735677 -2.470909 
L 280.954055 -2.470909 
L 280.172433 -2.470909 
L 279.390811 -2.470909 
L 278.609189 -2.470909 
L 277.827567 -2.470909 
L 277.045945 -2.470909 
L 276.264323 -2.470909 
L 275.482701 -2.470909 
L 274.701079 -2.470909 
L 273.919457 -2.470909 
L 273.137834 -2.470909 
L 272.356212 -2.470909 
L 271.57459 -2.470909 
L 270.792968 -2.470909 
L 270.011346 -2.470909 
L 269.229724 -2.470909 
L 268.448102 -2.470909 
L 267.66648 -2.470909 
L 266.884858 -2.470909 
L 266.103236 -2.470909 
L 265.321614 -2.470909 
L 264.539992 -2.470909 
L 263.75837 -2.470909 
L 262.976747 -2.470909 
L 262.195125 -2.470909 
L 261.413503 -2.470909 
L 260.631881 -2.470909 
L 259.850259 -2.470909 
L 259.068637 -2.470909 
L 258.287015 -2.470909 
L 257.505393 -2.470909 
L 256.723771 -2.470909 
L 255.942149 -2.470909 
L 255.160527 -2.470909 
L 254.378905 -2.470909 
L 253.597283 -2.470909 
L 252.81566 -2.470909 
L 252.034038 -2.470909 
L 251.252416 -2.470909 
L 250.470794 -2.470909 
L 249.689172 -2.470909 
L 248.90755 -2.470909 
L 248.125928 -2.470909 
L 247.344306 -2.470909 
L 246.562684 -2.470909 
L 245.781062 -2.470909 
L 244.99944 -2.470909 
L 244.217818 -2.470909 
L 243.436196 -2.470909 
L 242.654573 -2.470909 
L 241.872951 -2.470909 
L 241.091329 -2.470909 
L 240.309707 -2.470909 
L 239.528085 -2.470909 
L 238.746463 -2.470909 
L 237.964841 -2.470909 
L 237.183219 -2.470909 
L 236.401597 -2.470909 
L 235.619975 -2.470909 
L 234.838353 -2.470909 
L 234.056731 -2.470909 
L 233.275109 -2.470909 
L 232.493486 -2.470909 
L 231.711864 -2.470909 
L 230.930242 -2.470909 
L 230.14862 -2.470909 
L 229.366998 -2.470909 
L 228.585376 -2.470909 
L 227.803754 -2.470909 
L 227.022132 -2.470909 
L 226.24051 -2.470909 
L 225.458888 -2.470909 
L 224.677266 -2.470909 
L 223.895644 -2.470909 
L 223.114022 -2.470909 
L 222.332399 -2.470909 
L 221.550777 -2.470909 
z
" style="stroke: #cf1313; stroke-opacity: 0.2"/>
    </defs>
    <g clip-path="url(#pc6ae696136)">
     <use xlink:href="#mb743d1b052" x="0" y="54.36" style="fill: #cf1313; fill-opacity: 0.2; stroke: #cf1313; stroke-opacity: 0.2"/>
    </g>
   </g>
   <g id="PolyCollection_2">
    <defs>
     <path id="m3601ade5c0" d="M 338.794089 -2.470909 
L 338.794089 -4.240049 
L 339.575711 -4.324796 
L 340.357333 -4.408076 
L 341.138955 -4.490334 
L 341.920577 -4.572221 
L 342.702199 -4.654542 
L 343.483821 -4.73821 
L 344.265443 -4.824179 
L 345.047065 -4.913381 
L 345.828687 -5.006674 
L 346.61031 -5.104785 
L 347.391932 -5.208284 
L 348.173554 -5.317562 
L 348.955176 -5.432828 
L 349.736798 -5.554129 
L 350.51842 -5.681378 
L 351.300042 -5.81439 
L 352.081664 -5.952931 
L 352.863286 -6.096755 
L 353.644908 -6.24565 
L 354.42653 -6.39946 
L 355.208152 -6.558108 
L 355.989774 -6.721599 
L 356.771397 -6.890012 
L 357.553019 -7.063493 
L 358.334641 -7.242232 
L 359.116263 -7.426448 
L 359.897885 -7.616378 
L 360.679507 -7.812271 
L 361.461129 -8.014391 
L 362.242751 -8.223028 
L 363.024373 -8.438514 
L 363.805995 -8.661239 
L 364.587617 -8.891661 
L 365.369239 -9.13031 
L 366.150861 -9.377775 
L 366.932484 -9.634677 
L 367.714106 -9.901633 
L 368.495728 -10.179199 
L 369.27735 -10.467814 
L 370.058972 -10.767741 
L 370.840594 -11.079015 
L 371.622216 -11.401409 
L 372.403838 -11.734407 
L 373.18546 -12.077218 
L 373.967082 -12.428793 
L 374.748704 -12.787884 
L 375.530326 -13.153109 
L 376.311948 -13.523033 
L 377.093571 -13.896266 
L 377.875193 -14.271544 
L 378.656815 -14.647823 
L 379.438437 -15.024343 
L 380.220059 -15.400679 
L 381.001681 -15.776772 
L 381.783303 -16.152932 
L 382.564925 -16.529812 
L 383.346547 -16.908363 
L 384.128169 -17.289769 
L 384.909791 -17.675369 
L 385.691413 -18.06656 
L 386.473035 -18.464713 
L 387.254658 -18.871081 
L 388.03628 -19.286723 
L 388.817902 -19.71243 
L 389.599524 -20.148675 
L 390.381146 -20.595572 
L 391.162768 -21.052847 
L 391.94439 -21.519827 
L 392.726012 -21.995433 
L 393.507634 -22.478191 
L 394.289256 -22.966251 
L 395.070878 -23.457422 
L 395.8525 -23.949222 
L 396.634122 -24.438943 
L 397.415745 -24.923741 
L 398.197367 -25.400743 
L 398.978989 -25.867167 
L 399.760611 -26.320459 
L 400.542233 -26.758432 
L 401.323855 -27.179388 
L 402.105477 -27.582234 
L 402.887099 -27.966557 
L 403.668721 -28.332655 
L 404.450343 -28.681529 
L 405.231965 -29.014814 
L 406.013587 -29.334665 
L 406.795209 -29.643609 
L 407.576831 -29.944357 
L 408.358454 -30.239617 
L 409.140076 -30.531913 
L 409.921698 -30.823418 
L 410.70332 -31.115841 
L 411.484942 -31.410351 
L 412.266564 -31.707559 
L 413.048186 -32.007551 
L 413.829808 -32.309962 
L 414.61143 -32.614083 
L 415.393052 -32.918978 
L 416.174674 -33.223607 
L 416.956296 -33.526923 
L 417.737918 -33.827947 
L 418.519541 -34.125811 
L 419.301163 -34.419762 
L 420.082785 -34.70914 
L 420.864407 -34.993334 
L 421.646029 -35.271739 
L 422.427651 -35.543701 
L 423.209273 -35.808497 
L 423.990895 -36.065315 
L 424.772517 -36.313274 
L 425.554139 -36.551453 
L 426.335761 -36.778932 
L 427.117383 -36.99484 
L 427.899005 -37.198393 
L 428.680628 -37.388915 
L 429.46225 -37.56584 
L 430.243872 -37.728699 
L 431.025494 -37.877086 
L 431.807116 -38.010619 
L 432.588738 -38.128904 
L 433.37036 -38.231513 
L 434.151982 -38.317978 
L 434.933604 -38.387808 
L 435.715226 -38.440528 
L 436.496848 -38.475737 
L 437.27847 -38.493168 
L 438.060092 -38.492744 
L 438.841715 -38.474624 
L 439.623337 -38.439221 
L 440.404959 -38.387183 
L 441.186581 -38.319352 
L 441.968203 -38.236683 
L 442.749825 -38.140148 
L 443.531447 -38.030621 
L 444.313069 -37.908777 
L 445.094691 -37.774995 
L 445.876313 -37.629299 
L 446.657935 -37.471341 
L 447.439557 -37.300419 
L 448.221179 -37.115556 
L 449.002802 -36.915602 
L 449.784424 -36.699377 
L 450.566046 -36.465814 
L 451.347668 -36.214105 
L 452.12929 -35.943816 
L 452.910912 -35.654959 
L 453.692534 -35.348022 
L 454.474156 -35.023936 
L 455.255778 -34.683995 
L 456.0374 -34.329739 
L 456.819022 -33.962809 
L 457.600644 -33.584805 
L 458.382266 -33.197152 
L 459.163888 -32.800999 
L 459.945511 -32.39717 
L 460.727133 -31.986147 
L 461.508755 -31.568117 
L 462.290377 -31.143044 
L 463.071999 -30.710774 
L 463.853621 -30.271148 
L 464.635243 -29.824117 
L 465.416865 -29.369825 
L 466.198487 -28.908683 
L 466.980109 -28.441386 
L 467.761731 -27.968911 
L 468.543353 -27.492474 
L 469.324975 -27.013457 
L 470.106598 -26.533329 
L 470.88822 -26.053549 
L 471.669842 -25.575489 
L 472.451464 -25.100366 
L 473.233086 -24.6292 
L 474.014708 -24.162798 
L 474.79633 -23.701768 
L 475.577952 -23.246551 
L 476.359574 -22.797469 
L 477.141196 -22.35477 
L 477.922818 -21.918677 
L 478.70444 -21.489412 
L 479.486062 -21.067201 
L 480.267685 -20.652267 
L 481.049307 -20.244794 
L 481.830929 -19.844881 
L 482.612551 -19.452502 
L 483.394173 -19.067461 
L 484.175795 -18.68937 
L 484.957417 -18.317642 
L 485.739039 -17.951511 
L 486.520661 -17.590067 
L 487.302283 -17.232314 
L 488.083905 -16.877235 
L 488.865527 -16.523853 
L 489.647149 -16.171303 
L 490.428772 -15.818876 
L 491.210394 -15.466067 
L 491.992016 -15.112602 
L 492.773638 -14.758452 
L 493.55526 -14.403839 
L 494.336882 -14.049238 
L 495.118504 -13.69536 
L 495.900126 -13.343142 
L 496.681748 -12.993719 
L 497.46337 -12.648392 
L 498.244992 -12.308581 
L 499.026614 -11.975771 
L 499.808236 -11.651443 
L 500.589859 -11.336994 
L 501.371481 -11.033658 
L 502.153103 -10.742424 
L 502.934725 -10.463965 
L 503.716347 -10.198586 
L 504.497969 -9.946187 
L 505.279591 -9.706269 
L 506.061213 -9.477953 
L 506.842835 -9.260042 
L 507.624457 -9.051099 
L 508.406079 -8.849549 
L 509.187701 -8.653781 
L 509.969323 -8.462257 
L 510.750946 -8.273607 
L 511.532568 -8.086699 
L 512.31419 -7.900694 
L 513.095812 -7.715064 
L 513.877434 -7.529585 
L 514.659056 -7.34431 
L 515.440678 -7.159514 
L 516.2223 -6.975634 
L 517.003922 -6.793204 
L 517.785544 -6.612788 
L 518.567166 -6.43493 
L 519.348788 -6.260114 
L 520.13041 -6.088741 
L 520.912032 -5.92112 
L 521.693655 -5.757479 
L 522.475277 -5.597978 
L 523.256899 -5.442735 
L 524.038521 -5.291844 
L 524.820143 -5.145401 
L 525.601765 -5.003511 
L 526.383387 -4.866295 
L 527.165009 -4.733887 
L 527.946631 -4.606424 
L 528.728253 -4.484034 
L 529.509875 -4.366824 
L 530.291497 -4.254865 
L 531.073119 -4.148193 
L 531.854742 -4.046802 
L 532.636364 -3.950646 
L 532.636364 -2.470909 
L 532.636364 -2.470909 
L 531.854742 -2.470909 
L 531.073119 -2.470909 
L 530.291497 -2.470909 
L 529.509875 -2.470909 
L 528.728253 -2.470909 
L 527.946631 -2.470909 
L 527.165009 -2.470909 
L 526.383387 -2.470909 
L 525.601765 -2.470909 
L 524.820143 -2.470909 
L 524.038521 -2.470909 
L 523.256899 -2.470909 
L 522.475277 -2.470909 
L 521.693655 -2.470909 
L 520.912032 -2.470909 
L 520.13041 -2.470909 
L 519.348788 -2.470909 
L 518.567166 -2.470909 
L 517.785544 -2.470909 
L 517.003922 -2.470909 
L 516.2223 -2.470909 
L 515.440678 -2.470909 
L 514.659056 -2.470909 
L 513.877434 -2.470909 
L 513.095812 -2.470909 
L 512.31419 -2.470909 
L 511.532568 -2.470909 
L 510.750946 -2.470909 
L 509.969323 -2.470909 
L 509.187701 -2.470909 
L 508.406079 -2.470909 
L 507.624457 -2.470909 
L 506.842835 -2.470909 
L 506.061213 -2.470909 
L 505.279591 -2.470909 
L 504.497969 -2.470909 
L 503.716347 -2.470909 
L 502.934725 -2.470909 
L 502.153103 -2.470909 
L 501.371481 -2.470909 
L 500.589859 -2.470909 
L 499.808236 -2.470909 
L 499.026614 -2.470909 
L 498.244992 -2.470909 
L 497.46337 -2.470909 
L 496.681748 -2.470909 
L 495.900126 -2.470909 
L 495.118504 -2.470909 
L 494.336882 -2.470909 
L 493.55526 -2.470909 
L 492.773638 -2.470909 
L 491.992016 -2.470909 
L 491.210394 -2.470909 
L 490.428772 -2.470909 
L 489.647149 -2.470909 
L 488.865527 -2.470909 
L 488.083905 -2.470909 
L 487.302283 -2.470909 
L 486.520661 -2.470909 
L 485.739039 -2.470909 
L 484.957417 -2.470909 
L 484.175795 -2.470909 
L 483.394173 -2.470909 
L 482.612551 -2.470909 
L 481.830929 -2.470909 
L 481.049307 -2.470909 
L 480.267685 -2.470909 
L 479.486062 -2.470909 
L 478.70444 -2.470909 
L 477.922818 -2.470909 
L 477.141196 -2.470909 
L 476.359574 -2.470909 
L 475.577952 -2.470909 
L 474.79633 -2.470909 
L 474.014708 -2.470909 
L 473.233086 -2.470909 
L 472.451464 -2.470909 
L 471.669842 -2.470909 
L 470.88822 -2.470909 
L 470.106598 -2.470909 
L 469.324975 -2.470909 
L 468.543353 -2.470909 
L 467.761731 -2.470909 
L 466.980109 -2.470909 
L 466.198487 -2.470909 
L 465.416865 -2.470909 
L 464.635243 -2.470909 
L 463.853621 -2.470909 
L 463.071999 -2.470909 
L 462.290377 -2.470909 
L 461.508755 -2.470909 
L 460.727133 -2.470909 
L 459.945511 -2.470909 
L 459.163888 -2.470909 
L 458.382266 -2.470909 
L 457.600644 -2.470909 
L 456.819022 -2.470909 
L 456.0374 -2.470909 
L 455.255778 -2.470909 
L 454.474156 -2.470909 
L 453.692534 -2.470909 
L 452.910912 -2.470909 
L 452.12929 -2.470909 
L 451.347668 -2.470909 
L 450.566046 -2.470909 
L 449.784424 -2.470909 
L 449.002802 -2.470909 
L 448.221179 -2.470909 
L 447.439557 -2.470909 
L 446.657935 -2.470909 
L 445.876313 -2.470909 
L 445.094691 -2.470909 
L 444.313069 -2.470909 
L 443.531447 -2.470909 
L 442.749825 -2.470909 
L 441.968203 -2.470909 
L 441.186581 -2.470909 
L 440.404959 -2.470909 
L 439.623337 -2.470909 
L 438.841715 -2.470909 
L 438.060092 -2.470909 
L 437.27847 -2.470909 
L 436.496848 -2.470909 
L 435.715226 -2.470909 
L 434.933604 -2.470909 
L 434.151982 -2.470909 
L 433.37036 -2.470909 
L 432.588738 -2.470909 
L 431.807116 -2.470909 
L 431.025494 -2.470909 
L 430.243872 -2.470909 
L 429.46225 -2.470909 
L 428.680628 -2.470909 
L 427.899005 -2.470909 
L 427.117383 -2.470909 
L 426.335761 -2.470909 
L 425.554139 -2.470909 
L 424.772517 -2.470909 
L 423.990895 -2.470909 
L 423.209273 -2.470909 
L 422.427651 -2.470909 
L 421.646029 -2.470909 
L 420.864407 -2.470909 
L 420.082785 -2.470909 
L 419.301163 -2.470909 
L 418.519541 -2.470909 
L 417.737918 -2.470909 
L 416.956296 -2.470909 
L 416.174674 -2.470909 
L 415.393052 -2.470909 
L 414.61143 -2.470909 
L 413.829808 -2.470909 
L 413.048186 -2.470909 
L 412.266564 -2.470909 
L 411.484942 -2.470909 
L 410.70332 -2.470909 
L 409.921698 -2.470909 
L 409.140076 -2.470909 
L 408.358454 -2.470909 
L 407.576831 -2.470909 
L 406.795209 -2.470909 
L 406.013587 -2.470909 
L 405.231965 -2.470909 
L 404.450343 -2.470909 
L 403.668721 -2.470909 
L 402.887099 -2.470909 
L 402.105477 -2.470909 
L 401.323855 -2.470909 
L 400.542233 -2.470909 
L 399.760611 -2.470909 
L 398.978989 -2.470909 
L 398.197367 -2.470909 
L 397.415745 -2.470909 
L 396.634122 -2.470909 
L 395.8525 -2.470909 
L 395.070878 -2.470909 
L 394.289256 -2.470909 
L 393.507634 -2.470909 
L 392.726012 -2.470909 
L 391.94439 -2.470909 
L 391.162768 -2.470909 
L 390.381146 -2.470909 
L 389.599524 -2.470909 
L 388.817902 -2.470909 
L 388.03628 -2.470909 
L 387.254658 -2.470909 
L 386.473035 -2.470909 
L 385.691413 -2.470909 
L 384.909791 -2.470909 
L 384.128169 -2.470909 
L 383.346547 -2.470909 
L 382.564925 -2.470909 
L 381.783303 -2.470909 
L 381.001681 -2.470909 
L 380.220059 -2.470909 
L 379.438437 -2.470909 
L 378.656815 -2.470909 
L 377.875193 -2.470909 
L 377.093571 -2.470909 
L 376.311948 -2.470909 
L 375.530326 -2.470909 
L 374.748704 -2.470909 
L 373.967082 -2.470909 
L 373.18546 -2.470909 
L 372.403838 -2.470909 
L 371.622216 -2.470909 
L 370.840594 -2.470909 
L 370.058972 -2.470909 
L 369.27735 -2.470909 
L 368.495728 -2.470909 
L 367.714106 -2.470909 
L 366.932484 -2.470909 
L 366.150861 -2.470909 
L 365.369239 -2.470909 
L 364.587617 -2.470909 
L 363.805995 -2.470909 
L 363.024373 -2.470909 
L 362.242751 -2.470909 
L 361.461129 -2.470909 
L 360.679507 -2.470909 
L 359.897885 -2.470909 
L 359.116263 -2.470909 
L 358.334641 -2.470909 
L 357.553019 -2.470909 
L 356.771397 -2.470909 
L 355.989774 -2.470909 
L 355.208152 -2.470909 
L 354.42653 -2.470909 
L 353.644908 -2.470909 
L 352.863286 -2.470909 
L 352.081664 -2.470909 
L 351.300042 -2.470909 
L 350.51842 -2.470909 
L 349.736798 -2.470909 
L 348.955176 -2.470909 
L 348.173554 -2.470909 
L 347.391932 -2.470909 
L 346.61031 -2.470909 
L 345.828687 -2.470909 
L 345.047065 -2.470909 
L 344.265443 -2.470909 
L 343.483821 -2.470909 
L 342.702199 -2.470909 
L 341.920577 -2.470909 
L 341.138955 -2.470909 
L 340.357333 -2.470909 
L 339.575711 -2.470909 
L 338.794089 -2.470909 
z
" style="stroke: #116dc2; stroke-opacity: 0.2"/>
    </defs>
    <g clip-path="url(#pc6ae696136)">
     <use xlink:href="#m3601ade5c0" x="0" y="54.36" style="fill: #116dc2; fill-opacity: 0.2; stroke: #116dc2; stroke-opacity: 0.2"/>
    </g>
   </g>
   <g id="PolyCollection_3">
    <defs>
     <path id="m54b8323f6d" d="M 25.363636 -2.470909 
L 25.363636 -5.191732 
L 26.145258 -5.842404 
L 26.926881 -6.566334 
L 27.708503 -7.425383 
L 28.490125 -8.45925 
L 29.271747 -9.687776 
L 30.053369 -11.155314 
L 30.834991 -12.902861 
L 31.616613 -14.903348 
L 32.398235 -17.172919 
L 33.179857 -19.895616 
L 33.961479 -23.16827 
L 34.743101 -26.614639 
L 35.524723 -29.675078 
L 36.306345 -32.337077 
L 37.087968 -35.065152 
L 37.86959 -38.112422 
L 38.651212 -41.257344 
L 39.432834 -44.028931 
L 40.214456 -46.164279 
L 40.996078 -47.780501 
L 41.7777 -48.977515 
L 42.559322 -49.684712 
L 43.340944 -50.019889 
L 44.122566 -50.337002 
L 44.904188 -50.838575 
L 45.68581 -51.43244 
L 46.467432 -51.889091 
L 47.249054 -51.797997 
L 48.030677 -50.545047 
L 48.812299 -47.881118 
L 49.593921 -44.369997 
L 50.375543 -40.766425 
L 51.157165 -37.267926 
L 51.938787 -33.729994 
L 52.720409 -30.190691 
L 53.502031 -26.936982 
L 54.283653 -24.210716 
L 55.065275 -21.976739 
L 55.846897 -19.990146 
L 56.628519 -18.014459 
L 57.410141 -15.944292 
L 58.191764 -13.779008 
L 58.973386 -11.645118 
L 59.755008 -9.823155 
L 60.53663 -8.502506 
L 61.318252 -7.550537 
L 62.099874 -6.670166 
L 62.881496 -5.712566 
L 62.881496 -2.470909 
L 62.881496 -2.470909 
L 62.099874 -2.470909 
L 61.318252 -2.470909 
L 60.53663 -2.470909 
L 59.755008 -2.470909 
L 58.973386 -2.470909 
L 58.191764 -2.470909 
L 57.410141 -2.470909 
L 56.628519 -2.470909 
L 55.846897 -2.470909 
L 55.065275 -2.470909 
L 54.283653 -2.470909 
L 53.502031 -2.470909 
L 52.720409 -2.470909 
L 51.938787 -2.470909 
L 51.157165 -2.470909 
L 50.375543 -2.470909 
L 49.593921 -2.470909 
L 48.812299 -2.470909 
L 48.030677 -2.470909 
L 47.249054 -2.470909 
L 46.467432 -2.470909 
L 45.68581 -2.470909 
L 44.904188 -2.470909 
L 44.122566 -2.470909 
L 43.340944 -2.470909 
L 42.559322 -2.470909 
L 41.7777 -2.470909 
L 40.996078 -2.470909 
L 40.214456 -2.470909 
L 39.432834 -2.470909 
L 38.651212 -2.470909 
L 37.86959 -2.470909 
L 37.087968 -2.470909 
L 36.306345 -2.470909 
L 35.524723 -2.470909 
L 34.743101 -2.470909 
L 33.961479 -2.470909 
L 33.179857 -2.470909 
L 32.398235 -2.470909 
L 31.616613 -2.470909 
L 30.834991 -2.470909 
L 30.053369 -2.470909 
L 29.271747 -2.470909 
L 28.490125 -2.470909 
L 27.708503 -2.470909 
L 26.926881 -2.470909 
L 26.145258 -2.470909 
L 25.363636 -2.470909 
z
" style="stroke: #8a8a8a; stroke-opacity: 0.2"/>
    </defs>
    <g clip-path="url(#pc6ae696136)">
     <use xlink:href="#m54b8323f6d" x="0" y="54.36" style="fill: #8a8a8a; fill-opacity: 0.2; stroke: #8a8a8a; stroke-opacity: 0.2"/>
    </g>
   </g>
   <g id="line2d_1">
    <path d="M 221.550777 50.078292 
L 225.458888 49.298526 
L 235.619975 46.945815 
L 238.746463 46.031826 
L 241.872951 44.900775 
L 244.99944 43.509453 
L 247.344306 42.232652 
L 249.689172 40.704467 
L 252.81566 38.327182 
L 257.505393 34.671794 
L 260.631881 32.551362 
L 266.103236 28.952949 
L 273.919457 23.208947 
L 282.517299 17.04055 
L 284.080543 16.300788 
L 285.643788 15.776051 
L 287.988654 15.268978 
L 294.24163 14.298876 
L 296.586497 14.139636 
L 298.931363 14.178189 
L 302.057851 14.465034 
L 304.402717 14.89683 
L 306.747584 15.611202 
L 309.09245 16.593996 
L 313.00056 18.542898 
L 315.345427 19.919214 
L 317.690293 21.629262 
L 320.035159 23.713549 
L 324.724891 28.143314 
L 327.069758 29.971043 
L 329.414624 31.482793 
L 336.449223 35.758196 
L 345.047065 41.285177 
L 348.173554 43.000894 
L 351.300042 44.485322 
L 355.989774 46.421472 
L 359.116263 47.519412 
L 362.242751 48.364587 
L 366.150861 49.098502 
L 371.622216 50.021919 
L 371.622216 50.021919 
" clip-path="url(#pc6ae696136)" style="fill: none; stroke: #cf1313; stroke-width: 1.5; stroke-linecap: square"/>
   </g>
   <g id="line2d_2">
    <path d="M 338.794089 50.119951 
L 348.955176 48.927172 
L 353.644908 48.11435 
L 359.116263 46.933552 
L 363.805995 45.698761 
L 367.714106 44.458367 
L 371.622216 42.958591 
L 375.530326 41.206891 
L 385.691413 36.29344 
L 389.599524 34.211325 
L 393.507634 31.881809 
L 400.542233 27.601568 
L 403.668721 26.027345 
L 406.795209 24.716391 
L 422.427651 18.816299 
L 426.335761 17.581068 
L 429.46225 16.79416 
L 432.588738 16.231096 
L 435.715226 15.919472 
L 438.841715 15.885376 
L 441.968203 16.123317 
L 445.094691 16.585005 
L 448.221179 17.244444 
L 451.347668 18.145895 
L 454.474156 19.336064 
L 457.600644 20.775195 
L 462.290377 23.216956 
L 466.980109 25.918614 
L 477.922818 32.441323 
L 482.612551 34.907498 
L 488.083905 37.482765 
L 500.589859 43.023006 
L 503.716347 44.161414 
L 507.624457 45.308901 
L 514.659056 47.01569 
L 522.475277 48.762022 
L 527.946631 49.753576 
L 532.636364 50.409354 
L 532.636364 50.409354 
" clip-path="url(#pc6ae696136)" style="fill: none; stroke: #116dc2; stroke-width: 1.5; stroke-linecap: square"/>
   </g>
   <g id="line2d_3">
    <path d="M 25.363636 49.168268 
L 26.145258 48.517596 
L 26.926881 47.793666 
L 27.708503 46.934617 
L 28.490125 45.90075 
L 29.271747 44.672224 
L 30.053369 43.204686 
L 30.834991 41.457139 
L 31.616613 39.456652 
L 32.398235 37.187081 
L 33.179857 34.464384 
L 33.961479 31.19173 
L 34.743101 27.745361 
L 35.524723 24.684922 
L 36.306345 22.022923 
L 37.087968 19.294848 
L 37.86959 16.247578 
L 38.651212 13.102656 
L 39.432834 10.331069 
L 40.214456 8.195721 
L 40.996078 6.579499 
L 41.7777 5.382485 
L 42.559322 4.675288 
L 43.340944 4.340111 
L 44.122566 4.022998 
L 44.904188 3.521425 
L 45.68581 2.92756 
L 46.467432 2.470909 
L 47.249054 2.562003 
L 48.030677 3.814953 
L 48.812299 6.478882 
L 49.593921 9.990003 
L 50.375543 13.593575 
L 51.157165 17.092074 
L 51.938787 20.630006 
L 52.720409 24.169309 
L 53.502031 27.423018 
L 54.283653 30.149284 
L 55.065275 32.383261 
L 55.846897 34.369854 
L 56.628519 36.345541 
L 57.410141 38.415708 
L 58.191764 40.580992 
L 58.973386 42.714882 
L 59.755008 44.536845 
L 60.53663 45.857494 
L 61.318252 46.809463 
L 62.099874 47.689834 
L 62.881496 48.647434 
" clip-path="url(#pc6ae696136)" style="fill: none; stroke: #8a8a8a; stroke-width: 1.5; stroke-linecap: square"/>
   </g>
  </g>
 </g>
 <defs>
  <clipPath id="pc6ae696136">
   <rect x="0" y="-0" width="558" height="54.36"/>
  </clipPath>
 </defs>
</svg>
