<?xml version="1.0" encoding="utf-8" standalone="no"?>
<!DOCTYPE svg PUBLIC "-//W3C//DTD SVG 1.1//EN"
  "http://www.w3.org/Graphics/SVG/1.1/DTD/svg11.dtd">
<svg xmlns:xlink="http://www.w3.org/1999/xlink" width="558pt" height="54.36pt" viewBox="0 0 558 54.36" xmlns="http://www.w3.org/2000/svg" version="1.1">
 <metadata>
  <rdf:RDF xmlns:dc="http://purl.org/dc/elements/1.1/" xmlns:cc="http://creativecommons.org/ns#" xmlns:rdf="http://www.w3.org/1999/02/22-rdf-syntax-ns#">
   <cc:Work>
    <dc:type rdf:resource="http://purl.org/dc/dcmitype/StillImage"/>
    <dc:date>2024-09-15T09:31:40.230269</dc:date>
    <dc:format>image/svg+xml</dc:format>
    <dc:creator>
     <cc:Agent>
      <dc:title>Matplotlib v3.5.2, https://matplotlib.org/</dc:title>
     </cc:Agent>
    </dc:creator>
   </cc:Work>
  </rdf:RDF>
 </metadata>
 <defs>
  <style type="text/css">*{stroke-linejoin: round; stroke-linecap: butt}</style>
 </defs>
 <g id="figure_1">
  <g id="patch_1">
   <path d="M 0 54.36 
L 558 54.36 
L 558 0 
L 0 0 
L 0 54.36 
z
" style="fill: none; opacity: 0"/>
  </g>
  <g id="axes_1">
   <g id="PolyCollection_1">
    <defs>
     <path id="m8e1fdc741c" d="M 220.948052 -2.470909 
L 220.948052 -4.029395 
L 221.727273 -4.149717 
L 222.506494 -4.276781 
L 223.285714 -4.410253 
L 224.064935 -4.549868 
L 224.844156 -4.695499 
L 225.623377 -4.847226 
L 226.402597 -5.005397 
L 227.181818 -5.170653 
L 227.961039 -5.343904 
L 228.74026 -5.526248 
L 229.519481 -5.718833 
L 230.298701 -5.922687 
L 231.077922 -6.138546 
L 231.857143 -6.366728 
L 232.636364 -6.607069 
L 233.415584 -6.858975 
L 234.194805 -7.121555 
L 234.974026 -7.393843 
L 235.753247 -7.675042 
L 236.532468 -7.964752 
L 237.311688 -8.26313 
L 238.090909 -8.570941 
L 238.87013 -8.889497 
L 239.649351 -9.220482 
L 240.428571 -9.565714 
L 241.207792 -9.926875 
L 241.987013 -10.305267 
L 242.766234 -10.701631 
L 243.545455 -11.116053 
L 244.324675 -11.547962 
L 245.103896 -11.996201 
L 245.883117 -12.459166 
L 246.662338 -12.934966 
L 247.441558 -13.421597 
L 248.220779 -13.917108 
L 249 -14.419751 
L 249.779221 -14.928103 
L 250.558442 -15.441152 
L 251.337662 -15.958345 
L 252.116883 -16.479575 
L 252.896104 -17.0051 
L 253.675325 -17.535412 
L 254.454545 -18.071035 
L 255.233766 -18.612317 
L 256.012987 -19.159227 
L 256.792208 -19.711216 
L 257.571429 -20.267172 
L 258.350649 -20.825497 
L 259.12987 -21.38431 
L 259.909091 -21.94174 
L 260.688312 -22.496277 
L 261.467532 -23.047098 
L 262.246753 -23.594302 
L 263.025974 -24.138992 
L 263.805195 -24.683163 
L 264.584416 -25.229383 
L 265.363636 -25.780305 
L 266.142857 -26.338074 
L 266.922078 -26.903731 
L 267.701299 -27.47672 
L 268.480519 -28.054607 
L 269.25974 -28.633084 
L 270.038961 -29.206301 
L 270.818182 -29.7675 
L 271.597403 -30.309876 
L 272.376623 -30.827545 
L 273.155844 -31.316454 
L 273.935065 -31.775073 
L 274.714286 -32.204738 
L 275.493506 -32.609552 
L 276.272727 -32.995849 
L 277.051948 -33.371297 
L 277.831169 -33.743776 
L 278.61039 -34.120232 
L 279.38961 -34.505692 
L 280.168831 -34.902602 
L 280.948052 -35.310581 
L 281.727273 -35.726599 
L 282.506494 -36.145519 
L 283.285714 -36.560878 
L 284.064935 -36.96576 
L 284.844156 -37.353621 
L 285.623377 -37.71895 
L 286.402597 -38.057717 
L 287.181818 -38.367571 
L 287.961039 -38.647831 
L 288.74026 -38.899287 
L 289.519481 -39.123878 
L 290.298701 -39.324272 
L 291.077922 -39.503393 
L 291.857143 -39.663913 
L 292.636364 -39.807761 
L 293.415584 -39.935665 
L 294.194805 -40.046804 
L 294.974026 -40.138618 
L 295.753247 -40.206826 
L 296.532468 -40.245696 
L 297.311688 -40.248553 
L 298.090909 -40.208501 
L 298.87013 -40.119266 
L 299.649351 -39.976065 
L 300.428571 -39.776372 
L 301.207792 -39.520466 
L 301.987013 -39.21168 
L 302.766234 -38.856288 
L 303.545455 -38.46304 
L 304.324675 -38.042381 
L 305.103896 -37.60544 
L 305.883117 -37.16293 
L 306.662338 -36.724068 
L 307.441558 -36.295665 
L 308.220779 -35.881501 
L 309 -35.482044 
L 309.779221 -35.094554 
L 310.558442 -34.713537 
L 311.337662 -34.33149 
L 312.116883 -33.939831 
L 312.896104 -33.529907 
L 313.675325 -33.093975 
L 314.454545 -32.626038 
L 315.233766 -32.122482 
L 316.012987 -31.582434 
L 316.792208 -31.007817 
L 317.571429 -30.403096 
L 318.350649 -29.774747 
L 319.12987 -29.130512 
L 319.909091 -28.47853 
L 320.688312 -27.826467 
L 321.467532 -27.18077 
L 322.246753 -26.546117 
L 323.025974 -25.925164 
L 323.805195 -25.318568 
L 324.584416 -24.725272 
L 325.363636 -24.142971 
L 326.142857 -23.568676 
L 326.922078 -22.999276 
L 327.701299 -22.432034 
L 328.480519 -21.864967 
L 329.25974 -21.297072 
L 330.038961 -20.728415 
L 330.818182 -20.160089 
L 331.597403 -19.59405 
L 332.376623 -19.032878 
L 333.155844 -18.479474 
L 333.935065 -17.936726 
L 334.714286 -17.407187 
L 335.493506 -16.892783 
L 336.272727 -16.394586 
L 337.051948 -15.912689 
L 337.831169 -15.446172 
L 338.61039 -14.993202 
L 339.38961 -14.551226 
L 340.168831 -14.117265 
L 340.948052 -13.688265 
L 341.727273 -13.261469 
L 342.506494 -12.834765 
L 343.285714 -12.406949 
L 344.064935 -11.977886 
L 344.844156 -11.548509 
L 345.623377 -11.120686 
L 346.402597 -10.696961 
L 347.181818 -10.280212 
L 347.961039 -9.873303 
L 348.74026 -9.478775 
L 349.519481 -9.098638 
L 350.298701 -8.734276 
L 351.077922 -8.386479 
L 351.857143 -8.055558 
L 352.636364 -7.741506 
L 353.415584 -7.444169 
L 354.194805 -7.163362 
L 354.974026 -6.898942 
L 355.753247 -6.6508 
L 356.532468 -6.41881 
L 357.311688 -6.202749 
L 358.090909 -6.002206 
L 358.87013 -5.816521 
L 359.649351 -5.644755 
L 360.428571 -5.485698 
L 361.207792 -5.337928 
L 361.987013 -5.199882 
L 362.766234 -5.069948 
L 363.545455 -4.946564 
L 364.324675 -4.828284 
L 365.103896 -4.713837 
L 365.883117 -4.602159 
L 366.662338 -4.4924 
L 367.441558 -4.383931 
L 368.220779 -4.276344 
L 369 -4.169458 
L 369.779221 -4.063338 
L 369.779221 -2.470909 
L 369.779221 -2.470909 
L 369 -2.470909 
L 368.220779 -2.470909 
L 367.441558 -2.470909 
L 366.662338 -2.470909 
L 365.883117 -2.470909 
L 365.103896 -2.470909 
L 364.324675 -2.470909 
L 363.545455 -2.470909 
L 362.766234 -2.470909 
L 361.987013 -2.470909 
L 361.207792 -2.470909 
L 360.428571 -2.470909 
L 359.649351 -2.470909 
L 358.87013 -2.470909 
L 358.090909 -2.470909 
L 357.311688 -2.470909 
L 356.532468 -2.470909 
L 355.753247 -2.470909 
L 354.974026 -2.470909 
L 354.194805 -2.470909 
L 353.415584 -2.470909 
L 352.636364 -2.470909 
L 351.857143 -2.470909 
L 351.077922 -2.470909 
L 350.298701 -2.470909 
L 349.519481 -2.470909 
L 348.74026 -2.470909 
L 347.961039 -2.470909 
L 347.181818 -2.470909 
L 346.402597 -2.470909 
L 345.623377 -2.470909 
L 344.844156 -2.470909 
L 344.064935 -2.470909 
L 343.285714 -2.470909 
L 342.506494 -2.470909 
L 341.727273 -2.470909 
L 340.948052 -2.470909 
L 340.168831 -2.470909 
L 339.38961 -2.470909 
L 338.61039 -2.470909 
L 337.831169 -2.470909 
L 337.051948 -2.470909 
L 336.272727 -2.470909 
L 335.493506 -2.470909 
L 334.714286 -2.470909 
L 333.935065 -2.470909 
L 333.155844 -2.470909 
L 332.376623 -2.470909 
L 331.597403 -2.470909 
L 330.818182 -2.470909 
L 330.038961 -2.470909 
L 329.25974 -2.470909 
L 328.480519 -2.470909 
L 327.701299 -2.470909 
L 326.922078 -2.470909 
L 326.142857 -2.470909 
L 325.363636 -2.470909 
L 324.584416 -2.470909 
L 323.805195 -2.470909 
L 323.025974 -2.470909 
L 322.246753 -2.470909 
L 321.467532 -2.470909 
L 320.688312 -2.470909 
L 319.909091 -2.470909 
L 319.12987 -2.470909 
L 318.350649 -2.470909 
L 317.571429 -2.470909 
L 316.792208 -2.470909 
L 316.012987 -2.470909 
L 315.233766 -2.470909 
L 314.454545 -2.470909 
L 313.675325 -2.470909 
L 312.896104 -2.470909 
L 312.116883 -2.470909 
L 311.337662 -2.470909 
L 310.558442 -2.470909 
L 309.779221 -2.470909 
L 309 -2.470909 
L 308.220779 -2.470909 
L 307.441558 -2.470909 
L 306.662338 -2.470909 
L 305.883117 -2.470909 
L 305.103896 -2.470909 
L 304.324675 -2.470909 
L 303.545455 -2.470909 
L 302.766234 -2.470909 
L 301.987013 -2.470909 
L 301.207792 -2.470909 
L 300.428571 -2.470909 
L 299.649351 -2.470909 
L 298.87013 -2.470909 
L 298.090909 -2.470909 
L 297.311688 -2.470909 
L 296.532468 -2.470909 
L 295.753247 -2.470909 
L 294.974026 -2.470909 
L 294.194805 -2.470909 
L 293.415584 -2.470909 
L 292.636364 -2.470909 
L 291.857143 -2.470909 
L 291.077922 -2.470909 
L 290.298701 -2.470909 
L 289.519481 -2.470909 
L 288.74026 -2.470909 
L 287.961039 -2.470909 
L 287.181818 -2.470909 
L 286.402597 -2.470909 
L 285.623377 -2.470909 
L 284.844156 -2.470909 
L 284.064935 -2.470909 
L 283.285714 -2.470909 
L 282.506494 -2.470909 
L 281.727273 -2.470909 
L 280.948052 -2.470909 
L 280.168831 -2.470909 
L 279.38961 -2.470909 
L 278.61039 -2.470909 
L 277.831169 -2.470909 
L 277.051948 -2.470909 
L 276.272727 -2.470909 
L 275.493506 -2.470909 
L 274.714286 -2.470909 
L 273.935065 -2.470909 
L 273.155844 -2.470909 
L 272.376623 -2.470909 
L 271.597403 -2.470909 
L 270.818182 -2.470909 
L 270.038961 -2.470909 
L 269.25974 -2.470909 
L 268.480519 -2.470909 
L 267.701299 -2.470909 
L 266.922078 -2.470909 
L 266.142857 -2.470909 
L 265.363636 -2.470909 
L 264.584416 -2.470909 
L 263.805195 -2.470909 
L 263.025974 -2.470909 
L 262.246753 -2.470909 
L 261.467532 -2.470909 
L 260.688312 -2.470909 
L 259.909091 -2.470909 
L 259.12987 -2.470909 
L 258.350649 -2.470909 
L 257.571429 -2.470909 
L 256.792208 -2.470909 
L 256.012987 -2.470909 
L 255.233766 -2.470909 
L 254.454545 -2.470909 
L 253.675325 -2.470909 
L 252.896104 -2.470909 
L 252.116883 -2.470909 
L 251.337662 -2.470909 
L 250.558442 -2.470909 
L 249.779221 -2.470909 
L 249 -2.470909 
L 248.220779 -2.470909 
L 247.441558 -2.470909 
L 246.662338 -2.470909 
L 245.883117 -2.470909 
L 245.103896 -2.470909 
L 244.324675 -2.470909 
L 243.545455 -2.470909 
L 242.766234 -2.470909 
L 241.987013 -2.470909 
L 241.207792 -2.470909 
L 240.428571 -2.470909 
L 239.649351 -2.470909 
L 238.87013 -2.470909 
L 238.090909 -2.470909 
L 237.311688 -2.470909 
L 236.532468 -2.470909 
L 235.753247 -2.470909 
L 234.974026 -2.470909 
L 234.194805 -2.470909 
L 233.415584 -2.470909 
L 232.636364 -2.470909 
L 231.857143 -2.470909 
L 231.077922 -2.470909 
L 230.298701 -2.470909 
L 229.519481 -2.470909 
L 228.74026 -2.470909 
L 227.961039 -2.470909 
L 227.181818 -2.470909 
L 226.402597 -2.470909 
L 225.623377 -2.470909 
L 224.844156 -2.470909 
L 224.064935 -2.470909 
L 223.285714 -2.470909 
L 222.506494 -2.470909 
L 221.727273 -2.470909 
L 220.948052 -2.470909 
z
" style="stroke: #cf1313; stroke-opacity: 0.2"/>
    </defs>
    <g clip-path="url(#p86ef362f98)">
     <use xlink:href="#m8e1fdc741c" x="0" y="54.36" style="fill: #cf1313; fill-opacity: 0.2; stroke: #cf1313; stroke-opacity: 0.2"/>
    </g>
   </g>
   <g id="PolyCollection_2">
    <defs>
     <path id="m5f55599fcf" d="M 337.051948 -2.470909 
L 337.051948 -4.048853 
L 337.831169 -4.12248 
L 338.61039 -4.198765 
L 339.38961 -4.277984 
L 340.168831 -4.36042 
L 340.948052 -4.446358 
L 341.727273 -4.536084 
L 342.506494 -4.629886 
L 343.285714 -4.728046 
L 344.064935 -4.830835 
L 344.844156 -4.938504 
L 345.623377 -5.051272 
L 346.402597 -5.169317 
L 347.181818 -5.29276 
L 347.961039 -5.421665 
L 348.74026 -5.556039 
L 349.519481 -5.695839 
L 350.298701 -5.840997 
L 351.077922 -5.991446 
L 351.857143 -6.147162 
L 352.636364 -6.308206 
L 353.415584 -6.474766 
L 354.194805 -6.647197 
L 354.974026 -6.826044 
L 355.753247 -7.012051 
L 356.532468 -7.206146 
L 357.311688 -7.409405 
L 358.090909 -7.622992 
L 358.87013 -7.848076 
L 359.649351 -8.085743 
L 360.428571 -8.336891 
L 361.207792 -8.602139 
L 361.987013 -8.881737 
L 362.766234 -9.175514 
L 363.545455 -9.482836 
L 364.324675 -9.802619 
L 365.103896 -10.133358 
L 365.883117 -10.473204 
L 366.662338 -10.820062 
L 367.441558 -11.171714 
L 368.220779 -11.525946 
L 369 -11.880679 
L 369.779221 -12.234086 
L 370.558442 -12.584685 
L 371.337662 -12.931412 
L 372.116883 -13.273647 
L 372.896104 -13.611225 
L 373.675325 -13.944406 
L 374.454545 -14.273825 
L 375.233766 -14.600427 
L 376.012987 -14.925382 
L 376.792208 -15.250015 
L 377.571429 -15.575718 
L 378.350649 -15.903879 
L 379.12987 -16.235816 
L 379.909091 -16.572719 
L 380.688312 -16.915596 
L 381.467532 -17.265228 
L 382.246753 -17.622136 
L 383.025974 -17.986546 
L 383.805195 -18.358378 
L 384.584416 -18.737238 
L 385.363636 -19.122435 
L 386.142857 -19.513018 
L 386.922078 -19.907829 
L 387.701299 -20.305579 
L 388.480519 -20.704946 
L 389.25974 -21.104678 
L 390.038961 -21.503697 
L 390.818182 -21.901201 
L 391.597403 -22.296751 
L 392.376623 -22.690329 
L 393.155844 -23.082365 
L 393.935065 -23.473738 
L 394.714286 -23.865726 
L 395.493506 -24.25994 
L 396.272727 -24.658212 
L 397.051948 -25.062475 
L 397.831169 -25.474624 
L 398.61039 -25.89637 
L 399.38961 -26.329109 
L 400.168831 -26.773803 
L 400.948052 -27.230881 
L 401.727273 -27.700179 
L 402.506494 -28.180914 
L 403.285714 -28.671693 
L 404.064935 -29.17057 
L 404.844156 -29.675125 
L 405.623377 -30.182587 
L 406.402597 -30.689964 
L 407.181818 -31.194188 
L 407.961039 -31.692255 
L 408.74026 -32.181344 
L 409.519481 -32.658919 
L 410.298701 -33.122788 
L 411.077922 -33.57113 
L 411.857143 -34.002486 
L 412.636364 -34.415718 
L 413.415584 -34.809948 
L 414.194805 -35.184489 
L 414.974026 -35.53877 
L 415.753247 -35.872281 
L 416.532468 -36.184529 
L 417.311688 -36.475024 
L 418.090909 -36.743281 
L 418.87013 -36.988844 
L 419.649351 -37.21132 
L 420.428571 -37.410417 
L 421.207792 -37.585984 
L 421.987013 -37.738026 
L 422.766234 -37.866725 
L 423.545455 -37.972429 
L 424.324675 -38.055638 
L 425.103896 -38.116981 
L 425.883117 -38.157185 
L 426.662338 -38.177047 
L 427.441558 -38.177415 
L 428.220779 -38.159164 
L 429 -38.123192 
L 429.779221 -38.070416 
L 430.558442 -38.001764 
L 431.337662 -37.918185 
L 432.116883 -37.820643 
L 432.896104 -37.710122 
L 433.675325 -37.587625 
L 434.454545 -37.454181 
L 435.233766 -37.310849 
L 436.012987 -37.158724 
L 436.792208 -36.998951 
L 437.571429 -36.832731 
L 438.350649 -36.661325 
L 439.12987 -36.486052 
L 439.909091 -36.308266 
L 440.688312 -36.129331 
L 441.467532 -35.950568 
L 442.246753 -35.773197 
L 443.025974 -35.598264 
L 443.805195 -35.426567 
L 444.584416 -35.258583 
L 445.363636 -35.094414 
L 446.142857 -34.933742 
L 446.922078 -34.775822 
L 447.701299 -34.619499 
L 448.480519 -34.463265 
L 449.25974 -34.305338 
L 450.038961 -34.143787 
L 450.818182 -33.976654 
L 451.597403 -33.802107 
L 452.376623 -33.618568 
L 453.155844 -33.424837 
L 453.935065 -33.220173 
L 454.714286 -33.004329 
L 455.493506 -32.777539 
L 456.272727 -32.540449 
L 457.051948 -32.293992 
L 457.831169 -32.039237 
L 458.61039 -31.777203 
L 459.38961 -31.508688 
L 460.168831 -31.234113 
L 460.948052 -30.953413 
L 461.727273 -30.665984 
L 462.506494 -30.370702 
L 463.285714 -30.066008 
L 464.064935 -29.750046 
L 464.844156 -29.420852 
L 465.623377 -29.076553 
L 466.402597 -28.715565 
L 467.181818 -28.336771 
L 467.961039 -27.939643 
L 468.74026 -27.524315 
L 469.519481 -27.091595 
L 470.298701 -26.642911 
L 471.077922 -26.180222 
L 471.857143 -25.70588 
L 472.636364 -25.222483 
L 473.415584 -24.732722 
L 474.194805 -24.239236 
L 474.974026 -23.744489 
L 475.753247 -23.250672 
L 476.532468 -22.75963 
L 477.311688 -22.272819 
L 478.090909 -21.791281 
L 478.87013 -21.315647 
L 479.649351 -20.846156 
L 480.428571 -20.382686 
L 481.207792 -19.924811 
L 481.987013 -19.471864 
L 482.766234 -19.023017 
L 483.545455 -18.577372 
L 484.324675 -18.134056 
L 485.103896 -17.692312 
L 485.883117 -17.251589 
L 486.662338 -16.811604 
L 487.441558 -16.372391 
L 488.220779 -15.934317 
L 489 -15.498068 
L 489.779221 -15.064612 
L 490.558442 -14.635139 
L 491.337662 -14.210983 
L 492.116883 -13.793546 
L 492.896104 -13.38422 
L 493.675325 -12.984323 
L 494.454545 -12.595043 
L 495.233766 -12.217412 
L 496.012987 -11.852273 
L 496.792208 -11.500282 
L 497.571429 -11.161904 
L 498.350649 -10.83741 
L 499.12987 -10.526891 
L 499.909091 -10.230251 
L 500.688312 -9.947216 
L 501.467532 -9.677335 
L 502.246753 -9.419993 
L 503.025974 -9.174421 
L 503.805195 -8.939727 
L 504.584416 -8.714925 
L 505.363636 -8.498985 
L 506.142857 -8.290874 
L 506.922078 -8.089615 
L 507.701299 -7.894329 
L 508.480519 -7.704281 
L 509.25974 -7.518905 
L 510.038961 -7.337821 
L 510.818182 -7.160835 
L 511.597403 -6.987922 
L 512.376623 -6.819198 
L 513.155844 -6.654885 
L 513.935065 -6.495264 
L 514.714286 -6.340635 
L 515.493506 -6.191273 
L 516.272727 -6.047397 
L 517.051948 -5.909141 
L 517.831169 -5.776536 
L 518.61039 -5.649508 
L 519.38961 -5.527873 
L 520.168831 -5.411352 
L 520.948052 -5.299582 
L 521.727273 -5.19214 
L 522.506494 -5.088559 
L 523.285714 -4.988356 
L 524.064935 -4.891051 
L 524.844156 -4.796187 
L 525.623377 -4.703352 
L 526.402597 -4.612184 
L 527.181818 -4.522388 
L 527.961039 -4.43374 
L 528.74026 -4.346086 
L 529.519481 -4.259344 
L 530.298701 -4.173497 
L 531.077922 -4.088589 
L 531.857143 -4.004717 
L 532.636364 -3.922026 
L 532.636364 -2.470909 
L 532.636364 -2.470909 
L 531.857143 -2.470909 
L 531.077922 -2.470909 
L 530.298701 -2.470909 
L 529.519481 -2.470909 
L 528.74026 -2.470909 
L 527.961039 -2.470909 
L 527.181818 -2.470909 
L 526.402597 -2.470909 
L 525.623377 -2.470909 
L 524.844156 -2.470909 
L 524.064935 -2.470909 
L 523.285714 -2.470909 
L 522.506494 -2.470909 
L 521.727273 -2.470909 
L 520.948052 -2.470909 
L 520.168831 -2.470909 
L 519.38961 -2.470909 
L 518.61039 -2.470909 
L 517.831169 -2.470909 
L 517.051948 -2.470909 
L 516.272727 -2.470909 
L 515.493506 -2.470909 
L 514.714286 -2.470909 
L 513.935065 -2.470909 
L 513.155844 -2.470909 
L 512.376623 -2.470909 
L 511.597403 -2.470909 
L 510.818182 -2.470909 
L 510.038961 -2.470909 
L 509.25974 -2.470909 
L 508.480519 -2.470909 
L 507.701299 -2.470909 
L 506.922078 -2.470909 
L 506.142857 -2.470909 
L 505.363636 -2.470909 
L 504.584416 -2.470909 
L 503.805195 -2.470909 
L 503.025974 -2.470909 
L 502.246753 -2.470909 
L 501.467532 -2.470909 
L 500.688312 -2.470909 
L 499.909091 -2.470909 
L 499.12987 -2.470909 
L 498.350649 -2.470909 
L 497.571429 -2.470909 
L 496.792208 -2.470909 
L 496.012987 -2.470909 
L 495.233766 -2.470909 
L 494.454545 -2.470909 
L 493.675325 -2.470909 
L 492.896104 -2.470909 
L 492.116883 -2.470909 
L 491.337662 -2.470909 
L 490.558442 -2.470909 
L 489.779221 -2.470909 
L 489 -2.470909 
L 488.220779 -2.470909 
L 487.441558 -2.470909 
L 486.662338 -2.470909 
L 485.883117 -2.470909 
L 485.103896 -2.470909 
L 484.324675 -2.470909 
L 483.545455 -2.470909 
L 482.766234 -2.470909 
L 481.987013 -2.470909 
L 481.207792 -2.470909 
L 480.428571 -2.470909 
L 479.649351 -2.470909 
L 478.87013 -2.470909 
L 478.090909 -2.470909 
L 477.311688 -2.470909 
L 476.532468 -2.470909 
L 475.753247 -2.470909 
L 474.974026 -2.470909 
L 474.194805 -2.470909 
L 473.415584 -2.470909 
L 472.636364 -2.470909 
L 471.857143 -2.470909 
L 471.077922 -2.470909 
L 470.298701 -2.470909 
L 469.519481 -2.470909 
L 468.74026 -2.470909 
L 467.961039 -2.470909 
L 467.181818 -2.470909 
L 466.402597 -2.470909 
L 465.623377 -2.470909 
L 464.844156 -2.470909 
L 464.064935 -2.470909 
L 463.285714 -2.470909 
L 462.506494 -2.470909 
L 461.727273 -2.470909 
L 460.948052 -2.470909 
L 460.168831 -2.470909 
L 459.38961 -2.470909 
L 458.61039 -2.470909 
L 457.831169 -2.470909 
L 457.051948 -2.470909 
L 456.272727 -2.470909 
L 455.493506 -2.470909 
L 454.714286 -2.470909 
L 453.935065 -2.470909 
L 453.155844 -2.470909 
L 452.376623 -2.470909 
L 451.597403 -2.470909 
L 450.818182 -2.470909 
L 450.038961 -2.470909 
L 449.25974 -2.470909 
L 448.480519 -2.470909 
L 447.701299 -2.470909 
L 446.922078 -2.470909 
L 446.142857 -2.470909 
L 445.363636 -2.470909 
L 444.584416 -2.470909 
L 443.805195 -2.470909 
L 443.025974 -2.470909 
L 442.246753 -2.470909 
L 441.467532 -2.470909 
L 440.688312 -2.470909 
L 439.909091 -2.470909 
L 439.12987 -2.470909 
L 438.350649 -2.470909 
L 437.571429 -2.470909 
L 436.792208 -2.470909 
L 436.012987 -2.470909 
L 435.233766 -2.470909 
L 434.454545 -2.470909 
L 433.675325 -2.470909 
L 432.896104 -2.470909 
L 432.116883 -2.470909 
L 431.337662 -2.470909 
L 430.558442 -2.470909 
L 429.779221 -2.470909 
L 429 -2.470909 
L 428.220779 -2.470909 
L 427.441558 -2.470909 
L 426.662338 -2.470909 
L 425.883117 -2.470909 
L 425.103896 -2.470909 
L 424.324675 -2.470909 
L 423.545455 -2.470909 
L 422.766234 -2.470909 
L 421.987013 -2.470909 
L 421.207792 -2.470909 
L 420.428571 -2.470909 
L 419.649351 -2.470909 
L 418.87013 -2.470909 
L 418.090909 -2.470909 
L 417.311688 -2.470909 
L 416.532468 -2.470909 
L 415.753247 -2.470909 
L 414.974026 -2.470909 
L 414.194805 -2.470909 
L 413.415584 -2.470909 
L 412.636364 -2.470909 
L 411.857143 -2.470909 
L 411.077922 -2.470909 
L 410.298701 -2.470909 
L 409.519481 -2.470909 
L 408.74026 -2.470909 
L 407.961039 -2.470909 
L 407.181818 -2.470909 
L 406.402597 -2.470909 
L 405.623377 -2.470909 
L 404.844156 -2.470909 
L 404.064935 -2.470909 
L 403.285714 -2.470909 
L 402.506494 -2.470909 
L 401.727273 -2.470909 
L 400.948052 -2.470909 
L 400.168831 -2.470909 
L 399.38961 -2.470909 
L 398.61039 -2.470909 
L 397.831169 -2.470909 
L 397.051948 -2.470909 
L 396.272727 -2.470909 
L 395.493506 -2.470909 
L 394.714286 -2.470909 
L 393.935065 -2.470909 
L 393.155844 -2.470909 
L 392.376623 -2.470909 
L 391.597403 -2.470909 
L 390.818182 -2.470909 
L 390.038961 -2.470909 
L 389.25974 -2.470909 
L 388.480519 -2.470909 
L 387.701299 -2.470909 
L 386.922078 -2.470909 
L 386.142857 -2.470909 
L 385.363636 -2.470909 
L 384.584416 -2.470909 
L 383.805195 -2.470909 
L 383.025974 -2.470909 
L 382.246753 -2.470909 
L 381.467532 -2.470909 
L 380.688312 -2.470909 
L 379.909091 -2.470909 
L 379.12987 -2.470909 
L 378.350649 -2.470909 
L 377.571429 -2.470909 
L 376.792208 -2.470909 
L 376.012987 -2.470909 
L 375.233766 -2.470909 
L 374.454545 -2.470909 
L 373.675325 -2.470909 
L 372.896104 -2.470909 
L 372.116883 -2.470909 
L 371.337662 -2.470909 
L 370.558442 -2.470909 
L 369.779221 -2.470909 
L 369 -2.470909 
L 368.220779 -2.470909 
L 367.441558 -2.470909 
L 366.662338 -2.470909 
L 365.883117 -2.470909 
L 365.103896 -2.470909 
L 364.324675 -2.470909 
L 363.545455 -2.470909 
L 362.766234 -2.470909 
L 361.987013 -2.470909 
L 361.207792 -2.470909 
L 360.428571 -2.470909 
L 359.649351 -2.470909 
L 358.87013 -2.470909 
L 358.090909 -2.470909 
L 357.311688 -2.470909 
L 356.532468 -2.470909 
L 355.753247 -2.470909 
L 354.974026 -2.470909 
L 354.194805 -2.470909 
L 353.415584 -2.470909 
L 352.636364 -2.470909 
L 351.857143 -2.470909 
L 351.077922 -2.470909 
L 350.298701 -2.470909 
L 349.519481 -2.470909 
L 348.74026 -2.470909 
L 347.961039 -2.470909 
L 347.181818 -2.470909 
L 346.402597 -2.470909 
L 345.623377 -2.470909 
L 344.844156 -2.470909 
L 344.064935 -2.470909 
L 343.285714 -2.470909 
L 342.506494 -2.470909 
L 341.727273 -2.470909 
L 340.948052 -2.470909 
L 340.168831 -2.470909 
L 339.38961 -2.470909 
L 338.61039 -2.470909 
L 337.831169 -2.470909 
L 337.051948 -2.470909 
z
" style="stroke: #116dc2; stroke-opacity: 0.2"/>
    </defs>
    <g clip-path="url(#p86ef362f98)">
     <use xlink:href="#m5f55599fcf" x="0" y="54.36" style="fill: #116dc2; fill-opacity: 0.2; stroke: #116dc2; stroke-opacity: 0.2"/>
    </g>
   </g>
   <g id="PolyCollection_3">
    <defs>
     <path id="m56dec1de12" d="M 25.363636 -2.470909 
L 25.363636 -5.112845 
L 26.142857 -5.683747 
L 26.922078 -6.35152 
L 27.701299 -7.208429 
L 28.480519 -8.352575 
L 29.25974 -9.760111 
L 30.038961 -11.286409 
L 30.818182 -12.900153 
L 31.597403 -14.726324 
L 32.376623 -16.796652 
L 33.155844 -19.014857 
L 33.935065 -21.352201 
L 34.714286 -23.89432 
L 35.493506 -26.773638 
L 36.272727 -30.13926 
L 37.051948 -33.941249 
L 37.831169 -37.728873 
L 38.61039 -41.002707 
L 39.38961 -43.567553 
L 40.168831 -45.398519 
L 40.948052 -46.697025 
L 41.727273 -48.024693 
L 42.506494 -49.70788 
L 43.285714 -51.266158 
L 44.064935 -51.889091 
L 44.844156 -51.286186 
L 45.623377 -49.849289 
L 46.402597 -48.191312 
L 47.181818 -46.793653 
L 47.961039 -45.818255 
L 48.74026 -44.877045 
L 49.519481 -43.302406 
L 50.298701 -40.855928 
L 51.077922 -37.791095 
L 51.857143 -34.397812 
L 52.636364 -30.989946 
L 53.415584 -27.904574 
L 54.194805 -25.086566 
L 54.974026 -22.19319 
L 55.753247 -19.225351 
L 56.532468 -16.514118 
L 57.311688 -14.201265 
L 58.090909 -12.206009 
L 58.87013 -10.465231 
L 59.649351 -8.927806 
L 60.428571 -7.58301 
L 61.207792 -6.503973 
L 61.987013 -5.695728 
L 62.766234 -5.070605 
L 63.545455 -4.582177 
L 63.545455 -2.470909 
L 63.545455 -2.470909 
L 62.766234 -2.470909 
L 61.987013 -2.470909 
L 61.207792 -2.470909 
L 60.428571 -2.470909 
L 59.649351 -2.470909 
L 58.87013 -2.470909 
L 58.090909 -2.470909 
L 57.311688 -2.470909 
L 56.532468 -2.470909 
L 55.753247 -2.470909 
L 54.974026 -2.470909 
L 54.194805 -2.470909 
L 53.415584 -2.470909 
L 52.636364 -2.470909 
L 51.857143 -2.470909 
L 51.077922 -2.470909 
L 50.298701 -2.470909 
L 49.519481 -2.470909 
L 48.74026 -2.470909 
L 47.961039 -2.470909 
L 47.181818 -2.470909 
L 46.402597 -2.470909 
L 45.623377 -2.470909 
L 44.844156 -2.470909 
L 44.064935 -2.470909 
L 43.285714 -2.470909 
L 42.506494 -2.470909 
L 41.727273 -2.470909 
L 40.948052 -2.470909 
L 40.168831 -2.470909 
L 39.38961 -2.470909 
L 38.61039 -2.470909 
L 37.831169 -2.470909 
L 37.051948 -2.470909 
L 36.272727 -2.470909 
L 35.493506 -2.470909 
L 34.714286 -2.470909 
L 33.935065 -2.470909 
L 33.155844 -2.470909 
L 32.376623 -2.470909 
L 31.597403 -2.470909 
L 30.818182 -2.470909 
L 30.038961 -2.470909 
L 29.25974 -2.470909 
L 28.480519 -2.470909 
L 27.701299 -2.470909 
L 26.922078 -2.470909 
L 26.142857 -2.470909 
L 25.363636 -2.470909 
z
" style="stroke: #8a8a8a; stroke-opacity: 0.2"/>
    </defs>
    <g clip-path="url(#p86ef362f98)">
     <use xlink:href="#m56dec1de12" x="0" y="54.36" style="fill: #8a8a8a; fill-opacity: 0.2; stroke: #8a8a8a; stroke-opacity: 0.2"/>
    </g>
   </g>
   <g id="line2d_1">
    <path d="M 220.948052 50.330605 
L 225.623377 49.512774 
L 229.519481 48.641167 
L 232.636364 47.752931 
L 236.532468 46.395248 
L 240.428571 44.794286 
L 243.545455 43.243947 
L 246.662338 41.425034 
L 251.337662 38.401655 
L 256.792208 34.648784 
L 273.155844 23.043546 
L 275.493506 21.750448 
L 287.181818 15.992429 
L 289.519481 15.236122 
L 291.857143 14.696087 
L 294.974026 14.221382 
L 297.311688 14.111447 
L 298.87013 14.240734 
L 300.428571 14.583628 
L 301.987013 15.14832 
L 304.324675 16.317619 
L 309.779221 19.265446 
L 313.675325 21.266025 
L 316.012987 22.777566 
L 318.350649 24.585253 
L 324.584416 29.634728 
L 332.376623 35.327122 
L 336.272727 37.965414 
L 339.38961 39.808774 
L 347.961039 44.486697 
L 351.077922 45.973521 
L 354.194805 47.196638 
L 357.311688 48.157251 
L 360.428571 48.874302 
L 364.324675 49.531716 
L 369.779221 50.296662 
L 369.779221 50.296662 
" clip-path="url(#p86ef362f98)" style="fill: none; stroke: #cf1313; stroke-width: 1.5; stroke-linecap: square"/>
   </g>
   <g id="line2d_2">
    <path d="M 337.051948 50.311147 
L 343.285714 49.631954 
L 348.74026 48.803961 
L 354.194805 47.712803 
L 358.090909 46.737008 
L 361.207792 45.757861 
L 364.324675 44.557381 
L 369.779221 42.125914 
L 376.012987 39.434618 
L 382.246753 36.737864 
L 386.922078 34.452171 
L 400.168831 27.586197 
L 404.064935 25.18943 
L 410.298701 21.237212 
L 413.415584 19.550052 
L 415.753247 18.487719 
L 418.090909 17.616719 
L 420.428571 16.949583 
L 422.766234 16.493275 
L 425.103896 16.243019 
L 427.441558 16.182585 
L 430.558442 16.358236 
L 433.675325 16.772375 
L 437.571429 17.527269 
L 455.493506 21.582461 
L 459.38961 22.851312 
L 464.064935 24.609954 
L 467.181818 26.023229 
L 470.298701 27.717089 
L 474.974026 30.615511 
L 481.207792 34.435189 
L 489.779221 39.295388 
L 494.454545 41.764957 
L 497.571429 43.198096 
L 500.688312 44.412784 
L 504.584416 45.645075 
L 509.25974 46.841095 
L 514.714286 48.019365 
L 519.38961 48.832127 
L 525.623377 49.656648 
L 532.636364 50.437974 
L 532.636364 50.437974 
" clip-path="url(#p86ef362f98)" style="fill: none; stroke: #116dc2; stroke-width: 1.5; stroke-linecap: square"/>
   </g>
   <g id="line2d_3">
    <path d="M 25.363636 49.247155 
L 26.142857 48.676253 
L 26.922078 48.00848 
L 27.701299 47.151571 
L 28.480519 46.007425 
L 29.25974 44.599889 
L 30.038961 43.073591 
L 30.818182 41.459847 
L 31.597403 39.633676 
L 32.376623 37.563348 
L 33.155844 35.345143 
L 33.935065 33.007799 
L 34.714286 30.46568 
L 35.493506 27.586362 
L 36.272727 24.22074 
L 37.051948 20.418751 
L 37.831169 16.631127 
L 38.61039 13.357293 
L 39.38961 10.792447 
L 40.168831 8.961481 
L 40.948052 7.662975 
L 41.727273 6.335307 
L 42.506494 4.65212 
L 43.285714 3.093842 
L 44.064935 2.470909 
L 44.844156 3.073814 
L 45.623377 4.510711 
L 46.402597 6.168688 
L 47.181818 7.566347 
L 47.961039 8.541745 
L 48.74026 9.482955 
L 49.519481 11.057594 
L 50.298701 13.504072 
L 51.077922 16.568905 
L 51.857143 19.962188 
L 52.636364 23.370054 
L 53.415584 26.455426 
L 54.194805 29.273434 
L 54.974026 32.16681 
L 55.753247 35.134649 
L 56.532468 37.845882 
L 57.311688 40.158735 
L 58.090909 42.153991 
L 58.87013 43.894769 
L 59.649351 45.432194 
L 60.428571 46.77699 
L 61.207792 47.856027 
L 61.987013 48.664272 
L 62.766234 49.289395 
L 63.545455 49.777823 
" clip-path="url(#p86ef362f98)" style="fill: none; stroke: #8a8a8a; stroke-width: 1.5; stroke-linecap: square"/>
   </g>
  </g>
 </g>
 <defs>
  <clipPath id="p86ef362f98">
   <rect x="0" y="-0" width="558" height="54.36"/>
  </clipPath>
 </defs>
</svg>
