<?xml version="1.0" encoding="utf-8" standalone="no"?>
<!DOCTYPE svg PUBLIC "-//W3C//DTD SVG 1.1//EN"
  "http://www.w3.org/Graphics/SVG/1.1/DTD/svg11.dtd">
<svg xmlns:xlink="http://www.w3.org/1999/xlink" width="558pt" height="54.36pt" viewBox="0 0 558 54.36" xmlns="http://www.w3.org/2000/svg" version="1.1">
 <metadata>
  <rdf:RDF xmlns:dc="http://purl.org/dc/elements/1.1/" xmlns:cc="http://creativecommons.org/ns#" xmlns:rdf="http://www.w3.org/1999/02/22-rdf-syntax-ns#">
   <cc:Work>
    <dc:type rdf:resource="http://purl.org/dc/dcmitype/StillImage"/>
    <dc:date>2024-09-15T09:31:00.439112</dc:date>
    <dc:format>image/svg+xml</dc:format>
    <dc:creator>
     <cc:Agent>
      <dc:title>Matplotlib v3.5.2, https://matplotlib.org/</dc:title>
     </cc:Agent>
    </dc:creator>
   </cc:Work>
  </rdf:RDF>
 </metadata>
 <defs>
  <style type="text/css">*{stroke-linejoin: round; stroke-linecap: butt}</style>
 </defs>
 <g id="figure_1">
  <g id="patch_1">
   <path d="M 0 54.36 
L 558 54.36 
L 558 0 
L 0 0 
L 0 54.36 
z
" style="fill: none; opacity: 0"/>
  </g>
  <g id="axes_1">
   <g id="PolyCollection_1">
    <defs>
     <path id="m419837bf59" d="M 370.534904 -2.470909 
L 370.534904 -3.919496 
L 371.341379 -4.052258 
L 372.147854 -4.1932 
L 372.954329 -4.340813 
L 373.760804 -4.493535 
L 374.567279 -4.649927 
L 375.373753 -4.808831 
L 376.180228 -4.969493 
L 376.986703 -5.131616 
L 377.793178 -5.29533 
L 378.599653 -5.461083 
L 379.406128 -5.629467 
L 380.212603 -5.80103 
L 381.019078 -5.9761 
L 381.825553 -6.154687 
L 382.632028 -6.336476 
L 383.438503 -6.520934 
L 384.244978 -6.707505 
L 385.051453 -6.895858 
L 385.857927 -7.086131 
L 386.664402 -7.279117 
L 387.470877 -7.476343 
L 388.277352 -7.680002 
L 389.083827 -7.892772 
L 389.890302 -8.117515 
L 390.696777 -8.356939 
L 391.503252 -8.61327 
L 392.309727 -8.888001 
L 393.116202 -9.181764 
L 393.922677 -9.494341 
L 394.729152 -9.824808 
L 395.535627 -10.171772 
L 396.342101 -10.533659 
L 397.148576 -10.908986 
L 397.955051 -11.296582 
L 398.761526 -11.695714 
L 399.568001 -12.106128 
L 400.374476 -12.528007 
L 401.180951 -12.961879 
L 401.987426 -13.408523 
L 402.793901 -13.868882 
L 403.600376 -14.344021 
L 404.406851 -14.835112 
L 405.213326 -15.34344 
L 406.019801 -15.870393 
L 406.826275 -16.41741 
L 407.63275 -16.985854 
L 408.439225 -17.576827 
L 409.2457 -18.190912 
L 410.052175 -18.827902 
L 410.85865 -19.486536 
L 411.665125 -20.164323 
L 412.4716 -20.857459 
L 413.278075 -21.560902 
L 414.08455 -22.26858 
L 414.891025 -22.97374 
L 415.6975 -23.669384 
L 416.503975 -24.348765 
L 417.310449 -25.005873 
L 418.116924 -25.635864 
L 418.923399 -26.235403 
L 419.729874 -26.802863 
L 420.536349 -27.33839 
L 421.342824 -27.843815 
L 422.149299 -28.322422 
L 422.955774 -28.778611 
L 423.762249 -29.217467 
L 424.568724 -29.64429 
L 425.375199 -30.064119 
L 426.181674 -30.481306 
L 426.988149 -30.89917 
L 427.794624 -31.319784 
L 428.601098 -31.7439 
L 429.407573 -32.171027 
L 430.214048 -32.599651 
L 431.020523 -33.027546 
L 431.826998 -33.452138 
L 432.633473 -33.870849 
L 433.439948 -34.281376 
L 434.246423 -34.681855 
L 435.052898 -35.070896 
L 435.859373 -35.447508 
L 436.665848 -35.810941 
L 437.472323 -36.160515 
L 438.278798 -36.495475 
L 439.085272 -36.814927 
L 439.891747 -37.11786 
L 440.698222 -37.403257 
L 441.504697 -37.670246 
L 442.311172 -37.918247 
L 443.117647 -38.147076 
L 443.924122 -38.356955 
L 444.730597 -38.548438 
L 445.537072 -38.72226 
L 446.343547 -38.879141 
L 447.150022 -39.019587 
L 447.956497 -39.143733 
L 448.762972 -39.251237 
L 449.569446 -39.341232 
L 450.375921 -39.412338 
L 451.182396 -39.462694 
L 451.988871 -39.490026 
L 452.795346 -39.49172 
L 453.601821 -39.464942 
L 454.408296 -39.406786 
L 455.214771 -39.314492 
L 456.021246 -39.185713 
L 456.827721 -39.018806 
L 457.634196 -38.81311 
L 458.440671 -38.569148 
L 459.247146 -38.288713 
L 460.05362 -37.974799 
L 460.860095 -37.631389 
L 461.66657 -37.26313 
L 462.473045 -36.874944 
L 463.27952 -36.471647 
L 464.085995 -36.057626 
L 464.89247 -35.636606 
L 465.698945 -35.211527 
L 466.50542 -34.784505 
L 467.311895 -34.356865 
L 468.11837 -33.929225 
L 468.924845 -33.501599 
L 469.73132 -33.073532 
L 470.537794 -32.644238 
L 471.344269 -32.212762 
L 472.150744 -31.778127 
L 472.957219 -31.339464 
L 473.763694 -30.896111 
L 474.570169 -30.447638 
L 475.376644 -29.993823 
L 476.183119 -29.534573 
L 476.989594 -29.069828 
L 477.796069 -28.599474 
L 478.602544 -28.1233 
L 479.409019 -27.64101 
L 480.215494 -27.15229 
L 481.021968 -26.656904 
L 481.828443 -26.154772 
L 482.634918 -25.646011 
L 483.441393 -25.13091 
L 484.247868 -24.609833 
L 485.054343 -24.083095 
L 485.860818 -23.550832 
L 486.667293 -23.012932 
L 487.473768 -22.46905 
L 488.280243 -21.918725 
L 489.086718 -21.361571 
L 489.893193 -20.797503 
L 490.699668 -20.226935 
L 491.506143 -19.650892 
L 492.312617 -19.07101 
L 493.119092 -18.489411 
L 493.925567 -17.908497 
L 494.732042 -17.330711 
L 495.538517 -16.758337 
L 496.344992 -16.193372 
L 497.151467 -15.637526 
L 497.957942 -15.092304 
L 498.764417 -14.559169 
L 499.570892 -14.039706 
L 500.377367 -13.535733 
L 501.183842 -13.049329 
L 501.990317 -12.582738 
L 502.796791 -12.138179 
L 503.603266 -11.717594 
L 504.409741 -11.322367 
L 505.216216 -10.953103 
L 506.022691 -10.609474 
L 506.829166 -10.290191 
L 507.635641 -9.993074 
L 508.442116 -9.715239 
L 509.248591 -9.453334 
L 510.055066 -9.203819 
L 510.861541 -8.963229 
L 511.668016 -8.72841 
L 512.474491 -8.496709 
L 513.280965 -8.266101 
L 514.08744 -8.035276 
L 514.893915 -7.803672 
L 515.70039 -7.571478 
L 516.506865 -7.339587 
L 517.31334 -7.109515 
L 518.119815 -6.883274 
L 518.92629 -6.663199 
L 519.732765 -6.451736 
L 520.53924 -6.251198 
L 521.345715 -6.063527 
L 522.15219 -5.89007 
L 522.958665 -5.731416 
L 523.765139 -5.587295 
L 524.571614 -5.45658 
L 525.378089 -5.337372 
L 526.184564 -5.227164 
L 526.991039 -5.123067 
L 527.797514 -5.022072 
L 528.603989 -4.921318 
L 529.410464 -4.81833 
L 530.216939 -4.71123 
L 531.023414 -4.598874 
L 531.829889 -4.480929 
L 532.636364 -4.357869 
L 532.636364 -2.470909 
L 532.636364 -2.470909 
L 531.829889 -2.470909 
L 531.023414 -2.470909 
L 530.216939 -2.470909 
L 529.410464 -2.470909 
L 528.603989 -2.470909 
L 527.797514 -2.470909 
L 526.991039 -2.470909 
L 526.184564 -2.470909 
L 525.378089 -2.470909 
L 524.571614 -2.470909 
L 523.765139 -2.470909 
L 522.958665 -2.470909 
L 522.15219 -2.470909 
L 521.345715 -2.470909 
L 520.53924 -2.470909 
L 519.732765 -2.470909 
L 518.92629 -2.470909 
L 518.119815 -2.470909 
L 517.31334 -2.470909 
L 516.506865 -2.470909 
L 515.70039 -2.470909 
L 514.893915 -2.470909 
L 514.08744 -2.470909 
L 513.280965 -2.470909 
L 512.474491 -2.470909 
L 511.668016 -2.470909 
L 510.861541 -2.470909 
L 510.055066 -2.470909 
L 509.248591 -2.470909 
L 508.442116 -2.470909 
L 507.635641 -2.470909 
L 506.829166 -2.470909 
L 506.022691 -2.470909 
L 505.216216 -2.470909 
L 504.409741 -2.470909 
L 503.603266 -2.470909 
L 502.796791 -2.470909 
L 501.990317 -2.470909 
L 501.183842 -2.470909 
L 500.377367 -2.470909 
L 499.570892 -2.470909 
L 498.764417 -2.470909 
L 497.957942 -2.470909 
L 497.151467 -2.470909 
L 496.344992 -2.470909 
L 495.538517 -2.470909 
L 494.732042 -2.470909 
L 493.925567 -2.470909 
L 493.119092 -2.470909 
L 492.312617 -2.470909 
L 491.506143 -2.470909 
L 490.699668 -2.470909 
L 489.893193 -2.470909 
L 489.086718 -2.470909 
L 488.280243 -2.470909 
L 487.473768 -2.470909 
L 486.667293 -2.470909 
L 485.860818 -2.470909 
L 485.054343 -2.470909 
L 484.247868 -2.470909 
L 483.441393 -2.470909 
L 482.634918 -2.470909 
L 481.828443 -2.470909 
L 481.021968 -2.470909 
L 480.215494 -2.470909 
L 479.409019 -2.470909 
L 478.602544 -2.470909 
L 477.796069 -2.470909 
L 476.989594 -2.470909 
L 476.183119 -2.470909 
L 475.376644 -2.470909 
L 474.570169 -2.470909 
L 473.763694 -2.470909 
L 472.957219 -2.470909 
L 472.150744 -2.470909 
L 471.344269 -2.470909 
L 470.537794 -2.470909 
L 469.73132 -2.470909 
L 468.924845 -2.470909 
L 468.11837 -2.470909 
L 467.311895 -2.470909 
L 466.50542 -2.470909 
L 465.698945 -2.470909 
L 464.89247 -2.470909 
L 464.085995 -2.470909 
L 463.27952 -2.470909 
L 462.473045 -2.470909 
L 461.66657 -2.470909 
L 460.860095 -2.470909 
L 460.05362 -2.470909 
L 459.247146 -2.470909 
L 458.440671 -2.470909 
L 457.634196 -2.470909 
L 456.827721 -2.470909 
L 456.021246 -2.470909 
L 455.214771 -2.470909 
L 454.408296 -2.470909 
L 453.601821 -2.470909 
L 452.795346 -2.470909 
L 451.988871 -2.470909 
L 451.182396 -2.470909 
L 450.375921 -2.470909 
L 449.569446 -2.470909 
L 448.762972 -2.470909 
L 447.956497 -2.470909 
L 447.150022 -2.470909 
L 446.343547 -2.470909 
L 445.537072 -2.470909 
L 444.730597 -2.470909 
L 443.924122 -2.470909 
L 443.117647 -2.470909 
L 442.311172 -2.470909 
L 441.504697 -2.470909 
L 440.698222 -2.470909 
L 439.891747 -2.470909 
L 439.085272 -2.470909 
L 438.278798 -2.470909 
L 437.472323 -2.470909 
L 436.665848 -2.470909 
L 435.859373 -2.470909 
L 435.052898 -2.470909 
L 434.246423 -2.470909 
L 433.439948 -2.470909 
L 432.633473 -2.470909 
L 431.826998 -2.470909 
L 431.020523 -2.470909 
L 430.214048 -2.470909 
L 429.407573 -2.470909 
L 428.601098 -2.470909 
L 427.794624 -2.470909 
L 426.988149 -2.470909 
L 426.181674 -2.470909 
L 425.375199 -2.470909 
L 424.568724 -2.470909 
L 423.762249 -2.470909 
L 422.955774 -2.470909 
L 422.149299 -2.470909 
L 421.342824 -2.470909 
L 420.536349 -2.470909 
L 419.729874 -2.470909 
L 418.923399 -2.470909 
L 418.116924 -2.470909 
L 417.310449 -2.470909 
L 416.503975 -2.470909 
L 415.6975 -2.470909 
L 414.891025 -2.470909 
L 414.08455 -2.470909 
L 413.278075 -2.470909 
L 412.4716 -2.470909 
L 411.665125 -2.470909 
L 410.85865 -2.470909 
L 410.052175 -2.470909 
L 409.2457 -2.470909 
L 408.439225 -2.470909 
L 407.63275 -2.470909 
L 406.826275 -2.470909 
L 406.019801 -2.470909 
L 405.213326 -2.470909 
L 404.406851 -2.470909 
L 403.600376 -2.470909 
L 402.793901 -2.470909 
L 401.987426 -2.470909 
L 401.180951 -2.470909 
L 400.374476 -2.470909 
L 399.568001 -2.470909 
L 398.761526 -2.470909 
L 397.955051 -2.470909 
L 397.148576 -2.470909 
L 396.342101 -2.470909 
L 395.535627 -2.470909 
L 394.729152 -2.470909 
L 393.922677 -2.470909 
L 393.116202 -2.470909 
L 392.309727 -2.470909 
L 391.503252 -2.470909 
L 390.696777 -2.470909 
L 389.890302 -2.470909 
L 389.083827 -2.470909 
L 388.277352 -2.470909 
L 387.470877 -2.470909 
L 386.664402 -2.470909 
L 385.857927 -2.470909 
L 385.051453 -2.470909 
L 384.244978 -2.470909 
L 383.438503 -2.470909 
L 382.632028 -2.470909 
L 381.825553 -2.470909 
L 381.019078 -2.470909 
L 380.212603 -2.470909 
L 379.406128 -2.470909 
L 378.599653 -2.470909 
L 377.793178 -2.470909 
L 376.986703 -2.470909 
L 376.180228 -2.470909 
L 375.373753 -2.470909 
L 374.567279 -2.470909 
L 373.760804 -2.470909 
L 372.954329 -2.470909 
L 372.147854 -2.470909 
L 371.341379 -2.470909 
L 370.534904 -2.470909 
z
" style="stroke: #cf1313; stroke-opacity: 0.2"/>
    </defs>
    <g clip-path="url(#p018de20198)">
     <use xlink:href="#m419837bf59" x="0" y="54.36" style="fill: #cf1313; fill-opacity: 0.2; stroke: #cf1313; stroke-opacity: 0.2"/>
    </g>
   </g>
   <g id="PolyCollection_2">
    <defs>
     <path id="m355915e340" d="M 232.627692 -2.470909 
L 232.627692 -4.167594 
L 233.434167 -4.302632 
L 234.240642 -4.442403 
L 235.047117 -4.586159 
L 235.853592 -4.733493 
L 236.660066 -4.884481 
L 237.466541 -5.039722 
L 238.273016 -5.200271 
L 239.079491 -5.36748 
L 239.885966 -5.5428 
L 240.692441 -5.727578 
L 241.498916 -5.922885 
L 242.305391 -6.129409 
L 243.111866 -6.347398 
L 243.918341 -6.576659 
L 244.724816 -6.816585 
L 245.531291 -7.066215 
L 246.337766 -7.324313 
L 247.14424 -7.589473 
L 247.950715 -7.860259 
L 248.75719 -8.13536 
L 249.563665 -8.413764 
L 250.37014 -8.694893 
L 251.176615 -8.978684 
L 251.98309 -9.265592 
L 252.789565 -9.556491 
L 253.59604 -9.852506 
L 254.402515 -10.154815 
L 255.20899 -10.464464 
L 256.015465 -10.782267 
L 256.82194 -11.108811 
L 257.628415 -11.444573 
L 258.434889 -11.790122 
L 259.241364 -12.146347 
L 260.047839 -12.514633 
L 260.854314 -12.896922 
L 261.660789 -13.295619 
L 262.467264 -13.713332 
L 263.273739 -14.152484 
L 264.080214 -14.614867 
L 264.886689 -15.101226 
L 265.693164 -15.610974 
L 266.499639 -16.142084 
L 267.306114 -16.691223 
L 268.112589 -17.254082 
L 268.919063 -17.825877 
L 269.725538 -18.401916 
L 270.532013 -18.978158 
L 271.338488 -19.551654 
L 272.144963 -20.120831 
L 272.951438 -20.685585 
L 273.757913 -21.24717 
L 274.564388 -21.807928 
L 275.370863 -22.370896 
L 276.177338 -22.939329 
L 276.983813 -23.5162 
L 277.790288 -24.103741 
L 278.596763 -24.703089 
L 279.403237 -25.314088 
L 280.209712 -25.935331 
L 281.016187 -26.564429 
L 281.822662 -27.198516 
L 282.629137 -27.83488 
L 283.435612 -28.471623 
L 284.242087 -29.108156 
L 285.048562 -29.745419 
L 285.855037 -30.3857 
L 286.661512 -31.032071 
L 287.467987 -31.687504 
L 288.274462 -32.353857 
L 289.080937 -33.030939 
L 289.887411 -33.715869 
L 290.693886 -34.402879 
L 291.500361 -35.083615 
L 292.306836 -35.747888 
L 293.113311 -36.384733 
L 293.919786 -36.983582 
L 294.726261 -37.535351 
L 295.532736 -38.033295 
L 296.339211 -38.473511 
L 297.145686 -38.855076 
L 297.952161 -39.179829 
L 298.758636 -39.451859 
L 299.565111 -39.676782 
L 300.371585 -39.860886 
L 301.17806 -40.01025 
L 301.984535 -40.129931 
L 302.79101 -40.223351 
L 303.597485 -40.291979 
L 304.40396 -40.3354 
L 305.210435 -40.351797 
L 306.01691 -40.33879 
L 306.823385 -40.294485 
L 307.62986 -40.218506 
L 308.436335 -40.112771 
L 309.24281 -39.981762 
L 310.049285 -39.832172 
L 310.85576 -39.671932 
L 311.662234 -39.508766 
L 312.468709 -39.348568 
L 313.275184 -39.193935 
L 314.081659 -39.043208 
L 314.888134 -38.89022 
L 315.694609 -38.724845 
L 316.501084 -38.534256 
L 317.307559 -38.304635 
L 318.114034 -38.023024 
L 318.920509 -37.679001 
L 319.726984 -37.265895 
L 320.533459 -36.781429 
L 321.339934 -36.227745 
L 322.146408 -35.610924 
L 322.952883 -34.940156 
L 323.759358 -34.22674 
L 324.565833 -33.483067 
L 325.372308 -32.721697 
L 326.178783 -31.954596 
L 326.985258 -31.192541 
L 327.791733 -30.444694 
L 328.598208 -29.718339 
L 329.404683 -29.018753 
L 330.211158 -28.349212 
L 331.017633 -27.711115 
L 331.824108 -27.104196 
L 332.630582 -26.526806 
L 333.437057 -25.976225 
L 334.243532 -25.44898 
L 335.050007 -24.941135 
L 335.856482 -24.448536 
L 336.662957 -23.966999 
L 337.469432 -23.492444 
L 338.275907 -23.02096 
L 339.082382 -22.548842 
L 339.888857 -22.072586 
L 340.695332 -21.588911 
L 341.501807 -21.094802 
L 342.308282 -20.587634 
L 343.114756 -20.065361 
L 343.921231 -19.526767 
L 344.727706 -18.971721 
L 345.534181 -18.401382 
L 346.340656 -17.818279 
L 347.147131 -17.226217 
L 347.953606 -16.630018 
L 348.760081 -16.035109 
L 349.566556 -15.447036 
L 350.373031 -14.870995 
L 351.179506 -14.311428 
L 351.985981 -13.771764 
L 352.792456 -13.25429 
L 353.59893 -12.760143 
L 354.405405 -12.289392 
L 355.21188 -11.841173 
L 356.018355 -11.41385 
L 356.82483 -11.005197 
L 357.631305 -10.612603 
L 358.43778 -10.233305 
L 359.244255 -9.864636 
L 360.05073 -9.504278 
L 360.857205 -9.150485 
L 361.66368 -8.80224 
L 362.470155 -8.459321 
L 363.27663 -8.122265 
L 364.083104 -7.792233 
L 364.889579 -7.470809 
L 365.696054 -7.159761 
L 366.502529 -6.860819 
L 367.309004 -6.575496 
L 368.115479 -6.30497 
L 368.921954 -6.050038 
L 369.728429 -5.811118 
L 370.534904 -5.588293 
L 371.341379 -5.381371 
L 372.147854 -5.189934 
L 372.954329 -5.013378 
L 373.760804 -4.850938 
L 374.567279 -4.701688 
L 375.373753 -4.56454 
L 376.180228 -4.438238 
L 376.986703 -4.321362 
L 377.793178 -4.212356 
L 378.599653 -4.10958 
L 379.406128 -4.011397 
L 379.406128 -2.470909 
L 379.406128 -2.470909 
L 378.599653 -2.470909 
L 377.793178 -2.470909 
L 376.986703 -2.470909 
L 376.180228 -2.470909 
L 375.373753 -2.470909 
L 374.567279 -2.470909 
L 373.760804 -2.470909 
L 372.954329 -2.470909 
L 372.147854 -2.470909 
L 371.341379 -2.470909 
L 370.534904 -2.470909 
L 369.728429 -2.470909 
L 368.921954 -2.470909 
L 368.115479 -2.470909 
L 367.309004 -2.470909 
L 366.502529 -2.470909 
L 365.696054 -2.470909 
L 364.889579 -2.470909 
L 364.083104 -2.470909 
L 363.27663 -2.470909 
L 362.470155 -2.470909 
L 361.66368 -2.470909 
L 360.857205 -2.470909 
L 360.05073 -2.470909 
L 359.244255 -2.470909 
L 358.43778 -2.470909 
L 357.631305 -2.470909 
L 356.82483 -2.470909 
L 356.018355 -2.470909 
L 355.21188 -2.470909 
L 354.405405 -2.470909 
L 353.59893 -2.470909 
L 352.792456 -2.470909 
L 351.985981 -2.470909 
L 351.179506 -2.470909 
L 350.373031 -2.470909 
L 349.566556 -2.470909 
L 348.760081 -2.470909 
L 347.953606 -2.470909 
L 347.147131 -2.470909 
L 346.340656 -2.470909 
L 345.534181 -2.470909 
L 344.727706 -2.470909 
L 343.921231 -2.470909 
L 343.114756 -2.470909 
L 342.308282 -2.470909 
L 341.501807 -2.470909 
L 340.695332 -2.470909 
L 339.888857 -2.470909 
L 339.082382 -2.470909 
L 338.275907 -2.470909 
L 337.469432 -2.470909 
L 336.662957 -2.470909 
L 335.856482 -2.470909 
L 335.050007 -2.470909 
L 334.243532 -2.470909 
L 333.437057 -2.470909 
L 332.630582 -2.470909 
L 331.824108 -2.470909 
L 331.017633 -2.470909 
L 330.211158 -2.470909 
L 329.404683 -2.470909 
L 328.598208 -2.470909 
L 327.791733 -2.470909 
L 326.985258 -2.470909 
L 326.178783 -2.470909 
L 325.372308 -2.470909 
L 324.565833 -2.470909 
L 323.759358 -2.470909 
L 322.952883 -2.470909 
L 322.146408 -2.470909 
L 321.339934 -2.470909 
L 320.533459 -2.470909 
L 319.726984 -2.470909 
L 318.920509 -2.470909 
L 318.114034 -2.470909 
L 317.307559 -2.470909 
L 316.501084 -2.470909 
L 315.694609 -2.470909 
L 314.888134 -2.470909 
L 314.081659 -2.470909 
L 313.275184 -2.470909 
L 312.468709 -2.470909 
L 311.662234 -2.470909 
L 310.85576 -2.470909 
L 310.049285 -2.470909 
L 309.24281 -2.470909 
L 308.436335 -2.470909 
L 307.62986 -2.470909 
L 306.823385 -2.470909 
L 306.01691 -2.470909 
L 305.210435 -2.470909 
L 304.40396 -2.470909 
L 303.597485 -2.470909 
L 302.79101 -2.470909 
L 301.984535 -2.470909 
L 301.17806 -2.470909 
L 300.371585 -2.470909 
L 299.565111 -2.470909 
L 298.758636 -2.470909 
L 297.952161 -2.470909 
L 297.145686 -2.470909 
L 296.339211 -2.470909 
L 295.532736 -2.470909 
L 294.726261 -2.470909 
L 293.919786 -2.470909 
L 293.113311 -2.470909 
L 292.306836 -2.470909 
L 291.500361 -2.470909 
L 290.693886 -2.470909 
L 289.887411 -2.470909 
L 289.080937 -2.470909 
L 288.274462 -2.470909 
L 287.467987 -2.470909 
L 286.661512 -2.470909 
L 285.855037 -2.470909 
L 285.048562 -2.470909 
L 284.242087 -2.470909 
L 283.435612 -2.470909 
L 282.629137 -2.470909 
L 281.822662 -2.470909 
L 281.016187 -2.470909 
L 280.209712 -2.470909 
L 279.403237 -2.470909 
L 278.596763 -2.470909 
L 277.790288 -2.470909 
L 276.983813 -2.470909 
L 276.177338 -2.470909 
L 275.370863 -2.470909 
L 274.564388 -2.470909 
L 273.757913 -2.470909 
L 272.951438 -2.470909 
L 272.144963 -2.470909 
L 271.338488 -2.470909 
L 270.532013 -2.470909 
L 269.725538 -2.470909 
L 268.919063 -2.470909 
L 268.112589 -2.470909 
L 267.306114 -2.470909 
L 266.499639 -2.470909 
L 265.693164 -2.470909 
L 264.886689 -2.470909 
L 264.080214 -2.470909 
L 263.273739 -2.470909 
L 262.467264 -2.470909 
L 261.660789 -2.470909 
L 260.854314 -2.470909 
L 260.047839 -2.470909 
L 259.241364 -2.470909 
L 258.434889 -2.470909 
L 257.628415 -2.470909 
L 256.82194 -2.470909 
L 256.015465 -2.470909 
L 255.20899 -2.470909 
L 254.402515 -2.470909 
L 253.59604 -2.470909 
L 252.789565 -2.470909 
L 251.98309 -2.470909 
L 251.176615 -2.470909 
L 250.37014 -2.470909 
L 249.563665 -2.470909 
L 248.75719 -2.470909 
L 247.950715 -2.470909 
L 247.14424 -2.470909 
L 246.337766 -2.470909 
L 245.531291 -2.470909 
L 244.724816 -2.470909 
L 243.918341 -2.470909 
L 243.111866 -2.470909 
L 242.305391 -2.470909 
L 241.498916 -2.470909 
L 240.692441 -2.470909 
L 239.885966 -2.470909 
L 239.079491 -2.470909 
L 238.273016 -2.470909 
L 237.466541 -2.470909 
L 236.660066 -2.470909 
L 235.853592 -2.470909 
L 235.047117 -2.470909 
L 234.240642 -2.470909 
L 233.434167 -2.470909 
L 232.627692 -2.470909 
z
" style="stroke: #116dc2; stroke-opacity: 0.2"/>
    </defs>
    <g clip-path="url(#p018de20198)">
     <use xlink:href="#m355915e340" x="0" y="54.36" style="fill: #116dc2; fill-opacity: 0.2; stroke: #116dc2; stroke-opacity: 0.2"/>
    </g>
   </g>
   <g id="PolyCollection_3">
    <defs>
     <path id="m8489abab75" d="M 25.363636 -2.470909 
L 25.363636 -4.624971 
L 26.170111 -5.38903 
L 26.976586 -6.377578 
L 27.783061 -7.460873 
L 28.589536 -8.568005 
L 29.396011 -9.777193 
L 30.202486 -11.26045 
L 31.008961 -13.171086 
L 31.815436 -15.477002 
L 32.621911 -17.907197 
L 33.428386 -20.328568 
L 34.234861 -22.961538 
L 35.041335 -26.016674 
L 35.84781 -29.428801 
L 36.654285 -32.878282 
L 37.46076 -35.948332 
L 38.267235 -38.501495 
L 39.07371 -40.874199 
L 39.880185 -43.464489 
L 40.68666 -46.222387 
L 41.493135 -48.671657 
L 42.29961 -50.345263 
L 43.106085 -51.250527 
L 43.91256 -51.739821 
L 44.719035 -51.889091 
L 45.525509 -51.490575 
L 46.331984 -50.427817 
L 47.138459 -48.606753 
L 47.944934 -46.067932 
L 48.751409 -43.186537 
L 49.557884 -40.163041 
L 50.364359 -36.914739 
L 51.170834 -33.679279 
L 51.977309 -30.806915 
L 52.783784 -28.162359 
L 53.590259 -25.464551 
L 54.396734 -22.73905 
L 55.203209 -20.157428 
L 56.009683 -17.851028 
L 56.816158 -15.841377 
L 57.622633 -13.972563 
L 58.429108 -12.048777 
L 59.235583 -10.150847 
L 60.042058 -8.523905 
L 60.848533 -7.190545 
L 61.655008 -6.06843 
L 62.461483 -5.201423 
L 63.267958 -4.601355 
L 63.267958 -2.470909 
L 63.267958 -2.470909 
L 62.461483 -2.470909 
L 61.655008 -2.470909 
L 60.848533 -2.470909 
L 60.042058 -2.470909 
L 59.235583 -2.470909 
L 58.429108 -2.470909 
L 57.622633 -2.470909 
L 56.816158 -2.470909 
L 56.009683 -2.470909 
L 55.203209 -2.470909 
L 54.396734 -2.470909 
L 53.590259 -2.470909 
L 52.783784 -2.470909 
L 51.977309 -2.470909 
L 51.170834 -2.470909 
L 50.364359 -2.470909 
L 49.557884 -2.470909 
L 48.751409 -2.470909 
L 47.944934 -2.470909 
L 47.138459 -2.470909 
L 46.331984 -2.470909 
L 45.525509 -2.470909 
L 44.719035 -2.470909 
L 43.91256 -2.470909 
L 43.106085 -2.470909 
L 42.29961 -2.470909 
L 41.493135 -2.470909 
L 40.68666 -2.470909 
L 39.880185 -2.470909 
L 39.07371 -2.470909 
L 38.267235 -2.470909 
L 37.46076 -2.470909 
L 36.654285 -2.470909 
L 35.84781 -2.470909 
L 35.041335 -2.470909 
L 34.234861 -2.470909 
L 33.428386 -2.470909 
L 32.621911 -2.470909 
L 31.815436 -2.470909 
L 31.008961 -2.470909 
L 30.202486 -2.470909 
L 29.396011 -2.470909 
L 28.589536 -2.470909 
L 27.783061 -2.470909 
L 26.976586 -2.470909 
L 26.170111 -2.470909 
L 25.363636 -2.470909 
z
" style="stroke: #8a8a8a; stroke-opacity: 0.2"/>
    </defs>
    <g clip-path="url(#p018de20198)">
     <use xlink:href="#m8489abab75" x="0" y="54.36" style="fill: #8a8a8a; fill-opacity: 0.2; stroke: #8a8a8a; stroke-opacity: 0.2"/>
    </g>
   </g>
   <g id="line2d_1">
    <path d="M 370.534904 50.440504 
L 375.373753 49.551169 
L 383.438503 47.839066 
L 389.890302 46.242485 
L 393.116202 45.178236 
L 396.342101 43.826341 
L 400.374476 41.831993 
L 403.600376 40.015979 
L 406.826275 37.94259 
L 409.2457 36.169088 
L 412.4716 33.502541 
L 418.116924 28.724136 
L 420.536349 27.02161 
L 422.955774 25.581389 
L 429.407573 22.188973 
L 435.052898 19.289104 
L 438.278798 17.864525 
L 441.504697 16.689754 
L 444.730597 15.811562 
L 447.956497 15.216267 
L 451.182396 14.897306 
L 453.601821 14.895058 
L 456.021246 15.174287 
L 457.634196 15.54689 
L 460.05362 16.385201 
L 462.473045 17.485056 
L 468.11837 20.430775 
L 476.183119 24.825427 
L 481.828443 28.205228 
L 487.473768 31.89095 
L 493.119092 35.870589 
L 498.764417 39.800831 
L 501.990317 41.777262 
L 504.409741 43.037633 
L 506.829166 44.069809 
L 510.055066 45.156181 
L 518.92629 47.696801 
L 522.15219 48.46993 
L 525.378089 49.022628 
L 532.636364 50.002131 
L 532.636364 50.002131 
" clip-path="url(#p018de20198)" style="fill: none; stroke: #cf1313; stroke-width: 1.5; stroke-linecap: square"/>
   </g>
   <g id="line2d_2">
    <path d="M 232.627692 50.192406 
L 238.273016 49.159729 
L 242.305391 48.230591 
L 246.337766 47.035687 
L 252.789565 44.803509 
L 257.628415 42.915427 
L 260.854314 41.463078 
L 264.080214 39.745133 
L 266.499639 38.217916 
L 271.338488 34.808346 
L 280.209712 28.424669 
L 288.274462 22.006143 
L 293.919786 17.376418 
L 295.532736 16.326705 
L 297.145686 15.504924 
L 298.758636 14.908141 
L 300.371585 14.499114 
L 302.79101 14.136649 
L 305.210435 14.008203 
L 307.62986 14.141494 
L 310.049285 14.527828 
L 317.307559 16.055365 
L 318.920509 16.680999 
L 320.533459 17.578571 
L 322.146408 18.749076 
L 324.565833 20.876933 
L 329.404683 25.341247 
L 331.824108 27.255804 
L 334.243532 28.91102 
L 338.275907 31.33904 
L 343.114756 34.294639 
L 346.340656 36.541721 
L 351.985981 40.588236 
L 354.405405 42.070608 
L 357.631305 43.747397 
L 362.470155 45.900679 
L 366.502529 47.499181 
L 369.728429 48.548882 
L 372.954329 49.346622 
L 376.180228 49.921762 
L 379.406128 50.348603 
L 379.406128 50.348603 
" clip-path="url(#p018de20198)" style="fill: none; stroke: #116dc2; stroke-width: 1.5; stroke-linecap: square"/>
   </g>
   <g id="line2d_3">
    <path d="M 25.363636 49.735029 
L 26.170111 48.97097 
L 26.976586 47.982422 
L 27.783061 46.899127 
L 28.589536 45.791995 
L 29.396011 44.582807 
L 30.202486 43.09955 
L 31.008961 41.188914 
L 31.815436 38.882998 
L 32.621911 36.452803 
L 33.428386 34.031432 
L 34.234861 31.398462 
L 35.041335 28.343326 
L 35.84781 24.931199 
L 36.654285 21.481718 
L 37.46076 18.411668 
L 38.267235 15.858505 
L 39.07371 13.485801 
L 39.880185 10.895511 
L 40.68666 8.137613 
L 41.493135 5.688343 
L 42.29961 4.014737 
L 43.106085 3.109473 
L 43.91256 2.620179 
L 44.719035 2.470909 
L 45.525509 2.869425 
L 46.331984 3.932183 
L 47.138459 5.753247 
L 47.944934 8.292068 
L 48.751409 11.173463 
L 49.557884 14.196959 
L 50.364359 17.445261 
L 51.170834 20.680721 
L 51.977309 23.553085 
L 52.783784 26.197641 
L 53.590259 28.895449 
L 54.396734 31.62095 
L 55.203209 34.202572 
L 56.009683 36.508972 
L 56.816158 38.518623 
L 57.622633 40.387437 
L 58.429108 42.311223 
L 59.235583 44.209153 
L 60.042058 45.836095 
L 60.848533 47.169455 
L 61.655008 48.29157 
L 62.461483 49.158577 
L 63.267958 49.758645 
" clip-path="url(#p018de20198)" style="fill: none; stroke: #8a8a8a; stroke-width: 1.5; stroke-linecap: square"/>
   </g>
  </g>
 </g>
 <defs>
  <clipPath id="p018de20198">
   <rect x="0" y="-0" width="558" height="54.36"/>
  </clipPath>
 </defs>
</svg>
