<?xml version="1.0" encoding="utf-8" standalone="no"?>
<!DOCTYPE svg PUBLIC "-//W3C//DTD SVG 1.1//EN"
  "http://www.w3.org/Graphics/SVG/1.1/DTD/svg11.dtd">
<svg xmlns:xlink="http://www.w3.org/1999/xlink" width="558pt" height="54.36pt" viewBox="0 0 558 54.36" xmlns="http://www.w3.org/2000/svg" version="1.1">
 <metadata>
  <rdf:RDF xmlns:dc="http://purl.org/dc/elements/1.1/" xmlns:cc="http://creativecommons.org/ns#" xmlns:rdf="http://www.w3.org/1999/02/22-rdf-syntax-ns#">
   <cc:Work>
    <dc:type rdf:resource="http://purl.org/dc/dcmitype/StillImage"/>
    <dc:date>2024-09-14T12:46:46.629655</dc:date>
    <dc:format>image/svg+xml</dc:format>
    <dc:creator>
     <cc:Agent>
      <dc:title>Matplotlib v3.5.2, https://matplotlib.org/</dc:title>
     </cc:Agent>
    </dc:creator>
   </cc:Work>
  </rdf:RDF>
 </metadata>
 <defs>
  <style type="text/css">*{stroke-linejoin: round; stroke-linecap: butt}</style>
 </defs>
 <g id="figure_1">
  <g id="patch_1">
   <path d="M 0 54.36 
L 558 54.36 
L 558 0 
L 0 0 
L 0 54.36 
z
" style="fill: none; opacity: 0"/>
  </g>
  <g id="axes_1">
   <g id="PolyCollection_1">
    <defs>
     <path id="ma105f013dd" d="M 368.896433 -2.470909 
L 368.896433 -3.996135 
L 369.699079 -4.08664 
L 370.501726 -4.183757 
L 371.304373 -4.288575 
L 372.10702 -4.401952 
L 372.909666 -4.524377 
L 373.712313 -4.655856 
L 374.51496 -4.795861 
L 375.317606 -4.94335 
L 376.120253 -5.096884 
L 376.9229 -5.254824 
L 377.725547 -5.415593 
L 378.528193 -5.577969 
L 379.33084 -5.741361 
L 380.133487 -5.90602 
L 380.936133 -6.073162 
L 381.73878 -6.244941 
L 382.541427 -6.424311 
L 383.344074 -6.614747 
L 384.14672 -6.81988 
L 384.949367 -7.04309 
L 385.752014 -7.287095 
L 386.554661 -7.55361 
L 387.357307 -7.843104 
L 388.159954 -8.154714 
L 388.962601 -8.486301 
L 389.765247 -8.834682 
L 390.567894 -9.195977 
L 391.370541 -9.566048 
L 392.173188 -9.940962 
L 392.975834 -10.317417 
L 393.778481 -10.693072 
L 394.581128 -11.066747 
L 395.383774 -11.438461 
L 396.186421 -11.809321 
L 396.989068 -12.181294 
L 397.791715 -12.556895 
L 398.594361 -12.938856 
L 399.397008 -13.329815 
L 400.199655 -13.732063 
L 401.002301 -14.147365 
L 401.804948 -14.576862 
L 402.607595 -15.02103 
L 403.410242 -15.479686 
L 404.212888 -15.952016 
L 405.015535 -16.436623 
L 405.818182 -16.931578 
L 406.620829 -17.434501 
L 407.423475 -17.942673 
L 408.226122 -18.453191 
L 409.028769 -18.963171 
L 409.831415 -19.46999 
L 410.634062 -19.971547 
L 411.436709 -20.466506 
L 412.239356 -20.954491 
L 413.042002 -21.436198 
L 413.844649 -21.913395 
L 414.647296 -22.388799 
L 415.449942 -22.865843 
L 416.252589 -23.348338 
L 417.055236 -23.840072 
L 417.857883 -24.34439 
L 418.660529 -24.863788 
L 419.463176 -25.399578 
L 420.265823 -25.951658 
L 421.06847 -26.51842 
L 421.871116 -27.09683 
L 422.673763 -27.682665 
L 423.47641 -28.270898 
L 424.279056 -28.856207 
L 425.081703 -29.433524 
L 425.88435 -29.998566 
L 426.686997 -30.54826 
L 427.489643 -31.080996 
L 428.29229 -31.596657 
L 429.094937 -32.09641 
L 429.897583 -32.582296 
L 430.70023 -33.056667 
L 431.502877 -33.521583 
L 432.305524 -33.978256 
L 433.10817 -34.426655 
L 433.910817 -34.865338 
L 434.713464 -35.291536 
L 435.51611 -35.701492 
L 436.318757 -36.090984 
L 437.121404 -36.45595 
L 437.924051 -36.793105 
L 438.726697 -37.10044 
L 439.529344 -37.377531 
L 440.331991 -37.625589 
L 441.134638 -37.847256 
L 441.937284 -38.046176 
L 442.739931 -38.226423 
L 443.542578 -38.391865 
L 444.345224 -38.545588 
L 445.147871 -38.689453 
L 445.950518 -38.823854 
L 446.753165 -38.947715 
L 447.555811 -39.058695 
L 448.358458 -39.153562 
L 449.161105 -39.228665 
L 449.963751 -39.280426 
L 450.766398 -39.305761 
L 451.569045 -39.302392 
L 452.371692 -39.269009 
L 453.174338 -39.205287 
L 453.976985 -39.111766 
L 454.779632 -38.989662 
L 455.582278 -38.840623 
L 456.384925 -38.666499 
L 457.187572 -38.469147 
L 457.990219 -38.250279 
L 458.792865 -38.011372 
L 459.595512 -37.753613 
L 460.398159 -37.477862 
L 461.200806 -37.184636 
L 462.003452 -36.874096 
L 462.806099 -36.546035 
L 463.608746 -36.199902 
L 464.411392 -35.834853 
L 465.214039 -35.449848 
L 466.016686 -35.04379 
L 466.819333 -34.615692 
L 467.621979 -34.164853 
L 468.424626 -33.691 
L 469.227273 -33.1944 
L 470.029919 -32.675909 
L 470.832566 -32.136977 
L 471.635213 -31.57962 
L 472.43786 -31.006384 
L 473.240506 -30.420317 
L 474.043153 -29.824959 
L 474.8458 -29.22433 
L 475.648446 -28.622895 
L 476.451093 -28.025473 
L 477.25374 -27.437043 
L 478.056387 -26.862454 
L 478.859033 -26.306036 
L 479.66168 -25.771156 
L 480.464327 -25.259793 
L 481.266974 -24.772204 
L 482.06962 -24.30676 
L 482.872267 -23.86 
L 483.674914 -23.426926 
L 484.47756 -23.00152 
L 485.280207 -22.577396 
L 486.082854 -22.148519 
L 486.885501 -21.709867 
L 487.688147 -21.257938 
L 488.490794 -20.791039 
L 489.293441 -20.309319 
L 490.096087 -19.814549 
L 490.898734 -19.309718 
L 491.701381 -18.798509 
L 492.504028 -18.284768 
L 493.306674 -17.772029 
L 494.109321 -17.263185 
L 494.911968 -16.760329 
L 495.714614 -16.264767 
L 496.517261 -15.777173 
L 497.319908 -15.297834 
L 498.122555 -14.826915 
L 498.925201 -14.364699 
L 499.727848 -13.911732 
L 500.530495 -13.468873 
L 501.333142 -13.037238 
L 502.135788 -12.618059 
L 502.938435 -12.212504 
L 503.741082 -11.821504 
L 504.543728 -11.445611 
L 505.346375 -11.084934 
L 506.149022 -10.739148 
L 506.951669 -10.407561 
L 507.754315 -10.089222 
L 508.556962 -9.783031 
L 509.359609 -9.487821 
L 510.162255 -9.202403 
L 510.964902 -8.925571 
L 511.767549 -8.656082 
L 512.570196 -8.392647 
L 513.372842 -8.133947 
L 514.175489 -7.8787 
L 514.978136 -7.625783 
L 515.780783 -7.374376 
L 516.583429 -7.124119 
L 517.386076 -6.875224 
L 518.188723 -6.628525 
L 518.991369 -6.385439 
L 519.794016 -6.147844 
L 520.596663 -5.917879 
L 521.39931 -5.697714 
L 522.201956 -5.489312 
L 523.004603 -5.294228 
L 523.80725 -5.113468 
L 524.609896 -4.94741 
L 525.412543 -4.795814 
L 526.21519 -4.657874 
L 527.017837 -4.532331 
L 527.820483 -4.417604 
L 528.62313 -4.311932 
L 529.425777 -4.213522 
L 530.228423 -4.120675 
L 531.03107 -4.031899 
L 531.833717 -3.946001 
L 532.636364 -3.862153 
L 532.636364 -2.470909 
L 532.636364 -2.470909 
L 531.833717 -2.470909 
L 531.03107 -2.470909 
L 530.228423 -2.470909 
L 529.425777 -2.470909 
L 528.62313 -2.470909 
L 527.820483 -2.470909 
L 527.017837 -2.470909 
L 526.21519 -2.470909 
L 525.412543 -2.470909 
L 524.609896 -2.470909 
L 523.80725 -2.470909 
L 523.004603 -2.470909 
L 522.201956 -2.470909 
L 521.39931 -2.470909 
L 520.596663 -2.470909 
L 519.794016 -2.470909 
L 518.991369 -2.470909 
L 518.188723 -2.470909 
L 517.386076 -2.470909 
L 516.583429 -2.470909 
L 515.780783 -2.470909 
L 514.978136 -2.470909 
L 514.175489 -2.470909 
L 513.372842 -2.470909 
L 512.570196 -2.470909 
L 511.767549 -2.470909 
L 510.964902 -2.470909 
L 510.162255 -2.470909 
L 509.359609 -2.470909 
L 508.556962 -2.470909 
L 507.754315 -2.470909 
L 506.951669 -2.470909 
L 506.149022 -2.470909 
L 505.346375 -2.470909 
L 504.543728 -2.470909 
L 503.741082 -2.470909 
L 502.938435 -2.470909 
L 502.135788 -2.470909 
L 501.333142 -2.470909 
L 500.530495 -2.470909 
L 499.727848 -2.470909 
L 498.925201 -2.470909 
L 498.122555 -2.470909 
L 497.319908 -2.470909 
L 496.517261 -2.470909 
L 495.714614 -2.470909 
L 494.911968 -2.470909 
L 494.109321 -2.470909 
L 493.306674 -2.470909 
L 492.504028 -2.470909 
L 491.701381 -2.470909 
L 490.898734 -2.470909 
L 490.096087 -2.470909 
L 489.293441 -2.470909 
L 488.490794 -2.470909 
L 487.688147 -2.470909 
L 486.885501 -2.470909 
L 486.082854 -2.470909 
L 485.280207 -2.470909 
L 484.47756 -2.470909 
L 483.674914 -2.470909 
L 482.872267 -2.470909 
L 482.06962 -2.470909 
L 481.266974 -2.470909 
L 480.464327 -2.470909 
L 479.66168 -2.470909 
L 478.859033 -2.470909 
L 478.056387 -2.470909 
L 477.25374 -2.470909 
L 476.451093 -2.470909 
L 475.648446 -2.470909 
L 474.8458 -2.470909 
L 474.043153 -2.470909 
L 473.240506 -2.470909 
L 472.43786 -2.470909 
L 471.635213 -2.470909 
L 470.832566 -2.470909 
L 470.029919 -2.470909 
L 469.227273 -2.470909 
L 468.424626 -2.470909 
L 467.621979 -2.470909 
L 466.819333 -2.470909 
L 466.016686 -2.470909 
L 465.214039 -2.470909 
L 464.411392 -2.470909 
L 463.608746 -2.470909 
L 462.806099 -2.470909 
L 462.003452 -2.470909 
L 461.200806 -2.470909 
L 460.398159 -2.470909 
L 459.595512 -2.470909 
L 458.792865 -2.470909 
L 457.990219 -2.470909 
L 457.187572 -2.470909 
L 456.384925 -2.470909 
L 455.582278 -2.470909 
L 454.779632 -2.470909 
L 453.976985 -2.470909 
L 453.174338 -2.470909 
L 452.371692 -2.470909 
L 451.569045 -2.470909 
L 450.766398 -2.470909 
L 449.963751 -2.470909 
L 449.161105 -2.470909 
L 448.358458 -2.470909 
L 447.555811 -2.470909 
L 446.753165 -2.470909 
L 445.950518 -2.470909 
L 445.147871 -2.470909 
L 444.345224 -2.470909 
L 443.542578 -2.470909 
L 442.739931 -2.470909 
L 441.937284 -2.470909 
L 441.134638 -2.470909 
L 440.331991 -2.470909 
L 439.529344 -2.470909 
L 438.726697 -2.470909 
L 437.924051 -2.470909 
L 437.121404 -2.470909 
L 436.318757 -2.470909 
L 435.51611 -2.470909 
L 434.713464 -2.470909 
L 433.910817 -2.470909 
L 433.10817 -2.470909 
L 432.305524 -2.470909 
L 431.502877 -2.470909 
L 430.70023 -2.470909 
L 429.897583 -2.470909 
L 429.094937 -2.470909 
L 428.29229 -2.470909 
L 427.489643 -2.470909 
L 426.686997 -2.470909 
L 425.88435 -2.470909 
L 425.081703 -2.470909 
L 424.279056 -2.470909 
L 423.47641 -2.470909 
L 422.673763 -2.470909 
L 421.871116 -2.470909 
L 421.06847 -2.470909 
L 420.265823 -2.470909 
L 419.463176 -2.470909 
L 418.660529 -2.470909 
L 417.857883 -2.470909 
L 417.055236 -2.470909 
L 416.252589 -2.470909 
L 415.449942 -2.470909 
L 414.647296 -2.470909 
L 413.844649 -2.470909 
L 413.042002 -2.470909 
L 412.239356 -2.470909 
L 411.436709 -2.470909 
L 410.634062 -2.470909 
L 409.831415 -2.470909 
L 409.028769 -2.470909 
L 408.226122 -2.470909 
L 407.423475 -2.470909 
L 406.620829 -2.470909 
L 405.818182 -2.470909 
L 405.015535 -2.470909 
L 404.212888 -2.470909 
L 403.410242 -2.470909 
L 402.607595 -2.470909 
L 401.804948 -2.470909 
L 401.002301 -2.470909 
L 400.199655 -2.470909 
L 399.397008 -2.470909 
L 398.594361 -2.470909 
L 397.791715 -2.470909 
L 396.989068 -2.470909 
L 396.186421 -2.470909 
L 395.383774 -2.470909 
L 394.581128 -2.470909 
L 393.778481 -2.470909 
L 392.975834 -2.470909 
L 392.173188 -2.470909 
L 391.370541 -2.470909 
L 390.567894 -2.470909 
L 389.765247 -2.470909 
L 388.962601 -2.470909 
L 388.159954 -2.470909 
L 387.357307 -2.470909 
L 386.554661 -2.470909 
L 385.752014 -2.470909 
L 384.949367 -2.470909 
L 384.14672 -2.470909 
L 383.344074 -2.470909 
L 382.541427 -2.470909 
L 381.73878 -2.470909 
L 380.936133 -2.470909 
L 380.133487 -2.470909 
L 379.33084 -2.470909 
L 378.528193 -2.470909 
L 377.725547 -2.470909 
L 376.9229 -2.470909 
L 376.120253 -2.470909 
L 375.317606 -2.470909 
L 374.51496 -2.470909 
L 373.712313 -2.470909 
L 372.909666 -2.470909 
L 372.10702 -2.470909 
L 371.304373 -2.470909 
L 370.501726 -2.470909 
L 369.699079 -2.470909 
L 368.896433 -2.470909 
z
" style="stroke: #cf1313; stroke-opacity: 0.2"/>
    </defs>
    <g clip-path="url(#pccb0506eed)">
     <use xlink:href="#ma105f013dd" x="0" y="54.36" style="fill: #cf1313; fill-opacity: 0.2; stroke: #cf1313; stroke-opacity: 0.2"/>
    </g>
   </g>
   <g id="PolyCollection_2">
    <defs>
     <path id="m64c2c1013b" d="M 231.643843 -2.470909 
L 231.643843 -4.146883 
L 232.44649 -4.284014 
L 233.249137 -4.42697 
L 234.051784 -4.575366 
L 234.85443 -4.728609 
L 235.657077 -4.885948 
L 236.459724 -5.046599 
L 237.262371 -5.209903 
L 238.065017 -5.375504 
L 238.867664 -5.543491 
L 239.670311 -5.714477 
L 240.472957 -5.889595 
L 241.275604 -6.070414 
L 242.078251 -6.258788 
L 242.880898 -6.456679 
L 243.683544 -6.665987 
L 244.486191 -6.888403 
L 245.288838 -7.125313 
L 246.091484 -7.377741 
L 246.894131 -7.646323 
L 247.696778 -7.931292 
L 248.499425 -8.232469 
L 249.302071 -8.549242 
L 250.104718 -8.880558 
L 250.907365 -9.224921 
L 251.710012 -9.580436 
L 252.512658 -9.944884 
L 253.315305 -10.315863 
L 254.117952 -10.690974 
L 254.920598 -11.068048 
L 255.723245 -11.445383 
L 256.525892 -11.821983 
L 257.328539 -12.19774 
L 258.131185 -12.573554 
L 258.933832 -12.951342 
L 259.736479 -13.333925 
L 260.539125 -13.724797 
L 261.341772 -14.127776 
L 262.144419 -14.546608 
L 262.947066 -14.984552 
L 263.749712 -15.444048 
L 264.552359 -15.926502 
L 265.355006 -16.432243 
L 266.157652 -16.960631 
L 266.960299 -17.510292 
L 267.762946 -18.079384 
L 268.565593 -18.665824 
L 269.368239 -19.267403 
L 270.170886 -19.881779 
L 270.973533 -20.50636 
L 271.77618 -21.138178 
L 272.578826 -21.773838 
L 273.381473 -22.409638 
L 274.18412 -23.041886 
L 274.986766 -23.667372 
L 275.789413 -24.283889 
L 276.59206 -24.890656 
L 277.394707 -25.488495 
L 278.197353 -26.079681 
L 279 -26.667469 
L 279.802647 -27.2554 
L 280.605293 -27.846545 
L 281.40794 -28.442888 
L 282.210587 -29.044975 
L 283.013234 -29.651919 
L 283.81588 -30.261706 
L 284.618527 -30.871682 
L 285.421174 -31.479068 
L 286.22382 -32.081339 
L 287.026467 -32.676368 
L 287.829114 -33.262329 
L 288.631761 -33.837413 
L 289.434407 -34.399483 
L 290.237054 -34.945803 
L 291.039701 -35.472947 
L 291.842348 -35.976953 
L 292.644994 -36.453699 
L 293.447641 -36.899429 
L 294.250288 -37.311317 
L 295.052934 -37.687921 
L 295.855581 -38.029417 
L 296.658228 -38.337543 
L 297.460875 -38.61524 
L 298.263521 -38.866058 
L 299.066168 -39.093447 
L 299.868815 -39.300065 
L 300.671461 -39.487258 
L 301.474108 -39.654789 
L 302.276755 -39.800865 
L 303.079402 -39.92243 
L 303.882048 -40.015632 
L 304.684695 -40.076379 
L 305.487342 -40.100873 
L 306.289988 -40.086041 
L 307.092635 -40.029843 
L 307.895282 -39.931427 
L 308.697929 -39.791177 
L 309.500575 -39.610662 
L 310.303222 -39.392529 
L 311.105869 -39.14034 
L 311.908516 -38.858365 
L 312.711162 -38.551315 
L 313.513809 -38.224007 
L 314.316456 -37.880971 
L 315.119102 -37.52602 
L 315.921749 -37.161852 
L 316.724396 -36.78975 
L 317.527043 -36.409464 
L 318.329689 -36.019343 
L 319.132336 -35.616709 
L 319.934983 -35.198437 
L 320.737629 -34.761621 
L 321.540276 -34.304179 
L 322.342923 -33.825266 
L 323.14557 -33.325373 
L 323.948216 -32.806115 
L 324.750863 -32.269755 
L 325.55351 -31.718616 
L 326.356157 -31.15454 
L 327.158803 -30.578563 
L 327.96145 -29.990891 
L 328.764097 -29.39117 
L 329.566743 -28.778981 
L 330.36939 -28.154393 
L 331.172037 -27.518412 
L 331.974684 -26.873207 
L 332.77733 -26.222045 
L 333.579977 -25.56897 
L 334.382624 -24.918318 
L 335.18527 -24.274205 
L 335.987917 -23.640124 
L 336.790564 -23.018712 
L 337.593211 -22.411734 
L 338.395857 -21.820204 
L 339.198504 -21.244595 
L 340.001151 -20.685006 
L 340.803797 -20.141227 
L 341.606444 -19.612674 
L 342.409091 -19.09821 
L 343.211738 -18.595928 
L 344.014384 -18.103002 
L 344.817031 -17.615684 
L 345.619678 -17.12952 
L 346.422325 -16.639792 
L 347.224971 -16.142134 
L 348.027618 -15.633229 
L 348.830265 -15.111445 
L 349.632911 -14.577313 
L 350.435558 -14.033708 
L 351.238205 -13.485725 
L 352.040852 -12.940228 
L 352.843498 -12.405143 
L 353.646145 -11.888604 
L 354.448792 -11.398064 
L 355.251438 -10.939501 
L 356.054085 -10.516833 
L 356.856732 -10.131609 
L 357.659379 -9.783008 
L 358.462025 -9.468126 
L 359.264672 -9.182491 
L 360.067319 -8.920699 
L 360.869965 -8.677061 
L 361.672612 -8.446163 
L 362.475259 -8.223254 
L 363.277906 -8.004456 
L 364.080552 -7.786796 
L 364.883199 -7.568128 
L 365.685846 -7.347017 
L 366.488493 -7.122629 
L 367.291139 -6.894683 
L 368.093786 -6.663456 
L 368.896433 -6.429817 
L 369.699079 -6.19525 
L 370.501726 -5.961821 
L 371.304373 -5.732071 
L 372.10702 -5.508814 
L 372.909666 -5.29489 
L 373.712313 -5.09288 
L 374.51496 -4.904861 
L 375.317606 -4.732212 
L 376.120253 -4.575515 
L 376.9229 -4.434557 
L 377.725547 -4.308412 
L 378.528193 -4.195596 
L 379.33084 -4.094257 
L 380.133487 -4.002376 
L 380.936133 -3.917948 
L 380.936133 -2.470909 
L 380.936133 -2.470909 
L 380.133487 -2.470909 
L 379.33084 -2.470909 
L 378.528193 -2.470909 
L 377.725547 -2.470909 
L 376.9229 -2.470909 
L 376.120253 -2.470909 
L 375.317606 -2.470909 
L 374.51496 -2.470909 
L 373.712313 -2.470909 
L 372.909666 -2.470909 
L 372.10702 -2.470909 
L 371.304373 -2.470909 
L 370.501726 -2.470909 
L 369.699079 -2.470909 
L 368.896433 -2.470909 
L 368.093786 -2.470909 
L 367.291139 -2.470909 
L 366.488493 -2.470909 
L 365.685846 -2.470909 
L 364.883199 -2.470909 
L 364.080552 -2.470909 
L 363.277906 -2.470909 
L 362.475259 -2.470909 
L 361.672612 -2.470909 
L 360.869965 -2.470909 
L 360.067319 -2.470909 
L 359.264672 -2.470909 
L 358.462025 -2.470909 
L 357.659379 -2.470909 
L 356.856732 -2.470909 
L 356.054085 -2.470909 
L 355.251438 -2.470909 
L 354.448792 -2.470909 
L 353.646145 -2.470909 
L 352.843498 -2.470909 
L 352.040852 -2.470909 
L 351.238205 -2.470909 
L 350.435558 -2.470909 
L 349.632911 -2.470909 
L 348.830265 -2.470909 
L 348.027618 -2.470909 
L 347.224971 -2.470909 
L 346.422325 -2.470909 
L 345.619678 -2.470909 
L 344.817031 -2.470909 
L 344.014384 -2.470909 
L 343.211738 -2.470909 
L 342.409091 -2.470909 
L 341.606444 -2.470909 
L 340.803797 -2.470909 
L 340.001151 -2.470909 
L 339.198504 -2.470909 
L 338.395857 -2.470909 
L 337.593211 -2.470909 
L 336.790564 -2.470909 
L 335.987917 -2.470909 
L 335.18527 -2.470909 
L 334.382624 -2.470909 
L 333.579977 -2.470909 
L 332.77733 -2.470909 
L 331.974684 -2.470909 
L 331.172037 -2.470909 
L 330.36939 -2.470909 
L 329.566743 -2.470909 
L 328.764097 -2.470909 
L 327.96145 -2.470909 
L 327.158803 -2.470909 
L 326.356157 -2.470909 
L 325.55351 -2.470909 
L 324.750863 -2.470909 
L 323.948216 -2.470909 
L 323.14557 -2.470909 
L 322.342923 -2.470909 
L 321.540276 -2.470909 
L 320.737629 -2.470909 
L 319.934983 -2.470909 
L 319.132336 -2.470909 
L 318.329689 -2.470909 
L 317.527043 -2.470909 
L 316.724396 -2.470909 
L 315.921749 -2.470909 
L 315.119102 -2.470909 
L 314.316456 -2.470909 
L 313.513809 -2.470909 
L 312.711162 -2.470909 
L 311.908516 -2.470909 
L 311.105869 -2.470909 
L 310.303222 -2.470909 
L 309.500575 -2.470909 
L 308.697929 -2.470909 
L 307.895282 -2.470909 
L 307.092635 -2.470909 
L 306.289988 -2.470909 
L 305.487342 -2.470909 
L 304.684695 -2.470909 
L 303.882048 -2.470909 
L 303.079402 -2.470909 
L 302.276755 -2.470909 
L 301.474108 -2.470909 
L 300.671461 -2.470909 
L 299.868815 -2.470909 
L 299.066168 -2.470909 
L 298.263521 -2.470909 
L 297.460875 -2.470909 
L 296.658228 -2.470909 
L 295.855581 -2.470909 
L 295.052934 -2.470909 
L 294.250288 -2.470909 
L 293.447641 -2.470909 
L 292.644994 -2.470909 
L 291.842348 -2.470909 
L 291.039701 -2.470909 
L 290.237054 -2.470909 
L 289.434407 -2.470909 
L 288.631761 -2.470909 
L 287.829114 -2.470909 
L 287.026467 -2.470909 
L 286.22382 -2.470909 
L 285.421174 -2.470909 
L 284.618527 -2.470909 
L 283.81588 -2.470909 
L 283.013234 -2.470909 
L 282.210587 -2.470909 
L 281.40794 -2.470909 
L 280.605293 -2.470909 
L 279.802647 -2.470909 
L 279 -2.470909 
L 278.197353 -2.470909 
L 277.394707 -2.470909 
L 276.59206 -2.470909 
L 275.789413 -2.470909 
L 274.986766 -2.470909 
L 274.18412 -2.470909 
L 273.381473 -2.470909 
L 272.578826 -2.470909 
L 271.77618 -2.470909 
L 270.973533 -2.470909 
L 270.170886 -2.470909 
L 269.368239 -2.470909 
L 268.565593 -2.470909 
L 267.762946 -2.470909 
L 266.960299 -2.470909 
L 266.157652 -2.470909 
L 265.355006 -2.470909 
L 264.552359 -2.470909 
L 263.749712 -2.470909 
L 262.947066 -2.470909 
L 262.144419 -2.470909 
L 261.341772 -2.470909 
L 260.539125 -2.470909 
L 259.736479 -2.470909 
L 258.933832 -2.470909 
L 258.131185 -2.470909 
L 257.328539 -2.470909 
L 256.525892 -2.470909 
L 255.723245 -2.470909 
L 254.920598 -2.470909 
L 254.117952 -2.470909 
L 253.315305 -2.470909 
L 252.512658 -2.470909 
L 251.710012 -2.470909 
L 250.907365 -2.470909 
L 250.104718 -2.470909 
L 249.302071 -2.470909 
L 248.499425 -2.470909 
L 247.696778 -2.470909 
L 246.894131 -2.470909 
L 246.091484 -2.470909 
L 245.288838 -2.470909 
L 244.486191 -2.470909 
L 243.683544 -2.470909 
L 242.880898 -2.470909 
L 242.078251 -2.470909 
L 241.275604 -2.470909 
L 240.472957 -2.470909 
L 239.670311 -2.470909 
L 238.867664 -2.470909 
L 238.065017 -2.470909 
L 237.262371 -2.470909 
L 236.459724 -2.470909 
L 235.657077 -2.470909 
L 234.85443 -2.470909 
L 234.051784 -2.470909 
L 233.249137 -2.470909 
L 232.44649 -2.470909 
L 231.643843 -2.470909 
z
" style="stroke: #116dc2; stroke-opacity: 0.2"/>
    </defs>
    <g clip-path="url(#pccb0506eed)">
     <use xlink:href="#m64c2c1013b" x="0" y="54.36" style="fill: #116dc2; fill-opacity: 0.2; stroke: #116dc2; stroke-opacity: 0.2"/>
    </g>
   </g>
   <g id="PolyCollection_3">
    <defs>
     <path id="mbbd0a134fa" d="M 25.363636 -2.470909 
L 25.363636 -4.686004 
L 26.166283 -5.233197 
L 26.96893 -5.849125 
L 27.771577 -6.594145 
L 28.574223 -7.549844 
L 29.37687 -8.808208 
L 30.179517 -10.461567 
L 30.982163 -12.597212 
L 31.78481 -15.230228 
L 32.587457 -18.138741 
L 33.390104 -20.917761 
L 34.19275 -23.365125 
L 34.995397 -25.69104 
L 35.798044 -28.23851 
L 36.60069 -31.150418 
L 37.403337 -34.384917 
L 38.205984 -37.676827 
L 39.008631 -40.504636 
L 39.811277 -42.615058 
L 40.613924 -44.350675 
L 41.416571 -46.19565 
L 42.219217 -48.325555 
L 43.021864 -50.413737 
L 43.824511 -51.748186 
L 44.627158 -51.889091 
L 45.429804 -51.099905 
L 46.232451 -49.817591 
L 47.035098 -48.035655 
L 47.837745 -45.573434 
L 48.640391 -42.631232 
L 49.443038 -39.681267 
L 50.245685 -36.827473 
L 51.048331 -33.844809 
L 51.850978 -30.809501 
L 52.653625 -27.983728 
L 53.456272 -25.362909 
L 54.258918 -22.825639 
L 55.061565 -20.350963 
L 55.864212 -17.897418 
L 56.666858 -15.453951 
L 57.469505 -13.224513 
L 58.272152 -11.372329 
L 59.074799 -9.796215 
L 59.877445 -8.412593 
L 60.680092 -7.295002 
L 61.482739 -6.469621 
L 62.285386 -5.790509 
L 63.088032 -5.089819 
L 63.088032 -2.470909 
L 63.088032 -2.470909 
L 62.285386 -2.470909 
L 61.482739 -2.470909 
L 60.680092 -2.470909 
L 59.877445 -2.470909 
L 59.074799 -2.470909 
L 58.272152 -2.470909 
L 57.469505 -2.470909 
L 56.666858 -2.470909 
L 55.864212 -2.470909 
L 55.061565 -2.470909 
L 54.258918 -2.470909 
L 53.456272 -2.470909 
L 52.653625 -2.470909 
L 51.850978 -2.470909 
L 51.048331 -2.470909 
L 50.245685 -2.470909 
L 49.443038 -2.470909 
L 48.640391 -2.470909 
L 47.837745 -2.470909 
L 47.035098 -2.470909 
L 46.232451 -2.470909 
L 45.429804 -2.470909 
L 44.627158 -2.470909 
L 43.824511 -2.470909 
L 43.021864 -2.470909 
L 42.219217 -2.470909 
L 41.416571 -2.470909 
L 40.613924 -2.470909 
L 39.811277 -2.470909 
L 39.008631 -2.470909 
L 38.205984 -2.470909 
L 37.403337 -2.470909 
L 36.60069 -2.470909 
L 35.798044 -2.470909 
L 34.995397 -2.470909 
L 34.19275 -2.470909 
L 33.390104 -2.470909 
L 32.587457 -2.470909 
L 31.78481 -2.470909 
L 30.982163 -2.470909 
L 30.179517 -2.470909 
L 29.37687 -2.470909 
L 28.574223 -2.470909 
L 27.771577 -2.470909 
L 26.96893 -2.470909 
L 26.166283 -2.470909 
L 25.363636 -2.470909 
z
" style="stroke: #8a8a8a; stroke-opacity: 0.2"/>
    </defs>
    <g clip-path="url(#pccb0506eed)">
     <use xlink:href="#mbbd0a134fa" x="0" y="54.36" style="fill: #8a8a8a; fill-opacity: 0.2; stroke: #8a8a8a; stroke-opacity: 0.2"/>
    </g>
   </g>
   <g id="line2d_1">
    <path d="M 368.896433 50.363865 
L 372.909666 49.835623 
L 377.725547 48.944407 
L 384.14672 47.54012 
L 386.554661 46.80639 
L 388.962601 45.873699 
L 393.778481 43.666928 
L 401.002301 40.212635 
L 404.212888 38.407984 
L 409.831415 34.89001 
L 415.449942 31.494157 
L 419.463176 28.960422 
L 423.47641 26.089102 
L 427.489643 23.279004 
L 430.70023 21.303333 
L 434.713464 19.068464 
L 437.121404 17.90405 
L 439.529344 16.982469 
L 441.937284 16.313824 
L 445.147871 15.670547 
L 448.358458 15.206438 
L 450.766398 15.054239 
L 453.174338 15.154713 
L 455.582278 15.519377 
L 457.990219 16.109721 
L 461.200806 17.175364 
L 464.411392 18.525147 
L 466.819333 19.744308 
L 469.227273 21.1656 
L 472.43786 23.353616 
L 480.464327 29.100207 
L 483.674914 30.933074 
L 488.490794 33.568961 
L 493.306674 36.587971 
L 498.122555 39.533085 
L 502.135788 41.741941 
L 505.346375 43.275066 
L 508.556962 44.576969 
L 512.570196 45.967353 
L 520.596663 48.442121 
L 523.80725 49.246532 
L 527.017837 49.827669 
L 531.833717 50.413999 
L 532.636364 50.497847 
L 532.636364 50.497847 
" clip-path="url(#pccb0506eed)" style="fill: none; stroke: #cf1313; stroke-width: 1.5; stroke-linecap: square"/>
   </g>
   <g id="line2d_2">
    <path d="M 231.643843 50.213117 
L 237.262371 49.150097 
L 242.880898 47.903321 
L 246.091484 46.982259 
L 249.302071 45.810758 
L 253.315305 44.044137 
L 262.144419 39.813392 
L 264.552359 38.433498 
L 267.762946 36.280616 
L 271.77618 33.221822 
L 277.394707 28.871505 
L 291.039701 18.887053 
L 293.447641 17.460571 
L 295.855581 16.330583 
L 298.263521 15.493942 
L 300.671461 14.872742 
L 303.079402 14.43757 
L 305.487342 14.259127 
L 307.092635 14.330157 
L 308.697929 14.568823 
L 311.105869 15.21966 
L 313.513809 16.135993 
L 317.527043 17.950536 
L 320.737629 19.598379 
L 323.948216 21.553885 
L 327.96145 24.369109 
L 331.974684 27.486793 
L 337.593211 31.948266 
L 340.803797 34.218773 
L 344.817031 36.744316 
L 349.632911 39.782687 
L 354.448792 42.961936 
L 356.856732 44.228391 
L 359.264672 45.177509 
L 362.475259 46.136746 
L 376.120253 49.784485 
L 379.33084 50.265743 
L 380.936133 50.442052 
L 380.936133 50.442052 
" clip-path="url(#pccb0506eed)" style="fill: none; stroke: #116dc2; stroke-width: 1.5; stroke-linecap: square"/>
   </g>
   <g id="line2d_3">
    <path d="M 25.363636 49.673996 
L 26.166283 49.126803 
L 26.96893 48.510875 
L 27.771577 47.765855 
L 28.574223 46.810156 
L 29.37687 45.551792 
L 30.179517 43.898433 
L 30.982163 41.762788 
L 31.78481 39.129772 
L 32.587457 36.221259 
L 33.390104 33.442239 
L 34.19275 30.994875 
L 34.995397 28.66896 
L 35.798044 26.12149 
L 36.60069 23.209582 
L 37.403337 19.975083 
L 38.205984 16.683173 
L 39.008631 13.855364 
L 39.811277 11.744942 
L 40.613924 10.009325 
L 41.416571 8.16435 
L 42.219217 6.034445 
L 43.021864 3.946263 
L 43.824511 2.611814 
L 44.627158 2.470909 
L 45.429804 3.260095 
L 46.232451 4.542409 
L 47.035098 6.324345 
L 47.837745 8.786566 
L 48.640391 11.728768 
L 49.443038 14.678733 
L 50.245685 17.532527 
L 51.048331 20.515191 
L 51.850978 23.550499 
L 52.653625 26.376272 
L 53.456272 28.997091 
L 54.258918 31.534361 
L 55.061565 34.009037 
L 55.864212 36.462582 
L 56.666858 38.906049 
L 57.469505 41.135487 
L 58.272152 42.987671 
L 59.074799 44.563785 
L 59.877445 45.947407 
L 60.680092 47.064998 
L 61.482739 47.890379 
L 62.285386 48.569491 
L 63.088032 49.270181 
" clip-path="url(#pccb0506eed)" style="fill: none; stroke: #8a8a8a; stroke-width: 1.5; stroke-linecap: square"/>
   </g>
  </g>
 </g>
 <defs>
  <clipPath id="pccb0506eed">
   <rect x="0" y="-0" width="558" height="54.36"/>
  </clipPath>
 </defs>
</svg>
