<?xml version="1.0" encoding="utf-8" standalone="no"?>
<!DOCTYPE svg PUBLIC "-//W3C//DTD SVG 1.1//EN"
  "http://www.w3.org/Graphics/SVG/1.1/DTD/svg11.dtd">
<svg xmlns:xlink="http://www.w3.org/1999/xlink" width="558pt" height="54.36pt" viewBox="0 0 558 54.36" xmlns="http://www.w3.org/2000/svg" version="1.1">
 <metadata>
  <rdf:RDF xmlns:dc="http://purl.org/dc/elements/1.1/" xmlns:cc="http://creativecommons.org/ns#" xmlns:rdf="http://www.w3.org/1999/02/22-rdf-syntax-ns#">
   <cc:Work>
    <dc:type rdf:resource="http://purl.org/dc/dcmitype/StillImage"/>
    <dc:date>2024-09-15T09:30:58.926934</dc:date>
    <dc:format>image/svg+xml</dc:format>
    <dc:creator>
     <cc:Agent>
      <dc:title>Matplotlib v3.5.2, https://matplotlib.org/</dc:title>
     </cc:Agent>
    </dc:creator>
   </cc:Work>
  </rdf:RDF>
 </metadata>
 <defs>
  <style type="text/css">*{stroke-linejoin: round; stroke-linecap: butt}</style>
 </defs>
 <g id="figure_1">
  <g id="patch_1">
   <path d="M 0 54.36 
L 558 54.36 
L 558 0 
L 0 0 
L 0 54.36 
z
" style="fill: none; opacity: 0"/>
  </g>
  <g id="axes_1">
   <g id="PolyCollection_1">
    <defs>
     <path id="m3ae8d8e4d4" d="M 315.128436 -2.470909 
L 315.128436 -4.338847 
L 315.865751 -4.442936 
L 316.603066 -4.548256 
L 317.340381 -4.654281 
L 318.077696 -4.760556 
L 318.815011 -4.866712 
L 319.552326 -4.972466 
L 320.289641 -5.077625 
L 321.026956 -5.182076 
L 321.764271 -5.285778 
L 322.501586 -5.388751 
L 323.238901 -5.491055 
L 323.976216 -5.592782 
L 324.713531 -5.694044 
L 325.450846 -5.794965 
L 326.188161 -5.895677 
L 326.925476 -5.996324 
L 327.662791 -6.097071 
L 328.400106 -6.198113 
L 329.137421 -6.299691 
L 329.874736 -6.402109 
L 330.612051 -6.505749 
L 331.349366 -6.611085 
L 332.086681 -6.718686 
L 332.823996 -6.829224 
L 333.561311 -6.943461 
L 334.298626 -7.06224 
L 335.035941 -7.186459 
L 335.773256 -7.317044 
L 336.510571 -7.454915 
L 337.247886 -7.600947 
L 337.985201 -7.755936 
L 338.722516 -7.920562 
L 339.459831 -8.095364 
L 340.197146 -8.280711 
L 340.934461 -8.476799 
L 341.671776 -8.68364 
L 342.409091 -8.901077 
L 343.146406 -9.128797 
L 343.883721 -9.366357 
L 344.621036 -9.613218 
L 345.358351 -9.868777 
L 346.095666 -10.132405 
L 346.832981 -10.403477 
L 347.570296 -10.681405 
L 348.307611 -10.965651 
L 349.044926 -11.255752 
L 349.782241 -11.55131 
L 350.519556 -11.852 
L 351.256871 -12.15755 
L 351.994186 -12.467727 
L 352.731501 -12.782314 
L 353.468816 -13.101095 
L 354.206131 -13.423832 
L 354.943446 -13.750256 
L 355.680761 -14.080063 
L 356.418076 -14.412919 
L 357.155391 -14.748466 
L 357.892706 -15.086346 
L 358.630021 -15.426219 
L 359.367336 -15.767786 
L 360.104651 -16.110807 
L 360.841966 -16.455117 
L 361.579281 -16.800624 
L 362.316596 -17.147302 
L 363.053911 -17.495174 
L 363.791226 -17.844278 
L 364.528541 -18.19463 
L 365.265856 -18.546187 
L 366.003171 -18.898803 
L 366.740486 -19.252198 
L 367.477801 -19.605938 
L 368.215116 -19.959424 
L 368.952431 -20.311905 
L 369.689746 -20.662504 
L 370.427061 -21.010258 
L 371.164376 -21.354173 
L 371.901691 -21.693288 
L 372.639006 -22.026733 
L 373.376321 -22.353796 
L 374.113636 -22.673972 
L 374.850951 -22.987003 
L 375.588266 -23.292908 
L 376.325581 -23.591984 
L 377.062896 -23.884806 
L 377.800211 -24.172203 
L 378.537526 -24.455222 
L 379.274841 -24.735087 
L 380.012156 -25.013151 
L 380.749471 -25.290844 
L 381.486786 -25.569626 
L 382.224101 -25.850941 
L 382.961416 -26.136175 
L 383.698732 -26.426622 
L 384.436047 -26.723454 
L 385.173362 -27.027699 
L 385.910677 -27.340216 
L 386.647992 -27.661683 
L 387.385307 -27.992576 
L 388.122622 -28.333157 
L 388.859937 -28.683458 
L 389.597252 -29.043268 
L 390.334567 -29.412119 
L 391.071882 -29.789282 
L 391.809197 -30.17376 
L 392.546512 -30.564296 
L 393.283827 -30.959385 
L 394.021142 -31.357299 
L 394.758457 -31.756123 
L 395.495772 -32.153805 
L 396.233087 -32.548211 
L 396.970402 -32.937191 
L 397.707717 -33.318644 
L 398.445032 -33.690587 
L 399.182347 -34.051214 
L 399.919662 -34.39895 
L 400.656977 -34.732483 
L 401.394292 -35.050787 
L 402.131607 -35.353124 
L 402.868922 -35.639028 
L 403.606237 -35.908275 
L 404.343552 -36.160836 
L 405.080867 -36.396837 
L 405.818182 -36.616495 
L 406.555497 -36.820081 
L 407.292812 -37.007874 
L 408.030127 -37.180135 
L 408.767442 -37.337092 
L 409.504757 -37.478942 
L 410.242072 -37.605863 
L 410.979387 -37.718036 
L 411.716702 -37.815681 
L 412.454017 -37.899083 
L 413.191332 -37.968626 
L 413.928647 -38.024816 
L 414.665962 -38.0683 
L 415.403277 -38.099863 
L 416.140592 -38.120425 
L 416.877907 -38.131021 
L 417.615222 -38.132764 
L 418.352537 -38.126813 
L 419.089852 -38.114324 
L 419.827167 -38.0964 
L 420.564482 -38.074043 
L 421.301797 -38.048105 
L 422.039112 -38.019244 
L 422.776427 -37.987887 
L 423.513742 -37.954201 
L 424.251057 -37.918075 
L 424.988372 -37.879111 
L 425.725687 -37.836638 
L 426.463002 -37.789729 
L 427.200317 -37.737245 
L 427.937632 -37.677885 
L 428.674947 -37.610256 
L 429.412262 -37.532951 
L 430.149577 -37.444635 
L 430.886892 -37.344133 
L 431.624207 -37.230511 
L 432.361522 -37.103151 
L 433.098837 -36.961808 
L 433.836152 -36.806643 
L 434.573467 -36.638235 
L 435.310782 -36.457561 
L 436.048097 -36.265953 
L 436.785412 -36.065026 
L 437.522727 -35.856584 
L 438.260042 -35.642519 
L 438.997357 -35.424693 
L 439.734672 -35.204825 
L 440.471987 -34.984384 
L 441.209302 -34.764501 
L 441.946617 -34.545897 
L 442.683932 -34.328837 
L 443.421247 -34.113117 
L 444.158562 -33.898068 
L 444.895877 -33.682592 
L 445.633192 -33.465224 
L 446.370507 -33.244199 
L 447.107822 -33.017544 
L 447.845137 -32.78317 
L 448.582452 -32.538968 
L 449.319767 -32.2829 
L 450.057082 -32.013088 
L 450.794397 -31.727886 
L 451.531712 -31.425945 
L 452.269027 -31.106267 
L 453.006342 -30.768238 
L 453.743658 -30.411653 
L 454.480973 -30.036731 
L 455.218288 -29.644106 
L 455.955603 -29.234824 
L 456.692918 -28.810311 
L 457.430233 -28.37234 
L 458.167548 -27.922989 
L 458.904863 -27.464587 
L 459.642178 -26.999654 
L 460.379493 -26.530836 
L 461.116808 -26.06083 
L 461.854123 -25.592317 
L 462.591438 -25.127888 
L 463.328753 -24.669971 
L 464.066068 -24.220767 
L 464.803383 -23.782192 
L 465.540698 -23.355826 
L 466.278013 -22.942875 
L 467.015328 -22.54414 
L 467.752643 -22.160005 
L 468.489958 -21.79044 
L 469.227273 -21.435006 
L 469.964588 -21.092892 
L 470.701903 -20.762949 
L 471.439218 -20.443747 
L 472.176533 -20.133636 
L 472.913848 -19.830818 
L 473.651163 -19.533422 
L 474.388478 -19.239582 
L 475.125793 -18.947511 
L 475.863108 -18.655573 
L 476.600423 -18.362338 
L 477.337738 -18.066635 
L 478.075053 -17.767582 
L 478.812368 -17.464603 
L 479.549683 -17.157432 
L 480.286998 -16.846097 
L 481.024313 -16.530894 
L 481.761628 -16.212347 
L 482.498943 -15.891164 
L 483.236258 -15.568186 
L 483.973573 -15.244336 
L 484.710888 -14.92057 
L 485.448203 -14.597837 
L 486.185518 -14.277037 
L 486.922833 -13.959001 
L 487.660148 -13.644466 
L 488.397463 -13.334072 
L 489.134778 -13.028351 
L 489.872093 -12.72774 
L 490.609408 -12.43258 
L 491.346723 -12.143134 
L 492.084038 -11.859587 
L 492.821353 -11.582065 
L 493.558668 -11.310633 
L 494.295983 -11.045303 
L 495.033298 -10.786037 
L 495.770613 -10.53274 
L 496.507928 -10.285268 
L 497.245243 -10.043422 
L 497.982558 -9.806952 
L 498.719873 -9.57556 
L 499.457188 -9.348915 
L 500.194503 -9.126658 
L 500.931818 -8.908426 
L 501.669133 -8.693869 
L 502.406448 -8.482668 
L 503.143763 -8.274561 
L 503.881078 -8.069357 
L 504.618393 -7.866955 
L 505.355708 -7.667349 
L 506.093023 -7.470636 
L 506.830338 -7.27701 
L 507.567653 -7.086755 
L 508.304968 -6.900232 
L 509.042283 -6.717858 
L 509.779598 -6.540084 
L 510.516913 -6.367378 
L 511.254228 -6.200195 
L 511.991543 -6.038961 
L 512.728858 -5.884053 
L 513.466173 -5.735784 
L 514.203488 -5.594393 
L 514.940803 -5.460035 
L 515.678118 -5.332784 
L 516.415433 -5.212628 
L 517.152748 -5.099478 
L 517.890063 -4.993175 
L 518.627378 -4.893496 
L 519.364693 -4.800167 
L 520.102008 -4.712877 
L 520.839323 -4.631282 
L 521.576638 -4.555023 
L 522.313953 -4.483727 
L 523.051268 -4.417019 
L 523.788584 -4.354526 
L 524.525899 -4.295877 
L 525.263214 -4.240705 
L 526.000529 -4.188652 
L 526.737844 -4.139358 
L 527.475159 -4.09247 
L 528.212474 -4.047636 
L 528.949789 -4.004504 
L 529.687104 -3.962729 
L 530.424419 -3.921973 
L 531.161734 -3.881912 
L 531.899049 -3.84224 
L 532.636364 -3.802679 
L 532.636364 -2.470909 
L 532.636364 -2.470909 
L 531.899049 -2.470909 
L 531.161734 -2.470909 
L 530.424419 -2.470909 
L 529.687104 -2.470909 
L 528.949789 -2.470909 
L 528.212474 -2.470909 
L 527.475159 -2.470909 
L 526.737844 -2.470909 
L 526.000529 -2.470909 
L 525.263214 -2.470909 
L 524.525899 -2.470909 
L 523.788584 -2.470909 
L 523.051268 -2.470909 
L 522.313953 -2.470909 
L 521.576638 -2.470909 
L 520.839323 -2.470909 
L 520.102008 -2.470909 
L 519.364693 -2.470909 
L 518.627378 -2.470909 
L 517.890063 -2.470909 
L 517.152748 -2.470909 
L 516.415433 -2.470909 
L 515.678118 -2.470909 
L 514.940803 -2.470909 
L 514.203488 -2.470909 
L 513.466173 -2.470909 
L 512.728858 -2.470909 
L 511.991543 -2.470909 
L 511.254228 -2.470909 
L 510.516913 -2.470909 
L 509.779598 -2.470909 
L 509.042283 -2.470909 
L 508.304968 -2.470909 
L 507.567653 -2.470909 
L 506.830338 -2.470909 
L 506.093023 -2.470909 
L 505.355708 -2.470909 
L 504.618393 -2.470909 
L 503.881078 -2.470909 
L 503.143763 -2.470909 
L 502.406448 -2.470909 
L 501.669133 -2.470909 
L 500.931818 -2.470909 
L 500.194503 -2.470909 
L 499.457188 -2.470909 
L 498.719873 -2.470909 
L 497.982558 -2.470909 
L 497.245243 -2.470909 
L 496.507928 -2.470909 
L 495.770613 -2.470909 
L 495.033298 -2.470909 
L 494.295983 -2.470909 
L 493.558668 -2.470909 
L 492.821353 -2.470909 
L 492.084038 -2.470909 
L 491.346723 -2.470909 
L 490.609408 -2.470909 
L 489.872093 -2.470909 
L 489.134778 -2.470909 
L 488.397463 -2.470909 
L 487.660148 -2.470909 
L 486.922833 -2.470909 
L 486.185518 -2.470909 
L 485.448203 -2.470909 
L 484.710888 -2.470909 
L 483.973573 -2.470909 
L 483.236258 -2.470909 
L 482.498943 -2.470909 
L 481.761628 -2.470909 
L 481.024313 -2.470909 
L 480.286998 -2.470909 
L 479.549683 -2.470909 
L 478.812368 -2.470909 
L 478.075053 -2.470909 
L 477.337738 -2.470909 
L 476.600423 -2.470909 
L 475.863108 -2.470909 
L 475.125793 -2.470909 
L 474.388478 -2.470909 
L 473.651163 -2.470909 
L 472.913848 -2.470909 
L 472.176533 -2.470909 
L 471.439218 -2.470909 
L 470.701903 -2.470909 
L 469.964588 -2.470909 
L 469.227273 -2.470909 
L 468.489958 -2.470909 
L 467.752643 -2.470909 
L 467.015328 -2.470909 
L 466.278013 -2.470909 
L 465.540698 -2.470909 
L 464.803383 -2.470909 
L 464.066068 -2.470909 
L 463.328753 -2.470909 
L 462.591438 -2.470909 
L 461.854123 -2.470909 
L 461.116808 -2.470909 
L 460.379493 -2.470909 
L 459.642178 -2.470909 
L 458.904863 -2.470909 
L 458.167548 -2.470909 
L 457.430233 -2.470909 
L 456.692918 -2.470909 
L 455.955603 -2.470909 
L 455.218288 -2.470909 
L 454.480973 -2.470909 
L 453.743658 -2.470909 
L 453.006342 -2.470909 
L 452.269027 -2.470909 
L 451.531712 -2.470909 
L 450.794397 -2.470909 
L 450.057082 -2.470909 
L 449.319767 -2.470909 
L 448.582452 -2.470909 
L 447.845137 -2.470909 
L 447.107822 -2.470909 
L 446.370507 -2.470909 
L 445.633192 -2.470909 
L 444.895877 -2.470909 
L 444.158562 -2.470909 
L 443.421247 -2.470909 
L 442.683932 -2.470909 
L 441.946617 -2.470909 
L 441.209302 -2.470909 
L 440.471987 -2.470909 
L 439.734672 -2.470909 
L 438.997357 -2.470909 
L 438.260042 -2.470909 
L 437.522727 -2.470909 
L 436.785412 -2.470909 
L 436.048097 -2.470909 
L 435.310782 -2.470909 
L 434.573467 -2.470909 
L 433.836152 -2.470909 
L 433.098837 -2.470909 
L 432.361522 -2.470909 
L 431.624207 -2.470909 
L 430.886892 -2.470909 
L 430.149577 -2.470909 
L 429.412262 -2.470909 
L 428.674947 -2.470909 
L 427.937632 -2.470909 
L 427.200317 -2.470909 
L 426.463002 -2.470909 
L 425.725687 -2.470909 
L 424.988372 -2.470909 
L 424.251057 -2.470909 
L 423.513742 -2.470909 
L 422.776427 -2.470909 
L 422.039112 -2.470909 
L 421.301797 -2.470909 
L 420.564482 -2.470909 
L 419.827167 -2.470909 
L 419.089852 -2.470909 
L 418.352537 -2.470909 
L 417.615222 -2.470909 
L 416.877907 -2.470909 
L 416.140592 -2.470909 
L 415.403277 -2.470909 
L 414.665962 -2.470909 
L 413.928647 -2.470909 
L 413.191332 -2.470909 
L 412.454017 -2.470909 
L 411.716702 -2.470909 
L 410.979387 -2.470909 
L 410.242072 -2.470909 
L 409.504757 -2.470909 
L 408.767442 -2.470909 
L 408.030127 -2.470909 
L 407.292812 -2.470909 
L 406.555497 -2.470909 
L 405.818182 -2.470909 
L 405.080867 -2.470909 
L 404.343552 -2.470909 
L 403.606237 -2.470909 
L 402.868922 -2.470909 
L 402.131607 -2.470909 
L 401.394292 -2.470909 
L 400.656977 -2.470909 
L 399.919662 -2.470909 
L 399.182347 -2.470909 
L 398.445032 -2.470909 
L 397.707717 -2.470909 
L 396.970402 -2.470909 
L 396.233087 -2.470909 
L 395.495772 -2.470909 
L 394.758457 -2.470909 
L 394.021142 -2.470909 
L 393.283827 -2.470909 
L 392.546512 -2.470909 
L 391.809197 -2.470909 
L 391.071882 -2.470909 
L 390.334567 -2.470909 
L 389.597252 -2.470909 
L 388.859937 -2.470909 
L 388.122622 -2.470909 
L 387.385307 -2.470909 
L 386.647992 -2.470909 
L 385.910677 -2.470909 
L 385.173362 -2.470909 
L 384.436047 -2.470909 
L 383.698732 -2.470909 
L 382.961416 -2.470909 
L 382.224101 -2.470909 
L 381.486786 -2.470909 
L 380.749471 -2.470909 
L 380.012156 -2.470909 
L 379.274841 -2.470909 
L 378.537526 -2.470909 
L 377.800211 -2.470909 
L 377.062896 -2.470909 
L 376.325581 -2.470909 
L 375.588266 -2.470909 
L 374.850951 -2.470909 
L 374.113636 -2.470909 
L 373.376321 -2.470909 
L 372.639006 -2.470909 
L 371.901691 -2.470909 
L 371.164376 -2.470909 
L 370.427061 -2.470909 
L 369.689746 -2.470909 
L 368.952431 -2.470909 
L 368.215116 -2.470909 
L 367.477801 -2.470909 
L 366.740486 -2.470909 
L 366.003171 -2.470909 
L 365.265856 -2.470909 
L 364.528541 -2.470909 
L 363.791226 -2.470909 
L 363.053911 -2.470909 
L 362.316596 -2.470909 
L 361.579281 -2.470909 
L 360.841966 -2.470909 
L 360.104651 -2.470909 
L 359.367336 -2.470909 
L 358.630021 -2.470909 
L 357.892706 -2.470909 
L 357.155391 -2.470909 
L 356.418076 -2.470909 
L 355.680761 -2.470909 
L 354.943446 -2.470909 
L 354.206131 -2.470909 
L 353.468816 -2.470909 
L 352.731501 -2.470909 
L 351.994186 -2.470909 
L 351.256871 -2.470909 
L 350.519556 -2.470909 
L 349.782241 -2.470909 
L 349.044926 -2.470909 
L 348.307611 -2.470909 
L 347.570296 -2.470909 
L 346.832981 -2.470909 
L 346.095666 -2.470909 
L 345.358351 -2.470909 
L 344.621036 -2.470909 
L 343.883721 -2.470909 
L 343.146406 -2.470909 
L 342.409091 -2.470909 
L 341.671776 -2.470909 
L 340.934461 -2.470909 
L 340.197146 -2.470909 
L 339.459831 -2.470909 
L 338.722516 -2.470909 
L 337.985201 -2.470909 
L 337.247886 -2.470909 
L 336.510571 -2.470909 
L 335.773256 -2.470909 
L 335.035941 -2.470909 
L 334.298626 -2.470909 
L 333.561311 -2.470909 
L 332.823996 -2.470909 
L 332.086681 -2.470909 
L 331.349366 -2.470909 
L 330.612051 -2.470909 
L 329.874736 -2.470909 
L 329.137421 -2.470909 
L 328.400106 -2.470909 
L 327.662791 -2.470909 
L 326.925476 -2.470909 
L 326.188161 -2.470909 
L 325.450846 -2.470909 
L 324.713531 -2.470909 
L 323.976216 -2.470909 
L 323.238901 -2.470909 
L 322.501586 -2.470909 
L 321.764271 -2.470909 
L 321.026956 -2.470909 
L 320.289641 -2.470909 
L 319.552326 -2.470909 
L 318.815011 -2.470909 
L 318.077696 -2.470909 
L 317.340381 -2.470909 
L 316.603066 -2.470909 
L 315.865751 -2.470909 
L 315.128436 -2.470909 
z
" style="stroke: #cf1313; stroke-opacity: 0.2"/>
    </defs>
    <g clip-path="url(#pb5b2c24117)">
     <use xlink:href="#m3ae8d8e4d4" x="0" y="54.36" style="fill: #cf1313; fill-opacity: 0.2; stroke: #cf1313; stroke-opacity: 0.2"/>
    </g>
   </g>
   <g id="PolyCollection_2">
    <defs>
     <path id="m284a4a7047" d="M 176.513214 -2.470909 
L 176.513214 -3.65346 
L 177.250529 -3.703117 
L 177.987844 -3.755033 
L 178.725159 -3.809293 
L 179.462474 -3.866124 
L 180.199789 -3.925886 
L 180.937104 -3.989058 
L 181.674419 -4.0562 
L 182.411734 -4.1279 
L 183.149049 -4.20471 
L 183.886364 -4.28709 
L 184.623679 -4.375351 
L 185.360994 -4.469619 
L 186.098309 -4.569814 
L 186.835624 -4.675664 
L 187.572939 -4.786726 
L 188.310254 -4.902438 
L 189.047569 -5.022179 
L 189.784884 -5.145336 
L 190.522199 -5.271366 
L 191.259514 -5.399855 
L 191.996829 -5.530554 
L 192.734144 -5.663409 
L 193.471459 -5.798564 
L 194.208774 -5.93636 
L 194.946089 -6.077313 
L 195.683404 -6.222088 
L 196.420719 -6.37147 
L 197.158034 -6.526326 
L 197.895349 -6.687574 
L 198.632664 -6.856145 
L 199.369979 -7.032952 
L 200.107294 -7.218847 
L 200.844609 -7.414598 
L 201.581924 -7.620844 
L 202.319239 -7.838078 
L 203.056554 -8.066617 
L 203.793869 -8.306596 
L 204.531184 -8.557967 
L 205.268499 -8.820512 
L 206.005814 -9.093873 
L 206.743129 -9.377584 
L 207.480444 -9.671122 
L 208.217759 -9.973946 
L 208.955074 -10.285541 
L 209.692389 -10.605451 
L 210.429704 -10.933291 
L 211.167019 -11.268747 
L 211.904334 -11.611565 
L 212.641649 -11.96151 
L 213.378964 -12.318332 
L 214.116279 -12.681719 
L 214.853594 -13.051257 
L 215.590909 -13.426396 
L 216.328224 -13.80644 
L 217.065539 -14.190544 
L 217.802854 -14.577744 
L 218.540169 -14.966988 
L 219.277484 -15.357194 
L 220.014799 -15.747303 
L 220.752114 -16.136345 
L 221.489429 -16.523486 
L 222.226744 -16.90807 
L 222.964059 -17.289646 
L 223.701374 -17.667975 
L 224.438689 -18.043031 
L 225.176004 -18.414975 
L 225.913319 -18.784138 
L 226.650634 -19.150986 
L 227.387949 -19.5161 
L 228.125264 -19.880149 
L 228.862579 -20.243882 
L 229.599894 -20.608118 
L 230.337209 -20.97375 
L 231.074524 -21.341746 
L 231.811839 -21.713158 
L 232.549154 -22.089122 
L 233.286469 -22.470851 
L 234.023784 -22.859614 
L 234.761099 -23.25671 
L 235.498414 -23.663416 
L 236.235729 -24.080926 
L 236.973044 -24.510281 
L 237.710359 -24.952279 
L 238.447674 -25.407398 
L 239.184989 -25.875708 
L 239.922304 -26.356807 
L 240.659619 -26.849768 
L 241.396934 -27.353113 
L 242.134249 -27.86483 
L 242.871564 -28.382408 
L 243.608879 -28.902918 
L 244.346195 -29.423124 
L 245.08351 -29.939608 
L 245.820825 -30.44892 
L 246.55814 -30.947723 
L 247.295455 -31.432924 
L 248.03277 -31.901796 
L 248.770085 -32.352056 
L 249.5074 -32.781919 
L 250.244715 -33.19011 
L 250.98203 -33.575852 
L 251.719345 -33.938821 
L 252.45666 -34.279094 
L 253.193975 -34.597079 
L 253.93129 -34.89346 
L 254.668605 -35.169143 
L 255.40592 -35.425219 
L 256.143235 -35.662934 
L 256.88055 -35.883672 
L 257.617865 -36.088938 
L 258.35518 -36.280336 
L 259.092495 -36.459541 
L 259.82981 -36.628253 
L 260.567125 -36.788136 
L 261.30444 -36.940754 
L 262.041755 -37.087494 
L 262.77907 -37.229504 
L 263.516385 -37.367638 
L 264.2537 -37.502432 
L 264.991015 -37.63411 
L 265.72833 -37.762611 
L 266.465645 -37.887659 
L 267.20296 -38.008836 
L 267.940275 -38.125678 
L 268.67759 -38.237751 
L 269.414905 -38.344719 
L 270.15222 -38.446387 
L 270.889535 -38.542701 
L 271.62685 -38.633731 
L 272.364165 -38.71961 
L 273.10148 -38.80047 
L 273.838795 -38.876352 
L 274.57611 -38.947133 
L 275.313425 -39.01245 
L 276.05074 -39.071655 
L 276.788055 -39.12378 
L 277.52537 -39.167538 
L 278.262685 -39.201334 
L 279 -39.223303 
L 279.737315 -39.231364 
L 280.47463 -39.223288 
L 281.211945 -39.196769 
L 281.94926 -39.149516 
L 282.686575 -39.079346 
L 283.42389 -38.984276 
L 284.161205 -38.86263 
L 284.89852 -38.713123 
L 285.635835 -38.53495 
L 286.37315 -38.327844 
L 287.110465 -38.092116 
L 287.84778 -37.828659 
L 288.585095 -37.538917 
L 289.32241 -37.224824 
L 290.059725 -36.888702 
L 290.79704 -36.533149 
L 291.534355 -36.160904 
L 292.27167 -35.774714 
L 293.008985 -35.377212 
L 293.7463 -34.970821 
L 294.483615 -34.557688 
L 295.22093 -34.139649 
L 295.958245 -33.718236 
L 296.69556 -33.294713 
L 297.432875 -32.870138 
L 298.17019 -32.445429 
L 298.907505 -32.021443 
L 299.64482 -31.599028 
L 300.382135 -31.179061 
L 301.11945 -30.762445 
L 301.856765 -30.350081 
L 302.59408 -29.942797 
L 303.331395 -29.54126 
L 304.06871 -29.145868 
L 304.806025 -28.756645 
L 305.54334 -28.373149 
L 306.280655 -27.994416 
L 307.01797 -27.61894 
L 307.755285 -27.244704 
L 308.4926 -26.869269 
L 309.229915 -26.489897 
L 309.96723 -26.103722 
L 310.704545 -25.707931 
L 311.44186 -25.299961 
L 312.179175 -24.877673 
L 312.91649 -24.439505 
L 313.653805 -23.984576 
L 314.391121 -23.512749 
L 315.128436 -23.024639 
L 315.865751 -22.521568 
L 316.603066 -22.005493 
L 317.340381 -21.478886 
L 318.077696 -20.944608 
L 318.815011 -20.405771 
L 319.552326 -19.865605 
L 320.289641 -19.327339 
L 321.026956 -18.794098 
L 321.764271 -18.268827 
L 322.501586 -17.754232 
L 323.238901 -17.25274 
L 323.976216 -16.766481 
L 324.713531 -16.297282 
L 325.450846 -15.846659 
L 326.188161 -15.415823 
L 326.925476 -15.005685 
L 327.662791 -14.616849 
L 328.400106 -14.249612 
L 329.137421 -13.903956 
L 329.874736 -13.579539 
L 330.612051 -13.275685 
L 331.349366 -12.991382 
L 332.086681 -12.725279 
L 332.823996 -12.475705 
L 333.561311 -12.240689 
L 334.298626 -12.017999 
L 335.035941 -11.8052 
L 335.773256 -11.599715 
L 336.510571 -11.398911 
L 337.247886 -11.20018 
L 337.985201 -11.001032 
L 338.722516 -10.799188 
L 339.459831 -10.59267 
L 340.197146 -10.379877 
L 340.934461 -10.159657 
L 341.671776 -9.931359 
L 342.409091 -9.694864 
L 343.146406 -9.4506 
L 343.883721 -9.199523 
L 344.621036 -8.943077 
L 345.358351 -8.683124 
L 346.095666 -8.421849 
L 346.832981 -8.161644 
L 347.570296 -7.904971 
L 348.307611 -7.654224 
L 349.044926 -7.411588 
L 349.782241 -7.178912 
L 350.519556 -6.957613 
L 351.256871 -6.748598 
L 351.994186 -6.55224 
L 352.731501 -6.368383 
L 353.468816 -6.19639 
L 354.206131 -6.03523 
L 354.943446 -5.883577 
L 355.680761 -5.739938 
L 356.418076 -5.60277 
L 357.155391 -5.470602 
L 357.892706 -5.342125 
L 358.630021 -5.216276 
L 359.367336 -5.092278 
L 360.104651 -4.969666 
L 360.841966 -4.848282 
L 361.579281 -4.728246 
L 362.316596 -4.609913 
L 363.053911 -4.49382 
L 363.791226 -4.380621 
L 364.528541 -4.271021 
L 365.265856 -4.165719 
L 366.003171 -4.065346 
L 366.740486 -3.97042 
L 367.477801 -3.881309 
L 368.215116 -3.79821 
L 368.952431 -3.721135 
L 368.952431 -2.470909 
L 368.952431 -2.470909 
L 368.215116 -2.470909 
L 367.477801 -2.470909 
L 366.740486 -2.470909 
L 366.003171 -2.470909 
L 365.265856 -2.470909 
L 364.528541 -2.470909 
L 363.791226 -2.470909 
L 363.053911 -2.470909 
L 362.316596 -2.470909 
L 361.579281 -2.470909 
L 360.841966 -2.470909 
L 360.104651 -2.470909 
L 359.367336 -2.470909 
L 358.630021 -2.470909 
L 357.892706 -2.470909 
L 357.155391 -2.470909 
L 356.418076 -2.470909 
L 355.680761 -2.470909 
L 354.943446 -2.470909 
L 354.206131 -2.470909 
L 353.468816 -2.470909 
L 352.731501 -2.470909 
L 351.994186 -2.470909 
L 351.256871 -2.470909 
L 350.519556 -2.470909 
L 349.782241 -2.470909 
L 349.044926 -2.470909 
L 348.307611 -2.470909 
L 347.570296 -2.470909 
L 346.832981 -2.470909 
L 346.095666 -2.470909 
L 345.358351 -2.470909 
L 344.621036 -2.470909 
L 343.883721 -2.470909 
L 343.146406 -2.470909 
L 342.409091 -2.470909 
L 341.671776 -2.470909 
L 340.934461 -2.470909 
L 340.197146 -2.470909 
L 339.459831 -2.470909 
L 338.722516 -2.470909 
L 337.985201 -2.470909 
L 337.247886 -2.470909 
L 336.510571 -2.470909 
L 335.773256 -2.470909 
L 335.035941 -2.470909 
L 334.298626 -2.470909 
L 333.561311 -2.470909 
L 332.823996 -2.470909 
L 332.086681 -2.470909 
L 331.349366 -2.470909 
L 330.612051 -2.470909 
L 329.874736 -2.470909 
L 329.137421 -2.470909 
L 328.400106 -2.470909 
L 327.662791 -2.470909 
L 326.925476 -2.470909 
L 326.188161 -2.470909 
L 325.450846 -2.470909 
L 324.713531 -2.470909 
L 323.976216 -2.470909 
L 323.238901 -2.470909 
L 322.501586 -2.470909 
L 321.764271 -2.470909 
L 321.026956 -2.470909 
L 320.289641 -2.470909 
L 319.552326 -2.470909 
L 318.815011 -2.470909 
L 318.077696 -2.470909 
L 317.340381 -2.470909 
L 316.603066 -2.470909 
L 315.865751 -2.470909 
L 315.128436 -2.470909 
L 314.391121 -2.470909 
L 313.653805 -2.470909 
L 312.91649 -2.470909 
L 312.179175 -2.470909 
L 311.44186 -2.470909 
L 310.704545 -2.470909 
L 309.96723 -2.470909 
L 309.229915 -2.470909 
L 308.4926 -2.470909 
L 307.755285 -2.470909 
L 307.01797 -2.470909 
L 306.280655 -2.470909 
L 305.54334 -2.470909 
L 304.806025 -2.470909 
L 304.06871 -2.470909 
L 303.331395 -2.470909 
L 302.59408 -2.470909 
L 301.856765 -2.470909 
L 301.11945 -2.470909 
L 300.382135 -2.470909 
L 299.64482 -2.470909 
L 298.907505 -2.470909 
L 298.17019 -2.470909 
L 297.432875 -2.470909 
L 296.69556 -2.470909 
L 295.958245 -2.470909 
L 295.22093 -2.470909 
L 294.483615 -2.470909 
L 293.7463 -2.470909 
L 293.008985 -2.470909 
L 292.27167 -2.470909 
L 291.534355 -2.470909 
L 290.79704 -2.470909 
L 290.059725 -2.470909 
L 289.32241 -2.470909 
L 288.585095 -2.470909 
L 287.84778 -2.470909 
L 287.110465 -2.470909 
L 286.37315 -2.470909 
L 285.635835 -2.470909 
L 284.89852 -2.470909 
L 284.161205 -2.470909 
L 283.42389 -2.470909 
L 282.686575 -2.470909 
L 281.94926 -2.470909 
L 281.211945 -2.470909 
L 280.47463 -2.470909 
L 279.737315 -2.470909 
L 279 -2.470909 
L 278.262685 -2.470909 
L 277.52537 -2.470909 
L 276.788055 -2.470909 
L 276.05074 -2.470909 
L 275.313425 -2.470909 
L 274.57611 -2.470909 
L 273.838795 -2.470909 
L 273.10148 -2.470909 
L 272.364165 -2.470909 
L 271.62685 -2.470909 
L 270.889535 -2.470909 
L 270.15222 -2.470909 
L 269.414905 -2.470909 
L 268.67759 -2.470909 
L 267.940275 -2.470909 
L 267.20296 -2.470909 
L 266.465645 -2.470909 
L 265.72833 -2.470909 
L 264.991015 -2.470909 
L 264.2537 -2.470909 
L 263.516385 -2.470909 
L 262.77907 -2.470909 
L 262.041755 -2.470909 
L 261.30444 -2.470909 
L 260.567125 -2.470909 
L 259.82981 -2.470909 
L 259.092495 -2.470909 
L 258.35518 -2.470909 
L 257.617865 -2.470909 
L 256.88055 -2.470909 
L 256.143235 -2.470909 
L 255.40592 -2.470909 
L 254.668605 -2.470909 
L 253.93129 -2.470909 
L 253.193975 -2.470909 
L 252.45666 -2.470909 
L 251.719345 -2.470909 
L 250.98203 -2.470909 
L 250.244715 -2.470909 
L 249.5074 -2.470909 
L 248.770085 -2.470909 
L 248.03277 -2.470909 
L 247.295455 -2.470909 
L 246.55814 -2.470909 
L 245.820825 -2.470909 
L 245.08351 -2.470909 
L 244.346195 -2.470909 
L 243.608879 -2.470909 
L 242.871564 -2.470909 
L 242.134249 -2.470909 
L 241.396934 -2.470909 
L 240.659619 -2.470909 
L 239.922304 -2.470909 
L 239.184989 -2.470909 
L 238.447674 -2.470909 
L 237.710359 -2.470909 
L 236.973044 -2.470909 
L 236.235729 -2.470909 
L 235.498414 -2.470909 
L 234.761099 -2.470909 
L 234.023784 -2.470909 
L 233.286469 -2.470909 
L 232.549154 -2.470909 
L 231.811839 -2.470909 
L 231.074524 -2.470909 
L 230.337209 -2.470909 
L 229.599894 -2.470909 
L 228.862579 -2.470909 
L 228.125264 -2.470909 
L 227.387949 -2.470909 
L 226.650634 -2.470909 
L 225.913319 -2.470909 
L 225.176004 -2.470909 
L 224.438689 -2.470909 
L 223.701374 -2.470909 
L 222.964059 -2.470909 
L 222.226744 -2.470909 
L 221.489429 -2.470909 
L 220.752114 -2.470909 
L 220.014799 -2.470909 
L 219.277484 -2.470909 
L 218.540169 -2.470909 
L 217.802854 -2.470909 
L 217.065539 -2.470909 
L 216.328224 -2.470909 
L 215.590909 -2.470909 
L 214.853594 -2.470909 
L 214.116279 -2.470909 
L 213.378964 -2.470909 
L 212.641649 -2.470909 
L 211.904334 -2.470909 
L 211.167019 -2.470909 
L 210.429704 -2.470909 
L 209.692389 -2.470909 
L 208.955074 -2.470909 
L 208.217759 -2.470909 
L 207.480444 -2.470909 
L 206.743129 -2.470909 
L 206.005814 -2.470909 
L 205.268499 -2.470909 
L 204.531184 -2.470909 
L 203.793869 -2.470909 
L 203.056554 -2.470909 
L 202.319239 -2.470909 
L 201.581924 -2.470909 
L 200.844609 -2.470909 
L 200.107294 -2.470909 
L 199.369979 -2.470909 
L 198.632664 -2.470909 
L 197.895349 -2.470909 
L 197.158034 -2.470909 
L 196.420719 -2.470909 
L 195.683404 -2.470909 
L 194.946089 -2.470909 
L 194.208774 -2.470909 
L 193.471459 -2.470909 
L 192.734144 -2.470909 
L 191.996829 -2.470909 
L 191.259514 -2.470909 
L 190.522199 -2.470909 
L 189.784884 -2.470909 
L 189.047569 -2.470909 
L 188.310254 -2.470909 
L 187.572939 -2.470909 
L 186.835624 -2.470909 
L 186.098309 -2.470909 
L 185.360994 -2.470909 
L 184.623679 -2.470909 
L 183.886364 -2.470909 
L 183.149049 -2.470909 
L 182.411734 -2.470909 
L 181.674419 -2.470909 
L 180.937104 -2.470909 
L 180.199789 -2.470909 
L 179.462474 -2.470909 
L 178.725159 -2.470909 
L 177.987844 -2.470909 
L 177.250529 -2.470909 
L 176.513214 -2.470909 
z
" style="stroke: #116dc2; stroke-opacity: 0.2"/>
    </defs>
    <g clip-path="url(#pb5b2c24117)">
     <use xlink:href="#m284a4a7047" x="0" y="54.36" style="fill: #116dc2; fill-opacity: 0.2; stroke: #116dc2; stroke-opacity: 0.2"/>
    </g>
   </g>
   <g id="PolyCollection_3">
    <defs>
     <path id="m61e0b4b44e" d="M 25.363636 -2.470909 
L 25.363636 -4.804713 
L 26.100951 -5.383919 
L 26.838266 -6.070547 
L 27.575581 -6.943918 
L 28.312896 -7.987047 
L 29.050211 -9.094527 
L 29.787526 -10.184909 
L 30.524841 -11.259378 
L 31.262156 -12.380615 
L 31.999471 -13.650711 
L 32.736786 -15.199896 
L 33.474101 -17.162635 
L 34.211416 -19.602633 
L 34.948732 -22.386129 
L 35.686047 -25.176353 
L 36.423362 -27.675274 
L 37.160677 -29.858484 
L 37.897992 -31.901092 
L 38.635307 -33.959189 
L 39.372622 -36.107515 
L 40.109937 -38.400869 
L 40.847252 -40.922704 
L 41.584567 -43.735752 
L 42.321882 -46.694587 
L 43.059197 -49.340618 
L 43.796512 -51.141378 
L 44.533827 -51.889091 
L 45.271142 -51.824734 
L 46.008457 -51.393925 
L 46.745772 -50.933664 
L 47.483087 -50.538936 
L 48.220402 -50.11001 
L 48.957717 -49.474277 
L 49.695032 -48.476496 
L 50.432347 -47.022483 
L 51.169662 -45.129744 
L 51.906977 -42.921256 
L 52.644292 -40.515375 
L 53.381607 -37.986249 
L 54.118922 -35.431717 
L 54.856237 -32.925123 
L 55.593552 -30.405266 
L 56.330867 -27.789207 
L 57.068182 -25.169894 
L 57.805497 -22.725788 
L 58.542812 -20.485121 
L 59.280127 -18.361924 
L 60.017442 -16.368721 
L 60.754757 -14.617063 
L 61.492072 -13.135534 
L 62.229387 -11.821927 
L 62.966702 -10.574095 
L 63.704017 -9.384831 
L 64.441332 -8.304098 
L 65.178647 -7.361332 
L 65.915962 -6.539424 
L 66.653277 -5.806021 
L 67.390592 -5.151487 
L 68.127907 -4.581443 
L 68.127907 -2.470909 
L 68.127907 -2.470909 
L 67.390592 -2.470909 
L 66.653277 -2.470909 
L 65.915962 -2.470909 
L 65.178647 -2.470909 
L 64.441332 -2.470909 
L 63.704017 -2.470909 
L 62.966702 -2.470909 
L 62.229387 -2.470909 
L 61.492072 -2.470909 
L 60.754757 -2.470909 
L 60.017442 -2.470909 
L 59.280127 -2.470909 
L 58.542812 -2.470909 
L 57.805497 -2.470909 
L 57.068182 -2.470909 
L 56.330867 -2.470909 
L 55.593552 -2.470909 
L 54.856237 -2.470909 
L 54.118922 -2.470909 
L 53.381607 -2.470909 
L 52.644292 -2.470909 
L 51.906977 -2.470909 
L 51.169662 -2.470909 
L 50.432347 -2.470909 
L 49.695032 -2.470909 
L 48.957717 -2.470909 
L 48.220402 -2.470909 
L 47.483087 -2.470909 
L 46.745772 -2.470909 
L 46.008457 -2.470909 
L 45.271142 -2.470909 
L 44.533827 -2.470909 
L 43.796512 -2.470909 
L 43.059197 -2.470909 
L 42.321882 -2.470909 
L 41.584567 -2.470909 
L 40.847252 -2.470909 
L 40.109937 -2.470909 
L 39.372622 -2.470909 
L 38.635307 -2.470909 
L 37.897992 -2.470909 
L 37.160677 -2.470909 
L 36.423362 -2.470909 
L 35.686047 -2.470909 
L 34.948732 -2.470909 
L 34.211416 -2.470909 
L 33.474101 -2.470909 
L 32.736786 -2.470909 
L 31.999471 -2.470909 
L 31.262156 -2.470909 
L 30.524841 -2.470909 
L 29.787526 -2.470909 
L 29.050211 -2.470909 
L 28.312896 -2.470909 
L 27.575581 -2.470909 
L 26.838266 -2.470909 
L 26.100951 -2.470909 
L 25.363636 -2.470909 
z
" style="stroke: #8a8a8a; stroke-opacity: 0.2"/>
    </defs>
    <g clip-path="url(#pb5b2c24117)">
     <use xlink:href="#m61e0b4b44e" x="0" y="54.36" style="fill: #8a8a8a; fill-opacity: 0.2; stroke: #8a8a8a; stroke-opacity: 0.2"/>
    </g>
   </g>
   <g id="line2d_1">
    <path d="M 315.128436 50.021153 
L 336.510571 46.905085 
L 340.197146 46.079289 
L 343.883721 44.993643 
L 347.570296 43.678595 
L 352.731501 41.577686 
L 359.367336 38.592214 
L 377.062896 30.475194 
L 387.385307 26.367424 
L 391.071882 24.570718 
L 401.394292 19.309213 
L 404.343552 18.199164 
L 407.292812 17.352126 
L 410.242072 16.754137 
L 413.191332 16.391374 
L 416.140592 16.239575 
L 420.564482 16.285957 
L 427.200317 16.622755 
L 430.886892 17.015867 
L 433.836152 17.553357 
L 437.522727 18.503416 
L 448.582452 21.821032 
L 451.531712 22.934055 
L 454.480973 24.323269 
L 457.430233 25.98766 
L 467.752643 32.199995 
L 470.701903 33.597051 
L 475.125793 35.412489 
L 481.761628 38.147653 
L 491.346723 42.216866 
L 495.770613 43.82726 
L 500.931818 45.451574 
L 507.567653 47.273245 
L 512.728858 48.475947 
L 517.152748 49.260522 
L 521.576638 49.804977 
L 527.475159 50.26753 
L 532.636364 50.557321 
L 532.636364 50.557321 
" clip-path="url(#pb5b2c24117)" style="fill: none; stroke: #cf1313; stroke-width: 1.5; stroke-linecap: square"/>
   </g>
   <g id="line2d_2">
    <path d="M 176.513214 50.70654 
L 183.149049 50.15529 
L 187.572939 49.573274 
L 194.208774 48.42364 
L 199.369979 47.327048 
L 203.056554 46.293383 
L 206.743129 44.982416 
L 210.429704 43.426709 
L 214.853594 41.308743 
L 235.498414 30.696584 
L 239.184989 28.484292 
L 242.871564 25.977592 
L 248.03277 22.458204 
L 250.98203 20.784148 
L 253.193975 19.762921 
L 256.143235 18.697066 
L 259.092495 17.900459 
L 263.516385 16.992362 
L 269.414905 16.015281 
L 274.57611 15.412867 
L 278.262685 15.158666 
L 281.211945 15.163231 
L 283.42389 15.375724 
L 285.635835 15.82505 
L 287.84778 16.531341 
L 290.059725 17.471298 
L 293.008985 18.982788 
L 299.64482 22.760972 
L 304.806025 25.603355 
L 312.91649 29.920495 
L 315.865751 31.838432 
L 326.188161 38.944177 
L 328.400106 40.110388 
L 330.612051 41.084315 
L 333.561311 42.119311 
L 337.985201 43.358968 
L 342.409091 44.665136 
L 352.731501 47.991617 
L 356.418076 48.75723 
L 363.791226 49.979379 
L 368.952431 50.638865 
L 368.952431 50.638865 
" clip-path="url(#pb5b2c24117)" style="fill: none; stroke: #116dc2; stroke-width: 1.5; stroke-linecap: square"/>
   </g>
   <g id="line2d_3">
    <path d="M 25.363636 49.555287 
L 26.100951 48.976081 
L 26.838266 48.289453 
L 27.575581 47.416082 
L 28.312896 46.372953 
L 29.050211 45.265473 
L 29.787526 44.175091 
L 30.524841 43.100622 
L 31.262156 41.979385 
L 31.999471 40.709289 
L 32.736786 39.160104 
L 33.474101 37.197365 
L 34.211416 34.757367 
L 34.948732 31.973871 
L 35.686047 29.183647 
L 36.423362 26.684726 
L 37.160677 24.501516 
L 37.897992 22.458908 
L 38.635307 20.400811 
L 39.372622 18.252485 
L 40.109937 15.959131 
L 40.847252 13.437296 
L 41.584567 10.624248 
L 42.321882 7.665413 
L 43.059197 5.019382 
L 43.796512 3.218622 
L 44.533827 2.470909 
L 45.271142 2.535266 
L 46.008457 2.966075 
L 46.745772 3.426336 
L 47.483087 3.821064 
L 48.220402 4.24999 
L 48.957717 4.885723 
L 49.695032 5.883504 
L 50.432347 7.337517 
L 51.169662 9.230256 
L 51.906977 11.438744 
L 52.644292 13.844625 
L 53.381607 16.373751 
L 54.118922 18.928283 
L 54.856237 21.434877 
L 55.593552 23.954734 
L 56.330867 26.570793 
L 57.068182 29.190106 
L 57.805497 31.634212 
L 58.542812 33.874879 
L 59.280127 35.998076 
L 60.017442 37.991279 
L 60.754757 39.742937 
L 61.492072 41.224466 
L 62.229387 42.538073 
L 62.966702 43.785905 
L 63.704017 44.975169 
L 64.441332 46.055902 
L 65.178647 46.998668 
L 65.915962 47.820576 
L 66.653277 48.553979 
L 67.390592 49.208513 
L 68.127907 49.778557 
" clip-path="url(#pb5b2c24117)" style="fill: none; stroke: #8a8a8a; stroke-width: 1.5; stroke-linecap: square"/>
   </g>
  </g>
 </g>
 <defs>
  <clipPath id="pb5b2c24117">
   <rect x="0" y="-0" width="558" height="54.36"/>
  </clipPath>
 </defs>
</svg>
