<?xml version="1.0" encoding="utf-8" standalone="no"?>
<!DOCTYPE svg PUBLIC "-//W3C//DTD SVG 1.1//EN"
  "http://www.w3.org/Graphics/SVG/1.1/DTD/svg11.dtd">
<svg xmlns:xlink="http://www.w3.org/1999/xlink" width="558pt" height="54.36pt" viewBox="0 0 558 54.36" xmlns="http://www.w3.org/2000/svg" version="1.1">
 <metadata>
  <rdf:RDF xmlns:dc="http://purl.org/dc/elements/1.1/" xmlns:cc="http://creativecommons.org/ns#" xmlns:rdf="http://www.w3.org/1999/02/22-rdf-syntax-ns#">
   <cc:Work>
    <dc:type rdf:resource="http://purl.org/dc/dcmitype/StillImage"/>
    <dc:date>2024-09-14T12:47:03.015048</dc:date>
    <dc:format>image/svg+xml</dc:format>
    <dc:creator>
     <cc:Agent>
      <dc:title>Matplotlib v3.5.2, https://matplotlib.org/</dc:title>
     </cc:Agent>
    </dc:creator>
   </cc:Work>
  </rdf:RDF>
 </metadata>
 <defs>
  <style type="text/css">*{stroke-linejoin: round; stroke-linecap: butt}</style>
 </defs>
 <g id="figure_1">
  <g id="patch_1">
   <path d="M 0 54.36 
L 558 54.36 
L 558 0 
L 0 0 
L 0 54.36 
z
" style="fill: none; opacity: 0"/>
  </g>
  <g id="axes_1">
   <g id="PolyCollection_1">
    <defs>
     <path id="m2d74da3b0c" d="M 314.81183 -2.470909 
L 314.81183 -4.422721 
L 315.550218 -4.512188 
L 316.288607 -4.600774 
L 317.026995 -4.688264 
L 317.765383 -4.774516 
L 318.503771 -4.859457 
L 319.24216 -4.943086 
L 319.980548 -5.025459 
L 320.718936 -5.106691 
L 321.457324 -5.186943 
L 322.195713 -5.266418 
L 322.934101 -5.345359 
L 323.672489 -5.424049 
L 324.410877 -5.502808 
L 325.149266 -5.581997 
L 325.887654 -5.662023 
L 326.626042 -5.743344 
L 327.36443 -5.826471 
L 328.102819 -5.911969 
L 328.841207 -6.000459 
L 329.579595 -6.092613 
L 330.317983 -6.189142 
L 331.056372 -6.290787 
L 331.79476 -6.398298 
L 332.533148 -6.512417 
L 333.271536 -6.633848 
L 334.009925 -6.763234 
L 334.748313 -6.901131 
L 335.486701 -7.047982 
L 336.225089 -7.204096 
L 336.963478 -7.369632 
L 337.701866 -7.544594 
L 338.440254 -7.728823 
L 339.178642 -7.922016 
L 339.917031 -8.123734 
L 340.655419 -8.333438 
L 341.393807 -8.550516 
L 342.132195 -8.774328 
L 342.870584 -9.004249 
L 343.608972 -9.23971 
L 344.34736 -9.480242 
L 345.085748 -9.72551 
L 345.824137 -9.975341 
L 346.562525 -10.229737 
L 347.300913 -10.48888 
L 348.039301 -10.753123 
L 348.77769 -11.022966 
L 349.516078 -11.299019 
L 350.254466 -11.581958 
L 350.992854 -11.872471 
L 351.731243 -12.171201 
L 352.469631 -12.478688 
L 353.208019 -12.795311 
L 353.946407 -13.12124 
L 354.684796 -13.456396 
L 355.423184 -13.800423 
L 356.161572 -14.152674 
L 356.89996 -14.51221 
L 357.638349 -14.877817 
L 358.376737 -15.248035 
L 359.115125 -15.621197 
L 359.853513 -15.995487 
L 360.591902 -16.368992 
L 361.33029 -16.739773 
L 362.068678 -17.105931 
L 362.807066 -17.465668 
L 363.545455 -17.817352 
L 364.283843 -18.159571 
L 365.022231 -18.491183 
L 365.760619 -18.811351 
L 366.499008 -19.119576 
L 367.237396 -19.415713 
L 367.975784 -19.699979 
L 368.714172 -19.972949 
L 369.452561 -20.235546 
L 370.190949 -20.489017 
L 370.929337 -20.7349 
L 371.667725 -20.974985 
L 372.406114 -21.211263 
L 373.144502 -21.44587 
L 373.88289 -21.681029 
L 374.621278 -21.918977 
L 375.359667 -22.161898 
L 376.098055 -22.411849 
L 376.836443 -22.670693 
L 377.574831 -22.940026 
L 378.31322 -23.221119 
L 379.051608 -23.514865 
L 379.789996 -23.821735 
L 380.528384 -24.141753 
L 381.266773 -24.474478 
L 382.005161 -24.819017 
L 382.743549 -25.174039 
L 383.481937 -25.537822 
L 384.220326 -25.908308 
L 384.958714 -26.283177 
L 385.697102 -26.659935 
L 386.43549 -27.036011 
L 387.173879 -27.408863 
L 387.912267 -27.77608 
L 388.650655 -28.135486 
L 389.389043 -28.485237 
L 390.127432 -28.8239 
L 390.86582 -29.15052 
L 391.604208 -29.464662 
L 392.342596 -29.766432 
L 393.080985 -30.056471 
L 393.819373 -30.335926 
L 394.557761 -30.606394 
L 395.296149 -30.869841 
L 396.034538 -31.128511 
L 396.772926 -31.38481 
L 397.511314 -31.641192 
L 398.249702 -31.900029 
L 398.988091 -32.163501 
L 399.726479 -32.433475 
L 400.464867 -32.711412 
L 401.203255 -32.998282 
L 401.941644 -33.294507 
L 402.680032 -33.599922 
L 403.41842 -33.913759 
L 404.156808 -34.23466 
L 404.895197 -34.560711 
L 405.633585 -34.8895 
L 406.371973 -35.21819 
L 407.110361 -35.543612 
L 407.84875 -35.862371 
L 408.587138 -36.170961 
L 409.325526 -36.465881 
L 410.063914 -36.743751 
L 410.802303 -37.001424 
L 411.540691 -37.236087 
L 412.279079 -37.445343 
L 413.017467 -37.627283 
L 413.755855 -37.780528 
L 414.494244 -37.904257 
L 415.232632 -37.998208 
L 415.97102 -38.062662 
L 416.709408 -38.098403 
L 417.447797 -38.106672 
L 418.186185 -38.089103 
L 418.924573 -38.047658 
L 419.662961 -37.984551 
L 420.40135 -37.902186 
L 421.139738 -37.803087 
L 421.878126 -37.689841 
L 422.616514 -37.565042 
L 423.354903 -37.431246 
L 424.093291 -37.290921 
L 424.831679 -37.146414 
L 425.570067 -36.999908 
L 426.308456 -36.853382 
L 427.046844 -36.708574 
L 427.785232 -36.566938 
L 428.52362 -36.429609 
L 429.262009 -36.297364 
L 430.000397 -36.170596 
L 430.738785 -36.049286 
L 431.477173 -35.933 
L 432.215562 -35.820894 
L 432.95395 -35.71173 
L 433.692338 -35.603927 
L 434.430726 -35.495606 
L 435.169115 -35.384674 
L 435.907503 -35.268902 
L 436.645891 -35.146023 
L 437.384279 -35.013829 
L 438.122668 -34.870266 
L 438.861056 -34.713525 
L 439.599444 -34.542118 
L 440.337832 -34.354943 
L 441.076221 -34.151324 
L 441.814609 -33.931038 
L 442.552997 -33.694315 
L 443.291385 -33.441822 
L 444.029774 -33.174625 
L 444.768162 -32.894141 
L 445.50655 -32.602069 
L 446.244938 -32.300319 
L 446.983327 -31.990935 
L 447.721715 -31.676013 
L 448.460103 -31.357627 
L 449.198491 -31.037756 
L 449.93688 -30.718218 
L 450.675268 -30.400624 
L 451.413656 -30.086328 
L 452.152044 -29.77641 
L 452.890433 -29.471649 
L 453.628821 -29.172532 
L 454.367209 -28.879257 
L 455.105597 -28.591755 
L 455.843986 -28.309718 
L 456.582374 -28.032633 
L 457.320762 -27.75982 
L 458.05915 -27.490472 
L 458.797539 -27.223689 
L 459.535927 -26.958515 
L 460.274315 -26.693966 
L 461.012703 -26.429059 
L 461.751092 -26.162831 
L 462.48948 -25.894356 
L 463.227868 -25.622761 
L 463.966256 -25.34724 
L 464.704645 -25.067067 
L 465.443033 -24.781614 
L 466.181421 -24.490365 
L 466.919809 -24.192937 
L 467.658198 -23.889094 
L 468.396586 -23.578772 
L 469.134974 -23.262081 
L 469.873362 -22.939319 
L 470.611751 -22.610961 
L 471.350139 -22.277652 
L 472.088527 -21.940171 
L 472.826915 -21.599402 
L 473.565304 -21.256276 
L 474.303692 -20.91172 
L 475.04208 -20.566597 
L 475.780468 -20.221647 
L 476.518857 -19.877437 
L 477.257245 -19.534317 
L 477.995633 -19.192403 
L 478.734021 -18.851565 
L 479.47241 -18.511446 
L 480.210798 -18.171495 
L 480.949186 -17.831018 
L 481.687574 -17.489245 
L 482.425963 -17.145403 
L 483.164351 -16.798797 
L 483.902739 -16.448879 
L 484.641127 -16.095318 
L 485.379516 -15.738046 
L 486.117904 -15.377297 
L 486.856292 -15.013616 
L 487.59468 -14.647852 
L 488.333069 -14.281131 
L 489.071457 -13.914815 
L 489.809845 -13.550441 
L 490.548233 -13.189656 
L 491.286622 -12.83415 
L 492.02501 -12.485584 
L 492.763398 -12.145531 
L 493.501786 -11.815416 
L 494.240175 -11.496475 
L 494.978563 -11.189723 
L 495.716951 -10.895931 
L 496.455339 -10.615618 
L 497.193728 -10.349054 
L 497.932116 -10.096265 
L 498.670504 -9.857049 
L 499.408892 -9.630994 
L 500.147281 -9.417501 
L 500.885669 -9.215801 
L 501.624057 -9.024983 
L 502.362445 -8.844018 
L 503.100834 -8.67178 
L 503.839222 -8.50708 
L 504.57761 -8.348691 
L 505.315998 -8.195386 
L 506.054387 -8.045967 
L 506.792775 -7.899305 
L 507.531163 -7.754378 
L 508.269551 -7.610303 
L 509.00794 -7.466366 
L 509.746328 -7.322049 
L 510.484716 -7.177043 
L 511.223104 -7.031253 
L 511.961493 -6.884793 
L 512.699881 -6.737963 
L 513.438269 -6.591223 
L 514.176657 -6.445157 
L 514.915046 -6.300424 
L 515.653434 -6.157713 
L 516.391822 -6.017697 
L 517.13021 -5.880991 
L 517.868599 -5.748118 
L 518.606987 -5.619478 
L 519.345375 -5.495343 
L 520.083763 -5.375843 
L 520.822152 -5.260982 
L 521.56054 -5.150649 
L 522.298928 -5.044645 
L 523.037316 -4.942706 
L 523.775705 -4.844534 
L 524.514093 -4.749822 
L 525.252481 -4.658279 
L 525.990869 -4.569647 
L 526.729258 -4.483715 
L 527.467646 -4.400322 
L 528.206034 -4.319362 
L 528.944422 -4.240775 
L 529.682811 -4.164543 
L 530.421199 -4.090679 
L 531.159587 -4.019217 
L 531.897975 -3.950201 
L 532.636364 -3.883678 
L 532.636364 -2.470909 
L 532.636364 -2.470909 
L 531.897975 -2.470909 
L 531.159587 -2.470909 
L 530.421199 -2.470909 
L 529.682811 -2.470909 
L 528.944422 -2.470909 
L 528.206034 -2.470909 
L 527.467646 -2.470909 
L 526.729258 -2.470909 
L 525.990869 -2.470909 
L 525.252481 -2.470909 
L 524.514093 -2.470909 
L 523.775705 -2.470909 
L 523.037316 -2.470909 
L 522.298928 -2.470909 
L 521.56054 -2.470909 
L 520.822152 -2.470909 
L 520.083763 -2.470909 
L 519.345375 -2.470909 
L 518.606987 -2.470909 
L 517.868599 -2.470909 
L 517.13021 -2.470909 
L 516.391822 -2.470909 
L 515.653434 -2.470909 
L 514.915046 -2.470909 
L 514.176657 -2.470909 
L 513.438269 -2.470909 
L 512.699881 -2.470909 
L 511.961493 -2.470909 
L 511.223104 -2.470909 
L 510.484716 -2.470909 
L 509.746328 -2.470909 
L 509.00794 -2.470909 
L 508.269551 -2.470909 
L 507.531163 -2.470909 
L 506.792775 -2.470909 
L 506.054387 -2.470909 
L 505.315998 -2.470909 
L 504.57761 -2.470909 
L 503.839222 -2.470909 
L 503.100834 -2.470909 
L 502.362445 -2.470909 
L 501.624057 -2.470909 
L 500.885669 -2.470909 
L 500.147281 -2.470909 
L 499.408892 -2.470909 
L 498.670504 -2.470909 
L 497.932116 -2.470909 
L 497.193728 -2.470909 
L 496.455339 -2.470909 
L 495.716951 -2.470909 
L 494.978563 -2.470909 
L 494.240175 -2.470909 
L 493.501786 -2.470909 
L 492.763398 -2.470909 
L 492.02501 -2.470909 
L 491.286622 -2.470909 
L 490.548233 -2.470909 
L 489.809845 -2.470909 
L 489.071457 -2.470909 
L 488.333069 -2.470909 
L 487.59468 -2.470909 
L 486.856292 -2.470909 
L 486.117904 -2.470909 
L 485.379516 -2.470909 
L 484.641127 -2.470909 
L 483.902739 -2.470909 
L 483.164351 -2.470909 
L 482.425963 -2.470909 
L 481.687574 -2.470909 
L 480.949186 -2.470909 
L 480.210798 -2.470909 
L 479.47241 -2.470909 
L 478.734021 -2.470909 
L 477.995633 -2.470909 
L 477.257245 -2.470909 
L 476.518857 -2.470909 
L 475.780468 -2.470909 
L 475.04208 -2.470909 
L 474.303692 -2.470909 
L 473.565304 -2.470909 
L 472.826915 -2.470909 
L 472.088527 -2.470909 
L 471.350139 -2.470909 
L 470.611751 -2.470909 
L 469.873362 -2.470909 
L 469.134974 -2.470909 
L 468.396586 -2.470909 
L 467.658198 -2.470909 
L 466.919809 -2.470909 
L 466.181421 -2.470909 
L 465.443033 -2.470909 
L 464.704645 -2.470909 
L 463.966256 -2.470909 
L 463.227868 -2.470909 
L 462.48948 -2.470909 
L 461.751092 -2.470909 
L 461.012703 -2.470909 
L 460.274315 -2.470909 
L 459.535927 -2.470909 
L 458.797539 -2.470909 
L 458.05915 -2.470909 
L 457.320762 -2.470909 
L 456.582374 -2.470909 
L 455.843986 -2.470909 
L 455.105597 -2.470909 
L 454.367209 -2.470909 
L 453.628821 -2.470909 
L 452.890433 -2.470909 
L 452.152044 -2.470909 
L 451.413656 -2.470909 
L 450.675268 -2.470909 
L 449.93688 -2.470909 
L 449.198491 -2.470909 
L 448.460103 -2.470909 
L 447.721715 -2.470909 
L 446.983327 -2.470909 
L 446.244938 -2.470909 
L 445.50655 -2.470909 
L 444.768162 -2.470909 
L 444.029774 -2.470909 
L 443.291385 -2.470909 
L 442.552997 -2.470909 
L 441.814609 -2.470909 
L 441.076221 -2.470909 
L 440.337832 -2.470909 
L 439.599444 -2.470909 
L 438.861056 -2.470909 
L 438.122668 -2.470909 
L 437.384279 -2.470909 
L 436.645891 -2.470909 
L 435.907503 -2.470909 
L 435.169115 -2.470909 
L 434.430726 -2.470909 
L 433.692338 -2.470909 
L 432.95395 -2.470909 
L 432.215562 -2.470909 
L 431.477173 -2.470909 
L 430.738785 -2.470909 
L 430.000397 -2.470909 
L 429.262009 -2.470909 
L 428.52362 -2.470909 
L 427.785232 -2.470909 
L 427.046844 -2.470909 
L 426.308456 -2.470909 
L 425.570067 -2.470909 
L 424.831679 -2.470909 
L 424.093291 -2.470909 
L 423.354903 -2.470909 
L 422.616514 -2.470909 
L 421.878126 -2.470909 
L 421.139738 -2.470909 
L 420.40135 -2.470909 
L 419.662961 -2.470909 
L 418.924573 -2.470909 
L 418.186185 -2.470909 
L 417.447797 -2.470909 
L 416.709408 -2.470909 
L 415.97102 -2.470909 
L 415.232632 -2.470909 
L 414.494244 -2.470909 
L 413.755855 -2.470909 
L 413.017467 -2.470909 
L 412.279079 -2.470909 
L 411.540691 -2.470909 
L 410.802303 -2.470909 
L 410.063914 -2.470909 
L 409.325526 -2.470909 
L 408.587138 -2.470909 
L 407.84875 -2.470909 
L 407.110361 -2.470909 
L 406.371973 -2.470909 
L 405.633585 -2.470909 
L 404.895197 -2.470909 
L 404.156808 -2.470909 
L 403.41842 -2.470909 
L 402.680032 -2.470909 
L 401.941644 -2.470909 
L 401.203255 -2.470909 
L 400.464867 -2.470909 
L 399.726479 -2.470909 
L 398.988091 -2.470909 
L 398.249702 -2.470909 
L 397.511314 -2.470909 
L 396.772926 -2.470909 
L 396.034538 -2.470909 
L 395.296149 -2.470909 
L 394.557761 -2.470909 
L 393.819373 -2.470909 
L 393.080985 -2.470909 
L 392.342596 -2.470909 
L 391.604208 -2.470909 
L 390.86582 -2.470909 
L 390.127432 -2.470909 
L 389.389043 -2.470909 
L 388.650655 -2.470909 
L 387.912267 -2.470909 
L 387.173879 -2.470909 
L 386.43549 -2.470909 
L 385.697102 -2.470909 
L 384.958714 -2.470909 
L 384.220326 -2.470909 
L 383.481937 -2.470909 
L 382.743549 -2.470909 
L 382.005161 -2.470909 
L 381.266773 -2.470909 
L 380.528384 -2.470909 
L 379.789996 -2.470909 
L 379.051608 -2.470909 
L 378.31322 -2.470909 
L 377.574831 -2.470909 
L 376.836443 -2.470909 
L 376.098055 -2.470909 
L 375.359667 -2.470909 
L 374.621278 -2.470909 
L 373.88289 -2.470909 
L 373.144502 -2.470909 
L 372.406114 -2.470909 
L 371.667725 -2.470909 
L 370.929337 -2.470909 
L 370.190949 -2.470909 
L 369.452561 -2.470909 
L 368.714172 -2.470909 
L 367.975784 -2.470909 
L 367.237396 -2.470909 
L 366.499008 -2.470909 
L 365.760619 -2.470909 
L 365.022231 -2.470909 
L 364.283843 -2.470909 
L 363.545455 -2.470909 
L 362.807066 -2.470909 
L 362.068678 -2.470909 
L 361.33029 -2.470909 
L 360.591902 -2.470909 
L 359.853513 -2.470909 
L 359.115125 -2.470909 
L 358.376737 -2.470909 
L 357.638349 -2.470909 
L 356.89996 -2.470909 
L 356.161572 -2.470909 
L 355.423184 -2.470909 
L 354.684796 -2.470909 
L 353.946407 -2.470909 
L 353.208019 -2.470909 
L 352.469631 -2.470909 
L 351.731243 -2.470909 
L 350.992854 -2.470909 
L 350.254466 -2.470909 
L 349.516078 -2.470909 
L 348.77769 -2.470909 
L 348.039301 -2.470909 
L 347.300913 -2.470909 
L 346.562525 -2.470909 
L 345.824137 -2.470909 
L 345.085748 -2.470909 
L 344.34736 -2.470909 
L 343.608972 -2.470909 
L 342.870584 -2.470909 
L 342.132195 -2.470909 
L 341.393807 -2.470909 
L 340.655419 -2.470909 
L 339.917031 -2.470909 
L 339.178642 -2.470909 
L 338.440254 -2.470909 
L 337.701866 -2.470909 
L 336.963478 -2.470909 
L 336.225089 -2.470909 
L 335.486701 -2.470909 
L 334.748313 -2.470909 
L 334.009925 -2.470909 
L 333.271536 -2.470909 
L 332.533148 -2.470909 
L 331.79476 -2.470909 
L 331.056372 -2.470909 
L 330.317983 -2.470909 
L 329.579595 -2.470909 
L 328.841207 -2.470909 
L 328.102819 -2.470909 
L 327.36443 -2.470909 
L 326.626042 -2.470909 
L 325.887654 -2.470909 
L 325.149266 -2.470909 
L 324.410877 -2.470909 
L 323.672489 -2.470909 
L 322.934101 -2.470909 
L 322.195713 -2.470909 
L 321.457324 -2.470909 
L 320.718936 -2.470909 
L 319.980548 -2.470909 
L 319.24216 -2.470909 
L 318.503771 -2.470909 
L 317.765383 -2.470909 
L 317.026995 -2.470909 
L 316.288607 -2.470909 
L 315.550218 -2.470909 
L 314.81183 -2.470909 
z
" style="stroke: #cf1313; stroke-opacity: 0.2"/>
    </defs>
    <g clip-path="url(#p113ab0a880)">
     <use xlink:href="#m2d74da3b0c" x="0" y="54.36" style="fill: #cf1313; fill-opacity: 0.2; stroke: #cf1313; stroke-opacity: 0.2"/>
    </g>
   </g>
   <g id="PolyCollection_2">
    <defs>
     <path id="mdf426502ed" d="M 179.68678 -2.470909 
L 179.68678 -3.930525 
L 180.425169 -4.017867 
L 181.163557 -4.108535 
L 181.901945 -4.202097 
L 182.640333 -4.298133 
L 183.378722 -4.39627 
L 184.11711 -4.496206 
L 184.855498 -4.597732 
L 185.593886 -4.700749 
L 186.332275 -4.80527 
L 187.070663 -4.911424 
L 187.809051 -5.019447 
L 188.547439 -5.12967 
L 189.285828 -5.242508 
L 190.024216 -5.358431 
L 190.762604 -5.47795 
L 191.500992 -5.601588 
L 192.239381 -5.729852 
L 192.977769 -5.863211 
L 193.716157 -6.00207 
L 194.454545 -6.14675 
L 195.192934 -6.297476 
L 195.931322 -6.454374 
L 196.66971 -6.617473 
L 197.408098 -6.786728 
L 198.146487 -6.962039 
L 198.884875 -7.143292 
L 199.623263 -7.33039 
L 200.361651 -7.523292 
L 201.10004 -7.72204 
L 201.838428 -7.926773 
L 202.576816 -8.137727 
L 203.315204 -8.355216 
L 204.053593 -8.579593 
L 204.791981 -8.811202 
L 205.530369 -9.050315 
L 206.268757 -9.297072 
L 207.007146 -9.551426 
L 207.745534 -9.813103 
L 208.483922 -10.081584 
L 209.22231 -10.356115 
L 209.960699 -10.63574 
L 210.699087 -10.919367 
L 211.437475 -11.205845 
L 212.175863 -11.494066 
L 212.914252 -11.783058 
L 213.65264 -12.072085 
L 214.391028 -12.360717 
L 215.129416 -12.648883 
L 215.867805 -12.936892 
L 216.606193 -13.225418 
L 217.344581 -13.515456 
L 218.082969 -13.808247 
L 218.821358 -14.105188 
L 219.559746 -14.407732 
L 220.298134 -14.717288 
L 221.036522 -15.035136 
L 221.774911 -15.36236 
L 222.513299 -15.699812 
L 223.251687 -16.048098 
L 223.990075 -16.407596 
L 224.728464 -16.778486 
L 225.466852 -17.160801 
L 226.20524 -17.55448 
L 226.943628 -17.959412 
L 227.682017 -18.375477 
L 228.420405 -18.802564 
L 229.158793 -19.24058 
L 229.897181 -19.689432 
L 230.63557 -20.149008 
L 231.373958 -20.619135 
L 232.112346 -21.099548 
L 232.850734 -21.589841 
L 233.589123 -22.089439 
L 234.327511 -22.597559 
L 235.065899 -23.11319 
L 235.804287 -23.635078 
L 236.542676 -24.16171 
L 237.281064 -24.691316 
L 238.019452 -25.221873 
L 238.75784 -25.751126 
L 239.496229 -26.276615 
L 240.234617 -26.795721 
L 240.973005 -27.305734 
L 241.711393 -27.80394 
L 242.449782 -28.287721 
L 243.18817 -28.754681 
L 243.926558 -29.202778 
L 244.664946 -29.630454 
L 245.403335 -30.036761 
L 246.141723 -30.421462 
L 246.880111 -30.785091 
L 247.618499 -31.12898 
L 248.356888 -31.455221 
L 249.095276 -31.766585 
L 249.833664 -32.066378 
L 250.572052 -32.358263 
L 251.310441 -32.646042 
L 252.048829 -32.933432 
L 252.787217 -33.223832 
L 253.525605 -33.520119 
L 254.263994 -33.824464 
L 255.002382 -34.138209 
L 255.74077 -34.461783 
L 256.479158 -34.794672 
L 257.217547 -35.135455 
L 257.955935 -35.48187 
L 258.694323 -35.830935 
L 259.432711 -36.179095 
L 260.1711 -36.5224 
L 260.909488 -36.856692 
L 261.647876 -37.177806 
L 262.386264 -37.481769 
L 263.124653 -37.764987 
L 263.863041 -38.024419 
L 264.601429 -38.257716 
L 265.339817 -38.46332 
L 266.078206 -38.640523 
L 266.816594 -38.789465 
L 267.554982 -38.911075 
L 268.29337 -39.006964 
L 269.031759 -39.079265 
L 269.770147 -39.130443 
L 270.508535 -39.163087 
L 271.246923 -39.179702 
L 271.985312 -39.182529 
L 272.7237 -39.173395 
L 273.462088 -39.153623 
L 274.200476 -39.123996 
L 274.938865 -39.084775 
L 275.677253 -39.03578 
L 276.415641 -38.976499 
L 277.154029 -38.906221 
L 277.892418 -38.824186 
L 278.630806 -38.72971 
L 279.369194 -38.622295 
L 280.107582 -38.501707 
L 280.845971 -38.36801 
L 281.584359 -38.221573 
L 282.322747 -38.06304 
L 283.061135 -37.893273 
L 283.799524 -37.713289 
L 284.537912 -37.524173 
L 285.2763 -37.327 
L 286.014688 -37.122757 
L 286.753077 -36.912265 
L 287.491465 -36.696112 
L 288.229853 -36.474598 
L 288.968241 -36.247687 
L 289.70663 -36.014978 
L 290.445018 -35.775689 
L 291.183406 -35.528673 
L 291.921794 -35.272451 
L 292.660183 -35.005282 
L 293.398571 -34.725253 
L 294.136959 -34.430406 
L 294.875347 -34.11888 
L 295.613736 -33.789056 
L 296.352124 -33.439721 
L 297.090512 -33.070197 
L 297.8289 -32.680463 
L 298.567289 -32.271232 
L 299.305677 -31.84398 
L 300.044065 -31.400934 
L 300.782453 -30.944998 
L 301.520842 -30.479637 
L 302.25923 -30.008711 
L 302.997618 -29.53628 
L 303.736006 -29.066394 
L 304.474395 -28.602871 
L 305.212783 -28.149095 
L 305.951171 -27.707837 
L 306.689559 -27.281118 
L 307.427948 -26.870125 
L 308.166336 -26.475184 
L 308.904724 -26.095786 
L 309.643112 -25.730668 
L 310.381501 -25.377939 
L 311.119889 -25.035231 
L 311.858277 -24.699872 
L 312.596665 -24.36905 
L 313.335054 -24.039974 
L 314.073442 -23.709998 
L 314.81183 -23.376729 
L 315.550218 -23.038084 
L 316.288607 -22.692334 
L 317.026995 -22.33811 
L 317.765383 -21.974393 
L 318.503771 -21.600498 
L 319.24216 -21.21605 
L 319.980548 -20.82096 
L 320.718936 -20.41541 
L 321.457324 -19.999839 
L 322.195713 -19.574925 
L 322.934101 -19.141583 
L 323.672489 -18.700938 
L 324.410877 -18.254311 
L 325.149266 -17.803191 
L 325.887654 -17.349202 
L 326.626042 -16.894069 
L 327.36443 -16.439584 
L 328.102819 -15.987572 
L 328.841207 -15.539862 
L 329.579595 -15.098258 
L 330.317983 -14.664516 
L 331.056372 -14.240314 
L 331.79476 -13.827228 
L 332.533148 -13.426688 
L 333.271536 -13.039945 
L 334.009925 -12.668019 
L 334.748313 -12.311651 
L 335.486701 -11.971257 
L 336.225089 -11.646893 
L 336.963478 -11.338232 
L 337.701866 -11.044566 
L 338.440254 -10.76483 
L 339.178642 -10.497655 
L 339.917031 -10.241445 
L 340.655419 -9.994468 
L 341.393807 -9.754969 
L 342.132195 -9.521276 
L 342.870584 -9.291907 
L 343.608972 -9.065652 
L 344.34736 -8.841639 
L 345.085748 -8.619365 
L 345.824137 -8.398698 
L 346.562525 -8.179845 
L 347.300913 -7.963293 
L 348.039301 -7.749734 
L 348.77769 -7.539973 
L 349.516078 -7.334834 
L 350.254466 -7.135079 
L 350.992854 -6.941335 
L 351.731243 -6.754048 
L 352.469631 -6.573456 
L 353.208019 -6.399598 
L 353.946407 -6.232332 
L 354.684796 -6.071382 
L 355.423184 -5.916395 
L 356.161572 -5.766991 
L 356.89996 -5.622825 
L 357.638349 -5.483627 
L 358.376737 -5.349224 
L 359.115125 -5.219558 
L 359.853513 -5.094663 
L 360.591902 -4.974644 
L 361.33029 -4.859636 
L 362.068678 -4.749749 
L 362.807066 -4.645028 
L 363.545455 -4.545404 
L 364.283843 -4.45067 
L 365.022231 -4.360463 
L 365.760619 -4.274275 
L 366.499008 -4.191477 
L 367.237396 -4.11136 
L 367.975784 -4.033194 
L 368.714172 -3.956287 
L 369.452561 -3.880053 
L 369.452561 -2.470909 
L 369.452561 -2.470909 
L 368.714172 -2.470909 
L 367.975784 -2.470909 
L 367.237396 -2.470909 
L 366.499008 -2.470909 
L 365.760619 -2.470909 
L 365.022231 -2.470909 
L 364.283843 -2.470909 
L 363.545455 -2.470909 
L 362.807066 -2.470909 
L 362.068678 -2.470909 
L 361.33029 -2.470909 
L 360.591902 -2.470909 
L 359.853513 -2.470909 
L 359.115125 -2.470909 
L 358.376737 -2.470909 
L 357.638349 -2.470909 
L 356.89996 -2.470909 
L 356.161572 -2.470909 
L 355.423184 -2.470909 
L 354.684796 -2.470909 
L 353.946407 -2.470909 
L 353.208019 -2.470909 
L 352.469631 -2.470909 
L 351.731243 -2.470909 
L 350.992854 -2.470909 
L 350.254466 -2.470909 
L 349.516078 -2.470909 
L 348.77769 -2.470909 
L 348.039301 -2.470909 
L 347.300913 -2.470909 
L 346.562525 -2.470909 
L 345.824137 -2.470909 
L 345.085748 -2.470909 
L 344.34736 -2.470909 
L 343.608972 -2.470909 
L 342.870584 -2.470909 
L 342.132195 -2.470909 
L 341.393807 -2.470909 
L 340.655419 -2.470909 
L 339.917031 -2.470909 
L 339.178642 -2.470909 
L 338.440254 -2.470909 
L 337.701866 -2.470909 
L 336.963478 -2.470909 
L 336.225089 -2.470909 
L 335.486701 -2.470909 
L 334.748313 -2.470909 
L 334.009925 -2.470909 
L 333.271536 -2.470909 
L 332.533148 -2.470909 
L 331.79476 -2.470909 
L 331.056372 -2.470909 
L 330.317983 -2.470909 
L 329.579595 -2.470909 
L 328.841207 -2.470909 
L 328.102819 -2.470909 
L 327.36443 -2.470909 
L 326.626042 -2.470909 
L 325.887654 -2.470909 
L 325.149266 -2.470909 
L 324.410877 -2.470909 
L 323.672489 -2.470909 
L 322.934101 -2.470909 
L 322.195713 -2.470909 
L 321.457324 -2.470909 
L 320.718936 -2.470909 
L 319.980548 -2.470909 
L 319.24216 -2.470909 
L 318.503771 -2.470909 
L 317.765383 -2.470909 
L 317.026995 -2.470909 
L 316.288607 -2.470909 
L 315.550218 -2.470909 
L 314.81183 -2.470909 
L 314.073442 -2.470909 
L 313.335054 -2.470909 
L 312.596665 -2.470909 
L 311.858277 -2.470909 
L 311.119889 -2.470909 
L 310.381501 -2.470909 
L 309.643112 -2.470909 
L 308.904724 -2.470909 
L 308.166336 -2.470909 
L 307.427948 -2.470909 
L 306.689559 -2.470909 
L 305.951171 -2.470909 
L 305.212783 -2.470909 
L 304.474395 -2.470909 
L 303.736006 -2.470909 
L 302.997618 -2.470909 
L 302.25923 -2.470909 
L 301.520842 -2.470909 
L 300.782453 -2.470909 
L 300.044065 -2.470909 
L 299.305677 -2.470909 
L 298.567289 -2.470909 
L 297.8289 -2.470909 
L 297.090512 -2.470909 
L 296.352124 -2.470909 
L 295.613736 -2.470909 
L 294.875347 -2.470909 
L 294.136959 -2.470909 
L 293.398571 -2.470909 
L 292.660183 -2.470909 
L 291.921794 -2.470909 
L 291.183406 -2.470909 
L 290.445018 -2.470909 
L 289.70663 -2.470909 
L 288.968241 -2.470909 
L 288.229853 -2.470909 
L 287.491465 -2.470909 
L 286.753077 -2.470909 
L 286.014688 -2.470909 
L 285.2763 -2.470909 
L 284.537912 -2.470909 
L 283.799524 -2.470909 
L 283.061135 -2.470909 
L 282.322747 -2.470909 
L 281.584359 -2.470909 
L 280.845971 -2.470909 
L 280.107582 -2.470909 
L 279.369194 -2.470909 
L 278.630806 -2.470909 
L 277.892418 -2.470909 
L 277.154029 -2.470909 
L 276.415641 -2.470909 
L 275.677253 -2.470909 
L 274.938865 -2.470909 
L 274.200476 -2.470909 
L 273.462088 -2.470909 
L 272.7237 -2.470909 
L 271.985312 -2.470909 
L 271.246923 -2.470909 
L 270.508535 -2.470909 
L 269.770147 -2.470909 
L 269.031759 -2.470909 
L 268.29337 -2.470909 
L 267.554982 -2.470909 
L 266.816594 -2.470909 
L 266.078206 -2.470909 
L 265.339817 -2.470909 
L 264.601429 -2.470909 
L 263.863041 -2.470909 
L 263.124653 -2.470909 
L 262.386264 -2.470909 
L 261.647876 -2.470909 
L 260.909488 -2.470909 
L 260.1711 -2.470909 
L 259.432711 -2.470909 
L 258.694323 -2.470909 
L 257.955935 -2.470909 
L 257.217547 -2.470909 
L 256.479158 -2.470909 
L 255.74077 -2.470909 
L 255.002382 -2.470909 
L 254.263994 -2.470909 
L 253.525605 -2.470909 
L 252.787217 -2.470909 
L 252.048829 -2.470909 
L 251.310441 -2.470909 
L 250.572052 -2.470909 
L 249.833664 -2.470909 
L 249.095276 -2.470909 
L 248.356888 -2.470909 
L 247.618499 -2.470909 
L 246.880111 -2.470909 
L 246.141723 -2.470909 
L 245.403335 -2.470909 
L 244.664946 -2.470909 
L 243.926558 -2.470909 
L 243.18817 -2.470909 
L 242.449782 -2.470909 
L 241.711393 -2.470909 
L 240.973005 -2.470909 
L 240.234617 -2.470909 
L 239.496229 -2.470909 
L 238.75784 -2.470909 
L 238.019452 -2.470909 
L 237.281064 -2.470909 
L 236.542676 -2.470909 
L 235.804287 -2.470909 
L 235.065899 -2.470909 
L 234.327511 -2.470909 
L 233.589123 -2.470909 
L 232.850734 -2.470909 
L 232.112346 -2.470909 
L 231.373958 -2.470909 
L 230.63557 -2.470909 
L 229.897181 -2.470909 
L 229.158793 -2.470909 
L 228.420405 -2.470909 
L 227.682017 -2.470909 
L 226.943628 -2.470909 
L 226.20524 -2.470909 
L 225.466852 -2.470909 
L 224.728464 -2.470909 
L 223.990075 -2.470909 
L 223.251687 -2.470909 
L 222.513299 -2.470909 
L 221.774911 -2.470909 
L 221.036522 -2.470909 
L 220.298134 -2.470909 
L 219.559746 -2.470909 
L 218.821358 -2.470909 
L 218.082969 -2.470909 
L 217.344581 -2.470909 
L 216.606193 -2.470909 
L 215.867805 -2.470909 
L 215.129416 -2.470909 
L 214.391028 -2.470909 
L 213.65264 -2.470909 
L 212.914252 -2.470909 
L 212.175863 -2.470909 
L 211.437475 -2.470909 
L 210.699087 -2.470909 
L 209.960699 -2.470909 
L 209.22231 -2.470909 
L 208.483922 -2.470909 
L 207.745534 -2.470909 
L 207.007146 -2.470909 
L 206.268757 -2.470909 
L 205.530369 -2.470909 
L 204.791981 -2.470909 
L 204.053593 -2.470909 
L 203.315204 -2.470909 
L 202.576816 -2.470909 
L 201.838428 -2.470909 
L 201.10004 -2.470909 
L 200.361651 -2.470909 
L 199.623263 -2.470909 
L 198.884875 -2.470909 
L 198.146487 -2.470909 
L 197.408098 -2.470909 
L 196.66971 -2.470909 
L 195.931322 -2.470909 
L 195.192934 -2.470909 
L 194.454545 -2.470909 
L 193.716157 -2.470909 
L 192.977769 -2.470909 
L 192.239381 -2.470909 
L 191.500992 -2.470909 
L 190.762604 -2.470909 
L 190.024216 -2.470909 
L 189.285828 -2.470909 
L 188.547439 -2.470909 
L 187.809051 -2.470909 
L 187.070663 -2.470909 
L 186.332275 -2.470909 
L 185.593886 -2.470909 
L 184.855498 -2.470909 
L 184.11711 -2.470909 
L 183.378722 -2.470909 
L 182.640333 -2.470909 
L 181.901945 -2.470909 
L 181.163557 -2.470909 
L 180.425169 -2.470909 
L 179.68678 -2.470909 
z
" style="stroke: #116dc2; stroke-opacity: 0.2"/>
    </defs>
    <g clip-path="url(#p113ab0a880)">
     <use xlink:href="#mdf426502ed" x="0" y="54.36" style="fill: #116dc2; fill-opacity: 0.2; stroke: #116dc2; stroke-opacity: 0.2"/>
    </g>
   </g>
   <g id="PolyCollection_3">
    <defs>
     <path id="m5e5bbb4581" d="M 25.363636 -2.470909 
L 25.363636 -4.697842 
L 26.102025 -5.203211 
L 26.840413 -5.810407 
L 27.578801 -6.55891 
L 28.317189 -7.52582 
L 29.055578 -8.719492 
L 29.793966 -10.013801 
L 30.532354 -11.278682 
L 31.270742 -12.540304 
L 32.009131 -13.933084 
L 32.747519 -15.523055 
L 33.485907 -17.256819 
L 34.224295 -19.082341 
L 34.962684 -21.038583 
L 35.701072 -23.206478 
L 36.43946 -25.615506 
L 37.177848 -28.179047 
L 37.916237 -30.716634 
L 38.654625 -33.103053 
L 39.393013 -35.374448 
L 40.131401 -37.635017 
L 40.86979 -39.930533 
L 41.608178 -42.237616 
L 42.346566 -44.455725 
L 43.084954 -46.401844 
L 43.823343 -47.941556 
L 44.561731 -49.127142 
L 45.300119 -50.117439 
L 46.038507 -50.980736 
L 46.776896 -51.628319 
L 47.515284 -51.889091 
L 48.253672 -51.606607 
L 48.99206 -50.709622 
L 49.730449 -49.224778 
L 50.468837 -47.271359 
L 51.207225 -45.070116 
L 51.945613 -42.824632 
L 52.684002 -40.536821 
L 53.42239 -38.093826 
L 54.160778 -35.533074 
L 54.899166 -33.030259 
L 55.637555 -30.657268 
L 56.375943 -28.329257 
L 57.114331 -25.950123 
L 57.852719 -23.50079 
L 58.591108 -21.053234 
L 59.329496 -18.752342 
L 60.067884 -16.706434 
L 60.806272 -14.875032 
L 61.544661 -13.133925 
L 62.283049 -11.457577 
L 63.021437 -9.969758 
L 63.759825 -8.790287 
L 64.498214 -7.886404 
L 65.236602 -7.115029 
L 65.97499 -6.375229 
L 66.713378 -5.678889 
L 67.451767 -5.090816 
L 68.190155 -4.637516 
L 68.928543 -4.28367 
L 68.928543 -2.470909 
L 68.928543 -2.470909 
L 68.190155 -2.470909 
L 67.451767 -2.470909 
L 66.713378 -2.470909 
L 65.97499 -2.470909 
L 65.236602 -2.470909 
L 64.498214 -2.470909 
L 63.759825 -2.470909 
L 63.021437 -2.470909 
L 62.283049 -2.470909 
L 61.544661 -2.470909 
L 60.806272 -2.470909 
L 60.067884 -2.470909 
L 59.329496 -2.470909 
L 58.591108 -2.470909 
L 57.852719 -2.470909 
L 57.114331 -2.470909 
L 56.375943 -2.470909 
L 55.637555 -2.470909 
L 54.899166 -2.470909 
L 54.160778 -2.470909 
L 53.42239 -2.470909 
L 52.684002 -2.470909 
L 51.945613 -2.470909 
L 51.207225 -2.470909 
L 50.468837 -2.470909 
L 49.730449 -2.470909 
L 48.99206 -2.470909 
L 48.253672 -2.470909 
L 47.515284 -2.470909 
L 46.776896 -2.470909 
L 46.038507 -2.470909 
L 45.300119 -2.470909 
L 44.561731 -2.470909 
L 43.823343 -2.470909 
L 43.084954 -2.470909 
L 42.346566 -2.470909 
L 41.608178 -2.470909 
L 40.86979 -2.470909 
L 40.131401 -2.470909 
L 39.393013 -2.470909 
L 38.654625 -2.470909 
L 37.916237 -2.470909 
L 37.177848 -2.470909 
L 36.43946 -2.470909 
L 35.701072 -2.470909 
L 34.962684 -2.470909 
L 34.224295 -2.470909 
L 33.485907 -2.470909 
L 32.747519 -2.470909 
L 32.009131 -2.470909 
L 31.270742 -2.470909 
L 30.532354 -2.470909 
L 29.793966 -2.470909 
L 29.055578 -2.470909 
L 28.317189 -2.470909 
L 27.578801 -2.470909 
L 26.840413 -2.470909 
L 26.102025 -2.470909 
L 25.363636 -2.470909 
z
" style="stroke: #8a8a8a; stroke-opacity: 0.2"/>
    </defs>
    <g clip-path="url(#p113ab0a880)">
     <use xlink:href="#m5e5bbb4581" x="0" y="54.36" style="fill: #8a8a8a; fill-opacity: 0.2; stroke: #8a8a8a; stroke-opacity: 0.2"/>
    </g>
   </g>
   <g id="line2d_1">
    <path d="M 314.81183 49.937279 
L 326.626042 48.616656 
L 332.533148 47.847583 
L 336.225089 47.155904 
L 339.917031 46.236266 
L 344.34736 44.879758 
L 349.516078 43.060981 
L 353.208019 41.564689 
L 356.89996 39.84779 
L 365.760619 35.548649 
L 369.452561 34.124454 
L 380.528384 30.218247 
L 384.220326 28.451692 
L 390.127432 25.5361 
L 393.819373 24.024074 
L 404.156808 20.12534 
L 410.063914 17.616249 
L 412.279079 16.914657 
L 414.494244 16.455743 
L 416.709408 16.261597 
L 418.924573 16.312342 
L 421.878126 16.670159 
L 427.046844 17.651426 
L 432.215562 18.539106 
L 438.122668 19.489734 
L 441.076221 20.208676 
L 444.029774 21.185375 
L 447.721715 22.683987 
L 455.105597 25.768245 
L 461.751092 28.197169 
L 466.919809 30.167063 
L 471.350139 32.082348 
L 484.641127 38.264682 
L 494.978563 43.170277 
L 497.932116 44.263735 
L 500.885669 45.144199 
L 504.57761 46.011309 
L 515.653434 48.202287 
L 521.56054 49.209351 
L 527.467646 49.959678 
L 532.636364 50.476322 
L 532.636364 50.476322 
" clip-path="url(#p113ab0a880)" style="fill: none; stroke: #cf1313; stroke-width: 1.5; stroke-linecap: square"/>
   </g>
   <g id="line2d_2">
    <path d="M 179.68678 50.429475 
L 187.070663 49.448576 
L 192.977769 48.496789 
L 197.408098 47.573272 
L 201.838428 46.433227 
L 206.268757 45.062928 
L 210.699087 43.440633 
L 221.036522 39.324864 
L 224.728464 37.581514 
L 228.420405 35.557436 
L 232.112346 33.260452 
L 236.542676 30.19829 
L 242.449782 26.072279 
L 245.403335 24.323239 
L 248.356888 22.904779 
L 253.525605 20.839881 
L 257.217547 19.224545 
L 262.386264 16.878231 
L 264.601429 16.102284 
L 266.816594 15.570535 
L 269.031759 15.280735 
L 271.985312 15.177471 
L 275.677253 15.32422 
L 278.630806 15.63029 
L 281.584359 16.138427 
L 285.2763 17.033 
L 289.70663 18.345022 
L 293.398571 19.634747 
L 296.352124 20.920279 
L 299.305677 22.51602 
L 303.736006 25.293606 
L 307.427948 27.489875 
L 310.381501 28.982061 
L 319.980548 33.53904 
L 323.672489 35.659062 
L 332.533148 40.933312 
L 335.486701 42.388743 
L 338.440254 43.59517 
L 342.132195 44.838724 
L 349.516078 47.025166 
L 353.946407 48.127668 
L 358.376737 49.010776 
L 363.545455 49.814596 
L 369.452561 50.479947 
L 369.452561 50.479947 
" clip-path="url(#p113ab0a880)" style="fill: none; stroke: #116dc2; stroke-width: 1.5; stroke-linecap: square"/>
   </g>
   <g id="line2d_3">
    <path d="M 25.363636 49.662158 
L 26.102025 49.156789 
L 26.840413 48.549593 
L 27.578801 47.80109 
L 28.317189 46.83418 
L 29.055578 45.640508 
L 29.793966 44.346199 
L 30.532354 43.081318 
L 31.270742 41.819696 
L 32.009131 40.426916 
L 32.747519 38.836945 
L 33.485907 37.103181 
L 34.224295 35.277659 
L 34.962684 33.321417 
L 35.701072 31.153522 
L 36.43946 28.744494 
L 37.177848 26.180953 
L 37.916237 23.643366 
L 38.654625 21.256947 
L 39.393013 18.985552 
L 40.131401 16.724983 
L 40.86979 14.429467 
L 41.608178 12.122384 
L 42.346566 9.904275 
L 43.084954 7.958156 
L 43.823343 6.418444 
L 44.561731 5.232858 
L 45.300119 4.242561 
L 46.038507 3.379264 
L 46.776896 2.731681 
L 47.515284 2.470909 
L 48.253672 2.753393 
L 48.99206 3.650378 
L 49.730449 5.135222 
L 50.468837 7.088641 
L 51.207225 9.289884 
L 51.945613 11.535368 
L 52.684002 13.823179 
L 53.42239 16.266174 
L 54.160778 18.826926 
L 54.899166 21.329741 
L 55.637555 23.702732 
L 56.375943 26.030743 
L 57.114331 28.409877 
L 57.852719 30.85921 
L 58.591108 33.306766 
L 59.329496 35.607658 
L 60.067884 37.653566 
L 60.806272 39.484968 
L 61.544661 41.226075 
L 62.283049 42.902423 
L 63.021437 44.390242 
L 63.759825 45.569713 
L 64.498214 46.473596 
L 65.236602 47.244971 
L 65.97499 47.984771 
L 66.713378 48.681111 
L 67.451767 49.269184 
L 68.190155 49.722484 
L 68.928543 50.07633 
" clip-path="url(#p113ab0a880)" style="fill: none; stroke: #8a8a8a; stroke-width: 1.5; stroke-linecap: square"/>
   </g>
  </g>
 </g>
 <defs>
  <clipPath id="p113ab0a880">
   <rect x="0" y="-0" width="558" height="54.36"/>
  </clipPath>
 </defs>
</svg>
