<?xml version="1.0" encoding="utf-8" standalone="no"?>
<!DOCTYPE svg PUBLIC "-//W3C//DTD SVG 1.1//EN"
  "http://www.w3.org/Graphics/SVG/1.1/DTD/svg11.dtd">
<svg xmlns:xlink="http://www.w3.org/1999/xlink" width="558pt" height="54.36pt" viewBox="0 0 558 54.36" xmlns="http://www.w3.org/2000/svg" version="1.1">
 <metadata>
  <rdf:RDF xmlns:dc="http://purl.org/dc/elements/1.1/" xmlns:cc="http://creativecommons.org/ns#" xmlns:rdf="http://www.w3.org/1999/02/22-rdf-syntax-ns#">
   <cc:Work>
    <dc:type rdf:resource="http://purl.org/dc/dcmitype/StillImage"/>
    <dc:date>2024-09-14T12:46:36.504624</dc:date>
    <dc:format>image/svg+xml</dc:format>
    <dc:creator>
     <cc:Agent>
      <dc:title>Matplotlib v3.5.2, https://matplotlib.org/</dc:title>
     </cc:Agent>
    </dc:creator>
   </cc:Work>
  </rdf:RDF>
 </metadata>
 <defs>
  <style type="text/css">*{stroke-linejoin: round; stroke-linecap: butt}</style>
 </defs>
 <g id="figure_1">
  <g id="patch_1">
   <path d="M 0 54.36 
L 558 54.36 
L 558 0 
L 0 0 
L 0 54.36 
z
" style="fill: none; opacity: 0"/>
  </g>
  <g id="axes_1">
   <g id="PolyCollection_1">
    <defs>
     <path id="m1eda3a6c65" d="M 408.929162 -2.470909 
L 408.929162 -3.603663 
L 409.661157 -3.636099 
L 410.393152 -3.682237 
L 411.125148 -3.746425 
L 411.857143 -3.832294 
L 412.589138 -3.942568 
L 413.321133 -4.078998 
L 414.053129 -4.242379 
L 414.785124 -4.432631 
L 415.517119 -4.648905 
L 416.249115 -4.889689 
L 416.98111 -5.152917 
L 417.713105 -5.436077 
L 418.4451 -5.736315 
L 419.177096 -6.050575 
L 419.909091 -6.375749 
L 420.641086 -6.708863 
L 421.373081 -7.047287 
L 422.105077 -7.388941 
L 422.837072 -7.732484 
L 423.569067 -8.077447 
L 424.301063 -8.424287 
L 425.033058 -8.774335 
L 425.765053 -9.129637 
L 426.497048 -9.492721 
L 427.229044 -9.866334 
L 427.961039 -10.253222 
L 428.693034 -10.656023 
L 429.42503 -11.077312 
L 430.157025 -11.519791 
L 430.88902 -11.986563 
L 431.621015 -12.481364 
L 432.353011 -13.008607 
L 433.085006 -13.57312 
L 433.817001 -14.179524 
L 434.548996 -14.831307 
L 435.280992 -15.52976 
L 436.012987 -16.273025 
L 436.744982 -17.055526 
L 437.476978 -17.867992 
L 438.208973 -18.698183 
L 438.940968 -19.532245 
L 439.672963 -20.356486 
L 440.404959 -21.159231 
L 441.136954 -21.932419 
L 441.868949 -22.672589 
L 442.600945 -23.381087 
L 443.33294 -24.06345 
L 444.064935 -24.728095 
L 444.79693 -25.384581 
L 445.528926 -26.041799 
L 446.260921 -26.70644 
L 446.992916 -27.38203 
L 447.724911 -28.068705 
L 448.456907 -28.763718 
L 449.188902 -29.462511 
L 449.920897 -30.160022 
L 450.652893 -30.851862 
L 451.384888 -31.53503 
L 452.116883 -32.207969 
L 452.848878 -32.870016 
L 453.580874 -33.520487 
L 454.312869 -34.157785 
L 455.044864 -34.778929 
L 455.77686 -35.37972 
L 456.508855 -35.955551 
L 457.24085 -36.502592 
L 457.972845 -37.018928 
L 458.704841 -37.505215 
L 459.436836 -37.9646 
L 460.168831 -38.401853 
L 460.900826 -38.821987 
L 461.632822 -39.228745 
L 462.364817 -39.623388 
L 463.096812 -40.004114 
L 463.828808 -40.366216 
L 464.560803 -40.702912 
L 465.292798 -41.006607 
L 466.024793 -41.270317 
L 466.756789 -41.48896 
L 467.488784 -41.660289 
L 468.220779 -41.785341 
L 468.952774 -41.868299 
L 469.68477 -41.915808 
L 470.416765 -41.935816 
L 471.14876 -41.936142 
L 471.880756 -41.92301 
L 472.612751 -41.899834 
L 473.344746 -41.866518 
L 474.076741 -41.819441 
L 474.808737 -41.752139 
L 475.540732 -41.656567 
L 476.272727 -41.524658 
L 477.004723 -41.349854 
L 477.736718 -41.128284 
L 478.468713 -40.85936 
L 479.200708 -40.545719 
L 479.932704 -40.192594 
L 480.664699 -39.80682 
L 481.396694 -39.395706 
L 482.128689 -38.966023 
L 482.860685 -38.523243 
L 483.59268 -38.071077 
L 484.324675 -37.611292 
L 485.056671 -37.14376 
L 485.788666 -36.666663 
L 486.520661 -36.176862 
L 487.252656 -35.670417 
L 487.984652 -35.143265 
L 488.716647 -34.592 
L 489.448642 -34.01465 
L 490.180638 -33.411261 
L 490.912633 -32.784092 
L 491.644628 -32.137272 
L 492.376623 -31.475892 
L 493.108619 -30.804667 
L 493.840614 -30.126484 
L 494.572609 -29.441222 
L 495.304604 -28.745218 
L 496.0366 -28.031635 
L 496.768595 -27.291726 
L 497.50059 -26.516773 
L 498.232586 -25.700272 
L 498.964581 -24.839853 
L 499.696576 -23.938497 
L 500.428571 -23.004768 
L 501.160567 -22.052036 
L 501.892562 -21.096873 
L 502.624557 -20.156975 
L 503.356553 -19.249019 
L 504.088548 -18.386834 
L 504.820543 -17.580145 
L 505.552538 -16.834 
L 506.284534 -16.148862 
L 507.016529 -15.521233 
L 507.748524 -14.944636 
L 508.480519 -14.410761 
L 509.212515 -13.910618 
L 509.94451 -13.43557 
L 510.676505 -12.97817 
L 511.408501 -12.532732 
L 512.140496 -12.095613 
L 512.872491 -11.665186 
L 513.604486 -11.241515 
L 514.336482 -10.825807 
L 515.068477 -10.419725 
L 515.800472 -10.024725 
L 516.532468 -9.641557 
L 517.264463 -9.270051 
L 517.996458 -8.909241 
L 518.728453 -8.557776 
L 519.460449 -8.214511 
L 520.192444 -7.879078 
L 520.924439 -7.552281 
L 521.656434 -7.236177 
L 522.38843 -6.933804 
L 523.120425 -6.648631 
L 523.85242 -6.383843 
L 524.584416 -6.14165 
L 525.316411 -5.922767 
L 526.048406 -5.726184 
L 526.780401 -5.549251 
L 527.512397 -5.388062 
L 528.244392 -5.238036 
L 528.976387 -5.094575 
L 529.708383 -4.953694 
L 530.440378 -4.812491 
L 531.172373 -4.669418 
L 531.904368 -4.524303 
L 532.636364 -4.378162 
L 532.636364 -2.470909 
L 532.636364 -2.470909 
L 531.904368 -2.470909 
L 531.172373 -2.470909 
L 530.440378 -2.470909 
L 529.708383 -2.470909 
L 528.976387 -2.470909 
L 528.244392 -2.470909 
L 527.512397 -2.470909 
L 526.780401 -2.470909 
L 526.048406 -2.470909 
L 525.316411 -2.470909 
L 524.584416 -2.470909 
L 523.85242 -2.470909 
L 523.120425 -2.470909 
L 522.38843 -2.470909 
L 521.656434 -2.470909 
L 520.924439 -2.470909 
L 520.192444 -2.470909 
L 519.460449 -2.470909 
L 518.728453 -2.470909 
L 517.996458 -2.470909 
L 517.264463 -2.470909 
L 516.532468 -2.470909 
L 515.800472 -2.470909 
L 515.068477 -2.470909 
L 514.336482 -2.470909 
L 513.604486 -2.470909 
L 512.872491 -2.470909 
L 512.140496 -2.470909 
L 511.408501 -2.470909 
L 510.676505 -2.470909 
L 509.94451 -2.470909 
L 509.212515 -2.470909 
L 508.480519 -2.470909 
L 507.748524 -2.470909 
L 507.016529 -2.470909 
L 506.284534 -2.470909 
L 505.552538 -2.470909 
L 504.820543 -2.470909 
L 504.088548 -2.470909 
L 503.356553 -2.470909 
L 502.624557 -2.470909 
L 501.892562 -2.470909 
L 501.160567 -2.470909 
L 500.428571 -2.470909 
L 499.696576 -2.470909 
L 498.964581 -2.470909 
L 498.232586 -2.470909 
L 497.50059 -2.470909 
L 496.768595 -2.470909 
L 496.0366 -2.470909 
L 495.304604 -2.470909 
L 494.572609 -2.470909 
L 493.840614 -2.470909 
L 493.108619 -2.470909 
L 492.376623 -2.470909 
L 491.644628 -2.470909 
L 490.912633 -2.470909 
L 490.180638 -2.470909 
L 489.448642 -2.470909 
L 488.716647 -2.470909 
L 487.984652 -2.470909 
L 487.252656 -2.470909 
L 486.520661 -2.470909 
L 485.788666 -2.470909 
L 485.056671 -2.470909 
L 484.324675 -2.470909 
L 483.59268 -2.470909 
L 482.860685 -2.470909 
L 482.128689 -2.470909 
L 481.396694 -2.470909 
L 480.664699 -2.470909 
L 479.932704 -2.470909 
L 479.200708 -2.470909 
L 478.468713 -2.470909 
L 477.736718 -2.470909 
L 477.004723 -2.470909 
L 476.272727 -2.470909 
L 475.540732 -2.470909 
L 474.808737 -2.470909 
L 474.076741 -2.470909 
L 473.344746 -2.470909 
L 472.612751 -2.470909 
L 471.880756 -2.470909 
L 471.14876 -2.470909 
L 470.416765 -2.470909 
L 469.68477 -2.470909 
L 468.952774 -2.470909 
L 468.220779 -2.470909 
L 467.488784 -2.470909 
L 466.756789 -2.470909 
L 466.024793 -2.470909 
L 465.292798 -2.470909 
L 464.560803 -2.470909 
L 463.828808 -2.470909 
L 463.096812 -2.470909 
L 462.364817 -2.470909 
L 461.632822 -2.470909 
L 460.900826 -2.470909 
L 460.168831 -2.470909 
L 459.436836 -2.470909 
L 458.704841 -2.470909 
L 457.972845 -2.470909 
L 457.24085 -2.470909 
L 456.508855 -2.470909 
L 455.77686 -2.470909 
L 455.044864 -2.470909 
L 454.312869 -2.470909 
L 453.580874 -2.470909 
L 452.848878 -2.470909 
L 452.116883 -2.470909 
L 451.384888 -2.470909 
L 450.652893 -2.470909 
L 449.920897 -2.470909 
L 449.188902 -2.470909 
L 448.456907 -2.470909 
L 447.724911 -2.470909 
L 446.992916 -2.470909 
L 446.260921 -2.470909 
L 445.528926 -2.470909 
L 444.79693 -2.470909 
L 444.064935 -2.470909 
L 443.33294 -2.470909 
L 442.600945 -2.470909 
L 441.868949 -2.470909 
L 441.136954 -2.470909 
L 440.404959 -2.470909 
L 439.672963 -2.470909 
L 438.940968 -2.470909 
L 438.208973 -2.470909 
L 437.476978 -2.470909 
L 436.744982 -2.470909 
L 436.012987 -2.470909 
L 435.280992 -2.470909 
L 434.548996 -2.470909 
L 433.817001 -2.470909 
L 433.085006 -2.470909 
L 432.353011 -2.470909 
L 431.621015 -2.470909 
L 430.88902 -2.470909 
L 430.157025 -2.470909 
L 429.42503 -2.470909 
L 428.693034 -2.470909 
L 427.961039 -2.470909 
L 427.229044 -2.470909 
L 426.497048 -2.470909 
L 425.765053 -2.470909 
L 425.033058 -2.470909 
L 424.301063 -2.470909 
L 423.569067 -2.470909 
L 422.837072 -2.470909 
L 422.105077 -2.470909 
L 421.373081 -2.470909 
L 420.641086 -2.470909 
L 419.909091 -2.470909 
L 419.177096 -2.470909 
L 418.4451 -2.470909 
L 417.713105 -2.470909 
L 416.98111 -2.470909 
L 416.249115 -2.470909 
L 415.517119 -2.470909 
L 414.785124 -2.470909 
L 414.053129 -2.470909 
L 413.321133 -2.470909 
L 412.589138 -2.470909 
L 411.857143 -2.470909 
L 411.125148 -2.470909 
L 410.393152 -2.470909 
L 409.661157 -2.470909 
L 408.929162 -2.470909 
z
" style="stroke: #cf1313; stroke-opacity: 0.2"/>
    </defs>
    <g clip-path="url(#p255d8f44d1)">
     <use xlink:href="#m1eda3a6c65" x="0" y="54.36" style="fill: #cf1313; fill-opacity: 0.2; stroke: #cf1313; stroke-opacity: 0.2"/>
    </g>
   </g>
   <g id="PolyCollection_2">
    <defs>
     <path id="m89fb7d6d22" d="M 156.390791 -2.470909 
L 156.390791 -4.094661 
L 157.122786 -4.21116 
L 157.854782 -4.339813 
L 158.586777 -4.480986 
L 159.318772 -4.634535 
L 160.050767 -4.799838 
L 160.782763 -4.975839 
L 161.514758 -5.161143 
L 162.246753 -5.354135 
L 162.978749 -5.553155 
L 163.710744 -5.75673 
L 164.442739 -5.963817 
L 165.174734 -6.174047 
L 165.90673 -6.387897 
L 166.638725 -6.606737 
L 167.37072 -6.832725 
L 168.102715 -7.068539 
L 168.834711 -7.316996 
L 169.566706 -7.580627 
L 170.298701 -7.861292 
L 171.030697 -8.159943 
L 171.762692 -8.476559 
L 172.494687 -8.810291 
L 173.226682 -9.159763 
L 173.958678 -9.523463 
L 174.690673 -9.900126 
L 175.422668 -10.289024 
L 176.154664 -10.690085 
L 176.886659 -11.103831 
L 177.618654 -11.531127 
L 178.350649 -11.972824 
L 179.082645 -12.429377 
L 179.81464 -12.90054 
L 180.546635 -13.38524 
L 181.27863 -13.881679 
L 182.010626 -14.387666 
L 182.742621 -14.901121 
L 183.474616 -15.420651 
L 184.206612 -15.946052 
L 184.938607 -16.478608 
L 185.670602 -17.021111 
L 186.402597 -17.577565 
L 187.134593 -18.152625 
L 187.866588 -18.750884 
L 188.598583 -19.376129 
L 189.330579 -20.030725 
L 190.062574 -20.715207 
L 190.794569 -21.428136 
L 191.526564 -22.166217 
L 192.25856 -22.924616 
L 192.990555 -23.697423 
L 193.72255 -24.478177 
L 194.454545 -25.260406 
L 195.186541 -26.038145 
L 195.918536 -26.806381 
L 196.650531 -27.561425 
L 197.382527 -28.301152 
L 198.114522 -29.025095 
L 198.846517 -29.73435 
L 199.578512 -30.431281 
L 200.310508 -31.119049 
L 201.042503 -31.800983 
L 201.774498 -32.479908 
L 202.506494 -33.157488 
L 203.238489 -33.833726 
L 203.970484 -34.506683 
L 204.702479 -35.172492 
L 205.434475 -35.82565 
L 206.16647 -36.45957 
L 206.898465 -37.067268 
L 207.63046 -37.642099 
L 208.362456 -38.17841 
L 209.094451 -38.672035 
L 209.826446 -39.120565 
L 210.558442 -39.523398 
L 211.290437 -39.881569 
L 212.022432 -40.197417 
L 212.754427 -40.474116 
L 213.486423 -40.715137 
L 214.218418 -40.923667 
L 214.950413 -41.10207 
L 215.682409 -41.251444 
L 216.414404 -41.371365 
L 217.146399 -41.459868 
L 217.878394 -41.51373 
L 218.61039 -41.529033 
L 219.342385 -41.501953 
L 220.07438 -41.429665 
L 220.806375 -41.311206 
L 221.538371 -41.148154 
L 222.270366 -40.944973 
L 223.002361 -40.708956 
L 223.734357 -40.449733 
L 224.466352 -40.17838 
L 225.198347 -39.906237 
L 225.930342 -39.643574 
L 226.662338 -39.398302 
L 227.394333 -39.1749 
L 228.126328 -38.973761 
L 228.858323 -38.791083 
L 229.590319 -38.619354 
L 230.322314 -38.448388 
L 231.054309 -38.266769 
L 231.786305 -38.063456 
L 232.5183 -37.829266 
L 233.250295 -37.557984 
L 233.98229 -37.246893 
L 234.714286 -36.896647 
L 235.446281 -36.510544 
L 236.178276 -36.093367 
L 236.910272 -35.650056 
L 237.642267 -35.184496 
L 238.374262 -34.698655 
L 239.106257 -34.192266 
L 239.838253 -33.663065 
L 240.570248 -33.107539 
L 241.302243 -32.521982 
L 242.034238 -31.903637 
L 242.766234 -31.251668 
L 243.498229 -30.56778 
L 244.230224 -29.856353 
L 244.96222 -29.124096 
L 245.694215 -28.379284 
L 246.42621 -27.630751 
L 247.158205 -26.886805 
L 247.890201 -26.154266 
L 248.622196 -25.437775 
L 249.354191 -24.739471 
L 250.086187 -24.059064 
L 250.818182 -23.394254 
L 251.550177 -22.741426 
L 252.282172 -22.096468 
L 253.014168 -21.45559 
L 253.746163 -20.816019 
L 254.478158 -20.176481 
L 255.210153 -19.537409 
L 255.942149 -18.900897 
L 256.674144 -18.270407 
L 257.406139 -17.650306 
L 258.138135 -17.045294 
L 258.87013 -16.459809 
L 259.602125 -15.897478 
L 260.33412 -15.360685 
L 261.066116 -14.850292 
L 261.798111 -14.36556 
L 262.530106 -13.90425 
L 263.262102 -13.462907 
L 263.994097 -13.037271 
L 264.726092 -12.622755 
L 265.458087 -12.214953 
L 266.190083 -11.810085 
L 266.922078 -11.40538 
L 267.654073 -10.999329 
L 268.386068 -10.591818 
L 269.118064 -10.184132 
L 269.850059 -9.778826 
L 270.582054 -9.379486 
L 271.31405 -8.990385 
L 272.046045 -8.616061 
L 272.77804 -8.26085 
L 273.510035 -7.928408 
L 274.242031 -7.621291 
L 274.974026 -7.34063 
L 275.706021 -7.085955 
L 276.438017 -6.855207 
L 277.170012 -6.644931 
L 277.902007 -6.450646 
L 278.634002 -6.267333 
L 279.365998 -6.089977 
L 280.097993 -5.914099 
L 280.829988 -5.73619 
L 281.561983 -5.554016 
L 282.293979 -5.366744 
L 283.025974 -5.174917 
L 283.757969 -4.980274 
L 284.489965 -4.785465 
L 285.22196 -4.593698 
L 285.22196 -2.470909 
L 285.22196 -2.470909 
L 284.489965 -2.470909 
L 283.757969 -2.470909 
L 283.025974 -2.470909 
L 282.293979 -2.470909 
L 281.561983 -2.470909 
L 280.829988 -2.470909 
L 280.097993 -2.470909 
L 279.365998 -2.470909 
L 278.634002 -2.470909 
L 277.902007 -2.470909 
L 277.170012 -2.470909 
L 276.438017 -2.470909 
L 275.706021 -2.470909 
L 274.974026 -2.470909 
L 274.242031 -2.470909 
L 273.510035 -2.470909 
L 272.77804 -2.470909 
L 272.046045 -2.470909 
L 271.31405 -2.470909 
L 270.582054 -2.470909 
L 269.850059 -2.470909 
L 269.118064 -2.470909 
L 268.386068 -2.470909 
L 267.654073 -2.470909 
L 266.922078 -2.470909 
L 266.190083 -2.470909 
L 265.458087 -2.470909 
L 264.726092 -2.470909 
L 263.994097 -2.470909 
L 263.262102 -2.470909 
L 262.530106 -2.470909 
L 261.798111 -2.470909 
L 261.066116 -2.470909 
L 260.33412 -2.470909 
L 259.602125 -2.470909 
L 258.87013 -2.470909 
L 258.138135 -2.470909 
L 257.406139 -2.470909 
L 256.674144 -2.470909 
L 255.942149 -2.470909 
L 255.210153 -2.470909 
L 254.478158 -2.470909 
L 253.746163 -2.470909 
L 253.014168 -2.470909 
L 252.282172 -2.470909 
L 251.550177 -2.470909 
L 250.818182 -2.470909 
L 250.086187 -2.470909 
L 249.354191 -2.470909 
L 248.622196 -2.470909 
L 247.890201 -2.470909 
L 247.158205 -2.470909 
L 246.42621 -2.470909 
L 245.694215 -2.470909 
L 244.96222 -2.470909 
L 244.230224 -2.470909 
L 243.498229 -2.470909 
L 242.766234 -2.470909 
L 242.034238 -2.470909 
L 241.302243 -2.470909 
L 240.570248 -2.470909 
L 239.838253 -2.470909 
L 239.106257 -2.470909 
L 238.374262 -2.470909 
L 237.642267 -2.470909 
L 236.910272 -2.470909 
L 236.178276 -2.470909 
L 235.446281 -2.470909 
L 234.714286 -2.470909 
L 233.98229 -2.470909 
L 233.250295 -2.470909 
L 232.5183 -2.470909 
L 231.786305 -2.470909 
L 231.054309 -2.470909 
L 230.322314 -2.470909 
L 229.590319 -2.470909 
L 228.858323 -2.470909 
L 228.126328 -2.470909 
L 227.394333 -2.470909 
L 226.662338 -2.470909 
L 225.930342 -2.470909 
L 225.198347 -2.470909 
L 224.466352 -2.470909 
L 223.734357 -2.470909 
L 223.002361 -2.470909 
L 222.270366 -2.470909 
L 221.538371 -2.470909 
L 220.806375 -2.470909 
L 220.07438 -2.470909 
L 219.342385 -2.470909 
L 218.61039 -2.470909 
L 217.878394 -2.470909 
L 217.146399 -2.470909 
L 216.414404 -2.470909 
L 215.682409 -2.470909 
L 214.950413 -2.470909 
L 214.218418 -2.470909 
L 213.486423 -2.470909 
L 212.754427 -2.470909 
L 212.022432 -2.470909 
L 211.290437 -2.470909 
L 210.558442 -2.470909 
L 209.826446 -2.470909 
L 209.094451 -2.470909 
L 208.362456 -2.470909 
L 207.63046 -2.470909 
L 206.898465 -2.470909 
L 206.16647 -2.470909 
L 205.434475 -2.470909 
L 204.702479 -2.470909 
L 203.970484 -2.470909 
L 203.238489 -2.470909 
L 202.506494 -2.470909 
L 201.774498 -2.470909 
L 201.042503 -2.470909 
L 200.310508 -2.470909 
L 199.578512 -2.470909 
L 198.846517 -2.470909 
L 198.114522 -2.470909 
L 197.382527 -2.470909 
L 196.650531 -2.470909 
L 195.918536 -2.470909 
L 195.186541 -2.470909 
L 194.454545 -2.470909 
L 193.72255 -2.470909 
L 192.990555 -2.470909 
L 192.25856 -2.470909 
L 191.526564 -2.470909 
L 190.794569 -2.470909 
L 190.062574 -2.470909 
L 189.330579 -2.470909 
L 188.598583 -2.470909 
L 187.866588 -2.470909 
L 187.134593 -2.470909 
L 186.402597 -2.470909 
L 185.670602 -2.470909 
L 184.938607 -2.470909 
L 184.206612 -2.470909 
L 183.474616 -2.470909 
L 182.742621 -2.470909 
L 182.010626 -2.470909 
L 181.27863 -2.470909 
L 180.546635 -2.470909 
L 179.81464 -2.470909 
L 179.082645 -2.470909 
L 178.350649 -2.470909 
L 177.618654 -2.470909 
L 176.886659 -2.470909 
L 176.154664 -2.470909 
L 175.422668 -2.470909 
L 174.690673 -2.470909 
L 173.958678 -2.470909 
L 173.226682 -2.470909 
L 172.494687 -2.470909 
L 171.762692 -2.470909 
L 171.030697 -2.470909 
L 170.298701 -2.470909 
L 169.566706 -2.470909 
L 168.834711 -2.470909 
L 168.102715 -2.470909 
L 167.37072 -2.470909 
L 166.638725 -2.470909 
L 165.90673 -2.470909 
L 165.174734 -2.470909 
L 164.442739 -2.470909 
L 163.710744 -2.470909 
L 162.978749 -2.470909 
L 162.246753 -2.470909 
L 161.514758 -2.470909 
L 160.782763 -2.470909 
L 160.050767 -2.470909 
L 159.318772 -2.470909 
L 158.586777 -2.470909 
L 157.854782 -2.470909 
L 157.122786 -2.470909 
L 156.390791 -2.470909 
z
" style="stroke: #116dc2; stroke-opacity: 0.2"/>
    </defs>
    <g clip-path="url(#p255d8f44d1)">
     <use xlink:href="#m89fb7d6d22" x="0" y="54.36" style="fill: #116dc2; fill-opacity: 0.2; stroke: #116dc2; stroke-opacity: 0.2"/>
    </g>
   </g>
   <g id="PolyCollection_3">
    <defs>
     <path id="m64cdad8006" d="M 25.363636 -2.470909 
L 25.363636 -4.429568 
L 26.095632 -4.996311 
L 26.827627 -5.769708 
L 27.559622 -6.714569 
L 28.291617 -7.807867 
L 29.023613 -9.086941 
L 29.755608 -10.633832 
L 30.487603 -12.457928 
L 31.219599 -14.427625 
L 31.951594 -16.377159 
L 32.683589 -18.284221 
L 33.415584 -20.298244 
L 34.14758 -22.562629 
L 34.879575 -25.080929 
L 35.61157 -27.796757 
L 36.343566 -30.655253 
L 37.075561 -33.494253 
L 37.807556 -36.036493 
L 38.539551 -38.165056 
L 39.271547 -40.10421 
L 40.003542 -42.126381 
L 40.735537 -44.177489 
L 41.467532 -45.996949 
L 42.199528 -47.505824 
L 42.931523 -48.827972 
L 43.663518 -49.989427 
L 44.395514 -50.886349 
L 45.127509 -51.511401 
L 45.859504 -51.889091 
L 46.591499 -51.80619 
L 47.323495 -50.969463 
L 48.05549 -49.427041 
L 48.787485 -47.500585 
L 49.519481 -45.357091 
L 50.251476 -42.93373 
L 50.983471 -40.252927 
L 51.715466 -37.55906 
L 52.447462 -35.045287 
L 53.179457 -32.60905 
L 53.911452 -30.019517 
L 54.643447 -27.235383 
L 55.375443 -24.448787 
L 56.107438 -21.892255 
L 56.839433 -19.679219 
L 57.571429 -17.745428 
L 58.303424 -15.872403 
L 59.035419 -13.86594 
L 59.767414 -11.794946 
L 60.49941 -9.960144 
L 61.231405 -8.591546 
L 61.9634 -7.668461 
L 62.695396 -6.998932 
L 63.427391 -6.377892 
L 64.159386 -5.701343 
L 64.891381 -4.999387 
L 64.891381 -2.470909 
L 64.891381 -2.470909 
L 64.159386 -2.470909 
L 63.427391 -2.470909 
L 62.695396 -2.470909 
L 61.9634 -2.470909 
L 61.231405 -2.470909 
L 60.49941 -2.470909 
L 59.767414 -2.470909 
L 59.035419 -2.470909 
L 58.303424 -2.470909 
L 57.571429 -2.470909 
L 56.839433 -2.470909 
L 56.107438 -2.470909 
L 55.375443 -2.470909 
L 54.643447 -2.470909 
L 53.911452 -2.470909 
L 53.179457 -2.470909 
L 52.447462 -2.470909 
L 51.715466 -2.470909 
L 50.983471 -2.470909 
L 50.251476 -2.470909 
L 49.519481 -2.470909 
L 48.787485 -2.470909 
L 48.05549 -2.470909 
L 47.323495 -2.470909 
L 46.591499 -2.470909 
L 45.859504 -2.470909 
L 45.127509 -2.470909 
L 44.395514 -2.470909 
L 43.663518 -2.470909 
L 42.931523 -2.470909 
L 42.199528 -2.470909 
L 41.467532 -2.470909 
L 40.735537 -2.470909 
L 40.003542 -2.470909 
L 39.271547 -2.470909 
L 38.539551 -2.470909 
L 37.807556 -2.470909 
L 37.075561 -2.470909 
L 36.343566 -2.470909 
L 35.61157 -2.470909 
L 34.879575 -2.470909 
L 34.14758 -2.470909 
L 33.415584 -2.470909 
L 32.683589 -2.470909 
L 31.951594 -2.470909 
L 31.219599 -2.470909 
L 30.487603 -2.470909 
L 29.755608 -2.470909 
L 29.023613 -2.470909 
L 28.291617 -2.470909 
L 27.559622 -2.470909 
L 26.827627 -2.470909 
L 26.095632 -2.470909 
L 25.363636 -2.470909 
z
" style="stroke: #8a8a8a; stroke-opacity: 0.2"/>
    </defs>
    <g clip-path="url(#p255d8f44d1)">
     <use xlink:href="#m64cdad8006" x="0" y="54.36" style="fill: #8a8a8a; fill-opacity: 0.2; stroke: #8a8a8a; stroke-opacity: 0.2"/>
    </g>
   </g>
   <g id="line2d_1">
    <path d="M 408.929162 50.756337 
L 411.857143 50.527706 
L 414.053129 50.117621 
L 416.249115 49.470311 
L 419.177096 48.309425 
L 424.301063 45.935713 
L 427.961039 44.106778 
L 430.88902 42.373437 
L 433.085006 40.78688 
L 435.280992 38.83024 
L 437.476978 36.492008 
L 441.136954 32.427581 
L 443.33294 30.29655 
L 450.652893 23.508138 
L 454.312869 20.202215 
L 457.24085 17.857408 
L 459.436836 16.3954 
L 462.364817 14.736612 
L 464.560803 13.657088 
L 466.024793 13.089683 
L 467.488784 12.699711 
L 468.952774 12.491701 
L 471.14876 12.423858 
L 474.076741 12.540559 
L 476.272727 12.835342 
L 477.736718 13.231716 
L 479.200708 13.814281 
L 481.396694 14.964294 
L 485.056671 17.21624 
L 487.984652 19.216735 
L 490.180638 20.948739 
L 493.108619 23.555333 
L 496.768595 27.068274 
L 498.964581 29.520147 
L 502.624557 34.203025 
L 504.820543 36.779855 
L 506.284534 38.211138 
L 508.480519 39.949239 
L 511.408501 41.827268 
L 515.800472 44.335275 
L 519.460449 46.145489 
L 523.120425 47.711369 
L 525.316411 48.437233 
L 528.244392 49.121964 
L 532.636364 49.981838 
L 532.636364 49.981838 
" clip-path="url(#p255d8f44d1)" style="fill: none; stroke: #cf1313; stroke-width: 1.5; stroke-linecap: square"/>
   </g>
   <g id="line2d_2">
    <path d="M 156.390791 50.265339 
L 159.318772 49.725465 
L 162.978749 48.806845 
L 168.102715 47.291461 
L 171.030697 46.200057 
L 173.958678 44.836537 
L 177.618654 42.828873 
L 180.546635 40.97476 
L 184.938607 37.881392 
L 187.866588 35.609116 
L 190.062574 33.644793 
L 192.990555 30.662577 
L 198.114522 25.334905 
L 202.506494 21.202512 
L 206.898465 17.292732 
L 209.094451 15.687965 
L 210.558442 14.836602 
L 212.022432 14.162583 
L 214.218418 13.436333 
L 216.414404 12.988635 
L 218.61039 12.830967 
L 220.07438 12.930335 
L 221.538371 13.211846 
L 223.734357 13.910267 
L 227.394333 15.1851 
L 233.250295 16.802016 
L 235.446281 17.849456 
L 237.642267 19.175504 
L 239.838253 20.696935 
L 242.034238 22.456363 
L 244.230224 24.503647 
L 250.818182 30.965746 
L 257.406139 36.709694 
L 260.33412 38.999315 
L 262.530106 40.45575 
L 266.190083 42.549915 
L 272.77804 46.09915 
L 274.974026 47.01937 
L 277.170012 47.715069 
L 285.22196 49.766302 
L 285.22196 49.766302 
" clip-path="url(#p255d8f44d1)" style="fill: none; stroke: #116dc2; stroke-width: 1.5; stroke-linecap: square"/>
   </g>
   <g id="line2d_3">
    <path d="M 25.363636 49.930432 
L 26.095632 49.363689 
L 26.827627 48.590292 
L 27.559622 47.645431 
L 28.291617 46.552133 
L 29.023613 45.273059 
L 29.755608 43.726168 
L 30.487603 41.902072 
L 31.219599 39.932375 
L 31.951594 37.982841 
L 32.683589 36.075779 
L 33.415584 34.061756 
L 34.14758 31.797371 
L 34.879575 29.279071 
L 35.61157 26.563243 
L 36.343566 23.704747 
L 37.075561 20.865747 
L 37.807556 18.323507 
L 38.539551 16.194944 
L 39.271547 14.25579 
L 40.003542 12.233619 
L 40.735537 10.182511 
L 41.467532 8.363051 
L 42.199528 6.854176 
L 42.931523 5.532028 
L 43.663518 4.370573 
L 44.395514 3.473651 
L 45.127509 2.848599 
L 45.859504 2.470909 
L 46.591499 2.55381 
L 47.323495 3.390537 
L 48.05549 4.932959 
L 48.787485 6.859415 
L 49.519481 9.002909 
L 50.251476 11.42627 
L 50.983471 14.107073 
L 51.715466 16.80094 
L 52.447462 19.314713 
L 53.179457 21.75095 
L 53.911452 24.340483 
L 54.643447 27.124617 
L 55.375443 29.911213 
L 56.107438 32.467745 
L 56.839433 34.680781 
L 57.571429 36.614572 
L 58.303424 38.487597 
L 59.035419 40.49406 
L 59.767414 42.565054 
L 60.49941 44.399856 
L 61.231405 45.768454 
L 61.9634 46.691539 
L 62.695396 47.361068 
L 63.427391 47.982108 
L 64.159386 48.658657 
L 64.891381 49.360613 
" clip-path="url(#p255d8f44d1)" style="fill: none; stroke: #8a8a8a; stroke-width: 1.5; stroke-linecap: square"/>
   </g>
  </g>
 </g>
 <defs>
  <clipPath id="p255d8f44d1">
   <rect x="0" y="-0" width="558" height="54.36"/>
  </clipPath>
 </defs>
</svg>
