<?xml version="1.0" encoding="utf-8" standalone="no"?>
<!DOCTYPE svg PUBLIC "-//W3C//DTD SVG 1.1//EN"
  "http://www.w3.org/Graphics/SVG/1.1/DTD/svg11.dtd">
<svg xmlns:xlink="http://www.w3.org/1999/xlink" width="558pt" height="54.36pt" viewBox="0 0 558 54.36" xmlns="http://www.w3.org/2000/svg" version="1.1">
 <metadata>
  <rdf:RDF xmlns:dc="http://purl.org/dc/elements/1.1/" xmlns:cc="http://creativecommons.org/ns#" xmlns:rdf="http://www.w3.org/1999/02/22-rdf-syntax-ns#">
   <cc:Work>
    <dc:type rdf:resource="http://purl.org/dc/dcmitype/StillImage"/>
    <dc:date>2024-09-15T09:30:37.847534</dc:date>
    <dc:format>image/svg+xml</dc:format>
    <dc:creator>
     <cc:Agent>
      <dc:title>Matplotlib v3.5.2, https://matplotlib.org/</dc:title>
     </cc:Agent>
    </dc:creator>
   </cc:Work>
  </rdf:RDF>
 </metadata>
 <defs>
  <style type="text/css">*{stroke-linejoin: round; stroke-linecap: butt}</style>
 </defs>
 <g id="figure_1">
  <g id="patch_1">
   <path d="M 0 54.36 
L 558 54.36 
L 558 0 
L 0 0 
L 0 54.36 
z
" style="fill: none; opacity: 0"/>
  </g>
  <g id="axes_1">
   <g id="PolyCollection_1">
    <defs>
     <path id="mf7003ab0dc" d="M 414.100937 -2.470909 
L 414.100937 -4.238501 
L 414.837182 -4.393015 
L 415.573427 -4.552692 
L 416.309671 -4.718178 
L 417.045916 -4.890837 
L 417.782161 -5.072712 
L 418.518406 -5.266414 
L 419.254651 -5.474936 
L 419.990896 -5.701393 
L 420.727141 -5.948704 
L 421.463386 -6.219258 
L 422.199631 -6.514591 
L 422.935875 -6.835152 
L 423.67212 -7.180193 
L 424.408365 -7.547808 
L 425.14461 -7.935153 
L 425.880855 -8.338816 
L 426.6171 -8.755327 
L 427.353345 -9.181747 
L 428.08959 -9.616257 
L 428.825835 -10.058631 
L 429.562079 -10.510469 
L 430.298324 -10.975085 
L 431.034569 -11.457006 
L 431.770814 -11.961159 
L 432.507059 -12.491905 
L 433.243304 -13.052148 
L 433.979549 -13.642731 
L 434.715794 -14.262234 
L 435.452039 -14.907173 
L 436.188283 -15.572464 
L 436.924528 -16.25197 
L 437.660773 -16.938959 
L 438.397018 -17.626405 
L 439.133263 -18.307148 
L 439.869508 -18.974056 
L 440.605753 -19.620315 
L 441.341998 -20.239977 
L 442.078243 -20.828754 
L 442.814487 -21.384943 
L 443.550732 -21.910264 
L 444.286977 -22.410339 
L 445.023222 -22.894547 
L 445.759467 -23.37515 
L 446.495712 -23.865704 
L 447.231957 -24.379031 
L 447.968202 -24.92515 
L 448.704446 -25.509674 
L 449.440691 -26.133091 
L 450.176936 -26.791145 
L 450.913181 -27.476243 
L 451.649426 -28.179524 
L 452.385671 -28.893035 
L 453.121916 -29.611437 
L 453.858161 -30.332819 
L 454.594406 -31.058459 
L 455.33065 -31.791665 
L 456.066895 -32.536082 
L 456.80314 -33.293906 
L 457.539385 -34.064467 
L 458.27563 -34.843455 
L 459.011875 -35.622906 
L 459.74812 -36.391886 
L 460.484365 -37.137693 
L 461.22061 -37.847337 
L 461.956854 -38.509039 
L 462.693099 -39.113512 
L 463.429344 -39.654822 
L 464.165589 -40.130686 
L 464.901834 -40.542187 
L 465.638079 -40.892988 
L 466.374324 -41.188247 
L 467.110569 -41.433532 
L 467.846814 -41.634021 
L 468.583058 -41.794187 
L 469.319303 -41.917989 
L 470.055548 -42.009404 
L 470.791793 -42.073002 
L 471.528038 -42.114197 
L 472.264283 -42.138958 
L 473.000528 -42.152905 
L 473.736773 -42.159993 
L 474.473018 -42.161136 
L 475.209262 -42.153187 
L 475.945507 -42.128636 
L 476.681752 -42.076173 
L 477.417997 -41.982045 
L 478.154242 -41.831945 
L 478.890487 -41.613038 
L 479.626732 -41.315763 
L 480.362977 -40.935113 
L 481.099222 -40.471294 
L 481.835466 -39.929752 
L 482.571711 -39.320674 
L 483.307956 -38.658095 
L 484.044201 -37.958687 
L 484.780446 -37.240337 
L 485.516691 -36.520559 
L 486.252936 -35.814884 
L 486.989181 -35.13538 
L 487.725426 -34.489527 
L 488.46167 -33.879631 
L 489.197915 -33.302884 
L 489.93416 -32.752058 
L 490.670405 -32.216685 
L 491.40665 -31.684469 
L 492.142895 -31.142669 
L 492.87914 -30.579251 
L 493.615385 -29.983722 
L 494.35163 -29.34767 
L 495.087874 -28.665141 
L 495.824119 -27.932978 
L 496.560364 -27.151188 
L 497.296609 -26.323287 
L 498.032854 -25.45647 
L 498.769099 -24.561403 
L 499.505344 -23.651486 
L 500.241589 -22.741569 
L 500.977833 -21.846279 
L 501.714078 -20.978259 
L 502.450323 -20.146704 
L 503.186568 -19.356512 
L 503.922813 -18.608231 
L 504.659058 -17.898783 
L 505.395303 -17.222734 
L 506.131548 -16.573801 
L 506.867793 -15.94622 
L 507.604037 -15.335734 
L 508.340282 -14.740035 
L 509.076527 -14.158679 
L 509.812772 -13.592589 
L 510.549017 -13.043327 
L 511.285262 -12.512361 
L 512.021507 -12.00049 
L 512.757752 -11.507569 
L 513.493997 -11.032576 
L 514.230241 -10.573979 
L 514.966486 -10.130269 
L 515.702731 -9.700507 
L 516.438976 -9.284675 
L 517.175221 -8.883739 
L 517.911466 -8.499372 
L 518.647711 -8.133434 
L 519.383956 -7.787352 
L 520.120201 -7.46161 
L 520.856445 -7.155484 
L 521.59269 -6.86711 
L 522.328935 -6.59384 
L 523.06518 -6.332792 
L 523.801425 -6.08142 
L 524.53767 -5.837977 
L 525.273915 -5.601772 
L 526.01016 -5.373186 
L 526.746405 -5.153483 
L 527.482649 -4.944482 
L 528.218894 -4.748168 
L 528.955139 -4.566322 
L 529.691384 -4.400228 
L 530.427629 -4.250497 
L 531.163874 -4.117004 
L 531.900119 -3.998954 
L 532.636364 -3.895015 
L 532.636364 -2.470909 
L 532.636364 -2.470909 
L 531.900119 -2.470909 
L 531.163874 -2.470909 
L 530.427629 -2.470909 
L 529.691384 -2.470909 
L 528.955139 -2.470909 
L 528.218894 -2.470909 
L 527.482649 -2.470909 
L 526.746405 -2.470909 
L 526.01016 -2.470909 
L 525.273915 -2.470909 
L 524.53767 -2.470909 
L 523.801425 -2.470909 
L 523.06518 -2.470909 
L 522.328935 -2.470909 
L 521.59269 -2.470909 
L 520.856445 -2.470909 
L 520.120201 -2.470909 
L 519.383956 -2.470909 
L 518.647711 -2.470909 
L 517.911466 -2.470909 
L 517.175221 -2.470909 
L 516.438976 -2.470909 
L 515.702731 -2.470909 
L 514.966486 -2.470909 
L 514.230241 -2.470909 
L 513.493997 -2.470909 
L 512.757752 -2.470909 
L 512.021507 -2.470909 
L 511.285262 -2.470909 
L 510.549017 -2.470909 
L 509.812772 -2.470909 
L 509.076527 -2.470909 
L 508.340282 -2.470909 
L 507.604037 -2.470909 
L 506.867793 -2.470909 
L 506.131548 -2.470909 
L 505.395303 -2.470909 
L 504.659058 -2.470909 
L 503.922813 -2.470909 
L 503.186568 -2.470909 
L 502.450323 -2.470909 
L 501.714078 -2.470909 
L 500.977833 -2.470909 
L 500.241589 -2.470909 
L 499.505344 -2.470909 
L 498.769099 -2.470909 
L 498.032854 -2.470909 
L 497.296609 -2.470909 
L 496.560364 -2.470909 
L 495.824119 -2.470909 
L 495.087874 -2.470909 
L 494.35163 -2.470909 
L 493.615385 -2.470909 
L 492.87914 -2.470909 
L 492.142895 -2.470909 
L 491.40665 -2.470909 
L 490.670405 -2.470909 
L 489.93416 -2.470909 
L 489.197915 -2.470909 
L 488.46167 -2.470909 
L 487.725426 -2.470909 
L 486.989181 -2.470909 
L 486.252936 -2.470909 
L 485.516691 -2.470909 
L 484.780446 -2.470909 
L 484.044201 -2.470909 
L 483.307956 -2.470909 
L 482.571711 -2.470909 
L 481.835466 -2.470909 
L 481.099222 -2.470909 
L 480.362977 -2.470909 
L 479.626732 -2.470909 
L 478.890487 -2.470909 
L 478.154242 -2.470909 
L 477.417997 -2.470909 
L 476.681752 -2.470909 
L 475.945507 -2.470909 
L 475.209262 -2.470909 
L 474.473018 -2.470909 
L 473.736773 -2.470909 
L 473.000528 -2.470909 
L 472.264283 -2.470909 
L 471.528038 -2.470909 
L 470.791793 -2.470909 
L 470.055548 -2.470909 
L 469.319303 -2.470909 
L 468.583058 -2.470909 
L 467.846814 -2.470909 
L 467.110569 -2.470909 
L 466.374324 -2.470909 
L 465.638079 -2.470909 
L 464.901834 -2.470909 
L 464.165589 -2.470909 
L 463.429344 -2.470909 
L 462.693099 -2.470909 
L 461.956854 -2.470909 
L 461.22061 -2.470909 
L 460.484365 -2.470909 
L 459.74812 -2.470909 
L 459.011875 -2.470909 
L 458.27563 -2.470909 
L 457.539385 -2.470909 
L 456.80314 -2.470909 
L 456.066895 -2.470909 
L 455.33065 -2.470909 
L 454.594406 -2.470909 
L 453.858161 -2.470909 
L 453.121916 -2.470909 
L 452.385671 -2.470909 
L 451.649426 -2.470909 
L 450.913181 -2.470909 
L 450.176936 -2.470909 
L 449.440691 -2.470909 
L 448.704446 -2.470909 
L 447.968202 -2.470909 
L 447.231957 -2.470909 
L 446.495712 -2.470909 
L 445.759467 -2.470909 
L 445.023222 -2.470909 
L 444.286977 -2.470909 
L 443.550732 -2.470909 
L 442.814487 -2.470909 
L 442.078243 -2.470909 
L 441.341998 -2.470909 
L 440.605753 -2.470909 
L 439.869508 -2.470909 
L 439.133263 -2.470909 
L 438.397018 -2.470909 
L 437.660773 -2.470909 
L 436.924528 -2.470909 
L 436.188283 -2.470909 
L 435.452039 -2.470909 
L 434.715794 -2.470909 
L 433.979549 -2.470909 
L 433.243304 -2.470909 
L 432.507059 -2.470909 
L 431.770814 -2.470909 
L 431.034569 -2.470909 
L 430.298324 -2.470909 
L 429.562079 -2.470909 
L 428.825835 -2.470909 
L 428.08959 -2.470909 
L 427.353345 -2.470909 
L 426.6171 -2.470909 
L 425.880855 -2.470909 
L 425.14461 -2.470909 
L 424.408365 -2.470909 
L 423.67212 -2.470909 
L 422.935875 -2.470909 
L 422.199631 -2.470909 
L 421.463386 -2.470909 
L 420.727141 -2.470909 
L 419.990896 -2.470909 
L 419.254651 -2.470909 
L 418.518406 -2.470909 
L 417.782161 -2.470909 
L 417.045916 -2.470909 
L 416.309671 -2.470909 
L 415.573427 -2.470909 
L 414.837182 -2.470909 
L 414.100937 -2.470909 
z
" style="stroke: #cf1313; stroke-opacity: 0.2"/>
    </defs>
    <g clip-path="url(#pcb04eb2061)">
     <use xlink:href="#mf7003ab0dc" x="0" y="54.36" style="fill: #cf1313; fill-opacity: 0.2; stroke: #cf1313; stroke-opacity: 0.2"/>
    </g>
   </g>
   <g id="PolyCollection_2">
    <defs>
     <path id="me904ae1121" d="M 153.470247 -2.470909 
L 153.470247 -3.65332 
L 154.206492 -3.717346 
L 154.942737 -3.787829 
L 155.678981 -3.867456 
L 156.415226 -3.958877 
L 157.151471 -4.064477 
L 157.887716 -4.186164 
L 158.623961 -4.325225 
L 159.360206 -4.482228 
L 160.096451 -4.657013 
L 160.832696 -4.848749 
L 161.56894 -5.056047 
L 162.305185 -5.277116 
L 163.04143 -5.509933 
L 163.777675 -5.752398 
L 164.51392 -6.002466 
L 165.250165 -6.258227 
L 165.98641 -6.51795 
L 166.722655 -6.780097 
L 167.4589 -7.043309 
L 168.195144 -7.30641 
L 168.931389 -7.568432 
L 169.667634 -7.828677 
L 170.403879 -8.086841 
L 171.140124 -8.343174 
L 171.876369 -8.598658 
L 172.612614 -8.855166 
L 173.348859 -9.115537 
L 174.085104 -9.383531 
L 174.821348 -9.663622 
L 175.557593 -9.960637 
L 176.293838 -10.279282 
L 177.030083 -10.623632 
L 177.766328 -10.996684 
L 178.502573 -11.400064 
L 179.238818 -11.833946 
L 179.975063 -12.297201 
L 180.711308 -12.787734 
L 181.447552 -13.302927 
L 182.183797 -13.840102 
L 182.920042 -14.396911 
L 183.656287 -14.971588 
L 184.392532 -15.563058 
L 185.128777 -16.170891 
L 185.865022 -16.795158 
L 186.601267 -17.4362 
L 187.337512 -18.094342 
L 188.073756 -18.769576 
L 188.810001 -19.461217 
L 189.546246 -20.167576 
L 190.282491 -20.885717 
L 191.018736 -21.611348 
L 191.754981 -22.338933 
L 192.491226 -23.062048 
L 193.227471 -23.773961 
L 193.963716 -24.468341 
L 194.69996 -25.139963 
L 195.436205 -25.785259 
L 196.17245 -26.402608 
L 196.908695 -26.992312 
L 197.64494 -27.556297 
L 198.381185 -28.097634 
L 199.11743 -28.620018 
L 199.853675 -29.127296 
L 200.58992 -29.62312 
L 201.326164 -30.110729 
L 202.062409 -30.592813 
L 202.798654 -31.071421 
L 203.534899 -31.547861 
L 204.271144 -32.022603 
L 205.007389 -32.49521 
L 205.743634 -32.96435 
L 206.479879 -33.427926 
L 207.216123 -33.883349 
L 207.952368 -34.327919 
L 208.688613 -34.75926 
L 209.424858 -35.175736 
L 210.161103 -35.576786 
L 210.897348 -35.963107 
L 211.633593 -36.336679 
L 212.369838 -36.700633 
L 213.106083 -37.058976 
L 213.842327 -37.416199 
L 214.578572 -37.776788 
L 215.314817 -38.144657 
L 216.051062 -38.522521 
L 216.787307 -38.911236 
L 217.523552 -39.309196 
L 218.259797 -39.711856 
L 218.996042 -40.111494 
L 219.732287 -40.497326 
L 220.468531 -40.856008 
L 221.204776 -41.172532 
L 221.941021 -41.431426 
L 222.677266 -41.618115 
L 223.413511 -41.720259 
L 224.149756 -41.728888 
L 224.886001 -41.639209 
L 225.622246 -41.450984 
L 226.358491 -41.168486 
L 227.094735 -40.800046 
L 227.83098 -40.35728 
L 228.567225 -39.854086 
L 229.30347 -39.305521 
L 230.039715 -38.726681 
L 230.77596 -38.131685 
L 231.512205 -37.532869 
L 232.24845 -36.94026 
L 232.984695 -36.361323 
L 233.720939 -35.800983 
L 234.457184 -35.261819 
L 235.193429 -34.744378 
L 235.929674 -34.247512 
L 236.665919 -33.768717 
L 237.402164 -33.304447 
L 238.138409 -32.850429 
L 238.874654 -32.401981 
L 239.610899 -31.954331 
L 240.347143 -31.502907 
L 241.083388 -31.04357 
L 241.819633 -30.572758 
L 242.555878 -30.087539 
L 243.292123 -29.585601 
L 244.028368 -29.065222 
L 244.764613 -28.525274 
L 245.500858 -27.96529 
L 246.237103 -27.385584 
L 246.973347 -26.787383 
L 247.709592 -26.172911 
L 248.445837 -25.545339 
L 249.182082 -24.908583 
L 249.918327 -24.266923 
L 250.654572 -23.624516 
L 251.390817 -22.984885 
L 252.127062 -22.350494 
L 252.863307 -21.722522 
L 253.599551 -21.100885 
L 254.335796 -20.484516 
L 255.072041 -19.87183 
L 255.808286 -19.26128 
L 256.544531 -18.65185 
L 257.280776 -18.043377 
L 258.017021 -17.436632 
L 258.753266 -16.833157 
L 259.48951 -16.234926 
L 260.225755 -15.643943 
L 260.962 -15.061903 
L 261.698245 -14.490011 
L 262.43449 -13.928988 
L 263.170735 -13.379243 
L 263.90698 -12.841117 
L 264.643225 -12.3151 
L 265.37947 -11.801941 
L 266.115714 -11.302616 
L 266.851959 -10.818176 
L 267.588204 -10.349551 
L 268.324449 -9.897389 
L 269.060694 -9.461996 
L 269.796939 -9.04341 
L 270.533184 -8.641581 
L 271.269429 -8.256591 
L 272.005674 -7.888849 
L 272.741918 -7.539182 
L 273.478163 -7.208789 
L 274.214408 -6.899055 
L 274.950653 -6.611269 
L 275.686898 -6.346298 
L 276.423143 -6.104289 
L 277.159388 -5.884475 
L 277.895633 -5.685114 
L 278.631878 -5.503596 
L 279.368122 -5.336691 
L 280.104367 -5.180902 
L 280.840612 -5.032858 
L 281.576857 -4.889692 
L 282.313102 -4.749315 
L 283.049347 -4.61058 
L 283.785592 -4.473284 
L 284.521837 -4.338054 
L 285.258082 -4.206118 
L 285.994326 -4.079031 
L 286.730571 -3.958383 
L 286.730571 -2.470909 
L 286.730571 -2.470909 
L 285.994326 -2.470909 
L 285.258082 -2.470909 
L 284.521837 -2.470909 
L 283.785592 -2.470909 
L 283.049347 -2.470909 
L 282.313102 -2.470909 
L 281.576857 -2.470909 
L 280.840612 -2.470909 
L 280.104367 -2.470909 
L 279.368122 -2.470909 
L 278.631878 -2.470909 
L 277.895633 -2.470909 
L 277.159388 -2.470909 
L 276.423143 -2.470909 
L 275.686898 -2.470909 
L 274.950653 -2.470909 
L 274.214408 -2.470909 
L 273.478163 -2.470909 
L 272.741918 -2.470909 
L 272.005674 -2.470909 
L 271.269429 -2.470909 
L 270.533184 -2.470909 
L 269.796939 -2.470909 
L 269.060694 -2.470909 
L 268.324449 -2.470909 
L 267.588204 -2.470909 
L 266.851959 -2.470909 
L 266.115714 -2.470909 
L 265.37947 -2.470909 
L 264.643225 -2.470909 
L 263.90698 -2.470909 
L 263.170735 -2.470909 
L 262.43449 -2.470909 
L 261.698245 -2.470909 
L 260.962 -2.470909 
L 260.225755 -2.470909 
L 259.48951 -2.470909 
L 258.753266 -2.470909 
L 258.017021 -2.470909 
L 257.280776 -2.470909 
L 256.544531 -2.470909 
L 255.808286 -2.470909 
L 255.072041 -2.470909 
L 254.335796 -2.470909 
L 253.599551 -2.470909 
L 252.863307 -2.470909 
L 252.127062 -2.470909 
L 251.390817 -2.470909 
L 250.654572 -2.470909 
L 249.918327 -2.470909 
L 249.182082 -2.470909 
L 248.445837 -2.470909 
L 247.709592 -2.470909 
L 246.973347 -2.470909 
L 246.237103 -2.470909 
L 245.500858 -2.470909 
L 244.764613 -2.470909 
L 244.028368 -2.470909 
L 243.292123 -2.470909 
L 242.555878 -2.470909 
L 241.819633 -2.470909 
L 241.083388 -2.470909 
L 240.347143 -2.470909 
L 239.610899 -2.470909 
L 238.874654 -2.470909 
L 238.138409 -2.470909 
L 237.402164 -2.470909 
L 236.665919 -2.470909 
L 235.929674 -2.470909 
L 235.193429 -2.470909 
L 234.457184 -2.470909 
L 233.720939 -2.470909 
L 232.984695 -2.470909 
L 232.24845 -2.470909 
L 231.512205 -2.470909 
L 230.77596 -2.470909 
L 230.039715 -2.470909 
L 229.30347 -2.470909 
L 228.567225 -2.470909 
L 227.83098 -2.470909 
L 227.094735 -2.470909 
L 226.358491 -2.470909 
L 225.622246 -2.470909 
L 224.886001 -2.470909 
L 224.149756 -2.470909 
L 223.413511 -2.470909 
L 222.677266 -2.470909 
L 221.941021 -2.470909 
L 221.204776 -2.470909 
L 220.468531 -2.470909 
L 219.732287 -2.470909 
L 218.996042 -2.470909 
L 218.259797 -2.470909 
L 217.523552 -2.470909 
L 216.787307 -2.470909 
L 216.051062 -2.470909 
L 215.314817 -2.470909 
L 214.578572 -2.470909 
L 213.842327 -2.470909 
L 213.106083 -2.470909 
L 212.369838 -2.470909 
L 211.633593 -2.470909 
L 210.897348 -2.470909 
L 210.161103 -2.470909 
L 209.424858 -2.470909 
L 208.688613 -2.470909 
L 207.952368 -2.470909 
L 207.216123 -2.470909 
L 206.479879 -2.470909 
L 205.743634 -2.470909 
L 205.007389 -2.470909 
L 204.271144 -2.470909 
L 203.534899 -2.470909 
L 202.798654 -2.470909 
L 202.062409 -2.470909 
L 201.326164 -2.470909 
L 200.58992 -2.470909 
L 199.853675 -2.470909 
L 199.11743 -2.470909 
L 198.381185 -2.470909 
L 197.64494 -2.470909 
L 196.908695 -2.470909 
L 196.17245 -2.470909 
L 195.436205 -2.470909 
L 194.69996 -2.470909 
L 193.963716 -2.470909 
L 193.227471 -2.470909 
L 192.491226 -2.470909 
L 191.754981 -2.470909 
L 191.018736 -2.470909 
L 190.282491 -2.470909 
L 189.546246 -2.470909 
L 188.810001 -2.470909 
L 188.073756 -2.470909 
L 187.337512 -2.470909 
L 186.601267 -2.470909 
L 185.865022 -2.470909 
L 185.128777 -2.470909 
L 184.392532 -2.470909 
L 183.656287 -2.470909 
L 182.920042 -2.470909 
L 182.183797 -2.470909 
L 181.447552 -2.470909 
L 180.711308 -2.470909 
L 179.975063 -2.470909 
L 179.238818 -2.470909 
L 178.502573 -2.470909 
L 177.766328 -2.470909 
L 177.030083 -2.470909 
L 176.293838 -2.470909 
L 175.557593 -2.470909 
L 174.821348 -2.470909 
L 174.085104 -2.470909 
L 173.348859 -2.470909 
L 172.612614 -2.470909 
L 171.876369 -2.470909 
L 171.140124 -2.470909 
L 170.403879 -2.470909 
L 169.667634 -2.470909 
L 168.931389 -2.470909 
L 168.195144 -2.470909 
L 167.4589 -2.470909 
L 166.722655 -2.470909 
L 165.98641 -2.470909 
L 165.250165 -2.470909 
L 164.51392 -2.470909 
L 163.777675 -2.470909 
L 163.04143 -2.470909 
L 162.305185 -2.470909 
L 161.56894 -2.470909 
L 160.832696 -2.470909 
L 160.096451 -2.470909 
L 159.360206 -2.470909 
L 158.623961 -2.470909 
L 157.887716 -2.470909 
L 157.151471 -2.470909 
L 156.415226 -2.470909 
L 155.678981 -2.470909 
L 154.942737 -2.470909 
L 154.206492 -2.470909 
L 153.470247 -2.470909 
z
" style="stroke: #116dc2; stroke-opacity: 0.2"/>
    </defs>
    <g clip-path="url(#pcb04eb2061)">
     <use xlink:href="#me904ae1121" x="0" y="54.36" style="fill: #116dc2; fill-opacity: 0.2; stroke: #116dc2; stroke-opacity: 0.2"/>
    </g>
   </g>
   <g id="PolyCollection_3">
    <defs>
     <path id="m7e4456cd28" d="M 25.363636 -2.470909 
L 25.363636 -5.454053 
L 26.099881 -6.30605 
L 26.836126 -7.324528 
L 27.572371 -8.47965 
L 28.308616 -9.738326 
L 29.044861 -11.09291 
L 29.781106 -12.563534 
L 30.517351 -14.191301 
L 31.253595 -15.987848 
L 31.98984 -17.864661 
L 32.726085 -19.719332 
L 33.46233 -21.610969 
L 34.198575 -23.698369 
L 34.93482 -26.003819 
L 35.671065 -28.404791 
L 36.40731 -30.860575 
L 37.143555 -33.477952 
L 37.879799 -36.281761 
L 38.616044 -39.05002 
L 39.352289 -41.55043 
L 40.088534 -43.872783 
L 40.824779 -46.265146 
L 41.561024 -48.66971 
L 42.297269 -50.664836 
L 43.033514 -51.795542 
L 43.769759 -51.889091 
L 44.506003 -51.255958 
L 45.242248 -50.484732 
L 45.978493 -49.783814 
L 46.714738 -48.778141 
L 47.450983 -47.184668 
L 48.187228 -45.317091 
L 48.923473 -43.622717 
L 49.659718 -42.027335 
L 50.395963 -40.09232 
L 51.132207 -37.615061 
L 51.868452 -34.77627 
L 52.604697 -31.881219 
L 53.340942 -29.146457 
L 54.077187 -26.591222 
L 54.813432 -24.054858 
L 55.549677 -21.403956 
L 56.285922 -18.727794 
L 57.022167 -16.284362 
L 57.758411 -14.28824 
L 58.494656 -12.761958 
L 59.230901 -11.543776 
L 59.967146 -10.42949 
L 60.703391 -9.303782 
L 61.439636 -8.14697 
L 62.175881 -6.995567 
L 62.912126 -5.937197 
L 63.64837 -5.082402 
L 64.384615 -4.478689 
L 64.384615 -2.470909 
L 64.384615 -2.470909 
L 63.64837 -2.470909 
L 62.912126 -2.470909 
L 62.175881 -2.470909 
L 61.439636 -2.470909 
L 60.703391 -2.470909 
L 59.967146 -2.470909 
L 59.230901 -2.470909 
L 58.494656 -2.470909 
L 57.758411 -2.470909 
L 57.022167 -2.470909 
L 56.285922 -2.470909 
L 55.549677 -2.470909 
L 54.813432 -2.470909 
L 54.077187 -2.470909 
L 53.340942 -2.470909 
L 52.604697 -2.470909 
L 51.868452 -2.470909 
L 51.132207 -2.470909 
L 50.395963 -2.470909 
L 49.659718 -2.470909 
L 48.923473 -2.470909 
L 48.187228 -2.470909 
L 47.450983 -2.470909 
L 46.714738 -2.470909 
L 45.978493 -2.470909 
L 45.242248 -2.470909 
L 44.506003 -2.470909 
L 43.769759 -2.470909 
L 43.033514 -2.470909 
L 42.297269 -2.470909 
L 41.561024 -2.470909 
L 40.824779 -2.470909 
L 40.088534 -2.470909 
L 39.352289 -2.470909 
L 38.616044 -2.470909 
L 37.879799 -2.470909 
L 37.143555 -2.470909 
L 36.40731 -2.470909 
L 35.671065 -2.470909 
L 34.93482 -2.470909 
L 34.198575 -2.470909 
L 33.46233 -2.470909 
L 32.726085 -2.470909 
L 31.98984 -2.470909 
L 31.253595 -2.470909 
L 30.517351 -2.470909 
L 29.781106 -2.470909 
L 29.044861 -2.470909 
L 28.308616 -2.470909 
L 27.572371 -2.470909 
L 26.836126 -2.470909 
L 26.099881 -2.470909 
L 25.363636 -2.470909 
z
" style="stroke: #8a8a8a; stroke-opacity: 0.2"/>
    </defs>
    <g clip-path="url(#pcb04eb2061)">
     <use xlink:href="#m7e4456cd28" x="0" y="54.36" style="fill: #8a8a8a; fill-opacity: 0.2; stroke: #8a8a8a; stroke-opacity: 0.2"/>
    </g>
   </g>
   <g id="line2d_1">
    <path d="M 414.100937 50.121499 
L 418.518406 49.093586 
L 420.727141 48.411296 
L 422.935875 47.524848 
L 425.14461 46.424847 
L 428.825835 44.301369 
L 431.770814 42.398841 
L 433.979549 40.717269 
L 436.924528 38.10803 
L 441.341998 34.120023 
L 443.550732 32.449736 
L 448.704446 28.850326 
L 450.913181 26.883757 
L 456.066895 21.823918 
L 461.956854 15.850961 
L 463.429344 14.705178 
L 464.901834 13.817813 
L 466.374324 13.171753 
L 467.846814 12.725979 
L 470.055548 12.350596 
L 473.000528 12.207095 
L 475.945507 12.231364 
L 477.417997 12.377955 
L 478.890487 12.746962 
L 480.362977 13.424887 
L 481.835466 14.430248 
L 484.044201 16.401313 
L 487.725426 19.870473 
L 489.93416 21.607942 
L 493.615385 24.376278 
L 495.824119 26.427022 
L 498.032854 28.90353 
L 503.186568 35.003488 
L 505.395303 37.137266 
L 508.340282 39.619965 
L 511.285262 41.847639 
L 514.230241 43.786021 
L 517.175221 45.476261 
L 520.120201 46.89839 
L 523.06518 48.027208 
L 526.746405 49.206517 
L 529.691384 49.959772 
L 532.636364 50.464985 
L 532.636364 50.464985 
" clip-path="url(#pcb04eb2061)" style="fill: none; stroke: #cf1313; stroke-width: 1.5; stroke-linecap: square"/>
   </g>
   <g id="line2d_2">
    <path d="M 153.470247 50.70668 
L 157.151471 50.295523 
L 160.096451 49.702987 
L 163.04143 48.850067 
L 168.195144 47.05359 
L 176.293838 44.080718 
L 178.502573 42.959936 
L 180.711308 41.572266 
L 183.656287 39.388412 
L 186.601267 36.9238 
L 189.546246 34.192424 
L 195.436205 28.574741 
L 197.64494 26.803703 
L 200.58992 24.73688 
L 207.216123 20.476651 
L 210.161103 18.783214 
L 214.578572 16.583212 
L 218.259797 14.648144 
L 220.468531 13.503992 
L 221.941021 12.928574 
L 223.413511 12.639741 
L 224.886001 12.720791 
L 226.358491 13.191514 
L 227.83098 14.00272 
L 230.039715 15.633319 
L 234.457184 19.098181 
L 237.402164 21.055553 
L 243.292123 24.774399 
L 246.237103 26.974416 
L 249.918327 30.093077 
L 255.808286 35.09872 
L 261.698245 39.869989 
L 265.37947 42.558059 
L 268.324449 44.462611 
L 271.269429 46.103409 
L 274.214408 47.460945 
L 276.423143 48.255711 
L 279.368122 49.023309 
L 284.521837 50.021946 
L 286.730571 50.401617 
L 286.730571 50.401617 
" clip-path="url(#pcb04eb2061)" style="fill: none; stroke: #116dc2; stroke-width: 1.5; stroke-linecap: square"/>
   </g>
   <g id="line2d_3">
    <path d="M 25.363636 48.905947 
L 26.099881 48.05395 
L 26.836126 47.035472 
L 27.572371 45.88035 
L 28.308616 44.621674 
L 29.044861 43.26709 
L 29.781106 41.796466 
L 30.517351 40.168699 
L 31.253595 38.372152 
L 31.98984 36.495339 
L 32.726085 34.640668 
L 33.46233 32.749031 
L 34.198575 30.661631 
L 34.93482 28.356181 
L 35.671065 25.955209 
L 36.40731 23.499425 
L 37.143555 20.882048 
L 37.879799 18.078239 
L 38.616044 15.30998 
L 39.352289 12.80957 
L 40.088534 10.487217 
L 40.824779 8.094854 
L 41.561024 5.69029 
L 42.297269 3.695164 
L 43.033514 2.564458 
L 43.769759 2.470909 
L 44.506003 3.104042 
L 45.242248 3.875268 
L 45.978493 4.576186 
L 46.714738 5.581859 
L 47.450983 7.175332 
L 48.187228 9.042909 
L 48.923473 10.737283 
L 49.659718 12.332665 
L 50.395963 14.26768 
L 51.132207 16.744939 
L 51.868452 19.58373 
L 52.604697 22.478781 
L 53.340942 25.213543 
L 54.077187 27.768778 
L 54.813432 30.305142 
L 55.549677 32.956044 
L 56.285922 35.632206 
L 57.022167 38.075638 
L 57.758411 40.07176 
L 58.494656 41.598042 
L 59.230901 42.816224 
L 59.967146 43.93051 
L 60.703391 45.056218 
L 61.439636 46.21303 
L 62.175881 47.364433 
L 62.912126 48.422803 
L 63.64837 49.277598 
L 64.384615 49.881311 
" clip-path="url(#pcb04eb2061)" style="fill: none; stroke: #8a8a8a; stroke-width: 1.5; stroke-linecap: square"/>
   </g>
  </g>
 </g>
 <defs>
  <clipPath id="pcb04eb2061">
   <rect x="0" y="-0" width="558" height="54.36"/>
  </clipPath>
 </defs>
</svg>
