<?xml version="1.0" encoding="utf-8" standalone="no"?>
<!DOCTYPE svg PUBLIC "-//W3C//DTD SVG 1.1//EN"
  "http://www.w3.org/Graphics/SVG/1.1/DTD/svg11.dtd">
<svg xmlns:xlink="http://www.w3.org/1999/xlink" width="558pt" height="54.36pt" viewBox="0 0 558 54.36" xmlns="http://www.w3.org/2000/svg" version="1.1">
 <metadata>
  <rdf:RDF xmlns:dc="http://purl.org/dc/elements/1.1/" xmlns:cc="http://creativecommons.org/ns#" xmlns:rdf="http://www.w3.org/1999/02/22-rdf-syntax-ns#">
   <cc:Work>
    <dc:type rdf:resource="http://purl.org/dc/dcmitype/StillImage"/>
    <dc:date>2024-09-14T12:46:49.822520</dc:date>
    <dc:format>image/svg+xml</dc:format>
    <dc:creator>
     <cc:Agent>
      <dc:title>Matplotlib v3.5.2, https://matplotlib.org/</dc:title>
     </cc:Agent>
    </dc:creator>
   </cc:Work>
  </rdf:RDF>
 </metadata>
 <defs>
  <style type="text/css">*{stroke-linejoin: round; stroke-linecap: butt}</style>
 </defs>
 <g id="figure_1">
  <g id="patch_1">
   <path d="M 0 54.36 
L 558 54.36 
L 558 0 
L 0 0 
L 0 54.36 
z
" style="fill: none; opacity: 0"/>
  </g>
  <g id="axes_1">
   <g id="PolyCollection_1">
    <defs>
     <path id="ma2de506ee7" d="M 370.190949 -2.470909 
L 370.190949 -4.428911 
L 370.929337 -4.569933 
L 371.667725 -4.715121 
L 372.406114 -4.864665 
L 373.144502 -5.018654 
L 373.88289 -5.177015 
L 374.621278 -5.339467 
L 375.359667 -5.505506 
L 376.098055 -5.67443 
L 376.836443 -5.845395 
L 377.574831 -6.017501 
L 378.31322 -6.189903 
L 379.051608 -6.361933 
L 379.789996 -6.533205 
L 380.528384 -6.703704 
L 381.266773 -6.873832 
L 382.005161 -7.044413 
L 382.743549 -7.216642 
L 383.481937 -7.392001 
L 384.220326 -7.572132 
L 384.958714 -7.758698 
L 385.697102 -7.953248 
L 386.43549 -8.15709 
L 387.173879 -8.371205 
L 387.912267 -8.5962 
L 388.650655 -8.832303 
L 389.389043 -9.079407 
L 390.127432 -9.33714 
L 390.86582 -9.604967 
L 391.604208 -9.882282 
L 392.342596 -10.16851 
L 393.080985 -10.463169 
L 393.819373 -10.765915 
L 394.557761 -11.076541 
L 395.296149 -11.394957 
L 396.034538 -11.721136 
L 396.772926 -12.055063 
L 397.511314 -12.396685 
L 398.249702 -12.74588 
L 398.988091 -13.102466 
L 399.726479 -13.466242 
L 400.464867 -13.837057 
L 401.203255 -14.21491 
L 401.941644 -14.600038 
L 402.680032 -14.992993 
L 403.41842 -15.394668 
L 404.156808 -15.806264 
L 404.895197 -16.229193 
L 405.633585 -16.66491 
L 406.371973 -17.114702 
L 407.110361 -17.579457 
L 407.84875 -18.059449 
L 408.587138 -18.554168 
L 409.325526 -19.062241 
L 410.063914 -19.581435 
L 410.802303 -20.108779 
L 411.540691 -20.640759 
L 412.279079 -21.173591 
L 413.017467 -21.703505 
L 413.755855 -22.22703 
L 414.494244 -22.741227 
L 415.232632 -23.243863 
L 415.97102 -23.733495 
L 416.709408 -24.20949 
L 417.447797 -24.671978 
L 418.186185 -25.121765 
L 418.924573 -25.560222 
L 419.662961 -25.989168 
L 420.40135 -26.410744 
L 421.139738 -26.827294 
L 421.878126 -27.241227 
L 422.616514 -27.654873 
L 423.354903 -28.070319 
L 424.093291 -28.489229 
L 424.831679 -28.912673 
L 425.570067 -29.340973 
L 426.308456 -29.773611 
L 427.046844 -30.209203 
L 427.785232 -30.645578 
L 428.52362 -31.079956 
L 429.262009 -31.509222 
L 430.000397 -31.930259 
L 430.738785 -32.340312 
L 431.477173 -32.737323 
L 432.215562 -33.120192 
L 432.95395 -33.488928 
L 433.692338 -33.844653 
L 434.430726 -34.189477 
L 435.169115 -34.526232 
L 435.907503 -34.858128 
L 436.645891 -35.188354 
L 437.384279 -35.51969 
L 438.122668 -35.85416 
L 438.861056 -36.192773 
L 439.599444 -36.535375 
L 440.337832 -36.880598 
L 441.076221 -37.225936 
L 441.814609 -37.567891 
L 442.552997 -37.902208 
L 443.291385 -38.22414 
L 444.029774 -38.528748 
L 444.768162 -38.811194 
L 445.50655 -39.067019 
L 446.244938 -39.292389 
L 446.983327 -39.484297 
L 447.721715 -39.640713 
L 448.460103 -39.760686 
L 449.198491 -39.844392 
L 449.93688 -39.893122 
L 450.675268 -39.909238 
L 451.413656 -39.896056 
L 452.152044 -39.857695 
L 452.890433 -39.798865 
L 453.628821 -39.724605 
L 454.367209 -39.639982 
L 455.105597 -39.54975 
L 455.843986 -39.458011 
L 456.582374 -39.3679 
L 457.320762 -39.281309 
L 458.05915 -39.198716 
L 458.797539 -39.119109 
L 459.535927 -39.04004 
L 460.274315 -38.957788 
L 461.012703 -38.867639 
L 461.751092 -38.764231 
L 462.48948 -38.641941 
L 463.227868 -38.495276 
L 463.966256 -38.319245 
L 464.704645 -38.109663 
L 465.443033 -37.863397 
L 466.181421 -37.578537 
L 466.919809 -37.254487 
L 467.658198 -36.891986 
L 468.396586 -36.493064 
L 469.134974 -36.060936 
L 469.873362 -35.599838 
L 470.611751 -35.11481 
L 471.350139 -34.611428 
L 472.088527 -34.095494 
L 472.826915 -33.572696 
L 473.565304 -33.048266 
L 474.303692 -32.526647 
L 475.04208 -32.011207 
L 475.780468 -31.504033 
L 476.518857 -31.005825 
L 477.257245 -30.515904 
L 477.995633 -30.032354 
L 478.734021 -29.552273 
L 479.47241 -29.072119 
L 480.210798 -28.588112 
L 480.949186 -28.096649 
L 481.687574 -27.594676 
L 482.425963 -27.079993 
L 483.164351 -26.551434 
L 483.902739 -26.008927 
L 484.641127 -25.453424 
L 485.379516 -24.886718 
L 486.117904 -24.311194 
L 486.856292 -23.729536 
L 487.59468 -23.14446 
L 488.333069 -22.558491 
L 489.071457 -21.973813 
L 489.809845 -21.392217 
L 490.548233 -20.815118 
L 491.286622 -20.243637 
L 492.02501 -19.678714 
L 492.763398 -19.121215 
L 493.501786 -18.572017 
L 494.240175 -18.032052 
L 494.978563 -17.502304 
L 495.716951 -16.983772 
L 496.455339 -16.477406 
L 497.193728 -15.984049 
L 497.932116 -15.504378 
L 498.670504 -15.038874 
L 499.408892 -14.58781 
L 500.147281 -14.151262 
L 500.885669 -13.729126 
L 501.624057 -13.321133 
L 502.362445 -12.92687 
L 503.100834 -12.545785 
L 503.839222 -12.177195 
L 504.57761 -11.820302 
L 505.315998 -11.474219 
L 506.054387 -11.138013 
L 506.792775 -10.810764 
L 507.531163 -10.491642 
L 508.269551 -10.179976 
L 509.00794 -9.87532 
L 509.746328 -9.577485 
L 510.484716 -9.286552 
L 511.223104 -9.002836 
L 511.961493 -8.726836 
L 512.699881 -8.459152 
L 513.438269 -8.200403 
L 514.176657 -7.951148 
L 514.915046 -7.711828 
L 515.653434 -7.482725 
L 516.391822 -7.263948 
L 517.13021 -7.05544 
L 517.868599 -6.856992 
L 518.606987 -6.668262 
L 519.345375 -6.488794 
L 520.083763 -6.318026 
L 520.822152 -6.155296 
L 521.56054 -5.999846 
L 522.298928 -5.850828 
L 523.037316 -5.707322 
L 523.775705 -5.568365 
L 524.514093 -5.432998 
L 525.252481 -5.300325 
L 525.990869 -5.169576 
L 526.729258 -5.040176 
L 527.467646 -4.911791 
L 528.206034 -4.784373 
L 528.944422 -4.65816 
L 529.682811 -4.533669 
L 530.421199 -4.411638 
L 531.159587 -4.292967 
L 531.897975 -4.178623 
L 532.636364 -4.069549 
L 532.636364 -2.470909 
L 532.636364 -2.470909 
L 531.897975 -2.470909 
L 531.159587 -2.470909 
L 530.421199 -2.470909 
L 529.682811 -2.470909 
L 528.944422 -2.470909 
L 528.206034 -2.470909 
L 527.467646 -2.470909 
L 526.729258 -2.470909 
L 525.990869 -2.470909 
L 525.252481 -2.470909 
L 524.514093 -2.470909 
L 523.775705 -2.470909 
L 523.037316 -2.470909 
L 522.298928 -2.470909 
L 521.56054 -2.470909 
L 520.822152 -2.470909 
L 520.083763 -2.470909 
L 519.345375 -2.470909 
L 518.606987 -2.470909 
L 517.868599 -2.470909 
L 517.13021 -2.470909 
L 516.391822 -2.470909 
L 515.653434 -2.470909 
L 514.915046 -2.470909 
L 514.176657 -2.470909 
L 513.438269 -2.470909 
L 512.699881 -2.470909 
L 511.961493 -2.470909 
L 511.223104 -2.470909 
L 510.484716 -2.470909 
L 509.746328 -2.470909 
L 509.00794 -2.470909 
L 508.269551 -2.470909 
L 507.531163 -2.470909 
L 506.792775 -2.470909 
L 506.054387 -2.470909 
L 505.315998 -2.470909 
L 504.57761 -2.470909 
L 503.839222 -2.470909 
L 503.100834 -2.470909 
L 502.362445 -2.470909 
L 501.624057 -2.470909 
L 500.885669 -2.470909 
L 500.147281 -2.470909 
L 499.408892 -2.470909 
L 498.670504 -2.470909 
L 497.932116 -2.470909 
L 497.193728 -2.470909 
L 496.455339 -2.470909 
L 495.716951 -2.470909 
L 494.978563 -2.470909 
L 494.240175 -2.470909 
L 493.501786 -2.470909 
L 492.763398 -2.470909 
L 492.02501 -2.470909 
L 491.286622 -2.470909 
L 490.548233 -2.470909 
L 489.809845 -2.470909 
L 489.071457 -2.470909 
L 488.333069 -2.470909 
L 487.59468 -2.470909 
L 486.856292 -2.470909 
L 486.117904 -2.470909 
L 485.379516 -2.470909 
L 484.641127 -2.470909 
L 483.902739 -2.470909 
L 483.164351 -2.470909 
L 482.425963 -2.470909 
L 481.687574 -2.470909 
L 480.949186 -2.470909 
L 480.210798 -2.470909 
L 479.47241 -2.470909 
L 478.734021 -2.470909 
L 477.995633 -2.470909 
L 477.257245 -2.470909 
L 476.518857 -2.470909 
L 475.780468 -2.470909 
L 475.04208 -2.470909 
L 474.303692 -2.470909 
L 473.565304 -2.470909 
L 472.826915 -2.470909 
L 472.088527 -2.470909 
L 471.350139 -2.470909 
L 470.611751 -2.470909 
L 469.873362 -2.470909 
L 469.134974 -2.470909 
L 468.396586 -2.470909 
L 467.658198 -2.470909 
L 466.919809 -2.470909 
L 466.181421 -2.470909 
L 465.443033 -2.470909 
L 464.704645 -2.470909 
L 463.966256 -2.470909 
L 463.227868 -2.470909 
L 462.48948 -2.470909 
L 461.751092 -2.470909 
L 461.012703 -2.470909 
L 460.274315 -2.470909 
L 459.535927 -2.470909 
L 458.797539 -2.470909 
L 458.05915 -2.470909 
L 457.320762 -2.470909 
L 456.582374 -2.470909 
L 455.843986 -2.470909 
L 455.105597 -2.470909 
L 454.367209 -2.470909 
L 453.628821 -2.470909 
L 452.890433 -2.470909 
L 452.152044 -2.470909 
L 451.413656 -2.470909 
L 450.675268 -2.470909 
L 449.93688 -2.470909 
L 449.198491 -2.470909 
L 448.460103 -2.470909 
L 447.721715 -2.470909 
L 446.983327 -2.470909 
L 446.244938 -2.470909 
L 445.50655 -2.470909 
L 444.768162 -2.470909 
L 444.029774 -2.470909 
L 443.291385 -2.470909 
L 442.552997 -2.470909 
L 441.814609 -2.470909 
L 441.076221 -2.470909 
L 440.337832 -2.470909 
L 439.599444 -2.470909 
L 438.861056 -2.470909 
L 438.122668 -2.470909 
L 437.384279 -2.470909 
L 436.645891 -2.470909 
L 435.907503 -2.470909 
L 435.169115 -2.470909 
L 434.430726 -2.470909 
L 433.692338 -2.470909 
L 432.95395 -2.470909 
L 432.215562 -2.470909 
L 431.477173 -2.470909 
L 430.738785 -2.470909 
L 430.000397 -2.470909 
L 429.262009 -2.470909 
L 428.52362 -2.470909 
L 427.785232 -2.470909 
L 427.046844 -2.470909 
L 426.308456 -2.470909 
L 425.570067 -2.470909 
L 424.831679 -2.470909 
L 424.093291 -2.470909 
L 423.354903 -2.470909 
L 422.616514 -2.470909 
L 421.878126 -2.470909 
L 421.139738 -2.470909 
L 420.40135 -2.470909 
L 419.662961 -2.470909 
L 418.924573 -2.470909 
L 418.186185 -2.470909 
L 417.447797 -2.470909 
L 416.709408 -2.470909 
L 415.97102 -2.470909 
L 415.232632 -2.470909 
L 414.494244 -2.470909 
L 413.755855 -2.470909 
L 413.017467 -2.470909 
L 412.279079 -2.470909 
L 411.540691 -2.470909 
L 410.802303 -2.470909 
L 410.063914 -2.470909 
L 409.325526 -2.470909 
L 408.587138 -2.470909 
L 407.84875 -2.470909 
L 407.110361 -2.470909 
L 406.371973 -2.470909 
L 405.633585 -2.470909 
L 404.895197 -2.470909 
L 404.156808 -2.470909 
L 403.41842 -2.470909 
L 402.680032 -2.470909 
L 401.941644 -2.470909 
L 401.203255 -2.470909 
L 400.464867 -2.470909 
L 399.726479 -2.470909 
L 398.988091 -2.470909 
L 398.249702 -2.470909 
L 397.511314 -2.470909 
L 396.772926 -2.470909 
L 396.034538 -2.470909 
L 395.296149 -2.470909 
L 394.557761 -2.470909 
L 393.819373 -2.470909 
L 393.080985 -2.470909 
L 392.342596 -2.470909 
L 391.604208 -2.470909 
L 390.86582 -2.470909 
L 390.127432 -2.470909 
L 389.389043 -2.470909 
L 388.650655 -2.470909 
L 387.912267 -2.470909 
L 387.173879 -2.470909 
L 386.43549 -2.470909 
L 385.697102 -2.470909 
L 384.958714 -2.470909 
L 384.220326 -2.470909 
L 383.481937 -2.470909 
L 382.743549 -2.470909 
L 382.005161 -2.470909 
L 381.266773 -2.470909 
L 380.528384 -2.470909 
L 379.789996 -2.470909 
L 379.051608 -2.470909 
L 378.31322 -2.470909 
L 377.574831 -2.470909 
L 376.836443 -2.470909 
L 376.098055 -2.470909 
L 375.359667 -2.470909 
L 374.621278 -2.470909 
L 373.88289 -2.470909 
L 373.144502 -2.470909 
L 372.406114 -2.470909 
L 371.667725 -2.470909 
L 370.929337 -2.470909 
L 370.190949 -2.470909 
z
" style="stroke: #cf1313; stroke-opacity: 0.2"/>
    </defs>
    <g clip-path="url(#pd8ca8e0d27)">
     <use xlink:href="#ma2de506ee7" x="0" y="54.36" style="fill: #cf1313; fill-opacity: 0.2; stroke: #cf1313; stroke-opacity: 0.2"/>
    </g>
   </g>
   <g id="PolyCollection_2">
    <defs>
     <path id="m7f353ab1e2" d="M 163.442239 -2.470909 
L 163.442239 -3.77159 
L 164.180627 -3.832954 
L 164.919015 -3.898115 
L 165.657404 -3.967527 
L 166.395792 -4.041591 
L 167.13418 -4.120611 
L 167.872568 -4.204745 
L 168.610957 -4.293974 
L 169.349345 -4.388083 
L 170.087733 -4.486652 
L 170.826121 -4.589076 
L 171.56451 -4.694599 
L 172.302898 -4.802372 
L 173.041286 -4.911519 
L 173.779674 -5.02122 
L 174.518063 -5.130797 
L 175.256451 -5.239791 
L 175.994839 -5.348039 
L 176.733227 -5.455726 
L 177.471616 -5.563418 
L 178.210004 -5.672068 
L 178.948392 -5.782996 
L 179.68678 -5.897838 
L 180.425169 -6.01847 
L 181.163557 -6.14691 
L 181.901945 -6.285211 
L 182.640333 -6.43534 
L 183.378722 -6.599066 
L 184.11711 -6.777851 
L 184.855498 -6.972766 
L 185.593886 -7.184432 
L 186.332275 -7.412983 
L 187.070663 -7.658067 
L 187.809051 -7.918881 
L 188.547439 -8.194222 
L 189.285828 -8.482575 
L 190.024216 -8.782207 
L 190.762604 -9.091274 
L 191.500992 -9.407926 
L 192.239381 -9.730402 
L 192.977769 -10.057114 
L 193.716157 -10.386701 
L 194.454545 -10.71807 
L 195.192934 -11.050402 
L 195.931322 -11.383138 
L 196.66971 -11.715946 
L 197.408098 -12.04867 
L 198.146487 -12.381274 
L 198.884875 -12.713786 
L 199.623263 -13.046247 
L 200.361651 -13.37868 
L 201.10004 -13.711069 
L 201.838428 -14.043367 
L 202.576816 -14.375519 
L 203.315204 -14.707502 
L 204.053593 -15.03938 
L 204.791981 -15.37135 
L 205.530369 -15.703797 
L 206.268757 -16.03732 
L 207.007146 -16.372743 
L 207.745534 -16.711106 
L 208.483922 -17.053615 
L 209.22231 -17.401586 
L 209.960699 -17.75635 
L 210.699087 -18.119166 
L 211.437475 -18.491121 
L 212.175863 -18.873043 
L 212.914252 -19.265428 
L 213.65264 -19.668397 
L 214.391028 -20.08168 
L 215.129416 -20.504623 
L 215.867805 -20.936234 
L 216.606193 -21.375246 
L 217.344581 -21.820196 
L 218.082969 -22.269514 
L 218.821358 -22.721612 
L 219.559746 -23.17496 
L 220.298134 -23.628162 
L 221.036522 -24.079992 
L 221.774911 -24.529433 
L 222.513299 -24.975684 
L 223.251687 -25.418151 
L 223.990075 -25.856434 
L 224.728464 -26.290298 
L 225.466852 -26.719646 
L 226.20524 -27.144492 
L 226.943628 -27.564933 
L 227.682017 -27.98113 
L 228.420405 -28.393289 
L 229.158793 -28.801641 
L 229.897181 -29.206429 
L 230.63557 -29.607884 
L 231.373958 -30.0062 
L 232.112346 -30.401504 
L 232.850734 -30.793828 
L 233.589123 -31.183072 
L 234.327511 -31.568973 
L 235.065899 -31.951086 
L 235.804287 -32.328768 
L 236.542676 -32.701179 
L 237.281064 -33.067301 
L 238.019452 -33.425969 
L 238.75784 -33.775929 
L 239.496229 -34.115891 
L 240.234617 -34.444617 
L 240.973005 -34.76099 
L 241.711393 -35.064097 
L 242.449782 -35.3533 
L 243.18817 -35.628287 
L 243.926558 -35.889105 
L 244.664946 -36.136164 
L 245.403335 -36.370213 
L 246.141723 -36.592279 
L 246.880111 -36.803582 
L 247.618499 -37.005426 
L 248.356888 -37.199074 
L 249.095276 -37.385623 
L 249.833664 -37.565881 
L 250.572052 -37.740271 
L 251.310441 -37.90876 
L 252.048829 -38.070828 
L 252.787217 -38.225476 
L 253.525605 -38.371275 
L 254.263994 -38.506458 
L 255.002382 -38.629034 
L 255.74077 -38.736935 
L 256.479158 -38.828162 
L 257.217547 -38.900938 
L 257.955935 -38.953843 
L 258.694323 -38.985924 
L 259.432711 -38.996775 
L 260.1711 -38.986567 
L 260.909488 -38.956037 
L 261.647876 -38.90643 
L 262.386264 -38.839385 
L 263.124653 -38.756795 
L 263.863041 -38.660632 
L 264.601429 -38.552757 
L 265.339817 -38.434746 
L 266.078206 -38.307721 
L 266.816594 -38.172237 
L 267.554982 -38.028207 
L 268.29337 -37.874906 
L 269.031759 -37.711021 
L 269.770147 -37.534774 
L 270.508535 -37.344096 
L 271.246923 -37.136823 
L 271.985312 -36.910921 
L 272.7237 -36.664693 
L 273.462088 -36.396967 
L 274.200476 -36.107236 
L 274.938865 -35.795745 
L 275.677253 -35.463513 
L 276.415641 -35.112293 
L 277.154029 -34.744468 
L 277.892418 -34.362907 
L 278.630806 -33.970774 
L 279.369194 -33.571324 
L 280.107582 -33.167687 
L 280.845971 -32.762672 
L 281.584359 -32.358592 
L 282.322747 -31.957132 
L 283.061135 -31.559265 
L 283.799524 -31.165227 
L 284.537912 -30.774543 
L 285.2763 -30.386112 
L 286.014688 -29.998336 
L 286.753077 -29.609289 
L 287.491465 -29.216898 
L 288.229853 -28.81915 
L 288.968241 -28.414267 
L 289.70663 -28.000879 
L 290.445018 -27.578148 
L 291.183406 -27.145846 
L 291.921794 -26.704392 
L 292.660183 -26.254825 
L 293.398571 -25.798732 
L 294.136959 -25.338139 
L 294.875347 -24.87536 
L 295.613736 -24.412841 
L 296.352124 -23.952983 
L 297.090512 -23.497992 
L 297.8289 -23.049741 
L 298.567289 -22.609667 
L 299.305677 -22.17871 
L 300.044065 -21.757289 
L 300.782453 -21.345325 
L 301.520842 -20.942291 
L 302.25923 -20.547299 
L 302.997618 -20.159198 
L 303.736006 -19.776678 
L 304.474395 -19.398379 
L 305.212783 -19.022986 
L 305.951171 -18.649309 
L 306.689559 -18.276349 
L 307.427948 -17.903351 
L 308.166336 -17.529832 
L 308.904724 -17.155612 
L 309.643112 -16.78082 
L 310.381501 -16.405903 
L 311.119889 -16.031613 
L 311.858277 -15.658996 
L 312.596665 -15.289355 
L 313.335054 -14.924199 
L 314.073442 -14.565173 
L 314.81183 -14.213973 
L 315.550218 -13.87224 
L 316.288607 -13.54145 
L 317.026995 -13.2228 
L 317.765383 -12.917108 
L 318.503771 -12.624728 
L 319.24216 -12.345498 
L 319.980548 -12.078731 
L 320.718936 -11.823233 
L 321.457324 -11.577374 
L 322.195713 -11.339191 
L 322.934101 -11.106516 
L 323.672489 -10.877128 
L 324.410877 -10.6489 
L 325.149266 -10.419948 
L 325.887654 -10.188751 
L 326.626042 -9.954249 
L 327.36443 -9.7159 
L 328.102819 -9.473695 
L 328.841207 -9.228139 
L 329.579595 -8.980186 
L 330.317983 -8.731155 
L 331.056372 -8.48261 
L 331.79476 -8.236243 
L 332.533148 -7.993738 
L 333.271536 -7.756662 
L 334.009925 -7.526358 
L 334.748313 -7.303879 
L 335.486701 -7.08994 
L 336.225089 -6.884908 
L 336.963478 -6.688829 
L 337.701866 -6.501469 
L 338.440254 -6.322388 
L 339.178642 -6.151021 
L 339.917031 -5.986758 
L 340.655419 -5.829027 
L 341.393807 -5.677352 
L 342.132195 -5.531408 
L 342.870584 -5.391036 
L 343.608972 -5.256247 
L 344.34736 -5.127205 
L 345.085748 -5.004185 
L 345.824137 -4.887529 
L 346.562525 -4.777589 
L 347.300913 -4.674674 
L 348.039301 -4.579002 
L 348.77769 -4.490658 
L 349.516078 -4.409566 
L 350.254466 -4.335476 
L 350.992854 -4.267965 
L 351.731243 -4.206446 
L 352.469631 -4.150197 
L 353.208019 -4.098391 
L 353.946407 -4.050139 
L 354.684796 -4.004529 
L 355.423184 -3.960673 
L 356.161572 -3.917743 
L 356.89996 -3.875011 
L 357.638349 -3.831874 
L 357.638349 -2.470909 
L 357.638349 -2.470909 
L 356.89996 -2.470909 
L 356.161572 -2.470909 
L 355.423184 -2.470909 
L 354.684796 -2.470909 
L 353.946407 -2.470909 
L 353.208019 -2.470909 
L 352.469631 -2.470909 
L 351.731243 -2.470909 
L 350.992854 -2.470909 
L 350.254466 -2.470909 
L 349.516078 -2.470909 
L 348.77769 -2.470909 
L 348.039301 -2.470909 
L 347.300913 -2.470909 
L 346.562525 -2.470909 
L 345.824137 -2.470909 
L 345.085748 -2.470909 
L 344.34736 -2.470909 
L 343.608972 -2.470909 
L 342.870584 -2.470909 
L 342.132195 -2.470909 
L 341.393807 -2.470909 
L 340.655419 -2.470909 
L 339.917031 -2.470909 
L 339.178642 -2.470909 
L 338.440254 -2.470909 
L 337.701866 -2.470909 
L 336.963478 -2.470909 
L 336.225089 -2.470909 
L 335.486701 -2.470909 
L 334.748313 -2.470909 
L 334.009925 -2.470909 
L 333.271536 -2.470909 
L 332.533148 -2.470909 
L 331.79476 -2.470909 
L 331.056372 -2.470909 
L 330.317983 -2.470909 
L 329.579595 -2.470909 
L 328.841207 -2.470909 
L 328.102819 -2.470909 
L 327.36443 -2.470909 
L 326.626042 -2.470909 
L 325.887654 -2.470909 
L 325.149266 -2.470909 
L 324.410877 -2.470909 
L 323.672489 -2.470909 
L 322.934101 -2.470909 
L 322.195713 -2.470909 
L 321.457324 -2.470909 
L 320.718936 -2.470909 
L 319.980548 -2.470909 
L 319.24216 -2.470909 
L 318.503771 -2.470909 
L 317.765383 -2.470909 
L 317.026995 -2.470909 
L 316.288607 -2.470909 
L 315.550218 -2.470909 
L 314.81183 -2.470909 
L 314.073442 -2.470909 
L 313.335054 -2.470909 
L 312.596665 -2.470909 
L 311.858277 -2.470909 
L 311.119889 -2.470909 
L 310.381501 -2.470909 
L 309.643112 -2.470909 
L 308.904724 -2.470909 
L 308.166336 -2.470909 
L 307.427948 -2.470909 
L 306.689559 -2.470909 
L 305.951171 -2.470909 
L 305.212783 -2.470909 
L 304.474395 -2.470909 
L 303.736006 -2.470909 
L 302.997618 -2.470909 
L 302.25923 -2.470909 
L 301.520842 -2.470909 
L 300.782453 -2.470909 
L 300.044065 -2.470909 
L 299.305677 -2.470909 
L 298.567289 -2.470909 
L 297.8289 -2.470909 
L 297.090512 -2.470909 
L 296.352124 -2.470909 
L 295.613736 -2.470909 
L 294.875347 -2.470909 
L 294.136959 -2.470909 
L 293.398571 -2.470909 
L 292.660183 -2.470909 
L 291.921794 -2.470909 
L 291.183406 -2.470909 
L 290.445018 -2.470909 
L 289.70663 -2.470909 
L 288.968241 -2.470909 
L 288.229853 -2.470909 
L 287.491465 -2.470909 
L 286.753077 -2.470909 
L 286.014688 -2.470909 
L 285.2763 -2.470909 
L 284.537912 -2.470909 
L 283.799524 -2.470909 
L 283.061135 -2.470909 
L 282.322747 -2.470909 
L 281.584359 -2.470909 
L 280.845971 -2.470909 
L 280.107582 -2.470909 
L 279.369194 -2.470909 
L 278.630806 -2.470909 
L 277.892418 -2.470909 
L 277.154029 -2.470909 
L 276.415641 -2.470909 
L 275.677253 -2.470909 
L 274.938865 -2.470909 
L 274.200476 -2.470909 
L 273.462088 -2.470909 
L 272.7237 -2.470909 
L 271.985312 -2.470909 
L 271.246923 -2.470909 
L 270.508535 -2.470909 
L 269.770147 -2.470909 
L 269.031759 -2.470909 
L 268.29337 -2.470909 
L 267.554982 -2.470909 
L 266.816594 -2.470909 
L 266.078206 -2.470909 
L 265.339817 -2.470909 
L 264.601429 -2.470909 
L 263.863041 -2.470909 
L 263.124653 -2.470909 
L 262.386264 -2.470909 
L 261.647876 -2.470909 
L 260.909488 -2.470909 
L 260.1711 -2.470909 
L 259.432711 -2.470909 
L 258.694323 -2.470909 
L 257.955935 -2.470909 
L 257.217547 -2.470909 
L 256.479158 -2.470909 
L 255.74077 -2.470909 
L 255.002382 -2.470909 
L 254.263994 -2.470909 
L 253.525605 -2.470909 
L 252.787217 -2.470909 
L 252.048829 -2.470909 
L 251.310441 -2.470909 
L 250.572052 -2.470909 
L 249.833664 -2.470909 
L 249.095276 -2.470909 
L 248.356888 -2.470909 
L 247.618499 -2.470909 
L 246.880111 -2.470909 
L 246.141723 -2.470909 
L 245.403335 -2.470909 
L 244.664946 -2.470909 
L 243.926558 -2.470909 
L 243.18817 -2.470909 
L 242.449782 -2.470909 
L 241.711393 -2.470909 
L 240.973005 -2.470909 
L 240.234617 -2.470909 
L 239.496229 -2.470909 
L 238.75784 -2.470909 
L 238.019452 -2.470909 
L 237.281064 -2.470909 
L 236.542676 -2.470909 
L 235.804287 -2.470909 
L 235.065899 -2.470909 
L 234.327511 -2.470909 
L 233.589123 -2.470909 
L 232.850734 -2.470909 
L 232.112346 -2.470909 
L 231.373958 -2.470909 
L 230.63557 -2.470909 
L 229.897181 -2.470909 
L 229.158793 -2.470909 
L 228.420405 -2.470909 
L 227.682017 -2.470909 
L 226.943628 -2.470909 
L 226.20524 -2.470909 
L 225.466852 -2.470909 
L 224.728464 -2.470909 
L 223.990075 -2.470909 
L 223.251687 -2.470909 
L 222.513299 -2.470909 
L 221.774911 -2.470909 
L 221.036522 -2.470909 
L 220.298134 -2.470909 
L 219.559746 -2.470909 
L 218.821358 -2.470909 
L 218.082969 -2.470909 
L 217.344581 -2.470909 
L 216.606193 -2.470909 
L 215.867805 -2.470909 
L 215.129416 -2.470909 
L 214.391028 -2.470909 
L 213.65264 -2.470909 
L 212.914252 -2.470909 
L 212.175863 -2.470909 
L 211.437475 -2.470909 
L 210.699087 -2.470909 
L 209.960699 -2.470909 
L 209.22231 -2.470909 
L 208.483922 -2.470909 
L 207.745534 -2.470909 
L 207.007146 -2.470909 
L 206.268757 -2.470909 
L 205.530369 -2.470909 
L 204.791981 -2.470909 
L 204.053593 -2.470909 
L 203.315204 -2.470909 
L 202.576816 -2.470909 
L 201.838428 -2.470909 
L 201.10004 -2.470909 
L 200.361651 -2.470909 
L 199.623263 -2.470909 
L 198.884875 -2.470909 
L 198.146487 -2.470909 
L 197.408098 -2.470909 
L 196.66971 -2.470909 
L 195.931322 -2.470909 
L 195.192934 -2.470909 
L 194.454545 -2.470909 
L 193.716157 -2.470909 
L 192.977769 -2.470909 
L 192.239381 -2.470909 
L 191.500992 -2.470909 
L 190.762604 -2.470909 
L 190.024216 -2.470909 
L 189.285828 -2.470909 
L 188.547439 -2.470909 
L 187.809051 -2.470909 
L 187.070663 -2.470909 
L 186.332275 -2.470909 
L 185.593886 -2.470909 
L 184.855498 -2.470909 
L 184.11711 -2.470909 
L 183.378722 -2.470909 
L 182.640333 -2.470909 
L 181.901945 -2.470909 
L 181.163557 -2.470909 
L 180.425169 -2.470909 
L 179.68678 -2.470909 
L 178.948392 -2.470909 
L 178.210004 -2.470909 
L 177.471616 -2.470909 
L 176.733227 -2.470909 
L 175.994839 -2.470909 
L 175.256451 -2.470909 
L 174.518063 -2.470909 
L 173.779674 -2.470909 
L 173.041286 -2.470909 
L 172.302898 -2.470909 
L 171.56451 -2.470909 
L 170.826121 -2.470909 
L 170.087733 -2.470909 
L 169.349345 -2.470909 
L 168.610957 -2.470909 
L 167.872568 -2.470909 
L 167.13418 -2.470909 
L 166.395792 -2.470909 
L 165.657404 -2.470909 
L 164.919015 -2.470909 
L 164.180627 -2.470909 
L 163.442239 -2.470909 
z
" style="stroke: #116dc2; stroke-opacity: 0.2"/>
    </defs>
    <g clip-path="url(#pd8ca8e0d27)">
     <use xlink:href="#m7f353ab1e2" x="0" y="54.36" style="fill: #116dc2; fill-opacity: 0.2; stroke: #116dc2; stroke-opacity: 0.2"/>
    </g>
   </g>
   <g id="PolyCollection_3">
    <defs>
     <path id="m97e9022553" d="M 25.363636 -2.470909 
L 25.363636 -5.110132 
L 26.102025 -5.717858 
L 26.840413 -6.396499 
L 27.578801 -7.312679 
L 28.317189 -8.506497 
L 29.055578 -9.851181 
L 29.793966 -11.266051 
L 30.532354 -12.792968 
L 31.270742 -14.4626 
L 32.009131 -16.238365 
L 32.747519 -18.090084 
L 33.485907 -20.0606 
L 34.224295 -22.251703 
L 34.962684 -24.717983 
L 35.701072 -27.423413 
L 36.43946 -30.374917 
L 37.177848 -33.6427 
L 37.916237 -37.099268 
L 38.654625 -40.339655 
L 39.393013 -43.037141 
L 40.131401 -45.200022 
L 40.86979 -47.018001 
L 41.608178 -48.650704 
L 42.346566 -50.11746 
L 43.084954 -51.263743 
L 43.823343 -51.889091 
L 44.561731 -51.885469 
L 45.300119 -51.283242 
L 46.038507 -50.314483 
L 46.776896 -49.335138 
L 47.515284 -48.496211 
L 48.253672 -47.556235 
L 48.99206 -46.131707 
L 49.730449 -44.092814 
L 50.468837 -41.662527 
L 51.207225 -39.164132 
L 51.945613 -36.740769 
L 52.684002 -34.359179 
L 53.42239 -31.979825 
L 54.160778 -29.559095 
L 54.899166 -27.004408 
L 55.637555 -24.336945 
L 56.375943 -21.760855 
L 57.114331 -19.410578 
L 57.852719 -17.19513 
L 58.591108 -15.014535 
L 59.329496 -12.976584 
L 60.067884 -11.2825 
L 60.806272 -9.98528 
L 61.544661 -8.940166 
L 62.283049 -7.954392 
L 63.021437 -6.947806 
L 63.759825 -5.992818 
L 64.498214 -5.221204 
L 65.236602 -4.68391 
L 65.97499 -4.307736 
L 65.97499 -2.470909 
L 65.97499 -2.470909 
L 65.236602 -2.470909 
L 64.498214 -2.470909 
L 63.759825 -2.470909 
L 63.021437 -2.470909 
L 62.283049 -2.470909 
L 61.544661 -2.470909 
L 60.806272 -2.470909 
L 60.067884 -2.470909 
L 59.329496 -2.470909 
L 58.591108 -2.470909 
L 57.852719 -2.470909 
L 57.114331 -2.470909 
L 56.375943 -2.470909 
L 55.637555 -2.470909 
L 54.899166 -2.470909 
L 54.160778 -2.470909 
L 53.42239 -2.470909 
L 52.684002 -2.470909 
L 51.945613 -2.470909 
L 51.207225 -2.470909 
L 50.468837 -2.470909 
L 49.730449 -2.470909 
L 48.99206 -2.470909 
L 48.253672 -2.470909 
L 47.515284 -2.470909 
L 46.776896 -2.470909 
L 46.038507 -2.470909 
L 45.300119 -2.470909 
L 44.561731 -2.470909 
L 43.823343 -2.470909 
L 43.084954 -2.470909 
L 42.346566 -2.470909 
L 41.608178 -2.470909 
L 40.86979 -2.470909 
L 40.131401 -2.470909 
L 39.393013 -2.470909 
L 38.654625 -2.470909 
L 37.916237 -2.470909 
L 37.177848 -2.470909 
L 36.43946 -2.470909 
L 35.701072 -2.470909 
L 34.962684 -2.470909 
L 34.224295 -2.470909 
L 33.485907 -2.470909 
L 32.747519 -2.470909 
L 32.009131 -2.470909 
L 31.270742 -2.470909 
L 30.532354 -2.470909 
L 29.793966 -2.470909 
L 29.055578 -2.470909 
L 28.317189 -2.470909 
L 27.578801 -2.470909 
L 26.840413 -2.470909 
L 26.102025 -2.470909 
L 25.363636 -2.470909 
z
" style="stroke: #8a8a8a; stroke-opacity: 0.2"/>
    </defs>
    <g clip-path="url(#pd8ca8e0d27)">
     <use xlink:href="#m97e9022553" x="0" y="54.36" style="fill: #8a8a8a; fill-opacity: 0.2; stroke: #8a8a8a; stroke-opacity: 0.2"/>
    </g>
   </g>
   <g id="line2d_1">
    <path d="M 370.190949 49.931089 
L 375.359667 48.854494 
L 385.697102 46.406752 
L 389.389043 45.280593 
L 393.080985 43.896831 
L 397.511314 41.963315 
L 401.941644 39.759962 
L 405.633585 37.69509 
L 408.587138 35.805832 
L 418.924573 28.799778 
L 431.477173 21.622677 
L 434.430726 20.170523 
L 444.768162 15.548806 
L 446.983327 14.875703 
L 449.198491 14.515608 
L 451.413656 14.463944 
L 454.367209 14.720018 
L 463.227868 15.864724 
L 465.443033 16.496603 
L 467.658198 17.468014 
L 469.873362 18.760162 
L 473.565304 21.311734 
L 477.995633 24.327646 
L 483.164351 27.808566 
L 486.856292 30.630464 
L 493.501786 35.787983 
L 497.193728 38.375951 
L 500.147281 40.208738 
L 503.100834 41.814215 
L 506.792775 43.549236 
L 511.223104 45.357164 
L 514.915046 46.648172 
L 518.606987 47.691738 
L 522.298928 48.509172 
L 528.944422 49.70184 
L 532.636364 50.290451 
L 532.636364 50.290451 
" clip-path="url(#pd8ca8e0d27)" style="fill: none; stroke: #cf1313; stroke-width: 1.5; stroke-linecap: square"/>
   </g>
   <g id="line2d_2">
    <path d="M 163.442239 50.58841 
L 168.610957 50.066026 
L 175.256451 49.120209 
L 181.901945 48.074789 
L 184.855498 47.387234 
L 187.809051 46.441119 
L 191.500992 44.952074 
L 201.838428 40.316633 
L 210.699087 36.240834 
L 214.391028 34.27832 
L 218.821358 31.638388 
L 226.20524 27.215508 
L 232.112346 23.958496 
L 238.019452 20.934031 
L 241.711393 19.295903 
L 244.664946 18.223836 
L 248.356888 17.160926 
L 252.787217 16.134524 
L 255.74077 15.623065 
L 257.955935 15.406157 
L 260.1711 15.373433 
L 263.124653 15.603205 
L 266.816594 16.187763 
L 270.508535 17.015904 
L 272.7237 17.695307 
L 274.938865 18.564255 
L 277.892418 19.997093 
L 290.445018 26.781852 
L 294.875347 29.48464 
L 300.044065 32.602711 
L 304.474395 34.961621 
L 315.550218 40.48776 
L 318.503771 41.735272 
L 322.195713 43.020809 
L 338.440254 48.037612 
L 342.870584 48.968964 
L 347.300913 49.685326 
L 351.731243 50.153554 
L 357.638349 50.528126 
L 357.638349 50.528126 
" clip-path="url(#pd8ca8e0d27)" style="fill: none; stroke: #116dc2; stroke-width: 1.5; stroke-linecap: square"/>
   </g>
   <g id="line2d_3">
    <path d="M 25.363636 49.249868 
L 26.102025 48.642142 
L 26.840413 47.963501 
L 27.578801 47.047321 
L 28.317189 45.853503 
L 29.055578 44.508819 
L 29.793966 43.093949 
L 30.532354 41.567032 
L 31.270742 39.8974 
L 32.009131 38.121635 
L 32.747519 36.269916 
L 33.485907 34.2994 
L 34.224295 32.108297 
L 34.962684 29.642017 
L 35.701072 26.936587 
L 36.43946 23.985083 
L 37.177848 20.7173 
L 37.916237 17.260732 
L 38.654625 14.020345 
L 39.393013 11.322859 
L 40.131401 9.159978 
L 40.86979 7.341999 
L 41.608178 5.709296 
L 42.346566 4.24254 
L 43.084954 3.096257 
L 43.823343 2.470909 
L 44.561731 2.474531 
L 45.300119 3.076758 
L 46.038507 4.045517 
L 46.776896 5.024862 
L 47.515284 5.863789 
L 48.253672 6.803765 
L 48.99206 8.228293 
L 49.730449 10.267186 
L 50.468837 12.697473 
L 51.207225 15.195868 
L 51.945613 17.619231 
L 52.684002 20.000821 
L 53.42239 22.380175 
L 54.160778 24.800905 
L 54.899166 27.355592 
L 55.637555 30.023055 
L 56.375943 32.599145 
L 57.114331 34.949422 
L 57.852719 37.16487 
L 58.591108 39.345465 
L 59.329496 41.383416 
L 60.067884 43.0775 
L 60.806272 44.37472 
L 61.544661 45.419834 
L 62.283049 46.405608 
L 63.021437 47.412194 
L 63.759825 48.367182 
L 64.498214 49.138796 
L 65.236602 49.67609 
L 65.97499 50.052264 
" clip-path="url(#pd8ca8e0d27)" style="fill: none; stroke: #8a8a8a; stroke-width: 1.5; stroke-linecap: square"/>
   </g>
  </g>
 </g>
 <defs>
  <clipPath id="pd8ca8e0d27">
   <rect x="0" y="-0" width="558" height="54.36"/>
  </clipPath>
 </defs>
</svg>
