<?xml version="1.0" encoding="utf-8" standalone="no"?>
<!DOCTYPE svg PUBLIC "-//W3C//DTD SVG 1.1//EN"
  "http://www.w3.org/Graphics/SVG/1.1/DTD/svg11.dtd">
<svg xmlns:xlink="http://www.w3.org/1999/xlink" width="558pt" height="54.36pt" viewBox="0 0 558 54.36" xmlns="http://www.w3.org/2000/svg" version="1.1">
 <metadata>
  <rdf:RDF xmlns:dc="http://purl.org/dc/elements/1.1/" xmlns:cc="http://creativecommons.org/ns#" xmlns:rdf="http://www.w3.org/1999/02/22-rdf-syntax-ns#">
   <cc:Work>
    <dc:type rdf:resource="http://purl.org/dc/dcmitype/StillImage"/>
    <dc:date>2024-09-15T09:30:43.912602</dc:date>
    <dc:format>image/svg+xml</dc:format>
    <dc:creator>
     <cc:Agent>
      <dc:title>Matplotlib v3.5.2, https://matplotlib.org/</dc:title>
     </cc:Agent>
    </dc:creator>
   </cc:Work>
  </rdf:RDF>
 </metadata>
 <defs>
  <style type="text/css">*{stroke-linejoin: round; stroke-linecap: butt}</style>
 </defs>
 <g id="figure_1">
  <g id="patch_1">
   <path d="M 0 54.36 
L 558 54.36 
L 558 0 
L 0 0 
L 0 54.36 
z
" style="fill: none; opacity: 0"/>
  </g>
  <g id="axes_1">
   <g id="PolyCollection_1">
    <defs>
     <path id="m1595d7850d" d="M 370.929337 -2.470909 
L 370.929337 -3.979213 
L 371.667725 -4.096173 
L 372.406114 -4.220543 
L 373.144502 -4.351809 
L 373.88289 -4.489477 
L 374.621278 -4.633094 
L 375.359667 -4.782258 
L 376.098055 -4.936619 
L 376.836443 -5.095876 
L 377.574831 -5.259776 
L 378.31322 -5.428105 
L 379.051608 -5.600699 
L 379.789996 -5.777448 
L 380.528384 -5.958309 
L 381.266773 -6.143323 
L 382.005161 -6.332627 
L 382.743549 -6.526461 
L 383.481937 -6.725175 
L 384.220326 -6.92921 
L 384.958714 -7.139083 
L 385.697102 -7.355349 
L 386.43549 -7.578563 
L 387.173879 -7.809235 
L 387.912267 -8.047792 
L 388.650655 -8.294553 
L 389.389043 -8.549722 
L 390.127432 -8.813392 
L 390.86582 -9.085577 
L 391.604208 -9.36625 
L 392.342596 -9.655371 
L 393.080985 -9.952925 
L 393.819373 -10.258919 
L 394.557761 -10.573366 
L 395.296149 -10.896244 
L 396.034538 -11.227434 
L 396.772926 -11.566659 
L 397.511314 -11.913436 
L 398.249702 -12.267061 
L 398.988091 -12.626643 
L 399.726479 -12.991178 
L 400.464867 -13.359686 
L 401.203255 -13.731372 
L 401.941644 -14.105806 
L 402.680032 -14.483085 
L 403.41842 -14.863956 
L 404.156808 -15.249877 
L 404.895197 -15.642995 
L 405.633585 -16.046044 
L 406.371973 -16.462158 
L 407.110361 -16.894629 
L 407.84875 -17.346628 
L 408.587138 -17.820909 
L 409.325526 -18.319544 
L 410.063914 -18.843693 
L 410.802303 -19.393456 
L 411.540691 -19.9678 
L 412.279079 -20.564586 
L 413.017467 -21.180679 
L 413.755855 -21.812142 
L 414.494244 -22.454487 
L 415.232632 -23.102953 
L 415.97102 -23.752789 
L 416.709408 -24.399502 
L 417.447797 -25.039044 
L 418.186185 -25.667933 
L 418.924573 -26.283283 
L 419.662961 -26.882762 
L 420.40135 -27.464506 
L 421.139738 -28.026995 
L 421.878126 -28.56894 
L 422.616514 -29.089213 
L 423.354903 -29.586829 
L 424.093291 -30.060998 
L 424.831679 -30.511254 
L 425.570067 -30.937624 
L 426.308456 -31.340818 
L 427.046844 -31.722403 
L 427.785232 -32.084921 
L 428.52362 -32.431908 
L 429.262009 -32.767807 
L 430.000397 -33.097748 
L 430.738785 -33.427224 
L 431.477173 -33.761676 
L 432.215562 -34.106028 
L 432.95395 -34.464226 
L 433.692338 -34.838832 
L 434.430726 -35.230704 
L 435.169115 -35.638818 
L 435.907503 -36.060231 
L 436.645891 -36.490207 
L 437.384279 -36.922487 
L 438.122668 -37.349686 
L 438.861056 -37.763781 
L 439.599444 -38.15666 
L 440.337832 -38.520684 
L 441.076221 -38.849216 
L 441.814609 -39.137092 
L 442.552997 -39.380972 
L 443.291385 -39.57956 
L 444.029774 -39.733665 
L 444.768162 -39.84609 
L 445.50655 -39.921364 
L 446.244938 -39.965337 
L 446.983327 -39.984664 
L 447.721715 -39.986245 
L 448.460103 -39.976661 
L 449.198491 -39.961659 
L 449.93688 -39.945743 
L 450.675268 -39.931894 
L 451.413656 -39.92145 
L 452.152044 -39.914134 
L 452.890433 -39.908228 
L 453.628821 -39.900858 
L 454.367209 -39.888345 
L 455.105597 -39.866598 
L 455.843986 -39.831487 
L 456.582374 -39.779179 
L 457.320762 -39.706394 
L 458.05915 -39.610591 
L 458.797539 -39.490051 
L 459.535927 -39.343891 
L 460.274315 -39.171987 
L 461.012703 -38.974847 
L 461.751092 -38.753428 
L 462.48948 -38.508919 
L 463.227868 -38.242505 
L 463.966256 -37.955134 
L 464.704645 -37.647314 
L 465.443033 -37.318959 
L 466.181421 -36.969319 
L 466.919809 -36.597025 
L 467.658198 -36.200236 
L 468.396586 -35.776908 
L 469.134974 -35.32515 
L 469.873362 -34.84362 
L 470.611751 -34.331919 
L 471.350139 -33.790907 
L 472.088527 -33.222901 
L 472.826915 -32.631712 
L 473.565304 -32.022496 
L 474.303692 -31.401449 
L 475.04208 -30.775363 
L 475.780468 -30.151111 
L 476.518857 -29.535115 
L 477.257245 -28.932868 
L 477.995633 -28.34857 
L 478.734021 -27.784905 
L 479.47241 -27.242984 
L 480.210798 -26.722454 
L 480.949186 -26.221739 
L 481.687574 -25.738375 
L 482.425963 -25.269401 
L 483.164351 -24.811732 
L 483.902739 -24.362489 
L 484.641127 -23.919232 
L 485.379516 -23.480086 
L 486.117904 -23.043753 
L 486.856292 -22.609418 
L 487.59468 -22.176601 
L 488.333069 -21.744969 
L 489.071457 -21.314174 
L 489.809845 -20.883735 
L 490.548233 -20.452999 
L 491.286622 -20.021189 
L 492.02501 -19.587509 
L 492.763398 -19.151308 
L 493.501786 -18.712233 
L 494.240175 -18.270366 
L 494.978563 -17.826287 
L 495.716951 -17.381065 
L 496.455339 -16.936155 
L 497.193728 -16.493245 
L 497.932116 -16.054045 
L 498.670504 -15.620084 
L 499.408892 -15.192532 
L 500.147281 -14.772079 
L 500.885669 -14.358891 
L 501.624057 -13.952643 
L 502.362445 -13.55263 
L 503.100834 -13.157914 
L 503.839222 -12.767508 
L 504.57761 -12.380548 
L 505.315998 -11.996437 
L 506.054387 -11.614946 
L 506.792775 -11.23625 
L 507.531163 -10.860915 
L 508.269551 -10.48983 
L 509.00794 -10.124115 
L 509.746328 -9.765001 
L 510.484716 -9.413725 
L 511.223104 -9.071439 
L 511.961493 -8.739149 
L 512.699881 -8.417683 
L 513.438269 -8.107695 
L 514.176657 -7.809681 
L 514.915046 -7.524013 
L 515.653434 -7.250965 
L 516.391822 -6.990732 
L 517.13021 -6.743428 
L 517.868599 -6.509079 
L 518.606987 -6.287592 
L 519.345375 -6.078737 
L 520.083763 -5.882124 
L 520.822152 -5.697203 
L 521.56054 -5.523283 
L 522.298928 -5.359566 
L 523.037316 -5.205207 
L 523.775705 -5.059372 
L 524.514093 -4.921303 
L 525.252481 -4.790367 
L 525.990869 -4.666094 
L 526.729258 -4.548175 
L 527.467646 -4.436457 
L 528.206034 -4.33089 
L 528.944422 -4.231479 
L 529.682811 -4.138213 
L 530.421199 -4.051003 
L 531.159587 -3.969632 
L 531.897975 -3.893724 
L 532.636364 -3.822738 
L 532.636364 -2.470909 
L 532.636364 -2.470909 
L 531.897975 -2.470909 
L 531.159587 -2.470909 
L 530.421199 -2.470909 
L 529.682811 -2.470909 
L 528.944422 -2.470909 
L 528.206034 -2.470909 
L 527.467646 -2.470909 
L 526.729258 -2.470909 
L 525.990869 -2.470909 
L 525.252481 -2.470909 
L 524.514093 -2.470909 
L 523.775705 -2.470909 
L 523.037316 -2.470909 
L 522.298928 -2.470909 
L 521.56054 -2.470909 
L 520.822152 -2.470909 
L 520.083763 -2.470909 
L 519.345375 -2.470909 
L 518.606987 -2.470909 
L 517.868599 -2.470909 
L 517.13021 -2.470909 
L 516.391822 -2.470909 
L 515.653434 -2.470909 
L 514.915046 -2.470909 
L 514.176657 -2.470909 
L 513.438269 -2.470909 
L 512.699881 -2.470909 
L 511.961493 -2.470909 
L 511.223104 -2.470909 
L 510.484716 -2.470909 
L 509.746328 -2.470909 
L 509.00794 -2.470909 
L 508.269551 -2.470909 
L 507.531163 -2.470909 
L 506.792775 -2.470909 
L 506.054387 -2.470909 
L 505.315998 -2.470909 
L 504.57761 -2.470909 
L 503.839222 -2.470909 
L 503.100834 -2.470909 
L 502.362445 -2.470909 
L 501.624057 -2.470909 
L 500.885669 -2.470909 
L 500.147281 -2.470909 
L 499.408892 -2.470909 
L 498.670504 -2.470909 
L 497.932116 -2.470909 
L 497.193728 -2.470909 
L 496.455339 -2.470909 
L 495.716951 -2.470909 
L 494.978563 -2.470909 
L 494.240175 -2.470909 
L 493.501786 -2.470909 
L 492.763398 -2.470909 
L 492.02501 -2.470909 
L 491.286622 -2.470909 
L 490.548233 -2.470909 
L 489.809845 -2.470909 
L 489.071457 -2.470909 
L 488.333069 -2.470909 
L 487.59468 -2.470909 
L 486.856292 -2.470909 
L 486.117904 -2.470909 
L 485.379516 -2.470909 
L 484.641127 -2.470909 
L 483.902739 -2.470909 
L 483.164351 -2.470909 
L 482.425963 -2.470909 
L 481.687574 -2.470909 
L 480.949186 -2.470909 
L 480.210798 -2.470909 
L 479.47241 -2.470909 
L 478.734021 -2.470909 
L 477.995633 -2.470909 
L 477.257245 -2.470909 
L 476.518857 -2.470909 
L 475.780468 -2.470909 
L 475.04208 -2.470909 
L 474.303692 -2.470909 
L 473.565304 -2.470909 
L 472.826915 -2.470909 
L 472.088527 -2.470909 
L 471.350139 -2.470909 
L 470.611751 -2.470909 
L 469.873362 -2.470909 
L 469.134974 -2.470909 
L 468.396586 -2.470909 
L 467.658198 -2.470909 
L 466.919809 -2.470909 
L 466.181421 -2.470909 
L 465.443033 -2.470909 
L 464.704645 -2.470909 
L 463.966256 -2.470909 
L 463.227868 -2.470909 
L 462.48948 -2.470909 
L 461.751092 -2.470909 
L 461.012703 -2.470909 
L 460.274315 -2.470909 
L 459.535927 -2.470909 
L 458.797539 -2.470909 
L 458.05915 -2.470909 
L 457.320762 -2.470909 
L 456.582374 -2.470909 
L 455.843986 -2.470909 
L 455.105597 -2.470909 
L 454.367209 -2.470909 
L 453.628821 -2.470909 
L 452.890433 -2.470909 
L 452.152044 -2.470909 
L 451.413656 -2.470909 
L 450.675268 -2.470909 
L 449.93688 -2.470909 
L 449.198491 -2.470909 
L 448.460103 -2.470909 
L 447.721715 -2.470909 
L 446.983327 -2.470909 
L 446.244938 -2.470909 
L 445.50655 -2.470909 
L 444.768162 -2.470909 
L 444.029774 -2.470909 
L 443.291385 -2.470909 
L 442.552997 -2.470909 
L 441.814609 -2.470909 
L 441.076221 -2.470909 
L 440.337832 -2.470909 
L 439.599444 -2.470909 
L 438.861056 -2.470909 
L 438.122668 -2.470909 
L 437.384279 -2.470909 
L 436.645891 -2.470909 
L 435.907503 -2.470909 
L 435.169115 -2.470909 
L 434.430726 -2.470909 
L 433.692338 -2.470909 
L 432.95395 -2.470909 
L 432.215562 -2.470909 
L 431.477173 -2.470909 
L 430.738785 -2.470909 
L 430.000397 -2.470909 
L 429.262009 -2.470909 
L 428.52362 -2.470909 
L 427.785232 -2.470909 
L 427.046844 -2.470909 
L 426.308456 -2.470909 
L 425.570067 -2.470909 
L 424.831679 -2.470909 
L 424.093291 -2.470909 
L 423.354903 -2.470909 
L 422.616514 -2.470909 
L 421.878126 -2.470909 
L 421.139738 -2.470909 
L 420.40135 -2.470909 
L 419.662961 -2.470909 
L 418.924573 -2.470909 
L 418.186185 -2.470909 
L 417.447797 -2.470909 
L 416.709408 -2.470909 
L 415.97102 -2.470909 
L 415.232632 -2.470909 
L 414.494244 -2.470909 
L 413.755855 -2.470909 
L 413.017467 -2.470909 
L 412.279079 -2.470909 
L 411.540691 -2.470909 
L 410.802303 -2.470909 
L 410.063914 -2.470909 
L 409.325526 -2.470909 
L 408.587138 -2.470909 
L 407.84875 -2.470909 
L 407.110361 -2.470909 
L 406.371973 -2.470909 
L 405.633585 -2.470909 
L 404.895197 -2.470909 
L 404.156808 -2.470909 
L 403.41842 -2.470909 
L 402.680032 -2.470909 
L 401.941644 -2.470909 
L 401.203255 -2.470909 
L 400.464867 -2.470909 
L 399.726479 -2.470909 
L 398.988091 -2.470909 
L 398.249702 -2.470909 
L 397.511314 -2.470909 
L 396.772926 -2.470909 
L 396.034538 -2.470909 
L 395.296149 -2.470909 
L 394.557761 -2.470909 
L 393.819373 -2.470909 
L 393.080985 -2.470909 
L 392.342596 -2.470909 
L 391.604208 -2.470909 
L 390.86582 -2.470909 
L 390.127432 -2.470909 
L 389.389043 -2.470909 
L 388.650655 -2.470909 
L 387.912267 -2.470909 
L 387.173879 -2.470909 
L 386.43549 -2.470909 
L 385.697102 -2.470909 
L 384.958714 -2.470909 
L 384.220326 -2.470909 
L 383.481937 -2.470909 
L 382.743549 -2.470909 
L 382.005161 -2.470909 
L 381.266773 -2.470909 
L 380.528384 -2.470909 
L 379.789996 -2.470909 
L 379.051608 -2.470909 
L 378.31322 -2.470909 
L 377.574831 -2.470909 
L 376.836443 -2.470909 
L 376.098055 -2.470909 
L 375.359667 -2.470909 
L 374.621278 -2.470909 
L 373.88289 -2.470909 
L 373.144502 -2.470909 
L 372.406114 -2.470909 
L 371.667725 -2.470909 
L 370.929337 -2.470909 
z
" style="stroke: #cf1313; stroke-opacity: 0.2"/>
    </defs>
    <g clip-path="url(#p0d06f1fa22)">
     <use xlink:href="#m1595d7850d" x="0" y="54.36" style="fill: #cf1313; fill-opacity: 0.2; stroke: #cf1313; stroke-opacity: 0.2"/>
    </g>
   </g>
   <g id="PolyCollection_2">
    <defs>
     <path id="m549eb3ec0c" d="M 163.442239 -2.470909 
L 163.442239 -3.940926 
L 164.180627 -4.003757 
L 164.919015 -4.07051 
L 165.657404 -4.141895 
L 166.395792 -4.218586 
L 167.13418 -4.301197 
L 167.872568 -4.390263 
L 168.610957 -4.486233 
L 169.349345 -4.589451 
L 170.087733 -4.700158 
L 170.826121 -4.818482 
L 171.56451 -4.944439 
L 172.302898 -5.07793 
L 173.041286 -5.218743 
L 173.779674 -5.366555 
L 174.518063 -5.520932 
L 175.256451 -5.681343 
L 175.994839 -5.847167 
L 176.733227 -6.017712 
L 177.471616 -6.192238 
L 178.210004 -6.369982 
L 178.948392 -6.550197 
L 179.68678 -6.732182 
L 180.425169 -6.915321 
L 181.163557 -7.099123 
L 181.901945 -7.283242 
L 182.640333 -7.46751 
L 183.378722 -7.651947 
L 184.11711 -7.836767 
L 184.855498 -8.022373 
L 185.593886 -8.209341 
L 186.332275 -8.398398 
L 187.070663 -8.590391 
L 187.809051 -8.786252 
L 188.547439 -8.986955 
L 189.285828 -9.19348 
L 190.024216 -9.406763 
L 190.762604 -9.62766 
L 191.500992 -9.856904 
L 192.239381 -10.095072 
L 192.977769 -10.342553 
L 193.716157 -10.599535 
L 194.454545 -10.865986 
L 195.192934 -11.141667 
L 195.931322 -11.426142 
L 196.66971 -11.718808 
L 197.408098 -12.018934 
L 198.146487 -12.325717 
L 198.884875 -12.638327 
L 199.623263 -12.955975 
L 200.361651 -13.277962 
L 201.10004 -13.603735 
L 201.838428 -13.932922 
L 202.576816 -14.265359 
L 203.315204 -14.601106 
L 204.053593 -14.94043 
L 204.791981 -15.283787 
L 205.530369 -15.631769 
L 206.268757 -15.98504 
L 207.007146 -16.344262 
L 207.745534 -16.710003 
L 208.483922 -17.082646 
L 209.22231 -17.462311 
L 209.960699 -17.848781 
L 210.699087 -18.241459 
L 211.437475 -18.639362 
L 212.175863 -19.041142 
L 212.914252 -19.445162 
L 213.65264 -19.849597 
L 214.391028 -20.252576 
L 215.129416 -20.652344 
L 215.867805 -21.047427 
L 216.606193 -21.43679 
L 217.344581 -21.819976 
L 218.082969 -22.197192 
L 218.821358 -22.569357 
L 219.559746 -22.938083 
L 220.298134 -23.3056 
L 221.036522 -23.67462 
L 221.774911 -24.048161 
L 222.513299 -24.429331 
L 223.251687 -24.821092 
L 223.990075 -25.226029 
L 224.728464 -25.646126 
L 225.466852 -26.082585 
L 226.20524 -26.535683 
L 226.943628 -27.00469 
L 227.682017 -27.487845 
L 228.420405 -27.98241 
L 229.158793 -28.484777 
L 229.897181 -28.990649 
L 230.63557 -29.495264 
L 231.373958 -29.993666 
L 232.112346 -30.480998 
L 232.850734 -30.952802 
L 233.589123 -31.405301 
L 234.327511 -31.835656 
L 235.065899 -32.24215 
L 235.804287 -32.624312 
L 236.542676 -32.982944 
L 237.281064 -33.320048 
L 238.019452 -33.638667 
L 238.75784 -33.942625 
L 239.496229 -34.236201 
L 240.234617 -34.523759 
L 240.973005 -34.809355 
L 241.711393 -35.096367 
L 242.449782 -35.38718 
L 243.18817 -35.682943 
L 243.926558 -35.983441 
L 244.664946 -36.287079 
L 245.403335 -36.590995 
L 246.141723 -36.891276 
L 246.880111 -37.183274 
L 247.618499 -37.461976 
L 248.356888 -37.722413 
L 249.095276 -37.960047 
L 249.833664 -38.171128 
L 250.572052 -38.352964 
L 251.310441 -38.504109 
L 252.048829 -38.624431 
L 252.787217 -38.715086 
L 253.525605 -38.77838 
L 254.263994 -38.817561 
L 255.002382 -38.836545 
L 255.74077 -38.839618 
L 256.479158 -38.831127 
L 257.217547 -38.815198 
L 257.955935 -38.795486 
L 258.694323 -38.774986 
L 259.432711 -38.755902 
L 260.1711 -38.739577 
L 260.909488 -38.726484 
L 261.647876 -38.716265 
L 262.386264 -38.707816 
L 263.124653 -38.699397 
L 263.863041 -38.688763 
L 264.601429 -38.67331 
L 265.339817 -38.65022 
L 266.078206 -38.616612 
L 266.816594 -38.569683 
L 267.554982 -38.506838 
L 268.29337 -38.425814 
L 269.031759 -38.324784 
L 269.770147 -38.20244 
L 270.508535 -38.058042 
L 271.246923 -37.891448 
L 271.985312 -37.703094 
L 272.7237 -37.493942 
L 273.462088 -37.265392 
L 274.200476 -37.019154 
L 274.938865 -36.757105 
L 275.677253 -36.481128 
L 276.415641 -36.192955 
L 277.154029 -35.894029 
L 277.892418 -35.585393 
L 278.630806 -35.267624 
L 279.369194 -34.94082 
L 280.107582 -34.604627 
L 280.845971 -34.258326 
L 281.584359 -33.900947 
L 282.322747 -33.531418 
L 283.061135 -33.148715 
L 283.799524 -32.752019 
L 284.537912 -32.340842 
L 285.2763 -31.915129 
L 286.014688 -31.475321 
L 286.753077 -31.022378 
L 287.491465 -30.557755 
L 288.229853 -30.083351 
L 288.968241 -29.601423 
L 289.70663 -29.114478 
L 290.445018 -28.625157 
L 291.183406 -28.136105 
L 291.921794 -27.649853 
L 292.660183 -27.1687 
L 293.398571 -26.694611 
L 294.136959 -26.229127 
L 294.875347 -25.773301 
L 295.613736 -25.327656 
L 296.352124 -24.892166 
L 297.090512 -24.466271 
L 297.8289 -24.048921 
L 298.567289 -23.638645 
L 299.305677 -23.233655 
L 300.044065 -22.831963 
L 300.782453 -22.431523 
L 301.520842 -22.030368 
L 302.25923 -21.626751 
L 302.997618 -21.219264 
L 303.736006 -20.806932 
L 304.474395 -20.389279 
L 305.212783 -19.966346 
L 305.951171 -19.538675 
L 306.689559 -19.107246 
L 307.427948 -18.673394 
L 308.166336 -18.238686 
L 308.904724 -17.804802 
L 309.643112 -17.37341 
L 310.381501 -16.94605 
L 311.119889 -16.524058 
L 311.858277 -16.108505 
L 312.596665 -15.70018 
L 313.335054 -15.299614 
L 314.073442 -14.907117 
L 314.81183 -14.522853 
L 315.550218 -14.146919 
L 316.288607 -13.779414 
L 317.026995 -13.420514 
L 317.765383 -13.070504 
L 318.503771 -12.7298 
L 319.24216 -12.398933 
L 319.980548 -12.078504 
L 320.718936 -11.769125 
L 321.457324 -11.47134 
L 322.195713 -11.185545 
L 322.934101 -10.911915 
L 323.672489 -10.650352 
L 324.410877 -10.400449 
L 325.149266 -10.16149 
L 325.887654 -9.932473 
L 326.626042 -9.712165 
L 327.36443 -9.499172 
L 328.102819 -9.292029 
L 328.841207 -9.089289 
L 329.579595 -8.889611 
L 330.317983 -8.691838 
L 331.056372 -8.495054 
L 331.79476 -8.298624 
L 332.533148 -8.102211 
L 333.271536 -7.905768 
L 334.009925 -7.709518 
L 334.748313 -7.513914 
L 335.486701 -7.319592 
L 336.225089 -7.127315 
L 336.963478 -6.937917 
L 337.701866 -6.752252 
L 338.440254 -6.57114 
L 339.178642 -6.395327 
L 339.917031 -6.225445 
L 340.655419 -6.061989 
L 341.393807 -5.905296 
L 342.132195 -5.75554 
L 342.870584 -5.612732 
L 343.608972 -5.476731 
L 344.34736 -5.347265 
L 345.085748 -5.223958 
L 345.824137 -5.10636 
L 346.562525 -4.99398 
L 347.300913 -4.886325 
L 348.039301 -4.782923 
L 348.77769 -4.683352 
L 349.516078 -4.587258 
L 350.254466 -4.494364 
L 350.992854 -4.404469 
L 351.731243 -4.317449 
L 352.469631 -4.23324 
L 353.208019 -4.15183 
L 353.946407 -4.073241 
L 354.684796 -3.99752 
L 355.423184 -3.924722 
L 355.423184 -2.470909 
L 355.423184 -2.470909 
L 354.684796 -2.470909 
L 353.946407 -2.470909 
L 353.208019 -2.470909 
L 352.469631 -2.470909 
L 351.731243 -2.470909 
L 350.992854 -2.470909 
L 350.254466 -2.470909 
L 349.516078 -2.470909 
L 348.77769 -2.470909 
L 348.039301 -2.470909 
L 347.300913 -2.470909 
L 346.562525 -2.470909 
L 345.824137 -2.470909 
L 345.085748 -2.470909 
L 344.34736 -2.470909 
L 343.608972 -2.470909 
L 342.870584 -2.470909 
L 342.132195 -2.470909 
L 341.393807 -2.470909 
L 340.655419 -2.470909 
L 339.917031 -2.470909 
L 339.178642 -2.470909 
L 338.440254 -2.470909 
L 337.701866 -2.470909 
L 336.963478 -2.470909 
L 336.225089 -2.470909 
L 335.486701 -2.470909 
L 334.748313 -2.470909 
L 334.009925 -2.470909 
L 333.271536 -2.470909 
L 332.533148 -2.470909 
L 331.79476 -2.470909 
L 331.056372 -2.470909 
L 330.317983 -2.470909 
L 329.579595 -2.470909 
L 328.841207 -2.470909 
L 328.102819 -2.470909 
L 327.36443 -2.470909 
L 326.626042 -2.470909 
L 325.887654 -2.470909 
L 325.149266 -2.470909 
L 324.410877 -2.470909 
L 323.672489 -2.470909 
L 322.934101 -2.470909 
L 322.195713 -2.470909 
L 321.457324 -2.470909 
L 320.718936 -2.470909 
L 319.980548 -2.470909 
L 319.24216 -2.470909 
L 318.503771 -2.470909 
L 317.765383 -2.470909 
L 317.026995 -2.470909 
L 316.288607 -2.470909 
L 315.550218 -2.470909 
L 314.81183 -2.470909 
L 314.073442 -2.470909 
L 313.335054 -2.470909 
L 312.596665 -2.470909 
L 311.858277 -2.470909 
L 311.119889 -2.470909 
L 310.381501 -2.470909 
L 309.643112 -2.470909 
L 308.904724 -2.470909 
L 308.166336 -2.470909 
L 307.427948 -2.470909 
L 306.689559 -2.470909 
L 305.951171 -2.470909 
L 305.212783 -2.470909 
L 304.474395 -2.470909 
L 303.736006 -2.470909 
L 302.997618 -2.470909 
L 302.25923 -2.470909 
L 301.520842 -2.470909 
L 300.782453 -2.470909 
L 300.044065 -2.470909 
L 299.305677 -2.470909 
L 298.567289 -2.470909 
L 297.8289 -2.470909 
L 297.090512 -2.470909 
L 296.352124 -2.470909 
L 295.613736 -2.470909 
L 294.875347 -2.470909 
L 294.136959 -2.470909 
L 293.398571 -2.470909 
L 292.660183 -2.470909 
L 291.921794 -2.470909 
L 291.183406 -2.470909 
L 290.445018 -2.470909 
L 289.70663 -2.470909 
L 288.968241 -2.470909 
L 288.229853 -2.470909 
L 287.491465 -2.470909 
L 286.753077 -2.470909 
L 286.014688 -2.470909 
L 285.2763 -2.470909 
L 284.537912 -2.470909 
L 283.799524 -2.470909 
L 283.061135 -2.470909 
L 282.322747 -2.470909 
L 281.584359 -2.470909 
L 280.845971 -2.470909 
L 280.107582 -2.470909 
L 279.369194 -2.470909 
L 278.630806 -2.470909 
L 277.892418 -2.470909 
L 277.154029 -2.470909 
L 276.415641 -2.470909 
L 275.677253 -2.470909 
L 274.938865 -2.470909 
L 274.200476 -2.470909 
L 273.462088 -2.470909 
L 272.7237 -2.470909 
L 271.985312 -2.470909 
L 271.246923 -2.470909 
L 270.508535 -2.470909 
L 269.770147 -2.470909 
L 269.031759 -2.470909 
L 268.29337 -2.470909 
L 267.554982 -2.470909 
L 266.816594 -2.470909 
L 266.078206 -2.470909 
L 265.339817 -2.470909 
L 264.601429 -2.470909 
L 263.863041 -2.470909 
L 263.124653 -2.470909 
L 262.386264 -2.470909 
L 261.647876 -2.470909 
L 260.909488 -2.470909 
L 260.1711 -2.470909 
L 259.432711 -2.470909 
L 258.694323 -2.470909 
L 257.955935 -2.470909 
L 257.217547 -2.470909 
L 256.479158 -2.470909 
L 255.74077 -2.470909 
L 255.002382 -2.470909 
L 254.263994 -2.470909 
L 253.525605 -2.470909 
L 252.787217 -2.470909 
L 252.048829 -2.470909 
L 251.310441 -2.470909 
L 250.572052 -2.470909 
L 249.833664 -2.470909 
L 249.095276 -2.470909 
L 248.356888 -2.470909 
L 247.618499 -2.470909 
L 246.880111 -2.470909 
L 246.141723 -2.470909 
L 245.403335 -2.470909 
L 244.664946 -2.470909 
L 243.926558 -2.470909 
L 243.18817 -2.470909 
L 242.449782 -2.470909 
L 241.711393 -2.470909 
L 240.973005 -2.470909 
L 240.234617 -2.470909 
L 239.496229 -2.470909 
L 238.75784 -2.470909 
L 238.019452 -2.470909 
L 237.281064 -2.470909 
L 236.542676 -2.470909 
L 235.804287 -2.470909 
L 235.065899 -2.470909 
L 234.327511 -2.470909 
L 233.589123 -2.470909 
L 232.850734 -2.470909 
L 232.112346 -2.470909 
L 231.373958 -2.470909 
L 230.63557 -2.470909 
L 229.897181 -2.470909 
L 229.158793 -2.470909 
L 228.420405 -2.470909 
L 227.682017 -2.470909 
L 226.943628 -2.470909 
L 226.20524 -2.470909 
L 225.466852 -2.470909 
L 224.728464 -2.470909 
L 223.990075 -2.470909 
L 223.251687 -2.470909 
L 222.513299 -2.470909 
L 221.774911 -2.470909 
L 221.036522 -2.470909 
L 220.298134 -2.470909 
L 219.559746 -2.470909 
L 218.821358 -2.470909 
L 218.082969 -2.470909 
L 217.344581 -2.470909 
L 216.606193 -2.470909 
L 215.867805 -2.470909 
L 215.129416 -2.470909 
L 214.391028 -2.470909 
L 213.65264 -2.470909 
L 212.914252 -2.470909 
L 212.175863 -2.470909 
L 211.437475 -2.470909 
L 210.699087 -2.470909 
L 209.960699 -2.470909 
L 209.22231 -2.470909 
L 208.483922 -2.470909 
L 207.745534 -2.470909 
L 207.007146 -2.470909 
L 206.268757 -2.470909 
L 205.530369 -2.470909 
L 204.791981 -2.470909 
L 204.053593 -2.470909 
L 203.315204 -2.470909 
L 202.576816 -2.470909 
L 201.838428 -2.470909 
L 201.10004 -2.470909 
L 200.361651 -2.470909 
L 199.623263 -2.470909 
L 198.884875 -2.470909 
L 198.146487 -2.470909 
L 197.408098 -2.470909 
L 196.66971 -2.470909 
L 195.931322 -2.470909 
L 195.192934 -2.470909 
L 194.454545 -2.470909 
L 193.716157 -2.470909 
L 192.977769 -2.470909 
L 192.239381 -2.470909 
L 191.500992 -2.470909 
L 190.762604 -2.470909 
L 190.024216 -2.470909 
L 189.285828 -2.470909 
L 188.547439 -2.470909 
L 187.809051 -2.470909 
L 187.070663 -2.470909 
L 186.332275 -2.470909 
L 185.593886 -2.470909 
L 184.855498 -2.470909 
L 184.11711 -2.470909 
L 183.378722 -2.470909 
L 182.640333 -2.470909 
L 181.901945 -2.470909 
L 181.163557 -2.470909 
L 180.425169 -2.470909 
L 179.68678 -2.470909 
L 178.948392 -2.470909 
L 178.210004 -2.470909 
L 177.471616 -2.470909 
L 176.733227 -2.470909 
L 175.994839 -2.470909 
L 175.256451 -2.470909 
L 174.518063 -2.470909 
L 173.779674 -2.470909 
L 173.041286 -2.470909 
L 172.302898 -2.470909 
L 171.56451 -2.470909 
L 170.826121 -2.470909 
L 170.087733 -2.470909 
L 169.349345 -2.470909 
L 168.610957 -2.470909 
L 167.872568 -2.470909 
L 167.13418 -2.470909 
L 166.395792 -2.470909 
L 165.657404 -2.470909 
L 164.919015 -2.470909 
L 164.180627 -2.470909 
L 163.442239 -2.470909 
z
" style="stroke: #116dc2; stroke-opacity: 0.2"/>
    </defs>
    <g clip-path="url(#p0d06f1fa22)">
     <use xlink:href="#m549eb3ec0c" x="0" y="54.36" style="fill: #116dc2; fill-opacity: 0.2; stroke: #116dc2; stroke-opacity: 0.2"/>
    </g>
   </g>
   <g id="PolyCollection_3">
    <defs>
     <path id="m8d78296b30" d="M 25.363636 -2.470909 
L 25.363636 -4.706112 
L 26.102025 -5.367605 
L 26.840413 -6.187402 
L 27.578801 -7.064345 
L 28.317189 -7.92266 
L 29.055578 -8.799141 
L 29.793966 -9.818212 
L 30.532354 -11.128408 
L 31.270742 -12.847834 
L 32.009131 -14.968559 
L 32.747519 -17.275236 
L 33.485907 -19.476266 
L 34.224295 -21.518159 
L 34.962684 -23.671524 
L 35.701072 -26.211911 
L 36.43946 -29.109096 
L 37.177848 -32.075774 
L 37.916237 -34.848768 
L 38.654625 -37.367841 
L 39.393013 -39.658002 
L 40.131401 -41.663537 
L 40.86979 -43.367583 
L 41.608178 -44.980568 
L 42.346566 -46.757079 
L 43.084954 -48.590138 
L 43.823343 -50.060738 
L 44.561731 -50.979346 
L 45.300119 -51.545988 
L 46.038507 -51.889091 
L 46.776896 -51.794615 
L 47.515284 -51.021879 
L 48.253672 -49.665344 
L 48.99206 -48.023789 
L 49.730449 -46.206271 
L 50.468837 -44.062785 
L 51.207225 -41.502778 
L 51.945613 -38.722802 
L 52.684002 -36.017856 
L 53.42239 -33.452186 
L 54.160778 -30.870677 
L 54.899166 -28.196221 
L 55.637555 -25.566039 
L 56.375943 -23.192673 
L 57.114331 -21.16438 
L 57.852719 -19.34898 
L 58.591108 -17.504745 
L 59.329496 -15.524456 
L 60.067884 -13.518849 
L 60.806272 -11.671207 
L 61.544661 -10.097295 
L 62.283049 -8.816355 
L 63.021437 -7.765923 
L 63.759825 -6.858127 
L 64.498214 -6.064917 
L 65.236602 -5.413835 
L 65.97499 -4.89472 
L 66.713378 -4.441419 
L 66.713378 -2.470909 
L 66.713378 -2.470909 
L 65.97499 -2.470909 
L 65.236602 -2.470909 
L 64.498214 -2.470909 
L 63.759825 -2.470909 
L 63.021437 -2.470909 
L 62.283049 -2.470909 
L 61.544661 -2.470909 
L 60.806272 -2.470909 
L 60.067884 -2.470909 
L 59.329496 -2.470909 
L 58.591108 -2.470909 
L 57.852719 -2.470909 
L 57.114331 -2.470909 
L 56.375943 -2.470909 
L 55.637555 -2.470909 
L 54.899166 -2.470909 
L 54.160778 -2.470909 
L 53.42239 -2.470909 
L 52.684002 -2.470909 
L 51.945613 -2.470909 
L 51.207225 -2.470909 
L 50.468837 -2.470909 
L 49.730449 -2.470909 
L 48.99206 -2.470909 
L 48.253672 -2.470909 
L 47.515284 -2.470909 
L 46.776896 -2.470909 
L 46.038507 -2.470909 
L 45.300119 -2.470909 
L 44.561731 -2.470909 
L 43.823343 -2.470909 
L 43.084954 -2.470909 
L 42.346566 -2.470909 
L 41.608178 -2.470909 
L 40.86979 -2.470909 
L 40.131401 -2.470909 
L 39.393013 -2.470909 
L 38.654625 -2.470909 
L 37.916237 -2.470909 
L 37.177848 -2.470909 
L 36.43946 -2.470909 
L 35.701072 -2.470909 
L 34.962684 -2.470909 
L 34.224295 -2.470909 
L 33.485907 -2.470909 
L 32.747519 -2.470909 
L 32.009131 -2.470909 
L 31.270742 -2.470909 
L 30.532354 -2.470909 
L 29.793966 -2.470909 
L 29.055578 -2.470909 
L 28.317189 -2.470909 
L 27.578801 -2.470909 
L 26.840413 -2.470909 
L 26.102025 -2.470909 
L 25.363636 -2.470909 
z
" style="stroke: #8a8a8a; stroke-opacity: 0.2"/>
    </defs>
    <g clip-path="url(#p0d06f1fa22)">
     <use xlink:href="#m8d78296b30" x="0" y="54.36" style="fill: #8a8a8a; fill-opacity: 0.2; stroke: #8a8a8a; stroke-opacity: 0.2"/>
    </g>
   </g>
   <g id="line2d_1">
    <path d="M 370.929337 50.380787 
L 375.359667 49.577742 
L 380.528384 48.401691 
L 385.697102 47.004651 
L 389.389043 45.810278 
L 393.080985 44.407075 
L 396.772926 42.793341 
L 401.941644 40.254194 
L 406.371973 37.897842 
L 409.325526 36.040456 
L 411.540691 34.3922 
L 414.494244 31.905513 
L 419.662961 27.477238 
L 422.616514 25.270787 
L 424.831679 23.848746 
L 427.046844 22.637597 
L 430.738785 20.932776 
L 433.692338 19.521168 
L 437.384279 17.437513 
L 440.337832 15.839316 
L 441.814609 15.222908 
L 443.291385 14.78044 
L 444.768162 14.51391 
L 446.983327 14.375336 
L 453.628821 14.459142 
L 456.582374 14.580821 
L 458.797539 14.869949 
L 461.012703 15.385153 
L 463.227868 16.117495 
L 465.443033 17.041041 
L 467.658198 18.159764 
L 469.873362 19.51638 
L 472.088527 21.137099 
L 476.518857 24.824885 
L 479.47241 27.117016 
L 482.425963 29.090599 
L 487.59468 32.183399 
L 503.839222 41.592492 
L 509.746328 44.594999 
L 513.438269 46.252305 
L 516.391822 47.369268 
L 519.345375 48.281263 
L 523.037316 49.154793 
L 527.467646 49.923543 
L 531.897975 50.466276 
L 532.636364 50.537262 
L 532.636364 50.537262 
" clip-path="url(#p0d06f1fa22)" style="fill: none; stroke: #cf1313; stroke-width: 1.5; stroke-linecap: square"/>
   </g>
   <g id="line2d_2">
    <path d="M 163.442239 50.419074 
L 168.610957 49.873767 
L 172.302898 49.28207 
L 176.733227 48.342288 
L 186.332275 45.961602 
L 191.500992 44.503096 
L 195.192934 43.218333 
L 199.623263 41.404025 
L 205.530369 38.728231 
L 209.960699 36.511219 
L 226.943628 27.35531 
L 235.065899 22.11785 
L 237.281064 21.039952 
L 240.973005 19.550645 
L 249.833664 16.188872 
L 252.048829 15.735569 
L 254.263994 15.542439 
L 257.217547 15.544802 
L 268.29337 15.934186 
L 270.508535 16.301958 
L 272.7237 16.866058 
L 275.677253 17.878872 
L 279.369194 19.41918 
L 283.061135 21.211285 
L 286.014688 22.884679 
L 289.70663 25.245522 
L 295.613736 29.032344 
L 300.044065 31.528037 
L 306.689559 35.252754 
L 313.335054 39.060386 
L 317.026995 40.939486 
L 320.718936 42.590875 
L 323.672489 43.709648 
L 327.36443 44.860828 
L 336.225089 47.232685 
L 341.393807 48.454704 
L 345.824137 49.25364 
L 351.731243 50.042551 
L 355.423184 50.435278 
L 355.423184 50.435278 
" clip-path="url(#p0d06f1fa22)" style="fill: none; stroke: #116dc2; stroke-width: 1.5; stroke-linecap: square"/>
   </g>
   <g id="line2d_3">
    <path d="M 25.363636 49.653888 
L 26.102025 48.992395 
L 26.840413 48.172598 
L 27.578801 47.295655 
L 28.317189 46.43734 
L 29.055578 45.560859 
L 29.793966 44.541788 
L 30.532354 43.231592 
L 31.270742 41.512166 
L 32.009131 39.391441 
L 32.747519 37.084764 
L 33.485907 34.883734 
L 34.224295 32.841841 
L 34.962684 30.688476 
L 35.701072 28.148089 
L 36.43946 25.250904 
L 37.177848 22.284226 
L 37.916237 19.511232 
L 38.654625 16.992159 
L 39.393013 14.701998 
L 40.131401 12.696463 
L 40.86979 10.992417 
L 41.608178 9.379432 
L 42.346566 7.602921 
L 43.084954 5.769862 
L 43.823343 4.299262 
L 44.561731 3.380654 
L 45.300119 2.814012 
L 46.038507 2.470909 
L 46.776896 2.565385 
L 47.515284 3.338121 
L 48.253672 4.694656 
L 48.99206 6.336211 
L 49.730449 8.153729 
L 50.468837 10.297215 
L 51.207225 12.857222 
L 51.945613 15.637198 
L 52.684002 18.342144 
L 53.42239 20.907814 
L 54.160778 23.489323 
L 54.899166 26.163779 
L 55.637555 28.793961 
L 56.375943 31.167327 
L 57.114331 33.19562 
L 57.852719 35.01102 
L 58.591108 36.855255 
L 59.329496 38.835544 
L 60.067884 40.841151 
L 60.806272 42.688793 
L 61.544661 44.262705 
L 62.283049 45.543645 
L 63.021437 46.594077 
L 63.759825 47.501873 
L 64.498214 48.295083 
L 65.236602 48.946165 
L 65.97499 49.46528 
L 66.713378 49.918581 
" clip-path="url(#p0d06f1fa22)" style="fill: none; stroke: #8a8a8a; stroke-width: 1.5; stroke-linecap: square"/>
   </g>
  </g>
 </g>
 <defs>
  <clipPath id="p0d06f1fa22">
   <rect x="0" y="-0" width="558" height="54.36"/>
  </clipPath>
 </defs>
</svg>
