<?xml version="1.0" encoding="utf-8" standalone="no"?>
<!DOCTYPE svg PUBLIC "-//W3C//DTD SVG 1.1//EN"
  "http://www.w3.org/Graphics/SVG/1.1/DTD/svg11.dtd">
<svg xmlns:xlink="http://www.w3.org/1999/xlink" width="558pt" height="54.36pt" viewBox="0 0 558 54.36" xmlns="http://www.w3.org/2000/svg" version="1.1">
 <metadata>
  <rdf:RDF xmlns:dc="http://purl.org/dc/elements/1.1/" xmlns:cc="http://creativecommons.org/ns#" xmlns:rdf="http://www.w3.org/1999/02/22-rdf-syntax-ns#">
   <cc:Work>
    <dc:type rdf:resource="http://purl.org/dc/dcmitype/StillImage"/>
    <dc:date>2024-09-15T09:31:54.472211</dc:date>
    <dc:format>image/svg+xml</dc:format>
    <dc:creator>
     <cc:Agent>
      <dc:title>Matplotlib v3.5.2, https://matplotlib.org/</dc:title>
     </cc:Agent>
    </dc:creator>
   </cc:Work>
  </rdf:RDF>
 </metadata>
 <defs>
  <style type="text/css">*{stroke-linejoin: round; stroke-linecap: butt}</style>
 </defs>
 <g id="figure_1">
  <g id="patch_1">
   <path d="M 0 54.36 
L 558 54.36 
L 558 0 
L 0 0 
L 0 54.36 
z
" style="fill: none; opacity: 0"/>
  </g>
  <g id="axes_1">
   <g id="PolyCollection_1">
    <defs>
     <path id="mcd2eac5351" d="M 149.106342 -2.470909 
L 149.106342 -3.744204 
L 149.829983 -3.800828 
L 150.553625 -3.863193 
L 151.277266 -3.934089 
L 152.000908 -4.016048 
L 152.724549 -4.111119 
L 153.448191 -4.220708 
L 154.171832 -4.34552 
L 154.895474 -4.485587 
L 155.619116 -4.640381 
L 156.342757 -4.808993 
L 157.066399 -4.990321 
L 157.79004 -5.183271 
L 158.513682 -5.386906 
L 159.237323 -5.600551 
L 159.960965 -5.823837 
L 160.684606 -6.056682 
L 161.408248 -6.299218 
L 162.13189 -6.551685 
L 162.855531 -6.814287 
L 163.579173 -7.087041 
L 164.302814 -7.369626 
L 165.026456 -7.661246 
L 165.750097 -7.96054 
L 166.473739 -8.265548 
L 167.19738 -8.573762 
L 167.921022 -8.882266 
L 168.644663 -9.187973 
L 169.368305 -9.48794 
L 170.091947 -9.779721 
L 170.815588 -10.061721 
L 171.53923 -10.333482 
L 172.262871 -10.595872 
L 172.986513 -10.85112 
L 173.710154 -11.102698 
L 174.433796 -11.35506 
L 175.157437 -11.613275 
L 175.881079 -11.882618 
L 176.604721 -12.168164 
L 177.328362 -12.474459 
L 178.052004 -12.805299 
L 178.775645 -13.163622 
L 179.499287 -13.551526 
L 180.222928 -13.970362 
L 180.94657 -14.420873 
L 181.670211 -14.903323 
L 182.393853 -15.41758 
L 183.117494 -15.963122 
L 183.841136 -16.538971 
L 184.564778 -17.143548 
L 185.288419 -17.774507 
L 186.012061 -18.428567 
L 186.735702 -19.101419 
L 187.459344 -19.787725 
L 188.182985 -20.481256 
L 188.906627 -21.175162 
L 189.630268 -21.862361 
L 190.35391 -22.535993 
L 191.077552 -23.189896 
L 191.801193 -23.819013 
L 192.524835 -24.419697 
L 193.248476 -24.989863 
L 193.972118 -25.528979 
L 194.695759 -26.037911 
L 195.419401 -26.518665 
L 196.143042 -26.97408 
L 196.866684 -27.407518 
L 197.590326 -27.822611 
L 198.313967 -28.223086 
L 199.037609 -28.612671 
L 199.76125 -28.995083 
L 200.484892 -29.374064 
L 201.208533 -29.753432 
L 201.932175 -30.137113 
L 202.655816 -30.529126 
L 203.379458 -30.933488 
L 204.103099 -31.35404 
L 204.826741 -31.794183 
L 205.550383 -32.256544 
L 206.274024 -32.742595 
L 206.997666 -33.252276 
L 207.721307 -33.783665 
L 208.444949 -34.332757 
L 209.16859 -34.893415 
L 209.892232 -35.457531 
L 210.615873 -36.015428 
L 211.339515 -36.556489 
L 212.063157 -37.069987 
L 212.786798 -37.546024 
L 213.51044 -37.976496 
L 214.234081 -38.355954 
L 214.957723 -38.682257 
L 215.681364 -38.95692 
L 216.405006 -39.185089 
L 217.128647 -39.375125 
L 217.852289 -39.537827 
L 218.57593 -39.685364 
L 219.299572 -39.830027 
L 220.023214 -39.982933 
L 220.746855 -40.152826 
L 221.470497 -40.345102 
L 222.194138 -40.561166 
L 222.91778 -40.798192 
L 223.641421 -41.049306 
L 224.365063 -41.304168 
L 225.088704 -41.549895 
L 225.812346 -41.772212 
L 226.535988 -41.956726 
L 227.259629 -42.090182 
L 227.983271 -42.161588 
L 228.706912 -42.16309 
L 229.430554 -42.090538 
L 230.154195 -41.943695 
L 230.877837 -41.726073 
L 231.601478 -41.444456 
L 232.32512 -41.108164 
L 233.048762 -40.728139 
L 233.772403 -40.315981 
L 234.496045 -39.883014 
L 235.219686 -39.439476 
L 235.943328 -38.993897 
L 236.666969 -38.552705 
L 237.390611 -38.120048 
L 238.114252 -37.697836 
L 238.837894 -37.285963 
L 239.561535 -36.882655 
L 240.285177 -36.48491 
L 241.008819 -36.088988 
L 241.73246 -35.690894 
L 242.456102 -35.286828 
L 243.179743 -34.87355 
L 243.903385 -34.448646 
L 244.627026 -34.01065 
L 245.350668 -33.559026 
L 246.074309 -33.094024 
L 246.797951 -32.61643 
L 247.521593 -32.127268 
L 248.245234 -31.627507 
L 248.968876 -31.117829 
L 249.692517 -30.59851 
L 250.416159 -30.069418 
L 251.1398 -29.530125 
L 251.863442 -28.980112 
L 252.587083 -28.418999 
L 253.310725 -27.846764 
L 254.034366 -27.263894 
L 254.758008 -26.671445 
L 255.48165 -26.071009 
L 256.205291 -25.464597 
L 256.928933 -24.854472 
L 257.652574 -24.242966 
L 258.376216 -23.632317 
L 259.099857 -23.024547 
L 259.823499 -22.421389 
L 260.54714 -21.824266 
L 261.270782 -21.234299 
L 261.994424 -20.652346 
L 262.718065 -20.079032 
L 263.441707 -19.514792 
L 264.165348 -18.959888 
L 264.88899 -18.414437 
L 265.612631 -17.878419 
L 266.336273 -17.351709 
L 267.059914 -16.834107 
L 267.783556 -16.325384 
L 268.507198 -15.825338 
L 269.230839 -15.333857 
L 269.954481 -14.850982 
L 270.678122 -14.376952 
L 271.401764 -13.912248 
L 272.125405 -13.457602 
L 272.849047 -13.013981 
L 273.572688 -12.582545 
L 274.29633 -12.164569 
L 275.019971 -11.761339 
L 275.743613 -11.374016 
L 276.467255 -11.003499 
L 277.190896 -10.650279 
L 277.914538 -10.314325 
L 278.638179 -9.995007 
L 279.361821 -9.691086 
L 280.085462 -9.400782 
L 280.809104 -9.12192 
L 281.532745 -8.852138 
L 282.256387 -8.589149 
L 282.980029 -8.330993 
L 283.70367 -8.076271 
L 284.427312 -7.824295 
L 285.150953 -7.575147 
L 285.874595 -7.329629 
L 286.598236 -7.089105 
L 287.321878 -6.855278 
L 288.045519 -6.629913 
L 288.769161 -6.414573 
L 289.492802 -6.210397 
L 290.216444 -6.017945 
L 290.940086 -5.837136 
L 291.663727 -5.667276 
L 292.387369 -5.507159 
L 293.11101 -5.355228 
L 293.834652 -5.20976 
L 294.558293 -5.06905 
L 295.281935 -4.931587 
L 296.005576 -4.796184 
L 296.729218 -4.662077 
L 297.45286 -4.528977 
L 298.176501 -4.397076 
L 298.900143 -4.267018 
L 299.623784 -4.13983 
L 299.623784 -2.470909 
L 299.623784 -2.470909 
L 298.900143 -2.470909 
L 298.176501 -2.470909 
L 297.45286 -2.470909 
L 296.729218 -2.470909 
L 296.005576 -2.470909 
L 295.281935 -2.470909 
L 294.558293 -2.470909 
L 293.834652 -2.470909 
L 293.11101 -2.470909 
L 292.387369 -2.470909 
L 291.663727 -2.470909 
L 290.940086 -2.470909 
L 290.216444 -2.470909 
L 289.492802 -2.470909 
L 288.769161 -2.470909 
L 288.045519 -2.470909 
L 287.321878 -2.470909 
L 286.598236 -2.470909 
L 285.874595 -2.470909 
L 285.150953 -2.470909 
L 284.427312 -2.470909 
L 283.70367 -2.470909 
L 282.980029 -2.470909 
L 282.256387 -2.470909 
L 281.532745 -2.470909 
L 280.809104 -2.470909 
L 280.085462 -2.470909 
L 279.361821 -2.470909 
L 278.638179 -2.470909 
L 277.914538 -2.470909 
L 277.190896 -2.470909 
L 276.467255 -2.470909 
L 275.743613 -2.470909 
L 275.019971 -2.470909 
L 274.29633 -2.470909 
L 273.572688 -2.470909 
L 272.849047 -2.470909 
L 272.125405 -2.470909 
L 271.401764 -2.470909 
L 270.678122 -2.470909 
L 269.954481 -2.470909 
L 269.230839 -2.470909 
L 268.507198 -2.470909 
L 267.783556 -2.470909 
L 267.059914 -2.470909 
L 266.336273 -2.470909 
L 265.612631 -2.470909 
L 264.88899 -2.470909 
L 264.165348 -2.470909 
L 263.441707 -2.470909 
L 262.718065 -2.470909 
L 261.994424 -2.470909 
L 261.270782 -2.470909 
L 260.54714 -2.470909 
L 259.823499 -2.470909 
L 259.099857 -2.470909 
L 258.376216 -2.470909 
L 257.652574 -2.470909 
L 256.928933 -2.470909 
L 256.205291 -2.470909 
L 255.48165 -2.470909 
L 254.758008 -2.470909 
L 254.034366 -2.470909 
L 253.310725 -2.470909 
L 252.587083 -2.470909 
L 251.863442 -2.470909 
L 251.1398 -2.470909 
L 250.416159 -2.470909 
L 249.692517 -2.470909 
L 248.968876 -2.470909 
L 248.245234 -2.470909 
L 247.521593 -2.470909 
L 246.797951 -2.470909 
L 246.074309 -2.470909 
L 245.350668 -2.470909 
L 244.627026 -2.470909 
L 243.903385 -2.470909 
L 243.179743 -2.470909 
L 242.456102 -2.470909 
L 241.73246 -2.470909 
L 241.008819 -2.470909 
L 240.285177 -2.470909 
L 239.561535 -2.470909 
L 238.837894 -2.470909 
L 238.114252 -2.470909 
L 237.390611 -2.470909 
L 236.666969 -2.470909 
L 235.943328 -2.470909 
L 235.219686 -2.470909 
L 234.496045 -2.470909 
L 233.772403 -2.470909 
L 233.048762 -2.470909 
L 232.32512 -2.470909 
L 231.601478 -2.470909 
L 230.877837 -2.470909 
L 230.154195 -2.470909 
L 229.430554 -2.470909 
L 228.706912 -2.470909 
L 227.983271 -2.470909 
L 227.259629 -2.470909 
L 226.535988 -2.470909 
L 225.812346 -2.470909 
L 225.088704 -2.470909 
L 224.365063 -2.470909 
L 223.641421 -2.470909 
L 222.91778 -2.470909 
L 222.194138 -2.470909 
L 221.470497 -2.470909 
L 220.746855 -2.470909 
L 220.023214 -2.470909 
L 219.299572 -2.470909 
L 218.57593 -2.470909 
L 217.852289 -2.470909 
L 217.128647 -2.470909 
L 216.405006 -2.470909 
L 215.681364 -2.470909 
L 214.957723 -2.470909 
L 214.234081 -2.470909 
L 213.51044 -2.470909 
L 212.786798 -2.470909 
L 212.063157 -2.470909 
L 211.339515 -2.470909 
L 210.615873 -2.470909 
L 209.892232 -2.470909 
L 209.16859 -2.470909 
L 208.444949 -2.470909 
L 207.721307 -2.470909 
L 206.997666 -2.470909 
L 206.274024 -2.470909 
L 205.550383 -2.470909 
L 204.826741 -2.470909 
L 204.103099 -2.470909 
L 203.379458 -2.470909 
L 202.655816 -2.470909 
L 201.932175 -2.470909 
L 201.208533 -2.470909 
L 200.484892 -2.470909 
L 199.76125 -2.470909 
L 199.037609 -2.470909 
L 198.313967 -2.470909 
L 197.590326 -2.470909 
L 196.866684 -2.470909 
L 196.143042 -2.470909 
L 195.419401 -2.470909 
L 194.695759 -2.470909 
L 193.972118 -2.470909 
L 193.248476 -2.470909 
L 192.524835 -2.470909 
L 191.801193 -2.470909 
L 191.077552 -2.470909 
L 190.35391 -2.470909 
L 189.630268 -2.470909 
L 188.906627 -2.470909 
L 188.182985 -2.470909 
L 187.459344 -2.470909 
L 186.735702 -2.470909 
L 186.012061 -2.470909 
L 185.288419 -2.470909 
L 184.564778 -2.470909 
L 183.841136 -2.470909 
L 183.117494 -2.470909 
L 182.393853 -2.470909 
L 181.670211 -2.470909 
L 180.94657 -2.470909 
L 180.222928 -2.470909 
L 179.499287 -2.470909 
L 178.775645 -2.470909 
L 178.052004 -2.470909 
L 177.328362 -2.470909 
L 176.604721 -2.470909 
L 175.881079 -2.470909 
L 175.157437 -2.470909 
L 174.433796 -2.470909 
L 173.710154 -2.470909 
L 172.986513 -2.470909 
L 172.262871 -2.470909 
L 171.53923 -2.470909 
L 170.815588 -2.470909 
L 170.091947 -2.470909 
L 169.368305 -2.470909 
L 168.644663 -2.470909 
L 167.921022 -2.470909 
L 167.19738 -2.470909 
L 166.473739 -2.470909 
L 165.750097 -2.470909 
L 165.026456 -2.470909 
L 164.302814 -2.470909 
L 163.579173 -2.470909 
L 162.855531 -2.470909 
L 162.13189 -2.470909 
L 161.408248 -2.470909 
L 160.684606 -2.470909 
L 159.960965 -2.470909 
L 159.237323 -2.470909 
L 158.513682 -2.470909 
L 157.79004 -2.470909 
L 157.066399 -2.470909 
L 156.342757 -2.470909 
L 155.619116 -2.470909 
L 154.895474 -2.470909 
L 154.171832 -2.470909 
L 153.448191 -2.470909 
L 152.724549 -2.470909 
L 152.000908 -2.470909 
L 151.277266 -2.470909 
L 150.553625 -2.470909 
L 149.829983 -2.470909 
L 149.106342 -2.470909 
z
" style="stroke: #cf1313; stroke-opacity: 0.2"/>
    </defs>
    <g clip-path="url(#pdb627f0978)">
     <use xlink:href="#mcd2eac5351" x="0" y="54.36" style="fill: #cf1313; fill-opacity: 0.2; stroke: #cf1313; stroke-opacity: 0.2"/>
    </g>
   </g>
   <g id="PolyCollection_2">
    <defs>
     <path id="m95bd7611c6" d="M 352.449617 -2.470909 
L 352.449617 -4.3551 
L 353.173259 -4.450181 
L 353.896901 -4.546903 
L 354.620542 -4.645436 
L 355.344184 -4.746042 
L 356.067825 -4.849067 
L 356.791467 -4.954923 
L 357.515108 -5.064059 
L 358.23875 -5.176923 
L 358.962391 -5.293931 
L 359.686033 -5.415425 
L 360.409674 -5.541645 
L 361.133316 -5.672703 
L 361.856958 -5.808579 
L 362.580599 -5.949121 
L 363.304241 -6.094069 
L 364.027882 -6.243092 
L 364.751524 -6.395837 
L 365.475165 -6.551981 
L 366.198807 -6.711293 
L 366.922448 -6.87369 
L 367.64609 -7.039277 
L 368.369732 -7.208388 
L 369.093373 -7.381589 
L 369.817015 -7.559678 
L 370.540656 -7.743651 
L 371.264298 -7.934655 
L 371.987939 -8.133919 
L 372.711581 -8.342682 
L 373.435222 -8.562105 
L 374.158864 -8.7932 
L 374.882506 -9.036759 
L 375.606147 -9.293306 
L 376.329789 -9.563072 
L 377.05343 -9.845997 
L 377.777072 -10.141749 
L 378.500713 -10.449781 
L 379.224355 -10.76939 
L 379.947996 -11.099795 
L 380.671638 -11.440207 
L 381.395279 -11.789888 
L 382.118921 -12.148201 
L 382.842563 -12.514618 
L 383.566204 -12.888718 
L 384.289846 -13.270142 
L 385.013487 -13.658538 
L 385.737129 -14.053492 
L 386.46077 -14.454448 
L 387.184412 -14.860654 
L 387.908053 -15.271111 
L 388.631695 -15.684569 
L 389.355337 -16.099546 
L 390.078978 -16.514385 
L 390.80262 -16.927351 
L 391.526261 -17.336734 
L 392.249903 -17.740983 
L 392.973544 -18.138823 
L 393.697186 -18.529369 
L 394.420827 -18.912203 
L 395.144469 -19.287428 
L 395.86811 -19.655672 
L 396.591752 -20.018057 
L 397.315394 -20.376141 
L 398.039035 -20.731818 
L 398.762677 -21.08721 
L 399.486318 -21.444551 
L 400.20996 -21.806069 
L 400.933601 -22.173883 
L 401.657243 -22.549915 
L 402.380884 -22.935811 
L 403.104526 -23.33289 
L 403.828168 -23.742102 
L 404.551809 -24.163993 
L 405.275451 -24.598683 
L 405.999092 -25.045853 
L 406.722734 -25.504728 
L 407.446375 -25.974082 
L 408.170017 -26.452251 
L 408.893658 -26.937162 
L 409.6173 -27.426391 
L 410.340942 -27.917245 
L 411.064583 -28.406868 
L 411.788225 -28.892365 
L 412.511866 -29.370949 
L 413.235508 -29.84008 
L 413.959149 -30.297597 
L 414.682791 -30.741833 
L 415.406432 -31.171686 
L 416.130074 -31.586657 
L 416.853715 -31.986835 
L 417.577357 -32.372844 
L 418.300999 -32.745743 
L 419.02464 -33.106904 
L 419.748282 -33.457871 
L 420.471923 -33.800216 
L 421.195565 -34.135405 
L 421.919206 -34.464696 
L 422.642848 -34.78906 
L 423.366489 -35.109144 
L 424.090131 -35.425276 
L 424.813773 -35.737505 
L 425.537414 -36.045658 
L 426.261056 -36.349432 
L 426.984697 -36.648473 
L 427.708339 -36.942456 
L 428.43198 -37.231136 
L 429.155622 -37.514372 
L 429.879263 -37.792111 
L 430.602905 -38.064332 
L 431.326546 -38.330962 
L 432.050188 -38.591759 
L 432.77383 -38.846203 
L 433.497471 -39.093377 
L 434.221113 -39.331891 
L 434.944754 -39.559835 
L 435.668396 -39.774792 
L 436.392037 -39.973895 
L 437.115679 -40.153946 
L 437.83932 -40.311563 
L 438.562962 -40.443363 
L 439.286604 -40.546141 
L 440.010245 -40.617048 
L 440.733887 -40.653733 
L 441.457528 -40.654457 
L 442.18117 -40.618163 
L 442.904811 -40.544508 
L 443.628453 -40.433865 
L 444.352094 -40.2873 
L 445.075736 -40.106532 
L 445.799378 -39.893885 
L 446.523019 -39.652242 
L 447.246661 -39.384983 
L 447.970302 -39.095924 
L 448.693944 -38.789241 
L 449.417585 -38.46937 
L 450.141227 -38.140894 
L 450.864868 -37.808398 
L 451.58851 -37.476318 
L 452.312151 -37.148765 
L 453.035793 -36.829363 
L 453.759435 -36.521089 
L 454.483076 -36.226144 
L 455.206718 -35.945861 
L 455.930359 -35.680649 
L 456.654001 -35.429993 
L 457.377642 -35.192494 
L 458.101284 -34.965957 
L 458.824925 -34.747508 
L 459.548567 -34.533745 
L 460.272209 -34.320909 
L 460.99585 -34.105059 
L 461.719492 -33.882253 
L 462.443133 -33.648724 
L 463.166775 -33.401041 
L 463.890416 -33.136254 
L 464.614058 -32.852005 
L 465.337699 -32.546622 
L 466.061341 -32.219166 
L 466.784982 -31.869443 
L 467.508624 -31.497981 
L 468.232266 -31.105968 
L 468.955907 -30.695152 
L 469.679549 -30.267727 
L 470.40319 -29.826195 
L 471.126832 -29.373224 
L 471.850473 -28.911512 
L 472.574115 -28.443663 
L 473.297756 -27.972086 
L 474.021398 -27.498916 
L 474.74504 -27.025961 
L 475.468681 -26.55467 
L 476.192323 -26.086128 
L 476.915964 -25.621058 
L 477.639606 -25.159844 
L 478.363247 -24.70256 
L 479.086889 -24.24901 
L 479.81053 -23.798774 
L 480.534172 -23.351269 
L 481.257814 -22.905811 
L 481.981455 -22.461694 
L 482.705097 -22.018265 
L 483.428738 -21.575006 
L 484.15238 -21.1316 
L 484.876021 -20.687993 
L 485.599663 -20.244425 
L 486.323304 -19.801442 
L 487.046946 -19.359873 
L 487.770587 -18.920787 
L 488.494229 -18.485421 
L 489.217871 -18.055095 
L 489.941512 -17.631117 
L 490.665154 -17.214691 
L 491.388795 -16.806839 
L 492.112437 -16.40833 
L 492.836078 -16.019644 
L 493.55972 -15.640944 
L 494.283361 -15.272085 
L 495.007003 -14.912631 
L 495.730645 -14.561896 
L 496.454286 -14.218998 
L 497.177928 -13.882917 
L 497.901569 -13.552564 
L 498.625211 -13.226844 
L 499.348852 -12.904727 
L 500.072494 -12.585304 
L 500.796135 -12.26784 
L 501.519777 -11.951817 
L 502.243418 -11.63696 
L 502.96706 -11.323251 
L 503.690702 -11.010923 
L 504.414343 -10.700438 
L 505.137985 -10.392455 
L 505.861626 -10.087774 
L 506.585268 -9.787285 
L 507.308909 -9.4919 
L 508.032551 -9.2025 
L 508.756192 -8.919874 
L 509.479834 -8.644681 
L 510.203476 -8.377422 
L 510.927117 -8.118422 
L 511.650759 -7.867843 
L 512.3744 -7.625698 
L 513.098042 -7.391884 
L 513.821683 -7.166228 
L 514.545325 -6.948531 
L 515.268966 -6.738612 
L 515.992608 -6.536348 
L 516.71625 -6.341709 
L 517.439891 -6.154771 
L 518.163533 -5.975723 
L 518.887174 -5.804852 
L 519.610816 -5.642518 
L 520.334457 -5.489117 
L 521.058099 -5.345027 
L 521.78174 -5.210559 
L 522.505382 -5.085902 
L 523.229023 -4.971074 
L 523.952665 -4.865882 
L 524.676307 -4.7699 
L 525.399948 -4.682461 
L 526.12359 -4.602673 
L 526.847231 -4.52945 
L 527.570873 -4.461565 
L 528.294514 -4.397717 
L 529.018156 -4.336602 
L 529.741797 -4.276991 
L 530.465439 -4.217801 
L 531.189081 -4.158149 
L 531.912722 -4.0974 
L 532.636364 -4.035189 
L 532.636364 -2.470909 
L 532.636364 -2.470909 
L 531.912722 -2.470909 
L 531.189081 -2.470909 
L 530.465439 -2.470909 
L 529.741797 -2.470909 
L 529.018156 -2.470909 
L 528.294514 -2.470909 
L 527.570873 -2.470909 
L 526.847231 -2.470909 
L 526.12359 -2.470909 
L 525.399948 -2.470909 
L 524.676307 -2.470909 
L 523.952665 -2.470909 
L 523.229023 -2.470909 
L 522.505382 -2.470909 
L 521.78174 -2.470909 
L 521.058099 -2.470909 
L 520.334457 -2.470909 
L 519.610816 -2.470909 
L 518.887174 -2.470909 
L 518.163533 -2.470909 
L 517.439891 -2.470909 
L 516.71625 -2.470909 
L 515.992608 -2.470909 
L 515.268966 -2.470909 
L 514.545325 -2.470909 
L 513.821683 -2.470909 
L 513.098042 -2.470909 
L 512.3744 -2.470909 
L 511.650759 -2.470909 
L 510.927117 -2.470909 
L 510.203476 -2.470909 
L 509.479834 -2.470909 
L 508.756192 -2.470909 
L 508.032551 -2.470909 
L 507.308909 -2.470909 
L 506.585268 -2.470909 
L 505.861626 -2.470909 
L 505.137985 -2.470909 
L 504.414343 -2.470909 
L 503.690702 -2.470909 
L 502.96706 -2.470909 
L 502.243418 -2.470909 
L 501.519777 -2.470909 
L 500.796135 -2.470909 
L 500.072494 -2.470909 
L 499.348852 -2.470909 
L 498.625211 -2.470909 
L 497.901569 -2.470909 
L 497.177928 -2.470909 
L 496.454286 -2.470909 
L 495.730645 -2.470909 
L 495.007003 -2.470909 
L 494.283361 -2.470909 
L 493.55972 -2.470909 
L 492.836078 -2.470909 
L 492.112437 -2.470909 
L 491.388795 -2.470909 
L 490.665154 -2.470909 
L 489.941512 -2.470909 
L 489.217871 -2.470909 
L 488.494229 -2.470909 
L 487.770587 -2.470909 
L 487.046946 -2.470909 
L 486.323304 -2.470909 
L 485.599663 -2.470909 
L 484.876021 -2.470909 
L 484.15238 -2.470909 
L 483.428738 -2.470909 
L 482.705097 -2.470909 
L 481.981455 -2.470909 
L 481.257814 -2.470909 
L 480.534172 -2.470909 
L 479.81053 -2.470909 
L 479.086889 -2.470909 
L 478.363247 -2.470909 
L 477.639606 -2.470909 
L 476.915964 -2.470909 
L 476.192323 -2.470909 
L 475.468681 -2.470909 
L 474.74504 -2.470909 
L 474.021398 -2.470909 
L 473.297756 -2.470909 
L 472.574115 -2.470909 
L 471.850473 -2.470909 
L 471.126832 -2.470909 
L 470.40319 -2.470909 
L 469.679549 -2.470909 
L 468.955907 -2.470909 
L 468.232266 -2.470909 
L 467.508624 -2.470909 
L 466.784982 -2.470909 
L 466.061341 -2.470909 
L 465.337699 -2.470909 
L 464.614058 -2.470909 
L 463.890416 -2.470909 
L 463.166775 -2.470909 
L 462.443133 -2.470909 
L 461.719492 -2.470909 
L 460.99585 -2.470909 
L 460.272209 -2.470909 
L 459.548567 -2.470909 
L 458.824925 -2.470909 
L 458.101284 -2.470909 
L 457.377642 -2.470909 
L 456.654001 -2.470909 
L 455.930359 -2.470909 
L 455.206718 -2.470909 
L 454.483076 -2.470909 
L 453.759435 -2.470909 
L 453.035793 -2.470909 
L 452.312151 -2.470909 
L 451.58851 -2.470909 
L 450.864868 -2.470909 
L 450.141227 -2.470909 
L 449.417585 -2.470909 
L 448.693944 -2.470909 
L 447.970302 -2.470909 
L 447.246661 -2.470909 
L 446.523019 -2.470909 
L 445.799378 -2.470909 
L 445.075736 -2.470909 
L 444.352094 -2.470909 
L 443.628453 -2.470909 
L 442.904811 -2.470909 
L 442.18117 -2.470909 
L 441.457528 -2.470909 
L 440.733887 -2.470909 
L 440.010245 -2.470909 
L 439.286604 -2.470909 
L 438.562962 -2.470909 
L 437.83932 -2.470909 
L 437.115679 -2.470909 
L 436.392037 -2.470909 
L 435.668396 -2.470909 
L 434.944754 -2.470909 
L 434.221113 -2.470909 
L 433.497471 -2.470909 
L 432.77383 -2.470909 
L 432.050188 -2.470909 
L 431.326546 -2.470909 
L 430.602905 -2.470909 
L 429.879263 -2.470909 
L 429.155622 -2.470909 
L 428.43198 -2.470909 
L 427.708339 -2.470909 
L 426.984697 -2.470909 
L 426.261056 -2.470909 
L 425.537414 -2.470909 
L 424.813773 -2.470909 
L 424.090131 -2.470909 
L 423.366489 -2.470909 
L 422.642848 -2.470909 
L 421.919206 -2.470909 
L 421.195565 -2.470909 
L 420.471923 -2.470909 
L 419.748282 -2.470909 
L 419.02464 -2.470909 
L 418.300999 -2.470909 
L 417.577357 -2.470909 
L 416.853715 -2.470909 
L 416.130074 -2.470909 
L 415.406432 -2.470909 
L 414.682791 -2.470909 
L 413.959149 -2.470909 
L 413.235508 -2.470909 
L 412.511866 -2.470909 
L 411.788225 -2.470909 
L 411.064583 -2.470909 
L 410.340942 -2.470909 
L 409.6173 -2.470909 
L 408.893658 -2.470909 
L 408.170017 -2.470909 
L 407.446375 -2.470909 
L 406.722734 -2.470909 
L 405.999092 -2.470909 
L 405.275451 -2.470909 
L 404.551809 -2.470909 
L 403.828168 -2.470909 
L 403.104526 -2.470909 
L 402.380884 -2.470909 
L 401.657243 -2.470909 
L 400.933601 -2.470909 
L 400.20996 -2.470909 
L 399.486318 -2.470909 
L 398.762677 -2.470909 
L 398.039035 -2.470909 
L 397.315394 -2.470909 
L 396.591752 -2.470909 
L 395.86811 -2.470909 
L 395.144469 -2.470909 
L 394.420827 -2.470909 
L 393.697186 -2.470909 
L 392.973544 -2.470909 
L 392.249903 -2.470909 
L 391.526261 -2.470909 
L 390.80262 -2.470909 
L 390.078978 -2.470909 
L 389.355337 -2.470909 
L 388.631695 -2.470909 
L 387.908053 -2.470909 
L 387.184412 -2.470909 
L 386.46077 -2.470909 
L 385.737129 -2.470909 
L 385.013487 -2.470909 
L 384.289846 -2.470909 
L 383.566204 -2.470909 
L 382.842563 -2.470909 
L 382.118921 -2.470909 
L 381.395279 -2.470909 
L 380.671638 -2.470909 
L 379.947996 -2.470909 
L 379.224355 -2.470909 
L 378.500713 -2.470909 
L 377.777072 -2.470909 
L 377.05343 -2.470909 
L 376.329789 -2.470909 
L 375.606147 -2.470909 
L 374.882506 -2.470909 
L 374.158864 -2.470909 
L 373.435222 -2.470909 
L 372.711581 -2.470909 
L 371.987939 -2.470909 
L 371.264298 -2.470909 
L 370.540656 -2.470909 
L 369.817015 -2.470909 
L 369.093373 -2.470909 
L 368.369732 -2.470909 
L 367.64609 -2.470909 
L 366.922448 -2.470909 
L 366.198807 -2.470909 
L 365.475165 -2.470909 
L 364.751524 -2.470909 
L 364.027882 -2.470909 
L 363.304241 -2.470909 
L 362.580599 -2.470909 
L 361.856958 -2.470909 
L 361.133316 -2.470909 
L 360.409674 -2.470909 
L 359.686033 -2.470909 
L 358.962391 -2.470909 
L 358.23875 -2.470909 
L 357.515108 -2.470909 
L 356.791467 -2.470909 
L 356.067825 -2.470909 
L 355.344184 -2.470909 
L 354.620542 -2.470909 
L 353.896901 -2.470909 
L 353.173259 -2.470909 
L 352.449617 -2.470909 
z
" style="stroke: #116dc2; stroke-opacity: 0.2"/>
    </defs>
    <g clip-path="url(#pdb627f0978)">
     <use xlink:href="#m95bd7611c6" x="0" y="54.36" style="fill: #116dc2; fill-opacity: 0.2; stroke: #116dc2; stroke-opacity: 0.2"/>
    </g>
   </g>
   <g id="PolyCollection_3">
    <defs>
     <path id="m8769c0abf2" d="M 25.363636 -2.470909 
L 25.363636 -4.804859 
L 26.087278 -5.260455 
L 26.810919 -5.72149 
L 27.534561 -6.192522 
L 28.258203 -6.726857 
L 28.981844 -7.406026 
L 29.705486 -8.296865 
L 30.429127 -9.415321 
L 31.152769 -10.705552 
L 31.87641 -12.047328 
L 32.600052 -13.3264 
L 33.323693 -14.539543 
L 34.047335 -15.822267 
L 34.770977 -17.35269 
L 35.494618 -19.230432 
L 36.21826 -21.444743 
L 36.941901 -23.925913 
L 37.665543 -26.589563 
L 38.389184 -29.328886 
L 39.112826 -31.998816 
L 39.836467 -34.441587 
L 40.560109 -36.548588 
L 41.28375 -38.329544 
L 42.007392 -39.943598 
L 42.731034 -41.619838 
L 43.454675 -43.470699 
L 44.178317 -45.37303 
L 44.901958 -47.087858 
L 45.6256 -48.505707 
L 46.349241 -49.70936 
L 47.072883 -50.771758 
L 47.796524 -51.57146 
L 48.520166 -51.889091 
L 49.243808 -51.66352 
L 49.967449 -51.076018 
L 50.691091 -50.369136 
L 51.414732 -49.639233 
L 52.138374 -48.8331 
L 52.862015 -47.893072 
L 53.585657 -46.829946 
L 54.309298 -45.653014 
L 55.03294 -44.30569 
L 55.756582 -42.714196 
L 56.480223 -40.858497 
L 57.203865 -38.766857 
L 57.927506 -36.486259 
L 58.651148 -34.090833 
L 59.374789 -31.681866 
L 60.098431 -29.345347 
L 60.822072 -27.122859 
L 61.545714 -25.025998 
L 62.269355 -23.05091 
L 62.992997 -21.174281 
L 63.716639 -19.357706 
L 64.44028 -17.567857 
L 65.163922 -15.802049 
L 65.887563 -14.108783 
L 66.611205 -12.573374 
L 67.334846 -11.259069 
L 68.058488 -10.16002 
L 68.782129 -9.215062 
L 69.505771 -8.354789 
L 70.229413 -7.537094 
L 70.953054 -6.761049 
L 71.676696 -6.05519 
L 72.400337 -5.443023 
L 73.123979 -4.918956 
L 73.123979 -2.470909 
L 73.123979 -2.470909 
L 72.400337 -2.470909 
L 71.676696 -2.470909 
L 70.953054 -2.470909 
L 70.229413 -2.470909 
L 69.505771 -2.470909 
L 68.782129 -2.470909 
L 68.058488 -2.470909 
L 67.334846 -2.470909 
L 66.611205 -2.470909 
L 65.887563 -2.470909 
L 65.163922 -2.470909 
L 64.44028 -2.470909 
L 63.716639 -2.470909 
L 62.992997 -2.470909 
L 62.269355 -2.470909 
L 61.545714 -2.470909 
L 60.822072 -2.470909 
L 60.098431 -2.470909 
L 59.374789 -2.470909 
L 58.651148 -2.470909 
L 57.927506 -2.470909 
L 57.203865 -2.470909 
L 56.480223 -2.470909 
L 55.756582 -2.470909 
L 55.03294 -2.470909 
L 54.309298 -2.470909 
L 53.585657 -2.470909 
L 52.862015 -2.470909 
L 52.138374 -2.470909 
L 51.414732 -2.470909 
L 50.691091 -2.470909 
L 49.967449 -2.470909 
L 49.243808 -2.470909 
L 48.520166 -2.470909 
L 47.796524 -2.470909 
L 47.072883 -2.470909 
L 46.349241 -2.470909 
L 45.6256 -2.470909 
L 44.901958 -2.470909 
L 44.178317 -2.470909 
L 43.454675 -2.470909 
L 42.731034 -2.470909 
L 42.007392 -2.470909 
L 41.28375 -2.470909 
L 40.560109 -2.470909 
L 39.836467 -2.470909 
L 39.112826 -2.470909 
L 38.389184 -2.470909 
L 37.665543 -2.470909 
L 36.941901 -2.470909 
L 36.21826 -2.470909 
L 35.494618 -2.470909 
L 34.770977 -2.470909 
L 34.047335 -2.470909 
L 33.323693 -2.470909 
L 32.600052 -2.470909 
L 31.87641 -2.470909 
L 31.152769 -2.470909 
L 30.429127 -2.470909 
L 29.705486 -2.470909 
L 28.981844 -2.470909 
L 28.258203 -2.470909 
L 27.534561 -2.470909 
L 26.810919 -2.470909 
L 26.087278 -2.470909 
L 25.363636 -2.470909 
z
" style="stroke: #8a8a8a; stroke-opacity: 0.2"/>
    </defs>
    <g clip-path="url(#pdb627f0978)">
     <use xlink:href="#m8769c0abf2" x="0" y="54.36" style="fill: #8a8a8a; fill-opacity: 0.2; stroke: #8a8a8a; stroke-opacity: 0.2"/>
    </g>
   </g>
   <g id="line2d_1">
    <path d="M 149.106342 50.615796 
L 152.724549 50.248881 
L 155.619116 49.719619 
L 158.513682 48.973094 
L 162.13189 47.808315 
L 165.750097 46.39946 
L 172.262871 43.764128 
L 177.328362 41.885541 
L 179.499287 40.808474 
L 181.670211 39.456677 
L 183.841136 37.821029 
L 186.735702 35.258581 
L 191.801193 30.540987 
L 193.972118 28.831021 
L 196.143042 27.38592 
L 199.037609 25.747329 
L 204.826741 22.565817 
L 206.997666 21.107724 
L 213.51044 16.383504 
L 214.957723 15.677743 
L 216.405006 15.174911 
L 218.57593 14.674636 
L 221.470497 14.014898 
L 224.365063 13.055832 
L 226.535988 12.403274 
L 227.983271 12.198412 
L 229.430554 12.269462 
L 230.877837 12.633927 
L 232.32512 13.251836 
L 234.496045 14.476986 
L 239.561535 17.477345 
L 244.627026 20.34935 
L 248.245234 22.732493 
L 251.863442 25.379888 
L 255.48165 28.288991 
L 263.441707 34.845208 
L 267.783556 38.034616 
L 272.125405 40.902398 
L 275.019971 42.598661 
L 277.914538 44.045675 
L 280.809104 45.23808 
L 285.874595 47.030371 
L 289.492802 48.149603 
L 293.11101 49.004772 
L 299.623784 50.22017 
L 299.623784 50.22017 
" clip-path="url(#pdb627f0978)" style="fill: none; stroke: #cf1313; stroke-width: 1.5; stroke-linecap: square"/>
   </g>
   <g id="line2d_2">
    <path d="M 352.449617 50.0049 
L 359.686033 48.944575 
L 364.751524 47.964163 
L 370.540656 46.616349 
L 374.158864 45.5668 
L 377.05343 44.514003 
L 380.671638 42.919793 
L 385.013487 40.701462 
L 391.526261 37.023266 
L 395.86811 34.704328 
L 403.828168 30.617898 
L 407.446375 28.385918 
L 416.130074 22.773343 
L 419.02464 21.253096 
L 423.366489 19.250856 
L 428.43198 17.128864 
L 432.77383 15.513797 
L 436.392037 14.386105 
L 438.562962 13.916637 
L 440.733887 13.706267 
L 442.18117 13.741837 
L 444.352094 14.0727 
L 446.523019 14.707758 
L 449.417585 15.89063 
L 455.206718 18.414139 
L 458.101284 19.394043 
L 463.890416 21.223746 
L 466.061341 22.140834 
L 468.232266 23.254032 
L 471.126832 24.986776 
L 486.323304 34.558558 
L 491.388795 37.553161 
L 495.007003 39.447369 
L 499.348852 41.455273 
L 507.308909 44.8681 
L 511.650759 46.492157 
L 515.268966 47.621388 
L 518.887174 48.555148 
L 522.505382 49.274098 
L 526.12359 49.757327 
L 532.636364 50.324811 
L 532.636364 50.324811 
" clip-path="url(#pdb627f0978)" style="fill: none; stroke: #116dc2; stroke-width: 1.5; stroke-linecap: square"/>
   </g>
   <g id="line2d_3">
    <path d="M 25.363636 49.555141 
L 26.087278 49.099545 
L 26.810919 48.63851 
L 27.534561 48.167478 
L 28.258203 47.633143 
L 28.981844 46.953974 
L 29.705486 46.063135 
L 30.429127 44.944679 
L 31.152769 43.654448 
L 31.87641 42.312672 
L 32.600052 41.0336 
L 33.323693 39.820457 
L 34.047335 38.537733 
L 34.770977 37.00731 
L 35.494618 35.129568 
L 36.21826 32.915257 
L 36.941901 30.434087 
L 37.665543 27.770437 
L 38.389184 25.031114 
L 39.112826 22.361184 
L 39.836467 19.918413 
L 40.560109 17.811412 
L 41.28375 16.030456 
L 42.007392 14.416402 
L 42.731034 12.740162 
L 43.454675 10.889301 
L 44.178317 8.98697 
L 44.901958 7.272142 
L 45.6256 5.854293 
L 46.349241 4.65064 
L 47.072883 3.588242 
L 47.796524 2.78854 
L 48.520166 2.470909 
L 49.243808 2.69648 
L 49.967449 3.283982 
L 50.691091 3.990864 
L 51.414732 4.720767 
L 52.138374 5.5269 
L 52.862015 6.466928 
L 53.585657 7.530054 
L 54.309298 8.706986 
L 55.03294 10.05431 
L 55.756582 11.645804 
L 56.480223 13.501503 
L 57.203865 15.593143 
L 57.927506 17.873741 
L 58.651148 20.269167 
L 59.374789 22.678134 
L 60.098431 25.014653 
L 60.822072 27.237141 
L 61.545714 29.334002 
L 62.269355 31.30909 
L 62.992997 33.185719 
L 63.716639 35.002294 
L 64.44028 36.792143 
L 65.163922 38.557951 
L 65.887563 40.251217 
L 66.611205 41.786626 
L 67.334846 43.100931 
L 68.058488 44.19998 
L 68.782129 45.144938 
L 69.505771 46.005211 
L 70.229413 46.822906 
L 70.953054 47.598951 
L 71.676696 48.30481 
L 72.400337 48.916977 
L 73.123979 49.441044 
" clip-path="url(#pdb627f0978)" style="fill: none; stroke: #8a8a8a; stroke-width: 1.5; stroke-linecap: square"/>
   </g>
  </g>
 </g>
 <defs>
  <clipPath id="pdb627f0978">
   <rect x="0" y="-0" width="558" height="54.36"/>
  </clipPath>
 </defs>
</svg>
