<?xml version="1.0" encoding="utf-8" standalone="no"?>
<!DOCTYPE svg PUBLIC "-//W3C//DTD SVG 1.1//EN"
  "http://www.w3.org/Graphics/SVG/1.1/DTD/svg11.dtd">
<svg xmlns:xlink="http://www.w3.org/1999/xlink" width="558pt" height="54.36pt" viewBox="0 0 558 54.36" xmlns="http://www.w3.org/2000/svg" version="1.1">
 <metadata>
  <rdf:RDF xmlns:dc="http://purl.org/dc/elements/1.1/" xmlns:cc="http://creativecommons.org/ns#" xmlns:rdf="http://www.w3.org/1999/02/22-rdf-syntax-ns#">
   <cc:Work>
    <dc:type rdf:resource="http://purl.org/dc/dcmitype/StillImage"/>
    <dc:date>2024-09-14T12:47:55.512990</dc:date>
    <dc:format>image/svg+xml</dc:format>
    <dc:creator>
     <cc:Agent>
      <dc:title>Matplotlib v3.5.2, https://matplotlib.org/</dc:title>
     </cc:Agent>
    </dc:creator>
   </cc:Work>
  </rdf:RDF>
 </metadata>
 <defs>
  <style type="text/css">*{stroke-linejoin: round; stroke-linecap: butt}</style>
 </defs>
 <g id="figure_1">
  <g id="patch_1">
   <path d="M 0 54.36 
L 558 54.36 
L 558 0 
L 0 0 
L 0 54.36 
z
" style="fill: none; opacity: 0"/>
  </g>
  <g id="axes_1">
   <g id="PolyCollection_1">
    <defs>
     <path id="mf347b4a095" d="M 150.919048 -2.470909 
L 150.919048 -3.986828 
L 151.640631 -4.090439 
L 152.362214 -4.201524 
L 153.083797 -4.320577 
L 153.80538 -4.447999 
L 154.526962 -4.584073 
L 155.248545 -4.728967 
L 155.970128 -4.882736 
L 156.691711 -5.045331 
L 157.413294 -5.216597 
L 158.134877 -5.396272 
L 158.856459 -5.583963 
L 159.578042 -5.779134 
L 160.299625 -5.981079 
L 161.021208 -6.188925 
L 161.742791 -6.401643 
L 162.464373 -6.6181 
L 163.185956 -6.837137 
L 163.907539 -7.057676 
L 164.629122 -7.278843 
L 165.350705 -7.500093 
L 166.072288 -7.721317 
L 166.79387 -7.942919 
L 167.515453 -8.16585 
L 168.237036 -8.39159 
L 168.958619 -8.622078 
L 169.680202 -8.859616 
L 170.401785 -9.106726 
L 171.123367 -9.366009 
L 171.84495 -9.640002 
L 172.566533 -9.931044 
L 173.288116 -10.241174 
L 174.009699 -10.572047 
L 174.731282 -10.924884 
L 175.452864 -11.30045 
L 176.174447 -11.699052 
L 176.89603 -12.120564 
L 177.617613 -12.564471 
L 178.339196 -13.029931 
L 179.060778 -13.515838 
L 179.782361 -14.020894 
L 180.503944 -14.543664 
L 181.225527 -15.082615 
L 181.94711 -15.636124 
L 182.668693 -16.202457 
L 183.390275 -16.779723 
L 184.111858 -17.365825 
L 184.833441 -17.958417 
L 185.555024 -18.554897 
L 186.276607 -19.152448 
L 186.99819 -19.748149 
L 187.719772 -20.339127 
L 188.441355 -20.922759 
L 189.162938 -21.496869 
L 189.884521 -22.059902 
L 190.606104 -22.611028 
L 191.327687 -23.150157 
L 192.049269 -23.677863 
L 192.770852 -24.195212 
L 193.492435 -24.703523 
L 194.214018 -25.204111 
L 194.935601 -25.698035 
L 195.657183 -26.185902 
L 196.378766 -26.667756 
L 197.100349 -27.143071 
L 197.821932 -27.610854 
L 198.543515 -28.069846 
L 199.265098 -28.518804 
L 199.98668 -28.956831 
L 200.708263 -29.383702 
L 201.429846 -29.800147 
L 202.151429 -30.208045 
L 202.873012 -30.610471 
L 203.594595 -31.011593 
L 204.316177 -31.416387 
L 205.03776 -31.830207 
L 205.759343 -32.258234 
L 206.480926 -32.704881 
L 207.202509 -33.173217 
L 207.924092 -33.664493 
L 208.645674 -34.177843 
L 209.367257 -34.710193 
L 210.08884 -35.256414 
L 210.810423 -35.809704 
L 211.532006 -36.362142 
L 212.253589 -36.905378 
L 212.975171 -37.431343 
L 213.696754 -37.93291 
L 214.418337 -38.404422 
L 215.13992 -38.842019 
L 215.861503 -39.24374 
L 216.583085 -39.609404 
L 217.304668 -39.940293 
L 218.026251 -40.238714 
L 218.747834 -40.507501 
L 219.469417 -40.749537 
L 220.191 -40.967366 
L 220.912582 -41.16291 
L 221.634165 -41.337335 
L 222.355748 -41.491022 
L 223.077331 -41.623633 
L 223.798914 -41.734238 
L 224.520497 -41.821442 
L 225.242079 -41.883522 
L 225.963662 -41.918532 
L 226.685245 -41.924384 
L 227.406828 -41.898914 
L 228.128411 -41.839939 
L 228.849994 -41.745322 
L 229.571576 -41.61305 
L 230.293159 -41.441343 
L 231.014742 -41.228788 
L 231.736325 -40.974511 
L 232.457908 -40.678363 
L 233.17949 -40.341128 
L 233.901073 -39.964714 
L 234.622656 -39.552301 
L 235.344239 -39.108418 
L 236.065822 -38.638902 
L 236.787405 -38.150725 
L 237.508987 -37.651658 
L 238.23057 -37.149803 
L 238.952153 -36.653007 
L 239.673736 -36.168221 
L 240.395319 -35.700874 
L 241.116902 -35.254353 
L 241.838484 -34.829646 
L 242.560067 -34.425221 
L 243.28165 -34.037168 
L 244.003233 -33.659588 
L 244.724816 -33.285197 
L 245.446399 -32.906072 
L 246.167981 -32.514447 
L 246.889564 -32.103457 
L 247.611147 -31.667762 
L 248.33273 -31.203958 
L 249.054313 -30.710765 
L 249.775896 -30.188975 
L 250.497478 -29.641185 
L 251.219061 -29.071388 
L 251.940644 -28.484464 
L 252.662227 -27.885675 
L 253.38381 -27.280197 
L 254.105392 -26.672765 
L 254.826975 -26.067425 
L 255.548558 -25.467424 
L 256.270141 -24.87519 
L 256.991724 -24.292377 
L 257.713307 -23.719945 
L 258.434889 -23.158234 
L 259.156472 -22.607027 
L 259.878055 -22.065595 
L 260.599638 -21.532752 
L 261.321221 -21.006936 
L 262.042804 -20.486332 
L 262.764386 -19.969057 
L 263.485969 -19.453394 
L 264.207552 -18.938046 
L 264.929135 -18.422367 
L 265.650718 -17.906546 
L 266.372301 -17.391674 
L 267.093883 -16.879703 
L 267.815466 -16.373277 
L 268.537049 -15.875456 
L 269.258632 -15.389389 
L 269.980215 -14.917963 
L 270.701797 -14.463494 
L 271.42338 -14.027501 
L 272.144963 -13.610584 
L 272.866546 -13.212417 
L 273.588129 -12.831856 
L 274.309712 -12.467124 
L 275.031294 -12.116055 
L 275.752877 -11.776353 
L 276.47446 -11.445839 
L 277.196043 -11.122659 
L 277.917626 -10.805432 
L 278.639209 -10.49333 
L 279.360791 -10.186102 
L 280.082374 -9.88402 
L 280.803957 -9.587789 
L 281.52554 -9.298408 
L 282.247123 -9.017009 
L 282.968706 -8.74468 
L 283.690288 -8.482298 
L 284.411871 -8.230379 
L 285.133454 -7.988967 
L 285.855037 -7.757577 
L 286.57662 -7.535214 
L 287.298203 -7.320456 
L 288.019785 -7.11161 
L 288.741368 -6.906916 
L 289.462951 -6.704783 
L 290.184534 -6.504009 
L 290.906117 -6.303957 
L 291.627699 -6.104667 
L 292.349282 -5.90686 
L 293.070865 -5.71186 
L 293.792448 -5.521415 
L 294.514031 -5.337468 
L 295.235614 -5.161897 
L 295.957196 -4.99627 
L 296.678779 -4.841648 
L 297.400362 -4.698471 
L 298.121945 -4.56653 
L 298.843528 -4.445032 
L 299.565111 -4.332743 
L 300.286693 -4.228181 
L 301.008276 -4.129824 
L 301.729859 -4.036306 
L 302.451442 -3.94657 
L 302.451442 -2.470909 
L 302.451442 -2.470909 
L 301.729859 -2.470909 
L 301.008276 -2.470909 
L 300.286693 -2.470909 
L 299.565111 -2.470909 
L 298.843528 -2.470909 
L 298.121945 -2.470909 
L 297.400362 -2.470909 
L 296.678779 -2.470909 
L 295.957196 -2.470909 
L 295.235614 -2.470909 
L 294.514031 -2.470909 
L 293.792448 -2.470909 
L 293.070865 -2.470909 
L 292.349282 -2.470909 
L 291.627699 -2.470909 
L 290.906117 -2.470909 
L 290.184534 -2.470909 
L 289.462951 -2.470909 
L 288.741368 -2.470909 
L 288.019785 -2.470909 
L 287.298203 -2.470909 
L 286.57662 -2.470909 
L 285.855037 -2.470909 
L 285.133454 -2.470909 
L 284.411871 -2.470909 
L 283.690288 -2.470909 
L 282.968706 -2.470909 
L 282.247123 -2.470909 
L 281.52554 -2.470909 
L 280.803957 -2.470909 
L 280.082374 -2.470909 
L 279.360791 -2.470909 
L 278.639209 -2.470909 
L 277.917626 -2.470909 
L 277.196043 -2.470909 
L 276.47446 -2.470909 
L 275.752877 -2.470909 
L 275.031294 -2.470909 
L 274.309712 -2.470909 
L 273.588129 -2.470909 
L 272.866546 -2.470909 
L 272.144963 -2.470909 
L 271.42338 -2.470909 
L 270.701797 -2.470909 
L 269.980215 -2.470909 
L 269.258632 -2.470909 
L 268.537049 -2.470909 
L 267.815466 -2.470909 
L 267.093883 -2.470909 
L 266.372301 -2.470909 
L 265.650718 -2.470909 
L 264.929135 -2.470909 
L 264.207552 -2.470909 
L 263.485969 -2.470909 
L 262.764386 -2.470909 
L 262.042804 -2.470909 
L 261.321221 -2.470909 
L 260.599638 -2.470909 
L 259.878055 -2.470909 
L 259.156472 -2.470909 
L 258.434889 -2.470909 
L 257.713307 -2.470909 
L 256.991724 -2.470909 
L 256.270141 -2.470909 
L 255.548558 -2.470909 
L 254.826975 -2.470909 
L 254.105392 -2.470909 
L 253.38381 -2.470909 
L 252.662227 -2.470909 
L 251.940644 -2.470909 
L 251.219061 -2.470909 
L 250.497478 -2.470909 
L 249.775896 -2.470909 
L 249.054313 -2.470909 
L 248.33273 -2.470909 
L 247.611147 -2.470909 
L 246.889564 -2.470909 
L 246.167981 -2.470909 
L 245.446399 -2.470909 
L 244.724816 -2.470909 
L 244.003233 -2.470909 
L 243.28165 -2.470909 
L 242.560067 -2.470909 
L 241.838484 -2.470909 
L 241.116902 -2.470909 
L 240.395319 -2.470909 
L 239.673736 -2.470909 
L 238.952153 -2.470909 
L 238.23057 -2.470909 
L 237.508987 -2.470909 
L 236.787405 -2.470909 
L 236.065822 -2.470909 
L 235.344239 -2.470909 
L 234.622656 -2.470909 
L 233.901073 -2.470909 
L 233.17949 -2.470909 
L 232.457908 -2.470909 
L 231.736325 -2.470909 
L 231.014742 -2.470909 
L 230.293159 -2.470909 
L 229.571576 -2.470909 
L 228.849994 -2.470909 
L 228.128411 -2.470909 
L 227.406828 -2.470909 
L 226.685245 -2.470909 
L 225.963662 -2.470909 
L 225.242079 -2.470909 
L 224.520497 -2.470909 
L 223.798914 -2.470909 
L 223.077331 -2.470909 
L 222.355748 -2.470909 
L 221.634165 -2.470909 
L 220.912582 -2.470909 
L 220.191 -2.470909 
L 219.469417 -2.470909 
L 218.747834 -2.470909 
L 218.026251 -2.470909 
L 217.304668 -2.470909 
L 216.583085 -2.470909 
L 215.861503 -2.470909 
L 215.13992 -2.470909 
L 214.418337 -2.470909 
L 213.696754 -2.470909 
L 212.975171 -2.470909 
L 212.253589 -2.470909 
L 211.532006 -2.470909 
L 210.810423 -2.470909 
L 210.08884 -2.470909 
L 209.367257 -2.470909 
L 208.645674 -2.470909 
L 207.924092 -2.470909 
L 207.202509 -2.470909 
L 206.480926 -2.470909 
L 205.759343 -2.470909 
L 205.03776 -2.470909 
L 204.316177 -2.470909 
L 203.594595 -2.470909 
L 202.873012 -2.470909 
L 202.151429 -2.470909 
L 201.429846 -2.470909 
L 200.708263 -2.470909 
L 199.98668 -2.470909 
L 199.265098 -2.470909 
L 198.543515 -2.470909 
L 197.821932 -2.470909 
L 197.100349 -2.470909 
L 196.378766 -2.470909 
L 195.657183 -2.470909 
L 194.935601 -2.470909 
L 194.214018 -2.470909 
L 193.492435 -2.470909 
L 192.770852 -2.470909 
L 192.049269 -2.470909 
L 191.327687 -2.470909 
L 190.606104 -2.470909 
L 189.884521 -2.470909 
L 189.162938 -2.470909 
L 188.441355 -2.470909 
L 187.719772 -2.470909 
L 186.99819 -2.470909 
L 186.276607 -2.470909 
L 185.555024 -2.470909 
L 184.833441 -2.470909 
L 184.111858 -2.470909 
L 183.390275 -2.470909 
L 182.668693 -2.470909 
L 181.94711 -2.470909 
L 181.225527 -2.470909 
L 180.503944 -2.470909 
L 179.782361 -2.470909 
L 179.060778 -2.470909 
L 178.339196 -2.470909 
L 177.617613 -2.470909 
L 176.89603 -2.470909 
L 176.174447 -2.470909 
L 175.452864 -2.470909 
L 174.731282 -2.470909 
L 174.009699 -2.470909 
L 173.288116 -2.470909 
L 172.566533 -2.470909 
L 171.84495 -2.470909 
L 171.123367 -2.470909 
L 170.401785 -2.470909 
L 169.680202 -2.470909 
L 168.958619 -2.470909 
L 168.237036 -2.470909 
L 167.515453 -2.470909 
L 166.79387 -2.470909 
L 166.072288 -2.470909 
L 165.350705 -2.470909 
L 164.629122 -2.470909 
L 163.907539 -2.470909 
L 163.185956 -2.470909 
L 162.464373 -2.470909 
L 161.742791 -2.470909 
L 161.021208 -2.470909 
L 160.299625 -2.470909 
L 159.578042 -2.470909 
L 158.856459 -2.470909 
L 158.134877 -2.470909 
L 157.413294 -2.470909 
L 156.691711 -2.470909 
L 155.970128 -2.470909 
L 155.248545 -2.470909 
L 154.526962 -2.470909 
L 153.80538 -2.470909 
L 153.083797 -2.470909 
L 152.362214 -2.470909 
L 151.640631 -2.470909 
L 150.919048 -2.470909 
z
" style="stroke: #cf1313; stroke-opacity: 0.2"/>
    </defs>
    <g clip-path="url(#p639e294cbf)">
     <use xlink:href="#mf347b4a095" x="0" y="54.36" style="fill: #cf1313; fill-opacity: 0.2; stroke: #cf1313; stroke-opacity: 0.2"/>
    </g>
   </g>
   <g id="PolyCollection_2">
    <defs>
     <path id="mbc1822af3f" d="M 349.354326 -2.470909 
L 349.354326 -4.018268 
L 350.075908 -4.121282 
L 350.797491 -4.229698 
L 351.519074 -4.342924 
L 352.240657 -4.460353 
L 352.96224 -4.581383 
L 353.683823 -4.705433 
L 354.405405 -4.831952 
L 355.126988 -4.960434 
L 355.848571 -5.090427 
L 356.570154 -5.221547 
L 357.291737 -5.353493 
L 358.01332 -5.486073 
L 358.734902 -5.619218 
L 359.456485 -5.753009 
L 360.178068 -5.887692 
L 360.899651 -6.023686 
L 361.621234 -6.161579 
L 362.342817 -6.302119 
L 363.064399 -6.44618 
L 363.785982 -6.594724 
L 364.507565 -6.748746 
L 365.229148 -6.909214 
L 365.950731 -7.077007 
L 366.672313 -7.252848 
L 367.393896 -7.437247 
L 368.115479 -7.630452 
L 368.837062 -7.832418 
L 369.558645 -8.042788 
L 370.280228 -8.260901 
L 371.00181 -8.485811 
L 371.723393 -8.716342 
L 372.444976 -8.951149 
L 373.166559 -9.18881 
L 373.888142 -9.427919 
L 374.609725 -9.667198 
L 375.331307 -9.905604 
L 376.05289 -10.142438 
L 376.774473 -10.377429 
L 377.496056 -10.610809 
L 378.217639 -10.843355 
L 378.939222 -11.076394 
L 379.660804 -11.311783 
L 380.382387 -11.551837 
L 381.10397 -11.799232 
L 381.825553 -12.05688 
L 382.547136 -12.327769 
L 383.268718 -12.614802 
L 383.990301 -12.920625 
L 384.711884 -13.247466 
L 385.433467 -13.596989 
L 386.15505 -13.970178 
L 386.876633 -14.367249 
L 387.598215 -14.787602 
L 388.319798 -15.229821 
L 389.041381 -15.691695 
L 389.762964 -16.170299 
L 390.484547 -16.662094 
L 391.20613 -17.163063 
L 391.927712 -17.668871 
L 392.649295 -18.175043 
L 393.370878 -18.677151 
L 394.092461 -19.171012 
L 394.814044 -19.652876 
L 395.535627 -20.119607 
L 396.257209 -20.56884 
L 396.978792 -20.999107 
L 397.700375 -21.409926 
L 398.421958 -21.801833 
L 399.143541 -22.176363 
L 399.865123 -22.535977 
L 400.586706 -22.883917 
L 401.308289 -23.224026 
L 402.029872 -23.560516 
L 402.751455 -23.897712 
L 403.473038 -24.239796 
L 404.19462 -24.590556 
L 404.916203 -24.953178 
L 405.637786 -25.330081 
L 406.359369 -25.722821 
L 407.080952 -26.132063 
L 407.802535 -26.557627 
L 408.524117 -26.99859 
L 409.2457 -27.453442 
L 409.967283 -27.920272 
L 410.688866 -28.396961 
L 411.410449 -28.881366 
L 412.132032 -29.37147 
L 412.853614 -29.865491 
L 413.575197 -30.361933 
L 414.29678 -30.859588 
L 415.018363 -31.357485 
L 415.739946 -31.854797 
L 416.461529 -32.350733 
L 417.183111 -32.844411 
L 417.904694 -33.334752 
L 418.626277 -33.820391 
L 419.34786 -34.299624 
L 420.069443 -34.7704 
L 420.791025 -35.23035 
L 421.512608 -35.676866 
L 422.234191 -36.107204 
L 422.955774 -36.518612 
L 423.677357 -36.908473 
L 424.39894 -37.27444 
L 425.120522 -37.614561 
L 425.842105 -37.927381 
L 426.563688 -38.212003 
L 427.285271 -38.468127 
L 428.006854 -38.696033 
L 428.728437 -38.896545 
L 429.450019 -39.070961 
L 430.171602 -39.22096 
L 430.893185 -39.348505 
L 431.614768 -39.455752 
L 432.336351 -39.544959 
L 433.057934 -39.618424 
L 433.779516 -39.678437 
L 434.501099 -39.727255 
L 435.222682 -39.767081 
L 435.944265 -39.800057 
L 436.665848 -39.828244 
L 437.38743 -39.853593 
L 438.109013 -39.877883 
L 438.830596 -39.90265 
L 439.552179 -39.929077 
L 440.273762 -39.957887 
L 440.995345 -39.98923 
L 441.716927 -40.022584 
L 442.43851 -40.056699 
L 443.160093 -40.089589 
L 443.881676 -40.118578 
L 444.603259 -40.140424 
L 445.324842 -40.151488 
L 446.046424 -40.147967 
L 446.768007 -40.126151 
L 447.48959 -40.082683 
L 448.211173 -40.014816 
L 448.932756 -39.920615 
L 449.654339 -39.79911 
L 450.375921 -39.650365 
L 451.097504 -39.475472 
L 451.819087 -39.27646 
L 452.54067 -39.056134 
L 453.262253 -38.817853 
L 453.983836 -38.565266 
L 454.705418 -38.30203 
L 455.427001 -38.031527 
L 456.148584 -37.756612 
L 456.870167 -37.479389 
L 457.59175 -37.201059 
L 458.313332 -36.921827 
L 459.034915 -36.640891 
L 459.756498 -36.356503 
L 460.478081 -36.066103 
L 461.199664 -35.766524 
L 461.921247 -35.454237 
L 462.642829 -35.125637 
L 463.364412 -34.777341 
L 464.085995 -34.406475 
L 464.807578 -34.010929 
L 465.529161 -33.58957 
L 466.250744 -33.142374 
L 466.972326 -32.670488 
L 467.693909 -32.176199 
L 468.415492 -31.662813 
L 469.137075 -31.134465 
L 469.858658 -30.595848 
L 470.580241 -30.051912 
L 471.301823 -29.507538 
L 472.023406 -28.967225 
L 472.744989 -28.434816 
L 473.466572 -27.913286 
L 474.188155 -27.404608 
L 474.909737 -26.909712 
L 475.63132 -26.428529 
L 476.352903 -25.960116 
L 477.074486 -25.502845 
L 477.796069 -25.054628 
L 478.517652 -24.613162 
L 479.239234 -24.176162 
L 479.960817 -23.74157 
L 480.6824 -23.307707 
L 481.403983 -22.873389 
L 482.125566 -22.437966 
L 482.847149 -22.001317 
L 483.568731 -21.563802 
L 484.290314 -21.126161 
L 485.011897 -20.689406 
L 485.73348 -20.254693 
L 486.455063 -19.823197 
L 487.176646 -19.395998 
L 487.898228 -18.973996 
L 488.619811 -18.55784 
L 489.341394 -18.147907 
L 490.062977 -17.744296 
L 490.78456 -17.346861 
L 491.506143 -16.955269 
L 492.227725 -16.569067 
L 492.949308 -16.187768 
L 493.670891 -15.810923 
L 494.392474 -15.438186 
L 495.114057 -15.06937 
L 495.835639 -14.704459 
L 496.557222 -14.343617 
L 497.278805 -13.987155 
L 498.000388 -13.635493 
L 498.721971 -13.289095 
L 499.443554 -12.948417 
L 500.165136 -12.613845 
L 500.886719 -12.285654 
L 501.608302 -11.963985 
L 502.329885 -11.648838 
L 503.051468 -11.340091 
L 503.773051 -11.037539 
L 504.494633 -10.740943 
L 505.216216 -10.450087 
L 505.937799 -10.164835 
L 506.659382 -9.885175 
L 507.380965 -9.611257 
L 508.102548 -9.343402 
L 508.82413 -9.082096 
L 509.545713 -8.827959 
L 510.267296 -8.581705 
L 510.988879 -8.344078 
L 511.710462 -8.115785 
L 512.432044 -7.897433 
L 513.153627 -7.689464 
L 513.87521 -7.492109 
L 514.596793 -7.305345 
L 515.318376 -7.128888 
L 516.039959 -6.96219 
L 516.761541 -6.804462 
L 517.483124 -6.654711 
L 518.204707 -6.511795 
L 518.92629 -6.374481 
L 519.647873 -6.241512 
L 520.369456 -6.111674 
L 521.091038 -5.983857 
L 521.812621 -5.85711 
L 522.534204 -5.730682 
L 523.255787 -5.604053 
L 523.97737 -5.476944 
L 524.698953 -5.349321 
L 525.420535 -5.221371 
L 526.142118 -5.093477 
L 526.863701 -4.966174 
L 527.585284 -4.840104 
L 528.306867 -4.715961 
L 529.02845 -4.594443 
L 529.750032 -4.476204 
L 530.471615 -4.361817 
L 531.193198 -4.251747 
L 531.914781 -4.146336 
L 532.636364 -4.045805 
L 532.636364 -2.470909 
L 532.636364 -2.470909 
L 531.914781 -2.470909 
L 531.193198 -2.470909 
L 530.471615 -2.470909 
L 529.750032 -2.470909 
L 529.02845 -2.470909 
L 528.306867 -2.470909 
L 527.585284 -2.470909 
L 526.863701 -2.470909 
L 526.142118 -2.470909 
L 525.420535 -2.470909 
L 524.698953 -2.470909 
L 523.97737 -2.470909 
L 523.255787 -2.470909 
L 522.534204 -2.470909 
L 521.812621 -2.470909 
L 521.091038 -2.470909 
L 520.369456 -2.470909 
L 519.647873 -2.470909 
L 518.92629 -2.470909 
L 518.204707 -2.470909 
L 517.483124 -2.470909 
L 516.761541 -2.470909 
L 516.039959 -2.470909 
L 515.318376 -2.470909 
L 514.596793 -2.470909 
L 513.87521 -2.470909 
L 513.153627 -2.470909 
L 512.432044 -2.470909 
L 511.710462 -2.470909 
L 510.988879 -2.470909 
L 510.267296 -2.470909 
L 509.545713 -2.470909 
L 508.82413 -2.470909 
L 508.102548 -2.470909 
L 507.380965 -2.470909 
L 506.659382 -2.470909 
L 505.937799 -2.470909 
L 505.216216 -2.470909 
L 504.494633 -2.470909 
L 503.773051 -2.470909 
L 503.051468 -2.470909 
L 502.329885 -2.470909 
L 501.608302 -2.470909 
L 500.886719 -2.470909 
L 500.165136 -2.470909 
L 499.443554 -2.470909 
L 498.721971 -2.470909 
L 498.000388 -2.470909 
L 497.278805 -2.470909 
L 496.557222 -2.470909 
L 495.835639 -2.470909 
L 495.114057 -2.470909 
L 494.392474 -2.470909 
L 493.670891 -2.470909 
L 492.949308 -2.470909 
L 492.227725 -2.470909 
L 491.506143 -2.470909 
L 490.78456 -2.470909 
L 490.062977 -2.470909 
L 489.341394 -2.470909 
L 488.619811 -2.470909 
L 487.898228 -2.470909 
L 487.176646 -2.470909 
L 486.455063 -2.470909 
L 485.73348 -2.470909 
L 485.011897 -2.470909 
L 484.290314 -2.470909 
L 483.568731 -2.470909 
L 482.847149 -2.470909 
L 482.125566 -2.470909 
L 481.403983 -2.470909 
L 480.6824 -2.470909 
L 479.960817 -2.470909 
L 479.239234 -2.470909 
L 478.517652 -2.470909 
L 477.796069 -2.470909 
L 477.074486 -2.470909 
L 476.352903 -2.470909 
L 475.63132 -2.470909 
L 474.909737 -2.470909 
L 474.188155 -2.470909 
L 473.466572 -2.470909 
L 472.744989 -2.470909 
L 472.023406 -2.470909 
L 471.301823 -2.470909 
L 470.580241 -2.470909 
L 469.858658 -2.470909 
L 469.137075 -2.470909 
L 468.415492 -2.470909 
L 467.693909 -2.470909 
L 466.972326 -2.470909 
L 466.250744 -2.470909 
L 465.529161 -2.470909 
L 464.807578 -2.470909 
L 464.085995 -2.470909 
L 463.364412 -2.470909 
L 462.642829 -2.470909 
L 461.921247 -2.470909 
L 461.199664 -2.470909 
L 460.478081 -2.470909 
L 459.756498 -2.470909 
L 459.034915 -2.470909 
L 458.313332 -2.470909 
L 457.59175 -2.470909 
L 456.870167 -2.470909 
L 456.148584 -2.470909 
L 455.427001 -2.470909 
L 454.705418 -2.470909 
L 453.983836 -2.470909 
L 453.262253 -2.470909 
L 452.54067 -2.470909 
L 451.819087 -2.470909 
L 451.097504 -2.470909 
L 450.375921 -2.470909 
L 449.654339 -2.470909 
L 448.932756 -2.470909 
L 448.211173 -2.470909 
L 447.48959 -2.470909 
L 446.768007 -2.470909 
L 446.046424 -2.470909 
L 445.324842 -2.470909 
L 444.603259 -2.470909 
L 443.881676 -2.470909 
L 443.160093 -2.470909 
L 442.43851 -2.470909 
L 441.716927 -2.470909 
L 440.995345 -2.470909 
L 440.273762 -2.470909 
L 439.552179 -2.470909 
L 438.830596 -2.470909 
L 438.109013 -2.470909 
L 437.38743 -2.470909 
L 436.665848 -2.470909 
L 435.944265 -2.470909 
L 435.222682 -2.470909 
L 434.501099 -2.470909 
L 433.779516 -2.470909 
L 433.057934 -2.470909 
L 432.336351 -2.470909 
L 431.614768 -2.470909 
L 430.893185 -2.470909 
L 430.171602 -2.470909 
L 429.450019 -2.470909 
L 428.728437 -2.470909 
L 428.006854 -2.470909 
L 427.285271 -2.470909 
L 426.563688 -2.470909 
L 425.842105 -2.470909 
L 425.120522 -2.470909 
L 424.39894 -2.470909 
L 423.677357 -2.470909 
L 422.955774 -2.470909 
L 422.234191 -2.470909 
L 421.512608 -2.470909 
L 420.791025 -2.470909 
L 420.069443 -2.470909 
L 419.34786 -2.470909 
L 418.626277 -2.470909 
L 417.904694 -2.470909 
L 417.183111 -2.470909 
L 416.461529 -2.470909 
L 415.739946 -2.470909 
L 415.018363 -2.470909 
L 414.29678 -2.470909 
L 413.575197 -2.470909 
L 412.853614 -2.470909 
L 412.132032 -2.470909 
L 411.410449 -2.470909 
L 410.688866 -2.470909 
L 409.967283 -2.470909 
L 409.2457 -2.470909 
L 408.524117 -2.470909 
L 407.802535 -2.470909 
L 407.080952 -2.470909 
L 406.359369 -2.470909 
L 405.637786 -2.470909 
L 404.916203 -2.470909 
L 404.19462 -2.470909 
L 403.473038 -2.470909 
L 402.751455 -2.470909 
L 402.029872 -2.470909 
L 401.308289 -2.470909 
L 400.586706 -2.470909 
L 399.865123 -2.470909 
L 399.143541 -2.470909 
L 398.421958 -2.470909 
L 397.700375 -2.470909 
L 396.978792 -2.470909 
L 396.257209 -2.470909 
L 395.535627 -2.470909 
L 394.814044 -2.470909 
L 394.092461 -2.470909 
L 393.370878 -2.470909 
L 392.649295 -2.470909 
L 391.927712 -2.470909 
L 391.20613 -2.470909 
L 390.484547 -2.470909 
L 389.762964 -2.470909 
L 389.041381 -2.470909 
L 388.319798 -2.470909 
L 387.598215 -2.470909 
L 386.876633 -2.470909 
L 386.15505 -2.470909 
L 385.433467 -2.470909 
L 384.711884 -2.470909 
L 383.990301 -2.470909 
L 383.268718 -2.470909 
L 382.547136 -2.470909 
L 381.825553 -2.470909 
L 381.10397 -2.470909 
L 380.382387 -2.470909 
L 379.660804 -2.470909 
L 378.939222 -2.470909 
L 378.217639 -2.470909 
L 377.496056 -2.470909 
L 376.774473 -2.470909 
L 376.05289 -2.470909 
L 375.331307 -2.470909 
L 374.609725 -2.470909 
L 373.888142 -2.470909 
L 373.166559 -2.470909 
L 372.444976 -2.470909 
L 371.723393 -2.470909 
L 371.00181 -2.470909 
L 370.280228 -2.470909 
L 369.558645 -2.470909 
L 368.837062 -2.470909 
L 368.115479 -2.470909 
L 367.393896 -2.470909 
L 366.672313 -2.470909 
L 365.950731 -2.470909 
L 365.229148 -2.470909 
L 364.507565 -2.470909 
L 363.785982 -2.470909 
L 363.064399 -2.470909 
L 362.342817 -2.470909 
L 361.621234 -2.470909 
L 360.899651 -2.470909 
L 360.178068 -2.470909 
L 359.456485 -2.470909 
L 358.734902 -2.470909 
L 358.01332 -2.470909 
L 357.291737 -2.470909 
L 356.570154 -2.470909 
L 355.848571 -2.470909 
L 355.126988 -2.470909 
L 354.405405 -2.470909 
L 353.683823 -2.470909 
L 352.96224 -2.470909 
L 352.240657 -2.470909 
L 351.519074 -2.470909 
L 350.797491 -2.470909 
L 350.075908 -2.470909 
L 349.354326 -2.470909 
z
" style="stroke: #116dc2; stroke-opacity: 0.2"/>
    </defs>
    <g clip-path="url(#p639e294cbf)">
     <use xlink:href="#mbc1822af3f" x="0" y="54.36" style="fill: #116dc2; fill-opacity: 0.2; stroke: #116dc2; stroke-opacity: 0.2"/>
    </g>
   </g>
   <g id="PolyCollection_3">
    <defs>
     <path id="meaf7ce2302" d="M 25.363636 -2.470909 
L 25.363636 -4.517591 
L 26.085219 -4.935704 
L 26.806802 -5.422175 
L 27.528385 -5.960796 
L 28.249968 -6.549504 
L 28.97155 -7.214573 
L 29.693133 -7.991096 
L 30.414716 -8.887093 
L 31.136299 -9.888827 
L 31.857882 -11.013799 
L 32.579465 -12.331609 
L 33.301047 -13.895525 
L 34.02263 -15.646953 
L 34.744213 -17.415188 
L 35.465796 -19.048911 
L 36.187379 -20.561969 
L 36.908962 -22.134306 
L 37.630544 -23.958502 
L 38.352127 -26.093333 
L 39.07371 -28.458277 
L 39.795293 -30.928416 
L 40.516876 -33.409961 
L 41.238459 -35.850879 
L 41.960041 -38.221132 
L 42.681624 -40.508233 
L 43.403207 -42.736281 
L 44.12479 -44.95831 
L 44.846373 -47.172664 
L 45.567956 -49.218715 
L 46.289538 -50.796023 
L 47.011121 -51.668025 
L 47.732704 -51.889091 
L 48.454287 -51.796923 
L 49.17587 -51.73464 
L 49.897452 -51.776927 
L 50.619035 -51.722579 
L 51.340618 -51.297546 
L 52.062201 -50.328135 
L 52.783784 -48.78866 
L 53.505367 -46.792276 
L 54.226949 -44.563572 
L 54.948532 -42.378715 
L 55.670115 -40.472354 
L 56.391698 -38.922331 
L 57.113281 -37.577534 
L 57.834864 -36.140261 
L 58.556446 -34.382014 
L 59.278029 -32.289153 
L 59.999612 -30.000072 
L 60.721195 -27.640896 
L 61.442778 -25.253192 
L 62.164361 -22.852068 
L 62.885943 -20.498781 
L 63.607526 -18.296819 
L 64.329109 -16.338753 
L 65.050692 -14.671412 
L 65.772275 -13.291523 
L 66.493857 -12.148992 
L 67.21544 -11.154571 
L 67.937023 -10.202941 
L 68.658606 -9.215336 
L 69.380189 -8.184254 
L 70.101772 -7.17887 
L 70.823354 -6.293951 
L 71.544937 -5.584798 
L 72.26652 -5.042306 
L 72.988103 -4.617228 
L 72.988103 -2.470909 
L 72.988103 -2.470909 
L 72.26652 -2.470909 
L 71.544937 -2.470909 
L 70.823354 -2.470909 
L 70.101772 -2.470909 
L 69.380189 -2.470909 
L 68.658606 -2.470909 
L 67.937023 -2.470909 
L 67.21544 -2.470909 
L 66.493857 -2.470909 
L 65.772275 -2.470909 
L 65.050692 -2.470909 
L 64.329109 -2.470909 
L 63.607526 -2.470909 
L 62.885943 -2.470909 
L 62.164361 -2.470909 
L 61.442778 -2.470909 
L 60.721195 -2.470909 
L 59.999612 -2.470909 
L 59.278029 -2.470909 
L 58.556446 -2.470909 
L 57.834864 -2.470909 
L 57.113281 -2.470909 
L 56.391698 -2.470909 
L 55.670115 -2.470909 
L 54.948532 -2.470909 
L 54.226949 -2.470909 
L 53.505367 -2.470909 
L 52.783784 -2.470909 
L 52.062201 -2.470909 
L 51.340618 -2.470909 
L 50.619035 -2.470909 
L 49.897452 -2.470909 
L 49.17587 -2.470909 
L 48.454287 -2.470909 
L 47.732704 -2.470909 
L 47.011121 -2.470909 
L 46.289538 -2.470909 
L 45.567956 -2.470909 
L 44.846373 -2.470909 
L 44.12479 -2.470909 
L 43.403207 -2.470909 
L 42.681624 -2.470909 
L 41.960041 -2.470909 
L 41.238459 -2.470909 
L 40.516876 -2.470909 
L 39.795293 -2.470909 
L 39.07371 -2.470909 
L 38.352127 -2.470909 
L 37.630544 -2.470909 
L 36.908962 -2.470909 
L 36.187379 -2.470909 
L 35.465796 -2.470909 
L 34.744213 -2.470909 
L 34.02263 -2.470909 
L 33.301047 -2.470909 
L 32.579465 -2.470909 
L 31.857882 -2.470909 
L 31.136299 -2.470909 
L 30.414716 -2.470909 
L 29.693133 -2.470909 
L 28.97155 -2.470909 
L 28.249968 -2.470909 
L 27.528385 -2.470909 
L 26.806802 -2.470909 
L 26.085219 -2.470909 
L 25.363636 -2.470909 
z
" style="stroke: #8a8a8a; stroke-opacity: 0.2"/>
    </defs>
    <g clip-path="url(#p639e294cbf)">
     <use xlink:href="#meaf7ce2302" x="0" y="54.36" style="fill: #8a8a8a; fill-opacity: 0.2; stroke: #8a8a8a; stroke-opacity: 0.2"/>
    </g>
   </g>
   <g id="line2d_1">
    <path d="M 150.919048 50.373172 
L 154.526962 49.775927 
L 158.134877 48.963728 
L 162.464373 47.7419 
L 170.401785 45.253274 
L 173.288116 44.118826 
L 175.452864 43.05955 
L 177.617613 41.795529 
L 180.503944 39.816336 
L 184.111858 36.994175 
L 191.327687 31.209843 
L 195.657183 28.174098 
L 199.98668 25.403169 
L 208.645674 20.182157 
L 215.13992 15.517981 
L 217.304668 14.419707 
L 219.469417 13.610463 
L 221.634165 13.022665 
L 223.798914 12.625762 
L 225.963662 12.441468 
L 228.128411 12.520061 
L 229.571576 12.74695 
L 231.014742 13.131212 
L 232.457908 13.681637 
L 234.622656 14.807699 
L 237.508987 16.708342 
L 241.116902 19.105647 
L 244.003233 20.700412 
L 247.611147 22.692238 
L 249.775896 24.171025 
L 252.662227 26.474325 
L 258.434889 31.201766 
L 262.764386 34.390943 
L 269.980215 39.442037 
L 272.866546 41.147583 
L 275.752877 42.583647 
L 280.082374 44.47598 
L 283.690288 45.877702 
L 287.298203 47.039544 
L 294.514031 49.022532 
L 298.121945 49.79347 
L 302.451442 50.41343 
L 302.451442 50.41343 
" clip-path="url(#p639e294cbf)" style="fill: none; stroke: #cf1313; stroke-width: 1.5; stroke-linecap: square"/>
   </g>
   <g id="line2d_2">
    <path d="M 349.354326 50.341732 
L 354.405405 49.528048 
L 363.785982 47.765276 
L 368.115479 46.729548 
L 372.444976 45.408851 
L 383.268718 41.745198 
L 385.433467 40.763011 
L 387.598215 39.572398 
L 390.484547 37.697906 
L 396.257209 33.79116 
L 399.143541 32.183637 
L 407.802535 27.802373 
L 411.410449 25.478634 
L 422.234191 18.252796 
L 424.39894 17.08556 
L 426.563688 16.147997 
L 428.728437 15.463455 
L 430.893185 15.011495 
L 433.779516 14.681563 
L 438.109013 14.482117 
L 446.768007 14.233849 
L 448.932756 14.439385 
L 451.097504 14.884528 
L 453.983836 15.794734 
L 459.756498 18.003497 
L 462.642829 19.234363 
L 464.807578 20.349071 
L 466.972326 21.689512 
L 469.858658 23.764152 
L 474.909737 27.450288 
L 478.517652 29.746838 
L 490.062977 36.615704 
L 495.114057 39.29063 
L 500.165136 41.746155 
L 504.494633 43.619057 
L 508.82413 45.277904 
L 512.432044 46.462567 
L 516.039959 47.39781 
L 520.369456 48.248326 
L 532.636364 50.314195 
L 532.636364 50.314195 
" clip-path="url(#p639e294cbf)" style="fill: none; stroke: #116dc2; stroke-width: 1.5; stroke-linecap: square"/>
   </g>
   <g id="line2d_3">
    <path d="M 25.363636 49.842409 
L 26.085219 49.424296 
L 26.806802 48.937825 
L 27.528385 48.399204 
L 28.249968 47.810496 
L 28.97155 47.145427 
L 29.693133 46.368904 
L 30.414716 45.472907 
L 31.136299 44.471173 
L 31.857882 43.346201 
L 32.579465 42.028391 
L 33.301047 40.464475 
L 34.02263 38.713047 
L 34.744213 36.944812 
L 35.465796 35.311089 
L 36.187379 33.798031 
L 36.908962 32.225694 
L 37.630544 30.401498 
L 38.352127 28.266667 
L 39.07371 25.901723 
L 39.795293 23.431584 
L 40.516876 20.950039 
L 41.238459 18.509121 
L 41.960041 16.138868 
L 42.681624 13.851767 
L 43.403207 11.623719 
L 44.12479 9.40169 
L 44.846373 7.187336 
L 45.567956 5.141285 
L 46.289538 3.563977 
L 47.011121 2.691975 
L 47.732704 2.470909 
L 48.454287 2.563077 
L 49.17587 2.62536 
L 49.897452 2.583073 
L 50.619035 2.637421 
L 51.340618 3.062454 
L 52.062201 4.031865 
L 52.783784 5.57134 
L 53.505367 7.567724 
L 54.226949 9.796428 
L 54.948532 11.981285 
L 55.670115 13.887646 
L 56.391698 15.437669 
L 57.113281 16.782466 
L 57.834864 18.219739 
L 58.556446 19.977986 
L 59.278029 22.070847 
L 59.999612 24.359928 
L 60.721195 26.719104 
L 61.442778 29.106808 
L 62.164361 31.507932 
L 62.885943 33.861219 
L 63.607526 36.063181 
L 64.329109 38.021247 
L 65.050692 39.688588 
L 65.772275 41.068477 
L 66.493857 42.211008 
L 67.21544 43.205429 
L 67.937023 44.157059 
L 68.658606 45.144664 
L 69.380189 46.175746 
L 70.101772 47.18113 
L 70.823354 48.066049 
L 71.544937 48.775202 
L 72.26652 49.317694 
L 72.988103 49.742772 
" clip-path="url(#p639e294cbf)" style="fill: none; stroke: #8a8a8a; stroke-width: 1.5; stroke-linecap: square"/>
   </g>
  </g>
 </g>
 <defs>
  <clipPath id="p639e294cbf">
   <rect x="0" y="-0" width="558" height="54.36"/>
  </clipPath>
 </defs>
</svg>
