<?xml version="1.0" encoding="utf-8" standalone="no"?>
<!DOCTYPE svg PUBLIC "-//W3C//DTD SVG 1.1//EN"
  "http://www.w3.org/Graphics/SVG/1.1/DTD/svg11.dtd">
<svg xmlns:xlink="http://www.w3.org/1999/xlink" width="558pt" height="54.36pt" viewBox="0 0 558 54.36" xmlns="http://www.w3.org/2000/svg" version="1.1">
 <metadata>
  <rdf:RDF xmlns:dc="http://purl.org/dc/elements/1.1/" xmlns:cc="http://creativecommons.org/ns#" xmlns:rdf="http://www.w3.org/1999/02/22-rdf-syntax-ns#">
   <cc:Work>
    <dc:type rdf:resource="http://purl.org/dc/dcmitype/StillImage"/>
    <dc:date>2024-09-14T12:47:49.297668</dc:date>
    <dc:format>image/svg+xml</dc:format>
    <dc:creator>
     <cc:Agent>
      <dc:title>Matplotlib v3.5.2, https://matplotlib.org/</dc:title>
     </cc:Agent>
    </dc:creator>
   </cc:Work>
  </rdf:RDF>
 </metadata>
 <defs>
  <style type="text/css">*{stroke-linejoin: round; stroke-linecap: butt}</style>
 </defs>
 <g id="figure_1">
  <g id="patch_1">
   <path d="M 0 54.36 
L 558 54.36 
L 558 0 
L 0 0 
L 0 54.36 
z
" style="fill: none; opacity: 0"/>
  </g>
  <g id="axes_1">
   <g id="PolyCollection_1">
    <defs>
     <path id="m546a206c9a" d="M 180.405449 -2.470909 
L 180.405449 -4.432636 
L 181.158079 -4.620047 
L 181.910709 -4.820536 
L 182.66334 -5.031994 
L 183.41597 -5.251929 
L 184.1686 -5.477877 
L 184.92123 -5.707777 
L 185.67386 -5.940271 
L 186.42649 -6.174834 
L 187.179121 -6.411738 
L 187.931751 -6.651872 
L 188.684381 -6.896447 
L 189.437011 -7.146689 
L 190.189641 -7.403586 
L 190.942271 -7.667724 
L 191.694902 -7.939281 
L 192.447532 -8.21813 
L 193.200162 -8.504051 
L 193.952792 -8.796993 
L 194.705422 -9.097341 
L 195.458052 -9.406142 
L 196.210682 -9.725272 
L 196.963313 -10.057513 
L 197.715943 -10.406525 
L 198.468573 -10.776698 
L 199.221203 -11.172876 
L 199.973833 -11.599946 
L 200.726463 -12.062326 
L 201.479094 -12.563408 
L 202.231724 -13.105031 
L 202.984354 -13.687086 
L 203.736984 -14.307343 
L 204.489614 -14.961554 
L 205.242244 -15.643824 
L 205.994875 -16.347207 
L 206.747505 -17.064417 
L 207.500135 -17.788539 
L 208.252765 -18.513612 
L 209.005395 -19.235012 
L 209.758025 -19.949579 
L 210.510656 -20.655507 
L 211.263286 -21.352055 
L 212.015916 -22.039144 
L 212.768546 -22.716949 
L 213.521176 -23.38558 
L 214.273806 -24.044915 
L 215.026436 -24.694639 
L 215.779067 -25.334474 
L 216.531697 -25.964539 
L 217.284327 -26.58573 
L 218.036957 -27.199978 
L 218.789587 -27.810251 
L 219.542217 -28.420219 
L 220.294848 -29.033575 
L 221.047478 -29.653143 
L 221.800108 -30.279938 
L 222.552738 -30.912452 
L 223.305368 -31.546376 
L 224.057998 -32.17491 
L 224.810629 -32.789665 
L 225.563259 -33.382043 
L 226.315889 -33.944821 
L 227.068519 -34.473633 
L 227.821149 -34.968037 
L 228.573779 -35.431915 
L 229.326409 -35.873103 
L 230.07904 -36.302293 
L 230.83167 -36.731351 
L 231.5843 -37.171343 
L 232.33693 -37.630571 
L 233.08956 -38.112923 
L 233.84219 -38.616823 
L 234.594821 -39.134942 
L 235.347451 -39.654772 
L 236.100081 -40.160018 
L 236.852711 -40.632655 
L 237.605341 -41.055352 
L 238.357971 -41.413904 
L 239.110602 -41.699231 
L 239.863232 -41.90858 
L 240.615862 -42.045674 
L 241.368492 -42.119754 
L 242.121122 -42.143711 
L 242.873752 -42.131665 
L 243.626383 -42.096501 
L 244.379013 -42.047838 
L 245.131643 -41.990788 
L 245.884273 -41.925673 
L 246.636903 -41.848621 
L 247.389533 -41.752826 
L 248.142163 -41.630112 
L 248.894794 -41.472495 
L 249.647424 -41.273461 
L 250.400054 -41.028823 
L 251.152684 -40.737127 
L 251.905314 -40.399631 
L 252.657944 -40.019974 
L 253.410575 -39.603619 
L 254.163205 -39.157172 
L 254.915835 -38.687667 
L 255.668465 -38.201851 
L 256.421095 -37.705554 
L 257.173725 -37.203177 
L 257.926356 -36.697328 
L 258.678986 -36.188675 
L 259.431616 -35.675998 
L 260.184246 -35.156488 
L 260.936876 -34.626244 
L 261.689506 -34.080938 
L 262.442136 -33.516557 
L 263.194767 -32.930124 
L 263.947397 -32.320274 
L 264.700027 -31.687589 
L 265.452657 -31.034607 
L 266.205287 -30.365503 
L 266.957917 -29.685497 
L 267.710548 -29.000078 
L 268.463178 -28.314219 
L 269.215808 -27.631705 
L 269.968438 -26.954725 
L 270.721068 -26.283761 
L 271.473698 -25.617793 
L 272.226329 -24.954724 
L 272.978959 -24.291936 
L 273.731589 -23.626857 
L 274.484219 -22.95744 
L 275.236849 -22.28252 
L 275.989479 -21.602034 
L 276.74211 -20.917136 
L 277.49474 -20.23022 
L 278.24737 -19.544861 
L 279 -18.86567 
L 279.75263 -18.19804 
L 280.50526 -17.547752 
L 281.25789 -16.920469 
L 282.010521 -16.321142 
L 282.763151 -15.753404 
L 283.515781 -15.219051 
L 284.268411 -14.717688 
L 285.021041 -14.246621 
L 285.773671 -13.801027 
L 286.526302 -13.374409 
L 287.278932 -12.959297 
L 288.031562 -12.548105 
L 288.784192 -12.134061 
L 289.536822 -11.712054 
L 290.289452 -11.279294 
L 291.042083 -10.835674 
L 291.794713 -10.383754 
L 292.547343 -9.928388 
L 293.299973 -9.476034 
L 294.052603 -9.033868 
L 294.805233 -8.608852 
L 295.557864 -8.206908 
L 296.310494 -7.832323 
L 297.063124 -7.487463 
L 297.815754 -7.172796 
L 298.568384 -6.887187 
L 299.321014 -6.628361 
L 300.073644 -6.393417 
L 300.826275 -6.179312 
L 301.578905 -5.9832 
L 302.331535 -5.802628 
L 303.084165 -5.635569 
L 303.836795 -5.480342 
L 304.589425 -5.33546 
L 305.342056 -5.199469 
L 306.094686 -5.070829 
L 306.847316 -4.947856 
L 307.599946 -4.828758 
L 308.352576 -4.711747 
L 309.105206 -4.595213 
L 309.857837 -4.477919 
L 310.610467 -4.359174 
L 310.610467 -2.470909 
L 310.610467 -2.470909 
L 309.857837 -2.470909 
L 309.105206 -2.470909 
L 308.352576 -2.470909 
L 307.599946 -2.470909 
L 306.847316 -2.470909 
L 306.094686 -2.470909 
L 305.342056 -2.470909 
L 304.589425 -2.470909 
L 303.836795 -2.470909 
L 303.084165 -2.470909 
L 302.331535 -2.470909 
L 301.578905 -2.470909 
L 300.826275 -2.470909 
L 300.073644 -2.470909 
L 299.321014 -2.470909 
L 298.568384 -2.470909 
L 297.815754 -2.470909 
L 297.063124 -2.470909 
L 296.310494 -2.470909 
L 295.557864 -2.470909 
L 294.805233 -2.470909 
L 294.052603 -2.470909 
L 293.299973 -2.470909 
L 292.547343 -2.470909 
L 291.794713 -2.470909 
L 291.042083 -2.470909 
L 290.289452 -2.470909 
L 289.536822 -2.470909 
L 288.784192 -2.470909 
L 288.031562 -2.470909 
L 287.278932 -2.470909 
L 286.526302 -2.470909 
L 285.773671 -2.470909 
L 285.021041 -2.470909 
L 284.268411 -2.470909 
L 283.515781 -2.470909 
L 282.763151 -2.470909 
L 282.010521 -2.470909 
L 281.25789 -2.470909 
L 280.50526 -2.470909 
L 279.75263 -2.470909 
L 279 -2.470909 
L 278.24737 -2.470909 
L 277.49474 -2.470909 
L 276.74211 -2.470909 
L 275.989479 -2.470909 
L 275.236849 -2.470909 
L 274.484219 -2.470909 
L 273.731589 -2.470909 
L 272.978959 -2.470909 
L 272.226329 -2.470909 
L 271.473698 -2.470909 
L 270.721068 -2.470909 
L 269.968438 -2.470909 
L 269.215808 -2.470909 
L 268.463178 -2.470909 
L 267.710548 -2.470909 
L 266.957917 -2.470909 
L 266.205287 -2.470909 
L 265.452657 -2.470909 
L 264.700027 -2.470909 
L 263.947397 -2.470909 
L 263.194767 -2.470909 
L 262.442136 -2.470909 
L 261.689506 -2.470909 
L 260.936876 -2.470909 
L 260.184246 -2.470909 
L 259.431616 -2.470909 
L 258.678986 -2.470909 
L 257.926356 -2.470909 
L 257.173725 -2.470909 
L 256.421095 -2.470909 
L 255.668465 -2.470909 
L 254.915835 -2.470909 
L 254.163205 -2.470909 
L 253.410575 -2.470909 
L 252.657944 -2.470909 
L 251.905314 -2.470909 
L 251.152684 -2.470909 
L 250.400054 -2.470909 
L 249.647424 -2.470909 
L 248.894794 -2.470909 
L 248.142163 -2.470909 
L 247.389533 -2.470909 
L 246.636903 -2.470909 
L 245.884273 -2.470909 
L 245.131643 -2.470909 
L 244.379013 -2.470909 
L 243.626383 -2.470909 
L 242.873752 -2.470909 
L 242.121122 -2.470909 
L 241.368492 -2.470909 
L 240.615862 -2.470909 
L 239.863232 -2.470909 
L 239.110602 -2.470909 
L 238.357971 -2.470909 
L 237.605341 -2.470909 
L 236.852711 -2.470909 
L 236.100081 -2.470909 
L 235.347451 -2.470909 
L 234.594821 -2.470909 
L 233.84219 -2.470909 
L 233.08956 -2.470909 
L 232.33693 -2.470909 
L 231.5843 -2.470909 
L 230.83167 -2.470909 
L 230.07904 -2.470909 
L 229.326409 -2.470909 
L 228.573779 -2.470909 
L 227.821149 -2.470909 
L 227.068519 -2.470909 
L 226.315889 -2.470909 
L 225.563259 -2.470909 
L 224.810629 -2.470909 
L 224.057998 -2.470909 
L 223.305368 -2.470909 
L 222.552738 -2.470909 
L 221.800108 -2.470909 
L 221.047478 -2.470909 
L 220.294848 -2.470909 
L 219.542217 -2.470909 
L 218.789587 -2.470909 
L 218.036957 -2.470909 
L 217.284327 -2.470909 
L 216.531697 -2.470909 
L 215.779067 -2.470909 
L 215.026436 -2.470909 
L 214.273806 -2.470909 
L 213.521176 -2.470909 
L 212.768546 -2.470909 
L 212.015916 -2.470909 
L 211.263286 -2.470909 
L 210.510656 -2.470909 
L 209.758025 -2.470909 
L 209.005395 -2.470909 
L 208.252765 -2.470909 
L 207.500135 -2.470909 
L 206.747505 -2.470909 
L 205.994875 -2.470909 
L 205.242244 -2.470909 
L 204.489614 -2.470909 
L 203.736984 -2.470909 
L 202.984354 -2.470909 
L 202.231724 -2.470909 
L 201.479094 -2.470909 
L 200.726463 -2.470909 
L 199.973833 -2.470909 
L 199.221203 -2.470909 
L 198.468573 -2.470909 
L 197.715943 -2.470909 
L 196.963313 -2.470909 
L 196.210682 -2.470909 
L 195.458052 -2.470909 
L 194.705422 -2.470909 
L 193.952792 -2.470909 
L 193.200162 -2.470909 
L 192.447532 -2.470909 
L 191.694902 -2.470909 
L 190.942271 -2.470909 
L 190.189641 -2.470909 
L 189.437011 -2.470909 
L 188.684381 -2.470909 
L 187.931751 -2.470909 
L 187.179121 -2.470909 
L 186.42649 -2.470909 
L 185.67386 -2.470909 
L 184.92123 -2.470909 
L 184.1686 -2.470909 
L 183.41597 -2.470909 
L 182.66334 -2.470909 
L 181.910709 -2.470909 
L 181.158079 -2.470909 
L 180.405449 -2.470909 
z
" style="stroke: #cf1313; stroke-opacity: 0.2"/>
    </defs>
    <g clip-path="url(#p871095632d)">
     <use xlink:href="#m546a206c9a" x="0" y="54.36" style="fill: #cf1313; fill-opacity: 0.2; stroke: #cf1313; stroke-opacity: 0.2"/>
    </g>
   </g>
   <g id="PolyCollection_2">
    <defs>
     <path id="m8999de9582" d="M 393.399784 -2.470909 
L 393.399784 -3.992713 
L 394.152414 -4.10702 
L 394.905045 -4.225541 
L 395.657675 -4.349497 
L 396.410305 -4.480794 
L 397.162935 -4.621897 
L 397.915565 -4.775623 
L 398.668195 -4.944865 
L 399.420825 -5.132277 
L 400.173456 -5.339965 
L 400.926086 -5.569198 
L 401.678716 -5.820195 
L 402.431346 -6.091988 
L 403.183976 -6.382406 
L 403.936606 -6.688169 
L 404.689237 -7.005106 
L 405.441867 -7.328483 
L 406.194497 -7.653421 
L 406.947127 -7.975363 
L 407.699757 -8.290552 
L 408.452387 -8.596456 
L 409.205018 -8.892095 
L 409.957648 -9.178203 
L 410.710278 -9.457209 
L 411.462908 -9.733018 
L 412.215538 -10.010625 
L 412.968168 -10.295612 
L 413.720798 -10.593607 
L 414.473429 -10.909785 
L 415.226059 -11.248484 
L 415.978689 -11.612984 
L 416.731319 -12.005461 
L 417.483949 -12.427096 
L 418.236579 -12.878286 
L 418.98921 -13.358895 
L 419.74184 -13.868465 
L 420.49447 -14.406345 
L 421.2471 -14.971691 
L 421.99973 -15.563349 
L 422.75236 -16.179649 
L 423.504991 -16.818163 
L 424.257621 -17.475518 
L 425.010251 -18.147309 
L 425.762881 -18.828207 
L 426.515511 -19.512249 
L 427.268141 -20.193322 
L 428.020772 -20.865763 
L 428.773402 -21.524994 
L 429.526032 -22.168064 
L 430.278662 -22.79401 
L 431.031292 -23.40394 
L 431.783922 -24.000825 
L 432.536552 -24.588996 
L 433.289183 -25.17345 
L 434.041813 -25.759049 
L 434.794443 -26.349759 
L 435.547073 -26.948033 
L 436.299703 -27.554451 
L 437.052333 -28.167637 
L 437.804964 -28.784466 
L 438.557594 -29.400512 
L 439.310224 -30.010643 
L 440.062854 -30.60968 
L 440.815484 -31.193031 
L 441.568114 -31.757211 
L 442.320745 -32.300209 
L 443.073375 -32.821668 
L 443.826005 -33.322878 
L 444.578635 -33.80657 
L 445.331265 -34.276553 
L 446.083895 -34.73721 
L 446.836525 -35.192913 
L 447.589156 -35.647407 
L 448.341786 -36.103265 
L 449.094416 -36.561489 
L 449.847046 -37.021337 
L 450.599676 -37.480436 
L 451.352306 -37.935149 
L 452.104937 -38.381153 
L 452.857567 -38.814078 
L 453.610197 -39.230058 
L 454.362827 -39.626048 
L 455.115457 -39.999794 
L 455.868087 -40.349476 
L 456.620718 -40.673093 
L 457.373348 -40.967808 
L 458.125978 -41.229445 
L 458.878608 -41.452356 
L 459.631238 -41.629746 
L 460.383868 -41.754446 
L 461.136499 -41.819958 
L 461.889129 -41.821546 
L 462.641759 -41.757067 
L 463.394389 -41.627361 
L 464.147019 -41.436081 
L 464.899649 -41.189036 
L 465.652279 -40.893237 
L 466.40491 -40.555906 
L 467.15754 -40.183709 
L 467.91017 -39.782385 
L 468.6628 -39.356797 
L 469.41543 -38.911334 
L 470.16806 -38.450437 
L 470.920691 -37.979054 
L 471.673321 -37.502821 
L 472.425951 -37.027891 
L 473.178581 -36.560437 
L 473.931211 -36.105961 
L 474.683841 -35.668587 
L 475.436472 -35.25052 
L 476.189102 -34.851792 
L 476.941732 -34.470335 
L 477.694362 -34.102338 
L 478.446992 -33.7428 
L 479.199622 -33.386132 
L 479.952252 -33.026726 
L 480.704883 -32.659411 
L 481.457513 -32.279766 
L 482.210143 -31.884315 
L 482.962773 -31.470624 
L 483.715403 -31.037327 
L 484.468033 -30.584098 
L 485.220664 -30.11156 
L 485.973294 -29.621129 
L 486.725924 -29.114774 
L 487.478554 -28.594698 
L 488.231184 -28.062983 
L 488.983814 -27.521226 
L 489.736445 -26.970261 
L 490.489075 -26.410007 
L 491.241705 -25.839522 
L 491.994335 -25.257256 
L 492.746965 -24.661493 
L 493.499595 -24.050918 
L 494.252226 -23.425192 
L 495.004856 -22.785436 
L 495.757486 -22.134504 
L 496.510116 -21.476988 
L 497.262746 -20.818925 
L 498.015376 -20.167234 
L 498.768006 -19.528978 
L 499.520637 -18.910554 
L 500.273267 -18.316943 
L 501.025897 -17.751122 
L 501.778527 -17.213745 
L 502.531157 -16.703119 
L 503.283787 -16.21549 
L 504.036418 -15.745598 
L 504.789048 -15.28741 
L 505.541678 -14.834929 
L 506.294308 -14.38295 
L 507.046938 -13.927673 
L 507.799568 -13.467055 
L 508.552199 -13.000901 
L 509.304829 -12.530685 
L 510.057459 -12.059167 
L 510.810089 -11.589899 
L 511.562719 -11.126726 
L 512.315349 -10.673361 
L 513.067979 -10.233085 
L 513.82061 -9.808601 
L 514.57324 -9.402005 
L 515.32587 -9.014832 
L 516.0785 -8.648141 
L 516.83113 -8.302573 
L 517.58376 -7.978387 
L 518.336391 -7.675461 
L 519.089021 -7.393274 
L 519.841651 -7.130907 
L 520.594281 -6.887059 
L 521.346911 -6.660112 
L 522.099541 -6.448229 
L 522.852172 -6.249472 
L 523.604802 -6.061919 
L 524.357432 -5.883778 
L 525.110062 -5.713458 
L 525.862692 -5.549624 
L 526.615322 -5.391219 
L 527.367953 -5.237473 
L 528.120583 -5.087905 
L 528.873213 -4.942324 
L 529.625843 -4.800821 
L 530.378473 -4.663753 
L 531.131103 -4.531696 
L 531.883733 -4.405362 
L 532.636364 -4.285479 
L 532.636364 -2.470909 
L 532.636364 -2.470909 
L 531.883733 -2.470909 
L 531.131103 -2.470909 
L 530.378473 -2.470909 
L 529.625843 -2.470909 
L 528.873213 -2.470909 
L 528.120583 -2.470909 
L 527.367953 -2.470909 
L 526.615322 -2.470909 
L 525.862692 -2.470909 
L 525.110062 -2.470909 
L 524.357432 -2.470909 
L 523.604802 -2.470909 
L 522.852172 -2.470909 
L 522.099541 -2.470909 
L 521.346911 -2.470909 
L 520.594281 -2.470909 
L 519.841651 -2.470909 
L 519.089021 -2.470909 
L 518.336391 -2.470909 
L 517.58376 -2.470909 
L 516.83113 -2.470909 
L 516.0785 -2.470909 
L 515.32587 -2.470909 
L 514.57324 -2.470909 
L 513.82061 -2.470909 
L 513.067979 -2.470909 
L 512.315349 -2.470909 
L 511.562719 -2.470909 
L 510.810089 -2.470909 
L 510.057459 -2.470909 
L 509.304829 -2.470909 
L 508.552199 -2.470909 
L 507.799568 -2.470909 
L 507.046938 -2.470909 
L 506.294308 -2.470909 
L 505.541678 -2.470909 
L 504.789048 -2.470909 
L 504.036418 -2.470909 
L 503.283787 -2.470909 
L 502.531157 -2.470909 
L 501.778527 -2.470909 
L 501.025897 -2.470909 
L 500.273267 -2.470909 
L 499.520637 -2.470909 
L 498.768006 -2.470909 
L 498.015376 -2.470909 
L 497.262746 -2.470909 
L 496.510116 -2.470909 
L 495.757486 -2.470909 
L 495.004856 -2.470909 
L 494.252226 -2.470909 
L 493.499595 -2.470909 
L 492.746965 -2.470909 
L 491.994335 -2.470909 
L 491.241705 -2.470909 
L 490.489075 -2.470909 
L 489.736445 -2.470909 
L 488.983814 -2.470909 
L 488.231184 -2.470909 
L 487.478554 -2.470909 
L 486.725924 -2.470909 
L 485.973294 -2.470909 
L 485.220664 -2.470909 
L 484.468033 -2.470909 
L 483.715403 -2.470909 
L 482.962773 -2.470909 
L 482.210143 -2.470909 
L 481.457513 -2.470909 
L 480.704883 -2.470909 
L 479.952252 -2.470909 
L 479.199622 -2.470909 
L 478.446992 -2.470909 
L 477.694362 -2.470909 
L 476.941732 -2.470909 
L 476.189102 -2.470909 
L 475.436472 -2.470909 
L 474.683841 -2.470909 
L 473.931211 -2.470909 
L 473.178581 -2.470909 
L 472.425951 -2.470909 
L 471.673321 -2.470909 
L 470.920691 -2.470909 
L 470.16806 -2.470909 
L 469.41543 -2.470909 
L 468.6628 -2.470909 
L 467.91017 -2.470909 
L 467.15754 -2.470909 
L 466.40491 -2.470909 
L 465.652279 -2.470909 
L 464.899649 -2.470909 
L 464.147019 -2.470909 
L 463.394389 -2.470909 
L 462.641759 -2.470909 
L 461.889129 -2.470909 
L 461.136499 -2.470909 
L 460.383868 -2.470909 
L 459.631238 -2.470909 
L 458.878608 -2.470909 
L 458.125978 -2.470909 
L 457.373348 -2.470909 
L 456.620718 -2.470909 
L 455.868087 -2.470909 
L 455.115457 -2.470909 
L 454.362827 -2.470909 
L 453.610197 -2.470909 
L 452.857567 -2.470909 
L 452.104937 -2.470909 
L 451.352306 -2.470909 
L 450.599676 -2.470909 
L 449.847046 -2.470909 
L 449.094416 -2.470909 
L 448.341786 -2.470909 
L 447.589156 -2.470909 
L 446.836525 -2.470909 
L 446.083895 -2.470909 
L 445.331265 -2.470909 
L 444.578635 -2.470909 
L 443.826005 -2.470909 
L 443.073375 -2.470909 
L 442.320745 -2.470909 
L 441.568114 -2.470909 
L 440.815484 -2.470909 
L 440.062854 -2.470909 
L 439.310224 -2.470909 
L 438.557594 -2.470909 
L 437.804964 -2.470909 
L 437.052333 -2.470909 
L 436.299703 -2.470909 
L 435.547073 -2.470909 
L 434.794443 -2.470909 
L 434.041813 -2.470909 
L 433.289183 -2.470909 
L 432.536552 -2.470909 
L 431.783922 -2.470909 
L 431.031292 -2.470909 
L 430.278662 -2.470909 
L 429.526032 -2.470909 
L 428.773402 -2.470909 
L 428.020772 -2.470909 
L 427.268141 -2.470909 
L 426.515511 -2.470909 
L 425.762881 -2.470909 
L 425.010251 -2.470909 
L 424.257621 -2.470909 
L 423.504991 -2.470909 
L 422.75236 -2.470909 
L 421.99973 -2.470909 
L 421.2471 -2.470909 
L 420.49447 -2.470909 
L 419.74184 -2.470909 
L 418.98921 -2.470909 
L 418.236579 -2.470909 
L 417.483949 -2.470909 
L 416.731319 -2.470909 
L 415.978689 -2.470909 
L 415.226059 -2.470909 
L 414.473429 -2.470909 
L 413.720798 -2.470909 
L 412.968168 -2.470909 
L 412.215538 -2.470909 
L 411.462908 -2.470909 
L 410.710278 -2.470909 
L 409.957648 -2.470909 
L 409.205018 -2.470909 
L 408.452387 -2.470909 
L 407.699757 -2.470909 
L 406.947127 -2.470909 
L 406.194497 -2.470909 
L 405.441867 -2.470909 
L 404.689237 -2.470909 
L 403.936606 -2.470909 
L 403.183976 -2.470909 
L 402.431346 -2.470909 
L 401.678716 -2.470909 
L 400.926086 -2.470909 
L 400.173456 -2.470909 
L 399.420825 -2.470909 
L 398.668195 -2.470909 
L 397.915565 -2.470909 
L 397.162935 -2.470909 
L 396.410305 -2.470909 
L 395.657675 -2.470909 
L 394.905045 -2.470909 
L 394.152414 -2.470909 
L 393.399784 -2.470909 
z
" style="stroke: #116dc2; stroke-opacity: 0.2"/>
    </defs>
    <g clip-path="url(#p871095632d)">
     <use xlink:href="#m8999de9582" x="0" y="54.36" style="fill: #116dc2; fill-opacity: 0.2; stroke: #116dc2; stroke-opacity: 0.2"/>
    </g>
   </g>
   <g id="PolyCollection_3">
    <defs>
     <path id="mbbaeefd48a" d="M 25.363636 -2.470909 
L 25.363636 -4.441334 
L 26.116267 -4.909955 
L 26.868897 -5.547887 
L 27.621527 -6.303061 
L 28.374157 -7.114836 
L 29.126787 -7.96589 
L 29.879417 -8.867102 
L 30.632047 -9.854216 
L 31.384678 -11.023784 
L 32.137308 -12.498752 
L 32.889938 -14.311361 
L 33.642568 -16.379646 
L 34.395198 -18.615124 
L 35.147828 -20.977476 
L 35.900459 -23.437596 
L 36.653089 -25.956325 
L 37.405719 -28.443467 
L 38.158349 -30.721847 
L 38.910979 -32.71571 
L 39.663609 -34.716478 
L 40.41624 -37.195674 
L 41.16887 -40.241956 
L 41.9215 -43.374988 
L 42.67413 -45.990577 
L 43.42676 -47.865875 
L 44.17939 -49.20373 
L 44.932021 -50.297143 
L 45.684651 -51.217582 
L 46.437281 -51.801269 
L 47.189911 -51.889091 
L 47.942541 -51.536837 
L 48.695171 -50.962482 
L 49.447801 -50.309479 
L 50.200432 -49.515733 
L 50.953062 -48.427418 
L 51.705692 -46.99822 
L 52.458322 -45.324072 
L 53.210952 -43.474413 
L 53.963582 -41.36801 
L 54.716213 -38.874599 
L 55.468843 -35.979123 
L 56.221473 -32.82364 
L 56.974103 -29.665747 
L 57.726733 -26.783153 
L 58.479363 -24.299556 
L 59.231994 -22.082481 
L 59.984624 -19.898415 
L 60.737254 -17.672818 
L 61.489884 -15.540211 
L 62.242514 -13.663942 
L 62.995144 -12.06964 
L 63.747774 -10.670436 
L 64.500405 -9.414486 
L 65.253035 -8.331633 
L 66.005665 -7.428136 
L 66.758295 -6.631293 
L 67.510925 -5.87679 
L 68.263555 -5.182721 
L 69.016186 -4.608727 
L 69.768816 -4.185724 
L 69.768816 -2.470909 
L 69.768816 -2.470909 
L 69.016186 -2.470909 
L 68.263555 -2.470909 
L 67.510925 -2.470909 
L 66.758295 -2.470909 
L 66.005665 -2.470909 
L 65.253035 -2.470909 
L 64.500405 -2.470909 
L 63.747774 -2.470909 
L 62.995144 -2.470909 
L 62.242514 -2.470909 
L 61.489884 -2.470909 
L 60.737254 -2.470909 
L 59.984624 -2.470909 
L 59.231994 -2.470909 
L 58.479363 -2.470909 
L 57.726733 -2.470909 
L 56.974103 -2.470909 
L 56.221473 -2.470909 
L 55.468843 -2.470909 
L 54.716213 -2.470909 
L 53.963582 -2.470909 
L 53.210952 -2.470909 
L 52.458322 -2.470909 
L 51.705692 -2.470909 
L 50.953062 -2.470909 
L 50.200432 -2.470909 
L 49.447801 -2.470909 
L 48.695171 -2.470909 
L 47.942541 -2.470909 
L 47.189911 -2.470909 
L 46.437281 -2.470909 
L 45.684651 -2.470909 
L 44.932021 -2.470909 
L 44.17939 -2.470909 
L 43.42676 -2.470909 
L 42.67413 -2.470909 
L 41.9215 -2.470909 
L 41.16887 -2.470909 
L 40.41624 -2.470909 
L 39.663609 -2.470909 
L 38.910979 -2.470909 
L 38.158349 -2.470909 
L 37.405719 -2.470909 
L 36.653089 -2.470909 
L 35.900459 -2.470909 
L 35.147828 -2.470909 
L 34.395198 -2.470909 
L 33.642568 -2.470909 
L 32.889938 -2.470909 
L 32.137308 -2.470909 
L 31.384678 -2.470909 
L 30.632047 -2.470909 
L 29.879417 -2.470909 
L 29.126787 -2.470909 
L 28.374157 -2.470909 
L 27.621527 -2.470909 
L 26.868897 -2.470909 
L 26.116267 -2.470909 
L 25.363636 -2.470909 
z
" style="stroke: #8a8a8a; stroke-opacity: 0.2"/>
    </defs>
    <g clip-path="url(#p871095632d)">
     <use xlink:href="#mbbaeefd48a" x="0" y="54.36" style="fill: #8a8a8a; fill-opacity: 0.2; stroke: #8a8a8a; stroke-opacity: 0.2"/>
    </g>
   </g>
   <g id="line2d_1">
    <path d="M 180.405449 49.927364 
L 184.1686 48.882123 
L 190.189641 46.956414 
L 194.705422 45.262659 
L 197.715943 43.953475 
L 199.973833 42.760054 
L 202.231724 41.254969 
L 204.489614 39.398446 
L 208.252765 35.846388 
L 212.768546 31.643051 
L 217.284327 27.77427 
L 227.068519 19.886367 
L 229.326409 18.486897 
L 233.08956 16.247077 
L 237.605341 13.304648 
L 239.110602 12.660769 
L 240.615862 12.314326 
L 242.121122 12.216289 
L 245.131643 12.369212 
L 248.142163 12.729888 
L 249.647424 13.086539 
L 251.152684 13.622873 
L 253.410575 14.756381 
L 256.421095 16.654446 
L 261.689506 20.279062 
L 264.700027 22.672411 
L 269.215808 26.728295 
L 281.25789 37.439531 
L 283.515781 39.140949 
L 285.773671 40.558973 
L 297.063124 46.872537 
L 299.321014 47.731639 
L 302.331535 48.557372 
L 306.094686 49.289171 
L 310.610467 50.000826 
L 310.610467 50.000826 
" clip-path="url(#p871095632d)" style="fill: none; stroke: #cf1313; stroke-width: 1.5; stroke-linecap: square"/>
   </g>
   <g id="line2d_2">
    <path d="M 393.399784 50.367287 
L 397.915565 49.584377 
L 400.173456 49.020035 
L 402.431346 48.268012 
L 406.194497 46.706579 
L 409.957648 45.181797 
L 415.226059 43.111516 
L 417.483949 41.932904 
L 419.74184 40.491535 
L 421.99973 38.796651 
L 425.010251 36.212691 
L 430.278662 31.56599 
L 440.815484 23.166969 
L 443.826005 21.037122 
L 448.341786 18.256735 
L 453.610197 15.129942 
L 455.868087 14.010524 
L 458.125978 13.130555 
L 459.631238 12.730254 
L 461.136499 12.540042 
L 462.641759 12.602933 
L 464.147019 12.923919 
L 465.652279 13.466763 
L 467.91017 14.577615 
L 470.920691 16.380946 
L 475.436472 19.10948 
L 478.446992 20.6172 
L 482.210143 22.475685 
L 485.220664 24.24844 
L 488.231184 26.297017 
L 491.994335 29.102744 
L 495.004856 31.574564 
L 500.273267 36.043057 
L 502.531157 37.656881 
L 506.294308 39.97705 
L 515.32587 45.345168 
L 517.58376 46.381613 
L 519.841651 47.229093 
L 522.852172 48.110528 
L 527.367953 49.122527 
L 532.636364 50.074521 
L 532.636364 50.074521 
" clip-path="url(#p871095632d)" style="fill: none; stroke: #116dc2; stroke-width: 1.5; stroke-linecap: square"/>
   </g>
   <g id="line2d_3">
    <path d="M 25.363636 49.918666 
L 26.116267 49.450045 
L 26.868897 48.812113 
L 27.621527 48.056939 
L 28.374157 47.245164 
L 29.126787 46.39411 
L 29.879417 45.492898 
L 30.632047 44.505784 
L 31.384678 43.336216 
L 32.137308 41.861248 
L 32.889938 40.048639 
L 33.642568 37.980354 
L 34.395198 35.744876 
L 35.147828 33.382524 
L 35.900459 30.922404 
L 36.653089 28.403675 
L 37.405719 25.916533 
L 38.158349 23.638153 
L 38.910979 21.64429 
L 39.663609 19.643522 
L 40.41624 17.164326 
L 41.16887 14.118044 
L 41.9215 10.985012 
L 42.67413 8.369423 
L 43.42676 6.494125 
L 44.17939 5.15627 
L 44.932021 4.062857 
L 45.684651 3.142418 
L 46.437281 2.558731 
L 47.189911 2.470909 
L 47.942541 2.823163 
L 48.695171 3.397518 
L 49.447801 4.050521 
L 50.200432 4.844267 
L 50.953062 5.932582 
L 51.705692 7.36178 
L 52.458322 9.035928 
L 53.210952 10.885587 
L 53.963582 12.99199 
L 54.716213 15.485401 
L 55.468843 18.380877 
L 56.221473 21.53636 
L 56.974103 24.694253 
L 57.726733 27.576847 
L 58.479363 30.060444 
L 59.231994 32.277519 
L 59.984624 34.461585 
L 60.737254 36.687182 
L 61.489884 38.819789 
L 62.242514 40.696058 
L 62.995144 42.29036 
L 63.747774 43.689564 
L 64.500405 44.945514 
L 65.253035 46.028367 
L 66.005665 46.931864 
L 66.758295 47.728707 
L 67.510925 48.48321 
L 68.263555 49.177279 
L 69.016186 49.751273 
L 69.768816 50.174276 
" clip-path="url(#p871095632d)" style="fill: none; stroke: #8a8a8a; stroke-width: 1.5; stroke-linecap: square"/>
   </g>
  </g>
 </g>
 <defs>
  <clipPath id="p871095632d">
   <rect x="0" y="-0" width="558" height="54.36"/>
  </clipPath>
 </defs>
</svg>
