<?xml version="1.0" encoding="utf-8" standalone="no"?>
<!DOCTYPE svg PUBLIC "-//W3C//DTD SVG 1.1//EN"
  "http://www.w3.org/Graphics/SVG/1.1/DTD/svg11.dtd">
<svg xmlns:xlink="http://www.w3.org/1999/xlink" width="558pt" height="54.36pt" viewBox="0 0 558 54.36" xmlns="http://www.w3.org/2000/svg" version="1.1">
 <metadata>
  <rdf:RDF xmlns:dc="http://purl.org/dc/elements/1.1/" xmlns:cc="http://creativecommons.org/ns#" xmlns:rdf="http://www.w3.org/1999/02/22-rdf-syntax-ns#">
   <cc:Work>
    <dc:type rdf:resource="http://purl.org/dc/dcmitype/StillImage"/>
    <dc:date>2024-09-15T09:31:53.032373</dc:date>
    <dc:format>image/svg+xml</dc:format>
    <dc:creator>
     <cc:Agent>
      <dc:title>Matplotlib v3.5.2, https://matplotlib.org/</dc:title>
     </cc:Agent>
    </dc:creator>
   </cc:Work>
  </rdf:RDF>
 </metadata>
 <defs>
  <style type="text/css">*{stroke-linejoin: round; stroke-linecap: butt}</style>
 </defs>
 <g id="figure_1">
  <g id="patch_1">
   <path d="M 0 54.36 
L 558 54.36 
L 558 0 
L 0 0 
L 0 54.36 
z
" style="fill: none; opacity: 0"/>
  </g>
  <g id="axes_1">
   <g id="PolyCollection_1">
    <defs>
     <path id="m0d042476a6" d="M 178.445939 -2.470909 
L 178.445939 -4.189243 
L 179.196342 -4.338455 
L 179.946746 -4.496905 
L 180.697149 -4.665343 
L 181.447552 -4.844467 
L 182.197956 -5.034962 
L 182.948359 -5.237601 
L 183.698763 -5.45339 
L 184.449166 -5.683675 
L 185.19957 -5.930157 
L 185.949973 -6.19476 
L 186.700377 -6.479337 
L 187.45078 -6.785255 
L 188.201183 -7.112946 
L 188.951587 -7.461537 
L 189.70199 -7.828663 
L 190.452394 -8.210565 
L 191.202797 -8.602479 
L 191.953201 -8.999283 
L 192.703604 -9.3963 
L 193.454008 -9.790091 
L 194.204411 -10.179094 
L 194.954814 -10.563975 
L 195.705218 -10.947598 
L 196.455621 -11.334622 
L 197.206025 -11.730789 
L 197.956428 -12.142029 
L 198.706832 -12.573567 
L 199.457235 -13.029169 
L 200.207639 -13.510685 
L 200.958042 -14.017928 
L 201.708445 -14.548896 
L 202.458849 -15.100253 
L 203.209252 -15.667948 
L 203.959656 -16.247835 
L 204.710059 -16.836182 
L 205.460463 -17.429996 
L 206.210866 -18.02713 
L 206.961269 -18.626212 
L 207.711673 -19.226419 
L 208.462076 -19.827191 
L 209.21248 -20.427914 
L 209.962883 -21.027666 
L 210.713287 -21.62504 
L 211.46369 -22.218113 
L 212.214094 -22.804559 
L 212.964497 -23.381934 
L 213.7149 -23.948111 
L 214.465304 -24.50181 
L 215.215707 -25.043162 
L 215.966111 -25.574192 
L 216.716514 -26.099129 
L 217.466918 -26.624418 
L 218.217321 -27.158384 
L 218.967725 -27.710524 
L 219.718128 -28.290469 
L 220.468531 -28.90674 
L 221.218935 -29.565463 
L 221.969338 -30.269245 
L 222.719742 -31.016397 
L 223.470145 -31.800653 
L 224.220549 -32.611463 
L 224.970952 -33.434835 
L 225.721356 -34.254638 
L 226.471759 -35.05418 
L 227.222162 -35.817856 
L 227.972566 -36.532639 
L 228.722969 -37.189232 
L 229.473373 -37.782719 
L 230.223776 -38.31268 
L 230.97418 -38.782754 
L 231.724583 -39.199744 
L 232.474987 -39.572412 
L 233.22539 -39.910125 
L 233.975793 -40.221544 
L 234.726197 -40.513504 
L 235.4766 -40.790207 
L 236.227004 -41.052784 
L 236.977407 -41.299246 
L 237.727811 -41.5248 
L 238.478214 -41.722471 
L 239.228618 -41.883972 
L 239.979021 -42.000748 
L 240.729424 -42.065123 
L 241.479828 -42.071421 
L 242.230231 -42.016972 
L 242.980635 -41.902833 
L 243.731038 -41.734102 
L 244.481442 -41.51972 
L 245.231845 -41.271723 
L 245.982249 -41.004008 
L 246.732652 -40.730771 
L 247.483055 -40.464845 
L 248.233459 -40.216204 
L 248.983862 -39.990857 
L 249.734266 -39.790307 
L 250.484669 -39.611607 
L 251.235073 -39.44797 
L 251.985476 -39.28978 
L 252.73588 -39.125821 
L 253.486283 -38.944521 
L 254.236686 -38.735043 
L 254.98709 -38.488108 
L 255.737493 -38.196497 
L 256.487897 -37.855226 
L 257.2383 -37.461455 
L 257.988704 -37.014222 
L 258.739107 -36.514099 
L 259.48951 -35.962887 
L 260.239914 -35.363412 
L 260.990317 -34.71948 
L 261.740721 -34.035949 
L 262.491124 -33.318866 
L 263.241528 -32.575561 
L 263.991931 -31.814597 
L 264.742335 -31.045468 
L 265.492738 -30.278042 
L 266.243141 -29.521754 
L 266.993545 -28.784669 
L 267.743948 -28.072574 
L 268.494352 -27.388258 
L 269.244755 -26.731148 
L 269.995159 -26.097388 
L 270.745562 -25.480374 
L 271.495966 -24.871677 
L 272.246369 -24.262196 
L 272.996772 -23.643382 
L 273.747176 -23.008335 
L 274.497579 -22.35266 
L 275.247983 -21.674959 
L 275.998386 -20.97697 
L 276.74879 -20.263342 
L 277.499193 -19.541122 
L 278.249597 -18.819022 
L 279 -18.106553 
L 279.750403 -17.413121 
L 280.500807 -16.747174 
L 281.25121 -16.115468 
L 282.001614 -15.522553 
L 282.752017 -14.970491 
L 283.502421 -14.458853 
L 284.252824 -13.984955 
L 285.003228 -13.544309 
L 285.753631 -13.131189 
L 286.504034 -12.739262 
L 287.254438 -12.362181 
L 288.004841 -11.994094 
L 288.755245 -11.630035 
L 289.505648 -11.266172 
L 290.256052 -10.899943 
L 291.006455 -10.530082 
L 291.756859 -10.156574 
L 292.507262 -9.780541 
L 293.257665 -9.404074 
L 294.008069 -9.030002 
L 294.758472 -8.661616 
L 295.508876 -8.302333 
L 296.259279 -7.955358 
L 297.009683 -7.623359 
L 297.760086 -7.308203 
L 298.51049 -7.010809 
L 299.260893 -6.731124 
L 300.011296 -6.468247 
L 300.7617 -6.22066 
L 301.512103 -5.986538 
L 302.262507 -5.764078 
L 303.01291 -5.551784 
L 303.763314 -5.348672 
L 304.513717 -5.154348 
L 305.26412 -4.968976 
L 306.014524 -4.793126 
L 306.764927 -4.627564 
L 307.515331 -4.47302 
L 308.265734 -4.329978 
L 309.016138 -4.198541 
L 309.016138 -2.470909 
L 309.016138 -2.470909 
L 308.265734 -2.470909 
L 307.515331 -2.470909 
L 306.764927 -2.470909 
L 306.014524 -2.470909 
L 305.26412 -2.470909 
L 304.513717 -2.470909 
L 303.763314 -2.470909 
L 303.01291 -2.470909 
L 302.262507 -2.470909 
L 301.512103 -2.470909 
L 300.7617 -2.470909 
L 300.011296 -2.470909 
L 299.260893 -2.470909 
L 298.51049 -2.470909 
L 297.760086 -2.470909 
L 297.009683 -2.470909 
L 296.259279 -2.470909 
L 295.508876 -2.470909 
L 294.758472 -2.470909 
L 294.008069 -2.470909 
L 293.257665 -2.470909 
L 292.507262 -2.470909 
L 291.756859 -2.470909 
L 291.006455 -2.470909 
L 290.256052 -2.470909 
L 289.505648 -2.470909 
L 288.755245 -2.470909 
L 288.004841 -2.470909 
L 287.254438 -2.470909 
L 286.504034 -2.470909 
L 285.753631 -2.470909 
L 285.003228 -2.470909 
L 284.252824 -2.470909 
L 283.502421 -2.470909 
L 282.752017 -2.470909 
L 282.001614 -2.470909 
L 281.25121 -2.470909 
L 280.500807 -2.470909 
L 279.750403 -2.470909 
L 279 -2.470909 
L 278.249597 -2.470909 
L 277.499193 -2.470909 
L 276.74879 -2.470909 
L 275.998386 -2.470909 
L 275.247983 -2.470909 
L 274.497579 -2.470909 
L 273.747176 -2.470909 
L 272.996772 -2.470909 
L 272.246369 -2.470909 
L 271.495966 -2.470909 
L 270.745562 -2.470909 
L 269.995159 -2.470909 
L 269.244755 -2.470909 
L 268.494352 -2.470909 
L 267.743948 -2.470909 
L 266.993545 -2.470909 
L 266.243141 -2.470909 
L 265.492738 -2.470909 
L 264.742335 -2.470909 
L 263.991931 -2.470909 
L 263.241528 -2.470909 
L 262.491124 -2.470909 
L 261.740721 -2.470909 
L 260.990317 -2.470909 
L 260.239914 -2.470909 
L 259.48951 -2.470909 
L 258.739107 -2.470909 
L 257.988704 -2.470909 
L 257.2383 -2.470909 
L 256.487897 -2.470909 
L 255.737493 -2.470909 
L 254.98709 -2.470909 
L 254.236686 -2.470909 
L 253.486283 -2.470909 
L 252.73588 -2.470909 
L 251.985476 -2.470909 
L 251.235073 -2.470909 
L 250.484669 -2.470909 
L 249.734266 -2.470909 
L 248.983862 -2.470909 
L 248.233459 -2.470909 
L 247.483055 -2.470909 
L 246.732652 -2.470909 
L 245.982249 -2.470909 
L 245.231845 -2.470909 
L 244.481442 -2.470909 
L 243.731038 -2.470909 
L 242.980635 -2.470909 
L 242.230231 -2.470909 
L 241.479828 -2.470909 
L 240.729424 -2.470909 
L 239.979021 -2.470909 
L 239.228618 -2.470909 
L 238.478214 -2.470909 
L 237.727811 -2.470909 
L 236.977407 -2.470909 
L 236.227004 -2.470909 
L 235.4766 -2.470909 
L 234.726197 -2.470909 
L 233.975793 -2.470909 
L 233.22539 -2.470909 
L 232.474987 -2.470909 
L 231.724583 -2.470909 
L 230.97418 -2.470909 
L 230.223776 -2.470909 
L 229.473373 -2.470909 
L 228.722969 -2.470909 
L 227.972566 -2.470909 
L 227.222162 -2.470909 
L 226.471759 -2.470909 
L 225.721356 -2.470909 
L 224.970952 -2.470909 
L 224.220549 -2.470909 
L 223.470145 -2.470909 
L 222.719742 -2.470909 
L 221.969338 -2.470909 
L 221.218935 -2.470909 
L 220.468531 -2.470909 
L 219.718128 -2.470909 
L 218.967725 -2.470909 
L 218.217321 -2.470909 
L 217.466918 -2.470909 
L 216.716514 -2.470909 
L 215.966111 -2.470909 
L 215.215707 -2.470909 
L 214.465304 -2.470909 
L 213.7149 -2.470909 
L 212.964497 -2.470909 
L 212.214094 -2.470909 
L 211.46369 -2.470909 
L 210.713287 -2.470909 
L 209.962883 -2.470909 
L 209.21248 -2.470909 
L 208.462076 -2.470909 
L 207.711673 -2.470909 
L 206.961269 -2.470909 
L 206.210866 -2.470909 
L 205.460463 -2.470909 
L 204.710059 -2.470909 
L 203.959656 -2.470909 
L 203.209252 -2.470909 
L 202.458849 -2.470909 
L 201.708445 -2.470909 
L 200.958042 -2.470909 
L 200.207639 -2.470909 
L 199.457235 -2.470909 
L 198.706832 -2.470909 
L 197.956428 -2.470909 
L 197.206025 -2.470909 
L 196.455621 -2.470909 
L 195.705218 -2.470909 
L 194.954814 -2.470909 
L 194.204411 -2.470909 
L 193.454008 -2.470909 
L 192.703604 -2.470909 
L 191.953201 -2.470909 
L 191.202797 -2.470909 
L 190.452394 -2.470909 
L 189.70199 -2.470909 
L 188.951587 -2.470909 
L 188.201183 -2.470909 
L 187.45078 -2.470909 
L 186.700377 -2.470909 
L 185.949973 -2.470909 
L 185.19957 -2.470909 
L 184.449166 -2.470909 
L 183.698763 -2.470909 
L 182.948359 -2.470909 
L 182.197956 -2.470909 
L 181.447552 -2.470909 
L 180.697149 -2.470909 
L 179.946746 -2.470909 
L 179.196342 -2.470909 
L 178.445939 -2.470909 
z
" style="stroke: #cf1313; stroke-opacity: 0.2"/>
    </defs>
    <g clip-path="url(#p63d83434e2)">
     <use xlink:href="#m0d042476a6" x="0" y="54.36" style="fill: #cf1313; fill-opacity: 0.2; stroke: #cf1313; stroke-opacity: 0.2"/>
    </g>
   </g>
   <g id="PolyCollection_2">
    <defs>
     <path id="mf48c5d4ab5" d="M 390.05971 -2.470909 
L 390.05971 -3.908008 
L 390.810113 -4.0149 
L 391.560516 -4.131495 
L 392.31092 -4.257654 
L 393.061323 -4.392899 
L 393.811727 -4.53639 
L 394.56213 -4.686952 
L 395.312534 -4.843147 
L 396.062937 -5.003417 
L 396.813341 -5.16627 
L 397.563744 -5.330512 
L 398.314147 -5.49548 
L 399.064551 -5.66125 
L 399.814954 -5.828775 
L 400.565358 -5.999922 
L 401.315761 -6.177395 
L 402.066165 -6.364532 
L 402.816568 -6.565012 
L 403.566971 -6.782498 
L 404.317375 -7.02026 
L 405.067778 -7.280848 
L 405.818182 -7.565839 
L 406.568585 -7.875696 
L 407.318989 -8.209752 
L 408.069392 -8.566318 
L 408.819796 -8.942874 
L 409.570199 -9.336342 
L 410.320602 -9.743378 
L 411.071006 -10.160672 
L 411.821409 -10.585228 
L 412.571813 -11.014597 
L 413.322216 -11.447062 
L 414.07262 -11.881746 
L 414.823023 -12.318653 
L 415.573427 -12.758606 
L 416.32383 -13.203105 
L 417.074233 -13.654099 
L 417.824637 -14.113693 
L 418.57504 -14.583847 
L 419.325444 -15.0661 
L 420.075847 -15.561375 
L 420.826251 -16.069908 
L 421.576654 -16.591293 
L 422.327058 -17.124642 
L 423.077461 -17.668795 
L 423.827864 -18.222522 
L 424.578268 -18.784653 
L 425.328671 -19.354087 
L 426.079075 -19.929686 
L 426.829478 -20.51007 
L 427.579882 -21.093387 
L 428.330285 -21.677153 
L 429.080689 -22.258222 
L 429.831092 -22.832955 
L 430.581495 -23.397599 
L 431.331899 -23.948824 
L 432.082302 -24.484349 
L 432.832706 -25.003524 
L 433.583109 -25.507763 
L 434.333513 -26.000703 
L 435.083916 -26.488025 
L 435.83432 -26.976943 
L 436.584723 -27.475387 
L 437.335126 -27.991009 
L 438.08553 -28.530158 
L 438.835933 -29.096992 
L 439.586337 -29.692875 
L 440.33674 -30.316179 
L 441.087144 -30.962526 
L 441.837547 -31.625432 
L 442.587951 -32.297237 
L 443.338354 -32.970129 
L 444.088757 -33.63708 
L 444.839161 -34.292489 
L 445.589564 -34.932422 
L 446.339968 -35.55443 
L 447.090371 -36.157005 
L 447.840775 -36.738853 
L 448.591178 -37.29818 
L 449.341581 -37.832205 
L 450.091985 -38.33704 
L 450.842388 -38.807972 
L 451.592792 -39.240117 
L 452.343195 -39.629257 
L 453.093599 -39.972683 
L 453.844002 -40.269826 
L 454.594406 -40.522521 
L 455.344809 -40.734846 
L 456.095212 -40.91256 
L 456.845616 -41.062255 
L 457.596019 -41.190392 
L 458.346423 -41.302405 
L 459.096826 -41.401992 
L 459.84723 -41.490708 
L 460.597633 -41.567865 
L 461.348037 -41.630717 
L 462.09844 -41.674863 
L 462.848843 -41.694792 
L 463.599247 -41.684492 
L 464.34965 -41.638067 
L 465.100054 -41.550302 
L 465.850457 -41.417152 
L 466.600861 -41.236103 
L 467.351264 -41.006394 
L 468.101668 -40.729091 
L 468.852071 -40.406997 
L 469.602474 -40.044433 
L 470.352878 -39.646915 
L 471.103281 -39.220768 
L 471.853685 -38.77271 
L 472.604088 -38.30946 
L 473.354492 -37.837379 
L 474.104895 -37.362169 
L 474.855299 -36.888648 
L 475.605702 -36.420583 
L 476.356105 -35.960611 
L 477.106509 -35.510198 
L 477.856912 -35.069656 
L 478.607316 -34.638181 
L 479.357719 -34.213897 
L 480.108123 -33.793901 
L 480.858526 -33.374328 
L 481.60893 -32.950438 
L 482.359333 -32.51678 
L 483.109736 -32.067449 
L 483.86014 -31.596459 
L 484.610543 -31.098211 
L 485.360947 -30.568019 
L 486.11135 -30.002615 
L 486.861754 -29.400565 
L 487.612157 -28.762511 
L 488.362561 -28.091196 
L 489.112964 -27.391258 
L 489.863367 -26.668819 
L 490.613771 -25.930924 
L 491.364174 -25.184913 
L 492.114578 -24.43781 
L 492.864981 -23.695815 
L 493.615385 -22.963948 
L 494.365788 -22.245887 
L 495.116192 -21.543992 
L 495.866595 -20.859482 
L 496.616998 -20.192711 
L 497.367402 -19.54347 
L 498.117805 -18.911272 
L 498.868209 -18.295555 
L 499.618612 -17.69581 
L 500.369016 -17.111627 
L 501.119419 -16.542694 
L 501.869822 -15.988775 
L 502.620226 -15.449697 
L 503.370629 -14.925359 
L 504.121033 -14.41576 
L 504.871436 -13.921022 
L 505.62184 -13.441413 
L 506.372243 -12.977331 
L 507.122647 -12.529272 
L 507.87305 -12.09777 
L 508.623453 -11.683334 
L 509.373857 -11.28639 
L 510.12426 -10.907233 
L 510.874664 -10.546 
L 511.625067 -10.202642 
L 512.375471 -9.876894 
L 513.125874 -9.568246 
L 513.876278 -9.275889 
L 514.626681 -8.998673 
L 515.377084 -8.735086 
L 516.127488 -8.483263 
L 516.877891 -8.24106 
L 517.628295 -8.006175 
L 518.378698 -7.776335 
L 519.129102 -7.549493 
L 519.879505 -7.324031 
L 520.629909 -7.098904 
L 521.380312 -6.873717 
L 522.130715 -6.6487 
L 522.881119 -6.424601 
L 523.631522 -6.202507 
L 524.381926 -5.983643 
L 525.132329 -5.769187 
L 525.882733 -5.560141 
L 526.633136 -5.357278 
L 527.38354 -5.161163 
L 528.133943 -4.972226 
L 528.884346 -4.790849 
L 529.63475 -4.61744 
L 530.385153 -4.452455 
L 531.135557 -4.296379 
L 531.88596 -4.149653 
L 532.636364 -4.012605 
L 532.636364 -2.470909 
L 532.636364 -2.470909 
L 531.88596 -2.470909 
L 531.135557 -2.470909 
L 530.385153 -2.470909 
L 529.63475 -2.470909 
L 528.884346 -2.470909 
L 528.133943 -2.470909 
L 527.38354 -2.470909 
L 526.633136 -2.470909 
L 525.882733 -2.470909 
L 525.132329 -2.470909 
L 524.381926 -2.470909 
L 523.631522 -2.470909 
L 522.881119 -2.470909 
L 522.130715 -2.470909 
L 521.380312 -2.470909 
L 520.629909 -2.470909 
L 519.879505 -2.470909 
L 519.129102 -2.470909 
L 518.378698 -2.470909 
L 517.628295 -2.470909 
L 516.877891 -2.470909 
L 516.127488 -2.470909 
L 515.377084 -2.470909 
L 514.626681 -2.470909 
L 513.876278 -2.470909 
L 513.125874 -2.470909 
L 512.375471 -2.470909 
L 511.625067 -2.470909 
L 510.874664 -2.470909 
L 510.12426 -2.470909 
L 509.373857 -2.470909 
L 508.623453 -2.470909 
L 507.87305 -2.470909 
L 507.122647 -2.470909 
L 506.372243 -2.470909 
L 505.62184 -2.470909 
L 504.871436 -2.470909 
L 504.121033 -2.470909 
L 503.370629 -2.470909 
L 502.620226 -2.470909 
L 501.869822 -2.470909 
L 501.119419 -2.470909 
L 500.369016 -2.470909 
L 499.618612 -2.470909 
L 498.868209 -2.470909 
L 498.117805 -2.470909 
L 497.367402 -2.470909 
L 496.616998 -2.470909 
L 495.866595 -2.470909 
L 495.116192 -2.470909 
L 494.365788 -2.470909 
L 493.615385 -2.470909 
L 492.864981 -2.470909 
L 492.114578 -2.470909 
L 491.364174 -2.470909 
L 490.613771 -2.470909 
L 489.863367 -2.470909 
L 489.112964 -2.470909 
L 488.362561 -2.470909 
L 487.612157 -2.470909 
L 486.861754 -2.470909 
L 486.11135 -2.470909 
L 485.360947 -2.470909 
L 484.610543 -2.470909 
L 483.86014 -2.470909 
L 483.109736 -2.470909 
L 482.359333 -2.470909 
L 481.60893 -2.470909 
L 480.858526 -2.470909 
L 480.108123 -2.470909 
L 479.357719 -2.470909 
L 478.607316 -2.470909 
L 477.856912 -2.470909 
L 477.106509 -2.470909 
L 476.356105 -2.470909 
L 475.605702 -2.470909 
L 474.855299 -2.470909 
L 474.104895 -2.470909 
L 473.354492 -2.470909 
L 472.604088 -2.470909 
L 471.853685 -2.470909 
L 471.103281 -2.470909 
L 470.352878 -2.470909 
L 469.602474 -2.470909 
L 468.852071 -2.470909 
L 468.101668 -2.470909 
L 467.351264 -2.470909 
L 466.600861 -2.470909 
L 465.850457 -2.470909 
L 465.100054 -2.470909 
L 464.34965 -2.470909 
L 463.599247 -2.470909 
L 462.848843 -2.470909 
L 462.09844 -2.470909 
L 461.348037 -2.470909 
L 460.597633 -2.470909 
L 459.84723 -2.470909 
L 459.096826 -2.470909 
L 458.346423 -2.470909 
L 457.596019 -2.470909 
L 456.845616 -2.470909 
L 456.095212 -2.470909 
L 455.344809 -2.470909 
L 454.594406 -2.470909 
L 453.844002 -2.470909 
L 453.093599 -2.470909 
L 452.343195 -2.470909 
L 451.592792 -2.470909 
L 450.842388 -2.470909 
L 450.091985 -2.470909 
L 449.341581 -2.470909 
L 448.591178 -2.470909 
L 447.840775 -2.470909 
L 447.090371 -2.470909 
L 446.339968 -2.470909 
L 445.589564 -2.470909 
L 444.839161 -2.470909 
L 444.088757 -2.470909 
L 443.338354 -2.470909 
L 442.587951 -2.470909 
L 441.837547 -2.470909 
L 441.087144 -2.470909 
L 440.33674 -2.470909 
L 439.586337 -2.470909 
L 438.835933 -2.470909 
L 438.08553 -2.470909 
L 437.335126 -2.470909 
L 436.584723 -2.470909 
L 435.83432 -2.470909 
L 435.083916 -2.470909 
L 434.333513 -2.470909 
L 433.583109 -2.470909 
L 432.832706 -2.470909 
L 432.082302 -2.470909 
L 431.331899 -2.470909 
L 430.581495 -2.470909 
L 429.831092 -2.470909 
L 429.080689 -2.470909 
L 428.330285 -2.470909 
L 427.579882 -2.470909 
L 426.829478 -2.470909 
L 426.079075 -2.470909 
L 425.328671 -2.470909 
L 424.578268 -2.470909 
L 423.827864 -2.470909 
L 423.077461 -2.470909 
L 422.327058 -2.470909 
L 421.576654 -2.470909 
L 420.826251 -2.470909 
L 420.075847 -2.470909 
L 419.325444 -2.470909 
L 418.57504 -2.470909 
L 417.824637 -2.470909 
L 417.074233 -2.470909 
L 416.32383 -2.470909 
L 415.573427 -2.470909 
L 414.823023 -2.470909 
L 414.07262 -2.470909 
L 413.322216 -2.470909 
L 412.571813 -2.470909 
L 411.821409 -2.470909 
L 411.071006 -2.470909 
L 410.320602 -2.470909 
L 409.570199 -2.470909 
L 408.819796 -2.470909 
L 408.069392 -2.470909 
L 407.318989 -2.470909 
L 406.568585 -2.470909 
L 405.818182 -2.470909 
L 405.067778 -2.470909 
L 404.317375 -2.470909 
L 403.566971 -2.470909 
L 402.816568 -2.470909 
L 402.066165 -2.470909 
L 401.315761 -2.470909 
L 400.565358 -2.470909 
L 399.814954 -2.470909 
L 399.064551 -2.470909 
L 398.314147 -2.470909 
L 397.563744 -2.470909 
L 396.813341 -2.470909 
L 396.062937 -2.470909 
L 395.312534 -2.470909 
L 394.56213 -2.470909 
L 393.811727 -2.470909 
L 393.061323 -2.470909 
L 392.31092 -2.470909 
L 391.560516 -2.470909 
L 390.810113 -2.470909 
L 390.05971 -2.470909 
z
" style="stroke: #116dc2; stroke-opacity: 0.2"/>
    </defs>
    <g clip-path="url(#p63d83434e2)">
     <use xlink:href="#mf48c5d4ab5" x="0" y="54.36" style="fill: #116dc2; fill-opacity: 0.2; stroke: #116dc2; stroke-opacity: 0.2"/>
    </g>
   </g>
   <g id="PolyCollection_3">
    <defs>
     <path id="m09873b9b3c" d="M 25.363636 -2.470909 
L 25.363636 -4.407595 
L 26.11404 -4.883763 
L 26.864443 -5.505557 
L 27.614847 -6.313751 
L 28.36525 -7.279206 
L 29.115654 -8.318613 
L 29.866057 -9.380705 
L 30.61646 -10.522412 
L 31.366864 -11.877733 
L 32.117267 -13.532488 
L 32.867671 -15.434514 
L 33.618074 -17.432049 
L 34.368478 -19.397304 
L 35.118881 -21.327811 
L 35.869285 -23.336924 
L 36.619688 -25.543376 
L 37.370091 -27.988703 
L 38.120495 -30.642864 
L 38.870898 -33.423635 
L 39.621302 -36.208825 
L 40.371705 -38.884144 
L 41.122109 -41.376908 
L 41.872512 -43.59544 
L 42.622916 -45.380269 
L 43.373319 -46.665003 
L 44.123722 -47.690806 
L 44.874126 -48.833431 
L 45.624529 -50.134357 
L 46.374933 -51.224638 
L 47.125336 -51.791192 
L 47.87574 -51.889091 
L 48.626143 -51.707678 
L 49.376547 -51.228649 
L 50.12695 -50.23747 
L 50.877353 -48.603728 
L 51.627757 -46.460941 
L 52.37816 -44.078262 
L 53.128564 -41.625278 
L 53.878967 -39.142603 
L 54.629371 -36.671201 
L 55.379774 -34.294001 
L 56.130178 -32.045986 
L 56.880581 -29.845072 
L 57.630984 -27.550485 
L 58.381388 -25.107734 
L 59.131791 -22.632567 
L 59.882195 -20.305031 
L 60.632598 -18.193108 
L 61.383002 -16.248088 
L 62.133405 -14.427364 
L 62.883808 -12.738566 
L 63.634212 -11.202986 
L 64.384615 -9.843186 
L 65.135019 -8.685314 
L 65.885422 -7.722968 
L 66.635826 -6.889817 
L 67.386229 -6.110845 
L 68.136633 -5.373591 
L 68.887036 -4.725951 
L 68.887036 -2.470909 
L 68.887036 -2.470909 
L 68.136633 -2.470909 
L 67.386229 -2.470909 
L 66.635826 -2.470909 
L 65.885422 -2.470909 
L 65.135019 -2.470909 
L 64.384615 -2.470909 
L 63.634212 -2.470909 
L 62.883808 -2.470909 
L 62.133405 -2.470909 
L 61.383002 -2.470909 
L 60.632598 -2.470909 
L 59.882195 -2.470909 
L 59.131791 -2.470909 
L 58.381388 -2.470909 
L 57.630984 -2.470909 
L 56.880581 -2.470909 
L 56.130178 -2.470909 
L 55.379774 -2.470909 
L 54.629371 -2.470909 
L 53.878967 -2.470909 
L 53.128564 -2.470909 
L 52.37816 -2.470909 
L 51.627757 -2.470909 
L 50.877353 -2.470909 
L 50.12695 -2.470909 
L 49.376547 -2.470909 
L 48.626143 -2.470909 
L 47.87574 -2.470909 
L 47.125336 -2.470909 
L 46.374933 -2.470909 
L 45.624529 -2.470909 
L 44.874126 -2.470909 
L 44.123722 -2.470909 
L 43.373319 -2.470909 
L 42.622916 -2.470909 
L 41.872512 -2.470909 
L 41.122109 -2.470909 
L 40.371705 -2.470909 
L 39.621302 -2.470909 
L 38.870898 -2.470909 
L 38.120495 -2.470909 
L 37.370091 -2.470909 
L 36.619688 -2.470909 
L 35.869285 -2.470909 
L 35.118881 -2.470909 
L 34.368478 -2.470909 
L 33.618074 -2.470909 
L 32.867671 -2.470909 
L 32.117267 -2.470909 
L 31.366864 -2.470909 
L 30.61646 -2.470909 
L 29.866057 -2.470909 
L 29.115654 -2.470909 
L 28.36525 -2.470909 
L 27.614847 -2.470909 
L 26.864443 -2.470909 
L 26.11404 -2.470909 
L 25.363636 -2.470909 
z
" style="stroke: #8a8a8a; stroke-opacity: 0.2"/>
    </defs>
    <g clip-path="url(#p63d83434e2)">
     <use xlink:href="#m09873b9b3c" x="0" y="54.36" style="fill: #8a8a8a; fill-opacity: 0.2; stroke: #8a8a8a; stroke-opacity: 0.2"/>
    </g>
   </g>
   <g id="line2d_1">
    <path d="M 178.445939 50.170757 
L 182.197956 49.325038 
L 185.19957 48.429843 
L 187.45078 47.574745 
L 190.452394 46.149435 
L 199.457235 41.330831 
L 201.708445 39.811104 
L 205.460463 36.930004 
L 214.465304 29.85819 
L 220.468531 25.45326 
L 222.719742 23.343603 
L 228.722969 17.170768 
L 230.223776 16.04732 
L 231.724583 15.160256 
L 233.975793 14.138456 
L 236.977407 13.060754 
L 239.228618 12.476028 
L 240.729424 12.294877 
L 242.230231 12.343028 
L 243.731038 12.625898 
L 245.982249 13.355992 
L 248.983862 14.369143 
L 251.985476 15.07022 
L 254.236686 15.624957 
L 255.737493 16.163503 
L 257.2383 16.898545 
L 258.739107 17.845901 
L 260.239914 18.996588 
L 262.491124 21.041134 
L 269.244755 27.628852 
L 276.74879 34.096658 
L 280.500807 37.612826 
L 282.752017 39.389509 
L 285.003228 40.815691 
L 288.004841 42.365906 
L 298.51049 47.349191 
L 301.512103 48.373462 
L 305.26412 49.391024 
L 309.016138 50.161459 
L 309.016138 50.161459 
" clip-path="url(#p63d83434e2)" style="fill: none; stroke: #cf1313; stroke-width: 1.5; stroke-linecap: square"/>
   </g>
   <g id="line2d_2">
    <path d="M 390.05971 50.451992 
L 393.811727 49.82361 
L 400.565358 48.360078 
L 403.566971 47.577502 
L 405.818182 46.794161 
L 408.069392 45.793682 
L 411.071006 44.199328 
L 417.074233 40.705901 
L 420.826251 38.290092 
L 424.578268 35.575347 
L 433.583109 28.852237 
L 438.08553 25.829842 
L 440.33674 24.043821 
L 448.591178 17.06182 
L 450.842388 15.552028 
L 452.343195 14.730743 
L 453.844002 14.090174 
L 456.095212 13.44744 
L 459.096826 12.958008 
L 462.09844 12.685137 
L 464.34965 12.721933 
L 465.850457 12.942848 
L 467.351264 13.353606 
L 468.852071 13.953003 
L 471.103281 15.139232 
L 484.610543 23.261789 
L 486.861754 24.959435 
L 489.112964 26.968742 
L 497.367402 34.81653 
L 500.369016 37.248373 
L 503.370629 39.434641 
L 506.372243 41.382669 
L 509.373857 43.07361 
L 512.375471 44.483106 
L 515.377084 45.624914 
L 519.879505 47.035969 
L 527.38354 49.198837 
L 531.135557 50.063621 
L 532.636364 50.347395 
L 532.636364 50.347395 
" clip-path="url(#p63d83434e2)" style="fill: none; stroke: #116dc2; stroke-width: 1.5; stroke-linecap: square"/>
   </g>
   <g id="line2d_3">
    <path d="M 25.363636 49.952405 
L 26.11404 49.476237 
L 26.864443 48.854443 
L 27.614847 48.046249 
L 28.36525 47.080794 
L 29.115654 46.041387 
L 29.866057 44.979295 
L 30.61646 43.837588 
L 31.366864 42.482267 
L 32.117267 40.827512 
L 32.867671 38.925486 
L 33.618074 36.927951 
L 34.368478 34.962696 
L 35.118881 33.032189 
L 35.869285 31.023076 
L 36.619688 28.816624 
L 37.370091 26.371297 
L 38.120495 23.717136 
L 38.870898 20.936365 
L 39.621302 18.151175 
L 40.371705 15.475856 
L 41.122109 12.983092 
L 41.872512 10.76456 
L 42.622916 8.979731 
L 43.373319 7.694997 
L 44.123722 6.669194 
L 44.874126 5.526569 
L 45.624529 4.225643 
L 46.374933 3.135362 
L 47.125336 2.568808 
L 47.87574 2.470909 
L 48.626143 2.652322 
L 49.376547 3.131351 
L 50.12695 4.12253 
L 50.877353 5.756272 
L 51.627757 7.899059 
L 52.37816 10.281738 
L 53.128564 12.734722 
L 53.878967 15.217397 
L 54.629371 17.688799 
L 55.379774 20.065999 
L 56.130178 22.314014 
L 56.880581 24.514928 
L 57.630984 26.809515 
L 58.381388 29.252266 
L 59.131791 31.727433 
L 59.882195 34.054969 
L 60.632598 36.166892 
L 61.383002 38.111912 
L 62.133405 39.932636 
L 62.883808 41.621434 
L 63.634212 43.157014 
L 64.384615 44.516814 
L 65.135019 45.674686 
L 65.885422 46.637032 
L 66.635826 47.470183 
L 67.386229 48.249155 
L 68.136633 48.986409 
L 68.887036 49.634049 
" clip-path="url(#p63d83434e2)" style="fill: none; stroke: #8a8a8a; stroke-width: 1.5; stroke-linecap: square"/>
   </g>
  </g>
 </g>
 <defs>
  <clipPath id="p63d83434e2">
   <rect x="0" y="-0" width="558" height="54.36"/>
  </clipPath>
 </defs>
</svg>
