<?xml version="1.0" encoding="utf-8" standalone="no"?>
<!DOCTYPE svg PUBLIC "-//W3C//DTD SVG 1.1//EN"
  "http://www.w3.org/Graphics/SVG/1.1/DTD/svg11.dtd">
<svg xmlns:xlink="http://www.w3.org/1999/xlink" width="558pt" height="54.36pt" viewBox="0 0 558 54.36" xmlns="http://www.w3.org/2000/svg" version="1.1">
 <metadata>
  <rdf:RDF xmlns:dc="http://purl.org/dc/elements/1.1/" xmlns:cc="http://creativecommons.org/ns#" xmlns:rdf="http://www.w3.org/1999/02/22-rdf-syntax-ns#">
   <cc:Work>
    <dc:type rdf:resource="http://purl.org/dc/dcmitype/StillImage"/>
    <dc:date>2024-09-15T09:31:43.379575</dc:date>
    <dc:format>image/svg+xml</dc:format>
    <dc:creator>
     <cc:Agent>
      <dc:title>Matplotlib v3.5.2, https://matplotlib.org/</dc:title>
     </cc:Agent>
    </dc:creator>
   </cc:Work>
  </rdf:RDF>
 </metadata>
 <defs>
  <style type="text/css">*{stroke-linejoin: round; stroke-linecap: butt}</style>
 </defs>
 <g id="figure_1">
  <g id="patch_1">
   <path d="M 0 54.36 
L 558 54.36 
L 558 0 
L 0 0 
L 0 54.36 
z
" style="fill: none; opacity: 0"/>
  </g>
  <g id="axes_1">
   <g id="PolyCollection_1">
    <defs>
     <path id="m22e24790c0" d="M 175.431818 -2.470909 
L 175.431818 -3.88982 
L 176.136364 -3.970682 
L 176.840909 -4.060496 
L 177.545455 -4.160393 
L 178.25 -4.271179 
L 178.954545 -4.393264 
L 179.659091 -4.526631 
L 180.363636 -4.670868 
L 181.068182 -4.825242 
L 181.772727 -4.988829 
L 182.477273 -5.16067 
L 183.181818 -5.339933 
L 183.886364 -5.526053 
L 184.590909 -5.71882 
L 185.295455 -5.918412 
L 186 -6.125345 
L 186.704545 -6.340377 
L 187.409091 -6.564363 
L 188.113636 -6.798102 
L 188.818182 -7.042213 
L 189.522727 -7.297052 
L 190.227273 -7.562707 
L 190.931818 -7.839056 
L 191.636364 -8.125895 
L 192.340909 -8.42309 
L 193.045455 -8.730725 
L 193.75 -9.049204 
L 194.454545 -9.379271 
L 195.159091 -9.721916 
L 195.863636 -10.078182 
L 196.568182 -10.44888 
L 197.272727 -10.834266 
L 197.977273 -11.23374 
L 198.681818 -11.645647 
L 199.386364 -12.067242 
L 200.090909 -12.494863 
L 200.795455 -12.924341 
L 201.5 -13.351587 
L 202.204545 -13.773305 
L 202.909091 -14.187701 
L 203.613636 -14.595058 
L 204.318182 -14.99805 
L 205.022727 -15.401699 
L 205.727273 -15.81293 
L 206.431818 -16.239764 
L 207.136364 -16.690237 
L 207.840909 -17.171217 
L 208.545455 -17.687318 
L 209.25 -18.24008 
L 209.954545 -18.82759 
L 210.659091 -19.444614 
L 211.363636 -20.083231 
L 212.068182 -20.733889 
L 212.772727 -21.386699 
L 213.477273 -22.032783 
L 214.181818 -22.665447 
L 214.886364 -23.281016 
L 215.590909 -23.879194 
L 216.295455 -24.462932 
L 217 -25.037803 
L 217.704545 -25.611028 
L 218.409091 -26.190265 
L 219.113636 -26.782369 
L 219.818182 -27.39227 
L 220.522727 -28.022143 
L 221.227273 -28.670954 
L 221.931818 -29.334438 
L 222.636364 -30.005504 
L 223.340909 -30.674985 
L 224.045455 -31.33262 
L 224.75 -31.968145 
L 225.454545 -32.572331 
L 226.159091 -33.137866 
L 226.863636 -33.659977 
L 227.568182 -34.136749 
L 228.272727 -34.569151 
L 228.977273 -34.960783 
L 229.681818 -35.317421 
L 230.386364 -35.64642 
L 231.090909 -35.956062 
L 231.795455 -36.254892 
L 232.5 -36.55112 
L 233.204545 -36.852083 
L 233.909091 -37.163822 
L 234.613636 -37.490745 
L 235.318182 -37.835389 
L 236.022727 -38.19827 
L 236.727273 -38.577805 
L 237.431818 -38.970321 
L 238.136364 -39.370151 
L 238.840909 -39.769817 
L 239.545455 -40.160342 
L 240.25 -40.531676 
L 240.954545 -40.873254 
L 241.659091 -41.174663 
L 242.363636 -41.426383 
L 243.068182 -41.620545 
L 243.772727 -41.751615 
L 244.477273 -41.816933 
L 245.181818 -41.817017 
L 245.886364 -41.755564 
L 246.590909 -41.639153 
L 247.295455 -41.476637 
L 248 -41.278329 
L 248.704545 -41.055045 
L 249.409091 -40.81716 
L 250.113636 -40.573751 
L 250.818182 -40.331951 
L 251.522727 -40.096527 
L 252.227273 -39.869715 
L 252.931818 -39.651265 
L 253.636364 -39.438653 
L 254.340909 -39.227401 
L 255.045455 -39.011468 
L 255.75 -38.783686 
L 256.454545 -38.536255 
L 257.159091 -38.261293 
L 257.863636 -37.951456 
L 258.568182 -37.600603 
L 259.272727 -37.204464 
L 259.977273 -36.761205 
L 260.681818 -36.271816 
L 261.386364 -35.740203 
L 262.090909 -35.172926 
L 262.795455 -34.578589 
L 263.5 -33.966929 
L 264.204545 -33.347743 
L 264.909091 -32.729814 
L 265.613636 -32.120018 
L 266.318182 -31.52275 
L 267.022727 -30.939753 
L 267.727273 -30.370357 
L 268.431818 -29.812031 
L 269.136364 -29.261145 
L 269.840909 -28.713747 
L 270.545455 -28.166242 
L 271.25 -27.615842 
L 271.954545 -27.060778 
L 272.659091 -26.500265 
L 273.363636 -25.934313 
L 274.068182 -25.363454 
L 274.772727 -24.788489 
L 275.477273 -24.210292 
L 276.181818 -23.629714 
L 276.886364 -23.047565 
L 277.590909 -22.464659 
L 278.295455 -21.881873 
L 279 -21.300206 
L 279.704545 -20.72082 
L 280.409091 -20.145054 
L 281.113636 -19.574432 
L 281.818182 -19.01065 
L 282.522727 -18.455554 
L 283.227273 -17.911076 
L 283.931818 -17.379127 
L 284.636364 -16.861436 
L 285.340909 -16.359329 
L 286.045455 -15.873488 
L 286.75 -15.403731 
L 287.454545 -14.948878 
L 288.159091 -14.50674 
L 288.863636 -14.074281 
L 289.568182 -13.647952 
L 290.272727 -13.224151 
L 290.977273 -12.799745 
L 291.681818 -12.372565 
L 292.386364 -11.941788 
L 293.090909 -11.508119 
L 293.795455 -11.073754 
L 294.5 -10.642119 
L 295.204545 -10.217434 
L 295.909091 -9.804173 
L 296.613636 -9.40653 
L 297.318182 -9.027947 
L 298.022727 -8.670806 
L 298.727273 -8.336282 
L 299.431818 -8.024395 
L 300.136364 -7.73419 
L 300.840909 -7.464022 
L 301.545455 -7.211858 
L 302.25 -6.975546 
L 302.954545 -6.753015 
L 303.659091 -6.542381 
L 304.363636 -6.341965 
L 305.068182 -6.150268 
L 305.772727 -5.96592 
L 306.477273 -5.787649 
L 307.181818 -5.614293 
L 307.886364 -5.444853 
L 308.590909 -5.278571 
L 309.295455 -5.115014 
L 310 -4.954127 
L 310.704545 -4.796241 
L 311.409091 -4.642019 
L 312.113636 -4.492356 
L 312.818182 -4.348248 
L 313.522727 -4.210664 
L 314.227273 -4.080441 
L 314.931818 -3.95822 
L 315.636364 -3.844429 
L 315.636364 -2.470909 
L 315.636364 -2.470909 
L 314.931818 -2.470909 
L 314.227273 -2.470909 
L 313.522727 -2.470909 
L 312.818182 -2.470909 
L 312.113636 -2.470909 
L 311.409091 -2.470909 
L 310.704545 -2.470909 
L 310 -2.470909 
L 309.295455 -2.470909 
L 308.590909 -2.470909 
L 307.886364 -2.470909 
L 307.181818 -2.470909 
L 306.477273 -2.470909 
L 305.772727 -2.470909 
L 305.068182 -2.470909 
L 304.363636 -2.470909 
L 303.659091 -2.470909 
L 302.954545 -2.470909 
L 302.25 -2.470909 
L 301.545455 -2.470909 
L 300.840909 -2.470909 
L 300.136364 -2.470909 
L 299.431818 -2.470909 
L 298.727273 -2.470909 
L 298.022727 -2.470909 
L 297.318182 -2.470909 
L 296.613636 -2.470909 
L 295.909091 -2.470909 
L 295.204545 -2.470909 
L 294.5 -2.470909 
L 293.795455 -2.470909 
L 293.090909 -2.470909 
L 292.386364 -2.470909 
L 291.681818 -2.470909 
L 290.977273 -2.470909 
L 290.272727 -2.470909 
L 289.568182 -2.470909 
L 288.863636 -2.470909 
L 288.159091 -2.470909 
L 287.454545 -2.470909 
L 286.75 -2.470909 
L 286.045455 -2.470909 
L 285.340909 -2.470909 
L 284.636364 -2.470909 
L 283.931818 -2.470909 
L 283.227273 -2.470909 
L 282.522727 -2.470909 
L 281.818182 -2.470909 
L 281.113636 -2.470909 
L 280.409091 -2.470909 
L 279.704545 -2.470909 
L 279 -2.470909 
L 278.295455 -2.470909 
L 277.590909 -2.470909 
L 276.886364 -2.470909 
L 276.181818 -2.470909 
L 275.477273 -2.470909 
L 274.772727 -2.470909 
L 274.068182 -2.470909 
L 273.363636 -2.470909 
L 272.659091 -2.470909 
L 271.954545 -2.470909 
L 271.25 -2.470909 
L 270.545455 -2.470909 
L 269.840909 -2.470909 
L 269.136364 -2.470909 
L 268.431818 -2.470909 
L 267.727273 -2.470909 
L 267.022727 -2.470909 
L 266.318182 -2.470909 
L 265.613636 -2.470909 
L 264.909091 -2.470909 
L 264.204545 -2.470909 
L 263.5 -2.470909 
L 262.795455 -2.470909 
L 262.090909 -2.470909 
L 261.386364 -2.470909 
L 260.681818 -2.470909 
L 259.977273 -2.470909 
L 259.272727 -2.470909 
L 258.568182 -2.470909 
L 257.863636 -2.470909 
L 257.159091 -2.470909 
L 256.454545 -2.470909 
L 255.75 -2.470909 
L 255.045455 -2.470909 
L 254.340909 -2.470909 
L 253.636364 -2.470909 
L 252.931818 -2.470909 
L 252.227273 -2.470909 
L 251.522727 -2.470909 
L 250.818182 -2.470909 
L 250.113636 -2.470909 
L 249.409091 -2.470909 
L 248.704545 -2.470909 
L 248 -2.470909 
L 247.295455 -2.470909 
L 246.590909 -2.470909 
L 245.886364 -2.470909 
L 245.181818 -2.470909 
L 244.477273 -2.470909 
L 243.772727 -2.470909 
L 243.068182 -2.470909 
L 242.363636 -2.470909 
L 241.659091 -2.470909 
L 240.954545 -2.470909 
L 240.25 -2.470909 
L 239.545455 -2.470909 
L 238.840909 -2.470909 
L 238.136364 -2.470909 
L 237.431818 -2.470909 
L 236.727273 -2.470909 
L 236.022727 -2.470909 
L 235.318182 -2.470909 
L 234.613636 -2.470909 
L 233.909091 -2.470909 
L 233.204545 -2.470909 
L 232.5 -2.470909 
L 231.795455 -2.470909 
L 231.090909 -2.470909 
L 230.386364 -2.470909 
L 229.681818 -2.470909 
L 228.977273 -2.470909 
L 228.272727 -2.470909 
L 227.568182 -2.470909 
L 226.863636 -2.470909 
L 226.159091 -2.470909 
L 225.454545 -2.470909 
L 224.75 -2.470909 
L 224.045455 -2.470909 
L 223.340909 -2.470909 
L 222.636364 -2.470909 
L 221.931818 -2.470909 
L 221.227273 -2.470909 
L 220.522727 -2.470909 
L 219.818182 -2.470909 
L 219.113636 -2.470909 
L 218.409091 -2.470909 
L 217.704545 -2.470909 
L 217 -2.470909 
L 216.295455 -2.470909 
L 215.590909 -2.470909 
L 214.886364 -2.470909 
L 214.181818 -2.470909 
L 213.477273 -2.470909 
L 212.772727 -2.470909 
L 212.068182 -2.470909 
L 211.363636 -2.470909 
L 210.659091 -2.470909 
L 209.954545 -2.470909 
L 209.25 -2.470909 
L 208.545455 -2.470909 
L 207.840909 -2.470909 
L 207.136364 -2.470909 
L 206.431818 -2.470909 
L 205.727273 -2.470909 
L 205.022727 -2.470909 
L 204.318182 -2.470909 
L 203.613636 -2.470909 
L 202.909091 -2.470909 
L 202.204545 -2.470909 
L 201.5 -2.470909 
L 200.795455 -2.470909 
L 200.090909 -2.470909 
L 199.386364 -2.470909 
L 198.681818 -2.470909 
L 197.977273 -2.470909 
L 197.272727 -2.470909 
L 196.568182 -2.470909 
L 195.863636 -2.470909 
L 195.159091 -2.470909 
L 194.454545 -2.470909 
L 193.75 -2.470909 
L 193.045455 -2.470909 
L 192.340909 -2.470909 
L 191.636364 -2.470909 
L 190.931818 -2.470909 
L 190.227273 -2.470909 
L 189.522727 -2.470909 
L 188.818182 -2.470909 
L 188.113636 -2.470909 
L 187.409091 -2.470909 
L 186.704545 -2.470909 
L 186 -2.470909 
L 185.295455 -2.470909 
L 184.590909 -2.470909 
L 183.886364 -2.470909 
L 183.181818 -2.470909 
L 182.477273 -2.470909 
L 181.772727 -2.470909 
L 181.068182 -2.470909 
L 180.363636 -2.470909 
L 179.659091 -2.470909 
L 178.954545 -2.470909 
L 178.25 -2.470909 
L 177.545455 -2.470909 
L 176.840909 -2.470909 
L 176.136364 -2.470909 
L 175.431818 -2.470909 
z
" style="stroke: #cf1313; stroke-opacity: 0.2"/>
    </defs>
    <g clip-path="url(#p79de803ec4)">
     <use xlink:href="#m22e24790c0" x="0" y="54.36" style="fill: #cf1313; fill-opacity: 0.2; stroke: #cf1313; stroke-opacity: 0.2"/>
    </g>
   </g>
   <g id="PolyCollection_2">
    <defs>
     <path id="m57868d140f" d="M 292.386364 -2.470909 
L 292.386364 -3.932052 
L 293.090909 -3.983209 
L 293.795455 -4.03607 
L 294.5 -4.090826 
L 295.204545 -4.147696 
L 295.909091 -4.206927 
L 296.613636 -4.268785 
L 297.318182 -4.333547 
L 298.022727 -4.401494 
L 298.727273 -4.472896 
L 299.431818 -4.548005 
L 300.136364 -4.627037 
L 300.840909 -4.710165 
L 301.545455 -4.79751 
L 302.25 -4.889128 
L 302.954545 -4.98501 
L 303.659091 -5.085075 
L 304.363636 -5.189174 
L 305.068182 -5.297086 
L 305.772727 -5.408531 
L 306.477273 -5.523173 
L 307.181818 -5.640629 
L 307.886364 -5.760484 
L 308.590909 -5.882302 
L 309.295455 -6.005637 
L 310 -6.13005 
L 310.704545 -6.255119 
L 311.409091 -6.380456 
L 312.113636 -6.505715 
L 312.818182 -6.630607 
L 313.522727 -6.754906 
L 314.227273 -6.878461 
L 314.931818 -7.001199 
L 315.636364 -7.123133 
L 316.340909 -7.244357 
L 317.045455 -7.365052 
L 317.75 -7.485479 
L 318.454545 -7.605974 
L 319.159091 -7.726938 
L 319.863636 -7.848831 
L 320.568182 -7.972152 
L 321.272727 -8.097435 
L 321.977273 -8.225226 
L 322.681818 -8.356076 
L 323.386364 -8.490524 
L 324.090909 -8.629085 
L 324.795455 -8.772239 
L 325.5 -8.920426 
L 326.204545 -9.074034 
L 326.909091 -9.233399 
L 327.613636 -9.3988 
L 328.318182 -9.57046 
L 329.022727 -9.748547 
L 329.727273 -9.933175 
L 330.431818 -10.124406 
L 331.136364 -10.322256 
L 331.840909 -10.526695 
L 332.545455 -10.73765 
L 333.25 -10.955011 
L 333.954545 -11.178628 
L 334.659091 -11.408321 
L 335.363636 -11.643877 
L 336.068182 -11.88506 
L 336.772727 -12.131608 
L 337.477273 -12.383247 
L 338.181818 -12.63969 
L 338.886364 -12.900648 
L 339.590909 -13.165838 
L 340.295455 -13.434986 
L 341 -13.707838 
L 341.704545 -13.984162 
L 342.409091 -14.263755 
L 343.113636 -14.546445 
L 343.818182 -14.832088 
L 344.522727 -15.12057 
L 345.227273 -15.411798 
L 345.931818 -15.705699 
L 346.636364 -16.002206 
L 347.340909 -16.301254 
L 348.045455 -16.602767 
L 348.75 -16.906651 
L 349.454545 -17.212786 
L 350.159091 -17.521023 
L 350.863636 -17.831174 
L 351.568182 -18.143022 
L 352.272727 -18.456315 
L 352.977273 -18.770776 
L 353.681818 -19.086116 
L 354.386364 -19.402038 
L 355.090909 -19.718258 
L 355.795455 -20.034514 
L 356.5 -20.350582 
L 357.204545 -20.666292 
L 357.909091 -20.981532 
L 358.613636 -21.296262 
L 359.318182 -21.610515 
L 360.022727 -21.924396 
L 360.727273 -22.238074 
L 361.431818 -22.551775 
L 362.136364 -22.865765 
L 362.840909 -23.180332 
L 363.545455 -23.495762 
L 364.25 -23.81232 
L 364.954545 -24.130223 
L 365.659091 -24.449621 
L 366.363636 -24.770577 
L 367.068182 -25.093054 
L 367.772727 -25.416904 
L 368.477273 -25.741868 
L 369.181818 -26.06758 
L 369.886364 -26.393573 
L 370.590909 -26.719302 
L 371.295455 -27.044163 
L 372 -27.367514 
L 372.704545 -27.68871 
L 373.409091 -28.007122 
L 374.113636 -28.322168 
L 374.818182 -28.633332 
L 375.522727 -28.940181 
L 376.227273 -29.242376 
L 376.931818 -29.53967 
L 377.636364 -29.831914 
L 378.340909 -30.119039 
L 379.045455 -30.401044 
L 379.75 -30.677978 
L 380.454545 -30.949919 
L 381.159091 -31.216957 
L 381.863636 -31.479173 
L 382.568182 -31.736629 
L 383.272727 -31.98936 
L 383.977273 -32.237375 
L 384.681818 -32.480659 
L 385.386364 -32.719187 
L 386.090909 -32.952935 
L 386.795455 -33.181905 
L 387.5 -33.406134 
L 388.204545 -33.625717 
L 388.909091 -33.840811 
L 389.613636 -34.051645 
L 390.318182 -34.258507 
L 391.022727 -34.46174 
L 391.727273 -34.661711 
L 392.431818 -34.858784 
L 393.136364 -35.053282 
L 393.840909 -35.245447 
L 394.545455 -35.435397 
L 395.25 -35.623087 
L 395.954545 -35.808279 
L 396.659091 -35.990517 
L 397.363636 -36.169117 
L 398.068182 -36.343169 
L 398.772727 -36.511553 
L 399.477273 -36.672973 
L 400.181818 -36.826001 
L 400.886364 -36.969133 
L 401.590909 -37.100853 
L 402.295455 -37.219707 
L 403 -37.324368 
L 403.704545 -37.413709 
L 404.409091 -37.486861 
L 405.113636 -37.543265 
L 405.818182 -37.582711 
L 406.522727 -37.605361 
L 407.227273 -37.611757 
L 407.931818 -37.602812 
L 408.636364 -37.579779 
L 409.340909 -37.544222 
L 410.045455 -37.49795 
L 410.75 -37.442964 
L 411.454545 -37.38138 
L 412.159091 -37.315355 
L 412.863636 -37.247013 
L 413.568182 -37.178365 
L 414.272727 -37.111243 
L 414.977273 -37.047238 
L 415.681818 -36.987639 
L 416.386364 -36.9334 
L 417.090909 -36.885101 
L 417.795455 -36.842935 
L 418.5 -36.806703 
L 419.204545 -36.775819 
L 419.909091 -36.749332 
L 420.613636 -36.725959 
L 421.318182 -36.704126 
L 422.022727 -36.682017 
L 422.727273 -36.657633 
L 423.431818 -36.628856 
L 424.136364 -36.593515 
L 424.840909 -36.54945 
L 425.545455 -36.494587 
L 426.25 -36.426997 
L 426.954545 -36.344959 
L 427.659091 -36.247013 
L 428.363636 -36.132008 
L 429.068182 -35.999134 
L 429.772727 -35.847952 
L 430.477273 -35.678398 
L 431.181818 -35.490792 
L 431.886364 -35.285811 
L 432.590909 -35.064472 
L 433.295455 -34.828085 
L 434 -34.578206 
L 434.704545 -34.316575 
L 435.409091 -34.045053 
L 436.113636 -33.765553 
L 436.818182 -33.479973 
L 437.522727 -33.190128 
L 438.227273 -32.897697 
L 438.931818 -32.60417 
L 439.636364 -32.31081 
L 440.340909 -32.018627 
L 441.045455 -31.728366 
L 441.75 -31.440505 
L 442.454545 -31.155266 
L 443.159091 -30.872638 
L 443.863636 -30.592407 
L 444.568182 -30.31419 
L 445.272727 -30.037471 
L 445.977273 -29.761646 
L 446.681818 -29.486053 
L 447.386364 -29.21001 
L 448.090909 -28.93284 
L 448.795455 -28.653893 
L 449.5 -28.372561 
L 450.204545 -28.088292 
L 450.909091 -27.800586 
L 451.613636 -27.509003 
L 452.318182 -27.213152 
L 453.022727 -26.912694 
L 453.727273 -26.607333 
L 454.431818 -26.296817 
L 455.136364 -25.980932 
L 455.840909 -25.659512 
L 456.545455 -25.332439 
L 457.25 -24.999658 
L 457.954545 -24.661188 
L 458.659091 -24.317136 
L 459.363636 -23.967718 
L 460.068182 -23.61327 
L 460.772727 -23.254268 
L 461.477273 -22.891333 
L 462.181818 -22.52524 
L 462.886364 -22.156918 
L 463.590909 -21.787438 
L 464.295455 -21.418002 
L 465 -21.049913 
L 465.704545 -20.684546 
L 466.409091 -20.323311 
L 467.113636 -19.967606 
L 467.818182 -19.618774 
L 468.522727 -19.278055 
L 469.227273 -18.946544 
L 469.931818 -18.62515 
L 470.636364 -18.314567 
L 471.340909 -18.015251 
L 472.045455 -17.727406 
L 472.75 -17.450988 
L 473.454545 -17.185717 
L 474.159091 -16.931093 
L 474.863636 -16.686437 
L 475.568182 -16.450919 
L 476.272727 -16.223612 
L 476.977273 -16.003529 
L 477.681818 -15.789669 
L 478.386364 -15.58106 
L 479.090909 -15.376791 
L 479.795455 -15.176039 
L 480.5 -14.978091 
L 481.204545 -14.782346 
L 481.909091 -14.588324 
L 482.613636 -14.39565 
L 483.318182 -14.204048 
L 484.022727 -14.013316 
L 484.727273 -13.823307 
L 485.431818 -13.633908 
L 486.136364 -13.445017 
L 486.840909 -13.256528 
L 487.545455 -13.068314 
L 488.25 -12.880224 
L 488.954545 -12.692074 
L 489.659091 -12.503656 
L 490.363636 -12.314741 
L 491.068182 -12.125094 
L 491.772727 -11.934484 
L 492.477273 -11.742702 
L 493.181818 -11.549577 
L 493.886364 -11.354988 
L 494.590909 -11.158878 
L 495.295455 -10.961259 
L 496 -10.762221 
L 496.704545 -10.561929 
L 497.409091 -10.36062 
L 498.113636 -10.158599 
L 498.818182 -9.956223 
L 499.522727 -9.753894 
L 500.227273 -9.552042 
L 500.931818 -9.351112 
L 501.636364 -9.151547 
L 502.340909 -8.953777 
L 503.045455 -8.758207 
L 503.75 -8.565207 
L 504.454545 -8.375107 
L 505.159091 -8.188189 
L 505.863636 -8.00469 
L 506.568182 -7.824798 
L 507.272727 -7.64866 
L 507.977273 -7.47638 
L 508.681818 -7.308029 
L 509.386364 -7.143648 
L 510.090909 -6.983252 
L 510.795455 -6.82684 
L 511.5 -6.674394 
L 512.204545 -6.525885 
L 512.909091 -6.381274 
L 513.613636 -6.240516 
L 514.318182 -6.103557 
L 515.022727 -5.97034 
L 515.727273 -5.840803 
L 516.431818 -5.714878 
L 517.136364 -5.592499 
L 517.840909 -5.473597 
L 518.545455 -5.358112 
L 519.25 -5.245987 
L 519.954545 -5.13718 
L 520.659091 -5.031666 
L 521.363636 -4.929438 
L 522.068182 -4.83051 
L 522.772727 -4.734922 
L 523.477273 -4.642734 
L 524.181818 -4.554025 
L 524.886364 -4.468887 
L 525.590909 -4.387419 
L 526.295455 -4.309715 
L 527 -4.235859 
L 527.704545 -4.165909 
L 528.409091 -4.099886 
L 529.113636 -4.037772 
L 529.818182 -3.979492 
L 530.522727 -3.924918 
L 531.227273 -3.873859 
L 531.931818 -3.826068 
L 532.636364 -3.781243 
L 532.636364 -2.470909 
L 532.636364 -2.470909 
L 531.931818 -2.470909 
L 531.227273 -2.470909 
L 530.522727 -2.470909 
L 529.818182 -2.470909 
L 529.113636 -2.470909 
L 528.409091 -2.470909 
L 527.704545 -2.470909 
L 527 -2.470909 
L 526.295455 -2.470909 
L 525.590909 -2.470909 
L 524.886364 -2.470909 
L 524.181818 -2.470909 
L 523.477273 -2.470909 
L 522.772727 -2.470909 
L 522.068182 -2.470909 
L 521.363636 -2.470909 
L 520.659091 -2.470909 
L 519.954545 -2.470909 
L 519.25 -2.470909 
L 518.545455 -2.470909 
L 517.840909 -2.470909 
L 517.136364 -2.470909 
L 516.431818 -2.470909 
L 515.727273 -2.470909 
L 515.022727 -2.470909 
L 514.318182 -2.470909 
L 513.613636 -2.470909 
L 512.909091 -2.470909 
L 512.204545 -2.470909 
L 511.5 -2.470909 
L 510.795455 -2.470909 
L 510.090909 -2.470909 
L 509.386364 -2.470909 
L 508.681818 -2.470909 
L 507.977273 -2.470909 
L 507.272727 -2.470909 
L 506.568182 -2.470909 
L 505.863636 -2.470909 
L 505.159091 -2.470909 
L 504.454545 -2.470909 
L 503.75 -2.470909 
L 503.045455 -2.470909 
L 502.340909 -2.470909 
L 501.636364 -2.470909 
L 500.931818 -2.470909 
L 500.227273 -2.470909 
L 499.522727 -2.470909 
L 498.818182 -2.470909 
L 498.113636 -2.470909 
L 497.409091 -2.470909 
L 496.704545 -2.470909 
L 496 -2.470909 
L 495.295455 -2.470909 
L 494.590909 -2.470909 
L 493.886364 -2.470909 
L 493.181818 -2.470909 
L 492.477273 -2.470909 
L 491.772727 -2.470909 
L 491.068182 -2.470909 
L 490.363636 -2.470909 
L 489.659091 -2.470909 
L 488.954545 -2.470909 
L 488.25 -2.470909 
L 487.545455 -2.470909 
L 486.840909 -2.470909 
L 486.136364 -2.470909 
L 485.431818 -2.470909 
L 484.727273 -2.470909 
L 484.022727 -2.470909 
L 483.318182 -2.470909 
L 482.613636 -2.470909 
L 481.909091 -2.470909 
L 481.204545 -2.470909 
L 480.5 -2.470909 
L 479.795455 -2.470909 
L 479.090909 -2.470909 
L 478.386364 -2.470909 
L 477.681818 -2.470909 
L 476.977273 -2.470909 
L 476.272727 -2.470909 
L 475.568182 -2.470909 
L 474.863636 -2.470909 
L 474.159091 -2.470909 
L 473.454545 -2.470909 
L 472.75 -2.470909 
L 472.045455 -2.470909 
L 471.340909 -2.470909 
L 470.636364 -2.470909 
L 469.931818 -2.470909 
L 469.227273 -2.470909 
L 468.522727 -2.470909 
L 467.818182 -2.470909 
L 467.113636 -2.470909 
L 466.409091 -2.470909 
L 465.704545 -2.470909 
L 465 -2.470909 
L 464.295455 -2.470909 
L 463.590909 -2.470909 
L 462.886364 -2.470909 
L 462.181818 -2.470909 
L 461.477273 -2.470909 
L 460.772727 -2.470909 
L 460.068182 -2.470909 
L 459.363636 -2.470909 
L 458.659091 -2.470909 
L 457.954545 -2.470909 
L 457.25 -2.470909 
L 456.545455 -2.470909 
L 455.840909 -2.470909 
L 455.136364 -2.470909 
L 454.431818 -2.470909 
L 453.727273 -2.470909 
L 453.022727 -2.470909 
L 452.318182 -2.470909 
L 451.613636 -2.470909 
L 450.909091 -2.470909 
L 450.204545 -2.470909 
L 449.5 -2.470909 
L 448.795455 -2.470909 
L 448.090909 -2.470909 
L 447.386364 -2.470909 
L 446.681818 -2.470909 
L 445.977273 -2.470909 
L 445.272727 -2.470909 
L 444.568182 -2.470909 
L 443.863636 -2.470909 
L 443.159091 -2.470909 
L 442.454545 -2.470909 
L 441.75 -2.470909 
L 441.045455 -2.470909 
L 440.340909 -2.470909 
L 439.636364 -2.470909 
L 438.931818 -2.470909 
L 438.227273 -2.470909 
L 437.522727 -2.470909 
L 436.818182 -2.470909 
L 436.113636 -2.470909 
L 435.409091 -2.470909 
L 434.704545 -2.470909 
L 434 -2.470909 
L 433.295455 -2.470909 
L 432.590909 -2.470909 
L 431.886364 -2.470909 
L 431.181818 -2.470909 
L 430.477273 -2.470909 
L 429.772727 -2.470909 
L 429.068182 -2.470909 
L 428.363636 -2.470909 
L 427.659091 -2.470909 
L 426.954545 -2.470909 
L 426.25 -2.470909 
L 425.545455 -2.470909 
L 424.840909 -2.470909 
L 424.136364 -2.470909 
L 423.431818 -2.470909 
L 422.727273 -2.470909 
L 422.022727 -2.470909 
L 421.318182 -2.470909 
L 420.613636 -2.470909 
L 419.909091 -2.470909 
L 419.204545 -2.470909 
L 418.5 -2.470909 
L 417.795455 -2.470909 
L 417.090909 -2.470909 
L 416.386364 -2.470909 
L 415.681818 -2.470909 
L 414.977273 -2.470909 
L 414.272727 -2.470909 
L 413.568182 -2.470909 
L 412.863636 -2.470909 
L 412.159091 -2.470909 
L 411.454545 -2.470909 
L 410.75 -2.470909 
L 410.045455 -2.470909 
L 409.340909 -2.470909 
L 408.636364 -2.470909 
L 407.931818 -2.470909 
L 407.227273 -2.470909 
L 406.522727 -2.470909 
L 405.818182 -2.470909 
L 405.113636 -2.470909 
L 404.409091 -2.470909 
L 403.704545 -2.470909 
L 403 -2.470909 
L 402.295455 -2.470909 
L 401.590909 -2.470909 
L 400.886364 -2.470909 
L 400.181818 -2.470909 
L 399.477273 -2.470909 
L 398.772727 -2.470909 
L 398.068182 -2.470909 
L 397.363636 -2.470909 
L 396.659091 -2.470909 
L 395.954545 -2.470909 
L 395.25 -2.470909 
L 394.545455 -2.470909 
L 393.840909 -2.470909 
L 393.136364 -2.470909 
L 392.431818 -2.470909 
L 391.727273 -2.470909 
L 391.022727 -2.470909 
L 390.318182 -2.470909 
L 389.613636 -2.470909 
L 388.909091 -2.470909 
L 388.204545 -2.470909 
L 387.5 -2.470909 
L 386.795455 -2.470909 
L 386.090909 -2.470909 
L 385.386364 -2.470909 
L 384.681818 -2.470909 
L 383.977273 -2.470909 
L 383.272727 -2.470909 
L 382.568182 -2.470909 
L 381.863636 -2.470909 
L 381.159091 -2.470909 
L 380.454545 -2.470909 
L 379.75 -2.470909 
L 379.045455 -2.470909 
L 378.340909 -2.470909 
L 377.636364 -2.470909 
L 376.931818 -2.470909 
L 376.227273 -2.470909 
L 375.522727 -2.470909 
L 374.818182 -2.470909 
L 374.113636 -2.470909 
L 373.409091 -2.470909 
L 372.704545 -2.470909 
L 372 -2.470909 
L 371.295455 -2.470909 
L 370.590909 -2.470909 
L 369.886364 -2.470909 
L 369.181818 -2.470909 
L 368.477273 -2.470909 
L 367.772727 -2.470909 
L 367.068182 -2.470909 
L 366.363636 -2.470909 
L 365.659091 -2.470909 
L 364.954545 -2.470909 
L 364.25 -2.470909 
L 363.545455 -2.470909 
L 362.840909 -2.470909 
L 362.136364 -2.470909 
L 361.431818 -2.470909 
L 360.727273 -2.470909 
L 360.022727 -2.470909 
L 359.318182 -2.470909 
L 358.613636 -2.470909 
L 357.909091 -2.470909 
L 357.204545 -2.470909 
L 356.5 -2.470909 
L 355.795455 -2.470909 
L 355.090909 -2.470909 
L 354.386364 -2.470909 
L 353.681818 -2.470909 
L 352.977273 -2.470909 
L 352.272727 -2.470909 
L 351.568182 -2.470909 
L 350.863636 -2.470909 
L 350.159091 -2.470909 
L 349.454545 -2.470909 
L 348.75 -2.470909 
L 348.045455 -2.470909 
L 347.340909 -2.470909 
L 346.636364 -2.470909 
L 345.931818 -2.470909 
L 345.227273 -2.470909 
L 344.522727 -2.470909 
L 343.818182 -2.470909 
L 343.113636 -2.470909 
L 342.409091 -2.470909 
L 341.704545 -2.470909 
L 341 -2.470909 
L 340.295455 -2.470909 
L 339.590909 -2.470909 
L 338.886364 -2.470909 
L 338.181818 -2.470909 
L 337.477273 -2.470909 
L 336.772727 -2.470909 
L 336.068182 -2.470909 
L 335.363636 -2.470909 
L 334.659091 -2.470909 
L 333.954545 -2.470909 
L 333.25 -2.470909 
L 332.545455 -2.470909 
L 331.840909 -2.470909 
L 331.136364 -2.470909 
L 330.431818 -2.470909 
L 329.727273 -2.470909 
L 329.022727 -2.470909 
L 328.318182 -2.470909 
L 327.613636 -2.470909 
L 326.909091 -2.470909 
L 326.204545 -2.470909 
L 325.5 -2.470909 
L 324.795455 -2.470909 
L 324.090909 -2.470909 
L 323.386364 -2.470909 
L 322.681818 -2.470909 
L 321.977273 -2.470909 
L 321.272727 -2.470909 
L 320.568182 -2.470909 
L 319.863636 -2.470909 
L 319.159091 -2.470909 
L 318.454545 -2.470909 
L 317.75 -2.470909 
L 317.045455 -2.470909 
L 316.340909 -2.470909 
L 315.636364 -2.470909 
L 314.931818 -2.470909 
L 314.227273 -2.470909 
L 313.522727 -2.470909 
L 312.818182 -2.470909 
L 312.113636 -2.470909 
L 311.409091 -2.470909 
L 310.704545 -2.470909 
L 310 -2.470909 
L 309.295455 -2.470909 
L 308.590909 -2.470909 
L 307.886364 -2.470909 
L 307.181818 -2.470909 
L 306.477273 -2.470909 
L 305.772727 -2.470909 
L 305.068182 -2.470909 
L 304.363636 -2.470909 
L 303.659091 -2.470909 
L 302.954545 -2.470909 
L 302.25 -2.470909 
L 301.545455 -2.470909 
L 300.840909 -2.470909 
L 300.136364 -2.470909 
L 299.431818 -2.470909 
L 298.727273 -2.470909 
L 298.022727 -2.470909 
L 297.318182 -2.470909 
L 296.613636 -2.470909 
L 295.909091 -2.470909 
L 295.204545 -2.470909 
L 294.5 -2.470909 
L 293.795455 -2.470909 
L 293.090909 -2.470909 
L 292.386364 -2.470909 
z
" style="stroke: #116dc2; stroke-opacity: 0.2"/>
    </defs>
    <g clip-path="url(#p79de803ec4)">
     <use xlink:href="#m57868d140f" x="0" y="54.36" style="fill: #116dc2; fill-opacity: 0.2; stroke: #116dc2; stroke-opacity: 0.2"/>
    </g>
   </g>
   <g id="PolyCollection_3">
    <defs>
     <path id="maec57b6dc9" d="M 25.363636 -2.470909 
L 25.363636 -4.000572 
L 26.068182 -4.406434 
L 26.772727 -4.972523 
L 27.477273 -5.646194 
L 28.181818 -6.386781 
L 28.886364 -7.216862 
L 29.590909 -8.187413 
L 30.295455 -9.32759 
L 31 -10.6552 
L 31.704545 -12.188555 
L 32.409091 -13.89383 
L 33.113636 -15.652313 
L 33.818182 -17.355501 
L 34.522727 -19.062416 
L 35.227273 -21.017006 
L 35.931818 -23.433338 
L 36.636364 -26.250195 
L 37.340909 -29.146458 
L 38.045455 -31.792985 
L 38.75 -34.035361 
L 39.454545 -35.863108 
L 40.159091 -37.325335 
L 40.863636 -38.546216 
L 41.568182 -39.771295 
L 42.272727 -41.306825 
L 42.977273 -43.341473 
L 43.681818 -45.777643 
L 44.386364 -48.233276 
L 45.090909 -50.237996 
L 45.795455 -51.470807 
L 46.5 -51.889091 
L 47.204545 -51.698582 
L 47.909091 -51.188273 
L 48.613636 -50.560205 
L 49.318182 -49.899427 
L 50.022727 -49.221601 
L 50.727273 -48.436387 
L 51.431818 -47.321062 
L 52.136364 -45.701886 
L 52.840909 -43.659253 
L 53.545455 -41.427845 
L 54.25 -39.139256 
L 54.954545 -36.784518 
L 55.659091 -34.367897 
L 56.363636 -31.966238 
L 57.068182 -29.634917 
L 57.772727 -27.340914 
L 58.477273 -25.043869 
L 59.181818 -22.794473 
L 59.886364 -20.670537 
L 60.590909 -18.656116 
L 61.295455 -16.684078 
L 62 -14.77699 
L 62.704545 -13.056413 
L 63.409091 -11.612043 
L 64.113636 -10.41262 
L 64.818182 -9.34231 
L 65.522727 -8.300167 
L 66.227273 -7.275912 
L 66.931818 -6.342018 
L 67.636364 -5.571716 
L 68.340909 -4.975247 
L 69.045455 -4.512109 
L 69.045455 -2.470909 
L 69.045455 -2.470909 
L 68.340909 -2.470909 
L 67.636364 -2.470909 
L 66.931818 -2.470909 
L 66.227273 -2.470909 
L 65.522727 -2.470909 
L 64.818182 -2.470909 
L 64.113636 -2.470909 
L 63.409091 -2.470909 
L 62.704545 -2.470909 
L 62 -2.470909 
L 61.295455 -2.470909 
L 60.590909 -2.470909 
L 59.886364 -2.470909 
L 59.181818 -2.470909 
L 58.477273 -2.470909 
L 57.772727 -2.470909 
L 57.068182 -2.470909 
L 56.363636 -2.470909 
L 55.659091 -2.470909 
L 54.954545 -2.470909 
L 54.25 -2.470909 
L 53.545455 -2.470909 
L 52.840909 -2.470909 
L 52.136364 -2.470909 
L 51.431818 -2.470909 
L 50.727273 -2.470909 
L 50.022727 -2.470909 
L 49.318182 -2.470909 
L 48.613636 -2.470909 
L 47.909091 -2.470909 
L 47.204545 -2.470909 
L 46.5 -2.470909 
L 45.795455 -2.470909 
L 45.090909 -2.470909 
L 44.386364 -2.470909 
L 43.681818 -2.470909 
L 42.977273 -2.470909 
L 42.272727 -2.470909 
L 41.568182 -2.470909 
L 40.863636 -2.470909 
L 40.159091 -2.470909 
L 39.454545 -2.470909 
L 38.75 -2.470909 
L 38.045455 -2.470909 
L 37.340909 -2.470909 
L 36.636364 -2.470909 
L 35.931818 -2.470909 
L 35.227273 -2.470909 
L 34.522727 -2.470909 
L 33.818182 -2.470909 
L 33.113636 -2.470909 
L 32.409091 -2.470909 
L 31.704545 -2.470909 
L 31 -2.470909 
L 30.295455 -2.470909 
L 29.590909 -2.470909 
L 28.886364 -2.470909 
L 28.181818 -2.470909 
L 27.477273 -2.470909 
L 26.772727 -2.470909 
L 26.068182 -2.470909 
L 25.363636 -2.470909 
z
" style="stroke: #8a8a8a; stroke-opacity: 0.2"/>
    </defs>
    <g clip-path="url(#p79de803ec4)">
     <use xlink:href="#maec57b6dc9" x="0" y="54.36" style="fill: #8a8a8a; fill-opacity: 0.2; stroke: #8a8a8a; stroke-opacity: 0.2"/>
    </g>
   </g>
   <g id="line2d_1">
    <path d="M 175.431818 50.47018 
L 178.954545 49.966736 
L 182.477273 49.19933 
L 186.704545 48.019623 
L 190.227273 46.797293 
L 193.75 45.310796 
L 196.568182 43.91112 
L 200.090909 41.865137 
L 208.545455 36.672682 
L 210.659091 34.915386 
L 216.295455 29.897068 
L 220.522727 26.337857 
L 226.159091 21.222134 
L 228.272727 19.790849 
L 230.386364 18.71358 
L 236.022727 16.16173 
L 241.659091 13.185337 
L 243.068182 12.739455 
L 244.477273 12.543067 
L 245.886364 12.604436 
L 247.295455 12.883363 
L 250.113636 13.786249 
L 254.340909 15.132599 
L 257.159091 16.098707 
L 258.568182 16.759397 
L 259.977273 17.598795 
L 262.090909 19.187074 
L 270.545455 26.193758 
L 276.181818 30.730286 
L 283.227273 36.448924 
L 286.045455 38.486512 
L 289.568182 40.712048 
L 298.022727 45.689194 
L 300.136364 46.62581 
L 302.954545 47.606985 
L 306.477273 48.572351 
L 312.113636 49.867644 
L 315.636364 50.515571 
L 315.636364 50.515571 
" clip-path="url(#p79de803ec4)" style="fill: none; stroke: #cf1313; stroke-width: 1.5; stroke-linecap: square"/>
   </g>
   <g id="line2d_2">
    <path d="M 292.386364 50.427948 
L 299.431818 49.811995 
L 304.363636 49.170826 
L 311.409091 47.979544 
L 326.909091 45.126601 
L 331.136364 44.037744 
L 335.363636 42.716123 
L 340.295455 40.925014 
L 346.636364 38.357794 
L 354.386364 34.957962 
L 379.75 23.682022 
L 384.681818 21.879341 
L 389.613636 20.308355 
L 395.954545 18.551721 
L 400.181818 17.533999 
L 403 17.035632 
L 405.818182 16.777289 
L 408.636364 16.780221 
L 412.159091 17.044645 
L 418.5 17.553297 
L 426.954545 18.015041 
L 429.772727 18.512048 
L 432.590909 19.295528 
L 436.113636 20.594447 
L 455.840909 28.700488 
L 460.772727 31.105732 
L 469.931818 35.73485 
L 473.454545 37.174283 
L 476.977273 38.356471 
L 482.613636 39.96435 
L 510.795455 47.53316 
L 516.431818 48.645122 
L 522.068182 49.52949 
L 527.704545 50.194091 
L 532.636364 50.578757 
L 532.636364 50.578757 
" clip-path="url(#p79de803ec4)" style="fill: none; stroke: #116dc2; stroke-width: 1.5; stroke-linecap: square"/>
   </g>
   <g id="line2d_3">
    <path d="M 25.363636 50.359428 
L 26.068182 49.953566 
L 26.772727 49.387477 
L 27.477273 48.713806 
L 28.181818 47.973219 
L 28.886364 47.143138 
L 29.590909 46.172587 
L 30.295455 45.03241 
L 31 43.7048 
L 31.704545 42.171445 
L 32.409091 40.46617 
L 33.113636 38.707687 
L 33.818182 37.004499 
L 34.522727 35.297584 
L 35.227273 33.342994 
L 35.931818 30.926662 
L 36.636364 28.109805 
L 37.340909 25.213542 
L 38.045455 22.567015 
L 38.75 20.324639 
L 39.454545 18.496892 
L 40.159091 17.034665 
L 40.863636 15.813784 
L 41.568182 14.588705 
L 42.272727 13.053175 
L 42.977273 11.018527 
L 43.681818 8.582357 
L 44.386364 6.126724 
L 45.090909 4.122004 
L 45.795455 2.889193 
L 46.5 2.470909 
L 47.204545 2.661418 
L 47.909091 3.171727 
L 48.613636 3.799795 
L 49.318182 4.460573 
L 50.022727 5.138399 
L 50.727273 5.923613 
L 51.431818 7.038938 
L 52.136364 8.658114 
L 52.840909 10.700747 
L 53.545455 12.932155 
L 54.25 15.220744 
L 54.954545 17.575482 
L 55.659091 19.992103 
L 56.363636 22.393762 
L 57.068182 24.725083 
L 57.772727 27.019086 
L 58.477273 29.316131 
L 59.181818 31.565527 
L 59.886364 33.689463 
L 60.590909 35.703884 
L 61.295455 37.675922 
L 62 39.58301 
L 62.704545 41.303587 
L 63.409091 42.747957 
L 64.113636 43.94738 
L 64.818182 45.01769 
L 65.522727 46.059833 
L 66.227273 47.084088 
L 66.931818 48.017982 
L 67.636364 48.788284 
L 68.340909 49.384753 
L 69.045455 49.847891 
" clip-path="url(#p79de803ec4)" style="fill: none; stroke: #8a8a8a; stroke-width: 1.5; stroke-linecap: square"/>
   </g>
  </g>
 </g>
 <defs>
  <clipPath id="p79de803ec4">
   <rect x="0" y="-0" width="558" height="54.36"/>
  </clipPath>
 </defs>
</svg>
