<?xml version="1.0" encoding="utf-8" standalone="no"?>
<!DOCTYPE svg PUBLIC "-//W3C//DTD SVG 1.1//EN"
  "http://www.w3.org/Graphics/SVG/1.1/DTD/svg11.dtd">
<svg xmlns:xlink="http://www.w3.org/1999/xlink" width="558pt" height="54.36pt" viewBox="0 0 558 54.36" xmlns="http://www.w3.org/2000/svg" version="1.1">
 <metadata>
  <rdf:RDF xmlns:dc="http://purl.org/dc/elements/1.1/" xmlns:cc="http://creativecommons.org/ns#" xmlns:rdf="http://www.w3.org/1999/02/22-rdf-syntax-ns#">
   <cc:Work>
    <dc:type rdf:resource="http://purl.org/dc/dcmitype/StillImage"/>
    <dc:date>2024-09-14T12:47:47.812990</dc:date>
    <dc:format>image/svg+xml</dc:format>
    <dc:creator>
     <cc:Agent>
      <dc:title>Matplotlib v3.5.2, https://matplotlib.org/</dc:title>
     </cc:Agent>
    </dc:creator>
   </cc:Work>
  </rdf:RDF>
 </metadata>
 <defs>
  <style type="text/css">*{stroke-linejoin: round; stroke-linecap: butt}</style>
 </defs>
 <g id="figure_1">
  <g id="patch_1">
   <path d="M 0 54.36 
L 558 54.36 
L 558 0 
L 0 0 
L 0 54.36 
z
" style="fill: none; opacity: 0"/>
  </g>
  <g id="axes_1">
   <g id="PolyCollection_1">
    <defs>
     <path id="m799ababcc1" d="M 177.334384 -2.470909 
L 177.334384 -4.213129 
L 178.037952 -4.319142 
L 178.741521 -4.42376 
L 179.445089 -4.527605 
L 180.148657 -4.631532 
L 180.852225 -4.736593 
L 181.555794 -4.844025 
L 182.259362 -4.955254 
L 182.96293 -5.071909 
L 183.666499 -5.195795 
L 184.370067 -5.328839 
L 185.073635 -5.472969 
L 185.777203 -5.629963 
L 186.480772 -5.801278 
L 187.18434 -5.987901 
L 187.887908 -6.190263 
L 188.591476 -6.408233 
L 189.295045 -6.641208 
L 189.998613 -6.888282 
L 190.702181 -7.148451 
L 191.40575 -7.420809 
L 192.109318 -7.704697 
L 192.812886 -7.999758 
L 193.516454 -8.305906 
L 194.220023 -8.623212 
L 194.923591 -8.95176 
L 195.627159 -9.291503 
L 196.330728 -9.642175 
L 197.034296 -10.003276 
L 197.737864 -10.374149 
L 198.441432 -10.7541 
L 199.145001 -11.142566 
L 199.848569 -11.53925 
L 200.552137 -11.944226 
L 201.255705 -12.357969 
L 201.959274 -12.781323 
L 202.662842 -13.215434 
L 203.36641 -13.66165 
L 204.069979 -14.12143 
L 204.773547 -14.596274 
L 205.477115 -15.087665 
L 206.180683 -15.597023 
L 206.884252 -16.125649 
L 207.58782 -16.674645 
L 208.291388 -17.244816 
L 208.994956 -17.836553 
L 209.698525 -18.449725 
L 210.402093 -19.083623 
L 211.105661 -19.736961 
L 211.80923 -20.407958 
L 212.512798 -21.09449 
L 213.216366 -21.794271 
L 213.919934 -22.505017 
L 214.623503 -23.224539 
L 215.327071 -23.950711 
L 216.030639 -24.681322 
L 216.734208 -25.413799 
L 217.437776 -26.144904 
L 218.141344 -26.870443 
L 218.844912 -27.585116 
L 219.548481 -28.282561 
L 220.252049 -28.955629 
L 220.955617 -29.596886 
L 221.659185 -30.199282 
L 222.362754 -30.75687 
L 223.066322 -31.265488 
L 223.76989 -31.723269 
L 224.473459 -32.130921 
L 225.177027 -32.491732 
L 225.880595 -32.81131 
L 226.584163 -33.097105 
L 227.287732 -33.357783 
L 227.9913 -33.602537 
L 228.694868 -33.840409 
L 229.398437 -34.079684 
L 230.102005 -34.327393 
L 230.805573 -34.58896 
L 231.509141 -34.867998 
L 232.21271 -35.166252 
L 232.916278 -35.483693 
L 233.619846 -35.818735 
L 234.323414 -36.16856 
L 235.026983 -36.529514 
L 235.730551 -36.89753 
L 236.434119 -37.268523 
L 237.137688 -37.638717 
L 237.841256 -38.004859 
L 238.544824 -38.364302 
L 239.248392 -38.714958 
L 239.951961 -39.055152 
L 240.655529 -39.383404 
L 241.359097 -39.698198 
L 242.062665 -39.997779 
L 242.766234 -40.28001 
L 243.469802 -40.54231 
L 244.17337 -40.781671 
L 244.876939 -40.994743 
L 245.580507 -41.177981 
L 246.284075 -41.327815 
L 246.987643 -41.440845 
L 247.691212 -41.514031 
L 248.39478 -41.54488 
L 249.098348 -41.531609 
L 249.801917 -41.47327 
L 250.505485 -41.369829 
L 251.209053 -41.222176 
L 251.912621 -41.032066 
L 252.61619 -40.801978 
L 253.319758 -40.534908 
L 254.023326 -40.234123 
L 254.726894 -39.90289 
L 255.430463 -39.544234 
L 256.134031 -39.160734 
L 256.837599 -38.754397 
L 257.541168 -38.326611 
L 258.244736 -37.87818 
L 258.948304 -37.40945 
L 259.651872 -36.9205 
L 260.355441 -36.411391 
L 261.059009 -35.882457 
L 261.762577 -35.334596 
L 262.466146 -34.769529 
L 263.169714 -34.189981 
L 263.873282 -33.599725 
L 264.57685 -33.003467 
L 265.280419 -32.406551 
L 265.983987 -31.814515 
L 266.687555 -31.232547 
L 267.391123 -30.664925 
L 268.094692 -30.114538 
L 268.79826 -29.582562 
L 269.501828 -29.06834 
L 270.205397 -28.569494 
L 270.908965 -28.08222 
L 271.612533 -27.601737 
L 272.316101 -27.122793 
L 273.01967 -26.640186 
L 273.723238 -26.14923 
L 274.426806 -25.646132 
L 275.130374 -25.128264 
L 275.833943 -24.594316 
L 276.537511 -24.04432 
L 277.241079 -23.479561 
L 277.944648 -22.902353 
L 278.648216 -22.315735 
L 279.351784 -21.723086 
L 280.055352 -21.127735 
L 280.758921 -20.532602 
L 281.462489 -19.939948 
L 282.166057 -19.351254 
L 282.869626 -18.767258 
L 283.573194 -18.188123 
L 284.276762 -17.613709 
L 284.98033 -17.043879 
L 285.683899 -16.478784 
L 286.387467 -15.919085 
L 287.091035 -15.366071 
L 287.794603 -14.821672 
L 288.498172 -14.288374 
L 289.20174 -13.769055 
L 289.905308 -13.266759 
L 290.608877 -12.78444 
L 291.312445 -12.324684 
L 292.016013 -11.889445 
L 292.719581 -11.47981 
L 293.42315 -11.095827 
L 294.126718 -10.736429 
L 294.830286 -10.399473 
L 295.533854 -10.081908 
L 296.237423 -9.780057 
L 296.940991 -9.489984 
L 297.644559 -9.207895 
L 298.348128 -8.930509 
L 299.051696 -8.655351 
L 299.755264 -8.380924 
L 300.458832 -8.106735 
L 301.162401 -7.833195 
L 301.865969 -7.561415 
L 302.569537 -7.292947 
L 303.273106 -7.029502 
L 303.976674 -6.772713 
L 304.680242 -6.523946 
L 305.38381 -6.28418 
L 306.087379 -6.053976 
L 306.790947 -5.833493 
L 307.494515 -5.622565 
L 308.198083 -5.420808 
L 308.901652 -5.227742 
L 309.60522 -5.042917 
L 310.308788 -4.86602 
L 311.012357 -4.696959 
L 311.715925 -4.535901 
L 312.419493 -4.383271 
L 313.123061 -4.239698 
L 313.82663 -4.105919 
L 314.530198 -3.98266 
L 315.233766 -3.870507 
L 315.233766 -2.470909 
L 315.233766 -2.470909 
L 314.530198 -2.470909 
L 313.82663 -2.470909 
L 313.123061 -2.470909 
L 312.419493 -2.470909 
L 311.715925 -2.470909 
L 311.012357 -2.470909 
L 310.308788 -2.470909 
L 309.60522 -2.470909 
L 308.901652 -2.470909 
L 308.198083 -2.470909 
L 307.494515 -2.470909 
L 306.790947 -2.470909 
L 306.087379 -2.470909 
L 305.38381 -2.470909 
L 304.680242 -2.470909 
L 303.976674 -2.470909 
L 303.273106 -2.470909 
L 302.569537 -2.470909 
L 301.865969 -2.470909 
L 301.162401 -2.470909 
L 300.458832 -2.470909 
L 299.755264 -2.470909 
L 299.051696 -2.470909 
L 298.348128 -2.470909 
L 297.644559 -2.470909 
L 296.940991 -2.470909 
L 296.237423 -2.470909 
L 295.533854 -2.470909 
L 294.830286 -2.470909 
L 294.126718 -2.470909 
L 293.42315 -2.470909 
L 292.719581 -2.470909 
L 292.016013 -2.470909 
L 291.312445 -2.470909 
L 290.608877 -2.470909 
L 289.905308 -2.470909 
L 289.20174 -2.470909 
L 288.498172 -2.470909 
L 287.794603 -2.470909 
L 287.091035 -2.470909 
L 286.387467 -2.470909 
L 285.683899 -2.470909 
L 284.98033 -2.470909 
L 284.276762 -2.470909 
L 283.573194 -2.470909 
L 282.869626 -2.470909 
L 282.166057 -2.470909 
L 281.462489 -2.470909 
L 280.758921 -2.470909 
L 280.055352 -2.470909 
L 279.351784 -2.470909 
L 278.648216 -2.470909 
L 277.944648 -2.470909 
L 277.241079 -2.470909 
L 276.537511 -2.470909 
L 275.833943 -2.470909 
L 275.130374 -2.470909 
L 274.426806 -2.470909 
L 273.723238 -2.470909 
L 273.01967 -2.470909 
L 272.316101 -2.470909 
L 271.612533 -2.470909 
L 270.908965 -2.470909 
L 270.205397 -2.470909 
L 269.501828 -2.470909 
L 268.79826 -2.470909 
L 268.094692 -2.470909 
L 267.391123 -2.470909 
L 266.687555 -2.470909 
L 265.983987 -2.470909 
L 265.280419 -2.470909 
L 264.57685 -2.470909 
L 263.873282 -2.470909 
L 263.169714 -2.470909 
L 262.466146 -2.470909 
L 261.762577 -2.470909 
L 261.059009 -2.470909 
L 260.355441 -2.470909 
L 259.651872 -2.470909 
L 258.948304 -2.470909 
L 258.244736 -2.470909 
L 257.541168 -2.470909 
L 256.837599 -2.470909 
L 256.134031 -2.470909 
L 255.430463 -2.470909 
L 254.726894 -2.470909 
L 254.023326 -2.470909 
L 253.319758 -2.470909 
L 252.61619 -2.470909 
L 251.912621 -2.470909 
L 251.209053 -2.470909 
L 250.505485 -2.470909 
L 249.801917 -2.470909 
L 249.098348 -2.470909 
L 248.39478 -2.470909 
L 247.691212 -2.470909 
L 246.987643 -2.470909 
L 246.284075 -2.470909 
L 245.580507 -2.470909 
L 244.876939 -2.470909 
L 244.17337 -2.470909 
L 243.469802 -2.470909 
L 242.766234 -2.470909 
L 242.062665 -2.470909 
L 241.359097 -2.470909 
L 240.655529 -2.470909 
L 239.951961 -2.470909 
L 239.248392 -2.470909 
L 238.544824 -2.470909 
L 237.841256 -2.470909 
L 237.137688 -2.470909 
L 236.434119 -2.470909 
L 235.730551 -2.470909 
L 235.026983 -2.470909 
L 234.323414 -2.470909 
L 233.619846 -2.470909 
L 232.916278 -2.470909 
L 232.21271 -2.470909 
L 231.509141 -2.470909 
L 230.805573 -2.470909 
L 230.102005 -2.470909 
L 229.398437 -2.470909 
L 228.694868 -2.470909 
L 227.9913 -2.470909 
L 227.287732 -2.470909 
L 226.584163 -2.470909 
L 225.880595 -2.470909 
L 225.177027 -2.470909 
L 224.473459 -2.470909 
L 223.76989 -2.470909 
L 223.066322 -2.470909 
L 222.362754 -2.470909 
L 221.659185 -2.470909 
L 220.955617 -2.470909 
L 220.252049 -2.470909 
L 219.548481 -2.470909 
L 218.844912 -2.470909 
L 218.141344 -2.470909 
L 217.437776 -2.470909 
L 216.734208 -2.470909 
L 216.030639 -2.470909 
L 215.327071 -2.470909 
L 214.623503 -2.470909 
L 213.919934 -2.470909 
L 213.216366 -2.470909 
L 212.512798 -2.470909 
L 211.80923 -2.470909 
L 211.105661 -2.470909 
L 210.402093 -2.470909 
L 209.698525 -2.470909 
L 208.994956 -2.470909 
L 208.291388 -2.470909 
L 207.58782 -2.470909 
L 206.884252 -2.470909 
L 206.180683 -2.470909 
L 205.477115 -2.470909 
L 204.773547 -2.470909 
L 204.069979 -2.470909 
L 203.36641 -2.470909 
L 202.662842 -2.470909 
L 201.959274 -2.470909 
L 201.255705 -2.470909 
L 200.552137 -2.470909 
L 199.848569 -2.470909 
L 199.145001 -2.470909 
L 198.441432 -2.470909 
L 197.737864 -2.470909 
L 197.034296 -2.470909 
L 196.330728 -2.470909 
L 195.627159 -2.470909 
L 194.923591 -2.470909 
L 194.220023 -2.470909 
L 193.516454 -2.470909 
L 192.812886 -2.470909 
L 192.109318 -2.470909 
L 191.40575 -2.470909 
L 190.702181 -2.470909 
L 189.998613 -2.470909 
L 189.295045 -2.470909 
L 188.591476 -2.470909 
L 187.887908 -2.470909 
L 187.18434 -2.470909 
L 186.480772 -2.470909 
L 185.777203 -2.470909 
L 185.073635 -2.470909 
L 184.370067 -2.470909 
L 183.666499 -2.470909 
L 182.96293 -2.470909 
L 182.259362 -2.470909 
L 181.555794 -2.470909 
L 180.852225 -2.470909 
L 180.148657 -2.470909 
L 179.445089 -2.470909 
L 178.741521 -2.470909 
L 178.037952 -2.470909 
L 177.334384 -2.470909 
z
" style="stroke: #cf1313; stroke-opacity: 0.2"/>
    </defs>
    <g clip-path="url(#p4da3f2c375)">
     <use xlink:href="#m799ababcc1" x="0" y="54.36" style="fill: #cf1313; fill-opacity: 0.2; stroke: #cf1313; stroke-opacity: 0.2"/>
    </g>
   </g>
   <g id="PolyCollection_2">
    <defs>
     <path id="md890caad4e" d="M 294.830286 -2.470909 
L 294.830286 -3.817256 
L 295.533854 -3.864968 
L 296.237423 -3.913652 
L 296.940991 -3.963418 
L 297.644559 -4.014406 
L 298.348128 -4.066781 
L 299.051696 -4.120733 
L 299.755264 -4.176478 
L 300.458832 -4.234243 
L 301.162401 -4.294271 
L 301.865969 -4.356809 
L 302.569537 -4.422102 
L 303.273106 -4.490387 
L 303.976674 -4.561889 
L 304.680242 -4.636811 
L 305.38381 -4.715337 
L 306.087379 -4.797627 
L 306.790947 -4.883816 
L 307.494515 -4.974019 
L 308.198083 -5.068332 
L 308.901652 -5.166838 
L 309.60522 -5.269609 
L 310.308788 -5.376715 
L 311.012357 -5.488228 
L 311.715925 -5.60422 
L 312.419493 -5.724771 
L 313.123061 -5.849963 
L 313.82663 -5.979878 
L 314.530198 -6.114589 
L 315.233766 -6.254158 
L 315.937335 -6.398619 
L 316.640903 -6.54797 
L 317.344471 -6.702161 
L 318.048039 -6.861084 
L 318.751608 -7.024564 
L 319.455176 -7.192351 
L 320.158744 -7.364122 
L 320.862312 -7.539481 
L 321.565881 -7.717963 
L 322.269449 -7.899051 
L 322.973017 -8.082188 
L 323.676586 -8.266799 
L 324.380154 -8.452313 
L 325.083722 -8.638191 
L 325.78729 -8.823952 
L 326.490859 -9.009196 
L 327.194427 -9.193635 
L 327.897995 -9.37711 
L 328.601563 -9.559607 
L 329.305132 -9.741273 
L 330.0087 -9.922415 
L 330.712268 -10.103504 
L 331.415837 -10.285156 
L 332.119405 -10.468124 
L 332.822973 -10.653266 
L 333.526541 -10.841517 
L 334.23011 -11.033853 
L 334.933678 -11.231249 
L 335.637246 -11.434636 
L 336.340815 -11.644864 
L 337.044383 -11.862656 
L 337.747951 -12.088572 
L 338.451519 -12.322986 
L 339.155088 -12.566057 
L 339.858656 -12.817716 
L 340.562224 -13.077673 
L 341.265792 -13.345416 
L 341.969361 -13.620236 
L 342.672929 -13.901256 
L 343.376497 -14.187471 
L 344.080066 -14.477789 
L 344.783634 -14.771085 
L 345.487202 -15.066246 
L 346.19077 -15.362225 
L 346.894339 -15.658079 
L 347.597907 -15.953011 
L 348.301475 -16.246397 
L 349.005044 -16.537802 
L 349.708612 -16.826987 
L 350.41218 -17.113905 
L 351.115748 -17.398684 
L 351.819317 -17.681609 
L 352.522885 -17.963087 
L 353.226453 -18.243616 
L 353.930021 -18.52375 
L 354.63359 -18.804062 
L 355.337158 -19.085119 
L 356.040726 -19.36745 
L 356.744295 -19.651528 
L 357.447863 -19.937755 
L 358.151431 -20.226459 
L 358.854999 -20.517884 
L 359.558568 -20.812197 
L 360.262136 -21.109494 
L 360.965704 -21.409802 
L 361.669272 -21.713088 
L 362.372841 -22.019266 
L 363.076409 -22.328197 
L 363.779977 -22.639692 
L 364.483546 -22.953511 
L 365.187114 -23.269363 
L 365.890682 -23.586901 
L 366.59425 -23.90572 
L 367.297819 -24.225363 
L 368.001387 -24.545314 
L 368.704955 -24.865012 
L 369.408524 -25.183858 
L 370.112092 -25.501229 
L 370.81566 -25.816491 
L 371.519228 -26.129026 
L 372.222797 -26.438244 
L 372.926365 -26.743605 
L 373.629933 -27.044642 
L 374.333501 -27.340968 
L 375.03707 -27.632295 
L 375.740638 -27.91844 
L 376.444206 -28.199326 
L 377.147775 -28.474984 
L 377.851343 -28.745546 
L 378.554911 -29.011237 
L 379.258479 -29.272369 
L 379.962048 -29.529321 
L 380.665616 -29.782534 
L 381.369184 -30.032493 
L 382.072752 -30.279712 
L 382.776321 -30.524728 
L 383.479889 -30.768079 
L 384.183457 -31.010297 
L 384.887026 -31.251891 
L 385.590594 -31.493335 
L 386.294162 -31.735053 
L 386.99773 -31.977406 
L 387.701299 -32.220676 
L 388.404867 -32.465055 
L 389.108435 -32.710632 
L 389.812004 -32.957382 
L 390.515572 -33.205158 
L 391.21914 -33.453685 
L 391.922708 -33.702559 
L 392.626277 -33.951247 
L 393.329845 -34.199091 
L 394.033413 -34.445315 
L 394.736981 -34.689038 
L 395.44055 -34.929284 
L 396.144118 -35.164997 
L 396.847686 -35.395064 
L 397.551255 -35.618332 
L 398.254823 -35.833628 
L 398.958391 -36.039789 
L 399.661959 -36.235685 
L 400.365528 -36.420242 
L 401.069096 -36.592479 
L 401.772664 -36.751529 
L 402.476233 -36.896666 
L 403.179801 -37.027333 
L 403.883369 -37.14316 
L 404.586937 -37.243982 
L 405.290506 -37.329841 
L 405.994074 -37.400997 
L 406.697642 -37.457913 
L 407.40121 -37.50124 
L 408.104779 -37.531794 
L 408.808347 -37.55052 
L 409.511915 -37.558454 
L 410.215484 -37.556679 
L 410.919052 -37.546276 
L 411.62262 -37.528282 
L 412.326188 -37.50364 
L 413.029757 -37.47317 
L 413.733325 -37.437532 
L 414.436893 -37.397207 
L 415.140461 -37.35249 
L 415.84403 -37.303488 
L 416.547598 -37.250133 
L 417.251166 -37.192202 
L 417.954735 -37.129351 
L 418.658303 -37.061146 
L 419.361871 -36.987106 
L 420.065439 -36.90674 
L 420.769008 -36.81959 
L 421.472576 -36.72526 
L 422.176144 -36.62345 
L 422.879713 -36.513973 
L 423.583281 -36.396768 
L 424.286849 -36.271901 
L 424.990417 -36.139563 
L 425.693986 -36.00005 
L 426.397554 -35.853747 
L 427.101122 -35.701104 
L 427.80469 -35.542604 
L 428.508259 -35.378736 
L 429.211827 -35.20997 
L 429.915395 -35.036733 
L 430.618964 -34.859385 
L 431.322532 -34.678209 
L 432.0261 -34.493402 
L 432.729668 -34.305066 
L 433.433237 -34.113211 
L 434.136805 -33.917761 
L 434.840373 -33.718557 
L 435.543941 -33.515367 
L 436.24751 -33.307892 
L 436.951078 -33.095775 
L 437.654646 -32.878612 
L 438.358215 -32.655953 
L 439.061783 -32.427316 
L 439.765351 -32.192192 
L 440.468919 -31.950053 
L 441.172488 -31.700372 
L 441.876056 -31.44263 
L 442.579624 -31.176345 
L 443.283193 -30.901089 
L 443.986761 -30.616517 
L 444.690329 -30.322397 
L 445.393897 -30.018635 
L 446.097466 -29.705307 
L 446.801034 -29.382677 
L 447.504602 -29.051215 
L 448.20817 -28.711605 
L 448.911739 -28.364741 
L 449.615307 -28.011718 
L 450.318875 -27.653799 
L 451.022444 -27.292388 
L 451.726012 -26.928982 
L 452.42958 -26.565121 
L 453.133148 -26.202332 
L 453.836717 -25.842076 
L 454.540285 -25.485692 
L 455.243853 -25.134354 
L 455.947422 -24.789029 
L 456.65099 -24.450453 
L 457.354558 -24.119112 
L 458.058126 -23.79524 
L 458.761695 -23.478832 
L 459.465263 -23.16966 
L 460.168831 -22.867307 
L 460.872399 -22.571204 
L 461.575968 -22.280674 
L 462.279536 -21.994972 
L 462.983104 -21.713336 
L 463.686673 -21.435023 
L 464.390241 -21.159348 
L 465.093809 -20.885711 
L 465.797377 -20.613624 
L 466.500946 -20.342716 
L 467.204514 -20.072747 
L 467.908082 -19.8036 
L 468.61165 -19.535272 
L 469.315219 -19.267856 
L 470.018787 -19.001522 
L 470.722355 -18.736491 
L 471.425924 -18.473004 
L 472.129492 -18.2113 
L 472.83306 -17.951582 
L 473.536628 -17.693999 
L 474.240197 -17.438619 
L 474.943765 -17.185417 
L 475.647333 -16.934264 
L 476.350902 -16.68492 
L 477.05447 -16.437043 
L 477.758038 -16.190194 
L 478.461606 -15.943856 
L 479.165175 -15.697456 
L 479.868743 -15.450391 
L 480.572311 -15.202058 
L 481.275879 -14.951887 
L 481.979448 -14.69937 
L 482.683016 -14.444093 
L 483.386584 -14.185764 
L 484.090153 -13.924229 
L 484.793721 -13.659496 
L 485.497289 -13.391738 
L 486.200857 -13.121297 
L 486.904426 -12.84868 
L 487.607994 -12.574546 
L 488.311562 -12.299688 
L 489.015131 -12.025009 
L 489.718699 -11.751494 
L 490.422267 -11.480178 
L 491.125835 -11.212114 
L 491.829404 -10.948342 
L 492.532972 -10.689851 
L 493.23654 -10.437558 
L 493.940108 -10.192278 
L 494.643677 -9.954701 
L 495.347245 -9.725381 
L 496.050813 -9.504724 
L 496.754382 -9.292983 
L 497.45795 -9.090265 
L 498.161518 -8.89653 
L 498.865086 -8.71161 
L 499.568655 -8.535224 
L 500.272223 -8.366995 
L 500.975791 -8.20647 
L 501.679359 -8.053144 
L 502.382928 -7.906478 
L 503.086496 -7.765917 
L 503.790064 -7.630911 
L 504.493633 -7.500922 
L 505.197201 -7.375442 
L 505.900769 -7.253991 
L 506.604337 -7.136131 
L 507.307906 -7.021459 
L 508.011474 -6.909609 
L 508.715042 -6.80025 
L 509.418611 -6.693085 
L 510.122179 -6.587841 
L 510.825747 -6.48427 
L 511.529315 -6.382147 
L 512.232884 -6.281265 
L 512.936452 -6.181438 
L 513.64002 -6.082499 
L 514.343588 -5.984301 
L 515.047157 -5.886723 
L 515.750725 -5.789672 
L 516.454293 -5.693081 
L 517.157862 -5.596919 
L 517.86143 -5.501187 
L 518.564998 -5.405925 
L 519.268566 -5.311207 
L 519.972135 -5.217144 
L 520.675703 -5.123878 
L 521.379271 -5.031582 
L 522.082839 -4.940454 
L 522.786408 -4.850711 
L 523.489976 -4.762584 
L 524.193544 -4.676307 
L 524.897113 -4.592117 
L 525.600681 -4.510238 
L 526.304249 -4.430883 
L 527.007817 -4.354241 
L 527.711386 -4.280474 
L 528.414954 -4.209714 
L 529.118522 -4.142054 
L 529.822091 -4.077553 
L 530.525659 -4.016226 
L 531.229227 -3.958053 
L 531.932795 -3.90297 
L 532.636364 -3.85088 
L 532.636364 -2.470909 
L 532.636364 -2.470909 
L 531.932795 -2.470909 
L 531.229227 -2.470909 
L 530.525659 -2.470909 
L 529.822091 -2.470909 
L 529.118522 -2.470909 
L 528.414954 -2.470909 
L 527.711386 -2.470909 
L 527.007817 -2.470909 
L 526.304249 -2.470909 
L 525.600681 -2.470909 
L 524.897113 -2.470909 
L 524.193544 -2.470909 
L 523.489976 -2.470909 
L 522.786408 -2.470909 
L 522.082839 -2.470909 
L 521.379271 -2.470909 
L 520.675703 -2.470909 
L 519.972135 -2.470909 
L 519.268566 -2.470909 
L 518.564998 -2.470909 
L 517.86143 -2.470909 
L 517.157862 -2.470909 
L 516.454293 -2.470909 
L 515.750725 -2.470909 
L 515.047157 -2.470909 
L 514.343588 -2.470909 
L 513.64002 -2.470909 
L 512.936452 -2.470909 
L 512.232884 -2.470909 
L 511.529315 -2.470909 
L 510.825747 -2.470909 
L 510.122179 -2.470909 
L 509.418611 -2.470909 
L 508.715042 -2.470909 
L 508.011474 -2.470909 
L 507.307906 -2.470909 
L 506.604337 -2.470909 
L 505.900769 -2.470909 
L 505.197201 -2.470909 
L 504.493633 -2.470909 
L 503.790064 -2.470909 
L 503.086496 -2.470909 
L 502.382928 -2.470909 
L 501.679359 -2.470909 
L 500.975791 -2.470909 
L 500.272223 -2.470909 
L 499.568655 -2.470909 
L 498.865086 -2.470909 
L 498.161518 -2.470909 
L 497.45795 -2.470909 
L 496.754382 -2.470909 
L 496.050813 -2.470909 
L 495.347245 -2.470909 
L 494.643677 -2.470909 
L 493.940108 -2.470909 
L 493.23654 -2.470909 
L 492.532972 -2.470909 
L 491.829404 -2.470909 
L 491.125835 -2.470909 
L 490.422267 -2.470909 
L 489.718699 -2.470909 
L 489.015131 -2.470909 
L 488.311562 -2.470909 
L 487.607994 -2.470909 
L 486.904426 -2.470909 
L 486.200857 -2.470909 
L 485.497289 -2.470909 
L 484.793721 -2.470909 
L 484.090153 -2.470909 
L 483.386584 -2.470909 
L 482.683016 -2.470909 
L 481.979448 -2.470909 
L 481.275879 -2.470909 
L 480.572311 -2.470909 
L 479.868743 -2.470909 
L 479.165175 -2.470909 
L 478.461606 -2.470909 
L 477.758038 -2.470909 
L 477.05447 -2.470909 
L 476.350902 -2.470909 
L 475.647333 -2.470909 
L 474.943765 -2.470909 
L 474.240197 -2.470909 
L 473.536628 -2.470909 
L 472.83306 -2.470909 
L 472.129492 -2.470909 
L 471.425924 -2.470909 
L 470.722355 -2.470909 
L 470.018787 -2.470909 
L 469.315219 -2.470909 
L 468.61165 -2.470909 
L 467.908082 -2.470909 
L 467.204514 -2.470909 
L 466.500946 -2.470909 
L 465.797377 -2.470909 
L 465.093809 -2.470909 
L 464.390241 -2.470909 
L 463.686673 -2.470909 
L 462.983104 -2.470909 
L 462.279536 -2.470909 
L 461.575968 -2.470909 
L 460.872399 -2.470909 
L 460.168831 -2.470909 
L 459.465263 -2.470909 
L 458.761695 -2.470909 
L 458.058126 -2.470909 
L 457.354558 -2.470909 
L 456.65099 -2.470909 
L 455.947422 -2.470909 
L 455.243853 -2.470909 
L 454.540285 -2.470909 
L 453.836717 -2.470909 
L 453.133148 -2.470909 
L 452.42958 -2.470909 
L 451.726012 -2.470909 
L 451.022444 -2.470909 
L 450.318875 -2.470909 
L 449.615307 -2.470909 
L 448.911739 -2.470909 
L 448.20817 -2.470909 
L 447.504602 -2.470909 
L 446.801034 -2.470909 
L 446.097466 -2.470909 
L 445.393897 -2.470909 
L 444.690329 -2.470909 
L 443.986761 -2.470909 
L 443.283193 -2.470909 
L 442.579624 -2.470909 
L 441.876056 -2.470909 
L 441.172488 -2.470909 
L 440.468919 -2.470909 
L 439.765351 -2.470909 
L 439.061783 -2.470909 
L 438.358215 -2.470909 
L 437.654646 -2.470909 
L 436.951078 -2.470909 
L 436.24751 -2.470909 
L 435.543941 -2.470909 
L 434.840373 -2.470909 
L 434.136805 -2.470909 
L 433.433237 -2.470909 
L 432.729668 -2.470909 
L 432.0261 -2.470909 
L 431.322532 -2.470909 
L 430.618964 -2.470909 
L 429.915395 -2.470909 
L 429.211827 -2.470909 
L 428.508259 -2.470909 
L 427.80469 -2.470909 
L 427.101122 -2.470909 
L 426.397554 -2.470909 
L 425.693986 -2.470909 
L 424.990417 -2.470909 
L 424.286849 -2.470909 
L 423.583281 -2.470909 
L 422.879713 -2.470909 
L 422.176144 -2.470909 
L 421.472576 -2.470909 
L 420.769008 -2.470909 
L 420.065439 -2.470909 
L 419.361871 -2.470909 
L 418.658303 -2.470909 
L 417.954735 -2.470909 
L 417.251166 -2.470909 
L 416.547598 -2.470909 
L 415.84403 -2.470909 
L 415.140461 -2.470909 
L 414.436893 -2.470909 
L 413.733325 -2.470909 
L 413.029757 -2.470909 
L 412.326188 -2.470909 
L 411.62262 -2.470909 
L 410.919052 -2.470909 
L 410.215484 -2.470909 
L 409.511915 -2.470909 
L 408.808347 -2.470909 
L 408.104779 -2.470909 
L 407.40121 -2.470909 
L 406.697642 -2.470909 
L 405.994074 -2.470909 
L 405.290506 -2.470909 
L 404.586937 -2.470909 
L 403.883369 -2.470909 
L 403.179801 -2.470909 
L 402.476233 -2.470909 
L 401.772664 -2.470909 
L 401.069096 -2.470909 
L 400.365528 -2.470909 
L 399.661959 -2.470909 
L 398.958391 -2.470909 
L 398.254823 -2.470909 
L 397.551255 -2.470909 
L 396.847686 -2.470909 
L 396.144118 -2.470909 
L 395.44055 -2.470909 
L 394.736981 -2.470909 
L 394.033413 -2.470909 
L 393.329845 -2.470909 
L 392.626277 -2.470909 
L 391.922708 -2.470909 
L 391.21914 -2.470909 
L 390.515572 -2.470909 
L 389.812004 -2.470909 
L 389.108435 -2.470909 
L 388.404867 -2.470909 
L 387.701299 -2.470909 
L 386.99773 -2.470909 
L 386.294162 -2.470909 
L 385.590594 -2.470909 
L 384.887026 -2.470909 
L 384.183457 -2.470909 
L 383.479889 -2.470909 
L 382.776321 -2.470909 
L 382.072752 -2.470909 
L 381.369184 -2.470909 
L 380.665616 -2.470909 
L 379.962048 -2.470909 
L 379.258479 -2.470909 
L 378.554911 -2.470909 
L 377.851343 -2.470909 
L 377.147775 -2.470909 
L 376.444206 -2.470909 
L 375.740638 -2.470909 
L 375.03707 -2.470909 
L 374.333501 -2.470909 
L 373.629933 -2.470909 
L 372.926365 -2.470909 
L 372.222797 -2.470909 
L 371.519228 -2.470909 
L 370.81566 -2.470909 
L 370.112092 -2.470909 
L 369.408524 -2.470909 
L 368.704955 -2.470909 
L 368.001387 -2.470909 
L 367.297819 -2.470909 
L 366.59425 -2.470909 
L 365.890682 -2.470909 
L 365.187114 -2.470909 
L 364.483546 -2.470909 
L 363.779977 -2.470909 
L 363.076409 -2.470909 
L 362.372841 -2.470909 
L 361.669272 -2.470909 
L 360.965704 -2.470909 
L 360.262136 -2.470909 
L 359.558568 -2.470909 
L 358.854999 -2.470909 
L 358.151431 -2.470909 
L 357.447863 -2.470909 
L 356.744295 -2.470909 
L 356.040726 -2.470909 
L 355.337158 -2.470909 
L 354.63359 -2.470909 
L 353.930021 -2.470909 
L 353.226453 -2.470909 
L 352.522885 -2.470909 
L 351.819317 -2.470909 
L 351.115748 -2.470909 
L 350.41218 -2.470909 
L 349.708612 -2.470909 
L 349.005044 -2.470909 
L 348.301475 -2.470909 
L 347.597907 -2.470909 
L 346.894339 -2.470909 
L 346.19077 -2.470909 
L 345.487202 -2.470909 
L 344.783634 -2.470909 
L 344.080066 -2.470909 
L 343.376497 -2.470909 
L 342.672929 -2.470909 
L 341.969361 -2.470909 
L 341.265792 -2.470909 
L 340.562224 -2.470909 
L 339.858656 -2.470909 
L 339.155088 -2.470909 
L 338.451519 -2.470909 
L 337.747951 -2.470909 
L 337.044383 -2.470909 
L 336.340815 -2.470909 
L 335.637246 -2.470909 
L 334.933678 -2.470909 
L 334.23011 -2.470909 
L 333.526541 -2.470909 
L 332.822973 -2.470909 
L 332.119405 -2.470909 
L 331.415837 -2.470909 
L 330.712268 -2.470909 
L 330.0087 -2.470909 
L 329.305132 -2.470909 
L 328.601563 -2.470909 
L 327.897995 -2.470909 
L 327.194427 -2.470909 
L 326.490859 -2.470909 
L 325.78729 -2.470909 
L 325.083722 -2.470909 
L 324.380154 -2.470909 
L 323.676586 -2.470909 
L 322.973017 -2.470909 
L 322.269449 -2.470909 
L 321.565881 -2.470909 
L 320.862312 -2.470909 
L 320.158744 -2.470909 
L 319.455176 -2.470909 
L 318.751608 -2.470909 
L 318.048039 -2.470909 
L 317.344471 -2.470909 
L 316.640903 -2.470909 
L 315.937335 -2.470909 
L 315.233766 -2.470909 
L 314.530198 -2.470909 
L 313.82663 -2.470909 
L 313.123061 -2.470909 
L 312.419493 -2.470909 
L 311.715925 -2.470909 
L 311.012357 -2.470909 
L 310.308788 -2.470909 
L 309.60522 -2.470909 
L 308.901652 -2.470909 
L 308.198083 -2.470909 
L 307.494515 -2.470909 
L 306.790947 -2.470909 
L 306.087379 -2.470909 
L 305.38381 -2.470909 
L 304.680242 -2.470909 
L 303.976674 -2.470909 
L 303.273106 -2.470909 
L 302.569537 -2.470909 
L 301.865969 -2.470909 
L 301.162401 -2.470909 
L 300.458832 -2.470909 
L 299.755264 -2.470909 
L 299.051696 -2.470909 
L 298.348128 -2.470909 
L 297.644559 -2.470909 
L 296.940991 -2.470909 
L 296.237423 -2.470909 
L 295.533854 -2.470909 
L 294.830286 -2.470909 
z
" style="stroke: #116dc2; stroke-opacity: 0.2"/>
    </defs>
    <g clip-path="url(#p4da3f2c375)">
     <use xlink:href="#md890caad4e" x="0" y="54.36" style="fill: #116dc2; fill-opacity: 0.2; stroke: #116dc2; stroke-opacity: 0.2"/>
    </g>
   </g>
   <g id="PolyCollection_3">
    <defs>
     <path id="mdcaeec479b" d="M 25.363636 -2.470909 
L 25.363636 -4.397406 
L 26.067205 -4.882643 
L 26.770773 -5.428661 
L 27.474341 -6.025952 
L 28.177909 -6.666331 
L 28.881478 -7.381989 
L 29.585046 -8.252086 
L 30.288614 -9.340177 
L 30.992183 -10.623222 
L 31.695751 -11.998327 
L 32.399319 -13.374259 
L 33.102887 -14.76762 
L 33.806456 -16.298711 
L 34.510024 -18.066456 
L 35.213592 -20.026129 
L 35.917161 -22.01517 
L 36.620729 -23.897106 
L 37.324297 -25.654508 
L 38.027865 -27.376578 
L 38.731434 -29.222224 
L 39.435002 -31.359486 
L 40.13857 -33.849133 
L 40.842138 -36.583276 
L 41.545707 -39.365877 
L 42.249275 -42.015948 
L 42.952843 -44.388907 
L 43.656412 -46.381093 
L 44.35998 -47.949577 
L 45.063548 -49.102535 
L 45.767116 -49.903083 
L 46.470685 -50.506576 
L 47.174253 -51.089786 
L 47.877821 -51.644167 
L 48.581389 -51.889091 
L 49.284958 -51.468997 
L 49.988526 -50.240787 
L 50.692094 -48.384286 
L 51.395663 -46.281704 
L 52.099231 -44.273039 
L 52.802799 -42.449138 
L 53.506367 -40.634047 
L 54.209936 -38.566625 
L 54.913504 -36.120704 
L 55.617072 -33.396317 
L 56.320641 -30.637918 
L 57.024209 -28.0656 
L 57.727777 -25.757202 
L 58.431345 -23.640414 
L 59.134914 -21.570911 
L 59.838482 -19.465756 
L 60.54205 -17.393618 
L 61.245618 -15.496113 
L 61.949187 -13.828221 
L 62.652755 -12.339965 
L 63.356323 -10.991121 
L 64.059892 -9.798503 
L 64.76346 -8.771856 
L 65.467028 -7.874487 
L 66.170596 -7.069715 
L 66.874165 -6.364766 
L 67.577733 -5.783357 
L 68.281301 -5.31791 
L 68.984869 -4.924178 
L 68.984869 -2.470909 
L 68.984869 -2.470909 
L 68.281301 -2.470909 
L 67.577733 -2.470909 
L 66.874165 -2.470909 
L 66.170596 -2.470909 
L 65.467028 -2.470909 
L 64.76346 -2.470909 
L 64.059892 -2.470909 
L 63.356323 -2.470909 
L 62.652755 -2.470909 
L 61.949187 -2.470909 
L 61.245618 -2.470909 
L 60.54205 -2.470909 
L 59.838482 -2.470909 
L 59.134914 -2.470909 
L 58.431345 -2.470909 
L 57.727777 -2.470909 
L 57.024209 -2.470909 
L 56.320641 -2.470909 
L 55.617072 -2.470909 
L 54.913504 -2.470909 
L 54.209936 -2.470909 
L 53.506367 -2.470909 
L 52.802799 -2.470909 
L 52.099231 -2.470909 
L 51.395663 -2.470909 
L 50.692094 -2.470909 
L 49.988526 -2.470909 
L 49.284958 -2.470909 
L 48.581389 -2.470909 
L 47.877821 -2.470909 
L 47.174253 -2.470909 
L 46.470685 -2.470909 
L 45.767116 -2.470909 
L 45.063548 -2.470909 
L 44.35998 -2.470909 
L 43.656412 -2.470909 
L 42.952843 -2.470909 
L 42.249275 -2.470909 
L 41.545707 -2.470909 
L 40.842138 -2.470909 
L 40.13857 -2.470909 
L 39.435002 -2.470909 
L 38.731434 -2.470909 
L 38.027865 -2.470909 
L 37.324297 -2.470909 
L 36.620729 -2.470909 
L 35.917161 -2.470909 
L 35.213592 -2.470909 
L 34.510024 -2.470909 
L 33.806456 -2.470909 
L 33.102887 -2.470909 
L 32.399319 -2.470909 
L 31.695751 -2.470909 
L 30.992183 -2.470909 
L 30.288614 -2.470909 
L 29.585046 -2.470909 
L 28.881478 -2.470909 
L 28.177909 -2.470909 
L 27.474341 -2.470909 
L 26.770773 -2.470909 
L 26.067205 -2.470909 
L 25.363636 -2.470909 
z
" style="stroke: #8a8a8a; stroke-opacity: 0.2"/>
    </defs>
    <g clip-path="url(#p4da3f2c375)">
     <use xlink:href="#mdcaeec479b" x="0" y="54.36" style="fill: #8a8a8a; fill-opacity: 0.2; stroke: #8a8a8a; stroke-opacity: 0.2"/>
    </g>
   </g>
   <g id="line2d_1">
    <path d="M 177.334384 50.146871 
L 185.073635 48.887031 
L 187.887908 48.169737 
L 190.702181 47.211549 
L 194.220023 45.736788 
L 197.737864 43.985851 
L 201.255705 42.002031 
L 204.773547 39.763726 
L 207.58782 37.685355 
L 210.402093 35.276377 
L 213.216366 32.565729 
L 221.659185 24.160718 
L 223.066322 23.094512 
L 224.473459 22.229079 
L 226.584163 21.262895 
L 233.619846 18.541265 
L 242.766234 14.07999 
L 244.876939 13.365257 
L 246.987643 12.919155 
L 248.39478 12.81512 
L 249.801917 12.88673 
L 251.209053 13.137824 
L 252.61619 13.558022 
L 254.726894 14.45711 
L 256.837599 15.605603 
L 259.651872 17.4395 
L 262.466146 19.590471 
L 269.501828 25.29166 
L 277.241079 30.880439 
L 289.20174 40.590945 
L 292.016013 42.470555 
L 294.126718 43.623571 
L 296.940991 44.870016 
L 303.976674 47.587287 
L 307.494515 48.737435 
L 311.012357 49.663041 
L 314.530198 50.37734 
L 315.233766 50.489493 
L 315.233766 50.489493 
" clip-path="url(#p4da3f2c375)" style="fill: none; stroke: #cf1313; stroke-width: 1.5; stroke-linecap: square"/>
   </g>
   <g id="line2d_2">
    <path d="M 294.830286 50.542744 
L 303.273106 49.869613 
L 308.901652 49.193162 
L 313.82663 48.380122 
L 318.751608 47.335436 
L 325.083722 45.721809 
L 337.747951 42.271428 
L 341.265792 41.014584 
L 346.894339 38.701921 
L 355.337158 35.274881 
L 362.372841 32.340734 
L 378.554911 25.348763 
L 384.887026 23.108109 
L 399.661959 18.124315 
L 402.476233 17.463334 
L 405.290506 17.030159 
L 408.104779 16.828206 
L 411.62262 16.831718 
L 416.547598 17.109867 
L 420.769008 17.54041 
L 424.286849 18.088099 
L 428.508259 18.981264 
L 434.136805 20.442239 
L 439.061783 21.932684 
L 443.283193 23.458911 
L 446.801034 24.977323 
L 451.022444 27.067612 
L 457.354558 30.240888 
L 461.575968 32.079326 
L 468.61165 34.824728 
L 477.05447 37.922957 
L 486.200857 41.238703 
L 494.643677 44.405299 
L 498.161518 45.46347 
L 501.679359 46.306856 
L 506.604337 47.223869 
L 514.343588 48.375699 
L 526.304249 49.929117 
L 532.636364 50.50912 
L 532.636364 50.50912 
" clip-path="url(#p4da3f2c375)" style="fill: none; stroke: #116dc2; stroke-width: 1.5; stroke-linecap: square"/>
   </g>
   <g id="line2d_3">
    <path d="M 25.363636 49.962594 
L 26.067205 49.477357 
L 26.770773 48.931339 
L 27.474341 48.334048 
L 28.177909 47.693669 
L 28.881478 46.978011 
L 29.585046 46.107914 
L 30.288614 45.019823 
L 30.992183 43.736778 
L 31.695751 42.361673 
L 32.399319 40.985741 
L 33.102887 39.59238 
L 33.806456 38.061289 
L 34.510024 36.293544 
L 35.213592 34.333871 
L 35.917161 32.34483 
L 36.620729 30.462894 
L 37.324297 28.705492 
L 38.027865 26.983422 
L 38.731434 25.137776 
L 39.435002 23.000514 
L 40.13857 20.510867 
L 40.842138 17.776724 
L 41.545707 14.994123 
L 42.249275 12.344052 
L 42.952843 9.971093 
L 43.656412 7.978907 
L 44.35998 6.410423 
L 45.063548 5.257465 
L 45.767116 4.456917 
L 46.470685 3.853424 
L 47.174253 3.270214 
L 47.877821 2.715833 
L 48.581389 2.470909 
L 49.284958 2.891003 
L 49.988526 4.119213 
L 50.692094 5.975714 
L 51.395663 8.078296 
L 52.099231 10.086961 
L 52.802799 11.910862 
L 53.506367 13.725953 
L 54.209936 15.793375 
L 54.913504 18.239296 
L 55.617072 20.963683 
L 56.320641 23.722082 
L 57.024209 26.2944 
L 57.727777 28.602798 
L 58.431345 30.719586 
L 59.134914 32.789089 
L 59.838482 34.894244 
L 60.54205 36.966382 
L 61.245618 38.863887 
L 61.949187 40.531779 
L 62.652755 42.020035 
L 63.356323 43.368879 
L 64.059892 44.561497 
L 64.76346 45.588144 
L 65.467028 46.485513 
L 66.170596 47.290285 
L 66.874165 47.995234 
L 67.577733 48.576643 
L 68.281301 49.04209 
L 68.984869 49.435822 
" clip-path="url(#p4da3f2c375)" style="fill: none; stroke: #8a8a8a; stroke-width: 1.5; stroke-linecap: square"/>
   </g>
  </g>
 </g>
 <defs>
  <clipPath id="p4da3f2c375">
   <rect x="0" y="-0" width="558" height="54.36"/>
  </clipPath>
 </defs>
</svg>
