<?xml version="1.0" encoding="utf-8" standalone="no"?>
<!DOCTYPE svg PUBLIC "-//W3C//DTD SVG 1.1//EN"
  "http://www.w3.org/Graphics/SVG/1.1/DTD/svg11.dtd">
<svg xmlns:xlink="http://www.w3.org/1999/xlink" width="558pt" height="54.36pt" viewBox="0 0 558 54.36" xmlns="http://www.w3.org/2000/svg" version="1.1">
 <metadata>
  <rdf:RDF xmlns:dc="http://purl.org/dc/elements/1.1/" xmlns:cc="http://creativecommons.org/ns#" xmlns:rdf="http://www.w3.org/1999/02/22-rdf-syntax-ns#">
   <cc:Work>
    <dc:type rdf:resource="http://purl.org/dc/dcmitype/StillImage"/>
    <dc:date>2024-09-14T12:46:48.174233</dc:date>
    <dc:format>image/svg+xml</dc:format>
    <dc:creator>
     <cc:Agent>
      <dc:title>Matplotlib v3.5.2, https://matplotlib.org/</dc:title>
     </cc:Agent>
    </dc:creator>
   </cc:Work>
  </rdf:RDF>
 </metadata>
 <defs>
  <style type="text/css">*{stroke-linejoin: round; stroke-linecap: butt}</style>
 </defs>
 <g id="figure_1">
  <g id="patch_1">
   <path d="M 0 54.36 
L 558 54.36 
L 558 0 
L 0 0 
L 0 54.36 
z
" style="fill: none; opacity: 0"/>
  </g>
  <g id="axes_1">
   <g id="PolyCollection_1">
    <defs>
     <path id="m18c0bbc021" d="M 313.513809 -2.470909 
L 313.513809 -3.77752 
L 314.316456 -3.839503 
L 315.119102 -3.905609 
L 315.921749 -3.97616 
L 316.724396 -4.051408 
L 317.527043 -4.131529 
L 318.329689 -4.216628 
L 319.132336 -4.306731 
L 319.934983 -4.401797 
L 320.737629 -4.50172 
L 321.540276 -4.606327 
L 322.342923 -4.715384 
L 323.14557 -4.828594 
L 323.948216 -4.945599 
L 324.750863 -5.065977 
L 325.55351 -5.189257 
L 326.356157 -5.31492 
L 327.158803 -5.442423 
L 327.96145 -5.571223 
L 328.764097 -5.700805 
L 329.566743 -5.830718 
L 330.36939 -5.960615 
L 331.172037 -6.090281 
L 331.974684 -6.219671 
L 332.77733 -6.348927 
L 333.579977 -6.478388 
L 334.382624 -6.608592 
L 335.18527 -6.740259 
L 335.987917 -6.874268 
L 336.790564 -7.011614 
L 337.593211 -7.153373 
L 338.395857 -7.300648 
L 339.198504 -7.454525 
L 340.001151 -7.616024 
L 340.803797 -7.786067 
L 341.606444 -7.965436 
L 342.409091 -8.154759 
L 343.211738 -8.354492 
L 344.014384 -8.56491 
L 344.817031 -8.786118 
L 345.619678 -9.018051 
L 346.422325 -9.260496 
L 347.224971 -9.513106 
L 348.027618 -9.775424 
L 348.830265 -10.046907 
L 349.632911 -10.326952 
L 350.435558 -10.614921 
L 351.238205 -10.910166 
L 352.040852 -11.212056 
L 352.843498 -11.519998 
L 353.646145 -11.833449 
L 354.448792 -12.151931 
L 355.251438 -12.475033 
L 356.054085 -12.802403 
L 356.856732 -13.133737 
L 357.659379 -13.468759 
L 358.462025 -13.807193 
L 359.264672 -14.148738 
L 360.067319 -14.493041 
L 360.869965 -14.839682 
L 361.672612 -15.188159 
L 362.475259 -15.537899 
L 363.277906 -15.888268 
L 364.080552 -16.238606 
L 364.883199 -16.58827 
L 365.685846 -16.936683 
L 366.488493 -17.283389 
L 367.291139 -17.628102 
L 368.093786 -17.970757 
L 368.896433 -18.311532 
L 369.699079 -18.650868 
L 370.501726 -18.989458 
L 371.304373 -19.328226 
L 372.10702 -19.668272 
L 372.909666 -20.01081 
L 373.712313 -20.357091 
L 374.51496 -20.708313 
L 375.317606 -21.065533 
L 376.120253 -21.429579 
L 376.9229 -21.800977 
L 377.725547 -22.179896 
L 378.528193 -22.566107 
L 379.33084 -22.958979 
L 380.133487 -23.357499 
L 380.936133 -23.760319 
L 381.73878 -24.165832 
L 382.541427 -24.572273 
L 383.344074 -24.977826 
L 384.14672 -25.380746 
L 384.949367 -25.779472 
L 385.752014 -26.172725 
L 386.554661 -26.559586 
L 387.357307 -26.939538 
L 388.159954 -27.312478 
L 388.962601 -27.678686 
L 389.765247 -28.038773 
L 390.567894 -28.393589 
L 391.370541 -28.744127 
L 392.173188 -29.091417 
L 392.975834 -29.436425 
L 393.778481 -29.779978 
L 394.581128 -30.1227 
L 395.383774 -30.464985 
L 396.186421 -30.806997 
L 396.989068 -31.148686 
L 397.791715 -31.48983 
L 398.594361 -31.83007 
L 399.397008 -32.168956 
L 400.199655 -32.505969 
L 401.002301 -32.840533 
L 401.804948 -33.172006 
L 402.607595 -33.499649 
L 403.410242 -33.822596 
L 404.212888 -34.139801 
L 405.015535 -34.450011 
L 405.818182 -34.751743 
L 406.620829 -35.043295 
L 407.423475 -35.322778 
L 408.226122 -35.588197 
L 409.028769 -35.837541 
L 409.831415 -36.068919 
L 410.634062 -36.280689 
L 411.436709 -36.471598 
L 412.239356 -36.640905 
L 413.042002 -36.788473 
L 413.844649 -36.91483 
L 414.647296 -37.021174 
L 415.449942 -37.109342 
L 416.252589 -37.181718 
L 417.055236 -37.241111 
L 417.857883 -37.290595 
L 418.660529 -37.333334 
L 419.463176 -37.372396 
L 420.265823 -37.410584 
L 421.06847 -37.450275 
L 421.871116 -37.493297 
L 422.673763 -37.540841 
L 423.47641 -37.593413 
L 424.279056 -37.650821 
L 425.081703 -37.712212 
L 425.88435 -37.776122 
L 426.686997 -37.840573 
L 427.489643 -37.903171 
L 428.29229 -37.96123 
L 429.094937 -38.011886 
L 429.897583 -38.052226 
L 430.70023 -38.079405 
L 431.502877 -38.09075 
L 432.305524 -38.08387 
L 433.10817 -38.056734 
L 433.910817 -38.007754 
L 434.713464 -37.935836 
L 435.51611 -37.84042 
L 436.318757 -37.721497 
L 437.121404 -37.579598 
L 437.924051 -37.415759 
L 438.726697 -37.231459 
L 439.529344 -37.028528 
L 440.331991 -36.80904 
L 441.134638 -36.575183 
L 441.937284 -36.329128 
L 442.739931 -36.072893 
L 443.542578 -35.808231 
L 444.345224 -35.536533 
L 445.147871 -35.258767 
L 445.950518 -34.975451 
L 446.753165 -34.686676 
L 447.555811 -34.392149 
L 448.358458 -34.091288 
L 449.161105 -33.783323 
L 449.963751 -33.467421 
L 450.766398 -33.1428 
L 451.569045 -32.808837 
L 452.371692 -32.465151 
L 453.174338 -32.111656 
L 453.976985 -31.74858 
L 454.779632 -31.376448 
L 455.582278 -30.996047 
L 456.384925 -30.608352 
L 457.187572 -30.214454 
L 457.990219 -29.815478 
L 458.792865 -29.412504 
L 459.595512 -29.006511 
L 460.398159 -28.598327 
L 461.200806 -28.188611 
L 462.003452 -27.777848 
L 462.806099 -27.366363 
L 463.608746 -26.954352 
L 464.411392 -26.541908 
L 465.214039 -26.129061 
L 466.016686 -25.715801 
L 466.819333 -25.302106 
L 467.621979 -24.887948 
L 468.424626 -24.473302 
L 469.227273 -24.058146 
L 470.029919 -23.642456 
L 470.832566 -23.226203 
L 471.635213 -22.809364 
L 472.43786 -22.391923 
L 473.240506 -21.973894 
L 474.043153 -21.555344 
L 474.8458 -21.136412 
L 475.648446 -20.717339 
L 476.451093 -20.298482 
L 477.25374 -19.880321 
L 478.056387 -19.463456 
L 478.859033 -19.048589 
L 479.66168 -18.636493 
L 480.464327 -18.227977 
L 481.266974 -17.823841 
L 482.06962 -17.424841 
L 482.872267 -17.031652 
L 483.674914 -16.644845 
L 484.47756 -16.264884 
L 485.280207 -15.892125 
L 486.082854 -15.526841 
L 486.885501 -15.169244 
L 487.688147 -14.81952 
L 488.490794 -14.477857 
L 489.293441 -14.144469 
L 490.096087 -13.819606 
L 490.898734 -13.503549 
L 491.701381 -13.196594 
L 492.504028 -12.899012 
L 493.306674 -12.611008 
L 494.109321 -12.332667 
L 494.911968 -12.063907 
L 495.714614 -11.804434 
L 496.517261 -11.55371 
L 497.319908 -11.310945 
L 498.122555 -11.075108 
L 498.925201 -10.84496 
L 499.727848 -10.61911 
L 500.530495 -10.396091 
L 501.333142 -10.174448 
L 502.135788 -9.952829 
L 502.938435 -9.730077 
L 503.741082 -9.505313 
L 504.543728 -9.277997 
L 505.346375 -9.047972 
L 506.149022 -8.815474 
L 506.951669 -8.581124 
L 507.754315 -8.345884 
L 508.556962 -8.110994 
L 509.359609 -7.877894 
L 510.162255 -7.648127 
L 510.964902 -7.423249 
L 511.767549 -7.204732 
L 512.570196 -6.993891 
L 513.372842 -6.791813 
L 514.175489 -6.599321 
L 514.978136 -6.416947 
L 515.780783 -6.244935 
L 516.583429 -6.083258 
L 517.386076 -5.931652 
L 518.188723 -5.789658 
L 518.991369 -5.65667 
L 519.794016 -5.531984 
L 520.596663 -5.414837 
L 521.39931 -5.304446 
L 522.201956 -5.200032 
L 523.004603 -5.100843 
L 523.80725 -5.006164 
L 524.609896 -4.915324 
L 525.412543 -4.827703 
L 526.21519 -4.742734 
L 527.017837 -4.659911 
L 527.820483 -4.578794 
L 528.62313 -4.499019 
L 529.425777 -4.420308 
L 530.228423 -4.342474 
L 531.03107 -4.265427 
L 531.833717 -4.189175 
L 532.636364 -4.113812 
L 532.636364 -2.470909 
L 532.636364 -2.470909 
L 531.833717 -2.470909 
L 531.03107 -2.470909 
L 530.228423 -2.470909 
L 529.425777 -2.470909 
L 528.62313 -2.470909 
L 527.820483 -2.470909 
L 527.017837 -2.470909 
L 526.21519 -2.470909 
L 525.412543 -2.470909 
L 524.609896 -2.470909 
L 523.80725 -2.470909 
L 523.004603 -2.470909 
L 522.201956 -2.470909 
L 521.39931 -2.470909 
L 520.596663 -2.470909 
L 519.794016 -2.470909 
L 518.991369 -2.470909 
L 518.188723 -2.470909 
L 517.386076 -2.470909 
L 516.583429 -2.470909 
L 515.780783 -2.470909 
L 514.978136 -2.470909 
L 514.175489 -2.470909 
L 513.372842 -2.470909 
L 512.570196 -2.470909 
L 511.767549 -2.470909 
L 510.964902 -2.470909 
L 510.162255 -2.470909 
L 509.359609 -2.470909 
L 508.556962 -2.470909 
L 507.754315 -2.470909 
L 506.951669 -2.470909 
L 506.149022 -2.470909 
L 505.346375 -2.470909 
L 504.543728 -2.470909 
L 503.741082 -2.470909 
L 502.938435 -2.470909 
L 502.135788 -2.470909 
L 501.333142 -2.470909 
L 500.530495 -2.470909 
L 499.727848 -2.470909 
L 498.925201 -2.470909 
L 498.122555 -2.470909 
L 497.319908 -2.470909 
L 496.517261 -2.470909 
L 495.714614 -2.470909 
L 494.911968 -2.470909 
L 494.109321 -2.470909 
L 493.306674 -2.470909 
L 492.504028 -2.470909 
L 491.701381 -2.470909 
L 490.898734 -2.470909 
L 490.096087 -2.470909 
L 489.293441 -2.470909 
L 488.490794 -2.470909 
L 487.688147 -2.470909 
L 486.885501 -2.470909 
L 486.082854 -2.470909 
L 485.280207 -2.470909 
L 484.47756 -2.470909 
L 483.674914 -2.470909 
L 482.872267 -2.470909 
L 482.06962 -2.470909 
L 481.266974 -2.470909 
L 480.464327 -2.470909 
L 479.66168 -2.470909 
L 478.859033 -2.470909 
L 478.056387 -2.470909 
L 477.25374 -2.470909 
L 476.451093 -2.470909 
L 475.648446 -2.470909 
L 474.8458 -2.470909 
L 474.043153 -2.470909 
L 473.240506 -2.470909 
L 472.43786 -2.470909 
L 471.635213 -2.470909 
L 470.832566 -2.470909 
L 470.029919 -2.470909 
L 469.227273 -2.470909 
L 468.424626 -2.470909 
L 467.621979 -2.470909 
L 466.819333 -2.470909 
L 466.016686 -2.470909 
L 465.214039 -2.470909 
L 464.411392 -2.470909 
L 463.608746 -2.470909 
L 462.806099 -2.470909 
L 462.003452 -2.470909 
L 461.200806 -2.470909 
L 460.398159 -2.470909 
L 459.595512 -2.470909 
L 458.792865 -2.470909 
L 457.990219 -2.470909 
L 457.187572 -2.470909 
L 456.384925 -2.470909 
L 455.582278 -2.470909 
L 454.779632 -2.470909 
L 453.976985 -2.470909 
L 453.174338 -2.470909 
L 452.371692 -2.470909 
L 451.569045 -2.470909 
L 450.766398 -2.470909 
L 449.963751 -2.470909 
L 449.161105 -2.470909 
L 448.358458 -2.470909 
L 447.555811 -2.470909 
L 446.753165 -2.470909 
L 445.950518 -2.470909 
L 445.147871 -2.470909 
L 444.345224 -2.470909 
L 443.542578 -2.470909 
L 442.739931 -2.470909 
L 441.937284 -2.470909 
L 441.134638 -2.470909 
L 440.331991 -2.470909 
L 439.529344 -2.470909 
L 438.726697 -2.470909 
L 437.924051 -2.470909 
L 437.121404 -2.470909 
L 436.318757 -2.470909 
L 435.51611 -2.470909 
L 434.713464 -2.470909 
L 433.910817 -2.470909 
L 433.10817 -2.470909 
L 432.305524 -2.470909 
L 431.502877 -2.470909 
L 430.70023 -2.470909 
L 429.897583 -2.470909 
L 429.094937 -2.470909 
L 428.29229 -2.470909 
L 427.489643 -2.470909 
L 426.686997 -2.470909 
L 425.88435 -2.470909 
L 425.081703 -2.470909 
L 424.279056 -2.470909 
L 423.47641 -2.470909 
L 422.673763 -2.470909 
L 421.871116 -2.470909 
L 421.06847 -2.470909 
L 420.265823 -2.470909 
L 419.463176 -2.470909 
L 418.660529 -2.470909 
L 417.857883 -2.470909 
L 417.055236 -2.470909 
L 416.252589 -2.470909 
L 415.449942 -2.470909 
L 414.647296 -2.470909 
L 413.844649 -2.470909 
L 413.042002 -2.470909 
L 412.239356 -2.470909 
L 411.436709 -2.470909 
L 410.634062 -2.470909 
L 409.831415 -2.470909 
L 409.028769 -2.470909 
L 408.226122 -2.470909 
L 407.423475 -2.470909 
L 406.620829 -2.470909 
L 405.818182 -2.470909 
L 405.015535 -2.470909 
L 404.212888 -2.470909 
L 403.410242 -2.470909 
L 402.607595 -2.470909 
L 401.804948 -2.470909 
L 401.002301 -2.470909 
L 400.199655 -2.470909 
L 399.397008 -2.470909 
L 398.594361 -2.470909 
L 397.791715 -2.470909 
L 396.989068 -2.470909 
L 396.186421 -2.470909 
L 395.383774 -2.470909 
L 394.581128 -2.470909 
L 393.778481 -2.470909 
L 392.975834 -2.470909 
L 392.173188 -2.470909 
L 391.370541 -2.470909 
L 390.567894 -2.470909 
L 389.765247 -2.470909 
L 388.962601 -2.470909 
L 388.159954 -2.470909 
L 387.357307 -2.470909 
L 386.554661 -2.470909 
L 385.752014 -2.470909 
L 384.949367 -2.470909 
L 384.14672 -2.470909 
L 383.344074 -2.470909 
L 382.541427 -2.470909 
L 381.73878 -2.470909 
L 380.936133 -2.470909 
L 380.133487 -2.470909 
L 379.33084 -2.470909 
L 378.528193 -2.470909 
L 377.725547 -2.470909 
L 376.9229 -2.470909 
L 376.120253 -2.470909 
L 375.317606 -2.470909 
L 374.51496 -2.470909 
L 373.712313 -2.470909 
L 372.909666 -2.470909 
L 372.10702 -2.470909 
L 371.304373 -2.470909 
L 370.501726 -2.470909 
L 369.699079 -2.470909 
L 368.896433 -2.470909 
L 368.093786 -2.470909 
L 367.291139 -2.470909 
L 366.488493 -2.470909 
L 365.685846 -2.470909 
L 364.883199 -2.470909 
L 364.080552 -2.470909 
L 363.277906 -2.470909 
L 362.475259 -2.470909 
L 361.672612 -2.470909 
L 360.869965 -2.470909 
L 360.067319 -2.470909 
L 359.264672 -2.470909 
L 358.462025 -2.470909 
L 357.659379 -2.470909 
L 356.856732 -2.470909 
L 356.054085 -2.470909 
L 355.251438 -2.470909 
L 354.448792 -2.470909 
L 353.646145 -2.470909 
L 352.843498 -2.470909 
L 352.040852 -2.470909 
L 351.238205 -2.470909 
L 350.435558 -2.470909 
L 349.632911 -2.470909 
L 348.830265 -2.470909 
L 348.027618 -2.470909 
L 347.224971 -2.470909 
L 346.422325 -2.470909 
L 345.619678 -2.470909 
L 344.817031 -2.470909 
L 344.014384 -2.470909 
L 343.211738 -2.470909 
L 342.409091 -2.470909 
L 341.606444 -2.470909 
L 340.803797 -2.470909 
L 340.001151 -2.470909 
L 339.198504 -2.470909 
L 338.395857 -2.470909 
L 337.593211 -2.470909 
L 336.790564 -2.470909 
L 335.987917 -2.470909 
L 335.18527 -2.470909 
L 334.382624 -2.470909 
L 333.579977 -2.470909 
L 332.77733 -2.470909 
L 331.974684 -2.470909 
L 331.172037 -2.470909 
L 330.36939 -2.470909 
L 329.566743 -2.470909 
L 328.764097 -2.470909 
L 327.96145 -2.470909 
L 327.158803 -2.470909 
L 326.356157 -2.470909 
L 325.55351 -2.470909 
L 324.750863 -2.470909 
L 323.948216 -2.470909 
L 323.14557 -2.470909 
L 322.342923 -2.470909 
L 321.540276 -2.470909 
L 320.737629 -2.470909 
L 319.934983 -2.470909 
L 319.132336 -2.470909 
L 318.329689 -2.470909 
L 317.527043 -2.470909 
L 316.724396 -2.470909 
L 315.921749 -2.470909 
L 315.119102 -2.470909 
L 314.316456 -2.470909 
L 313.513809 -2.470909 
z
" style="stroke: #cf1313; stroke-opacity: 0.2"/>
    </defs>
    <g clip-path="url(#pd68e4eee55)">
     <use xlink:href="#m18c0bbc021" x="0" y="54.36" style="fill: #cf1313; fill-opacity: 0.2; stroke: #cf1313; stroke-opacity: 0.2"/>
    </g>
   </g>
   <g id="PolyCollection_2">
    <defs>
     <path id="m820692d3e0" d="M 169.037399 -2.470909 
L 169.037399 -3.754617 
L 169.840046 -3.811287 
L 170.642693 -3.870781 
L 171.445339 -3.932981 
L 172.247986 -3.997714 
L 173.050633 -4.064745 
L 173.85328 -4.133782 
L 174.655926 -4.204482 
L 175.458573 -4.276457 
L 176.26122 -4.349285 
L 177.063867 -4.422524 
L 177.866513 -4.495725 
L 178.66916 -4.568449 
L 179.471807 -4.640281 
L 180.274453 -4.71085 
L 181.0771 -4.779846 
L 181.879747 -4.847028 
L 182.682394 -4.912244 
L 183.48504 -4.975434 
L 184.287687 -5.036642 
L 185.090334 -5.09601 
L 185.89298 -5.153785 
L 186.695627 -5.210311 
L 187.498274 -5.266016 
L 188.300921 -5.321408 
L 189.103567 -5.377056 
L 189.906214 -5.433573 
L 190.708861 -5.491605 
L 191.511507 -5.551807 
L 192.314154 -5.614833 
L 193.116801 -5.681314 
L 193.919448 -5.751849 
L 194.722094 -5.82699 
L 195.524741 -5.907234 
L 196.327388 -5.993013 
L 197.130035 -6.084692 
L 197.932681 -6.182564 
L 198.735328 -6.286847 
L 199.537975 -6.39769 
L 200.340621 -6.515174 
L 201.143268 -6.639316 
L 201.945915 -6.770073 
L 202.748562 -6.907352 
L 203.551208 -7.051018 
L 204.353855 -7.200899 
L 205.156502 -7.3568 
L 205.959148 -7.518504 
L 206.761795 -7.685787 
L 207.564442 -7.858423 
L 208.367089 -8.036188 
L 209.169735 -8.218864 
L 209.972382 -8.406244 
L 210.775029 -8.598129 
L 211.577675 -8.794323 
L 212.380322 -8.994637 
L 213.182969 -9.198871 
L 213.985616 -9.406819 
L 214.788262 -9.618252 
L 215.590909 -9.832918 
L 216.393556 -10.050534 
L 217.196203 -10.270784 
L 217.998849 -10.493323 
L 218.801496 -10.717778 
L 219.604143 -10.943763 
L 220.406789 -11.170884 
L 221.209436 -11.398762 
L 222.012083 -11.627051 
L 222.81473 -11.855453 
L 223.617376 -12.083744 
L 224.420023 -12.31179 
L 225.22267 -12.539559 
L 226.025316 -12.767135 
L 226.827963 -12.994721 
L 227.63061 -13.222635 
L 228.433257 -13.451304 
L 229.235903 -13.681247 
L 230.03855 -13.913056 
L 230.841197 -14.147367 
L 231.643843 -14.384835 
L 232.44649 -14.626102 
L 233.249137 -14.871773 
L 234.051784 -15.122384 
L 234.85443 -15.378386 
L 235.657077 -15.640125 
L 236.459724 -15.907836 
L 237.262371 -16.181643 
L 238.065017 -16.461558 
L 238.867664 -16.747502 
L 239.670311 -17.039316 
L 240.472957 -17.336783 
L 241.275604 -17.639656 
L 242.078251 -17.947677 
L 242.880898 -18.260602 
L 243.683544 -18.578216 
L 244.486191 -18.900351 
L 245.288838 -19.226884 
L 246.091484 -19.557743 
L 246.894131 -19.892894 
L 247.696778 -20.232325 
L 248.499425 -20.576022 
L 249.302071 -20.923947 
L 250.104718 -21.276004 
L 250.907365 -21.632012 
L 251.710012 -21.991677 
L 252.512658 -22.354573 
L 253.315305 -22.720124 
L 254.117952 -23.0876 
L 254.920598 -23.456122 
L 255.723245 -23.824676 
L 256.525892 -24.192134 
L 257.328539 -24.557296 
L 258.131185 -24.918918 
L 258.933832 -25.275765 
L 259.736479 -25.626653 
L 260.539125 -25.970493 
L 261.341772 -26.306332 
L 262.144419 -26.633384 
L 262.947066 -26.951057 
L 263.749712 -27.258967 
L 264.552359 -27.556938 
L 265.355006 -27.845003 
L 266.157652 -28.123387 
L 266.960299 -28.392481 
L 267.762946 -28.652824 
L 268.565593 -28.905066 
L 269.368239 -29.149943 
L 270.170886 -29.38825 
L 270.973533 -29.620813 
L 271.77618 -29.848474 
L 272.578826 -30.072077 
L 273.381473 -30.292455 
L 274.18412 -30.510426 
L 274.986766 -30.726795 
L 275.789413 -30.942345 
L 276.59206 -31.157839 
L 277.394707 -31.374017 
L 278.197353 -31.591581 
L 279 -31.811186 
L 279.802647 -32.033417 
L 280.605293 -32.25877 
L 281.40794 -32.487613 
L 282.210587 -32.720163 
L 283.013234 -32.956449 
L 283.81588 -33.196281 
L 284.618527 -33.439227 
L 285.421174 -33.684587 
L 286.22382 -33.931393 
L 287.026467 -34.178405 
L 287.829114 -34.424131 
L 288.631761 -34.666856 
L 289.434407 -34.904689 
L 290.237054 -35.13562 
L 291.039701 -35.357587 
L 291.842348 -35.568551 
L 292.644994 -35.766577 
L 293.447641 -35.949908 
L 294.250288 -36.117041 
L 295.052934 -36.266786 
L 295.855581 -36.398315 
L 296.658228 -36.511193 
L 297.460875 -36.605388 
L 298.263521 -36.68126 
L 299.066168 -36.739533 
L 299.868815 -36.781248 
L 300.671461 -36.807696 
L 301.474108 -36.820342 
L 302.276755 -36.82075 
L 303.079402 -36.810494 
L 303.882048 -36.791082 
L 304.684695 -36.763887 
L 305.487342 -36.730092 
L 306.289988 -36.690648 
L 307.092635 -36.646253 
L 307.895282 -36.597346 
L 308.697929 -36.544123 
L 309.500575 -36.486559 
L 310.303222 -36.424453 
L 311.105869 -36.35747 
L 311.908516 -36.285191 
L 312.711162 -36.207161 
L 313.513809 -36.122934 
L 314.316456 -36.032106 
L 315.119102 -35.934343 
L 315.921749 -35.829397 
L 316.724396 -35.717109 
L 317.527043 -35.597401 
L 318.329689 -35.470267 
L 319.132336 -35.335752 
L 319.934983 -35.193928 
L 320.737629 -35.044874 
L 321.540276 -34.888655 
L 322.342923 -34.725304 
L 323.14557 -34.554821 
L 323.948216 -34.377161 
L 324.750863 -34.192249 
L 325.55351 -33.999985 
L 326.356157 -33.800271 
L 327.158803 -33.593027 
L 327.96145 -33.37822 
L 328.764097 -33.155888 
L 329.566743 -32.926164 
L 330.36939 -32.689295 
L 331.172037 -32.445649 
L 331.974684 -32.195729 
L 332.77733 -31.940158 
L 333.579977 -31.679676 
L 334.382624 -31.415116 
L 335.18527 -31.147374 
L 335.987917 -30.877383 
L 336.790564 -30.606073 
L 337.593211 -30.334339 
L 338.395857 -30.063001 
L 339.198504 -29.792784 
L 340.001151 -29.524284 
L 340.803797 -29.25796 
L 341.606444 -28.994117 
L 342.409091 -28.732915 
L 343.211738 -28.47437 
L 344.014384 -28.218371 
L 344.817031 -27.964696 
L 345.619678 -27.713041 
L 346.422325 -27.463036 
L 347.224971 -27.214271 
L 348.027618 -26.966317 
L 348.830265 -26.718743 
L 349.632911 -26.471124 
L 350.435558 -26.223056 
L 351.238205 -25.974158 
L 352.040852 -25.724074 
L 352.843498 -25.472472 
L 353.646145 -25.219046 
L 354.448792 -24.963516 
L 355.251438 -24.705631 
L 356.054085 -24.445171 
L 356.856732 -24.181957 
L 357.659379 -23.915857 
L 358.462025 -23.646801 
L 359.264672 -23.374785 
L 360.067319 -23.099886 
L 360.869965 -22.822262 
L 361.672612 -22.54216 
L 362.475259 -22.259909 
L 363.277906 -21.975913 
L 364.080552 -21.690635 
L 364.883199 -21.404579 
L 365.685846 -21.118265 
L 366.488493 -20.832204 
L 367.291139 -20.54687 
L 368.093786 -20.262671 
L 368.896433 -19.979933 
L 369.699079 -19.698874 
L 370.501726 -19.4196 
L 371.304373 -19.142097 
L 372.10702 -18.866235 
L 372.909666 -18.591785 
L 373.712313 -18.318429 
L 374.51496 -18.045795 
L 375.317606 -17.773478 
L 376.120253 -17.501075 
L 376.9229 -17.228216 
L 377.725547 -16.954594 
L 378.528193 -16.679987 
L 379.33084 -16.404286 
L 380.133487 -16.127501 
L 380.936133 -15.849776 
L 381.73878 -15.571382 
L 382.541427 -15.292714 
L 383.344074 -15.014276 
L 384.14672 -14.736661 
L 384.949367 -14.460525 
L 385.752014 -14.186566 
L 386.554661 -13.915489 
L 387.357307 -13.647985 
L 388.159954 -13.384697 
L 388.962601 -13.126202 
L 389.765247 -12.872987 
L 390.567894 -12.625438 
L 391.370541 -12.383822 
L 392.173188 -12.14829 
L 392.975834 -11.918871 
L 393.778481 -11.695476 
L 394.581128 -11.477914 
L 395.383774 -11.265897 
L 396.186421 -11.059063 
L 396.989068 -10.856989 
L 397.791715 -10.659216 
L 398.594361 -10.46527 
L 399.397008 -10.274677 
L 400.199655 -10.086991 
L 401.002301 -9.901804 
L 401.804948 -9.718767 
L 402.607595 -9.537595 
L 403.410242 -9.358082 
L 404.212888 -9.180098 
L 405.015535 -9.003593 
L 405.818182 -8.828591 
L 406.620829 -8.655179 
L 407.423475 -8.483503 
L 408.226122 -8.313745 
L 409.028769 -8.146119 
L 409.831415 -7.980846 
L 410.634062 -7.818151 
L 411.436709 -7.658238 
L 412.239356 -7.501292 
L 413.042002 -7.347462 
L 413.844649 -7.196864 
L 414.647296 -7.049572 
L 415.449942 -6.905629 
L 416.252589 -6.76504 
L 417.055236 -6.62779 
L 417.857883 -6.493838 
L 418.660529 -6.363133 
L 419.463176 -6.235619 
L 420.265823 -6.111239 
L 421.06847 -5.989938 
L 421.871116 -5.871671 
L 422.673763 -5.756402 
L 423.47641 -5.644102 
L 424.279056 -5.534751 
L 425.081703 -5.428336 
L 425.88435 -5.324843 
L 426.686997 -5.224264 
L 427.489643 -5.126584 
L 428.29229 -5.031788 
L 429.094937 -4.939854 
L 429.897583 -4.850754 
L 430.70023 -4.764455 
L 431.502877 -4.680916 
L 432.305524 -4.600094 
L 433.10817 -4.52194 
L 433.910817 -4.446401 
L 434.713464 -4.373424 
L 435.51611 -4.30295 
L 436.318757 -4.234921 
L 437.121404 -4.169276 
L 437.924051 -4.105949 
L 438.726697 -4.044875 
L 439.529344 -3.985982 
L 440.331991 -3.929198 
L 441.134638 -3.874447 
L 441.937284 -3.821648 
L 441.937284 -2.470909 
L 441.937284 -2.470909 
L 441.134638 -2.470909 
L 440.331991 -2.470909 
L 439.529344 -2.470909 
L 438.726697 -2.470909 
L 437.924051 -2.470909 
L 437.121404 -2.470909 
L 436.318757 -2.470909 
L 435.51611 -2.470909 
L 434.713464 -2.470909 
L 433.910817 -2.470909 
L 433.10817 -2.470909 
L 432.305524 -2.470909 
L 431.502877 -2.470909 
L 430.70023 -2.470909 
L 429.897583 -2.470909 
L 429.094937 -2.470909 
L 428.29229 -2.470909 
L 427.489643 -2.470909 
L 426.686997 -2.470909 
L 425.88435 -2.470909 
L 425.081703 -2.470909 
L 424.279056 -2.470909 
L 423.47641 -2.470909 
L 422.673763 -2.470909 
L 421.871116 -2.470909 
L 421.06847 -2.470909 
L 420.265823 -2.470909 
L 419.463176 -2.470909 
L 418.660529 -2.470909 
L 417.857883 -2.470909 
L 417.055236 -2.470909 
L 416.252589 -2.470909 
L 415.449942 -2.470909 
L 414.647296 -2.470909 
L 413.844649 -2.470909 
L 413.042002 -2.470909 
L 412.239356 -2.470909 
L 411.436709 -2.470909 
L 410.634062 -2.470909 
L 409.831415 -2.470909 
L 409.028769 -2.470909 
L 408.226122 -2.470909 
L 407.423475 -2.470909 
L 406.620829 -2.470909 
L 405.818182 -2.470909 
L 405.015535 -2.470909 
L 404.212888 -2.470909 
L 403.410242 -2.470909 
L 402.607595 -2.470909 
L 401.804948 -2.470909 
L 401.002301 -2.470909 
L 400.199655 -2.470909 
L 399.397008 -2.470909 
L 398.594361 -2.470909 
L 397.791715 -2.470909 
L 396.989068 -2.470909 
L 396.186421 -2.470909 
L 395.383774 -2.470909 
L 394.581128 -2.470909 
L 393.778481 -2.470909 
L 392.975834 -2.470909 
L 392.173188 -2.470909 
L 391.370541 -2.470909 
L 390.567894 -2.470909 
L 389.765247 -2.470909 
L 388.962601 -2.470909 
L 388.159954 -2.470909 
L 387.357307 -2.470909 
L 386.554661 -2.470909 
L 385.752014 -2.470909 
L 384.949367 -2.470909 
L 384.14672 -2.470909 
L 383.344074 -2.470909 
L 382.541427 -2.470909 
L 381.73878 -2.470909 
L 380.936133 -2.470909 
L 380.133487 -2.470909 
L 379.33084 -2.470909 
L 378.528193 -2.470909 
L 377.725547 -2.470909 
L 376.9229 -2.470909 
L 376.120253 -2.470909 
L 375.317606 -2.470909 
L 374.51496 -2.470909 
L 373.712313 -2.470909 
L 372.909666 -2.470909 
L 372.10702 -2.470909 
L 371.304373 -2.470909 
L 370.501726 -2.470909 
L 369.699079 -2.470909 
L 368.896433 -2.470909 
L 368.093786 -2.470909 
L 367.291139 -2.470909 
L 366.488493 -2.470909 
L 365.685846 -2.470909 
L 364.883199 -2.470909 
L 364.080552 -2.470909 
L 363.277906 -2.470909 
L 362.475259 -2.470909 
L 361.672612 -2.470909 
L 360.869965 -2.470909 
L 360.067319 -2.470909 
L 359.264672 -2.470909 
L 358.462025 -2.470909 
L 357.659379 -2.470909 
L 356.856732 -2.470909 
L 356.054085 -2.470909 
L 355.251438 -2.470909 
L 354.448792 -2.470909 
L 353.646145 -2.470909 
L 352.843498 -2.470909 
L 352.040852 -2.470909 
L 351.238205 -2.470909 
L 350.435558 -2.470909 
L 349.632911 -2.470909 
L 348.830265 -2.470909 
L 348.027618 -2.470909 
L 347.224971 -2.470909 
L 346.422325 -2.470909 
L 345.619678 -2.470909 
L 344.817031 -2.470909 
L 344.014384 -2.470909 
L 343.211738 -2.470909 
L 342.409091 -2.470909 
L 341.606444 -2.470909 
L 340.803797 -2.470909 
L 340.001151 -2.470909 
L 339.198504 -2.470909 
L 338.395857 -2.470909 
L 337.593211 -2.470909 
L 336.790564 -2.470909 
L 335.987917 -2.470909 
L 335.18527 -2.470909 
L 334.382624 -2.470909 
L 333.579977 -2.470909 
L 332.77733 -2.470909 
L 331.974684 -2.470909 
L 331.172037 -2.470909 
L 330.36939 -2.470909 
L 329.566743 -2.470909 
L 328.764097 -2.470909 
L 327.96145 -2.470909 
L 327.158803 -2.470909 
L 326.356157 -2.470909 
L 325.55351 -2.470909 
L 324.750863 -2.470909 
L 323.948216 -2.470909 
L 323.14557 -2.470909 
L 322.342923 -2.470909 
L 321.540276 -2.470909 
L 320.737629 -2.470909 
L 319.934983 -2.470909 
L 319.132336 -2.470909 
L 318.329689 -2.470909 
L 317.527043 -2.470909 
L 316.724396 -2.470909 
L 315.921749 -2.470909 
L 315.119102 -2.470909 
L 314.316456 -2.470909 
L 313.513809 -2.470909 
L 312.711162 -2.470909 
L 311.908516 -2.470909 
L 311.105869 -2.470909 
L 310.303222 -2.470909 
L 309.500575 -2.470909 
L 308.697929 -2.470909 
L 307.895282 -2.470909 
L 307.092635 -2.470909 
L 306.289988 -2.470909 
L 305.487342 -2.470909 
L 304.684695 -2.470909 
L 303.882048 -2.470909 
L 303.079402 -2.470909 
L 302.276755 -2.470909 
L 301.474108 -2.470909 
L 300.671461 -2.470909 
L 299.868815 -2.470909 
L 299.066168 -2.470909 
L 298.263521 -2.470909 
L 297.460875 -2.470909 
L 296.658228 -2.470909 
L 295.855581 -2.470909 
L 295.052934 -2.470909 
L 294.250288 -2.470909 
L 293.447641 -2.470909 
L 292.644994 -2.470909 
L 291.842348 -2.470909 
L 291.039701 -2.470909 
L 290.237054 -2.470909 
L 289.434407 -2.470909 
L 288.631761 -2.470909 
L 287.829114 -2.470909 
L 287.026467 -2.470909 
L 286.22382 -2.470909 
L 285.421174 -2.470909 
L 284.618527 -2.470909 
L 283.81588 -2.470909 
L 283.013234 -2.470909 
L 282.210587 -2.470909 
L 281.40794 -2.470909 
L 280.605293 -2.470909 
L 279.802647 -2.470909 
L 279 -2.470909 
L 278.197353 -2.470909 
L 277.394707 -2.470909 
L 276.59206 -2.470909 
L 275.789413 -2.470909 
L 274.986766 -2.470909 
L 274.18412 -2.470909 
L 273.381473 -2.470909 
L 272.578826 -2.470909 
L 271.77618 -2.470909 
L 270.973533 -2.470909 
L 270.170886 -2.470909 
L 269.368239 -2.470909 
L 268.565593 -2.470909 
L 267.762946 -2.470909 
L 266.960299 -2.470909 
L 266.157652 -2.470909 
L 265.355006 -2.470909 
L 264.552359 -2.470909 
L 263.749712 -2.470909 
L 262.947066 -2.470909 
L 262.144419 -2.470909 
L 261.341772 -2.470909 
L 260.539125 -2.470909 
L 259.736479 -2.470909 
L 258.933832 -2.470909 
L 258.131185 -2.470909 
L 257.328539 -2.470909 
L 256.525892 -2.470909 
L 255.723245 -2.470909 
L 254.920598 -2.470909 
L 254.117952 -2.470909 
L 253.315305 -2.470909 
L 252.512658 -2.470909 
L 251.710012 -2.470909 
L 250.907365 -2.470909 
L 250.104718 -2.470909 
L 249.302071 -2.470909 
L 248.499425 -2.470909 
L 247.696778 -2.470909 
L 246.894131 -2.470909 
L 246.091484 -2.470909 
L 245.288838 -2.470909 
L 244.486191 -2.470909 
L 243.683544 -2.470909 
L 242.880898 -2.470909 
L 242.078251 -2.470909 
L 241.275604 -2.470909 
L 240.472957 -2.470909 
L 239.670311 -2.470909 
L 238.867664 -2.470909 
L 238.065017 -2.470909 
L 237.262371 -2.470909 
L 236.459724 -2.470909 
L 235.657077 -2.470909 
L 234.85443 -2.470909 
L 234.051784 -2.470909 
L 233.249137 -2.470909 
L 232.44649 -2.470909 
L 231.643843 -2.470909 
L 230.841197 -2.470909 
L 230.03855 -2.470909 
L 229.235903 -2.470909 
L 228.433257 -2.470909 
L 227.63061 -2.470909 
L 226.827963 -2.470909 
L 226.025316 -2.470909 
L 225.22267 -2.470909 
L 224.420023 -2.470909 
L 223.617376 -2.470909 
L 222.81473 -2.470909 
L 222.012083 -2.470909 
L 221.209436 -2.470909 
L 220.406789 -2.470909 
L 219.604143 -2.470909 
L 218.801496 -2.470909 
L 217.998849 -2.470909 
L 217.196203 -2.470909 
L 216.393556 -2.470909 
L 215.590909 -2.470909 
L 214.788262 -2.470909 
L 213.985616 -2.470909 
L 213.182969 -2.470909 
L 212.380322 -2.470909 
L 211.577675 -2.470909 
L 210.775029 -2.470909 
L 209.972382 -2.470909 
L 209.169735 -2.470909 
L 208.367089 -2.470909 
L 207.564442 -2.470909 
L 206.761795 -2.470909 
L 205.959148 -2.470909 
L 205.156502 -2.470909 
L 204.353855 -2.470909 
L 203.551208 -2.470909 
L 202.748562 -2.470909 
L 201.945915 -2.470909 
L 201.143268 -2.470909 
L 200.340621 -2.470909 
L 199.537975 -2.470909 
L 198.735328 -2.470909 
L 197.932681 -2.470909 
L 197.130035 -2.470909 
L 196.327388 -2.470909 
L 195.524741 -2.470909 
L 194.722094 -2.470909 
L 193.919448 -2.470909 
L 193.116801 -2.470909 
L 192.314154 -2.470909 
L 191.511507 -2.470909 
L 190.708861 -2.470909 
L 189.906214 -2.470909 
L 189.103567 -2.470909 
L 188.300921 -2.470909 
L 187.498274 -2.470909 
L 186.695627 -2.470909 
L 185.89298 -2.470909 
L 185.090334 -2.470909 
L 184.287687 -2.470909 
L 183.48504 -2.470909 
L 182.682394 -2.470909 
L 181.879747 -2.470909 
L 181.0771 -2.470909 
L 180.274453 -2.470909 
L 179.471807 -2.470909 
L 178.66916 -2.470909 
L 177.866513 -2.470909 
L 177.063867 -2.470909 
L 176.26122 -2.470909 
L 175.458573 -2.470909 
L 174.655926 -2.470909 
L 173.85328 -2.470909 
L 173.050633 -2.470909 
L 172.247986 -2.470909 
L 171.445339 -2.470909 
L 170.642693 -2.470909 
L 169.840046 -2.470909 
L 169.037399 -2.470909 
z
" style="stroke: #116dc2; stroke-opacity: 0.2"/>
    </defs>
    <g clip-path="url(#pd68e4eee55)">
     <use xlink:href="#m820692d3e0" x="0" y="54.36" style="fill: #116dc2; fill-opacity: 0.2; stroke: #116dc2; stroke-opacity: 0.2"/>
    </g>
   </g>
   <g id="PolyCollection_3">
    <defs>
     <path id="med9ddb08f7" d="M 25.363636 -2.470909 
L 25.363636 -5.011564 
L 26.166283 -5.610268 
L 26.96893 -6.281186 
L 27.771577 -7.07673 
L 28.574223 -8.029078 
L 29.37687 -9.088422 
L 30.179517 -10.216229 
L 30.982163 -11.479125 
L 31.78481 -12.973669 
L 32.587457 -14.735975 
L 33.390104 -16.780555 
L 34.19275 -19.1234 
L 34.995397 -21.727601 
L 35.798044 -24.491997 
L 36.60069 -27.312397 
L 37.403337 -30.134644 
L 38.205984 -32.956118 
L 39.008631 -35.80939 
L 39.811277 -38.677699 
L 40.613924 -41.381616 
L 41.416571 -43.72023 
L 42.219217 -45.728246 
L 43.021864 -47.561347 
L 43.824511 -49.216374 
L 44.627158 -50.5575 
L 45.429804 -51.478043 
L 46.232451 -51.889091 
L 47.035098 -51.644443 
L 47.837745 -50.672137 
L 48.640391 -49.168982 
L 49.443038 -47.49232 
L 50.245685 -45.932098 
L 51.048331 -44.594508 
L 51.850978 -43.236767 
L 52.653625 -41.330414 
L 53.456272 -38.592818 
L 54.258918 -35.331316 
L 55.061565 -32.122446 
L 55.864212 -29.277255 
L 56.666858 -26.739056 
L 57.469505 -24.39077 
L 58.272152 -22.178306 
L 59.074799 -19.979471 
L 59.877445 -17.684444 
L 60.680092 -15.405755 
L 61.482739 -13.384606 
L 62.285386 -11.685915 
L 63.088032 -10.165901 
L 63.890679 -8.745237 
L 64.693326 -7.508948 
L 65.495972 -6.549326 
L 66.298619 -5.875745 
L 67.101266 -5.421574 
L 67.903913 -5.052814 
L 67.903913 -2.470909 
L 67.903913 -2.470909 
L 67.101266 -2.470909 
L 66.298619 -2.470909 
L 65.495972 -2.470909 
L 64.693326 -2.470909 
L 63.890679 -2.470909 
L 63.088032 -2.470909 
L 62.285386 -2.470909 
L 61.482739 -2.470909 
L 60.680092 -2.470909 
L 59.877445 -2.470909 
L 59.074799 -2.470909 
L 58.272152 -2.470909 
L 57.469505 -2.470909 
L 56.666858 -2.470909 
L 55.864212 -2.470909 
L 55.061565 -2.470909 
L 54.258918 -2.470909 
L 53.456272 -2.470909 
L 52.653625 -2.470909 
L 51.850978 -2.470909 
L 51.048331 -2.470909 
L 50.245685 -2.470909 
L 49.443038 -2.470909 
L 48.640391 -2.470909 
L 47.837745 -2.470909 
L 47.035098 -2.470909 
L 46.232451 -2.470909 
L 45.429804 -2.470909 
L 44.627158 -2.470909 
L 43.824511 -2.470909 
L 43.021864 -2.470909 
L 42.219217 -2.470909 
L 41.416571 -2.470909 
L 40.613924 -2.470909 
L 39.811277 -2.470909 
L 39.008631 -2.470909 
L 38.205984 -2.470909 
L 37.403337 -2.470909 
L 36.60069 -2.470909 
L 35.798044 -2.470909 
L 34.995397 -2.470909 
L 34.19275 -2.470909 
L 33.390104 -2.470909 
L 32.587457 -2.470909 
L 31.78481 -2.470909 
L 30.982163 -2.470909 
L 30.179517 -2.470909 
L 29.37687 -2.470909 
L 28.574223 -2.470909 
L 27.771577 -2.470909 
L 26.96893 -2.470909 
L 26.166283 -2.470909 
L 25.363636 -2.470909 
z
" style="stroke: #8a8a8a; stroke-opacity: 0.2"/>
    </defs>
    <g clip-path="url(#pd68e4eee55)">
     <use xlink:href="#med9ddb08f7" x="0" y="54.36" style="fill: #8a8a8a; fill-opacity: 0.2; stroke: #8a8a8a; stroke-opacity: 0.2"/>
    </g>
   </g>
   <g id="line2d_1">
    <path d="M 313.513809 50.58248 
L 319.132336 50.053269 
L 324.750863 49.294023 
L 336.790564 47.348386 
L 341.606444 46.394564 
L 345.619678 45.341949 
L 349.632911 44.033048 
L 354.448792 42.208069 
L 360.869965 39.520318 
L 379.33084 31.401021 
L 389.765247 26.321227 
L 398.594361 22.52993 
L 405.015535 19.909989 
L 408.226122 18.771803 
L 411.436709 17.888402 
L 413.844649 17.44517 
L 417.055236 17.118889 
L 432.305524 16.27613 
L 434.713464 16.424164 
L 437.121404 16.780402 
L 439.529344 17.331472 
L 442.739931 18.287107 
L 447.555811 19.967851 
L 451.569045 21.551163 
L 455.582278 23.363953 
L 462.003452 26.582152 
L 486.082854 38.833159 
L 490.096087 40.540394 
L 494.109321 42.027333 
L 498.122555 43.284892 
L 513.372842 47.568187 
L 517.386076 48.428348 
L 521.39931 49.055554 
L 527.820483 49.781206 
L 532.636364 50.246188 
L 532.636364 50.246188 
" clip-path="url(#pd68e4eee55)" style="fill: none; stroke: #cf1313; stroke-width: 1.5; stroke-linecap: square"/>
   </g>
   <g id="line2d_2">
    <path d="M 169.037399 50.605383 
L 177.063867 49.937476 
L 187.498274 49.093984 
L 195.524741 48.452766 
L 200.340621 47.844826 
L 205.156502 47.0032 
L 210.775029 45.761871 
L 217.196203 44.089216 
L 231.643843 39.975165 
L 237.262371 38.178357 
L 242.078251 36.412323 
L 247.696778 34.127675 
L 254.117952 31.2724 
L 261.341772 28.053668 
L 265.355006 26.514997 
L 269.368239 25.210057 
L 275.789413 23.417655 
L 283.81588 21.163719 
L 292.644994 18.593423 
L 295.855581 17.961685 
L 299.066168 17.620467 
L 302.276755 17.53925 
L 306.289988 17.669352 
L 311.908516 18.074809 
L 316.724396 18.642891 
L 321.540276 19.471345 
L 326.356157 20.559729 
L 331.172037 21.914351 
L 337.593211 24.025661 
L 346.422325 26.896964 
L 359.264672 30.985215 
L 384.14672 39.623339 
L 390.567894 41.734562 
L 395.383774 43.094103 
L 401.804948 44.641233 
L 411.436709 46.701762 
L 417.857883 47.866162 
L 425.081703 48.931664 
L 432.305524 49.759906 
L 440.331991 50.430802 
L 441.937284 50.538352 
L 441.937284 50.538352 
" clip-path="url(#pd68e4eee55)" style="fill: none; stroke: #116dc2; stroke-width: 1.5; stroke-linecap: square"/>
   </g>
   <g id="line2d_3">
    <path d="M 25.363636 49.348436 
L 26.166283 48.749732 
L 26.96893 48.078814 
L 27.771577 47.28327 
L 28.574223 46.330922 
L 29.37687 45.271578 
L 30.179517 44.143771 
L 30.982163 42.880875 
L 31.78481 41.386331 
L 32.587457 39.624025 
L 33.390104 37.579445 
L 34.19275 35.2366 
L 34.995397 32.632399 
L 35.798044 29.868003 
L 36.60069 27.047603 
L 37.403337 24.225356 
L 38.205984 21.403882 
L 39.008631 18.55061 
L 39.811277 15.682301 
L 40.613924 12.978384 
L 41.416571 10.63977 
L 42.219217 8.631754 
L 43.021864 6.798653 
L 43.824511 5.143626 
L 44.627158 3.8025 
L 45.429804 2.881957 
L 46.232451 2.470909 
L 47.035098 2.715557 
L 47.837745 3.687863 
L 48.640391 5.191018 
L 49.443038 6.86768 
L 50.245685 8.427902 
L 51.048331 9.765492 
L 51.850978 11.123233 
L 52.653625 13.029586 
L 53.456272 15.767182 
L 54.258918 19.028684 
L 55.061565 22.237554 
L 55.864212 25.082745 
L 56.666858 27.620944 
L 57.469505 29.96923 
L 58.272152 32.181694 
L 59.074799 34.380529 
L 59.877445 36.675556 
L 60.680092 38.954245 
L 61.482739 40.975394 
L 62.285386 42.674085 
L 63.088032 44.194099 
L 63.890679 45.614763 
L 64.693326 46.851052 
L 65.495972 47.810674 
L 66.298619 48.484255 
L 67.101266 48.938426 
L 67.903913 49.307186 
" clip-path="url(#pd68e4eee55)" style="fill: none; stroke: #8a8a8a; stroke-width: 1.5; stroke-linecap: square"/>
   </g>
  </g>
 </g>
 <defs>
  <clipPath id="pd68e4eee55">
   <rect x="0" y="-0" width="558" height="54.36"/>
  </clipPath>
 </defs>
</svg>
