<?xml version="1.0" encoding="utf-8" standalone="no"?>
<!DOCTYPE svg PUBLIC "-//W3C//DTD SVG 1.1//EN"
  "http://www.w3.org/Graphics/SVG/1.1/DTD/svg11.dtd">
<svg xmlns:xlink="http://www.w3.org/1999/xlink" width="558pt" height="54.36pt" viewBox="0 0 558 54.36" xmlns="http://www.w3.org/2000/svg" version="1.1">
 <metadata>
  <rdf:RDF xmlns:dc="http://purl.org/dc/elements/1.1/" xmlns:cc="http://creativecommons.org/ns#" xmlns:rdf="http://www.w3.org/1999/02/22-rdf-syntax-ns#">
   <cc:Work>
    <dc:type rdf:resource="http://purl.org/dc/dcmitype/StillImage"/>
    <dc:date>2024-09-15T09:30:55.509839</dc:date>
    <dc:format>image/svg+xml</dc:format>
    <dc:creator>
     <cc:Agent>
      <dc:title>Matplotlib v3.5.2, https://matplotlib.org/</dc:title>
     </cc:Agent>
    </dc:creator>
   </cc:Work>
  </rdf:RDF>
 </metadata>
 <defs>
  <style type="text/css">*{stroke-linejoin: round; stroke-linecap: butt}</style>
 </defs>
 <g id="figure_1">
  <g id="patch_1">
   <path d="M 0 54.36 
L 558 54.36 
L 558 0 
L 0 0 
L 0 54.36 
z
" style="fill: none; opacity: 0"/>
  </g>
  <g id="axes_1">
   <g id="PolyCollection_1">
    <defs>
     <path id="m98a79a8576" d="M 317.065489 -2.470909 
L 317.065489 -3.872712 
L 317.866868 -3.945863 
L 318.668246 -4.02132 
L 319.469625 -4.098596 
L 320.271004 -4.177237 
L 321.072383 -4.256864 
L 321.873761 -4.337205 
L 322.67514 -4.418126 
L 323.476519 -4.499658 
L 324.277897 -4.582015 
L 325.079276 -4.665602 
L 325.880655 -4.751011 
L 326.682034 -4.839007 
L 327.483412 -4.9305 
L 328.284791 -5.026502 
L 329.08617 -5.128084 
L 329.887548 -5.236318 
L 330.688927 -5.35222 
L 331.490306 -5.476697 
L 332.291685 -5.610497 
L 333.093063 -5.754175 
L 333.894442 -5.908064 
L 334.695821 -6.072273 
L 335.497199 -6.246696 
L 336.298578 -6.431038 
L 337.099957 -6.624858 
L 337.901336 -6.82762 
L 338.702714 -7.038751 
L 339.504093 -7.257697 
L 340.305472 -7.483973 
L 341.10685 -7.7172 
L 341.908229 -7.957126 
L 342.709608 -8.203623 
L 343.510987 -8.456673 
L 344.312365 -8.71632 
L 345.113744 -8.982626 
L 345.915123 -9.255603 
L 346.716502 -9.53515 
L 347.51788 -9.821001 
L 348.319259 -10.112679 
L 349.120638 -10.409476 
L 349.922016 -10.71046 
L 350.723395 -11.014501 
L 351.524774 -11.320325 
L 352.326153 -11.626589 
L 353.127531 -11.931968 
L 353.92891 -12.235245 
L 354.730289 -12.535397 
L 355.531667 -12.831674 
L 356.333046 -13.123645 
L 357.134425 -13.411236 
L 357.935804 -13.694725 
L 358.737182 -13.974723 
L 359.538561 -14.252126 
L 360.33994 -14.528052 
L 361.141318 -14.803763 
L 361.942697 -15.080599 
L 362.744076 -15.359899 
L 363.545455 -15.642951 
L 364.346833 -15.930948 
L 365.148212 -16.22497 
L 365.949591 -16.52598 
L 366.750969 -16.834841 
L 367.552348 -17.152333 
L 368.353727 -17.479184 
L 369.155106 -17.816097 
L 369.956484 -18.163756 
L 370.757863 -18.522831 
L 371.559242 -18.893953 
L 372.36062 -19.277679 
L 373.161999 -19.674438 
L 373.963378 -20.084461 
L 374.764757 -20.507718 
L 375.566135 -20.943856 
L 376.367514 -21.39215 
L 377.168893 -21.851484 
L 377.970271 -22.320352 
L 378.77165 -22.7969 
L 379.573029 -23.278992 
L 380.374408 -23.764313 
L 381.175786 -24.250479 
L 381.977165 -24.735166 
L 382.778544 -25.216238 
L 383.579922 -25.691852 
L 384.381301 -26.160548 
L 385.18268 -26.621294 
L 385.984059 -27.073502 
L 386.785437 -27.516991 
L 387.586816 -27.951915 
L 388.388195 -28.378661 
L 389.189573 -28.797711 
L 389.990952 -29.209505 
L 390.792331 -29.614304 
L 391.59371 -30.01207 
L 392.395088 -30.402379 
L 393.196467 -30.784383 
L 393.997846 -31.156812 
L 394.799224 -31.518044 
L 395.600603 -31.866208 
L 396.401982 -32.199335 
L 397.203361 -32.515537 
L 398.004739 -32.813187 
L 398.806118 -33.091091 
L 399.607497 -33.348635 
L 400.408875 -33.585879 
L 401.210254 -33.803603 
L 402.011633 -34.00329 
L 402.813012 -34.187042 
L 403.61439 -34.357459 
L 404.415769 -34.517466 
L 405.217148 -34.670127 
L 406.018526 -34.818455 
L 406.819905 -34.965233 
L 407.621284 -35.11287 
L 408.422663 -35.263297 
L 409.224041 -35.417906 
L 410.02542 -35.577538 
L 410.826799 -35.742509 
L 411.628178 -35.912668 
L 412.429556 -36.087475 
L 413.230935 -36.26608 
L 414.032314 -36.447403 
L 414.833692 -36.630196 
L 415.635071 -36.813087 
L 416.43645 -36.994601 
L 417.237829 -37.173159 
L 418.039207 -37.347067 
L 418.840586 -37.51449 
L 419.641965 -37.673441 
L 420.443343 -37.82176 
L 421.244722 -37.95713 
L 422.046101 -38.077099 
L 422.84748 -38.179138 
L 423.648858 -38.260708 
L 424.450237 -38.319361 
L 425.251616 -38.352837 
L 426.052994 -38.359177 
L 426.854373 -38.336817 
L 427.655752 -38.284674 
L 428.457131 -38.202212 
L 429.258509 -38.089473 
L 430.059888 -37.947084 
L 430.861267 -37.776232 
L 431.662645 -37.578611 
L 432.464024 -37.356351 
L 433.265403 -37.111928 
L 434.066782 -36.848061 
L 434.86816 -36.567613 
L 435.669539 -36.273486 
L 436.470918 -35.968518 
L 437.272296 -35.655401 
L 438.073675 -35.336591 
L 438.875054 -35.014246 
L 439.676433 -34.690169 
L 440.477811 -34.365771 
L 441.27919 -34.042047 
L 442.080569 -33.719577 
L 442.881947 -33.398543 
L 443.683326 -33.078768 
L 444.484705 -32.759775 
L 445.286084 -32.440864 
L 446.087462 -32.121196 
L 446.888841 -31.79989 
L 447.69022 -31.476113 
L 448.491598 -31.149169 
L 449.292977 -30.818561 
L 450.094356 -30.484048 
L 450.895735 -30.145658 
L 451.697113 -29.803688 
L 452.498492 -29.458665 
L 453.299871 -29.111292 
L 454.101249 -28.762371 
L 454.902628 -28.412716 
L 455.704007 -28.063066 
L 456.505386 -27.714006 
L 457.306764 -27.365912 
L 458.108143 -27.018909 
L 458.909522 -26.672874 
L 459.7109 -26.327463 
L 460.512279 -25.982169 
L 461.313658 -25.636412 
L 462.115037 -25.289633 
L 462.916415 -24.941406 
L 463.717794 -24.591533 
L 464.519173 -24.240121 
L 465.320551 -23.887626 
L 466.12193 -23.53486 
L 466.923309 -23.182951 
L 467.724688 -22.83326 
L 468.526066 -22.487266 
L 469.327445 -22.146421 
L 470.128824 -21.811993 
L 470.930202 -21.484923 
L 471.731581 -21.165691 
L 472.53296 -20.854231 
L 473.334339 -20.549887 
L 474.135717 -20.251424 
L 474.937096 -19.957095 
L 475.738475 -19.664757 
L 476.539854 -19.372023 
L 477.341232 -19.076433 
L 478.142611 -18.775643 
L 478.94399 -18.467585 
L 479.745368 -18.150615 
L 480.546747 -17.823612 
L 481.348126 -17.486032 
L 482.149505 -17.137921 
L 482.950883 -16.779871 
L 483.752262 -16.412952 
L 484.553641 -16.038606 
L 485.355019 -15.658538 
L 486.156398 -15.274598 
L 486.957777 -14.888674 
L 487.759156 -14.502608 
L 488.560534 -14.118127 
L 489.361913 -13.736807 
L 490.163292 -13.360048 
L 490.96467 -12.989084 
L 491.766049 -12.624985 
L 492.567428 -12.268687 
L 493.368807 -11.921007 
L 494.170185 -11.582663 
L 494.971564 -11.25428 
L 495.772943 -10.936393 
L 496.574321 -10.629437 
L 497.3757 -10.333729 
L 498.177079 -10.04945 
L 498.978458 -9.776624 
L 499.779836 -9.515101 
L 500.581215 -9.264545 
L 501.382594 -9.024435 
L 502.183972 -8.794082 
L 502.985351 -8.572653 
L 503.78673 -8.35921 
L 504.588109 -8.152768 
L 505.389487 -7.952346 
L 506.190866 -7.757037 
L 506.992245 -7.566064 
L 507.793623 -7.378837 
L 508.595002 -7.194993 
L 509.396381 -7.014424 
L 510.19776 -6.83728 
L 510.999138 -6.663953 
L 511.800517 -6.495047 
L 512.601896 -6.331325 
L 513.403274 -6.173641 
L 514.204653 -6.022868 
L 515.006032 -5.879826 
L 515.807411 -5.74521 
L 516.608789 -5.619529 
L 517.410168 -5.503063 
L 518.211547 -5.395834 
L 519.012925 -5.297599 
L 519.814304 -5.20786 
L 520.615683 -5.125891 
L 521.417062 -5.050779 
L 522.21844 -4.981473 
L 523.019819 -4.916837 
L 523.821198 -4.855704 
L 524.622576 -4.79693 
L 525.423955 -4.739435 
L 526.225334 -4.682242 
L 527.026713 -4.624508 
L 527.828091 -4.565543 
L 528.62947 -4.504822 
L 529.430849 -4.441993 
L 530.232227 -4.376877 
L 531.033606 -4.309459 
L 531.834985 -4.239881 
L 532.636364 -4.168423 
L 532.636364 -2.470909 
L 532.636364 -2.470909 
L 531.834985 -2.470909 
L 531.033606 -2.470909 
L 530.232227 -2.470909 
L 529.430849 -2.470909 
L 528.62947 -2.470909 
L 527.828091 -2.470909 
L 527.026713 -2.470909 
L 526.225334 -2.470909 
L 525.423955 -2.470909 
L 524.622576 -2.470909 
L 523.821198 -2.470909 
L 523.019819 -2.470909 
L 522.21844 -2.470909 
L 521.417062 -2.470909 
L 520.615683 -2.470909 
L 519.814304 -2.470909 
L 519.012925 -2.470909 
L 518.211547 -2.470909 
L 517.410168 -2.470909 
L 516.608789 -2.470909 
L 515.807411 -2.470909 
L 515.006032 -2.470909 
L 514.204653 -2.470909 
L 513.403274 -2.470909 
L 512.601896 -2.470909 
L 511.800517 -2.470909 
L 510.999138 -2.470909 
L 510.19776 -2.470909 
L 509.396381 -2.470909 
L 508.595002 -2.470909 
L 507.793623 -2.470909 
L 506.992245 -2.470909 
L 506.190866 -2.470909 
L 505.389487 -2.470909 
L 504.588109 -2.470909 
L 503.78673 -2.470909 
L 502.985351 -2.470909 
L 502.183972 -2.470909 
L 501.382594 -2.470909 
L 500.581215 -2.470909 
L 499.779836 -2.470909 
L 498.978458 -2.470909 
L 498.177079 -2.470909 
L 497.3757 -2.470909 
L 496.574321 -2.470909 
L 495.772943 -2.470909 
L 494.971564 -2.470909 
L 494.170185 -2.470909 
L 493.368807 -2.470909 
L 492.567428 -2.470909 
L 491.766049 -2.470909 
L 490.96467 -2.470909 
L 490.163292 -2.470909 
L 489.361913 -2.470909 
L 488.560534 -2.470909 
L 487.759156 -2.470909 
L 486.957777 -2.470909 
L 486.156398 -2.470909 
L 485.355019 -2.470909 
L 484.553641 -2.470909 
L 483.752262 -2.470909 
L 482.950883 -2.470909 
L 482.149505 -2.470909 
L 481.348126 -2.470909 
L 480.546747 -2.470909 
L 479.745368 -2.470909 
L 478.94399 -2.470909 
L 478.142611 -2.470909 
L 477.341232 -2.470909 
L 476.539854 -2.470909 
L 475.738475 -2.470909 
L 474.937096 -2.470909 
L 474.135717 -2.470909 
L 473.334339 -2.470909 
L 472.53296 -2.470909 
L 471.731581 -2.470909 
L 470.930202 -2.470909 
L 470.128824 -2.470909 
L 469.327445 -2.470909 
L 468.526066 -2.470909 
L 467.724688 -2.470909 
L 466.923309 -2.470909 
L 466.12193 -2.470909 
L 465.320551 -2.470909 
L 464.519173 -2.470909 
L 463.717794 -2.470909 
L 462.916415 -2.470909 
L 462.115037 -2.470909 
L 461.313658 -2.470909 
L 460.512279 -2.470909 
L 459.7109 -2.470909 
L 458.909522 -2.470909 
L 458.108143 -2.470909 
L 457.306764 -2.470909 
L 456.505386 -2.470909 
L 455.704007 -2.470909 
L 454.902628 -2.470909 
L 454.101249 -2.470909 
L 453.299871 -2.470909 
L 452.498492 -2.470909 
L 451.697113 -2.470909 
L 450.895735 -2.470909 
L 450.094356 -2.470909 
L 449.292977 -2.470909 
L 448.491598 -2.470909 
L 447.69022 -2.470909 
L 446.888841 -2.470909 
L 446.087462 -2.470909 
L 445.286084 -2.470909 
L 444.484705 -2.470909 
L 443.683326 -2.470909 
L 442.881947 -2.470909 
L 442.080569 -2.470909 
L 441.27919 -2.470909 
L 440.477811 -2.470909 
L 439.676433 -2.470909 
L 438.875054 -2.470909 
L 438.073675 -2.470909 
L 437.272296 -2.470909 
L 436.470918 -2.470909 
L 435.669539 -2.470909 
L 434.86816 -2.470909 
L 434.066782 -2.470909 
L 433.265403 -2.470909 
L 432.464024 -2.470909 
L 431.662645 -2.470909 
L 430.861267 -2.470909 
L 430.059888 -2.470909 
L 429.258509 -2.470909 
L 428.457131 -2.470909 
L 427.655752 -2.470909 
L 426.854373 -2.470909 
L 426.052994 -2.470909 
L 425.251616 -2.470909 
L 424.450237 -2.470909 
L 423.648858 -2.470909 
L 422.84748 -2.470909 
L 422.046101 -2.470909 
L 421.244722 -2.470909 
L 420.443343 -2.470909 
L 419.641965 -2.470909 
L 418.840586 -2.470909 
L 418.039207 -2.470909 
L 417.237829 -2.470909 
L 416.43645 -2.470909 
L 415.635071 -2.470909 
L 414.833692 -2.470909 
L 414.032314 -2.470909 
L 413.230935 -2.470909 
L 412.429556 -2.470909 
L 411.628178 -2.470909 
L 410.826799 -2.470909 
L 410.02542 -2.470909 
L 409.224041 -2.470909 
L 408.422663 -2.470909 
L 407.621284 -2.470909 
L 406.819905 -2.470909 
L 406.018526 -2.470909 
L 405.217148 -2.470909 
L 404.415769 -2.470909 
L 403.61439 -2.470909 
L 402.813012 -2.470909 
L 402.011633 -2.470909 
L 401.210254 -2.470909 
L 400.408875 -2.470909 
L 399.607497 -2.470909 
L 398.806118 -2.470909 
L 398.004739 -2.470909 
L 397.203361 -2.470909 
L 396.401982 -2.470909 
L 395.600603 -2.470909 
L 394.799224 -2.470909 
L 393.997846 -2.470909 
L 393.196467 -2.470909 
L 392.395088 -2.470909 
L 391.59371 -2.470909 
L 390.792331 -2.470909 
L 389.990952 -2.470909 
L 389.189573 -2.470909 
L 388.388195 -2.470909 
L 387.586816 -2.470909 
L 386.785437 -2.470909 
L 385.984059 -2.470909 
L 385.18268 -2.470909 
L 384.381301 -2.470909 
L 383.579922 -2.470909 
L 382.778544 -2.470909 
L 381.977165 -2.470909 
L 381.175786 -2.470909 
L 380.374408 -2.470909 
L 379.573029 -2.470909 
L 378.77165 -2.470909 
L 377.970271 -2.470909 
L 377.168893 -2.470909 
L 376.367514 -2.470909 
L 375.566135 -2.470909 
L 374.764757 -2.470909 
L 373.963378 -2.470909 
L 373.161999 -2.470909 
L 372.36062 -2.470909 
L 371.559242 -2.470909 
L 370.757863 -2.470909 
L 369.956484 -2.470909 
L 369.155106 -2.470909 
L 368.353727 -2.470909 
L 367.552348 -2.470909 
L 366.750969 -2.470909 
L 365.949591 -2.470909 
L 365.148212 -2.470909 
L 364.346833 -2.470909 
L 363.545455 -2.470909 
L 362.744076 -2.470909 
L 361.942697 -2.470909 
L 361.141318 -2.470909 
L 360.33994 -2.470909 
L 359.538561 -2.470909 
L 358.737182 -2.470909 
L 357.935804 -2.470909 
L 357.134425 -2.470909 
L 356.333046 -2.470909 
L 355.531667 -2.470909 
L 354.730289 -2.470909 
L 353.92891 -2.470909 
L 353.127531 -2.470909 
L 352.326153 -2.470909 
L 351.524774 -2.470909 
L 350.723395 -2.470909 
L 349.922016 -2.470909 
L 349.120638 -2.470909 
L 348.319259 -2.470909 
L 347.51788 -2.470909 
L 346.716502 -2.470909 
L 345.915123 -2.470909 
L 345.113744 -2.470909 
L 344.312365 -2.470909 
L 343.510987 -2.470909 
L 342.709608 -2.470909 
L 341.908229 -2.470909 
L 341.10685 -2.470909 
L 340.305472 -2.470909 
L 339.504093 -2.470909 
L 338.702714 -2.470909 
L 337.901336 -2.470909 
L 337.099957 -2.470909 
L 336.298578 -2.470909 
L 335.497199 -2.470909 
L 334.695821 -2.470909 
L 333.894442 -2.470909 
L 333.093063 -2.470909 
L 332.291685 -2.470909 
L 331.490306 -2.470909 
L 330.688927 -2.470909 
L 329.887548 -2.470909 
L 329.08617 -2.470909 
L 328.284791 -2.470909 
L 327.483412 -2.470909 
L 326.682034 -2.470909 
L 325.880655 -2.470909 
L 325.079276 -2.470909 
L 324.277897 -2.470909 
L 323.476519 -2.470909 
L 322.67514 -2.470909 
L 321.873761 -2.470909 
L 321.072383 -2.470909 
L 320.271004 -2.470909 
L 319.469625 -2.470909 
L 318.668246 -2.470909 
L 317.866868 -2.470909 
L 317.065489 -2.470909 
z
" style="stroke: #cf1313; stroke-opacity: 0.2"/>
    </defs>
    <g clip-path="url(#p63947282fe)">
     <use xlink:href="#m98a79a8576" x="0" y="54.36" style="fill: #cf1313; fill-opacity: 0.2; stroke: #cf1313; stroke-opacity: 0.2"/>
    </g>
   </g>
   <g id="PolyCollection_2">
    <defs>
     <path id="mc883c0c1ca" d="M 174.420078 -2.470909 
L 174.420078 -4.118316 
L 175.221456 -4.177114 
L 176.022835 -4.2357 
L 176.824214 -4.294194 
L 177.625592 -4.352761 
L 178.426971 -4.411608 
L 179.22835 -4.470986 
L 180.029729 -4.531182 
L 180.831107 -4.592519 
L 181.632486 -4.655347 
L 182.433865 -4.720043 
L 183.235243 -4.787003 
L 184.036622 -4.856634 
L 184.838001 -4.92935 
L 185.63938 -5.005563 
L 186.440758 -5.085674 
L 187.242137 -5.170065 
L 188.043516 -5.259087 
L 188.844894 -5.353054 
L 189.646273 -5.452227 
L 190.447652 -5.556805 
L 191.249031 -5.666918 
L 192.050409 -5.782612 
L 192.851788 -5.903845 
L 193.653167 -6.030484 
L 194.454545 -6.1623 
L 195.255924 -6.298971 
L 196.057303 -6.440091 
L 196.858682 -6.585178 
L 197.66006 -6.733693 
L 198.461439 -6.88506 
L 199.262818 -7.038688 
L 200.064196 -7.194 
L 200.865575 -7.350461 
L 201.666954 -7.507608 
L 202.468333 -7.665074 
L 203.269711 -7.822612 
L 204.07109 -7.980118 
L 204.872469 -8.13764 
L 205.673847 -8.295384 
L 206.475226 -8.453713 
L 207.276605 -8.613133 
L 208.077984 -8.774279 
L 208.879362 -8.937887 
L 209.680741 -9.104758 
L 210.48212 -9.275728 
L 211.283498 -9.451625 
L 212.084877 -9.633227 
L 212.886256 -9.821227 
L 213.687635 -10.016194 
L 214.489013 -10.218546 
L 215.290392 -10.428522 
L 216.091771 -10.646172 
L 216.89315 -10.871346 
L 217.694528 -11.103701 
L 218.495907 -11.342707 
L 219.297286 -11.587675 
L 220.098664 -11.837779 
L 220.900043 -12.092092 
L 221.701422 -12.349624 
L 222.502801 -12.609361 
L 223.304179 -12.870303 
L 224.105558 -13.131503 
L 224.906937 -13.392097 
L 225.708315 -13.651328 
L 226.509694 -13.908569 
L 227.311073 -14.163329 
L 228.112452 -14.415255 
L 228.91383 -14.664132 
L 229.715209 -14.909862 
L 230.516588 -15.152456 
L 231.317966 -15.392011 
L 232.119345 -15.628688 
L 232.920724 -15.862698 
L 233.722103 -16.094282 
L 234.523481 -16.323702 
L 235.32486 -16.551234 
L 236.126239 -16.777164 
L 236.927617 -17.001798 
L 237.728996 -17.225461 
L 238.530375 -17.448513 
L 239.331754 -17.671352 
L 240.133132 -17.894426 
L 240.934511 -18.118235 
L 241.73589 -18.343329 
L 242.537268 -18.570303 
L 243.338647 -18.799782 
L 244.140026 -19.032404 
L 244.941405 -19.268796 
L 245.742783 -19.509544 
L 246.544162 -19.755172 
L 247.345541 -20.006108 
L 248.146919 -20.26267 
L 248.948298 -20.525039 
L 249.749677 -20.793259 
L 250.551056 -21.067232 
L 251.352434 -21.346726 
L 252.153813 -21.631394 
L 252.955192 -21.9208 
L 253.75657 -22.214449 
L 254.557949 -22.511824 
L 255.359328 -22.812419 
L 256.160707 -23.115779 
L 256.962085 -23.421528 
L 257.763464 -23.729389 
L 258.564843 -24.039208 
L 259.366221 -24.350949 
L 260.1676 -24.664696 
L 260.968979 -24.980637 
L 261.770358 -25.299037 
L 262.571736 -25.620209 
L 263.373115 -25.944482 
L 264.174494 -26.272156 
L 264.975872 -26.603469 
L 265.777251 -26.938565 
L 266.57863 -27.277459 
L 267.380009 -27.62002 
L 268.181387 -27.965951 
L 268.982766 -28.31479 
L 269.784145 -28.665905 
L 270.585523 -29.018509 
L 271.386902 -29.371671 
L 272.188281 -29.724344 
L 272.98966 -30.075385 
L 273.791038 -30.423584 
L 274.592417 -30.767697 
L 275.393796 -31.106473 
L 276.195174 -31.438687 
L 276.996553 -31.763167 
L 277.797932 -32.078824 
L 278.599311 -32.384678 
L 279.400689 -32.679881 
L 280.202068 -32.963743 
L 281.003447 -33.235741 
L 281.804826 -33.495537 
L 282.606204 -33.742982 
L 283.407583 -33.978114 
L 284.208962 -34.20115 
L 285.01034 -34.412466 
L 285.811719 -34.612573 
L 286.613098 -34.802086 
L 287.414477 -34.981677 
L 288.215855 -35.152039 
L 289.017234 -35.313835 
L 289.818613 -35.467656 
L 290.619991 -35.613976 
L 291.42137 -35.75312 
L 292.222749 -35.885235 
L 293.024128 -36.010276 
L 293.825506 -36.128 
L 294.626885 -36.237976 
L 295.428264 -36.339603 
L 296.229642 -36.432141 
L 297.031021 -36.514749 
L 297.8324 -36.586532 
L 298.633779 -36.646589 
L 299.435157 -36.694059 
L 300.236536 -36.728175 
L 301.037915 -36.748302 
L 301.839293 -36.753978 
L 302.640672 -36.74494 
L 303.442051 -36.72115 
L 304.24343 -36.682802 
L 305.044808 -36.630329 
L 305.846187 -36.564394 
L 306.647566 -36.485881 
L 307.448944 -36.395872 
L 308.250323 -36.295622 
L 309.051702 -36.186531 
L 309.853081 -36.07011 
L 310.654459 -35.947946 
L 311.455838 -35.821662 
L 312.257217 -35.692884 
L 313.058595 -35.563201 
L 313.859974 -35.434128 
L 314.661353 -35.307067 
L 315.462732 -35.183274 
L 316.26411 -35.063828 
L 317.065489 -34.949595 
L 317.866868 -34.841207 
L 318.668246 -34.739035 
L 319.469625 -34.643178 
L 320.271004 -34.553449 
L 321.072383 -34.469374 
L 321.873761 -34.390203 
L 322.67514 -34.31492 
L 323.476519 -34.242273 
L 324.277897 -34.170807 
L 325.079276 -34.098908 
L 325.880655 -34.024848 
L 326.682034 -33.946844 
L 327.483412 -33.863111 
L 328.284791 -33.771917 
L 329.08617 -33.67164 
L 329.887548 -33.560812 
L 330.688927 -33.438159 
L 331.490306 -33.302634 
L 332.291685 -33.15343 
L 333.093063 -32.989995 
L 333.894442 -32.812025 
L 334.695821 -32.619452 
L 335.497199 -32.412424 
L 336.298578 -32.191276 
L 337.099957 -31.956505 
L 337.901336 -31.708731 
L 338.702714 -31.448672 
L 339.504093 -31.177116 
L 340.305472 -30.894899 
L 341.10685 -30.602886 
L 341.908229 -30.301965 
L 342.709608 -29.993038 
L 343.510987 -29.677022 
L 344.312365 -29.35485 
L 345.113744 -29.027477 
L 345.915123 -28.695881 
L 346.716502 -28.361063 
L 347.51788 -28.024046 
L 348.319259 -27.685867 
L 349.120638 -27.347558 
L 349.922016 -27.010136 
L 350.723395 -26.674571 
L 351.524774 -26.341766 
L 352.326153 -26.01252 
L 353.127531 -25.687506 
L 353.92891 -25.36724 
L 354.730289 -25.052058 
L 355.531667 -24.742102 
L 356.333046 -24.437305 
L 357.134425 -24.137397 
L 357.935804 -23.84191 
L 358.737182 -23.550197 
L 359.538561 -23.261459 
L 360.33994 -22.974778 
L 361.141318 -22.689164 
L 361.942697 -22.40359 
L 362.744076 -22.117049 
L 363.545455 -21.828593 
L 364.346833 -21.537379 
L 365.148212 -21.24271 
L 365.949591 -20.944068 
L 366.750969 -20.641132 
L 367.552348 -20.333805 
L 368.353727 -20.022208 
L 369.155106 -19.706687 
L 369.956484 -19.387796 
L 370.757863 -19.066276 
L 371.559242 -18.74303 
L 372.36062 -18.419087 
L 373.161999 -18.095567 
L 373.963378 -17.77364 
L 374.764757 -17.454486 
L 375.566135 -17.139256 
L 376.367514 -16.829033 
L 377.168893 -16.524802 
L 377.970271 -16.227417 
L 378.77165 -15.937581 
L 379.573029 -15.655826 
L 380.374408 -15.382502 
L 381.175786 -15.117768 
L 381.977165 -14.861595 
L 382.778544 -14.61377 
L 383.579922 -14.373903 
L 384.381301 -14.141442 
L 385.18268 -13.915695 
L 385.984059 -13.695845 
L 386.785437 -13.480979 
L 387.586816 -13.270113 
L 388.388195 -13.062222 
L 389.189573 -12.856271 
L 389.990952 -12.651244 
L 390.792331 -12.446175 
L 391.59371 -12.240181 
L 392.395088 -12.032487 
L 393.196467 -11.822449 
L 393.997846 -11.609579 
L 394.799224 -11.393559 
L 395.600603 -11.17425 
L 396.401982 -10.951696 
L 397.203361 -10.726124 
L 398.004739 -10.497933 
L 398.806118 -10.267679 
L 399.607497 -10.036056 
L 400.408875 -9.803872 
L 401.210254 -9.572022 
L 402.011633 -9.341457 
L 402.813012 -9.113155 
L 403.61439 -8.888093 
L 404.415769 -8.667217 
L 405.217148 -8.451421 
L 406.018526 -8.241522 
L 406.819905 -8.038245 
L 407.621284 -7.842211 
L 408.422663 -7.653925 
L 409.224041 -7.473772 
L 410.02542 -7.302018 
L 410.826799 -7.138809 
L 411.628178 -6.984175 
L 412.429556 -6.838039 
L 413.230935 -6.700222 
L 414.032314 -6.570454 
L 414.833692 -6.448383 
L 415.635071 -6.333587 
L 416.43645 -6.225582 
L 417.237829 -6.123836 
L 418.039207 -6.027777 
L 418.840586 -5.936808 
L 419.641965 -5.850314 
L 420.443343 -5.767678 
L 421.244722 -5.688289 
L 422.046101 -5.611556 
L 422.84748 -5.536914 
L 423.648858 -5.463843 
L 424.450237 -5.39187 
L 425.251616 -5.32058 
L 426.052994 -5.249625 
L 426.854373 -5.178729 
L 427.655752 -5.10769 
L 428.457131 -5.036384 
L 429.258509 -4.96476 
L 430.059888 -4.892842 
L 430.861267 -4.820721 
L 431.662645 -4.748547 
L 432.464024 -4.676518 
L 433.265403 -4.60487 
L 434.066782 -4.533868 
L 434.86816 -4.463785 
L 435.669539 -4.394898 
L 436.470918 -4.327468 
L 437.272296 -4.261734 
L 438.073675 -4.197901 
L 438.875054 -4.13613 
L 439.676433 -4.076539 
L 440.477811 -4.019193 
L 441.27919 -3.964106 
L 442.080569 -3.911243 
L 442.080569 -2.470909 
L 442.080569 -2.470909 
L 441.27919 -2.470909 
L 440.477811 -2.470909 
L 439.676433 -2.470909 
L 438.875054 -2.470909 
L 438.073675 -2.470909 
L 437.272296 -2.470909 
L 436.470918 -2.470909 
L 435.669539 -2.470909 
L 434.86816 -2.470909 
L 434.066782 -2.470909 
L 433.265403 -2.470909 
L 432.464024 -2.470909 
L 431.662645 -2.470909 
L 430.861267 -2.470909 
L 430.059888 -2.470909 
L 429.258509 -2.470909 
L 428.457131 -2.470909 
L 427.655752 -2.470909 
L 426.854373 -2.470909 
L 426.052994 -2.470909 
L 425.251616 -2.470909 
L 424.450237 -2.470909 
L 423.648858 -2.470909 
L 422.84748 -2.470909 
L 422.046101 -2.470909 
L 421.244722 -2.470909 
L 420.443343 -2.470909 
L 419.641965 -2.470909 
L 418.840586 -2.470909 
L 418.039207 -2.470909 
L 417.237829 -2.470909 
L 416.43645 -2.470909 
L 415.635071 -2.470909 
L 414.833692 -2.470909 
L 414.032314 -2.470909 
L 413.230935 -2.470909 
L 412.429556 -2.470909 
L 411.628178 -2.470909 
L 410.826799 -2.470909 
L 410.02542 -2.470909 
L 409.224041 -2.470909 
L 408.422663 -2.470909 
L 407.621284 -2.470909 
L 406.819905 -2.470909 
L 406.018526 -2.470909 
L 405.217148 -2.470909 
L 404.415769 -2.470909 
L 403.61439 -2.470909 
L 402.813012 -2.470909 
L 402.011633 -2.470909 
L 401.210254 -2.470909 
L 400.408875 -2.470909 
L 399.607497 -2.470909 
L 398.806118 -2.470909 
L 398.004739 -2.470909 
L 397.203361 -2.470909 
L 396.401982 -2.470909 
L 395.600603 -2.470909 
L 394.799224 -2.470909 
L 393.997846 -2.470909 
L 393.196467 -2.470909 
L 392.395088 -2.470909 
L 391.59371 -2.470909 
L 390.792331 -2.470909 
L 389.990952 -2.470909 
L 389.189573 -2.470909 
L 388.388195 -2.470909 
L 387.586816 -2.470909 
L 386.785437 -2.470909 
L 385.984059 -2.470909 
L 385.18268 -2.470909 
L 384.381301 -2.470909 
L 383.579922 -2.470909 
L 382.778544 -2.470909 
L 381.977165 -2.470909 
L 381.175786 -2.470909 
L 380.374408 -2.470909 
L 379.573029 -2.470909 
L 378.77165 -2.470909 
L 377.970271 -2.470909 
L 377.168893 -2.470909 
L 376.367514 -2.470909 
L 375.566135 -2.470909 
L 374.764757 -2.470909 
L 373.963378 -2.470909 
L 373.161999 -2.470909 
L 372.36062 -2.470909 
L 371.559242 -2.470909 
L 370.757863 -2.470909 
L 369.956484 -2.470909 
L 369.155106 -2.470909 
L 368.353727 -2.470909 
L 367.552348 -2.470909 
L 366.750969 -2.470909 
L 365.949591 -2.470909 
L 365.148212 -2.470909 
L 364.346833 -2.470909 
L 363.545455 -2.470909 
L 362.744076 -2.470909 
L 361.942697 -2.470909 
L 361.141318 -2.470909 
L 360.33994 -2.470909 
L 359.538561 -2.470909 
L 358.737182 -2.470909 
L 357.935804 -2.470909 
L 357.134425 -2.470909 
L 356.333046 -2.470909 
L 355.531667 -2.470909 
L 354.730289 -2.470909 
L 353.92891 -2.470909 
L 353.127531 -2.470909 
L 352.326153 -2.470909 
L 351.524774 -2.470909 
L 350.723395 -2.470909 
L 349.922016 -2.470909 
L 349.120638 -2.470909 
L 348.319259 -2.470909 
L 347.51788 -2.470909 
L 346.716502 -2.470909 
L 345.915123 -2.470909 
L 345.113744 -2.470909 
L 344.312365 -2.470909 
L 343.510987 -2.470909 
L 342.709608 -2.470909 
L 341.908229 -2.470909 
L 341.10685 -2.470909 
L 340.305472 -2.470909 
L 339.504093 -2.470909 
L 338.702714 -2.470909 
L 337.901336 -2.470909 
L 337.099957 -2.470909 
L 336.298578 -2.470909 
L 335.497199 -2.470909 
L 334.695821 -2.470909 
L 333.894442 -2.470909 
L 333.093063 -2.470909 
L 332.291685 -2.470909 
L 331.490306 -2.470909 
L 330.688927 -2.470909 
L 329.887548 -2.470909 
L 329.08617 -2.470909 
L 328.284791 -2.470909 
L 327.483412 -2.470909 
L 326.682034 -2.470909 
L 325.880655 -2.470909 
L 325.079276 -2.470909 
L 324.277897 -2.470909 
L 323.476519 -2.470909 
L 322.67514 -2.470909 
L 321.873761 -2.470909 
L 321.072383 -2.470909 
L 320.271004 -2.470909 
L 319.469625 -2.470909 
L 318.668246 -2.470909 
L 317.866868 -2.470909 
L 317.065489 -2.470909 
L 316.26411 -2.470909 
L 315.462732 -2.470909 
L 314.661353 -2.470909 
L 313.859974 -2.470909 
L 313.058595 -2.470909 
L 312.257217 -2.470909 
L 311.455838 -2.470909 
L 310.654459 -2.470909 
L 309.853081 -2.470909 
L 309.051702 -2.470909 
L 308.250323 -2.470909 
L 307.448944 -2.470909 
L 306.647566 -2.470909 
L 305.846187 -2.470909 
L 305.044808 -2.470909 
L 304.24343 -2.470909 
L 303.442051 -2.470909 
L 302.640672 -2.470909 
L 301.839293 -2.470909 
L 301.037915 -2.470909 
L 300.236536 -2.470909 
L 299.435157 -2.470909 
L 298.633779 -2.470909 
L 297.8324 -2.470909 
L 297.031021 -2.470909 
L 296.229642 -2.470909 
L 295.428264 -2.470909 
L 294.626885 -2.470909 
L 293.825506 -2.470909 
L 293.024128 -2.470909 
L 292.222749 -2.470909 
L 291.42137 -2.470909 
L 290.619991 -2.470909 
L 289.818613 -2.470909 
L 289.017234 -2.470909 
L 288.215855 -2.470909 
L 287.414477 -2.470909 
L 286.613098 -2.470909 
L 285.811719 -2.470909 
L 285.01034 -2.470909 
L 284.208962 -2.470909 
L 283.407583 -2.470909 
L 282.606204 -2.470909 
L 281.804826 -2.470909 
L 281.003447 -2.470909 
L 280.202068 -2.470909 
L 279.400689 -2.470909 
L 278.599311 -2.470909 
L 277.797932 -2.470909 
L 276.996553 -2.470909 
L 276.195174 -2.470909 
L 275.393796 -2.470909 
L 274.592417 -2.470909 
L 273.791038 -2.470909 
L 272.98966 -2.470909 
L 272.188281 -2.470909 
L 271.386902 -2.470909 
L 270.585523 -2.470909 
L 269.784145 -2.470909 
L 268.982766 -2.470909 
L 268.181387 -2.470909 
L 267.380009 -2.470909 
L 266.57863 -2.470909 
L 265.777251 -2.470909 
L 264.975872 -2.470909 
L 264.174494 -2.470909 
L 263.373115 -2.470909 
L 262.571736 -2.470909 
L 261.770358 -2.470909 
L 260.968979 -2.470909 
L 260.1676 -2.470909 
L 259.366221 -2.470909 
L 258.564843 -2.470909 
L 257.763464 -2.470909 
L 256.962085 -2.470909 
L 256.160707 -2.470909 
L 255.359328 -2.470909 
L 254.557949 -2.470909 
L 253.75657 -2.470909 
L 252.955192 -2.470909 
L 252.153813 -2.470909 
L 251.352434 -2.470909 
L 250.551056 -2.470909 
L 249.749677 -2.470909 
L 248.948298 -2.470909 
L 248.146919 -2.470909 
L 247.345541 -2.470909 
L 246.544162 -2.470909 
L 245.742783 -2.470909 
L 244.941405 -2.470909 
L 244.140026 -2.470909 
L 243.338647 -2.470909 
L 242.537268 -2.470909 
L 241.73589 -2.470909 
L 240.934511 -2.470909 
L 240.133132 -2.470909 
L 239.331754 -2.470909 
L 238.530375 -2.470909 
L 237.728996 -2.470909 
L 236.927617 -2.470909 
L 236.126239 -2.470909 
L 235.32486 -2.470909 
L 234.523481 -2.470909 
L 233.722103 -2.470909 
L 232.920724 -2.470909 
L 232.119345 -2.470909 
L 231.317966 -2.470909 
L 230.516588 -2.470909 
L 229.715209 -2.470909 
L 228.91383 -2.470909 
L 228.112452 -2.470909 
L 227.311073 -2.470909 
L 226.509694 -2.470909 
L 225.708315 -2.470909 
L 224.906937 -2.470909 
L 224.105558 -2.470909 
L 223.304179 -2.470909 
L 222.502801 -2.470909 
L 221.701422 -2.470909 
L 220.900043 -2.470909 
L 220.098664 -2.470909 
L 219.297286 -2.470909 
L 218.495907 -2.470909 
L 217.694528 -2.470909 
L 216.89315 -2.470909 
L 216.091771 -2.470909 
L 215.290392 -2.470909 
L 214.489013 -2.470909 
L 213.687635 -2.470909 
L 212.886256 -2.470909 
L 212.084877 -2.470909 
L 211.283498 -2.470909 
L 210.48212 -2.470909 
L 209.680741 -2.470909 
L 208.879362 -2.470909 
L 208.077984 -2.470909 
L 207.276605 -2.470909 
L 206.475226 -2.470909 
L 205.673847 -2.470909 
L 204.872469 -2.470909 
L 204.07109 -2.470909 
L 203.269711 -2.470909 
L 202.468333 -2.470909 
L 201.666954 -2.470909 
L 200.865575 -2.470909 
L 200.064196 -2.470909 
L 199.262818 -2.470909 
L 198.461439 -2.470909 
L 197.66006 -2.470909 
L 196.858682 -2.470909 
L 196.057303 -2.470909 
L 195.255924 -2.470909 
L 194.454545 -2.470909 
L 193.653167 -2.470909 
L 192.851788 -2.470909 
L 192.050409 -2.470909 
L 191.249031 -2.470909 
L 190.447652 -2.470909 
L 189.646273 -2.470909 
L 188.844894 -2.470909 
L 188.043516 -2.470909 
L 187.242137 -2.470909 
L 186.440758 -2.470909 
L 185.63938 -2.470909 
L 184.838001 -2.470909 
L 184.036622 -2.470909 
L 183.235243 -2.470909 
L 182.433865 -2.470909 
L 181.632486 -2.470909 
L 180.831107 -2.470909 
L 180.029729 -2.470909 
L 179.22835 -2.470909 
L 178.426971 -2.470909 
L 177.625592 -2.470909 
L 176.824214 -2.470909 
L 176.022835 -2.470909 
L 175.221456 -2.470909 
L 174.420078 -2.470909 
z
" style="stroke: #116dc2; stroke-opacity: 0.2"/>
    </defs>
    <g clip-path="url(#p63947282fe)">
     <use xlink:href="#mc883c0c1ca" x="0" y="54.36" style="fill: #116dc2; fill-opacity: 0.2; stroke: #116dc2; stroke-opacity: 0.2"/>
    </g>
   </g>
   <g id="PolyCollection_3">
    <defs>
     <path id="m5435f6c1ef" d="M 25.363636 -2.470909 
L 25.363636 -4.230596 
L 26.165015 -4.727799 
L 26.966394 -5.330696 
L 27.767773 -6.017784 
L 28.569151 -6.813605 
L 29.37053 -7.762929 
L 30.171909 -8.884951 
L 30.973287 -10.188533 
L 31.774666 -11.750917 
L 32.576045 -13.683663 
L 33.377424 -15.958773 
L 34.178802 -18.368949 
L 34.980181 -20.711299 
L 35.78156 -22.940309 
L 36.582938 -25.153288 
L 37.384317 -27.467097 
L 38.185696 -29.925111 
L 38.987075 -32.533187 
L 39.788453 -35.293844 
L 40.589832 -38.17282 
L 41.391211 -41.093971 
L 42.192589 -43.922997 
L 42.993968 -46.389151 
L 43.795347 -48.175275 
L 44.596726 -49.250969 
L 45.398104 -49.94464 
L 46.199483 -50.587886 
L 47.000862 -51.255898 
L 47.80224 -51.7836 
L 48.603619 -51.889091 
L 49.404998 -51.388582 
L 50.206377 -50.269933 
L 51.007755 -48.515107 
L 51.809134 -46.118078 
L 52.610513 -43.305267 
L 53.411891 -40.412349 
L 54.21327 -37.545882 
L 55.014649 -34.615612 
L 55.816028 -31.641274 
L 56.617406 -28.815344 
L 57.418785 -26.260218 
L 58.220164 -23.831513 
L 59.021542 -21.256556 
L 59.822921 -18.496976 
L 60.6243 -15.863763 
L 61.425679 -13.69676 
L 62.227057 -12.033221 
L 63.028436 -10.685328 
L 63.829815 -9.508455 
L 64.631193 -8.459745 
L 65.432572 -7.523149 
L 66.233951 -6.692372 
L 67.03533 -5.960728 
L 67.836708 -5.296613 
L 67.836708 -2.470909 
L 67.836708 -2.470909 
L 67.03533 -2.470909 
L 66.233951 -2.470909 
L 65.432572 -2.470909 
L 64.631193 -2.470909 
L 63.829815 -2.470909 
L 63.028436 -2.470909 
L 62.227057 -2.470909 
L 61.425679 -2.470909 
L 60.6243 -2.470909 
L 59.822921 -2.470909 
L 59.021542 -2.470909 
L 58.220164 -2.470909 
L 57.418785 -2.470909 
L 56.617406 -2.470909 
L 55.816028 -2.470909 
L 55.014649 -2.470909 
L 54.21327 -2.470909 
L 53.411891 -2.470909 
L 52.610513 -2.470909 
L 51.809134 -2.470909 
L 51.007755 -2.470909 
L 50.206377 -2.470909 
L 49.404998 -2.470909 
L 48.603619 -2.470909 
L 47.80224 -2.470909 
L 47.000862 -2.470909 
L 46.199483 -2.470909 
L 45.398104 -2.470909 
L 44.596726 -2.470909 
L 43.795347 -2.470909 
L 42.993968 -2.470909 
L 42.192589 -2.470909 
L 41.391211 -2.470909 
L 40.589832 -2.470909 
L 39.788453 -2.470909 
L 38.987075 -2.470909 
L 38.185696 -2.470909 
L 37.384317 -2.470909 
L 36.582938 -2.470909 
L 35.78156 -2.470909 
L 34.980181 -2.470909 
L 34.178802 -2.470909 
L 33.377424 -2.470909 
L 32.576045 -2.470909 
L 31.774666 -2.470909 
L 30.973287 -2.470909 
L 30.171909 -2.470909 
L 29.37053 -2.470909 
L 28.569151 -2.470909 
L 27.767773 -2.470909 
L 26.966394 -2.470909 
L 26.165015 -2.470909 
L 25.363636 -2.470909 
z
" style="stroke: #8a8a8a; stroke-opacity: 0.2"/>
    </defs>
    <g clip-path="url(#p63947282fe)">
     <use xlink:href="#m5435f6c1ef" x="0" y="54.36" style="fill: #8a8a8a; fill-opacity: 0.2; stroke: #8a8a8a; stroke-opacity: 0.2"/>
    </g>
   </g>
   <g id="line2d_1">
    <path d="M 317.065489 50.487288 
L 327.483412 49.4295 
L 332.291685 48.749503 
L 336.298578 47.928962 
L 340.305472 46.876027 
L 345.113744 45.377374 
L 349.922016 43.64954 
L 359.538561 40.107874 
L 366.750969 37.525159 
L 370.757863 35.837169 
L 373.963378 34.275539 
L 377.970271 32.039648 
L 387.586816 26.408085 
L 392.395088 23.957621 
L 396.401982 22.160665 
L 399.607497 21.011365 
L 402.813012 20.172958 
L 407.621284 19.24713 
L 413.230935 18.09392 
L 420.443343 16.53824 
L 423.648858 16.099292 
L 426.052994 16.000823 
L 428.457131 16.157788 
L 430.861267 16.583768 
L 433.265403 17.248072 
L 436.470918 18.391482 
L 447.69022 22.883887 
L 454.101249 25.597629 
L 471.731581 33.194309 
L 483.752262 37.947048 
L 494.971564 43.10572 
L 498.978458 44.583376 
L 502.985351 45.787347 
L 507.793623 46.981163 
L 513.403274 48.186359 
L 517.410168 48.856937 
L 521.417062 49.309221 
L 532.636364 50.191577 
L 532.636364 50.191577 
" clip-path="url(#p63947282fe)" style="fill: none; stroke: #cf1313; stroke-width: 1.5; stroke-linecap: square"/>
   </g>
   <g id="line2d_2">
    <path d="M 174.420078 50.241684 
L 187.242137 49.189935 
L 192.851788 48.456155 
L 198.461439 47.47494 
L 211.283498 44.908375 
L 216.091771 43.713828 
L 220.900043 42.267908 
L 232.920724 38.497302 
L 250.551056 33.292768 
L 256.160707 31.244221 
L 264.174494 28.087844 
L 271.386902 24.988329 
L 277.797932 22.281176 
L 281.804826 20.864463 
L 285.01034 19.947534 
L 289.017234 19.046165 
L 293.825506 18.232 
L 297.8324 17.773468 
L 301.037915 17.611698 
L 304.24343 17.677198 
L 307.448944 17.964128 
L 312.257217 18.667116 
L 318.668246 19.620965 
L 324.277897 20.189193 
L 329.887548 20.799188 
L 333.093063 21.370005 
L 336.298578 22.168724 
L 339.504093 23.182884 
L 343.510987 24.682978 
L 351.524774 28.018234 
L 357.134425 30.222603 
L 372.36062 35.940913 
L 378.77165 38.422419 
L 382.778544 39.74623 
L 387.586816 41.089887 
L 398.806118 44.092321 
L 406.819905 46.321755 
L 410.826799 47.221191 
L 414.833692 47.911617 
L 419.641965 48.509686 
L 429.258509 49.39524 
L 442.080569 50.448757 
L 442.080569 50.448757 
" clip-path="url(#p63947282fe)" style="fill: none; stroke: #116dc2; stroke-width: 1.5; stroke-linecap: square"/>
   </g>
   <g id="line2d_3">
    <path d="M 25.363636 50.129404 
L 26.165015 49.632201 
L 26.966394 49.029304 
L 27.767773 48.342216 
L 28.569151 47.546395 
L 29.37053 46.597071 
L 30.171909 45.475049 
L 30.973287 44.171467 
L 31.774666 42.609083 
L 32.576045 40.676337 
L 33.377424 38.401227 
L 34.178802 35.991051 
L 34.980181 33.648701 
L 35.78156 31.419691 
L 36.582938 29.206712 
L 37.384317 26.892903 
L 38.185696 24.434889 
L 38.987075 21.826813 
L 39.788453 19.066156 
L 40.589832 16.18718 
L 41.391211 13.266029 
L 42.192589 10.437003 
L 42.993968 7.970849 
L 43.795347 6.184725 
L 44.596726 5.109031 
L 45.398104 4.41536 
L 46.199483 3.772114 
L 47.000862 3.104102 
L 47.80224 2.5764 
L 48.603619 2.470909 
L 49.404998 2.971418 
L 50.206377 4.090067 
L 51.007755 5.844893 
L 51.809134 8.241922 
L 52.610513 11.054733 
L 53.411891 13.947651 
L 54.21327 16.814118 
L 55.014649 19.744388 
L 55.816028 22.718726 
L 56.617406 25.544656 
L 57.418785 28.099782 
L 58.220164 30.528487 
L 59.021542 33.103444 
L 59.822921 35.863024 
L 60.6243 38.496237 
L 61.425679 40.66324 
L 62.227057 42.326779 
L 63.028436 43.674672 
L 63.829815 44.851545 
L 64.631193 45.900255 
L 65.432572 46.836851 
L 66.233951 47.667628 
L 67.03533 48.399272 
L 67.836708 49.063387 
" clip-path="url(#p63947282fe)" style="fill: none; stroke: #8a8a8a; stroke-width: 1.5; stroke-linecap: square"/>
   </g>
  </g>
 </g>
 <defs>
  <clipPath id="p63947282fe">
   <rect x="0" y="-0" width="558" height="54.36"/>
  </clipPath>
 </defs>
</svg>
