<?xml version="1.0" encoding="utf-8" standalone="no"?>
<!DOCTYPE svg PUBLIC "-//W3C//DTD SVG 1.1//EN"
  "http://www.w3.org/Graphics/SVG/1.1/DTD/svg11.dtd">
<svg xmlns:xlink="http://www.w3.org/1999/xlink" width="558pt" height="54.36pt" viewBox="0 0 558 54.36" xmlns="http://www.w3.org/2000/svg" version="1.1">
 <metadata>
  <rdf:RDF xmlns:dc="http://purl.org/dc/elements/1.1/" xmlns:cc="http://creativecommons.org/ns#" xmlns:rdf="http://www.w3.org/1999/02/22-rdf-syntax-ns#">
   <cc:Work>
    <dc:type rdf:resource="http://purl.org/dc/dcmitype/StillImage"/>
    <dc:date>2024-09-14T12:47:33.551268</dc:date>
    <dc:format>image/svg+xml</dc:format>
    <dc:creator>
     <cc:Agent>
      <dc:title>Matplotlib v3.5.2, https://matplotlib.org/</dc:title>
     </cc:Agent>
    </dc:creator>
   </cc:Work>
  </rdf:RDF>
 </metadata>
 <defs>
  <style type="text/css">*{stroke-linejoin: round; stroke-linecap: butt}</style>
 </defs>
 <g id="figure_1">
  <g id="patch_1">
   <path d="M 0 54.36 
L 558 54.36 
L 558 0 
L 0 0 
L 0 54.36 
z
" style="fill: none; opacity: 0"/>
  </g>
  <g id="axes_1">
   <g id="PolyCollection_1">
    <defs>
     <path id="m84a69dd4b2" d="M 240.139733 -2.470909 
L 240.139733 -4.271268 
L 240.975438 -4.353271 
L 241.811143 -4.437641 
L 242.646847 -4.524917 
L 243.482552 -4.615705 
L 244.318257 -4.710655 
L 245.153961 -4.810447 
L 245.989666 -4.915758 
L 246.825371 -5.027236 
L 247.661075 -5.145461 
L 248.49678 -5.270923 
L 249.332485 -5.403988 
L 250.168189 -5.544875 
L 251.003894 -5.693647 
L 251.839599 -5.850199 
L 252.675303 -6.014267 
L 253.511008 -6.185442 
L 254.346713 -6.363195 
L 255.182417 -6.546911 
L 256.018122 -6.73593 
L 256.853827 -6.929585 
L 257.689531 -7.127249 
L 258.525236 -7.32837 
L 259.360941 -7.532504 
L 260.196645 -7.739339 
L 261.03235 -7.948698 
L 261.868055 -8.16055 
L 262.703759 -8.374991 
L 263.539464 -8.592233 
L 264.375168 -8.812581 
L 265.210873 -9.036418 
L 266.046578 -9.264194 
L 266.882282 -9.496432 
L 267.717987 -9.733735 
L 268.553692 -9.976824 
L 269.389396 -10.226574 
L 270.225101 -10.484055 
L 271.060806 -10.750574 
L 271.89651 -11.027696 
L 272.732215 -11.31724 
L 273.56792 -11.621247 
L 274.403624 -11.941907 
L 275.239329 -12.281445 
L 276.075034 -12.641985 
L 276.910738 -13.025385 
L 277.746443 -13.433072 
L 278.582148 -13.865882 
L 279.417852 -14.323932 
L 280.253557 -14.806534 
L 281.089262 -15.312159 
L 281.924966 -15.83846 
L 282.760671 -16.382362 
L 283.596376 -16.940193 
L 284.43208 -17.507867 
L 285.267785 -18.081097 
L 286.10349 -18.655617 
L 286.939194 -19.2274 
L 287.774899 -19.792864 
L 288.610604 -20.349034 
L 289.446308 -20.893664 
L 290.282013 -21.425304 
L 291.117718 -21.943304 
L 291.953422 -22.44777 
L 292.789127 -22.939455 
L 293.624832 -23.419623 
L 294.460536 -23.889875 
L 295.296241 -24.351968 
L 296.131945 -24.80764 
L 296.96765 -25.25846 
L 297.803355 -25.705716 
L 298.639059 -26.150341 
L 299.474764 -26.5929 
L 300.310469 -27.033612 
L 301.146173 -27.472417 
L 301.981878 -27.909059 
L 302.817583 -28.343177 
L 303.653287 -28.774391 
L 304.488992 -29.202358 
L 305.324697 -29.626798 
L 306.160401 -30.047486 
L 306.996106 -30.464207 
L 307.831811 -30.876698 
L 308.667515 -31.28457 
L 309.50322 -31.68725 
L 310.338925 -32.083934 
L 311.174629 -32.473583 
L 312.010334 -32.854956 
L 312.846039 -33.226682 
L 313.681743 -33.587365 
L 314.517448 -33.93572 
L 315.353153 -34.2707 
L 316.188857 -34.591633 
L 317.024562 -34.898319 
L 317.860267 -35.191107 
L 318.695971 -35.470926 
L 319.531676 -35.739266 
L 320.367381 -35.99813 
L 321.203085 -36.24993 
L 322.03879 -36.497362 
L 322.874495 -36.74324 
L 323.710199 -36.99031 
L 324.545904 -37.241052 
L 325.381609 -37.497462 
L 326.217313 -37.760855 
L 327.053018 -38.031677 
L 327.888722 -38.309362 
L 328.724427 -38.592253 
L 329.560132 -38.877596 
L 330.395836 -39.161629 
L 331.231541 -39.439777 
L 332.067246 -39.706937 
L 332.90295 -39.957845 
L 333.738655 -40.187498 
L 334.57436 -40.391589 
L 335.410064 -40.566909 
L 336.245769 -40.711684 
L 337.081474 -40.825792 
L 337.917178 -40.910839 
L 338.752883 -40.970085 
L 339.588588 -41.008202 
L 340.424292 -41.030911 
L 341.259997 -41.044503 
L 342.095702 -41.055314 
L 342.931406 -41.069183 
L 343.767111 -41.090959 
L 344.602816 -41.12409 
L 345.43852 -41.170339 
L 346.274225 -41.229632 
L 347.10993 -41.30006 
L 347.945634 -41.378018 
L 348.781339 -41.45846 
L 349.617044 -41.53525 
L 350.452748 -41.601574 
L 351.288453 -41.650373 
L 352.124158 -41.674769 
L 352.959862 -41.66846 
L 353.795567 -41.626053 
L 354.631272 -41.543317 
L 355.466976 -41.417358 
L 356.302681 -41.246685 
L 357.138386 -41.031197 
L 357.97409 -40.772074 
L 358.809795 -40.471596 
L 359.645499 -40.132903 
L 360.481204 -39.759723 
L 361.316909 -39.35608 
L 362.152613 -38.926021 
L 362.988318 -38.473378 
L 363.824023 -38.001585 
L 364.659727 -37.513558 
L 365.495432 -37.01166 
L 366.331137 -36.49772 
L 367.166841 -35.973126 
L 368.002546 -35.438953 
L 368.838251 -34.896112 
L 369.673955 -34.345506 
L 370.50966 -33.788158 
L 371.345365 -33.225319 
L 372.181069 -32.658516 
L 373.016774 -32.089571 
L 373.852479 -31.520563 
L 374.688183 -30.95376 
L 375.523888 -30.391524 
L 376.359593 -29.836201 
L 377.195297 -29.290009 
L 378.031002 -28.754928 
L 378.866707 -28.232618 
L 379.702411 -27.724343 
L 380.538116 -27.230933 
L 381.373821 -26.752761 
L 382.209525 -26.289752 
L 383.04523 -25.841409 
L 383.880935 -25.406865 
L 384.716639 -24.984937 
L 385.552344 -24.574201 
L 386.388049 -24.173062 
L 387.223753 -23.779821 
L 388.059458 -23.392737 
L 388.895162 -23.010076 
L 389.730867 -22.630143 
L 390.566572 -22.251308 
L 391.402276 -21.872011 
L 392.237981 -21.490777 
L 393.073686 -21.106219 
L 393.90939 -20.717058 
L 394.745095 -20.322155 
L 395.5808 -19.920556 
L 396.416504 -19.511558 
L 397.252209 -19.094781 
L 398.087914 -18.670242 
L 398.923618 -18.238422 
L 399.759323 -17.800308 
L 400.595028 -17.357408 
L 401.430732 -16.911717 
L 402.266437 -16.465654 
L 403.102142 -16.021945 
L 403.937846 -15.583485 
L 404.773551 -15.153163 
L 405.609256 -14.733699 
L 406.44496 -14.327468 
L 407.280665 -13.936357 
L 408.11637 -13.561646 
L 408.952074 -13.203932 
L 409.787779 -12.863096 
L 410.623484 -12.538313 
L 411.459188 -12.228106 
L 412.294893 -11.930445 
L 413.130598 -11.642875 
L 413.966302 -11.362674 
L 414.802007 -11.087033 
L 415.637712 -10.813238 
L 416.473416 -10.538855 
L 417.309121 -10.261895 
L 418.144826 -9.980952 
L 418.98053 -9.6953 
L 419.816235 -9.40495 
L 420.651939 -9.110644 
L 421.487644 -8.813809 
L 422.323349 -8.516455 
L 423.159053 -8.221044 
L 423.994758 -7.930322 
L 424.830463 -7.647151 
L 425.666167 -7.374335 
L 426.501872 -7.114465 
L 427.337577 -6.869783 
L 428.173281 -6.642084 
L 429.008986 -6.432648 
L 429.844691 -6.242206 
L 430.680395 -6.070938 
L 431.5161 -5.9185 
L 432.351805 -5.784063 
L 433.187509 -5.666381 
L 434.023214 -5.563856 
L 434.858919 -5.474615 
L 435.694623 -5.396591 
L 436.530328 -5.327599 
L 437.366033 -5.265415 
L 438.201737 -5.207846 
L 439.037442 -5.152804 
L 439.873147 -5.098366 
L 440.708851 -5.042826 
L 441.544556 -4.984746 
L 442.380261 -4.922987 
L 443.215965 -4.856727 
L 444.05167 -4.785474 
L 444.887375 -4.709059 
L 445.723079 -4.627614 
L 446.558784 -4.541542 
L 446.558784 -2.470909 
L 446.558784 -2.470909 
L 445.723079 -2.470909 
L 444.887375 -2.470909 
L 444.05167 -2.470909 
L 443.215965 -2.470909 
L 442.380261 -2.470909 
L 441.544556 -2.470909 
L 440.708851 -2.470909 
L 439.873147 -2.470909 
L 439.037442 -2.470909 
L 438.201737 -2.470909 
L 437.366033 -2.470909 
L 436.530328 -2.470909 
L 435.694623 -2.470909 
L 434.858919 -2.470909 
L 434.023214 -2.470909 
L 433.187509 -2.470909 
L 432.351805 -2.470909 
L 431.5161 -2.470909 
L 430.680395 -2.470909 
L 429.844691 -2.470909 
L 429.008986 -2.470909 
L 428.173281 -2.470909 
L 427.337577 -2.470909 
L 426.501872 -2.470909 
L 425.666167 -2.470909 
L 424.830463 -2.470909 
L 423.994758 -2.470909 
L 423.159053 -2.470909 
L 422.323349 -2.470909 
L 421.487644 -2.470909 
L 420.651939 -2.470909 
L 419.816235 -2.470909 
L 418.98053 -2.470909 
L 418.144826 -2.470909 
L 417.309121 -2.470909 
L 416.473416 -2.470909 
L 415.637712 -2.470909 
L 414.802007 -2.470909 
L 413.966302 -2.470909 
L 413.130598 -2.470909 
L 412.294893 -2.470909 
L 411.459188 -2.470909 
L 410.623484 -2.470909 
L 409.787779 -2.470909 
L 408.952074 -2.470909 
L 408.11637 -2.470909 
L 407.280665 -2.470909 
L 406.44496 -2.470909 
L 405.609256 -2.470909 
L 404.773551 -2.470909 
L 403.937846 -2.470909 
L 403.102142 -2.470909 
L 402.266437 -2.470909 
L 401.430732 -2.470909 
L 400.595028 -2.470909 
L 399.759323 -2.470909 
L 398.923618 -2.470909 
L 398.087914 -2.470909 
L 397.252209 -2.470909 
L 396.416504 -2.470909 
L 395.5808 -2.470909 
L 394.745095 -2.470909 
L 393.90939 -2.470909 
L 393.073686 -2.470909 
L 392.237981 -2.470909 
L 391.402276 -2.470909 
L 390.566572 -2.470909 
L 389.730867 -2.470909 
L 388.895162 -2.470909 
L 388.059458 -2.470909 
L 387.223753 -2.470909 
L 386.388049 -2.470909 
L 385.552344 -2.470909 
L 384.716639 -2.470909 
L 383.880935 -2.470909 
L 383.04523 -2.470909 
L 382.209525 -2.470909 
L 381.373821 -2.470909 
L 380.538116 -2.470909 
L 379.702411 -2.470909 
L 378.866707 -2.470909 
L 378.031002 -2.470909 
L 377.195297 -2.470909 
L 376.359593 -2.470909 
L 375.523888 -2.470909 
L 374.688183 -2.470909 
L 373.852479 -2.470909 
L 373.016774 -2.470909 
L 372.181069 -2.470909 
L 371.345365 -2.470909 
L 370.50966 -2.470909 
L 369.673955 -2.470909 
L 368.838251 -2.470909 
L 368.002546 -2.470909 
L 367.166841 -2.470909 
L 366.331137 -2.470909 
L 365.495432 -2.470909 
L 364.659727 -2.470909 
L 363.824023 -2.470909 
L 362.988318 -2.470909 
L 362.152613 -2.470909 
L 361.316909 -2.470909 
L 360.481204 -2.470909 
L 359.645499 -2.470909 
L 358.809795 -2.470909 
L 357.97409 -2.470909 
L 357.138386 -2.470909 
L 356.302681 -2.470909 
L 355.466976 -2.470909 
L 354.631272 -2.470909 
L 353.795567 -2.470909 
L 352.959862 -2.470909 
L 352.124158 -2.470909 
L 351.288453 -2.470909 
L 350.452748 -2.470909 
L 349.617044 -2.470909 
L 348.781339 -2.470909 
L 347.945634 -2.470909 
L 347.10993 -2.470909 
L 346.274225 -2.470909 
L 345.43852 -2.470909 
L 344.602816 -2.470909 
L 343.767111 -2.470909 
L 342.931406 -2.470909 
L 342.095702 -2.470909 
L 341.259997 -2.470909 
L 340.424292 -2.470909 
L 339.588588 -2.470909 
L 338.752883 -2.470909 
L 337.917178 -2.470909 
L 337.081474 -2.470909 
L 336.245769 -2.470909 
L 335.410064 -2.470909 
L 334.57436 -2.470909 
L 333.738655 -2.470909 
L 332.90295 -2.470909 
L 332.067246 -2.470909 
L 331.231541 -2.470909 
L 330.395836 -2.470909 
L 329.560132 -2.470909 
L 328.724427 -2.470909 
L 327.888722 -2.470909 
L 327.053018 -2.470909 
L 326.217313 -2.470909 
L 325.381609 -2.470909 
L 324.545904 -2.470909 
L 323.710199 -2.470909 
L 322.874495 -2.470909 
L 322.03879 -2.470909 
L 321.203085 -2.470909 
L 320.367381 -2.470909 
L 319.531676 -2.470909 
L 318.695971 -2.470909 
L 317.860267 -2.470909 
L 317.024562 -2.470909 
L 316.188857 -2.470909 
L 315.353153 -2.470909 
L 314.517448 -2.470909 
L 313.681743 -2.470909 
L 312.846039 -2.470909 
L 312.010334 -2.470909 
L 311.174629 -2.470909 
L 310.338925 -2.470909 
L 309.50322 -2.470909 
L 308.667515 -2.470909 
L 307.831811 -2.470909 
L 306.996106 -2.470909 
L 306.160401 -2.470909 
L 305.324697 -2.470909 
L 304.488992 -2.470909 
L 303.653287 -2.470909 
L 302.817583 -2.470909 
L 301.981878 -2.470909 
L 301.146173 -2.470909 
L 300.310469 -2.470909 
L 299.474764 -2.470909 
L 298.639059 -2.470909 
L 297.803355 -2.470909 
L 296.96765 -2.470909 
L 296.131945 -2.470909 
L 295.296241 -2.470909 
L 294.460536 -2.470909 
L 293.624832 -2.470909 
L 292.789127 -2.470909 
L 291.953422 -2.470909 
L 291.117718 -2.470909 
L 290.282013 -2.470909 
L 289.446308 -2.470909 
L 288.610604 -2.470909 
L 287.774899 -2.470909 
L 286.939194 -2.470909 
L 286.10349 -2.470909 
L 285.267785 -2.470909 
L 284.43208 -2.470909 
L 283.596376 -2.470909 
L 282.760671 -2.470909 
L 281.924966 -2.470909 
L 281.089262 -2.470909 
L 280.253557 -2.470909 
L 279.417852 -2.470909 
L 278.582148 -2.470909 
L 277.746443 -2.470909 
L 276.910738 -2.470909 
L 276.075034 -2.470909 
L 275.239329 -2.470909 
L 274.403624 -2.470909 
L 273.56792 -2.470909 
L 272.732215 -2.470909 
L 271.89651 -2.470909 
L 271.060806 -2.470909 
L 270.225101 -2.470909 
L 269.389396 -2.470909 
L 268.553692 -2.470909 
L 267.717987 -2.470909 
L 266.882282 -2.470909 
L 266.046578 -2.470909 
L 265.210873 -2.470909 
L 264.375168 -2.470909 
L 263.539464 -2.470909 
L 262.703759 -2.470909 
L 261.868055 -2.470909 
L 261.03235 -2.470909 
L 260.196645 -2.470909 
L 259.360941 -2.470909 
L 258.525236 -2.470909 
L 257.689531 -2.470909 
L 256.853827 -2.470909 
L 256.018122 -2.470909 
L 255.182417 -2.470909 
L 254.346713 -2.470909 
L 253.511008 -2.470909 
L 252.675303 -2.470909 
L 251.839599 -2.470909 
L 251.003894 -2.470909 
L 250.168189 -2.470909 
L 249.332485 -2.470909 
L 248.49678 -2.470909 
L 247.661075 -2.470909 
L 246.825371 -2.470909 
L 245.989666 -2.470909 
L 245.153961 -2.470909 
L 244.318257 -2.470909 
L 243.482552 -2.470909 
L 242.646847 -2.470909 
L 241.811143 -2.470909 
L 240.975438 -2.470909 
L 240.139733 -2.470909 
z
" style="stroke: #cf1313; stroke-opacity: 0.2"/>
    </defs>
    <g clip-path="url(#p6149fd2f78)">
     <use xlink:href="#m84a69dd4b2" x="0" y="54.36" style="fill: #cf1313; fill-opacity: 0.2; stroke: #cf1313; stroke-opacity: 0.2"/>
    </g>
   </g>
   <g id="PolyCollection_2">
    <defs>
     <path id="m5e6c1afb05" d="M 331.231541 -2.470909 
L 331.231541 -4.133464 
L 332.067246 -4.222001 
L 332.90295 -4.315608 
L 333.738655 -4.414664 
L 334.57436 -4.519434 
L 335.410064 -4.630058 
L 336.245769 -4.746542 
L 337.081474 -4.868773 
L 337.917178 -4.996544 
L 338.752883 -5.129594 
L 339.588588 -5.267654 
L 340.424292 -5.410498 
L 341.259997 -5.557984 
L 342.095702 -5.710099 
L 342.931406 -5.866968 
L 343.767111 -6.028863 
L 344.602816 -6.196178 
L 345.43852 -6.369382 
L 346.274225 -6.548961 
L 347.10993 -6.735342 
L 347.945634 -6.928813 
L 348.781339 -7.12945 
L 349.617044 -7.337058 
L 350.452748 -7.551136 
L 351.288453 -7.77088 
L 352.124158 -7.995214 
L 352.959862 -8.222861 
L 353.795567 -8.452455 
L 354.631272 -8.682662 
L 355.466976 -8.912326 
L 356.302681 -9.140603 
L 357.138386 -9.36709 
L 357.97409 -9.591906 
L 358.809795 -9.815744 
L 359.645499 -10.039867 
L 360.481204 -10.266058 
L 361.316909 -10.496523 
L 362.152613 -10.733755 
L 362.988318 -10.980383 
L 363.824023 -11.239 
L 364.659727 -11.512007 
L 365.495432 -11.801465 
L 366.331137 -12.108978 
L 367.166841 -12.435604 
L 368.002546 -12.781805 
L 368.838251 -13.147421 
L 369.673955 -13.531681 
L 370.50966 -13.933241 
L 371.345365 -14.350245 
L 372.181069 -14.780402 
L 373.016774 -15.221093 
L 373.852479 -15.669487 
L 374.688183 -16.122675 
L 375.523888 -16.577817 
L 376.359593 -17.032291 
L 377.195297 -17.483843 
L 378.031002 -17.930727 
L 378.866707 -18.371815 
L 379.702411 -18.80669 
L 380.538116 -19.235673 
L 381.373821 -19.659824 
L 382.209525 -20.080869 
L 383.04523 -20.501085 
L 383.880935 -20.923135 
L 384.716639 -21.349865 
L 385.552344 -21.784079 
L 386.388049 -22.228312 
L 387.223753 -22.68461 
L 388.059458 -23.154346 
L 388.895162 -23.638081 
L 389.730867 -24.135483 
L 390.566572 -24.64531 
L 391.402276 -25.165458 
L 392.237981 -25.693081 
L 393.073686 -26.224757 
L 393.90939 -26.756699 
L 394.745095 -27.285 
L 395.5808 -27.805879 
L 396.416504 -28.315925 
L 397.252209 -28.812313 
L 398.087914 -29.292984 
L 398.923618 -29.756766 
L 399.759323 -30.203442 
L 400.595028 -30.633747 
L 401.430732 -31.049312 
L 402.266437 -31.452536 
L 403.102142 -31.846435 
L 403.937846 -32.23443 
L 404.773551 -32.620138 
L 405.609256 -33.007145 
L 406.44496 -33.398787 
L 407.280665 -33.797952 
L 408.11637 -34.206903 
L 408.952074 -34.627135 
L 409.787779 -35.059266 
L 410.623484 -35.502962 
L 411.459188 -35.956913 
L 412.294893 -36.418845 
L 413.130598 -36.885583 
L 413.966302 -37.353169 
L 414.802007 -37.817019 
L 415.637712 -38.272142 
L 416.473416 -38.713383 
L 417.309121 -39.135698 
L 418.144826 -39.534427 
L 418.98053 -39.905551 
L 419.816235 -40.245904 
L 420.651939 -40.553324 
L 421.487644 -40.826725 
L 422.323349 -41.066082 
L 423.159053 -41.272335 
L 423.994758 -41.447221 
L 424.830463 -41.593065 
L 425.666167 -41.712538 
L 426.501872 -41.808424 
L 427.337577 -41.883418 
L 428.173281 -41.939974 
L 429.008986 -41.9802 
L 429.844691 -42.005833 
L 430.680395 -42.018246 
L 431.5161 -42.01851 
L 432.351805 -42.007466 
L 433.187509 -41.9858 
L 434.023214 -41.954105 
L 434.858919 -41.912915 
L 435.694623 -41.8627 
L 436.530328 -41.803838 
L 437.366033 -41.73656 
L 438.201737 -41.660877 
L 439.037442 -41.57652 
L 439.873147 -41.482888 
L 440.708851 -41.37902 
L 441.544556 -41.263607 
L 442.380261 -41.135034 
L 443.215965 -40.991458 
L 444.05167 -40.830908 
L 444.887375 -40.6514 
L 445.723079 -40.451059 
L 446.558784 -40.228229 
L 447.394489 -39.981571 
L 448.230193 -39.710125 
L 449.065898 -39.413357 
L 449.901603 -39.091162 
L 450.737307 -38.743848 
L 451.573012 -38.372093 
L 452.408716 -37.976886 
L 453.244421 -37.559462 
L 454.080126 -37.121232 
L 454.91583 -36.663728 
L 455.751535 -36.188557 
L 456.58724 -35.697369 
L 457.422944 -35.191847 
L 458.258649 -34.673712 
L 459.094354 -34.144724 
L 459.930058 -33.606699 
L 460.765763 -33.061509 
L 461.601468 -32.511073 
L 462.437172 -31.95732 
L 463.272877 -31.402146 
L 464.108582 -30.847338 
L 464.944286 -30.294502 
L 465.779991 -29.74498 
L 466.615696 -29.199792 
L 467.4514 -28.659595 
L 468.287105 -28.124685 
L 469.12281 -27.595043 
L 469.958514 -27.070417 
L 470.794219 -26.550451 
L 471.629924 -26.034819 
L 472.465628 -25.523375 
L 473.301333 -25.016274 
L 474.137038 -24.514046 
L 474.972742 -24.017623 
L 475.808447 -23.528285 
L 476.644152 -23.047551 
L 477.479856 -22.577005 
L 478.315561 -22.118094 
L 479.151266 -21.671923 
L 479.98697 -21.23907 
L 480.822675 -20.819451 
L 481.65838 -20.41226 
L 482.494084 -20.01599 
L 483.329789 -19.628534 
L 484.165493 -19.247349 
L 485.001198 -18.869679 
L 485.836903 -18.492785 
L 486.672607 -18.114175 
L 487.508312 -17.731799 
L 488.344017 -17.344198 
L 489.179721 -16.950592 
L 490.015426 -16.550903 
L 490.851131 -16.145726 
L 491.686835 -15.736257 
L 492.52254 -15.324189 
L 493.358245 -14.911586 
L 494.193949 -14.500761 
L 495.029654 -14.094152 
L 495.865359 -13.694204 
L 496.701063 -13.303269 
L 497.536768 -12.923509 
L 498.372473 -12.556815 
L 499.208177 -12.204734 
L 500.043882 -11.868408 
L 500.879587 -11.548522 
L 501.715291 -11.245278 
L 502.550996 -10.958382 
L 503.386701 -10.687058 
L 504.222405 -10.430088 
L 505.05811 -10.185877 
L 505.893815 -9.952543 
L 506.729519 -9.728019 
L 507.565224 -9.51017 
L 508.400929 -9.296911 
L 509.236633 -9.086317 
L 510.072338 -8.876716 
L 510.908043 -8.666767 
L 511.743747 -8.45551 
L 512.579452 -8.242392 
L 513.415157 -8.027267 
L 514.250861 -7.810377 
L 515.086566 -7.592309 
L 515.92227 -7.373947 
L 516.757975 -7.156405 
L 517.59368 -6.940958 
L 518.429384 -6.728971 
L 519.265089 -6.521825 
L 520.100794 -6.320842 
L 520.936498 -6.12722 
L 521.772203 -5.941965 
L 522.607908 -5.765839 
L 523.443612 -5.599316 
L 524.279317 -5.442551 
L 525.115022 -5.295378 
L 525.950726 -5.15732 
L 526.786431 -5.027623 
L 527.622136 -4.905317 
L 528.45784 -4.789293 
L 529.293545 -4.678388 
L 530.12925 -4.571481 
L 530.964954 -4.467582 
L 531.800659 -4.365909 
L 532.636364 -4.265941 
L 532.636364 -2.470909 
L 532.636364 -2.470909 
L 531.800659 -2.470909 
L 530.964954 -2.470909 
L 530.12925 -2.470909 
L 529.293545 -2.470909 
L 528.45784 -2.470909 
L 527.622136 -2.470909 
L 526.786431 -2.470909 
L 525.950726 -2.470909 
L 525.115022 -2.470909 
L 524.279317 -2.470909 
L 523.443612 -2.470909 
L 522.607908 -2.470909 
L 521.772203 -2.470909 
L 520.936498 -2.470909 
L 520.100794 -2.470909 
L 519.265089 -2.470909 
L 518.429384 -2.470909 
L 517.59368 -2.470909 
L 516.757975 -2.470909 
L 515.92227 -2.470909 
L 515.086566 -2.470909 
L 514.250861 -2.470909 
L 513.415157 -2.470909 
L 512.579452 -2.470909 
L 511.743747 -2.470909 
L 510.908043 -2.470909 
L 510.072338 -2.470909 
L 509.236633 -2.470909 
L 508.400929 -2.470909 
L 507.565224 -2.470909 
L 506.729519 -2.470909 
L 505.893815 -2.470909 
L 505.05811 -2.470909 
L 504.222405 -2.470909 
L 503.386701 -2.470909 
L 502.550996 -2.470909 
L 501.715291 -2.470909 
L 500.879587 -2.470909 
L 500.043882 -2.470909 
L 499.208177 -2.470909 
L 498.372473 -2.470909 
L 497.536768 -2.470909 
L 496.701063 -2.470909 
L 495.865359 -2.470909 
L 495.029654 -2.470909 
L 494.193949 -2.470909 
L 493.358245 -2.470909 
L 492.52254 -2.470909 
L 491.686835 -2.470909 
L 490.851131 -2.470909 
L 490.015426 -2.470909 
L 489.179721 -2.470909 
L 488.344017 -2.470909 
L 487.508312 -2.470909 
L 486.672607 -2.470909 
L 485.836903 -2.470909 
L 485.001198 -2.470909 
L 484.165493 -2.470909 
L 483.329789 -2.470909 
L 482.494084 -2.470909 
L 481.65838 -2.470909 
L 480.822675 -2.470909 
L 479.98697 -2.470909 
L 479.151266 -2.470909 
L 478.315561 -2.470909 
L 477.479856 -2.470909 
L 476.644152 -2.470909 
L 475.808447 -2.470909 
L 474.972742 -2.470909 
L 474.137038 -2.470909 
L 473.301333 -2.470909 
L 472.465628 -2.470909 
L 471.629924 -2.470909 
L 470.794219 -2.470909 
L 469.958514 -2.470909 
L 469.12281 -2.470909 
L 468.287105 -2.470909 
L 467.4514 -2.470909 
L 466.615696 -2.470909 
L 465.779991 -2.470909 
L 464.944286 -2.470909 
L 464.108582 -2.470909 
L 463.272877 -2.470909 
L 462.437172 -2.470909 
L 461.601468 -2.470909 
L 460.765763 -2.470909 
L 459.930058 -2.470909 
L 459.094354 -2.470909 
L 458.258649 -2.470909 
L 457.422944 -2.470909 
L 456.58724 -2.470909 
L 455.751535 -2.470909 
L 454.91583 -2.470909 
L 454.080126 -2.470909 
L 453.244421 -2.470909 
L 452.408716 -2.470909 
L 451.573012 -2.470909 
L 450.737307 -2.470909 
L 449.901603 -2.470909 
L 449.065898 -2.470909 
L 448.230193 -2.470909 
L 447.394489 -2.470909 
L 446.558784 -2.470909 
L 445.723079 -2.470909 
L 444.887375 -2.470909 
L 444.05167 -2.470909 
L 443.215965 -2.470909 
L 442.380261 -2.470909 
L 441.544556 -2.470909 
L 440.708851 -2.470909 
L 439.873147 -2.470909 
L 439.037442 -2.470909 
L 438.201737 -2.470909 
L 437.366033 -2.470909 
L 436.530328 -2.470909 
L 435.694623 -2.470909 
L 434.858919 -2.470909 
L 434.023214 -2.470909 
L 433.187509 -2.470909 
L 432.351805 -2.470909 
L 431.5161 -2.470909 
L 430.680395 -2.470909 
L 429.844691 -2.470909 
L 429.008986 -2.470909 
L 428.173281 -2.470909 
L 427.337577 -2.470909 
L 426.501872 -2.470909 
L 425.666167 -2.470909 
L 424.830463 -2.470909 
L 423.994758 -2.470909 
L 423.159053 -2.470909 
L 422.323349 -2.470909 
L 421.487644 -2.470909 
L 420.651939 -2.470909 
L 419.816235 -2.470909 
L 418.98053 -2.470909 
L 418.144826 -2.470909 
L 417.309121 -2.470909 
L 416.473416 -2.470909 
L 415.637712 -2.470909 
L 414.802007 -2.470909 
L 413.966302 -2.470909 
L 413.130598 -2.470909 
L 412.294893 -2.470909 
L 411.459188 -2.470909 
L 410.623484 -2.470909 
L 409.787779 -2.470909 
L 408.952074 -2.470909 
L 408.11637 -2.470909 
L 407.280665 -2.470909 
L 406.44496 -2.470909 
L 405.609256 -2.470909 
L 404.773551 -2.470909 
L 403.937846 -2.470909 
L 403.102142 -2.470909 
L 402.266437 -2.470909 
L 401.430732 -2.470909 
L 400.595028 -2.470909 
L 399.759323 -2.470909 
L 398.923618 -2.470909 
L 398.087914 -2.470909 
L 397.252209 -2.470909 
L 396.416504 -2.470909 
L 395.5808 -2.470909 
L 394.745095 -2.470909 
L 393.90939 -2.470909 
L 393.073686 -2.470909 
L 392.237981 -2.470909 
L 391.402276 -2.470909 
L 390.566572 -2.470909 
L 389.730867 -2.470909 
L 388.895162 -2.470909 
L 388.059458 -2.470909 
L 387.223753 -2.470909 
L 386.388049 -2.470909 
L 385.552344 -2.470909 
L 384.716639 -2.470909 
L 383.880935 -2.470909 
L 383.04523 -2.470909 
L 382.209525 -2.470909 
L 381.373821 -2.470909 
L 380.538116 -2.470909 
L 379.702411 -2.470909 
L 378.866707 -2.470909 
L 378.031002 -2.470909 
L 377.195297 -2.470909 
L 376.359593 -2.470909 
L 375.523888 -2.470909 
L 374.688183 -2.470909 
L 373.852479 -2.470909 
L 373.016774 -2.470909 
L 372.181069 -2.470909 
L 371.345365 -2.470909 
L 370.50966 -2.470909 
L 369.673955 -2.470909 
L 368.838251 -2.470909 
L 368.002546 -2.470909 
L 367.166841 -2.470909 
L 366.331137 -2.470909 
L 365.495432 -2.470909 
L 364.659727 -2.470909 
L 363.824023 -2.470909 
L 362.988318 -2.470909 
L 362.152613 -2.470909 
L 361.316909 -2.470909 
L 360.481204 -2.470909 
L 359.645499 -2.470909 
L 358.809795 -2.470909 
L 357.97409 -2.470909 
L 357.138386 -2.470909 
L 356.302681 -2.470909 
L 355.466976 -2.470909 
L 354.631272 -2.470909 
L 353.795567 -2.470909 
L 352.959862 -2.470909 
L 352.124158 -2.470909 
L 351.288453 -2.470909 
L 350.452748 -2.470909 
L 349.617044 -2.470909 
L 348.781339 -2.470909 
L 347.945634 -2.470909 
L 347.10993 -2.470909 
L 346.274225 -2.470909 
L 345.43852 -2.470909 
L 344.602816 -2.470909 
L 343.767111 -2.470909 
L 342.931406 -2.470909 
L 342.095702 -2.470909 
L 341.259997 -2.470909 
L 340.424292 -2.470909 
L 339.588588 -2.470909 
L 338.752883 -2.470909 
L 337.917178 -2.470909 
L 337.081474 -2.470909 
L 336.245769 -2.470909 
L 335.410064 -2.470909 
L 334.57436 -2.470909 
L 333.738655 -2.470909 
L 332.90295 -2.470909 
L 332.067246 -2.470909 
L 331.231541 -2.470909 
z
" style="stroke: #116dc2; stroke-opacity: 0.2"/>
    </defs>
    <g clip-path="url(#p6149fd2f78)">
     <use xlink:href="#m5e6c1afb05" x="0" y="54.36" style="fill: #116dc2; fill-opacity: 0.2; stroke: #116dc2; stroke-opacity: 0.2"/>
    </g>
   </g>
   <g id="PolyCollection_3">
    <defs>
     <path id="m7b828aad63" d="M 25.363636 -2.470909 
L 25.363636 -4.208058 
L 26.199341 -4.615397 
L 27.035046 -5.098349 
L 27.87075 -5.624016 
L 28.706455 -6.180594 
L 29.54216 -6.787746 
L 30.377864 -7.481832 
L 31.213569 -8.285549 
L 32.049274 -9.187704 
L 32.884978 -10.152648 
L 33.720683 -11.151792 
L 34.556388 -12.187419 
L 35.392092 -13.285848 
L 36.227797 -14.466956 
L 37.063502 -15.719892 
L 37.899206 -17.009076 
L 38.734911 -18.307168 
L 39.570616 -19.626931 
L 40.40632 -21.022399 
L 41.242025 -22.553595 
L 42.07773 -24.24002 
L 42.913434 -26.040631 
L 43.749139 -27.880512 
L 44.584843 -29.707878 
L 45.420548 -31.535176 
L 46.256253 -33.423795 
L 47.091957 -35.419799 
L 47.927662 -37.497453 
L 48.763367 -39.562094 
L 49.599071 -41.505073 
L 50.434776 -43.255941 
L 51.270481 -44.790943 
L 52.106185 -46.110184 
L 52.94189 -47.224479 
L 53.777595 -48.166414 
L 54.613299 -48.997432 
L 55.449004 -49.781399 
L 56.284709 -50.53659 
L 57.120413 -51.209088 
L 57.956118 -51.694206 
L 58.791823 -51.889091 
L 59.627527 -51.736679 
L 60.463232 -51.239043 
L 61.298937 -50.449576 
L 62.134641 -49.458125 
L 62.970346 -48.364249 
L 63.806051 -47.234419 
L 64.641755 -46.070409 
L 65.47746 -44.825766 
L 66.313165 -43.460983 
L 67.148869 -41.981337 
L 67.984574 -40.423377 
L 68.820279 -38.816996 
L 69.655983 -37.167679 
L 70.491688 -35.468226 
L 71.327393 -33.718877 
L 72.163097 -31.935793 
L 72.998802 -30.14074 
L 73.834507 -28.338499 
L 74.670211 -26.50377 
L 75.505916 -24.600032 
L 76.34162 -22.624137 
L 77.177325 -20.636252 
L 78.01303 -18.739766 
L 78.848734 -17.023703 
L 79.684439 -15.517928 
L 80.520144 -14.19464 
L 81.355848 -13.002127 
L 82.191553 -11.895658 
L 83.027258 -10.84967 
L 83.862962 -9.858822 
L 84.698667 -8.936186 
L 85.534372 -8.106688 
L 86.370076 -7.393322 
L 87.205781 -6.801862 
L 88.041486 -6.313864 
L 88.87719 -5.892649 
L 89.712895 -5.498696 
L 90.5486 -5.105941 
L 91.384304 -4.710469 
L 91.384304 -2.470909 
L 91.384304 -2.470909 
L 90.5486 -2.470909 
L 89.712895 -2.470909 
L 88.87719 -2.470909 
L 88.041486 -2.470909 
L 87.205781 -2.470909 
L 86.370076 -2.470909 
L 85.534372 -2.470909 
L 84.698667 -2.470909 
L 83.862962 -2.470909 
L 83.027258 -2.470909 
L 82.191553 -2.470909 
L 81.355848 -2.470909 
L 80.520144 -2.470909 
L 79.684439 -2.470909 
L 78.848734 -2.470909 
L 78.01303 -2.470909 
L 77.177325 -2.470909 
L 76.34162 -2.470909 
L 75.505916 -2.470909 
L 74.670211 -2.470909 
L 73.834507 -2.470909 
L 72.998802 -2.470909 
L 72.163097 -2.470909 
L 71.327393 -2.470909 
L 70.491688 -2.470909 
L 69.655983 -2.470909 
L 68.820279 -2.470909 
L 67.984574 -2.470909 
L 67.148869 -2.470909 
L 66.313165 -2.470909 
L 65.47746 -2.470909 
L 64.641755 -2.470909 
L 63.806051 -2.470909 
L 62.970346 -2.470909 
L 62.134641 -2.470909 
L 61.298937 -2.470909 
L 60.463232 -2.470909 
L 59.627527 -2.470909 
L 58.791823 -2.470909 
L 57.956118 -2.470909 
L 57.120413 -2.470909 
L 56.284709 -2.470909 
L 55.449004 -2.470909 
L 54.613299 -2.470909 
L 53.777595 -2.470909 
L 52.94189 -2.470909 
L 52.106185 -2.470909 
L 51.270481 -2.470909 
L 50.434776 -2.470909 
L 49.599071 -2.470909 
L 48.763367 -2.470909 
L 47.927662 -2.470909 
L 47.091957 -2.470909 
L 46.256253 -2.470909 
L 45.420548 -2.470909 
L 44.584843 -2.470909 
L 43.749139 -2.470909 
L 42.913434 -2.470909 
L 42.07773 -2.470909 
L 41.242025 -2.470909 
L 40.40632 -2.470909 
L 39.570616 -2.470909 
L 38.734911 -2.470909 
L 37.899206 -2.470909 
L 37.063502 -2.470909 
L 36.227797 -2.470909 
L 35.392092 -2.470909 
L 34.556388 -2.470909 
L 33.720683 -2.470909 
L 32.884978 -2.470909 
L 32.049274 -2.470909 
L 31.213569 -2.470909 
L 30.377864 -2.470909 
L 29.54216 -2.470909 
L 28.706455 -2.470909 
L 27.87075 -2.470909 
L 27.035046 -2.470909 
L 26.199341 -2.470909 
L 25.363636 -2.470909 
z
" style="stroke: #8a8a8a; stroke-opacity: 0.2"/>
    </defs>
    <g clip-path="url(#p6149fd2f78)">
     <use xlink:href="#m7b828aad63" x="0" y="54.36" style="fill: #8a8a8a; fill-opacity: 0.2; stroke: #8a8a8a; stroke-opacity: 0.2"/>
    </g>
   </g>
   <g id="line2d_1">
    <path d="M 240.139733 50.088732 
L 246.825371 49.332764 
L 251.003894 48.666353 
L 256.018122 47.62407 
L 263.539464 45.767767 
L 269.389396 44.133426 
L 273.56792 42.738753 
L 276.075034 41.718015 
L 278.582148 40.494118 
L 281.089262 39.047841 
L 284.43208 36.852133 
L 290.282013 32.934696 
L 294.460536 30.470125 
L 301.146173 26.887583 
L 308.667515 23.07543 
L 313.681743 20.772635 
L 317.024562 19.461681 
L 321.203085 18.11007 
L 328.724427 15.767747 
L 333.738655 14.172502 
L 336.245769 13.648316 
L 338.752883 13.389915 
L 343.767111 13.269041 
L 347.10993 13.05994 
L 352.124158 12.685231 
L 353.795567 12.733947 
L 355.466976 12.942642 
L 357.138386 13.328803 
L 358.809795 13.888404 
L 361.316909 15.00392 
L 364.659727 16.846442 
L 368.838251 19.463888 
L 381.373821 27.607239 
L 384.716639 29.375063 
L 389.730867 31.729857 
L 396.416504 34.848442 
L 401.430732 37.448283 
L 406.44496 40.032532 
L 409.787779 41.496904 
L 413.130598 42.717125 
L 429.008986 47.927352 
L 432.351805 48.575937 
L 435.694623 48.963409 
L 446.558784 49.818458 
L 446.558784 49.818458 
" clip-path="url(#p6149fd2f78)" style="fill: none; stroke: #cf1313; stroke-width: 1.5; stroke-linecap: square"/>
   </g>
   <g id="line2d_2">
    <path d="M 331.231541 50.226536 
L 336.245769 49.613458 
L 342.095702 48.649901 
L 347.10993 47.624658 
L 352.124158 46.364786 
L 364.659727 42.847993 
L 368.002546 41.578195 
L 371.345365 40.009755 
L 377.195297 36.876157 
L 383.04523 33.858915 
L 388.059458 31.205654 
L 392.237981 28.666919 
L 398.087914 25.067016 
L 401.430732 23.310688 
L 411.459188 18.403087 
L 418.144826 14.825573 
L 420.651939 13.806676 
L 423.159053 13.087665 
L 425.666167 12.647462 
L 428.173281 12.420026 
L 431.5161 12.34149 
L 435.694623 12.4973 
L 439.873147 12.877112 
L 443.215965 13.368542 
L 445.723079 13.908941 
L 448.230193 14.649875 
L 450.737307 15.616152 
L 453.244421 16.800538 
L 456.58724 18.662631 
L 460.765763 21.298491 
L 471.629924 28.325181 
L 477.479856 31.782995 
L 480.822675 33.540549 
L 485.836903 35.867215 
L 491.686835 38.623743 
L 498.372473 41.803185 
L 501.715291 43.114722 
L 505.05811 44.174123 
L 510.908043 45.693233 
L 523.443612 48.760684 
L 527.622136 49.454683 
L 532.636364 50.094059 
L 532.636364 50.094059 
" clip-path="url(#p6149fd2f78)" style="fill: none; stroke: #116dc2; stroke-width: 1.5; stroke-linecap: square"/>
   </g>
   <g id="line2d_3">
    <path d="M 25.363636 50.151942 
L 26.199341 49.744603 
L 27.035046 49.261651 
L 27.87075 48.735984 
L 28.706455 48.179406 
L 29.54216 47.572254 
L 30.377864 46.878168 
L 31.213569 46.074451 
L 32.049274 45.172296 
L 32.884978 44.207352 
L 33.720683 43.208208 
L 34.556388 42.172581 
L 35.392092 41.074152 
L 36.227797 39.893044 
L 37.063502 38.640108 
L 37.899206 37.350924 
L 38.734911 36.052832 
L 39.570616 34.733069 
L 40.40632 33.337601 
L 41.242025 31.806405 
L 42.07773 30.11998 
L 42.913434 28.319369 
L 43.749139 26.479488 
L 44.584843 24.652122 
L 45.420548 22.824824 
L 46.256253 20.936205 
L 47.091957 18.940201 
L 47.927662 16.862547 
L 48.763367 14.797906 
L 49.599071 12.854927 
L 50.434776 11.104059 
L 51.270481 9.569057 
L 52.106185 8.249816 
L 52.94189 7.135521 
L 53.777595 6.193586 
L 54.613299 5.362568 
L 55.449004 4.578601 
L 56.284709 3.82341 
L 57.120413 3.150912 
L 57.956118 2.665794 
L 58.791823 2.470909 
L 59.627527 2.623321 
L 60.463232 3.120957 
L 61.298937 3.910424 
L 62.134641 4.901875 
L 62.970346 5.995751 
L 63.806051 7.125581 
L 64.641755 8.289591 
L 65.47746 9.534234 
L 66.313165 10.899017 
L 67.148869 12.378663 
L 67.984574 13.936623 
L 68.820279 15.543004 
L 69.655983 17.192321 
L 70.491688 18.891774 
L 71.327393 20.641123 
L 72.163097 22.424207 
L 72.998802 24.21926 
L 73.834507 26.021501 
L 74.670211 27.85623 
L 75.505916 29.759968 
L 76.34162 31.735863 
L 77.177325 33.723748 
L 78.01303 35.620234 
L 78.848734 37.336297 
L 79.684439 38.842072 
L 80.520144 40.16536 
L 81.355848 41.357873 
L 82.191553 42.464342 
L 83.027258 43.51033 
L 83.862962 44.501178 
L 84.698667 45.423814 
L 85.534372 46.253312 
L 86.370076 46.966678 
L 87.205781 47.558138 
L 88.041486 48.046136 
L 88.87719 48.467351 
L 89.712895 48.861304 
L 90.5486 49.254059 
L 91.384304 49.649531 
" clip-path="url(#p6149fd2f78)" style="fill: none; stroke: #8a8a8a; stroke-width: 1.5; stroke-linecap: square"/>
   </g>
  </g>
 </g>
 <defs>
  <clipPath id="p6149fd2f78">
   <rect x="0" y="-0" width="558" height="54.36"/>
  </clipPath>
 </defs>
</svg>
