<?xml version="1.0" encoding="utf-8" standalone="no"?>
<!DOCTYPE svg PUBLIC "-//W3C//DTD SVG 1.1//EN"
  "http://www.w3.org/Graphics/SVG/1.1/DTD/svg11.dtd">
<svg xmlns:xlink="http://www.w3.org/1999/xlink" width="558pt" height="54.36pt" viewBox="0 0 558 54.36" xmlns="http://www.w3.org/2000/svg" version="1.1">
 <metadata>
  <rdf:RDF xmlns:dc="http://purl.org/dc/elements/1.1/" xmlns:cc="http://creativecommons.org/ns#" xmlns:rdf="http://www.w3.org/1999/02/22-rdf-syntax-ns#">
   <cc:Work>
    <dc:type rdf:resource="http://purl.org/dc/dcmitype/StillImage"/>
    <dc:date>2024-09-15T09:31:38.508195</dc:date>
    <dc:format>image/svg+xml</dc:format>
    <dc:creator>
     <cc:Agent>
      <dc:title>Matplotlib v3.5.2, https://matplotlib.org/</dc:title>
     </cc:Agent>
    </dc:creator>
   </cc:Work>
  </rdf:RDF>
 </metadata>
 <defs>
  <style type="text/css">*{stroke-linejoin: round; stroke-linecap: butt}</style>
 </defs>
 <g id="figure_1">
  <g id="patch_1">
   <path d="M 0 54.36 
L 558 54.36 
L 558 0 
L 0 0 
L 0 54.36 
z
" style="fill: none; opacity: 0"/>
  </g>
  <g id="axes_1">
   <g id="PolyCollection_1">
    <defs>
     <path id="m2af85d863e" d="M 238.686936 -2.470909 
L 238.686936 -4.015591 
L 239.526791 -4.077874 
L 240.366647 -4.142237 
L 241.206502 -4.209481 
L 242.046358 -4.280443 
L 242.886213 -4.355948 
L 243.726069 -4.436763 
L 244.565924 -4.523565 
L 245.40578 -4.616914 
L 246.245635 -4.717253 
L 247.085491 -4.824915 
L 247.925346 -4.940148 
L 248.765202 -5.063154 
L 249.605057 -5.19412 
L 250.444913 -5.33326 
L 251.284768 -5.480841 
L 252.124624 -5.637195 
L 252.964479 -5.802717 
L 253.804335 -5.977849 
L 254.64419 -6.163038 
L 255.484046 -6.358696 
L 256.323901 -6.565141 
L 257.163757 -6.782547 
L 258.003612 -7.010896 
L 258.843468 -7.249941 
L 259.683323 -7.499187 
L 260.523179 -7.757894 
L 261.363034 -8.025094 
L 262.20289 -8.299626 
L 263.042745 -8.580191 
L 263.882601 -8.865406 
L 264.722456 -9.15387 
L 265.562312 -9.444223 
L 266.402167 -9.735198 
L 267.242023 -10.025672 
L 268.081878 -10.314701 
L 268.921734 -10.601552 
L 269.761589 -10.885726 
L 270.601445 -11.166985 
L 271.4413 -11.44537 
L 272.281156 -11.72122 
L 273.121011 -11.995194 
L 273.960867 -12.268271 
L 274.800722 -12.541753 
L 275.640578 -12.817233 
L 276.480433 -13.096554 
L 277.320289 -13.381732 
L 278.160144 -13.674861 
L 279 -13.978001 
L 279.839856 -14.293055 
L 280.679711 -14.621651 
L 281.519567 -14.965042 
L 282.359422 -15.324033 
L 283.199278 -15.698941 
L 284.039133 -16.089599 
L 284.878989 -16.495396 
L 285.718844 -16.915346 
L 286.5587 -17.348176 
L 287.398555 -17.792434 
L 288.238411 -18.246574 
L 289.078266 -18.709051 
L 289.918122 -19.178378 
L 290.757977 -19.653177 
L 291.597833 -20.132201 
L 292.437688 -20.614354 
L 293.277544 -21.098686 
L 294.117399 -21.584401 
L 294.957255 -22.070848 
L 295.79711 -22.557525 
L 296.636966 -23.044073 
L 297.476821 -23.530273 
L 298.316677 -24.016039 
L 299.156532 -24.5014 
L 299.996388 -24.986478 
L 300.836243 -25.47146 
L 301.676099 -25.956567 
L 302.515954 -26.442012 
L 303.35581 -26.927966 
L 304.195665 -27.414522 
L 305.035521 -27.901652 
L 305.875376 -28.389178 
L 306.715232 -28.876741 
L 307.555087 -29.363775 
L 308.394943 -29.849496 
L 309.234798 -30.332903 
L 310.074654 -30.812795 
L 310.914509 -31.287816 
L 311.754365 -31.756507 
L 312.59422 -32.217393 
L 313.434076 -32.669068 
L 314.273931 -33.11029 
L 315.113787 -33.540065 
L 315.953642 -33.957717 
L 316.793498 -34.362922 
L 317.633353 -34.755718 
L 318.473209 -35.136473 
L 319.313064 -35.505819 
L 320.15292 -35.864561 
L 320.992775 -36.213563 
L 321.832631 -36.553634 
L 322.672486 -36.885406 
L 323.512342 -37.20925 
L 324.352197 -37.5252 
L 325.192053 -37.832933 
L 326.031908 -38.131786 
L 326.871764 -38.420814 
L 327.71162 -38.698903 
L 328.551475 -38.964902 
L 329.391331 -39.217781 
L 330.231186 -39.456788 
L 331.071042 -39.68158 
L 331.910897 -39.892317 
L 332.750753 -40.089691 
L 333.590608 -40.274888 
L 334.430464 -40.449467 
L 335.270319 -40.615184 
L 336.110175 -40.773749 
L 336.95003 -40.92657 
L 337.789886 -41.074494 
L 338.629741 -41.217593 
L 339.469597 -41.355012 
L 340.309452 -41.484912 
L 341.149308 -41.604513 
L 341.989163 -41.710246 
L 342.829019 -41.797989 
L 343.668874 -41.863382 
L 344.50873 -41.902171 
L 345.348585 -41.910564 
L 346.188441 -41.885551 
L 347.028296 -41.825161 
L 347.868152 -41.728633 
L 348.708007 -41.596484 
L 349.547863 -41.430474 
L 350.387718 -41.233461 
L 351.227574 -41.009184 
L 352.067429 -40.761968 
L 352.907285 -40.496407 
L 353.74714 -40.217029 
L 354.586996 -39.927992 
L 355.426851 -39.632825 
L 356.266707 -39.334232 
L 357.106562 -39.033977 
L 357.946418 -38.732855 
L 358.786273 -38.430737 
L 359.626129 -38.126688 
L 360.465984 -37.819129 
L 361.30584 -37.506041 
L 362.145695 -37.185174 
L 362.985551 -36.854252 
L 363.825406 -36.511154 
L 364.665262 -36.154053 
L 365.505117 -35.781518 
L 366.344973 -35.392572 
L 367.184828 -34.986706 
L 368.024684 -34.563861 
L 368.864539 -34.124388 
L 369.704395 -33.668992 
L 370.54425 -33.198674 
L 371.384106 -32.714675 
L 372.223961 -32.218431 
L 373.063817 -31.711537 
L 373.903672 -31.195713 
L 374.743528 -30.672793 
L 375.583384 -30.144696 
L 376.423239 -29.613412 
L 377.263095 -29.08098 
L 378.10295 -28.549453 
L 378.942806 -28.020872 
L 379.782661 -27.497224 
L 380.622517 -26.980404 
L 381.462372 -26.472172 
L 382.302228 -25.974117 
L 383.142083 -25.487612 
L 383.981939 -25.013779 
L 384.821794 -24.55345 
L 385.66165 -24.107131 
L 386.501505 -23.674977 
L 387.341361 -23.256757 
L 388.181216 -22.851849 
L 389.021072 -22.459235 
L 389.860927 -22.077518 
L 390.700783 -21.704961 
L 391.540638 -21.339547 
L 392.380494 -20.979052 
L 393.220349 -20.621142 
L 394.060205 -20.263478 
L 394.90006 -19.903818 
L 395.739916 -19.540123 
L 396.579771 -19.170653 
L 397.419627 -18.794038 
L 398.259482 -18.409344 
L 399.099338 -18.016106 
L 399.939193 -17.614342 
L 400.779049 -17.204549 
L 401.618904 -16.787673 
L 402.45876 -16.365064 
L 403.298615 -15.938407 
L 404.138471 -15.509652 
L 404.978326 -15.080917 
L 405.818182 -14.654398 
L 406.658037 -14.232271 
L 407.497893 -13.816592 
L 408.337748 -13.409209 
L 409.177604 -13.011689 
L 410.017459 -12.625253 
L 410.857315 -12.250744 
L 411.69717 -11.88861 
L 412.537026 -11.538917 
L 413.376881 -11.201387 
L 414.216737 -10.875459 
L 415.056592 -10.560365 
L 415.896448 -10.255227 
L 416.736303 -9.959147 
L 417.576159 -9.671305 
L 418.416014 -9.391039 
L 419.25587 -9.117907 
L 420.095725 -8.851727 
L 420.935581 -8.592587 
L 421.775436 -8.340826 
L 422.615292 -8.096988 
L 423.455148 -7.861757 
L 424.295003 -7.635872 
L 425.134859 -7.420037 
L 425.974714 -7.214839 
L 426.81457 -7.020663 
L 427.654425 -6.837639 
L 428.494281 -6.665602 
L 429.334136 -6.504081 
L 430.173992 -6.352309 
L 431.013847 -6.209261 
L 431.853703 -6.073714 
L 432.693558 -5.94431 
L 433.533414 -5.819645 
L 434.373269 -5.698348 
L 435.213125 -5.579163 
L 436.05298 -5.461019 
L 436.892836 -5.343098 
L 437.732691 -5.224866 
L 438.572547 -5.106107 
L 439.412402 -4.986917 
L 440.252258 -4.867687 
L 441.092113 -4.749061 
L 441.931969 -4.631878 
L 442.771824 -4.517106 
L 443.61168 -4.405756 
L 444.451535 -4.298815 
L 445.291391 -4.197161 
L 446.131246 -4.10151 
L 446.131246 -2.470909 
L 446.131246 -2.470909 
L 445.291391 -2.470909 
L 444.451535 -2.470909 
L 443.61168 -2.470909 
L 442.771824 -2.470909 
L 441.931969 -2.470909 
L 441.092113 -2.470909 
L 440.252258 -2.470909 
L 439.412402 -2.470909 
L 438.572547 -2.470909 
L 437.732691 -2.470909 
L 436.892836 -2.470909 
L 436.05298 -2.470909 
L 435.213125 -2.470909 
L 434.373269 -2.470909 
L 433.533414 -2.470909 
L 432.693558 -2.470909 
L 431.853703 -2.470909 
L 431.013847 -2.470909 
L 430.173992 -2.470909 
L 429.334136 -2.470909 
L 428.494281 -2.470909 
L 427.654425 -2.470909 
L 426.81457 -2.470909 
L 425.974714 -2.470909 
L 425.134859 -2.470909 
L 424.295003 -2.470909 
L 423.455148 -2.470909 
L 422.615292 -2.470909 
L 421.775436 -2.470909 
L 420.935581 -2.470909 
L 420.095725 -2.470909 
L 419.25587 -2.470909 
L 418.416014 -2.470909 
L 417.576159 -2.470909 
L 416.736303 -2.470909 
L 415.896448 -2.470909 
L 415.056592 -2.470909 
L 414.216737 -2.470909 
L 413.376881 -2.470909 
L 412.537026 -2.470909 
L 411.69717 -2.470909 
L 410.857315 -2.470909 
L 410.017459 -2.470909 
L 409.177604 -2.470909 
L 408.337748 -2.470909 
L 407.497893 -2.470909 
L 406.658037 -2.470909 
L 405.818182 -2.470909 
L 404.978326 -2.470909 
L 404.138471 -2.470909 
L 403.298615 -2.470909 
L 402.45876 -2.470909 
L 401.618904 -2.470909 
L 400.779049 -2.470909 
L 399.939193 -2.470909 
L 399.099338 -2.470909 
L 398.259482 -2.470909 
L 397.419627 -2.470909 
L 396.579771 -2.470909 
L 395.739916 -2.470909 
L 394.90006 -2.470909 
L 394.060205 -2.470909 
L 393.220349 -2.470909 
L 392.380494 -2.470909 
L 391.540638 -2.470909 
L 390.700783 -2.470909 
L 389.860927 -2.470909 
L 389.021072 -2.470909 
L 388.181216 -2.470909 
L 387.341361 -2.470909 
L 386.501505 -2.470909 
L 385.66165 -2.470909 
L 384.821794 -2.470909 
L 383.981939 -2.470909 
L 383.142083 -2.470909 
L 382.302228 -2.470909 
L 381.462372 -2.470909 
L 380.622517 -2.470909 
L 379.782661 -2.470909 
L 378.942806 -2.470909 
L 378.10295 -2.470909 
L 377.263095 -2.470909 
L 376.423239 -2.470909 
L 375.583384 -2.470909 
L 374.743528 -2.470909 
L 373.903672 -2.470909 
L 373.063817 -2.470909 
L 372.223961 -2.470909 
L 371.384106 -2.470909 
L 370.54425 -2.470909 
L 369.704395 -2.470909 
L 368.864539 -2.470909 
L 368.024684 -2.470909 
L 367.184828 -2.470909 
L 366.344973 -2.470909 
L 365.505117 -2.470909 
L 364.665262 -2.470909 
L 363.825406 -2.470909 
L 362.985551 -2.470909 
L 362.145695 -2.470909 
L 361.30584 -2.470909 
L 360.465984 -2.470909 
L 359.626129 -2.470909 
L 358.786273 -2.470909 
L 357.946418 -2.470909 
L 357.106562 -2.470909 
L 356.266707 -2.470909 
L 355.426851 -2.470909 
L 354.586996 -2.470909 
L 353.74714 -2.470909 
L 352.907285 -2.470909 
L 352.067429 -2.470909 
L 351.227574 -2.470909 
L 350.387718 -2.470909 
L 349.547863 -2.470909 
L 348.708007 -2.470909 
L 347.868152 -2.470909 
L 347.028296 -2.470909 
L 346.188441 -2.470909 
L 345.348585 -2.470909 
L 344.50873 -2.470909 
L 343.668874 -2.470909 
L 342.829019 -2.470909 
L 341.989163 -2.470909 
L 341.149308 -2.470909 
L 340.309452 -2.470909 
L 339.469597 -2.470909 
L 338.629741 -2.470909 
L 337.789886 -2.470909 
L 336.95003 -2.470909 
L 336.110175 -2.470909 
L 335.270319 -2.470909 
L 334.430464 -2.470909 
L 333.590608 -2.470909 
L 332.750753 -2.470909 
L 331.910897 -2.470909 
L 331.071042 -2.470909 
L 330.231186 -2.470909 
L 329.391331 -2.470909 
L 328.551475 -2.470909 
L 327.71162 -2.470909 
L 326.871764 -2.470909 
L 326.031908 -2.470909 
L 325.192053 -2.470909 
L 324.352197 -2.470909 
L 323.512342 -2.470909 
L 322.672486 -2.470909 
L 321.832631 -2.470909 
L 320.992775 -2.470909 
L 320.15292 -2.470909 
L 319.313064 -2.470909 
L 318.473209 -2.470909 
L 317.633353 -2.470909 
L 316.793498 -2.470909 
L 315.953642 -2.470909 
L 315.113787 -2.470909 
L 314.273931 -2.470909 
L 313.434076 -2.470909 
L 312.59422 -2.470909 
L 311.754365 -2.470909 
L 310.914509 -2.470909 
L 310.074654 -2.470909 
L 309.234798 -2.470909 
L 308.394943 -2.470909 
L 307.555087 -2.470909 
L 306.715232 -2.470909 
L 305.875376 -2.470909 
L 305.035521 -2.470909 
L 304.195665 -2.470909 
L 303.35581 -2.470909 
L 302.515954 -2.470909 
L 301.676099 -2.470909 
L 300.836243 -2.470909 
L 299.996388 -2.470909 
L 299.156532 -2.470909 
L 298.316677 -2.470909 
L 297.476821 -2.470909 
L 296.636966 -2.470909 
L 295.79711 -2.470909 
L 294.957255 -2.470909 
L 294.117399 -2.470909 
L 293.277544 -2.470909 
L 292.437688 -2.470909 
L 291.597833 -2.470909 
L 290.757977 -2.470909 
L 289.918122 -2.470909 
L 289.078266 -2.470909 
L 288.238411 -2.470909 
L 287.398555 -2.470909 
L 286.5587 -2.470909 
L 285.718844 -2.470909 
L 284.878989 -2.470909 
L 284.039133 -2.470909 
L 283.199278 -2.470909 
L 282.359422 -2.470909 
L 281.519567 -2.470909 
L 280.679711 -2.470909 
L 279.839856 -2.470909 
L 279 -2.470909 
L 278.160144 -2.470909 
L 277.320289 -2.470909 
L 276.480433 -2.470909 
L 275.640578 -2.470909 
L 274.800722 -2.470909 
L 273.960867 -2.470909 
L 273.121011 -2.470909 
L 272.281156 -2.470909 
L 271.4413 -2.470909 
L 270.601445 -2.470909 
L 269.761589 -2.470909 
L 268.921734 -2.470909 
L 268.081878 -2.470909 
L 267.242023 -2.470909 
L 266.402167 -2.470909 
L 265.562312 -2.470909 
L 264.722456 -2.470909 
L 263.882601 -2.470909 
L 263.042745 -2.470909 
L 262.20289 -2.470909 
L 261.363034 -2.470909 
L 260.523179 -2.470909 
L 259.683323 -2.470909 
L 258.843468 -2.470909 
L 258.003612 -2.470909 
L 257.163757 -2.470909 
L 256.323901 -2.470909 
L 255.484046 -2.470909 
L 254.64419 -2.470909 
L 253.804335 -2.470909 
L 252.964479 -2.470909 
L 252.124624 -2.470909 
L 251.284768 -2.470909 
L 250.444913 -2.470909 
L 249.605057 -2.470909 
L 248.765202 -2.470909 
L 247.925346 -2.470909 
L 247.085491 -2.470909 
L 246.245635 -2.470909 
L 245.40578 -2.470909 
L 244.565924 -2.470909 
L 243.726069 -2.470909 
L 242.886213 -2.470909 
L 242.046358 -2.470909 
L 241.206502 -2.470909 
L 240.366647 -2.470909 
L 239.526791 -2.470909 
L 238.686936 -2.470909 
z
" style="stroke: #cf1313; stroke-opacity: 0.2"/>
    </defs>
    <g clip-path="url(#p1529441411)">
     <use xlink:href="#m2af85d863e" x="0" y="54.36" style="fill: #cf1313; fill-opacity: 0.2; stroke: #cf1313; stroke-opacity: 0.2"/>
    </g>
   </g>
   <g id="PolyCollection_2">
    <defs>
     <path id="ma05d0d9de3" d="M 330.231186 -2.470909 
L 330.231186 -4.254719 
L 331.071042 -4.373775 
L 331.910897 -4.49423 
L 332.750753 -4.615421 
L 333.590608 -4.736758 
L 334.430464 -4.857756 
L 335.270319 -4.978071 
L 336.110175 -5.097526 
L 336.95003 -5.21613 
L 337.789886 -5.334088 
L 338.629741 -5.4518 
L 339.469597 -5.569854 
L 340.309452 -5.689014 
L 341.149308 -5.8102 
L 341.989163 -5.934469 
L 342.829019 -6.062992 
L 343.668874 -6.197038 
L 344.50873 -6.337948 
L 345.348585 -6.487122 
L 346.188441 -6.645988 
L 347.028296 -6.815977 
L 347.868152 -6.99849 
L 348.708007 -7.194851 
L 349.547863 -7.406252 
L 350.387718 -7.633697 
L 351.227574 -7.877932 
L 352.067429 -8.139381 
L 352.907285 -8.418085 
L 353.74714 -8.713661 
L 354.586996 -9.025277 
L 355.426851 -9.351654 
L 356.266707 -9.691102 
L 357.106562 -10.041583 
L 357.946418 -10.40081 
L 358.786273 -10.766354 
L 359.626129 -11.135778 
L 360.465984 -11.506764 
L 361.30584 -11.877228 
L 362.145695 -12.245427 
L 362.985551 -12.610019 
L 363.825406 -12.970109 
L 364.665262 -13.325252 
L 365.505117 -13.675426 
L 366.344973 -14.020982 
L 367.184828 -14.362585 
L 368.024684 -14.701135 
L 368.864539 -15.037699 
L 369.704395 -15.373441 
L 370.54425 -15.709568 
L 371.384106 -16.047284 
L 372.223961 -16.387755 
L 373.063817 -16.732088 
L 373.903672 -17.08131 
L 374.743528 -17.436367 
L 375.583384 -17.798118 
L 376.423239 -18.167345 
L 377.263095 -18.54476 
L 378.10295 -18.931028 
L 378.942806 -19.326784 
L 379.782661 -19.732655 
L 380.622517 -20.14928 
L 381.462372 -20.577316 
L 382.302228 -21.017441 
L 383.142083 -21.470334 
L 383.981939 -21.936645 
L 384.821794 -22.416952 
L 385.66165 -22.911703 
L 386.501505 -23.421158 
L 387.341361 -23.945336 
L 388.181216 -24.483965 
L 389.021072 -25.036447 
L 389.860927 -25.60184 
L 390.700783 -26.178853 
L 391.540638 -26.765858 
L 392.380494 -27.360911 
L 393.220349 -27.961785 
L 394.060205 -28.565999 
L 394.90006 -29.170862 
L 395.739916 -29.773513 
L 396.579771 -30.370968 
L 397.419627 -30.960176 
L 398.259482 -31.538078 
L 399.099338 -32.101686 
L 399.939193 -32.648164 
L 400.779049 -33.174919 
L 401.618904 -33.679702 
L 402.45876 -34.160698 
L 403.298615 -34.616612 
L 404.138471 -35.04674 
L 404.978326 -35.451013 
L 405.818182 -35.830015 
L 406.658037 -36.184966 
L 407.497893 -36.517671 
L 408.337748 -36.830436 
L 409.177604 -37.125944 
L 410.017459 -37.407117 
L 410.857315 -37.676948 
L 411.69717 -37.938329 
L 412.537026 -38.193887 
L 413.376881 -38.445827 
L 414.216737 -38.695812 
L 415.056592 -38.944872 
L 415.896448 -39.193362 
L 416.736303 -39.440963 
L 417.576159 -39.686724 
L 418.416014 -39.929144 
L 419.25587 -40.166278 
L 420.095725 -40.395863 
L 420.935581 -40.615443 
L 421.775436 -40.822494 
L 422.615292 -41.014544 
L 423.455148 -41.189268 
L 424.295003 -41.344579 
L 425.134859 -41.478696 
L 425.974714 -41.590202 
L 426.81457 -41.678085 
L 427.654425 -41.741755 
L 428.494281 -41.781053 
L 429.334136 -41.796226 
L 430.173992 -41.787884 
L 431.013847 -41.756929 
L 431.853703 -41.704467 
L 432.693558 -41.63171 
L 433.533414 -41.539873 
L 434.373269 -41.430088 
L 435.213125 -41.303339 
L 436.05298 -41.160435 
L 436.892836 -41.002015 
L 437.732691 -40.8286 
L 438.572547 -40.64067 
L 439.412402 -40.438763 
L 440.252258 -40.223582 
L 441.092113 -39.996086 
L 441.931969 -39.757557 
L 442.771824 -39.509621 
L 443.61168 -39.254226 
L 444.451535 -38.993563 
L 445.291391 -38.729941 
L 446.131246 -38.46562 
L 446.971102 -38.202619 
L 447.810957 -37.942522 
L 448.650813 -37.686293 
L 449.490668 -37.434132 
L 450.330524 -37.185382 
L 451.170379 -36.938514 
L 452.010235 -36.69118 
L 452.85009 -36.440358 
L 453.689946 -36.182556 
L 454.529801 -35.914075 
L 455.369657 -35.6313 
L 456.209512 -35.330987 
L 457.049368 -35.010532 
L 457.889223 -34.668174 
L 458.729079 -34.303134 
L 459.568934 -33.915657 
L 460.40879 -33.506981 
L 461.248645 -33.079212 
L 462.088501 -32.635143 
L 462.928356 -32.178023 
L 463.768212 -31.711306 
L 464.608067 -31.238407 
L 465.447923 -30.762471 
L 466.287778 -30.286187 
L 467.127634 -29.811646 
L 467.967489 -29.340257 
L 468.807345 -28.872714 
L 469.6472 -28.409014 
L 470.487056 -27.94852 
L 471.326911 -27.49006 
L 472.166767 -27.032052 
L 473.006623 -26.57265 
L 473.846478 -26.109897 
L 474.686334 -25.641883 
L 475.526189 -25.166893 
L 476.366045 -24.683544 
L 477.2059 -24.190898 
L 478.045756 -23.688546 
L 478.885611 -23.176661 
L 479.725467 -22.656007 
L 480.565322 -22.127909 
L 481.405178 -21.594184 
L 482.245033 -21.057035 
L 483.084889 -20.518919 
L 483.924744 -19.9824 
L 484.7646 -19.449995 
L 485.604455 -18.924044 
L 486.444311 -18.406592 
L 487.284166 -17.899315 
L 488.124022 -17.403486 
L 488.963877 -16.919981 
L 489.803733 -16.449323 
L 490.643588 -15.991757 
L 491.483444 -15.547332 
L 492.323299 -15.115993 
L 493.163155 -14.697653 
L 494.00301 -14.292246 
L 494.842866 -13.899748 
L 495.682721 -13.520166 
L 496.522577 -13.153504 
L 497.362432 -12.799706 
L 498.202288 -12.458602 
L 499.042143 -12.129845 
L 499.881999 -11.812884 
L 500.721854 -11.506949 
L 501.56171 -11.211073 
L 502.401565 -10.924144 
L 503.241421 -10.644975 
L 504.081276 -10.372398 
L 504.921132 -10.105355 
L 505.760987 -9.842984 
L 506.600843 -9.584692 
L 507.440698 -9.330192 
L 508.280554 -9.079528 
L 509.120409 -8.833059 
L 509.960265 -8.591418 
L 510.80012 -8.355452 
L 511.639976 -8.126145 
L 512.479831 -7.904532 
L 513.319687 -7.691601 
L 514.159542 -7.488212 
L 514.999398 -7.295011 
L 515.839253 -7.11236 
L 516.679109 -6.940293 
L 517.518964 -6.778478 
L 518.35882 -6.626223 
L 519.198675 -6.482492 
L 520.038531 -6.34596 
L 520.878387 -6.21509 
L 521.718242 -6.088227 
L 522.558098 -5.963712 
L 523.397953 -5.839991 
L 524.237809 -5.715723 
L 525.077664 -5.589868 
L 525.91752 -5.461751 
L 526.757375 -5.331094 
L 527.597231 -5.198017 
L 528.437086 -5.063 
L 529.276942 -4.926829 
L 530.116797 -4.790513 
L 530.956653 -4.655195 
L 531.796508 -4.522059 
L 532.636364 -4.392248 
L 532.636364 -2.470909 
L 532.636364 -2.470909 
L 531.796508 -2.470909 
L 530.956653 -2.470909 
L 530.116797 -2.470909 
L 529.276942 -2.470909 
L 528.437086 -2.470909 
L 527.597231 -2.470909 
L 526.757375 -2.470909 
L 525.91752 -2.470909 
L 525.077664 -2.470909 
L 524.237809 -2.470909 
L 523.397953 -2.470909 
L 522.558098 -2.470909 
L 521.718242 -2.470909 
L 520.878387 -2.470909 
L 520.038531 -2.470909 
L 519.198675 -2.470909 
L 518.35882 -2.470909 
L 517.518964 -2.470909 
L 516.679109 -2.470909 
L 515.839253 -2.470909 
L 514.999398 -2.470909 
L 514.159542 -2.470909 
L 513.319687 -2.470909 
L 512.479831 -2.470909 
L 511.639976 -2.470909 
L 510.80012 -2.470909 
L 509.960265 -2.470909 
L 509.120409 -2.470909 
L 508.280554 -2.470909 
L 507.440698 -2.470909 
L 506.600843 -2.470909 
L 505.760987 -2.470909 
L 504.921132 -2.470909 
L 504.081276 -2.470909 
L 503.241421 -2.470909 
L 502.401565 -2.470909 
L 501.56171 -2.470909 
L 500.721854 -2.470909 
L 499.881999 -2.470909 
L 499.042143 -2.470909 
L 498.202288 -2.470909 
L 497.362432 -2.470909 
L 496.522577 -2.470909 
L 495.682721 -2.470909 
L 494.842866 -2.470909 
L 494.00301 -2.470909 
L 493.163155 -2.470909 
L 492.323299 -2.470909 
L 491.483444 -2.470909 
L 490.643588 -2.470909 
L 489.803733 -2.470909 
L 488.963877 -2.470909 
L 488.124022 -2.470909 
L 487.284166 -2.470909 
L 486.444311 -2.470909 
L 485.604455 -2.470909 
L 484.7646 -2.470909 
L 483.924744 -2.470909 
L 483.084889 -2.470909 
L 482.245033 -2.470909 
L 481.405178 -2.470909 
L 480.565322 -2.470909 
L 479.725467 -2.470909 
L 478.885611 -2.470909 
L 478.045756 -2.470909 
L 477.2059 -2.470909 
L 476.366045 -2.470909 
L 475.526189 -2.470909 
L 474.686334 -2.470909 
L 473.846478 -2.470909 
L 473.006623 -2.470909 
L 472.166767 -2.470909 
L 471.326911 -2.470909 
L 470.487056 -2.470909 
L 469.6472 -2.470909 
L 468.807345 -2.470909 
L 467.967489 -2.470909 
L 467.127634 -2.470909 
L 466.287778 -2.470909 
L 465.447923 -2.470909 
L 464.608067 -2.470909 
L 463.768212 -2.470909 
L 462.928356 -2.470909 
L 462.088501 -2.470909 
L 461.248645 -2.470909 
L 460.40879 -2.470909 
L 459.568934 -2.470909 
L 458.729079 -2.470909 
L 457.889223 -2.470909 
L 457.049368 -2.470909 
L 456.209512 -2.470909 
L 455.369657 -2.470909 
L 454.529801 -2.470909 
L 453.689946 -2.470909 
L 452.85009 -2.470909 
L 452.010235 -2.470909 
L 451.170379 -2.470909 
L 450.330524 -2.470909 
L 449.490668 -2.470909 
L 448.650813 -2.470909 
L 447.810957 -2.470909 
L 446.971102 -2.470909 
L 446.131246 -2.470909 
L 445.291391 -2.470909 
L 444.451535 -2.470909 
L 443.61168 -2.470909 
L 442.771824 -2.470909 
L 441.931969 -2.470909 
L 441.092113 -2.470909 
L 440.252258 -2.470909 
L 439.412402 -2.470909 
L 438.572547 -2.470909 
L 437.732691 -2.470909 
L 436.892836 -2.470909 
L 436.05298 -2.470909 
L 435.213125 -2.470909 
L 434.373269 -2.470909 
L 433.533414 -2.470909 
L 432.693558 -2.470909 
L 431.853703 -2.470909 
L 431.013847 -2.470909 
L 430.173992 -2.470909 
L 429.334136 -2.470909 
L 428.494281 -2.470909 
L 427.654425 -2.470909 
L 426.81457 -2.470909 
L 425.974714 -2.470909 
L 425.134859 -2.470909 
L 424.295003 -2.470909 
L 423.455148 -2.470909 
L 422.615292 -2.470909 
L 421.775436 -2.470909 
L 420.935581 -2.470909 
L 420.095725 -2.470909 
L 419.25587 -2.470909 
L 418.416014 -2.470909 
L 417.576159 -2.470909 
L 416.736303 -2.470909 
L 415.896448 -2.470909 
L 415.056592 -2.470909 
L 414.216737 -2.470909 
L 413.376881 -2.470909 
L 412.537026 -2.470909 
L 411.69717 -2.470909 
L 410.857315 -2.470909 
L 410.017459 -2.470909 
L 409.177604 -2.470909 
L 408.337748 -2.470909 
L 407.497893 -2.470909 
L 406.658037 -2.470909 
L 405.818182 -2.470909 
L 404.978326 -2.470909 
L 404.138471 -2.470909 
L 403.298615 -2.470909 
L 402.45876 -2.470909 
L 401.618904 -2.470909 
L 400.779049 -2.470909 
L 399.939193 -2.470909 
L 399.099338 -2.470909 
L 398.259482 -2.470909 
L 397.419627 -2.470909 
L 396.579771 -2.470909 
L 395.739916 -2.470909 
L 394.90006 -2.470909 
L 394.060205 -2.470909 
L 393.220349 -2.470909 
L 392.380494 -2.470909 
L 391.540638 -2.470909 
L 390.700783 -2.470909 
L 389.860927 -2.470909 
L 389.021072 -2.470909 
L 388.181216 -2.470909 
L 387.341361 -2.470909 
L 386.501505 -2.470909 
L 385.66165 -2.470909 
L 384.821794 -2.470909 
L 383.981939 -2.470909 
L 383.142083 -2.470909 
L 382.302228 -2.470909 
L 381.462372 -2.470909 
L 380.622517 -2.470909 
L 379.782661 -2.470909 
L 378.942806 -2.470909 
L 378.10295 -2.470909 
L 377.263095 -2.470909 
L 376.423239 -2.470909 
L 375.583384 -2.470909 
L 374.743528 -2.470909 
L 373.903672 -2.470909 
L 373.063817 -2.470909 
L 372.223961 -2.470909 
L 371.384106 -2.470909 
L 370.54425 -2.470909 
L 369.704395 -2.470909 
L 368.864539 -2.470909 
L 368.024684 -2.470909 
L 367.184828 -2.470909 
L 366.344973 -2.470909 
L 365.505117 -2.470909 
L 364.665262 -2.470909 
L 363.825406 -2.470909 
L 362.985551 -2.470909 
L 362.145695 -2.470909 
L 361.30584 -2.470909 
L 360.465984 -2.470909 
L 359.626129 -2.470909 
L 358.786273 -2.470909 
L 357.946418 -2.470909 
L 357.106562 -2.470909 
L 356.266707 -2.470909 
L 355.426851 -2.470909 
L 354.586996 -2.470909 
L 353.74714 -2.470909 
L 352.907285 -2.470909 
L 352.067429 -2.470909 
L 351.227574 -2.470909 
L 350.387718 -2.470909 
L 349.547863 -2.470909 
L 348.708007 -2.470909 
L 347.868152 -2.470909 
L 347.028296 -2.470909 
L 346.188441 -2.470909 
L 345.348585 -2.470909 
L 344.50873 -2.470909 
L 343.668874 -2.470909 
L 342.829019 -2.470909 
L 341.989163 -2.470909 
L 341.149308 -2.470909 
L 340.309452 -2.470909 
L 339.469597 -2.470909 
L 338.629741 -2.470909 
L 337.789886 -2.470909 
L 336.95003 -2.470909 
L 336.110175 -2.470909 
L 335.270319 -2.470909 
L 334.430464 -2.470909 
L 333.590608 -2.470909 
L 332.750753 -2.470909 
L 331.910897 -2.470909 
L 331.071042 -2.470909 
L 330.231186 -2.470909 
z
" style="stroke: #116dc2; stroke-opacity: 0.2"/>
    </defs>
    <g clip-path="url(#p1529441411)">
     <use xlink:href="#ma05d0d9de3" x="0" y="54.36" style="fill: #116dc2; fill-opacity: 0.2; stroke: #116dc2; stroke-opacity: 0.2"/>
    </g>
   </g>
   <g id="PolyCollection_3">
    <defs>
     <path id="m1e746f837d" d="M 25.363636 -2.470909 
L 25.363636 -5.037475 
L 26.203492 -5.516091 
L 27.043347 -6.065459 
L 27.883203 -6.687591 
L 28.723058 -7.376144 
L 29.562914 -8.119019 
L 30.402769 -8.912359 
L 31.242625 -9.772893 
L 32.08248 -10.732625 
L 32.922336 -11.816288 
L 33.762191 -13.019582 
L 34.602047 -14.306688 
L 35.441902 -15.630802 
L 36.281758 -16.965774 
L 37.121613 -18.32866 
L 37.961469 -19.77499 
L 38.801325 -21.364317 
L 39.64118 -23.117259 
L 40.481036 -24.994894 
L 41.320891 -26.914404 
L 42.160747 -28.788037 
L 43.000602 -30.559833 
L 43.840458 -32.219644 
L 44.680313 -33.78868 
L 45.520169 -35.289645 
L 46.360024 -36.726081 
L 47.19988 -38.086859 
L 48.039735 -39.369463 
L 48.879591 -40.601991 
L 49.719446 -41.846935 
L 50.559302 -43.180264 
L 51.399157 -44.651556 
L 52.239013 -46.244606 
L 53.078868 -47.863666 
L 53.918724 -49.357732 
L 54.758579 -50.57244 
L 55.598435 -51.403722 
L 56.43829 -51.827174 
L 57.278146 -51.889091 
L 58.118001 -51.665916 
L 58.957857 -51.21972 
L 59.797712 -50.580328 
L 60.637568 -49.758909 
L 61.477423 -48.766559 
L 62.317279 -47.614762 
L 63.157134 -46.310176 
L 63.99699 -44.870316 
L 64.836845 -43.35083 
L 65.676701 -41.838919 
L 66.516556 -40.394191 
L 67.356412 -38.987552 
L 68.196267 -37.509926 
L 69.036123 -35.85458 
L 69.875978 -33.995873 
L 70.715834 -31.994166 
L 71.555689 -29.940691 
L 72.395545 -27.909691 
L 73.2354 -25.952177 
L 74.075256 -24.107624 
L 74.915111 -22.402778 
L 75.754967 -20.839725 
L 76.594822 -19.392316 
L 77.434678 -18.018335 
L 78.274533 -16.680448 
L 79.114389 -15.364289 
L 79.954244 -14.082229 
L 80.7941 -12.858466 
L 81.633955 -11.706294 
L 82.473811 -10.618492 
L 83.313666 -9.581882 
L 84.153522 -8.602819 
L 84.993377 -7.716369 
L 85.833233 -6.966127 
L 86.673089 -6.371273 
L 87.512944 -5.910771 
L 88.3528 -5.537755 
L 89.192655 -5.208941 
L 90.032511 -4.902998 
L 90.872366 -4.616539 
L 90.872366 -2.470909 
L 90.872366 -2.470909 
L 90.032511 -2.470909 
L 89.192655 -2.470909 
L 88.3528 -2.470909 
L 87.512944 -2.470909 
L 86.673089 -2.470909 
L 85.833233 -2.470909 
L 84.993377 -2.470909 
L 84.153522 -2.470909 
L 83.313666 -2.470909 
L 82.473811 -2.470909 
L 81.633955 -2.470909 
L 80.7941 -2.470909 
L 79.954244 -2.470909 
L 79.114389 -2.470909 
L 78.274533 -2.470909 
L 77.434678 -2.470909 
L 76.594822 -2.470909 
L 75.754967 -2.470909 
L 74.915111 -2.470909 
L 74.075256 -2.470909 
L 73.2354 -2.470909 
L 72.395545 -2.470909 
L 71.555689 -2.470909 
L 70.715834 -2.470909 
L 69.875978 -2.470909 
L 69.036123 -2.470909 
L 68.196267 -2.470909 
L 67.356412 -2.470909 
L 66.516556 -2.470909 
L 65.676701 -2.470909 
L 64.836845 -2.470909 
L 63.99699 -2.470909 
L 63.157134 -2.470909 
L 62.317279 -2.470909 
L 61.477423 -2.470909 
L 60.637568 -2.470909 
L 59.797712 -2.470909 
L 58.957857 -2.470909 
L 58.118001 -2.470909 
L 57.278146 -2.470909 
L 56.43829 -2.470909 
L 55.598435 -2.470909 
L 54.758579 -2.470909 
L 53.918724 -2.470909 
L 53.078868 -2.470909 
L 52.239013 -2.470909 
L 51.399157 -2.470909 
L 50.559302 -2.470909 
L 49.719446 -2.470909 
L 48.879591 -2.470909 
L 48.039735 -2.470909 
L 47.19988 -2.470909 
L 46.360024 -2.470909 
L 45.520169 -2.470909 
L 44.680313 -2.470909 
L 43.840458 -2.470909 
L 43.000602 -2.470909 
L 42.160747 -2.470909 
L 41.320891 -2.470909 
L 40.481036 -2.470909 
L 39.64118 -2.470909 
L 38.801325 -2.470909 
L 37.961469 -2.470909 
L 37.121613 -2.470909 
L 36.281758 -2.470909 
L 35.441902 -2.470909 
L 34.602047 -2.470909 
L 33.762191 -2.470909 
L 32.922336 -2.470909 
L 32.08248 -2.470909 
L 31.242625 -2.470909 
L 30.402769 -2.470909 
L 29.562914 -2.470909 
L 28.723058 -2.470909 
L 27.883203 -2.470909 
L 27.043347 -2.470909 
L 26.203492 -2.470909 
L 25.363636 -2.470909 
z
" style="stroke: #8a8a8a; stroke-opacity: 0.2"/>
    </defs>
    <g clip-path="url(#p1529441411)">
     <use xlink:href="#m1e746f837d" x="0" y="54.36" style="fill: #8a8a8a; fill-opacity: 0.2; stroke: #8a8a8a; stroke-opacity: 0.2"/>
    </g>
   </g>
   <g id="line2d_1">
    <path d="M 238.686936 50.344409 
L 245.40578 49.743086 
L 249.605057 49.16588 
L 253.804335 48.382151 
L 258.003612 47.349104 
L 262.20289 46.060374 
L 279.839856 40.066945 
L 283.199278 38.661059 
L 286.5587 37.011824 
L 291.597833 34.227799 
L 315.113787 20.819935 
L 319.313064 18.854181 
L 323.512342 17.15075 
L 327.71162 15.661097 
L 331.071042 14.67842 
L 334.430464 13.910533 
L 339.469597 13.004988 
L 342.829019 12.562011 
L 345.348585 12.449436 
L 347.868152 12.631367 
L 350.387718 13.126539 
L 352.907285 13.863593 
L 358.786273 15.929263 
L 363.825406 17.848846 
L 367.184828 19.373294 
L 370.54425 21.161326 
L 374.743528 23.687207 
L 383.142083 28.872388 
L 386.501505 30.685023 
L 390.700783 32.655039 
L 400.779049 37.155451 
L 411.69717 42.47139 
L 415.896448 44.104773 
L 420.935581 45.767413 
L 425.134859 46.939963 
L 429.334136 47.855919 
L 434.373269 48.661652 
L 446.131246 50.25849 
L 446.131246 50.25849 
" clip-path="url(#p1529441411)" style="fill: none; stroke: #cf1313; stroke-width: 1.5; stroke-linecap: square"/>
   </g>
   <g id="line2d_2">
    <path d="M 330.231186 50.105281 
L 345.348585 47.872878 
L 348.708007 47.165149 
L 352.067429 46.220619 
L 355.426851 45.008346 
L 360.465984 42.853236 
L 367.184828 39.997415 
L 377.263095 35.81524 
L 381.462372 33.782684 
L 384.821794 31.943048 
L 388.181216 29.876035 
L 392.380494 26.999089 
L 399.939193 21.711836 
L 402.45876 20.199302 
L 404.978326 18.908987 
L 407.497893 17.842329 
L 410.857315 16.683052 
L 418.416014 14.430856 
L 422.615292 13.345456 
L 425.134859 12.881304 
L 427.654425 12.618245 
L 430.173992 12.572116 
L 432.693558 12.72829 
L 436.05298 13.199565 
L 439.412402 13.921237 
L 443.61168 15.105774 
L 457.049368 19.349468 
L 459.568934 20.444343 
L 462.928356 22.181977 
L 478.045756 30.671454 
L 483.924744 34.3776 
L 488.124022 36.956514 
L 491.483444 38.812668 
L 494.842866 40.460252 
L 498.202288 41.901398 
L 502.401565 43.435856 
L 508.280554 45.280472 
L 513.319687 46.668399 
L 517.518964 47.581522 
L 522.558098 48.396288 
L 532.636364 49.967752 
L 532.636364 49.967752 
" clip-path="url(#p1529441411)" style="fill: none; stroke: #116dc2; stroke-width: 1.5; stroke-linecap: square"/>
   </g>
   <g id="line2d_3">
    <path d="M 25.363636 49.322525 
L 26.203492 48.843909 
L 27.043347 48.294541 
L 27.883203 47.672409 
L 28.723058 46.983856 
L 29.562914 46.240981 
L 30.402769 45.447641 
L 31.242625 44.587107 
L 32.08248 43.627375 
L 32.922336 42.543712 
L 33.762191 41.340418 
L 34.602047 40.053312 
L 35.441902 38.729198 
L 36.281758 37.394226 
L 37.121613 36.03134 
L 37.961469 34.58501 
L 38.801325 32.995683 
L 39.64118 31.242741 
L 40.481036 29.365106 
L 41.320891 27.445596 
L 42.160747 25.571963 
L 43.000602 23.800167 
L 43.840458 22.140356 
L 44.680313 20.57132 
L 45.520169 19.070355 
L 46.360024 17.633919 
L 47.19988 16.273141 
L 48.039735 14.990537 
L 48.879591 13.758009 
L 49.719446 12.513065 
L 50.559302 11.179736 
L 51.399157 9.708444 
L 52.239013 8.115394 
L 53.078868 6.496334 
L 53.918724 5.002268 
L 54.758579 3.78756 
L 55.598435 2.956278 
L 56.43829 2.532826 
L 57.278146 2.470909 
L 58.118001 2.694084 
L 58.957857 3.14028 
L 59.797712 3.779672 
L 60.637568 4.601091 
L 61.477423 5.593441 
L 62.317279 6.745238 
L 63.157134 8.049824 
L 63.99699 9.489684 
L 64.836845 11.00917 
L 65.676701 12.521081 
L 66.516556 13.965809 
L 67.356412 15.372448 
L 68.196267 16.850074 
L 69.036123 18.50542 
L 69.875978 20.364127 
L 70.715834 22.365834 
L 71.555689 24.419309 
L 72.395545 26.450309 
L 73.2354 28.407823 
L 74.075256 30.252376 
L 74.915111 31.957222 
L 75.754967 33.520275 
L 76.594822 34.967684 
L 77.434678 36.341665 
L 78.274533 37.679552 
L 79.114389 38.995711 
L 79.954244 40.277771 
L 80.7941 41.501534 
L 81.633955 42.653706 
L 82.473811 43.741508 
L 83.313666 44.778118 
L 84.153522 45.757181 
L 84.993377 46.643631 
L 85.833233 47.393873 
L 86.673089 47.988727 
L 87.512944 48.449229 
L 88.3528 48.822245 
L 89.192655 49.151059 
L 90.032511 49.457002 
L 90.872366 49.743461 
" clip-path="url(#p1529441411)" style="fill: none; stroke: #8a8a8a; stroke-width: 1.5; stroke-linecap: square"/>
   </g>
  </g>
 </g>
 <defs>
  <clipPath id="p1529441411">
   <rect x="0" y="-0" width="558" height="54.36"/>
  </clipPath>
 </defs>
</svg>
