<?xml version="1.0" encoding="utf-8" standalone="no"?>
<!DOCTYPE svg PUBLIC "-//W3C//DTD SVG 1.1//EN"
  "http://www.w3.org/Graphics/SVG/1.1/DTD/svg11.dtd">
<svg xmlns:xlink="http://www.w3.org/1999/xlink" width="558pt" height="54.36pt" viewBox="0 0 558 54.36" xmlns="http://www.w3.org/2000/svg" version="1.1">
 <metadata>
  <rdf:RDF xmlns:dc="http://purl.org/dc/elements/1.1/" xmlns:cc="http://creativecommons.org/ns#" xmlns:rdf="http://www.w3.org/1999/02/22-rdf-syntax-ns#">
   <cc:Work>
    <dc:type rdf:resource="http://purl.org/dc/dcmitype/StillImage"/>
    <dc:date>2024-09-15T09:31:21.968225</dc:date>
    <dc:format>image/svg+xml</dc:format>
    <dc:creator>
     <cc:Agent>
      <dc:title>Matplotlib v3.5.2, https://matplotlib.org/</dc:title>
     </cc:Agent>
    </dc:creator>
   </cc:Work>
  </rdf:RDF>
 </metadata>
 <defs>
  <style type="text/css">*{stroke-linejoin: round; stroke-linecap: butt}</style>
 </defs>
 <g id="figure_1">
  <g id="patch_1">
   <path d="M 0 54.36 
L 558 54.36 
L 558 0 
L 0 0 
L 0 54.36 
z
" style="fill: none; opacity: 0"/>
  </g>
  <g id="axes_1">
   <g id="PolyCollection_1">
    <defs>
     <path id="m4a51b19828" d="M 390.639172 -2.470909 
L 390.639172 -4.336158 
L 391.618463 -4.496478 
L 392.597754 -4.663319 
L 393.577045 -4.839323 
L 394.556336 -5.026462 
L 395.535627 -5.2265 
L 396.514918 -5.441906 
L 397.494208 -5.67663 
L 398.473499 -5.936081 
L 399.45279 -6.226054 
L 400.432081 -6.550926 
L 401.411372 -6.911921 
L 402.390663 -7.306364 
L 403.369954 -7.728459 
L 404.349245 -8.171435 
L 405.328536 -8.630308 
L 406.307827 -9.104233 
L 407.287118 -9.597579 
L 408.266409 -10.11935 
L 409.2457 -10.68108 
L 410.224991 -11.293756 
L 411.204282 -11.964529 
L 412.183573 -12.694115 
L 413.162864 -13.475675 
L 414.142155 -14.295729 
L 415.121446 -15.137013 
L 416.100737 -15.982533 
L 417.080028 -16.819422 
L 418.059319 -17.641212 
L 419.03861 -18.447675 
L 420.017901 -19.242465 
L 420.997192 -20.029674 
L 421.976483 -20.810848 
L 422.955774 -21.583628 
L 423.935065 -22.342397 
L 424.914356 -23.080507 
L 425.893647 -23.79316 
L 426.872938 -24.48002 
L 427.852229 -25.146853 
L 428.83152 -25.805793 
L 429.810811 -26.474084 
L 430.790102 -27.171397 
L 431.769393 -27.916124 
L 432.748684 -28.721406 
L 433.727975 -29.591827 
L 434.707266 -30.521675 
L 435.686557 -31.49519 
L 436.665848 -32.488728 
L 437.645139 -33.474279 
L 438.62443 -34.423596 
L 439.603721 -35.312305 
L 440.583012 -36.123493 
L 441.562303 -36.85031 
L 442.541594 -37.497049 
L 443.520885 -38.078093 
L 444.500176 -38.614417 
L 445.479466 -39.127988 
L 446.458757 -39.63536 
L 447.438048 -40.142412 
L 448.417339 -40.642172 
L 449.39663 -41.116737 
L 450.375921 -41.542701 
L 451.355212 -41.898013 
L 452.334503 -42.167561 
L 453.313794 -42.345379 
L 454.293085 -42.433072 
L 455.272376 -42.435887 
L 456.251667 -42.358948 
L 457.230958 -42.205852 
L 458.210249 -41.980211 
L 459.18954 -41.688814 
L 460.168831 -41.343827 
L 461.148122 -40.961761 
L 462.127413 -40.558692 
L 463.106704 -40.143437 
L 464.085995 -39.711908 
L 465.065286 -39.245694 
L 466.044577 -38.71613 
L 467.023868 -38.092625 
L 468.003159 -37.352089 
L 468.98245 -36.485931 
L 469.961741 -35.502358 
L 470.941032 -34.423844 
L 471.920323 -33.281517 
L 472.899614 -32.108956 
L 473.878905 -30.937322 
L 474.858196 -29.792489 
L 475.837487 -28.693705 
L 476.816778 -27.652974 
L 477.796069 -26.674682 
L 478.77536 -25.755656 
L 479.754651 -24.886124 
L 480.733942 -24.051791 
L 481.713233 -23.236741 
L 482.692524 -22.426438 
L 483.671815 -21.610146 
L 484.651106 -20.78243 
L 485.630397 -19.943766 
L 486.609688 -19.100397 
L 487.588979 -18.263434 
L 488.56827 -17.44708 
L 489.547561 -16.665965 
L 490.526852 -15.931999 
L 491.506143 -15.251488 
L 492.485433 -14.623438 
L 493.464724 -14.03961 
L 494.444015 -13.486371 
L 495.423306 -12.947812 
L 496.402597 -12.40927 
L 497.381888 -11.860366 
L 498.361179 -11.296892 
L 499.34047 -10.721217 
L 500.319761 -10.14126 
L 501.299052 -9.568415 
L 502.278343 -9.015043 
L 503.257634 -8.492154 
L 504.236925 -8.007787 
L 505.216216 -7.566292 
L 506.195507 -7.168436 
L 507.174798 -6.812048 
L 508.154089 -6.492846 
L 509.13338 -6.205234 
L 510.112671 -5.943003 
L 511.091962 -5.699992 
L 512.071253 -5.470769 
L 513.050544 -5.25124 
L 514.029835 -5.03903 
L 515.009126 -4.833422 
L 515.988417 -4.634859 
L 516.967708 -4.444186 
L 517.946999 -4.261988 
L 518.92629 -4.088309 
L 518.92629 -2.470909 
L 518.92629 -2.470909 
L 517.946999 -2.470909 
L 516.967708 -2.470909 
L 515.988417 -2.470909 
L 515.009126 -2.470909 
L 514.029835 -2.470909 
L 513.050544 -2.470909 
L 512.071253 -2.470909 
L 511.091962 -2.470909 
L 510.112671 -2.470909 
L 509.13338 -2.470909 
L 508.154089 -2.470909 
L 507.174798 -2.470909 
L 506.195507 -2.470909 
L 505.216216 -2.470909 
L 504.236925 -2.470909 
L 503.257634 -2.470909 
L 502.278343 -2.470909 
L 501.299052 -2.470909 
L 500.319761 -2.470909 
L 499.34047 -2.470909 
L 498.361179 -2.470909 
L 497.381888 -2.470909 
L 496.402597 -2.470909 
L 495.423306 -2.470909 
L 494.444015 -2.470909 
L 493.464724 -2.470909 
L 492.485433 -2.470909 
L 491.506143 -2.470909 
L 490.526852 -2.470909 
L 489.547561 -2.470909 
L 488.56827 -2.470909 
L 487.588979 -2.470909 
L 486.609688 -2.470909 
L 485.630397 -2.470909 
L 484.651106 -2.470909 
L 483.671815 -2.470909 
L 482.692524 -2.470909 
L 481.713233 -2.470909 
L 480.733942 -2.470909 
L 479.754651 -2.470909 
L 478.77536 -2.470909 
L 477.796069 -2.470909 
L 476.816778 -2.470909 
L 475.837487 -2.470909 
L 474.858196 -2.470909 
L 473.878905 -2.470909 
L 472.899614 -2.470909 
L 471.920323 -2.470909 
L 470.941032 -2.470909 
L 469.961741 -2.470909 
L 468.98245 -2.470909 
L 468.003159 -2.470909 
L 467.023868 -2.470909 
L 466.044577 -2.470909 
L 465.065286 -2.470909 
L 464.085995 -2.470909 
L 463.106704 -2.470909 
L 462.127413 -2.470909 
L 461.148122 -2.470909 
L 460.168831 -2.470909 
L 459.18954 -2.470909 
L 458.210249 -2.470909 
L 457.230958 -2.470909 
L 456.251667 -2.470909 
L 455.272376 -2.470909 
L 454.293085 -2.470909 
L 453.313794 -2.470909 
L 452.334503 -2.470909 
L 451.355212 -2.470909 
L 450.375921 -2.470909 
L 449.39663 -2.470909 
L 448.417339 -2.470909 
L 447.438048 -2.470909 
L 446.458757 -2.470909 
L 445.479466 -2.470909 
L 444.500176 -2.470909 
L 443.520885 -2.470909 
L 442.541594 -2.470909 
L 441.562303 -2.470909 
L 440.583012 -2.470909 
L 439.603721 -2.470909 
L 438.62443 -2.470909 
L 437.645139 -2.470909 
L 436.665848 -2.470909 
L 435.686557 -2.470909 
L 434.707266 -2.470909 
L 433.727975 -2.470909 
L 432.748684 -2.470909 
L 431.769393 -2.470909 
L 430.790102 -2.470909 
L 429.810811 -2.470909 
L 428.83152 -2.470909 
L 427.852229 -2.470909 
L 426.872938 -2.470909 
L 425.893647 -2.470909 
L 424.914356 -2.470909 
L 423.935065 -2.470909 
L 422.955774 -2.470909 
L 421.976483 -2.470909 
L 420.997192 -2.470909 
L 420.017901 -2.470909 
L 419.03861 -2.470909 
L 418.059319 -2.470909 
L 417.080028 -2.470909 
L 416.100737 -2.470909 
L 415.121446 -2.470909 
L 414.142155 -2.470909 
L 413.162864 -2.470909 
L 412.183573 -2.470909 
L 411.204282 -2.470909 
L 410.224991 -2.470909 
L 409.2457 -2.470909 
L 408.266409 -2.470909 
L 407.287118 -2.470909 
L 406.307827 -2.470909 
L 405.328536 -2.470909 
L 404.349245 -2.470909 
L 403.369954 -2.470909 
L 402.390663 -2.470909 
L 401.411372 -2.470909 
L 400.432081 -2.470909 
L 399.45279 -2.470909 
L 398.473499 -2.470909 
L 397.494208 -2.470909 
L 396.514918 -2.470909 
L 395.535627 -2.470909 
L 394.556336 -2.470909 
L 393.577045 -2.470909 
L 392.597754 -2.470909 
L 391.618463 -2.470909 
L 390.639172 -2.470909 
z
" style="stroke: #cf1313; stroke-opacity: 0.2"/>
    </defs>
    <g clip-path="url(#p775843dbc4)">
     <use xlink:href="#m4a51b19828" x="0" y="54.36" style="fill: #cf1313; fill-opacity: 0.2; stroke: #cf1313; stroke-opacity: 0.2"/>
    </g>
   </g>
   <g id="PolyCollection_2">
    <defs>
     <path id="me55806d477" d="M 396.514918 -2.470909 
L 396.514918 -3.88893 
L 397.494208 -3.960819 
L 398.473499 -4.037014 
L 399.45279 -4.122558 
L 400.432081 -4.222278 
L 401.411372 -4.339775 
L 402.390663 -4.476806 
L 403.369954 -4.633253 
L 404.349245 -4.807656 
L 405.328536 -4.99809 
L 406.307827 -5.203089 
L 407.287118 -5.422307 
L 408.266409 -5.656711 
L 409.2457 -5.908294 
L 410.224991 -6.17944 
L 411.204282 -6.472199 
L 412.183573 -6.787768 
L 413.162864 -7.126362 
L 414.142155 -7.487499 
L 415.121446 -7.870586 
L 416.100737 -8.27555 
L 417.080028 -8.703285 
L 418.059319 -9.155723 
L 419.03861 -9.635487 
L 420.017901 -10.14518 
L 420.997192 -10.686531 
L 421.976483 -11.2597 
L 422.955774 -11.863063 
L 423.935065 -12.493684 
L 424.914356 -13.148371 
L 425.893647 -13.824862 
L 426.872938 -14.522499 
L 427.852229 -15.241831 
L 428.83152 -15.983077 
L 429.810811 -16.743986 
L 430.790102 -17.518088 
L 431.769393 -18.294324 
L 432.748684 -19.058545 
L 433.727975 -19.79664 
L 434.707266 -20.498345 
L 435.686557 -21.160592 
L 436.665848 -21.789391 
L 437.645139 -22.399792 
L 438.62443 -23.013998 
L 439.603721 -23.658121 
L 440.583012 -24.358193 
L 441.562303 -25.136086 
L 442.541594 -26.005869 
L 443.520885 -26.971114 
L 444.500176 -28.023565 
L 445.479466 -29.143526 
L 446.458757 -30.302024 
L 447.438048 -31.464541 
L 448.417339 -32.595644 
L 449.39663 -33.663657 
L 450.375921 -34.644466 
L 451.355212 -35.523796 
L 452.334503 -36.29778 
L 453.313794 -36.972024 
L 454.293085 -37.559644 
L 455.272376 -38.078727 
L 456.251667 -38.54948 
L 457.230958 -38.991182 
L 458.210249 -39.419105 
L 459.18954 -39.841776 
L 460.168831 -40.259286 
L 461.148122 -40.663363 
L 462.127413 -41.039546 
L 463.106704 -41.371077 
L 464.085995 -41.643322 
L 465.065286 -41.847163 
L 466.044577 -41.980147 
L 467.023868 -42.045044 
L 468.003159 -42.046611 
L 468.98245 -41.988108 
L 469.961741 -41.86915 
L 470.941032 -41.685795 
L 471.920323 -41.432737 
L 472.899614 -41.106552 
L 473.878905 -40.708537 
L 474.858196 -40.24596 
L 475.837487 -39.731248 
L 476.816778 -39.17945 
L 477.796069 -38.604894 
L 478.77536 -38.01816 
L 479.754651 -37.42421 
L 480.733942 -36.822101 
L 481.713233 -36.206203 
L 482.692524 -35.568423 
L 483.671815 -34.900745 
L 484.651106 -34.197358 
L 485.630397 -33.455877 
L 486.609688 -32.677498 
L 487.588979 -31.866314 
L 488.56827 -31.028186 
L 489.547561 -30.169629 
L 490.526852 -29.296933 
L 491.506143 -28.415573 
L 492.485433 -27.529851 
L 493.464724 -26.64271 
L 494.444015 -25.755775 
L 495.423306 -24.869635 
L 496.402597 -23.98437 
L 497.381888 -23.100189 
L 498.361179 -22.218011 
L 499.34047 -21.339842 
L 500.319761 -20.468877 
L 501.299052 -19.609328 
L 502.278343 -18.765984 
L 503.257634 -17.943558 
L 504.236925 -17.145908 
L 505.216216 -16.375344 
L 506.195507 -15.632264 
L 507.174798 -14.915356 
L 508.154089 -14.222351 
L 509.13338 -13.551124 
L 510.112671 -12.900681 
L 511.091962 -12.27167 
L 512.071253 -11.666222 
L 513.050544 -11.087268 
L 514.029835 -10.537702 
L 515.009126 -10.019736 
L 515.988417 -9.534605 
L 516.967708 -9.082521 
L 517.946999 -8.662664 
L 518.92629 -8.273076 
L 519.905581 -7.910548 
L 520.884872 -7.570749 
L 521.864163 -7.248797 
L 522.843454 -6.940228 
L 523.822745 -6.641991 
L 524.802036 -6.353008 
L 525.781327 -6.073947 
L 526.760618 -5.806278 
L 527.739909 -5.551057 
L 528.7192 -5.308033 
L 529.698491 -5.075547 
L 530.677782 -4.851242 
L 531.657073 -4.633237 
L 532.636364 -4.421184 
L 532.636364 -2.470909 
L 532.636364 -2.470909 
L 531.657073 -2.470909 
L 530.677782 -2.470909 
L 529.698491 -2.470909 
L 528.7192 -2.470909 
L 527.739909 -2.470909 
L 526.760618 -2.470909 
L 525.781327 -2.470909 
L 524.802036 -2.470909 
L 523.822745 -2.470909 
L 522.843454 -2.470909 
L 521.864163 -2.470909 
L 520.884872 -2.470909 
L 519.905581 -2.470909 
L 518.92629 -2.470909 
L 517.946999 -2.470909 
L 516.967708 -2.470909 
L 515.988417 -2.470909 
L 515.009126 -2.470909 
L 514.029835 -2.470909 
L 513.050544 -2.470909 
L 512.071253 -2.470909 
L 511.091962 -2.470909 
L 510.112671 -2.470909 
L 509.13338 -2.470909 
L 508.154089 -2.470909 
L 507.174798 -2.470909 
L 506.195507 -2.470909 
L 505.216216 -2.470909 
L 504.236925 -2.470909 
L 503.257634 -2.470909 
L 502.278343 -2.470909 
L 501.299052 -2.470909 
L 500.319761 -2.470909 
L 499.34047 -2.470909 
L 498.361179 -2.470909 
L 497.381888 -2.470909 
L 496.402597 -2.470909 
L 495.423306 -2.470909 
L 494.444015 -2.470909 
L 493.464724 -2.470909 
L 492.485433 -2.470909 
L 491.506143 -2.470909 
L 490.526852 -2.470909 
L 489.547561 -2.470909 
L 488.56827 -2.470909 
L 487.588979 -2.470909 
L 486.609688 -2.470909 
L 485.630397 -2.470909 
L 484.651106 -2.470909 
L 483.671815 -2.470909 
L 482.692524 -2.470909 
L 481.713233 -2.470909 
L 480.733942 -2.470909 
L 479.754651 -2.470909 
L 478.77536 -2.470909 
L 477.796069 -2.470909 
L 476.816778 -2.470909 
L 475.837487 -2.470909 
L 474.858196 -2.470909 
L 473.878905 -2.470909 
L 472.899614 -2.470909 
L 471.920323 -2.470909 
L 470.941032 -2.470909 
L 469.961741 -2.470909 
L 468.98245 -2.470909 
L 468.003159 -2.470909 
L 467.023868 -2.470909 
L 466.044577 -2.470909 
L 465.065286 -2.470909 
L 464.085995 -2.470909 
L 463.106704 -2.470909 
L 462.127413 -2.470909 
L 461.148122 -2.470909 
L 460.168831 -2.470909 
L 459.18954 -2.470909 
L 458.210249 -2.470909 
L 457.230958 -2.470909 
L 456.251667 -2.470909 
L 455.272376 -2.470909 
L 454.293085 -2.470909 
L 453.313794 -2.470909 
L 452.334503 -2.470909 
L 451.355212 -2.470909 
L 450.375921 -2.470909 
L 449.39663 -2.470909 
L 448.417339 -2.470909 
L 447.438048 -2.470909 
L 446.458757 -2.470909 
L 445.479466 -2.470909 
L 444.500176 -2.470909 
L 443.520885 -2.470909 
L 442.541594 -2.470909 
L 441.562303 -2.470909 
L 440.583012 -2.470909 
L 439.603721 -2.470909 
L 438.62443 -2.470909 
L 437.645139 -2.470909 
L 436.665848 -2.470909 
L 435.686557 -2.470909 
L 434.707266 -2.470909 
L 433.727975 -2.470909 
L 432.748684 -2.470909 
L 431.769393 -2.470909 
L 430.790102 -2.470909 
L 429.810811 -2.470909 
L 428.83152 -2.470909 
L 427.852229 -2.470909 
L 426.872938 -2.470909 
L 425.893647 -2.470909 
L 424.914356 -2.470909 
L 423.935065 -2.470909 
L 422.955774 -2.470909 
L 421.976483 -2.470909 
L 420.997192 -2.470909 
L 420.017901 -2.470909 
L 419.03861 -2.470909 
L 418.059319 -2.470909 
L 417.080028 -2.470909 
L 416.100737 -2.470909 
L 415.121446 -2.470909 
L 414.142155 -2.470909 
L 413.162864 -2.470909 
L 412.183573 -2.470909 
L 411.204282 -2.470909 
L 410.224991 -2.470909 
L 409.2457 -2.470909 
L 408.266409 -2.470909 
L 407.287118 -2.470909 
L 406.307827 -2.470909 
L 405.328536 -2.470909 
L 404.349245 -2.470909 
L 403.369954 -2.470909 
L 402.390663 -2.470909 
L 401.411372 -2.470909 
L 400.432081 -2.470909 
L 399.45279 -2.470909 
L 398.473499 -2.470909 
L 397.494208 -2.470909 
L 396.514918 -2.470909 
z
" style="stroke: #116dc2; stroke-opacity: 0.2"/>
    </defs>
    <g clip-path="url(#p775843dbc4)">
     <use xlink:href="#me55806d477" x="0" y="54.36" style="fill: #116dc2; fill-opacity: 0.2; stroke: #116dc2; stroke-opacity: 0.2"/>
    </g>
   </g>
   <g id="PolyCollection_3">
    <defs>
     <path id="m884778f4e1" d="M 25.363636 -2.470909 
L 25.363636 -4.643081 
L 26.342927 -5.47748 
L 27.322218 -6.488187 
L 28.301509 -7.629099 
L 29.2808 -8.922323 
L 30.260091 -10.416877 
L 31.239382 -12.0849 
L 32.218673 -14.011381 
L 33.197964 -16.506334 
L 34.177255 -19.628039 
L 35.156546 -22.92662 
L 36.135837 -26.094747 
L 37.115128 -29.424027 
L 38.094419 -33.133266 
L 39.07371 -36.955977 
L 40.053001 -40.468414 
L 41.032292 -43.355134 
L 42.011583 -45.693909 
L 42.990874 -47.727601 
L 43.970165 -49.34096 
L 44.949456 -50.433224 
L 45.928747 -51.27069 
L 46.908038 -51.889091 
L 47.887329 -51.818215 
L 48.86662 -50.904477 
L 49.845911 -49.422844 
L 50.825202 -47.358732 
L 51.804493 -44.545021 
L 52.783784 -41.070545 
L 53.763075 -37.252129 
L 54.742366 -33.461736 
L 55.721657 -29.900044 
L 56.700948 -26.731527 
L 57.680239 -24.041028 
L 58.65953 -21.512819 
L 59.638821 -18.747665 
L 60.618112 -15.787439 
L 61.597403 -13.08972 
L 62.576694 -11.007022 
L 63.555985 -9.389892 
L 64.535276 -7.954626 
L 65.514567 -6.680374 
L 66.493857 -5.616655 
L 67.473148 -4.758854 
L 68.452439 -4.156363 
L 68.452439 -2.470909 
L 68.452439 -2.470909 
L 67.473148 -2.470909 
L 66.493857 -2.470909 
L 65.514567 -2.470909 
L 64.535276 -2.470909 
L 63.555985 -2.470909 
L 62.576694 -2.470909 
L 61.597403 -2.470909 
L 60.618112 -2.470909 
L 59.638821 -2.470909 
L 58.65953 -2.470909 
L 57.680239 -2.470909 
L 56.700948 -2.470909 
L 55.721657 -2.470909 
L 54.742366 -2.470909 
L 53.763075 -2.470909 
L 52.783784 -2.470909 
L 51.804493 -2.470909 
L 50.825202 -2.470909 
L 49.845911 -2.470909 
L 48.86662 -2.470909 
L 47.887329 -2.470909 
L 46.908038 -2.470909 
L 45.928747 -2.470909 
L 44.949456 -2.470909 
L 43.970165 -2.470909 
L 42.990874 -2.470909 
L 42.011583 -2.470909 
L 41.032292 -2.470909 
L 40.053001 -2.470909 
L 39.07371 -2.470909 
L 38.094419 -2.470909 
L 37.115128 -2.470909 
L 36.135837 -2.470909 
L 35.156546 -2.470909 
L 34.177255 -2.470909 
L 33.197964 -2.470909 
L 32.218673 -2.470909 
L 31.239382 -2.470909 
L 30.260091 -2.470909 
L 29.2808 -2.470909 
L 28.301509 -2.470909 
L 27.322218 -2.470909 
L 26.342927 -2.470909 
L 25.363636 -2.470909 
z
" style="stroke: #8a8a8a; stroke-opacity: 0.2"/>
    </defs>
    <g clip-path="url(#p775843dbc4)">
     <use xlink:href="#m884778f4e1" x="0" y="54.36" style="fill: #8a8a8a; fill-opacity: 0.2; stroke: #8a8a8a; stroke-opacity: 0.2"/>
    </g>
   </g>
   <g id="line2d_1">
    <path d="M 390.639172 50.023842 
L 395.535627 49.1335 
L 398.473499 48.423919 
L 401.411372 47.448079 
L 404.349245 46.188565 
L 408.266409 44.24065 
L 410.224991 43.066244 
L 412.183573 41.665885 
L 415.121446 39.222987 
L 420.017901 35.117535 
L 424.914356 31.279493 
L 428.83152 28.554207 
L 431.769393 26.443876 
L 433.727975 24.768173 
L 436.665848 21.871272 
L 439.603721 19.047695 
L 441.562303 17.50969 
L 443.520885 16.281907 
L 448.417339 13.717828 
L 450.375921 12.817299 
L 452.334503 12.192439 
L 454.293085 11.926928 
L 456.251667 12.001052 
L 458.210249 12.379789 
L 460.168831 13.016173 
L 464.085995 14.648092 
L 466.044577 15.64387 
L 468.003159 17.007911 
L 469.961741 18.857642 
L 472.899614 22.251044 
L 475.837487 25.666295 
L 477.796069 27.685318 
L 480.733942 30.308209 
L 490.526852 38.428001 
L 492.485433 39.736562 
L 496.402597 41.95073 
L 505.216216 46.793708 
L 507.174798 47.547952 
L 510.112671 48.416997 
L 515.009126 49.526578 
L 518.92629 50.271691 
L 518.92629 50.271691 
" clip-path="url(#p775843dbc4)" style="fill: none; stroke: #cf1313; stroke-width: 1.5; stroke-linecap: square"/>
   </g>
   <g id="line2d_2">
    <path d="M 396.514918 50.47107 
L 401.411372 50.020225 
L 405.328536 49.36191 
L 409.2457 48.451706 
L 412.183573 47.572232 
L 415.121446 46.489414 
L 418.059319 45.204277 
L 420.997192 43.673469 
L 423.935065 41.866316 
L 427.852229 39.118169 
L 436.665848 32.570609 
L 440.583012 30.001807 
L 442.541594 28.354131 
L 444.500176 26.336435 
L 450.375921 19.715534 
L 452.334503 18.06222 
L 454.293085 16.800356 
L 457.230958 15.368818 
L 462.127413 13.320454 
L 464.085995 12.716678 
L 466.044577 12.379853 
L 468.003159 12.313389 
L 469.961741 12.49085 
L 471.920323 12.927263 
L 473.878905 13.651463 
L 475.837487 14.628752 
L 479.754651 16.93579 
L 483.671815 19.459255 
L 486.609688 21.682502 
L 490.526852 25.063067 
L 503.257634 36.416442 
L 506.195507 38.727736 
L 510.112671 41.459319 
L 513.050544 43.272732 
L 515.988417 44.825395 
L 518.92629 46.086924 
L 522.843454 47.419772 
L 527.739909 48.808943 
L 532.636364 49.938816 
L 532.636364 49.938816 
" clip-path="url(#p775843dbc4)" style="fill: none; stroke: #116dc2; stroke-width: 1.5; stroke-linecap: square"/>
   </g>
   <g id="line2d_3">
    <path d="M 25.363636 49.716919 
L 26.342927 48.88252 
L 27.322218 47.871813 
L 28.301509 46.730901 
L 29.2808 45.437677 
L 30.260091 43.943123 
L 31.239382 42.2751 
L 32.218673 40.348619 
L 33.197964 37.853666 
L 34.177255 34.731961 
L 35.156546 31.43338 
L 36.135837 28.265253 
L 37.115128 24.935973 
L 38.094419 21.226734 
L 39.07371 17.404023 
L 40.053001 13.891586 
L 41.032292 11.004866 
L 42.011583 8.666091 
L 42.990874 6.632399 
L 43.970165 5.01904 
L 44.949456 3.926776 
L 45.928747 3.08931 
L 46.908038 2.470909 
L 47.887329 2.541785 
L 48.86662 3.455523 
L 49.845911 4.937156 
L 50.825202 7.001268 
L 51.804493 9.814979 
L 52.783784 13.289455 
L 53.763075 17.107871 
L 54.742366 20.898264 
L 55.721657 24.459956 
L 56.700948 27.628473 
L 57.680239 30.318972 
L 58.65953 32.847181 
L 59.638821 35.612335 
L 60.618112 38.572561 
L 61.597403 41.27028 
L 62.576694 43.352978 
L 63.555985 44.970108 
L 64.535276 46.405374 
L 65.514567 47.679626 
L 66.493857 48.743345 
L 67.473148 49.601146 
L 68.452439 50.203637 
" clip-path="url(#p775843dbc4)" style="fill: none; stroke: #8a8a8a; stroke-width: 1.5; stroke-linecap: square"/>
   </g>
  </g>
 </g>
 <defs>
  <clipPath id="p775843dbc4">
   <rect x="0" y="-0" width="558" height="54.36"/>
  </clipPath>
 </defs>
</svg>
