<?xml version="1.0" encoding="utf-8" standalone="no"?>
<!DOCTYPE svg PUBLIC "-//W3C//DTD SVG 1.1//EN"
  "http://www.w3.org/Graphics/SVG/1.1/DTD/svg11.dtd">
<svg xmlns:xlink="http://www.w3.org/1999/xlink" width="558pt" height="54.36pt" viewBox="0 0 558 54.36" xmlns="http://www.w3.org/2000/svg" version="1.1">
 <metadata>
  <rdf:RDF xmlns:dc="http://purl.org/dc/elements/1.1/" xmlns:cc="http://creativecommons.org/ns#" xmlns:rdf="http://www.w3.org/1999/02/22-rdf-syntax-ns#">
   <cc:Work>
    <dc:type rdf:resource="http://purl.org/dc/dcmitype/StillImage"/>
    <dc:date>2024-09-14T12:47:19.475356</dc:date>
    <dc:format>image/svg+xml</dc:format>
    <dc:creator>
     <cc:Agent>
      <dc:title>Matplotlib v3.5.2, https://matplotlib.org/</dc:title>
     </cc:Agent>
    </dc:creator>
   </cc:Work>
  </rdf:RDF>
 </metadata>
 <defs>
  <style type="text/css">*{stroke-linejoin: round; stroke-linecap: butt}</style>
 </defs>
 <g id="figure_1">
  <g id="patch_1">
   <path d="M 0 54.36 
L 558 54.36 
L 558 0 
L 0 0 
L 0 54.36 
z
" style="fill: none; opacity: 0"/>
  </g>
  <g id="axes_1">
   <g id="PolyCollection_1">
    <defs>
     <path id="m2237e7e34e" d="M 388.258741 -2.470909 
L 388.258741 -4.117098 
L 389.234266 -4.267672 
L 390.20979 -4.425172 
L 391.185315 -4.596233 
L 392.160839 -4.788306 
L 393.136364 -5.008053 
L 394.111888 -5.259727 
L 395.087413 -5.544042 
L 396.062937 -5.857937 
L 397.038462 -6.195418 
L 398.013986 -6.549299 
L 398.98951 -6.913353 
L 399.965035 -7.284213 
L 400.940559 -7.662459 
L 401.916084 -8.05257 
L 402.891608 -8.461814 
L 403.867133 -8.898438 
L 404.842657 -9.36969 
L 405.818182 -9.880182 
L 406.793706 -10.430958 
L 407.769231 -11.019381 
L 408.744755 -11.639763 
L 409.72028 -12.284524 
L 410.695804 -12.945611 
L 411.671329 -13.615906 
L 412.646853 -14.290411 
L 413.622378 -14.967075 
L 414.597902 -15.647207 
L 415.573427 -16.335475 
L 416.548951 -17.039497 
L 417.524476 -17.768959 
L 418.5 -18.534159 
L 419.475524 -19.343977 
L 420.451049 -20.203477 
L 421.426573 -21.11172 
L 422.402098 -22.060545 
L 423.377622 -23.03495 
L 424.353147 -24.015289 
L 425.328671 -24.980862 
L 426.304196 -25.913989 
L 427.27972 -26.803552 
L 428.255245 -27.647187 
L 429.230769 -28.451751 
L 430.206294 -29.232028 
L 431.181818 -30.0079 
L 432.157343 -30.800352 
L 433.132867 -31.626888 
L 434.108392 -32.497205 
L 435.083916 -33.410136 
L 436.059441 -34.352811 
L 437.034965 -35.302486 
L 438.01049 -36.230772 
L 438.986014 -37.109256 
L 439.961538 -37.914993 
L 440.937063 -38.63438 
L 441.912587 -39.264308 
L 442.888112 -39.810383 
L 443.863636 -40.282953 
L 444.839161 -40.692494 
L 445.814685 -41.04612 
L 446.79021 -41.346444 
L 447.765734 -41.592901 
L 448.741259 -41.784415 
L 449.716783 -41.921714 
L 450.692308 -42.007882 
L 451.667832 -42.046749 
L 452.643357 -42.039932 
L 453.618881 -41.984001 
L 454.594406 -41.869176 
L 455.56993 -41.680338 
L 456.545455 -41.400238 
L 457.520979 -41.014092 
L 458.496503 -40.514377 
L 459.472028 -39.904487 
L 460.447552 -39.200132 
L 461.423077 -38.427788 
L 462.398601 -37.62022 
L 463.374126 -36.809993 
L 464.34965 -36.02263 
L 465.325175 -35.271426 
L 466.300699 -34.555529 
L 467.276224 -33.861952 
L 468.251748 -33.170822 
L 469.227273 -32.46213 
L 470.202797 -31.721777 
L 471.178322 -30.94509 
L 472.153846 -30.137 
L 473.129371 -29.309231 
L 474.104895 -28.475819 
L 475.08042 -27.648648 
L 476.055944 -26.834456 
L 477.031469 -26.034043 
L 478.006993 -25.243524 
L 478.982517 -24.456745 
L 479.958042 -23.667683 
L 480.933566 -22.871942 
L 481.909091 -22.067051 
L 482.884615 -21.252006 
L 483.86014 -20.426803 
L 484.835664 -19.592579 
L 485.811189 -18.752425 
L 486.786713 -17.912351 
L 487.762238 -17.081639 
L 488.737762 -16.272037 
L 489.713287 -15.495822 
L 490.688811 -14.763326 
L 491.664336 -14.080795 
L 492.63986 -13.449282 
L 493.615385 -12.86484 
L 494.590909 -12.319781 
L 495.566434 -11.804515 
L 496.541958 -11.309444 
L 497.517483 -10.826556 
L 498.493007 -10.350536 
L 499.468531 -9.879328 
L 500.444056 -9.414126 
L 501.41958 -8.958779 
L 502.395105 -8.51872 
L 503.370629 -8.09957 
L 504.346154 -7.705737 
L 505.321678 -7.339337 
L 506.297203 -6.999695 
L 507.272727 -6.683588 
L 508.248252 -6.386143 
L 509.223776 -6.10213 
L 510.199301 -5.827261 
L 511.174825 -5.559092 
L 512.15035 -5.2973 
L 513.125874 -5.043296 
L 514.101399 -4.799415 
L 515.076923 -4.56801 
L 516.052448 -4.350774 
L 516.052448 -2.470909 
L 516.052448 -2.470909 
L 515.076923 -2.470909 
L 514.101399 -2.470909 
L 513.125874 -2.470909 
L 512.15035 -2.470909 
L 511.174825 -2.470909 
L 510.199301 -2.470909 
L 509.223776 -2.470909 
L 508.248252 -2.470909 
L 507.272727 -2.470909 
L 506.297203 -2.470909 
L 505.321678 -2.470909 
L 504.346154 -2.470909 
L 503.370629 -2.470909 
L 502.395105 -2.470909 
L 501.41958 -2.470909 
L 500.444056 -2.470909 
L 499.468531 -2.470909 
L 498.493007 -2.470909 
L 497.517483 -2.470909 
L 496.541958 -2.470909 
L 495.566434 -2.470909 
L 494.590909 -2.470909 
L 493.615385 -2.470909 
L 492.63986 -2.470909 
L 491.664336 -2.470909 
L 490.688811 -2.470909 
L 489.713287 -2.470909 
L 488.737762 -2.470909 
L 487.762238 -2.470909 
L 486.786713 -2.470909 
L 485.811189 -2.470909 
L 484.835664 -2.470909 
L 483.86014 -2.470909 
L 482.884615 -2.470909 
L 481.909091 -2.470909 
L 480.933566 -2.470909 
L 479.958042 -2.470909 
L 478.982517 -2.470909 
L 478.006993 -2.470909 
L 477.031469 -2.470909 
L 476.055944 -2.470909 
L 475.08042 -2.470909 
L 474.104895 -2.470909 
L 473.129371 -2.470909 
L 472.153846 -2.470909 
L 471.178322 -2.470909 
L 470.202797 -2.470909 
L 469.227273 -2.470909 
L 468.251748 -2.470909 
L 467.276224 -2.470909 
L 466.300699 -2.470909 
L 465.325175 -2.470909 
L 464.34965 -2.470909 
L 463.374126 -2.470909 
L 462.398601 -2.470909 
L 461.423077 -2.470909 
L 460.447552 -2.470909 
L 459.472028 -2.470909 
L 458.496503 -2.470909 
L 457.520979 -2.470909 
L 456.545455 -2.470909 
L 455.56993 -2.470909 
L 454.594406 -2.470909 
L 453.618881 -2.470909 
L 452.643357 -2.470909 
L 451.667832 -2.470909 
L 450.692308 -2.470909 
L 449.716783 -2.470909 
L 448.741259 -2.470909 
L 447.765734 -2.470909 
L 446.79021 -2.470909 
L 445.814685 -2.470909 
L 444.839161 -2.470909 
L 443.863636 -2.470909 
L 442.888112 -2.470909 
L 441.912587 -2.470909 
L 440.937063 -2.470909 
L 439.961538 -2.470909 
L 438.986014 -2.470909 
L 438.01049 -2.470909 
L 437.034965 -2.470909 
L 436.059441 -2.470909 
L 435.083916 -2.470909 
L 434.108392 -2.470909 
L 433.132867 -2.470909 
L 432.157343 -2.470909 
L 431.181818 -2.470909 
L 430.206294 -2.470909 
L 429.230769 -2.470909 
L 428.255245 -2.470909 
L 427.27972 -2.470909 
L 426.304196 -2.470909 
L 425.328671 -2.470909 
L 424.353147 -2.470909 
L 423.377622 -2.470909 
L 422.402098 -2.470909 
L 421.426573 -2.470909 
L 420.451049 -2.470909 
L 419.475524 -2.470909 
L 418.5 -2.470909 
L 417.524476 -2.470909 
L 416.548951 -2.470909 
L 415.573427 -2.470909 
L 414.597902 -2.470909 
L 413.622378 -2.470909 
L 412.646853 -2.470909 
L 411.671329 -2.470909 
L 410.695804 -2.470909 
L 409.72028 -2.470909 
L 408.744755 -2.470909 
L 407.769231 -2.470909 
L 406.793706 -2.470909 
L 405.818182 -2.470909 
L 404.842657 -2.470909 
L 403.867133 -2.470909 
L 402.891608 -2.470909 
L 401.916084 -2.470909 
L 400.940559 -2.470909 
L 399.965035 -2.470909 
L 398.98951 -2.470909 
L 398.013986 -2.470909 
L 397.038462 -2.470909 
L 396.062937 -2.470909 
L 395.087413 -2.470909 
L 394.111888 -2.470909 
L 393.136364 -2.470909 
L 392.160839 -2.470909 
L 391.185315 -2.470909 
L 390.20979 -2.470909 
L 389.234266 -2.470909 
L 388.258741 -2.470909 
z
" style="stroke: #cf1313; stroke-opacity: 0.2"/>
    </defs>
    <g clip-path="url(#pa8ccb36180)">
     <use xlink:href="#m2237e7e34e" x="0" y="54.36" style="fill: #cf1313; fill-opacity: 0.2; stroke: #cf1313; stroke-opacity: 0.2"/>
    </g>
   </g>
   <g id="PolyCollection_2">
    <defs>
     <path id="m0261722700" d="M 398.013986 -2.470909 
L 398.013986 -4.017396 
L 398.98951 -4.147333 
L 399.965035 -4.284909 
L 400.940559 -4.433543 
L 401.916084 -4.598349 
L 402.891608 -4.785745 
L 403.867133 -5.002776 
L 404.842657 -5.25621 
L 405.818182 -5.551469 
L 406.793706 -5.891561 
L 407.769231 -6.276205 
L 408.744755 -6.701386 
L 409.72028 -7.159526 
L 410.695804 -7.640357 
L 411.671329 -8.132409 
L 412.646853 -8.624874 
L 413.622378 -9.109476 
L 414.597902 -9.581959 
L 415.573427 -10.042859 
L 416.548951 -10.497398 
L 417.524476 -10.954548 
L 418.5 -11.425474 
L 419.475524 -11.921683 
L 420.451049 -12.453235 
L 421.426573 -13.027291 
L 422.402098 -13.647176 
L 423.377622 -14.312007 
L 424.353147 -15.016842 
L 425.328671 -15.753273 
L 426.304196 -16.510387 
L 427.27972 -17.276076 
L 428.255245 -18.038633 
L 429.230769 -18.78852 
L 430.206294 -19.52001 
L 431.181818 -20.232323 
L 432.157343 -20.929851 
L 433.132867 -21.621294 
L 434.108392 -22.317799 
L 435.083916 -23.030529 
L 436.059441 -23.768239 
L 437.034965 -24.535409 
L 438.01049 -25.331349 
L 438.986014 -26.150431 
L 439.961538 -26.983379 
L 440.937063 -27.819335 
L 441.912587 -28.648223 
L 442.888112 -29.462825 
L 443.863636 -30.26004 
L 444.839161 -31.040969 
L 445.814685 -31.809882 
L 446.79021 -32.572452 
L 447.765734 -33.333866 
L 448.741259 -34.097377 
L 449.716783 -34.863559 
L 450.692308 -35.63016 
L 451.667832 -36.39221 
L 452.643357 -37.142075 
L 453.618881 -37.869387 
L 454.594406 -38.561118 
L 455.56993 -39.202208 
L 456.545455 -39.777028 
L 457.520979 -40.271574 
L 458.496503 -40.675887 
L 459.472028 -40.985965 
L 460.447552 -41.204553 
L 461.423077 -41.340565 
L 462.398601 -41.407355 
L 463.374126 -41.42031 
L 464.34965 -41.394318 
L 465.325175 -41.341553 
L 466.300699 -41.26985 
L 467.276224 -41.181867 
L 468.251748 -41.075124 
L 469.227273 -40.942926 
L 470.202797 -40.775995 
L 471.178322 -40.564462 
L 472.153846 -40.299815 
L 473.129371 -39.976455 
L 474.104895 -39.592684 
L 475.08042 -39.151066 
L 476.055944 -38.658187 
L 477.031469 -38.123844 
L 478.006993 -37.55972 
L 478.982517 -36.977701 
L 479.958042 -36.3881 
L 480.933566 -35.798121 
L 481.909091 -35.210839 
L 482.884615 -34.62488 
L 483.86014 -34.034821 
L 484.835664 -33.432245 
L 485.811189 -32.807297 
L 486.786713 -32.150509 
L 487.762238 -31.454556 
L 488.737762 -30.715524 
L 489.713287 -29.933338 
L 490.688811 -29.111174 
L 491.664336 -28.254042 
L 492.63986 -27.367055 
L 493.615385 -26.454037 
L 494.590909 -25.517029 
L 495.566434 -24.556868 
L 496.541958 -23.57462 
L 497.517483 -22.573307 
L 498.493007 -21.559294 
L 499.468531 -20.542871 
L 500.444056 -19.537797 
L 501.41958 -18.559906 
L 502.395105 -17.625071 
L 503.370629 -16.746966 
L 504.346154 -15.935105 
L 505.321678 -15.193559 
L 506.297203 -14.520598 
L 507.272727 -13.909289 
L 508.248252 -13.348847 
L 509.223776 -12.826417 
L 510.199301 -12.328874 
L 511.174825 -11.844378 
L 512.15035 -11.363515 
L 513.125874 -10.879997 
L 514.101399 -10.390997 
L 515.076923 -9.89716 
L 516.052448 -9.402297 
L 517.027972 -8.912729 
L 518.003497 -8.436252 
L 518.979021 -7.980815 
L 519.954545 -7.553128 
L 520.93007 -7.157494 
L 521.905594 -6.795183 
L 522.881119 -6.464516 
L 523.856643 -6.161624 
L 524.832168 -5.88166 
L 525.807692 -5.620108 
L 526.783217 -5.373811 
L 527.758741 -5.141446 
L 528.734266 -4.923368 
L 529.70979 -4.720906 
L 530.685315 -4.535401 
L 531.660839 -4.367332 
L 532.636364 -4.215814 
L 532.636364 -2.470909 
L 532.636364 -2.470909 
L 531.660839 -2.470909 
L 530.685315 -2.470909 
L 529.70979 -2.470909 
L 528.734266 -2.470909 
L 527.758741 -2.470909 
L 526.783217 -2.470909 
L 525.807692 -2.470909 
L 524.832168 -2.470909 
L 523.856643 -2.470909 
L 522.881119 -2.470909 
L 521.905594 -2.470909 
L 520.93007 -2.470909 
L 519.954545 -2.470909 
L 518.979021 -2.470909 
L 518.003497 -2.470909 
L 517.027972 -2.470909 
L 516.052448 -2.470909 
L 515.076923 -2.470909 
L 514.101399 -2.470909 
L 513.125874 -2.470909 
L 512.15035 -2.470909 
L 511.174825 -2.470909 
L 510.199301 -2.470909 
L 509.223776 -2.470909 
L 508.248252 -2.470909 
L 507.272727 -2.470909 
L 506.297203 -2.470909 
L 505.321678 -2.470909 
L 504.346154 -2.470909 
L 503.370629 -2.470909 
L 502.395105 -2.470909 
L 501.41958 -2.470909 
L 500.444056 -2.470909 
L 499.468531 -2.470909 
L 498.493007 -2.470909 
L 497.517483 -2.470909 
L 496.541958 -2.470909 
L 495.566434 -2.470909 
L 494.590909 -2.470909 
L 493.615385 -2.470909 
L 492.63986 -2.470909 
L 491.664336 -2.470909 
L 490.688811 -2.470909 
L 489.713287 -2.470909 
L 488.737762 -2.470909 
L 487.762238 -2.470909 
L 486.786713 -2.470909 
L 485.811189 -2.470909 
L 484.835664 -2.470909 
L 483.86014 -2.470909 
L 482.884615 -2.470909 
L 481.909091 -2.470909 
L 480.933566 -2.470909 
L 479.958042 -2.470909 
L 478.982517 -2.470909 
L 478.006993 -2.470909 
L 477.031469 -2.470909 
L 476.055944 -2.470909 
L 475.08042 -2.470909 
L 474.104895 -2.470909 
L 473.129371 -2.470909 
L 472.153846 -2.470909 
L 471.178322 -2.470909 
L 470.202797 -2.470909 
L 469.227273 -2.470909 
L 468.251748 -2.470909 
L 467.276224 -2.470909 
L 466.300699 -2.470909 
L 465.325175 -2.470909 
L 464.34965 -2.470909 
L 463.374126 -2.470909 
L 462.398601 -2.470909 
L 461.423077 -2.470909 
L 460.447552 -2.470909 
L 459.472028 -2.470909 
L 458.496503 -2.470909 
L 457.520979 -2.470909 
L 456.545455 -2.470909 
L 455.56993 -2.470909 
L 454.594406 -2.470909 
L 453.618881 -2.470909 
L 452.643357 -2.470909 
L 451.667832 -2.470909 
L 450.692308 -2.470909 
L 449.716783 -2.470909 
L 448.741259 -2.470909 
L 447.765734 -2.470909 
L 446.79021 -2.470909 
L 445.814685 -2.470909 
L 444.839161 -2.470909 
L 443.863636 -2.470909 
L 442.888112 -2.470909 
L 441.912587 -2.470909 
L 440.937063 -2.470909 
L 439.961538 -2.470909 
L 438.986014 -2.470909 
L 438.01049 -2.470909 
L 437.034965 -2.470909 
L 436.059441 -2.470909 
L 435.083916 -2.470909 
L 434.108392 -2.470909 
L 433.132867 -2.470909 
L 432.157343 -2.470909 
L 431.181818 -2.470909 
L 430.206294 -2.470909 
L 429.230769 -2.470909 
L 428.255245 -2.470909 
L 427.27972 -2.470909 
L 426.304196 -2.470909 
L 425.328671 -2.470909 
L 424.353147 -2.470909 
L 423.377622 -2.470909 
L 422.402098 -2.470909 
L 421.426573 -2.470909 
L 420.451049 -2.470909 
L 419.475524 -2.470909 
L 418.5 -2.470909 
L 417.524476 -2.470909 
L 416.548951 -2.470909 
L 415.573427 -2.470909 
L 414.597902 -2.470909 
L 413.622378 -2.470909 
L 412.646853 -2.470909 
L 411.671329 -2.470909 
L 410.695804 -2.470909 
L 409.72028 -2.470909 
L 408.744755 -2.470909 
L 407.769231 -2.470909 
L 406.793706 -2.470909 
L 405.818182 -2.470909 
L 404.842657 -2.470909 
L 403.867133 -2.470909 
L 402.891608 -2.470909 
L 401.916084 -2.470909 
L 400.940559 -2.470909 
L 399.965035 -2.470909 
L 398.98951 -2.470909 
L 398.013986 -2.470909 
z
" style="stroke: #116dc2; stroke-opacity: 0.2"/>
    </defs>
    <g clip-path="url(#pa8ccb36180)">
     <use xlink:href="#m0261722700" x="0" y="54.36" style="fill: #116dc2; fill-opacity: 0.2; stroke: #116dc2; stroke-opacity: 0.2"/>
    </g>
   </g>
   <g id="PolyCollection_3">
    <defs>
     <path id="m9635a4ea25" d="M 25.363636 -2.470909 
L 25.363636 -4.537893 
L 26.339161 -5.043293 
L 27.314685 -5.7155 
L 28.29021 -6.677987 
L 29.265734 -8.03201 
L 30.241259 -9.707502 
L 31.216783 -11.559033 
L 32.192308 -13.61615 
L 33.167832 -15.96313 
L 34.143357 -18.552412 
L 35.118881 -21.256614 
L 36.094406 -24.097858 
L 37.06993 -27.296979 
L 38.045455 -30.796527 
L 39.020979 -34.224884 
L 39.996503 -37.453481 
L 40.972028 -40.620333 
L 41.947552 -43.664595 
L 42.923077 -46.311232 
L 43.898601 -48.595092 
L 44.874126 -50.530251 
L 45.84965 -51.721608 
L 46.825175 -51.889091 
L 47.800699 -51.17644 
L 48.776224 -49.827135 
L 49.751748 -47.913749 
L 50.727273 -45.284761 
L 51.702797 -41.858093 
L 52.678322 -38.352221 
L 53.653846 -35.543 
L 54.629371 -33.099548 
L 55.604895 -30.41975 
L 56.58042 -27.426909 
L 57.555944 -24.212896 
L 58.531469 -20.935109 
L 59.506993 -17.85952 
L 60.482517 -15.145888 
L 61.458042 -12.806064 
L 62.433566 -10.846358 
L 63.409091 -9.279043 
L 64.384615 -7.995977 
L 65.36014 -6.867229 
L 66.335664 -5.891118 
L 67.311189 -5.084191 
L 68.286713 -4.433276 
L 68.286713 -2.470909 
L 68.286713 -2.470909 
L 67.311189 -2.470909 
L 66.335664 -2.470909 
L 65.36014 -2.470909 
L 64.384615 -2.470909 
L 63.409091 -2.470909 
L 62.433566 -2.470909 
L 61.458042 -2.470909 
L 60.482517 -2.470909 
L 59.506993 -2.470909 
L 58.531469 -2.470909 
L 57.555944 -2.470909 
L 56.58042 -2.470909 
L 55.604895 -2.470909 
L 54.629371 -2.470909 
L 53.653846 -2.470909 
L 52.678322 -2.470909 
L 51.702797 -2.470909 
L 50.727273 -2.470909 
L 49.751748 -2.470909 
L 48.776224 -2.470909 
L 47.800699 -2.470909 
L 46.825175 -2.470909 
L 45.84965 -2.470909 
L 44.874126 -2.470909 
L 43.898601 -2.470909 
L 42.923077 -2.470909 
L 41.947552 -2.470909 
L 40.972028 -2.470909 
L 39.996503 -2.470909 
L 39.020979 -2.470909 
L 38.045455 -2.470909 
L 37.06993 -2.470909 
L 36.094406 -2.470909 
L 35.118881 -2.470909 
L 34.143357 -2.470909 
L 33.167832 -2.470909 
L 32.192308 -2.470909 
L 31.216783 -2.470909 
L 30.241259 -2.470909 
L 29.265734 -2.470909 
L 28.29021 -2.470909 
L 27.314685 -2.470909 
L 26.339161 -2.470909 
L 25.363636 -2.470909 
z
" style="stroke: #8a8a8a; stroke-opacity: 0.2"/>
    </defs>
    <g clip-path="url(#pa8ccb36180)">
     <use xlink:href="#m9635a4ea25" x="0" y="54.36" style="fill: #8a8a8a; fill-opacity: 0.2; stroke: #8a8a8a; stroke-opacity: 0.2"/>
    </g>
   </g>
   <g id="line2d_1">
    <path d="M 388.258741 50.242902 
L 392.160839 49.571694 
L 395.087413 48.815958 
L 398.98951 47.446647 
L 402.891608 45.898186 
L 405.818182 44.479818 
L 408.744755 42.720237 
L 413.622378 39.392925 
L 417.524476 36.591041 
L 420.451049 34.156523 
L 423.377622 31.32505 
L 427.27972 27.556448 
L 430.206294 25.127972 
L 433.132867 22.733112 
L 436.059441 20.007189 
L 438.986014 17.250744 
L 440.937063 15.72562 
L 442.888112 14.549617 
L 444.839161 13.667506 
L 446.79021 13.013556 
L 448.741259 12.575585 
L 450.692308 12.352118 
L 452.643357 12.320068 
L 454.594406 12.490824 
L 456.545455 12.959762 
L 458.496503 13.845623 
L 460.447552 15.159868 
L 467.276224 20.498048 
L 470.202797 22.638223 
L 474.104895 25.884181 
L 478.982517 29.903255 
L 484.835664 34.767421 
L 489.713287 38.864178 
L 491.664336 40.279205 
L 493.615385 41.49516 
L 496.541958 43.050556 
L 502.395105 45.84128 
L 505.321678 47.020663 
L 508.248252 47.973857 
L 513.125874 49.316704 
L 516.052448 50.009226 
L 516.052448 50.009226 
" clip-path="url(#pa8ccb36180)" style="fill: none; stroke: #cf1313; stroke-width: 1.5; stroke-linecap: square"/>
   </g>
   <g id="line2d_2">
    <path d="M 398.013986 50.342604 
L 401.916084 49.761651 
L 404.842657 49.10379 
L 406.793706 48.468439 
L 409.72028 47.200474 
L 421.426573 41.332709 
L 424.353147 39.343158 
L 438.986014 28.209569 
L 444.839161 23.319031 
L 453.618881 16.490613 
L 455.56993 15.157792 
L 457.520979 14.088426 
L 459.472028 13.374035 
L 461.423077 13.019435 
L 463.374126 12.93969 
L 466.300699 13.09015 
L 469.227273 13.417074 
L 471.178322 13.795538 
L 473.129371 14.383545 
L 475.08042 15.208934 
L 478.006993 16.80028 
L 485.811189 21.552703 
L 488.737762 23.644476 
L 491.664336 26.105958 
L 495.566434 29.803132 
L 503.370629 37.613034 
L 505.321678 39.166441 
L 507.272727 40.450711 
L 510.199301 42.031126 
L 519.954545 46.806872 
L 522.881119 47.895484 
L 525.807692 48.739892 
L 529.70979 49.639094 
L 532.636364 50.144186 
L 532.636364 50.144186 
" clip-path="url(#pa8ccb36180)" style="fill: none; stroke: #116dc2; stroke-width: 1.5; stroke-linecap: square"/>
   </g>
   <g id="line2d_3">
    <path d="M 25.363636 49.822107 
L 26.339161 49.316707 
L 27.314685 48.6445 
L 28.29021 47.682013 
L 29.265734 46.32799 
L 30.241259 44.652498 
L 31.216783 42.800967 
L 32.192308 40.74385 
L 33.167832 38.39687 
L 34.143357 35.807588 
L 35.118881 33.103386 
L 36.094406 30.262142 
L 37.06993 27.063021 
L 38.045455 23.563473 
L 39.020979 20.135116 
L 39.996503 16.906519 
L 40.972028 13.739667 
L 41.947552 10.695405 
L 42.923077 8.048768 
L 43.898601 5.764908 
L 44.874126 3.829749 
L 45.84965 2.638392 
L 46.825175 2.470909 
L 47.800699 3.18356 
L 48.776224 4.532865 
L 49.751748 6.446251 
L 50.727273 9.075239 
L 51.702797 12.501907 
L 52.678322 16.007779 
L 53.653846 18.817 
L 54.629371 21.260452 
L 55.604895 23.94025 
L 56.58042 26.933091 
L 57.555944 30.147104 
L 58.531469 33.424891 
L 59.506993 36.50048 
L 60.482517 39.214112 
L 61.458042 41.553936 
L 62.433566 43.513642 
L 63.409091 45.080957 
L 64.384615 46.364023 
L 65.36014 47.492771 
L 66.335664 48.468882 
L 67.311189 49.275809 
L 68.286713 49.926724 
" clip-path="url(#pa8ccb36180)" style="fill: none; stroke: #8a8a8a; stroke-width: 1.5; stroke-linecap: square"/>
   </g>
  </g>
 </g>
 <defs>
  <clipPath id="pa8ccb36180">
   <rect x="0" y="-0" width="558" height="54.36"/>
  </clipPath>
 </defs>
</svg>
