<?xml version="1.0" encoding="utf-8" standalone="no"?>
<!DOCTYPE svg PUBLIC "-//W3C//DTD SVG 1.1//EN"
  "http://www.w3.org/Graphics/SVG/1.1/DTD/svg11.dtd">
<svg xmlns:xlink="http://www.w3.org/1999/xlink" width="558pt" height="54.36pt" viewBox="0 0 558 54.36" xmlns="http://www.w3.org/2000/svg" version="1.1">
 <metadata>
  <rdf:RDF xmlns:dc="http://purl.org/dc/elements/1.1/" xmlns:cc="http://creativecommons.org/ns#" xmlns:rdf="http://www.w3.org/1999/02/22-rdf-syntax-ns#">
   <cc:Work>
    <dc:type rdf:resource="http://purl.org/dc/dcmitype/StillImage"/>
    <dc:date>2024-09-14T12:47:21.025144</dc:date>
    <dc:format>image/svg+xml</dc:format>
    <dc:creator>
     <cc:Agent>
      <dc:title>Matplotlib v3.5.2, https://matplotlib.org/</dc:title>
     </cc:Agent>
    </dc:creator>
   </cc:Work>
  </rdf:RDF>
 </metadata>
 <defs>
  <style type="text/css">*{stroke-linejoin: round; stroke-linecap: butt}</style>
 </defs>
 <g id="figure_1">
  <g id="patch_1">
   <path d="M 0 54.36 
L 558 54.36 
L 558 0 
L 0 0 
L 0 54.36 
z
" style="fill: none; opacity: 0"/>
  </g>
  <g id="axes_1">
   <g id="PolyCollection_1">
    <defs>
     <path id="mf1c9f189c5" d="M 348.68032 -2.470909 
L 348.68032 -4.336089 
L 349.609391 -4.500703 
L 350.538462 -4.68405 
L 351.467532 -4.888924 
L 352.396603 -5.117705 
L 353.325674 -5.372331 
L 354.254745 -5.654036 
L 355.183816 -5.962885 
L 356.112887 -6.29731 
L 357.041958 -6.65388 
L 357.971029 -7.027499 
L 358.9001 -7.412047 
L 359.829171 -7.801349 
L 360.758242 -8.190239 
L 361.687313 -8.57549 
L 362.616384 -8.956493 
L 363.545455 -9.335627 
L 364.474525 -9.718349 
L 365.403596 -10.112987 
L 366.332667 -10.530182 
L 367.261738 -10.981856 
L 368.190809 -11.479702 
L 369.11988 -12.033301 
L 370.048951 -12.648235 
L 370.978022 -13.324693 
L 371.907093 -14.057029 
L 372.836164 -14.834551 
L 373.765235 -15.643432 
L 374.694306 -16.469287 
L 375.623377 -17.299708 
L 376.552448 -18.126054 
L 377.481518 -18.944023 
L 378.410589 -19.752911 
L 379.33966 -20.553951 
L 380.268731 -21.348427 
L 381.197802 -22.136371 
L 382.126873 -22.916442 
L 383.055944 -23.687106 
L 383.985015 -24.448672 
L 384.914086 -25.205213 
L 385.843157 -25.96533 
L 386.772228 -26.740987 
L 387.701299 -27.544421 
L 388.63037 -28.383996 
L 389.559441 -29.260455 
L 390.488511 -30.165104 
L 391.417582 -31.080802 
L 392.346653 -31.985579 
L 393.275724 -32.857693 
L 394.204795 -33.68034 
L 395.133866 -34.444494 
L 396.062937 -35.149122 
L 396.992008 -35.799134 
L 397.921079 -36.40219 
L 398.85015 -36.965777 
L 399.779221 -37.495556 
L 400.708292 -37.995278 
L 401.637363 -38.467849 
L 402.566434 -38.916733 
L 403.495504 -39.346872 
L 404.424575 -39.764631 
L 405.353646 -40.176725 
L 406.282717 -40.588453 
L 407.211788 -41.00179 
L 408.140859 -41.413927 
L 409.06993 -41.816674 
L 409.999001 -42.196934 
L 410.928072 -42.538113 
L 411.857143 -42.822087 
L 412.786214 -43.031175 
L 413.715285 -43.149674 
L 414.644356 -43.164747 
L 415.573427 -43.066818 
L 416.502498 -42.849909 
L 417.431568 -42.512365 
L 418.360639 -42.058135 
L 419.28971 -41.498337 
L 420.218781 -40.852348 
L 421.147852 -40.147543 
L 422.076923 -39.417024 
L 423.005994 -38.695326 
L 423.935065 -38.012862 
L 424.864136 -37.390491 
L 425.793207 -36.835756 
L 426.722278 -36.341989 
L 427.651349 -35.890637 
L 428.58042 -35.456183 
L 429.509491 -35.012255 
L 430.438561 -34.537176 
L 431.367632 -34.017479 
L 432.296703 -33.448649 
L 433.225774 -32.833266 
L 434.154845 -32.177567 
L 435.083916 -31.487783 
L 436.012987 -30.767564 
L 436.942058 -30.017206 
L 437.871129 -29.234709 
L 438.8002 -28.418013 
L 439.729271 -27.567409 
L 440.658342 -26.687151 
L 441.587413 -25.785667 
L 442.516484 -24.874321 
L 443.445554 -23.965197 
L 444.374625 -23.068712 
L 445.303696 -22.191871 
L 446.232767 -21.337706 
L 447.161838 -20.505992 
L 448.090909 -19.694887 
L 449.01998 -18.902815 
L 449.949051 -18.129915 
L 450.878122 -17.378531 
L 451.807193 -16.652662 
L 452.736264 -15.956601 
L 453.665335 -15.293332 
L 454.594406 -14.66324 
L 455.523477 -14.063586 
L 456.452547 -13.48885 
L 457.381618 -12.931799 
L 458.310689 -12.384886 
L 459.23976 -11.841617 
L 460.168831 -11.297565 
L 461.097902 -10.750934 
L 462.026973 -10.202698 
L 462.956044 -9.656401 
L 463.885115 -9.117721 
L 464.814186 -8.593827 
L 465.743257 -8.092556 
L 466.672328 -7.621449 
L 467.601399 -7.186743 
L 468.53047 -6.792482 
L 469.45954 -6.439928 
L 470.388611 -6.127419 
L 471.317682 -5.85072 
L 472.246753 -5.603818 
L 473.175824 -5.379966 
L 474.104895 -5.172748 
L 475.033966 -4.97697 
L 475.963037 -4.789199 
L 476.892108 -4.607935 
L 477.821179 -4.433442 
L 478.75025 -4.26733 
L 479.679321 -4.112002 
L 480.608392 -3.970032 
L 480.608392 -2.470909 
L 480.608392 -2.470909 
L 479.679321 -2.470909 
L 478.75025 -2.470909 
L 477.821179 -2.470909 
L 476.892108 -2.470909 
L 475.963037 -2.470909 
L 475.033966 -2.470909 
L 474.104895 -2.470909 
L 473.175824 -2.470909 
L 472.246753 -2.470909 
L 471.317682 -2.470909 
L 470.388611 -2.470909 
L 469.45954 -2.470909 
L 468.53047 -2.470909 
L 467.601399 -2.470909 
L 466.672328 -2.470909 
L 465.743257 -2.470909 
L 464.814186 -2.470909 
L 463.885115 -2.470909 
L 462.956044 -2.470909 
L 462.026973 -2.470909 
L 461.097902 -2.470909 
L 460.168831 -2.470909 
L 459.23976 -2.470909 
L 458.310689 -2.470909 
L 457.381618 -2.470909 
L 456.452547 -2.470909 
L 455.523477 -2.470909 
L 454.594406 -2.470909 
L 453.665335 -2.470909 
L 452.736264 -2.470909 
L 451.807193 -2.470909 
L 450.878122 -2.470909 
L 449.949051 -2.470909 
L 449.01998 -2.470909 
L 448.090909 -2.470909 
L 447.161838 -2.470909 
L 446.232767 -2.470909 
L 445.303696 -2.470909 
L 444.374625 -2.470909 
L 443.445554 -2.470909 
L 442.516484 -2.470909 
L 441.587413 -2.470909 
L 440.658342 -2.470909 
L 439.729271 -2.470909 
L 438.8002 -2.470909 
L 437.871129 -2.470909 
L 436.942058 -2.470909 
L 436.012987 -2.470909 
L 435.083916 -2.470909 
L 434.154845 -2.470909 
L 433.225774 -2.470909 
L 432.296703 -2.470909 
L 431.367632 -2.470909 
L 430.438561 -2.470909 
L 429.509491 -2.470909 
L 428.58042 -2.470909 
L 427.651349 -2.470909 
L 426.722278 -2.470909 
L 425.793207 -2.470909 
L 424.864136 -2.470909 
L 423.935065 -2.470909 
L 423.005994 -2.470909 
L 422.076923 -2.470909 
L 421.147852 -2.470909 
L 420.218781 -2.470909 
L 419.28971 -2.470909 
L 418.360639 -2.470909 
L 417.431568 -2.470909 
L 416.502498 -2.470909 
L 415.573427 -2.470909 
L 414.644356 -2.470909 
L 413.715285 -2.470909 
L 412.786214 -2.470909 
L 411.857143 -2.470909 
L 410.928072 -2.470909 
L 409.999001 -2.470909 
L 409.06993 -2.470909 
L 408.140859 -2.470909 
L 407.211788 -2.470909 
L 406.282717 -2.470909 
L 405.353646 -2.470909 
L 404.424575 -2.470909 
L 403.495504 -2.470909 
L 402.566434 -2.470909 
L 401.637363 -2.470909 
L 400.708292 -2.470909 
L 399.779221 -2.470909 
L 398.85015 -2.470909 
L 397.921079 -2.470909 
L 396.992008 -2.470909 
L 396.062937 -2.470909 
L 395.133866 -2.470909 
L 394.204795 -2.470909 
L 393.275724 -2.470909 
L 392.346653 -2.470909 
L 391.417582 -2.470909 
L 390.488511 -2.470909 
L 389.559441 -2.470909 
L 388.63037 -2.470909 
L 387.701299 -2.470909 
L 386.772228 -2.470909 
L 385.843157 -2.470909 
L 384.914086 -2.470909 
L 383.985015 -2.470909 
L 383.055944 -2.470909 
L 382.126873 -2.470909 
L 381.197802 -2.470909 
L 380.268731 -2.470909 
L 379.33966 -2.470909 
L 378.410589 -2.470909 
L 377.481518 -2.470909 
L 376.552448 -2.470909 
L 375.623377 -2.470909 
L 374.694306 -2.470909 
L 373.765235 -2.470909 
L 372.836164 -2.470909 
L 371.907093 -2.470909 
L 370.978022 -2.470909 
L 370.048951 -2.470909 
L 369.11988 -2.470909 
L 368.190809 -2.470909 
L 367.261738 -2.470909 
L 366.332667 -2.470909 
L 365.403596 -2.470909 
L 364.474525 -2.470909 
L 363.545455 -2.470909 
L 362.616384 -2.470909 
L 361.687313 -2.470909 
L 360.758242 -2.470909 
L 359.829171 -2.470909 
L 358.9001 -2.470909 
L 357.971029 -2.470909 
L 357.041958 -2.470909 
L 356.112887 -2.470909 
L 355.183816 -2.470909 
L 354.254745 -2.470909 
L 353.325674 -2.470909 
L 352.396603 -2.470909 
L 351.467532 -2.470909 
L 350.538462 -2.470909 
L 349.609391 -2.470909 
L 348.68032 -2.470909 
z
" style="stroke: #cf1313; stroke-opacity: 0.2"/>
    </defs>
    <g clip-path="url(#p3fbf018bf5)">
     <use xlink:href="#mf1c9f189c5" x="0" y="54.36" style="fill: #cf1313; fill-opacity: 0.2; stroke: #cf1313; stroke-opacity: 0.2"/>
    </g>
   </g>
   <g id="PolyCollection_2">
    <defs>
     <path id="mbee62a55c0" d="M 385.843157 -2.470909 
L 385.843157 -3.907283 
L 386.772228 -4.044615 
L 387.701299 -4.194516 
L 388.63037 -4.356034 
L 389.559441 -4.528148 
L 390.488511 -4.710015 
L 391.417582 -4.901133 
L 392.346653 -5.10135 
L 393.275724 -5.310719 
L 394.204795 -5.529247 
L 395.133866 -5.756674 
L 396.062937 -5.992378 
L 396.992008 -6.235498 
L 397.921079 -6.485254 
L 398.85015 -6.741391 
L 399.779221 -7.004599 
L 400.708292 -7.276768 
L 401.637363 -7.561009 
L 402.566434 -7.861405 
L 403.495504 -8.182572 
L 404.424575 -8.529138 
L 405.353646 -8.905254 
L 406.282717 -9.314234 
L 407.211788 -9.758396 
L 408.140859 -10.239077 
L 409.06993 -10.7568 
L 409.999001 -11.311505 
L 410.928072 -11.902744 
L 411.857143 -12.529772 
L 412.786214 -13.191487 
L 413.715285 -13.886228 
L 414.644356 -14.611507 
L 415.573427 -15.36377 
L 416.502498 -16.13829 
L 417.431568 -16.92925 
L 418.360639 -17.730024 
L 419.28971 -18.533602 
L 420.218781 -19.333086 
L 421.147852 -20.1222 
L 422.076923 -20.89578 
L 423.005994 -21.650228 
L 423.935065 -22.383926 
L 424.864136 -23.09755 
L 425.793207 -23.794169 
L 426.722278 -24.478995 
L 427.651349 -25.158679 
L 428.58042 -25.840179 
L 429.509491 -26.529383 
L 430.438561 -27.22981 
L 431.367632 -27.941783 
L 432.296703 -28.662345 
L 433.225774 -29.385987 
L 434.154845 -30.106003 
L 435.083916 -30.816071 
L 436.012987 -31.511632 
L 436.942058 -32.190714 
L 437.871129 -32.854078 
L 438.8002 -33.504737 
L 439.729271 -34.147055 
L 440.658342 -34.785647 
L 441.587413 -35.424264 
L 442.516484 -36.064813 
L 443.445554 -36.706606 
L 444.374625 -37.345983 
L 445.303696 -37.976416 
L 446.232767 -38.589131 
L 447.161838 -39.174181 
L 448.090909 -39.721745 
L 449.01998 -40.223319 
L 449.949051 -40.672519 
L 450.878122 -41.065312 
L 451.807193 -41.399692 
L 452.736264 -41.675012 
L 453.665335 -41.891257 
L 454.594406 -42.048521 
L 455.523477 -42.146887 
L 456.452547 -42.186708 
L 457.381618 -42.169179 
L 458.310689 -42.097014 
L 459.23976 -41.97495 
L 460.168831 -41.809886 
L 461.097902 -41.610512 
L 462.026973 -41.386435 
L 462.956044 -41.146932 
L 463.885115 -40.899612 
L 464.814186 -40.649304 
L 465.743257 -40.397467 
L 466.672328 -40.142259 
L 467.601399 -39.87925 
L 468.53047 -39.602515 
L 469.45954 -39.30579 
L 470.388611 -38.983332 
L 471.317682 -38.63028 
L 472.246753 -38.242546 
L 473.175824 -37.816458 
L 474.104895 -37.348532 
L 475.033966 -36.835704 
L 475.963037 -36.276183 
L 476.892108 -35.670785 
L 477.821179 -35.024336 
L 478.75025 -34.346549 
L 479.679321 -33.651833 
L 480.608392 -32.957739 
L 481.537463 -32.282173 
L 482.466533 -31.63992 
L 483.395604 -31.039379 
L 484.324675 -30.480443 
L 485.253746 -29.954218 
L 486.182817 -29.444795 
L 487.111888 -28.932678 
L 488.040959 -28.398957 
L 488.97003 -27.8291 
L 489.899101 -27.215323 
L 490.828172 -26.556993 
L 491.757243 -25.859122 
L 492.686314 -25.129605 
L 493.615385 -24.37621 
L 494.544456 -23.604319 
L 495.473526 -22.816063 
L 496.402597 -22.010973 
L 497.331668 -21.18775 
L 498.260739 -20.346396 
L 499.18981 -19.489953 
L 500.118881 -18.625248 
L 501.047952 -17.762505 
L 501.977023 -16.91397 
L 502.906094 -16.09205 
L 503.835165 -15.307453 
L 504.764236 -14.567793 
L 505.693307 -13.876883 
L 506.622378 -13.234765 
L 507.551449 -12.638346 
L 508.480519 -12.082436 
L 509.40959 -11.560939 
L 510.338661 -11.067994 
L 511.267732 -10.598868 
L 512.196803 -10.150486 
L 513.125874 -9.721531 
L 514.054945 -9.31212 
L 514.984016 -8.923186 
L 515.913087 -8.555715 
L 516.842158 -8.21006 
L 517.771229 -7.88549 
L 518.7003 -7.580087 
L 519.629371 -7.290996 
L 520.558442 -7.014934 
L 521.487512 -6.748809 
L 522.416583 -6.490292 
L 523.345654 -6.238182 
L 524.274725 -5.992511 
L 525.203796 -5.754368 
L 526.132867 -5.525519 
L 527.061938 -5.307937 
L 527.991009 -5.103346 
L 528.92008 -4.91288 
L 529.849151 -4.736897 
L 530.778222 -4.574935 
L 531.707293 -4.425799 
L 532.636364 -4.287712 
L 532.636364 -2.470909 
L 532.636364 -2.470909 
L 531.707293 -2.470909 
L 530.778222 -2.470909 
L 529.849151 -2.470909 
L 528.92008 -2.470909 
L 527.991009 -2.470909 
L 527.061938 -2.470909 
L 526.132867 -2.470909 
L 525.203796 -2.470909 
L 524.274725 -2.470909 
L 523.345654 -2.470909 
L 522.416583 -2.470909 
L 521.487512 -2.470909 
L 520.558442 -2.470909 
L 519.629371 -2.470909 
L 518.7003 -2.470909 
L 517.771229 -2.470909 
L 516.842158 -2.470909 
L 515.913087 -2.470909 
L 514.984016 -2.470909 
L 514.054945 -2.470909 
L 513.125874 -2.470909 
L 512.196803 -2.470909 
L 511.267732 -2.470909 
L 510.338661 -2.470909 
L 509.40959 -2.470909 
L 508.480519 -2.470909 
L 507.551449 -2.470909 
L 506.622378 -2.470909 
L 505.693307 -2.470909 
L 504.764236 -2.470909 
L 503.835165 -2.470909 
L 502.906094 -2.470909 
L 501.977023 -2.470909 
L 501.047952 -2.470909 
L 500.118881 -2.470909 
L 499.18981 -2.470909 
L 498.260739 -2.470909 
L 497.331668 -2.470909 
L 496.402597 -2.470909 
L 495.473526 -2.470909 
L 494.544456 -2.470909 
L 493.615385 -2.470909 
L 492.686314 -2.470909 
L 491.757243 -2.470909 
L 490.828172 -2.470909 
L 489.899101 -2.470909 
L 488.97003 -2.470909 
L 488.040959 -2.470909 
L 487.111888 -2.470909 
L 486.182817 -2.470909 
L 485.253746 -2.470909 
L 484.324675 -2.470909 
L 483.395604 -2.470909 
L 482.466533 -2.470909 
L 481.537463 -2.470909 
L 480.608392 -2.470909 
L 479.679321 -2.470909 
L 478.75025 -2.470909 
L 477.821179 -2.470909 
L 476.892108 -2.470909 
L 475.963037 -2.470909 
L 475.033966 -2.470909 
L 474.104895 -2.470909 
L 473.175824 -2.470909 
L 472.246753 -2.470909 
L 471.317682 -2.470909 
L 470.388611 -2.470909 
L 469.45954 -2.470909 
L 468.53047 -2.470909 
L 467.601399 -2.470909 
L 466.672328 -2.470909 
L 465.743257 -2.470909 
L 464.814186 -2.470909 
L 463.885115 -2.470909 
L 462.956044 -2.470909 
L 462.026973 -2.470909 
L 461.097902 -2.470909 
L 460.168831 -2.470909 
L 459.23976 -2.470909 
L 458.310689 -2.470909 
L 457.381618 -2.470909 
L 456.452547 -2.470909 
L 455.523477 -2.470909 
L 454.594406 -2.470909 
L 453.665335 -2.470909 
L 452.736264 -2.470909 
L 451.807193 -2.470909 
L 450.878122 -2.470909 
L 449.949051 -2.470909 
L 449.01998 -2.470909 
L 448.090909 -2.470909 
L 447.161838 -2.470909 
L 446.232767 -2.470909 
L 445.303696 -2.470909 
L 444.374625 -2.470909 
L 443.445554 -2.470909 
L 442.516484 -2.470909 
L 441.587413 -2.470909 
L 440.658342 -2.470909 
L 439.729271 -2.470909 
L 438.8002 -2.470909 
L 437.871129 -2.470909 
L 436.942058 -2.470909 
L 436.012987 -2.470909 
L 435.083916 -2.470909 
L 434.154845 -2.470909 
L 433.225774 -2.470909 
L 432.296703 -2.470909 
L 431.367632 -2.470909 
L 430.438561 -2.470909 
L 429.509491 -2.470909 
L 428.58042 -2.470909 
L 427.651349 -2.470909 
L 426.722278 -2.470909 
L 425.793207 -2.470909 
L 424.864136 -2.470909 
L 423.935065 -2.470909 
L 423.005994 -2.470909 
L 422.076923 -2.470909 
L 421.147852 -2.470909 
L 420.218781 -2.470909 
L 419.28971 -2.470909 
L 418.360639 -2.470909 
L 417.431568 -2.470909 
L 416.502498 -2.470909 
L 415.573427 -2.470909 
L 414.644356 -2.470909 
L 413.715285 -2.470909 
L 412.786214 -2.470909 
L 411.857143 -2.470909 
L 410.928072 -2.470909 
L 409.999001 -2.470909 
L 409.06993 -2.470909 
L 408.140859 -2.470909 
L 407.211788 -2.470909 
L 406.282717 -2.470909 
L 405.353646 -2.470909 
L 404.424575 -2.470909 
L 403.495504 -2.470909 
L 402.566434 -2.470909 
L 401.637363 -2.470909 
L 400.708292 -2.470909 
L 399.779221 -2.470909 
L 398.85015 -2.470909 
L 397.921079 -2.470909 
L 396.992008 -2.470909 
L 396.062937 -2.470909 
L 395.133866 -2.470909 
L 394.204795 -2.470909 
L 393.275724 -2.470909 
L 392.346653 -2.470909 
L 391.417582 -2.470909 
L 390.488511 -2.470909 
L 389.559441 -2.470909 
L 388.63037 -2.470909 
L 387.701299 -2.470909 
L 386.772228 -2.470909 
L 385.843157 -2.470909 
z
" style="stroke: #116dc2; stroke-opacity: 0.2"/>
    </defs>
    <g clip-path="url(#p3fbf018bf5)">
     <use xlink:href="#mbee62a55c0" x="0" y="54.36" style="fill: #116dc2; fill-opacity: 0.2; stroke: #116dc2; stroke-opacity: 0.2"/>
    </g>
   </g>
   <g id="PolyCollection_3">
    <defs>
     <path id="mf7463d0294" d="M 25.363636 -2.470909 
L 25.363636 -4.409649 
L 26.292707 -4.893975 
L 27.221778 -5.566169 
L 28.150849 -6.514478 
L 29.07992 -7.751418 
L 30.008991 -9.171892 
L 30.938062 -10.62618 
L 31.867133 -12.084439 
L 32.796204 -13.676037 
L 33.725275 -15.563715 
L 34.654346 -17.808178 
L 35.583417 -20.332914 
L 36.512488 -23.03203 
L 37.441558 -25.871681 
L 38.370629 -28.840841 
L 39.2997 -31.88404 
L 40.228771 -34.911333 
L 41.157842 -37.821272 
L 42.086913 -40.518598 
L 43.015984 -42.982547 
L 43.945055 -45.362142 
L 44.874126 -47.766828 
L 45.803197 -49.864026 
L 46.732268 -51.112073 
L 47.661339 -51.485564 
L 48.59041 -51.538931 
L 49.519481 -51.71475 
L 50.448551 -51.889091 
L 51.377622 -51.603868 
L 52.306693 -50.592799 
L 53.235764 -49.002758 
L 54.164835 -47.107469 
L 55.093906 -44.988104 
L 56.022977 -42.625165 
L 56.952048 -40.112061 
L 57.881119 -37.56777 
L 58.81019 -34.923883 
L 59.739261 -32.009426 
L 60.668332 -28.875015 
L 61.597403 -25.86047 
L 62.526474 -23.246936 
L 63.455544 -20.977397 
L 64.384615 -18.794884 
L 65.313686 -16.557472 
L 66.242757 -14.372934 
L 67.171828 -12.420262 
L 68.100899 -10.709195 
L 69.02997 -9.140809 
L 69.959041 -7.713641 
L 70.888112 -6.502885 
L 71.817183 -5.516971 
L 72.746254 -4.717735 
L 72.746254 -2.470909 
L 72.746254 -2.470909 
L 71.817183 -2.470909 
L 70.888112 -2.470909 
L 69.959041 -2.470909 
L 69.02997 -2.470909 
L 68.100899 -2.470909 
L 67.171828 -2.470909 
L 66.242757 -2.470909 
L 65.313686 -2.470909 
L 64.384615 -2.470909 
L 63.455544 -2.470909 
L 62.526474 -2.470909 
L 61.597403 -2.470909 
L 60.668332 -2.470909 
L 59.739261 -2.470909 
L 58.81019 -2.470909 
L 57.881119 -2.470909 
L 56.952048 -2.470909 
L 56.022977 -2.470909 
L 55.093906 -2.470909 
L 54.164835 -2.470909 
L 53.235764 -2.470909 
L 52.306693 -2.470909 
L 51.377622 -2.470909 
L 50.448551 -2.470909 
L 49.519481 -2.470909 
L 48.59041 -2.470909 
L 47.661339 -2.470909 
L 46.732268 -2.470909 
L 45.803197 -2.470909 
L 44.874126 -2.470909 
L 43.945055 -2.470909 
L 43.015984 -2.470909 
L 42.086913 -2.470909 
L 41.157842 -2.470909 
L 40.228771 -2.470909 
L 39.2997 -2.470909 
L 38.370629 -2.470909 
L 37.441558 -2.470909 
L 36.512488 -2.470909 
L 35.583417 -2.470909 
L 34.654346 -2.470909 
L 33.725275 -2.470909 
L 32.796204 -2.470909 
L 31.867133 -2.470909 
L 30.938062 -2.470909 
L 30.008991 -2.470909 
L 29.07992 -2.470909 
L 28.150849 -2.470909 
L 27.221778 -2.470909 
L 26.292707 -2.470909 
L 25.363636 -2.470909 
z
" style="stroke: #8a8a8a; stroke-opacity: 0.2"/>
    </defs>
    <g clip-path="url(#p3fbf018bf5)">
     <use xlink:href="#mf7463d0294" x="0" y="54.36" style="fill: #8a8a8a; fill-opacity: 0.2; stroke: #8a8a8a; stroke-opacity: 0.2"/>
    </g>
   </g>
   <g id="line2d_1">
    <path d="M 348.68032 50.023911 
L 351.467532 49.471076 
L 354.254745 48.705964 
L 357.041958 47.70612 
L 365.403596 44.247013 
L 368.190809 42.880298 
L 370.048951 41.711765 
L 371.907093 40.302971 
L 375.623377 37.060292 
L 381.197802 32.223629 
L 389.559441 25.099545 
L 394.204795 20.67966 
L 396.062937 19.210878 
L 398.85015 17.394223 
L 401.637363 15.892151 
L 405.353646 14.183275 
L 410.928072 11.821887 
L 412.786214 11.328825 
L 414.644356 11.195253 
L 415.573427 11.293182 
L 416.502498 11.510091 
L 418.360639 12.301865 
L 420.218781 13.507652 
L 424.864136 16.969509 
L 426.722278 18.018011 
L 431.367632 20.342521 
L 433.225774 21.526734 
L 436.012987 23.592436 
L 438.8002 25.941987 
L 442.516484 29.485679 
L 446.232767 33.022294 
L 449.949051 36.230085 
L 452.736264 38.403399 
L 455.523477 40.296414 
L 460.168831 43.062435 
L 465.743257 46.267444 
L 468.53047 47.567518 
L 471.317682 48.50928 
L 475.033966 49.38303 
L 479.679321 50.247998 
L 480.608392 50.389968 
L 480.608392 50.389968 
" clip-path="url(#p3fbf018bf5)" style="fill: none; stroke: #cf1313; stroke-width: 1.5; stroke-linecap: square"/>
   </g>
   <g id="line2d_2">
    <path d="M 385.843157 50.452717 
L 389.559441 49.831852 
L 394.204795 48.830753 
L 399.779221 47.355401 
L 403.495504 46.177428 
L 406.282717 45.045766 
L 409.06993 43.6032 
L 411.857143 41.830228 
L 414.644356 39.748493 
L 418.360639 36.629976 
L 423.005994 32.709772 
L 426.722278 29.881005 
L 432.296703 25.697655 
L 436.942058 22.169286 
L 443.445554 17.653394 
L 447.161838 15.185819 
L 449.01998 14.136681 
L 450.878122 13.294688 
L 452.736264 12.684988 
L 454.594406 12.311479 
L 456.452547 12.173292 
L 458.310689 12.262986 
L 460.168831 12.550114 
L 463.885115 13.460388 
L 469.45954 15.05421 
L 472.246753 16.117454 
L 474.104895 17.011468 
L 475.963037 18.083817 
L 478.75025 20.013451 
L 482.466533 22.72008 
L 485.253746 24.405782 
L 488.97003 26.5309 
L 491.757243 28.500878 
L 495.473526 31.543937 
L 499.18981 34.870047 
L 503.835165 39.052547 
L 505.693307 40.483117 
L 508.480519 42.277564 
L 511.267732 43.761132 
L 514.984016 45.436814 
L 517.771229 46.47451 
L 521.487512 47.611191 
L 527.061938 49.052063 
L 530.778222 49.785065 
L 532.636364 50.072288 
L 532.636364 50.072288 
" clip-path="url(#p3fbf018bf5)" style="fill: none; stroke: #116dc2; stroke-width: 1.5; stroke-linecap: square"/>
   </g>
   <g id="line2d_3">
    <path d="M 25.363636 49.950351 
L 26.292707 49.466025 
L 27.221778 48.793831 
L 28.150849 47.845522 
L 29.07992 46.608582 
L 30.008991 45.188108 
L 30.938062 43.73382 
L 31.867133 42.275561 
L 32.796204 40.683963 
L 33.725275 38.796285 
L 34.654346 36.551822 
L 35.583417 34.027086 
L 36.512488 31.32797 
L 37.441558 28.488319 
L 38.370629 25.519159 
L 39.2997 22.47596 
L 40.228771 19.448667 
L 41.157842 16.538728 
L 42.086913 13.841402 
L 43.015984 11.377453 
L 43.945055 8.997858 
L 44.874126 6.593172 
L 45.803197 4.495974 
L 46.732268 3.247927 
L 47.661339 2.874436 
L 48.59041 2.821069 
L 49.519481 2.64525 
L 50.448551 2.470909 
L 51.377622 2.756132 
L 52.306693 3.767201 
L 53.235764 5.357242 
L 54.164835 7.252531 
L 55.093906 9.371896 
L 56.022977 11.734835 
L 56.952048 14.247939 
L 57.881119 16.79223 
L 58.81019 19.436117 
L 59.739261 22.350574 
L 60.668332 25.484985 
L 61.597403 28.49953 
L 62.526474 31.113064 
L 63.455544 33.382603 
L 64.384615 35.565116 
L 65.313686 37.802528 
L 66.242757 39.987066 
L 67.171828 41.939738 
L 68.100899 43.650805 
L 69.02997 45.219191 
L 69.959041 46.646359 
L 70.888112 47.857115 
L 71.817183 48.843029 
L 72.746254 49.642265 
" clip-path="url(#p3fbf018bf5)" style="fill: none; stroke: #8a8a8a; stroke-width: 1.5; stroke-linecap: square"/>
   </g>
  </g>
 </g>
 <defs>
  <clipPath id="p3fbf018bf5">
   <rect x="0" y="-0" width="558" height="54.36"/>
  </clipPath>
 </defs>
</svg>
