<?xml version="1.0" encoding="utf-8" standalone="no"?>
<!DOCTYPE svg PUBLIC "-//W3C//DTD SVG 1.1//EN"
  "http://www.w3.org/Graphics/SVG/1.1/DTD/svg11.dtd">
<svg xmlns:xlink="http://www.w3.org/1999/xlink" width="558pt" height="54.36pt" viewBox="0 0 558 54.36" xmlns="http://www.w3.org/2000/svg" version="1.1">
 <metadata>
  <rdf:RDF xmlns:dc="http://purl.org/dc/elements/1.1/" xmlns:cc="http://creativecommons.org/ns#" xmlns:rdf="http://www.w3.org/1999/02/22-rdf-syntax-ns#">
   <cc:Work>
    <dc:type rdf:resource="http://purl.org/dc/dcmitype/StillImage"/>
    <dc:date>2024-09-15T09:31:23.978286</dc:date>
    <dc:format>image/svg+xml</dc:format>
    <dc:creator>
     <cc:Agent>
      <dc:title>Matplotlib v3.5.2, https://matplotlib.org/</dc:title>
     </cc:Agent>
    </dc:creator>
   </cc:Work>
  </rdf:RDF>
 </metadata>
 <defs>
  <style type="text/css">*{stroke-linejoin: round; stroke-linecap: butt}</style>
 </defs>
 <g id="figure_1">
  <g id="patch_1">
   <path d="M 0 54.36 
L 558 54.36 
L 558 0 
L 0 0 
L 0 54.36 
z
" style="fill: none; opacity: 0"/>
  </g>
  <g id="axes_1">
   <g id="PolyCollection_1">
    <defs>
     <path id="maebe109e30" d="M 345.065574 -2.470909 
L 345.065574 -4.099373 
L 345.989568 -4.255347 
L 346.913562 -4.417906 
L 347.837556 -4.586012 
L 348.76155 -4.758974 
L 349.685544 -4.936405 
L 350.609538 -5.118464 
L 351.533532 -5.306354 
L 352.457526 -5.502857 
L 353.38152 -5.712527 
L 354.305514 -5.941281 
L 355.229508 -6.195328 
L 356.153502 -6.479692 
L 357.077496 -6.79685 
L 358.00149 -7.14599 
L 358.925484 -7.523248 
L 359.849478 -7.922887 
L 360.773472 -8.339051 
L 361.697466 -8.7675 
L 362.621461 -9.206799 
L 363.545455 -9.658669 
L 364.469449 -10.127547 
L 365.393443 -10.619672 
L 366.317437 -11.142062 
L 367.241431 -11.701657 
L 368.165425 -12.304641 
L 369.089419 -12.955835 
L 370.013413 -13.658004 
L 370.937407 -14.411058 
L 371.861401 -15.211365 
L 372.785395 -16.051457 
L 373.709389 -16.920428 
L 374.633383 -17.805108 
L 375.557377 -18.691808 
L 376.481371 -19.568301 
L 377.405365 -20.425561 
L 378.329359 -21.258938 
L 379.253353 -22.068548 
L 380.177347 -22.858874 
L 381.101341 -23.637732 
L 382.025335 -24.414823 
L 382.949329 -25.200166 
L 383.873323 -26.002654 
L 384.797317 -26.82889 
L 385.721311 -27.682334 
L 386.645306 -28.562742 
L 387.5693 -29.465848 
L 388.493294 -30.383323 
L 389.417288 -31.303131 
L 390.341282 -32.210421 
L 391.265276 -33.089031 
L 392.18927 -33.923541 
L 393.113264 -34.701588 
L 394.037258 -35.416033 
L 394.961252 -36.066451 
L 395.885246 -36.65954 
L 396.80924 -37.208194 
L 397.733234 -37.729325 
L 398.657228 -38.240758 
L 399.581222 -38.757736 
L 400.505216 -39.289673 
L 401.42921 -39.837753 
L 402.353204 -40.393924 
L 403.277198 -40.941666 
L 404.201192 -41.458587 
L 405.125186 -41.920481 
L 406.04918 -42.305972 
L 406.973174 -42.600543 
L 407.897168 -42.798779 
L 408.821162 -42.904174 
L 409.745156 -42.926616 
L 410.669151 -42.87853 
L 411.593145 -42.771056 
L 412.517139 -42.611601 
L 413.441133 -42.403446 
L 414.365127 -42.147291 
L 415.289121 -41.843889 
L 416.213115 -41.496576 
L 417.137109 -41.112659 
L 418.061103 -40.703077 
L 418.985097 -40.280447 
L 419.909091 -39.856118 
L 420.833085 -39.437219 
L 421.757079 -39.024653 
L 422.681073 -38.612712 
L 423.605067 -38.190445 
L 424.529061 -37.744398 
L 425.453055 -37.261879 
L 426.377049 -36.733755 
L 427.301043 -36.155982 
L 428.225037 -35.529447 
L 429.149031 -34.858319 
L 430.073025 -34.147524 
L 430.997019 -33.400264 
L 431.921013 -32.616404 
L 432.845007 -31.792266 
L 433.769001 -30.921895 
L 434.692996 -29.999409 
L 435.61699 -29.021742 
L 436.540984 -27.990986 
L 437.464978 -26.915678 
L 438.388972 -25.810679 
L 439.312966 -24.695673 
L 440.23696 -23.592618 
L 441.160954 -22.522717 
L 442.084948 -21.503514 
L 443.008942 -20.546625 
L 443.932936 -19.656472 
L 444.85693 -18.830178 
L 445.780924 -18.05856 
L 446.704918 -17.328 
L 447.628912 -16.622877 
L 448.552906 -15.928148 
L 449.4769 -15.231761 
L 450.400894 -14.526572 
L 451.324888 -13.811552 
L 452.248882 -13.092042 
L 453.172876 -12.378925 
L 454.09687 -11.686718 
L 455.020864 -11.030838 
L 455.944858 -10.424605 
L 456.868852 -9.876732 
L 457.792846 -9.389947 
L 458.716841 -8.961099 
L 459.640835 -8.582566 
L 460.564829 -8.244405 
L 461.488823 -7.936498 
L 462.412817 -7.650092 
L 463.336811 -7.378507 
L 464.260805 -7.117108 
L 465.184799 -6.862853 
L 466.108793 -6.613748 
L 467.032787 -6.368404 
L 467.956781 -6.12578 
L 468.880775 -5.88508 
L 469.804769 -5.645807 
L 470.728763 -5.407926 
L 471.652757 -5.172082 
L 472.576751 -4.93979 
L 473.500745 -4.71344 
L 474.424739 -4.496065 
L 474.424739 -2.470909 
L 474.424739 -2.470909 
L 473.500745 -2.470909 
L 472.576751 -2.470909 
L 471.652757 -2.470909 
L 470.728763 -2.470909 
L 469.804769 -2.470909 
L 468.880775 -2.470909 
L 467.956781 -2.470909 
L 467.032787 -2.470909 
L 466.108793 -2.470909 
L 465.184799 -2.470909 
L 464.260805 -2.470909 
L 463.336811 -2.470909 
L 462.412817 -2.470909 
L 461.488823 -2.470909 
L 460.564829 -2.470909 
L 459.640835 -2.470909 
L 458.716841 -2.470909 
L 457.792846 -2.470909 
L 456.868852 -2.470909 
L 455.944858 -2.470909 
L 455.020864 -2.470909 
L 454.09687 -2.470909 
L 453.172876 -2.470909 
L 452.248882 -2.470909 
L 451.324888 -2.470909 
L 450.400894 -2.470909 
L 449.4769 -2.470909 
L 448.552906 -2.470909 
L 447.628912 -2.470909 
L 446.704918 -2.470909 
L 445.780924 -2.470909 
L 444.85693 -2.470909 
L 443.932936 -2.470909 
L 443.008942 -2.470909 
L 442.084948 -2.470909 
L 441.160954 -2.470909 
L 440.23696 -2.470909 
L 439.312966 -2.470909 
L 438.388972 -2.470909 
L 437.464978 -2.470909 
L 436.540984 -2.470909 
L 435.61699 -2.470909 
L 434.692996 -2.470909 
L 433.769001 -2.470909 
L 432.845007 -2.470909 
L 431.921013 -2.470909 
L 430.997019 -2.470909 
L 430.073025 -2.470909 
L 429.149031 -2.470909 
L 428.225037 -2.470909 
L 427.301043 -2.470909 
L 426.377049 -2.470909 
L 425.453055 -2.470909 
L 424.529061 -2.470909 
L 423.605067 -2.470909 
L 422.681073 -2.470909 
L 421.757079 -2.470909 
L 420.833085 -2.470909 
L 419.909091 -2.470909 
L 418.985097 -2.470909 
L 418.061103 -2.470909 
L 417.137109 -2.470909 
L 416.213115 -2.470909 
L 415.289121 -2.470909 
L 414.365127 -2.470909 
L 413.441133 -2.470909 
L 412.517139 -2.470909 
L 411.593145 -2.470909 
L 410.669151 -2.470909 
L 409.745156 -2.470909 
L 408.821162 -2.470909 
L 407.897168 -2.470909 
L 406.973174 -2.470909 
L 406.04918 -2.470909 
L 405.125186 -2.470909 
L 404.201192 -2.470909 
L 403.277198 -2.470909 
L 402.353204 -2.470909 
L 401.42921 -2.470909 
L 400.505216 -2.470909 
L 399.581222 -2.470909 
L 398.657228 -2.470909 
L 397.733234 -2.470909 
L 396.80924 -2.470909 
L 395.885246 -2.470909 
L 394.961252 -2.470909 
L 394.037258 -2.470909 
L 393.113264 -2.470909 
L 392.18927 -2.470909 
L 391.265276 -2.470909 
L 390.341282 -2.470909 
L 389.417288 -2.470909 
L 388.493294 -2.470909 
L 387.5693 -2.470909 
L 386.645306 -2.470909 
L 385.721311 -2.470909 
L 384.797317 -2.470909 
L 383.873323 -2.470909 
L 382.949329 -2.470909 
L 382.025335 -2.470909 
L 381.101341 -2.470909 
L 380.177347 -2.470909 
L 379.253353 -2.470909 
L 378.329359 -2.470909 
L 377.405365 -2.470909 
L 376.481371 -2.470909 
L 375.557377 -2.470909 
L 374.633383 -2.470909 
L 373.709389 -2.470909 
L 372.785395 -2.470909 
L 371.861401 -2.470909 
L 370.937407 -2.470909 
L 370.013413 -2.470909 
L 369.089419 -2.470909 
L 368.165425 -2.470909 
L 367.241431 -2.470909 
L 366.317437 -2.470909 
L 365.393443 -2.470909 
L 364.469449 -2.470909 
L 363.545455 -2.470909 
L 362.621461 -2.470909 
L 361.697466 -2.470909 
L 360.773472 -2.470909 
L 359.849478 -2.470909 
L 358.925484 -2.470909 
L 358.00149 -2.470909 
L 357.077496 -2.470909 
L 356.153502 -2.470909 
L 355.229508 -2.470909 
L 354.305514 -2.470909 
L 353.38152 -2.470909 
L 352.457526 -2.470909 
L 351.533532 -2.470909 
L 350.609538 -2.470909 
L 349.685544 -2.470909 
L 348.76155 -2.470909 
L 347.837556 -2.470909 
L 346.913562 -2.470909 
L 345.989568 -2.470909 
L 345.065574 -2.470909 
z
" style="stroke: #cf1313; stroke-opacity: 0.2"/>
    </defs>
    <g clip-path="url(#p3442f235c6)">
     <use xlink:href="#maebe109e30" x="0" y="54.36" style="fill: #cf1313; fill-opacity: 0.2; stroke: #cf1313; stroke-opacity: 0.2"/>
    </g>
   </g>
   <g id="PolyCollection_2">
    <defs>
     <path id="m895c519173" d="M 382.949329 -2.470909 
L 382.949329 -3.875737 
L 383.873323 -3.983377 
L 384.797317 -4.109228 
L 385.721311 -4.255666 
L 386.645306 -4.423929 
L 387.5693 -4.614217 
L 388.493294 -4.825952 
L 389.417288 -5.058064 
L 390.341282 -5.30918 
L 391.265276 -5.577665 
L 392.18927 -5.86156 
L 393.113264 -6.158517 
L 394.037258 -6.465859 
L 394.961252 -6.780852 
L 395.885246 -7.101158 
L 396.80924 -7.425371 
L 397.733234 -7.753427 
L 398.657228 -8.086741 
L 399.581222 -8.427955 
L 400.505216 -8.780345 
L 401.42921 -9.147046 
L 402.353204 -9.530338 
L 403.277198 -9.931203 
L 404.201192 -10.349292 
L 405.125186 -10.783281 
L 406.04918 -11.231463 
L 406.973174 -11.692385 
L 407.897168 -12.165314 
L 408.821162 -12.650436 
L 409.745156 -13.148793 
L 410.669151 -13.662035 
L 411.593145 -14.192125 
L 412.517139 -14.741075 
L 413.441133 -15.310753 
L 414.365127 -15.902711 
L 415.289121 -16.517989 
L 416.213115 -17.156855 
L 417.137109 -17.818506 
L 418.061103 -18.500828 
L 418.985097 -19.200321 
L 419.909091 -19.912272 
L 420.833085 -20.631201 
L 421.757079 -21.351476 
L 422.681073 -22.067962 
L 423.605067 -22.776516 
L 424.529061 -23.474231 
L 425.453055 -24.159367 
L 426.377049 -24.831096 
L 427.301043 -25.489167 
L 428.225037 -26.133701 
L 429.149031 -26.765201 
L 430.073025 -27.384791 
L 430.997019 -27.994575 
L 431.921013 -28.597917 
L 432.845007 -29.199457 
L 433.769001 -29.804747 
L 434.692996 -30.419523 
L 435.61699 -31.048786 
L 436.540984 -31.695938 
L 437.464978 -32.362186 
L 438.388972 -33.046376 
L 439.312966 -33.745212 
L 440.23696 -34.453734 
L 441.160954 -35.165857 
L 442.084948 -35.874802 
L 443.008942 -36.573375 
L 443.932936 -37.254128 
L 444.85693 -37.909515 
L 445.780924 -38.532149 
L 446.704918 -39.11517 
L 447.628912 -39.65269 
L 448.552906 -40.140163 
L 449.4769 -40.574582 
L 450.400894 -40.954408 
L 451.324888 -41.279229 
L 452.248882 -41.549227 
L 453.172876 -41.764561 
L 454.09687 -41.924809 
L 455.020864 -42.028609 
L 455.944858 -42.073601 
L 456.868852 -42.056734 
L 457.792846 -41.97495 
L 458.716841 -41.826109 
L 459.640835 -41.609982 
L 460.564829 -41.329018 
L 461.488823 -40.988622 
L 462.412817 -40.596798 
L 463.336811 -40.163157 
L 464.260805 -39.697536 
L 465.184799 -39.208585 
L 466.108793 -38.702747 
L 467.032787 -38.183924 
L 467.956781 -37.653927 
L 468.880775 -37.113549 
L 469.804769 -36.563904 
L 470.728763 -36.007583 
L 471.652757 -35.449241 
L 472.576751 -34.8954 
L 473.500745 -34.353479 
L 474.424739 -33.830275 
L 475.348733 -33.330281 
L 476.272727 -32.85425 
L 477.196721 -32.398354 
L 478.120715 -31.954145 
L 479.044709 -31.509359 
L 479.968703 -31.049422 
L 480.892697 -30.559426 
L 481.816692 -30.026245 
L 482.740686 -29.440478 
L 483.66468 -28.797911 
L 484.588674 -28.100265 
L 485.512668 -27.355086 
L 486.436662 -26.574747 
L 487.360656 -25.774695 
L 488.28465 -24.971202 
L 489.208644 -24.179016 
L 490.132638 -23.409301 
L 491.056632 -22.668243 
L 491.980626 -21.956508 
L 492.90462 -21.269618 
L 493.828614 -20.599082 
L 494.752608 -19.934085 
L 495.676602 -19.263433 
L 496.600596 -18.577495 
L 497.52459 -17.869885 
L 498.448584 -17.138672 
L 499.372578 -16.386927 
L 500.296572 -15.622518 
L 501.220566 -14.857138 
L 502.14456 -14.10475 
L 503.068554 -13.379703 
L 503.992548 -12.694882 
L 504.916542 -12.060233 
L 505.840537 -11.481867 
L 506.764531 -10.961821 
L 507.688525 -10.49838 
L 508.612519 -10.08676 
L 509.536513 -9.719961 
L 510.460507 -9.389618 
L 511.384501 -9.086774 
L 512.308495 -8.802586 
L 513.232489 -8.528985 
L 514.156483 -8.2593 
L 515.080477 -7.988793 
L 516.004471 -7.715015 
L 516.928465 -7.437866 
L 517.852459 -7.159277 
L 518.776453 -6.882532 
L 519.700447 -6.611357 
L 520.624441 -6.348968 
L 521.548435 -6.097333 
L 522.472429 -5.856823 
L 523.396423 -5.626343 
L 524.320417 -5.403892 
L 525.244411 -5.187375 
L 526.168405 -4.975424 
L 527.092399 -4.768002 
L 528.016393 -4.566622 
L 528.940387 -4.374137 
L 529.864382 -4.19419 
L 530.788376 -4.030467 
L 531.71237 -3.88598 
L 532.636364 -3.762519 
L 532.636364 -2.470909 
L 532.636364 -2.470909 
L 531.71237 -2.470909 
L 530.788376 -2.470909 
L 529.864382 -2.470909 
L 528.940387 -2.470909 
L 528.016393 -2.470909 
L 527.092399 -2.470909 
L 526.168405 -2.470909 
L 525.244411 -2.470909 
L 524.320417 -2.470909 
L 523.396423 -2.470909 
L 522.472429 -2.470909 
L 521.548435 -2.470909 
L 520.624441 -2.470909 
L 519.700447 -2.470909 
L 518.776453 -2.470909 
L 517.852459 -2.470909 
L 516.928465 -2.470909 
L 516.004471 -2.470909 
L 515.080477 -2.470909 
L 514.156483 -2.470909 
L 513.232489 -2.470909 
L 512.308495 -2.470909 
L 511.384501 -2.470909 
L 510.460507 -2.470909 
L 509.536513 -2.470909 
L 508.612519 -2.470909 
L 507.688525 -2.470909 
L 506.764531 -2.470909 
L 505.840537 -2.470909 
L 504.916542 -2.470909 
L 503.992548 -2.470909 
L 503.068554 -2.470909 
L 502.14456 -2.470909 
L 501.220566 -2.470909 
L 500.296572 -2.470909 
L 499.372578 -2.470909 
L 498.448584 -2.470909 
L 497.52459 -2.470909 
L 496.600596 -2.470909 
L 495.676602 -2.470909 
L 494.752608 -2.470909 
L 493.828614 -2.470909 
L 492.90462 -2.470909 
L 491.980626 -2.470909 
L 491.056632 -2.470909 
L 490.132638 -2.470909 
L 489.208644 -2.470909 
L 488.28465 -2.470909 
L 487.360656 -2.470909 
L 486.436662 -2.470909 
L 485.512668 -2.470909 
L 484.588674 -2.470909 
L 483.66468 -2.470909 
L 482.740686 -2.470909 
L 481.816692 -2.470909 
L 480.892697 -2.470909 
L 479.968703 -2.470909 
L 479.044709 -2.470909 
L 478.120715 -2.470909 
L 477.196721 -2.470909 
L 476.272727 -2.470909 
L 475.348733 -2.470909 
L 474.424739 -2.470909 
L 473.500745 -2.470909 
L 472.576751 -2.470909 
L 471.652757 -2.470909 
L 470.728763 -2.470909 
L 469.804769 -2.470909 
L 468.880775 -2.470909 
L 467.956781 -2.470909 
L 467.032787 -2.470909 
L 466.108793 -2.470909 
L 465.184799 -2.470909 
L 464.260805 -2.470909 
L 463.336811 -2.470909 
L 462.412817 -2.470909 
L 461.488823 -2.470909 
L 460.564829 -2.470909 
L 459.640835 -2.470909 
L 458.716841 -2.470909 
L 457.792846 -2.470909 
L 456.868852 -2.470909 
L 455.944858 -2.470909 
L 455.020864 -2.470909 
L 454.09687 -2.470909 
L 453.172876 -2.470909 
L 452.248882 -2.470909 
L 451.324888 -2.470909 
L 450.400894 -2.470909 
L 449.4769 -2.470909 
L 448.552906 -2.470909 
L 447.628912 -2.470909 
L 446.704918 -2.470909 
L 445.780924 -2.470909 
L 444.85693 -2.470909 
L 443.932936 -2.470909 
L 443.008942 -2.470909 
L 442.084948 -2.470909 
L 441.160954 -2.470909 
L 440.23696 -2.470909 
L 439.312966 -2.470909 
L 438.388972 -2.470909 
L 437.464978 -2.470909 
L 436.540984 -2.470909 
L 435.61699 -2.470909 
L 434.692996 -2.470909 
L 433.769001 -2.470909 
L 432.845007 -2.470909 
L 431.921013 -2.470909 
L 430.997019 -2.470909 
L 430.073025 -2.470909 
L 429.149031 -2.470909 
L 428.225037 -2.470909 
L 427.301043 -2.470909 
L 426.377049 -2.470909 
L 425.453055 -2.470909 
L 424.529061 -2.470909 
L 423.605067 -2.470909 
L 422.681073 -2.470909 
L 421.757079 -2.470909 
L 420.833085 -2.470909 
L 419.909091 -2.470909 
L 418.985097 -2.470909 
L 418.061103 -2.470909 
L 417.137109 -2.470909 
L 416.213115 -2.470909 
L 415.289121 -2.470909 
L 414.365127 -2.470909 
L 413.441133 -2.470909 
L 412.517139 -2.470909 
L 411.593145 -2.470909 
L 410.669151 -2.470909 
L 409.745156 -2.470909 
L 408.821162 -2.470909 
L 407.897168 -2.470909 
L 406.973174 -2.470909 
L 406.04918 -2.470909 
L 405.125186 -2.470909 
L 404.201192 -2.470909 
L 403.277198 -2.470909 
L 402.353204 -2.470909 
L 401.42921 -2.470909 
L 400.505216 -2.470909 
L 399.581222 -2.470909 
L 398.657228 -2.470909 
L 397.733234 -2.470909 
L 396.80924 -2.470909 
L 395.885246 -2.470909 
L 394.961252 -2.470909 
L 394.037258 -2.470909 
L 393.113264 -2.470909 
L 392.18927 -2.470909 
L 391.265276 -2.470909 
L 390.341282 -2.470909 
L 389.417288 -2.470909 
L 388.493294 -2.470909 
L 387.5693 -2.470909 
L 386.645306 -2.470909 
L 385.721311 -2.470909 
L 384.797317 -2.470909 
L 383.873323 -2.470909 
L 382.949329 -2.470909 
z
" style="stroke: #116dc2; stroke-opacity: 0.2"/>
    </defs>
    <g clip-path="url(#p3442f235c6)">
     <use xlink:href="#m895c519173" x="0" y="54.36" style="fill: #116dc2; fill-opacity: 0.2; stroke: #116dc2; stroke-opacity: 0.2"/>
    </g>
   </g>
   <g id="PolyCollection_3">
    <defs>
     <path id="m30f24daa99" d="M 25.363636 -2.470909 
L 25.363636 -4.846725 
L 26.28763 -5.397106 
L 27.211624 -6.021698 
L 28.135618 -6.814602 
L 29.059613 -7.814059 
L 29.983607 -9.021177 
L 30.907601 -10.462275 
L 31.831595 -12.133648 
L 32.755589 -13.923428 
L 33.679583 -15.708325 
L 34.603577 -17.505839 
L 35.527571 -19.407278 
L 36.451565 -21.494246 
L 37.375559 -23.923665 
L 38.299553 -26.793079 
L 39.223547 -29.883139 
L 40.147541 -32.830088 
L 41.071535 -35.490829 
L 41.995529 -37.968291 
L 42.919523 -40.39436 
L 43.843517 -42.7743 
L 44.767511 -44.992058 
L 45.691505 -46.94451 
L 46.615499 -48.659695 
L 47.539493 -50.197523 
L 48.463487 -51.391269 
L 49.387481 -51.889091 
L 50.311475 -51.546708 
L 51.235469 -50.505494 
L 52.159463 -48.908337 
L 53.083458 -46.891192 
L 54.007452 -44.679719 
L 54.931446 -42.453675 
L 55.85544 -40.27264 
L 56.779434 -38.112089 
L 57.703428 -35.905241 
L 58.627422 -33.596075 
L 59.551416 -31.126596 
L 60.47541 -28.446716 
L 61.399404 -25.629397 
L 62.323398 -22.853365 
L 63.247392 -20.215007 
L 64.171386 -17.73621 
L 65.09538 -15.50605 
L 66.019374 -13.597115 
L 66.943368 -11.93665 
L 67.867362 -10.425157 
L 68.791356 -9.093468 
L 69.71535 -8.012583 
L 70.639344 -7.120575 
L 71.563338 -6.264659 
L 72.487332 -5.400819 
L 72.487332 -2.470909 
L 72.487332 -2.470909 
L 71.563338 -2.470909 
L 70.639344 -2.470909 
L 69.71535 -2.470909 
L 68.791356 -2.470909 
L 67.867362 -2.470909 
L 66.943368 -2.470909 
L 66.019374 -2.470909 
L 65.09538 -2.470909 
L 64.171386 -2.470909 
L 63.247392 -2.470909 
L 62.323398 -2.470909 
L 61.399404 -2.470909 
L 60.47541 -2.470909 
L 59.551416 -2.470909 
L 58.627422 -2.470909 
L 57.703428 -2.470909 
L 56.779434 -2.470909 
L 55.85544 -2.470909 
L 54.931446 -2.470909 
L 54.007452 -2.470909 
L 53.083458 -2.470909 
L 52.159463 -2.470909 
L 51.235469 -2.470909 
L 50.311475 -2.470909 
L 49.387481 -2.470909 
L 48.463487 -2.470909 
L 47.539493 -2.470909 
L 46.615499 -2.470909 
L 45.691505 -2.470909 
L 44.767511 -2.470909 
L 43.843517 -2.470909 
L 42.919523 -2.470909 
L 41.995529 -2.470909 
L 41.071535 -2.470909 
L 40.147541 -2.470909 
L 39.223547 -2.470909 
L 38.299553 -2.470909 
L 37.375559 -2.470909 
L 36.451565 -2.470909 
L 35.527571 -2.470909 
L 34.603577 -2.470909 
L 33.679583 -2.470909 
L 32.755589 -2.470909 
L 31.831595 -2.470909 
L 30.907601 -2.470909 
L 29.983607 -2.470909 
L 29.059613 -2.470909 
L 28.135618 -2.470909 
L 27.211624 -2.470909 
L 26.28763 -2.470909 
L 25.363636 -2.470909 
z
" style="stroke: #8a8a8a; stroke-opacity: 0.2"/>
    </defs>
    <g clip-path="url(#p3442f235c6)">
     <use xlink:href="#m30f24daa99" x="0" y="54.36" style="fill: #8a8a8a; fill-opacity: 0.2; stroke: #8a8a8a; stroke-opacity: 0.2"/>
    </g>
   </g>
   <g id="line2d_1">
    <path d="M 345.065574 50.260627 
L 350.609538 49.241536 
L 354.305514 48.418719 
L 357.077496 47.56315 
L 359.849478 46.437113 
L 363.545455 44.701331 
L 366.317437 43.217938 
L 368.165425 42.055359 
L 370.013413 40.701996 
L 372.785395 38.308543 
L 380.177347 31.501126 
L 384.797317 27.53111 
L 388.493294 23.976677 
L 392.18927 20.436459 
L 394.037258 18.943967 
L 395.885246 17.70046 
L 403.277198 13.418334 
L 405.125186 12.439519 
L 406.973174 11.759457 
L 408.821162 11.455826 
L 410.669151 11.48147 
L 412.517139 11.748399 
L 414.365127 12.212709 
L 416.213115 12.863424 
L 419.909091 14.503882 
L 425.453055 17.098121 
L 427.301043 18.204018 
L 430.073025 20.212476 
L 432.845007 22.567734 
L 434.692996 24.360591 
L 437.464978 27.444322 
L 442.084948 32.856486 
L 443.932936 34.703528 
L 445.780924 36.30144 
L 451.324888 40.548448 
L 455.020864 43.329162 
L 456.868852 44.483268 
L 458.716841 45.398901 
L 461.488823 46.423502 
L 466.108793 47.746252 
L 474.424739 49.863935 
L 474.424739 49.863935 
" clip-path="url(#p3442f235c6)" style="fill: none; stroke: #cf1313; stroke-width: 1.5; stroke-linecap: square"/>
   </g>
   <g id="line2d_2">
    <path d="M 382.949329 50.484263 
L 385.721311 50.104334 
L 388.493294 49.534048 
L 392.18927 48.49844 
L 397.733234 46.606573 
L 402.353204 44.829662 
L 406.04918 43.128537 
L 409.745156 41.211207 
L 413.441133 39.049247 
L 416.213115 37.203145 
L 419.909091 34.447728 
L 426.377049 29.528904 
L 430.997019 26.365425 
L 436.540984 22.664062 
L 440.23696 19.906266 
L 444.85693 16.450485 
L 447.628912 14.70731 
L 449.4769 13.785418 
L 451.324888 13.080771 
L 453.172876 12.595439 
L 455.020864 12.331391 
L 456.868852 12.303266 
L 458.716841 12.533891 
L 460.564829 13.030982 
L 462.412817 13.763202 
L 465.184799 15.151415 
L 469.804769 17.796096 
L 475.348733 21.029719 
L 482.740686 24.919522 
L 484.588674 26.259735 
L 487.360656 28.585305 
L 491.056632 31.691757 
L 494.752608 34.425915 
L 498.448584 37.221328 
L 503.992548 41.665118 
L 505.840537 42.878133 
L 507.688525 43.86162 
L 509.536513 44.640039 
L 512.308495 45.557414 
L 523.396423 48.733657 
L 528.940387 49.985863 
L 532.636364 50.597481 
L 532.636364 50.597481 
" clip-path="url(#p3442f235c6)" style="fill: none; stroke: #116dc2; stroke-width: 1.5; stroke-linecap: square"/>
   </g>
   <g id="line2d_3">
    <path d="M 25.363636 49.513275 
L 26.28763 48.962894 
L 27.211624 48.338302 
L 28.135618 47.545398 
L 29.059613 46.545941 
L 29.983607 45.338823 
L 30.907601 43.897725 
L 31.831595 42.226352 
L 32.755589 40.436572 
L 33.679583 38.651675 
L 34.603577 36.854161 
L 35.527571 34.952722 
L 36.451565 32.865754 
L 37.375559 30.436335 
L 38.299553 27.566921 
L 39.223547 24.476861 
L 40.147541 21.529912 
L 41.071535 18.869171 
L 41.995529 16.391709 
L 42.919523 13.96564 
L 43.843517 11.5857 
L 44.767511 9.367942 
L 45.691505 7.41549 
L 46.615499 5.700305 
L 47.539493 4.162477 
L 48.463487 2.968731 
L 49.387481 2.470909 
L 50.311475 2.813292 
L 51.235469 3.854506 
L 52.159463 5.451663 
L 53.083458 7.468808 
L 54.007452 9.680281 
L 54.931446 11.906325 
L 55.85544 14.08736 
L 56.779434 16.247911 
L 57.703428 18.454759 
L 58.627422 20.763925 
L 59.551416 23.233404 
L 60.47541 25.913284 
L 61.399404 28.730603 
L 62.323398 31.506635 
L 63.247392 34.144993 
L 64.171386 36.62379 
L 65.09538 38.85395 
L 66.019374 40.762885 
L 66.943368 42.42335 
L 67.867362 43.934843 
L 68.791356 45.266532 
L 69.71535 46.347417 
L 70.639344 47.239425 
L 71.563338 48.095341 
L 72.487332 48.959181 
" clip-path="url(#p3442f235c6)" style="fill: none; stroke: #8a8a8a; stroke-width: 1.5; stroke-linecap: square"/>
   </g>
  </g>
 </g>
 <defs>
  <clipPath id="p3442f235c6">
   <rect x="0" y="-0" width="558" height="54.36"/>
  </clipPath>
 </defs>
</svg>
