<?xml version="1.0" encoding="utf-8" standalone="no"?>
<!DOCTYPE svg PUBLIC "-//W3C//DTD SVG 1.1//EN"
  "http://www.w3.org/Graphics/SVG/1.1/DTD/svg11.dtd">
<svg xmlns:xlink="http://www.w3.org/1999/xlink" width="558pt" height="54.36pt" viewBox="0 0 558 54.36" xmlns="http://www.w3.org/2000/svg" version="1.1">
 <metadata>
  <rdf:RDF xmlns:dc="http://purl.org/dc/elements/1.1/" xmlns:cc="http://creativecommons.org/ns#" xmlns:rdf="http://www.w3.org/1999/02/22-rdf-syntax-ns#">
   <cc:Work>
    <dc:type rdf:resource="http://purl.org/dc/dcmitype/StillImage"/>
    <dc:date>2024-09-14T12:46:52.537656</dc:date>
    <dc:format>image/svg+xml</dc:format>
    <dc:creator>
     <cc:Agent>
      <dc:title>Matplotlib v3.5.2, https://matplotlib.org/</dc:title>
     </cc:Agent>
    </dc:creator>
   </cc:Work>
  </rdf:RDF>
 </metadata>
 <defs>
  <style type="text/css">*{stroke-linejoin: round; stroke-linecap: butt}</style>
 </defs>
 <g id="figure_1">
  <g id="patch_1">
   <path d="M 0 54.36 
L 558 54.36 
L 558 0 
L 0 0 
L 0 54.36 
z
" style="fill: none; opacity: 0"/>
  </g>
  <g id="axes_1">
   <g id="PolyCollection_1">
    <defs>
     <path id="m335504a171" d="M 311.646265 -2.470909 
L 311.646265 -3.972148 
L 312.363765 -4.03882 
L 313.081265 -4.107987 
L 313.798766 -4.179787 
L 314.516266 -4.254354 
L 315.233766 -4.331819 
L 315.951267 -4.412312 
L 316.668767 -4.495961 
L 317.386267 -4.582901 
L 318.103768 -4.673268 
L 318.821268 -4.767204 
L 319.538768 -4.864856 
L 320.256268 -4.966376 
L 320.973769 -5.071915 
L 321.691269 -5.181621 
L 322.408769 -5.295633 
L 323.12627 -5.414072 
L 323.84377 -5.537034 
L 324.56127 -5.66458 
L 325.278771 -5.796727 
L 325.996271 -5.933436 
L 326.713771 -6.07461 
L 327.431272 -6.220085 
L 328.148772 -6.369628 
L 328.866272 -6.52294 
L 329.583773 -6.679663 
L 330.301273 -6.839392 
L 331.018773 -7.001689 
L 331.736274 -7.166104 
L 332.453774 -7.332201 
L 333.171274 -7.499585 
L 333.888775 -7.667925 
L 334.606275 -7.836986 
L 335.323775 -8.006649 
L 336.041276 -8.17693 
L 336.758776 -8.347994 
L 337.476276 -8.520159 
L 338.193777 -8.693887 
L 338.911277 -8.869777 
L 339.628777 -9.048533 
L 340.346277 -9.230936 
L 341.063778 -9.417804 
L 341.781278 -9.609946 
L 342.498778 -9.808119 
L 343.216279 -10.012975 
L 343.933779 -10.225029 
L 344.651279 -10.444615 
L 345.36878 -10.671864 
L 346.08628 -10.90669 
L 346.80378 -11.148787 
L 347.521281 -11.397644 
L 348.238781 -11.652563 
L 348.956281 -11.912702 
L 349.673782 -12.177113 
L 350.391282 -12.4448 
L 351.108782 -12.714766 
L 351.826283 -12.986072 
L 352.543783 -13.257879 
L 353.261283 -13.529493 
L 353.978784 -13.800396 
L 354.696284 -14.07026 
L 355.413784 -14.338953 
L 356.131285 -14.606534 
L 356.848785 -14.873229 
L 357.566285 -15.139402 
L 358.283786 -15.405523 
L 359.001286 -15.672121 
L 359.718786 -15.93975 
L 360.436286 -16.20895 
L 361.153787 -16.480216 
L 361.871287 -16.753978 
L 362.588787 -17.030588 
L 363.306288 -17.310315 
L 364.023788 -17.593356 
L 364.741288 -17.879844 
L 365.458789 -18.169869 
L 366.176289 -18.463498 
L 366.893789 -18.760793 
L 367.61129 -19.061828 
L 368.32879 -19.3667 
L 369.04629 -19.675527 
L 369.763791 -19.988453 
L 370.481291 -20.30563 
L 371.198791 -20.627202 
L 371.916292 -20.953289 
L 372.633792 -21.283956 
L 373.351292 -21.6192 
L 374.068793 -21.958921 
L 374.786293 -22.302911 
L 375.503793 -22.650845 
L 376.221294 -23.002273 
L 376.938794 -23.356623 
L 377.656294 -23.713213 
L 378.373795 -24.071258 
L 379.091295 -24.429892 
L 379.808795 -24.788184 
L 380.526295 -25.145155 
L 381.243796 -25.499806 
L 381.961296 -25.851127 
L 382.678796 -26.198124 
L 383.396297 -26.539832 
L 384.113797 -26.875334 
L 384.831297 -27.203778 
L 385.548798 -27.524396 
L 386.266298 -27.836523 
L 386.983798 -28.139619 
L 387.701299 -28.433288 
L 388.418799 -28.717298 
L 389.136299 -28.991601 
L 389.8538 -29.256343 
L 390.5713 -29.511878 
L 391.2888 -29.758759 
L 392.006301 -29.997734 
L 392.723801 -30.229719 
L 393.441301 -30.455767 
L 394.158802 -30.677025 
L 394.876302 -30.894677 
L 395.593802 -31.109887 
L 396.311303 -31.323735 
L 397.028803 -31.537157 
L 397.746303 -31.750892 
L 398.463804 -31.965432 
L 399.181304 -32.180997 
L 399.898804 -32.39752 
L 400.616304 -32.614648 
L 401.333805 -32.831772 
L 402.051305 -33.048061 
L 402.768805 -33.262525 
L 403.486306 -33.474074 
L 404.203806 -33.681593 
L 404.921306 -33.884012 
L 405.638807 -34.080368 
L 406.356307 -34.269866 
L 407.073807 -34.45191 
L 407.791308 -34.626132 
L 408.508808 -34.792391 
L 409.226308 -34.95076 
L 409.943809 -35.101496 
L 410.661309 -35.244994 
L 411.378809 -35.381735 
L 412.09631 -35.512233 
L 412.81381 -35.636972 
L 413.53131 -35.756365 
L 414.248811 -35.8707 
L 414.966311 -35.980115 
L 415.683811 -36.084571 
L 416.401312 -36.183844 
L 417.118812 -36.277524 
L 417.836312 -36.365021 
L 418.553813 -36.445582 
L 419.271313 -36.518311 
L 419.988813 -36.582191 
L 420.706313 -36.636109 
L 421.423814 -36.678885 
L 422.141314 -36.709297 
L 422.858814 -36.726117 
L 423.576315 -36.728137 
L 424.293815 -36.714213 
L 425.011315 -36.683297 
L 425.728816 -36.634485 
L 426.446316 -36.567057 
L 427.163816 -36.480527 
L 427.881317 -36.374677 
L 428.598817 -36.249601 
L 429.316317 -36.105728 
L 430.033818 -35.943836 
L 430.751318 -35.765058 
L 431.468818 -35.570861 
L 432.186319 -35.363009 
L 432.903819 -35.143515 
L 433.621319 -34.914572 
L 434.33882 -34.678464 
L 435.05632 -34.437483 
L 435.77382 -34.193829 
L 436.491321 -33.949522 
L 437.208821 -33.706311 
L 437.926321 -33.46561 
L 438.643822 -33.228438 
L 439.361322 -32.995393 
L 440.078822 -32.766641 
L 440.796322 -32.541934 
L 441.513823 -32.320645 
L 442.231323 -32.101829 
L 442.948823 -31.884295 
L 443.666324 -31.666688 
L 444.383824 -31.447574 
L 445.101324 -31.225527 
L 445.818825 -30.999202 
L 446.536325 -30.767405 
L 447.253825 -30.529135 
L 447.971326 -30.283624 
L 448.688826 -30.030341 
L 449.406326 -29.768997 
L 450.123827 -29.499521 
L 450.841327 -29.222027 
L 451.558827 -28.936781 
L 452.276328 -28.644153 
L 452.993828 -28.344574 
L 453.711328 -28.038497 
L 454.428829 -27.726366 
L 455.146329 -27.408585 
L 455.863829 -27.08551 
L 456.58133 -26.75744 
L 457.29883 -26.424625 
L 458.01633 -26.087278 
L 458.733831 -25.745594 
L 459.451331 -25.399779 
L 460.168831 -25.050072 
L 460.886331 -24.69677 
L 461.603832 -24.340256 
L 462.321332 -23.981009 
L 463.038832 -23.619622 
L 463.756333 -23.256797 
L 464.473833 -22.893345 
L 465.191333 -22.530166 
L 465.908834 -22.168226 
L 466.626334 -21.808526 
L 467.343834 -21.452067 
L 468.061335 -21.099804 
L 468.778835 -20.75261 
L 469.496335 -20.411237 
L 470.213836 -20.076278 
L 470.931336 -19.748144 
L 471.648836 -19.427045 
L 472.366337 -19.112985 
L 473.083837 -18.805765 
L 473.801337 -18.505001 
L 474.518838 -18.210148 
L 475.236338 -17.920534 
L 475.953838 -17.635403 
L 476.671339 -17.353953 
L 477.388839 -17.075382 
L 478.106339 -16.798928 
L 478.82384 -16.523905 
L 479.54134 -16.249737 
L 480.25884 -15.975973 
L 480.97634 -15.702312 
L 481.693841 -15.428606 
L 482.411341 -15.15486 
L 483.128841 -14.881231 
L 483.846342 -14.608012 
L 484.563842 -14.335619 
L 485.281342 -14.064572 
L 485.998843 -13.79547 
L 486.716343 -13.528969 
L 487.433843 -13.265753 
L 488.151344 -13.00651 
L 488.868844 -12.751905 
L 489.586344 -12.502549 
L 490.303845 -12.258983 
L 491.021345 -12.021649 
L 491.738845 -11.790876 
L 492.456346 -11.566863 
L 493.173846 -11.349671 
L 493.891346 -11.13922 
L 494.608847 -10.935289 
L 495.326347 -10.73752 
L 496.043847 -10.545437 
L 496.761348 -10.358455 
L 497.478848 -10.175904 
L 498.196348 -9.997049 
L 498.913849 -9.821119 
L 499.631349 -9.64733 
L 500.348849 -9.474913 
L 501.066349 -9.303136 
L 501.78385 -9.131333 
L 502.50135 -8.958924 
L 503.21885 -8.785431 
L 503.936351 -8.610499 
L 504.653851 -8.433901 
L 505.371351 -8.25555 
L 506.088852 -8.075501 
L 506.806352 -7.893945 
L 507.523852 -7.711202 
L 508.241353 -7.527711 
L 508.958853 -7.344011 
L 509.676353 -7.160722 
L 510.393854 -6.978518 
L 511.111354 -6.798106 
L 511.828854 -6.6202 
L 512.546355 -6.445493 
L 513.263855 -6.274637 
L 513.981355 -6.108221 
L 514.698856 -5.946756 
L 515.416356 -5.790661 
L 516.133856 -5.640258 
L 516.851357 -5.495769 
L 517.568857 -5.357318 
L 518.286357 -5.224935 
L 519.003858 -5.098568 
L 519.721358 -4.978094 
L 520.438858 -4.86333 
L 521.156358 -4.754049 
L 521.873859 -4.649994 
L 522.591359 -4.550886 
L 523.308859 -4.456443 
L 524.02636 -4.366382 
L 524.74386 -4.280434 
L 525.46136 -4.198344 
L 526.178861 -4.119879 
L 526.896361 -4.044828 
L 527.613861 -3.973007 
L 528.331362 -3.904252 
L 529.048862 -3.838426 
L 529.766362 -3.775412 
L 530.483863 -3.715112 
L 531.201363 -3.657444 
L 531.918863 -3.602342 
L 532.636364 -3.549748 
L 532.636364 -2.470909 
L 532.636364 -2.470909 
L 531.918863 -2.470909 
L 531.201363 -2.470909 
L 530.483863 -2.470909 
L 529.766362 -2.470909 
L 529.048862 -2.470909 
L 528.331362 -2.470909 
L 527.613861 -2.470909 
L 526.896361 -2.470909 
L 526.178861 -2.470909 
L 525.46136 -2.470909 
L 524.74386 -2.470909 
L 524.02636 -2.470909 
L 523.308859 -2.470909 
L 522.591359 -2.470909 
L 521.873859 -2.470909 
L 521.156358 -2.470909 
L 520.438858 -2.470909 
L 519.721358 -2.470909 
L 519.003858 -2.470909 
L 518.286357 -2.470909 
L 517.568857 -2.470909 
L 516.851357 -2.470909 
L 516.133856 -2.470909 
L 515.416356 -2.470909 
L 514.698856 -2.470909 
L 513.981355 -2.470909 
L 513.263855 -2.470909 
L 512.546355 -2.470909 
L 511.828854 -2.470909 
L 511.111354 -2.470909 
L 510.393854 -2.470909 
L 509.676353 -2.470909 
L 508.958853 -2.470909 
L 508.241353 -2.470909 
L 507.523852 -2.470909 
L 506.806352 -2.470909 
L 506.088852 -2.470909 
L 505.371351 -2.470909 
L 504.653851 -2.470909 
L 503.936351 -2.470909 
L 503.21885 -2.470909 
L 502.50135 -2.470909 
L 501.78385 -2.470909 
L 501.066349 -2.470909 
L 500.348849 -2.470909 
L 499.631349 -2.470909 
L 498.913849 -2.470909 
L 498.196348 -2.470909 
L 497.478848 -2.470909 
L 496.761348 -2.470909 
L 496.043847 -2.470909 
L 495.326347 -2.470909 
L 494.608847 -2.470909 
L 493.891346 -2.470909 
L 493.173846 -2.470909 
L 492.456346 -2.470909 
L 491.738845 -2.470909 
L 491.021345 -2.470909 
L 490.303845 -2.470909 
L 489.586344 -2.470909 
L 488.868844 -2.470909 
L 488.151344 -2.470909 
L 487.433843 -2.470909 
L 486.716343 -2.470909 
L 485.998843 -2.470909 
L 485.281342 -2.470909 
L 484.563842 -2.470909 
L 483.846342 -2.470909 
L 483.128841 -2.470909 
L 482.411341 -2.470909 
L 481.693841 -2.470909 
L 480.97634 -2.470909 
L 480.25884 -2.470909 
L 479.54134 -2.470909 
L 478.82384 -2.470909 
L 478.106339 -2.470909 
L 477.388839 -2.470909 
L 476.671339 -2.470909 
L 475.953838 -2.470909 
L 475.236338 -2.470909 
L 474.518838 -2.470909 
L 473.801337 -2.470909 
L 473.083837 -2.470909 
L 472.366337 -2.470909 
L 471.648836 -2.470909 
L 470.931336 -2.470909 
L 470.213836 -2.470909 
L 469.496335 -2.470909 
L 468.778835 -2.470909 
L 468.061335 -2.470909 
L 467.343834 -2.470909 
L 466.626334 -2.470909 
L 465.908834 -2.470909 
L 465.191333 -2.470909 
L 464.473833 -2.470909 
L 463.756333 -2.470909 
L 463.038832 -2.470909 
L 462.321332 -2.470909 
L 461.603832 -2.470909 
L 460.886331 -2.470909 
L 460.168831 -2.470909 
L 459.451331 -2.470909 
L 458.733831 -2.470909 
L 458.01633 -2.470909 
L 457.29883 -2.470909 
L 456.58133 -2.470909 
L 455.863829 -2.470909 
L 455.146329 -2.470909 
L 454.428829 -2.470909 
L 453.711328 -2.470909 
L 452.993828 -2.470909 
L 452.276328 -2.470909 
L 451.558827 -2.470909 
L 450.841327 -2.470909 
L 450.123827 -2.470909 
L 449.406326 -2.470909 
L 448.688826 -2.470909 
L 447.971326 -2.470909 
L 447.253825 -2.470909 
L 446.536325 -2.470909 
L 445.818825 -2.470909 
L 445.101324 -2.470909 
L 444.383824 -2.470909 
L 443.666324 -2.470909 
L 442.948823 -2.470909 
L 442.231323 -2.470909 
L 441.513823 -2.470909 
L 440.796322 -2.470909 
L 440.078822 -2.470909 
L 439.361322 -2.470909 
L 438.643822 -2.470909 
L 437.926321 -2.470909 
L 437.208821 -2.470909 
L 436.491321 -2.470909 
L 435.77382 -2.470909 
L 435.05632 -2.470909 
L 434.33882 -2.470909 
L 433.621319 -2.470909 
L 432.903819 -2.470909 
L 432.186319 -2.470909 
L 431.468818 -2.470909 
L 430.751318 -2.470909 
L 430.033818 -2.470909 
L 429.316317 -2.470909 
L 428.598817 -2.470909 
L 427.881317 -2.470909 
L 427.163816 -2.470909 
L 426.446316 -2.470909 
L 425.728816 -2.470909 
L 425.011315 -2.470909 
L 424.293815 -2.470909 
L 423.576315 -2.470909 
L 422.858814 -2.470909 
L 422.141314 -2.470909 
L 421.423814 -2.470909 
L 420.706313 -2.470909 
L 419.988813 -2.470909 
L 419.271313 -2.470909 
L 418.553813 -2.470909 
L 417.836312 -2.470909 
L 417.118812 -2.470909 
L 416.401312 -2.470909 
L 415.683811 -2.470909 
L 414.966311 -2.470909 
L 414.248811 -2.470909 
L 413.53131 -2.470909 
L 412.81381 -2.470909 
L 412.09631 -2.470909 
L 411.378809 -2.470909 
L 410.661309 -2.470909 
L 409.943809 -2.470909 
L 409.226308 -2.470909 
L 408.508808 -2.470909 
L 407.791308 -2.470909 
L 407.073807 -2.470909 
L 406.356307 -2.470909 
L 405.638807 -2.470909 
L 404.921306 -2.470909 
L 404.203806 -2.470909 
L 403.486306 -2.470909 
L 402.768805 -2.470909 
L 402.051305 -2.470909 
L 401.333805 -2.470909 
L 400.616304 -2.470909 
L 399.898804 -2.470909 
L 399.181304 -2.470909 
L 398.463804 -2.470909 
L 397.746303 -2.470909 
L 397.028803 -2.470909 
L 396.311303 -2.470909 
L 395.593802 -2.470909 
L 394.876302 -2.470909 
L 394.158802 -2.470909 
L 393.441301 -2.470909 
L 392.723801 -2.470909 
L 392.006301 -2.470909 
L 391.2888 -2.470909 
L 390.5713 -2.470909 
L 389.8538 -2.470909 
L 389.136299 -2.470909 
L 388.418799 -2.470909 
L 387.701299 -2.470909 
L 386.983798 -2.470909 
L 386.266298 -2.470909 
L 385.548798 -2.470909 
L 384.831297 -2.470909 
L 384.113797 -2.470909 
L 383.396297 -2.470909 
L 382.678796 -2.470909 
L 381.961296 -2.470909 
L 381.243796 -2.470909 
L 380.526295 -2.470909 
L 379.808795 -2.470909 
L 379.091295 -2.470909 
L 378.373795 -2.470909 
L 377.656294 -2.470909 
L 376.938794 -2.470909 
L 376.221294 -2.470909 
L 375.503793 -2.470909 
L 374.786293 -2.470909 
L 374.068793 -2.470909 
L 373.351292 -2.470909 
L 372.633792 -2.470909 
L 371.916292 -2.470909 
L 371.198791 -2.470909 
L 370.481291 -2.470909 
L 369.763791 -2.470909 
L 369.04629 -2.470909 
L 368.32879 -2.470909 
L 367.61129 -2.470909 
L 366.893789 -2.470909 
L 366.176289 -2.470909 
L 365.458789 -2.470909 
L 364.741288 -2.470909 
L 364.023788 -2.470909 
L 363.306288 -2.470909 
L 362.588787 -2.470909 
L 361.871287 -2.470909 
L 361.153787 -2.470909 
L 360.436286 -2.470909 
L 359.718786 -2.470909 
L 359.001286 -2.470909 
L 358.283786 -2.470909 
L 357.566285 -2.470909 
L 356.848785 -2.470909 
L 356.131285 -2.470909 
L 355.413784 -2.470909 
L 354.696284 -2.470909 
L 353.978784 -2.470909 
L 353.261283 -2.470909 
L 352.543783 -2.470909 
L 351.826283 -2.470909 
L 351.108782 -2.470909 
L 350.391282 -2.470909 
L 349.673782 -2.470909 
L 348.956281 -2.470909 
L 348.238781 -2.470909 
L 347.521281 -2.470909 
L 346.80378 -2.470909 
L 346.08628 -2.470909 
L 345.36878 -2.470909 
L 344.651279 -2.470909 
L 343.933779 -2.470909 
L 343.216279 -2.470909 
L 342.498778 -2.470909 
L 341.781278 -2.470909 
L 341.063778 -2.470909 
L 340.346277 -2.470909 
L 339.628777 -2.470909 
L 338.911277 -2.470909 
L 338.193777 -2.470909 
L 337.476276 -2.470909 
L 336.758776 -2.470909 
L 336.041276 -2.470909 
L 335.323775 -2.470909 
L 334.606275 -2.470909 
L 333.888775 -2.470909 
L 333.171274 -2.470909 
L 332.453774 -2.470909 
L 331.736274 -2.470909 
L 331.018773 -2.470909 
L 330.301273 -2.470909 
L 329.583773 -2.470909 
L 328.866272 -2.470909 
L 328.148772 -2.470909 
L 327.431272 -2.470909 
L 326.713771 -2.470909 
L 325.996271 -2.470909 
L 325.278771 -2.470909 
L 324.56127 -2.470909 
L 323.84377 -2.470909 
L 323.12627 -2.470909 
L 322.408769 -2.470909 
L 321.691269 -2.470909 
L 320.973769 -2.470909 
L 320.256268 -2.470909 
L 319.538768 -2.470909 
L 318.821268 -2.470909 
L 318.103768 -2.470909 
L 317.386267 -2.470909 
L 316.668767 -2.470909 
L 315.951267 -2.470909 
L 315.233766 -2.470909 
L 314.516266 -2.470909 
L 313.798766 -2.470909 
L 313.081265 -2.470909 
L 312.363765 -2.470909 
L 311.646265 -2.470909 
z
" style="stroke: #cf1313; stroke-opacity: 0.2"/>
    </defs>
    <g clip-path="url(#pc292556b1f)">
     <use xlink:href="#m335504a171" x="0" y="54.36" style="fill: #cf1313; fill-opacity: 0.2; stroke: #cf1313; stroke-opacity: 0.2"/>
    </g>
   </g>
   <g id="PolyCollection_2">
    <defs>
     <path id="m63b45ef443" d="M 180.343706 -2.470909 
L 180.343706 -3.933712 
L 181.061206 -4.038817 
L 181.778706 -4.149003 
L 182.496207 -4.263999 
L 183.213707 -4.383555 
L 183.931207 -4.507441 
L 184.648708 -4.635448 
L 185.366208 -4.767393 
L 186.083708 -4.903117 
L 186.801209 -5.042499 
L 187.518709 -5.185459 
L 188.236209 -5.331978 
L 188.95371 -5.482109 
L 189.67121 -5.635993 
L 190.38871 -5.793867 
L 191.106211 -5.956068 
L 191.823711 -6.123031 
L 192.541211 -6.295274 
L 193.258712 -6.473372 
L 193.976212 -6.65793 
L 194.693712 -6.849537 
L 195.411213 -7.048721 
L 196.128713 -7.255904 
L 196.846213 -7.471347 
L 197.563714 -7.695111 
L 198.281214 -7.927018 
L 198.998714 -8.166622 
L 199.716214 -8.413199 
L 200.433715 -8.665747 
L 201.151215 -8.923005 
L 201.868715 -9.183487 
L 202.586216 -9.445539 
L 203.303716 -9.707403 
L 204.021216 -9.967302 
L 204.738717 -10.223529 
L 205.456217 -10.474542 
L 206.173717 -10.71906 
L 206.891218 -10.956148 
L 207.608718 -11.185293 
L 208.326218 -11.40646 
L 209.043719 -11.620129 
L 209.761219 -11.8273 
L 210.478719 -12.029476 
L 211.19622 -12.22862 
L 211.91372 -12.427076 
L 212.63122 -12.627479 
L 213.348721 -12.83264 
L 214.066221 -13.045419 
L 214.783721 -13.268596 
L 215.501222 -13.504741 
L 216.218722 -13.756099 
L 216.936222 -14.024494 
L 217.653723 -14.311259 
L 218.371223 -14.617195 
L 219.088723 -14.942567 
L 219.806223 -15.287138 
L 220.523724 -15.650226 
L 221.241224 -16.030794 
L 221.958724 -16.427558 
L 222.676225 -16.839101 
L 223.393725 -17.263989 
L 224.111225 -17.700874 
L 224.828726 -18.148579 
L 225.546226 -18.606156 
L 226.263726 -19.072906 
L 226.981227 -19.548375 
L 227.698727 -20.032307 
L 228.416227 -20.524573 
L 229.133728 -21.025077 
L 229.851228 -21.53365 
L 230.568728 -22.049945 
L 231.286229 -22.573337 
L 232.003729 -23.102865 
L 232.721229 -23.63719 
L 233.43873 -24.174607 
L 234.15623 -24.713103 
L 234.87373 -25.25045 
L 235.591231 -25.784333 
L 236.308731 -26.312502 
L 237.026231 -26.832917 
L 237.743732 -27.343881 
L 238.461232 -27.844139 
L 239.178732 -28.332926 
L 239.896232 -28.809957 
L 240.613733 -29.275371 
L 241.331233 -29.729606 
L 242.048733 -30.173257 
L 242.766234 -30.606898 
L 243.483734 -31.030916 
L 244.201234 -31.445354 
L 244.918735 -31.849803 
L 245.636235 -32.243343 
L 246.353735 -32.624536 
L 247.071236 -32.991492 
L 247.788736 -33.341988 
L 248.506236 -33.673638 
L 249.223737 -33.984098 
L 249.941237 -34.271292 
L 250.658737 -34.533642 
L 251.376238 -34.770277 
L 252.093738 -34.981201 
L 252.811238 -35.167408 
L 253.528739 -35.330926 
L 254.246239 -35.47478 
L 254.963739 -35.602865 
L 255.68124 -35.719747 
L 256.39874 -35.830388 
L 257.11624 -35.939827 
L 257.833741 -36.052828 
L 258.551241 -36.173537 
L 259.268741 -36.305172 
L 259.986241 -36.449764 
L 260.703742 -36.607988 
L 261.421242 -36.779094 
L 262.138742 -36.96093 
L 262.856243 -37.150088 
L 263.573743 -37.342129 
L 264.291243 -37.531886 
L 265.008744 -37.71382 
L 265.726244 -37.88239 
L 266.443744 -38.03241 
L 267.161245 -38.159371 
L 267.878745 -38.25968 
L 268.596245 -38.330828 
L 269.313746 -38.371447 
L 270.031246 -38.381274 
L 270.748746 -38.361034 
L 271.466247 -38.312241 
L 272.183747 -38.236972 
L 272.901247 -38.137614 
L 273.618748 -38.016632 
L 274.336248 -37.876372 
L 275.053748 -37.71891 
L 275.771249 -37.545964 
L 276.488749 -37.358861 
L 277.206249 -37.158545 
L 277.92375 -36.945616 
L 278.64125 -36.72038 
L 279.35875 -36.482898 
L 280.07625 -36.233029 
L 280.793751 -35.970454 
L 281.511251 -35.694697 
L 282.228751 -35.405152 
L 282.946252 -35.101112 
L 283.663752 -34.781828 
L 284.381252 -34.44659 
L 285.098753 -34.094832 
L 285.816253 -33.726249 
L 286.533753 -33.340914 
L 287.251254 -32.939379 
L 287.968754 -32.522729 
L 288.686254 -32.092593 
L 289.403755 -31.651096 
L 290.121255 -31.20075 
L 290.838755 -30.744307 
L 291.556256 -30.284572 
L 292.273756 -29.824217 
L 292.991256 -29.365609 
L 293.708757 -28.910664 
L 294.426257 -28.460761 
L 295.143757 -28.016705 
L 295.861258 -27.578742 
L 296.578758 -27.146628 
L 297.296258 -26.719726 
L 298.013759 -26.297122 
L 298.731259 -25.87774 
L 299.448759 -25.460448 
L 300.166259 -25.044135 
L 300.88376 -24.627764 
L 301.60126 -24.210403 
L 302.31876 -23.791232 
L 303.036261 -23.369539 
L 303.753761 -22.944724 
L 304.471261 -22.516306 
L 305.188762 -22.083949 
L 305.906262 -21.647506 
L 306.623762 -21.207075 
L 307.341263 -20.763061 
L 308.058763 -20.316238 
L 308.776263 -19.867783 
L 309.493764 -19.419285 
L 310.211264 -18.972717 
L 310.928764 -18.530353 
L 311.646265 -18.094652 
L 312.363765 -17.668105 
L 313.081265 -17.253055 
L 313.798766 -16.85152 
L 314.516266 -16.46502 
L 315.233766 -16.094444 
L 315.951267 -15.739954 
L 316.668767 -15.400955 
L 317.386267 -15.076117 
L 318.103768 -14.763465 
L 318.821268 -14.460514 
L 319.538768 -14.164454 
L 320.256268 -13.872356 
L 320.973769 -13.581388 
L 321.691269 -13.289024 
L 322.408769 -12.993219 
L 323.12627 -12.692554 
L 323.84377 -12.386325 
L 324.56127 -12.074572 
L 325.278771 -11.758054 
L 325.996271 -11.438176 
L 326.713771 -11.11686 
L 327.431272 -10.796396 
L 328.148772 -10.479267 
L 328.866272 -10.167977 
L 329.583773 -9.864885 
L 330.301273 -9.572069 
L 331.018773 -9.29121 
L 331.736274 -9.023528 
L 332.453774 -8.769736 
L 333.171274 -8.530048 
L 333.888775 -8.304208 
L 334.606275 -8.091543 
L 335.323775 -7.891047 
L 336.041276 -7.701461 
L 336.758776 -7.521372 
L 337.476276 -7.3493 
L 338.193777 -7.183787 
L 338.911277 -7.023468 
L 339.628777 -6.867134 
L 340.346277 -6.713771 
L 341.063778 -6.562583 
L 341.781278 -6.413001 
L 342.498778 -6.26467 
L 343.216279 -6.117427 
L 343.933779 -5.97127 
L 344.651279 -5.826317 
L 345.36878 -5.682772 
L 346.08628 -5.540893 
L 346.80378 -5.400965 
L 347.521281 -5.263285 
L 348.238781 -5.128153 
L 348.956281 -4.995869 
L 349.673782 -4.866742 
L 350.391282 -4.741093 
L 351.108782 -4.619258 
L 351.826283 -4.501588 
L 352.543783 -4.388448 
L 353.261283 -4.280195 
L 353.978784 -4.177167 
L 354.696284 -4.079653 
L 354.696284 -2.470909 
L 354.696284 -2.470909 
L 353.978784 -2.470909 
L 353.261283 -2.470909 
L 352.543783 -2.470909 
L 351.826283 -2.470909 
L 351.108782 -2.470909 
L 350.391282 -2.470909 
L 349.673782 -2.470909 
L 348.956281 -2.470909 
L 348.238781 -2.470909 
L 347.521281 -2.470909 
L 346.80378 -2.470909 
L 346.08628 -2.470909 
L 345.36878 -2.470909 
L 344.651279 -2.470909 
L 343.933779 -2.470909 
L 343.216279 -2.470909 
L 342.498778 -2.470909 
L 341.781278 -2.470909 
L 341.063778 -2.470909 
L 340.346277 -2.470909 
L 339.628777 -2.470909 
L 338.911277 -2.470909 
L 338.193777 -2.470909 
L 337.476276 -2.470909 
L 336.758776 -2.470909 
L 336.041276 -2.470909 
L 335.323775 -2.470909 
L 334.606275 -2.470909 
L 333.888775 -2.470909 
L 333.171274 -2.470909 
L 332.453774 -2.470909 
L 331.736274 -2.470909 
L 331.018773 -2.470909 
L 330.301273 -2.470909 
L 329.583773 -2.470909 
L 328.866272 -2.470909 
L 328.148772 -2.470909 
L 327.431272 -2.470909 
L 326.713771 -2.470909 
L 325.996271 -2.470909 
L 325.278771 -2.470909 
L 324.56127 -2.470909 
L 323.84377 -2.470909 
L 323.12627 -2.470909 
L 322.408769 -2.470909 
L 321.691269 -2.470909 
L 320.973769 -2.470909 
L 320.256268 -2.470909 
L 319.538768 -2.470909 
L 318.821268 -2.470909 
L 318.103768 -2.470909 
L 317.386267 -2.470909 
L 316.668767 -2.470909 
L 315.951267 -2.470909 
L 315.233766 -2.470909 
L 314.516266 -2.470909 
L 313.798766 -2.470909 
L 313.081265 -2.470909 
L 312.363765 -2.470909 
L 311.646265 -2.470909 
L 310.928764 -2.470909 
L 310.211264 -2.470909 
L 309.493764 -2.470909 
L 308.776263 -2.470909 
L 308.058763 -2.470909 
L 307.341263 -2.470909 
L 306.623762 -2.470909 
L 305.906262 -2.470909 
L 305.188762 -2.470909 
L 304.471261 -2.470909 
L 303.753761 -2.470909 
L 303.036261 -2.470909 
L 302.31876 -2.470909 
L 301.60126 -2.470909 
L 300.88376 -2.470909 
L 300.166259 -2.470909 
L 299.448759 -2.470909 
L 298.731259 -2.470909 
L 298.013759 -2.470909 
L 297.296258 -2.470909 
L 296.578758 -2.470909 
L 295.861258 -2.470909 
L 295.143757 -2.470909 
L 294.426257 -2.470909 
L 293.708757 -2.470909 
L 292.991256 -2.470909 
L 292.273756 -2.470909 
L 291.556256 -2.470909 
L 290.838755 -2.470909 
L 290.121255 -2.470909 
L 289.403755 -2.470909 
L 288.686254 -2.470909 
L 287.968754 -2.470909 
L 287.251254 -2.470909 
L 286.533753 -2.470909 
L 285.816253 -2.470909 
L 285.098753 -2.470909 
L 284.381252 -2.470909 
L 283.663752 -2.470909 
L 282.946252 -2.470909 
L 282.228751 -2.470909 
L 281.511251 -2.470909 
L 280.793751 -2.470909 
L 280.07625 -2.470909 
L 279.35875 -2.470909 
L 278.64125 -2.470909 
L 277.92375 -2.470909 
L 277.206249 -2.470909 
L 276.488749 -2.470909 
L 275.771249 -2.470909 
L 275.053748 -2.470909 
L 274.336248 -2.470909 
L 273.618748 -2.470909 
L 272.901247 -2.470909 
L 272.183747 -2.470909 
L 271.466247 -2.470909 
L 270.748746 -2.470909 
L 270.031246 -2.470909 
L 269.313746 -2.470909 
L 268.596245 -2.470909 
L 267.878745 -2.470909 
L 267.161245 -2.470909 
L 266.443744 -2.470909 
L 265.726244 -2.470909 
L 265.008744 -2.470909 
L 264.291243 -2.470909 
L 263.573743 -2.470909 
L 262.856243 -2.470909 
L 262.138742 -2.470909 
L 261.421242 -2.470909 
L 260.703742 -2.470909 
L 259.986241 -2.470909 
L 259.268741 -2.470909 
L 258.551241 -2.470909 
L 257.833741 -2.470909 
L 257.11624 -2.470909 
L 256.39874 -2.470909 
L 255.68124 -2.470909 
L 254.963739 -2.470909 
L 254.246239 -2.470909 
L 253.528739 -2.470909 
L 252.811238 -2.470909 
L 252.093738 -2.470909 
L 251.376238 -2.470909 
L 250.658737 -2.470909 
L 249.941237 -2.470909 
L 249.223737 -2.470909 
L 248.506236 -2.470909 
L 247.788736 -2.470909 
L 247.071236 -2.470909 
L 246.353735 -2.470909 
L 245.636235 -2.470909 
L 244.918735 -2.470909 
L 244.201234 -2.470909 
L 243.483734 -2.470909 
L 242.766234 -2.470909 
L 242.048733 -2.470909 
L 241.331233 -2.470909 
L 240.613733 -2.470909 
L 239.896232 -2.470909 
L 239.178732 -2.470909 
L 238.461232 -2.470909 
L 237.743732 -2.470909 
L 237.026231 -2.470909 
L 236.308731 -2.470909 
L 235.591231 -2.470909 
L 234.87373 -2.470909 
L 234.15623 -2.470909 
L 233.43873 -2.470909 
L 232.721229 -2.470909 
L 232.003729 -2.470909 
L 231.286229 -2.470909 
L 230.568728 -2.470909 
L 229.851228 -2.470909 
L 229.133728 -2.470909 
L 228.416227 -2.470909 
L 227.698727 -2.470909 
L 226.981227 -2.470909 
L 226.263726 -2.470909 
L 225.546226 -2.470909 
L 224.828726 -2.470909 
L 224.111225 -2.470909 
L 223.393725 -2.470909 
L 222.676225 -2.470909 
L 221.958724 -2.470909 
L 221.241224 -2.470909 
L 220.523724 -2.470909 
L 219.806223 -2.470909 
L 219.088723 -2.470909 
L 218.371223 -2.470909 
L 217.653723 -2.470909 
L 216.936222 -2.470909 
L 216.218722 -2.470909 
L 215.501222 -2.470909 
L 214.783721 -2.470909 
L 214.066221 -2.470909 
L 213.348721 -2.470909 
L 212.63122 -2.470909 
L 211.91372 -2.470909 
L 211.19622 -2.470909 
L 210.478719 -2.470909 
L 209.761219 -2.470909 
L 209.043719 -2.470909 
L 208.326218 -2.470909 
L 207.608718 -2.470909 
L 206.891218 -2.470909 
L 206.173717 -2.470909 
L 205.456217 -2.470909 
L 204.738717 -2.470909 
L 204.021216 -2.470909 
L 203.303716 -2.470909 
L 202.586216 -2.470909 
L 201.868715 -2.470909 
L 201.151215 -2.470909 
L 200.433715 -2.470909 
L 199.716214 -2.470909 
L 198.998714 -2.470909 
L 198.281214 -2.470909 
L 197.563714 -2.470909 
L 196.846213 -2.470909 
L 196.128713 -2.470909 
L 195.411213 -2.470909 
L 194.693712 -2.470909 
L 193.976212 -2.470909 
L 193.258712 -2.470909 
L 192.541211 -2.470909 
L 191.823711 -2.470909 
L 191.106211 -2.470909 
L 190.38871 -2.470909 
L 189.67121 -2.470909 
L 188.95371 -2.470909 
L 188.236209 -2.470909 
L 187.518709 -2.470909 
L 186.801209 -2.470909 
L 186.083708 -2.470909 
L 185.366208 -2.470909 
L 184.648708 -2.470909 
L 183.931207 -2.470909 
L 183.213707 -2.470909 
L 182.496207 -2.470909 
L 181.778706 -2.470909 
L 181.061206 -2.470909 
L 180.343706 -2.470909 
z
" style="stroke: #116dc2; stroke-opacity: 0.2"/>
    </defs>
    <g clip-path="url(#pc292556b1f)">
     <use xlink:href="#m63b45ef443" x="0" y="54.36" style="fill: #116dc2; fill-opacity: 0.2; stroke: #116dc2; stroke-opacity: 0.2"/>
    </g>
   </g>
   <g id="PolyCollection_3">
    <defs>
     <path id="md89e2facc6" d="M 25.363636 -2.470909 
L 25.363636 -5.509161 
L 26.081137 -6.408575 
L 26.798637 -7.359716 
L 27.516137 -8.363225 
L 28.233638 -9.421849 
L 28.951138 -10.629128 
L 29.668638 -12.133482 
L 30.386139 -14.016899 
L 31.103639 -16.262261 
L 31.821139 -18.789388 
L 32.53864 -21.504996 
L 33.25614 -24.331628 
L 33.97364 -27.162095 
L 34.691141 -29.890361 
L 35.408641 -32.611652 
L 36.126141 -35.502783 
L 36.843642 -38.447608 
L 37.561142 -41.189451 
L 38.278642 -43.715857 
L 38.996142 -46.103079 
L 39.713643 -48.215893 
L 40.431143 -49.872296 
L 41.148643 -51.05572 
L 41.866144 -51.769782 
L 42.583644 -51.889091 
L 43.301144 -51.125474 
L 44.018645 -49.27343 
L 44.736145 -46.753046 
L 45.453645 -44.464312 
L 46.171146 -42.80567 
L 46.888646 -41.266508 
L 47.606146 -39.181247 
L 48.323647 -36.496526 
L 49.041147 -33.611983 
L 49.758647 -30.86714 
L 50.476148 -28.347679 
L 51.193648 -25.842989 
L 51.911148 -23.046655 
L 52.628649 -19.998624 
L 53.346149 -17.07686 
L 54.063649 -14.563693 
L 54.78115 -12.499522 
L 55.49865 -10.848519 
L 56.21615 -9.570315 
L 56.933651 -8.584655 
L 57.651151 -7.746773 
L 58.368651 -6.873497 
L 59.086151 -5.895442 
L 59.803652 -4.948471 
L 59.803652 -2.470909 
L 59.803652 -2.470909 
L 59.086151 -2.470909 
L 58.368651 -2.470909 
L 57.651151 -2.470909 
L 56.933651 -2.470909 
L 56.21615 -2.470909 
L 55.49865 -2.470909 
L 54.78115 -2.470909 
L 54.063649 -2.470909 
L 53.346149 -2.470909 
L 52.628649 -2.470909 
L 51.911148 -2.470909 
L 51.193648 -2.470909 
L 50.476148 -2.470909 
L 49.758647 -2.470909 
L 49.041147 -2.470909 
L 48.323647 -2.470909 
L 47.606146 -2.470909 
L 46.888646 -2.470909 
L 46.171146 -2.470909 
L 45.453645 -2.470909 
L 44.736145 -2.470909 
L 44.018645 -2.470909 
L 43.301144 -2.470909 
L 42.583644 -2.470909 
L 41.866144 -2.470909 
L 41.148643 -2.470909 
L 40.431143 -2.470909 
L 39.713643 -2.470909 
L 38.996142 -2.470909 
L 38.278642 -2.470909 
L 37.561142 -2.470909 
L 36.843642 -2.470909 
L 36.126141 -2.470909 
L 35.408641 -2.470909 
L 34.691141 -2.470909 
L 33.97364 -2.470909 
L 33.25614 -2.470909 
L 32.53864 -2.470909 
L 31.821139 -2.470909 
L 31.103639 -2.470909 
L 30.386139 -2.470909 
L 29.668638 -2.470909 
L 28.951138 -2.470909 
L 28.233638 -2.470909 
L 27.516137 -2.470909 
L 26.798637 -2.470909 
L 26.081137 -2.470909 
L 25.363636 -2.470909 
z
" style="stroke: #8a8a8a; stroke-opacity: 0.2"/>
    </defs>
    <g clip-path="url(#pc292556b1f)">
     <use xlink:href="#md89e2facc6" x="0" y="54.36" style="fill: #8a8a8a; fill-opacity: 0.2; stroke: #8a8a8a; stroke-opacity: 0.2"/>
    </g>
   </g>
   <g id="line2d_1">
    <path d="M 311.646265 50.387852 
L 318.103768 49.686732 
L 323.12627 48.945928 
L 328.148772 47.990372 
L 335.323775 46.353351 
L 342.498778 44.551881 
L 346.80378 43.211213 
L 351.826283 41.373928 
L 367.61129 35.298172 
L 373.351292 32.7408 
L 379.808795 29.571816 
L 385.548798 26.835604 
L 389.136299 25.368399 
L 392.723801 24.130281 
L 401.333805 21.528228 
L 407.073807 19.90809 
L 410.661309 19.115006 
L 414.966311 18.379885 
L 419.271313 17.841689 
L 422.141314 17.650703 
L 425.011315 17.676703 
L 427.163816 17.879473 
L 429.316317 18.254272 
L 432.186319 18.996991 
L 436.491321 20.410478 
L 442.231323 22.258171 
L 448.688826 24.329659 
L 452.993828 26.015426 
L 458.01633 28.272722 
L 464.473833 31.466655 
L 470.931336 34.611856 
L 475.236338 36.439466 
L 483.846342 39.751988 
L 490.303845 42.101017 
L 494.608847 43.424711 
L 499.631349 44.71267 
L 519.003858 49.261432 
L 524.02636 49.993618 
L 529.766362 50.584588 
L 532.636364 50.810252 
L 532.636364 50.810252 
" clip-path="url(#pc292556b1f)" style="fill: none; stroke: #cf1313; stroke-width: 1.5; stroke-linecap: square"/>
   </g>
   <g id="line2d_2">
    <path d="M 180.343706 50.426288 
L 185.366208 49.592607 
L 191.106211 48.403932 
L 195.411213 47.311279 
L 198.998714 46.193378 
L 210.478719 42.330524 
L 215.501222 40.855259 
L 218.371223 39.742805 
L 221.241224 38.329206 
L 224.111225 36.659126 
L 227.698727 34.327693 
L 232.003729 31.257135 
L 239.178732 26.027074 
L 242.766234 23.753102 
L 246.353735 21.735464 
L 249.223737 20.375902 
L 251.376238 19.589723 
L 253.528739 19.029074 
L 257.11624 18.420173 
L 260.703742 17.752012 
L 267.878745 16.10032 
L 270.031246 15.978726 
L 272.183747 16.123028 
L 274.336248 16.483628 
L 277.206249 17.201455 
L 280.07625 18.126971 
L 282.946252 19.258888 
L 285.816253 20.633751 
L 288.686254 22.267407 
L 303.753761 31.415276 
L 310.211264 35.387283 
L 313.798766 37.50848 
L 316.668767 38.959045 
L 320.256268 40.487644 
L 325.996271 42.921824 
L 331.018773 45.06879 
L 333.888775 46.055792 
L 337.476276 47.0107 
L 343.933779 48.38873 
L 351.108782 49.740742 
L 354.696284 50.280347 
L 354.696284 50.280347 
" clip-path="url(#pc292556b1f)" style="fill: none; stroke: #116dc2; stroke-width: 1.5; stroke-linecap: square"/>
   </g>
   <g id="line2d_3">
    <path d="M 25.363636 48.850839 
L 26.081137 47.951425 
L 26.798637 47.000284 
L 27.516137 45.996775 
L 28.233638 44.938151 
L 28.951138 43.730872 
L 29.668638 42.226518 
L 30.386139 40.343101 
L 31.103639 38.097739 
L 31.821139 35.570612 
L 32.53864 32.855004 
L 33.25614 30.028372 
L 33.97364 27.197905 
L 34.691141 24.469639 
L 35.408641 21.748348 
L 36.126141 18.857217 
L 36.843642 15.912392 
L 37.561142 13.170549 
L 38.278642 10.644143 
L 38.996142 8.256921 
L 39.713643 6.144107 
L 40.431143 4.487704 
L 41.148643 3.30428 
L 41.866144 2.590218 
L 42.583644 2.470909 
L 43.301144 3.234526 
L 44.018645 5.08657 
L 44.736145 7.606954 
L 45.453645 9.895688 
L 46.171146 11.55433 
L 46.888646 13.093492 
L 47.606146 15.178753 
L 48.323647 17.863474 
L 49.041147 20.748017 
L 49.758647 23.49286 
L 50.476148 26.012321 
L 51.193648 28.517011 
L 51.911148 31.313345 
L 52.628649 34.361376 
L 53.346149 37.28314 
L 54.063649 39.796307 
L 54.78115 41.860478 
L 55.49865 43.511481 
L 56.21615 44.789685 
L 56.933651 45.775345 
L 57.651151 46.613227 
L 58.368651 47.486503 
L 59.086151 48.464558 
L 59.803652 49.411529 
" clip-path="url(#pc292556b1f)" style="fill: none; stroke: #8a8a8a; stroke-width: 1.5; stroke-linecap: square"/>
   </g>
  </g>
 </g>
 <defs>
  <clipPath id="pc292556b1f">
   <rect x="0" y="-0" width="558" height="54.36"/>
  </clipPath>
 </defs>
</svg>
