<?xml version="1.0" encoding="utf-8" standalone="no"?>
<!DOCTYPE svg PUBLIC "-//W3C//DTD SVG 1.1//EN"
  "http://www.w3.org/Graphics/SVG/1.1/DTD/svg11.dtd">
<svg xmlns:xlink="http://www.w3.org/1999/xlink" width="558pt" height="54.36pt" viewBox="0 0 558 54.36" xmlns="http://www.w3.org/2000/svg" version="1.1">
 <metadata>
  <rdf:RDF xmlns:dc="http://purl.org/dc/elements/1.1/" xmlns:cc="http://creativecommons.org/ns#" xmlns:rdf="http://www.w3.org/1999/02/22-rdf-syntax-ns#">
   <cc:Work>
    <dc:type rdf:resource="http://purl.org/dc/dcmitype/StillImage"/>
    <dc:date>2024-09-15T09:30:42.444723</dc:date>
    <dc:format>image/svg+xml</dc:format>
    <dc:creator>
     <cc:Agent>
      <dc:title>Matplotlib v3.5.2, https://matplotlib.org/</dc:title>
     </cc:Agent>
    </dc:creator>
   </cc:Work>
  </rdf:RDF>
 </metadata>
 <defs>
  <style type="text/css">*{stroke-linejoin: round; stroke-linecap: butt}</style>
 </defs>
 <g id="figure_1">
  <g id="patch_1">
   <path d="M 0 54.36 
L 558 54.36 
L 558 0 
L 0 0 
L 0 54.36 
z
" style="fill: none; opacity: 0"/>
  </g>
  <g id="axes_1">
   <g id="PolyCollection_1">
    <defs>
     <path id="mb457193678" d="M 311.425103 -2.470909 
L 311.425103 -3.585849 
L 312.145661 -3.632496 
L 312.866219 -3.683197 
L 313.586777 -3.738332 
L 314.307335 -3.798226 
L 315.027893 -3.863149 
L 315.74845 -3.933308 
L 316.469008 -4.008851 
L 317.189566 -4.089867 
L 317.910124 -4.176388 
L 318.630682 -4.268401 
L 319.35124 -4.365847 
L 320.071798 -4.468629 
L 320.792355 -4.576617 
L 321.512913 -4.68965 
L 322.233471 -4.807545 
L 322.954029 -4.930094 
L 323.674587 -5.057075 
L 324.395145 -5.188245 
L 325.115702 -5.323353 
L 325.83626 -5.462138 
L 326.556818 -5.604339 
L 327.277376 -5.749693 
L 327.997934 -5.897949 
L 328.718492 -6.048872 
L 329.43905 -6.202249 
L 330.159607 -6.3579 
L 330.880165 -6.515681 
L 331.600723 -6.675496 
L 332.321281 -6.837295 
L 333.041839 -7.001082 
L 333.762397 -7.166912 
L 334.482955 -7.334889 
L 335.203512 -7.505165 
L 335.92407 -7.677923 
L 336.644628 -7.853375 
L 337.365186 -8.031744 
L 338.085744 -8.213249 
L 338.806302 -8.398091 
L 339.52686 -8.586438 
L 340.247417 -8.778407 
L 340.967975 -8.974052 
L 341.688533 -9.173357 
L 342.409091 -9.376222 
L 343.129649 -9.582465 
L 343.850207 -9.791821 
L 344.570764 -10.003952 
L 345.291322 -10.218451 
L 346.01188 -10.434865 
L 346.732438 -10.652711 
L 347.452996 -10.8715 
L 348.173554 -11.090763 
L 348.894112 -11.310077 
L 349.614669 -11.529094 
L 350.335227 -11.747557 
L 351.055785 -11.965331 
L 351.776343 -12.182405 
L 352.496901 -12.398908 
L 353.217459 -12.615105 
L 353.938017 -12.831388 
L 354.658574 -13.04826 
L 355.379132 -13.266315 
L 356.09969 -13.486207 
L 356.820248 -13.708621 
L 357.540806 -13.934239 
L 358.261364 -14.163712 
L 358.981921 -14.397633 
L 359.702479 -14.636516 
L 360.423037 -14.880781 
L 361.143595 -15.130747 
L 361.864153 -15.386632 
L 362.584711 -15.648562 
L 363.305269 -15.916575 
L 364.025826 -16.190644 
L 364.746384 -16.470686 
L 365.466942 -16.756582 
L 366.1875 -17.048189 
L 366.908058 -17.345351 
L 367.628616 -17.647912 
L 368.349174 -17.955716 
L 369.069731 -18.268611 
L 369.790289 -18.586452 
L 370.510847 -18.909097 
L 371.231405 -19.236405 
L 371.951963 -19.568236 
L 372.672521 -19.904446 
L 373.393079 -20.244886 
L 374.113636 -20.589402 
L 374.834194 -20.937831 
L 375.554752 -21.290001 
L 376.27531 -21.645727 
L 376.995868 -22.004809 
L 377.716426 -22.367021 
L 378.436983 -22.732112 
L 379.157541 -23.099796 
L 379.878099 -23.469742 
L 380.598657 -23.841572 
L 381.319215 -24.214858 
L 382.039773 -24.589114 
L 382.760331 -24.963808 
L 383.480888 -25.338361 
L 384.201446 -25.712162 
L 384.922004 -26.084586 
L 385.642562 -26.455008 
L 386.36312 -26.822827 
L 387.083678 -27.187486 
L 387.804236 -27.548495 
L 388.524793 -27.905439 
L 389.245351 -28.257997 
L 389.965909 -28.60594 
L 390.686467 -28.949129 
L 391.407025 -29.287502 
L 392.127583 -29.621053 
L 392.84814 -29.949809 
L 393.568698 -30.273799 
L 394.289256 -30.593023 
L 395.009814 -30.907426 
L 395.730372 -31.216873 
L 396.45093 -31.521133 
L 397.171488 -31.819873 
L 397.892045 -32.112665 
L 398.612603 -32.398998 
L 399.333161 -32.678306 
L 400.053719 -32.95 
L 400.774277 -33.213506 
L 401.494835 -33.468306 
L 402.215393 -33.713969 
L 402.93595 -33.950188 
L 403.656508 -34.176791 
L 404.377066 -34.393756 
L 405.097624 -34.601205 
L 405.818182 -34.799385 
L 406.53874 -34.988643 
L 407.259298 -35.169386 
L 407.979855 -35.342046 
L 408.700413 -35.507033 
L 409.420971 -35.6647 
L 410.141529 -35.815308 
L 410.862087 -35.959007 
L 411.582645 -36.095816 
L 412.303202 -36.225629 
L 413.02376 -36.348218 
L 413.744318 -36.463253 
L 414.464876 -36.570327 
L 415.185434 -36.668981 
L 415.905992 -36.758737 
L 416.62655 -36.839121 
L 417.347107 -36.909694 
L 418.067665 -36.970067 
L 418.788223 -37.019921 
L 419.508781 -37.059013 
L 420.229339 -37.087187 
L 420.949897 -37.104376 
L 421.670455 -37.110602 
L 422.391012 -37.105976 
L 423.11157 -37.0907 
L 423.832128 -37.065062 
L 424.552686 -37.029434 
L 425.273244 -36.984266 
L 425.993802 -36.930077 
L 426.71436 -36.867441 
L 427.434917 -36.796968 
L 428.155475 -36.719278 
L 428.876033 -36.634971 
L 429.596591 -36.544598 
L 430.317149 -36.448618 
L 431.037707 -36.347372 
L 431.758264 -36.24105 
L 432.478822 -36.129674 
L 433.19938 -36.013084 
L 433.919938 -35.890949 
L 434.640496 -35.762777 
L 435.361054 -35.627953 
L 436.081612 -35.485777 
L 436.802169 -35.335516 
L 437.522727 -35.176461 
L 438.243285 -35.007978 
L 438.963843 -34.829557 
L 439.684401 -34.640853 
L 440.404959 -34.441711 
L 441.125517 -34.23217 
L 441.846074 -34.012465 
L 442.566632 -33.783002 
L 443.28719 -33.544324 
L 444.007748 -33.297072 
L 444.728306 -33.041939 
L 445.448864 -32.779621 
L 446.169421 -32.510783 
L 446.889979 -32.236019 
L 447.610537 -31.955836 
L 448.331095 -31.670636 
L 449.051653 -31.380721 
L 449.772211 -31.086295 
L 450.492769 -30.787483 
L 451.213326 -30.484348 
L 451.933884 -30.176911 
L 452.654442 -29.865167 
L 453.375 -29.5491 
L 454.095558 -29.228692 
L 454.816116 -28.903925 
L 455.536674 -28.574782 
L 456.257231 -28.241242 
L 456.977789 -27.903276 
L 457.698347 -27.56084 
L 458.418905 -27.213873 
L 459.139463 -26.862303 
L 459.860021 -26.506047 
L 460.580579 -26.145028 
L 461.301136 -25.779191 
L 462.021694 -25.408522 
L 462.742252 -25.033074 
L 463.46281 -24.652988 
L 464.183368 -24.268517 
L 464.903926 -23.880041 
L 465.624483 -23.488082 
L 466.345041 -23.093307 
L 467.065599 -22.696525 
L 467.786157 -22.298677 
L 468.506715 -21.900812 
L 469.227273 -21.504063 
L 469.947831 -21.109612 
L 470.668388 -20.718654 
L 471.388946 -20.332356 
L 472.109504 -19.951815 
L 472.830062 -19.578028 
L 473.55062 -19.21185 
L 474.271178 -18.853974 
L 474.991736 -18.504907 
L 475.712293 -18.164957 
L 476.432851 -17.834232 
L 477.153409 -17.512641 
L 477.873967 -17.19991 
L 478.594525 -16.895594 
L 479.315083 -16.599111 
L 480.03564 -16.309763 
L 480.756198 -16.026772 
L 481.476756 -15.749314 
L 482.197314 -15.476548 
L 482.917872 -15.207654 
L 483.63843 -14.941852 
L 484.358988 -14.678433 
L 485.079545 -14.416772 
L 485.800103 -14.156342 
L 486.520661 -13.896717 
L 487.241219 -13.637574 
L 487.961777 -13.378691 
L 488.682335 -13.119933 
L 489.402893 -12.861244 
L 490.12345 -12.602634 
L 490.844008 -12.344169 
L 491.564566 -12.085958 
L 492.285124 -11.82815 
L 493.005682 -11.57092 
L 493.72624 -11.314478 
L 494.446798 -11.059059 
L 495.167355 -10.804935 
L 495.887913 -10.552412 
L 496.608471 -10.301837 
L 497.329029 -10.053599 
L 498.049587 -9.808134 
L 498.770145 -9.565917 
L 499.490702 -9.327462 
L 500.21126 -9.093311 
L 500.931818 -8.864022 
L 501.652376 -8.640156 
L 502.372934 -8.422256 
L 503.093492 -8.21083 
L 503.81405 -8.006334 
L 504.534607 -7.809148 
L 505.255165 -7.619563 
L 505.975723 -7.437768 
L 506.696281 -7.263836 
L 507.416839 -7.09772 
L 508.137397 -6.939253 
L 508.857955 -6.788153 
L 509.578512 -6.64403 
L 510.29907 -6.506406 
L 511.019628 -6.374729 
L 511.740186 -6.248402 
L 512.460744 -6.126802 
L 513.181302 -6.009311 
L 513.90186 -5.89534 
L 514.622417 -5.784355 
L 515.342975 -5.675894 
L 516.063533 -5.569585 
L 516.784091 -5.46516 
L 517.504649 -5.362453 
L 518.225207 -5.261404 
L 518.945764 -5.162051 
L 519.666322 -5.064514 
L 520.38688 -4.968981 
L 521.107438 -4.875687 
L 521.827996 -4.784891 
L 522.548554 -4.696852 
L 523.269112 -4.611813 
L 523.989669 -4.529977 
L 524.710227 -4.451493 
L 525.430785 -4.376445 
L 526.151343 -4.304848 
L 526.871901 -4.236644 
L 527.592459 -4.171706 
L 528.313017 -4.109845 
L 529.033574 -4.050822 
L 529.754132 -3.994362 
L 530.47469 -3.940168 
L 531.195248 -3.887939 
L 531.915806 -3.83738 
L 532.636364 -3.788223 
L 532.636364 -2.470909 
L 532.636364 -2.470909 
L 531.915806 -2.470909 
L 531.195248 -2.470909 
L 530.47469 -2.470909 
L 529.754132 -2.470909 
L 529.033574 -2.470909 
L 528.313017 -2.470909 
L 527.592459 -2.470909 
L 526.871901 -2.470909 
L 526.151343 -2.470909 
L 525.430785 -2.470909 
L 524.710227 -2.470909 
L 523.989669 -2.470909 
L 523.269112 -2.470909 
L 522.548554 -2.470909 
L 521.827996 -2.470909 
L 521.107438 -2.470909 
L 520.38688 -2.470909 
L 519.666322 -2.470909 
L 518.945764 -2.470909 
L 518.225207 -2.470909 
L 517.504649 -2.470909 
L 516.784091 -2.470909 
L 516.063533 -2.470909 
L 515.342975 -2.470909 
L 514.622417 -2.470909 
L 513.90186 -2.470909 
L 513.181302 -2.470909 
L 512.460744 -2.470909 
L 511.740186 -2.470909 
L 511.019628 -2.470909 
L 510.29907 -2.470909 
L 509.578512 -2.470909 
L 508.857955 -2.470909 
L 508.137397 -2.470909 
L 507.416839 -2.470909 
L 506.696281 -2.470909 
L 505.975723 -2.470909 
L 505.255165 -2.470909 
L 504.534607 -2.470909 
L 503.81405 -2.470909 
L 503.093492 -2.470909 
L 502.372934 -2.470909 
L 501.652376 -2.470909 
L 500.931818 -2.470909 
L 500.21126 -2.470909 
L 499.490702 -2.470909 
L 498.770145 -2.470909 
L 498.049587 -2.470909 
L 497.329029 -2.470909 
L 496.608471 -2.470909 
L 495.887913 -2.470909 
L 495.167355 -2.470909 
L 494.446798 -2.470909 
L 493.72624 -2.470909 
L 493.005682 -2.470909 
L 492.285124 -2.470909 
L 491.564566 -2.470909 
L 490.844008 -2.470909 
L 490.12345 -2.470909 
L 489.402893 -2.470909 
L 488.682335 -2.470909 
L 487.961777 -2.470909 
L 487.241219 -2.470909 
L 486.520661 -2.470909 
L 485.800103 -2.470909 
L 485.079545 -2.470909 
L 484.358988 -2.470909 
L 483.63843 -2.470909 
L 482.917872 -2.470909 
L 482.197314 -2.470909 
L 481.476756 -2.470909 
L 480.756198 -2.470909 
L 480.03564 -2.470909 
L 479.315083 -2.470909 
L 478.594525 -2.470909 
L 477.873967 -2.470909 
L 477.153409 -2.470909 
L 476.432851 -2.470909 
L 475.712293 -2.470909 
L 474.991736 -2.470909 
L 474.271178 -2.470909 
L 473.55062 -2.470909 
L 472.830062 -2.470909 
L 472.109504 -2.470909 
L 471.388946 -2.470909 
L 470.668388 -2.470909 
L 469.947831 -2.470909 
L 469.227273 -2.470909 
L 468.506715 -2.470909 
L 467.786157 -2.470909 
L 467.065599 -2.470909 
L 466.345041 -2.470909 
L 465.624483 -2.470909 
L 464.903926 -2.470909 
L 464.183368 -2.470909 
L 463.46281 -2.470909 
L 462.742252 -2.470909 
L 462.021694 -2.470909 
L 461.301136 -2.470909 
L 460.580579 -2.470909 
L 459.860021 -2.470909 
L 459.139463 -2.470909 
L 458.418905 -2.470909 
L 457.698347 -2.470909 
L 456.977789 -2.470909 
L 456.257231 -2.470909 
L 455.536674 -2.470909 
L 454.816116 -2.470909 
L 454.095558 -2.470909 
L 453.375 -2.470909 
L 452.654442 -2.470909 
L 451.933884 -2.470909 
L 451.213326 -2.470909 
L 450.492769 -2.470909 
L 449.772211 -2.470909 
L 449.051653 -2.470909 
L 448.331095 -2.470909 
L 447.610537 -2.470909 
L 446.889979 -2.470909 
L 446.169421 -2.470909 
L 445.448864 -2.470909 
L 444.728306 -2.470909 
L 444.007748 -2.470909 
L 443.28719 -2.470909 
L 442.566632 -2.470909 
L 441.846074 -2.470909 
L 441.125517 -2.470909 
L 440.404959 -2.470909 
L 439.684401 -2.470909 
L 438.963843 -2.470909 
L 438.243285 -2.470909 
L 437.522727 -2.470909 
L 436.802169 -2.470909 
L 436.081612 -2.470909 
L 435.361054 -2.470909 
L 434.640496 -2.470909 
L 433.919938 -2.470909 
L 433.19938 -2.470909 
L 432.478822 -2.470909 
L 431.758264 -2.470909 
L 431.037707 -2.470909 
L 430.317149 -2.470909 
L 429.596591 -2.470909 
L 428.876033 -2.470909 
L 428.155475 -2.470909 
L 427.434917 -2.470909 
L 426.71436 -2.470909 
L 425.993802 -2.470909 
L 425.273244 -2.470909 
L 424.552686 -2.470909 
L 423.832128 -2.470909 
L 423.11157 -2.470909 
L 422.391012 -2.470909 
L 421.670455 -2.470909 
L 420.949897 -2.470909 
L 420.229339 -2.470909 
L 419.508781 -2.470909 
L 418.788223 -2.470909 
L 418.067665 -2.470909 
L 417.347107 -2.470909 
L 416.62655 -2.470909 
L 415.905992 -2.470909 
L 415.185434 -2.470909 
L 414.464876 -2.470909 
L 413.744318 -2.470909 
L 413.02376 -2.470909 
L 412.303202 -2.470909 
L 411.582645 -2.470909 
L 410.862087 -2.470909 
L 410.141529 -2.470909 
L 409.420971 -2.470909 
L 408.700413 -2.470909 
L 407.979855 -2.470909 
L 407.259298 -2.470909 
L 406.53874 -2.470909 
L 405.818182 -2.470909 
L 405.097624 -2.470909 
L 404.377066 -2.470909 
L 403.656508 -2.470909 
L 402.93595 -2.470909 
L 402.215393 -2.470909 
L 401.494835 -2.470909 
L 400.774277 -2.470909 
L 400.053719 -2.470909 
L 399.333161 -2.470909 
L 398.612603 -2.470909 
L 397.892045 -2.470909 
L 397.171488 -2.470909 
L 396.45093 -2.470909 
L 395.730372 -2.470909 
L 395.009814 -2.470909 
L 394.289256 -2.470909 
L 393.568698 -2.470909 
L 392.84814 -2.470909 
L 392.127583 -2.470909 
L 391.407025 -2.470909 
L 390.686467 -2.470909 
L 389.965909 -2.470909 
L 389.245351 -2.470909 
L 388.524793 -2.470909 
L 387.804236 -2.470909 
L 387.083678 -2.470909 
L 386.36312 -2.470909 
L 385.642562 -2.470909 
L 384.922004 -2.470909 
L 384.201446 -2.470909 
L 383.480888 -2.470909 
L 382.760331 -2.470909 
L 382.039773 -2.470909 
L 381.319215 -2.470909 
L 380.598657 -2.470909 
L 379.878099 -2.470909 
L 379.157541 -2.470909 
L 378.436983 -2.470909 
L 377.716426 -2.470909 
L 376.995868 -2.470909 
L 376.27531 -2.470909 
L 375.554752 -2.470909 
L 374.834194 -2.470909 
L 374.113636 -2.470909 
L 373.393079 -2.470909 
L 372.672521 -2.470909 
L 371.951963 -2.470909 
L 371.231405 -2.470909 
L 370.510847 -2.470909 
L 369.790289 -2.470909 
L 369.069731 -2.470909 
L 368.349174 -2.470909 
L 367.628616 -2.470909 
L 366.908058 -2.470909 
L 366.1875 -2.470909 
L 365.466942 -2.470909 
L 364.746384 -2.470909 
L 364.025826 -2.470909 
L 363.305269 -2.470909 
L 362.584711 -2.470909 
L 361.864153 -2.470909 
L 361.143595 -2.470909 
L 360.423037 -2.470909 
L 359.702479 -2.470909 
L 358.981921 -2.470909 
L 358.261364 -2.470909 
L 357.540806 -2.470909 
L 356.820248 -2.470909 
L 356.09969 -2.470909 
L 355.379132 -2.470909 
L 354.658574 -2.470909 
L 353.938017 -2.470909 
L 353.217459 -2.470909 
L 352.496901 -2.470909 
L 351.776343 -2.470909 
L 351.055785 -2.470909 
L 350.335227 -2.470909 
L 349.614669 -2.470909 
L 348.894112 -2.470909 
L 348.173554 -2.470909 
L 347.452996 -2.470909 
L 346.732438 -2.470909 
L 346.01188 -2.470909 
L 345.291322 -2.470909 
L 344.570764 -2.470909 
L 343.850207 -2.470909 
L 343.129649 -2.470909 
L 342.409091 -2.470909 
L 341.688533 -2.470909 
L 340.967975 -2.470909 
L 340.247417 -2.470909 
L 339.52686 -2.470909 
L 338.806302 -2.470909 
L 338.085744 -2.470909 
L 337.365186 -2.470909 
L 336.644628 -2.470909 
L 335.92407 -2.470909 
L 335.203512 -2.470909 
L 334.482955 -2.470909 
L 333.762397 -2.470909 
L 333.041839 -2.470909 
L 332.321281 -2.470909 
L 331.600723 -2.470909 
L 330.880165 -2.470909 
L 330.159607 -2.470909 
L 329.43905 -2.470909 
L 328.718492 -2.470909 
L 327.997934 -2.470909 
L 327.277376 -2.470909 
L 326.556818 -2.470909 
L 325.83626 -2.470909 
L 325.115702 -2.470909 
L 324.395145 -2.470909 
L 323.674587 -2.470909 
L 322.954029 -2.470909 
L 322.233471 -2.470909 
L 321.512913 -2.470909 
L 320.792355 -2.470909 
L 320.071798 -2.470909 
L 319.35124 -2.470909 
L 318.630682 -2.470909 
L 317.910124 -2.470909 
L 317.189566 -2.470909 
L 316.469008 -2.470909 
L 315.74845 -2.470909 
L 315.027893 -2.470909 
L 314.307335 -2.470909 
L 313.586777 -2.470909 
L 312.866219 -2.470909 
L 312.145661 -2.470909 
L 311.425103 -2.470909 
z
" style="stroke: #cf1313; stroke-opacity: 0.2"/>
    </defs>
    <g clip-path="url(#pba0a7d75cb)">
     <use xlink:href="#mb457193678" x="0" y="54.36" style="fill: #cf1313; fill-opacity: 0.2; stroke: #cf1313; stroke-opacity: 0.2"/>
    </g>
   </g>
   <g id="PolyCollection_2">
    <defs>
     <path id="mbb521d75e4" d="M 180.283574 -2.470909 
L 180.283574 -4.077778 
L 181.004132 -4.170595 
L 181.72469 -4.263914 
L 182.445248 -4.356928 
L 183.165806 -4.44895 
L 183.886364 -4.539508 
L 184.606921 -4.628409 
L 185.327479 -4.715803 
L 186.048037 -4.802204 
L 186.768595 -4.888489 
L 187.489153 -4.97586 
L 188.209711 -5.065769 
L 188.930269 -5.159826 
L 189.650826 -5.259687 
L 190.371384 -5.366928 
L 191.091942 -5.482938 
L 191.8125 -5.60882 
L 192.533058 -5.745321 
L 193.253616 -5.892793 
L 193.974174 -6.051191 
L 194.694731 -6.220096 
L 195.415289 -6.398782 
L 196.135847 -6.586286 
L 196.856405 -6.7815 
L 197.576963 -6.983272 
L 198.297521 -7.190487 
L 199.018079 -7.402153 
L 199.738636 -7.617466 
L 200.459194 -7.835859 
L 201.179752 -8.057035 
L 201.90031 -8.280987 
L 202.620868 -8.507999 
L 203.341426 -8.738639 
L 204.061983 -8.973739 
L 204.782541 -9.214363 
L 205.503099 -9.46176 
L 206.223657 -9.717317 
L 206.944215 -9.982487 
L 207.664773 -10.25872 
L 208.385331 -10.547377 
L 209.105888 -10.84965 
L 209.826446 -11.166473 
L 210.547004 -11.498441 
L 211.267562 -11.845739 
L 211.98812 -12.208086 
L 212.708678 -12.584687 
L 213.429236 -12.97422 
L 214.149793 -13.374838 
L 214.870351 -13.784202 
L 215.590909 -14.199543 
L 216.311467 -14.617757 
L 217.032025 -15.035532 
L 217.752583 -15.449498 
L 218.47314 -15.856406 
L 219.193698 -16.253319 
L 219.914256 -16.637796 
L 220.634814 -17.008072 
L 221.355372 -17.363197 
L 222.07593 -17.703132 
L 222.796488 -18.028783 
L 223.517045 -18.341967 
L 224.237603 -18.645306 
L 224.958161 -18.942065 
L 225.678719 -19.235931 
L 226.399277 -19.530778 
L 227.119835 -19.830417 
L 227.840393 -20.138368 
L 228.56095 -20.457671 
L 229.281508 -20.790749 
L 230.002066 -21.139335 
L 230.722624 -21.504447 
L 231.443182 -21.886426 
L 232.16374 -22.284994 
L 232.884298 -22.699344 
L 233.604855 -23.128218 
L 234.325413 -23.56999 
L 235.045971 -24.022724 
L 235.766529 -24.484213 
L 236.487087 -24.952022 
L 237.207645 -25.423515 
L 237.928202 -25.895901 
L 238.64876 -26.366306 
L 239.369318 -26.831861 
L 240.089876 -27.289836 
L 240.810434 -27.73778 
L 241.530992 -28.173692 
L 242.25155 -28.596174 
L 242.972107 -29.00457 
L 243.692665 -29.399066 
L 244.413223 -29.780731 
L 245.133781 -30.151495 
L 245.854339 -30.514051 
L 246.574897 -30.871692 
L 247.295455 -31.228084 
L 248.016012 -31.586989 
L 248.73657 -31.951962 
L 249.457128 -32.326043 
L 250.177686 -32.711465 
L 250.898244 -33.109409 
L 251.618802 -33.519819 
L 252.33936 -33.941303 
L 253.059917 -34.371125 
L 253.780475 -34.805302 
L 254.501033 -35.23879 
L 255.221591 -35.665758 
L 255.942149 -36.079926 
L 256.662707 -36.474947 
L 257.383264 -36.844799 
L 258.103822 -37.184157 
L 258.82438 -37.488725 
L 259.544938 -37.75549 
L 260.265496 -37.982882 
L 260.986054 -38.170837 
L 261.706612 -38.320741 
L 262.427169 -38.435282 
L 263.147727 -38.518203 
L 263.868285 -38.573992 
L 264.588843 -38.607528 
L 265.309401 -38.623717 
L 266.029959 -38.627139 
L 266.750517 -38.621754 
L 267.471074 -38.610658 
L 268.191632 -38.595945 
L 268.91219 -38.578649 
L 269.632748 -38.558789 
L 270.353306 -38.535498 
L 271.073864 -38.507224 
L 271.794421 -38.471973 
L 272.514979 -38.427582 
L 273.235537 -38.37197 
L 273.956095 -38.30336 
L 274.676653 -38.220445 
L 275.397211 -38.122471 
L 276.117769 -38.009243 
L 276.838326 -37.881053 
L 277.558884 -37.738537 
L 278.279442 -37.582497 
L 279 -37.413691 
L 279.720558 -37.232649 
L 280.441116 -37.039512 
L 281.161674 -36.833939 
L 281.882231 -36.615081 
L 282.602789 -36.381634 
L 283.323347 -36.131956 
L 284.043905 -35.864243 
L 284.764463 -35.576736 
L 285.485021 -35.267938 
L 286.205579 -34.936813 
L 286.926136 -34.58295 
L 287.646694 -34.206672 
L 288.367252 -33.809078 
L 289.08781 -33.392032 
L 289.808368 -32.958069 
L 290.528926 -32.510264 
L 291.249483 -32.052056 
L 291.970041 -31.587039 
L 292.690599 -31.118758 
L 293.411157 -30.650503 
L 294.131715 -30.18514 
L 294.852273 -29.724967 
L 295.572831 -29.271636 
L 296.293388 -28.82612 
L 297.013946 -28.38874 
L 297.734504 -27.959243 
L 298.455062 -27.536923 
L 299.17562 -27.120761 
L 299.896178 -26.709583 
L 300.616736 -26.302194 
L 301.337293 -25.897493 
L 302.057851 -25.494545 
L 302.778409 -25.092603 
L 303.498967 -24.691093 
L 304.219525 -24.289557 
L 304.940083 -23.887578 
L 305.66064 -23.484698 
L 306.381198 -23.080352 
L 307.101756 -22.673828 
L 307.822314 -22.264271 
L 308.542872 -21.850722 
L 309.26343 -21.432197 
L 309.983988 -21.007788 
L 310.704545 -20.576786 
L 311.425103 -20.138787 
L 312.145661 -19.69379 
L 312.866219 -19.242256 
L 313.586777 -18.785134 
L 314.307335 -18.323848 
L 315.027893 -17.860247 
L 315.74845 -17.396531 
L 316.469008 -16.935153 
L 317.189566 -16.478714 
L 317.910124 -16.029852 
L 318.630682 -15.591141 
L 319.35124 -15.164982 
L 320.071798 -14.753514 
L 320.792355 -14.358528 
L 321.512913 -13.981384 
L 322.233471 -13.622953 
L 322.954029 -13.28356 
L 323.674587 -12.96296 
L 324.395145 -12.660326 
L 325.115702 -12.374276 
L 325.83626 -12.102923 
L 326.556818 -11.843964 
L 327.277376 -11.594786 
L 327.997934 -11.352596 
L 328.718492 -11.114568 
L 329.43905 -10.877979 
L 330.159607 -10.640348 
L 330.880165 -10.399547 
L 331.600723 -10.153903 
L 332.321281 -9.902253 
L 333.041839 -9.643992 
L 333.762397 -9.379071 
L 334.482955 -9.10799 
L 335.203512 -8.831754 
L 335.92407 -8.551815 
L 336.644628 -8.269997 
L 337.365186 -7.98841 
L 338.085744 -7.709348 
L 338.806302 -7.435187 
L 339.52686 -7.168278 
L 340.247417 -6.910841 
L 340.967975 -6.664869 
L 341.688533 -6.432055 
L 342.409091 -6.213726 
L 343.129649 -6.010812 
L 343.850207 -5.823833 
L 344.570764 -5.652923 
L 345.291322 -5.497858 
L 346.01188 -5.35811 
L 346.732438 -5.232908 
L 347.452996 -5.121289 
L 348.173554 -5.022149 
L 348.894112 -4.934283 
L 349.614669 -4.856401 
L 350.335227 -4.787145 
L 351.055785 -4.725086 
L 351.776343 -4.668733 
L 352.496901 -4.616531 
L 353.217459 -4.566884 
L 353.938017 -4.518185 
L 354.658574 -4.468869 
L 355.379132 -4.417468 
L 356.09969 -4.362693 
L 356.820248 -4.303495 
L 357.540806 -4.239138 
L 357.540806 -2.470909 
L 357.540806 -2.470909 
L 356.820248 -2.470909 
L 356.09969 -2.470909 
L 355.379132 -2.470909 
L 354.658574 -2.470909 
L 353.938017 -2.470909 
L 353.217459 -2.470909 
L 352.496901 -2.470909 
L 351.776343 -2.470909 
L 351.055785 -2.470909 
L 350.335227 -2.470909 
L 349.614669 -2.470909 
L 348.894112 -2.470909 
L 348.173554 -2.470909 
L 347.452996 -2.470909 
L 346.732438 -2.470909 
L 346.01188 -2.470909 
L 345.291322 -2.470909 
L 344.570764 -2.470909 
L 343.850207 -2.470909 
L 343.129649 -2.470909 
L 342.409091 -2.470909 
L 341.688533 -2.470909 
L 340.967975 -2.470909 
L 340.247417 -2.470909 
L 339.52686 -2.470909 
L 338.806302 -2.470909 
L 338.085744 -2.470909 
L 337.365186 -2.470909 
L 336.644628 -2.470909 
L 335.92407 -2.470909 
L 335.203512 -2.470909 
L 334.482955 -2.470909 
L 333.762397 -2.470909 
L 333.041839 -2.470909 
L 332.321281 -2.470909 
L 331.600723 -2.470909 
L 330.880165 -2.470909 
L 330.159607 -2.470909 
L 329.43905 -2.470909 
L 328.718492 -2.470909 
L 327.997934 -2.470909 
L 327.277376 -2.470909 
L 326.556818 -2.470909 
L 325.83626 -2.470909 
L 325.115702 -2.470909 
L 324.395145 -2.470909 
L 323.674587 -2.470909 
L 322.954029 -2.470909 
L 322.233471 -2.470909 
L 321.512913 -2.470909 
L 320.792355 -2.470909 
L 320.071798 -2.470909 
L 319.35124 -2.470909 
L 318.630682 -2.470909 
L 317.910124 -2.470909 
L 317.189566 -2.470909 
L 316.469008 -2.470909 
L 315.74845 -2.470909 
L 315.027893 -2.470909 
L 314.307335 -2.470909 
L 313.586777 -2.470909 
L 312.866219 -2.470909 
L 312.145661 -2.470909 
L 311.425103 -2.470909 
L 310.704545 -2.470909 
L 309.983988 -2.470909 
L 309.26343 -2.470909 
L 308.542872 -2.470909 
L 307.822314 -2.470909 
L 307.101756 -2.470909 
L 306.381198 -2.470909 
L 305.66064 -2.470909 
L 304.940083 -2.470909 
L 304.219525 -2.470909 
L 303.498967 -2.470909 
L 302.778409 -2.470909 
L 302.057851 -2.470909 
L 301.337293 -2.470909 
L 300.616736 -2.470909 
L 299.896178 -2.470909 
L 299.17562 -2.470909 
L 298.455062 -2.470909 
L 297.734504 -2.470909 
L 297.013946 -2.470909 
L 296.293388 -2.470909 
L 295.572831 -2.470909 
L 294.852273 -2.470909 
L 294.131715 -2.470909 
L 293.411157 -2.470909 
L 292.690599 -2.470909 
L 291.970041 -2.470909 
L 291.249483 -2.470909 
L 290.528926 -2.470909 
L 289.808368 -2.470909 
L 289.08781 -2.470909 
L 288.367252 -2.470909 
L 287.646694 -2.470909 
L 286.926136 -2.470909 
L 286.205579 -2.470909 
L 285.485021 -2.470909 
L 284.764463 -2.470909 
L 284.043905 -2.470909 
L 283.323347 -2.470909 
L 282.602789 -2.470909 
L 281.882231 -2.470909 
L 281.161674 -2.470909 
L 280.441116 -2.470909 
L 279.720558 -2.470909 
L 279 -2.470909 
L 278.279442 -2.470909 
L 277.558884 -2.470909 
L 276.838326 -2.470909 
L 276.117769 -2.470909 
L 275.397211 -2.470909 
L 274.676653 -2.470909 
L 273.956095 -2.470909 
L 273.235537 -2.470909 
L 272.514979 -2.470909 
L 271.794421 -2.470909 
L 271.073864 -2.470909 
L 270.353306 -2.470909 
L 269.632748 -2.470909 
L 268.91219 -2.470909 
L 268.191632 -2.470909 
L 267.471074 -2.470909 
L 266.750517 -2.470909 
L 266.029959 -2.470909 
L 265.309401 -2.470909 
L 264.588843 -2.470909 
L 263.868285 -2.470909 
L 263.147727 -2.470909 
L 262.427169 -2.470909 
L 261.706612 -2.470909 
L 260.986054 -2.470909 
L 260.265496 -2.470909 
L 259.544938 -2.470909 
L 258.82438 -2.470909 
L 258.103822 -2.470909 
L 257.383264 -2.470909 
L 256.662707 -2.470909 
L 255.942149 -2.470909 
L 255.221591 -2.470909 
L 254.501033 -2.470909 
L 253.780475 -2.470909 
L 253.059917 -2.470909 
L 252.33936 -2.470909 
L 251.618802 -2.470909 
L 250.898244 -2.470909 
L 250.177686 -2.470909 
L 249.457128 -2.470909 
L 248.73657 -2.470909 
L 248.016012 -2.470909 
L 247.295455 -2.470909 
L 246.574897 -2.470909 
L 245.854339 -2.470909 
L 245.133781 -2.470909 
L 244.413223 -2.470909 
L 243.692665 -2.470909 
L 242.972107 -2.470909 
L 242.25155 -2.470909 
L 241.530992 -2.470909 
L 240.810434 -2.470909 
L 240.089876 -2.470909 
L 239.369318 -2.470909 
L 238.64876 -2.470909 
L 237.928202 -2.470909 
L 237.207645 -2.470909 
L 236.487087 -2.470909 
L 235.766529 -2.470909 
L 235.045971 -2.470909 
L 234.325413 -2.470909 
L 233.604855 -2.470909 
L 232.884298 -2.470909 
L 232.16374 -2.470909 
L 231.443182 -2.470909 
L 230.722624 -2.470909 
L 230.002066 -2.470909 
L 229.281508 -2.470909 
L 228.56095 -2.470909 
L 227.840393 -2.470909 
L 227.119835 -2.470909 
L 226.399277 -2.470909 
L 225.678719 -2.470909 
L 224.958161 -2.470909 
L 224.237603 -2.470909 
L 223.517045 -2.470909 
L 222.796488 -2.470909 
L 222.07593 -2.470909 
L 221.355372 -2.470909 
L 220.634814 -2.470909 
L 219.914256 -2.470909 
L 219.193698 -2.470909 
L 218.47314 -2.470909 
L 217.752583 -2.470909 
L 217.032025 -2.470909 
L 216.311467 -2.470909 
L 215.590909 -2.470909 
L 214.870351 -2.470909 
L 214.149793 -2.470909 
L 213.429236 -2.470909 
L 212.708678 -2.470909 
L 211.98812 -2.470909 
L 211.267562 -2.470909 
L 210.547004 -2.470909 
L 209.826446 -2.470909 
L 209.105888 -2.470909 
L 208.385331 -2.470909 
L 207.664773 -2.470909 
L 206.944215 -2.470909 
L 206.223657 -2.470909 
L 205.503099 -2.470909 
L 204.782541 -2.470909 
L 204.061983 -2.470909 
L 203.341426 -2.470909 
L 202.620868 -2.470909 
L 201.90031 -2.470909 
L 201.179752 -2.470909 
L 200.459194 -2.470909 
L 199.738636 -2.470909 
L 199.018079 -2.470909 
L 198.297521 -2.470909 
L 197.576963 -2.470909 
L 196.856405 -2.470909 
L 196.135847 -2.470909 
L 195.415289 -2.470909 
L 194.694731 -2.470909 
L 193.974174 -2.470909 
L 193.253616 -2.470909 
L 192.533058 -2.470909 
L 191.8125 -2.470909 
L 191.091942 -2.470909 
L 190.371384 -2.470909 
L 189.650826 -2.470909 
L 188.930269 -2.470909 
L 188.209711 -2.470909 
L 187.489153 -2.470909 
L 186.768595 -2.470909 
L 186.048037 -2.470909 
L 185.327479 -2.470909 
L 184.606921 -2.470909 
L 183.886364 -2.470909 
L 183.165806 -2.470909 
L 182.445248 -2.470909 
L 181.72469 -2.470909 
L 181.004132 -2.470909 
L 180.283574 -2.470909 
z
" style="stroke: #116dc2; stroke-opacity: 0.2"/>
    </defs>
    <g clip-path="url(#pba0a7d75cb)">
     <use xlink:href="#mbb521d75e4" x="0" y="54.36" style="fill: #116dc2; fill-opacity: 0.2; stroke: #116dc2; stroke-opacity: 0.2"/>
    </g>
   </g>
   <g id="PolyCollection_3">
    <defs>
     <path id="m89223591d8" d="M 25.363636 -2.470909 
L 25.363636 -5.198882 
L 26.084194 -5.79035 
L 26.804752 -6.495406 
L 27.52531 -7.22525 
L 28.245868 -8.003799 
L 28.966426 -9.131355 
L 29.686983 -10.854301 
L 30.407541 -12.951976 
L 31.128099 -15.007913 
L 31.848657 -17.041683 
L 32.569215 -19.513931 
L 33.289773 -22.614906 
L 34.010331 -25.875221 
L 34.730888 -28.822328 
L 35.451446 -31.72211 
L 36.172004 -35.107918 
L 36.892562 -38.828216 
L 37.61312 -42.223735 
L 38.333678 -45.012687 
L 39.054236 -47.343789 
L 39.774793 -49.275934 
L 40.495351 -50.684108 
L 41.215909 -51.487936 
L 41.936467 -51.817288 
L 42.657025 -51.889091 
L 43.377583 -51.680726 
L 44.09814 -50.987328 
L 44.818698 -49.850125 
L 45.539256 -48.547043 
L 46.259814 -47.18309 
L 46.980372 -45.512861 
L 47.70093 -43.204655 
L 48.421488 -40.343544 
L 49.142045 -37.425974 
L 49.862603 -34.699235 
L 50.583161 -31.90987 
L 51.303719 -28.856498 
L 52.024277 -25.724814 
L 52.744835 -22.743417 
L 53.465393 -19.946688 
L 54.18595 -17.322823 
L 54.906508 -14.912556 
L 55.627066 -12.747167 
L 56.347624 -10.82527 
L 57.068182 -9.200305 
L 57.78874 -7.954955 
L 58.509298 -7.046744 
L 59.229855 -6.320451 
L 59.950413 -5.666317 
L 60.670971 -5.071176 
L 61.391529 -4.558533 
L 61.391529 -2.470909 
L 61.391529 -2.470909 
L 60.670971 -2.470909 
L 59.950413 -2.470909 
L 59.229855 -2.470909 
L 58.509298 -2.470909 
L 57.78874 -2.470909 
L 57.068182 -2.470909 
L 56.347624 -2.470909 
L 55.627066 -2.470909 
L 54.906508 -2.470909 
L 54.18595 -2.470909 
L 53.465393 -2.470909 
L 52.744835 -2.470909 
L 52.024277 -2.470909 
L 51.303719 -2.470909 
L 50.583161 -2.470909 
L 49.862603 -2.470909 
L 49.142045 -2.470909 
L 48.421488 -2.470909 
L 47.70093 -2.470909 
L 46.980372 -2.470909 
L 46.259814 -2.470909 
L 45.539256 -2.470909 
L 44.818698 -2.470909 
L 44.09814 -2.470909 
L 43.377583 -2.470909 
L 42.657025 -2.470909 
L 41.936467 -2.470909 
L 41.215909 -2.470909 
L 40.495351 -2.470909 
L 39.774793 -2.470909 
L 39.054236 -2.470909 
L 38.333678 -2.470909 
L 37.61312 -2.470909 
L 36.892562 -2.470909 
L 36.172004 -2.470909 
L 35.451446 -2.470909 
L 34.730888 -2.470909 
L 34.010331 -2.470909 
L 33.289773 -2.470909 
L 32.569215 -2.470909 
L 31.848657 -2.470909 
L 31.128099 -2.470909 
L 30.407541 -2.470909 
L 29.686983 -2.470909 
L 28.966426 -2.470909 
L 28.245868 -2.470909 
L 27.52531 -2.470909 
L 26.804752 -2.470909 
L 26.084194 -2.470909 
L 25.363636 -2.470909 
z
" style="stroke: #8a8a8a; stroke-opacity: 0.2"/>
    </defs>
    <g clip-path="url(#pba0a7d75cb)">
     <use xlink:href="#m89223591d8" x="0" y="54.36" style="fill: #8a8a8a; fill-opacity: 0.2; stroke: #8a8a8a; stroke-opacity: 0.2"/>
    </g>
   </g>
   <g id="line2d_1">
    <path d="M 311.425103 50.774151 
L 316.469008 50.351149 
L 320.792355 49.783383 
L 325.83626 48.897862 
L 332.321281 47.522705 
L 339.52686 45.773562 
L 345.291322 44.141549 
L 359.702479 39.723484 
L 364.025826 38.169356 
L 369.069731 36.091389 
L 374.113636 33.770598 
L 380.598657 30.518428 
L 390.686467 25.410871 
L 395.730372 23.143127 
L 400.053719 21.41 
L 403.656508 20.183209 
L 407.259298 19.190614 
L 411.582645 18.264184 
L 415.185434 17.691019 
L 418.788223 17.340079 
L 422.391012 17.254024 
L 425.993802 17.429923 
L 430.317149 17.911382 
L 435.361054 18.732047 
L 438.963843 19.530443 
L 442.566632 20.576998 
L 446.889979 22.123981 
L 451.933884 24.183089 
L 456.977789 26.456724 
L 462.021694 28.951478 
L 467.786157 32.061323 
L 473.55062 35.14815 
L 477.153409 36.847359 
L 481.476756 38.610686 
L 489.402893 41.498756 
L 500.21126 45.266689 
L 504.534607 46.550852 
L 508.137397 47.420747 
L 512.460744 48.233198 
L 518.945764 49.197949 
L 525.430785 49.983555 
L 531.915806 50.52262 
L 532.636364 50.571777 
L 532.636364 50.571777 
" clip-path="url(#pba0a7d75cb)" style="fill: none; stroke: #cf1313; stroke-width: 1.5; stroke-linecap: square"/>
   </g>
   <g id="line2d_2">
    <path d="M 180.283574 50.282222 
L 192.533058 48.614679 
L 196.135847 47.773714 
L 201.179752 46.302965 
L 206.223657 44.642683 
L 209.105888 43.51035 
L 211.98812 42.151914 
L 215.590909 40.160457 
L 220.634814 37.351928 
L 223.517045 36.018033 
L 230.002066 33.220665 
L 232.884298 31.660656 
L 236.487087 29.407978 
L 242.25155 25.763826 
L 245.854339 23.845949 
L 250.898244 21.250591 
L 258.103822 17.175843 
L 260.265496 16.377118 
L 262.427169 15.924718 
L 264.588843 15.752472 
L 268.191632 15.764055 
L 273.235537 15.98803 
L 276.117769 16.350757 
L 279 16.946309 
L 281.882231 17.744919 
L 284.764463 18.783264 
L 286.926136 19.77705 
L 289.808368 21.401931 
L 301.337293 28.462507 
L 311.425103 34.221213 
L 321.512913 40.378616 
L 324.395145 41.699674 
L 327.277376 42.765214 
L 335.203512 45.528246 
L 340.967975 47.695131 
L 343.850207 48.536167 
L 346.732438 49.127092 
L 350.335227 49.572855 
L 357.540806 50.120862 
L 357.540806 50.120862 
" clip-path="url(#pba0a7d75cb)" style="fill: none; stroke: #116dc2; stroke-width: 1.5; stroke-linecap: square"/>
   </g>
   <g id="line2d_3">
    <path d="M 25.363636 49.161118 
L 26.084194 48.56965 
L 26.804752 47.864594 
L 27.52531 47.13475 
L 28.245868 46.356201 
L 28.966426 45.228645 
L 29.686983 43.505699 
L 30.407541 41.408024 
L 31.128099 39.352087 
L 31.848657 37.318317 
L 32.569215 34.846069 
L 33.289773 31.745094 
L 34.010331 28.484779 
L 34.730888 25.537672 
L 35.451446 22.63789 
L 36.172004 19.252082 
L 36.892562 15.531784 
L 37.61312 12.136265 
L 38.333678 9.347313 
L 39.054236 7.016211 
L 39.774793 5.084066 
L 40.495351 3.675892 
L 41.215909 2.872064 
L 41.936467 2.542712 
L 42.657025 2.470909 
L 43.377583 2.679274 
L 44.09814 3.372672 
L 44.818698 4.509875 
L 45.539256 5.812957 
L 46.259814 7.17691 
L 46.980372 8.847139 
L 47.70093 11.155345 
L 48.421488 14.016456 
L 49.142045 16.934026 
L 49.862603 19.660765 
L 50.583161 22.45013 
L 51.303719 25.503502 
L 52.024277 28.635186 
L 52.744835 31.616583 
L 53.465393 34.413312 
L 54.18595 37.037177 
L 54.906508 39.447444 
L 55.627066 41.612833 
L 56.347624 43.53473 
L 57.068182 45.159695 
L 57.78874 46.405045 
L 58.509298 47.313256 
L 59.229855 48.039549 
L 59.950413 48.693683 
L 60.670971 49.288824 
L 61.391529 49.801467 
" clip-path="url(#pba0a7d75cb)" style="fill: none; stroke: #8a8a8a; stroke-width: 1.5; stroke-linecap: square"/>
   </g>
  </g>
 </g>
 <defs>
  <clipPath id="pba0a7d75cb">
   <rect x="0" y="-0" width="558" height="54.36"/>
  </clipPath>
 </defs>
</svg>
