<?xml version="1.0" encoding="utf-8" standalone="no"?>
<!DOCTYPE svg PUBLIC "-//W3C//DTD SVG 1.1//EN"
  "http://www.w3.org/Graphics/SVG/1.1/DTD/svg11.dtd">
<svg xmlns:xlink="http://www.w3.org/1999/xlink" width="558pt" height="54.36pt" viewBox="0 0 558 54.36" xmlns="http://www.w3.org/2000/svg" version="1.1">
 <metadata>
  <rdf:RDF xmlns:dc="http://purl.org/dc/elements/1.1/" xmlns:cc="http://creativecommons.org/ns#" xmlns:rdf="http://www.w3.org/1999/02/22-rdf-syntax-ns#">
   <cc:Work>
    <dc:type rdf:resource="http://purl.org/dc/dcmitype/StillImage"/>
    <dc:date>2024-09-15T09:31:04.881455</dc:date>
    <dc:format>image/svg+xml</dc:format>
    <dc:creator>
     <cc:Agent>
      <dc:title>Matplotlib v3.5.2, https://matplotlib.org/</dc:title>
     </cc:Agent>
    </dc:creator>
   </cc:Work>
  </rdf:RDF>
 </metadata>
 <defs>
  <style type="text/css">*{stroke-linejoin: round; stroke-linecap: butt}</style>
 </defs>
 <g id="figure_1">
  <g id="patch_1">
   <path d="M 0 54.36 
L 558 54.36 
L 558 0 
L 0 0 
L 0 54.36 
z
" style="fill: none; opacity: 0"/>
  </g>
  <g id="axes_1">
   <g id="PolyCollection_1">
    <defs>
     <path id="m88b2d38c3e" d="M 312.145661 -2.470909 
L 312.145661 -3.837636 
L 312.866219 -3.899845 
L 313.586777 -3.96524 
L 314.307335 -4.033872 
L 315.027893 -4.105724 
L 315.74845 -4.180706 
L 316.469008 -4.258656 
L 317.189566 -4.339341 
L 317.910124 -4.422468 
L 318.630682 -4.507694 
L 319.35124 -4.594643 
L 320.071798 -4.682926 
L 320.792355 -4.772157 
L 321.512913 -4.86198 
L 322.233471 -4.952086 
L 322.954029 -5.042238 
L 323.674587 -5.132291 
L 324.395145 -5.222204 
L 325.115702 -5.312058 
L 325.83626 -5.402063 
L 326.556818 -5.492563 
L 327.277376 -5.584031 
L 327.997934 -5.677065 
L 328.718492 -5.772372 
L 329.43905 -5.870746 
L 330.159607 -5.973043 
L 330.880165 -6.080149 
L 331.600723 -6.192946 
L 332.321281 -6.312267 
L 333.041839 -6.438865 
L 333.762397 -6.573372 
L 334.482955 -6.716263 
L 335.203512 -6.867831 
L 335.92407 -7.028166 
L 336.644628 -7.197147 
L 337.365186 -7.374446 
L 338.085744 -7.559538 
L 338.806302 -7.75173 
L 339.52686 -7.950197 
L 340.247417 -8.154025 
L 340.967975 -8.362265 
L 341.688533 -8.573981 
L 342.409091 -8.788304 
L 343.129649 -9.004478 
L 343.850207 -9.221899 
L 344.570764 -9.44014 
L 345.291322 -9.658968 
L 346.01188 -9.878347 
L 346.732438 -10.098429 
L 347.452996 -10.319531 
L 348.173554 -10.542106 
L 348.894112 -10.766712 
L 349.614669 -10.993968 
L 350.335227 -11.22452 
L 351.055785 -11.459005 
L 351.776343 -11.698025 
L 352.496901 -11.942117 
L 353.217459 -12.191743 
L 353.938017 -12.447276 
L 354.658574 -12.708996 
L 355.379132 -12.97709 
L 356.09969 -13.251651 
L 356.820248 -13.53268 
L 357.540806 -13.820088 
L 358.261364 -14.113696 
L 358.981921 -14.413233 
L 359.702479 -14.71834 
L 360.423037 -15.028566 
L 361.143595 -15.343377 
L 361.864153 -15.662167 
L 362.584711 -15.984268 
L 363.305269 -16.308982 
L 364.025826 -16.635609 
L 364.746384 -16.963484 
L 365.466942 -17.292021 
L 366.1875 -17.620753 
L 366.908058 -17.949378 
L 367.628616 -18.27779 
L 368.349174 -18.606104 
L 369.069731 -18.934669 
L 369.790289 -19.264061 
L 370.510847 -19.595065 
L 371.231405 -19.928636 
L 371.951963 -20.265843 
L 372.672521 -20.607813 
L 373.393079 -20.95565 
L 374.113636 -21.310367 
L 374.834194 -21.672816 
L 375.554752 -22.043619 
L 376.27531 -22.423121 
L 376.995868 -22.811356 
L 377.716426 -23.208028 
L 378.436983 -23.612511 
L 379.157541 -24.023873 
L 379.878099 -24.440907 
L 380.598657 -24.862182 
L 381.319215 -25.286099 
L 382.039773 -25.710954 
L 382.760331 -26.134998 
L 383.480888 -26.556499 
L 384.201446 -26.973794 
L 384.922004 -27.385336 
L 385.642562 -27.789726 
L 386.36312 -28.185743 
L 387.083678 -28.572362 
L 387.804236 -28.948759 
L 388.524793 -29.314315 
L 389.245351 -29.668616 
L 389.965909 -30.011441 
L 390.686467 -30.342761 
L 391.407025 -30.662724 
L 392.127583 -30.971644 
L 392.84814 -31.269992 
L 393.568698 -31.558384 
L 394.289256 -31.837563 
L 395.009814 -32.108386 
L 395.730372 -32.371804 
L 396.45093 -32.62884 
L 397.171488 -32.880559 
L 397.892045 -33.128044 
L 398.612603 -33.372351 
L 399.333161 -33.614483 
L 400.053719 -33.855338 
L 400.774277 -34.095673 
L 401.494835 -34.336064 
L 402.215393 -34.576866 
L 402.93595 -34.818182 
L 403.656508 -35.059844 
L 404.377066 -35.301399 
L 405.097624 -35.542112 
L 405.818182 -35.780979 
L 406.53874 -36.016763 
L 407.259298 -36.248035 
L 407.979855 -36.47323 
L 408.700413 -36.690714 
L 409.420971 -36.898852 
L 410.141529 -37.096078 
L 410.862087 -37.280964 
L 411.582645 -37.452277 
L 412.303202 -37.609024 
L 413.02376 -37.750486 
L 413.744318 -37.876234 
L 414.464876 -37.986131 
L 415.185434 -38.080313 
L 415.905992 -38.159167 
L 416.62655 -38.223293 
L 417.347107 -38.273458 
L 418.067665 -38.310553 
L 418.788223 -38.335544 
L 419.508781 -38.349425 
L 420.229339 -38.35318 
L 420.949897 -38.347744 
L 421.670455 -38.333974 
L 422.391012 -38.312619 
L 423.11157 -38.284304 
L 423.832128 -38.249509 
L 424.552686 -38.208563 
L 425.273244 -38.161635 
L 425.993802 -38.10873 
L 426.71436 -38.049699 
L 427.434917 -37.984245 
L 428.155475 -37.911942 
L 428.876033 -37.832262 
L 429.596591 -37.744602 
L 430.317149 -37.648325 
L 431.037707 -37.542797 
L 431.758264 -37.427435 
L 432.478822 -37.301744 
L 433.19938 -37.165359 
L 433.919938 -37.018072 
L 434.640496 -36.859857 
L 435.361054 -36.690876 
L 436.081612 -36.511478 
L 436.802169 -36.322183 
L 437.522727 -36.123657 
L 438.243285 -35.916677 
L 438.963843 -35.702089 
L 439.684401 -35.480771 
L 440.404959 -35.253589 
L 441.125517 -35.021364 
L 441.846074 -34.784846 
L 442.566632 -34.544695 
L 443.28719 -34.301474 
L 444.007748 -34.055647 
L 444.728306 -33.807591 
L 445.448864 -33.557602 
L 446.169421 -33.305909 
L 446.889979 -33.052691 
L 447.610537 -32.798075 
L 448.331095 -32.542145 
L 449.051653 -32.284936 
L 449.772211 -32.02642 
L 450.492769 -31.766492 
L 451.213326 -31.504952 
L 451.933884 -31.241483 
L 452.654442 -30.975639 
L 453.375 -30.706829 
L 454.095558 -30.434317 
L 454.816116 -30.157232 
L 455.536674 -29.874583 
L 456.257231 -29.585295 
L 456.977789 -29.288244 
L 457.698347 -28.982317 
L 458.418905 -28.666458 
L 459.139463 -28.339742 
L 459.860021 -28.001426 
L 460.580579 -27.651012 
L 461.301136 -27.288298 
L 462.021694 -26.913416 
L 462.742252 -26.526864 
L 463.46281 -26.129511 
L 464.183368 -25.722603 
L 464.903926 -25.307731 
L 465.624483 -24.886798 
L 466.345041 -24.461962 
L 467.065599 -24.035569 
L 467.786157 -23.610066 
L 468.506715 -23.187918 
L 469.227273 -22.77151 
L 469.947831 -22.363056 
L 470.668388 -21.964507 
L 471.388946 -21.577471 
L 472.109504 -21.203148 
L 472.830062 -20.842281 
L 473.55062 -20.495123 
L 474.271178 -20.161437 
L 474.991736 -19.840511 
L 475.712293 -19.531201 
L 476.432851 -19.231996 
L 477.153409 -18.941104 
L 477.873967 -18.656546 
L 478.594525 -18.376273 
L 479.315083 -18.098269 
L 480.03564 -17.820669 
L 480.756198 -17.54185 
L 481.476756 -17.26052 
L 482.197314 -16.975775 
L 482.917872 -16.687138 
L 483.63843 -16.394564 
L 484.358988 -16.098427 
L 485.079545 -15.79947 
L 485.800103 -15.498737 
L 486.520661 -15.197498 
L 487.241219 -14.897144 
L 487.961777 -14.599098 
L 488.682335 -14.304719 
L 489.402893 -14.015218 
L 490.12345 -13.731596 
L 490.844008 -13.454592 
L 491.564566 -13.184664 
L 492.285124 -12.921985 
L 493.005682 -12.666462 
L 493.72624 -12.417772 
L 494.446798 -12.175413 
L 495.167355 -11.938759 
L 495.887913 -11.707117 
L 496.608471 -11.479787 
L 497.329029 -11.256109 
L 498.049587 -11.0355 
L 498.770145 -10.817483 
L 499.490702 -10.6017 
L 500.21126 -10.387912 
L 500.931818 -10.175995 
L 501.652376 -9.965919 
L 502.372934 -9.757731 
L 503.093492 -9.55153 
L 503.81405 -9.347439 
L 504.534607 -9.145593 
L 505.255165 -8.946113 
L 505.975723 -8.7491 
L 506.696281 -8.554623 
L 507.416839 -8.362724 
L 508.137397 -8.173411 
L 508.857955 -7.986676 
L 509.578512 -7.802495 
L 510.29907 -7.620845 
L 511.019628 -7.441714 
L 511.740186 -7.26511 
L 512.460744 -7.091077 
L 513.181302 -6.919697 
L 513.90186 -6.751096 
L 514.622417 -6.585445 
L 515.342975 -6.422957 
L 516.063533 -6.263883 
L 516.784091 -6.108494 
L 517.504649 -5.957077 
L 518.225207 -5.809912 
L 518.945764 -5.667259 
L 519.666322 -5.52934 
L 520.38688 -5.396328 
L 521.107438 -5.268327 
L 521.827996 -5.145374 
L 522.548554 -5.027427 
L 523.269112 -4.91437 
L 523.989669 -4.806023 
L 524.710227 -4.702148 
L 525.430785 -4.602468 
L 526.151343 -4.506683 
L 526.871901 -4.414494 
L 527.592459 -4.325616 
L 528.313017 -4.239803 
L 529.033574 -4.156858 
L 529.754132 -4.076642 
L 530.47469 -3.999086 
L 531.195248 -3.924185 
L 531.915806 -3.851997 
L 532.636364 -3.782631 
L 532.636364 -2.470909 
L 532.636364 -2.470909 
L 531.915806 -2.470909 
L 531.195248 -2.470909 
L 530.47469 -2.470909 
L 529.754132 -2.470909 
L 529.033574 -2.470909 
L 528.313017 -2.470909 
L 527.592459 -2.470909 
L 526.871901 -2.470909 
L 526.151343 -2.470909 
L 525.430785 -2.470909 
L 524.710227 -2.470909 
L 523.989669 -2.470909 
L 523.269112 -2.470909 
L 522.548554 -2.470909 
L 521.827996 -2.470909 
L 521.107438 -2.470909 
L 520.38688 -2.470909 
L 519.666322 -2.470909 
L 518.945764 -2.470909 
L 518.225207 -2.470909 
L 517.504649 -2.470909 
L 516.784091 -2.470909 
L 516.063533 -2.470909 
L 515.342975 -2.470909 
L 514.622417 -2.470909 
L 513.90186 -2.470909 
L 513.181302 -2.470909 
L 512.460744 -2.470909 
L 511.740186 -2.470909 
L 511.019628 -2.470909 
L 510.29907 -2.470909 
L 509.578512 -2.470909 
L 508.857955 -2.470909 
L 508.137397 -2.470909 
L 507.416839 -2.470909 
L 506.696281 -2.470909 
L 505.975723 -2.470909 
L 505.255165 -2.470909 
L 504.534607 -2.470909 
L 503.81405 -2.470909 
L 503.093492 -2.470909 
L 502.372934 -2.470909 
L 501.652376 -2.470909 
L 500.931818 -2.470909 
L 500.21126 -2.470909 
L 499.490702 -2.470909 
L 498.770145 -2.470909 
L 498.049587 -2.470909 
L 497.329029 -2.470909 
L 496.608471 -2.470909 
L 495.887913 -2.470909 
L 495.167355 -2.470909 
L 494.446798 -2.470909 
L 493.72624 -2.470909 
L 493.005682 -2.470909 
L 492.285124 -2.470909 
L 491.564566 -2.470909 
L 490.844008 -2.470909 
L 490.12345 -2.470909 
L 489.402893 -2.470909 
L 488.682335 -2.470909 
L 487.961777 -2.470909 
L 487.241219 -2.470909 
L 486.520661 -2.470909 
L 485.800103 -2.470909 
L 485.079545 -2.470909 
L 484.358988 -2.470909 
L 483.63843 -2.470909 
L 482.917872 -2.470909 
L 482.197314 -2.470909 
L 481.476756 -2.470909 
L 480.756198 -2.470909 
L 480.03564 -2.470909 
L 479.315083 -2.470909 
L 478.594525 -2.470909 
L 477.873967 -2.470909 
L 477.153409 -2.470909 
L 476.432851 -2.470909 
L 475.712293 -2.470909 
L 474.991736 -2.470909 
L 474.271178 -2.470909 
L 473.55062 -2.470909 
L 472.830062 -2.470909 
L 472.109504 -2.470909 
L 471.388946 -2.470909 
L 470.668388 -2.470909 
L 469.947831 -2.470909 
L 469.227273 -2.470909 
L 468.506715 -2.470909 
L 467.786157 -2.470909 
L 467.065599 -2.470909 
L 466.345041 -2.470909 
L 465.624483 -2.470909 
L 464.903926 -2.470909 
L 464.183368 -2.470909 
L 463.46281 -2.470909 
L 462.742252 -2.470909 
L 462.021694 -2.470909 
L 461.301136 -2.470909 
L 460.580579 -2.470909 
L 459.860021 -2.470909 
L 459.139463 -2.470909 
L 458.418905 -2.470909 
L 457.698347 -2.470909 
L 456.977789 -2.470909 
L 456.257231 -2.470909 
L 455.536674 -2.470909 
L 454.816116 -2.470909 
L 454.095558 -2.470909 
L 453.375 -2.470909 
L 452.654442 -2.470909 
L 451.933884 -2.470909 
L 451.213326 -2.470909 
L 450.492769 -2.470909 
L 449.772211 -2.470909 
L 449.051653 -2.470909 
L 448.331095 -2.470909 
L 447.610537 -2.470909 
L 446.889979 -2.470909 
L 446.169421 -2.470909 
L 445.448864 -2.470909 
L 444.728306 -2.470909 
L 444.007748 -2.470909 
L 443.28719 -2.470909 
L 442.566632 -2.470909 
L 441.846074 -2.470909 
L 441.125517 -2.470909 
L 440.404959 -2.470909 
L 439.684401 -2.470909 
L 438.963843 -2.470909 
L 438.243285 -2.470909 
L 437.522727 -2.470909 
L 436.802169 -2.470909 
L 436.081612 -2.470909 
L 435.361054 -2.470909 
L 434.640496 -2.470909 
L 433.919938 -2.470909 
L 433.19938 -2.470909 
L 432.478822 -2.470909 
L 431.758264 -2.470909 
L 431.037707 -2.470909 
L 430.317149 -2.470909 
L 429.596591 -2.470909 
L 428.876033 -2.470909 
L 428.155475 -2.470909 
L 427.434917 -2.470909 
L 426.71436 -2.470909 
L 425.993802 -2.470909 
L 425.273244 -2.470909 
L 424.552686 -2.470909 
L 423.832128 -2.470909 
L 423.11157 -2.470909 
L 422.391012 -2.470909 
L 421.670455 -2.470909 
L 420.949897 -2.470909 
L 420.229339 -2.470909 
L 419.508781 -2.470909 
L 418.788223 -2.470909 
L 418.067665 -2.470909 
L 417.347107 -2.470909 
L 416.62655 -2.470909 
L 415.905992 -2.470909 
L 415.185434 -2.470909 
L 414.464876 -2.470909 
L 413.744318 -2.470909 
L 413.02376 -2.470909 
L 412.303202 -2.470909 
L 411.582645 -2.470909 
L 410.862087 -2.470909 
L 410.141529 -2.470909 
L 409.420971 -2.470909 
L 408.700413 -2.470909 
L 407.979855 -2.470909 
L 407.259298 -2.470909 
L 406.53874 -2.470909 
L 405.818182 -2.470909 
L 405.097624 -2.470909 
L 404.377066 -2.470909 
L 403.656508 -2.470909 
L 402.93595 -2.470909 
L 402.215393 -2.470909 
L 401.494835 -2.470909 
L 400.774277 -2.470909 
L 400.053719 -2.470909 
L 399.333161 -2.470909 
L 398.612603 -2.470909 
L 397.892045 -2.470909 
L 397.171488 -2.470909 
L 396.45093 -2.470909 
L 395.730372 -2.470909 
L 395.009814 -2.470909 
L 394.289256 -2.470909 
L 393.568698 -2.470909 
L 392.84814 -2.470909 
L 392.127583 -2.470909 
L 391.407025 -2.470909 
L 390.686467 -2.470909 
L 389.965909 -2.470909 
L 389.245351 -2.470909 
L 388.524793 -2.470909 
L 387.804236 -2.470909 
L 387.083678 -2.470909 
L 386.36312 -2.470909 
L 385.642562 -2.470909 
L 384.922004 -2.470909 
L 384.201446 -2.470909 
L 383.480888 -2.470909 
L 382.760331 -2.470909 
L 382.039773 -2.470909 
L 381.319215 -2.470909 
L 380.598657 -2.470909 
L 379.878099 -2.470909 
L 379.157541 -2.470909 
L 378.436983 -2.470909 
L 377.716426 -2.470909 
L 376.995868 -2.470909 
L 376.27531 -2.470909 
L 375.554752 -2.470909 
L 374.834194 -2.470909 
L 374.113636 -2.470909 
L 373.393079 -2.470909 
L 372.672521 -2.470909 
L 371.951963 -2.470909 
L 371.231405 -2.470909 
L 370.510847 -2.470909 
L 369.790289 -2.470909 
L 369.069731 -2.470909 
L 368.349174 -2.470909 
L 367.628616 -2.470909 
L 366.908058 -2.470909 
L 366.1875 -2.470909 
L 365.466942 -2.470909 
L 364.746384 -2.470909 
L 364.025826 -2.470909 
L 363.305269 -2.470909 
L 362.584711 -2.470909 
L 361.864153 -2.470909 
L 361.143595 -2.470909 
L 360.423037 -2.470909 
L 359.702479 -2.470909 
L 358.981921 -2.470909 
L 358.261364 -2.470909 
L 357.540806 -2.470909 
L 356.820248 -2.470909 
L 356.09969 -2.470909 
L 355.379132 -2.470909 
L 354.658574 -2.470909 
L 353.938017 -2.470909 
L 353.217459 -2.470909 
L 352.496901 -2.470909 
L 351.776343 -2.470909 
L 351.055785 -2.470909 
L 350.335227 -2.470909 
L 349.614669 -2.470909 
L 348.894112 -2.470909 
L 348.173554 -2.470909 
L 347.452996 -2.470909 
L 346.732438 -2.470909 
L 346.01188 -2.470909 
L 345.291322 -2.470909 
L 344.570764 -2.470909 
L 343.850207 -2.470909 
L 343.129649 -2.470909 
L 342.409091 -2.470909 
L 341.688533 -2.470909 
L 340.967975 -2.470909 
L 340.247417 -2.470909 
L 339.52686 -2.470909 
L 338.806302 -2.470909 
L 338.085744 -2.470909 
L 337.365186 -2.470909 
L 336.644628 -2.470909 
L 335.92407 -2.470909 
L 335.203512 -2.470909 
L 334.482955 -2.470909 
L 333.762397 -2.470909 
L 333.041839 -2.470909 
L 332.321281 -2.470909 
L 331.600723 -2.470909 
L 330.880165 -2.470909 
L 330.159607 -2.470909 
L 329.43905 -2.470909 
L 328.718492 -2.470909 
L 327.997934 -2.470909 
L 327.277376 -2.470909 
L 326.556818 -2.470909 
L 325.83626 -2.470909 
L 325.115702 -2.470909 
L 324.395145 -2.470909 
L 323.674587 -2.470909 
L 322.954029 -2.470909 
L 322.233471 -2.470909 
L 321.512913 -2.470909 
L 320.792355 -2.470909 
L 320.071798 -2.470909 
L 319.35124 -2.470909 
L 318.630682 -2.470909 
L 317.910124 -2.470909 
L 317.189566 -2.470909 
L 316.469008 -2.470909 
L 315.74845 -2.470909 
L 315.027893 -2.470909 
L 314.307335 -2.470909 
L 313.586777 -2.470909 
L 312.866219 -2.470909 
L 312.145661 -2.470909 
z
" style="stroke: #cf1313; stroke-opacity: 0.2"/>
    </defs>
    <g clip-path="url(#pb24579f540)">
     <use xlink:href="#m88b2d38c3e" x="0" y="54.36" style="fill: #cf1313; fill-opacity: 0.2; stroke: #cf1313; stroke-opacity: 0.2"/>
    </g>
   </g>
   <g id="PolyCollection_2">
    <defs>
     <path id="m1cb750abbd" d="M 182.445248 -2.470909 
L 182.445248 -4.048223 
L 183.165806 -4.112602 
L 183.886364 -4.177882 
L 184.606921 -4.244028 
L 185.327479 -4.310996 
L 186.048037 -4.378739 
L 186.768595 -4.447206 
L 187.489153 -4.516351 
L 188.209711 -4.586135 
L 188.930269 -4.656533 
L 189.650826 -4.72754 
L 190.371384 -4.79918 
L 191.091942 -4.871516 
L 191.8125 -4.944661 
L 192.533058 -5.01879 
L 193.253616 -5.094147 
L 193.974174 -5.171054 
L 194.694731 -5.249912 
L 195.415289 -5.3312 
L 196.135847 -5.415463 
L 196.856405 -5.503295 
L 197.576963 -5.595319 
L 198.297521 -5.692162 
L 199.018079 -5.794422 
L 199.738636 -5.902647 
L 200.459194 -6.017307 
L 201.179752 -6.138779 
L 201.90031 -6.267344 
L 202.620868 -6.403178 
L 203.341426 -6.546374 
L 204.061983 -6.696952 
L 204.782541 -6.854886 
L 205.503099 -7.020131 
L 206.223657 -7.192644 
L 206.944215 -7.372406 
L 207.664773 -7.559435 
L 208.385331 -7.753784 
L 209.105888 -7.955542 
L 209.826446 -8.164808 
L 210.547004 -8.381677 
L 211.267562 -8.606201 
L 211.98812 -8.838367 
L 212.708678 -9.078062 
L 213.429236 -9.325054 
L 214.149793 -9.578974 
L 214.870351 -9.839314 
L 215.590909 -10.105434 
L 216.311467 -10.376582 
L 217.032025 -10.651925 
L 217.752583 -10.930595 
L 218.47314 -11.211736 
L 219.193698 -11.494564 
L 219.914256 -11.778421 
L 220.634814 -12.06283 
L 221.355372 -12.347547 
L 222.07593 -12.632592 
L 222.796488 -12.918277 
L 223.517045 -13.205208 
L 224.237603 -13.494272 
L 224.958161 -13.786606 
L 225.678719 -14.083541 
L 226.399277 -14.386536 
L 227.119835 -14.697098 
L 227.840393 -15.016687 
L 228.56095 -15.346632 
L 229.281508 -15.68804 
L 230.002066 -16.041712 
L 230.722624 -16.408089 
L 231.443182 -16.787198 
L 232.16374 -17.17863 
L 232.884298 -17.581545 
L 233.604855 -17.994692 
L 234.325413 -18.416457 
L 235.045971 -18.844932 
L 235.766529 -19.277999 
L 236.487087 -19.713421 
L 237.207645 -20.148952 
L 237.928202 -20.582428 
L 238.64876 -21.01187 
L 239.369318 -21.435562 
L 240.089876 -21.852119 
L 240.810434 -22.260532 
L 241.530992 -22.66019 
L 242.25155 -23.050878 
L 242.972107 -23.432754 
L 243.692665 -23.806304 
L 244.413223 -24.172279 
L 245.133781 -24.531622 
L 245.854339 -24.885392 
L 246.574897 -25.234681 
L 247.295455 -25.580536 
L 248.016012 -25.923899 
L 248.73657 -26.265551 
L 249.457128 -26.606072 
L 250.177686 -26.945825 
L 250.898244 -27.284951 
L 251.618802 -27.623384 
L 252.33936 -27.960873 
L 253.059917 -28.297025 
L 253.780475 -28.631347 
L 254.501033 -28.963291 
L 255.221591 -29.292304 
L 255.942149 -29.617861 
L 256.662707 -29.939499 
L 257.383264 -30.256834 
L 258.103822 -30.569565 
L 258.82438 -30.877467 
L 259.544938 -31.180373 
L 260.265496 -31.478149 
L 260.986054 -31.770671 
L 261.706612 -32.057795 
L 262.427169 -32.339343 
L 263.147727 -32.615095 
L 263.868285 -32.884795 
L 264.588843 -33.14817 
L 265.309401 -33.404955 
L 266.029959 -33.654936 
L 266.750517 -33.89798 
L 267.471074 -34.134077 
L 268.191632 -34.363358 
L 268.91219 -34.586113 
L 269.632748 -34.802783 
L 270.353306 -35.01394 
L 271.073864 -35.220253 
L 271.794421 -35.422439 
L 272.514979 -35.621214 
L 273.235537 -35.817236 
L 273.956095 -36.011062 
L 274.676653 -36.203108 
L 275.397211 -36.393622 
L 276.117769 -36.582678 
L 276.838326 -36.770167 
L 277.558884 -36.955812 
L 278.279442 -37.139178 
L 279 -37.319687 
L 279.720558 -37.496629 
L 280.441116 -37.669168 
L 281.161674 -37.836343 
L 281.882231 -37.997063 
L 282.602789 -38.150105 
L 283.323347 -38.294103 
L 284.043905 -38.427558 
L 284.764463 -38.548849 
L 285.485021 -38.656261 
L 286.205579 -38.748031 
L 286.926136 -38.822402 
L 287.646694 -38.877698 
L 288.367252 -38.912402 
L 289.08781 -38.925232 
L 289.808368 -38.915222 
L 290.528926 -38.881778 
L 291.249483 -38.824727 
L 291.970041 -38.744339 
L 292.690599 -38.641322 
L 293.411157 -38.516797 
L 294.131715 -38.372247 
L 294.852273 -38.209448 
L 295.572831 -38.030385 
L 296.293388 -37.837165 
L 297.013946 -37.631926 
L 297.734504 -37.416755 
L 298.455062 -37.193615 
L 299.17562 -36.96429 
L 299.896178 -36.730342 
L 300.616736 -36.493091 
L 301.337293 -36.253609 
L 302.057851 -36.012723 
L 302.778409 -35.771034 
L 303.498967 -35.528934 
L 304.219525 -35.286633 
L 304.940083 -35.044177 
L 305.66064 -34.80146 
L 306.381198 -34.558244 
L 307.101756 -34.314156 
L 307.822314 -34.068695 
L 308.542872 -33.82123 
L 309.26343 -33.571005 
L 309.983988 -33.317144 
L 310.704545 -33.058668 
L 311.425103 -32.794514 
L 312.145661 -32.523571 
L 312.866219 -32.244718 
L 313.586777 -31.956877 
L 314.307335 -31.659064 
L 315.027893 -31.350443 
L 315.74845 -31.030378 
L 316.469008 -30.698477 
L 317.189566 -30.354625 
L 317.910124 -29.999001 
L 318.630682 -29.632083 
L 319.35124 -29.254636 
L 320.071798 -28.86768 
L 320.792355 -28.472447 
L 321.512913 -28.070326 
L 322.233471 -27.662799 
L 322.954029 -27.251373 
L 323.674587 -26.837515 
L 324.395145 -26.422586 
L 325.115702 -26.007791 
L 325.83626 -25.594136 
L 326.556818 -25.182399 
L 327.277376 -24.773122 
L 327.997934 -24.366612 
L 328.718492 -23.962961 
L 329.43905 -23.562076 
L 330.159607 -23.163723 
L 330.880165 -22.767572 
L 331.600723 -22.373253 
L 332.321281 -21.980401 
L 333.041839 -21.588705 
L 333.762397 -21.197949 
L 334.482955 -20.808041 
L 335.203512 -20.419029 
L 335.92407 -20.031114 
L 336.644628 -19.644642 
L 337.365186 -19.260091 
L 338.085744 -18.878044 
L 338.806302 -18.499161 
L 339.52686 -18.124141 
L 340.247417 -17.753681 
L 340.967975 -17.388441 
L 341.688533 -17.029007 
L 342.409091 -16.675861 
L 343.129649 -16.329355 
L 343.850207 -15.989702 
L 344.570764 -15.656961 
L 345.291322 -15.331049 
L 346.01188 -15.011747 
L 346.732438 -14.698723 
L 347.452996 -14.391555 
L 348.173554 -14.089766 
L 348.894112 -13.792849 
L 349.614669 -13.500308 
L 350.335227 -13.21168 
L 351.055785 -12.926567 
L 351.776343 -12.644648 
L 352.496901 -12.365694 
L 353.217459 -12.08957 
L 353.938017 -11.816225 
L 354.658574 -11.545684 
L 355.379132 -11.278024 
L 356.09969 -11.013355 
L 356.820248 -10.751792 
L 357.540806 -10.493437 
L 358.261364 -10.238359 
L 358.981921 -9.986584 
L 359.702479 -9.738093 
L 360.423037 -9.492825 
L 361.143595 -9.250693 
L 361.864153 -9.011604 
L 362.584711 -8.77548 
L 363.305269 -8.542286 
L 364.025826 -8.312052 
L 364.746384 -8.08489 
L 365.466942 -7.86101 
L 366.1875 -7.640718 
L 366.908058 -7.424414 
L 367.628616 -7.212575 
L 368.349174 -7.005732 
L 369.069731 -6.804443 
L 369.790289 -6.609262 
L 370.510847 -6.420707 
L 371.231405 -6.239236 
L 371.951963 -6.06522 
L 372.672521 -5.898929 
L 373.393079 -5.740525 
L 374.113636 -5.590064 
L 374.834194 -5.4475 
L 375.554752 -5.312702 
L 376.27531 -5.185475 
L 376.995868 -5.065574 
L 377.716426 -4.952731 
L 378.436983 -4.846668 
L 379.157541 -4.747111 
L 379.878099 -4.6538 
L 380.598657 -4.56649 
L 381.319215 -4.484948 
L 382.039773 -4.408943 
L 382.760331 -4.338239 
L 383.480888 -4.272577 
L 384.201446 -4.21167 
L 384.922004 -4.155188 
L 385.642562 -4.102753 
L 386.36312 -4.053941 
L 387.083678 -4.008286 
L 387.804236 -3.965288 
L 388.524793 -3.924429 
L 389.245351 -3.885192 
L 389.965909 -3.847079 
L 390.686467 -3.809631 
L 391.407025 -3.772452 
L 391.407025 -2.470909 
L 391.407025 -2.470909 
L 390.686467 -2.470909 
L 389.965909 -2.470909 
L 389.245351 -2.470909 
L 388.524793 -2.470909 
L 387.804236 -2.470909 
L 387.083678 -2.470909 
L 386.36312 -2.470909 
L 385.642562 -2.470909 
L 384.922004 -2.470909 
L 384.201446 -2.470909 
L 383.480888 -2.470909 
L 382.760331 -2.470909 
L 382.039773 -2.470909 
L 381.319215 -2.470909 
L 380.598657 -2.470909 
L 379.878099 -2.470909 
L 379.157541 -2.470909 
L 378.436983 -2.470909 
L 377.716426 -2.470909 
L 376.995868 -2.470909 
L 376.27531 -2.470909 
L 375.554752 -2.470909 
L 374.834194 -2.470909 
L 374.113636 -2.470909 
L 373.393079 -2.470909 
L 372.672521 -2.470909 
L 371.951963 -2.470909 
L 371.231405 -2.470909 
L 370.510847 -2.470909 
L 369.790289 -2.470909 
L 369.069731 -2.470909 
L 368.349174 -2.470909 
L 367.628616 -2.470909 
L 366.908058 -2.470909 
L 366.1875 -2.470909 
L 365.466942 -2.470909 
L 364.746384 -2.470909 
L 364.025826 -2.470909 
L 363.305269 -2.470909 
L 362.584711 -2.470909 
L 361.864153 -2.470909 
L 361.143595 -2.470909 
L 360.423037 -2.470909 
L 359.702479 -2.470909 
L 358.981921 -2.470909 
L 358.261364 -2.470909 
L 357.540806 -2.470909 
L 356.820248 -2.470909 
L 356.09969 -2.470909 
L 355.379132 -2.470909 
L 354.658574 -2.470909 
L 353.938017 -2.470909 
L 353.217459 -2.470909 
L 352.496901 -2.470909 
L 351.776343 -2.470909 
L 351.055785 -2.470909 
L 350.335227 -2.470909 
L 349.614669 -2.470909 
L 348.894112 -2.470909 
L 348.173554 -2.470909 
L 347.452996 -2.470909 
L 346.732438 -2.470909 
L 346.01188 -2.470909 
L 345.291322 -2.470909 
L 344.570764 -2.470909 
L 343.850207 -2.470909 
L 343.129649 -2.470909 
L 342.409091 -2.470909 
L 341.688533 -2.470909 
L 340.967975 -2.470909 
L 340.247417 -2.470909 
L 339.52686 -2.470909 
L 338.806302 -2.470909 
L 338.085744 -2.470909 
L 337.365186 -2.470909 
L 336.644628 -2.470909 
L 335.92407 -2.470909 
L 335.203512 -2.470909 
L 334.482955 -2.470909 
L 333.762397 -2.470909 
L 333.041839 -2.470909 
L 332.321281 -2.470909 
L 331.600723 -2.470909 
L 330.880165 -2.470909 
L 330.159607 -2.470909 
L 329.43905 -2.470909 
L 328.718492 -2.470909 
L 327.997934 -2.470909 
L 327.277376 -2.470909 
L 326.556818 -2.470909 
L 325.83626 -2.470909 
L 325.115702 -2.470909 
L 324.395145 -2.470909 
L 323.674587 -2.470909 
L 322.954029 -2.470909 
L 322.233471 -2.470909 
L 321.512913 -2.470909 
L 320.792355 -2.470909 
L 320.071798 -2.470909 
L 319.35124 -2.470909 
L 318.630682 -2.470909 
L 317.910124 -2.470909 
L 317.189566 -2.470909 
L 316.469008 -2.470909 
L 315.74845 -2.470909 
L 315.027893 -2.470909 
L 314.307335 -2.470909 
L 313.586777 -2.470909 
L 312.866219 -2.470909 
L 312.145661 -2.470909 
L 311.425103 -2.470909 
L 310.704545 -2.470909 
L 309.983988 -2.470909 
L 309.26343 -2.470909 
L 308.542872 -2.470909 
L 307.822314 -2.470909 
L 307.101756 -2.470909 
L 306.381198 -2.470909 
L 305.66064 -2.470909 
L 304.940083 -2.470909 
L 304.219525 -2.470909 
L 303.498967 -2.470909 
L 302.778409 -2.470909 
L 302.057851 -2.470909 
L 301.337293 -2.470909 
L 300.616736 -2.470909 
L 299.896178 -2.470909 
L 299.17562 -2.470909 
L 298.455062 -2.470909 
L 297.734504 -2.470909 
L 297.013946 -2.470909 
L 296.293388 -2.470909 
L 295.572831 -2.470909 
L 294.852273 -2.470909 
L 294.131715 -2.470909 
L 293.411157 -2.470909 
L 292.690599 -2.470909 
L 291.970041 -2.470909 
L 291.249483 -2.470909 
L 290.528926 -2.470909 
L 289.808368 -2.470909 
L 289.08781 -2.470909 
L 288.367252 -2.470909 
L 287.646694 -2.470909 
L 286.926136 -2.470909 
L 286.205579 -2.470909 
L 285.485021 -2.470909 
L 284.764463 -2.470909 
L 284.043905 -2.470909 
L 283.323347 -2.470909 
L 282.602789 -2.470909 
L 281.882231 -2.470909 
L 281.161674 -2.470909 
L 280.441116 -2.470909 
L 279.720558 -2.470909 
L 279 -2.470909 
L 278.279442 -2.470909 
L 277.558884 -2.470909 
L 276.838326 -2.470909 
L 276.117769 -2.470909 
L 275.397211 -2.470909 
L 274.676653 -2.470909 
L 273.956095 -2.470909 
L 273.235537 -2.470909 
L 272.514979 -2.470909 
L 271.794421 -2.470909 
L 271.073864 -2.470909 
L 270.353306 -2.470909 
L 269.632748 -2.470909 
L 268.91219 -2.470909 
L 268.191632 -2.470909 
L 267.471074 -2.470909 
L 266.750517 -2.470909 
L 266.029959 -2.470909 
L 265.309401 -2.470909 
L 264.588843 -2.470909 
L 263.868285 -2.470909 
L 263.147727 -2.470909 
L 262.427169 -2.470909 
L 261.706612 -2.470909 
L 260.986054 -2.470909 
L 260.265496 -2.470909 
L 259.544938 -2.470909 
L 258.82438 -2.470909 
L 258.103822 -2.470909 
L 257.383264 -2.470909 
L 256.662707 -2.470909 
L 255.942149 -2.470909 
L 255.221591 -2.470909 
L 254.501033 -2.470909 
L 253.780475 -2.470909 
L 253.059917 -2.470909 
L 252.33936 -2.470909 
L 251.618802 -2.470909 
L 250.898244 -2.470909 
L 250.177686 -2.470909 
L 249.457128 -2.470909 
L 248.73657 -2.470909 
L 248.016012 -2.470909 
L 247.295455 -2.470909 
L 246.574897 -2.470909 
L 245.854339 -2.470909 
L 245.133781 -2.470909 
L 244.413223 -2.470909 
L 243.692665 -2.470909 
L 242.972107 -2.470909 
L 242.25155 -2.470909 
L 241.530992 -2.470909 
L 240.810434 -2.470909 
L 240.089876 -2.470909 
L 239.369318 -2.470909 
L 238.64876 -2.470909 
L 237.928202 -2.470909 
L 237.207645 -2.470909 
L 236.487087 -2.470909 
L 235.766529 -2.470909 
L 235.045971 -2.470909 
L 234.325413 -2.470909 
L 233.604855 -2.470909 
L 232.884298 -2.470909 
L 232.16374 -2.470909 
L 231.443182 -2.470909 
L 230.722624 -2.470909 
L 230.002066 -2.470909 
L 229.281508 -2.470909 
L 228.56095 -2.470909 
L 227.840393 -2.470909 
L 227.119835 -2.470909 
L 226.399277 -2.470909 
L 225.678719 -2.470909 
L 224.958161 -2.470909 
L 224.237603 -2.470909 
L 223.517045 -2.470909 
L 222.796488 -2.470909 
L 222.07593 -2.470909 
L 221.355372 -2.470909 
L 220.634814 -2.470909 
L 219.914256 -2.470909 
L 219.193698 -2.470909 
L 218.47314 -2.470909 
L 217.752583 -2.470909 
L 217.032025 -2.470909 
L 216.311467 -2.470909 
L 215.590909 -2.470909 
L 214.870351 -2.470909 
L 214.149793 -2.470909 
L 213.429236 -2.470909 
L 212.708678 -2.470909 
L 211.98812 -2.470909 
L 211.267562 -2.470909 
L 210.547004 -2.470909 
L 209.826446 -2.470909 
L 209.105888 -2.470909 
L 208.385331 -2.470909 
L 207.664773 -2.470909 
L 206.944215 -2.470909 
L 206.223657 -2.470909 
L 205.503099 -2.470909 
L 204.782541 -2.470909 
L 204.061983 -2.470909 
L 203.341426 -2.470909 
L 202.620868 -2.470909 
L 201.90031 -2.470909 
L 201.179752 -2.470909 
L 200.459194 -2.470909 
L 199.738636 -2.470909 
L 199.018079 -2.470909 
L 198.297521 -2.470909 
L 197.576963 -2.470909 
L 196.856405 -2.470909 
L 196.135847 -2.470909 
L 195.415289 -2.470909 
L 194.694731 -2.470909 
L 193.974174 -2.470909 
L 193.253616 -2.470909 
L 192.533058 -2.470909 
L 191.8125 -2.470909 
L 191.091942 -2.470909 
L 190.371384 -2.470909 
L 189.650826 -2.470909 
L 188.930269 -2.470909 
L 188.209711 -2.470909 
L 187.489153 -2.470909 
L 186.768595 -2.470909 
L 186.048037 -2.470909 
L 185.327479 -2.470909 
L 184.606921 -2.470909 
L 183.886364 -2.470909 
L 183.165806 -2.470909 
L 182.445248 -2.470909 
z
" style="stroke: #116dc2; stroke-opacity: 0.2"/>
    </defs>
    <g clip-path="url(#pb24579f540)">
     <use xlink:href="#m1cb750abbd" x="0" y="54.36" style="fill: #116dc2; fill-opacity: 0.2; stroke: #116dc2; stroke-opacity: 0.2"/>
    </g>
   </g>
   <g id="PolyCollection_3">
    <defs>
     <path id="m826595f965" d="M 25.363636 -2.470909 
L 25.363636 -5.1608 
L 26.084194 -5.759987 
L 26.804752 -6.458295 
L 27.52531 -7.234943 
L 28.245868 -8.05473 
L 28.966426 -8.93836 
L 29.686983 -9.961602 
L 30.407541 -11.176731 
L 31.128099 -12.553708 
L 31.848657 -13.995266 
L 32.569215 -15.41104 
L 33.289773 -16.80332 
L 34.010331 -18.285408 
L 34.730888 -20.006582 
L 35.451446 -22.059497 
L 36.172004 -24.427827 
L 36.892562 -26.98208 
L 37.61312 -29.556298 
L 38.333678 -32.071182 
L 39.054236 -34.558598 
L 39.774793 -37.051362 
L 40.495351 -39.48527 
L 41.215909 -41.736121 
L 41.936467 -43.741671 
L 42.657025 -45.536472 
L 43.377583 -47.152385 
L 44.09814 -48.568795 
L 44.818698 -49.781633 
L 45.539256 -50.802936 
L 46.259814 -51.558092 
L 46.980372 -51.889091 
L 47.70093 -51.701622 
L 48.421488 -51.060153 
L 49.142045 -50.116499 
L 49.862603 -48.97507 
L 50.583161 -47.66183 
L 51.303719 -46.176186 
L 52.024277 -44.470485 
L 52.744835 -42.420419 
L 53.465393 -39.971766 
L 54.18595 -37.320689 
L 54.906508 -34.822418 
L 55.627066 -32.693921 
L 56.347624 -30.861449 
L 57.068182 -29.080733 
L 57.78874 -27.14472 
L 58.509298 -25.005728 
L 59.229855 -22.773508 
L 59.950413 -20.591504 
L 60.670971 -18.493971 
L 61.391529 -16.424693 
L 62.112087 -14.39459 
L 62.832645 -12.54134 
L 63.553202 -11.008237 
L 64.27376 -9.81919 
L 64.994318 -8.890464 
L 65.714876 -8.117414 
L 66.435434 -7.419806 
L 67.155992 -6.737686 
L 67.87655 -6.044846 
L 68.597107 -5.377005 
L 69.317665 -4.801593 
L 69.317665 -2.470909 
L 69.317665 -2.470909 
L 68.597107 -2.470909 
L 67.87655 -2.470909 
L 67.155992 -2.470909 
L 66.435434 -2.470909 
L 65.714876 -2.470909 
L 64.994318 -2.470909 
L 64.27376 -2.470909 
L 63.553202 -2.470909 
L 62.832645 -2.470909 
L 62.112087 -2.470909 
L 61.391529 -2.470909 
L 60.670971 -2.470909 
L 59.950413 -2.470909 
L 59.229855 -2.470909 
L 58.509298 -2.470909 
L 57.78874 -2.470909 
L 57.068182 -2.470909 
L 56.347624 -2.470909 
L 55.627066 -2.470909 
L 54.906508 -2.470909 
L 54.18595 -2.470909 
L 53.465393 -2.470909 
L 52.744835 -2.470909 
L 52.024277 -2.470909 
L 51.303719 -2.470909 
L 50.583161 -2.470909 
L 49.862603 -2.470909 
L 49.142045 -2.470909 
L 48.421488 -2.470909 
L 47.70093 -2.470909 
L 46.980372 -2.470909 
L 46.259814 -2.470909 
L 45.539256 -2.470909 
L 44.818698 -2.470909 
L 44.09814 -2.470909 
L 43.377583 -2.470909 
L 42.657025 -2.470909 
L 41.936467 -2.470909 
L 41.215909 -2.470909 
L 40.495351 -2.470909 
L 39.774793 -2.470909 
L 39.054236 -2.470909 
L 38.333678 -2.470909 
L 37.61312 -2.470909 
L 36.892562 -2.470909 
L 36.172004 -2.470909 
L 35.451446 -2.470909 
L 34.730888 -2.470909 
L 34.010331 -2.470909 
L 33.289773 -2.470909 
L 32.569215 -2.470909 
L 31.848657 -2.470909 
L 31.128099 -2.470909 
L 30.407541 -2.470909 
L 29.686983 -2.470909 
L 28.966426 -2.470909 
L 28.245868 -2.470909 
L 27.52531 -2.470909 
L 26.804752 -2.470909 
L 26.084194 -2.470909 
L 25.363636 -2.470909 
z
" style="stroke: #8a8a8a; stroke-opacity: 0.2"/>
    </defs>
    <g clip-path="url(#pb24579f540)">
     <use xlink:href="#m826595f965" x="0" y="54.36" style="fill: #8a8a8a; fill-opacity: 0.2; stroke: #8a8a8a; stroke-opacity: 0.2"/>
    </g>
   </g>
   <g id="line2d_1">
    <path d="M 312.145661 50.522364 
L 318.630682 49.852306 
L 330.880165 48.279851 
L 335.203512 47.492169 
L 338.806302 46.60827 
L 344.570764 44.91986 
L 352.496901 42.417883 
L 356.820248 40.82732 
L 361.864153 38.697833 
L 372.672521 33.752187 
L 376.995868 31.548644 
L 382.039773 28.649046 
L 387.083678 25.787638 
L 390.686467 24.017239 
L 394.289256 22.522437 
L 398.612603 20.987649 
L 409.420971 17.461148 
L 412.303202 16.750976 
L 415.185434 16.279687 
L 418.067665 16.049447 
L 421.670455 16.026026 
L 425.993802 16.25127 
L 430.317149 16.711675 
L 433.919938 17.341928 
L 437.522727 18.236343 
L 441.846074 19.575154 
L 449.772211 22.33358 
L 456.257231 24.774705 
L 459.860021 26.358574 
L 463.46281 28.230489 
L 473.55062 33.864877 
L 477.153409 35.418896 
L 495.167355 42.421241 
L 501.652376 44.394081 
L 508.857955 46.373324 
L 515.342975 47.937043 
L 520.38688 48.963672 
L 525.430785 49.757532 
L 531.915806 50.508003 
L 532.636364 50.577369 
L 532.636364 50.577369 
" clip-path="url(#pb24579f540)" style="fill: none; stroke: #cf1313; stroke-width: 1.5; stroke-linecap: square"/>
   </g>
   <g id="line2d_2">
    <path d="M 182.445248 50.311777 
L 194.694731 49.110088 
L 199.738636 48.457353 
L 204.061983 47.663048 
L 208.385331 46.606216 
L 212.708678 45.281938 
L 217.032025 43.708075 
L 226.399277 39.973464 
L 230.002066 38.318288 
L 233.604855 36.365308 
L 243.692665 30.553696 
L 248.73657 28.094449 
L 258.103822 23.790435 
L 263.147727 21.744905 
L 267.471074 20.225923 
L 271.794421 18.937561 
L 279.720558 16.863371 
L 284.043905 15.932442 
L 286.926136 15.537598 
L 289.08781 15.434768 
L 291.249483 15.535273 
L 293.411157 15.843203 
L 296.293388 16.522835 
L 300.616736 17.866909 
L 311.425103 21.565486 
L 315.027893 23.009557 
L 318.630682 24.727917 
L 322.954029 27.108627 
L 332.321281 32.379599 
L 340.967975 36.971559 
L 345.291322 39.028951 
L 350.335227 41.14832 
L 356.820248 43.608208 
L 363.305269 45.817714 
L 369.069731 47.555557 
L 373.393079 48.619475 
L 376.995868 49.294426 
L 381.319215 49.875052 
L 386.36312 50.306059 
L 391.407025 50.587548 
L 391.407025 50.587548 
" clip-path="url(#pb24579f540)" style="fill: none; stroke: #116dc2; stroke-width: 1.5; stroke-linecap: square"/>
   </g>
   <g id="line2d_3">
    <path d="M 25.363636 49.1992 
L 26.084194 48.600013 
L 26.804752 47.901705 
L 27.52531 47.125057 
L 28.245868 46.30527 
L 28.966426 45.42164 
L 29.686983 44.398398 
L 30.407541 43.183269 
L 31.128099 41.806292 
L 31.848657 40.364734 
L 32.569215 38.94896 
L 33.289773 37.55668 
L 34.010331 36.074592 
L 34.730888 34.353418 
L 35.451446 32.300503 
L 36.172004 29.932173 
L 36.892562 27.37792 
L 37.61312 24.803702 
L 38.333678 22.288818 
L 39.054236 19.801402 
L 39.774793 17.308638 
L 40.495351 14.87473 
L 41.215909 12.623879 
L 41.936467 10.618329 
L 42.657025 8.823528 
L 43.377583 7.207615 
L 44.09814 5.791205 
L 44.818698 4.578367 
L 45.539256 3.557064 
L 46.259814 2.801908 
L 46.980372 2.470909 
L 47.70093 2.658378 
L 48.421488 3.299847 
L 49.142045 4.243501 
L 49.862603 5.38493 
L 50.583161 6.69817 
L 51.303719 8.183814 
L 52.024277 9.889515 
L 52.744835 11.939581 
L 53.465393 14.388234 
L 54.18595 17.039311 
L 54.906508 19.537582 
L 55.627066 21.666079 
L 56.347624 23.498551 
L 57.068182 25.279267 
L 57.78874 27.21528 
L 58.509298 29.354272 
L 59.229855 31.586492 
L 59.950413 33.768496 
L 60.670971 35.866029 
L 61.391529 37.935307 
L 62.112087 39.96541 
L 62.832645 41.81866 
L 63.553202 43.351763 
L 64.27376 44.54081 
L 64.994318 45.469536 
L 65.714876 46.242586 
L 66.435434 46.940194 
L 67.155992 47.622314 
L 67.87655 48.315154 
L 68.597107 48.982995 
L 69.317665 49.558407 
" clip-path="url(#pb24579f540)" style="fill: none; stroke: #8a8a8a; stroke-width: 1.5; stroke-linecap: square"/>
   </g>
  </g>
 </g>
 <defs>
  <clipPath id="pb24579f540">
   <rect x="0" y="-0" width="558" height="54.36"/>
  </clipPath>
 </defs>
</svg>
