<?xml version="1.0" encoding="utf-8" standalone="no"?>
<!DOCTYPE svg PUBLIC "-//W3C//DTD SVG 1.1//EN"
  "http://www.w3.org/Graphics/SVG/1.1/DTD/svg11.dtd">
<svg xmlns:xlink="http://www.w3.org/1999/xlink" width="558pt" height="54.36pt" viewBox="0 0 558 54.36" xmlns="http://www.w3.org/2000/svg" version="1.1">
 <metadata>
  <rdf:RDF xmlns:dc="http://purl.org/dc/elements/1.1/" xmlns:cc="http://creativecommons.org/ns#" xmlns:rdf="http://www.w3.org/1999/02/22-rdf-syntax-ns#">
   <cc:Work>
    <dc:type rdf:resource="http://purl.org/dc/dcmitype/StillImage"/>
    <dc:date>2024-09-14T12:46:58.375041</dc:date>
    <dc:format>image/svg+xml</dc:format>
    <dc:creator>
     <cc:Agent>
      <dc:title>Matplotlib v3.5.2, https://matplotlib.org/</dc:title>
     </cc:Agent>
    </dc:creator>
   </cc:Work>
  </rdf:RDF>
 </metadata>
 <defs>
  <style type="text/css">*{stroke-linejoin: round; stroke-linecap: butt}</style>
 </defs>
 <g id="figure_1">
  <g id="patch_1">
   <path d="M 0 54.36 
L 558 54.36 
L 558 0 
L 0 0 
L 0 54.36 
z
" style="fill: none; opacity: 0"/>
  </g>
  <g id="axes_1">
   <g id="PolyCollection_1">
    <defs>
     <path id="m8f1bf2d84d" d="M 311.241911 -2.470909 
L 311.241911 -4.09737 
L 311.958398 -4.166463 
L 312.674884 -4.235338 
L 313.391371 -4.303783 
L 314.107858 -4.371695 
L 314.824345 -4.439084 
L 315.540832 -4.506089 
L 316.257319 -4.572979 
L 316.973806 -4.640146 
L 317.690293 -4.708099 
L 318.40678 -4.777448 
L 319.123267 -4.848876 
L 319.839753 -4.92312 
L 320.55624 -5.000937 
L 321.272727 -5.083072 
L 321.989214 -5.170228 
L 322.705701 -5.263034 
L 323.422188 -5.362019 
L 324.138675 -5.467586 
L 324.855162 -5.579997 
L 325.571649 -5.699359 
L 326.288136 -5.82562 
L 327.004622 -5.958568 
L 327.721109 -6.097842 
L 328.437596 -6.242939 
L 329.154083 -6.39324 
L 329.87057 -6.548026 
L 330.587057 -6.70651 
L 331.303544 -6.867863 
L 332.020031 -7.031245 
L 332.736518 -7.19584 
L 333.453005 -7.360878 
L 334.169492 -7.525674 
L 334.885978 -7.689647 
L 335.602465 -7.852343 
L 336.318952 -8.013457 
L 337.035439 -8.172839 
L 337.751926 -8.330505 
L 338.468413 -8.486636 
L 339.1849 -8.641571 
L 339.901387 -8.795797 
L 340.617874 -8.949935 
L 341.334361 -9.104715 
L 342.050847 -9.26096 
L 342.767334 -9.419554 
L 343.483821 -9.581423 
L 344.200308 -9.747507 
L 344.916795 -9.918739 
L 345.633282 -10.096019 
L 346.349769 -10.2802 
L 347.066256 -10.472068 
L 347.782743 -10.672326 
L 348.49923 -10.881587 
L 349.215716 -11.10036 
L 349.932203 -11.329046 
L 350.64869 -11.567928 
L 351.365177 -11.817175 
L 352.081664 -12.076836 
L 352.798151 -12.346847 
L 353.514638 -12.627033 
L 354.231125 -12.917122 
L 354.947612 -13.216753 
L 355.664099 -13.525494 
L 356.380586 -13.842857 
L 357.097072 -14.168321 
L 357.813559 -14.501346 
L 358.530046 -14.841395 
L 359.246533 -15.187947 
L 359.96302 -15.540511 
L 360.679507 -15.89863 
L 361.395994 -16.261882 
L 362.112481 -16.629879 
L 362.828968 -17.002247 
L 363.545455 -17.378619 
L 364.261941 -17.758607 
L 364.978428 -18.141784 
L 365.694915 -18.527657 
L 366.411402 -18.915654 
L 367.127889 -19.305102 
L 367.844376 -19.695221 
L 368.560863 -20.085126 
L 369.27735 -20.473838 
L 369.993837 -20.860301 
L 370.710324 -21.243419 
L 371.42681 -21.62209 
L 372.143297 -21.995259 
L 372.859784 -22.361962 
L 373.576271 -22.721385 
L 374.292758 -23.072903 
L 375.009245 -23.416131 
L 375.725732 -23.750946 
L 376.442219 -24.077511 
L 377.158706 -24.39627 
L 377.875193 -24.707937 
L 378.59168 -25.013464 
L 379.308166 -25.31399 
L 380.024653 -25.610783 
L 380.74114 -25.905172 
L 381.457627 -26.198469 
L 382.174114 -26.491903 
L 382.890601 -26.786541 
L 383.607088 -27.083243 
L 384.323575 -27.382607 
L 385.040062 -27.684953 
L 385.756549 -27.990307 
L 386.473035 -28.298422 
L 387.189522 -28.608802 
L 387.906009 -28.920754 
L 388.622496 -29.233447 
L 389.338983 -29.545978 
L 390.05547 -29.857444 
L 390.771957 -30.167013 
L 391.488444 -30.473983 
L 392.204931 -30.777837 
L 392.921418 -31.078275 
L 393.637904 -31.375233 
L 394.354391 -31.668886 
L 395.070878 -31.959625 
L 395.787365 -32.248022 
L 396.503852 -32.534774 
L 397.220339 -32.820647 
L 397.936826 -33.106394 
L 398.653313 -33.392687 
L 399.3698 -33.680041 
L 400.086287 -33.96875 
L 400.802773 -34.258827 
L 401.51926 -34.549963 
L 402.235747 -34.841505 
L 402.952234 -35.132444 
L 403.668721 -35.421429 
L 404.385208 -35.706796 
L 405.101695 -35.986611 
L 405.818182 -36.258736 
L 406.534669 -36.520889 
L 407.251156 -36.770732 
L 407.967643 -37.005946 
L 408.684129 -37.224317 
L 409.400616 -37.423814 
L 410.117103 -37.60267 
L 410.83359 -37.75944 
L 411.550077 -37.89307 
L 412.266564 -38.002937 
L 412.983051 -38.088887 
L 413.699538 -38.151256 
L 414.416025 -38.190877 
L 415.132512 -38.209071 
L 415.848998 -38.207627 
L 416.565485 -38.188758 
L 417.281972 -38.155054 
L 417.998459 -38.109406 
L 418.714946 -38.054931 
L 419.431433 -37.994873 
L 420.14792 -37.932505 
L 420.864407 -37.871021 
L 421.580894 -37.813429 
L 422.297381 -37.762437 
L 423.013867 -37.720364 
L 423.730354 -37.689042 
L 424.446841 -37.669749 
L 425.163328 -37.663149 
L 425.879815 -37.669265 
L 426.596302 -37.687463 
L 427.312789 -37.716468 
L 428.029276 -37.754405 
L 428.745763 -37.798854 
L 429.46225 -37.846933 
L 430.178737 -37.895389 
L 430.895223 -37.940708 
L 431.61171 -37.979226 
L 432.328197 -38.00725 
L 433.044684 -38.021164 
L 433.761171 -38.017544 
L 434.477658 -37.993251 
L 435.194145 -37.94552 
L 435.910632 -37.872026 
L 436.627119 -37.770941 
L 437.343606 -37.640971 
L 438.060092 -37.481374 
L 438.776579 -37.291969 
L 439.493066 -37.073125 
L 440.209553 -36.825733 
L 440.92604 -36.551173 
L 441.642527 -36.251265 
L 442.359014 -35.928211 
L 443.075501 -35.58453 
L 443.791988 -35.222989 
L 444.508475 -34.846522 
L 445.224961 -34.458153 
L 445.941448 -34.060918 
L 446.657935 -33.657783 
L 447.374422 -33.251568 
L 448.090909 -32.844877 
L 448.807396 -32.440032 
L 449.523883 -32.039017 
L 450.24037 -31.643436 
L 450.956857 -31.254476 
L 451.673344 -30.87289 
L 452.389831 -30.498994 
L 453.106317 -30.132679 
L 453.822804 -29.773439 
L 454.539291 -29.420418 
L 455.255778 -29.072469 
L 455.972265 -28.728227 
L 456.688752 -28.386195 
L 457.405239 -28.044833 
L 458.121726 -27.702655 
L 458.838213 -27.358318 
L 459.5547 -27.010707 
L 460.271186 -26.659007 
L 460.987673 -26.302758 
L 461.70416 -25.941885 
L 462.420647 -25.576713 
L 463.137134 -25.207946 
L 463.853621 -24.836634 
L 464.570108 -24.46411 
L 465.286595 -24.091914 
L 466.003082 -23.721703 
L 466.719569 -23.355157 
L 467.436055 -22.993887 
L 468.152542 -22.639343 
L 468.869029 -22.292747 
L 469.585516 -21.955034 
L 470.302003 -21.626815 
L 471.01849 -21.308367 
L 471.734977 -20.999634 
L 472.451464 -20.700255 
L 473.167951 -20.409602 
L 473.884438 -20.12683 
L 474.600924 -19.85093 
L 475.317411 -19.580786 
L 476.033898 -19.31522 
L 476.750385 -19.05304 
L 477.466872 -18.793068 
L 478.183359 -18.534165 
L 478.899846 -18.275243 
L 479.616333 -18.015272 
L 480.33282 -17.753278 
L 481.049307 -17.488346 
L 481.765794 -17.219614 
L 482.48228 -16.946287 
L 483.198767 -16.66764 
L 483.915254 -16.383043 
L 484.631741 -16.091984 
L 485.348228 -15.794099 
L 486.064715 -15.489207 
L 486.781202 -15.177343 
L 487.497689 -14.858787 
L 488.214176 -14.534081 
L 488.930663 -14.204043 
L 489.647149 -13.869757 
L 490.363636 -13.532558 
L 491.080123 -13.193992 
L 491.79661 -12.855774 
L 492.513097 -12.519724 
L 493.229584 -12.187703 
L 493.946071 -11.861545 
L 494.662558 -11.542985 
L 495.379045 -11.233602 
L 496.095532 -10.934763 
L 496.812018 -10.647581 
L 497.528505 -10.372891 
L 498.244992 -10.111238 
L 498.961479 -9.862876 
L 499.677966 -9.627787 
L 500.394453 -9.405703 
L 501.11094 -9.196148 
L 501.827427 -8.998471 
L 502.543914 -8.811892 
L 503.260401 -8.635547 
L 503.976888 -8.468531 
L 504.693374 -8.309929 
L 505.409861 -8.158857 
L 506.126348 -8.014483 
L 506.842835 -7.876048 
L 507.559322 -7.742883 
L 508.275809 -7.614409 
L 508.992296 -7.490145 
L 509.708783 -7.369701 
L 510.42527 -7.252769 
L 511.141757 -7.139113 
L 511.858243 -7.028553 
L 512.57473 -6.920947 
L 513.291217 -6.816181 
L 514.007704 -6.714147 
L 514.724191 -6.614732 
L 515.440678 -6.517804 
L 516.157165 -6.423203 
L 516.873652 -6.330738 
L 517.590139 -6.24018 
L 518.306626 -6.151265 
L 519.023112 -6.063696 
L 519.739599 -5.977154 
L 520.456086 -5.8913 
L 521.172573 -5.805791 
L 521.88906 -5.72029 
L 522.605547 -5.634474 
L 523.322034 -5.548049 
L 524.038521 -5.460758 
L 524.755008 -5.372389 
L 525.471495 -5.282783 
L 526.187982 -5.19184 
L 526.904468 -5.099518 
L 527.620955 -5.005839 
L 528.337442 -4.910883 
L 529.053929 -4.814792 
L 529.770416 -4.717759 
L 530.486903 -4.620029 
L 531.20339 -4.521887 
L 531.919877 -4.423657 
L 532.636364 -4.325693 
L 532.636364 -2.470909 
L 532.636364 -2.470909 
L 531.919877 -2.470909 
L 531.20339 -2.470909 
L 530.486903 -2.470909 
L 529.770416 -2.470909 
L 529.053929 -2.470909 
L 528.337442 -2.470909 
L 527.620955 -2.470909 
L 526.904468 -2.470909 
L 526.187982 -2.470909 
L 525.471495 -2.470909 
L 524.755008 -2.470909 
L 524.038521 -2.470909 
L 523.322034 -2.470909 
L 522.605547 -2.470909 
L 521.88906 -2.470909 
L 521.172573 -2.470909 
L 520.456086 -2.470909 
L 519.739599 -2.470909 
L 519.023112 -2.470909 
L 518.306626 -2.470909 
L 517.590139 -2.470909 
L 516.873652 -2.470909 
L 516.157165 -2.470909 
L 515.440678 -2.470909 
L 514.724191 -2.470909 
L 514.007704 -2.470909 
L 513.291217 -2.470909 
L 512.57473 -2.470909 
L 511.858243 -2.470909 
L 511.141757 -2.470909 
L 510.42527 -2.470909 
L 509.708783 -2.470909 
L 508.992296 -2.470909 
L 508.275809 -2.470909 
L 507.559322 -2.470909 
L 506.842835 -2.470909 
L 506.126348 -2.470909 
L 505.409861 -2.470909 
L 504.693374 -2.470909 
L 503.976888 -2.470909 
L 503.260401 -2.470909 
L 502.543914 -2.470909 
L 501.827427 -2.470909 
L 501.11094 -2.470909 
L 500.394453 -2.470909 
L 499.677966 -2.470909 
L 498.961479 -2.470909 
L 498.244992 -2.470909 
L 497.528505 -2.470909 
L 496.812018 -2.470909 
L 496.095532 -2.470909 
L 495.379045 -2.470909 
L 494.662558 -2.470909 
L 493.946071 -2.470909 
L 493.229584 -2.470909 
L 492.513097 -2.470909 
L 491.79661 -2.470909 
L 491.080123 -2.470909 
L 490.363636 -2.470909 
L 489.647149 -2.470909 
L 488.930663 -2.470909 
L 488.214176 -2.470909 
L 487.497689 -2.470909 
L 486.781202 -2.470909 
L 486.064715 -2.470909 
L 485.348228 -2.470909 
L 484.631741 -2.470909 
L 483.915254 -2.470909 
L 483.198767 -2.470909 
L 482.48228 -2.470909 
L 481.765794 -2.470909 
L 481.049307 -2.470909 
L 480.33282 -2.470909 
L 479.616333 -2.470909 
L 478.899846 -2.470909 
L 478.183359 -2.470909 
L 477.466872 -2.470909 
L 476.750385 -2.470909 
L 476.033898 -2.470909 
L 475.317411 -2.470909 
L 474.600924 -2.470909 
L 473.884438 -2.470909 
L 473.167951 -2.470909 
L 472.451464 -2.470909 
L 471.734977 -2.470909 
L 471.01849 -2.470909 
L 470.302003 -2.470909 
L 469.585516 -2.470909 
L 468.869029 -2.470909 
L 468.152542 -2.470909 
L 467.436055 -2.470909 
L 466.719569 -2.470909 
L 466.003082 -2.470909 
L 465.286595 -2.470909 
L 464.570108 -2.470909 
L 463.853621 -2.470909 
L 463.137134 -2.470909 
L 462.420647 -2.470909 
L 461.70416 -2.470909 
L 460.987673 -2.470909 
L 460.271186 -2.470909 
L 459.5547 -2.470909 
L 458.838213 -2.470909 
L 458.121726 -2.470909 
L 457.405239 -2.470909 
L 456.688752 -2.470909 
L 455.972265 -2.470909 
L 455.255778 -2.470909 
L 454.539291 -2.470909 
L 453.822804 -2.470909 
L 453.106317 -2.470909 
L 452.389831 -2.470909 
L 451.673344 -2.470909 
L 450.956857 -2.470909 
L 450.24037 -2.470909 
L 449.523883 -2.470909 
L 448.807396 -2.470909 
L 448.090909 -2.470909 
L 447.374422 -2.470909 
L 446.657935 -2.470909 
L 445.941448 -2.470909 
L 445.224961 -2.470909 
L 444.508475 -2.470909 
L 443.791988 -2.470909 
L 443.075501 -2.470909 
L 442.359014 -2.470909 
L 441.642527 -2.470909 
L 440.92604 -2.470909 
L 440.209553 -2.470909 
L 439.493066 -2.470909 
L 438.776579 -2.470909 
L 438.060092 -2.470909 
L 437.343606 -2.470909 
L 436.627119 -2.470909 
L 435.910632 -2.470909 
L 435.194145 -2.470909 
L 434.477658 -2.470909 
L 433.761171 -2.470909 
L 433.044684 -2.470909 
L 432.328197 -2.470909 
L 431.61171 -2.470909 
L 430.895223 -2.470909 
L 430.178737 -2.470909 
L 429.46225 -2.470909 
L 428.745763 -2.470909 
L 428.029276 -2.470909 
L 427.312789 -2.470909 
L 426.596302 -2.470909 
L 425.879815 -2.470909 
L 425.163328 -2.470909 
L 424.446841 -2.470909 
L 423.730354 -2.470909 
L 423.013867 -2.470909 
L 422.297381 -2.470909 
L 421.580894 -2.470909 
L 420.864407 -2.470909 
L 420.14792 -2.470909 
L 419.431433 -2.470909 
L 418.714946 -2.470909 
L 417.998459 -2.470909 
L 417.281972 -2.470909 
L 416.565485 -2.470909 
L 415.848998 -2.470909 
L 415.132512 -2.470909 
L 414.416025 -2.470909 
L 413.699538 -2.470909 
L 412.983051 -2.470909 
L 412.266564 -2.470909 
L 411.550077 -2.470909 
L 410.83359 -2.470909 
L 410.117103 -2.470909 
L 409.400616 -2.470909 
L 408.684129 -2.470909 
L 407.967643 -2.470909 
L 407.251156 -2.470909 
L 406.534669 -2.470909 
L 405.818182 -2.470909 
L 405.101695 -2.470909 
L 404.385208 -2.470909 
L 403.668721 -2.470909 
L 402.952234 -2.470909 
L 402.235747 -2.470909 
L 401.51926 -2.470909 
L 400.802773 -2.470909 
L 400.086287 -2.470909 
L 399.3698 -2.470909 
L 398.653313 -2.470909 
L 397.936826 -2.470909 
L 397.220339 -2.470909 
L 396.503852 -2.470909 
L 395.787365 -2.470909 
L 395.070878 -2.470909 
L 394.354391 -2.470909 
L 393.637904 -2.470909 
L 392.921418 -2.470909 
L 392.204931 -2.470909 
L 391.488444 -2.470909 
L 390.771957 -2.470909 
L 390.05547 -2.470909 
L 389.338983 -2.470909 
L 388.622496 -2.470909 
L 387.906009 -2.470909 
L 387.189522 -2.470909 
L 386.473035 -2.470909 
L 385.756549 -2.470909 
L 385.040062 -2.470909 
L 384.323575 -2.470909 
L 383.607088 -2.470909 
L 382.890601 -2.470909 
L 382.174114 -2.470909 
L 381.457627 -2.470909 
L 380.74114 -2.470909 
L 380.024653 -2.470909 
L 379.308166 -2.470909 
L 378.59168 -2.470909 
L 377.875193 -2.470909 
L 377.158706 -2.470909 
L 376.442219 -2.470909 
L 375.725732 -2.470909 
L 375.009245 -2.470909 
L 374.292758 -2.470909 
L 373.576271 -2.470909 
L 372.859784 -2.470909 
L 372.143297 -2.470909 
L 371.42681 -2.470909 
L 370.710324 -2.470909 
L 369.993837 -2.470909 
L 369.27735 -2.470909 
L 368.560863 -2.470909 
L 367.844376 -2.470909 
L 367.127889 -2.470909 
L 366.411402 -2.470909 
L 365.694915 -2.470909 
L 364.978428 -2.470909 
L 364.261941 -2.470909 
L 363.545455 -2.470909 
L 362.828968 -2.470909 
L 362.112481 -2.470909 
L 361.395994 -2.470909 
L 360.679507 -2.470909 
L 359.96302 -2.470909 
L 359.246533 -2.470909 
L 358.530046 -2.470909 
L 357.813559 -2.470909 
L 357.097072 -2.470909 
L 356.380586 -2.470909 
L 355.664099 -2.470909 
L 354.947612 -2.470909 
L 354.231125 -2.470909 
L 353.514638 -2.470909 
L 352.798151 -2.470909 
L 352.081664 -2.470909 
L 351.365177 -2.470909 
L 350.64869 -2.470909 
L 349.932203 -2.470909 
L 349.215716 -2.470909 
L 348.49923 -2.470909 
L 347.782743 -2.470909 
L 347.066256 -2.470909 
L 346.349769 -2.470909 
L 345.633282 -2.470909 
L 344.916795 -2.470909 
L 344.200308 -2.470909 
L 343.483821 -2.470909 
L 342.767334 -2.470909 
L 342.050847 -2.470909 
L 341.334361 -2.470909 
L 340.617874 -2.470909 
L 339.901387 -2.470909 
L 339.1849 -2.470909 
L 338.468413 -2.470909 
L 337.751926 -2.470909 
L 337.035439 -2.470909 
L 336.318952 -2.470909 
L 335.602465 -2.470909 
L 334.885978 -2.470909 
L 334.169492 -2.470909 
L 333.453005 -2.470909 
L 332.736518 -2.470909 
L 332.020031 -2.470909 
L 331.303544 -2.470909 
L 330.587057 -2.470909 
L 329.87057 -2.470909 
L 329.154083 -2.470909 
L 328.437596 -2.470909 
L 327.721109 -2.470909 
L 327.004622 -2.470909 
L 326.288136 -2.470909 
L 325.571649 -2.470909 
L 324.855162 -2.470909 
L 324.138675 -2.470909 
L 323.422188 -2.470909 
L 322.705701 -2.470909 
L 321.989214 -2.470909 
L 321.272727 -2.470909 
L 320.55624 -2.470909 
L 319.839753 -2.470909 
L 319.123267 -2.470909 
L 318.40678 -2.470909 
L 317.690293 -2.470909 
L 316.973806 -2.470909 
L 316.257319 -2.470909 
L 315.540832 -2.470909 
L 314.824345 -2.470909 
L 314.107858 -2.470909 
L 313.391371 -2.470909 
L 312.674884 -2.470909 
L 311.958398 -2.470909 
L 311.241911 -2.470909 
z
" style="stroke: #cf1313; stroke-opacity: 0.2"/>
    </defs>
    <g clip-path="url(#pa795dc9273)">
     <use xlink:href="#m8f1bf2d84d" x="0" y="54.36" style="fill: #cf1313; fill-opacity: 0.2; stroke: #cf1313; stroke-opacity: 0.2"/>
    </g>
   </g>
   <g id="PolyCollection_2">
    <defs>
     <path id="m42a8385eb4" d="M 189.439137 -2.470909 
L 189.439137 -4.437477 
L 190.155624 -4.550024 
L 190.872111 -4.6657 
L 191.588598 -4.784366 
L 192.305085 -4.90591 
L 193.021572 -5.030242 
L 193.738059 -5.157283 
L 194.454545 -5.28695 
L 195.171032 -5.419146 
L 195.887519 -5.553741 
L 196.604006 -5.690561 
L 197.320493 -5.829379 
L 198.03698 -5.96991 
L 198.753467 -6.111814 
L 199.469954 -6.254704 
L 200.186441 -6.398162 
L 200.902928 -6.541761 
L 201.619414 -6.685092 
L 202.335901 -6.827794 
L 203.052388 -6.969583 
L 203.768875 -7.110278 
L 204.485362 -7.249833 
L 205.201849 -7.388348 
L 205.918336 -7.52609 
L 206.634823 -7.663489 
L 207.35131 -7.801144 
L 208.067797 -7.939808 
L 208.784284 -8.080374 
L 209.50077 -8.223856 
L 210.217257 -8.371359 
L 210.933744 -8.524061 
L 211.650231 -8.683175 
L 212.366718 -8.849927 
L 213.083205 -9.02552 
L 213.799692 -9.211107 
L 214.516179 -9.407758 
L 215.232666 -9.616427 
L 215.949153 -9.837926 
L 216.665639 -10.072891 
L 217.382126 -10.321754 
L 218.098613 -10.584726 
L 218.8151 -10.861773 
L 219.531587 -11.152609 
L 220.248074 -11.456696 
L 220.964561 -11.773253 
L 221.681048 -12.101273 
L 222.397535 -12.439555 
L 223.114022 -12.786744 
L 223.830508 -13.141368 
L 224.546995 -13.501895 
L 225.263482 -13.866778 
L 225.979969 -14.234501 
L 226.696456 -14.603625 
L 227.412943 -14.972824 
L 228.12943 -15.340911 
L 228.845917 -15.70686 
L 229.562404 -16.069816 
L 230.278891 -16.429102 
L 230.995378 -16.784218 
L 231.711864 -17.134835 
L 232.428351 -17.480795 
L 233.144838 -17.8221 
L 233.861325 -18.158913 
L 234.577812 -18.491552 
L 235.294299 -18.820487 
L 236.010786 -19.146338 
L 236.727273 -19.469865 
L 237.44376 -19.791961 
L 238.160247 -20.113628 
L 238.876733 -20.435954 
L 239.59322 -20.760078 
L 240.309707 -21.087142 
L 241.026194 -21.418244 
L 241.742681 -21.754384 
L 242.459168 -22.096403 
L 243.175655 -22.444938 
L 243.892142 -22.800371 
L 244.608629 -23.162803 
L 245.325116 -23.53203 
L 246.041602 -23.907551 
L 246.758089 -24.288583 
L 247.474576 -24.674101 
L 248.191063 -25.062898 
L 248.90755 -25.45365 
L 249.624037 -25.845 
L 250.340524 -26.235641 
L 251.057011 -26.624401 
L 251.773498 -27.010314 
L 252.489985 -27.392681 
L 253.206471 -27.771113 
L 253.922958 -28.145546 
L 254.639445 -28.516236 
L 255.355932 -28.883731 
L 256.072419 -29.248811 
L 256.788906 -29.612421 
L 257.505393 -29.97559 
L 258.22188 -30.339337 
L 258.938367 -30.704593 
L 259.654854 -31.072118 
L 260.371341 -31.442444 
L 261.087827 -31.815835 
L 261.804314 -32.192258 
L 262.520801 -32.571387 
L 263.237288 -32.952612 
L 263.953775 -33.335068 
L 264.670262 -33.717667 
L 265.386749 -34.099134 
L 266.103236 -34.478036 
L 266.819723 -34.852815 
L 267.53621 -35.221808 
L 268.252696 -35.583259 
L 268.969183 -35.935342 
L 269.68567 -36.276167 
L 270.402157 -36.603805 
L 271.118644 -36.916309 
L 271.835131 -37.211753 
L 272.551618 -37.488276 
L 273.268105 -37.744134 
L 273.984592 -37.977762 
L 274.701079 -38.187832 
L 275.417565 -38.373309 
L 276.134052 -38.533503 
L 276.850539 -38.668101 
L 277.567026 -38.777184 
L 278.283513 -38.861232 
L 279 -38.921098 
L 279.716487 -38.957974 
L 280.432974 -38.973341 
L 281.149461 -38.968897 
L 281.865948 -38.946492 
L 282.582435 -38.908051 
L 283.298921 -38.8555 
L 284.015408 -38.790705 
L 284.731895 -38.715412 
L 285.448382 -38.631205 
L 286.164869 -38.53948 
L 286.881356 -38.441422 
L 287.597843 -38.338013 
L 288.31433 -38.23003 
L 289.030817 -38.118071 
L 289.747304 -38.002569 
L 290.46379 -37.88382 
L 291.180277 -37.762002 
L 291.896764 -37.637193 
L 292.613251 -37.509384 
L 293.329738 -37.378482 
L 294.046225 -37.244319 
L 294.762712 -37.106648 
L 295.479199 -36.965146 
L 296.195686 -36.819417 
L 296.912173 -36.669005 
L 297.628659 -36.513406 
L 298.345146 -36.352092 
L 299.061633 -36.18454 
L 299.77812 -36.010263 
L 300.494607 -35.828837 
L 301.211094 -35.639927 
L 301.927581 -35.443299 
L 302.644068 -35.23883 
L 303.360555 -35.026495 
L 304.077042 -34.806347 
L 304.793529 -34.578493 
L 305.510015 -34.343057 
L 306.226502 -34.100147 
L 306.942989 -33.849831 
L 307.659476 -33.592119 
L 308.375963 -33.326964 
L 309.09245 -33.054267 
L 309.808937 -32.773913 
L 310.525424 -32.485798 
L 311.241911 -32.189875 
L 311.958398 -31.886192 
L 312.674884 -31.57492 
L 313.391371 -31.256377 
L 314.107858 -30.931024 
L 314.824345 -30.599449 
L 315.540832 -30.262332 
L 316.257319 -29.920396 
L 316.973806 -29.57435 
L 317.690293 -29.224834 
L 318.40678 -28.872361 
L 319.123267 -28.517286 
L 319.839753 -28.159775 
L 320.55624 -27.79981 
L 321.272727 -27.437204 
L 321.989214 -27.071644 
L 322.705701 -26.702737 
L 323.422188 -26.33008 
L 324.138675 -25.953323 
L 324.855162 -25.572233 
L 325.571649 -25.186749 
L 326.288136 -24.797023 
L 327.004622 -24.403448 
L 327.721109 -24.006658 
L 328.437596 -23.60752 
L 329.154083 -23.207106 
L 329.87057 -22.806645 
L 330.587057 -22.40747 
L 331.303544 -22.010956 
L 332.020031 -21.618455 
L 332.736518 -21.231229 
L 333.453005 -20.850393 
L 334.169492 -20.476863 
L 334.885978 -20.111314 
L 335.602465 -19.75416 
L 336.318952 -19.405535 
L 337.035439 -19.065299 
L 337.751926 -18.733059 
L 338.468413 -18.408197 
L 339.1849 -18.089911 
L 339.901387 -17.777267 
L 340.617874 -17.469251 
L 341.334361 -17.164825 
L 342.050847 -16.862979 
L 342.767334 -16.562777 
L 343.483821 -16.263398 
L 344.200308 -15.964167 
L 344.916795 -15.664573 
L 345.633282 -15.364283 
L 346.349769 -15.063139 
L 347.066256 -14.761155 
L 347.782743 -14.458501 
L 348.49923 -14.155483 
L 349.215716 -13.852524 
L 349.932203 -13.550134 
L 350.64869 -13.248889 
L 351.365177 -12.949402 
L 352.081664 -12.652302 
L 352.798151 -12.35821 
L 353.514638 -12.06772 
L 354.231125 -11.781382 
L 354.947612 -11.499691 
L 355.664099 -11.223074 
L 356.380586 -10.95189 
L 357.097072 -10.68642 
L 357.813559 -10.426876 
L 358.530046 -10.173399 
L 359.246533 -9.926066 
L 359.96302 -9.6849 
L 360.679507 -9.449877 
L 361.395994 -9.220935 
L 362.112481 -8.997985 
L 362.828968 -8.780917 
L 363.545455 -8.569607 
L 364.261941 -8.363928 
L 364.978428 -8.163747 
L 365.694915 -7.968935 
L 366.411402 -7.779366 
L 367.127889 -7.594918 
L 367.844376 -7.415471 
L 368.560863 -7.24091 
L 369.27735 -7.07112 
L 369.993837 -6.905987 
L 370.710324 -6.745394 
L 371.42681 -6.589226 
L 372.143297 -6.437363 
L 372.859784 -6.289688 
L 373.576271 -6.146081 
L 374.292758 -6.006429 
L 375.009245 -5.870618 
L 375.725732 -5.738545 
L 376.442219 -5.610112 
L 377.158706 -5.485227 
L 377.875193 -5.363807 
L 378.59168 -5.245772 
L 379.308166 -5.131045 
L 380.024653 -5.019548 
L 380.74114 -4.9112 
L 381.457627 -4.805917 
L 382.174114 -4.703609 
L 382.890601 -4.604183 
L 383.607088 -4.507544 
L 384.323575 -4.413604 
L 385.040062 -4.322285 
L 385.756549 -4.233524 
L 386.473035 -4.147284 
L 387.189522 -4.063554 
L 387.906009 -3.982358 
L 388.622496 -3.90375 
L 388.622496 -2.470909 
L 388.622496 -2.470909 
L 387.906009 -2.470909 
L 387.189522 -2.470909 
L 386.473035 -2.470909 
L 385.756549 -2.470909 
L 385.040062 -2.470909 
L 384.323575 -2.470909 
L 383.607088 -2.470909 
L 382.890601 -2.470909 
L 382.174114 -2.470909 
L 381.457627 -2.470909 
L 380.74114 -2.470909 
L 380.024653 -2.470909 
L 379.308166 -2.470909 
L 378.59168 -2.470909 
L 377.875193 -2.470909 
L 377.158706 -2.470909 
L 376.442219 -2.470909 
L 375.725732 -2.470909 
L 375.009245 -2.470909 
L 374.292758 -2.470909 
L 373.576271 -2.470909 
L 372.859784 -2.470909 
L 372.143297 -2.470909 
L 371.42681 -2.470909 
L 370.710324 -2.470909 
L 369.993837 -2.470909 
L 369.27735 -2.470909 
L 368.560863 -2.470909 
L 367.844376 -2.470909 
L 367.127889 -2.470909 
L 366.411402 -2.470909 
L 365.694915 -2.470909 
L 364.978428 -2.470909 
L 364.261941 -2.470909 
L 363.545455 -2.470909 
L 362.828968 -2.470909 
L 362.112481 -2.470909 
L 361.395994 -2.470909 
L 360.679507 -2.470909 
L 359.96302 -2.470909 
L 359.246533 -2.470909 
L 358.530046 -2.470909 
L 357.813559 -2.470909 
L 357.097072 -2.470909 
L 356.380586 -2.470909 
L 355.664099 -2.470909 
L 354.947612 -2.470909 
L 354.231125 -2.470909 
L 353.514638 -2.470909 
L 352.798151 -2.470909 
L 352.081664 -2.470909 
L 351.365177 -2.470909 
L 350.64869 -2.470909 
L 349.932203 -2.470909 
L 349.215716 -2.470909 
L 348.49923 -2.470909 
L 347.782743 -2.470909 
L 347.066256 -2.470909 
L 346.349769 -2.470909 
L 345.633282 -2.470909 
L 344.916795 -2.470909 
L 344.200308 -2.470909 
L 343.483821 -2.470909 
L 342.767334 -2.470909 
L 342.050847 -2.470909 
L 341.334361 -2.470909 
L 340.617874 -2.470909 
L 339.901387 -2.470909 
L 339.1849 -2.470909 
L 338.468413 -2.470909 
L 337.751926 -2.470909 
L 337.035439 -2.470909 
L 336.318952 -2.470909 
L 335.602465 -2.470909 
L 334.885978 -2.470909 
L 334.169492 -2.470909 
L 333.453005 -2.470909 
L 332.736518 -2.470909 
L 332.020031 -2.470909 
L 331.303544 -2.470909 
L 330.587057 -2.470909 
L 329.87057 -2.470909 
L 329.154083 -2.470909 
L 328.437596 -2.470909 
L 327.721109 -2.470909 
L 327.004622 -2.470909 
L 326.288136 -2.470909 
L 325.571649 -2.470909 
L 324.855162 -2.470909 
L 324.138675 -2.470909 
L 323.422188 -2.470909 
L 322.705701 -2.470909 
L 321.989214 -2.470909 
L 321.272727 -2.470909 
L 320.55624 -2.470909 
L 319.839753 -2.470909 
L 319.123267 -2.470909 
L 318.40678 -2.470909 
L 317.690293 -2.470909 
L 316.973806 -2.470909 
L 316.257319 -2.470909 
L 315.540832 -2.470909 
L 314.824345 -2.470909 
L 314.107858 -2.470909 
L 313.391371 -2.470909 
L 312.674884 -2.470909 
L 311.958398 -2.470909 
L 311.241911 -2.470909 
L 310.525424 -2.470909 
L 309.808937 -2.470909 
L 309.09245 -2.470909 
L 308.375963 -2.470909 
L 307.659476 -2.470909 
L 306.942989 -2.470909 
L 306.226502 -2.470909 
L 305.510015 -2.470909 
L 304.793529 -2.470909 
L 304.077042 -2.470909 
L 303.360555 -2.470909 
L 302.644068 -2.470909 
L 301.927581 -2.470909 
L 301.211094 -2.470909 
L 300.494607 -2.470909 
L 299.77812 -2.470909 
L 299.061633 -2.470909 
L 298.345146 -2.470909 
L 297.628659 -2.470909 
L 296.912173 -2.470909 
L 296.195686 -2.470909 
L 295.479199 -2.470909 
L 294.762712 -2.470909 
L 294.046225 -2.470909 
L 293.329738 -2.470909 
L 292.613251 -2.470909 
L 291.896764 -2.470909 
L 291.180277 -2.470909 
L 290.46379 -2.470909 
L 289.747304 -2.470909 
L 289.030817 -2.470909 
L 288.31433 -2.470909 
L 287.597843 -2.470909 
L 286.881356 -2.470909 
L 286.164869 -2.470909 
L 285.448382 -2.470909 
L 284.731895 -2.470909 
L 284.015408 -2.470909 
L 283.298921 -2.470909 
L 282.582435 -2.470909 
L 281.865948 -2.470909 
L 281.149461 -2.470909 
L 280.432974 -2.470909 
L 279.716487 -2.470909 
L 279 -2.470909 
L 278.283513 -2.470909 
L 277.567026 -2.470909 
L 276.850539 -2.470909 
L 276.134052 -2.470909 
L 275.417565 -2.470909 
L 274.701079 -2.470909 
L 273.984592 -2.470909 
L 273.268105 -2.470909 
L 272.551618 -2.470909 
L 271.835131 -2.470909 
L 271.118644 -2.470909 
L 270.402157 -2.470909 
L 269.68567 -2.470909 
L 268.969183 -2.470909 
L 268.252696 -2.470909 
L 267.53621 -2.470909 
L 266.819723 -2.470909 
L 266.103236 -2.470909 
L 265.386749 -2.470909 
L 264.670262 -2.470909 
L 263.953775 -2.470909 
L 263.237288 -2.470909 
L 262.520801 -2.470909 
L 261.804314 -2.470909 
L 261.087827 -2.470909 
L 260.371341 -2.470909 
L 259.654854 -2.470909 
L 258.938367 -2.470909 
L 258.22188 -2.470909 
L 257.505393 -2.470909 
L 256.788906 -2.470909 
L 256.072419 -2.470909 
L 255.355932 -2.470909 
L 254.639445 -2.470909 
L 253.922958 -2.470909 
L 253.206471 -2.470909 
L 252.489985 -2.470909 
L 251.773498 -2.470909 
L 251.057011 -2.470909 
L 250.340524 -2.470909 
L 249.624037 -2.470909 
L 248.90755 -2.470909 
L 248.191063 -2.470909 
L 247.474576 -2.470909 
L 246.758089 -2.470909 
L 246.041602 -2.470909 
L 245.325116 -2.470909 
L 244.608629 -2.470909 
L 243.892142 -2.470909 
L 243.175655 -2.470909 
L 242.459168 -2.470909 
L 241.742681 -2.470909 
L 241.026194 -2.470909 
L 240.309707 -2.470909 
L 239.59322 -2.470909 
L 238.876733 -2.470909 
L 238.160247 -2.470909 
L 237.44376 -2.470909 
L 236.727273 -2.470909 
L 236.010786 -2.470909 
L 235.294299 -2.470909 
L 234.577812 -2.470909 
L 233.861325 -2.470909 
L 233.144838 -2.470909 
L 232.428351 -2.470909 
L 231.711864 -2.470909 
L 230.995378 -2.470909 
L 230.278891 -2.470909 
L 229.562404 -2.470909 
L 228.845917 -2.470909 
L 228.12943 -2.470909 
L 227.412943 -2.470909 
L 226.696456 -2.470909 
L 225.979969 -2.470909 
L 225.263482 -2.470909 
L 224.546995 -2.470909 
L 223.830508 -2.470909 
L 223.114022 -2.470909 
L 222.397535 -2.470909 
L 221.681048 -2.470909 
L 220.964561 -2.470909 
L 220.248074 -2.470909 
L 219.531587 -2.470909 
L 218.8151 -2.470909 
L 218.098613 -2.470909 
L 217.382126 -2.470909 
L 216.665639 -2.470909 
L 215.949153 -2.470909 
L 215.232666 -2.470909 
L 214.516179 -2.470909 
L 213.799692 -2.470909 
L 213.083205 -2.470909 
L 212.366718 -2.470909 
L 211.650231 -2.470909 
L 210.933744 -2.470909 
L 210.217257 -2.470909 
L 209.50077 -2.470909 
L 208.784284 -2.470909 
L 208.067797 -2.470909 
L 207.35131 -2.470909 
L 206.634823 -2.470909 
L 205.918336 -2.470909 
L 205.201849 -2.470909 
L 204.485362 -2.470909 
L 203.768875 -2.470909 
L 203.052388 -2.470909 
L 202.335901 -2.470909 
L 201.619414 -2.470909 
L 200.902928 -2.470909 
L 200.186441 -2.470909 
L 199.469954 -2.470909 
L 198.753467 -2.470909 
L 198.03698 -2.470909 
L 197.320493 -2.470909 
L 196.604006 -2.470909 
L 195.887519 -2.470909 
L 195.171032 -2.470909 
L 194.454545 -2.470909 
L 193.738059 -2.470909 
L 193.021572 -2.470909 
L 192.305085 -2.470909 
L 191.588598 -2.470909 
L 190.872111 -2.470909 
L 190.155624 -2.470909 
L 189.439137 -2.470909 
z
" style="stroke: #116dc2; stroke-opacity: 0.2"/>
    </defs>
    <g clip-path="url(#pa795dc9273)">
     <use xlink:href="#m42a8385eb4" x="0" y="54.36" style="fill: #116dc2; fill-opacity: 0.2; stroke: #116dc2; stroke-opacity: 0.2"/>
    </g>
   </g>
   <g id="PolyCollection_3">
    <defs>
     <path id="m1c502bb396" d="M 25.363636 -2.470909 
L 25.363636 -4.154471 
L 26.080123 -4.632545 
L 26.79661 -5.26819 
L 27.513097 -6.022528 
L 28.229584 -6.861463 
L 28.946071 -7.76341 
L 29.662558 -8.713836 
L 30.379045 -9.72607 
L 31.095532 -10.85868 
L 31.812018 -12.179161 
L 32.528505 -13.698297 
L 33.244992 -15.360852 
L 33.961479 -17.121911 
L 34.677966 -19.008814 
L 35.394453 -21.07442 
L 36.11094 -23.321509 
L 36.827427 -25.717711 
L 37.543914 -28.24478 
L 38.260401 -30.870633 
L 38.976888 -33.483247 
L 39.693374 -35.898039 
L 40.409861 -37.964905 
L 41.126348 -39.692346 
L 41.842835 -41.261885 
L 42.559322 -42.896392 
L 43.275809 -44.691007 
L 43.992296 -46.539468 
L 44.708783 -48.213133 
L 45.42527 -49.538182 
L 46.141757 -50.501976 
L 46.858243 -51.187792 
L 47.57473 -51.655044 
L 48.291217 -51.889091 
L 49.007704 -51.792705 
L 49.724191 -51.217447 
L 50.440678 -50.080436 
L 51.157165 -48.478034 
L 51.873652 -46.649601 
L 52.590139 -44.791602 
L 53.306626 -42.888907 
L 54.023112 -40.755366 
L 54.739599 -38.267708 
L 55.456086 -35.52298 
L 56.172573 -32.757358 
L 56.88906 -30.179293 
L 57.605547 -27.87468 
L 58.322034 -25.7754 
L 59.038521 -23.71103 
L 59.755008 -21.571907 
L 60.471495 -19.442996 
L 61.187982 -17.536307 
L 61.904468 -15.980475 
L 62.620955 -14.703442 
L 63.337442 -13.516827 
L 64.053929 -12.27394 
L 64.770416 -10.951113 
L 65.486903 -9.631569 
L 66.20339 -8.426466 
L 66.919877 -7.387173 
L 67.636364 -6.490359 
L 68.352851 -5.702986 
L 69.069337 -5.028514 
L 69.069337 -2.470909 
L 69.069337 -2.470909 
L 68.352851 -2.470909 
L 67.636364 -2.470909 
L 66.919877 -2.470909 
L 66.20339 -2.470909 
L 65.486903 -2.470909 
L 64.770416 -2.470909 
L 64.053929 -2.470909 
L 63.337442 -2.470909 
L 62.620955 -2.470909 
L 61.904468 -2.470909 
L 61.187982 -2.470909 
L 60.471495 -2.470909 
L 59.755008 -2.470909 
L 59.038521 -2.470909 
L 58.322034 -2.470909 
L 57.605547 -2.470909 
L 56.88906 -2.470909 
L 56.172573 -2.470909 
L 55.456086 -2.470909 
L 54.739599 -2.470909 
L 54.023112 -2.470909 
L 53.306626 -2.470909 
L 52.590139 -2.470909 
L 51.873652 -2.470909 
L 51.157165 -2.470909 
L 50.440678 -2.470909 
L 49.724191 -2.470909 
L 49.007704 -2.470909 
L 48.291217 -2.470909 
L 47.57473 -2.470909 
L 46.858243 -2.470909 
L 46.141757 -2.470909 
L 45.42527 -2.470909 
L 44.708783 -2.470909 
L 43.992296 -2.470909 
L 43.275809 -2.470909 
L 42.559322 -2.470909 
L 41.842835 -2.470909 
L 41.126348 -2.470909 
L 40.409861 -2.470909 
L 39.693374 -2.470909 
L 38.976888 -2.470909 
L 38.260401 -2.470909 
L 37.543914 -2.470909 
L 36.827427 -2.470909 
L 36.11094 -2.470909 
L 35.394453 -2.470909 
L 34.677966 -2.470909 
L 33.961479 -2.470909 
L 33.244992 -2.470909 
L 32.528505 -2.470909 
L 31.812018 -2.470909 
L 31.095532 -2.470909 
L 30.379045 -2.470909 
L 29.662558 -2.470909 
L 28.946071 -2.470909 
L 28.229584 -2.470909 
L 27.513097 -2.470909 
L 26.79661 -2.470909 
L 26.080123 -2.470909 
L 25.363636 -2.470909 
z
" style="stroke: #8a8a8a; stroke-opacity: 0.2"/>
    </defs>
    <g clip-path="url(#pa795dc9273)">
     <use xlink:href="#m1c502bb396" x="0" y="54.36" style="fill: #8a8a8a; fill-opacity: 0.2; stroke: #8a8a8a; stroke-opacity: 0.2"/>
    </g>
   </g>
   <g id="line2d_1">
    <path d="M 311.241911 50.26263 
L 323.422188 48.997981 
L 327.721109 48.262158 
L 333.453005 46.999122 
L 349.215716 43.25964 
L 352.798151 42.013153 
L 356.380586 40.517143 
L 360.679507 38.46137 
L 366.411402 35.444346 
L 373.576271 31.638615 
L 377.875193 29.652063 
L 396.503852 21.825226 
L 407.967643 17.354054 
L 410.117103 16.75733 
L 412.266564 16.357063 
L 414.416025 16.169123 
L 417.281972 16.204946 
L 425.879815 16.690735 
L 429.46225 16.513067 
L 433.044684 16.338836 
L 435.194145 16.41448 
L 437.343606 16.719029 
L 439.493066 17.286875 
L 441.642527 18.108735 
L 444.508475 19.513478 
L 455.972265 25.631773 
L 463.137134 29.152054 
L 469.585516 32.404966 
L 473.167951 33.950398 
L 478.183359 35.825835 
L 484.631741 38.268016 
L 488.930663 40.155957 
L 496.812018 43.712419 
L 499.677966 44.732213 
L 502.543914 45.548108 
L 506.126348 46.345517 
L 511.141757 47.220887 
L 517.590139 48.11982 
L 532.636364 50.034307 
L 532.636364 50.034307 
" clip-path="url(#pa795dc9273)" style="fill: none; stroke: #cf1313; stroke-width: 1.5; stroke-linecap: square"/>
   </g>
   <g id="line2d_2">
    <path d="M 189.439137 49.922523 
L 195.887519 48.806259 
L 210.933744 45.835939 
L 214.516179 44.952242 
L 217.382126 44.038246 
L 220.248074 42.903304 
L 223.830508 41.218632 
L 236.010786 35.213662 
L 243.892142 31.559629 
L 248.90755 28.90635 
L 256.072419 25.111189 
L 265.386749 20.260866 
L 269.68567 18.083833 
L 272.551618 16.871724 
L 274.701079 16.172168 
L 276.850539 15.691899 
L 279 15.438902 
L 281.149461 15.391103 
L 284.015408 15.569295 
L 288.31433 16.12997 
L 294.046225 17.115681 
L 299.061633 18.17546 
L 303.360555 19.333505 
L 307.659476 20.767881 
L 311.958398 22.473808 
L 316.257319 24.439604 
L 322.705701 27.657263 
L 328.437596 30.75248 
L 334.885978 34.248686 
L 339.1849 36.270089 
L 347.782743 39.901499 
L 355.664099 43.136926 
L 359.96302 44.6751 
L 364.261941 45.996072 
L 369.27735 47.28888 
L 374.292758 48.353571 
L 380.024653 49.340452 
L 386.473035 50.212716 
L 388.622496 50.45625 
L 388.622496 50.45625 
" clip-path="url(#pa795dc9273)" style="fill: none; stroke: #116dc2; stroke-width: 1.5; stroke-linecap: square"/>
   </g>
   <g id="line2d_3">
    <path d="M 25.363636 50.205529 
L 26.080123 49.727455 
L 26.79661 49.09181 
L 27.513097 48.337472 
L 28.229584 47.498537 
L 28.946071 46.59659 
L 29.662558 45.646164 
L 30.379045 44.63393 
L 31.095532 43.50132 
L 31.812018 42.180839 
L 32.528505 40.661703 
L 33.244992 38.999148 
L 33.961479 37.238089 
L 34.677966 35.351186 
L 35.394453 33.28558 
L 36.11094 31.038491 
L 36.827427 28.642289 
L 37.543914 26.11522 
L 38.260401 23.489367 
L 38.976888 20.876753 
L 39.693374 18.461961 
L 40.409861 16.395095 
L 41.126348 14.667654 
L 41.842835 13.098115 
L 42.559322 11.463608 
L 43.275809 9.668993 
L 43.992296 7.820532 
L 44.708783 6.146867 
L 45.42527 4.821818 
L 46.141757 3.858024 
L 46.858243 3.172208 
L 47.57473 2.704956 
L 48.291217 2.470909 
L 49.007704 2.567295 
L 49.724191 3.142553 
L 50.440678 4.279564 
L 51.157165 5.881966 
L 51.873652 7.710399 
L 52.590139 9.568398 
L 53.306626 11.471093 
L 54.023112 13.604634 
L 54.739599 16.092292 
L 55.456086 18.83702 
L 56.172573 21.602642 
L 56.88906 24.180707 
L 57.605547 26.48532 
L 58.322034 28.5846 
L 59.038521 30.64897 
L 59.755008 32.788093 
L 60.471495 34.917004 
L 61.187982 36.823693 
L 61.904468 38.379525 
L 62.620955 39.656558 
L 63.337442 40.843173 
L 64.053929 42.08606 
L 64.770416 43.408887 
L 65.486903 44.728431 
L 66.20339 45.933534 
L 66.919877 46.972827 
L 67.636364 47.869641 
L 68.352851 48.657014 
L 69.069337 49.331486 
" clip-path="url(#pa795dc9273)" style="fill: none; stroke: #8a8a8a; stroke-width: 1.5; stroke-linecap: square"/>
   </g>
  </g>
 </g>
 <defs>
  <clipPath id="pa795dc9273">
   <rect x="0" y="-0" width="558" height="54.36"/>
  </clipPath>
 </defs>
</svg>
