<?xml version="1.0" encoding="utf-8" standalone="no"?>
<!DOCTYPE svg PUBLIC "-//W3C//DTD SVG 1.1//EN"
  "http://www.w3.org/Graphics/SVG/1.1/DTD/svg11.dtd">
<svg xmlns:xlink="http://www.w3.org/1999/xlink" width="558pt" height="54.36pt" viewBox="0 0 558 54.36" xmlns="http://www.w3.org/2000/svg" version="1.1">
 <metadata>
  <rdf:RDF xmlns:dc="http://purl.org/dc/elements/1.1/" xmlns:cc="http://creativecommons.org/ns#" xmlns:rdf="http://www.w3.org/1999/02/22-rdf-syntax-ns#">
   <cc:Work>
    <dc:type rdf:resource="http://purl.org/dc/dcmitype/StillImage"/>
    <dc:date>2024-09-15T09:30:51.168874</dc:date>
    <dc:format>image/svg+xml</dc:format>
    <dc:creator>
     <cc:Agent>
      <dc:title>Matplotlib v3.5.2, https://matplotlib.org/</dc:title>
     </cc:Agent>
    </dc:creator>
   </cc:Work>
  </rdf:RDF>
 </metadata>
 <defs>
  <style type="text/css">*{stroke-linejoin: round; stroke-linecap: butt}</style>
 </defs>
 <g id="figure_1">
  <g id="patch_1">
   <path d="M 0 54.36 
L 558 54.36 
L 558 0 
L 0 0 
L 0 54.36 
z
" style="fill: none; opacity: 0"/>
  </g>
  <g id="axes_1">
   <g id="PolyCollection_1">
    <defs>
     <path id="mead7ea7cce" d="M 353.92028 -2.470909 
L 353.92028 -3.802684 
L 354.700699 -3.864977 
L 355.481119 -3.932706 
L 356.261538 -4.006813 
L 357.041958 -4.088224 
L 357.822378 -4.177831 
L 358.602797 -4.276479 
L 359.383217 -4.38495 
L 360.163636 -4.503943 
L 360.944056 -4.634047 
L 361.724476 -4.77571 
L 362.504895 -4.929204 
L 363.285315 -5.094596 
L 364.065734 -5.271717 
L 364.846154 -5.460157 
L 365.626573 -5.659264 
L 366.406993 -5.868176 
L 367.187413 -6.085864 
L 367.967832 -6.311195 
L 368.748252 -6.543004 
L 369.528671 -6.780173 
L 370.309091 -7.021692 
L 371.08951 -7.266725 
L 371.86993 -7.514639 
L 372.65035 -7.765031 
L 373.430769 -8.01773 
L 374.211189 -8.272781 
L 374.991608 -8.530429 
L 375.772028 -8.791089 
L 376.552448 -9.055314 
L 377.332867 -9.323758 
L 378.113287 -9.59714 
L 378.893706 -9.876194 
L 379.674126 -10.161621 
L 380.454545 -10.454031 
L 381.234965 -10.753885 
L 382.015385 -11.061443 
L 382.795804 -11.376725 
L 383.576224 -11.699495 
L 384.356643 -12.02927 
L 385.137063 -12.365371 
L 385.917483 -12.707002 
L 386.697902 -13.053354 
L 387.478322 -13.403735 
L 388.258741 -13.757692 
L 389.039161 -14.115131 
L 389.81958 -14.476392 
L 390.6 -14.842292 
L 391.38042 -15.214106 
L 392.160839 -15.59349 
L 392.941259 -15.982352 
L 393.721678 -16.382668 
L 394.502098 -16.796277 
L 395.282517 -17.224654 
L 396.062937 -17.668694 
L 396.843357 -18.128538 
L 397.623776 -18.603439 
L 398.404196 -19.091712 
L 399.184615 -19.590761 
L 399.965035 -20.097196 
L 400.745455 -20.607038 
L 401.525874 -21.115992 
L 402.306294 -21.619772 
L 403.086713 -22.114444 
L 403.867133 -22.596752 
L 404.647552 -23.064401 
L 405.427972 -23.516244 
L 406.208392 -23.952373 
L 406.988811 -24.374072 
L 407.769231 -24.783652 
L 408.54965 -25.184179 
L 409.33007 -25.579106 
L 410.11049 -25.971881 
L 410.890909 -26.365548 
L 411.671329 -26.762404 
L 412.451748 -27.163751 
L 413.232168 -27.569778 
L 414.012587 -27.979569 
L 414.793007 -28.391258 
L 415.573427 -28.802294 
L 416.353846 -29.209781 
L 417.134266 -29.61086 
L 417.914685 -30.00307 
L 418.695105 -30.384649 
L 419.475524 -30.75475 
L 420.255944 -31.113529 
L 421.036364 -31.46212 
L 421.816783 -31.802498 
L 422.597203 -32.137253 
L 423.377622 -32.469307 
L 424.158042 -32.80162 
L 424.938462 -33.136906 
L 425.718881 -33.477399 
L 426.499301 -33.824686 
L 427.27972 -34.179611 
L 428.06014 -34.542252 
L 428.840559 -34.911956 
L 429.620979 -35.287418 
L 430.401399 -35.666786 
L 431.181818 -36.047763 
L 431.962238 -36.427718 
L 432.742657 -36.80377 
L 433.523077 -37.172873 
L 434.303497 -37.531894 
L 435.083916 -37.877684 
L 435.864336 -38.207176 
L 436.644755 -38.517484 
L 437.425175 -38.806021 
L 438.205594 -39.070628 
L 438.986014 -39.309692 
L 439.766434 -39.522247 
L 440.546853 -39.708041 
L 441.327273 -39.867544 
L 442.107692 -40.001911 
L 442.888112 -40.112874 
L 443.668531 -40.202588 
L 444.448951 -40.273438 
L 445.229371 -40.327822 
L 446.00979 -40.367949 
L 446.79021 -40.395648 
L 447.570629 -40.412233 
L 448.351049 -40.418417 
L 449.131469 -40.414287 
L 449.911888 -40.399332 
L 450.692308 -40.37252 
L 451.472727 -40.332407 
L 452.253147 -40.277255 
L 453.033566 -40.205161 
L 453.813986 -40.114166 
L 454.594406 -40.002355 
L 455.374825 -39.867937 
L 456.155245 -39.709305 
L 456.935664 -39.525091 
L 457.716084 -39.314208 
L 458.496503 -39.0759 
L 459.276923 -38.809777 
L 460.057343 -38.515863 
L 460.837762 -38.194625 
L 461.618182 -37.846997 
L 462.398601 -37.474381 
L 463.179021 -37.078611 
L 463.959441 -36.661897 
L 464.73986 -36.226726 
L 465.52028 -35.77574 
L 466.300699 -35.311594 
L 467.081119 -34.836815 
L 467.861538 -34.353676 
L 468.641958 -33.864096 
L 469.422378 -33.369594 
L 470.202797 -32.87128 
L 470.983217 -32.369897 
L 471.763636 -31.865896 
L 472.544056 -31.359534 
L 473.324476 -30.850962 
L 474.104895 -30.340304 
L 474.885315 -29.827702 
L 475.665734 -29.313331 
L 476.446154 -28.797381 
L 477.226573 -28.280032 
L 478.006993 -27.761421 
L 478.787413 -27.241633 
L 479.567832 -26.720712 
L 480.348252 -26.198708 
L 481.128671 -25.675748 
L 481.909091 -25.152114 
L 482.68951 -24.628316 
L 483.46993 -24.105132 
L 484.25035 -23.583608 
L 485.030769 -23.064994 
L 485.811189 -22.550646 
L 486.591608 -22.041872 
L 487.372028 -21.539778 
L 488.152448 -21.045118 
L 488.932867 -20.558175 
L 489.713287 -20.078712 
L 490.493706 -19.605978 
L 491.274126 -19.138786 
L 492.054545 -18.675654 
L 492.834965 -18.214966 
L 493.615385 -17.755163 
L 494.395804 -17.294913 
L 495.176224 -16.833246 
L 495.956643 -16.36965 
L 496.737063 -15.904117 
L 497.517483 -15.437134 
L 498.297902 -14.969645 
L 499.078322 -14.50299 
L 499.858741 -14.03882 
L 500.639161 -13.579024 
L 501.41958 -13.125648 
L 502.2 -12.680825 
L 502.98042 -12.2467 
L 503.760839 -11.825361 
L 504.541259 -11.418758 
L 505.321678 -11.028622 
L 506.102098 -10.65638 
L 506.882517 -10.303076 
L 507.662937 -9.969303 
L 508.443357 -9.65516 
L 509.223776 -9.360236 
L 510.004196 -9.083635 
L 510.784615 -8.824034 
L 511.565035 -8.579773 
L 512.345455 -8.348977 
L 513.125874 -8.129685 
L 513.906294 -7.919987 
L 514.686713 -7.718139 
L 515.467133 -7.522667 
L 516.247552 -7.332423 
L 517.027972 -7.146619 
L 517.808392 -6.964809 
L 518.588811 -6.786845 
L 519.369231 -6.612808 
L 520.14965 -6.442925 
L 520.93007 -6.277481 
L 521.71049 -6.116741 
L 522.490909 -5.960891 
L 523.271329 -5.81 
L 524.051748 -5.664007 
L 524.832168 -5.522724 
L 525.612587 -5.385864 
L 526.393007 -5.253071 
L 527.173427 -5.123962 
L 527.953846 -4.998157 
L 528.734266 -4.875314 
L 529.514685 -4.755149 
L 530.295105 -4.637455 
L 531.075524 -4.522105 
L 531.855944 -4.409058 
L 532.636364 -4.298358 
L 532.636364 -2.470909 
L 532.636364 -2.470909 
L 531.855944 -2.470909 
L 531.075524 -2.470909 
L 530.295105 -2.470909 
L 529.514685 -2.470909 
L 528.734266 -2.470909 
L 527.953846 -2.470909 
L 527.173427 -2.470909 
L 526.393007 -2.470909 
L 525.612587 -2.470909 
L 524.832168 -2.470909 
L 524.051748 -2.470909 
L 523.271329 -2.470909 
L 522.490909 -2.470909 
L 521.71049 -2.470909 
L 520.93007 -2.470909 
L 520.14965 -2.470909 
L 519.369231 -2.470909 
L 518.588811 -2.470909 
L 517.808392 -2.470909 
L 517.027972 -2.470909 
L 516.247552 -2.470909 
L 515.467133 -2.470909 
L 514.686713 -2.470909 
L 513.906294 -2.470909 
L 513.125874 -2.470909 
L 512.345455 -2.470909 
L 511.565035 -2.470909 
L 510.784615 -2.470909 
L 510.004196 -2.470909 
L 509.223776 -2.470909 
L 508.443357 -2.470909 
L 507.662937 -2.470909 
L 506.882517 -2.470909 
L 506.102098 -2.470909 
L 505.321678 -2.470909 
L 504.541259 -2.470909 
L 503.760839 -2.470909 
L 502.98042 -2.470909 
L 502.2 -2.470909 
L 501.41958 -2.470909 
L 500.639161 -2.470909 
L 499.858741 -2.470909 
L 499.078322 -2.470909 
L 498.297902 -2.470909 
L 497.517483 -2.470909 
L 496.737063 -2.470909 
L 495.956643 -2.470909 
L 495.176224 -2.470909 
L 494.395804 -2.470909 
L 493.615385 -2.470909 
L 492.834965 -2.470909 
L 492.054545 -2.470909 
L 491.274126 -2.470909 
L 490.493706 -2.470909 
L 489.713287 -2.470909 
L 488.932867 -2.470909 
L 488.152448 -2.470909 
L 487.372028 -2.470909 
L 486.591608 -2.470909 
L 485.811189 -2.470909 
L 485.030769 -2.470909 
L 484.25035 -2.470909 
L 483.46993 -2.470909 
L 482.68951 -2.470909 
L 481.909091 -2.470909 
L 481.128671 -2.470909 
L 480.348252 -2.470909 
L 479.567832 -2.470909 
L 478.787413 -2.470909 
L 478.006993 -2.470909 
L 477.226573 -2.470909 
L 476.446154 -2.470909 
L 475.665734 -2.470909 
L 474.885315 -2.470909 
L 474.104895 -2.470909 
L 473.324476 -2.470909 
L 472.544056 -2.470909 
L 471.763636 -2.470909 
L 470.983217 -2.470909 
L 470.202797 -2.470909 
L 469.422378 -2.470909 
L 468.641958 -2.470909 
L 467.861538 -2.470909 
L 467.081119 -2.470909 
L 466.300699 -2.470909 
L 465.52028 -2.470909 
L 464.73986 -2.470909 
L 463.959441 -2.470909 
L 463.179021 -2.470909 
L 462.398601 -2.470909 
L 461.618182 -2.470909 
L 460.837762 -2.470909 
L 460.057343 -2.470909 
L 459.276923 -2.470909 
L 458.496503 -2.470909 
L 457.716084 -2.470909 
L 456.935664 -2.470909 
L 456.155245 -2.470909 
L 455.374825 -2.470909 
L 454.594406 -2.470909 
L 453.813986 -2.470909 
L 453.033566 -2.470909 
L 452.253147 -2.470909 
L 451.472727 -2.470909 
L 450.692308 -2.470909 
L 449.911888 -2.470909 
L 449.131469 -2.470909 
L 448.351049 -2.470909 
L 447.570629 -2.470909 
L 446.79021 -2.470909 
L 446.00979 -2.470909 
L 445.229371 -2.470909 
L 444.448951 -2.470909 
L 443.668531 -2.470909 
L 442.888112 -2.470909 
L 442.107692 -2.470909 
L 441.327273 -2.470909 
L 440.546853 -2.470909 
L 439.766434 -2.470909 
L 438.986014 -2.470909 
L 438.205594 -2.470909 
L 437.425175 -2.470909 
L 436.644755 -2.470909 
L 435.864336 -2.470909 
L 435.083916 -2.470909 
L 434.303497 -2.470909 
L 433.523077 -2.470909 
L 432.742657 -2.470909 
L 431.962238 -2.470909 
L 431.181818 -2.470909 
L 430.401399 -2.470909 
L 429.620979 -2.470909 
L 428.840559 -2.470909 
L 428.06014 -2.470909 
L 427.27972 -2.470909 
L 426.499301 -2.470909 
L 425.718881 -2.470909 
L 424.938462 -2.470909 
L 424.158042 -2.470909 
L 423.377622 -2.470909 
L 422.597203 -2.470909 
L 421.816783 -2.470909 
L 421.036364 -2.470909 
L 420.255944 -2.470909 
L 419.475524 -2.470909 
L 418.695105 -2.470909 
L 417.914685 -2.470909 
L 417.134266 -2.470909 
L 416.353846 -2.470909 
L 415.573427 -2.470909 
L 414.793007 -2.470909 
L 414.012587 -2.470909 
L 413.232168 -2.470909 
L 412.451748 -2.470909 
L 411.671329 -2.470909 
L 410.890909 -2.470909 
L 410.11049 -2.470909 
L 409.33007 -2.470909 
L 408.54965 -2.470909 
L 407.769231 -2.470909 
L 406.988811 -2.470909 
L 406.208392 -2.470909 
L 405.427972 -2.470909 
L 404.647552 -2.470909 
L 403.867133 -2.470909 
L 403.086713 -2.470909 
L 402.306294 -2.470909 
L 401.525874 -2.470909 
L 400.745455 -2.470909 
L 399.965035 -2.470909 
L 399.184615 -2.470909 
L 398.404196 -2.470909 
L 397.623776 -2.470909 
L 396.843357 -2.470909 
L 396.062937 -2.470909 
L 395.282517 -2.470909 
L 394.502098 -2.470909 
L 393.721678 -2.470909 
L 392.941259 -2.470909 
L 392.160839 -2.470909 
L 391.38042 -2.470909 
L 390.6 -2.470909 
L 389.81958 -2.470909 
L 389.039161 -2.470909 
L 388.258741 -2.470909 
L 387.478322 -2.470909 
L 386.697902 -2.470909 
L 385.917483 -2.470909 
L 385.137063 -2.470909 
L 384.356643 -2.470909 
L 383.576224 -2.470909 
L 382.795804 -2.470909 
L 382.015385 -2.470909 
L 381.234965 -2.470909 
L 380.454545 -2.470909 
L 379.674126 -2.470909 
L 378.893706 -2.470909 
L 378.113287 -2.470909 
L 377.332867 -2.470909 
L 376.552448 -2.470909 
L 375.772028 -2.470909 
L 374.991608 -2.470909 
L 374.211189 -2.470909 
L 373.430769 -2.470909 
L 372.65035 -2.470909 
L 371.86993 -2.470909 
L 371.08951 -2.470909 
L 370.309091 -2.470909 
L 369.528671 -2.470909 
L 368.748252 -2.470909 
L 367.967832 -2.470909 
L 367.187413 -2.470909 
L 366.406993 -2.470909 
L 365.626573 -2.470909 
L 364.846154 -2.470909 
L 364.065734 -2.470909 
L 363.285315 -2.470909 
L 362.504895 -2.470909 
L 361.724476 -2.470909 
L 360.944056 -2.470909 
L 360.163636 -2.470909 
L 359.383217 -2.470909 
L 358.602797 -2.470909 
L 357.822378 -2.470909 
L 357.041958 -2.470909 
L 356.261538 -2.470909 
L 355.481119 -2.470909 
L 354.700699 -2.470909 
L 353.92028 -2.470909 
z
" style="stroke: #cf1313; stroke-opacity: 0.2"/>
    </defs>
    <g clip-path="url(#p4df9431341)">
     <use xlink:href="#mead7ea7cce" x="0" y="54.36" style="fill: #cf1313; fill-opacity: 0.2; stroke: #cf1313; stroke-opacity: 0.2"/>
    </g>
   </g>
   <g id="PolyCollection_2">
    <defs>
     <path id="mfd4e857af0" d="M 224.370629 -2.470909 
L 224.370629 -3.847207 
L 225.151049 -3.908951 
L 225.931469 -3.976316 
L 226.711888 -4.050366 
L 227.492308 -4.132002 
L 228.272727 -4.221988 
L 229.053147 -4.321 
L 229.833566 -4.429679 
L 230.613986 -4.548683 
L 231.394406 -4.678708 
L 232.174825 -4.820482 
L 232.955245 -4.974714 
L 233.735664 -5.142017 
L 234.516084 -5.322818 
L 235.296503 -5.517259 
L 236.076923 -5.725113 
L 236.857343 -5.945734 
L 237.637762 -6.178046 
L 238.418182 -6.420558 
L 239.198601 -6.671441 
L 239.979021 -6.928613 
L 240.759441 -7.189871 
L 241.53986 -7.45302 
L 242.32028 -7.716027 
L 243.100699 -7.977165 
L 243.881119 -8.235149 
L 244.661538 -8.489259 
L 245.441958 -8.739431 
L 246.222378 -8.986305 
L 247.002797 -9.231237 
L 247.783217 -9.476256 
L 248.563636 -9.723979 
L 249.344056 -9.977492 
L 250.124476 -10.240195 
L 250.904895 -10.515638 
L 251.685315 -10.807349 
L 252.465734 -11.118652 
L 253.246154 -11.452494 
L 254.026573 -11.811266 
L 254.806993 -12.196635 
L 255.587413 -12.609391 
L 256.367832 -13.049323 
L 257.148252 -13.515149 
L 257.928671 -14.004515 
L 258.709091 -14.514085 
L 259.48951 -15.039721 
L 260.26993 -15.576751 
L 261.05035 -16.120303 
L 261.830769 -16.665669 
L 262.611189 -17.20865 
L 263.391608 -17.74585 
L 264.172028 -18.274879 
L 264.952448 -18.794422 
L 265.732867 -19.304202 
L 266.513287 -19.80482 
L 267.293706 -20.297518 
L 268.074126 -20.783895 
L 268.854545 -21.265632 
L 269.634965 -21.744247 
L 270.415385 -22.220913 
L 271.195804 -22.696353 
L 271.976224 -23.170789 
L 272.756643 -23.64396 
L 273.537063 -24.115168 
L 274.317483 -24.583362 
L 275.097902 -25.047253 
L 275.878322 -25.505462 
L 276.658741 -25.95672 
L 277.439161 -26.400118 
L 278.21958 -26.835388 
L 279 -27.263205 
L 279.78042 -27.685442 
L 280.560839 -28.105333 
L 281.341259 -28.527491 
L 282.121678 -28.957727 
L 282.902098 -29.402665 
L 283.682517 -29.869168 
L 284.462937 -30.363631 
L 285.243357 -30.891218 
L 286.023776 -31.455155 
L 286.804196 -32.056153 
L 287.584615 -32.692074 
L 288.365035 -33.357859 
L 289.145455 -34.045759 
L 289.925874 -34.745823 
L 290.706294 -35.44659 
L 291.486713 -36.135906 
L 292.267133 -36.801762 
L 293.047552 -37.433077 
L 293.827972 -38.020363 
L 294.608392 -38.556219 
L 295.388811 -39.035645 
L 296.169231 -39.456181 
L 296.94965 -39.817876 
L 297.73007 -40.123121 
L 298.51049 -40.376342 
L 299.290909 -40.583577 
L 300.071329 -40.751951 
L 300.851748 -40.889049 
L 301.632168 -41.002249 
L 302.412587 -41.098048 
L 303.193007 -41.181468 
L 303.973427 -41.255617 
L 304.753846 -41.321475 
L 305.534266 -41.37796 
L 306.314685 -41.422274 
L 307.095105 -41.450488 
L 307.875524 -41.458268 
L 308.655944 -41.441638 
L 309.436364 -41.397632 
L 310.216783 -41.324738 
L 310.997203 -41.223048 
L 311.777622 -41.094123 
L 312.558042 -40.940588 
L 313.338462 -40.765574 
L 314.118881 -40.572099 
L 314.899301 -40.362515 
L 315.67972 -40.13811 
L 316.46014 -39.898906 
L 317.240559 -39.643664 
L 318.020979 -39.370068 
L 318.801399 -39.075027 
L 319.581818 -38.755038 
L 320.362238 -38.406563 
L 321.142657 -38.026382 
L 321.923077 -37.611906 
L 322.703497 -37.16145 
L 323.483916 -36.674445 
L 324.264336 -36.151587 
L 325.044755 -35.594909 
L 325.825175 -35.007744 
L 326.605594 -34.394582 
L 327.386014 -33.76081 
L 328.166434 -33.112363 
L 328.946853 -32.455336 
L 329.727273 -31.795588 
L 330.507692 -31.138417 
L 331.288112 -30.488324 
L 332.068531 -29.848896 
L 332.848951 -29.222801 
L 333.629371 -28.611856 
L 334.40979 -28.017142 
L 335.19021 -27.439117 
L 335.970629 -26.877702 
L 336.751049 -26.332321 
L 337.531469 -25.801918 
L 338.311888 -25.284961 
L 339.092308 -24.77946 
L 339.872727 -24.28304 
L 340.653147 -23.793055 
L 341.433566 -23.306765 
L 342.213986 -22.821534 
L 342.994406 -22.335034 
L 343.774825 -21.845413 
L 344.555245 -21.351411 
L 345.335664 -20.852395 
L 346.116084 -20.348343 
L 346.896503 -19.83976 
L 347.676923 -19.327584 
L 348.457343 -18.81309 
L 349.237762 -18.297809 
L 350.018182 -17.783491 
L 350.798601 -17.272081 
L 351.579021 -16.765707 
L 352.359441 -16.266644 
L 353.13986 -15.777238 
L 353.92028 -15.299772 
L 354.700699 -14.836279 
L 355.481119 -14.388329 
L 356.261538 -13.956816 
L 357.041958 -13.541808 
L 357.822378 -13.14248 
L 358.602797 -12.757186 
L 359.383217 -12.383643 
L 360.163636 -12.019234 
L 360.944056 -11.661359 
L 361.724476 -11.30779 
L 362.504895 -10.956949 
L 363.285315 -10.608084 
L 364.065734 -10.261277 
L 364.846154 -9.917331 
L 365.626573 -9.577536 
L 366.406993 -9.243378 
L 367.187413 -8.916264 
L 367.967832 -8.597303 
L 368.748252 -8.287196 
L 369.528671 -7.986234 
L 370.309091 -7.694409 
L 371.08951 -7.411589 
L 371.86993 -7.137712 
L 372.65035 -6.872958 
L 373.430769 -6.617855 
L 374.211189 -6.3733 
L 374.991608 -6.140493 
L 375.772028 -5.920792 
L 376.552448 -5.715538 
L 377.332867 -5.525854 
L 378.113287 -5.35248 
L 378.893706 -5.195646 
L 379.674126 -5.055011 
L 380.454545 -4.929666 
L 381.234965 -4.818191 
L 382.015385 -4.718757 
L 382.795804 -4.629252 
L 383.576224 -4.54742 
L 384.356643 -4.470984 
L 385.137063 -4.397767 
L 385.917483 -4.325784 
L 386.697902 -4.253324 
L 387.478322 -4.179006 
L 388.258741 -4.101823 
L 388.258741 -2.470909 
L 388.258741 -2.470909 
L 387.478322 -2.470909 
L 386.697902 -2.470909 
L 385.917483 -2.470909 
L 385.137063 -2.470909 
L 384.356643 -2.470909 
L 383.576224 -2.470909 
L 382.795804 -2.470909 
L 382.015385 -2.470909 
L 381.234965 -2.470909 
L 380.454545 -2.470909 
L 379.674126 -2.470909 
L 378.893706 -2.470909 
L 378.113287 -2.470909 
L 377.332867 -2.470909 
L 376.552448 -2.470909 
L 375.772028 -2.470909 
L 374.991608 -2.470909 
L 374.211189 -2.470909 
L 373.430769 -2.470909 
L 372.65035 -2.470909 
L 371.86993 -2.470909 
L 371.08951 -2.470909 
L 370.309091 -2.470909 
L 369.528671 -2.470909 
L 368.748252 -2.470909 
L 367.967832 -2.470909 
L 367.187413 -2.470909 
L 366.406993 -2.470909 
L 365.626573 -2.470909 
L 364.846154 -2.470909 
L 364.065734 -2.470909 
L 363.285315 -2.470909 
L 362.504895 -2.470909 
L 361.724476 -2.470909 
L 360.944056 -2.470909 
L 360.163636 -2.470909 
L 359.383217 -2.470909 
L 358.602797 -2.470909 
L 357.822378 -2.470909 
L 357.041958 -2.470909 
L 356.261538 -2.470909 
L 355.481119 -2.470909 
L 354.700699 -2.470909 
L 353.92028 -2.470909 
L 353.13986 -2.470909 
L 352.359441 -2.470909 
L 351.579021 -2.470909 
L 350.798601 -2.470909 
L 350.018182 -2.470909 
L 349.237762 -2.470909 
L 348.457343 -2.470909 
L 347.676923 -2.470909 
L 346.896503 -2.470909 
L 346.116084 -2.470909 
L 345.335664 -2.470909 
L 344.555245 -2.470909 
L 343.774825 -2.470909 
L 342.994406 -2.470909 
L 342.213986 -2.470909 
L 341.433566 -2.470909 
L 340.653147 -2.470909 
L 339.872727 -2.470909 
L 339.092308 -2.470909 
L 338.311888 -2.470909 
L 337.531469 -2.470909 
L 336.751049 -2.470909 
L 335.970629 -2.470909 
L 335.19021 -2.470909 
L 334.40979 -2.470909 
L 333.629371 -2.470909 
L 332.848951 -2.470909 
L 332.068531 -2.470909 
L 331.288112 -2.470909 
L 330.507692 -2.470909 
L 329.727273 -2.470909 
L 328.946853 -2.470909 
L 328.166434 -2.470909 
L 327.386014 -2.470909 
L 326.605594 -2.470909 
L 325.825175 -2.470909 
L 325.044755 -2.470909 
L 324.264336 -2.470909 
L 323.483916 -2.470909 
L 322.703497 -2.470909 
L 321.923077 -2.470909 
L 321.142657 -2.470909 
L 320.362238 -2.470909 
L 319.581818 -2.470909 
L 318.801399 -2.470909 
L 318.020979 -2.470909 
L 317.240559 -2.470909 
L 316.46014 -2.470909 
L 315.67972 -2.470909 
L 314.899301 -2.470909 
L 314.118881 -2.470909 
L 313.338462 -2.470909 
L 312.558042 -2.470909 
L 311.777622 -2.470909 
L 310.997203 -2.470909 
L 310.216783 -2.470909 
L 309.436364 -2.470909 
L 308.655944 -2.470909 
L 307.875524 -2.470909 
L 307.095105 -2.470909 
L 306.314685 -2.470909 
L 305.534266 -2.470909 
L 304.753846 -2.470909 
L 303.973427 -2.470909 
L 303.193007 -2.470909 
L 302.412587 -2.470909 
L 301.632168 -2.470909 
L 300.851748 -2.470909 
L 300.071329 -2.470909 
L 299.290909 -2.470909 
L 298.51049 -2.470909 
L 297.73007 -2.470909 
L 296.94965 -2.470909 
L 296.169231 -2.470909 
L 295.388811 -2.470909 
L 294.608392 -2.470909 
L 293.827972 -2.470909 
L 293.047552 -2.470909 
L 292.267133 -2.470909 
L 291.486713 -2.470909 
L 290.706294 -2.470909 
L 289.925874 -2.470909 
L 289.145455 -2.470909 
L 288.365035 -2.470909 
L 287.584615 -2.470909 
L 286.804196 -2.470909 
L 286.023776 -2.470909 
L 285.243357 -2.470909 
L 284.462937 -2.470909 
L 283.682517 -2.470909 
L 282.902098 -2.470909 
L 282.121678 -2.470909 
L 281.341259 -2.470909 
L 280.560839 -2.470909 
L 279.78042 -2.470909 
L 279 -2.470909 
L 278.21958 -2.470909 
L 277.439161 -2.470909 
L 276.658741 -2.470909 
L 275.878322 -2.470909 
L 275.097902 -2.470909 
L 274.317483 -2.470909 
L 273.537063 -2.470909 
L 272.756643 -2.470909 
L 271.976224 -2.470909 
L 271.195804 -2.470909 
L 270.415385 -2.470909 
L 269.634965 -2.470909 
L 268.854545 -2.470909 
L 268.074126 -2.470909 
L 267.293706 -2.470909 
L 266.513287 -2.470909 
L 265.732867 -2.470909 
L 264.952448 -2.470909 
L 264.172028 -2.470909 
L 263.391608 -2.470909 
L 262.611189 -2.470909 
L 261.830769 -2.470909 
L 261.05035 -2.470909 
L 260.26993 -2.470909 
L 259.48951 -2.470909 
L 258.709091 -2.470909 
L 257.928671 -2.470909 
L 257.148252 -2.470909 
L 256.367832 -2.470909 
L 255.587413 -2.470909 
L 254.806993 -2.470909 
L 254.026573 -2.470909 
L 253.246154 -2.470909 
L 252.465734 -2.470909 
L 251.685315 -2.470909 
L 250.904895 -2.470909 
L 250.124476 -2.470909 
L 249.344056 -2.470909 
L 248.563636 -2.470909 
L 247.783217 -2.470909 
L 247.002797 -2.470909 
L 246.222378 -2.470909 
L 245.441958 -2.470909 
L 244.661538 -2.470909 
L 243.881119 -2.470909 
L 243.100699 -2.470909 
L 242.32028 -2.470909 
L 241.53986 -2.470909 
L 240.759441 -2.470909 
L 239.979021 -2.470909 
L 239.198601 -2.470909 
L 238.418182 -2.470909 
L 237.637762 -2.470909 
L 236.857343 -2.470909 
L 236.076923 -2.470909 
L 235.296503 -2.470909 
L 234.516084 -2.470909 
L 233.735664 -2.470909 
L 232.955245 -2.470909 
L 232.174825 -2.470909 
L 231.394406 -2.470909 
L 230.613986 -2.470909 
L 229.833566 -2.470909 
L 229.053147 -2.470909 
L 228.272727 -2.470909 
L 227.492308 -2.470909 
L 226.711888 -2.470909 
L 225.931469 -2.470909 
L 225.151049 -2.470909 
L 224.370629 -2.470909 
z
" style="stroke: #116dc2; stroke-opacity: 0.2"/>
    </defs>
    <g clip-path="url(#p4df9431341)">
     <use xlink:href="#mfd4e857af0" x="0" y="54.36" style="fill: #116dc2; fill-opacity: 0.2; stroke: #116dc2; stroke-opacity: 0.2"/>
    </g>
   </g>
   <g id="PolyCollection_3">
    <defs>
     <path id="maba0a33e05" d="M 25.363636 -2.470909 
L 25.363636 -4.726928 
L 26.144056 -5.303616 
L 26.924476 -5.959782 
L 27.704895 -6.648255 
L 28.485315 -7.354943 
L 29.265734 -8.140063 
L 30.046154 -9.099337 
L 30.826573 -10.279864 
L 31.606993 -11.642611 
L 32.387413 -13.115473 
L 33.167832 -14.676174 
L 33.948252 -16.361206 
L 34.728671 -18.194616 
L 35.509091 -20.152072 
L 36.28951 -22.216359 
L 37.06993 -24.422133 
L 37.85035 -26.801441 
L 38.630769 -29.303949 
L 39.411189 -31.8079 
L 40.191608 -34.19726 
L 40.972028 -36.395143 
L 41.752448 -38.356324 
L 42.532867 -40.105039 
L 43.313287 -41.769855 
L 44.093706 -43.490904 
L 44.874126 -45.276102 
L 45.654545 -47.001379 
L 46.434965 -48.537654 
L 47.215385 -49.829583 
L 47.995804 -50.866903 
L 48.776224 -51.601208 
L 49.556643 -51.889091 
L 50.337063 -51.560709 
L 51.117483 -50.594964 
L 51.897902 -49.196107 
L 52.678322 -47.634865 
L 53.458741 -46.04005 
L 54.239161 -44.416476 
L 55.01958 -42.792363 
L 55.8 -41.193393 
L 56.58042 -39.516258 
L 57.360839 -37.585732 
L 58.141259 -35.321685 
L 58.921678 -32.778622 
L 59.702098 -30.086592 
L 60.482517 -27.413657 
L 61.262937 -24.928343 
L 62.043357 -22.730057 
L 62.823776 -20.798829 
L 63.604196 -19.010254 
L 64.384615 -17.217287 
L 65.165035 -15.372252 
L 65.945455 -13.595679 
L 66.725874 -12.081822 
L 67.506294 -10.907835 
L 68.286713 -9.968088 
L 69.067133 -9.095191 
L 69.847552 -8.195069 
L 70.627972 -7.270066 
L 71.408392 -6.373947 
L 72.188811 -5.566958 
L 72.969231 -4.888783 
L 72.969231 -2.470909 
L 72.969231 -2.470909 
L 72.188811 -2.470909 
L 71.408392 -2.470909 
L 70.627972 -2.470909 
L 69.847552 -2.470909 
L 69.067133 -2.470909 
L 68.286713 -2.470909 
L 67.506294 -2.470909 
L 66.725874 -2.470909 
L 65.945455 -2.470909 
L 65.165035 -2.470909 
L 64.384615 -2.470909 
L 63.604196 -2.470909 
L 62.823776 -2.470909 
L 62.043357 -2.470909 
L 61.262937 -2.470909 
L 60.482517 -2.470909 
L 59.702098 -2.470909 
L 58.921678 -2.470909 
L 58.141259 -2.470909 
L 57.360839 -2.470909 
L 56.58042 -2.470909 
L 55.8 -2.470909 
L 55.01958 -2.470909 
L 54.239161 -2.470909 
L 53.458741 -2.470909 
L 52.678322 -2.470909 
L 51.897902 -2.470909 
L 51.117483 -2.470909 
L 50.337063 -2.470909 
L 49.556643 -2.470909 
L 48.776224 -2.470909 
L 47.995804 -2.470909 
L 47.215385 -2.470909 
L 46.434965 -2.470909 
L 45.654545 -2.470909 
L 44.874126 -2.470909 
L 44.093706 -2.470909 
L 43.313287 -2.470909 
L 42.532867 -2.470909 
L 41.752448 -2.470909 
L 40.972028 -2.470909 
L 40.191608 -2.470909 
L 39.411189 -2.470909 
L 38.630769 -2.470909 
L 37.85035 -2.470909 
L 37.06993 -2.470909 
L 36.28951 -2.470909 
L 35.509091 -2.470909 
L 34.728671 -2.470909 
L 33.948252 -2.470909 
L 33.167832 -2.470909 
L 32.387413 -2.470909 
L 31.606993 -2.470909 
L 30.826573 -2.470909 
L 30.046154 -2.470909 
L 29.265734 -2.470909 
L 28.485315 -2.470909 
L 27.704895 -2.470909 
L 26.924476 -2.470909 
L 26.144056 -2.470909 
L 25.363636 -2.470909 
z
" style="stroke: #8a8a8a; stroke-opacity: 0.2"/>
    </defs>
    <g clip-path="url(#p4df9431341)">
     <use xlink:href="#maba0a33e05" x="0" y="54.36" style="fill: #8a8a8a; fill-opacity: 0.2; stroke: #8a8a8a; stroke-opacity: 0.2"/>
    </g>
   </g>
   <g id="line2d_1">
    <path d="M 353.92028 50.557316 
L 358.602797 50.083521 
L 362.504895 49.430796 
L 366.406993 48.491824 
L 371.08951 47.093275 
L 378.113287 44.76286 
L 382.795804 42.983275 
L 387.478322 40.956265 
L 392.941259 38.377648 
L 396.062937 36.691306 
L 399.184615 34.769239 
L 405.427972 30.843756 
L 409.33007 28.780894 
L 422.597203 22.222747 
L 428.840559 19.448044 
L 435.864336 16.152824 
L 438.205594 15.289372 
L 440.546853 14.651959 
L 442.888112 14.247126 
L 446.00979 13.992051 
L 449.911888 13.960668 
L 453.033566 14.154839 
L 455.374825 14.492063 
L 457.716084 15.045792 
L 460.057343 15.844137 
L 462.398601 16.885619 
L 465.52028 18.58426 
L 470.202797 21.48872 
L 478.787413 27.118367 
L 489.713287 34.281288 
L 500.639161 40.780976 
L 504.541259 42.941242 
L 507.662937 44.390697 
L 510.784615 45.535966 
L 514.686713 46.641861 
L 520.14965 47.917075 
L 525.612587 48.974136 
L 532.636364 50.061642 
L 532.636364 50.061642 
" clip-path="url(#p4df9431341)" style="fill: none; stroke: #cf1313; stroke-width: 1.5; stroke-linecap: square"/>
   </g>
   <g id="line2d_2">
    <path d="M 224.370629 50.512793 
L 229.053147 50.039 
L 232.955245 49.385286 
L 236.076923 48.634887 
L 239.979021 47.431387 
L 253.246154 42.907506 
L 255.587413 41.750609 
L 257.928671 40.355485 
L 261.830769 37.694331 
L 266.513287 34.55518 
L 273.537063 30.244832 
L 279 27.096795 
L 283.682517 24.490832 
L 286.023776 22.904845 
L 288.365035 21.002141 
L 293.047552 16.926923 
L 294.608392 15.803781 
L 296.169231 14.903819 
L 297.73007 14.236879 
L 299.290909 13.776423 
L 301.632168 13.357751 
L 305.534266 12.98204 
L 307.875524 12.901732 
L 310.216783 13.035262 
L 312.558042 13.419412 
L 315.67972 14.22189 
L 318.801399 15.284973 
L 321.142657 16.333618 
L 323.483916 17.685555 
L 325.825175 19.352256 
L 328.946853 21.904664 
L 333.629371 25.748144 
L 336.751049 28.027679 
L 340.653147 30.566945 
L 348.457343 35.54691 
L 353.92028 39.060228 
L 357.041958 40.818192 
L 360.944056 42.698641 
L 367.967832 45.762697 
L 371.86993 47.222288 
L 375.772028 48.439208 
L 378.893706 49.164354 
L 382.015385 49.641243 
L 388.258741 50.258177 
L 388.258741 50.258177 
" clip-path="url(#p4df9431341)" style="fill: none; stroke: #116dc2; stroke-width: 1.5; stroke-linecap: square"/>
   </g>
   <g id="line2d_3">
    <path d="M 25.363636 49.633072 
L 26.144056 49.056384 
L 26.924476 48.400218 
L 27.704895 47.711745 
L 28.485315 47.005057 
L 29.265734 46.219937 
L 30.046154 45.260663 
L 30.826573 44.080136 
L 31.606993 42.717389 
L 32.387413 41.244527 
L 33.167832 39.683826 
L 33.948252 37.998794 
L 34.728671 36.165384 
L 35.509091 34.207928 
L 36.28951 32.143641 
L 37.06993 29.937867 
L 37.85035 27.558559 
L 38.630769 25.056051 
L 39.411189 22.5521 
L 40.191608 20.16274 
L 40.972028 17.964857 
L 41.752448 16.003676 
L 42.532867 14.254961 
L 43.313287 12.590145 
L 44.093706 10.869096 
L 44.874126 9.083898 
L 45.654545 7.358621 
L 46.434965 5.822346 
L 47.215385 4.530417 
L 47.995804 3.493097 
L 48.776224 2.758792 
L 49.556643 2.470909 
L 50.337063 2.799291 
L 51.117483 3.765036 
L 51.897902 5.163893 
L 52.678322 6.725135 
L 53.458741 8.31995 
L 54.239161 9.943524 
L 55.01958 11.567637 
L 55.8 13.166607 
L 56.58042 14.843742 
L 57.360839 16.774268 
L 58.141259 19.038315 
L 58.921678 21.581378 
L 59.702098 24.273408 
L 60.482517 26.946343 
L 61.262937 29.431657 
L 62.043357 31.629943 
L 62.823776 33.561171 
L 63.604196 35.349746 
L 64.384615 37.142713 
L 65.165035 38.987748 
L 65.945455 40.764321 
L 66.725874 42.278178 
L 67.506294 43.452165 
L 68.286713 44.391912 
L 69.067133 45.264809 
L 69.847552 46.164931 
L 70.627972 47.089934 
L 71.408392 47.986053 
L 72.188811 48.793042 
L 72.969231 49.471217 
" clip-path="url(#p4df9431341)" style="fill: none; stroke: #8a8a8a; stroke-width: 1.5; stroke-linecap: square"/>
   </g>
  </g>
 </g>
 <defs>
  <clipPath id="p4df9431341">
   <rect x="0" y="-0" width="558" height="54.36"/>
  </clipPath>
 </defs>
</svg>
