<?xml version="1.0" encoding="utf-8" standalone="no"?>
<!DOCTYPE svg PUBLIC "-//W3C//DTD SVG 1.1//EN"
  "http://www.w3.org/Graphics/SVG/1.1/DTD/svg11.dtd">
<svg xmlns:xlink="http://www.w3.org/1999/xlink" width="558pt" height="54.36pt" viewBox="0 0 558 54.36" xmlns="http://www.w3.org/2000/svg" version="1.1">
 <metadata>
  <rdf:RDF xmlns:dc="http://purl.org/dc/elements/1.1/" xmlns:cc="http://creativecommons.org/ns#" xmlns:rdf="http://www.w3.org/1999/02/22-rdf-syntax-ns#">
   <cc:Work>
    <dc:type rdf:resource="http://purl.org/dc/dcmitype/StillImage"/>
    <dc:date>2024-09-14T12:47:00.052263</dc:date>
    <dc:format>image/svg+xml</dc:format>
    <dc:creator>
     <cc:Agent>
      <dc:title>Matplotlib v3.5.2, https://matplotlib.org/</dc:title>
     </cc:Agent>
    </dc:creator>
   </cc:Work>
  </rdf:RDF>
 </metadata>
 <defs>
  <style type="text/css">*{stroke-linejoin: round; stroke-linecap: butt}</style>
 </defs>
 <g id="figure_1">
  <g id="patch_1">
   <path d="M 0 54.36 
L 558 54.36 
L 558 0 
L 0 0 
L 0 54.36 
z
" style="fill: none; opacity: 0"/>
  </g>
  <g id="axes_1">
   <g id="PolyCollection_1">
    <defs>
     <path id="m9e4a20783b" d="M 354.008315 -2.470909 
L 354.008315 -4.204734 
L 354.781596 -4.31472 
L 355.554878 -4.432287 
L 356.32816 -4.557908 
L 357.101441 -4.691987 
L 357.874723 -4.834799 
L 358.648004 -4.986425 
L 359.421286 -5.146691 
L 360.194568 -5.315129 
L 360.967849 -5.490952 
L 361.741131 -5.67307 
L 362.514412 -5.860139 
L 363.287694 -6.050642 
L 364.060976 -6.24301 
L 364.834257 -6.435755 
L 365.607539 -6.627621 
L 366.38082 -6.817724 
L 367.154102 -7.00567 
L 367.927384 -7.191634 
L 368.700665 -7.376399 
L 369.473947 -7.561323 
L 370.247228 -7.748269 
L 371.02051 -7.939468 
L 371.793792 -8.137352 
L 372.567073 -8.344362 
L 373.340355 -8.56275 
L 374.113636 -8.794398 
L 374.886918 -9.040673 
L 375.6602 -9.302336 
L 376.433481 -9.579506 
L 377.206763 -9.871691 
L 377.980044 -10.177884 
L 378.753326 -10.496707 
L 379.526608 -10.826594 
L 380.299889 -11.165988 
L 381.073171 -11.513536 
L 381.846452 -11.868258 
L 382.619734 -12.229666 
L 383.393016 -12.597817 
L 384.166297 -12.973301 
L 384.939579 -13.357147 
L 385.71286 -13.750666 
L 386.486142 -14.155243 
L 387.259424 -14.572101 
L 388.032705 -15.002074 
L 388.805987 -15.445409 
L 389.579268 -15.901634 
L 390.35255 -16.369508 
L 391.125831 -16.847075 
L 391.899113 -17.331798 
L 392.672395 -17.820781 
L 393.445676 -18.311031 
L 394.218958 -18.799753 
L 394.992239 -19.284605 
L 395.765521 -19.763919 
L 396.538803 -20.236833 
L 397.312084 -20.703343 
L 398.085366 -21.164259 
L 398.858647 -21.621078 
L 399.631929 -22.075805 
L 400.405211 -22.530724 
L 401.178492 -22.988171 
L 401.951774 -23.450303 
L 402.725055 -23.918905 
L 403.498337 -24.395233 
L 404.271619 -24.87991 
L 405.0449 -25.37287 
L 405.818182 -25.873351 
L 406.591463 -26.379947 
L 407.364745 -26.890693 
L 408.138027 -27.403196 
L 408.911308 -27.914804 
L 409.68459 -28.422783 
L 410.457871 -28.924518 
L 411.231153 -29.417696 
L 412.004435 -29.900468 
L 412.777716 -30.371565 
L 413.550998 -30.83036 
L 414.324279 -31.276856 
L 415.097561 -31.711606 
L 415.870843 -32.135569 
L 416.644124 -32.549914 
L 417.417406 -32.955808 
L 418.190687 -33.354195 
L 418.963969 -33.74562 
L 419.737251 -34.130107 
L 420.510532 -34.507112 
L 421.283814 -34.875573 
L 422.057095 -35.234028 
L 422.830377 -35.580815 
L 423.603659 -35.914291 
L 424.37694 -36.23307 
L 425.150222 -36.536215 
L 425.923503 -36.823366 
L 426.696785 -37.094782 
L 427.470067 -37.351276 
L 428.243348 -37.594067 
L 429.01663 -37.824559 
L 429.789911 -38.044095 
L 430.563193 -38.253722 
L 431.336475 -38.454016 
L 432.109756 -38.644995 
L 432.883038 -38.826138 
L 433.656319 -38.996504 
L 434.429601 -39.15494 
L 435.202882 -39.30032 
L 435.976164 -39.43178 
L 436.749446 -39.548903 
L 437.522727 -39.651807 
L 438.296009 -39.741119 
L 439.06929 -39.81785 
L 439.842572 -39.883176 
L 440.615854 -39.938173 
L 441.389135 -39.983563 
L 442.162417 -40.019511 
L 442.935698 -40.045513 
L 443.70898 -40.060411 
L 444.482262 -40.062515 
L 445.255543 -40.049837 
L 446.028825 -40.020386 
L 446.802106 -39.972472 
L 447.575388 -39.904986 
L 448.34867 -39.817596 
L 449.121951 -39.710832 
L 449.895233 -39.586052 
L 450.668514 -39.445287 
L 451.441796 -39.290996 
L 452.215078 -39.12576 
L 452.988359 -38.951965 
L 453.761641 -38.771513 
L 454.534922 -38.585594 
L 455.308204 -38.394554 
L 456.081486 -38.197862 
L 456.854767 -37.994175 
L 457.628049 -37.78149 
L 458.40133 -37.557357 
L 459.174612 -37.319125 
L 459.947894 -37.064184 
L 460.721175 -36.790193 
L 461.494457 -36.495252 
L 462.267738 -36.178017 
L 463.04102 -35.837754 
L 463.814302 -35.474319 
L 464.587583 -35.088106 
L 465.360865 -34.679937 
L 466.134146 -34.250954 
L 466.907428 -33.802497 
L 467.68071 -33.336006 
L 468.453991 -32.852937 
L 469.227273 -32.354718 
L 470.000554 -31.842724 
L 470.773836 -31.318277 
L 471.547118 -30.782659 
L 472.320399 -30.237135 
L 473.093681 -29.682974 
L 473.866962 -29.121467 
L 474.640244 -28.553933 
L 475.413525 -27.981726 
L 476.186807 -27.406221 
L 476.960089 -26.828798 
L 477.73337 -26.250821 
L 478.506652 -25.673601 
L 479.279933 -25.09836 
L 480.053215 -24.526193 
L 480.826497 -23.958029 
L 481.599778 -23.394609 
L 482.37306 -22.836471 
L 483.146341 -22.283964 
L 483.919623 -21.737278 
L 484.692905 -21.196494 
L 485.466186 -20.661649 
L 486.239468 -20.132794 
L 487.012749 -19.610054 
L 487.786031 -19.09366 
L 488.559313 -18.583961 
L 489.332594 -18.081407 
L 490.105876 -17.586514 
L 490.879157 -17.099817 
L 491.652439 -16.621814 
L 492.425721 -16.152933 
L 493.199002 -15.6935 
L 493.972284 -15.24374 
L 494.745565 -14.803786 
L 495.518847 -14.373699 
L 496.292129 -13.953494 
L 497.06541 -13.543159 
L 497.838692 -13.142653 
L 498.611973 -12.7519 
L 499.385255 -12.370763 
L 500.158537 -11.999013 
L 500.931818 -11.636302 
L 501.7051 -11.282145 
L 502.478381 -10.935925 
L 503.251663 -10.596917 
L 504.024945 -10.264347 
L 504.798226 -9.93746 
L 505.571508 -9.615612 
L 506.344789 -9.298355 
L 507.118071 -8.985514 
L 507.891353 -8.677244 
L 508.664634 -8.37405 
L 509.437916 -8.076772 
L 510.211197 -7.786529 
L 510.984479 -7.504635 
L 511.757761 -7.232479 
L 512.531042 -6.971413 
L 513.304324 -6.722626 
L 514.077605 -6.48705 
L 514.850887 -6.265292 
L 515.624169 -6.057605 
L 516.39745 -5.863901 
L 517.170732 -5.683797 
L 517.944013 -5.516691 
L 518.717295 -5.361847 
L 519.490576 -5.218485 
L 520.263858 -5.085845 
L 521.03714 -4.963241 
L 521.810421 -4.850071 
L 522.583703 -4.745804 
L 523.356984 -4.649949 
L 524.130266 -4.562004 
L 524.903548 -4.481404 
L 525.676829 -4.407488 
L 526.450111 -4.339475 
L 527.223392 -4.276475 
L 527.996674 -4.217517 
L 528.769956 -4.161597 
L 529.543237 -4.107745 
L 530.316519 -4.055083 
L 531.0898 -4.002881 
L 531.863082 -3.950594 
L 532.636364 -3.897879 
L 532.636364 -2.470909 
L 532.636364 -2.470909 
L 531.863082 -2.470909 
L 531.0898 -2.470909 
L 530.316519 -2.470909 
L 529.543237 -2.470909 
L 528.769956 -2.470909 
L 527.996674 -2.470909 
L 527.223392 -2.470909 
L 526.450111 -2.470909 
L 525.676829 -2.470909 
L 524.903548 -2.470909 
L 524.130266 -2.470909 
L 523.356984 -2.470909 
L 522.583703 -2.470909 
L 521.810421 -2.470909 
L 521.03714 -2.470909 
L 520.263858 -2.470909 
L 519.490576 -2.470909 
L 518.717295 -2.470909 
L 517.944013 -2.470909 
L 517.170732 -2.470909 
L 516.39745 -2.470909 
L 515.624169 -2.470909 
L 514.850887 -2.470909 
L 514.077605 -2.470909 
L 513.304324 -2.470909 
L 512.531042 -2.470909 
L 511.757761 -2.470909 
L 510.984479 -2.470909 
L 510.211197 -2.470909 
L 509.437916 -2.470909 
L 508.664634 -2.470909 
L 507.891353 -2.470909 
L 507.118071 -2.470909 
L 506.344789 -2.470909 
L 505.571508 -2.470909 
L 504.798226 -2.470909 
L 504.024945 -2.470909 
L 503.251663 -2.470909 
L 502.478381 -2.470909 
L 501.7051 -2.470909 
L 500.931818 -2.470909 
L 500.158537 -2.470909 
L 499.385255 -2.470909 
L 498.611973 -2.470909 
L 497.838692 -2.470909 
L 497.06541 -2.470909 
L 496.292129 -2.470909 
L 495.518847 -2.470909 
L 494.745565 -2.470909 
L 493.972284 -2.470909 
L 493.199002 -2.470909 
L 492.425721 -2.470909 
L 491.652439 -2.470909 
L 490.879157 -2.470909 
L 490.105876 -2.470909 
L 489.332594 -2.470909 
L 488.559313 -2.470909 
L 487.786031 -2.470909 
L 487.012749 -2.470909 
L 486.239468 -2.470909 
L 485.466186 -2.470909 
L 484.692905 -2.470909 
L 483.919623 -2.470909 
L 483.146341 -2.470909 
L 482.37306 -2.470909 
L 481.599778 -2.470909 
L 480.826497 -2.470909 
L 480.053215 -2.470909 
L 479.279933 -2.470909 
L 478.506652 -2.470909 
L 477.73337 -2.470909 
L 476.960089 -2.470909 
L 476.186807 -2.470909 
L 475.413525 -2.470909 
L 474.640244 -2.470909 
L 473.866962 -2.470909 
L 473.093681 -2.470909 
L 472.320399 -2.470909 
L 471.547118 -2.470909 
L 470.773836 -2.470909 
L 470.000554 -2.470909 
L 469.227273 -2.470909 
L 468.453991 -2.470909 
L 467.68071 -2.470909 
L 466.907428 -2.470909 
L 466.134146 -2.470909 
L 465.360865 -2.470909 
L 464.587583 -2.470909 
L 463.814302 -2.470909 
L 463.04102 -2.470909 
L 462.267738 -2.470909 
L 461.494457 -2.470909 
L 460.721175 -2.470909 
L 459.947894 -2.470909 
L 459.174612 -2.470909 
L 458.40133 -2.470909 
L 457.628049 -2.470909 
L 456.854767 -2.470909 
L 456.081486 -2.470909 
L 455.308204 -2.470909 
L 454.534922 -2.470909 
L 453.761641 -2.470909 
L 452.988359 -2.470909 
L 452.215078 -2.470909 
L 451.441796 -2.470909 
L 450.668514 -2.470909 
L 449.895233 -2.470909 
L 449.121951 -2.470909 
L 448.34867 -2.470909 
L 447.575388 -2.470909 
L 446.802106 -2.470909 
L 446.028825 -2.470909 
L 445.255543 -2.470909 
L 444.482262 -2.470909 
L 443.70898 -2.470909 
L 442.935698 -2.470909 
L 442.162417 -2.470909 
L 441.389135 -2.470909 
L 440.615854 -2.470909 
L 439.842572 -2.470909 
L 439.06929 -2.470909 
L 438.296009 -2.470909 
L 437.522727 -2.470909 
L 436.749446 -2.470909 
L 435.976164 -2.470909 
L 435.202882 -2.470909 
L 434.429601 -2.470909 
L 433.656319 -2.470909 
L 432.883038 -2.470909 
L 432.109756 -2.470909 
L 431.336475 -2.470909 
L 430.563193 -2.470909 
L 429.789911 -2.470909 
L 429.01663 -2.470909 
L 428.243348 -2.470909 
L 427.470067 -2.470909 
L 426.696785 -2.470909 
L 425.923503 -2.470909 
L 425.150222 -2.470909 
L 424.37694 -2.470909 
L 423.603659 -2.470909 
L 422.830377 -2.470909 
L 422.057095 -2.470909 
L 421.283814 -2.470909 
L 420.510532 -2.470909 
L 419.737251 -2.470909 
L 418.963969 -2.470909 
L 418.190687 -2.470909 
L 417.417406 -2.470909 
L 416.644124 -2.470909 
L 415.870843 -2.470909 
L 415.097561 -2.470909 
L 414.324279 -2.470909 
L 413.550998 -2.470909 
L 412.777716 -2.470909 
L 412.004435 -2.470909 
L 411.231153 -2.470909 
L 410.457871 -2.470909 
L 409.68459 -2.470909 
L 408.911308 -2.470909 
L 408.138027 -2.470909 
L 407.364745 -2.470909 
L 406.591463 -2.470909 
L 405.818182 -2.470909 
L 405.0449 -2.470909 
L 404.271619 -2.470909 
L 403.498337 -2.470909 
L 402.725055 -2.470909 
L 401.951774 -2.470909 
L 401.178492 -2.470909 
L 400.405211 -2.470909 
L 399.631929 -2.470909 
L 398.858647 -2.470909 
L 398.085366 -2.470909 
L 397.312084 -2.470909 
L 396.538803 -2.470909 
L 395.765521 -2.470909 
L 394.992239 -2.470909 
L 394.218958 -2.470909 
L 393.445676 -2.470909 
L 392.672395 -2.470909 
L 391.899113 -2.470909 
L 391.125831 -2.470909 
L 390.35255 -2.470909 
L 389.579268 -2.470909 
L 388.805987 -2.470909 
L 388.032705 -2.470909 
L 387.259424 -2.470909 
L 386.486142 -2.470909 
L 385.71286 -2.470909 
L 384.939579 -2.470909 
L 384.166297 -2.470909 
L 383.393016 -2.470909 
L 382.619734 -2.470909 
L 381.846452 -2.470909 
L 381.073171 -2.470909 
L 380.299889 -2.470909 
L 379.526608 -2.470909 
L 378.753326 -2.470909 
L 377.980044 -2.470909 
L 377.206763 -2.470909 
L 376.433481 -2.470909 
L 375.6602 -2.470909 
L 374.886918 -2.470909 
L 374.113636 -2.470909 
L 373.340355 -2.470909 
L 372.567073 -2.470909 
L 371.793792 -2.470909 
L 371.02051 -2.470909 
L 370.247228 -2.470909 
L 369.473947 -2.470909 
L 368.700665 -2.470909 
L 367.927384 -2.470909 
L 367.154102 -2.470909 
L 366.38082 -2.470909 
L 365.607539 -2.470909 
L 364.834257 -2.470909 
L 364.060976 -2.470909 
L 363.287694 -2.470909 
L 362.514412 -2.470909 
L 361.741131 -2.470909 
L 360.967849 -2.470909 
L 360.194568 -2.470909 
L 359.421286 -2.470909 
L 358.648004 -2.470909 
L 357.874723 -2.470909 
L 357.101441 -2.470909 
L 356.32816 -2.470909 
L 355.554878 -2.470909 
L 354.781596 -2.470909 
L 354.008315 -2.470909 
z
" style="stroke: #cf1313; stroke-opacity: 0.2"/>
    </defs>
    <g clip-path="url(#p5e5beb5e71)">
     <use xlink:href="#m9e4a20783b" x="0" y="54.36" style="fill: #cf1313; fill-opacity: 0.2; stroke: #cf1313; stroke-opacity: 0.2"/>
    </g>
   </g>
   <g id="PolyCollection_2">
    <defs>
     <path id="m748e02c9ab" d="M 227.963415 -2.470909 
L 227.963415 -4.416373 
L 228.736696 -4.536176 
L 229.509978 -4.654784 
L 230.283259 -4.772451 
L 231.056541 -4.889935 
L 231.829823 -5.008448 
L 232.603104 -5.129566 
L 233.376386 -5.255108 
L 234.149667 -5.387014 
L 234.922949 -5.527216 
L 235.696231 -5.677528 
L 236.469512 -5.839538 
L 237.242794 -6.014528 
L 238.016075 -6.203392 
L 238.789357 -6.406575 
L 239.562639 -6.624018 
L 240.33592 -6.855132 
L 241.109202 -7.098802 
L 241.882483 -7.353445 
L 242.655765 -7.617111 
L 243.429047 -7.887652 
L 244.202328 -8.16292 
L 244.97561 -8.441001 
L 245.748891 -8.720444 
L 246.522173 -9.000448 
L 247.295455 -9.281 
L 248.068736 -9.562933 
L 248.842018 -9.8479 
L 249.615299 -10.138272 
L 250.388581 -10.436974 
L 251.161863 -10.747282 
L 251.935144 -11.072603 
L 252.708426 -11.416249 
L 253.481707 -11.781236 
L 254.254989 -12.170088 
L 255.028271 -12.584685 
L 255.801552 -13.026129 
L 256.574834 -13.494652 
L 257.348115 -13.989574 
L 258.121397 -14.509321 
L 258.894678 -15.051513 
L 259.66796 -15.613137 
L 260.441242 -16.190791 
L 261.214523 -16.78099 
L 261.987805 -17.380499 
L 262.761086 -17.986647 
L 263.534368 -18.59758 
L 264.30765 -19.212399 
L 265.080931 -19.831157 
L 265.854213 -20.454698 
L 266.627494 -21.084358 
L 267.400776 -21.721568 
L 268.174058 -22.367431 
L 268.947339 -23.022339 
L 269.720621 -23.685704 
L 270.493902 -24.355851 
L 271.267184 -25.030088 
L 272.040466 -25.704938 
L 272.813747 -26.376476 
L 273.587029 -27.040706 
L 274.36031 -27.6939 
L 275.133592 -28.33284 
L 275.906874 -28.954927 
L 276.680155 -29.558165 
L 277.453437 -30.141039 
L 278.226718 -30.702359 
L 279 -31.241114 
L 279.773282 -31.756404 
L 280.546563 -32.247466 
L 281.319845 -32.71381 
L 282.093126 -33.155413 
L 282.866408 -33.572949 
L 283.63969 -33.967966 
L 284.412971 -34.342968 
L 285.186253 -34.701353 
L 285.959534 -35.047206 
L 286.732816 -35.384955 
L 287.506098 -35.718934 
L 288.279379 -36.052923 
L 289.052661 -36.389735 
L 289.825942 -36.730902 
L 290.599224 -37.076528 
L 291.372506 -37.425301 
L 292.145787 -37.774687 
L 292.919069 -38.121242 
L 293.69235 -38.461008 
L 294.465632 -38.789916 
L 295.238914 -39.104139 
L 296.012195 -39.400349 
L 296.785477 -39.675845 
L 297.558758 -39.928571 
L 298.33204 -40.157037 
L 299.105322 -40.360206 
L 299.878603 -40.537389 
L 300.651885 -40.6882 
L 301.425166 -40.812567 
L 302.198448 -40.910823 
L 302.971729 -40.983803 
L 303.745011 -41.032916 
L 304.518293 -41.060122 
L 305.291574 -41.067793 
L 306.064856 -41.058438 
L 306.838137 -41.034336 
L 307.611419 -40.997152 
L 308.384701 -40.947599 
L 309.157982 -40.885258 
L 309.931264 -40.808578 
L 310.704545 -40.715093 
L 311.477827 -40.601806 
L 312.251109 -40.46567 
L 313.02439 -40.304058 
L 313.797672 -40.115137 
L 314.570953 -39.898056 
L 315.344235 -39.652924 
L 316.117517 -39.380591 
L 316.890798 -39.082302 
L 317.66408 -38.75931 
L 318.437361 -38.412553 
L 319.210643 -38.04248 
L 319.983925 -37.649084 
L 320.757206 -37.232119 
L 321.530488 -36.791477 
L 322.303769 -36.327621 
L 323.077051 -35.841978 
L 323.850333 -35.33718 
L 324.623614 -34.817095 
L 325.396896 -34.286618 
L 326.170177 -33.751238 
L 326.943459 -33.216459 
L 327.716741 -32.687174 
L 328.490022 -32.167098 
L 329.263304 -31.658355 
L 330.036585 -31.16128 
L 330.809867 -30.674468 
L 331.583149 -30.195039 
L 332.35643 -29.719063 
L 333.129712 -29.242074 
L 333.902993 -28.759582 
L 334.676275 -28.267511 
L 335.449557 -27.762521 
L 336.222838 -27.242181 
L 336.99612 -26.705006 
L 337.769401 -26.150397 
L 338.542683 -25.578511 
L 339.315965 -24.990123 
L 340.089246 -24.386512 
L 340.862528 -23.76939 
L 341.635809 -23.140881 
L 342.409091 -22.503528 
L 343.182373 -21.860299 
L 343.955654 -21.214569 
L 344.728936 -20.570037 
L 345.502217 -19.930567 
L 346.275499 -19.299979 
L 347.04878 -18.681779 
L 347.822062 -18.078903 
L 348.595344 -17.493492 
L 349.368625 -16.926761 
L 350.141907 -16.378963 
L 350.915188 -15.849488 
L 351.68847 -15.337051 
L 352.461752 -14.839957 
L 353.235033 -14.35639 
L 354.008315 -13.884673 
L 354.781596 -13.423477 
L 355.554878 -12.971939 
L 356.32816 -12.529689 
L 357.101441 -12.096805 
L 357.874723 -11.673719 
L 358.648004 -11.26111 
L 359.421286 -10.8598 
L 360.194568 -10.47069 
L 360.967849 -10.094729 
L 361.741131 -9.732897 
L 362.514412 -9.38621 
L 363.287694 -9.055702 
L 364.060976 -8.742375 
L 364.834257 -8.447126 
L 365.607539 -8.17064 
L 366.38082 -7.913272 
L 367.154102 -7.674953 
L 367.927384 -7.455119 
L 368.700665 -7.252709 
L 369.473947 -7.066204 
L 370.247228 -6.893726 
L 371.02051 -6.733174 
L 371.793792 -6.58237 
L 372.567073 -6.439208 
L 373.340355 -6.301772 
L 374.113636 -6.168436 
L 374.886918 -6.037914 
L 375.6602 -5.909281 
L 376.433481 -5.781964 
L 377.206763 -5.655692 
L 377.980044 -5.530438 
L 378.753326 -5.406344 
L 379.526608 -5.283632 
L 380.299889 -5.162536 
L 381.073171 -5.043229 
L 381.846452 -4.925794 
L 382.619734 -4.810205 
L 383.393016 -4.696347 
L 384.166297 -4.58406 
L 384.939579 -4.473192 
L 385.71286 -4.363658 
L 386.486142 -4.255493 
L 386.486142 -2.470909 
L 386.486142 -2.470909 
L 385.71286 -2.470909 
L 384.939579 -2.470909 
L 384.166297 -2.470909 
L 383.393016 -2.470909 
L 382.619734 -2.470909 
L 381.846452 -2.470909 
L 381.073171 -2.470909 
L 380.299889 -2.470909 
L 379.526608 -2.470909 
L 378.753326 -2.470909 
L 377.980044 -2.470909 
L 377.206763 -2.470909 
L 376.433481 -2.470909 
L 375.6602 -2.470909 
L 374.886918 -2.470909 
L 374.113636 -2.470909 
L 373.340355 -2.470909 
L 372.567073 -2.470909 
L 371.793792 -2.470909 
L 371.02051 -2.470909 
L 370.247228 -2.470909 
L 369.473947 -2.470909 
L 368.700665 -2.470909 
L 367.927384 -2.470909 
L 367.154102 -2.470909 
L 366.38082 -2.470909 
L 365.607539 -2.470909 
L 364.834257 -2.470909 
L 364.060976 -2.470909 
L 363.287694 -2.470909 
L 362.514412 -2.470909 
L 361.741131 -2.470909 
L 360.967849 -2.470909 
L 360.194568 -2.470909 
L 359.421286 -2.470909 
L 358.648004 -2.470909 
L 357.874723 -2.470909 
L 357.101441 -2.470909 
L 356.32816 -2.470909 
L 355.554878 -2.470909 
L 354.781596 -2.470909 
L 354.008315 -2.470909 
L 353.235033 -2.470909 
L 352.461752 -2.470909 
L 351.68847 -2.470909 
L 350.915188 -2.470909 
L 350.141907 -2.470909 
L 349.368625 -2.470909 
L 348.595344 -2.470909 
L 347.822062 -2.470909 
L 347.04878 -2.470909 
L 346.275499 -2.470909 
L 345.502217 -2.470909 
L 344.728936 -2.470909 
L 343.955654 -2.470909 
L 343.182373 -2.470909 
L 342.409091 -2.470909 
L 341.635809 -2.470909 
L 340.862528 -2.470909 
L 340.089246 -2.470909 
L 339.315965 -2.470909 
L 338.542683 -2.470909 
L 337.769401 -2.470909 
L 336.99612 -2.470909 
L 336.222838 -2.470909 
L 335.449557 -2.470909 
L 334.676275 -2.470909 
L 333.902993 -2.470909 
L 333.129712 -2.470909 
L 332.35643 -2.470909 
L 331.583149 -2.470909 
L 330.809867 -2.470909 
L 330.036585 -2.470909 
L 329.263304 -2.470909 
L 328.490022 -2.470909 
L 327.716741 -2.470909 
L 326.943459 -2.470909 
L 326.170177 -2.470909 
L 325.396896 -2.470909 
L 324.623614 -2.470909 
L 323.850333 -2.470909 
L 323.077051 -2.470909 
L 322.303769 -2.470909 
L 321.530488 -2.470909 
L 320.757206 -2.470909 
L 319.983925 -2.470909 
L 319.210643 -2.470909 
L 318.437361 -2.470909 
L 317.66408 -2.470909 
L 316.890798 -2.470909 
L 316.117517 -2.470909 
L 315.344235 -2.470909 
L 314.570953 -2.470909 
L 313.797672 -2.470909 
L 313.02439 -2.470909 
L 312.251109 -2.470909 
L 311.477827 -2.470909 
L 310.704545 -2.470909 
L 309.931264 -2.470909 
L 309.157982 -2.470909 
L 308.384701 -2.470909 
L 307.611419 -2.470909 
L 306.838137 -2.470909 
L 306.064856 -2.470909 
L 305.291574 -2.470909 
L 304.518293 -2.470909 
L 303.745011 -2.470909 
L 302.971729 -2.470909 
L 302.198448 -2.470909 
L 301.425166 -2.470909 
L 300.651885 -2.470909 
L 299.878603 -2.470909 
L 299.105322 -2.470909 
L 298.33204 -2.470909 
L 297.558758 -2.470909 
L 296.785477 -2.470909 
L 296.012195 -2.470909 
L 295.238914 -2.470909 
L 294.465632 -2.470909 
L 293.69235 -2.470909 
L 292.919069 -2.470909 
L 292.145787 -2.470909 
L 291.372506 -2.470909 
L 290.599224 -2.470909 
L 289.825942 -2.470909 
L 289.052661 -2.470909 
L 288.279379 -2.470909 
L 287.506098 -2.470909 
L 286.732816 -2.470909 
L 285.959534 -2.470909 
L 285.186253 -2.470909 
L 284.412971 -2.470909 
L 283.63969 -2.470909 
L 282.866408 -2.470909 
L 282.093126 -2.470909 
L 281.319845 -2.470909 
L 280.546563 -2.470909 
L 279.773282 -2.470909 
L 279 -2.470909 
L 278.226718 -2.470909 
L 277.453437 -2.470909 
L 276.680155 -2.470909 
L 275.906874 -2.470909 
L 275.133592 -2.470909 
L 274.36031 -2.470909 
L 273.587029 -2.470909 
L 272.813747 -2.470909 
L 272.040466 -2.470909 
L 271.267184 -2.470909 
L 270.493902 -2.470909 
L 269.720621 -2.470909 
L 268.947339 -2.470909 
L 268.174058 -2.470909 
L 267.400776 -2.470909 
L 266.627494 -2.470909 
L 265.854213 -2.470909 
L 265.080931 -2.470909 
L 264.30765 -2.470909 
L 263.534368 -2.470909 
L 262.761086 -2.470909 
L 261.987805 -2.470909 
L 261.214523 -2.470909 
L 260.441242 -2.470909 
L 259.66796 -2.470909 
L 258.894678 -2.470909 
L 258.121397 -2.470909 
L 257.348115 -2.470909 
L 256.574834 -2.470909 
L 255.801552 -2.470909 
L 255.028271 -2.470909 
L 254.254989 -2.470909 
L 253.481707 -2.470909 
L 252.708426 -2.470909 
L 251.935144 -2.470909 
L 251.161863 -2.470909 
L 250.388581 -2.470909 
L 249.615299 -2.470909 
L 248.842018 -2.470909 
L 248.068736 -2.470909 
L 247.295455 -2.470909 
L 246.522173 -2.470909 
L 245.748891 -2.470909 
L 244.97561 -2.470909 
L 244.202328 -2.470909 
L 243.429047 -2.470909 
L 242.655765 -2.470909 
L 241.882483 -2.470909 
L 241.109202 -2.470909 
L 240.33592 -2.470909 
L 239.562639 -2.470909 
L 238.789357 -2.470909 
L 238.016075 -2.470909 
L 237.242794 -2.470909 
L 236.469512 -2.470909 
L 235.696231 -2.470909 
L 234.922949 -2.470909 
L 234.149667 -2.470909 
L 233.376386 -2.470909 
L 232.603104 -2.470909 
L 231.829823 -2.470909 
L 231.056541 -2.470909 
L 230.283259 -2.470909 
L 229.509978 -2.470909 
L 228.736696 -2.470909 
L 227.963415 -2.470909 
z
" style="stroke: #116dc2; stroke-opacity: 0.2"/>
    </defs>
    <g clip-path="url(#p5e5beb5e71)">
     <use xlink:href="#m748e02c9ab" x="0" y="54.36" style="fill: #116dc2; fill-opacity: 0.2; stroke: #116dc2; stroke-opacity: 0.2"/>
    </g>
   </g>
   <g id="PolyCollection_3">
    <defs>
     <path id="mc70d659417" d="M 25.363636 -2.470909 
L 25.363636 -4.340842 
L 26.136918 -4.844835 
L 26.9102 -5.487066 
L 27.683481 -6.273383 
L 28.456763 -7.189641 
L 29.230044 -8.203551 
L 30.003326 -9.284213 
L 30.776608 -10.416262 
L 31.549889 -11.587746 
L 32.323171 -12.786018 
L 33.096452 -14.045448 
L 33.869734 -15.491042 
L 34.643016 -17.273702 
L 35.416297 -19.426875 
L 36.189579 -21.810121 
L 36.96286 -24.218409 
L 37.736142 -26.534986 
L 38.509424 -28.772017 
L 39.282705 -30.992314 
L 40.055987 -33.217738 
L 40.829268 -35.419026 
L 41.60255 -37.59061 
L 42.375831 -39.800235 
L 43.149113 -42.117694 
L 43.922395 -44.507644 
L 44.695676 -46.833743 
L 45.468958 -48.928438 
L 46.242239 -50.597081 
L 47.015521 -51.622295 
L 47.788803 -51.889091 
L 48.562084 -51.501425 
L 49.335366 -50.696139 
L 50.108647 -49.659124 
L 50.881929 -48.487389 
L 51.655211 -47.270452 
L 52.428492 -46.083628 
L 53.201774 -44.898072 
L 53.975055 -43.585347 
L 54.748337 -42.03426 
L 55.521619 -40.227212 
L 56.2949 -38.197737 
L 57.068182 -35.955179 
L 57.841463 -33.484334 
L 58.614745 -30.80331 
L 59.388027 -28.002189 
L 60.161308 -25.244718 
L 60.93459 -22.736732 
L 61.707871 -20.644973 
L 62.481153 -18.997495 
L 63.254435 -17.659105 
L 64.027716 -16.43136 
L 64.800998 -15.186599 
L 65.574279 -13.897192 
L 66.347561 -12.570485 
L 67.120843 -11.221065 
L 67.894124 -9.914109 
L 68.667406 -8.773444 
L 69.440687 -7.885576 
L 70.213969 -7.194422 
L 70.987251 -6.54026 
L 71.760532 -5.82624 
L 72.533814 -5.11103 
L 73.307095 -4.519955 
L 73.307095 -2.470909 
L 73.307095 -2.470909 
L 72.533814 -2.470909 
L 71.760532 -2.470909 
L 70.987251 -2.470909 
L 70.213969 -2.470909 
L 69.440687 -2.470909 
L 68.667406 -2.470909 
L 67.894124 -2.470909 
L 67.120843 -2.470909 
L 66.347561 -2.470909 
L 65.574279 -2.470909 
L 64.800998 -2.470909 
L 64.027716 -2.470909 
L 63.254435 -2.470909 
L 62.481153 -2.470909 
L 61.707871 -2.470909 
L 60.93459 -2.470909 
L 60.161308 -2.470909 
L 59.388027 -2.470909 
L 58.614745 -2.470909 
L 57.841463 -2.470909 
L 57.068182 -2.470909 
L 56.2949 -2.470909 
L 55.521619 -2.470909 
L 54.748337 -2.470909 
L 53.975055 -2.470909 
L 53.201774 -2.470909 
L 52.428492 -2.470909 
L 51.655211 -2.470909 
L 50.881929 -2.470909 
L 50.108647 -2.470909 
L 49.335366 -2.470909 
L 48.562084 -2.470909 
L 47.788803 -2.470909 
L 47.015521 -2.470909 
L 46.242239 -2.470909 
L 45.468958 -2.470909 
L 44.695676 -2.470909 
L 43.922395 -2.470909 
L 43.149113 -2.470909 
L 42.375831 -2.470909 
L 41.60255 -2.470909 
L 40.829268 -2.470909 
L 40.055987 -2.470909 
L 39.282705 -2.470909 
L 38.509424 -2.470909 
L 37.736142 -2.470909 
L 36.96286 -2.470909 
L 36.189579 -2.470909 
L 35.416297 -2.470909 
L 34.643016 -2.470909 
L 33.869734 -2.470909 
L 33.096452 -2.470909 
L 32.323171 -2.470909 
L 31.549889 -2.470909 
L 30.776608 -2.470909 
L 30.003326 -2.470909 
L 29.230044 -2.470909 
L 28.456763 -2.470909 
L 27.683481 -2.470909 
L 26.9102 -2.470909 
L 26.136918 -2.470909 
L 25.363636 -2.470909 
z
" style="stroke: #8a8a8a; stroke-opacity: 0.2"/>
    </defs>
    <g clip-path="url(#p5e5beb5e71)">
     <use xlink:href="#mc70d659417" x="0" y="54.36" style="fill: #8a8a8a; fill-opacity: 0.2; stroke: #8a8a8a; stroke-opacity: 0.2"/>
    </g>
   </g>
   <g id="line2d_1">
    <path d="M 354.008315 50.155266 
L 357.874723 49.525201 
L 361.741131 48.68693 
L 373.340355 45.79725 
L 376.433481 44.780494 
L 379.526608 43.533406 
L 384.166297 41.386699 
L 388.032705 39.357926 
L 391.899113 37.028202 
L 398.858647 32.738922 
L 405.0449 28.98713 
L 414.324279 23.083144 
L 418.190687 21.005805 
L 422.830377 18.779185 
L 425.923503 17.536634 
L 429.01663 16.535441 
L 432.883038 15.533862 
L 435.976164 14.92822 
L 439.06929 14.54215 
L 442.935698 14.314487 
L 446.028825 14.339614 
L 448.34867 14.542404 
L 451.441796 15.069004 
L 456.081486 16.162138 
L 459.174612 17.040875 
L 461.494457 17.864748 
L 463.814302 18.885681 
L 466.134146 20.109046 
L 469.227273 22.005282 
L 473.093681 24.677026 
L 488.559313 35.776039 
L 493.199002 38.6665 
L 497.06541 40.816841 
L 500.931818 42.723698 
L 505.571508 44.744388 
L 510.984479 46.855365 
L 514.077605 47.87295 
L 517.170732 48.676203 
L 520.263858 49.274155 
L 524.130266 49.797996 
L 529.543237 50.252255 
L 532.636364 50.462121 
L 532.636364 50.462121 
" clip-path="url(#p5e5beb5e71)" style="fill: none; stroke: #cf1313; stroke-width: 1.5; stroke-linecap: square"/>
   </g>
   <g id="line2d_2">
    <path d="M 227.963415 49.943627 
L 236.469512 48.520462 
L 239.562639 47.735982 
L 243.429047 46.472348 
L 251.161863 43.612718 
L 253.481707 42.578764 
L 255.801552 41.333871 
L 258.121397 39.850679 
L 261.214523 37.57901 
L 266.627494 33.275642 
L 271.267184 29.329912 
L 275.906874 25.405073 
L 279 23.118886 
L 281.319845 21.64619 
L 283.63969 20.392034 
L 286.732816 18.975045 
L 296.785477 14.684155 
L 299.105322 13.999794 
L 301.425166 13.547433 
L 303.745011 13.327084 
L 306.838137 13.325664 
L 309.931264 13.551422 
L 312.251109 13.89433 
L 314.570953 14.461944 
L 316.890798 15.277698 
L 319.210643 16.31752 
L 321.530488 17.568523 
L 324.623614 19.542905 
L 330.809867 23.685532 
L 336.222838 27.117819 
L 339.315965 29.369877 
L 343.182373 32.499701 
L 347.822062 36.281097 
L 350.915188 38.510512 
L 354.008315 40.475327 
L 357.874723 42.686281 
L 361.741131 44.627103 
L 364.834257 45.912874 
L 367.927384 46.904881 
L 371.02051 47.626826 
L 376.433481 48.578036 
L 385.71286 49.996342 
L 386.486142 50.104507 
L 386.486142 50.104507 
" clip-path="url(#p5e5beb5e71)" style="fill: none; stroke: #116dc2; stroke-width: 1.5; stroke-linecap: square"/>
   </g>
   <g id="line2d_3">
    <path d="M 25.363636 50.019158 
L 26.136918 49.515165 
L 26.9102 48.872934 
L 27.683481 48.086617 
L 28.456763 47.170359 
L 29.230044 46.156449 
L 30.003326 45.075787 
L 30.776608 43.943738 
L 31.549889 42.772254 
L 32.323171 41.573982 
L 33.096452 40.314552 
L 33.869734 38.868958 
L 34.643016 37.086298 
L 35.416297 34.933125 
L 36.189579 32.549879 
L 36.96286 30.141591 
L 37.736142 27.825014 
L 38.509424 25.587983 
L 39.282705 23.367686 
L 40.055987 21.142262 
L 40.829268 18.940974 
L 41.60255 16.76939 
L 42.375831 14.559765 
L 43.149113 12.242306 
L 43.922395 9.852356 
L 44.695676 7.526257 
L 45.468958 5.431562 
L 46.242239 3.762919 
L 47.015521 2.737705 
L 47.788803 2.470909 
L 48.562084 2.858575 
L 49.335366 3.663861 
L 50.108647 4.700876 
L 50.881929 5.872611 
L 51.655211 7.089548 
L 52.428492 8.276372 
L 53.201774 9.461928 
L 53.975055 10.774653 
L 54.748337 12.32574 
L 55.521619 14.132788 
L 56.2949 16.162263 
L 57.068182 18.404821 
L 57.841463 20.875666 
L 58.614745 23.55669 
L 59.388027 26.357811 
L 60.161308 29.115282 
L 60.93459 31.623268 
L 61.707871 33.715027 
L 62.481153 35.362505 
L 63.254435 36.700895 
L 64.027716 37.92864 
L 64.800998 39.173401 
L 65.574279 40.462808 
L 66.347561 41.789515 
L 67.120843 43.138935 
L 67.894124 44.445891 
L 68.667406 45.586556 
L 69.440687 46.474424 
L 70.213969 47.165578 
L 70.987251 47.81974 
L 71.760532 48.53376 
L 72.533814 49.24897 
L 73.307095 49.840045 
" clip-path="url(#p5e5beb5e71)" style="fill: none; stroke: #8a8a8a; stroke-width: 1.5; stroke-linecap: square"/>
   </g>
  </g>
 </g>
 <defs>
  <clipPath id="p5e5beb5e71">
   <rect x="0" y="-0" width="558" height="54.36"/>
  </clipPath>
 </defs>
</svg>
