<?xml version="1.0" encoding="utf-8" standalone="no"?>
<!DOCTYPE svg PUBLIC "-//W3C//DTD SVG 1.1//EN"
  "http://www.w3.org/Graphics/SVG/1.1/DTD/svg11.dtd">
<svg xmlns:xlink="http://www.w3.org/1999/xlink" width="558pt" height="54.36pt" viewBox="0 0 558 54.36" xmlns="http://www.w3.org/2000/svg" version="1.1">
 <metadata>
  <rdf:RDF xmlns:dc="http://purl.org/dc/elements/1.1/" xmlns:cc="http://creativecommons.org/ns#" xmlns:rdf="http://www.w3.org/1999/02/22-rdf-syntax-ns#">
   <cc:Work>
    <dc:type rdf:resource="http://purl.org/dc/dcmitype/StillImage"/>
    <dc:date>2024-09-14T12:47:16.066040</dc:date>
    <dc:format>image/svg+xml</dc:format>
    <dc:creator>
     <cc:Agent>
      <dc:title>Matplotlib v3.5.2, https://matplotlib.org/</dc:title>
     </cc:Agent>
    </dc:creator>
   </cc:Work>
  </rdf:RDF>
 </metadata>
 <defs>
  <style type="text/css">*{stroke-linejoin: round; stroke-linecap: butt}</style>
 </defs>
 <g id="figure_1">
  <g id="patch_1">
   <path d="M 0 54.36 
L 558 54.36 
L 558 0 
L 0 0 
L 0 54.36 
z
" style="fill: none; opacity: 0"/>
  </g>
  <g id="axes_1">
   <g id="PolyCollection_1">
    <defs>
     <path id="m7800ad72b3" d="M 396.137405 -2.470909 
L 396.137405 -3.65537 
L 397.105482 -3.770002 
L 398.07356 -3.907427 
L 399.041638 -4.067964 
L 400.009715 -4.25032 
L 400.977793 -4.451524 
L 401.945871 -4.66733 
L 402.913949 -4.893181 
L 403.882026 -5.125576 
L 404.850104 -5.363471 
L 405.818182 -5.609218 
L 406.78626 -5.868605 
L 407.754337 -6.149827 
L 408.722415 -6.4616 
L 409.690493 -6.810942 
L 410.65857 -7.201324 
L 411.626648 -7.631779 
L 412.594726 -8.097258 
L 413.562804 -8.59012 
L 414.530881 -9.102273 
L 415.498959 -9.627304 
L 416.467037 -10.161996 
L 417.435115 -10.706839 
L 418.403192 -11.26548 
L 419.37127 -11.843325 
L 420.339348 -12.445758 
L 421.307425 -13.076441 
L 422.275503 -13.736162 
L 423.243581 -14.4225 
L 424.211659 -15.130403 
L 425.179736 -15.853504 
L 426.147814 -16.585797 
L 427.115892 -17.323148 
L 428.083969 -18.064121 
L 429.052047 -18.809826 
L 430.020125 -19.562859 
L 430.988203 -20.325786 
L 431.95628 -21.099825 
L 432.924358 -21.884294 
L 433.892436 -22.677049 
L 434.860514 -23.475627 
L 435.828591 -24.278462 
L 436.796669 -25.085533 
L 437.764747 -25.898057 
L 438.732824 -26.717336 
L 439.700902 -27.54326 
L 440.66898 -28.37312 
L 441.637058 -29.201236 
L 442.605135 -30.019554 
L 443.573213 -30.819003 
L 444.541291 -31.59116 
L 445.509368 -32.329709 
L 446.477446 -33.031317 
L 447.445524 -33.695743 
L 448.413602 -34.325282 
L 449.381679 -34.92385 
L 450.349757 -35.496102 
L 451.317835 -36.046937 
L 452.285913 -36.581511 
L 453.25399 -37.105544 
L 454.222068 -37.625478 
L 455.190146 -38.147957 
L 456.158223 -38.678347 
L 457.126301 -39.218433 
L 458.094379 -39.763991 
L 459.062457 -40.303192 
L 460.030534 -40.816709 
L 460.998612 -41.279898 
L 461.96669 -41.666668 
L 462.934768 -41.954053 
L 463.902845 -42.126276 
L 464.870923 -42.177358 
L 465.839001 -42.111873 
L 466.807078 -41.943947 
L 467.775156 -41.694914 
L 468.743234 -41.390018 
L 469.711312 -41.054547 
L 470.679389 -40.709826 
L 471.647467 -40.369728 
L 472.615545 -40.038466 
L 473.583622 -39.710332 
L 474.5517 -39.371549 
L 475.519778 -39.003774 
L 476.487856 -38.588252 
L 477.455933 -38.10954 
L 478.424011 -37.558017 
L 479.392089 -36.930928 
L 480.360167 -36.232159 
L 481.328244 -35.471158 
L 482.296322 -34.661344 
L 483.2644 -33.818213 
L 484.232477 -32.957296 
L 485.200555 -32.092164 
L 486.168633 -31.232809 
L 487.136711 -30.384738 
L 488.104788 -29.548983 
L 489.072866 -28.722998 
L 490.040944 -27.902127 
L 491.009022 -27.081185 
L 491.977099 -26.255739 
L 492.945177 -25.422814 
L 493.913255 -24.581005 
L 494.881332 -23.730161 
L 495.84941 -22.870936 
L 496.817488 -22.004461 
L 497.785566 -21.132309 
L 498.753643 -20.256766 
L 499.721721 -19.381289 
L 500.689799 -18.510966 
L 501.657876 -17.652786 
L 502.625954 -16.815522 
L 503.594032 -16.009113 
L 504.56211 -15.243483 
L 505.530187 -14.526901 
L 506.498265 -13.8642 
L 507.466343 -13.255356 
L 508.434421 -12.694993 
L 509.402498 -12.17322 
L 510.370576 -11.677797 
L 511.338654 -11.197131 
L 512.306731 -10.723231 
L 513.274809 -10.25368 
L 514.242887 -9.791958 
L 515.210965 -9.346001 
L 516.179042 -8.925504 
L 517.14712 -8.53883 
L 518.115198 -8.190504 
L 519.083276 -7.87998 
L 520.051353 -7.601906 
L 521.019431 -7.347615 
L 521.987509 -7.107227 
L 522.955586 -6.871662 
L 523.923664 -6.634032 
L 524.891742 -6.390217 
L 525.85982 -6.138717 
L 526.827897 -5.880131 
L 527.795975 -5.616572 
L 528.764053 -5.351257 
L 529.73213 -5.088275 
L 530.700208 -4.832426 
L 531.668286 -4.58894 
L 532.636364 -4.362992 
L 532.636364 -2.470909 
L 532.636364 -2.470909 
L 531.668286 -2.470909 
L 530.700208 -2.470909 
L 529.73213 -2.470909 
L 528.764053 -2.470909 
L 527.795975 -2.470909 
L 526.827897 -2.470909 
L 525.85982 -2.470909 
L 524.891742 -2.470909 
L 523.923664 -2.470909 
L 522.955586 -2.470909 
L 521.987509 -2.470909 
L 521.019431 -2.470909 
L 520.051353 -2.470909 
L 519.083276 -2.470909 
L 518.115198 -2.470909 
L 517.14712 -2.470909 
L 516.179042 -2.470909 
L 515.210965 -2.470909 
L 514.242887 -2.470909 
L 513.274809 -2.470909 
L 512.306731 -2.470909 
L 511.338654 -2.470909 
L 510.370576 -2.470909 
L 509.402498 -2.470909 
L 508.434421 -2.470909 
L 507.466343 -2.470909 
L 506.498265 -2.470909 
L 505.530187 -2.470909 
L 504.56211 -2.470909 
L 503.594032 -2.470909 
L 502.625954 -2.470909 
L 501.657876 -2.470909 
L 500.689799 -2.470909 
L 499.721721 -2.470909 
L 498.753643 -2.470909 
L 497.785566 -2.470909 
L 496.817488 -2.470909 
L 495.84941 -2.470909 
L 494.881332 -2.470909 
L 493.913255 -2.470909 
L 492.945177 -2.470909 
L 491.977099 -2.470909 
L 491.009022 -2.470909 
L 490.040944 -2.470909 
L 489.072866 -2.470909 
L 488.104788 -2.470909 
L 487.136711 -2.470909 
L 486.168633 -2.470909 
L 485.200555 -2.470909 
L 484.232477 -2.470909 
L 483.2644 -2.470909 
L 482.296322 -2.470909 
L 481.328244 -2.470909 
L 480.360167 -2.470909 
L 479.392089 -2.470909 
L 478.424011 -2.470909 
L 477.455933 -2.470909 
L 476.487856 -2.470909 
L 475.519778 -2.470909 
L 474.5517 -2.470909 
L 473.583622 -2.470909 
L 472.615545 -2.470909 
L 471.647467 -2.470909 
L 470.679389 -2.470909 
L 469.711312 -2.470909 
L 468.743234 -2.470909 
L 467.775156 -2.470909 
L 466.807078 -2.470909 
L 465.839001 -2.470909 
L 464.870923 -2.470909 
L 463.902845 -2.470909 
L 462.934768 -2.470909 
L 461.96669 -2.470909 
L 460.998612 -2.470909 
L 460.030534 -2.470909 
L 459.062457 -2.470909 
L 458.094379 -2.470909 
L 457.126301 -2.470909 
L 456.158223 -2.470909 
L 455.190146 -2.470909 
L 454.222068 -2.470909 
L 453.25399 -2.470909 
L 452.285913 -2.470909 
L 451.317835 -2.470909 
L 450.349757 -2.470909 
L 449.381679 -2.470909 
L 448.413602 -2.470909 
L 447.445524 -2.470909 
L 446.477446 -2.470909 
L 445.509368 -2.470909 
L 444.541291 -2.470909 
L 443.573213 -2.470909 
L 442.605135 -2.470909 
L 441.637058 -2.470909 
L 440.66898 -2.470909 
L 439.700902 -2.470909 
L 438.732824 -2.470909 
L 437.764747 -2.470909 
L 436.796669 -2.470909 
L 435.828591 -2.470909 
L 434.860514 -2.470909 
L 433.892436 -2.470909 
L 432.924358 -2.470909 
L 431.95628 -2.470909 
L 430.988203 -2.470909 
L 430.020125 -2.470909 
L 429.052047 -2.470909 
L 428.083969 -2.470909 
L 427.115892 -2.470909 
L 426.147814 -2.470909 
L 425.179736 -2.470909 
L 424.211659 -2.470909 
L 423.243581 -2.470909 
L 422.275503 -2.470909 
L 421.307425 -2.470909 
L 420.339348 -2.470909 
L 419.37127 -2.470909 
L 418.403192 -2.470909 
L 417.435115 -2.470909 
L 416.467037 -2.470909 
L 415.498959 -2.470909 
L 414.530881 -2.470909 
L 413.562804 -2.470909 
L 412.594726 -2.470909 
L 411.626648 -2.470909 
L 410.65857 -2.470909 
L 409.690493 -2.470909 
L 408.722415 -2.470909 
L 407.754337 -2.470909 
L 406.78626 -2.470909 
L 405.818182 -2.470909 
L 404.850104 -2.470909 
L 403.882026 -2.470909 
L 402.913949 -2.470909 
L 401.945871 -2.470909 
L 400.977793 -2.470909 
L 400.009715 -2.470909 
L 399.041638 -2.470909 
L 398.07356 -2.470909 
L 397.105482 -2.470909 
L 396.137405 -2.470909 
z
" style="stroke: #cf1313; stroke-opacity: 0.2"/>
    </defs>
    <g clip-path="url(#pe24125b538)">
     <use xlink:href="#m7800ad72b3" x="0" y="54.36" style="fill: #cf1313; fill-opacity: 0.2; stroke: #cf1313; stroke-opacity: 0.2"/>
    </g>
   </g>
   <g id="PolyCollection_2">
    <defs>
     <path id="m602e31ad53" d="M 398.07356 -2.470909 
L 398.07356 -4.134823 
L 399.041638 -4.31515 
L 400.009715 -4.504702 
L 400.977793 -4.70397 
L 401.945871 -4.915369 
L 402.913949 -5.143361 
L 403.882026 -5.394073 
L 404.850104 -5.674353 
L 405.818182 -5.990381 
L 406.78626 -6.346131 
L 407.754337 -6.742094 
L 408.722415 -7.174654 
L 409.690493 -7.636312 
L 410.65857 -8.116735 
L 411.626648 -8.604302 
L 412.594726 -9.087746 
L 413.562804 -9.557505 
L 414.530881 -10.006605 
L 415.498959 -10.431117 
L 416.467037 -10.830378 
L 417.435115 -11.207163 
L 418.403192 -11.567827 
L 419.37127 -11.922306 
L 420.339348 -12.283748 
L 421.307425 -12.667649 
L 422.275503 -13.090496 
L 423.243581 -13.568106 
L 424.211659 -14.113889 
L 425.179736 -14.737275 
L 426.147814 -15.442456 
L 427.115892 -16.227594 
L 428.083969 -17.084653 
L 429.052047 -18.000023 
L 430.020125 -18.956052 
L 430.988203 -19.933423 
L 431.95628 -20.91412 
L 432.924358 -21.8844 
L 433.892436 -22.837132 
L 434.860514 -23.772806 
L 435.828591 -24.698796 
L 436.796669 -25.626862 
L 437.764747 -26.569343 
L 438.732824 -27.534937 
L 439.700902 -28.52517 
L 440.66898 -29.532568 
L 441.637058 -30.541106 
L 442.605135 -31.52891 
L 443.573213 -32.472523 
L 444.541291 -33.351587 
L 445.509368 -34.152728 
L 446.477446 -34.871741 
L 447.445524 -35.513734 
L 448.413602 -36.091487 
L 449.381679 -36.622643 
L 450.349757 -37.126434 
L 451.317835 -37.620452 
L 452.285913 -38.117839 
L 453.25399 -38.625133 
L 454.222068 -39.141076 
L 455.190146 -39.6567 
L 456.158223 -40.156837 
L 457.126301 -40.6229 
L 458.094379 -41.03637 
L 459.062457 -41.382179 
L 460.030534 -41.651226 
L 460.998612 -41.841573 
L 461.96669 -41.958289 
L 462.934768 -42.012269 
L 463.902845 -42.018429 
L 464.870923 -41.993619 
L 465.839001 -41.954385 
L 466.807078 -41.914571 
L 467.775156 -41.882804 
L 468.743234 -41.860083 
L 469.711312 -41.83799 
L 470.679389 -41.798228 
L 471.647467 -41.714165 
L 472.615545 -41.554635 
L 473.583622 -41.289569 
L 474.5517 -40.896243 
L 475.519778 -40.364438 
L 476.487856 -39.698951 
L 477.455933 -38.918594 
L 478.424011 -38.052046 
L 479.392089 -37.131893 
L 480.360167 -36.188699 
L 481.328244 -35.246648 
L 482.296322 -34.32148 
L 483.2644 -33.420551 
L 484.232477 -32.544301 
L 485.200555 -31.68834 
L 486.168633 -30.845673 
L 487.136711 -30.008843 
L 488.104788 -29.171917 
L 489.072866 -28.332049 
L 490.040944 -27.490231 
L 491.009022 -26.650887 
L 491.977099 -25.820276 
L 492.945177 -25.004169 
L 493.913255 -24.205635 
L 494.881332 -23.423827 
L 495.84941 -22.654266 
L 496.817488 -21.890551 
L 497.785566 -21.126826 
L 498.753643 -20.360061 
L 499.721721 -19.591336 
L 500.689799 -18.825705 
L 501.657876 -18.070806 
L 502.625954 -17.334729 
L 503.594032 -16.623886 
L 504.56211 -15.941477 
L 505.530187 -15.286906 
L 506.498265 -14.656184 
L 507.466343 -14.043112 
L 508.434421 -13.440899 
L 509.402498 -12.843804 
L 510.370576 -12.248447 
L 511.338654 -11.654518 
L 512.306731 -11.064742 
L 513.274809 -10.484182 
L 514.242887 -9.919106 
L 515.210965 -9.375788 
L 516.179042 -8.859574 
L 517.14712 -8.374423 
L 518.115198 -7.922914 
L 519.083276 -7.506542 
L 520.051353 -7.126015 
L 521.019431 -6.781368 
L 521.987509 -6.471819 
L 522.955586 -6.195463 
L 523.923664 -5.949025 
L 524.891742 -5.727834 
L 525.85982 -5.526152 
L 526.827897 -5.337819 
L 527.795975 -5.157079 
L 528.764053 -4.979366 
L 529.73213 -4.801843 
L 530.700208 -4.623554 
L 531.668286 -4.445194 
L 532.636364 -4.268592 
L 532.636364 -2.470909 
L 532.636364 -2.470909 
L 531.668286 -2.470909 
L 530.700208 -2.470909 
L 529.73213 -2.470909 
L 528.764053 -2.470909 
L 527.795975 -2.470909 
L 526.827897 -2.470909 
L 525.85982 -2.470909 
L 524.891742 -2.470909 
L 523.923664 -2.470909 
L 522.955586 -2.470909 
L 521.987509 -2.470909 
L 521.019431 -2.470909 
L 520.051353 -2.470909 
L 519.083276 -2.470909 
L 518.115198 -2.470909 
L 517.14712 -2.470909 
L 516.179042 -2.470909 
L 515.210965 -2.470909 
L 514.242887 -2.470909 
L 513.274809 -2.470909 
L 512.306731 -2.470909 
L 511.338654 -2.470909 
L 510.370576 -2.470909 
L 509.402498 -2.470909 
L 508.434421 -2.470909 
L 507.466343 -2.470909 
L 506.498265 -2.470909 
L 505.530187 -2.470909 
L 504.56211 -2.470909 
L 503.594032 -2.470909 
L 502.625954 -2.470909 
L 501.657876 -2.470909 
L 500.689799 -2.470909 
L 499.721721 -2.470909 
L 498.753643 -2.470909 
L 497.785566 -2.470909 
L 496.817488 -2.470909 
L 495.84941 -2.470909 
L 494.881332 -2.470909 
L 493.913255 -2.470909 
L 492.945177 -2.470909 
L 491.977099 -2.470909 
L 491.009022 -2.470909 
L 490.040944 -2.470909 
L 489.072866 -2.470909 
L 488.104788 -2.470909 
L 487.136711 -2.470909 
L 486.168633 -2.470909 
L 485.200555 -2.470909 
L 484.232477 -2.470909 
L 483.2644 -2.470909 
L 482.296322 -2.470909 
L 481.328244 -2.470909 
L 480.360167 -2.470909 
L 479.392089 -2.470909 
L 478.424011 -2.470909 
L 477.455933 -2.470909 
L 476.487856 -2.470909 
L 475.519778 -2.470909 
L 474.5517 -2.470909 
L 473.583622 -2.470909 
L 472.615545 -2.470909 
L 471.647467 -2.470909 
L 470.679389 -2.470909 
L 469.711312 -2.470909 
L 468.743234 -2.470909 
L 467.775156 -2.470909 
L 466.807078 -2.470909 
L 465.839001 -2.470909 
L 464.870923 -2.470909 
L 463.902845 -2.470909 
L 462.934768 -2.470909 
L 461.96669 -2.470909 
L 460.998612 -2.470909 
L 460.030534 -2.470909 
L 459.062457 -2.470909 
L 458.094379 -2.470909 
L 457.126301 -2.470909 
L 456.158223 -2.470909 
L 455.190146 -2.470909 
L 454.222068 -2.470909 
L 453.25399 -2.470909 
L 452.285913 -2.470909 
L 451.317835 -2.470909 
L 450.349757 -2.470909 
L 449.381679 -2.470909 
L 448.413602 -2.470909 
L 447.445524 -2.470909 
L 446.477446 -2.470909 
L 445.509368 -2.470909 
L 444.541291 -2.470909 
L 443.573213 -2.470909 
L 442.605135 -2.470909 
L 441.637058 -2.470909 
L 440.66898 -2.470909 
L 439.700902 -2.470909 
L 438.732824 -2.470909 
L 437.764747 -2.470909 
L 436.796669 -2.470909 
L 435.828591 -2.470909 
L 434.860514 -2.470909 
L 433.892436 -2.470909 
L 432.924358 -2.470909 
L 431.95628 -2.470909 
L 430.988203 -2.470909 
L 430.020125 -2.470909 
L 429.052047 -2.470909 
L 428.083969 -2.470909 
L 427.115892 -2.470909 
L 426.147814 -2.470909 
L 425.179736 -2.470909 
L 424.211659 -2.470909 
L 423.243581 -2.470909 
L 422.275503 -2.470909 
L 421.307425 -2.470909 
L 420.339348 -2.470909 
L 419.37127 -2.470909 
L 418.403192 -2.470909 
L 417.435115 -2.470909 
L 416.467037 -2.470909 
L 415.498959 -2.470909 
L 414.530881 -2.470909 
L 413.562804 -2.470909 
L 412.594726 -2.470909 
L 411.626648 -2.470909 
L 410.65857 -2.470909 
L 409.690493 -2.470909 
L 408.722415 -2.470909 
L 407.754337 -2.470909 
L 406.78626 -2.470909 
L 405.818182 -2.470909 
L 404.850104 -2.470909 
L 403.882026 -2.470909 
L 402.913949 -2.470909 
L 401.945871 -2.470909 
L 400.977793 -2.470909 
L 400.009715 -2.470909 
L 399.041638 -2.470909 
L 398.07356 -2.470909 
z
" style="stroke: #116dc2; stroke-opacity: 0.2"/>
    </defs>
    <g clip-path="url(#pe24125b538)">
     <use xlink:href="#m602e31ad53" x="0" y="54.36" style="fill: #116dc2; fill-opacity: 0.2; stroke: #116dc2; stroke-opacity: 0.2"/>
    </g>
   </g>
   <g id="PolyCollection_3">
    <defs>
     <path id="mc5dd2a6b39" d="M 25.363636 -2.470909 
L 25.363636 -4.663642 
L 26.331714 -5.40444 
L 27.299792 -6.403557 
L 28.26787 -7.494494 
L 29.235947 -8.509362 
L 30.204025 -9.604803 
L 31.172103 -11.070065 
L 32.14018 -12.951252 
L 33.108258 -15.077413 
L 34.076336 -17.299683 
L 35.044414 -19.610129 
L 36.012491 -22.150849 
L 36.980569 -25.0581 
L 37.948647 -28.216044 
L 38.916724 -31.409497 
L 39.884802 -34.710414 
L 40.85288 -38.216152 
L 41.820958 -41.657187 
L 42.789035 -44.858698 
L 43.757113 -47.843583 
L 44.725191 -50.275202 
L 45.693269 -51.632456 
L 46.661346 -51.889091 
L 47.629424 -51.657179 
L 48.597502 -51.29718 
L 49.565579 -50.412457 
L 50.533657 -48.65636 
L 51.501735 -46.276785 
L 52.469813 -43.825697 
L 53.43789 -41.595959 
L 54.405968 -39.331417 
L 55.374046 -36.726893 
L 56.342124 -33.817323 
L 57.310201 -30.680609 
L 58.278279 -27.453126 
L 59.246357 -24.475465 
L 60.214434 -21.812285 
L 61.182512 -19.155253 
L 62.15059 -16.451737 
L 63.118668 -14.033482 
L 64.086745 -12.105779 
L 65.054823 -10.477612 
L 66.022901 -8.91169 
L 66.990978 -7.459484 
L 67.959056 -6.283738 
L 68.927134 -5.425755 
L 69.895212 -4.815855 
L 70.863289 -4.341452 
L 70.863289 -2.470909 
L 70.863289 -2.470909 
L 69.895212 -2.470909 
L 68.927134 -2.470909 
L 67.959056 -2.470909 
L 66.990978 -2.470909 
L 66.022901 -2.470909 
L 65.054823 -2.470909 
L 64.086745 -2.470909 
L 63.118668 -2.470909 
L 62.15059 -2.470909 
L 61.182512 -2.470909 
L 60.214434 -2.470909 
L 59.246357 -2.470909 
L 58.278279 -2.470909 
L 57.310201 -2.470909 
L 56.342124 -2.470909 
L 55.374046 -2.470909 
L 54.405968 -2.470909 
L 53.43789 -2.470909 
L 52.469813 -2.470909 
L 51.501735 -2.470909 
L 50.533657 -2.470909 
L 49.565579 -2.470909 
L 48.597502 -2.470909 
L 47.629424 -2.470909 
L 46.661346 -2.470909 
L 45.693269 -2.470909 
L 44.725191 -2.470909 
L 43.757113 -2.470909 
L 42.789035 -2.470909 
L 41.820958 -2.470909 
L 40.85288 -2.470909 
L 39.884802 -2.470909 
L 38.916724 -2.470909 
L 37.948647 -2.470909 
L 36.980569 -2.470909 
L 36.012491 -2.470909 
L 35.044414 -2.470909 
L 34.076336 -2.470909 
L 33.108258 -2.470909 
L 32.14018 -2.470909 
L 31.172103 -2.470909 
L 30.204025 -2.470909 
L 29.235947 -2.470909 
L 28.26787 -2.470909 
L 27.299792 -2.470909 
L 26.331714 -2.470909 
L 25.363636 -2.470909 
z
" style="stroke: #8a8a8a; stroke-opacity: 0.2"/>
    </defs>
    <g clip-path="url(#pe24125b538)">
     <use xlink:href="#mc5dd2a6b39" x="0" y="54.36" style="fill: #8a8a8a; fill-opacity: 0.2; stroke: #8a8a8a; stroke-opacity: 0.2"/>
    </g>
   </g>
   <g id="line2d_1">
    <path d="M 396.137405 50.70463 
L 399.041638 50.292036 
L 402.913949 49.466819 
L 407.754337 48.210173 
L 410.65857 47.158676 
L 413.562804 45.76988 
L 418.403192 43.09452 
L 421.307425 41.283559 
L 424.211659 39.229597 
L 430.988203 34.034214 
L 436.796669 29.274467 
L 445.509368 22.030291 
L 448.413602 20.034718 
L 451.317835 18.313063 
L 460.998612 13.080102 
L 462.934768 12.405947 
L 463.902845 12.233724 
L 464.870923 12.182642 
L 466.807078 12.416053 
L 468.743234 12.969982 
L 475.519778 15.356226 
L 477.455933 16.25046 
L 479.392089 17.429072 
L 481.328244 18.888842 
L 485.200555 22.267836 
L 491.009022 27.278815 
L 496.817488 32.355539 
L 503.594032 38.350887 
L 505.530187 39.833099 
L 507.466343 41.104644 
L 510.370576 42.682203 
L 515.210965 45.013999 
L 518.115198 46.169496 
L 521.019431 47.012385 
L 532.636364 49.997008 
L 532.636364 49.997008 
" clip-path="url(#pe24125b538)" style="fill: none; stroke: #cf1313; stroke-width: 1.5; stroke-linecap: square"/>
   </g>
   <g id="line2d_2">
    <path d="M 398.07356 50.225177 
L 402.913949 49.216639 
L 405.818182 48.369619 
L 408.722415 47.185346 
L 417.435115 43.152837 
L 422.275503 41.269504 
L 424.211659 40.246111 
L 426.147814 38.917544 
L 428.083969 37.275347 
L 430.988203 34.426577 
L 435.828591 29.661204 
L 439.700902 25.83483 
L 443.573213 21.887477 
L 445.509368 20.207272 
L 447.445524 18.846266 
L 450.349757 17.233566 
L 458.094379 13.32363 
L 460.030534 12.708774 
L 461.96669 12.401711 
L 463.902845 12.341571 
L 471.647467 12.645835 
L 473.583622 13.070431 
L 474.5517 13.463757 
L 475.519778 13.995562 
L 477.455933 15.441406 
L 480.360167 18.171301 
L 484.232477 21.815699 
L 491.977099 28.539724 
L 495.84941 31.705734 
L 503.594032 37.736114 
L 506.498265 39.703816 
L 513.274809 43.875818 
L 516.179042 45.500426 
L 519.083276 46.853458 
L 521.987509 47.888181 
L 524.891742 48.632166 
L 530.700208 49.736446 
L 532.636364 50.091408 
L 532.636364 50.091408 
" clip-path="url(#pe24125b538)" style="fill: none; stroke: #116dc2; stroke-width: 1.5; stroke-linecap: square"/>
   </g>
   <g id="line2d_3">
    <path d="M 25.363636 49.696358 
L 26.331714 48.95556 
L 27.299792 47.956443 
L 28.26787 46.865506 
L 29.235947 45.850638 
L 30.204025 44.755197 
L 31.172103 43.289935 
L 32.14018 41.408748 
L 33.108258 39.282587 
L 34.076336 37.060317 
L 35.044414 34.749871 
L 36.012491 32.209151 
L 36.980569 29.3019 
L 37.948647 26.143956 
L 38.916724 22.950503 
L 39.884802 19.649586 
L 40.85288 16.143848 
L 41.820958 12.702813 
L 42.789035 9.501302 
L 43.757113 6.516417 
L 44.725191 4.084798 
L 45.693269 2.727544 
L 46.661346 2.470909 
L 47.629424 2.702821 
L 48.597502 3.06282 
L 49.565579 3.947543 
L 50.533657 5.70364 
L 51.501735 8.083215 
L 52.469813 10.534303 
L 53.43789 12.764041 
L 54.405968 15.028583 
L 55.374046 17.633107 
L 56.342124 20.542677 
L 57.310201 23.679391 
L 58.278279 26.906874 
L 59.246357 29.884535 
L 60.214434 32.547715 
L 61.182512 35.204747 
L 62.15059 37.908263 
L 63.118668 40.326518 
L 64.086745 42.254221 
L 65.054823 43.882388 
L 66.022901 45.44831 
L 66.990978 46.900516 
L 67.959056 48.076262 
L 68.927134 48.934245 
L 69.895212 49.544145 
L 70.863289 50.018548 
" clip-path="url(#pe24125b538)" style="fill: none; stroke: #8a8a8a; stroke-width: 1.5; stroke-linecap: square"/>
   </g>
  </g>
 </g>
 <defs>
  <clipPath id="pe24125b538">
   <rect x="0" y="-0" width="558" height="54.36"/>
  </clipPath>
 </defs>
</svg>
