<?xml version="1.0" encoding="utf-8" standalone="no"?>
<!DOCTYPE svg PUBLIC "-//W3C//DTD SVG 1.1//EN"
  "http://www.w3.org/Graphics/SVG/1.1/DTD/svg11.dtd">
<svg xmlns:xlink="http://www.w3.org/1999/xlink" width="558pt" height="54.36pt" viewBox="0 0 558 54.36" xmlns="http://www.w3.org/2000/svg" version="1.1">
 <metadata>
  <rdf:RDF xmlns:dc="http://purl.org/dc/elements/1.1/" xmlns:cc="http://creativecommons.org/ns#" xmlns:rdf="http://www.w3.org/1999/02/22-rdf-syntax-ns#">
   <cc:Work>
    <dc:type rdf:resource="http://purl.org/dc/dcmitype/StillImage"/>
    <dc:date>2024-09-15T09:31:13.327595</dc:date>
    <dc:format>image/svg+xml</dc:format>
    <dc:creator>
     <cc:Agent>
      <dc:title>Matplotlib v3.5.2, https://matplotlib.org/</dc:title>
     </cc:Agent>
    </dc:creator>
   </cc:Work>
  </rdf:RDF>
 </metadata>
 <defs>
  <style type="text/css">*{stroke-linejoin: round; stroke-linecap: butt}</style>
 </defs>
 <g id="figure_1">
  <g id="patch_1">
   <path d="M 0 54.36 
L 558 54.36 
L 558 0 
L 0 0 
L 0 54.36 
z
" style="fill: none; opacity: 0"/>
  </g>
  <g id="axes_1">
   <g id="PolyCollection_1">
    <defs>
     <path id="m5fb0e32388" d="M 403.140639 -2.470909 
L 403.140639 -4.112035 
L 404.114291 -4.278946 
L 405.087943 -4.453765 
L 406.061595 -4.63549 
L 407.035247 -4.82395 
L 408.008899 -5.019872 
L 408.982551 -5.224892 
L 409.956203 -5.441584 
L 410.929855 -5.673443 
L 411.903507 -5.924697 
L 412.877159 -6.199857 
L 413.850811 -6.503026 
L 414.824463 -6.837158 
L 415.798116 -7.20355 
L 416.771768 -7.601782 
L 417.74542 -8.030193 
L 418.719072 -8.486693 
L 419.692724 -8.969677 
L 420.666376 -9.478737 
L 421.640028 -10.015022 
L 422.61368 -10.58121 
L 423.587332 -11.181145 
L 424.560984 -11.819199 
L 425.534636 -12.499436 
L 426.508288 -13.224676 
L 427.48194 -13.995594 
L 428.455592 -14.810039 
L 429.429244 -15.662768 
L 430.402897 -16.545727 
L 431.376549 -17.44891 
L 432.350201 -18.361665 
L 433.323853 -19.274196 
L 434.297505 -20.178862 
L 435.271157 -21.070909 
L 436.244809 -21.948418 
L 437.218461 -22.811487 
L 438.192113 -23.661012 
L 439.165765 -24.497496 
L 440.139417 -25.32035 
L 441.113069 -26.127855 
L 442.086721 -26.917746 
L 443.060373 -27.688184 
L 444.034025 -28.438878 
L 445.007678 -29.172077 
L 445.98133 -29.893224 
L 446.954982 -30.610912 
L 447.928634 -31.335871 
L 448.902286 -32.078831 
L 449.875938 -32.847573 
L 450.84959 -33.643963 
L 451.823242 -34.46209 
L 452.796894 -35.288463 
L 453.770546 -36.104516 
L 454.744198 -36.890685 
L 455.71785 -37.630575 
L 456.691502 -38.313607 
L 457.665154 -38.935292 
L 458.638806 -39.495453 
L 459.612459 -39.995732 
L 460.586111 -40.437914 
L 461.559763 -40.823886 
L 462.533415 -41.156803 
L 463.507067 -41.442075 
L 464.480719 -41.686758 
L 465.454371 -41.896856 
L 466.428023 -42.073432 
L 467.401675 -42.209418 
L 468.375327 -42.289065 
L 469.348979 -42.290913 
L 470.322631 -42.193679 
L 471.296283 -41.983119 
L 472.269935 -41.657482 
L 473.243588 -41.229622 
L 474.21724 -40.725016 
L 475.190892 -40.176227 
L 476.164544 -39.615436 
L 477.138196 -39.06711 
L 478.111848 -38.54282 
L 479.0855 -38.039548 
L 480.059152 -37.541847 
L 481.032804 -37.027116 
L 482.006456 -36.472391 
L 482.980108 -35.86064 
L 483.95376 -35.184834 
L 484.927412 -34.448878 
L 485.901064 -33.665524 
L 486.874716 -32.852318 
L 487.848369 -32.027059 
L 488.822021 -31.204079 
L 489.795673 -30.392137 
L 490.769325 -29.594018 
L 491.742977 -28.807437 
L 492.716629 -28.026652 
L 493.690281 -27.244275 
L 494.663933 -26.452991 
L 495.637585 -25.647042 
L 496.611237 -24.823401 
L 497.584889 -23.982536 
L 498.558541 -23.128552 
L 499.532193 -22.268623 
L 500.505845 -21.411741 
L 501.479497 -20.567103 
L 502.45315 -19.742617 
L 503.426802 -18.944023 
L 504.400454 -18.174837 
L 505.374106 -17.437005 
L 506.347758 -16.731789 
L 507.32141 -16.060319 
L 508.295062 -15.423413 
L 509.268714 -14.820659 
L 510.242366 -14.249176 
L 511.216018 -13.702725 
L 512.18967 -13.171803 
L 513.163322 -12.645029 
L 514.136974 -12.111599 
L 515.110626 -11.564138 
L 516.084278 -11.001002 
L 517.057931 -10.427226 
L 518.031583 -9.853704 
L 519.005235 -9.294768 
L 519.978887 -8.764856 
L 520.952539 -8.275211 
L 521.926191 -7.831547 
L 522.899843 -7.433265 
L 523.873495 -7.07434 
L 524.847147 -6.745489 
L 525.820799 -6.436898 
L 526.794451 -6.140661 
L 527.768103 -5.852268 
L 528.741755 -5.570828 
L 529.715407 -5.298168 
L 530.68906 -5.037297 
L 531.662712 -4.79087 
L 532.636364 -4.560177 
L 532.636364 -2.470909 
L 532.636364 -2.470909 
L 531.662712 -2.470909 
L 530.68906 -2.470909 
L 529.715407 -2.470909 
L 528.741755 -2.470909 
L 527.768103 -2.470909 
L 526.794451 -2.470909 
L 525.820799 -2.470909 
L 524.847147 -2.470909 
L 523.873495 -2.470909 
L 522.899843 -2.470909 
L 521.926191 -2.470909 
L 520.952539 -2.470909 
L 519.978887 -2.470909 
L 519.005235 -2.470909 
L 518.031583 -2.470909 
L 517.057931 -2.470909 
L 516.084278 -2.470909 
L 515.110626 -2.470909 
L 514.136974 -2.470909 
L 513.163322 -2.470909 
L 512.18967 -2.470909 
L 511.216018 -2.470909 
L 510.242366 -2.470909 
L 509.268714 -2.470909 
L 508.295062 -2.470909 
L 507.32141 -2.470909 
L 506.347758 -2.470909 
L 505.374106 -2.470909 
L 504.400454 -2.470909 
L 503.426802 -2.470909 
L 502.45315 -2.470909 
L 501.479497 -2.470909 
L 500.505845 -2.470909 
L 499.532193 -2.470909 
L 498.558541 -2.470909 
L 497.584889 -2.470909 
L 496.611237 -2.470909 
L 495.637585 -2.470909 
L 494.663933 -2.470909 
L 493.690281 -2.470909 
L 492.716629 -2.470909 
L 491.742977 -2.470909 
L 490.769325 -2.470909 
L 489.795673 -2.470909 
L 488.822021 -2.470909 
L 487.848369 -2.470909 
L 486.874716 -2.470909 
L 485.901064 -2.470909 
L 484.927412 -2.470909 
L 483.95376 -2.470909 
L 482.980108 -2.470909 
L 482.006456 -2.470909 
L 481.032804 -2.470909 
L 480.059152 -2.470909 
L 479.0855 -2.470909 
L 478.111848 -2.470909 
L 477.138196 -2.470909 
L 476.164544 -2.470909 
L 475.190892 -2.470909 
L 474.21724 -2.470909 
L 473.243588 -2.470909 
L 472.269935 -2.470909 
L 471.296283 -2.470909 
L 470.322631 -2.470909 
L 469.348979 -2.470909 
L 468.375327 -2.470909 
L 467.401675 -2.470909 
L 466.428023 -2.470909 
L 465.454371 -2.470909 
L 464.480719 -2.470909 
L 463.507067 -2.470909 
L 462.533415 -2.470909 
L 461.559763 -2.470909 
L 460.586111 -2.470909 
L 459.612459 -2.470909 
L 458.638806 -2.470909 
L 457.665154 -2.470909 
L 456.691502 -2.470909 
L 455.71785 -2.470909 
L 454.744198 -2.470909 
L 453.770546 -2.470909 
L 452.796894 -2.470909 
L 451.823242 -2.470909 
L 450.84959 -2.470909 
L 449.875938 -2.470909 
L 448.902286 -2.470909 
L 447.928634 -2.470909 
L 446.954982 -2.470909 
L 445.98133 -2.470909 
L 445.007678 -2.470909 
L 444.034025 -2.470909 
L 443.060373 -2.470909 
L 442.086721 -2.470909 
L 441.113069 -2.470909 
L 440.139417 -2.470909 
L 439.165765 -2.470909 
L 438.192113 -2.470909 
L 437.218461 -2.470909 
L 436.244809 -2.470909 
L 435.271157 -2.470909 
L 434.297505 -2.470909 
L 433.323853 -2.470909 
L 432.350201 -2.470909 
L 431.376549 -2.470909 
L 430.402897 -2.470909 
L 429.429244 -2.470909 
L 428.455592 -2.470909 
L 427.48194 -2.470909 
L 426.508288 -2.470909 
L 425.534636 -2.470909 
L 424.560984 -2.470909 
L 423.587332 -2.470909 
L 422.61368 -2.470909 
L 421.640028 -2.470909 
L 420.666376 -2.470909 
L 419.692724 -2.470909 
L 418.719072 -2.470909 
L 417.74542 -2.470909 
L 416.771768 -2.470909 
L 415.798116 -2.470909 
L 414.824463 -2.470909 
L 413.850811 -2.470909 
L 412.877159 -2.470909 
L 411.903507 -2.470909 
L 410.929855 -2.470909 
L 409.956203 -2.470909 
L 408.982551 -2.470909 
L 408.008899 -2.470909 
L 407.035247 -2.470909 
L 406.061595 -2.470909 
L 405.087943 -2.470909 
L 404.114291 -2.470909 
L 403.140639 -2.470909 
z
" style="stroke: #cf1313; stroke-opacity: 0.2"/>
    </defs>
    <g clip-path="url(#p536aa6a4d1)">
     <use xlink:href="#m5fb0e32388" x="0" y="54.36" style="fill: #cf1313; fill-opacity: 0.2; stroke: #cf1313; stroke-opacity: 0.2"/>
    </g>
   </g>
   <g id="PolyCollection_2">
    <defs>
     <path id="m06616b9c60" d="M 399.24603 -2.470909 
L 399.24603 -4.298964 
L 400.219682 -4.458293 
L 401.193334 -4.630792 
L 402.166987 -4.823625 
L 403.140639 -5.043233 
L 404.114291 -5.293964 
L 405.087943 -5.5771 
L 406.061595 -5.890559 
L 407.035247 -6.229382 
L 408.008899 -6.586824 
L 408.982551 -6.955713 
L 409.956203 -7.32968 
L 410.929855 -7.703962 
L 411.903507 -8.075694 
L 412.877159 -8.443821 
L 413.850811 -8.808852 
L 414.824463 -9.172655 
L 415.798116 -9.538404 
L 416.771768 -9.910642 
L 417.74542 -10.295314 
L 418.719072 -10.699638 
L 419.692724 -11.131652 
L 420.666376 -11.59935 
L 421.640028 -12.109447 
L 422.61368 -12.665935 
L 423.587332 -13.268811 
L 424.560984 -13.913441 
L 425.534636 -14.591027 
L 426.508288 -15.290322 
L 427.48194 -16.000309 
L 428.455592 -16.713099 
L 429.429244 -17.426033 
L 430.402897 -18.142207 
L 431.376549 -18.869136 
L 432.350201 -19.616029 
L 433.323853 -20.390666 
L 434.297505 -21.197036 
L 435.271157 -22.03449 
L 436.244809 -22.898571 
L 437.218461 -23.782991 
L 438.192113 -24.681857 
L 439.165765 -25.591284 
L 440.139417 -26.50985 
L 441.113069 -27.437887 
L 442.086721 -28.376036 
L 443.060373 -29.32375 
L 444.034025 -30.278366 
L 445.007678 -31.235073 
L 445.98133 -32.187679 
L 446.954982 -33.129729 
L 447.928634 -34.055396 
L 448.902286 -34.959737 
L 449.875938 -35.838277 
L 450.84959 -36.686252 
L 451.823242 -37.498014 
L 452.796894 -38.266957 
L 453.770546 -38.985953 
L 454.744198 -39.647923 
L 455.71785 -40.246065 
L 456.691502 -40.773555 
L 457.665154 -41.223017 
L 458.638806 -41.58653 
L 459.612459 -41.856891 
L 460.586111 -42.030259 
L 461.559763 -42.109424 
L 462.533415 -42.106142 
L 463.507067 -42.040951 
L 464.480719 -41.939696 
L 465.454371 -41.827355 
L 466.428023 -41.721152 
L 467.401675 -41.625494 
L 468.375327 -41.530825 
L 469.348979 -41.417056 
L 470.322631 -41.260431 
L 471.296283 -41.041401 
L 472.269935 -40.750654 
L 473.243588 -40.391299 
L 474.21724 -39.976794 
L 475.190892 -39.525822 
L 476.164544 -39.056364 
L 477.138196 -38.58108 
L 478.111848 -38.105175 
L 479.0855 -37.626649 
L 480.059152 -37.137951 
L 481.032804 -36.627979 
L 482.006456 -36.08388 
L 482.980108 -35.492767 
L 483.95376 -34.843753 
L 484.927412 -34.130405 
L 485.901064 -33.353049 
L 486.874716 -32.51989 
L 487.848369 -31.645996 
L 488.822021 -30.749935 
L 489.795673 -29.848935 
L 490.769325 -28.954222 
L 491.742977 -28.068273 
L 492.716629 -27.185028 
L 493.690281 -26.292912 
L 494.663933 -25.37946 
L 495.637585 -24.43585 
L 496.611237 -23.459925 
L 497.584889 -22.457049 
L 498.558541 -21.439044 
L 499.532193 -20.421995 
L 500.505845 -19.423758 
L 501.479497 -18.46173 
L 502.45315 -17.551009 
L 503.426802 -16.702883 
L 504.400454 -15.923638 
L 505.374106 -15.213831 
L 506.347758 -14.568323 
L 507.32141 -13.977218 
L 508.295062 -13.427626 
L 509.268714 -12.905831 
L 510.242366 -12.399316 
L 511.216018 -11.898229 
L 512.18967 -11.396124 
L 513.163322 -10.89009 
L 514.136974 -10.380511 
L 515.110626 -9.87065 
L 516.084278 -9.366097 
L 517.057931 -8.873989 
L 518.031583 -8.40195 
L 519.005235 -7.956803 
L 519.978887 -7.543311 
L 520.952539 -7.163283 
L 521.926191 -6.815338 
L 522.899843 -6.495446 
L 523.873495 -6.198064 
L 524.847147 -5.917524 
L 525.820799 -5.649236 
L 526.794451 -5.390383 
L 527.768103 -5.14002 
L 528.741755 -4.898704 
L 529.715407 -4.667915 
L 530.68906 -4.449541 
L 531.662712 -4.245534 
L 532.636364 -4.057731 
L 532.636364 -2.470909 
L 532.636364 -2.470909 
L 531.662712 -2.470909 
L 530.68906 -2.470909 
L 529.715407 -2.470909 
L 528.741755 -2.470909 
L 527.768103 -2.470909 
L 526.794451 -2.470909 
L 525.820799 -2.470909 
L 524.847147 -2.470909 
L 523.873495 -2.470909 
L 522.899843 -2.470909 
L 521.926191 -2.470909 
L 520.952539 -2.470909 
L 519.978887 -2.470909 
L 519.005235 -2.470909 
L 518.031583 -2.470909 
L 517.057931 -2.470909 
L 516.084278 -2.470909 
L 515.110626 -2.470909 
L 514.136974 -2.470909 
L 513.163322 -2.470909 
L 512.18967 -2.470909 
L 511.216018 -2.470909 
L 510.242366 -2.470909 
L 509.268714 -2.470909 
L 508.295062 -2.470909 
L 507.32141 -2.470909 
L 506.347758 -2.470909 
L 505.374106 -2.470909 
L 504.400454 -2.470909 
L 503.426802 -2.470909 
L 502.45315 -2.470909 
L 501.479497 -2.470909 
L 500.505845 -2.470909 
L 499.532193 -2.470909 
L 498.558541 -2.470909 
L 497.584889 -2.470909 
L 496.611237 -2.470909 
L 495.637585 -2.470909 
L 494.663933 -2.470909 
L 493.690281 -2.470909 
L 492.716629 -2.470909 
L 491.742977 -2.470909 
L 490.769325 -2.470909 
L 489.795673 -2.470909 
L 488.822021 -2.470909 
L 487.848369 -2.470909 
L 486.874716 -2.470909 
L 485.901064 -2.470909 
L 484.927412 -2.470909 
L 483.95376 -2.470909 
L 482.980108 -2.470909 
L 482.006456 -2.470909 
L 481.032804 -2.470909 
L 480.059152 -2.470909 
L 479.0855 -2.470909 
L 478.111848 -2.470909 
L 477.138196 -2.470909 
L 476.164544 -2.470909 
L 475.190892 -2.470909 
L 474.21724 -2.470909 
L 473.243588 -2.470909 
L 472.269935 -2.470909 
L 471.296283 -2.470909 
L 470.322631 -2.470909 
L 469.348979 -2.470909 
L 468.375327 -2.470909 
L 467.401675 -2.470909 
L 466.428023 -2.470909 
L 465.454371 -2.470909 
L 464.480719 -2.470909 
L 463.507067 -2.470909 
L 462.533415 -2.470909 
L 461.559763 -2.470909 
L 460.586111 -2.470909 
L 459.612459 -2.470909 
L 458.638806 -2.470909 
L 457.665154 -2.470909 
L 456.691502 -2.470909 
L 455.71785 -2.470909 
L 454.744198 -2.470909 
L 453.770546 -2.470909 
L 452.796894 -2.470909 
L 451.823242 -2.470909 
L 450.84959 -2.470909 
L 449.875938 -2.470909 
L 448.902286 -2.470909 
L 447.928634 -2.470909 
L 446.954982 -2.470909 
L 445.98133 -2.470909 
L 445.007678 -2.470909 
L 444.034025 -2.470909 
L 443.060373 -2.470909 
L 442.086721 -2.470909 
L 441.113069 -2.470909 
L 440.139417 -2.470909 
L 439.165765 -2.470909 
L 438.192113 -2.470909 
L 437.218461 -2.470909 
L 436.244809 -2.470909 
L 435.271157 -2.470909 
L 434.297505 -2.470909 
L 433.323853 -2.470909 
L 432.350201 -2.470909 
L 431.376549 -2.470909 
L 430.402897 -2.470909 
L 429.429244 -2.470909 
L 428.455592 -2.470909 
L 427.48194 -2.470909 
L 426.508288 -2.470909 
L 425.534636 -2.470909 
L 424.560984 -2.470909 
L 423.587332 -2.470909 
L 422.61368 -2.470909 
L 421.640028 -2.470909 
L 420.666376 -2.470909 
L 419.692724 -2.470909 
L 418.719072 -2.470909 
L 417.74542 -2.470909 
L 416.771768 -2.470909 
L 415.798116 -2.470909 
L 414.824463 -2.470909 
L 413.850811 -2.470909 
L 412.877159 -2.470909 
L 411.903507 -2.470909 
L 410.929855 -2.470909 
L 409.956203 -2.470909 
L 408.982551 -2.470909 
L 408.008899 -2.470909 
L 407.035247 -2.470909 
L 406.061595 -2.470909 
L 405.087943 -2.470909 
L 404.114291 -2.470909 
L 403.140639 -2.470909 
L 402.166987 -2.470909 
L 401.193334 -2.470909 
L 400.219682 -2.470909 
L 399.24603 -2.470909 
z
" style="stroke: #116dc2; stroke-opacity: 0.2"/>
    </defs>
    <g clip-path="url(#p536aa6a4d1)">
     <use xlink:href="#m06616b9c60" x="0" y="54.36" style="fill: #116dc2; fill-opacity: 0.2; stroke: #116dc2; stroke-opacity: 0.2"/>
    </g>
   </g>
   <g id="PolyCollection_3">
    <defs>
     <path id="m00c167b1af" d="M 25.363636 -2.470909 
L 25.363636 -4.693652 
L 26.337288 -5.201104 
L 27.31094 -5.825886 
L 28.284593 -6.710777 
L 29.258245 -7.871465 
L 30.231897 -9.219884 
L 31.205549 -10.679922 
L 32.179201 -12.388657 
L 33.152853 -14.563985 
L 34.126505 -17.12792 
L 35.100157 -19.757003 
L 36.073809 -22.348039 
L 37.047461 -25.085579 
L 38.021113 -28.022187 
L 38.994765 -31.232861 
L 39.968417 -35.028884 
L 40.942069 -39.162592 
L 41.915722 -42.616724 
L 42.889374 -44.882704 
L 43.863026 -46.581879 
L 44.836678 -48.297733 
L 45.81033 -49.701699 
L 46.783982 -50.563748 
L 47.757634 -51.298754 
L 48.731286 -51.889091 
L 49.704938 -51.627185 
L 50.67859 -50.267288 
L 51.652242 -48.337629 
L 52.625894 -46.165502 
L 53.599546 -43.536301 
L 54.573198 -40.213282 
L 55.54685 -36.391187 
L 56.520503 -32.586943 
L 57.494155 -29.202709 
L 58.467807 -26.279617 
L 59.441459 -23.530587 
L 60.415111 -20.851086 
L 61.388763 -18.485945 
L 62.362415 -16.399112 
L 63.336067 -14.281684 
L 64.309719 -12.108608 
L 65.283371 -10.053106 
L 66.257023 -8.287211 
L 67.230675 -6.959168 
L 68.204327 -6.030513 
L 69.177979 -5.31073 
L 70.151631 -4.66486 
L 70.151631 -2.470909 
L 70.151631 -2.470909 
L 69.177979 -2.470909 
L 68.204327 -2.470909 
L 67.230675 -2.470909 
L 66.257023 -2.470909 
L 65.283371 -2.470909 
L 64.309719 -2.470909 
L 63.336067 -2.470909 
L 62.362415 -2.470909 
L 61.388763 -2.470909 
L 60.415111 -2.470909 
L 59.441459 -2.470909 
L 58.467807 -2.470909 
L 57.494155 -2.470909 
L 56.520503 -2.470909 
L 55.54685 -2.470909 
L 54.573198 -2.470909 
L 53.599546 -2.470909 
L 52.625894 -2.470909 
L 51.652242 -2.470909 
L 50.67859 -2.470909 
L 49.704938 -2.470909 
L 48.731286 -2.470909 
L 47.757634 -2.470909 
L 46.783982 -2.470909 
L 45.81033 -2.470909 
L 44.836678 -2.470909 
L 43.863026 -2.470909 
L 42.889374 -2.470909 
L 41.915722 -2.470909 
L 40.942069 -2.470909 
L 39.968417 -2.470909 
L 38.994765 -2.470909 
L 38.021113 -2.470909 
L 37.047461 -2.470909 
L 36.073809 -2.470909 
L 35.100157 -2.470909 
L 34.126505 -2.470909 
L 33.152853 -2.470909 
L 32.179201 -2.470909 
L 31.205549 -2.470909 
L 30.231897 -2.470909 
L 29.258245 -2.470909 
L 28.284593 -2.470909 
L 27.31094 -2.470909 
L 26.337288 -2.470909 
L 25.363636 -2.470909 
z
" style="stroke: #8a8a8a; stroke-opacity: 0.2"/>
    </defs>
    <g clip-path="url(#p536aa6a4d1)">
     <use xlink:href="#m00c167b1af" x="0" y="54.36" style="fill: #8a8a8a; fill-opacity: 0.2; stroke: #8a8a8a; stroke-opacity: 0.2"/>
    </g>
   </g>
   <g id="line2d_1">
    <path d="M 403.140639 50.247965 
L 408.982551 49.135108 
L 412.877159 48.160143 
L 415.798116 47.15645 
L 418.719072 45.873307 
L 421.640028 44.344978 
L 424.560984 42.540801 
L 426.508288 41.135324 
L 429.429244 38.697232 
L 441.113069 28.232145 
L 445.007678 25.187923 
L 449.875938 21.512427 
L 456.691502 16.046393 
L 458.638806 14.864547 
L 460.586111 13.922086 
L 462.533415 13.203197 
L 465.454371 12.463144 
L 467.401675 12.150582 
L 469.348979 12.069087 
L 470.322631 12.166321 
L 471.296283 12.376881 
L 473.243588 13.130378 
L 476.164544 14.744564 
L 480.059152 16.818153 
L 482.006456 17.887609 
L 483.95376 19.175166 
L 486.874716 21.507682 
L 492.716629 26.333348 
L 497.584889 30.377464 
L 503.426802 35.415977 
L 506.347758 37.628211 
L 509.268714 39.539341 
L 513.163322 41.714971 
L 518.031583 44.506296 
L 520.952539 46.084789 
L 522.899843 46.926735 
L 525.820799 47.923102 
L 530.68906 49.322703 
L 532.636364 49.799823 
L 532.636364 49.799823 
" clip-path="url(#p536aa6a4d1)" style="fill: none; stroke: #cf1313; stroke-width: 1.5; stroke-linecap: square"/>
   </g>
   <g id="line2d_2">
    <path d="M 399.24603 50.061036 
L 403.140639 49.316767 
L 406.061595 48.469441 
L 409.956203 47.03032 
L 419.692724 43.228348 
L 421.640028 42.250553 
L 423.587332 41.091189 
L 426.508288 39.069678 
L 433.323853 33.969334 
L 436.244809 31.461429 
L 441.113069 26.922113 
L 450.84959 17.673748 
L 453.770546 15.374047 
L 455.71785 14.113935 
L 457.665154 13.136983 
L 459.612459 12.503109 
L 461.559763 12.250576 
L 463.507067 12.319049 
L 470.322631 13.099569 
L 472.269935 13.609346 
L 474.21724 14.383206 
L 479.0855 16.733351 
L 482.006456 18.27612 
L 483.95376 19.516247 
L 485.901064 21.006951 
L 488.822021 23.610065 
L 496.611237 30.900075 
L 502.45315 36.808991 
L 504.400454 38.436362 
L 506.347758 39.791677 
L 509.268714 41.454169 
L 519.005235 46.403197 
L 521.926191 47.544662 
L 525.820799 48.710764 
L 530.68906 49.910459 
L 532.636364 50.302269 
L 532.636364 50.302269 
" clip-path="url(#p536aa6a4d1)" style="fill: none; stroke: #116dc2; stroke-width: 1.5; stroke-linecap: square"/>
   </g>
   <g id="line2d_3">
    <path d="M 25.363636 49.666348 
L 26.337288 49.158896 
L 27.31094 48.534114 
L 28.284593 47.649223 
L 29.258245 46.488535 
L 30.231897 45.140116 
L 31.205549 43.680078 
L 32.179201 41.971343 
L 33.152853 39.796015 
L 34.126505 37.23208 
L 35.100157 34.602997 
L 36.073809 32.011961 
L 37.047461 29.274421 
L 38.021113 26.337813 
L 38.994765 23.127139 
L 39.968417 19.331116 
L 40.942069 15.197408 
L 41.915722 11.743276 
L 42.889374 9.477296 
L 43.863026 7.778121 
L 44.836678 6.062267 
L 45.81033 4.658301 
L 46.783982 3.796252 
L 47.757634 3.061246 
L 48.731286 2.470909 
L 49.704938 2.732815 
L 50.67859 4.092712 
L 51.652242 6.022371 
L 52.625894 8.194498 
L 53.599546 10.823699 
L 54.573198 14.146718 
L 55.54685 17.968813 
L 56.520503 21.773057 
L 57.494155 25.157291 
L 58.467807 28.080383 
L 59.441459 30.829413 
L 60.415111 33.508914 
L 61.388763 35.874055 
L 62.362415 37.960888 
L 63.336067 40.078316 
L 64.309719 42.251392 
L 65.283371 44.306894 
L 66.257023 46.072789 
L 67.230675 47.400832 
L 68.204327 48.329487 
L 69.177979 49.04927 
L 70.151631 49.69514 
" clip-path="url(#p536aa6a4d1)" style="fill: none; stroke: #8a8a8a; stroke-width: 1.5; stroke-linecap: square"/>
   </g>
  </g>
 </g>
 <defs>
  <clipPath id="p536aa6a4d1">
   <rect x="0" y="-0" width="558" height="54.36"/>
  </clipPath>
 </defs>
</svg>
