<?xml version="1.0" encoding="utf-8" standalone="no"?>
<!DOCTYPE svg PUBLIC "-//W3C//DTD SVG 1.1//EN"
  "http://www.w3.org/Graphics/SVG/1.1/DTD/svg11.dtd">
<svg xmlns:xlink="http://www.w3.org/1999/xlink" width="558pt" height="54.36pt" viewBox="0 0 558 54.36" xmlns="http://www.w3.org/2000/svg" version="1.1">
 <metadata>
  <rdf:RDF xmlns:dc="http://purl.org/dc/elements/1.1/" xmlns:cc="http://creativecommons.org/ns#" xmlns:rdf="http://www.w3.org/1999/02/22-rdf-syntax-ns#">
   <cc:Work>
    <dc:type rdf:resource="http://purl.org/dc/dcmitype/StillImage"/>
    <dc:date>2024-09-14T12:46:37.786965</dc:date>
    <dc:format>image/svg+xml</dc:format>
    <dc:creator>
     <cc:Agent>
      <dc:title>Matplotlib v3.5.2, https://matplotlib.org/</dc:title>
     </cc:Agent>
    </dc:creator>
   </cc:Work>
  </rdf:RDF>
 </metadata>
 <defs>
  <style type="text/css">*{stroke-linejoin: round; stroke-linecap: butt}</style>
 </defs>
 <g id="figure_1">
  <g id="patch_1">
   <path d="M 0 54.36 
L 558 54.36 
L 558 0 
L 0 0 
L 0 54.36 
z
" style="fill: none; opacity: 0"/>
  </g>
  <g id="axes_1">
   <g id="PolyCollection_1">
    <defs>
     <path id="ma40ac39b3e" d="M 294.528757 -2.470909 
L 294.528757 -4.127733 
L 295.175788 -4.194613 
L 295.82282 -4.262836 
L 296.469852 -4.332202 
L 297.116883 -4.40253 
L 297.763915 -4.473672 
L 298.410946 -4.545521 
L 299.057978 -4.618008 
L 299.705009 -4.691113 
L 300.352041 -4.76486 
L 300.999072 -4.839316 
L 301.646104 -4.914588 
L 302.293135 -4.990817 
L 302.940167 -5.068169 
L 303.587199 -5.146829 
L 304.23423 -5.226991 
L 304.881262 -5.308848 
L 305.528293 -5.392585 
L 306.175325 -5.478371 
L 306.822356 -5.566353 
L 307.469388 -5.656647 
L 308.116419 -5.749343 
L 308.763451 -5.844496 
L 309.410482 -5.942128 
L 310.057514 -6.042236 
L 310.704545 -6.144786 
L 311.351577 -6.249724 
L 311.998609 -6.356982 
L 312.64564 -6.46648 
L 313.292672 -6.578136 
L 313.939703 -6.69187 
L 314.586735 -6.807613 
L 315.233766 -6.925308 
L 315.880798 -7.044921 
L 316.527829 -7.16644 
L 317.174861 -7.289879 
L 317.821892 -7.415282 
L 318.468924 -7.542724 
L 319.115955 -7.672311 
L 319.762987 -7.804178 
L 320.410019 -7.938489 
L 321.05705 -8.075435 
L 321.704082 -8.215227 
L 322.351113 -8.358098 
L 322.998145 -8.504291 
L 323.645176 -8.654057 
L 324.292208 -8.807648 
L 324.939239 -8.965308 
L 325.586271 -9.127266 
L 326.233302 -9.293732 
L 326.880334 -9.464884 
L 327.527365 -9.640865 
L 328.174397 -9.821774 
L 328.821429 -10.007661 
L 329.46846 -10.198525 
L 330.115492 -10.394309 
L 330.762523 -10.594898 
L 331.409555 -10.800122 
L 332.056586 -11.009758 
L 332.703618 -11.223532 
L 333.350649 -11.441127 
L 333.997681 -11.662193 
L 334.644712 -11.886353 
L 335.291744 -12.113215 
L 335.938776 -12.342386 
L 336.585807 -12.573483 
L 337.232839 -12.806148 
L 337.87987 -13.040058 
L 338.526902 -13.274943 
L 339.173933 -13.510592 
L 339.820965 -13.746869 
L 340.467996 -13.983715 
L 341.115028 -14.221155 
L 341.762059 -14.459303 
L 342.409091 -14.698353 
L 343.056122 -14.938583 
L 343.703154 -15.180334 
L 344.350186 -15.424005 
L 344.997217 -15.670032 
L 345.644249 -15.918866 
L 346.29128 -16.170954 
L 346.938312 -16.426711 
L 347.585343 -16.686494 
L 348.232375 -16.950584 
L 348.879406 -17.219159 
L 349.526438 -17.492278 
L 350.173469 -17.769867 
L 350.820501 -18.051712 
L 351.467532 -18.33746 
L 352.114564 -18.626623 
L 352.761596 -18.918591 
L 353.408627 -19.212656 
L 354.055659 -19.508036 
L 354.70269 -19.803907 
L 355.349722 -20.099439 
L 355.996753 -20.393833 
L 356.643785 -20.686355 
L 357.290816 -20.976376 
L 357.937848 -21.263398 
L 358.584879 -21.547079 
L 359.231911 -21.827251 
L 359.878942 -22.103929 
L 360.525974 -22.377307 
L 361.173006 -22.647752 
L 361.820037 -22.915782 
L 362.467069 -23.18204 
L 363.1141 -23.447262 
L 363.761132 -23.712239 
L 364.408163 -23.977775 
L 365.055195 -24.244648 
L 365.702226 -24.513571 
L 366.349258 -24.785159 
L 366.996289 -25.059895 
L 367.643321 -25.338112 
L 368.290353 -25.619976 
L 368.937384 -25.905482 
L 369.584416 -26.194453 
L 370.231447 -26.486552 
L 370.878479 -26.781295 
L 371.52551 -27.078073 
L 372.172542 -27.376177 
L 372.819573 -27.674827 
L 373.466605 -27.97319 
L 374.113636 -28.270418 
L 374.760668 -28.56566 
L 375.407699 -28.858089 
L 376.054731 -29.146917 
L 376.701763 -29.431403 
L 377.348794 -29.710868 
L 377.995826 -29.98469 
L 378.642857 -30.252316 
L 379.289889 -30.513251 
L 379.93692 -30.767064 
L 380.583952 -31.013377 
L 381.230983 -31.25187 
L 381.878015 -31.482274 
L 382.525046 -31.70437 
L 383.172078 -31.917993 
L 383.819109 -32.123027 
L 384.466141 -32.319416 
L 385.113173 -32.507159 
L 385.760204 -32.686318 
L 386.407236 -32.857016 
L 387.054267 -33.019445 
L 387.701299 -33.173861 
L 388.34833 -33.320585 
L 388.995362 -33.459998 
L 389.642393 -33.592536 
L 390.289425 -33.718685 
L 390.936456 -33.838967 
L 391.583488 -33.953933 
L 392.230519 -34.064152 
L 392.877551 -34.170194 
L 393.524583 -34.272624 
L 394.171614 -34.371987 
L 394.818646 -34.468795 
L 395.465677 -34.563522 
L 396.112709 -34.65659 
L 396.75974 -34.748366 
L 397.406772 -34.839153 
L 398.053803 -34.929187 
L 398.700835 -35.018633 
L 399.347866 -35.107584 
L 399.994898 -35.196057 
L 400.641929 -35.283999 
L 401.288961 -35.371282 
L 401.935993 -35.457707 
L 402.583024 -35.543006 
L 403.230056 -35.626845 
L 403.877087 -35.708827 
L 404.524119 -35.788496 
L 405.17115 -35.865346 
L 405.818182 -35.938821 
L 406.465213 -36.008328 
L 407.112245 -36.073244 
L 407.759276 -36.132928 
L 408.406308 -36.186731 
L 409.05334 -36.234009 
L 409.700371 -36.274141 
L 410.347403 -36.306538 
L 410.994434 -36.330666 
L 411.641466 -36.346053 
L 412.288497 -36.352308 
L 412.935529 -36.349135 
L 413.58256 -36.336339 
L 414.229592 -36.313837 
L 414.876623 -36.281658 
L 415.523655 -36.239949 
L 416.170686 -36.188967 
L 416.817718 -36.129073 
L 417.46475 -36.060718 
L 418.111781 -35.984429 
L 418.758813 -35.900792 
L 419.405844 -35.810431 
L 420.052876 -35.713986 
L 420.699907 -35.612092 
L 421.346939 -35.50536 
L 421.99397 -35.39436 
L 422.641002 -35.2796 
L 423.288033 -35.16152 
L 423.935065 -35.040484 
L 424.582096 -34.916769 
L 425.229128 -34.790573 
L 425.87616 -34.662014 
L 426.523191 -34.531137 
L 427.170223 -34.397925 
L 427.817254 -34.262306 
L 428.464286 -34.124169 
L 429.111317 -33.983368 
L 429.758349 -33.839741 
L 430.40538 -33.69311 
L 431.052412 -33.543293 
L 431.699443 -33.39011 
L 432.346475 -33.233381 
L 432.993506 -33.07293 
L 433.640538 -32.908585 
L 434.28757 -32.740176 
L 434.934601 -32.567533 
L 435.581633 -32.390484 
L 436.228664 -32.208858 
L 436.875696 -32.022479 
L 437.522727 -31.831174 
L 438.169759 -31.634774 
L 438.81679 -31.433121 
L 439.463822 -31.226072 
L 440.110853 -31.013509 
L 440.757885 -30.795349 
L 441.404917 -30.571548 
L 442.051948 -30.342113 
L 442.69898 -30.107106 
L 443.346011 -29.866651 
L 443.993043 -29.620936 
L 444.640074 -29.370213 
L 445.287106 -29.114796 
L 445.934137 -28.855056 
L 446.581169 -28.591415 
L 447.2282 -28.324335 
L 447.875232 -28.054309 
L 448.522263 -27.781846 
L 449.169295 -27.507464 
L 449.816327 -27.231671 
L 450.463358 -26.95496 
L 451.11039 -26.677797 
L 451.757421 -26.40061 
L 452.404453 -26.123785 
L 453.051484 -25.847666 
L 453.698516 -25.572544 
L 454.345547 -25.298666 
L 454.992579 -25.026235 
L 455.63961 -24.755411 
L 456.286642 -24.486319 
L 456.933673 -24.219055 
L 457.580705 -23.953689 
L 458.227737 -23.690274 
L 458.874768 -23.428846 
L 459.5218 -23.169434 
L 460.168831 -22.912054 
L 460.815863 -22.656719 
L 461.462894 -22.403428 
L 462.109926 -22.152174 
L 462.756957 -21.902931 
L 463.403989 -21.655658 
L 464.05102 -21.410288 
L 464.698052 -21.166726 
L 465.345083 -20.924845 
L 465.992115 -20.684482 
L 466.639147 -20.445437 
L 467.286178 -20.207469 
L 467.93321 -19.970304 
L 468.580241 -19.733631 
L 469.227273 -19.497116 
L 469.874304 -19.260404 
L 470.521336 -19.023129 
L 471.168367 -18.784932 
L 471.815399 -18.545463 
L 472.46243 -18.304405 
L 473.109462 -18.061479 
L 473.756494 -17.816462 
L 474.403525 -17.569198 
L 475.050557 -17.319606 
L 475.697588 -17.06769 
L 476.34462 -16.813541 
L 476.991651 -16.557346 
L 477.638683 -16.299378 
L 478.285714 -16.039999 
L 478.932746 -15.779647 
L 479.579777 -15.518827 
L 480.226809 -15.258097 
L 480.87384 -14.998055 
L 481.520872 -14.739318 
L 482.167904 -14.482504 
L 482.814935 -14.228218 
L 483.461967 -13.977033 
L 484.108998 -13.729473 
L 484.75603 -13.486005 
L 485.403061 -13.247023 
L 486.050093 -13.012844 
L 486.697124 -12.783704 
L 487.344156 -12.55976 
L 487.991187 -12.341086 
L 488.638219 -12.127686 
L 489.28525 -11.9195 
L 489.932282 -11.716409 
L 490.579314 -11.518251 
L 491.226345 -11.32483 
L 491.873377 -11.135926 
L 492.520408 -10.951304 
L 493.16744 -10.770726 
L 493.814471 -10.593951 
L 494.461503 -10.420747 
L 495.108534 -10.250891 
L 495.755566 -10.084167 
L 496.402597 -9.92037 
L 497.049629 -9.759303 
L 497.69666 -9.600773 
L 498.343692 -9.44459 
L 498.990724 -9.290565 
L 499.637755 -9.138503 
L 500.284787 -8.988209 
L 500.931818 -8.839481 
L 501.57885 -8.692115 
L 502.225881 -8.545906 
L 502.872913 -8.400652 
L 503.519944 -8.256161 
L 504.166976 -8.112251 
L 504.814007 -7.968763 
L 505.461039 -7.825564 
L 506.108071 -7.682555 
L 506.755102 -7.539677 
L 507.402134 -7.396916 
L 508.049165 -7.254307 
L 508.696197 -7.111938 
L 509.343228 -6.969951 
L 509.99026 -6.82854 
L 510.637291 -6.68795 
L 511.284323 -6.548473 
L 511.931354 -6.41044 
L 512.578386 -6.274217 
L 513.225417 -6.140192 
L 513.872449 -6.008769 
L 514.519481 -5.880353 
L 515.166512 -5.755343 
L 515.813544 -5.634117 
L 516.460575 -5.517021 
L 517.107607 -5.404361 
L 517.754638 -5.296392 
L 518.40167 -5.19331 
L 519.048701 -5.095244 
L 519.695733 -5.002256 
L 520.342764 -4.914331 
L 520.989796 -4.831386 
L 521.636827 -4.753265 
L 522.283859 -4.679749 
L 522.930891 -4.610556 
L 523.577922 -4.545357 
L 524.224954 -4.48378 
L 524.871985 -4.425423 
L 525.519017 -4.369869 
L 526.166048 -4.316691 
L 526.81308 -4.265474 
L 527.460111 -4.215817 
L 528.107143 -4.16735 
L 528.754174 -4.119741 
L 529.401206 -4.072701 
L 530.048237 -4.025997 
L 530.695269 -3.979448 
L 531.342301 -3.932932 
L 531.989332 -3.886382 
L 532.636364 -3.839788 
L 532.636364 -2.470909 
L 532.636364 -2.470909 
L 531.989332 -2.470909 
L 531.342301 -2.470909 
L 530.695269 -2.470909 
L 530.048237 -2.470909 
L 529.401206 -2.470909 
L 528.754174 -2.470909 
L 528.107143 -2.470909 
L 527.460111 -2.470909 
L 526.81308 -2.470909 
L 526.166048 -2.470909 
L 525.519017 -2.470909 
L 524.871985 -2.470909 
L 524.224954 -2.470909 
L 523.577922 -2.470909 
L 522.930891 -2.470909 
L 522.283859 -2.470909 
L 521.636827 -2.470909 
L 520.989796 -2.470909 
L 520.342764 -2.470909 
L 519.695733 -2.470909 
L 519.048701 -2.470909 
L 518.40167 -2.470909 
L 517.754638 -2.470909 
L 517.107607 -2.470909 
L 516.460575 -2.470909 
L 515.813544 -2.470909 
L 515.166512 -2.470909 
L 514.519481 -2.470909 
L 513.872449 -2.470909 
L 513.225417 -2.470909 
L 512.578386 -2.470909 
L 511.931354 -2.470909 
L 511.284323 -2.470909 
L 510.637291 -2.470909 
L 509.99026 -2.470909 
L 509.343228 -2.470909 
L 508.696197 -2.470909 
L 508.049165 -2.470909 
L 507.402134 -2.470909 
L 506.755102 -2.470909 
L 506.108071 -2.470909 
L 505.461039 -2.470909 
L 504.814007 -2.470909 
L 504.166976 -2.470909 
L 503.519944 -2.470909 
L 502.872913 -2.470909 
L 502.225881 -2.470909 
L 501.57885 -2.470909 
L 500.931818 -2.470909 
L 500.284787 -2.470909 
L 499.637755 -2.470909 
L 498.990724 -2.470909 
L 498.343692 -2.470909 
L 497.69666 -2.470909 
L 497.049629 -2.470909 
L 496.402597 -2.470909 
L 495.755566 -2.470909 
L 495.108534 -2.470909 
L 494.461503 -2.470909 
L 493.814471 -2.470909 
L 493.16744 -2.470909 
L 492.520408 -2.470909 
L 491.873377 -2.470909 
L 491.226345 -2.470909 
L 490.579314 -2.470909 
L 489.932282 -2.470909 
L 489.28525 -2.470909 
L 488.638219 -2.470909 
L 487.991187 -2.470909 
L 487.344156 -2.470909 
L 486.697124 -2.470909 
L 486.050093 -2.470909 
L 485.403061 -2.470909 
L 484.75603 -2.470909 
L 484.108998 -2.470909 
L 483.461967 -2.470909 
L 482.814935 -2.470909 
L 482.167904 -2.470909 
L 481.520872 -2.470909 
L 480.87384 -2.470909 
L 480.226809 -2.470909 
L 479.579777 -2.470909 
L 478.932746 -2.470909 
L 478.285714 -2.470909 
L 477.638683 -2.470909 
L 476.991651 -2.470909 
L 476.34462 -2.470909 
L 475.697588 -2.470909 
L 475.050557 -2.470909 
L 474.403525 -2.470909 
L 473.756494 -2.470909 
L 473.109462 -2.470909 
L 472.46243 -2.470909 
L 471.815399 -2.470909 
L 471.168367 -2.470909 
L 470.521336 -2.470909 
L 469.874304 -2.470909 
L 469.227273 -2.470909 
L 468.580241 -2.470909 
L 467.93321 -2.470909 
L 467.286178 -2.470909 
L 466.639147 -2.470909 
L 465.992115 -2.470909 
L 465.345083 -2.470909 
L 464.698052 -2.470909 
L 464.05102 -2.470909 
L 463.403989 -2.470909 
L 462.756957 -2.470909 
L 462.109926 -2.470909 
L 461.462894 -2.470909 
L 460.815863 -2.470909 
L 460.168831 -2.470909 
L 459.5218 -2.470909 
L 458.874768 -2.470909 
L 458.227737 -2.470909 
L 457.580705 -2.470909 
L 456.933673 -2.470909 
L 456.286642 -2.470909 
L 455.63961 -2.470909 
L 454.992579 -2.470909 
L 454.345547 -2.470909 
L 453.698516 -2.470909 
L 453.051484 -2.470909 
L 452.404453 -2.470909 
L 451.757421 -2.470909 
L 451.11039 -2.470909 
L 450.463358 -2.470909 
L 449.816327 -2.470909 
L 449.169295 -2.470909 
L 448.522263 -2.470909 
L 447.875232 -2.470909 
L 447.2282 -2.470909 
L 446.581169 -2.470909 
L 445.934137 -2.470909 
L 445.287106 -2.470909 
L 444.640074 -2.470909 
L 443.993043 -2.470909 
L 443.346011 -2.470909 
L 442.69898 -2.470909 
L 442.051948 -2.470909 
L 441.404917 -2.470909 
L 440.757885 -2.470909 
L 440.110853 -2.470909 
L 439.463822 -2.470909 
L 438.81679 -2.470909 
L 438.169759 -2.470909 
L 437.522727 -2.470909 
L 436.875696 -2.470909 
L 436.228664 -2.470909 
L 435.581633 -2.470909 
L 434.934601 -2.470909 
L 434.28757 -2.470909 
L 433.640538 -2.470909 
L 432.993506 -2.470909 
L 432.346475 -2.470909 
L 431.699443 -2.470909 
L 431.052412 -2.470909 
L 430.40538 -2.470909 
L 429.758349 -2.470909 
L 429.111317 -2.470909 
L 428.464286 -2.470909 
L 427.817254 -2.470909 
L 427.170223 -2.470909 
L 426.523191 -2.470909 
L 425.87616 -2.470909 
L 425.229128 -2.470909 
L 424.582096 -2.470909 
L 423.935065 -2.470909 
L 423.288033 -2.470909 
L 422.641002 -2.470909 
L 421.99397 -2.470909 
L 421.346939 -2.470909 
L 420.699907 -2.470909 
L 420.052876 -2.470909 
L 419.405844 -2.470909 
L 418.758813 -2.470909 
L 418.111781 -2.470909 
L 417.46475 -2.470909 
L 416.817718 -2.470909 
L 416.170686 -2.470909 
L 415.523655 -2.470909 
L 414.876623 -2.470909 
L 414.229592 -2.470909 
L 413.58256 -2.470909 
L 412.935529 -2.470909 
L 412.288497 -2.470909 
L 411.641466 -2.470909 
L 410.994434 -2.470909 
L 410.347403 -2.470909 
L 409.700371 -2.470909 
L 409.05334 -2.470909 
L 408.406308 -2.470909 
L 407.759276 -2.470909 
L 407.112245 -2.470909 
L 406.465213 -2.470909 
L 405.818182 -2.470909 
L 405.17115 -2.470909 
L 404.524119 -2.470909 
L 403.877087 -2.470909 
L 403.230056 -2.470909 
L 402.583024 -2.470909 
L 401.935993 -2.470909 
L 401.288961 -2.470909 
L 400.641929 -2.470909 
L 399.994898 -2.470909 
L 399.347866 -2.470909 
L 398.700835 -2.470909 
L 398.053803 -2.470909 
L 397.406772 -2.470909 
L 396.75974 -2.470909 
L 396.112709 -2.470909 
L 395.465677 -2.470909 
L 394.818646 -2.470909 
L 394.171614 -2.470909 
L 393.524583 -2.470909 
L 392.877551 -2.470909 
L 392.230519 -2.470909 
L 391.583488 -2.470909 
L 390.936456 -2.470909 
L 390.289425 -2.470909 
L 389.642393 -2.470909 
L 388.995362 -2.470909 
L 388.34833 -2.470909 
L 387.701299 -2.470909 
L 387.054267 -2.470909 
L 386.407236 -2.470909 
L 385.760204 -2.470909 
L 385.113173 -2.470909 
L 384.466141 -2.470909 
L 383.819109 -2.470909 
L 383.172078 -2.470909 
L 382.525046 -2.470909 
L 381.878015 -2.470909 
L 381.230983 -2.470909 
L 380.583952 -2.470909 
L 379.93692 -2.470909 
L 379.289889 -2.470909 
L 378.642857 -2.470909 
L 377.995826 -2.470909 
L 377.348794 -2.470909 
L 376.701763 -2.470909 
L 376.054731 -2.470909 
L 375.407699 -2.470909 
L 374.760668 -2.470909 
L 374.113636 -2.470909 
L 373.466605 -2.470909 
L 372.819573 -2.470909 
L 372.172542 -2.470909 
L 371.52551 -2.470909 
L 370.878479 -2.470909 
L 370.231447 -2.470909 
L 369.584416 -2.470909 
L 368.937384 -2.470909 
L 368.290353 -2.470909 
L 367.643321 -2.470909 
L 366.996289 -2.470909 
L 366.349258 -2.470909 
L 365.702226 -2.470909 
L 365.055195 -2.470909 
L 364.408163 -2.470909 
L 363.761132 -2.470909 
L 363.1141 -2.470909 
L 362.467069 -2.470909 
L 361.820037 -2.470909 
L 361.173006 -2.470909 
L 360.525974 -2.470909 
L 359.878942 -2.470909 
L 359.231911 -2.470909 
L 358.584879 -2.470909 
L 357.937848 -2.470909 
L 357.290816 -2.470909 
L 356.643785 -2.470909 
L 355.996753 -2.470909 
L 355.349722 -2.470909 
L 354.70269 -2.470909 
L 354.055659 -2.470909 
L 353.408627 -2.470909 
L 352.761596 -2.470909 
L 352.114564 -2.470909 
L 351.467532 -2.470909 
L 350.820501 -2.470909 
L 350.173469 -2.470909 
L 349.526438 -2.470909 
L 348.879406 -2.470909 
L 348.232375 -2.470909 
L 347.585343 -2.470909 
L 346.938312 -2.470909 
L 346.29128 -2.470909 
L 345.644249 -2.470909 
L 344.997217 -2.470909 
L 344.350186 -2.470909 
L 343.703154 -2.470909 
L 343.056122 -2.470909 
L 342.409091 -2.470909 
L 341.762059 -2.470909 
L 341.115028 -2.470909 
L 340.467996 -2.470909 
L 339.820965 -2.470909 
L 339.173933 -2.470909 
L 338.526902 -2.470909 
L 337.87987 -2.470909 
L 337.232839 -2.470909 
L 336.585807 -2.470909 
L 335.938776 -2.470909 
L 335.291744 -2.470909 
L 334.644712 -2.470909 
L 333.997681 -2.470909 
L 333.350649 -2.470909 
L 332.703618 -2.470909 
L 332.056586 -2.470909 
L 331.409555 -2.470909 
L 330.762523 -2.470909 
L 330.115492 -2.470909 
L 329.46846 -2.470909 
L 328.821429 -2.470909 
L 328.174397 -2.470909 
L 327.527365 -2.470909 
L 326.880334 -2.470909 
L 326.233302 -2.470909 
L 325.586271 -2.470909 
L 324.939239 -2.470909 
L 324.292208 -2.470909 
L 323.645176 -2.470909 
L 322.998145 -2.470909 
L 322.351113 -2.470909 
L 321.704082 -2.470909 
L 321.05705 -2.470909 
L 320.410019 -2.470909 
L 319.762987 -2.470909 
L 319.115955 -2.470909 
L 318.468924 -2.470909 
L 317.821892 -2.470909 
L 317.174861 -2.470909 
L 316.527829 -2.470909 
L 315.880798 -2.470909 
L 315.233766 -2.470909 
L 314.586735 -2.470909 
L 313.939703 -2.470909 
L 313.292672 -2.470909 
L 312.64564 -2.470909 
L 311.998609 -2.470909 
L 311.351577 -2.470909 
L 310.704545 -2.470909 
L 310.057514 -2.470909 
L 309.410482 -2.470909 
L 308.763451 -2.470909 
L 308.116419 -2.470909 
L 307.469388 -2.470909 
L 306.822356 -2.470909 
L 306.175325 -2.470909 
L 305.528293 -2.470909 
L 304.881262 -2.470909 
L 304.23423 -2.470909 
L 303.587199 -2.470909 
L 302.940167 -2.470909 
L 302.293135 -2.470909 
L 301.646104 -2.470909 
L 300.999072 -2.470909 
L 300.352041 -2.470909 
L 299.705009 -2.470909 
L 299.057978 -2.470909 
L 298.410946 -2.470909 
L 297.763915 -2.470909 
L 297.116883 -2.470909 
L 296.469852 -2.470909 
L 295.82282 -2.470909 
L 295.175788 -2.470909 
L 294.528757 -2.470909 
z
" style="stroke: #cf1313; stroke-opacity: 0.2"/>
    </defs>
    <g clip-path="url(#pc9dfcb7767)">
     <use xlink:href="#ma40ac39b3e" x="0" y="54.36" style="fill: #cf1313; fill-opacity: 0.2; stroke: #cf1313; stroke-opacity: 0.2"/>
    </g>
   </g>
   <g id="PolyCollection_2">
    <defs>
     <path id="m499b4fd744" d="M 51.244898 -2.470909 
L 51.244898 -3.866828 
L 51.891929 -3.904404 
L 52.538961 -3.943276 
L 53.185993 -3.983674 
L 53.833024 -4.025815 
L 54.480056 -4.069883 
L 55.127087 -4.116032 
L 55.774119 -4.16437 
L 56.42115 -4.21496 
L 57.068182 -4.26781 
L 57.715213 -4.322876 
L 58.362245 -4.38006 
L 59.009276 -4.439211 
L 59.656308 -4.500131 
L 60.30334 -4.562582 
L 60.950371 -4.626296 
L 61.597403 -4.690985 
L 62.244434 -4.756356 
L 62.891466 -4.822122 
L 63.538497 -4.888019 
L 64.185529 -4.953821 
L 64.83256 -5.019351 
L 65.479592 -5.084497 
L 66.126623 -5.14922 
L 66.773655 -5.213561 
L 67.420686 -5.277651 
L 68.067718 -5.341704 
L 68.71475 -5.406021 
L 69.361781 -5.470982 
L 70.008813 -5.537033 
L 70.655844 -5.604678 
L 71.302876 -5.674457 
L 71.949907 -5.746934 
L 72.596939 -5.822671 
L 73.24397 -5.902209 
L 73.891002 -5.986053 
L 74.538033 -6.074645 
L 75.185065 -6.168352 
L 75.832096 -6.267449 
L 76.479128 -6.372111 
L 77.12616 -6.482403 
L 77.773191 -6.598275 
L 78.420223 -6.71957 
L 79.067254 -6.846023 
L 79.714286 -6.977271 
L 80.361317 -7.112868 
L 81.008349 -7.252297 
L 81.65538 -7.394991 
L 82.302412 -7.540347 
L 82.949443 -7.687747 
L 83.596475 -7.83658 
L 84.243506 -7.986254 
L 84.890538 -8.136216 
L 85.53757 -8.285969 
L 86.184601 -8.435077 
L 86.831633 -8.583182 
L 87.478664 -8.730007 
L 88.125696 -8.875363 
L 88.772727 -9.019146 
L 89.419759 -9.161346 
L 90.06679 -9.302036 
L 90.713822 -9.441376 
L 91.360853 -9.579602 
L 92.007885 -9.717027 
L 92.654917 -9.854031 
L 93.301948 -9.991059 
L 93.94898 -10.128608 
L 94.596011 -10.267229 
L 95.243043 -10.407513 
L 95.890074 -10.550086 
L 96.537106 -10.695604 
L 97.184137 -10.844741 
L 97.831169 -10.998181 
L 98.4782 -11.156607 
L 99.125232 -11.320691 
L 99.772263 -11.491078 
L 100.419295 -11.668377 
L 101.066327 -11.853142 
L 101.713358 -12.045857 
L 102.36039 -12.246925 
L 103.007421 -12.45665 
L 103.654453 -12.675224 
L 104.301484 -12.90272 
L 104.948516 -13.139078 
L 105.595547 -13.384104 
L 106.242579 -13.63747 
L 106.88961 -13.898713 
L 107.536642 -14.167252 
L 108.183673 -14.442392 
L 108.830705 -14.72335 
L 109.477737 -15.009271 
L 110.124768 -15.299259 
L 110.7718 -15.5924 
L 111.418831 -15.887797 
L 112.065863 -16.184594 
L 112.712894 -16.482006 
L 113.359926 -16.779348 
L 114.006957 -17.076048 
L 114.653989 -17.371672 
L 115.30102 -17.665928 
L 115.948052 -17.958673 
L 116.595083 -18.249907 
L 117.242115 -18.539764 
L 117.889147 -18.828495 
L 118.536178 -19.116446 
L 119.18321 -19.404032 
L 119.830241 -19.691704 
L 120.477273 -19.979923 
L 121.124304 -20.269126 
L 121.771336 -20.559697 
L 122.418367 -20.85194 
L 123.065399 -21.146063 
L 123.71243 -21.442153 
L 124.359462 -21.740176 
L 125.006494 -22.039967 
L 125.653525 -22.341236 
L 126.300557 -22.643577 
L 126.947588 -22.946486 
L 127.59462 -23.249373 
L 128.241651 -23.551594 
L 128.888683 -23.852466 
L 129.535714 -24.151302 
L 130.182746 -24.447426 
L 130.829777 -24.740204 
L 131.476809 -25.029062 
L 132.12384 -25.313498 
L 132.770872 -25.593105 
L 133.417904 -25.86757 
L 134.064935 -26.136683 
L 134.711967 -26.400338 
L 135.358998 -26.658525 
L 136.00603 -26.911326 
L 136.653061 -27.158903 
L 137.300093 -27.401486 
L 137.947124 -27.639357 
L 138.594156 -27.872836 
L 139.241187 -28.102268 
L 139.888219 -28.328004 
L 140.53525 -28.550389 
L 141.182282 -28.769752 
L 141.829314 -28.986395 
L 142.476345 -29.200582 
L 143.123377 -29.412541 
L 143.770408 -29.622457 
L 144.41744 -29.83047 
L 145.064471 -30.036684 
L 145.711503 -30.241167 
L 146.358534 -30.443956 
L 147.005566 -30.645065 
L 147.652597 -30.844493 
L 148.299629 -31.042229 
L 148.94666 -31.238255 
L 149.593692 -31.432555 
L 150.240724 -31.625115 
L 150.887755 -31.815922 
L 151.534787 -32.004961 
L 152.181818 -32.192217 
L 152.82885 -32.377663 
L 153.475881 -32.561256 
L 154.122913 -32.74293 
L 154.769944 -32.92259 
L 155.416976 -33.100102 
L 156.064007 -33.275295 
L 156.711039 -33.447956 
L 157.358071 -33.617833 
L 158.005102 -33.78464 
L 158.652134 -33.948062 
L 159.299165 -34.107774 
L 159.946197 -34.263447 
L 160.593228 -34.414766 
L 161.24026 -34.56145 
L 161.887291 -34.703261 
L 162.534323 -34.840024 
L 163.181354 -34.971633 
L 163.828386 -35.098059 
L 164.475417 -35.219353 
L 165.122449 -35.335639 
L 165.769481 -35.447104 
L 166.416512 -35.553983 
L 167.063544 -35.656537 
L 167.710575 -35.755029 
L 168.357607 -35.849694 
L 169.004638 -35.940713 
L 169.65167 -36.028183 
L 170.298701 -36.112094 
L 170.945733 -36.192306 
L 171.592764 -36.268539 
L 172.239796 -36.340365 
L 172.886827 -36.407207 
L 173.533859 -36.468354 
L 174.180891 -36.52298 
L 174.827922 -36.570166 
L 175.474954 -36.60894 
L 176.121985 -36.638311 
L 176.769017 -36.657308 
L 177.416048 -36.665026 
L 178.06308 -36.660663 
L 178.710111 -36.643552 
L 179.357143 -36.613195 
L 180.004174 -36.569283 
L 180.651206 -36.511706 
L 181.298237 -36.440559 
L 181.945269 -36.356135 
L 182.592301 -36.258906 
L 183.239332 -36.149508 
L 183.886364 -36.028699 
L 184.533395 -35.897335 
L 185.180427 -35.756324 
L 185.827458 -35.606591 
L 186.47449 -35.449043 
L 187.121521 -35.28453 
L 187.768553 -35.113819 
L 188.415584 -34.937574 
L 189.062616 -34.756338 
L 189.709647 -34.570528 
L 190.356679 -34.380433 
L 191.003711 -34.186226 
L 191.650742 -33.987974 
L 192.297774 -33.78566 
L 192.944805 -33.579207 
L 193.591837 -33.368498 
L 194.238868 -33.153408 
L 194.8859 -32.933826 
L 195.532931 -32.709675 
L 196.179963 -32.480933 
L 196.826994 -32.247645 
L 197.474026 -32.009934 
L 198.121058 -31.768001 
L 198.768089 -31.52213 
L 199.415121 -31.272673 
L 200.062152 -31.020048 
L 200.709184 -30.764722 
L 201.356215 -30.507197 
L 202.003247 -30.247993 
L 202.650278 -29.987633 
L 203.29731 -29.726629 
L 203.944341 -29.465466 
L 204.591373 -29.204594 
L 205.238404 -28.944417 
L 205.885436 -28.685288 
L 206.532468 -28.427507 
L 207.179499 -28.171319 
L 207.826531 -27.916917 
L 208.473562 -27.664441 
L 209.120594 -27.413984 
L 209.767625 -27.165599 
L 210.414657 -26.919297 
L 211.061688 -26.675052 
L 211.70872 -26.432807 
L 212.355751 -26.19247 
L 213.002783 -25.953921 
L 213.649814 -25.717007 
L 214.296846 -25.481543 
L 214.943878 -25.247312 
L 215.590909 -25.014068 
L 216.237941 -24.781529 
L 216.884972 -24.549386 
L 217.532004 -24.317303 
L 218.179035 -24.084921 
L 218.826067 -23.851863 
L 219.473098 -23.617745 
L 220.12013 -23.38218 
L 220.767161 -23.144789 
L 221.414193 -22.905215 
L 222.061224 -22.663124 
L 222.708256 -22.418223 
L 223.355288 -22.170266 
L 224.002319 -21.91906 
L 224.649351 -21.664471 
L 225.296382 -21.406432 
L 225.943414 -21.144938 
L 226.590445 -20.880053 
L 227.237477 -20.611905 
L 227.884508 -20.34068 
L 228.53154 -20.066621 
L 229.178571 -19.790018 
L 229.825603 -19.511201 
L 230.472635 -19.230533 
L 231.119666 -18.948401 
L 231.766698 -18.665208 
L 232.413729 -18.381367 
L 233.060761 -18.097292 
L 233.707792 -17.813395 
L 234.354824 -17.530079 
L 235.001855 -17.247736 
L 235.648887 -16.966747 
L 236.295918 -16.687473 
L 236.94295 -16.410262 
L 237.589981 -16.135445 
L 238.237013 -15.863337 
L 238.884045 -15.594234 
L 239.531076 -15.328417 
L 240.178108 -15.066149 
L 240.825139 -14.807675 
L 241.472171 -14.55322 
L 242.119202 -14.30299 
L 242.766234 -14.057166 
L 243.413265 -13.815905 
L 244.060297 -13.579335 
L 244.707328 -13.347556 
L 245.35436 -13.120635 
L 246.001391 -12.898605 
L 246.648423 -12.681464 
L 247.295455 -12.469175 
L 247.942486 -12.261661 
L 248.589518 -12.058813 
L 249.236549 -11.860485 
L 249.883581 -11.666502 
L 250.530612 -11.476656 
L 251.177644 -11.290718 
L 251.824675 -11.108435 
L 252.471707 -10.929543 
L 253.118738 -10.753766 
L 253.76577 -10.580829 
L 254.412801 -10.410459 
L 255.059833 -10.242395 
L 255.706865 -10.076396 
L 256.353896 -9.912242 
L 257.000928 -9.749744 
L 257.647959 -9.58875 
L 258.294991 -9.429143 
L 258.942022 -9.270846 
L 259.589054 -9.113827 
L 260.236085 -8.958091 
L 260.883117 -8.803687 
L 261.530148 -8.650696 
L 262.17718 -8.499234 
L 262.824212 -8.349443 
L 263.471243 -8.201486 
L 264.118275 -8.055542 
L 264.765306 -7.911795 
L 265.412338 -7.770434 
L 266.059369 -7.631639 
L 266.706401 -7.495581 
L 267.353432 -7.362412 
L 268.000464 -7.232263 
L 268.647495 -7.105241 
L 269.294527 -6.981422 
L 269.941558 -6.860852 
L 270.58859 -6.743544 
L 271.235622 -6.629479 
L 271.882653 -6.518607 
L 272.529685 -6.410846 
L 273.176716 -6.306086 
L 273.823748 -6.20419 
L 274.470779 -6.105001 
L 275.117811 -6.008343 
L 275.764842 -5.914026 
L 276.411874 -5.821854 
L 277.058905 -5.731626 
L 277.705937 -5.643144 
L 278.352968 -5.556221 
L 279 -5.47068 
L 279.647032 -5.386365 
L 280.294063 -5.303142 
L 280.941095 -5.220904 
L 281.588126 -5.139573 
L 282.235158 -5.059104 
L 282.882189 -4.979482 
L 283.529221 -4.900723 
L 284.176252 -4.822875 
L 284.823284 -4.746012 
L 285.470315 -4.670233 
L 286.117347 -4.595657 
L 286.764378 -4.522417 
L 287.41141 -4.450657 
L 288.058442 -4.380526 
L 288.705473 -4.312172 
L 289.352505 -4.245739 
L 289.999536 -4.18136 
L 290.646568 -4.119156 
L 291.293599 -4.05923 
L 291.940631 -4.001665 
L 292.587662 -3.946526 
L 293.234694 -3.893853 
L 293.881725 -3.843665 
L 294.528757 -3.795957 
L 295.175788 -3.750703 
L 295.175788 -2.470909 
L 295.175788 -2.470909 
L 294.528757 -2.470909 
L 293.881725 -2.470909 
L 293.234694 -2.470909 
L 292.587662 -2.470909 
L 291.940631 -2.470909 
L 291.293599 -2.470909 
L 290.646568 -2.470909 
L 289.999536 -2.470909 
L 289.352505 -2.470909 
L 288.705473 -2.470909 
L 288.058442 -2.470909 
L 287.41141 -2.470909 
L 286.764378 -2.470909 
L 286.117347 -2.470909 
L 285.470315 -2.470909 
L 284.823284 -2.470909 
L 284.176252 -2.470909 
L 283.529221 -2.470909 
L 282.882189 -2.470909 
L 282.235158 -2.470909 
L 281.588126 -2.470909 
L 280.941095 -2.470909 
L 280.294063 -2.470909 
L 279.647032 -2.470909 
L 279 -2.470909 
L 278.352968 -2.470909 
L 277.705937 -2.470909 
L 277.058905 -2.470909 
L 276.411874 -2.470909 
L 275.764842 -2.470909 
L 275.117811 -2.470909 
L 274.470779 -2.470909 
L 273.823748 -2.470909 
L 273.176716 -2.470909 
L 272.529685 -2.470909 
L 271.882653 -2.470909 
L 271.235622 -2.470909 
L 270.58859 -2.470909 
L 269.941558 -2.470909 
L 269.294527 -2.470909 
L 268.647495 -2.470909 
L 268.000464 -2.470909 
L 267.353432 -2.470909 
L 266.706401 -2.470909 
L 266.059369 -2.470909 
L 265.412338 -2.470909 
L 264.765306 -2.470909 
L 264.118275 -2.470909 
L 263.471243 -2.470909 
L 262.824212 -2.470909 
L 262.17718 -2.470909 
L 261.530148 -2.470909 
L 260.883117 -2.470909 
L 260.236085 -2.470909 
L 259.589054 -2.470909 
L 258.942022 -2.470909 
L 258.294991 -2.470909 
L 257.647959 -2.470909 
L 257.000928 -2.470909 
L 256.353896 -2.470909 
L 255.706865 -2.470909 
L 255.059833 -2.470909 
L 254.412801 -2.470909 
L 253.76577 -2.470909 
L 253.118738 -2.470909 
L 252.471707 -2.470909 
L 251.824675 -2.470909 
L 251.177644 -2.470909 
L 250.530612 -2.470909 
L 249.883581 -2.470909 
L 249.236549 -2.470909 
L 248.589518 -2.470909 
L 247.942486 -2.470909 
L 247.295455 -2.470909 
L 246.648423 -2.470909 
L 246.001391 -2.470909 
L 245.35436 -2.470909 
L 244.707328 -2.470909 
L 244.060297 -2.470909 
L 243.413265 -2.470909 
L 242.766234 -2.470909 
L 242.119202 -2.470909 
L 241.472171 -2.470909 
L 240.825139 -2.470909 
L 240.178108 -2.470909 
L 239.531076 -2.470909 
L 238.884045 -2.470909 
L 238.237013 -2.470909 
L 237.589981 -2.470909 
L 236.94295 -2.470909 
L 236.295918 -2.470909 
L 235.648887 -2.470909 
L 235.001855 -2.470909 
L 234.354824 -2.470909 
L 233.707792 -2.470909 
L 233.060761 -2.470909 
L 232.413729 -2.470909 
L 231.766698 -2.470909 
L 231.119666 -2.470909 
L 230.472635 -2.470909 
L 229.825603 -2.470909 
L 229.178571 -2.470909 
L 228.53154 -2.470909 
L 227.884508 -2.470909 
L 227.237477 -2.470909 
L 226.590445 -2.470909 
L 225.943414 -2.470909 
L 225.296382 -2.470909 
L 224.649351 -2.470909 
L 224.002319 -2.470909 
L 223.355288 -2.470909 
L 222.708256 -2.470909 
L 222.061224 -2.470909 
L 221.414193 -2.470909 
L 220.767161 -2.470909 
L 220.12013 -2.470909 
L 219.473098 -2.470909 
L 218.826067 -2.470909 
L 218.179035 -2.470909 
L 217.532004 -2.470909 
L 216.884972 -2.470909 
L 216.237941 -2.470909 
L 215.590909 -2.470909 
L 214.943878 -2.470909 
L 214.296846 -2.470909 
L 213.649814 -2.470909 
L 213.002783 -2.470909 
L 212.355751 -2.470909 
L 211.70872 -2.470909 
L 211.061688 -2.470909 
L 210.414657 -2.470909 
L 209.767625 -2.470909 
L 209.120594 -2.470909 
L 208.473562 -2.470909 
L 207.826531 -2.470909 
L 207.179499 -2.470909 
L 206.532468 -2.470909 
L 205.885436 -2.470909 
L 205.238404 -2.470909 
L 204.591373 -2.470909 
L 203.944341 -2.470909 
L 203.29731 -2.470909 
L 202.650278 -2.470909 
L 202.003247 -2.470909 
L 201.356215 -2.470909 
L 200.709184 -2.470909 
L 200.062152 -2.470909 
L 199.415121 -2.470909 
L 198.768089 -2.470909 
L 198.121058 -2.470909 
L 197.474026 -2.470909 
L 196.826994 -2.470909 
L 196.179963 -2.470909 
L 195.532931 -2.470909 
L 194.8859 -2.470909 
L 194.238868 -2.470909 
L 193.591837 -2.470909 
L 192.944805 -2.470909 
L 192.297774 -2.470909 
L 191.650742 -2.470909 
L 191.003711 -2.470909 
L 190.356679 -2.470909 
L 189.709647 -2.470909 
L 189.062616 -2.470909 
L 188.415584 -2.470909 
L 187.768553 -2.470909 
L 187.121521 -2.470909 
L 186.47449 -2.470909 
L 185.827458 -2.470909 
L 185.180427 -2.470909 
L 184.533395 -2.470909 
L 183.886364 -2.470909 
L 183.239332 -2.470909 
L 182.592301 -2.470909 
L 181.945269 -2.470909 
L 181.298237 -2.470909 
L 180.651206 -2.470909 
L 180.004174 -2.470909 
L 179.357143 -2.470909 
L 178.710111 -2.470909 
L 178.06308 -2.470909 
L 177.416048 -2.470909 
L 176.769017 -2.470909 
L 176.121985 -2.470909 
L 175.474954 -2.470909 
L 174.827922 -2.470909 
L 174.180891 -2.470909 
L 173.533859 -2.470909 
L 172.886827 -2.470909 
L 172.239796 -2.470909 
L 171.592764 -2.470909 
L 170.945733 -2.470909 
L 170.298701 -2.470909 
L 169.65167 -2.470909 
L 169.004638 -2.470909 
L 168.357607 -2.470909 
L 167.710575 -2.470909 
L 167.063544 -2.470909 
L 166.416512 -2.470909 
L 165.769481 -2.470909 
L 165.122449 -2.470909 
L 164.475417 -2.470909 
L 163.828386 -2.470909 
L 163.181354 -2.470909 
L 162.534323 -2.470909 
L 161.887291 -2.470909 
L 161.24026 -2.470909 
L 160.593228 -2.470909 
L 159.946197 -2.470909 
L 159.299165 -2.470909 
L 158.652134 -2.470909 
L 158.005102 -2.470909 
L 157.358071 -2.470909 
L 156.711039 -2.470909 
L 156.064007 -2.470909 
L 155.416976 -2.470909 
L 154.769944 -2.470909 
L 154.122913 -2.470909 
L 153.475881 -2.470909 
L 152.82885 -2.470909 
L 152.181818 -2.470909 
L 151.534787 -2.470909 
L 150.887755 -2.470909 
L 150.240724 -2.470909 
L 149.593692 -2.470909 
L 148.94666 -2.470909 
L 148.299629 -2.470909 
L 147.652597 -2.470909 
L 147.005566 -2.470909 
L 146.358534 -2.470909 
L 145.711503 -2.470909 
L 145.064471 -2.470909 
L 144.41744 -2.470909 
L 143.770408 -2.470909 
L 143.123377 -2.470909 
L 142.476345 -2.470909 
L 141.829314 -2.470909 
L 141.182282 -2.470909 
L 140.53525 -2.470909 
L 139.888219 -2.470909 
L 139.241187 -2.470909 
L 138.594156 -2.470909 
L 137.947124 -2.470909 
L 137.300093 -2.470909 
L 136.653061 -2.470909 
L 136.00603 -2.470909 
L 135.358998 -2.470909 
L 134.711967 -2.470909 
L 134.064935 -2.470909 
L 133.417904 -2.470909 
L 132.770872 -2.470909 
L 132.12384 -2.470909 
L 131.476809 -2.470909 
L 130.829777 -2.470909 
L 130.182746 -2.470909 
L 129.535714 -2.470909 
L 128.888683 -2.470909 
L 128.241651 -2.470909 
L 127.59462 -2.470909 
L 126.947588 -2.470909 
L 126.300557 -2.470909 
L 125.653525 -2.470909 
L 125.006494 -2.470909 
L 124.359462 -2.470909 
L 123.71243 -2.470909 
L 123.065399 -2.470909 
L 122.418367 -2.470909 
L 121.771336 -2.470909 
L 121.124304 -2.470909 
L 120.477273 -2.470909 
L 119.830241 -2.470909 
L 119.18321 -2.470909 
L 118.536178 -2.470909 
L 117.889147 -2.470909 
L 117.242115 -2.470909 
L 116.595083 -2.470909 
L 115.948052 -2.470909 
L 115.30102 -2.470909 
L 114.653989 -2.470909 
L 114.006957 -2.470909 
L 113.359926 -2.470909 
L 112.712894 -2.470909 
L 112.065863 -2.470909 
L 111.418831 -2.470909 
L 110.7718 -2.470909 
L 110.124768 -2.470909 
L 109.477737 -2.470909 
L 108.830705 -2.470909 
L 108.183673 -2.470909 
L 107.536642 -2.470909 
L 106.88961 -2.470909 
L 106.242579 -2.470909 
L 105.595547 -2.470909 
L 104.948516 -2.470909 
L 104.301484 -2.470909 
L 103.654453 -2.470909 
L 103.007421 -2.470909 
L 102.36039 -2.470909 
L 101.713358 -2.470909 
L 101.066327 -2.470909 
L 100.419295 -2.470909 
L 99.772263 -2.470909 
L 99.125232 -2.470909 
L 98.4782 -2.470909 
L 97.831169 -2.470909 
L 97.184137 -2.470909 
L 96.537106 -2.470909 
L 95.890074 -2.470909 
L 95.243043 -2.470909 
L 94.596011 -2.470909 
L 93.94898 -2.470909 
L 93.301948 -2.470909 
L 92.654917 -2.470909 
L 92.007885 -2.470909 
L 91.360853 -2.470909 
L 90.713822 -2.470909 
L 90.06679 -2.470909 
L 89.419759 -2.470909 
L 88.772727 -2.470909 
L 88.125696 -2.470909 
L 87.478664 -2.470909 
L 86.831633 -2.470909 
L 86.184601 -2.470909 
L 85.53757 -2.470909 
L 84.890538 -2.470909 
L 84.243506 -2.470909 
L 83.596475 -2.470909 
L 82.949443 -2.470909 
L 82.302412 -2.470909 
L 81.65538 -2.470909 
L 81.008349 -2.470909 
L 80.361317 -2.470909 
L 79.714286 -2.470909 
L 79.067254 -2.470909 
L 78.420223 -2.470909 
L 77.773191 -2.470909 
L 77.12616 -2.470909 
L 76.479128 -2.470909 
L 75.832096 -2.470909 
L 75.185065 -2.470909 
L 74.538033 -2.470909 
L 73.891002 -2.470909 
L 73.24397 -2.470909 
L 72.596939 -2.470909 
L 71.949907 -2.470909 
L 71.302876 -2.470909 
L 70.655844 -2.470909 
L 70.008813 -2.470909 
L 69.361781 -2.470909 
L 68.71475 -2.470909 
L 68.067718 -2.470909 
L 67.420686 -2.470909 
L 66.773655 -2.470909 
L 66.126623 -2.470909 
L 65.479592 -2.470909 
L 64.83256 -2.470909 
L 64.185529 -2.470909 
L 63.538497 -2.470909 
L 62.891466 -2.470909 
L 62.244434 -2.470909 
L 61.597403 -2.470909 
L 60.950371 -2.470909 
L 60.30334 -2.470909 
L 59.656308 -2.470909 
L 59.009276 -2.470909 
L 58.362245 -2.470909 
L 57.715213 -2.470909 
L 57.068182 -2.470909 
L 56.42115 -2.470909 
L 55.774119 -2.470909 
L 55.127087 -2.470909 
L 54.480056 -2.470909 
L 53.833024 -2.470909 
L 53.185993 -2.470909 
L 52.538961 -2.470909 
L 51.891929 -2.470909 
L 51.244898 -2.470909 
z
" style="stroke: #116dc2; stroke-opacity: 0.2"/>
    </defs>
    <g clip-path="url(#pc9dfcb7767)">
     <use xlink:href="#m499b4fd744" x="0" y="54.36" style="fill: #116dc2; fill-opacity: 0.2; stroke: #116dc2; stroke-opacity: 0.2"/>
    </g>
   </g>
   <g id="PolyCollection_3">
    <defs>
     <path id="m346bf51ab4" d="M 25.363636 -2.470909 
L 25.363636 -4.644831 
L 26.010668 -5.000825 
L 26.657699 -5.474296 
L 27.304731 -6.151477 
L 27.951763 -7.05101 
L 28.598794 -8.124186 
L 29.245826 -9.290014 
L 29.892857 -10.463148 
L 30.539889 -11.597846 
L 31.18692 -12.764704 
L 31.833952 -14.154184 
L 32.480983 -15.936813 
L 33.128015 -18.121731 
L 33.775046 -20.555536 
L 34.422078 -23.017483 
L 35.069109 -25.328929 
L 35.716141 -27.415431 
L 36.363173 -29.283598 
L 37.010204 -31.018652 
L 37.657236 -32.8313 
L 38.304267 -34.944033 
L 38.951299 -37.364012 
L 39.59833 -39.895691 
L 40.245362 -42.366352 
L 40.892393 -44.705559 
L 41.539425 -46.847513 
L 42.186456 -48.699504 
L 42.833488 -50.188169 
L 43.480519 -51.246203 
L 44.127551 -51.81181 
L 44.774583 -51.889091 
L 45.421614 -51.518474 
L 46.068646 -50.707623 
L 46.715677 -49.485184 
L 47.362709 -47.951791 
L 48.00974 -46.218928 
L 48.656772 -44.345208 
L 49.303803 -42.315759 
L 49.950835 -40.082158 
L 50.597866 -37.647826 
L 51.244898 -35.040057 
L 51.891929 -32.229859 
L 52.538961 -29.231209 
L 53.185993 -26.221152 
L 53.833024 -23.441286 
L 54.480056 -21.05912 
L 55.127087 -19.128957 
L 55.774119 -17.544337 
L 56.42115 -16.076605 
L 57.068182 -14.580853 
L 57.715213 -13.081203 
L 58.362245 -11.628889 
L 59.009276 -10.220672 
L 59.656308 -8.871892 
L 60.30334 -7.651403 
L 60.950371 -6.614596 
L 61.597403 -5.762553 
L 62.244434 -5.082717 
L 62.891466 -4.575879 
L 63.538497 -4.222473 
L 63.538497 -2.470909 
L 63.538497 -2.470909 
L 62.891466 -2.470909 
L 62.244434 -2.470909 
L 61.597403 -2.470909 
L 60.950371 -2.470909 
L 60.30334 -2.470909 
L 59.656308 -2.470909 
L 59.009276 -2.470909 
L 58.362245 -2.470909 
L 57.715213 -2.470909 
L 57.068182 -2.470909 
L 56.42115 -2.470909 
L 55.774119 -2.470909 
L 55.127087 -2.470909 
L 54.480056 -2.470909 
L 53.833024 -2.470909 
L 53.185993 -2.470909 
L 52.538961 -2.470909 
L 51.891929 -2.470909 
L 51.244898 -2.470909 
L 50.597866 -2.470909 
L 49.950835 -2.470909 
L 49.303803 -2.470909 
L 48.656772 -2.470909 
L 48.00974 -2.470909 
L 47.362709 -2.470909 
L 46.715677 -2.470909 
L 46.068646 -2.470909 
L 45.421614 -2.470909 
L 44.774583 -2.470909 
L 44.127551 -2.470909 
L 43.480519 -2.470909 
L 42.833488 -2.470909 
L 42.186456 -2.470909 
L 41.539425 -2.470909 
L 40.892393 -2.470909 
L 40.245362 -2.470909 
L 39.59833 -2.470909 
L 38.951299 -2.470909 
L 38.304267 -2.470909 
L 37.657236 -2.470909 
L 37.010204 -2.470909 
L 36.363173 -2.470909 
L 35.716141 -2.470909 
L 35.069109 -2.470909 
L 34.422078 -2.470909 
L 33.775046 -2.470909 
L 33.128015 -2.470909 
L 32.480983 -2.470909 
L 31.833952 -2.470909 
L 31.18692 -2.470909 
L 30.539889 -2.470909 
L 29.892857 -2.470909 
L 29.245826 -2.470909 
L 28.598794 -2.470909 
L 27.951763 -2.470909 
L 27.304731 -2.470909 
L 26.657699 -2.470909 
L 26.010668 -2.470909 
L 25.363636 -2.470909 
z
" style="stroke: #8a8a8a; stroke-opacity: 0.2"/>
    </defs>
    <g clip-path="url(#pc9dfcb7767)">
     <use xlink:href="#m346bf51ab4" x="0" y="54.36" style="fill: #8a8a8a; fill-opacity: 0.2; stroke: #8a8a8a; stroke-opacity: 0.2"/>
    </g>
   </g>
   <g id="line2d_1">
    <path d="M 294.528757 50.232267 
L 304.881262 49.051152 
L 311.351577 48.110276 
L 317.821892 46.944718 
L 323.645176 45.705943 
L 328.174397 44.538226 
L 332.703618 43.136468 
L 339.173933 40.849408 
L 347.585343 37.673506 
L 352.761596 35.441409 
L 361.820037 31.444218 
L 370.231447 27.873448 
L 379.289889 23.846749 
L 383.172078 22.442007 
L 386.407236 21.502984 
L 390.289425 20.641315 
L 394.818646 19.891205 
L 404.524119 18.571504 
L 409.05334 18.125991 
L 412.288497 18.007692 
L 415.523655 18.120051 
L 418.758813 18.459208 
L 423.288033 19.19848 
L 429.758349 20.520259 
L 434.934601 21.792467 
L 439.463822 23.133928 
L 443.346011 24.493349 
L 447.875232 26.305691 
L 462.756957 32.457069 
L 488.638219 42.232314 
L 493.16744 43.589274 
L 498.990724 45.069435 
L 509.343228 47.390049 
L 516.460575 48.842979 
L 520.989796 49.528614 
L 526.166048 50.043309 
L 532.636364 50.520212 
L 532.636364 50.520212 
" clip-path="url(#pc9dfcb7767)" style="fill: none; stroke: #cf1313; stroke-width: 1.5; stroke-linecap: square"/>
   </g>
   <g id="line2d_2">
    <path d="M 51.244898 50.493172 
L 58.362245 49.97994 
L 71.302876 48.685543 
L 75.832096 48.092551 
L 79.714286 47.382729 
L 86.184601 45.924923 
L 102.36039 42.113075 
L 105.595547 40.975896 
L 109.477737 39.350729 
L 127.59462 31.110627 
L 133.417904 28.49243 
L 137.947124 26.720643 
L 143.123377 24.947459 
L 150.887755 22.544078 
L 158.005102 20.57536 
L 162.534323 19.519976 
L 167.063544 18.703463 
L 172.239796 18.019635 
L 176.121985 17.721689 
L 178.710111 17.716448 
L 181.298237 17.919441 
L 183.886364 18.331301 
L 187.121521 19.07547 
L 191.650742 20.372026 
L 196.179963 21.879067 
L 201.356215 23.852803 
L 213.002783 28.406079 
L 226.590445 33.479947 
L 233.707792 36.546605 
L 240.825139 39.552325 
L 245.35436 41.239365 
L 249.883581 42.693498 
L 255.059833 44.117605 
L 262.824212 46.010557 
L 269.294527 47.378578 
L 275.117811 48.351657 
L 282.882189 49.380518 
L 291.293599 50.30077 
L 295.175788 50.609297 
L 295.175788 50.609297 
" clip-path="url(#pc9dfcb7767)" style="fill: none; stroke: #116dc2; stroke-width: 1.5; stroke-linecap: square"/>
   </g>
   <g id="line2d_3">
    <path d="M 25.363636 49.715169 
L 26.010668 49.359175 
L 26.657699 48.885704 
L 27.304731 48.208523 
L 27.951763 47.30899 
L 28.598794 46.235814 
L 29.245826 45.069986 
L 29.892857 43.896852 
L 30.539889 42.762154 
L 31.18692 41.595296 
L 31.833952 40.205816 
L 32.480983 38.423187 
L 33.128015 36.238269 
L 33.775046 33.804464 
L 34.422078 31.342517 
L 35.069109 29.031071 
L 35.716141 26.944569 
L 36.363173 25.076402 
L 37.010204 23.341348 
L 37.657236 21.5287 
L 38.304267 19.415967 
L 38.951299 16.995988 
L 39.59833 14.464309 
L 40.245362 11.993648 
L 40.892393 9.654441 
L 41.539425 7.512487 
L 42.186456 5.660496 
L 42.833488 4.171831 
L 43.480519 3.113797 
L 44.127551 2.54819 
L 44.774583 2.470909 
L 45.421614 2.841526 
L 46.068646 3.652377 
L 46.715677 4.874816 
L 47.362709 6.408209 
L 48.00974 8.141072 
L 48.656772 10.014792 
L 49.303803 12.044241 
L 49.950835 14.277842 
L 50.597866 16.712174 
L 51.244898 19.319943 
L 51.891929 22.130141 
L 52.538961 25.128791 
L 53.185993 28.138848 
L 53.833024 30.918714 
L 54.480056 33.30088 
L 55.127087 35.231043 
L 55.774119 36.815663 
L 56.42115 38.283395 
L 57.068182 39.779147 
L 57.715213 41.278797 
L 58.362245 42.731111 
L 59.009276 44.139328 
L 59.656308 45.488108 
L 60.30334 46.708597 
L 60.950371 47.745404 
L 61.597403 48.597447 
L 62.244434 49.277283 
L 62.891466 49.784121 
L 63.538497 50.137527 
" clip-path="url(#pc9dfcb7767)" style="fill: none; stroke: #8a8a8a; stroke-width: 1.5; stroke-linecap: square"/>
   </g>
  </g>
 </g>
 <defs>
  <clipPath id="pc9dfcb7767">
   <rect x="0" y="-0" width="558" height="54.36"/>
  </clipPath>
 </defs>
</svg>
