<?xml version="1.0" encoding="utf-8" standalone="no"?>
<!DOCTYPE svg PUBLIC "-//W3C//DTD SVG 1.1//EN"
  "http://www.w3.org/Graphics/SVG/1.1/DTD/svg11.dtd">
<svg xmlns:xlink="http://www.w3.org/1999/xlink" width="558pt" height="54.36pt" viewBox="0 0 558 54.36" xmlns="http://www.w3.org/2000/svg" version="1.1">
 <metadata>
  <rdf:RDF xmlns:dc="http://purl.org/dc/elements/1.1/" xmlns:cc="http://creativecommons.org/ns#" xmlns:rdf="http://www.w3.org/1999/02/22-rdf-syntax-ns#">
   <cc:Work>
    <dc:type rdf:resource="http://purl.org/dc/dcmitype/StillImage"/>
    <dc:date>2024-09-15T09:30:46.784728</dc:date>
    <dc:format>image/svg+xml</dc:format>
    <dc:creator>
     <cc:Agent>
      <dc:title>Matplotlib v3.5.2, https://matplotlib.org/</dc:title>
     </cc:Agent>
    </dc:creator>
   </cc:Work>
  </rdf:RDF>
 </metadata>
 <defs>
  <style type="text/css">*{stroke-linejoin: round; stroke-linecap: butt}</style>
 </defs>
 <g id="figure_1">
  <g id="patch_1">
   <path d="M 0 54.36 
L 558 54.36 
L 558 0 
L 0 0 
L 0 54.36 
z
" style="fill: none; opacity: 0"/>
  </g>
  <g id="axes_1">
   <g id="PolyCollection_1">
    <defs>
     <path id="m2ce44e053c" d="M 295.996251 -2.470909 
L 295.996251 -4.142203 
L 296.649953 -4.198284 
L 297.303655 -4.255217 
L 297.957357 -4.313064 
L 298.611059 -4.371892 
L 299.264761 -4.431767 
L 299.918463 -4.492756 
L 300.572165 -4.55492 
L 301.225867 -4.618313 
L 301.879569 -4.682978 
L 302.533271 -4.748944 
L 303.186973 -4.816225 
L 303.840675 -4.884816 
L 304.494377 -4.954696 
L 305.148079 -5.025828 
L 305.801781 -5.098157 
L 306.455483 -5.171617 
L 307.109185 -5.246134 
L 307.762887 -5.321626 
L 308.416589 -5.398016 
L 309.070291 -5.475231 
L 309.723993 -5.553212 
L 310.377694 -5.631918 
L 311.031396 -5.711336 
L 311.685098 -5.791484 
L 312.3388 -5.872417 
L 312.992502 -5.954236 
L 313.646204 -6.037085 
L 314.299906 -6.121161 
L 314.953608 -6.206714 
L 315.60731 -6.294046 
L 316.261012 -6.383513 
L 316.914714 -6.475521 
L 317.568416 -6.570521 
L 318.222118 -6.669008 
L 318.87582 -6.771509 
L 319.529522 -6.878576 
L 320.183224 -6.990778 
L 320.836926 -7.108683 
L 321.490628 -7.232853 
L 322.14433 -7.363821 
L 322.798032 -7.502086 
L 323.451734 -7.64809 
L 324.105436 -7.802207 
L 324.759138 -7.964727 
L 325.41284 -8.135845 
L 326.066542 -8.31565 
L 326.720244 -8.504112 
L 327.373946 -8.701078 
L 328.027648 -8.90627 
L 328.68135 -9.119282 
L 329.335052 -9.339587 
L 329.988754 -9.566542 
L 330.642455 -9.799402 
L 331.296157 -10.037334 
L 331.949859 -10.279438 
L 332.603561 -10.524768 
L 333.257263 -10.772355 
L 333.910965 -11.021234 
L 334.564667 -11.270468 
L 335.218369 -11.519177 
L 335.872071 -11.76656 
L 336.525773 -12.011915 
L 337.179475 -12.254658 
L 337.833177 -12.494338 
L 338.486879 -12.730643 
L 339.140581 -12.963404 
L 339.794283 -13.192595 
L 340.447985 -13.418325 
L 341.101687 -13.640823 
L 341.755389 -13.860427 
L 342.409091 -14.07756 
L 343.062793 -14.292709 
L 343.716495 -14.506403 
L 344.370197 -14.719189 
L 345.023899 -14.931612 
L 345.677601 -15.144189 
L 346.331303 -15.357399 
L 346.985005 -15.571669 
L 347.638707 -15.78736 
L 348.292409 -16.00477 
L 348.946111 -16.22413 
L 349.599813 -16.445609 
L 350.253515 -16.669324 
L 350.907216 -16.895347 
L 351.560918 -17.123722 
L 352.21462 -17.354476 
L 352.868322 -17.587631 
L 353.522024 -17.823221 
L 354.175726 -18.061295 
L 354.829428 -18.301932 
L 355.48313 -18.54524 
L 356.136832 -18.791362 
L 356.790534 -19.040471 
L 357.444236 -19.292768 
L 358.097938 -19.548472 
L 358.75164 -19.807816 
L 359.405342 -20.071029 
L 360.059044 -20.338331 
L 360.712746 -20.609921 
L 361.366448 -20.885962 
L 362.02015 -21.166575 
L 362.673852 -21.451832 
L 363.327554 -21.741745 
L 363.981256 -22.036264 
L 364.634958 -22.335275 
L 365.28866 -22.638599 
L 365.942362 -22.945989 
L 366.596064 -23.257138 
L 367.249766 -23.57168 
L 367.903468 -23.889196 
L 368.55717 -24.209219 
L 369.210872 -24.531239 
L 369.864574 -24.854716 
L 370.518276 -25.179082 
L 371.171978 -25.503749 
L 371.825679 -25.828123 
L 372.479381 -26.151605 
L 373.133083 -26.4736 
L 373.786785 -26.793527 
L 374.440487 -27.110824 
L 375.094189 -27.424952 
L 375.747891 -27.735402 
L 376.401593 -28.041699 
L 377.055295 -28.343404 
L 377.708997 -28.640115 
L 378.362699 -28.931473 
L 379.016401 -29.217153 
L 379.670103 -29.496873 
L 380.323805 -29.770387 
L 380.977507 -30.037486 
L 381.631209 -30.297994 
L 382.284911 -30.551771 
L 382.938613 -30.798708 
L 383.592315 -31.038732 
L 384.246017 -31.271799 
L 384.899719 -31.497902 
L 385.553421 -31.717069 
L 386.207123 -31.929365 
L 386.860825 -32.134898 
L 387.514527 -32.333814 
L 388.168229 -32.526308 
L 388.821931 -32.712617 
L 389.475633 -32.893024 
L 390.129335 -33.067856 
L 390.783037 -33.237479 
L 391.436739 -33.402296 
L 392.09044 -33.562738 
L 392.744142 -33.719254 
L 393.397844 -33.872302 
L 394.051546 -34.022331 
L 394.705248 -34.169777 
L 395.35895 -34.315034 
L 396.012652 -34.458452 
L 396.666354 -34.600311 
L 397.320056 -34.740813 
L 397.973758 -34.880067 
L 398.62746 -35.018078 
L 399.281162 -35.154742 
L 399.934864 -35.289837 
L 400.588566 -35.42303 
L 401.242268 -35.553873 
L 401.89597 -35.681817 
L 402.549672 -35.806218 
L 403.203374 -35.926359 
L 403.857076 -36.04146 
L 404.510778 -36.150704 
L 405.16448 -36.253257 
L 405.818182 -36.348289 
L 406.471884 -36.434999 
L 407.125586 -36.512632 
L 407.779288 -36.580501 
L 408.43299 -36.638001 
L 409.086692 -36.684626 
L 409.740394 -36.719975 
L 410.394096 -36.743762 
L 411.047798 -36.755821 
L 411.7015 -36.756104 
L 412.355201 -36.744683 
L 413.008903 -36.721746 
L 413.662605 -36.687593 
L 414.316307 -36.642631 
L 414.970009 -36.587366 
L 415.623711 -36.522397 
L 416.277413 -36.448412 
L 416.931115 -36.366174 
L 417.584817 -36.276515 
L 418.238519 -36.180326 
L 418.892221 -36.078541 
L 419.545923 -35.972129 
L 420.199625 -35.86207 
L 420.853327 -35.749343 
L 421.507029 -35.634901 
L 422.160731 -35.519652 
L 422.814433 -35.404434 
L 423.468135 -35.289997 
L 424.121837 -35.176978 
L 424.775539 -35.065885 
L 425.429241 -34.957085 
L 426.082943 -34.850793 
L 426.736645 -34.747066 
L 427.390347 -34.645814 
L 428.044049 -34.546798 
L 428.697751 -34.449657 
L 429.351453 -34.353916 
L 430.005155 -34.25902 
L 430.658857 -34.164354 
L 431.312559 -34.069273 
L 431.966261 -33.973128 
L 432.619963 -33.87529 
L 433.273664 -33.775172 
L 433.927366 -33.672244 
L 434.581068 -33.566042 
L 435.23477 -33.456179 
L 435.888472 -33.342338 
L 436.542174 -33.224273 
L 437.195876 -33.101799 
L 437.849578 -32.974781 
L 438.50328 -32.843123 
L 439.156982 -32.706758 
L 439.810684 -32.565636 
L 440.464386 -32.419714 
L 441.118088 -32.268953 
L 441.77179 -32.113313 
L 442.425492 -31.95275 
L 443.079194 -31.787216 
L 443.732896 -31.616664 
L 444.386598 -31.441044 
L 445.0403 -31.260311 
L 445.694002 -31.074417 
L 446.347704 -30.883317 
L 447.001406 -30.68696 
L 447.655108 -30.485286 
L 448.30881 -30.278222 
L 448.962512 -30.065669 
L 449.616214 -29.847501 
L 450.269916 -29.623554 
L 450.923618 -29.393629 
L 451.57732 -29.157484 
L 452.231022 -28.914839 
L 452.884724 -28.665388 
L 453.538425 -28.408803 
L 454.192127 -28.144757 
L 454.845829 -27.872935 
L 455.499531 -27.593061 
L 456.153233 -27.304922 
L 456.806935 -27.008386 
L 457.460637 -26.703427 
L 458.114339 -26.390146 
L 458.768041 -26.068782 
L 459.421743 -25.739727 
L 460.075445 -25.403528 
L 460.729147 -25.060886 
L 461.382849 -24.712649 
L 462.036551 -24.359797 
L 462.690253 -24.003421 
L 463.343955 -23.644701 
L 463.997657 -23.284874 
L 464.651359 -22.925205 
L 465.305061 -22.566951 
L 465.958763 -22.211333 
L 466.612465 -21.8595 
L 467.266167 -21.512503 
L 467.919869 -21.171267 
L 468.573571 -20.836575 
L 469.227273 -20.509048 
L 469.880975 -20.189138 
L 470.534677 -19.877125 
L 471.188379 -19.573118 
L 471.842081 -19.27706 
L 472.495783 -18.988744 
L 473.149485 -18.707827 
L 473.803187 -18.433847 
L 474.456888 -18.166248 
L 475.11059 -17.904401 
L 475.764292 -17.647625 
L 476.417994 -17.395212 
L 477.071696 -17.146445 
L 477.725398 -16.90062 
L 478.3791 -16.657064 
L 479.032802 -16.415147 
L 479.686504 -16.174297 
L 480.340206 -15.934011 
L 480.993908 -15.693861 
L 481.64761 -15.453504 
L 482.301312 -15.212683 
L 482.955014 -14.971233 
L 483.608716 -14.729079 
L 484.262418 -14.48624 
L 484.91612 -14.242823 
L 485.569822 -13.999025 
L 486.223524 -13.755121 
L 486.877226 -13.511465 
L 487.530928 -13.268477 
L 488.18463 -13.026635 
L 488.838332 -12.786461 
L 489.492034 -12.548511 
L 490.145736 -12.31336 
L 490.799438 -12.081586 
L 491.45314 -11.853755 
L 492.106842 -11.63041 
L 492.760544 -11.412052 
L 493.414246 -11.19913 
L 494.067948 -10.992031 
L 494.721649 -10.791069 
L 495.375351 -10.596483 
L 496.029053 -10.408425 
L 496.682755 -10.226968 
L 497.336457 -10.052099 
L 497.990159 -9.883725 
L 498.643861 -9.721678 
L 499.297563 -9.565717 
L 499.951265 -9.415536 
L 500.604967 -9.270773 
L 501.258669 -9.131016 
L 501.912371 -8.995808 
L 502.566073 -8.864659 
L 503.219775 -8.737054 
L 503.873477 -8.612456 
L 504.527179 -8.490319 
L 505.180881 -8.370096 
L 505.834583 -8.251244 
L 506.488285 -8.133237 
L 507.141987 -8.015571 
L 507.795689 -7.897776 
L 508.449391 -7.779426 
L 509.103093 -7.660142 
L 509.756795 -7.539606 
L 510.410497 -7.417563 
L 511.064199 -7.293831 
L 511.717901 -7.168303 
L 512.371603 -7.04095 
L 513.025305 -6.911819 
L 513.679007 -6.781037 
L 514.332709 -6.648803 
L 514.98641 -6.515381 
L 515.640112 -6.3811 
L 516.293814 -6.246338 
L 516.947516 -6.111515 
L 517.601218 -5.977081 
L 518.25492 -5.843508 
L 518.908622 -5.711275 
L 519.562324 -5.580859 
L 520.216026 -5.452723 
L 520.869728 -5.327309 
L 521.52343 -5.205027 
L 522.177132 -5.086253 
L 522.830834 -4.971317 
L 523.484536 -4.860505 
L 524.138238 -4.754053 
L 524.79194 -4.652148 
L 525.445642 -4.554927 
L 526.099344 -4.46248 
L 526.753046 -4.37485 
L 527.406748 -4.292039 
L 528.06045 -4.214008 
L 528.714152 -4.140683 
L 529.367854 -4.071961 
L 530.021556 -4.007706 
L 530.675258 -3.94776 
L 531.32896 -3.891946 
L 531.982662 -3.840064 
L 532.636364 -3.791902 
L 532.636364 -2.470909 
L 532.636364 -2.470909 
L 531.982662 -2.470909 
L 531.32896 -2.470909 
L 530.675258 -2.470909 
L 530.021556 -2.470909 
L 529.367854 -2.470909 
L 528.714152 -2.470909 
L 528.06045 -2.470909 
L 527.406748 -2.470909 
L 526.753046 -2.470909 
L 526.099344 -2.470909 
L 525.445642 -2.470909 
L 524.79194 -2.470909 
L 524.138238 -2.470909 
L 523.484536 -2.470909 
L 522.830834 -2.470909 
L 522.177132 -2.470909 
L 521.52343 -2.470909 
L 520.869728 -2.470909 
L 520.216026 -2.470909 
L 519.562324 -2.470909 
L 518.908622 -2.470909 
L 518.25492 -2.470909 
L 517.601218 -2.470909 
L 516.947516 -2.470909 
L 516.293814 -2.470909 
L 515.640112 -2.470909 
L 514.98641 -2.470909 
L 514.332709 -2.470909 
L 513.679007 -2.470909 
L 513.025305 -2.470909 
L 512.371603 -2.470909 
L 511.717901 -2.470909 
L 511.064199 -2.470909 
L 510.410497 -2.470909 
L 509.756795 -2.470909 
L 509.103093 -2.470909 
L 508.449391 -2.470909 
L 507.795689 -2.470909 
L 507.141987 -2.470909 
L 506.488285 -2.470909 
L 505.834583 -2.470909 
L 505.180881 -2.470909 
L 504.527179 -2.470909 
L 503.873477 -2.470909 
L 503.219775 -2.470909 
L 502.566073 -2.470909 
L 501.912371 -2.470909 
L 501.258669 -2.470909 
L 500.604967 -2.470909 
L 499.951265 -2.470909 
L 499.297563 -2.470909 
L 498.643861 -2.470909 
L 497.990159 -2.470909 
L 497.336457 -2.470909 
L 496.682755 -2.470909 
L 496.029053 -2.470909 
L 495.375351 -2.470909 
L 494.721649 -2.470909 
L 494.067948 -2.470909 
L 493.414246 -2.470909 
L 492.760544 -2.470909 
L 492.106842 -2.470909 
L 491.45314 -2.470909 
L 490.799438 -2.470909 
L 490.145736 -2.470909 
L 489.492034 -2.470909 
L 488.838332 -2.470909 
L 488.18463 -2.470909 
L 487.530928 -2.470909 
L 486.877226 -2.470909 
L 486.223524 -2.470909 
L 485.569822 -2.470909 
L 484.91612 -2.470909 
L 484.262418 -2.470909 
L 483.608716 -2.470909 
L 482.955014 -2.470909 
L 482.301312 -2.470909 
L 481.64761 -2.470909 
L 480.993908 -2.470909 
L 480.340206 -2.470909 
L 479.686504 -2.470909 
L 479.032802 -2.470909 
L 478.3791 -2.470909 
L 477.725398 -2.470909 
L 477.071696 -2.470909 
L 476.417994 -2.470909 
L 475.764292 -2.470909 
L 475.11059 -2.470909 
L 474.456888 -2.470909 
L 473.803187 -2.470909 
L 473.149485 -2.470909 
L 472.495783 -2.470909 
L 471.842081 -2.470909 
L 471.188379 -2.470909 
L 470.534677 -2.470909 
L 469.880975 -2.470909 
L 469.227273 -2.470909 
L 468.573571 -2.470909 
L 467.919869 -2.470909 
L 467.266167 -2.470909 
L 466.612465 -2.470909 
L 465.958763 -2.470909 
L 465.305061 -2.470909 
L 464.651359 -2.470909 
L 463.997657 -2.470909 
L 463.343955 -2.470909 
L 462.690253 -2.470909 
L 462.036551 -2.470909 
L 461.382849 -2.470909 
L 460.729147 -2.470909 
L 460.075445 -2.470909 
L 459.421743 -2.470909 
L 458.768041 -2.470909 
L 458.114339 -2.470909 
L 457.460637 -2.470909 
L 456.806935 -2.470909 
L 456.153233 -2.470909 
L 455.499531 -2.470909 
L 454.845829 -2.470909 
L 454.192127 -2.470909 
L 453.538425 -2.470909 
L 452.884724 -2.470909 
L 452.231022 -2.470909 
L 451.57732 -2.470909 
L 450.923618 -2.470909 
L 450.269916 -2.470909 
L 449.616214 -2.470909 
L 448.962512 -2.470909 
L 448.30881 -2.470909 
L 447.655108 -2.470909 
L 447.001406 -2.470909 
L 446.347704 -2.470909 
L 445.694002 -2.470909 
L 445.0403 -2.470909 
L 444.386598 -2.470909 
L 443.732896 -2.470909 
L 443.079194 -2.470909 
L 442.425492 -2.470909 
L 441.77179 -2.470909 
L 441.118088 -2.470909 
L 440.464386 -2.470909 
L 439.810684 -2.470909 
L 439.156982 -2.470909 
L 438.50328 -2.470909 
L 437.849578 -2.470909 
L 437.195876 -2.470909 
L 436.542174 -2.470909 
L 435.888472 -2.470909 
L 435.23477 -2.470909 
L 434.581068 -2.470909 
L 433.927366 -2.470909 
L 433.273664 -2.470909 
L 432.619963 -2.470909 
L 431.966261 -2.470909 
L 431.312559 -2.470909 
L 430.658857 -2.470909 
L 430.005155 -2.470909 
L 429.351453 -2.470909 
L 428.697751 -2.470909 
L 428.044049 -2.470909 
L 427.390347 -2.470909 
L 426.736645 -2.470909 
L 426.082943 -2.470909 
L 425.429241 -2.470909 
L 424.775539 -2.470909 
L 424.121837 -2.470909 
L 423.468135 -2.470909 
L 422.814433 -2.470909 
L 422.160731 -2.470909 
L 421.507029 -2.470909 
L 420.853327 -2.470909 
L 420.199625 -2.470909 
L 419.545923 -2.470909 
L 418.892221 -2.470909 
L 418.238519 -2.470909 
L 417.584817 -2.470909 
L 416.931115 -2.470909 
L 416.277413 -2.470909 
L 415.623711 -2.470909 
L 414.970009 -2.470909 
L 414.316307 -2.470909 
L 413.662605 -2.470909 
L 413.008903 -2.470909 
L 412.355201 -2.470909 
L 411.7015 -2.470909 
L 411.047798 -2.470909 
L 410.394096 -2.470909 
L 409.740394 -2.470909 
L 409.086692 -2.470909 
L 408.43299 -2.470909 
L 407.779288 -2.470909 
L 407.125586 -2.470909 
L 406.471884 -2.470909 
L 405.818182 -2.470909 
L 405.16448 -2.470909 
L 404.510778 -2.470909 
L 403.857076 -2.470909 
L 403.203374 -2.470909 
L 402.549672 -2.470909 
L 401.89597 -2.470909 
L 401.242268 -2.470909 
L 400.588566 -2.470909 
L 399.934864 -2.470909 
L 399.281162 -2.470909 
L 398.62746 -2.470909 
L 397.973758 -2.470909 
L 397.320056 -2.470909 
L 396.666354 -2.470909 
L 396.012652 -2.470909 
L 395.35895 -2.470909 
L 394.705248 -2.470909 
L 394.051546 -2.470909 
L 393.397844 -2.470909 
L 392.744142 -2.470909 
L 392.09044 -2.470909 
L 391.436739 -2.470909 
L 390.783037 -2.470909 
L 390.129335 -2.470909 
L 389.475633 -2.470909 
L 388.821931 -2.470909 
L 388.168229 -2.470909 
L 387.514527 -2.470909 
L 386.860825 -2.470909 
L 386.207123 -2.470909 
L 385.553421 -2.470909 
L 384.899719 -2.470909 
L 384.246017 -2.470909 
L 383.592315 -2.470909 
L 382.938613 -2.470909 
L 382.284911 -2.470909 
L 381.631209 -2.470909 
L 380.977507 -2.470909 
L 380.323805 -2.470909 
L 379.670103 -2.470909 
L 379.016401 -2.470909 
L 378.362699 -2.470909 
L 377.708997 -2.470909 
L 377.055295 -2.470909 
L 376.401593 -2.470909 
L 375.747891 -2.470909 
L 375.094189 -2.470909 
L 374.440487 -2.470909 
L 373.786785 -2.470909 
L 373.133083 -2.470909 
L 372.479381 -2.470909 
L 371.825679 -2.470909 
L 371.171978 -2.470909 
L 370.518276 -2.470909 
L 369.864574 -2.470909 
L 369.210872 -2.470909 
L 368.55717 -2.470909 
L 367.903468 -2.470909 
L 367.249766 -2.470909 
L 366.596064 -2.470909 
L 365.942362 -2.470909 
L 365.28866 -2.470909 
L 364.634958 -2.470909 
L 363.981256 -2.470909 
L 363.327554 -2.470909 
L 362.673852 -2.470909 
L 362.02015 -2.470909 
L 361.366448 -2.470909 
L 360.712746 -2.470909 
L 360.059044 -2.470909 
L 359.405342 -2.470909 
L 358.75164 -2.470909 
L 358.097938 -2.470909 
L 357.444236 -2.470909 
L 356.790534 -2.470909 
L 356.136832 -2.470909 
L 355.48313 -2.470909 
L 354.829428 -2.470909 
L 354.175726 -2.470909 
L 353.522024 -2.470909 
L 352.868322 -2.470909 
L 352.21462 -2.470909 
L 351.560918 -2.470909 
L 350.907216 -2.470909 
L 350.253515 -2.470909 
L 349.599813 -2.470909 
L 348.946111 -2.470909 
L 348.292409 -2.470909 
L 347.638707 -2.470909 
L 346.985005 -2.470909 
L 346.331303 -2.470909 
L 345.677601 -2.470909 
L 345.023899 -2.470909 
L 344.370197 -2.470909 
L 343.716495 -2.470909 
L 343.062793 -2.470909 
L 342.409091 -2.470909 
L 341.755389 -2.470909 
L 341.101687 -2.470909 
L 340.447985 -2.470909 
L 339.794283 -2.470909 
L 339.140581 -2.470909 
L 338.486879 -2.470909 
L 337.833177 -2.470909 
L 337.179475 -2.470909 
L 336.525773 -2.470909 
L 335.872071 -2.470909 
L 335.218369 -2.470909 
L 334.564667 -2.470909 
L 333.910965 -2.470909 
L 333.257263 -2.470909 
L 332.603561 -2.470909 
L 331.949859 -2.470909 
L 331.296157 -2.470909 
L 330.642455 -2.470909 
L 329.988754 -2.470909 
L 329.335052 -2.470909 
L 328.68135 -2.470909 
L 328.027648 -2.470909 
L 327.373946 -2.470909 
L 326.720244 -2.470909 
L 326.066542 -2.470909 
L 325.41284 -2.470909 
L 324.759138 -2.470909 
L 324.105436 -2.470909 
L 323.451734 -2.470909 
L 322.798032 -2.470909 
L 322.14433 -2.470909 
L 321.490628 -2.470909 
L 320.836926 -2.470909 
L 320.183224 -2.470909 
L 319.529522 -2.470909 
L 318.87582 -2.470909 
L 318.222118 -2.470909 
L 317.568416 -2.470909 
L 316.914714 -2.470909 
L 316.261012 -2.470909 
L 315.60731 -2.470909 
L 314.953608 -2.470909 
L 314.299906 -2.470909 
L 313.646204 -2.470909 
L 312.992502 -2.470909 
L 312.3388 -2.470909 
L 311.685098 -2.470909 
L 311.031396 -2.470909 
L 310.377694 -2.470909 
L 309.723993 -2.470909 
L 309.070291 -2.470909 
L 308.416589 -2.470909 
L 307.762887 -2.470909 
L 307.109185 -2.470909 
L 306.455483 -2.470909 
L 305.801781 -2.470909 
L 305.148079 -2.470909 
L 304.494377 -2.470909 
L 303.840675 -2.470909 
L 303.186973 -2.470909 
L 302.533271 -2.470909 
L 301.879569 -2.470909 
L 301.225867 -2.470909 
L 300.572165 -2.470909 
L 299.918463 -2.470909 
L 299.264761 -2.470909 
L 298.611059 -2.470909 
L 297.957357 -2.470909 
L 297.303655 -2.470909 
L 296.649953 -2.470909 
L 295.996251 -2.470909 
z
" style="stroke: #cf1313; stroke-opacity: 0.2"/>
    </defs>
    <g clip-path="url(#p2c35d7a45f)">
     <use xlink:href="#m2ce44e053c" x="0" y="54.36" style="fill: #cf1313; fill-opacity: 0.2; stroke: #cf1313; stroke-opacity: 0.2"/>
    </g>
   </g>
   <g id="PolyCollection_2">
    <defs>
     <path id="m781537309b" d="M 50.204311 -2.470909 
L 50.204311 -3.823931 
L 50.858013 -3.859473 
L 51.511715 -3.895779 
L 52.165417 -3.933001 
L 52.819119 -3.971319 
L 53.472821 -4.010933 
L 54.126523 -4.052059 
L 54.780225 -4.094925 
L 55.433927 -4.139762 
L 56.087629 -4.186799 
L 56.741331 -4.236257 
L 57.395033 -4.288342 
L 58.048735 -4.343236 
L 58.702437 -4.401099 
L 59.356139 -4.462056 
L 60.009841 -4.526198 
L 60.663543 -4.593579 
L 61.317245 -4.664213 
L 61.970947 -4.738075 
L 62.624649 -4.8151 
L 63.278351 -4.895183 
L 63.932052 -4.978186 
L 64.585754 -5.063938 
L 65.239456 -5.152239 
L 65.893158 -5.242867 
L 66.54686 -5.335582 
L 67.200562 -5.430135 
L 67.854264 -5.52627 
L 68.507966 -5.623734 
L 69.161668 -5.722285 
L 69.81537 -5.821695 
L 70.469072 -5.921759 
L 71.122774 -6.022299 
L 71.776476 -6.123169 
L 72.430178 -6.22426 
L 73.08388 -6.3255 
L 73.737582 -6.426858 
L 74.391284 -6.528342 
L 75.044986 -6.629998 
L 75.698688 -6.731909 
L 76.35239 -6.834192 
L 77.006092 -6.936991 
L 77.659794 -7.040476 
L 78.313496 -7.144836 
L 78.967198 -7.250277 
L 79.6209 -7.357013 
L 80.274602 -7.465268 
L 80.928304 -7.575269 
L 81.582006 -7.687246 
L 82.235708 -7.801426 
L 82.88941 -7.91804 
L 83.543112 -8.037316 
L 84.196813 -8.159481 
L 84.850515 -8.284765 
L 85.504217 -8.413396 
L 86.157919 -8.545603 
L 86.811621 -8.681615 
L 87.465323 -8.821661 
L 88.119025 -8.965963 
L 88.772727 -9.114738 
L 89.426429 -9.268187 
L 90.080131 -9.426497 
L 90.733833 -9.589829 
L 91.387535 -9.758311 
L 92.041237 -9.932037 
L 92.694939 -10.111054 
L 93.348641 -10.295362 
L 94.002343 -10.484906 
L 94.656045 -10.679574 
L 95.309747 -10.879202 
L 95.963449 -11.083568 
L 96.617151 -11.292404 
L 97.270853 -11.505399 
L 97.924555 -11.722211 
L 98.578257 -11.942476 
L 99.231959 -12.165825 
L 99.885661 -12.391895 
L 100.539363 -12.620346 
L 101.193065 -12.850874 
L 101.846767 -13.083225 
L 102.500469 -13.317205 
L 103.154171 -13.552693 
L 103.807873 -13.789638 
L 104.461575 -14.02807 
L 105.115276 -14.268092 
L 105.768978 -14.509874 
L 106.42268 -14.753644 
L 107.076382 -14.999677 
L 107.730084 -15.248272 
L 108.383786 -15.499738 
L 109.037488 -15.754371 
L 109.69119 -16.012438 
L 110.344892 -16.274152 
L 110.998594 -16.539658 
L 111.652296 -16.809019 
L 112.305998 -17.082204 
L 112.9597 -17.359081 
L 113.613402 -17.639419 
L 114.267104 -17.92289 
L 114.920806 -18.209076 
L 115.574508 -18.497485 
L 116.22821 -18.78757 
L 116.881912 -19.078741 
L 117.535614 -19.370397 
L 118.189316 -19.661938 
L 118.843018 -19.952794 
L 119.49672 -20.242442 
L 120.150422 -20.530421 
L 120.804124 -20.81635 
L 121.457826 -21.099932 
L 122.111528 -21.380963 
L 122.76523 -21.65933 
L 123.418932 -21.935011 
L 124.072634 -22.208063 
L 124.726336 -22.478618 
L 125.380037 -22.746869 
L 126.033739 -23.013056 
L 126.687441 -23.277461 
L 127.341143 -23.540388 
L 127.994845 -23.802161 
L 128.648547 -24.063112 
L 129.302249 -24.323579 
L 129.955951 -24.583899 
L 130.609653 -24.844411 
L 131.263355 -25.105454 
L 131.917057 -25.367365 
L 132.570759 -25.630487 
L 133.224461 -25.895157 
L 133.878163 -26.161715 
L 134.531865 -26.430492 
L 135.185567 -26.701803 
L 135.839269 -26.97594 
L 136.492971 -27.253151 
L 137.146673 -27.53363 
L 137.800375 -27.817496 
L 138.454077 -28.104772 
L 139.107779 -28.39537 
L 139.761481 -28.689066 
L 140.415183 -28.985497 
L 141.068885 -29.28414 
L 141.722587 -29.584318 
L 142.376289 -29.885196 
L 143.029991 -30.185797 
L 143.683693 -30.485016 
L 144.337395 -30.781651 
L 144.991097 -31.074434 
L 145.644799 -31.362069 
L 146.2985 -31.643278 
L 146.952202 -31.916844 
L 147.605904 -32.181659 
L 148.259606 -32.436763 
L 148.913308 -32.681386 
L 149.56701 -32.914977 
L 150.220712 -33.137224 
L 150.874414 -33.34807 
L 151.528116 -33.547707 
L 152.181818 -33.736569 
L 152.83552 -33.915304 
L 153.489222 -34.084741 
L 154.142924 -34.245845 
L 154.796626 -34.399672 
L 155.450328 -34.547304 
L 156.10403 -34.689802 
L 156.757732 -34.828147 
L 157.411434 -34.963189 
L 158.065136 -35.095606 
L 158.718838 -35.225868 
L 159.37254 -35.354217 
L 160.026242 -35.480652 
L 160.679944 -35.604938 
L 161.333646 -35.726615 
L 161.987348 -35.84503 
L 162.64105 -35.959369 
L 163.294752 -36.068704 
L 163.948454 -36.172042 
L 164.602156 -36.268376 
L 165.255858 -36.35674 
L 165.90956 -36.436256 
L 166.563261 -36.506175 
L 167.216963 -36.565922 
L 167.870665 -36.615115 
L 168.524367 -36.65359 
L 169.178069 -36.681403 
L 169.831771 -36.698837 
L 170.485473 -36.706384 
L 171.139175 -36.70473 
L 171.792877 -36.694729 
L 172.446579 -36.677373 
L 173.100281 -36.65376 
L 173.753983 -36.625056 
L 174.407685 -36.59246 
L 175.061387 -36.557169 
L 175.715089 -36.520347 
L 176.368791 -36.483088 
L 177.022493 -36.446394 
L 177.676195 -36.411147 
L 178.329897 -36.378085 
L 178.983599 -36.347788 
L 179.637301 -36.320655 
L 180.291003 -36.296898 
L 180.944705 -36.276528 
L 181.598407 -36.259349 
L 182.252109 -36.244957 
L 182.905811 -36.232739 
L 183.559513 -36.221883 
L 184.213215 -36.211382 
L 184.866917 -36.200056 
L 185.520619 -36.18657 
L 186.174321 -36.169466 
L 186.828022 -36.147187 
L 187.481724 -36.11812 
L 188.135426 -36.080634 
L 188.789128 -36.033124 
L 189.44283 -35.974053 
L 190.096532 -35.901997 
L 190.750234 -35.815683 
L 191.403936 -35.71403 
L 192.057638 -35.59618 
L 192.71134 -35.46152 
L 193.365042 -35.309704 
L 194.018744 -35.140656 
L 194.672446 -34.954575 
L 195.326148 -34.751927 
L 195.97985 -34.533422 
L 196.633552 -34.299999 
L 197.287254 -34.052789 
L 197.940956 -33.793089 
L 198.594658 -33.522318 
L 199.24836 -33.241985 
L 199.902062 -32.953649 
L 200.555764 -32.658886 
L 201.209466 -32.359255 
L 201.863168 -32.05627 
L 202.51687 -31.751377 
L 203.170572 -31.445935 
L 203.824274 -31.141201 
L 204.477976 -30.838319 
L 205.131678 -30.538317 
L 205.78538 -30.242098 
L 206.439082 -29.950445 
L 207.092784 -29.664016 
L 207.746485 -29.383348 
L 208.400187 -29.108856 
L 209.053889 -28.840835 
L 209.707591 -28.579457 
L 210.361293 -28.324776 
L 211.014995 -28.076721 
L 211.668697 -27.835098 
L 212.322399 -27.599591 
L 212.976101 -27.369763 
L 213.629803 -27.145057 
L 214.283505 -26.924809 
L 214.937207 -26.708248 
L 215.590909 -26.494518 
L 216.244611 -26.282691 
L 216.898313 -26.071785 
L 217.552015 -25.860792 
L 218.205717 -25.648702 
L 218.859419 -25.434528 
L 219.513121 -25.217338 
L 220.166823 -24.996277 
L 220.820525 -24.770597 
L 221.474227 -24.539678 
L 222.127929 -24.303046 
L 222.781631 -24.060386 
L 223.435333 -23.811552 
L 224.089035 -23.556569 
L 224.742737 -23.295629 
L 225.396439 -23.029083 
L 226.050141 -22.757428 
L 226.703843 -22.481286 
L 227.357545 -22.201384 
L 228.011246 -21.918528 
L 228.664948 -21.633577 
L 229.31865 -21.347414 
L 229.972352 -21.060921 
L 230.626054 -20.774952 
L 231.279756 -20.490308 
L 231.933458 -20.207716 
L 232.58716 -19.927811 
L 233.240862 -19.651121 
L 233.894564 -19.378051 
L 234.548266 -19.108885 
L 235.201968 -18.84377 
L 235.85567 -18.582726 
L 236.509372 -18.325642 
L 237.163074 -18.072287 
L 237.816776 -17.822318 
L 238.470478 -17.575293 
L 239.12418 -17.330686 
L 239.777882 -17.087908 
L 240.431584 -16.846318 
L 241.085286 -16.605255 
L 241.738988 -16.364049 
L 242.39269 -16.122047 
L 243.046392 -15.878634 
L 243.700094 -15.633252 
L 244.353796 -15.385417 
L 245.007498 -15.134735 
L 245.6612 -14.880917 
L 246.314902 -14.623782 
L 246.968604 -14.363273 
L 247.622306 -14.099449 
L 248.276007 -13.83249 
L 248.929709 -13.562691 
L 249.583411 -13.290454 
L 250.237113 -13.016277 
L 250.890815 -12.74074 
L 251.544517 -12.464494 
L 252.198219 -12.188241 
L 252.851921 -11.912722 
L 253.505623 -11.638699 
L 254.159325 -11.366938 
L 254.813027 -11.098197 
L 255.466729 -10.833213 
L 256.120431 -10.572686 
L 256.774133 -10.317275 
L 257.427835 -10.067585 
L 258.081537 -9.824161 
L 258.735239 -9.587483 
L 259.388941 -9.357963 
L 260.042643 -9.135942 
L 260.696345 -8.921688 
L 261.350047 -8.715395 
L 262.003749 -8.517186 
L 262.657451 -8.327114 
L 263.311153 -8.14516 
L 263.964855 -7.971244 
L 264.618557 -7.805221 
L 265.272259 -7.64689 
L 265.925961 -7.495998 
L 266.579663 -7.352244 
L 267.233365 -7.215286 
L 267.887067 -7.084751 
L 268.540769 -6.960235 
L 269.19447 -6.841315 
L 269.848172 -6.727555 
L 270.501874 -6.618509 
L 271.155576 -6.513733 
L 271.809278 -6.412787 
L 272.46298 -6.315242 
L 273.116682 -6.220683 
L 273.770384 -6.128717 
L 274.424086 -6.038973 
L 275.077788 -5.951107 
L 275.73149 -5.864806 
L 276.385192 -5.779788 
L 277.038894 -5.695806 
L 277.692596 -5.61265 
L 278.346298 -5.530148 
L 279 -5.448169 
L 279.653702 -5.366623 
L 280.307404 -5.285463 
L 280.961106 -5.204684 
L 281.614808 -5.124325 
L 282.26851 -5.044467 
L 282.922212 -4.96523 
L 283.575914 -4.886773 
L 284.229616 -4.809285 
L 284.883318 -4.732986 
L 285.53702 -4.658118 
L 286.190722 -4.584937 
L 286.844424 -4.513706 
L 287.498126 -4.44469 
L 288.151828 -4.378142 
L 288.80553 -4.314299 
L 289.459231 -4.253374 
L 290.112933 -4.195547 
L 290.766635 -4.140959 
L 291.420337 -4.089711 
L 292.074039 -4.041857 
L 292.727741 -3.997401 
L 293.381443 -3.956301 
L 294.035145 -3.918466 
L 294.688847 -3.88376 
L 295.342549 -3.852005 
L 295.996251 -3.822984 
L 296.649953 -3.796451 
L 297.303655 -3.772129 
L 297.957357 -3.749721 
L 298.611059 -3.728917 
L 299.264761 -3.709395 
L 299.264761 -2.470909 
L 299.264761 -2.470909 
L 298.611059 -2.470909 
L 297.957357 -2.470909 
L 297.303655 -2.470909 
L 296.649953 -2.470909 
L 295.996251 -2.470909 
L 295.342549 -2.470909 
L 294.688847 -2.470909 
L 294.035145 -2.470909 
L 293.381443 -2.470909 
L 292.727741 -2.470909 
L 292.074039 -2.470909 
L 291.420337 -2.470909 
L 290.766635 -2.470909 
L 290.112933 -2.470909 
L 289.459231 -2.470909 
L 288.80553 -2.470909 
L 288.151828 -2.470909 
L 287.498126 -2.470909 
L 286.844424 -2.470909 
L 286.190722 -2.470909 
L 285.53702 -2.470909 
L 284.883318 -2.470909 
L 284.229616 -2.470909 
L 283.575914 -2.470909 
L 282.922212 -2.470909 
L 282.26851 -2.470909 
L 281.614808 -2.470909 
L 280.961106 -2.470909 
L 280.307404 -2.470909 
L 279.653702 -2.470909 
L 279 -2.470909 
L 278.346298 -2.470909 
L 277.692596 -2.470909 
L 277.038894 -2.470909 
L 276.385192 -2.470909 
L 275.73149 -2.470909 
L 275.077788 -2.470909 
L 274.424086 -2.470909 
L 273.770384 -2.470909 
L 273.116682 -2.470909 
L 272.46298 -2.470909 
L 271.809278 -2.470909 
L 271.155576 -2.470909 
L 270.501874 -2.470909 
L 269.848172 -2.470909 
L 269.19447 -2.470909 
L 268.540769 -2.470909 
L 267.887067 -2.470909 
L 267.233365 -2.470909 
L 266.579663 -2.470909 
L 265.925961 -2.470909 
L 265.272259 -2.470909 
L 264.618557 -2.470909 
L 263.964855 -2.470909 
L 263.311153 -2.470909 
L 262.657451 -2.470909 
L 262.003749 -2.470909 
L 261.350047 -2.470909 
L 260.696345 -2.470909 
L 260.042643 -2.470909 
L 259.388941 -2.470909 
L 258.735239 -2.470909 
L 258.081537 -2.470909 
L 257.427835 -2.470909 
L 256.774133 -2.470909 
L 256.120431 -2.470909 
L 255.466729 -2.470909 
L 254.813027 -2.470909 
L 254.159325 -2.470909 
L 253.505623 -2.470909 
L 252.851921 -2.470909 
L 252.198219 -2.470909 
L 251.544517 -2.470909 
L 250.890815 -2.470909 
L 250.237113 -2.470909 
L 249.583411 -2.470909 
L 248.929709 -2.470909 
L 248.276007 -2.470909 
L 247.622306 -2.470909 
L 246.968604 -2.470909 
L 246.314902 -2.470909 
L 245.6612 -2.470909 
L 245.007498 -2.470909 
L 244.353796 -2.470909 
L 243.700094 -2.470909 
L 243.046392 -2.470909 
L 242.39269 -2.470909 
L 241.738988 -2.470909 
L 241.085286 -2.470909 
L 240.431584 -2.470909 
L 239.777882 -2.470909 
L 239.12418 -2.470909 
L 238.470478 -2.470909 
L 237.816776 -2.470909 
L 237.163074 -2.470909 
L 236.509372 -2.470909 
L 235.85567 -2.470909 
L 235.201968 -2.470909 
L 234.548266 -2.470909 
L 233.894564 -2.470909 
L 233.240862 -2.470909 
L 232.58716 -2.470909 
L 231.933458 -2.470909 
L 231.279756 -2.470909 
L 230.626054 -2.470909 
L 229.972352 -2.470909 
L 229.31865 -2.470909 
L 228.664948 -2.470909 
L 228.011246 -2.470909 
L 227.357545 -2.470909 
L 226.703843 -2.470909 
L 226.050141 -2.470909 
L 225.396439 -2.470909 
L 224.742737 -2.470909 
L 224.089035 -2.470909 
L 223.435333 -2.470909 
L 222.781631 -2.470909 
L 222.127929 -2.470909 
L 221.474227 -2.470909 
L 220.820525 -2.470909 
L 220.166823 -2.470909 
L 219.513121 -2.470909 
L 218.859419 -2.470909 
L 218.205717 -2.470909 
L 217.552015 -2.470909 
L 216.898313 -2.470909 
L 216.244611 -2.470909 
L 215.590909 -2.470909 
L 214.937207 -2.470909 
L 214.283505 -2.470909 
L 213.629803 -2.470909 
L 212.976101 -2.470909 
L 212.322399 -2.470909 
L 211.668697 -2.470909 
L 211.014995 -2.470909 
L 210.361293 -2.470909 
L 209.707591 -2.470909 
L 209.053889 -2.470909 
L 208.400187 -2.470909 
L 207.746485 -2.470909 
L 207.092784 -2.470909 
L 206.439082 -2.470909 
L 205.78538 -2.470909 
L 205.131678 -2.470909 
L 204.477976 -2.470909 
L 203.824274 -2.470909 
L 203.170572 -2.470909 
L 202.51687 -2.470909 
L 201.863168 -2.470909 
L 201.209466 -2.470909 
L 200.555764 -2.470909 
L 199.902062 -2.470909 
L 199.24836 -2.470909 
L 198.594658 -2.470909 
L 197.940956 -2.470909 
L 197.287254 -2.470909 
L 196.633552 -2.470909 
L 195.97985 -2.470909 
L 195.326148 -2.470909 
L 194.672446 -2.470909 
L 194.018744 -2.470909 
L 193.365042 -2.470909 
L 192.71134 -2.470909 
L 192.057638 -2.470909 
L 191.403936 -2.470909 
L 190.750234 -2.470909 
L 190.096532 -2.470909 
L 189.44283 -2.470909 
L 188.789128 -2.470909 
L 188.135426 -2.470909 
L 187.481724 -2.470909 
L 186.828022 -2.470909 
L 186.174321 -2.470909 
L 185.520619 -2.470909 
L 184.866917 -2.470909 
L 184.213215 -2.470909 
L 183.559513 -2.470909 
L 182.905811 -2.470909 
L 182.252109 -2.470909 
L 181.598407 -2.470909 
L 180.944705 -2.470909 
L 180.291003 -2.470909 
L 179.637301 -2.470909 
L 178.983599 -2.470909 
L 178.329897 -2.470909 
L 177.676195 -2.470909 
L 177.022493 -2.470909 
L 176.368791 -2.470909 
L 175.715089 -2.470909 
L 175.061387 -2.470909 
L 174.407685 -2.470909 
L 173.753983 -2.470909 
L 173.100281 -2.470909 
L 172.446579 -2.470909 
L 171.792877 -2.470909 
L 171.139175 -2.470909 
L 170.485473 -2.470909 
L 169.831771 -2.470909 
L 169.178069 -2.470909 
L 168.524367 -2.470909 
L 167.870665 -2.470909 
L 167.216963 -2.470909 
L 166.563261 -2.470909 
L 165.90956 -2.470909 
L 165.255858 -2.470909 
L 164.602156 -2.470909 
L 163.948454 -2.470909 
L 163.294752 -2.470909 
L 162.64105 -2.470909 
L 161.987348 -2.470909 
L 161.333646 -2.470909 
L 160.679944 -2.470909 
L 160.026242 -2.470909 
L 159.37254 -2.470909 
L 158.718838 -2.470909 
L 158.065136 -2.470909 
L 157.411434 -2.470909 
L 156.757732 -2.470909 
L 156.10403 -2.470909 
L 155.450328 -2.470909 
L 154.796626 -2.470909 
L 154.142924 -2.470909 
L 153.489222 -2.470909 
L 152.83552 -2.470909 
L 152.181818 -2.470909 
L 151.528116 -2.470909 
L 150.874414 -2.470909 
L 150.220712 -2.470909 
L 149.56701 -2.470909 
L 148.913308 -2.470909 
L 148.259606 -2.470909 
L 147.605904 -2.470909 
L 146.952202 -2.470909 
L 146.2985 -2.470909 
L 145.644799 -2.470909 
L 144.991097 -2.470909 
L 144.337395 -2.470909 
L 143.683693 -2.470909 
L 143.029991 -2.470909 
L 142.376289 -2.470909 
L 141.722587 -2.470909 
L 141.068885 -2.470909 
L 140.415183 -2.470909 
L 139.761481 -2.470909 
L 139.107779 -2.470909 
L 138.454077 -2.470909 
L 137.800375 -2.470909 
L 137.146673 -2.470909 
L 136.492971 -2.470909 
L 135.839269 -2.470909 
L 135.185567 -2.470909 
L 134.531865 -2.470909 
L 133.878163 -2.470909 
L 133.224461 -2.470909 
L 132.570759 -2.470909 
L 131.917057 -2.470909 
L 131.263355 -2.470909 
L 130.609653 -2.470909 
L 129.955951 -2.470909 
L 129.302249 -2.470909 
L 128.648547 -2.470909 
L 127.994845 -2.470909 
L 127.341143 -2.470909 
L 126.687441 -2.470909 
L 126.033739 -2.470909 
L 125.380037 -2.470909 
L 124.726336 -2.470909 
L 124.072634 -2.470909 
L 123.418932 -2.470909 
L 122.76523 -2.470909 
L 122.111528 -2.470909 
L 121.457826 -2.470909 
L 120.804124 -2.470909 
L 120.150422 -2.470909 
L 119.49672 -2.470909 
L 118.843018 -2.470909 
L 118.189316 -2.470909 
L 117.535614 -2.470909 
L 116.881912 -2.470909 
L 116.22821 -2.470909 
L 115.574508 -2.470909 
L 114.920806 -2.470909 
L 114.267104 -2.470909 
L 113.613402 -2.470909 
L 112.9597 -2.470909 
L 112.305998 -2.470909 
L 111.652296 -2.470909 
L 110.998594 -2.470909 
L 110.344892 -2.470909 
L 109.69119 -2.470909 
L 109.037488 -2.470909 
L 108.383786 -2.470909 
L 107.730084 -2.470909 
L 107.076382 -2.470909 
L 106.42268 -2.470909 
L 105.768978 -2.470909 
L 105.115276 -2.470909 
L 104.461575 -2.470909 
L 103.807873 -2.470909 
L 103.154171 -2.470909 
L 102.500469 -2.470909 
L 101.846767 -2.470909 
L 101.193065 -2.470909 
L 100.539363 -2.470909 
L 99.885661 -2.470909 
L 99.231959 -2.470909 
L 98.578257 -2.470909 
L 97.924555 -2.470909 
L 97.270853 -2.470909 
L 96.617151 -2.470909 
L 95.963449 -2.470909 
L 95.309747 -2.470909 
L 94.656045 -2.470909 
L 94.002343 -2.470909 
L 93.348641 -2.470909 
L 92.694939 -2.470909 
L 92.041237 -2.470909 
L 91.387535 -2.470909 
L 90.733833 -2.470909 
L 90.080131 -2.470909 
L 89.426429 -2.470909 
L 88.772727 -2.470909 
L 88.119025 -2.470909 
L 87.465323 -2.470909 
L 86.811621 -2.470909 
L 86.157919 -2.470909 
L 85.504217 -2.470909 
L 84.850515 -2.470909 
L 84.196813 -2.470909 
L 83.543112 -2.470909 
L 82.88941 -2.470909 
L 82.235708 -2.470909 
L 81.582006 -2.470909 
L 80.928304 -2.470909 
L 80.274602 -2.470909 
L 79.6209 -2.470909 
L 78.967198 -2.470909 
L 78.313496 -2.470909 
L 77.659794 -2.470909 
L 77.006092 -2.470909 
L 76.35239 -2.470909 
L 75.698688 -2.470909 
L 75.044986 -2.470909 
L 74.391284 -2.470909 
L 73.737582 -2.470909 
L 73.08388 -2.470909 
L 72.430178 -2.470909 
L 71.776476 -2.470909 
L 71.122774 -2.470909 
L 70.469072 -2.470909 
L 69.81537 -2.470909 
L 69.161668 -2.470909 
L 68.507966 -2.470909 
L 67.854264 -2.470909 
L 67.200562 -2.470909 
L 66.54686 -2.470909 
L 65.893158 -2.470909 
L 65.239456 -2.470909 
L 64.585754 -2.470909 
L 63.932052 -2.470909 
L 63.278351 -2.470909 
L 62.624649 -2.470909 
L 61.970947 -2.470909 
L 61.317245 -2.470909 
L 60.663543 -2.470909 
L 60.009841 -2.470909 
L 59.356139 -2.470909 
L 58.702437 -2.470909 
L 58.048735 -2.470909 
L 57.395033 -2.470909 
L 56.741331 -2.470909 
L 56.087629 -2.470909 
L 55.433927 -2.470909 
L 54.780225 -2.470909 
L 54.126523 -2.470909 
L 53.472821 -2.470909 
L 52.819119 -2.470909 
L 52.165417 -2.470909 
L 51.511715 -2.470909 
L 50.858013 -2.470909 
L 50.204311 -2.470909 
z
" style="stroke: #116dc2; stroke-opacity: 0.2"/>
    </defs>
    <g clip-path="url(#p2c35d7a45f)">
     <use xlink:href="#m781537309b" x="0" y="54.36" style="fill: #116dc2; fill-opacity: 0.2; stroke: #116dc2; stroke-opacity: 0.2"/>
    </g>
   </g>
   <g id="PolyCollection_3">
    <defs>
     <path id="m4b71d1297b" d="M 25.363636 -2.470909 
L 25.363636 -4.987344 
L 26.017338 -5.648335 
L 26.67104 -6.34514 
L 27.324742 -7.095002 
L 27.978444 -7.994319 
L 28.632146 -9.14214 
L 29.285848 -10.515556 
L 29.93955 -11.966616 
L 30.593252 -13.396167 
L 31.246954 -14.898921 
L 31.900656 -16.678761 
L 32.554358 -18.845707 
L 33.20806 -21.334396 
L 33.861762 -23.985746 
L 34.515464 -26.661233 
L 35.169166 -29.264752 
L 35.822868 -31.706938 
L 36.47657 -33.96115 
L 37.130272 -36.146495 
L 37.783974 -38.427672 
L 38.437676 -40.829662 
L 39.091378 -43.218425 
L 39.74508 -45.405869 
L 40.398782 -47.240636 
L 41.052484 -48.672501 
L 41.706186 -49.747071 
L 42.359888 -50.552286 
L 43.01359 -51.188242 
L 43.667291 -51.678616 
L 44.320993 -51.889091 
L 44.974695 -51.670617 
L 45.628397 -51.052081 
L 46.282099 -50.159011 
L 46.935801 -49.026998 
L 47.589503 -47.622761 
L 48.243205 -45.948407 
L 48.896907 -44.025405 
L 49.550609 -41.874469 
L 50.204311 -39.540498 
L 50.858013 -37.032626 
L 51.511715 -34.284291 
L 52.165417 -31.283735 
L 52.819119 -28.181813 
L 53.472821 -25.193162 
L 54.126523 -22.446634 
L 54.780225 -19.96857 
L 55.433927 -17.751558 
L 56.087629 -15.793639 
L 56.741331 -14.10044 
L 57.395033 -12.679284 
L 58.048735 -11.502475 
L 58.702437 -10.465202 
L 59.356139 -9.436315 
L 60.009841 -8.377073 
L 60.663543 -7.364137 
L 61.317245 -6.479746 
L 61.970947 -5.722713 
L 62.624649 -5.046552 
L 62.624649 -2.470909 
L 62.624649 -2.470909 
L 61.970947 -2.470909 
L 61.317245 -2.470909 
L 60.663543 -2.470909 
L 60.009841 -2.470909 
L 59.356139 -2.470909 
L 58.702437 -2.470909 
L 58.048735 -2.470909 
L 57.395033 -2.470909 
L 56.741331 -2.470909 
L 56.087629 -2.470909 
L 55.433927 -2.470909 
L 54.780225 -2.470909 
L 54.126523 -2.470909 
L 53.472821 -2.470909 
L 52.819119 -2.470909 
L 52.165417 -2.470909 
L 51.511715 -2.470909 
L 50.858013 -2.470909 
L 50.204311 -2.470909 
L 49.550609 -2.470909 
L 48.896907 -2.470909 
L 48.243205 -2.470909 
L 47.589503 -2.470909 
L 46.935801 -2.470909 
L 46.282099 -2.470909 
L 45.628397 -2.470909 
L 44.974695 -2.470909 
L 44.320993 -2.470909 
L 43.667291 -2.470909 
L 43.01359 -2.470909 
L 42.359888 -2.470909 
L 41.706186 -2.470909 
L 41.052484 -2.470909 
L 40.398782 -2.470909 
L 39.74508 -2.470909 
L 39.091378 -2.470909 
L 38.437676 -2.470909 
L 37.783974 -2.470909 
L 37.130272 -2.470909 
L 36.47657 -2.470909 
L 35.822868 -2.470909 
L 35.169166 -2.470909 
L 34.515464 -2.470909 
L 33.861762 -2.470909 
L 33.20806 -2.470909 
L 32.554358 -2.470909 
L 31.900656 -2.470909 
L 31.246954 -2.470909 
L 30.593252 -2.470909 
L 29.93955 -2.470909 
L 29.285848 -2.470909 
L 28.632146 -2.470909 
L 27.978444 -2.470909 
L 27.324742 -2.470909 
L 26.67104 -2.470909 
L 26.017338 -2.470909 
L 25.363636 -2.470909 
z
" style="stroke: #8a8a8a; stroke-opacity: 0.2"/>
    </defs>
    <g clip-path="url(#p2c35d7a45f)">
     <use xlink:href="#m4b71d1297b" x="0" y="54.36" style="fill: #8a8a8a; fill-opacity: 0.2; stroke: #8a8a8a; stroke-opacity: 0.2"/>
    </g>
   </g>
   <g id="line2d_1">
    <path d="M 295.996251 50.217797 
L 305.148079 49.334172 
L 315.60731 48.065954 
L 320.836926 47.251317 
L 324.759138 46.395273 
L 328.027648 45.45373 
L 331.949859 44.080562 
L 341.755389 40.499573 
L 354.829428 36.058068 
L 360.712746 33.750079 
L 365.28866 31.721401 
L 371.825679 28.531877 
L 377.708997 25.719885 
L 381.631209 24.062006 
L 385.553421 22.642931 
L 389.475633 21.466976 
L 394.051546 20.337669 
L 401.89597 18.678183 
L 405.818182 18.011711 
L 409.086692 17.675374 
L 411.7015 17.603896 
L 414.316307 17.717369 
L 417.584817 18.083485 
L 422.814433 18.955566 
L 429.351453 20.006084 
L 436.542174 21.135727 
L 441.118088 22.091047 
L 445.694002 23.285583 
L 450.269916 24.736446 
L 454.192127 26.215243 
L 457.460637 27.656573 
L 461.382849 29.647351 
L 470.534677 34.482875 
L 474.456888 36.193752 
L 479.686504 38.185703 
L 494.067948 43.367969 
L 497.990159 44.476275 
L 501.912371 45.364192 
L 509.103093 46.699858 
L 516.947516 48.248485 
L 523.484536 49.499495 
L 528.06045 50.145992 
L 532.636364 50.568098 
L 532.636364 50.568098 
" clip-path="url(#p2c35d7a45f)" style="fill: none; stroke: #cf1313; stroke-width: 1.5; stroke-linecap: square"/>
   </g>
   <g id="line2d_2">
    <path d="M 50.204311 50.536069 
L 58.048735 50.016764 
L 63.278351 49.464817 
L 69.81537 48.538305 
L 82.88941 46.44196 
L 88.119025 45.394037 
L 92.694939 44.248946 
L 97.270853 42.854601 
L 103.807873 40.570362 
L 110.344892 38.085848 
L 115.574508 35.862515 
L 125.380037 31.613131 
L 140.415183 25.374503 
L 147.605904 22.178341 
L 150.874414 21.01193 
L 154.142924 20.114155 
L 158.718838 19.134132 
L 164.602156 18.091624 
L 167.870665 17.744885 
L 171.139175 17.65527 
L 175.061387 17.802831 
L 182.252109 18.115043 
L 188.789128 18.326876 
L 191.403936 18.64597 
L 194.018744 19.219344 
L 196.633552 20.060001 
L 199.902062 21.406351 
L 210.361293 26.035224 
L 214.283505 27.435191 
L 223.435333 30.548448 
L 228.011246 32.441472 
L 236.509372 36.034358 
L 254.159325 42.993062 
L 258.735239 44.772517 
L 262.657451 46.032886 
L 265.925961 46.864002 
L 269.848172 47.632445 
L 275.077788 48.408893 
L 286.190722 49.775063 
L 292.074039 50.318143 
L 297.957357 50.610279 
L 299.264761 50.650605 
L 299.264761 50.650605 
" clip-path="url(#p2c35d7a45f)" style="fill: none; stroke: #116dc2; stroke-width: 1.5; stroke-linecap: square"/>
   </g>
   <g id="line2d_3">
    <path d="M 25.363636 49.372656 
L 26.017338 48.711665 
L 26.67104 48.01486 
L 27.324742 47.264998 
L 27.978444 46.365681 
L 28.632146 45.21786 
L 29.285848 43.844444 
L 29.93955 42.393384 
L 30.593252 40.963833 
L 31.246954 39.461079 
L 31.900656 37.681239 
L 32.554358 35.514293 
L 33.20806 33.025604 
L 33.861762 30.374254 
L 34.515464 27.698767 
L 35.169166 25.095248 
L 35.822868 22.653062 
L 36.47657 20.39885 
L 37.130272 18.213505 
L 37.783974 15.932328 
L 38.437676 13.530338 
L 39.091378 11.141575 
L 39.74508 8.954131 
L 40.398782 7.119364 
L 41.052484 5.687499 
L 41.706186 4.612929 
L 42.359888 3.807714 
L 43.01359 3.171758 
L 43.667291 2.681384 
L 44.320993 2.470909 
L 44.974695 2.689383 
L 45.628397 3.307919 
L 46.282099 4.200989 
L 46.935801 5.333002 
L 47.589503 6.737239 
L 48.243205 8.411593 
L 48.896907 10.334595 
L 49.550609 12.485531 
L 50.204311 14.819502 
L 50.858013 17.327374 
L 51.511715 20.075709 
L 52.165417 23.076265 
L 52.819119 26.178187 
L 53.472821 29.166838 
L 54.126523 31.913366 
L 54.780225 34.39143 
L 55.433927 36.608442 
L 56.087629 38.566361 
L 56.741331 40.25956 
L 57.395033 41.680716 
L 58.048735 42.857525 
L 58.702437 43.894798 
L 59.356139 44.923685 
L 60.009841 45.982927 
L 60.663543 46.995863 
L 61.317245 47.880254 
L 61.970947 48.637287 
L 62.624649 49.313448 
" clip-path="url(#p2c35d7a45f)" style="fill: none; stroke: #8a8a8a; stroke-width: 1.5; stroke-linecap: square"/>
   </g>
  </g>
 </g>
 <defs>
  <clipPath id="p2c35d7a45f">
   <rect x="0" y="-0" width="558" height="54.36"/>
  </clipPath>
 </defs>
</svg>
