<?xml version="1.0" encoding="utf-8" standalone="no"?>
<!DOCTYPE svg PUBLIC "-//W3C//DTD SVG 1.1//EN"
  "http://www.w3.org/Graphics/SVG/1.1/DTD/svg11.dtd">
<svg xmlns:xlink="http://www.w3.org/1999/xlink" width="558pt" height="54.36pt" viewBox="0 0 558 54.36" xmlns="http://www.w3.org/2000/svg" version="1.1">
 <metadata>
  <rdf:RDF xmlns:dc="http://purl.org/dc/elements/1.1/" xmlns:cc="http://creativecommons.org/ns#" xmlns:rdf="http://www.w3.org/1999/02/22-rdf-syntax-ns#">
   <cc:Work>
    <dc:type rdf:resource="http://purl.org/dc/dcmitype/StillImage"/>
    <dc:date>2024-09-15T09:31:03.529456</dc:date>
    <dc:format>image/svg+xml</dc:format>
    <dc:creator>
     <cc:Agent>
      <dc:title>Matplotlib v3.5.2, https://matplotlib.org/</dc:title>
     </cc:Agent>
    </dc:creator>
   </cc:Work>
  </rdf:RDF>
 </metadata>
 <defs>
  <style type="text/css">*{stroke-linejoin: round; stroke-linecap: butt}</style>
 </defs>
 <g id="figure_1">
  <g id="patch_1">
   <path d="M 0 54.36 
L 558 54.36 
L 558 0 
L 0 0 
L 0 54.36 
z
" style="fill: none; opacity: 0"/>
  </g>
  <g id="axes_1">
   <g id="PolyCollection_1">
    <defs>
     <path id="m3e03a8c224" d="M 347.494272 -2.470909 
L 347.494272 -3.777017 
L 348.324505 -3.828929 
L 349.154739 -3.883944 
L 349.984972 -3.942998 
L 350.815206 -4.006984 
L 351.64544 -4.076689 
L 352.475673 -4.152746 
L 353.305907 -4.235606 
L 354.13614 -4.325546 
L 354.966374 -4.422697 
L 355.796608 -4.527093 
L 356.626841 -4.638733 
L 357.457075 -4.757637 
L 358.287308 -4.883902 
L 359.117542 -5.017732 
L 359.947776 -5.159458 
L 360.778009 -5.309528 
L 361.608243 -5.468477 
L 362.438476 -5.636888 
L 363.26871 -5.815346 
L 364.098944 -6.004382 
L 364.929177 -6.20444 
L 365.759411 -6.415842 
L 366.589644 -6.638784 
L 367.419878 -6.873337 
L 368.250112 -7.119474 
L 369.080345 -7.377109 
L 369.910579 -7.646137 
L 370.740812 -7.926482 
L 371.571046 -8.218123 
L 372.40128 -8.52111 
L 373.231513 -8.835549 
L 374.061747 -9.161554 
L 374.89198 -9.499177 
L 375.722214 -9.848318 
L 376.552448 -10.208629 
L 377.382681 -10.579433 
L 378.212915 -10.959682 
L 379.043148 -11.34796 
L 379.873382 -11.742552 
L 380.703616 -12.14157 
L 381.533849 -12.543133 
L 382.364083 -12.945564 
L 383.194316 -13.347587 
L 384.02455 -13.748485 
L 384.854784 -14.14819 
L 385.685017 -14.547284 
L 386.515251 -14.946908 
L 387.345484 -15.348596 
L 388.175718 -15.754039 
L 389.005951 -16.164848 
L 389.836185 -16.582322 
L 390.666419 -17.007295 
L 391.496652 -17.44006 
L 392.326886 -17.88041 
L 393.157119 -18.327776 
L 393.987353 -18.781459 
L 394.817587 -19.240895 
L 395.64782 -19.705938 
L 396.478054 -20.17709 
L 397.308287 -20.655638 
L 398.138521 -21.14368 
L 398.968755 -21.644005 
L 399.798988 -22.159839 
L 400.629222 -22.694489 
L 401.459455 -23.250905 
L 402.289689 -23.831239 
L 403.119923 -24.436431 
L 403.950156 -25.065903 
L 404.78039 -25.717382 
L 405.610623 -26.386882 
L 406.440857 -27.068867 
L 407.271091 -27.756557 
L 408.101324 -28.442361 
L 408.931558 -29.118387 
L 409.761791 -29.776974 
L 410.592025 -30.411206 
L 411.422259 -31.015347 
L 412.252492 -31.585175 
L 413.082726 -32.118187 
L 413.912959 -32.613662 
L 414.743193 -33.072592 
L 415.573427 -33.497487 
L 416.40366 -33.892083 
L 417.233894 -34.260975 
L 418.064127 -34.609216 
L 418.894361 -34.941901 
L 419.724595 -35.263792 
L 420.554828 -35.578987 
L 421.385062 -35.890673 
L 422.215295 -36.200983 
L 423.045529 -36.510943 
L 423.875763 -36.820535 
L 424.705996 -37.128842 
L 425.53623 -37.434262 
L 426.366463 -37.734776 
L 427.196697 -38.028222 
L 428.026931 -38.312545 
L 428.857164 -38.586007 
L 429.687398 -38.847316 
L 430.517631 -39.095662 
L 431.347865 -39.330665 
L 432.178098 -39.552226 
L 433.008332 -39.760308 
L 433.838566 -39.954684 
L 434.668799 -40.134676 
L 435.499033 -40.298937 
L 436.329266 -40.445314 
L 437.1595 -40.570819 
L 437.989734 -40.671734 
L 438.819967 -40.743851 
L 439.650201 -40.782833 
L 440.480434 -40.78465 
L 441.310668 -40.746067 
L 442.140902 -40.665091 
L 442.971135 -40.541342 
L 443.801369 -40.376277 
L 444.631602 -40.173224 
L 445.461836 -39.937227 
L 446.29207 -39.674679 
L 447.122303 -39.392811 
L 447.952537 -39.099076 
L 448.78277 -38.800504 
L 449.613004 -38.503133 
L 450.443238 -38.211545 
L 451.273471 -37.928606 
L 452.103705 -37.655396 
L 452.933938 -37.39134 
L 453.764172 -37.134507 
L 454.594406 -36.88199 
L 455.424639 -36.630333 
L 456.254873 -36.375905 
L 457.085106 -36.115188 
L 457.91534 -35.844939 
L 458.745574 -35.56223 
L 459.575807 -35.2644 
L 460.406041 -34.948952 
L 461.236274 -34.613463 
L 462.066508 -34.255557 
L 462.896742 -33.87297 
L 463.726975 -33.463724 
L 464.557209 -33.026387 
L 465.387442 -32.560372 
L 466.217676 -32.066219 
L 467.04791 -31.545792 
L 467.878143 -31.002332 
L 468.708377 -30.44035 
L 469.53861 -29.865334 
L 470.368844 -29.28333 
L 471.199078 -28.700426 
L 472.029311 -28.122227 
L 472.859545 -27.553381 
L 473.689778 -26.997224 
L 474.520012 -26.455584 
L 475.350245 -25.928746 
L 476.180479 -25.415576 
L 477.010713 -24.913771 
L 477.840946 -24.420183 
L 478.67118 -23.931191 
L 479.501413 -23.443063 
L 480.331647 -22.952297 
L 481.161881 -22.455905 
L 481.992114 -21.951657 
L 482.822348 -21.438245 
L 483.652581 -20.915403 
L 484.482815 -20.383943 
L 485.313049 -19.845733 
L 486.143282 -19.303591 
L 486.973516 -18.761106 
L 487.803749 -18.222399 
L 488.633983 -17.691829 
L 489.464217 -17.173681 
L 490.29445 -16.671861 
L 491.124684 -16.189631 
L 491.954917 -15.729415 
L 492.785151 -15.292683 
L 493.615385 -14.879933 
L 494.445618 -14.49075 
L 495.275852 -14.123929 
L 496.106085 -13.777649 
L 496.936319 -13.449647 
L 497.766553 -13.137396 
L 498.596786 -12.838264 
L 499.42702 -12.549634 
L 500.257253 -12.269009 
L 501.087487 -11.99409 
L 501.917721 -11.722831 
L 502.747954 -11.453497 
L 503.578188 -11.184701 
L 504.408421 -10.915435 
L 505.238655 -10.645093 
L 506.068889 -10.373462 
L 506.899122 -10.10071 
L 507.729356 -9.827334 
L 508.559589 -9.554097 
L 509.389823 -9.281956 
L 510.220057 -9.011976 
L 511.05029 -8.745249 
L 511.880524 -8.482829 
L 512.710757 -8.225673 
L 513.540991 -7.974607 
L 514.371225 -7.730302 
L 515.201458 -7.493267 
L 516.031692 -7.263854 
L 516.861925 -7.042267 
L 517.692159 -6.828573 
L 518.522393 -6.622728 
L 519.352626 -6.424588 
L 520.18286 -6.233935 
L 521.013093 -6.050499 
L 521.843327 -5.873983 
L 522.67356 -5.704081 
L 523.503794 -5.540501 
L 524.334028 -5.38298 
L 525.164261 -5.231285 
L 525.994495 -5.085217 
L 526.824728 -4.944598 
L 527.654962 -4.80926 
L 528.485196 -4.679025 
L 529.315429 -4.553692 
L 530.145663 -4.433021 
L 530.975896 -4.316735 
L 531.80613 -4.204521 
L 532.636364 -4.096049 
L 532.636364 -2.470909 
L 532.636364 -2.470909 
L 531.80613 -2.470909 
L 530.975896 -2.470909 
L 530.145663 -2.470909 
L 529.315429 -2.470909 
L 528.485196 -2.470909 
L 527.654962 -2.470909 
L 526.824728 -2.470909 
L 525.994495 -2.470909 
L 525.164261 -2.470909 
L 524.334028 -2.470909 
L 523.503794 -2.470909 
L 522.67356 -2.470909 
L 521.843327 -2.470909 
L 521.013093 -2.470909 
L 520.18286 -2.470909 
L 519.352626 -2.470909 
L 518.522393 -2.470909 
L 517.692159 -2.470909 
L 516.861925 -2.470909 
L 516.031692 -2.470909 
L 515.201458 -2.470909 
L 514.371225 -2.470909 
L 513.540991 -2.470909 
L 512.710757 -2.470909 
L 511.880524 -2.470909 
L 511.05029 -2.470909 
L 510.220057 -2.470909 
L 509.389823 -2.470909 
L 508.559589 -2.470909 
L 507.729356 -2.470909 
L 506.899122 -2.470909 
L 506.068889 -2.470909 
L 505.238655 -2.470909 
L 504.408421 -2.470909 
L 503.578188 -2.470909 
L 502.747954 -2.470909 
L 501.917721 -2.470909 
L 501.087487 -2.470909 
L 500.257253 -2.470909 
L 499.42702 -2.470909 
L 498.596786 -2.470909 
L 497.766553 -2.470909 
L 496.936319 -2.470909 
L 496.106085 -2.470909 
L 495.275852 -2.470909 
L 494.445618 -2.470909 
L 493.615385 -2.470909 
L 492.785151 -2.470909 
L 491.954917 -2.470909 
L 491.124684 -2.470909 
L 490.29445 -2.470909 
L 489.464217 -2.470909 
L 488.633983 -2.470909 
L 487.803749 -2.470909 
L 486.973516 -2.470909 
L 486.143282 -2.470909 
L 485.313049 -2.470909 
L 484.482815 -2.470909 
L 483.652581 -2.470909 
L 482.822348 -2.470909 
L 481.992114 -2.470909 
L 481.161881 -2.470909 
L 480.331647 -2.470909 
L 479.501413 -2.470909 
L 478.67118 -2.470909 
L 477.840946 -2.470909 
L 477.010713 -2.470909 
L 476.180479 -2.470909 
L 475.350245 -2.470909 
L 474.520012 -2.470909 
L 473.689778 -2.470909 
L 472.859545 -2.470909 
L 472.029311 -2.470909 
L 471.199078 -2.470909 
L 470.368844 -2.470909 
L 469.53861 -2.470909 
L 468.708377 -2.470909 
L 467.878143 -2.470909 
L 467.04791 -2.470909 
L 466.217676 -2.470909 
L 465.387442 -2.470909 
L 464.557209 -2.470909 
L 463.726975 -2.470909 
L 462.896742 -2.470909 
L 462.066508 -2.470909 
L 461.236274 -2.470909 
L 460.406041 -2.470909 
L 459.575807 -2.470909 
L 458.745574 -2.470909 
L 457.91534 -2.470909 
L 457.085106 -2.470909 
L 456.254873 -2.470909 
L 455.424639 -2.470909 
L 454.594406 -2.470909 
L 453.764172 -2.470909 
L 452.933938 -2.470909 
L 452.103705 -2.470909 
L 451.273471 -2.470909 
L 450.443238 -2.470909 
L 449.613004 -2.470909 
L 448.78277 -2.470909 
L 447.952537 -2.470909 
L 447.122303 -2.470909 
L 446.29207 -2.470909 
L 445.461836 -2.470909 
L 444.631602 -2.470909 
L 443.801369 -2.470909 
L 442.971135 -2.470909 
L 442.140902 -2.470909 
L 441.310668 -2.470909 
L 440.480434 -2.470909 
L 439.650201 -2.470909 
L 438.819967 -2.470909 
L 437.989734 -2.470909 
L 437.1595 -2.470909 
L 436.329266 -2.470909 
L 435.499033 -2.470909 
L 434.668799 -2.470909 
L 433.838566 -2.470909 
L 433.008332 -2.470909 
L 432.178098 -2.470909 
L 431.347865 -2.470909 
L 430.517631 -2.470909 
L 429.687398 -2.470909 
L 428.857164 -2.470909 
L 428.026931 -2.470909 
L 427.196697 -2.470909 
L 426.366463 -2.470909 
L 425.53623 -2.470909 
L 424.705996 -2.470909 
L 423.875763 -2.470909 
L 423.045529 -2.470909 
L 422.215295 -2.470909 
L 421.385062 -2.470909 
L 420.554828 -2.470909 
L 419.724595 -2.470909 
L 418.894361 -2.470909 
L 418.064127 -2.470909 
L 417.233894 -2.470909 
L 416.40366 -2.470909 
L 415.573427 -2.470909 
L 414.743193 -2.470909 
L 413.912959 -2.470909 
L 413.082726 -2.470909 
L 412.252492 -2.470909 
L 411.422259 -2.470909 
L 410.592025 -2.470909 
L 409.761791 -2.470909 
L 408.931558 -2.470909 
L 408.101324 -2.470909 
L 407.271091 -2.470909 
L 406.440857 -2.470909 
L 405.610623 -2.470909 
L 404.78039 -2.470909 
L 403.950156 -2.470909 
L 403.119923 -2.470909 
L 402.289689 -2.470909 
L 401.459455 -2.470909 
L 400.629222 -2.470909 
L 399.798988 -2.470909 
L 398.968755 -2.470909 
L 398.138521 -2.470909 
L 397.308287 -2.470909 
L 396.478054 -2.470909 
L 395.64782 -2.470909 
L 394.817587 -2.470909 
L 393.987353 -2.470909 
L 393.157119 -2.470909 
L 392.326886 -2.470909 
L 391.496652 -2.470909 
L 390.666419 -2.470909 
L 389.836185 -2.470909 
L 389.005951 -2.470909 
L 388.175718 -2.470909 
L 387.345484 -2.470909 
L 386.515251 -2.470909 
L 385.685017 -2.470909 
L 384.854784 -2.470909 
L 384.02455 -2.470909 
L 383.194316 -2.470909 
L 382.364083 -2.470909 
L 381.533849 -2.470909 
L 380.703616 -2.470909 
L 379.873382 -2.470909 
L 379.043148 -2.470909 
L 378.212915 -2.470909 
L 377.382681 -2.470909 
L 376.552448 -2.470909 
L 375.722214 -2.470909 
L 374.89198 -2.470909 
L 374.061747 -2.470909 
L 373.231513 -2.470909 
L 372.40128 -2.470909 
L 371.571046 -2.470909 
L 370.740812 -2.470909 
L 369.910579 -2.470909 
L 369.080345 -2.470909 
L 368.250112 -2.470909 
L 367.419878 -2.470909 
L 366.589644 -2.470909 
L 365.759411 -2.470909 
L 364.929177 -2.470909 
L 364.098944 -2.470909 
L 363.26871 -2.470909 
L 362.438476 -2.470909 
L 361.608243 -2.470909 
L 360.778009 -2.470909 
L 359.947776 -2.470909 
L 359.117542 -2.470909 
L 358.287308 -2.470909 
L 357.457075 -2.470909 
L 356.626841 -2.470909 
L 355.796608 -2.470909 
L 354.966374 -2.470909 
L 354.13614 -2.470909 
L 353.305907 -2.470909 
L 352.475673 -2.470909 
L 351.64544 -2.470909 
L 350.815206 -2.470909 
L 349.984972 -2.470909 
L 349.154739 -2.470909 
L 348.324505 -2.470909 
L 347.494272 -2.470909 
z
" style="stroke: #cf1313; stroke-opacity: 0.2"/>
    </defs>
    <g clip-path="url(#pc73db2e216)">
     <use xlink:href="#m3e03a8c224" x="0" y="54.36" style="fill: #cf1313; fill-opacity: 0.2; stroke: #cf1313; stroke-opacity: 0.2"/>
    </g>
   </g>
   <g id="PolyCollection_2">
    <defs>
     <path id="mc134f75bf9" d="M 180.617319 -2.470909 
L 180.617319 -3.837231 
L 181.447552 -3.888195 
L 182.277786 -3.942185 
L 183.10802 -3.999325 
L 183.938253 -4.059658 
L 184.768487 -4.123143 
L 185.59872 -4.189644 
L 186.428954 -4.258936 
L 187.259188 -4.330705 
L 188.089421 -4.404556 
L 188.919655 -4.480027 
L 189.749888 -4.556607 
L 190.580122 -4.633752 
L 191.410356 -4.710912 
L 192.240589 -4.787554 
L 193.070823 -4.863188 
L 193.901056 -4.937397 
L 194.73129 -5.009857 
L 195.561524 -5.080364 
L 196.391757 -5.148852 
L 197.221991 -5.215408 
L 198.052224 -5.280283 
L 198.882458 -5.343893 
L 199.712692 -5.406814 
L 200.542925 -5.469775 
L 201.373159 -5.533631 
L 202.203392 -5.599346 
L 203.033626 -5.667955 
L 203.86386 -5.740529 
L 204.694093 -5.818141 
L 205.524327 -5.901819 
L 206.35456 -5.992513 
L 207.184794 -6.091057 
L 208.015028 -6.198141 
L 208.845261 -6.314289 
L 209.675495 -6.439844 
L 210.505728 -6.574963 
L 211.335962 -6.719622 
L 212.166196 -6.873635 
L 212.996429 -7.03667 
L 213.826663 -7.208282 
L 214.656896 -7.387951 
L 215.48713 -7.575114 
L 216.317363 -7.769207 
L 217.147597 -7.969701 
L 217.977831 -8.176134 
L 218.808064 -8.388138 
L 219.638298 -8.605455 
L 220.468531 -8.82795 
L 221.298765 -9.055606 
L 222.128999 -9.288522 
L 222.959232 -9.526888 
L 223.789466 -9.770965 
L 224.619699 -10.021051 
L 225.449933 -10.277447 
L 226.280167 -10.540425 
L 227.1104 -10.810188 
L 227.940634 -11.086845 
L 228.770867 -11.370384 
L 229.601101 -11.660654 
L 230.431335 -11.957361 
L 231.261568 -12.260065 
L 232.091802 -12.568196 
L 232.922035 -12.881068 
L 233.752269 -13.197913 
L 234.582503 -13.517907 
L 235.412736 -13.840207 
L 236.24297 -14.163991 
L 237.073203 -14.488484 
L 237.903437 -14.812995 
L 238.733671 -15.136932 
L 239.563904 -15.459823 
L 240.394138 -15.781317 
L 241.224371 -16.101186 
L 242.054605 -16.419312 
L 242.884839 -16.735671 
L 243.715072 -17.050313 
L 244.545306 -17.363338 
L 245.375539 -17.674872 
L 246.205773 -17.985047 
L 247.036007 -18.293987 
L 247.86624 -18.601792 
L 248.696474 -18.908536 
L 249.526707 -19.214271 
L 250.356941 -19.519032 
L 251.187175 -19.822851 
L 252.017408 -20.125777 
L 252.847642 -20.427891 
L 253.677875 -20.729327 
L 254.508109 -21.030284 
L 255.338343 -21.331041 
L 256.168576 -21.63196 
L 256.99881 -21.933485 
L 257.829043 -22.236136 
L 258.659277 -22.540491 
L 259.48951 -22.847162 
L 260.319744 -23.156773 
L 261.149978 -23.469922 
L 261.980211 -23.787152 
L 262.810445 -24.108915 
L 263.640678 -24.435538 
L 264.470912 -24.767198 
L 265.301146 -25.103894 
L 266.131379 -25.445434 
L 266.961613 -25.791423 
L 267.791846 -26.141262 
L 268.62208 -26.494156 
L 269.452314 -26.849132 
L 270.282547 -27.205059 
L 271.112781 -27.560678 
L 271.943014 -27.914645 
L 272.773248 -28.265562 
L 273.603482 -28.612027 
L 274.433715 -28.952675 
L 275.263949 -29.286224 
L 276.094182 -29.611511 
L 276.924416 -29.927536 
L 277.75465 -30.233488 
L 278.584883 -30.528777 
L 279.415117 -30.813045 
L 280.24535 -31.086186 
L 281.075584 -31.348341 
L 281.905818 -31.599895 
L 282.736051 -31.841463 
L 283.566285 -32.073869 
L 284.396518 -32.298113 
L 285.226752 -32.515337 
L 286.056986 -32.726784 
L 286.887219 -32.933751 
L 287.717453 -33.137543 
L 288.547686 -33.339422 
L 289.37792 -33.540562 
L 290.208154 -33.742002 
L 291.038387 -33.944612 
L 291.868621 -34.149053 
L 292.698854 -34.355759 
L 293.529088 -34.564915 
L 294.359322 -34.776456 
L 295.189555 -34.990064 
L 296.019789 -35.205184 
L 296.850022 -35.421039 
L 297.680256 -35.636658 
L 298.51049 -35.850904 
L 299.340723 -36.062506 
L 300.170957 -36.270093 
L 301.00119 -36.47223 
L 301.831424 -36.667443 
L 302.661657 -36.854258 
L 303.491891 -37.031219 
L 304.322125 -37.196923 
L 305.152358 -37.350036 
L 305.982592 -37.489324 
L 306.812825 -37.613669 
L 307.643059 -37.722099 
L 308.473293 -37.813808 
L 309.303526 -37.888183 
L 310.13376 -37.944821 
L 310.963993 -37.983557 
L 311.794227 -38.004471 
L 312.624461 -38.007906 
L 313.454694 -37.994464 
L 314.284928 -37.965 
L 315.115161 -37.920604 
L 315.945395 -37.862574 
L 316.775629 -37.792372 
L 317.605862 -37.711583 
L 318.436096 -37.621853 
L 319.266329 -37.524838 
L 320.096563 -37.422139 
L 320.926797 -37.31525 
L 321.75703 -37.205501 
L 322.587264 -37.094021 
L 323.417497 -36.981706 
L 324.247731 -36.869192 
L 325.077965 -36.756857 
L 325.908198 -36.644821 
L 326.738432 -36.532966 
L 327.568665 -36.420959 
L 328.398899 -36.308291 
L 329.229133 -36.194315 
L 330.059366 -36.078287 
L 330.8896 -35.959405 
L 331.719833 -35.836854 
L 332.550067 -35.709832 
L 333.380301 -35.57758 
L 334.210534 -35.439399 
L 335.040768 -35.294665 
L 335.871001 -35.142826 
L 336.701235 -34.983405 
L 337.531469 -34.815987 
L 338.361702 -34.640209 
L 339.191936 -34.455751 
L 340.022169 -34.262316 
L 340.852403 -34.059629 
L 341.682637 -33.847424 
L 342.51287 -33.625453 
L 343.343104 -33.393484 
L 344.173337 -33.151319 
L 345.003571 -32.89881 
L 345.833804 -32.635882 
L 346.664038 -32.362555 
L 347.494272 -32.078969 
L 348.324505 -31.785406 
L 349.154739 -31.482307 
L 349.984972 -31.170283 
L 350.815206 -30.85011 
L 351.64544 -30.522727 
L 352.475673 -30.18921 
L 353.305907 -29.850745 
L 354.13614 -29.508581 
L 354.966374 -29.163989 
L 355.796608 -28.818201 
L 356.626841 -28.47236 
L 357.457075 -28.127463 
L 358.287308 -27.784316 
L 359.117542 -27.44349 
L 359.947776 -27.105304 
L 360.778009 -26.769803 
L 361.608243 -26.436773 
L 362.438476 -26.105754 
L 363.26871 -25.776084 
L 364.098944 -25.446947 
L 364.929177 -25.117433 
L 365.759411 -24.786607 
L 366.589644 -24.453579 
L 367.419878 -24.117566 
L 368.250112 -23.777953 
L 369.080345 -23.434341 
L 369.910579 -23.086573 
L 370.740812 -22.734755 
L 371.571046 -22.379253 
L 372.40128 -22.02067 
L 373.231513 -21.65982 
L 374.061747 -21.297675 
L 374.89198 -20.935319 
L 375.722214 -20.573891 
L 376.552448 -20.214522 
L 377.382681 -19.85829 
L 378.212915 -19.506174 
L 379.043148 -19.159015 
L 379.873382 -18.817495 
L 380.703616 -18.482125 
L 381.533849 -18.153245 
L 382.364083 -17.831028 
L 383.194316 -17.515504 
L 384.02455 -17.206575 
L 384.854784 -16.904047 
L 385.685017 -16.607651 
L 386.515251 -16.317072 
L 387.345484 -16.031969 
L 388.175718 -15.751996 
L 389.005951 -15.476814 
L 389.836185 -15.206101 
L 390.666419 -14.939562 
L 391.496652 -14.676928 
L 392.326886 -14.417956 
L 393.157119 -14.162435 
L 393.987353 -13.910179 
L 394.817587 -13.661027 
L 395.64782 -13.414847 
L 396.478054 -13.171532 
L 397.308287 -12.931003 
L 398.138521 -12.693209 
L 398.968755 -12.45813 
L 399.798988 -12.225771 
L 400.629222 -11.996168 
L 401.459455 -11.769377 
L 402.289689 -11.545471 
L 403.119923 -11.324535 
L 403.950156 -11.106652 
L 404.78039 -10.891892 
L 405.610623 -10.680306 
L 406.440857 -10.471912 
L 407.271091 -10.266686 
L 408.101324 -10.064555 
L 408.931558 -9.865394 
L 409.761791 -9.669028 
L 410.592025 -9.475231 
L 411.422259 -9.283737 
L 412.252492 -9.094249 
L 413.082726 -8.906454 
L 413.912959 -8.720041 
L 414.743193 -8.534718 
L 415.573427 -8.350228 
L 416.40366 -8.166369 
L 417.233894 -7.983011 
L 418.064127 -7.800108 
L 418.894361 -7.617708 
L 419.724595 -7.435958 
L 420.554828 -7.255107 
L 421.385062 -7.075505 
L 422.215295 -6.897589 
L 423.045529 -6.721874 
L 423.875763 -6.548936 
L 424.705996 -6.379392 
L 425.53623 -6.213876 
L 426.366463 -6.053017 
L 427.196697 -5.897413 
L 428.026931 -5.747609 
L 428.857164 -5.604078 
L 429.687398 -5.4672 
L 430.517631 -5.337253 
L 431.347865 -5.214405 
L 432.178098 -5.09871 
L 433.008332 -4.990115 
L 433.838566 -4.888466 
L 434.668799 -4.793521 
L 435.499033 -4.704969 
L 436.329266 -4.622444 
L 437.1595 -4.545546 
L 437.989734 -4.473861 
L 438.819967 -4.40697 
L 439.650201 -4.344467 
L 440.480434 -4.285965 
L 441.310668 -4.231099 
L 442.140902 -4.179528 
L 442.971135 -4.130932 
L 443.801369 -4.085004 
L 444.631602 -4.041444 
L 445.461836 -3.999954 
L 446.29207 -3.960226 
L 447.122303 -3.921945 
L 447.952537 -3.88478 
L 448.78277 -3.848393 
L 448.78277 -2.470909 
L 448.78277 -2.470909 
L 447.952537 -2.470909 
L 447.122303 -2.470909 
L 446.29207 -2.470909 
L 445.461836 -2.470909 
L 444.631602 -2.470909 
L 443.801369 -2.470909 
L 442.971135 -2.470909 
L 442.140902 -2.470909 
L 441.310668 -2.470909 
L 440.480434 -2.470909 
L 439.650201 -2.470909 
L 438.819967 -2.470909 
L 437.989734 -2.470909 
L 437.1595 -2.470909 
L 436.329266 -2.470909 
L 435.499033 -2.470909 
L 434.668799 -2.470909 
L 433.838566 -2.470909 
L 433.008332 -2.470909 
L 432.178098 -2.470909 
L 431.347865 -2.470909 
L 430.517631 -2.470909 
L 429.687398 -2.470909 
L 428.857164 -2.470909 
L 428.026931 -2.470909 
L 427.196697 -2.470909 
L 426.366463 -2.470909 
L 425.53623 -2.470909 
L 424.705996 -2.470909 
L 423.875763 -2.470909 
L 423.045529 -2.470909 
L 422.215295 -2.470909 
L 421.385062 -2.470909 
L 420.554828 -2.470909 
L 419.724595 -2.470909 
L 418.894361 -2.470909 
L 418.064127 -2.470909 
L 417.233894 -2.470909 
L 416.40366 -2.470909 
L 415.573427 -2.470909 
L 414.743193 -2.470909 
L 413.912959 -2.470909 
L 413.082726 -2.470909 
L 412.252492 -2.470909 
L 411.422259 -2.470909 
L 410.592025 -2.470909 
L 409.761791 -2.470909 
L 408.931558 -2.470909 
L 408.101324 -2.470909 
L 407.271091 -2.470909 
L 406.440857 -2.470909 
L 405.610623 -2.470909 
L 404.78039 -2.470909 
L 403.950156 -2.470909 
L 403.119923 -2.470909 
L 402.289689 -2.470909 
L 401.459455 -2.470909 
L 400.629222 -2.470909 
L 399.798988 -2.470909 
L 398.968755 -2.470909 
L 398.138521 -2.470909 
L 397.308287 -2.470909 
L 396.478054 -2.470909 
L 395.64782 -2.470909 
L 394.817587 -2.470909 
L 393.987353 -2.470909 
L 393.157119 -2.470909 
L 392.326886 -2.470909 
L 391.496652 -2.470909 
L 390.666419 -2.470909 
L 389.836185 -2.470909 
L 389.005951 -2.470909 
L 388.175718 -2.470909 
L 387.345484 -2.470909 
L 386.515251 -2.470909 
L 385.685017 -2.470909 
L 384.854784 -2.470909 
L 384.02455 -2.470909 
L 383.194316 -2.470909 
L 382.364083 -2.470909 
L 381.533849 -2.470909 
L 380.703616 -2.470909 
L 379.873382 -2.470909 
L 379.043148 -2.470909 
L 378.212915 -2.470909 
L 377.382681 -2.470909 
L 376.552448 -2.470909 
L 375.722214 -2.470909 
L 374.89198 -2.470909 
L 374.061747 -2.470909 
L 373.231513 -2.470909 
L 372.40128 -2.470909 
L 371.571046 -2.470909 
L 370.740812 -2.470909 
L 369.910579 -2.470909 
L 369.080345 -2.470909 
L 368.250112 -2.470909 
L 367.419878 -2.470909 
L 366.589644 -2.470909 
L 365.759411 -2.470909 
L 364.929177 -2.470909 
L 364.098944 -2.470909 
L 363.26871 -2.470909 
L 362.438476 -2.470909 
L 361.608243 -2.470909 
L 360.778009 -2.470909 
L 359.947776 -2.470909 
L 359.117542 -2.470909 
L 358.287308 -2.470909 
L 357.457075 -2.470909 
L 356.626841 -2.470909 
L 355.796608 -2.470909 
L 354.966374 -2.470909 
L 354.13614 -2.470909 
L 353.305907 -2.470909 
L 352.475673 -2.470909 
L 351.64544 -2.470909 
L 350.815206 -2.470909 
L 349.984972 -2.470909 
L 349.154739 -2.470909 
L 348.324505 -2.470909 
L 347.494272 -2.470909 
L 346.664038 -2.470909 
L 345.833804 -2.470909 
L 345.003571 -2.470909 
L 344.173337 -2.470909 
L 343.343104 -2.470909 
L 342.51287 -2.470909 
L 341.682637 -2.470909 
L 340.852403 -2.470909 
L 340.022169 -2.470909 
L 339.191936 -2.470909 
L 338.361702 -2.470909 
L 337.531469 -2.470909 
L 336.701235 -2.470909 
L 335.871001 -2.470909 
L 335.040768 -2.470909 
L 334.210534 -2.470909 
L 333.380301 -2.470909 
L 332.550067 -2.470909 
L 331.719833 -2.470909 
L 330.8896 -2.470909 
L 330.059366 -2.470909 
L 329.229133 -2.470909 
L 328.398899 -2.470909 
L 327.568665 -2.470909 
L 326.738432 -2.470909 
L 325.908198 -2.470909 
L 325.077965 -2.470909 
L 324.247731 -2.470909 
L 323.417497 -2.470909 
L 322.587264 -2.470909 
L 321.75703 -2.470909 
L 320.926797 -2.470909 
L 320.096563 -2.470909 
L 319.266329 -2.470909 
L 318.436096 -2.470909 
L 317.605862 -2.470909 
L 316.775629 -2.470909 
L 315.945395 -2.470909 
L 315.115161 -2.470909 
L 314.284928 -2.470909 
L 313.454694 -2.470909 
L 312.624461 -2.470909 
L 311.794227 -2.470909 
L 310.963993 -2.470909 
L 310.13376 -2.470909 
L 309.303526 -2.470909 
L 308.473293 -2.470909 
L 307.643059 -2.470909 
L 306.812825 -2.470909 
L 305.982592 -2.470909 
L 305.152358 -2.470909 
L 304.322125 -2.470909 
L 303.491891 -2.470909 
L 302.661657 -2.470909 
L 301.831424 -2.470909 
L 301.00119 -2.470909 
L 300.170957 -2.470909 
L 299.340723 -2.470909 
L 298.51049 -2.470909 
L 297.680256 -2.470909 
L 296.850022 -2.470909 
L 296.019789 -2.470909 
L 295.189555 -2.470909 
L 294.359322 -2.470909 
L 293.529088 -2.470909 
L 292.698854 -2.470909 
L 291.868621 -2.470909 
L 291.038387 -2.470909 
L 290.208154 -2.470909 
L 289.37792 -2.470909 
L 288.547686 -2.470909 
L 287.717453 -2.470909 
L 286.887219 -2.470909 
L 286.056986 -2.470909 
L 285.226752 -2.470909 
L 284.396518 -2.470909 
L 283.566285 -2.470909 
L 282.736051 -2.470909 
L 281.905818 -2.470909 
L 281.075584 -2.470909 
L 280.24535 -2.470909 
L 279.415117 -2.470909 
L 278.584883 -2.470909 
L 277.75465 -2.470909 
L 276.924416 -2.470909 
L 276.094182 -2.470909 
L 275.263949 -2.470909 
L 274.433715 -2.470909 
L 273.603482 -2.470909 
L 272.773248 -2.470909 
L 271.943014 -2.470909 
L 271.112781 -2.470909 
L 270.282547 -2.470909 
L 269.452314 -2.470909 
L 268.62208 -2.470909 
L 267.791846 -2.470909 
L 266.961613 -2.470909 
L 266.131379 -2.470909 
L 265.301146 -2.470909 
L 264.470912 -2.470909 
L 263.640678 -2.470909 
L 262.810445 -2.470909 
L 261.980211 -2.470909 
L 261.149978 -2.470909 
L 260.319744 -2.470909 
L 259.48951 -2.470909 
L 258.659277 -2.470909 
L 257.829043 -2.470909 
L 256.99881 -2.470909 
L 256.168576 -2.470909 
L 255.338343 -2.470909 
L 254.508109 -2.470909 
L 253.677875 -2.470909 
L 252.847642 -2.470909 
L 252.017408 -2.470909 
L 251.187175 -2.470909 
L 250.356941 -2.470909 
L 249.526707 -2.470909 
L 248.696474 -2.470909 
L 247.86624 -2.470909 
L 247.036007 -2.470909 
L 246.205773 -2.470909 
L 245.375539 -2.470909 
L 244.545306 -2.470909 
L 243.715072 -2.470909 
L 242.884839 -2.470909 
L 242.054605 -2.470909 
L 241.224371 -2.470909 
L 240.394138 -2.470909 
L 239.563904 -2.470909 
L 238.733671 -2.470909 
L 237.903437 -2.470909 
L 237.073203 -2.470909 
L 236.24297 -2.470909 
L 235.412736 -2.470909 
L 234.582503 -2.470909 
L 233.752269 -2.470909 
L 232.922035 -2.470909 
L 232.091802 -2.470909 
L 231.261568 -2.470909 
L 230.431335 -2.470909 
L 229.601101 -2.470909 
L 228.770867 -2.470909 
L 227.940634 -2.470909 
L 227.1104 -2.470909 
L 226.280167 -2.470909 
L 225.449933 -2.470909 
L 224.619699 -2.470909 
L 223.789466 -2.470909 
L 222.959232 -2.470909 
L 222.128999 -2.470909 
L 221.298765 -2.470909 
L 220.468531 -2.470909 
L 219.638298 -2.470909 
L 218.808064 -2.470909 
L 217.977831 -2.470909 
L 217.147597 -2.470909 
L 216.317363 -2.470909 
L 215.48713 -2.470909 
L 214.656896 -2.470909 
L 213.826663 -2.470909 
L 212.996429 -2.470909 
L 212.166196 -2.470909 
L 211.335962 -2.470909 
L 210.505728 -2.470909 
L 209.675495 -2.470909 
L 208.845261 -2.470909 
L 208.015028 -2.470909 
L 207.184794 -2.470909 
L 206.35456 -2.470909 
L 205.524327 -2.470909 
L 204.694093 -2.470909 
L 203.86386 -2.470909 
L 203.033626 -2.470909 
L 202.203392 -2.470909 
L 201.373159 -2.470909 
L 200.542925 -2.470909 
L 199.712692 -2.470909 
L 198.882458 -2.470909 
L 198.052224 -2.470909 
L 197.221991 -2.470909 
L 196.391757 -2.470909 
L 195.561524 -2.470909 
L 194.73129 -2.470909 
L 193.901056 -2.470909 
L 193.070823 -2.470909 
L 192.240589 -2.470909 
L 191.410356 -2.470909 
L 190.580122 -2.470909 
L 189.749888 -2.470909 
L 188.919655 -2.470909 
L 188.089421 -2.470909 
L 187.259188 -2.470909 
L 186.428954 -2.470909 
L 185.59872 -2.470909 
L 184.768487 -2.470909 
L 183.938253 -2.470909 
L 183.10802 -2.470909 
L 182.277786 -2.470909 
L 181.447552 -2.470909 
L 180.617319 -2.470909 
z
" style="stroke: #116dc2; stroke-opacity: 0.2"/>
    </defs>
    <g clip-path="url(#pc73db2e216)">
     <use xlink:href="#mc134f75bf9" x="0" y="54.36" style="fill: #116dc2; fill-opacity: 0.2; stroke: #116dc2; stroke-opacity: 0.2"/>
    </g>
   </g>
   <g id="PolyCollection_3">
    <defs>
     <path id="m5df72dcaaa" d="M 25.363636 -2.470909 
L 25.363636 -4.748796 
L 26.19387 -5.255227 
L 27.024104 -5.89625 
L 27.854337 -6.72524 
L 28.684571 -7.770228 
L 29.514804 -9.007199 
L 30.345038 -10.344208 
L 31.175272 -11.672946 
L 32.005505 -12.962038 
L 32.835739 -14.270588 
L 33.665972 -15.671403 
L 34.496206 -17.215881 
L 35.32644 -18.987018 
L 36.156673 -21.099906 
L 36.986907 -23.549519 
L 37.81714 -26.099444 
L 38.647374 -28.45234 
L 39.477607 -30.543315 
L 40.307841 -32.59938 
L 41.138075 -34.91093 
L 41.968308 -37.555693 
L 42.798542 -40.332037 
L 43.628775 -42.95817 
L 44.459009 -45.298931 
L 45.289243 -47.364012 
L 46.119476 -49.140601 
L 46.94971 -50.497711 
L 47.779943 -51.270096 
L 48.610177 -51.477549 
L 49.440411 -51.460939 
L 50.270644 -51.614888 
L 51.100878 -51.889091 
L 51.931111 -51.775452 
L 52.761345 -50.908162 
L 53.591579 -49.465098 
L 54.421812 -47.872974 
L 55.252046 -46.313825 
L 56.082279 -44.645008 
L 56.912513 -42.649883 
L 57.742747 -40.234064 
L 58.57298 -37.472699 
L 59.403214 -34.549937 
L 60.233447 -31.623407 
L 61.063681 -28.782431 
L 61.893915 -26.131339 
L 62.724148 -23.766861 
L 63.554382 -21.651324 
L 64.384615 -19.640126 
L 65.214849 -17.650234 
L 66.045083 -15.724248 
L 66.875316 -13.945743 
L 67.70555 -12.357172 
L 68.535783 -10.955348 
L 69.366017 -9.719375 
L 70.196251 -8.630048 
L 71.026484 -7.67755 
L 71.856718 -6.855287 
L 72.686951 -6.146615 
L 73.517185 -5.525626 
L 74.347419 -4.983485 
L 75.177652 -4.548461 
L 75.177652 -2.470909 
L 75.177652 -2.470909 
L 74.347419 -2.470909 
L 73.517185 -2.470909 
L 72.686951 -2.470909 
L 71.856718 -2.470909 
L 71.026484 -2.470909 
L 70.196251 -2.470909 
L 69.366017 -2.470909 
L 68.535783 -2.470909 
L 67.70555 -2.470909 
L 66.875316 -2.470909 
L 66.045083 -2.470909 
L 65.214849 -2.470909 
L 64.384615 -2.470909 
L 63.554382 -2.470909 
L 62.724148 -2.470909 
L 61.893915 -2.470909 
L 61.063681 -2.470909 
L 60.233447 -2.470909 
L 59.403214 -2.470909 
L 58.57298 -2.470909 
L 57.742747 -2.470909 
L 56.912513 -2.470909 
L 56.082279 -2.470909 
L 55.252046 -2.470909 
L 54.421812 -2.470909 
L 53.591579 -2.470909 
L 52.761345 -2.470909 
L 51.931111 -2.470909 
L 51.100878 -2.470909 
L 50.270644 -2.470909 
L 49.440411 -2.470909 
L 48.610177 -2.470909 
L 47.779943 -2.470909 
L 46.94971 -2.470909 
L 46.119476 -2.470909 
L 45.289243 -2.470909 
L 44.459009 -2.470909 
L 43.628775 -2.470909 
L 42.798542 -2.470909 
L 41.968308 -2.470909 
L 41.138075 -2.470909 
L 40.307841 -2.470909 
L 39.477607 -2.470909 
L 38.647374 -2.470909 
L 37.81714 -2.470909 
L 36.986907 -2.470909 
L 36.156673 -2.470909 
L 35.32644 -2.470909 
L 34.496206 -2.470909 
L 33.665972 -2.470909 
L 32.835739 -2.470909 
L 32.005505 -2.470909 
L 31.175272 -2.470909 
L 30.345038 -2.470909 
L 29.514804 -2.470909 
L 28.684571 -2.470909 
L 27.854337 -2.470909 
L 27.024104 -2.470909 
L 26.19387 -2.470909 
L 25.363636 -2.470909 
z
" style="stroke: #8a8a8a; stroke-opacity: 0.2"/>
    </defs>
    <g clip-path="url(#pc73db2e216)">
     <use xlink:href="#m5df72dcaaa" x="0" y="54.36" style="fill: #8a8a8a; fill-opacity: 0.2; stroke: #8a8a8a; stroke-opacity: 0.2"/>
    </g>
   </g>
   <g id="line2d_1">
    <path d="M 347.494272 50.582983 
L 353.305907 50.124394 
L 358.287308 49.476098 
L 362.438476 48.723112 
L 366.589644 47.721216 
L 370.740812 46.433518 
L 374.89198 44.860823 
L 379.043148 43.01204 
L 389.836185 37.777678 
L 394.817587 35.119105 
L 398.968755 32.715995 
L 402.289689 30.528761 
L 405.610623 27.973118 
L 410.592025 23.948794 
L 413.082726 22.241813 
L 415.573427 20.862513 
L 418.064127 19.750784 
L 423.875763 17.539465 
L 428.857164 15.773993 
L 432.178098 14.807774 
L 435.499033 14.061063 
L 437.989734 13.688266 
L 440.480434 13.57535 
L 442.140902 13.694909 
L 443.801369 13.983723 
L 446.29207 14.685321 
L 462.066508 20.104443 
L 464.557209 21.333613 
L 467.04791 22.814208 
L 471.199078 25.659574 
L 475.350245 28.431254 
L 491.954917 38.630585 
L 494.445618 39.86925 
L 497.766553 41.222604 
L 502.747954 42.906503 
L 516.031692 47.096146 
L 520.18286 48.126065 
L 525.164261 49.128715 
L 530.975896 50.043265 
L 532.636364 50.263951 
L 532.636364 50.263951 
" clip-path="url(#pc73db2e216)" style="fill: none; stroke: #cf1313; stroke-width: 1.5; stroke-linecap: square"/>
   </g>
   <g id="line2d_2">
    <path d="M 180.617319 50.522769 
L 188.089421 49.955444 
L 209.675495 47.920156 
L 213.826663 47.151718 
L 218.808064 45.971862 
L 224.619699 44.338949 
L 229.601101 42.699346 
L 235.412736 40.519793 
L 248.696474 35.451464 
L 266.131379 28.914566 
L 278.584883 23.831223 
L 282.736051 22.518537 
L 287.717453 21.222457 
L 305.982592 16.870676 
L 309.303526 16.471817 
L 312.624461 16.352094 
L 315.945395 16.497426 
L 320.096563 16.937861 
L 332.550067 18.650168 
L 337.531469 19.544013 
L 341.682637 20.512576 
L 345.833804 21.724118 
L 349.984972 23.189717 
L 355.796608 25.541799 
L 365.759411 29.573393 
L 372.40128 32.33933 
L 381.533849 36.206755 
L 386.515251 38.042928 
L 392.326886 39.942044 
L 399.798988 42.134229 
L 407.271091 44.093314 
L 415.573427 46.009772 
L 426.366463 48.306983 
L 431.347865 49.145595 
L 436.329266 49.737556 
L 442.140902 50.180472 
L 448.78277 50.511607 
L 448.78277 50.511607 
" clip-path="url(#pc73db2e216)" style="fill: none; stroke: #116dc2; stroke-width: 1.5; stroke-linecap: square"/>
   </g>
   <g id="line2d_3">
    <path d="M 25.363636 49.611204 
L 26.19387 49.104773 
L 27.024104 48.46375 
L 27.854337 47.63476 
L 28.684571 46.589772 
L 29.514804 45.352801 
L 30.345038 44.015792 
L 31.175272 42.687054 
L 32.005505 41.397962 
L 32.835739 40.089412 
L 33.665972 38.688597 
L 34.496206 37.144119 
L 35.32644 35.372982 
L 36.156673 33.260094 
L 36.986907 30.810481 
L 37.81714 28.260556 
L 38.647374 25.90766 
L 39.477607 23.816685 
L 40.307841 21.76062 
L 41.138075 19.44907 
L 41.968308 16.804307 
L 42.798542 14.027963 
L 43.628775 11.40183 
L 44.459009 9.061069 
L 45.289243 6.995988 
L 46.119476 5.219399 
L 46.94971 3.862289 
L 47.779943 3.089904 
L 48.610177 2.882451 
L 49.440411 2.899061 
L 50.270644 2.745112 
L 51.100878 2.470909 
L 51.931111 2.584548 
L 52.761345 3.451838 
L 53.591579 4.894902 
L 54.421812 6.487026 
L 55.252046 8.046175 
L 56.082279 9.714992 
L 56.912513 11.710117 
L 57.742747 14.125936 
L 58.57298 16.887301 
L 59.403214 19.810063 
L 60.233447 22.736593 
L 61.063681 25.577569 
L 61.893915 28.228661 
L 62.724148 30.593139 
L 63.554382 32.708676 
L 64.384615 34.719874 
L 65.214849 36.709766 
L 66.045083 38.635752 
L 66.875316 40.414257 
L 67.70555 42.002828 
L 68.535783 43.404652 
L 69.366017 44.640625 
L 70.196251 45.729952 
L 71.026484 46.68245 
L 71.856718 47.504713 
L 72.686951 48.213385 
L 73.517185 48.834374 
L 74.347419 49.376515 
L 75.177652 49.811539 
" clip-path="url(#pc73db2e216)" style="fill: none; stroke: #8a8a8a; stroke-width: 1.5; stroke-linecap: square"/>
   </g>
  </g>
 </g>
 <defs>
  <clipPath id="pc73db2e216">
   <rect x="0" y="-0" width="558" height="54.36"/>
  </clipPath>
 </defs>
</svg>
