<?xml version="1.0" encoding="utf-8" standalone="no"?>
<!DOCTYPE svg PUBLIC "-//W3C//DTD SVG 1.1//EN"
  "http://www.w3.org/Graphics/SVG/1.1/DTD/svg11.dtd">
<svg xmlns:xlink="http://www.w3.org/1999/xlink" width="558pt" height="54.36pt" viewBox="0 0 558 54.36" xmlns="http://www.w3.org/2000/svg" version="1.1">
 <metadata>
  <rdf:RDF xmlns:dc="http://purl.org/dc/elements/1.1/" xmlns:cc="http://creativecommons.org/ns#" xmlns:rdf="http://www.w3.org/1999/02/22-rdf-syntax-ns#">
   <cc:Work>
    <dc:type rdf:resource="http://purl.org/dc/dcmitype/StillImage"/>
    <dc:date>2024-09-14T12:47:01.678166</dc:date>
    <dc:format>image/svg+xml</dc:format>
    <dc:creator>
     <cc:Agent>
      <dc:title>Matplotlib v3.5.2, https://matplotlib.org/</dc:title>
     </cc:Agent>
    </dc:creator>
   </cc:Work>
  </rdf:RDF>
 </metadata>
 <defs>
  <style type="text/css">*{stroke-linejoin: round; stroke-linecap: butt}</style>
 </defs>
 <g id="figure_1">
  <g id="patch_1">
   <path d="M 0 54.36 
L 558 54.36 
L 558 0 
L 0 0 
L 0 54.36 
z
" style="fill: none; opacity: 0"/>
  </g>
  <g id="axes_1">
   <g id="PolyCollection_1">
    <defs>
     <path id="m31bfad1744" d="M 348.173554 -2.470909 
L 348.173554 -3.987762 
L 348.997048 -4.073216 
L 349.820543 -4.162787 
L 350.644038 -4.257126 
L 351.467532 -4.35703 
L 352.291027 -4.463409 
L 353.114522 -4.577227 
L 353.938017 -4.699432 
L 354.761511 -4.830879 
L 355.585006 -4.972267 
L 356.408501 -5.124096 
L 357.231995 -5.28665 
L 358.05549 -5.460003 
L 358.878985 -5.644055 
L 359.702479 -5.838574 
L 360.525974 -6.043245 
L 361.349469 -6.257707 
L 362.172963 -6.481561 
L 362.996458 -6.714366 
L 363.819953 -6.955603 
L 364.643447 -7.204628 
L 365.466942 -7.460628 
L 366.290437 -7.722582 
L 367.113932 -7.989264 
L 367.937426 -8.259275 
L 368.760921 -8.531135 
L 369.584416 -8.803407 
L 370.40791 -9.074858 
L 371.231405 -9.344634 
L 372.0549 -9.612424 
L 372.878394 -9.87859 
L 373.701889 -10.144242 
L 374.525384 -10.411242 
L 375.348878 -10.682136 
L 376.172373 -10.960002 
L 376.995868 -11.248254 
L 377.819362 -11.550401 
L 378.642857 -11.869802 
L 379.466352 -12.209437 
L 380.289847 -12.571722 
L 381.113341 -12.958382 
L 381.936836 -13.37039 
L 382.760331 -13.807965 
L 383.583825 -14.270622 
L 384.40732 -14.757262 
L 385.230815 -15.266263 
L 386.054309 -15.795581 
L 386.877804 -16.342824 
L 387.701299 -16.905312 
L 388.524793 -17.480106 
L 389.348288 -18.064038 
L 390.171783 -18.653738 
L 390.995277 -19.245682 
L 391.818772 -19.836275 
L 392.642267 -20.421984 
L 393.465762 -20.999502 
L 394.289256 -21.565945 
L 395.112751 -22.119052 
L 395.936246 -22.657356 
L 396.75974 -23.180296 
L 397.583235 -23.688251 
L 398.40673 -24.18246 
L 399.230224 -24.664862 
L 400.053719 -25.13784 
L 400.877214 -25.603927 
L 401.700708 -26.065509 
L 402.524203 -26.524569 
L 403.347698 -26.982506 
L 404.171192 -27.44007 
L 404.994687 -27.897401 
L 405.818182 -28.354177 
L 406.641677 -28.809832 
L 407.465171 -29.2638 
L 408.288666 -29.715751 
L 409.112161 -30.165759 
L 409.935655 -30.614383 
L 410.75915 -31.062627 
L 411.582645 -31.511782 
L 412.406139 -31.96318 
L 413.229634 -32.417878 
L 414.053129 -32.876334 
L 414.876623 -33.338118 
L 415.700118 -33.801717 
L 416.523613 -34.264463 
L 417.347107 -34.722613 
L 418.170602 -35.171565 
L 418.994097 -35.6062 
L 419.817591 -36.021299 
L 420.641086 -36.411977 
L 421.464581 -36.774079 
L 422.288076 -37.104497 
L 423.11157 -37.40136 
L 423.935065 -37.664099 
L 424.75856 -37.893383 
L 425.582054 -38.090963 
L 426.405549 -38.259459 
L 427.229044 -38.402124 
L 428.052538 -38.522631 
L 428.876033 -38.624903 
L 429.699528 -38.712989 
L 430.523022 -38.790987 
L 431.346517 -38.862984 
L 432.170012 -38.932998 
L 432.993506 -39.004882 
L 433.817001 -39.082185 
L 434.640496 -39.167948 
L 435.463991 -39.26446 
L 436.287485 -39.372991 
L 437.11098 -39.493543 
L 437.934475 -39.624655 
L 438.757969 -39.763323 
L 439.581464 -39.905042 
L 440.404959 -40.044015 
L 441.228453 -40.173497 
L 442.051948 -40.286264 
L 442.875443 -40.375162 
L 443.698937 -40.433658 
L 444.522432 -40.456359 
L 445.345927 -40.439409 
L 446.169421 -40.380742 
L 446.992916 -40.280164 
L 447.816411 -40.139254 
L 448.639906 -39.961119 
L 449.4634 -39.750025 
L 450.286895 -39.510979 
L 451.11039 -39.249277 
L 451.933884 -38.970084 
L 452.757379 -38.678076 
L 453.580874 -38.377144 
L 454.404368 -38.070188 
L 455.227863 -37.758984 
L 456.051358 -37.444136 
L 456.874852 -37.125092 
L 457.698347 -36.800233 
L 458.521842 -36.467036 
L 459.345336 -36.122303 
L 460.168831 -35.76245 
L 460.992326 -35.383847 
L 461.815821 -34.983187 
L 462.639315 -34.557836 
L 463.46281 -34.106154 
L 464.286305 -33.627725 
L 465.109799 -33.123479 
L 465.933294 -32.595676 
L 466.756789 -32.047762 
L 467.580283 -31.484092 
L 468.403778 -30.909557 
L 469.227273 -30.329167 
L 470.050767 -29.747615 
L 470.874262 -29.168904 
L 471.697757 -28.596052 
L 472.521251 -28.030921 
L 473.344746 -27.474184 
L 474.168241 -26.925417 
L 474.991736 -26.383305 
L 475.81523 -25.845916 
L 476.638725 -25.311012 
L 477.46222 -24.776351 
L 478.285714 -24.23994 
L 479.109209 -23.70022 
L 479.932704 -23.156171 
L 480.756198 -22.607331 
L 481.579693 -22.05376 
L 482.403188 -21.495952 
L 483.226682 -20.934739 
L 484.050177 -20.371186 
L 484.873672 -19.80652 
L 485.697166 -19.242082 
L 486.520661 -18.679302 
L 487.344156 -18.119705 
L 488.167651 -17.564912 
L 488.991145 -17.016645 
L 489.81464 -16.476709 
L 490.638135 -15.946956 
L 491.461629 -15.429231 
L 492.285124 -14.925295 
L 493.108619 -14.436756 
L 493.932113 -13.965 
L 494.755608 -13.511139 
L 495.579103 -13.075977 
L 496.402597 -12.660009 
L 497.226092 -12.263417 
L 498.049587 -11.886094 
L 498.873081 -11.527659 
L 499.696576 -11.187473 
L 500.520071 -10.864652 
L 501.343566 -10.558082 
L 502.16706 -10.26643 
L 502.990555 -9.988182 
L 503.81405 -9.721691 
L 504.637544 -9.465247 
L 505.461039 -9.217173 
L 506.284534 -8.975924 
L 507.108028 -8.740189 
L 507.931523 -8.508985 
L 508.755018 -8.281708 
L 509.578512 -8.058162 
L 510.402007 -7.838536 
L 511.225502 -7.623339 
L 512.048996 -7.413306 
L 512.872491 -7.209283 
L 513.695986 -7.012099 
L 514.519481 -6.822457 
L 515.342975 -6.640846 
L 516.16647 -6.467482 
L 516.989965 -6.302297 
L 517.813459 -6.144956 
L 518.636954 -5.994908 
L 519.460449 -5.851453 
L 520.283943 -5.713824 
L 521.107438 -5.581256 
L 521.930933 -5.453043 
L 522.754427 -5.328578 
L 523.577922 -5.207369 
L 524.401417 -5.089034 
L 525.224911 -4.973283 
L 526.048406 -4.859896 
L 526.871901 -4.748699 
L 527.695396 -4.639552 
L 528.51889 -4.532349 
L 529.342385 -4.427021 
L 530.16588 -4.323565 
L 530.989374 -4.222061 
L 531.812869 -4.122694 
L 532.636364 -4.025766 
L 532.636364 -2.470909 
L 532.636364 -2.470909 
L 531.812869 -2.470909 
L 530.989374 -2.470909 
L 530.16588 -2.470909 
L 529.342385 -2.470909 
L 528.51889 -2.470909 
L 527.695396 -2.470909 
L 526.871901 -2.470909 
L 526.048406 -2.470909 
L 525.224911 -2.470909 
L 524.401417 -2.470909 
L 523.577922 -2.470909 
L 522.754427 -2.470909 
L 521.930933 -2.470909 
L 521.107438 -2.470909 
L 520.283943 -2.470909 
L 519.460449 -2.470909 
L 518.636954 -2.470909 
L 517.813459 -2.470909 
L 516.989965 -2.470909 
L 516.16647 -2.470909 
L 515.342975 -2.470909 
L 514.519481 -2.470909 
L 513.695986 -2.470909 
L 512.872491 -2.470909 
L 512.048996 -2.470909 
L 511.225502 -2.470909 
L 510.402007 -2.470909 
L 509.578512 -2.470909 
L 508.755018 -2.470909 
L 507.931523 -2.470909 
L 507.108028 -2.470909 
L 506.284534 -2.470909 
L 505.461039 -2.470909 
L 504.637544 -2.470909 
L 503.81405 -2.470909 
L 502.990555 -2.470909 
L 502.16706 -2.470909 
L 501.343566 -2.470909 
L 500.520071 -2.470909 
L 499.696576 -2.470909 
L 498.873081 -2.470909 
L 498.049587 -2.470909 
L 497.226092 -2.470909 
L 496.402597 -2.470909 
L 495.579103 -2.470909 
L 494.755608 -2.470909 
L 493.932113 -2.470909 
L 493.108619 -2.470909 
L 492.285124 -2.470909 
L 491.461629 -2.470909 
L 490.638135 -2.470909 
L 489.81464 -2.470909 
L 488.991145 -2.470909 
L 488.167651 -2.470909 
L 487.344156 -2.470909 
L 486.520661 -2.470909 
L 485.697166 -2.470909 
L 484.873672 -2.470909 
L 484.050177 -2.470909 
L 483.226682 -2.470909 
L 482.403188 -2.470909 
L 481.579693 -2.470909 
L 480.756198 -2.470909 
L 479.932704 -2.470909 
L 479.109209 -2.470909 
L 478.285714 -2.470909 
L 477.46222 -2.470909 
L 476.638725 -2.470909 
L 475.81523 -2.470909 
L 474.991736 -2.470909 
L 474.168241 -2.470909 
L 473.344746 -2.470909 
L 472.521251 -2.470909 
L 471.697757 -2.470909 
L 470.874262 -2.470909 
L 470.050767 -2.470909 
L 469.227273 -2.470909 
L 468.403778 -2.470909 
L 467.580283 -2.470909 
L 466.756789 -2.470909 
L 465.933294 -2.470909 
L 465.109799 -2.470909 
L 464.286305 -2.470909 
L 463.46281 -2.470909 
L 462.639315 -2.470909 
L 461.815821 -2.470909 
L 460.992326 -2.470909 
L 460.168831 -2.470909 
L 459.345336 -2.470909 
L 458.521842 -2.470909 
L 457.698347 -2.470909 
L 456.874852 -2.470909 
L 456.051358 -2.470909 
L 455.227863 -2.470909 
L 454.404368 -2.470909 
L 453.580874 -2.470909 
L 452.757379 -2.470909 
L 451.933884 -2.470909 
L 451.11039 -2.470909 
L 450.286895 -2.470909 
L 449.4634 -2.470909 
L 448.639906 -2.470909 
L 447.816411 -2.470909 
L 446.992916 -2.470909 
L 446.169421 -2.470909 
L 445.345927 -2.470909 
L 444.522432 -2.470909 
L 443.698937 -2.470909 
L 442.875443 -2.470909 
L 442.051948 -2.470909 
L 441.228453 -2.470909 
L 440.404959 -2.470909 
L 439.581464 -2.470909 
L 438.757969 -2.470909 
L 437.934475 -2.470909 
L 437.11098 -2.470909 
L 436.287485 -2.470909 
L 435.463991 -2.470909 
L 434.640496 -2.470909 
L 433.817001 -2.470909 
L 432.993506 -2.470909 
L 432.170012 -2.470909 
L 431.346517 -2.470909 
L 430.523022 -2.470909 
L 429.699528 -2.470909 
L 428.876033 -2.470909 
L 428.052538 -2.470909 
L 427.229044 -2.470909 
L 426.405549 -2.470909 
L 425.582054 -2.470909 
L 424.75856 -2.470909 
L 423.935065 -2.470909 
L 423.11157 -2.470909 
L 422.288076 -2.470909 
L 421.464581 -2.470909 
L 420.641086 -2.470909 
L 419.817591 -2.470909 
L 418.994097 -2.470909 
L 418.170602 -2.470909 
L 417.347107 -2.470909 
L 416.523613 -2.470909 
L 415.700118 -2.470909 
L 414.876623 -2.470909 
L 414.053129 -2.470909 
L 413.229634 -2.470909 
L 412.406139 -2.470909 
L 411.582645 -2.470909 
L 410.75915 -2.470909 
L 409.935655 -2.470909 
L 409.112161 -2.470909 
L 408.288666 -2.470909 
L 407.465171 -2.470909 
L 406.641677 -2.470909 
L 405.818182 -2.470909 
L 404.994687 -2.470909 
L 404.171192 -2.470909 
L 403.347698 -2.470909 
L 402.524203 -2.470909 
L 401.700708 -2.470909 
L 400.877214 -2.470909 
L 400.053719 -2.470909 
L 399.230224 -2.470909 
L 398.40673 -2.470909 
L 397.583235 -2.470909 
L 396.75974 -2.470909 
L 395.936246 -2.470909 
L 395.112751 -2.470909 
L 394.289256 -2.470909 
L 393.465762 -2.470909 
L 392.642267 -2.470909 
L 391.818772 -2.470909 
L 390.995277 -2.470909 
L 390.171783 -2.470909 
L 389.348288 -2.470909 
L 388.524793 -2.470909 
L 387.701299 -2.470909 
L 386.877804 -2.470909 
L 386.054309 -2.470909 
L 385.230815 -2.470909 
L 384.40732 -2.470909 
L 383.583825 -2.470909 
L 382.760331 -2.470909 
L 381.936836 -2.470909 
L 381.113341 -2.470909 
L 380.289847 -2.470909 
L 379.466352 -2.470909 
L 378.642857 -2.470909 
L 377.819362 -2.470909 
L 376.995868 -2.470909 
L 376.172373 -2.470909 
L 375.348878 -2.470909 
L 374.525384 -2.470909 
L 373.701889 -2.470909 
L 372.878394 -2.470909 
L 372.0549 -2.470909 
L 371.231405 -2.470909 
L 370.40791 -2.470909 
L 369.584416 -2.470909 
L 368.760921 -2.470909 
L 367.937426 -2.470909 
L 367.113932 -2.470909 
L 366.290437 -2.470909 
L 365.466942 -2.470909 
L 364.643447 -2.470909 
L 363.819953 -2.470909 
L 362.996458 -2.470909 
L 362.172963 -2.470909 
L 361.349469 -2.470909 
L 360.525974 -2.470909 
L 359.702479 -2.470909 
L 358.878985 -2.470909 
L 358.05549 -2.470909 
L 357.231995 -2.470909 
L 356.408501 -2.470909 
L 355.585006 -2.470909 
L 354.761511 -2.470909 
L 353.938017 -2.470909 
L 353.114522 -2.470909 
L 352.291027 -2.470909 
L 351.467532 -2.470909 
L 350.644038 -2.470909 
L 349.820543 -2.470909 
L 348.997048 -2.470909 
L 348.173554 -2.470909 
z
" style="stroke: #cf1313; stroke-opacity: 0.2"/>
    </defs>
    <g clip-path="url(#p4cdbc635c1)">
     <use xlink:href="#m31bfad1744" x="0" y="54.36" style="fill: #cf1313; fill-opacity: 0.2; stroke: #cf1313; stroke-opacity: 0.2"/>
    </g>
   </g>
   <g id="PolyCollection_2">
    <defs>
     <path id="m7e56f0baf0" d="M 183.474616 -2.470909 
L 183.474616 -3.877807 
L 184.298111 -3.933365 
L 185.121606 -3.989238 
L 185.9451 -4.04545 
L 186.768595 -4.102106 
L 187.59209 -4.159392 
L 188.415584 -4.217568 
L 189.239079 -4.276962 
L 190.062574 -4.337957 
L 190.886068 -4.400973 
L 191.709563 -4.466449 
L 192.533058 -4.534826 
L 193.356553 -4.606521 
L 194.180047 -4.681909 
L 195.003542 -4.761305 
L 195.827037 -4.844948 
L 196.650531 -4.932985 
L 197.474026 -5.025466 
L 198.297521 -5.122338 
L 199.121015 -5.223447 
L 199.94451 -5.328544 
L 200.768005 -5.437296 
L 201.591499 -5.549299 
L 202.414994 -5.664103 
L 203.238489 -5.781226 
L 204.061983 -5.900188 
L 204.885478 -6.020527 
L 205.708973 -6.141832 
L 206.532468 -6.263764 
L 207.355962 -6.386074 
L 208.179457 -6.508627 
L 209.002952 -6.631414 
L 209.826446 -6.754559 
L 210.649941 -6.878322 
L 211.473436 -7.003098 
L 212.29693 -7.12941 
L 213.120425 -7.257891 
L 213.94392 -7.389269 
L 214.767414 -7.524347 
L 215.590909 -7.663971 
L 216.414404 -7.809013 
L 217.237898 -7.960337 
L 218.061393 -8.118777 
L 218.884888 -8.28511 
L 219.708383 -8.460038 
L 220.531877 -8.644167 
L 221.355372 -8.837993 
L 222.178867 -9.041888 
L 223.002361 -9.256095 
L 223.825856 -9.480722 
L 224.649351 -9.71574 
L 225.472845 -9.960982 
L 226.29634 -10.216143 
L 227.119835 -10.480788 
L 227.943329 -10.754354 
L 228.766824 -11.036154 
L 229.590319 -11.32539 
L 230.413813 -11.621161 
L 231.237308 -11.922478 
L 232.060803 -12.228278 
L 232.884298 -12.537446 
L 233.707792 -12.848839 
L 234.531287 -13.161315 
L 235.354782 -13.473759 
L 236.178276 -13.785118 
L 237.001771 -14.094433 
L 237.825266 -14.400868 
L 238.64876 -14.703744 
L 239.472255 -15.002555 
L 240.29575 -15.296993 
L 241.119244 -15.586953 
L 241.942739 -15.872537 
L 242.766234 -16.154046 
L 243.589728 -16.431966 
L 244.413223 -16.706942 
L 245.236718 -16.979752 
L 246.060213 -17.251265 
L 246.883707 -17.52241 
L 247.707202 -17.794135 
L 248.530697 -18.067364 
L 249.354191 -18.342971 
L 250.177686 -18.62174 
L 251.001181 -18.904351 
L 251.824675 -19.191356 
L 252.64817 -19.483174 
L 253.471665 -19.780086 
L 254.295159 -20.082247 
L 255.118654 -20.389694 
L 255.942149 -20.702368 
L 256.765643 -21.020132 
L 257.589138 -21.342803 
L 258.412633 -21.67017 
L 259.236128 -22.002024 
L 260.059622 -22.338177 
L 260.883117 -22.678476 
L 261.706612 -23.022818 
L 262.530106 -23.371152 
L 263.353601 -23.72347 
L 264.177096 -24.079802 
L 265.00059 -24.440193 
L 265.824085 -24.804681 
L 266.64758 -25.173268 
L 267.471074 -25.54589 
L 268.294569 -25.922385 
L 269.118064 -26.302472 
L 269.941558 -26.685724 
L 270.765053 -27.071554 
L 271.588548 -27.459214 
L 272.412043 -27.847793 
L 273.235537 -28.236236 
L 274.059032 -28.623363 
L 274.882527 -29.007903 
L 275.706021 -29.38853 
L 276.529516 -29.763906 
L 277.353011 -30.132725 
L 278.176505 -30.493751 
L 279 -30.845863 
L 279.823495 -31.188083 
L 280.646989 -31.519603 
L 281.470484 -31.839803 
L 282.293979 -32.148257 
L 283.117473 -32.444734 
L 283.940968 -32.729186 
L 284.764463 -33.001732 
L 285.587957 -33.262631 
L 286.411452 -33.512259 
L 287.234947 -33.751072 
L 288.058442 -33.979572 
L 288.881936 -34.198283 
L 289.705431 -34.407712 
L 290.528926 -34.60833 
L 291.35242 -34.800552 
L 292.175915 -34.984723 
L 292.99941 -35.161117 
L 293.822904 -35.329939 
L 294.646399 -35.491341 
L 295.469894 -35.64544 
L 296.293388 -35.792341 
L 297.116883 -35.932171 
L 297.940378 -36.065104 
L 298.763872 -36.191385 
L 299.587367 -36.311355 
L 300.410862 -36.425456 
L 301.234357 -36.534236 
L 302.057851 -36.638326 
L 302.881346 -36.738422 
L 303.704841 -36.835241 
L 304.528335 -36.929474 
L 305.35183 -37.021732 
L 306.175325 -37.112487 
L 306.998819 -37.202024 
L 307.822314 -37.290396 
L 308.645809 -37.377394 
L 309.469303 -37.462535 
L 310.292798 -37.545067 
L 311.116293 -37.623999 
L 311.939787 -37.698142 
L 312.763282 -37.766172 
L 313.586777 -37.826705 
L 314.410272 -37.878371 
L 315.233766 -37.919894 
L 316.057261 -37.950164 
L 316.880756 -37.968299 
L 317.70425 -37.973682 
L 318.527745 -37.965993 
L 319.35124 -37.945207 
L 320.174734 -37.911574 
L 320.998229 -37.865589 
L 321.821724 -37.807933 
L 322.645218 -37.739418 
L 323.468713 -37.660914 
L 324.292208 -37.573282 
L 325.115702 -37.477317 
L 325.939197 -37.373693 
L 326.762692 -37.262923 
L 327.586187 -37.145339 
L 328.409681 -37.021082 
L 329.233176 -36.890112 
L 330.056671 -36.752229 
L 330.880165 -36.607108 
L 331.70366 -36.454333 
L 332.527155 -36.293452 
L 333.350649 -36.12401 
L 334.174144 -35.945603 
L 334.997639 -35.757904 
L 335.821133 -35.560697 
L 336.644628 -35.353897 
L 337.468123 -35.137557 
L 338.291617 -34.911868 
L 339.115112 -34.677156 
L 339.938607 -34.433856 
L 340.762102 -34.1825 
L 341.585596 -33.923684 
L 342.409091 -33.658043 
L 343.232586 -33.386218 
L 344.05608 -33.108835 
L 344.879575 -32.826476 
L 345.70307 -32.53966 
L 346.526564 -32.24883 
L 347.350059 -31.954347 
L 348.173554 -31.656484 
L 348.997048 -31.355432 
L 349.820543 -31.051314 
L 350.644038 -30.744198 
L 351.467532 -30.434114 
L 352.291027 -30.121076 
L 353.114522 -29.805103 
L 353.938017 -29.486231 
L 354.761511 -29.164536 
L 355.585006 -28.840134 
L 356.408501 -28.513187 
L 357.231995 -28.183896 
L 358.05549 -27.852493 
L 358.878985 -27.519221 
L 359.702479 -27.184313 
L 360.525974 -26.847969 
L 361.349469 -26.510335 
L 362.172963 -26.171479 
L 362.996458 -25.831378 
L 363.819953 -25.489911 
L 364.643447 -25.146861 
L 365.466942 -24.801921 
L 366.290437 -24.454721 
L 367.113932 -24.10485 
L 367.937426 -23.751896 
L 368.760921 -23.395482 
L 369.584416 -23.035309 
L 370.40791 -22.671194 
L 371.231405 -22.303102 
L 372.0549 -21.931173 
L 372.878394 -21.555737 
L 373.701889 -21.177317 
L 374.525384 -20.796619 
L 375.348878 -20.414514 
L 376.172373 -20.032003 
L 376.995868 -19.650176 
L 377.819362 -19.270168 
L 378.642857 -18.893104 
L 379.466352 -18.52005 
L 380.289847 -18.151964 
L 381.113341 -17.789657 
L 381.936836 -17.433753 
L 382.760331 -17.084675 
L 383.583825 -16.742626 
L 384.40732 -16.407596 
L 385.230815 -16.079375 
L 386.054309 -15.757575 
L 386.877804 -15.441674 
L 387.701299 -15.131054 
L 388.524793 -14.825054 
L 389.348288 -14.523019 
L 390.171783 -14.22436 
L 390.995277 -13.928592 
L 391.818772 -13.635383 
L 392.642267 -13.344586 
L 393.465762 -13.056254 
L 394.289256 -12.770653 
L 395.112751 -12.488253 
L 395.936246 -12.209709 
L 396.75974 -11.935828 
L 397.583235 -11.667525 
L 398.40673 -11.405775 
L 399.230224 -11.151555 
L 400.053719 -10.905791 
L 400.877214 -10.669299 
L 401.700708 -10.442746 
L 402.524203 -10.2266 
L 403.347698 -10.021114 
L 404.171192 -9.826303 
L 404.994687 -9.641945 
L 405.818182 -9.467588 
L 406.641677 -9.302577 
L 407.465171 -9.146079 
L 408.288666 -8.99712 
L 409.112161 -8.854631 
L 409.935655 -8.717487 
L 410.75915 -8.584548 
L 411.582645 -8.454704 
L 412.406139 -8.326905 
L 413.229634 -8.200193 
L 414.053129 -8.073724 
L 414.876623 -7.946788 
L 415.700118 -7.818819 
L 416.523613 -7.689402 
L 417.347107 -7.558272 
L 418.170602 -7.425312 
L 418.994097 -7.290544 
L 419.817591 -7.154118 
L 420.641086 -7.016297 
L 421.464581 -6.877442 
L 422.288076 -6.737988 
L 423.11157 -6.598428 
L 423.935065 -6.459291 
L 424.75856 -6.321118 
L 425.582054 -6.184443 
L 426.405549 -6.049774 
L 427.229044 -5.917575 
L 428.052538 -5.788252 
L 428.876033 -5.662144 
L 429.699528 -5.539515 
L 430.523022 -5.420555 
L 431.346517 -5.305379 
L 432.170012 -5.194033 
L 432.993506 -5.086506 
L 433.817001 -4.982738 
L 434.640496 -4.882636 
L 435.463991 -4.786083 
L 436.287485 -4.692956 
L 437.11098 -4.603135 
L 437.934475 -4.516512 
L 438.757969 -4.433 
L 439.581464 -4.352533 
L 440.404959 -4.27507 
L 441.228453 -4.200594 
L 442.051948 -4.1291 
L 442.875443 -4.060596 
L 443.698937 -3.995088 
L 444.522432 -3.932577 
L 445.345927 -3.873044 
L 445.345927 -2.470909 
L 445.345927 -2.470909 
L 444.522432 -2.470909 
L 443.698937 -2.470909 
L 442.875443 -2.470909 
L 442.051948 -2.470909 
L 441.228453 -2.470909 
L 440.404959 -2.470909 
L 439.581464 -2.470909 
L 438.757969 -2.470909 
L 437.934475 -2.470909 
L 437.11098 -2.470909 
L 436.287485 -2.470909 
L 435.463991 -2.470909 
L 434.640496 -2.470909 
L 433.817001 -2.470909 
L 432.993506 -2.470909 
L 432.170012 -2.470909 
L 431.346517 -2.470909 
L 430.523022 -2.470909 
L 429.699528 -2.470909 
L 428.876033 -2.470909 
L 428.052538 -2.470909 
L 427.229044 -2.470909 
L 426.405549 -2.470909 
L 425.582054 -2.470909 
L 424.75856 -2.470909 
L 423.935065 -2.470909 
L 423.11157 -2.470909 
L 422.288076 -2.470909 
L 421.464581 -2.470909 
L 420.641086 -2.470909 
L 419.817591 -2.470909 
L 418.994097 -2.470909 
L 418.170602 -2.470909 
L 417.347107 -2.470909 
L 416.523613 -2.470909 
L 415.700118 -2.470909 
L 414.876623 -2.470909 
L 414.053129 -2.470909 
L 413.229634 -2.470909 
L 412.406139 -2.470909 
L 411.582645 -2.470909 
L 410.75915 -2.470909 
L 409.935655 -2.470909 
L 409.112161 -2.470909 
L 408.288666 -2.470909 
L 407.465171 -2.470909 
L 406.641677 -2.470909 
L 405.818182 -2.470909 
L 404.994687 -2.470909 
L 404.171192 -2.470909 
L 403.347698 -2.470909 
L 402.524203 -2.470909 
L 401.700708 -2.470909 
L 400.877214 -2.470909 
L 400.053719 -2.470909 
L 399.230224 -2.470909 
L 398.40673 -2.470909 
L 397.583235 -2.470909 
L 396.75974 -2.470909 
L 395.936246 -2.470909 
L 395.112751 -2.470909 
L 394.289256 -2.470909 
L 393.465762 -2.470909 
L 392.642267 -2.470909 
L 391.818772 -2.470909 
L 390.995277 -2.470909 
L 390.171783 -2.470909 
L 389.348288 -2.470909 
L 388.524793 -2.470909 
L 387.701299 -2.470909 
L 386.877804 -2.470909 
L 386.054309 -2.470909 
L 385.230815 -2.470909 
L 384.40732 -2.470909 
L 383.583825 -2.470909 
L 382.760331 -2.470909 
L 381.936836 -2.470909 
L 381.113341 -2.470909 
L 380.289847 -2.470909 
L 379.466352 -2.470909 
L 378.642857 -2.470909 
L 377.819362 -2.470909 
L 376.995868 -2.470909 
L 376.172373 -2.470909 
L 375.348878 -2.470909 
L 374.525384 -2.470909 
L 373.701889 -2.470909 
L 372.878394 -2.470909 
L 372.0549 -2.470909 
L 371.231405 -2.470909 
L 370.40791 -2.470909 
L 369.584416 -2.470909 
L 368.760921 -2.470909 
L 367.937426 -2.470909 
L 367.113932 -2.470909 
L 366.290437 -2.470909 
L 365.466942 -2.470909 
L 364.643447 -2.470909 
L 363.819953 -2.470909 
L 362.996458 -2.470909 
L 362.172963 -2.470909 
L 361.349469 -2.470909 
L 360.525974 -2.470909 
L 359.702479 -2.470909 
L 358.878985 -2.470909 
L 358.05549 -2.470909 
L 357.231995 -2.470909 
L 356.408501 -2.470909 
L 355.585006 -2.470909 
L 354.761511 -2.470909 
L 353.938017 -2.470909 
L 353.114522 -2.470909 
L 352.291027 -2.470909 
L 351.467532 -2.470909 
L 350.644038 -2.470909 
L 349.820543 -2.470909 
L 348.997048 -2.470909 
L 348.173554 -2.470909 
L 347.350059 -2.470909 
L 346.526564 -2.470909 
L 345.70307 -2.470909 
L 344.879575 -2.470909 
L 344.05608 -2.470909 
L 343.232586 -2.470909 
L 342.409091 -2.470909 
L 341.585596 -2.470909 
L 340.762102 -2.470909 
L 339.938607 -2.470909 
L 339.115112 -2.470909 
L 338.291617 -2.470909 
L 337.468123 -2.470909 
L 336.644628 -2.470909 
L 335.821133 -2.470909 
L 334.997639 -2.470909 
L 334.174144 -2.470909 
L 333.350649 -2.470909 
L 332.527155 -2.470909 
L 331.70366 -2.470909 
L 330.880165 -2.470909 
L 330.056671 -2.470909 
L 329.233176 -2.470909 
L 328.409681 -2.470909 
L 327.586187 -2.470909 
L 326.762692 -2.470909 
L 325.939197 -2.470909 
L 325.115702 -2.470909 
L 324.292208 -2.470909 
L 323.468713 -2.470909 
L 322.645218 -2.470909 
L 321.821724 -2.470909 
L 320.998229 -2.470909 
L 320.174734 -2.470909 
L 319.35124 -2.470909 
L 318.527745 -2.470909 
L 317.70425 -2.470909 
L 316.880756 -2.470909 
L 316.057261 -2.470909 
L 315.233766 -2.470909 
L 314.410272 -2.470909 
L 313.586777 -2.470909 
L 312.763282 -2.470909 
L 311.939787 -2.470909 
L 311.116293 -2.470909 
L 310.292798 -2.470909 
L 309.469303 -2.470909 
L 308.645809 -2.470909 
L 307.822314 -2.470909 
L 306.998819 -2.470909 
L 306.175325 -2.470909 
L 305.35183 -2.470909 
L 304.528335 -2.470909 
L 303.704841 -2.470909 
L 302.881346 -2.470909 
L 302.057851 -2.470909 
L 301.234357 -2.470909 
L 300.410862 -2.470909 
L 299.587367 -2.470909 
L 298.763872 -2.470909 
L 297.940378 -2.470909 
L 297.116883 -2.470909 
L 296.293388 -2.470909 
L 295.469894 -2.470909 
L 294.646399 -2.470909 
L 293.822904 -2.470909 
L 292.99941 -2.470909 
L 292.175915 -2.470909 
L 291.35242 -2.470909 
L 290.528926 -2.470909 
L 289.705431 -2.470909 
L 288.881936 -2.470909 
L 288.058442 -2.470909 
L 287.234947 -2.470909 
L 286.411452 -2.470909 
L 285.587957 -2.470909 
L 284.764463 -2.470909 
L 283.940968 -2.470909 
L 283.117473 -2.470909 
L 282.293979 -2.470909 
L 281.470484 -2.470909 
L 280.646989 -2.470909 
L 279.823495 -2.470909 
L 279 -2.470909 
L 278.176505 -2.470909 
L 277.353011 -2.470909 
L 276.529516 -2.470909 
L 275.706021 -2.470909 
L 274.882527 -2.470909 
L 274.059032 -2.470909 
L 273.235537 -2.470909 
L 272.412043 -2.470909 
L 271.588548 -2.470909 
L 270.765053 -2.470909 
L 269.941558 -2.470909 
L 269.118064 -2.470909 
L 268.294569 -2.470909 
L 267.471074 -2.470909 
L 266.64758 -2.470909 
L 265.824085 -2.470909 
L 265.00059 -2.470909 
L 264.177096 -2.470909 
L 263.353601 -2.470909 
L 262.530106 -2.470909 
L 261.706612 -2.470909 
L 260.883117 -2.470909 
L 260.059622 -2.470909 
L 259.236128 -2.470909 
L 258.412633 -2.470909 
L 257.589138 -2.470909 
L 256.765643 -2.470909 
L 255.942149 -2.470909 
L 255.118654 -2.470909 
L 254.295159 -2.470909 
L 253.471665 -2.470909 
L 252.64817 -2.470909 
L 251.824675 -2.470909 
L 251.001181 -2.470909 
L 250.177686 -2.470909 
L 249.354191 -2.470909 
L 248.530697 -2.470909 
L 247.707202 -2.470909 
L 246.883707 -2.470909 
L 246.060213 -2.470909 
L 245.236718 -2.470909 
L 244.413223 -2.470909 
L 243.589728 -2.470909 
L 242.766234 -2.470909 
L 241.942739 -2.470909 
L 241.119244 -2.470909 
L 240.29575 -2.470909 
L 239.472255 -2.470909 
L 238.64876 -2.470909 
L 237.825266 -2.470909 
L 237.001771 -2.470909 
L 236.178276 -2.470909 
L 235.354782 -2.470909 
L 234.531287 -2.470909 
L 233.707792 -2.470909 
L 232.884298 -2.470909 
L 232.060803 -2.470909 
L 231.237308 -2.470909 
L 230.413813 -2.470909 
L 229.590319 -2.470909 
L 228.766824 -2.470909 
L 227.943329 -2.470909 
L 227.119835 -2.470909 
L 226.29634 -2.470909 
L 225.472845 -2.470909 
L 224.649351 -2.470909 
L 223.825856 -2.470909 
L 223.002361 -2.470909 
L 222.178867 -2.470909 
L 221.355372 -2.470909 
L 220.531877 -2.470909 
L 219.708383 -2.470909 
L 218.884888 -2.470909 
L 218.061393 -2.470909 
L 217.237898 -2.470909 
L 216.414404 -2.470909 
L 215.590909 -2.470909 
L 214.767414 -2.470909 
L 213.94392 -2.470909 
L 213.120425 -2.470909 
L 212.29693 -2.470909 
L 211.473436 -2.470909 
L 210.649941 -2.470909 
L 209.826446 -2.470909 
L 209.002952 -2.470909 
L 208.179457 -2.470909 
L 207.355962 -2.470909 
L 206.532468 -2.470909 
L 205.708973 -2.470909 
L 204.885478 -2.470909 
L 204.061983 -2.470909 
L 203.238489 -2.470909 
L 202.414994 -2.470909 
L 201.591499 -2.470909 
L 200.768005 -2.470909 
L 199.94451 -2.470909 
L 199.121015 -2.470909 
L 198.297521 -2.470909 
L 197.474026 -2.470909 
L 196.650531 -2.470909 
L 195.827037 -2.470909 
L 195.003542 -2.470909 
L 194.180047 -2.470909 
L 193.356553 -2.470909 
L 192.533058 -2.470909 
L 191.709563 -2.470909 
L 190.886068 -2.470909 
L 190.062574 -2.470909 
L 189.239079 -2.470909 
L 188.415584 -2.470909 
L 187.59209 -2.470909 
L 186.768595 -2.470909 
L 185.9451 -2.470909 
L 185.121606 -2.470909 
L 184.298111 -2.470909 
L 183.474616 -2.470909 
z
" style="stroke: #116dc2; stroke-opacity: 0.2"/>
    </defs>
    <g clip-path="url(#p4cdbc635c1)">
     <use xlink:href="#m7e56f0baf0" x="0" y="54.36" style="fill: #116dc2; fill-opacity: 0.2; stroke: #116dc2; stroke-opacity: 0.2"/>
    </g>
   </g>
   <g id="PolyCollection_3">
    <defs>
     <path id="m4ead43a905" d="M 25.363636 -2.470909 
L 25.363636 -4.32888 
L 26.187131 -4.775335 
L 27.010626 -5.364093 
L 27.83412 -6.088965 
L 28.657615 -6.894693 
L 29.48111 -7.718347 
L 30.304604 -8.55121 
L 31.128099 -9.459911 
L 31.951594 -10.527927 
L 32.775089 -11.796407 
L 33.598583 -13.281062 
L 34.422078 -14.997871 
L 35.245573 -16.93389 
L 36.069067 -19.020717 
L 36.892562 -21.154784 
L 37.716057 -23.24219 
L 38.539551 -25.260647 
L 39.363046 -27.304476 
L 40.186541 -29.540728 
L 41.010035 -32.094182 
L 41.83353 -34.935114 
L 42.657025 -37.837288 
L 43.480519 -40.517606 
L 44.304014 -42.898277 
L 45.127509 -45.139611 
L 45.951004 -47.317817 
L 46.774498 -49.185474 
L 47.597993 -50.403841 
L 48.421488 -50.955375 
L 49.244982 -51.177962 
L 50.068477 -51.407282 
L 50.891972 -51.703392 
L 51.715466 -51.889091 
L 52.538961 -51.699656 
L 53.362456 -50.906087 
L 54.18595 -49.464485 
L 55.009445 -47.613044 
L 55.83294 -45.735105 
L 56.656434 -44.04694 
L 57.479929 -42.408675 
L 58.303424 -40.454063 
L 59.126919 -37.926459 
L 59.950413 -34.924148 
L 60.773908 -31.841615 
L 61.597403 -29.050154 
L 62.420897 -26.614347 
L 63.244392 -24.32979 
L 64.067887 -22.011728 
L 64.891381 -19.682744 
L 65.714876 -17.483288 
L 66.538371 -15.495481 
L 67.361865 -13.714958 
L 68.18536 -12.131003 
L 69.008855 -10.745218 
L 69.832349 -9.523646 
L 70.655844 -8.399458 
L 71.479339 -7.346757 
L 72.302834 -6.420827 
L 73.126328 -5.698045 
L 73.949823 -5.187682 
L 74.773318 -4.813587 
L 75.596812 -4.470703 
L 75.596812 -2.470909 
L 75.596812 -2.470909 
L 74.773318 -2.470909 
L 73.949823 -2.470909 
L 73.126328 -2.470909 
L 72.302834 -2.470909 
L 71.479339 -2.470909 
L 70.655844 -2.470909 
L 69.832349 -2.470909 
L 69.008855 -2.470909 
L 68.18536 -2.470909 
L 67.361865 -2.470909 
L 66.538371 -2.470909 
L 65.714876 -2.470909 
L 64.891381 -2.470909 
L 64.067887 -2.470909 
L 63.244392 -2.470909 
L 62.420897 -2.470909 
L 61.597403 -2.470909 
L 60.773908 -2.470909 
L 59.950413 -2.470909 
L 59.126919 -2.470909 
L 58.303424 -2.470909 
L 57.479929 -2.470909 
L 56.656434 -2.470909 
L 55.83294 -2.470909 
L 55.009445 -2.470909 
L 54.18595 -2.470909 
L 53.362456 -2.470909 
L 52.538961 -2.470909 
L 51.715466 -2.470909 
L 50.891972 -2.470909 
L 50.068477 -2.470909 
L 49.244982 -2.470909 
L 48.421488 -2.470909 
L 47.597993 -2.470909 
L 46.774498 -2.470909 
L 45.951004 -2.470909 
L 45.127509 -2.470909 
L 44.304014 -2.470909 
L 43.480519 -2.470909 
L 42.657025 -2.470909 
L 41.83353 -2.470909 
L 41.010035 -2.470909 
L 40.186541 -2.470909 
L 39.363046 -2.470909 
L 38.539551 -2.470909 
L 37.716057 -2.470909 
L 36.892562 -2.470909 
L 36.069067 -2.470909 
L 35.245573 -2.470909 
L 34.422078 -2.470909 
L 33.598583 -2.470909 
L 32.775089 -2.470909 
L 31.951594 -2.470909 
L 31.128099 -2.470909 
L 30.304604 -2.470909 
L 29.48111 -2.470909 
L 28.657615 -2.470909 
L 27.83412 -2.470909 
L 27.010626 -2.470909 
L 26.187131 -2.470909 
L 25.363636 -2.470909 
z
" style="stroke: #8a8a8a; stroke-opacity: 0.2"/>
    </defs>
    <g clip-path="url(#p4cdbc635c1)">
     <use xlink:href="#m4ead43a905" x="0" y="54.36" style="fill: #8a8a8a; fill-opacity: 0.2; stroke: #8a8a8a; stroke-opacity: 0.2"/>
    </g>
   </g>
   <g id="line2d_1">
    <path d="M 348.173554 50.372238 
L 353.114522 49.782773 
L 357.231995 49.07335 
L 361.349469 48.102293 
L 365.466942 46.899372 
L 376.172373 43.399998 
L 379.466352 42.150563 
L 381.936836 40.98961 
L 384.40732 39.602738 
L 387.701299 37.454688 
L 397.583235 30.671749 
L 402.524203 27.835431 
L 419.817591 18.338701 
L 422.288076 17.255503 
L 424.75856 16.466617 
L 427.229044 15.957876 
L 430.523022 15.569013 
L 436.287485 14.987009 
L 443.698937 13.926342 
L 445.345927 13.920591 
L 446.992916 14.079836 
L 449.4634 14.609975 
L 451.933884 15.389916 
L 456.874852 17.234908 
L 460.992326 18.976153 
L 463.46281 20.253846 
L 465.933294 21.764324 
L 470.050767 24.612385 
L 474.991736 27.976695 
L 484.873672 34.55348 
L 490.638135 38.413044 
L 493.932113 40.395 
L 497.226092 42.096583 
L 500.520071 43.495348 
L 503.81405 44.638309 
L 508.755018 46.078292 
L 514.519481 47.537543 
L 518.636954 48.365092 
L 524.401417 49.270966 
L 532.636364 50.334234 
L 532.636364 50.334234 
" clip-path="url(#p4cdbc635c1)" style="fill: none; stroke: #cf1313; stroke-width: 1.5; stroke-linecap: square"/>
   </g>
   <g id="line2d_2">
    <path d="M 183.474616 50.482193 
L 195.003542 49.598695 
L 200.768005 48.922704 
L 211.473436 47.356902 
L 218.061393 46.241223 
L 222.178867 45.318112 
L 226.29634 44.143857 
L 230.413813 42.738839 
L 246.060213 37.108735 
L 253.471665 34.579914 
L 259.236128 32.357976 
L 265.824085 29.555319 
L 273.235537 26.123764 
L 279 23.514137 
L 283.117473 21.915266 
L 287.234947 20.608928 
L 291.35242 19.559448 
L 296.293388 18.567659 
L 301.234357 17.825764 
L 308.645809 16.982606 
L 314.410272 16.481629 
L 317.70425 16.386318 
L 320.998229 16.494411 
L 325.115702 16.882683 
L 330.056671 17.607771 
L 334.174144 18.414397 
L 338.291617 19.448132 
L 342.409091 20.701957 
L 348.173554 22.703516 
L 355.585006 25.519866 
L 365.466942 29.558079 
L 372.0549 32.428827 
L 384.40732 37.952404 
L 390.171783 40.13564 
L 397.583235 42.692475 
L 401.700708 43.917254 
L 405.818182 44.892412 
L 410.75915 45.775452 
L 435.463991 49.573917 
L 442.051948 50.2309 
L 445.345927 50.486956 
L 445.345927 50.486956 
" clip-path="url(#p4cdbc635c1)" style="fill: none; stroke: #116dc2; stroke-width: 1.5; stroke-linecap: square"/>
   </g>
   <g id="line2d_3">
    <path d="M 25.363636 50.03112 
L 26.187131 49.584665 
L 27.010626 48.995907 
L 27.83412 48.271035 
L 28.657615 47.465307 
L 29.48111 46.641653 
L 30.304604 45.80879 
L 31.128099 44.900089 
L 31.951594 43.832073 
L 32.775089 42.563593 
L 33.598583 41.078938 
L 34.422078 39.362129 
L 35.245573 37.42611 
L 36.069067 35.339283 
L 36.892562 33.205216 
L 37.716057 31.11781 
L 38.539551 29.099353 
L 39.363046 27.055524 
L 40.186541 24.819272 
L 41.010035 22.265818 
L 41.83353 19.424886 
L 42.657025 16.522712 
L 43.480519 13.842394 
L 44.304014 11.461723 
L 45.127509 9.220389 
L 45.951004 7.042183 
L 46.774498 5.174526 
L 47.597993 3.956159 
L 48.421488 3.404625 
L 49.244982 3.182038 
L 50.068477 2.952718 
L 50.891972 2.656608 
L 51.715466 2.470909 
L 52.538961 2.660344 
L 53.362456 3.453913 
L 54.18595 4.895515 
L 55.009445 6.746956 
L 55.83294 8.624895 
L 56.656434 10.31306 
L 57.479929 11.951325 
L 58.303424 13.905937 
L 59.126919 16.433541 
L 59.950413 19.435852 
L 60.773908 22.518385 
L 61.597403 25.309846 
L 62.420897 27.745653 
L 63.244392 30.03021 
L 64.067887 32.348272 
L 64.891381 34.677256 
L 65.714876 36.876712 
L 66.538371 38.864519 
L 67.361865 40.645042 
L 68.18536 42.228997 
L 69.008855 43.614782 
L 69.832349 44.836354 
L 70.655844 45.960542 
L 71.479339 47.013243 
L 72.302834 47.939173 
L 73.126328 48.661955 
L 73.949823 49.172318 
L 74.773318 49.546413 
L 75.596812 49.889297 
" clip-path="url(#p4cdbc635c1)" style="fill: none; stroke: #8a8a8a; stroke-width: 1.5; stroke-linecap: square"/>
   </g>
  </g>
 </g>
 <defs>
  <clipPath id="p4cdbc635c1">
   <rect x="0" y="-0" width="558" height="54.36"/>
  </clipPath>
 </defs>
</svg>
