<?xml version="1.0" encoding="utf-8" standalone="no"?>
<!DOCTYPE svg PUBLIC "-//W3C//DTD SVG 1.1//EN"
  "http://www.w3.org/Graphics/SVG/1.1/DTD/svg11.dtd">
<svg xmlns:xlink="http://www.w3.org/1999/xlink" width="558pt" height="54.36pt" viewBox="0 0 558 54.36" xmlns="http://www.w3.org/2000/svg" version="1.1">
 <metadata>
  <rdf:RDF xmlns:dc="http://purl.org/dc/elements/1.1/" xmlns:cc="http://creativecommons.org/ns#" xmlns:rdf="http://www.w3.org/1999/02/22-rdf-syntax-ns#">
   <cc:Work>
    <dc:type rdf:resource="http://purl.org/dc/dcmitype/StillImage"/>
    <dc:date>2024-09-15T09:31:30.605293</dc:date>
    <dc:format>image/svg+xml</dc:format>
    <dc:creator>
     <cc:Agent>
      <dc:title>Matplotlib v3.5.2, https://matplotlib.org/</dc:title>
     </cc:Agent>
    </dc:creator>
   </cc:Work>
  </rdf:RDF>
 </metadata>
 <defs>
  <style type="text/css">*{stroke-linejoin: round; stroke-linecap: butt}</style>
 </defs>
 <g id="figure_1">
  <g id="patch_1">
   <path d="M 0 54.36 
L 558 54.36 
L 558 0 
L 0 0 
L 0 54.36 
z
" style="fill: none; opacity: 0"/>
  </g>
  <g id="axes_1">
   <g id="PolyCollection_1">
    <defs>
     <path id="m32419cc954" d="M 206.151059 -2.470909 
L 206.151059 -3.883754 
L 206.913876 -3.959663 
L 207.676692 -4.037831 
L 208.439508 -4.118227 
L 209.202324 -4.200935 
L 209.96514 -4.286156 
L 210.727956 -4.374213 
L 211.490772 -4.465534 
L 212.253589 -4.560645 
L 213.016405 -4.66014 
L 213.779221 -4.764663 
L 214.542037 -4.874876 
L 215.304853 -4.991434 
L 216.067669 -5.114953 
L 216.830485 -5.245983 
L 217.593301 -5.384976 
L 218.356118 -5.532265 
L 219.118934 -5.688033 
L 219.88175 -5.852294 
L 220.644566 -6.024879 
L 221.407382 -6.205421 
L 222.170198 -6.393355 
L 222.933014 -6.58793 
L 223.69583 -6.788227 
L 224.458647 -6.993193 
L 225.221463 -7.201686 
L 225.984279 -7.41253 
L 226.747095 -7.624575 
L 227.509911 -7.836758 
L 228.272727 -8.048162 
L 229.035543 -8.258068 
L 229.79836 -8.46599 
L 230.561176 -8.671699 
L 231.323992 -8.875228 
L 232.086808 -9.076866 
L 232.849624 -9.277128 
L 233.61244 -9.476724 
L 234.375256 -9.676519 
L 235.138072 -9.877492 
L 235.900889 -10.080693 
L 236.663705 -10.28721 
L 237.426521 -10.498143 
L 238.189337 -10.71458 
L 238.952153 -10.93758 
L 239.714969 -11.168166 
L 240.477785 -11.407308 
L 241.240602 -11.655914 
L 242.003418 -11.914816 
L 242.766234 -12.184748 
L 243.52905 -12.466325 
L 244.291866 -12.760019 
L 245.054682 -13.066131 
L 245.817498 -13.384774 
L 246.580314 -13.71585 
L 247.343131 -14.059044 
L 248.105947 -14.413826 
L 248.868763 -14.779461 
L 249.631579 -15.155032 
L 250.394395 -15.539472 
L 251.157211 -15.931605 
L 251.920027 -16.33019 
L 252.682843 -16.73397 
L 253.44566 -17.141718 
L 254.208476 -17.552279 
L 254.971292 -17.964608 
L 255.734108 -18.377798 
L 256.496924 -18.791101 
L 257.25974 -19.203936 
L 258.022556 -19.615895 
L 258.785373 -20.026727 
L 259.548189 -20.436333 
L 260.311005 -20.844734 
L 261.073821 -21.252052 
L 261.836637 -21.658479 
L 262.599453 -22.064248 
L 263.362269 -22.469601 
L 264.125085 -22.874767 
L 264.887902 -23.279935 
L 265.650718 -23.685237 
L 266.413534 -24.090734 
L 267.17635 -24.496404 
L 267.939166 -24.902145 
L 268.701982 -25.307768 
L 269.464798 -25.713012 
L 270.227614 -26.117548 
L 270.990431 -26.521004 
L 271.753247 -26.922978 
L 272.516063 -27.323072 
L 273.278879 -27.720918 
L 274.041695 -28.11621 
L 274.804511 -28.508745 
L 275.567327 -28.898449 
L 276.330144 -29.285413 
L 277.09296 -29.669908 
L 277.855776 -30.052402 
L 278.618592 -30.43355 
L 279.381408 -30.81417 
L 280.144224 -31.195202 
L 280.90704 -31.577638 
L 281.669856 -31.962443 
L 282.432673 -32.350453 
L 283.195489 -32.742269 
L 283.958305 -33.138142 
L 284.721121 -33.537877 
L 285.483937 -33.940738 
L 286.246753 -34.345394 
L 287.009569 -34.749887 
L 287.772386 -35.151642 
L 288.535202 -35.547526 
L 289.298018 -35.933944 
L 290.060834 -36.306978 
L 290.82365 -36.66256 
L 291.586466 -36.99667 
L 292.349282 -37.305545 
L 293.112098 -37.585893 
L 293.874915 -37.835077 
L 294.637731 -38.051283 
L 295.400547 -38.233628 
L 296.163363 -38.382228 
L 296.926179 -38.498192 
L 297.688995 -38.583559 
L 298.451811 -38.641172 
L 299.214627 -38.674504 
L 299.977444 -38.687435 
L 300.74026 -38.684023 
L 301.503076 -38.668253 
L 302.265892 -38.643817 
L 303.028708 -38.613917 
L 303.791524 -38.581127 
L 304.55434 -38.547303 
L 305.317157 -38.513569 
L 306.079973 -38.480356 
L 306.842789 -38.447503 
L 307.605605 -38.4144 
L 308.368421 -38.380149 
L 309.131237 -38.343738 
L 309.894053 -38.304201 
L 310.656869 -38.260742 
L 311.419686 -38.212822 
L 312.182502 -38.160182 
L 312.945318 -38.102833 
L 313.708134 -38.040975 
L 314.47095 -37.974899 
L 315.233766 -37.904858 
L 315.996582 -37.830941 
L 316.759398 -37.752959 
L 317.522215 -37.670368 
L 318.285031 -37.582231 
L 319.047847 -37.487239 
L 319.810663 -37.383769 
L 320.573479 -37.27 
L 321.336295 -37.144048 
L 322.099111 -37.004127 
L 322.861928 -36.848701 
L 323.624744 -36.67662 
L 324.38756 -36.487225 
L 325.150376 -36.280406 
L 325.913192 -36.056612 
L 326.676008 -35.816815 
L 327.438824 -35.562428 
L 328.20164 -35.295189 
L 328.964457 -35.017024 
L 329.727273 -34.729904 
L 330.490089 -34.435703 
L 331.252905 -34.136078 
L 332.015721 -33.832364 
L 332.778537 -33.525517 
L 333.541353 -33.21607 
L 334.30417 -32.904139 
L 335.066986 -32.589448 
L 335.829802 -32.27138 
L 336.592618 -31.949047 
L 337.355434 -31.621369 
L 338.11825 -31.287158 
L 338.881066 -30.945201 
L 339.643882 -30.594336 
L 340.406699 -30.23352 
L 341.169515 -29.861882 
L 341.932331 -29.478768 
L 342.695147 -29.08377 
L 343.457963 -28.676741 
L 344.220779 -28.2578 
L 344.983595 -27.827331 
L 345.746411 -27.385967 
L 346.509228 -26.934573 
L 347.272044 -26.474228 
L 348.03486 -26.006195 
L 348.797676 -25.531898 
L 349.560492 -25.052895 
L 350.323308 -24.570846 
L 351.086124 -24.08748 
L 351.848941 -23.604561 
L 352.611757 -23.123844 
L 353.374573 -22.647028 
L 354.137389 -22.175703 
L 354.900205 -21.7113 
L 355.663021 -21.255032 
L 356.425837 -20.807846 
L 357.188653 -20.370383 
L 357.95147 -19.942954 
L 358.714286 -19.52553 
L 359.477102 -19.117757 
L 360.239918 -18.719 
L 361.002734 -18.328395 
L 361.76555 -17.944931 
L 362.528366 -17.567538 
L 363.291183 -17.195183 
L 364.053999 -16.826958 
L 364.816815 -16.46216 
L 365.579631 -16.100353 
L 366.342447 -15.7414 
L 367.105263 -15.385484 
L 367.868079 -15.033084 
L 368.630895 -14.684942 
L 369.393712 -14.342002 
L 370.156528 -14.005342 
L 370.919344 -13.676089 
L 371.68216 -13.355341 
L 372.444976 -13.04409 
L 373.207792 -12.743155 
L 373.970608 -12.453127 
L 374.733424 -12.174334 
L 375.496241 -11.906815 
L 376.259057 -11.650323 
L 377.021873 -11.404327 
L 377.784689 -11.168046 
L 378.547505 -10.940478 
L 379.310321 -10.720451 
L 380.073137 -10.506668 
L 380.835954 -10.297766 
L 381.59877 -10.092365 
L 382.361586 -9.889128 
L 383.124402 -9.686805 
L 383.887218 -9.484284 
L 384.650034 -9.280626 
L 385.41285 -9.075104 
L 386.175666 -8.867225 
L 386.938483 -8.656747 
L 387.701299 -8.443693 
L 388.464115 -8.228343 
L 389.226931 -8.011229 
L 389.989747 -7.79311 
L 390.752563 -7.574946 
L 391.515379 -7.357856 
L 392.278195 -7.14307 
L 393.041012 -6.931883 
L 393.803828 -6.725592 
L 394.566644 -6.525443 
L 395.32946 -6.332578 
L 396.092276 -6.147981 
L 396.855092 -5.972441 
L 397.617908 -5.806518 
L 398.380725 -5.650523 
L 399.143541 -5.504513 
L 399.906357 -5.368298 
L 400.669173 -5.241466 
L 401.431989 -5.123408 
L 402.194805 -5.013372 
L 402.957621 -4.910503 
L 403.720437 -4.813901 
L 404.483254 -4.722672 
L 405.24607 -4.635976 
L 406.008886 -4.553067 
L 406.771702 -4.473318 
L 407.534518 -4.396245 
L 408.297334 -4.321502 
L 409.06015 -4.248879 
L 409.822967 -4.178275 
L 410.585783 -4.109678 
L 411.348599 -4.04313 
L 412.111415 -3.978692 
L 412.874231 -3.916423 
L 413.637047 -3.856349 
L 414.399863 -3.798454 
L 414.399863 -2.470909 
L 414.399863 -2.470909 
L 413.637047 -2.470909 
L 412.874231 -2.470909 
L 412.111415 -2.470909 
L 411.348599 -2.470909 
L 410.585783 -2.470909 
L 409.822967 -2.470909 
L 409.06015 -2.470909 
L 408.297334 -2.470909 
L 407.534518 -2.470909 
L 406.771702 -2.470909 
L 406.008886 -2.470909 
L 405.24607 -2.470909 
L 404.483254 -2.470909 
L 403.720437 -2.470909 
L 402.957621 -2.470909 
L 402.194805 -2.470909 
L 401.431989 -2.470909 
L 400.669173 -2.470909 
L 399.906357 -2.470909 
L 399.143541 -2.470909 
L 398.380725 -2.470909 
L 397.617908 -2.470909 
L 396.855092 -2.470909 
L 396.092276 -2.470909 
L 395.32946 -2.470909 
L 394.566644 -2.470909 
L 393.803828 -2.470909 
L 393.041012 -2.470909 
L 392.278195 -2.470909 
L 391.515379 -2.470909 
L 390.752563 -2.470909 
L 389.989747 -2.470909 
L 389.226931 -2.470909 
L 388.464115 -2.470909 
L 387.701299 -2.470909 
L 386.938483 -2.470909 
L 386.175666 -2.470909 
L 385.41285 -2.470909 
L 384.650034 -2.470909 
L 383.887218 -2.470909 
L 383.124402 -2.470909 
L 382.361586 -2.470909 
L 381.59877 -2.470909 
L 380.835954 -2.470909 
L 380.073137 -2.470909 
L 379.310321 -2.470909 
L 378.547505 -2.470909 
L 377.784689 -2.470909 
L 377.021873 -2.470909 
L 376.259057 -2.470909 
L 375.496241 -2.470909 
L 374.733424 -2.470909 
L 373.970608 -2.470909 
L 373.207792 -2.470909 
L 372.444976 -2.470909 
L 371.68216 -2.470909 
L 370.919344 -2.470909 
L 370.156528 -2.470909 
L 369.393712 -2.470909 
L 368.630895 -2.470909 
L 367.868079 -2.470909 
L 367.105263 -2.470909 
L 366.342447 -2.470909 
L 365.579631 -2.470909 
L 364.816815 -2.470909 
L 364.053999 -2.470909 
L 363.291183 -2.470909 
L 362.528366 -2.470909 
L 361.76555 -2.470909 
L 361.002734 -2.470909 
L 360.239918 -2.470909 
L 359.477102 -2.470909 
L 358.714286 -2.470909 
L 357.95147 -2.470909 
L 357.188653 -2.470909 
L 356.425837 -2.470909 
L 355.663021 -2.470909 
L 354.900205 -2.470909 
L 354.137389 -2.470909 
L 353.374573 -2.470909 
L 352.611757 -2.470909 
L 351.848941 -2.470909 
L 351.086124 -2.470909 
L 350.323308 -2.470909 
L 349.560492 -2.470909 
L 348.797676 -2.470909 
L 348.03486 -2.470909 
L 347.272044 -2.470909 
L 346.509228 -2.470909 
L 345.746411 -2.470909 
L 344.983595 -2.470909 
L 344.220779 -2.470909 
L 343.457963 -2.470909 
L 342.695147 -2.470909 
L 341.932331 -2.470909 
L 341.169515 -2.470909 
L 340.406699 -2.470909 
L 339.643882 -2.470909 
L 338.881066 -2.470909 
L 338.11825 -2.470909 
L 337.355434 -2.470909 
L 336.592618 -2.470909 
L 335.829802 -2.470909 
L 335.066986 -2.470909 
L 334.30417 -2.470909 
L 333.541353 -2.470909 
L 332.778537 -2.470909 
L 332.015721 -2.470909 
L 331.252905 -2.470909 
L 330.490089 -2.470909 
L 329.727273 -2.470909 
L 328.964457 -2.470909 
L 328.20164 -2.470909 
L 327.438824 -2.470909 
L 326.676008 -2.470909 
L 325.913192 -2.470909 
L 325.150376 -2.470909 
L 324.38756 -2.470909 
L 323.624744 -2.470909 
L 322.861928 -2.470909 
L 322.099111 -2.470909 
L 321.336295 -2.470909 
L 320.573479 -2.470909 
L 319.810663 -2.470909 
L 319.047847 -2.470909 
L 318.285031 -2.470909 
L 317.522215 -2.470909 
L 316.759398 -2.470909 
L 315.996582 -2.470909 
L 315.233766 -2.470909 
L 314.47095 -2.470909 
L 313.708134 -2.470909 
L 312.945318 -2.470909 
L 312.182502 -2.470909 
L 311.419686 -2.470909 
L 310.656869 -2.470909 
L 309.894053 -2.470909 
L 309.131237 -2.470909 
L 308.368421 -2.470909 
L 307.605605 -2.470909 
L 306.842789 -2.470909 
L 306.079973 -2.470909 
L 305.317157 -2.470909 
L 304.55434 -2.470909 
L 303.791524 -2.470909 
L 303.028708 -2.470909 
L 302.265892 -2.470909 
L 301.503076 -2.470909 
L 300.74026 -2.470909 
L 299.977444 -2.470909 
L 299.214627 -2.470909 
L 298.451811 -2.470909 
L 297.688995 -2.470909 
L 296.926179 -2.470909 
L 296.163363 -2.470909 
L 295.400547 -2.470909 
L 294.637731 -2.470909 
L 293.874915 -2.470909 
L 293.112098 -2.470909 
L 292.349282 -2.470909 
L 291.586466 -2.470909 
L 290.82365 -2.470909 
L 290.060834 -2.470909 
L 289.298018 -2.470909 
L 288.535202 -2.470909 
L 287.772386 -2.470909 
L 287.009569 -2.470909 
L 286.246753 -2.470909 
L 285.483937 -2.470909 
L 284.721121 -2.470909 
L 283.958305 -2.470909 
L 283.195489 -2.470909 
L 282.432673 -2.470909 
L 281.669856 -2.470909 
L 280.90704 -2.470909 
L 280.144224 -2.470909 
L 279.381408 -2.470909 
L 278.618592 -2.470909 
L 277.855776 -2.470909 
L 277.09296 -2.470909 
L 276.330144 -2.470909 
L 275.567327 -2.470909 
L 274.804511 -2.470909 
L 274.041695 -2.470909 
L 273.278879 -2.470909 
L 272.516063 -2.470909 
L 271.753247 -2.470909 
L 270.990431 -2.470909 
L 270.227614 -2.470909 
L 269.464798 -2.470909 
L 268.701982 -2.470909 
L 267.939166 -2.470909 
L 267.17635 -2.470909 
L 266.413534 -2.470909 
L 265.650718 -2.470909 
L 264.887902 -2.470909 
L 264.125085 -2.470909 
L 263.362269 -2.470909 
L 262.599453 -2.470909 
L 261.836637 -2.470909 
L 261.073821 -2.470909 
L 260.311005 -2.470909 
L 259.548189 -2.470909 
L 258.785373 -2.470909 
L 258.022556 -2.470909 
L 257.25974 -2.470909 
L 256.496924 -2.470909 
L 255.734108 -2.470909 
L 254.971292 -2.470909 
L 254.208476 -2.470909 
L 253.44566 -2.470909 
L 252.682843 -2.470909 
L 251.920027 -2.470909 
L 251.157211 -2.470909 
L 250.394395 -2.470909 
L 249.631579 -2.470909 
L 248.868763 -2.470909 
L 248.105947 -2.470909 
L 247.343131 -2.470909 
L 246.580314 -2.470909 
L 245.817498 -2.470909 
L 245.054682 -2.470909 
L 244.291866 -2.470909 
L 243.52905 -2.470909 
L 242.766234 -2.470909 
L 242.003418 -2.470909 
L 241.240602 -2.470909 
L 240.477785 -2.470909 
L 239.714969 -2.470909 
L 238.952153 -2.470909 
L 238.189337 -2.470909 
L 237.426521 -2.470909 
L 236.663705 -2.470909 
L 235.900889 -2.470909 
L 235.138072 -2.470909 
L 234.375256 -2.470909 
L 233.61244 -2.470909 
L 232.849624 -2.470909 
L 232.086808 -2.470909 
L 231.323992 -2.470909 
L 230.561176 -2.470909 
L 229.79836 -2.470909 
L 229.035543 -2.470909 
L 228.272727 -2.470909 
L 227.509911 -2.470909 
L 226.747095 -2.470909 
L 225.984279 -2.470909 
L 225.221463 -2.470909 
L 224.458647 -2.470909 
L 223.69583 -2.470909 
L 222.933014 -2.470909 
L 222.170198 -2.470909 
L 221.407382 -2.470909 
L 220.644566 -2.470909 
L 219.88175 -2.470909 
L 219.118934 -2.470909 
L 218.356118 -2.470909 
L 217.593301 -2.470909 
L 216.830485 -2.470909 
L 216.067669 -2.470909 
L 215.304853 -2.470909 
L 214.542037 -2.470909 
L 213.779221 -2.470909 
L 213.016405 -2.470909 
L 212.253589 -2.470909 
L 211.490772 -2.470909 
L 210.727956 -2.470909 
L 209.96514 -2.470909 
L 209.202324 -2.470909 
L 208.439508 -2.470909 
L 207.676692 -2.470909 
L 206.913876 -2.470909 
L 206.151059 -2.470909 
z
" style="stroke: #cf1313; stroke-opacity: 0.2"/>
    </defs>
    <g clip-path="url(#p6bed651ce6)">
     <use xlink:href="#m32419cc954" x="0" y="54.36" style="fill: #cf1313; fill-opacity: 0.2; stroke: #cf1313; stroke-opacity: 0.2"/>
    </g>
   </g>
   <g id="PolyCollection_2">
    <defs>
     <path id="mfc108e847e" d="M 252.682843 -2.470909 
L 252.682843 -3.813159 
L 253.44566 -3.864438 
L 254.208476 -3.917773 
L 254.971292 -3.973224 
L 255.734108 -4.030824 
L 256.496924 -4.090571 
L 257.25974 -4.152422 
L 258.022556 -4.216296 
L 258.785373 -4.28207 
L 259.548189 -4.349579 
L 260.311005 -4.41862 
L 261.073821 -4.48896 
L 261.836637 -4.560338 
L 262.599453 -4.632478 
L 263.362269 -4.7051 
L 264.125085 -4.777928 
L 264.887902 -4.850705 
L 265.650718 -4.923208 
L 266.413534 -4.995254 
L 267.17635 -5.066718 
L 267.939166 -5.137537 
L 268.701982 -5.207719 
L 269.464798 -5.277352 
L 270.227614 -5.3466 
L 270.990431 -5.415707 
L 271.753247 -5.484993 
L 272.516063 -5.554849 
L 273.278879 -5.625731 
L 274.041695 -5.698145 
L 274.804511 -5.772644 
L 275.567327 -5.849808 
L 276.330144 -5.930239 
L 277.09296 -6.014542 
L 277.855776 -6.103315 
L 278.618592 -6.197137 
L 279.381408 -6.296554 
L 280.144224 -6.402069 
L 280.90704 -6.514132 
L 281.669856 -6.633126 
L 282.432673 -6.75936 
L 283.195489 -6.89306 
L 283.958305 -7.03436 
L 284.721121 -7.183294 
L 285.483937 -7.339792 
L 286.246753 -7.503672 
L 287.009569 -7.674641 
L 287.772386 -7.852292 
L 288.535202 -8.036104 
L 289.298018 -8.225453 
L 290.060834 -8.419614 
L 290.82365 -8.617775 
L 291.586466 -8.819053 
L 292.349282 -9.02251 
L 293.112098 -9.227175 
L 293.874915 -9.432069 
L 294.637731 -9.636225 
L 295.400547 -9.838721 
L 296.163363 -10.038698 
L 296.926179 -10.23539 
L 297.688995 -10.428147 
L 298.451811 -10.616449 
L 299.214627 -10.799927 
L 299.977444 -10.978376 
L 300.74026 -11.151758 
L 301.503076 -11.320204 
L 302.265892 -11.484014 
L 303.028708 -11.643649 
L 303.791524 -11.799713 
L 304.55434 -11.952943 
L 305.317157 -12.104183 
L 306.079973 -12.254363 
L 306.842789 -12.404476 
L 307.605605 -12.555546 
L 308.368421 -12.708607 
L 309.131237 -12.864671 
L 309.894053 -13.024708 
L 310.656869 -13.189619 
L 311.419686 -13.360215 
L 312.182502 -13.537203 
L 312.945318 -13.721166 
L 313.708134 -13.912557 
L 314.47095 -14.11169 
L 315.233766 -14.318739 
L 315.996582 -14.533736 
L 316.759398 -14.756581 
L 317.522215 -14.987048 
L 318.285031 -15.2248 
L 319.047847 -15.469402 
L 319.810663 -15.720341 
L 320.573479 -15.977046 
L 321.336295 -16.238909 
L 322.099111 -16.505306 
L 322.861928 -16.775618 
L 323.624744 -17.049257 
L 324.38756 -17.325676 
L 325.150376 -17.604393 
L 325.913192 -17.885002 
L 326.676008 -18.16718 
L 327.438824 -18.450698 
L 328.20164 -18.735418 
L 328.964457 -19.021293 
L 329.727273 -19.308359 
L 330.490089 -19.59672 
L 331.252905 -19.886538 
L 332.015721 -20.178012 
L 332.778537 -20.471356 
L 333.541353 -20.766777 
L 334.30417 -21.064456 
L 335.066986 -21.36452 
L 335.829802 -21.667025 
L 336.592618 -21.971938 
L 337.355434 -22.279122 
L 338.11825 -22.588329 
L 338.881066 -22.899194 
L 339.643882 -23.211238 
L 340.406699 -23.523877 
L 341.169515 -23.836433 
L 341.932331 -24.148157 
L 342.695147 -24.458253 
L 343.457963 -24.765904 
L 344.220779 -25.070304 
L 344.983595 -25.370691 
L 345.746411 -25.666379 
L 346.509228 -25.956788 
L 347.272044 -26.24147 
L 348.03486 -26.520133 
L 348.797676 -26.792653 
L 349.560492 -27.059086 
L 350.323308 -27.319666 
L 351.086124 -27.5748 
L 351.848941 -27.825048 
L 352.611757 -28.071104 
L 353.374573 -28.313763 
L 354.137389 -28.553883 
L 354.900205 -28.792352 
L 355.663021 -29.030041 
L 356.425837 -29.267764 
L 357.188653 -29.506241 
L 357.95147 -29.746059 
L 358.714286 -29.987645 
L 359.477102 -30.231239 
L 360.239918 -30.476885 
L 361.002734 -30.724421 
L 361.76555 -30.973481 
L 362.528366 -31.223507 
L 363.291183 -31.473772 
L 364.053999 -31.723398 
L 364.816815 -31.971396 
L 365.579631 -32.216692 
L 366.342447 -32.458174 
L 367.105263 -32.694722 
L 367.868079 -32.925251 
L 368.630895 -33.148739 
L 369.393712 -33.364265 
L 370.156528 -33.571029 
L 370.919344 -33.768374 
L 371.68216 -33.955804 
L 372.444976 -34.132987 
L 373.207792 -34.299762 
L 373.970608 -34.456138 
L 374.733424 -34.602282 
L 375.496241 -34.738509 
L 376.259057 -34.865268 
L 377.021873 -34.98312 
L 377.784689 -35.092718 
L 378.547505 -35.194787 
L 379.310321 -35.290092 
L 380.073137 -35.379419 
L 380.835954 -35.46355 
L 381.59877 -35.543237 
L 382.361586 -35.619178 
L 383.124402 -35.692 
L 383.887218 -35.762239 
L 384.650034 -35.83033 
L 385.41285 -35.896589 
L 386.175666 -35.961214 
L 386.938483 -36.024284 
L 387.701299 -36.085757 
L 388.464115 -36.145485 
L 389.226931 -36.203221 
L 389.989747 -36.25864 
L 390.752563 -36.311356 
L 391.515379 -36.360941 
L 392.278195 -36.40695 
L 393.041012 -36.448938 
L 393.803828 -36.486483 
L 394.566644 -36.519201 
L 395.32946 -36.546756 
L 396.092276 -36.568875 
L 396.855092 -36.585348 
L 397.617908 -36.596029 
L 398.380725 -36.600833 
L 399.143541 -36.599728 
L 399.906357 -36.592722 
L 400.669173 -36.579858 
L 401.431989 -36.561192 
L 402.194805 -36.536786 
L 402.957621 -36.506694 
L 403.720437 -36.470952 
L 404.483254 -36.429569 
L 405.24607 -36.382524 
L 406.008886 -36.329759 
L 406.771702 -36.271184 
L 407.534518 -36.206677 
L 408.297334 -36.136089 
L 409.06015 -36.05925 
L 409.822967 -35.975981 
L 410.585783 -35.886095 
L 411.348599 -35.789414 
L 412.111415 -35.685774 
L 412.874231 -35.575032 
L 413.637047 -35.457079 
L 414.399863 -35.331842 
L 415.162679 -35.199293 
L 415.925496 -35.059451 
L 416.688312 -34.912385 
L 417.451128 -34.758216 
L 418.213944 -34.597115 
L 418.97676 -34.429298 
L 419.739576 -34.255023 
L 420.502392 -34.074583 
L 421.265208 -33.888296 
L 422.028025 -33.696493 
L 422.790841 -33.49951 
L 423.553657 -33.297671 
L 424.316473 -33.091281 
L 425.079289 -32.880608 
L 425.842105 -32.665878 
L 426.604921 -32.447262 
L 427.367738 -32.224868 
L 428.130554 -31.998741 
L 428.89337 -31.768859 
L 429.656186 -31.535132 
L 430.419002 -31.297411 
L 431.181818 -31.055491 
L 431.944634 -30.809121 
L 432.70745 -30.558018 
L 433.470267 -30.301875 
L 434.233083 -30.04038 
L 434.995899 -29.773225 
L 435.758715 -29.500124 
L 436.521531 -29.220822 
L 437.284347 -28.935113 
L 438.047163 -28.642847 
L 438.809979 -28.343943 
L 439.572796 -28.038396 
L 440.335612 -27.726285 
L 441.098428 -27.407778 
L 441.861244 -27.083138 
L 442.62406 -26.752722 
L 443.386876 -26.416983 
L 444.149692 -26.07647 
L 444.912509 -25.731821 
L 445.675325 -25.383763 
L 446.438141 -25.033098 
L 447.200957 -24.6807 
L 447.963773 -24.327497 
L 448.726589 -23.974464 
L 449.489405 -23.622602 
L 450.252221 -23.272922 
L 451.015038 -22.926429 
L 451.777854 -22.584098 
L 452.54067 -22.246857 
L 453.303486 -21.915566 
L 454.066302 -21.590993 
L 454.829118 -21.2738 
L 455.591934 -20.964523 
L 456.354751 -20.663555 
L 457.117567 -20.371138 
L 457.880383 -20.08735 
L 458.643199 -19.812101 
L 459.406015 -19.545135 
L 460.168831 -19.286029 
L 460.931647 -19.034207 
L 461.694463 -18.788952 
L 462.45728 -18.549425 
L 463.220096 -18.314686 
L 463.982912 -18.083724 
L 464.745728 -17.855486 
L 465.508544 -17.62891 
L 466.27136 -17.402954 
L 467.034176 -17.176636 
L 467.796992 -16.949061 
L 468.559809 -16.719454 
L 469.322625 -16.48718 
L 470.085441 -16.251771 
L 470.848257 -16.012938 
L 471.611073 -15.770577 
L 472.373889 -15.524776 
L 473.136705 -15.275804 
L 473.899522 -15.024103 
L 474.662338 -14.770266 
L 475.425154 -14.515018 
L 476.18797 -14.25918 
L 476.950786 -14.003645 
L 477.713602 -13.749339 
L 478.476418 -13.497189 
L 479.239234 -13.24809 
L 480.002051 -13.00287 
L 480.764867 -12.762269 
L 481.527683 -12.52691 
L 482.290499 -12.297283 
L 483.053315 -12.073731 
L 483.816131 -11.856448 
L 484.578947 -11.645471 
L 485.341763 -11.440694 
L 486.10458 -11.241874 
L 486.867396 -11.048645 
L 487.630212 -10.860543 
L 488.393028 -10.677023 
L 489.155844 -10.497485 
L 489.91866 -10.321301 
L 490.681476 -10.147835 
L 491.444293 -9.97647 
L 492.207109 -9.806628 
L 492.969925 -9.637786 
L 493.732741 -9.469496 
L 494.495557 -9.301392 
L 495.258373 -9.133196 
L 496.021189 -8.964728 
L 496.784005 -8.795897 
L 497.546822 -8.626702 
L 498.309638 -8.457225 
L 499.072454 -8.287621 
L 499.83527 -8.118107 
L 500.598086 -7.948951 
L 501.360902 -7.780459 
L 502.123718 -7.612964 
L 502.886535 -7.446814 
L 503.649351 -7.282361 
L 504.412167 -7.119953 
L 505.174983 -6.959928 
L 505.937799 -6.802604 
L 506.700615 -6.648278 
L 507.463431 -6.497222 
L 508.226247 -6.349681 
L 508.989064 -6.205874 
L 509.75188 -6.06599 
L 510.514696 -5.930195 
L 511.277512 -5.798625 
L 512.040328 -5.671397 
L 512.803144 -5.548599 
L 513.56596 -5.430302 
L 514.328776 -5.316552 
L 515.091593 -5.207375 
L 515.854409 -5.10278 
L 516.617225 -5.002753 
L 517.380041 -4.907261 
L 518.142857 -4.816252 
L 518.905673 -4.729658 
L 519.668489 -4.647388 
L 520.431306 -4.569334 
L 521.194122 -4.495373 
L 521.956938 -4.425361 
L 522.719754 -4.35914 
L 523.48257 -4.296537 
L 524.245386 -4.237365 
L 525.008202 -4.181425 
L 525.771018 -4.128506 
L 526.533835 -4.07839 
L 527.296651 -4.030852 
L 528.059467 -3.985662 
L 528.822283 -3.942588 
L 529.585099 -3.9014 
L 530.347915 -3.86187 
L 531.110731 -3.823778 
L 531.873548 -3.786912 
L 532.636364 -3.751075 
L 532.636364 -2.470909 
L 532.636364 -2.470909 
L 531.873548 -2.470909 
L 531.110731 -2.470909 
L 530.347915 -2.470909 
L 529.585099 -2.470909 
L 528.822283 -2.470909 
L 528.059467 -2.470909 
L 527.296651 -2.470909 
L 526.533835 -2.470909 
L 525.771018 -2.470909 
L 525.008202 -2.470909 
L 524.245386 -2.470909 
L 523.48257 -2.470909 
L 522.719754 -2.470909 
L 521.956938 -2.470909 
L 521.194122 -2.470909 
L 520.431306 -2.470909 
L 519.668489 -2.470909 
L 518.905673 -2.470909 
L 518.142857 -2.470909 
L 517.380041 -2.470909 
L 516.617225 -2.470909 
L 515.854409 -2.470909 
L 515.091593 -2.470909 
L 514.328776 -2.470909 
L 513.56596 -2.470909 
L 512.803144 -2.470909 
L 512.040328 -2.470909 
L 511.277512 -2.470909 
L 510.514696 -2.470909 
L 509.75188 -2.470909 
L 508.989064 -2.470909 
L 508.226247 -2.470909 
L 507.463431 -2.470909 
L 506.700615 -2.470909 
L 505.937799 -2.470909 
L 505.174983 -2.470909 
L 504.412167 -2.470909 
L 503.649351 -2.470909 
L 502.886535 -2.470909 
L 502.123718 -2.470909 
L 501.360902 -2.470909 
L 500.598086 -2.470909 
L 499.83527 -2.470909 
L 499.072454 -2.470909 
L 498.309638 -2.470909 
L 497.546822 -2.470909 
L 496.784005 -2.470909 
L 496.021189 -2.470909 
L 495.258373 -2.470909 
L 494.495557 -2.470909 
L 493.732741 -2.470909 
L 492.969925 -2.470909 
L 492.207109 -2.470909 
L 491.444293 -2.470909 
L 490.681476 -2.470909 
L 489.91866 -2.470909 
L 489.155844 -2.470909 
L 488.393028 -2.470909 
L 487.630212 -2.470909 
L 486.867396 -2.470909 
L 486.10458 -2.470909 
L 485.341763 -2.470909 
L 484.578947 -2.470909 
L 483.816131 -2.470909 
L 483.053315 -2.470909 
L 482.290499 -2.470909 
L 481.527683 -2.470909 
L 480.764867 -2.470909 
L 480.002051 -2.470909 
L 479.239234 -2.470909 
L 478.476418 -2.470909 
L 477.713602 -2.470909 
L 476.950786 -2.470909 
L 476.18797 -2.470909 
L 475.425154 -2.470909 
L 474.662338 -2.470909 
L 473.899522 -2.470909 
L 473.136705 -2.470909 
L 472.373889 -2.470909 
L 471.611073 -2.470909 
L 470.848257 -2.470909 
L 470.085441 -2.470909 
L 469.322625 -2.470909 
L 468.559809 -2.470909 
L 467.796992 -2.470909 
L 467.034176 -2.470909 
L 466.27136 -2.470909 
L 465.508544 -2.470909 
L 464.745728 -2.470909 
L 463.982912 -2.470909 
L 463.220096 -2.470909 
L 462.45728 -2.470909 
L 461.694463 -2.470909 
L 460.931647 -2.470909 
L 460.168831 -2.470909 
L 459.406015 -2.470909 
L 458.643199 -2.470909 
L 457.880383 -2.470909 
L 457.117567 -2.470909 
L 456.354751 -2.470909 
L 455.591934 -2.470909 
L 454.829118 -2.470909 
L 454.066302 -2.470909 
L 453.303486 -2.470909 
L 452.54067 -2.470909 
L 451.777854 -2.470909 
L 451.015038 -2.470909 
L 450.252221 -2.470909 
L 449.489405 -2.470909 
L 448.726589 -2.470909 
L 447.963773 -2.470909 
L 447.200957 -2.470909 
L 446.438141 -2.470909 
L 445.675325 -2.470909 
L 444.912509 -2.470909 
L 444.149692 -2.470909 
L 443.386876 -2.470909 
L 442.62406 -2.470909 
L 441.861244 -2.470909 
L 441.098428 -2.470909 
L 440.335612 -2.470909 
L 439.572796 -2.470909 
L 438.809979 -2.470909 
L 438.047163 -2.470909 
L 437.284347 -2.470909 
L 436.521531 -2.470909 
L 435.758715 -2.470909 
L 434.995899 -2.470909 
L 434.233083 -2.470909 
L 433.470267 -2.470909 
L 432.70745 -2.470909 
L 431.944634 -2.470909 
L 431.181818 -2.470909 
L 430.419002 -2.470909 
L 429.656186 -2.470909 
L 428.89337 -2.470909 
L 428.130554 -2.470909 
L 427.367738 -2.470909 
L 426.604921 -2.470909 
L 425.842105 -2.470909 
L 425.079289 -2.470909 
L 424.316473 -2.470909 
L 423.553657 -2.470909 
L 422.790841 -2.470909 
L 422.028025 -2.470909 
L 421.265208 -2.470909 
L 420.502392 -2.470909 
L 419.739576 -2.470909 
L 418.97676 -2.470909 
L 418.213944 -2.470909 
L 417.451128 -2.470909 
L 416.688312 -2.470909 
L 415.925496 -2.470909 
L 415.162679 -2.470909 
L 414.399863 -2.470909 
L 413.637047 -2.470909 
L 412.874231 -2.470909 
L 412.111415 -2.470909 
L 411.348599 -2.470909 
L 410.585783 -2.470909 
L 409.822967 -2.470909 
L 409.06015 -2.470909 
L 408.297334 -2.470909 
L 407.534518 -2.470909 
L 406.771702 -2.470909 
L 406.008886 -2.470909 
L 405.24607 -2.470909 
L 404.483254 -2.470909 
L 403.720437 -2.470909 
L 402.957621 -2.470909 
L 402.194805 -2.470909 
L 401.431989 -2.470909 
L 400.669173 -2.470909 
L 399.906357 -2.470909 
L 399.143541 -2.470909 
L 398.380725 -2.470909 
L 397.617908 -2.470909 
L 396.855092 -2.470909 
L 396.092276 -2.470909 
L 395.32946 -2.470909 
L 394.566644 -2.470909 
L 393.803828 -2.470909 
L 393.041012 -2.470909 
L 392.278195 -2.470909 
L 391.515379 -2.470909 
L 390.752563 -2.470909 
L 389.989747 -2.470909 
L 389.226931 -2.470909 
L 388.464115 -2.470909 
L 387.701299 -2.470909 
L 386.938483 -2.470909 
L 386.175666 -2.470909 
L 385.41285 -2.470909 
L 384.650034 -2.470909 
L 383.887218 -2.470909 
L 383.124402 -2.470909 
L 382.361586 -2.470909 
L 381.59877 -2.470909 
L 380.835954 -2.470909 
L 380.073137 -2.470909 
L 379.310321 -2.470909 
L 378.547505 -2.470909 
L 377.784689 -2.470909 
L 377.021873 -2.470909 
L 376.259057 -2.470909 
L 375.496241 -2.470909 
L 374.733424 -2.470909 
L 373.970608 -2.470909 
L 373.207792 -2.470909 
L 372.444976 -2.470909 
L 371.68216 -2.470909 
L 370.919344 -2.470909 
L 370.156528 -2.470909 
L 369.393712 -2.470909 
L 368.630895 -2.470909 
L 367.868079 -2.470909 
L 367.105263 -2.470909 
L 366.342447 -2.470909 
L 365.579631 -2.470909 
L 364.816815 -2.470909 
L 364.053999 -2.470909 
L 363.291183 -2.470909 
L 362.528366 -2.470909 
L 361.76555 -2.470909 
L 361.002734 -2.470909 
L 360.239918 -2.470909 
L 359.477102 -2.470909 
L 358.714286 -2.470909 
L 357.95147 -2.470909 
L 357.188653 -2.470909 
L 356.425837 -2.470909 
L 355.663021 -2.470909 
L 354.900205 -2.470909 
L 354.137389 -2.470909 
L 353.374573 -2.470909 
L 352.611757 -2.470909 
L 351.848941 -2.470909 
L 351.086124 -2.470909 
L 350.323308 -2.470909 
L 349.560492 -2.470909 
L 348.797676 -2.470909 
L 348.03486 -2.470909 
L 347.272044 -2.470909 
L 346.509228 -2.470909 
L 345.746411 -2.470909 
L 344.983595 -2.470909 
L 344.220779 -2.470909 
L 343.457963 -2.470909 
L 342.695147 -2.470909 
L 341.932331 -2.470909 
L 341.169515 -2.470909 
L 340.406699 -2.470909 
L 339.643882 -2.470909 
L 338.881066 -2.470909 
L 338.11825 -2.470909 
L 337.355434 -2.470909 
L 336.592618 -2.470909 
L 335.829802 -2.470909 
L 335.066986 -2.470909 
L 334.30417 -2.470909 
L 333.541353 -2.470909 
L 332.778537 -2.470909 
L 332.015721 -2.470909 
L 331.252905 -2.470909 
L 330.490089 -2.470909 
L 329.727273 -2.470909 
L 328.964457 -2.470909 
L 328.20164 -2.470909 
L 327.438824 -2.470909 
L 326.676008 -2.470909 
L 325.913192 -2.470909 
L 325.150376 -2.470909 
L 324.38756 -2.470909 
L 323.624744 -2.470909 
L 322.861928 -2.470909 
L 322.099111 -2.470909 
L 321.336295 -2.470909 
L 320.573479 -2.470909 
L 319.810663 -2.470909 
L 319.047847 -2.470909 
L 318.285031 -2.470909 
L 317.522215 -2.470909 
L 316.759398 -2.470909 
L 315.996582 -2.470909 
L 315.233766 -2.470909 
L 314.47095 -2.470909 
L 313.708134 -2.470909 
L 312.945318 -2.470909 
L 312.182502 -2.470909 
L 311.419686 -2.470909 
L 310.656869 -2.470909 
L 309.894053 -2.470909 
L 309.131237 -2.470909 
L 308.368421 -2.470909 
L 307.605605 -2.470909 
L 306.842789 -2.470909 
L 306.079973 -2.470909 
L 305.317157 -2.470909 
L 304.55434 -2.470909 
L 303.791524 -2.470909 
L 303.028708 -2.470909 
L 302.265892 -2.470909 
L 301.503076 -2.470909 
L 300.74026 -2.470909 
L 299.977444 -2.470909 
L 299.214627 -2.470909 
L 298.451811 -2.470909 
L 297.688995 -2.470909 
L 296.926179 -2.470909 
L 296.163363 -2.470909 
L 295.400547 -2.470909 
L 294.637731 -2.470909 
L 293.874915 -2.470909 
L 293.112098 -2.470909 
L 292.349282 -2.470909 
L 291.586466 -2.470909 
L 290.82365 -2.470909 
L 290.060834 -2.470909 
L 289.298018 -2.470909 
L 288.535202 -2.470909 
L 287.772386 -2.470909 
L 287.009569 -2.470909 
L 286.246753 -2.470909 
L 285.483937 -2.470909 
L 284.721121 -2.470909 
L 283.958305 -2.470909 
L 283.195489 -2.470909 
L 282.432673 -2.470909 
L 281.669856 -2.470909 
L 280.90704 -2.470909 
L 280.144224 -2.470909 
L 279.381408 -2.470909 
L 278.618592 -2.470909 
L 277.855776 -2.470909 
L 277.09296 -2.470909 
L 276.330144 -2.470909 
L 275.567327 -2.470909 
L 274.804511 -2.470909 
L 274.041695 -2.470909 
L 273.278879 -2.470909 
L 272.516063 -2.470909 
L 271.753247 -2.470909 
L 270.990431 -2.470909 
L 270.227614 -2.470909 
L 269.464798 -2.470909 
L 268.701982 -2.470909 
L 267.939166 -2.470909 
L 267.17635 -2.470909 
L 266.413534 -2.470909 
L 265.650718 -2.470909 
L 264.887902 -2.470909 
L 264.125085 -2.470909 
L 263.362269 -2.470909 
L 262.599453 -2.470909 
L 261.836637 -2.470909 
L 261.073821 -2.470909 
L 260.311005 -2.470909 
L 259.548189 -2.470909 
L 258.785373 -2.470909 
L 258.022556 -2.470909 
L 257.25974 -2.470909 
L 256.496924 -2.470909 
L 255.734108 -2.470909 
L 254.971292 -2.470909 
L 254.208476 -2.470909 
L 253.44566 -2.470909 
L 252.682843 -2.470909 
z
" style="stroke: #116dc2; stroke-opacity: 0.2"/>
    </defs>
    <g clip-path="url(#p6bed651ce6)">
     <use xlink:href="#mfc108e847e" x="0" y="54.36" style="fill: #116dc2; fill-opacity: 0.2; stroke: #116dc2; stroke-opacity: 0.2"/>
    </g>
   </g>
   <g id="PolyCollection_3">
    <defs>
     <path id="mdc464a18eb" d="M 25.363636 -2.470909 
L 25.363636 -4.435665 
L 26.126452 -4.847166 
L 26.889269 -5.40378 
L 27.652085 -6.205886 
L 28.414901 -7.230535 
L 29.177717 -8.340468 
L 29.940533 -9.452624 
L 30.703349 -10.632565 
L 31.466165 -11.984823 
L 32.228982 -13.514882 
L 32.991798 -15.174145 
L 33.754614 -17.001988 
L 34.51743 -19.101676 
L 35.280246 -21.453589 
L 36.043062 -23.878457 
L 36.805878 -26.261944 
L 37.568694 -28.732072 
L 38.331511 -31.502919 
L 39.094327 -34.533468 
L 39.857143 -37.450297 
L 40.619959 -39.894338 
L 41.382775 -41.852774 
L 42.145591 -43.56342 
L 42.908407 -45.196521 
L 43.671224 -46.73383 
L 44.43404 -48.117439 
L 45.196856 -49.383006 
L 45.959672 -50.550892 
L 46.722488 -51.46596 
L 47.485304 -51.889091 
L 48.24812 -51.745803 
L 49.010936 -51.161705 
L 49.773753 -50.247643 
L 50.536569 -49.008403 
L 51.299385 -47.450778 
L 52.062201 -45.603284 
L 52.825017 -43.45703 
L 53.587833 -41.016875 
L 54.350649 -38.368049 
L 55.113465 -35.632808 
L 55.876282 -32.919567 
L 56.639098 -30.322472 
L 57.401914 -27.887678 
L 58.16473 -25.5793 
L 58.927546 -23.337671 
L 59.690362 -21.136333 
L 60.453178 -18.95868 
L 61.215995 -16.800497 
L 61.978811 -14.730673 
L 62.741627 -12.898345 
L 63.504443 -11.432636 
L 64.267259 -10.314175 
L 65.030075 -9.368577 
L 65.792891 -8.423251 
L 66.555707 -7.449731 
L 67.318524 -6.535611 
L 68.08134 -5.768922 
L 68.844156 -5.170423 
L 69.606972 -4.693335 
L 69.606972 -2.470909 
L 69.606972 -2.470909 
L 68.844156 -2.470909 
L 68.08134 -2.470909 
L 67.318524 -2.470909 
L 66.555707 -2.470909 
L 65.792891 -2.470909 
L 65.030075 -2.470909 
L 64.267259 -2.470909 
L 63.504443 -2.470909 
L 62.741627 -2.470909 
L 61.978811 -2.470909 
L 61.215995 -2.470909 
L 60.453178 -2.470909 
L 59.690362 -2.470909 
L 58.927546 -2.470909 
L 58.16473 -2.470909 
L 57.401914 -2.470909 
L 56.639098 -2.470909 
L 55.876282 -2.470909 
L 55.113465 -2.470909 
L 54.350649 -2.470909 
L 53.587833 -2.470909 
L 52.825017 -2.470909 
L 52.062201 -2.470909 
L 51.299385 -2.470909 
L 50.536569 -2.470909 
L 49.773753 -2.470909 
L 49.010936 -2.470909 
L 48.24812 -2.470909 
L 47.485304 -2.470909 
L 46.722488 -2.470909 
L 45.959672 -2.470909 
L 45.196856 -2.470909 
L 44.43404 -2.470909 
L 43.671224 -2.470909 
L 42.908407 -2.470909 
L 42.145591 -2.470909 
L 41.382775 -2.470909 
L 40.619959 -2.470909 
L 39.857143 -2.470909 
L 39.094327 -2.470909 
L 38.331511 -2.470909 
L 37.568694 -2.470909 
L 36.805878 -2.470909 
L 36.043062 -2.470909 
L 35.280246 -2.470909 
L 34.51743 -2.470909 
L 33.754614 -2.470909 
L 32.991798 -2.470909 
L 32.228982 -2.470909 
L 31.466165 -2.470909 
L 30.703349 -2.470909 
L 29.940533 -2.470909 
L 29.177717 -2.470909 
L 28.414901 -2.470909 
L 27.652085 -2.470909 
L 26.889269 -2.470909 
L 26.126452 -2.470909 
L 25.363636 -2.470909 
z
" style="stroke: #8a8a8a; stroke-opacity: 0.2"/>
    </defs>
    <g clip-path="url(#p6bed651ce6)">
     <use xlink:href="#mdc464a18eb" x="0" y="54.36" style="fill: #8a8a8a; fill-opacity: 0.2; stroke: #8a8a8a; stroke-opacity: 0.2"/>
    </g>
   </g>
   <g id="line2d_1">
    <path d="M 206.151059 50.476246 
L 213.016405 49.69986 
L 217.593301 48.975024 
L 221.407382 48.154579 
L 226.747095 46.735425 
L 242.766234 42.175252 
L 245.817498 40.975226 
L 249.631579 39.204968 
L 254.971292 36.395392 
L 270.990431 27.838996 
L 278.618592 23.92645 
L 286.246753 20.014606 
L 290.82365 17.69744 
L 293.112098 16.774107 
L 295.400547 16.126372 
L 297.688995 15.776441 
L 299.977444 15.672565 
L 303.791524 15.778873 
L 313.708134 16.319025 
L 319.047847 16.872761 
L 322.099111 17.355873 
L 325.150376 18.079594 
L 328.20164 19.064811 
L 332.778537 20.834483 
L 338.881066 23.414799 
L 342.695147 25.27623 
L 346.509228 27.425427 
L 352.611757 31.236156 
L 357.188653 33.989617 
L 361.002734 36.031605 
L 366.342447 38.6186 
L 371.68216 41.004659 
L 375.496241 42.453185 
L 379.310321 43.639549 
L 395.32946 48.027422 
L 399.143541 48.855487 
L 402.957621 49.449497 
L 409.06015 50.111121 
L 414.399863 50.561546 
L 414.399863 50.561546 
" clip-path="url(#p6bed651ce6)" style="fill: none; stroke: #cf1313; stroke-width: 1.5; stroke-linecap: square"/>
   </g>
   <g id="line2d_2">
    <path d="M 252.682843 50.546841 
L 260.311005 49.94138 
L 278.618592 48.162863 
L 283.195489 47.46694 
L 287.772386 46.507708 
L 293.874915 44.927931 
L 299.977444 43.381624 
L 306.079973 42.105637 
L 312.182502 40.822797 
L 315.996582 39.826264 
L 320.573479 38.382954 
L 327.438824 35.909302 
L 336.592618 32.388062 
L 348.797676 27.567347 
L 354.137389 25.806117 
L 371.68216 20.404196 
L 375.496241 19.621491 
L 379.310321 19.069908 
L 385.41285 18.463411 
L 393.041012 17.911062 
L 398.380725 17.759167 
L 402.957621 17.853306 
L 407.534518 18.153323 
L 412.111415 18.674226 
L 416.688312 19.447615 
L 421.265208 20.471704 
L 426.604921 21.912738 
L 432.70745 23.801982 
L 437.284347 25.424887 
L 441.861244 27.276862 
L 447.963773 30.032503 
L 454.066302 32.769007 
L 457.880383 34.27265 
L 462.45728 35.810575 
L 477.713602 40.610661 
L 483.053315 42.286269 
L 487.630212 43.499457 
L 495.258373 45.226804 
L 508.989064 48.154126 
L 514.328776 49.043448 
L 519.668489 49.712612 
L 525.771018 50.231494 
L 532.636364 50.608925 
L 532.636364 50.608925 
" clip-path="url(#p6bed651ce6)" style="fill: none; stroke: #116dc2; stroke-width: 1.5; stroke-linecap: square"/>
   </g>
   <g id="line2d_3">
    <path d="M 25.363636 49.924335 
L 26.126452 49.512834 
L 26.889269 48.95622 
L 27.652085 48.154114 
L 28.414901 47.129465 
L 29.177717 46.019532 
L 29.940533 44.907376 
L 30.703349 43.727435 
L 31.466165 42.375177 
L 32.228982 40.845118 
L 32.991798 39.185855 
L 33.754614 37.358012 
L 34.51743 35.258324 
L 35.280246 32.906411 
L 36.043062 30.481543 
L 36.805878 28.098056 
L 37.568694 25.627928 
L 38.331511 22.857081 
L 39.094327 19.826532 
L 39.857143 16.909703 
L 40.619959 14.465662 
L 41.382775 12.507226 
L 42.145591 10.79658 
L 42.908407 9.163479 
L 43.671224 7.62617 
L 44.43404 6.242561 
L 45.196856 4.976994 
L 45.959672 3.809108 
L 46.722488 2.89404 
L 47.485304 2.470909 
L 48.24812 2.614197 
L 49.010936 3.198295 
L 49.773753 4.112357 
L 50.536569 5.351597 
L 51.299385 6.909222 
L 52.062201 8.756716 
L 52.825017 10.90297 
L 53.587833 13.343125 
L 54.350649 15.991951 
L 55.113465 18.727192 
L 55.876282 21.440433 
L 56.639098 24.037528 
L 57.401914 26.472322 
L 58.16473 28.7807 
L 58.927546 31.022329 
L 59.690362 33.223667 
L 60.453178 35.40132 
L 61.215995 37.559503 
L 61.978811 39.629327 
L 62.741627 41.461655 
L 63.504443 42.927364 
L 64.267259 44.045825 
L 65.030075 44.991423 
L 65.792891 45.936749 
L 66.555707 46.910269 
L 67.318524 47.824389 
L 68.08134 48.591078 
L 68.844156 49.189577 
L 69.606972 49.666665 
" clip-path="url(#p6bed651ce6)" style="fill: none; stroke: #8a8a8a; stroke-width: 1.5; stroke-linecap: square"/>
   </g>
  </g>
 </g>
 <defs>
  <clipPath id="p6bed651ce6">
   <rect x="0" y="-0" width="558" height="54.36"/>
  </clipPath>
 </defs>
</svg>
