<?xml version="1.0" encoding="utf-8" standalone="no"?>
<!DOCTYPE svg PUBLIC "-//W3C//DTD SVG 1.1//EN"
  "http://www.w3.org/Graphics/SVG/1.1/DTD/svg11.dtd">
<svg xmlns:xlink="http://www.w3.org/1999/xlink" width="558pt" height="54.36pt" viewBox="0 0 558 54.36" xmlns="http://www.w3.org/2000/svg" version="1.1">
 <metadata>
  <rdf:RDF xmlns:dc="http://purl.org/dc/elements/1.1/" xmlns:cc="http://creativecommons.org/ns#" xmlns:rdf="http://www.w3.org/1999/02/22-rdf-syntax-ns#">
   <cc:Work>
    <dc:type rdf:resource="http://purl.org/dc/dcmitype/StillImage"/>
    <dc:date>2024-09-14T12:47:46.168950</dc:date>
    <dc:format>image/svg+xml</dc:format>
    <dc:creator>
     <cc:Agent>
      <dc:title>Matplotlib v3.5.2, https://matplotlib.org/</dc:title>
     </cc:Agent>
    </dc:creator>
   </cc:Work>
  </rdf:RDF>
 </metadata>
 <defs>
  <style type="text/css">*{stroke-linejoin: round; stroke-linecap: butt}</style>
 </defs>
 <g id="figure_1">
  <g id="patch_1">
   <path d="M 0 54.36 
L 558 54.36 
L 558 0 
L 0 0 
L 0 54.36 
z
" style="fill: none; opacity: 0"/>
  </g>
  <g id="axes_1">
   <g id="PolyCollection_1">
    <defs>
     <path id="m590f3a23e0" d="M 201.309582 -2.470909 
L 201.309582 -3.846311 
L 202.071253 -3.895115 
L 202.832924 -3.946272 
L 203.594595 -4.000437 
L 204.356265 -4.058242 
L 205.117936 -4.120264 
L 205.879607 -4.186993 
L 206.641278 -4.258809 
L 207.402948 -4.33597 
L 208.164619 -4.418599 
L 208.92629 -4.506685 
L 209.687961 -4.600095 
L 210.449631 -4.698588 
L 211.211302 -4.801835 
L 211.972973 -4.909452 
L 212.734644 -5.021024 
L 213.496314 -5.136143 
L 214.257985 -5.25443 
L 215.019656 -5.375564 
L 215.781327 -5.499304 
L 216.542998 -5.625495 
L 217.304668 -5.754077 
L 218.066339 -5.885076 
L 218.82801 -6.018588 
L 219.589681 -6.154759 
L 220.351351 -6.293751 
L 221.113022 -6.435713 
L 221.874693 -6.580751 
L 222.636364 -6.728893 
L 223.398034 -6.880078 
L 224.159705 -7.034145 
L 224.921376 -7.190836 
L 225.683047 -7.349823 
L 226.444717 -7.510736 
L 227.206388 -7.673217 
L 227.968059 -7.836971 
L 228.72973 -8.001831 
L 229.4914 -8.167808 
L 230.253071 -8.33515 
L 231.014742 -8.50437 
L 231.776413 -8.676267 
L 232.538084 -8.851926 
L 233.299754 -9.032685 
L 234.061425 -9.220091 
L 234.823096 -9.415834 
L 235.584767 -9.62166 
L 236.346437 -9.839281 
L 237.108108 -10.07028 
L 237.869779 -10.316012 
L 238.63145 -10.577525 
L 239.39312 -10.855485 
L 240.154791 -11.150128 
L 240.916462 -11.461223 
L 241.678133 -11.788072 
L 242.439803 -12.129522 
L 243.201474 -12.48401 
L 243.963145 -12.849627 
L 244.724816 -13.224199 
L 245.486486 -13.605396 
L 246.248157 -13.99084 
L 247.009828 -14.378232 
L 247.771499 -14.765476 
L 248.53317 -15.150798 
L 249.29484 -15.532854 
L 250.056511 -15.910817 
L 250.818182 -16.284439 
L 251.579853 -16.654078 
L 252.341523 -17.020684 
L 253.103194 -17.385759 
L 253.864865 -17.751262 
L 254.626536 -18.119494 
L 255.388206 -18.492949 
L 256.149877 -18.874151 
L 256.911548 -19.265484 
L 257.673219 -19.669033 
L 258.434889 -20.086441 
L 259.19656 -20.518797 
L 259.958231 -20.96656 
L 260.719902 -21.42953 
L 261.481572 -21.906853 
L 262.243243 -22.397072 
L 263.004914 -22.898213 
L 263.766585 -23.407894 
L 264.528256 -23.923443 
L 265.289926 -24.442041 
L 266.051597 -24.960841 
L 266.813268 -25.477092 
L 267.574939 -25.988243 
L 268.336609 -26.492026 
L 269.09828 -26.986523 
L 269.859951 -27.470207 
L 270.621622 -27.941969 
L 271.383292 -28.401123 
L 272.144963 -28.847387 
L 272.906634 -29.280862 
L 273.668305 -29.701976 
L 274.429975 -30.111434 
L 275.191646 -30.510139 
L 275.953317 -30.899115 
L 276.714988 -31.279418 
L 277.476658 -31.652055 
L 278.238329 -32.017899 
L 279 -32.377624 
L 279.761671 -32.731645 
L 280.523342 -33.080091 
L 281.285012 -33.422786 
L 282.046683 -33.759263 
L 282.808354 -34.088793 
L 283.570025 -34.410431 
L 284.331695 -34.72308 
L 285.093366 -35.025555 
L 285.855037 -35.316656 
L 286.616708 -35.595234 
L 287.378378 -35.860248 
L 288.140049 -36.110817 
L 288.90172 -36.346258 
L 289.663391 -36.566105 
L 290.425061 -36.770126 
L 291.186732 -36.958322 
L 291.948403 -37.130913 
L 292.710074 -37.288327 
L 293.471744 -37.431173 
L 294.233415 -37.560214 
L 294.995086 -37.676337 
L 295.756757 -37.780522 
L 296.518428 -37.873818 
L 297.280098 -37.957308 
L 298.041769 -38.032092 
L 298.80344 -38.099261 
L 299.565111 -38.159881 
L 300.326781 -38.214969 
L 301.088452 -38.265482 
L 301.850123 -38.312287 
L 302.611794 -38.356144 
L 303.373464 -38.397678 
L 304.135135 -38.437344 
L 304.896806 -38.475397 
L 305.658477 -38.511863 
L 306.420147 -38.546515 
L 307.181818 -38.578858 
L 307.943489 -38.608134 
L 308.70516 -38.63334 
L 309.46683 -38.653274 
L 310.228501 -38.666598 
L 310.990172 -38.671915 
L 311.751843 -38.667864 
L 312.513514 -38.653216 
L 313.275184 -38.626959 
L 314.036855 -38.588375 
L 314.798526 -38.537088 
L 315.560197 -38.473081 
L 316.321867 -38.396684 
L 317.083538 -38.308522 
L 317.845209 -38.209438 
L 318.60688 -38.100392 
L 319.36855 -37.982348 
L 320.130221 -37.856159 
L 320.891892 -37.722458 
L 321.653563 -37.581577 
L 322.415233 -37.433479 
L 323.176904 -37.27774 
L 323.938575 -37.113547 
L 324.700246 -36.939741 
L 325.461916 -36.754886 
L 326.223587 -36.557358 
L 326.985258 -36.345453 
L 327.746929 -36.117503 
L 328.5086 -35.871983 
L 329.27027 -35.607621 
L 330.031941 -35.323481 
L 330.793612 -35.019036 
L 331.555283 -34.694216 
L 332.316953 -34.349425 
L 333.078624 -33.985547 
L 333.840295 -33.603923 
L 334.601966 -33.206309 
L 335.363636 -32.794818 
L 336.125307 -32.371853 
L 336.886978 -31.940025 
L 337.648649 -31.502071 
L 338.410319 -31.060761 
L 339.17199 -30.618809 
L 339.933661 -30.178789 
L 340.695332 -29.743058 
L 341.457002 -29.313682 
L 342.218673 -28.892388 
L 342.980344 -28.480521 
L 343.742015 -28.079036 
L 344.503686 -27.688496 
L 345.265356 -27.309099 
L 346.027027 -26.940719 
L 346.788698 -26.582967 
L 347.550369 -26.235247 
L 348.312039 -25.896822 
L 349.07371 -25.56687 
L 349.835381 -25.244523 
L 350.597052 -24.928896 
L 351.358722 -24.619085 
L 352.120393 -24.314158 
L 352.882064 -24.013121 
L 353.643735 -23.714884 
L 354.405405 -23.418221 
L 355.167076 -23.121739 
L 355.928747 -22.823867 
L 356.690418 -22.52286 
L 357.452088 -22.216838 
L 358.213759 -21.903843 
L 358.97543 -21.581926 
L 359.737101 -21.249247 
L 360.498771 -20.904188 
L 361.260442 -20.545465 
L 362.022113 -20.172228 
L 362.783784 -19.784143 
L 363.545455 -19.381456 
L 364.307125 -18.965012 
L 365.068796 -18.536252 
L 365.830467 -18.097173 
L 366.592138 -17.65026 
L 367.353808 -17.19839 
L 368.115479 -16.744721 
L 368.87715 -16.292563 
L 369.638821 -15.845248 
L 370.400491 -15.405999 
L 371.162162 -14.977805 
L 371.923833 -14.563312 
L 372.685504 -14.164723 
L 373.447174 -13.783725 
L 374.208845 -13.42144 
L 374.970516 -13.078392 
L 375.732187 -12.754511 
L 376.493857 -12.449159 
L 377.255528 -12.161183 
L 378.017199 -11.888988 
L 378.77887 -11.630637 
L 379.540541 -11.383957 
L 380.302211 -11.146662 
L 381.063882 -10.91647 
L 381.825553 -10.69122 
L 382.587224 -10.468971 
L 383.348894 -10.24809 
L 384.110565 -10.027311 
L 384.872236 -9.805771 
L 385.633907 -9.583018 
L 386.395577 -9.358995 
L 387.157248 -9.134006 
L 387.918919 -8.908654 
L 388.68059 -8.683774 
L 389.44226 -8.460359 
L 390.203931 -8.239478 
L 390.965602 -8.022206 
L 391.727273 -7.809554 
L 392.488943 -7.602414 
L 393.250614 -7.401524 
L 394.012285 -7.207434 
L 394.773956 -7.020507 
L 395.535627 -6.840912 
L 396.297297 -6.66865 
L 397.058968 -6.503577 
L 397.820639 -6.345436 
L 398.58231 -6.193893 
L 399.34398 -6.048575 
L 400.105651 -5.909092 
L 400.867322 -5.775067 
L 401.628993 -5.646147 
L 402.390663 -5.522012 
L 403.152334 -5.402367 
L 403.914005 -5.286941 
L 404.675676 -5.175469 
L 405.437346 -5.067682 
L 406.199017 -4.963296 
L 406.960688 -4.862008 
L 407.722359 -4.763491 
L 408.484029 -4.667407 
L 409.2457 -4.573422 
L 410.007371 -4.48122 
L 410.769042 -4.390528 
L 411.530713 -4.301142 
L 412.292383 -4.212934 
L 412.292383 -2.470909 
L 412.292383 -2.470909 
L 411.530713 -2.470909 
L 410.769042 -2.470909 
L 410.007371 -2.470909 
L 409.2457 -2.470909 
L 408.484029 -2.470909 
L 407.722359 -2.470909 
L 406.960688 -2.470909 
L 406.199017 -2.470909 
L 405.437346 -2.470909 
L 404.675676 -2.470909 
L 403.914005 -2.470909 
L 403.152334 -2.470909 
L 402.390663 -2.470909 
L 401.628993 -2.470909 
L 400.867322 -2.470909 
L 400.105651 -2.470909 
L 399.34398 -2.470909 
L 398.58231 -2.470909 
L 397.820639 -2.470909 
L 397.058968 -2.470909 
L 396.297297 -2.470909 
L 395.535627 -2.470909 
L 394.773956 -2.470909 
L 394.012285 -2.470909 
L 393.250614 -2.470909 
L 392.488943 -2.470909 
L 391.727273 -2.470909 
L 390.965602 -2.470909 
L 390.203931 -2.470909 
L 389.44226 -2.470909 
L 388.68059 -2.470909 
L 387.918919 -2.470909 
L 387.157248 -2.470909 
L 386.395577 -2.470909 
L 385.633907 -2.470909 
L 384.872236 -2.470909 
L 384.110565 -2.470909 
L 383.348894 -2.470909 
L 382.587224 -2.470909 
L 381.825553 -2.470909 
L 381.063882 -2.470909 
L 380.302211 -2.470909 
L 379.540541 -2.470909 
L 378.77887 -2.470909 
L 378.017199 -2.470909 
L 377.255528 -2.470909 
L 376.493857 -2.470909 
L 375.732187 -2.470909 
L 374.970516 -2.470909 
L 374.208845 -2.470909 
L 373.447174 -2.470909 
L 372.685504 -2.470909 
L 371.923833 -2.470909 
L 371.162162 -2.470909 
L 370.400491 -2.470909 
L 369.638821 -2.470909 
L 368.87715 -2.470909 
L 368.115479 -2.470909 
L 367.353808 -2.470909 
L 366.592138 -2.470909 
L 365.830467 -2.470909 
L 365.068796 -2.470909 
L 364.307125 -2.470909 
L 363.545455 -2.470909 
L 362.783784 -2.470909 
L 362.022113 -2.470909 
L 361.260442 -2.470909 
L 360.498771 -2.470909 
L 359.737101 -2.470909 
L 358.97543 -2.470909 
L 358.213759 -2.470909 
L 357.452088 -2.470909 
L 356.690418 -2.470909 
L 355.928747 -2.470909 
L 355.167076 -2.470909 
L 354.405405 -2.470909 
L 353.643735 -2.470909 
L 352.882064 -2.470909 
L 352.120393 -2.470909 
L 351.358722 -2.470909 
L 350.597052 -2.470909 
L 349.835381 -2.470909 
L 349.07371 -2.470909 
L 348.312039 -2.470909 
L 347.550369 -2.470909 
L 346.788698 -2.470909 
L 346.027027 -2.470909 
L 345.265356 -2.470909 
L 344.503686 -2.470909 
L 343.742015 -2.470909 
L 342.980344 -2.470909 
L 342.218673 -2.470909 
L 341.457002 -2.470909 
L 340.695332 -2.470909 
L 339.933661 -2.470909 
L 339.17199 -2.470909 
L 338.410319 -2.470909 
L 337.648649 -2.470909 
L 336.886978 -2.470909 
L 336.125307 -2.470909 
L 335.363636 -2.470909 
L 334.601966 -2.470909 
L 333.840295 -2.470909 
L 333.078624 -2.470909 
L 332.316953 -2.470909 
L 331.555283 -2.470909 
L 330.793612 -2.470909 
L 330.031941 -2.470909 
L 329.27027 -2.470909 
L 328.5086 -2.470909 
L 327.746929 -2.470909 
L 326.985258 -2.470909 
L 326.223587 -2.470909 
L 325.461916 -2.470909 
L 324.700246 -2.470909 
L 323.938575 -2.470909 
L 323.176904 -2.470909 
L 322.415233 -2.470909 
L 321.653563 -2.470909 
L 320.891892 -2.470909 
L 320.130221 -2.470909 
L 319.36855 -2.470909 
L 318.60688 -2.470909 
L 317.845209 -2.470909 
L 317.083538 -2.470909 
L 316.321867 -2.470909 
L 315.560197 -2.470909 
L 314.798526 -2.470909 
L 314.036855 -2.470909 
L 313.275184 -2.470909 
L 312.513514 -2.470909 
L 311.751843 -2.470909 
L 310.990172 -2.470909 
L 310.228501 -2.470909 
L 309.46683 -2.470909 
L 308.70516 -2.470909 
L 307.943489 -2.470909 
L 307.181818 -2.470909 
L 306.420147 -2.470909 
L 305.658477 -2.470909 
L 304.896806 -2.470909 
L 304.135135 -2.470909 
L 303.373464 -2.470909 
L 302.611794 -2.470909 
L 301.850123 -2.470909 
L 301.088452 -2.470909 
L 300.326781 -2.470909 
L 299.565111 -2.470909 
L 298.80344 -2.470909 
L 298.041769 -2.470909 
L 297.280098 -2.470909 
L 296.518428 -2.470909 
L 295.756757 -2.470909 
L 294.995086 -2.470909 
L 294.233415 -2.470909 
L 293.471744 -2.470909 
L 292.710074 -2.470909 
L 291.948403 -2.470909 
L 291.186732 -2.470909 
L 290.425061 -2.470909 
L 289.663391 -2.470909 
L 288.90172 -2.470909 
L 288.140049 -2.470909 
L 287.378378 -2.470909 
L 286.616708 -2.470909 
L 285.855037 -2.470909 
L 285.093366 -2.470909 
L 284.331695 -2.470909 
L 283.570025 -2.470909 
L 282.808354 -2.470909 
L 282.046683 -2.470909 
L 281.285012 -2.470909 
L 280.523342 -2.470909 
L 279.761671 -2.470909 
L 279 -2.470909 
L 278.238329 -2.470909 
L 277.476658 -2.470909 
L 276.714988 -2.470909 
L 275.953317 -2.470909 
L 275.191646 -2.470909 
L 274.429975 -2.470909 
L 273.668305 -2.470909 
L 272.906634 -2.470909 
L 272.144963 -2.470909 
L 271.383292 -2.470909 
L 270.621622 -2.470909 
L 269.859951 -2.470909 
L 269.09828 -2.470909 
L 268.336609 -2.470909 
L 267.574939 -2.470909 
L 266.813268 -2.470909 
L 266.051597 -2.470909 
L 265.289926 -2.470909 
L 264.528256 -2.470909 
L 263.766585 -2.470909 
L 263.004914 -2.470909 
L 262.243243 -2.470909 
L 261.481572 -2.470909 
L 260.719902 -2.470909 
L 259.958231 -2.470909 
L 259.19656 -2.470909 
L 258.434889 -2.470909 
L 257.673219 -2.470909 
L 256.911548 -2.470909 
L 256.149877 -2.470909 
L 255.388206 -2.470909 
L 254.626536 -2.470909 
L 253.864865 -2.470909 
L 253.103194 -2.470909 
L 252.341523 -2.470909 
L 251.579853 -2.470909 
L 250.818182 -2.470909 
L 250.056511 -2.470909 
L 249.29484 -2.470909 
L 248.53317 -2.470909 
L 247.771499 -2.470909 
L 247.009828 -2.470909 
L 246.248157 -2.470909 
L 245.486486 -2.470909 
L 244.724816 -2.470909 
L 243.963145 -2.470909 
L 243.201474 -2.470909 
L 242.439803 -2.470909 
L 241.678133 -2.470909 
L 240.916462 -2.470909 
L 240.154791 -2.470909 
L 239.39312 -2.470909 
L 238.63145 -2.470909 
L 237.869779 -2.470909 
L 237.108108 -2.470909 
L 236.346437 -2.470909 
L 235.584767 -2.470909 
L 234.823096 -2.470909 
L 234.061425 -2.470909 
L 233.299754 -2.470909 
L 232.538084 -2.470909 
L 231.776413 -2.470909 
L 231.014742 -2.470909 
L 230.253071 -2.470909 
L 229.4914 -2.470909 
L 228.72973 -2.470909 
L 227.968059 -2.470909 
L 227.206388 -2.470909 
L 226.444717 -2.470909 
L 225.683047 -2.470909 
L 224.921376 -2.470909 
L 224.159705 -2.470909 
L 223.398034 -2.470909 
L 222.636364 -2.470909 
L 221.874693 -2.470909 
L 221.113022 -2.470909 
L 220.351351 -2.470909 
L 219.589681 -2.470909 
L 218.82801 -2.470909 
L 218.066339 -2.470909 
L 217.304668 -2.470909 
L 216.542998 -2.470909 
L 215.781327 -2.470909 
L 215.019656 -2.470909 
L 214.257985 -2.470909 
L 213.496314 -2.470909 
L 212.734644 -2.470909 
L 211.972973 -2.470909 
L 211.211302 -2.470909 
L 210.449631 -2.470909 
L 209.687961 -2.470909 
L 208.92629 -2.470909 
L 208.164619 -2.470909 
L 207.402948 -2.470909 
L 206.641278 -2.470909 
L 205.879607 -2.470909 
L 205.117936 -2.470909 
L 204.356265 -2.470909 
L 203.594595 -2.470909 
L 202.832924 -2.470909 
L 202.071253 -2.470909 
L 201.309582 -2.470909 
z
" style="stroke: #cf1313; stroke-opacity: 0.2"/>
    </defs>
    <g clip-path="url(#pb4ab271165)">
     <use xlink:href="#m590f3a23e0" x="0" y="54.36" style="fill: #cf1313; fill-opacity: 0.2; stroke: #cf1313; stroke-opacity: 0.2"/>
    </g>
   </g>
   <g id="PolyCollection_2">
    <defs>
     <path id="m49b8e991a2" d="M 258.434889 -2.470909 
L 258.434889 -4.016174 
L 259.19656 -4.082059 
L 259.958231 -4.149201 
L 260.719902 -4.217637 
L 261.481572 -4.287441 
L 262.243243 -4.358713 
L 263.004914 -4.431579 
L 263.766585 -4.506181 
L 264.528256 -4.582665 
L 265.289926 -4.661176 
L 266.051597 -4.741845 
L 266.813268 -4.824786 
L 267.574939 -4.910082 
L 268.336609 -4.997785 
L 269.09828 -5.08791 
L 269.859951 -5.180436 
L 270.621622 -5.275307 
L 271.383292 -5.372438 
L 272.144963 -5.471718 
L 272.906634 -5.573022 
L 273.668305 -5.676218 
L 274.429975 -5.781178 
L 275.191646 -5.887786 
L 275.953317 -5.99595 
L 276.714988 -6.105604 
L 277.476658 -6.216719 
L 278.238329 -6.329301 
L 279 -6.443395 
L 279.761671 -6.559078 
L 280.523342 -6.676457 
L 281.285012 -6.795662 
L 282.046683 -6.916832 
L 282.808354 -7.040112 
L 283.570025 -7.165636 
L 284.331695 -7.293519 
L 285.093366 -7.423851 
L 285.855037 -7.556684 
L 286.616708 -7.69203 
L 287.378378 -7.829861 
L 288.140049 -7.970103 
L 288.90172 -8.112645 
L 289.663391 -8.257341 
L 290.425061 -8.40402 
L 291.186732 -8.55249 
L 291.948403 -8.702557 
L 292.710074 -8.854025 
L 293.471744 -9.006712 
L 294.233415 -9.160457 
L 294.995086 -9.315124 
L 295.756757 -9.47061 
L 296.518428 -9.626844 
L 297.280098 -9.783787 
L 298.041769 -9.941432 
L 298.80344 -10.099798 
L 299.565111 -10.258923 
L 300.326781 -10.418863 
L 301.088452 -10.579679 
L 301.850123 -10.741435 
L 302.611794 -10.904193 
L 303.373464 -11.068009 
L 304.135135 -11.232929 
L 304.896806 -11.398995 
L 305.658477 -11.566237 
L 306.420147 -11.734685 
L 307.181818 -11.904368 
L 307.943489 -12.075318 
L 308.70516 -12.247581 
L 309.46683 -12.421214 
L 310.228501 -12.596294 
L 310.990172 -12.772921 
L 311.751843 -12.951215 
L 312.513514 -13.131322 
L 313.275184 -13.313412 
L 314.036855 -13.497671 
L 314.798526 -13.684307 
L 315.560197 -13.873539 
L 316.321867 -14.065598 
L 317.083538 -14.26072 
L 317.845209 -14.459145 
L 318.60688 -14.661116 
L 319.36855 -14.866878 
L 320.130221 -15.076676 
L 320.891892 -15.290759 
L 321.653563 -15.509384 
L 322.415233 -15.732816 
L 323.176904 -15.961328 
L 323.938575 -16.195213 
L 324.700246 -16.434773 
L 325.461916 -16.680328 
L 326.223587 -16.932205 
L 326.985258 -17.190738 
L 327.746929 -17.456254 
L 328.5086 -17.729068 
L 329.27027 -18.009459 
L 330.031941 -18.297663 
L 330.793612 -18.59385 
L 331.555283 -18.898103 
L 332.316953 -19.210406 
L 333.078624 -19.530622 
L 333.840295 -19.858479 
L 334.601966 -20.193562 
L 335.363636 -20.535306 
L 336.125307 -20.882993 
L 336.886978 -21.235761 
L 337.648649 -21.592614 
L 338.410319 -21.952441 
L 339.17199 -22.314037 
L 339.933661 -22.676132 
L 340.695332 -23.037427 
L 341.457002 -23.396624 
L 342.218673 -23.752462 
L 342.980344 -24.103759 
L 343.742015 -24.449435 
L 344.503686 -24.78855 
L 345.265356 -25.120327 
L 346.027027 -25.444167 
L 346.788698 -25.759666 
L 347.550369 -26.066614 
L 348.312039 -26.364998 
L 349.07371 -26.654986 
L 349.835381 -26.936914 
L 350.597052 -27.211262 
L 351.358722 -27.478624 
L 352.120393 -27.739679 
L 352.882064 -27.995158 
L 353.643735 -28.24581 
L 354.405405 -28.492367 
L 355.167076 -28.735512 
L 355.928747 -28.975858 
L 356.690418 -29.213913 
L 357.452088 -29.450071 
L 358.213759 -29.684594 
L 358.97543 -29.917602 
L 359.737101 -30.149078 
L 360.498771 -30.378864 
L 361.260442 -30.606678 
L 362.022113 -30.832122 
L 362.783784 -31.054706 
L 363.545455 -31.273868 
L 364.307125 -31.488998 
L 365.068796 -31.699469 
L 365.830467 -31.904662 
L 366.592138 -32.103996 
L 367.353808 -32.296953 
L 368.115479 -32.483102 
L 368.87715 -32.662122 
L 369.638821 -32.833818 
L 370.400491 -32.998135 
L 371.162162 -33.15516 
L 371.923833 -33.305131 
L 372.685504 -33.448425 
L 373.447174 -33.585555 
L 374.208845 -33.717147 
L 374.970516 -33.843928 
L 375.732187 -33.966694 
L 376.493857 -34.08629 
L 377.255528 -34.203576 
L 378.017199 -34.319399 
L 378.77887 -34.43456 
L 379.540541 -34.549793 
L 380.302211 -34.66573 
L 381.063882 -34.782883 
L 381.825553 -34.901625 
L 382.587224 -35.022171 
L 383.348894 -35.144575 
L 384.110565 -35.26872 
L 384.872236 -35.394323 
L 385.633907 -35.520935 
L 386.395577 -35.64796 
L 387.157248 -35.774661 
L 387.918919 -35.900188 
L 388.68059 -36.023594 
L 389.44226 -36.143863 
L 390.203931 -36.259936 
L 390.965602 -36.370739 
L 391.727273 -36.475213 
L 392.488943 -36.572336 
L 393.250614 -36.661151 
L 394.012285 -36.740788 
L 394.773956 -36.810481 
L 395.535627 -36.869579 
L 396.297297 -36.91756 
L 397.058968 -36.954028 
L 397.820639 -36.978714 
L 398.58231 -36.99147 
L 399.34398 -36.992254 
L 400.105651 -36.981117 
L 400.867322 -36.958182 
L 401.628993 -36.923629 
L 402.390663 -36.877673 
L 403.152334 -36.820545 
L 403.914005 -36.752478 
L 404.675676 -36.673692 
L 405.437346 -36.584389 
L 406.199017 -36.484751 
L 406.960688 -36.374938 
L 407.722359 -36.255099 
L 408.484029 -36.12538 
L 409.2457 -35.985941 
L 410.007371 -35.836971 
L 410.769042 -35.678706 
L 411.530713 -35.511446 
L 412.292383 -35.335567 
L 413.054054 -35.151531 
L 413.815725 -34.959895 
L 414.577396 -34.761308 
L 415.339066 -34.556502 
L 416.100737 -34.346285 
L 416.862408 -34.131517 
L 417.624079 -33.913088 
L 418.385749 -33.691892 
L 419.14742 -33.468797 
L 419.909091 -33.244612 
L 420.670762 -33.020058 
L 421.432432 -32.795745 
L 422.194103 -32.572143 
L 422.955774 -32.349571 
L 423.717445 -32.128182 
L 424.479115 -31.907965 
L 425.240786 -31.688744 
L 426.002457 -31.470193 
L 426.764128 -31.251852 
L 427.525799 -31.033151 
L 428.287469 -30.813441 
L 429.04914 -30.59202 
L 429.810811 -30.368168 
L 430.572482 -30.141182 
L 431.334152 -29.910399 
L 432.095823 -29.675234 
L 432.857494 -29.435196 
L 433.619165 -29.189912 
L 434.380835 -28.939138 
L 435.142506 -28.682773 
L 435.904177 -28.420856 
L 436.665848 -28.153569 
L 437.427518 -27.881226 
L 438.189189 -27.604267 
L 438.95086 -27.323237 
L 439.712531 -27.038774 
L 440.474201 -26.751586 
L 441.235872 -26.462429 
L 441.997543 -26.172088 
L 442.759214 -25.881355 
L 443.520885 -25.591007 
L 444.282555 -25.301787 
L 445.044226 -25.014387 
L 445.805897 -24.729434 
L 446.567568 -24.447476 
L 447.329238 -24.168971 
L 448.090909 -23.894281 
L 448.85258 -23.623669 
L 449.614251 -23.357294 
L 450.375921 -23.095212 
L 451.137592 -22.837379 
L 451.899263 -22.583652 
L 452.660934 -22.333799 
L 453.422604 -22.087501 
L 454.184275 -21.84436 
L 454.945946 -21.603907 
L 455.707617 -21.365612 
L 456.469287 -21.128887 
L 457.230958 -20.893104 
L 457.992629 -20.657597 
L 458.7543 -20.421677 
L 459.515971 -20.184646 
L 460.277641 -19.945804 
L 461.039312 -19.704472 
L 461.800983 -19.459999 
L 462.562654 -19.211788 
L 463.324324 -18.959306 
L 464.085995 -18.702111 
L 464.847666 -18.439863 
L 465.609337 -18.172346 
L 466.371007 -17.89948 
L 467.132678 -17.62134 
L 467.894349 -17.338159 
L 468.65602 -17.050339 
L 469.41769 -16.758446 
L 470.179361 -16.463206 
L 470.941032 -16.165498 
L 471.702703 -15.866326 
L 472.464373 -15.566808 
L 473.226044 -15.268137 
L 473.987715 -14.971553 
L 474.749386 -14.678309 
L 475.511057 -14.389628 
L 476.272727 -14.10667 
L 477.034398 -13.830495 
L 477.796069 -13.562026 
L 478.55774 -13.302026 
L 479.31941 -13.051069 
L 480.081081 -12.809527 
L 480.842752 -12.57756 
L 481.604423 -12.355117 
L 482.366093 -12.141936 
L 483.127764 -11.937567 
L 483.889435 -11.741386 
L 484.651106 -11.552629 
L 485.412776 -11.370414 
L 486.174447 -11.193784 
L 486.936118 -11.021741 
L 487.697789 -10.85328 
L 488.459459 -10.687426 
L 489.22113 -10.523268 
L 489.982801 -10.359983 
L 490.744472 -10.196862 
L 491.506143 -10.033328 
L 492.267813 -9.868944 
L 493.029484 -9.703422 
L 493.791155 -9.536621 
L 494.552826 -9.368538 
L 495.314496 -9.199302 
L 496.076167 -9.029156 
L 496.837838 -8.858438 
L 497.599509 -8.687564 
L 498.361179 -8.517006 
L 499.12285 -8.347271 
L 499.884521 -8.178882 
L 500.646192 -8.012362 
L 501.407862 -7.848217 
L 502.169533 -7.686923 
L 502.931204 -7.528919 
L 503.692875 -7.374597 
L 504.454545 -7.224298 
L 505.216216 -7.078314 
L 505.977887 -6.936885 
L 506.739558 -6.800199 
L 507.501229 -6.6684 
L 508.262899 -6.541587 
L 509.02457 -6.419817 
L 509.786241 -6.303111 
L 510.547912 -6.191457 
L 511.309582 -6.084806 
L 512.071253 -5.983081 
L 512.832924 -5.886174 
L 513.594595 -5.793946 
L 514.356265 -5.706226 
L 515.117936 -5.622816 
L 515.879607 -5.543482 
L 516.641278 -5.467964 
L 517.402948 -5.39597 
L 518.164619 -5.327182 
L 518.92629 -5.261257 
L 519.687961 -5.197831 
L 520.449631 -5.136523 
L 521.211302 -5.076944 
L 521.972973 -5.018701 
L 522.734644 -4.961408 
L 523.496314 -4.904688 
L 524.257985 -4.848189 
L 525.019656 -4.791585 
L 525.781327 -4.73459 
L 526.542998 -4.676959 
L 527.304668 -4.618501 
L 528.066339 -4.559078 
L 528.82801 -4.49861 
L 529.589681 -4.437078 
L 530.351351 -4.374522 
L 531.113022 -4.311041 
L 531.874693 -4.246788 
L 532.636364 -4.181964 
L 532.636364 -2.470909 
L 532.636364 -2.470909 
L 531.874693 -2.470909 
L 531.113022 -2.470909 
L 530.351351 -2.470909 
L 529.589681 -2.470909 
L 528.82801 -2.470909 
L 528.066339 -2.470909 
L 527.304668 -2.470909 
L 526.542998 -2.470909 
L 525.781327 -2.470909 
L 525.019656 -2.470909 
L 524.257985 -2.470909 
L 523.496314 -2.470909 
L 522.734644 -2.470909 
L 521.972973 -2.470909 
L 521.211302 -2.470909 
L 520.449631 -2.470909 
L 519.687961 -2.470909 
L 518.92629 -2.470909 
L 518.164619 -2.470909 
L 517.402948 -2.470909 
L 516.641278 -2.470909 
L 515.879607 -2.470909 
L 515.117936 -2.470909 
L 514.356265 -2.470909 
L 513.594595 -2.470909 
L 512.832924 -2.470909 
L 512.071253 -2.470909 
L 511.309582 -2.470909 
L 510.547912 -2.470909 
L 509.786241 -2.470909 
L 509.02457 -2.470909 
L 508.262899 -2.470909 
L 507.501229 -2.470909 
L 506.739558 -2.470909 
L 505.977887 -2.470909 
L 505.216216 -2.470909 
L 504.454545 -2.470909 
L 503.692875 -2.470909 
L 502.931204 -2.470909 
L 502.169533 -2.470909 
L 501.407862 -2.470909 
L 500.646192 -2.470909 
L 499.884521 -2.470909 
L 499.12285 -2.470909 
L 498.361179 -2.470909 
L 497.599509 -2.470909 
L 496.837838 -2.470909 
L 496.076167 -2.470909 
L 495.314496 -2.470909 
L 494.552826 -2.470909 
L 493.791155 -2.470909 
L 493.029484 -2.470909 
L 492.267813 -2.470909 
L 491.506143 -2.470909 
L 490.744472 -2.470909 
L 489.982801 -2.470909 
L 489.22113 -2.470909 
L 488.459459 -2.470909 
L 487.697789 -2.470909 
L 486.936118 -2.470909 
L 486.174447 -2.470909 
L 485.412776 -2.470909 
L 484.651106 -2.470909 
L 483.889435 -2.470909 
L 483.127764 -2.470909 
L 482.366093 -2.470909 
L 481.604423 -2.470909 
L 480.842752 -2.470909 
L 480.081081 -2.470909 
L 479.31941 -2.470909 
L 478.55774 -2.470909 
L 477.796069 -2.470909 
L 477.034398 -2.470909 
L 476.272727 -2.470909 
L 475.511057 -2.470909 
L 474.749386 -2.470909 
L 473.987715 -2.470909 
L 473.226044 -2.470909 
L 472.464373 -2.470909 
L 471.702703 -2.470909 
L 470.941032 -2.470909 
L 470.179361 -2.470909 
L 469.41769 -2.470909 
L 468.65602 -2.470909 
L 467.894349 -2.470909 
L 467.132678 -2.470909 
L 466.371007 -2.470909 
L 465.609337 -2.470909 
L 464.847666 -2.470909 
L 464.085995 -2.470909 
L 463.324324 -2.470909 
L 462.562654 -2.470909 
L 461.800983 -2.470909 
L 461.039312 -2.470909 
L 460.277641 -2.470909 
L 459.515971 -2.470909 
L 458.7543 -2.470909 
L 457.992629 -2.470909 
L 457.230958 -2.470909 
L 456.469287 -2.470909 
L 455.707617 -2.470909 
L 454.945946 -2.470909 
L 454.184275 -2.470909 
L 453.422604 -2.470909 
L 452.660934 -2.470909 
L 451.899263 -2.470909 
L 451.137592 -2.470909 
L 450.375921 -2.470909 
L 449.614251 -2.470909 
L 448.85258 -2.470909 
L 448.090909 -2.470909 
L 447.329238 -2.470909 
L 446.567568 -2.470909 
L 445.805897 -2.470909 
L 445.044226 -2.470909 
L 444.282555 -2.470909 
L 443.520885 -2.470909 
L 442.759214 -2.470909 
L 441.997543 -2.470909 
L 441.235872 -2.470909 
L 440.474201 -2.470909 
L 439.712531 -2.470909 
L 438.95086 -2.470909 
L 438.189189 -2.470909 
L 437.427518 -2.470909 
L 436.665848 -2.470909 
L 435.904177 -2.470909 
L 435.142506 -2.470909 
L 434.380835 -2.470909 
L 433.619165 -2.470909 
L 432.857494 -2.470909 
L 432.095823 -2.470909 
L 431.334152 -2.470909 
L 430.572482 -2.470909 
L 429.810811 -2.470909 
L 429.04914 -2.470909 
L 428.287469 -2.470909 
L 427.525799 -2.470909 
L 426.764128 -2.470909 
L 426.002457 -2.470909 
L 425.240786 -2.470909 
L 424.479115 -2.470909 
L 423.717445 -2.470909 
L 422.955774 -2.470909 
L 422.194103 -2.470909 
L 421.432432 -2.470909 
L 420.670762 -2.470909 
L 419.909091 -2.470909 
L 419.14742 -2.470909 
L 418.385749 -2.470909 
L 417.624079 -2.470909 
L 416.862408 -2.470909 
L 416.100737 -2.470909 
L 415.339066 -2.470909 
L 414.577396 -2.470909 
L 413.815725 -2.470909 
L 413.054054 -2.470909 
L 412.292383 -2.470909 
L 411.530713 -2.470909 
L 410.769042 -2.470909 
L 410.007371 -2.470909 
L 409.2457 -2.470909 
L 408.484029 -2.470909 
L 407.722359 -2.470909 
L 406.960688 -2.470909 
L 406.199017 -2.470909 
L 405.437346 -2.470909 
L 404.675676 -2.470909 
L 403.914005 -2.470909 
L 403.152334 -2.470909 
L 402.390663 -2.470909 
L 401.628993 -2.470909 
L 400.867322 -2.470909 
L 400.105651 -2.470909 
L 399.34398 -2.470909 
L 398.58231 -2.470909 
L 397.820639 -2.470909 
L 397.058968 -2.470909 
L 396.297297 -2.470909 
L 395.535627 -2.470909 
L 394.773956 -2.470909 
L 394.012285 -2.470909 
L 393.250614 -2.470909 
L 392.488943 -2.470909 
L 391.727273 -2.470909 
L 390.965602 -2.470909 
L 390.203931 -2.470909 
L 389.44226 -2.470909 
L 388.68059 -2.470909 
L 387.918919 -2.470909 
L 387.157248 -2.470909 
L 386.395577 -2.470909 
L 385.633907 -2.470909 
L 384.872236 -2.470909 
L 384.110565 -2.470909 
L 383.348894 -2.470909 
L 382.587224 -2.470909 
L 381.825553 -2.470909 
L 381.063882 -2.470909 
L 380.302211 -2.470909 
L 379.540541 -2.470909 
L 378.77887 -2.470909 
L 378.017199 -2.470909 
L 377.255528 -2.470909 
L 376.493857 -2.470909 
L 375.732187 -2.470909 
L 374.970516 -2.470909 
L 374.208845 -2.470909 
L 373.447174 -2.470909 
L 372.685504 -2.470909 
L 371.923833 -2.470909 
L 371.162162 -2.470909 
L 370.400491 -2.470909 
L 369.638821 -2.470909 
L 368.87715 -2.470909 
L 368.115479 -2.470909 
L 367.353808 -2.470909 
L 366.592138 -2.470909 
L 365.830467 -2.470909 
L 365.068796 -2.470909 
L 364.307125 -2.470909 
L 363.545455 -2.470909 
L 362.783784 -2.470909 
L 362.022113 -2.470909 
L 361.260442 -2.470909 
L 360.498771 -2.470909 
L 359.737101 -2.470909 
L 358.97543 -2.470909 
L 358.213759 -2.470909 
L 357.452088 -2.470909 
L 356.690418 -2.470909 
L 355.928747 -2.470909 
L 355.167076 -2.470909 
L 354.405405 -2.470909 
L 353.643735 -2.470909 
L 352.882064 -2.470909 
L 352.120393 -2.470909 
L 351.358722 -2.470909 
L 350.597052 -2.470909 
L 349.835381 -2.470909 
L 349.07371 -2.470909 
L 348.312039 -2.470909 
L 347.550369 -2.470909 
L 346.788698 -2.470909 
L 346.027027 -2.470909 
L 345.265356 -2.470909 
L 344.503686 -2.470909 
L 343.742015 -2.470909 
L 342.980344 -2.470909 
L 342.218673 -2.470909 
L 341.457002 -2.470909 
L 340.695332 -2.470909 
L 339.933661 -2.470909 
L 339.17199 -2.470909 
L 338.410319 -2.470909 
L 337.648649 -2.470909 
L 336.886978 -2.470909 
L 336.125307 -2.470909 
L 335.363636 -2.470909 
L 334.601966 -2.470909 
L 333.840295 -2.470909 
L 333.078624 -2.470909 
L 332.316953 -2.470909 
L 331.555283 -2.470909 
L 330.793612 -2.470909 
L 330.031941 -2.470909 
L 329.27027 -2.470909 
L 328.5086 -2.470909 
L 327.746929 -2.470909 
L 326.985258 -2.470909 
L 326.223587 -2.470909 
L 325.461916 -2.470909 
L 324.700246 -2.470909 
L 323.938575 -2.470909 
L 323.176904 -2.470909 
L 322.415233 -2.470909 
L 321.653563 -2.470909 
L 320.891892 -2.470909 
L 320.130221 -2.470909 
L 319.36855 -2.470909 
L 318.60688 -2.470909 
L 317.845209 -2.470909 
L 317.083538 -2.470909 
L 316.321867 -2.470909 
L 315.560197 -2.470909 
L 314.798526 -2.470909 
L 314.036855 -2.470909 
L 313.275184 -2.470909 
L 312.513514 -2.470909 
L 311.751843 -2.470909 
L 310.990172 -2.470909 
L 310.228501 -2.470909 
L 309.46683 -2.470909 
L 308.70516 -2.470909 
L 307.943489 -2.470909 
L 307.181818 -2.470909 
L 306.420147 -2.470909 
L 305.658477 -2.470909 
L 304.896806 -2.470909 
L 304.135135 -2.470909 
L 303.373464 -2.470909 
L 302.611794 -2.470909 
L 301.850123 -2.470909 
L 301.088452 -2.470909 
L 300.326781 -2.470909 
L 299.565111 -2.470909 
L 298.80344 -2.470909 
L 298.041769 -2.470909 
L 297.280098 -2.470909 
L 296.518428 -2.470909 
L 295.756757 -2.470909 
L 294.995086 -2.470909 
L 294.233415 -2.470909 
L 293.471744 -2.470909 
L 292.710074 -2.470909 
L 291.948403 -2.470909 
L 291.186732 -2.470909 
L 290.425061 -2.470909 
L 289.663391 -2.470909 
L 288.90172 -2.470909 
L 288.140049 -2.470909 
L 287.378378 -2.470909 
L 286.616708 -2.470909 
L 285.855037 -2.470909 
L 285.093366 -2.470909 
L 284.331695 -2.470909 
L 283.570025 -2.470909 
L 282.808354 -2.470909 
L 282.046683 -2.470909 
L 281.285012 -2.470909 
L 280.523342 -2.470909 
L 279.761671 -2.470909 
L 279 -2.470909 
L 278.238329 -2.470909 
L 277.476658 -2.470909 
L 276.714988 -2.470909 
L 275.953317 -2.470909 
L 275.191646 -2.470909 
L 274.429975 -2.470909 
L 273.668305 -2.470909 
L 272.906634 -2.470909 
L 272.144963 -2.470909 
L 271.383292 -2.470909 
L 270.621622 -2.470909 
L 269.859951 -2.470909 
L 269.09828 -2.470909 
L 268.336609 -2.470909 
L 267.574939 -2.470909 
L 266.813268 -2.470909 
L 266.051597 -2.470909 
L 265.289926 -2.470909 
L 264.528256 -2.470909 
L 263.766585 -2.470909 
L 263.004914 -2.470909 
L 262.243243 -2.470909 
L 261.481572 -2.470909 
L 260.719902 -2.470909 
L 259.958231 -2.470909 
L 259.19656 -2.470909 
L 258.434889 -2.470909 
z
" style="stroke: #116dc2; stroke-opacity: 0.2"/>
    </defs>
    <g clip-path="url(#pb4ab271165)">
     <use xlink:href="#m49b8e991a2" x="0" y="54.36" style="fill: #116dc2; fill-opacity: 0.2; stroke: #116dc2; stroke-opacity: 0.2"/>
    </g>
   </g>
   <g id="PolyCollection_3">
    <defs>
     <path id="mc34040ffaf" d="M 25.363636 -2.470909 
L 25.363636 -4.530294 
L 26.125307 -5.179796 
L 26.886978 -5.924261 
L 27.648649 -6.68739 
L 28.410319 -7.457266 
L 29.17199 -8.271427 
L 29.933661 -9.148477 
L 30.695332 -10.089671 
L 31.457002 -11.166406 
L 32.218673 -12.559375 
L 32.980344 -14.436298 
L 33.742015 -16.775205 
L 34.503686 -19.35576 
L 35.265356 -21.952132 
L 36.027027 -24.510746 
L 36.788698 -27.092535 
L 37.550369 -29.664443 
L 38.312039 -32.08789 
L 39.07371 -34.373627 
L 39.835381 -36.782363 
L 40.597052 -39.5259 
L 41.358722 -42.453697 
L 42.120393 -45.14642 
L 42.882064 -47.272585 
L 43.643735 -48.798853 
L 44.405405 -49.902755 
L 45.167076 -50.74529 
L 45.928747 -51.349794 
L 46.690418 -51.682106 
L 47.452088 -51.793353 
L 48.213759 -51.832953 
L 48.97543 -51.889091 
L 49.737101 -51.831185 
L 50.498771 -51.364259 
L 51.260442 -50.26454 
L 52.022113 -48.55588 
L 52.783784 -46.440748 
L 53.545455 -44.069437 
L 54.307125 -41.445902 
L 55.068796 -38.58078 
L 55.830467 -35.61408 
L 56.592138 -32.695505 
L 57.353808 -29.838563 
L 58.115479 -26.992967 
L 58.87715 -24.198794 
L 59.638821 -21.580173 
L 60.400491 -19.213969 
L 61.162162 -17.074689 
L 61.923833 -15.106103 
L 62.685504 -13.296515 
L 63.447174 -11.676482 
L 64.208845 -10.28002 
L 64.970516 -9.127415 
L 65.732187 -8.219692 
L 66.493857 -7.513622 
L 67.255528 -6.909702 
L 68.017199 -6.30693 
L 68.77887 -5.680166 
L 69.540541 -5.078841 
L 69.540541 -2.470909 
L 69.540541 -2.470909 
L 68.77887 -2.470909 
L 68.017199 -2.470909 
L 67.255528 -2.470909 
L 66.493857 -2.470909 
L 65.732187 -2.470909 
L 64.970516 -2.470909 
L 64.208845 -2.470909 
L 63.447174 -2.470909 
L 62.685504 -2.470909 
L 61.923833 -2.470909 
L 61.162162 -2.470909 
L 60.400491 -2.470909 
L 59.638821 -2.470909 
L 58.87715 -2.470909 
L 58.115479 -2.470909 
L 57.353808 -2.470909 
L 56.592138 -2.470909 
L 55.830467 -2.470909 
L 55.068796 -2.470909 
L 54.307125 -2.470909 
L 53.545455 -2.470909 
L 52.783784 -2.470909 
L 52.022113 -2.470909 
L 51.260442 -2.470909 
L 50.498771 -2.470909 
L 49.737101 -2.470909 
L 48.97543 -2.470909 
L 48.213759 -2.470909 
L 47.452088 -2.470909 
L 46.690418 -2.470909 
L 45.928747 -2.470909 
L 45.167076 -2.470909 
L 44.405405 -2.470909 
L 43.643735 -2.470909 
L 42.882064 -2.470909 
L 42.120393 -2.470909 
L 41.358722 -2.470909 
L 40.597052 -2.470909 
L 39.835381 -2.470909 
L 39.07371 -2.470909 
L 38.312039 -2.470909 
L 37.550369 -2.470909 
L 36.788698 -2.470909 
L 36.027027 -2.470909 
L 35.265356 -2.470909 
L 34.503686 -2.470909 
L 33.742015 -2.470909 
L 32.980344 -2.470909 
L 32.218673 -2.470909 
L 31.457002 -2.470909 
L 30.695332 -2.470909 
L 29.933661 -2.470909 
L 29.17199 -2.470909 
L 28.410319 -2.470909 
L 27.648649 -2.470909 
L 26.886978 -2.470909 
L 26.125307 -2.470909 
L 25.363636 -2.470909 
z
" style="stroke: #8a8a8a; stroke-opacity: 0.2"/>
    </defs>
    <g clip-path="url(#pb4ab271165)">
     <use xlink:href="#mc34040ffaf" x="0" y="54.36" style="fill: #8a8a8a; fill-opacity: 0.2; stroke: #8a8a8a; stroke-opacity: 0.2"/>
    </g>
   </g>
   <g id="line2d_1">
    <path d="M 201.309582 50.513689 
L 207.402948 50.02403 
L 212.734644 49.338976 
L 219.589681 48.205241 
L 226.444717 46.849264 
L 234.061425 45.139909 
L 237.108108 44.28972 
L 240.154791 43.209872 
L 243.201474 41.87599 
L 248.53317 39.209202 
L 259.958231 33.39344 
L 263.766585 30.952106 
L 270.621622 26.418031 
L 274.429975 24.248566 
L 278.238329 22.342101 
L 282.808354 20.271207 
L 286.616708 18.764766 
L 289.663391 17.793895 
L 292.710074 17.071673 
L 295.756757 16.579478 
L 299.565111 16.200119 
L 306.420147 15.813485 
L 311.751843 15.692136 
L 314.798526 15.822912 
L 317.845209 16.150562 
L 321.653563 16.778423 
L 325.461916 17.605114 
L 328.5086 18.488017 
L 330.793612 19.340964 
L 333.840295 20.756077 
L 337.648649 22.857929 
L 343.742015 26.280964 
L 347.550369 28.124753 
L 352.120393 30.045842 
L 360.498771 33.455812 
L 363.545455 34.978544 
L 367.353808 37.16161 
L 371.923833 39.796688 
L 374.970516 41.281608 
L 378.017199 42.471012 
L 381.825553 43.66878 
L 394.773956 47.339493 
L 399.34398 48.311425 
L 404.675676 49.184531 
L 411.530713 50.058858 
L 412.292383 50.147066 
L 412.292383 50.147066 
" clip-path="url(#pb4ab271165)" style="fill: none; stroke: #cf1313; stroke-width: 1.5; stroke-linecap: square"/>
   </g>
   <g id="line2d_2">
    <path d="M 258.434889 50.343826 
L 267.574939 49.449918 
L 275.191646 48.472214 
L 284.331695 47.066481 
L 291.948403 45.657443 
L 304.135135 43.127071 
L 314.036855 40.862329 
L 320.891892 39.069241 
L 326.223587 37.427795 
L 330.793612 35.76615 
L 335.363636 33.824694 
L 348.312039 27.995002 
L 352.882064 26.364842 
L 359.737101 24.210922 
L 366.592138 22.256004 
L 371.162162 21.20484 
L 375.732187 20.393306 
L 394.012285 17.619212 
L 397.820639 17.381286 
L 400.867322 17.401818 
L 403.914005 17.607522 
L 407.722359 18.104901 
L 411.530713 18.848554 
L 416.100737 20.013715 
L 429.810811 23.991832 
L 435.142506 25.677227 
L 440.474201 27.608414 
L 450.375921 31.264788 
L 456.469287 33.231113 
L 464.847666 35.920137 
L 470.179361 37.896794 
L 478.55774 41.057974 
L 482.366093 42.218064 
L 486.936118 43.338259 
L 505.216216 47.281686 
L 510.547912 48.168543 
L 515.879607 48.816518 
L 522.734644 49.398592 
L 532.636364 50.178036 
L 532.636364 50.178036 
" clip-path="url(#pb4ab271165)" style="fill: none; stroke: #116dc2; stroke-width: 1.5; stroke-linecap: square"/>
   </g>
   <g id="line2d_3">
    <path d="M 25.363636 49.829706 
L 26.125307 49.180204 
L 26.886978 48.435739 
L 27.648649 47.67261 
L 28.410319 46.902734 
L 29.17199 46.088573 
L 29.933661 45.211523 
L 30.695332 44.270329 
L 31.457002 43.193594 
L 32.218673 41.800625 
L 32.980344 39.923702 
L 33.742015 37.584795 
L 34.503686 35.00424 
L 35.265356 32.407868 
L 36.027027 29.849254 
L 36.788698 27.267465 
L 37.550369 24.695557 
L 38.312039 22.27211 
L 39.07371 19.986373 
L 39.835381 17.577637 
L 40.597052 14.8341 
L 41.358722 11.906303 
L 42.120393 9.21358 
L 42.882064 7.087415 
L 43.643735 5.561147 
L 44.405405 4.457245 
L 45.167076 3.61471 
L 45.928747 3.010206 
L 46.690418 2.677894 
L 47.452088 2.566647 
L 48.213759 2.527047 
L 48.97543 2.470909 
L 49.737101 2.528815 
L 50.498771 2.995741 
L 51.260442 4.09546 
L 52.022113 5.80412 
L 52.783784 7.919252 
L 53.545455 10.290563 
L 54.307125 12.914098 
L 55.068796 15.77922 
L 55.830467 18.74592 
L 56.592138 21.664495 
L 57.353808 24.521437 
L 58.115479 27.367033 
L 58.87715 30.161206 
L 59.638821 32.779827 
L 60.400491 35.146031 
L 61.162162 37.285311 
L 61.923833 39.253897 
L 62.685504 41.063485 
L 63.447174 42.683518 
L 64.208845 44.07998 
L 64.970516 45.232585 
L 65.732187 46.140308 
L 66.493857 46.846378 
L 67.255528 47.450298 
L 68.017199 48.05307 
L 68.77887 48.679834 
L 69.540541 49.281159 
" clip-path="url(#pb4ab271165)" style="fill: none; stroke: #8a8a8a; stroke-width: 1.5; stroke-linecap: square"/>
   </g>
  </g>
 </g>
 <defs>
  <clipPath id="pb4ab271165">
   <rect x="0" y="-0" width="558" height="54.36"/>
  </clipPath>
 </defs>
</svg>
