<?xml version="1.0" encoding="utf-8" standalone="no"?>
<!DOCTYPE svg PUBLIC "-//W3C//DTD SVG 1.1//EN"
  "http://www.w3.org/Graphics/SVG/1.1/DTD/svg11.dtd">
<svg xmlns:xlink="http://www.w3.org/1999/xlink" width="558pt" height="54.36pt" viewBox="0 0 558 54.36" xmlns="http://www.w3.org/2000/svg" version="1.1">
 <metadata>
  <rdf:RDF xmlns:dc="http://purl.org/dc/elements/1.1/" xmlns:cc="http://creativecommons.org/ns#" xmlns:rdf="http://www.w3.org/1999/02/22-rdf-syntax-ns#">
   <cc:Work>
    <dc:type rdf:resource="http://purl.org/dc/dcmitype/StillImage"/>
    <dc:date>2024-09-14T12:46:31.698601</dc:date>
    <dc:format>image/svg+xml</dc:format>
    <dc:creator>
     <cc:Agent>
      <dc:title>Matplotlib v3.5.2, https://matplotlib.org/</dc:title>
     </cc:Agent>
    </dc:creator>
   </cc:Work>
  </rdf:RDF>
 </metadata>
 <defs>
  <style type="text/css">*{stroke-linejoin: round; stroke-linecap: butt}</style>
 </defs>
 <g id="figure_1">
  <g id="patch_1">
   <path d="M 0 54.36 
L 558 54.36 
L 558 0 
L 0 0 
L 0 54.36 
z
" style="fill: none; opacity: 0"/>
  </g>
  <g id="axes_1">
   <g id="PolyCollection_1">
    <defs>
     <path id="m53e2760236" d="M 401.075886 -2.470909 
L 401.075886 -4.1265 
L 401.687795 -4.222969 
L 402.299704 -4.319706 
L 402.911613 -4.417123 
L 403.523522 -4.516124 
L 404.135432 -4.618068 
L 404.747341 -4.724699 
L 405.35925 -4.838038 
L 405.971159 -4.960263 
L 406.583068 -5.09357 
L 407.194978 -5.240035 
L 407.806887 -5.401477 
L 408.418796 -5.579334 
L 409.030705 -5.774554 
L 409.642614 -5.987504 
L 410.254524 -6.217904 
L 410.866433 -6.464799 
L 411.478342 -6.726563 
L 412.090251 -7.000955 
L 412.70216 -7.285223 
L 413.31407 -7.576269 
L 413.925979 -7.87085 
L 414.537888 -8.165825 
L 415.149797 -8.458413 
L 415.761706 -8.746439 
L 416.373616 -9.028543 
L 416.985525 -9.304312 
L 417.597434 -9.574325 
L 418.209343 -9.840084 
L 418.821252 -10.103839 
L 419.433162 -10.368329 
L 420.045071 -10.636452 
L 420.65698 -10.910928 
L 421.268889 -11.193983 
L 421.880798 -11.487108 
L 422.492708 -11.790931 
L 423.104617 -12.105212 
L 423.716526 -12.428971 
L 424.328435 -12.760722 
L 424.940344 -13.098784 
L 425.552254 -13.441618 
L 426.164163 -13.788134 
L 426.776072 -14.137927 
L 427.387981 -14.4914 
L 427.99989 -14.849771 
L 428.6118 -15.214932 
L 429.223709 -15.589228 
L 429.835618 -15.975145 
L 430.447527 -16.37499 
L 431.059436 -16.790586 
L 431.671346 -17.223039 
L 432.283255 -17.672597 
L 432.895164 -18.138616 
L 433.507073 -18.619641 
L 434.118982 -19.113574 
L 434.730892 -19.617907 
L 435.342801 -20.129991 
L 435.95471 -20.647301 
L 436.566619 -21.167681 
L 437.178528 -21.689534 
L 437.790438 -22.211945 
L 438.402347 -22.734733 
L 439.014256 -23.258421 
L 439.626165 -23.784134 
L 440.238074 -24.313423 
L 440.849984 -24.848034 
L 441.461893 -25.389636 
L 442.073802 -25.939531 
L 442.685711 -26.498382 
L 443.29762 -27.065968 
L 443.90953 -27.641026 
L 444.521439 -28.221178 
L 445.133348 -28.80297 
L 445.745257 -29.382029 
L 446.357166 -29.953311 
L 446.969076 -30.51144 
L 447.580985 -31.051086 
L 448.192894 -31.567352 
L 448.804803 -32.056128 
L 449.416712 -32.514392 
L 450.028622 -32.940413 
L 450.640531 -33.333859 
L 451.25244 -33.695798 
L 451.864349 -34.028595 
L 452.476258 -34.335739 
L 453.088168 -34.621583 
L 453.700077 -34.891064 
L 454.311986 -35.149382 
L 454.923895 -35.401692 
L 455.535804 -35.652801 
L 456.147714 -35.906894 
L 456.759623 -36.167283 
L 457.371532 -36.436196 
L 457.983441 -36.714592 
L 458.59535 -37.002022 
L 459.20726 -37.296538 
L 459.819169 -37.594676 
L 460.431078 -37.89152 
L 461.042987 -38.180884 
L 461.654896 -38.455603 
L 462.266806 -38.70796 
L 462.878715 -38.930193 
L 463.490624 -39.115072 
L 464.102533 -39.256468 
L 464.714442 -39.349859 
L 465.326352 -39.392698 
L 465.938261 -39.384589 
L 466.55017 -39.327265 
L 467.162079 -39.224334 
L 467.773988 -39.080866 
L 468.385898 -38.902848 
L 468.997807 -38.696596 
L 469.609716 -38.468205 
L 470.221625 -38.223075 
L 470.833534 -37.965589 
L 471.445444 -37.698932 
L 472.057353 -37.425076 
L 472.669262 -37.144873 
L 473.281171 -36.858261 
L 473.89308 -36.56451 
L 474.50499 -36.262496 
L 475.116899 -35.950955 
L 475.728808 -35.628713 
L 476.340717 -35.29486 
L 476.952626 -34.948861 
L 477.564536 -34.590611 
L 478.176445 -34.22042 
L 478.788354 -33.838941 
L 479.400263 -33.447056 
L 480.012172 -33.045737 
L 480.624082 -32.6359 
L 481.235991 -32.218287 
L 481.8479 -31.793384 
L 482.459809 -31.361393 
L 483.071718 -30.922265 
L 483.683628 -30.475788 
L 484.295537 -30.021699 
L 484.907446 -29.559825 
L 485.519355 -29.090202 
L 486.131264 -28.613164 
L 486.743174 -28.129387 
L 487.355083 -27.639889 
L 487.966992 -27.145967 
L 488.578901 -26.649117 
L 489.19081 -26.150921 
L 489.80272 -25.652946 
L 490.414629 -25.156645 
L 491.026538 -24.663295 
L 491.638447 -24.173962 
L 492.250356 -23.689496 
L 492.862266 -23.210556 
L 493.474175 -22.737658 
L 494.086084 -22.271219 
L 494.697993 -21.811615 
L 495.309902 -21.359205 
L 495.921812 -20.914345 
L 496.533721 -20.477363 
L 497.14563 -20.048497 
L 497.757539 -19.627816 
L 498.369448 -19.215119 
L 498.981358 -18.809847 
L 499.593267 -18.411027 
L 500.205176 -18.017262 
L 500.817085 -17.626797 
L 501.428994 -17.237652 
L 502.040904 -16.847815 
L 502.652813 -16.455473 
L 503.264722 -16.059242 
L 503.876631 -15.658368 
L 504.48854 -15.252844 
L 505.10045 -14.843448 
L 505.712359 -14.431672 
L 506.324268 -14.019554 
L 506.936177 -13.609457 
L 507.548086 -13.203798 
L 508.159996 -12.804804 
L 508.771905 -12.414298 
L 509.383814 -12.033562 
L 509.995723 -11.663286 
L 510.607632 -11.303598 
L 511.219542 -10.954163 
L 511.831451 -10.614335 
L 512.44336 -10.283322 
L 513.055269 -9.960359 
L 513.667178 -9.644838 
L 514.279088 -9.33642 
L 514.890997 -9.035079 
L 515.502906 -8.741121 
L 516.114815 -8.455149 
L 516.726724 -8.178 
L 517.338634 -7.910664 
L 517.950543 -7.654173 
L 518.562452 -7.409494 
L 519.174361 -7.177407 
L 519.78627 -6.9584 
L 520.39818 -6.752564 
L 521.010089 -6.559529 
L 521.621998 -6.378423 
L 522.233907 -6.207893 
L 522.845816 -6.046166 
L 523.457726 -5.891174 
L 524.069635 -5.740719 
L 524.681544 -5.592676 
L 525.293453 -5.44519 
L 525.905362 -5.296871 
L 526.517272 -5.146933 
L 527.129181 -4.995276 
L 527.74109 -4.842489 
L 528.352999 -4.689782 
L 528.964908 -4.53884 
L 529.576818 -4.391642 
L 530.188727 -4.250248 
L 530.800636 -4.116587 
L 531.412545 -3.992286 
L 532.024454 -3.878531 
L 532.636364 -3.775992 
L 532.636364 -2.470909 
L 532.636364 -2.470909 
L 532.024454 -2.470909 
L 531.412545 -2.470909 
L 530.800636 -2.470909 
L 530.188727 -2.470909 
L 529.576818 -2.470909 
L 528.964908 -2.470909 
L 528.352999 -2.470909 
L 527.74109 -2.470909 
L 527.129181 -2.470909 
L 526.517272 -2.470909 
L 525.905362 -2.470909 
L 525.293453 -2.470909 
L 524.681544 -2.470909 
L 524.069635 -2.470909 
L 523.457726 -2.470909 
L 522.845816 -2.470909 
L 522.233907 -2.470909 
L 521.621998 -2.470909 
L 521.010089 -2.470909 
L 520.39818 -2.470909 
L 519.78627 -2.470909 
L 519.174361 -2.470909 
L 518.562452 -2.470909 
L 517.950543 -2.470909 
L 517.338634 -2.470909 
L 516.726724 -2.470909 
L 516.114815 -2.470909 
L 515.502906 -2.470909 
L 514.890997 -2.470909 
L 514.279088 -2.470909 
L 513.667178 -2.470909 
L 513.055269 -2.470909 
L 512.44336 -2.470909 
L 511.831451 -2.470909 
L 511.219542 -2.470909 
L 510.607632 -2.470909 
L 509.995723 -2.470909 
L 509.383814 -2.470909 
L 508.771905 -2.470909 
L 508.159996 -2.470909 
L 507.548086 -2.470909 
L 506.936177 -2.470909 
L 506.324268 -2.470909 
L 505.712359 -2.470909 
L 505.10045 -2.470909 
L 504.48854 -2.470909 
L 503.876631 -2.470909 
L 503.264722 -2.470909 
L 502.652813 -2.470909 
L 502.040904 -2.470909 
L 501.428994 -2.470909 
L 500.817085 -2.470909 
L 500.205176 -2.470909 
L 499.593267 -2.470909 
L 498.981358 -2.470909 
L 498.369448 -2.470909 
L 497.757539 -2.470909 
L 497.14563 -2.470909 
L 496.533721 -2.470909 
L 495.921812 -2.470909 
L 495.309902 -2.470909 
L 494.697993 -2.470909 
L 494.086084 -2.470909 
L 493.474175 -2.470909 
L 492.862266 -2.470909 
L 492.250356 -2.470909 
L 491.638447 -2.470909 
L 491.026538 -2.470909 
L 490.414629 -2.470909 
L 489.80272 -2.470909 
L 489.19081 -2.470909 
L 488.578901 -2.470909 
L 487.966992 -2.470909 
L 487.355083 -2.470909 
L 486.743174 -2.470909 
L 486.131264 -2.470909 
L 485.519355 -2.470909 
L 484.907446 -2.470909 
L 484.295537 -2.470909 
L 483.683628 -2.470909 
L 483.071718 -2.470909 
L 482.459809 -2.470909 
L 481.8479 -2.470909 
L 481.235991 -2.470909 
L 480.624082 -2.470909 
L 480.012172 -2.470909 
L 479.400263 -2.470909 
L 478.788354 -2.470909 
L 478.176445 -2.470909 
L 477.564536 -2.470909 
L 476.952626 -2.470909 
L 476.340717 -2.470909 
L 475.728808 -2.470909 
L 475.116899 -2.470909 
L 474.50499 -2.470909 
L 473.89308 -2.470909 
L 473.281171 -2.470909 
L 472.669262 -2.470909 
L 472.057353 -2.470909 
L 471.445444 -2.470909 
L 470.833534 -2.470909 
L 470.221625 -2.470909 
L 469.609716 -2.470909 
L 468.997807 -2.470909 
L 468.385898 -2.470909 
L 467.773988 -2.470909 
L 467.162079 -2.470909 
L 466.55017 -2.470909 
L 465.938261 -2.470909 
L 465.326352 -2.470909 
L 464.714442 -2.470909 
L 464.102533 -2.470909 
L 463.490624 -2.470909 
L 462.878715 -2.470909 
L 462.266806 -2.470909 
L 461.654896 -2.470909 
L 461.042987 -2.470909 
L 460.431078 -2.470909 
L 459.819169 -2.470909 
L 459.20726 -2.470909 
L 458.59535 -2.470909 
L 457.983441 -2.470909 
L 457.371532 -2.470909 
L 456.759623 -2.470909 
L 456.147714 -2.470909 
L 455.535804 -2.470909 
L 454.923895 -2.470909 
L 454.311986 -2.470909 
L 453.700077 -2.470909 
L 453.088168 -2.470909 
L 452.476258 -2.470909 
L 451.864349 -2.470909 
L 451.25244 -2.470909 
L 450.640531 -2.470909 
L 450.028622 -2.470909 
L 449.416712 -2.470909 
L 448.804803 -2.470909 
L 448.192894 -2.470909 
L 447.580985 -2.470909 
L 446.969076 -2.470909 
L 446.357166 -2.470909 
L 445.745257 -2.470909 
L 445.133348 -2.470909 
L 444.521439 -2.470909 
L 443.90953 -2.470909 
L 443.29762 -2.470909 
L 442.685711 -2.470909 
L 442.073802 -2.470909 
L 441.461893 -2.470909 
L 440.849984 -2.470909 
L 440.238074 -2.470909 
L 439.626165 -2.470909 
L 439.014256 -2.470909 
L 438.402347 -2.470909 
L 437.790438 -2.470909 
L 437.178528 -2.470909 
L 436.566619 -2.470909 
L 435.95471 -2.470909 
L 435.342801 -2.470909 
L 434.730892 -2.470909 
L 434.118982 -2.470909 
L 433.507073 -2.470909 
L 432.895164 -2.470909 
L 432.283255 -2.470909 
L 431.671346 -2.470909 
L 431.059436 -2.470909 
L 430.447527 -2.470909 
L 429.835618 -2.470909 
L 429.223709 -2.470909 
L 428.6118 -2.470909 
L 427.99989 -2.470909 
L 427.387981 -2.470909 
L 426.776072 -2.470909 
L 426.164163 -2.470909 
L 425.552254 -2.470909 
L 424.940344 -2.470909 
L 424.328435 -2.470909 
L 423.716526 -2.470909 
L 423.104617 -2.470909 
L 422.492708 -2.470909 
L 421.880798 -2.470909 
L 421.268889 -2.470909 
L 420.65698 -2.470909 
L 420.045071 -2.470909 
L 419.433162 -2.470909 
L 418.821252 -2.470909 
L 418.209343 -2.470909 
L 417.597434 -2.470909 
L 416.985525 -2.470909 
L 416.373616 -2.470909 
L 415.761706 -2.470909 
L 415.149797 -2.470909 
L 414.537888 -2.470909 
L 413.925979 -2.470909 
L 413.31407 -2.470909 
L 412.70216 -2.470909 
L 412.090251 -2.470909 
L 411.478342 -2.470909 
L 410.866433 -2.470909 
L 410.254524 -2.470909 
L 409.642614 -2.470909 
L 409.030705 -2.470909 
L 408.418796 -2.470909 
L 407.806887 -2.470909 
L 407.194978 -2.470909 
L 406.583068 -2.470909 
L 405.971159 -2.470909 
L 405.35925 -2.470909 
L 404.747341 -2.470909 
L 404.135432 -2.470909 
L 403.523522 -2.470909 
L 402.911613 -2.470909 
L 402.299704 -2.470909 
L 401.687795 -2.470909 
L 401.075886 -2.470909 
z
" style="stroke: #cf1313; stroke-opacity: 0.2"/>
    </defs>
    <g clip-path="url(#p0c4f0ac64d)">
     <use xlink:href="#m53e2760236" x="0" y="54.36" style="fill: #cf1313; fill-opacity: 0.2; stroke: #cf1313; stroke-opacity: 0.2"/>
    </g>
   </g>
   <g id="PolyCollection_2">
    <defs>
     <path id="md5424fd292" d="M 49.840004 -2.470909 
L 49.840004 -3.843521 
L 50.451914 -3.935174 
L 51.063823 -4.039073 
L 51.675732 -4.156159 
L 52.287641 -4.287003 
L 52.89955 -4.431858 
L 53.51146 -4.590741 
L 54.123369 -4.763535 
L 54.735278 -4.950059 
L 55.347187 -5.150123 
L 55.959096 -5.363522 
L 56.571006 -5.590001 
L 57.182915 -5.829184 
L 57.794824 -6.080497 
L 58.406733 -6.343108 
L 59.018642 -6.615912 
L 59.630552 -6.897572 
L 60.242461 -7.186645 
L 60.85437 -7.481774 
L 61.466279 -7.781951 
L 62.078188 -8.086803 
L 62.690098 -8.396877 
L 63.302007 -8.71384 
L 63.913916 -9.040549 
L 64.525825 -9.380932 
L 65.137734 -9.739647 
L 65.749644 -10.121531 
L 66.361553 -10.530902 
L 66.973462 -10.970802 
L 67.585371 -11.442323 
L 68.19728 -11.94414 
L 68.80919 -12.47237 
L 69.421099 -13.020796 
L 70.033008 -13.581449 
L 70.644917 -14.145458 
L 71.256826 -14.704019 
L 71.868736 -15.249323 
L 72.480645 -15.77529 
L 73.092554 -16.27803 
L 73.704463 -16.755984 
L 74.316372 -17.209803 
L 74.928282 -17.642058 
L 75.540191 -18.056875 
L 76.1521 -18.459602 
L 76.764009 -18.856528 
L 77.375918 -19.254671 
L 77.987828 -19.661555 
L 78.599737 -20.084928 
L 79.211646 -20.532377 
L 79.823555 -21.010813 
L 80.435464 -21.525896 
L 81.047374 -22.081471 
L 81.659283 -22.679134 
L 82.271192 -23.318007 
L 82.883101 -23.994792 
L 83.49501 -24.704074 
L 84.10692 -25.438831 
L 84.718829 -26.191048 
L 85.330738 -26.952333 
L 85.942647 -27.714467 
L 86.554556 -28.469831 
L 87.166466 -29.211712 
L 87.778375 -29.934508 
L 88.390284 -30.633872 
L 89.002193 -31.306798 
L 89.614102 -31.951673 
L 90.226012 -32.568262 
L 90.837921 -33.157606 
L 91.44983 -33.721823 
L 92.061739 -34.263797 
L 92.673648 -34.786794 
L 93.285558 -35.294032 
L 93.897467 -35.788264 
L 94.509376 -36.271402 
L 95.121285 -36.744229 
L 95.733194 -37.206193 
L 96.345104 -37.655327 
L 96.957013 -38.08827 
L 97.568922 -38.500433 
L 98.180831 -38.886298 
L 98.79274 -39.239856 
L 99.40465 -39.555148 
L 100.016559 -39.826854 
L 100.628468 -40.050851 
L 101.240377 -40.224649 
L 101.852286 -40.347644 
L 102.464196 -40.421143 
L 103.076105 -40.44818 
L 103.688014 -40.433166 
L 104.299923 -40.381443 
L 104.911832 -40.298838 
L 105.523742 -40.191248 
L 106.135651 -40.064317 
L 106.74756 -39.923177 
L 107.359469 -39.772249 
L 107.971378 -39.615074 
L 108.583288 -39.454139 
L 109.195197 -39.290725 
L 109.807106 -39.124775 
L 110.419015 -38.954838 
L 111.030924 -38.778125 
L 111.642834 -38.59071 
L 112.254743 -38.387875 
L 112.866652 -38.164585 
L 113.478561 -37.916019 
L 114.09047 -37.638092 
L 114.70238 -37.327878 
L 115.314289 -36.983875 
L 115.926198 -36.606071 
L 116.538107 -36.195822 
L 117.150016 -35.755572 
L 117.761926 -35.288473 
L 118.373835 -34.797984 
L 118.985744 -34.287486 
L 119.597653 -33.759974 
L 120.209562 -33.217844 
L 120.821472 -32.662781 
L 121.433381 -32.095759 
L 122.04529 -31.517138 
L 122.657199 -30.926861 
L 123.269108 -30.324701 
L 123.881018 -29.710554 
L 124.492927 -29.084709 
L 125.104836 -28.448058 
L 125.716745 -27.802204 
L 126.328654 -27.149454 
L 126.940564 -26.492683 
L 127.552473 -25.83511 
L 128.164382 -25.179999 
L 128.776291 -24.530346 
L 129.3882 -23.888578 
L 130.00011 -23.256308 
L 130.612019 -22.634176 
L 131.223928 -22.021809 
L 131.835837 -21.417916 
L 132.447746 -20.820522 
L 133.059656 -20.22732 
L 133.671565 -19.636099 
L 134.283474 -19.045177 
L 134.895383 -18.45377 
L 135.507292 -17.862226 
L 136.119202 -17.272083 
L 136.731111 -16.685939 
L 137.34302 -16.10717 
L 137.954929 -15.539534 
L 138.566838 -14.986752 
L 139.178748 -14.452115 
L 139.790657 -13.938189 
L 140.402566 -13.446632 
L 141.014475 -12.978152 
L 141.626384 -12.532564 
L 142.238294 -12.108937 
L 142.850203 -11.705777 
L 143.462112 -11.321205 
L 144.074021 -10.953128 
L 144.68593 -10.599353 
L 145.29784 -10.257683 
L 145.909749 -9.925979 
L 146.521658 -9.602217 
L 147.133567 -9.284552 
L 147.745476 -8.9714 
L 148.357386 -8.661523 
L 148.969295 -8.354123 
L 149.581204 -8.048919 
L 150.193113 -7.746188 
L 150.805022 -7.446769 
L 151.416932 -7.152007 
L 152.028841 -6.863649 
L 152.64075 -6.583689 
L 153.252659 -6.314189 
L 153.864568 -6.057093 
L 154.476478 -5.814048 
L 155.088387 -5.586267 
L 155.700296 -5.374444 
L 156.312205 -5.178722 
L 156.924114 -4.998736 
L 157.536024 -4.833685 
L 158.147933 -4.682457 
L 158.759842 -4.543754 
L 159.371751 -4.416217 
L 159.98366 -4.298537 
L 160.59557 -4.189528 
L 161.207479 -4.088177 
L 161.819388 -3.993657 
L 162.431297 -3.905319 
L 162.431297 -2.470909 
L 162.431297 -2.470909 
L 161.819388 -2.470909 
L 161.207479 -2.470909 
L 160.59557 -2.470909 
L 159.98366 -2.470909 
L 159.371751 -2.470909 
L 158.759842 -2.470909 
L 158.147933 -2.470909 
L 157.536024 -2.470909 
L 156.924114 -2.470909 
L 156.312205 -2.470909 
L 155.700296 -2.470909 
L 155.088387 -2.470909 
L 154.476478 -2.470909 
L 153.864568 -2.470909 
L 153.252659 -2.470909 
L 152.64075 -2.470909 
L 152.028841 -2.470909 
L 151.416932 -2.470909 
L 150.805022 -2.470909 
L 150.193113 -2.470909 
L 149.581204 -2.470909 
L 148.969295 -2.470909 
L 148.357386 -2.470909 
L 147.745476 -2.470909 
L 147.133567 -2.470909 
L 146.521658 -2.470909 
L 145.909749 -2.470909 
L 145.29784 -2.470909 
L 144.68593 -2.470909 
L 144.074021 -2.470909 
L 143.462112 -2.470909 
L 142.850203 -2.470909 
L 142.238294 -2.470909 
L 141.626384 -2.470909 
L 141.014475 -2.470909 
L 140.402566 -2.470909 
L 139.790657 -2.470909 
L 139.178748 -2.470909 
L 138.566838 -2.470909 
L 137.954929 -2.470909 
L 137.34302 -2.470909 
L 136.731111 -2.470909 
L 136.119202 -2.470909 
L 135.507292 -2.470909 
L 134.895383 -2.470909 
L 134.283474 -2.470909 
L 133.671565 -2.470909 
L 133.059656 -2.470909 
L 132.447746 -2.470909 
L 131.835837 -2.470909 
L 131.223928 -2.470909 
L 130.612019 -2.470909 
L 130.00011 -2.470909 
L 129.3882 -2.470909 
L 128.776291 -2.470909 
L 128.164382 -2.470909 
L 127.552473 -2.470909 
L 126.940564 -2.470909 
L 126.328654 -2.470909 
L 125.716745 -2.470909 
L 125.104836 -2.470909 
L 124.492927 -2.470909 
L 123.881018 -2.470909 
L 123.269108 -2.470909 
L 122.657199 -2.470909 
L 122.04529 -2.470909 
L 121.433381 -2.470909 
L 120.821472 -2.470909 
L 120.209562 -2.470909 
L 119.597653 -2.470909 
L 118.985744 -2.470909 
L 118.373835 -2.470909 
L 117.761926 -2.470909 
L 117.150016 -2.470909 
L 116.538107 -2.470909 
L 115.926198 -2.470909 
L 115.314289 -2.470909 
L 114.70238 -2.470909 
L 114.09047 -2.470909 
L 113.478561 -2.470909 
L 112.866652 -2.470909 
L 112.254743 -2.470909 
L 111.642834 -2.470909 
L 111.030924 -2.470909 
L 110.419015 -2.470909 
L 109.807106 -2.470909 
L 109.195197 -2.470909 
L 108.583288 -2.470909 
L 107.971378 -2.470909 
L 107.359469 -2.470909 
L 106.74756 -2.470909 
L 106.135651 -2.470909 
L 105.523742 -2.470909 
L 104.911832 -2.470909 
L 104.299923 -2.470909 
L 103.688014 -2.470909 
L 103.076105 -2.470909 
L 102.464196 -2.470909 
L 101.852286 -2.470909 
L 101.240377 -2.470909 
L 100.628468 -2.470909 
L 100.016559 -2.470909 
L 99.40465 -2.470909 
L 98.79274 -2.470909 
L 98.180831 -2.470909 
L 97.568922 -2.470909 
L 96.957013 -2.470909 
L 96.345104 -2.470909 
L 95.733194 -2.470909 
L 95.121285 -2.470909 
L 94.509376 -2.470909 
L 93.897467 -2.470909 
L 93.285558 -2.470909 
L 92.673648 -2.470909 
L 92.061739 -2.470909 
L 91.44983 -2.470909 
L 90.837921 -2.470909 
L 90.226012 -2.470909 
L 89.614102 -2.470909 
L 89.002193 -2.470909 
L 88.390284 -2.470909 
L 87.778375 -2.470909 
L 87.166466 -2.470909 
L 86.554556 -2.470909 
L 85.942647 -2.470909 
L 85.330738 -2.470909 
L 84.718829 -2.470909 
L 84.10692 -2.470909 
L 83.49501 -2.470909 
L 82.883101 -2.470909 
L 82.271192 -2.470909 
L 81.659283 -2.470909 
L 81.047374 -2.470909 
L 80.435464 -2.470909 
L 79.823555 -2.470909 
L 79.211646 -2.470909 
L 78.599737 -2.470909 
L 77.987828 -2.470909 
L 77.375918 -2.470909 
L 76.764009 -2.470909 
L 76.1521 -2.470909 
L 75.540191 -2.470909 
L 74.928282 -2.470909 
L 74.316372 -2.470909 
L 73.704463 -2.470909 
L 73.092554 -2.470909 
L 72.480645 -2.470909 
L 71.868736 -2.470909 
L 71.256826 -2.470909 
L 70.644917 -2.470909 
L 70.033008 -2.470909 
L 69.421099 -2.470909 
L 68.80919 -2.470909 
L 68.19728 -2.470909 
L 67.585371 -2.470909 
L 66.973462 -2.470909 
L 66.361553 -2.470909 
L 65.749644 -2.470909 
L 65.137734 -2.470909 
L 64.525825 -2.470909 
L 63.913916 -2.470909 
L 63.302007 -2.470909 
L 62.690098 -2.470909 
L 62.078188 -2.470909 
L 61.466279 -2.470909 
L 60.85437 -2.470909 
L 60.242461 -2.470909 
L 59.630552 -2.470909 
L 59.018642 -2.470909 
L 58.406733 -2.470909 
L 57.794824 -2.470909 
L 57.182915 -2.470909 
L 56.571006 -2.470909 
L 55.959096 -2.470909 
L 55.347187 -2.470909 
L 54.735278 -2.470909 
L 54.123369 -2.470909 
L 53.51146 -2.470909 
L 52.89955 -2.470909 
L 52.287641 -2.470909 
L 51.675732 -2.470909 
L 51.063823 -2.470909 
L 50.451914 -2.470909 
L 49.840004 -2.470909 
z
" style="stroke: #116dc2; stroke-opacity: 0.2"/>
    </defs>
    <g clip-path="url(#p0c4f0ac64d)">
     <use xlink:href="#md5424fd292" x="0" y="54.36" style="fill: #116dc2; fill-opacity: 0.2; stroke: #116dc2; stroke-opacity: 0.2"/>
    </g>
   </g>
   <g id="PolyCollection_3">
    <defs>
     <path id="mff82e5ec79" d="M 25.363636 -2.470909 
L 25.363636 -5.182263 
L 25.975546 -6.108715 
L 26.587455 -7.286781 
L 27.199364 -8.617891 
L 27.811273 -10.020563 
L 28.423182 -11.611021 
L 29.035092 -13.494159 
L 29.647001 -15.619426 
L 30.25891 -17.894864 
L 30.870819 -20.193044 
L 31.482728 -22.358947 
L 32.094638 -24.352389 
L 32.706547 -26.347962 
L 33.318456 -28.611445 
L 33.930365 -31.215357 
L 34.542274 -34.063681 
L 35.154184 -37.211602 
L 35.766093 -40.671709 
L 36.378002 -43.953905 
L 36.989911 -46.445472 
L 37.60182 -48.083951 
L 38.21373 -49.264082 
L 38.825639 -50.386835 
L 39.437548 -51.441332 
L 40.049457 -51.889091 
L 40.661366 -51.330754 
L 41.273276 -50.116903 
L 41.885185 -48.877315 
L 42.497094 -47.599944 
L 43.109003 -45.659727 
L 43.720912 -42.844079 
L 44.332822 -39.69527 
L 44.944731 -36.660208 
L 45.55664 -33.601515 
L 46.168549 -30.327009 
L 46.780458 -27.015163 
L 47.392368 -23.963529 
L 48.004277 -21.317216 
L 48.616186 -18.972815 
L 49.228095 -16.641202 
L 49.840004 -14.246439 
L 50.451914 -12.059254 
L 51.063823 -10.295778 
L 51.675732 -8.909012 
L 52.287641 -7.762536 
L 52.89955 -6.784185 
L 53.51146 -5.963979 
L 54.123369 -5.285465 
L 54.735278 -4.710643 
L 54.735278 -2.470909 
L 54.735278 -2.470909 
L 54.123369 -2.470909 
L 53.51146 -2.470909 
L 52.89955 -2.470909 
L 52.287641 -2.470909 
L 51.675732 -2.470909 
L 51.063823 -2.470909 
L 50.451914 -2.470909 
L 49.840004 -2.470909 
L 49.228095 -2.470909 
L 48.616186 -2.470909 
L 48.004277 -2.470909 
L 47.392368 -2.470909 
L 46.780458 -2.470909 
L 46.168549 -2.470909 
L 45.55664 -2.470909 
L 44.944731 -2.470909 
L 44.332822 -2.470909 
L 43.720912 -2.470909 
L 43.109003 -2.470909 
L 42.497094 -2.470909 
L 41.885185 -2.470909 
L 41.273276 -2.470909 
L 40.661366 -2.470909 
L 40.049457 -2.470909 
L 39.437548 -2.470909 
L 38.825639 -2.470909 
L 38.21373 -2.470909 
L 37.60182 -2.470909 
L 36.989911 -2.470909 
L 36.378002 -2.470909 
L 35.766093 -2.470909 
L 35.154184 -2.470909 
L 34.542274 -2.470909 
L 33.930365 -2.470909 
L 33.318456 -2.470909 
L 32.706547 -2.470909 
L 32.094638 -2.470909 
L 31.482728 -2.470909 
L 30.870819 -2.470909 
L 30.25891 -2.470909 
L 29.647001 -2.470909 
L 29.035092 -2.470909 
L 28.423182 -2.470909 
L 27.811273 -2.470909 
L 27.199364 -2.470909 
L 26.587455 -2.470909 
L 25.975546 -2.470909 
L 25.363636 -2.470909 
z
" style="stroke: #8a8a8a; stroke-opacity: 0.2"/>
    </defs>
    <g clip-path="url(#p0c4f0ac64d)">
     <use xlink:href="#mff82e5ec79" x="0" y="54.36" style="fill: #8a8a8a; fill-opacity: 0.2; stroke: #8a8a8a; stroke-opacity: 0.2"/>
    </g>
   </g>
   <g id="line2d_1">
    <path d="M 401.075886 50.2335 
L 406.583068 49.26643 
L 409.030705 48.585446 
L 411.478342 47.633437 
L 421.880798 42.872892 
L 424.940344 41.261216 
L 429.223709 38.770772 
L 431.671346 37.136961 
L 434.118982 35.246426 
L 439.626165 30.575866 
L 443.29762 27.294032 
L 448.192894 22.792648 
L 450.028622 21.419587 
L 451.864349 20.331405 
L 454.311986 19.210618 
L 458.59535 17.357978 
L 462.266806 15.65204 
L 464.102533 15.103532 
L 465.326352 14.967302 
L 466.55017 15.032735 
L 467.773988 15.279134 
L 469.609716 15.891795 
L 472.669262 17.215127 
L 475.728808 18.731287 
L 478.788354 20.521059 
L 482.459809 22.998607 
L 486.131264 25.746836 
L 496.533721 33.882637 
L 500.205176 36.342738 
L 507.548086 41.156202 
L 510.607632 43.056402 
L 513.667178 44.715162 
L 517.338634 46.449336 
L 519.78627 47.4016 
L 522.845816 48.313834 
L 530.800636 50.243413 
L 532.636364 50.584008 
L 532.636364 50.584008 
" clip-path="url(#p0c4f0ac64d)" style="fill: none; stroke: #cf1313; stroke-width: 1.5; stroke-linecap: square"/>
   </g>
   <g id="line2d_2">
    <path d="M 49.840004 50.516479 
L 52.287641 50.072997 
L 54.735278 49.409941 
L 57.182915 48.530816 
L 60.242461 47.173355 
L 63.913916 45.319451 
L 65.749644 44.238469 
L 67.585371 42.917677 
L 70.033008 40.778551 
L 73.092554 38.08197 
L 75.540191 36.303125 
L 79.211646 33.827623 
L 81.047374 32.278529 
L 82.883101 30.365208 
L 85.330738 27.407667 
L 88.390284 23.726128 
L 90.226012 21.791738 
L 92.673648 19.573206 
L 95.733194 17.153807 
L 98.180831 15.473702 
L 100.016559 14.533146 
L 101.240377 14.135351 
L 102.464196 13.938857 
L 103.688014 13.926834 
L 105.523742 14.168752 
L 108.583288 14.905861 
L 112.254743 15.972125 
L 114.09047 16.721908 
L 115.926198 17.753929 
L 117.761926 19.071527 
L 120.209562 21.142156 
L 123.269108 24.035299 
L 126.940564 27.867317 
L 131.223928 32.338191 
L 137.34302 38.25283 
L 139.790657 40.421811 
L 142.238294 42.251063 
L 144.68593 43.760647 
L 148.357386 45.698477 
L 153.252659 48.045811 
L 155.700296 48.985556 
L 158.147933 49.677543 
L 161.207479 50.271823 
L 162.431297 50.454681 
L 162.431297 50.454681 
" clip-path="url(#p0c4f0ac64d)" style="fill: none; stroke: #116dc2; stroke-width: 1.5; stroke-linecap: square"/>
   </g>
   <g id="line2d_3">
    <path d="M 25.363636 49.177737 
L 25.975546 48.251285 
L 26.587455 47.073219 
L 27.199364 45.742109 
L 27.811273 44.339437 
L 28.423182 42.748979 
L 29.035092 40.865841 
L 29.647001 38.740574 
L 30.25891 36.465136 
L 30.870819 34.166956 
L 31.482728 32.001053 
L 32.094638 30.007611 
L 32.706547 28.012038 
L 33.318456 25.748555 
L 33.930365 23.144643 
L 34.542274 20.296319 
L 35.154184 17.148398 
L 35.766093 13.688291 
L 36.378002 10.406095 
L 36.989911 7.914528 
L 37.60182 6.276049 
L 38.21373 5.095918 
L 38.825639 3.973165 
L 39.437548 2.918668 
L 40.049457 2.470909 
L 40.661366 3.029246 
L 41.273276 4.243097 
L 41.885185 5.482685 
L 42.497094 6.760056 
L 43.109003 8.700273 
L 43.720912 11.515921 
L 44.332822 14.66473 
L 44.944731 17.699792 
L 45.55664 20.758485 
L 46.168549 24.032991 
L 46.780458 27.344837 
L 47.392368 30.396471 
L 48.004277 33.042784 
L 48.616186 35.387185 
L 49.228095 37.718798 
L 49.840004 40.113561 
L 50.451914 42.300746 
L 51.063823 44.064222 
L 51.675732 45.450988 
L 52.287641 46.597464 
L 52.89955 47.575815 
L 53.51146 48.396021 
L 54.123369 49.074535 
L 54.735278 49.649357 
" clip-path="url(#p0c4f0ac64d)" style="fill: none; stroke: #8a8a8a; stroke-width: 1.5; stroke-linecap: square"/>
   </g>
  </g>
 </g>
 <defs>
  <clipPath id="p0c4f0ac64d">
   <rect x="0" y="-0" width="558" height="54.36"/>
  </clipPath>
 </defs>
</svg>
