<?xml version="1.0" encoding="utf-8" standalone="no"?>
<!DOCTYPE svg PUBLIC "-//W3C//DTD SVG 1.1//EN"
  "http://www.w3.org/Graphics/SVG/1.1/DTD/svg11.dtd">
<svg xmlns:xlink="http://www.w3.org/1999/xlink" width="558pt" height="54.36pt" viewBox="0 0 558 54.36" xmlns="http://www.w3.org/2000/svg" version="1.1">
 <metadata>
  <rdf:RDF xmlns:dc="http://purl.org/dc/elements/1.1/" xmlns:cc="http://creativecommons.org/ns#" xmlns:rdf="http://www.w3.org/1999/02/22-rdf-syntax-ns#">
   <cc:Work>
    <dc:type rdf:resource="http://purl.org/dc/dcmitype/StillImage"/>
    <dc:date>2024-09-15T09:30:31.497563</dc:date>
    <dc:format>image/svg+xml</dc:format>
    <dc:creator>
     <cc:Agent>
      <dc:title>Matplotlib v3.5.2, https://matplotlib.org/</dc:title>
     </cc:Agent>
    </dc:creator>
   </cc:Work>
  </rdf:RDF>
 </metadata>
 <defs>
  <style type="text/css">*{stroke-linejoin: round; stroke-linecap: butt}</style>
 </defs>
 <g id="figure_1">
  <g id="patch_1">
   <path d="M 0 54.36 
L 558 54.36 
L 558 0 
L 0 0 
L 0 54.36 
z
" style="fill: none; opacity: 0"/>
  </g>
  <g id="axes_1">
   <g id="PolyCollection_1">
    <defs>
     <path id="m1d41d53724" d="M 398.01634 -2.470909 
L 398.01634 -3.741319 
L 398.628249 -3.81032 
L 399.240158 -3.882575 
L 399.852067 -3.958401 
L 400.463976 -4.038199 
L 401.075886 -4.122401 
L 401.687795 -4.211403 
L 402.299704 -4.305514 
L 402.911613 -4.404921 
L 403.523522 -4.509681 
L 404.135432 -4.619747 
L 404.747341 -4.735017 
L 405.35925 -4.855408 
L 405.971159 -4.980927 
L 406.583068 -5.111747 
L 407.194978 -5.248245 
L 407.806887 -5.391021 
L 408.418796 -5.540877 
L 409.030705 -5.698752 
L 409.642614 -5.865642 
L 410.254524 -6.04249 
L 410.866433 -6.230086 
L 411.478342 -6.428968 
L 412.090251 -6.63936 
L 412.70216 -6.861137 
L 413.31407 -7.093833 
L 413.925979 -7.336687 
L 414.537888 -7.588713 
L 415.149797 -7.848804 
L 415.761706 -8.115825 
L 416.373616 -8.388715 
L 416.985525 -8.666562 
L 417.597434 -8.948659 
L 418.209343 -9.234524 
L 418.821252 -9.523907 
L 419.433162 -9.816769 
L 420.045071 -10.113266 
L 420.65698 -10.413731 
L 421.268889 -10.718685 
L 421.880798 -11.028858 
L 422.492708 -11.345237 
L 423.104617 -11.669121 
L 423.716526 -12.002162 
L 424.328435 -12.346386 
L 424.940344 -12.704162 
L 425.552254 -13.078111 
L 426.164163 -13.470953 
L 426.776072 -13.8853 
L 427.387981 -14.323418 
L 427.99989 -14.786984 
L 428.6118 -15.276874 
L 429.223709 -15.793018 
L 429.835618 -16.334342 
L 430.447527 -16.898802 
L 431.059436 -17.483521 
L 431.671346 -18.084993 
L 432.283255 -18.69934 
L 432.895164 -19.322573 
L 433.507073 -19.950845 
L 434.118982 -20.580639 
L 434.730892 -21.208905 
L 435.342801 -21.833121 
L 435.95471 -22.451286 
L 436.566619 -23.061869 
L 437.178528 -23.663719 
L 437.790438 -24.255963 
L 438.402347 -24.837907 
L 439.014256 -25.408946 
L 439.626165 -25.968496 
L 440.238074 -26.515943 
L 440.849984 -27.05061 
L 441.461893 -27.571744 
L 442.073802 -28.078511 
L 442.685711 -28.570014 
L 443.29762 -29.045327 
L 443.90953 -29.503553 
L 444.521439 -29.943913 
L 445.133348 -30.365849 
L 445.745257 -30.769152 
L 446.357166 -31.154083 
L 446.969076 -31.521477 
L 447.580985 -31.8728 
L 448.192894 -32.210147 
L 448.804803 -32.536161 
L 449.416712 -32.853871 
L 450.028622 -33.166469 
L 450.640531 -33.477044 
L 451.25244 -33.788307 
L 451.864349 -34.102356 
L 452.476258 -34.420502 
L 453.088168 -34.743198 
L 453.700077 -35.070068 
L 454.311986 -35.400035 
L 454.923895 -35.73152 
L 455.535804 -36.062671 
L 456.147714 -36.391569 
L 456.759623 -36.716381 
L 457.371532 -37.035407 
L 457.983441 -37.347034 
L 458.59535 -37.649575 
L 459.20726 -37.941062 
L 459.819169 -38.219024 
L 460.431078 -38.480314 
L 461.042987 -38.721061 
L 461.654896 -38.936772 
L 462.266806 -39.122621 
L 462.878715 -39.273887 
L 463.490624 -39.386512 
L 464.102533 -39.457678 
L 464.714442 -39.486306 
L 465.326352 -39.473389 
L 465.938261 -39.422061 
L 466.55017 -39.337376 
L 467.162079 -39.225785 
L 467.773988 -39.094389 
L 468.385898 -38.950055 
L 468.997807 -38.798533 
L 469.609716 -38.643711 
L 470.221625 -38.487117 
L 470.833534 -38.327757 
L 471.445444 -38.162302 
L 472.057353 -37.985594 
L 472.669262 -37.791383 
L 473.281171 -37.573195 
L 473.89308 -37.325181 
L 474.50499 -37.042849 
L 475.116899 -36.723578 
L 475.728808 -36.366876 
L 476.340717 -35.974372 
L 476.952626 -35.549568 
L 477.564536 -35.097425 
L 478.176445 -34.62385 
L 478.788354 -34.135156 
L 479.400263 -33.637563 
L 480.012172 -33.136794 
L 480.624082 -32.637776 
L 481.235991 -32.144462 
L 481.8479 -31.659768 
L 482.459809 -31.185596 
L 483.071718 -30.722923 
L 483.683628 -30.271924 
L 484.295537 -29.832119 
L 484.907446 -29.402507 
L 485.519355 -28.98169 
L 486.131264 -28.567965 
L 486.743174 -28.159399 
L 487.355083 -27.753879 
L 487.966992 -27.34915 
L 488.578901 -26.942857 
L 489.19081 -26.532594 
L 489.80272 -26.115975 
L 490.414629 -25.690726 
L 491.026538 -25.2548 
L 491.638447 -24.806502 
L 492.250356 -24.344611 
L 492.862266 -23.868479 
L 493.474175 -23.378105 
L 494.086084 -22.874161 
L 494.697993 -22.357964 
L 495.309902 -21.831414 
L 495.921812 -21.29689 
L 496.533721 -20.757124 
L 497.14563 -20.21507 
L 497.757539 -19.673779 
L 498.369448 -19.136281 
L 498.981358 -18.605499 
L 499.593267 -18.084166 
L 500.205176 -17.574773 
L 500.817085 -17.079508 
L 501.428994 -16.600218 
L 502.040904 -16.138355 
L 502.652813 -15.694935 
L 503.264722 -15.270499 
L 503.876631 -14.865081 
L 504.48854 -14.478199 
L 505.10045 -14.108868 
L 505.712359 -13.755641 
L 506.324268 -13.41669 
L 506.936177 -13.089909 
L 507.548086 -12.773041 
L 508.159996 -12.463828 
L 508.771905 -12.160144 
L 509.383814 -11.860129 
L 509.995723 -11.562284 
L 510.607632 -11.265539 
L 511.219542 -10.969269 
L 511.831451 -10.673276 
L 512.44336 -10.377742 
L 513.055269 -10.08315 
L 513.667178 -9.790199 
L 514.279088 -9.499727 
L 514.890997 -9.212629 
L 515.502906 -8.929795 
L 516.114815 -8.652065 
L 516.726724 -8.380182 
L 517.338634 -8.114768 
L 517.950543 -7.856294 
L 518.562452 -7.605065 
L 519.174361 -7.361212 
L 519.78627 -7.124699 
L 520.39818 -6.895346 
L 521.010089 -6.67288 
L 521.621998 -6.456995 
L 522.233907 -6.247423 
L 522.845816 -6.044014 
L 523.457726 -5.846792 
L 524.069635 -5.655989 
L 524.681544 -5.472052 
L 525.293453 -5.295599 
L 525.905362 -5.127353 
L 526.517272 -4.968049 
L 527.129181 -4.818325 
L 527.74109 -4.678628 
L 528.352999 -4.549141 
L 528.964908 -4.429738 
L 529.576818 -4.319987 
L 530.188727 -4.219186 
L 530.800636 -4.126427 
L 531.412545 -4.040686 
L 532.024454 -3.960912 
L 532.636364 -3.886102 
L 532.636364 -2.470909 
L 532.636364 -2.470909 
L 532.024454 -2.470909 
L 531.412545 -2.470909 
L 530.800636 -2.470909 
L 530.188727 -2.470909 
L 529.576818 -2.470909 
L 528.964908 -2.470909 
L 528.352999 -2.470909 
L 527.74109 -2.470909 
L 527.129181 -2.470909 
L 526.517272 -2.470909 
L 525.905362 -2.470909 
L 525.293453 -2.470909 
L 524.681544 -2.470909 
L 524.069635 -2.470909 
L 523.457726 -2.470909 
L 522.845816 -2.470909 
L 522.233907 -2.470909 
L 521.621998 -2.470909 
L 521.010089 -2.470909 
L 520.39818 -2.470909 
L 519.78627 -2.470909 
L 519.174361 -2.470909 
L 518.562452 -2.470909 
L 517.950543 -2.470909 
L 517.338634 -2.470909 
L 516.726724 -2.470909 
L 516.114815 -2.470909 
L 515.502906 -2.470909 
L 514.890997 -2.470909 
L 514.279088 -2.470909 
L 513.667178 -2.470909 
L 513.055269 -2.470909 
L 512.44336 -2.470909 
L 511.831451 -2.470909 
L 511.219542 -2.470909 
L 510.607632 -2.470909 
L 509.995723 -2.470909 
L 509.383814 -2.470909 
L 508.771905 -2.470909 
L 508.159996 -2.470909 
L 507.548086 -2.470909 
L 506.936177 -2.470909 
L 506.324268 -2.470909 
L 505.712359 -2.470909 
L 505.10045 -2.470909 
L 504.48854 -2.470909 
L 503.876631 -2.470909 
L 503.264722 -2.470909 
L 502.652813 -2.470909 
L 502.040904 -2.470909 
L 501.428994 -2.470909 
L 500.817085 -2.470909 
L 500.205176 -2.470909 
L 499.593267 -2.470909 
L 498.981358 -2.470909 
L 498.369448 -2.470909 
L 497.757539 -2.470909 
L 497.14563 -2.470909 
L 496.533721 -2.470909 
L 495.921812 -2.470909 
L 495.309902 -2.470909 
L 494.697993 -2.470909 
L 494.086084 -2.470909 
L 493.474175 -2.470909 
L 492.862266 -2.470909 
L 492.250356 -2.470909 
L 491.638447 -2.470909 
L 491.026538 -2.470909 
L 490.414629 -2.470909 
L 489.80272 -2.470909 
L 489.19081 -2.470909 
L 488.578901 -2.470909 
L 487.966992 -2.470909 
L 487.355083 -2.470909 
L 486.743174 -2.470909 
L 486.131264 -2.470909 
L 485.519355 -2.470909 
L 484.907446 -2.470909 
L 484.295537 -2.470909 
L 483.683628 -2.470909 
L 483.071718 -2.470909 
L 482.459809 -2.470909 
L 481.8479 -2.470909 
L 481.235991 -2.470909 
L 480.624082 -2.470909 
L 480.012172 -2.470909 
L 479.400263 -2.470909 
L 478.788354 -2.470909 
L 478.176445 -2.470909 
L 477.564536 -2.470909 
L 476.952626 -2.470909 
L 476.340717 -2.470909 
L 475.728808 -2.470909 
L 475.116899 -2.470909 
L 474.50499 -2.470909 
L 473.89308 -2.470909 
L 473.281171 -2.470909 
L 472.669262 -2.470909 
L 472.057353 -2.470909 
L 471.445444 -2.470909 
L 470.833534 -2.470909 
L 470.221625 -2.470909 
L 469.609716 -2.470909 
L 468.997807 -2.470909 
L 468.385898 -2.470909 
L 467.773988 -2.470909 
L 467.162079 -2.470909 
L 466.55017 -2.470909 
L 465.938261 -2.470909 
L 465.326352 -2.470909 
L 464.714442 -2.470909 
L 464.102533 -2.470909 
L 463.490624 -2.470909 
L 462.878715 -2.470909 
L 462.266806 -2.470909 
L 461.654896 -2.470909 
L 461.042987 -2.470909 
L 460.431078 -2.470909 
L 459.819169 -2.470909 
L 459.20726 -2.470909 
L 458.59535 -2.470909 
L 457.983441 -2.470909 
L 457.371532 -2.470909 
L 456.759623 -2.470909 
L 456.147714 -2.470909 
L 455.535804 -2.470909 
L 454.923895 -2.470909 
L 454.311986 -2.470909 
L 453.700077 -2.470909 
L 453.088168 -2.470909 
L 452.476258 -2.470909 
L 451.864349 -2.470909 
L 451.25244 -2.470909 
L 450.640531 -2.470909 
L 450.028622 -2.470909 
L 449.416712 -2.470909 
L 448.804803 -2.470909 
L 448.192894 -2.470909 
L 447.580985 -2.470909 
L 446.969076 -2.470909 
L 446.357166 -2.470909 
L 445.745257 -2.470909 
L 445.133348 -2.470909 
L 444.521439 -2.470909 
L 443.90953 -2.470909 
L 443.29762 -2.470909 
L 442.685711 -2.470909 
L 442.073802 -2.470909 
L 441.461893 -2.470909 
L 440.849984 -2.470909 
L 440.238074 -2.470909 
L 439.626165 -2.470909 
L 439.014256 -2.470909 
L 438.402347 -2.470909 
L 437.790438 -2.470909 
L 437.178528 -2.470909 
L 436.566619 -2.470909 
L 435.95471 -2.470909 
L 435.342801 -2.470909 
L 434.730892 -2.470909 
L 434.118982 -2.470909 
L 433.507073 -2.470909 
L 432.895164 -2.470909 
L 432.283255 -2.470909 
L 431.671346 -2.470909 
L 431.059436 -2.470909 
L 430.447527 -2.470909 
L 429.835618 -2.470909 
L 429.223709 -2.470909 
L 428.6118 -2.470909 
L 427.99989 -2.470909 
L 427.387981 -2.470909 
L 426.776072 -2.470909 
L 426.164163 -2.470909 
L 425.552254 -2.470909 
L 424.940344 -2.470909 
L 424.328435 -2.470909 
L 423.716526 -2.470909 
L 423.104617 -2.470909 
L 422.492708 -2.470909 
L 421.880798 -2.470909 
L 421.268889 -2.470909 
L 420.65698 -2.470909 
L 420.045071 -2.470909 
L 419.433162 -2.470909 
L 418.821252 -2.470909 
L 418.209343 -2.470909 
L 417.597434 -2.470909 
L 416.985525 -2.470909 
L 416.373616 -2.470909 
L 415.761706 -2.470909 
L 415.149797 -2.470909 
L 414.537888 -2.470909 
L 413.925979 -2.470909 
L 413.31407 -2.470909 
L 412.70216 -2.470909 
L 412.090251 -2.470909 
L 411.478342 -2.470909 
L 410.866433 -2.470909 
L 410.254524 -2.470909 
L 409.642614 -2.470909 
L 409.030705 -2.470909 
L 408.418796 -2.470909 
L 407.806887 -2.470909 
L 407.194978 -2.470909 
L 406.583068 -2.470909 
L 405.971159 -2.470909 
L 405.35925 -2.470909 
L 404.747341 -2.470909 
L 404.135432 -2.470909 
L 403.523522 -2.470909 
L 402.911613 -2.470909 
L 402.299704 -2.470909 
L 401.687795 -2.470909 
L 401.075886 -2.470909 
L 400.463976 -2.470909 
L 399.852067 -2.470909 
L 399.240158 -2.470909 
L 398.628249 -2.470909 
L 398.01634 -2.470909 
z
" style="stroke: #cf1313; stroke-opacity: 0.2"/>
    </defs>
    <g clip-path="url(#pbf05e44529)">
     <use xlink:href="#m1d41d53724" x="0" y="54.36" style="fill: #cf1313; fill-opacity: 0.2; stroke: #cf1313; stroke-opacity: 0.2"/>
    </g>
   </g>
   <g id="PolyCollection_2">
    <defs>
     <path id="mf72226a37b" d="M 48.616186 -2.470909 
L 48.616186 -3.893151 
L 49.228095 -3.969437 
L 49.840004 -4.047917 
L 50.451914 -4.129321 
L 51.063823 -4.214856 
L 51.675732 -4.306217 
L 52.287641 -4.405526 
L 52.89955 -4.515182 
L 53.51146 -4.637631 
L 54.123369 -4.77511 
L 54.735278 -4.929381 
L 55.347187 -5.101538 
L 55.959096 -5.291925 
L 56.571006 -5.500181 
L 57.182915 -5.725432 
L 57.794824 -5.966561 
L 58.406733 -6.222521 
L 59.018642 -6.492587 
L 59.630552 -6.776489 
L 60.242461 -7.074368 
L 60.85437 -7.386565 
L 61.466279 -7.713266 
L 62.078188 -8.054113 
L 62.690098 -8.407869 
L 63.302007 -8.77226 
L 63.913916 -9.14405 
L 64.525825 -9.519383 
L 65.137734 -9.894334 
L 65.749644 -10.265577 
L 66.361553 -10.631019 
L 66.973462 -10.990272 
L 67.585371 -11.344842 
L 68.19728 -11.697983 
L 68.80919 -12.054241 
L 69.421099 -12.418768 
L 70.033008 -12.796543 
L 70.644917 -13.191654 
L 71.256826 -13.606779 
L 71.868736 -14.042964 
L 72.480645 -14.499707 
L 73.092554 -14.975329 
L 73.704463 -15.467509 
L 74.316372 -15.973875 
L 74.928282 -16.492495 
L 75.540191 -17.022184 
L 76.1521 -17.562566 
L 76.764009 -18.11391 
L 77.375918 -18.676787 
L 77.987828 -19.251656 
L 78.599737 -19.838483 
L 79.211646 -20.436458 
L 79.823555 -21.043882 
L 80.435464 -21.658214 
L 81.047374 -22.276276 
L 81.659283 -22.894553 
L 82.271192 -23.509561 
L 82.883101 -24.118231 
L 83.49501 -24.718283 
L 84.10692 -25.308564 
L 84.718829 -25.889314 
L 85.330738 -26.462328 
L 85.942647 -27.030969 
L 86.554556 -27.599979 
L 87.166466 -28.175093 
L 87.778375 -28.762439 
L 88.390284 -29.367814 
L 89.002193 -29.995916 
L 89.614102 -30.649666 
L 90.226012 -31.329735 
L 90.837921 -32.034337 
L 91.44983 -32.759326 
L 92.061739 -33.49853 
L 92.673648 -34.244229 
L 93.285558 -34.987664 
L 93.897467 -35.719484 
L 94.509376 -36.430076 
L 95.121285 -37.10979 
L 95.733194 -37.749118 
L 96.345104 -38.338915 
L 96.957013 -38.870711 
L 97.568922 -39.337163 
L 98.180831 -39.732594 
L 98.79274 -40.05355 
L 99.40465 -40.299241 
L 100.016559 -40.471777 
L 100.628468 -40.576104 
L 101.240377 -40.619662 
L 101.852286 -40.611796 
L 102.464196 -40.56305 
L 103.076105 -40.484446 
L 103.688014 -40.386862 
L 104.299923 -40.280553 
L 104.911832 -40.174802 
L 105.523742 -40.077658 
L 106.135651 -39.995677 
L 106.74756 -39.933622 
L 107.359469 -39.894101 
L 107.971378 -39.877187 
L 108.583288 -39.880107 
L 109.195197 -39.897099 
L 109.807106 -39.919524 
L 110.419015 -39.93629 
L 111.030924 -39.934579 
L 111.642834 -39.900814 
L 112.254743 -39.821765 
L 112.866652 -39.685671 
L 113.478561 -39.483241 
L 114.09047 -39.208445 
L 114.70238 -38.858998 
L 115.314289 -38.436511 
L 115.926198 -37.946274 
L 116.538107 -37.396719 
L 117.150016 -36.798589 
L 117.761926 -36.163919 
L 118.373835 -35.504922 
L 118.985744 -34.832918 
L 119.597653 -34.15743 
L 120.209562 -33.485551 
L 120.821472 -32.821659 
L 121.433381 -32.167503 
L 122.04529 -31.522597 
L 122.657199 -30.884865 
L 123.269108 -30.251393 
L 123.881018 -29.619169 
L 124.492927 -28.985708 
L 125.104836 -28.349487 
L 125.716745 -27.710166 
L 126.328654 -27.068602 
L 126.940564 -26.426717 
L 127.552473 -25.787255 
L 128.164382 -25.153497 
L 128.776291 -24.528956 
L 129.3882 -23.917082 
L 130.00011 -23.320974 
L 130.612019 -22.743104 
L 131.223928 -22.185049 
L 131.835837 -21.647264 
L 132.447746 -21.128921 
L 133.059656 -20.62786 
L 133.671565 -20.140681 
L 134.283474 -19.663011 
L 134.895383 -19.189907 
L 135.507292 -18.716367 
L 136.119202 -18.237857 
L 136.731111 -17.750788 
L 137.34302 -17.252849 
L 137.954929 -16.743173 
L 138.566838 -16.222313 
L 139.178748 -15.692075 
L 139.790657 -15.155243 
L 140.402566 -14.61527 
L 141.014475 -14.075964 
L 141.626384 -13.541212 
L 142.238294 -13.014751 
L 142.850203 -12.499986 
L 143.462112 -11.999855 
L 144.074021 -11.516739 
L 144.68593 -11.052418 
L 145.29784 -10.608068 
L 145.909749 -10.184307 
L 146.521658 -9.781251 
L 147.133567 -9.3986 
L 147.745476 -9.035704 
L 148.357386 -8.691623 
L 148.969295 -8.365164 
L 149.581204 -8.054911 
L 150.193113 -7.75925 
L 150.805022 -7.476426 
L 151.416932 -7.204623 
L 152.028841 -6.942081 
L 152.64075 -6.687246 
L 153.252659 -6.438916 
L 153.864568 -6.196379 
L 154.476478 -5.959489 
L 155.088387 -5.728679 
L 155.700296 -5.504891 
L 156.312205 -5.289444 
L 156.924114 -5.083842 
L 157.536024 -4.88958 
L 158.147933 -4.707954 
L 158.759842 -4.539923 
L 159.371751 -4.386025 
L 159.98366 -4.246355 
L 160.59557 -4.120593 
L 161.207479 -4.008075 
L 161.819388 -3.907868 
L 162.431297 -3.818858 
L 162.431297 -2.470909 
L 162.431297 -2.470909 
L 161.819388 -2.470909 
L 161.207479 -2.470909 
L 160.59557 -2.470909 
L 159.98366 -2.470909 
L 159.371751 -2.470909 
L 158.759842 -2.470909 
L 158.147933 -2.470909 
L 157.536024 -2.470909 
L 156.924114 -2.470909 
L 156.312205 -2.470909 
L 155.700296 -2.470909 
L 155.088387 -2.470909 
L 154.476478 -2.470909 
L 153.864568 -2.470909 
L 153.252659 -2.470909 
L 152.64075 -2.470909 
L 152.028841 -2.470909 
L 151.416932 -2.470909 
L 150.805022 -2.470909 
L 150.193113 -2.470909 
L 149.581204 -2.470909 
L 148.969295 -2.470909 
L 148.357386 -2.470909 
L 147.745476 -2.470909 
L 147.133567 -2.470909 
L 146.521658 -2.470909 
L 145.909749 -2.470909 
L 145.29784 -2.470909 
L 144.68593 -2.470909 
L 144.074021 -2.470909 
L 143.462112 -2.470909 
L 142.850203 -2.470909 
L 142.238294 -2.470909 
L 141.626384 -2.470909 
L 141.014475 -2.470909 
L 140.402566 -2.470909 
L 139.790657 -2.470909 
L 139.178748 -2.470909 
L 138.566838 -2.470909 
L 137.954929 -2.470909 
L 137.34302 -2.470909 
L 136.731111 -2.470909 
L 136.119202 -2.470909 
L 135.507292 -2.470909 
L 134.895383 -2.470909 
L 134.283474 -2.470909 
L 133.671565 -2.470909 
L 133.059656 -2.470909 
L 132.447746 -2.470909 
L 131.835837 -2.470909 
L 131.223928 -2.470909 
L 130.612019 -2.470909 
L 130.00011 -2.470909 
L 129.3882 -2.470909 
L 128.776291 -2.470909 
L 128.164382 -2.470909 
L 127.552473 -2.470909 
L 126.940564 -2.470909 
L 126.328654 -2.470909 
L 125.716745 -2.470909 
L 125.104836 -2.470909 
L 124.492927 -2.470909 
L 123.881018 -2.470909 
L 123.269108 -2.470909 
L 122.657199 -2.470909 
L 122.04529 -2.470909 
L 121.433381 -2.470909 
L 120.821472 -2.470909 
L 120.209562 -2.470909 
L 119.597653 -2.470909 
L 118.985744 -2.470909 
L 118.373835 -2.470909 
L 117.761926 -2.470909 
L 117.150016 -2.470909 
L 116.538107 -2.470909 
L 115.926198 -2.470909 
L 115.314289 -2.470909 
L 114.70238 -2.470909 
L 114.09047 -2.470909 
L 113.478561 -2.470909 
L 112.866652 -2.470909 
L 112.254743 -2.470909 
L 111.642834 -2.470909 
L 111.030924 -2.470909 
L 110.419015 -2.470909 
L 109.807106 -2.470909 
L 109.195197 -2.470909 
L 108.583288 -2.470909 
L 107.971378 -2.470909 
L 107.359469 -2.470909 
L 106.74756 -2.470909 
L 106.135651 -2.470909 
L 105.523742 -2.470909 
L 104.911832 -2.470909 
L 104.299923 -2.470909 
L 103.688014 -2.470909 
L 103.076105 -2.470909 
L 102.464196 -2.470909 
L 101.852286 -2.470909 
L 101.240377 -2.470909 
L 100.628468 -2.470909 
L 100.016559 -2.470909 
L 99.40465 -2.470909 
L 98.79274 -2.470909 
L 98.180831 -2.470909 
L 97.568922 -2.470909 
L 96.957013 -2.470909 
L 96.345104 -2.470909 
L 95.733194 -2.470909 
L 95.121285 -2.470909 
L 94.509376 -2.470909 
L 93.897467 -2.470909 
L 93.285558 -2.470909 
L 92.673648 -2.470909 
L 92.061739 -2.470909 
L 91.44983 -2.470909 
L 90.837921 -2.470909 
L 90.226012 -2.470909 
L 89.614102 -2.470909 
L 89.002193 -2.470909 
L 88.390284 -2.470909 
L 87.778375 -2.470909 
L 87.166466 -2.470909 
L 86.554556 -2.470909 
L 85.942647 -2.470909 
L 85.330738 -2.470909 
L 84.718829 -2.470909 
L 84.10692 -2.470909 
L 83.49501 -2.470909 
L 82.883101 -2.470909 
L 82.271192 -2.470909 
L 81.659283 -2.470909 
L 81.047374 -2.470909 
L 80.435464 -2.470909 
L 79.823555 -2.470909 
L 79.211646 -2.470909 
L 78.599737 -2.470909 
L 77.987828 -2.470909 
L 77.375918 -2.470909 
L 76.764009 -2.470909 
L 76.1521 -2.470909 
L 75.540191 -2.470909 
L 74.928282 -2.470909 
L 74.316372 -2.470909 
L 73.704463 -2.470909 
L 73.092554 -2.470909 
L 72.480645 -2.470909 
L 71.868736 -2.470909 
L 71.256826 -2.470909 
L 70.644917 -2.470909 
L 70.033008 -2.470909 
L 69.421099 -2.470909 
L 68.80919 -2.470909 
L 68.19728 -2.470909 
L 67.585371 -2.470909 
L 66.973462 -2.470909 
L 66.361553 -2.470909 
L 65.749644 -2.470909 
L 65.137734 -2.470909 
L 64.525825 -2.470909 
L 63.913916 -2.470909 
L 63.302007 -2.470909 
L 62.690098 -2.470909 
L 62.078188 -2.470909 
L 61.466279 -2.470909 
L 60.85437 -2.470909 
L 60.242461 -2.470909 
L 59.630552 -2.470909 
L 59.018642 -2.470909 
L 58.406733 -2.470909 
L 57.794824 -2.470909 
L 57.182915 -2.470909 
L 56.571006 -2.470909 
L 55.959096 -2.470909 
L 55.347187 -2.470909 
L 54.735278 -2.470909 
L 54.123369 -2.470909 
L 53.51146 -2.470909 
L 52.89955 -2.470909 
L 52.287641 -2.470909 
L 51.675732 -2.470909 
L 51.063823 -2.470909 
L 50.451914 -2.470909 
L 49.840004 -2.470909 
L 49.228095 -2.470909 
L 48.616186 -2.470909 
z
" style="stroke: #116dc2; stroke-opacity: 0.2"/>
    </defs>
    <g clip-path="url(#pbf05e44529)">
     <use xlink:href="#mf72226a37b" x="0" y="54.36" style="fill: #116dc2; fill-opacity: 0.2; stroke: #116dc2; stroke-opacity: 0.2"/>
    </g>
   </g>
   <g id="PolyCollection_3">
    <defs>
     <path id="meeb86661ec" d="M 25.363636 -2.470909 
L 25.363636 -5.028812 
L 25.975546 -5.68331 
L 26.587455 -6.354993 
L 27.199364 -7.170775 
L 27.811273 -8.266861 
L 28.423182 -9.725544 
L 29.035092 -11.460999 
L 29.647001 -13.257222 
L 30.25891 -15.056343 
L 30.870819 -17.047914 
L 31.482728 -19.427654 
L 32.094638 -22.242593 
L 32.706547 -25.41934 
L 33.318456 -28.698759 
L 33.930365 -31.712114 
L 34.542274 -34.392851 
L 35.154184 -36.949715 
L 35.766093 -39.400557 
L 36.378002 -41.751282 
L 36.989911 -44.342418 
L 37.60182 -47.247642 
L 38.21373 -49.810636 
L 38.825639 -51.3647 
L 39.437548 -51.889091 
L 40.049457 -51.783346 
L 40.661366 -51.405491 
L 41.273276 -50.885461 
L 41.885185 -50.201968 
L 42.497094 -49.213674 
L 43.109003 -47.712874 
L 43.720912 -45.651203 
L 44.332822 -43.148295 
L 44.944731 -40.371632 
L 45.55664 -37.488464 
L 46.168549 -34.487782 
L 46.780458 -31.246195 
L 47.392368 -27.86469 
L 48.004277 -24.600339 
L 48.616186 -21.501168 
L 49.228095 -18.50849 
L 49.840004 -15.866132 
L 50.451914 -13.909091 
L 51.063823 -12.553496 
L 51.675732 -11.385417 
L 52.287641 -10.0783 
L 52.89955 -8.612532 
L 53.51146 -7.216523 
L 54.123369 -6.100409 
L 54.735278 -5.259613 
L 54.735278 -2.470909 
L 54.735278 -2.470909 
L 54.123369 -2.470909 
L 53.51146 -2.470909 
L 52.89955 -2.470909 
L 52.287641 -2.470909 
L 51.675732 -2.470909 
L 51.063823 -2.470909 
L 50.451914 -2.470909 
L 49.840004 -2.470909 
L 49.228095 -2.470909 
L 48.616186 -2.470909 
L 48.004277 -2.470909 
L 47.392368 -2.470909 
L 46.780458 -2.470909 
L 46.168549 -2.470909 
L 45.55664 -2.470909 
L 44.944731 -2.470909 
L 44.332822 -2.470909 
L 43.720912 -2.470909 
L 43.109003 -2.470909 
L 42.497094 -2.470909 
L 41.885185 -2.470909 
L 41.273276 -2.470909 
L 40.661366 -2.470909 
L 40.049457 -2.470909 
L 39.437548 -2.470909 
L 38.825639 -2.470909 
L 38.21373 -2.470909 
L 37.60182 -2.470909 
L 36.989911 -2.470909 
L 36.378002 -2.470909 
L 35.766093 -2.470909 
L 35.154184 -2.470909 
L 34.542274 -2.470909 
L 33.930365 -2.470909 
L 33.318456 -2.470909 
L 32.706547 -2.470909 
L 32.094638 -2.470909 
L 31.482728 -2.470909 
L 30.870819 -2.470909 
L 30.25891 -2.470909 
L 29.647001 -2.470909 
L 29.035092 -2.470909 
L 28.423182 -2.470909 
L 27.811273 -2.470909 
L 27.199364 -2.470909 
L 26.587455 -2.470909 
L 25.975546 -2.470909 
L 25.363636 -2.470909 
z
" style="stroke: #8a8a8a; stroke-opacity: 0.2"/>
    </defs>
    <g clip-path="url(#pbf05e44529)">
     <use xlink:href="#meeb86661ec" x="0" y="54.36" style="fill: #8a8a8a; fill-opacity: 0.2; stroke: #8a8a8a; stroke-opacity: 0.2"/>
    </g>
   </g>
   <g id="line2d_1">
    <path d="M 398.01634 50.618681 
L 402.911613 49.955079 
L 407.194978 49.111755 
L 410.254524 48.31751 
L 413.31407 47.266167 
L 416.985525 45.693438 
L 421.880798 43.331142 
L 424.940344 41.655838 
L 427.387981 40.036582 
L 429.223709 38.566982 
L 431.671346 36.275007 
L 439.626165 28.391504 
L 442.685711 25.789986 
L 445.133348 23.994151 
L 447.580985 22.4872 
L 451.25244 20.571693 
L 461.042987 15.638939 
L 462.878715 15.086113 
L 464.102533 14.902322 
L 465.326352 14.886611 
L 467.162079 15.134215 
L 470.833534 16.032243 
L 473.281171 16.786805 
L 475.116899 17.636422 
L 476.952626 18.810432 
L 479.400263 20.722437 
L 483.683628 24.088076 
L 487.355083 26.606121 
L 491.638447 29.553498 
L 494.697993 32.002036 
L 502.040904 38.221645 
L 504.48854 39.881801 
L 506.936177 41.270091 
L 511.831451 43.686724 
L 517.338634 46.245232 
L 521.010089 47.68712 
L 524.681544 48.887948 
L 527.74109 49.681372 
L 530.800636 50.233573 
L 532.636364 50.473898 
L 532.636364 50.473898 
" clip-path="url(#pbf05e44529)" style="fill: none; stroke: #cf1313; stroke-width: 1.5; stroke-linecap: square"/>
   </g>
   <g id="line2d_2">
    <path d="M 48.616186 50.466849 
L 52.89955 49.844818 
L 55.347187 49.258462 
L 57.794824 48.393439 
L 60.242461 47.285632 
L 62.690098 45.952131 
L 71.256826 40.753221 
L 73.704463 38.892491 
L 76.764009 36.24609 
L 79.823555 33.316118 
L 85.942647 27.329031 
L 89.002193 24.364084 
L 91.44983 21.600674 
L 95.121285 17.25021 
L 96.957013 15.489289 
L 98.180831 14.627406 
L 99.40465 14.060759 
L 100.628468 13.783896 
L 101.852286 13.748204 
L 103.688014 13.973138 
L 106.74756 14.426378 
L 108.583288 14.479893 
L 111.642834 14.459186 
L 112.866652 14.674329 
L 114.09047 15.151555 
L 115.314289 15.923489 
L 116.538107 16.963281 
L 118.373835 18.855078 
L 123.881018 24.740831 
L 130.612019 31.616896 
L 133.059656 33.73214 
L 139.790657 39.204757 
L 144.074021 42.843261 
L 146.521658 44.578749 
L 148.969295 45.994836 
L 151.416932 47.155377 
L 155.088387 48.631321 
L 158.147933 49.652046 
L 160.59557 50.239407 
L 162.431297 50.541142 
L 162.431297 50.541142 
" clip-path="url(#pbf05e44529)" style="fill: none; stroke: #116dc2; stroke-width: 1.5; stroke-linecap: square"/>
   </g>
   <g id="line2d_3">
    <path d="M 25.363636 49.331188 
L 25.975546 48.67669 
L 26.587455 48.005007 
L 27.199364 47.189225 
L 27.811273 46.093139 
L 28.423182 44.634456 
L 29.035092 42.899001 
L 29.647001 41.102778 
L 30.25891 39.303657 
L 30.870819 37.312086 
L 31.482728 34.932346 
L 32.094638 32.117407 
L 32.706547 28.94066 
L 33.318456 25.661241 
L 33.930365 22.647886 
L 34.542274 19.967149 
L 35.154184 17.410285 
L 35.766093 14.959443 
L 36.378002 12.608718 
L 36.989911 10.017582 
L 37.60182 7.112358 
L 38.21373 4.549364 
L 38.825639 2.9953 
L 39.437548 2.470909 
L 40.049457 2.576654 
L 40.661366 2.954509 
L 41.273276 3.474539 
L 41.885185 4.158032 
L 42.497094 5.146326 
L 43.109003 6.647126 
L 43.720912 8.708797 
L 44.332822 11.211705 
L 44.944731 13.988368 
L 45.55664 16.871536 
L 46.168549 19.872218 
L 46.780458 23.113805 
L 47.392368 26.49531 
L 48.004277 29.759661 
L 48.616186 32.858832 
L 49.228095 35.85151 
L 49.840004 38.493868 
L 50.451914 40.450909 
L 51.063823 41.806504 
L 51.675732 42.974583 
L 52.287641 44.2817 
L 52.89955 45.747468 
L 53.51146 47.143477 
L 54.123369 48.259591 
L 54.735278 49.100387 
" clip-path="url(#pbf05e44529)" style="fill: none; stroke: #8a8a8a; stroke-width: 1.5; stroke-linecap: square"/>
   </g>
  </g>
 </g>
 <defs>
  <clipPath id="pbf05e44529">
   <rect x="0" y="-0" width="558" height="54.36"/>
  </clipPath>
 </defs>
</svg>
