<?xml version="1.0" encoding="utf-8" standalone="no"?>
<!DOCTYPE svg PUBLIC "-//W3C//DTD SVG 1.1//EN"
  "http://www.w3.org/Graphics/SVG/1.1/DTD/svg11.dtd">
<svg xmlns:xlink="http://www.w3.org/1999/xlink" width="558pt" height="54.36pt" viewBox="0 0 558 54.36" xmlns="http://www.w3.org/2000/svg" version="1.1">
 <metadata>
  <rdf:RDF xmlns:dc="http://purl.org/dc/elements/1.1/" xmlns:cc="http://creativecommons.org/ns#" xmlns:rdf="http://www.w3.org/1999/02/22-rdf-syntax-ns#">
   <cc:Work>
    <dc:type rdf:resource="http://purl.org/dc/dcmitype/StillImage"/>
    <dc:date>2024-09-14T12:46:54.220783</dc:date>
    <dc:format>image/svg+xml</dc:format>
    <dc:creator>
     <cc:Agent>
      <dc:title>Matplotlib v3.5.2, https://matplotlib.org/</dc:title>
     </cc:Agent>
    </dc:creator>
   </cc:Work>
  </rdf:RDF>
 </metadata>
 <defs>
  <style type="text/css">*{stroke-linejoin: round; stroke-linecap: butt}</style>
 </defs>
 <g id="figure_1">
  <g id="patch_1">
   <path d="M 0 54.36 
L 558 54.36 
L 558 0 
L 0 0 
L 0 54.36 
z
" style="fill: none; opacity: 0"/>
  </g>
  <g id="axes_1">
   <g id="PolyCollection_1">
    <defs>
     <path id="m45e24e08d8" d="M 359.383217 -2.470909 
L 359.383217 -3.901511 
L 360.163636 -3.999802 
L 360.944056 -4.107839 
L 361.724476 -4.226313 
L 362.504895 -4.355641 
L 363.285315 -4.495913 
L 364.065734 -4.646882 
L 364.846154 -4.807962 
L 365.626573 -4.978268 
L 366.406993 -5.156676 
L 367.187413 -5.341905 
L 367.967832 -5.532613 
L 368.748252 -5.727505 
L 369.528671 -5.925424 
L 370.309091 -6.125437 
L 371.08951 -6.326886 
L 371.86993 -6.529419 
L 372.65035 -6.732985 
L 373.430769 -6.937792 
L 374.211189 -7.144259 
L 374.991608 -7.352938 
L 375.772028 -7.564446 
L 376.552448 -7.779404 
L 377.332867 -7.99839 
L 378.113287 -8.221914 
L 378.893706 -8.450419 
L 379.674126 -8.684285 
L 380.454545 -8.923847 
L 381.234965 -9.169401 
L 382.015385 -9.421197 
L 382.795804 -9.679407 
L 383.576224 -9.944083 
L 384.356643 -10.215083 
L 385.137063 -10.492007 
L 385.917483 -10.774144 
L 386.697902 -11.060436 
L 387.478322 -11.349497 
L 388.258741 -11.639678 
L 389.039161 -11.929184 
L 389.81958 -12.216248 
L 390.6 -12.499328 
L 391.38042 -12.777331 
L 392.160839 -13.049819 
L 392.941259 -13.317183 
L 393.721678 -13.580761 
L 394.502098 -13.842874 
L 395.282517 -14.106775 
L 396.062937 -14.376503 
L 396.843357 -14.656659 
L 397.623776 -14.952102 
L 398.404196 -15.26761 
L 399.184615 -15.607516 
L 399.965035 -15.975365 
L 400.745455 -16.373616 
L 401.525874 -16.803421 
L 402.306294 -17.264503 
L 403.086713 -17.755139 
L 403.867133 -18.27226 
L 404.647552 -18.811655 
L 405.427972 -19.36825 
L 406.208392 -19.936451 
L 406.988811 -20.510506 
L 407.769231 -21.084859 
L 408.54965 -21.654461 
L 409.33007 -22.215017 
L 410.11049 -22.763159 
L 410.890909 -23.296525 
L 411.671329 -23.813769 
L 412.451748 -24.314492 
L 413.232168 -24.799128 
L 414.012587 -25.26879 
L 414.793007 -25.7251 
L 415.573427 -26.170019 
L 416.353846 -26.605682 
L 417.134266 -27.034256 
L 417.914685 -27.457819 
L 418.695105 -27.878268 
L 419.475524 -28.297256 
L 420.255944 -28.716155 
L 421.036364 -29.136055 
L 421.816783 -29.557768 
L 422.597203 -29.981871 
L 423.377622 -30.40874 
L 424.158042 -30.838605 
L 424.938462 -31.271584 
L 425.718881 -31.70772 
L 426.499301 -32.146988 
L 427.27972 -32.589294 
L 428.06014 -33.034431 
L 428.840559 -33.482029 
L 429.620979 -33.931466 
L 430.401399 -34.381778 
L 431.181818 -34.831555 
L 431.962238 -35.27885 
L 432.742657 -35.721116 
L 433.523077 -36.155189 
L 434.303497 -36.577334 
L 435.083916 -36.983358 
L 435.864336 -37.36881 
L 436.644755 -37.729238 
L 437.425175 -38.060489 
L 438.205594 -38.359027 
L 438.986014 -38.622203 
L 439.766434 -38.848465 
L 440.546853 -39.03745 
L 441.327273 -39.189942 
L 442.107692 -39.307694 
L 442.888112 -39.393141 
L 443.668531 -39.449023 
L 444.448951 -39.477991 
L 445.229371 -39.482238 
L 446.00979 -39.463227 
L 446.79021 -39.421535 
L 447.570629 -39.356855 
L 448.351049 -39.268144 
L 449.131469 -39.153893 
L 449.911888 -39.012483 
L 450.692308 -38.842581 
L 451.472727 -38.643508 
L 452.253147 -38.415554 
L 453.033566 -38.160178 
L 453.813986 -37.880094 
L 454.594406 -37.579217 
L 455.374825 -37.262486 
L 456.155245 -36.935576 
L 456.935664 -36.604529 
L 457.716084 -36.275334 
L 458.496503 -35.953496 
L 459.276923 -35.643628 
L 460.057343 -35.349101 
L 460.837762 -35.071782 
L 461.618182 -34.811889 
L 462.398601 -34.567957 
L 463.179021 -34.33694 
L 463.959441 -34.114417 
L 464.73986 -33.894901 
L 465.52028 -33.672201 
L 466.300699 -33.439834 
L 467.081119 -33.191426 
L 467.861538 -32.921102 
L 468.641958 -32.623827 
L 469.422378 -32.295682 
L 470.202797 -31.934079 
L 470.983217 -31.537887 
L 471.763636 -31.107479 
L 472.544056 -30.64469 
L 473.324476 -30.152683 
L 474.104895 -29.635729 
L 474.885315 -29.098906 
L 475.665734 -28.547737 
L 476.446154 -27.987799 
L 477.226573 -27.424325 
L 478.006993 -26.861867 
L 478.787413 -26.304031 
L 479.567832 -25.753336 
L 480.348252 -25.211205 
L 481.128671 -24.678087 
L 481.909091 -24.153689 
L 482.68951 -23.637273 
L 483.46993 -23.127978 
L 484.25035 -22.625099 
L 485.030769 -22.128298 
L 485.811189 -21.637699 
L 486.591608 -21.153876 
L 487.372028 -20.677735 
L 488.152448 -20.210326 
L 488.932867 -19.752619 
L 489.713287 -19.3053 
L 490.493706 -18.868606 
L 491.274126 -18.442247 
L 492.054545 -18.025407 
L 492.834965 -17.616831 
L 493.615385 -17.214977 
L 494.395804 -16.818209 
L 495.176224 -16.424987 
L 495.956643 -16.034047 
L 496.737063 -15.644532 
L 497.517483 -15.256054 
L 498.297902 -14.868705 
L 499.078322 -14.482993 
L 499.858741 -14.099741 
L 500.639161 -13.719944 
L 501.41958 -13.344625 
L 502.2 -12.974705 
L 502.98042 -12.61089 
L 503.760839 -12.253616 
L 504.541259 -11.903034 
L 505.321678 -11.559041 
L 506.102098 -11.221352 
L 506.882517 -10.889599 
L 507.662937 -10.563436 
L 508.443357 -10.242636 
L 509.223776 -9.927168 
L 510.004196 -9.617241 
L 510.784615 -9.313316 
L 511.565035 -9.016075 
L 512.345455 -8.726366 
L 513.125874 -8.445126 
L 513.906294 -8.173296 
L 514.686713 -7.91173 
L 515.467133 -7.661125 
L 516.247552 -7.421962 
L 517.027972 -7.194468 
L 517.808392 -6.978601 
L 518.588811 -6.774065 
L 519.369231 -6.580326 
L 520.14965 -6.39666 
L 520.93007 -6.222202 
L 521.71049 -6.055997 
L 522.490909 -5.897059 
L 523.271329 -5.744424 
L 524.051748 -5.597195 
L 524.832168 -5.454588 
L 525.612587 -5.315955 
L 526.393007 -5.180806 
L 527.173427 -5.048815 
L 527.953846 -4.91981 
L 528.734266 -4.793753 
L 529.514685 -4.670711 
L 530.295105 -4.550814 
L 531.075524 -4.434219 
L 531.855944 -4.32107 
L 532.636364 -4.211468 
L 532.636364 -2.470909 
L 532.636364 -2.470909 
L 531.855944 -2.470909 
L 531.075524 -2.470909 
L 530.295105 -2.470909 
L 529.514685 -2.470909 
L 528.734266 -2.470909 
L 527.953846 -2.470909 
L 527.173427 -2.470909 
L 526.393007 -2.470909 
L 525.612587 -2.470909 
L 524.832168 -2.470909 
L 524.051748 -2.470909 
L 523.271329 -2.470909 
L 522.490909 -2.470909 
L 521.71049 -2.470909 
L 520.93007 -2.470909 
L 520.14965 -2.470909 
L 519.369231 -2.470909 
L 518.588811 -2.470909 
L 517.808392 -2.470909 
L 517.027972 -2.470909 
L 516.247552 -2.470909 
L 515.467133 -2.470909 
L 514.686713 -2.470909 
L 513.906294 -2.470909 
L 513.125874 -2.470909 
L 512.345455 -2.470909 
L 511.565035 -2.470909 
L 510.784615 -2.470909 
L 510.004196 -2.470909 
L 509.223776 -2.470909 
L 508.443357 -2.470909 
L 507.662937 -2.470909 
L 506.882517 -2.470909 
L 506.102098 -2.470909 
L 505.321678 -2.470909 
L 504.541259 -2.470909 
L 503.760839 -2.470909 
L 502.98042 -2.470909 
L 502.2 -2.470909 
L 501.41958 -2.470909 
L 500.639161 -2.470909 
L 499.858741 -2.470909 
L 499.078322 -2.470909 
L 498.297902 -2.470909 
L 497.517483 -2.470909 
L 496.737063 -2.470909 
L 495.956643 -2.470909 
L 495.176224 -2.470909 
L 494.395804 -2.470909 
L 493.615385 -2.470909 
L 492.834965 -2.470909 
L 492.054545 -2.470909 
L 491.274126 -2.470909 
L 490.493706 -2.470909 
L 489.713287 -2.470909 
L 488.932867 -2.470909 
L 488.152448 -2.470909 
L 487.372028 -2.470909 
L 486.591608 -2.470909 
L 485.811189 -2.470909 
L 485.030769 -2.470909 
L 484.25035 -2.470909 
L 483.46993 -2.470909 
L 482.68951 -2.470909 
L 481.909091 -2.470909 
L 481.128671 -2.470909 
L 480.348252 -2.470909 
L 479.567832 -2.470909 
L 478.787413 -2.470909 
L 478.006993 -2.470909 
L 477.226573 -2.470909 
L 476.446154 -2.470909 
L 475.665734 -2.470909 
L 474.885315 -2.470909 
L 474.104895 -2.470909 
L 473.324476 -2.470909 
L 472.544056 -2.470909 
L 471.763636 -2.470909 
L 470.983217 -2.470909 
L 470.202797 -2.470909 
L 469.422378 -2.470909 
L 468.641958 -2.470909 
L 467.861538 -2.470909 
L 467.081119 -2.470909 
L 466.300699 -2.470909 
L 465.52028 -2.470909 
L 464.73986 -2.470909 
L 463.959441 -2.470909 
L 463.179021 -2.470909 
L 462.398601 -2.470909 
L 461.618182 -2.470909 
L 460.837762 -2.470909 
L 460.057343 -2.470909 
L 459.276923 -2.470909 
L 458.496503 -2.470909 
L 457.716084 -2.470909 
L 456.935664 -2.470909 
L 456.155245 -2.470909 
L 455.374825 -2.470909 
L 454.594406 -2.470909 
L 453.813986 -2.470909 
L 453.033566 -2.470909 
L 452.253147 -2.470909 
L 451.472727 -2.470909 
L 450.692308 -2.470909 
L 449.911888 -2.470909 
L 449.131469 -2.470909 
L 448.351049 -2.470909 
L 447.570629 -2.470909 
L 446.79021 -2.470909 
L 446.00979 -2.470909 
L 445.229371 -2.470909 
L 444.448951 -2.470909 
L 443.668531 -2.470909 
L 442.888112 -2.470909 
L 442.107692 -2.470909 
L 441.327273 -2.470909 
L 440.546853 -2.470909 
L 439.766434 -2.470909 
L 438.986014 -2.470909 
L 438.205594 -2.470909 
L 437.425175 -2.470909 
L 436.644755 -2.470909 
L 435.864336 -2.470909 
L 435.083916 -2.470909 
L 434.303497 -2.470909 
L 433.523077 -2.470909 
L 432.742657 -2.470909 
L 431.962238 -2.470909 
L 431.181818 -2.470909 
L 430.401399 -2.470909 
L 429.620979 -2.470909 
L 428.840559 -2.470909 
L 428.06014 -2.470909 
L 427.27972 -2.470909 
L 426.499301 -2.470909 
L 425.718881 -2.470909 
L 424.938462 -2.470909 
L 424.158042 -2.470909 
L 423.377622 -2.470909 
L 422.597203 -2.470909 
L 421.816783 -2.470909 
L 421.036364 -2.470909 
L 420.255944 -2.470909 
L 419.475524 -2.470909 
L 418.695105 -2.470909 
L 417.914685 -2.470909 
L 417.134266 -2.470909 
L 416.353846 -2.470909 
L 415.573427 -2.470909 
L 414.793007 -2.470909 
L 414.012587 -2.470909 
L 413.232168 -2.470909 
L 412.451748 -2.470909 
L 411.671329 -2.470909 
L 410.890909 -2.470909 
L 410.11049 -2.470909 
L 409.33007 -2.470909 
L 408.54965 -2.470909 
L 407.769231 -2.470909 
L 406.988811 -2.470909 
L 406.208392 -2.470909 
L 405.427972 -2.470909 
L 404.647552 -2.470909 
L 403.867133 -2.470909 
L 403.086713 -2.470909 
L 402.306294 -2.470909 
L 401.525874 -2.470909 
L 400.745455 -2.470909 
L 399.965035 -2.470909 
L 399.184615 -2.470909 
L 398.404196 -2.470909 
L 397.623776 -2.470909 
L 396.843357 -2.470909 
L 396.062937 -2.470909 
L 395.282517 -2.470909 
L 394.502098 -2.470909 
L 393.721678 -2.470909 
L 392.941259 -2.470909 
L 392.160839 -2.470909 
L 391.38042 -2.470909 
L 390.6 -2.470909 
L 389.81958 -2.470909 
L 389.039161 -2.470909 
L 388.258741 -2.470909 
L 387.478322 -2.470909 
L 386.697902 -2.470909 
L 385.917483 -2.470909 
L 385.137063 -2.470909 
L 384.356643 -2.470909 
L 383.576224 -2.470909 
L 382.795804 -2.470909 
L 382.015385 -2.470909 
L 381.234965 -2.470909 
L 380.454545 -2.470909 
L 379.674126 -2.470909 
L 378.893706 -2.470909 
L 378.113287 -2.470909 
L 377.332867 -2.470909 
L 376.552448 -2.470909 
L 375.772028 -2.470909 
L 374.991608 -2.470909 
L 374.211189 -2.470909 
L 373.430769 -2.470909 
L 372.65035 -2.470909 
L 371.86993 -2.470909 
L 371.08951 -2.470909 
L 370.309091 -2.470909 
L 369.528671 -2.470909 
L 368.748252 -2.470909 
L 367.967832 -2.470909 
L 367.187413 -2.470909 
L 366.406993 -2.470909 
L 365.626573 -2.470909 
L 364.846154 -2.470909 
L 364.065734 -2.470909 
L 363.285315 -2.470909 
L 362.504895 -2.470909 
L 361.724476 -2.470909 
L 360.944056 -2.470909 
L 360.163636 -2.470909 
L 359.383217 -2.470909 
z
" style="stroke: #cf1313; stroke-opacity: 0.2"/>
    </defs>
    <g clip-path="url(#p0900a54e29)">
     <use xlink:href="#m45e24e08d8" x="0" y="54.36" style="fill: #cf1313; fill-opacity: 0.2; stroke: #cf1313; stroke-opacity: 0.2"/>
    </g>
   </g>
   <g id="PolyCollection_2">
    <defs>
     <path id="m4f209c0c85" d="M 183.788811 -2.470909 
L 183.788811 -3.687819 
L 184.569231 -3.750623 
L 185.34965 -3.819937 
L 186.13007 -3.89556 
L 186.91049 -3.977178 
L 187.690909 -4.064463 
L 188.471329 -4.157161 
L 189.251748 -4.255178 
L 190.032168 -4.358642 
L 190.812587 -4.467932 
L 191.593007 -4.583683 
L 192.373427 -4.706747 
L 193.153846 -4.838135 
L 193.934266 -4.978939 
L 194.714685 -5.130243 
L 195.495105 -5.29304 
L 196.275524 -5.468159 
L 197.055944 -5.656204 
L 197.836364 -5.857516 
L 198.616783 -6.072156 
L 199.397203 -6.299905 
L 200.177622 -6.540272 
L 200.958042 -6.792518 
L 201.738462 -7.055686 
L 202.518881 -7.328629 
L 203.299301 -7.610048 
L 204.07972 -7.898526 
L 204.86014 -8.192574 
L 205.640559 -8.490687 
L 206.420979 -8.791409 
L 207.201399 -9.093416 
L 207.981818 -9.395605 
L 208.762238 -9.697201 
L 209.542657 -9.997843 
L 210.323077 -10.297664 
L 211.103497 -10.597329 
L 211.883916 -10.89803 
L 212.664336 -11.201419 
L 213.444755 -11.509481 
L 214.225175 -11.824366 
L 215.005594 -12.148178 
L 215.786014 -12.482764 
L 216.566434 -12.829518 
L 217.346853 -13.189242 
L 218.127273 -13.562067 
L 218.907692 -13.94747 
L 219.688112 -14.344364 
L 220.468531 -14.751261 
L 221.248951 -15.166494 
L 222.029371 -15.588445 
L 222.80979 -16.015774 
L 223.59021 -16.447609 
L 224.370629 -16.88366 
L 225.151049 -17.324275 
L 225.931469 -17.770394 
L 226.711888 -18.223438 
L 227.492308 -18.685135 
L 228.272727 -19.157306 
L 229.053147 -19.641639 
L 229.833566 -20.139485 
L 230.613986 -20.651691 
L 231.394406 -21.178499 
L 232.174825 -21.719506 
L 232.955245 -22.273702 
L 233.735664 -22.839558 
L 234.516084 -23.415162 
L 235.296503 -23.99837 
L 236.076923 -24.586957 
L 236.857343 -25.178744 
L 237.637762 -25.771703 
L 238.418182 -26.364005 
L 239.198601 -26.954049 
L 239.979021 -27.54044 
L 240.759441 -28.121949 
L 241.53986 -28.697447 
L 242.32028 -29.265834 
L 243.100699 -29.825956 
L 243.881119 -30.376518 
L 244.661538 -30.916007 
L 245.441958 -31.442618 
L 246.222378 -31.954197 
L 247.002797 -32.448218 
L 247.783217 -32.921796 
L 248.563636 -33.371756 
L 249.344056 -33.794767 
L 250.124476 -34.18755 
L 250.904895 -34.547142 
L 251.685315 -34.871211 
L 252.465734 -35.15839 
L 253.246154 -35.40858 
L 254.026573 -35.623192 
L 254.806993 -35.805271 
L 255.587413 -35.95947 
L 256.367832 -36.091855 
L 257.148252 -36.209534 
L 257.928671 -36.320154 
L 258.709091 -36.431285 
L 259.48951 -36.549789 
L 260.26993 -36.681226 
L 261.05035 -36.829376 
L 261.830769 -36.995944 
L 262.611189 -37.180478 
L 263.391608 -37.380506 
L 264.172028 -37.591884 
L 264.952448 -37.809292 
L 265.732867 -38.026823 
L 266.513287 -38.238572 
L 267.293706 -38.439172 
L 268.074126 -38.624192 
L 268.854545 -38.790381 
L 269.634965 -38.935723 
L 270.415385 -39.059337 
L 271.195804 -39.161247 
L 271.976224 -39.242083 
L 272.756643 -39.302764 
L 273.537063 -39.344217 
L 274.317483 -39.367175 
L 275.097902 -39.372069 
L 275.878322 -39.359018 
L 276.658741 -39.327887 
L 277.439161 -39.278392 
L 278.21958 -39.210205 
L 279 -39.123027 
L 279.78042 -39.016615 
L 280.560839 -38.890747 
L 281.341259 -38.745137 
L 282.121678 -38.579335 
L 282.902098 -38.39263 
L 283.682517 -38.183994 
L 284.462937 -37.952088 
L 285.243357 -37.695343 
L 286.023776 -37.41209 
L 286.804196 -37.100748 
L 287.584615 -36.760009 
L 288.365035 -36.389009 
L 289.145455 -35.987453 
L 289.925874 -35.555671 
L 290.706294 -35.094625 
L 291.486713 -34.605851 
L 292.267133 -34.091376 
L 293.047552 -33.553629 
L 293.827972 -32.995351 
L 294.608392 -32.419534 
L 295.388811 -31.82938 
L 296.169231 -31.228273 
L 296.94965 -30.619758 
L 297.73007 -30.00751 
L 298.51049 -29.395272 
L 299.290909 -28.786767 
L 300.071329 -28.185579 
L 300.851748 -27.595004 
L 301.632168 -27.017901 
L 302.412587 -26.456532 
L 303.193007 -25.912441 
L 303.973427 -25.386355 
L 304.753846 -24.878153 
L 305.534266 -24.386872 
L 306.314685 -23.910787 
L 307.095105 -23.447533 
L 307.875524 -22.994282 
L 308.655944 -22.547942 
L 309.436364 -22.105377 
L 310.216783 -21.663627 
L 310.997203 -21.220112 
L 311.777622 -20.772802 
L 312.558042 -20.320349 
L 313.338462 -19.862167 
L 314.118881 -19.398453 
L 314.899301 -18.930154 
L 315.67972 -18.458879 
L 316.46014 -17.986757 
L 317.240559 -17.516258 
L 318.020979 -17.04999 
L 318.801399 -16.590483 
L 319.581818 -16.139989 
L 320.362238 -15.70031 
L 321.142657 -15.272684 
L 321.923077 -14.85773 
L 322.703497 -14.455473 
L 323.483916 -14.065423 
L 324.264336 -13.686722 
L 325.044755 -13.318307 
L 325.825175 -12.959089 
L 326.605594 -12.608092 
L 327.386014 -12.264558 
L 328.166434 -11.927983 
L 328.946853 -11.598087 
L 329.727273 -11.274741 
L 330.507692 -10.957855 
L 331.288112 -10.647256 
L 332.068531 -10.342597 
L 332.848951 -10.043296 
L 333.629371 -9.748542 
L 334.40979 -9.45736 
L 335.19021 -9.168725 
L 335.970629 -8.881712 
L 336.751049 -8.595657 
L 337.531469 -8.310299 
L 338.311888 -8.025877 
L 339.092308 -7.743174 
L 339.872727 -7.463491 
L 340.653147 -7.188554 
L 341.433566 -6.920375 
L 342.213986 -6.661078 
L 342.994406 -6.412719 
L 343.774825 -6.177116 
L 344.555245 -5.95572 
L 345.335664 -5.749522 
L 346.116084 -5.559018 
L 346.896503 -5.384219 
L 347.676923 -5.224696 
L 348.457343 -5.079663 
L 349.237762 -4.948063 
L 350.018182 -4.828661 
L 350.798601 -4.720139 
L 351.579021 -4.62116 
L 352.359441 -4.530432 
L 353.13986 -4.446745 
L 353.92028 -4.368996 
L 354.700699 -4.296205 
L 355.481119 -4.22751 
L 356.261538 -4.162167 
L 357.041958 -4.099538 
L 357.822378 -4.039075 
L 358.602797 -3.98031 
L 358.602797 -2.470909 
L 358.602797 -2.470909 
L 357.822378 -2.470909 
L 357.041958 -2.470909 
L 356.261538 -2.470909 
L 355.481119 -2.470909 
L 354.700699 -2.470909 
L 353.92028 -2.470909 
L 353.13986 -2.470909 
L 352.359441 -2.470909 
L 351.579021 -2.470909 
L 350.798601 -2.470909 
L 350.018182 -2.470909 
L 349.237762 -2.470909 
L 348.457343 -2.470909 
L 347.676923 -2.470909 
L 346.896503 -2.470909 
L 346.116084 -2.470909 
L 345.335664 -2.470909 
L 344.555245 -2.470909 
L 343.774825 -2.470909 
L 342.994406 -2.470909 
L 342.213986 -2.470909 
L 341.433566 -2.470909 
L 340.653147 -2.470909 
L 339.872727 -2.470909 
L 339.092308 -2.470909 
L 338.311888 -2.470909 
L 337.531469 -2.470909 
L 336.751049 -2.470909 
L 335.970629 -2.470909 
L 335.19021 -2.470909 
L 334.40979 -2.470909 
L 333.629371 -2.470909 
L 332.848951 -2.470909 
L 332.068531 -2.470909 
L 331.288112 -2.470909 
L 330.507692 -2.470909 
L 329.727273 -2.470909 
L 328.946853 -2.470909 
L 328.166434 -2.470909 
L 327.386014 -2.470909 
L 326.605594 -2.470909 
L 325.825175 -2.470909 
L 325.044755 -2.470909 
L 324.264336 -2.470909 
L 323.483916 -2.470909 
L 322.703497 -2.470909 
L 321.923077 -2.470909 
L 321.142657 -2.470909 
L 320.362238 -2.470909 
L 319.581818 -2.470909 
L 318.801399 -2.470909 
L 318.020979 -2.470909 
L 317.240559 -2.470909 
L 316.46014 -2.470909 
L 315.67972 -2.470909 
L 314.899301 -2.470909 
L 314.118881 -2.470909 
L 313.338462 -2.470909 
L 312.558042 -2.470909 
L 311.777622 -2.470909 
L 310.997203 -2.470909 
L 310.216783 -2.470909 
L 309.436364 -2.470909 
L 308.655944 -2.470909 
L 307.875524 -2.470909 
L 307.095105 -2.470909 
L 306.314685 -2.470909 
L 305.534266 -2.470909 
L 304.753846 -2.470909 
L 303.973427 -2.470909 
L 303.193007 -2.470909 
L 302.412587 -2.470909 
L 301.632168 -2.470909 
L 300.851748 -2.470909 
L 300.071329 -2.470909 
L 299.290909 -2.470909 
L 298.51049 -2.470909 
L 297.73007 -2.470909 
L 296.94965 -2.470909 
L 296.169231 -2.470909 
L 295.388811 -2.470909 
L 294.608392 -2.470909 
L 293.827972 -2.470909 
L 293.047552 -2.470909 
L 292.267133 -2.470909 
L 291.486713 -2.470909 
L 290.706294 -2.470909 
L 289.925874 -2.470909 
L 289.145455 -2.470909 
L 288.365035 -2.470909 
L 287.584615 -2.470909 
L 286.804196 -2.470909 
L 286.023776 -2.470909 
L 285.243357 -2.470909 
L 284.462937 -2.470909 
L 283.682517 -2.470909 
L 282.902098 -2.470909 
L 282.121678 -2.470909 
L 281.341259 -2.470909 
L 280.560839 -2.470909 
L 279.78042 -2.470909 
L 279 -2.470909 
L 278.21958 -2.470909 
L 277.439161 -2.470909 
L 276.658741 -2.470909 
L 275.878322 -2.470909 
L 275.097902 -2.470909 
L 274.317483 -2.470909 
L 273.537063 -2.470909 
L 272.756643 -2.470909 
L 271.976224 -2.470909 
L 271.195804 -2.470909 
L 270.415385 -2.470909 
L 269.634965 -2.470909 
L 268.854545 -2.470909 
L 268.074126 -2.470909 
L 267.293706 -2.470909 
L 266.513287 -2.470909 
L 265.732867 -2.470909 
L 264.952448 -2.470909 
L 264.172028 -2.470909 
L 263.391608 -2.470909 
L 262.611189 -2.470909 
L 261.830769 -2.470909 
L 261.05035 -2.470909 
L 260.26993 -2.470909 
L 259.48951 -2.470909 
L 258.709091 -2.470909 
L 257.928671 -2.470909 
L 257.148252 -2.470909 
L 256.367832 -2.470909 
L 255.587413 -2.470909 
L 254.806993 -2.470909 
L 254.026573 -2.470909 
L 253.246154 -2.470909 
L 252.465734 -2.470909 
L 251.685315 -2.470909 
L 250.904895 -2.470909 
L 250.124476 -2.470909 
L 249.344056 -2.470909 
L 248.563636 -2.470909 
L 247.783217 -2.470909 
L 247.002797 -2.470909 
L 246.222378 -2.470909 
L 245.441958 -2.470909 
L 244.661538 -2.470909 
L 243.881119 -2.470909 
L 243.100699 -2.470909 
L 242.32028 -2.470909 
L 241.53986 -2.470909 
L 240.759441 -2.470909 
L 239.979021 -2.470909 
L 239.198601 -2.470909 
L 238.418182 -2.470909 
L 237.637762 -2.470909 
L 236.857343 -2.470909 
L 236.076923 -2.470909 
L 235.296503 -2.470909 
L 234.516084 -2.470909 
L 233.735664 -2.470909 
L 232.955245 -2.470909 
L 232.174825 -2.470909 
L 231.394406 -2.470909 
L 230.613986 -2.470909 
L 229.833566 -2.470909 
L 229.053147 -2.470909 
L 228.272727 -2.470909 
L 227.492308 -2.470909 
L 226.711888 -2.470909 
L 225.931469 -2.470909 
L 225.151049 -2.470909 
L 224.370629 -2.470909 
L 223.59021 -2.470909 
L 222.80979 -2.470909 
L 222.029371 -2.470909 
L 221.248951 -2.470909 
L 220.468531 -2.470909 
L 219.688112 -2.470909 
L 218.907692 -2.470909 
L 218.127273 -2.470909 
L 217.346853 -2.470909 
L 216.566434 -2.470909 
L 215.786014 -2.470909 
L 215.005594 -2.470909 
L 214.225175 -2.470909 
L 213.444755 -2.470909 
L 212.664336 -2.470909 
L 211.883916 -2.470909 
L 211.103497 -2.470909 
L 210.323077 -2.470909 
L 209.542657 -2.470909 
L 208.762238 -2.470909 
L 207.981818 -2.470909 
L 207.201399 -2.470909 
L 206.420979 -2.470909 
L 205.640559 -2.470909 
L 204.86014 -2.470909 
L 204.07972 -2.470909 
L 203.299301 -2.470909 
L 202.518881 -2.470909 
L 201.738462 -2.470909 
L 200.958042 -2.470909 
L 200.177622 -2.470909 
L 199.397203 -2.470909 
L 198.616783 -2.470909 
L 197.836364 -2.470909 
L 197.055944 -2.470909 
L 196.275524 -2.470909 
L 195.495105 -2.470909 
L 194.714685 -2.470909 
L 193.934266 -2.470909 
L 193.153846 -2.470909 
L 192.373427 -2.470909 
L 191.593007 -2.470909 
L 190.812587 -2.470909 
L 190.032168 -2.470909 
L 189.251748 -2.470909 
L 188.471329 -2.470909 
L 187.690909 -2.470909 
L 186.91049 -2.470909 
L 186.13007 -2.470909 
L 185.34965 -2.470909 
L 184.569231 -2.470909 
L 183.788811 -2.470909 
z
" style="stroke: #116dc2; stroke-opacity: 0.2"/>
    </defs>
    <g clip-path="url(#p0900a54e29)">
     <use xlink:href="#m4f209c0c85" x="0" y="54.36" style="fill: #116dc2; fill-opacity: 0.2; stroke: #116dc2; stroke-opacity: 0.2"/>
    </g>
   </g>
   <g id="PolyCollection_3">
    <defs>
     <path id="m6b11eead59" d="M 25.363636 -2.470909 
L 25.363636 -4.880115 
L 26.144056 -5.453187 
L 26.924476 -6.165753 
L 27.704895 -7.037019 
L 28.485315 -8.05315 
L 29.265734 -9.175228 
L 30.046154 -10.386942 
L 30.826573 -11.716382 
L 31.606993 -13.222811 
L 32.387413 -15.032019 
L 33.167832 -17.245746 
L 33.948252 -19.73632 
L 34.728671 -22.254428 
L 35.509091 -24.747388 
L 36.28951 -27.361609 
L 37.06993 -30.207186 
L 37.85035 -33.242265 
L 38.630769 -36.2305 
L 39.411189 -38.839171 
L 40.191608 -41.01034 
L 40.972028 -43.07624 
L 41.752448 -45.320554 
L 42.532867 -47.623246 
L 43.313287 -49.642813 
L 44.093706 -51.12349 
L 44.874126 -51.889091 
L 45.654545 -51.820807 
L 46.434965 -51.012148 
L 47.215385 -49.738934 
L 47.995804 -48.251574 
L 48.776224 -46.698384 
L 49.556643 -45.147624 
L 50.337063 -43.53123 
L 51.117483 -41.569276 
L 51.897902 -38.934225 
L 52.678322 -35.625174 
L 53.458741 -32.079768 
L 54.239161 -28.827809 
L 55.01958 -26.105201 
L 55.8 -23.822784 
L 56.58042 -21.78475 
L 57.360839 -19.853829 
L 58.141259 -17.960177 
L 58.921678 -16.055224 
L 59.702098 -14.12845 
L 60.482517 -12.258666 
L 61.262937 -10.571657 
L 62.043357 -9.131963 
L 62.823776 -7.922133 
L 63.604196 -6.897887 
L 64.384615 -6.024811 
L 65.165035 -5.28823 
L 65.945455 -4.676334 
L 65.945455 -2.470909 
L 65.945455 -2.470909 
L 65.165035 -2.470909 
L 64.384615 -2.470909 
L 63.604196 -2.470909 
L 62.823776 -2.470909 
L 62.043357 -2.470909 
L 61.262937 -2.470909 
L 60.482517 -2.470909 
L 59.702098 -2.470909 
L 58.921678 -2.470909 
L 58.141259 -2.470909 
L 57.360839 -2.470909 
L 56.58042 -2.470909 
L 55.8 -2.470909 
L 55.01958 -2.470909 
L 54.239161 -2.470909 
L 53.458741 -2.470909 
L 52.678322 -2.470909 
L 51.897902 -2.470909 
L 51.117483 -2.470909 
L 50.337063 -2.470909 
L 49.556643 -2.470909 
L 48.776224 -2.470909 
L 47.995804 -2.470909 
L 47.215385 -2.470909 
L 46.434965 -2.470909 
L 45.654545 -2.470909 
L 44.874126 -2.470909 
L 44.093706 -2.470909 
L 43.313287 -2.470909 
L 42.532867 -2.470909 
L 41.752448 -2.470909 
L 40.972028 -2.470909 
L 40.191608 -2.470909 
L 39.411189 -2.470909 
L 38.630769 -2.470909 
L 37.85035 -2.470909 
L 37.06993 -2.470909 
L 36.28951 -2.470909 
L 35.509091 -2.470909 
L 34.728671 -2.470909 
L 33.948252 -2.470909 
L 33.167832 -2.470909 
L 32.387413 -2.470909 
L 31.606993 -2.470909 
L 30.826573 -2.470909 
L 30.046154 -2.470909 
L 29.265734 -2.470909 
L 28.485315 -2.470909 
L 27.704895 -2.470909 
L 26.924476 -2.470909 
L 26.144056 -2.470909 
L 25.363636 -2.470909 
z
" style="stroke: #8a8a8a; stroke-opacity: 0.2"/>
    </defs>
    <g clip-path="url(#p0900a54e29)">
     <use xlink:href="#m6b11eead59" x="0" y="54.36" style="fill: #8a8a8a; fill-opacity: 0.2; stroke: #8a8a8a; stroke-opacity: 0.2"/>
    </g>
   </g>
   <g id="line2d_1">
    <path d="M 359.383217 50.458489 
L 363.285315 49.864087 
L 367.187413 49.018095 
L 374.991608 47.007062 
L 380.454545 45.436153 
L 385.137063 43.867993 
L 399.184615 38.752484 
L 401.525874 37.556579 
L 403.867133 36.08774 
L 407.769231 33.275141 
L 411.671329 30.546231 
L 414.793007 28.6349 
L 420.255944 25.643845 
L 428.06014 21.325569 
L 435.083916 17.376642 
L 437.425175 16.299511 
L 439.766434 15.511535 
L 442.107692 15.052306 
L 444.448951 14.882009 
L 446.79021 14.938465 
L 449.131469 15.206107 
L 451.472727 15.716492 
L 453.813986 16.479906 
L 457.716084 18.084666 
L 460.837762 19.288218 
L 463.959441 20.245583 
L 467.861538 21.438898 
L 470.202797 22.425921 
L 472.544056 23.71531 
L 475.665734 25.812263 
L 482.68951 30.722727 
L 487.372028 33.682265 
L 491.274126 35.917753 
L 496.737063 38.715468 
L 503.760839 42.106384 
L 508.443357 44.117364 
L 513.125874 45.914874 
L 517.027972 47.165532 
L 520.93007 48.137798 
L 525.612587 49.044045 
L 532.636364 50.148532 
L 532.636364 50.148532 
" clip-path="url(#p0900a54e29)" style="fill: none; stroke: #cf1313; stroke-width: 1.5; stroke-linecap: square"/>
   </g>
   <g id="line2d_2">
    <path d="M 183.788811 50.672181 
L 188.471329 50.202839 
L 193.153846 49.521865 
L 196.275524 48.891841 
L 199.397203 48.060095 
L 203.299301 46.749952 
L 211.883916 43.46197 
L 216.566434 41.530482 
L 219.688112 40.015636 
L 224.370629 37.47634 
L 229.053147 34.718361 
L 232.174825 32.640494 
L 236.857343 29.181256 
L 243.881119 23.983482 
L 247.002797 21.911782 
L 249.344056 20.565233 
L 251.685315 19.488789 
L 254.026573 18.736808 
L 256.367832 18.268145 
L 261.830769 17.364056 
L 265.732867 16.333177 
L 268.854545 15.569619 
L 271.195804 15.198753 
L 273.537063 15.015783 
L 276.658741 15.032113 
L 279 15.236973 
L 281.341259 15.614863 
L 283.682517 16.176006 
L 286.023776 16.94791 
L 288.365035 17.970991 
L 290.706294 19.265375 
L 293.047552 20.806371 
L 296.169231 23.131727 
L 302.412587 27.903468 
L 305.534266 29.973128 
L 309.436364 32.254623 
L 315.67972 35.901121 
L 321.142657 39.087316 
L 325.044755 41.041693 
L 329.727273 43.085259 
L 335.19021 45.191275 
L 342.994406 47.947281 
L 346.116084 48.800982 
L 349.237762 49.411937 
L 353.13986 49.913255 
L 358.602797 50.37969 
L 358.602797 50.37969 
" clip-path="url(#p0900a54e29)" style="fill: none; stroke: #116dc2; stroke-width: 1.5; stroke-linecap: square"/>
   </g>
   <g id="line2d_3">
    <path d="M 25.363636 49.479885 
L 26.144056 48.906813 
L 26.924476 48.194247 
L 27.704895 47.322981 
L 28.485315 46.30685 
L 29.265734 45.184772 
L 30.046154 43.973058 
L 30.826573 42.643618 
L 31.606993 41.137189 
L 32.387413 39.327981 
L 33.167832 37.114254 
L 33.948252 34.62368 
L 34.728671 32.105572 
L 35.509091 29.612612 
L 36.28951 26.998391 
L 37.06993 24.152814 
L 37.85035 21.117735 
L 38.630769 18.1295 
L 39.411189 15.520829 
L 40.191608 13.34966 
L 40.972028 11.28376 
L 41.752448 9.039446 
L 42.532867 6.736754 
L 43.313287 4.717187 
L 44.093706 3.23651 
L 44.874126 2.470909 
L 45.654545 2.539193 
L 46.434965 3.347852 
L 47.215385 4.621066 
L 47.995804 6.108426 
L 48.776224 7.661616 
L 49.556643 9.212376 
L 50.337063 10.82877 
L 51.117483 12.790724 
L 51.897902 15.425775 
L 52.678322 18.734826 
L 53.458741 22.280232 
L 54.239161 25.532191 
L 55.01958 28.254799 
L 55.8 30.537216 
L 56.58042 32.57525 
L 57.360839 34.506171 
L 58.141259 36.399823 
L 58.921678 38.304776 
L 59.702098 40.23155 
L 60.482517 42.101334 
L 61.262937 43.788343 
L 62.043357 45.228037 
L 62.823776 46.437867 
L 63.604196 47.462113 
L 64.384615 48.335189 
L 65.165035 49.07177 
L 65.945455 49.683666 
" clip-path="url(#p0900a54e29)" style="fill: none; stroke: #8a8a8a; stroke-width: 1.5; stroke-linecap: square"/>
   </g>
  </g>
 </g>
 <defs>
  <clipPath id="p0900a54e29">
   <rect x="0" y="-0" width="558" height="54.36"/>
  </clipPath>
 </defs>
</svg>
