<?xml version="1.0" encoding="utf-8" standalone="no"?>
<!DOCTYPE svg PUBLIC "-//W3C//DTD SVG 1.1//EN"
  "http://www.w3.org/Graphics/SVG/1.1/DTD/svg11.dtd">
<svg xmlns:xlink="http://www.w3.org/1999/xlink" width="558pt" height="54.36pt" viewBox="0 0 558 54.36" xmlns="http://www.w3.org/2000/svg" version="1.1">
 <metadata>
  <rdf:RDF xmlns:dc="http://purl.org/dc/elements/1.1/" xmlns:cc="http://creativecommons.org/ns#" xmlns:rdf="http://www.w3.org/1999/02/22-rdf-syntax-ns#">
   <cc:Work>
    <dc:type rdf:resource="http://purl.org/dc/dcmitype/StillImage"/>
    <dc:date>2024-09-15T09:30:57.204228</dc:date>
    <dc:format>image/svg+xml</dc:format>
    <dc:creator>
     <cc:Agent>
      <dc:title>Matplotlib v3.5.2, https://matplotlib.org/</dc:title>
     </cc:Agent>
    </dc:creator>
   </cc:Work>
  </rdf:RDF>
 </metadata>
 <defs>
  <style type="text/css">*{stroke-linejoin: round; stroke-linecap: butt}</style>
 </defs>
 <g id="figure_1">
  <g id="patch_1">
   <path d="M 0 54.36 
L 558 54.36 
L 558 0 
L 0 0 
L 0 54.36 
z
" style="fill: none; opacity: 0"/>
  </g>
  <g id="axes_1">
   <g id="PolyCollection_1">
    <defs>
     <path id="mdd3fd467cd" d="M 358.602797 -2.470909 
L 358.602797 -4.27915 
L 359.383217 -4.36389 
L 360.163636 -4.448753 
L 360.944056 -4.534322 
L 361.724476 -4.6213 
L 362.504895 -4.710462 
L 363.285315 -4.802599 
L 364.065734 -4.898482 
L 364.846154 -4.998831 
L 365.626573 -5.104309 
L 366.406993 -5.215528 
L 367.187413 -5.333081 
L 367.967832 -5.457576 
L 368.748252 -5.589666 
L 369.528671 -5.73008 
L 370.309091 -5.879628 
L 371.08951 -6.039182 
L 371.86993 -6.209645 
L 372.65035 -6.391885 
L 373.430769 -6.586658 
L 374.211189 -6.794532 
L 374.991608 -7.015805 
L 375.772028 -7.250449 
L 376.552448 -7.498068 
L 377.332867 -7.757901 
L 378.113287 -8.028852 
L 378.893706 -8.309558 
L 379.674126 -8.598485 
L 380.454545 -8.894037 
L 381.234965 -9.194684 
L 382.015385 -9.499063 
L 382.795804 -9.806079 
L 383.576224 -10.114961 
L 384.356643 -10.42529 
L 385.137063 -10.736998 
L 385.917483 -11.050324 
L 386.697902 -11.365753 
L 387.478322 -11.683945 
L 388.258741 -12.005642 
L 389.039161 -12.331601 
L 389.81958 -12.662519 
L 390.6 -12.998991 
L 391.38042 -13.341483 
L 392.160839 -13.690335 
L 392.941259 -14.04579 
L 393.721678 -14.40804 
L 394.502098 -14.777288 
L 395.282517 -15.153812 
L 396.062937 -15.538023 
L 396.843357 -15.930498 
L 397.623776 -16.331974 
L 398.404196 -16.743316 
L 399.184615 -17.165427 
L 399.965035 -17.599132 
L 400.745455 -18.045033 
L 401.525874 -18.503359 
L 402.306294 -18.973832 
L 403.086713 -19.455573 
L 403.867133 -19.947065 
L 404.647552 -20.446192 
L 405.427972 -20.950351 
L 406.208392 -21.456648 
L 406.988811 -21.962141 
L 407.769231 -22.464119 
L 408.54965 -22.960378 
L 409.33007 -23.449463 
L 410.11049 -23.930836 
L 410.890909 -24.404951 
L 411.671329 -24.873217 
L 412.451748 -25.337858 
L 413.232168 -25.801675 
L 414.012587 -26.267742 
L 414.793007 -26.739067 
L 415.573427 -27.218258 
L 416.353846 -27.707238 
L 417.134266 -28.207027 
L 417.914685 -28.717617 
L 418.695105 -29.23795 
L 419.475524 -29.766002 
L 420.255944 -30.298941 
L 421.036364 -30.833357 
L 421.816783 -31.365522 
L 422.597203 -31.891658 
L 423.377622 -32.408179 
L 424.158042 -32.911883 
L 424.938462 -33.400092 
L 425.718881 -33.870704 
L 426.499301 -34.322201 
L 427.27972 -34.753578 
L 428.06014 -35.164257 
L 428.840559 -35.553967 
L 429.620979 -35.922641 
L 430.401399 -36.270314 
L 431.181818 -36.597064 
L 431.962238 -36.902966 
L 432.742657 -37.188074 
L 433.523077 -37.452412 
L 434.303497 -37.695976 
L 435.083916 -37.918738 
L 435.864336 -38.120648 
L 436.644755 -38.301659 
L 437.425175 -38.461762 
L 438.205594 -38.601061 
L 438.986014 -38.719879 
L 439.766434 -38.818886 
L 440.546853 -38.899248 
L 441.327273 -38.96274 
L 442.107692 -39.011811 
L 442.888112 -39.04956 
L 443.668531 -39.079595 
L 444.448951 -39.105774 
L 445.229371 -39.13184 
L 446.00979 -39.160998 
L 446.79021 -39.195468 
L 447.570629 -39.236112 
L 448.351049 -39.282159 
L 449.131469 -39.331108 
L 449.911888 -39.378824 
L 450.692308 -39.419809 
L 451.472727 -39.44765 
L 452.253147 -39.455555 
L 453.033566 -39.436936 
L 453.813986 -39.38596 
L 454.594406 -39.298003 
L 455.374825 -39.169959 
L 456.155245 -39.000395 
L 456.935664 -38.789529 
L 457.716084 -38.539056 
L 458.496503 -38.251859 
L 459.276923 -37.931646 
L 460.057343 -37.58255 
L 460.837762 -37.208745 
L 461.618182 -36.814114 
L 462.398601 -36.401988 
L 463.179021 -35.974988 
L 463.959441 -35.534961 
L 464.73986 -35.083014 
L 465.52028 -34.619634 
L 466.300699 -34.144863 
L 467.081119 -33.658514 
L 467.861538 -33.160391 
L 468.641958 -32.650493 
L 469.422378 -32.129172 
L 470.202797 -31.597238 
L 470.983217 -31.055989 
L 471.763636 -30.50718 
L 472.544056 -29.952927 
L 473.324476 -29.395568 
L 474.104895 -28.837499 
L 474.885315 -28.281003 
L 475.665734 -27.728096 
L 476.446154 -27.180403 
L 477.226573 -26.639081 
L 478.006993 -26.104782 
L 478.787413 -25.577668 
L 479.567832 -25.057464 
L 480.348252 -24.543541 
L 481.128671 -24.035016 
L 481.909091 -23.530867 
L 482.68951 -23.030042 
L 483.46993 -22.53157 
L 484.25035 -22.034648 
L 485.030769 -21.538725 
L 485.811189 -21.043557 
L 486.591608 -20.549242 
L 487.372028 -20.056231 
L 488.152448 -19.565312 
L 488.932867 -19.077565 
L 489.713287 -18.594301 
L 490.493706 -18.116977 
L 491.274126 -17.6471 
L 492.054545 -17.186134 
L 492.834965 -16.735409 
L 493.615385 -16.296045 
L 494.395804 -15.868896 
L 495.176224 -15.454526 
L 495.956643 -15.053189 
L 496.737063 -14.664855 
L 497.517483 -14.289232 
L 498.297902 -13.925811 
L 499.078322 -13.573918 
L 499.858741 -13.232764 
L 500.639161 -12.901495 
L 501.41958 -12.579243 
L 502.2 -12.26517 
L 502.98042 -11.958507 
L 503.760839 -11.658581 
L 504.541259 -11.364843 
L 505.321678 -11.076878 
L 506.102098 -10.794404 
L 506.882517 -10.517261 
L 507.662937 -10.245381 
L 508.443357 -9.978756 
L 509.223776 -9.717387 
L 510.004196 -9.46124 
L 510.784615 -9.210201 
L 511.565035 -8.964036 
L 512.345455 -8.722379 
L 513.125874 -8.484721 
L 513.906294 -8.250442 
L 514.686713 -8.018847 
L 515.467133 -7.789231 
L 516.247552 -7.560957 
L 517.027972 -7.333533 
L 517.808392 -7.106689 
L 518.588811 -6.880442 
L 519.369231 -6.655133 
L 520.14965 -6.431438 
L 520.93007 -6.21035 
L 521.71049 -5.993119 
L 522.490909 -5.781174 
L 523.271329 -5.576024 
L 524.051748 -5.379141 
L 524.832168 -5.191857 
L 525.612587 -5.015259 
L 526.393007 -4.850119 
L 527.173427 -4.696842 
L 527.953846 -4.555448 
L 528.734266 -4.425592 
L 529.514685 -4.306603 
L 530.295105 -4.197557 
L 531.075524 -4.097353 
L 531.855944 -4.004808 
L 532.636364 -3.918737 
L 532.636364 -2.470909 
L 532.636364 -2.470909 
L 531.855944 -2.470909 
L 531.075524 -2.470909 
L 530.295105 -2.470909 
L 529.514685 -2.470909 
L 528.734266 -2.470909 
L 527.953846 -2.470909 
L 527.173427 -2.470909 
L 526.393007 -2.470909 
L 525.612587 -2.470909 
L 524.832168 -2.470909 
L 524.051748 -2.470909 
L 523.271329 -2.470909 
L 522.490909 -2.470909 
L 521.71049 -2.470909 
L 520.93007 -2.470909 
L 520.14965 -2.470909 
L 519.369231 -2.470909 
L 518.588811 -2.470909 
L 517.808392 -2.470909 
L 517.027972 -2.470909 
L 516.247552 -2.470909 
L 515.467133 -2.470909 
L 514.686713 -2.470909 
L 513.906294 -2.470909 
L 513.125874 -2.470909 
L 512.345455 -2.470909 
L 511.565035 -2.470909 
L 510.784615 -2.470909 
L 510.004196 -2.470909 
L 509.223776 -2.470909 
L 508.443357 -2.470909 
L 507.662937 -2.470909 
L 506.882517 -2.470909 
L 506.102098 -2.470909 
L 505.321678 -2.470909 
L 504.541259 -2.470909 
L 503.760839 -2.470909 
L 502.98042 -2.470909 
L 502.2 -2.470909 
L 501.41958 -2.470909 
L 500.639161 -2.470909 
L 499.858741 -2.470909 
L 499.078322 -2.470909 
L 498.297902 -2.470909 
L 497.517483 -2.470909 
L 496.737063 -2.470909 
L 495.956643 -2.470909 
L 495.176224 -2.470909 
L 494.395804 -2.470909 
L 493.615385 -2.470909 
L 492.834965 -2.470909 
L 492.054545 -2.470909 
L 491.274126 -2.470909 
L 490.493706 -2.470909 
L 489.713287 -2.470909 
L 488.932867 -2.470909 
L 488.152448 -2.470909 
L 487.372028 -2.470909 
L 486.591608 -2.470909 
L 485.811189 -2.470909 
L 485.030769 -2.470909 
L 484.25035 -2.470909 
L 483.46993 -2.470909 
L 482.68951 -2.470909 
L 481.909091 -2.470909 
L 481.128671 -2.470909 
L 480.348252 -2.470909 
L 479.567832 -2.470909 
L 478.787413 -2.470909 
L 478.006993 -2.470909 
L 477.226573 -2.470909 
L 476.446154 -2.470909 
L 475.665734 -2.470909 
L 474.885315 -2.470909 
L 474.104895 -2.470909 
L 473.324476 -2.470909 
L 472.544056 -2.470909 
L 471.763636 -2.470909 
L 470.983217 -2.470909 
L 470.202797 -2.470909 
L 469.422378 -2.470909 
L 468.641958 -2.470909 
L 467.861538 -2.470909 
L 467.081119 -2.470909 
L 466.300699 -2.470909 
L 465.52028 -2.470909 
L 464.73986 -2.470909 
L 463.959441 -2.470909 
L 463.179021 -2.470909 
L 462.398601 -2.470909 
L 461.618182 -2.470909 
L 460.837762 -2.470909 
L 460.057343 -2.470909 
L 459.276923 -2.470909 
L 458.496503 -2.470909 
L 457.716084 -2.470909 
L 456.935664 -2.470909 
L 456.155245 -2.470909 
L 455.374825 -2.470909 
L 454.594406 -2.470909 
L 453.813986 -2.470909 
L 453.033566 -2.470909 
L 452.253147 -2.470909 
L 451.472727 -2.470909 
L 450.692308 -2.470909 
L 449.911888 -2.470909 
L 449.131469 -2.470909 
L 448.351049 -2.470909 
L 447.570629 -2.470909 
L 446.79021 -2.470909 
L 446.00979 -2.470909 
L 445.229371 -2.470909 
L 444.448951 -2.470909 
L 443.668531 -2.470909 
L 442.888112 -2.470909 
L 442.107692 -2.470909 
L 441.327273 -2.470909 
L 440.546853 -2.470909 
L 439.766434 -2.470909 
L 438.986014 -2.470909 
L 438.205594 -2.470909 
L 437.425175 -2.470909 
L 436.644755 -2.470909 
L 435.864336 -2.470909 
L 435.083916 -2.470909 
L 434.303497 -2.470909 
L 433.523077 -2.470909 
L 432.742657 -2.470909 
L 431.962238 -2.470909 
L 431.181818 -2.470909 
L 430.401399 -2.470909 
L 429.620979 -2.470909 
L 428.840559 -2.470909 
L 428.06014 -2.470909 
L 427.27972 -2.470909 
L 426.499301 -2.470909 
L 425.718881 -2.470909 
L 424.938462 -2.470909 
L 424.158042 -2.470909 
L 423.377622 -2.470909 
L 422.597203 -2.470909 
L 421.816783 -2.470909 
L 421.036364 -2.470909 
L 420.255944 -2.470909 
L 419.475524 -2.470909 
L 418.695105 -2.470909 
L 417.914685 -2.470909 
L 417.134266 -2.470909 
L 416.353846 -2.470909 
L 415.573427 -2.470909 
L 414.793007 -2.470909 
L 414.012587 -2.470909 
L 413.232168 -2.470909 
L 412.451748 -2.470909 
L 411.671329 -2.470909 
L 410.890909 -2.470909 
L 410.11049 -2.470909 
L 409.33007 -2.470909 
L 408.54965 -2.470909 
L 407.769231 -2.470909 
L 406.988811 -2.470909 
L 406.208392 -2.470909 
L 405.427972 -2.470909 
L 404.647552 -2.470909 
L 403.867133 -2.470909 
L 403.086713 -2.470909 
L 402.306294 -2.470909 
L 401.525874 -2.470909 
L 400.745455 -2.470909 
L 399.965035 -2.470909 
L 399.184615 -2.470909 
L 398.404196 -2.470909 
L 397.623776 -2.470909 
L 396.843357 -2.470909 
L 396.062937 -2.470909 
L 395.282517 -2.470909 
L 394.502098 -2.470909 
L 393.721678 -2.470909 
L 392.941259 -2.470909 
L 392.160839 -2.470909 
L 391.38042 -2.470909 
L 390.6 -2.470909 
L 389.81958 -2.470909 
L 389.039161 -2.470909 
L 388.258741 -2.470909 
L 387.478322 -2.470909 
L 386.697902 -2.470909 
L 385.917483 -2.470909 
L 385.137063 -2.470909 
L 384.356643 -2.470909 
L 383.576224 -2.470909 
L 382.795804 -2.470909 
L 382.015385 -2.470909 
L 381.234965 -2.470909 
L 380.454545 -2.470909 
L 379.674126 -2.470909 
L 378.893706 -2.470909 
L 378.113287 -2.470909 
L 377.332867 -2.470909 
L 376.552448 -2.470909 
L 375.772028 -2.470909 
L 374.991608 -2.470909 
L 374.211189 -2.470909 
L 373.430769 -2.470909 
L 372.65035 -2.470909 
L 371.86993 -2.470909 
L 371.08951 -2.470909 
L 370.309091 -2.470909 
L 369.528671 -2.470909 
L 368.748252 -2.470909 
L 367.967832 -2.470909 
L 367.187413 -2.470909 
L 366.406993 -2.470909 
L 365.626573 -2.470909 
L 364.846154 -2.470909 
L 364.065734 -2.470909 
L 363.285315 -2.470909 
L 362.504895 -2.470909 
L 361.724476 -2.470909 
L 360.944056 -2.470909 
L 360.163636 -2.470909 
L 359.383217 -2.470909 
L 358.602797 -2.470909 
z
" style="stroke: #cf1313; stroke-opacity: 0.2"/>
    </defs>
    <g clip-path="url(#p140ddc53c5)">
     <use xlink:href="#mdd3fd467cd" x="0" y="54.36" style="fill: #cf1313; fill-opacity: 0.2; stroke: #cf1313; stroke-opacity: 0.2"/>
    </g>
   </g>
   <g id="PolyCollection_2">
    <defs>
     <path id="m51e303dd77" d="M 183.788811 -2.470909 
L 183.788811 -3.580447 
L 184.569231 -3.66703 
L 185.34965 -3.762305 
L 186.13007 -3.865861 
L 186.91049 -3.977029 
L 187.690909 -4.094886 
L 188.471329 -4.218268 
L 189.251748 -4.345831 
L 190.032168 -4.476135 
L 190.812587 -4.607755 
L 191.593007 -4.739418 
L 192.373427 -4.870135 
L 193.153846 -4.999317 
L 193.934266 -5.126859 
L 194.714685 -5.253168 
L 195.495105 -5.379134 
L 196.275524 -5.506045 
L 197.055944 -5.635451 
L 197.836364 -5.769 
L 198.616783 -5.908266 
L 199.397203 -6.054596 
L 200.177622 -6.208993 
L 200.958042 -6.372051 
L 201.738462 -6.543948 
L 202.518881 -6.7245 
L 203.299301 -6.913259 
L 204.07972 -7.109636 
L 204.86014 -7.313052 
L 205.640559 -7.523072 
L 206.420979 -7.739526 
L 207.201399 -7.962598 
L 207.981818 -8.192884 
L 208.762238 -8.431398 
L 209.542657 -8.679554 
L 210.323077 -8.939094 
L 211.103497 -9.21199 
L 211.883916 -9.500318 
L 212.664336 -9.806101 
L 213.444755 -10.131144 
L 214.225175 -10.476864 
L 215.005594 -10.844131 
L 215.786014 -11.233138 
L 216.566434 -11.643306 
L 217.346853 -12.073251 
L 218.127273 -12.520801 
L 218.907692 -12.983081 
L 219.688112 -13.456653 
L 220.468531 -13.937705 
L 221.248951 -14.422263 
L 222.029371 -14.906425 
L 222.80979 -15.386586 
L 223.59021 -15.859651 
L 224.370629 -16.323212 
L 225.151049 -16.775685 
L 225.931469 -17.216406 
L 226.711888 -17.645674 
L 227.492308 -18.064735 
L 228.272727 -18.47572 
L 229.053147 -18.88153 
L 229.833566 -19.285668 
L 230.613986 -19.692037 
L 231.394406 -20.104712 
L 232.174825 -20.527702 
L 232.955245 -20.964708 
L 233.735664 -21.41891 
L 234.516084 -21.892776 
L 235.296503 -22.387919 
L 236.076923 -22.904983 
L 236.857343 -23.44359 
L 237.637762 -24.002313 
L 238.418182 -24.578716 
L 239.198601 -25.169424 
L 239.979021 -25.77026 
L 240.759441 -26.376432 
L 241.53986 -26.982781 
L 242.32028 -27.584068 
L 243.100699 -28.175296 
L 243.881119 -28.752033 
L 244.661538 -29.310703 
L 245.441958 -29.848807 
L 246.222378 -30.365059 
L 247.002797 -30.859392 
L 247.783217 -31.332851 
L 248.563636 -31.787383 
L 249.344056 -32.225536 
L 250.124476 -32.650124 
L 250.904895 -33.063887 
L 251.685315 -33.4692 
L 252.465734 -33.867842 
L 253.246154 -34.260871 
L 254.026573 -34.648593 
L 254.806993 -35.030622 
L 255.587413 -35.406024 
L 256.367832 -35.773503 
L 257.148252 -36.131609 
L 257.928671 -36.478939 
L 258.709091 -36.814288 
L 259.48951 -37.136741 
L 260.26993 -37.445693 
L 261.05035 -37.740781 
L 261.830769 -38.021753 
L 262.611189 -38.288295 
L 263.391608 -38.539836 
L 264.172028 -38.775378 
L 264.952448 -38.993379 
L 265.732867 -39.191717 
L 266.513287 -39.367745 
L 267.293706 -39.518444 
L 268.074126 -39.640644 
L 268.854545 -39.731298 
L 269.634965 -39.787756 
L 270.415385 -39.808002 
L 271.195804 -39.790829 
L 271.976224 -39.735915 
L 272.756643 -39.643804 
L 273.537063 -39.515798 
L 274.317483 -39.353788 
L 275.097902 -39.160055 
L 275.878322 -38.937085 
L 276.658741 -38.68742 
L 277.439161 -38.413581 
L 278.21958 -38.118046 
L 279 -37.803286 
L 279.78042 -37.471834 
L 280.560839 -37.126344 
L 281.341259 -36.769623 
L 282.121678 -36.404604 
L 282.902098 -36.034261 
L 283.682517 -35.661473 
L 284.462937 -35.288846 
L 285.243357 -34.918552 
L 286.023776 -34.552191 
L 286.804196 -34.190716 
L 287.584615 -33.834442 
L 288.365035 -33.483124 
L 289.145455 -33.136101 
L 289.925874 -32.792469 
L 290.706294 -32.451257 
L 291.486713 -32.111567 
L 292.267133 -31.77265 
L 293.047552 -31.43392 
L 293.827972 -31.09488 
L 294.608392 -30.755015 
L 295.388811 -30.413639 
L 296.169231 -30.069766 
L 296.94965 -29.722016 
L 297.73007 -29.368597 
L 298.51049 -29.007373 
L 299.290909 -28.636031 
L 300.071329 -28.252311 
L 300.851748 -27.8543 
L 301.632168 -27.440705 
L 302.412587 -27.011102 
L 303.193007 -26.566076 
L 303.973427 -26.107247 
L 304.753846 -25.637147 
L 305.534266 -25.158969 
L 306.314685 -24.676206 
L 307.095105 -24.192232 
L 307.875524 -23.709891 
L 308.655944 -23.231136 
L 309.436364 -22.756796 
L 310.216783 -22.286481 
L 310.997203 -21.818652 
L 311.777622 -21.350839 
L 312.558042 -20.879981 
L 313.338462 -20.402835 
L 314.118881 -19.916403 
L 314.899301 -19.418334 
L 315.67972 -18.907239 
L 316.46014 -18.382917 
L 317.240559 -17.846444 
L 318.020979 -17.300154 
L 318.801399 -16.747501 
L 319.581818 -16.19284 
L 320.362238 -15.641134 
L 321.142657 -15.097627 
L 321.923077 -14.567503 
L 322.703497 -14.055556 
L 323.483916 -13.565896 
L 324.264336 -13.101708 
L 325.044755 -12.665086 
L 325.825175 -12.256943 
L 326.605594 -11.877026 
L 327.386014 -11.524008 
L 328.166434 -11.195672 
L 328.946853 -10.889154 
L 329.727273 -10.601224 
L 330.507692 -10.32858 
L 331.288112 -10.068109 
L 332.068531 -9.817098 
L 332.848951 -9.573361 
L 333.629371 -9.335289 
L 334.40979 -9.1018 
L 335.19021 -8.872231 
L 335.970629 -8.646184 
L 336.751049 -8.423366 
L 337.531469 -8.203445 
L 338.311888 -7.98597 
L 339.092308 -7.770345 
L 339.872727 -7.555876 
L 340.653147 -7.341871 
L 341.433566 -7.12777 
L 342.213986 -6.913277 
L 342.994406 -6.698465 
L 343.774825 -6.48384 
L 344.555245 -6.270329 
L 345.335664 -6.059227 
L 346.116084 -5.852082 
L 346.896503 -5.650558 
L 347.676923 -5.456284 
L 348.457343 -5.270727 
L 349.237762 -5.095083 
L 350.018182 -4.930216 
L 350.798601 -4.77664 
L 351.579021 -4.634527 
L 352.359441 -4.50375 
L 353.13986 -4.383932 
L 353.92028 -4.274504 
L 354.700699 -4.174752 
L 355.481119 -4.083848 
L 356.261538 -4.000885 
L 357.041958 -3.924886 
L 357.822378 -3.854822 
L 357.822378 -2.470909 
L 357.822378 -2.470909 
L 357.041958 -2.470909 
L 356.261538 -2.470909 
L 355.481119 -2.470909 
L 354.700699 -2.470909 
L 353.92028 -2.470909 
L 353.13986 -2.470909 
L 352.359441 -2.470909 
L 351.579021 -2.470909 
L 350.798601 -2.470909 
L 350.018182 -2.470909 
L 349.237762 -2.470909 
L 348.457343 -2.470909 
L 347.676923 -2.470909 
L 346.896503 -2.470909 
L 346.116084 -2.470909 
L 345.335664 -2.470909 
L 344.555245 -2.470909 
L 343.774825 -2.470909 
L 342.994406 -2.470909 
L 342.213986 -2.470909 
L 341.433566 -2.470909 
L 340.653147 -2.470909 
L 339.872727 -2.470909 
L 339.092308 -2.470909 
L 338.311888 -2.470909 
L 337.531469 -2.470909 
L 336.751049 -2.470909 
L 335.970629 -2.470909 
L 335.19021 -2.470909 
L 334.40979 -2.470909 
L 333.629371 -2.470909 
L 332.848951 -2.470909 
L 332.068531 -2.470909 
L 331.288112 -2.470909 
L 330.507692 -2.470909 
L 329.727273 -2.470909 
L 328.946853 -2.470909 
L 328.166434 -2.470909 
L 327.386014 -2.470909 
L 326.605594 -2.470909 
L 325.825175 -2.470909 
L 325.044755 -2.470909 
L 324.264336 -2.470909 
L 323.483916 -2.470909 
L 322.703497 -2.470909 
L 321.923077 -2.470909 
L 321.142657 -2.470909 
L 320.362238 -2.470909 
L 319.581818 -2.470909 
L 318.801399 -2.470909 
L 318.020979 -2.470909 
L 317.240559 -2.470909 
L 316.46014 -2.470909 
L 315.67972 -2.470909 
L 314.899301 -2.470909 
L 314.118881 -2.470909 
L 313.338462 -2.470909 
L 312.558042 -2.470909 
L 311.777622 -2.470909 
L 310.997203 -2.470909 
L 310.216783 -2.470909 
L 309.436364 -2.470909 
L 308.655944 -2.470909 
L 307.875524 -2.470909 
L 307.095105 -2.470909 
L 306.314685 -2.470909 
L 305.534266 -2.470909 
L 304.753846 -2.470909 
L 303.973427 -2.470909 
L 303.193007 -2.470909 
L 302.412587 -2.470909 
L 301.632168 -2.470909 
L 300.851748 -2.470909 
L 300.071329 -2.470909 
L 299.290909 -2.470909 
L 298.51049 -2.470909 
L 297.73007 -2.470909 
L 296.94965 -2.470909 
L 296.169231 -2.470909 
L 295.388811 -2.470909 
L 294.608392 -2.470909 
L 293.827972 -2.470909 
L 293.047552 -2.470909 
L 292.267133 -2.470909 
L 291.486713 -2.470909 
L 290.706294 -2.470909 
L 289.925874 -2.470909 
L 289.145455 -2.470909 
L 288.365035 -2.470909 
L 287.584615 -2.470909 
L 286.804196 -2.470909 
L 286.023776 -2.470909 
L 285.243357 -2.470909 
L 284.462937 -2.470909 
L 283.682517 -2.470909 
L 282.902098 -2.470909 
L 282.121678 -2.470909 
L 281.341259 -2.470909 
L 280.560839 -2.470909 
L 279.78042 -2.470909 
L 279 -2.470909 
L 278.21958 -2.470909 
L 277.439161 -2.470909 
L 276.658741 -2.470909 
L 275.878322 -2.470909 
L 275.097902 -2.470909 
L 274.317483 -2.470909 
L 273.537063 -2.470909 
L 272.756643 -2.470909 
L 271.976224 -2.470909 
L 271.195804 -2.470909 
L 270.415385 -2.470909 
L 269.634965 -2.470909 
L 268.854545 -2.470909 
L 268.074126 -2.470909 
L 267.293706 -2.470909 
L 266.513287 -2.470909 
L 265.732867 -2.470909 
L 264.952448 -2.470909 
L 264.172028 -2.470909 
L 263.391608 -2.470909 
L 262.611189 -2.470909 
L 261.830769 -2.470909 
L 261.05035 -2.470909 
L 260.26993 -2.470909 
L 259.48951 -2.470909 
L 258.709091 -2.470909 
L 257.928671 -2.470909 
L 257.148252 -2.470909 
L 256.367832 -2.470909 
L 255.587413 -2.470909 
L 254.806993 -2.470909 
L 254.026573 -2.470909 
L 253.246154 -2.470909 
L 252.465734 -2.470909 
L 251.685315 -2.470909 
L 250.904895 -2.470909 
L 250.124476 -2.470909 
L 249.344056 -2.470909 
L 248.563636 -2.470909 
L 247.783217 -2.470909 
L 247.002797 -2.470909 
L 246.222378 -2.470909 
L 245.441958 -2.470909 
L 244.661538 -2.470909 
L 243.881119 -2.470909 
L 243.100699 -2.470909 
L 242.32028 -2.470909 
L 241.53986 -2.470909 
L 240.759441 -2.470909 
L 239.979021 -2.470909 
L 239.198601 -2.470909 
L 238.418182 -2.470909 
L 237.637762 -2.470909 
L 236.857343 -2.470909 
L 236.076923 -2.470909 
L 235.296503 -2.470909 
L 234.516084 -2.470909 
L 233.735664 -2.470909 
L 232.955245 -2.470909 
L 232.174825 -2.470909 
L 231.394406 -2.470909 
L 230.613986 -2.470909 
L 229.833566 -2.470909 
L 229.053147 -2.470909 
L 228.272727 -2.470909 
L 227.492308 -2.470909 
L 226.711888 -2.470909 
L 225.931469 -2.470909 
L 225.151049 -2.470909 
L 224.370629 -2.470909 
L 223.59021 -2.470909 
L 222.80979 -2.470909 
L 222.029371 -2.470909 
L 221.248951 -2.470909 
L 220.468531 -2.470909 
L 219.688112 -2.470909 
L 218.907692 -2.470909 
L 218.127273 -2.470909 
L 217.346853 -2.470909 
L 216.566434 -2.470909 
L 215.786014 -2.470909 
L 215.005594 -2.470909 
L 214.225175 -2.470909 
L 213.444755 -2.470909 
L 212.664336 -2.470909 
L 211.883916 -2.470909 
L 211.103497 -2.470909 
L 210.323077 -2.470909 
L 209.542657 -2.470909 
L 208.762238 -2.470909 
L 207.981818 -2.470909 
L 207.201399 -2.470909 
L 206.420979 -2.470909 
L 205.640559 -2.470909 
L 204.86014 -2.470909 
L 204.07972 -2.470909 
L 203.299301 -2.470909 
L 202.518881 -2.470909 
L 201.738462 -2.470909 
L 200.958042 -2.470909 
L 200.177622 -2.470909 
L 199.397203 -2.470909 
L 198.616783 -2.470909 
L 197.836364 -2.470909 
L 197.055944 -2.470909 
L 196.275524 -2.470909 
L 195.495105 -2.470909 
L 194.714685 -2.470909 
L 193.934266 -2.470909 
L 193.153846 -2.470909 
L 192.373427 -2.470909 
L 191.593007 -2.470909 
L 190.812587 -2.470909 
L 190.032168 -2.470909 
L 189.251748 -2.470909 
L 188.471329 -2.470909 
L 187.690909 -2.470909 
L 186.91049 -2.470909 
L 186.13007 -2.470909 
L 185.34965 -2.470909 
L 184.569231 -2.470909 
L 183.788811 -2.470909 
z
" style="stroke: #116dc2; stroke-opacity: 0.2"/>
    </defs>
    <g clip-path="url(#p140ddc53c5)">
     <use xlink:href="#m51e303dd77" x="0" y="54.36" style="fill: #116dc2; fill-opacity: 0.2; stroke: #116dc2; stroke-opacity: 0.2"/>
    </g>
   </g>
   <g id="PolyCollection_3">
    <defs>
     <path id="m18732cdaf7" d="M 25.363636 -2.470909 
L 25.363636 -4.105058 
L 26.144056 -4.568992 
L 26.924476 -5.158289 
L 27.704895 -5.921335 
L 28.485315 -6.850151 
L 29.265734 -7.895859 
L 30.046154 -9.072008 
L 30.826573 -10.474703 
L 31.606993 -12.188936 
L 32.387413 -14.168877 
L 33.167832 -16.247908 
L 33.948252 -18.355012 
L 34.728671 -20.646359 
L 35.509091 -23.276514 
L 36.28951 -26.134121 
L 37.06993 -28.953802 
L 37.85035 -31.604601 
L 38.630769 -34.151444 
L 39.411189 -36.672117 
L 40.191608 -39.109258 
L 40.972028 -41.331591 
L 41.752448 -43.317466 
L 42.532867 -45.22346 
L 43.313287 -47.164839 
L 44.093706 -49.000222 
L 44.874126 -50.495134 
L 45.654545 -51.507001 
L 46.434965 -51.889091 
L 47.215385 -51.546988 
L 47.995804 -50.631148 
L 48.776224 -49.35812 
L 49.556643 -47.784841 
L 50.337063 -45.915554 
L 51.117483 -43.716645 
L 51.897902 -41.093779 
L 52.678322 -38.109194 
L 53.458741 -35.034993 
L 54.239161 -32.176383 
L 55.01958 -29.747013 
L 55.8 -27.718716 
L 56.58042 -25.783086 
L 57.360839 -23.67714 
L 58.141259 -21.444966 
L 58.921678 -19.215041 
L 59.702098 -16.955216 
L 60.482517 -14.623494 
L 61.262937 -12.364229 
L 62.043357 -10.415007 
L 62.823776 -8.894595 
L 63.604196 -7.741359 
L 64.384615 -6.818009 
L 65.165035 -6.028911 
L 65.945455 -5.357348 
L 66.725874 -4.828409 
L 67.506294 -4.432507 
L 67.506294 -2.470909 
L 67.506294 -2.470909 
L 66.725874 -2.470909 
L 65.945455 -2.470909 
L 65.165035 -2.470909 
L 64.384615 -2.470909 
L 63.604196 -2.470909 
L 62.823776 -2.470909 
L 62.043357 -2.470909 
L 61.262937 -2.470909 
L 60.482517 -2.470909 
L 59.702098 -2.470909 
L 58.921678 -2.470909 
L 58.141259 -2.470909 
L 57.360839 -2.470909 
L 56.58042 -2.470909 
L 55.8 -2.470909 
L 55.01958 -2.470909 
L 54.239161 -2.470909 
L 53.458741 -2.470909 
L 52.678322 -2.470909 
L 51.897902 -2.470909 
L 51.117483 -2.470909 
L 50.337063 -2.470909 
L 49.556643 -2.470909 
L 48.776224 -2.470909 
L 47.995804 -2.470909 
L 47.215385 -2.470909 
L 46.434965 -2.470909 
L 45.654545 -2.470909 
L 44.874126 -2.470909 
L 44.093706 -2.470909 
L 43.313287 -2.470909 
L 42.532867 -2.470909 
L 41.752448 -2.470909 
L 40.972028 -2.470909 
L 40.191608 -2.470909 
L 39.411189 -2.470909 
L 38.630769 -2.470909 
L 37.85035 -2.470909 
L 37.06993 -2.470909 
L 36.28951 -2.470909 
L 35.509091 -2.470909 
L 34.728671 -2.470909 
L 33.948252 -2.470909 
L 33.167832 -2.470909 
L 32.387413 -2.470909 
L 31.606993 -2.470909 
L 30.826573 -2.470909 
L 30.046154 -2.470909 
L 29.265734 -2.470909 
L 28.485315 -2.470909 
L 27.704895 -2.470909 
L 26.924476 -2.470909 
L 26.144056 -2.470909 
L 25.363636 -2.470909 
z
" style="stroke: #8a8a8a; stroke-opacity: 0.2"/>
    </defs>
    <g clip-path="url(#p140ddc53c5)">
     <use xlink:href="#m18732cdaf7" x="0" y="54.36" style="fill: #8a8a8a; fill-opacity: 0.2; stroke: #8a8a8a; stroke-opacity: 0.2"/>
    </g>
   </g>
   <g id="line2d_1">
    <path d="M 358.602797 50.08085 
L 366.406993 49.144472 
L 370.309091 48.480372 
L 373.430769 47.773342 
L 376.552448 46.861932 
L 380.454545 45.465963 
L 388.258741 42.354358 
L 392.941259 40.31421 
L 397.623776 38.028026 
L 401.525874 35.856641 
L 405.427972 33.409649 
L 411.671329 29.486783 
L 417.914685 25.642383 
L 426.499301 20.037799 
L 429.620979 18.437359 
L 431.962238 17.457034 
L 434.303497 16.664024 
L 436.644755 16.058341 
L 438.986014 15.640121 
L 442.107692 15.348189 
L 453.033566 14.923064 
L 454.594406 15.061997 
L 456.155245 15.359605 
L 457.716084 15.820944 
L 460.057343 16.77745 
L 463.179021 18.385012 
L 467.081119 20.701486 
L 470.983217 23.304011 
L 481.128671 30.324984 
L 490.493706 36.243023 
L 494.395804 38.491104 
L 497.517483 40.070768 
L 501.41958 41.780757 
L 506.102098 43.565596 
L 511.565035 45.395964 
L 519.369231 47.704867 
L 524.832168 49.168143 
L 527.953846 49.804552 
L 531.855944 50.355192 
L 532.636364 50.441263 
L 532.636364 50.441263 
" clip-path="url(#p140ddc53c5)" style="fill: none; stroke: #cf1313; stroke-width: 1.5; stroke-linecap: square"/>
   </g>
   <g id="line2d_2">
    <path d="M 183.788811 50.779553 
L 187.690909 50.265114 
L 199.397203 48.305404 
L 203.299301 47.446741 
L 207.981818 46.167116 
L 211.883916 44.859682 
L 214.225175 43.883136 
L 216.566434 42.716694 
L 219.688112 40.903347 
L 225.931469 37.143594 
L 236.076923 31.455017 
L 239.198601 29.190576 
L 245.441958 24.511193 
L 248.563636 22.572617 
L 252.465734 20.492158 
L 257.148252 18.228391 
L 260.26993 16.914307 
L 263.391608 15.820164 
L 266.513287 14.992255 
L 268.854545 14.628702 
L 271.195804 14.569171 
L 273.537063 14.844202 
L 275.878322 15.422915 
L 278.21958 16.241954 
L 281.341259 17.590377 
L 292.267133 22.58735 
L 299.290909 25.723969 
L 302.412587 27.348898 
L 306.314685 29.683794 
L 318.020979 37.059846 
L 323.483916 40.794104 
L 325.825175 42.103057 
L 328.166434 43.164328 
L 331.288112 44.291891 
L 336.751049 45.936634 
L 347.676923 48.903716 
L 351.579021 49.725473 
L 355.481119 50.276152 
L 357.822378 50.505178 
L 357.822378 50.505178 
" clip-path="url(#p140ddc53c5)" style="fill: none; stroke: #116dc2; stroke-width: 1.5; stroke-linecap: square"/>
   </g>
   <g id="line2d_3">
    <path d="M 25.363636 50.254942 
L 26.144056 49.791008 
L 26.924476 49.201711 
L 27.704895 48.438665 
L 28.485315 47.509849 
L 29.265734 46.464141 
L 30.046154 45.287992 
L 30.826573 43.885297 
L 31.606993 42.171064 
L 32.387413 40.191123 
L 33.167832 38.112092 
L 33.948252 36.004988 
L 34.728671 33.713641 
L 35.509091 31.083486 
L 36.28951 28.225879 
L 37.06993 25.406198 
L 37.85035 22.755399 
L 38.630769 20.208556 
L 39.411189 17.687883 
L 40.191608 15.250742 
L 40.972028 13.028409 
L 41.752448 11.042534 
L 42.532867 9.13654 
L 43.313287 7.195161 
L 44.093706 5.359778 
L 44.874126 3.864866 
L 45.654545 2.852999 
L 46.434965 2.470909 
L 47.215385 2.813012 
L 47.995804 3.728852 
L 48.776224 5.00188 
L 49.556643 6.575159 
L 50.337063 8.444446 
L 51.117483 10.643355 
L 51.897902 13.266221 
L 52.678322 16.250806 
L 53.458741 19.325007 
L 54.239161 22.183617 
L 55.01958 24.612987 
L 55.8 26.641284 
L 56.58042 28.576914 
L 57.360839 30.68286 
L 58.141259 32.915034 
L 58.921678 35.144959 
L 59.702098 37.404784 
L 60.482517 39.736506 
L 61.262937 41.995771 
L 62.043357 43.944993 
L 62.823776 45.465405 
L 63.604196 46.618641 
L 64.384615 47.541991 
L 65.165035 48.331089 
L 65.945455 49.002652 
L 66.725874 49.531591 
L 67.506294 49.927493 
" clip-path="url(#p140ddc53c5)" style="fill: none; stroke: #8a8a8a; stroke-width: 1.5; stroke-linecap: square"/>
   </g>
  </g>
 </g>
 <defs>
  <clipPath id="p140ddc53c5">
   <rect x="0" y="-0" width="558" height="54.36"/>
  </clipPath>
 </defs>
</svg>
