<?xml version="1.0" encoding="utf-8" standalone="no"?>
<!DOCTYPE svg PUBLIC "-//W3C//DTD SVG 1.1//EN"
  "http://www.w3.org/Graphics/SVG/1.1/DTD/svg11.dtd">
<svg xmlns:xlink="http://www.w3.org/1999/xlink" width="558pt" height="54.36pt" viewBox="0 0 558 54.36" xmlns="http://www.w3.org/2000/svg" version="1.1">
 <metadata>
  <rdf:RDF xmlns:dc="http://purl.org/dc/elements/1.1/" xmlns:cc="http://creativecommons.org/ns#" xmlns:rdf="http://www.w3.org/1999/02/22-rdf-syntax-ns#">
   <cc:Work>
    <dc:type rdf:resource="http://purl.org/dc/dcmitype/StillImage"/>
    <dc:date>2024-09-14T12:47:29.227615</dc:date>
    <dc:format>image/svg+xml</dc:format>
    <dc:creator>
     <cc:Agent>
      <dc:title>Matplotlib v3.5.2, https://matplotlib.org/</dc:title>
     </cc:Agent>
    </dc:creator>
   </cc:Work>
  </rdf:RDF>
 </metadata>
 <defs>
  <style type="text/css">*{stroke-linejoin: round; stroke-linecap: butt}</style>
 </defs>
 <g id="figure_1">
  <g id="patch_1">
   <path d="M 0 54.36 
L 558 54.36 
L 558 0 
L 0 0 
L 0 54.36 
z
" style="fill: none; opacity: 0"/>
  </g>
  <g id="axes_1">
   <g id="PolyCollection_1">
    <defs>
     <path id="m092db700d9" d="M 314.854355 -2.470909 
L 314.854355 -4.083025 
L 315.739648 -4.171809 
L 316.624941 -4.268718 
L 317.510233 -4.376975 
L 318.395526 -4.49956 
L 319.280819 -4.638928 
L 320.166111 -4.796815 
L 321.051404 -4.974163 
L 321.936697 -5.171152 
L 322.82199 -5.387335 
L 323.707282 -5.621823 
L 324.592575 -5.873482 
L 325.477868 -6.14111 
L 326.36316 -6.423548 
L 327.248453 -6.719731 
L 328.133746 -7.028672 
L 329.019039 -7.349413 
L 329.904331 -7.680964 
L 330.789624 -8.022283 
L 331.674917 -8.372311 
L 332.560209 -8.730073 
L 333.445502 -9.094849 
L 334.330795 -9.466357 
L 335.216088 -9.84492 
L 336.10138 -10.231552 
L 336.986673 -10.627917 
L 337.871966 -11.036164 
L 338.757258 -11.458625 
L 339.642551 -11.897433 
L 340.527844 -12.354126 
L 341.413137 -12.829297 
L 342.298429 -13.322375 
L 343.183722 -13.831577 
L 344.069015 -14.354053 
L 344.954307 -14.886213 
L 345.8396 -15.424169 
L 346.724893 -15.964221 
L 347.610186 -16.503301 
L 348.495478 -17.039304 
L 349.380771 -17.571267 
L 350.266064 -18.099405 
L 351.151356 -18.625043 
L 352.036649 -19.150503 
L 352.921942 -19.678993 
L 353.807235 -20.21451 
L 354.692527 -20.761745 
L 355.57782 -21.325898 
L 356.463113 -21.912356 
L 357.348406 -22.526148 
L 358.233698 -23.171199 
L 359.118991 -23.849442 
L 360.004284 -24.559968 
L 360.889576 -25.298412 
L 361.774869 -26.056815 
L 362.660162 -26.824103 
L 363.545455 -27.587233 
L 364.430747 -28.332864 
L 365.31604 -29.049284 
L 366.201333 -29.728199 
L 367.086625 -30.365999 
L 367.971918 -30.964184 
L 368.857211 -31.52884 
L 369.742504 -32.069258 
L 370.627796 -32.595994 
L 371.513089 -33.118792 
L 372.398382 -33.64481 
L 373.283674 -34.177487 
L 374.168967 -34.716224 
L 375.05426 -35.256848 
L 375.939553 -35.792659 
L 376.824845 -36.315765 
L 377.710138 -36.818383 
L 378.595431 -37.29387 
L 379.480723 -37.737331 
L 380.366016 -38.145788 
L 381.251309 -38.518002 
L 382.136602 -38.854093 
L 383.021894 -39.155111 
L 383.907187 -39.422702 
L 384.79248 -39.658922 
L 385.677772 -39.866205 
L 386.563065 -40.047419 
L 387.448358 -40.205893 
L 388.333651 -40.345325 
L 389.218943 -40.46949 
L 390.104236 -40.581764 
L 390.989529 -40.684518 
L 391.874822 -40.778528 
L 392.760114 -40.862542 
L 393.645407 -40.933142 
L 394.5307 -40.984994 
L 395.415992 -41.011463 
L 396.301285 -41.005525 
L 397.186578 -40.96082 
L 398.071871 -40.872619 
L 398.957163 -40.738529 
L 399.842456 -40.558749 
L 400.727749 -40.335807 
L 401.613041 -40.073807 
L 402.498334 -39.777345 
L 403.383627 -39.450357 
L 404.26892 -39.09518 
L 405.154212 -38.712101 
L 406.039505 -38.299516 
L 406.924798 -37.85469 
L 407.81009 -37.374895 
L 408.695383 -36.858614 
L 409.580676 -36.30645 
L 410.465969 -35.721477 
L 411.351261 -35.108909 
L 412.236554 -34.4752 
L 413.121847 -33.826803 
L 414.007139 -33.168976 
L 414.892432 -32.50492 
L 415.777725 -31.835507 
L 416.663018 -31.159601 
L 417.54831 -30.474854 
L 418.433603 -29.778712 
L 419.318896 -29.069326 
L 420.204188 -28.346126 
L 421.089481 -27.609933 
L 421.974774 -26.862674 
L 422.860067 -26.106846 
L 423.745359 -25.344989 
L 424.630652 -24.579369 
L 425.515945 -23.811982 
L 426.401238 -23.044841 
L 427.28653 -22.280401 
L 428.171823 -21.521877 
L 429.057116 -20.773291 
L 429.942408 -20.039134 
L 430.827701 -19.323713 
L 431.712994 -18.630353 
L 432.598287 -17.960707 
L 433.483579 -17.314407 
L 434.368872 -16.689176 
L 435.254165 -16.081403 
L 436.139457 -15.487037 
L 437.02475 -14.902563 
L 437.910043 -14.325846 
L 438.795336 -13.756637 
L 439.680628 -13.19667 
L 440.565921 -12.649379 
L 441.451214 -12.119316 
L 442.336506 -11.611451 
L 443.221799 -11.130457 
L 444.107092 -10.680123 
L 444.992385 -10.262943 
L 445.877677 -9.879899 
L 446.76297 -9.530441 
L 447.648263 -9.212623 
L 448.533555 -8.92336 
L 449.418848 -8.658746 
L 450.304141 -8.414415 
L 451.189434 -8.185864 
L 452.074726 -7.96873 
L 452.960019 -7.758998 
L 453.845312 -7.55313 
L 454.730604 -7.348143 
L 455.615897 -7.141665 
L 456.50119 -6.932003 
L 457.386483 -6.718219 
L 458.271775 -6.500235 
L 459.157068 -6.278908 
L 460.042361 -6.056041 
L 460.927653 -5.834276 
L 461.812946 -5.616846 
L 462.698239 -5.407187 
L 463.583532 -5.208467 
L 464.468824 -5.023102 
L 465.354117 -4.852368 
L 466.23941 -4.696183 
L 467.124703 -4.553127 
L 468.009995 -4.420703 
L 468.895288 -4.29578 
L 468.895288 -2.470909 
L 468.895288 -2.470909 
L 468.009995 -2.470909 
L 467.124703 -2.470909 
L 466.23941 -2.470909 
L 465.354117 -2.470909 
L 464.468824 -2.470909 
L 463.583532 -2.470909 
L 462.698239 -2.470909 
L 461.812946 -2.470909 
L 460.927653 -2.470909 
L 460.042361 -2.470909 
L 459.157068 -2.470909 
L 458.271775 -2.470909 
L 457.386483 -2.470909 
L 456.50119 -2.470909 
L 455.615897 -2.470909 
L 454.730604 -2.470909 
L 453.845312 -2.470909 
L 452.960019 -2.470909 
L 452.074726 -2.470909 
L 451.189434 -2.470909 
L 450.304141 -2.470909 
L 449.418848 -2.470909 
L 448.533555 -2.470909 
L 447.648263 -2.470909 
L 446.76297 -2.470909 
L 445.877677 -2.470909 
L 444.992385 -2.470909 
L 444.107092 -2.470909 
L 443.221799 -2.470909 
L 442.336506 -2.470909 
L 441.451214 -2.470909 
L 440.565921 -2.470909 
L 439.680628 -2.470909 
L 438.795336 -2.470909 
L 437.910043 -2.470909 
L 437.02475 -2.470909 
L 436.139457 -2.470909 
L 435.254165 -2.470909 
L 434.368872 -2.470909 
L 433.483579 -2.470909 
L 432.598287 -2.470909 
L 431.712994 -2.470909 
L 430.827701 -2.470909 
L 429.942408 -2.470909 
L 429.057116 -2.470909 
L 428.171823 -2.470909 
L 427.28653 -2.470909 
L 426.401238 -2.470909 
L 425.515945 -2.470909 
L 424.630652 -2.470909 
L 423.745359 -2.470909 
L 422.860067 -2.470909 
L 421.974774 -2.470909 
L 421.089481 -2.470909 
L 420.204188 -2.470909 
L 419.318896 -2.470909 
L 418.433603 -2.470909 
L 417.54831 -2.470909 
L 416.663018 -2.470909 
L 415.777725 -2.470909 
L 414.892432 -2.470909 
L 414.007139 -2.470909 
L 413.121847 -2.470909 
L 412.236554 -2.470909 
L 411.351261 -2.470909 
L 410.465969 -2.470909 
L 409.580676 -2.470909 
L 408.695383 -2.470909 
L 407.81009 -2.470909 
L 406.924798 -2.470909 
L 406.039505 -2.470909 
L 405.154212 -2.470909 
L 404.26892 -2.470909 
L 403.383627 -2.470909 
L 402.498334 -2.470909 
L 401.613041 -2.470909 
L 400.727749 -2.470909 
L 399.842456 -2.470909 
L 398.957163 -2.470909 
L 398.071871 -2.470909 
L 397.186578 -2.470909 
L 396.301285 -2.470909 
L 395.415992 -2.470909 
L 394.5307 -2.470909 
L 393.645407 -2.470909 
L 392.760114 -2.470909 
L 391.874822 -2.470909 
L 390.989529 -2.470909 
L 390.104236 -2.470909 
L 389.218943 -2.470909 
L 388.333651 -2.470909 
L 387.448358 -2.470909 
L 386.563065 -2.470909 
L 385.677772 -2.470909 
L 384.79248 -2.470909 
L 383.907187 -2.470909 
L 383.021894 -2.470909 
L 382.136602 -2.470909 
L 381.251309 -2.470909 
L 380.366016 -2.470909 
L 379.480723 -2.470909 
L 378.595431 -2.470909 
L 377.710138 -2.470909 
L 376.824845 -2.470909 
L 375.939553 -2.470909 
L 375.05426 -2.470909 
L 374.168967 -2.470909 
L 373.283674 -2.470909 
L 372.398382 -2.470909 
L 371.513089 -2.470909 
L 370.627796 -2.470909 
L 369.742504 -2.470909 
L 368.857211 -2.470909 
L 367.971918 -2.470909 
L 367.086625 -2.470909 
L 366.201333 -2.470909 
L 365.31604 -2.470909 
L 364.430747 -2.470909 
L 363.545455 -2.470909 
L 362.660162 -2.470909 
L 361.774869 -2.470909 
L 360.889576 -2.470909 
L 360.004284 -2.470909 
L 359.118991 -2.470909 
L 358.233698 -2.470909 
L 357.348406 -2.470909 
L 356.463113 -2.470909 
L 355.57782 -2.470909 
L 354.692527 -2.470909 
L 353.807235 -2.470909 
L 352.921942 -2.470909 
L 352.036649 -2.470909 
L 351.151356 -2.470909 
L 350.266064 -2.470909 
L 349.380771 -2.470909 
L 348.495478 -2.470909 
L 347.610186 -2.470909 
L 346.724893 -2.470909 
L 345.8396 -2.470909 
L 344.954307 -2.470909 
L 344.069015 -2.470909 
L 343.183722 -2.470909 
L 342.298429 -2.470909 
L 341.413137 -2.470909 
L 340.527844 -2.470909 
L 339.642551 -2.470909 
L 338.757258 -2.470909 
L 337.871966 -2.470909 
L 336.986673 -2.470909 
L 336.10138 -2.470909 
L 335.216088 -2.470909 
L 334.330795 -2.470909 
L 333.445502 -2.470909 
L 332.560209 -2.470909 
L 331.674917 -2.470909 
L 330.789624 -2.470909 
L 329.904331 -2.470909 
L 329.019039 -2.470909 
L 328.133746 -2.470909 
L 327.248453 -2.470909 
L 326.36316 -2.470909 
L 325.477868 -2.470909 
L 324.592575 -2.470909 
L 323.707282 -2.470909 
L 322.82199 -2.470909 
L 321.936697 -2.470909 
L 321.051404 -2.470909 
L 320.166111 -2.470909 
L 319.280819 -2.470909 
L 318.395526 -2.470909 
L 317.510233 -2.470909 
L 316.624941 -2.470909 
L 315.739648 -2.470909 
L 314.854355 -2.470909 
z
" style="stroke: #cf1313; stroke-opacity: 0.2"/>
    </defs>
    <g clip-path="url(#p49b4cdfebc)">
     <use xlink:href="#m092db700d9" x="0" y="54.36" style="fill: #cf1313; fill-opacity: 0.2; stroke: #cf1313; stroke-opacity: 0.2"/>
    </g>
   </g>
   <g id="PolyCollection_2">
    <defs>
     <path id="m46c40348d4" d="M 368.857211 -2.470909 
L 368.857211 -3.964854 
L 369.742504 -4.023402 
L 370.627796 -4.088316 
L 371.513089 -4.162133 
L 372.398382 -4.246931 
L 373.283674 -4.344172 
L 374.168967 -4.454637 
L 375.05426 -4.578478 
L 375.939553 -4.715377 
L 376.824845 -4.864772 
L 377.710138 -5.026093 
L 378.595431 -5.198978 
L 379.480723 -5.383384 
L 380.366016 -5.579605 
L 381.251309 -5.788153 
L 382.136602 -6.00956 
L 383.021894 -6.244132 
L 383.907187 -6.491716 
L 384.79248 -6.751545 
L 385.677772 -7.022198 
L 386.563065 -7.301698 
L 387.448358 -7.587744 
L 388.333651 -7.878033 
L 389.218943 -8.170617 
L 390.104236 -8.464239 
L 390.989529 -8.758567 
L 391.874822 -9.054294 
L 392.760114 -9.353067 
L 393.645407 -9.657261 
L 394.5307 -9.969628 
L 395.415992 -10.292893 
L 396.301285 -10.629362 
L 397.186578 -10.980638 
L 398.071871 -11.34748 
L 398.957163 -11.729853 
L 399.842456 -12.127142 
L 400.727749 -12.538488 
L 401.613041 -12.963156 
L 402.498334 -13.400859 
L 403.383627 -13.851949 
L 404.26892 -14.317437 
L 405.154212 -14.798833 
L 406.039505 -15.297845 
L 406.924798 -15.816004 
L 407.81009 -16.354303 
L 408.695383 -16.912915 
L 409.580676 -17.491031 
L 410.465969 -18.086842 
L 411.351261 -18.697629 
L 412.236554 -19.31994 
L 413.121847 -19.949821 
L 414.007139 -20.583068 
L 414.892432 -21.215502 
L 415.777725 -21.843274 
L 416.663018 -22.463184 
L 417.54831 -23.073009 
L 418.433603 -23.671789 
L 419.318896 -24.260017 
L 420.204188 -24.839673 
L 421.089481 -25.414051 
L 421.974774 -25.987383 
L 422.860067 -26.564297 
L 423.745359 -27.149171 
L 424.630652 -27.745505 
L 425.515945 -28.355387 
L 426.401238 -28.979138 
L 427.28653 -29.615164 
L 428.171823 -30.260013 
L 429.057116 -30.908611 
L 429.942408 -31.55463 
L 430.827701 -32.190939 
L 431.712994 -32.810121 
L 432.598287 -33.405026 
L 433.483579 -33.969336 
L 434.368872 -34.4981 
L 435.254165 -34.988206 
L 436.139457 -35.438698 
L 437.02475 -35.850893 
L 437.910043 -36.228238 
L 438.795336 -36.575919 
L 439.680628 -36.900236 
L 440.565921 -37.207854 
L 441.451214 -37.505023 
L 442.336506 -37.796874 
L 443.221799 -38.08689 
L 444.107092 -38.376598 
L 444.992385 -38.665492 
L 445.877677 -38.951175 
L 446.76297 -39.229681 
L 447.648263 -39.495919 
L 448.533555 -39.744197 
L 449.418848 -39.968756 
L 450.304141 -40.164269 
L 451.189434 -40.326231 
L 452.074726 -40.451207 
L 452.960019 -40.536909 
L 453.845312 -40.582104 
L 454.730604 -40.586412 
L 455.615897 -40.550064 
L 456.50119 -40.473707 
L 457.386483 -40.358326 
L 458.271775 -40.205316 
L 459.157068 -40.016673 
L 460.042361 -39.79523 
L 460.927653 -39.544812 
L 461.812946 -39.270207 
L 462.698239 -38.976857 
L 463.583532 -38.670266 
L 464.468824 -38.35518 
L 465.354117 -38.034687 
L 466.23941 -37.709436 
L 467.124703 -37.377161 
L 468.009995 -37.032688 
L 468.895288 -36.668459 
L 469.780581 -36.275573 
L 470.665873 -35.845151 
L 471.551166 -35.36983 
L 472.436459 -34.845095 
L 473.321752 -34.27022 
L 474.207044 -33.648644 
L 475.092337 -32.987731 
L 475.97763 -32.297943 
L 476.862922 -31.591593 
L 477.748215 -30.881396 
L 478.633508 -30.179043 
L 479.518801 -29.494031 
L 480.404093 -28.832907 
L 481.289386 -28.198987 
L 482.174679 -27.592555 
L 483.059971 -27.011432 
L 483.945264 -26.451768 
L 484.830557 -25.908883 
L 485.71585 -25.377999 
L 486.601142 -24.854752 
L 487.486435 -24.335444 
L 488.371728 -23.817041 
L 489.25702 -23.297027 
L 490.142313 -22.773184 
L 491.027606 -22.243445 
L 491.912899 -21.705859 
L 492.798191 -21.158747 
L 493.683484 -20.600979 
L 494.568777 -20.032349 
L 495.454069 -19.453925 
L 496.339362 -18.868278 
L 497.224655 -18.279524 
L 498.109948 -17.693113 
L 498.99524 -17.115384 
L 499.880533 -16.552935 
L 500.765826 -16.011902 
L 501.651119 -15.497258 
L 502.536411 -15.012243 
L 503.421704 -14.558024 
L 504.306997 -14.133635 
L 505.192289 -13.736203 
L 506.077582 -13.361414 
L 506.962875 -13.004143 
L 507.848168 -12.65912 
L 508.73346 -12.321536 
L 509.618753 -11.987475 
L 510.504046 -11.654129 
L 511.389338 -11.319777 
L 512.274631 -10.983578 
L 513.159924 -10.645261 
L 514.045217 -10.304807 
L 514.930509 -9.962231 
L 515.815802 -9.617496 
L 516.701095 -9.270609 
L 517.586387 -8.921831 
L 518.47168 -8.571935 
L 519.356973 -8.222431 
L 520.242266 -7.875649 
L 521.127558 -7.534657 
L 522.012851 -7.202993 
L 522.898144 -6.884261 
L 523.783436 -6.581675 
L 524.668729 -6.297651 
L 525.554022 -6.033516 
L 526.439315 -5.789408 
L 527.324607 -5.564365 
L 528.2099 -5.356568 
L 529.095193 -5.163694 
L 529.980485 -4.983271 
L 530.865778 -4.813004 
L 531.751071 -4.650988 
L 532.636364 -4.495824 
L 532.636364 -2.470909 
L 532.636364 -2.470909 
L 531.751071 -2.470909 
L 530.865778 -2.470909 
L 529.980485 -2.470909 
L 529.095193 -2.470909 
L 528.2099 -2.470909 
L 527.324607 -2.470909 
L 526.439315 -2.470909 
L 525.554022 -2.470909 
L 524.668729 -2.470909 
L 523.783436 -2.470909 
L 522.898144 -2.470909 
L 522.012851 -2.470909 
L 521.127558 -2.470909 
L 520.242266 -2.470909 
L 519.356973 -2.470909 
L 518.47168 -2.470909 
L 517.586387 -2.470909 
L 516.701095 -2.470909 
L 515.815802 -2.470909 
L 514.930509 -2.470909 
L 514.045217 -2.470909 
L 513.159924 -2.470909 
L 512.274631 -2.470909 
L 511.389338 -2.470909 
L 510.504046 -2.470909 
L 509.618753 -2.470909 
L 508.73346 -2.470909 
L 507.848168 -2.470909 
L 506.962875 -2.470909 
L 506.077582 -2.470909 
L 505.192289 -2.470909 
L 504.306997 -2.470909 
L 503.421704 -2.470909 
L 502.536411 -2.470909 
L 501.651119 -2.470909 
L 500.765826 -2.470909 
L 499.880533 -2.470909 
L 498.99524 -2.470909 
L 498.109948 -2.470909 
L 497.224655 -2.470909 
L 496.339362 -2.470909 
L 495.454069 -2.470909 
L 494.568777 -2.470909 
L 493.683484 -2.470909 
L 492.798191 -2.470909 
L 491.912899 -2.470909 
L 491.027606 -2.470909 
L 490.142313 -2.470909 
L 489.25702 -2.470909 
L 488.371728 -2.470909 
L 487.486435 -2.470909 
L 486.601142 -2.470909 
L 485.71585 -2.470909 
L 484.830557 -2.470909 
L 483.945264 -2.470909 
L 483.059971 -2.470909 
L 482.174679 -2.470909 
L 481.289386 -2.470909 
L 480.404093 -2.470909 
L 479.518801 -2.470909 
L 478.633508 -2.470909 
L 477.748215 -2.470909 
L 476.862922 -2.470909 
L 475.97763 -2.470909 
L 475.092337 -2.470909 
L 474.207044 -2.470909 
L 473.321752 -2.470909 
L 472.436459 -2.470909 
L 471.551166 -2.470909 
L 470.665873 -2.470909 
L 469.780581 -2.470909 
L 468.895288 -2.470909 
L 468.009995 -2.470909 
L 467.124703 -2.470909 
L 466.23941 -2.470909 
L 465.354117 -2.470909 
L 464.468824 -2.470909 
L 463.583532 -2.470909 
L 462.698239 -2.470909 
L 461.812946 -2.470909 
L 460.927653 -2.470909 
L 460.042361 -2.470909 
L 459.157068 -2.470909 
L 458.271775 -2.470909 
L 457.386483 -2.470909 
L 456.50119 -2.470909 
L 455.615897 -2.470909 
L 454.730604 -2.470909 
L 453.845312 -2.470909 
L 452.960019 -2.470909 
L 452.074726 -2.470909 
L 451.189434 -2.470909 
L 450.304141 -2.470909 
L 449.418848 -2.470909 
L 448.533555 -2.470909 
L 447.648263 -2.470909 
L 446.76297 -2.470909 
L 445.877677 -2.470909 
L 444.992385 -2.470909 
L 444.107092 -2.470909 
L 443.221799 -2.470909 
L 442.336506 -2.470909 
L 441.451214 -2.470909 
L 440.565921 -2.470909 
L 439.680628 -2.470909 
L 438.795336 -2.470909 
L 437.910043 -2.470909 
L 437.02475 -2.470909 
L 436.139457 -2.470909 
L 435.254165 -2.470909 
L 434.368872 -2.470909 
L 433.483579 -2.470909 
L 432.598287 -2.470909 
L 431.712994 -2.470909 
L 430.827701 -2.470909 
L 429.942408 -2.470909 
L 429.057116 -2.470909 
L 428.171823 -2.470909 
L 427.28653 -2.470909 
L 426.401238 -2.470909 
L 425.515945 -2.470909 
L 424.630652 -2.470909 
L 423.745359 -2.470909 
L 422.860067 -2.470909 
L 421.974774 -2.470909 
L 421.089481 -2.470909 
L 420.204188 -2.470909 
L 419.318896 -2.470909 
L 418.433603 -2.470909 
L 417.54831 -2.470909 
L 416.663018 -2.470909 
L 415.777725 -2.470909 
L 414.892432 -2.470909 
L 414.007139 -2.470909 
L 413.121847 -2.470909 
L 412.236554 -2.470909 
L 411.351261 -2.470909 
L 410.465969 -2.470909 
L 409.580676 -2.470909 
L 408.695383 -2.470909 
L 407.81009 -2.470909 
L 406.924798 -2.470909 
L 406.039505 -2.470909 
L 405.154212 -2.470909 
L 404.26892 -2.470909 
L 403.383627 -2.470909 
L 402.498334 -2.470909 
L 401.613041 -2.470909 
L 400.727749 -2.470909 
L 399.842456 -2.470909 
L 398.957163 -2.470909 
L 398.071871 -2.470909 
L 397.186578 -2.470909 
L 396.301285 -2.470909 
L 395.415992 -2.470909 
L 394.5307 -2.470909 
L 393.645407 -2.470909 
L 392.760114 -2.470909 
L 391.874822 -2.470909 
L 390.989529 -2.470909 
L 390.104236 -2.470909 
L 389.218943 -2.470909 
L 388.333651 -2.470909 
L 387.448358 -2.470909 
L 386.563065 -2.470909 
L 385.677772 -2.470909 
L 384.79248 -2.470909 
L 383.907187 -2.470909 
L 383.021894 -2.470909 
L 382.136602 -2.470909 
L 381.251309 -2.470909 
L 380.366016 -2.470909 
L 379.480723 -2.470909 
L 378.595431 -2.470909 
L 377.710138 -2.470909 
L 376.824845 -2.470909 
L 375.939553 -2.470909 
L 375.05426 -2.470909 
L 374.168967 -2.470909 
L 373.283674 -2.470909 
L 372.398382 -2.470909 
L 371.513089 -2.470909 
L 370.627796 -2.470909 
L 369.742504 -2.470909 
L 368.857211 -2.470909 
z
" style="stroke: #116dc2; stroke-opacity: 0.2"/>
    </defs>
    <g clip-path="url(#p49b4cdfebc)">
     <use xlink:href="#m46c40348d4" x="0" y="54.36" style="fill: #116dc2; fill-opacity: 0.2; stroke: #116dc2; stroke-opacity: 0.2"/>
    </g>
   </g>
   <g id="PolyCollection_3">
    <defs>
     <path id="mf1228a8d12" d="M 25.363636 -2.470909 
L 25.363636 -4.439433 
L 26.248929 -5.047166 
L 27.134222 -5.758437 
L 28.019515 -6.611686 
L 28.904807 -7.651279 
L 29.7901 -8.892086 
L 30.675393 -10.360781 
L 31.560685 -12.045547 
L 32.445978 -13.827196 
L 33.331271 -15.610033 
L 34.216564 -17.496918 
L 35.101856 -19.637961 
L 35.987149 -21.979169 
L 36.872442 -24.407213 
L 37.757734 -26.971593 
L 38.643027 -29.786234 
L 39.52832 -32.89554 
L 40.413613 -36.268075 
L 41.298905 -39.731562 
L 42.184198 -42.85788 
L 43.069491 -45.177882 
L 43.954783 -46.756161 
L 44.840076 -48.253527 
L 45.725369 -50.030246 
L 46.610662 -51.515787 
L 47.495954 -51.889091 
L 48.381247 -51.049272 
L 49.26654 -49.656485 
L 50.151832 -48.459861 
L 51.037125 -47.600199 
L 51.922418 -46.527057 
L 52.807711 -44.68697 
L 53.693003 -42.093638 
L 54.578296 -39.182546 
L 55.463589 -36.470496 
L 56.348881 -34.223043 
L 57.234174 -32.098059 
L 58.119467 -29.52323 
L 59.00476 -26.575078 
L 59.890052 -23.814946 
L 60.775345 -21.372201 
L 61.660638 -18.951224 
L 62.545931 -16.466973 
L 63.431223 -14.071863 
L 64.316516 -11.850497 
L 65.201809 -9.862244 
L 66.087101 -8.273562 
L 66.972394 -7.202356 
L 67.857687 -6.515748 
L 68.74298 -5.927557 
L 69.628272 -5.263661 
L 70.513565 -4.573202 
L 70.513565 -2.470909 
L 70.513565 -2.470909 
L 69.628272 -2.470909 
L 68.74298 -2.470909 
L 67.857687 -2.470909 
L 66.972394 -2.470909 
L 66.087101 -2.470909 
L 65.201809 -2.470909 
L 64.316516 -2.470909 
L 63.431223 -2.470909 
L 62.545931 -2.470909 
L 61.660638 -2.470909 
L 60.775345 -2.470909 
L 59.890052 -2.470909 
L 59.00476 -2.470909 
L 58.119467 -2.470909 
L 57.234174 -2.470909 
L 56.348881 -2.470909 
L 55.463589 -2.470909 
L 54.578296 -2.470909 
L 53.693003 -2.470909 
L 52.807711 -2.470909 
L 51.922418 -2.470909 
L 51.037125 -2.470909 
L 50.151832 -2.470909 
L 49.26654 -2.470909 
L 48.381247 -2.470909 
L 47.495954 -2.470909 
L 46.610662 -2.470909 
L 45.725369 -2.470909 
L 44.840076 -2.470909 
L 43.954783 -2.470909 
L 43.069491 -2.470909 
L 42.184198 -2.470909 
L 41.298905 -2.470909 
L 40.413613 -2.470909 
L 39.52832 -2.470909 
L 38.643027 -2.470909 
L 37.757734 -2.470909 
L 36.872442 -2.470909 
L 35.987149 -2.470909 
L 35.101856 -2.470909 
L 34.216564 -2.470909 
L 33.331271 -2.470909 
L 32.445978 -2.470909 
L 31.560685 -2.470909 
L 30.675393 -2.470909 
L 29.7901 -2.470909 
L 28.904807 -2.470909 
L 28.019515 -2.470909 
L 27.134222 -2.470909 
L 26.248929 -2.470909 
L 25.363636 -2.470909 
z
" style="stroke: #8a8a8a; stroke-opacity: 0.2"/>
    </defs>
    <g clip-path="url(#p49b4cdfebc)">
     <use xlink:href="#mf1228a8d12" x="0" y="54.36" style="fill: #8a8a8a; fill-opacity: 0.2; stroke: #8a8a8a; stroke-opacity: 0.2"/>
    </g>
   </g>
   <g id="line2d_1">
    <path d="M 314.854355 50.276975 
L 318.395526 49.86044 
L 321.051404 49.385837 
L 324.592575 48.486518 
L 328.133746 47.331328 
L 332.560209 45.629927 
L 337.871966 43.323836 
L 341.413137 41.530703 
L 344.954307 39.473787 
L 357.348406 31.833852 
L 360.004284 29.800032 
L 367.086625 23.994001 
L 369.742504 22.290742 
L 379.480723 16.622669 
L 382.136602 15.505907 
L 384.79248 14.701078 
L 387.448358 14.154107 
L 390.989529 13.675482 
L 394.5307 13.375006 
L 397.186578 13.39918 
L 398.957163 13.621471 
L 400.727749 14.024193 
L 403.383627 14.909643 
L 406.039505 16.060484 
L 408.695383 17.501386 
L 411.351261 19.251091 
L 415.777725 22.524493 
L 420.204188 26.013874 
L 425.515945 30.548018 
L 430.827701 35.036287 
L 434.368872 37.670824 
L 438.795336 40.603363 
L 442.336506 42.748549 
L 444.992385 44.097057 
L 447.648263 45.147377 
L 450.304141 45.945585 
L 455.615897 47.218335 
L 466.23941 49.663817 
L 468.895288 50.06422 
L 468.895288 50.06422 
" clip-path="url(#p49b4cdfebc)" style="fill: none; stroke: #cf1313; stroke-width: 1.5; stroke-linecap: square"/>
   </g>
   <g id="line2d_2">
    <path d="M 368.857211 50.395146 
L 373.283674 50.015828 
L 376.824845 49.495228 
L 380.366016 48.780395 
L 383.907187 47.868284 
L 388.333651 46.481967 
L 395.415992 44.067107 
L 398.957163 42.630147 
L 402.498334 40.959141 
L 406.039505 39.062155 
L 409.580676 36.868969 
L 414.007139 33.776932 
L 419.318896 30.099983 
L 426.401238 25.380862 
L 433.483579 20.390664 
L 436.139457 18.921302 
L 438.795336 17.784081 
L 443.221799 16.27311 
L 448.533555 14.615803 
L 451.189434 14.033769 
L 452.960019 13.823091 
L 454.730604 13.773588 
L 456.50119 13.886293 
L 459.157068 14.343327 
L 461.812946 15.089793 
L 466.23941 16.650564 
L 469.780581 18.084427 
L 471.551166 18.99017 
L 473.321752 20.08978 
L 475.97763 22.062057 
L 481.289386 26.161013 
L 483.945264 27.908232 
L 490.142313 31.586816 
L 494.568777 34.327651 
L 501.651119 38.862742 
L 504.306997 40.226365 
L 507.848168 41.70088 
L 524.668729 48.062349 
L 528.2099 49.003432 
L 532.636364 49.864176 
L 532.636364 49.864176 
" clip-path="url(#p49b4cdfebc)" style="fill: none; stroke: #116dc2; stroke-width: 1.5; stroke-linecap: square"/>
   </g>
   <g id="line2d_3">
    <path d="M 25.363636 49.920567 
L 26.248929 49.312834 
L 27.134222 48.601563 
L 28.019515 47.748314 
L 28.904807 46.708721 
L 29.7901 45.467914 
L 30.675393 43.999219 
L 31.560685 42.314453 
L 32.445978 40.532804 
L 33.331271 38.749967 
L 34.216564 36.863082 
L 35.101856 34.722039 
L 35.987149 32.380831 
L 36.872442 29.952787 
L 37.757734 27.388407 
L 38.643027 24.573766 
L 39.52832 21.46446 
L 40.413613 18.091925 
L 41.298905 14.628438 
L 42.184198 11.50212 
L 43.069491 9.182118 
L 43.954783 7.603839 
L 44.840076 6.106473 
L 45.725369 4.329754 
L 46.610662 2.844213 
L 47.495954 2.470909 
L 48.381247 3.310728 
L 49.26654 4.703515 
L 50.151832 5.900139 
L 51.037125 6.759801 
L 51.922418 7.832943 
L 52.807711 9.67303 
L 53.693003 12.266362 
L 54.578296 15.177454 
L 55.463589 17.889504 
L 56.348881 20.136957 
L 57.234174 22.261941 
L 58.119467 24.83677 
L 59.00476 27.784922 
L 59.890052 30.545054 
L 60.775345 32.987799 
L 61.660638 35.408776 
L 62.545931 37.893027 
L 63.431223 40.288137 
L 64.316516 42.509503 
L 65.201809 44.497756 
L 66.087101 46.086438 
L 66.972394 47.157644 
L 67.857687 47.844252 
L 68.74298 48.432443 
L 69.628272 49.096339 
L 70.513565 49.786798 
" clip-path="url(#p49b4cdfebc)" style="fill: none; stroke: #8a8a8a; stroke-width: 1.5; stroke-linecap: square"/>
   </g>
  </g>
 </g>
 <defs>
  <clipPath id="p49b4cdfebc">
   <rect x="0" y="-0" width="558" height="54.36"/>
  </clipPath>
 </defs>
</svg>
