<?xml version="1.0" encoding="utf-8" standalone="no"?>
<!DOCTYPE svg PUBLIC "-//W3C//DTD SVG 1.1//EN"
  "http://www.w3.org/Graphics/SVG/1.1/DTD/svg11.dtd">
<svg xmlns:xlink="http://www.w3.org/1999/xlink" width="558pt" height="54.36pt" viewBox="0 0 558 54.36" xmlns="http://www.w3.org/2000/svg" version="1.1">
 <metadata>
  <rdf:RDF xmlns:dc="http://purl.org/dc/elements/1.1/" xmlns:cc="http://creativecommons.org/ns#" xmlns:rdf="http://www.w3.org/1999/02/22-rdf-syntax-ns#">
   <cc:Work>
    <dc:type rdf:resource="http://purl.org/dc/dcmitype/StillImage"/>
    <dc:date>2024-09-15T09:31:29.060071</dc:date>
    <dc:format>image/svg+xml</dc:format>
    <dc:creator>
     <cc:Agent>
      <dc:title>Matplotlib v3.5.2, https://matplotlib.org/</dc:title>
     </cc:Agent>
    </dc:creator>
   </cc:Work>
  </rdf:RDF>
 </metadata>
 <defs>
  <style type="text/css">*{stroke-linejoin: round; stroke-linecap: butt}</style>
 </defs>
 <g id="figure_1">
  <g id="patch_1">
   <path d="M 0 54.36 
L 558 54.36 
L 558 0 
L 0 0 
L 0 54.36 
z
" style="fill: none; opacity: 0"/>
  </g>
  <g id="axes_1">
   <g id="PolyCollection_1">
    <defs>
     <path id="m6edc2b458e" d="M 313.606689 -2.470909 
L 313.606689 -4.046745 
L 314.482807 -4.155962 
L 315.358926 -4.273803 
L 316.235045 -4.403135 
L 317.111163 -4.547072 
L 317.987282 -4.70856 
L 318.863401 -4.889923 
L 319.73952 -5.092491 
L 320.615638 -5.316412 
L 321.491757 -5.560684 
L 322.367876 -5.823424 
L 323.243994 -6.102285 
L 324.120113 -6.394915 
L 324.996232 -6.699349 
L 325.87235 -7.014229 
L 326.748469 -7.338846 
L 327.624588 -7.673011 
L 328.500707 -8.016854 
L 329.376825 -8.370599 
L 330.252944 -8.734413 
L 331.129063 -9.108334 
L 332.005181 -9.49228 
L 332.8813 -9.886102 
L 333.757419 -10.289653 
L 334.633537 -10.702838 
L 335.509656 -11.125632 
L 336.385775 -11.558067 
L 337.261894 -12.00017 
L 338.138012 -12.451865 
L 339.014131 -12.912821 
L 339.89025 -13.38228 
L 340.766368 -13.858909 
L 341.642487 -14.340749 
L 342.518606 -14.825331 
L 343.394724 -15.310019 
L 344.270843 -15.792565 
L 345.146962 -16.271771 
L 346.023081 -16.748126 
L 346.899199 -17.224216 
L 347.775318 -17.704763 
L 348.651437 -18.196238 
L 349.527555 -18.706097 
L 350.403674 -19.241782 
L 351.279793 -19.809724 
L 352.155911 -20.414527 
L 353.03203 -21.058498 
L 353.908149 -21.741549 
L 354.784268 -22.461445 
L 355.660386 -23.214278 
L 356.536505 -23.995033 
L 357.412624 -24.798136 
L 358.288742 -25.617901 
L 359.164861 -26.448809 
L 360.04098 -27.285613 
L 360.917098 -28.123281 
L 361.793217 -28.956813 
L 362.669336 -29.781024 
L 363.545455 -30.590394 
L 364.421573 -31.379092 
L 365.297692 -32.141252 
L 366.173811 -32.871476 
L 367.049929 -33.565495 
L 367.926048 -34.220807 
L 368.802167 -34.837136 
L 369.678285 -35.416571 
L 370.554404 -35.96332 
L 371.430523 -36.483137 
L 372.306642 -36.982496 
L 373.18276 -37.467669 
L 374.058879 -37.943781 
L 374.934998 -38.41396 
L 375.811116 -38.878615 
L 376.687235 -39.334942 
L 377.563354 -39.776755 
L 378.439472 -40.194765 
L 379.315591 -40.577398 
L 380.19171 -40.912136 
L 381.067829 -41.187243 
L 381.943947 -41.393578 
L 382.820066 -41.526092 
L 383.696185 -41.584655 
L 384.572303 -41.57394 
L 385.448422 -41.50237 
L 386.324541 -41.38034 
L 387.200659 -41.21817 
L 388.076778 -41.024284 
L 388.952897 -40.804078 
L 389.829016 -40.559719 
L 390.705134 -40.290837 
L 391.581253 -39.995863 
L 392.457372 -39.673561 
L 393.33349 -39.324312 
L 394.209609 -38.950827 
L 395.085728 -38.558127 
L 395.961846 -38.152872 
L 396.837965 -37.742283 
L 397.714084 -37.332934 
L 398.590203 -36.929735 
L 399.466321 -36.535275 
L 400.34244 -36.149618 
L 401.218559 -35.770523 
L 402.094677 -35.393967 
L 402.970796 -35.014835 
L 403.846915 -34.627632 
L 404.723033 -34.227087 
L 405.599152 -33.808583 
L 406.475271 -33.368393 
L 407.35139 -32.903756 
L 408.227508 -32.412852 
L 409.103627 -31.894773 
L 409.979746 -31.349513 
L 410.855864 -30.778005 
L 411.731983 -30.182153 
L 412.608102 -29.564781 
L 413.48422 -28.929447 
L 414.360339 -28.280088 
L 415.236458 -27.620538 
L 416.112577 -26.954022 
L 416.988695 -26.28275 
L 417.864814 -25.607725 
L 418.740933 -24.928829 
L 419.617051 -24.245175 
L 420.49317 -23.55564 
L 421.369289 -22.859442 
L 422.245407 -22.156624 
L 423.121526 -21.448335 
L 423.997645 -20.736852 
L 424.873764 -20.025362 
L 425.749882 -19.317589 
L 426.626001 -18.617363 
L 427.50212 -17.928258 
L 428.378238 -17.253361 
L 429.254357 -16.595231 
L 430.130476 -15.95599 
L 431.006594 -15.337512 
L 431.882713 -14.741594 
L 432.758832 -14.170035 
L 433.634951 -13.624563 
L 434.511069 -13.106617 
L 435.387188 -12.617015 
L 436.263307 -12.155613 
L 437.139425 -11.72105 
L 438.015544 -11.310673 
L 438.891663 -10.920705 
L 439.767781 -10.546639 
L 440.6439 -10.183812 
L 441.520019 -9.828038 
L 442.396138 -9.476179 
L 443.272256 -9.126519 
L 444.148375 -8.778882 
L 445.024494 -8.434456 
L 445.900612 -8.095392 
L 446.776731 -7.764261 
L 447.65285 -7.443503 
L 448.528968 -7.134979 
L 449.405087 -6.839708 
L 450.281206 -6.557815 
L 451.157325 -6.288681 
L 452.033443 -6.03124 
L 452.909562 -5.784343 
L 453.785681 -5.547114 
L 454.661799 -5.319217 
L 455.537918 -5.100993 
L 456.414037 -4.893425 
L 457.290155 -4.697953 
L 458.166274 -4.516161 
L 459.042393 -4.349417 
L 459.918512 -4.19853 
L 460.79463 -4.063508 
L 460.79463 -2.470909 
L 460.79463 -2.470909 
L 459.918512 -2.470909 
L 459.042393 -2.470909 
L 458.166274 -2.470909 
L 457.290155 -2.470909 
L 456.414037 -2.470909 
L 455.537918 -2.470909 
L 454.661799 -2.470909 
L 453.785681 -2.470909 
L 452.909562 -2.470909 
L 452.033443 -2.470909 
L 451.157325 -2.470909 
L 450.281206 -2.470909 
L 449.405087 -2.470909 
L 448.528968 -2.470909 
L 447.65285 -2.470909 
L 446.776731 -2.470909 
L 445.900612 -2.470909 
L 445.024494 -2.470909 
L 444.148375 -2.470909 
L 443.272256 -2.470909 
L 442.396138 -2.470909 
L 441.520019 -2.470909 
L 440.6439 -2.470909 
L 439.767781 -2.470909 
L 438.891663 -2.470909 
L 438.015544 -2.470909 
L 437.139425 -2.470909 
L 436.263307 -2.470909 
L 435.387188 -2.470909 
L 434.511069 -2.470909 
L 433.634951 -2.470909 
L 432.758832 -2.470909 
L 431.882713 -2.470909 
L 431.006594 -2.470909 
L 430.130476 -2.470909 
L 429.254357 -2.470909 
L 428.378238 -2.470909 
L 427.50212 -2.470909 
L 426.626001 -2.470909 
L 425.749882 -2.470909 
L 424.873764 -2.470909 
L 423.997645 -2.470909 
L 423.121526 -2.470909 
L 422.245407 -2.470909 
L 421.369289 -2.470909 
L 420.49317 -2.470909 
L 419.617051 -2.470909 
L 418.740933 -2.470909 
L 417.864814 -2.470909 
L 416.988695 -2.470909 
L 416.112577 -2.470909 
L 415.236458 -2.470909 
L 414.360339 -2.470909 
L 413.48422 -2.470909 
L 412.608102 -2.470909 
L 411.731983 -2.470909 
L 410.855864 -2.470909 
L 409.979746 -2.470909 
L 409.103627 -2.470909 
L 408.227508 -2.470909 
L 407.35139 -2.470909 
L 406.475271 -2.470909 
L 405.599152 -2.470909 
L 404.723033 -2.470909 
L 403.846915 -2.470909 
L 402.970796 -2.470909 
L 402.094677 -2.470909 
L 401.218559 -2.470909 
L 400.34244 -2.470909 
L 399.466321 -2.470909 
L 398.590203 -2.470909 
L 397.714084 -2.470909 
L 396.837965 -2.470909 
L 395.961846 -2.470909 
L 395.085728 -2.470909 
L 394.209609 -2.470909 
L 393.33349 -2.470909 
L 392.457372 -2.470909 
L 391.581253 -2.470909 
L 390.705134 -2.470909 
L 389.829016 -2.470909 
L 388.952897 -2.470909 
L 388.076778 -2.470909 
L 387.200659 -2.470909 
L 386.324541 -2.470909 
L 385.448422 -2.470909 
L 384.572303 -2.470909 
L 383.696185 -2.470909 
L 382.820066 -2.470909 
L 381.943947 -2.470909 
L 381.067829 -2.470909 
L 380.19171 -2.470909 
L 379.315591 -2.470909 
L 378.439472 -2.470909 
L 377.563354 -2.470909 
L 376.687235 -2.470909 
L 375.811116 -2.470909 
L 374.934998 -2.470909 
L 374.058879 -2.470909 
L 373.18276 -2.470909 
L 372.306642 -2.470909 
L 371.430523 -2.470909 
L 370.554404 -2.470909 
L 369.678285 -2.470909 
L 368.802167 -2.470909 
L 367.926048 -2.470909 
L 367.049929 -2.470909 
L 366.173811 -2.470909 
L 365.297692 -2.470909 
L 364.421573 -2.470909 
L 363.545455 -2.470909 
L 362.669336 -2.470909 
L 361.793217 -2.470909 
L 360.917098 -2.470909 
L 360.04098 -2.470909 
L 359.164861 -2.470909 
L 358.288742 -2.470909 
L 357.412624 -2.470909 
L 356.536505 -2.470909 
L 355.660386 -2.470909 
L 354.784268 -2.470909 
L 353.908149 -2.470909 
L 353.03203 -2.470909 
L 352.155911 -2.470909 
L 351.279793 -2.470909 
L 350.403674 -2.470909 
L 349.527555 -2.470909 
L 348.651437 -2.470909 
L 347.775318 -2.470909 
L 346.899199 -2.470909 
L 346.023081 -2.470909 
L 345.146962 -2.470909 
L 344.270843 -2.470909 
L 343.394724 -2.470909 
L 342.518606 -2.470909 
L 341.642487 -2.470909 
L 340.766368 -2.470909 
L 339.89025 -2.470909 
L 339.014131 -2.470909 
L 338.138012 -2.470909 
L 337.261894 -2.470909 
L 336.385775 -2.470909 
L 335.509656 -2.470909 
L 334.633537 -2.470909 
L 333.757419 -2.470909 
L 332.8813 -2.470909 
L 332.005181 -2.470909 
L 331.129063 -2.470909 
L 330.252944 -2.470909 
L 329.376825 -2.470909 
L 328.500707 -2.470909 
L 327.624588 -2.470909 
L 326.748469 -2.470909 
L 325.87235 -2.470909 
L 324.996232 -2.470909 
L 324.120113 -2.470909 
L 323.243994 -2.470909 
L 322.367876 -2.470909 
L 321.491757 -2.470909 
L 320.615638 -2.470909 
L 319.73952 -2.470909 
L 318.863401 -2.470909 
L 317.987282 -2.470909 
L 317.111163 -2.470909 
L 316.235045 -2.470909 
L 315.358926 -2.470909 
L 314.482807 -2.470909 
L 313.606689 -2.470909 
z
" style="stroke: #cf1313; stroke-opacity: 0.2"/>
    </defs>
    <g clip-path="url(#p096acd03e5)">
     <use xlink:href="#m6edc2b458e" x="0" y="54.36" style="fill: #cf1313; fill-opacity: 0.2; stroke: #cf1313; stroke-opacity: 0.2"/>
    </g>
   </g>
   <g id="PolyCollection_2">
    <defs>
     <path id="mcdf4820416" d="M 370.554404 -2.470909 
L 370.554404 -4.481696 
L 371.430523 -4.654989 
L 372.306642 -4.827674 
L 373.18276 -4.996836 
L 374.058879 -5.160586 
L 374.934998 -5.318363 
L 375.811116 -5.471038 
L 376.687235 -5.620786 
L 377.563354 -5.770764 
L 378.439472 -5.92466 
L 379.315591 -6.086202 
L 380.19171 -6.258724 
L 381.067829 -6.444853 
L 381.943947 -6.646359 
L 382.820066 -6.864153 
L 383.696185 -7.098412 
L 384.572303 -7.348783 
L 385.448422 -7.614601 
L 386.324541 -7.8951 
L 387.200659 -8.189588 
L 388.076778 -8.49756 
L 388.952897 -8.81878 
L 389.829016 -9.153292 
L 390.705134 -9.501397 
L 391.581253 -9.863579 
L 392.457372 -10.240403 
L 393.33349 -10.632369 
L 394.209609 -11.039774 
L 395.085728 -11.462566 
L 395.961846 -11.900234 
L 396.837965 -12.351724 
L 397.714084 -12.81542 
L 398.590203 -13.289172 
L 399.466321 -13.770375 
L 400.34244 -14.256114 
L 401.218559 -14.743358 
L 402.094677 -15.229198 
L 402.970796 -15.711122 
L 403.846915 -16.187312 
L 404.723033 -16.656925 
L 405.599152 -17.120339 
L 406.475271 -17.579321 
L 407.35139 -18.037089 
L 408.227508 -18.49824 
L 409.103627 -18.968527 
L 409.979746 -19.454501 
L 410.855864 -19.963032 
L 411.731983 -20.500755 
L 412.608102 -21.073496 
L 413.48422 -21.685726 
L 414.360339 -22.340101 
L 415.236458 -23.037107 
L 416.112577 -23.774838 
L 416.988695 -24.54889 
L 417.864814 -25.352393 
L 418.740933 -26.176155 
L 419.617051 -27.008984 
L 420.49317 -27.838178 
L 421.369289 -28.650237 
L 422.245407 -29.43179 
L 423.121526 -30.170685 
L 423.997645 -30.857147 
L 424.873764 -31.484854 
L 425.749882 -32.051761 
L 426.626001 -32.560509 
L 427.50212 -33.018305 
L 428.378238 -33.436237 
L 429.254357 -33.828065 
L 430.130476 -34.208633 
L 431.006594 -34.59209 
L 431.882713 -34.990174 
L 432.758832 -35.410799 
L 433.634951 -35.85715 
L 434.511069 -36.327428 
L 435.387188 -36.815283 
L 436.263307 -37.310857 
L 437.139425 -37.802267 
L 438.015544 -38.277274 
L 438.891663 -38.724868 
L 439.767781 -39.136498 
L 440.6439 -39.506795 
L 441.520019 -39.833682 
L 442.396138 -40.117938 
L 443.272256 -40.362332 
L 444.148375 -40.570545 
L 445.024494 -40.746066 
L 445.900612 -40.89128 
L 446.776731 -41.006847 
L 447.65285 -41.09145 
L 448.528968 -41.141889 
L 449.405087 -41.153493 
L 450.281206 -41.120745 
L 451.157325 -41.038049 
L 452.033443 -40.900539 
L 452.909562 -40.704858 
L 453.785681 -40.449807 
L 454.661799 -40.136796 
L 455.537918 -39.770028 
L 456.414037 -39.356376 
L 457.290155 -38.904942 
L 458.166274 -38.42634 
L 459.042393 -37.931783 
L 459.918512 -37.432088 
L 460.79463 -36.936713 
L 461.670749 -36.452946 
L 462.546868 -35.985329 
L 463.422986 -35.535357 
L 464.299105 -35.101466 
L 465.175224 -34.679305 
L 466.051342 -34.262242 
L 466.927461 -33.842071 
L 467.80358 -33.409852 
L 468.679699 -32.956819 
L 469.555817 -32.475279 
L 470.431936 -31.959402 
L 471.308055 -31.405826 
L 472.184173 -30.813999 
L 473.060292 -30.186212 
L 473.936411 -29.527332 
L 474.812529 -28.844258 
L 475.688648 -28.145185 
L 476.564767 -27.438781 
L 477.440886 -26.733378 
L 478.317004 -26.036282 
L 479.193123 -25.353287 
L 480.069242 -24.688426 
L 480.94536 -24.043963 
L 481.821479 -23.420603 
L 482.697598 -22.81782 
L 483.573716 -22.234263 
L 484.449835 -21.668106 
L 485.325954 -21.117331 
L 486.202073 -20.57987 
L 487.078191 -20.053638 
L 487.95431 -19.5365 
L 488.830429 -19.026206 
L 489.706547 -18.520392 
L 490.582666 -18.016664 
L 491.458785 -17.512794 
L 492.334903 -17.007002 
L 493.211022 -16.498272 
L 494.087141 -15.986605 
L 494.96326 -15.473157 
L 495.839378 -14.960167 
L 496.715497 -14.450689 
L 497.591616 -13.948125 
L 498.467734 -13.45567 
L 499.343853 -12.975754 
L 500.219972 -12.509613 
L 501.09609 -12.05709 
L 501.972209 -11.616704 
L 502.848328 -11.186 
L 503.724447 -10.762106 
L 504.600565 -10.3424 
L 505.476684 -9.92516 
L 506.352803 -9.510066 
L 507.228921 -9.098469 
L 508.10504 -8.693372 
L 508.981159 -8.299124 
L 509.857277 -7.920874 
L 510.733396 -7.563887 
L 511.609515 -7.232816 
L 512.485634 -6.931069 
L 513.361752 -6.660341 
L 514.237871 -6.420395 
L 515.11399 -6.209106 
L 515.990108 -6.022748 
L 516.866227 -5.856476 
L 517.742346 -5.704931 
L 518.618464 -5.56286 
L 519.494583 -5.425695 
L 520.370702 -5.28999 
L 521.246821 -5.153679 
L 522.122939 -5.016133 
L 522.999058 -4.878014 
L 523.875177 -4.740967 
L 524.751295 -4.607204 
L 525.627414 -4.479064 
L 526.503533 -4.358604 
L 527.379651 -4.247301 
L 528.25577 -4.145896 
L 529.131889 -4.054389 
L 530.008008 -3.97216 
L 530.884126 -3.898172 
L 531.760245 -3.831201 
L 532.636364 -3.77003 
L 532.636364 -2.470909 
L 532.636364 -2.470909 
L 531.760245 -2.470909 
L 530.884126 -2.470909 
L 530.008008 -2.470909 
L 529.131889 -2.470909 
L 528.25577 -2.470909 
L 527.379651 -2.470909 
L 526.503533 -2.470909 
L 525.627414 -2.470909 
L 524.751295 -2.470909 
L 523.875177 -2.470909 
L 522.999058 -2.470909 
L 522.122939 -2.470909 
L 521.246821 -2.470909 
L 520.370702 -2.470909 
L 519.494583 -2.470909 
L 518.618464 -2.470909 
L 517.742346 -2.470909 
L 516.866227 -2.470909 
L 515.990108 -2.470909 
L 515.11399 -2.470909 
L 514.237871 -2.470909 
L 513.361752 -2.470909 
L 512.485634 -2.470909 
L 511.609515 -2.470909 
L 510.733396 -2.470909 
L 509.857277 -2.470909 
L 508.981159 -2.470909 
L 508.10504 -2.470909 
L 507.228921 -2.470909 
L 506.352803 -2.470909 
L 505.476684 -2.470909 
L 504.600565 -2.470909 
L 503.724447 -2.470909 
L 502.848328 -2.470909 
L 501.972209 -2.470909 
L 501.09609 -2.470909 
L 500.219972 -2.470909 
L 499.343853 -2.470909 
L 498.467734 -2.470909 
L 497.591616 -2.470909 
L 496.715497 -2.470909 
L 495.839378 -2.470909 
L 494.96326 -2.470909 
L 494.087141 -2.470909 
L 493.211022 -2.470909 
L 492.334903 -2.470909 
L 491.458785 -2.470909 
L 490.582666 -2.470909 
L 489.706547 -2.470909 
L 488.830429 -2.470909 
L 487.95431 -2.470909 
L 487.078191 -2.470909 
L 486.202073 -2.470909 
L 485.325954 -2.470909 
L 484.449835 -2.470909 
L 483.573716 -2.470909 
L 482.697598 -2.470909 
L 481.821479 -2.470909 
L 480.94536 -2.470909 
L 480.069242 -2.470909 
L 479.193123 -2.470909 
L 478.317004 -2.470909 
L 477.440886 -2.470909 
L 476.564767 -2.470909 
L 475.688648 -2.470909 
L 474.812529 -2.470909 
L 473.936411 -2.470909 
L 473.060292 -2.470909 
L 472.184173 -2.470909 
L 471.308055 -2.470909 
L 470.431936 -2.470909 
L 469.555817 -2.470909 
L 468.679699 -2.470909 
L 467.80358 -2.470909 
L 466.927461 -2.470909 
L 466.051342 -2.470909 
L 465.175224 -2.470909 
L 464.299105 -2.470909 
L 463.422986 -2.470909 
L 462.546868 -2.470909 
L 461.670749 -2.470909 
L 460.79463 -2.470909 
L 459.918512 -2.470909 
L 459.042393 -2.470909 
L 458.166274 -2.470909 
L 457.290155 -2.470909 
L 456.414037 -2.470909 
L 455.537918 -2.470909 
L 454.661799 -2.470909 
L 453.785681 -2.470909 
L 452.909562 -2.470909 
L 452.033443 -2.470909 
L 451.157325 -2.470909 
L 450.281206 -2.470909 
L 449.405087 -2.470909 
L 448.528968 -2.470909 
L 447.65285 -2.470909 
L 446.776731 -2.470909 
L 445.900612 -2.470909 
L 445.024494 -2.470909 
L 444.148375 -2.470909 
L 443.272256 -2.470909 
L 442.396138 -2.470909 
L 441.520019 -2.470909 
L 440.6439 -2.470909 
L 439.767781 -2.470909 
L 438.891663 -2.470909 
L 438.015544 -2.470909 
L 437.139425 -2.470909 
L 436.263307 -2.470909 
L 435.387188 -2.470909 
L 434.511069 -2.470909 
L 433.634951 -2.470909 
L 432.758832 -2.470909 
L 431.882713 -2.470909 
L 431.006594 -2.470909 
L 430.130476 -2.470909 
L 429.254357 -2.470909 
L 428.378238 -2.470909 
L 427.50212 -2.470909 
L 426.626001 -2.470909 
L 425.749882 -2.470909 
L 424.873764 -2.470909 
L 423.997645 -2.470909 
L 423.121526 -2.470909 
L 422.245407 -2.470909 
L 421.369289 -2.470909 
L 420.49317 -2.470909 
L 419.617051 -2.470909 
L 418.740933 -2.470909 
L 417.864814 -2.470909 
L 416.988695 -2.470909 
L 416.112577 -2.470909 
L 415.236458 -2.470909 
L 414.360339 -2.470909 
L 413.48422 -2.470909 
L 412.608102 -2.470909 
L 411.731983 -2.470909 
L 410.855864 -2.470909 
L 409.979746 -2.470909 
L 409.103627 -2.470909 
L 408.227508 -2.470909 
L 407.35139 -2.470909 
L 406.475271 -2.470909 
L 405.599152 -2.470909 
L 404.723033 -2.470909 
L 403.846915 -2.470909 
L 402.970796 -2.470909 
L 402.094677 -2.470909 
L 401.218559 -2.470909 
L 400.34244 -2.470909 
L 399.466321 -2.470909 
L 398.590203 -2.470909 
L 397.714084 -2.470909 
L 396.837965 -2.470909 
L 395.961846 -2.470909 
L 395.085728 -2.470909 
L 394.209609 -2.470909 
L 393.33349 -2.470909 
L 392.457372 -2.470909 
L 391.581253 -2.470909 
L 390.705134 -2.470909 
L 389.829016 -2.470909 
L 388.952897 -2.470909 
L 388.076778 -2.470909 
L 387.200659 -2.470909 
L 386.324541 -2.470909 
L 385.448422 -2.470909 
L 384.572303 -2.470909 
L 383.696185 -2.470909 
L 382.820066 -2.470909 
L 381.943947 -2.470909 
L 381.067829 -2.470909 
L 380.19171 -2.470909 
L 379.315591 -2.470909 
L 378.439472 -2.470909 
L 377.563354 -2.470909 
L 376.687235 -2.470909 
L 375.811116 -2.470909 
L 374.934998 -2.470909 
L 374.058879 -2.470909 
L 373.18276 -2.470909 
L 372.306642 -2.470909 
L 371.430523 -2.470909 
L 370.554404 -2.470909 
z
" style="stroke: #116dc2; stroke-opacity: 0.2"/>
    </defs>
    <g clip-path="url(#p096acd03e5)">
     <use xlink:href="#mcdf4820416" x="0" y="54.36" style="fill: #116dc2; fill-opacity: 0.2; stroke: #116dc2; stroke-opacity: 0.2"/>
    </g>
   </g>
   <g id="PolyCollection_3">
    <defs>
     <path id="mf6d8a49afc" d="M 25.363636 -2.470909 
L 25.363636 -4.363054 
L 26.239755 -5.13982 
L 27.115874 -6.104771 
L 27.991992 -7.145255 
L 28.868111 -8.248878 
L 29.74423 -9.471533 
L 30.620349 -10.817735 
L 31.496467 -12.222811 
L 32.372586 -13.673092 
L 33.248705 -15.314128 
L 34.124823 -17.395174 
L 35.000942 -20.031304 
L 35.877061 -23.005044 
L 36.753179 -25.933008 
L 37.629298 -28.660944 
L 38.505417 -31.362822 
L 39.381536 -34.254907 
L 40.257654 -37.301115 
L 41.133773 -40.278522 
L 42.009892 -43.115997 
L 42.88601 -45.859417 
L 43.762129 -48.263058 
L 44.638248 -49.927526 
L 45.514366 -50.88882 
L 46.390485 -51.522782 
L 47.266604 -51.889091 
L 48.142723 -51.679608 
L 49.018841 -50.807289 
L 49.89496 -49.642206 
L 50.771079 -48.571824 
L 51.647197 -47.478507 
L 52.523316 -45.812553 
L 53.399435 -43.332213 
L 54.275553 -40.484355 
L 55.151672 -37.769871 
L 56.027791 -35.175716 
L 56.90391 -32.457153 
L 57.780028 -29.536468 
L 58.656147 -26.483366 
L 59.532266 -23.450987 
L 60.408384 -20.688303 
L 61.284503 -18.377409 
L 62.160622 -16.458422 
L 63.03674 -14.708396 
L 63.912859 -12.999979 
L 64.788978 -11.39425 
L 65.665097 -9.932861 
L 66.541215 -8.57267 
L 67.417334 -7.350687 
L 68.293453 -6.356183 
L 69.169571 -5.581719 
L 70.04569 -4.940906 
L 70.04569 -2.470909 
L 70.04569 -2.470909 
L 69.169571 -2.470909 
L 68.293453 -2.470909 
L 67.417334 -2.470909 
L 66.541215 -2.470909 
L 65.665097 -2.470909 
L 64.788978 -2.470909 
L 63.912859 -2.470909 
L 63.03674 -2.470909 
L 62.160622 -2.470909 
L 61.284503 -2.470909 
L 60.408384 -2.470909 
L 59.532266 -2.470909 
L 58.656147 -2.470909 
L 57.780028 -2.470909 
L 56.90391 -2.470909 
L 56.027791 -2.470909 
L 55.151672 -2.470909 
L 54.275553 -2.470909 
L 53.399435 -2.470909 
L 52.523316 -2.470909 
L 51.647197 -2.470909 
L 50.771079 -2.470909 
L 49.89496 -2.470909 
L 49.018841 -2.470909 
L 48.142723 -2.470909 
L 47.266604 -2.470909 
L 46.390485 -2.470909 
L 45.514366 -2.470909 
L 44.638248 -2.470909 
L 43.762129 -2.470909 
L 42.88601 -2.470909 
L 42.009892 -2.470909 
L 41.133773 -2.470909 
L 40.257654 -2.470909 
L 39.381536 -2.470909 
L 38.505417 -2.470909 
L 37.629298 -2.470909 
L 36.753179 -2.470909 
L 35.877061 -2.470909 
L 35.000942 -2.470909 
L 34.124823 -2.470909 
L 33.248705 -2.470909 
L 32.372586 -2.470909 
L 31.496467 -2.470909 
L 30.620349 -2.470909 
L 29.74423 -2.470909 
L 28.868111 -2.470909 
L 27.991992 -2.470909 
L 27.115874 -2.470909 
L 26.239755 -2.470909 
L 25.363636 -2.470909 
z
" style="stroke: #8a8a8a; stroke-opacity: 0.2"/>
    </defs>
    <g clip-path="url(#p096acd03e5)">
     <use xlink:href="#mf6d8a49afc" x="0" y="54.36" style="fill: #8a8a8a; fill-opacity: 0.2; stroke: #8a8a8a; stroke-opacity: 0.2"/>
    </g>
   </g>
   <g id="line2d_1">
    <path d="M 313.606689 50.313255 
L 317.111163 49.812928 
L 319.73952 49.267509 
L 323.243994 48.257715 
L 327.624588 46.686989 
L 332.005181 44.86772 
L 336.385775 42.801933 
L 340.766368 40.501091 
L 350.403674 35.118218 
L 353.03203 33.301502 
L 355.660386 31.145722 
L 359.164861 27.911191 
L 364.421573 22.980908 
L 367.049929 20.794505 
L 369.678285 18.943429 
L 372.306642 17.377504 
L 377.563354 14.583245 
L 380.19171 13.447864 
L 381.943947 12.966422 
L 383.696185 12.775345 
L 385.448422 12.85763 
L 388.076778 13.335716 
L 390.705134 14.069163 
L 393.33349 15.035688 
L 396.837965 16.617717 
L 402.094677 18.966033 
L 405.599152 20.551417 
L 408.227508 21.947148 
L 410.855864 23.581995 
L 414.360339 26.079912 
L 420.49317 30.80436 
L 431.006594 39.022488 
L 433.634951 40.735437 
L 436.263307 42.204387 
L 438.891663 43.439295 
L 444.148375 45.581118 
L 448.528968 47.225021 
L 452.033443 48.32876 
L 456.414037 49.466575 
L 459.918512 50.16147 
L 460.79463 50.296492 
L 460.79463 50.296492 
" clip-path="url(#p096acd03e5)" style="fill: none; stroke: #cf1313; stroke-width: 1.5; stroke-linecap: square"/>
   </g>
   <g id="line2d_2">
    <path d="M 370.554404 49.878304 
L 377.563354 48.589236 
L 381.943947 47.713641 
L 385.448422 46.745399 
L 388.952897 45.54122 
L 392.457372 44.119597 
L 395.961846 42.459766 
L 400.34244 40.103886 
L 407.35139 36.322911 
L 410.855864 34.396968 
L 413.48422 32.674274 
L 416.112577 30.585162 
L 419.617051 27.351016 
L 422.245407 24.92821 
L 423.997645 23.502853 
L 425.749882 22.308239 
L 427.50212 21.341695 
L 436.263307 17.049143 
L 438.891663 15.635132 
L 440.6439 14.853205 
L 442.396138 14.242062 
L 445.024494 13.613934 
L 447.65285 13.26855 
L 449.405087 13.206507 
L 451.157325 13.321951 
L 452.909562 13.655142 
L 454.661799 14.223204 
L 456.414037 15.003624 
L 459.918512 16.927912 
L 463.422986 18.824643 
L 470.431936 22.400598 
L 473.060292 24.173788 
L 476.564767 26.921219 
L 480.94536 30.316037 
L 484.449835 32.691894 
L 488.830429 35.333794 
L 501.09609 42.30291 
L 507.228921 45.261531 
L 510.733396 46.796113 
L 513.361752 47.699659 
L 515.990108 48.337252 
L 520.370702 49.07001 
L 528.25577 50.214104 
L 532.636364 50.58997 
L 532.636364 50.58997 
" clip-path="url(#p096acd03e5)" style="fill: none; stroke: #116dc2; stroke-width: 1.5; stroke-linecap: square"/>
   </g>
   <g id="line2d_3">
    <path d="M 25.363636 49.996946 
L 26.239755 49.22018 
L 27.115874 48.255229 
L 27.991992 47.214745 
L 28.868111 46.111122 
L 29.74423 44.888467 
L 30.620349 43.542265 
L 31.496467 42.137189 
L 32.372586 40.686908 
L 33.248705 39.045872 
L 34.124823 36.964826 
L 35.000942 34.328696 
L 35.877061 31.354956 
L 36.753179 28.426992 
L 37.629298 25.699056 
L 38.505417 22.997178 
L 39.381536 20.105093 
L 40.257654 17.058885 
L 41.133773 14.081478 
L 42.009892 11.244003 
L 42.88601 8.500583 
L 43.762129 6.096942 
L 44.638248 4.432474 
L 45.514366 3.47118 
L 46.390485 2.837218 
L 47.266604 2.470909 
L 48.142723 2.680392 
L 49.018841 3.552711 
L 49.89496 4.717794 
L 50.771079 5.788176 
L 51.647197 6.881493 
L 52.523316 8.547447 
L 53.399435 11.027787 
L 54.275553 13.875645 
L 55.151672 16.590129 
L 56.027791 19.184284 
L 56.90391 21.902847 
L 57.780028 24.823532 
L 58.656147 27.876634 
L 59.532266 30.909013 
L 60.408384 33.671697 
L 61.284503 35.982591 
L 62.160622 37.901578 
L 63.03674 39.651604 
L 63.912859 41.360021 
L 64.788978 42.96575 
L 65.665097 44.427139 
L 66.541215 45.78733 
L 67.417334 47.009313 
L 68.293453 48.003817 
L 69.169571 48.778281 
L 70.04569 49.419094 
" clip-path="url(#p096acd03e5)" style="fill: none; stroke: #8a8a8a; stroke-width: 1.5; stroke-linecap: square"/>
   </g>
  </g>
 </g>
 <defs>
  <clipPath id="p096acd03e5">
   <rect x="0" y="-0" width="558" height="54.36"/>
  </clipPath>
 </defs>
</svg>
