<?xml version="1.0" encoding="utf-8" standalone="no"?>
<!DOCTYPE svg PUBLIC "-//W3C//DTD SVG 1.1//EN"
  "http://www.w3.org/Graphics/SVG/1.1/DTD/svg11.dtd">
<svg xmlns:xlink="http://www.w3.org/1999/xlink" width="558pt" height="54.36pt" viewBox="0 0 558 54.36" xmlns="http://www.w3.org/2000/svg" version="1.1">
 <metadata>
  <rdf:RDF xmlns:dc="http://purl.org/dc/elements/1.1/" xmlns:cc="http://creativecommons.org/ns#" xmlns:rdf="http://www.w3.org/1999/02/22-rdf-syntax-ns#">
   <cc:Work>
    <dc:type rdf:resource="http://purl.org/dc/dcmitype/StillImage"/>
    <dc:date>2024-09-15T09:31:41.687352</dc:date>
    <dc:format>image/svg+xml</dc:format>
    <dc:creator>
     <cc:Agent>
      <dc:title>Matplotlib v3.5.2, https://matplotlib.org/</dc:title>
     </cc:Agent>
    </dc:creator>
   </cc:Work>
  </rdf:RDF>
 </metadata>
 <defs>
  <style type="text/css">*{stroke-linejoin: round; stroke-linecap: butt}</style>
 </defs>
 <g id="figure_1">
  <g id="patch_1">
   <path d="M 0 54.36 
L 558 54.36 
L 558 0 
L 0 0 
L 0 54.36 
z
" style="fill: none; opacity: 0"/>
  </g>
  <g id="axes_1">
   <g id="PolyCollection_1">
    <defs>
     <path id="maff5f8595d" d="M 215.877828 -2.470909 
L 215.877828 -3.952521 
L 216.642945 -4.041917 
L 217.408063 -4.134409 
L 218.17318 -4.230086 
L 218.938297 -4.328995 
L 219.703414 -4.431118 
L 220.468531 -4.536374 
L 221.233649 -4.644622 
L 221.998766 -4.755685 
L 222.763883 -4.869383 
L 223.529 -4.985565 
L 224.294118 -5.104148 
L 225.059235 -5.225141 
L 225.824352 -5.34867 
L 226.589469 -5.474977 
L 227.354587 -5.60441 
L 228.119704 -5.737406 
L 228.884821 -5.874454 
L 229.649938 -6.016062 
L 230.415056 -6.162726 
L 231.180173 -6.314897 
L 231.94529 -6.472964 
L 232.710407 -6.637249 
L 233.475524 -6.808009 
L 234.240642 -6.985448 
L 235.005759 -7.169745 
L 235.770876 -7.361072 
L 236.535993 -7.559625 
L 237.301111 -7.765649 
L 238.066228 -7.979451 
L 238.831345 -8.201423 
L 239.596462 -8.432033 
L 240.36158 -8.671829 
L 241.126697 -8.921409 
L 241.891814 -9.181398 
L 242.656931 -9.4524 
L 243.422049 -9.734939 
L 244.187166 -10.029396 
L 244.952283 -10.335937 
L 245.7174 -10.65444 
L 246.482517 -10.984441 
L 247.247635 -11.325085 
L 248.012752 -11.675113 
L 248.777869 -12.032887 
L 249.542986 -12.396446 
L 250.308104 -12.763613 
L 251.073221 -13.132139 
L 251.838338 -13.499873 
L 252.603455 -13.864951 
L 253.368573 -14.225985 
L 254.13369 -14.58222 
L 254.898807 -14.933657 
L 255.663924 -15.281112 
L 256.429042 -15.626194 
L 257.194159 -15.971211 
L 257.959276 -16.318994 
L 258.724393 -16.672655 
L 259.48951 -17.035298 
L 260.254628 -17.409726 
L 261.019745 -17.798144 
L 261.784862 -18.20193 
L 262.549979 -18.621469 
L 263.315097 -19.056094 
L 264.080214 -19.504137 
L 264.845331 -19.963082 
L 265.610448 -20.429814 
L 266.375566 -20.900937 
L 267.140683 -21.373111 
L 267.9058 -21.843384 
L 268.670917 -22.309466 
L 269.436035 -22.769918 
L 270.201152 -23.224232 
L 270.966269 -23.672786 
L 271.731386 -24.116695 
L 272.496503 -24.557569 
L 273.261621 -24.997211 
L 274.026738 -25.437301 
L 274.791855 -25.879107 
L 275.556972 -26.323258 
L 276.32209 -26.769603 
L 277.087207 -27.217184 
L 277.852324 -27.664311 
L 278.617441 -28.108732 
L 279.382559 -28.547876 
L 280.147676 -28.97913 
L 280.912793 -29.40012 
L 281.67791 -29.808956 
L 282.443028 -30.20442 
L 283.208145 -30.586067 
L 283.973262 -30.954234 
L 284.738379 -31.309965 
L 285.503497 -31.65485 
L 286.268614 -31.990815 
L 287.033731 -32.319879 
L 287.798848 -32.643912 
L 288.563965 -32.96442 
L 289.329083 -33.282384 
L 290.0942 -33.598163 
L 290.859317 -33.911475 
L 291.624434 -34.221443 
L 292.389552 -34.526708 
L 293.154669 -34.82557 
L 293.919786 -35.116155 
L 294.684903 -35.396568 
L 295.450021 -35.66501 
L 296.215138 -35.919865 
L 296.980255 -36.15972 
L 297.745372 -36.383344 
L 298.51049 -36.589639 
L 299.275607 -36.777561 
L 300.040724 -36.94606 
L 300.805841 -37.094039 
L 301.570958 -37.220365 
L 302.336076 -37.323929 
L 303.101193 -37.403755 
L 303.86631 -37.45915 
L 304.631427 -37.489871 
L 305.396545 -37.496278 
L 306.161662 -37.47945 
L 306.926779 -37.441231 
L 307.691896 -37.384192 
L 308.457014 -37.311502 
L 309.222131 -37.226708 
L 309.987248 -37.133447 
L 310.752365 -37.035122 
L 311.517483 -36.934566 
L 312.2826 -36.833749 
L 313.047717 -36.733563 
L 313.812834 -36.633696 
L 314.577951 -36.532648 
L 315.343069 -36.427854 
L 316.108186 -36.315938 
L 316.873303 -36.19305 
L 317.63842 -36.055263 
L 318.403538 -35.898983 
L 319.168655 -35.721335 
L 319.933772 -35.520472 
L 320.698889 -35.29579 
L 321.464007 -35.048015 
L 322.229124 -34.779155 
L 322.994241 -34.492323 
L 323.759358 -34.191452 
L 324.524476 -33.880925 
L 325.289593 -33.565156 
L 326.05471 -33.248172 
L 326.819827 -32.933231 
L 327.584944 -32.62251 
L 328.350062 -32.316908 
L 329.115179 -32.015964 
L 329.880296 -31.717916 
L 330.645413 -31.419873 
L 331.410531 -31.118108 
L 332.175648 -30.80841 
L 332.940765 -30.486484 
L 333.705882 -30.148344 
L 334.471 -29.790668 
L 335.236117 -29.411074 
L 336.001234 -29.008297 
L 336.766351 -28.582256 
L 337.531469 -28.134012 
L 338.296586 -27.665621 
L 339.061703 -27.179919 
L 339.82682 -26.680254 
L 340.591937 -26.170214 
L 341.357055 -25.653365 
L 342.122172 -25.133043 
L 342.887289 -24.612212 
L 343.652406 -24.093389 
L 344.417524 -23.578654 
L 345.182641 -23.069712 
L 345.947758 -22.568 
L 346.712875 -22.074814 
L 347.477993 -21.59142 
L 348.24311 -21.119151 
L 349.008227 -20.659439 
L 349.773344 -20.213809 
L 350.538462 -19.783812 
L 351.303579 -19.370909 
L 352.068696 -18.976337 
L 352.833813 -18.600952 
L 353.59893 -18.245094 
L 354.364048 -17.908467 
L 355.129165 -17.59008 
L 355.894282 -17.288231 
L 356.659399 -17.000551 
L 357.424517 -16.724105 
L 358.189634 -16.455536 
L 358.954751 -16.191252 
L 359.719868 -15.927618 
L 360.484986 -15.661168 
L 361.250103 -15.388798 
L 362.01522 -15.107932 
L 362.780337 -14.816665 
L 363.545455 -14.513845 
L 364.310572 -14.199125 
L 365.075689 -13.872957 
L 365.840806 -13.536536 
L 366.605923 -13.191709 
L 367.371041 -12.840844 
L 368.136158 -12.486664 
L 368.901275 -12.132079 
L 369.666392 -11.779993 
L 370.43151 -11.433133 
L 371.196627 -11.093885 
L 371.961744 -10.764163 
L 372.726861 -10.445325 
L 373.491979 -10.13812 
L 374.257096 -9.842706 
L 375.022213 -9.558698 
L 375.78733 -9.28528 
L 376.552448 -9.021334 
L 377.317565 -8.765602 
L 378.082682 -8.516846 
L 378.847799 -8.273992 
L 379.612916 -8.03625 
L 380.378034 -7.803192 
L 381.143151 -7.574769 
L 381.908268 -7.351297 
L 382.673385 -7.133376 
L 383.438503 -6.921795 
L 384.20362 -6.717401 
L 384.968737 -6.520979 
L 385.733854 -6.333137 
L 386.498972 -6.154236 
L 387.264089 -5.984341 
L 388.029206 -5.823237 
L 388.794323 -5.670467 
L 389.559441 -5.525411 
L 390.324558 -5.387387 
L 391.089675 -5.255739 
L 391.854792 -5.129932 
L 392.61991 -5.009598 
L 393.385027 -4.894569 
L 394.150144 -4.784854 
L 394.915261 -4.680598 
L 395.680378 -4.582006 
L 396.445496 -4.489259 
L 397.210613 -4.402435 
L 397.97573 -4.321443 
L 398.740847 -4.245981 
L 399.505965 -4.175526 
L 400.271082 -4.109365 
L 401.036199 -4.046635 
L 401.801316 -3.986403 
L 402.566434 -3.927743 
L 402.566434 -2.470909 
L 402.566434 -2.470909 
L 401.801316 -2.470909 
L 401.036199 -2.470909 
L 400.271082 -2.470909 
L 399.505965 -2.470909 
L 398.740847 -2.470909 
L 397.97573 -2.470909 
L 397.210613 -2.470909 
L 396.445496 -2.470909 
L 395.680378 -2.470909 
L 394.915261 -2.470909 
L 394.150144 -2.470909 
L 393.385027 -2.470909 
L 392.61991 -2.470909 
L 391.854792 -2.470909 
L 391.089675 -2.470909 
L 390.324558 -2.470909 
L 389.559441 -2.470909 
L 388.794323 -2.470909 
L 388.029206 -2.470909 
L 387.264089 -2.470909 
L 386.498972 -2.470909 
L 385.733854 -2.470909 
L 384.968737 -2.470909 
L 384.20362 -2.470909 
L 383.438503 -2.470909 
L 382.673385 -2.470909 
L 381.908268 -2.470909 
L 381.143151 -2.470909 
L 380.378034 -2.470909 
L 379.612916 -2.470909 
L 378.847799 -2.470909 
L 378.082682 -2.470909 
L 377.317565 -2.470909 
L 376.552448 -2.470909 
L 375.78733 -2.470909 
L 375.022213 -2.470909 
L 374.257096 -2.470909 
L 373.491979 -2.470909 
L 372.726861 -2.470909 
L 371.961744 -2.470909 
L 371.196627 -2.470909 
L 370.43151 -2.470909 
L 369.666392 -2.470909 
L 368.901275 -2.470909 
L 368.136158 -2.470909 
L 367.371041 -2.470909 
L 366.605923 -2.470909 
L 365.840806 -2.470909 
L 365.075689 -2.470909 
L 364.310572 -2.470909 
L 363.545455 -2.470909 
L 362.780337 -2.470909 
L 362.01522 -2.470909 
L 361.250103 -2.470909 
L 360.484986 -2.470909 
L 359.719868 -2.470909 
L 358.954751 -2.470909 
L 358.189634 -2.470909 
L 357.424517 -2.470909 
L 356.659399 -2.470909 
L 355.894282 -2.470909 
L 355.129165 -2.470909 
L 354.364048 -2.470909 
L 353.59893 -2.470909 
L 352.833813 -2.470909 
L 352.068696 -2.470909 
L 351.303579 -2.470909 
L 350.538462 -2.470909 
L 349.773344 -2.470909 
L 349.008227 -2.470909 
L 348.24311 -2.470909 
L 347.477993 -2.470909 
L 346.712875 -2.470909 
L 345.947758 -2.470909 
L 345.182641 -2.470909 
L 344.417524 -2.470909 
L 343.652406 -2.470909 
L 342.887289 -2.470909 
L 342.122172 -2.470909 
L 341.357055 -2.470909 
L 340.591937 -2.470909 
L 339.82682 -2.470909 
L 339.061703 -2.470909 
L 338.296586 -2.470909 
L 337.531469 -2.470909 
L 336.766351 -2.470909 
L 336.001234 -2.470909 
L 335.236117 -2.470909 
L 334.471 -2.470909 
L 333.705882 -2.470909 
L 332.940765 -2.470909 
L 332.175648 -2.470909 
L 331.410531 -2.470909 
L 330.645413 -2.470909 
L 329.880296 -2.470909 
L 329.115179 -2.470909 
L 328.350062 -2.470909 
L 327.584944 -2.470909 
L 326.819827 -2.470909 
L 326.05471 -2.470909 
L 325.289593 -2.470909 
L 324.524476 -2.470909 
L 323.759358 -2.470909 
L 322.994241 -2.470909 
L 322.229124 -2.470909 
L 321.464007 -2.470909 
L 320.698889 -2.470909 
L 319.933772 -2.470909 
L 319.168655 -2.470909 
L 318.403538 -2.470909 
L 317.63842 -2.470909 
L 316.873303 -2.470909 
L 316.108186 -2.470909 
L 315.343069 -2.470909 
L 314.577951 -2.470909 
L 313.812834 -2.470909 
L 313.047717 -2.470909 
L 312.2826 -2.470909 
L 311.517483 -2.470909 
L 310.752365 -2.470909 
L 309.987248 -2.470909 
L 309.222131 -2.470909 
L 308.457014 -2.470909 
L 307.691896 -2.470909 
L 306.926779 -2.470909 
L 306.161662 -2.470909 
L 305.396545 -2.470909 
L 304.631427 -2.470909 
L 303.86631 -2.470909 
L 303.101193 -2.470909 
L 302.336076 -2.470909 
L 301.570958 -2.470909 
L 300.805841 -2.470909 
L 300.040724 -2.470909 
L 299.275607 -2.470909 
L 298.51049 -2.470909 
L 297.745372 -2.470909 
L 296.980255 -2.470909 
L 296.215138 -2.470909 
L 295.450021 -2.470909 
L 294.684903 -2.470909 
L 293.919786 -2.470909 
L 293.154669 -2.470909 
L 292.389552 -2.470909 
L 291.624434 -2.470909 
L 290.859317 -2.470909 
L 290.0942 -2.470909 
L 289.329083 -2.470909 
L 288.563965 -2.470909 
L 287.798848 -2.470909 
L 287.033731 -2.470909 
L 286.268614 -2.470909 
L 285.503497 -2.470909 
L 284.738379 -2.470909 
L 283.973262 -2.470909 
L 283.208145 -2.470909 
L 282.443028 -2.470909 
L 281.67791 -2.470909 
L 280.912793 -2.470909 
L 280.147676 -2.470909 
L 279.382559 -2.470909 
L 278.617441 -2.470909 
L 277.852324 -2.470909 
L 277.087207 -2.470909 
L 276.32209 -2.470909 
L 275.556972 -2.470909 
L 274.791855 -2.470909 
L 274.026738 -2.470909 
L 273.261621 -2.470909 
L 272.496503 -2.470909 
L 271.731386 -2.470909 
L 270.966269 -2.470909 
L 270.201152 -2.470909 
L 269.436035 -2.470909 
L 268.670917 -2.470909 
L 267.9058 -2.470909 
L 267.140683 -2.470909 
L 266.375566 -2.470909 
L 265.610448 -2.470909 
L 264.845331 -2.470909 
L 264.080214 -2.470909 
L 263.315097 -2.470909 
L 262.549979 -2.470909 
L 261.784862 -2.470909 
L 261.019745 -2.470909 
L 260.254628 -2.470909 
L 259.48951 -2.470909 
L 258.724393 -2.470909 
L 257.959276 -2.470909 
L 257.194159 -2.470909 
L 256.429042 -2.470909 
L 255.663924 -2.470909 
L 254.898807 -2.470909 
L 254.13369 -2.470909 
L 253.368573 -2.470909 
L 252.603455 -2.470909 
L 251.838338 -2.470909 
L 251.073221 -2.470909 
L 250.308104 -2.470909 
L 249.542986 -2.470909 
L 248.777869 -2.470909 
L 248.012752 -2.470909 
L 247.247635 -2.470909 
L 246.482517 -2.470909 
L 245.7174 -2.470909 
L 244.952283 -2.470909 
L 244.187166 -2.470909 
L 243.422049 -2.470909 
L 242.656931 -2.470909 
L 241.891814 -2.470909 
L 241.126697 -2.470909 
L 240.36158 -2.470909 
L 239.596462 -2.470909 
L 238.831345 -2.470909 
L 238.066228 -2.470909 
L 237.301111 -2.470909 
L 236.535993 -2.470909 
L 235.770876 -2.470909 
L 235.005759 -2.470909 
L 234.240642 -2.470909 
L 233.475524 -2.470909 
L 232.710407 -2.470909 
L 231.94529 -2.470909 
L 231.180173 -2.470909 
L 230.415056 -2.470909 
L 229.649938 -2.470909 
L 228.884821 -2.470909 
L 228.119704 -2.470909 
L 227.354587 -2.470909 
L 226.589469 -2.470909 
L 225.824352 -2.470909 
L 225.059235 -2.470909 
L 224.294118 -2.470909 
L 223.529 -2.470909 
L 222.763883 -2.470909 
L 221.998766 -2.470909 
L 221.233649 -2.470909 
L 220.468531 -2.470909 
L 219.703414 -2.470909 
L 218.938297 -2.470909 
L 218.17318 -2.470909 
L 217.408063 -2.470909 
L 216.642945 -2.470909 
L 215.877828 -2.470909 
z
" style="stroke: #cf1313; stroke-opacity: 0.2"/>
    </defs>
    <g clip-path="url(#p88a2aade30)">
     <use xlink:href="#maff5f8595d" x="0" y="54.36" style="fill: #cf1313; fill-opacity: 0.2; stroke: #cf1313; stroke-opacity: 0.2"/>
    </g>
   </g>
   <g id="PolyCollection_2">
    <defs>
     <path id="m434d3ac240" d="M 343.652406 -2.470909 
L 343.652406 -3.899087 
L 344.417524 -3.96125 
L 345.182641 -4.022438 
L 345.947758 -4.082993 
L 346.712875 -4.143392 
L 347.477993 -4.204213 
L 348.24311 -4.266097 
L 349.008227 -4.329711 
L 349.773344 -4.395727 
L 350.538462 -4.464805 
L 351.303579 -4.537597 
L 352.068696 -4.614751 
L 352.833813 -4.696938 
L 353.59893 -4.784872 
L 354.364048 -4.879333 
L 355.129165 -4.98118 
L 355.894282 -5.091351 
L 356.659399 -5.210844 
L 357.424517 -5.340684 
L 358.189634 -5.481865 
L 358.954751 -5.635285 
L 359.719868 -5.801671 
L 360.484986 -5.981501 
L 361.250103 -6.174939 
L 362.01522 -6.381786 
L 362.780337 -6.601455 
L 363.545455 -6.832977 
L 364.310572 -7.075034 
L 365.075689 -7.326026 
L 365.840806 -7.58416 
L 366.605923 -7.847564 
L 367.371041 -8.114393 
L 368.136158 -8.382955 
L 368.901275 -8.651807 
L 369.666392 -8.919839 
L 370.43151 -9.186335 
L 371.196627 -9.450987 
L 371.961744 -9.713897 
L 372.726861 -9.975533 
L 373.491979 -10.236666 
L 374.257096 -10.498283 
L 375.022213 -10.761491 
L 375.78733 -11.027418 
L 376.552448 -11.29712 
L 377.317565 -11.571499 
L 378.082682 -11.851245 
L 378.847799 -12.136809 
L 379.612916 -12.428391 
L 380.378034 -12.725969 
L 381.143151 -13.029344 
L 381.908268 -13.338204 
L 382.673385 -13.652201 
L 383.438503 -13.971022 
L 384.20362 -14.294464 
L 384.968737 -14.622476 
L 385.733854 -14.955193 
L 386.498972 -15.292937 
L 387.264089 -15.636189 
L 388.029206 -15.985543 
L 388.794323 -16.341639 
L 389.559441 -16.70509 
L 390.324558 -17.076402 
L 391.089675 -17.455918 
L 391.854792 -17.843764 
L 392.61991 -18.239837 
L 393.385027 -18.643803 
L 394.150144 -19.055132 
L 394.915261 -19.47314 
L 395.680378 -19.897057 
L 396.445496 -20.326078 
L 397.210613 -20.759426 
L 397.97573 -21.196381 
L 398.740847 -21.636309 
L 399.505965 -22.078656 
L 400.271082 -22.522932 
L 401.036199 -22.968685 
L 401.801316 -23.415464 
L 402.566434 -23.862793 
L 403.331551 -24.310151 
L 404.096668 -24.75696 
L 404.861785 -25.202602 
L 405.626903 -25.646436 
L 406.39202 -26.087834 
L 407.157137 -26.52622 
L 407.922254 -26.961112 
L 408.687371 -27.392147 
L 409.452489 -27.819109 
L 410.217606 -28.241931 
L 410.982723 -28.660686 
L 411.74784 -29.075558 
L 412.512958 -29.486802 
L 413.278075 -29.894692 
L 414.043192 -30.299462 
L 414.808309 -30.701243 
L 415.573427 -31.100008 
L 416.338544 -31.495518 
L 417.103661 -31.887284 
L 417.868778 -32.274541 
L 418.633896 -32.656246 
L 419.399013 -33.031091 
L 420.16413 -33.397542 
L 420.929247 -33.753899 
L 421.694364 -34.098372 
L 422.459482 -34.429179 
L 423.224599 -34.744644 
L 423.989716 -35.043297 
L 424.754833 -35.323961 
L 425.519951 -35.585818 
L 426.285068 -35.828444 
L 427.050185 -36.051802 
L 427.815302 -36.256206 
L 428.58042 -36.442238 
L 429.345537 -36.610647 
L 430.110654 -36.762225 
L 430.875771 -36.897691 
L 431.640889 -37.01758 
L 432.406006 -37.122171 
L 433.171123 -37.211447 
L 433.93624 -37.28511 
L 434.701357 -37.342632 
L 435.466475 -37.383359 
L 436.231592 -37.406637 
L 436.996709 -37.411967 
L 437.761826 -37.399151 
L 438.526944 -37.368425 
L 439.292061 -37.320562 
L 440.057178 -37.256916 
L 440.822295 -37.179419 
L 441.587413 -37.090503 
L 442.35253 -36.99296 
L 443.117647 -36.889746 
L 443.882764 -36.783741 
L 444.647882 -36.677485 
L 445.412999 -36.572913 
L 446.178116 -36.471122 
L 446.943233 -36.372183 
L 447.70835 -36.275037 
L 448.473468 -36.177478 
L 449.238585 -36.076233 
L 450.003702 -35.96715 
L 450.768819 -35.845462 
L 451.533937 -35.706123 
L 452.299054 -35.544185 
L 453.064171 -35.355178 
L 453.829288 -35.135464 
L 454.594406 -34.882535 
L 455.359523 -34.595223 
L 456.12464 -34.27381 
L 456.889757 -33.920026 
L 457.654875 -33.536931 
L 458.419992 -33.128693 
L 459.185109 -32.700292 
L 459.950226 -32.257157 
L 460.715343 -31.804781 
L 461.480461 -31.348345 
L 462.245578 -30.892375 
L 463.010695 -30.440473 
L 463.775812 -29.995135 
L 464.54093 -29.557672 
L 465.306047 -29.128247 
L 466.071164 -28.706007 
L 466.836281 -28.289312 
L 467.601399 -27.876027 
L 468.366516 -27.463851 
L 469.131633 -27.050646 
L 469.89675 -26.634737 
L 470.661868 -26.215154 
L 471.426985 -25.791776 
L 472.192102 -25.365392 
L 472.957219 -24.937638 
L 473.722336 -24.510847 
L 474.487454 -24.087812 
L 475.252571 -23.671491 
L 476.017688 -23.264699 
L 476.782805 -22.869796 
L 477.547923 -22.488431 
L 478.31304 -22.121353 
L 479.078157 -21.768311 
L 479.843274 -21.42806 
L 480.608392 -21.098455 
L 481.373509 -20.776634 
L 482.138626 -20.459261 
L 482.903743 -20.142801 
L 483.668861 -19.823801 
L 484.433978 -19.499148 
L 485.199095 -19.166276 
L 485.964212 -18.82332 
L 486.729329 -18.469193 
L 487.494447 -18.103599 
L 488.259564 -17.726988 
L 489.024681 -17.340459 
L 489.789798 -16.945637 
L 490.554916 -16.544533 
L 491.320033 -16.139398 
L 492.08515 -15.732592 
L 492.850267 -15.326468 
L 493.615385 -14.923268 
L 494.380502 -14.525052 
L 495.145619 -14.133634 
L 495.910736 -13.750543 
L 496.675854 -13.377 
L 497.440971 -13.0139 
L 498.206088 -12.661814 
L 498.971205 -12.321007 
L 499.736323 -11.991453 
L 500.50144 -11.672879 
L 501.266557 -11.364809 
L 502.031674 -11.066616 
L 502.796791 -10.777582 
L 503.561909 -10.496958 
L 504.327026 -10.224023 
L 505.092143 -9.958133 
L 505.85726 -9.698763 
L 506.622378 -9.445537 
L 507.387495 -9.198236 
L 508.152612 -8.956799 
L 508.917729 -8.721302 
L 509.682847 -8.491934 
L 510.447964 -8.268948 
L 511.213081 -8.052621 
L 511.978198 -7.843206 
L 512.743316 -7.640886 
L 513.508433 -7.445741 
L 514.27355 -7.257723 
L 515.038667 -7.076647 
L 515.803784 -6.902195 
L 516.568902 -6.733934 
L 517.334019 -6.571341 
L 518.099136 -6.413841 
L 518.864253 -6.260839 
L 519.629371 -6.111758 
L 520.394488 -5.966069 
L 521.159605 -5.82331 
L 521.924722 -5.6831 
L 522.68984 -5.545146 
L 523.454957 -5.409245 
L 524.220074 -5.275273 
L 524.985191 -5.143186 
L 525.750309 -5.013006 
L 526.515426 -4.884824 
L 527.280543 -4.758786 
L 528.04566 -4.635101 
L 528.810777 -4.514028 
L 529.575895 -4.395878 
L 530.341012 -4.281004 
L 531.106129 -4.169791 
L 531.871246 -4.062642 
L 532.636364 -3.959959 
L 532.636364 -2.470909 
L 532.636364 -2.470909 
L 531.871246 -2.470909 
L 531.106129 -2.470909 
L 530.341012 -2.470909 
L 529.575895 -2.470909 
L 528.810777 -2.470909 
L 528.04566 -2.470909 
L 527.280543 -2.470909 
L 526.515426 -2.470909 
L 525.750309 -2.470909 
L 524.985191 -2.470909 
L 524.220074 -2.470909 
L 523.454957 -2.470909 
L 522.68984 -2.470909 
L 521.924722 -2.470909 
L 521.159605 -2.470909 
L 520.394488 -2.470909 
L 519.629371 -2.470909 
L 518.864253 -2.470909 
L 518.099136 -2.470909 
L 517.334019 -2.470909 
L 516.568902 -2.470909 
L 515.803784 -2.470909 
L 515.038667 -2.470909 
L 514.27355 -2.470909 
L 513.508433 -2.470909 
L 512.743316 -2.470909 
L 511.978198 -2.470909 
L 511.213081 -2.470909 
L 510.447964 -2.470909 
L 509.682847 -2.470909 
L 508.917729 -2.470909 
L 508.152612 -2.470909 
L 507.387495 -2.470909 
L 506.622378 -2.470909 
L 505.85726 -2.470909 
L 505.092143 -2.470909 
L 504.327026 -2.470909 
L 503.561909 -2.470909 
L 502.796791 -2.470909 
L 502.031674 -2.470909 
L 501.266557 -2.470909 
L 500.50144 -2.470909 
L 499.736323 -2.470909 
L 498.971205 -2.470909 
L 498.206088 -2.470909 
L 497.440971 -2.470909 
L 496.675854 -2.470909 
L 495.910736 -2.470909 
L 495.145619 -2.470909 
L 494.380502 -2.470909 
L 493.615385 -2.470909 
L 492.850267 -2.470909 
L 492.08515 -2.470909 
L 491.320033 -2.470909 
L 490.554916 -2.470909 
L 489.789798 -2.470909 
L 489.024681 -2.470909 
L 488.259564 -2.470909 
L 487.494447 -2.470909 
L 486.729329 -2.470909 
L 485.964212 -2.470909 
L 485.199095 -2.470909 
L 484.433978 -2.470909 
L 483.668861 -2.470909 
L 482.903743 -2.470909 
L 482.138626 -2.470909 
L 481.373509 -2.470909 
L 480.608392 -2.470909 
L 479.843274 -2.470909 
L 479.078157 -2.470909 
L 478.31304 -2.470909 
L 477.547923 -2.470909 
L 476.782805 -2.470909 
L 476.017688 -2.470909 
L 475.252571 -2.470909 
L 474.487454 -2.470909 
L 473.722336 -2.470909 
L 472.957219 -2.470909 
L 472.192102 -2.470909 
L 471.426985 -2.470909 
L 470.661868 -2.470909 
L 469.89675 -2.470909 
L 469.131633 -2.470909 
L 468.366516 -2.470909 
L 467.601399 -2.470909 
L 466.836281 -2.470909 
L 466.071164 -2.470909 
L 465.306047 -2.470909 
L 464.54093 -2.470909 
L 463.775812 -2.470909 
L 463.010695 -2.470909 
L 462.245578 -2.470909 
L 461.480461 -2.470909 
L 460.715343 -2.470909 
L 459.950226 -2.470909 
L 459.185109 -2.470909 
L 458.419992 -2.470909 
L 457.654875 -2.470909 
L 456.889757 -2.470909 
L 456.12464 -2.470909 
L 455.359523 -2.470909 
L 454.594406 -2.470909 
L 453.829288 -2.470909 
L 453.064171 -2.470909 
L 452.299054 -2.470909 
L 451.533937 -2.470909 
L 450.768819 -2.470909 
L 450.003702 -2.470909 
L 449.238585 -2.470909 
L 448.473468 -2.470909 
L 447.70835 -2.470909 
L 446.943233 -2.470909 
L 446.178116 -2.470909 
L 445.412999 -2.470909 
L 444.647882 -2.470909 
L 443.882764 -2.470909 
L 443.117647 -2.470909 
L 442.35253 -2.470909 
L 441.587413 -2.470909 
L 440.822295 -2.470909 
L 440.057178 -2.470909 
L 439.292061 -2.470909 
L 438.526944 -2.470909 
L 437.761826 -2.470909 
L 436.996709 -2.470909 
L 436.231592 -2.470909 
L 435.466475 -2.470909 
L 434.701357 -2.470909 
L 433.93624 -2.470909 
L 433.171123 -2.470909 
L 432.406006 -2.470909 
L 431.640889 -2.470909 
L 430.875771 -2.470909 
L 430.110654 -2.470909 
L 429.345537 -2.470909 
L 428.58042 -2.470909 
L 427.815302 -2.470909 
L 427.050185 -2.470909 
L 426.285068 -2.470909 
L 425.519951 -2.470909 
L 424.754833 -2.470909 
L 423.989716 -2.470909 
L 423.224599 -2.470909 
L 422.459482 -2.470909 
L 421.694364 -2.470909 
L 420.929247 -2.470909 
L 420.16413 -2.470909 
L 419.399013 -2.470909 
L 418.633896 -2.470909 
L 417.868778 -2.470909 
L 417.103661 -2.470909 
L 416.338544 -2.470909 
L 415.573427 -2.470909 
L 414.808309 -2.470909 
L 414.043192 -2.470909 
L 413.278075 -2.470909 
L 412.512958 -2.470909 
L 411.74784 -2.470909 
L 410.982723 -2.470909 
L 410.217606 -2.470909 
L 409.452489 -2.470909 
L 408.687371 -2.470909 
L 407.922254 -2.470909 
L 407.157137 -2.470909 
L 406.39202 -2.470909 
L 405.626903 -2.470909 
L 404.861785 -2.470909 
L 404.096668 -2.470909 
L 403.331551 -2.470909 
L 402.566434 -2.470909 
L 401.801316 -2.470909 
L 401.036199 -2.470909 
L 400.271082 -2.470909 
L 399.505965 -2.470909 
L 398.740847 -2.470909 
L 397.97573 -2.470909 
L 397.210613 -2.470909 
L 396.445496 -2.470909 
L 395.680378 -2.470909 
L 394.915261 -2.470909 
L 394.150144 -2.470909 
L 393.385027 -2.470909 
L 392.61991 -2.470909 
L 391.854792 -2.470909 
L 391.089675 -2.470909 
L 390.324558 -2.470909 
L 389.559441 -2.470909 
L 388.794323 -2.470909 
L 388.029206 -2.470909 
L 387.264089 -2.470909 
L 386.498972 -2.470909 
L 385.733854 -2.470909 
L 384.968737 -2.470909 
L 384.20362 -2.470909 
L 383.438503 -2.470909 
L 382.673385 -2.470909 
L 381.908268 -2.470909 
L 381.143151 -2.470909 
L 380.378034 -2.470909 
L 379.612916 -2.470909 
L 378.847799 -2.470909 
L 378.082682 -2.470909 
L 377.317565 -2.470909 
L 376.552448 -2.470909 
L 375.78733 -2.470909 
L 375.022213 -2.470909 
L 374.257096 -2.470909 
L 373.491979 -2.470909 
L 372.726861 -2.470909 
L 371.961744 -2.470909 
L 371.196627 -2.470909 
L 370.43151 -2.470909 
L 369.666392 -2.470909 
L 368.901275 -2.470909 
L 368.136158 -2.470909 
L 367.371041 -2.470909 
L 366.605923 -2.470909 
L 365.840806 -2.470909 
L 365.075689 -2.470909 
L 364.310572 -2.470909 
L 363.545455 -2.470909 
L 362.780337 -2.470909 
L 362.01522 -2.470909 
L 361.250103 -2.470909 
L 360.484986 -2.470909 
L 359.719868 -2.470909 
L 358.954751 -2.470909 
L 358.189634 -2.470909 
L 357.424517 -2.470909 
L 356.659399 -2.470909 
L 355.894282 -2.470909 
L 355.129165 -2.470909 
L 354.364048 -2.470909 
L 353.59893 -2.470909 
L 352.833813 -2.470909 
L 352.068696 -2.470909 
L 351.303579 -2.470909 
L 350.538462 -2.470909 
L 349.773344 -2.470909 
L 349.008227 -2.470909 
L 348.24311 -2.470909 
L 347.477993 -2.470909 
L 346.712875 -2.470909 
L 345.947758 -2.470909 
L 345.182641 -2.470909 
L 344.417524 -2.470909 
L 343.652406 -2.470909 
z
" style="stroke: #116dc2; stroke-opacity: 0.2"/>
    </defs>
    <g clip-path="url(#p88a2aade30)">
     <use xlink:href="#m434d3ac240" x="0" y="54.36" style="fill: #116dc2; fill-opacity: 0.2; stroke: #116dc2; stroke-opacity: 0.2"/>
    </g>
   </g>
   <g id="PolyCollection_3">
    <defs>
     <path id="me893cedf4d" d="M 25.363636 -2.470909 
L 25.363636 -4.696371 
L 26.128754 -5.183384 
L 26.893871 -5.833713 
L 27.658988 -6.831108 
L 28.424105 -8.298195 
L 29.189223 -10.257301 
L 29.95434 -12.549309 
L 30.719457 -14.861144 
L 31.484574 -17.095742 
L 32.249691 -19.547652 
L 33.014809 -22.414331 
L 33.779926 -25.506198 
L 34.545043 -28.638581 
L 35.31016 -31.754338 
L 36.075278 -34.939148 
L 36.840395 -38.358154 
L 37.605512 -41.794629 
L 38.370629 -44.933738 
L 39.135747 -47.690377 
L 39.900864 -49.729757 
L 40.665981 -50.860913 
L 41.431098 -51.521975 
L 42.196216 -51.889091 
L 42.961333 -51.451255 
L 43.72645 -49.905646 
L 44.491567 -47.620856 
L 45.256684 -45.162092 
L 46.021802 -42.707342 
L 46.786919 -40.041879 
L 47.552036 -36.996595 
L 48.317153 -33.497223 
L 49.082271 -29.743693 
L 49.847388 -26.285827 
L 50.612505 -23.322008 
L 51.377622 -20.646126 
L 52.14274 -18.086752 
L 52.907857 -15.515034 
L 53.672974 -13.024866 
L 54.438091 -10.882953 
L 55.203209 -9.163304 
L 55.968326 -7.762773 
L 56.733443 -6.590983 
L 57.49856 -5.637996 
L 58.263677 -4.894608 
L 58.263677 -2.470909 
L 58.263677 -2.470909 
L 57.49856 -2.470909 
L 56.733443 -2.470909 
L 55.968326 -2.470909 
L 55.203209 -2.470909 
L 54.438091 -2.470909 
L 53.672974 -2.470909 
L 52.907857 -2.470909 
L 52.14274 -2.470909 
L 51.377622 -2.470909 
L 50.612505 -2.470909 
L 49.847388 -2.470909 
L 49.082271 -2.470909 
L 48.317153 -2.470909 
L 47.552036 -2.470909 
L 46.786919 -2.470909 
L 46.021802 -2.470909 
L 45.256684 -2.470909 
L 44.491567 -2.470909 
L 43.72645 -2.470909 
L 42.961333 -2.470909 
L 42.196216 -2.470909 
L 41.431098 -2.470909 
L 40.665981 -2.470909 
L 39.900864 -2.470909 
L 39.135747 -2.470909 
L 38.370629 -2.470909 
L 37.605512 -2.470909 
L 36.840395 -2.470909 
L 36.075278 -2.470909 
L 35.31016 -2.470909 
L 34.545043 -2.470909 
L 33.779926 -2.470909 
L 33.014809 -2.470909 
L 32.249691 -2.470909 
L 31.484574 -2.470909 
L 30.719457 -2.470909 
L 29.95434 -2.470909 
L 29.189223 -2.470909 
L 28.424105 -2.470909 
L 27.658988 -2.470909 
L 26.893871 -2.470909 
L 26.128754 -2.470909 
L 25.363636 -2.470909 
z
" style="stroke: #8a8a8a; stroke-opacity: 0.2"/>
    </defs>
    <g clip-path="url(#p88a2aade30)">
     <use xlink:href="#me893cedf4d" x="0" y="54.36" style="fill: #8a8a8a; fill-opacity: 0.2; stroke: #8a8a8a; stroke-opacity: 0.2"/>
    </g>
   </g>
   <g id="line2d_1">
    <path d="M 215.877828 50.407479 
L 221.998766 49.604315 
L 228.884821 48.485546 
L 233.475524 47.551991 
L 238.066228 46.380549 
L 241.891814 45.178602 
L 244.952283 44.024063 
L 248.777869 42.327113 
L 263.315097 35.303906 
L 268.670917 32.050534 
L 274.791855 28.480893 
L 282.443028 24.15558 
L 286.268614 22.369185 
L 292.389552 19.833292 
L 296.215138 18.440135 
L 299.275607 17.582439 
L 301.570958 17.139635 
L 303.86631 16.90085 
L 306.161662 16.88055 
L 309.222131 17.133292 
L 316.873303 18.16695 
L 319.168655 18.638665 
L 321.464007 19.311985 
L 324.524476 20.479075 
L 335.236117 24.948926 
L 337.531469 26.225988 
L 340.591937 28.189786 
L 348.24311 33.240849 
L 351.303579 34.989091 
L 354.364048 36.451533 
L 357.424517 37.635895 
L 364.310572 40.160875 
L 368.901275 42.227921 
L 373.491979 44.22188 
L 377.317565 45.594398 
L 382.673385 47.226624 
L 386.498972 48.205764 
L 390.324558 48.972613 
L 394.915261 49.679402 
L 399.505965 50.184474 
L 402.566434 50.432257 
L 402.566434 50.432257 
" clip-path="url(#p88a2aade30)" style="fill: none; stroke: #cf1313; stroke-width: 1.5; stroke-linecap: square"/>
   </g>
   <g id="line2d_2">
    <path d="M 343.652406 50.460913 
L 354.364048 49.480667 
L 358.189634 48.878135 
L 361.250103 48.185061 
L 364.310572 47.284966 
L 370.43151 45.173665 
L 380.378034 41.634031 
L 385.733854 39.404807 
L 390.324558 37.283598 
L 394.915261 34.88686 
L 401.036199 31.391315 
L 410.982723 25.699314 
L 417.868778 22.085459 
L 421.694364 20.261628 
L 424.754833 19.036039 
L 427.815302 18.103794 
L 430.875771 17.462309 
L 433.93624 17.07489 
L 436.996709 16.948033 
L 440.057178 17.103084 
L 443.882764 17.576259 
L 452.299054 18.815815 
L 454.594406 19.477465 
L 456.889757 20.439974 
L 459.185109 21.659708 
L 469.131633 27.309354 
L 479.078157 32.591689 
L 490.554916 37.815467 
L 497.440971 41.3461 
L 501.266557 42.995191 
L 505.092143 44.401867 
L 509.682847 45.868066 
L 514.27355 47.102277 
L 518.864253 48.099161 
L 525.750309 49.346994 
L 532.636364 50.400041 
L 532.636364 50.400041 
" clip-path="url(#p88a2aade30)" style="fill: none; stroke: #116dc2; stroke-width: 1.5; stroke-linecap: square"/>
   </g>
   <g id="line2d_3">
    <path d="M 25.363636 49.663629 
L 26.128754 49.176616 
L 26.893871 48.526287 
L 27.658988 47.528892 
L 28.424105 46.061805 
L 29.189223 44.102699 
L 29.95434 41.810691 
L 30.719457 39.498856 
L 31.484574 37.264258 
L 32.249691 34.812348 
L 33.014809 31.945669 
L 33.779926 28.853802 
L 34.545043 25.721419 
L 35.31016 22.605662 
L 36.075278 19.420852 
L 36.840395 16.001846 
L 37.605512 12.565371 
L 38.370629 9.426262 
L 39.135747 6.669623 
L 39.900864 4.630243 
L 40.665981 3.499087 
L 41.431098 2.838025 
L 42.196216 2.470909 
L 42.961333 2.908745 
L 43.72645 4.454354 
L 44.491567 6.739144 
L 45.256684 9.197908 
L 46.021802 11.652658 
L 46.786919 14.318121 
L 47.552036 17.363405 
L 48.317153 20.862777 
L 49.082271 24.616307 
L 49.847388 28.074173 
L 50.612505 31.037992 
L 51.377622 33.713874 
L 52.14274 36.273248 
L 52.907857 38.844966 
L 53.672974 41.335134 
L 54.438091 43.477047 
L 55.203209 45.196696 
L 55.968326 46.597227 
L 56.733443 47.769017 
L 57.49856 48.722004 
L 58.263677 49.465392 
" clip-path="url(#p88a2aade30)" style="fill: none; stroke: #8a8a8a; stroke-width: 1.5; stroke-linecap: square"/>
   </g>
  </g>
 </g>
 <defs>
  <clipPath id="p88a2aade30">
   <rect x="0" y="-0" width="558" height="54.36"/>
  </clipPath>
 </defs>
</svg>
