<?xml version="1.0" encoding="utf-8" standalone="no"?>
<!DOCTYPE svg PUBLIC "-//W3C//DTD SVG 1.1//EN"
  "http://www.w3.org/Graphics/SVG/1.1/DTD/svg11.dtd">
<svg xmlns:xlink="http://www.w3.org/1999/xlink" width="558pt" height="54.36pt" viewBox="0 0 558 54.36" xmlns="http://www.w3.org/2000/svg" version="1.1">
 <metadata>
  <rdf:RDF xmlns:dc="http://purl.org/dc/elements/1.1/" xmlns:cc="http://creativecommons.org/ns#" xmlns:rdf="http://www.w3.org/1999/02/22-rdf-syntax-ns#">
   <cc:Work>
    <dc:type rdf:resource="http://purl.org/dc/dcmitype/StillImage"/>
    <dc:date>2024-09-14T12:47:36.631198</dc:date>
    <dc:format>image/svg+xml</dc:format>
    <dc:creator>
     <cc:Agent>
      <dc:title>Matplotlib v3.5.2, https://matplotlib.org/</dc:title>
     </cc:Agent>
    </dc:creator>
   </cc:Work>
  </rdf:RDF>
 </metadata>
 <defs>
  <style type="text/css">*{stroke-linejoin: round; stroke-linecap: butt}</style>
 </defs>
 <g id="figure_1">
  <g id="patch_1">
   <path d="M 0 54.36 
L 558 54.36 
L 558 0 
L 0 0 
L 0 54.36 
z
" style="fill: none; opacity: 0"/>
  </g>
  <g id="axes_1">
   <g id="PolyCollection_1">
    <defs>
     <path id="m3fab5c85dc" d="M 213.299014 -2.470909 
L 213.299014 -3.75839 
L 214.062979 -3.831329 
L 214.826944 -3.910705 
L 215.590909 -3.996087 
L 216.354874 -4.086818 
L 217.118839 -4.182055 
L 217.882804 -4.280834 
L 218.646769 -4.382141 
L 219.410734 -4.484992 
L 220.174699 -4.588512 
L 220.938664 -4.692012 
L 221.702629 -4.795048 
L 222.466594 -4.897473 
L 223.230559 -4.999462 
L 223.994524 -5.101516 
L 224.758488 -5.204447 
L 225.522453 -5.309336 
L 226.286418 -5.417472 
L 227.050383 -5.530275 
L 227.814348 -5.649206 
L 228.578313 -5.775665 
L 229.342278 -5.910896 
L 230.106243 -6.055891 
L 230.870208 -6.211312 
L 231.634173 -6.377427 
L 232.398138 -6.554084 
L 233.162103 -6.740706 
L 233.926068 -6.936328 
L 234.690033 -7.139669 
L 235.453998 -7.349232 
L 236.217963 -7.563428 
L 236.981928 -7.780717 
L 237.745893 -7.999745 
L 238.509858 -8.219463 
L 239.273823 -8.439224 
L 240.037788 -8.658832 
L 240.801752 -8.878553 
L 241.565717 -9.099069 
L 242.329682 -9.321396 
L 243.093647 -9.546769 
L 243.857612 -9.776505 
L 244.621577 -10.011865 
L 245.385542 -10.253939 
L 246.149507 -10.503549 
L 246.913472 -10.761199 
L 247.677437 -11.027072 
L 248.441402 -11.301062 
L 249.205367 -11.582848 
L 249.969332 -11.87199 
L 250.733297 -12.168038 
L 251.497262 -12.470632 
L 252.261227 -12.779587 
L 253.025192 -13.094946 
L 253.789157 -13.416996 
L 254.553122 -13.746242 
L 255.317087 -14.083349 
L 256.081051 -14.429055 
L 256.845016 -14.784063 
L 257.608981 -15.148935 
L 258.372946 -15.524001 
L 259.136911 -15.909287 
L 259.900876 -16.30449 
L 260.664841 -16.70899 
L 261.428806 -17.121911 
L 262.192771 -17.542214 
L 262.956736 -17.968818 
L 263.720701 -18.400734 
L 264.484666 -18.837182 
L 265.248631 -19.277685 
L 266.012596 -19.722118 
L 266.776561 -20.170705 
L 267.540526 -20.623957 
L 268.304491 -21.082558 
L 269.068456 -21.547215 
L 269.832421 -22.018482 
L 270.596386 -22.496593 
L 271.36035 -22.981312 
L 272.124315 -23.471836 
L 272.88828 -23.96676 
L 273.652245 -24.464106 
L 274.41621 -24.96143 
L 275.180175 -25.455984 
L 275.94414 -25.94493 
L 276.708105 -26.425565 
L 277.47207 -26.895551 
L 278.236035 -27.353107 
L 279 -27.797166 
L 279.763965 -28.227447 
L 280.52793 -28.644467 
L 281.291895 -29.049475 
L 282.05586 -29.444316 
L 282.819825 -29.831245 
L 283.58379 -30.212704 
L 284.347755 -30.59109 
L 285.11172 -30.968525 
L 285.875685 -31.346655 
L 286.63965 -31.726496 
L 287.403614 -32.108326 
L 288.167579 -32.491648 
L 288.931544 -32.875212 
L 289.695509 -33.257093 
L 290.459474 -33.634825 
L 291.223439 -34.005564 
L 291.987404 -34.366278 
L 292.751369 -34.713937 
L 293.515334 -35.045693 
L 294.279299 -35.359029 
L 295.043264 -35.651873 
L 295.807229 -35.922665 
L 296.571194 -36.170378 
L 297.335159 -36.394499 
L 298.099124 -36.59498 
L 298.863089 -36.772162 
L 299.627054 -36.926696 
L 300.391019 -37.059463 
L 301.154984 -37.17151 
L 301.918949 -37.26399 
L 302.682913 -37.338129 
L 303.446878 -37.3952 
L 304.210843 -37.436494 
L 304.974808 -37.4633 
L 305.738773 -37.476865 
L 306.502738 -37.478353 
L 307.266703 -37.468788 
L 308.030668 -37.448994 
L 308.794633 -37.419541 
L 309.558598 -37.380702 
L 310.322563 -37.33244 
L 311.086528 -37.274422 
L 311.850493 -37.206065 
L 312.614458 -37.126618 
L 313.378423 -37.035258 
L 314.142388 -36.931198 
L 314.906353 -36.813787 
L 315.670318 -36.682588 
L 316.434283 -36.53743 
L 317.198248 -36.378414 
L 317.962212 -36.205893 
L 318.726177 -36.020422 
L 319.490142 -35.822689 
L 320.254107 -35.61345 
L 321.018072 -35.393474 
L 321.782037 -35.163515 
L 322.546002 -34.924299 
L 323.309967 -34.67655 
L 324.073932 -34.421023 
L 324.837897 -34.15854 
L 325.601862 -33.890018 
L 326.365827 -33.61647 
L 327.129792 -33.338976 
L 327.893757 -33.058607 
L 328.657722 -32.776326 
L 329.421687 -32.492855 
L 330.185652 -32.208546 
L 330.949617 -31.923247 
L 331.713582 -31.636212 
L 332.477547 -31.346054 
L 333.241512 -31.050755 
L 334.005476 -30.747748 
L 334.769441 -30.43406 
L 335.533406 -30.106511 
L 336.297371 -29.761956 
L 337.061336 -29.397538 
L 337.825301 -29.010938 
L 338.589266 -28.600597 
L 339.353231 -28.165878 
L 340.117196 -27.707168 
L 340.881161 -27.225892 
L 341.645126 -26.724459 
L 342.409091 -26.206124 
L 343.173056 -25.674793 
L 343.937021 -25.134787 
L 344.700986 -24.590588 
L 345.464951 -24.046577 
L 346.228916 -23.506804 
L 346.992881 -22.974788 
L 347.756846 -22.45337 
L 348.520811 -21.944619 
L 349.284775 -21.449808 
L 350.04874 -20.969427 
L 350.812705 -20.503265 
L 351.57667 -20.050515 
L 352.340635 -19.609919 
L 353.1046 -19.179918 
L 353.868565 -18.758814 
L 354.63253 -18.344919 
L 355.396495 -17.936678 
L 356.16046 -17.532781 
L 356.924425 -17.132228 
L 357.68839 -16.734367 
L 358.452355 -16.338904 
L 359.21632 -15.945879 
L 359.980285 -15.555623 
L 360.74425 -15.168695 
L 361.508215 -14.785823 
L 362.27218 -14.407824 
L 363.036145 -14.035547 
L 363.80011 -13.669809 
L 364.564074 -13.311344 
L 365.328039 -12.960764 
L 366.092004 -12.618531 
L 366.855969 -12.28494 
L 367.619934 -11.960112 
L 368.383899 -11.644003 
L 369.147864 -11.336427 
L 369.911829 -11.03709 
L 370.675794 -10.745633 
L 371.439759 -10.461692 
L 372.203724 -10.184949 
L 372.967689 -9.915185 
L 373.731654 -9.652328 
L 374.495619 -9.396468 
L 375.259584 -9.147867 
L 376.023549 -8.906929 
L 376.787514 -8.674154 
L 377.551479 -8.450074 
L 378.315444 -8.235169 
L 379.079409 -8.029788 
L 379.843373 -7.834083 
L 380.607338 -7.647949 
L 381.371303 -7.47101 
L 382.135268 -7.302616 
L 382.899233 -7.141885 
L 383.663198 -6.987763 
L 384.427163 -6.8391 
L 385.191128 -6.694745 
L 385.955093 -6.553621 
L 386.719058 -6.4148 
L 387.483023 -6.277551 
L 388.246988 -6.14137 
L 389.010953 -6.005975 
L 389.774918 -5.871286 
L 390.538883 -5.737388 
L 391.302848 -5.604479 
L 392.066813 -5.472822 
L 392.830778 -5.342698 
L 393.594743 -5.214374 
L 394.358708 -5.088082 
L 395.122673 -4.964019 
L 395.886637 -4.842351 
L 396.650602 -4.723237 
L 397.414567 -4.60685 
L 398.178532 -4.4934 
L 398.942497 -4.383149 
L 399.706462 -4.276417 
L 400.470427 -4.173571 
L 401.234392 -4.075007 
L 401.998357 -3.981121 
L 402.762322 -3.89227 
L 403.526287 -3.808743 
L 403.526287 -2.470909 
L 403.526287 -2.470909 
L 402.762322 -2.470909 
L 401.998357 -2.470909 
L 401.234392 -2.470909 
L 400.470427 -2.470909 
L 399.706462 -2.470909 
L 398.942497 -2.470909 
L 398.178532 -2.470909 
L 397.414567 -2.470909 
L 396.650602 -2.470909 
L 395.886637 -2.470909 
L 395.122673 -2.470909 
L 394.358708 -2.470909 
L 393.594743 -2.470909 
L 392.830778 -2.470909 
L 392.066813 -2.470909 
L 391.302848 -2.470909 
L 390.538883 -2.470909 
L 389.774918 -2.470909 
L 389.010953 -2.470909 
L 388.246988 -2.470909 
L 387.483023 -2.470909 
L 386.719058 -2.470909 
L 385.955093 -2.470909 
L 385.191128 -2.470909 
L 384.427163 -2.470909 
L 383.663198 -2.470909 
L 382.899233 -2.470909 
L 382.135268 -2.470909 
L 381.371303 -2.470909 
L 380.607338 -2.470909 
L 379.843373 -2.470909 
L 379.079409 -2.470909 
L 378.315444 -2.470909 
L 377.551479 -2.470909 
L 376.787514 -2.470909 
L 376.023549 -2.470909 
L 375.259584 -2.470909 
L 374.495619 -2.470909 
L 373.731654 -2.470909 
L 372.967689 -2.470909 
L 372.203724 -2.470909 
L 371.439759 -2.470909 
L 370.675794 -2.470909 
L 369.911829 -2.470909 
L 369.147864 -2.470909 
L 368.383899 -2.470909 
L 367.619934 -2.470909 
L 366.855969 -2.470909 
L 366.092004 -2.470909 
L 365.328039 -2.470909 
L 364.564074 -2.470909 
L 363.80011 -2.470909 
L 363.036145 -2.470909 
L 362.27218 -2.470909 
L 361.508215 -2.470909 
L 360.74425 -2.470909 
L 359.980285 -2.470909 
L 359.21632 -2.470909 
L 358.452355 -2.470909 
L 357.68839 -2.470909 
L 356.924425 -2.470909 
L 356.16046 -2.470909 
L 355.396495 -2.470909 
L 354.63253 -2.470909 
L 353.868565 -2.470909 
L 353.1046 -2.470909 
L 352.340635 -2.470909 
L 351.57667 -2.470909 
L 350.812705 -2.470909 
L 350.04874 -2.470909 
L 349.284775 -2.470909 
L 348.520811 -2.470909 
L 347.756846 -2.470909 
L 346.992881 -2.470909 
L 346.228916 -2.470909 
L 345.464951 -2.470909 
L 344.700986 -2.470909 
L 343.937021 -2.470909 
L 343.173056 -2.470909 
L 342.409091 -2.470909 
L 341.645126 -2.470909 
L 340.881161 -2.470909 
L 340.117196 -2.470909 
L 339.353231 -2.470909 
L 338.589266 -2.470909 
L 337.825301 -2.470909 
L 337.061336 -2.470909 
L 336.297371 -2.470909 
L 335.533406 -2.470909 
L 334.769441 -2.470909 
L 334.005476 -2.470909 
L 333.241512 -2.470909 
L 332.477547 -2.470909 
L 331.713582 -2.470909 
L 330.949617 -2.470909 
L 330.185652 -2.470909 
L 329.421687 -2.470909 
L 328.657722 -2.470909 
L 327.893757 -2.470909 
L 327.129792 -2.470909 
L 326.365827 -2.470909 
L 325.601862 -2.470909 
L 324.837897 -2.470909 
L 324.073932 -2.470909 
L 323.309967 -2.470909 
L 322.546002 -2.470909 
L 321.782037 -2.470909 
L 321.018072 -2.470909 
L 320.254107 -2.470909 
L 319.490142 -2.470909 
L 318.726177 -2.470909 
L 317.962212 -2.470909 
L 317.198248 -2.470909 
L 316.434283 -2.470909 
L 315.670318 -2.470909 
L 314.906353 -2.470909 
L 314.142388 -2.470909 
L 313.378423 -2.470909 
L 312.614458 -2.470909 
L 311.850493 -2.470909 
L 311.086528 -2.470909 
L 310.322563 -2.470909 
L 309.558598 -2.470909 
L 308.794633 -2.470909 
L 308.030668 -2.470909 
L 307.266703 -2.470909 
L 306.502738 -2.470909 
L 305.738773 -2.470909 
L 304.974808 -2.470909 
L 304.210843 -2.470909 
L 303.446878 -2.470909 
L 302.682913 -2.470909 
L 301.918949 -2.470909 
L 301.154984 -2.470909 
L 300.391019 -2.470909 
L 299.627054 -2.470909 
L 298.863089 -2.470909 
L 298.099124 -2.470909 
L 297.335159 -2.470909 
L 296.571194 -2.470909 
L 295.807229 -2.470909 
L 295.043264 -2.470909 
L 294.279299 -2.470909 
L 293.515334 -2.470909 
L 292.751369 -2.470909 
L 291.987404 -2.470909 
L 291.223439 -2.470909 
L 290.459474 -2.470909 
L 289.695509 -2.470909 
L 288.931544 -2.470909 
L 288.167579 -2.470909 
L 287.403614 -2.470909 
L 286.63965 -2.470909 
L 285.875685 -2.470909 
L 285.11172 -2.470909 
L 284.347755 -2.470909 
L 283.58379 -2.470909 
L 282.819825 -2.470909 
L 282.05586 -2.470909 
L 281.291895 -2.470909 
L 280.52793 -2.470909 
L 279.763965 -2.470909 
L 279 -2.470909 
L 278.236035 -2.470909 
L 277.47207 -2.470909 
L 276.708105 -2.470909 
L 275.94414 -2.470909 
L 275.180175 -2.470909 
L 274.41621 -2.470909 
L 273.652245 -2.470909 
L 272.88828 -2.470909 
L 272.124315 -2.470909 
L 271.36035 -2.470909 
L 270.596386 -2.470909 
L 269.832421 -2.470909 
L 269.068456 -2.470909 
L 268.304491 -2.470909 
L 267.540526 -2.470909 
L 266.776561 -2.470909 
L 266.012596 -2.470909 
L 265.248631 -2.470909 
L 264.484666 -2.470909 
L 263.720701 -2.470909 
L 262.956736 -2.470909 
L 262.192771 -2.470909 
L 261.428806 -2.470909 
L 260.664841 -2.470909 
L 259.900876 -2.470909 
L 259.136911 -2.470909 
L 258.372946 -2.470909 
L 257.608981 -2.470909 
L 256.845016 -2.470909 
L 256.081051 -2.470909 
L 255.317087 -2.470909 
L 254.553122 -2.470909 
L 253.789157 -2.470909 
L 253.025192 -2.470909 
L 252.261227 -2.470909 
L 251.497262 -2.470909 
L 250.733297 -2.470909 
L 249.969332 -2.470909 
L 249.205367 -2.470909 
L 248.441402 -2.470909 
L 247.677437 -2.470909 
L 246.913472 -2.470909 
L 246.149507 -2.470909 
L 245.385542 -2.470909 
L 244.621577 -2.470909 
L 243.857612 -2.470909 
L 243.093647 -2.470909 
L 242.329682 -2.470909 
L 241.565717 -2.470909 
L 240.801752 -2.470909 
L 240.037788 -2.470909 
L 239.273823 -2.470909 
L 238.509858 -2.470909 
L 237.745893 -2.470909 
L 236.981928 -2.470909 
L 236.217963 -2.470909 
L 235.453998 -2.470909 
L 234.690033 -2.470909 
L 233.926068 -2.470909 
L 233.162103 -2.470909 
L 232.398138 -2.470909 
L 231.634173 -2.470909 
L 230.870208 -2.470909 
L 230.106243 -2.470909 
L 229.342278 -2.470909 
L 228.578313 -2.470909 
L 227.814348 -2.470909 
L 227.050383 -2.470909 
L 226.286418 -2.470909 
L 225.522453 -2.470909 
L 224.758488 -2.470909 
L 223.994524 -2.470909 
L 223.230559 -2.470909 
L 222.466594 -2.470909 
L 221.702629 -2.470909 
L 220.938664 -2.470909 
L 220.174699 -2.470909 
L 219.410734 -2.470909 
L 218.646769 -2.470909 
L 217.882804 -2.470909 
L 217.118839 -2.470909 
L 216.354874 -2.470909 
L 215.590909 -2.470909 
L 214.826944 -2.470909 
L 214.062979 -2.470909 
L 213.299014 -2.470909 
z
" style="stroke: #cf1313; stroke-opacity: 0.2"/>
    </defs>
    <g clip-path="url(#p83a5ddd8fe)">
     <use xlink:href="#m3fab5c85dc" x="0" y="54.36" style="fill: #cf1313; fill-opacity: 0.2; stroke: #cf1313; stroke-opacity: 0.2"/>
    </g>
   </g>
   <g id="PolyCollection_2">
    <defs>
     <path id="m31ec7284d3" d="M 342.409091 -2.470909 
L 342.409091 -3.769503 
L 343.173056 -3.836683 
L 343.937021 -3.909526 
L 344.700986 -3.988373 
L 345.464951 -4.073412 
L 346.228916 -4.164669 
L 346.992881 -4.262004 
L 347.756846 -4.365124 
L 348.520811 -4.473609 
L 349.284775 -4.586953 
L 350.04874 -4.70461 
L 350.812705 -4.826045 
L 351.57667 -4.950787 
L 352.340635 -5.078473 
L 353.1046 -5.20888 
L 353.868565 -5.341947 
L 354.63253 -5.477769 
L 355.396495 -5.616584 
L 356.16046 -5.758732 
L 356.924425 -5.904613 
L 357.68839 -6.054619 
L 358.452355 -6.209082 
L 359.21632 -6.368218 
L 359.980285 -6.532081 
L 360.74425 -6.700548 
L 361.508215 -6.873309 
L 362.27218 -7.049894 
L 363.036145 -7.229712 
L 363.80011 -7.412109 
L 364.564074 -7.596441 
L 365.328039 -7.782138 
L 366.092004 -7.968775 
L 366.855969 -8.156123 
L 367.619934 -8.344191 
L 368.383899 -8.533245 
L 369.147864 -8.723818 
L 369.911829 -8.916696 
L 370.675794 -9.112899 
L 371.439759 -9.313658 
L 372.203724 -9.520378 
L 372.967689 -9.734606 
L 373.731654 -9.957989 
L 374.495619 -10.192226 
L 375.259584 -10.439012 
L 376.023549 -10.699969 
L 376.787514 -10.976567 
L 377.551479 -11.270028 
L 378.315444 -11.581237 
L 379.079409 -11.910651 
L 379.843373 -12.258221 
L 380.607338 -12.623343 
L 381.371303 -13.004847 
L 382.135268 -13.401024 
L 382.899233 -13.809692 
L 383.663198 -14.228315 
L 384.427163 -14.654139 
L 385.191128 -15.084355 
L 385.955093 -15.516267 
L 386.719058 -15.947451 
L 387.483023 -16.375887 
L 388.246988 -16.800068 
L 389.010953 -17.219062 
L 389.774918 -17.632541 
L 390.538883 -18.040769 
L 391.302848 -18.444552 
L 392.066813 -18.845163 
L 392.830778 -19.244234 
L 393.594743 -19.643642 
L 394.358708 -20.045363 
L 395.122673 -20.451341 
L 395.886637 -20.863338 
L 396.650602 -21.2828 
L 397.414567 -21.710739 
L 398.178532 -22.147632 
L 398.942497 -22.593354 
L 399.706462 -23.047149 
L 400.470427 -23.507643 
L 401.234392 -23.972899 
L 401.998357 -24.440522 
L 402.762322 -24.907795 
L 403.526287 -25.371853 
L 404.290252 -25.829869 
L 405.054217 -26.279253 
L 405.818182 -26.717839 
L 406.582147 -27.144046 
L 407.346112 -27.557007 
L 408.110077 -27.956638 
L 408.874042 -28.343658 
L 409.638007 -28.719534 
L 410.401972 -29.086376 
L 411.165936 -29.446765 
L 411.929901 -29.803539 
L 412.693866 -30.15955 
L 413.457831 -30.517412 
L 414.221796 -30.879256 
L 414.985761 -31.246515 
L 415.749726 -31.619765 
L 416.513691 -31.998619 
L 417.277656 -32.381699 
L 418.041621 -32.766679 
L 418.805586 -33.150403 
L 419.569551 -33.529066 
L 420.333516 -33.898439 
L 421.097481 -34.254141 
L 421.861446 -34.591914 
L 422.625411 -34.907898 
L 423.389376 -35.198882 
L 424.153341 -35.462513 
L 424.917306 -35.697444 
L 425.681271 -35.903415 
L 426.445235 -36.081257 
L 427.2092 -36.23282 
L 427.973165 -36.360821 
L 428.73713 -36.468642 
L 429.501095 -36.560063 
L 430.26506 -36.638983 
L 431.029025 -36.709133 
L 431.79299 -36.773802 
L 432.556955 -36.835615 
L 433.32092 -36.896366 
L 434.084885 -36.95692 
L 434.84885 -37.017203 
L 435.612815 -37.076262 
L 436.37678 -37.132393 
L 437.140745 -37.183326 
L 437.90471 -37.226437 
L 438.668675 -37.258977 
L 439.43264 -37.278291 
L 440.196605 -37.282007 
L 440.96057 -37.268184 
L 441.724535 -37.235405 
L 442.488499 -37.182816 
L 443.252464 -37.110116 
L 444.016429 -37.017488 
L 444.780394 -36.905511 
L 445.544359 -36.775037 
L 446.308324 -36.627072 
L 447.072289 -36.462665 
L 447.836254 -36.282811 
L 448.600219 -36.088402 
L 449.364184 -35.880201 
L 450.128149 -35.658863 
L 450.892114 -35.424992 
L 451.656079 -35.179213 
L 452.420044 -34.922269 
L 453.184009 -34.655105 
L 453.947974 -34.378932 
L 454.711939 -34.095258 
L 455.475904 -33.805866 
L 456.239869 -33.512745 
L 457.003834 -33.217956 
L 457.767798 -32.923467 
L 458.531763 -32.630948 
L 459.295728 -32.341562 
L 460.059693 -32.055778 
L 460.823658 -31.773228 
L 461.587623 -31.492626 
L 462.351588 -31.211782 
L 463.115553 -30.927698 
L 463.879518 -30.636769 
L 464.643483 -30.335043 
L 465.407448 -30.018551 
L 466.171413 -29.683648 
L 466.935378 -29.327345 
L 467.699343 -28.947598 
L 468.463308 -28.543517 
L 469.227273 -28.115475 
L 469.991238 -27.665112 
L 470.755203 -27.195226 
L 471.519168 -26.709569 
L 472.283133 -26.21257 
L 473.047097 -25.709004 
L 473.811062 -25.203652 
L 474.575027 -24.700976 
L 475.338992 -24.204834 
L 476.102957 -23.718266 
L 476.866922 -23.243357 
L 477.630887 -22.781186 
L 478.394852 -22.331861 
L 479.158817 -21.894625 
L 479.922782 -21.468026 
L 480.686747 -21.050129 
L 481.450712 -20.638747 
L 482.214677 -20.231675 
L 482.978642 -19.826911 
L 483.742607 -19.422835 
L 484.506572 -19.018347 
L 485.270537 -18.612946 
L 486.034502 -18.206749 
L 486.798467 -17.800456 
L 487.562432 -17.395254 
L 488.326396 -16.992692 
L 489.090361 -16.594521 
L 489.854326 -16.202521 
L 490.618291 -15.818342 
L 491.382256 -15.443361 
L 492.146221 -15.078571 
L 492.910186 -14.724519 
L 493.674151 -14.381287 
L 494.438116 -14.048518 
L 495.202081 -13.725488 
L 495.966046 -13.411204 
L 496.730011 -13.104525 
L 497.493976 -12.804284 
L 498.257941 -12.50941 
L 499.021906 -12.219029 
L 499.785871 -11.932532 
L 500.549836 -11.649618 
L 501.313801 -11.370303 
L 502.077766 -11.094895 
L 502.841731 -10.823942 
L 503.605696 -10.558159 
L 504.36966 -10.298351 
L 505.133625 -10.045318 
L 505.89759 -9.799783 
L 506.661555 -9.562312 
L 507.42552 -9.333267 
L 508.189485 -9.112768 
L 508.95345 -8.90068 
L 509.717415 -8.696622 
L 510.48138 -8.49999 
L 511.245345 -8.309998 
L 512.00931 -8.125731 
L 512.773275 -7.9462 
L 513.53724 -7.770401 
L 514.301205 -7.597366 
L 515.06517 -7.426215 
L 515.829135 -7.256196 
L 516.5931 -7.086707 
L 517.357065 -6.917323 
L 518.12103 -6.747805 
L 518.884995 -6.578096 
L 519.648959 -6.408319 
L 520.412924 -6.238762 
L 521.176889 -6.069861 
L 521.940854 -5.902173 
L 522.704819 -5.736349 
L 523.468784 -5.573098 
L 524.232749 -5.413157 
L 524.996714 -5.257245 
L 525.760679 -5.106038 
L 526.524644 -4.960127 
L 527.288609 -4.82 
L 528.052574 -4.68602 
L 528.816539 -4.558417 
L 529.580504 -4.437292 
L 530.344469 -4.322626 
L 531.108434 -4.214298 
L 531.872399 -4.112111 
L 532.636364 -4.015821 
L 532.636364 -2.470909 
L 532.636364 -2.470909 
L 531.872399 -2.470909 
L 531.108434 -2.470909 
L 530.344469 -2.470909 
L 529.580504 -2.470909 
L 528.816539 -2.470909 
L 528.052574 -2.470909 
L 527.288609 -2.470909 
L 526.524644 -2.470909 
L 525.760679 -2.470909 
L 524.996714 -2.470909 
L 524.232749 -2.470909 
L 523.468784 -2.470909 
L 522.704819 -2.470909 
L 521.940854 -2.470909 
L 521.176889 -2.470909 
L 520.412924 -2.470909 
L 519.648959 -2.470909 
L 518.884995 -2.470909 
L 518.12103 -2.470909 
L 517.357065 -2.470909 
L 516.5931 -2.470909 
L 515.829135 -2.470909 
L 515.06517 -2.470909 
L 514.301205 -2.470909 
L 513.53724 -2.470909 
L 512.773275 -2.470909 
L 512.00931 -2.470909 
L 511.245345 -2.470909 
L 510.48138 -2.470909 
L 509.717415 -2.470909 
L 508.95345 -2.470909 
L 508.189485 -2.470909 
L 507.42552 -2.470909 
L 506.661555 -2.470909 
L 505.89759 -2.470909 
L 505.133625 -2.470909 
L 504.36966 -2.470909 
L 503.605696 -2.470909 
L 502.841731 -2.470909 
L 502.077766 -2.470909 
L 501.313801 -2.470909 
L 500.549836 -2.470909 
L 499.785871 -2.470909 
L 499.021906 -2.470909 
L 498.257941 -2.470909 
L 497.493976 -2.470909 
L 496.730011 -2.470909 
L 495.966046 -2.470909 
L 495.202081 -2.470909 
L 494.438116 -2.470909 
L 493.674151 -2.470909 
L 492.910186 -2.470909 
L 492.146221 -2.470909 
L 491.382256 -2.470909 
L 490.618291 -2.470909 
L 489.854326 -2.470909 
L 489.090361 -2.470909 
L 488.326396 -2.470909 
L 487.562432 -2.470909 
L 486.798467 -2.470909 
L 486.034502 -2.470909 
L 485.270537 -2.470909 
L 484.506572 -2.470909 
L 483.742607 -2.470909 
L 482.978642 -2.470909 
L 482.214677 -2.470909 
L 481.450712 -2.470909 
L 480.686747 -2.470909 
L 479.922782 -2.470909 
L 479.158817 -2.470909 
L 478.394852 -2.470909 
L 477.630887 -2.470909 
L 476.866922 -2.470909 
L 476.102957 -2.470909 
L 475.338992 -2.470909 
L 474.575027 -2.470909 
L 473.811062 -2.470909 
L 473.047097 -2.470909 
L 472.283133 -2.470909 
L 471.519168 -2.470909 
L 470.755203 -2.470909 
L 469.991238 -2.470909 
L 469.227273 -2.470909 
L 468.463308 -2.470909 
L 467.699343 -2.470909 
L 466.935378 -2.470909 
L 466.171413 -2.470909 
L 465.407448 -2.470909 
L 464.643483 -2.470909 
L 463.879518 -2.470909 
L 463.115553 -2.470909 
L 462.351588 -2.470909 
L 461.587623 -2.470909 
L 460.823658 -2.470909 
L 460.059693 -2.470909 
L 459.295728 -2.470909 
L 458.531763 -2.470909 
L 457.767798 -2.470909 
L 457.003834 -2.470909 
L 456.239869 -2.470909 
L 455.475904 -2.470909 
L 454.711939 -2.470909 
L 453.947974 -2.470909 
L 453.184009 -2.470909 
L 452.420044 -2.470909 
L 451.656079 -2.470909 
L 450.892114 -2.470909 
L 450.128149 -2.470909 
L 449.364184 -2.470909 
L 448.600219 -2.470909 
L 447.836254 -2.470909 
L 447.072289 -2.470909 
L 446.308324 -2.470909 
L 445.544359 -2.470909 
L 444.780394 -2.470909 
L 444.016429 -2.470909 
L 443.252464 -2.470909 
L 442.488499 -2.470909 
L 441.724535 -2.470909 
L 440.96057 -2.470909 
L 440.196605 -2.470909 
L 439.43264 -2.470909 
L 438.668675 -2.470909 
L 437.90471 -2.470909 
L 437.140745 -2.470909 
L 436.37678 -2.470909 
L 435.612815 -2.470909 
L 434.84885 -2.470909 
L 434.084885 -2.470909 
L 433.32092 -2.470909 
L 432.556955 -2.470909 
L 431.79299 -2.470909 
L 431.029025 -2.470909 
L 430.26506 -2.470909 
L 429.501095 -2.470909 
L 428.73713 -2.470909 
L 427.973165 -2.470909 
L 427.2092 -2.470909 
L 426.445235 -2.470909 
L 425.681271 -2.470909 
L 424.917306 -2.470909 
L 424.153341 -2.470909 
L 423.389376 -2.470909 
L 422.625411 -2.470909 
L 421.861446 -2.470909 
L 421.097481 -2.470909 
L 420.333516 -2.470909 
L 419.569551 -2.470909 
L 418.805586 -2.470909 
L 418.041621 -2.470909 
L 417.277656 -2.470909 
L 416.513691 -2.470909 
L 415.749726 -2.470909 
L 414.985761 -2.470909 
L 414.221796 -2.470909 
L 413.457831 -2.470909 
L 412.693866 -2.470909 
L 411.929901 -2.470909 
L 411.165936 -2.470909 
L 410.401972 -2.470909 
L 409.638007 -2.470909 
L 408.874042 -2.470909 
L 408.110077 -2.470909 
L 407.346112 -2.470909 
L 406.582147 -2.470909 
L 405.818182 -2.470909 
L 405.054217 -2.470909 
L 404.290252 -2.470909 
L 403.526287 -2.470909 
L 402.762322 -2.470909 
L 401.998357 -2.470909 
L 401.234392 -2.470909 
L 400.470427 -2.470909 
L 399.706462 -2.470909 
L 398.942497 -2.470909 
L 398.178532 -2.470909 
L 397.414567 -2.470909 
L 396.650602 -2.470909 
L 395.886637 -2.470909 
L 395.122673 -2.470909 
L 394.358708 -2.470909 
L 393.594743 -2.470909 
L 392.830778 -2.470909 
L 392.066813 -2.470909 
L 391.302848 -2.470909 
L 390.538883 -2.470909 
L 389.774918 -2.470909 
L 389.010953 -2.470909 
L 388.246988 -2.470909 
L 387.483023 -2.470909 
L 386.719058 -2.470909 
L 385.955093 -2.470909 
L 385.191128 -2.470909 
L 384.427163 -2.470909 
L 383.663198 -2.470909 
L 382.899233 -2.470909 
L 382.135268 -2.470909 
L 381.371303 -2.470909 
L 380.607338 -2.470909 
L 379.843373 -2.470909 
L 379.079409 -2.470909 
L 378.315444 -2.470909 
L 377.551479 -2.470909 
L 376.787514 -2.470909 
L 376.023549 -2.470909 
L 375.259584 -2.470909 
L 374.495619 -2.470909 
L 373.731654 -2.470909 
L 372.967689 -2.470909 
L 372.203724 -2.470909 
L 371.439759 -2.470909 
L 370.675794 -2.470909 
L 369.911829 -2.470909 
L 369.147864 -2.470909 
L 368.383899 -2.470909 
L 367.619934 -2.470909 
L 366.855969 -2.470909 
L 366.092004 -2.470909 
L 365.328039 -2.470909 
L 364.564074 -2.470909 
L 363.80011 -2.470909 
L 363.036145 -2.470909 
L 362.27218 -2.470909 
L 361.508215 -2.470909 
L 360.74425 -2.470909 
L 359.980285 -2.470909 
L 359.21632 -2.470909 
L 358.452355 -2.470909 
L 357.68839 -2.470909 
L 356.924425 -2.470909 
L 356.16046 -2.470909 
L 355.396495 -2.470909 
L 354.63253 -2.470909 
L 353.868565 -2.470909 
L 353.1046 -2.470909 
L 352.340635 -2.470909 
L 351.57667 -2.470909 
L 350.812705 -2.470909 
L 350.04874 -2.470909 
L 349.284775 -2.470909 
L 348.520811 -2.470909 
L 347.756846 -2.470909 
L 346.992881 -2.470909 
L 346.228916 -2.470909 
L 345.464951 -2.470909 
L 344.700986 -2.470909 
L 343.937021 -2.470909 
L 343.173056 -2.470909 
L 342.409091 -2.470909 
z
" style="stroke: #116dc2; stroke-opacity: 0.2"/>
    </defs>
    <g clip-path="url(#p83a5ddd8fe)">
     <use xlink:href="#m31ec7284d3" x="0" y="54.36" style="fill: #116dc2; fill-opacity: 0.2; stroke: #116dc2; stroke-opacity: 0.2"/>
    </g>
   </g>
   <g id="PolyCollection_3">
    <defs>
     <path id="m6fb953ef6c" d="M 25.363636 -2.470909 
L 25.363636 -4.499794 
L 26.127601 -5.027792 
L 26.891566 -5.746231 
L 27.655531 -6.747488 
L 28.419496 -8.003355 
L 29.183461 -9.423096 
L 29.947426 -11.018602 
L 30.711391 -13.028782 
L 31.475356 -15.714155 
L 32.239321 -18.962807 
L 33.003286 -22.27223 
L 33.767251 -25.15903 
L 34.531216 -27.691276 
L 35.295181 -30.638359 
L 36.059146 -34.530143 
L 36.823111 -38.905945 
L 37.587076 -42.678731 
L 38.351041 -45.21531 
L 39.115005 -47.125373 
L 39.87897 -49.082019 
L 40.642935 -50.693207 
L 41.4069 -51.499433 
L 42.170865 -51.837565 
L 42.93483 -51.889091 
L 43.698795 -51.001333 
L 44.46276 -48.741768 
L 45.226725 -45.724578 
L 45.99069 -42.848763 
L 46.754655 -40.303501 
L 47.51862 -37.470176 
L 48.282585 -33.839946 
L 49.04655 -29.900064 
L 49.810515 -26.556453 
L 50.57448 -23.912549 
L 51.338445 -21.402829 
L 52.10241 -18.668659 
L 52.866375 -15.844168 
L 53.63034 -13.302155 
L 54.394304 -11.184478 
L 55.158269 -9.37575 
L 55.922234 -7.778599 
L 56.686199 -6.483929 
L 57.450164 -5.584978 
L 58.214129 -4.94988 
L 58.978094 -4.435337 
L 58.978094 -2.470909 
L 58.978094 -2.470909 
L 58.214129 -2.470909 
L 57.450164 -2.470909 
L 56.686199 -2.470909 
L 55.922234 -2.470909 
L 55.158269 -2.470909 
L 54.394304 -2.470909 
L 53.63034 -2.470909 
L 52.866375 -2.470909 
L 52.10241 -2.470909 
L 51.338445 -2.470909 
L 50.57448 -2.470909 
L 49.810515 -2.470909 
L 49.04655 -2.470909 
L 48.282585 -2.470909 
L 47.51862 -2.470909 
L 46.754655 -2.470909 
L 45.99069 -2.470909 
L 45.226725 -2.470909 
L 44.46276 -2.470909 
L 43.698795 -2.470909 
L 42.93483 -2.470909 
L 42.170865 -2.470909 
L 41.4069 -2.470909 
L 40.642935 -2.470909 
L 39.87897 -2.470909 
L 39.115005 -2.470909 
L 38.351041 -2.470909 
L 37.587076 -2.470909 
L 36.823111 -2.470909 
L 36.059146 -2.470909 
L 35.295181 -2.470909 
L 34.531216 -2.470909 
L 33.767251 -2.470909 
L 33.003286 -2.470909 
L 32.239321 -2.470909 
L 31.475356 -2.470909 
L 30.711391 -2.470909 
L 29.947426 -2.470909 
L 29.183461 -2.470909 
L 28.419496 -2.470909 
L 27.655531 -2.470909 
L 26.891566 -2.470909 
L 26.127601 -2.470909 
L 25.363636 -2.470909 
z
" style="stroke: #8a8a8a; stroke-opacity: 0.2"/>
    </defs>
    <g clip-path="url(#p83a5ddd8fe)">
     <use xlink:href="#m6fb953ef6c" x="0" y="54.36" style="fill: #8a8a8a; fill-opacity: 0.2; stroke: #8a8a8a; stroke-opacity: 0.2"/>
    </g>
   </g>
   <g id="line2d_1">
    <path d="M 213.299014 50.60161 
L 217.882804 50.079166 
L 229.342278 48.449104 
L 233.162103 47.619294 
L 238.509858 46.140537 
L 246.149507 43.856451 
L 249.969332 42.48801 
L 254.553122 40.613758 
L 258.372946 38.835999 
L 262.192771 36.817786 
L 267.540526 33.736043 
L 272.124315 30.888164 
L 279 26.562834 
L 282.819825 24.528755 
L 292.751369 19.646063 
L 295.807229 18.437335 
L 298.099124 17.76502 
L 300.391019 17.300537 
L 302.682913 17.021871 
L 305.738773 16.883135 
L 309.558598 16.979298 
L 313.378423 17.324742 
L 316.434283 17.82257 
L 319.490142 18.537311 
L 323.309967 19.68345 
L 328.657722 21.583674 
L 334.769441 23.92594 
L 337.825301 25.349062 
L 340.117196 26.652832 
L 343.173056 28.685207 
L 349.284775 32.910192 
L 352.340635 34.750081 
L 356.924425 37.227772 
L 363.80011 40.690191 
L 367.619934 42.399888 
L 371.439759 43.898308 
L 376.023549 45.453071 
L 379.843373 46.525917 
L 383.663198 47.372237 
L 391.302848 48.755521 
L 398.942497 49.976851 
L 403.526287 50.551257 
L 403.526287 50.551257 
" clip-path="url(#p83a5ddd8fe)" style="fill: none; stroke: #cf1313; stroke-width: 1.5; stroke-linecap: square"/>
   </g>
   <g id="line2d_2">
    <path d="M 342.409091 50.590497 
L 346.992881 50.097996 
L 352.340635 49.281527 
L 358.452355 48.150918 
L 363.80011 46.947891 
L 372.967689 44.625394 
L 376.023549 43.660031 
L 379.079409 42.449349 
L 382.135268 40.958976 
L 387.483023 37.984113 
L 393.594743 34.716358 
L 398.178532 32.212368 
L 409.638007 25.640466 
L 422.625411 19.452102 
L 424.917306 18.662556 
L 427.2092 18.12718 
L 430.26506 17.721017 
L 437.140745 17.176674 
L 440.196605 17.077993 
L 442.488499 17.177184 
L 444.780394 17.454489 
L 447.836254 18.077189 
L 450.892114 18.935008 
L 454.711939 20.264742 
L 466.171413 24.676352 
L 468.463308 25.816483 
L 471.519168 27.650431 
L 478.394852 32.028139 
L 482.978642 34.533089 
L 492.146221 39.281429 
L 495.966046 40.948796 
L 501.313801 42.989697 
L 505.89759 44.560217 
L 509.717415 45.663378 
L 515.06517 46.933785 
L 526.524644 49.399873 
L 531.108434 50.145702 
L 532.636364 50.344179 
L 532.636364 50.344179 
" clip-path="url(#p83a5ddd8fe)" style="fill: none; stroke: #116dc2; stroke-width: 1.5; stroke-linecap: square"/>
   </g>
   <g id="line2d_3">
    <path d="M 25.363636 49.860206 
L 26.127601 49.332208 
L 26.891566 48.613769 
L 27.655531 47.612512 
L 28.419496 46.356645 
L 29.183461 44.936904 
L 29.947426 43.341398 
L 30.711391 41.331218 
L 31.475356 38.645845 
L 32.239321 35.397193 
L 33.003286 32.08777 
L 33.767251 29.20097 
L 34.531216 26.668724 
L 35.295181 23.721641 
L 36.059146 19.829857 
L 36.823111 15.454055 
L 37.587076 11.681269 
L 38.351041 9.14469 
L 39.115005 7.234627 
L 39.87897 5.277981 
L 40.642935 3.666793 
L 41.4069 2.860567 
L 42.170865 2.522435 
L 42.93483 2.470909 
L 43.698795 3.358667 
L 44.46276 5.618232 
L 45.226725 8.635422 
L 45.99069 11.511237 
L 46.754655 14.056499 
L 47.51862 16.889824 
L 48.282585 20.520054 
L 49.04655 24.459936 
L 49.810515 27.803547 
L 50.57448 30.447451 
L 51.338445 32.957171 
L 52.10241 35.691341 
L 52.866375 38.515832 
L 53.63034 41.057845 
L 54.394304 43.175522 
L 55.158269 44.98425 
L 55.922234 46.581401 
L 56.686199 47.876071 
L 57.450164 48.775022 
L 58.214129 49.41012 
L 58.978094 49.924663 
" clip-path="url(#p83a5ddd8fe)" style="fill: none; stroke: #8a8a8a; stroke-width: 1.5; stroke-linecap: square"/>
   </g>
  </g>
 </g>
 <defs>
  <clipPath id="p83a5ddd8fe">
   <rect x="0" y="-0" width="558" height="54.36"/>
  </clipPath>
 </defs>
</svg>
