<?xml version="1.0" encoding="utf-8" standalone="no"?>
<!DOCTYPE svg PUBLIC "-//W3C//DTD SVG 1.1//EN"
  "http://www.w3.org/Graphics/SVG/1.1/DTD/svg11.dtd">
<svg xmlns:xlink="http://www.w3.org/1999/xlink" width="558pt" height="54.36pt" viewBox="0 0 558 54.36" xmlns="http://www.w3.org/2000/svg" version="1.1">
 <metadata>
  <rdf:RDF xmlns:dc="http://purl.org/dc/elements/1.1/" xmlns:cc="http://creativecommons.org/ns#" xmlns:rdf="http://www.w3.org/1999/02/22-rdf-syntax-ns#">
   <cc:Work>
    <dc:type rdf:resource="http://purl.org/dc/dcmitype/StillImage"/>
    <dc:date>2024-09-15T09:31:33.965345</dc:date>
    <dc:format>image/svg+xml</dc:format>
    <dc:creator>
     <cc:Agent>
      <dc:title>Matplotlib v3.5.2, https://matplotlib.org/</dc:title>
     </cc:Agent>
    </dc:creator>
   </cc:Work>
  </rdf:RDF>
 </metadata>
 <defs>
  <style type="text/css">*{stroke-linejoin: round; stroke-linecap: butt}</style>
 </defs>
 <g id="figure_1">
  <g id="patch_1">
   <path d="M 0 54.36 
L 558 54.36 
L 558 0 
L 0 0 
L 0 54.36 
z
" style="fill: none; opacity: 0"/>
  </g>
  <g id="axes_1">
   <g id="PolyCollection_1">
    <defs>
     <path id="m8087c07f11" d="M 301.887996 -2.470909 
L 301.887996 -4.1572 
L 302.8222 -4.343719 
L 303.756404 -4.54961 
L 304.690608 -4.771868 
L 305.624812 -5.00628 
L 306.559016 -5.24849 
L 307.493219 -5.495157 
L 308.427423 -5.74489 
L 309.361627 -5.998724 
L 310.295831 -6.260057 
L 311.230035 -6.534033 
L 312.164239 -6.826472 
L 313.098443 -7.142525 
L 314.032647 -7.485326 
L 314.966851 -7.855009 
L 315.901055 -8.248444 
L 316.835259 -8.659911 
L 317.769463 -9.082681 
L 318.703666 -9.511128 
L 319.63787 -9.942794 
L 320.572074 -10.379734 
L 321.506278 -10.828668 
L 322.440482 -11.299774 
L 323.374686 -11.804401 
L 324.30889 -12.352333 
L 325.243094 -12.949375 
L 326.177298 -13.596004 
L 327.111502 -14.287482 
L 328.045706 -15.015422 
L 328.97991 -15.770335 
L 329.914114 -16.544374 
L 330.848317 -17.333422 
L 331.782521 -18.137836 
L 332.716725 -18.961529 
L 333.650929 -19.809594 
L 334.585133 -20.685171 
L 335.519337 -21.586613 
L 336.453541 -22.506057 
L 337.387745 -23.430152 
L 338.321949 -24.343022 
L 339.256153 -25.230694 
L 340.190357 -26.08557 
L 341.124561 -26.909351 
L 342.058764 -27.713251 
L 342.992968 -28.515267 
L 343.927172 -29.33532 
L 344.861376 -30.189814 
L 345.79558 -31.087323 
L 346.729784 -32.026602 
L 347.663988 -32.997256 
L 348.598192 -33.982484 
L 349.532396 -34.962729 
L 350.4666 -35.919002 
L 351.400804 -36.835019 
L 352.335008 -37.697925 
L 353.269211 -38.497953 
L 354.203415 -39.227725 
L 355.137619 -39.881841 
L 356.071823 -40.457123 
L 357.006027 -40.953401 
L 357.940231 -41.374444 
L 358.874435 -41.728456 
L 359.808639 -42.027752 
L 360.742843 -42.287474 
L 361.677047 -42.523553 
L 362.611251 -42.750371 
L 363.545455 -42.978616 
L 364.479658 -43.213771 
L 365.413862 -43.455427 
L 366.348066 -43.697403 
L 367.28227 -43.928478 
L 368.216474 -44.133505 
L 369.150678 -44.294727 
L 370.084882 -44.393278 
L 371.019086 -44.41089 
L 371.95329 -44.331871 
L 372.887494 -44.14523 
L 373.821698 -43.846694 
L 374.755902 -43.440099 
L 375.690105 -42.937645 
L 376.624309 -42.358584 
L 377.558513 -41.726319 
L 378.492717 -41.064409 
L 379.426921 -40.392482 
L 380.361125 -39.723241 
L 381.295329 -39.061513 
L 382.229533 -38.405581 
L 383.163737 -37.750174 
L 384.097941 -37.089843 
L 385.032145 -36.421363 
L 385.966349 -35.744293 
L 386.900552 -35.05972 
L 387.834756 -34.368045 
L 388.76896 -33.666981 
L 389.703164 -32.950787 
L 390.637368 -32.211058 
L 391.571572 -31.438721 
L 392.505776 -30.626444 
L 393.43998 -29.770618 
L 394.374184 -28.872359 
L 395.308388 -27.93738 
L 396.242592 -26.9749 
L 397.176796 -25.995964 
L 398.110999 -25.011594 
L 399.045203 -24.031199 
L 399.979407 -23.061569 
L 400.913611 -22.106658 
L 401.847815 -21.168109 
L 402.782019 -20.246287 
L 403.716223 -19.341411 
L 404.650427 -18.454409 
L 405.584631 -17.587267 
L 406.518835 -16.74289 
L 407.453039 -15.924665 
L 408.387243 -15.135989 
L 409.321447 -14.379959 
L 410.25565 -13.659256 
L 411.189854 -12.976134 
L 412.124058 -12.332363 
L 413.058262 -11.729032 
L 413.992466 -11.166236 
L 414.92667 -10.642781 
L 415.860874 -10.156089 
L 416.795078 -9.702422 
L 417.729282 -9.277416 
L 418.663486 -8.876755 
L 419.59769 -8.496737 
L 420.531894 -8.134554 
L 421.466097 -7.788213 
L 422.400301 -7.456231 
L 423.334505 -7.137307 
L 424.268709 -6.830143 
L 425.202913 -6.533487 
L 426.137117 -6.246303 
L 427.071321 -5.967959 
L 428.005525 -5.698314 
L 428.939729 -5.437704 
L 429.873933 -5.186888 
L 430.808137 -4.94699 
L 431.742341 -4.719454 
L 432.676544 -4.505959 
L 433.610748 -4.308237 
L 434.544952 -4.12781 
L 434.544952 -2.470909 
L 434.544952 -2.470909 
L 433.610748 -2.470909 
L 432.676544 -2.470909 
L 431.742341 -2.470909 
L 430.808137 -2.470909 
L 429.873933 -2.470909 
L 428.939729 -2.470909 
L 428.005525 -2.470909 
L 427.071321 -2.470909 
L 426.137117 -2.470909 
L 425.202913 -2.470909 
L 424.268709 -2.470909 
L 423.334505 -2.470909 
L 422.400301 -2.470909 
L 421.466097 -2.470909 
L 420.531894 -2.470909 
L 419.59769 -2.470909 
L 418.663486 -2.470909 
L 417.729282 -2.470909 
L 416.795078 -2.470909 
L 415.860874 -2.470909 
L 414.92667 -2.470909 
L 413.992466 -2.470909 
L 413.058262 -2.470909 
L 412.124058 -2.470909 
L 411.189854 -2.470909 
L 410.25565 -2.470909 
L 409.321447 -2.470909 
L 408.387243 -2.470909 
L 407.453039 -2.470909 
L 406.518835 -2.470909 
L 405.584631 -2.470909 
L 404.650427 -2.470909 
L 403.716223 -2.470909 
L 402.782019 -2.470909 
L 401.847815 -2.470909 
L 400.913611 -2.470909 
L 399.979407 -2.470909 
L 399.045203 -2.470909 
L 398.110999 -2.470909 
L 397.176796 -2.470909 
L 396.242592 -2.470909 
L 395.308388 -2.470909 
L 394.374184 -2.470909 
L 393.43998 -2.470909 
L 392.505776 -2.470909 
L 391.571572 -2.470909 
L 390.637368 -2.470909 
L 389.703164 -2.470909 
L 388.76896 -2.470909 
L 387.834756 -2.470909 
L 386.900552 -2.470909 
L 385.966349 -2.470909 
L 385.032145 -2.470909 
L 384.097941 -2.470909 
L 383.163737 -2.470909 
L 382.229533 -2.470909 
L 381.295329 -2.470909 
L 380.361125 -2.470909 
L 379.426921 -2.470909 
L 378.492717 -2.470909 
L 377.558513 -2.470909 
L 376.624309 -2.470909 
L 375.690105 -2.470909 
L 374.755902 -2.470909 
L 373.821698 -2.470909 
L 372.887494 -2.470909 
L 371.95329 -2.470909 
L 371.019086 -2.470909 
L 370.084882 -2.470909 
L 369.150678 -2.470909 
L 368.216474 -2.470909 
L 367.28227 -2.470909 
L 366.348066 -2.470909 
L 365.413862 -2.470909 
L 364.479658 -2.470909 
L 363.545455 -2.470909 
L 362.611251 -2.470909 
L 361.677047 -2.470909 
L 360.742843 -2.470909 
L 359.808639 -2.470909 
L 358.874435 -2.470909 
L 357.940231 -2.470909 
L 357.006027 -2.470909 
L 356.071823 -2.470909 
L 355.137619 -2.470909 
L 354.203415 -2.470909 
L 353.269211 -2.470909 
L 352.335008 -2.470909 
L 351.400804 -2.470909 
L 350.4666 -2.470909 
L 349.532396 -2.470909 
L 348.598192 -2.470909 
L 347.663988 -2.470909 
L 346.729784 -2.470909 
L 345.79558 -2.470909 
L 344.861376 -2.470909 
L 343.927172 -2.470909 
L 342.992968 -2.470909 
L 342.058764 -2.470909 
L 341.124561 -2.470909 
L 340.190357 -2.470909 
L 339.256153 -2.470909 
L 338.321949 -2.470909 
L 337.387745 -2.470909 
L 336.453541 -2.470909 
L 335.519337 -2.470909 
L 334.585133 -2.470909 
L 333.650929 -2.470909 
L 332.716725 -2.470909 
L 331.782521 -2.470909 
L 330.848317 -2.470909 
L 329.914114 -2.470909 
L 328.97991 -2.470909 
L 328.045706 -2.470909 
L 327.111502 -2.470909 
L 326.177298 -2.470909 
L 325.243094 -2.470909 
L 324.30889 -2.470909 
L 323.374686 -2.470909 
L 322.440482 -2.470909 
L 321.506278 -2.470909 
L 320.572074 -2.470909 
L 319.63787 -2.470909 
L 318.703666 -2.470909 
L 317.769463 -2.470909 
L 316.835259 -2.470909 
L 315.901055 -2.470909 
L 314.966851 -2.470909 
L 314.032647 -2.470909 
L 313.098443 -2.470909 
L 312.164239 -2.470909 
L 311.230035 -2.470909 
L 310.295831 -2.470909 
L 309.361627 -2.470909 
L 308.427423 -2.470909 
L 307.493219 -2.470909 
L 306.559016 -2.470909 
L 305.624812 -2.470909 
L 304.690608 -2.470909 
L 303.756404 -2.470909 
L 302.8222 -2.470909 
L 301.887996 -2.470909 
z
" style="stroke: #cf1313; stroke-opacity: 0.2"/>
    </defs>
    <g clip-path="url(#p7d2f3635f6)">
     <use xlink:href="#m8087c07f11" x="0" y="54.36" style="fill: #cf1313; fill-opacity: 0.2; stroke: #cf1313; stroke-opacity: 0.2"/>
    </g>
   </g>
   <g id="PolyCollection_2">
    <defs>
     <path id="md8510a494e" d="M 372.887494 -2.470909 
L 372.887494 -3.742739 
L 373.821698 -3.814404 
L 374.755902 -3.897383 
L 375.690105 -3.994853 
L 376.624309 -4.109484 
L 377.558513 -4.242965 
L 378.492717 -4.395649 
L 379.426921 -4.566397 
L 380.361125 -4.752675 
L 381.295329 -4.950892 
L 382.229533 -5.156966 
L 383.163737 -5.367011 
L 384.097941 -5.578033 
L 385.032145 -5.788503 
L 385.966349 -5.99867 
L 386.900552 -6.210571 
L 387.834756 -6.427695 
L 388.76896 -6.654405 
L 389.703164 -6.895235 
L 390.637368 -7.154241 
L 391.571572 -7.434545 
L 392.505776 -7.738169 
L 393.43998 -8.066154 
L 394.374184 -8.418892 
L 395.308388 -8.796526 
L 396.242592 -9.199277 
L 397.176796 -9.627608 
L 398.110999 -10.082189 
L 399.045203 -10.563699 
L 399.979407 -11.072568 
L 400.913611 -11.608732 
L 401.847815 -12.171469 
L 402.782019 -12.759324 
L 403.716223 -13.370098 
L 404.650427 -14.000857 
L 405.584631 -14.647946 
L 406.518835 -15.307036 
L 407.453039 -15.973252 
L 408.387243 -16.641445 
L 409.321447 -17.306622 
L 410.25565 -17.96449 
L 411.189854 -18.611984 
L 412.124058 -19.247634 
L 413.058262 -19.871624 
L 413.992466 -20.485496 
L 414.92667 -21.091562 
L 415.860874 -21.692172 
L 416.795078 -22.289079 
L 417.729282 -22.883074 
L 418.663486 -23.47403 
L 419.59769 -24.061293 
L 420.531894 -24.644323 
L 421.466097 -25.223342 
L 422.400301 -25.799791 
L 423.334505 -26.376449 
L 424.268709 -26.957176 
L 425.202913 -27.546334 
L 426.137117 -28.148043 
L 427.071321 -28.765438 
L 428.005525 -29.400092 
L 428.939729 -30.0517 
L 429.873933 -30.718069 
L 430.808137 -31.395382 
L 431.742341 -32.07867 
L 432.676544 -32.762407 
L 433.610748 -33.44115 
L 434.544952 -34.110158 
L 435.479156 -34.765935 
L 436.41336 -35.406622 
L 437.347564 -36.032169 
L 438.281768 -36.644179 
L 439.215972 -37.245395 
L 440.150176 -37.838816 
L 441.08438 -38.426576 
L 442.018584 -39.008827 
L 442.952788 -39.582894 
L 443.886991 -40.142988 
L 444.821195 -40.680592 
L 445.755399 -41.185489 
L 446.689603 -41.647159 
L 447.623807 -42.056192 
L 448.558011 -42.405323 
L 449.492215 -42.689848 
L 450.426419 -42.907372 
L 451.360623 -43.057066 
L 452.294827 -43.138769 
L 453.229031 -43.152275 
L 454.163235 -43.097117 
L 455.097438 -42.972917 
L 456.031642 -42.78023 
L 456.965846 -42.521602 
L 457.90005 -42.202506 
L 458.834254 -41.83182 
L 459.768458 -41.42164 
L 460.702662 -40.986358 
L 461.636866 -40.541162 
L 462.57107 -40.100216 
L 463.505274 -39.674885 
L 464.439478 -39.272335 
L 465.373682 -38.894779 
L 466.307885 -38.539449 
L 467.242089 -38.199253 
L 468.176293 -37.86394 
L 469.110497 -37.52153 
L 470.044701 -37.159775 
L 470.978905 -36.767492 
L 471.913109 -36.335669 
L 472.847313 -35.858309 
L 473.781517 -35.332999 
L 474.715721 -34.761152 
L 475.649925 -34.147847 
L 476.584129 -33.501185 
L 477.518332 -32.831144 
L 478.452536 -32.148028 
L 479.38674 -31.460751 
L 480.320944 -30.775306 
L 481.255148 -30.09379 
L 482.189352 -29.414238 
L 483.123556 -28.73136 
L 484.05776 -28.037999 
L 484.991964 -27.326972 
L 485.926168 -26.592857 
L 486.860372 -25.833301 
L 487.794576 -25.04962 
L 488.72878 -24.246613 
L 489.662983 -23.431741 
L 490.597187 -22.613926 
L 491.531391 -21.80228 
L 492.465595 -21.005018 
L 493.399799 -20.228717 
L 494.334003 -19.477979 
L 495.268207 -18.75544 
L 496.202411 -18.062037 
L 497.136615 -17.397414 
L 498.070819 -16.76036 
L 499.005023 -16.149212 
L 499.939227 -15.562187 
L 500.87343 -14.997617 
L 501.807634 -14.454113 
L 502.741838 -13.930646 
L 503.676042 -13.426556 
L 504.610246 -12.941511 
L 505.54445 -12.475383 
L 506.478654 -12.028087 
L 507.412858 -11.599378 
L 508.347062 -11.188662 
L 509.281266 -10.794881 
L 510.21547 -10.416505 
L 511.149674 -10.051691 
L 512.083877 -9.698582 
L 513.018081 -9.355691 
L 513.952285 -9.022262 
L 514.886489 -8.6985 
L 515.820693 -8.385558 
L 516.754897 -8.085249 
L 517.689101 -7.799518 
L 518.623305 -7.529794 
L 519.557509 -7.276378 
L 520.491713 -7.038053 
L 521.425917 -6.812024 
L 522.360121 -6.59426 
L 523.294324 -6.380148 
L 524.228528 -6.165358 
L 525.162732 -5.946685 
L 526.096936 -5.722695 
L 527.03114 -5.494013 
L 527.965344 -5.263198 
L 528.899548 -5.03424 
L 529.833752 -4.811819 
L 530.767956 -4.600492 
L 531.70216 -4.403996 
L 532.636364 -4.224786 
L 532.636364 -2.470909 
L 532.636364 -2.470909 
L 531.70216 -2.470909 
L 530.767956 -2.470909 
L 529.833752 -2.470909 
L 528.899548 -2.470909 
L 527.965344 -2.470909 
L 527.03114 -2.470909 
L 526.096936 -2.470909 
L 525.162732 -2.470909 
L 524.228528 -2.470909 
L 523.294324 -2.470909 
L 522.360121 -2.470909 
L 521.425917 -2.470909 
L 520.491713 -2.470909 
L 519.557509 -2.470909 
L 518.623305 -2.470909 
L 517.689101 -2.470909 
L 516.754897 -2.470909 
L 515.820693 -2.470909 
L 514.886489 -2.470909 
L 513.952285 -2.470909 
L 513.018081 -2.470909 
L 512.083877 -2.470909 
L 511.149674 -2.470909 
L 510.21547 -2.470909 
L 509.281266 -2.470909 
L 508.347062 -2.470909 
L 507.412858 -2.470909 
L 506.478654 -2.470909 
L 505.54445 -2.470909 
L 504.610246 -2.470909 
L 503.676042 -2.470909 
L 502.741838 -2.470909 
L 501.807634 -2.470909 
L 500.87343 -2.470909 
L 499.939227 -2.470909 
L 499.005023 -2.470909 
L 498.070819 -2.470909 
L 497.136615 -2.470909 
L 496.202411 -2.470909 
L 495.268207 -2.470909 
L 494.334003 -2.470909 
L 493.399799 -2.470909 
L 492.465595 -2.470909 
L 491.531391 -2.470909 
L 490.597187 -2.470909 
L 489.662983 -2.470909 
L 488.72878 -2.470909 
L 487.794576 -2.470909 
L 486.860372 -2.470909 
L 485.926168 -2.470909 
L 484.991964 -2.470909 
L 484.05776 -2.470909 
L 483.123556 -2.470909 
L 482.189352 -2.470909 
L 481.255148 -2.470909 
L 480.320944 -2.470909 
L 479.38674 -2.470909 
L 478.452536 -2.470909 
L 477.518332 -2.470909 
L 476.584129 -2.470909 
L 475.649925 -2.470909 
L 474.715721 -2.470909 
L 473.781517 -2.470909 
L 472.847313 -2.470909 
L 471.913109 -2.470909 
L 470.978905 -2.470909 
L 470.044701 -2.470909 
L 469.110497 -2.470909 
L 468.176293 -2.470909 
L 467.242089 -2.470909 
L 466.307885 -2.470909 
L 465.373682 -2.470909 
L 464.439478 -2.470909 
L 463.505274 -2.470909 
L 462.57107 -2.470909 
L 461.636866 -2.470909 
L 460.702662 -2.470909 
L 459.768458 -2.470909 
L 458.834254 -2.470909 
L 457.90005 -2.470909 
L 456.965846 -2.470909 
L 456.031642 -2.470909 
L 455.097438 -2.470909 
L 454.163235 -2.470909 
L 453.229031 -2.470909 
L 452.294827 -2.470909 
L 451.360623 -2.470909 
L 450.426419 -2.470909 
L 449.492215 -2.470909 
L 448.558011 -2.470909 
L 447.623807 -2.470909 
L 446.689603 -2.470909 
L 445.755399 -2.470909 
L 444.821195 -2.470909 
L 443.886991 -2.470909 
L 442.952788 -2.470909 
L 442.018584 -2.470909 
L 441.08438 -2.470909 
L 440.150176 -2.470909 
L 439.215972 -2.470909 
L 438.281768 -2.470909 
L 437.347564 -2.470909 
L 436.41336 -2.470909 
L 435.479156 -2.470909 
L 434.544952 -2.470909 
L 433.610748 -2.470909 
L 432.676544 -2.470909 
L 431.742341 -2.470909 
L 430.808137 -2.470909 
L 429.873933 -2.470909 
L 428.939729 -2.470909 
L 428.005525 -2.470909 
L 427.071321 -2.470909 
L 426.137117 -2.470909 
L 425.202913 -2.470909 
L 424.268709 -2.470909 
L 423.334505 -2.470909 
L 422.400301 -2.470909 
L 421.466097 -2.470909 
L 420.531894 -2.470909 
L 419.59769 -2.470909 
L 418.663486 -2.470909 
L 417.729282 -2.470909 
L 416.795078 -2.470909 
L 415.860874 -2.470909 
L 414.92667 -2.470909 
L 413.992466 -2.470909 
L 413.058262 -2.470909 
L 412.124058 -2.470909 
L 411.189854 -2.470909 
L 410.25565 -2.470909 
L 409.321447 -2.470909 
L 408.387243 -2.470909 
L 407.453039 -2.470909 
L 406.518835 -2.470909 
L 405.584631 -2.470909 
L 404.650427 -2.470909 
L 403.716223 -2.470909 
L 402.782019 -2.470909 
L 401.847815 -2.470909 
L 400.913611 -2.470909 
L 399.979407 -2.470909 
L 399.045203 -2.470909 
L 398.110999 -2.470909 
L 397.176796 -2.470909 
L 396.242592 -2.470909 
L 395.308388 -2.470909 
L 394.374184 -2.470909 
L 393.43998 -2.470909 
L 392.505776 -2.470909 
L 391.571572 -2.470909 
L 390.637368 -2.470909 
L 389.703164 -2.470909 
L 388.76896 -2.470909 
L 387.834756 -2.470909 
L 386.900552 -2.470909 
L 385.966349 -2.470909 
L 385.032145 -2.470909 
L 384.097941 -2.470909 
L 383.163737 -2.470909 
L 382.229533 -2.470909 
L 381.295329 -2.470909 
L 380.361125 -2.470909 
L 379.426921 -2.470909 
L 378.492717 -2.470909 
L 377.558513 -2.470909 
L 376.624309 -2.470909 
L 375.690105 -2.470909 
L 374.755902 -2.470909 
L 373.821698 -2.470909 
L 372.887494 -2.470909 
z
" style="stroke: #116dc2; stroke-opacity: 0.2"/>
    </defs>
    <g clip-path="url(#p7d2f3635f6)">
     <use xlink:href="#md8510a494e" x="0" y="54.36" style="fill: #116dc2; fill-opacity: 0.2; stroke: #116dc2; stroke-opacity: 0.2"/>
    </g>
   </g>
   <g id="PolyCollection_3">
    <defs>
     <path id="mb495b39a94" d="M 25.363636 -2.470909 
L 25.363636 -4.489523 
L 26.29784 -4.998277 
L 27.232044 -5.581696 
L 28.166248 -6.175908 
L 29.100452 -6.769375 
L 30.034656 -7.441363 
L 30.96886 -8.308687 
L 31.903064 -9.415391 
L 32.837268 -10.698295 
L 33.771472 -12.073427 
L 34.705676 -13.502412 
L 35.639879 -14.965702 
L 36.574083 -16.464779 
L 37.508287 -18.085432 
L 38.442491 -19.972696 
L 39.376695 -22.184459 
L 40.310899 -24.59359 
L 41.245103 -26.970631 
L 42.179307 -29.199039 
L 43.113511 -31.42502 
L 44.047715 -33.932327 
L 44.981919 -36.818707 
L 45.916123 -39.862621 
L 46.850326 -42.743744 
L 47.78453 -45.295961 
L 48.718734 -47.49237 
L 49.652938 -49.28587 
L 50.587142 -50.587153 
L 51.521346 -51.389215 
L 52.45555 -51.796257 
L 53.389754 -51.889091 
L 54.323958 -51.661371 
L 55.258162 -51.145937 
L 56.192366 -50.516633 
L 57.12657 -49.967428 
L 58.060773 -49.491047 
L 58.994977 -48.83218 
L 59.929181 -47.696753 
L 60.863385 -46.006161 
L 61.797589 -43.927485 
L 62.731793 -41.66209 
L 63.665997 -39.250706 
L 64.600201 -36.6033 
L 65.534405 -33.679025 
L 66.468609 -30.617125 
L 67.402813 -27.706489 
L 68.337017 -25.209029 
L 69.27122 -23.185663 
L 70.205424 -21.48691 
L 71.139628 -19.888169 
L 72.073832 -18.233648 
L 73.008036 -16.50937 
L 73.94224 -14.814486 
L 74.876444 -13.252009 
L 75.810648 -11.854213 
L 76.744852 -10.609475 
L 77.679056 -9.506427 
L 78.61326 -8.527204 
L 79.547464 -7.636274 
L 80.481668 -6.803091 
L 81.415871 -6.029577 
L 82.350075 -5.3478 
L 83.284279 -4.787694 
L 83.284279 -2.470909 
L 83.284279 -2.470909 
L 82.350075 -2.470909 
L 81.415871 -2.470909 
L 80.481668 -2.470909 
L 79.547464 -2.470909 
L 78.61326 -2.470909 
L 77.679056 -2.470909 
L 76.744852 -2.470909 
L 75.810648 -2.470909 
L 74.876444 -2.470909 
L 73.94224 -2.470909 
L 73.008036 -2.470909 
L 72.073832 -2.470909 
L 71.139628 -2.470909 
L 70.205424 -2.470909 
L 69.27122 -2.470909 
L 68.337017 -2.470909 
L 67.402813 -2.470909 
L 66.468609 -2.470909 
L 65.534405 -2.470909 
L 64.600201 -2.470909 
L 63.665997 -2.470909 
L 62.731793 -2.470909 
L 61.797589 -2.470909 
L 60.863385 -2.470909 
L 59.929181 -2.470909 
L 58.994977 -2.470909 
L 58.060773 -2.470909 
L 57.12657 -2.470909 
L 56.192366 -2.470909 
L 55.258162 -2.470909 
L 54.323958 -2.470909 
L 53.389754 -2.470909 
L 52.45555 -2.470909 
L 51.521346 -2.470909 
L 50.587142 -2.470909 
L 49.652938 -2.470909 
L 48.718734 -2.470909 
L 47.78453 -2.470909 
L 46.850326 -2.470909 
L 45.916123 -2.470909 
L 44.981919 -2.470909 
L 44.047715 -2.470909 
L 43.113511 -2.470909 
L 42.179307 -2.470909 
L 41.245103 -2.470909 
L 40.310899 -2.470909 
L 39.376695 -2.470909 
L 38.442491 -2.470909 
L 37.508287 -2.470909 
L 36.574083 -2.470909 
L 35.639879 -2.470909 
L 34.705676 -2.470909 
L 33.771472 -2.470909 
L 32.837268 -2.470909 
L 31.903064 -2.470909 
L 30.96886 -2.470909 
L 30.034656 -2.470909 
L 29.100452 -2.470909 
L 28.166248 -2.470909 
L 27.232044 -2.470909 
L 26.29784 -2.470909 
L 25.363636 -2.470909 
z
" style="stroke: #8a8a8a; stroke-opacity: 0.2"/>
    </defs>
    <g clip-path="url(#p7d2f3635f6)">
     <use xlink:href="#mb495b39a94" x="0" y="54.36" style="fill: #8a8a8a; fill-opacity: 0.2; stroke: #8a8a8a; stroke-opacity: 0.2"/>
    </g>
   </g>
   <g id="line2d_1">
    <path d="M 301.887996 50.2028 
L 305.624812 49.35372 
L 311.230035 47.825967 
L 314.032647 46.874674 
L 317.769463 45.277319 
L 322.440482 43.060226 
L 324.30889 42.007667 
L 326.177298 40.763996 
L 328.97991 38.589665 
L 332.716725 35.398471 
L 335.519337 32.773387 
L 340.190357 28.27443 
L 345.79558 23.272677 
L 353.269211 15.862047 
L 355.137619 14.478159 
L 357.006027 13.406599 
L 358.874435 12.631544 
L 361.677047 11.836447 
L 369.150678 10.065273 
L 371.019086 9.94911 
L 372.887494 10.21477 
L 374.755902 10.919901 
L 376.624309 12.001416 
L 380.361125 14.636759 
L 388.76896 20.693019 
L 391.571572 22.921279 
L 394.374184 25.487641 
L 398.110999 29.348406 
L 402.782019 34.113713 
L 406.518835 37.61711 
L 409.321447 39.980041 
L 412.124058 42.027637 
L 414.92667 43.717219 
L 417.729282 45.082584 
L 421.466097 46.571787 
L 425.202913 47.826513 
L 429.873933 49.173112 
L 433.610748 50.051763 
L 434.544952 50.23219 
L 434.544952 50.23219 
" clip-path="url(#p7d2f3635f6)" style="fill: none; stroke: #cf1313; stroke-width: 1.5; stroke-linecap: square"/>
   </g>
   <g id="line2d_2">
    <path d="M 372.887494 50.617261 
L 376.624309 50.250516 
L 380.361125 49.607325 
L 387.834756 47.932305 
L 391.571572 46.925455 
L 394.374184 45.941108 
L 397.176796 44.732392 
L 399.979407 43.287432 
L 402.782019 41.600676 
L 406.518835 39.052964 
L 413.058262 34.488376 
L 419.59769 30.298707 
L 428.005525 24.959908 
L 433.610748 20.91885 
L 437.347564 18.327831 
L 442.952788 14.777106 
L 445.755399 13.174511 
L 447.623807 12.303808 
L 449.492215 11.670152 
L 451.360623 11.302934 
L 453.229031 11.207725 
L 455.097438 11.387083 
L 456.965846 11.838398 
L 458.834254 12.52818 
L 467.242089 16.160747 
L 470.978905 17.592508 
L 472.847313 18.501691 
L 474.715721 19.598848 
L 477.518332 21.528856 
L 485.926168 27.767143 
L 489.662983 30.928259 
L 494.334003 34.882021 
L 497.136615 36.962586 
L 499.939227 38.797813 
L 503.676042 40.933444 
L 507.412858 42.760622 
L 511.149674 44.308309 
L 515.820693 45.974442 
L 519.557509 47.083622 
L 526.096936 48.637305 
L 532.636364 50.135214 
L 532.636364 50.135214 
" clip-path="url(#p7d2f3635f6)" style="fill: none; stroke: #116dc2; stroke-width: 1.5; stroke-linecap: square"/>
   </g>
   <g id="line2d_3">
    <path d="M 25.363636 49.870477 
L 26.29784 49.361723 
L 27.232044 48.778304 
L 28.166248 48.184092 
L 29.100452 47.590625 
L 30.034656 46.918637 
L 30.96886 46.051313 
L 31.903064 44.944609 
L 32.837268 43.661705 
L 33.771472 42.286573 
L 34.705676 40.857588 
L 35.639879 39.394298 
L 36.574083 37.895221 
L 37.508287 36.274568 
L 38.442491 34.387304 
L 39.376695 32.175541 
L 40.310899 29.76641 
L 41.245103 27.389369 
L 42.179307 25.160961 
L 43.113511 22.93498 
L 44.047715 20.427673 
L 44.981919 17.541293 
L 45.916123 14.497379 
L 46.850326 11.616256 
L 47.78453 9.064039 
L 48.718734 6.86763 
L 49.652938 5.07413 
L 50.587142 3.772847 
L 51.521346 2.970785 
L 52.45555 2.563743 
L 53.389754 2.470909 
L 54.323958 2.698629 
L 55.258162 3.214063 
L 56.192366 3.843367 
L 57.12657 4.392572 
L 58.060773 4.868953 
L 58.994977 5.52782 
L 59.929181 6.663247 
L 60.863385 8.353839 
L 61.797589 10.432515 
L 62.731793 12.69791 
L 63.665997 15.109294 
L 64.600201 17.7567 
L 65.534405 20.680975 
L 66.468609 23.742875 
L 67.402813 26.653511 
L 68.337017 29.150971 
L 69.27122 31.174337 
L 70.205424 32.87309 
L 71.139628 34.471831 
L 72.073832 36.126352 
L 73.008036 37.85063 
L 73.94224 39.545514 
L 74.876444 41.107991 
L 75.810648 42.505787 
L 76.744852 43.750525 
L 77.679056 44.853573 
L 78.61326 45.832796 
L 79.547464 46.723726 
L 80.481668 47.556909 
L 81.415871 48.330423 
L 82.350075 49.0122 
L 83.284279 49.572306 
" clip-path="url(#p7d2f3635f6)" style="fill: none; stroke: #8a8a8a; stroke-width: 1.5; stroke-linecap: square"/>
   </g>
  </g>
 </g>
 <defs>
  <clipPath id="p7d2f3635f6">
   <rect x="0" y="-0" width="558" height="54.36"/>
  </clipPath>
 </defs>
</svg>
