<?xml version="1.0" encoding="utf-8" standalone="no"?>
<!DOCTYPE svg PUBLIC "-//W3C//DTD SVG 1.1//EN"
  "http://www.w3.org/Graphics/SVG/1.1/DTD/svg11.dtd">
<svg xmlns:xlink="http://www.w3.org/1999/xlink" width="558pt" height="54.36pt" viewBox="0 0 558 54.36" xmlns="http://www.w3.org/2000/svg" version="1.1">
 <metadata>
  <rdf:RDF xmlns:dc="http://purl.org/dc/elements/1.1/" xmlns:cc="http://creativecommons.org/ns#" xmlns:rdf="http://www.w3.org/1999/02/22-rdf-syntax-ns#">
   <cc:Work>
    <dc:type rdf:resource="http://purl.org/dc/dcmitype/StillImage"/>
    <dc:date>2024-09-14T12:47:38.440089</dc:date>
    <dc:format>image/svg+xml</dc:format>
    <dc:creator>
     <cc:Agent>
      <dc:title>Matplotlib v3.5.2, https://matplotlib.org/</dc:title>
     </cc:Agent>
    </dc:creator>
   </cc:Work>
  </rdf:RDF>
 </metadata>
 <defs>
  <style type="text/css">*{stroke-linejoin: round; stroke-linecap: butt}</style>
 </defs>
 <g id="figure_1">
  <g id="patch_1">
   <path d="M 0 54.36 
L 558 54.36 
L 558 0 
L 0 0 
L 0 54.36 
z
" style="fill: none; opacity: 0"/>
  </g>
  <g id="axes_1">
   <g id="PolyCollection_1">
    <defs>
     <path id="m062e1f433e" d="M 302.398189 -2.470909 
L 302.398189 -4.170246 
L 303.334116 -4.34098 
L 304.270044 -4.530693 
L 305.205971 -4.73896 
L 306.141899 -4.965152 
L 307.077826 -5.208651 
L 308.013754 -5.468953 
L 308.949681 -5.74564 
L 309.885609 -6.038297 
L 310.821536 -6.346488 
L 311.757464 -6.669856 
L 312.693391 -7.008394 
L 313.629319 -7.362815 
L 314.565247 -7.734901 
L 315.501174 -8.12766 
L 316.437102 -8.54515 
L 317.373029 -8.991921 
L 318.308957 -9.472081 
L 319.244884 -9.988172 
L 320.180812 -10.540068 
L 321.116739 -11.124211 
L 322.052667 -11.73345 
L 322.988594 -12.357695 
L 323.924522 -12.985408 
L 324.86045 -13.605738 
L 325.796377 -14.210886 
L 326.732305 -14.798097 
L 327.668232 -15.370703 
L 328.60416 -15.937766 
L 329.540087 -16.512237 
L 330.476015 -17.107954 
L 331.411942 -17.7362 
L 332.34787 -18.40271 
L 333.283797 -19.105967 
L 334.219725 -19.837313 
L 335.155652 -20.582875 
L 336.09158 -21.326882 
L 337.027508 -22.055563 
L 337.963435 -22.760712 
L 338.899363 -23.442114 
L 339.83529 -24.108283 
L 340.771218 -24.775332 
L 341.707145 -25.464185 
L 342.643073 -26.196629 
L 343.579 -26.991002 
L 344.514928 -27.85835 
L 345.450855 -28.799873 
L 346.386783 -29.80618 
L 347.32271 -30.858537 
L 348.258638 -31.93181 
L 349.194566 -32.998426 
L 350.130493 -34.032392 
L 351.066421 -35.012468 
L 352.002348 -35.923816 
L 352.938276 -36.757967 
L 353.874203 -37.511506 
L 354.810131 -38.184275 
L 355.746058 -38.777977 
L 356.681986 -39.295776 
L 357.617913 -39.742962 
L 358.553841 -40.128162 
L 359.489769 -40.464287 
L 360.425696 -40.768435 
L 361.361624 -41.060317 
L 362.297551 -41.359344 
L 363.233479 -41.680961 
L 364.169406 -42.033117 
L 365.105334 -42.413823 
L 366.041261 -42.810513 
L 366.977189 -43.201548 
L 367.913116 -43.55971 
L 368.849044 -43.85702 
L 369.784971 -44.069888 
L 370.720899 -44.183429 
L 371.656827 -44.193998 
L 372.592754 -44.10933 
L 373.528682 -43.946274 
L 374.464609 -43.726588 
L 375.400537 -43.47168 
L 376.336464 -43.197407 
L 377.272392 -42.910026 
L 378.208319 -42.60422 
L 379.144247 -42.263734 
L 380.080174 -41.864629 
L 381.016102 -41.380582 
L 381.95203 -40.789145 
L 382.887957 -40.077574 
L 383.823885 -39.246877 
L 384.759812 -38.313107 
L 385.69574 -37.305574 
L 386.631667 -36.262364 
L 387.567595 -35.224159 
L 388.503522 -34.227664 
L 389.43945 -33.299956 
L 390.375377 -32.454772 
L 391.311305 -31.691251 
L 392.247232 -30.995181 
L 393.18316 -30.342318 
L 394.119088 -29.703075 
L 395.055015 -29.047687 
L 395.990943 -28.351012 
L 396.92687 -27.596187 
L 397.862798 -26.776678 
L 398.798725 -25.896496 
L 399.734653 -24.968729 
L 400.67058 -24.012754 
L 401.606508 -23.050713 
L 402.542435 -22.103901 
L 403.478363 -21.189697 
L 404.414291 -20.319539 
L 405.350218 -19.498227 
L 406.286146 -18.724547 
L 407.222073 -17.992905 
L 408.158001 -17.295462 
L 409.093928 -16.624178 
L 410.029856 -15.972341 
L 410.965783 -15.335357 
L 411.901711 -14.710845 
L 412.837638 -14.098273 
L 413.773566 -13.498378 
L 414.709493 -12.912588 
L 415.645421 -12.342525 
L 416.581349 -11.789616 
L 417.517276 -11.254777 
L 418.453204 -10.738175 
L 419.389131 -10.239106 
L 420.325059 -9.756044 
L 421.260986 -9.286934 
L 422.196914 -8.829709 
L 423.132841 -8.382961 
L 424.068769 -7.946581 
L 425.004696 -7.522177 
L 425.940624 -7.113097 
L 426.876551 -6.724007 
L 427.812479 -6.360102 
L 428.748407 -6.026141 
L 429.684334 -5.725545 
L 430.620262 -5.459753 
L 431.556189 -5.227941 
L 432.492117 -5.027122 
L 433.428044 -4.852555 
L 434.363972 -4.698378 
L 435.299899 -4.558372 
L 436.235827 -4.426762 
L 437.171754 -4.298942 
L 438.107682 -4.171995 
L 438.107682 -2.470909 
L 438.107682 -2.470909 
L 437.171754 -2.470909 
L 436.235827 -2.470909 
L 435.299899 -2.470909 
L 434.363972 -2.470909 
L 433.428044 -2.470909 
L 432.492117 -2.470909 
L 431.556189 -2.470909 
L 430.620262 -2.470909 
L 429.684334 -2.470909 
L 428.748407 -2.470909 
L 427.812479 -2.470909 
L 426.876551 -2.470909 
L 425.940624 -2.470909 
L 425.004696 -2.470909 
L 424.068769 -2.470909 
L 423.132841 -2.470909 
L 422.196914 -2.470909 
L 421.260986 -2.470909 
L 420.325059 -2.470909 
L 419.389131 -2.470909 
L 418.453204 -2.470909 
L 417.517276 -2.470909 
L 416.581349 -2.470909 
L 415.645421 -2.470909 
L 414.709493 -2.470909 
L 413.773566 -2.470909 
L 412.837638 -2.470909 
L 411.901711 -2.470909 
L 410.965783 -2.470909 
L 410.029856 -2.470909 
L 409.093928 -2.470909 
L 408.158001 -2.470909 
L 407.222073 -2.470909 
L 406.286146 -2.470909 
L 405.350218 -2.470909 
L 404.414291 -2.470909 
L 403.478363 -2.470909 
L 402.542435 -2.470909 
L 401.606508 -2.470909 
L 400.67058 -2.470909 
L 399.734653 -2.470909 
L 398.798725 -2.470909 
L 397.862798 -2.470909 
L 396.92687 -2.470909 
L 395.990943 -2.470909 
L 395.055015 -2.470909 
L 394.119088 -2.470909 
L 393.18316 -2.470909 
L 392.247232 -2.470909 
L 391.311305 -2.470909 
L 390.375377 -2.470909 
L 389.43945 -2.470909 
L 388.503522 -2.470909 
L 387.567595 -2.470909 
L 386.631667 -2.470909 
L 385.69574 -2.470909 
L 384.759812 -2.470909 
L 383.823885 -2.470909 
L 382.887957 -2.470909 
L 381.95203 -2.470909 
L 381.016102 -2.470909 
L 380.080174 -2.470909 
L 379.144247 -2.470909 
L 378.208319 -2.470909 
L 377.272392 -2.470909 
L 376.336464 -2.470909 
L 375.400537 -2.470909 
L 374.464609 -2.470909 
L 373.528682 -2.470909 
L 372.592754 -2.470909 
L 371.656827 -2.470909 
L 370.720899 -2.470909 
L 369.784971 -2.470909 
L 368.849044 -2.470909 
L 367.913116 -2.470909 
L 366.977189 -2.470909 
L 366.041261 -2.470909 
L 365.105334 -2.470909 
L 364.169406 -2.470909 
L 363.233479 -2.470909 
L 362.297551 -2.470909 
L 361.361624 -2.470909 
L 360.425696 -2.470909 
L 359.489769 -2.470909 
L 358.553841 -2.470909 
L 357.617913 -2.470909 
L 356.681986 -2.470909 
L 355.746058 -2.470909 
L 354.810131 -2.470909 
L 353.874203 -2.470909 
L 352.938276 -2.470909 
L 352.002348 -2.470909 
L 351.066421 -2.470909 
L 350.130493 -2.470909 
L 349.194566 -2.470909 
L 348.258638 -2.470909 
L 347.32271 -2.470909 
L 346.386783 -2.470909 
L 345.450855 -2.470909 
L 344.514928 -2.470909 
L 343.579 -2.470909 
L 342.643073 -2.470909 
L 341.707145 -2.470909 
L 340.771218 -2.470909 
L 339.83529 -2.470909 
L 338.899363 -2.470909 
L 337.963435 -2.470909 
L 337.027508 -2.470909 
L 336.09158 -2.470909 
L 335.155652 -2.470909 
L 334.219725 -2.470909 
L 333.283797 -2.470909 
L 332.34787 -2.470909 
L 331.411942 -2.470909 
L 330.476015 -2.470909 
L 329.540087 -2.470909 
L 328.60416 -2.470909 
L 327.668232 -2.470909 
L 326.732305 -2.470909 
L 325.796377 -2.470909 
L 324.86045 -2.470909 
L 323.924522 -2.470909 
L 322.988594 -2.470909 
L 322.052667 -2.470909 
L 321.116739 -2.470909 
L 320.180812 -2.470909 
L 319.244884 -2.470909 
L 318.308957 -2.470909 
L 317.373029 -2.470909 
L 316.437102 -2.470909 
L 315.501174 -2.470909 
L 314.565247 -2.470909 
L 313.629319 -2.470909 
L 312.693391 -2.470909 
L 311.757464 -2.470909 
L 310.821536 -2.470909 
L 309.885609 -2.470909 
L 308.949681 -2.470909 
L 308.013754 -2.470909 
L 307.077826 -2.470909 
L 306.141899 -2.470909 
L 305.205971 -2.470909 
L 304.270044 -2.470909 
L 303.334116 -2.470909 
L 302.398189 -2.470909 
z
" style="stroke: #cf1313; stroke-opacity: 0.2"/>
    </defs>
    <g clip-path="url(#p4691e506ca)">
     <use xlink:href="#m062e1f433e" x="0" y="54.36" style="fill: #cf1313; fill-opacity: 0.2; stroke: #cf1313; stroke-opacity: 0.2"/>
    </g>
   </g>
   <g id="PolyCollection_2">
    <defs>
     <path id="mc592839752" d="M 377.272392 -2.470909 
L 377.272392 -4.542502 
L 378.208319 -4.729793 
L 379.144247 -4.925857 
L 380.080174 -5.129774 
L 381.016102 -5.340757 
L 381.95203 -5.558101 
L 382.887957 -5.781135 
L 383.823885 -6.009177 
L 384.759812 -6.241537 
L 385.69574 -6.477548 
L 386.631667 -6.716646 
L 387.567595 -6.958466 
L 388.503522 -7.202947 
L 389.43945 -7.450437 
L 390.375377 -7.701788 
L 391.311305 -7.958433 
L 392.247232 -8.222447 
L 393.18316 -8.49658 
L 394.119088 -8.784238 
L 395.055015 -9.089394 
L 395.990943 -9.416397 
L 396.92687 -9.769661 
L 397.862798 -10.153243 
L 398.798725 -10.570336 
L 399.734653 -11.022733 
L 400.67058 -11.510362 
L 401.606508 -12.030979 
L 402.542435 -12.580121 
L 403.478363 -13.151372 
L 404.414291 -13.736973 
L 405.350218 -14.328717 
L 406.286146 -14.919014 
L 407.222073 -15.502004 
L 408.158001 -16.074498 
L 409.093928 -16.636613 
L 410.029856 -17.191955 
L 410.965783 -17.747281 
L 411.901711 -18.311649 
L 412.837638 -18.895164 
L 413.773566 -19.507468 
L 414.709493 -20.156224 
L 415.645421 -20.845838 
L 416.581349 -21.576658 
L 417.517276 -22.344825 
L 418.453204 -23.142823 
L 419.389131 -23.960654 
L 420.325059 -24.787436 
L 421.260986 -25.6131 
L 422.196914 -26.429877 
L 423.132841 -27.233254 
L 424.068769 -28.02224 
L 425.004696 -28.798881 
L 425.940624 -29.567145 
L 426.876551 -30.331424 
L 427.812479 -31.094968 
L 428.748407 -31.858594 
L 429.684334 -32.619953 
L 430.620262 -33.373517 
L 431.556189 -34.111312 
L 432.492117 -34.824229 
L 433.428044 -35.503636 
L 434.363972 -36.142926 
L 435.299899 -36.738644 
L 436.235827 -37.290934 
L 437.171754 -37.80322 
L 438.107682 -38.281214 
L 439.04361 -38.731486 
L 439.979537 -39.159974 
L 440.915465 -39.570739 
L 441.851392 -39.965248 
L 442.78732 -40.342298 
L 443.723247 -40.698548 
L 444.659175 -41.029494 
L 445.595102 -41.330646 
L 446.53103 -41.598629 
L 447.466957 -41.83197 
L 448.402885 -42.031406 
L 449.338812 -42.199645 
L 450.27474 -42.340629 
L 451.210668 -42.45848 
L 452.146595 -42.556345 
L 453.082523 -42.635436 
L 454.01845 -42.694501 
L 454.954378 -42.729893 
L 455.890305 -42.736265 
L 456.826233 -42.707775 
L 457.76216 -42.639553 
L 458.698088 -42.529082 
L 459.634015 -42.377152 
L 460.569943 -42.188086 
L 461.505871 -41.969115 
L 462.441798 -41.728966 
L 463.377726 -41.475946 
L 464.313653 -41.215961 
L 465.249581 -40.950946 
L 466.185508 -40.678131 
L 467.121436 -40.390342 
L 468.057363 -40.077275 
L 468.993291 -39.727461 
L 469.929218 -39.330442 
L 470.865146 -38.878697 
L 471.801073 -38.368945 
L 472.737001 -37.802633 
L 473.672929 -37.185612 
L 474.608856 -36.527171 
L 475.544784 -35.838617 
L 476.480711 -35.131663 
L 477.416639 -34.416835 
L 478.352566 -33.702075 
L 479.288494 -32.991758 
L 480.224421 -32.286255 
L 481.160349 -31.582179 
L 482.096276 -30.87331 
L 483.032204 -30.152076 
L 483.968131 -29.411333 
L 484.904059 -28.646071 
L 485.839987 -27.854688 
L 486.775914 -27.039561 
L 487.711842 -26.206799 
L 488.647769 -25.365294 
L 489.583697 -24.525294 
L 490.519624 -23.696885 
L 491.455552 -22.888682 
L 492.391479 -22.106986 
L 493.327407 -21.355492 
L 494.263334 -20.635493 
L 495.199262 -19.94641 
L 496.13519 -19.286446 
L 497.071117 -18.653168 
L 498.007045 -18.043913 
L 498.942972 -17.455966 
L 499.8789 -16.88659 
L 500.814827 -16.332989 
L 501.750755 -15.79231 
L 502.686682 -15.261764 
L 503.62261 -14.738867 
L 504.558537 -14.221739 
L 505.494465 -13.709394 
L 506.430392 -13.201884 
L 507.36632 -12.700265 
L 508.302248 -12.206359 
L 509.238175 -11.722373 
L 510.174103 -11.250493 
L 511.11003 -10.792559 
L 512.045958 -10.349905 
L 512.981885 -9.92339 
L 513.917813 -9.513555 
L 514.85374 -9.120824 
L 515.789668 -8.745636 
L 516.725595 -8.388434 
L 517.661523 -8.04952 
L 518.597451 -7.728821 
L 519.533378 -7.425667 
L 520.469306 -7.138679 
L 521.405233 -6.865823 
L 522.341161 -6.60463 
L 523.277088 -6.352544 
L 524.213016 -6.1073 
L 525.148943 -5.867246 
L 526.084871 -5.631553 
L 527.020798 -5.400277 
L 527.956726 -5.174294 
L 528.892653 -4.955132 
L 529.828581 -4.744757 
L 530.764509 -4.545338 
L 531.700436 -4.359014 
L 532.636364 -4.187678 
L 532.636364 -2.470909 
L 532.636364 -2.470909 
L 531.700436 -2.470909 
L 530.764509 -2.470909 
L 529.828581 -2.470909 
L 528.892653 -2.470909 
L 527.956726 -2.470909 
L 527.020798 -2.470909 
L 526.084871 -2.470909 
L 525.148943 -2.470909 
L 524.213016 -2.470909 
L 523.277088 -2.470909 
L 522.341161 -2.470909 
L 521.405233 -2.470909 
L 520.469306 -2.470909 
L 519.533378 -2.470909 
L 518.597451 -2.470909 
L 517.661523 -2.470909 
L 516.725595 -2.470909 
L 515.789668 -2.470909 
L 514.85374 -2.470909 
L 513.917813 -2.470909 
L 512.981885 -2.470909 
L 512.045958 -2.470909 
L 511.11003 -2.470909 
L 510.174103 -2.470909 
L 509.238175 -2.470909 
L 508.302248 -2.470909 
L 507.36632 -2.470909 
L 506.430392 -2.470909 
L 505.494465 -2.470909 
L 504.558537 -2.470909 
L 503.62261 -2.470909 
L 502.686682 -2.470909 
L 501.750755 -2.470909 
L 500.814827 -2.470909 
L 499.8789 -2.470909 
L 498.942972 -2.470909 
L 498.007045 -2.470909 
L 497.071117 -2.470909 
L 496.13519 -2.470909 
L 495.199262 -2.470909 
L 494.263334 -2.470909 
L 493.327407 -2.470909 
L 492.391479 -2.470909 
L 491.455552 -2.470909 
L 490.519624 -2.470909 
L 489.583697 -2.470909 
L 488.647769 -2.470909 
L 487.711842 -2.470909 
L 486.775914 -2.470909 
L 485.839987 -2.470909 
L 484.904059 -2.470909 
L 483.968131 -2.470909 
L 483.032204 -2.470909 
L 482.096276 -2.470909 
L 481.160349 -2.470909 
L 480.224421 -2.470909 
L 479.288494 -2.470909 
L 478.352566 -2.470909 
L 477.416639 -2.470909 
L 476.480711 -2.470909 
L 475.544784 -2.470909 
L 474.608856 -2.470909 
L 473.672929 -2.470909 
L 472.737001 -2.470909 
L 471.801073 -2.470909 
L 470.865146 -2.470909 
L 469.929218 -2.470909 
L 468.993291 -2.470909 
L 468.057363 -2.470909 
L 467.121436 -2.470909 
L 466.185508 -2.470909 
L 465.249581 -2.470909 
L 464.313653 -2.470909 
L 463.377726 -2.470909 
L 462.441798 -2.470909 
L 461.505871 -2.470909 
L 460.569943 -2.470909 
L 459.634015 -2.470909 
L 458.698088 -2.470909 
L 457.76216 -2.470909 
L 456.826233 -2.470909 
L 455.890305 -2.470909 
L 454.954378 -2.470909 
L 454.01845 -2.470909 
L 453.082523 -2.470909 
L 452.146595 -2.470909 
L 451.210668 -2.470909 
L 450.27474 -2.470909 
L 449.338812 -2.470909 
L 448.402885 -2.470909 
L 447.466957 -2.470909 
L 446.53103 -2.470909 
L 445.595102 -2.470909 
L 444.659175 -2.470909 
L 443.723247 -2.470909 
L 442.78732 -2.470909 
L 441.851392 -2.470909 
L 440.915465 -2.470909 
L 439.979537 -2.470909 
L 439.04361 -2.470909 
L 438.107682 -2.470909 
L 437.171754 -2.470909 
L 436.235827 -2.470909 
L 435.299899 -2.470909 
L 434.363972 -2.470909 
L 433.428044 -2.470909 
L 432.492117 -2.470909 
L 431.556189 -2.470909 
L 430.620262 -2.470909 
L 429.684334 -2.470909 
L 428.748407 -2.470909 
L 427.812479 -2.470909 
L 426.876551 -2.470909 
L 425.940624 -2.470909 
L 425.004696 -2.470909 
L 424.068769 -2.470909 
L 423.132841 -2.470909 
L 422.196914 -2.470909 
L 421.260986 -2.470909 
L 420.325059 -2.470909 
L 419.389131 -2.470909 
L 418.453204 -2.470909 
L 417.517276 -2.470909 
L 416.581349 -2.470909 
L 415.645421 -2.470909 
L 414.709493 -2.470909 
L 413.773566 -2.470909 
L 412.837638 -2.470909 
L 411.901711 -2.470909 
L 410.965783 -2.470909 
L 410.029856 -2.470909 
L 409.093928 -2.470909 
L 408.158001 -2.470909 
L 407.222073 -2.470909 
L 406.286146 -2.470909 
L 405.350218 -2.470909 
L 404.414291 -2.470909 
L 403.478363 -2.470909 
L 402.542435 -2.470909 
L 401.606508 -2.470909 
L 400.67058 -2.470909 
L 399.734653 -2.470909 
L 398.798725 -2.470909 
L 397.862798 -2.470909 
L 396.92687 -2.470909 
L 395.990943 -2.470909 
L 395.055015 -2.470909 
L 394.119088 -2.470909 
L 393.18316 -2.470909 
L 392.247232 -2.470909 
L 391.311305 -2.470909 
L 390.375377 -2.470909 
L 389.43945 -2.470909 
L 388.503522 -2.470909 
L 387.567595 -2.470909 
L 386.631667 -2.470909 
L 385.69574 -2.470909 
L 384.759812 -2.470909 
L 383.823885 -2.470909 
L 382.887957 -2.470909 
L 381.95203 -2.470909 
L 381.016102 -2.470909 
L 380.080174 -2.470909 
L 379.144247 -2.470909 
L 378.208319 -2.470909 
L 377.272392 -2.470909 
z
" style="stroke: #116dc2; stroke-opacity: 0.2"/>
    </defs>
    <g clip-path="url(#p4691e506ca)">
     <use xlink:href="#mc592839752" x="0" y="54.36" style="fill: #116dc2; fill-opacity: 0.2; stroke: #116dc2; stroke-opacity: 0.2"/>
    </g>
   </g>
   <g id="PolyCollection_3">
    <defs>
     <path id="m98dc6aba97" d="M 25.363636 -2.470909 
L 25.363636 -4.525767 
L 26.299564 -4.886262 
L 27.235491 -5.328673 
L 28.171419 -5.884853 
L 29.107347 -6.562892 
L 30.043274 -7.335944 
L 30.979202 -8.164539 
L 31.915129 -9.050387 
L 32.851057 -10.063179 
L 33.786984 -11.291859 
L 34.722912 -12.76859 
L 35.658839 -14.459091 
L 36.594767 -16.32017 
L 37.530694 -18.338035 
L 38.466622 -20.51529 
L 39.402549 -22.853112 
L 40.338477 -25.346195 
L 41.274405 -27.965668 
L 42.210332 -30.642474 
L 43.14626 -33.284965 
L 44.082187 -35.813138 
L 45.018115 -38.170167 
L 45.954042 -40.315176 
L 46.88997 -42.237377 
L 47.825897 -44.002077 
L 48.761825 -45.743832 
L 49.697752 -47.535551 
L 50.63368 -49.258254 
L 51.569608 -50.657675 
L 52.505535 -51.543392 
L 53.441463 -51.889091 
L 54.37739 -51.74362 
L 55.313318 -51.160267 
L 56.249245 -50.270802 
L 57.185173 -49.296049 
L 58.1211 -48.372872 
L 59.057028 -47.435237 
L 59.992955 -46.309722 
L 60.928883 -44.857627 
L 61.86481 -43.020902 
L 62.800738 -40.831629 
L 63.736666 -38.411153 
L 64.672593 -35.909488 
L 65.608521 -33.433222 
L 66.544448 -31.030265 
L 67.480376 -28.693782 
L 68.416303 -26.364291 
L 69.352231 -23.976676 
L 70.288158 -21.544577 
L 71.224086 -19.190974 
L 72.160013 -17.068799 
L 73.095941 -15.257098 
L 74.031869 -13.74634 
L 74.967796 -12.479973 
L 75.903724 -11.371801 
L 76.839651 -10.322802 
L 77.775579 -9.276887 
L 78.711506 -8.263104 
L 79.647434 -7.358029 
L 80.583361 -6.604503 
L 81.519289 -5.980695 
L 82.455216 -5.43741 
L 83.391144 -4.939533 
L 84.327071 -4.474665 
L 84.327071 -2.470909 
L 84.327071 -2.470909 
L 83.391144 -2.470909 
L 82.455216 -2.470909 
L 81.519289 -2.470909 
L 80.583361 -2.470909 
L 79.647434 -2.470909 
L 78.711506 -2.470909 
L 77.775579 -2.470909 
L 76.839651 -2.470909 
L 75.903724 -2.470909 
L 74.967796 -2.470909 
L 74.031869 -2.470909 
L 73.095941 -2.470909 
L 72.160013 -2.470909 
L 71.224086 -2.470909 
L 70.288158 -2.470909 
L 69.352231 -2.470909 
L 68.416303 -2.470909 
L 67.480376 -2.470909 
L 66.544448 -2.470909 
L 65.608521 -2.470909 
L 64.672593 -2.470909 
L 63.736666 -2.470909 
L 62.800738 -2.470909 
L 61.86481 -2.470909 
L 60.928883 -2.470909 
L 59.992955 -2.470909 
L 59.057028 -2.470909 
L 58.1211 -2.470909 
L 57.185173 -2.470909 
L 56.249245 -2.470909 
L 55.313318 -2.470909 
L 54.37739 -2.470909 
L 53.441463 -2.470909 
L 52.505535 -2.470909 
L 51.569608 -2.470909 
L 50.63368 -2.470909 
L 49.697752 -2.470909 
L 48.761825 -2.470909 
L 47.825897 -2.470909 
L 46.88997 -2.470909 
L 45.954042 -2.470909 
L 45.018115 -2.470909 
L 44.082187 -2.470909 
L 43.14626 -2.470909 
L 42.210332 -2.470909 
L 41.274405 -2.470909 
L 40.338477 -2.470909 
L 39.402549 -2.470909 
L 38.466622 -2.470909 
L 37.530694 -2.470909 
L 36.594767 -2.470909 
L 35.658839 -2.470909 
L 34.722912 -2.470909 
L 33.786984 -2.470909 
L 32.851057 -2.470909 
L 31.915129 -2.470909 
L 30.979202 -2.470909 
L 30.043274 -2.470909 
L 29.107347 -2.470909 
L 28.171419 -2.470909 
L 27.235491 -2.470909 
L 26.299564 -2.470909 
L 25.363636 -2.470909 
z
" style="stroke: #8a8a8a; stroke-opacity: 0.2"/>
    </defs>
    <g clip-path="url(#p4691e506ca)">
     <use xlink:href="#m98dc6aba97" x="0" y="54.36" style="fill: #8a8a8a; fill-opacity: 0.2; stroke: #8a8a8a; stroke-opacity: 0.2"/>
    </g>
   </g>
   <g id="line2d_1">
    <path d="M 302.398189 50.189754 
L 306.141899 49.394848 
L 309.885609 48.321703 
L 313.629319 46.997185 
L 316.437102 45.81485 
L 319.244884 44.371828 
L 322.052667 42.62655 
L 327.668232 38.989297 
L 331.411942 36.6238 
L 334.219725 34.522687 
L 338.899363 30.917886 
L 342.643073 28.163371 
L 344.514928 26.50165 
L 346.386783 24.55382 
L 351.066421 19.347532 
L 352.938276 17.602033 
L 354.810131 16.175725 
L 356.681986 15.064224 
L 358.553841 14.231838 
L 362.297551 13.000656 
L 365.105334 11.946177 
L 367.913116 10.80029 
L 369.784971 10.290112 
L 371.656827 10.166002 
L 373.528682 10.413726 
L 376.336464 11.162593 
L 379.144247 12.096266 
L 381.016102 12.979418 
L 382.887957 14.282426 
L 384.759812 16.046893 
L 389.43945 21.060044 
L 391.311305 22.668749 
L 394.119088 24.656925 
L 395.990943 26.008988 
L 397.862798 27.583322 
L 400.67058 30.347246 
L 404.414291 34.040461 
L 407.222073 36.367095 
L 410.965783 39.024643 
L 415.645421 42.017475 
L 419.389131 44.120894 
L 424.068769 46.413419 
L 427.812479 47.999898 
L 430.620262 48.900247 
L 433.428044 49.507445 
L 438.107682 50.188005 
L 438.107682 50.188005 
" clip-path="url(#p4691e506ca)" style="fill: none; stroke: #cf1313; stroke-width: 1.5; stroke-linecap: square"/>
   </g>
   <g id="line2d_2">
    <path d="M 377.272392 49.817498 
L 381.95203 48.801899 
L 389.43945 46.909563 
L 394.119088 45.575762 
L 396.92687 44.590339 
L 399.734653 43.337267 
L 402.542435 41.779879 
L 413.773566 34.852532 
L 416.581349 32.783342 
L 420.325059 29.572564 
L 425.004696 25.561119 
L 432.492117 19.535771 
L 435.299899 17.621356 
L 438.107682 16.078786 
L 441.851392 14.394752 
L 444.659175 13.330506 
L 447.466957 12.52803 
L 450.27474 12.019371 
L 453.082523 11.724564 
L 455.890305 11.623735 
L 457.76216 11.720447 
L 459.634015 11.982848 
L 462.441798 12.631034 
L 467.121436 13.969658 
L 468.993291 14.632539 
L 470.865146 15.481303 
L 472.737001 16.557367 
L 475.544784 18.521383 
L 484.904059 25.713929 
L 488.647769 28.994706 
L 492.391479 32.253014 
L 495.199262 34.41359 
L 498.007045 36.316087 
L 501.750755 38.56769 
L 507.36632 41.659735 
L 512.045958 44.010095 
L 515.789668 45.614364 
L 519.533378 46.934333 
L 523.277088 48.007456 
L 529.828581 49.615243 
L 532.636364 50.172322 
L 532.636364 50.172322 
" clip-path="url(#p4691e506ca)" style="fill: none; stroke: #116dc2; stroke-width: 1.5; stroke-linecap: square"/>
   </g>
   <g id="line2d_3">
    <path d="M 25.363636 49.834233 
L 26.299564 49.473738 
L 27.235491 49.031327 
L 28.171419 48.475147 
L 29.107347 47.797108 
L 30.043274 47.024056 
L 30.979202 46.195461 
L 31.915129 45.309613 
L 32.851057 44.296821 
L 33.786984 43.068141 
L 34.722912 41.59141 
L 35.658839 39.900909 
L 36.594767 38.03983 
L 37.530694 36.021965 
L 38.466622 33.84471 
L 39.402549 31.506888 
L 40.338477 29.013805 
L 41.274405 26.394332 
L 42.210332 23.717526 
L 43.14626 21.075035 
L 44.082187 18.546862 
L 45.018115 16.189833 
L 45.954042 14.044824 
L 46.88997 12.122623 
L 47.825897 10.357923 
L 48.761825 8.616168 
L 49.697752 6.824449 
L 50.63368 5.101746 
L 51.569608 3.702325 
L 52.505535 2.816608 
L 53.441463 2.470909 
L 54.37739 2.61638 
L 55.313318 3.199733 
L 56.249245 4.089198 
L 57.185173 5.063951 
L 58.1211 5.987128 
L 59.057028 6.924763 
L 59.992955 8.050278 
L 60.928883 9.502373 
L 61.86481 11.339098 
L 62.800738 13.528371 
L 63.736666 15.948847 
L 64.672593 18.450512 
L 65.608521 20.926778 
L 66.544448 23.329735 
L 67.480376 25.666218 
L 68.416303 27.995709 
L 69.352231 30.383324 
L 70.288158 32.815423 
L 71.224086 35.169026 
L 72.160013 37.291201 
L 73.095941 39.102902 
L 74.031869 40.61366 
L 74.967796 41.880027 
L 75.903724 42.988199 
L 76.839651 44.037198 
L 77.775579 45.083113 
L 78.711506 46.096896 
L 79.647434 47.001971 
L 80.583361 47.755497 
L 81.519289 48.379305 
L 82.455216 48.92259 
L 83.391144 49.420467 
L 84.327071 49.885335 
" clip-path="url(#p4691e506ca)" style="fill: none; stroke: #8a8a8a; stroke-width: 1.5; stroke-linecap: square"/>
   </g>
  </g>
 </g>
 <defs>
  <clipPath id="p4691e506ca">
   <rect x="0" y="-0" width="558" height="54.36"/>
  </clipPath>
 </defs>
</svg>
