<?xml version="1.0" encoding="utf-8" standalone="no"?>
<!DOCTYPE svg PUBLIC "-//W3C//DTD SVG 1.1//EN"
  "http://www.w3.org/Graphics/SVG/1.1/DTD/svg11.dtd">
<svg xmlns:xlink="http://www.w3.org/1999/xlink" width="558pt" height="54.36pt" viewBox="0 0 558 54.36" xmlns="http://www.w3.org/2000/svg" version="1.1">
 <metadata>
  <rdf:RDF xmlns:dc="http://purl.org/dc/elements/1.1/" xmlns:cc="http://creativecommons.org/ns#" xmlns:rdf="http://www.w3.org/1999/02/22-rdf-syntax-ns#">
   <cc:Work>
    <dc:type rdf:resource="http://purl.org/dc/dcmitype/StillImage"/>
    <dc:date>2024-09-14T12:47:22.829680</dc:date>
    <dc:format>image/svg+xml</dc:format>
    <dc:creator>
     <cc:Agent>
      <dc:title>Matplotlib v3.5.2, https://matplotlib.org/</dc:title>
     </cc:Agent>
    </dc:creator>
   </cc:Work>
  </rdf:RDF>
 </metadata>
 <defs>
  <style type="text/css">*{stroke-linejoin: round; stroke-linecap: butt}</style>
 </defs>
 <g id="figure_1">
  <g id="patch_1">
   <path d="M 0 54.36 
L 558 54.36 
L 558 0 
L 0 0 
L 0 54.36 
z
" style="fill: none; opacity: 0"/>
  </g>
  <g id="axes_1">
   <g id="PolyCollection_1">
    <defs>
     <path id="m8f3ea3243d" d="M 382.981191 -2.470909 
L 382.981191 -4.339741 
L 383.952978 -4.517475 
L 384.924765 -4.706026 
L 385.896552 -4.90893 
L 386.868339 -5.130345 
L 387.840125 -5.373881 
L 388.811912 -5.641406 
L 389.783699 -5.932161 
L 390.755486 -6.242466 
L 391.727273 -6.566133 
L 392.69906 -6.895539 
L 393.670846 -7.223128 
L 394.642633 -7.54302 
L 395.61442 -7.85235 
L 396.586207 -8.152053 
L 397.557994 -8.446898 
L 398.529781 -8.744828 
L 399.501567 -9.055754 
L 400.473354 -9.390081 
L 401.445141 -9.75725 
L 402.416928 -10.164494 
L 403.388715 -10.615926 
L 404.360502 -11.11204 
L 405.332288 -11.64969 
L 406.304075 -12.222605 
L 407.275862 -12.822556 
L 408.247649 -13.441105 
L 409.219436 -14.071736 
L 410.191223 -14.711872 
L 411.163009 -15.364153 
L 412.134796 -16.036354 
L 413.106583 -16.739676 
L 414.07837 -17.485649 
L 415.050157 -18.282464 
L 416.021944 -19.13188 
L 416.99373 -20.027782 
L 417.965517 -20.956939 
L 418.937304 -21.901773 
L 419.909091 -22.844201 
L 420.880878 -23.769269 
L 421.852665 -24.66745 
L 422.824451 -25.535019 
L 423.796238 -26.372698 
L 424.768025 -27.183338 
L 425.739812 -27.969653 
L 426.711599 -28.732835 
L 427.683386 -29.472375 
L 428.655172 -30.186962 
L 429.626959 -30.87592 
L 430.598746 -31.540605 
L 431.570533 -32.185285 
L 432.54232 -32.81725 
L 433.514107 -33.4461 
L 434.485893 -34.082291 
L 435.45768 -34.735171 
L 436.429467 -35.410846 
L 437.401254 -36.110365 
L 438.373041 -36.828735 
L 439.344828 -37.555131 
L 440.316614 -38.274354 
L 441.288401 -38.969208 
L 442.260188 -39.623157 
L 443.231975 -40.222537 
L 444.203762 -40.75777 
L 445.175549 -41.223336 
L 446.147335 -41.616711 
L 447.119122 -41.936756 
L 448.090909 -42.18222 
L 449.062696 -42.350955 
L 450.034483 -42.440181 
L 451.00627 -42.447745 
L 451.978056 -42.373967 
L 452.949843 -42.223426 
L 453.92163 -42.006038 
L 454.893417 -41.736967 
L 455.865204 -41.435292 
L 456.836991 -41.121619 
L 457.808777 -40.81515 
L 458.780564 -40.530761 
L 459.752351 -40.276655 
L 460.724138 -40.053074 
L 461.695925 -39.852349 
L 462.667712 -39.660335 
L 463.639498 -39.459016 
L 464.611285 -39.229727 
L 465.583072 -38.956298 
L 466.554859 -38.627378 
L 467.526646 -38.23744 
L 468.498433 -37.786307 
L 469.470219 -37.277481 
L 470.442006 -36.715861 
L 471.413793 -36.105591 
L 472.38558 -35.448637 
L 473.357367 -34.744482 
L 474.329154 -33.990929 
L 475.30094 -33.185701 
L 476.272727 -32.328312 
L 477.244514 -31.421603 
L 478.216301 -30.472472 
L 479.188088 -29.491603 
L 480.159875 -28.492271 
L 481.131661 -27.488612 
L 482.103448 -26.493854 
L 483.075235 -25.518944 
L 484.047022 -24.571811 
L 485.018809 -23.657253 
L 485.990596 -22.777239 
L 486.962382 -21.931352 
L 487.934169 -21.117229 
L 488.905956 -20.330954 
L 489.877743 -19.567561 
L 490.84953 -18.821767 
L 491.821317 -18.088957 
L 492.793103 -17.366246 
L 493.76489 -16.65328 
L 494.736677 -15.952425 
L 495.708464 -15.268182 
L 496.680251 -14.605917 
L 497.652038 -13.970314 
L 498.623824 -13.364081 
L 499.595611 -12.787359 
L 500.567398 -12.238026 
L 501.539185 -11.712723 
L 502.510972 -11.208194 
L 503.482759 -10.722404 
L 504.454545 -10.255049 
L 505.426332 -9.807336 
L 506.398119 -9.381162 
L 507.369906 -8.978078 
L 508.341693 -8.598407 
L 509.31348 -8.240835 
L 510.285266 -7.902569 
L 511.257053 -7.579978 
L 512.22884 -7.269465 
L 513.200627 -6.968289 
L 514.172414 -6.675093 
L 515.144201 -6.390019 
L 516.115987 -6.114414 
L 517.087774 -5.850263 
L 518.059561 -5.599537 
L 519.031348 -5.363641 
L 520.003135 -5.143068 
L 520.974922 -4.937327 
L 521.946708 -4.7451 
L 522.918495 -4.564568 
L 523.890282 -4.393819 
L 524.862069 -4.231262 
L 525.833856 -4.07597 
L 525.833856 -2.470909 
L 525.833856 -2.470909 
L 524.862069 -2.470909 
L 523.890282 -2.470909 
L 522.918495 -2.470909 
L 521.946708 -2.470909 
L 520.974922 -2.470909 
L 520.003135 -2.470909 
L 519.031348 -2.470909 
L 518.059561 -2.470909 
L 517.087774 -2.470909 
L 516.115987 -2.470909 
L 515.144201 -2.470909 
L 514.172414 -2.470909 
L 513.200627 -2.470909 
L 512.22884 -2.470909 
L 511.257053 -2.470909 
L 510.285266 -2.470909 
L 509.31348 -2.470909 
L 508.341693 -2.470909 
L 507.369906 -2.470909 
L 506.398119 -2.470909 
L 505.426332 -2.470909 
L 504.454545 -2.470909 
L 503.482759 -2.470909 
L 502.510972 -2.470909 
L 501.539185 -2.470909 
L 500.567398 -2.470909 
L 499.595611 -2.470909 
L 498.623824 -2.470909 
L 497.652038 -2.470909 
L 496.680251 -2.470909 
L 495.708464 -2.470909 
L 494.736677 -2.470909 
L 493.76489 -2.470909 
L 492.793103 -2.470909 
L 491.821317 -2.470909 
L 490.84953 -2.470909 
L 489.877743 -2.470909 
L 488.905956 -2.470909 
L 487.934169 -2.470909 
L 486.962382 -2.470909 
L 485.990596 -2.470909 
L 485.018809 -2.470909 
L 484.047022 -2.470909 
L 483.075235 -2.470909 
L 482.103448 -2.470909 
L 481.131661 -2.470909 
L 480.159875 -2.470909 
L 479.188088 -2.470909 
L 478.216301 -2.470909 
L 477.244514 -2.470909 
L 476.272727 -2.470909 
L 475.30094 -2.470909 
L 474.329154 -2.470909 
L 473.357367 -2.470909 
L 472.38558 -2.470909 
L 471.413793 -2.470909 
L 470.442006 -2.470909 
L 469.470219 -2.470909 
L 468.498433 -2.470909 
L 467.526646 -2.470909 
L 466.554859 -2.470909 
L 465.583072 -2.470909 
L 464.611285 -2.470909 
L 463.639498 -2.470909 
L 462.667712 -2.470909 
L 461.695925 -2.470909 
L 460.724138 -2.470909 
L 459.752351 -2.470909 
L 458.780564 -2.470909 
L 457.808777 -2.470909 
L 456.836991 -2.470909 
L 455.865204 -2.470909 
L 454.893417 -2.470909 
L 453.92163 -2.470909 
L 452.949843 -2.470909 
L 451.978056 -2.470909 
L 451.00627 -2.470909 
L 450.034483 -2.470909 
L 449.062696 -2.470909 
L 448.090909 -2.470909 
L 447.119122 -2.470909 
L 446.147335 -2.470909 
L 445.175549 -2.470909 
L 444.203762 -2.470909 
L 443.231975 -2.470909 
L 442.260188 -2.470909 
L 441.288401 -2.470909 
L 440.316614 -2.470909 
L 439.344828 -2.470909 
L 438.373041 -2.470909 
L 437.401254 -2.470909 
L 436.429467 -2.470909 
L 435.45768 -2.470909 
L 434.485893 -2.470909 
L 433.514107 -2.470909 
L 432.54232 -2.470909 
L 431.570533 -2.470909 
L 430.598746 -2.470909 
L 429.626959 -2.470909 
L 428.655172 -2.470909 
L 427.683386 -2.470909 
L 426.711599 -2.470909 
L 425.739812 -2.470909 
L 424.768025 -2.470909 
L 423.796238 -2.470909 
L 422.824451 -2.470909 
L 421.852665 -2.470909 
L 420.880878 -2.470909 
L 419.909091 -2.470909 
L 418.937304 -2.470909 
L 417.965517 -2.470909 
L 416.99373 -2.470909 
L 416.021944 -2.470909 
L 415.050157 -2.470909 
L 414.07837 -2.470909 
L 413.106583 -2.470909 
L 412.134796 -2.470909 
L 411.163009 -2.470909 
L 410.191223 -2.470909 
L 409.219436 -2.470909 
L 408.247649 -2.470909 
L 407.275862 -2.470909 
L 406.304075 -2.470909 
L 405.332288 -2.470909 
L 404.360502 -2.470909 
L 403.388715 -2.470909 
L 402.416928 -2.470909 
L 401.445141 -2.470909 
L 400.473354 -2.470909 
L 399.501567 -2.470909 
L 398.529781 -2.470909 
L 397.557994 -2.470909 
L 396.586207 -2.470909 
L 395.61442 -2.470909 
L 394.642633 -2.470909 
L 393.670846 -2.470909 
L 392.69906 -2.470909 
L 391.727273 -2.470909 
L 390.755486 -2.470909 
L 389.783699 -2.470909 
L 388.811912 -2.470909 
L 387.840125 -2.470909 
L 386.868339 -2.470909 
L 385.896552 -2.470909 
L 384.924765 -2.470909 
L 383.952978 -2.470909 
L 382.981191 -2.470909 
z
" style="stroke: #cf1313; stroke-opacity: 0.2"/>
    </defs>
    <g clip-path="url(#pb5dc31452f)">
     <use xlink:href="#m8f3ea3243d" x="0" y="54.36" style="fill: #cf1313; fill-opacity: 0.2; stroke: #cf1313; stroke-opacity: 0.2"/>
    </g>
   </g>
   <g id="PolyCollection_2">
    <defs>
     <path id="m9a00db6358" d="M 390.755486 -2.470909 
L 390.755486 -4.084917 
L 391.727273 -4.241821 
L 392.69906 -4.408737 
L 393.670846 -4.586579 
L 394.642633 -4.776524 
L 395.61442 -4.97971 
L 396.586207 -5.196976 
L 397.557994 -5.428691 
L 398.529781 -5.674702 
L 399.501567 -5.934361 
L 400.473354 -6.206621 
L 401.445141 -6.49019 
L 402.416928 -6.783786 
L 403.388715 -7.086495 
L 404.360502 -7.398213 
L 405.332288 -7.72005 
L 406.304075 -8.054527 
L 407.275862 -8.405415 
L 408.247649 -8.777161 
L 409.219436 -9.174003 
L 410.191223 -9.599016 
L 411.163009 -10.053355 
L 412.134796 -10.535944 
L 413.106583 -11.043654 
L 414.07837 -11.57189 
L 415.050157 -12.115367 
L 416.021944 -12.66887 
L 416.99373 -13.227848 
L 417.965517 -13.788856 
L 418.937304 -14.349878 
L 419.909091 -14.910622 
L 420.880878 -15.472748 
L 421.852665 -16.039927 
L 422.824451 -16.617549 
L 423.796238 -17.211977 
L 424.768025 -17.829353 
L 425.739812 -18.474186 
L 426.711599 -19.148079 
L 427.683386 -19.848995 
L 428.655172 -20.571379 
L 429.626959 -21.307235 
L 430.598746 -22.047975 
L 431.570533 -22.786614 
L 432.54232 -23.519737 
L 433.514107 -24.248681 
L 434.485893 -24.979559 
L 435.45768 -25.722082 
L 436.429467 -26.487479 
L 437.401254 -27.286042 
L 438.373041 -28.124895 
L 439.344828 -29.006432 
L 440.316614 -29.927633 
L 441.288401 -30.880179 
L 442.260188 -31.851191 
L 443.231975 -32.82437 
L 444.203762 -33.781463 
L 445.175549 -34.704046 
L 446.147335 -35.575589 
L 447.119122 -36.383622 
L 448.090909 -37.121573 
L 449.062696 -37.789703 
L 450.034483 -38.394645 
L 451.00627 -38.947373 
L 451.978056 -39.459984 
L 452.949843 -39.942165 
L 453.92163 -40.398447 
L 454.893417 -40.827182 
L 455.865204 -41.221587 
L 456.836991 -41.572451 
L 457.808777 -41.87149 
L 458.780564 -42.114113 
L 459.752351 -42.300594 
L 460.724138 -42.435346 
L 461.695925 -42.524657 
L 462.667712 -42.573827 
L 463.639498 -42.584771 
L 464.611285 -42.554906 
L 465.583072 -42.477628 
L 466.554859 -42.344151 
L 467.526646 -42.146087 
L 468.498433 -41.877976 
L 469.470219 -41.539077 
L 470.442006 -41.133978 
L 471.413793 -40.671907 
L 472.38558 -40.164967 
L 473.357367 -39.62571 
L 474.329154 -39.064636 
L 475.30094 -38.488179 
L 476.272727 -37.897625 
L 477.244514 -37.289222 
L 478.216301 -36.655476 
L 479.188088 -35.987318 
L 480.159875 -35.276664 
L 481.131661 -34.518722 
L 482.103448 -33.713497 
L 483.075235 -32.866147 
L 484.047022 -31.986152 
L 485.018809 -31.085606 
L 485.990596 -30.177163 
L 486.962382 -29.272219 
L 487.934169 -28.379775 
L 488.905956 -27.506144 
L 489.877743 -26.655383 
L 490.84953 -25.830078 
L 491.821317 -25.032103 
L 492.793103 -24.263013 
L 493.76489 -23.523968 
L 494.736677 -22.815287 
L 495.708464 -22.135852 
L 496.680251 -21.482668 
L 497.652038 -20.850815 
L 498.623824 -20.233898 
L 499.595611 -19.624951 
L 500.567398 -19.017596 
L 501.539185 -18.407178 
L 502.510972 -17.7916 
L 503.482759 -17.171657 
L 504.454545 -16.550821 
L 505.426332 -15.934524 
L 506.398119 -15.3291 
L 507.369906 -14.740561 
L 508.341693 -14.173412 
L 509.31348 -13.629688 
L 510.285266 -13.108421 
L 511.257053 -12.605714 
L 512.22884 -12.115481 
L 513.200627 -11.630787 
L 514.172414 -11.145494 
L 515.144201 -10.655809 
L 516.115987 -10.161286 
L 517.087774 -9.664983 
L 518.059561 -9.172744 
L 519.031348 -8.691834 
L 520.003135 -8.229366 
L 520.974922 -7.791019 
L 521.946708 -7.380358 
L 522.918495 -6.998854 
L 523.890282 -6.646418 
L 524.862069 -6.322097 
L 525.833856 -6.02461 
L 526.805643 -5.752511 
L 527.777429 -5.504027 
L 528.749216 -5.276788 
L 529.721003 -5.067701 
L 530.69279 -4.873155 
L 531.664577 -4.68955 
L 532.636364 -4.513961 
L 532.636364 -2.470909 
L 532.636364 -2.470909 
L 531.664577 -2.470909 
L 530.69279 -2.470909 
L 529.721003 -2.470909 
L 528.749216 -2.470909 
L 527.777429 -2.470909 
L 526.805643 -2.470909 
L 525.833856 -2.470909 
L 524.862069 -2.470909 
L 523.890282 -2.470909 
L 522.918495 -2.470909 
L 521.946708 -2.470909 
L 520.974922 -2.470909 
L 520.003135 -2.470909 
L 519.031348 -2.470909 
L 518.059561 -2.470909 
L 517.087774 -2.470909 
L 516.115987 -2.470909 
L 515.144201 -2.470909 
L 514.172414 -2.470909 
L 513.200627 -2.470909 
L 512.22884 -2.470909 
L 511.257053 -2.470909 
L 510.285266 -2.470909 
L 509.31348 -2.470909 
L 508.341693 -2.470909 
L 507.369906 -2.470909 
L 506.398119 -2.470909 
L 505.426332 -2.470909 
L 504.454545 -2.470909 
L 503.482759 -2.470909 
L 502.510972 -2.470909 
L 501.539185 -2.470909 
L 500.567398 -2.470909 
L 499.595611 -2.470909 
L 498.623824 -2.470909 
L 497.652038 -2.470909 
L 496.680251 -2.470909 
L 495.708464 -2.470909 
L 494.736677 -2.470909 
L 493.76489 -2.470909 
L 492.793103 -2.470909 
L 491.821317 -2.470909 
L 490.84953 -2.470909 
L 489.877743 -2.470909 
L 488.905956 -2.470909 
L 487.934169 -2.470909 
L 486.962382 -2.470909 
L 485.990596 -2.470909 
L 485.018809 -2.470909 
L 484.047022 -2.470909 
L 483.075235 -2.470909 
L 482.103448 -2.470909 
L 481.131661 -2.470909 
L 480.159875 -2.470909 
L 479.188088 -2.470909 
L 478.216301 -2.470909 
L 477.244514 -2.470909 
L 476.272727 -2.470909 
L 475.30094 -2.470909 
L 474.329154 -2.470909 
L 473.357367 -2.470909 
L 472.38558 -2.470909 
L 471.413793 -2.470909 
L 470.442006 -2.470909 
L 469.470219 -2.470909 
L 468.498433 -2.470909 
L 467.526646 -2.470909 
L 466.554859 -2.470909 
L 465.583072 -2.470909 
L 464.611285 -2.470909 
L 463.639498 -2.470909 
L 462.667712 -2.470909 
L 461.695925 -2.470909 
L 460.724138 -2.470909 
L 459.752351 -2.470909 
L 458.780564 -2.470909 
L 457.808777 -2.470909 
L 456.836991 -2.470909 
L 455.865204 -2.470909 
L 454.893417 -2.470909 
L 453.92163 -2.470909 
L 452.949843 -2.470909 
L 451.978056 -2.470909 
L 451.00627 -2.470909 
L 450.034483 -2.470909 
L 449.062696 -2.470909 
L 448.090909 -2.470909 
L 447.119122 -2.470909 
L 446.147335 -2.470909 
L 445.175549 -2.470909 
L 444.203762 -2.470909 
L 443.231975 -2.470909 
L 442.260188 -2.470909 
L 441.288401 -2.470909 
L 440.316614 -2.470909 
L 439.344828 -2.470909 
L 438.373041 -2.470909 
L 437.401254 -2.470909 
L 436.429467 -2.470909 
L 435.45768 -2.470909 
L 434.485893 -2.470909 
L 433.514107 -2.470909 
L 432.54232 -2.470909 
L 431.570533 -2.470909 
L 430.598746 -2.470909 
L 429.626959 -2.470909 
L 428.655172 -2.470909 
L 427.683386 -2.470909 
L 426.711599 -2.470909 
L 425.739812 -2.470909 
L 424.768025 -2.470909 
L 423.796238 -2.470909 
L 422.824451 -2.470909 
L 421.852665 -2.470909 
L 420.880878 -2.470909 
L 419.909091 -2.470909 
L 418.937304 -2.470909 
L 417.965517 -2.470909 
L 416.99373 -2.470909 
L 416.021944 -2.470909 
L 415.050157 -2.470909 
L 414.07837 -2.470909 
L 413.106583 -2.470909 
L 412.134796 -2.470909 
L 411.163009 -2.470909 
L 410.191223 -2.470909 
L 409.219436 -2.470909 
L 408.247649 -2.470909 
L 407.275862 -2.470909 
L 406.304075 -2.470909 
L 405.332288 -2.470909 
L 404.360502 -2.470909 
L 403.388715 -2.470909 
L 402.416928 -2.470909 
L 401.445141 -2.470909 
L 400.473354 -2.470909 
L 399.501567 -2.470909 
L 398.529781 -2.470909 
L 397.557994 -2.470909 
L 396.586207 -2.470909 
L 395.61442 -2.470909 
L 394.642633 -2.470909 
L 393.670846 -2.470909 
L 392.69906 -2.470909 
L 391.727273 -2.470909 
L 390.755486 -2.470909 
z
" style="stroke: #116dc2; stroke-opacity: 0.2"/>
    </defs>
    <g clip-path="url(#pb5dc31452f)">
     <use xlink:href="#m9a00db6358" x="0" y="54.36" style="fill: #116dc2; fill-opacity: 0.2; stroke: #116dc2; stroke-opacity: 0.2"/>
    </g>
   </g>
   <g id="PolyCollection_3">
    <defs>
     <path id="ma86a80c294" d="M 25.363636 -2.470909 
L 25.363636 -4.577522 
L 26.335423 -5.097089 
L 27.30721 -5.655354 
L 28.278997 -6.323474 
L 29.250784 -7.240051 
L 30.222571 -8.467382 
L 31.194357 -9.896007 
L 32.166144 -11.358957 
L 33.137931 -12.797449 
L 34.109718 -14.32752 
L 35.081505 -16.196827 
L 36.053292 -18.618532 
L 37.025078 -21.547049 
L 37.996865 -24.701129 
L 38.968652 -27.868003 
L 39.940439 -31.039246 
L 40.912226 -34.198772 
L 41.884013 -37.118446 
L 42.855799 -39.627926 
L 43.827586 -42.030425 
L 44.799373 -44.736454 
L 45.77116 -47.543979 
L 46.742947 -49.803245 
L 47.714734 -51.182687 
L 48.68652 -51.832497 
L 49.658307 -51.889091 
L 50.630094 -51.354478 
L 51.601881 -50.485394 
L 52.573668 -49.709409 
L 53.545455 -49.059257 
L 54.517241 -48.062391 
L 55.489028 -46.265691 
L 56.460815 -43.698793 
L 57.432602 -40.734599 
L 58.404389 -37.659463 
L 59.376176 -34.548076 
L 60.347962 -31.445663 
L 61.319749 -28.429581 
L 62.291536 -25.517208 
L 63.263323 -22.699625 
L 64.23511 -20.068133 
L 65.206897 -17.802599 
L 66.178683 -15.975826 
L 67.15047 -14.436895 
L 68.122257 -12.936507 
L 69.094044 -11.32582 
L 70.065831 -9.667044 
L 71.037618 -8.163322 
L 72.009404 -6.953628 
L 72.981191 -6.037271 
L 73.952978 -5.354592 
L 74.924765 -4.827663 
L 74.924765 -2.470909 
L 74.924765 -2.470909 
L 73.952978 -2.470909 
L 72.981191 -2.470909 
L 72.009404 -2.470909 
L 71.037618 -2.470909 
L 70.065831 -2.470909 
L 69.094044 -2.470909 
L 68.122257 -2.470909 
L 67.15047 -2.470909 
L 66.178683 -2.470909 
L 65.206897 -2.470909 
L 64.23511 -2.470909 
L 63.263323 -2.470909 
L 62.291536 -2.470909 
L 61.319749 -2.470909 
L 60.347962 -2.470909 
L 59.376176 -2.470909 
L 58.404389 -2.470909 
L 57.432602 -2.470909 
L 56.460815 -2.470909 
L 55.489028 -2.470909 
L 54.517241 -2.470909 
L 53.545455 -2.470909 
L 52.573668 -2.470909 
L 51.601881 -2.470909 
L 50.630094 -2.470909 
L 49.658307 -2.470909 
L 48.68652 -2.470909 
L 47.714734 -2.470909 
L 46.742947 -2.470909 
L 45.77116 -2.470909 
L 44.799373 -2.470909 
L 43.827586 -2.470909 
L 42.855799 -2.470909 
L 41.884013 -2.470909 
L 40.912226 -2.470909 
L 39.940439 -2.470909 
L 38.968652 -2.470909 
L 37.996865 -2.470909 
L 37.025078 -2.470909 
L 36.053292 -2.470909 
L 35.081505 -2.470909 
L 34.109718 -2.470909 
L 33.137931 -2.470909 
L 32.166144 -2.470909 
L 31.194357 -2.470909 
L 30.222571 -2.470909 
L 29.250784 -2.470909 
L 28.278997 -2.470909 
L 27.30721 -2.470909 
L 26.335423 -2.470909 
L 25.363636 -2.470909 
z
" style="stroke: #8a8a8a; stroke-opacity: 0.2"/>
    </defs>
    <g clip-path="url(#pb5dc31452f)">
     <use xlink:href="#ma86a80c294" x="0" y="54.36" style="fill: #8a8a8a; fill-opacity: 0.2; stroke: #8a8a8a; stroke-opacity: 0.2"/>
    </g>
   </g>
   <g id="line2d_1">
    <path d="M 382.981191 50.020259 
L 386.868339 49.229655 
L 389.783699 48.427839 
L 401.445141 44.60275 
L 403.388715 43.744074 
L 406.304075 42.137395 
L 410.191223 39.648128 
L 413.106583 37.620324 
L 415.050157 36.077536 
L 417.965517 33.403061 
L 422.824451 28.824981 
L 425.739812 26.390347 
L 428.655172 24.173038 
L 432.54232 21.54275 
L 436.429467 18.949154 
L 443.231975 14.137463 
L 445.175549 13.136664 
L 447.119122 12.423244 
L 449.062696 12.009045 
L 451.00627 11.912255 
L 452.949843 12.136574 
L 454.893417 12.623033 
L 459.752351 14.083345 
L 466.554859 15.732622 
L 468.498433 16.573693 
L 470.442006 17.644139 
L 472.38558 18.911363 
L 474.329154 20.369071 
L 476.272727 22.031688 
L 479.188088 24.868397 
L 484.047022 29.788189 
L 486.962382 32.428648 
L 489.877743 34.792439 
L 494.736677 38.407575 
L 497.652038 40.389686 
L 500.567398 42.121974 
L 504.454545 44.104951 
L 507.369906 45.381922 
L 510.285266 46.457431 
L 515.144201 47.969981 
L 519.031348 48.996359 
L 522.918495 49.795432 
L 525.833856 50.28403 
L 525.833856 50.28403 
" clip-path="url(#pb5dc31452f)" style="fill: none; stroke: #cf1313; stroke-width: 1.5; stroke-linecap: square"/>
   </g>
   <g id="line2d_2">
    <path d="M 390.755486 50.275083 
L 395.61442 49.38029 
L 399.501567 48.425639 
L 404.360502 46.961787 
L 408.247649 45.582839 
L 411.163009 44.306645 
L 414.07837 42.78811 
L 421.852665 38.320073 
L 425.739812 35.885814 
L 428.655172 33.788621 
L 437.401254 27.073958 
L 440.316614 24.432367 
L 446.147335 18.784411 
L 448.090909 17.238427 
L 450.034483 15.965355 
L 452.949843 14.417835 
L 455.865204 13.138413 
L 457.808777 12.48851 
L 459.752351 12.059406 
L 461.695925 11.835343 
L 463.639498 11.775229 
L 465.583072 11.882372 
L 467.526646 12.213913 
L 469.470219 12.820923 
L 471.413793 13.688093 
L 474.329154 15.295364 
L 478.216301 17.704524 
L 481.131661 19.841278 
L 484.047022 22.373848 
L 490.84953 28.529922 
L 493.76489 30.836032 
L 496.680251 32.877332 
L 504.454545 37.809179 
L 508.341693 40.186588 
L 512.22884 42.244519 
L 521.946708 46.979642 
L 524.862069 48.037903 
L 527.777429 48.855973 
L 531.664577 49.67045 
L 532.636364 49.846039 
L 532.636364 49.846039 
" clip-path="url(#pb5dc31452f)" style="fill: none; stroke: #116dc2; stroke-width: 1.5; stroke-linecap: square"/>
   </g>
   <g id="line2d_3">
    <path d="M 25.363636 49.782478 
L 26.335423 49.262911 
L 27.30721 48.704646 
L 28.278997 48.036526 
L 29.250784 47.119949 
L 30.222571 45.892618 
L 31.194357 44.463993 
L 32.166144 43.001043 
L 33.137931 41.562551 
L 34.109718 40.03248 
L 35.081505 38.163173 
L 36.053292 35.741468 
L 37.025078 32.812951 
L 37.996865 29.658871 
L 38.968652 26.491997 
L 39.940439 23.320754 
L 40.912226 20.161228 
L 41.884013 17.241554 
L 42.855799 14.732074 
L 43.827586 12.329575 
L 44.799373 9.623546 
L 45.77116 6.816021 
L 46.742947 4.556755 
L 47.714734 3.177313 
L 48.68652 2.527503 
L 49.658307 2.470909 
L 50.630094 3.005522 
L 51.601881 3.874606 
L 52.573668 4.650591 
L 53.545455 5.300743 
L 54.517241 6.297609 
L 55.489028 8.094309 
L 56.460815 10.661207 
L 57.432602 13.625401 
L 58.404389 16.700537 
L 59.376176 19.811924 
L 60.347962 22.914337 
L 61.319749 25.930419 
L 62.291536 28.842792 
L 63.263323 31.660375 
L 64.23511 34.291867 
L 65.206897 36.557401 
L 66.178683 38.384174 
L 67.15047 39.923105 
L 68.122257 41.423493 
L 69.094044 43.03418 
L 70.065831 44.692956 
L 71.037618 46.196678 
L 72.009404 47.406372 
L 72.981191 48.322729 
L 73.952978 49.005408 
L 74.924765 49.532337 
" clip-path="url(#pb5dc31452f)" style="fill: none; stroke: #8a8a8a; stroke-width: 1.5; stroke-linecap: square"/>
   </g>
  </g>
 </g>
 <defs>
  <clipPath id="pb5dc31452f">
   <rect x="0" y="-0" width="558" height="54.36"/>
  </clipPath>
 </defs>
</svg>
