<?xml version="1.0" encoding="utf-8" standalone="no"?>
<!DOCTYPE svg PUBLIC "-//W3C//DTD SVG 1.1//EN"
  "http://www.w3.org/Graphics/SVG/1.1/DTD/svg11.dtd">
<svg xmlns:xlink="http://www.w3.org/1999/xlink" width="558pt" height="54.36pt" viewBox="0 0 558 54.36" xmlns="http://www.w3.org/2000/svg" version="1.1">
 <metadata>
  <rdf:RDF xmlns:dc="http://purl.org/dc/elements/1.1/" xmlns:cc="http://creativecommons.org/ns#" xmlns:rdf="http://www.w3.org/1999/02/22-rdf-syntax-ns#">
   <cc:Work>
    <dc:type rdf:resource="http://purl.org/dc/dcmitype/StillImage"/>
    <dc:date>2024-09-15T09:31:14.931919</dc:date>
    <dc:format>image/svg+xml</dc:format>
    <dc:creator>
     <cc:Agent>
      <dc:title>Matplotlib v3.5.2, https://matplotlib.org/</dc:title>
     </cc:Agent>
    </dc:creator>
   </cc:Work>
  </rdf:RDF>
 </metadata>
 <defs>
  <style type="text/css">*{stroke-linejoin: round; stroke-linecap: butt}</style>
 </defs>
 <g id="figure_1">
  <g id="patch_1">
   <path d="M 0 54.36 
L 558 54.36 
L 558 0 
L 0 0 
L 0 54.36 
z
" style="fill: none; opacity: 0"/>
  </g>
  <g id="axes_1">
   <g id="PolyCollection_1">
    <defs>
     <path id="m585862c716" d="M 380.357553 -2.470909 
L 380.357553 -3.946551 
L 381.327481 -4.035176 
L 382.29741 -4.13846 
L 383.267339 -4.261957 
L 384.237268 -4.410306 
L 385.207196 -4.586804 
L 386.177125 -4.793197 
L 387.147054 -5.029721 
L 388.116982 -5.295341 
L 389.086911 -5.588086 
L 390.05684 -5.905359 
L 391.026769 -6.244155 
L 391.996697 -6.601209 
L 392.966626 -6.973172 
L 393.936555 -7.356917 
L 394.906484 -7.750026 
L 395.876412 -8.151376 
L 396.846341 -8.561667 
L 397.81627 -8.98367 
L 398.786199 -9.422026 
L 399.756127 -9.882555 
L 400.726056 -10.371174 
L 401.695985 -10.892675 
L 402.665913 -11.449679 
L 403.635842 -12.042061 
L 404.605771 -12.666978 
L 405.5757 -13.319496 
L 406.545628 -13.99356 
L 407.515557 -14.683038 
L 408.485486 -15.382535 
L 409.455415 -16.08787 
L 410.425343 -16.796269 
L 411.395272 -17.506412 
L 412.365201 -18.218503 
L 413.335129 -18.934371 
L 414.305058 -19.65751 
L 415.274987 -20.392826 
L 416.244916 -21.145976 
L 417.214844 -21.922287 
L 418.184773 -22.725492 
L 419.154702 -23.556615 
L 420.124631 -24.413361 
L 421.094559 -25.290184 
L 422.064488 -26.17899 
L 423.034417 -27.070237 
L 424.004346 -27.954133 
L 424.974274 -28.821667 
L 425.944203 -29.665394 
L 426.914132 -30.48 
L 427.88406 -31.262747 
L 428.853989 -32.013812 
L 429.823918 -32.736419 
L 430.793847 -33.43657 
L 431.763775 -34.122176 
L 432.733704 -34.801573 
L 433.703633 -35.481639 
L 434.673562 -36.165956 
L 435.64349 -36.853538 
L 436.613419 -37.538521 
L 437.583348 -38.210909 
L 438.553277 -38.858176 
L 439.523205 -39.467241 
L 440.493134 -40.026333 
L 441.463063 -40.526339 
L 442.432991 -40.961482 
L 443.40292 -41.329381 
L 444.372849 -41.63069 
L 445.342778 -41.868527 
L 446.312706 -42.047845 
L 447.282635 -42.174784 
L 448.252564 -42.255975 
L 449.222493 -42.29774 
L 450.192421 -42.305199 
L 451.16235 -42.28142 
L 452.132279 -42.226801 
L 453.102208 -42.138934 
L 454.072136 -42.013064 
L 455.042065 -41.843159 
L 456.011994 -41.623389 
L 456.981922 -41.349745 
L 457.951851 -41.021461 
L 458.92178 -40.641966 
L 459.891709 -40.219129 
L 460.861637 -39.764682 
L 461.831566 -39.292783 
L 462.801495 -38.817846 
L 463.771424 -38.351923 
L 464.741352 -37.902088 
L 465.711281 -37.468322 
L 466.68121 -37.042394 
L 467.651139 -36.608109 
L 468.621067 -36.14308 
L 469.590996 -35.621972 
L 470.560925 -35.020857 
L 471.530853 -34.322018 
L 472.500782 -33.518263 
L 473.470711 -32.61566 
L 474.44064 -31.633772 
L 475.410568 -30.602984 
L 476.380497 -29.559269 
L 477.350426 -28.537576 
L 478.320355 -27.565487 
L 479.290283 -26.658772 
L 480.260212 -25.819916 
L 481.230141 -25.039742 
L 482.20007 -24.301402 
L 483.169998 -23.585376 
L 484.139927 -22.874061 
L 485.109856 -22.154842 
L 486.079784 -21.421199 
L 487.049713 -20.672038 
L 488.019642 -19.90993 
L 488.989571 -19.139137 
L 489.959499 -18.364125 
L 490.929428 -17.588943 
L 491.899357 -16.817336 
L 492.869286 -16.053208 
L 493.839214 -15.30094 
L 494.809143 -14.565273 
L 495.779072 -13.850777 
L 496.749001 -13.161212 
L 497.718929 -12.49914 
L 498.688858 -11.865999 
L 499.658787 -11.262584 
L 500.628715 -10.689625 
L 501.598644 -10.148103 
L 502.568573 -9.639083 
L 503.538502 -9.163119 
L 504.50843 -8.719504 
L 505.478359 -8.305795 
L 506.448288 -7.917893 
L 507.418217 -7.550797 
L 508.388145 -7.199814 
L 509.358074 -6.861849 
L 510.328003 -6.536331 
L 511.297932 -6.225411 
L 512.26786 -5.933347 
L 513.237789 -5.665205 
L 514.207718 -5.425251 
L 515.177646 -5.215501 
L 516.147575 -5.03485 
L 517.117504 -4.879027 
L 518.087433 -4.741385 
L 519.057361 -4.6143 
L 520.02729 -4.490766 
L 520.997219 -4.365726 
L 520.997219 -2.470909 
L 520.997219 -2.470909 
L 520.02729 -2.470909 
L 519.057361 -2.470909 
L 518.087433 -2.470909 
L 517.117504 -2.470909 
L 516.147575 -2.470909 
L 515.177646 -2.470909 
L 514.207718 -2.470909 
L 513.237789 -2.470909 
L 512.26786 -2.470909 
L 511.297932 -2.470909 
L 510.328003 -2.470909 
L 509.358074 -2.470909 
L 508.388145 -2.470909 
L 507.418217 -2.470909 
L 506.448288 -2.470909 
L 505.478359 -2.470909 
L 504.50843 -2.470909 
L 503.538502 -2.470909 
L 502.568573 -2.470909 
L 501.598644 -2.470909 
L 500.628715 -2.470909 
L 499.658787 -2.470909 
L 498.688858 -2.470909 
L 497.718929 -2.470909 
L 496.749001 -2.470909 
L 495.779072 -2.470909 
L 494.809143 -2.470909 
L 493.839214 -2.470909 
L 492.869286 -2.470909 
L 491.899357 -2.470909 
L 490.929428 -2.470909 
L 489.959499 -2.470909 
L 488.989571 -2.470909 
L 488.019642 -2.470909 
L 487.049713 -2.470909 
L 486.079784 -2.470909 
L 485.109856 -2.470909 
L 484.139927 -2.470909 
L 483.169998 -2.470909 
L 482.20007 -2.470909 
L 481.230141 -2.470909 
L 480.260212 -2.470909 
L 479.290283 -2.470909 
L 478.320355 -2.470909 
L 477.350426 -2.470909 
L 476.380497 -2.470909 
L 475.410568 -2.470909 
L 474.44064 -2.470909 
L 473.470711 -2.470909 
L 472.500782 -2.470909 
L 471.530853 -2.470909 
L 470.560925 -2.470909 
L 469.590996 -2.470909 
L 468.621067 -2.470909 
L 467.651139 -2.470909 
L 466.68121 -2.470909 
L 465.711281 -2.470909 
L 464.741352 -2.470909 
L 463.771424 -2.470909 
L 462.801495 -2.470909 
L 461.831566 -2.470909 
L 460.861637 -2.470909 
L 459.891709 -2.470909 
L 458.92178 -2.470909 
L 457.951851 -2.470909 
L 456.981922 -2.470909 
L 456.011994 -2.470909 
L 455.042065 -2.470909 
L 454.072136 -2.470909 
L 453.102208 -2.470909 
L 452.132279 -2.470909 
L 451.16235 -2.470909 
L 450.192421 -2.470909 
L 449.222493 -2.470909 
L 448.252564 -2.470909 
L 447.282635 -2.470909 
L 446.312706 -2.470909 
L 445.342778 -2.470909 
L 444.372849 -2.470909 
L 443.40292 -2.470909 
L 442.432991 -2.470909 
L 441.463063 -2.470909 
L 440.493134 -2.470909 
L 439.523205 -2.470909 
L 438.553277 -2.470909 
L 437.583348 -2.470909 
L 436.613419 -2.470909 
L 435.64349 -2.470909 
L 434.673562 -2.470909 
L 433.703633 -2.470909 
L 432.733704 -2.470909 
L 431.763775 -2.470909 
L 430.793847 -2.470909 
L 429.823918 -2.470909 
L 428.853989 -2.470909 
L 427.88406 -2.470909 
L 426.914132 -2.470909 
L 425.944203 -2.470909 
L 424.974274 -2.470909 
L 424.004346 -2.470909 
L 423.034417 -2.470909 
L 422.064488 -2.470909 
L 421.094559 -2.470909 
L 420.124631 -2.470909 
L 419.154702 -2.470909 
L 418.184773 -2.470909 
L 417.214844 -2.470909 
L 416.244916 -2.470909 
L 415.274987 -2.470909 
L 414.305058 -2.470909 
L 413.335129 -2.470909 
L 412.365201 -2.470909 
L 411.395272 -2.470909 
L 410.425343 -2.470909 
L 409.455415 -2.470909 
L 408.485486 -2.470909 
L 407.515557 -2.470909 
L 406.545628 -2.470909 
L 405.5757 -2.470909 
L 404.605771 -2.470909 
L 403.635842 -2.470909 
L 402.665913 -2.470909 
L 401.695985 -2.470909 
L 400.726056 -2.470909 
L 399.756127 -2.470909 
L 398.786199 -2.470909 
L 397.81627 -2.470909 
L 396.846341 -2.470909 
L 395.876412 -2.470909 
L 394.906484 -2.470909 
L 393.936555 -2.470909 
L 392.966626 -2.470909 
L 391.996697 -2.470909 
L 391.026769 -2.470909 
L 390.05684 -2.470909 
L 389.086911 -2.470909 
L 388.116982 -2.470909 
L 387.147054 -2.470909 
L 386.177125 -2.470909 
L 385.207196 -2.470909 
L 384.237268 -2.470909 
L 383.267339 -2.470909 
L 382.29741 -2.470909 
L 381.327481 -2.470909 
L 380.357553 -2.470909 
z
" style="stroke: #cf1313; stroke-opacity: 0.2"/>
    </defs>
    <g clip-path="url(#p484e1d739a)">
     <use xlink:href="#m585862c716" x="0" y="54.36" style="fill: #cf1313; fill-opacity: 0.2; stroke: #cf1313; stroke-opacity: 0.2"/>
    </g>
   </g>
   <g id="PolyCollection_2">
    <defs>
     <path id="ma0e6423d39" d="M 388.116982 -2.470909 
L 388.116982 -4.250702 
L 389.086911 -4.3922 
L 390.05684 -4.538566 
L 391.026769 -4.690034 
L 391.996697 -4.846707 
L 392.966626 -5.00861 
L 393.936555 -5.175899 
L 394.906484 -5.349169 
L 395.876412 -5.529791 
L 396.846341 -5.720127 
L 397.81627 -5.92352 
L 398.786199 -6.144005 
L 399.756127 -6.385801 
L 400.726056 -6.652728 
L 401.695985 -6.947758 
L 402.665913 -7.272827 
L 403.635842 -7.628948 
L 404.605771 -8.016523 
L 405.5757 -8.435662 
L 406.545628 -8.886346 
L 407.515557 -9.368372 
L 408.485486 -9.881102 
L 409.455415 -10.42318 
L 410.425343 -10.992322 
L 411.395272 -11.585253 
L 412.365201 -12.197802 
L 413.335129 -12.825133 
L 414.305058 -13.462129 
L 415.274987 -14.103966 
L 416.244916 -14.746873 
L 417.214844 -15.388978 
L 418.184773 -16.030985 
L 419.154702 -16.676385 
L 420.124631 -17.330962 
L 421.094559 -18.001575 
L 422.064488 -18.69449 
L 423.034417 -19.41373 
L 424.004346 -20.159962 
L 424.974274 -20.930296 
L 425.944203 -21.719115 
L 426.914132 -22.519718 
L 427.88406 -23.326344 
L 428.853989 -24.136001 
L 429.823918 -24.949544 
L 430.793847 -25.771596 
L 431.763775 -26.609207 
L 432.733704 -27.469489 
L 433.703633 -28.356861 
L 434.673562 -29.270709 
L 435.64349 -30.204278 
L 436.613419 -31.145236 
L 437.583348 -32.077852 
L 438.553277 -32.986144 
L 439.523205 -33.857043 
L 440.493134 -34.682589 
L 441.463063 -35.460572 
L 442.432991 -36.193546 
L 443.40292 -36.88668 
L 444.372849 -37.545229 
L 445.342778 -38.172398 
L 446.312706 -38.768145 
L 447.282635 -39.329088 
L 448.252564 -39.849335 
L 449.222493 -40.32184 
L 450.192421 -40.739849 
L 451.16235 -41.098122 
L 452.132279 -41.393767 
L 453.102208 -41.626708 
L 454.072136 -41.799833 
L 455.042065 -41.91888 
L 456.011994 -41.992041 
L 456.981922 -42.029213 
L 457.951851 -42.040921 
L 458.92178 -42.036986 
L 459.891709 -42.025191 
L 460.861637 -42.01023 
L 461.831566 -41.993199 
L 462.801495 -41.97173 
L 463.771424 -41.940682 
L 464.741352 -41.893104 
L 465.711281 -41.82115 
L 466.68121 -41.716678 
L 467.651139 -41.571432 
L 468.621067 -41.376974 
L 469.590996 -41.124652 
L 470.560925 -40.805917 
L 471.530853 -40.413201 
L 472.500782 -39.94125 
L 473.470711 -39.388629 
L 474.44064 -38.758868 
L 475.410568 -38.0608 
L 476.380497 -37.307785 
L 477.350426 -36.515862 
L 478.320355 -35.701242 
L 479.290283 -34.877791 
L 480.260212 -34.055219 
L 481.230141 -33.238485 
L 482.20007 -32.428532 
L 483.169998 -31.624002 
L 484.139927 -30.823271 
L 485.109856 -30.026049 
L 486.079784 -29.234043 
L 487.049713 -28.450531 
L 488.019642 -27.679141 
L 488.989571 -26.922358 
L 489.959499 -26.180359 
L 490.929428 -25.450559 
L 491.899357 -24.72803 
L 492.869286 -24.006645 
L 493.839214 -23.280596 
L 494.809143 -22.545891 
L 495.779072 -21.801409 
L 496.749001 -21.049271 
L 497.718929 -20.294435 
L 498.688858 -19.543632 
L 499.658787 -18.80393 
L 500.628715 -18.081285 
L 501.598644 -17.379437 
L 502.568573 -16.699378 
L 503.538502 -16.03945 
L 504.50843 -15.395984 
L 505.478359 -14.764273 
L 506.448288 -14.139675 
L 507.418217 -13.51866 
L 508.388145 -12.899682 
L 509.358074 -12.283762 
L 510.328003 -11.674687 
L 511.297932 -11.078715 
L 512.26786 -10.503751 
L 513.237789 -9.958048 
L 514.207718 -9.448678 
L 515.177646 -8.980103 
L 516.147575 -8.553241 
L 517.117504 -8.165287 
L 518.087433 -7.810373 
L 519.057361 -7.480898 
L 520.02729 -7.169146 
L 520.997219 -6.868779 
L 521.967148 -6.575807 
L 522.937076 -6.28886 
L 523.907005 -6.008771 
L 524.876934 -5.737714 
L 525.846863 -5.478188 
L 526.816791 -5.232191 
L 527.78672 -5.000767 
L 528.756649 -4.783991 
L 529.726577 -4.581283 
L 530.696506 -4.39188 
L 531.666435 -4.215245 
L 532.636364 -4.051276 
L 532.636364 -2.470909 
L 532.636364 -2.470909 
L 531.666435 -2.470909 
L 530.696506 -2.470909 
L 529.726577 -2.470909 
L 528.756649 -2.470909 
L 527.78672 -2.470909 
L 526.816791 -2.470909 
L 525.846863 -2.470909 
L 524.876934 -2.470909 
L 523.907005 -2.470909 
L 522.937076 -2.470909 
L 521.967148 -2.470909 
L 520.997219 -2.470909 
L 520.02729 -2.470909 
L 519.057361 -2.470909 
L 518.087433 -2.470909 
L 517.117504 -2.470909 
L 516.147575 -2.470909 
L 515.177646 -2.470909 
L 514.207718 -2.470909 
L 513.237789 -2.470909 
L 512.26786 -2.470909 
L 511.297932 -2.470909 
L 510.328003 -2.470909 
L 509.358074 -2.470909 
L 508.388145 -2.470909 
L 507.418217 -2.470909 
L 506.448288 -2.470909 
L 505.478359 -2.470909 
L 504.50843 -2.470909 
L 503.538502 -2.470909 
L 502.568573 -2.470909 
L 501.598644 -2.470909 
L 500.628715 -2.470909 
L 499.658787 -2.470909 
L 498.688858 -2.470909 
L 497.718929 -2.470909 
L 496.749001 -2.470909 
L 495.779072 -2.470909 
L 494.809143 -2.470909 
L 493.839214 -2.470909 
L 492.869286 -2.470909 
L 491.899357 -2.470909 
L 490.929428 -2.470909 
L 489.959499 -2.470909 
L 488.989571 -2.470909 
L 488.019642 -2.470909 
L 487.049713 -2.470909 
L 486.079784 -2.470909 
L 485.109856 -2.470909 
L 484.139927 -2.470909 
L 483.169998 -2.470909 
L 482.20007 -2.470909 
L 481.230141 -2.470909 
L 480.260212 -2.470909 
L 479.290283 -2.470909 
L 478.320355 -2.470909 
L 477.350426 -2.470909 
L 476.380497 -2.470909 
L 475.410568 -2.470909 
L 474.44064 -2.470909 
L 473.470711 -2.470909 
L 472.500782 -2.470909 
L 471.530853 -2.470909 
L 470.560925 -2.470909 
L 469.590996 -2.470909 
L 468.621067 -2.470909 
L 467.651139 -2.470909 
L 466.68121 -2.470909 
L 465.711281 -2.470909 
L 464.741352 -2.470909 
L 463.771424 -2.470909 
L 462.801495 -2.470909 
L 461.831566 -2.470909 
L 460.861637 -2.470909 
L 459.891709 -2.470909 
L 458.92178 -2.470909 
L 457.951851 -2.470909 
L 456.981922 -2.470909 
L 456.011994 -2.470909 
L 455.042065 -2.470909 
L 454.072136 -2.470909 
L 453.102208 -2.470909 
L 452.132279 -2.470909 
L 451.16235 -2.470909 
L 450.192421 -2.470909 
L 449.222493 -2.470909 
L 448.252564 -2.470909 
L 447.282635 -2.470909 
L 446.312706 -2.470909 
L 445.342778 -2.470909 
L 444.372849 -2.470909 
L 443.40292 -2.470909 
L 442.432991 -2.470909 
L 441.463063 -2.470909 
L 440.493134 -2.470909 
L 439.523205 -2.470909 
L 438.553277 -2.470909 
L 437.583348 -2.470909 
L 436.613419 -2.470909 
L 435.64349 -2.470909 
L 434.673562 -2.470909 
L 433.703633 -2.470909 
L 432.733704 -2.470909 
L 431.763775 -2.470909 
L 430.793847 -2.470909 
L 429.823918 -2.470909 
L 428.853989 -2.470909 
L 427.88406 -2.470909 
L 426.914132 -2.470909 
L 425.944203 -2.470909 
L 424.974274 -2.470909 
L 424.004346 -2.470909 
L 423.034417 -2.470909 
L 422.064488 -2.470909 
L 421.094559 -2.470909 
L 420.124631 -2.470909 
L 419.154702 -2.470909 
L 418.184773 -2.470909 
L 417.214844 -2.470909 
L 416.244916 -2.470909 
L 415.274987 -2.470909 
L 414.305058 -2.470909 
L 413.335129 -2.470909 
L 412.365201 -2.470909 
L 411.395272 -2.470909 
L 410.425343 -2.470909 
L 409.455415 -2.470909 
L 408.485486 -2.470909 
L 407.515557 -2.470909 
L 406.545628 -2.470909 
L 405.5757 -2.470909 
L 404.605771 -2.470909 
L 403.635842 -2.470909 
L 402.665913 -2.470909 
L 401.695985 -2.470909 
L 400.726056 -2.470909 
L 399.756127 -2.470909 
L 398.786199 -2.470909 
L 397.81627 -2.470909 
L 396.846341 -2.470909 
L 395.876412 -2.470909 
L 394.906484 -2.470909 
L 393.936555 -2.470909 
L 392.966626 -2.470909 
L 391.996697 -2.470909 
L 391.026769 -2.470909 
L 390.05684 -2.470909 
L 389.086911 -2.470909 
L 388.116982 -2.470909 
z
" style="stroke: #116dc2; stroke-opacity: 0.2"/>
    </defs>
    <g clip-path="url(#p484e1d739a)">
     <use xlink:href="#ma0e6423d39" x="0" y="54.36" style="fill: #116dc2; fill-opacity: 0.2; stroke: #116dc2; stroke-opacity: 0.2"/>
    </g>
   </g>
   <g id="PolyCollection_3">
    <defs>
     <path id="m758643d61f" d="M 25.363636 -2.470909 
L 25.363636 -5.473767 
L 26.333565 -5.955128 
L 27.303494 -6.599634 
L 28.273423 -7.607865 
L 29.243351 -8.840658 
L 30.21328 -10.021837 
L 31.183209 -11.18619 
L 32.153137 -12.693989 
L 33.123066 -14.768405 
L 34.092995 -17.262239 
L 35.062924 -19.898228 
L 36.032852 -22.527343 
L 37.002781 -25.105231 
L 37.97271 -27.587512 
L 38.942639 -29.988535 
L 39.912567 -32.46972 
L 40.882496 -35.167229 
L 41.852425 -37.903002 
L 42.822354 -40.341615 
L 43.792282 -42.463567 
L 44.762211 -44.517615 
L 45.73214 -46.558789 
L 46.702068 -48.408128 
L 47.671997 -49.913558 
L 48.641926 -51.026044 
L 49.611855 -51.745854 
L 50.581783 -51.889091 
L 51.551712 -51.038177 
L 52.521641 -49.119059 
L 53.49157 -46.665778 
L 54.461498 -44.181108 
L 55.431427 -41.761281 
L 56.401356 -39.415764 
L 57.371285 -37.104277 
L 58.341213 -34.649794 
L 59.311142 -32.028243 
L 60.281071 -29.306321 
L 61.250999 -26.364573 
L 62.220928 -23.180585 
L 63.190857 -20.069359 
L 64.160786 -17.33615 
L 65.130714 -15.02343 
L 66.100643 -13.079123 
L 67.070572 -11.465783 
L 68.040501 -10.102979 
L 69.010429 -8.894134 
L 69.980358 -7.816488 
L 70.950287 -6.900409 
L 71.920216 -6.131649 
L 72.890144 -5.460716 
L 73.860073 -4.870553 
L 73.860073 -2.470909 
L 73.860073 -2.470909 
L 72.890144 -2.470909 
L 71.920216 -2.470909 
L 70.950287 -2.470909 
L 69.980358 -2.470909 
L 69.010429 -2.470909 
L 68.040501 -2.470909 
L 67.070572 -2.470909 
L 66.100643 -2.470909 
L 65.130714 -2.470909 
L 64.160786 -2.470909 
L 63.190857 -2.470909 
L 62.220928 -2.470909 
L 61.250999 -2.470909 
L 60.281071 -2.470909 
L 59.311142 -2.470909 
L 58.341213 -2.470909 
L 57.371285 -2.470909 
L 56.401356 -2.470909 
L 55.431427 -2.470909 
L 54.461498 -2.470909 
L 53.49157 -2.470909 
L 52.521641 -2.470909 
L 51.551712 -2.470909 
L 50.581783 -2.470909 
L 49.611855 -2.470909 
L 48.641926 -2.470909 
L 47.671997 -2.470909 
L 46.702068 -2.470909 
L 45.73214 -2.470909 
L 44.762211 -2.470909 
L 43.792282 -2.470909 
L 42.822354 -2.470909 
L 41.852425 -2.470909 
L 40.882496 -2.470909 
L 39.912567 -2.470909 
L 38.942639 -2.470909 
L 37.97271 -2.470909 
L 37.002781 -2.470909 
L 36.032852 -2.470909 
L 35.062924 -2.470909 
L 34.092995 -2.470909 
L 33.123066 -2.470909 
L 32.153137 -2.470909 
L 31.183209 -2.470909 
L 30.21328 -2.470909 
L 29.243351 -2.470909 
L 28.273423 -2.470909 
L 27.303494 -2.470909 
L 26.333565 -2.470909 
L 25.363636 -2.470909 
z
" style="stroke: #8a8a8a; stroke-opacity: 0.2"/>
    </defs>
    <g clip-path="url(#p484e1d739a)">
     <use xlink:href="#m758643d61f" x="0" y="54.36" style="fill: #8a8a8a; fill-opacity: 0.2; stroke: #8a8a8a; stroke-opacity: 0.2"/>
    </g>
   </g>
   <g id="line2d_1">
    <path d="M 380.357553 50.413449 
L 384.237268 49.949694 
L 387.147054 49.330279 
L 390.05684 48.454641 
L 393.936555 47.003083 
L 398.786199 44.937974 
L 401.695985 43.467325 
L 404.605771 41.693022 
L 408.485486 38.977465 
L 416.244916 33.214024 
L 419.154702 30.803385 
L 428.853989 22.346188 
L 432.733704 19.558427 
L 439.523205 14.892759 
L 441.463063 13.833661 
L 443.40292 13.030619 
L 445.342778 12.491473 
L 447.282635 12.185216 
L 449.222493 12.06226 
L 452.132279 12.133199 
L 454.072136 12.346936 
L 456.011994 12.736611 
L 457.951851 13.338539 
L 460.861637 14.595318 
L 466.68121 17.317606 
L 469.590996 18.738028 
L 471.530853 20.037982 
L 473.470711 21.74434 
L 480.260212 28.540084 
L 483.169998 30.774624 
L 488.019642 34.45007 
L 495.779072 40.509223 
L 498.688858 42.494001 
L 501.598644 44.211897 
L 504.50843 45.640496 
L 507.418217 46.809203 
L 511.297932 48.134589 
L 514.207718 48.934749 
L 517.117504 49.480973 
L 520.997219 49.994274 
L 520.997219 49.994274 
" clip-path="url(#p484e1d739a)" style="fill: none; stroke: #cf1313; stroke-width: 1.5; stroke-linecap: square"/>
   </g>
   <g id="line2d_2">
    <path d="M 388.116982 50.109298 
L 394.906484 49.010831 
L 398.786199 48.215995 
L 401.695985 47.412242 
L 404.605771 46.343477 
L 407.515557 44.991628 
L 410.425343 43.367678 
L 414.305058 40.897871 
L 422.064488 35.66551 
L 424.974274 33.429704 
L 430.793847 28.588404 
L 433.703633 26.003139 
L 440.493134 19.677411 
L 443.40292 17.47332 
L 446.312706 15.591855 
L 448.252564 14.510665 
L 450.192421 13.620151 
L 452.132279 12.966233 
L 454.072136 12.560167 
L 456.011994 12.367959 
L 458.92178 12.323014 
L 464.741352 12.466896 
L 467.651139 12.788568 
L 469.590996 13.235348 
L 471.530853 13.946799 
L 473.470711 14.971371 
L 475.410568 16.2992 
L 478.320355 18.658758 
L 486.079784 25.125957 
L 490.929428 28.909441 
L 498.688858 34.816368 
L 502.568573 37.660622 
L 507.418217 40.84134 
L 512.26786 43.856249 
L 515.177646 45.379897 
L 518.087433 46.549627 
L 521.967148 47.784193 
L 526.816791 49.127809 
L 530.696506 49.96812 
L 532.636364 50.308724 
L 532.636364 50.308724 
" clip-path="url(#p484e1d739a)" style="fill: none; stroke: #116dc2; stroke-width: 1.5; stroke-linecap: square"/>
   </g>
   <g id="line2d_3">
    <path d="M 25.363636 48.886233 
L 26.333565 48.404872 
L 27.303494 47.760366 
L 28.273423 46.752135 
L 29.243351 45.519342 
L 30.21328 44.338163 
L 31.183209 43.17381 
L 32.153137 41.666011 
L 33.123066 39.591595 
L 34.092995 37.097761 
L 35.062924 34.461772 
L 36.032852 31.832657 
L 37.002781 29.254769 
L 37.97271 26.772488 
L 38.942639 24.371465 
L 39.912567 21.89028 
L 40.882496 19.192771 
L 41.852425 16.456998 
L 42.822354 14.018385 
L 43.792282 11.896433 
L 44.762211 9.842385 
L 45.73214 7.801211 
L 46.702068 5.951872 
L 47.671997 4.446442 
L 48.641926 3.333956 
L 49.611855 2.614146 
L 50.581783 2.470909 
L 51.551712 3.321823 
L 52.521641 5.240941 
L 53.49157 7.694222 
L 54.461498 10.178892 
L 55.431427 12.598719 
L 56.401356 14.944236 
L 57.371285 17.255723 
L 58.341213 19.710206 
L 59.311142 22.331757 
L 60.281071 25.053679 
L 61.250999 27.995427 
L 62.220928 31.179415 
L 63.190857 34.290641 
L 64.160786 37.02385 
L 65.130714 39.33657 
L 66.100643 41.280877 
L 67.070572 42.894217 
L 68.040501 44.257021 
L 69.010429 45.465866 
L 69.980358 46.543512 
L 70.950287 47.459591 
L 71.920216 48.228351 
L 72.890144 48.899284 
L 73.860073 49.489447 
" clip-path="url(#p484e1d739a)" style="fill: none; stroke: #8a8a8a; stroke-width: 1.5; stroke-linecap: square"/>
   </g>
  </g>
 </g>
 <defs>
  <clipPath id="p484e1d739a">
   <rect x="0" y="-0" width="558" height="54.36"/>
  </clipPath>
 </defs>
</svg>
