<?xml version="1.0" encoding="utf-8" standalone="no"?>
<!DOCTYPE svg PUBLIC "-//W3C//DTD SVG 1.1//EN"
  "http://www.w3.org/Graphics/SVG/1.1/DTD/svg11.dtd">
<svg xmlns:xlink="http://www.w3.org/1999/xlink" width="558pt" height="54.36pt" viewBox="0 0 558 54.36" xmlns="http://www.w3.org/2000/svg" version="1.1">
 <metadata>
  <rdf:RDF xmlns:dc="http://purl.org/dc/elements/1.1/" xmlns:cc="http://creativecommons.org/ns#" xmlns:rdf="http://www.w3.org/1999/02/22-rdf-syntax-ns#">
   <cc:Work>
    <dc:type rdf:resource="http://purl.org/dc/dcmitype/StillImage"/>
    <dc:date>2024-09-14T12:47:35.234269</dc:date>
    <dc:format>image/svg+xml</dc:format>
    <dc:creator>
     <cc:Agent>
      <dc:title>Matplotlib v3.5.2, https://matplotlib.org/</dc:title>
     </cc:Agent>
    </dc:creator>
   </cc:Work>
  </rdf:RDF>
 </metadata>
 <defs>
  <style type="text/css">*{stroke-linejoin: round; stroke-linecap: butt}</style>
 </defs>
 <g id="figure_1">
  <g id="patch_1">
   <path d="M 0 54.36 
L 558 54.36 
L 558 0 
L 0 0 
L 0 54.36 
z
" style="fill: none; opacity: 0"/>
  </g>
  <g id="axes_1">
   <g id="PolyCollection_1">
    <defs>
     <path id="m54a7df3698" d="M 181.509787 -2.470909 
L 181.509787 -3.883306 
L 182.318834 -3.965477 
L 183.127882 -4.054058 
L 183.936929 -4.149016 
L 184.745977 -4.250089 
L 185.555024 -4.356775 
L 186.364071 -4.468351 
L 187.173119 -4.583907 
L 187.982166 -4.702409 
L 188.791214 -4.822778 
L 189.600261 -4.943984 
L 190.409308 -5.065147 
L 191.218356 -5.185633 
L 192.027403 -5.305128 
L 192.836451 -5.423705 
L 193.645498 -5.54184 
L 194.454545 -5.660413 
L 195.263593 -5.780658 
L 196.07264 -5.904094 
L 196.881688 -6.032422 
L 197.690735 -6.167417 
L 198.499783 -6.310806 
L 199.30883 -6.464158 
L 200.117877 -6.628791 
L 200.926925 -6.805701 
L 201.735972 -6.995518 
L 202.54502 -7.198493 
L 203.354067 -7.414512 
L 204.163114 -7.64313 
L 204.972162 -7.883629 
L 205.781209 -8.135077 
L 206.590257 -8.3964 
L 207.399304 -8.666442 
L 208.208351 -8.944031 
L 209.017399 -9.22802 
L 209.826446 -9.517334 
L 210.635494 -9.81099 
L 211.444541 -10.108117 
L 212.253589 -10.407965 
L 213.062636 -10.709904 
L 213.871683 -11.013425 
L 214.680731 -11.318142 
L 215.489778 -11.623789 
L 216.298826 -11.930234 
L 217.107873 -12.237492 
L 217.91692 -12.545757 
L 218.725968 -12.855427 
L 219.535015 -13.167147 
L 220.344063 -13.481838 
L 221.15311 -13.800726 
L 221.962157 -14.125347 
L 222.771205 -14.457523 
L 223.580252 -14.799316 
L 224.3893 -15.15294 
L 225.198347 -15.52064 
L 226.007395 -15.90455 
L 226.816442 -16.306538 
L 227.625489 -16.728043 
L 228.434537 -17.169943 
L 229.243584 -17.632447 
L 230.052632 -18.115038 
L 230.861679 -18.616469 
L 231.670726 -19.134821 
L 232.479774 -19.667598 
L 233.288821 -20.21188 
L 234.097869 -20.764476 
L 234.906916 -21.322103 
L 235.715963 -21.881539 
L 236.525011 -22.439751 
L 237.334058 -22.993993 
L 238.143106 -23.541859 
L 238.952153 -24.081304 
L 239.761201 -24.610638 
L 240.570248 -25.128502 
L 241.379295 -25.633844 
L 242.188343 -26.125892 
L 242.99739 -26.604151 
L 243.806438 -27.068397 
L 244.615485 -27.518696 
L 245.424532 -27.955415 
L 246.23358 -28.379232 
L 247.042627 -28.791133 
L 247.851675 -29.192381 
L 248.660722 -29.584467 
L 249.469769 -29.969038 
L 250.278817 -30.347809 
L 251.087864 -30.722465 
L 251.896912 -31.094566 
L 252.705959 -31.465477 
L 253.515007 -31.836309 
L 254.324054 -32.207896 
L 255.133101 -32.580797 
L 255.942149 -32.955329 
L 256.751196 -33.33161 
L 257.560244 -33.709617 
L 258.369291 -34.089234 
L 259.178338 -34.470294 
L 259.987386 -34.852594 
L 260.796433 -35.235891 
L 261.605481 -35.619871 
L 262.414528 -36.004106 
L 263.223575 -36.387991 
L 264.032623 -36.770691 
L 264.84167 -37.151087 
L 265.650718 -37.527754 
L 266.459765 -37.898959 
L 267.268813 -38.262683 
L 268.07786 -38.616691 
L 268.886907 -38.958605 
L 269.695955 -39.286015 
L 270.505002 -39.59658 
L 271.31405 -39.888143 
L 272.123097 -40.158818 
L 272.932144 -40.407067 
L 273.741192 -40.631748 
L 274.550239 -40.832134 
L 275.359287 -41.00791 
L 276.168334 -41.159151 
L 276.977381 -41.286277 
L 277.786429 -41.390007 
L 278.595476 -41.471308 
L 279.404524 -41.531347 
L 280.213571 -41.571432 
L 281.022619 -41.592974 
L 281.831666 -41.597423 
L 282.640713 -41.586215 
L 283.449761 -41.560699 
L 284.258808 -41.522061 
L 285.067856 -41.471238 
L 285.876903 -41.40884 
L 286.68595 -41.335077 
L 287.494998 -41.249723 
L 288.304045 -41.152112 
L 289.113093 -41.041184 
L 289.92214 -40.915584 
L 290.731187 -40.77381 
L 291.540235 -40.614396 
L 292.349282 -40.436109 
L 293.15833 -40.238143 
L 293.967377 -40.020266 
L 294.776425 -39.782925 
L 295.585472 -39.527254 
L 296.394519 -39.255015 
L 297.203567 -38.968451 
L 298.012614 -38.670079 
L 298.821662 -38.362449 
L 299.630709 -38.047897 
L 300.439756 -37.728324 
L 301.248804 -37.405038 
L 302.057851 -37.078668 
L 302.866899 -36.749169 
L 303.675946 -36.415903 
L 304.484993 -36.077795 
L 305.294041 -35.733524 
L 306.103088 -35.381737 
L 306.912136 -35.021236 
L 307.721183 -34.651138 
L 308.530231 -34.270958 
L 309.339278 -33.880645 
L 310.148325 -33.480533 
L 310.957373 -33.071256 
L 311.76642 -32.65362 
L 312.575468 -32.228459 
L 313.384515 -31.796514 
L 314.193562 -31.358326 
L 315.00261 -30.914179 
L 315.811657 -30.464086 
L 316.620705 -30.00782 
L 317.429752 -29.544979 
L 318.238799 -29.075086 
L 319.047847 -28.597687 
L 319.856894 -28.112458 
L 320.665942 -27.619303 
L 321.474989 -27.118424 
L 322.284037 -26.610374 
L 323.093084 -26.096085 
L 323.902131 -25.57687 
L 324.711179 -25.054389 
L 325.520226 -24.530603 
L 326.329274 -24.007692 
L 327.138321 -23.487955 
L 327.947368 -22.973687 
L 328.756416 -22.467049 
L 329.565463 -21.969936 
L 330.374511 -21.483855 
L 331.183558 -21.009827 
L 331.992605 -20.548329 
L 332.801653 -20.099279 
L 333.6107 -19.662082 
L 334.419748 -19.235712 
L 335.228795 -18.818849 
L 336.037843 -18.410033 
L 336.84689 -18.007829 
L 337.655937 -17.610983 
L 338.464985 -17.218533 
L 339.274032 -16.829889 
L 340.08308 -16.444844 
L 340.892127 -16.063535 
L 341.701174 -15.68636 
L 342.510222 -15.313851 
L 343.319269 -14.946548 
L 344.128317 -14.584869 
L 344.937364 -14.229008 
L 345.746411 -13.878877 
L 346.555459 -13.534098 
L 347.364506 -13.194035 
L 348.173554 -12.857886 
L 348.982601 -12.524787 
L 349.791649 -12.193948 
L 350.600696 -11.864772 
L 351.409743 -11.536957 
L 352.218791 -11.210572 
L 353.027838 -10.886074 
L 353.836886 -10.564296 
L 354.645933 -10.246377 
L 355.45498 -9.933665 
L 356.264028 -9.627594 
L 357.073075 -9.329555 
L 357.882123 -9.040766 
L 358.69117 -8.762169 
L 359.500217 -8.494347 
L 360.309265 -8.237488 
L 361.118312 -7.991379 
L 361.92736 -7.755442 
L 362.736407 -7.528802 
L 363.545455 -7.310375 
L 364.354502 -7.098973 
L 365.163549 -6.893413 
L 365.972597 -6.69261 
L 366.781644 -6.495664 
L 367.590692 -6.301915 
L 368.399739 -6.110983 
L 369.208786 -5.922771 
L 370.017834 -5.737451 
L 370.826881 -5.555432 
L 371.635929 -5.377306 
L 372.444976 -5.203792 
L 373.254023 -5.035684 
L 374.063071 -4.873783 
L 374.872118 -4.718859 
L 375.681166 -4.571605 
L 376.490213 -4.432607 
L 377.299261 -4.302326 
L 378.108308 -4.181087 
L 378.917355 -4.069073 
L 379.726403 -3.966331 
L 380.53545 -3.872778 
L 381.344498 -3.788209 
L 381.344498 -2.470909 
L 381.344498 -2.470909 
L 380.53545 -2.470909 
L 379.726403 -2.470909 
L 378.917355 -2.470909 
L 378.108308 -2.470909 
L 377.299261 -2.470909 
L 376.490213 -2.470909 
L 375.681166 -2.470909 
L 374.872118 -2.470909 
L 374.063071 -2.470909 
L 373.254023 -2.470909 
L 372.444976 -2.470909 
L 371.635929 -2.470909 
L 370.826881 -2.470909 
L 370.017834 -2.470909 
L 369.208786 -2.470909 
L 368.399739 -2.470909 
L 367.590692 -2.470909 
L 366.781644 -2.470909 
L 365.972597 -2.470909 
L 365.163549 -2.470909 
L 364.354502 -2.470909 
L 363.545455 -2.470909 
L 362.736407 -2.470909 
L 361.92736 -2.470909 
L 361.118312 -2.470909 
L 360.309265 -2.470909 
L 359.500217 -2.470909 
L 358.69117 -2.470909 
L 357.882123 -2.470909 
L 357.073075 -2.470909 
L 356.264028 -2.470909 
L 355.45498 -2.470909 
L 354.645933 -2.470909 
L 353.836886 -2.470909 
L 353.027838 -2.470909 
L 352.218791 -2.470909 
L 351.409743 -2.470909 
L 350.600696 -2.470909 
L 349.791649 -2.470909 
L 348.982601 -2.470909 
L 348.173554 -2.470909 
L 347.364506 -2.470909 
L 346.555459 -2.470909 
L 345.746411 -2.470909 
L 344.937364 -2.470909 
L 344.128317 -2.470909 
L 343.319269 -2.470909 
L 342.510222 -2.470909 
L 341.701174 -2.470909 
L 340.892127 -2.470909 
L 340.08308 -2.470909 
L 339.274032 -2.470909 
L 338.464985 -2.470909 
L 337.655937 -2.470909 
L 336.84689 -2.470909 
L 336.037843 -2.470909 
L 335.228795 -2.470909 
L 334.419748 -2.470909 
L 333.6107 -2.470909 
L 332.801653 -2.470909 
L 331.992605 -2.470909 
L 331.183558 -2.470909 
L 330.374511 -2.470909 
L 329.565463 -2.470909 
L 328.756416 -2.470909 
L 327.947368 -2.470909 
L 327.138321 -2.470909 
L 326.329274 -2.470909 
L 325.520226 -2.470909 
L 324.711179 -2.470909 
L 323.902131 -2.470909 
L 323.093084 -2.470909 
L 322.284037 -2.470909 
L 321.474989 -2.470909 
L 320.665942 -2.470909 
L 319.856894 -2.470909 
L 319.047847 -2.470909 
L 318.238799 -2.470909 
L 317.429752 -2.470909 
L 316.620705 -2.470909 
L 315.811657 -2.470909 
L 315.00261 -2.470909 
L 314.193562 -2.470909 
L 313.384515 -2.470909 
L 312.575468 -2.470909 
L 311.76642 -2.470909 
L 310.957373 -2.470909 
L 310.148325 -2.470909 
L 309.339278 -2.470909 
L 308.530231 -2.470909 
L 307.721183 -2.470909 
L 306.912136 -2.470909 
L 306.103088 -2.470909 
L 305.294041 -2.470909 
L 304.484993 -2.470909 
L 303.675946 -2.470909 
L 302.866899 -2.470909 
L 302.057851 -2.470909 
L 301.248804 -2.470909 
L 300.439756 -2.470909 
L 299.630709 -2.470909 
L 298.821662 -2.470909 
L 298.012614 -2.470909 
L 297.203567 -2.470909 
L 296.394519 -2.470909 
L 295.585472 -2.470909 
L 294.776425 -2.470909 
L 293.967377 -2.470909 
L 293.15833 -2.470909 
L 292.349282 -2.470909 
L 291.540235 -2.470909 
L 290.731187 -2.470909 
L 289.92214 -2.470909 
L 289.113093 -2.470909 
L 288.304045 -2.470909 
L 287.494998 -2.470909 
L 286.68595 -2.470909 
L 285.876903 -2.470909 
L 285.067856 -2.470909 
L 284.258808 -2.470909 
L 283.449761 -2.470909 
L 282.640713 -2.470909 
L 281.831666 -2.470909 
L 281.022619 -2.470909 
L 280.213571 -2.470909 
L 279.404524 -2.470909 
L 278.595476 -2.470909 
L 277.786429 -2.470909 
L 276.977381 -2.470909 
L 276.168334 -2.470909 
L 275.359287 -2.470909 
L 274.550239 -2.470909 
L 273.741192 -2.470909 
L 272.932144 -2.470909 
L 272.123097 -2.470909 
L 271.31405 -2.470909 
L 270.505002 -2.470909 
L 269.695955 -2.470909 
L 268.886907 -2.470909 
L 268.07786 -2.470909 
L 267.268813 -2.470909 
L 266.459765 -2.470909 
L 265.650718 -2.470909 
L 264.84167 -2.470909 
L 264.032623 -2.470909 
L 263.223575 -2.470909 
L 262.414528 -2.470909 
L 261.605481 -2.470909 
L 260.796433 -2.470909 
L 259.987386 -2.470909 
L 259.178338 -2.470909 
L 258.369291 -2.470909 
L 257.560244 -2.470909 
L 256.751196 -2.470909 
L 255.942149 -2.470909 
L 255.133101 -2.470909 
L 254.324054 -2.470909 
L 253.515007 -2.470909 
L 252.705959 -2.470909 
L 251.896912 -2.470909 
L 251.087864 -2.470909 
L 250.278817 -2.470909 
L 249.469769 -2.470909 
L 248.660722 -2.470909 
L 247.851675 -2.470909 
L 247.042627 -2.470909 
L 246.23358 -2.470909 
L 245.424532 -2.470909 
L 244.615485 -2.470909 
L 243.806438 -2.470909 
L 242.99739 -2.470909 
L 242.188343 -2.470909 
L 241.379295 -2.470909 
L 240.570248 -2.470909 
L 239.761201 -2.470909 
L 238.952153 -2.470909 
L 238.143106 -2.470909 
L 237.334058 -2.470909 
L 236.525011 -2.470909 
L 235.715963 -2.470909 
L 234.906916 -2.470909 
L 234.097869 -2.470909 
L 233.288821 -2.470909 
L 232.479774 -2.470909 
L 231.670726 -2.470909 
L 230.861679 -2.470909 
L 230.052632 -2.470909 
L 229.243584 -2.470909 
L 228.434537 -2.470909 
L 227.625489 -2.470909 
L 226.816442 -2.470909 
L 226.007395 -2.470909 
L 225.198347 -2.470909 
L 224.3893 -2.470909 
L 223.580252 -2.470909 
L 222.771205 -2.470909 
L 221.962157 -2.470909 
L 221.15311 -2.470909 
L 220.344063 -2.470909 
L 219.535015 -2.470909 
L 218.725968 -2.470909 
L 217.91692 -2.470909 
L 217.107873 -2.470909 
L 216.298826 -2.470909 
L 215.489778 -2.470909 
L 214.680731 -2.470909 
L 213.871683 -2.470909 
L 213.062636 -2.470909 
L 212.253589 -2.470909 
L 211.444541 -2.470909 
L 210.635494 -2.470909 
L 209.826446 -2.470909 
L 209.017399 -2.470909 
L 208.208351 -2.470909 
L 207.399304 -2.470909 
L 206.590257 -2.470909 
L 205.781209 -2.470909 
L 204.972162 -2.470909 
L 204.163114 -2.470909 
L 203.354067 -2.470909 
L 202.54502 -2.470909 
L 201.735972 -2.470909 
L 200.926925 -2.470909 
L 200.117877 -2.470909 
L 199.30883 -2.470909 
L 198.499783 -2.470909 
L 197.690735 -2.470909 
L 196.881688 -2.470909 
L 196.07264 -2.470909 
L 195.263593 -2.470909 
L 194.454545 -2.470909 
L 193.645498 -2.470909 
L 192.836451 -2.470909 
L 192.027403 -2.470909 
L 191.218356 -2.470909 
L 190.409308 -2.470909 
L 189.600261 -2.470909 
L 188.791214 -2.470909 
L 187.982166 -2.470909 
L 187.173119 -2.470909 
L 186.364071 -2.470909 
L 185.555024 -2.470909 
L 184.745977 -2.470909 
L 183.936929 -2.470909 
L 183.127882 -2.470909 
L 182.318834 -2.470909 
L 181.509787 -2.470909 
z
" style="stroke: #cf1313; stroke-opacity: 0.2"/>
    </defs>
    <g clip-path="url(#pfcf07acacf)">
     <use xlink:href="#m54a7df3698" x="0" y="54.36" style="fill: #cf1313; fill-opacity: 0.2; stroke: #cf1313; stroke-opacity: 0.2"/>
    </g>
   </g>
   <g id="PolyCollection_2">
    <defs>
     <path id="m007d4ee5f8" d="M 369.208786 -2.470909 
L 369.208786 -4.470027 
L 370.017834 -4.602726 
L 370.826881 -4.734475 
L 371.635929 -4.86553 
L 372.444976 -4.996462 
L 373.254023 -5.128018 
L 374.063071 -5.260982 
L 374.872118 -5.396061 
L 375.681166 -5.533822 
L 376.490213 -5.674693 
L 377.299261 -5.819015 
L 378.108308 -5.96716 
L 378.917355 -6.119657 
L 379.726403 -6.277329 
L 380.53545 -6.441397 
L 381.344498 -6.61353 
L 382.153545 -6.795817 
L 382.962592 -6.990669 
L 383.77164 -7.200646 
L 384.580687 -7.42824 
L 385.389735 -7.675632 
L 386.198782 -7.944472 
L 387.007829 -8.235705 
L 387.816877 -8.549466 
L 388.625924 -8.885075 
L 389.434972 -9.241114 
L 390.244019 -9.615585 
L 391.053067 -10.006131 
L 391.862114 -10.410278 
L 392.671161 -10.825685 
L 393.480209 -11.250364 
L 394.289256 -11.682855 
L 395.098304 -12.12234 
L 395.907351 -12.568682 
L 396.716398 -13.022403 
L 397.525446 -13.484587 
L 398.334493 -13.956729 
L 399.143541 -14.440542 
L 399.952588 -14.93774 
L 400.761635 -15.449811 
L 401.570683 -15.977821 
L 402.37973 -16.522255 
L 403.188778 -17.082928 
L 403.997825 -17.658984 
L 404.806873 -18.248979 
L 405.61592 -18.851049 
L 406.424967 -19.463141 
L 407.234015 -20.083262 
L 408.043062 -20.709711 
L 408.85211 -21.341233 
L 409.661157 -21.977071 
L 410.470204 -22.61688 
L 411.279252 -23.260511 
L 412.088299 -23.907712 
L 412.897347 -24.557789 
L 413.706394 -25.209314 
L 414.515441 -25.859961 
L 415.324489 -26.50651 
L 416.133536 -27.145067 
L 416.942584 -27.771467 
L 417.751631 -28.381805 
L 418.560679 -28.97301 
L 419.369726 -29.543357 
L 420.178773 -30.092806 
L 420.987821 -30.623123 
L 421.796868 -31.137734 
L 422.605916 -31.641338 
L 423.414963 -32.139339 
L 424.22401 -32.637192 
L 425.033058 -33.139745 
L 425.842105 -33.650684 
L 426.651153 -34.172145 
L 427.4602 -34.704516 
L 428.269247 -35.24644 
L 429.078295 -35.795002 
L 429.887342 -36.346034 
L 430.69639 -36.894508 
L 431.505437 -37.434961 
L 432.314485 -37.961903 
L 433.123532 -38.470189 
L 433.932579 -38.955318 
L 434.741627 -39.413651 
L 435.550674 -39.842532 
L 436.359722 -40.240318 
L 437.168769 -40.606309 
L 437.977816 -40.940616 
L 438.786864 -41.243969 
L 439.595911 -41.517513 
L 440.404959 -41.762627 
L 441.214006 -41.980787 
L 442.023054 -42.173504 
L 442.832101 -42.342321 
L 443.641148 -42.488858 
L 444.450196 -42.614855 
L 445.259243 -42.722182 
L 446.068291 -42.812746 
L 446.877338 -42.888313 
L 447.686385 -42.950213 
L 448.495433 -42.999003 
L 449.30448 -43.034142 
L 450.113528 -43.053773 
L 450.922575 -43.054679 
L 451.731622 -43.032495 
L 452.54067 -42.982149 
L 453.349717 -42.89852 
L 454.158765 -42.777202 
L 454.967812 -42.615263 
L 455.77686 -42.411851 
L 456.585907 -42.168545 
L 457.394954 -41.889373 
L 458.204002 -41.580479 
L 459.013049 -41.24949 
L 459.822097 -40.904675 
L 460.631144 -40.554023 
L 461.440191 -40.204369 
L 462.249239 -39.860691 
L 463.058286 -39.525635 
L 463.867334 -39.199328 
L 464.676381 -38.879446 
L 465.485428 -38.561519 
L 466.294476 -38.239397 
L 467.103523 -37.905819 
L 467.912571 -37.553036 
L 468.721618 -37.173425 
L 469.530666 -36.760075 
L 470.339713 -36.307313 
L 471.14876 -35.811147 
L 471.957808 -35.26962 
L 472.766855 -34.683032 
L 473.575903 -34.054032 
L 474.38495 -33.387541 
L 475.193997 -32.690507 
L 476.003045 -31.971484 
L 476.812092 -31.240065 
L 477.62114 -30.506186 
L 478.430187 -29.779382 
L 479.239234 -29.068048 
L 480.048282 -28.378794 
L 480.857329 -27.71597 
L 481.666377 -27.081429 
L 482.475424 -26.474563 
L 483.284472 -25.892626 
L 484.093519 -25.331287 
L 484.902566 -24.78537 
L 485.711614 -24.249654 
L 486.520661 -23.719629 
L 487.329709 -23.192105 
L 488.138756 -22.665579 
L 488.947803 -22.140326 
L 489.756851 -21.618209 
L 490.565898 -21.102258 
L 491.374946 -20.596095 
L 492.183993 -20.103303 
L 492.99304 -19.626839 
L 493.802088 -19.16857 
L 494.611135 -18.728984 
L 495.420183 -18.307112 
L 496.22923 -17.900631 
L 497.038278 -17.506136 
L 497.847325 -17.11952 
L 498.656372 -16.736412 
L 499.46542 -16.352603 
L 500.274467 -15.964436 
L 501.083515 -15.569087 
L 501.892562 -15.164742 
L 502.701609 -14.750644 
L 503.510657 -14.327034 
L 504.319704 -13.894994 
L 505.128752 -13.456241 
L 505.937799 -13.012902 
L 506.746846 -12.567304 
L 507.555894 -12.121812 
L 508.364941 -11.678712 
L 509.173989 -11.240143 
L 509.983036 -10.808073 
L 510.792084 -10.384279 
L 511.601131 -9.970335 
L 512.410178 -9.5676 
L 513.219226 -9.177189 
L 514.028273 -8.799959 
L 514.837321 -8.436502 
L 515.646368 -8.08717 
L 516.455415 -7.752121 
L 517.264463 -7.431394 
L 518.07351 -7.124982 
L 518.882558 -6.832906 
L 519.691605 -6.555253 
L 520.500652 -6.292189 
L 521.3097 -6.043933 
L 522.118747 -5.810698 
L 522.927795 -5.592621 
L 523.736842 -5.389697 
L 524.54589 -5.201719 
L 525.354937 -5.028253 
L 526.163984 -4.868638 
L 526.973032 -4.722014 
L 527.782079 -4.587373 
L 528.591127 -4.463621 
L 529.400174 -4.349638 
L 530.209221 -4.244334 
L 531.018269 -4.14669 
L 531.827316 -4.055779 
L 532.636364 -3.970779 
L 532.636364 -2.470909 
L 532.636364 -2.470909 
L 531.827316 -2.470909 
L 531.018269 -2.470909 
L 530.209221 -2.470909 
L 529.400174 -2.470909 
L 528.591127 -2.470909 
L 527.782079 -2.470909 
L 526.973032 -2.470909 
L 526.163984 -2.470909 
L 525.354937 -2.470909 
L 524.54589 -2.470909 
L 523.736842 -2.470909 
L 522.927795 -2.470909 
L 522.118747 -2.470909 
L 521.3097 -2.470909 
L 520.500652 -2.470909 
L 519.691605 -2.470909 
L 518.882558 -2.470909 
L 518.07351 -2.470909 
L 517.264463 -2.470909 
L 516.455415 -2.470909 
L 515.646368 -2.470909 
L 514.837321 -2.470909 
L 514.028273 -2.470909 
L 513.219226 -2.470909 
L 512.410178 -2.470909 
L 511.601131 -2.470909 
L 510.792084 -2.470909 
L 509.983036 -2.470909 
L 509.173989 -2.470909 
L 508.364941 -2.470909 
L 507.555894 -2.470909 
L 506.746846 -2.470909 
L 505.937799 -2.470909 
L 505.128752 -2.470909 
L 504.319704 -2.470909 
L 503.510657 -2.470909 
L 502.701609 -2.470909 
L 501.892562 -2.470909 
L 501.083515 -2.470909 
L 500.274467 -2.470909 
L 499.46542 -2.470909 
L 498.656372 -2.470909 
L 497.847325 -2.470909 
L 497.038278 -2.470909 
L 496.22923 -2.470909 
L 495.420183 -2.470909 
L 494.611135 -2.470909 
L 493.802088 -2.470909 
L 492.99304 -2.470909 
L 492.183993 -2.470909 
L 491.374946 -2.470909 
L 490.565898 -2.470909 
L 489.756851 -2.470909 
L 488.947803 -2.470909 
L 488.138756 -2.470909 
L 487.329709 -2.470909 
L 486.520661 -2.470909 
L 485.711614 -2.470909 
L 484.902566 -2.470909 
L 484.093519 -2.470909 
L 483.284472 -2.470909 
L 482.475424 -2.470909 
L 481.666377 -2.470909 
L 480.857329 -2.470909 
L 480.048282 -2.470909 
L 479.239234 -2.470909 
L 478.430187 -2.470909 
L 477.62114 -2.470909 
L 476.812092 -2.470909 
L 476.003045 -2.470909 
L 475.193997 -2.470909 
L 474.38495 -2.470909 
L 473.575903 -2.470909 
L 472.766855 -2.470909 
L 471.957808 -2.470909 
L 471.14876 -2.470909 
L 470.339713 -2.470909 
L 469.530666 -2.470909 
L 468.721618 -2.470909 
L 467.912571 -2.470909 
L 467.103523 -2.470909 
L 466.294476 -2.470909 
L 465.485428 -2.470909 
L 464.676381 -2.470909 
L 463.867334 -2.470909 
L 463.058286 -2.470909 
L 462.249239 -2.470909 
L 461.440191 -2.470909 
L 460.631144 -2.470909 
L 459.822097 -2.470909 
L 459.013049 -2.470909 
L 458.204002 -2.470909 
L 457.394954 -2.470909 
L 456.585907 -2.470909 
L 455.77686 -2.470909 
L 454.967812 -2.470909 
L 454.158765 -2.470909 
L 453.349717 -2.470909 
L 452.54067 -2.470909 
L 451.731622 -2.470909 
L 450.922575 -2.470909 
L 450.113528 -2.470909 
L 449.30448 -2.470909 
L 448.495433 -2.470909 
L 447.686385 -2.470909 
L 446.877338 -2.470909 
L 446.068291 -2.470909 
L 445.259243 -2.470909 
L 444.450196 -2.470909 
L 443.641148 -2.470909 
L 442.832101 -2.470909 
L 442.023054 -2.470909 
L 441.214006 -2.470909 
L 440.404959 -2.470909 
L 439.595911 -2.470909 
L 438.786864 -2.470909 
L 437.977816 -2.470909 
L 437.168769 -2.470909 
L 436.359722 -2.470909 
L 435.550674 -2.470909 
L 434.741627 -2.470909 
L 433.932579 -2.470909 
L 433.123532 -2.470909 
L 432.314485 -2.470909 
L 431.505437 -2.470909 
L 430.69639 -2.470909 
L 429.887342 -2.470909 
L 429.078295 -2.470909 
L 428.269247 -2.470909 
L 427.4602 -2.470909 
L 426.651153 -2.470909 
L 425.842105 -2.470909 
L 425.033058 -2.470909 
L 424.22401 -2.470909 
L 423.414963 -2.470909 
L 422.605916 -2.470909 
L 421.796868 -2.470909 
L 420.987821 -2.470909 
L 420.178773 -2.470909 
L 419.369726 -2.470909 
L 418.560679 -2.470909 
L 417.751631 -2.470909 
L 416.942584 -2.470909 
L 416.133536 -2.470909 
L 415.324489 -2.470909 
L 414.515441 -2.470909 
L 413.706394 -2.470909 
L 412.897347 -2.470909 
L 412.088299 -2.470909 
L 411.279252 -2.470909 
L 410.470204 -2.470909 
L 409.661157 -2.470909 
L 408.85211 -2.470909 
L 408.043062 -2.470909 
L 407.234015 -2.470909 
L 406.424967 -2.470909 
L 405.61592 -2.470909 
L 404.806873 -2.470909 
L 403.997825 -2.470909 
L 403.188778 -2.470909 
L 402.37973 -2.470909 
L 401.570683 -2.470909 
L 400.761635 -2.470909 
L 399.952588 -2.470909 
L 399.143541 -2.470909 
L 398.334493 -2.470909 
L 397.525446 -2.470909 
L 396.716398 -2.470909 
L 395.907351 -2.470909 
L 395.098304 -2.470909 
L 394.289256 -2.470909 
L 393.480209 -2.470909 
L 392.671161 -2.470909 
L 391.862114 -2.470909 
L 391.053067 -2.470909 
L 390.244019 -2.470909 
L 389.434972 -2.470909 
L 388.625924 -2.470909 
L 387.816877 -2.470909 
L 387.007829 -2.470909 
L 386.198782 -2.470909 
L 385.389735 -2.470909 
L 384.580687 -2.470909 
L 383.77164 -2.470909 
L 382.962592 -2.470909 
L 382.153545 -2.470909 
L 381.344498 -2.470909 
L 380.53545 -2.470909 
L 379.726403 -2.470909 
L 378.917355 -2.470909 
L 378.108308 -2.470909 
L 377.299261 -2.470909 
L 376.490213 -2.470909 
L 375.681166 -2.470909 
L 374.872118 -2.470909 
L 374.063071 -2.470909 
L 373.254023 -2.470909 
L 372.444976 -2.470909 
L 371.635929 -2.470909 
L 370.826881 -2.470909 
L 370.017834 -2.470909 
L 369.208786 -2.470909 
z
" style="stroke: #116dc2; stroke-opacity: 0.2"/>
    </defs>
    <g clip-path="url(#pfcf07acacf)">
     <use xlink:href="#m007d4ee5f8" x="0" y="54.36" style="fill: #116dc2; fill-opacity: 0.2; stroke: #116dc2; stroke-opacity: 0.2"/>
    </g>
   </g>
   <g id="PolyCollection_3">
    <defs>
     <path id="m8e8d237301" d="M 25.363636 -2.470909 
L 25.363636 -4.770983 
L 26.172684 -5.173983 
L 26.981731 -5.64376 
L 27.790779 -6.194209 
L 28.599826 -6.844717 
L 29.408873 -7.6044 
L 30.217921 -8.456087 
L 31.026968 -9.365495 
L 31.836016 -10.31372 
L 32.645063 -11.317524 
L 33.45411 -12.408616 
L 34.263158 -13.59096 
L 35.072205 -14.829477 
L 35.881253 -16.09411 
L 36.6903 -17.416305 
L 37.499348 -18.89248 
L 38.308395 -20.622279 
L 39.117442 -22.636495 
L 39.92649 -24.87663 
L 40.735537 -27.234293 
L 41.544585 -29.60451 
L 42.353632 -31.906412 
L 43.162679 -34.073915 
L 43.971727 -36.058703 
L 44.780774 -37.865818 
L 45.589822 -39.581958 
L 46.398869 -41.339365 
L 47.207916 -43.22023 
L 48.016964 -45.181228 
L 48.826011 -47.069462 
L 49.635059 -48.712988 
L 50.444106 -50.005794 
L 51.253154 -50.930907 
L 52.062201 -51.526474 
L 52.871248 -51.836067 
L 53.680296 -51.889091 
L 54.489343 -51.727945 
L 55.298391 -51.442041 
L 56.107438 -51.146953 
L 56.916485 -50.905132 
L 57.725533 -50.658723 
L 58.53458 -50.243553 
L 59.343628 -49.483463 
L 60.152675 -48.301072 
L 60.961722 -46.770091 
L 61.77077 -45.072994 
L 62.579817 -43.391629 
L 63.388865 -41.806849 
L 64.197912 -40.274756 
L 65.00696 -38.683302 
L 65.816007 -36.934604 
L 66.625054 -34.9981 
L 67.434102 -32.917781 
L 68.243149 -30.784983 
L 69.052197 -28.696637 
L 69.861244 -26.71825 
L 70.670291 -24.864555 
L 71.479339 -23.103108 
L 72.288386 -21.379572 
L 73.097434 -19.654232 
L 73.906481 -17.931829 
L 74.715528 -16.267743 
L 75.524576 -14.742127 
L 76.333623 -13.412245 
L 77.142671 -12.276201 
L 77.951718 -11.279409 
L 78.760766 -10.356269 
L 79.569813 -9.465411 
L 80.37886 -8.592415 
L 81.187908 -7.736516 
L 81.996955 -6.907813 
L 82.806003 -6.132864 
L 83.61505 -5.449101 
L 84.424097 -4.885258 
L 84.424097 -2.470909 
L 84.424097 -2.470909 
L 83.61505 -2.470909 
L 82.806003 -2.470909 
L 81.996955 -2.470909 
L 81.187908 -2.470909 
L 80.37886 -2.470909 
L 79.569813 -2.470909 
L 78.760766 -2.470909 
L 77.951718 -2.470909 
L 77.142671 -2.470909 
L 76.333623 -2.470909 
L 75.524576 -2.470909 
L 74.715528 -2.470909 
L 73.906481 -2.470909 
L 73.097434 -2.470909 
L 72.288386 -2.470909 
L 71.479339 -2.470909 
L 70.670291 -2.470909 
L 69.861244 -2.470909 
L 69.052197 -2.470909 
L 68.243149 -2.470909 
L 67.434102 -2.470909 
L 66.625054 -2.470909 
L 65.816007 -2.470909 
L 65.00696 -2.470909 
L 64.197912 -2.470909 
L 63.388865 -2.470909 
L 62.579817 -2.470909 
L 61.77077 -2.470909 
L 60.961722 -2.470909 
L 60.152675 -2.470909 
L 59.343628 -2.470909 
L 58.53458 -2.470909 
L 57.725533 -2.470909 
L 56.916485 -2.470909 
L 56.107438 -2.470909 
L 55.298391 -2.470909 
L 54.489343 -2.470909 
L 53.680296 -2.470909 
L 52.871248 -2.470909 
L 52.062201 -2.470909 
L 51.253154 -2.470909 
L 50.444106 -2.470909 
L 49.635059 -2.470909 
L 48.826011 -2.470909 
L 48.016964 -2.470909 
L 47.207916 -2.470909 
L 46.398869 -2.470909 
L 45.589822 -2.470909 
L 44.780774 -2.470909 
L 43.971727 -2.470909 
L 43.162679 -2.470909 
L 42.353632 -2.470909 
L 41.544585 -2.470909 
L 40.735537 -2.470909 
L 39.92649 -2.470909 
L 39.117442 -2.470909 
L 38.308395 -2.470909 
L 37.499348 -2.470909 
L 36.6903 -2.470909 
L 35.881253 -2.470909 
L 35.072205 -2.470909 
L 34.263158 -2.470909 
L 33.45411 -2.470909 
L 32.645063 -2.470909 
L 31.836016 -2.470909 
L 31.026968 -2.470909 
L 30.217921 -2.470909 
L 29.408873 -2.470909 
L 28.599826 -2.470909 
L 27.790779 -2.470909 
L 26.981731 -2.470909 
L 26.172684 -2.470909 
L 25.363636 -2.470909 
z
" style="stroke: #8a8a8a; stroke-opacity: 0.2"/>
    </defs>
    <g clip-path="url(#pfcf07acacf)">
     <use xlink:href="#m8e8d237301" x="0" y="54.36" style="fill: #8a8a8a; fill-opacity: 0.2; stroke: #8a8a8a; stroke-opacity: 0.2"/>
    </g>
   </g>
   <g id="line2d_1">
    <path d="M 181.509787 50.476694 
L 186.364071 49.891649 
L 198.499783 48.049194 
L 201.735972 47.364482 
L 204.972162 46.476371 
L 209.017399 45.13198 
L 217.107873 42.122508 
L 223.580252 39.560684 
L 226.816442 38.053462 
L 230.052632 36.244962 
L 233.288821 34.14812 
L 241.379295 28.726156 
L 244.615485 26.841304 
L 248.660722 24.775533 
L 264.032623 17.589309 
L 268.886907 15.401395 
L 272.123097 14.201182 
L 274.550239 13.527866 
L 276.977381 13.073723 
L 279.404524 12.828653 
L 282.640713 12.773785 
L 285.876903 12.95116 
L 289.113093 13.318816 
L 292.349282 13.923891 
L 294.776425 14.577075 
L 298.012614 15.689921 
L 303.675946 17.944097 
L 308.530231 20.089042 
L 312.575468 22.131541 
L 317.429752 24.815021 
L 322.284037 27.749626 
L 331.992605 33.811671 
L 336.037843 35.949967 
L 342.510222 39.046149 
L 348.173554 41.502114 
L 356.264028 44.732406 
L 360.309265 46.122512 
L 364.354502 47.261027 
L 370.826881 48.804568 
L 375.681166 49.788395 
L 379.726403 50.393669 
L 381.344498 50.571791 
L 381.344498 50.571791 
" clip-path="url(#pfcf07acacf)" style="fill: none; stroke: #cf1313; stroke-width: 1.5; stroke-linecap: square"/>
   </g>
   <g id="line2d_2">
    <path d="M 369.208786 49.889973 
L 379.726403 48.082671 
L 383.77164 47.159354 
L 386.198782 46.415528 
L 388.625924 45.474925 
L 391.862114 43.949722 
L 396.716398 41.337597 
L 400.761635 38.910189 
L 403.997825 36.701016 
L 408.043062 33.650289 
L 420.178773 24.267194 
L 424.22401 21.722808 
L 428.269247 19.11356 
L 433.932579 15.404682 
L 436.359722 14.119682 
L 438.786864 13.116031 
L 441.214006 12.379213 
L 443.641148 11.871142 
L 446.877338 11.471687 
L 450.113528 11.306227 
L 452.54067 11.377851 
L 454.158765 11.582798 
L 455.77686 11.948149 
L 458.204002 12.779521 
L 468.721618 17.186575 
L 471.14876 18.548853 
L 473.575903 20.305968 
L 476.003045 22.388516 
L 480.857329 26.64403 
L 483.284472 28.467374 
L 487.329709 31.167895 
L 492.99304 34.733161 
L 496.22923 36.459369 
L 505.128752 40.903759 
L 512.410178 44.7924 
L 515.646368 46.27283 
L 518.882558 47.527094 
L 522.118747 48.549302 
L 525.354937 49.331747 
L 528.591127 49.896379 
L 532.636364 50.389221 
L 532.636364 50.389221 
" clip-path="url(#pfcf07acacf)" style="fill: none; stroke: #116dc2; stroke-width: 1.5; stroke-linecap: square"/>
   </g>
   <g id="line2d_3">
    <path d="M 25.363636 49.589017 
L 26.172684 49.186017 
L 26.981731 48.71624 
L 27.790779 48.165791 
L 28.599826 47.515283 
L 29.408873 46.7556 
L 30.217921 45.903913 
L 31.026968 44.994505 
L 31.836016 44.04628 
L 32.645063 43.042476 
L 33.45411 41.951384 
L 34.263158 40.76904 
L 35.072205 39.530523 
L 35.881253 38.26589 
L 36.6903 36.943695 
L 37.499348 35.46752 
L 38.308395 33.737721 
L 39.117442 31.723505 
L 39.92649 29.48337 
L 40.735537 27.125707 
L 41.544585 24.75549 
L 42.353632 22.453588 
L 43.162679 20.286085 
L 43.971727 18.301297 
L 44.780774 16.494182 
L 45.589822 14.778042 
L 46.398869 13.020635 
L 47.207916 11.13977 
L 48.016964 9.178772 
L 48.826011 7.290538 
L 49.635059 5.647012 
L 50.444106 4.354206 
L 51.253154 3.429093 
L 52.062201 2.833526 
L 52.871248 2.523933 
L 53.680296 2.470909 
L 54.489343 2.632055 
L 55.298391 2.917959 
L 56.107438 3.213047 
L 56.916485 3.454868 
L 57.725533 3.701277 
L 58.53458 4.116447 
L 59.343628 4.876537 
L 60.152675 6.058928 
L 60.961722 7.589909 
L 61.77077 9.287006 
L 62.579817 10.968371 
L 63.388865 12.553151 
L 64.197912 14.085244 
L 65.00696 15.676698 
L 65.816007 17.425396 
L 66.625054 19.3619 
L 67.434102 21.442219 
L 68.243149 23.575017 
L 69.052197 25.663363 
L 69.861244 27.64175 
L 70.670291 29.495445 
L 71.479339 31.256892 
L 72.288386 32.980428 
L 73.097434 34.705768 
L 73.906481 36.428171 
L 74.715528 38.092257 
L 75.524576 39.617873 
L 76.333623 40.947755 
L 77.142671 42.083799 
L 77.951718 43.080591 
L 78.760766 44.003731 
L 79.569813 44.894589 
L 80.37886 45.767585 
L 81.187908 46.623484 
L 81.996955 47.452187 
L 82.806003 48.227136 
L 83.61505 48.910899 
L 84.424097 49.474742 
" clip-path="url(#pfcf07acacf)" style="fill: none; stroke: #8a8a8a; stroke-width: 1.5; stroke-linecap: square"/>
   </g>
  </g>
 </g>
 <defs>
  <clipPath id="pfcf07acacf">
   <rect x="0" y="-0" width="558" height="54.36"/>
  </clipPath>
 </defs>
</svg>
