<?xml version="1.0" encoding="utf-8" standalone="no"?>
<!DOCTYPE svg PUBLIC "-//W3C//DTD SVG 1.1//EN"
  "http://www.w3.org/Graphics/SVG/1.1/DTD/svg11.dtd">
<svg xmlns:xlink="http://www.w3.org/1999/xlink" width="558pt" height="54.36pt" viewBox="0 0 558 54.36" xmlns="http://www.w3.org/2000/svg" version="1.1">
 <metadata>
  <rdf:RDF xmlns:dc="http://purl.org/dc/elements/1.1/" xmlns:cc="http://creativecommons.org/ns#" xmlns:rdf="http://www.w3.org/1999/02/22-rdf-syntax-ns#">
   <cc:Work>
    <dc:type rdf:resource="http://purl.org/dc/dcmitype/StillImage"/>
    <dc:date>2024-09-15T09:31:37.136274</dc:date>
    <dc:format>image/svg+xml</dc:format>
    <dc:creator>
     <cc:Agent>
      <dc:title>Matplotlib v3.5.2, https://matplotlib.org/</dc:title>
     </cc:Agent>
    </dc:creator>
   </cc:Work>
  </rdf:RDF>
 </metadata>
 <defs>
  <style type="text/css">*{stroke-linejoin: round; stroke-linecap: butt}</style>
 </defs>
 <g id="figure_1">
  <g id="patch_1">
   <path d="M 0 54.36 
L 558 54.36 
L 558 0 
L 0 0 
L 0 54.36 
z
" style="fill: none; opacity: 0"/>
  </g>
  <g id="axes_1">
   <g id="PolyCollection_1">
    <defs>
     <path id="mee2316af35" d="M 184.492183 -2.470909 
L 184.492183 -4.060038 
L 185.299942 -4.137823 
L 186.107701 -4.218658 
L 186.91546 -4.30286 
L 187.723219 -4.390841 
L 188.530979 -4.483113 
L 189.338738 -4.580291 
L 190.146497 -4.683083 
L 190.954256 -4.792266 
L 191.762015 -4.908647 
L 192.569774 -5.033015 
L 193.377533 -5.166085 
L 194.185292 -5.308438 
L 194.993052 -5.460466 
L 195.800811 -5.622326 
L 196.60857 -5.793913 
L 197.416329 -5.974855 
L 198.224088 -6.164535 
L 199.031847 -6.362132 
L 199.839606 -6.566696 
L 200.647365 -6.777225 
L 201.455124 -6.992761 
L 202.262884 -7.21248 
L 203.070643 -7.435765 
L 203.878402 -7.662263 
L 204.686161 -7.89191 
L 205.49392 -8.124932 
L 206.301679 -8.361801 
L 207.109438 -8.603183 
L 207.917197 -8.849852 
L 208.724957 -9.102607 
L 209.532716 -9.362186 
L 210.340475 -9.629193 
L 211.148234 -9.90405 
L 211.955993 -10.186967 
L 212.763752 -10.477946 
L 213.571511 -10.7768 
L 214.37927 -11.083196 
L 215.18703 -11.396704 
L 215.994789 -11.716839 
L 216.802548 -12.043105 
L 217.610307 -12.375011 
L 218.418066 -12.712083 
L 219.225825 -13.053845 
L 220.033584 -13.399806 
L 220.841343 -13.749429 
L 221.649102 -14.102121 
L 222.456862 -14.457235 
L 223.264621 -14.814094 
L 224.07238 -15.172044 
L 224.880139 -15.53054 
L 225.687898 -15.889234 
L 226.495657 -16.248086 
L 227.303416 -16.607457 
L 228.111175 -16.968173 
L 228.918935 -17.331566 
L 229.726694 -17.699445 
L 230.534453 -18.074025 
L 231.342212 -18.457796 
L 232.149971 -18.853348 
L 232.95773 -19.263159 
L 233.765489 -19.689376 
L 234.573248 -20.133604 
L 235.381008 -20.596723 
L 236.188767 -21.07876 
L 236.996526 -21.578837 
L 237.804285 -22.095182 
L 238.612044 -22.625234 
L 239.419803 -23.165809 
L 240.227562 -23.713335 
L 241.035321 -24.264108 
L 241.84308 -24.814567 
L 242.65084 -25.361541 
L 243.458599 -25.902451 
L 244.266358 -26.435436 
L 245.074117 -26.959396 
L 245.881876 -27.473947 
L 246.689635 -27.979287 
L 247.497394 -28.475998 
L 248.305153 -28.964813 
L 249.112913 -29.446367 
L 249.920672 -29.920973 
L 250.728431 -30.388452 
L 251.53619 -30.848031 
L 252.343949 -31.29833 
L 253.151708 -31.737434 
L 253.959467 -32.16304 
L 254.767226 -32.572661 
L 255.574986 -32.963864 
L 256.382745 -33.334512 
L 257.190504 -33.682982 
L 257.998263 -34.008347 
L 258.806022 -34.31049 
L 259.613781 -34.590161 
L 260.42154 -34.848963 
L 261.229299 -35.089283 
L 262.037058 -35.314169 
L 262.844818 -35.52718 
L 263.652577 -35.732211 
L 264.460336 -35.933308 
L 265.268095 -36.134482 
L 266.075854 -36.339535 
L 266.883613 -36.551887 
L 267.691372 -36.774419 
L 268.499131 -37.009338 
L 269.306891 -37.258053 
L 270.11465 -37.521095 
L 270.922409 -37.798059 
L 271.730168 -38.087612 
L 272.537927 -38.387532 
L 273.345686 -38.694812 
L 274.153445 -39.005812 
L 274.961204 -39.316438 
L 275.768964 -39.622348 
L 276.576723 -39.919148 
L 277.384482 -40.202571 
L 278.192241 -40.46861 
L 279 -40.713608 
L 279.807759 -40.934283 
L 280.615518 -41.127716 
L 281.423277 -41.291303 
L 282.231036 -41.422693 
L 283.038796 -41.519737 
L 283.846555 -41.580455 
L 284.654314 -41.603049 
L 285.462073 -41.585945 
L 286.269832 -41.527881 
L 287.077591 -41.428014 
L 287.88535 -41.28603 
L 288.693109 -41.102257 
L 289.500869 -40.877733 
L 290.308628 -40.614254 
L 291.116387 -40.314361 
L 291.924146 -39.98129 
L 292.731905 -39.618881 
L 293.539664 -39.231446 
L 294.347423 -38.823625 
L 295.155182 -38.400225 
L 295.962942 -37.966059 
L 296.770701 -37.525791 
L 297.57846 -37.083797 
L 298.386219 -36.644038 
L 299.193978 -36.209956 
L 300.001737 -35.784389 
L 300.809496 -35.369518 
L 301.617255 -34.966828 
L 302.425014 -34.577107 
L 303.232774 -34.200474 
L 304.040533 -33.836425 
L 304.848292 -33.483916 
L 305.656051 -33.141459 
L 306.46381 -32.807233 
L 307.271569 -32.479199 
L 308.079328 -32.155212 
L 308.887087 -31.833122 
L 309.694847 -31.51085 
L 310.502606 -31.186454 
L 311.310365 -30.858158 
L 312.118124 -30.524369 
L 312.925883 -30.18368 
L 313.733642 -29.834851 
L 314.541401 -29.476799 
L 315.34916 -29.10858 
L 316.15692 -28.729385 
L 316.964679 -28.338539 
L 317.772438 -27.935511 
L 318.580197 -27.519935 
L 319.387956 -27.09163 
L 320.195715 -26.650635 
L 321.003474 -26.197223 
L 321.811233 -25.731929 
L 322.618992 -25.25555 
L 323.426752 -24.769142 
L 324.234511 -24.273998 
L 325.04227 -23.771613 
L 325.850029 -23.263625 
L 326.657788 -22.751761 
L 327.465547 -22.237757 
L 328.273306 -21.723293 
L 329.081065 -21.209928 
L 329.888825 -20.699039 
L 330.696584 -20.191793 
L 331.504343 -19.689128 
L 332.312102 -19.191759 
L 333.119861 -18.700215 
L 333.92762 -18.21488 
L 334.735379 -17.736061 
L 335.543138 -17.264048 
L 336.350898 -16.799183 
L 337.158657 -16.34191 
L 337.966416 -15.892809 
L 338.774175 -15.452606 
L 339.581934 -15.022161 
L 340.389693 -14.602432 
L 341.197452 -14.194418 
L 342.005211 -13.799088 
L 342.81297 -13.417315 
L 343.62073 -13.049803 
L 344.428489 -12.697036 
L 345.236248 -12.359241 
L 346.044007 -12.036376 
L 346.851766 -11.728143 
L 347.659525 -11.434015 
L 348.467284 -11.153278 
L 349.275043 -10.885087 
L 350.082803 -10.628513 
L 350.890562 -10.382587 
L 351.698321 -10.146334 
L 352.50608 -9.918791 
L 353.313839 -9.699014 
L 354.121598 -9.486073 
L 354.929357 -9.279048 
L 355.737116 -9.077018 
L 356.544876 -8.879058 
L 357.352635 -8.684245 
L 358.160394 -8.491671 
L 358.968153 -8.300471 
L 359.775912 -8.109851 
L 360.583671 -7.919126 
L 361.39143 -7.727758 
L 362.199189 -7.53538 
L 363.006948 -7.341827 
L 363.814708 -7.147141 
L 364.622467 -6.951569 
L 365.430226 -6.755555 
L 366.237985 -6.559709 
L 367.045744 -6.364778 
L 367.853503 -6.17161 
L 368.661262 -5.981113 
L 369.469021 -5.794221 
L 370.276781 -5.61186 
L 371.08454 -5.43492 
L 371.892299 -5.264238 
L 372.700058 -5.100576 
L 373.507817 -4.944615 
L 374.315576 -4.796941 
L 375.123335 -4.65804 
L 375.931094 -4.528291 
L 376.738854 -4.407955 
L 377.546613 -4.297171 
L 378.354372 -4.195948 
L 379.162131 -4.104156 
L 379.96989 -4.021524 
L 380.777649 -3.947641 
L 381.585408 -3.881958 
L 382.393167 -3.8238 
L 383.200926 -3.772385 
L 384.008686 -3.726844 
L 384.816445 -3.686252 
L 385.624204 -3.649658 
L 385.624204 -2.470909 
L 385.624204 -2.470909 
L 384.816445 -2.470909 
L 384.008686 -2.470909 
L 383.200926 -2.470909 
L 382.393167 -2.470909 
L 381.585408 -2.470909 
L 380.777649 -2.470909 
L 379.96989 -2.470909 
L 379.162131 -2.470909 
L 378.354372 -2.470909 
L 377.546613 -2.470909 
L 376.738854 -2.470909 
L 375.931094 -2.470909 
L 375.123335 -2.470909 
L 374.315576 -2.470909 
L 373.507817 -2.470909 
L 372.700058 -2.470909 
L 371.892299 -2.470909 
L 371.08454 -2.470909 
L 370.276781 -2.470909 
L 369.469021 -2.470909 
L 368.661262 -2.470909 
L 367.853503 -2.470909 
L 367.045744 -2.470909 
L 366.237985 -2.470909 
L 365.430226 -2.470909 
L 364.622467 -2.470909 
L 363.814708 -2.470909 
L 363.006948 -2.470909 
L 362.199189 -2.470909 
L 361.39143 -2.470909 
L 360.583671 -2.470909 
L 359.775912 -2.470909 
L 358.968153 -2.470909 
L 358.160394 -2.470909 
L 357.352635 -2.470909 
L 356.544876 -2.470909 
L 355.737116 -2.470909 
L 354.929357 -2.470909 
L 354.121598 -2.470909 
L 353.313839 -2.470909 
L 352.50608 -2.470909 
L 351.698321 -2.470909 
L 350.890562 -2.470909 
L 350.082803 -2.470909 
L 349.275043 -2.470909 
L 348.467284 -2.470909 
L 347.659525 -2.470909 
L 346.851766 -2.470909 
L 346.044007 -2.470909 
L 345.236248 -2.470909 
L 344.428489 -2.470909 
L 343.62073 -2.470909 
L 342.81297 -2.470909 
L 342.005211 -2.470909 
L 341.197452 -2.470909 
L 340.389693 -2.470909 
L 339.581934 -2.470909 
L 338.774175 -2.470909 
L 337.966416 -2.470909 
L 337.158657 -2.470909 
L 336.350898 -2.470909 
L 335.543138 -2.470909 
L 334.735379 -2.470909 
L 333.92762 -2.470909 
L 333.119861 -2.470909 
L 332.312102 -2.470909 
L 331.504343 -2.470909 
L 330.696584 -2.470909 
L 329.888825 -2.470909 
L 329.081065 -2.470909 
L 328.273306 -2.470909 
L 327.465547 -2.470909 
L 326.657788 -2.470909 
L 325.850029 -2.470909 
L 325.04227 -2.470909 
L 324.234511 -2.470909 
L 323.426752 -2.470909 
L 322.618992 -2.470909 
L 321.811233 -2.470909 
L 321.003474 -2.470909 
L 320.195715 -2.470909 
L 319.387956 -2.470909 
L 318.580197 -2.470909 
L 317.772438 -2.470909 
L 316.964679 -2.470909 
L 316.15692 -2.470909 
L 315.34916 -2.470909 
L 314.541401 -2.470909 
L 313.733642 -2.470909 
L 312.925883 -2.470909 
L 312.118124 -2.470909 
L 311.310365 -2.470909 
L 310.502606 -2.470909 
L 309.694847 -2.470909 
L 308.887087 -2.470909 
L 308.079328 -2.470909 
L 307.271569 -2.470909 
L 306.46381 -2.470909 
L 305.656051 -2.470909 
L 304.848292 -2.470909 
L 304.040533 -2.470909 
L 303.232774 -2.470909 
L 302.425014 -2.470909 
L 301.617255 -2.470909 
L 300.809496 -2.470909 
L 300.001737 -2.470909 
L 299.193978 -2.470909 
L 298.386219 -2.470909 
L 297.57846 -2.470909 
L 296.770701 -2.470909 
L 295.962942 -2.470909 
L 295.155182 -2.470909 
L 294.347423 -2.470909 
L 293.539664 -2.470909 
L 292.731905 -2.470909 
L 291.924146 -2.470909 
L 291.116387 -2.470909 
L 290.308628 -2.470909 
L 289.500869 -2.470909 
L 288.693109 -2.470909 
L 287.88535 -2.470909 
L 287.077591 -2.470909 
L 286.269832 -2.470909 
L 285.462073 -2.470909 
L 284.654314 -2.470909 
L 283.846555 -2.470909 
L 283.038796 -2.470909 
L 282.231036 -2.470909 
L 281.423277 -2.470909 
L 280.615518 -2.470909 
L 279.807759 -2.470909 
L 279 -2.470909 
L 278.192241 -2.470909 
L 277.384482 -2.470909 
L 276.576723 -2.470909 
L 275.768964 -2.470909 
L 274.961204 -2.470909 
L 274.153445 -2.470909 
L 273.345686 -2.470909 
L 272.537927 -2.470909 
L 271.730168 -2.470909 
L 270.922409 -2.470909 
L 270.11465 -2.470909 
L 269.306891 -2.470909 
L 268.499131 -2.470909 
L 267.691372 -2.470909 
L 266.883613 -2.470909 
L 266.075854 -2.470909 
L 265.268095 -2.470909 
L 264.460336 -2.470909 
L 263.652577 -2.470909 
L 262.844818 -2.470909 
L 262.037058 -2.470909 
L 261.229299 -2.470909 
L 260.42154 -2.470909 
L 259.613781 -2.470909 
L 258.806022 -2.470909 
L 257.998263 -2.470909 
L 257.190504 -2.470909 
L 256.382745 -2.470909 
L 255.574986 -2.470909 
L 254.767226 -2.470909 
L 253.959467 -2.470909 
L 253.151708 -2.470909 
L 252.343949 -2.470909 
L 251.53619 -2.470909 
L 250.728431 -2.470909 
L 249.920672 -2.470909 
L 249.112913 -2.470909 
L 248.305153 -2.470909 
L 247.497394 -2.470909 
L 246.689635 -2.470909 
L 245.881876 -2.470909 
L 245.074117 -2.470909 
L 244.266358 -2.470909 
L 243.458599 -2.470909 
L 242.65084 -2.470909 
L 241.84308 -2.470909 
L 241.035321 -2.470909 
L 240.227562 -2.470909 
L 239.419803 -2.470909 
L 238.612044 -2.470909 
L 237.804285 -2.470909 
L 236.996526 -2.470909 
L 236.188767 -2.470909 
L 235.381008 -2.470909 
L 234.573248 -2.470909 
L 233.765489 -2.470909 
L 232.95773 -2.470909 
L 232.149971 -2.470909 
L 231.342212 -2.470909 
L 230.534453 -2.470909 
L 229.726694 -2.470909 
L 228.918935 -2.470909 
L 228.111175 -2.470909 
L 227.303416 -2.470909 
L 226.495657 -2.470909 
L 225.687898 -2.470909 
L 224.880139 -2.470909 
L 224.07238 -2.470909 
L 223.264621 -2.470909 
L 222.456862 -2.470909 
L 221.649102 -2.470909 
L 220.841343 -2.470909 
L 220.033584 -2.470909 
L 219.225825 -2.470909 
L 218.418066 -2.470909 
L 217.610307 -2.470909 
L 216.802548 -2.470909 
L 215.994789 -2.470909 
L 215.18703 -2.470909 
L 214.37927 -2.470909 
L 213.571511 -2.470909 
L 212.763752 -2.470909 
L 211.955993 -2.470909 
L 211.148234 -2.470909 
L 210.340475 -2.470909 
L 209.532716 -2.470909 
L 208.724957 -2.470909 
L 207.917197 -2.470909 
L 207.109438 -2.470909 
L 206.301679 -2.470909 
L 205.49392 -2.470909 
L 204.686161 -2.470909 
L 203.878402 -2.470909 
L 203.070643 -2.470909 
L 202.262884 -2.470909 
L 201.455124 -2.470909 
L 200.647365 -2.470909 
L 199.839606 -2.470909 
L 199.031847 -2.470909 
L 198.224088 -2.470909 
L 197.416329 -2.470909 
L 196.60857 -2.470909 
L 195.800811 -2.470909 
L 194.993052 -2.470909 
L 194.185292 -2.470909 
L 193.377533 -2.470909 
L 192.569774 -2.470909 
L 191.762015 -2.470909 
L 190.954256 -2.470909 
L 190.146497 -2.470909 
L 189.338738 -2.470909 
L 188.530979 -2.470909 
L 187.723219 -2.470909 
L 186.91546 -2.470909 
L 186.107701 -2.470909 
L 185.299942 -2.470909 
L 184.492183 -2.470909 
z
" style="stroke: #cf1313; stroke-opacity: 0.2"/>
    </defs>
    <g clip-path="url(#pd303291f68)">
     <use xlink:href="#mee2316af35" x="0" y="54.36" style="fill: #cf1313; fill-opacity: 0.2; stroke: #cf1313; stroke-opacity: 0.2"/>
    </g>
   </g>
   <g id="PolyCollection_2">
    <defs>
     <path id="mb3f81afbab" d="M 367.045744 -2.470909 
L 367.045744 -4.152548 
L 367.853503 -4.233571 
L 368.661262 -4.316922 
L 369.469021 -4.403757 
L 370.276781 -4.495322 
L 371.08454 -4.592911 
L 371.892299 -4.697818 
L 372.700058 -4.811302 
L 373.507817 -4.934548 
L 374.315576 -5.068636 
L 375.123335 -5.214502 
L 375.931094 -5.372905 
L 376.738854 -5.544406 
L 377.546613 -5.729337 
L 378.354372 -5.927808 
L 379.162131 -6.139718 
L 379.96989 -6.364807 
L 380.777649 -6.602731 
L 381.585408 -6.853166 
L 382.393167 -7.115913 
L 383.200926 -7.391007 
L 384.008686 -7.678783 
L 384.816445 -7.979887 
L 385.624204 -8.295213 
L 386.431963 -8.625767 
L 387.239722 -8.972458 
L 388.047481 -9.335855 
L 388.85524 -9.715948 
L 389.662999 -10.111952 
L 390.470759 -10.522205 
L 391.278518 -10.944174 
L 392.086277 -11.374594 
L 392.894036 -11.80972 
L 393.701795 -12.245659 
L 394.509554 -12.678736 
L 395.317313 -13.105855 
L 396.125072 -13.524796 
L 396.932831 -13.934429 
L 397.740591 -14.33482 
L 398.54835 -14.727232 
L 399.356109 -15.11404 
L 400.163868 -15.498575 
L 400.971627 -15.884915 
L 401.779386 -16.277657 
L 402.587145 -16.681665 
L 403.394904 -17.101797 
L 404.202664 -17.542634 
L 405.010423 -18.008184 
L 405.818182 -18.50159 
L 406.625941 -19.024844 
L 407.4337 -19.578542 
L 408.241459 -20.161713 
L 409.049218 -20.771743 
L 409.856977 -21.404449 
L 410.664737 -22.054302 
L 411.472496 -22.714809 
L 412.280255 -23.379044 
L 413.088014 -24.040262 
L 413.895773 -24.692563 
L 414.703532 -25.331503 
L 415.511291 -25.954596 
L 416.31905 -26.561607 
L 417.126809 -27.154602 
L 417.934569 -27.737709 
L 418.742328 -28.316594 
L 419.550087 -28.897706 
L 420.357846 -29.487352 
L 421.165605 -30.090725 
L 421.973364 -30.710999 
L 422.781123 -31.348622 
L 423.588882 -32.000917 
L 424.396642 -32.66206 
L 425.204401 -33.323461 
L 426.01216 -33.974516 
L 426.819919 -34.603638 
L 427.627678 -35.199444 
L 428.435437 -35.751934 
L 429.243196 -36.253503 
L 430.050955 -36.699671 
L 430.858715 -37.08943 
L 431.666474 -37.425199 
L 432.474233 -37.712423 
L 433.281992 -37.9589 
L 434.089751 -38.173971 
L 434.89751 -38.367674 
L 435.705269 -38.549985 
L 436.513028 -38.730196 
L 437.320787 -38.91646 
L 438.128547 -39.115474 
L 438.936306 -39.332272 
L 439.744065 -39.570066 
L 440.551824 -39.830124 
L 441.359583 -40.111666 
L 442.167342 -40.411802 
L 442.975101 -40.72556 
L 443.78286 -41.04605 
L 444.59062 -41.364788 
L 445.398379 -41.672194 
L 446.206138 -41.958223 
L 447.013897 -42.213089 
L 447.821656 -42.427978 
L 448.629415 -42.595682 
L 449.437174 -42.711073 
L 450.244933 -42.771377 
L 451.052693 -42.776224 
L 451.860452 -42.727494 
L 452.668211 -42.628983 
L 453.47597 -42.485959 
L 454.283729 -42.304633 
L 455.091488 -42.091607 
L 455.899247 -41.853343 
L 456.707006 -41.595671 
L 457.514765 -41.323385 
L 458.322525 -41.039944 
L 459.130284 -40.747316 
L 459.938043 -40.445978 
L 460.745802 -40.135084 
L 461.553561 -39.812787 
L 462.36132 -39.476685 
L 463.169079 -39.124332 
L 463.976838 -38.753748 
L 464.784598 -38.363852 
L 465.592357 -37.954748 
L 466.400116 -37.527836 
L 467.207875 -37.085704 
L 468.015634 -36.631845 
L 468.823393 -36.170222 
L 469.631152 -35.704761 
L 470.438911 -35.238851 
L 471.246671 -34.774925 
L 472.05443 -34.314202 
L 472.862189 -33.856628 
L 473.669948 -33.401022 
L 474.477707 -32.945406 
L 475.285466 -32.487455 
L 476.093225 -32.02498 
L 476.900984 -31.556348 
L 477.708743 -31.080756 
L 478.516503 -30.598287 
L 479.324262 -30.109741 
L 480.132021 -29.616269 
L 480.93978 -29.118865 
L 481.747539 -28.617844 
L 482.555298 -28.112399 
L 483.363057 -27.600353 
L 484.170816 -27.078166 
L 484.978576 -26.541232 
L 485.786335 -25.98443 
L 486.594094 -25.402857 
L 487.401853 -24.792632 
L 488.209612 -24.151641 
L 489.017371 -23.480103 
L 489.82513 -22.780866 
L 490.632889 -22.059362 
L 491.440649 -21.32323 
L 492.248408 -20.581645 
L 493.056167 -19.844441 
L 493.863926 -19.121146 
L 494.671685 -18.420067 
L 495.479444 -17.747532 
L 496.287203 -17.107406 
L 497.094962 -16.500919 
L 497.902721 -15.926824 
L 498.710481 -15.381848 
L 499.51824 -14.861347 
L 500.325999 -14.360083 
L 501.133758 -13.872985 
L 501.941517 -13.395815 
L 502.749276 -12.925645 
L 503.557035 -12.461115 
L 504.364794 -12.002452 
L 505.172554 -11.551285 
L 505.980313 -11.1103 
L 506.788072 -10.68281 
L 507.595831 -10.272297 
L 508.40359 -9.881994 
L 509.211349 -9.514546 
L 510.019108 -9.171781 
L 510.826867 -8.854597 
L 511.634627 -8.562952 
L 512.442386 -8.29594 
L 513.250145 -8.051926 
L 514.057904 -7.828704 
L 514.865663 -7.623666 
L 515.673422 -7.433954 
L 516.481181 -7.256589 
L 517.28894 -7.088598 
L 518.096699 -6.927109 
L 518.904459 -6.769472 
L 519.712218 -6.613362 
L 520.519977 -6.456911 
L 521.327736 -6.298811 
L 522.135495 -6.138411 
L 522.943254 -5.975754 
L 523.751013 -5.811564 
L 524.558772 -5.647147 
L 525.366532 -5.484228 
L 526.174291 -5.324736 
L 526.98205 -5.170559 
L 527.789809 -5.023312 
L 528.597568 -4.884138 
L 529.405327 -4.753585 
L 530.213086 -4.631554 
L 531.020845 -4.517333 
L 531.828605 -4.4097 
L 532.636364 -4.307083 
L 532.636364 -2.470909 
L 532.636364 -2.470909 
L 531.828605 -2.470909 
L 531.020845 -2.470909 
L 530.213086 -2.470909 
L 529.405327 -2.470909 
L 528.597568 -2.470909 
L 527.789809 -2.470909 
L 526.98205 -2.470909 
L 526.174291 -2.470909 
L 525.366532 -2.470909 
L 524.558772 -2.470909 
L 523.751013 -2.470909 
L 522.943254 -2.470909 
L 522.135495 -2.470909 
L 521.327736 -2.470909 
L 520.519977 -2.470909 
L 519.712218 -2.470909 
L 518.904459 -2.470909 
L 518.096699 -2.470909 
L 517.28894 -2.470909 
L 516.481181 -2.470909 
L 515.673422 -2.470909 
L 514.865663 -2.470909 
L 514.057904 -2.470909 
L 513.250145 -2.470909 
L 512.442386 -2.470909 
L 511.634627 -2.470909 
L 510.826867 -2.470909 
L 510.019108 -2.470909 
L 509.211349 -2.470909 
L 508.40359 -2.470909 
L 507.595831 -2.470909 
L 506.788072 -2.470909 
L 505.980313 -2.470909 
L 505.172554 -2.470909 
L 504.364794 -2.470909 
L 503.557035 -2.470909 
L 502.749276 -2.470909 
L 501.941517 -2.470909 
L 501.133758 -2.470909 
L 500.325999 -2.470909 
L 499.51824 -2.470909 
L 498.710481 -2.470909 
L 497.902721 -2.470909 
L 497.094962 -2.470909 
L 496.287203 -2.470909 
L 495.479444 -2.470909 
L 494.671685 -2.470909 
L 493.863926 -2.470909 
L 493.056167 -2.470909 
L 492.248408 -2.470909 
L 491.440649 -2.470909 
L 490.632889 -2.470909 
L 489.82513 -2.470909 
L 489.017371 -2.470909 
L 488.209612 -2.470909 
L 487.401853 -2.470909 
L 486.594094 -2.470909 
L 485.786335 -2.470909 
L 484.978576 -2.470909 
L 484.170816 -2.470909 
L 483.363057 -2.470909 
L 482.555298 -2.470909 
L 481.747539 -2.470909 
L 480.93978 -2.470909 
L 480.132021 -2.470909 
L 479.324262 -2.470909 
L 478.516503 -2.470909 
L 477.708743 -2.470909 
L 476.900984 -2.470909 
L 476.093225 -2.470909 
L 475.285466 -2.470909 
L 474.477707 -2.470909 
L 473.669948 -2.470909 
L 472.862189 -2.470909 
L 472.05443 -2.470909 
L 471.246671 -2.470909 
L 470.438911 -2.470909 
L 469.631152 -2.470909 
L 468.823393 -2.470909 
L 468.015634 -2.470909 
L 467.207875 -2.470909 
L 466.400116 -2.470909 
L 465.592357 -2.470909 
L 464.784598 -2.470909 
L 463.976838 -2.470909 
L 463.169079 -2.470909 
L 462.36132 -2.470909 
L 461.553561 -2.470909 
L 460.745802 -2.470909 
L 459.938043 -2.470909 
L 459.130284 -2.470909 
L 458.322525 -2.470909 
L 457.514765 -2.470909 
L 456.707006 -2.470909 
L 455.899247 -2.470909 
L 455.091488 -2.470909 
L 454.283729 -2.470909 
L 453.47597 -2.470909 
L 452.668211 -2.470909 
L 451.860452 -2.470909 
L 451.052693 -2.470909 
L 450.244933 -2.470909 
L 449.437174 -2.470909 
L 448.629415 -2.470909 
L 447.821656 -2.470909 
L 447.013897 -2.470909 
L 446.206138 -2.470909 
L 445.398379 -2.470909 
L 444.59062 -2.470909 
L 443.78286 -2.470909 
L 442.975101 -2.470909 
L 442.167342 -2.470909 
L 441.359583 -2.470909 
L 440.551824 -2.470909 
L 439.744065 -2.470909 
L 438.936306 -2.470909 
L 438.128547 -2.470909 
L 437.320787 -2.470909 
L 436.513028 -2.470909 
L 435.705269 -2.470909 
L 434.89751 -2.470909 
L 434.089751 -2.470909 
L 433.281992 -2.470909 
L 432.474233 -2.470909 
L 431.666474 -2.470909 
L 430.858715 -2.470909 
L 430.050955 -2.470909 
L 429.243196 -2.470909 
L 428.435437 -2.470909 
L 427.627678 -2.470909 
L 426.819919 -2.470909 
L 426.01216 -2.470909 
L 425.204401 -2.470909 
L 424.396642 -2.470909 
L 423.588882 -2.470909 
L 422.781123 -2.470909 
L 421.973364 -2.470909 
L 421.165605 -2.470909 
L 420.357846 -2.470909 
L 419.550087 -2.470909 
L 418.742328 -2.470909 
L 417.934569 -2.470909 
L 417.126809 -2.470909 
L 416.31905 -2.470909 
L 415.511291 -2.470909 
L 414.703532 -2.470909 
L 413.895773 -2.470909 
L 413.088014 -2.470909 
L 412.280255 -2.470909 
L 411.472496 -2.470909 
L 410.664737 -2.470909 
L 409.856977 -2.470909 
L 409.049218 -2.470909 
L 408.241459 -2.470909 
L 407.4337 -2.470909 
L 406.625941 -2.470909 
L 405.818182 -2.470909 
L 405.010423 -2.470909 
L 404.202664 -2.470909 
L 403.394904 -2.470909 
L 402.587145 -2.470909 
L 401.779386 -2.470909 
L 400.971627 -2.470909 
L 400.163868 -2.470909 
L 399.356109 -2.470909 
L 398.54835 -2.470909 
L 397.740591 -2.470909 
L 396.932831 -2.470909 
L 396.125072 -2.470909 
L 395.317313 -2.470909 
L 394.509554 -2.470909 
L 393.701795 -2.470909 
L 392.894036 -2.470909 
L 392.086277 -2.470909 
L 391.278518 -2.470909 
L 390.470759 -2.470909 
L 389.662999 -2.470909 
L 388.85524 -2.470909 
L 388.047481 -2.470909 
L 387.239722 -2.470909 
L 386.431963 -2.470909 
L 385.624204 -2.470909 
L 384.816445 -2.470909 
L 384.008686 -2.470909 
L 383.200926 -2.470909 
L 382.393167 -2.470909 
L 381.585408 -2.470909 
L 380.777649 -2.470909 
L 379.96989 -2.470909 
L 379.162131 -2.470909 
L 378.354372 -2.470909 
L 377.546613 -2.470909 
L 376.738854 -2.470909 
L 375.931094 -2.470909 
L 375.123335 -2.470909 
L 374.315576 -2.470909 
L 373.507817 -2.470909 
L 372.700058 -2.470909 
L 371.892299 -2.470909 
L 371.08454 -2.470909 
L 370.276781 -2.470909 
L 369.469021 -2.470909 
L 368.661262 -2.470909 
L 367.853503 -2.470909 
L 367.045744 -2.470909 
z
" style="stroke: #116dc2; stroke-opacity: 0.2"/>
    </defs>
    <g clip-path="url(#pd303291f68)">
     <use xlink:href="#mb3f81afbab" x="0" y="54.36" style="fill: #116dc2; fill-opacity: 0.2; stroke: #116dc2; stroke-opacity: 0.2"/>
    </g>
   </g>
   <g id="PolyCollection_3">
    <defs>
     <path id="ma56471edab" d="M 25.363636 -2.470909 
L 25.363636 -4.414696 
L 26.171395 -4.729656 
L 26.979155 -5.039937 
L 27.786914 -5.372941 
L 28.594673 -5.766414 
L 29.402432 -6.248957 
L 30.210191 -6.83601 
L 31.01795 -7.533671 
L 31.825709 -8.337549 
L 32.633468 -9.235433 
L 33.441228 -10.227065 
L 34.248987 -11.341618 
L 35.056746 -12.617749 
L 35.864505 -14.055319 
L 36.672264 -15.598043 
L 37.480023 -17.181589 
L 38.287782 -18.801036 
L 39.095541 -20.517561 
L 39.903301 -22.387358 
L 40.71106 -24.386034 
L 41.518819 -26.409218 
L 42.326578 -28.342244 
L 43.134337 -30.121114 
L 43.942096 -31.742322 
L 44.749855 -33.254169 
L 45.557614 -34.760142 
L 46.365373 -36.4042 
L 47.173133 -38.302432 
L 47.980892 -40.45501 
L 48.788651 -42.71631 
L 49.59641 -44.858303 
L 50.404169 -46.68644 
L 51.211928 -48.132679 
L 52.019687 -49.267115 
L 52.827446 -50.215262 
L 53.635206 -51.031987 
L 54.442965 -51.63665 
L 55.250724 -51.889091 
L 56.058483 -51.758249 
L 56.866242 -51.414739 
L 57.674001 -51.122107 
L 58.48176 -51.000026 
L 59.289519 -50.879408 
L 60.097279 -50.396639 
L 60.905038 -49.253835 
L 61.712797 -47.428779 
L 62.520556 -45.180046 
L 63.328315 -42.872784 
L 64.136074 -40.770329 
L 64.943833 -38.922005 
L 65.751592 -37.190074 
L 66.559351 -35.375865 
L 67.367111 -33.356201 
L 68.17487 -31.144054 
L 68.982629 -28.849597 
L 69.790388 -26.594387 
L 70.598147 -24.452141 
L 71.405906 -22.444131 
L 72.213665 -20.567518 
L 73.021424 -18.825366 
L 73.829184 -17.238832 
L 74.636943 -15.834133 
L 75.444702 -14.616577 
L 76.252461 -13.558535 
L 77.06022 -12.611374 
L 77.867979 -11.724024 
L 78.675738 -10.853923 
L 79.483497 -9.976138 
L 80.291257 -9.093493 
L 81.099016 -8.235451 
L 81.906775 -7.441398 
L 82.714534 -6.743196 
L 83.522293 -6.158976 
L 84.330052 -5.692212 
L 85.137811 -5.327332 
L 85.94557 -5.026897 
L 85.94557 -2.470909 
L 85.94557 -2.470909 
L 85.137811 -2.470909 
L 84.330052 -2.470909 
L 83.522293 -2.470909 
L 82.714534 -2.470909 
L 81.906775 -2.470909 
L 81.099016 -2.470909 
L 80.291257 -2.470909 
L 79.483497 -2.470909 
L 78.675738 -2.470909 
L 77.867979 -2.470909 
L 77.06022 -2.470909 
L 76.252461 -2.470909 
L 75.444702 -2.470909 
L 74.636943 -2.470909 
L 73.829184 -2.470909 
L 73.021424 -2.470909 
L 72.213665 -2.470909 
L 71.405906 -2.470909 
L 70.598147 -2.470909 
L 69.790388 -2.470909 
L 68.982629 -2.470909 
L 68.17487 -2.470909 
L 67.367111 -2.470909 
L 66.559351 -2.470909 
L 65.751592 -2.470909 
L 64.943833 -2.470909 
L 64.136074 -2.470909 
L 63.328315 -2.470909 
L 62.520556 -2.470909 
L 61.712797 -2.470909 
L 60.905038 -2.470909 
L 60.097279 -2.470909 
L 59.289519 -2.470909 
L 58.48176 -2.470909 
L 57.674001 -2.470909 
L 56.866242 -2.470909 
L 56.058483 -2.470909 
L 55.250724 -2.470909 
L 54.442965 -2.470909 
L 53.635206 -2.470909 
L 52.827446 -2.470909 
L 52.019687 -2.470909 
L 51.211928 -2.470909 
L 50.404169 -2.470909 
L 49.59641 -2.470909 
L 48.788651 -2.470909 
L 47.980892 -2.470909 
L 47.173133 -2.470909 
L 46.365373 -2.470909 
L 45.557614 -2.470909 
L 44.749855 -2.470909 
L 43.942096 -2.470909 
L 43.134337 -2.470909 
L 42.326578 -2.470909 
L 41.518819 -2.470909 
L 40.71106 -2.470909 
L 39.903301 -2.470909 
L 39.095541 -2.470909 
L 38.287782 -2.470909 
L 37.480023 -2.470909 
L 36.672264 -2.470909 
L 35.864505 -2.470909 
L 35.056746 -2.470909 
L 34.248987 -2.470909 
L 33.441228 -2.470909 
L 32.633468 -2.470909 
L 31.825709 -2.470909 
L 31.01795 -2.470909 
L 30.210191 -2.470909 
L 29.402432 -2.470909 
L 28.594673 -2.470909 
L 27.786914 -2.470909 
L 26.979155 -2.470909 
L 26.171395 -2.470909 
L 25.363636 -2.470909 
z
" style="stroke: #8a8a8a; stroke-opacity: 0.2"/>
    </defs>
    <g clip-path="url(#pd303291f68)">
     <use xlink:href="#ma56471edab" x="0" y="54.36" style="fill: #8a8a8a; fill-opacity: 0.2; stroke: #8a8a8a; stroke-opacity: 0.2"/>
    </g>
   </g>
   <g id="line2d_1">
    <path d="M 184.492183 50.299962 
L 190.954256 49.567734 
L 194.993052 48.899534 
L 199.031847 47.997868 
L 204.686161 46.46809 
L 210.340475 44.730807 
L 214.37927 43.276804 
L 219.225825 41.306155 
L 228.111175 37.391827 
L 232.95773 35.096841 
L 236.188767 33.28124 
L 239.419803 31.194191 
L 246.689635 26.380713 
L 251.53619 23.511969 
L 254.767226 21.787339 
L 257.190504 20.677018 
L 259.613781 19.769839 
L 262.844818 18.83282 
L 269.306891 17.101947 
L 272.537927 15.972468 
L 278.192241 13.89139 
L 280.615518 13.232284 
L 283.038796 12.840263 
L 284.654314 12.756951 
L 286.269832 12.832119 
L 287.88535 13.07397 
L 289.500869 13.482267 
L 291.924146 14.37871 
L 294.347423 15.536375 
L 304.040533 20.523575 
L 308.887087 22.526878 
L 314.541401 24.883201 
L 318.580197 26.840065 
L 322.618992 29.10445 
L 328.273306 32.636707 
L 334.735379 36.623939 
L 339.581934 39.337839 
L 342.81297 40.942685 
L 346.044007 42.323624 
L 349.275043 43.474913 
L 353.313839 44.660986 
L 359.775912 46.250149 
L 373.507817 49.415385 
L 377.546613 50.062829 
L 381.585408 50.478042 
L 385.624204 50.710342 
L 385.624204 50.710342 
" clip-path="url(#pd303291f68)" style="fill: none; stroke: #cf1313; stroke-width: 1.5; stroke-linecap: square"/>
   </g>
   <g id="line2d_2">
    <path d="M 367.045744 50.207452 
L 372.700058 49.548698 
L 375.931094 48.987095 
L 379.162131 48.220282 
L 382.393167 47.244087 
L 385.624204 46.064787 
L 388.85524 44.644052 
L 392.894036 42.55028 
L 397.740591 40.02518 
L 404.202664 36.817366 
L 406.625941 35.335156 
L 409.049218 33.588257 
L 419.550087 25.462294 
L 422.781123 23.011378 
L 427.627678 19.160556 
L 429.243196 18.106497 
L 430.858715 17.27057 
L 432.474233 16.647577 
L 434.89751 15.992326 
L 439.744065 14.789934 
L 442.975101 13.63444 
L 447.013897 12.146911 
L 448.629415 11.764318 
L 450.244933 11.588623 
L 451.860452 11.632506 
L 453.47597 11.874041 
L 455.899247 12.506657 
L 459.130284 13.612684 
L 463.169079 15.235668 
L 466.400116 16.832164 
L 472.05443 20.045798 
L 480.132021 24.743731 
L 484.978576 27.818768 
L 487.401853 29.567368 
L 489.82513 31.579134 
L 496.287203 37.252594 
L 498.710481 38.978152 
L 501.941517 40.964185 
L 506.788072 43.67719 
L 509.211349 44.845454 
L 511.634627 45.797048 
L 514.057904 46.531296 
L 517.28894 47.271402 
L 529.405327 49.606415 
L 532.636364 50.052917 
L 532.636364 50.052917 
" clip-path="url(#pd303291f68)" style="fill: none; stroke: #116dc2; stroke-width: 1.5; stroke-linecap: square"/>
   </g>
   <g id="line2d_3">
    <path d="M 25.363636 49.945304 
L 26.171395 49.630344 
L 26.979155 49.320063 
L 27.786914 48.987059 
L 28.594673 48.593586 
L 29.402432 48.111043 
L 30.210191 47.52399 
L 31.01795 46.826329 
L 31.825709 46.022451 
L 32.633468 45.124567 
L 33.441228 44.132935 
L 34.248987 43.018382 
L 35.056746 41.742251 
L 35.864505 40.304681 
L 36.672264 38.761957 
L 37.480023 37.178411 
L 38.287782 35.558964 
L 39.095541 33.842439 
L 39.903301 31.972642 
L 40.71106 29.973966 
L 41.518819 27.950782 
L 42.326578 26.017756 
L 43.134337 24.238886 
L 43.942096 22.617678 
L 44.749855 21.105831 
L 45.557614 19.599858 
L 46.365373 17.9558 
L 47.173133 16.057568 
L 47.980892 13.90499 
L 48.788651 11.64369 
L 49.59641 9.501697 
L 50.404169 7.67356 
L 51.211928 6.227321 
L 52.019687 5.092885 
L 52.827446 4.144738 
L 53.635206 3.328013 
L 54.442965 2.72335 
L 55.250724 2.470909 
L 56.058483 2.601751 
L 56.866242 2.945261 
L 57.674001 3.237893 
L 58.48176 3.359974 
L 59.289519 3.480592 
L 60.097279 3.963361 
L 60.905038 5.106165 
L 61.712797 6.931221 
L 62.520556 9.179954 
L 63.328315 11.487216 
L 64.136074 13.589671 
L 64.943833 15.437995 
L 65.751592 17.169926 
L 66.559351 18.984135 
L 67.367111 21.003799 
L 68.17487 23.215946 
L 68.982629 25.510403 
L 69.790388 27.765613 
L 70.598147 29.907859 
L 71.405906 31.915869 
L 72.213665 33.792482 
L 73.021424 35.534634 
L 73.829184 37.121168 
L 74.636943 38.525867 
L 75.444702 39.743423 
L 76.252461 40.801465 
L 77.06022 41.748626 
L 77.867979 42.635976 
L 78.675738 43.506077 
L 79.483497 44.383862 
L 80.291257 45.266507 
L 81.099016 46.124549 
L 81.906775 46.918602 
L 82.714534 47.616804 
L 83.522293 48.201024 
L 84.330052 48.667788 
L 85.137811 49.032668 
L 85.94557 49.333103 
" clip-path="url(#pd303291f68)" style="fill: none; stroke: #8a8a8a; stroke-width: 1.5; stroke-linecap: square"/>
   </g>
  </g>
 </g>
 <defs>
  <clipPath id="pd303291f68">
   <rect x="0" y="-0" width="558" height="54.36"/>
  </clipPath>
 </defs>
</svg>
