<?xml version="1.0" encoding="utf-8" standalone="no"?>
<!DOCTYPE svg PUBLIC "-//W3C//DTD SVG 1.1//EN"
  "http://www.w3.org/Graphics/SVG/1.1/DTD/svg11.dtd">
<svg xmlns:xlink="http://www.w3.org/1999/xlink" width="558pt" height="54.36pt" viewBox="0 0 558 54.36" xmlns="http://www.w3.org/2000/svg" version="1.1">
 <metadata>
  <rdf:RDF xmlns:dc="http://purl.org/dc/elements/1.1/" xmlns:cc="http://creativecommons.org/ns#" xmlns:rdf="http://www.w3.org/1999/02/22-rdf-syntax-ns#">
   <cc:Work>
    <dc:type rdf:resource="http://purl.org/dc/dcmitype/StillImage"/>
    <dc:date>2024-09-15T09:31:09.807992</dc:date>
    <dc:format>image/svg+xml</dc:format>
    <dc:creator>
     <cc:Agent>
      <dc:title>Matplotlib v3.5.2, https://matplotlib.org/</dc:title>
     </cc:Agent>
    </dc:creator>
   </cc:Work>
  </rdf:RDF>
 </metadata>
 <defs>
  <style type="text/css">*{stroke-linejoin: round; stroke-linecap: butt}</style>
 </defs>
 <g id="figure_1">
  <g id="patch_1">
   <path d="M 0 54.36 
L 558 54.36 
L 558 0 
L 0 0 
L 0 54.36 
z
" style="fill: none; opacity: 0"/>
  </g>
  <g id="axes_1">
   <g id="PolyCollection_1">
    <defs>
     <path id="m2e7276413e" d="M 383.703979 -2.470909 
L 383.703979 -4.134249 
L 384.6066 -4.280793 
L 385.50922 -4.4352 
L 386.411841 -4.595955 
L 387.314461 -4.761477 
L 388.217082 -4.930325 
L 389.119702 -5.101398 
L 390.022323 -5.274089 
L 390.924943 -5.448399 
L 391.827564 -5.624982 
L 392.730184 -5.805154 
L 393.632805 -5.990864 
L 394.535425 -6.184657 
L 395.438046 -6.389624 
L 396.340666 -6.609335 
L 397.243287 -6.847733 
L 398.145907 -7.108975 
L 399.048528 -7.397173 
L 399.951148 -7.716052 
L 400.853769 -8.068519 
L 401.75639 -8.456211 
L 402.65901 -8.879078 
L 403.561631 -9.335125 
L 404.464251 -9.820388 
L 405.366872 -10.329222 
L 406.269492 -10.854903 
L 407.172113 -11.390486 
L 408.074733 -11.929777 
L 408.977354 -12.468234 
L 409.879974 -13.003614 
L 410.782595 -13.536198 
L 411.685215 -14.068536 
L 412.587836 -14.604734 
L 413.490456 -15.14946 
L 414.393077 -15.706889 
L 415.295697 -16.279849 
L 416.198318 -16.869404 
L 417.100938 -17.474983 
L 418.003559 -18.095015 
L 418.906179 -18.727904 
L 419.8088 -19.373029 
L 420.71142 -20.031452 
L 421.614041 -20.706048 
L 422.516661 -21.400958 
L 423.419282 -22.120406 
L 424.321902 -22.867179 
L 425.224523 -23.64114 
L 426.127143 -24.43823 
L 427.029764 -25.25026 
L 427.932384 -26.06565 
L 428.835005 -26.870992 
L 429.737625 -27.653109 
L 430.640246 -28.401153 
L 431.542866 -29.10826 
L 432.445487 -29.772422 
L 433.348107 -30.39641 
L 434.250728 -30.986839 
L 435.153348 -31.552627 
L 436.055969 -32.103194 
L 436.958589 -32.646767 
L 437.86121 -33.189087 
L 438.76383 -33.732686 
L 439.666451 -34.276789 
L 440.569071 -34.8178 
L 441.471692 -35.350203 
L 442.374313 -35.867674 
L 443.276933 -36.364157 
L 444.179554 -36.834672 
L 445.082174 -37.275732 
L 445.984795 -37.685323 
L 446.887415 -38.062564 
L 447.790036 -38.407255 
L 448.692656 -38.719523 
L 449.595277 -38.999723 
L 450.497897 -39.248612 
L 451.400518 -39.46767 
L 452.303138 -39.659348 
L 453.205759 -39.827025 
L 454.108379 -39.974579 
L 455.011 -40.105598 
L 455.91362 -40.222461 
L 456.816241 -40.325549 
L 457.718861 -40.412846 
L 458.621482 -40.480067 
L 459.524102 -40.521278 
L 460.426723 -40.529852 
L 461.329343 -40.499528 
L 462.231964 -40.425358 
L 463.134584 -40.304378 
L 464.037205 -40.135945 
L 464.939825 -39.921691 
L 465.842446 -39.665141 
L 466.745066 -39.371042 
L 467.647687 -39.044478 
L 468.550307 -38.689922 
L 469.452928 -38.310408 
L 470.355548 -37.906992 
L 471.258169 -37.478659 
L 472.160789 -37.022675 
L 473.06341 -36.535293 
L 473.96603 -36.012609 
L 474.868651 -35.45133 
L 475.771271 -34.849305 
L 476.673892 -34.205764 
L 477.576512 -33.521339 
L 478.479133 -32.798034 
L 479.381753 -32.039265 
L 480.284374 -31.250021 
L 481.186995 -30.437078 
L 482.089615 -29.609075 
L 482.992236 -28.776283 
L 483.894856 -27.949957 
L 484.797477 -27.141291 
L 485.700097 -26.360153 
L 486.602718 -25.613894 
L 487.505338 -24.906475 
L 488.407959 -24.238139 
L 489.310579 -23.605652 
L 490.2132 -23.003041 
L 491.11582 -22.422633 
L 492.018441 -21.856173 
L 492.921061 -21.295838 
L 493.823682 -20.735017 
L 494.726302 -20.168806 
L 495.628923 -19.594221 
L 496.531543 -19.010142 
L 497.434164 -18.41706 
L 498.336784 -17.816671 
L 499.239405 -17.211404 
L 500.142025 -16.60399 
L 501.044646 -15.997148 
L 501.947266 -15.393441 
L 502.849887 -14.795322 
L 503.752507 -14.205281 
L 504.655128 -13.626024 
L 505.557748 -13.06055 
L 506.460369 -12.512063 
L 507.362989 -11.983716 
L 508.26561 -11.478243 
L 509.16823 -10.997575 
L 510.070851 -10.54258 
L 510.973471 -10.112974 
L 511.876092 -9.707443 
L 512.778712 -9.323939 
L 513.681333 -8.960062 
L 514.583953 -8.613434 
L 515.486574 -8.282013 
L 516.389194 -7.964266 
L 517.291815 -7.659218 
L 518.194435 -7.366379 
L 519.097056 -7.085588 
L 519.999676 -6.816824 
L 520.902297 -6.560039 
L 521.804918 -6.315046 
L 522.707538 -6.081495 
L 523.610159 -5.858932 
L 524.512779 -5.646906 
L 525.4154 -5.445078 
L 526.31802 -5.253287 
L 527.220641 -5.071539 
L 528.123261 -4.899923 
L 529.025882 -4.738481 
L 529.928502 -4.587095 
L 530.831123 -4.44541 
L 531.733743 -4.312849 
L 532.636364 -4.188666 
L 532.636364 -2.470909 
L 532.636364 -2.470909 
L 531.733743 -2.470909 
L 530.831123 -2.470909 
L 529.928502 -2.470909 
L 529.025882 -2.470909 
L 528.123261 -2.470909 
L 527.220641 -2.470909 
L 526.31802 -2.470909 
L 525.4154 -2.470909 
L 524.512779 -2.470909 
L 523.610159 -2.470909 
L 522.707538 -2.470909 
L 521.804918 -2.470909 
L 520.902297 -2.470909 
L 519.999676 -2.470909 
L 519.097056 -2.470909 
L 518.194435 -2.470909 
L 517.291815 -2.470909 
L 516.389194 -2.470909 
L 515.486574 -2.470909 
L 514.583953 -2.470909 
L 513.681333 -2.470909 
L 512.778712 -2.470909 
L 511.876092 -2.470909 
L 510.973471 -2.470909 
L 510.070851 -2.470909 
L 509.16823 -2.470909 
L 508.26561 -2.470909 
L 507.362989 -2.470909 
L 506.460369 -2.470909 
L 505.557748 -2.470909 
L 504.655128 -2.470909 
L 503.752507 -2.470909 
L 502.849887 -2.470909 
L 501.947266 -2.470909 
L 501.044646 -2.470909 
L 500.142025 -2.470909 
L 499.239405 -2.470909 
L 498.336784 -2.470909 
L 497.434164 -2.470909 
L 496.531543 -2.470909 
L 495.628923 -2.470909 
L 494.726302 -2.470909 
L 493.823682 -2.470909 
L 492.921061 -2.470909 
L 492.018441 -2.470909 
L 491.11582 -2.470909 
L 490.2132 -2.470909 
L 489.310579 -2.470909 
L 488.407959 -2.470909 
L 487.505338 -2.470909 
L 486.602718 -2.470909 
L 485.700097 -2.470909 
L 484.797477 -2.470909 
L 483.894856 -2.470909 
L 482.992236 -2.470909 
L 482.089615 -2.470909 
L 481.186995 -2.470909 
L 480.284374 -2.470909 
L 479.381753 -2.470909 
L 478.479133 -2.470909 
L 477.576512 -2.470909 
L 476.673892 -2.470909 
L 475.771271 -2.470909 
L 474.868651 -2.470909 
L 473.96603 -2.470909 
L 473.06341 -2.470909 
L 472.160789 -2.470909 
L 471.258169 -2.470909 
L 470.355548 -2.470909 
L 469.452928 -2.470909 
L 468.550307 -2.470909 
L 467.647687 -2.470909 
L 466.745066 -2.470909 
L 465.842446 -2.470909 
L 464.939825 -2.470909 
L 464.037205 -2.470909 
L 463.134584 -2.470909 
L 462.231964 -2.470909 
L 461.329343 -2.470909 
L 460.426723 -2.470909 
L 459.524102 -2.470909 
L 458.621482 -2.470909 
L 457.718861 -2.470909 
L 456.816241 -2.470909 
L 455.91362 -2.470909 
L 455.011 -2.470909 
L 454.108379 -2.470909 
L 453.205759 -2.470909 
L 452.303138 -2.470909 
L 451.400518 -2.470909 
L 450.497897 -2.470909 
L 449.595277 -2.470909 
L 448.692656 -2.470909 
L 447.790036 -2.470909 
L 446.887415 -2.470909 
L 445.984795 -2.470909 
L 445.082174 -2.470909 
L 444.179554 -2.470909 
L 443.276933 -2.470909 
L 442.374313 -2.470909 
L 441.471692 -2.470909 
L 440.569071 -2.470909 
L 439.666451 -2.470909 
L 438.76383 -2.470909 
L 437.86121 -2.470909 
L 436.958589 -2.470909 
L 436.055969 -2.470909 
L 435.153348 -2.470909 
L 434.250728 -2.470909 
L 433.348107 -2.470909 
L 432.445487 -2.470909 
L 431.542866 -2.470909 
L 430.640246 -2.470909 
L 429.737625 -2.470909 
L 428.835005 -2.470909 
L 427.932384 -2.470909 
L 427.029764 -2.470909 
L 426.127143 -2.470909 
L 425.224523 -2.470909 
L 424.321902 -2.470909 
L 423.419282 -2.470909 
L 422.516661 -2.470909 
L 421.614041 -2.470909 
L 420.71142 -2.470909 
L 419.8088 -2.470909 
L 418.906179 -2.470909 
L 418.003559 -2.470909 
L 417.100938 -2.470909 
L 416.198318 -2.470909 
L 415.295697 -2.470909 
L 414.393077 -2.470909 
L 413.490456 -2.470909 
L 412.587836 -2.470909 
L 411.685215 -2.470909 
L 410.782595 -2.470909 
L 409.879974 -2.470909 
L 408.977354 -2.470909 
L 408.074733 -2.470909 
L 407.172113 -2.470909 
L 406.269492 -2.470909 
L 405.366872 -2.470909 
L 404.464251 -2.470909 
L 403.561631 -2.470909 
L 402.65901 -2.470909 
L 401.75639 -2.470909 
L 400.853769 -2.470909 
L 399.951148 -2.470909 
L 399.048528 -2.470909 
L 398.145907 -2.470909 
L 397.243287 -2.470909 
L 396.340666 -2.470909 
L 395.438046 -2.470909 
L 394.535425 -2.470909 
L 393.632805 -2.470909 
L 392.730184 -2.470909 
L 391.827564 -2.470909 
L 390.924943 -2.470909 
L 390.022323 -2.470909 
L 389.119702 -2.470909 
L 388.217082 -2.470909 
L 387.314461 -2.470909 
L 386.411841 -2.470909 
L 385.50922 -2.470909 
L 384.6066 -2.470909 
L 383.703979 -2.470909 
z
" style="stroke: #cf1313; stroke-opacity: 0.2"/>
    </defs>
    <g clip-path="url(#pf8e0e2635b)">
     <use xlink:href="#m2e7276413e" x="0" y="54.36" style="fill: #cf1313; fill-opacity: 0.2; stroke: #cf1313; stroke-opacity: 0.2"/>
    </g>
   </g>
   <g id="PolyCollection_2">
    <defs>
     <path id="md3ca100bda" d="M 305.175995 -2.470909 
L 305.175995 -4.190992 
L 306.078615 -4.355354 
L 306.981236 -4.519504 
L 307.883856 -4.6828 
L 308.786477 -4.846209 
L 309.689097 -5.012207 
L 310.591718 -5.184441 
L 311.494338 -5.367169 
L 312.396959 -5.564575 
L 313.299579 -5.780049 
L 314.2022 -6.015538 
L 315.10482 -6.271078 
L 316.007441 -6.544599 
L 316.910061 -6.832077 
L 317.812682 -7.12803 
L 318.715302 -7.426347 
L 319.617923 -7.721323 
L 320.520544 -8.008747 
L 321.423164 -8.286867 
L 322.325785 -8.557021 
L 323.228405 -8.823808 
L 324.131026 -9.094712 
L 325.033646 -9.379215 
L 325.936267 -9.687514 
L 326.838887 -10.029043 
L 327.741508 -10.41103 
L 328.644128 -10.837344 
L 329.546749 -11.307818 
L 330.449369 -11.818168 
L 331.35199 -12.360541 
L 332.25461 -12.924584 
L 333.157231 -13.498873 
L 334.059851 -14.072467 
L 334.962472 -14.63632 
L 335.865092 -15.184363 
L 336.767713 -15.714096 
L 337.670333 -16.226669 
L 338.572954 -16.726486 
L 339.475574 -17.220449 
L 340.378195 -17.71699 
L 341.280815 -18.225036 
L 342.183436 -18.753023 
L 343.086056 -19.308051 
L 343.988677 -19.895231 
L 344.891297 -20.517258 
L 345.793918 -21.174199 
L 346.696538 -21.863517 
L 347.599159 -22.580277 
L 348.501779 -23.317551 
L 349.4044 -24.066971 
L 350.30702 -24.819423 
L 351.209641 -25.565852 
L 352.112261 -26.298115 
L 353.014882 -27.009817 
L 353.917502 -27.697012 
L 354.820123 -28.35866 
L 355.722743 -28.996721 
L 356.625364 -29.615819 
L 357.527984 -30.222477 
L 358.430605 -30.823987 
L 359.333225 -31.427093 
L 360.235846 -32.036688 
L 361.138467 -32.654774 
L 362.041087 -33.279925 
L 362.943708 -33.907366 
L 363.846328 -34.529722 
L 364.748949 -35.13829 
L 365.651569 -35.724582 
L 366.55419 -36.281769 
L 367.45681 -36.805693 
L 368.359431 -37.295174 
L 369.262051 -37.751539 
L 370.164672 -38.177489 
L 371.067292 -38.57561 
L 371.969913 -38.946939 
L 372.872533 -39.289968 
L 373.775154 -39.60038 
L 374.677774 -39.871576 
L 375.580395 -40.095899 
L 376.483015 -40.266228 
L 377.385636 -40.377585 
L 378.288256 -40.42835 
L 379.190877 -40.420843 
L 380.093497 -40.361146 
L 380.996118 -40.258259 
L 381.898738 -40.122789 
L 382.801359 -39.965483 
L 383.703979 -39.795883 
L 384.6066 -39.621315 
L 385.50922 -39.446325 
L 386.411841 -39.272537 
L 387.314461 -39.098842 
L 388.217082 -38.9218 
L 389.119702 -38.736144 
L 390.022323 -38.535303 
L 390.924943 -38.311944 
L 391.827564 -38.058513 
L 392.730184 -37.767805 
L 393.632805 -37.433538 
L 394.535425 -37.050923 
L 395.438046 -36.617152 
L 396.340666 -36.131781 
L 397.243287 -35.59693 
L 398.145907 -35.017281 
L 399.048528 -34.399852 
L 399.951148 -33.753538 
L 400.853769 -33.08843 
L 401.75639 -32.414959 
L 402.65901 -31.742926 
L 403.561631 -31.080534 
L 404.464251 -30.433552 
L 405.366872 -29.804765 
L 406.269492 -29.193796 
L 407.172113 -28.597367 
L 408.074733 -28.009934 
L 408.977354 -27.424584 
L 409.879974 -26.834025 
L 410.782595 -26.231497 
L 411.685215 -25.6115 
L 412.587836 -24.970271 
L 413.490456 -24.306036 
L 414.393077 -23.61908 
L 415.295697 -22.911687 
L 416.198318 -22.18797 
L 417.100938 -21.453597 
L 418.003559 -20.715384 
L 418.906179 -19.980772 
L 419.8088 -19.257204 
L 420.71142 -18.551482 
L 421.614041 -17.8692 
L 422.516661 -17.214319 
L 423.419282 -16.588962 
L 424.321902 -15.993422 
L 425.224523 -15.426366 
L 426.127143 -14.88519 
L 427.029764 -14.366444 
L 427.932384 -13.866298 
L 428.835005 -13.380978 
L 429.737625 -12.907153 
L 430.640246 -12.442238 
L 431.542866 -11.984597 
L 432.445487 -11.533641 
L 433.348107 -11.089811 
L 434.250728 -10.654466 
L 435.153348 -10.229683 
L 436.055969 -9.817983 
L 436.958589 -9.422008 
L 437.86121 -9.044176 
L 438.76383 -8.686334 
L 439.666451 -8.349467 
L 440.569071 -8.033501 
L 441.471692 -7.737259 
L 442.374313 -7.45858 
L 443.276933 -7.194619 
L 444.179554 -6.942257 
L 445.082174 -6.698574 
L 445.984795 -6.461269 
L 446.887415 -6.228951 
L 447.790036 -6.001245 
L 448.692656 -5.778693 
L 449.595277 -5.562485 
L 450.497897 -5.354087 
L 451.400518 -5.154848 
L 452.303138 -4.965668 
L 453.205759 -4.7868 
L 454.108379 -4.617808 
L 455.011 -4.45769 
L 455.91362 -4.305137 
L 456.816241 -4.158861 
L 456.816241 -2.470909 
L 456.816241 -2.470909 
L 455.91362 -2.470909 
L 455.011 -2.470909 
L 454.108379 -2.470909 
L 453.205759 -2.470909 
L 452.303138 -2.470909 
L 451.400518 -2.470909 
L 450.497897 -2.470909 
L 449.595277 -2.470909 
L 448.692656 -2.470909 
L 447.790036 -2.470909 
L 446.887415 -2.470909 
L 445.984795 -2.470909 
L 445.082174 -2.470909 
L 444.179554 -2.470909 
L 443.276933 -2.470909 
L 442.374313 -2.470909 
L 441.471692 -2.470909 
L 440.569071 -2.470909 
L 439.666451 -2.470909 
L 438.76383 -2.470909 
L 437.86121 -2.470909 
L 436.958589 -2.470909 
L 436.055969 -2.470909 
L 435.153348 -2.470909 
L 434.250728 -2.470909 
L 433.348107 -2.470909 
L 432.445487 -2.470909 
L 431.542866 -2.470909 
L 430.640246 -2.470909 
L 429.737625 -2.470909 
L 428.835005 -2.470909 
L 427.932384 -2.470909 
L 427.029764 -2.470909 
L 426.127143 -2.470909 
L 425.224523 -2.470909 
L 424.321902 -2.470909 
L 423.419282 -2.470909 
L 422.516661 -2.470909 
L 421.614041 -2.470909 
L 420.71142 -2.470909 
L 419.8088 -2.470909 
L 418.906179 -2.470909 
L 418.003559 -2.470909 
L 417.100938 -2.470909 
L 416.198318 -2.470909 
L 415.295697 -2.470909 
L 414.393077 -2.470909 
L 413.490456 -2.470909 
L 412.587836 -2.470909 
L 411.685215 -2.470909 
L 410.782595 -2.470909 
L 409.879974 -2.470909 
L 408.977354 -2.470909 
L 408.074733 -2.470909 
L 407.172113 -2.470909 
L 406.269492 -2.470909 
L 405.366872 -2.470909 
L 404.464251 -2.470909 
L 403.561631 -2.470909 
L 402.65901 -2.470909 
L 401.75639 -2.470909 
L 400.853769 -2.470909 
L 399.951148 -2.470909 
L 399.048528 -2.470909 
L 398.145907 -2.470909 
L 397.243287 -2.470909 
L 396.340666 -2.470909 
L 395.438046 -2.470909 
L 394.535425 -2.470909 
L 393.632805 -2.470909 
L 392.730184 -2.470909 
L 391.827564 -2.470909 
L 390.924943 -2.470909 
L 390.022323 -2.470909 
L 389.119702 -2.470909 
L 388.217082 -2.470909 
L 387.314461 -2.470909 
L 386.411841 -2.470909 
L 385.50922 -2.470909 
L 384.6066 -2.470909 
L 383.703979 -2.470909 
L 382.801359 -2.470909 
L 381.898738 -2.470909 
L 380.996118 -2.470909 
L 380.093497 -2.470909 
L 379.190877 -2.470909 
L 378.288256 -2.470909 
L 377.385636 -2.470909 
L 376.483015 -2.470909 
L 375.580395 -2.470909 
L 374.677774 -2.470909 
L 373.775154 -2.470909 
L 372.872533 -2.470909 
L 371.969913 -2.470909 
L 371.067292 -2.470909 
L 370.164672 -2.470909 
L 369.262051 -2.470909 
L 368.359431 -2.470909 
L 367.45681 -2.470909 
L 366.55419 -2.470909 
L 365.651569 -2.470909 
L 364.748949 -2.470909 
L 363.846328 -2.470909 
L 362.943708 -2.470909 
L 362.041087 -2.470909 
L 361.138467 -2.470909 
L 360.235846 -2.470909 
L 359.333225 -2.470909 
L 358.430605 -2.470909 
L 357.527984 -2.470909 
L 356.625364 -2.470909 
L 355.722743 -2.470909 
L 354.820123 -2.470909 
L 353.917502 -2.470909 
L 353.014882 -2.470909 
L 352.112261 -2.470909 
L 351.209641 -2.470909 
L 350.30702 -2.470909 
L 349.4044 -2.470909 
L 348.501779 -2.470909 
L 347.599159 -2.470909 
L 346.696538 -2.470909 
L 345.793918 -2.470909 
L 344.891297 -2.470909 
L 343.988677 -2.470909 
L 343.086056 -2.470909 
L 342.183436 -2.470909 
L 341.280815 -2.470909 
L 340.378195 -2.470909 
L 339.475574 -2.470909 
L 338.572954 -2.470909 
L 337.670333 -2.470909 
L 336.767713 -2.470909 
L 335.865092 -2.470909 
L 334.962472 -2.470909 
L 334.059851 -2.470909 
L 333.157231 -2.470909 
L 332.25461 -2.470909 
L 331.35199 -2.470909 
L 330.449369 -2.470909 
L 329.546749 -2.470909 
L 328.644128 -2.470909 
L 327.741508 -2.470909 
L 326.838887 -2.470909 
L 325.936267 -2.470909 
L 325.033646 -2.470909 
L 324.131026 -2.470909 
L 323.228405 -2.470909 
L 322.325785 -2.470909 
L 321.423164 -2.470909 
L 320.520544 -2.470909 
L 319.617923 -2.470909 
L 318.715302 -2.470909 
L 317.812682 -2.470909 
L 316.910061 -2.470909 
L 316.007441 -2.470909 
L 315.10482 -2.470909 
L 314.2022 -2.470909 
L 313.299579 -2.470909 
L 312.396959 -2.470909 
L 311.494338 -2.470909 
L 310.591718 -2.470909 
L 309.689097 -2.470909 
L 308.786477 -2.470909 
L 307.883856 -2.470909 
L 306.981236 -2.470909 
L 306.078615 -2.470909 
L 305.175995 -2.470909 
z
" style="stroke: #116dc2; stroke-opacity: 0.2"/>
    </defs>
    <g clip-path="url(#pf8e0e2635b)">
     <use xlink:href="#md3ca100bda" x="0" y="54.36" style="fill: #116dc2; fill-opacity: 0.2; stroke: #116dc2; stroke-opacity: 0.2"/>
    </g>
   </g>
   <g id="PolyCollection_3">
    <defs>
     <path id="m3b3529d9db" d="M 25.363636 -2.470909 
L 25.363636 -4.428281 
L 26.266257 -5.017928 
L 27.168877 -5.783005 
L 28.071498 -6.967564 
L 28.974118 -8.457327 
L 29.876739 -9.860377 
L 30.779359 -11.138686 
L 31.68198 -12.594578 
L 32.5846 -14.400306 
L 33.487221 -16.567838 
L 34.389841 -19.158823 
L 35.292462 -22.13844 
L 36.195082 -25.366163 
L 37.097703 -28.964172 
L 38.000324 -33.046401 
L 38.902944 -37.16115 
L 39.805565 -40.687949 
L 40.708185 -43.553057 
L 41.610806 -45.96821 
L 42.513426 -48.003981 
L 43.416047 -49.726453 
L 44.318667 -51.147487 
L 45.221288 -51.889091 
L 46.123908 -51.492932 
L 47.026529 -50.290166 
L 47.929149 -49.149725 
L 48.83177 -48.085678 
L 49.73439 -46.305591 
L 50.637011 -43.730255 
L 51.539631 -40.968465 
L 52.442252 -38.14367 
L 53.344872 -35.146345 
L 54.247493 -32.15143 
L 55.150113 -29.109406 
L 56.052734 -25.901199 
L 56.955354 -22.767593 
L 57.857975 -19.873257 
L 58.760595 -17.147947 
L 59.663216 -14.609148 
L 60.565836 -12.392713 
L 61.468457 -10.581922 
L 62.371077 -9.072699 
L 63.273698 -7.691443 
L 64.176318 -6.467974 
L 65.078939 -5.523103 
L 65.078939 -2.470909 
L 65.078939 -2.470909 
L 64.176318 -2.470909 
L 63.273698 -2.470909 
L 62.371077 -2.470909 
L 61.468457 -2.470909 
L 60.565836 -2.470909 
L 59.663216 -2.470909 
L 58.760595 -2.470909 
L 57.857975 -2.470909 
L 56.955354 -2.470909 
L 56.052734 -2.470909 
L 55.150113 -2.470909 
L 54.247493 -2.470909 
L 53.344872 -2.470909 
L 52.442252 -2.470909 
L 51.539631 -2.470909 
L 50.637011 -2.470909 
L 49.73439 -2.470909 
L 48.83177 -2.470909 
L 47.929149 -2.470909 
L 47.026529 -2.470909 
L 46.123908 -2.470909 
L 45.221288 -2.470909 
L 44.318667 -2.470909 
L 43.416047 -2.470909 
L 42.513426 -2.470909 
L 41.610806 -2.470909 
L 40.708185 -2.470909 
L 39.805565 -2.470909 
L 38.902944 -2.470909 
L 38.000324 -2.470909 
L 37.097703 -2.470909 
L 36.195082 -2.470909 
L 35.292462 -2.470909 
L 34.389841 -2.470909 
L 33.487221 -2.470909 
L 32.5846 -2.470909 
L 31.68198 -2.470909 
L 30.779359 -2.470909 
L 29.876739 -2.470909 
L 28.974118 -2.470909 
L 28.071498 -2.470909 
L 27.168877 -2.470909 
L 26.266257 -2.470909 
L 25.363636 -2.470909 
z
" style="stroke: #8a8a8a; stroke-opacity: 0.2"/>
    </defs>
    <g clip-path="url(#pf8e0e2635b)">
     <use xlink:href="#m3b3529d9db" x="0" y="54.36" style="fill: #8a8a8a; fill-opacity: 0.2; stroke: #8a8a8a; stroke-opacity: 0.2"/>
    </g>
   </g>
   <g id="line2d_1">
    <path d="M 383.703979 50.225751 
L 389.119702 49.258602 
L 395.438046 47.970376 
L 398.145907 47.251025 
L 400.853769 46.291481 
L 403.561631 45.024875 
L 407.172113 42.969514 
L 416.198318 37.490596 
L 419.8088 34.986971 
L 423.419282 32.239594 
L 427.029764 29.10974 
L 430.640246 25.958847 
L 433.348107 23.96359 
L 436.958589 21.713233 
L 443.276933 17.995843 
L 445.984795 16.674677 
L 448.692656 15.640477 
L 451.400518 14.89233 
L 454.108379 14.385421 
L 457.718861 13.947154 
L 460.426723 13.830148 
L 462.231964 13.934642 
L 464.037205 14.224055 
L 465.842446 14.694859 
L 468.550307 15.670078 
L 471.258169 16.881341 
L 473.96603 18.347391 
L 476.673892 20.154236 
L 479.381753 22.320735 
L 483.894856 26.410043 
L 486.602718 28.746106 
L 489.310579 30.754348 
L 492.921061 33.064162 
L 498.336784 36.543329 
L 505.557748 41.29945 
L 508.26561 42.881757 
L 510.973471 44.247026 
L 513.681333 45.399938 
L 517.291815 46.700782 
L 520.902297 47.799961 
L 525.4154 48.914922 
L 529.928502 49.772905 
L 532.636364 50.171334 
L 532.636364 50.171334 
" clip-path="url(#pf8e0e2635b)" style="fill: none; stroke: #cf1313; stroke-width: 1.5; stroke-linecap: square"/>
   </g>
   <g id="line2d_2">
    <path d="M 305.175995 50.169008 
L 313.299579 48.579951 
L 316.910061 47.527923 
L 327.741508 43.94897 
L 329.546749 43.052182 
L 332.25461 41.435416 
L 336.767713 38.645904 
L 343.988677 34.464769 
L 346.696538 32.496483 
L 356.625364 24.744181 
L 367.45681 17.554307 
L 370.164672 16.182511 
L 372.872533 15.070032 
L 374.677774 14.488424 
L 376.483015 14.093772 
L 378.288256 13.93165 
L 380.093497 13.998854 
L 382.801359 14.394517 
L 390.022323 15.824697 
L 392.730184 16.592195 
L 394.535425 17.309077 
L 396.340666 18.228219 
L 399.048528 19.960148 
L 408.977354 26.935416 
L 412.587836 29.389729 
L 416.198318 32.17203 
L 421.614041 36.4908 
L 424.321902 38.366578 
L 427.029764 39.993556 
L 431.542866 42.375403 
L 436.055969 44.542017 
L 439.666451 46.010533 
L 443.276933 47.165381 
L 448.692656 48.581307 
L 453.205759 49.5732 
L 456.816241 50.201139 
L 456.816241 50.201139 
" clip-path="url(#pf8e0e2635b)" style="fill: none; stroke: #116dc2; stroke-width: 1.5; stroke-linecap: square"/>
   </g>
   <g id="line2d_3">
    <path d="M 25.363636 49.931719 
L 26.266257 49.342072 
L 27.168877 48.576995 
L 28.071498 47.392436 
L 28.974118 45.902673 
L 29.876739 44.499623 
L 30.779359 43.221314 
L 31.68198 41.765422 
L 32.5846 39.959694 
L 33.487221 37.792162 
L 34.389841 35.201177 
L 35.292462 32.22156 
L 36.195082 28.993837 
L 37.097703 25.395828 
L 38.000324 21.313599 
L 38.902944 17.19885 
L 39.805565 13.672051 
L 40.708185 10.806943 
L 41.610806 8.39179 
L 42.513426 6.356019 
L 43.416047 4.633547 
L 44.318667 3.212513 
L 45.221288 2.470909 
L 46.123908 2.867068 
L 47.026529 4.069834 
L 47.929149 5.210275 
L 48.83177 6.274322 
L 49.73439 8.054409 
L 50.637011 10.629745 
L 51.539631 13.391535 
L 52.442252 16.21633 
L 53.344872 19.213655 
L 54.247493 22.20857 
L 55.150113 25.250594 
L 56.052734 28.458801 
L 56.955354 31.592407 
L 57.857975 34.486743 
L 58.760595 37.212053 
L 59.663216 39.750852 
L 60.565836 41.967287 
L 61.468457 43.778078 
L 62.371077 45.287301 
L 63.273698 46.668557 
L 64.176318 47.892026 
L 65.078939 48.836897 
" clip-path="url(#pf8e0e2635b)" style="fill: none; stroke: #8a8a8a; stroke-width: 1.5; stroke-linecap: square"/>
   </g>
  </g>
 </g>
 <defs>
  <clipPath id="pf8e0e2635b">
   <rect x="0" y="-0" width="558" height="54.36"/>
  </clipPath>
 </defs>
</svg>
