<?xml version="1.0" encoding="utf-8" standalone="no"?>
<!DOCTYPE svg PUBLIC "-//W3C//DTD SVG 1.1//EN"
  "http://www.w3.org/Graphics/SVG/1.1/DTD/svg11.dtd">
<svg xmlns:xlink="http://www.w3.org/1999/xlink" width="558pt" height="54.36pt" viewBox="0 0 558 54.36" xmlns="http://www.w3.org/2000/svg" version="1.1">
 <metadata>
  <rdf:RDF xmlns:dc="http://purl.org/dc/elements/1.1/" xmlns:cc="http://creativecommons.org/ns#" xmlns:rdf="http://www.w3.org/1999/02/22-rdf-syntax-ns#">
   <cc:Work>
    <dc:type rdf:resource="http://purl.org/dc/dcmitype/StillImage"/>
    <dc:date>2024-09-14T12:47:06.259671</dc:date>
    <dc:format>image/svg+xml</dc:format>
    <dc:creator>
     <cc:Agent>
      <dc:title>Matplotlib v3.5.2, https://matplotlib.org/</dc:title>
     </cc:Agent>
    </dc:creator>
   </cc:Work>
  </rdf:RDF>
 </metadata>
 <defs>
  <style type="text/css">*{stroke-linejoin: round; stroke-linecap: butt}</style>
 </defs>
 <g id="figure_1">
  <g id="patch_1">
   <path d="M 0 54.36 
L 558 54.36 
L 558 0 
L 0 0 
L 0 54.36 
z
" style="fill: none; opacity: 0"/>
  </g>
  <g id="axes_1">
   <g id="PolyCollection_1">
    <defs>
     <path id="mc2ff2b11f2" d="M 384.719629 -2.470909 
L 384.719629 -4.145535 
L 385.627094 -4.315327 
L 386.534558 -4.489817 
L 387.442023 -4.665999 
L 388.349488 -4.840829 
L 389.256952 -5.011665 
L 390.164417 -5.176778 
L 391.071882 -5.335859 
L 391.979346 -5.490361 
L 392.886811 -5.643591 
L 393.794275 -5.800468 
L 394.70174 -5.966975 
L 395.609205 -6.149396 
L 396.516669 -6.353472 
L 397.424134 -6.583651 
L 398.331599 -6.842568 
L 399.239063 -7.130855 
L 400.146528 -7.447285 
L 401.053993 -7.789226 
L 401.961457 -8.153282 
L 402.868922 -8.535999 
L 403.776386 -8.934478 
L 404.683851 -9.346769 
L 405.591316 -9.77198 
L 406.49878 -10.210102 
L 407.406245 -10.661611 
L 408.31371 -11.126999 
L 409.221174 -11.606364 
L 410.128639 -12.099164 
L 411.036103 -12.604198 
L 411.943568 -13.119758 
L 412.851033 -13.643904 
L 413.758497 -14.174767 
L 414.665962 -14.710831 
L 415.573427 -15.251199 
L 416.480891 -15.795853 
L 417.388356 -16.345913 
L 418.29582 -16.903852 
L 419.203285 -17.473562 
L 420.11075 -18.06015 
L 421.018214 -18.669384 
L 421.925679 -19.306772 
L 422.833144 -19.976419 
L 423.740608 -20.67989 
L 424.648073 -21.415368 
L 425.555537 -22.177365 
L 426.463002 -22.957104 
L 427.370467 -23.743561 
L 428.277931 -24.524948 
L 429.185396 -25.290339 
L 430.092861 -26.031089 
L 431.000325 -26.741782 
L 431.90779 -27.420547 
L 432.815255 -28.068758 
L 433.722719 -28.690248 
L 434.630184 -29.290242 
L 435.537648 -29.874261 
L 436.445113 -30.447166 
L 437.352578 -31.012511 
L 438.260042 -31.572249 
L 439.167507 -32.126805 
L 440.074972 -32.675447 
L 440.982436 -33.216823 
L 441.889901 -33.749509 
L 442.797365 -34.272392 
L 443.70483 -34.784783 
L 444.612295 -35.286246 
L 445.519759 -35.776229 
L 446.427224 -36.253682 
L 447.334689 -36.716835 
L 448.242153 -37.16324 
L 449.149618 -37.590064 
L 450.057082 -37.994521 
L 450.964547 -38.374252 
L 451.872012 -38.727542 
L 452.779476 -39.053312 
L 453.686941 -39.350953 
L 454.594406 -39.620084 
L 455.50187 -39.860312 
L 456.409335 -40.071028 
L 457.316799 -40.25118 
L 458.224264 -40.398995 
L 459.131729 -40.511645 
L 460.039193 -40.584957 
L 460.946658 -40.61332 
L 461.854123 -40.589932 
L 462.761587 -40.507469 
L 463.669052 -40.359121 
L 464.576517 -40.139808 
L 465.483981 -39.847307 
L 466.391446 -39.483042 
L 467.29891 -39.052347 
L 468.206375 -38.56415 
L 469.11384 -38.030153 
L 470.021304 -37.463668 
L 470.928769 -36.878303 
L 471.836234 -36.286699 
L 472.743698 -35.699467 
L 473.651163 -35.124411 
L 474.558627 -34.5661 
L 475.466092 -34.025801 
L 476.373557 -33.501733 
L 477.281021 -32.9896 
L 478.188486 -32.483304 
L 479.095951 -31.975739 
L 480.003415 -31.459578 
L 480.91088 -30.927966 
L 481.818344 -30.375107 
L 482.725809 -29.796737 
L 483.633274 -29.190486 
L 484.540738 -28.556146 
L 485.448203 -27.895784 
L 486.355668 -27.213661 
L 487.263132 -26.515883 
L 488.170597 -25.809774 
L 489.078061 -25.103 
L 489.985526 -24.402577 
L 490.892991 -23.713928 
L 491.800455 -23.040176 
L 492.70792 -22.381826 
L 493.615385 -21.736931 
L 494.522849 -21.101715 
L 495.430314 -20.471551 
L 496.337779 -19.842114 
L 497.245243 -19.210485 
L 498.152708 -18.575975 
L 499.060172 -17.940501 
L 499.967637 -17.308413 
L 500.875102 -16.685781 
L 501.782566 -16.07927 
L 502.690031 -15.494851 
L 503.597496 -14.936617 
L 504.50496 -14.406 
L 505.412425 -13.901576 
L 506.319889 -13.419504 
L 507.227354 -12.954474 
L 508.134819 -12.500907 
L 509.042283 -12.054093 
L 509.949748 -11.610984 
L 510.857213 -11.170486 
L 511.764677 -10.733267 
L 512.672142 -10.301209 
L 513.579606 -9.876748 
L 514.487071 -9.4623 
L 515.394536 -9.059924 
L 516.302 -8.671243 
L 517.209465 -8.297557 
L 518.11693 -7.940034 
L 519.024394 -7.599855 
L 519.931859 -7.278233 
L 520.839323 -6.976293 
L 521.746788 -6.694828 
L 522.654253 -6.434021 
L 523.561717 -6.193203 
L 524.469182 -5.97072 
L 525.376647 -5.763965 
L 526.284111 -5.569588 
L 527.191576 -5.383864 
L 528.09904 -5.20317 
L 529.006505 -5.024482 
L 529.91397 -4.845808 
L 530.821434 -4.666474 
L 531.728899 -4.487193 
L 532.636364 -4.309918 
L 532.636364 -2.470909 
L 532.636364 -2.470909 
L 531.728899 -2.470909 
L 530.821434 -2.470909 
L 529.91397 -2.470909 
L 529.006505 -2.470909 
L 528.09904 -2.470909 
L 527.191576 -2.470909 
L 526.284111 -2.470909 
L 525.376647 -2.470909 
L 524.469182 -2.470909 
L 523.561717 -2.470909 
L 522.654253 -2.470909 
L 521.746788 -2.470909 
L 520.839323 -2.470909 
L 519.931859 -2.470909 
L 519.024394 -2.470909 
L 518.11693 -2.470909 
L 517.209465 -2.470909 
L 516.302 -2.470909 
L 515.394536 -2.470909 
L 514.487071 -2.470909 
L 513.579606 -2.470909 
L 512.672142 -2.470909 
L 511.764677 -2.470909 
L 510.857213 -2.470909 
L 509.949748 -2.470909 
L 509.042283 -2.470909 
L 508.134819 -2.470909 
L 507.227354 -2.470909 
L 506.319889 -2.470909 
L 505.412425 -2.470909 
L 504.50496 -2.470909 
L 503.597496 -2.470909 
L 502.690031 -2.470909 
L 501.782566 -2.470909 
L 500.875102 -2.470909 
L 499.967637 -2.470909 
L 499.060172 -2.470909 
L 498.152708 -2.470909 
L 497.245243 -2.470909 
L 496.337779 -2.470909 
L 495.430314 -2.470909 
L 494.522849 -2.470909 
L 493.615385 -2.470909 
L 492.70792 -2.470909 
L 491.800455 -2.470909 
L 490.892991 -2.470909 
L 489.985526 -2.470909 
L 489.078061 -2.470909 
L 488.170597 -2.470909 
L 487.263132 -2.470909 
L 486.355668 -2.470909 
L 485.448203 -2.470909 
L 484.540738 -2.470909 
L 483.633274 -2.470909 
L 482.725809 -2.470909 
L 481.818344 -2.470909 
L 480.91088 -2.470909 
L 480.003415 -2.470909 
L 479.095951 -2.470909 
L 478.188486 -2.470909 
L 477.281021 -2.470909 
L 476.373557 -2.470909 
L 475.466092 -2.470909 
L 474.558627 -2.470909 
L 473.651163 -2.470909 
L 472.743698 -2.470909 
L 471.836234 -2.470909 
L 470.928769 -2.470909 
L 470.021304 -2.470909 
L 469.11384 -2.470909 
L 468.206375 -2.470909 
L 467.29891 -2.470909 
L 466.391446 -2.470909 
L 465.483981 -2.470909 
L 464.576517 -2.470909 
L 463.669052 -2.470909 
L 462.761587 -2.470909 
L 461.854123 -2.470909 
L 460.946658 -2.470909 
L 460.039193 -2.470909 
L 459.131729 -2.470909 
L 458.224264 -2.470909 
L 457.316799 -2.470909 
L 456.409335 -2.470909 
L 455.50187 -2.470909 
L 454.594406 -2.470909 
L 453.686941 -2.470909 
L 452.779476 -2.470909 
L 451.872012 -2.470909 
L 450.964547 -2.470909 
L 450.057082 -2.470909 
L 449.149618 -2.470909 
L 448.242153 -2.470909 
L 447.334689 -2.470909 
L 446.427224 -2.470909 
L 445.519759 -2.470909 
L 444.612295 -2.470909 
L 443.70483 -2.470909 
L 442.797365 -2.470909 
L 441.889901 -2.470909 
L 440.982436 -2.470909 
L 440.074972 -2.470909 
L 439.167507 -2.470909 
L 438.260042 -2.470909 
L 437.352578 -2.470909 
L 436.445113 -2.470909 
L 435.537648 -2.470909 
L 434.630184 -2.470909 
L 433.722719 -2.470909 
L 432.815255 -2.470909 
L 431.90779 -2.470909 
L 431.000325 -2.470909 
L 430.092861 -2.470909 
L 429.185396 -2.470909 
L 428.277931 -2.470909 
L 427.370467 -2.470909 
L 426.463002 -2.470909 
L 425.555537 -2.470909 
L 424.648073 -2.470909 
L 423.740608 -2.470909 
L 422.833144 -2.470909 
L 421.925679 -2.470909 
L 421.018214 -2.470909 
L 420.11075 -2.470909 
L 419.203285 -2.470909 
L 418.29582 -2.470909 
L 417.388356 -2.470909 
L 416.480891 -2.470909 
L 415.573427 -2.470909 
L 414.665962 -2.470909 
L 413.758497 -2.470909 
L 412.851033 -2.470909 
L 411.943568 -2.470909 
L 411.036103 -2.470909 
L 410.128639 -2.470909 
L 409.221174 -2.470909 
L 408.31371 -2.470909 
L 407.406245 -2.470909 
L 406.49878 -2.470909 
L 405.591316 -2.470909 
L 404.683851 -2.470909 
L 403.776386 -2.470909 
L 402.868922 -2.470909 
L 401.961457 -2.470909 
L 401.053993 -2.470909 
L 400.146528 -2.470909 
L 399.239063 -2.470909 
L 398.331599 -2.470909 
L 397.424134 -2.470909 
L 396.516669 -2.470909 
L 395.609205 -2.470909 
L 394.70174 -2.470909 
L 393.794275 -2.470909 
L 392.886811 -2.470909 
L 391.979346 -2.470909 
L 391.071882 -2.470909 
L 390.164417 -2.470909 
L 389.256952 -2.470909 
L 388.349488 -2.470909 
L 387.442023 -2.470909 
L 386.534558 -2.470909 
L 385.627094 -2.470909 
L 384.719629 -2.470909 
z
" style="stroke: #cf1313; stroke-opacity: 0.2"/>
    </defs>
    <g clip-path="url(#pe6d717b74a)">
     <use xlink:href="#mc2ff2b11f2" x="0" y="54.36" style="fill: #cf1313; fill-opacity: 0.2; stroke: #cf1313; stroke-opacity: 0.2"/>
    </g>
   </g>
   <g id="PolyCollection_2">
    <defs>
     <path id="m2ed96d58ad" d="M 303.047813 -2.470909 
L 303.047813 -3.57929 
L 303.955277 -3.659248 
L 304.862742 -3.750808 
L 305.770207 -3.852396 
L 306.677671 -3.962033 
L 307.585136 -4.077785 
L 308.4926 -4.198215 
L 309.400065 -4.322727 
L 310.30753 -4.451753 
L 311.214994 -4.586725 
L 312.122459 -4.729844 
L 313.029924 -4.883717 
L 313.937388 -5.050922 
L 314.844853 -5.233613 
L 315.752317 -5.433239 
L 316.659782 -5.65042 
L 317.567247 -5.884996 
L 318.474711 -6.136228 
L 319.382176 -6.403082 
L 320.289641 -6.684536 
L 321.197105 -6.979835 
L 322.10457 -7.288651 
L 323.012034 -7.611103 
L 323.919499 -7.947646 
L 324.826964 -8.298867 
L 325.734428 -8.665237 
L 326.641893 -9.046886 
L 327.549358 -9.443484 
L 328.456822 -9.854259 
L 329.364287 -10.278162 
L 330.271752 -10.714173 
L 331.179216 -11.16167 
L 332.086681 -11.620789 
L 332.994145 -12.092688 
L 333.90161 -12.579643 
L 334.809075 -13.08493 
L 335.716539 -13.612482 
L 336.624004 -14.166345 
L 337.531469 -14.749997 
L 338.438933 -15.36563 
L 339.346398 -16.013529 
L 340.253862 -16.691675 
L 341.161327 -17.395694 
L 342.068792 -18.119199 
L 342.976256 -18.854486 
L 343.883721 -19.593471 
L 344.791186 -20.328654 
L 345.69865 -21.053919 
L 346.606115 -21.764981 
L 347.513579 -22.45944 
L 348.421044 -23.136487 
L 349.328509 -23.796417 
L 350.235973 -24.440154 
L 351.143438 -25.06894 
L 352.050903 -25.684253 
L 352.958367 -26.28793 
L 353.865832 -26.882346 
L 354.773296 -27.470527 
L 355.680761 -28.05608 
L 356.588226 -28.642925 
L 357.49569 -29.234919 
L 358.403155 -29.835483 
L 359.31062 -30.447388 
L 360.218084 -31.07272 
L 361.125549 -31.712995 
L 362.033013 -32.369272 
L 362.940478 -33.042095 
L 363.847943 -33.731154 
L 364.755407 -34.434647 
L 365.662872 -35.148501 
L 366.570337 -35.865689 
L 367.477801 -36.575939 
L 368.385266 -37.26602 
L 369.292731 -37.92068 
L 370.200195 -38.524108 
L 371.10766 -39.061665 
L 372.015124 -39.521525 
L 372.922589 -39.895925 
L 373.830054 -40.181789 
L 374.737518 -40.380656 
L 375.644983 -40.497963 
L 376.552448 -40.541886 
L 377.459912 -40.521979 
L 378.367377 -40.447902 
L 379.274841 -40.32847 
L 380.182306 -40.171177 
L 381.089771 -39.982229 
L 381.997235 -39.766991 
L 382.9047 -39.530641 
L 383.812165 -39.278768 
L 384.719629 -39.017694 
L 385.627094 -38.754355 
L 386.534558 -38.49576 
L 387.442023 -38.24813 
L 388.349488 -38.015948 
L 389.256952 -37.801117 
L 390.164417 -37.602404 
L 391.071882 -37.415227 
L 391.979346 -37.231778 
L 392.886811 -37.041436 
L 393.794275 -36.831432 
L 394.70174 -36.587772 
L 395.609205 -36.296434 
L 396.516669 -35.944829 
L 397.424134 -35.523426 
L 398.331599 -35.027324 
L 399.239063 -34.457464 
L 400.146528 -33.821147 
L 401.053993 -33.131638 
L 401.961457 -32.406766 
L 402.868922 -31.666692 
L 403.776386 -30.931189 
L 404.683851 -30.216919 
L 405.591316 -29.535206 
L 406.49878 -28.890693 
L 407.406245 -28.28112 
L 408.31371 -27.698203 
L 409.221174 -27.129425 
L 410.128639 -26.560357 
L 411.036103 -25.977065 
L 411.943568 -25.368187 
L 412.851033 -24.72634 
L 413.758497 -24.048699 
L 414.665962 -23.336779 
L 415.573427 -22.595601 
L 416.480891 -21.832526 
L 417.388356 -21.05609 
L 418.29582 -20.275064 
L 419.203285 -19.497873 
L 420.11075 -18.73236 
L 421.018214 -17.985761 
L 421.925679 -17.264741 
L 422.833144 -16.575314 
L 423.740608 -15.922598 
L 424.648073 -15.310408 
L 425.555537 -14.740796 
L 426.463002 -14.213664 
L 427.370467 -13.726606 
L 428.277931 -13.27503 
L 429.185396 -12.852599 
L 430.092861 -12.451903 
L 431.000325 -12.065276 
L 431.90779 -11.685602 
L 432.815255 -11.30702 
L 433.722719 -10.925414 
L 434.630184 -10.538675 
L 435.537648 -10.146713 
L 436.445113 -9.751251 
L 437.352578 -9.35545 
L 438.260042 -8.963405 
L 439.167507 -8.579589 
L 440.074972 -8.208305 
L 440.982436 -7.853212 
L 441.889901 -7.516982 
L 442.797365 -7.201135 
L 443.70483 -6.906052 
L 444.612295 -6.631147 
L 445.519759 -6.375147 
L 446.427224 -6.136414 
L 447.334689 -5.913237 
L 448.242153 -5.704061 
L 449.149618 -5.507598 
L 450.057082 -5.322849 
L 450.964547 -5.149041 
L 451.872012 -4.985519 
L 452.779476 -4.831637 
L 453.686941 -4.686679 
L 454.594406 -4.549832 
L 455.50187 -4.420209 
L 456.409335 -4.296923 
L 457.316799 -4.179183 
L 458.224264 -4.066394 
L 459.131729 -3.958225 
L 459.131729 -2.470909 
L 459.131729 -2.470909 
L 458.224264 -2.470909 
L 457.316799 -2.470909 
L 456.409335 -2.470909 
L 455.50187 -2.470909 
L 454.594406 -2.470909 
L 453.686941 -2.470909 
L 452.779476 -2.470909 
L 451.872012 -2.470909 
L 450.964547 -2.470909 
L 450.057082 -2.470909 
L 449.149618 -2.470909 
L 448.242153 -2.470909 
L 447.334689 -2.470909 
L 446.427224 -2.470909 
L 445.519759 -2.470909 
L 444.612295 -2.470909 
L 443.70483 -2.470909 
L 442.797365 -2.470909 
L 441.889901 -2.470909 
L 440.982436 -2.470909 
L 440.074972 -2.470909 
L 439.167507 -2.470909 
L 438.260042 -2.470909 
L 437.352578 -2.470909 
L 436.445113 -2.470909 
L 435.537648 -2.470909 
L 434.630184 -2.470909 
L 433.722719 -2.470909 
L 432.815255 -2.470909 
L 431.90779 -2.470909 
L 431.000325 -2.470909 
L 430.092861 -2.470909 
L 429.185396 -2.470909 
L 428.277931 -2.470909 
L 427.370467 -2.470909 
L 426.463002 -2.470909 
L 425.555537 -2.470909 
L 424.648073 -2.470909 
L 423.740608 -2.470909 
L 422.833144 -2.470909 
L 421.925679 -2.470909 
L 421.018214 -2.470909 
L 420.11075 -2.470909 
L 419.203285 -2.470909 
L 418.29582 -2.470909 
L 417.388356 -2.470909 
L 416.480891 -2.470909 
L 415.573427 -2.470909 
L 414.665962 -2.470909 
L 413.758497 -2.470909 
L 412.851033 -2.470909 
L 411.943568 -2.470909 
L 411.036103 -2.470909 
L 410.128639 -2.470909 
L 409.221174 -2.470909 
L 408.31371 -2.470909 
L 407.406245 -2.470909 
L 406.49878 -2.470909 
L 405.591316 -2.470909 
L 404.683851 -2.470909 
L 403.776386 -2.470909 
L 402.868922 -2.470909 
L 401.961457 -2.470909 
L 401.053993 -2.470909 
L 400.146528 -2.470909 
L 399.239063 -2.470909 
L 398.331599 -2.470909 
L 397.424134 -2.470909 
L 396.516669 -2.470909 
L 395.609205 -2.470909 
L 394.70174 -2.470909 
L 393.794275 -2.470909 
L 392.886811 -2.470909 
L 391.979346 -2.470909 
L 391.071882 -2.470909 
L 390.164417 -2.470909 
L 389.256952 -2.470909 
L 388.349488 -2.470909 
L 387.442023 -2.470909 
L 386.534558 -2.470909 
L 385.627094 -2.470909 
L 384.719629 -2.470909 
L 383.812165 -2.470909 
L 382.9047 -2.470909 
L 381.997235 -2.470909 
L 381.089771 -2.470909 
L 380.182306 -2.470909 
L 379.274841 -2.470909 
L 378.367377 -2.470909 
L 377.459912 -2.470909 
L 376.552448 -2.470909 
L 375.644983 -2.470909 
L 374.737518 -2.470909 
L 373.830054 -2.470909 
L 372.922589 -2.470909 
L 372.015124 -2.470909 
L 371.10766 -2.470909 
L 370.200195 -2.470909 
L 369.292731 -2.470909 
L 368.385266 -2.470909 
L 367.477801 -2.470909 
L 366.570337 -2.470909 
L 365.662872 -2.470909 
L 364.755407 -2.470909 
L 363.847943 -2.470909 
L 362.940478 -2.470909 
L 362.033013 -2.470909 
L 361.125549 -2.470909 
L 360.218084 -2.470909 
L 359.31062 -2.470909 
L 358.403155 -2.470909 
L 357.49569 -2.470909 
L 356.588226 -2.470909 
L 355.680761 -2.470909 
L 354.773296 -2.470909 
L 353.865832 -2.470909 
L 352.958367 -2.470909 
L 352.050903 -2.470909 
L 351.143438 -2.470909 
L 350.235973 -2.470909 
L 349.328509 -2.470909 
L 348.421044 -2.470909 
L 347.513579 -2.470909 
L 346.606115 -2.470909 
L 345.69865 -2.470909 
L 344.791186 -2.470909 
L 343.883721 -2.470909 
L 342.976256 -2.470909 
L 342.068792 -2.470909 
L 341.161327 -2.470909 
L 340.253862 -2.470909 
L 339.346398 -2.470909 
L 338.438933 -2.470909 
L 337.531469 -2.470909 
L 336.624004 -2.470909 
L 335.716539 -2.470909 
L 334.809075 -2.470909 
L 333.90161 -2.470909 
L 332.994145 -2.470909 
L 332.086681 -2.470909 
L 331.179216 -2.470909 
L 330.271752 -2.470909 
L 329.364287 -2.470909 
L 328.456822 -2.470909 
L 327.549358 -2.470909 
L 326.641893 -2.470909 
L 325.734428 -2.470909 
L 324.826964 -2.470909 
L 323.919499 -2.470909 
L 323.012034 -2.470909 
L 322.10457 -2.470909 
L 321.197105 -2.470909 
L 320.289641 -2.470909 
L 319.382176 -2.470909 
L 318.474711 -2.470909 
L 317.567247 -2.470909 
L 316.659782 -2.470909 
L 315.752317 -2.470909 
L 314.844853 -2.470909 
L 313.937388 -2.470909 
L 313.029924 -2.470909 
L 312.122459 -2.470909 
L 311.214994 -2.470909 
L 310.30753 -2.470909 
L 309.400065 -2.470909 
L 308.4926 -2.470909 
L 307.585136 -2.470909 
L 306.677671 -2.470909 
L 305.770207 -2.470909 
L 304.862742 -2.470909 
L 303.955277 -2.470909 
L 303.047813 -2.470909 
z
" style="stroke: #116dc2; stroke-opacity: 0.2"/>
    </defs>
    <g clip-path="url(#pe6d717b74a)">
     <use xlink:href="#m2ed96d58ad" x="0" y="54.36" style="fill: #116dc2; fill-opacity: 0.2; stroke: #116dc2; stroke-opacity: 0.2"/>
    </g>
   </g>
   <g id="PolyCollection_3">
    <defs>
     <path id="md13ad0641d" d="M 25.363636 -2.470909 
L 25.363636 -4.7059 
L 26.271101 -5.367178 
L 27.178566 -6.270931 
L 28.08603 -7.480404 
L 28.993495 -8.993089 
L 29.90096 -10.756094 
L 30.808424 -12.591443 
L 31.715889 -14.34098 
L 32.623353 -16.276243 
L 33.530818 -18.777881 
L 34.438283 -21.662056 
L 35.345747 -24.63603 
L 36.253212 -27.836024 
L 37.160677 -31.459517 
L 38.068141 -35.395257 
L 38.975606 -38.97378 
L 39.88307 -41.545108 
L 40.790535 -43.518029 
L 41.698 -45.658127 
L 42.605464 -47.908589 
L 43.512929 -49.733336 
L 44.420394 -50.946034 
L 45.327858 -51.674138 
L 46.235323 -51.889091 
L 47.142787 -51.446044 
L 48.050252 -50.274182 
L 48.957717 -48.361097 
L 49.865181 -45.770856 
L 50.772646 -42.668183 
L 51.680111 -39.11524 
L 52.587575 -35.096442 
L 53.49504 -30.936496 
L 54.402504 -27.239494 
L 55.309969 -24.337388 
L 56.217434 -21.934067 
L 57.124898 -19.429085 
L 58.032363 -16.71859 
L 58.939828 -14.27002 
L 59.847292 -12.337516 
L 60.754757 -10.710673 
L 61.662221 -9.22382 
L 62.569686 -7.959557 
L 63.477151 -6.919312 
L 64.384615 -5.951406 
L 65.29208 -5.038047 
L 65.29208 -2.470909 
L 65.29208 -2.470909 
L 64.384615 -2.470909 
L 63.477151 -2.470909 
L 62.569686 -2.470909 
L 61.662221 -2.470909 
L 60.754757 -2.470909 
L 59.847292 -2.470909 
L 58.939828 -2.470909 
L 58.032363 -2.470909 
L 57.124898 -2.470909 
L 56.217434 -2.470909 
L 55.309969 -2.470909 
L 54.402504 -2.470909 
L 53.49504 -2.470909 
L 52.587575 -2.470909 
L 51.680111 -2.470909 
L 50.772646 -2.470909 
L 49.865181 -2.470909 
L 48.957717 -2.470909 
L 48.050252 -2.470909 
L 47.142787 -2.470909 
L 46.235323 -2.470909 
L 45.327858 -2.470909 
L 44.420394 -2.470909 
L 43.512929 -2.470909 
L 42.605464 -2.470909 
L 41.698 -2.470909 
L 40.790535 -2.470909 
L 39.88307 -2.470909 
L 38.975606 -2.470909 
L 38.068141 -2.470909 
L 37.160677 -2.470909 
L 36.253212 -2.470909 
L 35.345747 -2.470909 
L 34.438283 -2.470909 
L 33.530818 -2.470909 
L 32.623353 -2.470909 
L 31.715889 -2.470909 
L 30.808424 -2.470909 
L 29.90096 -2.470909 
L 28.993495 -2.470909 
L 28.08603 -2.470909 
L 27.178566 -2.470909 
L 26.271101 -2.470909 
L 25.363636 -2.470909 
z
" style="stroke: #8a8a8a; stroke-opacity: 0.2"/>
    </defs>
    <g clip-path="url(#pe6d717b74a)">
     <use xlink:href="#md13ad0641d" x="0" y="54.36" style="fill: #8a8a8a; fill-opacity: 0.2; stroke: #8a8a8a; stroke-opacity: 0.2"/>
    </g>
   </g>
   <g id="line2d_1">
    <path d="M 384.719629 50.214465 
L 397.424134 47.776349 
L 400.146528 46.912715 
L 402.868922 45.824001 
L 406.49878 44.149898 
L 410.128639 42.260836 
L 415.573427 39.108801 
L 420.11075 36.29985 
L 422.833144 34.383581 
L 425.555537 32.182635 
L 431.000325 27.618218 
L 433.722719 25.669752 
L 438.260042 22.787751 
L 443.70483 19.575217 
L 447.334689 17.643165 
L 450.057082 16.365479 
L 452.779476 15.306688 
L 455.50187 14.499688 
L 458.224264 13.961005 
L 460.039193 13.775043 
L 461.854123 13.770068 
L 463.669052 14.000879 
L 465.483981 14.512693 
L 467.29891 15.307653 
L 470.021304 16.896332 
L 475.466092 20.334199 
L 483.633274 25.169514 
L 486.355668 27.146339 
L 493.615385 32.623069 
L 502.690031 38.865149 
L 505.412425 40.458424 
L 509.949748 42.749016 
L 515.394536 45.300076 
L 519.024394 46.760145 
L 521.746788 47.665172 
L 525.376647 48.596035 
L 532.636364 50.050082 
L 532.636364 50.050082 
" clip-path="url(#pe6d717b74a)" style="fill: none; stroke: #cf1313; stroke-width: 1.5; stroke-linecap: square"/>
   </g>
   <g id="line2d_2">
    <path d="M 303.047813 50.78071 
L 307.585136 50.282215 
L 313.029924 49.476283 
L 316.659782 48.70958 
L 320.289641 47.675464 
L 323.919499 46.412354 
L 327.549358 44.916516 
L 331.179216 43.19833 
L 334.809075 41.27507 
L 337.531469 39.610003 
L 340.253862 37.668325 
L 345.69865 33.306081 
L 349.328509 30.563583 
L 353.865832 27.477654 
L 361.125549 22.647005 
L 364.755407 19.925353 
L 369.292731 16.43932 
L 371.10766 15.298335 
L 372.922589 14.464075 
L 374.737518 13.979344 
L 376.552448 13.818114 
L 378.367377 13.912098 
L 381.089771 14.377771 
L 384.719629 15.342306 
L 389.256952 16.558883 
L 395.609205 18.063566 
L 397.424134 18.836574 
L 399.239063 19.902536 
L 401.053993 21.228362 
L 406.49878 25.469307 
L 410.128639 27.799643 
L 412.851033 29.63366 
L 415.573427 31.764399 
L 422.833144 37.784686 
L 425.555537 39.619204 
L 428.277931 41.08497 
L 431.90779 42.674398 
L 442.797365 47.158865 
L 446.427224 48.223586 
L 450.057082 49.037151 
L 454.594406 49.810168 
L 459.131729 50.401775 
L 459.131729 50.401775 
" clip-path="url(#pe6d717b74a)" style="fill: none; stroke: #116dc2; stroke-width: 1.5; stroke-linecap: square"/>
   </g>
   <g id="line2d_3">
    <path d="M 25.363636 49.6541 
L 26.271101 48.992822 
L 27.178566 48.089069 
L 28.08603 46.879596 
L 28.993495 45.366911 
L 29.90096 43.603906 
L 30.808424 41.768557 
L 31.715889 40.01902 
L 32.623353 38.083757 
L 33.530818 35.582119 
L 34.438283 32.697944 
L 35.345747 29.72397 
L 36.253212 26.523976 
L 37.160677 22.900483 
L 38.068141 18.964743 
L 38.975606 15.38622 
L 39.88307 12.814892 
L 40.790535 10.841971 
L 41.698 8.701873 
L 42.605464 6.451411 
L 43.512929 4.626664 
L 44.420394 3.413966 
L 45.327858 2.685862 
L 46.235323 2.470909 
L 47.142787 2.913956 
L 48.050252 4.085818 
L 48.957717 5.998903 
L 49.865181 8.589144 
L 50.772646 11.691817 
L 51.680111 15.24476 
L 52.587575 19.263558 
L 53.49504 23.423504 
L 54.402504 27.120506 
L 55.309969 30.022612 
L 56.217434 32.425933 
L 57.124898 34.930915 
L 58.032363 37.64141 
L 58.939828 40.08998 
L 59.847292 42.022484 
L 60.754757 43.649327 
L 61.662221 45.13618 
L 62.569686 46.400443 
L 63.477151 47.440688 
L 64.384615 48.408594 
L 65.29208 49.321953 
" clip-path="url(#pe6d717b74a)" style="fill: none; stroke: #8a8a8a; stroke-width: 1.5; stroke-linecap: square"/>
   </g>
  </g>
 </g>
 <defs>
  <clipPath id="pe6d717b74a">
   <rect x="0" y="-0" width="558" height="54.36"/>
  </clipPath>
 </defs>
</svg>
