<?xml version="1.0" encoding="utf-8" standalone="no"?>
<!DOCTYPE svg PUBLIC "-//W3C//DTD SVG 1.1//EN"
  "http://www.w3.org/Graphics/SVG/1.1/DTD/svg11.dtd">
<svg xmlns:xlink="http://www.w3.org/1999/xlink" width="558pt" height="54.36pt" viewBox="0 0 558 54.36" xmlns="http://www.w3.org/2000/svg" version="1.1">
 <metadata>
  <rdf:RDF xmlns:dc="http://purl.org/dc/elements/1.1/" xmlns:cc="http://creativecommons.org/ns#" xmlns:rdf="http://www.w3.org/1999/02/22-rdf-syntax-ns#">
   <cc:Work>
    <dc:type rdf:resource="http://purl.org/dc/dcmitype/StillImage"/>
    <dc:date>2024-09-15T09:30:36.334446</dc:date>
    <dc:format>image/svg+xml</dc:format>
    <dc:creator>
     <cc:Agent>
      <dc:title>Matplotlib v3.5.2, https://matplotlib.org/</dc:title>
     </cc:Agent>
    </dc:creator>
   </cc:Work>
  </rdf:RDF>
 </metadata>
 <defs>
  <style type="text/css">*{stroke-linejoin: round; stroke-linecap: butt}</style>
 </defs>
 <g id="figure_1">
  <g id="patch_1">
   <path d="M 0 54.36 
L 558 54.36 
L 558 0 
L 0 0 
L 0 54.36 
z
" style="fill: none; opacity: 0"/>
  </g>
  <g id="axes_1">
   <g id="PolyCollection_1">
    <defs>
     <path id="mce16ce00fb" d="M 361.39143 -2.470909 
L 361.39143 -4.002796 
L 362.037638 -4.077235 
L 362.683845 -4.154075 
L 363.330052 -4.233755 
L 363.976259 -4.316776 
L 364.622467 -4.403687 
L 365.268674 -4.495057 
L 365.914881 -4.591449 
L 366.561089 -4.693387 
L 367.207296 -4.801329 
L 367.853503 -4.915637 
L 368.49971 -5.036554 
L 369.145918 -5.164184 
L 369.792125 -5.298485 
L 370.438332 -5.439266 
L 371.08454 -5.586199 
L 371.730747 -5.73884 
L 372.376954 -5.896651 
L 373.023162 -6.059044 
L 373.669369 -6.225409 
L 374.315576 -6.395159 
L 374.961783 -6.567758 
L 375.607991 -6.742748 
L 376.254198 -6.919762 
L 376.900405 -7.09853 
L 377.546613 -7.278868 
L 378.19282 -7.46066 
L 378.839027 -7.643834 
L 379.485235 -7.828339 
L 380.131442 -8.01412 
L 380.777649 -8.201109 
L 381.423856 -8.389217 
L 382.070064 -8.578351 
L 382.716271 -8.768438 
L 383.362478 -8.959462 
L 384.008686 -9.151509 
L 384.654893 -9.344811 
L 385.3011 -9.539786 
L 385.947307 -9.737066 
L 386.593515 -9.937509 
L 387.239722 -10.142183 
L 387.885929 -10.352338 
L 388.532137 -10.569348 
L 389.178344 -10.794631 
L 389.824551 -11.029572 
L 390.470759 -11.275422 
L 391.116966 -11.533213 
L 391.763173 -11.803684 
L 392.40938 -12.087218 
L 393.055588 -12.383811 
L 393.701795 -12.693066 
L 394.348002 -13.014215 
L 394.99421 -13.346172 
L 395.640417 -13.687598 
L 396.286624 -14.036994 
L 396.932831 -14.392794 
L 397.579039 -14.753466 
L 398.225246 -15.117601 
L 398.871453 -15.483992 
L 399.517661 -15.851695 
L 400.163868 -16.220071 
L 400.810075 -16.588799 
L 401.456283 -16.957874 
L 402.10249 -17.327574 
L 402.748697 -17.698412 
L 403.394904 -18.071075 
L 404.041112 -18.446343 
L 404.687319 -18.825009 
L 405.333526 -19.207796 
L 405.979734 -19.595278 
L 406.625941 -19.987814 
L 407.272148 -20.385498 
L 407.918356 -20.788127 
L 408.564563 -21.195199 
L 409.21077 -21.605929 
L 409.856977 -22.019294 
L 410.503185 -22.434099 
L 411.149392 -22.849059 
L 411.795599 -23.262884 
L 412.441807 -23.674376 
L 413.088014 -24.082509 
L 413.734221 -24.486495 
L 414.380428 -24.885831 
L 415.026636 -25.280315 
L 415.672843 -25.670037 
L 416.31905 -26.055333 
L 416.965258 -26.436729 
L 417.611465 -26.814857 
L 418.257672 -27.190367 
L 418.90388 -27.563844 
L 419.550087 -27.935726 
L 420.196294 -28.306256 
L 420.842501 -28.675444 
L 421.488709 -29.043069 
L 422.134916 -29.408701 
L 422.781123 -29.771749 
L 423.427331 -30.131526 
L 424.073538 -30.487322 
L 424.719745 -30.838472 
L 425.365953 -31.184423 
L 426.01216 -31.524769 
L 426.658367 -31.859281 
L 427.304574 -32.187901 
L 427.950782 -32.51072 
L 428.596989 -32.827942 
L 429.243196 -33.139829 
L 429.889404 -33.446651 
L 430.535611 -33.748634 
L 431.181818 -34.045918 
L 431.828025 -34.338519 
L 432.474233 -34.626314 
L 433.12044 -34.909026 
L 433.766647 -35.186224 
L 434.412855 -35.457328 
L 435.059062 -35.721614 
L 435.705269 -35.978229 
L 436.351477 -36.226201 
L 436.997684 -36.464452 
L 437.643891 -36.691816 
L 438.290098 -36.907066 
L 438.936306 -37.108937 
L 439.582513 -37.296171 
L 440.22872 -37.467555 
L 440.874928 -37.621978 
L 441.521135 -37.758482 
L 442.167342 -37.876319 
L 442.81355 -37.975002 
L 443.459757 -38.054347 
L 444.105964 -38.114498 
L 444.752171 -38.155944 
L 445.398379 -38.179499 
L 446.044586 -38.186271 
L 446.690793 -38.1776 
L 447.337001 -38.154971 
L 447.983208 -38.119917 
L 448.629415 -38.073898 
L 449.275622 -38.018188 
L 449.92183 -37.953769 
L 450.568037 -37.881236 
L 451.214244 -37.800746 
L 451.860452 -37.711994 
L 452.506659 -37.614241 
L 453.152866 -37.506385 
L 453.799074 -37.387067 
L 454.445281 -37.254817 
L 455.091488 -37.108208 
L 455.737695 -36.946019 
L 456.383903 -36.767379 
L 457.03011 -36.571884 
L 457.676317 -36.35967 
L 458.322525 -36.131436 
L 458.968732 -35.888422 
L 459.614939 -35.632328 
L 460.261146 -35.365208 
L 460.907354 -35.089324 
L 461.553561 -34.806994 
L 462.199768 -34.520445 
L 462.845976 -34.23167 
L 463.492183 -33.942324 
L 464.13839 -33.653645 
L 464.784598 -33.366407 
L 465.430805 -33.08092 
L 466.077012 -32.797041 
L 466.723219 -32.514224 
L 467.369427 -32.231577 
L 468.015634 -31.947931 
L 468.661841 -31.661909 
L 469.308049 -31.371999 
L 469.954256 -31.076618 
L 470.600463 -30.774182 
L 471.246671 -30.463163 
L 471.892878 -30.142155 
L 472.539085 -29.809939 
L 473.185292 -29.465543 
L 473.8315 -29.108304 
L 474.477707 -28.73792 
L 475.123914 -28.354493 
L 475.770122 -27.958547 
L 476.416329 -27.55103 
L 477.062536 -27.133278 
L 477.708743 -26.706961 
L 478.354951 -26.273989 
L 479.001158 -25.836414 
L 479.647365 -25.396299 
L 480.293573 -24.955606 
L 480.93978 -24.516081 
L 481.585987 -24.079166 
L 482.232195 -23.64594 
L 482.878402 -23.217102 
L 483.524609 -22.792982 
L 484.170816 -22.373594 
L 484.817024 -21.958712 
L 485.463231 -21.547967 
L 486.109438 -21.140943 
L 486.755646 -20.737269 
L 487.401853 -20.336695 
L 488.04806 -19.939138 
L 488.694268 -19.5447 
L 489.340475 -19.153659 
L 489.986682 -18.766432 
L 490.632889 -18.383518 
L 491.279097 -18.005434 
L 491.925304 -17.632649 
L 492.571511 -17.265527 
L 493.217719 -16.904285 
L 493.863926 -16.548972 
L 494.510133 -16.199469 
L 495.15634 -15.855508 
L 495.802548 -15.516707 
L 496.448755 -15.18262 
L 497.094962 -14.852782 
L 497.74117 -14.526761 
L 498.387377 -14.204197 
L 499.033584 -13.884828 
L 499.679792 -13.568508 
L 500.325999 -13.255203 
L 500.972206 -12.944984 
L 501.618413 -12.638 
L 502.264621 -12.334455 
L 502.910828 -12.034574 
L 503.557035 -11.738582 
L 504.203243 -11.446682 
L 504.84945 -11.15904 
L 505.495657 -10.875779 
L 506.141865 -10.596988 
L 506.788072 -10.32273 
L 507.434279 -10.053058 
L 508.080486 -9.788033 
L 508.726694 -9.527746 
L 509.372901 -9.272329 
L 510.019108 -9.02197 
L 510.665316 -8.776918 
L 511.311523 -8.537478 
L 511.95773 -8.304004 
L 512.603937 -8.076883 
L 513.250145 -7.856514 
L 513.896352 -7.643287 
L 514.542559 -7.437551 
L 515.188767 -7.239595 
L 515.834974 -7.049627 
L 516.481181 -6.867752 
L 517.127389 -6.693967 
L 517.773596 -6.528155 
L 518.419803 -6.370087 
L 519.06601 -6.219437 
L 519.712218 -6.075791 
L 520.358425 -5.938671 
L 521.004632 -5.807552 
L 521.65084 -5.681888 
L 522.297047 -5.561126 
L 522.943254 -5.444728 
L 523.589461 -5.332184 
L 524.235669 -5.223023 
L 524.881876 -5.116821 
L 525.528083 -5.01321 
L 526.174291 -4.911877 
L 526.820498 -4.812569 
L 527.466705 -4.715095 
L 528.112913 -4.619329 
L 528.75912 -4.525206 
L 529.405327 -4.432726 
L 530.051534 -4.341948 
L 530.697742 -4.252988 
L 531.343949 -4.166011 
L 531.990156 -4.081223 
L 532.636364 -3.998857 
L 532.636364 -2.470909 
L 532.636364 -2.470909 
L 531.990156 -2.470909 
L 531.343949 -2.470909 
L 530.697742 -2.470909 
L 530.051534 -2.470909 
L 529.405327 -2.470909 
L 528.75912 -2.470909 
L 528.112913 -2.470909 
L 527.466705 -2.470909 
L 526.820498 -2.470909 
L 526.174291 -2.470909 
L 525.528083 -2.470909 
L 524.881876 -2.470909 
L 524.235669 -2.470909 
L 523.589461 -2.470909 
L 522.943254 -2.470909 
L 522.297047 -2.470909 
L 521.65084 -2.470909 
L 521.004632 -2.470909 
L 520.358425 -2.470909 
L 519.712218 -2.470909 
L 519.06601 -2.470909 
L 518.419803 -2.470909 
L 517.773596 -2.470909 
L 517.127389 -2.470909 
L 516.481181 -2.470909 
L 515.834974 -2.470909 
L 515.188767 -2.470909 
L 514.542559 -2.470909 
L 513.896352 -2.470909 
L 513.250145 -2.470909 
L 512.603937 -2.470909 
L 511.95773 -2.470909 
L 511.311523 -2.470909 
L 510.665316 -2.470909 
L 510.019108 -2.470909 
L 509.372901 -2.470909 
L 508.726694 -2.470909 
L 508.080486 -2.470909 
L 507.434279 -2.470909 
L 506.788072 -2.470909 
L 506.141865 -2.470909 
L 505.495657 -2.470909 
L 504.84945 -2.470909 
L 504.203243 -2.470909 
L 503.557035 -2.470909 
L 502.910828 -2.470909 
L 502.264621 -2.470909 
L 501.618413 -2.470909 
L 500.972206 -2.470909 
L 500.325999 -2.470909 
L 499.679792 -2.470909 
L 499.033584 -2.470909 
L 498.387377 -2.470909 
L 497.74117 -2.470909 
L 497.094962 -2.470909 
L 496.448755 -2.470909 
L 495.802548 -2.470909 
L 495.15634 -2.470909 
L 494.510133 -2.470909 
L 493.863926 -2.470909 
L 493.217719 -2.470909 
L 492.571511 -2.470909 
L 491.925304 -2.470909 
L 491.279097 -2.470909 
L 490.632889 -2.470909 
L 489.986682 -2.470909 
L 489.340475 -2.470909 
L 488.694268 -2.470909 
L 488.04806 -2.470909 
L 487.401853 -2.470909 
L 486.755646 -2.470909 
L 486.109438 -2.470909 
L 485.463231 -2.470909 
L 484.817024 -2.470909 
L 484.170816 -2.470909 
L 483.524609 -2.470909 
L 482.878402 -2.470909 
L 482.232195 -2.470909 
L 481.585987 -2.470909 
L 480.93978 -2.470909 
L 480.293573 -2.470909 
L 479.647365 -2.470909 
L 479.001158 -2.470909 
L 478.354951 -2.470909 
L 477.708743 -2.470909 
L 477.062536 -2.470909 
L 476.416329 -2.470909 
L 475.770122 -2.470909 
L 475.123914 -2.470909 
L 474.477707 -2.470909 
L 473.8315 -2.470909 
L 473.185292 -2.470909 
L 472.539085 -2.470909 
L 471.892878 -2.470909 
L 471.246671 -2.470909 
L 470.600463 -2.470909 
L 469.954256 -2.470909 
L 469.308049 -2.470909 
L 468.661841 -2.470909 
L 468.015634 -2.470909 
L 467.369427 -2.470909 
L 466.723219 -2.470909 
L 466.077012 -2.470909 
L 465.430805 -2.470909 
L 464.784598 -2.470909 
L 464.13839 -2.470909 
L 463.492183 -2.470909 
L 462.845976 -2.470909 
L 462.199768 -2.470909 
L 461.553561 -2.470909 
L 460.907354 -2.470909 
L 460.261146 -2.470909 
L 459.614939 -2.470909 
L 458.968732 -2.470909 
L 458.322525 -2.470909 
L 457.676317 -2.470909 
L 457.03011 -2.470909 
L 456.383903 -2.470909 
L 455.737695 -2.470909 
L 455.091488 -2.470909 
L 454.445281 -2.470909 
L 453.799074 -2.470909 
L 453.152866 -2.470909 
L 452.506659 -2.470909 
L 451.860452 -2.470909 
L 451.214244 -2.470909 
L 450.568037 -2.470909 
L 449.92183 -2.470909 
L 449.275622 -2.470909 
L 448.629415 -2.470909 
L 447.983208 -2.470909 
L 447.337001 -2.470909 
L 446.690793 -2.470909 
L 446.044586 -2.470909 
L 445.398379 -2.470909 
L 444.752171 -2.470909 
L 444.105964 -2.470909 
L 443.459757 -2.470909 
L 442.81355 -2.470909 
L 442.167342 -2.470909 
L 441.521135 -2.470909 
L 440.874928 -2.470909 
L 440.22872 -2.470909 
L 439.582513 -2.470909 
L 438.936306 -2.470909 
L 438.290098 -2.470909 
L 437.643891 -2.470909 
L 436.997684 -2.470909 
L 436.351477 -2.470909 
L 435.705269 -2.470909 
L 435.059062 -2.470909 
L 434.412855 -2.470909 
L 433.766647 -2.470909 
L 433.12044 -2.470909 
L 432.474233 -2.470909 
L 431.828025 -2.470909 
L 431.181818 -2.470909 
L 430.535611 -2.470909 
L 429.889404 -2.470909 
L 429.243196 -2.470909 
L 428.596989 -2.470909 
L 427.950782 -2.470909 
L 427.304574 -2.470909 
L 426.658367 -2.470909 
L 426.01216 -2.470909 
L 425.365953 -2.470909 
L 424.719745 -2.470909 
L 424.073538 -2.470909 
L 423.427331 -2.470909 
L 422.781123 -2.470909 
L 422.134916 -2.470909 
L 421.488709 -2.470909 
L 420.842501 -2.470909 
L 420.196294 -2.470909 
L 419.550087 -2.470909 
L 418.90388 -2.470909 
L 418.257672 -2.470909 
L 417.611465 -2.470909 
L 416.965258 -2.470909 
L 416.31905 -2.470909 
L 415.672843 -2.470909 
L 415.026636 -2.470909 
L 414.380428 -2.470909 
L 413.734221 -2.470909 
L 413.088014 -2.470909 
L 412.441807 -2.470909 
L 411.795599 -2.470909 
L 411.149392 -2.470909 
L 410.503185 -2.470909 
L 409.856977 -2.470909 
L 409.21077 -2.470909 
L 408.564563 -2.470909 
L 407.918356 -2.470909 
L 407.272148 -2.470909 
L 406.625941 -2.470909 
L 405.979734 -2.470909 
L 405.333526 -2.470909 
L 404.687319 -2.470909 
L 404.041112 -2.470909 
L 403.394904 -2.470909 
L 402.748697 -2.470909 
L 402.10249 -2.470909 
L 401.456283 -2.470909 
L 400.810075 -2.470909 
L 400.163868 -2.470909 
L 399.517661 -2.470909 
L 398.871453 -2.470909 
L 398.225246 -2.470909 
L 397.579039 -2.470909 
L 396.932831 -2.470909 
L 396.286624 -2.470909 
L 395.640417 -2.470909 
L 394.99421 -2.470909 
L 394.348002 -2.470909 
L 393.701795 -2.470909 
L 393.055588 -2.470909 
L 392.40938 -2.470909 
L 391.763173 -2.470909 
L 391.116966 -2.470909 
L 390.470759 -2.470909 
L 389.824551 -2.470909 
L 389.178344 -2.470909 
L 388.532137 -2.470909 
L 387.885929 -2.470909 
L 387.239722 -2.470909 
L 386.593515 -2.470909 
L 385.947307 -2.470909 
L 385.3011 -2.470909 
L 384.654893 -2.470909 
L 384.008686 -2.470909 
L 383.362478 -2.470909 
L 382.716271 -2.470909 
L 382.070064 -2.470909 
L 381.423856 -2.470909 
L 380.777649 -2.470909 
L 380.131442 -2.470909 
L 379.485235 -2.470909 
L 378.839027 -2.470909 
L 378.19282 -2.470909 
L 377.546613 -2.470909 
L 376.900405 -2.470909 
L 376.254198 -2.470909 
L 375.607991 -2.470909 
L 374.961783 -2.470909 
L 374.315576 -2.470909 
L 373.669369 -2.470909 
L 373.023162 -2.470909 
L 372.376954 -2.470909 
L 371.730747 -2.470909 
L 371.08454 -2.470909 
L 370.438332 -2.470909 
L 369.792125 -2.470909 
L 369.145918 -2.470909 
L 368.49971 -2.470909 
L 367.853503 -2.470909 
L 367.207296 -2.470909 
L 366.561089 -2.470909 
L 365.914881 -2.470909 
L 365.268674 -2.470909 
L 364.622467 -2.470909 
L 363.976259 -2.470909 
L 363.330052 -2.470909 
L 362.683845 -2.470909 
L 362.037638 -2.470909 
L 361.39143 -2.470909 
z
" style="stroke: #cf1313; stroke-opacity: 0.2"/>
    </defs>
    <g clip-path="url(#pdff1100e2d)">
     <use xlink:href="#mce16ce00fb" x="0" y="54.36" style="fill: #cf1313; fill-opacity: 0.2; stroke: #cf1313; stroke-opacity: 0.2"/>
    </g>
   </g>
   <g id="PolyCollection_2">
    <defs>
     <path id="m45abd07e96" d="M 119.063694 -2.470909 
L 119.063694 -4.095762 
L 119.709902 -4.231901 
L 120.356109 -4.376737 
L 121.002316 -4.530984 
L 121.648523 -4.695312 
L 122.294731 -4.87023 
L 122.940938 -5.055966 
L 123.587145 -5.252355 
L 124.233353 -5.458781 
L 124.87956 -5.674163 
L 125.525767 -5.897027 
L 126.171975 -6.125626 
L 126.818182 -6.358129 
L 127.464389 -6.592811 
L 128.110596 -6.828248 
L 128.756804 -7.063465 
L 129.403011 -7.298038 
L 130.049218 -7.532139 
L 130.695426 -7.766522 
L 131.341633 -8.002482 
L 131.98784 -8.241768 
L 132.634047 -8.486463 
L 133.280255 -8.738833 
L 133.926462 -9.001134 
L 134.572669 -9.275392 
L 135.218877 -9.56319 
L 135.865084 -9.865485 
L 136.511291 -10.182513 
L 137.157499 -10.513816 
L 137.803706 -10.858403 
L 138.449913 -11.215038 
L 139.09612 -11.582587 
L 139.742328 -11.960384 
L 140.388535 -12.348516 
L 141.034742 -12.747985 
L 141.68095 -13.160699 
L 142.327157 -13.589315 
L 142.973364 -14.036948 
L 143.619572 -14.506817 
L 144.265779 -15.001878 
L 144.911986 -15.524492 
L 145.558193 -16.07617 
L 146.204401 -16.657403 
L 146.850608 -17.267574 
L 147.496815 -17.904946 
L 148.143023 -18.566704 
L 148.78923 -19.249051 
L 149.435437 -19.947353 
L 150.081644 -20.656329 
L 150.727852 -21.370307 
L 151.374059 -22.083539 
L 152.020266 -22.790582 
L 152.666474 -23.486725 
L 153.312681 -24.168408 
L 153.958888 -24.833598 
L 154.605096 -25.482021 
L 155.251303 -26.115212 
L 155.89751 -26.736316 
L 156.543717 -27.349668 
L 157.189925 -27.960168 
L 157.836132 -28.572565 
L 158.482339 -29.190737 
L 159.128547 -29.817095 
L 159.774754 -30.452192 
L 160.420961 -31.094587 
L 161.067169 -31.74098 
L 161.713376 -32.386577 
L 162.359583 -33.025651 
L 163.00579 -33.65219 
L 163.651998 -34.260574 
L 164.298205 -34.846174 
L 164.944412 -35.405797 
L 165.59062 -35.937907 
L 166.236827 -36.442591 
L 166.883034 -36.921256 
L 167.529241 -37.37612 
L 168.175449 -37.809557 
L 168.821656 -38.223429 
L 169.467863 -38.618494 
L 170.114071 -38.994014 
L 170.760278 -39.347614 
L 171.406485 -39.675424 
L 172.052693 -39.972478 
L 172.6989 -40.233304 
L 173.345107 -40.452625 
L 173.991314 -40.626063 
L 174.637522 -40.750763 
L 175.283729 -40.825862 
L 175.929936 -40.852766 
L 176.576144 -40.835198 
L 177.222351 -40.779042 
L 177.868558 -40.691968 
L 178.514765 -40.582898 
L 179.160973 -40.461313 
L 179.80718 -40.336469 
L 180.453387 -40.216572 
L 181.099595 -40.107982 
L 181.745802 -40.014545 
L 182.392009 -39.937121 
L 183.038217 -39.873415 
L 183.684424 -39.818113 
L 184.330631 -39.76336 
L 184.976838 -39.699483 
L 185.623046 -39.615889 
L 186.269253 -39.501979 
L 186.91546 -39.347983 
L 187.561668 -39.145579 
L 188.207875 -38.888288 
L 188.854082 -38.571611 
L 189.50029 -38.192981 
L 190.146497 -37.751589 
L 190.792704 -37.248175 
L 191.438911 -36.684839 
L 192.085119 -36.064904 
L 192.731326 -35.392839 
L 193.377533 -34.674223 
L 194.023741 -33.915706 
L 194.669948 -33.124954 
L 195.316155 -32.310526 
L 195.962362 -31.481682 
L 196.60857 -30.648112 
L 197.254777 -29.819584 
L 197.900984 -29.005546 
L 198.547192 -28.21469 
L 199.193399 -27.454527 
L 199.839606 -26.730994 
L 200.485814 -26.048152 
L 201.132021 -25.407979 
L 201.778228 -24.810297 
L 202.424435 -24.252825 
L 203.070643 -23.731374 
L 203.71685 -23.240167 
L 204.363057 -22.77227 
L 205.009265 -22.320122 
L 205.655472 -21.876116 
L 206.301679 -21.433214 
L 206.947887 -20.985504 
L 207.594094 -20.528662 
L 208.240301 -20.060244 
L 208.886508 -19.579771 
L 209.532716 -19.088586 
L 210.178923 -18.589505 
L 210.82513 -18.086318 
L 211.471338 -17.583215 
L 212.117545 -17.084229 
L 212.763752 -16.592773 
L 213.409959 -16.111329 
L 214.056167 -15.641313 
L 214.702374 -15.183116 
L 215.348581 -14.73626 
L 215.994789 -14.299629 
L 216.640996 -13.871715 
L 217.287203 -13.450814 
L 217.933411 -13.035169 
L 218.579618 -12.623048 
L 219.225825 -12.212783 
L 219.872032 -11.80281 
L 220.51824 -11.391735 
L 221.164447 -10.978457 
L 221.810654 -10.562326 
L 222.456862 -10.143334 
L 223.103069 -9.722275 
L 223.749276 -9.300843 
L 224.395483 -8.881613 
L 225.041691 -8.467908 
L 225.687898 -8.063535 
L 226.334105 -7.672449 
L 226.980313 -7.298375 
L 227.62652 -6.944478 
L 228.272727 -6.61311 
L 228.918935 -6.305688 
L 229.565142 -6.022698 
L 230.211349 -5.763816 
L 230.857556 -5.528097 
L 231.503764 -5.314202 
L 232.149971 -5.120588 
L 232.796178 -4.94567 
L 233.442386 -4.787903 
L 234.088593 -4.645815 
L 234.7348 -4.51799 
L 235.381008 -4.403031 
L 236.027215 -4.299524 
L 236.673422 -4.206016 
L 237.319629 -4.121016 
L 237.965837 -4.043026 
L 238.612044 -3.970583 
L 239.258251 -3.90232 
L 239.904459 -3.837026 
L 239.904459 -2.470909 
L 239.904459 -2.470909 
L 239.258251 -2.470909 
L 238.612044 -2.470909 
L 237.965837 -2.470909 
L 237.319629 -2.470909 
L 236.673422 -2.470909 
L 236.027215 -2.470909 
L 235.381008 -2.470909 
L 234.7348 -2.470909 
L 234.088593 -2.470909 
L 233.442386 -2.470909 
L 232.796178 -2.470909 
L 232.149971 -2.470909 
L 231.503764 -2.470909 
L 230.857556 -2.470909 
L 230.211349 -2.470909 
L 229.565142 -2.470909 
L 228.918935 -2.470909 
L 228.272727 -2.470909 
L 227.62652 -2.470909 
L 226.980313 -2.470909 
L 226.334105 -2.470909 
L 225.687898 -2.470909 
L 225.041691 -2.470909 
L 224.395483 -2.470909 
L 223.749276 -2.470909 
L 223.103069 -2.470909 
L 222.456862 -2.470909 
L 221.810654 -2.470909 
L 221.164447 -2.470909 
L 220.51824 -2.470909 
L 219.872032 -2.470909 
L 219.225825 -2.470909 
L 218.579618 -2.470909 
L 217.933411 -2.470909 
L 217.287203 -2.470909 
L 216.640996 -2.470909 
L 215.994789 -2.470909 
L 215.348581 -2.470909 
L 214.702374 -2.470909 
L 214.056167 -2.470909 
L 213.409959 -2.470909 
L 212.763752 -2.470909 
L 212.117545 -2.470909 
L 211.471338 -2.470909 
L 210.82513 -2.470909 
L 210.178923 -2.470909 
L 209.532716 -2.470909 
L 208.886508 -2.470909 
L 208.240301 -2.470909 
L 207.594094 -2.470909 
L 206.947887 -2.470909 
L 206.301679 -2.470909 
L 205.655472 -2.470909 
L 205.009265 -2.470909 
L 204.363057 -2.470909 
L 203.71685 -2.470909 
L 203.070643 -2.470909 
L 202.424435 -2.470909 
L 201.778228 -2.470909 
L 201.132021 -2.470909 
L 200.485814 -2.470909 
L 199.839606 -2.470909 
L 199.193399 -2.470909 
L 198.547192 -2.470909 
L 197.900984 -2.470909 
L 197.254777 -2.470909 
L 196.60857 -2.470909 
L 195.962362 -2.470909 
L 195.316155 -2.470909 
L 194.669948 -2.470909 
L 194.023741 -2.470909 
L 193.377533 -2.470909 
L 192.731326 -2.470909 
L 192.085119 -2.470909 
L 191.438911 -2.470909 
L 190.792704 -2.470909 
L 190.146497 -2.470909 
L 189.50029 -2.470909 
L 188.854082 -2.470909 
L 188.207875 -2.470909 
L 187.561668 -2.470909 
L 186.91546 -2.470909 
L 186.269253 -2.470909 
L 185.623046 -2.470909 
L 184.976838 -2.470909 
L 184.330631 -2.470909 
L 183.684424 -2.470909 
L 183.038217 -2.470909 
L 182.392009 -2.470909 
L 181.745802 -2.470909 
L 181.099595 -2.470909 
L 180.453387 -2.470909 
L 179.80718 -2.470909 
L 179.160973 -2.470909 
L 178.514765 -2.470909 
L 177.868558 -2.470909 
L 177.222351 -2.470909 
L 176.576144 -2.470909 
L 175.929936 -2.470909 
L 175.283729 -2.470909 
L 174.637522 -2.470909 
L 173.991314 -2.470909 
L 173.345107 -2.470909 
L 172.6989 -2.470909 
L 172.052693 -2.470909 
L 171.406485 -2.470909 
L 170.760278 -2.470909 
L 170.114071 -2.470909 
L 169.467863 -2.470909 
L 168.821656 -2.470909 
L 168.175449 -2.470909 
L 167.529241 -2.470909 
L 166.883034 -2.470909 
L 166.236827 -2.470909 
L 165.59062 -2.470909 
L 164.944412 -2.470909 
L 164.298205 -2.470909 
L 163.651998 -2.470909 
L 163.00579 -2.470909 
L 162.359583 -2.470909 
L 161.713376 -2.470909 
L 161.067169 -2.470909 
L 160.420961 -2.470909 
L 159.774754 -2.470909 
L 159.128547 -2.470909 
L 158.482339 -2.470909 
L 157.836132 -2.470909 
L 157.189925 -2.470909 
L 156.543717 -2.470909 
L 155.89751 -2.470909 
L 155.251303 -2.470909 
L 154.605096 -2.470909 
L 153.958888 -2.470909 
L 153.312681 -2.470909 
L 152.666474 -2.470909 
L 152.020266 -2.470909 
L 151.374059 -2.470909 
L 150.727852 -2.470909 
L 150.081644 -2.470909 
L 149.435437 -2.470909 
L 148.78923 -2.470909 
L 148.143023 -2.470909 
L 147.496815 -2.470909 
L 146.850608 -2.470909 
L 146.204401 -2.470909 
L 145.558193 -2.470909 
L 144.911986 -2.470909 
L 144.265779 -2.470909 
L 143.619572 -2.470909 
L 142.973364 -2.470909 
L 142.327157 -2.470909 
L 141.68095 -2.470909 
L 141.034742 -2.470909 
L 140.388535 -2.470909 
L 139.742328 -2.470909 
L 139.09612 -2.470909 
L 138.449913 -2.470909 
L 137.803706 -2.470909 
L 137.157499 -2.470909 
L 136.511291 -2.470909 
L 135.865084 -2.470909 
L 135.218877 -2.470909 
L 134.572669 -2.470909 
L 133.926462 -2.470909 
L 133.280255 -2.470909 
L 132.634047 -2.470909 
L 131.98784 -2.470909 
L 131.341633 -2.470909 
L 130.695426 -2.470909 
L 130.049218 -2.470909 
L 129.403011 -2.470909 
L 128.756804 -2.470909 
L 128.110596 -2.470909 
L 127.464389 -2.470909 
L 126.818182 -2.470909 
L 126.171975 -2.470909 
L 125.525767 -2.470909 
L 124.87956 -2.470909 
L 124.233353 -2.470909 
L 123.587145 -2.470909 
L 122.940938 -2.470909 
L 122.294731 -2.470909 
L 121.648523 -2.470909 
L 121.002316 -2.470909 
L 120.356109 -2.470909 
L 119.709902 -2.470909 
L 119.063694 -2.470909 
z
" style="stroke: #116dc2; stroke-opacity: 0.2"/>
    </defs>
    <g clip-path="url(#pdff1100e2d)">
     <use xlink:href="#m45abd07e96" x="0" y="54.36" style="fill: #116dc2; fill-opacity: 0.2; stroke: #116dc2; stroke-opacity: 0.2"/>
    </g>
   </g>
   <g id="PolyCollection_3">
    <defs>
     <path id="m59fbdb1afa" d="M 25.363636 -2.470909 
L 25.363636 -4.409276 
L 26.009844 -5.000745 
L 26.656051 -5.740525 
L 27.302258 -6.579067 
L 27.948466 -7.413589 
L 28.594673 -8.231557 
L 29.24088 -9.174119 
L 29.887087 -10.398018 
L 30.533295 -11.890991 
L 31.179502 -13.503193 
L 31.825709 -15.190466 
L 32.471917 -17.129264 
L 33.118124 -19.498892 
L 33.764331 -22.214428 
L 34.410539 -24.993872 
L 35.056746 -27.63959 
L 35.702953 -30.143453 
L 36.34916 -32.611568 
L 36.995368 -35.21938 
L 37.641575 -38.11861 
L 38.287782 -41.21224 
L 38.93399 -44.100055 
L 39.580197 -46.413863 
L 40.226404 -48.152507 
L 40.872611 -49.569449 
L 41.518819 -50.80076 
L 42.165026 -51.677447 
L 42.811233 -51.889091 
L 43.457441 -51.305532 
L 44.103648 -50.066431 
L 44.749855 -48.427371 
L 45.396063 -46.639836 
L 46.04227 -44.793103 
L 46.688477 -42.734753 
L 47.334684 -40.405373 
L 47.980892 -38.041627 
L 48.627099 -35.779129 
L 49.273306 -33.411116 
L 49.919514 -30.713902 
L 50.565721 -27.761173 
L 51.211928 -24.862695 
L 51.858135 -22.258736 
L 52.504343 -19.947475 
L 53.15055 -17.856288 
L 53.796757 -15.989507 
L 54.442965 -14.323794 
L 55.089172 -12.800758 
L 55.735379 -11.431501 
L 56.381587 -10.218227 
L 57.027794 -9.090023 
L 57.674001 -8.008794 
L 58.320208 -6.994339 
L 58.966416 -6.063337 
L 59.612623 -5.24725 
L 60.25883 -4.599806 
L 60.25883 -2.470909 
L 60.25883 -2.470909 
L 59.612623 -2.470909 
L 58.966416 -2.470909 
L 58.320208 -2.470909 
L 57.674001 -2.470909 
L 57.027794 -2.470909 
L 56.381587 -2.470909 
L 55.735379 -2.470909 
L 55.089172 -2.470909 
L 54.442965 -2.470909 
L 53.796757 -2.470909 
L 53.15055 -2.470909 
L 52.504343 -2.470909 
L 51.858135 -2.470909 
L 51.211928 -2.470909 
L 50.565721 -2.470909 
L 49.919514 -2.470909 
L 49.273306 -2.470909 
L 48.627099 -2.470909 
L 47.980892 -2.470909 
L 47.334684 -2.470909 
L 46.688477 -2.470909 
L 46.04227 -2.470909 
L 45.396063 -2.470909 
L 44.749855 -2.470909 
L 44.103648 -2.470909 
L 43.457441 -2.470909 
L 42.811233 -2.470909 
L 42.165026 -2.470909 
L 41.518819 -2.470909 
L 40.872611 -2.470909 
L 40.226404 -2.470909 
L 39.580197 -2.470909 
L 38.93399 -2.470909 
L 38.287782 -2.470909 
L 37.641575 -2.470909 
L 36.995368 -2.470909 
L 36.34916 -2.470909 
L 35.702953 -2.470909 
L 35.056746 -2.470909 
L 34.410539 -2.470909 
L 33.764331 -2.470909 
L 33.118124 -2.470909 
L 32.471917 -2.470909 
L 31.825709 -2.470909 
L 31.179502 -2.470909 
L 30.533295 -2.470909 
L 29.887087 -2.470909 
L 29.24088 -2.470909 
L 28.594673 -2.470909 
L 27.948466 -2.470909 
L 27.302258 -2.470909 
L 26.656051 -2.470909 
L 26.009844 -2.470909 
L 25.363636 -2.470909 
z
" style="stroke: #8a8a8a; stroke-opacity: 0.2"/>
    </defs>
    <g clip-path="url(#pdff1100e2d)">
     <use xlink:href="#m59fbdb1afa" x="0" y="54.36" style="fill: #8a8a8a; fill-opacity: 0.2; stroke: #8a8a8a; stroke-opacity: 0.2"/>
    </g>
   </g>
   <g id="line2d_1">
    <path d="M 361.39143 50.357204 
L 366.561089 49.666613 
L 370.438332 48.920734 
L 374.961783 47.792242 
L 382.716271 45.591562 
L 388.532137 43.790652 
L 391.763173 42.556316 
L 394.348002 41.345785 
L 398.225246 39.242399 
L 406.625941 34.372186 
L 422.134916 24.951299 
L 427.304574 22.172099 
L 431.828025 20.021481 
L 435.705269 18.381771 
L 438.936306 17.251063 
L 441.521135 16.601518 
L 443.459757 16.305653 
L 446.044586 16.173729 
L 448.629415 16.286102 
L 451.860452 16.648006 
L 454.445281 17.105183 
L 457.03011 17.788116 
L 459.614939 18.727672 
L 464.13839 20.706355 
L 472.539085 24.550061 
L 475.123914 26.005507 
L 478.354951 28.086011 
L 486.109438 33.219057 
L 491.925304 36.727351 
L 496.448755 39.17738 
L 502.264621 42.025545 
L 507.434279 44.306942 
L 511.95773 46.055996 
L 515.834974 47.310373 
L 519.06601 48.140563 
L 522.943254 48.915272 
L 528.75912 49.834794 
L 532.636364 50.361143 
L 532.636364 50.361143 
" clip-path="url(#pdff1100e2d)" style="fill: none; stroke: #cf1313; stroke-width: 1.5; stroke-linecap: square"/>
   </g>
   <g id="line2d_2">
    <path d="M 119.063694 50.264238 
L 122.294731 49.48977 
L 125.525767 48.462973 
L 133.280255 45.621167 
L 135.865084 44.494515 
L 138.449913 43.144962 
L 141.68095 41.199301 
L 144.265779 39.358122 
L 146.204401 37.702597 
L 148.78923 35.110949 
L 155.251303 28.244788 
L 165.59062 18.422093 
L 167.529241 16.98388 
L 170.114071 15.365986 
L 172.052693 14.387522 
L 173.345107 13.907375 
L 174.637522 13.609237 
L 175.929936 13.507234 
L 177.868558 13.668032 
L 183.684424 14.541887 
L 186.269253 14.858021 
L 187.561668 15.214421 
L 188.854082 15.788389 
L 190.146497 16.608411 
L 191.438911 17.675161 
L 193.377533 19.685777 
L 195.962362 22.878318 
L 199.193399 26.905473 
L 201.132021 28.952021 
L 203.070643 30.628626 
L 205.655472 32.483884 
L 209.532716 35.271414 
L 215.348581 39.62374 
L 219.872032 42.55719 
L 227.62652 47.415522 
L 229.565142 48.337302 
L 231.503764 49.045798 
L 234.088593 49.714185 
L 236.673422 50.153984 
L 239.904459 50.522974 
L 239.904459 50.522974 
" clip-path="url(#pdff1100e2d)" style="fill: none; stroke: #116dc2; stroke-width: 1.5; stroke-linecap: square"/>
   </g>
   <g id="line2d_3">
    <path d="M 25.363636 49.950724 
L 26.009844 49.359255 
L 26.656051 48.619475 
L 27.302258 47.780933 
L 27.948466 46.946411 
L 28.594673 46.128443 
L 29.24088 45.185881 
L 29.887087 43.961982 
L 30.533295 42.469009 
L 31.179502 40.856807 
L 31.825709 39.169534 
L 32.471917 37.230736 
L 33.118124 34.861108 
L 33.764331 32.145572 
L 34.410539 29.366128 
L 35.056746 26.72041 
L 35.702953 24.216547 
L 36.34916 21.748432 
L 36.995368 19.14062 
L 37.641575 16.24139 
L 38.287782 13.14776 
L 38.93399 10.259945 
L 39.580197 7.946137 
L 40.226404 6.207493 
L 40.872611 4.790551 
L 41.518819 3.55924 
L 42.165026 2.682553 
L 42.811233 2.470909 
L 43.457441 3.054468 
L 44.103648 4.293569 
L 44.749855 5.932629 
L 45.396063 7.720164 
L 46.04227 9.566897 
L 46.688477 11.625247 
L 47.334684 13.954627 
L 47.980892 16.318373 
L 48.627099 18.580871 
L 49.273306 20.948884 
L 49.919514 23.646098 
L 50.565721 26.598827 
L 51.211928 29.497305 
L 51.858135 32.101264 
L 52.504343 34.412525 
L 53.15055 36.503712 
L 53.796757 38.370493 
L 54.442965 40.036206 
L 55.089172 41.559242 
L 55.735379 42.928499 
L 56.381587 44.141773 
L 57.027794 45.269977 
L 57.674001 46.351206 
L 58.320208 47.365661 
L 58.966416 48.296663 
L 59.612623 49.11275 
L 60.25883 49.760194 
" clip-path="url(#pdff1100e2d)" style="fill: none; stroke: #8a8a8a; stroke-width: 1.5; stroke-linecap: square"/>
   </g>
  </g>
 </g>
 <defs>
  <clipPath id="pdff1100e2d">
   <rect x="0" y="-0" width="558" height="54.36"/>
  </clipPath>
 </defs>
</svg>
