<?xml version="1.0" encoding="utf-8" standalone="no"?>
<!DOCTYPE svg PUBLIC "-//W3C//DTD SVG 1.1//EN"
  "http://www.w3.org/Graphics/SVG/1.1/DTD/svg11.dtd">
<svg xmlns:xlink="http://www.w3.org/1999/xlink" width="558pt" height="54.36pt" viewBox="0 0 558 54.36" xmlns="http://www.w3.org/2000/svg" version="1.1">
 <metadata>
  <rdf:RDF xmlns:dc="http://purl.org/dc/elements/1.1/" xmlns:cc="http://creativecommons.org/ns#" xmlns:rdf="http://www.w3.org/1999/02/22-rdf-syntax-ns#">
   <cc:Work>
    <dc:type rdf:resource="http://purl.org/dc/dcmitype/StillImage"/>
    <dc:date>2024-09-14T12:46:34.736079</dc:date>
    <dc:format>image/svg+xml</dc:format>
    <dc:creator>
     <cc:Agent>
      <dc:title>Matplotlib v3.5.2, https://matplotlib.org/</dc:title>
     </cc:Agent>
    </dc:creator>
   </cc:Work>
  </rdf:RDF>
 </metadata>
 <defs>
  <style type="text/css">*{stroke-linejoin: round; stroke-linecap: butt}</style>
 </defs>
 <g id="figure_1">
  <g id="patch_1">
   <path d="M 0 54.36 
L 558 54.36 
L 558 0 
L 0 0 
L 0 54.36 
z
" style="fill: none; opacity: 0"/>
  </g>
  <g id="axes_1">
   <g id="PolyCollection_1">
    <defs>
     <path id="mbeddd285b7" d="M 356.304786 -2.470909 
L 356.304786 -3.810692 
L 356.943668 -3.878229 
L 357.582551 -3.948918 
L 358.221433 -4.023031 
L 358.860316 -4.10083 
L 359.499199 -4.182554 
L 360.138081 -4.268411 
L 360.776964 -4.358569 
L 361.415846 -4.453151 
L 362.054729 -4.552237 
L 362.693611 -4.65586 
L 363.332494 -4.764013 
L 363.971376 -4.876647 
L 364.610259 -4.993677 
L 365.249141 -5.114984 
L 365.888024 -5.24042 
L 366.526906 -5.36981 
L 367.165789 -5.50296 
L 367.804671 -5.639665 
L 368.443554 -5.779716 
L 369.082436 -5.922914 
L 369.721319 -6.069076 
L 370.360202 -6.218049 
L 370.999084 -6.369714 
L 371.637967 -6.523994 
L 372.276849 -6.680855 
L 372.915732 -6.840301 
L 373.554614 -7.002372 
L 374.193497 -7.167129 
L 374.832379 -7.334654 
L 375.471262 -7.505031 
L 376.110144 -7.678351 
L 376.749027 -7.8547 
L 377.387909 -8.034167 
L 378.026792 -8.216849 
L 378.665674 -8.40286 
L 379.304557 -8.592342 
L 379.943439 -8.785475 
L 380.582322 -8.982491 
L 381.221204 -9.183673 
L 381.860087 -9.38936 
L 382.49897 -9.599941 
L 383.137852 -9.815844 
L 383.776735 -10.037524 
L 384.415617 -10.26544 
L 385.0545 -10.500038 
L 385.693382 -10.741728 
L 386.332265 -10.990861 
L 386.971147 -11.247705 
L 387.61003 -11.512429 
L 388.248912 -11.785085 
L 388.887795 -12.065594 
L 389.526677 -12.353745 
L 390.16556 -12.649193 
L 390.804442 -12.951483 
L 391.443325 -13.260067 
L 392.082207 -13.574353 
L 392.72109 -13.893751 
L 393.359973 -14.217738 
L 393.998855 -14.545921 
L 394.637738 -14.878098 
L 395.27662 -15.214314 
L 395.915503 -15.554891 
L 396.554385 -15.900445 
L 397.193268 -16.25186 
L 397.83215 -16.610242 
L 398.471033 -16.976832 
L 399.109915 -17.352903 
L 399.748798 -17.739629 
L 400.38768 -18.137956 
L 401.026563 -18.548476 
L 401.665445 -18.971315 
L 402.304328 -19.406059 
L 402.94321 -19.851714 
L 403.582093 -20.306715 
L 404.220975 -20.768982 
L 404.859858 -21.236011 
L 405.498741 -21.705016 
L 406.137623 -22.173079 
L 406.776506 -22.637326 
L 407.415388 -23.095091 
L 408.054271 -23.544071 
L 408.693153 -23.982449 
L 409.332036 -24.408986 
L 409.970918 -24.823068 
L 410.609801 -25.224716 
L 411.248683 -25.614544 
L 411.887566 -25.993701 
L 412.526448 -26.363766 
L 413.165331 -26.72663 
L 413.804213 -27.084378 
L 414.443096 -27.43915 
L 415.081978 -27.793024 
L 415.720861 -28.147906 
L 416.359744 -28.505435 
L 416.998626 -28.866918 
L 417.637509 -29.233275 
L 418.276391 -29.605019 
L 418.915274 -29.982252 
L 419.554156 -30.36468 
L 420.193039 -30.751644 
L 420.831921 -31.14217 
L 421.470804 -31.535019 
L 422.109686 -31.928744 
L 422.748569 -32.32175 
L 423.387451 -32.712349 
L 424.026334 -33.098809 
L 424.665216 -33.479402 
L 425.304099 -33.852436 
L 425.942981 -34.216292 
L 426.581864 -34.569448 
L 427.220747 -34.910501 
L 427.859629 -35.23818 
L 428.498512 -35.551369 
L 429.137394 -35.849108 
L 429.776277 -36.130605 
L 430.415159 -36.395229 
L 431.054042 -36.642509 
L 431.692924 -36.872113 
L 432.331807 -37.083829 
L 432.970689 -37.277534 
L 433.609572 -37.45316 
L 434.248454 -37.61066 
L 434.887337 -37.749975 
L 435.526219 -37.871004 
L 436.165102 -37.973587 
L 436.803984 -38.0575 
L 437.442867 -38.122463 
L 438.081749 -38.16816 
L 438.720632 -38.194276 
L 439.359515 -38.200545 
L 439.998397 -38.186803 
L 440.63728 -38.153048 
L 441.276162 -38.099496 
L 441.915045 -38.026632 
L 442.553927 -37.935245 
L 443.19281 -37.826457 
L 443.831692 -37.701723 
L 444.470575 -37.562818 
L 445.109457 -37.411794 
L 445.74834 -37.250926 
L 446.387222 -37.082638 
L 447.026105 -36.909408 
L 447.664987 -36.733676 
L 448.30387 -36.557738 
L 448.942752 -36.383655 
L 449.581635 -36.21316 
L 450.220518 -36.047589 
L 450.8594 -35.88782 
L 451.498283 -35.734247 
L 452.137165 -35.586766 
L 452.776048 -35.444791 
L 453.41493 -35.30729 
L 454.053813 -35.172842 
L 454.692695 -35.039718 
L 455.331578 -34.905964 
L 455.97046 -34.769504 
L 456.609343 -34.62824 
L 457.248225 -34.480149 
L 457.887108 -34.32338 
L 458.52599 -34.156321 
L 459.164873 -33.977663 
L 459.803755 -33.786428 
L 460.442638 -33.58198 
L 461.08152 -33.364011 
L 461.720403 -33.132498 
L 462.359286 -32.887653 
L 462.998168 -32.629855 
L 463.637051 -32.359584 
L 464.275933 -32.077355 
L 464.914816 -31.783673 
L 465.553698 -31.47899 
L 466.192581 -31.163699 
L 466.831463 -30.838134 
L 467.470346 -30.502596 
L 468.109228 -30.157391 
L 468.748111 -29.802865 
L 469.386993 -29.439454 
L 470.025876 -29.06771 
L 470.664758 -28.68833 
L 471.303641 -28.302151 
L 471.942523 -27.910142 
L 472.581406 -27.513372 
L 473.220289 -27.112962 
L 473.859171 -26.710033 
L 474.498054 -26.305647 
L 475.136936 -25.900751 
L 475.775819 -25.496129 
L 476.414701 -25.092362 
L 477.053584 -24.689811 
L 477.692466 -24.288607 
L 478.331349 -23.888662 
L 478.970231 -23.489698 
L 479.609114 -23.09128 
L 480.247996 -22.692866 
L 480.886879 -22.293863 
L 481.525761 -21.89368 
L 482.164644 -21.491784 
L 482.803526 -21.087752 
L 483.442409 -20.681309 
L 484.081292 -20.272365 
L 484.720174 -19.861026 
L 485.359057 -19.4476 
L 485.997939 -19.032585 
L 486.636822 -18.616647 
L 487.275704 -18.200574 
L 487.914587 -17.78524 
L 488.553469 -17.37155 
L 489.192352 -16.960399 
L 489.831234 -16.552625 
L 490.470117 -16.148985 
L 491.108999 -15.750138 
L 491.747882 -15.356645 
L 492.386764 -14.968985 
L 493.025647 -14.587583 
L 493.664529 -14.212844 
L 494.303412 -13.845192 
L 494.942294 -13.4851 
L 495.581177 -13.133117 
L 496.22006 -12.789876 
L 496.858942 -12.456088 
L 497.497825 -12.132516 
L 498.136707 -11.819942 
L 498.77559 -11.519114 
L 499.414472 -11.23069 
L 500.053355 -10.955188 
L 500.692237 -10.692933 
L 501.33112 -10.444025 
L 501.970002 -10.208309 
L 502.608885 -9.985375 
L 503.247767 -9.774565 
L 503.88665 -9.574996 
L 504.525532 -9.3856 
L 505.164415 -9.20517 
L 505.803297 -9.032405 
L 506.44218 -8.865966 
L 507.081063 -8.704522 
L 507.719945 -8.546795 
L 508.358828 -8.391599 
L 508.99771 -8.237875 
L 509.636593 -8.084708 
L 510.275475 -7.931354 
L 510.914358 -7.777243 
L 511.55324 -7.621986 
L 512.192123 -7.465372 
L 512.831005 -7.30736 
L 513.469888 -7.148062 
L 514.10877 -6.987725 
L 514.747653 -6.826712 
L 515.386535 -6.665473 
L 516.025418 -6.504525 
L 516.6643 -6.344423 
L 517.303183 -6.185744 
L 517.942065 -6.029066 
L 518.580948 -5.874953 
L 519.219831 -5.723948 
L 519.858713 -5.57656 
L 520.497596 -5.433265 
L 521.136478 -5.294495 
L 521.775361 -5.160637 
L 522.414243 -5.032027 
L 523.053126 -4.908947 
L 523.692008 -4.791615 
L 524.330891 -4.680181 
L 524.969773 -4.574722 
L 525.608656 -4.475237 
L 526.247538 -4.381651 
L 526.886421 -4.293812 
L 527.525303 -4.211505 
L 528.164186 -4.134455 
L 528.803068 -4.062343 
L 529.441951 -3.99482 
L 530.080834 -3.93152 
L 530.719716 -3.872071 
L 531.358599 -3.816112 
L 531.997481 -3.763294 
L 532.636364 -3.713292 
L 532.636364 -2.470909 
L 532.636364 -2.470909 
L 531.997481 -2.470909 
L 531.358599 -2.470909 
L 530.719716 -2.470909 
L 530.080834 -2.470909 
L 529.441951 -2.470909 
L 528.803068 -2.470909 
L 528.164186 -2.470909 
L 527.525303 -2.470909 
L 526.886421 -2.470909 
L 526.247538 -2.470909 
L 525.608656 -2.470909 
L 524.969773 -2.470909 
L 524.330891 -2.470909 
L 523.692008 -2.470909 
L 523.053126 -2.470909 
L 522.414243 -2.470909 
L 521.775361 -2.470909 
L 521.136478 -2.470909 
L 520.497596 -2.470909 
L 519.858713 -2.470909 
L 519.219831 -2.470909 
L 518.580948 -2.470909 
L 517.942065 -2.470909 
L 517.303183 -2.470909 
L 516.6643 -2.470909 
L 516.025418 -2.470909 
L 515.386535 -2.470909 
L 514.747653 -2.470909 
L 514.10877 -2.470909 
L 513.469888 -2.470909 
L 512.831005 -2.470909 
L 512.192123 -2.470909 
L 511.55324 -2.470909 
L 510.914358 -2.470909 
L 510.275475 -2.470909 
L 509.636593 -2.470909 
L 508.99771 -2.470909 
L 508.358828 -2.470909 
L 507.719945 -2.470909 
L 507.081063 -2.470909 
L 506.44218 -2.470909 
L 505.803297 -2.470909 
L 505.164415 -2.470909 
L 504.525532 -2.470909 
L 503.88665 -2.470909 
L 503.247767 -2.470909 
L 502.608885 -2.470909 
L 501.970002 -2.470909 
L 501.33112 -2.470909 
L 500.692237 -2.470909 
L 500.053355 -2.470909 
L 499.414472 -2.470909 
L 498.77559 -2.470909 
L 498.136707 -2.470909 
L 497.497825 -2.470909 
L 496.858942 -2.470909 
L 496.22006 -2.470909 
L 495.581177 -2.470909 
L 494.942294 -2.470909 
L 494.303412 -2.470909 
L 493.664529 -2.470909 
L 493.025647 -2.470909 
L 492.386764 -2.470909 
L 491.747882 -2.470909 
L 491.108999 -2.470909 
L 490.470117 -2.470909 
L 489.831234 -2.470909 
L 489.192352 -2.470909 
L 488.553469 -2.470909 
L 487.914587 -2.470909 
L 487.275704 -2.470909 
L 486.636822 -2.470909 
L 485.997939 -2.470909 
L 485.359057 -2.470909 
L 484.720174 -2.470909 
L 484.081292 -2.470909 
L 483.442409 -2.470909 
L 482.803526 -2.470909 
L 482.164644 -2.470909 
L 481.525761 -2.470909 
L 480.886879 -2.470909 
L 480.247996 -2.470909 
L 479.609114 -2.470909 
L 478.970231 -2.470909 
L 478.331349 -2.470909 
L 477.692466 -2.470909 
L 477.053584 -2.470909 
L 476.414701 -2.470909 
L 475.775819 -2.470909 
L 475.136936 -2.470909 
L 474.498054 -2.470909 
L 473.859171 -2.470909 
L 473.220289 -2.470909 
L 472.581406 -2.470909 
L 471.942523 -2.470909 
L 471.303641 -2.470909 
L 470.664758 -2.470909 
L 470.025876 -2.470909 
L 469.386993 -2.470909 
L 468.748111 -2.470909 
L 468.109228 -2.470909 
L 467.470346 -2.470909 
L 466.831463 -2.470909 
L 466.192581 -2.470909 
L 465.553698 -2.470909 
L 464.914816 -2.470909 
L 464.275933 -2.470909 
L 463.637051 -2.470909 
L 462.998168 -2.470909 
L 462.359286 -2.470909 
L 461.720403 -2.470909 
L 461.08152 -2.470909 
L 460.442638 -2.470909 
L 459.803755 -2.470909 
L 459.164873 -2.470909 
L 458.52599 -2.470909 
L 457.887108 -2.470909 
L 457.248225 -2.470909 
L 456.609343 -2.470909 
L 455.97046 -2.470909 
L 455.331578 -2.470909 
L 454.692695 -2.470909 
L 454.053813 -2.470909 
L 453.41493 -2.470909 
L 452.776048 -2.470909 
L 452.137165 -2.470909 
L 451.498283 -2.470909 
L 450.8594 -2.470909 
L 450.220518 -2.470909 
L 449.581635 -2.470909 
L 448.942752 -2.470909 
L 448.30387 -2.470909 
L 447.664987 -2.470909 
L 447.026105 -2.470909 
L 446.387222 -2.470909 
L 445.74834 -2.470909 
L 445.109457 -2.470909 
L 444.470575 -2.470909 
L 443.831692 -2.470909 
L 443.19281 -2.470909 
L 442.553927 -2.470909 
L 441.915045 -2.470909 
L 441.276162 -2.470909 
L 440.63728 -2.470909 
L 439.998397 -2.470909 
L 439.359515 -2.470909 
L 438.720632 -2.470909 
L 438.081749 -2.470909 
L 437.442867 -2.470909 
L 436.803984 -2.470909 
L 436.165102 -2.470909 
L 435.526219 -2.470909 
L 434.887337 -2.470909 
L 434.248454 -2.470909 
L 433.609572 -2.470909 
L 432.970689 -2.470909 
L 432.331807 -2.470909 
L 431.692924 -2.470909 
L 431.054042 -2.470909 
L 430.415159 -2.470909 
L 429.776277 -2.470909 
L 429.137394 -2.470909 
L 428.498512 -2.470909 
L 427.859629 -2.470909 
L 427.220747 -2.470909 
L 426.581864 -2.470909 
L 425.942981 -2.470909 
L 425.304099 -2.470909 
L 424.665216 -2.470909 
L 424.026334 -2.470909 
L 423.387451 -2.470909 
L 422.748569 -2.470909 
L 422.109686 -2.470909 
L 421.470804 -2.470909 
L 420.831921 -2.470909 
L 420.193039 -2.470909 
L 419.554156 -2.470909 
L 418.915274 -2.470909 
L 418.276391 -2.470909 
L 417.637509 -2.470909 
L 416.998626 -2.470909 
L 416.359744 -2.470909 
L 415.720861 -2.470909 
L 415.081978 -2.470909 
L 414.443096 -2.470909 
L 413.804213 -2.470909 
L 413.165331 -2.470909 
L 412.526448 -2.470909 
L 411.887566 -2.470909 
L 411.248683 -2.470909 
L 410.609801 -2.470909 
L 409.970918 -2.470909 
L 409.332036 -2.470909 
L 408.693153 -2.470909 
L 408.054271 -2.470909 
L 407.415388 -2.470909 
L 406.776506 -2.470909 
L 406.137623 -2.470909 
L 405.498741 -2.470909 
L 404.859858 -2.470909 
L 404.220975 -2.470909 
L 403.582093 -2.470909 
L 402.94321 -2.470909 
L 402.304328 -2.470909 
L 401.665445 -2.470909 
L 401.026563 -2.470909 
L 400.38768 -2.470909 
L 399.748798 -2.470909 
L 399.109915 -2.470909 
L 398.471033 -2.470909 
L 397.83215 -2.470909 
L 397.193268 -2.470909 
L 396.554385 -2.470909 
L 395.915503 -2.470909 
L 395.27662 -2.470909 
L 394.637738 -2.470909 
L 393.998855 -2.470909 
L 393.359973 -2.470909 
L 392.72109 -2.470909 
L 392.082207 -2.470909 
L 391.443325 -2.470909 
L 390.804442 -2.470909 
L 390.16556 -2.470909 
L 389.526677 -2.470909 
L 388.887795 -2.470909 
L 388.248912 -2.470909 
L 387.61003 -2.470909 
L 386.971147 -2.470909 
L 386.332265 -2.470909 
L 385.693382 -2.470909 
L 385.0545 -2.470909 
L 384.415617 -2.470909 
L 383.776735 -2.470909 
L 383.137852 -2.470909 
L 382.49897 -2.470909 
L 381.860087 -2.470909 
L 381.221204 -2.470909 
L 380.582322 -2.470909 
L 379.943439 -2.470909 
L 379.304557 -2.470909 
L 378.665674 -2.470909 
L 378.026792 -2.470909 
L 377.387909 -2.470909 
L 376.749027 -2.470909 
L 376.110144 -2.470909 
L 375.471262 -2.470909 
L 374.832379 -2.470909 
L 374.193497 -2.470909 
L 373.554614 -2.470909 
L 372.915732 -2.470909 
L 372.276849 -2.470909 
L 371.637967 -2.470909 
L 370.999084 -2.470909 
L 370.360202 -2.470909 
L 369.721319 -2.470909 
L 369.082436 -2.470909 
L 368.443554 -2.470909 
L 367.804671 -2.470909 
L 367.165789 -2.470909 
L 366.526906 -2.470909 
L 365.888024 -2.470909 
L 365.249141 -2.470909 
L 364.610259 -2.470909 
L 363.971376 -2.470909 
L 363.332494 -2.470909 
L 362.693611 -2.470909 
L 362.054729 -2.470909 
L 361.415846 -2.470909 
L 360.776964 -2.470909 
L 360.138081 -2.470909 
L 359.499199 -2.470909 
L 358.860316 -2.470909 
L 358.221433 -2.470909 
L 357.582551 -2.470909 
L 356.943668 -2.470909 
L 356.304786 -2.470909 
z
" style="stroke: #cf1313; stroke-opacity: 0.2"/>
    </defs>
    <g clip-path="url(#p60fa8bdbfe)">
     <use xlink:href="#mbeddd285b7" x="0" y="54.36" style="fill: #cf1313; fill-opacity: 0.2; stroke: #cf1313; stroke-opacity: 0.2"/>
    </g>
   </g>
   <g id="PolyCollection_2">
    <defs>
     <path id="m92eb318572" d="M 119.279368 -2.470909 
L 119.279368 -4.135942 
L 119.918251 -4.230619 
L 120.557133 -4.329758 
L 121.196016 -4.434112 
L 121.834898 -4.544633 
L 122.473781 -4.662569 
L 123.112663 -4.789497 
L 123.751546 -4.927291 
L 124.390428 -5.078002 
L 125.029311 -5.243694 
L 125.668193 -5.426247 
L 126.307076 -5.627196 
L 126.945958 -5.847606 
L 127.584841 -6.088021 
L 128.223723 -6.348486 
L 128.862606 -6.628599 
L 129.501488 -6.927602 
L 130.140371 -7.24444 
L 130.779253 -7.577807 
L 131.418136 -7.926143 
L 132.057019 -8.28763 
L 132.695901 -8.660184 
L 133.334784 -9.041492 
L 133.973666 -9.429112 
L 134.612549 -9.820644 
L 135.251431 -10.213953 
L 135.890314 -10.607427 
L 136.529196 -11.000214 
L 137.168079 -11.392406 
L 137.806961 -11.785132 
L 138.445844 -12.180547 
L 139.084726 -12.581712 
L 139.723609 -12.99238 
L 140.362491 -13.416719 
L 141.001374 -13.85898 
L 141.640256 -14.323147 
L 142.279139 -14.812581 
L 142.918022 -15.329682 
L 143.556904 -15.875581 
L 144.195787 -16.449917 
L 144.834669 -17.050705 
L 145.473552 -17.674348 
L 146.112434 -18.315811 
L 146.751317 -18.968959 
L 147.390199 -19.627046 
L 148.029082 -20.283308 
L 148.667964 -20.931586 
L 149.306847 -21.566898 
L 149.945729 -22.185884 
L 150.584612 -22.787031 
L 151.223494 -23.370661 
L 151.862377 -23.938669 
L 152.501259 -24.494055 
L 153.140142 -25.040322 
L 153.779025 -25.580865 
L 154.417907 -26.118428 
L 155.05679 -26.654727 
L 155.695672 -27.190294 
L 156.334555 -27.724548 
L 156.973437 -28.256059 
L 157.61232 -28.78296 
L 158.251202 -29.303433 
L 158.890085 -29.816198 
L 159.528967 -30.320927 
L 160.16785 -30.818547 
L 160.806732 -31.311364 
L 161.445615 -31.802995 
L 162.084497 -32.298091 
L 162.72338 -32.801882 
L 163.362262 -33.319564 
L 164.001145 -33.855613 
L 164.640027 -34.413088 
L 165.27891 -34.993 
L 165.917793 -35.59383 
L 166.556675 -36.211237 
L 167.195558 -36.837997 
L 167.83444 -37.464203 
L 168.473323 -38.077712 
L 169.112205 -38.664839 
L 169.751088 -39.211257 
L 170.38997 -39.703047 
L 171.028853 -40.127806 
L 171.667735 -40.47572 
L 172.306618 -40.740477 
L 172.9455 -40.919893 
L 173.584383 -41.016191 
L 174.223265 -41.035837 
L 174.862148 -40.988974 
L 175.50103 -40.888481 
L 176.139913 -40.748787 
L 176.778796 -40.584582 
L 177.417678 -40.409583 
L 178.056561 -40.235515 
L 178.695443 -40.071392 
L 179.334326 -39.923151 
L 179.973208 -39.793615 
L 180.612091 -39.68271 
L 181.250973 -39.587839 
L 181.889856 -39.50431 
L 182.528738 -39.425778 
L 183.167621 -39.344647 
L 183.806503 -39.252489 
L 184.445386 -39.140486 
L 185.084268 -38.999955 
L 185.723151 -38.822937 
L 186.362033 -38.60285 
L 187.000916 -38.335089 
L 187.639798 -38.017508 
L 188.278681 -37.650657 
L 188.917564 -37.237699 
L 189.556446 -36.783958 
L 190.195329 -36.296141 
L 190.834211 -35.781311 
L 191.473094 -35.245774 
L 192.111976 -34.694088 
L 192.750859 -34.128376 
L 193.389741 -33.548123 
L 194.028624 -32.950533 
L 194.667506 -32.331408 
L 195.306389 -31.686401 
L 195.945271 -31.012405 
L 196.584154 -30.308785 
L 197.223036 -29.578176 
L 197.861919 -28.826668 
L 198.500801 -28.063312 
L 199.139684 -27.299025 
L 199.778567 -26.545118 
L 200.417449 -25.811718 
L 201.056332 -25.106386 
L 201.695214 -24.433196 
L 202.334097 -23.792411 
L 202.972979 -23.180789 
L 203.611862 -22.59242 
L 204.250744 -22.019917 
L 204.889627 -21.455704 
L 205.528509 -20.893182 
L 206.167392 -20.32759 
L 206.806274 -19.756444 
L 207.445157 -19.179558 
L 208.084039 -18.598714 
L 208.722922 -18.017094 
L 209.361804 -17.438636 
L 210.000687 -16.867422 
L 210.639569 -16.307202 
L 211.278452 -15.761088 
L 211.917335 -15.231406 
L 212.556217 -14.719691 
L 213.1951 -14.226765 
L 213.833982 -13.752858 
L 214.472865 -13.29775 
L 215.111747 -12.860889 
L 215.75063 -12.441485 
L 216.389512 -12.038568 
L 217.028395 -11.651016 
L 217.667277 -11.277545 
L 218.30616 -10.916708 
L 218.945042 -10.566899 
L 219.583925 -10.226393 
L 220.222807 -9.893442 
L 220.86169 -9.566397 
L 221.500572 -9.243857 
L 222.139455 -8.924806 
L 222.778338 -8.608696 
L 223.41722 -8.295473 
L 224.056103 -7.985524 
L 224.694985 -7.679585 
L 225.333868 -7.378616 
L 225.97275 -7.083691 
L 226.611633 -6.795925 
L 227.250515 -6.516437 
L 227.889398 -6.246344 
L 228.52828 -5.986764 
L 229.167163 -5.7388 
L 229.806045 -5.503499 
L 230.444928 -5.281773 
L 231.08381 -5.074314 
L 231.722693 -4.881521 
L 232.361575 -4.70346 
L 233.000458 -4.539888 
L 233.639341 -4.390321 
L 234.278223 -4.254137 
L 234.917106 -4.130682 
L 235.555988 -4.019348 
L 236.194871 -3.919596 
L 236.833753 -3.830932 
L 237.472636 -3.752833 
L 238.111518 -3.684664 
L 238.111518 -2.470909 
L 238.111518 -2.470909 
L 237.472636 -2.470909 
L 236.833753 -2.470909 
L 236.194871 -2.470909 
L 235.555988 -2.470909 
L 234.917106 -2.470909 
L 234.278223 -2.470909 
L 233.639341 -2.470909 
L 233.000458 -2.470909 
L 232.361575 -2.470909 
L 231.722693 -2.470909 
L 231.08381 -2.470909 
L 230.444928 -2.470909 
L 229.806045 -2.470909 
L 229.167163 -2.470909 
L 228.52828 -2.470909 
L 227.889398 -2.470909 
L 227.250515 -2.470909 
L 226.611633 -2.470909 
L 225.97275 -2.470909 
L 225.333868 -2.470909 
L 224.694985 -2.470909 
L 224.056103 -2.470909 
L 223.41722 -2.470909 
L 222.778338 -2.470909 
L 222.139455 -2.470909 
L 221.500572 -2.470909 
L 220.86169 -2.470909 
L 220.222807 -2.470909 
L 219.583925 -2.470909 
L 218.945042 -2.470909 
L 218.30616 -2.470909 
L 217.667277 -2.470909 
L 217.028395 -2.470909 
L 216.389512 -2.470909 
L 215.75063 -2.470909 
L 215.111747 -2.470909 
L 214.472865 -2.470909 
L 213.833982 -2.470909 
L 213.1951 -2.470909 
L 212.556217 -2.470909 
L 211.917335 -2.470909 
L 211.278452 -2.470909 
L 210.639569 -2.470909 
L 210.000687 -2.470909 
L 209.361804 -2.470909 
L 208.722922 -2.470909 
L 208.084039 -2.470909 
L 207.445157 -2.470909 
L 206.806274 -2.470909 
L 206.167392 -2.470909 
L 205.528509 -2.470909 
L 204.889627 -2.470909 
L 204.250744 -2.470909 
L 203.611862 -2.470909 
L 202.972979 -2.470909 
L 202.334097 -2.470909 
L 201.695214 -2.470909 
L 201.056332 -2.470909 
L 200.417449 -2.470909 
L 199.778567 -2.470909 
L 199.139684 -2.470909 
L 198.500801 -2.470909 
L 197.861919 -2.470909 
L 197.223036 -2.470909 
L 196.584154 -2.470909 
L 195.945271 -2.470909 
L 195.306389 -2.470909 
L 194.667506 -2.470909 
L 194.028624 -2.470909 
L 193.389741 -2.470909 
L 192.750859 -2.470909 
L 192.111976 -2.470909 
L 191.473094 -2.470909 
L 190.834211 -2.470909 
L 190.195329 -2.470909 
L 189.556446 -2.470909 
L 188.917564 -2.470909 
L 188.278681 -2.470909 
L 187.639798 -2.470909 
L 187.000916 -2.470909 
L 186.362033 -2.470909 
L 185.723151 -2.470909 
L 185.084268 -2.470909 
L 184.445386 -2.470909 
L 183.806503 -2.470909 
L 183.167621 -2.470909 
L 182.528738 -2.470909 
L 181.889856 -2.470909 
L 181.250973 -2.470909 
L 180.612091 -2.470909 
L 179.973208 -2.470909 
L 179.334326 -2.470909 
L 178.695443 -2.470909 
L 178.056561 -2.470909 
L 177.417678 -2.470909 
L 176.778796 -2.470909 
L 176.139913 -2.470909 
L 175.50103 -2.470909 
L 174.862148 -2.470909 
L 174.223265 -2.470909 
L 173.584383 -2.470909 
L 172.9455 -2.470909 
L 172.306618 -2.470909 
L 171.667735 -2.470909 
L 171.028853 -2.470909 
L 170.38997 -2.470909 
L 169.751088 -2.470909 
L 169.112205 -2.470909 
L 168.473323 -2.470909 
L 167.83444 -2.470909 
L 167.195558 -2.470909 
L 166.556675 -2.470909 
L 165.917793 -2.470909 
L 165.27891 -2.470909 
L 164.640027 -2.470909 
L 164.001145 -2.470909 
L 163.362262 -2.470909 
L 162.72338 -2.470909 
L 162.084497 -2.470909 
L 161.445615 -2.470909 
L 160.806732 -2.470909 
L 160.16785 -2.470909 
L 159.528967 -2.470909 
L 158.890085 -2.470909 
L 158.251202 -2.470909 
L 157.61232 -2.470909 
L 156.973437 -2.470909 
L 156.334555 -2.470909 
L 155.695672 -2.470909 
L 155.05679 -2.470909 
L 154.417907 -2.470909 
L 153.779025 -2.470909 
L 153.140142 -2.470909 
L 152.501259 -2.470909 
L 151.862377 -2.470909 
L 151.223494 -2.470909 
L 150.584612 -2.470909 
L 149.945729 -2.470909 
L 149.306847 -2.470909 
L 148.667964 -2.470909 
L 148.029082 -2.470909 
L 147.390199 -2.470909 
L 146.751317 -2.470909 
L 146.112434 -2.470909 
L 145.473552 -2.470909 
L 144.834669 -2.470909 
L 144.195787 -2.470909 
L 143.556904 -2.470909 
L 142.918022 -2.470909 
L 142.279139 -2.470909 
L 141.640256 -2.470909 
L 141.001374 -2.470909 
L 140.362491 -2.470909 
L 139.723609 -2.470909 
L 139.084726 -2.470909 
L 138.445844 -2.470909 
L 137.806961 -2.470909 
L 137.168079 -2.470909 
L 136.529196 -2.470909 
L 135.890314 -2.470909 
L 135.251431 -2.470909 
L 134.612549 -2.470909 
L 133.973666 -2.470909 
L 133.334784 -2.470909 
L 132.695901 -2.470909 
L 132.057019 -2.470909 
L 131.418136 -2.470909 
L 130.779253 -2.470909 
L 130.140371 -2.470909 
L 129.501488 -2.470909 
L 128.862606 -2.470909 
L 128.223723 -2.470909 
L 127.584841 -2.470909 
L 126.945958 -2.470909 
L 126.307076 -2.470909 
L 125.668193 -2.470909 
L 125.029311 -2.470909 
L 124.390428 -2.470909 
L 123.751546 -2.470909 
L 123.112663 -2.470909 
L 122.473781 -2.470909 
L 121.834898 -2.470909 
L 121.196016 -2.470909 
L 120.557133 -2.470909 
L 119.918251 -2.470909 
L 119.279368 -2.470909 
z
" style="stroke: #116dc2; stroke-opacity: 0.2"/>
    </defs>
    <g clip-path="url(#p60fa8bdbfe)">
     <use xlink:href="#m92eb318572" x="0" y="54.36" style="fill: #116dc2; fill-opacity: 0.2; stroke: #116dc2; stroke-opacity: 0.2"/>
    </g>
   </g>
   <g id="PolyCollection_3">
    <defs>
     <path id="m190de366f6" d="M 25.363636 -2.470909 
L 25.363636 -4.257875 
L 26.002519 -4.634544 
L 26.641401 -5.244884 
L 27.280284 -6.097898 
L 27.919166 -7.126203 
L 28.558049 -8.221079 
L 29.196932 -9.335325 
L 29.835814 -10.526253 
L 30.474697 -11.844504 
L 31.113579 -13.301747 
L 31.752462 -15.004796 
L 32.391344 -17.146456 
L 33.030227 -19.756772 
L 33.669109 -22.585538 
L 34.307992 -25.296683 
L 34.946874 -27.68716 
L 35.585757 -29.808854 
L 36.224639 -32.023298 
L 36.863522 -34.760596 
L 37.502404 -38.052993 
L 38.141287 -41.416988 
L 38.780169 -44.291437 
L 39.419052 -46.507053 
L 40.057935 -48.252645 
L 40.696817 -49.695689 
L 41.3357 -50.81948 
L 41.974582 -51.565812 
L 42.613465 -51.889091 
L 43.252347 -51.681727 
L 43.89123 -50.857543 
L 44.530112 -49.488567 
L 45.168995 -47.783605 
L 45.807877 -46.001025 
L 46.44676 -44.284511 
L 47.085642 -42.437486 
L 47.724525 -40.080128 
L 48.363407 -37.231513 
L 49.00229 -34.377875 
L 49.641172 -31.801595 
L 50.280055 -29.33015 
L 50.918937 -26.79408 
L 51.55782 -24.214018 
L 52.196703 -21.590326 
L 52.835585 -18.969387 
L 53.474468 -16.60817 
L 54.11335 -14.71612 
L 54.752233 -13.16303 
L 55.391115 -11.672424 
L 56.029998 -10.140927 
L 56.66888 -8.633743 
L 57.307763 -7.254467 
L 57.946645 -6.112446 
L 58.585528 -5.280891 
L 59.22441 -4.719007 
L 59.22441 -2.470909 
L 59.22441 -2.470909 
L 58.585528 -2.470909 
L 57.946645 -2.470909 
L 57.307763 -2.470909 
L 56.66888 -2.470909 
L 56.029998 -2.470909 
L 55.391115 -2.470909 
L 54.752233 -2.470909 
L 54.11335 -2.470909 
L 53.474468 -2.470909 
L 52.835585 -2.470909 
L 52.196703 -2.470909 
L 51.55782 -2.470909 
L 50.918937 -2.470909 
L 50.280055 -2.470909 
L 49.641172 -2.470909 
L 49.00229 -2.470909 
L 48.363407 -2.470909 
L 47.724525 -2.470909 
L 47.085642 -2.470909 
L 46.44676 -2.470909 
L 45.807877 -2.470909 
L 45.168995 -2.470909 
L 44.530112 -2.470909 
L 43.89123 -2.470909 
L 43.252347 -2.470909 
L 42.613465 -2.470909 
L 41.974582 -2.470909 
L 41.3357 -2.470909 
L 40.696817 -2.470909 
L 40.057935 -2.470909 
L 39.419052 -2.470909 
L 38.780169 -2.470909 
L 38.141287 -2.470909 
L 37.502404 -2.470909 
L 36.863522 -2.470909 
L 36.224639 -2.470909 
L 35.585757 -2.470909 
L 34.946874 -2.470909 
L 34.307992 -2.470909 
L 33.669109 -2.470909 
L 33.030227 -2.470909 
L 32.391344 -2.470909 
L 31.752462 -2.470909 
L 31.113579 -2.470909 
L 30.474697 -2.470909 
L 29.835814 -2.470909 
L 29.196932 -2.470909 
L 28.558049 -2.470909 
L 27.919166 -2.470909 
L 27.280284 -2.470909 
L 26.641401 -2.470909 
L 26.002519 -2.470909 
L 25.363636 -2.470909 
z
" style="stroke: #8a8a8a; stroke-opacity: 0.2"/>
    </defs>
    <g clip-path="url(#p60fa8bdbfe)">
     <use xlink:href="#m190de366f6" x="0" y="54.36" style="fill: #8a8a8a; fill-opacity: 0.2; stroke: #8a8a8a; stroke-opacity: 0.2"/>
    </g>
   </g>
   <g id="line2d_1">
    <path d="M 356.304786 50.549308 
L 361.415846 49.906849 
L 365.888024 49.11958 
L 370.999084 47.990286 
L 376.749027 46.5053 
L 381.860087 44.97064 
L 385.693382 43.618272 
L 389.526677 42.006255 
L 393.359973 40.142262 
L 397.83215 37.749758 
L 401.026563 35.811524 
L 404.220975 33.591018 
L 409.332036 29.951014 
L 412.526448 27.996234 
L 422.109686 22.431256 
L 426.581864 19.790552 
L 429.137394 18.510892 
L 431.692924 17.487887 
L 434.248454 16.74934 
L 436.803984 16.3025 
L 438.720632 16.165724 
L 440.63728 16.206952 
L 442.553927 16.424755 
L 445.109457 16.948206 
L 456.609343 19.73176 
L 459.803755 20.573572 
L 462.359286 21.472347 
L 465.553698 22.88101 
L 468.748111 24.557135 
L 472.581406 26.846628 
L 487.914587 36.57476 
L 493.025647 39.772417 
L 496.858942 41.903912 
L 500.053355 43.404812 
L 502.608885 44.374625 
L 505.803297 45.327595 
L 513.469888 47.211938 
L 521.775361 49.199363 
L 525.608656 49.884763 
L 530.080834 50.42848 
L 532.636364 50.646708 
L 532.636364 50.646708 
" clip-path="url(#p60fa8bdbfe)" style="fill: none; stroke: #cf1313; stroke-width: 1.5; stroke-linecap: square"/>
   </g>
   <g id="line2d_2">
    <path d="M 119.279368 50.224058 
L 123.112663 49.570503 
L 125.668193 48.933753 
L 127.584841 48.271979 
L 130.140371 47.11556 
L 132.695901 45.699816 
L 139.084726 41.778288 
L 141.640256 40.036853 
L 143.556904 38.484419 
L 146.112434 36.044189 
L 150.584612 31.572969 
L 153.779025 28.779135 
L 160.16785 23.541453 
L 164.001145 20.504387 
L 166.556675 18.148763 
L 169.751088 15.148743 
L 171.028853 14.232194 
L 172.306618 13.619523 
L 173.584383 13.343809 
L 174.862148 13.371026 
L 176.778796 13.775418 
L 179.973208 14.566385 
L 183.167621 15.015353 
L 185.084268 15.360045 
L 186.362033 15.75715 
L 187.639798 16.342492 
L 188.917564 17.122301 
L 190.834211 18.578689 
L 193.389741 20.811877 
L 195.945271 23.347595 
L 198.500801 26.296688 
L 201.056332 29.253614 
L 202.972979 31.179211 
L 209.361804 36.921364 
L 212.556217 39.640309 
L 215.111747 41.499111 
L 217.667277 43.082455 
L 220.86169 44.793603 
L 225.97275 47.276309 
L 229.167163 48.6212 
L 231.722693 49.478479 
L 234.278223 50.105863 
L 236.833753 50.529068 
L 238.111518 50.675336 
L 238.111518 50.675336 
" clip-path="url(#p60fa8bdbfe)" style="fill: none; stroke: #116dc2; stroke-width: 1.5; stroke-linecap: square"/>
   </g>
   <g id="line2d_3">
    <path d="M 25.363636 50.102125 
L 26.002519 49.725456 
L 26.641401 49.115116 
L 27.280284 48.262102 
L 27.919166 47.233797 
L 28.558049 46.138921 
L 29.196932 45.024675 
L 29.835814 43.833747 
L 30.474697 42.515496 
L 31.113579 41.058253 
L 31.752462 39.355204 
L 32.391344 37.213544 
L 33.030227 34.603228 
L 33.669109 31.774462 
L 34.307992 29.063317 
L 34.946874 26.67284 
L 35.585757 24.551146 
L 36.224639 22.336702 
L 36.863522 19.599404 
L 37.502404 16.307007 
L 38.141287 12.943012 
L 38.780169 10.068563 
L 39.419052 7.852947 
L 40.057935 6.107355 
L 40.696817 4.664311 
L 41.3357 3.54052 
L 41.974582 2.794188 
L 42.613465 2.470909 
L 43.252347 2.678273 
L 43.89123 3.502457 
L 44.530112 4.871433 
L 45.168995 6.576395 
L 45.807877 8.358975 
L 46.44676 10.075489 
L 47.085642 11.922514 
L 47.724525 14.279872 
L 48.363407 17.128487 
L 49.00229 19.982125 
L 49.641172 22.558405 
L 50.280055 25.02985 
L 50.918937 27.56592 
L 51.55782 30.145982 
L 52.196703 32.769674 
L 52.835585 35.390613 
L 53.474468 37.75183 
L 54.11335 39.64388 
L 54.752233 41.19697 
L 55.391115 42.687576 
L 56.029998 44.219073 
L 56.66888 45.726257 
L 57.307763 47.105533 
L 57.946645 48.247554 
L 58.585528 49.079109 
L 59.22441 49.640993 
" clip-path="url(#p60fa8bdbfe)" style="fill: none; stroke: #8a8a8a; stroke-width: 1.5; stroke-linecap: square"/>
   </g>
  </g>
 </g>
 <defs>
  <clipPath id="p60fa8bdbfe">
   <rect x="0" y="-0" width="558" height="54.36"/>
  </clipPath>
 </defs>
</svg>
