<?xml version="1.0" encoding="utf-8" standalone="no"?>
<!DOCTYPE svg PUBLIC "-//W3C//DTD SVG 1.1//EN"
  "http://www.w3.org/Graphics/SVG/1.1/DTD/svg11.dtd">
<svg xmlns:xlink="http://www.w3.org/1999/xlink" width="558pt" height="54.36pt" viewBox="0 0 558 54.36" xmlns="http://www.w3.org/2000/svg" version="1.1">
 <metadata>
  <rdf:RDF xmlns:dc="http://purl.org/dc/elements/1.1/" xmlns:cc="http://creativecommons.org/ns#" xmlns:rdf="http://www.w3.org/1999/02/22-rdf-syntax-ns#">
   <cc:Work>
    <dc:type rdf:resource="http://purl.org/dc/dcmitype/StillImage"/>
    <dc:date>2024-09-14T12:47:41.710257</dc:date>
    <dc:format>image/svg+xml</dc:format>
    <dc:creator>
     <cc:Agent>
      <dc:title>Matplotlib v3.5.2, https://matplotlib.org/</dc:title>
     </cc:Agent>
    </dc:creator>
   </cc:Work>
  </rdf:RDF>
 </metadata>
 <defs>
  <style type="text/css">*{stroke-linejoin: round; stroke-linecap: butt}</style>
 </defs>
 <g id="figure_1">
  <g id="patch_1">
   <path d="M 0 54.36 
L 558 54.36 
L 558 0 
L 0 0 
L 0 54.36 
z
" style="fill: none; opacity: 0"/>
  </g>
  <g id="axes_1">
   <g id="PolyCollection_1">
    <defs>
     <path id="mebef102320" d="M 241.297297 -2.470909 
L 241.297297 -4.011455 
L 242.154177 -4.109286 
L 243.011057 -4.222538 
L 243.867936 -4.353304 
L 244.724816 -4.503117 
L 245.581695 -4.672839 
L 246.438575 -4.86259 
L 247.295455 -5.071752 
L 248.152334 -5.299021 
L 249.009214 -5.542539 
L 249.866093 -5.800068 
L 250.722973 -6.069192 
L 251.579853 -6.347529 
L 252.436732 -6.632916 
L 253.293612 -6.923581 
L 254.150491 -7.218271 
L 255.007371 -7.516365 
L 255.864251 -7.81796 
L 256.72113 -8.123938 
L 257.57801 -8.436 
L 258.434889 -8.756659 
L 259.291769 -9.089164 
L 260.148649 -9.43733 
L 261.005528 -9.805298 
L 261.862408 -10.197188 
L 262.719287 -10.616715 
L 263.576167 -11.066762 
L 264.433047 -11.54898 
L 265.289926 -12.063453 
L 266.146806 -12.608477 
L 267.003686 -13.180509 
L 267.860565 -13.774297 
L 268.717445 -14.383241 
L 269.574324 -14.999926 
L 270.431204 -15.61681 
L 271.288084 -16.226971 
L 272.144963 -16.824801 
L 273.001843 -17.406566 
L 273.858722 -17.970739 
L 274.715602 -18.518074 
L 275.572482 -19.051436 
L 276.429361 -19.575428 
L 277.286241 -20.0959 
L 278.14312 -20.619396 
L 279 -21.152609 
L 279.85688 -21.701855 
L 280.713759 -22.27259 
L 281.570639 -22.868954 
L 282.427518 -23.493363 
L 283.284398 -24.146173 
L 284.141278 -24.825464 
L 284.998157 -25.527008 
L 285.855037 -26.244458 
L 286.711916 -26.969815 
L 287.568796 -27.694125 
L 288.425676 -28.408372 
L 289.282555 -29.104435 
L 290.139435 -29.775995 
L 290.996314 -30.419224 
L 291.853194 -31.033151 
L 292.710074 -31.619605 
L 293.566953 -32.182753 
L 294.423833 -32.728271 
L 295.280713 -33.262307 
L 296.137592 -33.790411 
L 296.994472 -34.316618 
L 297.851351 -34.842865 
L 298.708231 -35.368826 
L 299.565111 -35.892184 
L 300.42199 -36.409259 
L 301.27887 -36.915839 
L 302.135749 -37.408029 
L 302.992629 -37.882934 
L 303.849509 -38.339059 
L 304.706388 -38.776351 
L 305.563268 -39.195925 
L 306.420147 -39.599534 
L 307.277027 -39.988936 
L 308.133907 -40.365262 
L 308.990786 -40.728514 
L 309.847666 -41.077271 
L 310.704545 -41.40861 
L 311.561425 -41.718268 
L 312.418305 -42.000964 
L 313.275184 -42.250858 
L 314.132064 -42.462064 
L 314.988943 -42.629179 
L 315.845823 -42.747789 
L 316.702703 -42.814922 
L 317.559582 -42.829425 
L 318.416462 -42.792228 
L 319.273342 -42.706459 
L 320.130221 -42.577355 
L 320.987101 -42.41194 
L 321.84398 -42.218453 
L 322.70086 -42.005544 
L 323.55774 -41.781317 
L 324.414619 -41.552327 
L 325.271499 -41.322667 
L 326.128378 -41.093294 
L 326.985258 -40.861734 
L 327.842138 -40.622244 
L 328.699017 -40.366464 
L 329.555897 -40.084502 
L 330.412776 -39.766316 
L 331.269656 -39.403169 
L 332.126536 -38.988913 
L 332.983415 -38.520869 
L 333.840295 -38.000106 
L 334.697174 -37.431072 
L 335.554054 -36.820634 
L 336.410934 -36.176741 
L 337.267813 -35.506979 
L 338.124693 -34.817353 
L 338.981572 -34.111552 
L 339.838452 -33.390845 
L 340.695332 -32.654617 
L 341.552211 -31.9014 
L 342.409091 -31.130133 
L 343.265971 -30.341345 
L 344.12285 -29.537977 
L 344.97973 -28.725642 
L 345.836609 -27.91226 
L 346.693489 -27.107155 
L 347.550369 -26.319793 
L 348.407248 -25.558453 
L 349.264128 -24.829076 
L 350.121007 -24.134534 
L 350.977887 -23.474426 
L 351.834767 -22.845413 
L 352.691646 -22.241984 
L 353.548526 -21.657493 
L 354.405405 -21.085249 
L 355.262285 -20.519483 
L 356.119165 -19.956034 
L 356.976044 -19.392702 
L 357.832924 -18.829245 
L 358.689803 -18.267087 
L 359.546683 -17.708813 
L 360.403563 -17.157574 
L 361.260442 -16.616503 
L 362.117322 -16.088217 
L 362.974201 -15.574481 
L 363.831081 -15.076049 
L 364.687961 -14.592669 
L 365.54484 -14.123243 
L 366.40172 -13.666064 
L 367.2586 -13.219111 
L 368.115479 -12.780337 
L 368.972359 -12.34793 
L 369.829238 -11.920523 
L 370.686118 -11.497347 
L 371.542998 -11.078315 
L 372.399877 -10.664035 
L 373.256757 -10.255745 
L 374.113636 -9.855183 
L 374.970516 -9.464396 
L 375.827396 -9.085528 
L 376.684275 -8.720621 
L 377.541155 -8.37146 
L 378.398034 -8.039486 
L 379.254914 -7.725773 
L 380.111794 -7.431045 
L 380.968673 -7.155689 
L 381.825553 -6.899744 
L 382.682432 -6.662833 
L 383.539312 -6.444069 
L 384.396192 -6.241962 
L 385.253071 -6.054396 
L 386.109951 -5.878704 
L 386.96683 -5.711884 
L 387.82371 -5.55091 
L 388.68059 -5.393104 
L 389.537469 -5.236472 
L 390.394349 -5.07994 
L 391.251229 -4.923427 
L 392.108108 -4.767738 
L 392.964988 -4.614327 
L 393.821867 -4.46496 
L 394.678747 -4.321375 
L 395.535627 -4.185003 
L 396.392506 -4.056797 
L 396.392506 -2.470909 
L 396.392506 -2.470909 
L 395.535627 -2.470909 
L 394.678747 -2.470909 
L 393.821867 -2.470909 
L 392.964988 -2.470909 
L 392.108108 -2.470909 
L 391.251229 -2.470909 
L 390.394349 -2.470909 
L 389.537469 -2.470909 
L 388.68059 -2.470909 
L 387.82371 -2.470909 
L 386.96683 -2.470909 
L 386.109951 -2.470909 
L 385.253071 -2.470909 
L 384.396192 -2.470909 
L 383.539312 -2.470909 
L 382.682432 -2.470909 
L 381.825553 -2.470909 
L 380.968673 -2.470909 
L 380.111794 -2.470909 
L 379.254914 -2.470909 
L 378.398034 -2.470909 
L 377.541155 -2.470909 
L 376.684275 -2.470909 
L 375.827396 -2.470909 
L 374.970516 -2.470909 
L 374.113636 -2.470909 
L 373.256757 -2.470909 
L 372.399877 -2.470909 
L 371.542998 -2.470909 
L 370.686118 -2.470909 
L 369.829238 -2.470909 
L 368.972359 -2.470909 
L 368.115479 -2.470909 
L 367.2586 -2.470909 
L 366.40172 -2.470909 
L 365.54484 -2.470909 
L 364.687961 -2.470909 
L 363.831081 -2.470909 
L 362.974201 -2.470909 
L 362.117322 -2.470909 
L 361.260442 -2.470909 
L 360.403563 -2.470909 
L 359.546683 -2.470909 
L 358.689803 -2.470909 
L 357.832924 -2.470909 
L 356.976044 -2.470909 
L 356.119165 -2.470909 
L 355.262285 -2.470909 
L 354.405405 -2.470909 
L 353.548526 -2.470909 
L 352.691646 -2.470909 
L 351.834767 -2.470909 
L 350.977887 -2.470909 
L 350.121007 -2.470909 
L 349.264128 -2.470909 
L 348.407248 -2.470909 
L 347.550369 -2.470909 
L 346.693489 -2.470909 
L 345.836609 -2.470909 
L 344.97973 -2.470909 
L 344.12285 -2.470909 
L 343.265971 -2.470909 
L 342.409091 -2.470909 
L 341.552211 -2.470909 
L 340.695332 -2.470909 
L 339.838452 -2.470909 
L 338.981572 -2.470909 
L 338.124693 -2.470909 
L 337.267813 -2.470909 
L 336.410934 -2.470909 
L 335.554054 -2.470909 
L 334.697174 -2.470909 
L 333.840295 -2.470909 
L 332.983415 -2.470909 
L 332.126536 -2.470909 
L 331.269656 -2.470909 
L 330.412776 -2.470909 
L 329.555897 -2.470909 
L 328.699017 -2.470909 
L 327.842138 -2.470909 
L 326.985258 -2.470909 
L 326.128378 -2.470909 
L 325.271499 -2.470909 
L 324.414619 -2.470909 
L 323.55774 -2.470909 
L 322.70086 -2.470909 
L 321.84398 -2.470909 
L 320.987101 -2.470909 
L 320.130221 -2.470909 
L 319.273342 -2.470909 
L 318.416462 -2.470909 
L 317.559582 -2.470909 
L 316.702703 -2.470909 
L 315.845823 -2.470909 
L 314.988943 -2.470909 
L 314.132064 -2.470909 
L 313.275184 -2.470909 
L 312.418305 -2.470909 
L 311.561425 -2.470909 
L 310.704545 -2.470909 
L 309.847666 -2.470909 
L 308.990786 -2.470909 
L 308.133907 -2.470909 
L 307.277027 -2.470909 
L 306.420147 -2.470909 
L 305.563268 -2.470909 
L 304.706388 -2.470909 
L 303.849509 -2.470909 
L 302.992629 -2.470909 
L 302.135749 -2.470909 
L 301.27887 -2.470909 
L 300.42199 -2.470909 
L 299.565111 -2.470909 
L 298.708231 -2.470909 
L 297.851351 -2.470909 
L 296.994472 -2.470909 
L 296.137592 -2.470909 
L 295.280713 -2.470909 
L 294.423833 -2.470909 
L 293.566953 -2.470909 
L 292.710074 -2.470909 
L 291.853194 -2.470909 
L 290.996314 -2.470909 
L 290.139435 -2.470909 
L 289.282555 -2.470909 
L 288.425676 -2.470909 
L 287.568796 -2.470909 
L 286.711916 -2.470909 
L 285.855037 -2.470909 
L 284.998157 -2.470909 
L 284.141278 -2.470909 
L 283.284398 -2.470909 
L 282.427518 -2.470909 
L 281.570639 -2.470909 
L 280.713759 -2.470909 
L 279.85688 -2.470909 
L 279 -2.470909 
L 278.14312 -2.470909 
L 277.286241 -2.470909 
L 276.429361 -2.470909 
L 275.572482 -2.470909 
L 274.715602 -2.470909 
L 273.858722 -2.470909 
L 273.001843 -2.470909 
L 272.144963 -2.470909 
L 271.288084 -2.470909 
L 270.431204 -2.470909 
L 269.574324 -2.470909 
L 268.717445 -2.470909 
L 267.860565 -2.470909 
L 267.003686 -2.470909 
L 266.146806 -2.470909 
L 265.289926 -2.470909 
L 264.433047 -2.470909 
L 263.576167 -2.470909 
L 262.719287 -2.470909 
L 261.862408 -2.470909 
L 261.005528 -2.470909 
L 260.148649 -2.470909 
L 259.291769 -2.470909 
L 258.434889 -2.470909 
L 257.57801 -2.470909 
L 256.72113 -2.470909 
L 255.864251 -2.470909 
L 255.007371 -2.470909 
L 254.150491 -2.470909 
L 253.293612 -2.470909 
L 252.436732 -2.470909 
L 251.579853 -2.470909 
L 250.722973 -2.470909 
L 249.866093 -2.470909 
L 249.009214 -2.470909 
L 248.152334 -2.470909 
L 247.295455 -2.470909 
L 246.438575 -2.470909 
L 245.581695 -2.470909 
L 244.724816 -2.470909 
L 243.867936 -2.470909 
L 243.011057 -2.470909 
L 242.154177 -2.470909 
L 241.297297 -2.470909 
z
" style="stroke: #cf1313; stroke-opacity: 0.2"/>
    </defs>
    <g clip-path="url(#p74c8590b1f)">
     <use xlink:href="#mebef102320" x="0" y="54.36" style="fill: #cf1313; fill-opacity: 0.2; stroke: #cf1313; stroke-opacity: 0.2"/>
    </g>
   </g>
   <g id="PolyCollection_2">
    <defs>
     <path id="mecffe7e7f5" d="M 339.838452 -2.470909 
L 339.838452 -4.144782 
L 340.695332 -4.236803 
L 341.552211 -4.331965 
L 342.409091 -4.430579 
L 343.265971 -4.532957 
L 344.12285 -4.639396 
L 344.97973 -4.750175 
L 345.836609 -4.865542 
L 346.693489 -4.98571 
L 347.550369 -5.110845 
L 348.407248 -5.241064 
L 349.264128 -5.376435 
L 350.121007 -5.516983 
L 350.977887 -5.662711 
L 351.834767 -5.813628 
L 352.691646 -5.969791 
L 353.548526 -6.13135 
L 354.405405 -6.298598 
L 355.262285 -6.472004 
L 356.119165 -6.652237 
L 356.976044 -6.840159 
L 357.832924 -7.03678 
L 358.689803 -7.243192 
L 359.546683 -7.460461 
L 360.403563 -7.689514 
L 361.260442 -7.931019 
L 362.117322 -8.185288 
L 362.974201 -8.452223 
L 363.831081 -8.731306 
L 364.687961 -9.021664 
L 365.54484 -9.32218 
L 366.40172 -9.631653 
L 367.2586 -9.948985 
L 368.115479 -10.273354 
L 368.972359 -10.604353 
L 369.829238 -10.94207 
L 370.686118 -11.287087 
L 371.542998 -11.640393 
L 372.399877 -12.003225 
L 373.256757 -12.376851 
L 374.113636 -12.76233 
L 374.970516 -13.160287 
L 375.827396 -13.570733 
L 376.684275 -13.992958 
L 377.541155 -14.42553 
L 378.398034 -14.866377 
L 379.254914 -15.31297 
L 380.111794 -15.762559 
L 380.968673 -16.212449 
L 381.825553 -16.66026 
L 382.682432 -17.10415 
L 383.539312 -17.542969 
L 384.396192 -17.976324 
L 385.253071 -18.404552 
L 386.109951 -18.828623 
L 386.96683 -19.249974 
L 387.82371 -19.670316 
L 388.68059 -20.091443 
L 389.537469 -20.51506 
L 390.394349 -20.942653 
L 391.251229 -21.375413 
L 392.108108 -21.814206 
L 392.964988 -22.259585 
L 393.821867 -22.711833 
L 394.678747 -23.17101 
L 395.535627 -23.636999 
L 396.392506 -24.109544 
L 397.249386 -24.588261 
L 398.106265 -25.072643 
L 398.963145 -25.562047 
L 399.820025 -26.055682 
L 400.676904 -26.552606 
L 401.533784 -27.051724 
L 402.390663 -27.551808 
L 403.247543 -28.051526 
L 404.104423 -28.549484 
L 404.961302 -29.04427 
L 405.818182 -29.534498 
L 406.675061 -30.018855 
L 407.531941 -30.496136 
L 408.388821 -30.965282 
L 409.2457 -31.4254 
L 410.10258 -31.87579 
L 410.959459 -32.31596 
L 411.816339 -32.745636 
L 412.673219 -33.16476 
L 413.530098 -33.573476 
L 414.386978 -33.972105 
L 415.243857 -34.361101 
L 416.100737 -34.740998 
L 416.957617 -35.112343 
L 417.814496 -35.475628 
L 418.671376 -35.831231 
L 419.528256 -36.179366 
L 420.385135 -36.520056 
L 421.242015 -36.853132 
L 422.098894 -37.178254 
L 422.955774 -37.494962 
L 423.812654 -37.802728 
L 424.669533 -38.101019 
L 425.526413 -38.389339 
L 426.383292 -38.667248 
L 427.240172 -38.934352 
L 428.097052 -39.190253 
L 428.953931 -39.43448 
L 429.810811 -39.666398 
L 430.66769 -39.885133 
L 431.52457 -40.089513 
L 432.38145 -40.278047 
L 433.238329 -40.448954 
L 434.095209 -40.600242 
L 434.952088 -40.729822 
L 435.808968 -40.835657 
L 436.665848 -40.915924 
L 437.522727 -40.96917 
L 438.379607 -40.99446 
L 439.236486 -40.99148 
L 440.093366 -40.960621 
L 440.950246 -40.903003 
L 441.807125 -40.820454 
L 442.664005 -40.715437 
L 443.520885 -40.590909 
L 444.377764 -40.450134 
L 445.234644 -40.296436 
L 446.091523 -40.132922 
L 446.948403 -39.962186 
L 447.805283 -39.786032 
L 448.662162 -39.605241 
L 449.519042 -39.419426 
L 450.375921 -39.226996 
L 451.232801 -39.025241 
L 452.089681 -38.810552 
L 452.94656 -38.578752 
L 453.80344 -38.325506 
L 454.660319 -38.04677 
L 455.517199 -37.73922 
L 456.374079 -37.400618 
L 457.230958 -37.030067 
L 458.087838 -36.628125 
L 458.944717 -36.196766 
L 459.801597 -35.739191 
L 460.658477 -35.259516 
L 461.515356 -34.762376 
L 462.372236 -34.252479 
L 463.229115 -33.734177 
L 464.085995 -33.211089 
L 464.942875 -32.685824 
L 465.799754 -32.159825 
L 466.656634 -31.633351 
L 467.513514 -31.105602 
L 468.370393 -30.574962 
L 469.227273 -30.039325 
L 470.084152 -29.496477 
L 470.941032 -28.944475 
L 471.797912 -28.381991 
L 472.654791 -27.808564 
L 473.511671 -27.224755 
L 474.36855 -26.632178 
L 475.22543 -26.033414 
L 476.08231 -25.43183 
L 476.939189 -24.831329 
L 477.796069 -24.236064 
L 478.652948 -23.650156 
L 479.509828 -23.077442 
L 480.366708 -22.521273 
L 481.223587 -21.984383 
L 482.080467 -21.468807 
L 482.937346 -20.97586 
L 483.794226 -20.506153 
L 484.651106 -20.059624 
L 485.507985 -19.635584 
L 486.364865 -19.232753 
L 487.221744 -18.849298 
L 488.078624 -18.482866 
L 488.935504 -18.130623 
L 489.792383 -17.789318 
L 490.649263 -17.455364 
L 491.506143 -17.124956 
L 492.363022 -16.794226 
L 493.219902 -16.459418 
L 494.076781 -16.117091 
L 494.933661 -15.764314 
L 495.790541 -15.39885 
L 496.64742 -15.0193 
L 497.5043 -14.625209 
L 498.361179 -14.217093 
L 499.218059 -13.796419 
L 500.074939 -13.365503 
L 500.931818 -12.927366 
L 501.788698 -12.485537 
L 502.645577 -12.043829 
L 503.502457 -11.60611 
L 504.359337 -11.17608 
L 505.216216 -10.757078 
L 506.073096 -10.351924 
L 506.929975 -9.962815 
L 507.786855 -9.591274 
L 508.643735 -9.238151 
L 509.500614 -8.903675 
L 510.357494 -8.58754 
L 511.214373 -8.289026 
L 512.071253 -8.00713 
L 512.928133 -7.740693 
L 513.785012 -7.488524 
L 514.641892 -7.249494 
L 515.498771 -7.022604 
L 516.355651 -6.80702 
L 517.212531 -6.602077 
L 518.06941 -6.407254 
L 518.92629 -6.222136 
L 519.78317 -6.046354 
L 520.640049 -5.879539 
L 521.496929 -5.72127 
L 522.353808 -5.571048 
L 523.210688 -5.428281 
L 524.067568 -5.292291 
L 524.924447 -5.162338 
L 525.781327 -5.037656 
L 526.638206 -4.917497 
L 527.495086 -4.801174 
L 528.351966 -4.688095 
L 529.208845 -4.577798 
L 530.065725 -4.469961 
L 530.922604 -4.364412 
L 531.779484 -4.261114 
L 532.636364 -4.160154 
L 532.636364 -2.470909 
L 532.636364 -2.470909 
L 531.779484 -2.470909 
L 530.922604 -2.470909 
L 530.065725 -2.470909 
L 529.208845 -2.470909 
L 528.351966 -2.470909 
L 527.495086 -2.470909 
L 526.638206 -2.470909 
L 525.781327 -2.470909 
L 524.924447 -2.470909 
L 524.067568 -2.470909 
L 523.210688 -2.470909 
L 522.353808 -2.470909 
L 521.496929 -2.470909 
L 520.640049 -2.470909 
L 519.78317 -2.470909 
L 518.92629 -2.470909 
L 518.06941 -2.470909 
L 517.212531 -2.470909 
L 516.355651 -2.470909 
L 515.498771 -2.470909 
L 514.641892 -2.470909 
L 513.785012 -2.470909 
L 512.928133 -2.470909 
L 512.071253 -2.470909 
L 511.214373 -2.470909 
L 510.357494 -2.470909 
L 509.500614 -2.470909 
L 508.643735 -2.470909 
L 507.786855 -2.470909 
L 506.929975 -2.470909 
L 506.073096 -2.470909 
L 505.216216 -2.470909 
L 504.359337 -2.470909 
L 503.502457 -2.470909 
L 502.645577 -2.470909 
L 501.788698 -2.470909 
L 500.931818 -2.470909 
L 500.074939 -2.470909 
L 499.218059 -2.470909 
L 498.361179 -2.470909 
L 497.5043 -2.470909 
L 496.64742 -2.470909 
L 495.790541 -2.470909 
L 494.933661 -2.470909 
L 494.076781 -2.470909 
L 493.219902 -2.470909 
L 492.363022 -2.470909 
L 491.506143 -2.470909 
L 490.649263 -2.470909 
L 489.792383 -2.470909 
L 488.935504 -2.470909 
L 488.078624 -2.470909 
L 487.221744 -2.470909 
L 486.364865 -2.470909 
L 485.507985 -2.470909 
L 484.651106 -2.470909 
L 483.794226 -2.470909 
L 482.937346 -2.470909 
L 482.080467 -2.470909 
L 481.223587 -2.470909 
L 480.366708 -2.470909 
L 479.509828 -2.470909 
L 478.652948 -2.470909 
L 477.796069 -2.470909 
L 476.939189 -2.470909 
L 476.08231 -2.470909 
L 475.22543 -2.470909 
L 474.36855 -2.470909 
L 473.511671 -2.470909 
L 472.654791 -2.470909 
L 471.797912 -2.470909 
L 470.941032 -2.470909 
L 470.084152 -2.470909 
L 469.227273 -2.470909 
L 468.370393 -2.470909 
L 467.513514 -2.470909 
L 466.656634 -2.470909 
L 465.799754 -2.470909 
L 464.942875 -2.470909 
L 464.085995 -2.470909 
L 463.229115 -2.470909 
L 462.372236 -2.470909 
L 461.515356 -2.470909 
L 460.658477 -2.470909 
L 459.801597 -2.470909 
L 458.944717 -2.470909 
L 458.087838 -2.470909 
L 457.230958 -2.470909 
L 456.374079 -2.470909 
L 455.517199 -2.470909 
L 454.660319 -2.470909 
L 453.80344 -2.470909 
L 452.94656 -2.470909 
L 452.089681 -2.470909 
L 451.232801 -2.470909 
L 450.375921 -2.470909 
L 449.519042 -2.470909 
L 448.662162 -2.470909 
L 447.805283 -2.470909 
L 446.948403 -2.470909 
L 446.091523 -2.470909 
L 445.234644 -2.470909 
L 444.377764 -2.470909 
L 443.520885 -2.470909 
L 442.664005 -2.470909 
L 441.807125 -2.470909 
L 440.950246 -2.470909 
L 440.093366 -2.470909 
L 439.236486 -2.470909 
L 438.379607 -2.470909 
L 437.522727 -2.470909 
L 436.665848 -2.470909 
L 435.808968 -2.470909 
L 434.952088 -2.470909 
L 434.095209 -2.470909 
L 433.238329 -2.470909 
L 432.38145 -2.470909 
L 431.52457 -2.470909 
L 430.66769 -2.470909 
L 429.810811 -2.470909 
L 428.953931 -2.470909 
L 428.097052 -2.470909 
L 427.240172 -2.470909 
L 426.383292 -2.470909 
L 425.526413 -2.470909 
L 424.669533 -2.470909 
L 423.812654 -2.470909 
L 422.955774 -2.470909 
L 422.098894 -2.470909 
L 421.242015 -2.470909 
L 420.385135 -2.470909 
L 419.528256 -2.470909 
L 418.671376 -2.470909 
L 417.814496 -2.470909 
L 416.957617 -2.470909 
L 416.100737 -2.470909 
L 415.243857 -2.470909 
L 414.386978 -2.470909 
L 413.530098 -2.470909 
L 412.673219 -2.470909 
L 411.816339 -2.470909 
L 410.959459 -2.470909 
L 410.10258 -2.470909 
L 409.2457 -2.470909 
L 408.388821 -2.470909 
L 407.531941 -2.470909 
L 406.675061 -2.470909 
L 405.818182 -2.470909 
L 404.961302 -2.470909 
L 404.104423 -2.470909 
L 403.247543 -2.470909 
L 402.390663 -2.470909 
L 401.533784 -2.470909 
L 400.676904 -2.470909 
L 399.820025 -2.470909 
L 398.963145 -2.470909 
L 398.106265 -2.470909 
L 397.249386 -2.470909 
L 396.392506 -2.470909 
L 395.535627 -2.470909 
L 394.678747 -2.470909 
L 393.821867 -2.470909 
L 392.964988 -2.470909 
L 392.108108 -2.470909 
L 391.251229 -2.470909 
L 390.394349 -2.470909 
L 389.537469 -2.470909 
L 388.68059 -2.470909 
L 387.82371 -2.470909 
L 386.96683 -2.470909 
L 386.109951 -2.470909 
L 385.253071 -2.470909 
L 384.396192 -2.470909 
L 383.539312 -2.470909 
L 382.682432 -2.470909 
L 381.825553 -2.470909 
L 380.968673 -2.470909 
L 380.111794 -2.470909 
L 379.254914 -2.470909 
L 378.398034 -2.470909 
L 377.541155 -2.470909 
L 376.684275 -2.470909 
L 375.827396 -2.470909 
L 374.970516 -2.470909 
L 374.113636 -2.470909 
L 373.256757 -2.470909 
L 372.399877 -2.470909 
L 371.542998 -2.470909 
L 370.686118 -2.470909 
L 369.829238 -2.470909 
L 368.972359 -2.470909 
L 368.115479 -2.470909 
L 367.2586 -2.470909 
L 366.40172 -2.470909 
L 365.54484 -2.470909 
L 364.687961 -2.470909 
L 363.831081 -2.470909 
L 362.974201 -2.470909 
L 362.117322 -2.470909 
L 361.260442 -2.470909 
L 360.403563 -2.470909 
L 359.546683 -2.470909 
L 358.689803 -2.470909 
L 357.832924 -2.470909 
L 356.976044 -2.470909 
L 356.119165 -2.470909 
L 355.262285 -2.470909 
L 354.405405 -2.470909 
L 353.548526 -2.470909 
L 352.691646 -2.470909 
L 351.834767 -2.470909 
L 350.977887 -2.470909 
L 350.121007 -2.470909 
L 349.264128 -2.470909 
L 348.407248 -2.470909 
L 347.550369 -2.470909 
L 346.693489 -2.470909 
L 345.836609 -2.470909 
L 344.97973 -2.470909 
L 344.12285 -2.470909 
L 343.265971 -2.470909 
L 342.409091 -2.470909 
L 341.552211 -2.470909 
L 340.695332 -2.470909 
L 339.838452 -2.470909 
z
" style="stroke: #116dc2; stroke-opacity: 0.2"/>
    </defs>
    <g clip-path="url(#p74c8590b1f)">
     <use xlink:href="#mecffe7e7f5" x="0" y="54.36" style="fill: #116dc2; fill-opacity: 0.2; stroke: #116dc2; stroke-opacity: 0.2"/>
    </g>
   </g>
   <g id="PolyCollection_3">
    <defs>
     <path id="mefbfad7787" d="M 25.363636 -2.470909 
L 25.363636 -4.609129 
L 26.220516 -4.985773 
L 27.077396 -5.360974 
L 27.934275 -5.762199 
L 28.791155 -6.214342 
L 29.648034 -6.746892 
L 30.504914 -7.412559 
L 31.361794 -8.267199 
L 32.218673 -9.32715 
L 33.075553 -10.569784 
L 33.932432 -11.977287 
L 34.789312 -13.541315 
L 35.646192 -15.207292 
L 36.503071 -16.86312 
L 37.359951 -18.434397 
L 38.21683 -19.973056 
L 39.07371 -21.610353 
L 39.93059 -23.430982 
L 40.787469 -25.424451 
L 41.644349 -27.551093 
L 42.501229 -29.824622 
L 43.358108 -32.31806 
L 44.214988 -35.077751 
L 45.071867 -38.013754 
L 45.928747 -40.88863 
L 46.785627 -43.445472 
L 47.642506 -45.541129 
L 48.499386 -47.148348 
L 49.356265 -48.303261 
L 50.213145 -49.128972 
L 51.070025 -49.835863 
L 51.926904 -50.561856 
L 52.783784 -51.234884 
L 53.640663 -51.694013 
L 54.497543 -51.889091 
L 55.354423 -51.846335 
L 56.211302 -51.515739 
L 57.068182 -50.805343 
L 57.925061 -49.72728 
L 58.781941 -48.380439 
L 59.638821 -46.805999 
L 60.4957 -44.949318 
L 61.35258 -42.753799 
L 62.209459 -40.246679 
L 63.066339 -37.562475 
L 63.923219 -34.916222 
L 64.780098 -32.512153 
L 65.636978 -30.429989 
L 66.493857 -28.59268 
L 67.350737 -26.83045 
L 68.207617 -24.967692 
L 69.064496 -22.893953 
L 69.921376 -20.614261 
L 70.778256 -18.260567 
L 71.635135 -16.047157 
L 72.492015 -14.170069 
L 73.348894 -12.692182 
L 74.205774 -11.508628 
L 75.062654 -10.442506 
L 75.919533 -9.380672 
L 76.776413 -8.319357 
L 77.633292 -7.314328 
L 78.490172 -6.424506 
L 79.347052 -5.68913 
L 80.203931 -5.117433 
L 81.060811 -4.683674 
L 81.91769 -4.339283 
L 81.91769 -2.470909 
L 81.91769 -2.470909 
L 81.060811 -2.470909 
L 80.203931 -2.470909 
L 79.347052 -2.470909 
L 78.490172 -2.470909 
L 77.633292 -2.470909 
L 76.776413 -2.470909 
L 75.919533 -2.470909 
L 75.062654 -2.470909 
L 74.205774 -2.470909 
L 73.348894 -2.470909 
L 72.492015 -2.470909 
L 71.635135 -2.470909 
L 70.778256 -2.470909 
L 69.921376 -2.470909 
L 69.064496 -2.470909 
L 68.207617 -2.470909 
L 67.350737 -2.470909 
L 66.493857 -2.470909 
L 65.636978 -2.470909 
L 64.780098 -2.470909 
L 63.923219 -2.470909 
L 63.066339 -2.470909 
L 62.209459 -2.470909 
L 61.35258 -2.470909 
L 60.4957 -2.470909 
L 59.638821 -2.470909 
L 58.781941 -2.470909 
L 57.925061 -2.470909 
L 57.068182 -2.470909 
L 56.211302 -2.470909 
L 55.354423 -2.470909 
L 54.497543 -2.470909 
L 53.640663 -2.470909 
L 52.783784 -2.470909 
L 51.926904 -2.470909 
L 51.070025 -2.470909 
L 50.213145 -2.470909 
L 49.356265 -2.470909 
L 48.499386 -2.470909 
L 47.642506 -2.470909 
L 46.785627 -2.470909 
L 45.928747 -2.470909 
L 45.071867 -2.470909 
L 44.214988 -2.470909 
L 43.358108 -2.470909 
L 42.501229 -2.470909 
L 41.644349 -2.470909 
L 40.787469 -2.470909 
L 39.93059 -2.470909 
L 39.07371 -2.470909 
L 38.21683 -2.470909 
L 37.359951 -2.470909 
L 36.503071 -2.470909 
L 35.646192 -2.470909 
L 34.789312 -2.470909 
L 33.932432 -2.470909 
L 33.075553 -2.470909 
L 32.218673 -2.470909 
L 31.361794 -2.470909 
L 30.504914 -2.470909 
L 29.648034 -2.470909 
L 28.791155 -2.470909 
L 27.934275 -2.470909 
L 27.077396 -2.470909 
L 26.220516 -2.470909 
L 25.363636 -2.470909 
z
" style="stroke: #8a8a8a; stroke-opacity: 0.2"/>
    </defs>
    <g clip-path="url(#p74c8590b1f)">
     <use xlink:href="#mefbfad7787" x="0" y="54.36" style="fill: #8a8a8a; fill-opacity: 0.2; stroke: #8a8a8a; stroke-opacity: 0.2"/>
    </g>
   </g>
   <g id="line2d_1">
    <path d="M 241.297297 50.348545 
L 244.724816 49.856883 
L 247.295455 49.288248 
L 250.722973 48.290808 
L 256.72113 46.236062 
L 260.148649 44.92267 
L 262.719287 43.743285 
L 265.289926 42.296547 
L 267.860565 40.585703 
L 274.715602 35.841926 
L 281.570639 31.491046 
L 284.141278 29.534536 
L 291.853194 23.326849 
L 295.280713 21.097693 
L 302.135749 16.951971 
L 305.563268 15.164075 
L 308.990786 13.631486 
L 311.561425 12.641732 
L 314.132064 11.897936 
L 315.845823 11.612211 
L 317.559582 11.530575 
L 319.273342 11.653541 
L 321.84398 12.141547 
L 327.842138 13.737756 
L 330.412776 14.593684 
L 332.126536 15.371087 
L 333.840295 16.359894 
L 336.410934 18.183259 
L 339.838452 20.969155 
L 343.265971 24.018655 
L 349.264128 29.530924 
L 351.834767 31.514587 
L 356.119165 34.403966 
L 362.974201 38.785519 
L 366.40172 40.693936 
L 371.542998 43.281685 
L 375.827396 45.274472 
L 379.254914 46.634227 
L 382.682432 47.697167 
L 386.109951 48.481296 
L 394.678747 50.038625 
L 396.392506 50.303203 
L 396.392506 50.303203 
" clip-path="url(#p74c8590b1f)" style="fill: none; stroke: #cf1313; stroke-width: 1.5; stroke-linecap: square"/>
   </g>
   <g id="line2d_2">
    <path d="M 339.838452 50.215218 
L 346.693489 49.37429 
L 352.691646 48.390209 
L 357.832924 47.32322 
L 361.260442 46.428981 
L 364.687961 45.338336 
L 369.829238 43.41793 
L 374.113636 41.59767 
L 378.398034 39.493623 
L 387.82371 34.689684 
L 393.821867 31.648167 
L 398.963145 28.797953 
L 410.10258 22.48421 
L 414.386978 20.387895 
L 418.671376 18.528769 
L 423.812654 16.557272 
L 428.097052 15.169747 
L 431.52457 14.270487 
L 434.095209 13.759758 
L 436.665848 13.444076 
L 439.236486 13.36852 
L 441.807125 13.539546 
L 445.234644 14.063564 
L 450.375921 15.133004 
L 453.80344 16.034494 
L 456.374079 16.959382 
L 458.944717 18.163234 
L 462.372236 20.107521 
L 470.941032 25.415525 
L 475.22543 28.326586 
L 480.366708 31.838727 
L 482.937346 33.38414 
L 485.507985 34.724416 
L 488.935504 36.229377 
L 497.5043 39.734791 
L 501.788698 41.874463 
L 506.073096 44.008076 
L 509.500614 45.456325 
L 512.928133 46.619307 
L 516.355651 47.55298 
L 520.640049 48.480461 
L 525.781327 49.322344 
L 532.636364 50.199846 
L 532.636364 50.199846 
" clip-path="url(#p74c8590b1f)" style="fill: none; stroke: #116dc2; stroke-width: 1.5; stroke-linecap: square"/>
   </g>
   <g id="line2d_3">
    <path d="M 25.363636 49.750871 
L 26.220516 49.374227 
L 27.077396 48.999026 
L 27.934275 48.597801 
L 28.791155 48.145658 
L 29.648034 47.613108 
L 30.504914 46.947441 
L 31.361794 46.092801 
L 32.218673 45.03285 
L 33.075553 43.790216 
L 33.932432 42.382713 
L 34.789312 40.818685 
L 35.646192 39.152708 
L 36.503071 37.49688 
L 37.359951 35.925603 
L 38.21683 34.386944 
L 39.07371 32.749647 
L 39.93059 30.929018 
L 40.787469 28.935549 
L 41.644349 26.808907 
L 42.501229 24.535378 
L 43.358108 22.04194 
L 44.214988 19.282249 
L 45.071867 16.346246 
L 45.928747 13.47137 
L 46.785627 10.914528 
L 47.642506 8.818871 
L 48.499386 7.211652 
L 49.356265 6.056739 
L 50.213145 5.231028 
L 51.070025 4.524137 
L 51.926904 3.798144 
L 52.783784 3.125116 
L 53.640663 2.665987 
L 54.497543 2.470909 
L 55.354423 2.513665 
L 56.211302 2.844261 
L 57.068182 3.554657 
L 57.925061 4.63272 
L 58.781941 5.979561 
L 59.638821 7.554001 
L 60.4957 9.410682 
L 61.35258 11.606201 
L 62.209459 14.113321 
L 63.066339 16.797525 
L 63.923219 19.443778 
L 64.780098 21.847847 
L 65.636978 23.930011 
L 66.493857 25.76732 
L 67.350737 27.52955 
L 68.207617 29.392308 
L 69.064496 31.466047 
L 69.921376 33.745739 
L 70.778256 36.099433 
L 71.635135 38.312843 
L 72.492015 40.189931 
L 73.348894 41.667818 
L 74.205774 42.851372 
L 75.062654 43.917494 
L 75.919533 44.979328 
L 76.776413 46.040643 
L 77.633292 47.045672 
L 78.490172 47.935494 
L 79.347052 48.67087 
L 80.203931 49.242567 
L 81.060811 49.676326 
L 81.91769 50.020717 
" clip-path="url(#p74c8590b1f)" style="fill: none; stroke: #8a8a8a; stroke-width: 1.5; stroke-linecap: square"/>
   </g>
  </g>
 </g>
 <defs>
  <clipPath id="p74c8590b1f">
   <rect x="0" y="-0" width="558" height="54.36"/>
  </clipPath>
 </defs>
</svg>
