<?xml version="1.0" encoding="utf-8" standalone="no"?>
<!DOCTYPE svg PUBLIC "-//W3C//DTD SVG 1.1//EN"
  "http://www.w3.org/Graphics/SVG/1.1/DTD/svg11.dtd">
<svg xmlns:xlink="http://www.w3.org/1999/xlink" width="558pt" height="54.36pt" viewBox="0 0 558 54.36" xmlns="http://www.w3.org/2000/svg" version="1.1">
 <metadata>
  <rdf:RDF xmlns:dc="http://purl.org/dc/elements/1.1/" xmlns:cc="http://creativecommons.org/ns#" xmlns:rdf="http://www.w3.org/1999/02/22-rdf-syntax-ns#">
   <cc:Work>
    <dc:type rdf:resource="http://purl.org/dc/dcmitype/StillImage"/>
    <dc:date>2024-09-15T09:31:32.095711</dc:date>
    <dc:format>image/svg+xml</dc:format>
    <dc:creator>
     <cc:Agent>
      <dc:title>Matplotlib v3.5.2, https://matplotlib.org/</dc:title>
     </cc:Agent>
    </dc:creator>
   </cc:Work>
  </rdf:RDF>
 </metadata>
 <defs>
  <style type="text/css">*{stroke-linejoin: round; stroke-linecap: butt}</style>
 </defs>
 <g id="figure_1">
  <g id="patch_1">
   <path d="M 0 54.36 
L 558 54.36 
L 558 0 
L 0 0 
L 0 54.36 
z
" style="fill: none; opacity: 0"/>
  </g>
  <g id="axes_1">
   <g id="PolyCollection_1">
    <defs>
     <path id="mfdfcdb1546" d="M 236.655987 -2.470909 
L 236.655987 -4.200094 
L 237.511421 -4.332655 
L 238.366856 -4.475002 
L 239.22229 -4.62719 
L 240.077725 -4.788632 
L 240.93316 -4.958052 
L 241.788594 -5.13355 
L 242.644029 -5.3128 
L 243.499463 -5.493366 
L 244.354898 -5.673101 
L 245.210333 -5.850595 
L 246.065767 -6.025581 
L 246.921202 -6.199224 
L 247.776637 -6.374223 
L 248.632071 -6.554669 
L 249.487506 -6.745645 
L 250.34294 -6.95261 
L 251.198375 -7.180644 
L 252.05381 -7.433668 
L 252.909244 -7.713783 
L 253.764679 -8.020839 
L 254.620113 -8.352322 
L 255.475548 -8.703615 
L 256.330983 -9.068585 
L 257.186417 -9.440439 
L 258.041852 -9.812705 
L 258.897287 -10.18019 
L 259.752721 -10.539758 
L 260.608156 -10.890801 
L 261.46359 -11.235333 
L 262.319025 -11.577697 
L 263.17446 -11.923952 
L 264.029894 -12.281029 
L 264.885329 -12.655821 
L 265.740763 -13.054318 
L 266.596198 -13.480921 
L 267.451633 -13.938001 
L 268.307067 -14.425744 
L 269.162502 -14.94229 
L 270.017937 -15.484145 
L 270.873371 -16.04681 
L 271.728806 -16.625578 
L 272.58424 -17.216391 
L 273.439675 -17.81665 
L 274.29511 -18.425835 
L 275.150544 -19.045805 
L 276.005979 -19.680693 
L 276.861413 -20.336344 
L 277.716848 -21.019379 
L 278.572283 -21.73603 
L 279.427717 -22.490971 
L 280.283152 -23.286387 
L 281.138587 -24.121501 
L 281.994021 -24.992645 
L 282.849456 -25.893869 
L 283.70489 -26.817908 
L 284.560325 -27.75726 
L 285.41576 -28.705075 
L 286.271194 -29.655638 
L 287.126629 -30.604319 
L 287.982063 -31.547048 
L 288.837498 -32.47951 
L 289.692933 -33.396346 
L 290.548367 -34.290641 
L 291.403802 -35.153924 
L 292.259237 -35.976719 
L 293.114671 -36.749553 
L 293.970106 -37.464172 
L 294.82554 -38.114664 
L 295.680975 -38.698223 
L 296.53641 -39.215368 
L 297.391844 -39.669618 
L 298.247279 -40.066717 
L 299.102713 -40.413649 
L 299.958148 -40.71767 
L 300.813583 -40.985556 
L 301.669017 -41.223155 
L 302.524452 -41.435248 
L 303.379887 -41.625606 
L 304.235321 -41.79712 
L 305.090756 -41.951907 
L 305.94619 -42.091338 
L 306.801625 -42.21603 
L 307.65706 -42.325876 
L 308.512494 -42.420201 
L 309.367929 -42.49807 
L 310.223363 -42.558712 
L 311.078798 -42.601947 
L 311.934233 -42.628457 
L 312.789667 -42.63979 
L 313.645102 -42.638025 
L 314.500537 -42.625159 
L 315.355971 -42.60235 
L 316.211406 -42.569217 
L 317.06684 -42.523384 
L 317.922275 -42.460397 
L 318.77771 -42.37407 
L 319.633144 -42.257178 
L 320.488579 -42.102384 
L 321.344013 -41.903202 
L 322.199448 -41.654859 
L 323.054883 -41.354884 
L 323.910317 -41.003384 
L 324.765752 -40.602965 
L 325.621187 -40.158342 
L 326.476621 -39.675703 
L 327.332056 -39.161938 
L 328.18749 -38.623833 
L 329.042925 -38.067345 
L 329.89836 -37.497072 
L 330.753794 -36.915978 
L 331.609229 -36.325421 
L 332.464663 -35.725457 
L 333.320098 -35.11537 
L 334.175533 -34.494293 
L 335.030967 -33.861831 
L 335.886402 -33.218533 
L 336.741837 -32.566165 
L 337.597271 -31.907722 
L 338.452706 -31.247234 
L 339.30814 -30.589404 
L 340.163575 -29.939166 
L 341.01901 -29.301246 
L 341.874444 -28.679769 
L 342.729879 -28.077932 
L 343.585314 -27.497747 
L 344.440748 -26.939822 
L 345.296183 -26.403188 
L 346.151617 -25.885178 
L 347.007052 -25.381402 
L 347.862487 -24.885869 
L 348.717921 -24.391313 
L 349.573356 -23.889732 
L 350.42879 -23.373122 
L 351.284225 -22.834307 
L 352.13966 -22.267749 
L 352.995094 -21.670203 
L 353.850529 -21.04109 
L 354.705964 -20.382536 
L 355.561398 -19.699075 
L 356.416833 -18.997098 
L 357.272267 -18.28415 
L 358.127702 -17.568207 
L 358.983137 -16.857032 
L 359.838571 -16.15769 
L 360.694006 -15.476224 
L 361.54944 -14.817499 
L 362.404875 -14.185168 
L 363.26031 -13.581724 
L 364.115744 -13.008613 
L 364.971179 -12.466378 
L 365.826614 -11.954819 
L 366.682048 -11.473143 
L 367.537483 -11.020115 
L 368.392917 -10.59416 
L 369.248352 -10.193455 
L 370.103787 -9.815988 
L 370.959221 -9.459611 
L 371.814656 -9.122109 
L 372.67009 -8.801278 
L 373.525525 -8.495033 
L 374.38096 -8.201516 
L 375.236394 -7.919192 
L 376.091829 -7.646903 
L 376.947264 -7.383873 
L 377.802698 -7.129657 
L 378.658133 -6.884038 
L 379.513567 -6.646905 
L 380.369002 -6.418126 
L 381.224437 -6.197455 
L 382.079871 -5.984475 
L 382.935306 -5.778619 
L 383.79074 -5.579243 
L 384.646175 -5.385754 
L 385.50161 -5.197758 
L 386.357044 -5.015194 
L 387.212479 -4.838419 
L 388.067914 -4.668211 
L 388.923348 -4.505684 
L 389.778783 -4.352123 
L 390.634217 -4.208774 
L 390.634217 -2.470909 
L 390.634217 -2.470909 
L 389.778783 -2.470909 
L 388.923348 -2.470909 
L 388.067914 -2.470909 
L 387.212479 -2.470909 
L 386.357044 -2.470909 
L 385.50161 -2.470909 
L 384.646175 -2.470909 
L 383.79074 -2.470909 
L 382.935306 -2.470909 
L 382.079871 -2.470909 
L 381.224437 -2.470909 
L 380.369002 -2.470909 
L 379.513567 -2.470909 
L 378.658133 -2.470909 
L 377.802698 -2.470909 
L 376.947264 -2.470909 
L 376.091829 -2.470909 
L 375.236394 -2.470909 
L 374.38096 -2.470909 
L 373.525525 -2.470909 
L 372.67009 -2.470909 
L 371.814656 -2.470909 
L 370.959221 -2.470909 
L 370.103787 -2.470909 
L 369.248352 -2.470909 
L 368.392917 -2.470909 
L 367.537483 -2.470909 
L 366.682048 -2.470909 
L 365.826614 -2.470909 
L 364.971179 -2.470909 
L 364.115744 -2.470909 
L 363.26031 -2.470909 
L 362.404875 -2.470909 
L 361.54944 -2.470909 
L 360.694006 -2.470909 
L 359.838571 -2.470909 
L 358.983137 -2.470909 
L 358.127702 -2.470909 
L 357.272267 -2.470909 
L 356.416833 -2.470909 
L 355.561398 -2.470909 
L 354.705964 -2.470909 
L 353.850529 -2.470909 
L 352.995094 -2.470909 
L 352.13966 -2.470909 
L 351.284225 -2.470909 
L 350.42879 -2.470909 
L 349.573356 -2.470909 
L 348.717921 -2.470909 
L 347.862487 -2.470909 
L 347.007052 -2.470909 
L 346.151617 -2.470909 
L 345.296183 -2.470909 
L 344.440748 -2.470909 
L 343.585314 -2.470909 
L 342.729879 -2.470909 
L 341.874444 -2.470909 
L 341.01901 -2.470909 
L 340.163575 -2.470909 
L 339.30814 -2.470909 
L 338.452706 -2.470909 
L 337.597271 -2.470909 
L 336.741837 -2.470909 
L 335.886402 -2.470909 
L 335.030967 -2.470909 
L 334.175533 -2.470909 
L 333.320098 -2.470909 
L 332.464663 -2.470909 
L 331.609229 -2.470909 
L 330.753794 -2.470909 
L 329.89836 -2.470909 
L 329.042925 -2.470909 
L 328.18749 -2.470909 
L 327.332056 -2.470909 
L 326.476621 -2.470909 
L 325.621187 -2.470909 
L 324.765752 -2.470909 
L 323.910317 -2.470909 
L 323.054883 -2.470909 
L 322.199448 -2.470909 
L 321.344013 -2.470909 
L 320.488579 -2.470909 
L 319.633144 -2.470909 
L 318.77771 -2.470909 
L 317.922275 -2.470909 
L 317.06684 -2.470909 
L 316.211406 -2.470909 
L 315.355971 -2.470909 
L 314.500537 -2.470909 
L 313.645102 -2.470909 
L 312.789667 -2.470909 
L 311.934233 -2.470909 
L 311.078798 -2.470909 
L 310.223363 -2.470909 
L 309.367929 -2.470909 
L 308.512494 -2.470909 
L 307.65706 -2.470909 
L 306.801625 -2.470909 
L 305.94619 -2.470909 
L 305.090756 -2.470909 
L 304.235321 -2.470909 
L 303.379887 -2.470909 
L 302.524452 -2.470909 
L 301.669017 -2.470909 
L 300.813583 -2.470909 
L 299.958148 -2.470909 
L 299.102713 -2.470909 
L 298.247279 -2.470909 
L 297.391844 -2.470909 
L 296.53641 -2.470909 
L 295.680975 -2.470909 
L 294.82554 -2.470909 
L 293.970106 -2.470909 
L 293.114671 -2.470909 
L 292.259237 -2.470909 
L 291.403802 -2.470909 
L 290.548367 -2.470909 
L 289.692933 -2.470909 
L 288.837498 -2.470909 
L 287.982063 -2.470909 
L 287.126629 -2.470909 
L 286.271194 -2.470909 
L 285.41576 -2.470909 
L 284.560325 -2.470909 
L 283.70489 -2.470909 
L 282.849456 -2.470909 
L 281.994021 -2.470909 
L 281.138587 -2.470909 
L 280.283152 -2.470909 
L 279.427717 -2.470909 
L 278.572283 -2.470909 
L 277.716848 -2.470909 
L 276.861413 -2.470909 
L 276.005979 -2.470909 
L 275.150544 -2.470909 
L 274.29511 -2.470909 
L 273.439675 -2.470909 
L 272.58424 -2.470909 
L 271.728806 -2.470909 
L 270.873371 -2.470909 
L 270.017937 -2.470909 
L 269.162502 -2.470909 
L 268.307067 -2.470909 
L 267.451633 -2.470909 
L 266.596198 -2.470909 
L 265.740763 -2.470909 
L 264.885329 -2.470909 
L 264.029894 -2.470909 
L 263.17446 -2.470909 
L 262.319025 -2.470909 
L 261.46359 -2.470909 
L 260.608156 -2.470909 
L 259.752721 -2.470909 
L 258.897287 -2.470909 
L 258.041852 -2.470909 
L 257.186417 -2.470909 
L 256.330983 -2.470909 
L 255.475548 -2.470909 
L 254.620113 -2.470909 
L 253.764679 -2.470909 
L 252.909244 -2.470909 
L 252.05381 -2.470909 
L 251.198375 -2.470909 
L 250.34294 -2.470909 
L 249.487506 -2.470909 
L 248.632071 -2.470909 
L 247.776637 -2.470909 
L 246.921202 -2.470909 
L 246.065767 -2.470909 
L 245.210333 -2.470909 
L 244.354898 -2.470909 
L 243.499463 -2.470909 
L 242.644029 -2.470909 
L 241.788594 -2.470909 
L 240.93316 -2.470909 
L 240.077725 -2.470909 
L 239.22229 -2.470909 
L 238.366856 -2.470909 
L 237.511421 -2.470909 
L 236.655987 -2.470909 
z
" style="stroke: #cf1313; stroke-opacity: 0.2"/>
    </defs>
    <g clip-path="url(#p9c4225c0a5)">
     <use xlink:href="#mfdfcdb1546" x="0" y="54.36" style="fill: #cf1313; fill-opacity: 0.2; stroke: #cf1313; stroke-opacity: 0.2"/>
    </g>
   </g>
   <g id="PolyCollection_2">
    <defs>
     <path id="m863b136501" d="M 338.452706 -2.470909 
L 338.452706 -3.795475 
L 339.30814 -3.897742 
L 340.163575 -4.007761 
L 341.01901 -4.124796 
L 341.874444 -4.248027 
L 342.729879 -4.376603 
L 343.585314 -4.509688 
L 344.440748 -4.6465 
L 345.296183 -4.786342 
L 346.151617 -4.928625 
L 347.007052 -5.07287 
L 347.862487 -5.218716 
L 348.717921 -5.36591 
L 349.573356 -5.514309 
L 350.42879 -5.663869 
L 351.284225 -5.814653 
L 352.13966 -5.966824 
L 352.995094 -6.120657 
L 353.850529 -6.276534 
L 354.705964 -6.434942 
L 355.561398 -6.596464 
L 356.416833 -6.761763 
L 357.272267 -6.931555 
L 358.127702 -7.106594 
L 358.983137 -7.287645 
L 359.838571 -7.47548 
L 360.694006 -7.670872 
L 361.54944 -7.87461 
L 362.404875 -8.087519 
L 363.26031 -8.310477 
L 364.115744 -8.544432 
L 364.971179 -8.790401 
L 365.826614 -9.049436 
L 366.682048 -9.322568 
L 367.537483 -9.610716 
L 368.392917 -9.914575 
L 369.248352 -10.234492 
L 370.103787 -10.570344 
L 370.959221 -10.921455 
L 371.814656 -11.286547 
L 372.67009 -11.663767 
L 373.525525 -12.050771 
L 374.38096 -12.444892 
L 375.236394 -12.843354 
L 376.091829 -13.243527 
L 376.947264 -13.643182 
L 377.802698 -14.040721 
L 378.658133 -14.435338 
L 379.513567 -14.827099 
L 380.369002 -15.216924 
L 381.224437 -15.60646 
L 382.079871 -15.99788 
L 382.935306 -16.393621 
L 383.79074 -16.796109 
L 384.646175 -17.207507 
L 385.50161 -17.629524 
L 386.357044 -18.063315 
L 387.212479 -18.509478 
L 388.067914 -18.968142 
L 388.923348 -19.439136 
L 389.778783 -19.922179 
L 390.634217 -20.417073 
L 391.489652 -20.923846 
L 392.345087 -21.442812 
L 393.200521 -21.974545 
L 394.055956 -22.519744 
L 394.91139 -23.079035 
L 395.766825 -23.652724 
L 396.62226 -24.240552 
L 397.477694 -24.841489 
L 398.333129 -25.453619 
L 399.188564 -26.074119 
L 400.043998 -26.699367 
L 400.899433 -27.32515 
L 401.754867 -27.946961 
L 402.610302 -28.560337 
L 403.465737 -29.16121 
L 404.321171 -29.746205 
L 405.176606 -30.312867 
L 406.03204 -30.859764 
L 406.887475 -31.386476 
L 407.74291 -31.893458 
L 408.598344 -32.381798 
L 409.453779 -32.852921 
L 410.309214 -33.30826 
L 411.164648 -33.748974 
L 412.020083 -34.175735 
L 412.875517 -34.588633 
L 413.730952 -34.987207 
L 414.586387 -35.370607 
L 415.441821 -35.737848 
L 416.297256 -36.088123 
L 417.15269 -36.421108 
L 418.008125 -36.737212 
L 418.86356 -37.037713 
L 419.718994 -37.324756 
L 420.574429 -37.601205 
L 421.429864 -37.87036 
L 422.285298 -38.135577 
L 423.140733 -38.399851 
L 423.996167 -38.665406 
L 424.851602 -38.933351 
L 425.707037 -39.203452 
L 426.562471 -39.474024 
L 427.417906 -39.741974 
L 428.27334 -40.002966 
L 429.128775 -40.251698 
L 429.98421 -40.482254 
L 430.839644 -40.688498 
L 431.695079 -40.864477 
L 432.550514 -41.004793 
L 433.405948 -41.104933 
L 434.261383 -41.161516 
L 435.116817 -41.172456 
L 435.972252 -41.137027 
L 436.827687 -41.055835 
L 437.683121 -40.930703 
L 438.538556 -40.764499 
L 439.39399 -40.560915 
L 440.249425 -40.32424 
L 441.10486 -40.059152 
L 441.960294 -39.770542 
L 442.815729 -39.463391 
L 443.671164 -39.142686 
L 444.526598 -38.813375 
L 445.382033 -38.480326 
L 446.237467 -38.148265 
L 447.092902 -37.821677 
L 447.948337 -37.504634 
L 448.803771 -37.200583 
L 449.659206 -36.912069 
L 450.514641 -36.640463 
L 451.370075 -36.385709 
L 452.22551 -36.14615 
L 453.080944 -35.918468 
L 453.936379 -35.697774 
L 454.791814 -35.477853 
L 455.647248 -35.251559 
L 456.502683 -35.011338 
L 457.358117 -34.749817 
L 458.213552 -34.460414 
L 459.068987 -34.137905 
L 459.924421 -33.778875 
L 460.779856 -33.382013 
L 461.635291 -32.948212 
L 462.490725 -32.480462 
L 463.34616 -31.983542 
L 464.201594 -31.463552 
L 465.057029 -30.927334 
L 465.912464 -30.381855 
L 466.767898 -29.833617 
L 467.623333 -29.288163 
L 468.478767 -28.749724 
L 469.334202 -28.221052 
L 470.189637 -27.703415 
L 471.045071 -27.196766 
L 471.900506 -26.700019 
L 472.755941 -26.211395 
L 473.611375 -25.728774 
L 474.46681 -25.250015 
L 475.322244 -24.773187 
L 476.177679 -24.296716 
L 477.033114 -23.819418 
L 477.888548 -23.340461 
L 478.743983 -22.859263 
L 479.599417 -22.375377 
L 480.454852 -21.888381 
L 481.310287 -21.397823 
L 482.165721 -20.90322 
L 483.021156 -20.404129 
L 483.876591 -19.900274 
L 484.732025 -19.391708 
L 485.58746 -18.878979 
L 486.442894 -18.363256 
L 487.298329 -17.846398 
L 488.153764 -17.330929 
L 489.009198 -16.819917 
L 489.864633 -16.316761 
L 490.720067 -15.824907 
L 491.575502 -15.347535 
L 492.430937 -14.88725 
L 493.286371 -14.445833 
L 494.141806 -14.024076 
L 494.997241 -13.621733 
L 495.852675 -13.23759 
L 496.70811 -12.869651 
L 497.563544 -12.515403 
L 498.418979 -12.172129 
L 499.274414 -11.837223 
L 500.129848 -11.508467 
L 500.985283 -11.184225 
L 501.840717 -10.86355 
L 502.696152 -10.546181 
L 503.551587 -10.232452 
L 504.407021 -9.923127 
L 505.262456 -9.619209 
L 506.117891 -9.321742 
L 506.973325 -9.031641 
L 507.82876 -8.749583 
L 508.684194 -8.475957 
L 509.539629 -8.210875 
L 510.395064 -7.954232 
L 511.250498 -7.705796 
L 512.105933 -7.465296 
L 512.961367 -7.232503 
L 513.816802 -7.007273 
L 514.672237 -6.789564 
L 515.527671 -6.579417 
L 516.383106 -6.376914 
L 517.238541 -6.182128 
L 518.093975 -5.995081 
L 518.94941 -5.815712 
L 519.804844 -5.643872 
L 520.660279 -5.479335 
L 521.515714 -5.321829 
L 522.371148 -5.171083 
L 523.226583 -5.026859 
L 524.082017 -4.888994 
L 524.937452 -4.757407 
L 525.792887 -4.632106 
L 526.648321 -4.513165 
L 527.503756 -4.400694 
L 528.359191 -4.294793 
L 529.214625 -4.195518 
L 530.07006 -4.102844 
L 530.925494 -4.016639 
L 531.780929 -3.936656 
L 532.636364 -3.862535 
L 532.636364 -2.470909 
L 532.636364 -2.470909 
L 531.780929 -2.470909 
L 530.925494 -2.470909 
L 530.07006 -2.470909 
L 529.214625 -2.470909 
L 528.359191 -2.470909 
L 527.503756 -2.470909 
L 526.648321 -2.470909 
L 525.792887 -2.470909 
L 524.937452 -2.470909 
L 524.082017 -2.470909 
L 523.226583 -2.470909 
L 522.371148 -2.470909 
L 521.515714 -2.470909 
L 520.660279 -2.470909 
L 519.804844 -2.470909 
L 518.94941 -2.470909 
L 518.093975 -2.470909 
L 517.238541 -2.470909 
L 516.383106 -2.470909 
L 515.527671 -2.470909 
L 514.672237 -2.470909 
L 513.816802 -2.470909 
L 512.961367 -2.470909 
L 512.105933 -2.470909 
L 511.250498 -2.470909 
L 510.395064 -2.470909 
L 509.539629 -2.470909 
L 508.684194 -2.470909 
L 507.82876 -2.470909 
L 506.973325 -2.470909 
L 506.117891 -2.470909 
L 505.262456 -2.470909 
L 504.407021 -2.470909 
L 503.551587 -2.470909 
L 502.696152 -2.470909 
L 501.840717 -2.470909 
L 500.985283 -2.470909 
L 500.129848 -2.470909 
L 499.274414 -2.470909 
L 498.418979 -2.470909 
L 497.563544 -2.470909 
L 496.70811 -2.470909 
L 495.852675 -2.470909 
L 494.997241 -2.470909 
L 494.141806 -2.470909 
L 493.286371 -2.470909 
L 492.430937 -2.470909 
L 491.575502 -2.470909 
L 490.720067 -2.470909 
L 489.864633 -2.470909 
L 489.009198 -2.470909 
L 488.153764 -2.470909 
L 487.298329 -2.470909 
L 486.442894 -2.470909 
L 485.58746 -2.470909 
L 484.732025 -2.470909 
L 483.876591 -2.470909 
L 483.021156 -2.470909 
L 482.165721 -2.470909 
L 481.310287 -2.470909 
L 480.454852 -2.470909 
L 479.599417 -2.470909 
L 478.743983 -2.470909 
L 477.888548 -2.470909 
L 477.033114 -2.470909 
L 476.177679 -2.470909 
L 475.322244 -2.470909 
L 474.46681 -2.470909 
L 473.611375 -2.470909 
L 472.755941 -2.470909 
L 471.900506 -2.470909 
L 471.045071 -2.470909 
L 470.189637 -2.470909 
L 469.334202 -2.470909 
L 468.478767 -2.470909 
L 467.623333 -2.470909 
L 466.767898 -2.470909 
L 465.912464 -2.470909 
L 465.057029 -2.470909 
L 464.201594 -2.470909 
L 463.34616 -2.470909 
L 462.490725 -2.470909 
L 461.635291 -2.470909 
L 460.779856 -2.470909 
L 459.924421 -2.470909 
L 459.068987 -2.470909 
L 458.213552 -2.470909 
L 457.358117 -2.470909 
L 456.502683 -2.470909 
L 455.647248 -2.470909 
L 454.791814 -2.470909 
L 453.936379 -2.470909 
L 453.080944 -2.470909 
L 452.22551 -2.470909 
L 451.370075 -2.470909 
L 450.514641 -2.470909 
L 449.659206 -2.470909 
L 448.803771 -2.470909 
L 447.948337 -2.470909 
L 447.092902 -2.470909 
L 446.237467 -2.470909 
L 445.382033 -2.470909 
L 444.526598 -2.470909 
L 443.671164 -2.470909 
L 442.815729 -2.470909 
L 441.960294 -2.470909 
L 441.10486 -2.470909 
L 440.249425 -2.470909 
L 439.39399 -2.470909 
L 438.538556 -2.470909 
L 437.683121 -2.470909 
L 436.827687 -2.470909 
L 435.972252 -2.470909 
L 435.116817 -2.470909 
L 434.261383 -2.470909 
L 433.405948 -2.470909 
L 432.550514 -2.470909 
L 431.695079 -2.470909 
L 430.839644 -2.470909 
L 429.98421 -2.470909 
L 429.128775 -2.470909 
L 428.27334 -2.470909 
L 427.417906 -2.470909 
L 426.562471 -2.470909 
L 425.707037 -2.470909 
L 424.851602 -2.470909 
L 423.996167 -2.470909 
L 423.140733 -2.470909 
L 422.285298 -2.470909 
L 421.429864 -2.470909 
L 420.574429 -2.470909 
L 419.718994 -2.470909 
L 418.86356 -2.470909 
L 418.008125 -2.470909 
L 417.15269 -2.470909 
L 416.297256 -2.470909 
L 415.441821 -2.470909 
L 414.586387 -2.470909 
L 413.730952 -2.470909 
L 412.875517 -2.470909 
L 412.020083 -2.470909 
L 411.164648 -2.470909 
L 410.309214 -2.470909 
L 409.453779 -2.470909 
L 408.598344 -2.470909 
L 407.74291 -2.470909 
L 406.887475 -2.470909 
L 406.03204 -2.470909 
L 405.176606 -2.470909 
L 404.321171 -2.470909 
L 403.465737 -2.470909 
L 402.610302 -2.470909 
L 401.754867 -2.470909 
L 400.899433 -2.470909 
L 400.043998 -2.470909 
L 399.188564 -2.470909 
L 398.333129 -2.470909 
L 397.477694 -2.470909 
L 396.62226 -2.470909 
L 395.766825 -2.470909 
L 394.91139 -2.470909 
L 394.055956 -2.470909 
L 393.200521 -2.470909 
L 392.345087 -2.470909 
L 391.489652 -2.470909 
L 390.634217 -2.470909 
L 389.778783 -2.470909 
L 388.923348 -2.470909 
L 388.067914 -2.470909 
L 387.212479 -2.470909 
L 386.357044 -2.470909 
L 385.50161 -2.470909 
L 384.646175 -2.470909 
L 383.79074 -2.470909 
L 382.935306 -2.470909 
L 382.079871 -2.470909 
L 381.224437 -2.470909 
L 380.369002 -2.470909 
L 379.513567 -2.470909 
L 378.658133 -2.470909 
L 377.802698 -2.470909 
L 376.947264 -2.470909 
L 376.091829 -2.470909 
L 375.236394 -2.470909 
L 374.38096 -2.470909 
L 373.525525 -2.470909 
L 372.67009 -2.470909 
L 371.814656 -2.470909 
L 370.959221 -2.470909 
L 370.103787 -2.470909 
L 369.248352 -2.470909 
L 368.392917 -2.470909 
L 367.537483 -2.470909 
L 366.682048 -2.470909 
L 365.826614 -2.470909 
L 364.971179 -2.470909 
L 364.115744 -2.470909 
L 363.26031 -2.470909 
L 362.404875 -2.470909 
L 361.54944 -2.470909 
L 360.694006 -2.470909 
L 359.838571 -2.470909 
L 358.983137 -2.470909 
L 358.127702 -2.470909 
L 357.272267 -2.470909 
L 356.416833 -2.470909 
L 355.561398 -2.470909 
L 354.705964 -2.470909 
L 353.850529 -2.470909 
L 352.995094 -2.470909 
L 352.13966 -2.470909 
L 351.284225 -2.470909 
L 350.42879 -2.470909 
L 349.573356 -2.470909 
L 348.717921 -2.470909 
L 347.862487 -2.470909 
L 347.007052 -2.470909 
L 346.151617 -2.470909 
L 345.296183 -2.470909 
L 344.440748 -2.470909 
L 343.585314 -2.470909 
L 342.729879 -2.470909 
L 341.874444 -2.470909 
L 341.01901 -2.470909 
L 340.163575 -2.470909 
L 339.30814 -2.470909 
L 338.452706 -2.470909 
z
" style="stroke: #116dc2; stroke-opacity: 0.2"/>
    </defs>
    <g clip-path="url(#p9c4225c0a5)">
     <use xlink:href="#m863b136501" x="0" y="54.36" style="fill: #116dc2; fill-opacity: 0.2; stroke: #116dc2; stroke-opacity: 0.2"/>
    </g>
   </g>
   <g id="PolyCollection_3">
    <defs>
     <path id="mb9a1acfe85" d="M 25.363636 -2.470909 
L 25.363636 -4.41976 
L 26.219071 -4.859763 
L 27.074506 -5.320956 
L 27.92994 -5.78625 
L 28.785375 -6.303715 
L 29.640809 -6.983953 
L 30.496244 -7.923161 
L 31.351679 -9.115541 
L 32.207113 -10.445717 
L 33.062548 -11.789609 
L 33.917983 -13.143514 
L 34.773417 -14.642242 
L 35.628852 -16.426503 
L 36.484286 -18.499234 
L 37.339721 -20.720563 
L 38.195156 -22.92369 
L 39.05059 -25.039732 
L 39.906025 -27.143532 
L 40.761459 -29.374792 
L 41.616894 -31.789719 
L 42.472329 -34.294058 
L 43.327763 -36.721759 
L 44.183198 -38.953615 
L 45.038633 -40.956088 
L 45.894067 -42.750067 
L 46.749502 -44.386893 
L 47.604936 -45.935151 
L 48.460371 -47.427466 
L 49.315806 -48.801878 
L 50.17124 -49.939663 
L 51.026675 -50.785061 
L 51.882109 -51.385973 
L 52.737544 -51.780911 
L 53.592979 -51.889091 
L 54.448413 -51.570045 
L 55.303848 -50.775539 
L 56.159283 -49.609615 
L 57.014717 -48.262646 
L 57.870152 -46.904009 
L 58.725586 -45.591846 
L 59.581021 -44.231018 
L 60.436456 -42.621796 
L 61.29189 -40.599132 
L 62.147325 -38.162631 
L 63.002759 -35.47518 
L 63.858194 -32.729941 
L 64.713629 -30.026396 
L 65.569063 -27.378354 
L 66.424498 -24.811196 
L 67.279933 -22.415845 
L 68.135367 -20.308235 
L 68.990802 -18.542146 
L 69.846236 -17.048996 
L 70.701671 -15.667545 
L 71.557106 -14.264174 
L 72.41254 -12.83982 
L 73.267975 -11.510873 
L 74.123409 -10.384643 
L 74.978844 -9.453732 
L 75.834279 -8.603238 
L 76.689713 -7.725525 
L 77.545148 -6.829045 
L 78.400583 -6.017043 
L 79.256017 -5.368345 
L 80.111452 -4.872839 
L 80.966886 -4.477633 
L 80.966886 -2.470909 
L 80.966886 -2.470909 
L 80.111452 -2.470909 
L 79.256017 -2.470909 
L 78.400583 -2.470909 
L 77.545148 -2.470909 
L 76.689713 -2.470909 
L 75.834279 -2.470909 
L 74.978844 -2.470909 
L 74.123409 -2.470909 
L 73.267975 -2.470909 
L 72.41254 -2.470909 
L 71.557106 -2.470909 
L 70.701671 -2.470909 
L 69.846236 -2.470909 
L 68.990802 -2.470909 
L 68.135367 -2.470909 
L 67.279933 -2.470909 
L 66.424498 -2.470909 
L 65.569063 -2.470909 
L 64.713629 -2.470909 
L 63.858194 -2.470909 
L 63.002759 -2.470909 
L 62.147325 -2.470909 
L 61.29189 -2.470909 
L 60.436456 -2.470909 
L 59.581021 -2.470909 
L 58.725586 -2.470909 
L 57.870152 -2.470909 
L 57.014717 -2.470909 
L 56.159283 -2.470909 
L 55.303848 -2.470909 
L 54.448413 -2.470909 
L 53.592979 -2.470909 
L 52.737544 -2.470909 
L 51.882109 -2.470909 
L 51.026675 -2.470909 
L 50.17124 -2.470909 
L 49.315806 -2.470909 
L 48.460371 -2.470909 
L 47.604936 -2.470909 
L 46.749502 -2.470909 
L 45.894067 -2.470909 
L 45.038633 -2.470909 
L 44.183198 -2.470909 
L 43.327763 -2.470909 
L 42.472329 -2.470909 
L 41.616894 -2.470909 
L 40.761459 -2.470909 
L 39.906025 -2.470909 
L 39.05059 -2.470909 
L 38.195156 -2.470909 
L 37.339721 -2.470909 
L 36.484286 -2.470909 
L 35.628852 -2.470909 
L 34.773417 -2.470909 
L 33.917983 -2.470909 
L 33.062548 -2.470909 
L 32.207113 -2.470909 
L 31.351679 -2.470909 
L 30.496244 -2.470909 
L 29.640809 -2.470909 
L 28.785375 -2.470909 
L 27.92994 -2.470909 
L 27.074506 -2.470909 
L 26.219071 -2.470909 
L 25.363636 -2.470909 
z
" style="stroke: #8a8a8a; stroke-opacity: 0.2"/>
    </defs>
    <g clip-path="url(#p9c4225c0a5)">
     <use xlink:href="#mb9a1acfe85" x="0" y="54.36" style="fill: #8a8a8a; fill-opacity: 0.2; stroke: #8a8a8a; stroke-opacity: 0.2"/>
    </g>
   </g>
   <g id="line2d_1">
    <path d="M 236.655987 50.159906 
L 240.93316 49.401948 
L 250.34294 47.40739 
L 252.909244 46.646217 
L 255.475548 45.656385 
L 266.596198 40.879079 
L 269.162502 39.41771 
L 272.58424 37.143609 
L 276.861413 34.023656 
L 279.427717 31.869029 
L 281.994021 29.367355 
L 286.271194 24.704362 
L 290.548367 20.069359 
L 293.114671 17.610447 
L 294.82554 16.245336 
L 296.53641 15.144632 
L 298.247279 14.293283 
L 299.958148 13.64233 
L 302.524452 12.924752 
L 305.94619 12.268662 
L 309.367929 11.86193 
L 312.789667 11.72021 
L 317.06684 11.836616 
L 319.633144 12.102822 
L 321.344013 12.456798 
L 323.054883 13.005116 
L 324.765752 13.757035 
L 327.332056 15.198062 
L 330.753794 17.444022 
L 335.030967 20.498169 
L 343.585314 26.862253 
L 347.007052 28.978598 
L 351.284225 31.525693 
L 353.850529 33.31891 
L 357.272267 36.07585 
L 361.54944 39.542501 
L 364.115744 41.351387 
L 366.682048 42.886857 
L 369.248352 44.166545 
L 372.67009 45.558722 
L 376.947264 46.976127 
L 381.224437 48.162545 
L 386.357044 49.344806 
L 390.634217 50.151226 
L 390.634217 50.151226 
" clip-path="url(#p9c4225c0a5)" style="fill: none; stroke: #cf1313; stroke-width: 1.5; stroke-linecap: square"/>
   </g>
   <g id="line2d_2">
    <path d="M 338.452706 50.564525 
L 343.585314 49.850312 
L 352.995094 48.239343 
L 359.838571 46.88452 
L 364.115744 45.815568 
L 367.537483 44.749284 
L 370.959221 43.438545 
L 375.236394 41.516646 
L 388.067914 35.391858 
L 392.345087 32.917188 
L 395.766825 30.707276 
L 400.043998 27.660633 
L 404.321171 24.613795 
L 407.74291 22.466542 
L 411.164648 20.611026 
L 414.586387 18.989393 
L 418.008125 17.622788 
L 422.285298 16.224423 
L 430.839644 13.671502 
L 433.405948 13.255067 
L 435.116817 13.187544 
L 436.827687 13.304165 
L 438.538556 13.595501 
L 441.10486 14.300848 
L 444.526598 15.546625 
L 449.659206 17.447931 
L 453.080944 18.441532 
L 457.358117 19.610183 
L 459.924421 20.581125 
L 462.490725 21.879538 
L 465.912464 23.978145 
L 471.045071 27.163234 
L 477.888548 31.019539 
L 484.732025 34.968292 
L 492.430937 39.47275 
L 495.852675 41.12241 
L 500.129848 42.851533 
L 506.973325 45.328359 
L 511.250498 46.654204 
L 516.383106 47.983086 
L 521.515714 49.038171 
L 526.648321 49.846835 
L 531.780929 50.423344 
L 532.636364 50.497465 
L 532.636364 50.497465 
" clip-path="url(#p9c4225c0a5)" style="fill: none; stroke: #116dc2; stroke-width: 1.5; stroke-linecap: square"/>
   </g>
   <g id="line2d_3">
    <path d="M 25.363636 49.94024 
L 26.219071 49.500237 
L 27.074506 49.039044 
L 27.92994 48.57375 
L 28.785375 48.056285 
L 29.640809 47.376047 
L 30.496244 46.436839 
L 31.351679 45.244459 
L 32.207113 43.914283 
L 33.062548 42.570391 
L 33.917983 41.216486 
L 34.773417 39.717758 
L 35.628852 37.933497 
L 36.484286 35.860766 
L 37.339721 33.639437 
L 38.195156 31.43631 
L 39.05059 29.320268 
L 39.906025 27.216468 
L 40.761459 24.985208 
L 41.616894 22.570281 
L 42.472329 20.065942 
L 43.327763 17.638241 
L 44.183198 15.406385 
L 45.038633 13.403912 
L 45.894067 11.609933 
L 46.749502 9.973107 
L 47.604936 8.424849 
L 48.460371 6.932534 
L 49.315806 5.558122 
L 50.17124 4.420337 
L 51.026675 3.574939 
L 51.882109 2.974027 
L 52.737544 2.579089 
L 53.592979 2.470909 
L 54.448413 2.789955 
L 55.303848 3.584461 
L 56.159283 4.750385 
L 57.014717 6.097354 
L 57.870152 7.455991 
L 58.725586 8.768154 
L 59.581021 10.128982 
L 60.436456 11.738204 
L 61.29189 13.760868 
L 62.147325 16.197369 
L 63.002759 18.88482 
L 63.858194 21.630059 
L 64.713629 24.333604 
L 65.569063 26.981646 
L 66.424498 29.548804 
L 67.279933 31.944155 
L 68.135367 34.051765 
L 68.990802 35.817854 
L 69.846236 37.311004 
L 70.701671 38.692455 
L 71.557106 40.095826 
L 72.41254 41.52018 
L 73.267975 42.849127 
L 74.123409 43.975357 
L 74.978844 44.906268 
L 75.834279 45.756762 
L 76.689713 46.634475 
L 77.545148 47.530955 
L 78.400583 48.342957 
L 79.256017 48.991655 
L 80.111452 49.487161 
L 80.966886 49.882367 
" clip-path="url(#p9c4225c0a5)" style="fill: none; stroke: #8a8a8a; stroke-width: 1.5; stroke-linecap: square"/>
   </g>
  </g>
 </g>
 <defs>
  <clipPath id="p9c4225c0a5">
   <rect x="0" y="-0" width="558" height="54.36"/>
  </clipPath>
 </defs>
</svg>
