<?xml version="1.0" encoding="utf-8" standalone="no"?>
<!DOCTYPE svg PUBLIC "-//W3C//DTD SVG 1.1//EN"
  "http://www.w3.org/Graphics/SVG/1.1/DTD/svg11.dtd">
<svg xmlns:xlink="http://www.w3.org/1999/xlink" width="558pt" height="54.36pt" viewBox="0 0 558 54.36" xmlns="http://www.w3.org/2000/svg" version="1.1">
 <metadata>
  <rdf:RDF xmlns:dc="http://purl.org/dc/elements/1.1/" xmlns:cc="http://creativecommons.org/ns#" xmlns:rdf="http://www.w3.org/1999/02/22-rdf-syntax-ns#">
   <cc:Work>
    <dc:type rdf:resource="http://purl.org/dc/dcmitype/StillImage"/>
    <dc:date>2024-09-14T12:47:12.659468</dc:date>
    <dc:format>image/svg+xml</dc:format>
    <dc:creator>
     <cc:Agent>
      <dc:title>Matplotlib v3.5.2, https://matplotlib.org/</dc:title>
     </cc:Agent>
    </dc:creator>
   </cc:Work>
  </rdf:RDF>
 </metadata>
 <defs>
  <style type="text/css">*{stroke-linejoin: round; stroke-linecap: butt}</style>
 </defs>
 <g id="figure_1">
  <g id="patch_1">
   <path d="M 0 54.36 
L 558 54.36 
L 558 0 
L 0 0 
L 0 54.36 
z
" style="fill: none; opacity: 0"/>
  </g>
  <g id="axes_1">
   <g id="PolyCollection_1">
    <defs>
     <path id="m7685814a01" d="M 396.137405 -2.470909 
L 396.137405 -3.932069 
L 397.105482 -4.062441 
L 398.07356 -4.210038 
L 399.041638 -4.377868 
L 400.009715 -4.568521 
L 400.977793 -4.783851 
L 401.945871 -5.024841 
L 402.913949 -5.291693 
L 403.882026 -5.584064 
L 404.850104 -5.901398 
L 405.818182 -6.243235 
L 406.78626 -6.609406 
L 407.754337 -7.00005 
L 408.722415 -7.415409 
L 409.690493 -7.855397 
L 410.65857 -8.319034 
L 411.626648 -8.803921 
L 412.594726 -9.305981 
L 413.562804 -9.819674 
L 414.530881 -10.33875 
L 415.498959 -10.857424 
L 416.467037 -11.371664 
L 417.435115 -11.88024 
L 418.403192 -12.385255 
L 419.37127 -12.892066 
L 420.339348 -13.408691 
L 421.307425 -13.944875 
L 422.275503 -14.510963 
L 423.243581 -15.116683 
L 424.211659 -15.769857 
L 425.179736 -16.475156 
L 426.147814 -17.233111 
L 427.115892 -18.039693 
L 428.083969 -18.886718 
L 429.052047 -19.763102 
L 430.020125 -20.656669 
L 430.988203 -21.555961 
L 431.95628 -22.451502 
L 432.924358 -23.336255 
L 433.892436 -24.205422 
L 434.860514 -25.056073 
L 435.828591 -25.887028 
L 436.796669 -26.699084 
L 437.764747 -27.495217 
L 438.732824 -28.280186 
L 439.700902 -29.059224 
L 440.66898 -29.836115 
L 441.637058 -30.611509 
L 442.605135 -31.382458 
L 443.573213 -32.143655 
L 444.541291 -32.889984 
L 445.509368 -33.61922 
L 446.477446 -34.333516 
L 447.445524 -35.038805 
L 448.413602 -35.74221 
L 449.381679 -36.448452 
L 450.349757 -37.15665 
L 451.317835 -37.8587 
L 452.285913 -38.539677 
L 453.25399 -39.179977 
L 454.222068 -39.758415 
L 455.190146 -40.255415 
L 456.158223 -40.655687 
L 457.126301 -40.950074 
L 458.094379 -41.136468 
L 459.062457 -41.21979 
L 460.030534 -41.211054 
L 460.998612 -41.125602 
L 461.96669 -40.98072 
L 462.934768 -40.79298 
L 463.902845 -40.575743 
L 464.870923 -40.337307 
L 465.839001 -40.080079 
L 466.807078 -39.801058 
L 467.775156 -39.493594 
L 468.743234 -39.150063 
L 469.711312 -38.764708 
L 470.679389 -38.335737 
L 471.647467 -37.865842 
L 472.615545 -37.360857 
L 473.583622 -36.82696 
L 474.5517 -36.267466 
L 475.519778 -35.680564 
L 476.487856 -35.059041 
L 477.455933 -34.392374 
L 478.424011 -33.67063 
L 479.392089 -32.888902 
L 480.360167 -32.050695 
L 481.328244 -31.168936 
L 482.296322 -30.26405 
L 483.2644 -29.359542 
L 484.232477 -28.476441 
L 485.200555 -27.628403 
L 486.168633 -26.819077 
L 487.136711 -26.042511 
L 488.104788 -25.286317 
L 489.072866 -24.536348 
L 490.040944 -23.781206 
L 491.009022 -23.015116 
L 491.977099 -22.238378 
L 492.945177 -21.455595 
L 493.913255 -20.672654 
L 494.881332 -19.893796 
L 495.84941 -19.119954 
L 496.817488 -18.348886 
L 497.785566 -17.576847 
L 498.753643 -16.800928 
L 499.721721 -16.021021 
L 500.689799 -15.24066 
L 501.657876 -14.466557 
L 502.625954 -13.707171 
L 503.594032 -12.970979 
L 504.56211 -12.265061 
L 505.530187 -11.594364 
L 506.498265 -10.961703 
L 507.466343 -10.368283 
L 508.434421 -9.814463 
L 509.402498 -9.300468 
L 510.370576 -8.826862 
L 511.338654 -8.394668 
L 512.306731 -8.005109 
L 513.274809 -7.658991 
L 514.242887 -7.355815 
L 515.210965 -7.092829 
L 516.179042 -6.864297 
L 517.14712 -6.661333 
L 518.115198 -6.472577 
L 519.083276 -6.285772 
L 520.051353 -6.089952 
L 521.019431 -5.877673 
L 521.987509 -5.646558 
L 522.955586 -5.399573 
L 523.923664 -5.143868 
L 524.891742 -4.888521 
L 525.85982 -4.64194 
L 526.827897 -4.409816 
L 526.827897 -2.470909 
L 526.827897 -2.470909 
L 525.85982 -2.470909 
L 524.891742 -2.470909 
L 523.923664 -2.470909 
L 522.955586 -2.470909 
L 521.987509 -2.470909 
L 521.019431 -2.470909 
L 520.051353 -2.470909 
L 519.083276 -2.470909 
L 518.115198 -2.470909 
L 517.14712 -2.470909 
L 516.179042 -2.470909 
L 515.210965 -2.470909 
L 514.242887 -2.470909 
L 513.274809 -2.470909 
L 512.306731 -2.470909 
L 511.338654 -2.470909 
L 510.370576 -2.470909 
L 509.402498 -2.470909 
L 508.434421 -2.470909 
L 507.466343 -2.470909 
L 506.498265 -2.470909 
L 505.530187 -2.470909 
L 504.56211 -2.470909 
L 503.594032 -2.470909 
L 502.625954 -2.470909 
L 501.657876 -2.470909 
L 500.689799 -2.470909 
L 499.721721 -2.470909 
L 498.753643 -2.470909 
L 497.785566 -2.470909 
L 496.817488 -2.470909 
L 495.84941 -2.470909 
L 494.881332 -2.470909 
L 493.913255 -2.470909 
L 492.945177 -2.470909 
L 491.977099 -2.470909 
L 491.009022 -2.470909 
L 490.040944 -2.470909 
L 489.072866 -2.470909 
L 488.104788 -2.470909 
L 487.136711 -2.470909 
L 486.168633 -2.470909 
L 485.200555 -2.470909 
L 484.232477 -2.470909 
L 483.2644 -2.470909 
L 482.296322 -2.470909 
L 481.328244 -2.470909 
L 480.360167 -2.470909 
L 479.392089 -2.470909 
L 478.424011 -2.470909 
L 477.455933 -2.470909 
L 476.487856 -2.470909 
L 475.519778 -2.470909 
L 474.5517 -2.470909 
L 473.583622 -2.470909 
L 472.615545 -2.470909 
L 471.647467 -2.470909 
L 470.679389 -2.470909 
L 469.711312 -2.470909 
L 468.743234 -2.470909 
L 467.775156 -2.470909 
L 466.807078 -2.470909 
L 465.839001 -2.470909 
L 464.870923 -2.470909 
L 463.902845 -2.470909 
L 462.934768 -2.470909 
L 461.96669 -2.470909 
L 460.998612 -2.470909 
L 460.030534 -2.470909 
L 459.062457 -2.470909 
L 458.094379 -2.470909 
L 457.126301 -2.470909 
L 456.158223 -2.470909 
L 455.190146 -2.470909 
L 454.222068 -2.470909 
L 453.25399 -2.470909 
L 452.285913 -2.470909 
L 451.317835 -2.470909 
L 450.349757 -2.470909 
L 449.381679 -2.470909 
L 448.413602 -2.470909 
L 447.445524 -2.470909 
L 446.477446 -2.470909 
L 445.509368 -2.470909 
L 444.541291 -2.470909 
L 443.573213 -2.470909 
L 442.605135 -2.470909 
L 441.637058 -2.470909 
L 440.66898 -2.470909 
L 439.700902 -2.470909 
L 438.732824 -2.470909 
L 437.764747 -2.470909 
L 436.796669 -2.470909 
L 435.828591 -2.470909 
L 434.860514 -2.470909 
L 433.892436 -2.470909 
L 432.924358 -2.470909 
L 431.95628 -2.470909 
L 430.988203 -2.470909 
L 430.020125 -2.470909 
L 429.052047 -2.470909 
L 428.083969 -2.470909 
L 427.115892 -2.470909 
L 426.147814 -2.470909 
L 425.179736 -2.470909 
L 424.211659 -2.470909 
L 423.243581 -2.470909 
L 422.275503 -2.470909 
L 421.307425 -2.470909 
L 420.339348 -2.470909 
L 419.37127 -2.470909 
L 418.403192 -2.470909 
L 417.435115 -2.470909 
L 416.467037 -2.470909 
L 415.498959 -2.470909 
L 414.530881 -2.470909 
L 413.562804 -2.470909 
L 412.594726 -2.470909 
L 411.626648 -2.470909 
L 410.65857 -2.470909 
L 409.690493 -2.470909 
L 408.722415 -2.470909 
L 407.754337 -2.470909 
L 406.78626 -2.470909 
L 405.818182 -2.470909 
L 404.850104 -2.470909 
L 403.882026 -2.470909 
L 402.913949 -2.470909 
L 401.945871 -2.470909 
L 400.977793 -2.470909 
L 400.009715 -2.470909 
L 399.041638 -2.470909 
L 398.07356 -2.470909 
L 397.105482 -2.470909 
L 396.137405 -2.470909 
z
" style="stroke: #cf1313; stroke-opacity: 0.2"/>
    </defs>
    <g clip-path="url(#p935a808797)">
     <use xlink:href="#m7685814a01" x="0" y="54.36" style="fill: #cf1313; fill-opacity: 0.2; stroke: #cf1313; stroke-opacity: 0.2"/>
    </g>
   </g>
   <g id="PolyCollection_2">
    <defs>
     <path id="m6270118109" d="M 398.07356 -2.470909 
L 398.07356 -4.199114 
L 399.041638 -4.327897 
L 400.009715 -4.461671 
L 400.977793 -4.602354 
L 401.945871 -4.75236 
L 402.913949 -4.914797 
L 403.882026 -5.093506 
L 404.850104 -5.292726 
L 405.818182 -5.516325 
L 406.78626 -5.766747 
L 407.754337 -6.04402 
L 408.722415 -6.345288 
L 409.690493 -6.665226 
L 410.65857 -6.997426 
L 411.626648 -7.336514 
L 412.594726 -7.680432 
L 413.562804 -8.032186 
L 414.530881 -8.40044 
L 415.498959 -8.798596 
L 416.467037 -9.242395 
L 417.435115 -9.746499 
L 418.403192 -10.320826 
L 419.37127 -10.967531 
L 420.339348 -11.679491 
L 421.307425 -12.440779 
L 422.275503 -13.229209 
L 423.243581 -14.020465 
L 424.211659 -14.792933 
L 425.179736 -15.532138 
L 426.147814 -16.233685 
L 427.115892 -16.903974 
L 428.083969 -17.558433 
L 429.052047 -18.217663 
L 430.020125 -18.902437 
L 430.988203 -19.628798 
L 431.95628 -20.404479 
L 432.924358 -21.227487 
L 433.892436 -22.087079 
L 434.860514 -22.96676 
L 435.828591 -23.848486 
L 436.796669 -24.717088 
L 437.764747 -25.563946 
L 438.732824 -26.389146 
L 439.700902 -27.201586 
L 440.66898 -28.016814 
L 441.637058 -28.852886 
L 442.605135 -29.725026 
L 443.573213 -30.640401 
L 444.541291 -31.594516 
L 445.509368 -32.570429 
L 446.477446 -33.5412 
L 447.445524 -34.474919 
L 448.413602 -35.34081 
L 449.381679 -36.114586 
L 450.349757 -36.781668 
L 451.317835 -37.337769 
L 452.285913 -37.78739 
L 453.25399 -38.141353 
L 454.222068 -38.414557 
L 455.190146 -38.624572 
L 456.158223 -38.790999 
L 457.126301 -38.934902 
L 458.094379 -39.077501 
L 459.062457 -39.237685 
L 460.030534 -39.428558 
L 460.998612 -39.653993 
L 461.96669 -39.906516 
L 462.934768 -40.167691 
L 463.902845 -40.411396 
L 464.870923 -40.609375 
L 465.839001 -40.737478 
L 466.807078 -40.780689 
L 467.775156 -40.735355 
L 468.743234 -40.608086 
L 469.711312 -40.411928 
L 470.679389 -40.161331 
L 471.647467 -39.867698 
L 472.615545 -39.536868 
L 473.583622 -39.169086 
L 474.5517 -38.761042 
L 475.519778 -38.308947 
L 476.487856 -37.8114 
L 477.455933 -37.271011 
L 478.424011 -36.694317 
L 479.392089 -36.090108 
L 480.360167 -35.466873 
L 481.328244 -34.83026 
L 482.296322 -34.18145 
L 483.2644 -33.516885 
L 484.232477 -32.829376 
L 485.200555 -32.110112 
L 486.168633 -31.350985 
L 487.136711 -30.546705 
L 488.104788 -29.696438 
L 489.072866 -28.804858 
L 490.040944 -27.882567 
L 491.009022 -26.945649 
L 491.977099 -26.014142 
L 492.945177 -25.109316 
L 493.913255 -24.250095 
L 494.881332 -23.449411 
L 495.84941 -22.711551 
L 496.817488 -22.031354 
L 497.785566 -21.395596 
L 498.753643 -20.786113 
L 499.721721 -20.18371 
L 500.689799 -19.57173 
L 501.657876 -18.938506 
L 502.625954 -18.278377 
L 503.594032 -17.591479 
L 504.56211 -16.882725 
L 505.530187 -16.160401 
L 506.498265 -15.434678 
L 507.466343 -14.716196 
L 508.434421 -14.014815 
L 509.402498 -13.338629 
L 510.370576 -12.693293 
L 511.338654 -12.081698 
L 512.306731 -11.503949 
L 513.274809 -10.957624 
L 514.242887 -10.438304 
L 515.210965 -9.940394 
L 516.179042 -9.45821 
L 517.14712 -8.987194 
L 518.115198 -8.524994 
L 519.083276 -8.072076 
L 520.051353 -7.631668 
L 521.019431 -7.208998 
L 521.987509 -6.810049 
L 522.955586 -6.440209 
L 523.923664 -6.103159 
L 524.891742 -5.800257 
L 525.85982 -5.530454 
L 526.827897 -5.290637 
L 527.795975 -5.076236 
L 528.764053 -4.881924 
L 529.73213 -4.702326 
L 530.700208 -4.532664 
L 531.668286 -4.369295 
L 532.636364 -4.210094 
L 532.636364 -2.470909 
L 532.636364 -2.470909 
L 531.668286 -2.470909 
L 530.700208 -2.470909 
L 529.73213 -2.470909 
L 528.764053 -2.470909 
L 527.795975 -2.470909 
L 526.827897 -2.470909 
L 525.85982 -2.470909 
L 524.891742 -2.470909 
L 523.923664 -2.470909 
L 522.955586 -2.470909 
L 521.987509 -2.470909 
L 521.019431 -2.470909 
L 520.051353 -2.470909 
L 519.083276 -2.470909 
L 518.115198 -2.470909 
L 517.14712 -2.470909 
L 516.179042 -2.470909 
L 515.210965 -2.470909 
L 514.242887 -2.470909 
L 513.274809 -2.470909 
L 512.306731 -2.470909 
L 511.338654 -2.470909 
L 510.370576 -2.470909 
L 509.402498 -2.470909 
L 508.434421 -2.470909 
L 507.466343 -2.470909 
L 506.498265 -2.470909 
L 505.530187 -2.470909 
L 504.56211 -2.470909 
L 503.594032 -2.470909 
L 502.625954 -2.470909 
L 501.657876 -2.470909 
L 500.689799 -2.470909 
L 499.721721 -2.470909 
L 498.753643 -2.470909 
L 497.785566 -2.470909 
L 496.817488 -2.470909 
L 495.84941 -2.470909 
L 494.881332 -2.470909 
L 493.913255 -2.470909 
L 492.945177 -2.470909 
L 491.977099 -2.470909 
L 491.009022 -2.470909 
L 490.040944 -2.470909 
L 489.072866 -2.470909 
L 488.104788 -2.470909 
L 487.136711 -2.470909 
L 486.168633 -2.470909 
L 485.200555 -2.470909 
L 484.232477 -2.470909 
L 483.2644 -2.470909 
L 482.296322 -2.470909 
L 481.328244 -2.470909 
L 480.360167 -2.470909 
L 479.392089 -2.470909 
L 478.424011 -2.470909 
L 477.455933 -2.470909 
L 476.487856 -2.470909 
L 475.519778 -2.470909 
L 474.5517 -2.470909 
L 473.583622 -2.470909 
L 472.615545 -2.470909 
L 471.647467 -2.470909 
L 470.679389 -2.470909 
L 469.711312 -2.470909 
L 468.743234 -2.470909 
L 467.775156 -2.470909 
L 466.807078 -2.470909 
L 465.839001 -2.470909 
L 464.870923 -2.470909 
L 463.902845 -2.470909 
L 462.934768 -2.470909 
L 461.96669 -2.470909 
L 460.998612 -2.470909 
L 460.030534 -2.470909 
L 459.062457 -2.470909 
L 458.094379 -2.470909 
L 457.126301 -2.470909 
L 456.158223 -2.470909 
L 455.190146 -2.470909 
L 454.222068 -2.470909 
L 453.25399 -2.470909 
L 452.285913 -2.470909 
L 451.317835 -2.470909 
L 450.349757 -2.470909 
L 449.381679 -2.470909 
L 448.413602 -2.470909 
L 447.445524 -2.470909 
L 446.477446 -2.470909 
L 445.509368 -2.470909 
L 444.541291 -2.470909 
L 443.573213 -2.470909 
L 442.605135 -2.470909 
L 441.637058 -2.470909 
L 440.66898 -2.470909 
L 439.700902 -2.470909 
L 438.732824 -2.470909 
L 437.764747 -2.470909 
L 436.796669 -2.470909 
L 435.828591 -2.470909 
L 434.860514 -2.470909 
L 433.892436 -2.470909 
L 432.924358 -2.470909 
L 431.95628 -2.470909 
L 430.988203 -2.470909 
L 430.020125 -2.470909 
L 429.052047 -2.470909 
L 428.083969 -2.470909 
L 427.115892 -2.470909 
L 426.147814 -2.470909 
L 425.179736 -2.470909 
L 424.211659 -2.470909 
L 423.243581 -2.470909 
L 422.275503 -2.470909 
L 421.307425 -2.470909 
L 420.339348 -2.470909 
L 419.37127 -2.470909 
L 418.403192 -2.470909 
L 417.435115 -2.470909 
L 416.467037 -2.470909 
L 415.498959 -2.470909 
L 414.530881 -2.470909 
L 413.562804 -2.470909 
L 412.594726 -2.470909 
L 411.626648 -2.470909 
L 410.65857 -2.470909 
L 409.690493 -2.470909 
L 408.722415 -2.470909 
L 407.754337 -2.470909 
L 406.78626 -2.470909 
L 405.818182 -2.470909 
L 404.850104 -2.470909 
L 403.882026 -2.470909 
L 402.913949 -2.470909 
L 401.945871 -2.470909 
L 400.977793 -2.470909 
L 400.009715 -2.470909 
L 399.041638 -2.470909 
L 398.07356 -2.470909 
z
" style="stroke: #116dc2; stroke-opacity: 0.2"/>
    </defs>
    <g clip-path="url(#p935a808797)">
     <use xlink:href="#m6270118109" x="0" y="54.36" style="fill: #116dc2; fill-opacity: 0.2; stroke: #116dc2; stroke-opacity: 0.2"/>
    </g>
   </g>
   <g id="PolyCollection_3">
    <defs>
     <path id="m5ca8dfa1bb" d="M 25.363636 -2.470909 
L 25.363636 -5.093972 
L 26.331714 -5.787409 
L 27.299792 -6.621055 
L 28.26787 -7.706466 
L 29.235947 -9.157209 
L 30.204025 -10.878787 
L 31.172103 -12.756615 
L 32.14018 -14.935222 
L 33.108258 -17.540298 
L 34.076336 -20.683185 
L 35.044414 -24.419747 
L 36.012491 -28.540353 
L 36.980569 -32.483481 
L 37.948647 -35.780435 
L 38.916724 -38.917008 
L 39.884802 -42.488705 
L 40.85288 -45.928797 
L 41.820958 -48.355456 
L 42.789035 -49.936045 
L 43.757113 -51.183003 
L 44.725191 -51.889091 
L 45.693269 -51.485521 
L 46.661346 -49.902685 
L 47.629424 -47.760008 
L 48.597502 -45.155206 
L 49.565579 -41.749671 
L 50.533657 -38.037517 
L 51.501735 -34.363937 
L 52.469813 -30.831657 
L 53.43789 -27.645209 
L 54.405968 -24.515434 
L 55.374046 -21.155318 
L 56.342124 -17.950971 
L 57.310201 -15.343939 
L 58.278279 -13.218103 
L 59.246357 -11.371456 
L 60.214434 -9.75674 
L 61.182512 -8.224791 
L 62.15059 -6.755722 
L 63.118668 -5.601837 
L 64.086745 -4.818403 
L 64.086745 -2.470909 
L 64.086745 -2.470909 
L 63.118668 -2.470909 
L 62.15059 -2.470909 
L 61.182512 -2.470909 
L 60.214434 -2.470909 
L 59.246357 -2.470909 
L 58.278279 -2.470909 
L 57.310201 -2.470909 
L 56.342124 -2.470909 
L 55.374046 -2.470909 
L 54.405968 -2.470909 
L 53.43789 -2.470909 
L 52.469813 -2.470909 
L 51.501735 -2.470909 
L 50.533657 -2.470909 
L 49.565579 -2.470909 
L 48.597502 -2.470909 
L 47.629424 -2.470909 
L 46.661346 -2.470909 
L 45.693269 -2.470909 
L 44.725191 -2.470909 
L 43.757113 -2.470909 
L 42.789035 -2.470909 
L 41.820958 -2.470909 
L 40.85288 -2.470909 
L 39.884802 -2.470909 
L 38.916724 -2.470909 
L 37.948647 -2.470909 
L 36.980569 -2.470909 
L 36.012491 -2.470909 
L 35.044414 -2.470909 
L 34.076336 -2.470909 
L 33.108258 -2.470909 
L 32.14018 -2.470909 
L 31.172103 -2.470909 
L 30.204025 -2.470909 
L 29.235947 -2.470909 
L 28.26787 -2.470909 
L 27.299792 -2.470909 
L 26.331714 -2.470909 
L 25.363636 -2.470909 
z
" style="stroke: #8a8a8a; stroke-opacity: 0.2"/>
    </defs>
    <g clip-path="url(#p935a808797)">
     <use xlink:href="#m5ca8dfa1bb" x="0" y="54.36" style="fill: #8a8a8a; fill-opacity: 0.2; stroke: #8a8a8a; stroke-opacity: 0.2"/>
    </g>
   </g>
   <g id="line2d_1">
    <path d="M 396.137405 50.427931 
L 399.041638 49.982132 
L 401.945871 49.335159 
L 404.850104 48.458602 
L 407.754337 47.35995 
L 410.65857 46.040966 
L 415.498959 43.502576 
L 422.275503 39.849037 
L 424.211659 38.590143 
L 426.147814 37.126889 
L 429.052047 34.596898 
L 435.828591 28.472972 
L 440.66898 24.523885 
L 445.509368 20.74078 
L 452.285913 15.820323 
L 454.222068 14.601585 
L 456.158223 13.704313 
L 458.094379 13.223532 
L 460.030534 13.148946 
L 461.96669 13.37928 
L 464.870923 14.022693 
L 467.775156 14.866406 
L 469.711312 15.595292 
L 472.615545 16.999143 
L 475.519778 18.679436 
L 477.455933 19.967626 
L 479.392089 21.471098 
L 482.296322 24.09595 
L 485.200555 26.731597 
L 488.104788 29.073683 
L 493.913255 33.687346 
L 503.594032 41.389021 
L 506.498265 43.398297 
L 509.402498 45.059532 
L 511.338654 45.965332 
L 513.274809 46.701009 
L 516.179042 47.495703 
L 523.923664 49.216132 
L 526.827897 49.950184 
L 526.827897 49.950184 
" clip-path="url(#p935a808797)" style="fill: none; stroke: #cf1313; stroke-width: 1.5; stroke-linecap: square"/>
   </g>
   <g id="line2d_2">
    <path d="M 398.07356 50.160886 
L 402.913949 49.445203 
L 405.818182 48.843675 
L 408.722415 48.014712 
L 413.562804 46.327814 
L 416.467037 45.117605 
L 418.403192 44.039174 
L 420.339348 42.680509 
L 427.115892 37.456026 
L 430.988203 34.731202 
L 433.892436 32.272921 
L 438.732824 27.970854 
L 442.605135 24.634974 
L 445.509368 21.789571 
L 448.413602 19.01919 
L 450.349757 17.578332 
L 452.285913 16.57261 
L 454.222068 15.945443 
L 457.126301 15.425098 
L 460.030534 14.931442 
L 465.839001 13.622522 
L 467.775156 13.624645 
L 469.711312 13.948072 
L 471.647467 14.492302 
L 474.5517 15.598958 
L 476.487856 16.5486 
L 479.392089 18.269892 
L 483.2644 20.843115 
L 486.168633 23.009015 
L 489.072866 25.555142 
L 493.913255 30.109905 
L 495.84941 31.648449 
L 498.753643 33.573887 
L 502.625954 36.081623 
L 507.466343 39.643804 
L 510.370576 41.666707 
L 513.274809 43.402376 
L 517.14712 45.372806 
L 521.019431 47.151002 
L 523.923664 48.256841 
L 526.827897 49.069363 
L 530.700208 49.827336 
L 532.636364 50.149906 
L 532.636364 50.149906 
" clip-path="url(#p935a808797)" style="fill: none; stroke: #116dc2; stroke-width: 1.5; stroke-linecap: square"/>
   </g>
   <g id="line2d_3">
    <path d="M 25.363636 49.266028 
L 26.331714 48.572591 
L 27.299792 47.738945 
L 28.26787 46.653534 
L 29.235947 45.202791 
L 30.204025 43.481213 
L 31.172103 41.603385 
L 32.14018 39.424778 
L 33.108258 36.819702 
L 34.076336 33.676815 
L 35.044414 29.940253 
L 36.012491 25.819647 
L 36.980569 21.876519 
L 37.948647 18.579565 
L 38.916724 15.442992 
L 39.884802 11.871295 
L 40.85288 8.431203 
L 41.820958 6.004544 
L 42.789035 4.423955 
L 43.757113 3.176997 
L 44.725191 2.470909 
L 45.693269 2.874479 
L 46.661346 4.457315 
L 47.629424 6.599992 
L 48.597502 9.204794 
L 49.565579 12.610329 
L 50.533657 16.322483 
L 51.501735 19.996063 
L 52.469813 23.528343 
L 53.43789 26.714791 
L 54.405968 29.844566 
L 55.374046 33.204682 
L 56.342124 36.409029 
L 57.310201 39.016061 
L 58.278279 41.141897 
L 59.246357 42.988544 
L 60.214434 44.60326 
L 61.182512 46.135209 
L 62.15059 47.604278 
L 63.118668 48.758163 
L 64.086745 49.541597 
" clip-path="url(#p935a808797)" style="fill: none; stroke: #8a8a8a; stroke-width: 1.5; stroke-linecap: square"/>
   </g>
  </g>
 </g>
 <defs>
  <clipPath id="p935a808797">
   <rect x="0" y="-0" width="558" height="54.36"/>
  </clipPath>
 </defs>
</svg>
