<?xml version="1.0" encoding="utf-8" standalone="no"?>
<!DOCTYPE svg PUBLIC "-//W3C//DTD SVG 1.1//EN"
  "http://www.w3.org/Graphics/SVG/1.1/DTD/svg11.dtd">
<svg xmlns:xlink="http://www.w3.org/1999/xlink" width="558pt" height="54.36pt" viewBox="0 0 558 54.36" xmlns="http://www.w3.org/2000/svg" version="1.1">
 <metadata>
  <rdf:RDF xmlns:dc="http://purl.org/dc/elements/1.1/" xmlns:cc="http://creativecommons.org/ns#" xmlns:rdf="http://www.w3.org/1999/02/22-rdf-syntax-ns#">
   <cc:Work>
    <dc:type rdf:resource="http://purl.org/dc/dcmitype/StillImage"/>
    <dc:date>2024-09-15T09:31:18.486125</dc:date>
    <dc:format>image/svg+xml</dc:format>
    <dc:creator>
     <cc:Agent>
      <dc:title>Matplotlib v3.5.2, https://matplotlib.org/</dc:title>
     </cc:Agent>
    </dc:creator>
   </cc:Work>
  </rdf:RDF>
 </metadata>
 <defs>
  <style type="text/css">*{stroke-linejoin: round; stroke-linecap: butt}</style>
 </defs>
 <g id="figure_1">
  <g id="patch_1">
   <path d="M 0 54.36 
L 558 54.36 
L 558 0 
L 0 0 
L 0 54.36 
z
" style="fill: none; opacity: 0"/>
  </g>
  <g id="axes_1">
   <g id="PolyCollection_1">
    <defs>
     <path id="m3b5fc5e55d" d="M 399.041638 -2.470909 
L 399.041638 -4.383283 
L 400.009715 -4.533173 
L 400.977793 -4.687209 
L 401.945871 -4.854531 
L 402.913949 -5.045426 
L 403.882026 -5.26872 
L 404.850104 -5.529483 
L 405.818182 -5.827921 
L 406.78626 -6.159933 
L 407.754337 -6.519189 
L 408.722415 -6.899972 
L 409.690493 -7.299667 
L 410.65857 -7.719916 
L 411.626648 -8.165962 
L 412.594726 -8.644442 
L 413.562804 -9.160496 
L 414.530881 -9.715341 
L 415.498959 -10.305218 
L 416.467037 -10.92207 
L 417.435115 -11.555646 
L 418.403192 -12.196252 
L 419.37127 -12.837277 
L 420.339348 -13.476803 
L 421.307425 -14.118038 
L 422.275503 -14.768635 
L 423.243581 -15.439186 
L 424.211659 -16.141181 
L 425.179736 -16.884708 
L 426.147814 -17.676169 
L 427.115892 -18.516416 
L 428.083969 -19.399785 
L 429.052047 -20.314462 
L 430.020125 -21.244379 
L 430.988203 -22.17236 
L 431.95628 -23.083816 
L 432.924358 -23.969948 
L 433.892436 -24.82946 
L 434.860514 -25.668172 
L 435.828591 -26.496634 
L 436.796669 -27.326542 
L 437.764747 -28.167163 
L 438.732824 -29.022875 
L 439.700902 -29.892416 
L 440.66898 -30.769714 
L 441.637058 -31.645766 
L 442.605135 -32.510881 
L 443.573213 -33.356748 
L 444.541291 -34.177917 
L 445.509368 -34.972356 
L 446.477446 -35.74083 
L 447.445524 -36.485161 
L 448.413602 -37.205843 
L 449.381679 -37.899889 
L 450.349757 -38.559829 
L 451.317835 -39.174318 
L 452.285913 -39.730149 
L 453.25399 -40.214809 
L 454.222068 -40.618533 
L 455.190146 -40.935117 
L 456.158223 -41.161415 
L 457.126301 -41.29615 
L 458.094379 -41.339021 
L 459.062457 -41.290964 
L 460.030534 -41.155805 
L 460.998612 -40.942724 
L 461.96669 -40.668246 
L 462.934768 -40.356375 
L 463.902845 -40.035918 
L 464.870923 -39.735129 
L 465.839001 -39.474943 
L 466.807078 -39.262932 
L 467.775156 -39.090232 
L 468.743234 -38.932932 
L 469.711312 -38.757977 
L 470.679389 -38.531964 
L 471.647467 -38.230022 
L 472.615545 -37.84175 
L 473.583622 -37.372225 
L 474.5517 -36.837896 
L 475.519778 -36.259063 
L 476.487856 -35.651815 
L 477.455933 -35.022271 
L 478.424011 -34.364929 
L 479.392089 -33.665346 
L 480.360167 -32.905921 
L 481.328244 -32.07268 
L 482.296322 -31.160855 
L 483.2644 -30.177575 
L 484.232477 -29.14102 
L 485.200555 -28.076549 
L 486.168633 -27.011217 
L 487.136711 -25.968505 
L 488.104788 -24.96478 
L 489.072866 -24.008195 
L 490.040944 -23.099802 
L 491.009022 -22.235917 
L 491.977099 -21.410642 
L 492.945177 -20.61771 
L 493.913255 -19.851363 
L 494.881332 -19.106501 
L 495.84941 -18.378537 
L 496.817488 -17.663331 
L 497.785566 -16.957326 
L 498.753643 -16.257705 
L 499.721721 -15.562335 
L 500.689799 -14.869408 
L 501.657876 -14.176956 
L 502.625954 -13.482705 
L 503.594032 -12.784673 
L 504.56211 -12.082599 
L 505.530187 -11.379802 
L 506.498265 -10.684631 
L 507.466343 -10.010638 
L 508.434421 -9.374991 
L 509.402498 -8.7953 
L 510.370576 -8.285722 
L 511.338654 -7.853513 
L 512.306731 -7.497108 
L 513.274809 -7.206315 
L 514.242887 -6.964529 
L 515.210965 -6.752316 
L 516.179042 -6.551328 
L 517.14712 -6.347515 
L 518.115198 -6.132875 
L 519.083276 -5.90548 
L 520.051353 -5.668053 
L 521.019431 -5.425766 
L 521.987509 -5.184063 
L 522.955586 -4.94717 
L 523.923664 -4.717586 
L 524.891742 -4.496451 
L 524.891742 -2.470909 
L 524.891742 -2.470909 
L 523.923664 -2.470909 
L 522.955586 -2.470909 
L 521.987509 -2.470909 
L 521.019431 -2.470909 
L 520.051353 -2.470909 
L 519.083276 -2.470909 
L 518.115198 -2.470909 
L 517.14712 -2.470909 
L 516.179042 -2.470909 
L 515.210965 -2.470909 
L 514.242887 -2.470909 
L 513.274809 -2.470909 
L 512.306731 -2.470909 
L 511.338654 -2.470909 
L 510.370576 -2.470909 
L 509.402498 -2.470909 
L 508.434421 -2.470909 
L 507.466343 -2.470909 
L 506.498265 -2.470909 
L 505.530187 -2.470909 
L 504.56211 -2.470909 
L 503.594032 -2.470909 
L 502.625954 -2.470909 
L 501.657876 -2.470909 
L 500.689799 -2.470909 
L 499.721721 -2.470909 
L 498.753643 -2.470909 
L 497.785566 -2.470909 
L 496.817488 -2.470909 
L 495.84941 -2.470909 
L 494.881332 -2.470909 
L 493.913255 -2.470909 
L 492.945177 -2.470909 
L 491.977099 -2.470909 
L 491.009022 -2.470909 
L 490.040944 -2.470909 
L 489.072866 -2.470909 
L 488.104788 -2.470909 
L 487.136711 -2.470909 
L 486.168633 -2.470909 
L 485.200555 -2.470909 
L 484.232477 -2.470909 
L 483.2644 -2.470909 
L 482.296322 -2.470909 
L 481.328244 -2.470909 
L 480.360167 -2.470909 
L 479.392089 -2.470909 
L 478.424011 -2.470909 
L 477.455933 -2.470909 
L 476.487856 -2.470909 
L 475.519778 -2.470909 
L 474.5517 -2.470909 
L 473.583622 -2.470909 
L 472.615545 -2.470909 
L 471.647467 -2.470909 
L 470.679389 -2.470909 
L 469.711312 -2.470909 
L 468.743234 -2.470909 
L 467.775156 -2.470909 
L 466.807078 -2.470909 
L 465.839001 -2.470909 
L 464.870923 -2.470909 
L 463.902845 -2.470909 
L 462.934768 -2.470909 
L 461.96669 -2.470909 
L 460.998612 -2.470909 
L 460.030534 -2.470909 
L 459.062457 -2.470909 
L 458.094379 -2.470909 
L 457.126301 -2.470909 
L 456.158223 -2.470909 
L 455.190146 -2.470909 
L 454.222068 -2.470909 
L 453.25399 -2.470909 
L 452.285913 -2.470909 
L 451.317835 -2.470909 
L 450.349757 -2.470909 
L 449.381679 -2.470909 
L 448.413602 -2.470909 
L 447.445524 -2.470909 
L 446.477446 -2.470909 
L 445.509368 -2.470909 
L 444.541291 -2.470909 
L 443.573213 -2.470909 
L 442.605135 -2.470909 
L 441.637058 -2.470909 
L 440.66898 -2.470909 
L 439.700902 -2.470909 
L 438.732824 -2.470909 
L 437.764747 -2.470909 
L 436.796669 -2.470909 
L 435.828591 -2.470909 
L 434.860514 -2.470909 
L 433.892436 -2.470909 
L 432.924358 -2.470909 
L 431.95628 -2.470909 
L 430.988203 -2.470909 
L 430.020125 -2.470909 
L 429.052047 -2.470909 
L 428.083969 -2.470909 
L 427.115892 -2.470909 
L 426.147814 -2.470909 
L 425.179736 -2.470909 
L 424.211659 -2.470909 
L 423.243581 -2.470909 
L 422.275503 -2.470909 
L 421.307425 -2.470909 
L 420.339348 -2.470909 
L 419.37127 -2.470909 
L 418.403192 -2.470909 
L 417.435115 -2.470909 
L 416.467037 -2.470909 
L 415.498959 -2.470909 
L 414.530881 -2.470909 
L 413.562804 -2.470909 
L 412.594726 -2.470909 
L 411.626648 -2.470909 
L 410.65857 -2.470909 
L 409.690493 -2.470909 
L 408.722415 -2.470909 
L 407.754337 -2.470909 
L 406.78626 -2.470909 
L 405.818182 -2.470909 
L 404.850104 -2.470909 
L 403.882026 -2.470909 
L 402.913949 -2.470909 
L 401.945871 -2.470909 
L 400.977793 -2.470909 
L 400.009715 -2.470909 
L 399.041638 -2.470909 
z
" style="stroke: #cf1313; stroke-opacity: 0.2"/>
    </defs>
    <g clip-path="url(#pffc0c32450)">
     <use xlink:href="#m3b5fc5e55d" x="0" y="54.36" style="fill: #cf1313; fill-opacity: 0.2; stroke: #cf1313; stroke-opacity: 0.2"/>
    </g>
   </g>
   <g id="PolyCollection_2">
    <defs>
     <path id="md411fb4ca7" d="M 397.105482 -2.470909 
L 397.105482 -4.004156 
L 398.07356 -4.118164 
L 399.041638 -4.244002 
L 400.009715 -4.383371 
L 400.977793 -4.537083 
L 401.945871 -4.705201 
L 402.913949 -4.887404 
L 403.882026 -5.083437 
L 404.850104 -5.29348 
L 405.818182 -5.518309 
L 406.78626 -5.759206 
L 407.754337 -6.017691 
L 408.722415 -6.295223 
L 409.690493 -6.593042 
L 410.65857 -6.912204 
L 411.626648 -7.253793 
L 412.594726 -7.619154 
L 413.562804 -8.010026 
L 414.530881 -8.428472 
L 415.498959 -8.876613 
L 416.467037 -9.356218 
L 417.435115 -9.868221 
L 418.403192 -10.412248 
L 419.37127 -10.986269 
L 420.339348 -11.586494 
L 421.307425 -12.207677 
L 422.275503 -12.843888 
L 423.243581 -13.489693 
L 424.211659 -14.141523 
L 425.179736 -14.798856 
L 426.147814 -15.464822 
L 427.115892 -16.14594 
L 428.083969 -16.850897 
L 429.052047 -17.588533 
L 430.020125 -18.365431 
L 430.988203 -19.18362 
L 431.95628 -20.038963 
L 432.924358 -20.920679 
L 433.892436 -21.812314 
L 434.860514 -22.694204 
L 435.828591 -23.547158 
L 436.796669 -24.356667 
L 437.764747 -25.116628 
L 438.732824 -25.831425 
L 439.700902 -26.515482 
L 440.66898 -27.19 
L 441.637058 -27.877538 
L 442.605135 -28.595929 
L 443.573213 -29.353418 
L 444.541291 -30.146726 
L 445.509368 -30.962789 
L 446.477446 -31.783644 
L 447.445524 -32.592737 
L 448.413602 -33.380324 
L 449.381679 -34.145901 
L 450.349757 -34.896722 
L 451.317835 -35.642937 
L 452.285913 -36.391233 
L 453.25399 -37.139444 
L 454.222068 -37.874238 
L 455.190146 -38.572832 
L 456.158223 -39.208147 
L 457.126301 -39.755587 
L 458.094379 -40.199144 
L 459.062457 -40.5349 
L 460.030534 -40.771039 
L 460.998612 -40.924726 
L 461.96669 -41.017102 
L 462.934768 -41.06802 
L 463.902845 -41.09194 
L 464.870923 -41.0958 
L 465.839001 -41.079031 
L 466.807078 -41.035315 
L 467.775156 -40.955358 
L 468.743234 -40.829868 
L 469.711312 -40.652037 
L 470.679389 -40.419089 
L 471.647467 -40.132715 
L 472.615545 -39.798482 
L 473.583622 -39.42446 
L 474.5517 -39.01936 
L 475.519778 -38.590557 
L 476.487856 -38.142368 
L 477.455933 -37.675001 
L 478.424011 -37.184454 
L 479.392089 -36.663478 
L 480.360167 -36.103325 
L 481.328244 -35.495762 
L 482.296322 -34.834699 
L 483.2644 -34.116964 
L 484.232477 -33.342175 
L 485.200555 -32.512046 
L 486.168633 -31.629731 
L 487.136711 -30.699698 
L 488.104788 -29.728289 
L 489.072866 -28.72465 
L 490.040944 -27.701423 
L 491.009022 -26.674569 
L 491.977099 -25.661994 
L 492.945177 -24.681167 
L 493.913255 -23.746351 
L 494.881332 -22.866279 
L 495.84941 -22.042986 
L 496.817488 -21.272085 
L 497.785566 -20.544288 
L 498.753643 -19.847582 
L 499.721721 -19.169374 
L 500.689799 -18.49812 
L 501.657876 -17.824274 
L 502.625954 -17.140753 
L 503.594032 -16.443183 
L 504.56211 -15.730099 
L 505.530187 -15.003061 
L 506.498265 -14.266513 
L 507.466343 -13.527234 
L 508.434421 -12.793441 
L 509.402498 -12.073808 
L 510.370576 -11.376709 
L 511.338654 -10.70988 
L 512.306731 -10.080441 
L 513.274809 -9.494984 
L 514.242887 -8.959411 
L 515.210965 -8.478328 
L 516.179042 -8.054089 
L 517.14712 -7.685796 
L 518.115198 -7.368695 
L 519.083276 -7.094262 
L 520.051353 -6.851081 
L 521.019431 -6.626363 
L 521.987509 -6.40775 
L 522.955586 -6.185059 
L 523.923664 -5.951618 
L 524.891742 -5.705009 
L 525.85982 -5.447107 
L 526.827897 -5.183443 
L 527.795975 -4.922002 
L 528.764053 -4.671631 
L 529.73213 -4.440363 
L 530.700208 -4.233943 
L 531.668286 -4.054877 
L 532.636364 -3.902175 
L 532.636364 -2.470909 
L 532.636364 -2.470909 
L 531.668286 -2.470909 
L 530.700208 -2.470909 
L 529.73213 -2.470909 
L 528.764053 -2.470909 
L 527.795975 -2.470909 
L 526.827897 -2.470909 
L 525.85982 -2.470909 
L 524.891742 -2.470909 
L 523.923664 -2.470909 
L 522.955586 -2.470909 
L 521.987509 -2.470909 
L 521.019431 -2.470909 
L 520.051353 -2.470909 
L 519.083276 -2.470909 
L 518.115198 -2.470909 
L 517.14712 -2.470909 
L 516.179042 -2.470909 
L 515.210965 -2.470909 
L 514.242887 -2.470909 
L 513.274809 -2.470909 
L 512.306731 -2.470909 
L 511.338654 -2.470909 
L 510.370576 -2.470909 
L 509.402498 -2.470909 
L 508.434421 -2.470909 
L 507.466343 -2.470909 
L 506.498265 -2.470909 
L 505.530187 -2.470909 
L 504.56211 -2.470909 
L 503.594032 -2.470909 
L 502.625954 -2.470909 
L 501.657876 -2.470909 
L 500.689799 -2.470909 
L 499.721721 -2.470909 
L 498.753643 -2.470909 
L 497.785566 -2.470909 
L 496.817488 -2.470909 
L 495.84941 -2.470909 
L 494.881332 -2.470909 
L 493.913255 -2.470909 
L 492.945177 -2.470909 
L 491.977099 -2.470909 
L 491.009022 -2.470909 
L 490.040944 -2.470909 
L 489.072866 -2.470909 
L 488.104788 -2.470909 
L 487.136711 -2.470909 
L 486.168633 -2.470909 
L 485.200555 -2.470909 
L 484.232477 -2.470909 
L 483.2644 -2.470909 
L 482.296322 -2.470909 
L 481.328244 -2.470909 
L 480.360167 -2.470909 
L 479.392089 -2.470909 
L 478.424011 -2.470909 
L 477.455933 -2.470909 
L 476.487856 -2.470909 
L 475.519778 -2.470909 
L 474.5517 -2.470909 
L 473.583622 -2.470909 
L 472.615545 -2.470909 
L 471.647467 -2.470909 
L 470.679389 -2.470909 
L 469.711312 -2.470909 
L 468.743234 -2.470909 
L 467.775156 -2.470909 
L 466.807078 -2.470909 
L 465.839001 -2.470909 
L 464.870923 -2.470909 
L 463.902845 -2.470909 
L 462.934768 -2.470909 
L 461.96669 -2.470909 
L 460.998612 -2.470909 
L 460.030534 -2.470909 
L 459.062457 -2.470909 
L 458.094379 -2.470909 
L 457.126301 -2.470909 
L 456.158223 -2.470909 
L 455.190146 -2.470909 
L 454.222068 -2.470909 
L 453.25399 -2.470909 
L 452.285913 -2.470909 
L 451.317835 -2.470909 
L 450.349757 -2.470909 
L 449.381679 -2.470909 
L 448.413602 -2.470909 
L 447.445524 -2.470909 
L 446.477446 -2.470909 
L 445.509368 -2.470909 
L 444.541291 -2.470909 
L 443.573213 -2.470909 
L 442.605135 -2.470909 
L 441.637058 -2.470909 
L 440.66898 -2.470909 
L 439.700902 -2.470909 
L 438.732824 -2.470909 
L 437.764747 -2.470909 
L 436.796669 -2.470909 
L 435.828591 -2.470909 
L 434.860514 -2.470909 
L 433.892436 -2.470909 
L 432.924358 -2.470909 
L 431.95628 -2.470909 
L 430.988203 -2.470909 
L 430.020125 -2.470909 
L 429.052047 -2.470909 
L 428.083969 -2.470909 
L 427.115892 -2.470909 
L 426.147814 -2.470909 
L 425.179736 -2.470909 
L 424.211659 -2.470909 
L 423.243581 -2.470909 
L 422.275503 -2.470909 
L 421.307425 -2.470909 
L 420.339348 -2.470909 
L 419.37127 -2.470909 
L 418.403192 -2.470909 
L 417.435115 -2.470909 
L 416.467037 -2.470909 
L 415.498959 -2.470909 
L 414.530881 -2.470909 
L 413.562804 -2.470909 
L 412.594726 -2.470909 
L 411.626648 -2.470909 
L 410.65857 -2.470909 
L 409.690493 -2.470909 
L 408.722415 -2.470909 
L 407.754337 -2.470909 
L 406.78626 -2.470909 
L 405.818182 -2.470909 
L 404.850104 -2.470909 
L 403.882026 -2.470909 
L 402.913949 -2.470909 
L 401.945871 -2.470909 
L 400.977793 -2.470909 
L 400.009715 -2.470909 
L 399.041638 -2.470909 
L 398.07356 -2.470909 
L 397.105482 -2.470909 
z
" style="stroke: #116dc2; stroke-opacity: 0.2"/>
    </defs>
    <g clip-path="url(#pffc0c32450)">
     <use xlink:href="#md411fb4ca7" x="0" y="54.36" style="fill: #116dc2; fill-opacity: 0.2; stroke: #116dc2; stroke-opacity: 0.2"/>
    </g>
   </g>
   <g id="PolyCollection_3">
    <defs>
     <path id="me8ced208b6" d="M 25.363636 -2.470909 
L 25.363636 -4.780991 
L 26.331714 -5.449289 
L 27.299792 -6.436294 
L 28.26787 -8.062703 
L 29.235947 -10.161236 
L 30.204025 -12.341273 
L 31.172103 -14.406928 
L 32.14018 -16.733536 
L 33.108258 -19.897188 
L 34.076336 -23.638832 
L 35.044414 -27.240879 
L 36.012491 -30.627994 
L 36.980569 -34.416798 
L 37.948647 -38.529499 
L 38.916724 -41.782179 
L 39.884802 -43.785485 
L 40.85288 -45.692746 
L 41.820958 -47.961374 
L 42.789035 -49.928514 
L 43.757113 -51.419329 
L 44.725191 -51.889091 
L 45.693269 -50.467157 
L 46.661346 -47.862058 
L 47.629424 -45.708104 
L 48.597502 -44.08009 
L 49.565579 -41.848615 
L 50.533657 -38.658259 
L 51.501735 -34.736252 
L 52.469813 -30.672931 
L 53.43789 -27.401591 
L 54.405968 -24.751821 
L 55.374046 -21.882154 
L 56.342124 -18.732509 
L 57.310201 -15.708267 
L 58.278279 -13.0474 
L 59.246357 -10.769157 
L 60.214434 -8.773409 
L 61.182512 -7.032467 
L 62.15059 -5.700885 
L 63.118668 -4.841223 
L 64.086745 -4.297477 
L 64.086745 -2.470909 
L 64.086745 -2.470909 
L 63.118668 -2.470909 
L 62.15059 -2.470909 
L 61.182512 -2.470909 
L 60.214434 -2.470909 
L 59.246357 -2.470909 
L 58.278279 -2.470909 
L 57.310201 -2.470909 
L 56.342124 -2.470909 
L 55.374046 -2.470909 
L 54.405968 -2.470909 
L 53.43789 -2.470909 
L 52.469813 -2.470909 
L 51.501735 -2.470909 
L 50.533657 -2.470909 
L 49.565579 -2.470909 
L 48.597502 -2.470909 
L 47.629424 -2.470909 
L 46.661346 -2.470909 
L 45.693269 -2.470909 
L 44.725191 -2.470909 
L 43.757113 -2.470909 
L 42.789035 -2.470909 
L 41.820958 -2.470909 
L 40.85288 -2.470909 
L 39.884802 -2.470909 
L 38.916724 -2.470909 
L 37.948647 -2.470909 
L 36.980569 -2.470909 
L 36.012491 -2.470909 
L 35.044414 -2.470909 
L 34.076336 -2.470909 
L 33.108258 -2.470909 
L 32.14018 -2.470909 
L 31.172103 -2.470909 
L 30.204025 -2.470909 
L 29.235947 -2.470909 
L 28.26787 -2.470909 
L 27.299792 -2.470909 
L 26.331714 -2.470909 
L 25.363636 -2.470909 
z
" style="stroke: #8a8a8a; stroke-opacity: 0.2"/>
    </defs>
    <g clip-path="url(#pffc0c32450)">
     <use xlink:href="#me8ced208b6" x="0" y="54.36" style="fill: #8a8a8a; fill-opacity: 0.2; stroke: #8a8a8a; stroke-opacity: 0.2"/>
    </g>
   </g>
   <g id="line2d_1">
    <path d="M 399.041638 49.976717 
L 402.913949 49.314574 
L 405.818182 48.532079 
L 408.722415 47.460028 
L 411.626648 46.194038 
L 414.530881 44.644659 
L 418.403192 42.163748 
L 424.211659 38.218819 
L 426.147814 36.683831 
L 429.052047 34.045538 
L 433.892436 29.53054 
L 447.445524 17.874839 
L 450.349757 15.800171 
L 452.285913 14.629851 
L 454.222068 13.741467 
L 456.158223 13.198585 
L 458.094379 13.020979 
L 460.030534 13.204195 
L 461.96669 13.691754 
L 465.839001 14.885057 
L 468.743234 15.427068 
L 470.679389 15.828036 
L 472.615545 16.51825 
L 474.5517 17.522104 
L 477.455933 19.337729 
L 479.392089 20.694654 
L 481.328244 22.28732 
L 483.2644 24.182425 
L 489.072866 30.351805 
L 491.977099 32.949358 
L 495.84941 35.981463 
L 503.594032 41.575327 
L 508.434421 44.985009 
L 510.370576 46.074278 
L 512.306731 46.862892 
L 514.242887 47.395471 
L 522.955586 49.41283 
L 524.891742 49.863549 
L 524.891742 49.863549 
" clip-path="url(#pffc0c32450)" style="fill: none; stroke: #cf1313; stroke-width: 1.5; stroke-linecap: square"/>
   </g>
   <g id="line2d_2">
    <path d="M 397.105482 50.355844 
L 400.977793 49.822917 
L 404.850104 49.06652 
L 408.722415 48.064777 
L 411.626648 47.106207 
L 414.530881 45.931528 
L 417.435115 44.491779 
L 420.339348 42.773506 
L 425.179736 39.561144 
L 429.052047 36.771467 
L 431.95628 34.321037 
L 436.796669 30.003333 
L 439.700902 27.844518 
L 442.605135 25.764071 
L 445.509368 23.397211 
L 449.381679 20.214099 
L 455.190146 15.787168 
L 457.126301 14.604413 
L 459.062457 13.8251 
L 460.998612 13.435274 
L 463.902845 13.26806 
L 466.807078 13.324685 
L 468.743234 13.530132 
L 470.679389 13.940911 
L 472.615545 14.561518 
L 475.519778 15.769443 
L 478.424011 17.175546 
L 481.328244 18.864238 
L 483.2644 20.243036 
L 485.200555 21.847954 
L 488.104788 24.631711 
L 493.913255 30.613649 
L 495.84941 32.317014 
L 498.753643 34.512418 
L 505.530187 39.356939 
L 511.338654 43.65012 
L 513.274809 44.865016 
L 515.210965 45.881672 
L 517.14712 46.674204 
L 520.051353 47.508919 
L 526.827897 49.176557 
L 530.700208 50.126057 
L 532.636364 50.457825 
L 532.636364 50.457825 
" clip-path="url(#pffc0c32450)" style="fill: none; stroke: #116dc2; stroke-width: 1.5; stroke-linecap: square"/>
   </g>
   <g id="line2d_3">
    <path d="M 25.363636 49.579009 
L 26.331714 48.910711 
L 27.299792 47.923706 
L 28.26787 46.297297 
L 29.235947 44.198764 
L 30.204025 42.018727 
L 31.172103 39.953072 
L 32.14018 37.626464 
L 33.108258 34.462812 
L 34.076336 30.721168 
L 35.044414 27.119121 
L 36.012491 23.732006 
L 36.980569 19.943202 
L 37.948647 15.830501 
L 38.916724 12.577821 
L 39.884802 10.574515 
L 40.85288 8.667254 
L 41.820958 6.398626 
L 42.789035 4.431486 
L 43.757113 2.940671 
L 44.725191 2.470909 
L 45.693269 3.892843 
L 46.661346 6.497942 
L 47.629424 8.651896 
L 48.597502 10.27991 
L 49.565579 12.511385 
L 50.533657 15.701741 
L 51.501735 19.623748 
L 52.469813 23.687069 
L 53.43789 26.958409 
L 54.405968 29.608179 
L 55.374046 32.477846 
L 56.342124 35.627491 
L 57.310201 38.651733 
L 58.278279 41.3126 
L 59.246357 43.590843 
L 60.214434 45.586591 
L 61.182512 47.327533 
L 62.15059 48.659115 
L 63.118668 49.518777 
L 64.086745 50.062523 
" clip-path="url(#pffc0c32450)" style="fill: none; stroke: #8a8a8a; stroke-width: 1.5; stroke-linecap: square"/>
   </g>
  </g>
 </g>
 <defs>
  <clipPath id="pffc0c32450">
   <rect x="0" y="-0" width="558" height="54.36"/>
  </clipPath>
 </defs>
</svg>
