<?xml version="1.0" encoding="utf-8" standalone="no"?>
<!DOCTYPE svg PUBLIC "-//W3C//DTD SVG 1.1//EN"
  "http://www.w3.org/Graphics/SVG/1.1/DTD/svg11.dtd">
<svg xmlns:xlink="http://www.w3.org/1999/xlink" width="558pt" height="54.36pt" viewBox="0 0 558 54.36" xmlns="http://www.w3.org/2000/svg" version="1.1">
 <metadata>
  <rdf:RDF xmlns:dc="http://purl.org/dc/elements/1.1/" xmlns:cc="http://creativecommons.org/ns#" xmlns:rdf="http://www.w3.org/1999/02/22-rdf-syntax-ns#">
   <cc:Work>
    <dc:type rdf:resource="http://purl.org/dc/dcmitype/StillImage"/>
    <dc:date>2024-09-14T12:47:30.482983</dc:date>
    <dc:format>image/svg+xml</dc:format>
    <dc:creator>
     <cc:Agent>
      <dc:title>Matplotlib v3.5.2, https://matplotlib.org/</dc:title>
     </cc:Agent>
    </dc:creator>
   </cc:Work>
  </rdf:RDF>
 </metadata>
 <defs>
  <style type="text/css">*{stroke-linejoin: round; stroke-linecap: butt}</style>
 </defs>
 <g id="figure_1">
  <g id="patch_1">
   <path d="M 0 54.36 
L 558 54.36 
L 558 0 
L 0 0 
L 0 54.36 
z
" style="fill: none; opacity: 0"/>
  </g>
  <g id="axes_1">
   <g id="PolyCollection_1">
    <defs>
     <path id="mddb16a2534" d="M 148.184684 -2.470909 
L 148.184684 -3.89436 
L 148.911435 -3.948142 
L 149.638187 -4.003586 
L 150.364939 -4.060651 
L 151.091691 -4.119298 
L 151.818442 -4.179489 
L 152.545194 -4.241188 
L 153.271946 -4.304367 
L 153.998698 -4.369004 
L 154.725449 -4.435092 
L 155.452201 -4.502632 
L 156.178953 -4.571642 
L 156.905705 -4.642159 
L 157.632456 -4.714235 
L 158.359208 -4.787944 
L 159.08596 -4.863381 
L 159.812712 -4.940666 
L 160.539463 -5.019939 
L 161.266215 -5.101365 
L 161.992967 -5.185133 
L 162.719719 -5.271453 
L 163.44647 -5.360556 
L 164.173222 -5.452692 
L 164.899974 -5.548123 
L 165.626726 -5.647125 
L 166.353477 -5.749974 
L 167.080229 -5.856947 
L 167.806981 -5.968306 
L 168.533733 -6.084299 
L 169.260485 -6.205144 
L 169.987236 -6.33102 
L 170.713988 -6.462063 
L 171.44074 -6.598349 
L 172.167492 -6.739893 
L 172.894243 -6.88664 
L 173.620995 -7.038459 
L 174.347747 -7.195142 
L 175.074499 -7.356404 
L 175.80125 -7.521884 
L 176.528002 -7.691153 
L 177.254754 -7.863721 
L 177.981506 -8.039049 
L 178.708257 -8.216559 
L 179.435009 -8.395652 
L 180.161761 -8.575726 
L 180.888513 -8.756187 
L 181.615264 -8.936472 
L 182.342016 -9.116061 
L 183.068768 -9.294494 
L 183.79552 -9.471382 
L 184.522271 -9.646422 
L 185.249023 -9.8194 
L 185.975775 -9.990197 
L 186.702527 -10.158796 
L 187.429278 -10.325274 
L 188.15603 -10.489806 
L 188.882782 -10.652652 
L 189.609534 -10.814158 
L 190.336285 -10.974737 
L 191.063037 -11.134869 
L 191.789789 -11.29508 
L 192.516541 -11.45594 
L 193.243293 -11.618045 
L 193.970044 -11.782007 
L 194.696796 -11.948446 
L 195.423548 -12.117978 
L 196.1503 -12.291206 
L 196.877051 -12.468712 
L 197.603803 -12.651045 
L 198.330555 -12.83872 
L 199.057307 -13.032204 
L 199.784058 -13.231914 
L 200.51081 -13.43821 
L 201.237562 -13.65139 
L 201.964314 -13.871682 
L 202.691065 -14.099244 
L 203.417817 -14.334159 
L 204.144569 -14.57643 
L 204.871321 -14.825982 
L 205.598072 -15.082659 
L 206.324824 -15.346222 
L 207.051576 -15.616357 
L 207.778328 -15.892669 
L 208.505079 -16.174694 
L 209.231831 -16.461896 
L 209.958583 -16.753681 
L 210.685335 -17.049398 
L 211.412086 -17.348349 
L 212.138838 -17.6498 
L 212.86559 -17.952991 
L 213.592342 -18.257144 
L 214.319094 -18.561479 
L 215.045845 -18.865224 
L 215.772597 -19.167629 
L 216.499349 -19.467979 
L 217.226101 -19.765608 
L 217.952852 -20.059911 
L 218.679604 -20.350356 
L 219.406356 -20.636498 
L 220.133108 -20.917989 
L 220.859859 -21.194583 
L 221.586611 -21.46615 
L 222.313363 -21.732671 
L 223.040115 -21.994249 
L 223.766866 -22.2511 
L 224.493618 -22.503551 
L 225.22037 -22.752031 
L 225.947122 -22.997062 
L 226.673873 -23.239239 
L 227.400625 -23.479214 
L 228.127377 -23.717678 
L 228.854129 -23.955335 
L 229.58088 -24.19288 
L 230.307632 -24.430974 
L 231.034384 -24.670224 
L 231.761136 -24.911156 
L 232.487887 -25.154196 
L 233.214639 -25.399657 
L 233.941391 -25.647723 
L 234.668143 -25.898439 
L 235.394895 -26.151711 
L 236.121646 -26.407304 
L 236.848398 -26.664852 
L 237.57515 -26.923861 
L 238.301902 -27.183734 
L 239.028653 -27.44378 
L 239.755405 -27.703244 
L 240.482157 -27.961321 
L 241.208909 -28.21719 
L 241.93566 -28.47003 
L 242.662412 -28.719048 
L 243.389164 -28.963498 
L 244.115916 -29.202702 
L 244.842667 -29.436067 
L 245.569419 -29.663093 
L 246.296171 -29.88339 
L 247.022923 -30.096676 
L 247.749674 -30.302785 
L 248.476426 -30.501663 
L 249.203178 -30.693364 
L 249.92993 -30.878046 
L 250.656681 -31.055958 
L 251.383433 -31.227432 
L 252.110185 -31.39287 
L 252.836937 -31.55273 
L 253.563688 -31.707513 
L 254.29044 -31.857751 
L 255.017192 -32.003987 
L 255.743944 -32.146766 
L 256.470695 -32.286618 
L 257.197447 -32.424049 
L 257.924199 -32.559524 
L 258.650951 -32.69346 
L 259.377703 -32.826216 
L 260.104454 -32.958082 
L 260.831206 -33.08928 
L 261.557958 -33.219955 
L 262.28471 -33.350175 
L 263.011461 -33.479935 
L 263.738213 -33.60916 
L 264.464965 -33.737709 
L 265.191717 -33.865387 
L 265.918468 -33.991954 
L 266.64522 -34.117138 
L 267.371972 -34.240648 
L 268.098724 -34.362187 
L 268.825475 -34.481468 
L 269.552227 -34.598226 
L 270.278979 -34.712226 
L 271.005731 -34.823276 
L 271.732482 -34.931234 
L 272.459234 -35.036007 
L 273.185986 -35.137554 
L 273.912738 -35.235879 
L 274.639489 -35.331029 
L 275.366241 -35.423079 
L 276.092993 -35.512119 
L 276.819745 -35.598242 
L 277.546496 -35.681527 
L 278.273248 -35.76202 
L 279 -35.839722 
L 279.726752 -35.914572 
L 280.453504 -35.986442 
L 281.180255 -36.05512 
L 281.907007 -36.120316 
L 282.633759 -36.181656 
L 283.360511 -36.238695 
L 284.087262 -36.290917 
L 284.814014 -36.337761 
L 285.540766 -36.378628 
L 286.267518 -36.412908 
L 286.994269 -36.440001 
L 287.721021 -36.459334 
L 288.447773 -36.47039 
L 289.174525 -36.472721 
L 289.901276 -36.465965 
L 290.628028 -36.449861 
L 291.35478 -36.424256 
L 292.081532 -36.389103 
L 292.808283 -36.344466 
L 293.535035 -36.290506 
L 294.261787 -36.227474 
L 294.988539 -36.155695 
L 295.71529 -36.07555 
L 296.442042 -35.987455 
L 297.168794 -35.891846 
L 297.895546 -35.789157 
L 298.622297 -35.679804 
L 299.349049 -35.564174 
L 300.075801 -35.442607 
L 300.802553 -35.315398 
L 301.529305 -35.182788 
L 302.256056 -35.044968 
L 302.982808 -34.902084 
L 303.70956 -34.754243 
L 304.436312 -34.601522 
L 305.163063 -34.443982 
L 305.889815 -34.28168 
L 306.616567 -34.114678 
L 307.343319 -33.943051 
L 308.07007 -33.766901 
L 308.796822 -33.586356 
L 309.523574 -33.401579 
L 310.250326 -33.212758 
L 310.977077 -33.020113 
L 311.703829 -32.823883 
L 312.430581 -32.62432 
L 313.157333 -32.421678 
L 313.884084 -32.216207 
L 314.610836 -32.008136 
L 315.337588 -31.797671 
L 316.06434 -31.584982 
L 316.791091 -31.3702 
L 317.517843 -31.153414 
L 318.244595 -30.93467 
L 318.971347 -30.713971 
L 319.698098 -30.491288 
L 320.42485 -30.266561 
L 321.151602 -30.039713 
L 321.878354 -29.810656 
L 322.605105 -29.579301 
L 323.331857 -29.345571 
L 324.058609 -29.109407 
L 324.785361 -28.870777 
L 325.512113 -28.629679 
L 326.238864 -28.386147 
L 326.965616 -28.140248 
L 327.692368 -27.892086 
L 328.41912 -27.641793 
L 329.145871 -27.389529 
L 329.872623 -27.135478 
L 330.599375 -26.879837 
L 331.326127 -26.622813 
L 332.052878 -26.36462 
L 332.77963 -26.105469 
L 333.506382 -25.845572 
L 334.233134 -25.585131 
L 334.959885 -25.324342 
L 335.686637 -25.063393 
L 336.413389 -24.80246 
L 337.140141 -24.54171 
L 337.866892 -24.281298 
L 338.593644 -24.021364 
L 339.320396 -23.762034 
L 340.047148 -23.503413 
L 340.773899 -23.245584 
L 341.500651 -22.988598 
L 342.227403 -22.732475 
L 342.954155 -22.477193 
L 343.680906 -22.222684 
L 344.407658 -21.968831 
L 345.13441 -21.715468 
L 345.861162 -21.462373 
L 346.587914 -21.209277 
L 347.314665 -20.955863 
L 348.041417 -20.701778 
L 348.768169 -20.446642 
L 349.494921 -20.190059 
L 350.221672 -19.931634 
L 350.948424 -19.670989 
L 351.675176 -19.407781 
L 352.401928 -19.141717 
L 353.128679 -18.872574 
L 353.855431 -18.600209 
L 354.582183 -18.324575 
L 355.308935 -18.045731 
L 356.035686 -17.763843 
L 356.762438 -17.479186 
L 357.48919 -17.192148 
L 358.215942 -16.903211 
L 358.942693 -16.612953 
L 359.669445 -16.322023 
L 360.396197 -16.031129 
L 361.122949 -15.741016 
L 361.8497 -15.452448 
L 362.576452 -15.166182 
L 363.303204 -14.882952 
L 364.029956 -14.603443 
L 364.756707 -14.328279 
L 365.483459 -14.058004 
L 366.210211 -13.79307 
L 366.936963 -13.533827 
L 367.663715 -13.280522 
L 368.390466 -13.03329 
L 369.117218 -12.792164 
L 369.84397 -12.557073 
L 370.570722 -12.327856 
L 371.297473 -12.104268 
L 372.024225 -11.885996 
L 372.750977 -11.672673 
L 373.477729 -11.463894 
L 374.20448 -11.25923 
L 374.931232 -11.058247 
L 375.657984 -10.860521 
L 376.384736 -10.665652 
L 377.111487 -10.473278 
L 377.838239 -10.283088 
L 378.564991 -10.094829 
L 379.291743 -9.908317 
L 380.018494 -9.723437 
L 380.745246 -9.540152 
L 381.471998 -9.358495 
L 382.19875 -9.17857 
L 382.925501 -9.000545 
L 383.652253 -8.824644 
L 384.379005 -8.651137 
L 385.105757 -8.480326 
L 385.832508 -8.312535 
L 386.55926 -8.148092 
L 387.286012 -7.987322 
L 388.012764 -7.830524 
L 388.739515 -7.677967 
L 389.466267 -7.529878 
L 390.193019 -7.386428 
L 390.919771 -7.247732 
L 391.646523 -7.113843 
L 392.373274 -6.984752 
L 393.100026 -6.860387 
L 393.826778 -6.740622 
L 394.55353 -6.625278 
L 395.280281 -6.514136 
L 396.007033 -6.406945 
L 396.733785 -6.303431 
L 397.460537 -6.203308 
L 398.187288 -6.10629 
L 398.91404 -6.012099 
L 399.640792 -5.920473 
L 400.367544 -5.831175 
L 401.094295 -5.743995 
L 401.821047 -5.658756 
L 402.547799 -5.575316 
L 403.274551 -5.493563 
L 404.001302 -5.413423 
L 404.728054 -5.334845 
L 405.454806 -5.257808 
L 406.181558 -5.182311 
L 406.908309 -5.108367 
L 407.635061 -5.036001 
L 408.361813 -4.965243 
L 409.088565 -4.896126 
L 409.815316 -4.828676 
L 410.542068 -4.762915 
L 411.26882 -4.698851 
L 411.995572 -4.636484 
L 412.722324 -4.575797 
L 413.449075 -4.516759 
L 414.175827 -4.459324 
L 414.902579 -4.403434 
L 415.629331 -4.349016 
L 416.356082 -4.295989 
L 417.082834 -4.244262 
L 417.809586 -4.193742 
L 418.536338 -4.144333 
L 419.263089 -4.09594 
L 419.989841 -4.048478 
L 420.716593 -4.001867 
L 421.443345 -3.956042 
L 422.170096 -3.910952 
L 422.896848 -3.866564 
L 423.6236 -3.822863 
L 423.6236 -2.470909 
L 423.6236 -2.470909 
L 422.896848 -2.470909 
L 422.170096 -2.470909 
L 421.443345 -2.470909 
L 420.716593 -2.470909 
L 419.989841 -2.470909 
L 419.263089 -2.470909 
L 418.536338 -2.470909 
L 417.809586 -2.470909 
L 417.082834 -2.470909 
L 416.356082 -2.470909 
L 415.629331 -2.470909 
L 414.902579 -2.470909 
L 414.175827 -2.470909 
L 413.449075 -2.470909 
L 412.722324 -2.470909 
L 411.995572 -2.470909 
L 411.26882 -2.470909 
L 410.542068 -2.470909 
L 409.815316 -2.470909 
L 409.088565 -2.470909 
L 408.361813 -2.470909 
L 407.635061 -2.470909 
L 406.908309 -2.470909 
L 406.181558 -2.470909 
L 405.454806 -2.470909 
L 404.728054 -2.470909 
L 404.001302 -2.470909 
L 403.274551 -2.470909 
L 402.547799 -2.470909 
L 401.821047 -2.470909 
L 401.094295 -2.470909 
L 400.367544 -2.470909 
L 399.640792 -2.470909 
L 398.91404 -2.470909 
L 398.187288 -2.470909 
L 397.460537 -2.470909 
L 396.733785 -2.470909 
L 396.007033 -2.470909 
L 395.280281 -2.470909 
L 394.55353 -2.470909 
L 393.826778 -2.470909 
L 393.100026 -2.470909 
L 392.373274 -2.470909 
L 391.646523 -2.470909 
L 390.919771 -2.470909 
L 390.193019 -2.470909 
L 389.466267 -2.470909 
L 388.739515 -2.470909 
L 388.012764 -2.470909 
L 387.286012 -2.470909 
L 386.55926 -2.470909 
L 385.832508 -2.470909 
L 385.105757 -2.470909 
L 384.379005 -2.470909 
L 383.652253 -2.470909 
L 382.925501 -2.470909 
L 382.19875 -2.470909 
L 381.471998 -2.470909 
L 380.745246 -2.470909 
L 380.018494 -2.470909 
L 379.291743 -2.470909 
L 378.564991 -2.470909 
L 377.838239 -2.470909 
L 377.111487 -2.470909 
L 376.384736 -2.470909 
L 375.657984 -2.470909 
L 374.931232 -2.470909 
L 374.20448 -2.470909 
L 373.477729 -2.470909 
L 372.750977 -2.470909 
L 372.024225 -2.470909 
L 371.297473 -2.470909 
L 370.570722 -2.470909 
L 369.84397 -2.470909 
L 369.117218 -2.470909 
L 368.390466 -2.470909 
L 367.663715 -2.470909 
L 366.936963 -2.470909 
L 366.210211 -2.470909 
L 365.483459 -2.470909 
L 364.756707 -2.470909 
L 364.029956 -2.470909 
L 363.303204 -2.470909 
L 362.576452 -2.470909 
L 361.8497 -2.470909 
L 361.122949 -2.470909 
L 360.396197 -2.470909 
L 359.669445 -2.470909 
L 358.942693 -2.470909 
L 358.215942 -2.470909 
L 357.48919 -2.470909 
L 356.762438 -2.470909 
L 356.035686 -2.470909 
L 355.308935 -2.470909 
L 354.582183 -2.470909 
L 353.855431 -2.470909 
L 353.128679 -2.470909 
L 352.401928 -2.470909 
L 351.675176 -2.470909 
L 350.948424 -2.470909 
L 350.221672 -2.470909 
L 349.494921 -2.470909 
L 348.768169 -2.470909 
L 348.041417 -2.470909 
L 347.314665 -2.470909 
L 346.587914 -2.470909 
L 345.861162 -2.470909 
L 345.13441 -2.470909 
L 344.407658 -2.470909 
L 343.680906 -2.470909 
L 342.954155 -2.470909 
L 342.227403 -2.470909 
L 341.500651 -2.470909 
L 340.773899 -2.470909 
L 340.047148 -2.470909 
L 339.320396 -2.470909 
L 338.593644 -2.470909 
L 337.866892 -2.470909 
L 337.140141 -2.470909 
L 336.413389 -2.470909 
L 335.686637 -2.470909 
L 334.959885 -2.470909 
L 334.233134 -2.470909 
L 333.506382 -2.470909 
L 332.77963 -2.470909 
L 332.052878 -2.470909 
L 331.326127 -2.470909 
L 330.599375 -2.470909 
L 329.872623 -2.470909 
L 329.145871 -2.470909 
L 328.41912 -2.470909 
L 327.692368 -2.470909 
L 326.965616 -2.470909 
L 326.238864 -2.470909 
L 325.512113 -2.470909 
L 324.785361 -2.470909 
L 324.058609 -2.470909 
L 323.331857 -2.470909 
L 322.605105 -2.470909 
L 321.878354 -2.470909 
L 321.151602 -2.470909 
L 320.42485 -2.470909 
L 319.698098 -2.470909 
L 318.971347 -2.470909 
L 318.244595 -2.470909 
L 317.517843 -2.470909 
L 316.791091 -2.470909 
L 316.06434 -2.470909 
L 315.337588 -2.470909 
L 314.610836 -2.470909 
L 313.884084 -2.470909 
L 313.157333 -2.470909 
L 312.430581 -2.470909 
L 311.703829 -2.470909 
L 310.977077 -2.470909 
L 310.250326 -2.470909 
L 309.523574 -2.470909 
L 308.796822 -2.470909 
L 308.07007 -2.470909 
L 307.343319 -2.470909 
L 306.616567 -2.470909 
L 305.889815 -2.470909 
L 305.163063 -2.470909 
L 304.436312 -2.470909 
L 303.70956 -2.470909 
L 302.982808 -2.470909 
L 302.256056 -2.470909 
L 301.529305 -2.470909 
L 300.802553 -2.470909 
L 300.075801 -2.470909 
L 299.349049 -2.470909 
L 298.622297 -2.470909 
L 297.895546 -2.470909 
L 297.168794 -2.470909 
L 296.442042 -2.470909 
L 295.71529 -2.470909 
L 294.988539 -2.470909 
L 294.261787 -2.470909 
L 293.535035 -2.470909 
L 292.808283 -2.470909 
L 292.081532 -2.470909 
L 291.35478 -2.470909 
L 290.628028 -2.470909 
L 289.901276 -2.470909 
L 289.174525 -2.470909 
L 288.447773 -2.470909 
L 287.721021 -2.470909 
L 286.994269 -2.470909 
L 286.267518 -2.470909 
L 285.540766 -2.470909 
L 284.814014 -2.470909 
L 284.087262 -2.470909 
L 283.360511 -2.470909 
L 282.633759 -2.470909 
L 281.907007 -2.470909 
L 281.180255 -2.470909 
L 280.453504 -2.470909 
L 279.726752 -2.470909 
L 279 -2.470909 
L 278.273248 -2.470909 
L 277.546496 -2.470909 
L 276.819745 -2.470909 
L 276.092993 -2.470909 
L 275.366241 -2.470909 
L 274.639489 -2.470909 
L 273.912738 -2.470909 
L 273.185986 -2.470909 
L 272.459234 -2.470909 
L 271.732482 -2.470909 
L 271.005731 -2.470909 
L 270.278979 -2.470909 
L 269.552227 -2.470909 
L 268.825475 -2.470909 
L 268.098724 -2.470909 
L 267.371972 -2.470909 
L 266.64522 -2.470909 
L 265.918468 -2.470909 
L 265.191717 -2.470909 
L 264.464965 -2.470909 
L 263.738213 -2.470909 
L 263.011461 -2.470909 
L 262.28471 -2.470909 
L 261.557958 -2.470909 
L 260.831206 -2.470909 
L 260.104454 -2.470909 
L 259.377703 -2.470909 
L 258.650951 -2.470909 
L 257.924199 -2.470909 
L 257.197447 -2.470909 
L 256.470695 -2.470909 
L 255.743944 -2.470909 
L 255.017192 -2.470909 
L 254.29044 -2.470909 
L 253.563688 -2.470909 
L 252.836937 -2.470909 
L 252.110185 -2.470909 
L 251.383433 -2.470909 
L 250.656681 -2.470909 
L 249.92993 -2.470909 
L 249.203178 -2.470909 
L 248.476426 -2.470909 
L 247.749674 -2.470909 
L 247.022923 -2.470909 
L 246.296171 -2.470909 
L 245.569419 -2.470909 
L 244.842667 -2.470909 
L 244.115916 -2.470909 
L 243.389164 -2.470909 
L 242.662412 -2.470909 
L 241.93566 -2.470909 
L 241.208909 -2.470909 
L 240.482157 -2.470909 
L 239.755405 -2.470909 
L 239.028653 -2.470909 
L 238.301902 -2.470909 
L 237.57515 -2.470909 
L 236.848398 -2.470909 
L 236.121646 -2.470909 
L 235.394895 -2.470909 
L 234.668143 -2.470909 
L 233.941391 -2.470909 
L 233.214639 -2.470909 
L 232.487887 -2.470909 
L 231.761136 -2.470909 
L 231.034384 -2.470909 
L 230.307632 -2.470909 
L 229.58088 -2.470909 
L 228.854129 -2.470909 
L 228.127377 -2.470909 
L 227.400625 -2.470909 
L 226.673873 -2.470909 
L 225.947122 -2.470909 
L 225.22037 -2.470909 
L 224.493618 -2.470909 
L 223.766866 -2.470909 
L 223.040115 -2.470909 
L 222.313363 -2.470909 
L 221.586611 -2.470909 
L 220.859859 -2.470909 
L 220.133108 -2.470909 
L 219.406356 -2.470909 
L 218.679604 -2.470909 
L 217.952852 -2.470909 
L 217.226101 -2.470909 
L 216.499349 -2.470909 
L 215.772597 -2.470909 
L 215.045845 -2.470909 
L 214.319094 -2.470909 
L 213.592342 -2.470909 
L 212.86559 -2.470909 
L 212.138838 -2.470909 
L 211.412086 -2.470909 
L 210.685335 -2.470909 
L 209.958583 -2.470909 
L 209.231831 -2.470909 
L 208.505079 -2.470909 
L 207.778328 -2.470909 
L 207.051576 -2.470909 
L 206.324824 -2.470909 
L 205.598072 -2.470909 
L 204.871321 -2.470909 
L 204.144569 -2.470909 
L 203.417817 -2.470909 
L 202.691065 -2.470909 
L 201.964314 -2.470909 
L 201.237562 -2.470909 
L 200.51081 -2.470909 
L 199.784058 -2.470909 
L 199.057307 -2.470909 
L 198.330555 -2.470909 
L 197.603803 -2.470909 
L 196.877051 -2.470909 
L 196.1503 -2.470909 
L 195.423548 -2.470909 
L 194.696796 -2.470909 
L 193.970044 -2.470909 
L 193.243293 -2.470909 
L 192.516541 -2.470909 
L 191.789789 -2.470909 
L 191.063037 -2.470909 
L 190.336285 -2.470909 
L 189.609534 -2.470909 
L 188.882782 -2.470909 
L 188.15603 -2.470909 
L 187.429278 -2.470909 
L 186.702527 -2.470909 
L 185.975775 -2.470909 
L 185.249023 -2.470909 
L 184.522271 -2.470909 
L 183.79552 -2.470909 
L 183.068768 -2.470909 
L 182.342016 -2.470909 
L 181.615264 -2.470909 
L 180.888513 -2.470909 
L 180.161761 -2.470909 
L 179.435009 -2.470909 
L 178.708257 -2.470909 
L 177.981506 -2.470909 
L 177.254754 -2.470909 
L 176.528002 -2.470909 
L 175.80125 -2.470909 
L 175.074499 -2.470909 
L 174.347747 -2.470909 
L 173.620995 -2.470909 
L 172.894243 -2.470909 
L 172.167492 -2.470909 
L 171.44074 -2.470909 
L 170.713988 -2.470909 
L 169.987236 -2.470909 
L 169.260485 -2.470909 
L 168.533733 -2.470909 
L 167.806981 -2.470909 
L 167.080229 -2.470909 
L 166.353477 -2.470909 
L 165.626726 -2.470909 
L 164.899974 -2.470909 
L 164.173222 -2.470909 
L 163.44647 -2.470909 
L 162.719719 -2.470909 
L 161.992967 -2.470909 
L 161.266215 -2.470909 
L 160.539463 -2.470909 
L 159.812712 -2.470909 
L 159.08596 -2.470909 
L 158.359208 -2.470909 
L 157.632456 -2.470909 
L 156.905705 -2.470909 
L 156.178953 -2.470909 
L 155.452201 -2.470909 
L 154.725449 -2.470909 
L 153.998698 -2.470909 
L 153.271946 -2.470909 
L 152.545194 -2.470909 
L 151.818442 -2.470909 
L 151.091691 -2.470909 
L 150.364939 -2.470909 
L 149.638187 -2.470909 
L 148.911435 -2.470909 
L 148.184684 -2.470909 
z
" style="stroke: #cf1313; stroke-opacity: 0.2"/>
    </defs>
    <g clip-path="url(#p60d96ef518)">
     <use xlink:href="#mddb16a2534" x="0" y="54.36" style="fill: #cf1313; fill-opacity: 0.2; stroke: #cf1313; stroke-opacity: 0.2"/>
    </g>
   </g>
   <g id="PolyCollection_2">
    <defs>
     <path id="meba140ff49" d="M 305.163063 -2.470909 
L 305.163063 -3.832255 
L 305.889815 -3.88343 
L 306.616567 -3.936614 
L 307.343319 -3.991759 
L 308.07007 -4.048826 
L 308.796822 -4.107783 
L 309.523574 -4.168609 
L 310.250326 -4.231289 
L 310.977077 -4.295812 
L 311.703829 -4.362168 
L 312.430581 -4.430344 
L 313.157333 -4.500321 
L 313.884084 -4.572071 
L 314.610836 -4.645556 
L 315.337588 -4.720736 
L 316.06434 -4.797565 
L 316.791091 -4.876006 
L 317.517843 -4.956037 
L 318.244595 -5.037663 
L 318.971347 -5.120933 
L 319.698098 -5.205947 
L 320.42485 -5.292876 
L 321.151602 -5.381964 
L 321.878354 -5.473543 
L 322.605105 -5.568027 
L 323.331857 -5.665915 
L 324.058609 -5.767777 
L 324.785361 -5.874241 
L 325.512113 -5.98597 
L 326.238864 -6.103639 
L 326.965616 -6.227905 
L 327.692368 -6.359375 
L 328.41912 -6.498581 
L 329.145871 -6.645951 
L 329.872623 -6.801792 
L 330.599375 -6.966273 
L 331.326127 -7.139421 
L 332.052878 -7.321124 
L 332.77963 -7.511146 
L 333.506382 -7.709144 
L 334.233134 -7.914697 
L 334.959885 -8.127341 
L 335.686637 -8.346594 
L 336.413389 -8.571995 
L 337.140141 -8.803128 
L 337.866892 -9.039643 
L 338.593644 -9.28127 
L 339.320396 -9.527814 
L 340.047148 -9.779154 
L 340.773899 -10.035216 
L 341.500651 -10.295952 
L 342.227403 -10.561305 
L 342.954155 -10.831173 
L 343.680906 -11.105378 
L 344.407658 -11.383637 
L 345.13441 -11.665542 
L 345.861162 -11.950556 
L 346.587914 -12.238016 
L 347.314665 -12.527152 
L 348.041417 -12.817125 
L 348.768169 -13.107066 
L 349.494921 -13.396136 
L 350.221672 -13.683578 
L 350.948424 -13.968775 
L 351.675176 -14.251307 
L 352.401928 -14.530988 
L 353.128679 -14.807899 
L 353.855431 -15.082399 
L 354.582183 -15.355118 
L 355.308935 -15.626938 
L 356.035686 -15.898945 
L 356.762438 -16.172379 
L 357.48919 -16.448566 
L 358.215942 -16.728845 
L 358.942693 -17.014496 
L 359.669445 -17.306673 
L 360.396197 -17.606342 
L 361.122949 -17.914235 
L 361.8497 -18.230816 
L 362.576452 -18.556269 
L 363.303204 -18.890498 
L 364.029956 -19.23314 
L 364.756707 -19.583601 
L 365.483459 -19.94109 
L 366.210211 -20.304666 
L 366.936963 -20.673286 
L 367.663715 -21.04585 
L 368.390466 -21.42124 
L 369.117218 -21.798364 
L 369.84397 -22.176175 
L 370.570722 -22.553695 
L 371.297473 -22.930028 
L 372.024225 -23.304367 
L 372.750977 -23.675998 
L 373.477729 -24.0443 
L 374.20448 -24.408742 
L 374.931232 -24.768892 
L 375.657984 -25.124416 
L 376.384736 -25.475085 
L 377.111487 -25.820787 
L 377.838239 -26.161533 
L 378.564991 -26.497471 
L 379.291743 -26.828896 
L 380.018494 -27.15625 
L 380.745246 -27.480124 
L 381.471998 -27.801249 
L 382.19875 -28.120479 
L 382.925501 -28.438762 
L 383.652253 -28.757101 
L 384.379005 -29.076513 
L 385.105757 -29.397972 
L 385.832508 -29.722354 
L 386.55926 -30.050375 
L 387.286012 -30.382539 
L 388.012764 -30.719085 
L 388.739515 -31.059944 
L 389.466267 -31.404718 
L 390.193019 -31.752662 
L 390.919771 -32.102693 
L 391.646523 -32.453416 
L 392.373274 -32.803165 
L 393.100026 -33.150062 
L 393.826778 -33.49209 
L 394.55353 -33.827178 
L 395.280281 -34.153284 
L 396.007033 -34.468484 
L 396.733785 -34.771053 
L 397.460537 -35.059534 
L 398.187288 -35.332794 
L 398.91404 -35.590056 
L 399.640792 -35.83092 
L 400.367544 -36.055349 
L 401.094295 -36.263648 
L 401.821047 -36.456411 
L 402.547799 -36.634465 
L 403.274551 -36.798795 
L 404.001302 -36.950466 
L 404.728054 -37.09055 
L 405.454806 -37.220051 
L 406.181558 -37.339847 
L 406.908309 -37.450641 
L 407.635061 -37.552934 
L 408.361813 -37.647013 
L 409.088565 -37.732952 
L 409.815316 -37.810641 
L 410.542068 -37.879814 
L 411.26882 -37.940096 
L 411.995572 -37.991053 
L 412.722324 -38.032235 
L 413.449075 -38.063233 
L 414.175827 -38.08371 
L 414.902579 -38.093435 
L 415.629331 -38.092306 
L 416.356082 -38.080359 
L 417.082834 -38.057769 
L 417.809586 -38.024844 
L 418.536338 -37.982011 
L 419.263089 -37.929799 
L 419.989841 -37.868819 
L 420.716593 -37.799742 
L 421.443345 -37.723279 
L 422.170096 -37.640158 
L 422.896848 -37.551108 
L 423.6236 -37.45683 
L 424.350352 -37.357979 
L 425.077103 -37.255136 
L 425.803855 -37.148788 
L 426.530607 -37.039292 
L 427.257359 -36.926858 
L 427.98411 -36.81152 
L 428.710862 -36.693122 
L 429.437614 -36.571306 
L 430.164366 -36.445514 
L 430.891117 -36.314996 
L 431.617869 -36.178842 
L 432.344621 -36.036014 
L 433.071373 -35.885399 
L 433.798125 -35.725863 
L 434.524876 -35.556321 
L 435.251628 -35.375797 
L 435.97838 -35.183489 
L 436.705132 -34.978824 
L 437.431883 -34.7615 
L 438.158635 -34.531521 
L 438.885387 -34.289204 
L 439.612139 -34.035183 
L 440.33889 -33.770378 
L 441.065642 -33.495967 
L 441.792394 -33.213325 
L 442.519146 -32.923966 
L 443.245897 -32.629464 
L 443.972649 -32.33138 
L 444.699401 -32.031181 
L 445.426153 -31.730165 
L 446.152904 -31.429391 
L 446.879656 -31.129625 
L 447.606408 -30.831293 
L 448.33316 -30.534459 
L 449.059911 -30.23882 
L 449.786663 -29.943716 
L 450.513415 -29.648172 
L 451.240167 -29.350946 
L 451.966918 -29.050602 
L 452.69367 -28.745597 
L 453.420422 -28.434364 
L 454.147174 -28.115411 
L 454.873926 -27.787405 
L 455.600677 -27.449254 
L 456.327429 -27.100165 
L 457.054181 -26.739699 
L 457.780933 -26.367785 
L 458.507684 -25.984731 
L 459.234436 -25.591203 
L 459.961188 -25.188192 
L 460.68794 -24.776962 
L 461.414691 -24.358993 
L 462.141443 -23.935917 
L 462.868195 -23.509457 
L 463.594947 -23.081362 
L 464.321698 -22.653362 
L 465.04845 -22.22712 
L 465.775202 -21.804204 
L 466.501954 -21.386064 
L 467.228705 -20.974018 
L 467.955457 -20.569245 
L 468.682209 -20.172787 
L 469.408961 -19.785542 
L 470.135712 -19.408274 
L 470.862464 -19.041603 
L 471.589216 -18.686007 
L 472.315968 -18.341818 
L 473.042719 -18.009211 
L 473.769471 -17.6882 
L 474.496223 -17.378631 
L 475.222975 -17.08018 
L 475.949726 -16.792356 
L 476.676478 -16.514504 
L 477.40323 -16.245827 
L 478.129982 -15.985401 
L 478.856734 -15.732206 
L 479.583485 -15.485164 
L 480.310237 -15.243171 
L 481.036989 -15.005141 
L 481.763741 -14.770046 
L 482.490492 -14.536949 
L 483.217244 -14.305043 
L 483.943996 -14.073665 
L 484.670748 -13.84232 
L 485.397499 -13.610684 
L 486.124251 -13.378598 
L 486.851003 -13.146058 
L 487.577755 -12.913193 
L 488.304506 -12.680237 
L 489.031258 -12.447503 
L 489.75801 -12.215348 
L 490.484762 -11.984144 
L 491.211513 -11.754253 
L 491.938265 -11.526002 
L 492.665017 -11.299672 
L 493.391769 -11.075486 
L 494.11852 -10.853611 
L 494.845272 -10.634159 
L 495.572024 -10.417197 
L 496.298776 -10.20276 
L 497.025527 -9.990866 
L 497.752279 -9.781529 
L 498.479031 -9.57477 
L 499.205783 -9.37063 
L 499.932535 -9.169174 
L 500.659286 -8.970496 
L 501.386038 -8.774715 
L 502.11279 -8.581976 
L 502.839542 -8.392437 
L 503.566293 -8.206265 
L 504.293045 -8.023625 
L 505.019797 -7.844669 
L 505.746549 -7.66953 
L 506.4733 -7.498312 
L 507.200052 -7.331085 
L 507.926804 -7.167884 
L 508.653556 -7.008705 
L 509.380307 -6.85351 
L 510.107059 -6.702227 
L 510.833811 -6.554761 
L 511.560563 -6.410996 
L 512.287314 -6.270807 
L 513.014066 -6.134065 
L 513.740818 -6.000652 
L 514.46757 -5.870463 
L 515.194321 -5.743418 
L 515.921073 -5.619463 
L 516.647825 -5.498579 
L 517.374577 -5.380778 
L 518.101328 -5.266107 
L 518.82808 -5.15464 
L 519.554832 -5.046476 
L 520.281584 -4.941731 
L 521.008336 -4.84053 
L 521.735087 -4.742998 
L 522.461839 -4.649249 
L 523.188591 -4.55938 
L 523.915343 -4.473461 
L 524.642094 -4.391531 
L 525.368846 -4.313593 
L 526.095598 -4.239609 
L 526.82235 -4.169504 
L 527.549101 -4.103162 
L 528.275853 -4.040434 
L 529.002605 -3.981138 
L 529.729357 -3.925069 
L 530.456108 -3.871998 
L 531.18286 -3.821685 
L 531.909612 -3.773881 
L 532.636364 -3.728335 
L 532.636364 -2.470909 
L 532.636364 -2.470909 
L 531.909612 -2.470909 
L 531.18286 -2.470909 
L 530.456108 -2.470909 
L 529.729357 -2.470909 
L 529.002605 -2.470909 
L 528.275853 -2.470909 
L 527.549101 -2.470909 
L 526.82235 -2.470909 
L 526.095598 -2.470909 
L 525.368846 -2.470909 
L 524.642094 -2.470909 
L 523.915343 -2.470909 
L 523.188591 -2.470909 
L 522.461839 -2.470909 
L 521.735087 -2.470909 
L 521.008336 -2.470909 
L 520.281584 -2.470909 
L 519.554832 -2.470909 
L 518.82808 -2.470909 
L 518.101328 -2.470909 
L 517.374577 -2.470909 
L 516.647825 -2.470909 
L 515.921073 -2.470909 
L 515.194321 -2.470909 
L 514.46757 -2.470909 
L 513.740818 -2.470909 
L 513.014066 -2.470909 
L 512.287314 -2.470909 
L 511.560563 -2.470909 
L 510.833811 -2.470909 
L 510.107059 -2.470909 
L 509.380307 -2.470909 
L 508.653556 -2.470909 
L 507.926804 -2.470909 
L 507.200052 -2.470909 
L 506.4733 -2.470909 
L 505.746549 -2.470909 
L 505.019797 -2.470909 
L 504.293045 -2.470909 
L 503.566293 -2.470909 
L 502.839542 -2.470909 
L 502.11279 -2.470909 
L 501.386038 -2.470909 
L 500.659286 -2.470909 
L 499.932535 -2.470909 
L 499.205783 -2.470909 
L 498.479031 -2.470909 
L 497.752279 -2.470909 
L 497.025527 -2.470909 
L 496.298776 -2.470909 
L 495.572024 -2.470909 
L 494.845272 -2.470909 
L 494.11852 -2.470909 
L 493.391769 -2.470909 
L 492.665017 -2.470909 
L 491.938265 -2.470909 
L 491.211513 -2.470909 
L 490.484762 -2.470909 
L 489.75801 -2.470909 
L 489.031258 -2.470909 
L 488.304506 -2.470909 
L 487.577755 -2.470909 
L 486.851003 -2.470909 
L 486.124251 -2.470909 
L 485.397499 -2.470909 
L 484.670748 -2.470909 
L 483.943996 -2.470909 
L 483.217244 -2.470909 
L 482.490492 -2.470909 
L 481.763741 -2.470909 
L 481.036989 -2.470909 
L 480.310237 -2.470909 
L 479.583485 -2.470909 
L 478.856734 -2.470909 
L 478.129982 -2.470909 
L 477.40323 -2.470909 
L 476.676478 -2.470909 
L 475.949726 -2.470909 
L 475.222975 -2.470909 
L 474.496223 -2.470909 
L 473.769471 -2.470909 
L 473.042719 -2.470909 
L 472.315968 -2.470909 
L 471.589216 -2.470909 
L 470.862464 -2.470909 
L 470.135712 -2.470909 
L 469.408961 -2.470909 
L 468.682209 -2.470909 
L 467.955457 -2.470909 
L 467.228705 -2.470909 
L 466.501954 -2.470909 
L 465.775202 -2.470909 
L 465.04845 -2.470909 
L 464.321698 -2.470909 
L 463.594947 -2.470909 
L 462.868195 -2.470909 
L 462.141443 -2.470909 
L 461.414691 -2.470909 
L 460.68794 -2.470909 
L 459.961188 -2.470909 
L 459.234436 -2.470909 
L 458.507684 -2.470909 
L 457.780933 -2.470909 
L 457.054181 -2.470909 
L 456.327429 -2.470909 
L 455.600677 -2.470909 
L 454.873926 -2.470909 
L 454.147174 -2.470909 
L 453.420422 -2.470909 
L 452.69367 -2.470909 
L 451.966918 -2.470909 
L 451.240167 -2.470909 
L 450.513415 -2.470909 
L 449.786663 -2.470909 
L 449.059911 -2.470909 
L 448.33316 -2.470909 
L 447.606408 -2.470909 
L 446.879656 -2.470909 
L 446.152904 -2.470909 
L 445.426153 -2.470909 
L 444.699401 -2.470909 
L 443.972649 -2.470909 
L 443.245897 -2.470909 
L 442.519146 -2.470909 
L 441.792394 -2.470909 
L 441.065642 -2.470909 
L 440.33889 -2.470909 
L 439.612139 -2.470909 
L 438.885387 -2.470909 
L 438.158635 -2.470909 
L 437.431883 -2.470909 
L 436.705132 -2.470909 
L 435.97838 -2.470909 
L 435.251628 -2.470909 
L 434.524876 -2.470909 
L 433.798125 -2.470909 
L 433.071373 -2.470909 
L 432.344621 -2.470909 
L 431.617869 -2.470909 
L 430.891117 -2.470909 
L 430.164366 -2.470909 
L 429.437614 -2.470909 
L 428.710862 -2.470909 
L 427.98411 -2.470909 
L 427.257359 -2.470909 
L 426.530607 -2.470909 
L 425.803855 -2.470909 
L 425.077103 -2.470909 
L 424.350352 -2.470909 
L 423.6236 -2.470909 
L 422.896848 -2.470909 
L 422.170096 -2.470909 
L 421.443345 -2.470909 
L 420.716593 -2.470909 
L 419.989841 -2.470909 
L 419.263089 -2.470909 
L 418.536338 -2.470909 
L 417.809586 -2.470909 
L 417.082834 -2.470909 
L 416.356082 -2.470909 
L 415.629331 -2.470909 
L 414.902579 -2.470909 
L 414.175827 -2.470909 
L 413.449075 -2.470909 
L 412.722324 -2.470909 
L 411.995572 -2.470909 
L 411.26882 -2.470909 
L 410.542068 -2.470909 
L 409.815316 -2.470909 
L 409.088565 -2.470909 
L 408.361813 -2.470909 
L 407.635061 -2.470909 
L 406.908309 -2.470909 
L 406.181558 -2.470909 
L 405.454806 -2.470909 
L 404.728054 -2.470909 
L 404.001302 -2.470909 
L 403.274551 -2.470909 
L 402.547799 -2.470909 
L 401.821047 -2.470909 
L 401.094295 -2.470909 
L 400.367544 -2.470909 
L 399.640792 -2.470909 
L 398.91404 -2.470909 
L 398.187288 -2.470909 
L 397.460537 -2.470909 
L 396.733785 -2.470909 
L 396.007033 -2.470909 
L 395.280281 -2.470909 
L 394.55353 -2.470909 
L 393.826778 -2.470909 
L 393.100026 -2.470909 
L 392.373274 -2.470909 
L 391.646523 -2.470909 
L 390.919771 -2.470909 
L 390.193019 -2.470909 
L 389.466267 -2.470909 
L 388.739515 -2.470909 
L 388.012764 -2.470909 
L 387.286012 -2.470909 
L 386.55926 -2.470909 
L 385.832508 -2.470909 
L 385.105757 -2.470909 
L 384.379005 -2.470909 
L 383.652253 -2.470909 
L 382.925501 -2.470909 
L 382.19875 -2.470909 
L 381.471998 -2.470909 
L 380.745246 -2.470909 
L 380.018494 -2.470909 
L 379.291743 -2.470909 
L 378.564991 -2.470909 
L 377.838239 -2.470909 
L 377.111487 -2.470909 
L 376.384736 -2.470909 
L 375.657984 -2.470909 
L 374.931232 -2.470909 
L 374.20448 -2.470909 
L 373.477729 -2.470909 
L 372.750977 -2.470909 
L 372.024225 -2.470909 
L 371.297473 -2.470909 
L 370.570722 -2.470909 
L 369.84397 -2.470909 
L 369.117218 -2.470909 
L 368.390466 -2.470909 
L 367.663715 -2.470909 
L 366.936963 -2.470909 
L 366.210211 -2.470909 
L 365.483459 -2.470909 
L 364.756707 -2.470909 
L 364.029956 -2.470909 
L 363.303204 -2.470909 
L 362.576452 -2.470909 
L 361.8497 -2.470909 
L 361.122949 -2.470909 
L 360.396197 -2.470909 
L 359.669445 -2.470909 
L 358.942693 -2.470909 
L 358.215942 -2.470909 
L 357.48919 -2.470909 
L 356.762438 -2.470909 
L 356.035686 -2.470909 
L 355.308935 -2.470909 
L 354.582183 -2.470909 
L 353.855431 -2.470909 
L 353.128679 -2.470909 
L 352.401928 -2.470909 
L 351.675176 -2.470909 
L 350.948424 -2.470909 
L 350.221672 -2.470909 
L 349.494921 -2.470909 
L 348.768169 -2.470909 
L 348.041417 -2.470909 
L 347.314665 -2.470909 
L 346.587914 -2.470909 
L 345.861162 -2.470909 
L 345.13441 -2.470909 
L 344.407658 -2.470909 
L 343.680906 -2.470909 
L 342.954155 -2.470909 
L 342.227403 -2.470909 
L 341.500651 -2.470909 
L 340.773899 -2.470909 
L 340.047148 -2.470909 
L 339.320396 -2.470909 
L 338.593644 -2.470909 
L 337.866892 -2.470909 
L 337.140141 -2.470909 
L 336.413389 -2.470909 
L 335.686637 -2.470909 
L 334.959885 -2.470909 
L 334.233134 -2.470909 
L 333.506382 -2.470909 
L 332.77963 -2.470909 
L 332.052878 -2.470909 
L 331.326127 -2.470909 
L 330.599375 -2.470909 
L 329.872623 -2.470909 
L 329.145871 -2.470909 
L 328.41912 -2.470909 
L 327.692368 -2.470909 
L 326.965616 -2.470909 
L 326.238864 -2.470909 
L 325.512113 -2.470909 
L 324.785361 -2.470909 
L 324.058609 -2.470909 
L 323.331857 -2.470909 
L 322.605105 -2.470909 
L 321.878354 -2.470909 
L 321.151602 -2.470909 
L 320.42485 -2.470909 
L 319.698098 -2.470909 
L 318.971347 -2.470909 
L 318.244595 -2.470909 
L 317.517843 -2.470909 
L 316.791091 -2.470909 
L 316.06434 -2.470909 
L 315.337588 -2.470909 
L 314.610836 -2.470909 
L 313.884084 -2.470909 
L 313.157333 -2.470909 
L 312.430581 -2.470909 
L 311.703829 -2.470909 
L 310.977077 -2.470909 
L 310.250326 -2.470909 
L 309.523574 -2.470909 
L 308.796822 -2.470909 
L 308.07007 -2.470909 
L 307.343319 -2.470909 
L 306.616567 -2.470909 
L 305.889815 -2.470909 
L 305.163063 -2.470909 
z
" style="stroke: #116dc2; stroke-opacity: 0.2"/>
    </defs>
    <g clip-path="url(#p60d96ef518)">
     <use xlink:href="#meba140ff49" x="0" y="54.36" style="fill: #116dc2; fill-opacity: 0.2; stroke: #116dc2; stroke-opacity: 0.2"/>
    </g>
   </g>
   <g id="PolyCollection_3">
    <defs>
     <path id="madf750c7c6" d="M 25.363636 -2.470909 
L 25.363636 -4.756181 
L 26.090388 -5.268677 
L 26.81714 -5.905525 
L 27.543892 -6.726339 
L 28.270643 -7.721559 
L 28.997395 -8.819666 
L 29.724147 -9.968148 
L 30.450899 -11.190323 
L 31.17765 -12.541235 
L 31.904402 -14.033408 
L 32.631154 -15.64291 
L 33.357906 -17.363488 
L 34.084657 -19.211756 
L 34.811409 -21.195321 
L 35.538161 -23.302667 
L 36.264913 -25.518026 
L 36.991664 -27.855807 
L 37.718416 -30.380505 
L 38.445168 -33.129338 
L 39.17192 -35.992223 
L 39.898672 -38.727726 
L 40.625423 -41.107475 
L 41.352175 -43.040151 
L 42.078927 -44.631772 
L 42.805679 -46.150492 
L 43.53243 -47.8263 
L 44.259182 -49.594147 
L 44.985934 -51.069904 
L 45.712686 -51.861261 
L 46.439437 -51.889091 
L 47.166189 -51.355704 
L 47.892941 -50.483081 
L 48.619693 -49.397085 
L 49.346444 -48.208147 
L 50.073196 -47.05306 
L 50.799948 -45.985695 
L 51.5267 -44.861545 
L 52.253451 -43.406619 
L 52.980203 -41.420617 
L 53.706955 -38.912087 
L 54.433707 -36.099769 
L 55.160458 -33.29353 
L 55.88721 -30.691762 
L 56.613962 -28.277843 
L 57.340714 -25.924382 
L 58.067465 -23.54591 
L 58.794217 -21.156371 
L 59.520969 -18.843251 
L 60.247721 -16.691207 
L 60.974473 -14.730203 
L 61.701224 -12.974243 
L 62.427976 -11.469771 
L 63.154728 -10.264053 
L 63.88148 -9.342541 
L 64.608231 -8.613001 
L 65.334983 -7.945561 
L 66.061735 -7.237615 
L 66.788487 -6.456751 
L 67.515238 -5.635925 
L 67.515238 -2.470909 
L 67.515238 -2.470909 
L 66.788487 -2.470909 
L 66.061735 -2.470909 
L 65.334983 -2.470909 
L 64.608231 -2.470909 
L 63.88148 -2.470909 
L 63.154728 -2.470909 
L 62.427976 -2.470909 
L 61.701224 -2.470909 
L 60.974473 -2.470909 
L 60.247721 -2.470909 
L 59.520969 -2.470909 
L 58.794217 -2.470909 
L 58.067465 -2.470909 
L 57.340714 -2.470909 
L 56.613962 -2.470909 
L 55.88721 -2.470909 
L 55.160458 -2.470909 
L 54.433707 -2.470909 
L 53.706955 -2.470909 
L 52.980203 -2.470909 
L 52.253451 -2.470909 
L 51.5267 -2.470909 
L 50.799948 -2.470909 
L 50.073196 -2.470909 
L 49.346444 -2.470909 
L 48.619693 -2.470909 
L 47.892941 -2.470909 
L 47.166189 -2.470909 
L 46.439437 -2.470909 
L 45.712686 -2.470909 
L 44.985934 -2.470909 
L 44.259182 -2.470909 
L 43.53243 -2.470909 
L 42.805679 -2.470909 
L 42.078927 -2.470909 
L 41.352175 -2.470909 
L 40.625423 -2.470909 
L 39.898672 -2.470909 
L 39.17192 -2.470909 
L 38.445168 -2.470909 
L 37.718416 -2.470909 
L 36.991664 -2.470909 
L 36.264913 -2.470909 
L 35.538161 -2.470909 
L 34.811409 -2.470909 
L 34.084657 -2.470909 
L 33.357906 -2.470909 
L 32.631154 -2.470909 
L 31.904402 -2.470909 
L 31.17765 -2.470909 
L 30.450899 -2.470909 
L 29.724147 -2.470909 
L 28.997395 -2.470909 
L 28.270643 -2.470909 
L 27.543892 -2.470909 
L 26.81714 -2.470909 
L 26.090388 -2.470909 
L 25.363636 -2.470909 
z
" style="stroke: #8a8a8a; stroke-opacity: 0.2"/>
    </defs>
    <g clip-path="url(#p60d96ef518)">
     <use xlink:href="#madf750c7c6" x="0" y="54.36" style="fill: #8a8a8a; fill-opacity: 0.2; stroke: #8a8a8a; stroke-opacity: 0.2"/>
    </g>
   </g>
   <g id="line2d_1">
    <path d="M 148.184684 50.46564 
L 156.905705 49.717841 
L 164.173222 48.907308 
L 169.260485 48.154856 
L 174.347747 47.164858 
L 180.888513 45.603813 
L 189.609534 43.545842 
L 198.330555 41.52128 
L 202.691065 40.260756 
L 207.051576 38.743643 
L 212.138838 36.7102 
L 220.859859 33.165417 
L 225.947122 31.362938 
L 239.755405 26.656756 
L 245.569419 24.696907 
L 249.92993 23.481954 
L 254.29044 22.502249 
L 261.557958 21.140045 
L 271.732482 19.428766 
L 278.273248 18.59798 
L 284.087262 18.069083 
L 288.447773 17.88961 
L 292.081532 17.970897 
L 295.71529 18.28445 
L 300.075801 18.917393 
L 305.163063 19.916018 
L 310.250326 21.147242 
L 316.791091 22.9898 
L 324.785361 25.489223 
L 332.77963 28.254531 
L 358.215942 37.456789 
L 366.936963 40.826173 
L 371.297473 42.255732 
L 377.111487 43.886722 
L 385.105757 45.879674 
L 390.919771 47.112268 
L 396.007033 47.953055 
L 402.547799 48.784684 
L 411.26882 49.661149 
L 419.989841 50.311522 
L 423.6236 50.537137 
L 423.6236 50.537137 
" clip-path="url(#p60d96ef518)" style="fill: none; stroke: #cf1313; stroke-width: 1.5; stroke-linecap: square"/>
   </g>
   <g id="line2d_2">
    <path d="M 305.163063 50.527745 
L 313.157333 49.859679 
L 321.151602 48.978036 
L 326.238864 48.256361 
L 329.872623 47.558208 
L 333.506382 46.650856 
L 337.866892 45.320357 
L 342.954155 43.528827 
L 350.221672 40.676422 
L 363.303204 35.469502 
L 367.663715 33.31415 
L 377.111487 28.539213 
L 382.925501 25.921238 
L 389.466267 22.955282 
L 396.733785 19.588947 
L 399.640792 18.52908 
L 402.547799 17.725535 
L 405.454806 17.139949 
L 409.088565 16.627048 
L 412.722324 16.327765 
L 416.356082 16.279641 
L 419.989841 16.491181 
L 424.350352 17.002021 
L 430.164366 17.914486 
L 434.524876 18.803679 
L 437.431883 19.5985 
L 441.065642 20.864033 
L 446.879656 23.230375 
L 455.600677 26.910746 
L 459.234436 28.768797 
L 464.321698 31.706638 
L 469.408961 34.574458 
L 473.042719 36.350789 
L 476.676478 37.845496 
L 481.036989 39.354859 
L 495.572024 43.942803 
L 502.11279 45.778024 
L 507.926804 47.192116 
L 513.740818 48.359348 
L 520.281584 49.418269 
L 526.095598 50.120391 
L 531.909612 50.586119 
L 532.636364 50.631665 
L 532.636364 50.631665 
" clip-path="url(#p60d96ef518)" style="fill: none; stroke: #116dc2; stroke-width: 1.5; stroke-linecap: square"/>
   </g>
   <g id="line2d_3">
    <path d="M 25.363636 49.603819 
L 26.090388 49.091323 
L 26.81714 48.454475 
L 27.543892 47.633661 
L 28.270643 46.638441 
L 28.997395 45.540334 
L 29.724147 44.391852 
L 30.450899 43.169677 
L 31.17765 41.818765 
L 31.904402 40.326592 
L 32.631154 38.71709 
L 33.357906 36.996512 
L 34.084657 35.148244 
L 34.811409 33.164679 
L 35.538161 31.057333 
L 36.264913 28.841974 
L 36.991664 26.504193 
L 37.718416 23.979495 
L 38.445168 21.230662 
L 39.17192 18.367777 
L 39.898672 15.632274 
L 40.625423 13.252525 
L 41.352175 11.319849 
L 42.078927 9.728228 
L 42.805679 8.209508 
L 43.53243 6.5337 
L 44.259182 4.765853 
L 44.985934 3.290096 
L 45.712686 2.498739 
L 46.439437 2.470909 
L 47.166189 3.004296 
L 47.892941 3.876919 
L 48.619693 4.962915 
L 49.346444 6.151853 
L 50.073196 7.30694 
L 50.799948 8.374305 
L 51.5267 9.498455 
L 52.253451 10.953381 
L 52.980203 12.939383 
L 53.706955 15.447913 
L 54.433707 18.260231 
L 55.160458 21.06647 
L 55.88721 23.668238 
L 56.613962 26.082157 
L 57.340714 28.435618 
L 58.067465 30.81409 
L 58.794217 33.203629 
L 59.520969 35.516749 
L 60.247721 37.668793 
L 60.974473 39.629797 
L 61.701224 41.385757 
L 62.427976 42.890229 
L 63.154728 44.095947 
L 63.88148 45.017459 
L 64.608231 45.746999 
L 65.334983 46.414439 
L 66.061735 47.122385 
L 66.788487 47.903249 
L 67.515238 48.724075 
" clip-path="url(#p60d96ef518)" style="fill: none; stroke: #8a8a8a; stroke-width: 1.5; stroke-linecap: square"/>
   </g>
  </g>
 </g>
 <defs>
  <clipPath id="p60d96ef518">
   <rect x="0" y="-0" width="558" height="54.36"/>
  </clipPath>
 </defs>
</svg>
