<?xml version="1.0" encoding="utf-8" standalone="no"?>
<!DOCTYPE svg PUBLIC "-//W3C//DTD SVG 1.1//EN"
  "http://www.w3.org/Graphics/SVG/1.1/DTD/svg11.dtd">
<svg xmlns:xlink="http://www.w3.org/1999/xlink" width="558pt" height="54.36pt" viewBox="0 0 558 54.36" xmlns="http://www.w3.org/2000/svg" version="1.1">
 <metadata>
  <rdf:RDF xmlns:dc="http://purl.org/dc/elements/1.1/" xmlns:cc="http://creativecommons.org/ns#" xmlns:rdf="http://www.w3.org/1999/02/22-rdf-syntax-ns#">
   <cc:Work>
    <dc:type rdf:resource="http://purl.org/dc/dcmitype/StillImage"/>
    <dc:date>2024-09-15T09:31:46.471679</dc:date>
    <dc:format>image/svg+xml</dc:format>
    <dc:creator>
     <cc:Agent>
      <dc:title>Matplotlib v3.5.2, https://matplotlib.org/</dc:title>
     </cc:Agent>
    </dc:creator>
   </cc:Work>
  </rdf:RDF>
 </metadata>
 <defs>
  <style type="text/css">*{stroke-linejoin: round; stroke-linecap: butt}</style>
 </defs>
 <g id="figure_1">
  <g id="patch_1">
   <path d="M 0 54.36 
L 558 54.36 
L 558 0 
L 0 0 
L 0 54.36 
z
" style="fill: none; opacity: 0"/>
  </g>
  <g id="axes_1">
   <g id="PolyCollection_1">
    <defs>
     <path id="m419bc6a509" d="M 150.343874 -2.470909 
L 150.343874 -3.830233 
L 151.079051 -3.882849 
L 151.814229 -3.937577 
L 152.549407 -3.994617 
L 153.284585 -4.054157 
L 154.019763 -4.116369 
L 154.754941 -4.181398 
L 155.490119 -4.249354 
L 156.225296 -4.320309 
L 156.960474 -4.394287 
L 157.695652 -4.471267 
L 158.43083 -4.551176 
L 159.166008 -4.633896 
L 159.901186 -4.71926 
L 160.636364 -4.807065 
L 161.371542 -4.89707 
L 162.106719 -4.989012 
L 162.841897 -5.082608 
L 163.577075 -5.177569 
L 164.312253 -5.273609 
L 165.047431 -5.370454 
L 165.782609 -5.467853 
L 166.517787 -5.565584 
L 167.252964 -5.663464 
L 167.988142 -5.761351 
L 168.72332 -5.859153 
L 169.458498 -5.956825 
L 170.193676 -6.054376 
L 170.928854 -6.151865 
L 171.664032 -6.249399 
L 172.399209 -6.34713 
L 173.134387 -6.445251 
L 173.869565 -6.543994 
L 174.604743 -6.643621 
L 175.339921 -6.74442 
L 176.075099 -6.846701 
L 176.810277 -6.950787 
L 177.545455 -7.057015 
L 178.280632 -7.165727 
L 179.01581 -7.277269 
L 179.750988 -7.391984 
L 180.486166 -7.510215 
L 181.221344 -7.632296 
L 181.956522 -7.758555 
L 182.6917 -7.889309 
L 183.426877 -8.024862 
L 184.162055 -8.165503 
L 184.897233 -8.311504 
L 185.632411 -8.463118 
L 186.367589 -8.62057 
L 187.102767 -8.784059 
L 187.837945 -8.95375 
L 188.573123 -9.129768 
L 189.3083 -9.312191 
L 190.043478 -9.501048 
L 190.778656 -9.696307 
L 191.513834 -9.897871 
L 192.249012 -10.105573 
L 192.98419 -10.319169 
L 193.719368 -10.538337 
L 194.454545 -10.762673 
L 195.189723 -10.991694 
L 195.924901 -11.224843 
L 196.660079 -11.46149 
L 197.395257 -11.700949 
L 198.130435 -11.942485 
L 198.865613 -12.185334 
L 199.600791 -12.428718 
L 200.335968 -12.671868 
L 201.071146 -12.914046 
L 201.806324 -13.154565 
L 202.541502 -13.392814 
L 203.27668 -13.628278 
L 204.011858 -13.860553 
L 204.747036 -14.089368 
L 205.482213 -14.31459 
L 206.217391 -14.536233 
L 206.952569 -14.754463 
L 207.687747 -14.969589 
L 208.422925 -15.182058 
L 209.158103 -15.39244 
L 209.893281 -15.601413 
L 210.628458 -15.809737 
L 211.363636 -16.018237 
L 212.098814 -16.227772 
L 212.833992 -16.439211 
L 213.56917 -16.653406 
L 214.304348 -16.87117 
L 215.039526 -17.093251 
L 215.774704 -17.320315 
L 216.509881 -17.552925 
L 217.245059 -17.791532 
L 217.980237 -18.036463 
L 218.715415 -18.287915 
L 219.450593 -18.545953 
L 220.185771 -18.810511 
L 220.920949 -19.081393 
L 221.656126 -19.358285 
L 222.391304 -19.64076 
L 223.126482 -19.928292 
L 223.86166 -20.220268 
L 224.596838 -20.516002 
L 225.332016 -20.814756 
L 226.067194 -21.115752 
L 226.802372 -21.418195 
L 227.537549 -21.721289 
L 228.272727 -22.024261 
L 229.007905 -22.326376 
L 229.743083 -22.626959 
L 230.478261 -22.925413 
L 231.213439 -23.221235 
L 231.948617 -23.514032 
L 232.683794 -23.803533 
L 233.418972 -24.089597 
L 234.15415 -24.372222 
L 234.889328 -24.651541 
L 235.624506 -24.927825 
L 236.359684 -25.201469 
L 237.094862 -25.472988 
L 237.83004 -25.742992 
L 238.565217 -26.01217 
L 239.300395 -26.281266 
L 240.035573 -26.551048 
L 240.770751 -26.822284 
L 241.505929 -27.095706 
L 242.241107 -27.371984 
L 242.976285 -27.651698 
L 243.711462 -27.935302 
L 244.44664 -28.223112 
L 245.181818 -28.515274 
L 245.916996 -28.811756 
L 246.652174 -29.112336 
L 247.387352 -29.416593 
L 248.12253 -29.723912 
L 248.857708 -30.033488 
L 249.592885 -30.34434 
L 250.328063 -30.655326 
L 251.063241 -30.965166 
L 251.798419 -31.272466 
L 252.533597 -31.575752 
L 253.268775 -31.873496 
L 254.003953 -32.164153 
L 254.73913 -32.446192 
L 255.474308 -32.718135 
L 256.209486 -32.978585 
L 256.944664 -33.226262 
L 257.679842 -33.460027 
L 258.41502 -33.678915 
L 259.150198 -33.882148 
L 259.885375 -34.069161 
L 260.620553 -34.23961 
L 261.355731 -34.393384 
L 262.090909 -34.530601 
L 262.826087 -34.651615 
L 263.561265 -34.757 
L 264.296443 -34.847543 
L 265.031621 -34.924222 
L 265.766798 -34.988191 
L 266.501976 -35.040749 
L 267.237154 -35.083318 
L 267.972332 -35.117407 
L 268.70751 -35.144589 
L 269.442688 -35.166462 
L 270.177866 -35.18462 
L 270.913043 -35.200624 
L 271.648221 -35.215969 
L 272.383399 -35.232058 
L 273.118577 -35.250177 
L 273.853755 -35.271473 
L 274.588933 -35.296932 
L 275.324111 -35.327366 
L 276.059289 -35.363395 
L 276.794466 -35.405444 
L 277.529644 -35.453732 
L 278.264822 -35.508273 
L 279 -35.568876 
L 279.735178 -35.635147 
L 280.470356 -35.706505 
L 281.205534 -35.782186 
L 281.940711 -35.861264 
L 282.675889 -35.942666 
L 283.411067 -36.025197 
L 284.146245 -36.107561 
L 284.881423 -36.188392 
L 285.616601 -36.266277 
L 286.351779 -36.339794 
L 287.086957 -36.407536 
L 287.822134 -36.468144 
L 288.557312 -36.52034 
L 289.29249 -36.562951 
L 290.027668 -36.594936 
L 290.762846 -36.61541 
L 291.498024 -36.623661 
L 292.233202 -36.619161 
L 292.968379 -36.601575 
L 293.703557 -36.570763 
L 294.438735 -36.526775 
L 295.173913 -36.469839 
L 295.909091 -36.400345 
L 296.644269 -36.318826 
L 297.379447 -36.225927 
L 298.114625 -36.12238 
L 298.849802 -36.00897 
L 299.58498 -35.886504 
L 300.320158 -35.755777 
L 301.055336 -35.617546 
L 301.790514 -35.472496 
L 302.525692 -35.321224 
L 303.26087 -35.164221 
L 303.996047 -35.001853 
L 304.731225 -34.834367 
L 305.466403 -34.661884 
L 306.201581 -34.48441 
L 306.936759 -34.301849 
L 307.671937 -34.114024 
L 308.407115 -33.920698 
L 309.142292 -33.721598 
L 309.87747 -33.516447 
L 310.612648 -33.304987 
L 311.347826 -33.087009 
L 312.083004 -32.862373 
L 312.818182 -32.631031 
L 313.55336 -32.393039 
L 314.288538 -32.148568 
L 315.023715 -31.897905 
L 315.758893 -31.641455 
L 316.494071 -31.379729 
L 317.229249 -31.113329 
L 317.964427 -30.842932 
L 318.699605 -30.569268 
L 319.434783 -30.293093 
L 320.16996 -30.015166 
L 320.905138 -29.736225 
L 321.640316 -29.45696 
L 322.375494 -29.177994 
L 323.110672 -28.899866 
L 323.84585 -28.623019 
L 324.581028 -28.347789 
L 325.316206 -28.074404 
L 326.051383 -27.802987 
L 326.786561 -27.533558 
L 327.521739 -27.26605 
L 328.256917 -27.000316 
L 328.992095 -26.736151 
L 329.727273 -26.473302 
L 330.462451 -26.211492 
L 331.197628 -25.95043 
L 331.932806 -25.68983 
L 332.667984 -25.429426 
L 333.403162 -25.168976 
L 334.13834 -24.908275 
L 334.873518 -24.647161 
L 335.608696 -24.385513 
L 336.343874 -24.123252 
L 337.079051 -23.860344 
L 337.814229 -23.596785 
L 338.549407 -23.332607 
L 339.284585 -23.067864 
L 340.019763 -22.802627 
L 340.754941 -22.536979 
L 341.490119 -22.271008 
L 342.225296 -22.0048 
L 342.960474 -21.738436 
L 343.695652 -21.471988 
L 344.43083 -21.205514 
L 345.166008 -20.939062 
L 345.901186 -20.672665 
L 346.636364 -20.406346 
L 347.371542 -20.140115 
L 348.106719 -19.873979 
L 348.841897 -19.607943 
L 349.577075 -19.342013 
L 350.312253 -19.076208 
L 351.047431 -18.810562 
L 351.782609 -18.54513 
L 352.517787 -18.280001 
L 353.252964 -18.015299 
L 353.988142 -17.75119 
L 354.72332 -17.487889 
L 355.458498 -17.225659 
L 356.193676 -16.964816 
L 356.928854 -16.705726 
L 357.664032 -16.4488 
L 358.399209 -16.194487 
L 359.134387 -15.943268 
L 359.869565 -15.69564 
L 360.604743 -15.452103 
L 361.339921 -15.213144 
L 362.075099 -14.979219 
L 362.810277 -14.750737 
L 363.545455 -14.528042 
L 364.280632 -14.311397 
L 365.01581 -14.100971 
L 365.750988 -13.896831 
L 366.486166 -13.698928 
L 367.221344 -13.507101 
L 367.956522 -13.321077 
L 368.6917 -13.140472 
L 369.426877 -12.964805 
L 370.162055 -12.793509 
L 370.897233 -12.625949 
L 371.632411 -12.461438 
L 372.367589 -12.299261 
L 373.102767 -12.138691 
L 373.837945 -11.979017 
L 374.573123 -11.819559 
L 375.3083 -11.659689 
L 376.043478 -11.498849 
L 376.778656 -11.336563 
L 377.513834 -11.172453 
L 378.249012 -11.00624 
L 378.98419 -10.837756 
L 379.719368 -10.666942 
L 380.454545 -10.493848 
L 381.189723 -10.318628 
L 381.924901 -10.141532 
L 382.660079 -9.962899 
L 383.395257 -9.783141 
L 384.130435 -9.602737 
L 384.865613 -9.422211 
L 385.600791 -9.24212 
L 386.335968 -9.063042 
L 387.071146 -8.885554 
L 387.806324 -8.710221 
L 388.541502 -8.537581 
L 389.27668 -8.368133 
L 390.011858 -8.202324 
L 390.747036 -8.04054 
L 391.482213 -7.883098 
L 392.217391 -7.730245 
L 392.952569 -7.582148 
L 393.687747 -7.4389 
L 394.422925 -7.30052 
L 395.158103 -7.166955 
L 395.893281 -7.03809 
L 396.628458 -6.913753 
L 397.363636 -6.793727 
L 398.098814 -6.677757 
L 398.833992 -6.565563 
L 399.56917 -6.456853 
L 400.304348 -6.351328 
L 401.039526 -6.248698 
L 401.774704 -6.148686 
L 402.509881 -6.051042 
L 403.245059 -5.955539 
L 403.980237 -5.861988 
L 404.715415 -5.770233 
L 405.450593 -5.680154 
L 406.185771 -5.591666 
L 406.920949 -5.504717 
L 407.656126 -5.419284 
L 408.391304 -5.335365 
L 409.126482 -5.252979 
L 409.86166 -5.172155 
L 410.596838 -5.092932 
L 411.332016 -5.015347 
L 412.067194 -4.939436 
L 412.802372 -4.865226 
L 413.537549 -4.792737 
L 414.272727 -4.721975 
L 415.007905 -4.652932 
L 415.743083 -4.585593 
L 416.478261 -4.519928 
L 417.213439 -4.455902 
L 417.948617 -4.393473 
L 418.683794 -4.332596 
L 419.418972 -4.27323 
L 420.15415 -4.215335 
L 420.889328 -4.158878 
L 421.624506 -4.103838 
L 422.359684 -4.0502 
L 423.094862 -3.997961 
L 423.83004 -3.94713 
L 424.565217 -3.897721 
L 424.565217 -2.470909 
L 424.565217 -2.470909 
L 423.83004 -2.470909 
L 423.094862 -2.470909 
L 422.359684 -2.470909 
L 421.624506 -2.470909 
L 420.889328 -2.470909 
L 420.15415 -2.470909 
L 419.418972 -2.470909 
L 418.683794 -2.470909 
L 417.948617 -2.470909 
L 417.213439 -2.470909 
L 416.478261 -2.470909 
L 415.743083 -2.470909 
L 415.007905 -2.470909 
L 414.272727 -2.470909 
L 413.537549 -2.470909 
L 412.802372 -2.470909 
L 412.067194 -2.470909 
L 411.332016 -2.470909 
L 410.596838 -2.470909 
L 409.86166 -2.470909 
L 409.126482 -2.470909 
L 408.391304 -2.470909 
L 407.656126 -2.470909 
L 406.920949 -2.470909 
L 406.185771 -2.470909 
L 405.450593 -2.470909 
L 404.715415 -2.470909 
L 403.980237 -2.470909 
L 403.245059 -2.470909 
L 402.509881 -2.470909 
L 401.774704 -2.470909 
L 401.039526 -2.470909 
L 400.304348 -2.470909 
L 399.56917 -2.470909 
L 398.833992 -2.470909 
L 398.098814 -2.470909 
L 397.363636 -2.470909 
L 396.628458 -2.470909 
L 395.893281 -2.470909 
L 395.158103 -2.470909 
L 394.422925 -2.470909 
L 393.687747 -2.470909 
L 392.952569 -2.470909 
L 392.217391 -2.470909 
L 391.482213 -2.470909 
L 390.747036 -2.470909 
L 390.011858 -2.470909 
L 389.27668 -2.470909 
L 388.541502 -2.470909 
L 387.806324 -2.470909 
L 387.071146 -2.470909 
L 386.335968 -2.470909 
L 385.600791 -2.470909 
L 384.865613 -2.470909 
L 384.130435 -2.470909 
L 383.395257 -2.470909 
L 382.660079 -2.470909 
L 381.924901 -2.470909 
L 381.189723 -2.470909 
L 380.454545 -2.470909 
L 379.719368 -2.470909 
L 378.98419 -2.470909 
L 378.249012 -2.470909 
L 377.513834 -2.470909 
L 376.778656 -2.470909 
L 376.043478 -2.470909 
L 375.3083 -2.470909 
L 374.573123 -2.470909 
L 373.837945 -2.470909 
L 373.102767 -2.470909 
L 372.367589 -2.470909 
L 371.632411 -2.470909 
L 370.897233 -2.470909 
L 370.162055 -2.470909 
L 369.426877 -2.470909 
L 368.6917 -2.470909 
L 367.956522 -2.470909 
L 367.221344 -2.470909 
L 366.486166 -2.470909 
L 365.750988 -2.470909 
L 365.01581 -2.470909 
L 364.280632 -2.470909 
L 363.545455 -2.470909 
L 362.810277 -2.470909 
L 362.075099 -2.470909 
L 361.339921 -2.470909 
L 360.604743 -2.470909 
L 359.869565 -2.470909 
L 359.134387 -2.470909 
L 358.399209 -2.470909 
L 357.664032 -2.470909 
L 356.928854 -2.470909 
L 356.193676 -2.470909 
L 355.458498 -2.470909 
L 354.72332 -2.470909 
L 353.988142 -2.470909 
L 353.252964 -2.470909 
L 352.517787 -2.470909 
L 351.782609 -2.470909 
L 351.047431 -2.470909 
L 350.312253 -2.470909 
L 349.577075 -2.470909 
L 348.841897 -2.470909 
L 348.106719 -2.470909 
L 347.371542 -2.470909 
L 346.636364 -2.470909 
L 345.901186 -2.470909 
L 345.166008 -2.470909 
L 344.43083 -2.470909 
L 343.695652 -2.470909 
L 342.960474 -2.470909 
L 342.225296 -2.470909 
L 341.490119 -2.470909 
L 340.754941 -2.470909 
L 340.019763 -2.470909 
L 339.284585 -2.470909 
L 338.549407 -2.470909 
L 337.814229 -2.470909 
L 337.079051 -2.470909 
L 336.343874 -2.470909 
L 335.608696 -2.470909 
L 334.873518 -2.470909 
L 334.13834 -2.470909 
L 333.403162 -2.470909 
L 332.667984 -2.470909 
L 331.932806 -2.470909 
L 331.197628 -2.470909 
L 330.462451 -2.470909 
L 329.727273 -2.470909 
L 328.992095 -2.470909 
L 328.256917 -2.470909 
L 327.521739 -2.470909 
L 326.786561 -2.470909 
L 326.051383 -2.470909 
L 325.316206 -2.470909 
L 324.581028 -2.470909 
L 323.84585 -2.470909 
L 323.110672 -2.470909 
L 322.375494 -2.470909 
L 321.640316 -2.470909 
L 320.905138 -2.470909 
L 320.16996 -2.470909 
L 319.434783 -2.470909 
L 318.699605 -2.470909 
L 317.964427 -2.470909 
L 317.229249 -2.470909 
L 316.494071 -2.470909 
L 315.758893 -2.470909 
L 315.023715 -2.470909 
L 314.288538 -2.470909 
L 313.55336 -2.470909 
L 312.818182 -2.470909 
L 312.083004 -2.470909 
L 311.347826 -2.470909 
L 310.612648 -2.470909 
L 309.87747 -2.470909 
L 309.142292 -2.470909 
L 308.407115 -2.470909 
L 307.671937 -2.470909 
L 306.936759 -2.470909 
L 306.201581 -2.470909 
L 305.466403 -2.470909 
L 304.731225 -2.470909 
L 303.996047 -2.470909 
L 303.26087 -2.470909 
L 302.525692 -2.470909 
L 301.790514 -2.470909 
L 301.055336 -2.470909 
L 300.320158 -2.470909 
L 299.58498 -2.470909 
L 298.849802 -2.470909 
L 298.114625 -2.470909 
L 297.379447 -2.470909 
L 296.644269 -2.470909 
L 295.909091 -2.470909 
L 295.173913 -2.470909 
L 294.438735 -2.470909 
L 293.703557 -2.470909 
L 292.968379 -2.470909 
L 292.233202 -2.470909 
L 291.498024 -2.470909 
L 290.762846 -2.470909 
L 290.027668 -2.470909 
L 289.29249 -2.470909 
L 288.557312 -2.470909 
L 287.822134 -2.470909 
L 287.086957 -2.470909 
L 286.351779 -2.470909 
L 285.616601 -2.470909 
L 284.881423 -2.470909 
L 284.146245 -2.470909 
L 283.411067 -2.470909 
L 282.675889 -2.470909 
L 281.940711 -2.470909 
L 281.205534 -2.470909 
L 280.470356 -2.470909 
L 279.735178 -2.470909 
L 279 -2.470909 
L 278.264822 -2.470909 
L 277.529644 -2.470909 
L 276.794466 -2.470909 
L 276.059289 -2.470909 
L 275.324111 -2.470909 
L 274.588933 -2.470909 
L 273.853755 -2.470909 
L 273.118577 -2.470909 
L 272.383399 -2.470909 
L 271.648221 -2.470909 
L 270.913043 -2.470909 
L 270.177866 -2.470909 
L 269.442688 -2.470909 
L 268.70751 -2.470909 
L 267.972332 -2.470909 
L 267.237154 -2.470909 
L 266.501976 -2.470909 
L 265.766798 -2.470909 
L 265.031621 -2.470909 
L 264.296443 -2.470909 
L 263.561265 -2.470909 
L 262.826087 -2.470909 
L 262.090909 -2.470909 
L 261.355731 -2.470909 
L 260.620553 -2.470909 
L 259.885375 -2.470909 
L 259.150198 -2.470909 
L 258.41502 -2.470909 
L 257.679842 -2.470909 
L 256.944664 -2.470909 
L 256.209486 -2.470909 
L 255.474308 -2.470909 
L 254.73913 -2.470909 
L 254.003953 -2.470909 
L 253.268775 -2.470909 
L 252.533597 -2.470909 
L 251.798419 -2.470909 
L 251.063241 -2.470909 
L 250.328063 -2.470909 
L 249.592885 -2.470909 
L 248.857708 -2.470909 
L 248.12253 -2.470909 
L 247.387352 -2.470909 
L 246.652174 -2.470909 
L 245.916996 -2.470909 
L 245.181818 -2.470909 
L 244.44664 -2.470909 
L 243.711462 -2.470909 
L 242.976285 -2.470909 
L 242.241107 -2.470909 
L 241.505929 -2.470909 
L 240.770751 -2.470909 
L 240.035573 -2.470909 
L 239.300395 -2.470909 
L 238.565217 -2.470909 
L 237.83004 -2.470909 
L 237.094862 -2.470909 
L 236.359684 -2.470909 
L 235.624506 -2.470909 
L 234.889328 -2.470909 
L 234.15415 -2.470909 
L 233.418972 -2.470909 
L 232.683794 -2.470909 
L 231.948617 -2.470909 
L 231.213439 -2.470909 
L 230.478261 -2.470909 
L 229.743083 -2.470909 
L 229.007905 -2.470909 
L 228.272727 -2.470909 
L 227.537549 -2.470909 
L 226.802372 -2.470909 
L 226.067194 -2.470909 
L 225.332016 -2.470909 
L 224.596838 -2.470909 
L 223.86166 -2.470909 
L 223.126482 -2.470909 
L 222.391304 -2.470909 
L 221.656126 -2.470909 
L 220.920949 -2.470909 
L 220.185771 -2.470909 
L 219.450593 -2.470909 
L 218.715415 -2.470909 
L 217.980237 -2.470909 
L 217.245059 -2.470909 
L 216.509881 -2.470909 
L 215.774704 -2.470909 
L 215.039526 -2.470909 
L 214.304348 -2.470909 
L 213.56917 -2.470909 
L 212.833992 -2.470909 
L 212.098814 -2.470909 
L 211.363636 -2.470909 
L 210.628458 -2.470909 
L 209.893281 -2.470909 
L 209.158103 -2.470909 
L 208.422925 -2.470909 
L 207.687747 -2.470909 
L 206.952569 -2.470909 
L 206.217391 -2.470909 
L 205.482213 -2.470909 
L 204.747036 -2.470909 
L 204.011858 -2.470909 
L 203.27668 -2.470909 
L 202.541502 -2.470909 
L 201.806324 -2.470909 
L 201.071146 -2.470909 
L 200.335968 -2.470909 
L 199.600791 -2.470909 
L 198.865613 -2.470909 
L 198.130435 -2.470909 
L 197.395257 -2.470909 
L 196.660079 -2.470909 
L 195.924901 -2.470909 
L 195.189723 -2.470909 
L 194.454545 -2.470909 
L 193.719368 -2.470909 
L 192.98419 -2.470909 
L 192.249012 -2.470909 
L 191.513834 -2.470909 
L 190.778656 -2.470909 
L 190.043478 -2.470909 
L 189.3083 -2.470909 
L 188.573123 -2.470909 
L 187.837945 -2.470909 
L 187.102767 -2.470909 
L 186.367589 -2.470909 
L 185.632411 -2.470909 
L 184.897233 -2.470909 
L 184.162055 -2.470909 
L 183.426877 -2.470909 
L 182.6917 -2.470909 
L 181.956522 -2.470909 
L 181.221344 -2.470909 
L 180.486166 -2.470909 
L 179.750988 -2.470909 
L 179.01581 -2.470909 
L 178.280632 -2.470909 
L 177.545455 -2.470909 
L 176.810277 -2.470909 
L 176.075099 -2.470909 
L 175.339921 -2.470909 
L 174.604743 -2.470909 
L 173.869565 -2.470909 
L 173.134387 -2.470909 
L 172.399209 -2.470909 
L 171.664032 -2.470909 
L 170.928854 -2.470909 
L 170.193676 -2.470909 
L 169.458498 -2.470909 
L 168.72332 -2.470909 
L 167.988142 -2.470909 
L 167.252964 -2.470909 
L 166.517787 -2.470909 
L 165.782609 -2.470909 
L 165.047431 -2.470909 
L 164.312253 -2.470909 
L 163.577075 -2.470909 
L 162.841897 -2.470909 
L 162.106719 -2.470909 
L 161.371542 -2.470909 
L 160.636364 -2.470909 
L 159.901186 -2.470909 
L 159.166008 -2.470909 
L 158.43083 -2.470909 
L 157.695652 -2.470909 
L 156.960474 -2.470909 
L 156.225296 -2.470909 
L 155.490119 -2.470909 
L 154.754941 -2.470909 
L 154.019763 -2.470909 
L 153.284585 -2.470909 
L 152.549407 -2.470909 
L 151.814229 -2.470909 
L 151.079051 -2.470909 
L 150.343874 -2.470909 
z
" style="stroke: #cf1313; stroke-opacity: 0.2"/>
    </defs>
    <g clip-path="url(#peee3a5f668)">
     <use xlink:href="#m419bc6a509" x="0" y="54.36" style="fill: #cf1313; fill-opacity: 0.2; stroke: #cf1313; stroke-opacity: 0.2"/>
    </g>
   </g>
   <g id="PolyCollection_2">
    <defs>
     <path id="m3434375bd0" d="M 310.612648 -2.470909 
L 310.612648 -4.048752 
L 311.347826 -4.114873 
L 312.083004 -4.182451 
L 312.818182 -4.251567 
L 313.55336 -4.322343 
L 314.288538 -4.394941 
L 315.023715 -4.469551 
L 315.758893 -4.546379 
L 316.494071 -4.625638 
L 317.229249 -4.707531 
L 317.964427 -4.792246 
L 318.699605 -4.879944 
L 319.434783 -4.970753 
L 320.16996 -5.064769 
L 320.905138 -5.162052 
L 321.640316 -5.262637 
L 322.375494 -5.366535 
L 323.110672 -5.473747 
L 323.84585 -5.584269 
L 324.581028 -5.698105 
L 325.316206 -5.815273 
L 326.051383 -5.935813 
L 326.786561 -6.05979 
L 327.521739 -6.187293 
L 328.256917 -6.318435 
L 328.992095 -6.453344 
L 329.727273 -6.592158 
L 330.462451 -6.73501 
L 331.197628 -6.882021 
L 331.932806 -7.033286 
L 332.667984 -7.188865 
L 333.403162 -7.348774 
L 334.13834 -7.512979 
L 334.873518 -7.681397 
L 335.608696 -7.853896 
L 336.343874 -8.030303 
L 337.079051 -8.210412 
L 337.814229 -8.393999 
L 338.549407 -8.580835 
L 339.284585 -8.770696 
L 340.019763 -8.963382 
L 340.754941 -9.158723 
L 341.490119 -9.356588 
L 342.225296 -9.556892 
L 342.960474 -9.75959 
L 343.695652 -9.964678 
L 344.43083 -10.172182 
L 345.166008 -10.382156 
L 345.901186 -10.594662 
L 346.636364 -10.809769 
L 347.371542 -11.027535 
L 348.106719 -11.247998 
L 348.841897 -11.471174 
L 349.577075 -11.697045 
L 350.312253 -11.925557 
L 351.047431 -12.15662 
L 351.782609 -12.390108 
L 352.517787 -12.625861 
L 353.252964 -12.863695 
L 353.988142 -13.103409 
L 354.72332 -13.344799 
L 355.458498 -13.587676 
L 356.193676 -13.831884 
L 356.928854 -14.07732 
L 357.664032 -14.323964 
L 358.399209 -14.571897 
L 359.134387 -14.821325 
L 359.869565 -15.072597 
L 360.604743 -15.326214 
L 361.339921 -15.582836 
L 362.075099 -15.843268 
L 362.810277 -16.108445 
L 363.545455 -16.379398 
L 364.280632 -16.657212 
L 365.01581 -16.942974 
L 365.750988 -17.237713 
L 366.486166 -17.542338 
L 367.221344 -17.857578 
L 367.956522 -18.183923 
L 368.6917 -18.521582 
L 369.426877 -18.870449 
L 370.162055 -19.230089 
L 370.897233 -19.599744 
L 371.632411 -19.978355 
L 372.367589 -20.364606 
L 373.102767 -20.756985 
L 373.837945 -21.153851 
L 374.573123 -21.553518 
L 375.3083 -21.954333 
L 376.043478 -22.354756 
L 376.778656 -22.753423 
L 377.513834 -23.149205 
L 378.249012 -23.541238 
L 378.98419 -23.928941 
L 379.719368 -24.312008 
L 380.454545 -24.690382 
L 381.189723 -25.064212 
L 381.924901 -25.433795 
L 382.660079 -25.799512 
L 383.395257 -26.161763 
L 384.130435 -26.520897 
L 384.865613 -26.877164 
L 385.600791 -27.230664 
L 386.335968 -27.581327 
L 387.071146 -27.928901 
L 387.806324 -28.272964 
L 388.541502 -28.61295 
L 389.27668 -28.948192 
L 390.011858 -29.277979 
L 390.747036 -29.60162 
L 391.482213 -29.918505 
L 392.217391 -30.228177 
L 392.952569 -30.530383 
L 393.687747 -30.825125 
L 394.422925 -31.112691 
L 395.158103 -31.393663 
L 395.893281 -31.668913 
L 396.628458 -31.939572 
L 397.363636 -32.206977 
L 398.098814 -32.472604 
L 398.833992 -32.737974 
L 399.56917 -33.004559 
L 400.304348 -33.273678 
L 401.039526 -33.546387 
L 401.774704 -33.823391 
L 402.509881 -34.104955 
L 403.245059 -34.390849 
L 403.980237 -34.680313 
L 404.715415 -34.972055 
L 405.450593 -35.264277 
L 406.185771 -35.554741 
L 406.920949 -35.840848 
L 407.656126 -36.119757 
L 408.391304 -36.388508 
L 409.126482 -36.644155 
L 409.86166 -36.883904 
L 410.596838 -37.105236 
L 411.332016 -37.306019 
L 412.067194 -37.484589 
L 412.802372 -37.639816 
L 413.537549 -37.771131 
L 414.272727 -37.878528 
L 415.007905 -37.962538 
L 415.743083 -38.024184 
L 416.478261 -38.064905 
L 417.213439 -38.08648 
L 417.948617 -38.090935 
L 418.683794 -38.080453 
L 419.418972 -38.057281 
L 420.15415 -38.023646 
L 420.889328 -37.981686 
L 421.624506 -37.933383 
L 422.359684 -37.880515 
L 423.094862 -37.824617 
L 423.83004 -37.766954 
L 424.565217 -37.708506 
L 425.300395 -37.649959 
L 426.035573 -37.5917 
L 426.770751 -37.533825 
L 427.505929 -37.476144 
L 428.241107 -37.418194 
L 428.976285 -37.359256 
L 429.711462 -37.298373 
L 430.44664 -37.234383 
L 431.181818 -37.16595 
L 431.916996 -37.091606 
L 432.652174 -37.009807 
L 433.387352 -36.918988 
L 434.12253 -36.81763 
L 434.857708 -36.704329 
L 435.592885 -36.577864 
L 436.328063 -36.437267 
L 437.063241 -36.28187 
L 437.798419 -36.111357 
L 438.533597 -35.925783 
L 439.268775 -35.725582 
L 440.003953 -35.511551 
L 440.73913 -35.284809 
L 441.474308 -35.046746 
L 442.209486 -34.79895 
L 442.944664 -34.543121 
L 443.679842 -34.280992 
L 444.41502 -34.014239 
L 445.150198 -33.744407 
L 445.885375 -33.472842 
L 446.620553 -33.200642 
L 447.355731 -32.928622 
L 448.090909 -32.657303 
L 448.826087 -32.386909 
L 449.561265 -32.117386 
L 450.296443 -31.848434 
L 451.031621 -31.57954 
L 451.766798 -31.310025 
L 452.501976 -31.039091 
L 453.237154 -30.765865 
L 453.972332 -30.489442 
L 454.70751 -30.208925 
L 455.442688 -29.923458 
L 456.177866 -29.632253 
L 456.913043 -29.334609 
L 457.648221 -29.029928 
L 458.383399 -28.717722 
L 459.118577 -28.397617 
L 459.853755 -28.069346 
L 460.588933 -27.73275 
L 461.324111 -27.387766 
L 462.059289 -27.034418 
L 462.794466 -26.672814 
L 463.529644 -26.303135 
L 464.264822 -25.925638 
L 465 -25.540658 
L 465.735178 -25.148611 
L 466.470356 -24.75001 
L 467.205534 -24.345475 
L 467.940711 -23.935746 
L 468.675889 -23.521697 
L 469.411067 -23.104342 
L 470.146245 -22.684834 
L 470.881423 -22.26446 
L 471.616601 -21.844619 
L 472.351779 -21.42679 
L 473.086957 -21.012492 
L 473.822134 -20.603238 
L 474.557312 -20.20047 
L 475.29249 -19.805509 
L 476.027668 -19.41949 
L 476.762846 -19.043312 
L 477.498024 -18.677597 
L 478.233202 -18.322658 
L 478.968379 -17.978483 
L 479.703557 -17.644742 
L 480.438735 -17.320805 
L 481.173913 -17.005778 
L 481.909091 -16.698557 
L 482.644269 -16.397886 
L 483.379447 -16.102431 
L 484.114625 -15.81085 
L 484.849802 -15.521863 
L 485.58498 -15.234321 
L 486.320158 -14.947256 
L 487.055336 -14.65993 
L 487.790514 -14.371856 
L 488.525692 -14.08282 
L 489.26087 -13.792873 
L 489.996047 -13.502317 
L 490.731225 -13.211678 
L 491.466403 -12.921669 
L 492.201581 -12.63315 
L 492.936759 -12.347077 
L 493.671937 -12.064461 
L 494.407115 -11.786321 
L 495.142292 -11.513648 
L 495.87747 -11.247368 
L 496.612648 -10.988314 
L 497.347826 -10.737204 
L 498.083004 -10.494627 
L 498.818182 -10.261027 
L 499.55336 -10.036698 
L 500.288538 -9.82178 
L 501.023715 -9.616259 
L 501.758893 -9.419967 
L 502.494071 -9.232588 
L 503.229249 -9.053668 
L 503.964427 -8.88262 
L 504.699605 -8.718748 
L 505.434783 -8.561258 
L 506.16996 -8.409284 
L 506.905138 -8.261914 
L 507.640316 -8.11822 
L 508.375494 -7.977288 
L 509.110672 -7.838253 
L 509.84585 -7.700328 
L 510.581028 -7.562838 
L 511.316206 -7.425241 
L 512.051383 -7.287152 
L 512.786561 -7.148355 
L 513.521739 -7.008808 
L 514.256917 -6.868637 
L 514.992095 -6.728128 
L 515.727273 -6.587703 
L 516.462451 -6.447891 
L 517.197628 -6.309296 
L 517.932806 -6.172557 
L 518.667984 -6.038308 
L 519.403162 -5.907145 
L 520.13834 -5.779584 
L 520.873518 -5.656037 
L 521.608696 -5.536793 
L 522.343874 -5.422 
L 523.079051 -5.31167 
L 523.814229 -5.205681 
L 524.549407 -5.103794 
L 525.284585 -5.005677 
L 526.019763 -4.910931 
L 526.754941 -4.819122 
L 527.490119 -4.729809 
L 528.225296 -4.642578 
L 528.960474 -4.557061 
L 529.695652 -4.472957 
L 530.43083 -4.39005 
L 531.166008 -4.308207 
L 531.901186 -4.227386 
L 532.636364 -4.147624 
L 532.636364 -2.470909 
L 532.636364 -2.470909 
L 531.901186 -2.470909 
L 531.166008 -2.470909 
L 530.43083 -2.470909 
L 529.695652 -2.470909 
L 528.960474 -2.470909 
L 528.225296 -2.470909 
L 527.490119 -2.470909 
L 526.754941 -2.470909 
L 526.019763 -2.470909 
L 525.284585 -2.470909 
L 524.549407 -2.470909 
L 523.814229 -2.470909 
L 523.079051 -2.470909 
L 522.343874 -2.470909 
L 521.608696 -2.470909 
L 520.873518 -2.470909 
L 520.13834 -2.470909 
L 519.403162 -2.470909 
L 518.667984 -2.470909 
L 517.932806 -2.470909 
L 517.197628 -2.470909 
L 516.462451 -2.470909 
L 515.727273 -2.470909 
L 514.992095 -2.470909 
L 514.256917 -2.470909 
L 513.521739 -2.470909 
L 512.786561 -2.470909 
L 512.051383 -2.470909 
L 511.316206 -2.470909 
L 510.581028 -2.470909 
L 509.84585 -2.470909 
L 509.110672 -2.470909 
L 508.375494 -2.470909 
L 507.640316 -2.470909 
L 506.905138 -2.470909 
L 506.16996 -2.470909 
L 505.434783 -2.470909 
L 504.699605 -2.470909 
L 503.964427 -2.470909 
L 503.229249 -2.470909 
L 502.494071 -2.470909 
L 501.758893 -2.470909 
L 501.023715 -2.470909 
L 500.288538 -2.470909 
L 499.55336 -2.470909 
L 498.818182 -2.470909 
L 498.083004 -2.470909 
L 497.347826 -2.470909 
L 496.612648 -2.470909 
L 495.87747 -2.470909 
L 495.142292 -2.470909 
L 494.407115 -2.470909 
L 493.671937 -2.470909 
L 492.936759 -2.470909 
L 492.201581 -2.470909 
L 491.466403 -2.470909 
L 490.731225 -2.470909 
L 489.996047 -2.470909 
L 489.26087 -2.470909 
L 488.525692 -2.470909 
L 487.790514 -2.470909 
L 487.055336 -2.470909 
L 486.320158 -2.470909 
L 485.58498 -2.470909 
L 484.849802 -2.470909 
L 484.114625 -2.470909 
L 483.379447 -2.470909 
L 482.644269 -2.470909 
L 481.909091 -2.470909 
L 481.173913 -2.470909 
L 480.438735 -2.470909 
L 479.703557 -2.470909 
L 478.968379 -2.470909 
L 478.233202 -2.470909 
L 477.498024 -2.470909 
L 476.762846 -2.470909 
L 476.027668 -2.470909 
L 475.29249 -2.470909 
L 474.557312 -2.470909 
L 473.822134 -2.470909 
L 473.086957 -2.470909 
L 472.351779 -2.470909 
L 471.616601 -2.470909 
L 470.881423 -2.470909 
L 470.146245 -2.470909 
L 469.411067 -2.470909 
L 468.675889 -2.470909 
L 467.940711 -2.470909 
L 467.205534 -2.470909 
L 466.470356 -2.470909 
L 465.735178 -2.470909 
L 465 -2.470909 
L 464.264822 -2.470909 
L 463.529644 -2.470909 
L 462.794466 -2.470909 
L 462.059289 -2.470909 
L 461.324111 -2.470909 
L 460.588933 -2.470909 
L 459.853755 -2.470909 
L 459.118577 -2.470909 
L 458.383399 -2.470909 
L 457.648221 -2.470909 
L 456.913043 -2.470909 
L 456.177866 -2.470909 
L 455.442688 -2.470909 
L 454.70751 -2.470909 
L 453.972332 -2.470909 
L 453.237154 -2.470909 
L 452.501976 -2.470909 
L 451.766798 -2.470909 
L 451.031621 -2.470909 
L 450.296443 -2.470909 
L 449.561265 -2.470909 
L 448.826087 -2.470909 
L 448.090909 -2.470909 
L 447.355731 -2.470909 
L 446.620553 -2.470909 
L 445.885375 -2.470909 
L 445.150198 -2.470909 
L 444.41502 -2.470909 
L 443.679842 -2.470909 
L 442.944664 -2.470909 
L 442.209486 -2.470909 
L 441.474308 -2.470909 
L 440.73913 -2.470909 
L 440.003953 -2.470909 
L 439.268775 -2.470909 
L 438.533597 -2.470909 
L 437.798419 -2.470909 
L 437.063241 -2.470909 
L 436.328063 -2.470909 
L 435.592885 -2.470909 
L 434.857708 -2.470909 
L 434.12253 -2.470909 
L 433.387352 -2.470909 
L 432.652174 -2.470909 
L 431.916996 -2.470909 
L 431.181818 -2.470909 
L 430.44664 -2.470909 
L 429.711462 -2.470909 
L 428.976285 -2.470909 
L 428.241107 -2.470909 
L 427.505929 -2.470909 
L 426.770751 -2.470909 
L 426.035573 -2.470909 
L 425.300395 -2.470909 
L 424.565217 -2.470909 
L 423.83004 -2.470909 
L 423.094862 -2.470909 
L 422.359684 -2.470909 
L 421.624506 -2.470909 
L 420.889328 -2.470909 
L 420.15415 -2.470909 
L 419.418972 -2.470909 
L 418.683794 -2.470909 
L 417.948617 -2.470909 
L 417.213439 -2.470909 
L 416.478261 -2.470909 
L 415.743083 -2.470909 
L 415.007905 -2.470909 
L 414.272727 -2.470909 
L 413.537549 -2.470909 
L 412.802372 -2.470909 
L 412.067194 -2.470909 
L 411.332016 -2.470909 
L 410.596838 -2.470909 
L 409.86166 -2.470909 
L 409.126482 -2.470909 
L 408.391304 -2.470909 
L 407.656126 -2.470909 
L 406.920949 -2.470909 
L 406.185771 -2.470909 
L 405.450593 -2.470909 
L 404.715415 -2.470909 
L 403.980237 -2.470909 
L 403.245059 -2.470909 
L 402.509881 -2.470909 
L 401.774704 -2.470909 
L 401.039526 -2.470909 
L 400.304348 -2.470909 
L 399.56917 -2.470909 
L 398.833992 -2.470909 
L 398.098814 -2.470909 
L 397.363636 -2.470909 
L 396.628458 -2.470909 
L 395.893281 -2.470909 
L 395.158103 -2.470909 
L 394.422925 -2.470909 
L 393.687747 -2.470909 
L 392.952569 -2.470909 
L 392.217391 -2.470909 
L 391.482213 -2.470909 
L 390.747036 -2.470909 
L 390.011858 -2.470909 
L 389.27668 -2.470909 
L 388.541502 -2.470909 
L 387.806324 -2.470909 
L 387.071146 -2.470909 
L 386.335968 -2.470909 
L 385.600791 -2.470909 
L 384.865613 -2.470909 
L 384.130435 -2.470909 
L 383.395257 -2.470909 
L 382.660079 -2.470909 
L 381.924901 -2.470909 
L 381.189723 -2.470909 
L 380.454545 -2.470909 
L 379.719368 -2.470909 
L 378.98419 -2.470909 
L 378.249012 -2.470909 
L 377.513834 -2.470909 
L 376.778656 -2.470909 
L 376.043478 -2.470909 
L 375.3083 -2.470909 
L 374.573123 -2.470909 
L 373.837945 -2.470909 
L 373.102767 -2.470909 
L 372.367589 -2.470909 
L 371.632411 -2.470909 
L 370.897233 -2.470909 
L 370.162055 -2.470909 
L 369.426877 -2.470909 
L 368.6917 -2.470909 
L 367.956522 -2.470909 
L 367.221344 -2.470909 
L 366.486166 -2.470909 
L 365.750988 -2.470909 
L 365.01581 -2.470909 
L 364.280632 -2.470909 
L 363.545455 -2.470909 
L 362.810277 -2.470909 
L 362.075099 -2.470909 
L 361.339921 -2.470909 
L 360.604743 -2.470909 
L 359.869565 -2.470909 
L 359.134387 -2.470909 
L 358.399209 -2.470909 
L 357.664032 -2.470909 
L 356.928854 -2.470909 
L 356.193676 -2.470909 
L 355.458498 -2.470909 
L 354.72332 -2.470909 
L 353.988142 -2.470909 
L 353.252964 -2.470909 
L 352.517787 -2.470909 
L 351.782609 -2.470909 
L 351.047431 -2.470909 
L 350.312253 -2.470909 
L 349.577075 -2.470909 
L 348.841897 -2.470909 
L 348.106719 -2.470909 
L 347.371542 -2.470909 
L 346.636364 -2.470909 
L 345.901186 -2.470909 
L 345.166008 -2.470909 
L 344.43083 -2.470909 
L 343.695652 -2.470909 
L 342.960474 -2.470909 
L 342.225296 -2.470909 
L 341.490119 -2.470909 
L 340.754941 -2.470909 
L 340.019763 -2.470909 
L 339.284585 -2.470909 
L 338.549407 -2.470909 
L 337.814229 -2.470909 
L 337.079051 -2.470909 
L 336.343874 -2.470909 
L 335.608696 -2.470909 
L 334.873518 -2.470909 
L 334.13834 -2.470909 
L 333.403162 -2.470909 
L 332.667984 -2.470909 
L 331.932806 -2.470909 
L 331.197628 -2.470909 
L 330.462451 -2.470909 
L 329.727273 -2.470909 
L 328.992095 -2.470909 
L 328.256917 -2.470909 
L 327.521739 -2.470909 
L 326.786561 -2.470909 
L 326.051383 -2.470909 
L 325.316206 -2.470909 
L 324.581028 -2.470909 
L 323.84585 -2.470909 
L 323.110672 -2.470909 
L 322.375494 -2.470909 
L 321.640316 -2.470909 
L 320.905138 -2.470909 
L 320.16996 -2.470909 
L 319.434783 -2.470909 
L 318.699605 -2.470909 
L 317.964427 -2.470909 
L 317.229249 -2.470909 
L 316.494071 -2.470909 
L 315.758893 -2.470909 
L 315.023715 -2.470909 
L 314.288538 -2.470909 
L 313.55336 -2.470909 
L 312.818182 -2.470909 
L 312.083004 -2.470909 
L 311.347826 -2.470909 
L 310.612648 -2.470909 
z
" style="stroke: #116dc2; stroke-opacity: 0.2"/>
    </defs>
    <g clip-path="url(#peee3a5f668)">
     <use xlink:href="#m3434375bd0" x="0" y="54.36" style="fill: #116dc2; fill-opacity: 0.2; stroke: #116dc2; stroke-opacity: 0.2"/>
    </g>
   </g>
   <g id="PolyCollection_3">
    <defs>
     <path id="m98f5bb7c34" d="M 25.363636 -2.470909 
L 25.363636 -5.101415 
L 26.098814 -5.782548 
L 26.833992 -6.558625 
L 27.56917 -7.374598 
L 28.304348 -8.187619 
L 29.039526 -9.003489 
L 29.774704 -9.878152 
L 30.509881 -10.901139 
L 31.245059 -12.148396 
L 31.980237 -13.642806 
L 32.715415 -15.382836 
L 33.450593 -17.374574 
L 34.185771 -19.584507 
L 34.920949 -21.903898 
L 35.656126 -24.216848 
L 36.391304 -26.464364 
L 37.126482 -28.621734 
L 37.86166 -30.688989 
L 38.596838 -32.721682 
L 39.332016 -34.796478 
L 40.067194 -36.925249 
L 40.802372 -39.039012 
L 41.537549 -41.065236 
L 42.272727 -42.997028 
L 43.007905 -44.868967 
L 43.743083 -46.684925 
L 44.478261 -48.39122 
L 45.213439 -49.898249 
L 45.948617 -51.083877 
L 46.683794 -51.787615 
L 47.418972 -51.889091 
L 48.15415 -51.430682 
L 48.889328 -50.608027 
L 49.624506 -49.596521 
L 50.359684 -48.374889 
L 51.094862 -46.717337 
L 51.83004 -44.429582 
L 52.565217 -41.674448 
L 53.300395 -38.969977 
L 54.035573 -36.724989 
L 54.770751 -34.858489 
L 55.505929 -32.96848 
L 56.241107 -30.745247 
L 56.976285 -28.155812 
L 57.711462 -25.379493 
L 58.44664 -22.668491 
L 59.181818 -20.223233 
L 59.916996 -18.120728 
L 60.652174 -16.303127 
L 61.387352 -14.641084 
L 62.12253 -13.057686 
L 62.857708 -11.592453 
L 63.592885 -10.319716 
L 64.328063 -9.224315 
L 65.063241 -8.205415 
L 65.798419 -7.203757 
L 66.533597 -6.266833 
L 67.268775 -5.474146 
L 68.003953 -4.85597 
L 68.73913 -4.394477 
L 68.73913 -2.470909 
L 68.73913 -2.470909 
L 68.003953 -2.470909 
L 67.268775 -2.470909 
L 66.533597 -2.470909 
L 65.798419 -2.470909 
L 65.063241 -2.470909 
L 64.328063 -2.470909 
L 63.592885 -2.470909 
L 62.857708 -2.470909 
L 62.12253 -2.470909 
L 61.387352 -2.470909 
L 60.652174 -2.470909 
L 59.916996 -2.470909 
L 59.181818 -2.470909 
L 58.44664 -2.470909 
L 57.711462 -2.470909 
L 56.976285 -2.470909 
L 56.241107 -2.470909 
L 55.505929 -2.470909 
L 54.770751 -2.470909 
L 54.035573 -2.470909 
L 53.300395 -2.470909 
L 52.565217 -2.470909 
L 51.83004 -2.470909 
L 51.094862 -2.470909 
L 50.359684 -2.470909 
L 49.624506 -2.470909 
L 48.889328 -2.470909 
L 48.15415 -2.470909 
L 47.418972 -2.470909 
L 46.683794 -2.470909 
L 45.948617 -2.470909 
L 45.213439 -2.470909 
L 44.478261 -2.470909 
L 43.743083 -2.470909 
L 43.007905 -2.470909 
L 42.272727 -2.470909 
L 41.537549 -2.470909 
L 40.802372 -2.470909 
L 40.067194 -2.470909 
L 39.332016 -2.470909 
L 38.596838 -2.470909 
L 37.86166 -2.470909 
L 37.126482 -2.470909 
L 36.391304 -2.470909 
L 35.656126 -2.470909 
L 34.920949 -2.470909 
L 34.185771 -2.470909 
L 33.450593 -2.470909 
L 32.715415 -2.470909 
L 31.980237 -2.470909 
L 31.245059 -2.470909 
L 30.509881 -2.470909 
L 29.774704 -2.470909 
L 29.039526 -2.470909 
L 28.304348 -2.470909 
L 27.56917 -2.470909 
L 26.833992 -2.470909 
L 26.098814 -2.470909 
L 25.363636 -2.470909 
z
" style="stroke: #8a8a8a; stroke-opacity: 0.2"/>
    </defs>
    <g clip-path="url(#peee3a5f668)">
     <use xlink:href="#m98f5bb7c34" x="0" y="54.36" style="fill: #8a8a8a; fill-opacity: 0.2; stroke: #8a8a8a; stroke-opacity: 0.2"/>
    </g>
   </g>
   <g id="line2d_1">
    <path d="M 150.343874 50.529767 
L 156.960474 49.965713 
L 164.312253 49.086391 
L 180.486166 46.849785 
L 185.632411 45.896882 
L 190.043478 44.858952 
L 194.454545 43.597327 
L 202.541502 40.967186 
L 208.422925 39.177942 
L 217.245059 36.568468 
L 221.656126 35.001715 
L 227.537549 32.638711 
L 234.889328 29.708459 
L 248.12253 24.636088 
L 255.474308 21.641865 
L 258.41502 20.681085 
L 261.355731 19.966616 
L 264.296443 19.512457 
L 267.237154 19.276682 
L 273.118577 19.109823 
L 278.264822 18.851727 
L 283.411067 18.334803 
L 288.557312 17.83966 
L 291.498024 17.736339 
L 294.438735 17.833225 
L 297.379447 18.134073 
L 301.055336 18.742454 
L 305.466403 19.698116 
L 309.87747 20.843553 
L 314.288538 22.211432 
L 319.434783 24.066907 
L 331.197628 28.40957 
L 353.252964 36.344701 
L 361.339921 39.146856 
L 365.750988 40.463169 
L 370.897233 41.734051 
L 386.335968 45.296958 
L 392.217391 46.629755 
L 397.363636 47.566273 
L 403.980237 48.498012 
L 412.802372 49.494774 
L 421.624506 50.256162 
L 424.565217 50.462279 
L 424.565217 50.462279 
" clip-path="url(#peee3a5f668)" style="fill: none; stroke: #cf1313; stroke-width: 1.5; stroke-linecap: square"/>
   </g>
   <g id="line2d_2">
    <path d="M 310.612648 50.311248 
L 318.699605 49.480056 
L 324.581028 48.661895 
L 330.462451 47.62499 
L 335.608696 46.506104 
L 341.490119 45.003412 
L 348.841897 42.888826 
L 356.193676 40.528116 
L 363.545455 37.980602 
L 367.221344 36.502422 
L 370.897233 34.760256 
L 376.778656 31.606577 
L 382.660079 28.560488 
L 389.27668 25.411808 
L 393.687747 23.534875 
L 398.833992 21.622026 
L 404.715415 19.387945 
L 409.126482 17.715845 
L 411.332016 17.053981 
L 413.537549 16.588869 
L 415.743083 16.335816 
L 418.683794 16.279547 
L 422.359684 16.479485 
L 432.652174 17.350193 
L 435.592885 17.782136 
L 438.533597 18.434217 
L 441.474308 19.313254 
L 446.620553 21.159358 
L 457.648221 25.330072 
L 461.324111 26.972234 
L 465.735178 29.211389 
L 471.616601 32.515381 
L 476.762846 35.316688 
L 480.438735 37.039195 
L 485.58498 39.125679 
L 497.347826 43.622796 
L 501.023715 44.743741 
L 504.699605 45.641252 
L 510.581028 46.797162 
L 523.079051 49.04833 
L 528.960474 49.802939 
L 532.636364 50.212376 
L 532.636364 50.212376 
" clip-path="url(#peee3a5f668)" style="fill: none; stroke: #116dc2; stroke-width: 1.5; stroke-linecap: square"/>
   </g>
   <g id="line2d_3">
    <path d="M 25.363636 49.258585 
L 26.098814 48.577452 
L 26.833992 47.801375 
L 27.56917 46.985402 
L 28.304348 46.172381 
L 29.039526 45.356511 
L 29.774704 44.481848 
L 30.509881 43.458861 
L 31.245059 42.211604 
L 31.980237 40.717194 
L 32.715415 38.977164 
L 33.450593 36.985426 
L 34.185771 34.775493 
L 34.920949 32.456102 
L 35.656126 30.143152 
L 36.391304 27.895636 
L 37.126482 25.738266 
L 37.86166 23.671011 
L 38.596838 21.638318 
L 39.332016 19.563522 
L 40.067194 17.434751 
L 40.802372 15.320988 
L 41.537549 13.294764 
L 42.272727 11.362972 
L 43.007905 9.491033 
L 43.743083 7.675075 
L 44.478261 5.96878 
L 45.213439 4.461751 
L 45.948617 3.276123 
L 46.683794 2.572385 
L 47.418972 2.470909 
L 48.15415 2.929318 
L 48.889328 3.751973 
L 49.624506 4.763479 
L 50.359684 5.985111 
L 51.094862 7.642663 
L 51.83004 9.930418 
L 52.565217 12.685552 
L 53.300395 15.390023 
L 54.035573 17.635011 
L 54.770751 19.501511 
L 55.505929 21.39152 
L 56.241107 23.614753 
L 56.976285 26.204188 
L 57.711462 28.980507 
L 58.44664 31.691509 
L 59.181818 34.136767 
L 59.916996 36.239272 
L 60.652174 38.056873 
L 61.387352 39.718916 
L 62.12253 41.302314 
L 62.857708 42.767547 
L 63.592885 44.040284 
L 64.328063 45.135685 
L 65.063241 46.154585 
L 65.798419 47.156243 
L 66.533597 48.093167 
L 67.268775 48.885854 
L 68.003953 49.50403 
L 68.73913 49.965523 
" clip-path="url(#peee3a5f668)" style="fill: none; stroke: #8a8a8a; stroke-width: 1.5; stroke-linecap: square"/>
   </g>
  </g>
 </g>
 <defs>
  <clipPath id="peee3a5f668">
   <rect x="0" y="-0" width="558" height="54.36"/>
  </clipPath>
 </defs>
</svg>
