<?xml version="1.0" encoding="utf-8" standalone="no"?>
<!DOCTYPE svg PUBLIC "-//W3C//DTD SVG 1.1//EN"
  "http://www.w3.org/Graphics/SVG/1.1/DTD/svg11.dtd">
<svg xmlns:xlink="http://www.w3.org/1999/xlink" width="558pt" height="54.36pt" viewBox="0 0 558 54.36" xmlns="http://www.w3.org/2000/svg" version="1.1">
 <metadata>
  <rdf:RDF xmlns:dc="http://purl.org/dc/elements/1.1/" xmlns:cc="http://creativecommons.org/ns#" xmlns:rdf="http://www.w3.org/1999/02/22-rdf-syntax-ns#">
   <cc:Work>
    <dc:type rdf:resource="http://purl.org/dc/dcmitype/StillImage"/>
    <dc:date>2024-09-15T09:30:48.238921</dc:date>
    <dc:format>image/svg+xml</dc:format>
    <dc:creator>
     <cc:Agent>
      <dc:title>Matplotlib v3.5.2, https://matplotlib.org/</dc:title>
     </cc:Agent>
    </dc:creator>
   </cc:Work>
  </rdf:RDF>
 </metadata>
 <defs>
  <style type="text/css">*{stroke-linejoin: round; stroke-linecap: butt}</style>
 </defs>
 <g id="figure_1">
  <g id="patch_1">
   <path d="M 0 54.36 
L 558 54.36 
L 558 0 
L 0 0 
L 0 54.36 
z
" style="fill: none; opacity: 0"/>
  </g>
  <g id="axes_1">
   <g id="PolyCollection_1">
    <defs>
     <path id="m3d20b12900" d="M 262.042804 -2.470909 
L 262.042804 -3.969444 
L 262.764386 -4.028397 
L 263.485969 -4.089732 
L 264.207552 -4.153358 
L 264.929135 -4.219175 
L 265.650718 -4.28707 
L 266.372301 -4.356924 
L 267.093883 -4.428614 
L 267.815466 -4.502018 
L 268.537049 -4.577012 
L 269.258632 -4.653477 
L 269.980215 -4.731297 
L 270.701797 -4.810361 
L 271.42338 -4.890564 
L 272.144963 -4.971809 
L 272.866546 -5.054005 
L 273.588129 -5.137073 
L 274.309712 -5.220941 
L 275.031294 -5.305551 
L 275.752877 -5.390857 
L 276.47446 -5.476825 
L 277.196043 -5.563435 
L 277.917626 -5.650684 
L 278.639209 -5.738578 
L 279.360791 -5.827138 
L 280.082374 -5.916399 
L 280.803957 -6.006403 
L 281.52554 -6.097202 
L 282.247123 -6.188858 
L 282.968706 -6.281439 
L 283.690288 -6.375018 
L 284.411871 -6.469681 
L 285.133454 -6.565519 
L 285.855037 -6.662639 
L 286.57662 -6.761163 
L 287.298203 -6.861239 
L 288.019785 -6.963037 
L 288.741368 -7.066768 
L 289.462951 -7.172676 
L 290.184534 -7.281056 
L 290.906117 -7.392248 
L 291.627699 -7.506644 
L 292.349282 -7.624686 
L 293.070865 -7.746865 
L 293.792448 -7.873709 
L 294.514031 -8.005781 
L 295.235614 -8.143664 
L 295.957196 -8.287942 
L 296.678779 -8.43919 
L 297.400362 -8.597948 
L 298.121945 -8.764707 
L 298.843528 -8.939888 
L 299.565111 -9.123822 
L 300.286693 -9.316733 
L 301.008276 -9.518728 
L 301.729859 -9.729782 
L 302.451442 -9.949733 
L 303.173025 -10.178281 
L 303.894608 -10.414991 
L 304.61619 -10.659297 
L 305.337773 -10.910517 
L 306.059356 -11.167868 
L 306.780939 -11.430483 
L 307.502522 -11.697438 
L 308.224104 -11.967769 
L 308.945687 -12.240505 
L 309.66727 -12.514691 
L 310.388853 -12.789409 
L 311.110436 -13.06381 
L 311.832019 -13.33713 
L 312.553601 -13.608711 
L 313.275184 -13.878017 
L 313.996767 -14.144645 
L 314.71835 -14.408335 
L 315.439933 -14.668974 
L 316.161516 -14.926593 
L 316.883098 -15.181363 
L 317.604681 -15.433589 
L 318.326264 -15.683694 
L 319.047847 -15.932205 
L 319.76943 -16.179734 
L 320.491013 -16.426956 
L 321.212595 -16.674587 
L 321.934178 -16.923358 
L 322.655761 -17.173993 
L 323.377344 -17.427183 
L 324.098927 -17.683565 
L 324.82051 -17.943696 
L 325.542092 -18.20804 
L 326.263675 -18.476947 
L 326.985258 -18.750644 
L 327.706841 -19.029223 
L 328.428424 -19.312643 
L 329.150006 -19.600722 
L 329.871589 -19.89315 
L 330.593172 -20.189494 
L 331.314755 -20.489213 
L 332.036338 -20.791674 
L 332.757921 -21.096175 
L 333.479503 -21.401965 
L 334.201086 -21.70827 
L 334.922669 -22.014316 
L 335.644252 -22.319355 
L 336.365835 -22.622686 
L 337.087418 -22.92368 
L 337.809 -23.22179 
L 338.530583 -23.516575 
L 339.252166 -23.807702 
L 339.973749 -24.094955 
L 340.695332 -24.378234 
L 341.416915 -24.657554 
L 342.138497 -24.933036 
L 342.86008 -25.204896 
L 343.581663 -25.47343 
L 344.303246 -25.739001 
L 345.024829 -26.002016 
L 345.746411 -26.262916 
L 346.467994 -26.522149 
L 347.189577 -26.780163 
L 347.91116 -27.037385 
L 348.632743 -27.294213 
L 349.354326 -27.551003 
L 350.075908 -27.808064 
L 350.797491 -28.065653 
L 351.519074 -28.323975 
L 352.240657 -28.58318 
L 352.96224 -28.843366 
L 353.683823 -29.104582 
L 354.405405 -29.366829 
L 355.126988 -29.630066 
L 355.848571 -29.894209 
L 356.570154 -30.15913 
L 357.291737 -30.424662 
L 358.01332 -30.690591 
L 358.734902 -30.956659 
L 359.456485 -31.222553 
L 360.178068 -31.487905 
L 360.899651 -31.752288 
L 361.621234 -32.015205 
L 362.342817 -32.276097 
L 363.064399 -32.534334 
L 363.785982 -32.78922 
L 364.507565 -33.04 
L 365.229148 -33.285867 
L 365.950731 -33.525974 
L 366.672313 -33.759454 
L 367.393896 -33.985435 
L 368.115479 -34.203064 
L 368.837062 -34.411532 
L 369.558645 -34.610098 
L 370.280228 -34.798116 
L 371.00181 -34.975056 
L 371.723393 -35.140529 
L 372.444976 -35.294305 
L 373.166559 -35.436324 
L 373.888142 -35.566709 
L 374.609725 -35.685764 
L 375.331307 -35.793975 
L 376.05289 -35.891993 
L 376.774473 -35.980623 
L 377.496056 -36.060796 
L 378.217639 -36.133544 
L 378.939222 -36.199964 
L 379.660804 -36.261184 
L 380.382387 -36.318327 
L 381.10397 -36.372469 
L 381.825553 -36.42461 
L 382.547136 -36.475636 
L 383.268718 -36.526292 
L 383.990301 -36.577165 
L 384.711884 -36.62866 
L 385.433467 -36.681 
L 386.15505 -36.734221 
L 386.876633 -36.788178 
L 387.598215 -36.842561 
L 388.319798 -36.896913 
L 389.041381 -36.950653 
L 389.762964 -37.003105 
L 390.484547 -37.053525 
L 391.20613 -37.101135 
L 391.927712 -37.145147 
L 392.649295 -37.184792 
L 393.370878 -37.219341 
L 394.092461 -37.248128 
L 394.814044 -37.270559 
L 395.535627 -37.286125 
L 396.257209 -37.294402 
L 396.978792 -37.295056 
L 397.700375 -37.287836 
L 398.421958 -37.272566 
L 399.143541 -37.249136 
L 399.865123 -37.217493 
L 400.586706 -37.17763 
L 401.308289 -37.129573 
L 402.029872 -37.073375 
L 402.751455 -37.009108 
L 403.473038 -36.936856 
L 404.19462 -36.856716 
L 404.916203 -36.768793 
L 405.637786 -36.673205 
L 406.359369 -36.570085 
L 407.080952 -36.459581 
L 407.802535 -36.341865 
L 408.524117 -36.217136 
L 409.2457 -36.085616 
L 409.967283 -35.94756 
L 410.688866 -35.803248 
L 411.410449 -35.652984 
L 412.132032 -35.49709 
L 412.853614 -35.335899 
L 413.575197 -35.169747 
L 414.29678 -34.998957 
L 415.018363 -34.823835 
L 415.739946 -34.644655 
L 416.461529 -34.461654 
L 417.183111 -34.275018 
L 417.904694 -34.084885 
L 418.626277 -33.891338 
L 419.34786 -33.694408 
L 420.069443 -33.494082 
L 420.791025 -33.290306 
L 421.512608 -33.083003 
L 422.234191 -32.87208 
L 422.955774 -32.657446 
L 423.677357 -32.439028 
L 424.39894 -32.21678 
L 425.120522 -31.990701 
L 425.842105 -31.760838 
L 426.563688 -31.5273 
L 427.285271 -31.290252 
L 428.006854 -31.04992 
L 428.728437 -30.806581 
L 429.450019 -30.560555 
L 430.171602 -30.31219 
L 430.893185 -30.061852 
L 431.614768 -29.809904 
L 432.336351 -29.556693 
L 433.057934 -29.302529 
L 433.779516 -29.04768 
L 434.501099 -28.792352 
L 435.222682 -28.536686 
L 435.944265 -28.280751 
L 436.665848 -28.024548 
L 437.38743 -27.768011 
L 438.109013 -27.511012 
L 438.830596 -27.253378 
L 439.552179 -26.994897 
L 440.273762 -26.735339 
L 440.995345 -26.474464 
L 441.716927 -26.212044 
L 442.43851 -25.947873 
L 443.160093 -25.681781 
L 443.881676 -25.413641 
L 444.603259 -25.14338 
L 445.324842 -24.87098 
L 446.046424 -24.596481 
L 446.768007 -24.319978 
L 447.48959 -24.041613 
L 448.211173 -23.761576 
L 448.932756 -23.480087 
L 449.654339 -23.197392 
L 450.375921 -22.913751 
L 451.097504 -22.629427 
L 451.819087 -22.344676 
L 452.54067 -22.05974 
L 453.262253 -21.774838 
L 453.983836 -21.490162 
L 454.705418 -21.205872 
L 455.427001 -20.922096 
L 456.148584 -20.638928 
L 456.870167 -20.356433 
L 457.59175 -20.074651 
L 458.313332 -19.793595 
L 459.034915 -19.513269 
L 459.756498 -19.233664 
L 460.478081 -18.95477 
L 461.199664 -18.676587 
L 461.921247 -18.399125 
L 462.642829 -18.122415 
L 463.364412 -17.846519 
L 464.085995 -17.571527 
L 464.807578 -17.297569 
L 465.529161 -17.024816 
L 466.250744 -16.753479 
L 466.972326 -16.483811 
L 467.693909 -16.216105 
L 468.415492 -15.950689 
L 469.137075 -15.687921 
L 469.858658 -15.428179 
L 470.580241 -15.171854 
L 471.301823 -14.919337 
L 472.023406 -14.67101 
L 472.744989 -14.42723 
L 473.466572 -14.188318 
L 474.188155 -13.954547 
L 474.909737 -13.726134 
L 475.63132 -13.503225 
L 476.352903 -13.285896 
L 477.074486 -13.074141 
L 477.796069 -12.86788 
L 478.517652 -12.666953 
L 479.239234 -12.471132 
L 479.960817 -12.280124 
L 480.6824 -12.093586 
L 481.403983 -11.911136 
L 482.125566 -11.732366 
L 482.847149 -11.556857 
L 483.568731 -11.384198 
L 484.290314 -11.21399 
L 485.011897 -11.045868 
L 485.73348 -10.879504 
L 486.455063 -10.714617 
L 487.176646 -10.550975 
L 487.898228 -10.388399 
L 488.619811 -10.22676 
L 489.341394 -10.065973 
L 490.062977 -9.905997 
L 490.78456 -9.746818 
L 491.506143 -9.588449 
L 492.227725 -9.430916 
L 492.949308 -9.274251 
L 493.670891 -9.118486 
L 494.392474 -8.963643 
L 495.114057 -8.809737 
L 495.835639 -8.656767 
L 496.557222 -8.504721 
L 497.278805 -8.353575 
L 498.000388 -8.203304 
L 498.721971 -8.053881 
L 499.443554 -7.905289 
L 500.165136 -7.757527 
L 500.886719 -7.610619 
L 501.608302 -7.464623 
L 502.329885 -7.319631 
L 503.051468 -7.175781 
L 503.773051 -7.033255 
L 504.494633 -6.892278 
L 505.216216 -6.753117 
L 505.937799 -6.616077 
L 506.659382 -6.481489 
L 507.380965 -6.349704 
L 508.102548 -6.221076 
L 508.82413 -6.095957 
L 509.545713 -5.974675 
L 510.267296 -5.857528 
L 510.988879 -5.744766 
L 511.710462 -5.636585 
L 512.432044 -5.533115 
L 513.153627 -5.434415 
L 513.87521 -5.340469 
L 514.596793 -5.251188 
L 515.318376 -5.166411 
L 516.039959 -5.085911 
L 516.761541 -5.009403 
L 517.483124 -4.936556 
L 518.204707 -4.867006 
L 518.92629 -4.800367 
L 519.647873 -4.736247 
L 520.369456 -4.674261 
L 521.091038 -4.614044 
L 521.812621 -4.55526 
L 522.534204 -4.497618 
L 523.255787 -4.440871 
L 523.97737 -4.384828 
L 524.698953 -4.329353 
L 525.420535 -4.274365 
L 526.142118 -4.219838 
L 526.863701 -4.165793 
L 527.585284 -4.112296 
L 528.306867 -4.059449 
L 529.02845 -4.007381 
L 529.750032 -3.956242 
L 530.471615 -3.906191 
L 531.193198 -3.857391 
L 531.914781 -3.809999 
L 532.636364 -3.764159 
L 532.636364 -2.470909 
L 532.636364 -2.470909 
L 531.914781 -2.470909 
L 531.193198 -2.470909 
L 530.471615 -2.470909 
L 529.750032 -2.470909 
L 529.02845 -2.470909 
L 528.306867 -2.470909 
L 527.585284 -2.470909 
L 526.863701 -2.470909 
L 526.142118 -2.470909 
L 525.420535 -2.470909 
L 524.698953 -2.470909 
L 523.97737 -2.470909 
L 523.255787 -2.470909 
L 522.534204 -2.470909 
L 521.812621 -2.470909 
L 521.091038 -2.470909 
L 520.369456 -2.470909 
L 519.647873 -2.470909 
L 518.92629 -2.470909 
L 518.204707 -2.470909 
L 517.483124 -2.470909 
L 516.761541 -2.470909 
L 516.039959 -2.470909 
L 515.318376 -2.470909 
L 514.596793 -2.470909 
L 513.87521 -2.470909 
L 513.153627 -2.470909 
L 512.432044 -2.470909 
L 511.710462 -2.470909 
L 510.988879 -2.470909 
L 510.267296 -2.470909 
L 509.545713 -2.470909 
L 508.82413 -2.470909 
L 508.102548 -2.470909 
L 507.380965 -2.470909 
L 506.659382 -2.470909 
L 505.937799 -2.470909 
L 505.216216 -2.470909 
L 504.494633 -2.470909 
L 503.773051 -2.470909 
L 503.051468 -2.470909 
L 502.329885 -2.470909 
L 501.608302 -2.470909 
L 500.886719 -2.470909 
L 500.165136 -2.470909 
L 499.443554 -2.470909 
L 498.721971 -2.470909 
L 498.000388 -2.470909 
L 497.278805 -2.470909 
L 496.557222 -2.470909 
L 495.835639 -2.470909 
L 495.114057 -2.470909 
L 494.392474 -2.470909 
L 493.670891 -2.470909 
L 492.949308 -2.470909 
L 492.227725 -2.470909 
L 491.506143 -2.470909 
L 490.78456 -2.470909 
L 490.062977 -2.470909 
L 489.341394 -2.470909 
L 488.619811 -2.470909 
L 487.898228 -2.470909 
L 487.176646 -2.470909 
L 486.455063 -2.470909 
L 485.73348 -2.470909 
L 485.011897 -2.470909 
L 484.290314 -2.470909 
L 483.568731 -2.470909 
L 482.847149 -2.470909 
L 482.125566 -2.470909 
L 481.403983 -2.470909 
L 480.6824 -2.470909 
L 479.960817 -2.470909 
L 479.239234 -2.470909 
L 478.517652 -2.470909 
L 477.796069 -2.470909 
L 477.074486 -2.470909 
L 476.352903 -2.470909 
L 475.63132 -2.470909 
L 474.909737 -2.470909 
L 474.188155 -2.470909 
L 473.466572 -2.470909 
L 472.744989 -2.470909 
L 472.023406 -2.470909 
L 471.301823 -2.470909 
L 470.580241 -2.470909 
L 469.858658 -2.470909 
L 469.137075 -2.470909 
L 468.415492 -2.470909 
L 467.693909 -2.470909 
L 466.972326 -2.470909 
L 466.250744 -2.470909 
L 465.529161 -2.470909 
L 464.807578 -2.470909 
L 464.085995 -2.470909 
L 463.364412 -2.470909 
L 462.642829 -2.470909 
L 461.921247 -2.470909 
L 461.199664 -2.470909 
L 460.478081 -2.470909 
L 459.756498 -2.470909 
L 459.034915 -2.470909 
L 458.313332 -2.470909 
L 457.59175 -2.470909 
L 456.870167 -2.470909 
L 456.148584 -2.470909 
L 455.427001 -2.470909 
L 454.705418 -2.470909 
L 453.983836 -2.470909 
L 453.262253 -2.470909 
L 452.54067 -2.470909 
L 451.819087 -2.470909 
L 451.097504 -2.470909 
L 450.375921 -2.470909 
L 449.654339 -2.470909 
L 448.932756 -2.470909 
L 448.211173 -2.470909 
L 447.48959 -2.470909 
L 446.768007 -2.470909 
L 446.046424 -2.470909 
L 445.324842 -2.470909 
L 444.603259 -2.470909 
L 443.881676 -2.470909 
L 443.160093 -2.470909 
L 442.43851 -2.470909 
L 441.716927 -2.470909 
L 440.995345 -2.470909 
L 440.273762 -2.470909 
L 439.552179 -2.470909 
L 438.830596 -2.470909 
L 438.109013 -2.470909 
L 437.38743 -2.470909 
L 436.665848 -2.470909 
L 435.944265 -2.470909 
L 435.222682 -2.470909 
L 434.501099 -2.470909 
L 433.779516 -2.470909 
L 433.057934 -2.470909 
L 432.336351 -2.470909 
L 431.614768 -2.470909 
L 430.893185 -2.470909 
L 430.171602 -2.470909 
L 429.450019 -2.470909 
L 428.728437 -2.470909 
L 428.006854 -2.470909 
L 427.285271 -2.470909 
L 426.563688 -2.470909 
L 425.842105 -2.470909 
L 425.120522 -2.470909 
L 424.39894 -2.470909 
L 423.677357 -2.470909 
L 422.955774 -2.470909 
L 422.234191 -2.470909 
L 421.512608 -2.470909 
L 420.791025 -2.470909 
L 420.069443 -2.470909 
L 419.34786 -2.470909 
L 418.626277 -2.470909 
L 417.904694 -2.470909 
L 417.183111 -2.470909 
L 416.461529 -2.470909 
L 415.739946 -2.470909 
L 415.018363 -2.470909 
L 414.29678 -2.470909 
L 413.575197 -2.470909 
L 412.853614 -2.470909 
L 412.132032 -2.470909 
L 411.410449 -2.470909 
L 410.688866 -2.470909 
L 409.967283 -2.470909 
L 409.2457 -2.470909 
L 408.524117 -2.470909 
L 407.802535 -2.470909 
L 407.080952 -2.470909 
L 406.359369 -2.470909 
L 405.637786 -2.470909 
L 404.916203 -2.470909 
L 404.19462 -2.470909 
L 403.473038 -2.470909 
L 402.751455 -2.470909 
L 402.029872 -2.470909 
L 401.308289 -2.470909 
L 400.586706 -2.470909 
L 399.865123 -2.470909 
L 399.143541 -2.470909 
L 398.421958 -2.470909 
L 397.700375 -2.470909 
L 396.978792 -2.470909 
L 396.257209 -2.470909 
L 395.535627 -2.470909 
L 394.814044 -2.470909 
L 394.092461 -2.470909 
L 393.370878 -2.470909 
L 392.649295 -2.470909 
L 391.927712 -2.470909 
L 391.20613 -2.470909 
L 390.484547 -2.470909 
L 389.762964 -2.470909 
L 389.041381 -2.470909 
L 388.319798 -2.470909 
L 387.598215 -2.470909 
L 386.876633 -2.470909 
L 386.15505 -2.470909 
L 385.433467 -2.470909 
L 384.711884 -2.470909 
L 383.990301 -2.470909 
L 383.268718 -2.470909 
L 382.547136 -2.470909 
L 381.825553 -2.470909 
L 381.10397 -2.470909 
L 380.382387 -2.470909 
L 379.660804 -2.470909 
L 378.939222 -2.470909 
L 378.217639 -2.470909 
L 377.496056 -2.470909 
L 376.774473 -2.470909 
L 376.05289 -2.470909 
L 375.331307 -2.470909 
L 374.609725 -2.470909 
L 373.888142 -2.470909 
L 373.166559 -2.470909 
L 372.444976 -2.470909 
L 371.723393 -2.470909 
L 371.00181 -2.470909 
L 370.280228 -2.470909 
L 369.558645 -2.470909 
L 368.837062 -2.470909 
L 368.115479 -2.470909 
L 367.393896 -2.470909 
L 366.672313 -2.470909 
L 365.950731 -2.470909 
L 365.229148 -2.470909 
L 364.507565 -2.470909 
L 363.785982 -2.470909 
L 363.064399 -2.470909 
L 362.342817 -2.470909 
L 361.621234 -2.470909 
L 360.899651 -2.470909 
L 360.178068 -2.470909 
L 359.456485 -2.470909 
L 358.734902 -2.470909 
L 358.01332 -2.470909 
L 357.291737 -2.470909 
L 356.570154 -2.470909 
L 355.848571 -2.470909 
L 355.126988 -2.470909 
L 354.405405 -2.470909 
L 353.683823 -2.470909 
L 352.96224 -2.470909 
L 352.240657 -2.470909 
L 351.519074 -2.470909 
L 350.797491 -2.470909 
L 350.075908 -2.470909 
L 349.354326 -2.470909 
L 348.632743 -2.470909 
L 347.91116 -2.470909 
L 347.189577 -2.470909 
L 346.467994 -2.470909 
L 345.746411 -2.470909 
L 345.024829 -2.470909 
L 344.303246 -2.470909 
L 343.581663 -2.470909 
L 342.86008 -2.470909 
L 342.138497 -2.470909 
L 341.416915 -2.470909 
L 340.695332 -2.470909 
L 339.973749 -2.470909 
L 339.252166 -2.470909 
L 338.530583 -2.470909 
L 337.809 -2.470909 
L 337.087418 -2.470909 
L 336.365835 -2.470909 
L 335.644252 -2.470909 
L 334.922669 -2.470909 
L 334.201086 -2.470909 
L 333.479503 -2.470909 
L 332.757921 -2.470909 
L 332.036338 -2.470909 
L 331.314755 -2.470909 
L 330.593172 -2.470909 
L 329.871589 -2.470909 
L 329.150006 -2.470909 
L 328.428424 -2.470909 
L 327.706841 -2.470909 
L 326.985258 -2.470909 
L 326.263675 -2.470909 
L 325.542092 -2.470909 
L 324.82051 -2.470909 
L 324.098927 -2.470909 
L 323.377344 -2.470909 
L 322.655761 -2.470909 
L 321.934178 -2.470909 
L 321.212595 -2.470909 
L 320.491013 -2.470909 
L 319.76943 -2.470909 
L 319.047847 -2.470909 
L 318.326264 -2.470909 
L 317.604681 -2.470909 
L 316.883098 -2.470909 
L 316.161516 -2.470909 
L 315.439933 -2.470909 
L 314.71835 -2.470909 
L 313.996767 -2.470909 
L 313.275184 -2.470909 
L 312.553601 -2.470909 
L 311.832019 -2.470909 
L 311.110436 -2.470909 
L 310.388853 -2.470909 
L 309.66727 -2.470909 
L 308.945687 -2.470909 
L 308.224104 -2.470909 
L 307.502522 -2.470909 
L 306.780939 -2.470909 
L 306.059356 -2.470909 
L 305.337773 -2.470909 
L 304.61619 -2.470909 
L 303.894608 -2.470909 
L 303.173025 -2.470909 
L 302.451442 -2.470909 
L 301.729859 -2.470909 
L 301.008276 -2.470909 
L 300.286693 -2.470909 
L 299.565111 -2.470909 
L 298.843528 -2.470909 
L 298.121945 -2.470909 
L 297.400362 -2.470909 
L 296.678779 -2.470909 
L 295.957196 -2.470909 
L 295.235614 -2.470909 
L 294.514031 -2.470909 
L 293.792448 -2.470909 
L 293.070865 -2.470909 
L 292.349282 -2.470909 
L 291.627699 -2.470909 
L 290.906117 -2.470909 
L 290.184534 -2.470909 
L 289.462951 -2.470909 
L 288.741368 -2.470909 
L 288.019785 -2.470909 
L 287.298203 -2.470909 
L 286.57662 -2.470909 
L 285.855037 -2.470909 
L 285.133454 -2.470909 
L 284.411871 -2.470909 
L 283.690288 -2.470909 
L 282.968706 -2.470909 
L 282.247123 -2.470909 
L 281.52554 -2.470909 
L 280.803957 -2.470909 
L 280.082374 -2.470909 
L 279.360791 -2.470909 
L 278.639209 -2.470909 
L 277.917626 -2.470909 
L 277.196043 -2.470909 
L 276.47446 -2.470909 
L 275.752877 -2.470909 
L 275.031294 -2.470909 
L 274.309712 -2.470909 
L 273.588129 -2.470909 
L 272.866546 -2.470909 
L 272.144963 -2.470909 
L 271.42338 -2.470909 
L 270.701797 -2.470909 
L 269.980215 -2.470909 
L 269.258632 -2.470909 
L 268.537049 -2.470909 
L 267.815466 -2.470909 
L 267.093883 -2.470909 
L 266.372301 -2.470909 
L 265.650718 -2.470909 
L 264.929135 -2.470909 
L 264.207552 -2.470909 
L 263.485969 -2.470909 
L 262.764386 -2.470909 
L 262.042804 -2.470909 
z
" style="stroke: #cf1313; stroke-opacity: 0.2"/>
    </defs>
    <g clip-path="url(#pe44adf9519)">
     <use xlink:href="#m3d20b12900" x="0" y="54.36" style="fill: #cf1313; fill-opacity: 0.2; stroke: #cf1313; stroke-opacity: 0.2"/>
    </g>
   </g>
   <g id="PolyCollection_2">
    <defs>
     <path id="mb7c015a9ee" d="M 159.578042 -2.470909 
L 159.578042 -3.790355 
L 160.299625 -3.838418 
L 161.021208 -3.88776 
L 161.742791 -3.938254 
L 162.464373 -3.98978 
L 163.185956 -4.042227 
L 163.907539 -4.0955 
L 164.629122 -4.149528 
L 165.350705 -4.204264 
L 166.072288 -4.259692 
L 166.79387 -4.315832 
L 167.515453 -4.372737 
L 168.237036 -4.430499 
L 168.958619 -4.489246 
L 169.680202 -4.549141 
L 170.401785 -4.610379 
L 171.123367 -4.673182 
L 171.84495 -4.737793 
L 172.566533 -4.804472 
L 173.288116 -4.873482 
L 174.009699 -4.945092 
L 174.731282 -5.019558 
L 175.452864 -5.097121 
L 176.174447 -5.178 
L 176.89603 -5.262382 
L 177.617613 -5.35042 
L 178.339196 -5.442229 
L 179.060778 -5.537881 
L 179.782361 -5.637406 
L 180.503944 -5.740796 
L 181.225527 -5.848002 
L 181.94711 -5.958946 
L 182.668693 -6.073521 
L 183.390275 -6.191601 
L 184.111858 -6.313049 
L 184.833441 -6.437726 
L 185.555024 -6.565497 
L 186.276607 -6.696238 
L 186.99819 -6.829846 
L 187.719772 -6.966243 
L 188.441355 -7.105373 
L 189.162938 -7.247214 
L 189.884521 -7.391767 
L 190.606104 -7.539059 
L 191.327687 -7.689132 
L 192.049269 -7.842044 
L 192.770852 -7.997854 
L 193.492435 -8.156614 
L 194.214018 -8.318362 
L 194.935601 -8.483112 
L 195.657183 -8.650844 
L 196.378766 -8.8215 
L 197.100349 -8.994977 
L 197.821932 -9.171126 
L 198.543515 -9.349753 
L 199.265098 -9.530622 
L 199.98668 -9.71346 
L 200.708263 -9.897967 
L 201.429846 -10.083828 
L 202.151429 -10.270724 
L 202.873012 -10.458345 
L 203.594595 -10.64641 
L 204.316177 -10.834677 
L 205.03776 -11.022955 
L 205.759343 -11.211121 
L 206.480926 -11.399128 
L 207.202509 -11.587011 
L 207.924092 -11.774891 
L 208.645674 -11.962979 
L 209.367257 -12.151568 
L 210.08884 -12.341033 
L 210.810423 -12.531817 
L 211.532006 -12.724421 
L 212.253589 -12.91939 
L 212.975171 -13.117292 
L 213.696754 -13.318706 
L 214.418337 -13.524196 
L 215.13992 -13.734297 
L 215.861503 -13.949492 
L 216.583085 -14.170193 
L 217.304668 -14.396727 
L 218.026251 -14.629321 
L 218.747834 -14.868084 
L 219.469417 -15.113006 
L 220.191 -15.363944 
L 220.912582 -15.620627 
L 221.634165 -15.882653 
L 222.355748 -16.149497 
L 223.077331 -16.420521 
L 223.798914 -16.694991 
L 224.520497 -16.972092 
L 225.242079 -17.25095 
L 225.963662 -17.530663 
L 226.685245 -17.810318 
L 227.406828 -18.089028 
L 228.128411 -18.365956 
L 228.849994 -18.640343 
L 229.571576 -18.911536 
L 230.293159 -19.179008 
L 231.014742 -19.442379 
L 231.736325 -19.701432 
L 232.457908 -19.956116 
L 233.17949 -20.206556 
L 233.901073 -20.453047 
L 234.622656 -20.696044 
L 235.344239 -20.936151 
L 236.065822 -21.174097 
L 236.787405 -21.410715 
L 237.508987 -21.646913 
L 238.23057 -21.883646 
L 238.952153 -22.121881 
L 239.673736 -22.362566 
L 240.395319 -22.606602 
L 241.116902 -22.854813 
L 241.838484 -23.107917 
L 242.560067 -23.366506 
L 243.28165 -23.631031 
L 244.003233 -23.901784 
L 244.724816 -24.178894 
L 245.446399 -24.462326 
L 246.167981 -24.751882 
L 246.889564 -25.047212 
L 247.611147 -25.34783 
L 248.33273 -25.653132 
L 249.054313 -25.962415 
L 249.775896 -26.27491 
L 250.497478 -26.589805 
L 251.219061 -26.906274 
L 251.940644 -27.22351 
L 252.662227 -27.540743 
L 253.38381 -27.857275 
L 254.105392 -28.172492 
L 254.826975 -28.485884 
L 255.548558 -28.797051 
L 256.270141 -29.105713 
L 256.991724 -29.4117 
L 257.713307 -29.71495 
L 258.434889 -30.015489 
L 259.156472 -30.313413 
L 259.878055 -30.608867 
L 260.599638 -30.902015 
L 261.321221 -31.193014 
L 262.042804 -31.481988 
L 262.764386 -31.769002 
L 263.485969 -32.05404 
L 264.207552 -32.336992 
L 264.929135 -32.617639 
L 265.650718 -32.895655 
L 266.372301 -33.170601 
L 267.093883 -33.441941 
L 267.815466 -33.709053 
L 268.537049 -33.97125 
L 269.258632 -34.227801 
L 269.980215 -34.477956 
L 270.701797 -34.720975 
L 271.42338 -34.956144 
L 272.144963 -35.182805 
L 272.866546 -35.40037 
L 273.588129 -35.608334 
L 274.309712 -35.806285 
L 275.031294 -35.993907 
L 275.752877 -36.170978 
L 276.47446 -36.337363 
L 277.196043 -36.493007 
L 277.917626 -36.637917 
L 278.639209 -36.772152 
L 279.360791 -36.895808 
L 280.082374 -37.008998 
L 280.803957 -37.111848 
L 281.52554 -37.204478 
L 282.247123 -37.287003 
L 282.968706 -37.359522 
L 283.690288 -37.422121 
L 284.411871 -37.474877 
L 285.133454 -37.517866 
L 285.855037 -37.551167 
L 286.57662 -37.57488 
L 287.298203 -37.589134 
L 288.019785 -37.594103 
L 288.741368 -37.590018 
L 289.462951 -37.577177 
L 290.184534 -37.555955 
L 290.906117 -37.526806 
L 291.627699 -37.490269 
L 292.349282 -37.446959 
L 293.070865 -37.397563 
L 293.792448 -37.342823 
L 294.514031 -37.283522 
L 295.235614 -37.220457 
L 295.957196 -37.154418 
L 296.678779 -37.086157 
L 297.400362 -37.01636 
L 298.121945 -36.94562 
L 298.843528 -36.874408 
L 299.565111 -36.803055 
L 300.286693 -36.731726 
L 301.008276 -36.660414 
L 301.729859 -36.588934 
L 302.451442 -36.516922 
L 303.173025 -36.443847 
L 303.894608 -36.369025 
L 304.61619 -36.291643 
L 305.337773 -36.210788 
L 306.059356 -36.125478 
L 306.780939 -36.034694 
L 307.502522 -35.937419 
L 308.224104 -35.832668 
L 308.945687 -35.719521 
L 309.66727 -35.597151 
L 310.388853 -35.464847 
L 311.110436 -35.322031 
L 311.832019 -35.168265 
L 312.553601 -35.003266 
L 313.275184 -34.826897 
L 313.996767 -34.639166 
L 314.71835 -34.440217 
L 315.439933 -34.23032 
L 316.161516 -34.009851 
L 316.883098 -33.779282 
L 317.604681 -33.539161 
L 318.326264 -33.290099 
L 319.047847 -33.032755 
L 319.76943 -32.767822 
L 320.491013 -32.496014 
L 321.212595 -32.21806 
L 321.934178 -31.934692 
L 322.655761 -31.646642 
L 323.377344 -31.354637 
L 324.098927 -31.059392 
L 324.82051 -30.761616 
L 325.542092 -30.462002 
L 326.263675 -30.161233 
L 326.985258 -29.859981 
L 327.706841 -29.558905 
L 328.428424 -29.258654 
L 329.150006 -28.959867 
L 329.871589 -28.663169 
L 330.593172 -28.369173 
L 331.314755 -28.078476 
L 332.036338 -27.791658 
L 332.757921 -27.50927 
L 333.479503 -27.231834 
L 334.201086 -26.959831 
L 334.922669 -26.693691 
L 335.644252 -26.433782 
L 336.365835 -26.180396 
L 337.087418 -25.933739 
L 337.809 -25.693914 
L 338.530583 -25.460911 
L 339.252166 -25.234597 
L 339.973749 -25.0147 
L 340.695332 -24.800814 
L 341.416915 -24.592388 
L 342.138497 -24.388732 
L 342.86008 -24.189022 
L 343.581663 -23.992312 
L 344.303246 -23.797555 
L 345.024829 -23.603617 
L 345.746411 -23.40931 
L 346.467994 -23.213418 
L 347.189577 -23.01473 
L 347.91116 -22.812075 
L 348.632743 -22.604356 
L 349.354326 -22.390583 
L 350.075908 -22.169906 
L 350.797491 -21.941642 
L 351.519074 -21.705299 
L 352.240657 -21.460595 
L 352.96224 -21.20747 
L 353.683823 -20.94609 
L 354.405405 -20.676847 
L 355.126988 -20.40035 
L 355.848571 -20.117409 
L 356.570154 -19.829014 
L 357.291737 -19.536312 
L 358.01332 -19.240566 
L 358.734902 -18.94313 
L 359.456485 -18.645406 
L 360.178068 -18.348804 
L 360.899651 -18.054707 
L 361.621234 -17.764427 
L 362.342817 -17.479178 
L 363.064399 -17.200031 
L 363.785982 -16.927899 
L 364.507565 -16.663502 
L 365.229148 -16.407358 
L 365.950731 -16.159764 
L 366.672313 -15.920798 
L 367.393896 -15.690316 
L 368.115479 -15.46796 
L 368.837062 -15.253176 
L 369.558645 -15.04523 
L 370.280228 -14.843234 
L 371.00181 -14.646176 
L 371.723393 -14.45295 
L 372.444976 -14.262395 
L 373.166559 -14.073325 
L 373.888142 -13.88457 
L 374.609725 -13.695005 
L 375.331307 -13.503586 
L 376.05289 -13.309381 
L 376.774473 -13.11159 
L 377.496056 -12.909568 
L 378.217639 -12.702844 
L 378.939222 -12.491126 
L 379.660804 -12.274309 
L 380.382387 -12.052474 
L 381.10397 -11.825881 
L 381.825553 -11.594959 
L 382.547136 -11.360288 
L 383.268718 -11.122586 
L 383.990301 -10.88268 
L 384.711884 -10.641489 
L 385.433467 -10.399992 
L 386.15505 -10.159209 
L 386.876633 -9.92017 
L 387.598215 -9.683894 
L 388.319798 -9.451364 
L 389.041381 -9.223508 
L 389.762964 -9.001179 
L 390.484547 -8.78514 
L 391.20613 -8.576053 
L 391.927712 -8.374468 
L 392.649295 -8.180817 
L 393.370878 -7.995409 
L 394.092461 -7.818433 
L 394.814044 -7.649957 
L 395.535627 -7.489935 
L 396.257209 -7.338212 
L 396.978792 -7.194533 
L 397.700375 -7.058556 
L 398.421958 -6.929861 
L 399.143541 -6.807964 
L 399.865123 -6.692332 
L 400.586706 -6.582394 
L 401.308289 -6.477559 
L 402.029872 -6.377227 
L 402.751455 -6.280804 
L 403.473038 -6.187712 
L 404.19462 -6.097401 
L 404.916203 -6.009361 
L 405.637786 -5.923126 
L 406.359369 -5.838283 
L 407.080952 -5.754474 
L 407.802535 -5.671404 
L 408.524117 -5.588836 
L 409.2457 -5.506595 
L 409.967283 -5.424566 
L 410.688866 -5.342688 
L 411.410449 -5.260955 
L 412.132032 -5.179404 
L 412.853614 -5.098119 
L 413.575197 -5.017216 
L 414.29678 -4.936841 
L 415.018363 -4.857163 
L 415.739946 -4.778367 
L 416.461529 -4.700645 
L 417.183111 -4.624194 
L 417.904694 -4.549206 
L 418.626277 -4.475866 
L 419.34786 -4.404342 
L 420.069443 -4.334786 
L 420.791025 -4.267328 
L 421.512608 -4.202074 
L 422.234191 -4.139104 
L 422.955774 -4.078472 
L 423.677357 -4.020205 
L 424.39894 -3.964306 
L 425.120522 -3.910753 
L 425.842105 -3.859502 
L 426.563688 -3.810494 
L 427.285271 -3.763649 
L 427.285271 -2.470909 
L 427.285271 -2.470909 
L 426.563688 -2.470909 
L 425.842105 -2.470909 
L 425.120522 -2.470909 
L 424.39894 -2.470909 
L 423.677357 -2.470909 
L 422.955774 -2.470909 
L 422.234191 -2.470909 
L 421.512608 -2.470909 
L 420.791025 -2.470909 
L 420.069443 -2.470909 
L 419.34786 -2.470909 
L 418.626277 -2.470909 
L 417.904694 -2.470909 
L 417.183111 -2.470909 
L 416.461529 -2.470909 
L 415.739946 -2.470909 
L 415.018363 -2.470909 
L 414.29678 -2.470909 
L 413.575197 -2.470909 
L 412.853614 -2.470909 
L 412.132032 -2.470909 
L 411.410449 -2.470909 
L 410.688866 -2.470909 
L 409.967283 -2.470909 
L 409.2457 -2.470909 
L 408.524117 -2.470909 
L 407.802535 -2.470909 
L 407.080952 -2.470909 
L 406.359369 -2.470909 
L 405.637786 -2.470909 
L 404.916203 -2.470909 
L 404.19462 -2.470909 
L 403.473038 -2.470909 
L 402.751455 -2.470909 
L 402.029872 -2.470909 
L 401.308289 -2.470909 
L 400.586706 -2.470909 
L 399.865123 -2.470909 
L 399.143541 -2.470909 
L 398.421958 -2.470909 
L 397.700375 -2.470909 
L 396.978792 -2.470909 
L 396.257209 -2.470909 
L 395.535627 -2.470909 
L 394.814044 -2.470909 
L 394.092461 -2.470909 
L 393.370878 -2.470909 
L 392.649295 -2.470909 
L 391.927712 -2.470909 
L 391.20613 -2.470909 
L 390.484547 -2.470909 
L 389.762964 -2.470909 
L 389.041381 -2.470909 
L 388.319798 -2.470909 
L 387.598215 -2.470909 
L 386.876633 -2.470909 
L 386.15505 -2.470909 
L 385.433467 -2.470909 
L 384.711884 -2.470909 
L 383.990301 -2.470909 
L 383.268718 -2.470909 
L 382.547136 -2.470909 
L 381.825553 -2.470909 
L 381.10397 -2.470909 
L 380.382387 -2.470909 
L 379.660804 -2.470909 
L 378.939222 -2.470909 
L 378.217639 -2.470909 
L 377.496056 -2.470909 
L 376.774473 -2.470909 
L 376.05289 -2.470909 
L 375.331307 -2.470909 
L 374.609725 -2.470909 
L 373.888142 -2.470909 
L 373.166559 -2.470909 
L 372.444976 -2.470909 
L 371.723393 -2.470909 
L 371.00181 -2.470909 
L 370.280228 -2.470909 
L 369.558645 -2.470909 
L 368.837062 -2.470909 
L 368.115479 -2.470909 
L 367.393896 -2.470909 
L 366.672313 -2.470909 
L 365.950731 -2.470909 
L 365.229148 -2.470909 
L 364.507565 -2.470909 
L 363.785982 -2.470909 
L 363.064399 -2.470909 
L 362.342817 -2.470909 
L 361.621234 -2.470909 
L 360.899651 -2.470909 
L 360.178068 -2.470909 
L 359.456485 -2.470909 
L 358.734902 -2.470909 
L 358.01332 -2.470909 
L 357.291737 -2.470909 
L 356.570154 -2.470909 
L 355.848571 -2.470909 
L 355.126988 -2.470909 
L 354.405405 -2.470909 
L 353.683823 -2.470909 
L 352.96224 -2.470909 
L 352.240657 -2.470909 
L 351.519074 -2.470909 
L 350.797491 -2.470909 
L 350.075908 -2.470909 
L 349.354326 -2.470909 
L 348.632743 -2.470909 
L 347.91116 -2.470909 
L 347.189577 -2.470909 
L 346.467994 -2.470909 
L 345.746411 -2.470909 
L 345.024829 -2.470909 
L 344.303246 -2.470909 
L 343.581663 -2.470909 
L 342.86008 -2.470909 
L 342.138497 -2.470909 
L 341.416915 -2.470909 
L 340.695332 -2.470909 
L 339.973749 -2.470909 
L 339.252166 -2.470909 
L 338.530583 -2.470909 
L 337.809 -2.470909 
L 337.087418 -2.470909 
L 336.365835 -2.470909 
L 335.644252 -2.470909 
L 334.922669 -2.470909 
L 334.201086 -2.470909 
L 333.479503 -2.470909 
L 332.757921 -2.470909 
L 332.036338 -2.470909 
L 331.314755 -2.470909 
L 330.593172 -2.470909 
L 329.871589 -2.470909 
L 329.150006 -2.470909 
L 328.428424 -2.470909 
L 327.706841 -2.470909 
L 326.985258 -2.470909 
L 326.263675 -2.470909 
L 325.542092 -2.470909 
L 324.82051 -2.470909 
L 324.098927 -2.470909 
L 323.377344 -2.470909 
L 322.655761 -2.470909 
L 321.934178 -2.470909 
L 321.212595 -2.470909 
L 320.491013 -2.470909 
L 319.76943 -2.470909 
L 319.047847 -2.470909 
L 318.326264 -2.470909 
L 317.604681 -2.470909 
L 316.883098 -2.470909 
L 316.161516 -2.470909 
L 315.439933 -2.470909 
L 314.71835 -2.470909 
L 313.996767 -2.470909 
L 313.275184 -2.470909 
L 312.553601 -2.470909 
L 311.832019 -2.470909 
L 311.110436 -2.470909 
L 310.388853 -2.470909 
L 309.66727 -2.470909 
L 308.945687 -2.470909 
L 308.224104 -2.470909 
L 307.502522 -2.470909 
L 306.780939 -2.470909 
L 306.059356 -2.470909 
L 305.337773 -2.470909 
L 304.61619 -2.470909 
L 303.894608 -2.470909 
L 303.173025 -2.470909 
L 302.451442 -2.470909 
L 301.729859 -2.470909 
L 301.008276 -2.470909 
L 300.286693 -2.470909 
L 299.565111 -2.470909 
L 298.843528 -2.470909 
L 298.121945 -2.470909 
L 297.400362 -2.470909 
L 296.678779 -2.470909 
L 295.957196 -2.470909 
L 295.235614 -2.470909 
L 294.514031 -2.470909 
L 293.792448 -2.470909 
L 293.070865 -2.470909 
L 292.349282 -2.470909 
L 291.627699 -2.470909 
L 290.906117 -2.470909 
L 290.184534 -2.470909 
L 289.462951 -2.470909 
L 288.741368 -2.470909 
L 288.019785 -2.470909 
L 287.298203 -2.470909 
L 286.57662 -2.470909 
L 285.855037 -2.470909 
L 285.133454 -2.470909 
L 284.411871 -2.470909 
L 283.690288 -2.470909 
L 282.968706 -2.470909 
L 282.247123 -2.470909 
L 281.52554 -2.470909 
L 280.803957 -2.470909 
L 280.082374 -2.470909 
L 279.360791 -2.470909 
L 278.639209 -2.470909 
L 277.917626 -2.470909 
L 277.196043 -2.470909 
L 276.47446 -2.470909 
L 275.752877 -2.470909 
L 275.031294 -2.470909 
L 274.309712 -2.470909 
L 273.588129 -2.470909 
L 272.866546 -2.470909 
L 272.144963 -2.470909 
L 271.42338 -2.470909 
L 270.701797 -2.470909 
L 269.980215 -2.470909 
L 269.258632 -2.470909 
L 268.537049 -2.470909 
L 267.815466 -2.470909 
L 267.093883 -2.470909 
L 266.372301 -2.470909 
L 265.650718 -2.470909 
L 264.929135 -2.470909 
L 264.207552 -2.470909 
L 263.485969 -2.470909 
L 262.764386 -2.470909 
L 262.042804 -2.470909 
L 261.321221 -2.470909 
L 260.599638 -2.470909 
L 259.878055 -2.470909 
L 259.156472 -2.470909 
L 258.434889 -2.470909 
L 257.713307 -2.470909 
L 256.991724 -2.470909 
L 256.270141 -2.470909 
L 255.548558 -2.470909 
L 254.826975 -2.470909 
L 254.105392 -2.470909 
L 253.38381 -2.470909 
L 252.662227 -2.470909 
L 251.940644 -2.470909 
L 251.219061 -2.470909 
L 250.497478 -2.470909 
L 249.775896 -2.470909 
L 249.054313 -2.470909 
L 248.33273 -2.470909 
L 247.611147 -2.470909 
L 246.889564 -2.470909 
L 246.167981 -2.470909 
L 245.446399 -2.470909 
L 244.724816 -2.470909 
L 244.003233 -2.470909 
L 243.28165 -2.470909 
L 242.560067 -2.470909 
L 241.838484 -2.470909 
L 241.116902 -2.470909 
L 240.395319 -2.470909 
L 239.673736 -2.470909 
L 238.952153 -2.470909 
L 238.23057 -2.470909 
L 237.508987 -2.470909 
L 236.787405 -2.470909 
L 236.065822 -2.470909 
L 235.344239 -2.470909 
L 234.622656 -2.470909 
L 233.901073 -2.470909 
L 233.17949 -2.470909 
L 232.457908 -2.470909 
L 231.736325 -2.470909 
L 231.014742 -2.470909 
L 230.293159 -2.470909 
L 229.571576 -2.470909 
L 228.849994 -2.470909 
L 228.128411 -2.470909 
L 227.406828 -2.470909 
L 226.685245 -2.470909 
L 225.963662 -2.470909 
L 225.242079 -2.470909 
L 224.520497 -2.470909 
L 223.798914 -2.470909 
L 223.077331 -2.470909 
L 222.355748 -2.470909 
L 221.634165 -2.470909 
L 220.912582 -2.470909 
L 220.191 -2.470909 
L 219.469417 -2.470909 
L 218.747834 -2.470909 
L 218.026251 -2.470909 
L 217.304668 -2.470909 
L 216.583085 -2.470909 
L 215.861503 -2.470909 
L 215.13992 -2.470909 
L 214.418337 -2.470909 
L 213.696754 -2.470909 
L 212.975171 -2.470909 
L 212.253589 -2.470909 
L 211.532006 -2.470909 
L 210.810423 -2.470909 
L 210.08884 -2.470909 
L 209.367257 -2.470909 
L 208.645674 -2.470909 
L 207.924092 -2.470909 
L 207.202509 -2.470909 
L 206.480926 -2.470909 
L 205.759343 -2.470909 
L 205.03776 -2.470909 
L 204.316177 -2.470909 
L 203.594595 -2.470909 
L 202.873012 -2.470909 
L 202.151429 -2.470909 
L 201.429846 -2.470909 
L 200.708263 -2.470909 
L 199.98668 -2.470909 
L 199.265098 -2.470909 
L 198.543515 -2.470909 
L 197.821932 -2.470909 
L 197.100349 -2.470909 
L 196.378766 -2.470909 
L 195.657183 -2.470909 
L 194.935601 -2.470909 
L 194.214018 -2.470909 
L 193.492435 -2.470909 
L 192.770852 -2.470909 
L 192.049269 -2.470909 
L 191.327687 -2.470909 
L 190.606104 -2.470909 
L 189.884521 -2.470909 
L 189.162938 -2.470909 
L 188.441355 -2.470909 
L 187.719772 -2.470909 
L 186.99819 -2.470909 
L 186.276607 -2.470909 
L 185.555024 -2.470909 
L 184.833441 -2.470909 
L 184.111858 -2.470909 
L 183.390275 -2.470909 
L 182.668693 -2.470909 
L 181.94711 -2.470909 
L 181.225527 -2.470909 
L 180.503944 -2.470909 
L 179.782361 -2.470909 
L 179.060778 -2.470909 
L 178.339196 -2.470909 
L 177.617613 -2.470909 
L 176.89603 -2.470909 
L 176.174447 -2.470909 
L 175.452864 -2.470909 
L 174.731282 -2.470909 
L 174.009699 -2.470909 
L 173.288116 -2.470909 
L 172.566533 -2.470909 
L 171.84495 -2.470909 
L 171.123367 -2.470909 
L 170.401785 -2.470909 
L 169.680202 -2.470909 
L 168.958619 -2.470909 
L 168.237036 -2.470909 
L 167.515453 -2.470909 
L 166.79387 -2.470909 
L 166.072288 -2.470909 
L 165.350705 -2.470909 
L 164.629122 -2.470909 
L 163.907539 -2.470909 
L 163.185956 -2.470909 
L 162.464373 -2.470909 
L 161.742791 -2.470909 
L 161.021208 -2.470909 
L 160.299625 -2.470909 
L 159.578042 -2.470909 
z
" style="stroke: #116dc2; stroke-opacity: 0.2"/>
    </defs>
    <g clip-path="url(#pe44adf9519)">
     <use xlink:href="#mb7c015a9ee" x="0" y="54.36" style="fill: #116dc2; fill-opacity: 0.2; stroke: #116dc2; stroke-opacity: 0.2"/>
    </g>
   </g>
   <g id="PolyCollection_3">
    <defs>
     <path id="mb415ce38c1" d="M 25.363636 -2.470909 
L 25.363636 -4.904232 
L 26.085219 -5.474494 
L 26.806802 -6.190903 
L 27.528385 -7.064591 
L 28.249968 -8.034375 
L 28.97155 -9.0166 
L 29.693133 -10.001629 
L 30.414716 -11.080608 
L 31.136299 -12.356612 
L 31.857882 -13.836721 
L 32.579465 -15.427585 
L 33.301047 -17.039906 
L 34.02263 -18.689395 
L 34.744213 -20.482565 
L 35.465796 -22.504288 
L 36.187379 -24.738907 
L 36.908962 -27.093245 
L 37.630544 -29.452735 
L 38.352127 -31.710666 
L 39.07371 -33.803324 
L 39.795293 -35.766172 
L 40.516876 -37.731937 
L 41.238459 -39.816139 
L 41.960041 -41.986611 
L 42.681624 -44.063897 
L 43.403207 -45.865186 
L 44.12479 -47.349821 
L 44.846373 -48.606907 
L 45.567956 -49.695601 
L 46.289538 -50.553437 
L 47.011121 -51.112857 
L 47.732704 -51.449535 
L 48.454287 -51.709703 
L 49.17587 -51.889091 
L 49.897452 -51.77746 
L 50.619035 -51.164044 
L 51.340618 -50.055088 
L 52.062201 -48.661374 
L 52.783784 -47.192275 
L 53.505367 -45.680346 
L 54.226949 -43.991045 
L 54.948532 -41.964446 
L 55.670115 -39.544051 
L 56.391698 -36.822916 
L 57.113281 -34.004761 
L 57.834864 -31.296858 
L 58.556446 -28.799007 
L 59.278029 -26.474804 
L 59.999612 -24.218939 
L 60.721195 -21.95654 
L 61.442778 -19.7071 
L 62.164361 -17.575809 
L 62.885943 -15.681347 
L 63.607526 -14.082615 
L 64.329109 -12.756751 
L 65.050692 -11.623135 
L 65.772275 -10.588861 
L 66.493857 -9.591418 
L 67.21544 -8.609479 
L 67.937023 -7.645056 
L 68.658606 -6.714759 
L 69.380189 -5.860954 
L 70.101772 -5.149537 
L 70.823354 -4.631978 
L 71.544937 -4.301025 
L 72.26652 -4.089017 
L 72.26652 -2.470909 
L 72.26652 -2.470909 
L 71.544937 -2.470909 
L 70.823354 -2.470909 
L 70.101772 -2.470909 
L 69.380189 -2.470909 
L 68.658606 -2.470909 
L 67.937023 -2.470909 
L 67.21544 -2.470909 
L 66.493857 -2.470909 
L 65.772275 -2.470909 
L 65.050692 -2.470909 
L 64.329109 -2.470909 
L 63.607526 -2.470909 
L 62.885943 -2.470909 
L 62.164361 -2.470909 
L 61.442778 -2.470909 
L 60.721195 -2.470909 
L 59.999612 -2.470909 
L 59.278029 -2.470909 
L 58.556446 -2.470909 
L 57.834864 -2.470909 
L 57.113281 -2.470909 
L 56.391698 -2.470909 
L 55.670115 -2.470909 
L 54.948532 -2.470909 
L 54.226949 -2.470909 
L 53.505367 -2.470909 
L 52.783784 -2.470909 
L 52.062201 -2.470909 
L 51.340618 -2.470909 
L 50.619035 -2.470909 
L 49.897452 -2.470909 
L 49.17587 -2.470909 
L 48.454287 -2.470909 
L 47.732704 -2.470909 
L 47.011121 -2.470909 
L 46.289538 -2.470909 
L 45.567956 -2.470909 
L 44.846373 -2.470909 
L 44.12479 -2.470909 
L 43.403207 -2.470909 
L 42.681624 -2.470909 
L 41.960041 -2.470909 
L 41.238459 -2.470909 
L 40.516876 -2.470909 
L 39.795293 -2.470909 
L 39.07371 -2.470909 
L 38.352127 -2.470909 
L 37.630544 -2.470909 
L 36.908962 -2.470909 
L 36.187379 -2.470909 
L 35.465796 -2.470909 
L 34.744213 -2.470909 
L 34.02263 -2.470909 
L 33.301047 -2.470909 
L 32.579465 -2.470909 
L 31.857882 -2.470909 
L 31.136299 -2.470909 
L 30.414716 -2.470909 
L 29.693133 -2.470909 
L 28.97155 -2.470909 
L 28.249968 -2.470909 
L 27.528385 -2.470909 
L 26.806802 -2.470909 
L 26.085219 -2.470909 
L 25.363636 -2.470909 
z
" style="stroke: #8a8a8a; stroke-opacity: 0.2"/>
    </defs>
    <g clip-path="url(#pe44adf9519)">
     <use xlink:href="#mb415ce38c1" x="0" y="54.36" style="fill: #8a8a8a; fill-opacity: 0.2; stroke: #8a8a8a; stroke-opacity: 0.2"/>
    </g>
   </g>
   <g id="line2d_1">
    <path d="M 262.042804 50.390556 
L 269.258632 49.706523 
L 280.803957 48.353597 
L 290.184534 47.078944 
L 295.235614 46.216336 
L 298.843528 45.420112 
L 302.451442 44.410267 
L 306.780939 42.929517 
L 321.934178 37.436642 
L 327.706841 35.330777 
L 333.479503 32.958035 
L 341.416915 29.702446 
L 348.632743 27.065787 
L 368.837062 19.948468 
L 372.444976 19.065695 
L 376.05289 18.468007 
L 380.382387 18.041673 
L 394.092461 17.111872 
L 398.421958 17.087434 
L 402.029872 17.286625 
L 405.637786 17.686795 
L 409.967283 18.41244 
L 414.29678 19.361043 
L 420.069443 20.865918 
L 425.842105 22.599162 
L 432.336351 24.803307 
L 445.324842 29.48902 
L 456.148584 33.721072 
L 468.415492 38.409311 
L 474.188155 40.405453 
L 479.239234 41.888868 
L 485.011897 43.314132 
L 495.835639 45.703233 
L 506.659382 47.878511 
L 512.432044 48.826885 
L 517.483124 49.423444 
L 525.420535 50.085635 
L 532.636364 50.595841 
L 532.636364 50.595841 
" clip-path="url(#pe44adf9519)" style="fill: none; stroke: #cf1313; stroke-width: 1.5; stroke-linecap: square"/>
   </g>
   <g id="line2d_2">
    <path d="M 159.578042 50.569645 
L 170.401785 49.749621 
L 176.89603 49.097618 
L 182.668693 48.286479 
L 189.162938 47.112786 
L 195.657183 45.709156 
L 202.873012 43.901655 
L 215.861503 40.410508 
L 220.191 38.996056 
L 225.963662 36.829337 
L 232.457908 34.403884 
L 246.889564 29.312788 
L 254.105392 26.187508 
L 261.321221 23.166986 
L 268.537049 20.38875 
L 272.866546 18.95963 
L 276.47446 18.022637 
L 280.082374 17.351002 
L 283.690288 16.937879 
L 287.298203 16.770866 
L 290.906117 16.833194 
L 295.235614 17.139543 
L 306.059356 18.234522 
L 309.66727 18.762849 
L 313.275184 19.533103 
L 316.883098 20.580718 
L 320.491013 21.863986 
L 326.263675 24.198767 
L 334.201086 27.400169 
L 338.530583 28.899089 
L 343.581663 30.367688 
L 350.797491 32.418358 
L 354.405405 33.683153 
L 360.178068 36.011196 
L 365.229148 37.952642 
L 368.837062 39.106824 
L 374.609725 40.664995 
L 380.382387 42.307526 
L 394.092461 46.541567 
L 397.700375 47.301444 
L 402.029872 47.982773 
L 409.967283 48.935434 
L 422.234191 50.220896 
L 427.285271 50.596351 
L 427.285271 50.596351 
" clip-path="url(#pe44adf9519)" style="fill: none; stroke: #116dc2; stroke-width: 1.5; stroke-linecap: square"/>
   </g>
   <g id="line2d_3">
    <path d="M 25.363636 49.455768 
L 26.085219 48.885506 
L 26.806802 48.169097 
L 27.528385 47.295409 
L 28.249968 46.325625 
L 28.97155 45.3434 
L 29.693133 44.358371 
L 30.414716 43.279392 
L 31.136299 42.003388 
L 31.857882 40.523279 
L 32.579465 38.932415 
L 33.301047 37.320094 
L 34.02263 35.670605 
L 34.744213 33.877435 
L 35.465796 31.855712 
L 36.187379 29.621093 
L 36.908962 27.266755 
L 37.630544 24.907265 
L 38.352127 22.649334 
L 39.07371 20.556676 
L 39.795293 18.593828 
L 40.516876 16.628063 
L 41.238459 14.543861 
L 41.960041 12.373389 
L 42.681624 10.296103 
L 43.403207 8.494814 
L 44.12479 7.010179 
L 44.846373 5.753093 
L 45.567956 4.664399 
L 46.289538 3.806563 
L 47.011121 3.247143 
L 47.732704 2.910465 
L 48.454287 2.650297 
L 49.17587 2.470909 
L 49.897452 2.58254 
L 50.619035 3.195956 
L 51.340618 4.304912 
L 52.062201 5.698626 
L 52.783784 7.167725 
L 53.505367 8.679654 
L 54.226949 10.368955 
L 54.948532 12.395554 
L 55.670115 14.815949 
L 56.391698 17.537084 
L 57.113281 20.355239 
L 57.834864 23.063142 
L 58.556446 25.560993 
L 59.278029 27.885196 
L 59.999612 30.141061 
L 60.721195 32.40346 
L 61.442778 34.6529 
L 62.164361 36.784191 
L 62.885943 38.678653 
L 63.607526 40.277385 
L 64.329109 41.603249 
L 65.050692 42.736865 
L 65.772275 43.771139 
L 66.493857 44.768582 
L 67.21544 45.750521 
L 67.937023 46.714944 
L 68.658606 47.645241 
L 69.380189 48.499046 
L 70.101772 49.210463 
L 70.823354 49.728022 
L 71.544937 50.058975 
L 72.26652 50.270983 
" clip-path="url(#pe44adf9519)" style="fill: none; stroke: #8a8a8a; stroke-width: 1.5; stroke-linecap: square"/>
   </g>
  </g>
 </g>
 <defs>
  <clipPath id="pe44adf9519">
   <rect x="0" y="-0" width="558" height="54.36"/>
  </clipPath>
 </defs>
</svg>
