<?xml version="1.0" encoding="utf-8" standalone="no"?>
<!DOCTYPE svg PUBLIC "-//W3C//DTD SVG 1.1//EN"
  "http://www.w3.org/Graphics/SVG/1.1/DTD/svg11.dtd">
<svg xmlns:xlink="http://www.w3.org/1999/xlink" width="558pt" height="54.36pt" viewBox="0 0 558 54.36" xmlns="http://www.w3.org/2000/svg" version="1.1">
 <metadata>
  <rdf:RDF xmlns:dc="http://purl.org/dc/elements/1.1/" xmlns:cc="http://creativecommons.org/ns#" xmlns:rdf="http://www.w3.org/1999/02/22-rdf-syntax-ns#">
   <cc:Work>
    <dc:type rdf:resource="http://purl.org/dc/dcmitype/StillImage"/>
    <dc:date>2024-09-14T12:47:10.829381</dc:date>
    <dc:format>image/svg+xml</dc:format>
    <dc:creator>
     <cc:Agent>
      <dc:title>Matplotlib v3.5.2, https://matplotlib.org/</dc:title>
     </cc:Agent>
    </dc:creator>
   </cc:Work>
  </rdf:RDF>
 </metadata>
 <defs>
  <style type="text/css">*{stroke-linejoin: round; stroke-linecap: butt}</style>
 </defs>
 <g id="figure_1">
  <g id="patch_1">
   <path d="M 0 54.36 
L 558 54.36 
L 558 0 
L 0 0 
L 0 54.36 
z
" style="fill: none; opacity: 0"/>
  </g>
  <g id="axes_1">
   <g id="PolyCollection_1">
    <defs>
     <path id="mfff3aa61c2" d="M 258.163018 -2.470909 
L 258.163018 -3.819831 
L 258.881535 -3.856545 
L 259.600052 -3.895994 
L 260.318568 -3.938319 
L 261.037085 -3.983631 
L 261.755601 -4.032019 
L 262.474118 -4.083546 
L 263.192635 -4.13825 
L 263.911151 -4.196148 
L 264.629668 -4.257237 
L 265.348184 -4.321494 
L 266.066701 -4.38888 
L 266.785218 -4.459339 
L 267.503734 -4.532804 
L 268.222251 -4.609194 
L 268.940767 -4.688419 
L 269.659284 -4.770379 
L 270.377801 -4.854966 
L 271.096317 -4.942065 
L 271.814834 -5.031555 
L 272.533351 -5.123311 
L 273.251867 -5.217204 
L 273.970384 -5.313107 
L 274.6889 -5.410889 
L 275.407417 -5.510427 
L 276.125934 -5.611601 
L 276.84445 -5.714299 
L 277.562967 -5.818424 
L 278.281483 -5.923889 
L 279 -6.030627 
L 279.718517 -6.138591 
L 280.437033 -6.247753 
L 281.15555 -6.358112 
L 281.874066 -6.469688 
L 282.592583 -6.582529 
L 283.3111 -6.696704 
L 284.029616 -6.812308 
L 284.748133 -6.929455 
L 285.466649 -7.048279 
L 286.185166 -7.168927 
L 286.903683 -7.291562 
L 287.622199 -7.416353 
L 288.340716 -7.543477 
L 289.059233 -7.673112 
L 289.777749 -7.805434 
L 290.496266 -7.940618 
L 291.214782 -8.078831 
L 291.933299 -8.220235 
L 292.651816 -8.364978 
L 293.370332 -8.513202 
L 294.088849 -8.665035 
L 294.807365 -8.82059 
L 295.525882 -8.979969 
L 296.244399 -9.143259 
L 296.962915 -9.310531 
L 297.681432 -9.481837 
L 298.399948 -9.657216 
L 299.118465 -9.836684 
L 299.836982 -10.020243 
L 300.555498 -10.207872 
L 301.274015 -10.399534 
L 301.992532 -10.595174 
L 302.711048 -10.79472 
L 303.429565 -10.998087 
L 304.148081 -11.205178 
L 304.866598 -11.415887 
L 305.585115 -11.630105 
L 306.303631 -11.847723 
L 307.022148 -12.068633 
L 307.740664 -12.292736 
L 308.459181 -12.51994 
L 309.177698 -12.750165 
L 309.896214 -12.983342 
L 310.614731 -13.219414 
L 311.333247 -13.458331 
L 312.051764 -13.700049 
L 312.770281 -13.944522 
L 313.488797 -14.191701 
L 314.207314 -14.44152 
L 314.925831 -14.693896 
L 315.644347 -14.948717 
L 316.362864 -15.205835 
L 317.08138 -15.465065 
L 317.799897 -15.726178 
L 318.518414 -15.988901 
L 319.23693 -16.252918 
L 319.955447 -16.517871 
L 320.673963 -16.78337 
L 321.39248 -17.049002 
L 322.110997 -17.31434 
L 322.829513 -17.578958 
L 323.54803 -17.842448 
L 324.266546 -18.104431 
L 324.985063 -18.364576 
L 325.70358 -18.622613 
L 326.422096 -18.878345 
L 327.140613 -19.131658 
L 327.85913 -19.382528 
L 328.577646 -19.631022 
L 329.296163 -19.877299 
L 330.014679 -20.121603 
L 330.733196 -20.364253 
L 331.451713 -20.60563 
L 332.170229 -20.846161 
L 332.888746 -21.086303 
L 333.607262 -21.32652 
L 334.325779 -21.567265 
L 335.044296 -21.808961 
L 335.762812 -22.051985 
L 336.481329 -22.296653 
L 337.199845 -22.543209 
L 337.918362 -22.791819 
L 338.636879 -23.042567 
L 339.355395 -23.295457 
L 340.073912 -23.550421 
L 340.792429 -23.807323 
L 341.510945 -24.065975 
L 342.229462 -24.326148 
L 342.947978 -24.587588 
L 343.666495 -24.850029 
L 344.385012 -25.113206 
L 345.103528 -25.37687 
L 345.822045 -25.640793 
L 346.540561 -25.904776 
L 347.259078 -26.168651 
L 347.977595 -26.432282 
L 348.696111 -26.695561 
L 349.414628 -26.958403 
L 350.133144 -27.220736 
L 350.851661 -27.482497 
L 351.570178 -27.743615 
L 352.288694 -28.00401 
L 353.007211 -28.263581 
L 353.725728 -28.522203 
L 354.444244 -28.779721 
L 355.162761 -29.035951 
L 355.881277 -29.290682 
L 356.599794 -29.543679 
L 357.318311 -29.794692 
L 358.036827 -30.043466 
L 358.755344 -30.289746 
L 359.47386 -30.533291 
L 360.192377 -30.773883 
L 360.910894 -31.011339 
L 361.62941 -31.245512 
L 362.347927 -31.476301 
L 363.066443 -31.703652 
L 363.78496 -31.927557 
L 364.503477 -32.148054 
L 365.221993 -32.365214 
L 365.94051 -32.579143 
L 366.659027 -32.789963 
L 367.377543 -32.997804 
L 368.09606 -33.202793 
L 368.814576 -33.40504 
L 369.533093 -33.604628 
L 370.25161 -33.801599 
L 370.970126 -33.995951 
L 371.688643 -34.187623 
L 372.407159 -34.376497 
L 373.125676 -34.562391 
L 373.844193 -34.745057 
L 374.562709 -34.924189 
L 375.281226 -35.09942 
L 375.999742 -35.270331 
L 376.718259 -35.436458 
L 377.436776 -35.5973 
L 378.155292 -35.75233 
L 378.873809 -35.901008 
L 379.592326 -36.042791 
L 380.310842 -36.177147 
L 381.029359 -36.303572 
L 381.747875 -36.421599 
L 382.466392 -36.530815 
L 383.184909 -36.630873 
L 383.903425 -36.721506 
L 384.621942 -36.802533 
L 385.340458 -36.87387 
L 386.058975 -36.935536 
L 386.777492 -36.987651 
L 387.496008 -37.030438 
L 388.214525 -37.064215 
L 388.933041 -37.089388 
L 389.651558 -37.106434 
L 390.370075 -37.115891 
L 391.088591 -37.118336 
L 391.807108 -37.114365 
L 392.525625 -37.104575 
L 393.244141 -37.08954 
L 393.962658 -37.069801 
L 394.681174 -37.04584 
L 395.399691 -37.018076 
L 396.118208 -36.986849 
L 396.836724 -36.952425 
L 397.555241 -36.914987 
L 398.273757 -36.874643 
L 398.992274 -36.831432 
L 399.710791 -36.785337 
L 400.429307 -36.736292 
L 401.147824 -36.684198 
L 401.86634 -36.628935 
L 402.584857 -36.570372 
L 403.303374 -36.508377 
L 404.02189 -36.442826 
L 404.740407 -36.373607 
L 405.458924 -36.300621 
L 406.17744 -36.223783 
L 406.895957 -36.143018 
L 407.614473 -36.058263 
L 408.33299 -35.969455 
L 409.051507 -35.876533 
L 409.770023 -35.779431 
L 410.48854 -35.678076 
L 411.207056 -35.572391 
L 411.925573 -35.46229 
L 412.64409 -35.347685 
L 413.362606 -35.228492 
L 414.081123 -35.104631 
L 414.799639 -34.976038 
L 415.518156 -34.842671 
L 416.236673 -34.704515 
L 416.955189 -34.561586 
L 417.673706 -34.41394 
L 418.392223 -34.261671 
L 419.110739 -34.10491 
L 419.829256 -33.943825 
L 420.547772 -33.778616 
L 421.266289 -33.609505 
L 421.984806 -33.436731 
L 422.703322 -33.260539 
L 423.421839 -33.081169 
L 424.140355 -32.898844 
L 424.858872 -32.713766 
L 425.577389 -32.526099 
L 426.295905 -32.33597 
L 427.014422 -32.143458 
L 427.732938 -31.948594 
L 428.451455 -31.751359 
L 429.169972 -31.551687 
L 429.888488 -31.349471 
L 430.607005 -31.144564 
L 431.325522 -30.936793 
L 432.044038 -30.725965 
L 432.762555 -30.511881 
L 433.481071 -30.294342 
L 434.199588 -30.073166 
L 434.918105 -29.848192 
L 435.636621 -29.619296 
L 436.355138 -29.386396 
L 437.073654 -29.149457 
L 437.792171 -28.908501 
L 438.510688 -28.663603 
L 439.229204 -28.414896 
L 439.947721 -28.162569 
L 440.666237 -27.906859 
L 441.384754 -27.648048 
L 442.103271 -27.386457 
L 442.821787 -27.122432 
L 443.540304 -26.856338 
L 444.25882 -26.588543 
L 444.977337 -26.319415 
L 445.695854 -26.049301 
L 446.41437 -25.778523 
L 447.132887 -25.507368 
L 447.851404 -25.236074 
L 448.56992 -24.964827 
L 449.288437 -24.693757 
L 450.006953 -24.42293 
L 450.72547 -24.152347 
L 451.443987 -23.881949 
L 452.162503 -23.611612 
L 452.88102 -23.341157 
L 453.599536 -23.070354 
L 454.318053 -22.798929 
L 455.03657 -22.526573 
L 455.755086 -22.252954 
L 456.473603 -21.977728 
L 457.192119 -21.700548 
L 457.910636 -21.421082 
L 458.629153 -21.13902 
L 459.347669 -20.854089 
L 460.066186 -20.566065 
L 460.784703 -20.274782 
L 461.503219 -19.980142 
L 462.221736 -19.682126 
L 462.940252 -19.380795 
L 463.658769 -19.076299 
L 464.377286 -18.768878 
L 465.095802 -18.458859 
L 465.814319 -18.146657 
L 466.532835 -17.83277 
L 467.251352 -17.517768 
L 467.969869 -17.202287 
L 468.688385 -16.887017 
L 469.406902 -16.572687 
L 470.125418 -16.260052 
L 470.843935 -15.949878 
L 471.562452 -15.642928 
L 472.280968 -15.33994 
L 472.999485 -15.041621 
L 473.718002 -14.748628 
L 474.436518 -14.461556 
L 475.155035 -14.18093 
L 475.873551 -13.907195 
L 476.592068 -13.640711 
L 477.310585 -13.38175 
L 478.029101 -13.130496 
L 478.747618 -12.887044 
L 479.466134 -12.651406 
L 480.184651 -12.423516 
L 480.903168 -12.203237 
L 481.621684 -11.990368 
L 482.340201 -11.784654 
L 483.058717 -11.585796 
L 483.777234 -11.393457 
L 484.495751 -11.207274 
L 485.214267 -11.026866 
L 485.932784 -10.85184 
L 486.651301 -10.681799 
L 487.369817 -10.516346 
L 488.088334 -10.355094 
L 488.80685 -10.197665 
L 489.525367 -10.043694 
L 490.243884 -9.892837 
L 490.9624 -9.744768 
L 491.680917 -9.599182 
L 492.399433 -9.455801 
L 493.11795 -9.314369 
L 493.836467 -9.174659 
L 494.554983 -9.036472 
L 495.2735 -8.899638 
L 495.992016 -8.764016 
L 496.710533 -8.629498 
L 497.42905 -8.496006 
L 498.147566 -8.36349 
L 498.866083 -8.231935 
L 499.5846 -8.101351 
L 500.303116 -7.971776 
L 501.021633 -7.843275 
L 501.740149 -7.715934 
L 502.458666 -7.589858 
L 503.177183 -7.465168 
L 503.895699 -7.342 
L 504.614216 -7.220494 
L 505.332732 -7.1008 
L 506.051249 -6.983066 
L 506.769766 -6.867439 
L 507.488282 -6.754059 
L 508.206799 -6.64306 
L 508.925315 -6.534561 
L 509.643832 -6.428669 
L 510.362349 -6.325475 
L 511.080865 -6.22505 
L 511.799382 -6.127447 
L 512.517899 -6.032695 
L 513.236415 -5.940803 
L 513.954932 -5.851757 
L 514.673448 -5.765517 
L 515.391965 -5.682022 
L 516.110482 -5.601186 
L 516.828998 -5.522903 
L 517.547515 -5.447045 
L 518.266031 -5.373467 
L 518.984548 -5.302008 
L 519.703065 -5.232494 
L 520.421581 -5.164746 
L 521.140098 -5.098577 
L 521.858614 -5.033806 
L 522.577131 -4.970252 
L 523.295648 -4.907749 
L 524.014164 -4.846143 
L 524.732681 -4.785299 
L 525.451198 -4.725103 
L 526.169714 -4.665467 
L 526.888231 -4.606325 
L 527.606747 -4.547638 
L 528.325264 -4.489391 
L 529.043781 -4.431592 
L 529.762297 -4.374267 
L 530.480814 -4.317458 
L 531.19933 -4.261218 
L 531.917847 -4.205607 
L 532.636364 -4.150688 
L 532.636364 -2.470909 
L 532.636364 -2.470909 
L 531.917847 -2.470909 
L 531.19933 -2.470909 
L 530.480814 -2.470909 
L 529.762297 -2.470909 
L 529.043781 -2.470909 
L 528.325264 -2.470909 
L 527.606747 -2.470909 
L 526.888231 -2.470909 
L 526.169714 -2.470909 
L 525.451198 -2.470909 
L 524.732681 -2.470909 
L 524.014164 -2.470909 
L 523.295648 -2.470909 
L 522.577131 -2.470909 
L 521.858614 -2.470909 
L 521.140098 -2.470909 
L 520.421581 -2.470909 
L 519.703065 -2.470909 
L 518.984548 -2.470909 
L 518.266031 -2.470909 
L 517.547515 -2.470909 
L 516.828998 -2.470909 
L 516.110482 -2.470909 
L 515.391965 -2.470909 
L 514.673448 -2.470909 
L 513.954932 -2.470909 
L 513.236415 -2.470909 
L 512.517899 -2.470909 
L 511.799382 -2.470909 
L 511.080865 -2.470909 
L 510.362349 -2.470909 
L 509.643832 -2.470909 
L 508.925315 -2.470909 
L 508.206799 -2.470909 
L 507.488282 -2.470909 
L 506.769766 -2.470909 
L 506.051249 -2.470909 
L 505.332732 -2.470909 
L 504.614216 -2.470909 
L 503.895699 -2.470909 
L 503.177183 -2.470909 
L 502.458666 -2.470909 
L 501.740149 -2.470909 
L 501.021633 -2.470909 
L 500.303116 -2.470909 
L 499.5846 -2.470909 
L 498.866083 -2.470909 
L 498.147566 -2.470909 
L 497.42905 -2.470909 
L 496.710533 -2.470909 
L 495.992016 -2.470909 
L 495.2735 -2.470909 
L 494.554983 -2.470909 
L 493.836467 -2.470909 
L 493.11795 -2.470909 
L 492.399433 -2.470909 
L 491.680917 -2.470909 
L 490.9624 -2.470909 
L 490.243884 -2.470909 
L 489.525367 -2.470909 
L 488.80685 -2.470909 
L 488.088334 -2.470909 
L 487.369817 -2.470909 
L 486.651301 -2.470909 
L 485.932784 -2.470909 
L 485.214267 -2.470909 
L 484.495751 -2.470909 
L 483.777234 -2.470909 
L 483.058717 -2.470909 
L 482.340201 -2.470909 
L 481.621684 -2.470909 
L 480.903168 -2.470909 
L 480.184651 -2.470909 
L 479.466134 -2.470909 
L 478.747618 -2.470909 
L 478.029101 -2.470909 
L 477.310585 -2.470909 
L 476.592068 -2.470909 
L 475.873551 -2.470909 
L 475.155035 -2.470909 
L 474.436518 -2.470909 
L 473.718002 -2.470909 
L 472.999485 -2.470909 
L 472.280968 -2.470909 
L 471.562452 -2.470909 
L 470.843935 -2.470909 
L 470.125418 -2.470909 
L 469.406902 -2.470909 
L 468.688385 -2.470909 
L 467.969869 -2.470909 
L 467.251352 -2.470909 
L 466.532835 -2.470909 
L 465.814319 -2.470909 
L 465.095802 -2.470909 
L 464.377286 -2.470909 
L 463.658769 -2.470909 
L 462.940252 -2.470909 
L 462.221736 -2.470909 
L 461.503219 -2.470909 
L 460.784703 -2.470909 
L 460.066186 -2.470909 
L 459.347669 -2.470909 
L 458.629153 -2.470909 
L 457.910636 -2.470909 
L 457.192119 -2.470909 
L 456.473603 -2.470909 
L 455.755086 -2.470909 
L 455.03657 -2.470909 
L 454.318053 -2.470909 
L 453.599536 -2.470909 
L 452.88102 -2.470909 
L 452.162503 -2.470909 
L 451.443987 -2.470909 
L 450.72547 -2.470909 
L 450.006953 -2.470909 
L 449.288437 -2.470909 
L 448.56992 -2.470909 
L 447.851404 -2.470909 
L 447.132887 -2.470909 
L 446.41437 -2.470909 
L 445.695854 -2.470909 
L 444.977337 -2.470909 
L 444.25882 -2.470909 
L 443.540304 -2.470909 
L 442.821787 -2.470909 
L 442.103271 -2.470909 
L 441.384754 -2.470909 
L 440.666237 -2.470909 
L 439.947721 -2.470909 
L 439.229204 -2.470909 
L 438.510688 -2.470909 
L 437.792171 -2.470909 
L 437.073654 -2.470909 
L 436.355138 -2.470909 
L 435.636621 -2.470909 
L 434.918105 -2.470909 
L 434.199588 -2.470909 
L 433.481071 -2.470909 
L 432.762555 -2.470909 
L 432.044038 -2.470909 
L 431.325522 -2.470909 
L 430.607005 -2.470909 
L 429.888488 -2.470909 
L 429.169972 -2.470909 
L 428.451455 -2.470909 
L 427.732938 -2.470909 
L 427.014422 -2.470909 
L 426.295905 -2.470909 
L 425.577389 -2.470909 
L 424.858872 -2.470909 
L 424.140355 -2.470909 
L 423.421839 -2.470909 
L 422.703322 -2.470909 
L 421.984806 -2.470909 
L 421.266289 -2.470909 
L 420.547772 -2.470909 
L 419.829256 -2.470909 
L 419.110739 -2.470909 
L 418.392223 -2.470909 
L 417.673706 -2.470909 
L 416.955189 -2.470909 
L 416.236673 -2.470909 
L 415.518156 -2.470909 
L 414.799639 -2.470909 
L 414.081123 -2.470909 
L 413.362606 -2.470909 
L 412.64409 -2.470909 
L 411.925573 -2.470909 
L 411.207056 -2.470909 
L 410.48854 -2.470909 
L 409.770023 -2.470909 
L 409.051507 -2.470909 
L 408.33299 -2.470909 
L 407.614473 -2.470909 
L 406.895957 -2.470909 
L 406.17744 -2.470909 
L 405.458924 -2.470909 
L 404.740407 -2.470909 
L 404.02189 -2.470909 
L 403.303374 -2.470909 
L 402.584857 -2.470909 
L 401.86634 -2.470909 
L 401.147824 -2.470909 
L 400.429307 -2.470909 
L 399.710791 -2.470909 
L 398.992274 -2.470909 
L 398.273757 -2.470909 
L 397.555241 -2.470909 
L 396.836724 -2.470909 
L 396.118208 -2.470909 
L 395.399691 -2.470909 
L 394.681174 -2.470909 
L 393.962658 -2.470909 
L 393.244141 -2.470909 
L 392.525625 -2.470909 
L 391.807108 -2.470909 
L 391.088591 -2.470909 
L 390.370075 -2.470909 
L 389.651558 -2.470909 
L 388.933041 -2.470909 
L 388.214525 -2.470909 
L 387.496008 -2.470909 
L 386.777492 -2.470909 
L 386.058975 -2.470909 
L 385.340458 -2.470909 
L 384.621942 -2.470909 
L 383.903425 -2.470909 
L 383.184909 -2.470909 
L 382.466392 -2.470909 
L 381.747875 -2.470909 
L 381.029359 -2.470909 
L 380.310842 -2.470909 
L 379.592326 -2.470909 
L 378.873809 -2.470909 
L 378.155292 -2.470909 
L 377.436776 -2.470909 
L 376.718259 -2.470909 
L 375.999742 -2.470909 
L 375.281226 -2.470909 
L 374.562709 -2.470909 
L 373.844193 -2.470909 
L 373.125676 -2.470909 
L 372.407159 -2.470909 
L 371.688643 -2.470909 
L 370.970126 -2.470909 
L 370.25161 -2.470909 
L 369.533093 -2.470909 
L 368.814576 -2.470909 
L 368.09606 -2.470909 
L 367.377543 -2.470909 
L 366.659027 -2.470909 
L 365.94051 -2.470909 
L 365.221993 -2.470909 
L 364.503477 -2.470909 
L 363.78496 -2.470909 
L 363.066443 -2.470909 
L 362.347927 -2.470909 
L 361.62941 -2.470909 
L 360.910894 -2.470909 
L 360.192377 -2.470909 
L 359.47386 -2.470909 
L 358.755344 -2.470909 
L 358.036827 -2.470909 
L 357.318311 -2.470909 
L 356.599794 -2.470909 
L 355.881277 -2.470909 
L 355.162761 -2.470909 
L 354.444244 -2.470909 
L 353.725728 -2.470909 
L 353.007211 -2.470909 
L 352.288694 -2.470909 
L 351.570178 -2.470909 
L 350.851661 -2.470909 
L 350.133144 -2.470909 
L 349.414628 -2.470909 
L 348.696111 -2.470909 
L 347.977595 -2.470909 
L 347.259078 -2.470909 
L 346.540561 -2.470909 
L 345.822045 -2.470909 
L 345.103528 -2.470909 
L 344.385012 -2.470909 
L 343.666495 -2.470909 
L 342.947978 -2.470909 
L 342.229462 -2.470909 
L 341.510945 -2.470909 
L 340.792429 -2.470909 
L 340.073912 -2.470909 
L 339.355395 -2.470909 
L 338.636879 -2.470909 
L 337.918362 -2.470909 
L 337.199845 -2.470909 
L 336.481329 -2.470909 
L 335.762812 -2.470909 
L 335.044296 -2.470909 
L 334.325779 -2.470909 
L 333.607262 -2.470909 
L 332.888746 -2.470909 
L 332.170229 -2.470909 
L 331.451713 -2.470909 
L 330.733196 -2.470909 
L 330.014679 -2.470909 
L 329.296163 -2.470909 
L 328.577646 -2.470909 
L 327.85913 -2.470909 
L 327.140613 -2.470909 
L 326.422096 -2.470909 
L 325.70358 -2.470909 
L 324.985063 -2.470909 
L 324.266546 -2.470909 
L 323.54803 -2.470909 
L 322.829513 -2.470909 
L 322.110997 -2.470909 
L 321.39248 -2.470909 
L 320.673963 -2.470909 
L 319.955447 -2.470909 
L 319.23693 -2.470909 
L 318.518414 -2.470909 
L 317.799897 -2.470909 
L 317.08138 -2.470909 
L 316.362864 -2.470909 
L 315.644347 -2.470909 
L 314.925831 -2.470909 
L 314.207314 -2.470909 
L 313.488797 -2.470909 
L 312.770281 -2.470909 
L 312.051764 -2.470909 
L 311.333247 -2.470909 
L 310.614731 -2.470909 
L 309.896214 -2.470909 
L 309.177698 -2.470909 
L 308.459181 -2.470909 
L 307.740664 -2.470909 
L 307.022148 -2.470909 
L 306.303631 -2.470909 
L 305.585115 -2.470909 
L 304.866598 -2.470909 
L 304.148081 -2.470909 
L 303.429565 -2.470909 
L 302.711048 -2.470909 
L 301.992532 -2.470909 
L 301.274015 -2.470909 
L 300.555498 -2.470909 
L 299.836982 -2.470909 
L 299.118465 -2.470909 
L 298.399948 -2.470909 
L 297.681432 -2.470909 
L 296.962915 -2.470909 
L 296.244399 -2.470909 
L 295.525882 -2.470909 
L 294.807365 -2.470909 
L 294.088849 -2.470909 
L 293.370332 -2.470909 
L 292.651816 -2.470909 
L 291.933299 -2.470909 
L 291.214782 -2.470909 
L 290.496266 -2.470909 
L 289.777749 -2.470909 
L 289.059233 -2.470909 
L 288.340716 -2.470909 
L 287.622199 -2.470909 
L 286.903683 -2.470909 
L 286.185166 -2.470909 
L 285.466649 -2.470909 
L 284.748133 -2.470909 
L 284.029616 -2.470909 
L 283.3111 -2.470909 
L 282.592583 -2.470909 
L 281.874066 -2.470909 
L 281.15555 -2.470909 
L 280.437033 -2.470909 
L 279.718517 -2.470909 
L 279 -2.470909 
L 278.281483 -2.470909 
L 277.562967 -2.470909 
L 276.84445 -2.470909 
L 276.125934 -2.470909 
L 275.407417 -2.470909 
L 274.6889 -2.470909 
L 273.970384 -2.470909 
L 273.251867 -2.470909 
L 272.533351 -2.470909 
L 271.814834 -2.470909 
L 271.096317 -2.470909 
L 270.377801 -2.470909 
L 269.659284 -2.470909 
L 268.940767 -2.470909 
L 268.222251 -2.470909 
L 267.503734 -2.470909 
L 266.785218 -2.470909 
L 266.066701 -2.470909 
L 265.348184 -2.470909 
L 264.629668 -2.470909 
L 263.911151 -2.470909 
L 263.192635 -2.470909 
L 262.474118 -2.470909 
L 261.755601 -2.470909 
L 261.037085 -2.470909 
L 260.318568 -2.470909 
L 259.600052 -2.470909 
L 258.881535 -2.470909 
L 258.163018 -2.470909 
z
" style="stroke: #cf1313; stroke-opacity: 0.2"/>
    </defs>
    <g clip-path="url(#p2dde13df00)">
     <use xlink:href="#mfff3aa61c2" x="0" y="54.36" style="fill: #cf1313; fill-opacity: 0.2; stroke: #cf1313; stroke-opacity: 0.2"/>
    </g>
   </g>
   <g id="PolyCollection_2">
    <defs>
     <path id="mf420b594ad" d="M 162.600309 -2.470909 
L 162.600309 -4.130491 
L 163.318826 -4.201921 
L 164.037342 -4.275961 
L 164.755859 -4.352503 
L 165.474375 -4.431409 
L 166.192892 -4.512506 
L 166.911409 -4.595594 
L 167.629925 -4.680438 
L 168.348442 -4.766782 
L 169.066959 -4.854343 
L 169.785475 -4.942823 
L 170.503992 -5.031915 
L 171.222508 -5.121308 
L 171.941025 -5.2107 
L 172.659542 -5.299803 
L 173.378058 -5.388357 
L 174.096575 -5.476138 
L 174.815091 -5.562966 
L 175.533608 -5.648717 
L 176.252125 -5.733323 
L 176.970641 -5.816786 
L 177.689158 -5.899172 
L 178.407674 -5.980617 
L 179.126191 -6.061324 
L 179.844708 -6.141559 
L 180.563224 -6.221642 
L 181.281741 -6.301939 
L 182.000258 -6.382851 
L 182.718774 -6.464802 
L 183.437291 -6.548225 
L 184.155807 -6.633546 
L 184.874324 -6.721172 
L 185.592841 -6.811479 
L 186.311357 -6.904796 
L 187.029874 -7.0014 
L 187.74839 -7.101506 
L 188.466907 -7.205262 
L 189.185424 -7.31275 
L 189.90394 -7.423988 
L 190.622457 -7.538934 
L 191.340973 -7.657492 
L 192.05949 -7.779529 
L 192.778007 -7.904881 
L 193.496523 -8.033374 
L 194.21504 -8.164833 
L 194.933557 -8.299099 
L 195.652073 -8.436046 
L 196.37059 -8.575586 
L 197.089106 -8.717688 
L 197.807623 -8.862376 
L 198.52614 -9.00974 
L 199.244656 -9.15993 
L 199.963173 -9.313159 
L 200.681689 -9.469692 
L 201.400206 -9.629838 
L 202.118723 -9.79394 
L 202.837239 -9.962358 
L 203.555756 -10.13546 
L 204.274272 -10.313601 
L 204.992789 -10.497113 
L 205.711306 -10.686291 
L 206.429822 -10.88138 
L 207.148339 -11.082566 
L 207.866856 -11.289969 
L 208.585372 -11.503635 
L 209.303889 -11.723537 
L 210.022405 -11.949572 
L 210.740922 -12.181565 
L 211.459439 -12.419269 
L 212.177955 -12.662376 
L 212.896472 -12.910518 
L 213.614988 -13.163278 
L 214.333505 -13.420199 
L 215.052022 -13.680794 
L 215.770538 -13.944554 
L 216.489055 -14.210964 
L 217.207571 -14.479511 
L 217.926088 -14.749696 
L 218.644605 -15.021049 
L 219.363121 -15.293139 
L 220.081638 -15.565587 
L 220.800155 -15.838076 
L 221.518671 -16.110364 
L 222.237188 -16.38229 
L 222.955704 -16.653783 
L 223.674221 -16.924868 
L 224.392738 -17.195662 
L 225.111254 -17.466381 
L 225.829771 -17.73733 
L 226.548287 -18.008896 
L 227.266804 -18.28154 
L 227.985321 -18.55578 
L 228.703837 -18.832178 
L 229.422354 -19.11132 
L 230.14087 -19.393796 
L 230.859387 -19.68018 
L 231.577904 -19.971013 
L 232.29642 -20.266779 
L 233.014937 -20.567892 
L 233.733454 -20.874677 
L 234.45197 -21.18736 
L 235.170487 -21.506053 
L 235.889003 -21.830755 
L 236.60752 -22.161338 
L 237.326037 -22.497555 
L 238.044553 -22.839035 
L 238.76307 -23.185292 
L 239.481586 -23.535728 
L 240.200103 -23.889644 
L 240.91862 -24.24625 
L 241.637136 -24.604674 
L 242.355653 -24.963975 
L 243.074169 -25.323158 
L 243.792686 -25.681184 
L 244.511203 -26.036989 
L 245.229719 -26.389493 
L 245.948236 -26.737619 
L 246.666753 -27.080308 
L 247.385269 -27.416534 
L 248.103786 -27.745321 
L 248.822302 -28.06576 
L 249.540819 -28.377025 
L 250.259336 -28.678392 
L 250.977852 -28.96925 
L 251.696369 -29.249124 
L 252.414885 -29.51768 
L 253.133402 -29.774741 
L 253.851919 -30.020294 
L 254.570435 -30.254496 
L 255.288952 -30.477672 
L 256.007468 -30.690314 
L 256.725985 -30.893071 
L 257.444502 -31.086738 
L 258.163018 -31.272237 
L 258.881535 -31.450595 
L 259.600052 -31.622919 
L 260.318568 -31.790366 
L 261.037085 -31.954114 
L 261.755601 -32.115328 
L 262.474118 -32.275131 
L 263.192635 -32.434568 
L 263.911151 -32.594585 
L 264.629668 -32.755994 
L 265.348184 -32.919459 
L 266.066701 -33.085478 
L 266.785218 -33.254365 
L 267.503734 -33.426252 
L 268.222251 -33.60108 
L 268.940767 -33.778611 
L 269.659284 -33.958431 
L 270.377801 -34.139965 
L 271.096317 -34.322498 
L 271.814834 -34.505193 
L 272.533351 -34.687119 
L 273.251867 -34.867273 
L 273.970384 -35.044612 
L 274.6889 -35.218082 
L 275.407417 -35.386645 
L 276.125934 -35.549311 
L 276.84445 -35.705164 
L 277.562967 -35.853387 
L 278.281483 -35.993286 
L 279 -36.124313 
L 279.718517 -36.246074 
L 280.437033 -36.358347 
L 281.15555 -36.461081 
L 281.874066 -36.554401 
L 282.592583 -36.638596 
L 283.3111 -36.714111 
L 284.029616 -36.781523 
L 284.748133 -36.841522 
L 285.466649 -36.894882 
L 286.185166 -36.942427 
L 286.903683 -36.985 
L 287.622199 -37.023428 
L 288.340716 -37.05849 
L 289.059233 -37.090885 
L 289.777749 -37.121206 
L 290.496266 -37.149922 
L 291.214782 -37.177356 
L 291.933299 -37.203683 
L 292.651816 -37.228925 
L 293.370332 -37.252957 
L 294.088849 -37.275519 
L 294.807365 -37.296235 
L 295.525882 -37.314631 
L 296.244399 -37.330163 
L 296.962915 -37.34224 
L 297.681432 -37.350252 
L 298.399948 -37.353595 
L 299.118465 -37.351692 
L 299.836982 -37.344009 
L 300.555498 -37.330077 
L 301.274015 -37.309492 
L 301.992532 -37.28193 
L 302.711048 -37.247142 
L 303.429565 -37.204954 
L 304.148081 -37.155261 
L 304.866598 -37.098021 
L 305.585115 -37.033247 
L 306.303631 -36.960995 
L 307.022148 -36.881357 
L 307.740664 -36.794452 
L 308.459181 -36.700421 
L 309.177698 -36.599416 
L 309.896214 -36.491599 
L 310.614731 -36.377133 
L 311.333247 -36.256181 
L 312.051764 -36.128902 
L 312.770281 -35.995444 
L 313.488797 -35.85594 
L 314.207314 -35.710507 
L 314.925831 -35.559234 
L 315.644347 -35.402181 
L 316.362864 -35.239373 
L 317.08138 -35.070791 
L 317.799897 -34.896373 
L 318.518414 -34.716005 
L 319.23693 -34.529526 
L 319.955447 -34.336723 
L 320.673963 -34.137339 
L 321.39248 -33.931079 
L 322.110997 -33.717614 
L 322.829513 -33.496602 
L 323.54803 -33.267692 
L 324.266546 -33.030548 
L 324.985063 -32.784859 
L 325.70358 -32.530362 
L 326.422096 -32.266857 
L 327.140613 -31.994224 
L 327.85913 -31.712435 
L 328.577646 -31.421571 
L 329.296163 -31.121824 
L 330.014679 -30.813509 
L 330.733196 -30.497061 
L 331.451713 -30.173035 
L 332.170229 -29.842096 
L 332.888746 -29.505009 
L 333.607262 -29.162628 
L 334.325779 -28.81587 
L 335.044296 -28.465704 
L 335.762812 -28.113122 
L 336.481329 -27.759118 
L 337.199845 -27.404666 
L 337.918362 -27.050697 
L 338.636879 -26.69808 
L 339.355395 -26.347605 
L 340.073912 -25.999969 
L 340.792429 -25.655766 
L 341.510945 -25.315486 
L 342.229462 -24.979508 
L 342.947978 -24.648113 
L 343.666495 -24.321487 
L 344.385012 -23.999735 
L 345.103528 -23.682897 
L 345.822045 -23.370963 
L 346.540561 -23.063896 
L 347.259078 -22.761644 
L 347.977595 -22.464158 
L 348.696111 -22.171409 
L 349.414628 -21.883395 
L 350.133144 -21.600149 
L 350.851661 -21.321744 
L 351.570178 -21.048287 
L 352.288694 -20.779916 
L 353.007211 -20.51679 
L 353.725728 -20.259075 
L 354.444244 -20.006931 
L 355.162761 -19.760494 
L 355.881277 -19.51986 
L 356.599794 -19.285069 
L 357.318311 -19.056095 
L 358.036827 -18.832828 
L 358.755344 -18.615072 
L 359.47386 -18.402541 
L 360.192377 -18.194853 
L 360.910894 -17.991539 
L 361.62941 -17.792052 
L 362.347927 -17.595771 
L 363.066443 -17.402021 
L 363.78496 -17.210087 
L 364.503477 -17.019231 
L 365.221993 -16.828709 
L 365.94051 -16.637792 
L 366.659027 -16.445783 
L 367.377543 -16.25203 
L 368.09606 -16.055948 
L 368.814576 -15.857025 
L 369.533093 -15.654839 
L 370.25161 -15.449061 
L 370.970126 -15.239465 
L 371.688643 -15.025929 
L 372.407159 -14.808435 
L 373.125676 -14.587071 
L 373.844193 -14.36202 
L 374.562709 -14.13356 
L 375.281226 -13.90205 
L 375.999742 -13.667925 
L 376.718259 -13.431679 
L 377.436776 -13.193856 
L 378.155292 -12.955037 
L 378.873809 -12.715822 
L 379.592326 -12.476822 
L 380.310842 -12.238641 
L 381.029359 -12.001869 
L 381.747875 -11.767066 
L 382.466392 -11.534756 
L 383.184909 -11.305415 
L 383.903425 -11.079471 
L 384.621942 -10.857292 
L 385.340458 -10.63919 
L 386.058975 -10.425416 
L 386.777492 -10.216161 
L 387.496008 -10.01156 
L 388.214525 -9.811693 
L 388.933041 -9.616589 
L 389.651558 -9.426231 
L 390.370075 -9.240563 
L 391.088591 -9.05949 
L 391.807108 -8.88289 
L 392.525625 -8.710616 
L 393.244141 -8.542499 
L 393.962658 -8.378358 
L 394.681174 -8.218004 
L 395.399691 -8.06124 
L 396.118208 -7.907876 
L 396.836724 -7.757721 
L 397.555241 -7.6106 
L 398.273757 -7.46635 
L 398.992274 -7.324827 
L 399.710791 -7.18591 
L 400.429307 -7.049503 
L 401.147824 -6.915541 
L 401.86634 -6.783984 
L 402.584857 -6.654825 
L 403.303374 -6.528087 
L 404.02189 -6.403819 
L 404.740407 -6.282095 
L 405.458924 -6.163011 
L 406.17744 -6.046674 
L 406.895957 -5.933203 
L 407.614473 -5.822718 
L 408.33299 -5.715332 
L 409.051507 -5.611147 
L 409.770023 -5.510244 
L 410.48854 -5.412681 
L 411.207056 -5.318484 
L 411.925573 -5.227646 
L 412.64409 -5.140126 
L 413.362606 -5.055848 
L 414.081123 -4.974701 
L 414.799639 -4.896548 
L 415.518156 -4.821224 
L 416.236673 -4.74855 
L 416.955189 -4.678333 
L 417.673706 -4.610378 
L 418.392223 -4.544495 
L 419.110739 -4.480504 
L 419.829256 -4.418244 
L 420.547772 -4.35758 
L 421.266289 -4.298399 
L 421.984806 -4.240623 
L 422.703322 -4.184201 
L 423.421839 -4.129115 
L 424.140355 -4.075372 
L 424.858872 -4.023006 
L 425.577389 -3.972068 
L 426.295905 -3.922626 
L 427.014422 -3.874759 
L 427.014422 -2.470909 
L 427.014422 -2.470909 
L 426.295905 -2.470909 
L 425.577389 -2.470909 
L 424.858872 -2.470909 
L 424.140355 -2.470909 
L 423.421839 -2.470909 
L 422.703322 -2.470909 
L 421.984806 -2.470909 
L 421.266289 -2.470909 
L 420.547772 -2.470909 
L 419.829256 -2.470909 
L 419.110739 -2.470909 
L 418.392223 -2.470909 
L 417.673706 -2.470909 
L 416.955189 -2.470909 
L 416.236673 -2.470909 
L 415.518156 -2.470909 
L 414.799639 -2.470909 
L 414.081123 -2.470909 
L 413.362606 -2.470909 
L 412.64409 -2.470909 
L 411.925573 -2.470909 
L 411.207056 -2.470909 
L 410.48854 -2.470909 
L 409.770023 -2.470909 
L 409.051507 -2.470909 
L 408.33299 -2.470909 
L 407.614473 -2.470909 
L 406.895957 -2.470909 
L 406.17744 -2.470909 
L 405.458924 -2.470909 
L 404.740407 -2.470909 
L 404.02189 -2.470909 
L 403.303374 -2.470909 
L 402.584857 -2.470909 
L 401.86634 -2.470909 
L 401.147824 -2.470909 
L 400.429307 -2.470909 
L 399.710791 -2.470909 
L 398.992274 -2.470909 
L 398.273757 -2.470909 
L 397.555241 -2.470909 
L 396.836724 -2.470909 
L 396.118208 -2.470909 
L 395.399691 -2.470909 
L 394.681174 -2.470909 
L 393.962658 -2.470909 
L 393.244141 -2.470909 
L 392.525625 -2.470909 
L 391.807108 -2.470909 
L 391.088591 -2.470909 
L 390.370075 -2.470909 
L 389.651558 -2.470909 
L 388.933041 -2.470909 
L 388.214525 -2.470909 
L 387.496008 -2.470909 
L 386.777492 -2.470909 
L 386.058975 -2.470909 
L 385.340458 -2.470909 
L 384.621942 -2.470909 
L 383.903425 -2.470909 
L 383.184909 -2.470909 
L 382.466392 -2.470909 
L 381.747875 -2.470909 
L 381.029359 -2.470909 
L 380.310842 -2.470909 
L 379.592326 -2.470909 
L 378.873809 -2.470909 
L 378.155292 -2.470909 
L 377.436776 -2.470909 
L 376.718259 -2.470909 
L 375.999742 -2.470909 
L 375.281226 -2.470909 
L 374.562709 -2.470909 
L 373.844193 -2.470909 
L 373.125676 -2.470909 
L 372.407159 -2.470909 
L 371.688643 -2.470909 
L 370.970126 -2.470909 
L 370.25161 -2.470909 
L 369.533093 -2.470909 
L 368.814576 -2.470909 
L 368.09606 -2.470909 
L 367.377543 -2.470909 
L 366.659027 -2.470909 
L 365.94051 -2.470909 
L 365.221993 -2.470909 
L 364.503477 -2.470909 
L 363.78496 -2.470909 
L 363.066443 -2.470909 
L 362.347927 -2.470909 
L 361.62941 -2.470909 
L 360.910894 -2.470909 
L 360.192377 -2.470909 
L 359.47386 -2.470909 
L 358.755344 -2.470909 
L 358.036827 -2.470909 
L 357.318311 -2.470909 
L 356.599794 -2.470909 
L 355.881277 -2.470909 
L 355.162761 -2.470909 
L 354.444244 -2.470909 
L 353.725728 -2.470909 
L 353.007211 -2.470909 
L 352.288694 -2.470909 
L 351.570178 -2.470909 
L 350.851661 -2.470909 
L 350.133144 -2.470909 
L 349.414628 -2.470909 
L 348.696111 -2.470909 
L 347.977595 -2.470909 
L 347.259078 -2.470909 
L 346.540561 -2.470909 
L 345.822045 -2.470909 
L 345.103528 -2.470909 
L 344.385012 -2.470909 
L 343.666495 -2.470909 
L 342.947978 -2.470909 
L 342.229462 -2.470909 
L 341.510945 -2.470909 
L 340.792429 -2.470909 
L 340.073912 -2.470909 
L 339.355395 -2.470909 
L 338.636879 -2.470909 
L 337.918362 -2.470909 
L 337.199845 -2.470909 
L 336.481329 -2.470909 
L 335.762812 -2.470909 
L 335.044296 -2.470909 
L 334.325779 -2.470909 
L 333.607262 -2.470909 
L 332.888746 -2.470909 
L 332.170229 -2.470909 
L 331.451713 -2.470909 
L 330.733196 -2.470909 
L 330.014679 -2.470909 
L 329.296163 -2.470909 
L 328.577646 -2.470909 
L 327.85913 -2.470909 
L 327.140613 -2.470909 
L 326.422096 -2.470909 
L 325.70358 -2.470909 
L 324.985063 -2.470909 
L 324.266546 -2.470909 
L 323.54803 -2.470909 
L 322.829513 -2.470909 
L 322.110997 -2.470909 
L 321.39248 -2.470909 
L 320.673963 -2.470909 
L 319.955447 -2.470909 
L 319.23693 -2.470909 
L 318.518414 -2.470909 
L 317.799897 -2.470909 
L 317.08138 -2.470909 
L 316.362864 -2.470909 
L 315.644347 -2.470909 
L 314.925831 -2.470909 
L 314.207314 -2.470909 
L 313.488797 -2.470909 
L 312.770281 -2.470909 
L 312.051764 -2.470909 
L 311.333247 -2.470909 
L 310.614731 -2.470909 
L 309.896214 -2.470909 
L 309.177698 -2.470909 
L 308.459181 -2.470909 
L 307.740664 -2.470909 
L 307.022148 -2.470909 
L 306.303631 -2.470909 
L 305.585115 -2.470909 
L 304.866598 -2.470909 
L 304.148081 -2.470909 
L 303.429565 -2.470909 
L 302.711048 -2.470909 
L 301.992532 -2.470909 
L 301.274015 -2.470909 
L 300.555498 -2.470909 
L 299.836982 -2.470909 
L 299.118465 -2.470909 
L 298.399948 -2.470909 
L 297.681432 -2.470909 
L 296.962915 -2.470909 
L 296.244399 -2.470909 
L 295.525882 -2.470909 
L 294.807365 -2.470909 
L 294.088849 -2.470909 
L 293.370332 -2.470909 
L 292.651816 -2.470909 
L 291.933299 -2.470909 
L 291.214782 -2.470909 
L 290.496266 -2.470909 
L 289.777749 -2.470909 
L 289.059233 -2.470909 
L 288.340716 -2.470909 
L 287.622199 -2.470909 
L 286.903683 -2.470909 
L 286.185166 -2.470909 
L 285.466649 -2.470909 
L 284.748133 -2.470909 
L 284.029616 -2.470909 
L 283.3111 -2.470909 
L 282.592583 -2.470909 
L 281.874066 -2.470909 
L 281.15555 -2.470909 
L 280.437033 -2.470909 
L 279.718517 -2.470909 
L 279 -2.470909 
L 278.281483 -2.470909 
L 277.562967 -2.470909 
L 276.84445 -2.470909 
L 276.125934 -2.470909 
L 275.407417 -2.470909 
L 274.6889 -2.470909 
L 273.970384 -2.470909 
L 273.251867 -2.470909 
L 272.533351 -2.470909 
L 271.814834 -2.470909 
L 271.096317 -2.470909 
L 270.377801 -2.470909 
L 269.659284 -2.470909 
L 268.940767 -2.470909 
L 268.222251 -2.470909 
L 267.503734 -2.470909 
L 266.785218 -2.470909 
L 266.066701 -2.470909 
L 265.348184 -2.470909 
L 264.629668 -2.470909 
L 263.911151 -2.470909 
L 263.192635 -2.470909 
L 262.474118 -2.470909 
L 261.755601 -2.470909 
L 261.037085 -2.470909 
L 260.318568 -2.470909 
L 259.600052 -2.470909 
L 258.881535 -2.470909 
L 258.163018 -2.470909 
L 257.444502 -2.470909 
L 256.725985 -2.470909 
L 256.007468 -2.470909 
L 255.288952 -2.470909 
L 254.570435 -2.470909 
L 253.851919 -2.470909 
L 253.133402 -2.470909 
L 252.414885 -2.470909 
L 251.696369 -2.470909 
L 250.977852 -2.470909 
L 250.259336 -2.470909 
L 249.540819 -2.470909 
L 248.822302 -2.470909 
L 248.103786 -2.470909 
L 247.385269 -2.470909 
L 246.666753 -2.470909 
L 245.948236 -2.470909 
L 245.229719 -2.470909 
L 244.511203 -2.470909 
L 243.792686 -2.470909 
L 243.074169 -2.470909 
L 242.355653 -2.470909 
L 241.637136 -2.470909 
L 240.91862 -2.470909 
L 240.200103 -2.470909 
L 239.481586 -2.470909 
L 238.76307 -2.470909 
L 238.044553 -2.470909 
L 237.326037 -2.470909 
L 236.60752 -2.470909 
L 235.889003 -2.470909 
L 235.170487 -2.470909 
L 234.45197 -2.470909 
L 233.733454 -2.470909 
L 233.014937 -2.470909 
L 232.29642 -2.470909 
L 231.577904 -2.470909 
L 230.859387 -2.470909 
L 230.14087 -2.470909 
L 229.422354 -2.470909 
L 228.703837 -2.470909 
L 227.985321 -2.470909 
L 227.266804 -2.470909 
L 226.548287 -2.470909 
L 225.829771 -2.470909 
L 225.111254 -2.470909 
L 224.392738 -2.470909 
L 223.674221 -2.470909 
L 222.955704 -2.470909 
L 222.237188 -2.470909 
L 221.518671 -2.470909 
L 220.800155 -2.470909 
L 220.081638 -2.470909 
L 219.363121 -2.470909 
L 218.644605 -2.470909 
L 217.926088 -2.470909 
L 217.207571 -2.470909 
L 216.489055 -2.470909 
L 215.770538 -2.470909 
L 215.052022 -2.470909 
L 214.333505 -2.470909 
L 213.614988 -2.470909 
L 212.896472 -2.470909 
L 212.177955 -2.470909 
L 211.459439 -2.470909 
L 210.740922 -2.470909 
L 210.022405 -2.470909 
L 209.303889 -2.470909 
L 208.585372 -2.470909 
L 207.866856 -2.470909 
L 207.148339 -2.470909 
L 206.429822 -2.470909 
L 205.711306 -2.470909 
L 204.992789 -2.470909 
L 204.274272 -2.470909 
L 203.555756 -2.470909 
L 202.837239 -2.470909 
L 202.118723 -2.470909 
L 201.400206 -2.470909 
L 200.681689 -2.470909 
L 199.963173 -2.470909 
L 199.244656 -2.470909 
L 198.52614 -2.470909 
L 197.807623 -2.470909 
L 197.089106 -2.470909 
L 196.37059 -2.470909 
L 195.652073 -2.470909 
L 194.933557 -2.470909 
L 194.21504 -2.470909 
L 193.496523 -2.470909 
L 192.778007 -2.470909 
L 192.05949 -2.470909 
L 191.340973 -2.470909 
L 190.622457 -2.470909 
L 189.90394 -2.470909 
L 189.185424 -2.470909 
L 188.466907 -2.470909 
L 187.74839 -2.470909 
L 187.029874 -2.470909 
L 186.311357 -2.470909 
L 185.592841 -2.470909 
L 184.874324 -2.470909 
L 184.155807 -2.470909 
L 183.437291 -2.470909 
L 182.718774 -2.470909 
L 182.000258 -2.470909 
L 181.281741 -2.470909 
L 180.563224 -2.470909 
L 179.844708 -2.470909 
L 179.126191 -2.470909 
L 178.407674 -2.470909 
L 177.689158 -2.470909 
L 176.970641 -2.470909 
L 176.252125 -2.470909 
L 175.533608 -2.470909 
L 174.815091 -2.470909 
L 174.096575 -2.470909 
L 173.378058 -2.470909 
L 172.659542 -2.470909 
L 171.941025 -2.470909 
L 171.222508 -2.470909 
L 170.503992 -2.470909 
L 169.785475 -2.470909 
L 169.066959 -2.470909 
L 168.348442 -2.470909 
L 167.629925 -2.470909 
L 166.911409 -2.470909 
L 166.192892 -2.470909 
L 165.474375 -2.470909 
L 164.755859 -2.470909 
L 164.037342 -2.470909 
L 163.318826 -2.470909 
L 162.600309 -2.470909 
z
" style="stroke: #116dc2; stroke-opacity: 0.2"/>
    </defs>
    <g clip-path="url(#p2dde13df00)">
     <use xlink:href="#mf420b594ad" x="0" y="54.36" style="fill: #116dc2; fill-opacity: 0.2; stroke: #116dc2; stroke-opacity: 0.2"/>
    </g>
   </g>
   <g id="PolyCollection_3">
    <defs>
     <path id="mf61d05ab69" d="M 25.363636 -2.470909 
L 25.363636 -4.79319 
L 26.082153 -5.218793 
L 26.80067 -5.652771 
L 27.519186 -6.147836 
L 28.237703 -6.778828 
L 28.956219 -7.586841 
L 29.674736 -8.555535 
L 30.393253 -9.633586 
L 31.111769 -10.770467 
L 31.830286 -11.954986 
L 32.548802 -13.244751 
L 33.267319 -14.736616 
L 33.985836 -16.472971 
L 34.704352 -18.379249 
L 35.422869 -20.319702 
L 36.141386 -22.224826 
L 36.859902 -24.152647 
L 37.578419 -26.218599 
L 38.296935 -28.479173 
L 39.015452 -30.893853 
L 39.733969 -33.379115 
L 40.452485 -35.87203 
L 41.171002 -38.348672 
L 41.889518 -40.806299 
L 42.608035 -43.229543 
L 43.326552 -45.556905 
L 44.045068 -47.6741 
L 44.763585 -49.447018 
L 45.482101 -50.767852 
L 46.200618 -51.580627 
L 46.919135 -51.889091 
L 47.637651 -51.7657 
L 48.356168 -51.351221 
L 49.074685 -50.81531 
L 49.793201 -50.278072 
L 50.511718 -49.751563 
L 51.230234 -49.1697 
L 51.948751 -48.472233 
L 52.667268 -47.61586 
L 53.385784 -46.493082 
L 54.104301 -44.923477 
L 54.822817 -42.813032 
L 55.541334 -40.308247 
L 56.259851 -37.727009 
L 56.978367 -35.317907 
L 57.696884 -33.096836 
L 58.4154 -30.907193 
L 59.133917 -28.626756 
L 59.852434 -26.313462 
L 60.57095 -24.140785 
L 61.289467 -22.209396 
L 62.007984 -20.471646 
L 62.7265 -18.833866 
L 63.445017 -17.258217 
L 64.163533 -15.737294 
L 64.88205 -14.232905 
L 65.600567 -12.701423 
L 66.319083 -11.170833 
L 67.0376 -9.754021 
L 67.756116 -8.572143 
L 68.474633 -7.667866 
L 69.19315 -6.984088 
L 69.911666 -6.41506 
L 70.630183 -5.883622 
L 71.348699 -5.378635 
L 72.067216 -4.922533 
L 72.067216 -2.470909 
L 72.067216 -2.470909 
L 71.348699 -2.470909 
L 70.630183 -2.470909 
L 69.911666 -2.470909 
L 69.19315 -2.470909 
L 68.474633 -2.470909 
L 67.756116 -2.470909 
L 67.0376 -2.470909 
L 66.319083 -2.470909 
L 65.600567 -2.470909 
L 64.88205 -2.470909 
L 64.163533 -2.470909 
L 63.445017 -2.470909 
L 62.7265 -2.470909 
L 62.007984 -2.470909 
L 61.289467 -2.470909 
L 60.57095 -2.470909 
L 59.852434 -2.470909 
L 59.133917 -2.470909 
L 58.4154 -2.470909 
L 57.696884 -2.470909 
L 56.978367 -2.470909 
L 56.259851 -2.470909 
L 55.541334 -2.470909 
L 54.822817 -2.470909 
L 54.104301 -2.470909 
L 53.385784 -2.470909 
L 52.667268 -2.470909 
L 51.948751 -2.470909 
L 51.230234 -2.470909 
L 50.511718 -2.470909 
L 49.793201 -2.470909 
L 49.074685 -2.470909 
L 48.356168 -2.470909 
L 47.637651 -2.470909 
L 46.919135 -2.470909 
L 46.200618 -2.470909 
L 45.482101 -2.470909 
L 44.763585 -2.470909 
L 44.045068 -2.470909 
L 43.326552 -2.470909 
L 42.608035 -2.470909 
L 41.889518 -2.470909 
L 41.171002 -2.470909 
L 40.452485 -2.470909 
L 39.733969 -2.470909 
L 39.015452 -2.470909 
L 38.296935 -2.470909 
L 37.578419 -2.470909 
L 36.859902 -2.470909 
L 36.141386 -2.470909 
L 35.422869 -2.470909 
L 34.704352 -2.470909 
L 33.985836 -2.470909 
L 33.267319 -2.470909 
L 32.548802 -2.470909 
L 31.830286 -2.470909 
L 31.111769 -2.470909 
L 30.393253 -2.470909 
L 29.674736 -2.470909 
L 28.956219 -2.470909 
L 28.237703 -2.470909 
L 27.519186 -2.470909 
L 26.80067 -2.470909 
L 26.082153 -2.470909 
L 25.363636 -2.470909 
z
" style="stroke: #8a8a8a; stroke-opacity: 0.2"/>
    </defs>
    <g clip-path="url(#p2dde13df00)">
     <use xlink:href="#mf61d05ab69" x="0" y="54.36" style="fill: #8a8a8a; fill-opacity: 0.2; stroke: #8a8a8a; stroke-opacity: 0.2"/>
    </g>
   </g>
   <g id="line2d_1">
    <path d="M 258.163018 50.540169 
L 264.629668 50.102763 
L 271.096317 49.417935 
L 279 48.329373 
L 288.340716 46.816523 
L 294.807365 45.53941 
L 300.555498 44.152128 
L 306.303631 42.512277 
L 312.770281 40.415478 
L 319.955447 37.842129 
L 330.014679 34.238397 
L 342.947978 29.772412 
L 360.192377 23.586117 
L 365.94051 21.780857 
L 372.407159 19.983503 
L 378.155292 18.60767 
L 381.747875 17.938401 
L 385.340458 17.48613 
L 388.933041 17.270612 
L 393.244141 17.27046 
L 398.992274 17.528568 
L 404.740407 17.986393 
L 410.48854 18.681924 
L 415.518156 19.517329 
L 420.547772 20.581384 
L 427.014422 22.216542 
L 433.481071 24.065658 
L 439.229204 25.945104 
L 446.41437 28.581477 
L 461.503219 34.379858 
L 468.688385 37.472983 
L 474.436518 39.898444 
L 478.747618 41.472956 
L 483.058717 42.774204 
L 487.369817 43.843654 
L 493.836467 45.185341 
L 503.895699 47.018 
L 511.080865 48.13495 
L 517.547515 48.912955 
L 526.169714 49.694533 
L 532.636364 50.209312 
L 532.636364 50.209312 
" clip-path="url(#p2dde13df00)" style="fill: none; stroke: #cf1313; stroke-width: 1.5; stroke-linecap: square"/>
   </g>
   <g id="line2d_2">
    <path d="M 162.600309 50.229509 
L 169.785475 49.417177 
L 192.778007 46.455119 
L 199.244656 45.20007 
L 204.992789 43.862887 
L 209.303889 42.636463 
L 214.333505 40.939801 
L 223.674221 37.435132 
L 232.29642 34.093221 
L 236.60752 32.198662 
L 242.355653 29.396025 
L 248.103786 26.614679 
L 251.696369 25.110876 
L 255.288952 23.882328 
L 258.881535 22.909405 
L 278.281483 18.366714 
L 281.874066 17.805599 
L 285.466649 17.465118 
L 291.214782 17.182644 
L 298.399948 17.006405 
L 302.711048 17.112858 
L 306.303631 17.399005 
L 310.614731 17.982867 
L 314.925831 18.800766 
L 319.23693 19.830474 
L 323.54803 21.092308 
L 327.140613 22.365776 
L 330.733196 23.862939 
L 335.762812 26.246878 
L 343.666495 30.038513 
L 348.696111 32.188591 
L 353.725728 34.100925 
L 358.036827 35.527172 
L 363.066443 36.957979 
L 372.407159 39.551565 
L 378.873809 41.644178 
L 386.058975 43.934584 
L 391.088591 45.30051 
L 396.836724 46.602279 
L 403.303374 47.831913 
L 409.770023 48.849756 
L 415.518156 49.538776 
L 423.421839 50.230885 
L 427.014422 50.485241 
L 427.014422 50.485241 
" clip-path="url(#p2dde13df00)" style="fill: none; stroke: #116dc2; stroke-width: 1.5; stroke-linecap: square"/>
   </g>
   <g id="line2d_3">
    <path d="M 25.363636 49.56681 
L 26.082153 49.141207 
L 26.80067 48.707229 
L 27.519186 48.212164 
L 28.237703 47.581172 
L 28.956219 46.773159 
L 29.674736 45.804465 
L 30.393253 44.726414 
L 31.111769 43.589533 
L 31.830286 42.405014 
L 32.548802 41.115249 
L 33.267319 39.623384 
L 33.985836 37.887029 
L 34.704352 35.980751 
L 35.422869 34.040298 
L 36.141386 32.135174 
L 36.859902 30.207353 
L 37.578419 28.141401 
L 38.296935 25.880827 
L 39.015452 23.466147 
L 39.733969 20.980885 
L 40.452485 18.48797 
L 41.171002 16.011328 
L 41.889518 13.553701 
L 42.608035 11.130457 
L 43.326552 8.803095 
L 44.045068 6.6859 
L 44.763585 4.912982 
L 45.482101 3.592148 
L 46.200618 2.779373 
L 46.919135 2.470909 
L 47.637651 2.5943 
L 48.356168 3.008779 
L 49.074685 3.54469 
L 49.793201 4.081928 
L 50.511718 4.608437 
L 51.230234 5.1903 
L 51.948751 5.887767 
L 52.667268 6.74414 
L 53.385784 7.866918 
L 54.104301 9.436523 
L 54.822817 11.546968 
L 55.541334 14.051753 
L 56.259851 16.632991 
L 56.978367 19.042093 
L 57.696884 21.263164 
L 58.4154 23.452807 
L 59.133917 25.733244 
L 59.852434 28.046538 
L 60.57095 30.219215 
L 61.289467 32.150604 
L 62.007984 33.888354 
L 62.7265 35.526134 
L 63.445017 37.101783 
L 64.163533 38.622706 
L 64.88205 40.127095 
L 65.600567 41.658577 
L 66.319083 43.189167 
L 67.0376 44.605979 
L 67.756116 45.787857 
L 68.474633 46.692134 
L 69.19315 47.375912 
L 69.911666 47.94494 
L 70.630183 48.476378 
L 71.348699 48.981365 
L 72.067216 49.437467 
" clip-path="url(#p2dde13df00)" style="fill: none; stroke: #8a8a8a; stroke-width: 1.5; stroke-linecap: square"/>
   </g>
  </g>
 </g>
 <defs>
  <clipPath id="p2dde13df00">
   <rect x="0" y="-0" width="558" height="54.36"/>
  </clipPath>
 </defs>
</svg>
