<?xml version="1.0" encoding="utf-8" standalone="no"?>
<!DOCTYPE svg PUBLIC "-//W3C//DTD SVG 1.1//EN"
  "http://www.w3.org/Graphics/SVG/1.1/DTD/svg11.dtd">
<svg xmlns:xlink="http://www.w3.org/1999/xlink" width="558pt" height="54.36pt" viewBox="0 0 558 54.36" xmlns="http://www.w3.org/2000/svg" version="1.1">
 <metadata>
  <rdf:RDF xmlns:dc="http://purl.org/dc/elements/1.1/" xmlns:cc="http://creativecommons.org/ns#" xmlns:rdf="http://www.w3.org/1999/02/22-rdf-syntax-ns#">
   <cc:Work>
    <dc:type rdf:resource="http://purl.org/dc/dcmitype/StillImage"/>
    <dc:date>2024-09-15T09:30:54.170094</dc:date>
    <dc:format>image/svg+xml</dc:format>
    <dc:creator>
     <cc:Agent>
      <dc:title>Matplotlib v3.5.2, https://matplotlib.org/</dc:title>
     </cc:Agent>
    </dc:creator>
   </cc:Work>
  </rdf:RDF>
 </metadata>
 <defs>
  <style type="text/css">*{stroke-linejoin: round; stroke-linecap: butt}</style>
 </defs>
 <g id="figure_1">
  <g id="patch_1">
   <path d="M 0 54.36 
L 558 54.36 
L 558 0 
L 0 0 
L 0 54.36 
z
" style="fill: none; opacity: 0"/>
  </g>
  <g id="axes_1">
   <g id="PolyCollection_1">
    <defs>
     <path id="mc61338a0c9" d="M 318.469799 -2.470909 
L 318.469799 -3.870661 
L 319.156231 -3.916202 
L 319.842662 -3.963465 
L 320.529093 -4.012777 
L 321.215525 -4.064465 
L 321.901956 -4.118853 
L 322.588387 -4.176248 
L 323.274819 -4.236933 
L 323.96125 -4.301162 
L 324.647681 -4.36915 
L 325.334112 -4.441071 
L 326.020544 -4.51706 
L 326.706975 -4.597208 
L 327.393406 -4.681573 
L 328.079838 -4.770179 
L 328.766269 -4.863029 
L 329.4527 -4.960107 
L 330.139132 -5.061394 
L 330.825563 -5.16687 
L 331.511994 -5.276525 
L 332.198425 -5.390362 
L 332.884857 -5.508406 
L 333.571288 -5.630703 
L 334.257719 -5.757321 
L 334.944151 -5.888346 
L 335.630582 -6.023884 
L 336.317013 -6.16405 
L 337.003444 -6.308966 
L 337.689876 -6.458749 
L 338.376307 -6.613508 
L 339.062738 -6.773331 
L 339.74917 -6.938281 
L 340.435601 -7.108383 
L 341.122032 -7.283616 
L 341.808464 -7.463909 
L 342.494895 -7.649128 
L 343.181326 -7.839078 
L 343.867757 -8.033492 
L 344.554189 -8.232039 
L 345.24062 -8.434321 
L 345.927051 -8.639886 
L 346.613483 -8.848237 
L 347.299914 -9.058852 
L 347.986345 -9.271204 
L 348.672776 -9.484784 
L 349.359208 -9.699134 
L 350.045639 -9.913867 
L 350.73207 -10.128697 
L 351.418502 -10.34346 
L 352.104933 -10.558129 
L 352.791364 -10.772825 
L 353.477796 -10.987818 
L 354.164227 -11.203518 
L 354.850658 -11.420458 
L 355.537089 -11.639274 
L 356.223521 -11.860672 
L 356.909952 -12.085397 
L 357.596383 -12.314194 
L 358.282815 -12.547778 
L 358.969246 -12.786794 
L 359.655677 -13.031796 
L 360.342109 -13.283216 
L 361.02854 -13.541348 
L 361.714971 -13.806336 
L 362.401402 -14.078166 
L 363.087834 -14.356665 
L 363.774265 -14.641501 
L 364.460696 -14.932195 
L 365.147128 -15.22813 
L 365.833559 -15.528566 
L 366.51999 -15.832661 
L 367.206421 -16.139493 
L 367.892853 -16.448091 
L 368.579284 -16.757465 
L 369.265715 -17.066638 
L 369.952147 -17.374687 
L 370.638578 -17.68078 
L 371.325009 -17.984212 
L 372.011441 -18.284436 
L 372.697872 -18.581096 
L 373.384303 -18.874042 
L 374.070734 -19.163346 
L 374.757166 -19.4493 
L 375.443597 -19.732407 
L 376.130028 -20.013359 
L 376.81646 -20.293005 
L 377.502891 -20.572313 
L 378.189322 -20.852323 
L 378.875753 -21.134095 
L 379.562185 -21.41866 
L 380.248616 -21.706966 
L 380.935047 -21.999833 
L 381.621479 -22.297912 
L 382.30791 -22.601653 
L 382.994341 -22.911284 
L 383.680773 -23.226797 
L 384.367204 -23.547953 
L 385.053635 -23.874292 
L 385.740066 -24.205162 
L 386.426498 -24.539754 
L 387.112929 -24.877143 
L 387.79936 -25.216348 
L 388.485792 -25.556381 
L 389.172223 -25.896306 
L 389.858654 -26.235292 
L 390.545085 -26.572657 
L 391.231517 -26.907906 
L 391.917948 -27.240754 
L 392.604379 -27.571133 
L 393.290811 -27.899183 
L 393.977242 -28.22523 
L 394.663673 -28.549745 
L 395.350105 -28.873296 
L 396.036536 -29.196483 
L 396.722967 -29.519876 
L 397.409398 -29.843951 
L 398.09583 -30.169023 
L 398.782261 -30.495198 
L 399.468692 -30.822329 
L 400.155124 -31.149989 
L 400.841555 -31.477468 
L 401.527986 -31.803775 
L 402.214418 -32.127672 
L 402.900849 -32.447717 
L 403.58728 -32.762323 
L 404.273711 -33.069826 
L 404.960143 -33.368565 
L 405.646574 -33.656959 
L 406.333005 -33.933582 
L 407.019437 -34.197235 
L 407.705868 -34.446995 
L 408.392299 -34.682264 
L 409.07873 -34.90278 
L 409.765162 -35.108628 
L 410.451593 -35.300212 
L 411.138024 -35.478218 
L 411.824456 -35.643561 
L 412.510887 -35.797312 
L 413.197318 -35.940623 
L 413.88375 -36.074649 
L 414.570181 -36.200468 
L 415.256612 -36.31902 
L 415.943043 -36.431045 
L 416.629475 -36.537053 
L 417.315906 -36.637296 
L 418.002337 -36.731776 
L 418.688769 -36.820254 
L 419.3752 -36.902285 
L 420.061631 -36.977257 
L 420.748062 -37.044442 
L 421.434494 -37.103043 
L 422.120925 -37.152246 
L 422.807356 -37.191254 
L 423.493788 -37.21933 
L 424.180219 -37.235811 
L 424.86665 -37.240131 
L 425.553082 -37.231821 
L 426.239513 -37.210512 
L 426.925944 -37.175928 
L 427.612375 -37.127881 
L 428.298807 -37.066271 
L 428.985238 -36.991072 
L 429.671669 -36.902345 
L 430.358101 -36.800232 
L 431.044532 -36.684963 
L 431.730963 -36.556864 
L 432.417395 -36.416362 
L 433.103826 -36.263981 
L 433.790257 -36.100341 
L 434.476688 -35.92615 
L 435.16312 -35.742184 
L 435.849551 -35.549268 
L 436.535982 -35.348249 
L 437.222414 -35.139967 
L 437.908845 -34.925227 
L 438.595276 -34.704776 
L 439.281707 -34.479283 
L 439.968139 -34.249325 
L 440.65457 -34.015389 
L 441.341001 -33.777873 
L 442.027433 -33.537103 
L 442.713864 -33.293353 
L 443.400295 -33.046864 
L 444.086727 -32.797873 
L 444.773158 -32.546626 
L 445.459589 -32.293394 
L 446.14602 -32.038475 
L 446.832452 -31.782184 
L 447.518883 -31.524834 
L 448.205314 -31.266709 
L 448.891746 -31.008031 
L 449.578177 -30.748915 
L 450.264608 -30.489336 
L 450.951039 -30.229099 
L 451.637471 -29.967816 
L 452.323902 -29.704904 
L 453.010333 -29.439591 
L 453.696765 -29.170949 
L 454.383196 -28.897939 
L 455.069627 -28.619469 
L 455.756059 -28.334467 
L 456.44249 -28.041954 
L 457.128921 -27.741121 
L 457.815352 -27.431393 
L 458.501784 -27.112489 
L 459.188215 -26.784456 
L 459.874646 -26.44769 
L 460.561078 -26.102929 
L 461.247509 -25.751231 
L 461.93394 -25.393921 
L 462.620372 -25.032536 
L 463.306803 -24.66874 
L 463.993234 -24.304245 
L 464.679665 -23.940721 
L 465.366097 -23.579717 
L 466.052528 -23.222589 
L 466.738959 -22.870432 
L 467.425391 -22.524045 
L 468.111822 -22.183903 
L 468.798253 -21.850151 
L 469.484684 -21.522623 
L 470.171116 -21.200868 
L 470.857547 -20.884207 
L 471.543978 -20.571784 
L 472.23041 -20.26264 
L 472.916841 -19.955783 
L 473.603272 -19.650256 
L 474.289704 -19.345205 
L 474.976135 -19.039938 
L 475.662566 -18.733964 
L 476.348997 -18.42703 
L 477.035429 -18.119133 
L 477.72186 -17.810522 
L 478.408291 -17.501679 
L 479.094723 -17.193294 
L 479.781154 -16.886217 
L 480.467585 -16.581415 
L 481.154016 -16.27991 
L 481.840448 -15.982725 
L 482.526879 -15.690824 
L 483.21331 -15.40506 
L 483.899742 -15.126131 
L 484.586173 -14.85454 
L 485.272604 -14.590572 
L 485.959036 -14.33428 
L 486.645467 -14.085478 
L 487.331898 -13.843755 
L 488.018329 -13.608491 
L 488.704761 -13.378885 
L 489.391192 -13.153991 
L 490.077623 -12.932758 
L 490.764055 -12.714073 
L 491.450486 -12.49681 
L 492.136917 -12.279869 
L 492.823349 -12.062222 
L 493.50978 -11.842952 
L 494.196211 -11.62128 
L 494.882642 -11.396598 
L 495.569074 -11.168483 
L 496.255505 -10.93671 
L 496.941936 -10.701254 
L 497.628368 -10.462286 
L 498.314799 -10.220161 
L 499.00123 -9.975401 
L 499.687661 -9.728672 
L 500.374093 -9.480757 
L 501.060524 -9.232528 
L 501.746955 -8.984913 
L 502.433387 -8.738872 
L 503.119818 -8.495362 
L 503.806249 -8.255312 
L 504.492681 -8.019602 
L 505.179112 -7.78904 
L 505.865543 -7.564344 
L 506.551974 -7.346132 
L 507.238406 -7.134912 
L 507.924837 -6.931081 
L 508.611268 -6.734918 
L 509.2977 -6.546596 
L 509.984131 -6.366181 
L 510.670562 -6.193649 
L 511.356993 -6.028891 
L 512.043425 -5.871736 
L 512.729856 -5.721958 
L 513.416287 -5.579301 
L 514.102719 -5.443486 
L 514.78915 -5.314234 
L 515.475581 -5.191273 
L 516.162013 -5.074353 
L 516.848444 -4.963252 
L 517.534875 -4.857782 
L 518.221306 -4.757787 
L 518.907738 -4.663145 
L 519.594169 -4.573762 
L 520.2806 -4.489562 
L 520.967032 -4.410479 
L 521.653463 -4.336446 
L 522.339894 -4.267385 
L 523.026326 -4.203194 
L 523.712757 -4.143741 
L 524.399188 -4.088853 
L 525.085619 -4.038315 
L 525.772051 -3.991867 
L 526.458482 -3.949201 
L 527.144913 -3.909972 
L 527.831345 -3.873797 
L 528.517776 -3.840267 
L 529.204207 -3.808954 
L 529.890638 -3.779425 
L 530.57707 -3.751245 
L 531.263501 -3.723995 
L 531.949932 -3.697278 
L 532.636364 -3.670727 
L 532.636364 -2.470909 
L 532.636364 -2.470909 
L 531.949932 -2.470909 
L 531.263501 -2.470909 
L 530.57707 -2.470909 
L 529.890638 -2.470909 
L 529.204207 -2.470909 
L 528.517776 -2.470909 
L 527.831345 -2.470909 
L 527.144913 -2.470909 
L 526.458482 -2.470909 
L 525.772051 -2.470909 
L 525.085619 -2.470909 
L 524.399188 -2.470909 
L 523.712757 -2.470909 
L 523.026326 -2.470909 
L 522.339894 -2.470909 
L 521.653463 -2.470909 
L 520.967032 -2.470909 
L 520.2806 -2.470909 
L 519.594169 -2.470909 
L 518.907738 -2.470909 
L 518.221306 -2.470909 
L 517.534875 -2.470909 
L 516.848444 -2.470909 
L 516.162013 -2.470909 
L 515.475581 -2.470909 
L 514.78915 -2.470909 
L 514.102719 -2.470909 
L 513.416287 -2.470909 
L 512.729856 -2.470909 
L 512.043425 -2.470909 
L 511.356993 -2.470909 
L 510.670562 -2.470909 
L 509.984131 -2.470909 
L 509.2977 -2.470909 
L 508.611268 -2.470909 
L 507.924837 -2.470909 
L 507.238406 -2.470909 
L 506.551974 -2.470909 
L 505.865543 -2.470909 
L 505.179112 -2.470909 
L 504.492681 -2.470909 
L 503.806249 -2.470909 
L 503.119818 -2.470909 
L 502.433387 -2.470909 
L 501.746955 -2.470909 
L 501.060524 -2.470909 
L 500.374093 -2.470909 
L 499.687661 -2.470909 
L 499.00123 -2.470909 
L 498.314799 -2.470909 
L 497.628368 -2.470909 
L 496.941936 -2.470909 
L 496.255505 -2.470909 
L 495.569074 -2.470909 
L 494.882642 -2.470909 
L 494.196211 -2.470909 
L 493.50978 -2.470909 
L 492.823349 -2.470909 
L 492.136917 -2.470909 
L 491.450486 -2.470909 
L 490.764055 -2.470909 
L 490.077623 -2.470909 
L 489.391192 -2.470909 
L 488.704761 -2.470909 
L 488.018329 -2.470909 
L 487.331898 -2.470909 
L 486.645467 -2.470909 
L 485.959036 -2.470909 
L 485.272604 -2.470909 
L 484.586173 -2.470909 
L 483.899742 -2.470909 
L 483.21331 -2.470909 
L 482.526879 -2.470909 
L 481.840448 -2.470909 
L 481.154016 -2.470909 
L 480.467585 -2.470909 
L 479.781154 -2.470909 
L 479.094723 -2.470909 
L 478.408291 -2.470909 
L 477.72186 -2.470909 
L 477.035429 -2.470909 
L 476.348997 -2.470909 
L 475.662566 -2.470909 
L 474.976135 -2.470909 
L 474.289704 -2.470909 
L 473.603272 -2.470909 
L 472.916841 -2.470909 
L 472.23041 -2.470909 
L 471.543978 -2.470909 
L 470.857547 -2.470909 
L 470.171116 -2.470909 
L 469.484684 -2.470909 
L 468.798253 -2.470909 
L 468.111822 -2.470909 
L 467.425391 -2.470909 
L 466.738959 -2.470909 
L 466.052528 -2.470909 
L 465.366097 -2.470909 
L 464.679665 -2.470909 
L 463.993234 -2.470909 
L 463.306803 -2.470909 
L 462.620372 -2.470909 
L 461.93394 -2.470909 
L 461.247509 -2.470909 
L 460.561078 -2.470909 
L 459.874646 -2.470909 
L 459.188215 -2.470909 
L 458.501784 -2.470909 
L 457.815352 -2.470909 
L 457.128921 -2.470909 
L 456.44249 -2.470909 
L 455.756059 -2.470909 
L 455.069627 -2.470909 
L 454.383196 -2.470909 
L 453.696765 -2.470909 
L 453.010333 -2.470909 
L 452.323902 -2.470909 
L 451.637471 -2.470909 
L 450.951039 -2.470909 
L 450.264608 -2.470909 
L 449.578177 -2.470909 
L 448.891746 -2.470909 
L 448.205314 -2.470909 
L 447.518883 -2.470909 
L 446.832452 -2.470909 
L 446.14602 -2.470909 
L 445.459589 -2.470909 
L 444.773158 -2.470909 
L 444.086727 -2.470909 
L 443.400295 -2.470909 
L 442.713864 -2.470909 
L 442.027433 -2.470909 
L 441.341001 -2.470909 
L 440.65457 -2.470909 
L 439.968139 -2.470909 
L 439.281707 -2.470909 
L 438.595276 -2.470909 
L 437.908845 -2.470909 
L 437.222414 -2.470909 
L 436.535982 -2.470909 
L 435.849551 -2.470909 
L 435.16312 -2.470909 
L 434.476688 -2.470909 
L 433.790257 -2.470909 
L 433.103826 -2.470909 
L 432.417395 -2.470909 
L 431.730963 -2.470909 
L 431.044532 -2.470909 
L 430.358101 -2.470909 
L 429.671669 -2.470909 
L 428.985238 -2.470909 
L 428.298807 -2.470909 
L 427.612375 -2.470909 
L 426.925944 -2.470909 
L 426.239513 -2.470909 
L 425.553082 -2.470909 
L 424.86665 -2.470909 
L 424.180219 -2.470909 
L 423.493788 -2.470909 
L 422.807356 -2.470909 
L 422.120925 -2.470909 
L 421.434494 -2.470909 
L 420.748062 -2.470909 
L 420.061631 -2.470909 
L 419.3752 -2.470909 
L 418.688769 -2.470909 
L 418.002337 -2.470909 
L 417.315906 -2.470909 
L 416.629475 -2.470909 
L 415.943043 -2.470909 
L 415.256612 -2.470909 
L 414.570181 -2.470909 
L 413.88375 -2.470909 
L 413.197318 -2.470909 
L 412.510887 -2.470909 
L 411.824456 -2.470909 
L 411.138024 -2.470909 
L 410.451593 -2.470909 
L 409.765162 -2.470909 
L 409.07873 -2.470909 
L 408.392299 -2.470909 
L 407.705868 -2.470909 
L 407.019437 -2.470909 
L 406.333005 -2.470909 
L 405.646574 -2.470909 
L 404.960143 -2.470909 
L 404.273711 -2.470909 
L 403.58728 -2.470909 
L 402.900849 -2.470909 
L 402.214418 -2.470909 
L 401.527986 -2.470909 
L 400.841555 -2.470909 
L 400.155124 -2.470909 
L 399.468692 -2.470909 
L 398.782261 -2.470909 
L 398.09583 -2.470909 
L 397.409398 -2.470909 
L 396.722967 -2.470909 
L 396.036536 -2.470909 
L 395.350105 -2.470909 
L 394.663673 -2.470909 
L 393.977242 -2.470909 
L 393.290811 -2.470909 
L 392.604379 -2.470909 
L 391.917948 -2.470909 
L 391.231517 -2.470909 
L 390.545085 -2.470909 
L 389.858654 -2.470909 
L 389.172223 -2.470909 
L 388.485792 -2.470909 
L 387.79936 -2.470909 
L 387.112929 -2.470909 
L 386.426498 -2.470909 
L 385.740066 -2.470909 
L 385.053635 -2.470909 
L 384.367204 -2.470909 
L 383.680773 -2.470909 
L 382.994341 -2.470909 
L 382.30791 -2.470909 
L 381.621479 -2.470909 
L 380.935047 -2.470909 
L 380.248616 -2.470909 
L 379.562185 -2.470909 
L 378.875753 -2.470909 
L 378.189322 -2.470909 
L 377.502891 -2.470909 
L 376.81646 -2.470909 
L 376.130028 -2.470909 
L 375.443597 -2.470909 
L 374.757166 -2.470909 
L 374.070734 -2.470909 
L 373.384303 -2.470909 
L 372.697872 -2.470909 
L 372.011441 -2.470909 
L 371.325009 -2.470909 
L 370.638578 -2.470909 
L 369.952147 -2.470909 
L 369.265715 -2.470909 
L 368.579284 -2.470909 
L 367.892853 -2.470909 
L 367.206421 -2.470909 
L 366.51999 -2.470909 
L 365.833559 -2.470909 
L 365.147128 -2.470909 
L 364.460696 -2.470909 
L 363.774265 -2.470909 
L 363.087834 -2.470909 
L 362.401402 -2.470909 
L 361.714971 -2.470909 
L 361.02854 -2.470909 
L 360.342109 -2.470909 
L 359.655677 -2.470909 
L 358.969246 -2.470909 
L 358.282815 -2.470909 
L 357.596383 -2.470909 
L 356.909952 -2.470909 
L 356.223521 -2.470909 
L 355.537089 -2.470909 
L 354.850658 -2.470909 
L 354.164227 -2.470909 
L 353.477796 -2.470909 
L 352.791364 -2.470909 
L 352.104933 -2.470909 
L 351.418502 -2.470909 
L 350.73207 -2.470909 
L 350.045639 -2.470909 
L 349.359208 -2.470909 
L 348.672776 -2.470909 
L 347.986345 -2.470909 
L 347.299914 -2.470909 
L 346.613483 -2.470909 
L 345.927051 -2.470909 
L 345.24062 -2.470909 
L 344.554189 -2.470909 
L 343.867757 -2.470909 
L 343.181326 -2.470909 
L 342.494895 -2.470909 
L 341.808464 -2.470909 
L 341.122032 -2.470909 
L 340.435601 -2.470909 
L 339.74917 -2.470909 
L 339.062738 -2.470909 
L 338.376307 -2.470909 
L 337.689876 -2.470909 
L 337.003444 -2.470909 
L 336.317013 -2.470909 
L 335.630582 -2.470909 
L 334.944151 -2.470909 
L 334.257719 -2.470909 
L 333.571288 -2.470909 
L 332.884857 -2.470909 
L 332.198425 -2.470909 
L 331.511994 -2.470909 
L 330.825563 -2.470909 
L 330.139132 -2.470909 
L 329.4527 -2.470909 
L 328.766269 -2.470909 
L 328.079838 -2.470909 
L 327.393406 -2.470909 
L 326.706975 -2.470909 
L 326.020544 -2.470909 
L 325.334112 -2.470909 
L 324.647681 -2.470909 
L 323.96125 -2.470909 
L 323.274819 -2.470909 
L 322.588387 -2.470909 
L 321.901956 -2.470909 
L 321.215525 -2.470909 
L 320.529093 -2.470909 
L 319.842662 -2.470909 
L 319.156231 -2.470909 
L 318.469799 -2.470909 
z
" style="stroke: #cf1313; stroke-opacity: 0.2"/>
    </defs>
    <g clip-path="url(#pdc93ea2ad2)">
     <use xlink:href="#mc61338a0c9" x="0" y="54.36" style="fill: #cf1313; fill-opacity: 0.2; stroke: #cf1313; stroke-opacity: 0.2"/>
    </g>
   </g>
   <g id="PolyCollection_2">
    <defs>
     <path id="mba13588523" d="M 113.226842 -2.470909 
L 113.226842 -3.872168 
L 113.913273 -3.930508 
L 114.599705 -3.992233 
L 115.286136 -4.05755 
L 115.972567 -4.126609 
L 116.658999 -4.199503 
L 117.34543 -4.276261 
L 118.031861 -4.356852 
L 118.718293 -4.441198 
L 119.404724 -4.529184 
L 120.091155 -4.620677 
L 120.777586 -4.715549 
L 121.464018 -4.813699 
L 122.150449 -4.915076 
L 122.83688 -5.019696 
L 123.523312 -5.127658 
L 124.209743 -5.23915 
L 124.896174 -5.354447 
L 125.582605 -5.473904 
L 126.269037 -5.597939 
L 126.955468 -5.727011 
L 127.641899 -5.861591 
L 128.328331 -6.002137 
L 129.014762 -6.149059 
L 129.701193 -6.302704 
L 130.387625 -6.463325 
L 131.074056 -6.631072 
L 131.760487 -6.805987 
L 132.446918 -6.987999 
L 133.13335 -7.17694 
L 133.819781 -7.37255 
L 134.506212 -7.574505 
L 135.192644 -7.782431 
L 135.879075 -7.995934 
L 136.565506 -8.21462 
L 137.251938 -8.438118 
L 137.938369 -8.666098 
L 138.6248 -8.898283 
L 139.311231 -9.134461 
L 139.997663 -9.374485 
L 140.684094 -9.618272 
L 141.370525 -9.865791 
L 142.056957 -10.117055 
L 142.743388 -10.372101 
L 143.429819 -10.630971 
L 144.11625 -10.893699 
L 144.802682 -11.160291 
L 145.489113 -11.430716 
L 146.175544 -11.704905 
L 146.861976 -11.982749 
L 147.548407 -12.264115 
L 148.234838 -12.548861 
L 148.92127 -12.836864 
L 149.607701 -13.128043 
L 150.294132 -13.422387 
L 150.980563 -13.719981 
L 151.666995 -14.021018 
L 152.353426 -14.325811 
L 153.039857 -14.634786 
L 153.726289 -14.94846 
L 154.41272 -15.26742 
L 155.099151 -15.592275 
L 155.785582 -15.923613 
L 156.472014 -16.261944 
L 157.158445 -16.607651 
L 157.844876 -16.960943 
L 158.531308 -17.321813 
L 159.217739 -17.690016 
L 159.90417 -18.065058 
L 160.590602 -18.446203 
L 161.277033 -18.832503 
L 161.963464 -19.222842 
L 162.649895 -19.615996 
L 163.336327 -20.010711 
L 164.022758 -20.405777 
L 164.709189 -20.800116 
L 165.395621 -21.192851 
L 166.082052 -21.583376 
L 166.768483 -21.97139 
L 167.454915 -22.356924 
L 168.141346 -22.740323 
L 168.827777 -23.122215 
L 169.514208 -23.50344 
L 170.20064 -23.884968 
L 170.887071 -24.2678 
L 171.573502 -24.652857 
L 172.259934 -25.040885 
L 172.946365 -25.432366 
L 173.632796 -25.827457 
L 174.319227 -26.225955 
L 175.005659 -26.627296 
L 175.69209 -27.030585 
L 176.378521 -27.434661 
L 177.064953 -27.838174 
L 177.751384 -28.239691 
L 178.437815 -28.6378 
L 179.124247 -29.031211 
L 179.810678 -29.418851 
L 180.497109 -29.799934 
L 181.18354 -30.174008 
L 181.869972 -30.540976 
L 182.556403 -30.901083 
L 183.242834 -31.254876 
L 183.929266 -31.603136 
L 184.615697 -31.94679 
L 185.302128 -32.286804 
L 185.988559 -32.624062 
L 186.674991 -32.959254 
L 187.361422 -33.292756 
L 188.047853 -33.624537 
L 188.734285 -33.954083 
L 189.420716 -34.280354 
L 190.107147 -34.601783 
L 190.793579 -34.916305 
L 191.48001 -35.22144 
L 192.166441 -35.514408 
L 192.852872 -35.792271 
L 193.539304 -36.052114 
L 194.225735 -36.291214 
L 194.912166 -36.507224 
L 195.598598 -36.698331 
L 196.285029 -36.863381 
L 196.97146 -37.001965 
L 197.657891 -37.114463 
L 198.344323 -37.202024 
L 199.030754 -37.266506 
L 199.717185 -37.31037 
L 200.403617 -37.336541 
L 201.090048 -37.348238 
L 201.776479 -37.348809 
L 202.462911 -37.341559 
L 203.149342 -37.329599 
L 203.835773 -37.315717 
L 204.522204 -37.302286 
L 205.208636 -37.291202 
L 205.895067 -37.283862 
L 206.581498 -37.281171 
L 207.26793 -37.283576 
L 207.954361 -37.291126 
L 208.640792 -37.303536 
L 209.327224 -37.320264 
L 210.013655 -37.34058 
L 210.700086 -37.363632 
L 211.386517 -37.388499 
L 212.072949 -37.414231 
L 212.75938 -37.439872 
L 213.445811 -37.464475 
L 214.132243 -37.487101 
L 214.818674 -37.506807 
L 215.505105 -37.522633 
L 216.191536 -37.533581 
L 216.877968 -37.538601 
L 217.564399 -37.536571 
L 218.25083 -37.52629 
L 218.937262 -37.506473 
L 219.623693 -37.475752 
L 220.310124 -37.432697 
L 220.996556 -37.375827 
L 221.682987 -37.303645 
L 222.369418 -37.214668 
L 223.055849 -37.107467 
L 223.742281 -36.980712 
L 224.428712 -36.833211 
L 225.115143 -36.663958 
L 225.801575 -36.47217 
L 226.488006 -36.257328 
L 227.174437 -36.019206 
L 227.860868 -35.757899 
L 228.5473 -35.473835 
L 229.233731 -35.167789 
L 229.920162 -34.840872 
L 230.606594 -34.494519 
L 231.293025 -34.130461 
L 231.979456 -33.750683 
L 232.665888 -33.357371 
L 233.352319 -32.95285 
L 234.03875 -32.53951 
L 234.725181 -32.119729 
L 235.411613 -31.695796 
L 236.098044 -31.269836 
L 236.784475 -30.843737 
L 237.470907 -30.419102 
L 238.157338 -29.997207 
L 238.843769 -29.578979 
L 239.530201 -29.164997 
L 240.216632 -28.755511 
L 240.903063 -28.350477 
L 241.589494 -27.949607 
L 242.275926 -27.552432 
L 242.962357 -27.158366 
L 243.648788 -26.766775 
L 244.33522 -26.377038 
L 245.021651 -25.988608 
L 245.708082 -25.601051 
L 246.394513 -25.214089 
L 247.080945 -24.827615 
L 247.767376 -24.441703 
L 248.453807 -24.056604 
L 249.140239 -23.672732 
L 249.82667 -23.290633 
L 250.513101 -22.910951 
L 251.199533 -22.534386 
L 251.885964 -22.161647 
L 252.572395 -21.7934 
L 253.258826 -21.430219 
L 253.945258 -21.072542 
L 254.631689 -20.72063 
L 255.31812 -20.374542 
L 256.004552 -20.034112 
L 256.690983 -19.698954 
L 257.377414 -19.368474 
L 258.063845 -19.041895 
L 258.750277 -18.718306 
L 259.436708 -18.396713 
L 260.123139 -18.076099 
L 260.809571 -17.755496 
L 261.496002 -17.434044 
L 262.182433 -17.111049 
L 262.868865 -16.786037 
L 263.555296 -16.45878 
L 264.241727 -16.12932 
L 264.928158 -15.797966 
L 265.61459 -15.46528 
L 266.301021 -15.132041 
L 266.987452 -14.799201 
L 267.673884 -14.46783 
L 268.360315 -14.139049 
L 269.046746 -13.81397 
L 269.733178 -13.493635 
L 270.419609 -13.178955 
L 271.10604 -12.870667 
L 271.792471 -12.569298 
L 272.478903 -12.275146 
L 273.165334 -11.988271 
L 273.851765 -11.708508 
L 274.538197 -11.435483 
L 275.224628 -11.168656 
L 275.911059 -10.907359 
L 276.59749 -10.650853 
L 277.283922 -10.39838 
L 277.970353 -10.149219 
L 278.656784 -9.902741 
L 279.343216 -9.658447 
L 280.029647 -9.416008 
L 280.716078 -9.175282 
L 281.40251 -8.936319 
L 282.088941 -8.699358 
L 282.775372 -8.464801 
L 283.461803 -8.233181 
L 284.148235 -8.005121 
L 284.834666 -7.781285 
L 285.521097 -7.562333 
L 286.207529 -7.348874 
L 286.89396 -7.141432 
L 287.580391 -6.94042 
L 288.266822 -6.746119 
L 288.953254 -6.558685 
L 289.639685 -6.378149 
L 290.326116 -6.204443 
L 291.012548 -6.037417 
L 291.698979 -5.876873 
L 292.38541 -5.722591 
L 293.071842 -5.57435 
L 293.758273 -5.431953 
L 294.444704 -5.295234 
L 295.131135 -5.164062 
L 295.817567 -5.038345 
L 296.503998 -4.918015 
L 297.190429 -4.803025 
L 297.876861 -4.693329 
L 298.563292 -4.588881 
L 299.249723 -4.489616 
L 299.936155 -4.39545 
L 300.622586 -4.306278 
L 301.309017 -4.22197 
L 301.995448 -4.14238 
L 302.68188 -4.067349 
L 303.368311 -3.996712 
L 304.054742 -3.930302 
L 304.741174 -3.86796 
L 305.427605 -3.809534 
L 306.114036 -3.754883 
L 306.800467 -3.703877 
L 307.486899 -3.656392 
L 308.17333 -3.612311 
L 308.859761 -3.571512 
L 308.859761 -2.470909 
L 308.859761 -2.470909 
L 308.17333 -2.470909 
L 307.486899 -2.470909 
L 306.800467 -2.470909 
L 306.114036 -2.470909 
L 305.427605 -2.470909 
L 304.741174 -2.470909 
L 304.054742 -2.470909 
L 303.368311 -2.470909 
L 302.68188 -2.470909 
L 301.995448 -2.470909 
L 301.309017 -2.470909 
L 300.622586 -2.470909 
L 299.936155 -2.470909 
L 299.249723 -2.470909 
L 298.563292 -2.470909 
L 297.876861 -2.470909 
L 297.190429 -2.470909 
L 296.503998 -2.470909 
L 295.817567 -2.470909 
L 295.131135 -2.470909 
L 294.444704 -2.470909 
L 293.758273 -2.470909 
L 293.071842 -2.470909 
L 292.38541 -2.470909 
L 291.698979 -2.470909 
L 291.012548 -2.470909 
L 290.326116 -2.470909 
L 289.639685 -2.470909 
L 288.953254 -2.470909 
L 288.266822 -2.470909 
L 287.580391 -2.470909 
L 286.89396 -2.470909 
L 286.207529 -2.470909 
L 285.521097 -2.470909 
L 284.834666 -2.470909 
L 284.148235 -2.470909 
L 283.461803 -2.470909 
L 282.775372 -2.470909 
L 282.088941 -2.470909 
L 281.40251 -2.470909 
L 280.716078 -2.470909 
L 280.029647 -2.470909 
L 279.343216 -2.470909 
L 278.656784 -2.470909 
L 277.970353 -2.470909 
L 277.283922 -2.470909 
L 276.59749 -2.470909 
L 275.911059 -2.470909 
L 275.224628 -2.470909 
L 274.538197 -2.470909 
L 273.851765 -2.470909 
L 273.165334 -2.470909 
L 272.478903 -2.470909 
L 271.792471 -2.470909 
L 271.10604 -2.470909 
L 270.419609 -2.470909 
L 269.733178 -2.470909 
L 269.046746 -2.470909 
L 268.360315 -2.470909 
L 267.673884 -2.470909 
L 266.987452 -2.470909 
L 266.301021 -2.470909 
L 265.61459 -2.470909 
L 264.928158 -2.470909 
L 264.241727 -2.470909 
L 263.555296 -2.470909 
L 262.868865 -2.470909 
L 262.182433 -2.470909 
L 261.496002 -2.470909 
L 260.809571 -2.470909 
L 260.123139 -2.470909 
L 259.436708 -2.470909 
L 258.750277 -2.470909 
L 258.063845 -2.470909 
L 257.377414 -2.470909 
L 256.690983 -2.470909 
L 256.004552 -2.470909 
L 255.31812 -2.470909 
L 254.631689 -2.470909 
L 253.945258 -2.470909 
L 253.258826 -2.470909 
L 252.572395 -2.470909 
L 251.885964 -2.470909 
L 251.199533 -2.470909 
L 250.513101 -2.470909 
L 249.82667 -2.470909 
L 249.140239 -2.470909 
L 248.453807 -2.470909 
L 247.767376 -2.470909 
L 247.080945 -2.470909 
L 246.394513 -2.470909 
L 245.708082 -2.470909 
L 245.021651 -2.470909 
L 244.33522 -2.470909 
L 243.648788 -2.470909 
L 242.962357 -2.470909 
L 242.275926 -2.470909 
L 241.589494 -2.470909 
L 240.903063 -2.470909 
L 240.216632 -2.470909 
L 239.530201 -2.470909 
L 238.843769 -2.470909 
L 238.157338 -2.470909 
L 237.470907 -2.470909 
L 236.784475 -2.470909 
L 236.098044 -2.470909 
L 235.411613 -2.470909 
L 234.725181 -2.470909 
L 234.03875 -2.470909 
L 233.352319 -2.470909 
L 232.665888 -2.470909 
L 231.979456 -2.470909 
L 231.293025 -2.470909 
L 230.606594 -2.470909 
L 229.920162 -2.470909 
L 229.233731 -2.470909 
L 228.5473 -2.470909 
L 227.860868 -2.470909 
L 227.174437 -2.470909 
L 226.488006 -2.470909 
L 225.801575 -2.470909 
L 225.115143 -2.470909 
L 224.428712 -2.470909 
L 223.742281 -2.470909 
L 223.055849 -2.470909 
L 222.369418 -2.470909 
L 221.682987 -2.470909 
L 220.996556 -2.470909 
L 220.310124 -2.470909 
L 219.623693 -2.470909 
L 218.937262 -2.470909 
L 218.25083 -2.470909 
L 217.564399 -2.470909 
L 216.877968 -2.470909 
L 216.191536 -2.470909 
L 215.505105 -2.470909 
L 214.818674 -2.470909 
L 214.132243 -2.470909 
L 213.445811 -2.470909 
L 212.75938 -2.470909 
L 212.072949 -2.470909 
L 211.386517 -2.470909 
L 210.700086 -2.470909 
L 210.013655 -2.470909 
L 209.327224 -2.470909 
L 208.640792 -2.470909 
L 207.954361 -2.470909 
L 207.26793 -2.470909 
L 206.581498 -2.470909 
L 205.895067 -2.470909 
L 205.208636 -2.470909 
L 204.522204 -2.470909 
L 203.835773 -2.470909 
L 203.149342 -2.470909 
L 202.462911 -2.470909 
L 201.776479 -2.470909 
L 201.090048 -2.470909 
L 200.403617 -2.470909 
L 199.717185 -2.470909 
L 199.030754 -2.470909 
L 198.344323 -2.470909 
L 197.657891 -2.470909 
L 196.97146 -2.470909 
L 196.285029 -2.470909 
L 195.598598 -2.470909 
L 194.912166 -2.470909 
L 194.225735 -2.470909 
L 193.539304 -2.470909 
L 192.852872 -2.470909 
L 192.166441 -2.470909 
L 191.48001 -2.470909 
L 190.793579 -2.470909 
L 190.107147 -2.470909 
L 189.420716 -2.470909 
L 188.734285 -2.470909 
L 188.047853 -2.470909 
L 187.361422 -2.470909 
L 186.674991 -2.470909 
L 185.988559 -2.470909 
L 185.302128 -2.470909 
L 184.615697 -2.470909 
L 183.929266 -2.470909 
L 183.242834 -2.470909 
L 182.556403 -2.470909 
L 181.869972 -2.470909 
L 181.18354 -2.470909 
L 180.497109 -2.470909 
L 179.810678 -2.470909 
L 179.124247 -2.470909 
L 178.437815 -2.470909 
L 177.751384 -2.470909 
L 177.064953 -2.470909 
L 176.378521 -2.470909 
L 175.69209 -2.470909 
L 175.005659 -2.470909 
L 174.319227 -2.470909 
L 173.632796 -2.470909 
L 172.946365 -2.470909 
L 172.259934 -2.470909 
L 171.573502 -2.470909 
L 170.887071 -2.470909 
L 170.20064 -2.470909 
L 169.514208 -2.470909 
L 168.827777 -2.470909 
L 168.141346 -2.470909 
L 167.454915 -2.470909 
L 166.768483 -2.470909 
L 166.082052 -2.470909 
L 165.395621 -2.470909 
L 164.709189 -2.470909 
L 164.022758 -2.470909 
L 163.336327 -2.470909 
L 162.649895 -2.470909 
L 161.963464 -2.470909 
L 161.277033 -2.470909 
L 160.590602 -2.470909 
L 159.90417 -2.470909 
L 159.217739 -2.470909 
L 158.531308 -2.470909 
L 157.844876 -2.470909 
L 157.158445 -2.470909 
L 156.472014 -2.470909 
L 155.785582 -2.470909 
L 155.099151 -2.470909 
L 154.41272 -2.470909 
L 153.726289 -2.470909 
L 153.039857 -2.470909 
L 152.353426 -2.470909 
L 151.666995 -2.470909 
L 150.980563 -2.470909 
L 150.294132 -2.470909 
L 149.607701 -2.470909 
L 148.92127 -2.470909 
L 148.234838 -2.470909 
L 147.548407 -2.470909 
L 146.861976 -2.470909 
L 146.175544 -2.470909 
L 145.489113 -2.470909 
L 144.802682 -2.470909 
L 144.11625 -2.470909 
L 143.429819 -2.470909 
L 142.743388 -2.470909 
L 142.056957 -2.470909 
L 141.370525 -2.470909 
L 140.684094 -2.470909 
L 139.997663 -2.470909 
L 139.311231 -2.470909 
L 138.6248 -2.470909 
L 137.938369 -2.470909 
L 137.251938 -2.470909 
L 136.565506 -2.470909 
L 135.879075 -2.470909 
L 135.192644 -2.470909 
L 134.506212 -2.470909 
L 133.819781 -2.470909 
L 133.13335 -2.470909 
L 132.446918 -2.470909 
L 131.760487 -2.470909 
L 131.074056 -2.470909 
L 130.387625 -2.470909 
L 129.701193 -2.470909 
L 129.014762 -2.470909 
L 128.328331 -2.470909 
L 127.641899 -2.470909 
L 126.955468 -2.470909 
L 126.269037 -2.470909 
L 125.582605 -2.470909 
L 124.896174 -2.470909 
L 124.209743 -2.470909 
L 123.523312 -2.470909 
L 122.83688 -2.470909 
L 122.150449 -2.470909 
L 121.464018 -2.470909 
L 120.777586 -2.470909 
L 120.091155 -2.470909 
L 119.404724 -2.470909 
L 118.718293 -2.470909 
L 118.031861 -2.470909 
L 117.34543 -2.470909 
L 116.658999 -2.470909 
L 115.972567 -2.470909 
L 115.286136 -2.470909 
L 114.599705 -2.470909 
L 113.913273 -2.470909 
L 113.226842 -2.470909 
z
" style="stroke: #116dc2; stroke-opacity: 0.2"/>
    </defs>
    <g clip-path="url(#pdc93ea2ad2)">
     <use xlink:href="#mba13588523" x="0" y="54.36" style="fill: #116dc2; fill-opacity: 0.2; stroke: #116dc2; stroke-opacity: 0.2"/>
    </g>
   </g>
   <g id="PolyCollection_3">
    <defs>
     <path id="m7d76dc635c" d="M 25.363636 -2.470909 
L 25.363636 -4.935494 
L 26.050068 -5.708026 
L 26.736499 -6.569013 
L 27.42293 -7.506169 
L 28.109362 -8.555126 
L 28.795793 -9.709188 
L 29.482224 -10.978606 
L 30.168655 -12.520622 
L 30.855087 -14.534837 
L 31.541518 -17.017777 
L 32.227949 -19.700744 
L 32.914381 -22.260843 
L 33.600812 -24.620748 
L 34.287243 -27.002591 
L 34.973674 -29.607853 
L 35.660106 -32.283985 
L 36.346537 -34.71993 
L 37.032968 -36.976807 
L 37.7194 -39.446053 
L 38.405831 -42.220809 
L 39.092262 -44.865843 
L 39.778694 -46.881806 
L 40.465125 -48.212612 
L 41.151556 -49.236187 
L 41.837987 -50.303014 
L 42.524419 -51.328469 
L 43.21085 -51.889091 
L 43.897281 -51.765985 
L 44.583713 -51.229616 
L 45.270144 -50.522466 
L 45.956575 -49.310798 
L 46.643007 -47.085817 
L 47.329438 -43.885463 
L 48.015869 -40.260346 
L 48.7023 -36.65459 
L 49.388732 -33.154344 
L 50.075163 -29.866719 
L 50.761594 -27.070171 
L 51.448026 -24.837584 
L 52.134457 -22.868844 
L 52.820888 -20.791959 
L 53.507319 -18.537905 
L 54.193751 -16.374212 
L 54.880182 -14.558127 
L 55.566613 -13.054982 
L 56.253045 -11.64162 
L 56.939476 -10.179605 
L 57.625907 -8.72007 
L 58.312339 -7.415233 
L 58.99877 -6.372208 
L 59.685201 -5.569739 
L 60.371632 -4.921596 
L 61.058064 -4.38437 
L 61.058064 -2.470909 
L 61.058064 -2.470909 
L 60.371632 -2.470909 
L 59.685201 -2.470909 
L 58.99877 -2.470909 
L 58.312339 -2.470909 
L 57.625907 -2.470909 
L 56.939476 -2.470909 
L 56.253045 -2.470909 
L 55.566613 -2.470909 
L 54.880182 -2.470909 
L 54.193751 -2.470909 
L 53.507319 -2.470909 
L 52.820888 -2.470909 
L 52.134457 -2.470909 
L 51.448026 -2.470909 
L 50.761594 -2.470909 
L 50.075163 -2.470909 
L 49.388732 -2.470909 
L 48.7023 -2.470909 
L 48.015869 -2.470909 
L 47.329438 -2.470909 
L 46.643007 -2.470909 
L 45.956575 -2.470909 
L 45.270144 -2.470909 
L 44.583713 -2.470909 
L 43.897281 -2.470909 
L 43.21085 -2.470909 
L 42.524419 -2.470909 
L 41.837987 -2.470909 
L 41.151556 -2.470909 
L 40.465125 -2.470909 
L 39.778694 -2.470909 
L 39.092262 -2.470909 
L 38.405831 -2.470909 
L 37.7194 -2.470909 
L 37.032968 -2.470909 
L 36.346537 -2.470909 
L 35.660106 -2.470909 
L 34.973674 -2.470909 
L 34.287243 -2.470909 
L 33.600812 -2.470909 
L 32.914381 -2.470909 
L 32.227949 -2.470909 
L 31.541518 -2.470909 
L 30.855087 -2.470909 
L 30.168655 -2.470909 
L 29.482224 -2.470909 
L 28.795793 -2.470909 
L 28.109362 -2.470909 
L 27.42293 -2.470909 
L 26.736499 -2.470909 
L 26.050068 -2.470909 
L 25.363636 -2.470909 
z
" style="stroke: #8a8a8a; stroke-opacity: 0.2"/>
    </defs>
    <g clip-path="url(#pdc93ea2ad2)">
     <use xlink:href="#m7d76dc635c" x="0" y="54.36" style="fill: #8a8a8a; fill-opacity: 0.2; stroke: #8a8a8a; stroke-opacity: 0.2"/>
    </g>
   </g>
   <g id="line2d_1">
    <path d="M 318.469799 50.489339 
L 324.647681 49.99085 
L 329.4527 49.399893 
L 334.257719 48.602679 
L 339.062738 47.586669 
L 343.867757 46.326508 
L 350.73207 44.231303 
L 359.655677 41.328204 
L 363.774265 39.718499 
L 369.952147 36.985313 
L 376.130028 34.346641 
L 382.994341 31.448716 
L 388.485792 28.803619 
L 396.722967 24.840124 
L 405.646574 20.703041 
L 408.392299 19.677736 
L 411.138024 18.881782 
L 414.570181 18.159532 
L 418.688769 17.539746 
L 422.120925 17.207754 
L 424.86665 17.119869 
L 427.612375 17.232119 
L 430.358101 17.559768 
L 433.103826 18.096019 
L 436.535982 19.011751 
L 441.341001 20.582127 
L 448.205314 23.093291 
L 455.756059 26.025533 
L 459.188215 27.575544 
L 463.993234 30.055755 
L 468.798253 32.509849 
L 474.289704 35.014795 
L 484.586173 39.50546 
L 488.704761 40.981115 
L 501.060524 45.127472 
L 506.551974 47.013868 
L 510.670562 48.166351 
L 514.78915 49.045766 
L 518.907738 49.696855 
L 523.712757 50.216259 
L 529.204207 50.551046 
L 532.636364 50.689273 
L 532.636364 50.689273 
" clip-path="url(#pdc93ea2ad2)" style="fill: none; stroke: #cf1313; stroke-width: 1.5; stroke-linecap: square"/>
   </g>
   <g id="line2d_2">
    <path d="M 113.226842 50.487832 
L 118.718293 49.918802 
L 124.209743 49.12085 
L 129.014762 48.210941 
L 133.13335 47.18306 
L 137.251938 45.921882 
L 142.743388 43.987899 
L 148.234838 41.811139 
L 153.726289 39.41154 
L 157.844876 37.399057 
L 161.963464 35.137158 
L 182.556403 23.458917 
L 188.047853 20.735463 
L 192.166441 18.845592 
L 194.912166 17.852776 
L 196.97146 17.358035 
L 199.030754 17.093494 
L 201.776479 17.011191 
L 210.700086 16.996368 
L 218.25083 16.83371 
L 220.996556 16.984173 
L 223.742281 17.379288 
L 225.801575 17.88783 
L 227.860868 18.602101 
L 229.920162 19.519128 
L 232.665888 21.002629 
L 238.157338 24.362793 
L 243.648788 27.593225 
L 253.258826 32.929781 
L 258.063845 35.318105 
L 273.851765 42.651492 
L 278.656784 44.457259 
L 285.521097 46.797667 
L 289.639685 47.981851 
L 293.758273 48.928047 
L 297.876861 49.666671 
L 302.68188 50.292651 
L 308.17333 50.747689 
L 308.859761 50.788488 
L 308.859761 50.788488 
" clip-path="url(#pdc93ea2ad2)" style="fill: none; stroke: #116dc2; stroke-width: 1.5; stroke-linecap: square"/>
   </g>
   <g id="line2d_3">
    <path d="M 25.363636 49.424506 
L 26.050068 48.651974 
L 26.736499 47.790987 
L 27.42293 46.853831 
L 28.109362 45.804874 
L 28.795793 44.650812 
L 29.482224 43.381394 
L 30.168655 41.839378 
L 30.855087 39.825163 
L 31.541518 37.342223 
L 32.227949 34.659256 
L 32.914381 32.099157 
L 33.600812 29.739252 
L 34.287243 27.357409 
L 34.973674 24.752147 
L 35.660106 22.076015 
L 36.346537 19.64007 
L 37.032968 17.383193 
L 37.7194 14.913947 
L 38.405831 12.139191 
L 39.092262 9.494157 
L 39.778694 7.478194 
L 40.465125 6.147388 
L 41.151556 5.123813 
L 41.837987 4.056986 
L 42.524419 3.031531 
L 43.21085 2.470909 
L 43.897281 2.594015 
L 44.583713 3.130384 
L 45.270144 3.837534 
L 45.956575 5.049202 
L 46.643007 7.274183 
L 47.329438 10.474537 
L 48.015869 14.099654 
L 48.7023 17.70541 
L 49.388732 21.205656 
L 50.075163 24.493281 
L 50.761594 27.289829 
L 51.448026 29.522416 
L 52.134457 31.491156 
L 52.820888 33.568041 
L 53.507319 35.822095 
L 54.193751 37.985788 
L 54.880182 39.801873 
L 55.566613 41.305018 
L 56.253045 42.71838 
L 56.939476 44.180395 
L 57.625907 45.63993 
L 58.312339 46.944767 
L 58.99877 47.987792 
L 59.685201 48.790261 
L 60.371632 49.438404 
L 61.058064 49.97563 
" clip-path="url(#pdc93ea2ad2)" style="fill: none; stroke: #8a8a8a; stroke-width: 1.5; stroke-linecap: square"/>
   </g>
  </g>
 </g>
 <defs>
  <clipPath id="pdc93ea2ad2">
   <rect x="0" y="-0" width="558" height="54.36"/>
  </clipPath>
 </defs>
</svg>
