<?xml version="1.0" encoding="utf-8" standalone="no"?>
<!DOCTYPE svg PUBLIC "-//W3C//DTD SVG 1.1//EN"
  "http://www.w3.org/Graphics/SVG/1.1/DTD/svg11.dtd">
<svg xmlns:xlink="http://www.w3.org/1999/xlink" width="558pt" height="54.36pt" viewBox="0 0 558 54.36" xmlns="http://www.w3.org/2000/svg" version="1.1">
 <metadata>
  <rdf:RDF xmlns:dc="http://purl.org/dc/elements/1.1/" xmlns:cc="http://creativecommons.org/ns#" xmlns:rdf="http://www.w3.org/1999/02/22-rdf-syntax-ns#">
   <cc:Work>
    <dc:type rdf:resource="http://purl.org/dc/dcmitype/StillImage"/>
    <dc:date>2024-09-14T12:46:45.147104</dc:date>
    <dc:format>image/svg+xml</dc:format>
    <dc:creator>
     <cc:Agent>
      <dc:title>Matplotlib v3.5.2, https://matplotlib.org/</dc:title>
     </cc:Agent>
    </dc:creator>
   </cc:Work>
  </rdf:RDF>
 </metadata>
 <defs>
  <style type="text/css">*{stroke-linejoin: round; stroke-linecap: butt}</style>
 </defs>
 <g id="figure_1">
  <g id="patch_1">
   <path d="M 0 54.36 
L 558 54.36 
L 558 0 
L 0 0 
L 0 54.36 
z
" style="fill: none; opacity: 0"/>
  </g>
  <g id="axes_1">
   <g id="PolyCollection_1">
    <defs>
     <path id="ma6edc6f548" d="M 315.330778 -2.470909 
L 315.330778 -3.961169 
L 316.009858 -4.013875 
L 316.688938 -4.06798 
L 317.368018 -4.123964 
L 318.047097 -4.18234 
L 318.726177 -4.243632 
L 319.405257 -4.308349 
L 320.084337 -4.376961 
L 320.763417 -4.449876 
L 321.442497 -4.527425 
L 322.121577 -4.609844 
L 322.800657 -4.697266 
L 323.479737 -4.789721 
L 324.158817 -4.887134 
L 324.837897 -4.989342 
L 325.516977 -5.096099 
L 326.196057 -5.207101 
L 326.875137 -5.322004 
L 327.554217 -5.440447 
L 328.233297 -5.562074 
L 328.912377 -5.686553 
L 329.591457 -5.813597 
L 330.270537 -5.942974 
L 330.949617 -6.074521 
L 331.628697 -6.208146 
L 332.307777 -6.343829 
L 332.986857 -6.481621 
L 333.665936 -6.621634 
L 334.345016 -6.764029 
L 335.024096 -6.909011 
L 335.703176 -7.05681 
L 336.382256 -7.207673 
L 337.061336 -7.36185 
L 337.740416 -7.519589 
L 338.419496 -7.681123 
L 339.098576 -7.84667 
L 339.777656 -8.01643 
L 340.456736 -8.190581 
L 341.135816 -8.369282 
L 341.814896 -8.552678 
L 342.493976 -8.740897 
L 343.173056 -8.934053 
L 343.852136 -9.132251 
L 344.531216 -9.335579 
L 345.210296 -9.544114 
L 345.889376 -9.757912 
L 346.568456 -9.977002 
L 347.247536 -10.201384 
L 347.926616 -10.43101 
L 348.605696 -10.665787 
L 349.284775 -10.905556 
L 349.963855 -11.150092 
L 350.642935 -11.399094 
L 351.322015 -11.652184 
L 352.001095 -11.908908 
L 352.680175 -12.168743 
L 353.359255 -12.431103 
L 354.038335 -12.695362 
L 354.717415 -12.960871 
L 355.396495 -13.22698 
L 356.075575 -13.49307 
L 356.754655 -13.758578 
L 357.433735 -14.023028 
L 358.112815 -14.286049 
L 358.791895 -14.547407 
L 359.470975 -14.807011 
L 360.150055 -15.064924 
L 360.829135 -15.321367 
L 361.508215 -15.576709 
L 362.187295 -15.831455 
L 362.866375 -16.086223 
L 363.545455 -16.341726 
L 364.224535 -16.598737 
L 364.903614 -16.858068 
L 365.582694 -17.12054 
L 366.261774 -17.386961 
L 366.940854 -17.658104 
L 367.619934 -17.934697 
L 368.299014 -18.217409 
L 368.978094 -18.506851 
L 369.657174 -18.803571 
L 370.336254 -19.108059 
L 371.015334 -19.420755 
L 371.694414 -19.742048 
L 372.373494 -20.072283 
L 373.052574 -20.411758 
L 373.731654 -20.760725 
L 374.410734 -21.119379 
L 375.089814 -21.487852 
L 375.768894 -21.866189 
L 376.447974 -22.254342 
L 377.127054 -22.652144 
L 377.806134 -23.059295 
L 378.485214 -23.475343 
L 379.164294 -23.899676 
L 379.843373 -24.331513 
L 380.522453 -24.769904 
L 381.201533 -25.213738 
L 381.880613 -25.661754 
L 382.559693 -26.112565 
L 383.238773 -26.564682 
L 383.917853 -27.016544 
L 384.596933 -27.466555 
L 385.276013 -27.913112 
L 385.955093 -28.35464 
L 386.634173 -28.78962 
L 387.313253 -29.21661 
L 387.992333 -29.63426 
L 388.671413 -30.041324 
L 389.350493 -30.436661 
L 390.029573 -30.819232 
L 390.708653 -31.188092 
L 391.387733 -31.542381 
L 392.066813 -31.881318 
L 392.745893 -32.204187 
L 393.424973 -32.510341 
L 394.104053 -32.799203 
L 394.783133 -33.070276 
L 395.462212 -33.323158 
L 396.141292 -33.557567 
L 396.820372 -33.773362 
L 397.499452 -33.970576 
L 398.178532 -34.149439 
L 398.857612 -34.310401 
L 399.536692 -34.454144 
L 400.215772 -34.58159 
L 400.894852 -34.693893 
L 401.573932 -34.792419 
L 402.253012 -34.878715 
L 402.932092 -34.954466 
L 403.611172 -35.021441 
L 404.290252 -35.081438 
L 404.969332 -35.136218 
L 405.648412 -35.187449 
L 406.327492 -35.236647 
L 407.006572 -35.285133 
L 407.685652 -35.33399 
L 408.364732 -35.384046 
L 409.043812 -35.435861 
L 409.722892 -35.489728 
L 410.401972 -35.545694 
L 411.081051 -35.603581 
L 411.760131 -35.663021 
L 412.439211 -35.723497 
L 413.118291 -35.784384 
L 413.797371 -35.844989 
L 414.476451 -35.90459 
L 415.155531 -35.962477 
L 415.834611 -36.017978 
L 416.513691 -36.070487 
L 417.192771 -36.119487 
L 417.871851 -36.164564 
L 418.550931 -36.205424 
L 419.230011 -36.241894 
L 419.909091 -36.273934 
L 420.588171 -36.301632 
L 421.267251 -36.325204 
L 421.946331 -36.344982 
L 422.625411 -36.361407 
L 423.304491 -36.375002 
L 423.983571 -36.386354 
L 424.662651 -36.39608 
L 425.341731 -36.404791 
L 426.020811 -36.413053 
L 426.69989 -36.421341 
L 427.37897 -36.429999 
L 428.05805 -36.439192 
L 428.73713 -36.448871 
L 429.41621 -36.458743 
L 430.09529 -36.468244 
L 430.77437 -36.476534 
L 431.45345 -36.4825 
L 432.13253 -36.484773 
L 432.81161 -36.481761 
L 433.49069 -36.471699 
L 434.16977 -36.452704 
L 434.84885 -36.422846 
L 435.52793 -36.38022 
L 436.20701 -36.323027 
L 436.88609 -36.249643 
L 437.56517 -36.158693 
L 438.24425 -36.049109 
L 438.92333 -35.920177 
L 439.60241 -35.771566 
L 440.28149 -35.603348 
L 440.96057 -35.41599 
L 441.63965 -35.210337 
L 442.318729 -34.987574 
L 442.997809 -34.749173 
L 443.676889 -34.496835 
L 444.355969 -34.232414 
L 445.035049 -33.957841 
L 445.714129 -33.67505 
L 446.393209 -33.385893 
L 447.072289 -33.092077 
L 447.751369 -32.795091 
L 448.430449 -32.496159 
L 449.109529 -32.196196 
L 449.788609 -31.89578 
L 450.467689 -31.595144 
L 451.146769 -31.294176 
L 451.825849 -30.992443 
L 452.504929 -30.689219 
L 453.184009 -30.383538 
L 453.863089 -30.07425 
L 454.542169 -29.760087 
L 455.221249 -29.439735 
L 455.900329 -29.111908 
L 456.579409 -28.77542 
L 457.258488 -28.429252 
L 457.937568 -28.072612 
L 458.616648 -27.704983 
L 459.295728 -27.326159 
L 459.974808 -26.936266 
L 460.653888 -26.535766 
L 461.332968 -26.125453 
L 462.012048 -25.706427 
L 462.691128 -25.280061 
L 463.370208 -24.847955 
L 464.049288 -24.411882 
L 464.728368 -23.973733 
L 465.407448 -23.535456 
L 466.086528 -23.098995 
L 466.765608 -22.66624 
L 467.444688 -22.238968 
L 468.123768 -21.818808 
L 468.802848 -21.407198 
L 469.481928 -21.005365 
L 470.161008 -20.614301 
L 470.840088 -20.23476 
L 471.519168 -19.867247 
L 472.198248 -19.51203 
L 472.877327 -19.169147 
L 473.556407 -18.838417 
L 474.235487 -18.519458 
L 474.914567 -18.211706 
L 475.593647 -17.914433 
L 476.272727 -17.626768 
L 476.951807 -17.347718 
L 477.630887 -17.076192 
L 478.309967 -16.811025 
L 478.989047 -16.551004 
L 479.668127 -16.294896 
L 480.347207 -16.041483 
L 481.026287 -15.78959 
L 481.705367 -15.538122 
L 482.384447 -15.2861 
L 483.063527 -15.032688 
L 483.742607 -14.777227 
L 484.421687 -14.519255 
L 485.100767 -14.258524 
L 485.779847 -13.995008 
L 486.458927 -13.728895 
L 487.138007 -13.460579 
L 487.817087 -13.190634 
L 488.496166 -12.91978 
L 489.175246 -12.648847 
L 489.854326 -12.378726 
L 490.533406 -12.110332 
L 491.212486 -11.844551 
L 491.891566 -11.58221 
L 492.570646 -11.324038 
L 493.249726 -11.07065 
L 493.928806 -10.822526 
L 494.607886 -10.58002 
L 495.286966 -10.343356 
L 495.966046 -10.112652 
L 496.645126 -9.887943 
L 497.324206 -9.669199 
L 498.003286 -9.456362 
L 498.682366 -9.249365 
L 499.361446 -9.048152 
L 500.040526 -8.852698 
L 500.719606 -8.663013 
L 501.398686 -8.479138 
L 502.077766 -8.301142 
L 502.756846 -8.129103 
L 503.435926 -7.96309 
L 504.115005 -7.80314 
L 504.794085 -7.649237 
L 505.473165 -7.501288 
L 506.152245 -7.35911 
L 506.831325 -7.222423 
L 507.510405 -7.090841 
L 508.189485 -6.963883 
L 508.868565 -6.840989 
L 509.547645 -6.721532 
L 510.226725 -6.604853 
L 510.905805 -6.490285 
L 511.584885 -6.377187 
L 512.263965 -6.264972 
L 512.943045 -6.153136 
L 513.622125 -6.04128 
L 514.301205 -5.929122 
L 514.980285 -5.816514 
L 515.659365 -5.703437 
L 516.338445 -5.589998 
L 517.017525 -5.476417 
L 517.696605 -5.363011 
L 518.375685 -5.250175 
L 519.054765 -5.138354 
L 519.733844 -5.028027 
L 520.412924 -4.919678 
L 521.092004 -4.81378 
L 521.771084 -4.710778 
L 522.450164 -4.611075 
L 523.129244 -4.515022 
L 523.808324 -4.422915 
L 524.487404 -4.334989 
L 525.166484 -4.251422 
L 525.845564 -4.172335 
L 526.524644 -4.097795 
L 527.203724 -4.027817 
L 527.882804 -3.962372 
L 528.561884 -3.901385 
L 529.240964 -3.844738 
L 529.920044 -3.792277 
L 530.599124 -3.743807 
L 531.278204 -3.699099 
L 531.957284 -3.657888 
L 532.636364 -3.619881 
L 532.636364 -2.470909 
L 532.636364 -2.470909 
L 531.957284 -2.470909 
L 531.278204 -2.470909 
L 530.599124 -2.470909 
L 529.920044 -2.470909 
L 529.240964 -2.470909 
L 528.561884 -2.470909 
L 527.882804 -2.470909 
L 527.203724 -2.470909 
L 526.524644 -2.470909 
L 525.845564 -2.470909 
L 525.166484 -2.470909 
L 524.487404 -2.470909 
L 523.808324 -2.470909 
L 523.129244 -2.470909 
L 522.450164 -2.470909 
L 521.771084 -2.470909 
L 521.092004 -2.470909 
L 520.412924 -2.470909 
L 519.733844 -2.470909 
L 519.054765 -2.470909 
L 518.375685 -2.470909 
L 517.696605 -2.470909 
L 517.017525 -2.470909 
L 516.338445 -2.470909 
L 515.659365 -2.470909 
L 514.980285 -2.470909 
L 514.301205 -2.470909 
L 513.622125 -2.470909 
L 512.943045 -2.470909 
L 512.263965 -2.470909 
L 511.584885 -2.470909 
L 510.905805 -2.470909 
L 510.226725 -2.470909 
L 509.547645 -2.470909 
L 508.868565 -2.470909 
L 508.189485 -2.470909 
L 507.510405 -2.470909 
L 506.831325 -2.470909 
L 506.152245 -2.470909 
L 505.473165 -2.470909 
L 504.794085 -2.470909 
L 504.115005 -2.470909 
L 503.435926 -2.470909 
L 502.756846 -2.470909 
L 502.077766 -2.470909 
L 501.398686 -2.470909 
L 500.719606 -2.470909 
L 500.040526 -2.470909 
L 499.361446 -2.470909 
L 498.682366 -2.470909 
L 498.003286 -2.470909 
L 497.324206 -2.470909 
L 496.645126 -2.470909 
L 495.966046 -2.470909 
L 495.286966 -2.470909 
L 494.607886 -2.470909 
L 493.928806 -2.470909 
L 493.249726 -2.470909 
L 492.570646 -2.470909 
L 491.891566 -2.470909 
L 491.212486 -2.470909 
L 490.533406 -2.470909 
L 489.854326 -2.470909 
L 489.175246 -2.470909 
L 488.496166 -2.470909 
L 487.817087 -2.470909 
L 487.138007 -2.470909 
L 486.458927 -2.470909 
L 485.779847 -2.470909 
L 485.100767 -2.470909 
L 484.421687 -2.470909 
L 483.742607 -2.470909 
L 483.063527 -2.470909 
L 482.384447 -2.470909 
L 481.705367 -2.470909 
L 481.026287 -2.470909 
L 480.347207 -2.470909 
L 479.668127 -2.470909 
L 478.989047 -2.470909 
L 478.309967 -2.470909 
L 477.630887 -2.470909 
L 476.951807 -2.470909 
L 476.272727 -2.470909 
L 475.593647 -2.470909 
L 474.914567 -2.470909 
L 474.235487 -2.470909 
L 473.556407 -2.470909 
L 472.877327 -2.470909 
L 472.198248 -2.470909 
L 471.519168 -2.470909 
L 470.840088 -2.470909 
L 470.161008 -2.470909 
L 469.481928 -2.470909 
L 468.802848 -2.470909 
L 468.123768 -2.470909 
L 467.444688 -2.470909 
L 466.765608 -2.470909 
L 466.086528 -2.470909 
L 465.407448 -2.470909 
L 464.728368 -2.470909 
L 464.049288 -2.470909 
L 463.370208 -2.470909 
L 462.691128 -2.470909 
L 462.012048 -2.470909 
L 461.332968 -2.470909 
L 460.653888 -2.470909 
L 459.974808 -2.470909 
L 459.295728 -2.470909 
L 458.616648 -2.470909 
L 457.937568 -2.470909 
L 457.258488 -2.470909 
L 456.579409 -2.470909 
L 455.900329 -2.470909 
L 455.221249 -2.470909 
L 454.542169 -2.470909 
L 453.863089 -2.470909 
L 453.184009 -2.470909 
L 452.504929 -2.470909 
L 451.825849 -2.470909 
L 451.146769 -2.470909 
L 450.467689 -2.470909 
L 449.788609 -2.470909 
L 449.109529 -2.470909 
L 448.430449 -2.470909 
L 447.751369 -2.470909 
L 447.072289 -2.470909 
L 446.393209 -2.470909 
L 445.714129 -2.470909 
L 445.035049 -2.470909 
L 444.355969 -2.470909 
L 443.676889 -2.470909 
L 442.997809 -2.470909 
L 442.318729 -2.470909 
L 441.63965 -2.470909 
L 440.96057 -2.470909 
L 440.28149 -2.470909 
L 439.60241 -2.470909 
L 438.92333 -2.470909 
L 438.24425 -2.470909 
L 437.56517 -2.470909 
L 436.88609 -2.470909 
L 436.20701 -2.470909 
L 435.52793 -2.470909 
L 434.84885 -2.470909 
L 434.16977 -2.470909 
L 433.49069 -2.470909 
L 432.81161 -2.470909 
L 432.13253 -2.470909 
L 431.45345 -2.470909 
L 430.77437 -2.470909 
L 430.09529 -2.470909 
L 429.41621 -2.470909 
L 428.73713 -2.470909 
L 428.05805 -2.470909 
L 427.37897 -2.470909 
L 426.69989 -2.470909 
L 426.020811 -2.470909 
L 425.341731 -2.470909 
L 424.662651 -2.470909 
L 423.983571 -2.470909 
L 423.304491 -2.470909 
L 422.625411 -2.470909 
L 421.946331 -2.470909 
L 421.267251 -2.470909 
L 420.588171 -2.470909 
L 419.909091 -2.470909 
L 419.230011 -2.470909 
L 418.550931 -2.470909 
L 417.871851 -2.470909 
L 417.192771 -2.470909 
L 416.513691 -2.470909 
L 415.834611 -2.470909 
L 415.155531 -2.470909 
L 414.476451 -2.470909 
L 413.797371 -2.470909 
L 413.118291 -2.470909 
L 412.439211 -2.470909 
L 411.760131 -2.470909 
L 411.081051 -2.470909 
L 410.401972 -2.470909 
L 409.722892 -2.470909 
L 409.043812 -2.470909 
L 408.364732 -2.470909 
L 407.685652 -2.470909 
L 407.006572 -2.470909 
L 406.327492 -2.470909 
L 405.648412 -2.470909 
L 404.969332 -2.470909 
L 404.290252 -2.470909 
L 403.611172 -2.470909 
L 402.932092 -2.470909 
L 402.253012 -2.470909 
L 401.573932 -2.470909 
L 400.894852 -2.470909 
L 400.215772 -2.470909 
L 399.536692 -2.470909 
L 398.857612 -2.470909 
L 398.178532 -2.470909 
L 397.499452 -2.470909 
L 396.820372 -2.470909 
L 396.141292 -2.470909 
L 395.462212 -2.470909 
L 394.783133 -2.470909 
L 394.104053 -2.470909 
L 393.424973 -2.470909 
L 392.745893 -2.470909 
L 392.066813 -2.470909 
L 391.387733 -2.470909 
L 390.708653 -2.470909 
L 390.029573 -2.470909 
L 389.350493 -2.470909 
L 388.671413 -2.470909 
L 387.992333 -2.470909 
L 387.313253 -2.470909 
L 386.634173 -2.470909 
L 385.955093 -2.470909 
L 385.276013 -2.470909 
L 384.596933 -2.470909 
L 383.917853 -2.470909 
L 383.238773 -2.470909 
L 382.559693 -2.470909 
L 381.880613 -2.470909 
L 381.201533 -2.470909 
L 380.522453 -2.470909 
L 379.843373 -2.470909 
L 379.164294 -2.470909 
L 378.485214 -2.470909 
L 377.806134 -2.470909 
L 377.127054 -2.470909 
L 376.447974 -2.470909 
L 375.768894 -2.470909 
L 375.089814 -2.470909 
L 374.410734 -2.470909 
L 373.731654 -2.470909 
L 373.052574 -2.470909 
L 372.373494 -2.470909 
L 371.694414 -2.470909 
L 371.015334 -2.470909 
L 370.336254 -2.470909 
L 369.657174 -2.470909 
L 368.978094 -2.470909 
L 368.299014 -2.470909 
L 367.619934 -2.470909 
L 366.940854 -2.470909 
L 366.261774 -2.470909 
L 365.582694 -2.470909 
L 364.903614 -2.470909 
L 364.224535 -2.470909 
L 363.545455 -2.470909 
L 362.866375 -2.470909 
L 362.187295 -2.470909 
L 361.508215 -2.470909 
L 360.829135 -2.470909 
L 360.150055 -2.470909 
L 359.470975 -2.470909 
L 358.791895 -2.470909 
L 358.112815 -2.470909 
L 357.433735 -2.470909 
L 356.754655 -2.470909 
L 356.075575 -2.470909 
L 355.396495 -2.470909 
L 354.717415 -2.470909 
L 354.038335 -2.470909 
L 353.359255 -2.470909 
L 352.680175 -2.470909 
L 352.001095 -2.470909 
L 351.322015 -2.470909 
L 350.642935 -2.470909 
L 349.963855 -2.470909 
L 349.284775 -2.470909 
L 348.605696 -2.470909 
L 347.926616 -2.470909 
L 347.247536 -2.470909 
L 346.568456 -2.470909 
L 345.889376 -2.470909 
L 345.210296 -2.470909 
L 344.531216 -2.470909 
L 343.852136 -2.470909 
L 343.173056 -2.470909 
L 342.493976 -2.470909 
L 341.814896 -2.470909 
L 341.135816 -2.470909 
L 340.456736 -2.470909 
L 339.777656 -2.470909 
L 339.098576 -2.470909 
L 338.419496 -2.470909 
L 337.740416 -2.470909 
L 337.061336 -2.470909 
L 336.382256 -2.470909 
L 335.703176 -2.470909 
L 335.024096 -2.470909 
L 334.345016 -2.470909 
L 333.665936 -2.470909 
L 332.986857 -2.470909 
L 332.307777 -2.470909 
L 331.628697 -2.470909 
L 330.949617 -2.470909 
L 330.270537 -2.470909 
L 329.591457 -2.470909 
L 328.912377 -2.470909 
L 328.233297 -2.470909 
L 327.554217 -2.470909 
L 326.875137 -2.470909 
L 326.196057 -2.470909 
L 325.516977 -2.470909 
L 324.837897 -2.470909 
L 324.158817 -2.470909 
L 323.479737 -2.470909 
L 322.800657 -2.470909 
L 322.121577 -2.470909 
L 321.442497 -2.470909 
L 320.763417 -2.470909 
L 320.084337 -2.470909 
L 319.405257 -2.470909 
L 318.726177 -2.470909 
L 318.047097 -2.470909 
L 317.368018 -2.470909 
L 316.688938 -2.470909 
L 316.009858 -2.470909 
L 315.330778 -2.470909 
z
" style="stroke: #cf1313; stroke-opacity: 0.2"/>
    </defs>
    <g clip-path="url(#p044a9c1ae5)">
     <use xlink:href="#ma6edc6f548" x="0" y="54.36" style="fill: #cf1313; fill-opacity: 0.2; stroke: #cf1313; stroke-opacity: 0.2"/>
    </g>
   </g>
   <g id="PolyCollection_2">
    <defs>
     <path id="mc82074ba85" d="M 116.36035 -2.470909 
L 116.36035 -4.300655 
L 117.03943 -4.399088 
L 117.71851 -4.499018 
L 118.39759 -4.599886 
L 119.07667 -4.701238 
L 119.75575 -4.802762 
L 120.43483 -4.904303 
L 121.11391 -5.005871 
L 121.79299 -5.107635 
L 122.47207 -5.209906 
L 123.15115 -5.313099 
L 123.83023 -5.417704 
L 124.50931 -5.524239 
L 125.18839 -5.63321 
L 125.86747 -5.745074 
L 126.54655 -5.860213 
L 127.22563 -5.978915 
L 127.90471 -6.101368 
L 128.58379 -6.227675 
L 129.26287 -6.357867 
L 129.94195 -6.491934 
L 130.62103 -6.629858 
L 131.30011 -6.771647 
L 131.979189 -6.917364 
L 132.658269 -7.067149 
L 133.337349 -7.221236 
L 134.016429 -7.379947 
L 134.695509 -7.543685 
L 135.374589 -7.712914 
L 136.053669 -7.888125 
L 136.732749 -8.069809 
L 137.411829 -8.258418 
L 138.090909 -8.454338 
L 138.769989 -8.657866 
L 139.449069 -8.869196 
L 140.128149 -9.088414 
L 140.807229 -9.315509 
L 141.486309 -9.550384 
L 142.165389 -9.792878 
L 142.844469 -10.042789 
L 143.523549 -10.299894 
L 144.202629 -10.563967 
L 144.881709 -10.83479 
L 145.560789 -11.112153 
L 146.239869 -11.395851 
L 146.918949 -11.685675 
L 147.598028 -11.981394 
L 148.277108 -12.282741 
L 148.956188 -12.589399 
L 149.635268 -12.900998 
L 150.314348 -13.217108 
L 150.993428 -13.53725 
L 151.672508 -13.860908 
L 152.351588 -14.187557 
L 153.030668 -14.516679 
L 153.709748 -14.847796 
L 154.388828 -15.180491 
L 155.067908 -15.514426 
L 155.746988 -15.849354 
L 156.426068 -16.18512 
L 157.105148 -16.521656 
L 157.784228 -16.858964 
L 158.463308 -17.197095 
L 159.142388 -17.536121 
L 159.821468 -17.876113 
L 160.500548 -18.217111 
L 161.179628 -18.559106 
L 161.858708 -18.902024 
L 162.537788 -19.245718 
L 163.216867 -19.589964 
L 163.895947 -19.934471 
L 164.575027 -20.278887 
L 165.254107 -20.622813 
L 165.933187 -20.965819 
L 166.612267 -21.307459 
L 167.291347 -21.647284 
L 167.970427 -21.984857 
L 168.649507 -22.319759 
L 169.328587 -22.651602 
L 170.007667 -22.980034 
L 170.686747 -23.304747 
L 171.365827 -23.625489 
L 172.044907 -23.94207 
L 172.723987 -24.25438 
L 173.403067 -24.562408 
L 174.082147 -24.866259 
L 174.761227 -25.166175 
L 175.440307 -25.462561 
L 176.119387 -25.755998 
L 176.798467 -26.047258 
L 177.477547 -26.337298 
L 178.156627 -26.627254 
L 178.835706 -26.918405 
L 179.514786 -27.212129 
L 180.193866 -27.509835 
L 180.872946 -27.812885 
L 181.552026 -28.122496 
L 182.231106 -28.439648 
L 182.910186 -28.764983 
L 183.589266 -29.098725 
L 184.268346 -29.440605 
L 184.947426 -29.789826 
L 185.626506 -30.145052 
L 186.305586 -30.504432 
L 186.984666 -30.865667 
L 187.663746 -31.226096 
L 188.342826 -31.582824 
L 189.021906 -31.932863 
L 189.700986 -32.273279 
L 190.380066 -32.601343 
L 191.059146 -32.91467 
L 191.738226 -33.211334 
L 192.417306 -33.489953 
L 193.096386 -33.749748 
L 193.775465 -33.990552 
L 194.454545 -34.212794 
L 195.133625 -34.417444 
L 195.812705 -34.605931 
L 196.491785 -34.78004 
L 197.170865 -34.9418 
L 197.849945 -35.093362 
L 198.529025 -35.236887 
L 199.208105 -35.374442 
L 199.887185 -35.507916 
L 200.566265 -35.638951 
L 201.245345 -35.768895 
L 201.924425 -35.898781 
L 202.603505 -36.029313 
L 203.282585 -36.160867 
L 203.961665 -36.29351 
L 204.640745 -36.427002 
L 205.319825 -36.560819 
L 205.998905 -36.694161 
L 206.677985 -36.825955 
L 207.357065 -36.95487 
L 208.036145 -37.079317 
L 208.715225 -37.197462 
L 209.394304 -37.307252 
L 210.073384 -37.406441 
L 210.752464 -37.492645 
L 211.431544 -37.563401 
L 212.110624 -37.616245 
L 212.789704 -37.648802 
L 213.468784 -37.658877 
L 214.147864 -37.64455 
L 214.826944 -37.604267 
L 215.506024 -37.536907 
L 216.185104 -37.441847 
L 216.864184 -37.318998 
L 217.543264 -37.168819 
L 218.222344 -36.992311 
L 218.901424 -36.790992 
L 219.580504 -36.566847 
L 220.259584 -36.322266 
L 220.938664 -36.059963 
L 221.617744 -35.782893 
L 222.296824 -35.494146 
L 222.975904 -35.196845 
L 223.654984 -34.894037 
L 224.334064 -34.588588 
L 225.013143 -34.283073 
L 225.692223 -33.979691 
L 226.371303 -33.680177 
L 227.050383 -33.385754 
L 227.729463 -33.097094 
L 228.408543 -32.814315 
L 229.087623 -32.537002 
L 229.766703 -32.264264 
L 230.445783 -31.994804 
L 231.124863 -31.727017 
L 231.803943 -31.459093 
L 232.483023 -31.189129 
L 233.162103 -30.915233 
L 233.841183 -30.635623 
L 234.520263 -30.348703 
L 235.199343 -30.053129 
L 235.878423 -29.747851 
L 236.557503 -29.432135 
L 237.236583 -29.105571 
L 237.915663 -28.768065 
L 238.594743 -28.41982 
L 239.273823 -28.061308 
L 239.952903 -27.693236 
L 240.631982 -27.31651 
L 241.311062 -26.932196 
L 241.990142 -26.541476 
L 242.669222 -26.14561 
L 243.348302 -25.745895 
L 244.027382 -25.34363 
L 244.706462 -24.94008 
L 245.385542 -24.536453 
L 246.064622 -24.133877 
L 246.743702 -23.733385 
L 247.422782 -23.335911 
L 248.101862 -22.942291 
L 248.780942 -22.553266 
L 249.460022 -22.169494 
L 250.139102 -21.79156 
L 250.818182 -21.41998 
L 251.497262 -21.055208 
L 252.176342 -20.697634 
L 252.855422 -20.347572 
L 253.534502 -20.005247 
L 254.213582 -19.670774 
L 254.892662 -19.344134 
L 255.571742 -19.025153 
L 256.250821 -18.713479 
L 256.929901 -18.408578 
L 257.608981 -18.109729 
L 258.288061 -17.816039 
L 258.967141 -17.526474 
L 259.646221 -17.239894 
L 260.325301 -16.955112 
L 261.004381 -16.670953 
L 261.683461 -16.386313 
L 262.362541 -16.100229 
L 263.041621 -15.811924 
L 263.720701 -15.520852 
L 264.399781 -15.226726 
L 265.078861 -14.92952 
L 265.757941 -14.629462 
L 266.437021 -14.327 
L 267.116101 -14.022767 
L 267.795181 -13.717522 
L 268.474261 -13.412098 
L 269.153341 -13.107342 
L 269.832421 -12.804067 
L 270.511501 -12.503011 
L 271.190581 -12.204805 
L 271.86966 -11.90996 
L 272.54874 -11.618864 
L 273.22782 -11.331793 
L 273.9069 -11.048932 
L 274.58598 -10.770397 
L 275.26506 -10.496271 
L 275.94414 -10.226629 
L 276.62322 -9.961572 
L 277.3023 -9.701239 
L 277.98138 -9.445831 
L 278.66046 -9.195613 
L 279.33954 -8.950914 
L 280.01862 -8.712114 
L 280.6977 -8.479632 
L 281.37678 -8.253897 
L 282.05586 -8.035326 
L 282.73494 -7.824293 
L 283.41402 -7.621096 
L 284.0931 -7.425937 
L 284.77218 -7.238894 
L 285.45126 -7.05991 
L 286.13034 -6.888781 
L 286.809419 -6.725162 
L 287.488499 -6.568577 
L 288.167579 -6.418439 
L 288.846659 -6.274083 
L 289.525739 -6.134796 
L 290.204819 -5.999862 
L 290.883899 -5.868595 
L 291.562979 -5.740384 
L 292.242059 -5.614717 
L 292.921139 -5.491212 
L 293.600219 -5.36963 
L 294.279299 -5.249873 
L 294.958379 -5.131987 
L 295.637459 -5.016137 
L 296.316539 -4.902588 
L 296.995619 -4.791673 
L 297.674699 -4.683763 
L 298.353779 -4.57923 
L 299.032859 -4.478425 
L 299.711939 -4.381645 
L 300.391019 -4.289125 
L 301.070099 -4.201019 
L 301.749179 -4.117402 
L 302.428258 -4.038271 
L 303.107338 -3.963553 
L 303.107338 -2.470909 
L 303.107338 -2.470909 
L 302.428258 -2.470909 
L 301.749179 -2.470909 
L 301.070099 -2.470909 
L 300.391019 -2.470909 
L 299.711939 -2.470909 
L 299.032859 -2.470909 
L 298.353779 -2.470909 
L 297.674699 -2.470909 
L 296.995619 -2.470909 
L 296.316539 -2.470909 
L 295.637459 -2.470909 
L 294.958379 -2.470909 
L 294.279299 -2.470909 
L 293.600219 -2.470909 
L 292.921139 -2.470909 
L 292.242059 -2.470909 
L 291.562979 -2.470909 
L 290.883899 -2.470909 
L 290.204819 -2.470909 
L 289.525739 -2.470909 
L 288.846659 -2.470909 
L 288.167579 -2.470909 
L 287.488499 -2.470909 
L 286.809419 -2.470909 
L 286.13034 -2.470909 
L 285.45126 -2.470909 
L 284.77218 -2.470909 
L 284.0931 -2.470909 
L 283.41402 -2.470909 
L 282.73494 -2.470909 
L 282.05586 -2.470909 
L 281.37678 -2.470909 
L 280.6977 -2.470909 
L 280.01862 -2.470909 
L 279.33954 -2.470909 
L 278.66046 -2.470909 
L 277.98138 -2.470909 
L 277.3023 -2.470909 
L 276.62322 -2.470909 
L 275.94414 -2.470909 
L 275.26506 -2.470909 
L 274.58598 -2.470909 
L 273.9069 -2.470909 
L 273.22782 -2.470909 
L 272.54874 -2.470909 
L 271.86966 -2.470909 
L 271.190581 -2.470909 
L 270.511501 -2.470909 
L 269.832421 -2.470909 
L 269.153341 -2.470909 
L 268.474261 -2.470909 
L 267.795181 -2.470909 
L 267.116101 -2.470909 
L 266.437021 -2.470909 
L 265.757941 -2.470909 
L 265.078861 -2.470909 
L 264.399781 -2.470909 
L 263.720701 -2.470909 
L 263.041621 -2.470909 
L 262.362541 -2.470909 
L 261.683461 -2.470909 
L 261.004381 -2.470909 
L 260.325301 -2.470909 
L 259.646221 -2.470909 
L 258.967141 -2.470909 
L 258.288061 -2.470909 
L 257.608981 -2.470909 
L 256.929901 -2.470909 
L 256.250821 -2.470909 
L 255.571742 -2.470909 
L 254.892662 -2.470909 
L 254.213582 -2.470909 
L 253.534502 -2.470909 
L 252.855422 -2.470909 
L 252.176342 -2.470909 
L 251.497262 -2.470909 
L 250.818182 -2.470909 
L 250.139102 -2.470909 
L 249.460022 -2.470909 
L 248.780942 -2.470909 
L 248.101862 -2.470909 
L 247.422782 -2.470909 
L 246.743702 -2.470909 
L 246.064622 -2.470909 
L 245.385542 -2.470909 
L 244.706462 -2.470909 
L 244.027382 -2.470909 
L 243.348302 -2.470909 
L 242.669222 -2.470909 
L 241.990142 -2.470909 
L 241.311062 -2.470909 
L 240.631982 -2.470909 
L 239.952903 -2.470909 
L 239.273823 -2.470909 
L 238.594743 -2.470909 
L 237.915663 -2.470909 
L 237.236583 -2.470909 
L 236.557503 -2.470909 
L 235.878423 -2.470909 
L 235.199343 -2.470909 
L 234.520263 -2.470909 
L 233.841183 -2.470909 
L 233.162103 -2.470909 
L 232.483023 -2.470909 
L 231.803943 -2.470909 
L 231.124863 -2.470909 
L 230.445783 -2.470909 
L 229.766703 -2.470909 
L 229.087623 -2.470909 
L 228.408543 -2.470909 
L 227.729463 -2.470909 
L 227.050383 -2.470909 
L 226.371303 -2.470909 
L 225.692223 -2.470909 
L 225.013143 -2.470909 
L 224.334064 -2.470909 
L 223.654984 -2.470909 
L 222.975904 -2.470909 
L 222.296824 -2.470909 
L 221.617744 -2.470909 
L 220.938664 -2.470909 
L 220.259584 -2.470909 
L 219.580504 -2.470909 
L 218.901424 -2.470909 
L 218.222344 -2.470909 
L 217.543264 -2.470909 
L 216.864184 -2.470909 
L 216.185104 -2.470909 
L 215.506024 -2.470909 
L 214.826944 -2.470909 
L 214.147864 -2.470909 
L 213.468784 -2.470909 
L 212.789704 -2.470909 
L 212.110624 -2.470909 
L 211.431544 -2.470909 
L 210.752464 -2.470909 
L 210.073384 -2.470909 
L 209.394304 -2.470909 
L 208.715225 -2.470909 
L 208.036145 -2.470909 
L 207.357065 -2.470909 
L 206.677985 -2.470909 
L 205.998905 -2.470909 
L 205.319825 -2.470909 
L 204.640745 -2.470909 
L 203.961665 -2.470909 
L 203.282585 -2.470909 
L 202.603505 -2.470909 
L 201.924425 -2.470909 
L 201.245345 -2.470909 
L 200.566265 -2.470909 
L 199.887185 -2.470909 
L 199.208105 -2.470909 
L 198.529025 -2.470909 
L 197.849945 -2.470909 
L 197.170865 -2.470909 
L 196.491785 -2.470909 
L 195.812705 -2.470909 
L 195.133625 -2.470909 
L 194.454545 -2.470909 
L 193.775465 -2.470909 
L 193.096386 -2.470909 
L 192.417306 -2.470909 
L 191.738226 -2.470909 
L 191.059146 -2.470909 
L 190.380066 -2.470909 
L 189.700986 -2.470909 
L 189.021906 -2.470909 
L 188.342826 -2.470909 
L 187.663746 -2.470909 
L 186.984666 -2.470909 
L 186.305586 -2.470909 
L 185.626506 -2.470909 
L 184.947426 -2.470909 
L 184.268346 -2.470909 
L 183.589266 -2.470909 
L 182.910186 -2.470909 
L 182.231106 -2.470909 
L 181.552026 -2.470909 
L 180.872946 -2.470909 
L 180.193866 -2.470909 
L 179.514786 -2.470909 
L 178.835706 -2.470909 
L 178.156627 -2.470909 
L 177.477547 -2.470909 
L 176.798467 -2.470909 
L 176.119387 -2.470909 
L 175.440307 -2.470909 
L 174.761227 -2.470909 
L 174.082147 -2.470909 
L 173.403067 -2.470909 
L 172.723987 -2.470909 
L 172.044907 -2.470909 
L 171.365827 -2.470909 
L 170.686747 -2.470909 
L 170.007667 -2.470909 
L 169.328587 -2.470909 
L 168.649507 -2.470909 
L 167.970427 -2.470909 
L 167.291347 -2.470909 
L 166.612267 -2.470909 
L 165.933187 -2.470909 
L 165.254107 -2.470909 
L 164.575027 -2.470909 
L 163.895947 -2.470909 
L 163.216867 -2.470909 
L 162.537788 -2.470909 
L 161.858708 -2.470909 
L 161.179628 -2.470909 
L 160.500548 -2.470909 
L 159.821468 -2.470909 
L 159.142388 -2.470909 
L 158.463308 -2.470909 
L 157.784228 -2.470909 
L 157.105148 -2.470909 
L 156.426068 -2.470909 
L 155.746988 -2.470909 
L 155.067908 -2.470909 
L 154.388828 -2.470909 
L 153.709748 -2.470909 
L 153.030668 -2.470909 
L 152.351588 -2.470909 
L 151.672508 -2.470909 
L 150.993428 -2.470909 
L 150.314348 -2.470909 
L 149.635268 -2.470909 
L 148.956188 -2.470909 
L 148.277108 -2.470909 
L 147.598028 -2.470909 
L 146.918949 -2.470909 
L 146.239869 -2.470909 
L 145.560789 -2.470909 
L 144.881709 -2.470909 
L 144.202629 -2.470909 
L 143.523549 -2.470909 
L 142.844469 -2.470909 
L 142.165389 -2.470909 
L 141.486309 -2.470909 
L 140.807229 -2.470909 
L 140.128149 -2.470909 
L 139.449069 -2.470909 
L 138.769989 -2.470909 
L 138.090909 -2.470909 
L 137.411829 -2.470909 
L 136.732749 -2.470909 
L 136.053669 -2.470909 
L 135.374589 -2.470909 
L 134.695509 -2.470909 
L 134.016429 -2.470909 
L 133.337349 -2.470909 
L 132.658269 -2.470909 
L 131.979189 -2.470909 
L 131.30011 -2.470909 
L 130.62103 -2.470909 
L 129.94195 -2.470909 
L 129.26287 -2.470909 
L 128.58379 -2.470909 
L 127.90471 -2.470909 
L 127.22563 -2.470909 
L 126.54655 -2.470909 
L 125.86747 -2.470909 
L 125.18839 -2.470909 
L 124.50931 -2.470909 
L 123.83023 -2.470909 
L 123.15115 -2.470909 
L 122.47207 -2.470909 
L 121.79299 -2.470909 
L 121.11391 -2.470909 
L 120.43483 -2.470909 
L 119.75575 -2.470909 
L 119.07667 -2.470909 
L 118.39759 -2.470909 
L 117.71851 -2.470909 
L 117.03943 -2.470909 
L 116.36035 -2.470909 
z
" style="stroke: #116dc2; stroke-opacity: 0.2"/>
    </defs>
    <g clip-path="url(#p044a9c1ae5)">
     <use xlink:href="#mc82074ba85" x="0" y="54.36" style="fill: #116dc2; fill-opacity: 0.2; stroke: #116dc2; stroke-opacity: 0.2"/>
    </g>
   </g>
   <g id="PolyCollection_3">
    <defs>
     <path id="m40081c88ee" d="M 25.363636 -2.470909 
L 25.363636 -4.418964 
L 26.042716 -4.841414 
L 26.721796 -5.403741 
L 27.400876 -6.083838 
L 28.079956 -6.832376 
L 28.759036 -7.679673 
L 29.438116 -8.72742 
L 30.117196 -10.037742 
L 30.796276 -11.635838 
L 31.475356 -13.553237 
L 32.154436 -15.764538 
L 32.833516 -18.162705 
L 33.512596 -20.646205 
L 34.191676 -23.163985 
L 34.870756 -25.630284 
L 35.549836 -27.931738 
L 36.228916 -30.173722 
L 36.907996 -32.691234 
L 37.587076 -35.626345 
L 38.266156 -38.71841 
L 38.945235 -41.569158 
L 39.624315 -43.949782 
L 40.303395 -45.845561 
L 40.982475 -47.355848 
L 41.661555 -48.667026 
L 42.340635 -49.968974 
L 43.019715 -51.181068 
L 43.698795 -51.889091 
L 44.377875 -51.704778 
L 45.056955 -50.587099 
L 45.736035 -48.801502 
L 46.415115 -46.699613 
L 47.094195 -44.558933 
L 47.773275 -42.46054 
L 48.452355 -40.248949 
L 49.131435 -37.695388 
L 49.810515 -34.727992 
L 50.489595 -31.543582 
L 51.168675 -28.470637 
L 51.847755 -25.651038 
L 52.526835 -22.98672 
L 53.205915 -20.460445 
L 53.884995 -18.233683 
L 54.564074 -16.336495 
L 55.243154 -14.570873 
L 55.922234 -12.763055 
L 56.601314 -10.927322 
L 57.280394 -9.242183 
L 57.959474 -7.895791 
L 58.638554 -6.890893 
L 59.317634 -6.057321 
L 59.996714 -5.272975 
L 60.675794 -4.587953 
L 61.354874 -4.114647 
L 62.033954 -3.857451 
L 62.033954 -2.470909 
L 62.033954 -2.470909 
L 61.354874 -2.470909 
L 60.675794 -2.470909 
L 59.996714 -2.470909 
L 59.317634 -2.470909 
L 58.638554 -2.470909 
L 57.959474 -2.470909 
L 57.280394 -2.470909 
L 56.601314 -2.470909 
L 55.922234 -2.470909 
L 55.243154 -2.470909 
L 54.564074 -2.470909 
L 53.884995 -2.470909 
L 53.205915 -2.470909 
L 52.526835 -2.470909 
L 51.847755 -2.470909 
L 51.168675 -2.470909 
L 50.489595 -2.470909 
L 49.810515 -2.470909 
L 49.131435 -2.470909 
L 48.452355 -2.470909 
L 47.773275 -2.470909 
L 47.094195 -2.470909 
L 46.415115 -2.470909 
L 45.736035 -2.470909 
L 45.056955 -2.470909 
L 44.377875 -2.470909 
L 43.698795 -2.470909 
L 43.019715 -2.470909 
L 42.340635 -2.470909 
L 41.661555 -2.470909 
L 40.982475 -2.470909 
L 40.303395 -2.470909 
L 39.624315 -2.470909 
L 38.945235 -2.470909 
L 38.266156 -2.470909 
L 37.587076 -2.470909 
L 36.907996 -2.470909 
L 36.228916 -2.470909 
L 35.549836 -2.470909 
L 34.870756 -2.470909 
L 34.191676 -2.470909 
L 33.512596 -2.470909 
L 32.833516 -2.470909 
L 32.154436 -2.470909 
L 31.475356 -2.470909 
L 30.796276 -2.470909 
L 30.117196 -2.470909 
L 29.438116 -2.470909 
L 28.759036 -2.470909 
L 28.079956 -2.470909 
L 27.400876 -2.470909 
L 26.721796 -2.470909 
L 26.042716 -2.470909 
L 25.363636 -2.470909 
z
" style="stroke: #8a8a8a; stroke-opacity: 0.2"/>
    </defs>
    <g clip-path="url(#p044a9c1ae5)">
     <use xlink:href="#m40081c88ee" x="0" y="54.36" style="fill: #8a8a8a; fill-opacity: 0.2; stroke: #8a8a8a; stroke-opacity: 0.2"/>
    </g>
   </g>
   <g id="line2d_1">
    <path d="M 315.330778 50.398831 
L 321.442497 49.832575 
L 326.196057 49.152899 
L 332.307777 48.016171 
L 338.419496 46.678877 
L 343.173056 45.425947 
L 347.926616 43.92899 
L 352.680175 42.191257 
L 370.336254 35.251941 
L 373.731654 33.599275 
L 377.127054 31.707856 
L 381.201533 29.146262 
L 388.671413 24.318676 
L 391.387733 22.817619 
L 394.104053 21.560797 
L 396.820372 20.586638 
L 399.536692 19.905856 
L 402.253012 19.481285 
L 406.327492 19.123353 
L 423.983571 17.973646 
L 434.16977 17.907296 
L 436.88609 18.110357 
L 438.92333 18.439823 
L 440.96057 18.94401 
L 443.676889 19.863165 
L 447.751369 21.564909 
L 455.900329 25.248092 
L 459.295728 27.033841 
L 462.691128 29.079939 
L 470.161008 33.745699 
L 473.556407 35.521583 
L 476.951807 37.012282 
L 482.384447 39.0739 
L 489.175246 41.711153 
L 494.607886 43.77998 
L 498.682366 45.110635 
L 502.756846 46.230897 
L 506.831325 47.137577 
L 512.263965 48.095028 
L 525.166484 50.108578 
L 529.920044 50.567723 
L 532.636364 50.740119 
L 532.636364 50.740119 
" clip-path="url(#p044a9c1ae5)" style="fill: none; stroke: #cf1313; stroke-width: 1.5; stroke-linecap: square"/>
   </g>
   <g id="line2d_2">
    <path d="M 116.36035 50.059345 
L 127.22563 48.381085 
L 132.658269 47.292851 
L 137.411829 46.101582 
L 140.807229 45.044491 
L 144.881709 43.52521 
L 148.956188 41.770601 
L 155.067908 38.845574 
L 175.440307 28.897439 
L 183.589266 25.261275 
L 192.417306 20.870047 
L 195.133625 19.942556 
L 197.849945 19.266638 
L 205.319825 17.799181 
L 210.073384 16.953559 
L 212.789704 16.711198 
L 214.826944 16.755733 
L 216.864184 17.041002 
L 218.901424 17.569008 
L 221.617744 18.577107 
L 237.915663 25.591935 
L 241.311062 27.427804 
L 253.534502 34.354753 
L 257.608981 36.250271 
L 277.3023 44.658761 
L 281.37678 46.106103 
L 284.77218 47.121106 
L 288.846659 48.085917 
L 294.958379 49.228013 
L 301.070099 50.158981 
L 303.107338 50.396447 
L 303.107338 50.396447 
" clip-path="url(#p044a9c1ae5)" style="fill: none; stroke: #116dc2; stroke-width: 1.5; stroke-linecap: square"/>
   </g>
   <g id="line2d_3">
    <path d="M 25.363636 49.941036 
L 26.042716 49.518586 
L 26.721796 48.956259 
L 27.400876 48.276162 
L 28.079956 47.527624 
L 28.759036 46.680327 
L 29.438116 45.63258 
L 30.117196 44.322258 
L 30.796276 42.724162 
L 31.475356 40.806763 
L 32.154436 38.595462 
L 32.833516 36.197295 
L 33.512596 33.713795 
L 34.191676 31.196015 
L 34.870756 28.729716 
L 35.549836 26.428262 
L 36.228916 24.186278 
L 36.907996 21.668766 
L 37.587076 18.733655 
L 38.266156 15.64159 
L 38.945235 12.790842 
L 39.624315 10.410218 
L 40.303395 8.514439 
L 40.982475 7.004152 
L 41.661555 5.692974 
L 42.340635 4.391026 
L 43.019715 3.178932 
L 43.698795 2.470909 
L 44.377875 2.655222 
L 45.056955 3.772901 
L 45.736035 5.558498 
L 46.415115 7.660387 
L 47.094195 9.801067 
L 47.773275 11.89946 
L 48.452355 14.111051 
L 49.131435 16.664612 
L 49.810515 19.632008 
L 50.489595 22.816418 
L 51.168675 25.889363 
L 51.847755 28.708962 
L 52.526835 31.37328 
L 53.205915 33.899555 
L 53.884995 36.126317 
L 54.564074 38.023505 
L 55.243154 39.789127 
L 55.922234 41.596945 
L 56.601314 43.432678 
L 57.280394 45.117817 
L 57.959474 46.464209 
L 58.638554 47.469107 
L 59.317634 48.302679 
L 59.996714 49.087025 
L 60.675794 49.772047 
L 61.354874 50.245353 
L 62.033954 50.502549 
" clip-path="url(#p044a9c1ae5)" style="fill: none; stroke: #8a8a8a; stroke-width: 1.5; stroke-linecap: square"/>
   </g>
  </g>
 </g>
 <defs>
  <clipPath id="p044a9c1ae5">
   <rect x="0" y="-0" width="558" height="54.36"/>
  </clipPath>
 </defs>
</svg>
