<?xml version="1.0" encoding="utf-8" standalone="no"?>
<!DOCTYPE svg PUBLIC "-//W3C//DTD SVG 1.1//EN"
  "http://www.w3.org/Graphics/SVG/1.1/DTD/svg11.dtd">
<svg xmlns:xlink="http://www.w3.org/1999/xlink" width="558pt" height="54.36pt" viewBox="0 0 558 54.36" xmlns="http://www.w3.org/2000/svg" version="1.1">
 <metadata>
  <rdf:RDF xmlns:dc="http://purl.org/dc/elements/1.1/" xmlns:cc="http://creativecommons.org/ns#" xmlns:rdf="http://www.w3.org/1999/02/22-rdf-syntax-ns#">
   <cc:Work>
    <dc:type rdf:resource="http://purl.org/dc/dcmitype/StillImage"/>
    <dc:date>2024-09-15T09:30:34.622888</dc:date>
    <dc:format>image/svg+xml</dc:format>
    <dc:creator>
     <cc:Agent>
      <dc:title>Matplotlib v3.5.2, https://matplotlib.org/</dc:title>
     </cc:Agent>
    </dc:creator>
   </cc:Work>
  </rdf:RDF>
 </metadata>
 <defs>
  <style type="text/css">*{stroke-linejoin: round; stroke-linecap: butt}</style>
 </defs>
 <g id="figure_1">
  <g id="patch_1">
   <path d="M 0 54.36 
L 558 54.36 
L 558 0 
L 0 0 
L 0 54.36 
z
" style="fill: none; opacity: 0"/>
  </g>
  <g id="axes_1">
   <g id="PolyCollection_1">
    <defs>
     <path id="m87f965a9de" d="M 388.433294 -2.470909 
L 388.433294 -3.948718 
L 389.165289 -4.013227 
L 389.897285 -4.084928 
L 390.62928 -4.165483 
L 391.361275 -4.256467 
L 392.09327 -4.359335 
L 392.825266 -4.475361 
L 393.557261 -4.605567 
L 394.289256 -4.750623 
L 395.021251 -4.910737 
L 395.753247 -5.085559 
L 396.485242 -5.274129 
L 397.217237 -5.474896 
L 397.949233 -5.685829 
L 398.681228 -5.904613 
L 399.413223 -6.128926 
L 400.145218 -6.356734 
L 400.877214 -6.586568 
L 401.609209 -6.817732 
L 402.341204 -7.05038 
L 403.0732 -7.285478 
L 403.805195 -7.524631 
L 404.53719 -7.769835 
L 405.269185 -8.023208 
L 406.001181 -8.28676 
L 406.733176 -8.562248 
L 407.465171 -8.851158 
L 408.197166 -9.154789 
L 408.929162 -9.474416 
L 409.661157 -9.811462 
L 410.393152 -10.167616 
L 411.125148 -10.544828 
L 411.857143 -10.945158 
L 412.589138 -11.370481 
L 413.321133 -11.822087 
L 414.053129 -12.300272 
L 414.785124 -12.803994 
L 415.517119 -13.330711 
L 416.249115 -13.876448 
L 416.98111 -14.436115 
L 417.713105 -15.004052 
L 418.4451 -15.574699 
L 419.177096 -16.143298 
L 419.909091 -16.706466 
L 420.641086 -17.262572 
L 421.373081 -17.811802 
L 422.105077 -18.355938 
L 422.837072 -18.897882 
L 423.569067 -19.441024 
L 424.301063 -19.988596 
L 425.033058 -20.543138 
L 425.765053 -21.10619 
L 426.497048 -21.67826 
L 427.229044 -22.259058 
L 427.961039 -22.847937 
L 428.693034 -23.4444 
L 429.42503 -24.04855 
L 430.157025 -24.66135 
L 430.88902 -25.284616 
L 431.621015 -25.920719 
L 432.353011 -26.572046 
L 433.085006 -27.240347 
L 433.817001 -27.92608 
L 434.548996 -28.627925 
L 435.280992 -29.342569 
L 436.012987 -30.064808 
L 436.744982 -30.787979 
L 437.476978 -31.504622 
L 438.208973 -32.207265 
L 438.940968 -32.889185 
L 439.672963 -33.545014 
L 440.404959 -34.17109 
L 441.136954 -34.765522 
L 441.868949 -35.327972 
L 442.600945 -35.85924 
L 443.33294 -36.360754 
L 444.064935 -36.834082 
L 444.79693 -37.28057 
L 445.528926 -37.701187 
L 446.260921 -38.096585 
L 446.992916 -38.467349 
L 447.724911 -38.814351 
L 448.456907 -39.139098 
L 449.188902 -39.443961 
L 449.920897 -39.732184 
L 450.652893 -40.007631 
L 451.384888 -40.274275 
L 452.116883 -40.535513 
L 452.848878 -40.793427 
L 453.580874 -41.048142 
L 454.312869 -41.29744 
L 455.044864 -41.536717 
L 455.77686 -41.759346 
L 456.508855 -41.957396 
L 457.24085 -42.12262 
L 457.972845 -42.247544 
L 458.704841 -42.326489 
L 459.436836 -42.356359 
L 460.168831 -42.337071 
L 460.900826 -42.271566 
L 461.632822 -42.165404 
L 462.364817 -42.026022 
L 463.096812 -41.86175 
L 463.828808 -41.68074 
L 464.560803 -41.489947 
L 465.292798 -41.294278 
L 466.024793 -41.096024 
L 466.756789 -40.894629 
L 467.488784 -40.686814 
L 468.220779 -40.467053 
L 468.952774 -40.22833 
L 469.68477 -39.963088 
L 470.416765 -39.664262 
L 471.14876 -39.326249 
L 471.880756 -38.945695 
L 472.612751 -38.52199 
L 473.344746 -38.057422 
L 474.076741 -37.556956 
L 474.808737 -37.027708 
L 475.540732 -36.478192 
L 476.272727 -35.917453 
L 477.004723 -35.354207 
L 477.736718 -34.796095 
L 478.468713 -34.249103 
L 479.200708 -33.717202 
L 479.932704 -33.202188 
L 480.664699 -32.703726 
L 481.396694 -32.219554 
L 482.128689 -31.745817 
L 482.860685 -31.277502 
L 483.59268 -30.808942 
L 484.324675 -30.334339 
L 485.056671 -29.848264 
L 485.788666 -29.346088 
L 486.520661 -28.824291 
L 487.252656 -28.280619 
L 487.984652 -27.714086 
L 488.716647 -27.124829 
L 489.448642 -26.513876 
L 490.180638 -25.882882 
L 490.912633 -25.233906 
L 491.644628 -24.569272 
L 492.376623 -23.891557 
L 493.108619 -23.203676 
L 493.840614 -22.50905 
L 494.572609 -21.811763 
L 495.304604 -21.116669 
L 496.0366 -20.429366 
L 496.768595 -19.756005 
L 497.50059 -19.10293 
L 498.232586 -18.476193 
L 498.964581 -17.880989 
L 499.696576 -17.321113 
L 500.428571 -16.798515 
L 501.160567 -16.313034 
L 501.892562 -15.862365 
L 502.624557 -15.442252 
L 503.356553 -15.046912 
L 504.088548 -14.669603 
L 504.820543 -14.303275 
L 505.552538 -13.941207 
L 506.284534 -13.577556 
L 507.016529 -13.207761 
L 507.748524 -12.828759 
L 508.480519 -12.439035 
L 509.212515 -12.038517 
L 509.94451 -11.628359 
L 510.676505 -11.210674 
L 511.408501 -10.788253 
L 512.140496 -10.364311 
L 512.872491 -9.942271 
L 513.604486 -9.525607 
L 514.336482 -9.117721 
L 515.068477 -8.721845 
L 515.800472 -8.34096 
L 516.532468 -7.977714 
L 517.264463 -7.634336 
L 517.996458 -7.312562 
L 518.728453 -7.013572 
L 519.460449 -6.737955 
L 520.192444 -6.485724 
L 520.924439 -6.256354 
L 521.656434 -6.04887 
L 522.38843 -5.861942 
L 523.120425 -5.693986 
L 523.85242 -5.543242 
L 524.584416 -5.407824 
L 525.316411 -5.28574 
L 526.048406 -5.174887 
L 526.780401 -5.073053 
L 527.512397 -4.977928 
L 528.244392 -4.887161 
L 528.976387 -4.798453 
L 529.708383 -4.709692 
L 530.440378 -4.619103 
L 531.172373 -4.525388 
L 531.904368 -4.42783 
L 532.636364 -4.326333 
L 532.636364 -2.470909 
L 532.636364 -2.470909 
L 531.904368 -2.470909 
L 531.172373 -2.470909 
L 530.440378 -2.470909 
L 529.708383 -2.470909 
L 528.976387 -2.470909 
L 528.244392 -2.470909 
L 527.512397 -2.470909 
L 526.780401 -2.470909 
L 526.048406 -2.470909 
L 525.316411 -2.470909 
L 524.584416 -2.470909 
L 523.85242 -2.470909 
L 523.120425 -2.470909 
L 522.38843 -2.470909 
L 521.656434 -2.470909 
L 520.924439 -2.470909 
L 520.192444 -2.470909 
L 519.460449 -2.470909 
L 518.728453 -2.470909 
L 517.996458 -2.470909 
L 517.264463 -2.470909 
L 516.532468 -2.470909 
L 515.800472 -2.470909 
L 515.068477 -2.470909 
L 514.336482 -2.470909 
L 513.604486 -2.470909 
L 512.872491 -2.470909 
L 512.140496 -2.470909 
L 511.408501 -2.470909 
L 510.676505 -2.470909 
L 509.94451 -2.470909 
L 509.212515 -2.470909 
L 508.480519 -2.470909 
L 507.748524 -2.470909 
L 507.016529 -2.470909 
L 506.284534 -2.470909 
L 505.552538 -2.470909 
L 504.820543 -2.470909 
L 504.088548 -2.470909 
L 503.356553 -2.470909 
L 502.624557 -2.470909 
L 501.892562 -2.470909 
L 501.160567 -2.470909 
L 500.428571 -2.470909 
L 499.696576 -2.470909 
L 498.964581 -2.470909 
L 498.232586 -2.470909 
L 497.50059 -2.470909 
L 496.768595 -2.470909 
L 496.0366 -2.470909 
L 495.304604 -2.470909 
L 494.572609 -2.470909 
L 493.840614 -2.470909 
L 493.108619 -2.470909 
L 492.376623 -2.470909 
L 491.644628 -2.470909 
L 490.912633 -2.470909 
L 490.180638 -2.470909 
L 489.448642 -2.470909 
L 488.716647 -2.470909 
L 487.984652 -2.470909 
L 487.252656 -2.470909 
L 486.520661 -2.470909 
L 485.788666 -2.470909 
L 485.056671 -2.470909 
L 484.324675 -2.470909 
L 483.59268 -2.470909 
L 482.860685 -2.470909 
L 482.128689 -2.470909 
L 481.396694 -2.470909 
L 480.664699 -2.470909 
L 479.932704 -2.470909 
L 479.200708 -2.470909 
L 478.468713 -2.470909 
L 477.736718 -2.470909 
L 477.004723 -2.470909 
L 476.272727 -2.470909 
L 475.540732 -2.470909 
L 474.808737 -2.470909 
L 474.076741 -2.470909 
L 473.344746 -2.470909 
L 472.612751 -2.470909 
L 471.880756 -2.470909 
L 471.14876 -2.470909 
L 470.416765 -2.470909 
L 469.68477 -2.470909 
L 468.952774 -2.470909 
L 468.220779 -2.470909 
L 467.488784 -2.470909 
L 466.756789 -2.470909 
L 466.024793 -2.470909 
L 465.292798 -2.470909 
L 464.560803 -2.470909 
L 463.828808 -2.470909 
L 463.096812 -2.470909 
L 462.364817 -2.470909 
L 461.632822 -2.470909 
L 460.900826 -2.470909 
L 460.168831 -2.470909 
L 459.436836 -2.470909 
L 458.704841 -2.470909 
L 457.972845 -2.470909 
L 457.24085 -2.470909 
L 456.508855 -2.470909 
L 455.77686 -2.470909 
L 455.044864 -2.470909 
L 454.312869 -2.470909 
L 453.580874 -2.470909 
L 452.848878 -2.470909 
L 452.116883 -2.470909 
L 451.384888 -2.470909 
L 450.652893 -2.470909 
L 449.920897 -2.470909 
L 449.188902 -2.470909 
L 448.456907 -2.470909 
L 447.724911 -2.470909 
L 446.992916 -2.470909 
L 446.260921 -2.470909 
L 445.528926 -2.470909 
L 444.79693 -2.470909 
L 444.064935 -2.470909 
L 443.33294 -2.470909 
L 442.600945 -2.470909 
L 441.868949 -2.470909 
L 441.136954 -2.470909 
L 440.404959 -2.470909 
L 439.672963 -2.470909 
L 438.940968 -2.470909 
L 438.208973 -2.470909 
L 437.476978 -2.470909 
L 436.744982 -2.470909 
L 436.012987 -2.470909 
L 435.280992 -2.470909 
L 434.548996 -2.470909 
L 433.817001 -2.470909 
L 433.085006 -2.470909 
L 432.353011 -2.470909 
L 431.621015 -2.470909 
L 430.88902 -2.470909 
L 430.157025 -2.470909 
L 429.42503 -2.470909 
L 428.693034 -2.470909 
L 427.961039 -2.470909 
L 427.229044 -2.470909 
L 426.497048 -2.470909 
L 425.765053 -2.470909 
L 425.033058 -2.470909 
L 424.301063 -2.470909 
L 423.569067 -2.470909 
L 422.837072 -2.470909 
L 422.105077 -2.470909 
L 421.373081 -2.470909 
L 420.641086 -2.470909 
L 419.909091 -2.470909 
L 419.177096 -2.470909 
L 418.4451 -2.470909 
L 417.713105 -2.470909 
L 416.98111 -2.470909 
L 416.249115 -2.470909 
L 415.517119 -2.470909 
L 414.785124 -2.470909 
L 414.053129 -2.470909 
L 413.321133 -2.470909 
L 412.589138 -2.470909 
L 411.857143 -2.470909 
L 411.125148 -2.470909 
L 410.393152 -2.470909 
L 409.661157 -2.470909 
L 408.929162 -2.470909 
L 408.197166 -2.470909 
L 407.465171 -2.470909 
L 406.733176 -2.470909 
L 406.001181 -2.470909 
L 405.269185 -2.470909 
L 404.53719 -2.470909 
L 403.805195 -2.470909 
L 403.0732 -2.470909 
L 402.341204 -2.470909 
L 401.609209 -2.470909 
L 400.877214 -2.470909 
L 400.145218 -2.470909 
L 399.413223 -2.470909 
L 398.681228 -2.470909 
L 397.949233 -2.470909 
L 397.217237 -2.470909 
L 396.485242 -2.470909 
L 395.753247 -2.470909 
L 395.021251 -2.470909 
L 394.289256 -2.470909 
L 393.557261 -2.470909 
L 392.825266 -2.470909 
L 392.09327 -2.470909 
L 391.361275 -2.470909 
L 390.62928 -2.470909 
L 389.897285 -2.470909 
L 389.165289 -2.470909 
L 388.433294 -2.470909 
z
" style="stroke: #cf1313; stroke-opacity: 0.2"/>
    </defs>
    <g clip-path="url(#p24371fe3fd)">
     <use xlink:href="#m87f965a9de" x="0" y="54.36" style="fill: #cf1313; fill-opacity: 0.2; stroke: #cf1313; stroke-opacity: 0.2"/>
    </g>
   </g>
   <g id="PolyCollection_2">
    <defs>
     <path id="m2707f2c98f" d="M 144.678867 -2.470909 
L 144.678867 -4.092219 
L 145.410862 -4.170699 
L 146.142857 -4.248575 
L 146.874852 -4.326051 
L 147.606848 -4.403662 
L 148.338843 -4.482277 
L 149.070838 -4.563071 
L 149.802834 -4.647466 
L 150.534829 -4.737046 
L 151.266824 -4.833463 
L 151.998819 -4.938319 
L 152.730815 -5.053056 
L 153.46281 -5.178851 
L 154.194805 -5.316529 
L 154.9268 -5.466503 
L 155.658796 -5.628736 
L 156.390791 -5.802743 
L 157.122786 -5.987618 
L 157.854782 -6.182084 
L 158.586777 -6.384573 
L 159.318772 -6.593316 
L 160.050767 -6.806446 
L 160.782763 -7.02211 
L 161.514758 -7.238575 
L 162.246753 -7.454338 
L 162.978749 -7.668216 
L 163.710744 -7.87943 
L 164.442739 -8.087662 
L 165.174734 -8.293092 
L 165.90673 -8.496399 
L 166.638725 -8.698739 
L 167.37072 -8.901688 
L 168.102715 -9.107158 
L 168.834711 -9.317289 
L 169.566706 -9.534333 
L 170.298701 -9.760527 
L 171.030697 -9.997964 
L 171.762692 -10.24849 
L 172.494687 -10.513606 
L 173.226682 -10.794401 
L 173.958678 -11.091509 
L 174.690673 -11.405103 
L 175.422668 -11.734896 
L 176.154664 -12.080191 
L 176.886659 -12.439927 
L 177.618654 -12.812753 
L 178.350649 -13.197113 
L 179.082645 -13.591328 
L 179.81464 -13.993691 
L 180.546635 -14.402559 
L 181.27863 -14.816446 
L 182.010626 -15.23411 
L 182.742621 -15.654642 
L 183.474616 -16.077538 
L 184.206612 -16.502764 
L 184.938607 -16.930794 
L 185.670602 -17.362625 
L 186.402597 -17.799748 
L 187.134593 -18.244081 
L 187.866588 -18.69786 
L 188.598583 -19.163477 
L 189.330579 -19.643285 
L 190.062574 -20.139383 
L 190.794569 -20.653382 
L 191.526564 -21.186186 
L 192.25856 -21.737802 
L 192.990555 -22.307203 
L 193.72255 -22.892244 
L 194.454545 -23.489665 
L 195.186541 -24.095168 
L 195.918536 -24.703568 
L 196.650531 -25.30902 
L 197.382527 -25.905296 
L 198.114522 -26.486101 
L 198.846517 -27.045406 
L 199.578512 -27.57778 
L 200.310508 -28.078697 
L 201.042503 -28.544798 
L 201.774498 -28.974096 
L 202.506494 -29.366112 
L 203.238489 -29.72193 
L 203.970484 -30.044167 
L 204.702479 -30.33687 
L 205.434475 -30.605327 
L 206.16647 -30.855816 
L 206.898465 -31.0953 
L 207.63046 -31.331075 
L 208.362456 -31.570399 
L 209.094451 -31.820111 
L 209.826446 -32.086265 
L 210.558442 -32.373791 
L 211.290437 -32.686207 
L 212.022432 -33.025408 
L 212.754427 -33.391536 
L 213.486423 -33.782953 
L 214.218418 -34.196331 
L 214.950413 -34.626856 
L 215.682409 -35.06854 
L 216.414404 -35.514625 
L 217.146399 -35.958055 
L 217.878394 -36.391968 
L 218.61039 -36.810177 
L 219.342385 -37.207586 
L 220.07438 -37.580494 
L 220.806375 -37.926769 
L 221.538371 -38.245854 
L 222.270366 -38.538617 
L 223.002361 -38.807061 
L 223.734357 -39.05392 
L 224.466352 -39.282207 
L 225.198347 -39.494754 
L 225.930342 -39.693812 
L 226.662338 -39.880745 
L 227.394333 -40.055861 
L 228.126328 -40.218394 
L 228.858323 -40.366622 
L 229.590319 -40.4981 
L 230.322314 -40.609983 
L 231.054309 -40.699374 
L 231.786305 -40.763659 
L 232.5183 -40.800797 
L 233.250295 -40.809517 
L 233.98229 -40.789411 
L 234.714286 -40.740925 
L 235.446281 -40.665251 
L 236.178276 -40.56414 
L 236.910272 -40.439681 
L 237.642267 -40.294056 
L 238.374262 -40.129324 
L 239.106257 -39.947251 
L 239.838253 -39.749207 
L 240.570248 -39.536143 
L 241.302243 -39.308632 
L 242.034238 -39.066982 
L 242.766234 -38.811379 
L 243.498229 -38.542042 
L 244.230224 -38.259369 
L 244.96222 -37.96404 
L 245.694215 -37.657071 
L 246.42621 -37.339807 
L 247.158205 -37.013861 
L 247.890201 -36.680999 
L 248.622196 -36.343003 
L 249.354191 -36.001524 
L 250.086187 -35.657936 
L 250.818182 -35.31322 
L 251.550177 -34.967884 
L 252.282172 -34.621917 
L 253.014168 -34.274805 
L 253.746163 -33.925576 
L 254.478158 -33.5729 
L 255.210153 -33.215212 
L 255.942149 -32.850874 
L 256.674144 -32.47834 
L 257.406139 -32.096323 
L 258.138135 -31.703941 
L 258.87013 -31.300828 
L 259.602125 -30.887189 
L 260.33412 -30.463796 
L 261.066116 -30.03191 
L 261.798111 -29.593154 
L 262.530106 -29.149334 
L 263.262102 -28.702236 
L 263.994097 -28.253436 
L 264.726092 -27.804127 
L 265.458087 -27.355009 
L 266.190083 -26.906242 
L 266.922078 -26.457465 
L 267.654073 -26.007888 
L 268.386068 -25.556428 
L 269.118064 -25.10188 
L 269.850059 -24.643089 
L 270.582054 -24.179111 
L 271.31405 -23.709334 
L 272.046045 -23.233555 
L 272.77804 -22.752009 
L 273.510035 -22.265342 
L 274.242031 -21.774555 
L 274.974026 -21.280913 
L 275.706021 -20.785852 
L 276.438017 -20.290877 
L 277.170012 -19.797487 
L 277.902007 -19.307107 
L 278.634002 -18.821047 
L 279.365998 -18.340474 
L 280.097993 -17.866407 
L 280.829988 -17.399703 
L 281.561983 -16.94106 
L 282.293979 -16.491007 
L 283.025974 -16.049901 
L 283.757969 -15.617915 
L 284.489965 -15.195045 
L 285.22196 -14.78111 
L 285.953955 -14.375778 
L 286.68595 -13.978606 
L 287.417946 -13.589083 
L 288.149941 -13.206693 
L 288.881936 -12.830974 
L 289.613932 -12.461573 
L 290.345927 -12.09829 
L 291.077922 -11.741098 
L 291.809917 -11.390156 
L 292.541913 -11.045788 
L 293.273908 -10.708459 
L 294.005903 -10.378737 
L 294.737898 -10.057241 
L 295.469894 -9.744604 
L 296.201889 -9.441428 
L 296.933884 -9.148246 
L 297.66588 -8.86549 
L 298.397875 -8.59347 
L 299.12987 -8.332346 
L 299.861865 -8.082117 
L 300.593861 -7.842605 
L 301.325856 -7.613454 
L 302.057851 -7.394137 
L 302.789847 -7.18397 
L 303.521842 -6.982145 
L 304.253837 -6.787778 
L 304.985832 -6.599959 
L 305.717828 -6.417822 
L 306.449823 -6.240606 
L 307.181818 -6.067717 
L 307.913813 -5.898771 
L 308.645809 -5.733627 
L 309.377804 -5.572384 
L 310.109799 -5.415367 
L 310.841795 -5.263076 
L 311.57379 -5.116124 
L 312.305785 -4.975158 
L 313.03778 -4.840776 
L 313.769776 -4.71345 
L 314.501771 -4.59346 
L 315.233766 -4.480856 
L 315.965762 -4.375433 
L 316.697757 -4.276747 
L 317.429752 -4.184149 
L 317.429752 -2.470909 
L 317.429752 -2.470909 
L 316.697757 -2.470909 
L 315.965762 -2.470909 
L 315.233766 -2.470909 
L 314.501771 -2.470909 
L 313.769776 -2.470909 
L 313.03778 -2.470909 
L 312.305785 -2.470909 
L 311.57379 -2.470909 
L 310.841795 -2.470909 
L 310.109799 -2.470909 
L 309.377804 -2.470909 
L 308.645809 -2.470909 
L 307.913813 -2.470909 
L 307.181818 -2.470909 
L 306.449823 -2.470909 
L 305.717828 -2.470909 
L 304.985832 -2.470909 
L 304.253837 -2.470909 
L 303.521842 -2.470909 
L 302.789847 -2.470909 
L 302.057851 -2.470909 
L 301.325856 -2.470909 
L 300.593861 -2.470909 
L 299.861865 -2.470909 
L 299.12987 -2.470909 
L 298.397875 -2.470909 
L 297.66588 -2.470909 
L 296.933884 -2.470909 
L 296.201889 -2.470909 
L 295.469894 -2.470909 
L 294.737898 -2.470909 
L 294.005903 -2.470909 
L 293.273908 -2.470909 
L 292.541913 -2.470909 
L 291.809917 -2.470909 
L 291.077922 -2.470909 
L 290.345927 -2.470909 
L 289.613932 -2.470909 
L 288.881936 -2.470909 
L 288.149941 -2.470909 
L 287.417946 -2.470909 
L 286.68595 -2.470909 
L 285.953955 -2.470909 
L 285.22196 -2.470909 
L 284.489965 -2.470909 
L 283.757969 -2.470909 
L 283.025974 -2.470909 
L 282.293979 -2.470909 
L 281.561983 -2.470909 
L 280.829988 -2.470909 
L 280.097993 -2.470909 
L 279.365998 -2.470909 
L 278.634002 -2.470909 
L 277.902007 -2.470909 
L 277.170012 -2.470909 
L 276.438017 -2.470909 
L 275.706021 -2.470909 
L 274.974026 -2.470909 
L 274.242031 -2.470909 
L 273.510035 -2.470909 
L 272.77804 -2.470909 
L 272.046045 -2.470909 
L 271.31405 -2.470909 
L 270.582054 -2.470909 
L 269.850059 -2.470909 
L 269.118064 -2.470909 
L 268.386068 -2.470909 
L 267.654073 -2.470909 
L 266.922078 -2.470909 
L 266.190083 -2.470909 
L 265.458087 -2.470909 
L 264.726092 -2.470909 
L 263.994097 -2.470909 
L 263.262102 -2.470909 
L 262.530106 -2.470909 
L 261.798111 -2.470909 
L 261.066116 -2.470909 
L 260.33412 -2.470909 
L 259.602125 -2.470909 
L 258.87013 -2.470909 
L 258.138135 -2.470909 
L 257.406139 -2.470909 
L 256.674144 -2.470909 
L 255.942149 -2.470909 
L 255.210153 -2.470909 
L 254.478158 -2.470909 
L 253.746163 -2.470909 
L 253.014168 -2.470909 
L 252.282172 -2.470909 
L 251.550177 -2.470909 
L 250.818182 -2.470909 
L 250.086187 -2.470909 
L 249.354191 -2.470909 
L 248.622196 -2.470909 
L 247.890201 -2.470909 
L 247.158205 -2.470909 
L 246.42621 -2.470909 
L 245.694215 -2.470909 
L 244.96222 -2.470909 
L 244.230224 -2.470909 
L 243.498229 -2.470909 
L 242.766234 -2.470909 
L 242.034238 -2.470909 
L 241.302243 -2.470909 
L 240.570248 -2.470909 
L 239.838253 -2.470909 
L 239.106257 -2.470909 
L 238.374262 -2.470909 
L 237.642267 -2.470909 
L 236.910272 -2.470909 
L 236.178276 -2.470909 
L 235.446281 -2.470909 
L 234.714286 -2.470909 
L 233.98229 -2.470909 
L 233.250295 -2.470909 
L 232.5183 -2.470909 
L 231.786305 -2.470909 
L 231.054309 -2.470909 
L 230.322314 -2.470909 
L 229.590319 -2.470909 
L 228.858323 -2.470909 
L 228.126328 -2.470909 
L 227.394333 -2.470909 
L 226.662338 -2.470909 
L 225.930342 -2.470909 
L 225.198347 -2.470909 
L 224.466352 -2.470909 
L 223.734357 -2.470909 
L 223.002361 -2.470909 
L 222.270366 -2.470909 
L 221.538371 -2.470909 
L 220.806375 -2.470909 
L 220.07438 -2.470909 
L 219.342385 -2.470909 
L 218.61039 -2.470909 
L 217.878394 -2.470909 
L 217.146399 -2.470909 
L 216.414404 -2.470909 
L 215.682409 -2.470909 
L 214.950413 -2.470909 
L 214.218418 -2.470909 
L 213.486423 -2.470909 
L 212.754427 -2.470909 
L 212.022432 -2.470909 
L 211.290437 -2.470909 
L 210.558442 -2.470909 
L 209.826446 -2.470909 
L 209.094451 -2.470909 
L 208.362456 -2.470909 
L 207.63046 -2.470909 
L 206.898465 -2.470909 
L 206.16647 -2.470909 
L 205.434475 -2.470909 
L 204.702479 -2.470909 
L 203.970484 -2.470909 
L 203.238489 -2.470909 
L 202.506494 -2.470909 
L 201.774498 -2.470909 
L 201.042503 -2.470909 
L 200.310508 -2.470909 
L 199.578512 -2.470909 
L 198.846517 -2.470909 
L 198.114522 -2.470909 
L 197.382527 -2.470909 
L 196.650531 -2.470909 
L 195.918536 -2.470909 
L 195.186541 -2.470909 
L 194.454545 -2.470909 
L 193.72255 -2.470909 
L 192.990555 -2.470909 
L 192.25856 -2.470909 
L 191.526564 -2.470909 
L 190.794569 -2.470909 
L 190.062574 -2.470909 
L 189.330579 -2.470909 
L 188.598583 -2.470909 
L 187.866588 -2.470909 
L 187.134593 -2.470909 
L 186.402597 -2.470909 
L 185.670602 -2.470909 
L 184.938607 -2.470909 
L 184.206612 -2.470909 
L 183.474616 -2.470909 
L 182.742621 -2.470909 
L 182.010626 -2.470909 
L 181.27863 -2.470909 
L 180.546635 -2.470909 
L 179.81464 -2.470909 
L 179.082645 -2.470909 
L 178.350649 -2.470909 
L 177.618654 -2.470909 
L 176.886659 -2.470909 
L 176.154664 -2.470909 
L 175.422668 -2.470909 
L 174.690673 -2.470909 
L 173.958678 -2.470909 
L 173.226682 -2.470909 
L 172.494687 -2.470909 
L 171.762692 -2.470909 
L 171.030697 -2.470909 
L 170.298701 -2.470909 
L 169.566706 -2.470909 
L 168.834711 -2.470909 
L 168.102715 -2.470909 
L 167.37072 -2.470909 
L 166.638725 -2.470909 
L 165.90673 -2.470909 
L 165.174734 -2.470909 
L 164.442739 -2.470909 
L 163.710744 -2.470909 
L 162.978749 -2.470909 
L 162.246753 -2.470909 
L 161.514758 -2.470909 
L 160.782763 -2.470909 
L 160.050767 -2.470909 
L 159.318772 -2.470909 
L 158.586777 -2.470909 
L 157.854782 -2.470909 
L 157.122786 -2.470909 
L 156.390791 -2.470909 
L 155.658796 -2.470909 
L 154.9268 -2.470909 
L 154.194805 -2.470909 
L 153.46281 -2.470909 
L 152.730815 -2.470909 
L 151.998819 -2.470909 
L 151.266824 -2.470909 
L 150.534829 -2.470909 
L 149.802834 -2.470909 
L 149.070838 -2.470909 
L 148.338843 -2.470909 
L 147.606848 -2.470909 
L 146.874852 -2.470909 
L 146.142857 -2.470909 
L 145.410862 -2.470909 
L 144.678867 -2.470909 
z
" style="stroke: #116dc2; stroke-opacity: 0.2"/>
    </defs>
    <g clip-path="url(#p24371fe3fd)">
     <use xlink:href="#m2707f2c98f" x="0" y="54.36" style="fill: #116dc2; fill-opacity: 0.2; stroke: #116dc2; stroke-opacity: 0.2"/>
    </g>
   </g>
   <g id="PolyCollection_3">
    <defs>
     <path id="ma3db70e720" d="M 25.363636 -2.470909 
L 25.363636 -4.296636 
L 26.095632 -4.630728 
L 26.827627 -4.981666 
L 27.559622 -5.352322 
L 28.291617 -5.791138 
L 29.023613 -6.359535 
L 29.755608 -7.086224 
L 30.487603 -7.961927 
L 31.219599 -8.967288 
L 31.951594 -10.094541 
L 32.683589 -11.345222 
L 33.415584 -12.718508 
L 34.14758 -14.216223 
L 34.879575 -15.861102 
L 35.61157 -17.690072 
L 36.343566 -19.714566 
L 37.075561 -21.891138 
L 37.807556 -24.126826 
L 38.539551 -26.308795 
L 39.271547 -28.365055 
L 40.003542 -30.344877 
L 40.735537 -32.423015 
L 41.467532 -34.756026 
L 42.199528 -37.309566 
L 42.931523 -39.859445 
L 43.663518 -42.174641 
L 44.395514 -44.183313 
L 45.127509 -45.971448 
L 45.859504 -47.648726 
L 46.591499 -49.216022 
L 47.323495 -50.543019 
L 48.05549 -51.462692 
L 48.787485 -51.889091 
L 49.519481 -51.85555 
L 50.251476 -51.458345 
L 50.983471 -50.794133 
L 51.715466 -49.974585 
L 52.447462 -49.154908 
L 53.179457 -48.452506 
L 53.911452 -47.815562 
L 54.643447 -47.036978 
L 55.375443 -45.938094 
L 56.107438 -44.516641 
L 56.839433 -42.887981 
L 57.571429 -41.092468 
L 58.303424 -39.007405 
L 59.035419 -36.486132 
L 59.767414 -33.568278 
L 60.49941 -30.522952 
L 61.231405 -27.694066 
L 61.9634 -25.304894 
L 62.695396 -23.356273 
L 63.427391 -21.656942 
L 64.159386 -19.9627 
L 64.891381 -18.137743 
L 65.623377 -16.222241 
L 66.355372 -14.36798 
L 67.087367 -12.718618 
L 67.819362 -11.333174 
L 68.551358 -10.183049 
L 69.283353 -9.194494 
L 70.015348 -8.3021 
L 70.747344 -7.485569 
L 71.479339 -6.765588 
L 72.211334 -6.166513 
L 72.943329 -5.688577 
L 73.675325 -5.310606 
L 74.40732 -5.000474 
L 75.139315 -4.716413 
L 75.139315 -2.470909 
L 75.139315 -2.470909 
L 74.40732 -2.470909 
L 73.675325 -2.470909 
L 72.943329 -2.470909 
L 72.211334 -2.470909 
L 71.479339 -2.470909 
L 70.747344 -2.470909 
L 70.015348 -2.470909 
L 69.283353 -2.470909 
L 68.551358 -2.470909 
L 67.819362 -2.470909 
L 67.087367 -2.470909 
L 66.355372 -2.470909 
L 65.623377 -2.470909 
L 64.891381 -2.470909 
L 64.159386 -2.470909 
L 63.427391 -2.470909 
L 62.695396 -2.470909 
L 61.9634 -2.470909 
L 61.231405 -2.470909 
L 60.49941 -2.470909 
L 59.767414 -2.470909 
L 59.035419 -2.470909 
L 58.303424 -2.470909 
L 57.571429 -2.470909 
L 56.839433 -2.470909 
L 56.107438 -2.470909 
L 55.375443 -2.470909 
L 54.643447 -2.470909 
L 53.911452 -2.470909 
L 53.179457 -2.470909 
L 52.447462 -2.470909 
L 51.715466 -2.470909 
L 50.983471 -2.470909 
L 50.251476 -2.470909 
L 49.519481 -2.470909 
L 48.787485 -2.470909 
L 48.05549 -2.470909 
L 47.323495 -2.470909 
L 46.591499 -2.470909 
L 45.859504 -2.470909 
L 45.127509 -2.470909 
L 44.395514 -2.470909 
L 43.663518 -2.470909 
L 42.931523 -2.470909 
L 42.199528 -2.470909 
L 41.467532 -2.470909 
L 40.735537 -2.470909 
L 40.003542 -2.470909 
L 39.271547 -2.470909 
L 38.539551 -2.470909 
L 37.807556 -2.470909 
L 37.075561 -2.470909 
L 36.343566 -2.470909 
L 35.61157 -2.470909 
L 34.879575 -2.470909 
L 34.14758 -2.470909 
L 33.415584 -2.470909 
L 32.683589 -2.470909 
L 31.951594 -2.470909 
L 31.219599 -2.470909 
L 30.487603 -2.470909 
L 29.755608 -2.470909 
L 29.023613 -2.470909 
L 28.291617 -2.470909 
L 27.559622 -2.470909 
L 26.827627 -2.470909 
L 26.095632 -2.470909 
L 25.363636 -2.470909 
z
" style="stroke: #8a8a8a; stroke-opacity: 0.2"/>
    </defs>
    <g clip-path="url(#p24371fe3fd)">
     <use xlink:href="#ma3db70e720" x="0" y="54.36" style="fill: #8a8a8a; fill-opacity: 0.2; stroke: #8a8a8a; stroke-opacity: 0.2"/>
    </g>
   </g>
   <g id="line2d_1">
    <path d="M 388.433294 50.411282 
L 392.09327 50.000665 
L 395.021251 49.449263 
L 397.949233 48.674171 
L 404.53719 46.590165 
L 407.465171 45.508842 
L 410.393152 44.192384 
L 412.589138 42.989519 
L 414.785124 41.556006 
L 417.713105 39.355948 
L 423.569067 34.918976 
L 427.961039 31.512063 
L 431.621015 28.439281 
L 434.548996 25.732075 
L 439.672963 20.814986 
L 441.868949 19.032028 
L 444.064935 17.525918 
L 446.260921 16.263415 
L 448.456907 15.220902 
L 451.384888 14.085725 
L 455.77686 12.600654 
L 457.972845 12.112456 
L 459.436836 12.003641 
L 460.900826 12.088434 
L 463.096812 12.49825 
L 467.488784 13.673186 
L 469.68477 14.396912 
L 471.14876 15.033751 
L 472.612751 15.83801 
L 474.808737 17.332292 
L 481.396694 22.140446 
L 486.520661 25.535709 
L 489.448642 27.846124 
L 492.376623 30.468443 
L 498.232586 35.883807 
L 500.428571 37.561485 
L 502.624557 38.917748 
L 506.284534 40.782444 
L 509.94451 42.731641 
L 516.532468 46.382286 
L 518.728453 47.346428 
L 520.924439 48.103646 
L 523.120425 48.666014 
L 526.048406 49.185113 
L 532.636364 50.033667 
L 532.636364 50.033667 
" clip-path="url(#p24371fe3fd)" style="fill: none; stroke: #cf1313; stroke-width: 1.5; stroke-linecap: square"/>
   </g>
   <g id="line2d_2">
    <path d="M 144.678867 50.267781 
L 152.730815 49.306944 
L 155.658796 48.731264 
L 159.318772 47.766684 
L 172.494687 43.846394 
L 175.422668 42.625104 
L 178.350649 41.162887 
L 183.474616 38.282462 
L 188.598583 35.196523 
L 191.526564 33.173814 
L 194.454545 30.870335 
L 198.846517 27.314594 
L 201.042503 25.815202 
L 203.238489 24.63807 
L 205.434475 23.754673 
L 211.290437 21.673793 
L 213.486423 20.577047 
L 217.146399 18.401945 
L 220.07438 16.779506 
L 222.270366 15.821383 
L 225.198347 14.865246 
L 228.126328 14.141606 
L 231.054309 13.660626 
L 233.250295 13.550483 
L 235.446281 13.694749 
L 237.642267 14.065944 
L 240.570248 14.823857 
L 243.498229 15.817958 
L 247.158205 17.346139 
L 254.478158 20.7871 
L 258.138135 22.656059 
L 261.798111 24.766846 
L 271.31405 30.650666 
L 278.634002 35.538953 
L 283.025974 38.310099 
L 286.68595 40.381394 
L 291.077922 42.618902 
L 295.469894 44.615396 
L 299.12987 46.027654 
L 302.789847 47.17603 
L 307.181818 48.292283 
L 312.305785 49.384842 
L 316.697757 50.083253 
L 317.429752 50.175851 
L 317.429752 50.175851 
" clip-path="url(#p24371fe3fd)" style="fill: none; stroke: #116dc2; stroke-width: 1.5; stroke-linecap: square"/>
   </g>
   <g id="line2d_3">
    <path d="M 25.363636 50.063364 
L 26.095632 49.729272 
L 26.827627 49.378334 
L 27.559622 49.007678 
L 28.291617 48.568862 
L 29.023613 48.000465 
L 29.755608 47.273776 
L 30.487603 46.398073 
L 31.219599 45.392712 
L 31.951594 44.265459 
L 32.683589 43.014778 
L 33.415584 41.641492 
L 34.14758 40.143777 
L 34.879575 38.498898 
L 35.61157 36.669928 
L 36.343566 34.645434 
L 37.075561 32.468862 
L 37.807556 30.233174 
L 38.539551 28.051205 
L 39.271547 25.994945 
L 40.003542 24.015123 
L 40.735537 21.936985 
L 41.467532 19.603974 
L 42.199528 17.050434 
L 42.931523 14.500555 
L 43.663518 12.185359 
L 44.395514 10.176687 
L 45.127509 8.388552 
L 45.859504 6.711274 
L 46.591499 5.143978 
L 47.323495 3.816981 
L 48.05549 2.897308 
L 48.787485 2.470909 
L 49.519481 2.50445 
L 50.251476 2.901655 
L 50.983471 3.565867 
L 51.715466 4.385415 
L 52.447462 5.205092 
L 53.179457 5.907494 
L 53.911452 6.544438 
L 54.643447 7.323022 
L 55.375443 8.421906 
L 56.107438 9.843359 
L 56.839433 11.472019 
L 57.571429 13.267532 
L 58.303424 15.352595 
L 59.035419 17.873868 
L 59.767414 20.791722 
L 60.49941 23.837048 
L 61.231405 26.665934 
L 61.9634 29.055106 
L 62.695396 31.003727 
L 63.427391 32.703058 
L 64.159386 34.3973 
L 64.891381 36.222257 
L 65.623377 38.137759 
L 66.355372 39.99202 
L 67.087367 41.641382 
L 67.819362 43.026826 
L 68.551358 44.176951 
L 69.283353 45.165506 
L 70.015348 46.0579 
L 70.747344 46.874431 
L 71.479339 47.594412 
L 72.211334 48.193487 
L 72.943329 48.671423 
L 73.675325 49.049394 
L 74.40732 49.359526 
L 75.139315 49.643587 
" clip-path="url(#p24371fe3fd)" style="fill: none; stroke: #8a8a8a; stroke-width: 1.5; stroke-linecap: square"/>
   </g>
  </g>
 </g>
 <defs>
  <clipPath id="p24371fe3fd">
   <rect x="0" y="-0" width="558" height="54.36"/>
  </clipPath>
 </defs>
</svg>
