<?xml version="1.0" encoding="utf-8" standalone="no"?>
<!DOCTYPE svg PUBLIC "-//W3C//DTD SVG 1.1//EN"
  "http://www.w3.org/Graphics/SVG/1.1/DTD/svg11.dtd">
<svg xmlns:xlink="http://www.w3.org/1999/xlink" width="558pt" height="54.36pt" viewBox="0 0 558 54.36" xmlns="http://www.w3.org/2000/svg" version="1.1">
 <metadata>
  <rdf:RDF xmlns:dc="http://purl.org/dc/elements/1.1/" xmlns:cc="http://creativecommons.org/ns#" xmlns:rdf="http://www.w3.org/1999/02/22-rdf-syntax-ns#">
   <cc:Work>
    <dc:type rdf:resource="http://purl.org/dc/dcmitype/StillImage"/>
    <dc:date>2024-09-14T12:46:43.812289</dc:date>
    <dc:format>image/svg+xml</dc:format>
    <dc:creator>
     <cc:Agent>
      <dc:title>Matplotlib v3.5.2, https://matplotlib.org/</dc:title>
     </cc:Agent>
    </dc:creator>
   </cc:Work>
  </rdf:RDF>
 </metadata>
 <defs>
  <style type="text/css">*{stroke-linejoin: round; stroke-linecap: butt}</style>
 </defs>
 <g id="figure_1">
  <g id="patch_1">
   <path d="M 0 54.36 
L 558 54.36 
L 558 0 
L 0 0 
L 0 54.36 
z
" style="fill: none; opacity: 0"/>
  </g>
  <g id="axes_1">
   <g id="PolyCollection_1">
    <defs>
     <path id="m140aba05b8" d="M 387.910139 -2.470909 
L 387.910139 -4.124376 
L 388.641079 -4.256874 
L 389.37202 -4.396122 
L 390.10296 -4.540203 
L 390.833901 -4.687278 
L 391.564841 -4.835796 
L 392.295782 -4.984656 
L 393.026723 -5.133305 
L 393.757663 -5.281773 
L 394.488604 -5.430655 
L 395.219544 -5.581054 
L 395.950485 -5.734504 
L 396.681425 -5.892899 
L 397.412366 -6.058432 
L 398.143306 -6.233543 
L 398.874247 -6.420857 
L 399.605187 -6.623111 
L 400.336128 -6.843039 
L 401.067068 -7.083222 
L 401.798009 -7.345893 
L 402.528949 -7.632737 
L 403.25989 -7.944689 
L 403.99083 -8.281788 
L 404.721771 -8.643102 
L 405.452712 -9.026746 
L 406.183652 -9.430001 
L 406.914593 -9.849526 
L 407.645533 -10.281615 
L 408.376474 -10.722497 
L 409.107414 -11.168601 
L 409.838355 -11.616787 
L 410.569295 -12.064481 
L 411.300236 -12.509734 
L 412.031176 -12.95119 
L 412.762117 -13.387997 
L 413.493057 -13.819693 
L 414.223998 -14.246113 
L 414.954938 -14.667336 
L 415.685879 -15.083725 
L 416.416819 -15.496019 
L 417.14776 -15.905483 
L 417.878701 -16.314043 
L 418.609641 -16.724357 
L 419.340582 -17.139773 
L 420.071522 -17.564129 
L 420.802463 -18.00141 
L 421.533403 -18.455295 
L 422.264344 -18.928671 
L 422.995284 -19.4232 
L 423.726225 -19.939018 
L 424.457165 -20.474642 
L 425.188106 -21.027092 
L 425.919046 -21.592221 
L 426.649987 -22.165184 
L 427.380927 -22.740968 
L 428.111868 -23.314894 
L 428.842808 -23.883026 
L 429.573749 -24.442423 
L 430.30469 -24.991263 
L 431.03563 -25.528822 
L 431.766571 -26.055389 
L 432.497511 -26.572132 
L 433.228452 -27.080977 
L 433.959392 -27.58448 
L 434.690333 -28.085706 
L 435.421273 -28.588072 
L 436.152214 -29.095127 
L 436.883154 -29.610268 
L 437.614095 -30.136382 
L 438.345035 -30.675478 
L 439.075976 -31.228358 
L 439.806916 -31.794383 
L 440.537857 -32.371419 
L 441.268797 -32.955947 
L 441.999738 -33.543363 
L 442.730679 -34.128398 
L 443.461619 -34.705602 
L 444.19256 -35.269826 
L 444.9235 -35.816612 
L 445.654441 -36.342486 
L 446.385381 -36.845101 
L 447.116322 -37.323259 
L 447.847262 -37.776812 
L 448.578203 -38.206474 
L 449.309143 -38.613554 
L 450.040084 -38.99964 
L 450.771024 -39.366246 
L 451.501965 -39.714476 
L 452.232905 -40.044727 
L 452.963846 -40.356506 
L 453.694786 -40.648406 
L 454.425727 -40.918283 
L 455.156668 -41.163615 
L 455.887608 -41.382024 
L 456.618549 -41.571842 
L 457.349489 -41.732613 
L 458.08043 -41.865394 
L 458.81137 -41.972765 
L 459.542311 -42.058491 
L 460.273251 -42.126885 
L 461.004192 -42.181982 
L 461.735132 -42.226682 
L 462.466073 -42.262046 
L 463.197013 -42.2869 
L 463.927954 -42.29784 
L 464.658894 -42.289611 
L 465.389835 -42.255794 
L 466.120775 -42.189632 
L 466.851716 -42.084819 
L 467.582657 -41.936111 
L 468.313597 -41.739654 
L 469.044538 -41.493025 
L 469.775478 -41.195063 
L 470.506419 -40.845569 
L 471.237359 -40.445046 
L 471.9683 -39.994534 
L 472.69924 -39.49562 
L 473.430181 -38.950586 
L 474.161121 -38.362638 
L 474.892062 -37.736102 
L 475.623002 -37.076489 
L 476.353943 -36.390362 
L 477.084883 -35.68498 
L 477.815824 -34.967751 
L 478.546764 -34.245606 
L 479.277705 -33.524397 
L 480.008646 -32.808456 
L 480.739586 -32.100408 
L 481.470527 -31.40129 
L 482.201467 -30.710942 
L 482.932408 -30.028595 
L 483.663348 -29.353536 
L 484.394289 -28.685681 
L 485.125229 -28.025959 
L 485.85617 -27.376407 
L 486.58711 -26.739966 
L 487.318051 -26.120039 
L 488.048991 -25.519895 
L 488.779932 -24.942071 
L 489.510872 -24.387883 
L 490.241813 -23.857154 
L 490.972753 -23.348191 
L 491.703694 -22.858022 
L 492.434635 -22.382813 
L 493.165575 -21.918385 
L 493.896516 -21.460737 
L 494.627456 -21.006463 
L 495.358397 -20.553035 
L 496.089337 -20.09889 
L 496.820278 -19.643371 
L 497.551218 -19.186525 
L 498.282159 -18.728849 
L 499.013099 -18.27102 
L 499.74404 -17.813674 
L 500.47498 -17.357258 
L 501.205921 -16.901969 
L 501.936861 -16.447776 
L 502.667802 -15.994496 
L 503.398742 -15.5419 
L 504.129683 -15.089815 
L 504.860624 -14.638215 
L 505.591564 -14.187263 
L 506.322505 -13.737332 
L 507.053445 -13.288984 
L 507.784386 -12.842942 
L 508.515326 -12.400056 
L 509.246267 -11.961283 
L 509.977207 -11.527699 
L 510.708148 -11.100532 
L 511.439088 -10.681213 
L 512.170029 -10.27142 
L 512.900969 -9.873103 
L 513.63191 -9.48844 
L 514.36285 -9.11973 
L 515.093791 -8.769201 
L 515.824731 -8.438769 
L 516.555672 -8.129762 
L 517.286613 -7.842684 
L 518.017553 -7.577051 
L 518.748494 -7.331356 
L 519.479434 -7.103173 
L 520.210375 -6.889402 
L 520.941315 -6.686629 
L 521.672256 -6.491522 
L 522.403196 -6.301225 
L 523.134137 -6.113664 
L 523.865077 -5.92773 
L 524.596018 -5.743312 
L 525.326958 -5.561172 
L 526.057899 -5.38271 
L 526.788839 -5.209648 
L 527.51978 -5.043705 
L 528.25072 -4.886301 
L 528.981661 -4.738347 
L 529.712602 -4.600143 
L 530.443542 -4.471378 
L 531.174483 -4.351235 
L 531.905423 -4.238565 
L 532.636364 -4.132089 
L 532.636364 -2.470909 
L 532.636364 -2.470909 
L 531.905423 -2.470909 
L 531.174483 -2.470909 
L 530.443542 -2.470909 
L 529.712602 -2.470909 
L 528.981661 -2.470909 
L 528.25072 -2.470909 
L 527.51978 -2.470909 
L 526.788839 -2.470909 
L 526.057899 -2.470909 
L 525.326958 -2.470909 
L 524.596018 -2.470909 
L 523.865077 -2.470909 
L 523.134137 -2.470909 
L 522.403196 -2.470909 
L 521.672256 -2.470909 
L 520.941315 -2.470909 
L 520.210375 -2.470909 
L 519.479434 -2.470909 
L 518.748494 -2.470909 
L 518.017553 -2.470909 
L 517.286613 -2.470909 
L 516.555672 -2.470909 
L 515.824731 -2.470909 
L 515.093791 -2.470909 
L 514.36285 -2.470909 
L 513.63191 -2.470909 
L 512.900969 -2.470909 
L 512.170029 -2.470909 
L 511.439088 -2.470909 
L 510.708148 -2.470909 
L 509.977207 -2.470909 
L 509.246267 -2.470909 
L 508.515326 -2.470909 
L 507.784386 -2.470909 
L 507.053445 -2.470909 
L 506.322505 -2.470909 
L 505.591564 -2.470909 
L 504.860624 -2.470909 
L 504.129683 -2.470909 
L 503.398742 -2.470909 
L 502.667802 -2.470909 
L 501.936861 -2.470909 
L 501.205921 -2.470909 
L 500.47498 -2.470909 
L 499.74404 -2.470909 
L 499.013099 -2.470909 
L 498.282159 -2.470909 
L 497.551218 -2.470909 
L 496.820278 -2.470909 
L 496.089337 -2.470909 
L 495.358397 -2.470909 
L 494.627456 -2.470909 
L 493.896516 -2.470909 
L 493.165575 -2.470909 
L 492.434635 -2.470909 
L 491.703694 -2.470909 
L 490.972753 -2.470909 
L 490.241813 -2.470909 
L 489.510872 -2.470909 
L 488.779932 -2.470909 
L 488.048991 -2.470909 
L 487.318051 -2.470909 
L 486.58711 -2.470909 
L 485.85617 -2.470909 
L 485.125229 -2.470909 
L 484.394289 -2.470909 
L 483.663348 -2.470909 
L 482.932408 -2.470909 
L 482.201467 -2.470909 
L 481.470527 -2.470909 
L 480.739586 -2.470909 
L 480.008646 -2.470909 
L 479.277705 -2.470909 
L 478.546764 -2.470909 
L 477.815824 -2.470909 
L 477.084883 -2.470909 
L 476.353943 -2.470909 
L 475.623002 -2.470909 
L 474.892062 -2.470909 
L 474.161121 -2.470909 
L 473.430181 -2.470909 
L 472.69924 -2.470909 
L 471.9683 -2.470909 
L 471.237359 -2.470909 
L 470.506419 -2.470909 
L 469.775478 -2.470909 
L 469.044538 -2.470909 
L 468.313597 -2.470909 
L 467.582657 -2.470909 
L 466.851716 -2.470909 
L 466.120775 -2.470909 
L 465.389835 -2.470909 
L 464.658894 -2.470909 
L 463.927954 -2.470909 
L 463.197013 -2.470909 
L 462.466073 -2.470909 
L 461.735132 -2.470909 
L 461.004192 -2.470909 
L 460.273251 -2.470909 
L 459.542311 -2.470909 
L 458.81137 -2.470909 
L 458.08043 -2.470909 
L 457.349489 -2.470909 
L 456.618549 -2.470909 
L 455.887608 -2.470909 
L 455.156668 -2.470909 
L 454.425727 -2.470909 
L 453.694786 -2.470909 
L 452.963846 -2.470909 
L 452.232905 -2.470909 
L 451.501965 -2.470909 
L 450.771024 -2.470909 
L 450.040084 -2.470909 
L 449.309143 -2.470909 
L 448.578203 -2.470909 
L 447.847262 -2.470909 
L 447.116322 -2.470909 
L 446.385381 -2.470909 
L 445.654441 -2.470909 
L 444.9235 -2.470909 
L 444.19256 -2.470909 
L 443.461619 -2.470909 
L 442.730679 -2.470909 
L 441.999738 -2.470909 
L 441.268797 -2.470909 
L 440.537857 -2.470909 
L 439.806916 -2.470909 
L 439.075976 -2.470909 
L 438.345035 -2.470909 
L 437.614095 -2.470909 
L 436.883154 -2.470909 
L 436.152214 -2.470909 
L 435.421273 -2.470909 
L 434.690333 -2.470909 
L 433.959392 -2.470909 
L 433.228452 -2.470909 
L 432.497511 -2.470909 
L 431.766571 -2.470909 
L 431.03563 -2.470909 
L 430.30469 -2.470909 
L 429.573749 -2.470909 
L 428.842808 -2.470909 
L 428.111868 -2.470909 
L 427.380927 -2.470909 
L 426.649987 -2.470909 
L 425.919046 -2.470909 
L 425.188106 -2.470909 
L 424.457165 -2.470909 
L 423.726225 -2.470909 
L 422.995284 -2.470909 
L 422.264344 -2.470909 
L 421.533403 -2.470909 
L 420.802463 -2.470909 
L 420.071522 -2.470909 
L 419.340582 -2.470909 
L 418.609641 -2.470909 
L 417.878701 -2.470909 
L 417.14776 -2.470909 
L 416.416819 -2.470909 
L 415.685879 -2.470909 
L 414.954938 -2.470909 
L 414.223998 -2.470909 
L 413.493057 -2.470909 
L 412.762117 -2.470909 
L 412.031176 -2.470909 
L 411.300236 -2.470909 
L 410.569295 -2.470909 
L 409.838355 -2.470909 
L 409.107414 -2.470909 
L 408.376474 -2.470909 
L 407.645533 -2.470909 
L 406.914593 -2.470909 
L 406.183652 -2.470909 
L 405.452712 -2.470909 
L 404.721771 -2.470909 
L 403.99083 -2.470909 
L 403.25989 -2.470909 
L 402.528949 -2.470909 
L 401.798009 -2.470909 
L 401.067068 -2.470909 
L 400.336128 -2.470909 
L 399.605187 -2.470909 
L 398.874247 -2.470909 
L 398.143306 -2.470909 
L 397.412366 -2.470909 
L 396.681425 -2.470909 
L 395.950485 -2.470909 
L 395.219544 -2.470909 
L 394.488604 -2.470909 
L 393.757663 -2.470909 
L 393.026723 -2.470909 
L 392.295782 -2.470909 
L 391.564841 -2.470909 
L 390.833901 -2.470909 
L 390.10296 -2.470909 
L 389.37202 -2.470909 
L 388.641079 -2.470909 
L 387.910139 -2.470909 
z
" style="stroke: #cf1313; stroke-opacity: 0.2"/>
    </defs>
    <g clip-path="url(#p283f16a73f)">
     <use xlink:href="#m140aba05b8" x="0" y="54.36" style="fill: #cf1313; fill-opacity: 0.2; stroke: #cf1313; stroke-opacity: 0.2"/>
    </g>
   </g>
   <g id="PolyCollection_2">
    <defs>
     <path id="mc1dda7f664" d="M 145.237883 -2.470909 
L 145.237883 -4.088771 
L 145.968824 -4.165826 
L 146.699764 -4.244489 
L 147.430705 -4.324556 
L 148.161645 -4.40597 
L 148.892586 -4.488871 
L 149.623526 -4.573617 
L 150.354467 -4.660799 
L 151.085407 -4.751211 
L 151.816348 -4.84581 
L 152.547288 -4.945648 
L 153.278229 -5.051795 
L 154.00917 -5.165251 
L 154.74011 -5.286862 
L 155.471051 -5.417253 
L 156.201991 -5.55678 
L 156.932932 -5.705509 
L 157.663872 -5.863229 
L 158.394813 -6.029497 
L 159.125753 -6.203705 
L 159.856694 -6.385172 
L 160.587634 -6.573243 
L 161.318575 -6.767387 
L 162.049515 -6.967268 
L 162.780456 -7.17281 
L 163.511396 -7.384209 
L 164.242337 -7.601921 
L 164.973277 -7.826612 
L 165.704218 -8.05908 
L 166.435159 -8.300157 
L 167.166099 -8.550612 
L 167.89704 -8.811053 
L 168.62798 -9.081857 
L 169.358921 -9.363115 
L 170.089861 -9.654619 
L 170.820802 -9.955875 
L 171.551742 -10.266142 
L 172.282683 -10.584497 
L 173.013623 -10.909908 
L 173.744564 -11.241321 
L 174.475504 -11.577737 
L 175.206445 -11.918286 
L 175.937385 -12.262293 
L 176.668326 -12.609324 
L 177.399266 -12.959228 
L 178.130207 -13.312149 
L 178.861147 -13.668538 
L 179.592088 -14.029138 
L 180.323029 -14.394953 
L 181.053969 -14.767201 
L 181.78491 -15.147245 
L 182.51585 -15.536511 
L 183.246791 -15.936389 
L 183.977731 -16.348128 
L 184.708672 -16.772728 
L 185.439612 -17.210841 
L 186.170553 -17.662694 
L 186.901493 -18.128026 
L 187.632434 -18.606073 
L 188.363374 -19.095578 
L 189.094315 -19.59485 
L 189.825255 -20.101851 
L 190.556196 -20.614326 
L 191.287136 -21.129935 
L 192.018077 -21.646414 
L 192.749018 -22.161716 
L 193.479958 -22.67414 
L 194.210899 -23.18243 
L 194.941839 -23.685837 
L 195.67278 -24.184136 
L 196.40372 -24.677613 
L 197.134661 -25.167002 
L 197.865601 -25.653406 
L 198.596542 -26.138199 
L 199.327482 -26.62291 
L 200.058423 -27.109128 
L 200.789363 -27.598396 
L 201.520304 -28.092129 
L 202.251244 -28.591537 
L 202.982185 -29.097568 
L 203.713125 -29.610848 
L 204.444066 -30.131633 
L 205.175007 -30.659767 
L 205.905947 -31.194645 
L 206.636888 -31.735182 
L 207.367828 -32.279806 
L 208.098769 -32.826464 
L 208.829709 -33.372658 
L 209.56065 -33.915508 
L 210.29159 -34.451843 
L 211.022531 -34.978319 
L 211.753471 -35.491539 
L 212.484412 -35.988194 
L 213.215352 -36.465182 
L 213.946293 -36.919721 
L 214.677233 -37.349429 
L 215.408174 -37.752381 
L 216.139114 -38.127141 
L 216.870055 -38.472771 
L 217.600996 -38.788822 
L 218.331936 -39.075316 
L 219.062877 -39.33273 
L 219.793817 -39.561966 
L 220.524758 -39.764327 
L 221.255698 -39.941475 
L 221.986639 -40.09538 
L 222.717579 -40.22824 
L 223.44852 -40.342381 
L 224.17946 -40.440139 
L 224.910401 -40.523714 
L 225.641341 -40.595034 
L 226.372282 -40.655617 
L 227.103222 -40.706466 
L 227.834163 -40.748006 
L 228.565103 -40.780063 
L 229.296044 -40.801903 
L 230.026985 -40.812313 
L 230.757925 -40.809721 
L 231.488866 -40.792344 
L 232.219806 -40.758327 
L 232.950747 -40.705876 
L 233.681687 -40.633355 
L 234.412628 -40.539349 
L 235.143568 -40.422677 
L 235.874509 -40.28238 
L 236.605449 -40.117673 
L 237.33639 -39.927901 
L 238.06733 -39.712495 
L 238.798271 -39.470958 
L 239.529211 -39.202891 
L 240.260152 -38.908052 
L 240.991092 -38.58646 
L 241.722033 -38.238519 
L 242.452974 -37.865149 
L 243.183914 -37.467914 
L 243.914855 -37.049103 
L 244.645795 -36.611777 
L 245.376736 -36.159743 
L 246.107676 -35.697473 
L 246.838617 -35.229958 
L 247.569557 -34.762513 
L 248.300498 -34.300546 
L 249.031438 -33.849316 
L 249.762379 -33.413682 
L 250.493319 -32.99788 
L 251.22426 -32.60532 
L 251.9552 -32.238435 
L 252.686141 -31.898563 
L 253.417081 -31.58589 
L 254.148022 -31.299431 
L 254.878963 -31.037063 
L 255.609903 -30.795596 
L 256.340844 -30.570893 
L 257.071784 -30.35802 
L 257.802725 -30.15143 
L 258.533665 -29.945182 
L 259.264606 -29.733187 
L 259.995546 -29.509461 
L 260.726487 -29.268398 
L 261.457427 -29.005031 
L 262.188368 -28.715277 
L 262.919308 -28.396145 
L 263.650249 -28.045886 
L 264.381189 -27.664081 
L 265.11213 -27.251646 
L 265.84307 -26.810757 
L 266.574011 -26.344685 
L 267.304952 -25.857572 
L 268.035892 -25.354143 
L 268.766833 -24.839393 
L 269.497773 -24.318269 
L 270.228714 -23.795371 
L 270.959654 -23.274714 
L 271.690595 -22.759537 
L 272.421535 -22.252211 
L 273.152476 -21.75421 
L 273.883416 -21.266167 
L 274.614357 -20.787991 
L 275.345297 -20.319022 
L 276.076238 -19.858219 
L 276.807178 -19.404343 
L 277.538119 -18.956125 
L 278.269059 -18.512415 
L 279 -18.072284 
L 279.730941 -17.6351 
L 280.461881 -17.200555 
L 281.192822 -16.768671 
L 281.923762 -16.339786 
L 282.654703 -15.914511 
L 283.385643 -15.493694 
L 284.116584 -15.078372 
L 284.847524 -14.669718 
L 285.578465 -14.268994 
L 286.309405 -13.877496 
L 287.040346 -13.496496 
L 287.771286 -13.127176 
L 288.502227 -12.770566 
L 289.233167 -12.427474 
L 289.964108 -12.098421 
L 290.695048 -11.783584 
L 291.425989 -11.482762 
L 292.15693 -11.195353 
L 292.88787 -10.920369 
L 293.618811 -10.656474 
L 294.349751 -10.402053 
L 295.080692 -10.155304 
L 295.811632 -9.914355 
L 296.542573 -9.677385 
L 297.273513 -9.442744 
L 298.004454 -9.209063 
L 298.735394 -8.975338 
L 299.466335 -8.740987 
L 300.197275 -8.50586 
L 300.928216 -8.27023 
L 301.659156 -8.034725 
L 302.390097 -7.800255 
L 303.121037 -7.567903 
L 303.851978 -7.338822 
L 304.582919 -7.114126 
L 305.313859 -6.89481 
L 306.0448 -6.68168 
L 306.77574 -6.475323 
L 307.506681 -6.276099 
L 308.237621 -6.084161 
L 308.968562 -5.899495 
L 309.699502 -5.721967 
L 310.430443 -5.551379 
L 311.161383 -5.38751 
L 311.892324 -5.230156 
L 312.623264 -5.079147 
L 313.354205 -4.934351 
L 314.085145 -4.795671 
L 314.816086 -4.663026 
L 315.547026 -4.536334 
L 316.277967 -4.4155 
L 317.008908 -4.300401 
L 317.739848 -4.19089 
L 318.470789 -4.086798 
L 318.470789 -2.470909 
L 318.470789 -2.470909 
L 317.739848 -2.470909 
L 317.008908 -2.470909 
L 316.277967 -2.470909 
L 315.547026 -2.470909 
L 314.816086 -2.470909 
L 314.085145 -2.470909 
L 313.354205 -2.470909 
L 312.623264 -2.470909 
L 311.892324 -2.470909 
L 311.161383 -2.470909 
L 310.430443 -2.470909 
L 309.699502 -2.470909 
L 308.968562 -2.470909 
L 308.237621 -2.470909 
L 307.506681 -2.470909 
L 306.77574 -2.470909 
L 306.0448 -2.470909 
L 305.313859 -2.470909 
L 304.582919 -2.470909 
L 303.851978 -2.470909 
L 303.121037 -2.470909 
L 302.390097 -2.470909 
L 301.659156 -2.470909 
L 300.928216 -2.470909 
L 300.197275 -2.470909 
L 299.466335 -2.470909 
L 298.735394 -2.470909 
L 298.004454 -2.470909 
L 297.273513 -2.470909 
L 296.542573 -2.470909 
L 295.811632 -2.470909 
L 295.080692 -2.470909 
L 294.349751 -2.470909 
L 293.618811 -2.470909 
L 292.88787 -2.470909 
L 292.15693 -2.470909 
L 291.425989 -2.470909 
L 290.695048 -2.470909 
L 289.964108 -2.470909 
L 289.233167 -2.470909 
L 288.502227 -2.470909 
L 287.771286 -2.470909 
L 287.040346 -2.470909 
L 286.309405 -2.470909 
L 285.578465 -2.470909 
L 284.847524 -2.470909 
L 284.116584 -2.470909 
L 283.385643 -2.470909 
L 282.654703 -2.470909 
L 281.923762 -2.470909 
L 281.192822 -2.470909 
L 280.461881 -2.470909 
L 279.730941 -2.470909 
L 279 -2.470909 
L 278.269059 -2.470909 
L 277.538119 -2.470909 
L 276.807178 -2.470909 
L 276.076238 -2.470909 
L 275.345297 -2.470909 
L 274.614357 -2.470909 
L 273.883416 -2.470909 
L 273.152476 -2.470909 
L 272.421535 -2.470909 
L 271.690595 -2.470909 
L 270.959654 -2.470909 
L 270.228714 -2.470909 
L 269.497773 -2.470909 
L 268.766833 -2.470909 
L 268.035892 -2.470909 
L 267.304952 -2.470909 
L 266.574011 -2.470909 
L 265.84307 -2.470909 
L 265.11213 -2.470909 
L 264.381189 -2.470909 
L 263.650249 -2.470909 
L 262.919308 -2.470909 
L 262.188368 -2.470909 
L 261.457427 -2.470909 
L 260.726487 -2.470909 
L 259.995546 -2.470909 
L 259.264606 -2.470909 
L 258.533665 -2.470909 
L 257.802725 -2.470909 
L 257.071784 -2.470909 
L 256.340844 -2.470909 
L 255.609903 -2.470909 
L 254.878963 -2.470909 
L 254.148022 -2.470909 
L 253.417081 -2.470909 
L 252.686141 -2.470909 
L 251.9552 -2.470909 
L 251.22426 -2.470909 
L 250.493319 -2.470909 
L 249.762379 -2.470909 
L 249.031438 -2.470909 
L 248.300498 -2.470909 
L 247.569557 -2.470909 
L 246.838617 -2.470909 
L 246.107676 -2.470909 
L 245.376736 -2.470909 
L 244.645795 -2.470909 
L 243.914855 -2.470909 
L 243.183914 -2.470909 
L 242.452974 -2.470909 
L 241.722033 -2.470909 
L 240.991092 -2.470909 
L 240.260152 -2.470909 
L 239.529211 -2.470909 
L 238.798271 -2.470909 
L 238.06733 -2.470909 
L 237.33639 -2.470909 
L 236.605449 -2.470909 
L 235.874509 -2.470909 
L 235.143568 -2.470909 
L 234.412628 -2.470909 
L 233.681687 -2.470909 
L 232.950747 -2.470909 
L 232.219806 -2.470909 
L 231.488866 -2.470909 
L 230.757925 -2.470909 
L 230.026985 -2.470909 
L 229.296044 -2.470909 
L 228.565103 -2.470909 
L 227.834163 -2.470909 
L 227.103222 -2.470909 
L 226.372282 -2.470909 
L 225.641341 -2.470909 
L 224.910401 -2.470909 
L 224.17946 -2.470909 
L 223.44852 -2.470909 
L 222.717579 -2.470909 
L 221.986639 -2.470909 
L 221.255698 -2.470909 
L 220.524758 -2.470909 
L 219.793817 -2.470909 
L 219.062877 -2.470909 
L 218.331936 -2.470909 
L 217.600996 -2.470909 
L 216.870055 -2.470909 
L 216.139114 -2.470909 
L 215.408174 -2.470909 
L 214.677233 -2.470909 
L 213.946293 -2.470909 
L 213.215352 -2.470909 
L 212.484412 -2.470909 
L 211.753471 -2.470909 
L 211.022531 -2.470909 
L 210.29159 -2.470909 
L 209.56065 -2.470909 
L 208.829709 -2.470909 
L 208.098769 -2.470909 
L 207.367828 -2.470909 
L 206.636888 -2.470909 
L 205.905947 -2.470909 
L 205.175007 -2.470909 
L 204.444066 -2.470909 
L 203.713125 -2.470909 
L 202.982185 -2.470909 
L 202.251244 -2.470909 
L 201.520304 -2.470909 
L 200.789363 -2.470909 
L 200.058423 -2.470909 
L 199.327482 -2.470909 
L 198.596542 -2.470909 
L 197.865601 -2.470909 
L 197.134661 -2.470909 
L 196.40372 -2.470909 
L 195.67278 -2.470909 
L 194.941839 -2.470909 
L 194.210899 -2.470909 
L 193.479958 -2.470909 
L 192.749018 -2.470909 
L 192.018077 -2.470909 
L 191.287136 -2.470909 
L 190.556196 -2.470909 
L 189.825255 -2.470909 
L 189.094315 -2.470909 
L 188.363374 -2.470909 
L 187.632434 -2.470909 
L 186.901493 -2.470909 
L 186.170553 -2.470909 
L 185.439612 -2.470909 
L 184.708672 -2.470909 
L 183.977731 -2.470909 
L 183.246791 -2.470909 
L 182.51585 -2.470909 
L 181.78491 -2.470909 
L 181.053969 -2.470909 
L 180.323029 -2.470909 
L 179.592088 -2.470909 
L 178.861147 -2.470909 
L 178.130207 -2.470909 
L 177.399266 -2.470909 
L 176.668326 -2.470909 
L 175.937385 -2.470909 
L 175.206445 -2.470909 
L 174.475504 -2.470909 
L 173.744564 -2.470909 
L 173.013623 -2.470909 
L 172.282683 -2.470909 
L 171.551742 -2.470909 
L 170.820802 -2.470909 
L 170.089861 -2.470909 
L 169.358921 -2.470909 
L 168.62798 -2.470909 
L 167.89704 -2.470909 
L 167.166099 -2.470909 
L 166.435159 -2.470909 
L 165.704218 -2.470909 
L 164.973277 -2.470909 
L 164.242337 -2.470909 
L 163.511396 -2.470909 
L 162.780456 -2.470909 
L 162.049515 -2.470909 
L 161.318575 -2.470909 
L 160.587634 -2.470909 
L 159.856694 -2.470909 
L 159.125753 -2.470909 
L 158.394813 -2.470909 
L 157.663872 -2.470909 
L 156.932932 -2.470909 
L 156.201991 -2.470909 
L 155.471051 -2.470909 
L 154.74011 -2.470909 
L 154.00917 -2.470909 
L 153.278229 -2.470909 
L 152.547288 -2.470909 
L 151.816348 -2.470909 
L 151.085407 -2.470909 
L 150.354467 -2.470909 
L 149.623526 -2.470909 
L 148.892586 -2.470909 
L 148.161645 -2.470909 
L 147.430705 -2.470909 
L 146.699764 -2.470909 
L 145.968824 -2.470909 
L 145.237883 -2.470909 
z
" style="stroke: #116dc2; stroke-opacity: 0.2"/>
    </defs>
    <g clip-path="url(#p283f16a73f)">
     <use xlink:href="#mc1dda7f664" x="0" y="54.36" style="fill: #116dc2; fill-opacity: 0.2; stroke: #116dc2; stroke-opacity: 0.2"/>
    </g>
   </g>
   <g id="PolyCollection_3">
    <defs>
     <path id="ma2fb613451" d="M 25.363636 -2.470909 
L 25.363636 -4.825152 
L 26.094577 -5.263036 
L 26.825517 -5.782312 
L 27.556458 -6.376334 
L 28.287398 -7.031618 
L 29.018339 -7.735131 
L 29.74928 -8.477655 
L 30.48022 -9.259584 
L 31.211161 -10.096745 
L 31.942101 -11.023154 
L 32.673042 -12.095891 
L 33.403982 -13.395812 
L 34.134923 -15.00103 
L 34.865863 -16.935718 
L 35.596804 -19.138205 
L 36.327744 -21.486663 
L 37.058685 -23.874892 
L 37.789625 -26.283895 
L 38.520566 -28.778667 
L 39.251506 -31.406077 
L 39.982447 -34.069923 
L 40.713387 -36.530062 
L 41.444328 -38.586378 
L 42.175269 -40.275761 
L 42.906209 -41.829195 
L 43.63715 -43.412509 
L 44.36809 -44.965209 
L 45.099031 -46.32066 
L 45.829971 -47.422495 
L 46.560912 -48.362252 
L 47.291852 -49.24049 
L 48.022793 -50.077664 
L 48.753733 -50.853498 
L 49.484674 -51.513907 
L 50.215614 -51.889091 
L 50.946555 -51.717076 
L 51.677495 -50.860953 
L 52.408436 -49.476635 
L 53.139376 -47.892996 
L 53.870317 -46.330133 
L 54.601258 -44.771236 
L 55.332198 -43.081424 
L 56.063139 -41.179962 
L 56.794079 -39.087533 
L 57.52502 -36.880349 
L 58.25596 -34.651337 
L 58.986901 -32.483285 
L 59.717841 -30.413985 
L 60.448782 -28.430691 
L 61.179722 -26.505447 
L 61.910663 -24.618451 
L 62.641603 -22.751453 
L 63.372544 -20.888391 
L 64.103484 -19.027185 
L 64.834425 -17.175194 
L 65.565365 -15.342964 
L 66.296306 -13.567893 
L 67.027247 -11.936014 
L 67.758187 -10.543443 
L 68.489128 -9.424235 
L 69.220068 -8.53194 
L 69.951009 -7.788326 
L 70.681949 -7.132221 
L 71.41289 -6.530889 
L 72.14383 -5.97288 
L 72.874771 -5.46065 
L 73.605711 -4.999952 
L 74.336652 -4.587119 
L 74.336652 -2.470909 
L 74.336652 -2.470909 
L 73.605711 -2.470909 
L 72.874771 -2.470909 
L 72.14383 -2.470909 
L 71.41289 -2.470909 
L 70.681949 -2.470909 
L 69.951009 -2.470909 
L 69.220068 -2.470909 
L 68.489128 -2.470909 
L 67.758187 -2.470909 
L 67.027247 -2.470909 
L 66.296306 -2.470909 
L 65.565365 -2.470909 
L 64.834425 -2.470909 
L 64.103484 -2.470909 
L 63.372544 -2.470909 
L 62.641603 -2.470909 
L 61.910663 -2.470909 
L 61.179722 -2.470909 
L 60.448782 -2.470909 
L 59.717841 -2.470909 
L 58.986901 -2.470909 
L 58.25596 -2.470909 
L 57.52502 -2.470909 
L 56.794079 -2.470909 
L 56.063139 -2.470909 
L 55.332198 -2.470909 
L 54.601258 -2.470909 
L 53.870317 -2.470909 
L 53.139376 -2.470909 
L 52.408436 -2.470909 
L 51.677495 -2.470909 
L 50.946555 -2.470909 
L 50.215614 -2.470909 
L 49.484674 -2.470909 
L 48.753733 -2.470909 
L 48.022793 -2.470909 
L 47.291852 -2.470909 
L 46.560912 -2.470909 
L 45.829971 -2.470909 
L 45.099031 -2.470909 
L 44.36809 -2.470909 
L 43.63715 -2.470909 
L 42.906209 -2.470909 
L 42.175269 -2.470909 
L 41.444328 -2.470909 
L 40.713387 -2.470909 
L 39.982447 -2.470909 
L 39.251506 -2.470909 
L 38.520566 -2.470909 
L 37.789625 -2.470909 
L 37.058685 -2.470909 
L 36.327744 -2.470909 
L 35.596804 -2.470909 
L 34.865863 -2.470909 
L 34.134923 -2.470909 
L 33.403982 -2.470909 
L 32.673042 -2.470909 
L 31.942101 -2.470909 
L 31.211161 -2.470909 
L 30.48022 -2.470909 
L 29.74928 -2.470909 
L 29.018339 -2.470909 
L 28.287398 -2.470909 
L 27.556458 -2.470909 
L 26.825517 -2.470909 
L 26.094577 -2.470909 
L 25.363636 -2.470909 
z
" style="stroke: #8a8a8a; stroke-opacity: 0.2"/>
    </defs>
    <g clip-path="url(#p283f16a73f)">
     <use xlink:href="#ma2fb613451" x="0" y="54.36" style="fill: #8a8a8a; fill-opacity: 0.2; stroke: #8a8a8a; stroke-opacity: 0.2"/>
    </g>
   </g>
   <g id="line2d_1">
    <path d="M 387.910139 50.235624 
L 393.757663 49.078227 
L 398.874247 47.939143 
L 401.067068 47.276778 
L 403.25989 46.415311 
L 405.452712 45.333254 
L 409.107414 43.191399 
L 415.685879 39.276275 
L 421.533403 35.904705 
L 424.457165 33.885358 
L 434.690333 26.274294 
L 439.075976 23.131642 
L 447.116322 17.036741 
L 449.309143 15.746446 
L 452.232905 14.315273 
L 454.425727 13.441717 
L 456.618549 12.788158 
L 458.81137 12.387235 
L 461.735132 12.133318 
L 464.658894 12.070389 
L 466.851716 12.275181 
L 468.313597 12.620346 
L 469.775478 13.164937 
L 471.237359 13.914954 
L 472.69924 14.86438 
L 474.892062 16.623898 
L 477.815824 19.392249 
L 482.932408 24.331405 
L 487.318051 28.239961 
L 490.241813 30.502846 
L 493.165575 32.441615 
L 509.246267 42.398717 
L 513.63191 44.87156 
L 516.555672 46.230238 
L 518.748494 47.028644 
L 522.403196 48.058775 
L 528.25072 49.473699 
L 531.905423 50.121435 
L 532.636364 50.227911 
L 532.636364 50.227911 
" clip-path="url(#p283f16a73f)" style="fill: none; stroke: #cf1313; stroke-width: 1.5; stroke-linecap: square"/>
   </g>
   <g id="line2d_2">
    <path d="M 145.237883 50.271229 
L 152.547288 49.414352 
L 156.201991 48.80322 
L 159.856694 47.974828 
L 164.242337 46.758079 
L 167.89704 45.548947 
L 171.551742 44.093858 
L 176.668326 41.750676 
L 181.78491 39.212755 
L 185.439612 37.149159 
L 189.094315 34.76515 
L 209.56065 20.444492 
L 213.215352 17.894818 
L 215.408174 16.607619 
L 217.600996 15.571178 
L 219.793817 14.798034 
L 221.986639 14.26462 
L 224.910401 13.836286 
L 228.565103 13.579937 
L 231.488866 13.567656 
L 233.681687 13.726645 
L 235.874509 14.07762 
L 238.06733 14.647505 
L 240.260152 15.451948 
L 242.452974 16.494851 
L 245.376736 18.200257 
L 250.493319 21.36212 
L 252.686141 22.461437 
L 254.878963 23.322937 
L 258.533665 24.414818 
L 261.457427 25.354969 
L 263.650249 26.314114 
L 265.84307 27.549243 
L 268.766833 29.520607 
L 274.614357 33.572009 
L 279.730941 36.7249 
L 285.578465 40.091006 
L 289.233167 41.932526 
L 292.15693 43.164647 
L 295.811632 44.445645 
L 306.77574 47.884677 
L 311.161383 48.97249 
L 315.547026 49.823666 
L 318.470789 50.273202 
L 318.470789 50.273202 
" clip-path="url(#p283f16a73f)" style="fill: none; stroke: #116dc2; stroke-width: 1.5; stroke-linecap: square"/>
   </g>
   <g id="line2d_3">
    <path d="M 25.363636 49.534848 
L 26.094577 49.096964 
L 26.825517 48.577688 
L 27.556458 47.983666 
L 28.287398 47.328382 
L 29.018339 46.624869 
L 29.74928 45.882345 
L 30.48022 45.100416 
L 31.211161 44.263255 
L 31.942101 43.336846 
L 32.673042 42.264109 
L 33.403982 40.964188 
L 34.134923 39.35897 
L 34.865863 37.424282 
L 35.596804 35.221795 
L 36.327744 32.873337 
L 37.058685 30.485108 
L 37.789625 28.076105 
L 38.520566 25.581333 
L 39.251506 22.953923 
L 39.982447 20.290077 
L 40.713387 17.829938 
L 41.444328 15.773622 
L 42.175269 14.084239 
L 42.906209 12.530805 
L 43.63715 10.947491 
L 44.36809 9.394791 
L 45.099031 8.03934 
L 45.829971 6.937505 
L 46.560912 5.997748 
L 47.291852 5.11951 
L 48.022793 4.282336 
L 48.753733 3.506502 
L 49.484674 2.846093 
L 50.215614 2.470909 
L 50.946555 2.642924 
L 51.677495 3.499047 
L 52.408436 4.883365 
L 53.139376 6.467004 
L 53.870317 8.029867 
L 54.601258 9.588764 
L 55.332198 11.278576 
L 56.063139 13.180038 
L 56.794079 15.272467 
L 57.52502 17.479651 
L 58.25596 19.708663 
L 58.986901 21.876715 
L 59.717841 23.946015 
L 60.448782 25.929309 
L 61.179722 27.854553 
L 61.910663 29.741549 
L 62.641603 31.608547 
L 63.372544 33.471609 
L 64.103484 35.332815 
L 64.834425 37.184806 
L 65.565365 39.017036 
L 66.296306 40.792107 
L 67.027247 42.423986 
L 67.758187 43.816557 
L 68.489128 44.935765 
L 69.220068 45.82806 
L 69.951009 46.571674 
L 70.681949 47.227779 
L 71.41289 47.829111 
L 72.14383 48.38712 
L 72.874771 48.89935 
L 73.605711 49.360048 
L 74.336652 49.772881 
" clip-path="url(#p283f16a73f)" style="fill: none; stroke: #8a8a8a; stroke-width: 1.5; stroke-linecap: square"/>
   </g>
  </g>
 </g>
 <defs>
  <clipPath id="p283f16a73f">
   <rect x="0" y="-0" width="558" height="54.36"/>
  </clipPath>
 </defs>
</svg>
