<?xml version="1.0" encoding="utf-8" standalone="no"?>
<!DOCTYPE svg PUBLIC "-//W3C//DTD SVG 1.1//EN"
  "http://www.w3.org/Graphics/SVG/1.1/DTD/svg11.dtd">
<svg xmlns:xlink="http://www.w3.org/1999/xlink" width="558pt" height="54.36pt" viewBox="0 0 558 54.36" xmlns="http://www.w3.org/2000/svg" version="1.1">
 <metadata>
  <rdf:RDF xmlns:dc="http://purl.org/dc/elements/1.1/" xmlns:cc="http://creativecommons.org/ns#" xmlns:rdf="http://www.w3.org/1999/02/22-rdf-syntax-ns#">
   <cc:Work>
    <dc:type rdf:resource="http://purl.org/dc/dcmitype/StillImage"/>
    <dc:date>2024-09-14T12:47:07.825958</dc:date>
    <dc:format>image/svg+xml</dc:format>
    <dc:creator>
     <cc:Agent>
      <dc:title>Matplotlib v3.5.2, https://matplotlib.org/</dc:title>
     </cc:Agent>
    </dc:creator>
   </cc:Work>
  </rdf:RDF>
 </metadata>
 <defs>
  <style type="text/css">*{stroke-linejoin: round; stroke-linecap: butt}</style>
 </defs>
 <g id="figure_1">
  <g id="patch_1">
   <path d="M 0 54.36 
L 558 54.36 
L 558 0 
L 0 0 
L 0 54.36 
z
" style="fill: none; opacity: 0"/>
  </g>
  <g id="axes_1">
   <g id="PolyCollection_1">
    <defs>
     <path id="m104087298d" d="M 387.448358 -2.470909 
L 387.448358 -4.040336 
L 388.333651 -4.129095 
L 389.218943 -4.228572 
L 390.104236 -4.343115 
L 390.989529 -4.476441 
L 391.874822 -4.630992 
L 392.760114 -4.80747 
L 393.645407 -5.004674 
L 394.5307 -5.219742 
L 395.415992 -5.448778 
L 396.301285 -5.687734 
L 397.186578 -5.93337 
L 398.071871 -6.184039 
L 398.957163 -6.440118 
L 399.842456 -6.70397 
L 400.727749 -6.979455 
L 401.613041 -7.271109 
L 402.498334 -7.583195 
L 403.383627 -7.918819 
L 404.26892 -8.279316 
L 405.154212 -8.663991 
L 406.039505 -9.070276 
L 406.924798 -9.494261 
L 407.81009 -9.931507 
L 408.695383 -10.378005 
L 409.580676 -10.831099 
L 410.465969 -11.290208 
L 411.351261 -11.757179 
L 412.236554 -12.236186 
L 413.121847 -12.73317 
L 414.007139 -13.254928 
L 414.892432 -13.808046 
L 415.777725 -14.397886 
L 416.663018 -15.027834 
L 417.54831 -15.698908 
L 418.433603 -16.409723 
L 419.318896 -17.15675 
L 420.204188 -17.934707 
L 421.089481 -18.736987 
L 421.974774 -19.556056 
L 422.860067 -20.383812 
L 423.745359 -21.211957 
L 424.630652 -22.032417 
L 425.515945 -22.837825 
L 426.401238 -23.622001 
L 427.28653 -24.38036 
L 428.171823 -25.110133 
L 429.057116 -25.810354 
L 429.942408 -26.481605 
L 430.827701 -27.125571 
L 431.712994 -27.744532 
L 432.598287 -28.340885 
L 433.483579 -28.916815 
L 434.368872 -29.474171 
L 435.254165 -30.014564 
L 436.139457 -30.53964 
L 437.02475 -31.051419 
L 437.910043 -31.552585 
L 438.795336 -32.046575 
L 439.680628 -32.537387 
L 440.565921 -33.029085 
L 441.451214 -33.525106 
L 442.336506 -34.027541 
L 443.221799 -34.536625 
L 444.107092 -35.050624 
L 444.992385 -35.566197 
L 445.877677 -36.07916 
L 446.76297 -36.585426 
L 447.648263 -37.081816 
L 448.533555 -37.566454 
L 449.418848 -38.03857 
L 450.304141 -38.497743 
L 451.189434 -38.94279 
L 452.074726 -39.370645 
L 452.960019 -39.775607 
L 453.845312 -40.149237 
L 454.730604 -40.481015 
L 455.615897 -40.759689 
L 456.50119 -40.975034 
L 457.386483 -41.119674 
L 458.271775 -41.190571 
L 459.157068 -41.189874 
L 460.042361 -41.124931 
L 460.927653 -41.007398 
L 461.812946 -40.851566 
L 462.698239 -40.672111 
L 463.583532 -40.481637 
L 464.468824 -40.288422 
L 465.354117 -40.094791 
L 466.23941 -39.896505 
L 467.124703 -39.68332 
L 468.009995 -39.440693 
L 468.895288 -39.152311 
L 469.780581 -38.802926 
L 470.665873 -38.380928 
L 471.551166 -37.880154 
L 472.436459 -37.300689 
L 473.321752 -36.648641 
L 474.207044 -35.935154 
L 475.092337 -35.174984 
L 475.97763 -34.384987 
L 476.862922 -33.582702 
L 477.748215 -32.785106 
L 478.633508 -32.007482 
L 479.518801 -31.26236 
L 480.404093 -30.558521 
L 481.289386 -29.900184 
L 482.174679 -29.286559 
L 483.059971 -28.711944 
L 483.945264 -28.166486 
L 484.830557 -27.637569 
L 485.71585 -27.111627 
L 486.601142 -26.576063 
L 487.486435 -26.020911 
L 488.371728 -25.439928 
L 489.25702 -24.830963 
L 490.142313 -24.195586 
L 491.027606 -23.538187 
L 491.912899 -22.86479 
L 492.798191 -22.18191 
L 493.683484 -21.495674 
L 494.568777 -20.81134 
L 495.454069 -20.1332 
L 496.339362 -19.464761 
L 497.224655 -18.809025 
L 498.109948 -18.1687 
L 498.99524 -17.546235 
L 499.880533 -16.94364 
L 500.765826 -16.362169 
L 501.651119 -15.801993 
L 502.536411 -15.26202 
L 503.421704 -14.739979 
L 504.306997 -14.232799 
L 505.192289 -13.737219 
L 506.077582 -13.25046 
L 506.962875 -12.770773 
L 507.848168 -12.297699 
L 508.73346 -11.831959 
L 509.618753 -11.375026 
L 510.504046 -10.928515 
L 511.389338 -10.493594 
L 512.274631 -10.070604 
L 513.159924 -9.659002 
L 514.045217 -9.257633 
L 514.930509 -8.865251 
L 515.815802 -8.481122 
L 516.701095 -8.105539 
L 517.586387 -7.740083 
L 518.47168 -7.387569 
L 519.356973 -7.051652 
L 520.242266 -6.736191 
L 521.127558 -6.444486 
L 522.012851 -6.178576 
L 522.898144 -5.938736 
L 523.783436 -5.723294 
L 524.668729 -5.528813 
L 525.554022 -5.350601 
L 526.439315 -5.183453 
L 527.324607 -5.022456 
L 528.2099 -4.863712 
L 529.095193 -4.70483 
L 529.980485 -4.545108 
L 530.865778 -4.385405 
L 531.751071 -4.227757 
L 532.636364 -4.074851 
L 532.636364 -2.470909 
L 532.636364 -2.470909 
L 531.751071 -2.470909 
L 530.865778 -2.470909 
L 529.980485 -2.470909 
L 529.095193 -2.470909 
L 528.2099 -2.470909 
L 527.324607 -2.470909 
L 526.439315 -2.470909 
L 525.554022 -2.470909 
L 524.668729 -2.470909 
L 523.783436 -2.470909 
L 522.898144 -2.470909 
L 522.012851 -2.470909 
L 521.127558 -2.470909 
L 520.242266 -2.470909 
L 519.356973 -2.470909 
L 518.47168 -2.470909 
L 517.586387 -2.470909 
L 516.701095 -2.470909 
L 515.815802 -2.470909 
L 514.930509 -2.470909 
L 514.045217 -2.470909 
L 513.159924 -2.470909 
L 512.274631 -2.470909 
L 511.389338 -2.470909 
L 510.504046 -2.470909 
L 509.618753 -2.470909 
L 508.73346 -2.470909 
L 507.848168 -2.470909 
L 506.962875 -2.470909 
L 506.077582 -2.470909 
L 505.192289 -2.470909 
L 504.306997 -2.470909 
L 503.421704 -2.470909 
L 502.536411 -2.470909 
L 501.651119 -2.470909 
L 500.765826 -2.470909 
L 499.880533 -2.470909 
L 498.99524 -2.470909 
L 498.109948 -2.470909 
L 497.224655 -2.470909 
L 496.339362 -2.470909 
L 495.454069 -2.470909 
L 494.568777 -2.470909 
L 493.683484 -2.470909 
L 492.798191 -2.470909 
L 491.912899 -2.470909 
L 491.027606 -2.470909 
L 490.142313 -2.470909 
L 489.25702 -2.470909 
L 488.371728 -2.470909 
L 487.486435 -2.470909 
L 486.601142 -2.470909 
L 485.71585 -2.470909 
L 484.830557 -2.470909 
L 483.945264 -2.470909 
L 483.059971 -2.470909 
L 482.174679 -2.470909 
L 481.289386 -2.470909 
L 480.404093 -2.470909 
L 479.518801 -2.470909 
L 478.633508 -2.470909 
L 477.748215 -2.470909 
L 476.862922 -2.470909 
L 475.97763 -2.470909 
L 475.092337 -2.470909 
L 474.207044 -2.470909 
L 473.321752 -2.470909 
L 472.436459 -2.470909 
L 471.551166 -2.470909 
L 470.665873 -2.470909 
L 469.780581 -2.470909 
L 468.895288 -2.470909 
L 468.009995 -2.470909 
L 467.124703 -2.470909 
L 466.23941 -2.470909 
L 465.354117 -2.470909 
L 464.468824 -2.470909 
L 463.583532 -2.470909 
L 462.698239 -2.470909 
L 461.812946 -2.470909 
L 460.927653 -2.470909 
L 460.042361 -2.470909 
L 459.157068 -2.470909 
L 458.271775 -2.470909 
L 457.386483 -2.470909 
L 456.50119 -2.470909 
L 455.615897 -2.470909 
L 454.730604 -2.470909 
L 453.845312 -2.470909 
L 452.960019 -2.470909 
L 452.074726 -2.470909 
L 451.189434 -2.470909 
L 450.304141 -2.470909 
L 449.418848 -2.470909 
L 448.533555 -2.470909 
L 447.648263 -2.470909 
L 446.76297 -2.470909 
L 445.877677 -2.470909 
L 444.992385 -2.470909 
L 444.107092 -2.470909 
L 443.221799 -2.470909 
L 442.336506 -2.470909 
L 441.451214 -2.470909 
L 440.565921 -2.470909 
L 439.680628 -2.470909 
L 438.795336 -2.470909 
L 437.910043 -2.470909 
L 437.02475 -2.470909 
L 436.139457 -2.470909 
L 435.254165 -2.470909 
L 434.368872 -2.470909 
L 433.483579 -2.470909 
L 432.598287 -2.470909 
L 431.712994 -2.470909 
L 430.827701 -2.470909 
L 429.942408 -2.470909 
L 429.057116 -2.470909 
L 428.171823 -2.470909 
L 427.28653 -2.470909 
L 426.401238 -2.470909 
L 425.515945 -2.470909 
L 424.630652 -2.470909 
L 423.745359 -2.470909 
L 422.860067 -2.470909 
L 421.974774 -2.470909 
L 421.089481 -2.470909 
L 420.204188 -2.470909 
L 419.318896 -2.470909 
L 418.433603 -2.470909 
L 417.54831 -2.470909 
L 416.663018 -2.470909 
L 415.777725 -2.470909 
L 414.892432 -2.470909 
L 414.007139 -2.470909 
L 413.121847 -2.470909 
L 412.236554 -2.470909 
L 411.351261 -2.470909 
L 410.465969 -2.470909 
L 409.580676 -2.470909 
L 408.695383 -2.470909 
L 407.81009 -2.470909 
L 406.924798 -2.470909 
L 406.039505 -2.470909 
L 405.154212 -2.470909 
L 404.26892 -2.470909 
L 403.383627 -2.470909 
L 402.498334 -2.470909 
L 401.613041 -2.470909 
L 400.727749 -2.470909 
L 399.842456 -2.470909 
L 398.957163 -2.470909 
L 398.071871 -2.470909 
L 397.186578 -2.470909 
L 396.301285 -2.470909 
L 395.415992 -2.470909 
L 394.5307 -2.470909 
L 393.645407 -2.470909 
L 392.760114 -2.470909 
L 391.874822 -2.470909 
L 390.989529 -2.470909 
L 390.104236 -2.470909 
L 389.218943 -2.470909 
L 388.333651 -2.470909 
L 387.448358 -2.470909 
z
" style="stroke: #cf1313; stroke-opacity: 0.2"/>
    </defs>
    <g clip-path="url(#pdcb88639ad)">
     <use xlink:href="#m104087298d" x="0" y="54.36" style="fill: #cf1313; fill-opacity: 0.2; stroke: #cf1313; stroke-opacity: 0.2"/>
    </g>
   </g>
   <g id="PolyCollection_2">
    <defs>
     <path id="m25bb72acd9" d="M 334.330795 -2.470909 
L 334.330795 -4.140858 
L 335.216088 -4.334402 
L 336.10138 -4.551022 
L 336.986673 -4.78898 
L 337.871966 -5.045747 
L 338.757258 -5.318329 
L 339.642551 -5.603488 
L 340.527844 -5.897823 
L 341.413137 -6.197747 
L 342.298429 -6.499465 
L 343.183722 -6.799047 
L 344.069015 -7.092688 
L 344.954307 -7.377146 
L 345.8396 -7.650296 
L 346.724893 -7.911648 
L 347.610186 -8.162696 
L 348.495478 -8.406982 
L 349.380771 -8.649851 
L 350.266064 -8.897974 
L 351.151356 -9.15873 
L 352.036649 -9.439591 
L 352.921942 -9.7476 
L 353.807235 -10.088986 
L 354.692527 -10.468905 
L 355.57782 -10.891277 
L 356.463113 -11.358658 
L 357.348406 -11.872119 
L 358.233698 -12.431128 
L 359.118991 -13.033454 
L 360.004284 -13.675152 
L 360.889576 -14.35069 
L 361.774869 -15.053258 
L 362.660162 -15.775278 
L 363.545455 -16.509053 
L 364.430747 -17.247448 
L 365.31604 -17.984485 
L 366.201333 -18.715713 
L 367.086625 -19.438304 
L 367.971918 -20.150907 
L 368.857211 -20.853365 
L 369.742504 -21.546451 
L 370.627796 -22.231737 
L 371.513089 -22.91164 
L 372.398382 -23.589524 
L 373.283674 -24.269685 
L 374.168967 -24.956985 
L 375.05426 -25.656021 
L 375.939553 -26.369906 
L 376.824845 -27.098944 
L 377.710138 -27.839654 
L 378.595431 -28.584587 
L 379.480723 -29.323232 
L 380.366016 -30.043976 
L 381.251309 -30.736727 
L 382.136602 -31.395562 
L 383.021894 -32.02063 
L 383.907187 -32.618747 
L 384.79248 -33.202394 
L 385.677772 -33.787303 
L 386.563065 -34.389163 
L 387.448358 -35.020201 
L 388.333651 -35.686363 
L 389.218943 -36.385682 
L 390.104236 -37.108045 
L 390.989529 -37.836324 
L 391.874822 -38.548579 
L 392.760114 -39.220913 
L 393.645407 -39.830549 
L 394.5307 -40.358685 
L 395.415992 -40.792757 
L 396.301285 -41.127787 
L 397.186578 -41.366614 
L 398.071871 -41.51898 
L 398.957163 -41.599637 
L 399.842456 -41.625869 
L 400.727749 -41.614899 
L 401.613041 -41.581648 
L 402.498334 -41.537154 
L 403.383627 -41.487704 
L 404.26892 -41.434574 
L 405.154212 -41.374149 
L 406.039505 -41.298279 
L 406.924798 -41.194889 
L 407.81009 -41.049025 
L 408.695383 -40.844533 
L 409.580676 -40.566457 
L 410.465969 -40.203916 
L 411.351261 -39.752879 
L 412.236554 -39.218096 
L 413.121847 -38.613445 
L 414.007139 -37.960321 
L 414.892432 -37.284215 
L 415.777725 -36.610139 
L 416.663018 -35.95791 
L 417.54831 -35.338392 
L 418.433603 -34.751547 
L 419.318896 -34.186721 
L 420.204188 -33.62511 
L 421.089481 -33.043853 
L 421.974774 -32.420905 
L 422.860067 -31.739682 
L 423.745359 -30.992521 
L 424.630652 -30.182246 
L 425.515945 -29.321552 
L 426.401238 -28.430391 
L 427.28653 -27.532008 
L 428.171823 -26.648601 
L 429.057116 -25.797601 
L 429.942408 -24.98938 
L 430.827701 -24.226735 
L 431.712994 -23.506034 
L 432.598287 -22.819471 
L 433.483579 -22.157701 
L 434.368872 -21.512155 
L 435.254165 -20.876566 
L 436.139457 -20.247553 
L 437.02475 -19.624391 
L 437.910043 -19.008248 
L 438.795336 -18.401225 
L 439.680628 -17.805412 
L 440.565921 -17.222138 
L 441.451214 -16.65142 
L 442.336506 -16.091676 
L 443.221799 -15.53971 
L 444.107092 -14.991031 
L 444.992385 -14.440521 
L 445.877677 -13.883402 
L 446.76297 -13.316333 
L 447.648263 -12.738404 
L 448.533555 -12.151751 
L 449.418848 -11.561601 
L 450.304141 -10.975689 
L 451.189434 -10.40315 
L 452.074726 -9.853115 
L 452.960019 -9.333354 
L 453.845312 -8.84923 
L 454.730604 -8.403198 
L 455.615897 -7.994898 
L 456.50119 -7.621762 
L 457.386483 -7.279911 
L 458.271775 -6.965105 
L 459.157068 -6.673496 
L 460.042361 -6.402051 
L 460.927653 -6.14863 
L 461.812946 -5.911813 
L 462.698239 -5.690619 
L 463.583532 -5.484261 
L 464.468824 -5.292013 
L 465.354117 -5.113185 
L 466.23941 -4.947161 
L 467.124703 -4.793418 
L 468.009995 -4.651484 
L 468.895288 -4.520824 
L 469.780581 -4.400686 
L 470.665873 -4.289978 
L 471.551166 -4.187205 
L 472.436459 -4.09051 
L 472.436459 -2.470909 
L 472.436459 -2.470909 
L 471.551166 -2.470909 
L 470.665873 -2.470909 
L 469.780581 -2.470909 
L 468.895288 -2.470909 
L 468.009995 -2.470909 
L 467.124703 -2.470909 
L 466.23941 -2.470909 
L 465.354117 -2.470909 
L 464.468824 -2.470909 
L 463.583532 -2.470909 
L 462.698239 -2.470909 
L 461.812946 -2.470909 
L 460.927653 -2.470909 
L 460.042361 -2.470909 
L 459.157068 -2.470909 
L 458.271775 -2.470909 
L 457.386483 -2.470909 
L 456.50119 -2.470909 
L 455.615897 -2.470909 
L 454.730604 -2.470909 
L 453.845312 -2.470909 
L 452.960019 -2.470909 
L 452.074726 -2.470909 
L 451.189434 -2.470909 
L 450.304141 -2.470909 
L 449.418848 -2.470909 
L 448.533555 -2.470909 
L 447.648263 -2.470909 
L 446.76297 -2.470909 
L 445.877677 -2.470909 
L 444.992385 -2.470909 
L 444.107092 -2.470909 
L 443.221799 -2.470909 
L 442.336506 -2.470909 
L 441.451214 -2.470909 
L 440.565921 -2.470909 
L 439.680628 -2.470909 
L 438.795336 -2.470909 
L 437.910043 -2.470909 
L 437.02475 -2.470909 
L 436.139457 -2.470909 
L 435.254165 -2.470909 
L 434.368872 -2.470909 
L 433.483579 -2.470909 
L 432.598287 -2.470909 
L 431.712994 -2.470909 
L 430.827701 -2.470909 
L 429.942408 -2.470909 
L 429.057116 -2.470909 
L 428.171823 -2.470909 
L 427.28653 -2.470909 
L 426.401238 -2.470909 
L 425.515945 -2.470909 
L 424.630652 -2.470909 
L 423.745359 -2.470909 
L 422.860067 -2.470909 
L 421.974774 -2.470909 
L 421.089481 -2.470909 
L 420.204188 -2.470909 
L 419.318896 -2.470909 
L 418.433603 -2.470909 
L 417.54831 -2.470909 
L 416.663018 -2.470909 
L 415.777725 -2.470909 
L 414.892432 -2.470909 
L 414.007139 -2.470909 
L 413.121847 -2.470909 
L 412.236554 -2.470909 
L 411.351261 -2.470909 
L 410.465969 -2.470909 
L 409.580676 -2.470909 
L 408.695383 -2.470909 
L 407.81009 -2.470909 
L 406.924798 -2.470909 
L 406.039505 -2.470909 
L 405.154212 -2.470909 
L 404.26892 -2.470909 
L 403.383627 -2.470909 
L 402.498334 -2.470909 
L 401.613041 -2.470909 
L 400.727749 -2.470909 
L 399.842456 -2.470909 
L 398.957163 -2.470909 
L 398.071871 -2.470909 
L 397.186578 -2.470909 
L 396.301285 -2.470909 
L 395.415992 -2.470909 
L 394.5307 -2.470909 
L 393.645407 -2.470909 
L 392.760114 -2.470909 
L 391.874822 -2.470909 
L 390.989529 -2.470909 
L 390.104236 -2.470909 
L 389.218943 -2.470909 
L 388.333651 -2.470909 
L 387.448358 -2.470909 
L 386.563065 -2.470909 
L 385.677772 -2.470909 
L 384.79248 -2.470909 
L 383.907187 -2.470909 
L 383.021894 -2.470909 
L 382.136602 -2.470909 
L 381.251309 -2.470909 
L 380.366016 -2.470909 
L 379.480723 -2.470909 
L 378.595431 -2.470909 
L 377.710138 -2.470909 
L 376.824845 -2.470909 
L 375.939553 -2.470909 
L 375.05426 -2.470909 
L 374.168967 -2.470909 
L 373.283674 -2.470909 
L 372.398382 -2.470909 
L 371.513089 -2.470909 
L 370.627796 -2.470909 
L 369.742504 -2.470909 
L 368.857211 -2.470909 
L 367.971918 -2.470909 
L 367.086625 -2.470909 
L 366.201333 -2.470909 
L 365.31604 -2.470909 
L 364.430747 -2.470909 
L 363.545455 -2.470909 
L 362.660162 -2.470909 
L 361.774869 -2.470909 
L 360.889576 -2.470909 
L 360.004284 -2.470909 
L 359.118991 -2.470909 
L 358.233698 -2.470909 
L 357.348406 -2.470909 
L 356.463113 -2.470909 
L 355.57782 -2.470909 
L 354.692527 -2.470909 
L 353.807235 -2.470909 
L 352.921942 -2.470909 
L 352.036649 -2.470909 
L 351.151356 -2.470909 
L 350.266064 -2.470909 
L 349.380771 -2.470909 
L 348.495478 -2.470909 
L 347.610186 -2.470909 
L 346.724893 -2.470909 
L 345.8396 -2.470909 
L 344.954307 -2.470909 
L 344.069015 -2.470909 
L 343.183722 -2.470909 
L 342.298429 -2.470909 
L 341.413137 -2.470909 
L 340.527844 -2.470909 
L 339.642551 -2.470909 
L 338.757258 -2.470909 
L 337.871966 -2.470909 
L 336.986673 -2.470909 
L 336.10138 -2.470909 
L 335.216088 -2.470909 
L 334.330795 -2.470909 
z
" style="stroke: #116dc2; stroke-opacity: 0.2"/>
    </defs>
    <g clip-path="url(#pdcb88639ad)">
     <use xlink:href="#m25bb72acd9" x="0" y="54.36" style="fill: #116dc2; fill-opacity: 0.2; stroke: #116dc2; stroke-opacity: 0.2"/>
    </g>
   </g>
   <g id="PolyCollection_3">
    <defs>
     <path id="mdbdd3ee888" d="M 25.363636 -2.470909 
L 25.363636 -4.663798 
L 26.248929 -5.280648 
L 27.134222 -5.921289 
L 28.019515 -6.7269 
L 28.904807 -7.876644 
L 29.7901 -9.38798 
L 30.675393 -11.124328 
L 31.560685 -12.963347 
L 32.445978 -14.937971 
L 33.331271 -17.205944 
L 34.216564 -19.869674 
L 35.101856 -22.855473 
L 35.987149 -26.012371 
L 36.872442 -29.272804 
L 37.757734 -32.564257 
L 38.643027 -35.690703 
L 39.52832 -38.527255 
L 40.413613 -41.06603 
L 41.298905 -43.25842 
L 42.184198 -45.158927 
L 43.069491 -47.038586 
L 43.954783 -49.064091 
L 44.840076 -50.89998 
L 45.725369 -51.889091 
L 46.610662 -51.748453 
L 47.495954 -50.816841 
L 48.381247 -49.59678 
L 49.26654 -48.26795 
L 50.151832 -46.647716 
L 51.037125 -44.578971 
L 51.922418 -42.075527 
L 52.807711 -39.103785 
L 53.693003 -35.755048 
L 54.578296 -32.429895 
L 55.463589 -29.430578 
L 56.348881 -26.643103 
L 57.234174 -23.777658 
L 58.119467 -20.801888 
L 59.00476 -18.076165 
L 59.890052 -15.957334 
L 60.775345 -14.385399 
L 61.660638 -13.048687 
L 62.545931 -11.752824 
L 63.431223 -10.437302 
L 64.316516 -9.074 
L 65.201809 -7.718243 
L 66.087101 -6.492581 
L 66.972394 -5.476396 
L 67.857687 -4.699113 
L 67.857687 -2.470909 
L 67.857687 -2.470909 
L 66.972394 -2.470909 
L 66.087101 -2.470909 
L 65.201809 -2.470909 
L 64.316516 -2.470909 
L 63.431223 -2.470909 
L 62.545931 -2.470909 
L 61.660638 -2.470909 
L 60.775345 -2.470909 
L 59.890052 -2.470909 
L 59.00476 -2.470909 
L 58.119467 -2.470909 
L 57.234174 -2.470909 
L 56.348881 -2.470909 
L 55.463589 -2.470909 
L 54.578296 -2.470909 
L 53.693003 -2.470909 
L 52.807711 -2.470909 
L 51.922418 -2.470909 
L 51.037125 -2.470909 
L 50.151832 -2.470909 
L 49.26654 -2.470909 
L 48.381247 -2.470909 
L 47.495954 -2.470909 
L 46.610662 -2.470909 
L 45.725369 -2.470909 
L 44.840076 -2.470909 
L 43.954783 -2.470909 
L 43.069491 -2.470909 
L 42.184198 -2.470909 
L 41.298905 -2.470909 
L 40.413613 -2.470909 
L 39.52832 -2.470909 
L 38.643027 -2.470909 
L 37.757734 -2.470909 
L 36.872442 -2.470909 
L 35.987149 -2.470909 
L 35.101856 -2.470909 
L 34.216564 -2.470909 
L 33.331271 -2.470909 
L 32.445978 -2.470909 
L 31.560685 -2.470909 
L 30.675393 -2.470909 
L 29.7901 -2.470909 
L 28.904807 -2.470909 
L 28.019515 -2.470909 
L 27.134222 -2.470909 
L 26.248929 -2.470909 
L 25.363636 -2.470909 
z
" style="stroke: #8a8a8a; stroke-opacity: 0.2"/>
    </defs>
    <g clip-path="url(#pdcb88639ad)">
     <use xlink:href="#mdbdd3ee888" x="0" y="54.36" style="fill: #8a8a8a; fill-opacity: 0.2; stroke: #8a8a8a; stroke-opacity: 0.2"/>
    </g>
   </g>
   <g id="line2d_1">
    <path d="M 387.448358 50.319664 
L 390.989529 49.883559 
L 393.645407 49.355326 
L 398.071871 48.175961 
L 401.613041 47.088891 
L 404.26892 46.080684 
L 407.81009 44.428493 
L 413.121847 41.62683 
L 415.777725 39.962114 
L 418.433603 37.950277 
L 421.089481 35.623013 
L 427.28653 29.97964 
L 429.942408 27.878395 
L 432.598287 26.019115 
L 436.139457 23.82036 
L 447.648263 17.278184 
L 451.189434 15.41721 
L 453.845312 14.210763 
L 455.615897 13.600311 
L 457.386483 13.240326 
L 459.157068 13.170126 
L 460.927653 13.352602 
L 464.468824 14.071578 
L 468.009995 14.919307 
L 469.780581 15.557074 
L 471.551166 16.479846 
L 473.321752 17.711359 
L 475.97763 19.975013 
L 479.518801 23.09764 
L 482.174679 25.073441 
L 485.71585 27.248373 
L 488.371728 28.920072 
L 491.027606 30.821813 
L 499.880533 37.41636 
L 503.421704 39.620021 
L 507.848168 42.062301 
L 512.274631 44.289396 
L 516.701095 46.254461 
L 520.242266 47.623809 
L 522.898144 48.421264 
L 526.439315 49.176547 
L 532.636364 50.285149 
L 532.636364 50.285149 
" clip-path="url(#pdcb88639ad)" style="fill: none; stroke: #cf1313; stroke-width: 1.5; stroke-linecap: square"/>
   </g>
   <g id="line2d_2">
    <path d="M 334.330795 50.219142 
L 336.986673 49.57102 
L 340.527844 48.462177 
L 346.724893 46.448352 
L 352.921942 44.6124 
L 354.692527 43.891095 
L 356.463113 43.001342 
L 358.233698 41.928872 
L 360.889576 40.00931 
L 365.31604 36.375515 
L 370.627796 32.128263 
L 376.824845 27.261056 
L 381.251309 23.623273 
L 383.907187 21.741253 
L 387.448358 19.339799 
L 390.104236 17.251955 
L 392.760114 15.139087 
L 394.5307 14.001315 
L 396.301285 13.232213 
L 398.071871 12.84102 
L 399.842456 12.734131 
L 403.383627 12.872296 
L 406.924798 13.165111 
L 408.695383 13.515467 
L 410.465969 14.156084 
L 412.236554 15.141904 
L 414.892432 17.075785 
L 417.54831 19.021608 
L 422.860067 22.620318 
L 424.630652 24.177754 
L 430.827701 30.133265 
L 433.483579 32.202299 
L 438.795336 35.958775 
L 443.221799 38.82029 
L 448.533555 42.208249 
L 452.960019 45.026646 
L 455.615897 46.365102 
L 458.271775 47.394895 
L 461.812946 48.448187 
L 465.354117 49.246815 
L 468.895288 49.839176 
L 472.436459 50.26949 
L 472.436459 50.26949 
" clip-path="url(#pdcb88639ad)" style="fill: none; stroke: #116dc2; stroke-width: 1.5; stroke-linecap: square"/>
   </g>
   <g id="line2d_3">
    <path d="M 25.363636 49.696202 
L 26.248929 49.079352 
L 27.134222 48.438711 
L 28.019515 47.6331 
L 28.904807 46.483356 
L 29.7901 44.97202 
L 30.675393 43.235672 
L 31.560685 41.396653 
L 32.445978 39.422029 
L 33.331271 37.154056 
L 34.216564 34.490326 
L 35.101856 31.504527 
L 35.987149 28.347629 
L 36.872442 25.087196 
L 37.757734 21.795743 
L 38.643027 18.669297 
L 39.52832 15.832745 
L 40.413613 13.29397 
L 41.298905 11.10158 
L 42.184198 9.201073 
L 43.069491 7.321414 
L 43.954783 5.295909 
L 44.840076 3.46002 
L 45.725369 2.470909 
L 46.610662 2.611547 
L 47.495954 3.543159 
L 48.381247 4.76322 
L 49.26654 6.09205 
L 50.151832 7.712284 
L 51.037125 9.781029 
L 51.922418 12.284473 
L 52.807711 15.256215 
L 53.693003 18.604952 
L 54.578296 21.930105 
L 55.463589 24.929422 
L 56.348881 27.716897 
L 57.234174 30.582342 
L 58.119467 33.558112 
L 59.00476 36.283835 
L 59.890052 38.402666 
L 60.775345 39.974601 
L 61.660638 41.311313 
L 62.545931 42.607176 
L 63.431223 43.922698 
L 64.316516 45.286 
L 65.201809 46.641757 
L 66.087101 47.867419 
L 66.972394 48.883604 
L 67.857687 49.660887 
" clip-path="url(#pdcb88639ad)" style="fill: none; stroke: #8a8a8a; stroke-width: 1.5; stroke-linecap: square"/>
   </g>
  </g>
 </g>
 <defs>
  <clipPath id="pdcb88639ad">
   <rect x="0" y="-0" width="558" height="54.36"/>
  </clipPath>
 </defs>
</svg>
