<?xml version="1.0" encoding="utf-8" standalone="no"?>
<!DOCTYPE svg PUBLIC "-//W3C//DTD SVG 1.1//EN"
  "http://www.w3.org/Graphics/SVG/1.1/DTD/svg11.dtd">
<svg xmlns:xlink="http://www.w3.org/1999/xlink" width="558pt" height="54.36pt" viewBox="0 0 558 54.36" xmlns="http://www.w3.org/2000/svg" version="1.1">
 <metadata>
  <rdf:RDF xmlns:dc="http://purl.org/dc/elements/1.1/" xmlns:cc="http://creativecommons.org/ns#" xmlns:rdf="http://www.w3.org/1999/02/22-rdf-syntax-ns#">
   <cc:Work>
    <dc:type rdf:resource="http://purl.org/dc/dcmitype/StillImage"/>
    <dc:date>2024-09-15T09:31:11.410796</dc:date>
    <dc:format>image/svg+xml</dc:format>
    <dc:creator>
     <cc:Agent>
      <dc:title>Matplotlib v3.5.2, https://matplotlib.org/</dc:title>
     </cc:Agent>
    </dc:creator>
   </cc:Work>
  </rdf:RDF>
 </metadata>
 <defs>
  <style type="text/css">*{stroke-linejoin: round; stroke-linecap: butt}</style>
 </defs>
 <g id="figure_1">
  <g id="patch_1">
   <path d="M 0 54.36 
L 558 54.36 
L 558 0 
L 0 0 
L 0 54.36 
z
" style="fill: none; opacity: 0"/>
  </g>
  <g id="axes_1">
   <g id="PolyCollection_1">
    <defs>
     <path id="md08534cece" d="M 390.244019 -2.470909 
L 390.244019 -3.800814 
L 391.133971 -3.887229 
L 392.023923 -3.986798 
L 392.913876 -4.104892 
L 393.803828 -4.247384 
L 394.69378 -4.419888 
L 395.583732 -4.626911 
L 396.473684 -4.871102 
L 397.363636 -5.152763 
L 398.253589 -5.46972 
L 399.143541 -5.817568 
L 400.033493 -6.190242 
L 400.923445 -6.580782 
L 401.813397 -6.982152 
L 402.703349 -7.387987 
L 403.593301 -7.793159 
L 404.483254 -8.194138 
L 405.373206 -8.589127 
L 406.263158 -8.978041 
L 407.15311 -9.362332 
L 408.043062 -9.744722 
L 408.933014 -10.128829 
L 409.822967 -10.518719 
L 410.712919 -10.91838 
L 411.602871 -11.331218 
L 412.492823 -11.759634 
L 413.382775 -12.204815 
L 414.272727 -12.666779 
L 415.162679 -13.14467 
L 416.052632 -13.637194 
L 416.942584 -14.143046 
L 417.832536 -14.661169 
L 418.722488 -15.190784 
L 419.61244 -15.731211 
L 420.502392 -16.281639 
L 421.392344 -16.840997 
L 422.282297 -17.408097 
L 423.172249 -17.982061 
L 424.062201 -18.562918 
L 424.952153 -19.152161 
L 425.842105 -19.752986 
L 426.732057 -20.370021 
L 427.62201 -21.008524 
L 428.511962 -21.673184 
L 429.401914 -22.366872 
L 430.291866 -23.089713 
L 431.181818 -23.838795 
L 432.07177 -24.608645 
L 432.961722 -25.392354 
L 433.851675 -26.183028 
L 434.741627 -26.975118 
L 435.631579 -27.765254 
L 436.521531 -28.552351 
L 437.411483 -29.336989 
L 438.301435 -30.120302 
L 439.191388 -30.902703 
L 440.08134 -31.68283 
L 440.971292 -32.456969 
L 441.861244 -33.219103 
L 442.751196 -33.961523 
L 443.641148 -34.675846 
L 444.5311 -35.354156 
L 445.421053 -35.989984 
L 446.311005 -36.578904 
L 447.200957 -37.118653 
L 448.090909 -37.608835 
L 448.980861 -38.050404 
L 449.870813 -38.445216 
L 450.760766 -38.795838 
L 451.650718 -39.105697 
L 452.54067 -39.379435 
L 453.430622 -39.623207 
L 454.320574 -39.844598 
L 455.210526 -40.051974 
L 456.100478 -40.253264 
L 456.990431 -40.454398 
L 457.880383 -40.657798 
L 458.770335 -40.861322 
L 459.660287 -41.058006 
L 460.550239 -41.236702 
L 461.440191 -41.383544 
L 462.330144 -41.483915 
L 463.220096 -41.524527 
L 464.110048 -41.495164 
L 465 -41.389764 
L 465.889952 -41.206683 
L 466.779904 -40.948185 
L 467.669856 -40.619428 
L 468.559809 -40.227317 
L 469.449761 -39.779572 
L 470.339713 -39.284242 
L 471.229665 -38.74966 
L 472.119617 -38.184624 
L 473.009569 -37.59848 
L 473.899522 -37.000828 
L 474.789474 -36.400754 
L 475.679426 -35.805724 
L 476.569378 -35.220479 
L 477.45933 -34.646311 
L 478.349282 -34.080981 
L 479.239234 -33.519336 
L 480.129187 -32.954451 
L 481.019139 -32.378974 
L 481.909091 -31.786359 
L 482.799043 -31.171767 
L 483.688995 -30.532559 
L 484.578947 -29.868426 
L 485.4689 -29.181245 
L 486.358852 -28.474769 
L 487.248804 -27.754196 
L 488.138756 -27.025673 
L 489.028708 -26.295769 
L 489.91866 -25.570965 
L 490.808612 -24.857229 
L 491.698565 -24.159686 
L 492.588517 -23.482375 
L 493.478469 -22.828049 
L 494.368421 -22.19797 
L 495.258373 -21.591661 
L 496.148325 -21.006681 
L 497.038278 -20.438507 
L 497.92823 -19.880656 
L 498.818182 -19.325161 
L 499.708134 -18.76344 
L 500.598086 -18.187472 
L 501.488038 -17.591138 
L 502.37799 -16.971425 
L 503.267943 -16.329235 
L 504.157895 -15.66956 
L 505.047847 -15.000895 
L 505.937799 -14.333975 
L 506.827751 -13.680051 
L 507.717703 -13.049099 
L 508.607656 -12.448345 
L 509.497608 -11.881454 
L 510.38756 -11.348543 
L 511.277512 -10.846939 
L 512.167464 -10.372436 
L 513.057416 -9.920658 
L 513.947368 -9.488145 
L 514.837321 -9.072897 
L 515.727273 -8.674314 
L 516.617225 -8.292649 
L 517.507177 -7.928273 
L 518.397129 -7.581047 
L 519.287081 -7.250063 
L 520.177033 -6.933815 
L 521.066986 -6.630728 
L 521.956938 -6.339802 
L 522.84689 -6.061118 
L 523.736842 -5.795991 
L 524.626794 -5.546693 
L 525.516746 -5.315828 
L 526.406699 -5.105559 
L 527.296651 -4.916934 
L 528.186603 -4.749502 
L 529.076555 -4.601314 
L 529.966507 -4.469267 
L 530.856459 -4.349667 
L 531.746411 -4.23881 
L 532.636364 -4.13346 
L 532.636364 -2.470909 
L 532.636364 -2.470909 
L 531.746411 -2.470909 
L 530.856459 -2.470909 
L 529.966507 -2.470909 
L 529.076555 -2.470909 
L 528.186603 -2.470909 
L 527.296651 -2.470909 
L 526.406699 -2.470909 
L 525.516746 -2.470909 
L 524.626794 -2.470909 
L 523.736842 -2.470909 
L 522.84689 -2.470909 
L 521.956938 -2.470909 
L 521.066986 -2.470909 
L 520.177033 -2.470909 
L 519.287081 -2.470909 
L 518.397129 -2.470909 
L 517.507177 -2.470909 
L 516.617225 -2.470909 
L 515.727273 -2.470909 
L 514.837321 -2.470909 
L 513.947368 -2.470909 
L 513.057416 -2.470909 
L 512.167464 -2.470909 
L 511.277512 -2.470909 
L 510.38756 -2.470909 
L 509.497608 -2.470909 
L 508.607656 -2.470909 
L 507.717703 -2.470909 
L 506.827751 -2.470909 
L 505.937799 -2.470909 
L 505.047847 -2.470909 
L 504.157895 -2.470909 
L 503.267943 -2.470909 
L 502.37799 -2.470909 
L 501.488038 -2.470909 
L 500.598086 -2.470909 
L 499.708134 -2.470909 
L 498.818182 -2.470909 
L 497.92823 -2.470909 
L 497.038278 -2.470909 
L 496.148325 -2.470909 
L 495.258373 -2.470909 
L 494.368421 -2.470909 
L 493.478469 -2.470909 
L 492.588517 -2.470909 
L 491.698565 -2.470909 
L 490.808612 -2.470909 
L 489.91866 -2.470909 
L 489.028708 -2.470909 
L 488.138756 -2.470909 
L 487.248804 -2.470909 
L 486.358852 -2.470909 
L 485.4689 -2.470909 
L 484.578947 -2.470909 
L 483.688995 -2.470909 
L 482.799043 -2.470909 
L 481.909091 -2.470909 
L 481.019139 -2.470909 
L 480.129187 -2.470909 
L 479.239234 -2.470909 
L 478.349282 -2.470909 
L 477.45933 -2.470909 
L 476.569378 -2.470909 
L 475.679426 -2.470909 
L 474.789474 -2.470909 
L 473.899522 -2.470909 
L 473.009569 -2.470909 
L 472.119617 -2.470909 
L 471.229665 -2.470909 
L 470.339713 -2.470909 
L 469.449761 -2.470909 
L 468.559809 -2.470909 
L 467.669856 -2.470909 
L 466.779904 -2.470909 
L 465.889952 -2.470909 
L 465 -2.470909 
L 464.110048 -2.470909 
L 463.220096 -2.470909 
L 462.330144 -2.470909 
L 461.440191 -2.470909 
L 460.550239 -2.470909 
L 459.660287 -2.470909 
L 458.770335 -2.470909 
L 457.880383 -2.470909 
L 456.990431 -2.470909 
L 456.100478 -2.470909 
L 455.210526 -2.470909 
L 454.320574 -2.470909 
L 453.430622 -2.470909 
L 452.54067 -2.470909 
L 451.650718 -2.470909 
L 450.760766 -2.470909 
L 449.870813 -2.470909 
L 448.980861 -2.470909 
L 448.090909 -2.470909 
L 447.200957 -2.470909 
L 446.311005 -2.470909 
L 445.421053 -2.470909 
L 444.5311 -2.470909 
L 443.641148 -2.470909 
L 442.751196 -2.470909 
L 441.861244 -2.470909 
L 440.971292 -2.470909 
L 440.08134 -2.470909 
L 439.191388 -2.470909 
L 438.301435 -2.470909 
L 437.411483 -2.470909 
L 436.521531 -2.470909 
L 435.631579 -2.470909 
L 434.741627 -2.470909 
L 433.851675 -2.470909 
L 432.961722 -2.470909 
L 432.07177 -2.470909 
L 431.181818 -2.470909 
L 430.291866 -2.470909 
L 429.401914 -2.470909 
L 428.511962 -2.470909 
L 427.62201 -2.470909 
L 426.732057 -2.470909 
L 425.842105 -2.470909 
L 424.952153 -2.470909 
L 424.062201 -2.470909 
L 423.172249 -2.470909 
L 422.282297 -2.470909 
L 421.392344 -2.470909 
L 420.502392 -2.470909 
L 419.61244 -2.470909 
L 418.722488 -2.470909 
L 417.832536 -2.470909 
L 416.942584 -2.470909 
L 416.052632 -2.470909 
L 415.162679 -2.470909 
L 414.272727 -2.470909 
L 413.382775 -2.470909 
L 412.492823 -2.470909 
L 411.602871 -2.470909 
L 410.712919 -2.470909 
L 409.822967 -2.470909 
L 408.933014 -2.470909 
L 408.043062 -2.470909 
L 407.15311 -2.470909 
L 406.263158 -2.470909 
L 405.373206 -2.470909 
L 404.483254 -2.470909 
L 403.593301 -2.470909 
L 402.703349 -2.470909 
L 401.813397 -2.470909 
L 400.923445 -2.470909 
L 400.033493 -2.470909 
L 399.143541 -2.470909 
L 398.253589 -2.470909 
L 397.363636 -2.470909 
L 396.473684 -2.470909 
L 395.583732 -2.470909 
L 394.69378 -2.470909 
L 393.803828 -2.470909 
L 392.913876 -2.470909 
L 392.023923 -2.470909 
L 391.133971 -2.470909 
L 390.244019 -2.470909 
z
" style="stroke: #cf1313; stroke-opacity: 0.2"/>
    </defs>
    <g clip-path="url(#pf47fcc22eb)">
     <use xlink:href="#md08534cece" x="0" y="54.36" style="fill: #cf1313; fill-opacity: 0.2; stroke: #cf1313; stroke-opacity: 0.2"/>
    </g>
   </g>
   <g id="PolyCollection_2">
    <defs>
     <path id="mb68e9b1192" d="M 333.287081 -2.470909 
L 333.287081 -3.797552 
L 334.177033 -3.895521 
L 335.066986 -4.008872 
L 335.956938 -4.140708 
L 336.84689 -4.293367 
L 337.736842 -4.468149 
L 338.626794 -4.665154 
L 339.516746 -4.883236 
L 340.406699 -5.120123 
L 341.296651 -5.372698 
L 342.186603 -5.63745 
L 343.076555 -5.91105 
L 343.966507 -6.190945 
L 344.856459 -6.475857 
L 345.746411 -6.766025 
L 346.636364 -7.063127 
L 347.526316 -7.369849 
L 348.416268 -7.689203 
L 349.30622 -8.023744 
L 350.196172 -8.374905 
L 351.086124 -8.742634 
L 351.976077 -9.125466 
L 352.866029 -9.521036 
L 353.755981 -9.926942 
L 354.645933 -10.34173 
L 355.535885 -10.765737 
L 356.425837 -11.201529 
L 357.315789 -11.653768 
L 358.205742 -12.128452 
L 359.095694 -12.631676 
L 359.985646 -13.168152 
L 360.875598 -13.739819 
L 361.76555 -14.344895 
L 362.655502 -14.977612 
L 363.545455 -15.628772 
L 364.435407 -16.287061 
L 365.325359 -16.940916 
L 366.215311 -17.580606 
L 367.105263 -18.200127 
L 367.995215 -18.798538 
L 368.885167 -19.38047 
L 369.77512 -19.955692 
L 370.665072 -20.537805 
L 371.555024 -21.142279 
L 372.444976 -21.784147 
L 373.334928 -22.475711 
L 374.22488 -23.224575 
L 375.114833 -24.032236 
L 376.004785 -24.893417 
L 376.894737 -25.796213 
L 377.784689 -26.723085 
L 378.674641 -27.65266 
L 379.564593 -28.5622 
L 380.454545 -29.430468 
L 381.344498 -30.240614 
L 382.23445 -30.98259 
L 383.124402 -31.654609 
L 384.014354 -32.263281 
L 384.904306 -32.82231 
L 385.794258 -33.349928 
L 386.684211 -33.865585 
L 387.574163 -34.386564 
L 388.464115 -34.925255 
L 389.354067 -35.487579 
L 390.244019 -36.072803 
L 391.133971 -36.674521 
L 392.023923 -37.282388 
L 392.913876 -37.88402 
L 393.803828 -38.46662 
L 394.69378 -39.018123 
L 395.583732 -39.527901 
L 396.473684 -39.987251 
L 397.363636 -40.389851 
L 398.253589 -40.732215 
L 399.143541 -41.013997 
L 400.033493 -41.237895 
L 400.923445 -41.408986 
L 401.813397 -41.533528 
L 402.703349 -41.617538 
L 403.593301 -41.665572 
L 404.483254 -41.680104 
L 405.373206 -41.661671 
L 406.263158 -41.609639 
L 407.15311 -41.523262 
L 408.043062 -41.402604 
L 408.933014 -41.249031 
L 409.822967 -41.065153 
L 410.712919 -40.854302 
L 411.602871 -40.619713 
L 412.492823 -40.363621 
L 413.382775 -40.086438 
L 414.272727 -39.786159 
L 415.162679 -39.45816 
L 416.052632 -39.095511 
L 416.942584 -38.689899 
L 417.832536 -38.233077 
L 418.722488 -37.718595 
L 419.61244 -37.143393 
L 420.502392 -36.508776 
L 421.392344 -35.82044 
L 422.282297 -35.087459 
L 423.172249 -34.320481 
L 424.062201 -33.529656 
L 424.952153 -32.722921 
L 425.842105 -31.905125 
L 426.732057 -31.078245 
L 427.62201 -30.242526 
L 428.511962 -29.398107 
L 429.401914 -28.546538 
L 430.291866 -27.691669 
L 431.181818 -26.839612 
L 432.07177 -25.997836 
L 432.961722 -25.173693 
L 433.851675 -24.37288 
L 434.741627 -23.598267 
L 435.631579 -22.849419 
L 436.521531 -22.12287 
L 437.411483 -21.413 
L 438.301435 -20.713252 
L 439.191388 -20.017368 
L 440.08134 -19.320385 
L 440.971292 -18.619253 
L 441.861244 -17.913064 
L 442.751196 -17.202955 
L 443.641148 -16.491837 
L 444.5311 -15.784062 
L 445.421053 -15.085111 
L 446.311005 -14.401313 
L 447.200957 -13.739545 
L 448.090909 -13.106843 
L 448.980861 -12.509888 
L 449.870813 -11.954383 
L 450.760766 -11.444391 
L 451.650718 -10.981774 
L 452.54067 -10.565842 
L 453.430622 -10.193299 
L 454.320574 -9.858511 
L 455.210526 -9.554051 
L 456.100478 -9.27145 
L 456.990431 -9.002046 
L 457.880383 -8.737818 
L 458.770335 -8.472118 
L 459.660287 -8.200186 
L 460.550239 -7.919426 
L 461.440191 -7.629386 
L 462.330144 -7.331493 
L 463.220096 -7.028593 
L 464.110048 -6.724389 
L 465 -6.42288 
L 465.889952 -6.127871 
L 466.779904 -5.842625 
L 467.669856 -5.569664 
L 468.559809 -5.310724 
L 469.449761 -5.066833 
L 470.339713 -4.838462 
L 471.229665 -4.625712 
L 472.119617 -4.428492 
L 473.009569 -4.246644 
L 473.009569 -2.470909 
L 473.009569 -2.470909 
L 472.119617 -2.470909 
L 471.229665 -2.470909 
L 470.339713 -2.470909 
L 469.449761 -2.470909 
L 468.559809 -2.470909 
L 467.669856 -2.470909 
L 466.779904 -2.470909 
L 465.889952 -2.470909 
L 465 -2.470909 
L 464.110048 -2.470909 
L 463.220096 -2.470909 
L 462.330144 -2.470909 
L 461.440191 -2.470909 
L 460.550239 -2.470909 
L 459.660287 -2.470909 
L 458.770335 -2.470909 
L 457.880383 -2.470909 
L 456.990431 -2.470909 
L 456.100478 -2.470909 
L 455.210526 -2.470909 
L 454.320574 -2.470909 
L 453.430622 -2.470909 
L 452.54067 -2.470909 
L 451.650718 -2.470909 
L 450.760766 -2.470909 
L 449.870813 -2.470909 
L 448.980861 -2.470909 
L 448.090909 -2.470909 
L 447.200957 -2.470909 
L 446.311005 -2.470909 
L 445.421053 -2.470909 
L 444.5311 -2.470909 
L 443.641148 -2.470909 
L 442.751196 -2.470909 
L 441.861244 -2.470909 
L 440.971292 -2.470909 
L 440.08134 -2.470909 
L 439.191388 -2.470909 
L 438.301435 -2.470909 
L 437.411483 -2.470909 
L 436.521531 -2.470909 
L 435.631579 -2.470909 
L 434.741627 -2.470909 
L 433.851675 -2.470909 
L 432.961722 -2.470909 
L 432.07177 -2.470909 
L 431.181818 -2.470909 
L 430.291866 -2.470909 
L 429.401914 -2.470909 
L 428.511962 -2.470909 
L 427.62201 -2.470909 
L 426.732057 -2.470909 
L 425.842105 -2.470909 
L 424.952153 -2.470909 
L 424.062201 -2.470909 
L 423.172249 -2.470909 
L 422.282297 -2.470909 
L 421.392344 -2.470909 
L 420.502392 -2.470909 
L 419.61244 -2.470909 
L 418.722488 -2.470909 
L 417.832536 -2.470909 
L 416.942584 -2.470909 
L 416.052632 -2.470909 
L 415.162679 -2.470909 
L 414.272727 -2.470909 
L 413.382775 -2.470909 
L 412.492823 -2.470909 
L 411.602871 -2.470909 
L 410.712919 -2.470909 
L 409.822967 -2.470909 
L 408.933014 -2.470909 
L 408.043062 -2.470909 
L 407.15311 -2.470909 
L 406.263158 -2.470909 
L 405.373206 -2.470909 
L 404.483254 -2.470909 
L 403.593301 -2.470909 
L 402.703349 -2.470909 
L 401.813397 -2.470909 
L 400.923445 -2.470909 
L 400.033493 -2.470909 
L 399.143541 -2.470909 
L 398.253589 -2.470909 
L 397.363636 -2.470909 
L 396.473684 -2.470909 
L 395.583732 -2.470909 
L 394.69378 -2.470909 
L 393.803828 -2.470909 
L 392.913876 -2.470909 
L 392.023923 -2.470909 
L 391.133971 -2.470909 
L 390.244019 -2.470909 
L 389.354067 -2.470909 
L 388.464115 -2.470909 
L 387.574163 -2.470909 
L 386.684211 -2.470909 
L 385.794258 -2.470909 
L 384.904306 -2.470909 
L 384.014354 -2.470909 
L 383.124402 -2.470909 
L 382.23445 -2.470909 
L 381.344498 -2.470909 
L 380.454545 -2.470909 
L 379.564593 -2.470909 
L 378.674641 -2.470909 
L 377.784689 -2.470909 
L 376.894737 -2.470909 
L 376.004785 -2.470909 
L 375.114833 -2.470909 
L 374.22488 -2.470909 
L 373.334928 -2.470909 
L 372.444976 -2.470909 
L 371.555024 -2.470909 
L 370.665072 -2.470909 
L 369.77512 -2.470909 
L 368.885167 -2.470909 
L 367.995215 -2.470909 
L 367.105263 -2.470909 
L 366.215311 -2.470909 
L 365.325359 -2.470909 
L 364.435407 -2.470909 
L 363.545455 -2.470909 
L 362.655502 -2.470909 
L 361.76555 -2.470909 
L 360.875598 -2.470909 
L 359.985646 -2.470909 
L 359.095694 -2.470909 
L 358.205742 -2.470909 
L 357.315789 -2.470909 
L 356.425837 -2.470909 
L 355.535885 -2.470909 
L 354.645933 -2.470909 
L 353.755981 -2.470909 
L 352.866029 -2.470909 
L 351.976077 -2.470909 
L 351.086124 -2.470909 
L 350.196172 -2.470909 
L 349.30622 -2.470909 
L 348.416268 -2.470909 
L 347.526316 -2.470909 
L 346.636364 -2.470909 
L 345.746411 -2.470909 
L 344.856459 -2.470909 
L 343.966507 -2.470909 
L 343.076555 -2.470909 
L 342.186603 -2.470909 
L 341.296651 -2.470909 
L 340.406699 -2.470909 
L 339.516746 -2.470909 
L 338.626794 -2.470909 
L 337.736842 -2.470909 
L 336.84689 -2.470909 
L 335.956938 -2.470909 
L 335.066986 -2.470909 
L 334.177033 -2.470909 
L 333.287081 -2.470909 
z
" style="stroke: #116dc2; stroke-opacity: 0.2"/>
    </defs>
    <g clip-path="url(#pf47fcc22eb)">
     <use xlink:href="#mb68e9b1192" x="0" y="54.36" style="fill: #116dc2; fill-opacity: 0.2; stroke: #116dc2; stroke-opacity: 0.2"/>
    </g>
   </g>
   <g id="PolyCollection_3">
    <defs>
     <path id="m932f6f0b2b" d="M 25.363636 -2.470909 
L 25.363636 -5.105516 
L 26.253589 -5.884604 
L 27.143541 -6.898322 
L 28.033493 -8.171889 
L 28.923445 -9.508554 
L 29.813397 -10.736816 
L 30.703349 -12.00075 
L 31.593301 -13.583321 
L 32.483254 -15.586352 
L 33.373206 -17.913222 
L 34.263158 -20.419372 
L 35.15311 -23.109719 
L 36.043062 -26.127831 
L 36.933014 -29.409156 
L 37.822967 -32.59805 
L 38.712919 -35.441205 
L 39.602871 -38.067633 
L 40.492823 -40.703928 
L 41.382775 -43.210665 
L 42.272727 -45.234498 
L 43.162679 -46.717829 
L 44.052632 -48.009543 
L 44.942584 -49.452712 
L 45.832536 -50.889429 
L 46.722488 -51.805649 
L 47.61244 -51.889091 
L 48.502392 -51.182714 
L 49.392344 -49.906051 
L 50.282297 -48.265394 
L 51.172249 -46.270707 
L 52.062201 -43.798944 
L 52.952153 -40.856049 
L 53.842105 -37.675285 
L 54.732057 -34.550723 
L 55.62201 -31.494425 
L 56.511962 -28.254691 
L 57.401914 -24.887111 
L 58.291866 -21.82101 
L 59.181818 -19.242981 
L 60.07177 -16.985054 
L 60.961722 -14.870876 
L 61.851675 -12.873916 
L 62.741627 -11.087321 
L 63.631579 -9.589535 
L 64.521531 -8.334506 
L 65.411483 -7.212079 
L 66.301435 -6.218835 
L 67.191388 -5.433959 
L 68.08134 -4.822041 
L 68.08134 -2.470909 
L 68.08134 -2.470909 
L 67.191388 -2.470909 
L 66.301435 -2.470909 
L 65.411483 -2.470909 
L 64.521531 -2.470909 
L 63.631579 -2.470909 
L 62.741627 -2.470909 
L 61.851675 -2.470909 
L 60.961722 -2.470909 
L 60.07177 -2.470909 
L 59.181818 -2.470909 
L 58.291866 -2.470909 
L 57.401914 -2.470909 
L 56.511962 -2.470909 
L 55.62201 -2.470909 
L 54.732057 -2.470909 
L 53.842105 -2.470909 
L 52.952153 -2.470909 
L 52.062201 -2.470909 
L 51.172249 -2.470909 
L 50.282297 -2.470909 
L 49.392344 -2.470909 
L 48.502392 -2.470909 
L 47.61244 -2.470909 
L 46.722488 -2.470909 
L 45.832536 -2.470909 
L 44.942584 -2.470909 
L 44.052632 -2.470909 
L 43.162679 -2.470909 
L 42.272727 -2.470909 
L 41.382775 -2.470909 
L 40.492823 -2.470909 
L 39.602871 -2.470909 
L 38.712919 -2.470909 
L 37.822967 -2.470909 
L 36.933014 -2.470909 
L 36.043062 -2.470909 
L 35.15311 -2.470909 
L 34.263158 -2.470909 
L 33.373206 -2.470909 
L 32.483254 -2.470909 
L 31.593301 -2.470909 
L 30.703349 -2.470909 
L 29.813397 -2.470909 
L 28.923445 -2.470909 
L 28.033493 -2.470909 
L 27.143541 -2.470909 
L 26.253589 -2.470909 
L 25.363636 -2.470909 
z
" style="stroke: #8a8a8a; stroke-opacity: 0.2"/>
    </defs>
    <g clip-path="url(#pf47fcc22eb)">
     <use xlink:href="#m932f6f0b2b" x="0" y="54.36" style="fill: #8a8a8a; fill-opacity: 0.2; stroke: #8a8a8a; stroke-opacity: 0.2"/>
    </g>
   </g>
   <g id="line2d_1">
    <path d="M 390.244019 50.559186 
L 393.803828 50.112616 
L 396.473684 49.488898 
L 399.143541 48.542432 
L 403.593301 46.566841 
L 414.272727 41.693221 
L 417.832536 39.698831 
L 422.282297 36.951903 
L 426.732057 33.989979 
L 429.401914 31.993128 
L 432.961722 28.967646 
L 442.751196 20.398477 
L 445.421053 18.370016 
L 447.200957 17.241347 
L 448.980861 16.309596 
L 450.760766 15.564162 
L 453.430622 14.736793 
L 458.770335 13.498678 
L 461.440191 12.976456 
L 463.220096 12.835473 
L 465 12.970236 
L 466.779904 13.411815 
L 468.559809 14.132683 
L 470.339713 15.075758 
L 473.009569 16.76152 
L 479.239234 20.840664 
L 482.799043 23.188233 
L 485.4689 25.178755 
L 494.368421 32.16203 
L 497.92823 34.479344 
L 501.488038 36.768862 
L 505.047847 39.359105 
L 508.607656 41.911655 
L 511.277512 43.513061 
L 514.837321 45.287103 
L 518.397129 46.778953 
L 521.956938 48.020198 
L 525.516746 49.044172 
L 528.186603 49.610498 
L 531.746411 50.12119 
L 532.636364 50.22654 
L 532.636364 50.22654 
" clip-path="url(#pf47fcc22eb)" style="fill: none; stroke: #cf1313; stroke-width: 1.5; stroke-linecap: square"/>
   </g>
   <g id="line2d_2">
    <path d="M 333.287081 50.562448 
L 336.84689 50.066633 
L 339.516746 49.476764 
L 343.076555 48.44895 
L 348.416268 46.670797 
L 351.976077 45.234534 
L 356.425837 43.158471 
L 359.095694 41.728324 
L 361.76555 40.015105 
L 370.665072 33.822195 
L 373.334928 31.884289 
L 375.114833 30.327764 
L 377.784689 27.636915 
L 380.454545 24.929532 
L 382.23445 23.37741 
L 384.014354 22.096719 
L 387.574163 19.973436 
L 390.244019 18.287197 
L 394.69378 15.341877 
L 396.473684 14.372749 
L 398.253589 13.627785 
L 400.033493 13.122105 
L 401.813397 12.826472 
L 404.483254 12.679896 
L 407.15311 12.836738 
L 409.822967 13.294847 
L 412.492823 13.996379 
L 415.162679 14.90184 
L 416.942584 15.670101 
L 418.722488 16.641405 
L 420.502392 17.851224 
L 423.172249 20.039519 
L 427.62201 24.117474 
L 434.741627 30.761733 
L 438.301435 33.646748 
L 448.090909 41.253157 
L 450.760766 42.915609 
L 452.54067 43.794158 
L 455.210526 44.805949 
L 470.339713 49.521538 
L 473.009569 50.113356 
L 473.009569 50.113356 
" clip-path="url(#pf47fcc22eb)" style="fill: none; stroke: #116dc2; stroke-width: 1.5; stroke-linecap: square"/>
   </g>
   <g id="line2d_3">
    <path d="M 25.363636 49.254484 
L 26.253589 48.475396 
L 27.143541 47.461678 
L 28.033493 46.188111 
L 28.923445 44.851446 
L 29.813397 43.623184 
L 30.703349 42.35925 
L 31.593301 40.776679 
L 32.483254 38.773648 
L 33.373206 36.446778 
L 34.263158 33.940628 
L 35.15311 31.250281 
L 36.043062 28.232169 
L 36.933014 24.950844 
L 37.822967 21.76195 
L 38.712919 18.918795 
L 39.602871 16.292367 
L 40.492823 13.656072 
L 41.382775 11.149335 
L 42.272727 9.125502 
L 43.162679 7.642171 
L 44.052632 6.350457 
L 44.942584 4.907288 
L 45.832536 3.470571 
L 46.722488 2.554351 
L 47.61244 2.470909 
L 48.502392 3.177286 
L 49.392344 4.453949 
L 50.282297 6.094606 
L 51.172249 8.089293 
L 52.062201 10.561056 
L 52.952153 13.503951 
L 53.842105 16.684715 
L 54.732057 19.809277 
L 55.62201 22.865575 
L 56.511962 26.105309 
L 57.401914 29.472889 
L 58.291866 32.53899 
L 59.181818 35.117019 
L 60.07177 37.374946 
L 60.961722 39.489124 
L 61.851675 41.486084 
L 62.741627 43.272679 
L 63.631579 44.770465 
L 64.521531 46.025494 
L 65.411483 47.147921 
L 66.301435 48.141165 
L 67.191388 48.926041 
L 68.08134 49.537959 
" clip-path="url(#pf47fcc22eb)" style="fill: none; stroke: #8a8a8a; stroke-width: 1.5; stroke-linecap: square"/>
   </g>
  </g>
 </g>
 <defs>
  <clipPath id="pf47fcc22eb">
   <rect x="0" y="-0" width="558" height="54.36"/>
  </clipPath>
 </defs>
</svg>
