<?xml version="1.0" encoding="utf-8" standalone="no"?>
<!DOCTYPE svg PUBLIC "-//W3C//DTD SVG 1.1//EN"
  "http://www.w3.org/Graphics/SVG/1.1/DTD/svg11.dtd">
<svg xmlns:xlink="http://www.w3.org/1999/xlink" width="558pt" height="54.36pt" viewBox="0 0 558 54.36" xmlns="http://www.w3.org/2000/svg" version="1.1">
 <metadata>
  <rdf:RDF xmlns:dc="http://purl.org/dc/elements/1.1/" xmlns:cc="http://creativecommons.org/ns#" xmlns:rdf="http://www.w3.org/1999/02/22-rdf-syntax-ns#">
   <cc:Work>
    <dc:type rdf:resource="http://purl.org/dc/dcmitype/StillImage"/>
    <dc:date>2024-09-15T09:30:49.471596</dc:date>
    <dc:format>image/svg+xml</dc:format>
    <dc:creator>
     <cc:Agent>
      <dc:title>Matplotlib v3.5.2, https://matplotlib.org/</dc:title>
     </cc:Agent>
    </dc:creator>
   </cc:Work>
  </rdf:RDF>
 </metadata>
 <defs>
  <style type="text/css">*{stroke-linejoin: round; stroke-linecap: butt}</style>
 </defs>
 <g id="figure_1">
  <g id="patch_1">
   <path d="M 0 54.36 
L 558 54.36 
L 558 0 
L 0 0 
L 0 54.36 
z
" style="fill: none; opacity: 0"/>
  </g>
  <g id="axes_1">
   <g id="PolyCollection_1">
    <defs>
     <path id="m7d7f488840" d="M 245.694215 -2.470909 
L 245.694215 -4.58384 
L 246.42621 -4.679252 
L 247.158205 -4.777628 
L 247.890201 -4.878825 
L 248.622196 -4.982691 
L 249.354191 -5.089067 
L 250.086187 -5.19779 
L 250.818182 -5.3087 
L 251.550177 -5.421639 
L 252.282172 -5.53646 
L 253.014168 -5.653025 
L 253.746163 -5.771208 
L 254.478158 -5.890903 
L 255.210153 -6.012019 
L 255.942149 -6.134485 
L 256.674144 -6.258253 
L 257.406139 -6.38329 
L 258.138135 -6.509586 
L 258.87013 -6.637148 
L 259.602125 -6.765996 
L 260.33412 -6.896166 
L 261.066116 -7.027702 
L 261.798111 -7.160653 
L 262.530106 -7.295068 
L 263.262102 -7.430996 
L 263.994097 -7.568477 
L 264.726092 -7.707539 
L 265.458087 -7.848198 
L 266.190083 -7.990453 
L 266.922078 -8.134284 
L 267.654073 -8.279652 
L 268.386068 -8.426501 
L 269.118064 -8.574758 
L 269.850059 -8.724337 
L 270.582054 -8.875144 
L 271.31405 -9.027082 
L 272.046045 -9.180055 
L 272.77804 -9.333978 
L 273.510035 -9.488784 
L 274.242031 -9.644426 
L 274.974026 -9.80089 
L 275.706021 -9.958196 
L 276.438017 -10.116405 
L 277.170012 -10.27562 
L 277.902007 -10.43599 
L 278.634002 -10.597708 
L 279.365998 -10.76101 
L 280.097993 -10.926168 
L 280.829988 -11.093489 
L 281.561983 -11.263302 
L 282.293979 -11.43595 
L 283.025974 -11.611785 
L 283.757969 -11.791149 
L 284.489965 -11.974369 
L 285.22196 -12.161743 
L 285.953955 -12.353532 
L 286.68595 -12.549947 
L 287.417946 -12.751145 
L 288.149941 -12.957221 
L 288.881936 -13.168202 
L 289.613932 -13.38405 
L 290.345927 -13.604656 
L 291.077922 -13.829849 
L 291.809917 -14.059395 
L 292.541913 -14.293006 
L 293.273908 -14.530349 
L 294.005903 -14.771053 
L 294.737898 -15.014723 
L 295.469894 -15.260945 
L 296.201889 -15.509303 
L 296.933884 -15.759385 
L 297.66588 -16.010794 
L 298.397875 -16.26316 
L 299.12987 -16.516142 
L 299.861865 -16.769438 
L 300.593861 -17.022792 
L 301.325856 -17.275989 
L 302.057851 -17.528869 
L 302.789847 -17.781316 
L 303.521842 -18.033265 
L 304.253837 -18.284699 
L 304.985832 -18.535646 
L 305.717828 -18.786176 
L 306.449823 -19.0364 
L 307.181818 -19.286466 
L 307.913813 -19.536553 
L 308.645809 -19.786874 
L 309.377804 -20.037665 
L 310.109799 -20.289187 
L 310.841795 -20.541718 
L 311.57379 -20.795556 
L 312.305785 -21.051006 
L 313.03778 -21.308383 
L 313.769776 -21.568004 
L 314.501771 -21.830183 
L 315.233766 -22.095226 
L 315.965762 -22.363426 
L 316.697757 -22.635056 
L 317.429752 -22.910366 
L 318.161747 -23.189573 
L 318.893743 -23.472859 
L 319.625738 -23.760368 
L 320.357733 -24.052197 
L 321.089728 -24.348399 
L 321.821724 -24.648978 
L 322.553719 -24.953888 
L 323.285714 -25.263038 
L 324.01771 -25.57629 
L 324.749705 -25.893463 
L 325.4817 -26.21434 
L 326.213695 -26.538666 
L 326.945691 -26.866161 
L 327.677686 -27.19652 
L 328.409681 -27.529422 
L 329.141677 -27.86453 
L 329.873672 -28.201502 
L 330.605667 -28.539991 
L 331.337662 -28.879648 
L 332.069658 -29.220128 
L 332.801653 -29.561089 
L 333.533648 -29.902193 
L 334.265643 -30.24311 
L 334.997639 -30.583514 
L 335.729634 -30.923088 
L 336.461629 -31.26152 
L 337.193625 -31.598507 
L 337.92562 -31.933751 
L 338.657615 -32.266967 
L 339.38961 -32.597877 
L 340.121606 -32.926214 
L 340.853601 -33.251725 
L 341.585596 -33.57417 
L 342.317591 -33.893326 
L 343.049587 -34.208985 
L 343.781582 -34.520955 
L 344.513577 -34.82906 
L 345.245573 -35.133139 
L 345.977568 -35.433046 
L 346.709563 -35.728641 
L 347.441558 -36.019794 
L 348.173554 -36.306375 
L 348.905549 -36.588252 
L 349.637544 -36.865288 
L 350.36954 -37.137332 
L 351.101535 -37.40422 
L 351.83353 -37.66577 
L 352.565525 -37.921779 
L 353.297521 -38.172023 
L 354.029516 -38.416263 
L 354.761511 -38.65424 
L 355.493506 -38.885685 
L 356.225502 -39.110326 
L 356.957497 -39.327892 
L 357.689492 -39.538126 
L 358.421488 -39.740793 
L 359.153483 -39.935688 
L 359.885478 -40.122652 
L 360.617473 -40.301576 
L 361.349469 -40.472411 
L 362.081464 -40.635176 
L 362.813459 -40.789957 
L 363.545455 -40.936916 
L 364.27745 -41.076282 
L 365.009445 -41.208351 
L 365.74144 -41.333479 
L 366.473436 -41.45207 
L 367.205431 -41.564568 
L 367.937426 -41.671437 
L 368.669421 -41.773154 
L 369.401417 -41.870188 
L 370.133412 -41.962988 
L 370.865407 -42.05197 
L 371.597403 -42.137504 
L 372.329398 -42.219904 
L 373.061393 -42.299423 
L 373.793388 -42.376251 
L 374.525384 -42.450508 
L 375.257379 -42.522253 
L 375.989374 -42.591488 
L 376.72137 -42.658159 
L 377.453365 -42.722173 
L 378.18536 -42.783401 
L 378.917355 -42.841693 
L 379.649351 -42.896882 
L 380.381346 -42.948794 
L 381.113341 -42.997257 
L 381.845336 -43.042101 
L 382.577332 -43.083164 
L 383.309327 -43.120291 
L 384.041322 -43.153332 
L 384.773318 -43.182141 
L 385.505313 -43.206568 
L 386.237308 -43.22646 
L 386.969303 -43.241651 
L 387.701299 -43.251962 
L 388.433294 -43.257193 
L 389.165289 -43.257128 
L 389.897285 -43.251527 
L 390.62928 -43.240136 
L 391.361275 -43.222682 
L 392.09327 -43.198883 
L 392.825266 -43.168454 
L 393.557261 -43.131112 
L 394.289256 -43.086584 
L 395.021251 -43.034616 
L 395.753247 -42.974979 
L 396.485242 -42.907475 
L 397.217237 -42.831947 
L 397.949233 -42.748277 
L 398.681228 -42.656398 
L 399.413223 -42.556286 
L 400.145218 -42.447969 
L 400.877214 -42.331525 
L 401.609209 -42.207078 
L 402.341204 -42.074799 
L 403.0732 -41.934903 
L 403.805195 -41.787645 
L 404.53719 -41.633319 
L 405.269185 -41.472255 
L 406.001181 -41.304813 
L 406.733176 -41.131384 
L 407.465171 -40.952385 
L 408.197166 -40.768256 
L 408.929162 -40.579459 
L 409.661157 -40.386475 
L 410.393152 -40.189797 
L 411.125148 -39.989933 
L 411.857143 -39.787399 
L 412.589138 -39.582714 
L 413.321133 -39.376399 
L 414.053129 -39.168966 
L 414.785124 -38.960919 
L 415.517119 -38.752742 
L 416.249115 -38.544891 
L 416.98111 -38.337789 
L 417.713105 -38.131812 
L 418.4451 -37.927281 
L 419.177096 -37.72445 
L 419.909091 -37.523496 
L 420.641086 -37.324507 
L 421.373081 -37.127467 
L 422.105077 -36.932255 
L 422.837072 -36.738626 
L 423.569067 -36.546215 
L 424.301063 -36.354524 
L 425.033058 -36.162929 
L 425.765053 -35.970678 
L 426.497048 -35.776905 
L 427.229044 -35.580634 
L 427.961039 -35.380803 
L 428.693034 -35.17628 
L 429.42503 -34.965888 
L 430.157025 -34.748437 
L 430.88902 -34.522751 
L 431.621015 -34.287699 
L 432.353011 -34.042235 
L 433.085006 -33.785419 
L 433.817001 -33.516461 
L 434.548996 -33.234735 
L 435.280992 -32.939813 
L 436.012987 -32.631477 
L 436.744982 -32.309734 
L 437.476978 -31.97482 
L 438.208973 -31.6272 
L 438.940968 -31.267563 
L 439.672963 -30.896801 
L 440.404959 -30.515994 
L 441.136954 -30.126382 
L 441.868949 -29.729333 
L 442.600945 -29.326311 
L 443.33294 -28.918838 
L 444.064935 -28.508458 
L 444.79693 -28.096698 
L 445.528926 -27.685036 
L 446.260921 -27.274862 
L 446.992916 -26.867457 
L 447.724911 -26.463964 
L 448.456907 -26.065368 
L 449.188902 -25.672488 
L 449.920897 -25.285965 
L 450.652893 -24.906264 
L 451.384888 -24.533676 
L 452.116883 -24.168333 
L 452.848878 -23.810218 
L 453.580874 -23.459185 
L 454.312869 -23.114985 
L 455.044864 -22.777282 
L 455.77686 -22.445684 
L 456.508855 -22.119765 
L 457.24085 -21.799089 
L 457.972845 -21.483232 
L 458.704841 -21.171799 
L 459.436836 -20.864443 
L 460.168831 -20.560873 
L 460.900826 -20.260863 
L 461.632822 -19.964259 
L 462.364817 -19.670972 
L 463.096812 -19.380985 
L 463.828808 -19.094334 
L 464.560803 -18.811109 
L 465.292798 -18.531439 
L 466.024793 -18.255479 
L 466.756789 -17.983399 
L 467.488784 -17.71537 
L 468.220779 -17.451554 
L 468.952774 -17.192092 
L 469.68477 -16.937093 
L 470.416765 -16.686631 
L 471.14876 -16.440735 
L 471.880756 -16.19939 
L 472.612751 -15.962533 
L 473.344746 -15.730055 
L 474.076741 -15.5018 
L 474.808737 -15.277577 
L 475.540732 -15.057157 
L 476.272727 -14.840283 
L 477.004723 -14.626677 
L 477.736718 -14.416046 
L 478.468713 -14.208093 
L 479.200708 -14.002518 
L 479.932704 -13.799033 
L 480.664699 -13.597361 
L 481.396694 -13.397248 
L 482.128689 -13.198467 
L 482.860685 -13.00082 
L 483.59268 -12.804145 
L 484.324675 -12.608316 
L 485.056671 -12.413245 
L 485.788666 -12.218886 
L 486.520661 -12.025228 
L 487.252656 -11.8323 
L 487.984652 -11.640163 
L 488.716647 -11.448914 
L 489.448642 -11.258672 
L 490.180638 -11.069583 
L 490.912633 -10.88181 
L 491.644628 -10.695528 
L 492.376623 -10.51092 
L 493.108619 -10.328172 
L 493.840614 -10.147466 
L 494.572609 -9.968974 
L 495.304604 -9.792859 
L 496.0366 -9.619265 
L 496.768595 -9.448317 
L 497.50059 -9.280115 
L 498.232586 -9.114737 
L 498.964581 -8.952233 
L 499.696576 -8.792626 
L 500.428571 -8.635911 
L 501.160567 -8.482058 
L 501.892562 -8.331011 
L 502.624557 -8.182691 
L 503.356553 -8.036999 
L 504.088548 -7.893819 
L 504.820543 -7.75302 
L 505.552538 -7.614463 
L 506.284534 -7.478007 
L 507.016529 -7.343507 
L 507.748524 -7.210829 
L 508.480519 -7.079847 
L 509.212515 -6.950454 
L 509.94451 -6.822562 
L 510.676505 -6.696112 
L 511.408501 -6.571073 
L 512.140496 -6.447444 
L 512.872491 -6.325261 
L 513.604486 -6.204594 
L 514.336482 -6.085546 
L 515.068477 -5.968252 
L 515.800472 -5.852876 
L 516.532468 -5.739605 
L 517.264463 -5.628645 
L 517.996458 -5.520213 
L 518.728453 -5.414532 
L 519.460449 -5.31182 
L 520.192444 -5.212285 
L 520.924439 -5.116116 
L 521.656434 -5.023479 
L 522.38843 -4.934505 
L 523.120425 -4.849291 
L 523.85242 -4.767892 
L 524.584416 -4.690318 
L 525.316411 -4.616537 
L 526.048406 -4.546471 
L 526.780401 -4.479998 
L 527.512397 -4.416959 
L 528.244392 -4.357158 
L 528.976387 -4.300369 
L 529.708383 -4.246342 
L 530.440378 -4.194813 
L 531.172373 -4.145506 
L 531.904368 -4.098144 
L 532.636364 -4.052457 
L 532.636364 -2.470909 
L 532.636364 -2.470909 
L 531.904368 -2.470909 
L 531.172373 -2.470909 
L 530.440378 -2.470909 
L 529.708383 -2.470909 
L 528.976387 -2.470909 
L 528.244392 -2.470909 
L 527.512397 -2.470909 
L 526.780401 -2.470909 
L 526.048406 -2.470909 
L 525.316411 -2.470909 
L 524.584416 -2.470909 
L 523.85242 -2.470909 
L 523.120425 -2.470909 
L 522.38843 -2.470909 
L 521.656434 -2.470909 
L 520.924439 -2.470909 
L 520.192444 -2.470909 
L 519.460449 -2.470909 
L 518.728453 -2.470909 
L 517.996458 -2.470909 
L 517.264463 -2.470909 
L 516.532468 -2.470909 
L 515.800472 -2.470909 
L 515.068477 -2.470909 
L 514.336482 -2.470909 
L 513.604486 -2.470909 
L 512.872491 -2.470909 
L 512.140496 -2.470909 
L 511.408501 -2.470909 
L 510.676505 -2.470909 
L 509.94451 -2.470909 
L 509.212515 -2.470909 
L 508.480519 -2.470909 
L 507.748524 -2.470909 
L 507.016529 -2.470909 
L 506.284534 -2.470909 
L 505.552538 -2.470909 
L 504.820543 -2.470909 
L 504.088548 -2.470909 
L 503.356553 -2.470909 
L 502.624557 -2.470909 
L 501.892562 -2.470909 
L 501.160567 -2.470909 
L 500.428571 -2.470909 
L 499.696576 -2.470909 
L 498.964581 -2.470909 
L 498.232586 -2.470909 
L 497.50059 -2.470909 
L 496.768595 -2.470909 
L 496.0366 -2.470909 
L 495.304604 -2.470909 
L 494.572609 -2.470909 
L 493.840614 -2.470909 
L 493.108619 -2.470909 
L 492.376623 -2.470909 
L 491.644628 -2.470909 
L 490.912633 -2.470909 
L 490.180638 -2.470909 
L 489.448642 -2.470909 
L 488.716647 -2.470909 
L 487.984652 -2.470909 
L 487.252656 -2.470909 
L 486.520661 -2.470909 
L 485.788666 -2.470909 
L 485.056671 -2.470909 
L 484.324675 -2.470909 
L 483.59268 -2.470909 
L 482.860685 -2.470909 
L 482.128689 -2.470909 
L 481.396694 -2.470909 
L 480.664699 -2.470909 
L 479.932704 -2.470909 
L 479.200708 -2.470909 
L 478.468713 -2.470909 
L 477.736718 -2.470909 
L 477.004723 -2.470909 
L 476.272727 -2.470909 
L 475.540732 -2.470909 
L 474.808737 -2.470909 
L 474.076741 -2.470909 
L 473.344746 -2.470909 
L 472.612751 -2.470909 
L 471.880756 -2.470909 
L 471.14876 -2.470909 
L 470.416765 -2.470909 
L 469.68477 -2.470909 
L 468.952774 -2.470909 
L 468.220779 -2.470909 
L 467.488784 -2.470909 
L 466.756789 -2.470909 
L 466.024793 -2.470909 
L 465.292798 -2.470909 
L 464.560803 -2.470909 
L 463.828808 -2.470909 
L 463.096812 -2.470909 
L 462.364817 -2.470909 
L 461.632822 -2.470909 
L 460.900826 -2.470909 
L 460.168831 -2.470909 
L 459.436836 -2.470909 
L 458.704841 -2.470909 
L 457.972845 -2.470909 
L 457.24085 -2.470909 
L 456.508855 -2.470909 
L 455.77686 -2.470909 
L 455.044864 -2.470909 
L 454.312869 -2.470909 
L 453.580874 -2.470909 
L 452.848878 -2.470909 
L 452.116883 -2.470909 
L 451.384888 -2.470909 
L 450.652893 -2.470909 
L 449.920897 -2.470909 
L 449.188902 -2.470909 
L 448.456907 -2.470909 
L 447.724911 -2.470909 
L 446.992916 -2.470909 
L 446.260921 -2.470909 
L 445.528926 -2.470909 
L 444.79693 -2.470909 
L 444.064935 -2.470909 
L 443.33294 -2.470909 
L 442.600945 -2.470909 
L 441.868949 -2.470909 
L 441.136954 -2.470909 
L 440.404959 -2.470909 
L 439.672963 -2.470909 
L 438.940968 -2.470909 
L 438.208973 -2.470909 
L 437.476978 -2.470909 
L 436.744982 -2.470909 
L 436.012987 -2.470909 
L 435.280992 -2.470909 
L 434.548996 -2.470909 
L 433.817001 -2.470909 
L 433.085006 -2.470909 
L 432.353011 -2.470909 
L 431.621015 -2.470909 
L 430.88902 -2.470909 
L 430.157025 -2.470909 
L 429.42503 -2.470909 
L 428.693034 -2.470909 
L 427.961039 -2.470909 
L 427.229044 -2.470909 
L 426.497048 -2.470909 
L 425.765053 -2.470909 
L 425.033058 -2.470909 
L 424.301063 -2.470909 
L 423.569067 -2.470909 
L 422.837072 -2.470909 
L 422.105077 -2.470909 
L 421.373081 -2.470909 
L 420.641086 -2.470909 
L 419.909091 -2.470909 
L 419.177096 -2.470909 
L 418.4451 -2.470909 
L 417.713105 -2.470909 
L 416.98111 -2.470909 
L 416.249115 -2.470909 
L 415.517119 -2.470909 
L 414.785124 -2.470909 
L 414.053129 -2.470909 
L 413.321133 -2.470909 
L 412.589138 -2.470909 
L 411.857143 -2.470909 
L 411.125148 -2.470909 
L 410.393152 -2.470909 
L 409.661157 -2.470909 
L 408.929162 -2.470909 
L 408.197166 -2.470909 
L 407.465171 -2.470909 
L 406.733176 -2.470909 
L 406.001181 -2.470909 
L 405.269185 -2.470909 
L 404.53719 -2.470909 
L 403.805195 -2.470909 
L 403.0732 -2.470909 
L 402.341204 -2.470909 
L 401.609209 -2.470909 
L 400.877214 -2.470909 
L 400.145218 -2.470909 
L 399.413223 -2.470909 
L 398.681228 -2.470909 
L 397.949233 -2.470909 
L 397.217237 -2.470909 
L 396.485242 -2.470909 
L 395.753247 -2.470909 
L 395.021251 -2.470909 
L 394.289256 -2.470909 
L 393.557261 -2.470909 
L 392.825266 -2.470909 
L 392.09327 -2.470909 
L 391.361275 -2.470909 
L 390.62928 -2.470909 
L 389.897285 -2.470909 
L 389.165289 -2.470909 
L 388.433294 -2.470909 
L 387.701299 -2.470909 
L 386.969303 -2.470909 
L 386.237308 -2.470909 
L 385.505313 -2.470909 
L 384.773318 -2.470909 
L 384.041322 -2.470909 
L 383.309327 -2.470909 
L 382.577332 -2.470909 
L 381.845336 -2.470909 
L 381.113341 -2.470909 
L 380.381346 -2.470909 
L 379.649351 -2.470909 
L 378.917355 -2.470909 
L 378.18536 -2.470909 
L 377.453365 -2.470909 
L 376.72137 -2.470909 
L 375.989374 -2.470909 
L 375.257379 -2.470909 
L 374.525384 -2.470909 
L 373.793388 -2.470909 
L 373.061393 -2.470909 
L 372.329398 -2.470909 
L 371.597403 -2.470909 
L 370.865407 -2.470909 
L 370.133412 -2.470909 
L 369.401417 -2.470909 
L 368.669421 -2.470909 
L 367.937426 -2.470909 
L 367.205431 -2.470909 
L 366.473436 -2.470909 
L 365.74144 -2.470909 
L 365.009445 -2.470909 
L 364.27745 -2.470909 
L 363.545455 -2.470909 
L 362.813459 -2.470909 
L 362.081464 -2.470909 
L 361.349469 -2.470909 
L 360.617473 -2.470909 
L 359.885478 -2.470909 
L 359.153483 -2.470909 
L 358.421488 -2.470909 
L 357.689492 -2.470909 
L 356.957497 -2.470909 
L 356.225502 -2.470909 
L 355.493506 -2.470909 
L 354.761511 -2.470909 
L 354.029516 -2.470909 
L 353.297521 -2.470909 
L 352.565525 -2.470909 
L 351.83353 -2.470909 
L 351.101535 -2.470909 
L 350.36954 -2.470909 
L 349.637544 -2.470909 
L 348.905549 -2.470909 
L 348.173554 -2.470909 
L 347.441558 -2.470909 
L 346.709563 -2.470909 
L 345.977568 -2.470909 
L 345.245573 -2.470909 
L 344.513577 -2.470909 
L 343.781582 -2.470909 
L 343.049587 -2.470909 
L 342.317591 -2.470909 
L 341.585596 -2.470909 
L 340.853601 -2.470909 
L 340.121606 -2.470909 
L 339.38961 -2.470909 
L 338.657615 -2.470909 
L 337.92562 -2.470909 
L 337.193625 -2.470909 
L 336.461629 -2.470909 
L 335.729634 -2.470909 
L 334.997639 -2.470909 
L 334.265643 -2.470909 
L 333.533648 -2.470909 
L 332.801653 -2.470909 
L 332.069658 -2.470909 
L 331.337662 -2.470909 
L 330.605667 -2.470909 
L 329.873672 -2.470909 
L 329.141677 -2.470909 
L 328.409681 -2.470909 
L 327.677686 -2.470909 
L 326.945691 -2.470909 
L 326.213695 -2.470909 
L 325.4817 -2.470909 
L 324.749705 -2.470909 
L 324.01771 -2.470909 
L 323.285714 -2.470909 
L 322.553719 -2.470909 
L 321.821724 -2.470909 
L 321.089728 -2.470909 
L 320.357733 -2.470909 
L 319.625738 -2.470909 
L 318.893743 -2.470909 
L 318.161747 -2.470909 
L 317.429752 -2.470909 
L 316.697757 -2.470909 
L 315.965762 -2.470909 
L 315.233766 -2.470909 
L 314.501771 -2.470909 
L 313.769776 -2.470909 
L 313.03778 -2.470909 
L 312.305785 -2.470909 
L 311.57379 -2.470909 
L 310.841795 -2.470909 
L 310.109799 -2.470909 
L 309.377804 -2.470909 
L 308.645809 -2.470909 
L 307.913813 -2.470909 
L 307.181818 -2.470909 
L 306.449823 -2.470909 
L 305.717828 -2.470909 
L 304.985832 -2.470909 
L 304.253837 -2.470909 
L 303.521842 -2.470909 
L 302.789847 -2.470909 
L 302.057851 -2.470909 
L 301.325856 -2.470909 
L 300.593861 -2.470909 
L 299.861865 -2.470909 
L 299.12987 -2.470909 
L 298.397875 -2.470909 
L 297.66588 -2.470909 
L 296.933884 -2.470909 
L 296.201889 -2.470909 
L 295.469894 -2.470909 
L 294.737898 -2.470909 
L 294.005903 -2.470909 
L 293.273908 -2.470909 
L 292.541913 -2.470909 
L 291.809917 -2.470909 
L 291.077922 -2.470909 
L 290.345927 -2.470909 
L 289.613932 -2.470909 
L 288.881936 -2.470909 
L 288.149941 -2.470909 
L 287.417946 -2.470909 
L 286.68595 -2.470909 
L 285.953955 -2.470909 
L 285.22196 -2.470909 
L 284.489965 -2.470909 
L 283.757969 -2.470909 
L 283.025974 -2.470909 
L 282.293979 -2.470909 
L 281.561983 -2.470909 
L 280.829988 -2.470909 
L 280.097993 -2.470909 
L 279.365998 -2.470909 
L 278.634002 -2.470909 
L 277.902007 -2.470909 
L 277.170012 -2.470909 
L 276.438017 -2.470909 
L 275.706021 -2.470909 
L 274.974026 -2.470909 
L 274.242031 -2.470909 
L 273.510035 -2.470909 
L 272.77804 -2.470909 
L 272.046045 -2.470909 
L 271.31405 -2.470909 
L 270.582054 -2.470909 
L 269.850059 -2.470909 
L 269.118064 -2.470909 
L 268.386068 -2.470909 
L 267.654073 -2.470909 
L 266.922078 -2.470909 
L 266.190083 -2.470909 
L 265.458087 -2.470909 
L 264.726092 -2.470909 
L 263.994097 -2.470909 
L 263.262102 -2.470909 
L 262.530106 -2.470909 
L 261.798111 -2.470909 
L 261.066116 -2.470909 
L 260.33412 -2.470909 
L 259.602125 -2.470909 
L 258.87013 -2.470909 
L 258.138135 -2.470909 
L 257.406139 -2.470909 
L 256.674144 -2.470909 
L 255.942149 -2.470909 
L 255.210153 -2.470909 
L 254.478158 -2.470909 
L 253.746163 -2.470909 
L 253.014168 -2.470909 
L 252.282172 -2.470909 
L 251.550177 -2.470909 
L 250.818182 -2.470909 
L 250.086187 -2.470909 
L 249.354191 -2.470909 
L 248.622196 -2.470909 
L 247.890201 -2.470909 
L 247.158205 -2.470909 
L 246.42621 -2.470909 
L 245.694215 -2.470909 
z
" style="stroke: #cf1313; stroke-opacity: 0.2"/>
    </defs>
    <g clip-path="url(#pba8f8b3e7f)">
     <use xlink:href="#m7d7f488840" x="0" y="54.36" style="fill: #cf1313; fill-opacity: 0.2; stroke: #cf1313; stroke-opacity: 0.2"/>
    </g>
   </g>
   <g id="PolyCollection_2">
    <defs>
     <path id="mf3c8e60a43" d="M 89.047226 -2.470909 
L 89.047226 -4.04233 
L 89.779221 -4.097221 
L 90.511216 -4.156603 
L 91.243211 -4.22101 
L 91.975207 -4.29092 
L 92.707202 -4.366746 
L 93.439197 -4.448827 
L 94.171192 -4.53742 
L 94.903188 -4.632689 
L 95.635183 -4.734706 
L 96.367178 -4.84345 
L 97.099174 -4.958811 
L 97.831169 -5.080604 
L 98.563164 -5.208581 
L 99.295159 -5.342457 
L 100.027155 -5.481926 
L 100.75915 -5.626694 
L 101.491145 -5.776501 
L 102.22314 -5.931144 
L 102.955136 -6.090501 
L 103.687131 -6.254543 
L 104.419126 -6.423343 
L 105.151122 -6.59708 
L 105.883117 -6.77603 
L 106.615112 -6.960559 
L 107.347107 -7.151101 
L 108.079103 -7.348137 
L 108.811098 -7.55217 
L 109.543093 -7.7637 
L 110.275089 -7.983199 
L 111.007084 -8.211084 
L 111.739079 -8.447696 
L 112.471074 -8.693286 
L 113.20307 -8.947992 
L 113.935065 -9.211833 
L 114.66706 -9.484697 
L 115.399055 -9.766334 
L 116.131051 -10.056352 
L 116.863046 -10.354217 
L 117.595041 -10.659254 
L 118.327037 -10.970659 
L 119.059032 -11.287504 
L 119.791027 -11.608769 
L 120.523022 -11.933364 
L 121.255018 -12.26017 
L 121.987013 -12.588087 
L 122.719008 -12.916088 
L 123.451004 -13.243274 
L 124.182999 -13.568936 
L 124.914994 -13.892609 
L 125.646989 -14.214114 
L 126.378985 -14.533587 
L 127.11098 -14.851493 
L 127.842975 -15.168608 
L 128.57497 -15.485983 
L 129.306966 -15.804884 
L 130.038961 -16.12671 
L 130.770956 -16.452898 
L 131.502952 -16.784819 
L 132.234947 -17.123683 
L 132.966942 -17.470444 
L 133.698937 -17.825732 
L 134.430933 -18.189807 
L 135.162928 -18.562542 
L 135.894923 -18.943442 
L 136.626919 -19.331684 
L 137.358914 -19.726191 
L 138.090909 -20.125719 
L 138.822904 -20.52896 
L 139.5549 -20.934642 
L 140.286895 -21.341628 
L 141.01889 -21.748998 
L 141.750885 -22.156114 
L 142.482881 -22.562662 
L 143.214876 -22.968668 
L 143.946871 -23.374491 
L 144.678867 -23.780796 
L 145.410862 -24.188512 
L 146.142857 -24.598775 
L 146.874852 -25.012872 
L 147.606848 -25.432178 
L 148.338843 -25.858102 
L 149.070838 -26.292039 
L 149.802834 -26.735326 
L 150.534829 -27.189212 
L 151.266824 -27.654822 
L 151.998819 -28.133132 
L 152.730815 -28.624937 
L 153.46281 -29.130818 
L 154.194805 -29.651097 
L 154.9268 -30.185793 
L 155.658796 -30.734569 
L 156.390791 -31.296684 
L 157.122786 -31.870947 
L 157.854782 -32.45569 
L 158.586777 -33.048756 
L 159.318772 -33.647521 
L 160.050767 -34.248945 
L 160.782763 -34.849651 
L 161.514758 -35.446048 
L 162.246753 -36.034474 
L 162.978749 -36.611354 
L 163.710744 -37.173376 
L 164.442739 -37.717652 
L 165.174734 -38.241863 
L 165.90673 -38.744374 
L 166.638725 -39.224302 
L 167.37072 -39.68154 
L 168.102715 -40.116724 
L 168.834711 -40.531156 
L 169.566706 -40.926674 
L 170.298701 -41.305497 
L 171.030697 -41.670044 
L 171.762692 -42.022744 
L 172.494687 -42.365861 
L 173.226682 -42.701321 
L 173.958678 -43.030589 
L 174.690673 -43.354566 
L 175.422668 -43.673533 
L 176.154664 -43.987137 
L 176.886659 -44.294415 
L 177.618654 -44.593857 
L 178.350649 -44.883492 
L 179.082645 -45.161011 
L 179.81464 -45.423895 
L 180.546635 -45.669558 
L 181.27863 -45.895493 
L 182.010626 -46.099408 
L 182.742621 -46.279354 
L 183.474616 -46.433823 
L 184.206612 -46.561833 
L 184.938607 -46.662971 
L 185.670602 -46.737403 
L 186.402597 -46.785855 
L 187.134593 -46.809556 
L 187.866588 -46.810158 
L 188.598583 -46.789627 
L 189.330579 -46.750131 
L 190.062574 -46.693914 
L 190.794569 -46.623179 
L 191.526564 -46.539986 
L 192.25856 -46.446159 
L 192.990555 -46.343222 
L 193.72255 -46.23236 
L 194.454545 -46.114399 
L 195.186541 -45.989813 
L 195.918536 -45.85875 
L 196.650531 -45.721071 
L 197.382527 -45.576406 
L 198.114522 -45.424209 
L 198.846517 -45.263827 
L 199.578512 -45.094559 
L 200.310508 -44.915714 
L 201.042503 -44.726662 
L 201.774498 -44.526868 
L 202.506494 -44.315924 
L 203.238489 -44.093559 
L 203.970484 -43.859636 
L 204.702479 -43.614145 
L 205.434475 -43.357175 
L 206.16647 -43.088891 
L 206.898465 -42.809504 
L 207.63046 -42.519245 
L 208.362456 -42.218345 
L 209.094451 -41.907028 
L 209.826446 -41.585514 
L 210.558442 -41.254031 
L 211.290437 -40.912835 
L 212.022432 -40.562243 
L 212.754427 -40.202655 
L 213.486423 -39.834581 
L 214.218418 -39.45865 
L 214.950413 -39.075612 
L 215.682409 -38.686316 
L 216.414404 -38.291679 
L 217.146399 -37.892637 
L 217.878394 -37.490078 
L 218.61039 -37.084781 
L 219.342385 -36.677343 
L 220.07438 -36.268123 
L 220.806375 -35.857185 
L 221.538371 -35.444276 
L 222.270366 -35.028811 
L 223.002361 -34.609887 
L 223.734357 -34.186325 
L 224.466352 -33.756727 
L 225.198347 -33.319554 
L 225.930342 -32.873218 
L 226.662338 -32.41618 
L 227.394333 -31.947047 
L 228.126328 -31.46467 
L 228.858323 -30.96822 
L 229.590319 -30.457255 
L 230.322314 -29.931764 
L 231.054309 -29.392188 
L 231.786305 -28.839418 
L 232.5183 -28.274776 
L 233.250295 -27.699968 
L 233.98229 -27.117024 
L 234.714286 -26.528234 
L 235.446281 -25.936066 
L 236.178276 -25.343081 
L 236.910272 -24.75186 
L 237.642267 -24.164921 
L 238.374262 -23.584655 
L 239.106257 -23.013258 
L 239.838253 -22.452688 
L 240.570248 -21.904624 
L 241.302243 -21.37044 
L 242.034238 -20.851188 
L 242.766234 -20.347604 
L 243.498229 -19.860112 
L 244.230224 -19.38885 
L 244.96222 -18.933696 
L 245.694215 -18.49431 
L 246.42621 -18.070173 
L 247.158205 -17.660634 
L 247.890201 -17.264952 
L 248.622196 -16.882337 
L 249.354191 -16.511982 
L 250.086187 -16.153093 
L 250.818182 -15.804905 
L 251.550177 -15.466691 
L 252.282172 -15.137768 
L 253.014168 -14.817489 
L 253.746163 -14.50524 
L 254.478158 -14.200429 
L 255.210153 -13.902472 
L 255.942149 -13.610792 
L 256.674144 -13.324805 
L 257.406139 -13.043925 
L 258.138135 -12.767556 
L 258.87013 -12.4951 
L 259.602125 -12.225965 
L 260.33412 -11.95957 
L 261.066116 -11.695362 
L 261.798111 -11.43283 
L 262.530106 -11.171521 
L 263.262102 -10.911065 
L 263.994097 -10.651192 
L 264.726092 -10.39175 
L 265.458087 -10.132725 
L 266.190083 -9.874253 
L 266.922078 -9.616616 
L 267.654073 -9.36024 
L 268.386068 -9.105676 
L 269.118064 -8.853567 
L 269.850059 -8.604611 
L 270.582054 -8.359515 
L 271.31405 -8.118949 
L 272.046045 -7.883493 
L 272.77804 -7.653609 
L 273.510035 -7.429603 
L 274.242031 -7.211622 
L 274.974026 -6.99965 
L 275.706021 -6.793531 
L 276.438017 -6.593001 
L 277.170012 -6.397726 
L 277.902007 -6.207358 
L 278.634002 -6.021576 
L 279.365998 -5.840133 
L 280.097993 -5.662893 
L 280.829988 -5.489852 
L 281.561983 -5.321152 
L 282.293979 -5.157082 
L 283.025974 -4.998057 
L 283.757969 -4.844596 
L 284.489965 -4.697288 
L 285.22196 -4.556751 
L 285.22196 -2.470909 
L 285.22196 -2.470909 
L 284.489965 -2.470909 
L 283.757969 -2.470909 
L 283.025974 -2.470909 
L 282.293979 -2.470909 
L 281.561983 -2.470909 
L 280.829988 -2.470909 
L 280.097993 -2.470909 
L 279.365998 -2.470909 
L 278.634002 -2.470909 
L 277.902007 -2.470909 
L 277.170012 -2.470909 
L 276.438017 -2.470909 
L 275.706021 -2.470909 
L 274.974026 -2.470909 
L 274.242031 -2.470909 
L 273.510035 -2.470909 
L 272.77804 -2.470909 
L 272.046045 -2.470909 
L 271.31405 -2.470909 
L 270.582054 -2.470909 
L 269.850059 -2.470909 
L 269.118064 -2.470909 
L 268.386068 -2.470909 
L 267.654073 -2.470909 
L 266.922078 -2.470909 
L 266.190083 -2.470909 
L 265.458087 -2.470909 
L 264.726092 -2.470909 
L 263.994097 -2.470909 
L 263.262102 -2.470909 
L 262.530106 -2.470909 
L 261.798111 -2.470909 
L 261.066116 -2.470909 
L 260.33412 -2.470909 
L 259.602125 -2.470909 
L 258.87013 -2.470909 
L 258.138135 -2.470909 
L 257.406139 -2.470909 
L 256.674144 -2.470909 
L 255.942149 -2.470909 
L 255.210153 -2.470909 
L 254.478158 -2.470909 
L 253.746163 -2.470909 
L 253.014168 -2.470909 
L 252.282172 -2.470909 
L 251.550177 -2.470909 
L 250.818182 -2.470909 
L 250.086187 -2.470909 
L 249.354191 -2.470909 
L 248.622196 -2.470909 
L 247.890201 -2.470909 
L 247.158205 -2.470909 
L 246.42621 -2.470909 
L 245.694215 -2.470909 
L 244.96222 -2.470909 
L 244.230224 -2.470909 
L 243.498229 -2.470909 
L 242.766234 -2.470909 
L 242.034238 -2.470909 
L 241.302243 -2.470909 
L 240.570248 -2.470909 
L 239.838253 -2.470909 
L 239.106257 -2.470909 
L 238.374262 -2.470909 
L 237.642267 -2.470909 
L 236.910272 -2.470909 
L 236.178276 -2.470909 
L 235.446281 -2.470909 
L 234.714286 -2.470909 
L 233.98229 -2.470909 
L 233.250295 -2.470909 
L 232.5183 -2.470909 
L 231.786305 -2.470909 
L 231.054309 -2.470909 
L 230.322314 -2.470909 
L 229.590319 -2.470909 
L 228.858323 -2.470909 
L 228.126328 -2.470909 
L 227.394333 -2.470909 
L 226.662338 -2.470909 
L 225.930342 -2.470909 
L 225.198347 -2.470909 
L 224.466352 -2.470909 
L 223.734357 -2.470909 
L 223.002361 -2.470909 
L 222.270366 -2.470909 
L 221.538371 -2.470909 
L 220.806375 -2.470909 
L 220.07438 -2.470909 
L 219.342385 -2.470909 
L 218.61039 -2.470909 
L 217.878394 -2.470909 
L 217.146399 -2.470909 
L 216.414404 -2.470909 
L 215.682409 -2.470909 
L 214.950413 -2.470909 
L 214.218418 -2.470909 
L 213.486423 -2.470909 
L 212.754427 -2.470909 
L 212.022432 -2.470909 
L 211.290437 -2.470909 
L 210.558442 -2.470909 
L 209.826446 -2.470909 
L 209.094451 -2.470909 
L 208.362456 -2.470909 
L 207.63046 -2.470909 
L 206.898465 -2.470909 
L 206.16647 -2.470909 
L 205.434475 -2.470909 
L 204.702479 -2.470909 
L 203.970484 -2.470909 
L 203.238489 -2.470909 
L 202.506494 -2.470909 
L 201.774498 -2.470909 
L 201.042503 -2.470909 
L 200.310508 -2.470909 
L 199.578512 -2.470909 
L 198.846517 -2.470909 
L 198.114522 -2.470909 
L 197.382527 -2.470909 
L 196.650531 -2.470909 
L 195.918536 -2.470909 
L 195.186541 -2.470909 
L 194.454545 -2.470909 
L 193.72255 -2.470909 
L 192.990555 -2.470909 
L 192.25856 -2.470909 
L 191.526564 -2.470909 
L 190.794569 -2.470909 
L 190.062574 -2.470909 
L 189.330579 -2.470909 
L 188.598583 -2.470909 
L 187.866588 -2.470909 
L 187.134593 -2.470909 
L 186.402597 -2.470909 
L 185.670602 -2.470909 
L 184.938607 -2.470909 
L 184.206612 -2.470909 
L 183.474616 -2.470909 
L 182.742621 -2.470909 
L 182.010626 -2.470909 
L 181.27863 -2.470909 
L 180.546635 -2.470909 
L 179.81464 -2.470909 
L 179.082645 -2.470909 
L 178.350649 -2.470909 
L 177.618654 -2.470909 
L 176.886659 -2.470909 
L 176.154664 -2.470909 
L 175.422668 -2.470909 
L 174.690673 -2.470909 
L 173.958678 -2.470909 
L 173.226682 -2.470909 
L 172.494687 -2.470909 
L 171.762692 -2.470909 
L 171.030697 -2.470909 
L 170.298701 -2.470909 
L 169.566706 -2.470909 
L 168.834711 -2.470909 
L 168.102715 -2.470909 
L 167.37072 -2.470909 
L 166.638725 -2.470909 
L 165.90673 -2.470909 
L 165.174734 -2.470909 
L 164.442739 -2.470909 
L 163.710744 -2.470909 
L 162.978749 -2.470909 
L 162.246753 -2.470909 
L 161.514758 -2.470909 
L 160.782763 -2.470909 
L 160.050767 -2.470909 
L 159.318772 -2.470909 
L 158.586777 -2.470909 
L 157.854782 -2.470909 
L 157.122786 -2.470909 
L 156.390791 -2.470909 
L 155.658796 -2.470909 
L 154.9268 -2.470909 
L 154.194805 -2.470909 
L 153.46281 -2.470909 
L 152.730815 -2.470909 
L 151.998819 -2.470909 
L 151.266824 -2.470909 
L 150.534829 -2.470909 
L 149.802834 -2.470909 
L 149.070838 -2.470909 
L 148.338843 -2.470909 
L 147.606848 -2.470909 
L 146.874852 -2.470909 
L 146.142857 -2.470909 
L 145.410862 -2.470909 
L 144.678867 -2.470909 
L 143.946871 -2.470909 
L 143.214876 -2.470909 
L 142.482881 -2.470909 
L 141.750885 -2.470909 
L 141.01889 -2.470909 
L 140.286895 -2.470909 
L 139.5549 -2.470909 
L 138.822904 -2.470909 
L 138.090909 -2.470909 
L 137.358914 -2.470909 
L 136.626919 -2.470909 
L 135.894923 -2.470909 
L 135.162928 -2.470909 
L 134.430933 -2.470909 
L 133.698937 -2.470909 
L 132.966942 -2.470909 
L 132.234947 -2.470909 
L 131.502952 -2.470909 
L 130.770956 -2.470909 
L 130.038961 -2.470909 
L 129.306966 -2.470909 
L 128.57497 -2.470909 
L 127.842975 -2.470909 
L 127.11098 -2.470909 
L 126.378985 -2.470909 
L 125.646989 -2.470909 
L 124.914994 -2.470909 
L 124.182999 -2.470909 
L 123.451004 -2.470909 
L 122.719008 -2.470909 
L 121.987013 -2.470909 
L 121.255018 -2.470909 
L 120.523022 -2.470909 
L 119.791027 -2.470909 
L 119.059032 -2.470909 
L 118.327037 -2.470909 
L 117.595041 -2.470909 
L 116.863046 -2.470909 
L 116.131051 -2.470909 
L 115.399055 -2.470909 
L 114.66706 -2.470909 
L 113.935065 -2.470909 
L 113.20307 -2.470909 
L 112.471074 -2.470909 
L 111.739079 -2.470909 
L 111.007084 -2.470909 
L 110.275089 -2.470909 
L 109.543093 -2.470909 
L 108.811098 -2.470909 
L 108.079103 -2.470909 
L 107.347107 -2.470909 
L 106.615112 -2.470909 
L 105.883117 -2.470909 
L 105.151122 -2.470909 
L 104.419126 -2.470909 
L 103.687131 -2.470909 
L 102.955136 -2.470909 
L 102.22314 -2.470909 
L 101.491145 -2.470909 
L 100.75915 -2.470909 
L 100.027155 -2.470909 
L 99.295159 -2.470909 
L 98.563164 -2.470909 
L 97.831169 -2.470909 
L 97.099174 -2.470909 
L 96.367178 -2.470909 
L 95.635183 -2.470909 
L 94.903188 -2.470909 
L 94.171192 -2.470909 
L 93.439197 -2.470909 
L 92.707202 -2.470909 
L 91.975207 -2.470909 
L 91.243211 -2.470909 
L 90.511216 -2.470909 
L 89.779221 -2.470909 
L 89.047226 -2.470909 
z
" style="stroke: #116dc2; stroke-opacity: 0.2"/>
    </defs>
    <g clip-path="url(#pba8f8b3e7f)">
     <use xlink:href="#mf3c8e60a43" x="0" y="54.36" style="fill: #116dc2; fill-opacity: 0.2; stroke: #116dc2; stroke-opacity: 0.2"/>
    </g>
   </g>
   <g id="PolyCollection_3">
    <defs>
     <path id="m3f8c6a347c" d="M 25.363636 -2.470909 
L 25.363636 -3.963989 
L 26.095632 -4.078983 
L 26.827627 -4.219675 
L 27.559622 -4.389296 
L 28.291617 -4.589598 
L 29.023613 -4.820648 
L 29.755608 -5.080826 
L 30.487603 -5.366995 
L 31.219599 -5.6748 
L 31.951594 -5.999012 
L 32.683589 -6.333893 
L 33.415584 -6.67353 
L 34.14758 -7.012156 
L 34.879575 -7.344461 
L 35.61157 -7.665933 
L 36.343566 -7.973216 
L 37.075561 -8.264497 
L 37.807556 -8.539872 
L 38.539551 -8.801624 
L 39.271547 -9.054322 
L 40.003542 -9.304683 
L 40.735537 -9.561147 
L 41.467532 -9.833204 
L 42.199528 -10.130572 
L 42.931523 -10.462386 
L 43.663518 -10.836559 
L 44.395514 -11.259406 
L 45.127509 -11.735558 
L 45.859504 -12.268052 
L 46.591499 -12.858443 
L 47.323495 -13.506796 
L 48.05549 -14.211478 
L 48.787485 -14.968822 
L 49.519481 -15.77281 
L 50.251476 -16.614993 
L 50.983471 -17.484805 
L 51.715466 -18.37035 
L 52.447462 -19.259577 
L 53.179457 -20.141669 
L 53.911452 -21.008414 
L 54.643447 -21.855289 
L 55.375443 -22.682081 
L 56.107438 -23.492897 
L 56.839433 -24.295529 
L 57.571429 -25.100209 
L 58.303424 -25.9179 
L 59.035419 -26.758345 
L 59.767414 -27.628171 
L 60.49941 -28.529403 
L 61.231405 -29.458662 
L 61.9634 -30.407287 
L 62.695396 -31.362397 
L 63.427391 -32.308762 
L 64.159386 -33.231141 
L 64.891381 -34.116651 
L 65.623377 -34.956707 
L 66.355372 -35.748136 
L 67.087367 -36.493277 
L 67.819362 -37.199068 
L 68.551358 -37.875356 
L 69.283353 -38.532806 
L 70.015348 -39.18087 
L 70.747344 -39.826227 
L 71.479339 -40.471999 
L 72.211334 -41.117817 
L 72.943329 -41.760652 
L 73.675325 -42.396124 
L 74.40732 -43.01994 
L 75.139315 -43.629105 
L 75.871311 -44.222675 
L 76.603306 -44.801959 
L 77.335301 -45.370224 
L 78.067296 -45.932055 
L 78.799292 -46.492513 
L 79.531287 -47.056221 
L 80.263282 -47.626398 
L 80.995277 -48.203852 
L 81.727273 -48.78595 
L 82.459268 -49.36569 
L 83.191263 -49.931073 
L 83.923259 -50.465065 
L 84.655254 -50.946392 
L 85.387249 -51.351288 
L 86.119244 -51.65607 
L 86.85124 -51.840172 
L 87.583235 -51.889091 
L 88.31523 -51.796634 
L 89.047226 -51.565956 
L 89.779221 -51.209134 
L 90.511216 -50.745339 
L 91.243211 -50.197972 
L 91.975207 -49.591344 
L 92.707202 -48.947562 
L 93.439197 -48.284186 
L 94.171192 -47.613021 
L 94.903188 -46.940144 
L 95.635183 -46.266961 
L 96.367178 -45.591903 
L 97.099174 -44.912261 
L 97.831169 -44.225699 
L 98.563164 -43.53116 
L 99.295159 -42.829075 
L 100.027155 -42.121011 
L 100.75915 -41.409017 
L 101.491145 -40.694929 
L 102.22314 -39.979847 
L 102.955136 -39.263831 
L 103.687131 -38.545802 
L 104.419126 -37.82358 
L 105.151122 -37.094007 
L 105.883117 -36.353199 
L 106.615112 -35.596973 
L 107.347107 -34.821487 
L 108.079103 -34.024024 
L 108.811098 -33.20377 
L 109.543093 -32.362353 
L 110.275089 -31.50391 
L 111.007084 -30.634603 
L 111.739079 -29.761616 
L 112.471074 -28.891853 
L 113.20307 -28.030644 
L 113.935065 -27.180776 
L 114.66706 -26.342075 
L 115.399055 -25.511633 
L 116.131051 -24.684623 
L 116.863046 -23.855511 
L 117.595041 -23.019395 
L 118.327037 -22.173181 
L 119.059032 -21.316361 
L 119.791027 -20.45125 
L 120.523022 -19.58267 
L 121.255018 -18.717236 
L 121.987013 -17.862419 
L 122.719008 -17.025662 
L 123.451004 -16.213693 
L 124.182999 -15.432103 
L 124.914994 -14.685164 
L 125.646989 -13.975752 
L 126.378985 -13.30531 
L 127.11098 -12.673808 
L 127.842975 -12.079766 
L 128.57497 -11.520452 
L 129.306966 -10.992323 
L 130.038961 -10.491682 
L 130.770956 -10.015435 
L 131.502952 -9.561706 
L 132.234947 -9.130116 
L 132.966942 -8.721609 
L 133.698937 -8.33786 
L 134.430933 -7.980456 
L 135.162928 -7.650103 
L 135.894923 -7.346106 
L 136.626919 -7.06627 
L 137.358914 -6.807219 
L 138.090909 -6.56501 
L 138.822904 -6.335837 
L 139.5549 -6.116636 
L 140.286895 -5.905441 
L 141.01889 -5.701449 
L 141.750885 -5.504829 
L 142.482881 -5.316367 
L 143.214876 -5.137068 
L 143.946871 -4.967826 
L 144.678867 -4.809216 
L 145.410862 -4.661442 
L 146.142857 -4.524413 
L 146.874852 -4.397886 
L 147.606848 -4.281592 
L 148.338843 -4.175293 
L 148.338843 -2.470909 
L 148.338843 -2.470909 
L 147.606848 -2.470909 
L 146.874852 -2.470909 
L 146.142857 -2.470909 
L 145.410862 -2.470909 
L 144.678867 -2.470909 
L 143.946871 -2.470909 
L 143.214876 -2.470909 
L 142.482881 -2.470909 
L 141.750885 -2.470909 
L 141.01889 -2.470909 
L 140.286895 -2.470909 
L 139.5549 -2.470909 
L 138.822904 -2.470909 
L 138.090909 -2.470909 
L 137.358914 -2.470909 
L 136.626919 -2.470909 
L 135.894923 -2.470909 
L 135.162928 -2.470909 
L 134.430933 -2.470909 
L 133.698937 -2.470909 
L 132.966942 -2.470909 
L 132.234947 -2.470909 
L 131.502952 -2.470909 
L 130.770956 -2.470909 
L 130.038961 -2.470909 
L 129.306966 -2.470909 
L 128.57497 -2.470909 
L 127.842975 -2.470909 
L 127.11098 -2.470909 
L 126.378985 -2.470909 
L 125.646989 -2.470909 
L 124.914994 -2.470909 
L 124.182999 -2.470909 
L 123.451004 -2.470909 
L 122.719008 -2.470909 
L 121.987013 -2.470909 
L 121.255018 -2.470909 
L 120.523022 -2.470909 
L 119.791027 -2.470909 
L 119.059032 -2.470909 
L 118.327037 -2.470909 
L 117.595041 -2.470909 
L 116.863046 -2.470909 
L 116.131051 -2.470909 
L 115.399055 -2.470909 
L 114.66706 -2.470909 
L 113.935065 -2.470909 
L 113.20307 -2.470909 
L 112.471074 -2.470909 
L 111.739079 -2.470909 
L 111.007084 -2.470909 
L 110.275089 -2.470909 
L 109.543093 -2.470909 
L 108.811098 -2.470909 
L 108.079103 -2.470909 
L 107.347107 -2.470909 
L 106.615112 -2.470909 
L 105.883117 -2.470909 
L 105.151122 -2.470909 
L 104.419126 -2.470909 
L 103.687131 -2.470909 
L 102.955136 -2.470909 
L 102.22314 -2.470909 
L 101.491145 -2.470909 
L 100.75915 -2.470909 
L 100.027155 -2.470909 
L 99.295159 -2.470909 
L 98.563164 -2.470909 
L 97.831169 -2.470909 
L 97.099174 -2.470909 
L 96.367178 -2.470909 
L 95.635183 -2.470909 
L 94.903188 -2.470909 
L 94.171192 -2.470909 
L 93.439197 -2.470909 
L 92.707202 -2.470909 
L 91.975207 -2.470909 
L 91.243211 -2.470909 
L 90.511216 -2.470909 
L 89.779221 -2.470909 
L 89.047226 -2.470909 
L 88.31523 -2.470909 
L 87.583235 -2.470909 
L 86.85124 -2.470909 
L 86.119244 -2.470909 
L 85.387249 -2.470909 
L 84.655254 -2.470909 
L 83.923259 -2.470909 
L 83.191263 -2.470909 
L 82.459268 -2.470909 
L 81.727273 -2.470909 
L 80.995277 -2.470909 
L 80.263282 -2.470909 
L 79.531287 -2.470909 
L 78.799292 -2.470909 
L 78.067296 -2.470909 
L 77.335301 -2.470909 
L 76.603306 -2.470909 
L 75.871311 -2.470909 
L 75.139315 -2.470909 
L 74.40732 -2.470909 
L 73.675325 -2.470909 
L 72.943329 -2.470909 
L 72.211334 -2.470909 
L 71.479339 -2.470909 
L 70.747344 -2.470909 
L 70.015348 -2.470909 
L 69.283353 -2.470909 
L 68.551358 -2.470909 
L 67.819362 -2.470909 
L 67.087367 -2.470909 
L 66.355372 -2.470909 
L 65.623377 -2.470909 
L 64.891381 -2.470909 
L 64.159386 -2.470909 
L 63.427391 -2.470909 
L 62.695396 -2.470909 
L 61.9634 -2.470909 
L 61.231405 -2.470909 
L 60.49941 -2.470909 
L 59.767414 -2.470909 
L 59.035419 -2.470909 
L 58.303424 -2.470909 
L 57.571429 -2.470909 
L 56.839433 -2.470909 
L 56.107438 -2.470909 
L 55.375443 -2.470909 
L 54.643447 -2.470909 
L 53.911452 -2.470909 
L 53.179457 -2.470909 
L 52.447462 -2.470909 
L 51.715466 -2.470909 
L 50.983471 -2.470909 
L 50.251476 -2.470909 
L 49.519481 -2.470909 
L 48.787485 -2.470909 
L 48.05549 -2.470909 
L 47.323495 -2.470909 
L 46.591499 -2.470909 
L 45.859504 -2.470909 
L 45.127509 -2.470909 
L 44.395514 -2.470909 
L 43.663518 -2.470909 
L 42.931523 -2.470909 
L 42.199528 -2.470909 
L 41.467532 -2.470909 
L 40.735537 -2.470909 
L 40.003542 -2.470909 
L 39.271547 -2.470909 
L 38.539551 -2.470909 
L 37.807556 -2.470909 
L 37.075561 -2.470909 
L 36.343566 -2.470909 
L 35.61157 -2.470909 
L 34.879575 -2.470909 
L 34.14758 -2.470909 
L 33.415584 -2.470909 
L 32.683589 -2.470909 
L 31.951594 -2.470909 
L 31.219599 -2.470909 
L 30.487603 -2.470909 
L 29.755608 -2.470909 
L 29.023613 -2.470909 
L 28.291617 -2.470909 
L 27.559622 -2.470909 
L 26.827627 -2.470909 
L 26.095632 -2.470909 
L 25.363636 -2.470909 
z
" style="stroke: #8a8a8a; stroke-opacity: 0.2"/>
    </defs>
    <g clip-path="url(#pba8f8b3e7f)">
     <use xlink:href="#m3f8c6a347c" x="0" y="54.36" style="fill: #8a8a8a; fill-opacity: 0.2; stroke: #8a8a8a; stroke-opacity: 0.2"/>
    </g>
   </g>
   <g id="line2d_1">
    <path d="M 245.694215 49.77616 
L 252.282172 48.82354 
L 261.798111 47.199347 
L 270.582054 45.484856 
L 281.561983 43.096698 
L 287.417946 41.608855 
L 292.541913 40.066994 
L 299.861865 37.590562 
L 318.893743 30.887141 
L 324.01771 28.78371 
L 330.605667 25.820009 
L 343.049587 20.151015 
L 348.905549 17.771748 
L 354.029516 15.943737 
L 358.421488 14.619207 
L 362.081464 13.724824 
L 366.473436 12.90793 
L 371.597403 12.222496 
L 378.18536 11.576599 
L 384.041322 11.206668 
L 389.165289 11.102872 
L 393.557261 11.228888 
L 397.217237 11.528053 
L 400.877214 12.028475 
L 405.269185 12.887745 
L 410.393152 14.170203 
L 431.621015 20.072301 
L 434.548996 21.125265 
L 437.476978 22.38518 
L 441.136954 24.233618 
L 453.580874 30.900815 
L 458.704841 33.188201 
L 464.560803 35.548891 
L 470.416765 37.673369 
L 475.540732 39.302843 
L 482.860685 41.35918 
L 494.572609 44.391026 
L 501.160567 45.877942 
L 508.480519 47.280153 
L 517.264463 48.731355 
L 523.120425 49.510709 
L 528.976387 50.059631 
L 532.636364 50.307543 
L 532.636364 50.307543 
" clip-path="url(#pba8f8b3e7f)" style="fill: none; stroke: #cf1313; stroke-width: 1.5; stroke-linecap: square"/>
   </g>
   <g id="line2d_2">
    <path d="M 89.047226 50.31767 
L 94.171192 49.82258 
L 98.563164 49.151419 
L 103.687131 48.105457 
L 108.079103 47.011863 
L 111.739079 45.912304 
L 115.399055 44.593666 
L 119.791027 42.751231 
L 134.430933 36.170193 
L 138.822904 33.83104 
L 149.802834 27.624674 
L 153.46281 25.229182 
L 156.390791 23.063316 
L 161.514758 18.913952 
L 164.442739 16.642348 
L 167.37072 14.67846 
L 170.298701 13.054503 
L 173.958678 11.329411 
L 178.350649 9.476508 
L 181.27863 8.464507 
L 183.474616 7.926177 
L 185.670602 7.622597 
L 187.866588 7.549842 
L 190.794569 7.736821 
L 194.454545 8.245601 
L 198.846517 9.096173 
L 202.506494 10.044076 
L 206.16647 11.271109 
L 209.826446 12.774486 
L 213.486423 14.525419 
L 218.61039 17.275219 
L 225.198347 21.040446 
L 228.858323 23.39178 
L 231.786305 25.520582 
L 236.910272 29.60814 
L 241.302243 32.98956 
L 244.230224 34.97115 
L 247.158205 36.699366 
L 250.818182 38.555095 
L 254.478158 40.159571 
L 259.602125 42.134035 
L 269.850059 45.755389 
L 274.974026 47.36035 
L 280.097993 48.697107 
L 285.22196 49.803249 
L 285.22196 49.803249 
" clip-path="url(#pba8f8b3e7f)" style="fill: none; stroke: #116dc2; stroke-width: 1.5; stroke-linecap: square"/>
   </g>
   <g id="line2d_3">
    <path d="M 25.363636 50.396011 
L 27.559622 49.970704 
L 29.755608 49.279174 
L 32.683589 48.026107 
L 37.075561 46.095503 
L 43.663518 43.523441 
L 45.127509 42.624442 
L 46.591499 41.501557 
L 48.05549 40.148522 
L 50.251476 37.745007 
L 56.839433 30.064471 
L 59.767414 26.731829 
L 63.427391 22.051238 
L 65.623377 19.403293 
L 67.819362 17.160932 
L 72.211334 13.242183 
L 75.871311 10.137325 
L 83.923259 3.894935 
L 85.387249 3.008712 
L 86.119244 2.70393 
L 86.85124 2.519828 
L 87.583235 2.470909 
L 88.31523 2.563366 
L 89.047226 2.794044 
L 90.511216 3.614661 
L 91.975207 4.768656 
L 96.367178 8.768097 
L 101.491145 13.665071 
L 107.347107 19.538513 
L 110.275089 22.85609 
L 116.131051 29.675377 
L 121.255018 35.642764 
L 124.182999 38.927897 
L 126.378985 41.05469 
L 128.57497 42.839548 
L 130.770956 44.344565 
L 132.966942 45.638391 
L 135.162928 46.709897 
L 137.358914 47.552781 
L 141.01889 48.658551 
L 144.678867 49.550784 
L 148.338843 50.184707 
L 148.338843 50.184707 
" clip-path="url(#pba8f8b3e7f)" style="fill: none; stroke: #8a8a8a; stroke-width: 1.5; stroke-linecap: square"/>
   </g>
  </g>
 </g>
 <defs>
  <clipPath id="pba8f8b3e7f">
   <rect x="0" y="-0" width="558" height="54.36"/>
  </clipPath>
 </defs>
</svg>
