<?xml version="1.0" encoding="utf-8" standalone="no"?>
<!DOCTYPE svg PUBLIC "-//W3C//DTD SVG 1.1//EN"
  "http://www.w3.org/Graphics/SVG/1.1/DTD/svg11.dtd">
<svg xmlns:xlink="http://www.w3.org/1999/xlink" width="558pt" height="54.36pt" viewBox="0 0 558 54.36" xmlns="http://www.w3.org/2000/svg" version="1.1">
 <metadata>
  <rdf:RDF xmlns:dc="http://purl.org/dc/elements/1.1/" xmlns:cc="http://creativecommons.org/ns#" xmlns:rdf="http://www.w3.org/1999/02/22-rdf-syntax-ns#">
   <cc:Work>
    <dc:type rdf:resource="http://purl.org/dc/dcmitype/StillImage"/>
    <dc:date>2024-09-14T12:46:39.247068</dc:date>
    <dc:format>image/svg+xml</dc:format>
    <dc:creator>
     <cc:Agent>
      <dc:title>Matplotlib v3.5.2, https://matplotlib.org/</dc:title>
     </cc:Agent>
    </dc:creator>
   </cc:Work>
  </rdf:RDF>
 </metadata>
 <defs>
  <style type="text/css">*{stroke-linejoin: round; stroke-linecap: butt}</style>
 </defs>
 <g id="figure_1">
  <g id="patch_1">
   <path d="M 0 54.36 
L 558 54.36 
L 558 0 
L 0 0 
L 0 54.36 
z
" style="fill: none; opacity: 0"/>
  </g>
  <g id="axes_1">
   <g id="PolyCollection_1">
    <defs>
     <path id="mb9aa59bc22" d="M 237.693506 -2.470909 
L 237.693506 -4.303142 
L 238.418182 -4.385876 
L 239.142857 -4.471351 
L 239.867532 -4.559212 
L 240.592208 -4.649076 
L 241.316883 -4.740549 
L 242.041558 -4.833235 
L 242.766234 -4.926745 
L 243.490909 -5.02071 
L 244.215584 -5.114795 
L 244.94026 -5.208704 
L 245.664935 -5.302192 
L 246.38961 -5.395071 
L 247.114286 -5.487213 
L 247.838961 -5.578559 
L 248.563636 -5.669111 
L 249.288312 -5.75894 
L 250.012987 -5.848173 
L 250.737662 -5.936997 
L 251.462338 -6.025644 
L 252.187013 -6.114388 
L 252.911688 -6.203534 
L 253.636364 -6.293406 
L 254.361039 -6.384341 
L 255.085714 -6.476675 
L 255.81039 -6.570739 
L 256.535065 -6.666843 
L 257.25974 -6.765274 
L 257.984416 -6.86629 
L 258.709091 -6.970109 
L 259.433766 -7.076913 
L 260.158442 -7.18684 
L 260.883117 -7.299987 
L 261.607792 -7.416406 
L 262.332468 -7.536109 
L 263.057143 -7.659072 
L 263.781818 -7.785233 
L 264.506494 -7.9145 
L 265.231169 -8.046754 
L 265.955844 -8.181856 
L 266.680519 -8.319651 
L 267.405195 -8.459973 
L 268.12987 -8.60265 
L 268.854545 -8.747512 
L 269.579221 -8.894392 
L 270.303896 -9.043136 
L 271.028571 -9.193603 
L 271.753247 -9.345669 
L 272.477922 -9.499234 
L 273.202597 -9.654218 
L 273.927273 -9.81057 
L 274.651948 -9.968262 
L 275.376623 -10.127294 
L 276.101299 -10.28769 
L 276.825974 -10.449496 
L 277.550649 -10.612779 
L 278.275325 -10.777623 
L 279 -10.944126 
L 279.724675 -11.112391 
L 280.449351 -11.28253 
L 281.174026 -11.454649 
L 281.898701 -11.628854 
L 282.623377 -11.805237 
L 283.348052 -11.983882 
L 284.072727 -12.164856 
L 284.797403 -12.348209 
L 285.522078 -12.533977 
L 286.246753 -12.722176 
L 286.971429 -12.912813 
L 287.696104 -13.105883 
L 288.420779 -13.301373 
L 289.145455 -13.499273 
L 289.87013 -13.699578 
L 290.594805 -13.902297 
L 291.319481 -14.107458 
L 292.044156 -14.315117 
L 292.768831 -14.525364 
L 293.493506 -14.738331 
L 294.218182 -14.954191 
L 294.942857 -15.173168 
L 295.667532 -15.395534 
L 296.392208 -15.621611 
L 297.116883 -15.851766 
L 297.841558 -16.086405 
L 298.566234 -16.325971 
L 299.290909 -16.570926 
L 300.015584 -16.821747 
L 300.74026 -17.078906 
L 301.464935 -17.34286 
L 302.18961 -17.614032 
L 302.914286 -17.892797 
L 303.638961 -18.179464 
L 304.363636 -18.474263 
L 305.088312 -18.777333 
L 305.812987 -19.088706 
L 306.537662 -19.408304 
L 307.262338 -19.735931 
L 307.987013 -20.071271 
L 308.711688 -20.413891 
L 309.436364 -20.763248 
L 310.161039 -21.118695 
L 310.885714 -21.479499 
L 311.61039 -21.84485 
L 312.335065 -22.213887 
L 313.05974 -22.585715 
L 313.784416 -22.959425 
L 314.509091 -23.334121 
L 315.233766 -23.708937 
L 315.958442 -24.08306 
L 316.683117 -24.455746 
L 317.407792 -24.826341 
L 318.132468 -25.19429 
L 318.857143 -25.559146 
L 319.581818 -25.920578 
L 320.306494 -26.278372 
L 321.031169 -26.63243 
L 321.755844 -26.982762 
L 322.480519 -27.329482 
L 323.205195 -27.672793 
L 323.92987 -28.012977 
L 324.654545 -28.350378 
L 325.379221 -28.685389 
L 326.103896 -29.018438 
L 326.828571 -29.349967 
L 327.553247 -29.680425 
L 328.277922 -30.010251 
L 329.002597 -30.339862 
L 329.727273 -30.669647 
L 330.451948 -30.999954 
L 331.176623 -31.33109 
L 331.901299 -31.663307 
L 332.625974 -31.996808 
L 333.350649 -32.331737 
L 334.075325 -32.668183 
L 334.8 -33.006173 
L 335.524675 -33.345677 
L 336.249351 -33.686604 
L 336.974026 -34.0288 
L 337.698701 -34.372052 
L 338.423377 -34.716083 
L 339.148052 -35.060554 
L 339.872727 -35.405064 
L 340.597403 -35.749148 
L 341.322078 -36.092282 
L 342.046753 -36.433882 
L 342.771429 -36.773307 
L 343.496104 -37.109869 
L 344.220779 -37.44283 
L 344.945455 -37.771417 
L 345.67013 -38.09483 
L 346.394805 -38.412248 
L 347.119481 -38.722846 
L 347.844156 -39.025804 
L 348.568831 -39.320322 
L 349.293506 -39.605632 
L 350.018182 -39.881013 
L 350.742857 -40.145799 
L 351.467532 -40.399396 
L 352.192208 -40.641287 
L 352.916883 -40.871046 
L 353.641558 -41.088337 
L 354.366234 -41.292924 
L 355.090909 -41.484672 
L 355.815584 -41.663546 
L 356.54026 -41.829607 
L 357.264935 -41.983013 
L 357.98961 -42.12401 
L 358.714286 -42.252925 
L 359.438961 -42.370161 
L 360.163636 -42.476184 
L 360.888312 -42.571517 
L 361.612987 -42.656729 
L 362.337662 -42.732425 
L 363.062338 -42.799241 
L 363.787013 -42.857828 
L 364.511688 -42.908851 
L 365.236364 -42.952976 
L 365.961039 -42.990869 
L 366.685714 -43.023184 
L 367.41039 -43.050561 
L 368.135065 -43.073624 
L 368.85974 -43.09297 
L 369.584416 -43.109176 
L 370.309091 -43.122786 
L 371.033766 -43.134319 
L 371.758442 -43.144259 
L 372.483117 -43.153059 
L 373.207792 -43.161139 
L 373.932468 -43.168881 
L 374.657143 -43.176633 
L 375.381818 -43.184702 
L 376.106494 -43.193359 
L 376.831169 -43.202828 
L 377.555844 -43.213292 
L 378.280519 -43.224886 
L 379.005195 -43.237697 
L 379.72987 -43.251758 
L 380.454545 -43.267051 
L 381.179221 -43.283504 
L 381.903896 -43.300991 
L 382.628571 -43.319331 
L 383.353247 -43.338293 
L 384.077922 -43.357599 
L 384.802597 -43.376925 
L 385.527273 -43.395913 
L 386.251948 -43.41417 
L 386.976623 -43.43128 
L 387.701299 -43.446812 
L 388.425974 -43.460323 
L 389.150649 -43.471365 
L 389.875325 -43.479493 
L 390.6 -43.484264 
L 391.324675 -43.485243 
L 392.049351 -43.481997 
L 392.774026 -43.4741 
L 393.498701 -43.461121 
L 394.223377 -43.442623 
L 394.948052 -43.418158 
L 395.672727 -43.387255 
L 396.397403 -43.349417 
L 397.122078 -43.304118 
L 397.846753 -43.250796 
L 398.571429 -43.188853 
L 399.296104 -43.117658 
L 400.020779 -43.036557 
L 400.745455 -42.944872 
L 401.47013 -42.841926 
L 402.194805 -42.72705 
L 402.919481 -42.599605 
L 403.644156 -42.459002 
L 404.368831 -42.304725 
L 405.093506 -42.136347 
L 405.818182 -41.953558 
L 406.542857 -41.756177 
L 407.267532 -41.544168 
L 407.992208 -41.317655 
L 408.716883 -41.076926 
L 409.441558 -40.822437 
L 410.166234 -40.554806 
L 410.890909 -40.274809 
L 411.615584 -39.983363 
L 412.34026 -39.681514 
L 413.064935 -39.37041 
L 413.78961 -39.051283 
L 414.514286 -38.725418 
L 415.238961 -38.39413 
L 415.963636 -38.058734 
L 416.688312 -37.720521 
L 417.412987 -37.380728 
L 418.137662 -37.040521 
L 418.862338 -36.70097 
L 419.587013 -36.363035 
L 420.311688 -36.027553 
L 421.036364 -35.695224 
L 421.761039 -35.366611 
L 422.485714 -35.042131 
L 423.21039 -34.722065 
L 423.935065 -34.406552 
L 424.65974 -34.095606 
L 425.384416 -33.789117 
L 426.109091 -33.48687 
L 426.833766 -33.188552 
L 427.558442 -32.89377 
L 428.283117 -32.602066 
L 429.007792 -32.312929 
L 429.732468 -32.025815 
L 430.457143 -31.74016 
L 431.181818 -31.455393 
L 431.906494 -31.170953 
L 432.631169 -30.886297 
L 433.355844 -30.600916 
L 434.080519 -30.314342 
L 434.805195 -30.026156 
L 435.52987 -29.735994 
L 436.254545 -29.443554 
L 436.979221 -29.148594 
L 437.703896 -28.85094 
L 438.428571 -28.550478 
L 439.153247 -28.247159 
L 439.877922 -27.94099 
L 440.602597 -27.632034 
L 441.327273 -27.320405 
L 442.051948 -27.00626 
L 442.776623 -26.689798 
L 443.501299 -26.371251 
L 444.225974 -26.050884 
L 444.950649 -25.728985 
L 445.675325 -25.405868 
L 446.4 -25.081866 
L 447.124675 -24.757327 
L 447.849351 -24.432618 
L 448.574026 -24.108119 
L 449.298701 -23.784219 
L 450.023377 -23.46132 
L 450.748052 -23.13983 
L 451.472727 -22.820159 
L 452.197403 -22.502718 
L 452.922078 -22.18791 
L 453.646753 -21.876125 
L 454.371429 -21.567733 
L 455.096104 -21.263075 
L 455.820779 -20.962457 
L 456.545455 -20.666139 
L 457.27013 -20.374327 
L 457.994805 -20.087171 
L 458.719481 -19.804755 
L 459.444156 -19.527096 
L 460.168831 -19.254142 
L 460.893506 -18.985777 
L 461.618182 -18.72182 
L 462.342857 -18.462034 
L 463.067532 -18.206138 
L 463.792208 -17.953813 
L 464.516883 -17.704718 
L 465.241558 -17.458501 
L 465.966234 -17.214816 
L 466.690909 -16.973331 
L 467.415584 -16.733745 
L 468.14026 -16.495795 
L 468.864935 -16.259268 
L 469.58961 -16.024001 
L 470.314286 -15.789889 
L 471.038961 -15.556885 
L 471.763636 -15.324992 
L 472.488312 -15.094265 
L 473.212987 -14.864798 
L 473.937662 -14.636722 
L 474.662338 -14.410189 
L 475.387013 -14.185364 
L 476.111688 -13.962419 
L 476.836364 -13.741519 
L 477.561039 -13.522815 
L 478.285714 -13.306443 
L 479.01039 -13.092509 
L 479.735065 -12.881097 
L 480.45974 -12.67226 
L 481.184416 -12.466024 
L 481.909091 -12.262389 
L 482.633766 -12.061335 
L 483.358442 -11.86282 
L 484.083117 -11.666789 
L 484.807792 -11.473181 
L 485.532468 -11.281926 
L 486.257143 -11.092957 
L 486.981818 -10.90621 
L 487.706494 -10.721629 
L 488.431169 -10.539169 
L 489.155844 -10.358793 
L 489.880519 -10.180482 
L 490.605195 -10.004228 
L 491.32987 -9.830037 
L 492.054545 -9.657929 
L 492.779221 -9.487936 
L 493.503896 -9.320103 
L 494.228571 -9.154484 
L 494.953247 -8.99114 
L 495.677922 -8.83014 
L 496.402597 -8.671558 
L 497.127273 -8.515466 
L 497.851948 -8.361941 
L 498.576623 -8.211053 
L 499.301299 -8.062869 
L 500.025974 -7.917446 
L 500.750649 -7.774831 
L 501.475325 -7.635058 
L 502.2 -7.498146 
L 502.924675 -7.364096 
L 503.649351 -7.232893 
L 504.374026 -7.104499 
L 505.098701 -6.978861 
L 505.823377 -6.855905 
L 506.548052 -6.735541 
L 507.272727 -6.617663 
L 507.997403 -6.502153 
L 508.722078 -6.388887 
L 509.446753 -6.277733 
L 510.171429 -6.168563 
L 510.896104 -6.06125 
L 511.620779 -5.955682 
L 512.345455 -5.851759 
L 513.07013 -5.749402 
L 513.794805 -5.648555 
L 514.519481 -5.549191 
L 515.244156 -5.451313 
L 515.968831 -5.354957 
L 516.693506 -5.26019 
L 517.418182 -5.167114 
L 518.142857 -5.075858 
L 518.867532 -4.986583 
L 519.592208 -4.899471 
L 520.316883 -4.814724 
L 521.041558 -4.732555 
L 521.766234 -4.653183 
L 522.490909 -4.576827 
L 523.215584 -4.503695 
L 523.94026 -4.433978 
L 524.664935 -4.367845 
L 525.38961 -4.30543 
L 526.114286 -4.246832 
L 526.838961 -4.192108 
L 527.563636 -4.141266 
L 528.288312 -4.094269 
L 529.012987 -4.051025 
L 529.737662 -4.011398 
L 530.462338 -3.975199 
L 531.187013 -3.942198 
L 531.911688 -3.912124 
L 532.636364 -3.884674 
L 532.636364 -2.470909 
L 532.636364 -2.470909 
L 531.911688 -2.470909 
L 531.187013 -2.470909 
L 530.462338 -2.470909 
L 529.737662 -2.470909 
L 529.012987 -2.470909 
L 528.288312 -2.470909 
L 527.563636 -2.470909 
L 526.838961 -2.470909 
L 526.114286 -2.470909 
L 525.38961 -2.470909 
L 524.664935 -2.470909 
L 523.94026 -2.470909 
L 523.215584 -2.470909 
L 522.490909 -2.470909 
L 521.766234 -2.470909 
L 521.041558 -2.470909 
L 520.316883 -2.470909 
L 519.592208 -2.470909 
L 518.867532 -2.470909 
L 518.142857 -2.470909 
L 517.418182 -2.470909 
L 516.693506 -2.470909 
L 515.968831 -2.470909 
L 515.244156 -2.470909 
L 514.519481 -2.470909 
L 513.794805 -2.470909 
L 513.07013 -2.470909 
L 512.345455 -2.470909 
L 511.620779 -2.470909 
L 510.896104 -2.470909 
L 510.171429 -2.470909 
L 509.446753 -2.470909 
L 508.722078 -2.470909 
L 507.997403 -2.470909 
L 507.272727 -2.470909 
L 506.548052 -2.470909 
L 505.823377 -2.470909 
L 505.098701 -2.470909 
L 504.374026 -2.470909 
L 503.649351 -2.470909 
L 502.924675 -2.470909 
L 502.2 -2.470909 
L 501.475325 -2.470909 
L 500.750649 -2.470909 
L 500.025974 -2.470909 
L 499.301299 -2.470909 
L 498.576623 -2.470909 
L 497.851948 -2.470909 
L 497.127273 -2.470909 
L 496.402597 -2.470909 
L 495.677922 -2.470909 
L 494.953247 -2.470909 
L 494.228571 -2.470909 
L 493.503896 -2.470909 
L 492.779221 -2.470909 
L 492.054545 -2.470909 
L 491.32987 -2.470909 
L 490.605195 -2.470909 
L 489.880519 -2.470909 
L 489.155844 -2.470909 
L 488.431169 -2.470909 
L 487.706494 -2.470909 
L 486.981818 -2.470909 
L 486.257143 -2.470909 
L 485.532468 -2.470909 
L 484.807792 -2.470909 
L 484.083117 -2.470909 
L 483.358442 -2.470909 
L 482.633766 -2.470909 
L 481.909091 -2.470909 
L 481.184416 -2.470909 
L 480.45974 -2.470909 
L 479.735065 -2.470909 
L 479.01039 -2.470909 
L 478.285714 -2.470909 
L 477.561039 -2.470909 
L 476.836364 -2.470909 
L 476.111688 -2.470909 
L 475.387013 -2.470909 
L 474.662338 -2.470909 
L 473.937662 -2.470909 
L 473.212987 -2.470909 
L 472.488312 -2.470909 
L 471.763636 -2.470909 
L 471.038961 -2.470909 
L 470.314286 -2.470909 
L 469.58961 -2.470909 
L 468.864935 -2.470909 
L 468.14026 -2.470909 
L 467.415584 -2.470909 
L 466.690909 -2.470909 
L 465.966234 -2.470909 
L 465.241558 -2.470909 
L 464.516883 -2.470909 
L 463.792208 -2.470909 
L 463.067532 -2.470909 
L 462.342857 -2.470909 
L 461.618182 -2.470909 
L 460.893506 -2.470909 
L 460.168831 -2.470909 
L 459.444156 -2.470909 
L 458.719481 -2.470909 
L 457.994805 -2.470909 
L 457.27013 -2.470909 
L 456.545455 -2.470909 
L 455.820779 -2.470909 
L 455.096104 -2.470909 
L 454.371429 -2.470909 
L 453.646753 -2.470909 
L 452.922078 -2.470909 
L 452.197403 -2.470909 
L 451.472727 -2.470909 
L 450.748052 -2.470909 
L 450.023377 -2.470909 
L 449.298701 -2.470909 
L 448.574026 -2.470909 
L 447.849351 -2.470909 
L 447.124675 -2.470909 
L 446.4 -2.470909 
L 445.675325 -2.470909 
L 444.950649 -2.470909 
L 444.225974 -2.470909 
L 443.501299 -2.470909 
L 442.776623 -2.470909 
L 442.051948 -2.470909 
L 441.327273 -2.470909 
L 440.602597 -2.470909 
L 439.877922 -2.470909 
L 439.153247 -2.470909 
L 438.428571 -2.470909 
L 437.703896 -2.470909 
L 436.979221 -2.470909 
L 436.254545 -2.470909 
L 435.52987 -2.470909 
L 434.805195 -2.470909 
L 434.080519 -2.470909 
L 433.355844 -2.470909 
L 432.631169 -2.470909 
L 431.906494 -2.470909 
L 431.181818 -2.470909 
L 430.457143 -2.470909 
L 429.732468 -2.470909 
L 429.007792 -2.470909 
L 428.283117 -2.470909 
L 427.558442 -2.470909 
L 426.833766 -2.470909 
L 426.109091 -2.470909 
L 425.384416 -2.470909 
L 424.65974 -2.470909 
L 423.935065 -2.470909 
L 423.21039 -2.470909 
L 422.485714 -2.470909 
L 421.761039 -2.470909 
L 421.036364 -2.470909 
L 420.311688 -2.470909 
L 419.587013 -2.470909 
L 418.862338 -2.470909 
L 418.137662 -2.470909 
L 417.412987 -2.470909 
L 416.688312 -2.470909 
L 415.963636 -2.470909 
L 415.238961 -2.470909 
L 414.514286 -2.470909 
L 413.78961 -2.470909 
L 413.064935 -2.470909 
L 412.34026 -2.470909 
L 411.615584 -2.470909 
L 410.890909 -2.470909 
L 410.166234 -2.470909 
L 409.441558 -2.470909 
L 408.716883 -2.470909 
L 407.992208 -2.470909 
L 407.267532 -2.470909 
L 406.542857 -2.470909 
L 405.818182 -2.470909 
L 405.093506 -2.470909 
L 404.368831 -2.470909 
L 403.644156 -2.470909 
L 402.919481 -2.470909 
L 402.194805 -2.470909 
L 401.47013 -2.470909 
L 400.745455 -2.470909 
L 400.020779 -2.470909 
L 399.296104 -2.470909 
L 398.571429 -2.470909 
L 397.846753 -2.470909 
L 397.122078 -2.470909 
L 396.397403 -2.470909 
L 395.672727 -2.470909 
L 394.948052 -2.470909 
L 394.223377 -2.470909 
L 393.498701 -2.470909 
L 392.774026 -2.470909 
L 392.049351 -2.470909 
L 391.324675 -2.470909 
L 390.6 -2.470909 
L 389.875325 -2.470909 
L 389.150649 -2.470909 
L 388.425974 -2.470909 
L 387.701299 -2.470909 
L 386.976623 -2.470909 
L 386.251948 -2.470909 
L 385.527273 -2.470909 
L 384.802597 -2.470909 
L 384.077922 -2.470909 
L 383.353247 -2.470909 
L 382.628571 -2.470909 
L 381.903896 -2.470909 
L 381.179221 -2.470909 
L 380.454545 -2.470909 
L 379.72987 -2.470909 
L 379.005195 -2.470909 
L 378.280519 -2.470909 
L 377.555844 -2.470909 
L 376.831169 -2.470909 
L 376.106494 -2.470909 
L 375.381818 -2.470909 
L 374.657143 -2.470909 
L 373.932468 -2.470909 
L 373.207792 -2.470909 
L 372.483117 -2.470909 
L 371.758442 -2.470909 
L 371.033766 -2.470909 
L 370.309091 -2.470909 
L 369.584416 -2.470909 
L 368.85974 -2.470909 
L 368.135065 -2.470909 
L 367.41039 -2.470909 
L 366.685714 -2.470909 
L 365.961039 -2.470909 
L 365.236364 -2.470909 
L 364.511688 -2.470909 
L 363.787013 -2.470909 
L 363.062338 -2.470909 
L 362.337662 -2.470909 
L 361.612987 -2.470909 
L 360.888312 -2.470909 
L 360.163636 -2.470909 
L 359.438961 -2.470909 
L 358.714286 -2.470909 
L 357.98961 -2.470909 
L 357.264935 -2.470909 
L 356.54026 -2.470909 
L 355.815584 -2.470909 
L 355.090909 -2.470909 
L 354.366234 -2.470909 
L 353.641558 -2.470909 
L 352.916883 -2.470909 
L 352.192208 -2.470909 
L 351.467532 -2.470909 
L 350.742857 -2.470909 
L 350.018182 -2.470909 
L 349.293506 -2.470909 
L 348.568831 -2.470909 
L 347.844156 -2.470909 
L 347.119481 -2.470909 
L 346.394805 -2.470909 
L 345.67013 -2.470909 
L 344.945455 -2.470909 
L 344.220779 -2.470909 
L 343.496104 -2.470909 
L 342.771429 -2.470909 
L 342.046753 -2.470909 
L 341.322078 -2.470909 
L 340.597403 -2.470909 
L 339.872727 -2.470909 
L 339.148052 -2.470909 
L 338.423377 -2.470909 
L 337.698701 -2.470909 
L 336.974026 -2.470909 
L 336.249351 -2.470909 
L 335.524675 -2.470909 
L 334.8 -2.470909 
L 334.075325 -2.470909 
L 333.350649 -2.470909 
L 332.625974 -2.470909 
L 331.901299 -2.470909 
L 331.176623 -2.470909 
L 330.451948 -2.470909 
L 329.727273 -2.470909 
L 329.002597 -2.470909 
L 328.277922 -2.470909 
L 327.553247 -2.470909 
L 326.828571 -2.470909 
L 326.103896 -2.470909 
L 325.379221 -2.470909 
L 324.654545 -2.470909 
L 323.92987 -2.470909 
L 323.205195 -2.470909 
L 322.480519 -2.470909 
L 321.755844 -2.470909 
L 321.031169 -2.470909 
L 320.306494 -2.470909 
L 319.581818 -2.470909 
L 318.857143 -2.470909 
L 318.132468 -2.470909 
L 317.407792 -2.470909 
L 316.683117 -2.470909 
L 315.958442 -2.470909 
L 315.233766 -2.470909 
L 314.509091 -2.470909 
L 313.784416 -2.470909 
L 313.05974 -2.470909 
L 312.335065 -2.470909 
L 311.61039 -2.470909 
L 310.885714 -2.470909 
L 310.161039 -2.470909 
L 309.436364 -2.470909 
L 308.711688 -2.470909 
L 307.987013 -2.470909 
L 307.262338 -2.470909 
L 306.537662 -2.470909 
L 305.812987 -2.470909 
L 305.088312 -2.470909 
L 304.363636 -2.470909 
L 303.638961 -2.470909 
L 302.914286 -2.470909 
L 302.18961 -2.470909 
L 301.464935 -2.470909 
L 300.74026 -2.470909 
L 300.015584 -2.470909 
L 299.290909 -2.470909 
L 298.566234 -2.470909 
L 297.841558 -2.470909 
L 297.116883 -2.470909 
L 296.392208 -2.470909 
L 295.667532 -2.470909 
L 294.942857 -2.470909 
L 294.218182 -2.470909 
L 293.493506 -2.470909 
L 292.768831 -2.470909 
L 292.044156 -2.470909 
L 291.319481 -2.470909 
L 290.594805 -2.470909 
L 289.87013 -2.470909 
L 289.145455 -2.470909 
L 288.420779 -2.470909 
L 287.696104 -2.470909 
L 286.971429 -2.470909 
L 286.246753 -2.470909 
L 285.522078 -2.470909 
L 284.797403 -2.470909 
L 284.072727 -2.470909 
L 283.348052 -2.470909 
L 282.623377 -2.470909 
L 281.898701 -2.470909 
L 281.174026 -2.470909 
L 280.449351 -2.470909 
L 279.724675 -2.470909 
L 279 -2.470909 
L 278.275325 -2.470909 
L 277.550649 -2.470909 
L 276.825974 -2.470909 
L 276.101299 -2.470909 
L 275.376623 -2.470909 
L 274.651948 -2.470909 
L 273.927273 -2.470909 
L 273.202597 -2.470909 
L 272.477922 -2.470909 
L 271.753247 -2.470909 
L 271.028571 -2.470909 
L 270.303896 -2.470909 
L 269.579221 -2.470909 
L 268.854545 -2.470909 
L 268.12987 -2.470909 
L 267.405195 -2.470909 
L 266.680519 -2.470909 
L 265.955844 -2.470909 
L 265.231169 -2.470909 
L 264.506494 -2.470909 
L 263.781818 -2.470909 
L 263.057143 -2.470909 
L 262.332468 -2.470909 
L 261.607792 -2.470909 
L 260.883117 -2.470909 
L 260.158442 -2.470909 
L 259.433766 -2.470909 
L 258.709091 -2.470909 
L 257.984416 -2.470909 
L 257.25974 -2.470909 
L 256.535065 -2.470909 
L 255.81039 -2.470909 
L 255.085714 -2.470909 
L 254.361039 -2.470909 
L 253.636364 -2.470909 
L 252.911688 -2.470909 
L 252.187013 -2.470909 
L 251.462338 -2.470909 
L 250.737662 -2.470909 
L 250.012987 -2.470909 
L 249.288312 -2.470909 
L 248.563636 -2.470909 
L 247.838961 -2.470909 
L 247.114286 -2.470909 
L 246.38961 -2.470909 
L 245.664935 -2.470909 
L 244.94026 -2.470909 
L 244.215584 -2.470909 
L 243.490909 -2.470909 
L 242.766234 -2.470909 
L 242.041558 -2.470909 
L 241.316883 -2.470909 
L 240.592208 -2.470909 
L 239.867532 -2.470909 
L 239.142857 -2.470909 
L 238.418182 -2.470909 
L 237.693506 -2.470909 
z
" style="stroke: #cf1313; stroke-opacity: 0.2"/>
    </defs>
    <g clip-path="url(#paa1857ea9a)">
     <use xlink:href="#mb9aa59bc22" x="0" y="54.36" style="fill: #cf1313; fill-opacity: 0.2; stroke: #cf1313; stroke-opacity: 0.2"/>
    </g>
   </g>
   <g id="PolyCollection_2">
    <defs>
     <path id="mdae2bda1ba" d="M 89.135065 -2.470909 
L 89.135065 -4.08395 
L 89.85974 -4.174013 
L 90.584416 -4.269661 
L 91.309091 -4.370327 
L 92.033766 -4.475355 
L 92.758442 -4.584045 
L 93.483117 -4.695697 
L 94.207792 -4.809661 
L 94.932468 -4.925373 
L 95.657143 -5.042396 
L 96.381818 -5.16044 
L 97.106494 -5.279374 
L 97.831169 -5.399226 
L 98.555844 -5.520179 
L 99.280519 -5.64255 
L 100.005195 -5.766771 
L 100.72987 -5.893364 
L 101.454545 -6.022919 
L 102.179221 -6.156069 
L 102.903896 -6.293471 
L 103.628571 -6.43579 
L 104.353247 -6.583681 
L 105.077922 -6.737781 
L 105.802597 -6.898698 
L 106.527273 -7.067005 
L 107.251948 -7.243238 
L 107.976623 -7.427893 
L 108.701299 -7.62143 
L 109.425974 -7.824282 
L 110.150649 -8.036852 
L 110.875325 -8.259532 
L 111.6 -8.4927 
L 112.324675 -8.736726 
L 113.049351 -8.99197 
L 113.774026 -9.258764 
L 114.498701 -9.537403 
L 115.223377 -9.828117 
L 115.948052 -10.13104 
L 116.672727 -10.446188 
L 117.397403 -10.773422 
L 118.122078 -11.112437 
L 118.846753 -11.462744 
L 119.571429 -11.82367 
L 120.296104 -12.19437 
L 121.020779 -12.573847 
L 121.745455 -12.960982 
L 122.47013 -13.354567 
L 123.194805 -13.753339 
L 123.919481 -14.156015 
L 124.644156 -14.561323 
L 125.368831 -14.968027 
L 126.093506 -15.374952 
L 126.818182 -15.781001 
L 127.542857 -16.18518 
L 128.267532 -16.586621 
L 128.992208 -16.984604 
L 129.716883 -17.378592 
L 130.441558 -17.768259 
L 131.166234 -18.153521 
L 131.890909 -18.534556 
L 132.615584 -18.911829 
L 133.34026 -19.286083 
L 134.064935 -19.658337 
L 134.78961 -20.029852 
L 135.514286 -20.402089 
L 136.238961 -20.776658 
L 136.963636 -21.155253 
L 137.688312 -21.53959 
L 138.412987 -21.931346 
L 139.137662 -22.332104 
L 139.862338 -22.743306 
L 140.587013 -23.166222 
L 141.311688 -23.601923 
L 142.036364 -24.051265 
L 142.761039 -24.514876 
L 143.485714 -24.993154 
L 144.21039 -25.48626 
L 144.935065 -25.994112 
L 145.65974 -26.516389 
L 146.384416 -27.052534 
L 147.109091 -27.601761 
L 147.833766 -28.163075 
L 148.558442 -28.735306 
L 149.283117 -29.317139 
L 150.007792 -29.907171 
L 150.732468 -30.50396 
L 151.457143 -31.106081 
L 152.181818 -31.712172 
L 152.906494 -32.320978 
L 153.631169 -32.931368 
L 154.355844 -33.542347 
L 155.080519 -34.153041 
L 155.805195 -34.762665 
L 156.52987 -35.370487 
L 157.254545 -35.975774 
L 157.979221 -36.577745 
L 158.703896 -37.175525 
L 159.428571 -37.768111 
L 160.153247 -38.354346 
L 160.877922 -38.932916 
L 161.602597 -39.502346 
L 162.327273 -40.061024 
L 163.051948 -40.607216 
L 163.776623 -41.139092 
L 164.501299 -41.654758 
L 165.225974 -42.152277 
L 165.950649 -42.629698 
L 166.675325 -43.085084 
L 167.4 -43.516546 
L 168.124675 -43.922282 
L 168.849351 -44.300624 
L 169.574026 -44.650106 
L 170.298701 -44.969528 
L 171.023377 -45.258036 
L 171.748052 -45.515197 
L 172.472727 -45.741077 
L 173.197403 -45.936289 
L 173.922078 -46.102028 
L 174.646753 -46.240073 
L 175.371429 -46.35275 
L 176.096104 -46.442857 
L 176.820779 -46.513551 
L 177.545455 -46.568212 
L 178.27013 -46.610273 
L 178.994805 -46.643055 
L 179.719481 -46.669591 
L 180.444156 -46.692482 
L 181.168831 -46.713777 
L 181.893506 -46.7349 
L 182.618182 -46.756621 
L 183.342857 -46.779083 
L 184.067532 -46.801873 
L 184.792208 -46.824142 
L 185.516883 -46.844742 
L 186.241558 -46.862391 
L 186.966234 -46.875831 
L 187.690909 -46.883966 
L 188.415584 -46.885981 
L 189.14026 -46.881411 
L 189.864935 -46.870163 
L 190.58961 -46.852501 
L 191.314286 -46.828971 
L 192.038961 -46.800299 
L 192.763636 -46.767259 
L 193.488312 -46.730532 
L 194.212987 -46.690562 
L 194.937662 -46.647427 
L 195.662338 -46.600743 
L 196.387013 -46.549602 
L 197.111688 -46.49255 
L 197.836364 -46.427625 
L 198.561039 -46.352426 
L 199.285714 -46.264234 
L 200.01039 -46.160163 
L 200.735065 -46.037331 
L 201.45974 -45.893043 
L 202.184416 -45.724962 
L 202.909091 -45.531262 
L 203.633766 -45.310739 
L 204.358442 -45.062885 
L 205.083117 -44.787896 
L 205.807792 -44.486633 
L 206.532468 -44.160535 
L 207.257143 -43.811477 
L 207.981818 -43.441613 
L 208.706494 -43.053202 
L 209.431169 -42.648441 
L 210.155844 -42.229314 
L 210.880519 -41.797494 
L 211.605195 -41.354269 
L 212.32987 -40.900538 
L 213.054545 -40.436841 
L 213.779221 -39.963438 
L 214.503896 -39.480409 
L 215.228571 -38.987781 
L 215.953247 -38.485645 
L 216.677922 -37.974269 
L 217.402597 -37.454174 
L 218.127273 -36.926188 
L 218.851948 -36.391454 
L 219.576623 -35.851399 
L 220.301299 -35.307672 
L 221.025974 -34.762047 
L 221.750649 -34.216313 
L 222.475325 -33.672152 
L 223.2 -33.131025 
L 223.924675 -32.594072 
L 224.649351 -32.062038 
L 225.374026 -31.535235 
L 226.098701 -31.01354 
L 226.823377 -30.496437 
L 227.548052 -29.983089 
L 228.272727 -29.472447 
L 228.997403 -28.963378 
L 229.722078 -28.454804 
L 230.446753 -27.945834 
L 231.171429 -27.435888 
L 231.896104 -26.924784 
L 232.620779 -26.412795 
L 233.345455 -25.900662 
L 234.07013 -25.389561 
L 234.794805 -24.881029 
L 235.519481 -24.376853 
L 236.244156 -23.878932 
L 236.968831 -23.389131 
L 237.693506 -22.909121 
L 238.418182 -22.44024 
L 239.142857 -21.983377 
L 239.867532 -21.538886 
L 240.592208 -21.106539 
L 241.316883 -20.68553 
L 242.041558 -20.274514 
L 242.766234 -19.87169 
L 243.490909 -19.474914 
L 244.215584 -19.081836 
L 244.94026 -18.690051 
L 245.664935 -18.297245 
L 246.38961 -17.901341 
L 247.114286 -17.500617 
L 247.838961 -17.093805 
L 248.563636 -16.680149 
L 249.288312 -16.259441 
L 250.012987 -15.83202 
L 250.737662 -15.398742 
L 251.462338 -14.960925 
L 252.187013 -14.520278 
L 252.911688 -14.078817 
L 253.636364 -13.638774 
L 254.361039 -13.202508 
L 255.085714 -12.772406 
L 255.81039 -12.350804 
L 256.535065 -11.939903 
L 257.25974 -11.541693 
L 257.984416 -11.15789 
L 258.709091 -10.789877 
L 259.433766 -10.438661 
L 260.158442 -10.104841 
L 260.883117 -9.788596 
L 261.607792 -9.489689 
L 262.332468 -9.207492 
L 263.057143 -8.941037 
L 263.781818 -8.689073 
L 264.506494 -8.450155 
L 265.231169 -8.222728 
L 265.955844 -8.005225 
L 266.680519 -7.796151 
L 267.405195 -7.594166 
L 268.12987 -7.398144 
L 268.854545 -7.207214 
L 269.579221 -7.020778 
L 270.303896 -6.838505 
L 271.028571 -6.660309 
L 271.753247 -6.486305 
L 272.477922 -6.316762 
L 273.202597 -6.15205 
L 273.927273 -5.992583 
L 274.651948 -5.838777 
L 275.376623 -5.691006 
L 276.101299 -5.549578 
L 276.825974 -5.414716 
L 277.550649 -5.286542 
L 278.275325 -5.165085 
L 279 -5.050274 
L 279.724675 -4.941948 
L 280.449351 -4.839862 
L 281.174026 -4.743697 
L 281.898701 -4.653065 
L 282.623377 -4.567522 
L 283.348052 -4.486576 
L 284.072727 -4.409704 
L 284.797403 -4.336365 
L 285.522078 -4.266018 
L 285.522078 -2.470909 
L 285.522078 -2.470909 
L 284.797403 -2.470909 
L 284.072727 -2.470909 
L 283.348052 -2.470909 
L 282.623377 -2.470909 
L 281.898701 -2.470909 
L 281.174026 -2.470909 
L 280.449351 -2.470909 
L 279.724675 -2.470909 
L 279 -2.470909 
L 278.275325 -2.470909 
L 277.550649 -2.470909 
L 276.825974 -2.470909 
L 276.101299 -2.470909 
L 275.376623 -2.470909 
L 274.651948 -2.470909 
L 273.927273 -2.470909 
L 273.202597 -2.470909 
L 272.477922 -2.470909 
L 271.753247 -2.470909 
L 271.028571 -2.470909 
L 270.303896 -2.470909 
L 269.579221 -2.470909 
L 268.854545 -2.470909 
L 268.12987 -2.470909 
L 267.405195 -2.470909 
L 266.680519 -2.470909 
L 265.955844 -2.470909 
L 265.231169 -2.470909 
L 264.506494 -2.470909 
L 263.781818 -2.470909 
L 263.057143 -2.470909 
L 262.332468 -2.470909 
L 261.607792 -2.470909 
L 260.883117 -2.470909 
L 260.158442 -2.470909 
L 259.433766 -2.470909 
L 258.709091 -2.470909 
L 257.984416 -2.470909 
L 257.25974 -2.470909 
L 256.535065 -2.470909 
L 255.81039 -2.470909 
L 255.085714 -2.470909 
L 254.361039 -2.470909 
L 253.636364 -2.470909 
L 252.911688 -2.470909 
L 252.187013 -2.470909 
L 251.462338 -2.470909 
L 250.737662 -2.470909 
L 250.012987 -2.470909 
L 249.288312 -2.470909 
L 248.563636 -2.470909 
L 247.838961 -2.470909 
L 247.114286 -2.470909 
L 246.38961 -2.470909 
L 245.664935 -2.470909 
L 244.94026 -2.470909 
L 244.215584 -2.470909 
L 243.490909 -2.470909 
L 242.766234 -2.470909 
L 242.041558 -2.470909 
L 241.316883 -2.470909 
L 240.592208 -2.470909 
L 239.867532 -2.470909 
L 239.142857 -2.470909 
L 238.418182 -2.470909 
L 237.693506 -2.470909 
L 236.968831 -2.470909 
L 236.244156 -2.470909 
L 235.519481 -2.470909 
L 234.794805 -2.470909 
L 234.07013 -2.470909 
L 233.345455 -2.470909 
L 232.620779 -2.470909 
L 231.896104 -2.470909 
L 231.171429 -2.470909 
L 230.446753 -2.470909 
L 229.722078 -2.470909 
L 228.997403 -2.470909 
L 228.272727 -2.470909 
L 227.548052 -2.470909 
L 226.823377 -2.470909 
L 226.098701 -2.470909 
L 225.374026 -2.470909 
L 224.649351 -2.470909 
L 223.924675 -2.470909 
L 223.2 -2.470909 
L 222.475325 -2.470909 
L 221.750649 -2.470909 
L 221.025974 -2.470909 
L 220.301299 -2.470909 
L 219.576623 -2.470909 
L 218.851948 -2.470909 
L 218.127273 -2.470909 
L 217.402597 -2.470909 
L 216.677922 -2.470909 
L 215.953247 -2.470909 
L 215.228571 -2.470909 
L 214.503896 -2.470909 
L 213.779221 -2.470909 
L 213.054545 -2.470909 
L 212.32987 -2.470909 
L 211.605195 -2.470909 
L 210.880519 -2.470909 
L 210.155844 -2.470909 
L 209.431169 -2.470909 
L 208.706494 -2.470909 
L 207.981818 -2.470909 
L 207.257143 -2.470909 
L 206.532468 -2.470909 
L 205.807792 -2.470909 
L 205.083117 -2.470909 
L 204.358442 -2.470909 
L 203.633766 -2.470909 
L 202.909091 -2.470909 
L 202.184416 -2.470909 
L 201.45974 -2.470909 
L 200.735065 -2.470909 
L 200.01039 -2.470909 
L 199.285714 -2.470909 
L 198.561039 -2.470909 
L 197.836364 -2.470909 
L 197.111688 -2.470909 
L 196.387013 -2.470909 
L 195.662338 -2.470909 
L 194.937662 -2.470909 
L 194.212987 -2.470909 
L 193.488312 -2.470909 
L 192.763636 -2.470909 
L 192.038961 -2.470909 
L 191.314286 -2.470909 
L 190.58961 -2.470909 
L 189.864935 -2.470909 
L 189.14026 -2.470909 
L 188.415584 -2.470909 
L 187.690909 -2.470909 
L 186.966234 -2.470909 
L 186.241558 -2.470909 
L 185.516883 -2.470909 
L 184.792208 -2.470909 
L 184.067532 -2.470909 
L 183.342857 -2.470909 
L 182.618182 -2.470909 
L 181.893506 -2.470909 
L 181.168831 -2.470909 
L 180.444156 -2.470909 
L 179.719481 -2.470909 
L 178.994805 -2.470909 
L 178.27013 -2.470909 
L 177.545455 -2.470909 
L 176.820779 -2.470909 
L 176.096104 -2.470909 
L 175.371429 -2.470909 
L 174.646753 -2.470909 
L 173.922078 -2.470909 
L 173.197403 -2.470909 
L 172.472727 -2.470909 
L 171.748052 -2.470909 
L 171.023377 -2.470909 
L 170.298701 -2.470909 
L 169.574026 -2.470909 
L 168.849351 -2.470909 
L 168.124675 -2.470909 
L 167.4 -2.470909 
L 166.675325 -2.470909 
L 165.950649 -2.470909 
L 165.225974 -2.470909 
L 164.501299 -2.470909 
L 163.776623 -2.470909 
L 163.051948 -2.470909 
L 162.327273 -2.470909 
L 161.602597 -2.470909 
L 160.877922 -2.470909 
L 160.153247 -2.470909 
L 159.428571 -2.470909 
L 158.703896 -2.470909 
L 157.979221 -2.470909 
L 157.254545 -2.470909 
L 156.52987 -2.470909 
L 155.805195 -2.470909 
L 155.080519 -2.470909 
L 154.355844 -2.470909 
L 153.631169 -2.470909 
L 152.906494 -2.470909 
L 152.181818 -2.470909 
L 151.457143 -2.470909 
L 150.732468 -2.470909 
L 150.007792 -2.470909 
L 149.283117 -2.470909 
L 148.558442 -2.470909 
L 147.833766 -2.470909 
L 147.109091 -2.470909 
L 146.384416 -2.470909 
L 145.65974 -2.470909 
L 144.935065 -2.470909 
L 144.21039 -2.470909 
L 143.485714 -2.470909 
L 142.761039 -2.470909 
L 142.036364 -2.470909 
L 141.311688 -2.470909 
L 140.587013 -2.470909 
L 139.862338 -2.470909 
L 139.137662 -2.470909 
L 138.412987 -2.470909 
L 137.688312 -2.470909 
L 136.963636 -2.470909 
L 136.238961 -2.470909 
L 135.514286 -2.470909 
L 134.78961 -2.470909 
L 134.064935 -2.470909 
L 133.34026 -2.470909 
L 132.615584 -2.470909 
L 131.890909 -2.470909 
L 131.166234 -2.470909 
L 130.441558 -2.470909 
L 129.716883 -2.470909 
L 128.992208 -2.470909 
L 128.267532 -2.470909 
L 127.542857 -2.470909 
L 126.818182 -2.470909 
L 126.093506 -2.470909 
L 125.368831 -2.470909 
L 124.644156 -2.470909 
L 123.919481 -2.470909 
L 123.194805 -2.470909 
L 122.47013 -2.470909 
L 121.745455 -2.470909 
L 121.020779 -2.470909 
L 120.296104 -2.470909 
L 119.571429 -2.470909 
L 118.846753 -2.470909 
L 118.122078 -2.470909 
L 117.397403 -2.470909 
L 116.672727 -2.470909 
L 115.948052 -2.470909 
L 115.223377 -2.470909 
L 114.498701 -2.470909 
L 113.774026 -2.470909 
L 113.049351 -2.470909 
L 112.324675 -2.470909 
L 111.6 -2.470909 
L 110.875325 -2.470909 
L 110.150649 -2.470909 
L 109.425974 -2.470909 
L 108.701299 -2.470909 
L 107.976623 -2.470909 
L 107.251948 -2.470909 
L 106.527273 -2.470909 
L 105.802597 -2.470909 
L 105.077922 -2.470909 
L 104.353247 -2.470909 
L 103.628571 -2.470909 
L 102.903896 -2.470909 
L 102.179221 -2.470909 
L 101.454545 -2.470909 
L 100.72987 -2.470909 
L 100.005195 -2.470909 
L 99.280519 -2.470909 
L 98.555844 -2.470909 
L 97.831169 -2.470909 
L 97.106494 -2.470909 
L 96.381818 -2.470909 
L 95.657143 -2.470909 
L 94.932468 -2.470909 
L 94.207792 -2.470909 
L 93.483117 -2.470909 
L 92.758442 -2.470909 
L 92.033766 -2.470909 
L 91.309091 -2.470909 
L 90.584416 -2.470909 
L 89.85974 -2.470909 
L 89.135065 -2.470909 
z
" style="stroke: #116dc2; stroke-opacity: 0.2"/>
    </defs>
    <g clip-path="url(#paa1857ea9a)">
     <use xlink:href="#mdae2bda1ba" x="0" y="54.36" style="fill: #116dc2; fill-opacity: 0.2; stroke: #116dc2; stroke-opacity: 0.2"/>
    </g>
   </g>
   <g id="PolyCollection_3">
    <defs>
     <path id="m367cad6fda" d="M 25.363636 -2.470909 
L 25.363636 -4.259022 
L 26.088312 -4.38342 
L 26.812987 -4.517326 
L 27.537662 -4.661256 
L 28.262338 -4.815389 
L 28.987013 -4.979794 
L 29.711688 -5.154757 
L 30.436364 -5.341109 
L 31.161039 -5.54044 
L 31.885714 -5.755095 
L 32.61039 -5.987962 
L 33.335065 -6.242085 
L 34.05974 -6.52022 
L 34.784416 -6.824471 
L 35.509091 -7.156085 
L 36.233766 -7.515453 
L 36.958442 -7.902274 
L 37.683117 -8.315812 
L 38.407792 -8.755132 
L 39.132468 -9.219244 
L 39.857143 -9.707087 
L 40.581818 -10.217367 
L 41.306494 -10.748299 
L 42.031169 -11.297351 
L 42.755844 -11.861125 
L 43.480519 -12.435485 
L 44.205195 -13.01603 
L 44.92987 -13.598885 
L 45.654545 -14.181717 
L 46.379221 -14.764733 
L 47.103896 -15.351389 
L 47.828571 -15.948557 
L 48.553247 -16.565975 
L 49.277922 -17.215015 
L 50.002597 -17.906942 
L 50.727273 -18.651031 
L 51.451948 -19.452917 
L 52.176623 -20.313558 
L 52.901299 -21.22901 
L 53.625974 -22.191062 
L 54.350649 -23.18854 
L 55.075325 -24.208991 
L 55.8 -25.24035 
L 56.524675 -26.272261 
L 57.249351 -27.296839 
L 57.974026 -28.308809 
L 58.698701 -29.305143 
L 59.423377 -30.284412 
L 60.148052 -31.246084 
L 60.872727 -32.189969 
L 61.597403 -33.115867 
L 62.322078 -34.023409 
L 63.046753 -34.911989 
L 63.771429 -35.780702 
L 64.496104 -36.628271 
L 65.220779 -37.452995 
L 65.945455 -38.252824 
L 66.67013 -39.025638 
L 67.394805 -39.769734 
L 68.119481 -40.484448 
L 68.844156 -41.170725 
L 69.568831 -41.831413 
L 70.293506 -42.471105 
L 71.018182 -43.095452 
L 71.742857 -43.710024 
L 72.467532 -44.318975 
L 73.192208 -44.923859 
L 73.916883 -45.522978 
L 74.641558 -46.111517 
L 75.366234 -46.682523 
L 76.090909 -47.228531 
L 76.815584 -47.743398 
L 77.54026 -48.223807 
L 78.264935 -48.669969 
L 78.98961 -49.085271 
L 79.714286 -49.474945 
L 80.438961 -49.84415 
L 81.163636 -50.196054 
L 81.888312 -50.530502 
L 82.612987 -50.84369 
L 83.337662 -51.128879 
L 84.062338 -51.377923 
L 84.787013 -51.583058 
L 85.511688 -51.738402 
L 86.236364 -51.840692 
L 86.961039 -51.889091 
L 87.685714 -51.884156 
L 88.41039 -51.826371 
L 89.135065 -51.714708 
L 89.85974 -51.54571 
L 90.584416 -51.313404 
L 91.309091 -51.010149 
L 92.033766 -50.628283 
L 92.758442 -50.1622 
L 93.483117 -49.610375 
L 94.207792 -48.976819 
L 94.932468 -48.271551 
L 95.657143 -47.509892 
L 96.381818 -46.710662 
L 97.106494 -45.893644 
L 97.831169 -45.076843 
L 98.555844 -44.274101 
L 99.280519 -43.493493 
L 100.005195 -42.736718 
L 100.72987 -41.999444 
L 101.454545 -41.272391 
L 102.179221 -40.542901 
L 102.903896 -39.796708 
L 103.628571 -39.019732 
L 104.353247 -38.199769 
L 105.077922 -37.32796 
L 105.802597 -36.399943 
L 106.527273 -35.416545 
L 107.251948 -34.383921 
L 107.976623 -33.313048 
L 108.701299 -32.218604 
L 109.425974 -31.117345 
L 110.150649 -30.026211 
L 110.875325 -28.960436 
L 111.6 -27.932001 
L 112.324675 -26.948668 
L 113.049351 -26.013766 
L 113.774026 -25.126713 
L 114.498701 -24.28408 
L 115.223377 -23.480904 
L 115.948052 -22.711876 
L 116.672727 -21.972121 
L 117.397403 -21.257425 
L 118.122078 -20.563982 
L 118.846753 -19.887877 
L 119.571429 -19.224631 
L 120.296104 -18.569074 
L 121.020779 -17.915698 
L 121.745455 -17.259452 
L 122.47013 -16.596757 
L 123.194805 -15.926463 
L 123.919481 -15.250443 
L 124.644156 -14.573642 
L 125.368831 -13.903516 
L 126.093506 -13.248993 
L 126.818182 -12.619148 
L 127.542857 -12.021882 
L 128.267532 -11.462845 
L 128.992208 -10.944797 
L 129.716883 -10.467494 
L 130.441558 -10.028084 
L 131.166234 -9.621885 
L 131.890909 -9.243373 
L 132.615584 -8.887167 
L 133.34026 -8.548813 
L 134.064935 -8.225236 
L 134.78961 -7.914809 
L 135.514286 -7.617075 
L 136.238961 -7.332255 
L 136.963636 -7.060689 
L 137.688312 -6.802369 
L 138.412987 -6.556691 
L 139.137662 -6.322447 
L 139.862338 -6.098028 
L 140.587013 -5.88175 
L 141.311688 -5.672177 
L 142.036364 -5.468353 
L 142.761039 -5.269878 
L 143.485714 -5.07685 
L 144.21039 -4.889701 
L 144.935065 -4.709013 
L 145.65974 -4.535365 
L 145.65974 -2.470909 
L 145.65974 -2.470909 
L 144.935065 -2.470909 
L 144.21039 -2.470909 
L 143.485714 -2.470909 
L 142.761039 -2.470909 
L 142.036364 -2.470909 
L 141.311688 -2.470909 
L 140.587013 -2.470909 
L 139.862338 -2.470909 
L 139.137662 -2.470909 
L 138.412987 -2.470909 
L 137.688312 -2.470909 
L 136.963636 -2.470909 
L 136.238961 -2.470909 
L 135.514286 -2.470909 
L 134.78961 -2.470909 
L 134.064935 -2.470909 
L 133.34026 -2.470909 
L 132.615584 -2.470909 
L 131.890909 -2.470909 
L 131.166234 -2.470909 
L 130.441558 -2.470909 
L 129.716883 -2.470909 
L 128.992208 -2.470909 
L 128.267532 -2.470909 
L 127.542857 -2.470909 
L 126.818182 -2.470909 
L 126.093506 -2.470909 
L 125.368831 -2.470909 
L 124.644156 -2.470909 
L 123.919481 -2.470909 
L 123.194805 -2.470909 
L 122.47013 -2.470909 
L 121.745455 -2.470909 
L 121.020779 -2.470909 
L 120.296104 -2.470909 
L 119.571429 -2.470909 
L 118.846753 -2.470909 
L 118.122078 -2.470909 
L 117.397403 -2.470909 
L 116.672727 -2.470909 
L 115.948052 -2.470909 
L 115.223377 -2.470909 
L 114.498701 -2.470909 
L 113.774026 -2.470909 
L 113.049351 -2.470909 
L 112.324675 -2.470909 
L 111.6 -2.470909 
L 110.875325 -2.470909 
L 110.150649 -2.470909 
L 109.425974 -2.470909 
L 108.701299 -2.470909 
L 107.976623 -2.470909 
L 107.251948 -2.470909 
L 106.527273 -2.470909 
L 105.802597 -2.470909 
L 105.077922 -2.470909 
L 104.353247 -2.470909 
L 103.628571 -2.470909 
L 102.903896 -2.470909 
L 102.179221 -2.470909 
L 101.454545 -2.470909 
L 100.72987 -2.470909 
L 100.005195 -2.470909 
L 99.280519 -2.470909 
L 98.555844 -2.470909 
L 97.831169 -2.470909 
L 97.106494 -2.470909 
L 96.381818 -2.470909 
L 95.657143 -2.470909 
L 94.932468 -2.470909 
L 94.207792 -2.470909 
L 93.483117 -2.470909 
L 92.758442 -2.470909 
L 92.033766 -2.470909 
L 91.309091 -2.470909 
L 90.584416 -2.470909 
L 89.85974 -2.470909 
L 89.135065 -2.470909 
L 88.41039 -2.470909 
L 87.685714 -2.470909 
L 86.961039 -2.470909 
L 86.236364 -2.470909 
L 85.511688 -2.470909 
L 84.787013 -2.470909 
L 84.062338 -2.470909 
L 83.337662 -2.470909 
L 82.612987 -2.470909 
L 81.888312 -2.470909 
L 81.163636 -2.470909 
L 80.438961 -2.470909 
L 79.714286 -2.470909 
L 78.98961 -2.470909 
L 78.264935 -2.470909 
L 77.54026 -2.470909 
L 76.815584 -2.470909 
L 76.090909 -2.470909 
L 75.366234 -2.470909 
L 74.641558 -2.470909 
L 73.916883 -2.470909 
L 73.192208 -2.470909 
L 72.467532 -2.470909 
L 71.742857 -2.470909 
L 71.018182 -2.470909 
L 70.293506 -2.470909 
L 69.568831 -2.470909 
L 68.844156 -2.470909 
L 68.119481 -2.470909 
L 67.394805 -2.470909 
L 66.67013 -2.470909 
L 65.945455 -2.470909 
L 65.220779 -2.470909 
L 64.496104 -2.470909 
L 63.771429 -2.470909 
L 63.046753 -2.470909 
L 62.322078 -2.470909 
L 61.597403 -2.470909 
L 60.872727 -2.470909 
L 60.148052 -2.470909 
L 59.423377 -2.470909 
L 58.698701 -2.470909 
L 57.974026 -2.470909 
L 57.249351 -2.470909 
L 56.524675 -2.470909 
L 55.8 -2.470909 
L 55.075325 -2.470909 
L 54.350649 -2.470909 
L 53.625974 -2.470909 
L 52.901299 -2.470909 
L 52.176623 -2.470909 
L 51.451948 -2.470909 
L 50.727273 -2.470909 
L 50.002597 -2.470909 
L 49.277922 -2.470909 
L 48.553247 -2.470909 
L 47.828571 -2.470909 
L 47.103896 -2.470909 
L 46.379221 -2.470909 
L 45.654545 -2.470909 
L 44.92987 -2.470909 
L 44.205195 -2.470909 
L 43.480519 -2.470909 
L 42.755844 -2.470909 
L 42.031169 -2.470909 
L 41.306494 -2.470909 
L 40.581818 -2.470909 
L 39.857143 -2.470909 
L 39.132468 -2.470909 
L 38.407792 -2.470909 
L 37.683117 -2.470909 
L 36.958442 -2.470909 
L 36.233766 -2.470909 
L 35.509091 -2.470909 
L 34.784416 -2.470909 
L 34.05974 -2.470909 
L 33.335065 -2.470909 
L 32.61039 -2.470909 
L 31.885714 -2.470909 
L 31.161039 -2.470909 
L 30.436364 -2.470909 
L 29.711688 -2.470909 
L 28.987013 -2.470909 
L 28.262338 -2.470909 
L 27.537662 -2.470909 
L 26.812987 -2.470909 
L 26.088312 -2.470909 
L 25.363636 -2.470909 
z
" style="stroke: #8a8a8a; stroke-opacity: 0.2"/>
    </defs>
    <g clip-path="url(#paa1857ea9a)">
     <use xlink:href="#m367cad6fda" x="0" y="54.36" style="fill: #8a8a8a; fill-opacity: 0.2; stroke: #8a8a8a; stroke-opacity: 0.2"/>
    </g>
   </g>
   <g id="line2d_1">
    <path d="M 237.693506 50.056858 
L 247.114286 48.872787 
L 261.607792 46.943594 
L 268.12987 45.75735 
L 276.825974 43.910504 
L 284.797403 42.011791 
L 292.044156 40.044883 
L 297.841558 38.273595 
L 302.18961 36.745968 
L 305.812987 35.271294 
L 310.161039 33.241305 
L 327.553247 24.679575 
L 339.872727 18.954936 
L 346.394805 15.947752 
L 350.018182 14.478987 
L 353.641558 13.271663 
L 356.54026 12.530393 
L 359.438961 11.989839 
L 363.062338 11.560759 
L 367.41039 11.309439 
L 374.657143 11.183367 
L 386.251948 10.94583 
L 392.774026 10.8859 
L 397.122078 11.055882 
L 400.745455 11.415128 
L 403.644156 11.900998 
L 406.542857 12.603823 
L 409.441558 13.537563 
L 413.064935 14.98959 
L 418.862338 17.65903 
L 424.65974 20.264394 
L 431.181818 22.904607 
L 439.877922 26.41901 
L 447.849351 29.927382 
L 455.820779 33.397543 
L 460.893506 35.374223 
L 466.690909 37.386669 
L 476.111688 40.397581 
L 483.358442 42.49718 
L 490.605195 44.355772 
L 497.851948 45.998059 
L 504.374026 47.255501 
L 511.620779 48.404318 
L 520.316883 49.545276 
L 526.114286 50.113168 
L 531.911688 50.447876 
L 532.636364 50.475326 
L 532.636364 50.475326 
" clip-path="url(#paa1857ea9a)" style="fill: none; stroke: #cf1313; stroke-width: 1.5; stroke-linecap: square"/>
   </g>
   <g id="line2d_2">
    <path d="M 89.135065 50.27605 
L 94.207792 49.550339 
L 102.903896 48.066529 
L 107.251948 47.116762 
L 110.875325 46.100468 
L 114.498701 44.822597 
L 117.397403 43.586578 
L 121.020779 41.786153 
L 126.818182 38.578999 
L 132.615584 35.448171 
L 139.862338 31.616694 
L 142.761039 29.845124 
L 145.65974 27.843611 
L 149.283117 25.042861 
L 155.805195 19.597335 
L 161.602597 14.857654 
L 164.501299 12.705242 
L 167.4 10.843454 
L 169.574026 9.709894 
L 171.748052 8.844803 
L 173.922078 8.257972 
L 176.096104 7.917143 
L 178.994805 7.716945 
L 188.415584 7.474019 
L 192.763636 7.592741 
L 197.836364 7.932375 
L 200.735065 8.322669 
L 202.909091 8.828738 
L 205.083117 9.572104 
L 207.257143 10.548523 
L 210.155844 12.130686 
L 213.779221 14.396562 
L 217.402597 16.905826 
L 235.519481 29.983147 
L 239.142857 32.376623 
L 242.766234 34.48831 
L 250.737662 38.961258 
L 257.25974 42.818307 
L 260.158442 44.255159 
L 263.057143 45.418963 
L 266.680519 46.563849 
L 271.753247 47.873695 
L 276.101299 48.810422 
L 280.449351 49.520138 
L 285.522078 50.093982 
L 285.522078 50.093982 
" clip-path="url(#paa1857ea9a)" style="fill: none; stroke: #116dc2; stroke-width: 1.5; stroke-linecap: square"/>
   </g>
   <g id="line2d_3">
    <path d="M 25.363636 50.100978 
L 28.987013 49.380206 
L 31.885714 48.604905 
L 34.05974 47.83978 
L 36.233766 46.844547 
L 38.407792 45.604868 
L 40.581818 44.142633 
L 43.480519 41.924515 
L 49.277922 37.144985 
L 50.727273 35.708969 
L 52.176623 34.046442 
L 54.350649 31.17146 
L 60.872727 22.170031 
L 63.771429 18.579298 
L 66.67013 15.334362 
L 68.844156 13.189275 
L 71.742857 10.649976 
L 76.090909 7.131469 
L 78.264935 5.690031 
L 80.438961 4.51585 
L 83.337662 3.231121 
L 84.787013 2.776942 
L 86.236364 2.519308 
L 87.685714 2.475844 
L 89.135065 2.645292 
L 90.584416 3.046596 
L 92.033766 3.731717 
L 93.483117 4.749625 
L 94.932468 6.088449 
L 97.831169 9.283157 
L 100.72987 12.360556 
L 103.628571 15.340268 
L 105.802597 17.960057 
L 107.976623 21.046952 
L 111.6 26.427999 
L 113.774026 29.233287 
L 115.948052 31.648124 
L 118.846753 34.472123 
L 127.542857 42.338118 
L 129.716883 43.892506 
L 131.890909 45.116627 
L 134.78961 46.445191 
L 137.688312 47.557631 
L 141.311688 48.687823 
L 145.65974 49.824635 
L 145.65974 49.824635 
" clip-path="url(#paa1857ea9a)" style="fill: none; stroke: #8a8a8a; stroke-width: 1.5; stroke-linecap: square"/>
   </g>
  </g>
 </g>
 <defs>
  <clipPath id="paa1857ea9a">
   <rect x="0" y="-0" width="558" height="54.36"/>
  </clipPath>
 </defs>
</svg>
