<?xml version="1.0" encoding="utf-8" standalone="no"?>
<!DOCTYPE svg PUBLIC "-//W3C//DTD SVG 1.1//EN"
  "http://www.w3.org/Graphics/SVG/1.1/DTD/svg11.dtd">
<svg xmlns:xlink="http://www.w3.org/1999/xlink" width="558pt" height="54.36pt" viewBox="0 0 558 54.36" xmlns="http://www.w3.org/2000/svg" version="1.1">
 <metadata>
  <rdf:RDF xmlns:dc="http://purl.org/dc/elements/1.1/" xmlns:cc="http://creativecommons.org/ns#" xmlns:rdf="http://www.w3.org/1999/02/22-rdf-syntax-ns#">
   <cc:Work>
    <dc:type rdf:resource="http://purl.org/dc/dcmitype/StillImage"/>
    <dc:date>2024-09-14T12:47:39.991827</dc:date>
    <dc:format>image/svg+xml</dc:format>
    <dc:creator>
     <cc:Agent>
      <dc:title>Matplotlib v3.5.2, https://matplotlib.org/</dc:title>
     </cc:Agent>
    </dc:creator>
   </cc:Work>
  </rdf:RDF>
 </metadata>
 <defs>
  <style type="text/css">*{stroke-linejoin: round; stroke-linecap: butt}</style>
 </defs>
 <g id="figure_1">
  <g id="patch_1">
   <path d="M 0 54.36 
L 558 54.36 
L 558 0 
L 0 0 
L 0 54.36 
z
" style="fill: none; opacity: 0"/>
  </g>
  <g id="axes_1">
   <g id="PolyCollection_1">
    <defs>
     <path id="mf96d3fe1c1" d="M 321.894385 -2.470909 
L 321.894385 -4.302059 
L 322.826872 -4.502088 
L 323.759358 -4.697466 
L 324.691845 -4.886405 
L 325.624332 -5.07023 
L 326.556818 -5.252828 
L 327.489305 -5.439729 
L 328.421791 -5.637098 
L 329.354278 -5.850855 
L 330.286765 -6.086037 
L 331.219251 -6.346444 
L 332.151738 -6.634558 
L 333.084225 -6.951687 
L 334.016711 -7.298317 
L 334.949198 -7.67456 
L 335.881684 -8.080622 
L 336.814171 -8.51717 
L 337.746658 -8.985508 
L 338.679144 -9.487516 
L 339.611631 -10.025386 
L 340.544118 -10.601202 
L 341.476604 -11.216466 
L 342.409091 -11.87163 
L 343.341578 -12.565688 
L 344.274064 -13.295847 
L 345.206551 -14.057332 
L 346.139037 -14.843447 
L 347.071524 -15.646096 
L 348.004011 -16.456922 
L 348.936497 -17.269031 
L 349.868984 -18.078944 
L 350.801471 -18.888071 
L 351.733957 -19.7029 
L 352.666444 -20.533412 
L 353.59893 -21.389861 
L 354.531417 -22.278866 
L 355.463904 -23.200248 
L 356.39639 -24.145956 
L 357.328877 -25.101754 
L 358.261364 -26.051174 
L 359.19385 -26.980317 
L 360.126337 -27.881629 
L 361.058824 -28.755168 
L 361.99131 -29.606964 
L 362.923797 -30.445292 
L 363.856283 -31.276605 
L 364.78877 -32.102946 
L 365.721257 -32.921911 
L 366.653743 -33.72896 
L 367.58623 -34.520754 
L 368.518717 -35.297694 
L 369.451203 -36.064261 
L 370.38369 -36.826834 
L 371.316176 -37.589833 
L 372.248663 -38.351873 
L 373.18115 -39.103571 
L 374.113636 -39.828058 
L 375.046123 -40.50416 
L 375.97861 -41.111247 
L 376.911096 -41.634162 
L 377.843583 -42.066653 
L 378.77607 -42.412247 
L 379.708556 -42.682426 
L 380.641043 -42.892853 
L 381.573529 -43.058963 
L 382.506016 -43.192325 
L 383.438503 -43.298699 
L 384.370989 -43.378019 
L 385.303476 -43.425818 
L 386.235963 -43.435275 
L 387.168449 -43.399106 
L 388.100936 -43.31085 
L 389.033422 -43.165526 
L 389.965909 -42.959861 
L 390.898396 -42.692364 
L 391.830882 -42.363347 
L 392.763369 -41.974895 
L 393.695856 -41.530717 
L 394.628342 -41.035846 
L 395.560829 -40.496249 
L 396.493316 -39.918382 
L 397.425802 -39.308703 
L 398.358289 -38.673077 
L 399.290775 -38.016054 
L 400.223262 -37.340101 
L 401.155749 -36.645016 
L 402.088235 -35.927808 
L 403.020722 -35.183226 
L 403.953209 -34.404928 
L 404.885695 -33.587052 
L 405.818182 -32.72581 
L 406.750668 -31.820703 
L 407.683155 -30.875102 
L 408.615642 -29.896075 
L 409.548128 -28.893595 
L 410.480615 -27.879375 
L 411.413102 -26.86563 
L 412.345588 -25.86398 
L 413.278075 -24.884576 
L 414.210561 -23.935379 
L 415.143048 -23.021546 
L 416.075535 -22.144928 
L 417.008021 -21.303881 
L 417.940508 -20.493611 
L 418.872995 -19.707202 
L 419.805481 -18.937199 
L 420.737968 -18.177397 
L 421.670455 -17.424289 
L 422.602941 -16.677712 
L 423.535428 -15.94047 
L 424.467914 -15.21705 
L 425.400401 -14.511873 
L 426.332888 -13.827714 
L 427.265374 -13.164858 
L 428.197861 -12.521292 
L 429.130348 -11.89384 
L 430.062834 -11.279775 
L 430.995321 -10.678292 
L 431.927807 -10.091328 
L 432.860294 -9.52352 
L 433.792781 -8.981432 
L 434.725267 -8.472376 
L 435.657754 -8.003167 
L 436.590241 -7.579044 
L 437.522727 -7.202824 
L 438.455214 -6.874334 
L 439.387701 -6.590182 
L 440.320187 -6.343989 
L 441.252674 -6.127215 
L 442.18516 -5.930537 
L 443.117647 -5.745554 
L 444.050134 -5.566316 
L 444.98262 -5.390167 
L 445.915107 -5.217564 
L 446.847594 -5.050877 
L 447.78008 -4.892644 
L 448.712567 -4.74395 
L 449.645053 -4.603555 
L 450.57754 -4.468076 
L 450.57754 -2.470909 
L 450.57754 -2.470909 
L 449.645053 -2.470909 
L 448.712567 -2.470909 
L 447.78008 -2.470909 
L 446.847594 -2.470909 
L 445.915107 -2.470909 
L 444.98262 -2.470909 
L 444.050134 -2.470909 
L 443.117647 -2.470909 
L 442.18516 -2.470909 
L 441.252674 -2.470909 
L 440.320187 -2.470909 
L 439.387701 -2.470909 
L 438.455214 -2.470909 
L 437.522727 -2.470909 
L 436.590241 -2.470909 
L 435.657754 -2.470909 
L 434.725267 -2.470909 
L 433.792781 -2.470909 
L 432.860294 -2.470909 
L 431.927807 -2.470909 
L 430.995321 -2.470909 
L 430.062834 -2.470909 
L 429.130348 -2.470909 
L 428.197861 -2.470909 
L 427.265374 -2.470909 
L 426.332888 -2.470909 
L 425.400401 -2.470909 
L 424.467914 -2.470909 
L 423.535428 -2.470909 
L 422.602941 -2.470909 
L 421.670455 -2.470909 
L 420.737968 -2.470909 
L 419.805481 -2.470909 
L 418.872995 -2.470909 
L 417.940508 -2.470909 
L 417.008021 -2.470909 
L 416.075535 -2.470909 
L 415.143048 -2.470909 
L 414.210561 -2.470909 
L 413.278075 -2.470909 
L 412.345588 -2.470909 
L 411.413102 -2.470909 
L 410.480615 -2.470909 
L 409.548128 -2.470909 
L 408.615642 -2.470909 
L 407.683155 -2.470909 
L 406.750668 -2.470909 
L 405.818182 -2.470909 
L 404.885695 -2.470909 
L 403.953209 -2.470909 
L 403.020722 -2.470909 
L 402.088235 -2.470909 
L 401.155749 -2.470909 
L 400.223262 -2.470909 
L 399.290775 -2.470909 
L 398.358289 -2.470909 
L 397.425802 -2.470909 
L 396.493316 -2.470909 
L 395.560829 -2.470909 
L 394.628342 -2.470909 
L 393.695856 -2.470909 
L 392.763369 -2.470909 
L 391.830882 -2.470909 
L 390.898396 -2.470909 
L 389.965909 -2.470909 
L 389.033422 -2.470909 
L 388.100936 -2.470909 
L 387.168449 -2.470909 
L 386.235963 -2.470909 
L 385.303476 -2.470909 
L 384.370989 -2.470909 
L 383.438503 -2.470909 
L 382.506016 -2.470909 
L 381.573529 -2.470909 
L 380.641043 -2.470909 
L 379.708556 -2.470909 
L 378.77607 -2.470909 
L 377.843583 -2.470909 
L 376.911096 -2.470909 
L 375.97861 -2.470909 
L 375.046123 -2.470909 
L 374.113636 -2.470909 
L 373.18115 -2.470909 
L 372.248663 -2.470909 
L 371.316176 -2.470909 
L 370.38369 -2.470909 
L 369.451203 -2.470909 
L 368.518717 -2.470909 
L 367.58623 -2.470909 
L 366.653743 -2.470909 
L 365.721257 -2.470909 
L 364.78877 -2.470909 
L 363.856283 -2.470909 
L 362.923797 -2.470909 
L 361.99131 -2.470909 
L 361.058824 -2.470909 
L 360.126337 -2.470909 
L 359.19385 -2.470909 
L 358.261364 -2.470909 
L 357.328877 -2.470909 
L 356.39639 -2.470909 
L 355.463904 -2.470909 
L 354.531417 -2.470909 
L 353.59893 -2.470909 
L 352.666444 -2.470909 
L 351.733957 -2.470909 
L 350.801471 -2.470909 
L 349.868984 -2.470909 
L 348.936497 -2.470909 
L 348.004011 -2.470909 
L 347.071524 -2.470909 
L 346.139037 -2.470909 
L 345.206551 -2.470909 
L 344.274064 -2.470909 
L 343.341578 -2.470909 
L 342.409091 -2.470909 
L 341.476604 -2.470909 
L 340.544118 -2.470909 
L 339.611631 -2.470909 
L 338.679144 -2.470909 
L 337.746658 -2.470909 
L 336.814171 -2.470909 
L 335.881684 -2.470909 
L 334.949198 -2.470909 
L 334.016711 -2.470909 
L 333.084225 -2.470909 
L 332.151738 -2.470909 
L 331.219251 -2.470909 
L 330.286765 -2.470909 
L 329.354278 -2.470909 
L 328.421791 -2.470909 
L 327.489305 -2.470909 
L 326.556818 -2.470909 
L 325.624332 -2.470909 
L 324.691845 -2.470909 
L 323.759358 -2.470909 
L 322.826872 -2.470909 
L 321.894385 -2.470909 
z
" style="stroke: #cf1313; stroke-opacity: 0.2"/>
    </defs>
    <g clip-path="url(#p9e25fa23a1)">
     <use xlink:href="#mf96d3fe1c1" x="0" y="54.36" style="fill: #cf1313; fill-opacity: 0.2; stroke: #cf1313; stroke-opacity: 0.2"/>
    </g>
   </g>
   <g id="PolyCollection_2">
    <defs>
     <path id="m78811015d5" d="M 392.763369 -2.470909 
L 392.763369 -4.074097 
L 393.695856 -4.225484 
L 394.628342 -4.393602 
L 395.560829 -4.577629 
L 396.493316 -4.774945 
L 397.425802 -4.981521 
L 398.358289 -5.19269 
L 399.290775 -5.404146 
L 400.223262 -5.612962 
L 401.155749 -5.818378 
L 402.088235 -6.022202 
L 403.020722 -6.228733 
L 403.953209 -6.444257 
L 404.885695 -6.676226 
L 405.818182 -6.932286 
L 406.750668 -7.219334 
L 407.683155 -7.542725 
L 408.615642 -7.905706 
L 409.548128 -8.309111 
L 410.480615 -8.751302 
L 411.413102 -9.228359 
L 412.345588 -9.734492 
L 413.278075 -10.262687 
L 414.210561 -10.805582 
L 415.143048 -11.356521 
L 416.075535 -11.910688 
L 417.008021 -12.466143 
L 417.940508 -13.024511 
L 418.872995 -13.591102 
L 419.805481 -14.174283 
L 420.737968 -14.784141 
L 421.670455 -15.430652 
L 422.602941 -16.12175 
L 423.535428 -16.861773 
L 424.467914 -17.65064 
L 425.400401 -18.483912 
L 426.332888 -19.353623 
L 427.265374 -20.24957 
L 428.197861 -21.160679 
L 429.130348 -22.076145 
L 430.062834 -22.98621 
L 430.995321 -23.882609 
L 431.927807 -24.758786 
L 432.860294 -25.609983 
L 433.792781 -26.433246 
L 434.725267 -27.227328 
L 435.657754 -27.992488 
L 436.590241 -28.730238 
L 437.522727 -29.44312 
L 438.455214 -30.134608 
L 439.387701 -30.809116 
L 440.320187 -31.471996 
L 441.252674 -32.129338 
L 442.18516 -32.787427 
L 443.117647 -33.451837 
L 444.050134 -34.126334 
L 444.98262 -34.811877 
L 445.915107 -35.506047 
L 446.847594 -36.203088 
L 447.78008 -36.894613 
L 448.712567 -37.5708 
L 449.645053 -38.221809 
L 450.57754 -38.839089 
L 451.510027 -39.416308 
L 452.442513 -39.949704 
L 453.375 -40.437833 
L 454.307487 -40.88078 
L 455.239973 -41.279043 
L 456.17246 -41.632406 
L 457.104947 -41.939118 
L 458.037433 -42.195724 
L 458.96992 -42.39772 
L 459.902406 -42.541013 
L 460.834893 -42.623858 
L 461.76738 -42.648651 
L 462.699866 -42.622848 
L 463.632353 -42.558356 
L 464.56484 -42.469213 
L 465.497326 -42.367966 
L 466.429813 -42.261773 
L 467.362299 -42.149549 
L 468.294786 -42.021306 
L 469.227273 -41.860104 
L 470.159759 -41.646185 
L 471.092246 -41.361971 
L 472.024733 -40.996337 
L 472.957219 -40.546833 
L 473.889706 -40.019309 
L 474.822193 -39.425374 
L 475.754679 -38.778834 
L 476.687166 -38.092471 
L 477.619652 -37.376221 
L 478.552139 -36.637123 
L 479.484626 -35.880669 
L 480.417112 -35.11269 
L 481.349599 -34.340793 
L 482.282086 -33.574611 
L 483.214572 -32.824664 
L 484.147059 -32.10016 
L 485.079545 -31.406479 
L 486.012032 -30.743245 
L 486.944519 -30.103696 
L 487.877005 -29.47569 
L 488.809492 -28.844171 
L 489.741979 -28.19445 
L 490.674465 -27.515421 
L 491.606952 -26.801862 
L 492.539439 -26.055272 
L 493.471925 -25.283148 
L 494.404412 -24.497026 
L 495.336898 -23.709936 
L 496.269385 -22.93391 
L 497.201872 -22.178107 
L 498.134358 -21.447762 
L 499.066845 -20.743989 
L 499.999332 -20.064246 
L 500.931818 -19.403254 
L 501.864305 -18.754211 
L 502.796791 -18.110153 
L 503.729278 -17.465341 
L 504.661765 -16.816478 
L 505.594251 -16.163514 
L 506.526738 -15.509776 
L 507.459225 -14.861317 
L 508.391711 -14.225539 
L 509.324198 -13.609443 
L 510.256684 -13.01798 
L 511.189171 -12.45301 
L 512.121658 -11.913196 
L 513.054144 -11.394841 
L 513.986631 -10.893374 
L 514.919118 -10.404965 
L 515.851604 -9.927758 
L 516.784091 -9.46233 
L 517.716578 -9.011323 
L 518.649064 -8.578449 
L 519.581551 -8.167255 
L 520.514037 -7.780084 
L 521.446524 -7.417508 
L 522.379011 -7.078362 
L 523.311497 -6.760245 
L 524.243984 -6.460265 
L 525.176471 -6.175754 
L 526.108957 -5.904721 
L 527.041444 -5.645982 
L 527.97393 -5.398995 
L 528.906417 -5.163572 
L 529.838904 -4.939619 
L 530.77139 -4.727049 
L 531.703877 -4.525874 
L 532.636364 -4.336414 
L 532.636364 -2.470909 
L 532.636364 -2.470909 
L 531.703877 -2.470909 
L 530.77139 -2.470909 
L 529.838904 -2.470909 
L 528.906417 -2.470909 
L 527.97393 -2.470909 
L 527.041444 -2.470909 
L 526.108957 -2.470909 
L 525.176471 -2.470909 
L 524.243984 -2.470909 
L 523.311497 -2.470909 
L 522.379011 -2.470909 
L 521.446524 -2.470909 
L 520.514037 -2.470909 
L 519.581551 -2.470909 
L 518.649064 -2.470909 
L 517.716578 -2.470909 
L 516.784091 -2.470909 
L 515.851604 -2.470909 
L 514.919118 -2.470909 
L 513.986631 -2.470909 
L 513.054144 -2.470909 
L 512.121658 -2.470909 
L 511.189171 -2.470909 
L 510.256684 -2.470909 
L 509.324198 -2.470909 
L 508.391711 -2.470909 
L 507.459225 -2.470909 
L 506.526738 -2.470909 
L 505.594251 -2.470909 
L 504.661765 -2.470909 
L 503.729278 -2.470909 
L 502.796791 -2.470909 
L 501.864305 -2.470909 
L 500.931818 -2.470909 
L 499.999332 -2.470909 
L 499.066845 -2.470909 
L 498.134358 -2.470909 
L 497.201872 -2.470909 
L 496.269385 -2.470909 
L 495.336898 -2.470909 
L 494.404412 -2.470909 
L 493.471925 -2.470909 
L 492.539439 -2.470909 
L 491.606952 -2.470909 
L 490.674465 -2.470909 
L 489.741979 -2.470909 
L 488.809492 -2.470909 
L 487.877005 -2.470909 
L 486.944519 -2.470909 
L 486.012032 -2.470909 
L 485.079545 -2.470909 
L 484.147059 -2.470909 
L 483.214572 -2.470909 
L 482.282086 -2.470909 
L 481.349599 -2.470909 
L 480.417112 -2.470909 
L 479.484626 -2.470909 
L 478.552139 -2.470909 
L 477.619652 -2.470909 
L 476.687166 -2.470909 
L 475.754679 -2.470909 
L 474.822193 -2.470909 
L 473.889706 -2.470909 
L 472.957219 -2.470909 
L 472.024733 -2.470909 
L 471.092246 -2.470909 
L 470.159759 -2.470909 
L 469.227273 -2.470909 
L 468.294786 -2.470909 
L 467.362299 -2.470909 
L 466.429813 -2.470909 
L 465.497326 -2.470909 
L 464.56484 -2.470909 
L 463.632353 -2.470909 
L 462.699866 -2.470909 
L 461.76738 -2.470909 
L 460.834893 -2.470909 
L 459.902406 -2.470909 
L 458.96992 -2.470909 
L 458.037433 -2.470909 
L 457.104947 -2.470909 
L 456.17246 -2.470909 
L 455.239973 -2.470909 
L 454.307487 -2.470909 
L 453.375 -2.470909 
L 452.442513 -2.470909 
L 451.510027 -2.470909 
L 450.57754 -2.470909 
L 449.645053 -2.470909 
L 448.712567 -2.470909 
L 447.78008 -2.470909 
L 446.847594 -2.470909 
L 445.915107 -2.470909 
L 444.98262 -2.470909 
L 444.050134 -2.470909 
L 443.117647 -2.470909 
L 442.18516 -2.470909 
L 441.252674 -2.470909 
L 440.320187 -2.470909 
L 439.387701 -2.470909 
L 438.455214 -2.470909 
L 437.522727 -2.470909 
L 436.590241 -2.470909 
L 435.657754 -2.470909 
L 434.725267 -2.470909 
L 433.792781 -2.470909 
L 432.860294 -2.470909 
L 431.927807 -2.470909 
L 430.995321 -2.470909 
L 430.062834 -2.470909 
L 429.130348 -2.470909 
L 428.197861 -2.470909 
L 427.265374 -2.470909 
L 426.332888 -2.470909 
L 425.400401 -2.470909 
L 424.467914 -2.470909 
L 423.535428 -2.470909 
L 422.602941 -2.470909 
L 421.670455 -2.470909 
L 420.737968 -2.470909 
L 419.805481 -2.470909 
L 418.872995 -2.470909 
L 417.940508 -2.470909 
L 417.008021 -2.470909 
L 416.075535 -2.470909 
L 415.143048 -2.470909 
L 414.210561 -2.470909 
L 413.278075 -2.470909 
L 412.345588 -2.470909 
L 411.413102 -2.470909 
L 410.480615 -2.470909 
L 409.548128 -2.470909 
L 408.615642 -2.470909 
L 407.683155 -2.470909 
L 406.750668 -2.470909 
L 405.818182 -2.470909 
L 404.885695 -2.470909 
L 403.953209 -2.470909 
L 403.020722 -2.470909 
L 402.088235 -2.470909 
L 401.155749 -2.470909 
L 400.223262 -2.470909 
L 399.290775 -2.470909 
L 398.358289 -2.470909 
L 397.425802 -2.470909 
L 396.493316 -2.470909 
L 395.560829 -2.470909 
L 394.628342 -2.470909 
L 393.695856 -2.470909 
L 392.763369 -2.470909 
z
" style="stroke: #116dc2; stroke-opacity: 0.2"/>
    </defs>
    <g clip-path="url(#p9e25fa23a1)">
     <use xlink:href="#m78811015d5" x="0" y="54.36" style="fill: #116dc2; fill-opacity: 0.2; stroke: #116dc2; stroke-opacity: 0.2"/>
    </g>
   </g>
   <g id="PolyCollection_3">
    <defs>
     <path id="ma66bef2990" d="M 25.363636 -2.470909 
L 25.363636 -4.781321 
L 26.296123 -5.375547 
L 27.22861 -6.092181 
L 28.161096 -6.855737 
L 29.093583 -7.666829 
L 30.02607 -8.650724 
L 30.958556 -9.944474 
L 31.891043 -11.546566 
L 32.823529 -13.293693 
L 33.756016 -15.005354 
L 34.688503 -16.667259 
L 35.620989 -18.434208 
L 36.553476 -20.449146 
L 37.485963 -22.73742 
L 38.418449 -25.314938 
L 39.350936 -28.29491 
L 40.283422 -31.712034 
L 41.215909 -35.288983 
L 42.148396 -38.555029 
L 43.080882 -41.215957 
L 44.013369 -43.389699 
L 44.945856 -45.420677 
L 45.878342 -47.447443 
L 46.810829 -49.269811 
L 47.743316 -50.616073 
L 48.675802 -51.42348 
L 49.608289 -51.819529 
L 50.540775 -51.889091 
L 51.473262 -51.598739 
L 52.405749 -50.911846 
L 53.338235 -49.843278 
L 54.270722 -48.407696 
L 55.203209 -46.54724 
L 56.135695 -44.19778 
L 57.068182 -41.490705 
L 58.000668 -38.799123 
L 58.933155 -36.475749 
L 59.865642 -34.470044 
L 60.798128 -32.296063 
L 61.730615 -29.547356 
L 62.663102 -26.313002 
L 63.595588 -22.989325 
L 64.528075 -19.930296 
L 65.460561 -17.32851 
L 66.393048 -15.203973 
L 67.325535 -13.444352 
L 68.258021 -11.916634 
L 69.190508 -10.566353 
L 70.122995 -9.407581 
L 71.055481 -8.417117 
L 71.987968 -7.509595 
L 72.920455 -6.649571 
L 73.852941 -5.894584 
L 74.785428 -5.284874 
L 75.717914 -4.766726 
L 75.717914 -2.470909 
L 75.717914 -2.470909 
L 74.785428 -2.470909 
L 73.852941 -2.470909 
L 72.920455 -2.470909 
L 71.987968 -2.470909 
L 71.055481 -2.470909 
L 70.122995 -2.470909 
L 69.190508 -2.470909 
L 68.258021 -2.470909 
L 67.325535 -2.470909 
L 66.393048 -2.470909 
L 65.460561 -2.470909 
L 64.528075 -2.470909 
L 63.595588 -2.470909 
L 62.663102 -2.470909 
L 61.730615 -2.470909 
L 60.798128 -2.470909 
L 59.865642 -2.470909 
L 58.933155 -2.470909 
L 58.000668 -2.470909 
L 57.068182 -2.470909 
L 56.135695 -2.470909 
L 55.203209 -2.470909 
L 54.270722 -2.470909 
L 53.338235 -2.470909 
L 52.405749 -2.470909 
L 51.473262 -2.470909 
L 50.540775 -2.470909 
L 49.608289 -2.470909 
L 48.675802 -2.470909 
L 47.743316 -2.470909 
L 46.810829 -2.470909 
L 45.878342 -2.470909 
L 44.945856 -2.470909 
L 44.013369 -2.470909 
L 43.080882 -2.470909 
L 42.148396 -2.470909 
L 41.215909 -2.470909 
L 40.283422 -2.470909 
L 39.350936 -2.470909 
L 38.418449 -2.470909 
L 37.485963 -2.470909 
L 36.553476 -2.470909 
L 35.620989 -2.470909 
L 34.688503 -2.470909 
L 33.756016 -2.470909 
L 32.823529 -2.470909 
L 31.891043 -2.470909 
L 30.958556 -2.470909 
L 30.02607 -2.470909 
L 29.093583 -2.470909 
L 28.161096 -2.470909 
L 27.22861 -2.470909 
L 26.296123 -2.470909 
L 25.363636 -2.470909 
z
" style="stroke: #8a8a8a; stroke-opacity: 0.2"/>
    </defs>
    <g clip-path="url(#p9e25fa23a1)">
     <use xlink:href="#ma66bef2990" x="0" y="54.36" style="fill: #8a8a8a; fill-opacity: 0.2; stroke: #8a8a8a; stroke-opacity: 0.2"/>
    </g>
   </g>
   <g id="line2d_1">
    <path d="M 321.894385 50.057941 
L 331.219251 48.013556 
L 334.016711 47.061683 
L 336.814171 45.84283 
L 339.611631 44.334614 
L 342.409091 42.48837 
L 345.206551 40.302668 
L 351.733957 34.6571 
L 354.531417 32.081134 
L 362.923797 23.914708 
L 368.518717 19.062306 
L 374.113636 14.531942 
L 375.97861 13.248753 
L 377.843583 12.293347 
L 379.708556 11.677574 
L 381.573529 11.301037 
L 384.370989 10.981981 
L 386.235963 10.924725 
L 388.100936 11.04915 
L 389.965909 11.400139 
L 391.830882 11.996653 
L 393.695856 12.829283 
L 395.560829 13.863751 
L 398.358289 15.686923 
L 402.088235 18.432192 
L 404.885695 20.772948 
L 407.683155 23.484898 
L 416.075535 32.215072 
L 418.872995 34.652798 
L 424.467914 39.14295 
L 428.197861 41.838708 
L 431.927807 44.268672 
L 434.725267 45.887624 
L 436.590241 46.780956 
L 438.455214 47.485666 
L 441.252674 48.232785 
L 446.847594 49.309123 
L 450.57754 49.891924 
L 450.57754 49.891924 
" clip-path="url(#p9e25fa23a1)" style="fill: none; stroke: #cf1313; stroke-width: 1.5; stroke-linecap: square"/>
   </g>
   <g id="line2d_2">
    <path d="M 392.763369 50.285903 
L 396.493316 49.585055 
L 405.818182 47.427714 
L 408.615642 46.454294 
L 411.413102 45.131641 
L 415.143048 43.003479 
L 420.737968 39.575859 
L 422.602941 38.23825 
L 424.467914 36.70936 
L 427.265374 34.11043 
L 432.860294 28.750017 
L 435.657754 26.367512 
L 439.387701 23.550884 
L 451.510027 14.943692 
L 453.375 13.922167 
L 455.239973 13.080957 
L 457.104947 12.420882 
L 458.96992 11.96228 
L 460.834893 11.736142 
L 462.699866 11.737152 
L 466.429813 12.098227 
L 469.227273 12.499896 
L 471.092246 12.998029 
L 472.957219 13.813167 
L 474.822193 14.934626 
L 477.619652 16.983779 
L 486.944519 24.256304 
L 490.674465 26.844579 
L 493.471925 29.076852 
L 498.134358 32.912238 
L 501.864305 35.605789 
L 510.256684 41.34202 
L 513.054144 42.965159 
L 517.716578 45.348677 
L 520.514037 46.579916 
L 523.311497 47.599755 
L 527.041444 48.714018 
L 531.703877 49.834126 
L 532.636364 50.023586 
L 532.636364 50.023586 
" clip-path="url(#p9e25fa23a1)" style="fill: none; stroke: #116dc2; stroke-width: 1.5; stroke-linecap: square"/>
   </g>
   <g id="line2d_3">
    <path d="M 25.363636 49.578679 
L 26.296123 48.984453 
L 27.22861 48.267819 
L 28.161096 47.504263 
L 29.093583 46.693171 
L 30.02607 45.709276 
L 30.958556 44.415526 
L 31.891043 42.813434 
L 32.823529 41.066307 
L 33.756016 39.354646 
L 34.688503 37.692741 
L 35.620989 35.925792 
L 36.553476 33.910854 
L 37.485963 31.62258 
L 38.418449 29.045062 
L 39.350936 26.06509 
L 40.283422 22.647966 
L 41.215909 19.071017 
L 42.148396 15.804971 
L 43.080882 13.144043 
L 44.013369 10.970301 
L 44.945856 8.939323 
L 45.878342 6.912557 
L 46.810829 5.090189 
L 47.743316 3.743927 
L 48.675802 2.93652 
L 49.608289 2.540471 
L 50.540775 2.470909 
L 51.473262 2.761261 
L 52.405749 3.448154 
L 53.338235 4.516722 
L 54.270722 5.952304 
L 55.203209 7.81276 
L 56.135695 10.16222 
L 57.068182 12.869295 
L 58.000668 15.560877 
L 58.933155 17.884251 
L 59.865642 19.889956 
L 60.798128 22.063937 
L 61.730615 24.812644 
L 62.663102 28.046998 
L 63.595588 31.370675 
L 64.528075 34.429704 
L 65.460561 37.03149 
L 66.393048 39.156027 
L 67.325535 40.915648 
L 68.258021 42.443366 
L 69.190508 43.793647 
L 70.122995 44.952419 
L 71.055481 45.942883 
L 71.987968 46.850405 
L 72.920455 47.710429 
L 73.852941 48.465416 
L 74.785428 49.075126 
L 75.717914 49.593274 
" clip-path="url(#p9e25fa23a1)" style="fill: none; stroke: #8a8a8a; stroke-width: 1.5; stroke-linecap: square"/>
   </g>
  </g>
 </g>
 <defs>
  <clipPath id="p9e25fa23a1">
   <rect x="0" y="-0" width="558" height="54.36"/>
  </clipPath>
 </defs>
</svg>
