<?xml version="1.0" encoding="utf-8" standalone="no"?>
<!DOCTYPE svg PUBLIC "-//W3C//DTD SVG 1.1//EN"
  "http://www.w3.org/Graphics/SVG/1.1/DTD/svg11.dtd">
<svg xmlns:xlink="http://www.w3.org/1999/xlink" width="558pt" height="54.36pt" viewBox="0 0 558 54.36" xmlns="http://www.w3.org/2000/svg" version="1.1">
 <metadata>
  <rdf:RDF xmlns:dc="http://purl.org/dc/elements/1.1/" xmlns:cc="http://creativecommons.org/ns#" xmlns:rdf="http://www.w3.org/1999/02/22-rdf-syntax-ns#">
   <cc:Work>
    <dc:type rdf:resource="http://purl.org/dc/dcmitype/StillImage"/>
    <dc:date>2024-09-15T09:31:27.516294</dc:date>
    <dc:format>image/svg+xml</dc:format>
    <dc:creator>
     <cc:Agent>
      <dc:title>Matplotlib v3.5.2, https://matplotlib.org/</dc:title>
     </cc:Agent>
    </dc:creator>
   </cc:Work>
  </rdf:RDF>
 </metadata>
 <defs>
  <style type="text/css">*{stroke-linejoin: round; stroke-linecap: butt}</style>
 </defs>
 <g id="figure_1">
  <g id="patch_1">
   <path d="M 0 54.36 
L 558 54.36 
L 558 0 
L 0 0 
L 0 54.36 
z
" style="fill: none; opacity: 0"/>
  </g>
  <g id="axes_1">
   <g id="PolyCollection_1">
    <defs>
     <path id="m64ae29d5cf" d="M 322.281068 -2.470909 
L 322.281068 -4.304573 
L 323.211843 -4.468471 
L 324.142619 -4.639375 
L 325.073394 -4.82234 
L 326.00417 -5.023901 
L 326.934946 -5.250648 
L 327.865721 -5.507777 
L 328.796497 -5.798032 
L 329.727273 -6.121233 
L 330.658048 -6.474448 
L 331.588824 -6.852689 
L 332.5196 -7.249984 
L 333.450375 -7.660661 
L 334.381151 -8.080669 
L 335.311927 -8.508664 
L 336.242702 -8.946544 
L 337.173478 -9.39914 
L 338.104254 -9.872942 
L 339.035029 -10.374074 
L 339.965805 -10.906058 
L 340.89658 -11.468118 
L 341.827356 -12.054715 
L 342.758132 -12.656663 
L 343.688907 -13.263667 
L 344.619683 -13.867576 
L 345.550459 -14.465362 
L 346.481234 -15.060805 
L 347.41201 -15.664253 
L 348.342786 -16.290401 
L 349.273561 -16.954683 
L 350.204337 -17.669353 
L 351.135113 -18.440424 
L 352.065888 -19.266322 
L 352.996664 -20.138498 
L 353.92744 -21.043562 
L 354.858215 -21.966077 
L 355.788991 -22.89112 
L 356.719766 -23.806094 
L 357.650542 -24.701739 
L 358.581318 -25.572661 
L 359.512093 -26.417679 
L 360.442869 -27.240069 
L 361.373645 -28.047452 
L 362.30442 -28.850977 
L 363.235196 -29.663603 
L 364.165972 -30.497599 
L 365.096747 -31.361735 
L 366.027523 -32.258832 
L 366.958299 -33.184362 
L 367.889074 -34.126648 
L 368.81985 -35.068873 
L 369.750626 -35.992608 
L 370.681401 -36.88196 
L 371.612177 -37.727033 
L 372.542952 -38.525355 
L 373.473728 -39.280526 
L 374.404504 -39.998347 
L 375.335279 -40.681834 
L 376.266055 -41.327078 
L 377.196831 -41.921794 
L 378.127606 -42.447319 
L 379.058382 -42.883424 
L 379.989158 -43.21412 
L 380.919933 -43.432201 
L 381.850709 -43.540867 
L 382.781485 -43.55204 
L 383.71226 -43.48235 
L 384.643036 -43.348595 
L 385.573812 -43.164387 
L 386.504587 -42.938928 
L 387.435363 -42.677778 
L 388.366138 -42.384705 
L 389.296914 -42.063445 
L 390.22769 -41.71852 
L 391.158465 -41.354764 
L 392.089241 -40.97582 
L 393.020017 -40.58216 
L 393.950792 -40.169371 
L 394.881568 -39.727368 
L 395.812344 -39.240994 
L 396.743119 -38.692167 
L 397.673895 -38.063311 
L 398.604671 -37.341462 
L 399.535446 -36.522113 
L 400.466222 -35.611818 
L 401.396997 -34.628747 
L 402.327773 -33.600875 
L 403.258549 -32.562 
L 404.189324 -31.546386 
L 405.1201 -30.583106 
L 406.050876 -29.691271 
L 406.981651 -28.877097 
L 407.912427 -28.133404 
L 408.843203 -27.441612 
L 409.773978 -26.775817 
L 410.704754 -26.108042 
L 411.63553 -25.4135 
L 412.566305 -24.674678 
L 413.497081 -23.883406 
L 414.427857 -23.040656 
L 415.358632 -22.154551 
L 416.289408 -21.237554 
L 417.220183 -20.303859 
L 418.150959 -19.367679 
L 419.081735 -18.442435 
L 420.01251 -17.540381 
L 420.943286 -16.672056 
L 421.874062 -15.845312 
L 422.804837 -15.064235 
L 423.735613 -14.328593 
L 424.666389 -13.634415 
L 425.597164 -12.975724 
L 426.52794 -12.346829 
L 427.458716 -11.744219 
L 428.389491 -11.167251 
L 429.320267 -10.617427 
L 430.251043 -10.096743 
L 431.181818 -9.606031 
L 432.112594 -9.14414 
L 433.043369 -8.708286 
L 433.974145 -8.295331 
L 434.904921 -7.903244 
L 435.835696 -7.531989 
L 436.766472 -7.183394 
L 437.697248 -6.860057 
L 438.628023 -6.563795 
L 439.558799 -6.294353 
L 440.489575 -6.048926 
L 441.42035 -5.822696 
L 442.351126 -5.610144 
L 443.281902 -5.40659 
L 444.212677 -5.209333 
L 445.143453 -5.018 
L 446.074229 -4.834034 
L 447.005004 -4.659633 
L 447.93578 -4.496611 
L 448.866555 -4.34562 
L 449.797331 -4.205962 
L 449.797331 -2.470909 
L 449.797331 -2.470909 
L 448.866555 -2.470909 
L 447.93578 -2.470909 
L 447.005004 -2.470909 
L 446.074229 -2.470909 
L 445.143453 -2.470909 
L 444.212677 -2.470909 
L 443.281902 -2.470909 
L 442.351126 -2.470909 
L 441.42035 -2.470909 
L 440.489575 -2.470909 
L 439.558799 -2.470909 
L 438.628023 -2.470909 
L 437.697248 -2.470909 
L 436.766472 -2.470909 
L 435.835696 -2.470909 
L 434.904921 -2.470909 
L 433.974145 -2.470909 
L 433.043369 -2.470909 
L 432.112594 -2.470909 
L 431.181818 -2.470909 
L 430.251043 -2.470909 
L 429.320267 -2.470909 
L 428.389491 -2.470909 
L 427.458716 -2.470909 
L 426.52794 -2.470909 
L 425.597164 -2.470909 
L 424.666389 -2.470909 
L 423.735613 -2.470909 
L 422.804837 -2.470909 
L 421.874062 -2.470909 
L 420.943286 -2.470909 
L 420.01251 -2.470909 
L 419.081735 -2.470909 
L 418.150959 -2.470909 
L 417.220183 -2.470909 
L 416.289408 -2.470909 
L 415.358632 -2.470909 
L 414.427857 -2.470909 
L 413.497081 -2.470909 
L 412.566305 -2.470909 
L 411.63553 -2.470909 
L 410.704754 -2.470909 
L 409.773978 -2.470909 
L 408.843203 -2.470909 
L 407.912427 -2.470909 
L 406.981651 -2.470909 
L 406.050876 -2.470909 
L 405.1201 -2.470909 
L 404.189324 -2.470909 
L 403.258549 -2.470909 
L 402.327773 -2.470909 
L 401.396997 -2.470909 
L 400.466222 -2.470909 
L 399.535446 -2.470909 
L 398.604671 -2.470909 
L 397.673895 -2.470909 
L 396.743119 -2.470909 
L 395.812344 -2.470909 
L 394.881568 -2.470909 
L 393.950792 -2.470909 
L 393.020017 -2.470909 
L 392.089241 -2.470909 
L 391.158465 -2.470909 
L 390.22769 -2.470909 
L 389.296914 -2.470909 
L 388.366138 -2.470909 
L 387.435363 -2.470909 
L 386.504587 -2.470909 
L 385.573812 -2.470909 
L 384.643036 -2.470909 
L 383.71226 -2.470909 
L 382.781485 -2.470909 
L 381.850709 -2.470909 
L 380.919933 -2.470909 
L 379.989158 -2.470909 
L 379.058382 -2.470909 
L 378.127606 -2.470909 
L 377.196831 -2.470909 
L 376.266055 -2.470909 
L 375.335279 -2.470909 
L 374.404504 -2.470909 
L 373.473728 -2.470909 
L 372.542952 -2.470909 
L 371.612177 -2.470909 
L 370.681401 -2.470909 
L 369.750626 -2.470909 
L 368.81985 -2.470909 
L 367.889074 -2.470909 
L 366.958299 -2.470909 
L 366.027523 -2.470909 
L 365.096747 -2.470909 
L 364.165972 -2.470909 
L 363.235196 -2.470909 
L 362.30442 -2.470909 
L 361.373645 -2.470909 
L 360.442869 -2.470909 
L 359.512093 -2.470909 
L 358.581318 -2.470909 
L 357.650542 -2.470909 
L 356.719766 -2.470909 
L 355.788991 -2.470909 
L 354.858215 -2.470909 
L 353.92744 -2.470909 
L 352.996664 -2.470909 
L 352.065888 -2.470909 
L 351.135113 -2.470909 
L 350.204337 -2.470909 
L 349.273561 -2.470909 
L 348.342786 -2.470909 
L 347.41201 -2.470909 
L 346.481234 -2.470909 
L 345.550459 -2.470909 
L 344.619683 -2.470909 
L 343.688907 -2.470909 
L 342.758132 -2.470909 
L 341.827356 -2.470909 
L 340.89658 -2.470909 
L 339.965805 -2.470909 
L 339.035029 -2.470909 
L 338.104254 -2.470909 
L 337.173478 -2.470909 
L 336.242702 -2.470909 
L 335.311927 -2.470909 
L 334.381151 -2.470909 
L 333.450375 -2.470909 
L 332.5196 -2.470909 
L 331.588824 -2.470909 
L 330.658048 -2.470909 
L 329.727273 -2.470909 
L 328.796497 -2.470909 
L 327.865721 -2.470909 
L 326.934946 -2.470909 
L 326.00417 -2.470909 
L 325.073394 -2.470909 
L 324.142619 -2.470909 
L 323.211843 -2.470909 
L 322.281068 -2.470909 
z
" style="stroke: #cf1313; stroke-opacity: 0.2"/>
    </defs>
    <g clip-path="url(#p369e164c79)">
     <use xlink:href="#m64ae29d5cf" x="0" y="54.36" style="fill: #cf1313; fill-opacity: 0.2; stroke: #cf1313; stroke-opacity: 0.2"/>
    </g>
   </g>
   <g id="PolyCollection_2">
    <defs>
     <path id="m768191243f" d="M 391.158465 -2.470909 
L 391.158465 -3.936426 
L 392.089241 -4.039817 
L 393.020017 -4.15444 
L 393.950792 -4.282814 
L 394.881568 -4.42645 
L 395.812344 -4.585794 
L 396.743119 -4.760408 
L 397.673895 -4.949309 
L 398.604671 -5.151382 
L 399.535446 -5.365759 
L 400.466222 -5.592122 
L 401.396997 -5.830881 
L 402.327773 -6.083228 
L 403.258549 -6.35107 
L 404.189324 -6.636894 
L 405.1201 -6.943606 
L 406.050876 -7.274359 
L 406.981651 -7.632394 
L 407.912427 -8.020827 
L 408.843203 -8.442351 
L 409.773978 -8.898821 
L 410.704754 -9.390751 
L 411.63553 -9.916857 
L 412.566305 -10.473803 
L 413.497081 -11.056329 
L 414.427857 -11.657843 
L 415.358632 -12.27142 
L 416.289408 -12.891031 
L 417.220183 -13.512695 
L 418.150959 -14.135254 
L 419.081735 -14.760542 
L 420.01251 -15.392858 
L 420.943286 -16.037859 
L 421.874062 -16.701093 
L 422.804837 -17.386545 
L 423.735613 -18.095502 
L 424.666389 -18.82605 
L 425.597164 -19.573282 
L 426.52794 -20.330189 
L 427.458716 -21.088991 
L 428.389491 -21.842568 
L 429.320267 -22.585662 
L 430.251043 -23.31557 
L 431.181818 -24.032247 
L 432.112594 -24.73788 
L 433.043369 -25.436175 
L 433.974145 -26.1316 
L 434.904921 -26.828777 
L 435.835696 -27.532107 
L 436.766472 -28.245521 
L 437.697248 -28.972221 
L 438.628023 -29.714256 
L 439.558799 -30.471942 
L 440.489575 -31.24325 
L 441.42035 -32.023411 
L 442.351126 -32.804987 
L 443.281902 -33.578537 
L 444.212677 -34.333849 
L 445.143453 -35.061516 
L 446.074229 -35.754549 
L 447.005004 -36.40967 
L 447.93578 -37.027985 
L 448.866555 -37.614799 
L 449.797331 -38.178488 
L 450.728107 -38.728486 
L 451.658882 -39.272682 
L 452.589658 -39.814725 
L 453.520434 -40.351891 
L 454.451209 -40.874124 
L 455.381985 -41.364666 
L 456.312761 -41.802273 
L 457.243536 -42.164616 
L 458.174312 -42.432093 
L 459.105088 -42.591204 
L 460.035863 -42.636758 
L 460.966639 -42.572516 
L 461.897415 -42.410255 
L 462.82819 -42.167598 
L 463.758966 -41.86515 
L 464.689741 -41.523541 
L 465.620517 -41.160914 
L 466.551293 -40.791225 
L 467.482068 -40.423524 
L 468.412844 -40.062174 
L 469.34362 -39.707779 
L 470.274395 -39.358465 
L 471.205171 -39.011157 
L 472.135947 -38.662577 
L 473.066722 -38.309806 
L 473.997498 -37.950419 
L 474.928274 -37.582288 
L 475.859049 -37.20316 
L 476.789825 -36.810113 
L 477.720601 -36.399005 
L 478.651376 -35.96405 
L 479.582152 -35.49773 
L 480.512927 -34.991241 
L 481.443703 -34.435598 
L 482.374479 -33.8233 
L 483.305254 -33.150207 
L 484.23603 -32.417091 
L 485.166806 -31.630327 
L 486.097581 -30.801338 
L 487.028357 -29.944801 
L 487.959133 -29.076018 
L 488.889908 -28.208141 
L 489.820684 -27.350046 
L 490.75146 -26.505456 
L 491.682235 -25.673558 
L 492.613011 -24.850855 
L 493.543786 -24.033642 
L 494.474562 -23.220259 
L 495.405338 -22.412416 
L 496.336113 -21.61517 
L 497.266889 -20.835641 
L 498.197665 -20.080934 
L 499.12844 -19.356005 
L 500.059216 -18.662157 
L 500.989992 -17.996585 
L 501.920767 -17.353047 
L 502.851543 -16.723349 
L 503.782319 -16.099183 
L 504.713094 -15.473801 
L 505.64387 -14.843199 
L 506.574646 -14.20666 
L 507.505421 -13.566701 
L 508.436197 -12.928573 
L 509.366972 -12.299485 
L 510.297748 -11.687707 
L 511.228524 -11.101625 
L 512.159299 -10.548842 
L 513.090075 -10.035379 
L 514.020851 -9.56504 
L 514.951626 -9.139023 
L 515.882402 -8.755836 
L 516.813178 -8.411518 
L 517.743953 -8.100157 
L 518.674729 -7.814587 
L 519.605505 -7.547178 
L 520.53628 -7.290599 
L 521.467056 -7.038478 
L 522.397832 -6.785918 
L 523.328607 -6.529844 
L 524.259383 -6.269163 
L 525.190158 -6.004712 
L 526.120934 -5.738981 
L 527.05171 -5.475631 
L 527.982485 -5.21888 
L 528.913261 -4.972876 
L 529.844037 -4.741177 
L 530.774812 -4.526437 
L 531.705588 -4.330307 
L 532.636364 -4.153518 
L 532.636364 -2.470909 
L 532.636364 -2.470909 
L 531.705588 -2.470909 
L 530.774812 -2.470909 
L 529.844037 -2.470909 
L 528.913261 -2.470909 
L 527.982485 -2.470909 
L 527.05171 -2.470909 
L 526.120934 -2.470909 
L 525.190158 -2.470909 
L 524.259383 -2.470909 
L 523.328607 -2.470909 
L 522.397832 -2.470909 
L 521.467056 -2.470909 
L 520.53628 -2.470909 
L 519.605505 -2.470909 
L 518.674729 -2.470909 
L 517.743953 -2.470909 
L 516.813178 -2.470909 
L 515.882402 -2.470909 
L 514.951626 -2.470909 
L 514.020851 -2.470909 
L 513.090075 -2.470909 
L 512.159299 -2.470909 
L 511.228524 -2.470909 
L 510.297748 -2.470909 
L 509.366972 -2.470909 
L 508.436197 -2.470909 
L 507.505421 -2.470909 
L 506.574646 -2.470909 
L 505.64387 -2.470909 
L 504.713094 -2.470909 
L 503.782319 -2.470909 
L 502.851543 -2.470909 
L 501.920767 -2.470909 
L 500.989992 -2.470909 
L 500.059216 -2.470909 
L 499.12844 -2.470909 
L 498.197665 -2.470909 
L 497.266889 -2.470909 
L 496.336113 -2.470909 
L 495.405338 -2.470909 
L 494.474562 -2.470909 
L 493.543786 -2.470909 
L 492.613011 -2.470909 
L 491.682235 -2.470909 
L 490.75146 -2.470909 
L 489.820684 -2.470909 
L 488.889908 -2.470909 
L 487.959133 -2.470909 
L 487.028357 -2.470909 
L 486.097581 -2.470909 
L 485.166806 -2.470909 
L 484.23603 -2.470909 
L 483.305254 -2.470909 
L 482.374479 -2.470909 
L 481.443703 -2.470909 
L 480.512927 -2.470909 
L 479.582152 -2.470909 
L 478.651376 -2.470909 
L 477.720601 -2.470909 
L 476.789825 -2.470909 
L 475.859049 -2.470909 
L 474.928274 -2.470909 
L 473.997498 -2.470909 
L 473.066722 -2.470909 
L 472.135947 -2.470909 
L 471.205171 -2.470909 
L 470.274395 -2.470909 
L 469.34362 -2.470909 
L 468.412844 -2.470909 
L 467.482068 -2.470909 
L 466.551293 -2.470909 
L 465.620517 -2.470909 
L 464.689741 -2.470909 
L 463.758966 -2.470909 
L 462.82819 -2.470909 
L 461.897415 -2.470909 
L 460.966639 -2.470909 
L 460.035863 -2.470909 
L 459.105088 -2.470909 
L 458.174312 -2.470909 
L 457.243536 -2.470909 
L 456.312761 -2.470909 
L 455.381985 -2.470909 
L 454.451209 -2.470909 
L 453.520434 -2.470909 
L 452.589658 -2.470909 
L 451.658882 -2.470909 
L 450.728107 -2.470909 
L 449.797331 -2.470909 
L 448.866555 -2.470909 
L 447.93578 -2.470909 
L 447.005004 -2.470909 
L 446.074229 -2.470909 
L 445.143453 -2.470909 
L 444.212677 -2.470909 
L 443.281902 -2.470909 
L 442.351126 -2.470909 
L 441.42035 -2.470909 
L 440.489575 -2.470909 
L 439.558799 -2.470909 
L 438.628023 -2.470909 
L 437.697248 -2.470909 
L 436.766472 -2.470909 
L 435.835696 -2.470909 
L 434.904921 -2.470909 
L 433.974145 -2.470909 
L 433.043369 -2.470909 
L 432.112594 -2.470909 
L 431.181818 -2.470909 
L 430.251043 -2.470909 
L 429.320267 -2.470909 
L 428.389491 -2.470909 
L 427.458716 -2.470909 
L 426.52794 -2.470909 
L 425.597164 -2.470909 
L 424.666389 -2.470909 
L 423.735613 -2.470909 
L 422.804837 -2.470909 
L 421.874062 -2.470909 
L 420.943286 -2.470909 
L 420.01251 -2.470909 
L 419.081735 -2.470909 
L 418.150959 -2.470909 
L 417.220183 -2.470909 
L 416.289408 -2.470909 
L 415.358632 -2.470909 
L 414.427857 -2.470909 
L 413.497081 -2.470909 
L 412.566305 -2.470909 
L 411.63553 -2.470909 
L 410.704754 -2.470909 
L 409.773978 -2.470909 
L 408.843203 -2.470909 
L 407.912427 -2.470909 
L 406.981651 -2.470909 
L 406.050876 -2.470909 
L 405.1201 -2.470909 
L 404.189324 -2.470909 
L 403.258549 -2.470909 
L 402.327773 -2.470909 
L 401.396997 -2.470909 
L 400.466222 -2.470909 
L 399.535446 -2.470909 
L 398.604671 -2.470909 
L 397.673895 -2.470909 
L 396.743119 -2.470909 
L 395.812344 -2.470909 
L 394.881568 -2.470909 
L 393.950792 -2.470909 
L 393.020017 -2.470909 
L 392.089241 -2.470909 
L 391.158465 -2.470909 
z
" style="stroke: #116dc2; stroke-opacity: 0.2"/>
    </defs>
    <g clip-path="url(#p369e164c79)">
     <use xlink:href="#m768191243f" x="0" y="54.36" style="fill: #116dc2; fill-opacity: 0.2; stroke: #116dc2; stroke-opacity: 0.2"/>
    </g>
   </g>
   <g id="PolyCollection_3">
    <defs>
     <path id="me2d0b8a594" d="M 25.363636 -2.470909 
L 25.363636 -4.584073 
L 26.294412 -5.213873 
L 27.225188 -5.982018 
L 28.155963 -6.863969 
L 29.086739 -7.810556 
L 30.017515 -8.77281 
L 30.94829 -9.836493 
L 31.879066 -11.220805 
L 32.809842 -13.019214 
L 33.740617 -15.105306 
L 34.671393 -17.373436 
L 35.602168 -19.815765 
L 36.532944 -22.360752 
L 37.46372 -24.942964 
L 38.394495 -27.604652 
L 39.325271 -30.314431 
L 40.256047 -32.94714 
L 41.186822 -35.477937 
L 42.117598 -37.972187 
L 43.048374 -40.482647 
L 43.979149 -42.972313 
L 44.909925 -45.199652 
L 45.840701 -46.824929 
L 46.771476 -47.807 
L 47.702252 -48.587368 
L 48.633028 -49.668099 
L 49.563803 -50.990989 
L 50.494579 -51.889091 
L 51.425354 -51.756063 
L 52.35613 -50.660729 
L 53.286906 -49.083297 
L 54.217681 -47.260671 
L 55.148457 -45.17209 
L 56.079233 -42.83269 
L 57.010008 -40.252073 
L 57.940784 -37.444463 
L 58.87156 -34.578093 
L 59.802335 -31.823484 
L 60.733111 -29.14683 
L 61.663887 -26.473782 
L 62.594662 -23.920934 
L 63.525438 -21.686099 
L 64.456214 -19.769595 
L 65.386989 -17.941428 
L 66.317765 -15.990895 
L 67.24854 -13.911809 
L 68.179316 -11.868938 
L 69.110092 -10.093462 
L 70.040867 -8.748208 
L 70.971643 -7.793962 
L 71.902419 -7.034136 
L 72.833194 -6.296711 
L 73.76397 -5.531642 
L 74.694746 -4.797432 
L 74.694746 -2.470909 
L 74.694746 -2.470909 
L 73.76397 -2.470909 
L 72.833194 -2.470909 
L 71.902419 -2.470909 
L 70.971643 -2.470909 
L 70.040867 -2.470909 
L 69.110092 -2.470909 
L 68.179316 -2.470909 
L 67.24854 -2.470909 
L 66.317765 -2.470909 
L 65.386989 -2.470909 
L 64.456214 -2.470909 
L 63.525438 -2.470909 
L 62.594662 -2.470909 
L 61.663887 -2.470909 
L 60.733111 -2.470909 
L 59.802335 -2.470909 
L 58.87156 -2.470909 
L 57.940784 -2.470909 
L 57.010008 -2.470909 
L 56.079233 -2.470909 
L 55.148457 -2.470909 
L 54.217681 -2.470909 
L 53.286906 -2.470909 
L 52.35613 -2.470909 
L 51.425354 -2.470909 
L 50.494579 -2.470909 
L 49.563803 -2.470909 
L 48.633028 -2.470909 
L 47.702252 -2.470909 
L 46.771476 -2.470909 
L 45.840701 -2.470909 
L 44.909925 -2.470909 
L 43.979149 -2.470909 
L 43.048374 -2.470909 
L 42.117598 -2.470909 
L 41.186822 -2.470909 
L 40.256047 -2.470909 
L 39.325271 -2.470909 
L 38.394495 -2.470909 
L 37.46372 -2.470909 
L 36.532944 -2.470909 
L 35.602168 -2.470909 
L 34.671393 -2.470909 
L 33.740617 -2.470909 
L 32.809842 -2.470909 
L 31.879066 -2.470909 
L 30.94829 -2.470909 
L 30.017515 -2.470909 
L 29.086739 -2.470909 
L 28.155963 -2.470909 
L 27.225188 -2.470909 
L 26.294412 -2.470909 
L 25.363636 -2.470909 
z
" style="stroke: #8a8a8a; stroke-opacity: 0.2"/>
    </defs>
    <g clip-path="url(#p369e164c79)">
     <use xlink:href="#me2d0b8a594" x="0" y="54.36" style="fill: #8a8a8a; fill-opacity: 0.2; stroke: #8a8a8a; stroke-opacity: 0.2"/>
    </g>
   </g>
   <g id="line2d_1">
    <path d="M 322.281068 50.055427 
L 326.00417 49.336099 
L 328.796497 48.561968 
L 331.588824 47.507311 
L 336.242702 45.413456 
L 339.035029 43.985926 
L 341.827356 42.305285 
L 349.273561 37.405317 
L 351.135113 35.919576 
L 353.92744 33.316438 
L 358.581318 28.787339 
L 367.889074 20.233352 
L 370.681401 17.47804 
L 373.473728 15.079474 
L 376.266055 13.032922 
L 378.127606 11.912681 
L 379.989158 11.14588 
L 381.850709 10.819133 
L 383.71226 10.87765 
L 385.573812 11.195613 
L 388.366138 11.975295 
L 391.158465 13.005236 
L 394.881568 14.632632 
L 396.743119 15.667833 
L 398.604671 17.018538 
L 400.466222 18.748182 
L 406.981651 25.482903 
L 409.773978 27.584183 
L 412.566305 29.685322 
L 414.427857 31.319344 
L 418.150959 34.992321 
L 420.943286 37.687944 
L 423.735613 40.031407 
L 426.52794 42.013171 
L 429.320267 43.742573 
L 432.112594 45.21586 
L 434.904921 46.456756 
L 437.697248 47.499943 
L 440.489575 48.311074 
L 445.143453 49.342 
L 449.797331 50.154038 
L 449.797331 50.154038 
" clip-path="url(#p369e164c79)" style="fill: none; stroke: #cf1313; stroke-width: 1.5; stroke-linecap: square"/>
   </g>
   <g id="line2d_2">
    <path d="M 391.158465 50.423574 
L 394.881568 49.93355 
L 398.604671 49.208618 
L 402.327773 48.276772 
L 405.1201 47.416394 
L 407.912427 46.339173 
L 410.704754 44.969249 
L 413.497081 43.303671 
L 420.01251 38.967142 
L 423.735613 36.264498 
L 442.351126 21.555013 
L 445.143453 19.298484 
L 447.93578 17.332015 
L 451.658882 15.087318 
L 455.381985 12.995334 
L 457.243536 12.195384 
L 459.105088 11.768796 
L 460.966639 11.787484 
L 462.82819 12.192402 
L 465.620517 13.199086 
L 479.582152 18.86227 
L 481.443703 19.924402 
L 483.305254 21.209793 
L 485.166806 22.729673 
L 489.820684 27.009954 
L 495.405338 31.947584 
L 499.12844 35.003995 
L 501.920767 37.006953 
L 512.159299 43.811158 
L 514.020851 44.79496 
L 515.882402 45.604164 
L 518.674729 46.545413 
L 528.913261 49.387124 
L 532.636364 50.206482 
L 532.636364 50.206482 
" clip-path="url(#p369e164c79)" style="fill: none; stroke: #116dc2; stroke-width: 1.5; stroke-linecap: square"/>
   </g>
   <g id="line2d_3">
    <path d="M 25.363636 49.775927 
L 26.294412 49.146127 
L 27.225188 48.377982 
L 28.155963 47.496031 
L 29.086739 46.549444 
L 30.017515 45.58719 
L 30.94829 44.523507 
L 31.879066 43.139195 
L 32.809842 41.340786 
L 33.740617 39.254694 
L 34.671393 36.986564 
L 35.602168 34.544235 
L 36.532944 31.999248 
L 37.46372 29.417036 
L 38.394495 26.755348 
L 39.325271 24.045569 
L 40.256047 21.41286 
L 41.186822 18.882063 
L 42.117598 16.387813 
L 43.048374 13.877353 
L 43.979149 11.387687 
L 44.909925 9.160348 
L 45.840701 7.535071 
L 46.771476 6.553 
L 47.702252 5.772632 
L 48.633028 4.691901 
L 49.563803 3.369011 
L 50.494579 2.470909 
L 51.425354 2.603937 
L 52.35613 3.699271 
L 53.286906 5.276703 
L 54.217681 7.099329 
L 55.148457 9.18791 
L 56.079233 11.52731 
L 57.010008 14.107927 
L 57.940784 16.915537 
L 58.87156 19.781907 
L 59.802335 22.536516 
L 60.733111 25.21317 
L 61.663887 27.886218 
L 62.594662 30.439066 
L 63.525438 32.673901 
L 64.456214 34.590405 
L 65.386989 36.418572 
L 66.317765 38.369105 
L 67.24854 40.448191 
L 68.179316 42.491062 
L 69.110092 44.266538 
L 70.040867 45.611792 
L 70.971643 46.566038 
L 71.902419 47.325864 
L 72.833194 48.063289 
L 73.76397 48.828358 
L 74.694746 49.562568 
" clip-path="url(#p369e164c79)" style="fill: none; stroke: #8a8a8a; stroke-width: 1.5; stroke-linecap: square"/>
   </g>
  </g>
 </g>
 <defs>
  <clipPath id="p369e164c79">
   <rect x="0" y="-0" width="558" height="54.36"/>
  </clipPath>
 </defs>
</svg>
