<?xml version="1.0" encoding="utf-8" standalone="no"?>
<!DOCTYPE svg PUBLIC "-//W3C//DTD SVG 1.1//EN"
  "http://www.w3.org/Graphics/SVG/1.1/DTD/svg11.dtd">
<svg xmlns:xlink="http://www.w3.org/1999/xlink" width="558pt" height="54.36pt" viewBox="0 0 558 54.36" xmlns="http://www.w3.org/2000/svg" version="1.1">
 <metadata>
  <rdf:RDF xmlns:dc="http://purl.org/dc/elements/1.1/" xmlns:cc="http://creativecommons.org/ns#" xmlns:rdf="http://www.w3.org/1999/02/22-rdf-syntax-ns#">
   <cc:Work>
    <dc:type rdf:resource="http://purl.org/dc/dcmitype/StillImage"/>
    <dc:date>2024-09-14T12:47:53.828665</dc:date>
    <dc:format>image/svg+xml</dc:format>
    <dc:creator>
     <cc:Agent>
      <dc:title>Matplotlib v3.5.2, https://matplotlib.org/</dc:title>
     </cc:Agent>
    </dc:creator>
   </cc:Work>
  </rdf:RDF>
 </metadata>
 <defs>
  <style type="text/css">*{stroke-linejoin: round; stroke-linecap: butt}</style>
 </defs>
 <g id="figure_1">
  <g id="patch_1">
   <path d="M 0 54.36 
L 558 54.36 
L 558 0 
L 0 0 
L 0 54.36 
z
" style="fill: none; opacity: 0"/>
  </g>
  <g id="axes_1">
   <g id="PolyCollection_1">
    <defs>
     <path id="mbfc150babd" d="M 110.81332 -2.470909 
L 110.81332 -3.996172 
L 111.491492 -4.08019 
L 112.169665 -4.167866 
L 112.847837 -4.260712 
L 113.526009 -4.360389 
L 114.204181 -4.468558 
L 114.882353 -4.586715 
L 115.560525 -4.716042 
L 116.238697 -4.857293 
L 116.916869 -5.010733 
L 117.595041 -5.176149 
L 118.273213 -5.352931 
L 118.951386 -5.540213 
L 119.629558 -5.737052 
L 120.30773 -5.94262 
L 120.985902 -6.156365 
L 121.664074 -6.378135 
L 122.342246 -6.608216 
L 123.020418 -6.847298 
L 123.69859 -7.096376 
L 124.376762 -7.356597 
L 125.054934 -7.6291 
L 125.733106 -7.914869 
L 126.411279 -8.214637 
L 127.089451 -8.52885 
L 127.767623 -8.857684 
L 128.445795 -9.201103 
L 129.123967 -9.558933 
L 129.802139 -9.930912 
L 130.480311 -10.316716 
L 131.158483 -10.71593 
L 131.836655 -11.128 
L 132.514827 -11.552172 
L 133.193 -11.987449 
L 133.871172 -12.432606 
L 134.549344 -12.886253 
L 135.227516 -13.346956 
L 135.905688 -13.813395 
L 136.58386 -14.284516 
L 137.262032 -14.759636 
L 137.940204 -15.238483 
L 138.618376 -15.721137 
L 139.296548 -16.207886 
L 139.97472 -16.699022 
L 140.652893 -17.194603 
L 141.331065 -17.69425 
L 142.009237 -18.197007 
L 142.687409 -18.701306 
L 143.365581 -19.205058 
L 144.043753 -19.705851 
L 144.721925 -20.201258 
L 145.400097 -20.689191 
L 146.078269 -21.168266 
L 146.756441 -21.638132 
L 147.434614 -22.09971 
L 148.112786 -22.555311 
L 148.790958 -23.008621 
L 149.46913 -23.464539 
L 150.147302 -23.928897 
L 150.825474 -24.408083 
L 151.503646 -24.908604 
L 152.181818 -25.436644 
L 152.85999 -25.997639 
L 153.538162 -26.595922 
L 154.216334 -27.234437 
L 154.894507 -27.91454 
L 155.572679 -28.635883 
L 156.250851 -29.396355 
L 156.929023 -30.19209 
L 157.607195 -31.01751 
L 158.285367 -31.865426 
L 158.963539 -32.727197 
L 159.641711 -33.592973 
L 160.319883 -34.452027 
L 160.998055 -35.293204 
L 161.676228 -36.105454 
L 162.3544 -36.878443 
L 163.032572 -37.603183 
L 163.710744 -38.272619 
L 164.388916 -38.882115 
L 165.067088 -39.429756 
L 165.74526 -39.916442 
L 166.423432 -40.34572 
L 167.101604 -40.723386 
L 167.779776 -41.056866 
L 168.457948 -41.354461 
L 169.136121 -41.624533 
L 169.814293 -41.874729 
L 170.492465 -42.111335 
L 171.170637 -42.338834 
L 171.848809 -42.559706 
L 172.526981 -42.77448 
L 173.205153 -42.981991 
L 173.883325 -43.179789 
L 174.561497 -43.364618 
L 175.239669 -43.532887 
L 175.917842 -43.68107 
L 176.596014 -43.805999 
L 177.274186 -43.905044 
L 177.952358 -43.976172 
L 178.63053 -44.017933 
L 179.308702 -44.029359 
L 179.986874 -44.009832 
L 180.665046 -43.958907 
L 181.343218 -43.876136 
L 182.02139 -43.760896 
L 182.699562 -43.612282 
L 183.377735 -43.429097 
L 184.055907 -43.209968 
L 184.734079 -42.953624 
L 185.412251 -42.659297 
L 186.090423 -42.327196 
L 186.768595 -41.958958 
L 187.446767 -41.557968 
L 188.124939 -41.129439 
L 188.803111 -40.680202 
L 189.481283 -40.218191 
L 190.159456 -39.751692 
L 190.837628 -39.288459 
L 191.5158 -38.83485 
L 192.193972 -38.395117 
L 192.872144 -37.970978 
L 193.550316 -37.561515 
L 194.228488 -37.163412 
L 194.90666 -36.771492 
L 195.584832 -36.379445 
L 196.263004 -35.980657 
L 196.941176 -35.569025 
L 197.619349 -35.139655 
L 198.297521 -34.689383 
L 198.975693 -34.217046 
L 199.653865 -33.723502 
L 200.332037 -33.211389 
L 201.010209 -32.684674 
L 201.688381 -32.148049 
L 202.366553 -31.606267 
L 203.044725 -31.063523 
L 203.722897 -30.522949 
L 204.40107 -29.986322 
L 205.079242 -29.453986 
L 205.757414 -28.925002 
L 206.435586 -28.397452 
L 207.113758 -27.868844 
L 207.79193 -27.336515 
L 208.470102 -26.797969 
L 209.148274 -26.251108 
L 209.826446 -25.694347 
L 210.504618 -25.126636 
L 211.18279 -24.547432 
L 211.860963 -23.956676 
L 212.539135 -23.354802 
L 213.217307 -22.742793 
L 213.895479 -22.122258 
L 214.573651 -21.495509 
L 215.251823 -20.865563 
L 215.929995 -20.236049 
L 216.608167 -19.611 
L 217.286339 -18.994532 
L 217.964511 -18.390469 
L 218.642684 -17.801964 
L 219.320856 -17.231202 
L 219.999028 -16.679225 
L 220.6772 -16.14593 
L 221.355372 -15.630235 
L 222.033544 -15.130377 
L 222.711716 -14.644289 
L 223.389888 -14.17 
L 224.06806 -13.705973 
L 224.746232 -13.251343 
L 225.424404 -12.806027 
L 226.102577 -12.370693 
L 226.780749 -11.946606 
L 227.458921 -11.535391 
L 228.137093 -11.13875 
L 228.815265 -10.758179 
L 229.493437 -10.394723 
L 230.171609 -10.048817 
L 230.849781 -9.720207 
L 231.527953 -9.40799 
L 232.206125 -9.110736 
L 232.884298 -8.826682 
L 233.56247 -8.553962 
L 234.240642 -8.29083 
L 234.918814 -8.035841 
L 235.596986 -7.787969 
L 236.275158 -7.546642 
L 236.95333 -7.311696 
L 237.631502 -7.083283 
L 238.309674 -6.861736 
L 238.987846 -6.647441 
L 239.666018 -6.440725 
L 240.344191 -6.241781 
L 241.022363 -6.05064 
L 241.700535 -5.867165 
L 242.378707 -5.691076 
L 243.056879 -5.521988 
L 243.735051 -5.359433 
L 244.413223 -5.202893 
L 245.091395 -5.051804 
L 245.769567 -4.905572 
L 246.447739 -4.763575 
L 247.125912 -4.62518 
L 247.125912 -2.470909 
L 247.125912 -2.470909 
L 246.447739 -2.470909 
L 245.769567 -2.470909 
L 245.091395 -2.470909 
L 244.413223 -2.470909 
L 243.735051 -2.470909 
L 243.056879 -2.470909 
L 242.378707 -2.470909 
L 241.700535 -2.470909 
L 241.022363 -2.470909 
L 240.344191 -2.470909 
L 239.666018 -2.470909 
L 238.987846 -2.470909 
L 238.309674 -2.470909 
L 237.631502 -2.470909 
L 236.95333 -2.470909 
L 236.275158 -2.470909 
L 235.596986 -2.470909 
L 234.918814 -2.470909 
L 234.240642 -2.470909 
L 233.56247 -2.470909 
L 232.884298 -2.470909 
L 232.206125 -2.470909 
L 231.527953 -2.470909 
L 230.849781 -2.470909 
L 230.171609 -2.470909 
L 229.493437 -2.470909 
L 228.815265 -2.470909 
L 228.137093 -2.470909 
L 227.458921 -2.470909 
L 226.780749 -2.470909 
L 226.102577 -2.470909 
L 225.424404 -2.470909 
L 224.746232 -2.470909 
L 224.06806 -2.470909 
L 223.389888 -2.470909 
L 222.711716 -2.470909 
L 222.033544 -2.470909 
L 221.355372 -2.470909 
L 220.6772 -2.470909 
L 219.999028 -2.470909 
L 219.320856 -2.470909 
L 218.642684 -2.470909 
L 217.964511 -2.470909 
L 217.286339 -2.470909 
L 216.608167 -2.470909 
L 215.929995 -2.470909 
L 215.251823 -2.470909 
L 214.573651 -2.470909 
L 213.895479 -2.470909 
L 213.217307 -2.470909 
L 212.539135 -2.470909 
L 211.860963 -2.470909 
L 211.18279 -2.470909 
L 210.504618 -2.470909 
L 209.826446 -2.470909 
L 209.148274 -2.470909 
L 208.470102 -2.470909 
L 207.79193 -2.470909 
L 207.113758 -2.470909 
L 206.435586 -2.470909 
L 205.757414 -2.470909 
L 205.079242 -2.470909 
L 204.40107 -2.470909 
L 203.722897 -2.470909 
L 203.044725 -2.470909 
L 202.366553 -2.470909 
L 201.688381 -2.470909 
L 201.010209 -2.470909 
L 200.332037 -2.470909 
L 199.653865 -2.470909 
L 198.975693 -2.470909 
L 198.297521 -2.470909 
L 197.619349 -2.470909 
L 196.941176 -2.470909 
L 196.263004 -2.470909 
L 195.584832 -2.470909 
L 194.90666 -2.470909 
L 194.228488 -2.470909 
L 193.550316 -2.470909 
L 192.872144 -2.470909 
L 192.193972 -2.470909 
L 191.5158 -2.470909 
L 190.837628 -2.470909 
L 190.159456 -2.470909 
L 189.481283 -2.470909 
L 188.803111 -2.470909 
L 188.124939 -2.470909 
L 187.446767 -2.470909 
L 186.768595 -2.470909 
L 186.090423 -2.470909 
L 185.412251 -2.470909 
L 184.734079 -2.470909 
L 184.055907 -2.470909 
L 183.377735 -2.470909 
L 182.699562 -2.470909 
L 182.02139 -2.470909 
L 181.343218 -2.470909 
L 180.665046 -2.470909 
L 179.986874 -2.470909 
L 179.308702 -2.470909 
L 178.63053 -2.470909 
L 177.952358 -2.470909 
L 177.274186 -2.470909 
L 176.596014 -2.470909 
L 175.917842 -2.470909 
L 175.239669 -2.470909 
L 174.561497 -2.470909 
L 173.883325 -2.470909 
L 173.205153 -2.470909 
L 172.526981 -2.470909 
L 171.848809 -2.470909 
L 171.170637 -2.470909 
L 170.492465 -2.470909 
L 169.814293 -2.470909 
L 169.136121 -2.470909 
L 168.457948 -2.470909 
L 167.779776 -2.470909 
L 167.101604 -2.470909 
L 166.423432 -2.470909 
L 165.74526 -2.470909 
L 165.067088 -2.470909 
L 164.388916 -2.470909 
L 163.710744 -2.470909 
L 163.032572 -2.470909 
L 162.3544 -2.470909 
L 161.676228 -2.470909 
L 160.998055 -2.470909 
L 160.319883 -2.470909 
L 159.641711 -2.470909 
L 158.963539 -2.470909 
L 158.285367 -2.470909 
L 157.607195 -2.470909 
L 156.929023 -2.470909 
L 156.250851 -2.470909 
L 155.572679 -2.470909 
L 154.894507 -2.470909 
L 154.216334 -2.470909 
L 153.538162 -2.470909 
L 152.85999 -2.470909 
L 152.181818 -2.470909 
L 151.503646 -2.470909 
L 150.825474 -2.470909 
L 150.147302 -2.470909 
L 149.46913 -2.470909 
L 148.790958 -2.470909 
L 148.112786 -2.470909 
L 147.434614 -2.470909 
L 146.756441 -2.470909 
L 146.078269 -2.470909 
L 145.400097 -2.470909 
L 144.721925 -2.470909 
L 144.043753 -2.470909 
L 143.365581 -2.470909 
L 142.687409 -2.470909 
L 142.009237 -2.470909 
L 141.331065 -2.470909 
L 140.652893 -2.470909 
L 139.97472 -2.470909 
L 139.296548 -2.470909 
L 138.618376 -2.470909 
L 137.940204 -2.470909 
L 137.262032 -2.470909 
L 136.58386 -2.470909 
L 135.905688 -2.470909 
L 135.227516 -2.470909 
L 134.549344 -2.470909 
L 133.871172 -2.470909 
L 133.193 -2.470909 
L 132.514827 -2.470909 
L 131.836655 -2.470909 
L 131.158483 -2.470909 
L 130.480311 -2.470909 
L 129.802139 -2.470909 
L 129.123967 -2.470909 
L 128.445795 -2.470909 
L 127.767623 -2.470909 
L 127.089451 -2.470909 
L 126.411279 -2.470909 
L 125.733106 -2.470909 
L 125.054934 -2.470909 
L 124.376762 -2.470909 
L 123.69859 -2.470909 
L 123.020418 -2.470909 
L 122.342246 -2.470909 
L 121.664074 -2.470909 
L 120.985902 -2.470909 
L 120.30773 -2.470909 
L 119.629558 -2.470909 
L 118.951386 -2.470909 
L 118.273213 -2.470909 
L 117.595041 -2.470909 
L 116.916869 -2.470909 
L 116.238697 -2.470909 
L 115.560525 -2.470909 
L 114.882353 -2.470909 
L 114.204181 -2.470909 
L 113.526009 -2.470909 
L 112.847837 -2.470909 
L 112.169665 -2.470909 
L 111.491492 -2.470909 
L 110.81332 -2.470909 
z
" style="stroke: #cf1313; stroke-opacity: 0.2"/>
    </defs>
    <g clip-path="url(#p7637d0f15c)">
     <use xlink:href="#mbfc150babd" x="0" y="54.36" style="fill: #cf1313; fill-opacity: 0.2; stroke: #cf1313; stroke-opacity: 0.2"/>
    </g>
   </g>
   <g id="PolyCollection_2">
    <defs>
     <path id="m32c9605450" d="M 342.748177 -2.470909 
L 342.748177 -3.926511 
L 343.426349 -3.993309 
L 344.104521 -4.061822 
L 344.782693 -4.132303 
L 345.460865 -4.205103 
L 346.139037 -4.280667 
L 346.81721 -4.359517 
L 347.495382 -4.442234 
L 348.173554 -4.529429 
L 348.851726 -4.621709 
L 349.529898 -4.71964 
L 350.20807 -4.823711 
L 350.886242 -4.934295 
L 351.564414 -5.051615 
L 352.242586 -5.175727 
L 352.920758 -5.306496 
L 353.59893 -5.443602 
L 354.277103 -5.586549 
L 354.955275 -5.73469 
L 355.633447 -5.887261 
L 356.311619 -6.043431 
L 356.989791 -6.20235 
L 357.667963 -6.363199 
L 358.346135 -6.525246 
L 359.024307 -6.687881 
L 359.702479 -6.850655 
L 360.380651 -7.013298 
L 361.058824 -7.175728 
L 361.736996 -7.338049 
L 362.415168 -7.500537 
L 363.09334 -7.663617 
L 363.771512 -7.827838 
L 364.449684 -7.993848 
L 365.127856 -8.162361 
L 365.806028 -8.334137 
L 366.4842 -8.509959 
L 367.162372 -8.690616 
L 367.840544 -8.876884 
L 368.518717 -9.069509 
L 369.196889 -9.269191 
L 369.875061 -9.476558 
L 370.553233 -9.692145 
L 371.231405 -9.916361 
L 371.909577 -10.149464 
L 372.587749 -10.391531 
L 373.265921 -10.642442 
L 373.944093 -10.901871 
L 374.622265 -11.169294 
L 375.300438 -11.444013 
L 375.97861 -11.725207 
L 376.656782 -12.011991 
L 377.334954 -12.303493 
L 378.013126 -12.598944 
L 378.691298 -12.897761 
L 379.36947 -13.199625 
L 380.047642 -13.504546 
L 380.725814 -13.812896 
L 381.403986 -14.125417 
L 382.082158 -14.443202 
L 382.760331 -14.767633 
L 383.438503 -15.100299 
L 384.116675 -15.442897 
L 384.794847 -15.797106 
L 385.473019 -16.164478 
L 386.151191 -16.546318 
L 386.829363 -16.943596 
L 387.507535 -17.356876 
L 388.185707 -17.786274 
L 388.863879 -18.231448 
L 389.542052 -18.691624 
L 390.220224 -19.165635 
L 390.898396 -19.651995 
L 391.576568 -20.148972 
L 392.25474 -20.654676 
L 392.932912 -21.16714 
L 393.611084 -21.684388 
L 394.289256 -22.2045 
L 394.967428 -22.725646 
L 395.6456 -23.246118 
L 396.323772 -23.764336 
L 397.001945 -24.278852 
L 397.680117 -24.788341 
L 398.358289 -25.291588 
L 399.036461 -25.787486 
L 399.714633 -26.27503 
L 400.392805 -26.753317 
L 401.070977 -27.22156 
L 401.749149 -27.679097 
L 402.427321 -28.12541 
L 403.105493 -28.560137 
L 403.783666 -28.983085 
L 404.461838 -29.394226 
L 405.14001 -29.793695 
L 405.818182 -30.181767 
L 406.496354 -30.558832 
L 407.174526 -30.925361 
L 407.852698 -31.281862 
L 408.53087 -31.628844 
L 409.209042 -31.966783 
L 409.887214 -32.29609 
L 410.565386 -32.617098 
L 411.243559 -32.930052 
L 411.921731 -33.235115 
L 412.599903 -33.532385 
L 413.278075 -33.821918 
L 413.956247 -34.103756 
L 414.634419 -34.377956 
L 415.312591 -34.644623 
L 415.990763 -34.903931 
L 416.668935 -35.156143 
L 417.347107 -35.401626 
L 418.02528 -35.640851 
L 418.703452 -35.874392 
L 419.381624 -36.102918 
L 420.059796 -36.327177 
L 420.737968 -36.547973 
L 421.41614 -36.766146 
L 422.094312 -36.982546 
L 422.772484 -37.198 
L 423.450656 -37.413284 
L 424.128828 -37.629096 
L 424.807 -37.84602 
L 425.485173 -38.064502 
L 426.163345 -38.28482 
L 426.841517 -38.50706 
L 427.519689 -38.731094 
L 428.197861 -38.956557 
L 428.876033 -39.182834 
L 429.554205 -39.409041 
L 430.232377 -39.634013 
L 430.910549 -39.856301 
L 431.588721 -40.074171 
L 432.266894 -40.285608 
L 432.945066 -40.488346 
L 433.623238 -40.679898 
L 434.30141 -40.857614 
L 434.979582 -41.018757 
L 435.657754 -41.160599 
L 436.335926 -41.28053 
L 437.014098 -41.376186 
L 437.69227 -41.445575 
L 438.370442 -41.487202 
L 439.048614 -41.500177 
L 439.726787 -41.484297 
L 440.404959 -41.440092 
L 441.083131 -41.36883 
L 441.761303 -41.272476 
L 442.439475 -41.153603 
L 443.117647 -41.015264 
L 443.795819 -40.86083 
L 444.473991 -40.693807 
L 445.152163 -40.517641 
L 445.830335 -40.335528 
L 446.508508 -40.150244 
L 447.18668 -39.964002 
L 447.864852 -39.778344 
L 448.543024 -39.594079 
L 449.221196 -39.411264 
L 449.899368 -39.229229 
L 450.57754 -39.046637 
L 451.255712 -38.861586 
L 451.933884 -38.671723 
L 452.612056 -38.474383 
L 453.290228 -38.266738 
L 453.968401 -38.045936 
L 454.646573 -37.809248 
L 455.324745 -37.55419 
L 456.002917 -37.278645 
L 456.681089 -36.980956 
L 457.359261 -36.660005 
L 458.037433 -36.315276 
L 458.715605 -35.946888 
L 459.393777 -35.555615 
L 460.071949 -35.142886 
L 460.750122 -34.710751 
L 461.428294 -34.26184 
L 462.106466 -33.799292 
L 462.784638 -33.326658 
L 463.46281 -32.847797 
L 464.140982 -32.366737 
L 464.819154 -31.887533 
L 465.497326 -31.414114 
L 466.175498 -30.950119 
L 466.85367 -30.498749 
L 467.531842 -30.062615 
L 468.210015 -29.643626 
L 468.888187 -29.242886 
L 469.566359 -28.860646 
L 470.244531 -28.496281 
L 470.922703 -28.148329 
L 471.600875 -27.81456 
L 472.279047 -27.492106 
L 472.957219 -27.177613 
L 473.635391 -26.867439 
L 474.313563 -26.557854 
L 474.991736 -26.24526 
L 475.669908 -25.926394 
L 476.34808 -25.598507 
L 477.026252 -25.259514 
L 477.704424 -24.908089 
L 478.382596 -24.543715 
L 479.060768 -24.166667 
L 479.73894 -23.777953 
L 480.417112 -23.379189 
L 481.095284 -22.97245 
L 481.773456 -22.560086 
L 482.451629 -22.144527 
L 483.129801 -21.728094 
L 483.807973 -21.312833 
L 484.486145 -20.900374 
L 485.164317 -20.49184 
L 485.842489 -20.087799 
L 486.520661 -19.688269 
L 487.198833 -19.292767 
L 487.877005 -18.900402 
L 488.555177 -18.509992 
L 489.23335 -18.120211 
L 489.911522 -17.72973 
L 490.589694 -17.337365 
L 491.267866 -16.942196 
L 491.946038 -16.543675 
L 492.62421 -16.141691 
L 493.302382 -15.736605 
L 493.980554 -15.329246 
L 494.658726 -14.920875 
L 495.336898 -14.513118 
L 496.01507 -14.107874 
L 496.693243 -13.707209 
L 497.371415 -13.313239 
L 498.049587 -12.928015 
L 498.727759 -12.553416 
L 499.405931 -12.191058 
L 500.084103 -11.84222 
L 500.762275 -11.507798 
L 501.440447 -11.188279 
L 502.118619 -10.883743 
L 502.796791 -10.593886 
L 503.474964 -10.318063 
L 504.153136 -10.055345 
L 504.831308 -9.804586 
L 505.50948 -9.5645 
L 506.187652 -9.333731 
L 506.865824 -9.110929 
L 507.543996 -8.894813 
L 508.222168 -8.684229 
L 508.90034 -8.478192 
L 509.578512 -8.275918 
L 510.256684 -8.076843 
L 510.934857 -7.880623 
L 511.613029 -7.687126 
L 512.291201 -7.496406 
L 512.969373 -7.308673 
L 513.647545 -7.124253 
L 514.325717 -6.943544 
L 515.003889 -6.766975 
L 515.682061 -6.594964 
L 516.360233 -6.427884 
L 517.038405 -6.266038 
L 517.716578 -6.109647 
L 518.39475 -5.958839 
L 519.072922 -5.813654 
L 519.751094 -5.674056 
L 520.429266 -5.539951 
L 521.107438 -5.411199 
L 521.78561 -5.287641 
L 522.463782 -5.169107 
L 523.141954 -5.05543 
L 523.820126 -4.946454 
L 524.498298 -4.842032 
L 525.176471 -4.74202 
L 525.854643 -4.646274 
L 526.532815 -4.554639 
L 527.210987 -4.466937 
L 527.889159 -4.382967 
L 528.567331 -4.3025 
L 529.245503 -4.22528 
L 529.923675 -4.151036 
L 530.601847 -4.07949 
L 531.280019 -4.010374 
L 531.958192 -3.943448 
L 532.636364 -3.878516 
L 532.636364 -2.470909 
L 532.636364 -2.470909 
L 531.958192 -2.470909 
L 531.280019 -2.470909 
L 530.601847 -2.470909 
L 529.923675 -2.470909 
L 529.245503 -2.470909 
L 528.567331 -2.470909 
L 527.889159 -2.470909 
L 527.210987 -2.470909 
L 526.532815 -2.470909 
L 525.854643 -2.470909 
L 525.176471 -2.470909 
L 524.498298 -2.470909 
L 523.820126 -2.470909 
L 523.141954 -2.470909 
L 522.463782 -2.470909 
L 521.78561 -2.470909 
L 521.107438 -2.470909 
L 520.429266 -2.470909 
L 519.751094 -2.470909 
L 519.072922 -2.470909 
L 518.39475 -2.470909 
L 517.716578 -2.470909 
L 517.038405 -2.470909 
L 516.360233 -2.470909 
L 515.682061 -2.470909 
L 515.003889 -2.470909 
L 514.325717 -2.470909 
L 513.647545 -2.470909 
L 512.969373 -2.470909 
L 512.291201 -2.470909 
L 511.613029 -2.470909 
L 510.934857 -2.470909 
L 510.256684 -2.470909 
L 509.578512 -2.470909 
L 508.90034 -2.470909 
L 508.222168 -2.470909 
L 507.543996 -2.470909 
L 506.865824 -2.470909 
L 506.187652 -2.470909 
L 505.50948 -2.470909 
L 504.831308 -2.470909 
L 504.153136 -2.470909 
L 503.474964 -2.470909 
L 502.796791 -2.470909 
L 502.118619 -2.470909 
L 501.440447 -2.470909 
L 500.762275 -2.470909 
L 500.084103 -2.470909 
L 499.405931 -2.470909 
L 498.727759 -2.470909 
L 498.049587 -2.470909 
L 497.371415 -2.470909 
L 496.693243 -2.470909 
L 496.01507 -2.470909 
L 495.336898 -2.470909 
L 494.658726 -2.470909 
L 493.980554 -2.470909 
L 493.302382 -2.470909 
L 492.62421 -2.470909 
L 491.946038 -2.470909 
L 491.267866 -2.470909 
L 490.589694 -2.470909 
L 489.911522 -2.470909 
L 489.23335 -2.470909 
L 488.555177 -2.470909 
L 487.877005 -2.470909 
L 487.198833 -2.470909 
L 486.520661 -2.470909 
L 485.842489 -2.470909 
L 485.164317 -2.470909 
L 484.486145 -2.470909 
L 483.807973 -2.470909 
L 483.129801 -2.470909 
L 482.451629 -2.470909 
L 481.773456 -2.470909 
L 481.095284 -2.470909 
L 480.417112 -2.470909 
L 479.73894 -2.470909 
L 479.060768 -2.470909 
L 478.382596 -2.470909 
L 477.704424 -2.470909 
L 477.026252 -2.470909 
L 476.34808 -2.470909 
L 475.669908 -2.470909 
L 474.991736 -2.470909 
L 474.313563 -2.470909 
L 473.635391 -2.470909 
L 472.957219 -2.470909 
L 472.279047 -2.470909 
L 471.600875 -2.470909 
L 470.922703 -2.470909 
L 470.244531 -2.470909 
L 469.566359 -2.470909 
L 468.888187 -2.470909 
L 468.210015 -2.470909 
L 467.531842 -2.470909 
L 466.85367 -2.470909 
L 466.175498 -2.470909 
L 465.497326 -2.470909 
L 464.819154 -2.470909 
L 464.140982 -2.470909 
L 463.46281 -2.470909 
L 462.784638 -2.470909 
L 462.106466 -2.470909 
L 461.428294 -2.470909 
L 460.750122 -2.470909 
L 460.071949 -2.470909 
L 459.393777 -2.470909 
L 458.715605 -2.470909 
L 458.037433 -2.470909 
L 457.359261 -2.470909 
L 456.681089 -2.470909 
L 456.002917 -2.470909 
L 455.324745 -2.470909 
L 454.646573 -2.470909 
L 453.968401 -2.470909 
L 453.290228 -2.470909 
L 452.612056 -2.470909 
L 451.933884 -2.470909 
L 451.255712 -2.470909 
L 450.57754 -2.470909 
L 449.899368 -2.470909 
L 449.221196 -2.470909 
L 448.543024 -2.470909 
L 447.864852 -2.470909 
L 447.18668 -2.470909 
L 446.508508 -2.470909 
L 445.830335 -2.470909 
L 445.152163 -2.470909 
L 444.473991 -2.470909 
L 443.795819 -2.470909 
L 443.117647 -2.470909 
L 442.439475 -2.470909 
L 441.761303 -2.470909 
L 441.083131 -2.470909 
L 440.404959 -2.470909 
L 439.726787 -2.470909 
L 439.048614 -2.470909 
L 438.370442 -2.470909 
L 437.69227 -2.470909 
L 437.014098 -2.470909 
L 436.335926 -2.470909 
L 435.657754 -2.470909 
L 434.979582 -2.470909 
L 434.30141 -2.470909 
L 433.623238 -2.470909 
L 432.945066 -2.470909 
L 432.266894 -2.470909 
L 431.588721 -2.470909 
L 430.910549 -2.470909 
L 430.232377 -2.470909 
L 429.554205 -2.470909 
L 428.876033 -2.470909 
L 428.197861 -2.470909 
L 427.519689 -2.470909 
L 426.841517 -2.470909 
L 426.163345 -2.470909 
L 425.485173 -2.470909 
L 424.807 -2.470909 
L 424.128828 -2.470909 
L 423.450656 -2.470909 
L 422.772484 -2.470909 
L 422.094312 -2.470909 
L 421.41614 -2.470909 
L 420.737968 -2.470909 
L 420.059796 -2.470909 
L 419.381624 -2.470909 
L 418.703452 -2.470909 
L 418.02528 -2.470909 
L 417.347107 -2.470909 
L 416.668935 -2.470909 
L 415.990763 -2.470909 
L 415.312591 -2.470909 
L 414.634419 -2.470909 
L 413.956247 -2.470909 
L 413.278075 -2.470909 
L 412.599903 -2.470909 
L 411.921731 -2.470909 
L 411.243559 -2.470909 
L 410.565386 -2.470909 
L 409.887214 -2.470909 
L 409.209042 -2.470909 
L 408.53087 -2.470909 
L 407.852698 -2.470909 
L 407.174526 -2.470909 
L 406.496354 -2.470909 
L 405.818182 -2.470909 
L 405.14001 -2.470909 
L 404.461838 -2.470909 
L 403.783666 -2.470909 
L 403.105493 -2.470909 
L 402.427321 -2.470909 
L 401.749149 -2.470909 
L 401.070977 -2.470909 
L 400.392805 -2.470909 
L 399.714633 -2.470909 
L 399.036461 -2.470909 
L 398.358289 -2.470909 
L 397.680117 -2.470909 
L 397.001945 -2.470909 
L 396.323772 -2.470909 
L 395.6456 -2.470909 
L 394.967428 -2.470909 
L 394.289256 -2.470909 
L 393.611084 -2.470909 
L 392.932912 -2.470909 
L 392.25474 -2.470909 
L 391.576568 -2.470909 
L 390.898396 -2.470909 
L 390.220224 -2.470909 
L 389.542052 -2.470909 
L 388.863879 -2.470909 
L 388.185707 -2.470909 
L 387.507535 -2.470909 
L 386.829363 -2.470909 
L 386.151191 -2.470909 
L 385.473019 -2.470909 
L 384.794847 -2.470909 
L 384.116675 -2.470909 
L 383.438503 -2.470909 
L 382.760331 -2.470909 
L 382.082158 -2.470909 
L 381.403986 -2.470909 
L 380.725814 -2.470909 
L 380.047642 -2.470909 
L 379.36947 -2.470909 
L 378.691298 -2.470909 
L 378.013126 -2.470909 
L 377.334954 -2.470909 
L 376.656782 -2.470909 
L 375.97861 -2.470909 
L 375.300438 -2.470909 
L 374.622265 -2.470909 
L 373.944093 -2.470909 
L 373.265921 -2.470909 
L 372.587749 -2.470909 
L 371.909577 -2.470909 
L 371.231405 -2.470909 
L 370.553233 -2.470909 
L 369.875061 -2.470909 
L 369.196889 -2.470909 
L 368.518717 -2.470909 
L 367.840544 -2.470909 
L 367.162372 -2.470909 
L 366.4842 -2.470909 
L 365.806028 -2.470909 
L 365.127856 -2.470909 
L 364.449684 -2.470909 
L 363.771512 -2.470909 
L 363.09334 -2.470909 
L 362.415168 -2.470909 
L 361.736996 -2.470909 
L 361.058824 -2.470909 
L 360.380651 -2.470909 
L 359.702479 -2.470909 
L 359.024307 -2.470909 
L 358.346135 -2.470909 
L 357.667963 -2.470909 
L 356.989791 -2.470909 
L 356.311619 -2.470909 
L 355.633447 -2.470909 
L 354.955275 -2.470909 
L 354.277103 -2.470909 
L 353.59893 -2.470909 
L 352.920758 -2.470909 
L 352.242586 -2.470909 
L 351.564414 -2.470909 
L 350.886242 -2.470909 
L 350.20807 -2.470909 
L 349.529898 -2.470909 
L 348.851726 -2.470909 
L 348.173554 -2.470909 
L 347.495382 -2.470909 
L 346.81721 -2.470909 
L 346.139037 -2.470909 
L 345.460865 -2.470909 
L 344.782693 -2.470909 
L 344.104521 -2.470909 
L 343.426349 -2.470909 
L 342.748177 -2.470909 
z
" style="stroke: #116dc2; stroke-opacity: 0.2"/>
    </defs>
    <g clip-path="url(#p7637d0f15c)">
     <use xlink:href="#m32c9605450" x="0" y="54.36" style="fill: #116dc2; fill-opacity: 0.2; stroke: #116dc2; stroke-opacity: 0.2"/>
    </g>
   </g>
   <g id="PolyCollection_3">
    <defs>
     <path id="m1f274b243a" d="M 25.363636 -2.470909 
L 25.363636 -4.598751 
L 26.041808 -4.907591 
L 26.719981 -5.206485 
L 27.398153 -5.491522 
L 28.076325 -5.784896 
L 28.754497 -6.128579 
L 29.432669 -6.565138 
L 30.110841 -7.118743 
L 30.789013 -7.79089 
L 31.467185 -8.573946 
L 32.145357 -9.469234 
L 32.823529 -10.490411 
L 33.501702 -11.646111 
L 34.179874 -12.918206 
L 34.858046 -14.260343 
L 35.536218 -15.623245 
L 36.21439 -16.984805 
L 36.892562 -18.355564 
L 37.570734 -19.754067 
L 38.248906 -21.175987 
L 38.927078 -22.584568 
L 39.60525 -23.928977 
L 40.283422 -25.178139 
L 40.961595 -26.352372 
L 41.639767 -27.534337 
L 42.317939 -28.843196 
L 42.996111 -30.375435 
L 43.674283 -32.147397 
L 44.352455 -34.083155 
L 45.030627 -36.057077 
L 45.708799 -37.955233 
L 46.386971 -39.711962 
L 47.065143 -41.309952 
L 47.743316 -42.762414 
L 48.421488 -44.096954 
L 49.09966 -45.346378 
L 49.777832 -46.543129 
L 50.456004 -47.71195 
L 51.134176 -48.855525 
L 51.812348 -49.936008 
L 52.49052 -50.869102 
L 53.168692 -51.547647 
L 53.846864 -51.889091 
L 54.525036 -51.87624 
L 55.203209 -51.561059 
L 55.881381 -51.029221 
L 56.559553 -50.353335 
L 57.237725 -49.569847 
L 57.915897 -48.693416 
L 58.594069 -47.749849 
L 59.272241 -46.791476 
L 59.950413 -45.874503 
L 60.628585 -45.015034 
L 61.306757 -44.163913 
L 61.98493 -43.225153 
L 62.663102 -42.103177 
L 63.341274 -40.741377 
L 64.019446 -39.130173 
L 64.697618 -37.294828 
L 65.37579 -35.284594 
L 66.053962 -33.168169 
L 66.732134 -31.023865 
L 67.410306 -28.920026 
L 68.088478 -26.899681 
L 68.76665 -24.983861 
L 69.444823 -23.187151 
L 70.122995 -21.524742 
L 70.801167 -20.001979 
L 71.479339 -18.599771 
L 72.157511 -17.275319 
L 72.835683 -15.982451 
L 73.513855 -14.697756 
L 74.192027 -13.433879 
L 74.870199 -12.231071 
L 75.548371 -11.133522 
L 76.226544 -10.167111 
L 76.904716 -9.332094 
L 77.582888 -8.610722 
L 78.26106 -7.978804 
L 78.939232 -7.41218 
L 79.617404 -6.888645 
L 80.295576 -6.390466 
L 80.973748 -5.90846 
L 81.65192 -5.443908 
L 82.330092 -5.005925 
L 83.008264 -4.606319 
L 83.008264 -2.470909 
L 83.008264 -2.470909 
L 82.330092 -2.470909 
L 81.65192 -2.470909 
L 80.973748 -2.470909 
L 80.295576 -2.470909 
L 79.617404 -2.470909 
L 78.939232 -2.470909 
L 78.26106 -2.470909 
L 77.582888 -2.470909 
L 76.904716 -2.470909 
L 76.226544 -2.470909 
L 75.548371 -2.470909 
L 74.870199 -2.470909 
L 74.192027 -2.470909 
L 73.513855 -2.470909 
L 72.835683 -2.470909 
L 72.157511 -2.470909 
L 71.479339 -2.470909 
L 70.801167 -2.470909 
L 70.122995 -2.470909 
L 69.444823 -2.470909 
L 68.76665 -2.470909 
L 68.088478 -2.470909 
L 67.410306 -2.470909 
L 66.732134 -2.470909 
L 66.053962 -2.470909 
L 65.37579 -2.470909 
L 64.697618 -2.470909 
L 64.019446 -2.470909 
L 63.341274 -2.470909 
L 62.663102 -2.470909 
L 61.98493 -2.470909 
L 61.306757 -2.470909 
L 60.628585 -2.470909 
L 59.950413 -2.470909 
L 59.272241 -2.470909 
L 58.594069 -2.470909 
L 57.915897 -2.470909 
L 57.237725 -2.470909 
L 56.559553 -2.470909 
L 55.881381 -2.470909 
L 55.203209 -2.470909 
L 54.525036 -2.470909 
L 53.846864 -2.470909 
L 53.168692 -2.470909 
L 52.49052 -2.470909 
L 51.812348 -2.470909 
L 51.134176 -2.470909 
L 50.456004 -2.470909 
L 49.777832 -2.470909 
L 49.09966 -2.470909 
L 48.421488 -2.470909 
L 47.743316 -2.470909 
L 47.065143 -2.470909 
L 46.386971 -2.470909 
L 45.708799 -2.470909 
L 45.030627 -2.470909 
L 44.352455 -2.470909 
L 43.674283 -2.470909 
L 42.996111 -2.470909 
L 42.317939 -2.470909 
L 41.639767 -2.470909 
L 40.961595 -2.470909 
L 40.283422 -2.470909 
L 39.60525 -2.470909 
L 38.927078 -2.470909 
L 38.248906 -2.470909 
L 37.570734 -2.470909 
L 36.892562 -2.470909 
L 36.21439 -2.470909 
L 35.536218 -2.470909 
L 34.858046 -2.470909 
L 34.179874 -2.470909 
L 33.501702 -2.470909 
L 32.823529 -2.470909 
L 32.145357 -2.470909 
L 31.467185 -2.470909 
L 30.789013 -2.470909 
L 30.110841 -2.470909 
L 29.432669 -2.470909 
L 28.754497 -2.470909 
L 28.076325 -2.470909 
L 27.398153 -2.470909 
L 26.719981 -2.470909 
L 26.041808 -2.470909 
L 25.363636 -2.470909 
z
" style="stroke: #8a8a8a; stroke-opacity: 0.2"/>
    </defs>
    <g clip-path="url(#p7637d0f15c)">
     <use xlink:href="#m1f274b243a" x="0" y="54.36" style="fill: #8a8a8a; fill-opacity: 0.2; stroke: #8a8a8a; stroke-opacity: 0.2"/>
    </g>
   </g>
   <g id="line2d_1">
    <path d="M 110.81332 50.363828 
L 114.882353 49.773285 
L 117.595041 49.183851 
L 120.985902 48.203635 
L 124.376762 47.003403 
L 127.089451 45.83115 
L 129.802139 44.429088 
L 133.193 42.372551 
L 137.262032 39.600364 
L 143.365581 35.154942 
L 147.434614 32.26029 
L 151.503646 29.451396 
L 153.538162 27.764078 
L 155.572679 25.724117 
L 157.607195 23.34249 
L 162.3544 17.481557 
L 163.710744 16.087381 
L 165.067088 14.930244 
L 166.423432 14.01428 
L 168.457948 13.005539 
L 171.170637 12.021166 
L 174.561497 10.995382 
L 176.596014 10.554001 
L 178.63053 10.342067 
L 180.665046 10.401093 
L 182.699562 10.747718 
L 184.734079 11.406376 
L 186.768595 12.401042 
L 188.803111 13.679798 
L 193.550316 16.798485 
L 198.297521 19.670617 
L 201.010209 21.675326 
L 211.18279 29.812568 
L 215.251823 33.494437 
L 219.320856 37.128798 
L 222.033544 39.229623 
L 225.424404 41.553973 
L 228.815265 43.601821 
L 231.527953 44.95201 
L 234.918814 46.324159 
L 238.987846 47.712559 
L 243.056879 48.838012 
L 247.125912 49.73482 
L 247.125912 49.73482 
" clip-path="url(#p7637d0f15c)" style="fill: none; stroke: #cf1313; stroke-width: 1.5; stroke-linecap: square"/>
   </g>
   <g id="line2d_2">
    <path d="M 342.748177 50.433489 
L 348.851726 49.738291 
L 352.920758 49.053504 
L 357.667963 47.996801 
L 368.518717 45.290491 
L 371.909577 44.210536 
L 375.300438 42.915987 
L 380.725814 40.547104 
L 384.794847 38.562894 
L 387.507535 37.003124 
L 390.220224 35.194365 
L 394.289256 32.1555 
L 399.714633 28.08497 
L 403.105493 25.799863 
L 406.496354 23.801168 
L 409.887214 22.06391 
L 413.956247 20.256244 
L 418.02528 18.719149 
L 424.128828 16.730904 
L 434.979582 13.341243 
L 437.014098 12.983814 
L 439.048614 12.859823 
L 441.083131 12.99117 
L 443.117647 13.344736 
L 446.508508 14.209756 
L 454.646573 16.550752 
L 456.681089 17.379044 
L 458.715605 18.413112 
L 461.428294 20.09816 
L 468.888187 25.117114 
L 471.600875 26.54544 
L 479.060768 30.193333 
L 483.129801 32.631906 
L 489.23335 36.239789 
L 501.440447 43.171721 
L 504.153136 44.304655 
L 507.543996 45.465187 
L 512.969373 47.051327 
L 517.716578 48.250353 
L 521.78561 49.072359 
L 526.532815 49.805361 
L 531.958192 50.416552 
L 532.636364 50.481484 
L 532.636364 50.481484 
" clip-path="url(#p7637d0f15c)" style="fill: none; stroke: #116dc2; stroke-width: 1.5; stroke-linecap: square"/>
   </g>
   <g id="line2d_3">
    <path d="M 25.363636 49.761249 
L 26.041808 49.452409 
L 26.719981 49.153515 
L 27.398153 48.868478 
L 28.076325 48.575104 
L 28.754497 48.231421 
L 29.432669 47.794862 
L 30.110841 47.241257 
L 30.789013 46.56911 
L 31.467185 45.786054 
L 32.145357 44.890766 
L 32.823529 43.869589 
L 33.501702 42.713889 
L 34.179874 41.441794 
L 34.858046 40.099657 
L 35.536218 38.736755 
L 36.21439 37.375195 
L 36.892562 36.004436 
L 37.570734 34.605933 
L 38.248906 33.184013 
L 38.927078 31.775432 
L 39.60525 30.431023 
L 40.283422 29.181861 
L 40.961595 28.007628 
L 41.639767 26.825663 
L 42.317939 25.516804 
L 42.996111 23.984565 
L 43.674283 22.212603 
L 44.352455 20.276845 
L 45.030627 18.302923 
L 45.708799 16.404767 
L 46.386971 14.648038 
L 47.065143 13.050048 
L 47.743316 11.597586 
L 48.421488 10.263046 
L 49.09966 9.013622 
L 49.777832 7.816871 
L 50.456004 6.64805 
L 51.134176 5.504475 
L 51.812348 4.423992 
L 52.49052 3.490898 
L 53.168692 2.812353 
L 53.846864 2.470909 
L 54.525036 2.48376 
L 55.203209 2.798941 
L 55.881381 3.330779 
L 56.559553 4.006665 
L 57.237725 4.790153 
L 57.915897 5.666584 
L 58.594069 6.610151 
L 59.272241 7.568524 
L 59.950413 8.485497 
L 60.628585 9.344966 
L 61.306757 10.196087 
L 61.98493 11.134847 
L 62.663102 12.256823 
L 63.341274 13.618623 
L 64.019446 15.229827 
L 64.697618 17.065172 
L 65.37579 19.075406 
L 66.053962 21.191831 
L 66.732134 23.336135 
L 67.410306 25.439974 
L 68.088478 27.460319 
L 68.76665 29.376139 
L 69.444823 31.172849 
L 70.122995 32.835258 
L 70.801167 34.358021 
L 71.479339 35.760229 
L 72.157511 37.084681 
L 72.835683 38.377549 
L 73.513855 39.662244 
L 74.192027 40.926121 
L 74.870199 42.128929 
L 75.548371 43.226478 
L 76.226544 44.192889 
L 76.904716 45.027906 
L 77.582888 45.749278 
L 78.26106 46.381196 
L 78.939232 46.94782 
L 79.617404 47.471355 
L 80.295576 47.969534 
L 80.973748 48.45154 
L 81.65192 48.916092 
L 82.330092 49.354075 
L 83.008264 49.753681 
" clip-path="url(#p7637d0f15c)" style="fill: none; stroke: #8a8a8a; stroke-width: 1.5; stroke-linecap: square"/>
   </g>
  </g>
 </g>
 <defs>
  <clipPath id="p7637d0f15c">
   <rect x="0" y="-0" width="558" height="54.36"/>
  </clipPath>
 </defs>
</svg>
