<?xml version="1.0" encoding="utf-8" standalone="no"?>
<!DOCTYPE svg PUBLIC "-//W3C//DTD SVG 1.1//EN"
  "http://www.w3.org/Graphics/SVG/1.1/DTD/svg11.dtd">
<svg xmlns:xlink="http://www.w3.org/1999/xlink" width="558pt" height="54.36pt" viewBox="0 0 558 54.36" xmlns="http://www.w3.org/2000/svg" version="1.1">
 <metadata>
  <rdf:RDF xmlns:dc="http://purl.org/dc/elements/1.1/" xmlns:cc="http://creativecommons.org/ns#" xmlns:rdf="http://www.w3.org/1999/02/22-rdf-syntax-ns#">
   <cc:Work>
    <dc:type rdf:resource="http://purl.org/dc/dcmitype/StillImage"/>
    <dc:date>2024-09-15T09:31:56.156451</dc:date>
    <dc:format>image/svg+xml</dc:format>
    <dc:creator>
     <cc:Agent>
      <dc:title>Matplotlib v3.5.2, https://matplotlib.org/</dc:title>
     </cc:Agent>
    </dc:creator>
   </cc:Work>
  </rdf:RDF>
 </metadata>
 <defs>
  <style type="text/css">*{stroke-linejoin: round; stroke-linecap: butt}</style>
 </defs>
 <g id="figure_1">
  <g id="patch_1">
   <path d="M 0 54.36 
L 558 54.36 
L 558 0 
L 0 0 
L 0 54.36 
z
" style="fill: none; opacity: 0"/>
  </g>
  <g id="axes_1">
   <g id="PolyCollection_1">
    <defs>
     <path id="m1a25392932" d="M 112.402388 -2.470909 
L 112.402388 -4.431568 
L 113.082379 -4.578171 
L 113.762369 -4.725926 
L 114.442359 -4.873939 
L 115.12235 -5.021698 
L 115.80234 -5.169129 
L 116.48233 -5.316621 
L 117.16232 -5.465014 
L 117.842311 -5.615561 
L 118.522301 -5.769876 
L 119.202291 -5.929858 
L 119.882281 -6.097623 
L 120.562272 -6.27542 
L 121.242262 -6.465551 
L 121.922252 -6.670281 
L 122.602242 -6.891736 
L 123.282233 -7.131788 
L 123.962223 -7.39194 
L 124.642213 -7.673208 
L 125.322203 -7.976029 
L 126.002194 -8.300213 
L 126.682184 -8.644959 
L 127.362174 -9.008938 
L 128.042164 -9.390465 
L 128.722155 -9.787713 
L 129.402145 -10.198967 
L 130.082135 -10.622867 
L 130.762125 -11.058592 
L 131.442116 -11.505958 
L 132.122106 -11.96539 
L 132.802096 -12.437779 
L 133.482086 -12.924216 
L 134.162077 -13.425666 
L 134.842067 -13.942611 
L 135.522057 -14.474746 
L 136.202047 -15.020763 
L 136.882038 -15.578281 
L 137.562028 -16.143936 
L 138.242018 -16.713624 
L 138.922008 -17.282864 
L 139.601999 -17.84722 
L 140.281989 -18.402731 
L 140.961979 -18.94627 
L 141.641969 -19.475798 
L 142.32196 -19.990464 
L 143.00195 -20.490564 
L 143.68194 -20.977353 
L 144.36193 -21.452778 
L 145.041921 -21.919156 
L 145.721911 -22.378863 
L 146.401901 -22.834093 
L 147.081891 -23.286724 
L 147.761882 -23.738303 
L 148.441872 -24.19017 
L 149.121862 -24.643663 
L 149.801852 -25.100374 
L 150.481843 -25.562382 
L 151.161833 -26.032375 
L 151.841823 -26.513626 
L 152.521813 -27.009759 
L 153.201804 -27.524337 
L 153.881794 -28.060303 
L 154.561784 -28.619355 
L 155.241774 -29.201397 
L 155.921765 -29.804147 
L 156.601755 -30.423034 
L 157.281745 -31.051431 
L 157.961735 -31.681224 
L 158.641726 -32.303672 
L 159.321716 -32.910438 
L 160.001706 -33.494631 
L 160.681696 -34.051711 
L 161.361687 -34.580096 
L 162.041677 -35.081355 
L 162.721667 -35.559962 
L 163.401657 -36.022623 
L 164.081648 -36.477271 
L 164.761638 -36.931893 
L 165.441628 -37.393357 
L 166.121618 -37.866427 
L 166.801609 -38.353106 
L 167.481599 -38.852404 
L 168.161589 -39.360535 
L 168.841579 -39.871497 
L 169.52157 -40.377901 
L 170.20156 -40.871902 
L 170.88155 -41.346067 
L 171.56154 -41.794037 
L 172.241531 -42.210897 
L 172.921521 -42.593229 
L 173.601511 -42.938891 
L 174.281501 -43.246595 
L 174.961492 -43.515417 
L 175.641482 -43.744348 
L 176.321472 -43.931988 
L 177.001462 -44.07644 
L 177.681453 -44.175411 
L 178.361443 -44.226488 
L 179.041433 -44.22753 
L 179.721423 -44.177063 
L 180.401414 -44.074626 
L 181.081404 -43.920978 
L 181.761394 -43.718139 
L 182.441384 -43.469262 
L 183.121375 -43.178366 
L 183.801365 -42.849975 
L 184.481355 -42.488745 
L 185.161345 -42.099122 
L 185.841336 -41.685109 
L 186.521326 -41.250147 
L 187.201316 -40.797138 
L 187.881306 -40.328579 
L 188.561297 -39.846763 
L 189.241287 -39.354012 
L 189.921277 -38.852852 
L 190.601267 -38.346109 
L 191.281258 -37.836883 
L 191.961248 -37.328386 
L 192.641238 -36.823676 
L 193.321228 -36.325324 
L 194.001219 -35.835082 
L 194.681209 -35.353617 
L 195.361199 -34.880379 
L 196.041189 -34.413633 
L 196.72118 -33.95067 
L 197.40117 -33.488187 
L 198.08116 -33.02275 
L 198.76115 -32.551294 
L 199.441141 -32.071566 
L 200.121131 -31.582426 
L 200.801121 -31.083963 
L 201.481111 -30.577408 
L 202.161102 -30.06484 
L 202.841092 -29.548754 
L 203.521082 -29.03154 
L 204.201072 -28.514983 
L 204.881063 -27.999851 
L 205.561053 -27.485656 
L 206.241043 -26.970627 
L 206.921033 -26.451911 
L 207.601024 -25.925986 
L 208.281014 -25.389206 
L 208.961004 -24.838419 
L 209.640994 -24.271533 
L 210.320985 -23.68795 
L 211.000975 -23.088784 
L 211.680965 -22.476826 
L 212.360955 -21.856253 
L 213.040946 -21.232148 
L 213.720936 -20.60988 
L 214.400926 -19.994487 
L 215.080916 -19.39013 
L 215.760907 -18.799725 
L 216.440897 -18.224787 
L 217.120887 -17.665506 
L 217.800877 -17.12101 
L 218.480868 -16.589765 
L 219.160858 -16.070018 
L 219.840848 -15.560226 
L 220.520838 -15.059375 
L 221.200829 -14.567185 
L 221.880819 -14.084151 
L 222.560809 -13.611465 
L 223.240799 -13.150825 
L 223.92079 -12.704187 
L 224.60078 -12.273507 
L 225.28077 -11.860495 
L 225.96076 -11.466425 
L 226.640751 -11.092014 
L 227.320741 -10.73736 
L 228.000731 -10.401947 
L 228.680721 -10.084702 
L 229.360712 -9.78409 
L 230.040702 -9.498229 
L 230.720692 -9.225025 
L 231.400682 -8.962304 
L 232.080673 -8.707948 
L 232.760663 -8.460013 
L 233.440653 -8.216835 
L 234.120643 -7.977108 
L 234.800634 -7.739933 
L 235.480624 -7.504833 
L 236.160614 -7.271737 
L 236.840604 -7.040923 
L 237.520595 -6.812949 
L 238.200585 -6.588561 
L 238.880575 -6.368605 
L 239.560565 -6.153942 
L 240.240556 -5.945394 
L 240.920546 -5.743703 
L 241.600536 -5.549525 
L 242.280526 -5.363437 
L 242.960517 -5.185953 
L 243.640507 -5.017535 
L 244.320497 -4.858591 
L 245.000487 -4.709457 
L 245.680478 -4.570351 
L 246.360468 -4.441329 
L 247.040458 -4.322234 
L 247.720448 -4.21267 
L 248.400439 -4.112006 
L 249.080429 -4.019407 
L 249.760419 -3.933908 
L 250.440409 -3.854506 
L 250.440409 -2.470909 
L 250.440409 -2.470909 
L 249.760419 -2.470909 
L 249.080429 -2.470909 
L 248.400439 -2.470909 
L 247.720448 -2.470909 
L 247.040458 -2.470909 
L 246.360468 -2.470909 
L 245.680478 -2.470909 
L 245.000487 -2.470909 
L 244.320497 -2.470909 
L 243.640507 -2.470909 
L 242.960517 -2.470909 
L 242.280526 -2.470909 
L 241.600536 -2.470909 
L 240.920546 -2.470909 
L 240.240556 -2.470909 
L 239.560565 -2.470909 
L 238.880575 -2.470909 
L 238.200585 -2.470909 
L 237.520595 -2.470909 
L 236.840604 -2.470909 
L 236.160614 -2.470909 
L 235.480624 -2.470909 
L 234.800634 -2.470909 
L 234.120643 -2.470909 
L 233.440653 -2.470909 
L 232.760663 -2.470909 
L 232.080673 -2.470909 
L 231.400682 -2.470909 
L 230.720692 -2.470909 
L 230.040702 -2.470909 
L 229.360712 -2.470909 
L 228.680721 -2.470909 
L 228.000731 -2.470909 
L 227.320741 -2.470909 
L 226.640751 -2.470909 
L 225.96076 -2.470909 
L 225.28077 -2.470909 
L 224.60078 -2.470909 
L 223.92079 -2.470909 
L 223.240799 -2.470909 
L 222.560809 -2.470909 
L 221.880819 -2.470909 
L 221.200829 -2.470909 
L 220.520838 -2.470909 
L 219.840848 -2.470909 
L 219.160858 -2.470909 
L 218.480868 -2.470909 
L 217.800877 -2.470909 
L 217.120887 -2.470909 
L 216.440897 -2.470909 
L 215.760907 -2.470909 
L 215.080916 -2.470909 
L 214.400926 -2.470909 
L 213.720936 -2.470909 
L 213.040946 -2.470909 
L 212.360955 -2.470909 
L 211.680965 -2.470909 
L 211.000975 -2.470909 
L 210.320985 -2.470909 
L 209.640994 -2.470909 
L 208.961004 -2.470909 
L 208.281014 -2.470909 
L 207.601024 -2.470909 
L 206.921033 -2.470909 
L 206.241043 -2.470909 
L 205.561053 -2.470909 
L 204.881063 -2.470909 
L 204.201072 -2.470909 
L 203.521082 -2.470909 
L 202.841092 -2.470909 
L 202.161102 -2.470909 
L 201.481111 -2.470909 
L 200.801121 -2.470909 
L 200.121131 -2.470909 
L 199.441141 -2.470909 
L 198.76115 -2.470909 
L 198.08116 -2.470909 
L 197.40117 -2.470909 
L 196.72118 -2.470909 
L 196.041189 -2.470909 
L 195.361199 -2.470909 
L 194.681209 -2.470909 
L 194.001219 -2.470909 
L 193.321228 -2.470909 
L 192.641238 -2.470909 
L 191.961248 -2.470909 
L 191.281258 -2.470909 
L 190.601267 -2.470909 
L 189.921277 -2.470909 
L 189.241287 -2.470909 
L 188.561297 -2.470909 
L 187.881306 -2.470909 
L 187.201316 -2.470909 
L 186.521326 -2.470909 
L 185.841336 -2.470909 
L 185.161345 -2.470909 
L 184.481355 -2.470909 
L 183.801365 -2.470909 
L 183.121375 -2.470909 
L 182.441384 -2.470909 
L 181.761394 -2.470909 
L 181.081404 -2.470909 
L 180.401414 -2.470909 
L 179.721423 -2.470909 
L 179.041433 -2.470909 
L 178.361443 -2.470909 
L 177.681453 -2.470909 
L 177.001462 -2.470909 
L 176.321472 -2.470909 
L 175.641482 -2.470909 
L 174.961492 -2.470909 
L 174.281501 -2.470909 
L 173.601511 -2.470909 
L 172.921521 -2.470909 
L 172.241531 -2.470909 
L 171.56154 -2.470909 
L 170.88155 -2.470909 
L 170.20156 -2.470909 
L 169.52157 -2.470909 
L 168.841579 -2.470909 
L 168.161589 -2.470909 
L 167.481599 -2.470909 
L 166.801609 -2.470909 
L 166.121618 -2.470909 
L 165.441628 -2.470909 
L 164.761638 -2.470909 
L 164.081648 -2.470909 
L 163.401657 -2.470909 
L 162.721667 -2.470909 
L 162.041677 -2.470909 
L 161.361687 -2.470909 
L 160.681696 -2.470909 
L 160.001706 -2.470909 
L 159.321716 -2.470909 
L 158.641726 -2.470909 
L 157.961735 -2.470909 
L 157.281745 -2.470909 
L 156.601755 -2.470909 
L 155.921765 -2.470909 
L 155.241774 -2.470909 
L 154.561784 -2.470909 
L 153.881794 -2.470909 
L 153.201804 -2.470909 
L 152.521813 -2.470909 
L 151.841823 -2.470909 
L 151.161833 -2.470909 
L 150.481843 -2.470909 
L 149.801852 -2.470909 
L 149.121862 -2.470909 
L 148.441872 -2.470909 
L 147.761882 -2.470909 
L 147.081891 -2.470909 
L 146.401901 -2.470909 
L 145.721911 -2.470909 
L 145.041921 -2.470909 
L 144.36193 -2.470909 
L 143.68194 -2.470909 
L 143.00195 -2.470909 
L 142.32196 -2.470909 
L 141.641969 -2.470909 
L 140.961979 -2.470909 
L 140.281989 -2.470909 
L 139.601999 -2.470909 
L 138.922008 -2.470909 
L 138.242018 -2.470909 
L 137.562028 -2.470909 
L 136.882038 -2.470909 
L 136.202047 -2.470909 
L 135.522057 -2.470909 
L 134.842067 -2.470909 
L 134.162077 -2.470909 
L 133.482086 -2.470909 
L 132.802096 -2.470909 
L 132.122106 -2.470909 
L 131.442116 -2.470909 
L 130.762125 -2.470909 
L 130.082135 -2.470909 
L 129.402145 -2.470909 
L 128.722155 -2.470909 
L 128.042164 -2.470909 
L 127.362174 -2.470909 
L 126.682184 -2.470909 
L 126.002194 -2.470909 
L 125.322203 -2.470909 
L 124.642213 -2.470909 
L 123.962223 -2.470909 
L 123.282233 -2.470909 
L 122.602242 -2.470909 
L 121.922252 -2.470909 
L 121.242262 -2.470909 
L 120.562272 -2.470909 
L 119.882281 -2.470909 
L 119.202291 -2.470909 
L 118.522301 -2.470909 
L 117.842311 -2.470909 
L 117.16232 -2.470909 
L 116.48233 -2.470909 
L 115.80234 -2.470909 
L 115.12235 -2.470909 
L 114.442359 -2.470909 
L 113.762369 -2.470909 
L 113.082379 -2.470909 
L 112.402388 -2.470909 
z
" style="stroke: #cf1313; stroke-opacity: 0.2"/>
    </defs>
    <g clip-path="url(#pc438fbd090)">
     <use xlink:href="#m1a25392932" x="0" y="54.36" style="fill: #cf1313; fill-opacity: 0.2; stroke: #cf1313; stroke-opacity: 0.2"/>
    </g>
   </g>
   <g id="PolyCollection_2">
    <defs>
     <path id="m8d7db7122b" d="M 342.919084 -2.470909 
L 342.919084 -4.302623 
L 343.599074 -4.393659 
L 344.279064 -4.48379 
L 344.959054 -4.572637 
L 345.639045 -4.659939 
L 346.319035 -4.745565 
L 346.999025 -4.829528 
L 347.679015 -4.911987 
L 348.359006 -4.99325 
L 349.038996 -5.073768 
L 349.718986 -5.154124 
L 350.398976 -5.235019 
L 351.078967 -5.317251 
L 351.758957 -5.401687 
L 352.438947 -5.489234 
L 353.118937 -5.580808 
L 353.798928 -5.677302 
L 354.478918 -5.779553 
L 355.158908 -5.888315 
L 355.838898 -6.004239 
L 356.518889 -6.127853 
L 357.198879 -6.259555 
L 357.878869 -6.399615 
L 358.558859 -6.548177 
L 359.23885 -6.705272 
L 359.91884 -6.870837 
L 360.59883 -7.044727 
L 361.27882 -7.226738 
L 361.958811 -7.416615 
L 362.638801 -7.614072 
L 363.318791 -7.818793 
L 363.998781 -8.030441 
L 364.678772 -8.248663 
L 365.358762 -8.473086 
L 366.038752 -8.703329 
L 366.718742 -8.939005 
L 367.398733 -9.179733 
L 368.078723 -9.425148 
L 368.758713 -9.674926 
L 369.438703 -9.92879 
L 370.118694 -10.186535 
L 370.798684 -10.448033 
L 371.478674 -10.71324 
L 372.158664 -10.982191 
L 372.838655 -11.254991 
L 373.518645 -11.53179 
L 374.198635 -11.81276 
L 374.878625 -12.098067 
L 375.558616 -12.38784 
L 376.238606 -12.682149 
L 376.918596 -12.98099 
L 377.598586 -13.284274 
L 378.278577 -13.591838 
L 378.958567 -13.903451 
L 379.638557 -14.218841 
L 380.318547 -14.537717 
L 380.998538 -14.859796 
L 381.678528 -15.184821 
L 382.358518 -15.512585 
L 383.038508 -15.842931 
L 383.718499 -16.175759 
L 384.398489 -16.511012 
L 385.078479 -16.848669 
L 385.758469 -17.188728 
L 386.43846 -17.531193 
L 387.11845 -17.876065 
L 387.79844 -18.223336 
L 388.47843 -18.572993 
L 389.158421 -18.925027 
L 389.838411 -19.279442 
L 390.518401 -19.636276 
L 391.198391 -19.995613 
L 391.878382 -20.357596 
L 392.558372 -20.72244 
L 393.238362 -21.090438 
L 393.918352 -21.461956 
L 394.598343 -21.837433 
L 395.278333 -22.217367 
L 395.958323 -22.602306 
L 396.638313 -22.992826 
L 397.318304 -23.389513 
L 397.998294 -23.792939 
L 398.678284 -24.203638 
L 399.358274 -24.622071 
L 400.038265 -25.048601 
L 400.718255 -25.483455 
L 401.398245 -25.926692 
L 402.078235 -26.378169 
L 402.758226 -26.837515 
L 403.438216 -27.304108 
L 404.118206 -27.777065 
L 404.798196 -28.25524 
L 405.478187 -28.737238 
L 406.158177 -29.221446 
L 406.838167 -29.706068 
L 407.518157 -30.189184 
L 408.198148 -30.66881 
L 408.878138 -31.142966 
L 409.558128 -31.60975 
L 410.238118 -32.067404 
L 410.918109 -32.514373 
L 411.598099 -32.949363 
L 412.278089 -33.371369 
L 412.958079 -33.779698 
L 413.63807 -34.173971 
L 414.31806 -34.554107 
L 414.99805 -34.920285 
L 415.67804 -35.272904 
L 416.358031 -35.61252 
L 417.038021 -35.939783 
L 417.718011 -36.255379 
L 418.398001 -36.559964 
L 419.077992 -36.85412 
L 419.757982 -37.138316 
L 420.437972 -37.412894 
L 421.117962 -37.67806 
L 421.797953 -37.933905 
L 422.477943 -38.180429 
L 423.157933 -38.417581 
L 423.837923 -38.6453 
L 424.517914 -38.863563 
L 425.197904 -39.072412 
L 425.877894 -39.271986 
L 426.557884 -39.46253 
L 427.237875 -39.644387 
L 427.917865 -39.817977 
L 428.597855 -39.983763 
L 429.277845 -40.142207 
L 429.957836 -40.293714 
L 430.637826 -40.43858 
L 431.317816 -40.57695 
L 431.997806 -40.708774 
L 432.677797 -40.833786 
L 433.357787 -40.951489 
L 434.037777 -41.061169 
L 434.717767 -41.161909 
L 435.397758 -41.252632 
L 436.077748 -41.332151 
L 436.757738 -41.39922 
L 437.437728 -41.452599 
L 438.117719 -41.491113 
L 438.797709 -41.513707 
L 439.477699 -41.519494 
L 440.157689 -41.507786 
L 440.83768 -41.478117 
L 441.51767 -41.430246 
L 442.19766 -41.364145 
L 442.87765 -41.279978 
L 443.557641 -41.178068 
L 444.237631 -41.058851 
L 444.917621 -40.922841 
L 445.597612 -40.770588 
L 446.277602 -40.602648 
L 446.957592 -40.419564 
L 447.637582 -40.221861 
L 448.317573 -40.010052 
L 448.997563 -39.784662 
L 449.677553 -39.54626 
L 450.357543 -39.295491 
L 451.037534 -39.033115 
L 451.717524 -38.760037 
L 452.397514 -38.477316 
L 453.077504 -38.186166 
L 453.757495 -37.887932 
L 454.437485 -37.584032 
L 455.117475 -37.275897 
L 455.797465 -36.964872 
L 456.477456 -36.652118 
L 457.157446 -36.338512 
L 457.837436 -36.024546 
L 458.517426 -35.710249 
L 459.197417 -35.395139 
L 459.877407 -35.078202 
L 460.557397 -34.757919 
L 461.237387 -34.432329 
L 461.917378 -34.099134 
L 462.597368 -33.755839 
L 463.277358 -33.399918 
L 463.957348 -33.028987 
L 464.637339 -32.640988 
L 465.317329 -32.23435 
L 465.997319 -31.808125 
L 466.677309 -31.362093 
L 467.3573 -30.896813 
L 468.03729 -30.413624 
L 468.71728 -29.914602 
L 469.39727 -29.402454 
L 470.077261 -28.88039 
L 470.757251 -28.351948 
L 471.437241 -27.820812 
L 472.117231 -27.290619 
L 472.797222 -26.764785 
L 473.477212 -26.24634 
L 474.157202 -25.737813 
L 474.837192 -25.241143 
L 475.517183 -24.757647 
L 476.197173 -24.288025 
L 476.877163 -23.83241 
L 477.557153 -23.390456 
L 478.237144 -22.96145 
L 478.917134 -22.544438 
L 479.597124 -22.138354 
L 480.277114 -21.742143 
L 480.957105 -21.354863 
L 481.637095 -20.975755 
L 482.317085 -20.604286 
L 482.997075 -20.240147 
L 483.677066 -19.883227 
L 484.357056 -19.533549 
L 485.037046 -19.191184 
L 485.717036 -18.856157 
L 486.397027 -18.52835 
L 487.077017 -18.207413 
L 487.757007 -17.892703 
L 488.436997 -17.583244 
L 489.116988 -17.277727 
L 489.796978 -16.974552 
L 490.476968 -16.671893 
L 491.156958 -16.367807 
L 491.836949 -16.060354 
L 492.516939 -15.74774 
L 493.196929 -15.428447 
L 493.876919 -15.101359 
L 494.55691 -14.765862 
L 495.2369 -14.421908 
L 495.91689 -14.070046 
L 496.59688 -13.711406 
L 497.276871 -13.347645 
L 497.956861 -12.980857 
L 498.636851 -12.613453 
L 499.316841 -12.248027 
L 499.996832 -11.887206 
L 500.676822 -11.533507 
L 501.356812 -11.189215 
L 502.036802 -10.856268 
L 502.716793 -10.536182 
L 503.396783 -10.230001 
L 504.076773 -9.938284 
L 504.756763 -9.661122 
L 505.436754 -9.398177 
L 506.116744 -9.148748 
L 506.796734 -8.911849 
L 507.476724 -8.686296 
L 508.156715 -8.470796 
L 508.836705 -8.26403 
L 509.516695 -8.064731 
L 510.196685 -7.871741 
L 510.876676 -7.684066 
L 511.556666 -7.500901 
L 512.236656 -7.321651 
L 512.916646 -7.145929 
L 513.596637 -6.973543 
L 514.276627 -6.804474 
L 514.956617 -6.63884 
L 515.636607 -6.476858 
L 516.316598 -6.318806 
L 516.996588 -6.164976 
L 517.676578 -6.015644 
L 518.356568 -5.871033 
L 519.036559 -5.731294 
L 519.716549 -5.59649 
L 520.396539 -5.466596 
L 521.076529 -5.341506 
L 521.75652 -5.221046 
L 522.43651 -5.105 
L 523.1165 -4.993133 
L 523.79649 -4.885219 
L 524.476481 -4.781068 
L 525.156471 -4.680538 
L 525.836461 -4.583553 
L 526.516451 -4.490101 
L 527.196442 -4.40023 
L 527.876432 -4.31403 
L 528.556422 -4.231615 
L 529.236412 -4.153091 
L 529.916403 -4.078536 
L 530.596393 -4.007968 
L 531.276383 -3.941332 
L 531.956373 -3.878482 
L 532.636364 -3.819178 
L 532.636364 -2.470909 
L 532.636364 -2.470909 
L 531.956373 -2.470909 
L 531.276383 -2.470909 
L 530.596393 -2.470909 
L 529.916403 -2.470909 
L 529.236412 -2.470909 
L 528.556422 -2.470909 
L 527.876432 -2.470909 
L 527.196442 -2.470909 
L 526.516451 -2.470909 
L 525.836461 -2.470909 
L 525.156471 -2.470909 
L 524.476481 -2.470909 
L 523.79649 -2.470909 
L 523.1165 -2.470909 
L 522.43651 -2.470909 
L 521.75652 -2.470909 
L 521.076529 -2.470909 
L 520.396539 -2.470909 
L 519.716549 -2.470909 
L 519.036559 -2.470909 
L 518.356568 -2.470909 
L 517.676578 -2.470909 
L 516.996588 -2.470909 
L 516.316598 -2.470909 
L 515.636607 -2.470909 
L 514.956617 -2.470909 
L 514.276627 -2.470909 
L 513.596637 -2.470909 
L 512.916646 -2.470909 
L 512.236656 -2.470909 
L 511.556666 -2.470909 
L 510.876676 -2.470909 
L 510.196685 -2.470909 
L 509.516695 -2.470909 
L 508.836705 -2.470909 
L 508.156715 -2.470909 
L 507.476724 -2.470909 
L 506.796734 -2.470909 
L 506.116744 -2.470909 
L 505.436754 -2.470909 
L 504.756763 -2.470909 
L 504.076773 -2.470909 
L 503.396783 -2.470909 
L 502.716793 -2.470909 
L 502.036802 -2.470909 
L 501.356812 -2.470909 
L 500.676822 -2.470909 
L 499.996832 -2.470909 
L 499.316841 -2.470909 
L 498.636851 -2.470909 
L 497.956861 -2.470909 
L 497.276871 -2.470909 
L 496.59688 -2.470909 
L 495.91689 -2.470909 
L 495.2369 -2.470909 
L 494.55691 -2.470909 
L 493.876919 -2.470909 
L 493.196929 -2.470909 
L 492.516939 -2.470909 
L 491.836949 -2.470909 
L 491.156958 -2.470909 
L 490.476968 -2.470909 
L 489.796978 -2.470909 
L 489.116988 -2.470909 
L 488.436997 -2.470909 
L 487.757007 -2.470909 
L 487.077017 -2.470909 
L 486.397027 -2.470909 
L 485.717036 -2.470909 
L 485.037046 -2.470909 
L 484.357056 -2.470909 
L 483.677066 -2.470909 
L 482.997075 -2.470909 
L 482.317085 -2.470909 
L 481.637095 -2.470909 
L 480.957105 -2.470909 
L 480.277114 -2.470909 
L 479.597124 -2.470909 
L 478.917134 -2.470909 
L 478.237144 -2.470909 
L 477.557153 -2.470909 
L 476.877163 -2.470909 
L 476.197173 -2.470909 
L 475.517183 -2.470909 
L 474.837192 -2.470909 
L 474.157202 -2.470909 
L 473.477212 -2.470909 
L 472.797222 -2.470909 
L 472.117231 -2.470909 
L 471.437241 -2.470909 
L 470.757251 -2.470909 
L 470.077261 -2.470909 
L 469.39727 -2.470909 
L 468.71728 -2.470909 
L 468.03729 -2.470909 
L 467.3573 -2.470909 
L 466.677309 -2.470909 
L 465.997319 -2.470909 
L 465.317329 -2.470909 
L 464.637339 -2.470909 
L 463.957348 -2.470909 
L 463.277358 -2.470909 
L 462.597368 -2.470909 
L 461.917378 -2.470909 
L 461.237387 -2.470909 
L 460.557397 -2.470909 
L 459.877407 -2.470909 
L 459.197417 -2.470909 
L 458.517426 -2.470909 
L 457.837436 -2.470909 
L 457.157446 -2.470909 
L 456.477456 -2.470909 
L 455.797465 -2.470909 
L 455.117475 -2.470909 
L 454.437485 -2.470909 
L 453.757495 -2.470909 
L 453.077504 -2.470909 
L 452.397514 -2.470909 
L 451.717524 -2.470909 
L 451.037534 -2.470909 
L 450.357543 -2.470909 
L 449.677553 -2.470909 
L 448.997563 -2.470909 
L 448.317573 -2.470909 
L 447.637582 -2.470909 
L 446.957592 -2.470909 
L 446.277602 -2.470909 
L 445.597612 -2.470909 
L 444.917621 -2.470909 
L 444.237631 -2.470909 
L 443.557641 -2.470909 
L 442.87765 -2.470909 
L 442.19766 -2.470909 
L 441.51767 -2.470909 
L 440.83768 -2.470909 
L 440.157689 -2.470909 
L 439.477699 -2.470909 
L 438.797709 -2.470909 
L 438.117719 -2.470909 
L 437.437728 -2.470909 
L 436.757738 -2.470909 
L 436.077748 -2.470909 
L 435.397758 -2.470909 
L 434.717767 -2.470909 
L 434.037777 -2.470909 
L 433.357787 -2.470909 
L 432.677797 -2.470909 
L 431.997806 -2.470909 
L 431.317816 -2.470909 
L 430.637826 -2.470909 
L 429.957836 -2.470909 
L 429.277845 -2.470909 
L 428.597855 -2.470909 
L 427.917865 -2.470909 
L 427.237875 -2.470909 
L 426.557884 -2.470909 
L 425.877894 -2.470909 
L 425.197904 -2.470909 
L 424.517914 -2.470909 
L 423.837923 -2.470909 
L 423.157933 -2.470909 
L 422.477943 -2.470909 
L 421.797953 -2.470909 
L 421.117962 -2.470909 
L 420.437972 -2.470909 
L 419.757982 -2.470909 
L 419.077992 -2.470909 
L 418.398001 -2.470909 
L 417.718011 -2.470909 
L 417.038021 -2.470909 
L 416.358031 -2.470909 
L 415.67804 -2.470909 
L 414.99805 -2.470909 
L 414.31806 -2.470909 
L 413.63807 -2.470909 
L 412.958079 -2.470909 
L 412.278089 -2.470909 
L 411.598099 -2.470909 
L 410.918109 -2.470909 
L 410.238118 -2.470909 
L 409.558128 -2.470909 
L 408.878138 -2.470909 
L 408.198148 -2.470909 
L 407.518157 -2.470909 
L 406.838167 -2.470909 
L 406.158177 -2.470909 
L 405.478187 -2.470909 
L 404.798196 -2.470909 
L 404.118206 -2.470909 
L 403.438216 -2.470909 
L 402.758226 -2.470909 
L 402.078235 -2.470909 
L 401.398245 -2.470909 
L 400.718255 -2.470909 
L 400.038265 -2.470909 
L 399.358274 -2.470909 
L 398.678284 -2.470909 
L 397.998294 -2.470909 
L 397.318304 -2.470909 
L 396.638313 -2.470909 
L 395.958323 -2.470909 
L 395.278333 -2.470909 
L 394.598343 -2.470909 
L 393.918352 -2.470909 
L 393.238362 -2.470909 
L 392.558372 -2.470909 
L 391.878382 -2.470909 
L 391.198391 -2.470909 
L 390.518401 -2.470909 
L 389.838411 -2.470909 
L 389.158421 -2.470909 
L 388.47843 -2.470909 
L 387.79844 -2.470909 
L 387.11845 -2.470909 
L 386.43846 -2.470909 
L 385.758469 -2.470909 
L 385.078479 -2.470909 
L 384.398489 -2.470909 
L 383.718499 -2.470909 
L 383.038508 -2.470909 
L 382.358518 -2.470909 
L 381.678528 -2.470909 
L 380.998538 -2.470909 
L 380.318547 -2.470909 
L 379.638557 -2.470909 
L 378.958567 -2.470909 
L 378.278577 -2.470909 
L 377.598586 -2.470909 
L 376.918596 -2.470909 
L 376.238606 -2.470909 
L 375.558616 -2.470909 
L 374.878625 -2.470909 
L 374.198635 -2.470909 
L 373.518645 -2.470909 
L 372.838655 -2.470909 
L 372.158664 -2.470909 
L 371.478674 -2.470909 
L 370.798684 -2.470909 
L 370.118694 -2.470909 
L 369.438703 -2.470909 
L 368.758713 -2.470909 
L 368.078723 -2.470909 
L 367.398733 -2.470909 
L 366.718742 -2.470909 
L 366.038752 -2.470909 
L 365.358762 -2.470909 
L 364.678772 -2.470909 
L 363.998781 -2.470909 
L 363.318791 -2.470909 
L 362.638801 -2.470909 
L 361.958811 -2.470909 
L 361.27882 -2.470909 
L 360.59883 -2.470909 
L 359.91884 -2.470909 
L 359.23885 -2.470909 
L 358.558859 -2.470909 
L 357.878869 -2.470909 
L 357.198879 -2.470909 
L 356.518889 -2.470909 
L 355.838898 -2.470909 
L 355.158908 -2.470909 
L 354.478918 -2.470909 
L 353.798928 -2.470909 
L 353.118937 -2.470909 
L 352.438947 -2.470909 
L 351.758957 -2.470909 
L 351.078967 -2.470909 
L 350.398976 -2.470909 
L 349.718986 -2.470909 
L 349.038996 -2.470909 
L 348.359006 -2.470909 
L 347.679015 -2.470909 
L 346.999025 -2.470909 
L 346.319035 -2.470909 
L 345.639045 -2.470909 
L 344.959054 -2.470909 
L 344.279064 -2.470909 
L 343.599074 -2.470909 
L 342.919084 -2.470909 
z
" style="stroke: #116dc2; stroke-opacity: 0.2"/>
    </defs>
    <g clip-path="url(#pc438fbd090)">
     <use xlink:href="#m8d7db7122b" x="0" y="54.36" style="fill: #116dc2; fill-opacity: 0.2; stroke: #116dc2; stroke-opacity: 0.2"/>
    </g>
   </g>
   <g id="PolyCollection_3">
    <defs>
     <path id="mcfb788c623" d="M 25.363636 -2.470909 
L 25.363636 -4.770536 
L 26.043627 -5.108887 
L 26.723617 -5.456393 
L 27.403607 -5.809308 
L 28.083597 -6.164966 
L 28.763588 -6.532532 
L 29.443578 -6.944621 
L 30.123568 -7.457288 
L 30.803558 -8.132408 
L 31.483549 -9.010013 
L 32.163539 -10.08871 
L 32.843529 -11.329235 
L 33.523519 -12.678062 
L 34.20351 -14.090105 
L 34.8835 -15.532143 
L 35.56349 -16.971482 
L 36.24348 -18.371434 
L 36.923471 -19.705719 
L 37.603461 -20.979476 
L 38.283451 -22.234968 
L 38.963441 -23.535375 
L 39.643432 -24.939643 
L 40.323422 -26.482869 
L 41.003412 -28.164356 
L 41.683402 -29.941097 
L 42.363393 -31.734321 
L 43.043383 -33.460612 
L 43.723373 -35.07899 
L 44.403363 -36.617505 
L 45.083354 -38.145878 
L 45.763344 -39.705837 
L 46.443334 -41.257239 
L 47.123324 -42.692888 
L 47.803315 -43.915594 
L 48.483305 -44.913941 
L 49.163295 -45.774147 
L 49.843285 -46.621162 
L 50.523276 -47.538628 
L 51.203266 -48.526328 
L 51.883256 -49.515278 
L 52.563246 -50.414387 
L 53.243237 -51.146826 
L 53.923227 -51.655372 
L 54.603217 -51.889091 
L 55.283207 -51.799099 
L 55.963198 -51.35788 
L 56.643188 -50.589467 
L 57.323178 -49.582072 
L 58.003168 -48.464243 
L 58.683159 -47.35221 
L 59.363149 -46.298436 
L 60.043139 -45.272745 
L 60.723129 -44.186237 
L 61.40312 -42.940266 
L 62.08311 -41.470354 
L 62.7631 -39.766763 
L 63.44309 -37.873622 
L 64.123081 -35.87601 
L 64.803071 -33.878435 
L 65.483061 -31.974526 
L 66.163051 -30.214365 
L 66.843042 -28.585461 
L 67.523032 -27.023491 
L 68.203022 -25.453248 
L 68.883012 -23.836537 
L 69.563003 -22.193463 
L 70.242993 -20.581398 
L 70.922983 -19.049491 
L 71.602973 -17.605431 
L 72.282964 -16.219168 
L 72.962954 -14.857533 
L 73.642944 -13.520293 
L 74.322934 -12.249149 
L 75.002925 -11.104077 
L 75.682915 -10.127237 
L 76.362905 -9.321857 
L 77.042895 -8.657151 
L 77.722886 -8.08803 
L 78.402876 -7.571946 
L 79.082866 -7.076791 
L 79.762856 -6.585407 
L 80.442847 -6.100236 
L 81.122837 -5.64259 
L 81.802827 -5.240496 
L 82.482817 -4.909907 
L 83.162808 -4.643053 
L 83.162808 -2.470909 
L 83.162808 -2.470909 
L 82.482817 -2.470909 
L 81.802827 -2.470909 
L 81.122837 -2.470909 
L 80.442847 -2.470909 
L 79.762856 -2.470909 
L 79.082866 -2.470909 
L 78.402876 -2.470909 
L 77.722886 -2.470909 
L 77.042895 -2.470909 
L 76.362905 -2.470909 
L 75.682915 -2.470909 
L 75.002925 -2.470909 
L 74.322934 -2.470909 
L 73.642944 -2.470909 
L 72.962954 -2.470909 
L 72.282964 -2.470909 
L 71.602973 -2.470909 
L 70.922983 -2.470909 
L 70.242993 -2.470909 
L 69.563003 -2.470909 
L 68.883012 -2.470909 
L 68.203022 -2.470909 
L 67.523032 -2.470909 
L 66.843042 -2.470909 
L 66.163051 -2.470909 
L 65.483061 -2.470909 
L 64.803071 -2.470909 
L 64.123081 -2.470909 
L 63.44309 -2.470909 
L 62.7631 -2.470909 
L 62.08311 -2.470909 
L 61.40312 -2.470909 
L 60.723129 -2.470909 
L 60.043139 -2.470909 
L 59.363149 -2.470909 
L 58.683159 -2.470909 
L 58.003168 -2.470909 
L 57.323178 -2.470909 
L 56.643188 -2.470909 
L 55.963198 -2.470909 
L 55.283207 -2.470909 
L 54.603217 -2.470909 
L 53.923227 -2.470909 
L 53.243237 -2.470909 
L 52.563246 -2.470909 
L 51.883256 -2.470909 
L 51.203266 -2.470909 
L 50.523276 -2.470909 
L 49.843285 -2.470909 
L 49.163295 -2.470909 
L 48.483305 -2.470909 
L 47.803315 -2.470909 
L 47.123324 -2.470909 
L 46.443334 -2.470909 
L 45.763344 -2.470909 
L 45.083354 -2.470909 
L 44.403363 -2.470909 
L 43.723373 -2.470909 
L 43.043383 -2.470909 
L 42.363393 -2.470909 
L 41.683402 -2.470909 
L 41.003412 -2.470909 
L 40.323422 -2.470909 
L 39.643432 -2.470909 
L 38.963441 -2.470909 
L 38.283451 -2.470909 
L 37.603461 -2.470909 
L 36.923471 -2.470909 
L 36.24348 -2.470909 
L 35.56349 -2.470909 
L 34.8835 -2.470909 
L 34.20351 -2.470909 
L 33.523519 -2.470909 
L 32.843529 -2.470909 
L 32.163539 -2.470909 
L 31.483549 -2.470909 
L 30.803558 -2.470909 
L 30.123568 -2.470909 
L 29.443578 -2.470909 
L 28.763588 -2.470909 
L 28.083597 -2.470909 
L 27.403607 -2.470909 
L 26.723617 -2.470909 
L 26.043627 -2.470909 
L 25.363636 -2.470909 
z
" style="stroke: #8a8a8a; stroke-opacity: 0.2"/>
    </defs>
    <g clip-path="url(#pc438fbd090)">
     <use xlink:href="#mcfb788c623" x="0" y="54.36" style="fill: #8a8a8a; fill-opacity: 0.2; stroke: #8a8a8a; stroke-opacity: 0.2"/>
    </g>
   </g>
   <g id="line2d_1">
    <path d="M 112.402388 49.928432 
L 120.562272 48.08458 
L 123.282233 47.228212 
L 125.322203 46.383971 
L 128.042164 44.969535 
L 130.762125 43.301408 
L 134.162077 40.934334 
L 137.562028 38.216064 
L 142.32196 34.369536 
L 145.721911 31.981137 
L 152.521813 27.350241 
L 155.241774 25.158603 
L 162.041677 19.278645 
L 172.241531 12.149103 
L 174.281501 11.113405 
L 175.641482 10.615652 
L 177.001462 10.28356 
L 178.361443 10.133512 
L 179.721423 10.182937 
L 181.081404 10.439022 
L 182.441384 10.890738 
L 184.481355 11.871255 
L 186.521326 13.109853 
L 189.921277 15.507148 
L 196.041189 19.946367 
L 201.481111 23.782592 
L 208.961004 29.521581 
L 211.680965 31.883174 
L 216.440897 36.135213 
L 219.840848 38.799774 
L 223.240799 41.209175 
L 225.96076 42.893575 
L 228.680721 44.275298 
L 231.400682 45.397696 
L 236.840604 47.319077 
L 241.600536 48.810475 
L 245.000487 49.650543 
L 248.400439 50.247994 
L 250.440409 50.505494 
L 250.440409 50.505494 
" clip-path="url(#pc438fbd090)" style="fill: none; stroke: #cf1313; stroke-width: 1.5; stroke-linecap: square"/>
   </g>
   <g id="line2d_2">
    <path d="M 342.919084 50.057377 
L 357.878869 47.960385 
L 361.27882 47.133262 
L 365.358762 45.886914 
L 370.118694 44.173465 
L 375.558616 41.97216 
L 380.998538 39.500204 
L 387.79844 36.136664 
L 394.598343 32.522567 
L 399.358274 29.737929 
L 403.438216 27.055892 
L 412.278089 20.988631 
L 414.99805 19.439715 
L 418.398001 17.800036 
L 421.797953 16.426095 
L 425.197904 15.287588 
L 428.597855 14.376237 
L 432.677797 13.526214 
L 436.077748 13.027849 
L 438.797709 12.846293 
L 441.51767 12.929754 
L 444.237631 13.301149 
L 446.957592 13.940436 
L 449.677553 14.81374 
L 453.077504 16.173834 
L 459.197417 18.964861 
L 463.277358 20.960082 
L 465.997319 22.551875 
L 468.71728 24.445398 
L 477.557153 30.969544 
L 480.957105 33.005137 
L 485.037046 35.168816 
L 489.116988 37.082273 
L 494.55691 39.594138 
L 499.316841 42.111973 
L 502.716793 43.823818 
L 505.436754 44.961823 
L 508.836705 46.09597 
L 513.596637 47.386457 
L 519.036559 48.628706 
L 523.79649 49.474781 
L 529.236412 50.206909 
L 532.636364 50.540822 
L 532.636364 50.540822 
" clip-path="url(#pc438fbd090)" style="fill: none; stroke: #116dc2; stroke-width: 1.5; stroke-linecap: square"/>
   </g>
   <g id="line2d_3">
    <path d="M 25.363636 49.589464 
L 26.043627 49.251113 
L 26.723617 48.903607 
L 27.403607 48.550692 
L 28.083597 48.195034 
L 28.763588 47.827468 
L 29.443578 47.415379 
L 30.123568 46.902712 
L 30.803558 46.227592 
L 31.483549 45.349987 
L 32.163539 44.27129 
L 32.843529 43.030765 
L 33.523519 41.681938 
L 34.20351 40.269895 
L 34.8835 38.827857 
L 35.56349 37.388518 
L 36.24348 35.988566 
L 36.923471 34.654281 
L 37.603461 33.380524 
L 38.283451 32.125032 
L 38.963441 30.824625 
L 39.643432 29.420357 
L 40.323422 27.877131 
L 41.003412 26.195644 
L 41.683402 24.418903 
L 42.363393 22.625679 
L 43.043383 20.899388 
L 43.723373 19.28101 
L 44.403363 17.742495 
L 45.083354 16.214122 
L 45.763344 14.654163 
L 46.443334 13.102761 
L 47.123324 11.667112 
L 47.803315 10.444406 
L 48.483305 9.446059 
L 49.163295 8.585853 
L 49.843285 7.738838 
L 50.523276 6.821372 
L 51.203266 5.833672 
L 51.883256 4.844722 
L 52.563246 3.945613 
L 53.243237 3.213174 
L 53.923227 2.704628 
L 54.603217 2.470909 
L 55.283207 2.560901 
L 55.963198 3.00212 
L 56.643188 3.770533 
L 57.323178 4.777928 
L 58.003168 5.895757 
L 58.683159 7.00779 
L 59.363149 8.061564 
L 60.043139 9.087255 
L 60.723129 10.173763 
L 61.40312 11.419734 
L 62.08311 12.889646 
L 62.7631 14.593237 
L 63.44309 16.486378 
L 64.123081 18.48399 
L 64.803071 20.481565 
L 65.483061 22.385474 
L 66.163051 24.145635 
L 66.843042 25.774539 
L 67.523032 27.336509 
L 68.203022 28.906752 
L 68.883012 30.523463 
L 69.563003 32.166537 
L 70.242993 33.778602 
L 70.922983 35.310509 
L 71.602973 36.754569 
L 72.282964 38.140832 
L 72.962954 39.502467 
L 73.642944 40.839707 
L 74.322934 42.110851 
L 75.002925 43.255923 
L 75.682915 44.232763 
L 76.362905 45.038143 
L 77.042895 45.702849 
L 77.722886 46.27197 
L 78.402876 46.788054 
L 79.082866 47.283209 
L 79.762856 47.774593 
L 80.442847 48.259764 
L 81.122837 48.71741 
L 81.802827 49.119504 
L 82.482817 49.450093 
L 83.162808 49.716947 
" clip-path="url(#pc438fbd090)" style="fill: none; stroke: #8a8a8a; stroke-width: 1.5; stroke-linecap: square"/>
   </g>
  </g>
 </g>
 <defs>
  <clipPath id="pc438fbd090">
   <rect x="0" y="-0" width="558" height="54.36"/>
  </clipPath>
 </defs>
</svg>
