<?xml version="1.0" encoding="utf-8" standalone="no"?>
<!DOCTYPE svg PUBLIC "-//W3C//DTD SVG 1.1//EN"
  "http://www.w3.org/Graphics/SVG/1.1/DTD/svg11.dtd">
<svg xmlns:xlink="http://www.w3.org/1999/xlink" width="558pt" height="54.36pt" viewBox="0 0 558 54.36" xmlns="http://www.w3.org/2000/svg" version="1.1">
 <metadata>
  <rdf:RDF xmlns:dc="http://purl.org/dc/elements/1.1/" xmlns:cc="http://creativecommons.org/ns#" xmlns:rdf="http://www.w3.org/1999/02/22-rdf-syntax-ns#">
   <cc:Work>
    <dc:type rdf:resource="http://purl.org/dc/dcmitype/StillImage"/>
    <dc:date>2024-09-14T12:47:43.202247</dc:date>
    <dc:format>image/svg+xml</dc:format>
    <dc:creator>
     <cc:Agent>
      <dc:title>Matplotlib v3.5.2, https://matplotlib.org/</dc:title>
     </cc:Agent>
    </dc:creator>
   </cc:Work>
  </rdf:RDF>
 </metadata>
 <defs>
  <style type="text/css">*{stroke-linejoin: round; stroke-linecap: butt}</style>
 </defs>
 <g id="figure_1">
  <g id="patch_1">
   <path d="M 0 54.36 
L 558 54.36 
L 558 0 
L 0 0 
L 0 54.36 
z
" style="fill: none; opacity: 0"/>
  </g>
  <g id="axes_1">
   <g id="PolyCollection_1">
    <defs>
     <path id="mad2b475b75" d="M 231.496199 -2.470909 
L 231.496199 -4.044917 
L 232.344482 -4.208976 
L 233.192764 -4.386907 
L 234.041046 -4.576538 
L 234.889328 -4.775748 
L 235.73761 -4.982723 
L 236.585892 -5.196136 
L 237.434175 -5.415245 
L 238.282457 -5.639965 
L 239.130739 -5.870936 
L 239.979021 -6.109566 
L 240.827303 -6.358023 
L 241.675585 -6.61912 
L 242.523867 -6.896091 
L 243.37215 -7.192255 
L 244.220432 -7.510655 
L 245.068714 -7.853736 
L 245.916996 -8.223129 
L 246.765278 -8.619582 
L 247.61356 -9.043021 
L 248.461843 -9.492686 
L 249.310125 -9.967273 
L 250.158407 -10.465016 
L 251.006689 -10.983694 
L 251.854971 -11.520566 
L 252.703253 -12.072327 
L 253.551535 -12.63514 
L 254.399818 -13.204841 
L 255.2481 -13.777315 
L 256.096382 -14.349011 
L 256.944664 -14.91752 
L 257.792946 -15.482125 
L 258.641228 -16.044203 
L 259.48951 -16.607435 
L 260.337793 -17.177718 
L 261.186075 -17.762735 
L 262.034357 -18.371126 
L 262.882639 -19.011289 
L 263.730921 -19.689939 
L 264.579203 -20.410676 
L 265.427486 -21.172916 
L 266.275768 -21.971517 
L 267.12405 -22.79731 
L 267.972332 -23.638555 
L 268.820614 -24.483037 
L 269.668896 -25.320378 
L 270.517178 -26.143988 
L 271.365461 -26.952204 
L 272.213743 -27.748299 
L 273.062025 -28.539375 
L 273.910307 -29.334407 
L 274.758589 -30.141949 
L 275.606871 -30.968095 
L 276.455154 -31.815188 
L 277.303436 -32.681536 
L 278.151718 -33.562046 
L 279 -34.449419 
L 279.848282 -35.335339 
L 280.696564 -36.211228 
L 281.544846 -37.068333 
L 282.393129 -37.897311 
L 283.241411 -38.687734 
L 284.089693 -39.428051 
L 284.937975 -40.10636 
L 285.786257 -40.712036 
L 286.634539 -41.237851 
L 287.482822 -41.681983 
L 288.331104 -42.049214 
L 289.179386 -42.350829 
L 290.027668 -42.603026 
L 290.87595 -42.824088 
L 291.724232 -43.030874 
L 292.572514 -43.235437 
L 293.420797 -43.442536 
L 294.269079 -43.648653 
L 295.117361 -43.842746 
L 295.965643 -44.008545 
L 296.813925 -44.12783 
L 297.662207 -44.183883 
L 298.51049 -44.164327 
L 299.358772 -44.06278 
L 300.207054 -43.879094 
L 301.055336 -43.618365 
L 301.903618 -43.289134 
L 302.7519 -42.901368 
L 303.600182 -42.464727 
L 304.448465 -41.987448 
L 305.296747 -41.475971 
L 306.145029 -40.935195 
L 306.993311 -40.369104 
L 307.841593 -39.781453 
L 308.689875 -39.176211 
L 309.538157 -38.557628 
L 310.38644 -37.929903 
L 311.234722 -37.296623 
L 312.083004 -36.660217 
L 312.931286 -36.021659 
L 313.779568 -35.380542 
L 314.62785 -34.735496 
L 315.476133 -34.084799 
L 316.324415 -33.426966 
L 317.172697 -32.761154 
L 318.020979 -32.087297 
L 318.869261 -31.406007 
L 319.717543 -30.718308 
L 320.565825 -30.025291 
L 321.414108 -29.327739 
L 322.26239 -28.625758 
L 323.110672 -27.918454 
L 323.958954 -27.203742 
L 324.807236 -26.478406 
L 325.655518 -25.738495 
L 326.503801 -24.980081 
L 327.352083 -24.200267 
L 328.200365 -23.398227 
L 329.048647 -22.576006 
L 329.896929 -21.738817 
L 330.745211 -20.894715 
L 331.593493 -20.053636 
L 332.441776 -19.226007 
L 333.290058 -18.421223 
L 334.13834 -17.646343 
L 334.986622 -16.905336 
L 335.834904 -16.199042 
L 336.683186 -15.52583 
L 337.531469 -14.882708 
L 338.379751 -14.266529 
L 339.228033 -13.6749 
L 340.076315 -13.106552 
L 340.924597 -12.561131 
L 341.772879 -12.038612 
L 342.621161 -11.538649 
L 343.469444 -11.060188 
L 344.317726 -10.601475 
L 345.166008 -10.160457 
L 346.01429 -9.735332 
L 346.862572 -9.325013 
L 347.710854 -8.929294 
L 348.559137 -8.548671 
L 349.407419 -8.183912 
L 350.255701 -7.835558 
L 351.103983 -7.503541 
L 351.952265 -7.187023 
L 352.800547 -6.88448 
L 353.648829 -6.593956 
L 354.497112 -6.313407 
L 355.345394 -6.041039 
L 356.193676 -5.775589 
L 357.041958 -5.516536 
L 357.89024 -5.264223 
L 358.738522 -5.019885 
L 359.586804 -4.785559 
L 360.435087 -4.563878 
L 361.283369 -4.357735 
L 361.283369 -2.470909 
L 361.283369 -2.470909 
L 360.435087 -2.470909 
L 359.586804 -2.470909 
L 358.738522 -2.470909 
L 357.89024 -2.470909 
L 357.041958 -2.470909 
L 356.193676 -2.470909 
L 355.345394 -2.470909 
L 354.497112 -2.470909 
L 353.648829 -2.470909 
L 352.800547 -2.470909 
L 351.952265 -2.470909 
L 351.103983 -2.470909 
L 350.255701 -2.470909 
L 349.407419 -2.470909 
L 348.559137 -2.470909 
L 347.710854 -2.470909 
L 346.862572 -2.470909 
L 346.01429 -2.470909 
L 345.166008 -2.470909 
L 344.317726 -2.470909 
L 343.469444 -2.470909 
L 342.621161 -2.470909 
L 341.772879 -2.470909 
L 340.924597 -2.470909 
L 340.076315 -2.470909 
L 339.228033 -2.470909 
L 338.379751 -2.470909 
L 337.531469 -2.470909 
L 336.683186 -2.470909 
L 335.834904 -2.470909 
L 334.986622 -2.470909 
L 334.13834 -2.470909 
L 333.290058 -2.470909 
L 332.441776 -2.470909 
L 331.593493 -2.470909 
L 330.745211 -2.470909 
L 329.896929 -2.470909 
L 329.048647 -2.470909 
L 328.200365 -2.470909 
L 327.352083 -2.470909 
L 326.503801 -2.470909 
L 325.655518 -2.470909 
L 324.807236 -2.470909 
L 323.958954 -2.470909 
L 323.110672 -2.470909 
L 322.26239 -2.470909 
L 321.414108 -2.470909 
L 320.565825 -2.470909 
L 319.717543 -2.470909 
L 318.869261 -2.470909 
L 318.020979 -2.470909 
L 317.172697 -2.470909 
L 316.324415 -2.470909 
L 315.476133 -2.470909 
L 314.62785 -2.470909 
L 313.779568 -2.470909 
L 312.931286 -2.470909 
L 312.083004 -2.470909 
L 311.234722 -2.470909 
L 310.38644 -2.470909 
L 309.538157 -2.470909 
L 308.689875 -2.470909 
L 307.841593 -2.470909 
L 306.993311 -2.470909 
L 306.145029 -2.470909 
L 305.296747 -2.470909 
L 304.448465 -2.470909 
L 303.600182 -2.470909 
L 302.7519 -2.470909 
L 301.903618 -2.470909 
L 301.055336 -2.470909 
L 300.207054 -2.470909 
L 299.358772 -2.470909 
L 298.51049 -2.470909 
L 297.662207 -2.470909 
L 296.813925 -2.470909 
L 295.965643 -2.470909 
L 295.117361 -2.470909 
L 294.269079 -2.470909 
L 293.420797 -2.470909 
L 292.572514 -2.470909 
L 291.724232 -2.470909 
L 290.87595 -2.470909 
L 290.027668 -2.470909 
L 289.179386 -2.470909 
L 288.331104 -2.470909 
L 287.482822 -2.470909 
L 286.634539 -2.470909 
L 285.786257 -2.470909 
L 284.937975 -2.470909 
L 284.089693 -2.470909 
L 283.241411 -2.470909 
L 282.393129 -2.470909 
L 281.544846 -2.470909 
L 280.696564 -2.470909 
L 279.848282 -2.470909 
L 279 -2.470909 
L 278.151718 -2.470909 
L 277.303436 -2.470909 
L 276.455154 -2.470909 
L 275.606871 -2.470909 
L 274.758589 -2.470909 
L 273.910307 -2.470909 
L 273.062025 -2.470909 
L 272.213743 -2.470909 
L 271.365461 -2.470909 
L 270.517178 -2.470909 
L 269.668896 -2.470909 
L 268.820614 -2.470909 
L 267.972332 -2.470909 
L 267.12405 -2.470909 
L 266.275768 -2.470909 
L 265.427486 -2.470909 
L 264.579203 -2.470909 
L 263.730921 -2.470909 
L 262.882639 -2.470909 
L 262.034357 -2.470909 
L 261.186075 -2.470909 
L 260.337793 -2.470909 
L 259.48951 -2.470909 
L 258.641228 -2.470909 
L 257.792946 -2.470909 
L 256.944664 -2.470909 
L 256.096382 -2.470909 
L 255.2481 -2.470909 
L 254.399818 -2.470909 
L 253.551535 -2.470909 
L 252.703253 -2.470909 
L 251.854971 -2.470909 
L 251.006689 -2.470909 
L 250.158407 -2.470909 
L 249.310125 -2.470909 
L 248.461843 -2.470909 
L 247.61356 -2.470909 
L 246.765278 -2.470909 
L 245.916996 -2.470909 
L 245.068714 -2.470909 
L 244.220432 -2.470909 
L 243.37215 -2.470909 
L 242.523867 -2.470909 
L 241.675585 -2.470909 
L 240.827303 -2.470909 
L 239.979021 -2.470909 
L 239.130739 -2.470909 
L 238.282457 -2.470909 
L 237.434175 -2.470909 
L 236.585892 -2.470909 
L 235.73761 -2.470909 
L 234.889328 -2.470909 
L 234.041046 -2.470909 
L 233.192764 -2.470909 
L 232.344482 -2.470909 
L 231.496199 -2.470909 
z
" style="stroke: #cf1313; stroke-opacity: 0.2"/>
    </defs>
    <g clip-path="url(#p40bd265a78)">
     <use xlink:href="#mad2b475b75" x="0" y="54.36" style="fill: #cf1313; fill-opacity: 0.2; stroke: #cf1313; stroke-opacity: 0.2"/>
    </g>
   </g>
   <g id="PolyCollection_2">
    <defs>
     <path id="m80af578b3c" d="M 370.614472 -2.470909 
L 370.614472 -4.519565 
L 371.462755 -4.681425 
L 372.311037 -4.843599 
L 373.159319 -5.005475 
L 374.007601 -5.166742 
L 374.855883 -5.32733 
L 375.704165 -5.487364 
L 376.552448 -5.647124 
L 377.40073 -5.807061 
L 378.249012 -5.967848 
L 379.097294 -6.130457 
L 379.945576 -6.29626 
L 380.793858 -6.467101 
L 381.64214 -6.64532 
L 382.490423 -6.833683 
L 383.338705 -7.035229 
L 384.186987 -7.253011 
L 385.035269 -7.489783 
L 385.883551 -7.747669 
L 386.731833 -8.027879 
L 387.580116 -8.330534 
L 388.428398 -8.654636 
L 389.27668 -8.9982 
L 390.124962 -9.358535 
L 390.973244 -9.732612 
L 391.821526 -10.117463 
L 392.669808 -10.510522 
L 393.518091 -10.909867 
L 394.366373 -11.314306 
L 395.214655 -11.723327 
L 396.062937 -12.136928 
L 396.911219 -12.555389 
L 397.759501 -12.979043 
L 398.607784 -13.408113 
L 399.456066 -13.842622 
L 400.304348 -14.282426 
L 401.15263 -14.727305 
L 402.000912 -15.177119 
L 402.849194 -15.631953 
L 403.697476 -16.09223 
L 404.545759 -16.558748 
L 405.394041 -17.032658 
L 406.242323 -17.515372 
L 407.090605 -18.008436 
L 407.938887 -18.513396 
L 408.787169 -19.031682 
L 409.635452 -19.564519 
L 410.483734 -20.112858 
L 411.332016 -20.677328 
L 412.180298 -21.258189 
L 413.02858 -21.855274 
L 413.876862 -22.467919 
L 414.725144 -23.094913 
L 415.573427 -23.734457 
L 416.421709 -24.384195 
L 417.269991 -25.041301 
L 418.118273 -25.702648 
L 418.966555 -26.36504 
L 419.814837 -27.025468 
L 420.663119 -27.681368 
L 421.511402 -28.330807 
L 422.359684 -28.972597 
L 423.207966 -29.606275 
L 424.056248 -30.231983 
L 424.90453 -30.850241 
L 425.752812 -31.461686 
L 426.601095 -32.066809 
L 427.449377 -32.665758 
L 428.297659 -33.258245 
L 429.145941 -33.843588 
L 429.994223 -34.420851 
L 430.842505 -34.989063 
L 431.690787 -35.547424 
L 432.53907 -36.09544 
L 433.387352 -36.63292 
L 434.235634 -37.159802 
L 435.083916 -37.675834 
L 435.932198 -38.18016 
L 436.78048 -38.670928 
L 437.628763 -39.145018 
L 438.477045 -39.597995 
L 439.325327 -40.024355 
L 440.173609 -40.418047 
L 441.021891 -40.773209 
L 441.870173 -41.084991 
L 442.718455 -41.350301 
L 443.566738 -41.568321 
L 444.41502 -41.740684 
L 445.263302 -41.871262 
L 446.111584 -41.965613 
L 446.959866 -42.030192 
L 447.808148 -42.071493 
L 448.656431 -42.095285 
L 449.504713 -42.106079 
L 450.352995 -42.1069 
L 451.201277 -42.099348 
L 452.049559 -42.083885 
L 452.897841 -42.060225 
L 453.746123 -42.027697 
L 454.594406 -41.985493 
L 455.442688 -41.932738 
L 456.29097 -41.868416 
L 457.139252 -41.791194 
L 457.987534 -41.699249 
L 458.835816 -41.590176 
L 459.684099 -41.461035 
L 460.532381 -41.30855 
L 461.380663 -41.129434 
L 462.228945 -40.920759 
L 463.077227 -40.680298 
L 463.925509 -40.406768 
L 464.773791 -40.099911 
L 465.622074 -39.760408 
L 466.470356 -39.389653 
L 467.318638 -38.989424 
L 468.16692 -38.561523 
L 469.015202 -38.10745 
L 469.863484 -37.628166 
L 470.711766 -37.123986 
L 471.560049 -36.594611 
L 472.408331 -36.0393 
L 473.256613 -35.457164 
L 474.104895 -34.847519 
L 474.953177 -34.21028 
L 475.801459 -33.546304 
L 476.649742 -32.85766 
L 477.498024 -32.147751 
L 478.346306 -31.421288 
L 479.194588 -30.68408 
L 480.04287 -29.94268 
L 480.891152 -29.203913 
L 481.739434 -28.474335 
L 482.587717 -27.759714 
L 483.435999 -27.064567 
L 484.284281 -26.391829 
L 485.132563 -25.742696 
L 485.980845 -25.116643 
L 486.829127 -24.511641 
L 487.67741 -23.924517 
L 488.525692 -23.35142 
L 489.373974 -22.788336 
L 490.222256 -22.231572 
L 491.070538 -21.678142 
L 491.91882 -21.126022 
L 492.767102 -20.574238 
L 493.615385 -20.022791 
L 494.463667 -19.472469 
L 495.311949 -18.924578 
L 496.160231 -18.380674 
L 497.008513 -17.842335 
L 497.856795 -17.311008 
L 498.705078 -16.787951 
L 499.55336 -16.274235 
L 500.401642 -15.770785 
L 501.249924 -15.278423 
L 502.098206 -14.797879 
L 502.946488 -14.329761 
L 503.79477 -13.874486 
L 504.643053 -13.432209 
L 505.491335 -13.002763 
L 506.339617 -12.585657 
L 507.187899 -12.180131 
L 508.036181 -11.785285 
L 508.884463 -11.40024 
L 509.732746 -11.02432 
L 510.581028 -10.657199 
L 511.42931 -10.298986 
L 512.277592 -9.950224 
L 513.125874 -9.611808 
L 513.974156 -9.284818 
L 514.822438 -8.970331 
L 515.670721 -8.669215 
L 516.519003 -8.381974 
L 517.367285 -8.10865 
L 518.215567 -7.848807 
L 519.063849 -7.60159 
L 519.912131 -7.365831 
L 520.760413 -7.140199 
L 521.608696 -6.923343 
L 522.456978 -6.714028 
L 523.30526 -6.511224 
L 524.153542 -6.31417 
L 525.001824 -6.122378 
L 525.850106 -5.935618 
L 526.698389 -5.753864 
L 527.546671 -5.577228 
L 528.394953 -5.405887 
L 529.243235 -5.240013 
L 530.091517 -5.079723 
L 530.939799 -4.925041 
L 531.788081 -4.775886 
L 532.636364 -4.63208 
L 532.636364 -2.470909 
L 532.636364 -2.470909 
L 531.788081 -2.470909 
L 530.939799 -2.470909 
L 530.091517 -2.470909 
L 529.243235 -2.470909 
L 528.394953 -2.470909 
L 527.546671 -2.470909 
L 526.698389 -2.470909 
L 525.850106 -2.470909 
L 525.001824 -2.470909 
L 524.153542 -2.470909 
L 523.30526 -2.470909 
L 522.456978 -2.470909 
L 521.608696 -2.470909 
L 520.760413 -2.470909 
L 519.912131 -2.470909 
L 519.063849 -2.470909 
L 518.215567 -2.470909 
L 517.367285 -2.470909 
L 516.519003 -2.470909 
L 515.670721 -2.470909 
L 514.822438 -2.470909 
L 513.974156 -2.470909 
L 513.125874 -2.470909 
L 512.277592 -2.470909 
L 511.42931 -2.470909 
L 510.581028 -2.470909 
L 509.732746 -2.470909 
L 508.884463 -2.470909 
L 508.036181 -2.470909 
L 507.187899 -2.470909 
L 506.339617 -2.470909 
L 505.491335 -2.470909 
L 504.643053 -2.470909 
L 503.79477 -2.470909 
L 502.946488 -2.470909 
L 502.098206 -2.470909 
L 501.249924 -2.470909 
L 500.401642 -2.470909 
L 499.55336 -2.470909 
L 498.705078 -2.470909 
L 497.856795 -2.470909 
L 497.008513 -2.470909 
L 496.160231 -2.470909 
L 495.311949 -2.470909 
L 494.463667 -2.470909 
L 493.615385 -2.470909 
L 492.767102 -2.470909 
L 491.91882 -2.470909 
L 491.070538 -2.470909 
L 490.222256 -2.470909 
L 489.373974 -2.470909 
L 488.525692 -2.470909 
L 487.67741 -2.470909 
L 486.829127 -2.470909 
L 485.980845 -2.470909 
L 485.132563 -2.470909 
L 484.284281 -2.470909 
L 483.435999 -2.470909 
L 482.587717 -2.470909 
L 481.739434 -2.470909 
L 480.891152 -2.470909 
L 480.04287 -2.470909 
L 479.194588 -2.470909 
L 478.346306 -2.470909 
L 477.498024 -2.470909 
L 476.649742 -2.470909 
L 475.801459 -2.470909 
L 474.953177 -2.470909 
L 474.104895 -2.470909 
L 473.256613 -2.470909 
L 472.408331 -2.470909 
L 471.560049 -2.470909 
L 470.711766 -2.470909 
L 469.863484 -2.470909 
L 469.015202 -2.470909 
L 468.16692 -2.470909 
L 467.318638 -2.470909 
L 466.470356 -2.470909 
L 465.622074 -2.470909 
L 464.773791 -2.470909 
L 463.925509 -2.470909 
L 463.077227 -2.470909 
L 462.228945 -2.470909 
L 461.380663 -2.470909 
L 460.532381 -2.470909 
L 459.684099 -2.470909 
L 458.835816 -2.470909 
L 457.987534 -2.470909 
L 457.139252 -2.470909 
L 456.29097 -2.470909 
L 455.442688 -2.470909 
L 454.594406 -2.470909 
L 453.746123 -2.470909 
L 452.897841 -2.470909 
L 452.049559 -2.470909 
L 451.201277 -2.470909 
L 450.352995 -2.470909 
L 449.504713 -2.470909 
L 448.656431 -2.470909 
L 447.808148 -2.470909 
L 446.959866 -2.470909 
L 446.111584 -2.470909 
L 445.263302 -2.470909 
L 444.41502 -2.470909 
L 443.566738 -2.470909 
L 442.718455 -2.470909 
L 441.870173 -2.470909 
L 441.021891 -2.470909 
L 440.173609 -2.470909 
L 439.325327 -2.470909 
L 438.477045 -2.470909 
L 437.628763 -2.470909 
L 436.78048 -2.470909 
L 435.932198 -2.470909 
L 435.083916 -2.470909 
L 434.235634 -2.470909 
L 433.387352 -2.470909 
L 432.53907 -2.470909 
L 431.690787 -2.470909 
L 430.842505 -2.470909 
L 429.994223 -2.470909 
L 429.145941 -2.470909 
L 428.297659 -2.470909 
L 427.449377 -2.470909 
L 426.601095 -2.470909 
L 425.752812 -2.470909 
L 424.90453 -2.470909 
L 424.056248 -2.470909 
L 423.207966 -2.470909 
L 422.359684 -2.470909 
L 421.511402 -2.470909 
L 420.663119 -2.470909 
L 419.814837 -2.470909 
L 418.966555 -2.470909 
L 418.118273 -2.470909 
L 417.269991 -2.470909 
L 416.421709 -2.470909 
L 415.573427 -2.470909 
L 414.725144 -2.470909 
L 413.876862 -2.470909 
L 413.02858 -2.470909 
L 412.180298 -2.470909 
L 411.332016 -2.470909 
L 410.483734 -2.470909 
L 409.635452 -2.470909 
L 408.787169 -2.470909 
L 407.938887 -2.470909 
L 407.090605 -2.470909 
L 406.242323 -2.470909 
L 405.394041 -2.470909 
L 404.545759 -2.470909 
L 403.697476 -2.470909 
L 402.849194 -2.470909 
L 402.000912 -2.470909 
L 401.15263 -2.470909 
L 400.304348 -2.470909 
L 399.456066 -2.470909 
L 398.607784 -2.470909 
L 397.759501 -2.470909 
L 396.911219 -2.470909 
L 396.062937 -2.470909 
L 395.214655 -2.470909 
L 394.366373 -2.470909 
L 393.518091 -2.470909 
L 392.669808 -2.470909 
L 391.821526 -2.470909 
L 390.973244 -2.470909 
L 390.124962 -2.470909 
L 389.27668 -2.470909 
L 388.428398 -2.470909 
L 387.580116 -2.470909 
L 386.731833 -2.470909 
L 385.883551 -2.470909 
L 385.035269 -2.470909 
L 384.186987 -2.470909 
L 383.338705 -2.470909 
L 382.490423 -2.470909 
L 381.64214 -2.470909 
L 380.793858 -2.470909 
L 379.945576 -2.470909 
L 379.097294 -2.470909 
L 378.249012 -2.470909 
L 377.40073 -2.470909 
L 376.552448 -2.470909 
L 375.704165 -2.470909 
L 374.855883 -2.470909 
L 374.007601 -2.470909 
L 373.159319 -2.470909 
L 372.311037 -2.470909 
L 371.462755 -2.470909 
L 370.614472 -2.470909 
z
" style="stroke: #116dc2; stroke-opacity: 0.2"/>
    </defs>
    <g clip-path="url(#p40bd265a78)">
     <use xlink:href="#m80af578b3c" x="0" y="54.36" style="fill: #116dc2; fill-opacity: 0.2; stroke: #116dc2; stroke-opacity: 0.2"/>
    </g>
   </g>
   <g id="PolyCollection_3">
    <defs>
     <path id="m701aab8256" d="M 25.363636 -2.470909 
L 25.363636 -4.601205 
L 26.211919 -5.050768 
L 27.060201 -5.680885 
L 27.908483 -6.49169 
L 28.756765 -7.419585 
L 29.605047 -8.391319 
L 30.453329 -9.38547 
L 31.301611 -10.454387 
L 32.149894 -11.693308 
L 32.998176 -13.163785 
L 33.846458 -14.829846 
L 34.69474 -16.580289 
L 35.543022 -18.319007 
L 36.391304 -20.02726 
L 37.239587 -21.743267 
L 38.087869 -23.504059 
L 38.936151 -25.338177 
L 39.784433 -27.314192 
L 40.632715 -29.537694 
L 41.480997 -32.054849 
L 42.329279 -34.78589 
L 43.177562 -37.574021 
L 44.025844 -40.259854 
L 44.874126 -42.714978 
L 45.722408 -44.886651 
L 46.57069 -46.821005 
L 47.418972 -48.566339 
L 48.267254 -50.049024 
L 49.115537 -51.114075 
L 49.963819 -51.695023 
L 50.812101 -51.889091 
L 51.660383 -51.855293 
L 52.508665 -51.684193 
L 53.356947 -51.387831 
L 54.20523 -50.962812 
L 55.053512 -50.384899 
L 55.901794 -49.556943 
L 56.750076 -48.371658 
L 57.598358 -46.86453 
L 58.44664 -45.214356 
L 59.294922 -43.52545 
L 60.143205 -41.668608 
L 60.991487 -39.425276 
L 61.839769 -36.77296 
L 62.688051 -33.949943 
L 63.536333 -31.237478 
L 64.384615 -28.748354 
L 65.232898 -26.437215 
L 66.08118 -24.243959 
L 66.929462 -22.182197 
L 67.777744 -20.310565 
L 68.626026 -18.646754 
L 69.474308 -17.118851 
L 70.32259 -15.607233 
L 71.170873 -14.03837 
L 72.019155 -12.440334 
L 72.867437 -10.91794 
L 73.715719 -9.581337 
L 74.564001 -8.480137 
L 75.412283 -7.580982 
L 76.260566 -6.80747 
L 77.108848 -6.107849 
L 77.95713 -5.480382 
L 78.805412 -4.942916 
L 78.805412 -2.470909 
L 78.805412 -2.470909 
L 77.95713 -2.470909 
L 77.108848 -2.470909 
L 76.260566 -2.470909 
L 75.412283 -2.470909 
L 74.564001 -2.470909 
L 73.715719 -2.470909 
L 72.867437 -2.470909 
L 72.019155 -2.470909 
L 71.170873 -2.470909 
L 70.32259 -2.470909 
L 69.474308 -2.470909 
L 68.626026 -2.470909 
L 67.777744 -2.470909 
L 66.929462 -2.470909 
L 66.08118 -2.470909 
L 65.232898 -2.470909 
L 64.384615 -2.470909 
L 63.536333 -2.470909 
L 62.688051 -2.470909 
L 61.839769 -2.470909 
L 60.991487 -2.470909 
L 60.143205 -2.470909 
L 59.294922 -2.470909 
L 58.44664 -2.470909 
L 57.598358 -2.470909 
L 56.750076 -2.470909 
L 55.901794 -2.470909 
L 55.053512 -2.470909 
L 54.20523 -2.470909 
L 53.356947 -2.470909 
L 52.508665 -2.470909 
L 51.660383 -2.470909 
L 50.812101 -2.470909 
L 49.963819 -2.470909 
L 49.115537 -2.470909 
L 48.267254 -2.470909 
L 47.418972 -2.470909 
L 46.57069 -2.470909 
L 45.722408 -2.470909 
L 44.874126 -2.470909 
L 44.025844 -2.470909 
L 43.177562 -2.470909 
L 42.329279 -2.470909 
L 41.480997 -2.470909 
L 40.632715 -2.470909 
L 39.784433 -2.470909 
L 38.936151 -2.470909 
L 38.087869 -2.470909 
L 37.239587 -2.470909 
L 36.391304 -2.470909 
L 35.543022 -2.470909 
L 34.69474 -2.470909 
L 33.846458 -2.470909 
L 32.998176 -2.470909 
L 32.149894 -2.470909 
L 31.301611 -2.470909 
L 30.453329 -2.470909 
L 29.605047 -2.470909 
L 28.756765 -2.470909 
L 27.908483 -2.470909 
L 27.060201 -2.470909 
L 26.211919 -2.470909 
L 25.363636 -2.470909 
z
" style="stroke: #8a8a8a; stroke-opacity: 0.2"/>
    </defs>
    <g clip-path="url(#p40bd265a78)">
     <use xlink:href="#m701aab8256" x="0" y="54.36" style="fill: #8a8a8a; fill-opacity: 0.2; stroke: #8a8a8a; stroke-opacity: 0.2"/>
    </g>
   </g>
   <g id="line2d_1">
    <path d="M 231.496199 50.315083 
L 234.889328 49.584252 
L 239.979021 48.250434 
L 243.37215 47.167745 
L 245.916996 46.136871 
L 248.461843 44.867314 
L 251.006689 43.376306 
L 255.2481 40.582685 
L 262.882639 35.348711 
L 265.427486 33.187084 
L 268.820614 29.876963 
L 273.062025 25.820625 
L 276.455154 22.544812 
L 283.241411 15.672266 
L 284.937975 14.25364 
L 286.634539 13.122149 
L 288.331104 12.310786 
L 290.027668 11.756974 
L 295.117361 10.517254 
L 296.813925 10.23217 
L 298.51049 10.195673 
L 300.207054 10.480906 
L 301.903618 11.070866 
L 303.600182 11.895273 
L 306.145029 13.424805 
L 309.538157 15.802372 
L 316.324415 20.933034 
L 322.26239 25.734242 
L 326.503801 29.379919 
L 329.896929 32.621183 
L 334.13834 36.713657 
L 336.683186 38.83417 
L 339.228033 40.6851 
L 341.772879 42.321388 
L 345.166008 44.199543 
L 348.559137 45.811329 
L 351.952265 47.172977 
L 356.193676 48.584411 
L 360.435087 49.796122 
L 361.283369 50.002265 
L 361.283369 50.002265 
" clip-path="url(#p40bd265a78)" style="fill: none; stroke: #cf1313; stroke-width: 1.5; stroke-linecap: square"/>
   </g>
   <g id="line2d_2">
    <path d="M 370.614472 49.840435 
L 383.338705 47.324771 
L 385.883551 46.612331 
L 388.428398 45.705364 
L 391.821526 44.242537 
L 397.759501 41.380957 
L 403.697476 38.26777 
L 407.938887 35.846604 
L 411.332016 33.682672 
L 414.725144 31.265087 
L 429.145941 20.516412 
L 433.387352 17.72708 
L 437.628763 15.214982 
L 440.173609 13.941953 
L 441.870173 13.275009 
L 443.566738 12.791679 
L 445.263302 12.488738 
L 447.808148 12.288507 
L 452.049559 12.276115 
L 456.29097 12.491584 
L 459.684099 12.898965 
L 462.228945 13.439241 
L 464.773791 14.260089 
L 467.318638 15.370576 
L 469.863484 16.731834 
L 472.408331 18.3207 
L 474.953177 20.14972 
L 478.346306 22.938712 
L 484.284281 27.968171 
L 487.67741 30.435483 
L 494.463667 34.887531 
L 499.55336 38.085765 
L 503.79477 40.485514 
L 508.036181 42.574715 
L 512.277592 44.409776 
L 515.670721 45.690785 
L 519.063849 46.75841 
L 523.30526 47.848776 
L 529.243235 49.119987 
L 532.636364 49.72792 
L 532.636364 49.72792 
" clip-path="url(#p40bd265a78)" style="fill: none; stroke: #116dc2; stroke-width: 1.5; stroke-linecap: square"/>
   </g>
   <g id="line2d_3">
    <path d="M 25.363636 49.758795 
L 26.211919 49.309232 
L 27.060201 48.679115 
L 27.908483 47.86831 
L 28.756765 46.940415 
L 29.605047 45.968681 
L 30.453329 44.97453 
L 31.301611 43.905613 
L 32.149894 42.666692 
L 32.998176 41.196215 
L 33.846458 39.530154 
L 34.69474 37.779711 
L 35.543022 36.040993 
L 36.391304 34.33274 
L 37.239587 32.616733 
L 38.087869 30.855941 
L 38.936151 29.021823 
L 39.784433 27.045808 
L 40.632715 24.822306 
L 41.480997 22.305151 
L 42.329279 19.57411 
L 43.177562 16.785979 
L 44.025844 14.100146 
L 44.874126 11.645022 
L 45.722408 9.473349 
L 46.57069 7.538995 
L 47.418972 5.793661 
L 48.267254 4.310976 
L 49.115537 3.245925 
L 49.963819 2.664977 
L 50.812101 2.470909 
L 51.660383 2.504707 
L 52.508665 2.675807 
L 53.356947 2.972169 
L 54.20523 3.397188 
L 55.053512 3.975101 
L 55.901794 4.803057 
L 56.750076 5.988342 
L 57.598358 7.49547 
L 58.44664 9.145644 
L 59.294922 10.83455 
L 60.143205 12.691392 
L 60.991487 14.934724 
L 61.839769 17.58704 
L 62.688051 20.410057 
L 63.536333 23.122522 
L 64.384615 25.611646 
L 65.232898 27.922785 
L 66.08118 30.116041 
L 66.929462 32.177803 
L 67.777744 34.049435 
L 68.626026 35.713246 
L 69.474308 37.241149 
L 70.32259 38.752767 
L 71.170873 40.32163 
L 72.019155 41.919666 
L 72.867437 43.44206 
L 73.715719 44.778663 
L 74.564001 45.879863 
L 75.412283 46.779018 
L 76.260566 47.55253 
L 77.108848 48.252151 
L 77.95713 48.879618 
L 78.805412 49.417084 
" clip-path="url(#p40bd265a78)" style="fill: none; stroke: #8a8a8a; stroke-width: 1.5; stroke-linecap: square"/>
   </g>
  </g>
 </g>
 <defs>
  <clipPath id="p40bd265a78">
   <rect x="0" y="-0" width="558" height="54.36"/>
  </clipPath>
 </defs>
</svg>
