<?xml version="1.0" encoding="utf-8" standalone="no"?>
<!DOCTYPE svg PUBLIC "-//W3C//DTD SVG 1.1//EN"
  "http://www.w3.org/Graphics/SVG/1.1/DTD/svg11.dtd">
<svg xmlns:xlink="http://www.w3.org/1999/xlink" width="558pt" height="54.36pt" viewBox="0 0 558 54.36" xmlns="http://www.w3.org/2000/svg" version="1.1">
 <metadata>
  <rdf:RDF xmlns:dc="http://purl.org/dc/elements/1.1/" xmlns:cc="http://creativecommons.org/ns#" xmlns:rdf="http://www.w3.org/1999/02/22-rdf-syntax-ns#">
   <cc:Work>
    <dc:type rdf:resource="http://purl.org/dc/dcmitype/StillImage"/>
    <dc:date>2024-09-15T09:31:44.921870</dc:date>
    <dc:format>image/svg+xml</dc:format>
    <dc:creator>
     <cc:Agent>
      <dc:title>Matplotlib v3.5.2, https://matplotlib.org/</dc:title>
     </cc:Agent>
    </dc:creator>
   </cc:Work>
  </rdf:RDF>
 </metadata>
 <defs>
  <style type="text/css">*{stroke-linejoin: round; stroke-linecap: butt}</style>
 </defs>
 <g id="figure_1">
  <g id="patch_1">
   <path d="M 0 54.36 
L 558 54.36 
L 558 0 
L 0 0 
L 0 54.36 
z
" style="fill: none; opacity: 0"/>
  </g>
  <g id="axes_1">
   <g id="PolyCollection_1">
    <defs>
     <path id="m2b6078e307" d="M 231.311299 -2.470909 
L 231.311299 -4.16904 
L 232.155347 -4.31138 
L 232.999395 -4.470743 
L 233.843443 -4.650561 
L 234.687491 -4.852179 
L 235.531538 -5.074343 
L 236.375586 -5.313291 
L 237.219634 -5.563477 
L 238.063682 -5.818751 
L 238.90773 -6.0737 
L 239.751777 -6.324805 
L 240.595825 -6.571147 
L 241.439873 -6.814547 
L 242.283921 -7.0592 
L 243.127969 -7.310998 
L 243.972016 -7.576781 
L 244.816064 -7.863666 
L 245.660112 -8.178512 
L 246.50416 -8.527447 
L 247.348208 -8.915396 
L 248.192255 -9.345571 
L 249.036303 -9.819034 
L 249.880351 -10.334494 
L 250.724399 -10.888532 
L 251.568447 -11.47628 
L 252.412494 -12.09245 
L 253.256542 -12.732417 
L 254.10059 -13.392998 
L 254.944638 -14.072653 
L 255.788686 -14.771009 
L 256.632733 -15.487869 
L 257.476781 -16.222087 
L 258.320829 -16.970773 
L 259.164877 -17.729205 
L 260.008925 -18.4916 
L 260.852972 -19.252542 
L 261.69702 -20.008636 
L 262.541068 -20.759775 
L 263.385116 -21.50956 
L 264.229164 -22.264649 
L 265.073211 -23.033188 
L 265.917259 -23.822781 
L 266.761307 -24.638584 
L 267.605355 -25.482032 
L 268.449403 -26.350521 
L 269.29345 -27.238022 
L 270.137498 -28.136398 
L 270.981546 -29.037024 
L 271.825594 -29.932269 
L 272.669642 -30.816505 
L 273.513689 -31.68642 
L 274.357737 -32.54064 
L 275.201785 -33.37882 
L 276.045833 -34.200545 
L 276.889881 -35.004394 
L 277.733928 -35.787511 
L 278.577976 -36.545823 
L 279.422024 -37.274866 
L 280.266072 -37.970966 
L 281.110119 -38.632389 
L 281.954167 -39.260097 
L 282.798215 -39.857824 
L 283.642263 -40.431376 
L 284.486311 -40.987224 
L 285.330358 -41.530633 
L 286.174406 -42.063672 
L 287.018454 -42.583517 
L 287.862502 -43.081481 
L 288.70655 -43.543141 
L 289.550597 -43.949752 
L 290.394645 -44.28092 
L 291.238693 -44.518121 
L 292.082741 -44.648381 
L 292.926789 -44.667274 
L 293.770836 -44.580467 
L 294.614884 -44.403382 
L 295.458932 -44.158994 
L 296.30298 -43.874235 
L 297.147028 -43.575748 
L 297.991075 -43.28579 
L 298.835123 -43.018969 
L 299.679171 -42.780297 
L 300.523219 -42.564755 
L 301.367267 -42.358412 
L 302.211314 -42.140836 
L 303.055362 -41.888407 
L 303.89941 -41.577931 
L 304.743458 -41.189946 
L 305.587506 -40.711187 
L 306.431553 -40.135919 
L 307.275601 -39.466121 
L 308.119649 -38.710714 
L 308.963697 -37.884181 
L 309.807745 -37.004828 
L 310.651792 -36.092895 
L 311.49584 -35.168592 
L 312.339888 -34.25014 
L 313.183936 -33.351995 
L 314.027984 -32.483502 
L 314.872031 -31.648314 
L 315.716079 -30.844757 
L 316.560127 -30.067118 
L 317.404175 -29.307531 
L 318.248223 -28.557965 
L 319.09227 -27.811813 
L 319.936318 -27.06477 
L 320.780366 -26.314961 
L 321.624414 -25.562526 
L 322.468462 -24.808957 
L 323.312509 -24.056441 
L 324.156557 -23.307315 
L 325.000605 -22.56365 
L 325.844653 -21.826913 
L 326.688701 -21.097726 
L 327.532748 -20.37578 
L 328.376796 -19.659953 
L 329.220844 -18.948693 
L 330.064892 -18.240596 
L 330.90894 -17.535069 
L 331.752987 -16.832938 
L 332.597035 -16.136825 
L 333.441083 -15.451191 
L 334.285131 -14.781931 
L 335.129179 -14.135544 
L 335.973226 -13.517964 
L 336.817274 -12.933337 
L 337.661322 -12.383044 
L 338.50537 -11.865319 
L 339.349418 -11.375608 
L 340.193465 -10.907631 
L 341.037513 -10.454845 
L 341.881561 -10.011902 
L 342.725609 -9.575695 
L 343.569657 -9.145751 
L 344.413704 -8.723938 
L 345.257752 -8.313667 
L 346.1018 -7.918856 
L 346.945848 -7.542987 
L 347.789896 -7.18844 
L 348.633943 -6.856236 
L 349.477991 -6.546139 
L 350.322039 -6.257013 
L 351.166087 -5.987267 
L 352.010135 -5.735239 
L 352.854182 -5.499427 
L 353.69823 -5.278521 
L 354.542278 -5.071293 
L 355.386326 -4.87643 
L 356.230374 -4.692419 
L 357.074421 -4.517568 
L 357.918469 -4.350177 
L 357.918469 -2.470909 
L 357.918469 -2.470909 
L 357.074421 -2.470909 
L 356.230374 -2.470909 
L 355.386326 -2.470909 
L 354.542278 -2.470909 
L 353.69823 -2.470909 
L 352.854182 -2.470909 
L 352.010135 -2.470909 
L 351.166087 -2.470909 
L 350.322039 -2.470909 
L 349.477991 -2.470909 
L 348.633943 -2.470909 
L 347.789896 -2.470909 
L 346.945848 -2.470909 
L 346.1018 -2.470909 
L 345.257752 -2.470909 
L 344.413704 -2.470909 
L 343.569657 -2.470909 
L 342.725609 -2.470909 
L 341.881561 -2.470909 
L 341.037513 -2.470909 
L 340.193465 -2.470909 
L 339.349418 -2.470909 
L 338.50537 -2.470909 
L 337.661322 -2.470909 
L 336.817274 -2.470909 
L 335.973226 -2.470909 
L 335.129179 -2.470909 
L 334.285131 -2.470909 
L 333.441083 -2.470909 
L 332.597035 -2.470909 
L 331.752987 -2.470909 
L 330.90894 -2.470909 
L 330.064892 -2.470909 
L 329.220844 -2.470909 
L 328.376796 -2.470909 
L 327.532748 -2.470909 
L 326.688701 -2.470909 
L 325.844653 -2.470909 
L 325.000605 -2.470909 
L 324.156557 -2.470909 
L 323.312509 -2.470909 
L 322.468462 -2.470909 
L 321.624414 -2.470909 
L 320.780366 -2.470909 
L 319.936318 -2.470909 
L 319.09227 -2.470909 
L 318.248223 -2.470909 
L 317.404175 -2.470909 
L 316.560127 -2.470909 
L 315.716079 -2.470909 
L 314.872031 -2.470909 
L 314.027984 -2.470909 
L 313.183936 -2.470909 
L 312.339888 -2.470909 
L 311.49584 -2.470909 
L 310.651792 -2.470909 
L 309.807745 -2.470909 
L 308.963697 -2.470909 
L 308.119649 -2.470909 
L 307.275601 -2.470909 
L 306.431553 -2.470909 
L 305.587506 -2.470909 
L 304.743458 -2.470909 
L 303.89941 -2.470909 
L 303.055362 -2.470909 
L 302.211314 -2.470909 
L 301.367267 -2.470909 
L 300.523219 -2.470909 
L 299.679171 -2.470909 
L 298.835123 -2.470909 
L 297.991075 -2.470909 
L 297.147028 -2.470909 
L 296.30298 -2.470909 
L 295.458932 -2.470909 
L 294.614884 -2.470909 
L 293.770836 -2.470909 
L 292.926789 -2.470909 
L 292.082741 -2.470909 
L 291.238693 -2.470909 
L 290.394645 -2.470909 
L 289.550597 -2.470909 
L 288.70655 -2.470909 
L 287.862502 -2.470909 
L 287.018454 -2.470909 
L 286.174406 -2.470909 
L 285.330358 -2.470909 
L 284.486311 -2.470909 
L 283.642263 -2.470909 
L 282.798215 -2.470909 
L 281.954167 -2.470909 
L 281.110119 -2.470909 
L 280.266072 -2.470909 
L 279.422024 -2.470909 
L 278.577976 -2.470909 
L 277.733928 -2.470909 
L 276.889881 -2.470909 
L 276.045833 -2.470909 
L 275.201785 -2.470909 
L 274.357737 -2.470909 
L 273.513689 -2.470909 
L 272.669642 -2.470909 
L 271.825594 -2.470909 
L 270.981546 -2.470909 
L 270.137498 -2.470909 
L 269.29345 -2.470909 
L 268.449403 -2.470909 
L 267.605355 -2.470909 
L 266.761307 -2.470909 
L 265.917259 -2.470909 
L 265.073211 -2.470909 
L 264.229164 -2.470909 
L 263.385116 -2.470909 
L 262.541068 -2.470909 
L 261.69702 -2.470909 
L 260.852972 -2.470909 
L 260.008925 -2.470909 
L 259.164877 -2.470909 
L 258.320829 -2.470909 
L 257.476781 -2.470909 
L 256.632733 -2.470909 
L 255.788686 -2.470909 
L 254.944638 -2.470909 
L 254.10059 -2.470909 
L 253.256542 -2.470909 
L 252.412494 -2.470909 
L 251.568447 -2.470909 
L 250.724399 -2.470909 
L 249.880351 -2.470909 
L 249.036303 -2.470909 
L 248.192255 -2.470909 
L 247.348208 -2.470909 
L 246.50416 -2.470909 
L 245.660112 -2.470909 
L 244.816064 -2.470909 
L 243.972016 -2.470909 
L 243.127969 -2.470909 
L 242.283921 -2.470909 
L 241.439873 -2.470909 
L 240.595825 -2.470909 
L 239.751777 -2.470909 
L 238.90773 -2.470909 
L 238.063682 -2.470909 
L 237.219634 -2.470909 
L 236.375586 -2.470909 
L 235.531538 -2.470909 
L 234.687491 -2.470909 
L 233.843443 -2.470909 
L 232.999395 -2.470909 
L 232.155347 -2.470909 
L 231.311299 -2.470909 
z
" style="stroke: #cf1313; stroke-opacity: 0.2"/>
    </defs>
    <g clip-path="url(#pb6776d79f5)">
     <use xlink:href="#m2b6078e307" x="0" y="54.36" style="fill: #cf1313; fill-opacity: 0.2; stroke: #cf1313; stroke-opacity: 0.2"/>
    </g>
   </g>
   <g id="PolyCollection_2">
    <defs>
     <path id="mcb2626383b" d="M 369.735138 -2.470909 
L 369.735138 -4.273554 
L 370.579186 -4.398121 
L 371.423234 -4.525273 
L 372.267282 -4.655422 
L 373.11133 -4.789517 
L 373.955377 -4.928978 
L 374.799425 -5.075554 
L 375.643473 -5.231118 
L 376.487521 -5.397453 
L 377.331569 -5.576064 
L 378.175616 -5.768062 
L 379.019664 -5.974134 
L 379.863712 -6.194611 
L 380.70776 -6.429609 
L 381.551808 -6.67919 
L 382.395855 -6.943509 
L 383.239903 -7.222885 
L 384.083951 -7.517784 
L 384.927999 -7.828699 
L 385.772047 -8.15597 
L 386.616094 -8.499572 
L 387.460142 -8.858957 
L 388.30419 -9.232982 
L 389.148238 -9.619957 
L 389.992286 -10.017834 
L 390.836333 -10.424482 
L 391.680381 -10.838004 
L 392.524429 -11.257044 
L 393.368477 -11.680994 
L 394.212525 -12.110085 
L 395.056572 -12.545327 
L 395.90062 -12.988318 
L 396.744668 -13.440943 
L 397.588716 -13.905031 
L 398.432764 -14.382003 
L 399.276811 -14.872574 
L 400.120859 -15.376555 
L 400.964907 -15.892778 
L 401.808955 -16.419164 
L 402.653003 -16.952925 
L 403.49705 -17.490882 
L 404.341098 -18.029847 
L 405.185146 -18.567012 
L 406.029194 -19.100289 
L 406.873242 -19.628517 
L 407.717289 -20.151519 
L 408.561337 -20.669991 
L 409.405385 -21.185236 
L 410.249433 -21.698827 
L 411.093481 -22.212261 
L 411.937528 -22.726699 
L 412.781576 -23.242863 
L 413.625624 -23.761113 
L 414.469672 -24.281688 
L 415.31372 -24.805057 
L 416.157767 -25.332271 
L 417.001815 -25.865209 
L 417.845863 -26.406637 
L 418.689911 -26.960003 
L 419.533959 -27.529011 
L 420.378006 -28.116997 
L 421.222054 -28.726252 
L 422.066102 -29.357412 
L 422.91015 -30.009036 
L 423.754198 -30.677479 
L 424.598245 -31.357091 
L 425.442293 -32.040704 
L 426.286341 -32.720343 
L 427.130389 -33.388024 
L 427.974437 -34.036519 
L 428.818484 -34.659967 
L 429.662532 -35.254252 
L 430.50658 -35.817119 
L 431.350628 -36.348046 
L 432.194676 -36.847942 
L 433.038723 -37.318742 
L 433.882771 -37.762997 
L 434.726819 -38.183528 
L 435.570867 -38.583169 
L 436.414915 -38.964612 
L 437.258962 -39.33031 
L 438.10301 -39.682395 
L 438.947058 -40.022555 
L 439.791106 -40.351853 
L 440.635154 -40.670483 
L 441.479201 -40.977508 
L 442.323249 -41.270648 
L 443.167297 -41.546184 
L 444.011345 -41.799044 
L 444.855393 -42.023102 
L 445.69944 -42.211682 
L 446.543488 -42.358201 
L 447.387536 -42.456891 
L 448.231584 -42.503476 
L 449.075632 -42.495732 
L 449.919679 -42.433849 
L 450.763727 -42.320546 
L 451.607775 -42.160943 
L 452.451823 -41.962205 
L 453.295871 -41.732991 
L 454.139918 -41.482776 
L 454.983966 -41.221115 
L 455.828014 -40.956888 
L 456.672062 -40.697609 
L 457.51611 -40.448849 
L 458.360157 -40.2138 
L 459.204205 -39.99303 
L 460.048253 -39.784446 
L 460.892301 -39.583465 
L 461.736349 -39.383403 
L 462.580396 -39.176055 
L 463.424444 -38.952427 
L 464.268492 -38.703581 
L 465.11254 -38.42149 
L 465.956588 -38.099818 
L 466.800635 -37.734507 
L 467.644683 -37.324083 
L 468.488731 -36.869596 
L 469.332779 -36.374204 
L 470.176827 -35.842438 
L 471.020874 -35.279299 
L 471.864922 -34.689333 
L 472.70897 -34.075894 
L 473.553018 -33.440734 
L 474.397065 -32.784023 
L 475.241113 -32.104776 
L 476.085161 -31.401609 
L 476.929209 -30.673645 
L 477.773257 -29.921366 
L 478.617304 -29.147252 
L 479.461352 -28.356049 
L 480.3054 -27.554659 
L 481.149448 -26.751663 
L 481.993496 -25.956601 
L 482.837543 -25.179156 
L 483.681591 -24.428351 
L 484.525639 -23.711897 
L 485.369687 -23.035719 
L 486.213735 -22.403677 
L 487.057782 -21.817448 
L 487.90183 -21.276531 
L 488.745878 -20.778326 
L 489.589926 -20.318295 
L 490.433974 -19.89019 
L 491.278021 -19.486379 
L 492.122069 -19.098287 
L 492.966117 -18.716949 
L 493.810165 -18.333652 
L 494.654213 -17.940603 
L 495.49826 -17.531547 
L 496.342308 -17.102257 
L 497.186356 -16.650828 
L 498.030404 -16.177722 
L 498.874452 -15.685578 
L 499.718499 -15.178798 
L 500.562547 -14.66299 
L 501.406595 -14.144336 
L 502.250643 -13.628975 
L 503.094691 -13.122473 
L 503.938738 -12.62943 
L 504.782786 -12.153242 
L 505.626834 -11.696036 
L 506.470882 -11.258728 
L 507.31493 -10.841186 
L 508.158977 -10.442451 
L 509.003025 -10.060978 
L 509.847073 -9.694882 
L 510.691121 -9.342163 
L 511.535169 -9.000915 
L 512.379216 -8.669514 
L 513.223264 -8.34678 
L 514.067312 -8.032097 
L 514.91136 -7.725481 
L 515.755408 -7.427566 
L 516.599455 -7.139514 
L 517.443503 -6.862829 
L 518.287551 -6.599112 
L 519.131599 -6.349786 
L 519.975647 -6.115854 
L 520.819694 -5.897711 
L 521.663742 -5.695073 
L 522.50779 -5.507019 
L 523.351838 -5.332138 
L 524.195886 -5.168745 
L 525.039933 -5.015124 
L 525.883981 -4.869732 
L 526.728029 -4.731355 
L 527.572077 -4.599169 
L 528.416125 -4.472731 
L 529.260172 -4.351901 
L 530.10422 -4.23674 
L 530.948268 -4.127406 
L 531.792316 -4.024071 
L 532.636364 -3.926871 
L 532.636364 -2.470909 
L 532.636364 -2.470909 
L 531.792316 -2.470909 
L 530.948268 -2.470909 
L 530.10422 -2.470909 
L 529.260172 -2.470909 
L 528.416125 -2.470909 
L 527.572077 -2.470909 
L 526.728029 -2.470909 
L 525.883981 -2.470909 
L 525.039933 -2.470909 
L 524.195886 -2.470909 
L 523.351838 -2.470909 
L 522.50779 -2.470909 
L 521.663742 -2.470909 
L 520.819694 -2.470909 
L 519.975647 -2.470909 
L 519.131599 -2.470909 
L 518.287551 -2.470909 
L 517.443503 -2.470909 
L 516.599455 -2.470909 
L 515.755408 -2.470909 
L 514.91136 -2.470909 
L 514.067312 -2.470909 
L 513.223264 -2.470909 
L 512.379216 -2.470909 
L 511.535169 -2.470909 
L 510.691121 -2.470909 
L 509.847073 -2.470909 
L 509.003025 -2.470909 
L 508.158977 -2.470909 
L 507.31493 -2.470909 
L 506.470882 -2.470909 
L 505.626834 -2.470909 
L 504.782786 -2.470909 
L 503.938738 -2.470909 
L 503.094691 -2.470909 
L 502.250643 -2.470909 
L 501.406595 -2.470909 
L 500.562547 -2.470909 
L 499.718499 -2.470909 
L 498.874452 -2.470909 
L 498.030404 -2.470909 
L 497.186356 -2.470909 
L 496.342308 -2.470909 
L 495.49826 -2.470909 
L 494.654213 -2.470909 
L 493.810165 -2.470909 
L 492.966117 -2.470909 
L 492.122069 -2.470909 
L 491.278021 -2.470909 
L 490.433974 -2.470909 
L 489.589926 -2.470909 
L 488.745878 -2.470909 
L 487.90183 -2.470909 
L 487.057782 -2.470909 
L 486.213735 -2.470909 
L 485.369687 -2.470909 
L 484.525639 -2.470909 
L 483.681591 -2.470909 
L 482.837543 -2.470909 
L 481.993496 -2.470909 
L 481.149448 -2.470909 
L 480.3054 -2.470909 
L 479.461352 -2.470909 
L 478.617304 -2.470909 
L 477.773257 -2.470909 
L 476.929209 -2.470909 
L 476.085161 -2.470909 
L 475.241113 -2.470909 
L 474.397065 -2.470909 
L 473.553018 -2.470909 
L 472.70897 -2.470909 
L 471.864922 -2.470909 
L 471.020874 -2.470909 
L 470.176827 -2.470909 
L 469.332779 -2.470909 
L 468.488731 -2.470909 
L 467.644683 -2.470909 
L 466.800635 -2.470909 
L 465.956588 -2.470909 
L 465.11254 -2.470909 
L 464.268492 -2.470909 
L 463.424444 -2.470909 
L 462.580396 -2.470909 
L 461.736349 -2.470909 
L 460.892301 -2.470909 
L 460.048253 -2.470909 
L 459.204205 -2.470909 
L 458.360157 -2.470909 
L 457.51611 -2.470909 
L 456.672062 -2.470909 
L 455.828014 -2.470909 
L 454.983966 -2.470909 
L 454.139918 -2.470909 
L 453.295871 -2.470909 
L 452.451823 -2.470909 
L 451.607775 -2.470909 
L 450.763727 -2.470909 
L 449.919679 -2.470909 
L 449.075632 -2.470909 
L 448.231584 -2.470909 
L 447.387536 -2.470909 
L 446.543488 -2.470909 
L 445.69944 -2.470909 
L 444.855393 -2.470909 
L 444.011345 -2.470909 
L 443.167297 -2.470909 
L 442.323249 -2.470909 
L 441.479201 -2.470909 
L 440.635154 -2.470909 
L 439.791106 -2.470909 
L 438.947058 -2.470909 
L 438.10301 -2.470909 
L 437.258962 -2.470909 
L 436.414915 -2.470909 
L 435.570867 -2.470909 
L 434.726819 -2.470909 
L 433.882771 -2.470909 
L 433.038723 -2.470909 
L 432.194676 -2.470909 
L 431.350628 -2.470909 
L 430.50658 -2.470909 
L 429.662532 -2.470909 
L 428.818484 -2.470909 
L 427.974437 -2.470909 
L 427.130389 -2.470909 
L 426.286341 -2.470909 
L 425.442293 -2.470909 
L 424.598245 -2.470909 
L 423.754198 -2.470909 
L 422.91015 -2.470909 
L 422.066102 -2.470909 
L 421.222054 -2.470909 
L 420.378006 -2.470909 
L 419.533959 -2.470909 
L 418.689911 -2.470909 
L 417.845863 -2.470909 
L 417.001815 -2.470909 
L 416.157767 -2.470909 
L 415.31372 -2.470909 
L 414.469672 -2.470909 
L 413.625624 -2.470909 
L 412.781576 -2.470909 
L 411.937528 -2.470909 
L 411.093481 -2.470909 
L 410.249433 -2.470909 
L 409.405385 -2.470909 
L 408.561337 -2.470909 
L 407.717289 -2.470909 
L 406.873242 -2.470909 
L 406.029194 -2.470909 
L 405.185146 -2.470909 
L 404.341098 -2.470909 
L 403.49705 -2.470909 
L 402.653003 -2.470909 
L 401.808955 -2.470909 
L 400.964907 -2.470909 
L 400.120859 -2.470909 
L 399.276811 -2.470909 
L 398.432764 -2.470909 
L 397.588716 -2.470909 
L 396.744668 -2.470909 
L 395.90062 -2.470909 
L 395.056572 -2.470909 
L 394.212525 -2.470909 
L 393.368477 -2.470909 
L 392.524429 -2.470909 
L 391.680381 -2.470909 
L 390.836333 -2.470909 
L 389.992286 -2.470909 
L 389.148238 -2.470909 
L 388.30419 -2.470909 
L 387.460142 -2.470909 
L 386.616094 -2.470909 
L 385.772047 -2.470909 
L 384.927999 -2.470909 
L 384.083951 -2.470909 
L 383.239903 -2.470909 
L 382.395855 -2.470909 
L 381.551808 -2.470909 
L 380.70776 -2.470909 
L 379.863712 -2.470909 
L 379.019664 -2.470909 
L 378.175616 -2.470909 
L 377.331569 -2.470909 
L 376.487521 -2.470909 
L 375.643473 -2.470909 
L 374.799425 -2.470909 
L 373.955377 -2.470909 
L 373.11133 -2.470909 
L 372.267282 -2.470909 
L 371.423234 -2.470909 
L 370.579186 -2.470909 
L 369.735138 -2.470909 
z
" style="stroke: #116dc2; stroke-opacity: 0.2"/>
    </defs>
    <g clip-path="url(#pb6776d79f5)">
     <use xlink:href="#mcb2626383b" x="0" y="54.36" style="fill: #116dc2; fill-opacity: 0.2; stroke: #116dc2; stroke-opacity: 0.2"/>
    </g>
   </g>
   <g id="PolyCollection_3">
    <defs>
     <path id="m3fa5920d4f" d="M 25.363636 -2.470909 
L 25.363636 -5.25082 
L 26.207684 -5.632036 
L 27.051732 -6.103604 
L 27.89578 -6.785258 
L 28.739828 -7.706773 
L 29.583875 -8.809253 
L 30.427923 -10.031162 
L 31.271971 -11.360299 
L 32.116019 -12.799946 
L 32.960067 -14.320314 
L 33.804114 -15.870075 
L 34.648162 -17.419478 
L 35.49221 -18.972232 
L 36.336258 -20.563895 
L 37.180306 -22.283127 
L 38.024353 -24.265399 
L 38.868401 -26.606637 
L 39.712449 -29.262187 
L 40.556497 -32.047808 
L 41.400545 -34.759365 
L 42.244592 -37.291281 
L 43.08864 -39.636287 
L 43.932688 -41.803787 
L 44.776736 -43.782796 
L 45.620784 -45.57596 
L 46.464831 -47.211626 
L 47.308879 -48.680068 
L 48.152927 -49.877676 
L 48.996975 -50.669843 
L 49.841023 -51.038211 
L 50.68507 -51.152272 
L 51.529118 -51.268934 
L 52.373166 -51.534586 
L 53.217214 -51.848436 
L 54.061262 -51.889091 
L 54.905309 -51.298342 
L 55.749357 -49.924222 
L 56.593405 -47.963062 
L 57.437453 -45.862045 
L 58.281501 -44.012389 
L 59.125548 -42.483374 
L 59.969596 -41.049864 
L 60.813644 -39.455119 
L 61.657692 -37.592645 
L 62.50174 -35.456812 
L 63.345787 -33.043618 
L 64.189835 -30.381709 
L 65.033883 -27.611322 
L 65.877931 -24.951728 
L 66.721979 -22.57272 
L 67.566026 -20.508241 
L 68.410074 -18.685949 
L 69.254122 -17.025054 
L 70.09817 -15.504197 
L 70.942218 -14.1483 
L 71.786265 -12.968045 
L 72.630313 -11.915022 
L 73.474361 -10.889108 
L 74.318409 -9.804761 
L 75.162457 -8.672142 
L 76.006504 -7.602195 
L 76.850552 -6.710307 
L 77.6946 -6.019377 
L 78.538648 -5.461559 
L 79.382696 -4.956433 
L 79.382696 -2.470909 
L 79.382696 -2.470909 
L 78.538648 -2.470909 
L 77.6946 -2.470909 
L 76.850552 -2.470909 
L 76.006504 -2.470909 
L 75.162457 -2.470909 
L 74.318409 -2.470909 
L 73.474361 -2.470909 
L 72.630313 -2.470909 
L 71.786265 -2.470909 
L 70.942218 -2.470909 
L 70.09817 -2.470909 
L 69.254122 -2.470909 
L 68.410074 -2.470909 
L 67.566026 -2.470909 
L 66.721979 -2.470909 
L 65.877931 -2.470909 
L 65.033883 -2.470909 
L 64.189835 -2.470909 
L 63.345787 -2.470909 
L 62.50174 -2.470909 
L 61.657692 -2.470909 
L 60.813644 -2.470909 
L 59.969596 -2.470909 
L 59.125548 -2.470909 
L 58.281501 -2.470909 
L 57.437453 -2.470909 
L 56.593405 -2.470909 
L 55.749357 -2.470909 
L 54.905309 -2.470909 
L 54.061262 -2.470909 
L 53.217214 -2.470909 
L 52.373166 -2.470909 
L 51.529118 -2.470909 
L 50.68507 -2.470909 
L 49.841023 -2.470909 
L 48.996975 -2.470909 
L 48.152927 -2.470909 
L 47.308879 -2.470909 
L 46.464831 -2.470909 
L 45.620784 -2.470909 
L 44.776736 -2.470909 
L 43.932688 -2.470909 
L 43.08864 -2.470909 
L 42.244592 -2.470909 
L 41.400545 -2.470909 
L 40.556497 -2.470909 
L 39.712449 -2.470909 
L 38.868401 -2.470909 
L 38.024353 -2.470909 
L 37.180306 -2.470909 
L 36.336258 -2.470909 
L 35.49221 -2.470909 
L 34.648162 -2.470909 
L 33.804114 -2.470909 
L 32.960067 -2.470909 
L 32.116019 -2.470909 
L 31.271971 -2.470909 
L 30.427923 -2.470909 
L 29.583875 -2.470909 
L 28.739828 -2.470909 
L 27.89578 -2.470909 
L 27.051732 -2.470909 
L 26.207684 -2.470909 
L 25.363636 -2.470909 
z
" style="stroke: #8a8a8a; stroke-opacity: 0.2"/>
    </defs>
    <g clip-path="url(#pb6776d79f5)">
     <use xlink:href="#m3fa5920d4f" x="0" y="54.36" style="fill: #8a8a8a; fill-opacity: 0.2; stroke: #8a8a8a; stroke-opacity: 0.2"/>
    </g>
   </g>
   <g id="line2d_1">
    <path d="M 231.311299 50.19096 
L 233.843443 49.709439 
L 237.219634 48.796523 
L 245.660112 46.181488 
L 247.348208 45.444604 
L 249.036303 44.540966 
L 251.568447 42.88372 
L 254.944638 40.287347 
L 258.320829 37.389227 
L 266.761307 29.721416 
L 270.137498 26.223602 
L 275.201785 20.98118 
L 278.577976 17.814177 
L 281.110119 15.727611 
L 283.642263 13.928624 
L 287.862502 11.278519 
L 289.550597 10.410248 
L 291.238693 9.841879 
L 292.926789 9.692726 
L 294.614884 9.956618 
L 297.147028 10.784252 
L 299.679171 11.579703 
L 303.055362 12.471593 
L 304.743458 13.170054 
L 306.431553 14.224081 
L 308.119649 15.649286 
L 310.651792 18.267105 
L 314.027984 21.876498 
L 316.560127 24.292882 
L 326.688701 33.262274 
L 333.441083 38.908809 
L 335.973226 40.842036 
L 338.50537 42.494681 
L 341.881561 44.348098 
L 346.1018 46.441144 
L 348.633943 47.503764 
L 351.166087 48.372733 
L 354.542278 49.288707 
L 357.918469 50.009823 
L 357.918469 50.009823 
" clip-path="url(#pb6776d79f5)" style="fill: none; stroke: #cf1313; stroke-width: 1.5; stroke-linecap: square"/>
   </g>
   <g id="line2d_2">
    <path d="M 369.735138 50.086446 
L 375.643473 49.128882 
L 379.019664 48.385866 
L 382.395855 47.416491 
L 385.772047 46.20403 
L 389.148238 44.740043 
L 394.212525 42.249915 
L 398.432764 39.977997 
L 402.653003 37.407075 
L 411.093481 32.147739 
L 418.689911 27.399997 
L 422.066102 25.002588 
L 430.50658 18.542881 
L 433.038723 17.041258 
L 435.570867 15.776831 
L 438.947058 14.337445 
L 442.323249 13.089352 
L 444.855393 12.336898 
L 446.543488 12.001799 
L 448.231584 11.856524 
L 449.919679 11.926151 
L 451.607775 12.199057 
L 454.139918 12.877224 
L 459.204205 14.36697 
L 465.11254 15.93851 
L 466.800635 16.625493 
L 468.488731 17.490404 
L 471.020874 19.080701 
L 474.397065 21.575977 
L 476.929209 23.686355 
L 480.3054 26.805341 
L 483.681591 29.931649 
L 486.213735 31.956323 
L 488.745878 33.581674 
L 491.278021 34.873621 
L 497.186356 37.709172 
L 500.562547 39.69701 
L 504.782786 42.206758 
L 508.158977 43.917549 
L 511.535169 45.359085 
L 515.755408 46.932434 
L 519.131599 48.010214 
L 522.50779 48.852981 
L 526.728029 49.628645 
L 531.792316 50.335929 
L 532.636364 50.433129 
L 532.636364 50.433129 
" clip-path="url(#pb6776d79f5)" style="fill: none; stroke: #116dc2; stroke-width: 1.5; stroke-linecap: square"/>
   </g>
   <g id="line2d_3">
    <path d="M 25.363636 49.10918 
L 26.207684 48.727964 
L 27.051732 48.256396 
L 27.89578 47.574742 
L 28.739828 46.653227 
L 29.583875 45.550747 
L 30.427923 44.328838 
L 31.271971 42.999701 
L 32.116019 41.560054 
L 32.960067 40.039686 
L 33.804114 38.489925 
L 34.648162 36.940522 
L 35.49221 35.387768 
L 36.336258 33.796105 
L 37.180306 32.076873 
L 38.024353 30.094601 
L 38.868401 27.753363 
L 39.712449 25.097813 
L 40.556497 22.312192 
L 41.400545 19.600635 
L 42.244592 17.068719 
L 43.08864 14.723713 
L 43.932688 12.556213 
L 44.776736 10.577204 
L 45.620784 8.78404 
L 46.464831 7.148374 
L 47.308879 5.679932 
L 48.152927 4.482324 
L 48.996975 3.690157 
L 49.841023 3.321789 
L 50.68507 3.207728 
L 51.529118 3.091066 
L 52.373166 2.825414 
L 53.217214 2.511564 
L 54.061262 2.470909 
L 54.905309 3.061658 
L 55.749357 4.435778 
L 56.593405 6.396938 
L 57.437453 8.497955 
L 58.281501 10.347611 
L 59.125548 11.876626 
L 59.969596 13.310136 
L 60.813644 14.904881 
L 61.657692 16.767355 
L 62.50174 18.903188 
L 63.345787 21.316382 
L 64.189835 23.978291 
L 65.033883 26.748678 
L 65.877931 29.408272 
L 66.721979 31.78728 
L 67.566026 33.851759 
L 68.410074 35.674051 
L 69.254122 37.334946 
L 70.09817 38.855803 
L 70.942218 40.2117 
L 71.786265 41.391955 
L 72.630313 42.444978 
L 73.474361 43.470892 
L 74.318409 44.555239 
L 75.162457 45.687858 
L 76.006504 46.757805 
L 76.850552 47.649693 
L 77.6946 48.340623 
L 78.538648 48.898441 
L 79.382696 49.403567 
" clip-path="url(#pb6776d79f5)" style="fill: none; stroke: #8a8a8a; stroke-width: 1.5; stroke-linecap: square"/>
   </g>
  </g>
 </g>
 <defs>
  <clipPath id="pb6776d79f5">
   <rect x="0" y="-0" width="558" height="54.36"/>
  </clipPath>
 </defs>
</svg>
