<?xml version="1.0" encoding="utf-8" standalone="no"?>
<!DOCTYPE svg PUBLIC "-//W3C//DTD SVG 1.1//EN"
  "http://www.w3.org/Graphics/SVG/1.1/DTD/svg11.dtd">
<svg xmlns:xlink="http://www.w3.org/1999/xlink" width="558pt" height="54.36pt" viewBox="0 0 558 54.36" xmlns="http://www.w3.org/2000/svg" version="1.1">
 <metadata>
  <rdf:RDF xmlns:dc="http://purl.org/dc/elements/1.1/" xmlns:cc="http://creativecommons.org/ns#" xmlns:rdf="http://www.w3.org/1999/02/22-rdf-syntax-ns#">
   <cc:Work>
    <dc:type rdf:resource="http://purl.org/dc/dcmitype/StillImage"/>
    <dc:date>2024-09-15T09:31:25.656476</dc:date>
    <dc:format>image/svg+xml</dc:format>
    <dc:creator>
     <cc:Agent>
      <dc:title>Matplotlib v3.5.2, https://matplotlib.org/</dc:title>
     </cc:Agent>
    </dc:creator>
   </cc:Work>
  </rdf:RDF>
 </metadata>
 <defs>
  <style type="text/css">*{stroke-linejoin: round; stroke-linecap: butt}</style>
 </defs>
 <g id="figure_1">
  <g id="patch_1">
   <path d="M 0 54.36 
L 558 54.36 
L 558 0 
L 0 0 
L 0 54.36 
z
" style="fill: none; opacity: 0"/>
  </g>
  <g id="axes_1">
   <g id="PolyCollection_1">
    <defs>
     <path id="me95cd22484" d="M 374.231497 -2.470909 
L 374.231497 -3.962312 
L 375.174383 -4.153674 
L 376.117269 -4.372025 
L 377.060155 -4.61375 
L 378.003042 -4.872419 
L 378.945928 -5.140379 
L 379.888814 -5.410998 
L 380.8317 -5.680884 
L 381.774586 -5.95136 
L 382.717472 -6.228736 
L 383.660358 -6.52325 
L 384.603244 -6.846925 
L 385.54613 -7.210814 
L 386.489017 -7.622212 
L 387.431903 -8.0825 
L 388.374789 -8.58619 
L 389.317675 -9.121581 
L 390.260561 -9.673106 
L 391.203447 -10.225025 
L 392.146333 -10.765629 
L 393.089219 -11.290856 
L 394.032105 -11.806166 
L 394.974992 -12.325854 
L 395.917878 -12.86967 
L 396.860764 -13.457456 
L 397.80365 -14.103245 
L 398.746536 -14.81063 
L 399.689422 -15.570984 
L 400.632308 -16.365255 
L 401.575194 -17.168944 
L 402.51808 -17.958879 
L 403.460967 -18.719846 
L 404.403853 -19.449343 
L 405.346739 -20.159307 
L 406.289625 -20.874452 
L 407.232511 -21.627527 
L 408.175397 -22.452249 
L 409.118283 -23.375089 
L 410.061169 -24.407546 
L 411.004055 -25.54086 
L 411.946942 -26.74499 
L 412.889828 -27.972809 
L 413.832714 -29.168947 
L 414.7756 -30.281136 
L 415.718486 -31.270933 
L 416.661372 -32.120912 
L 417.604258 -32.836684 
L 418.547144 -33.443834 
L 419.49003 -33.981302 
L 420.432917 -34.493281 
L 421.375803 -35.021356 
L 422.318689 -35.597891 
L 423.261575 -36.241047 
L 424.204461 -36.951735 
L 425.147347 -37.713061 
L 426.090233 -38.493006 
L 427.033119 -39.250672 
L 427.976005 -39.945362 
L 428.918892 -40.546383 
L 429.861778 -41.040505 
L 430.804664 -41.43418 
L 431.74755 -41.749133 
L 432.690436 -42.012386 
L 433.633322 -42.244115 
L 434.576208 -42.447934 
L 435.519094 -42.607516 
L 436.46198 -42.691107 
L 437.404867 -42.662432 
L 438.347753 -42.493906 
L 439.290639 -42.177136 
L 440.233525 -41.726721 
L 441.176411 -41.175964 
L 442.119297 -40.566199 
L 443.062183 -39.933829 
L 444.005069 -39.299899 
L 444.947955 -38.665923 
L 445.890842 -38.017128 
L 446.833728 -37.331378 
L 447.776614 -36.589926 
L 448.7195 -35.785666 
L 449.662386 -34.925917 
L 450.605272 -34.02927 
L 451.548158 -33.11856 
L 452.491044 -32.21332 
L 453.43393 -31.324772 
L 454.376816 -30.454712 
L 455.319703 -29.597702 
L 456.262589 -28.74474 
L 457.205475 -27.886507 
L 458.148361 -27.015228 
L 459.091247 -26.125229 
L 460.034133 -25.212996 
L 460.977019 -24.277442 
L 461.919905 -23.320621 
L 462.862791 -22.348591 
L 463.805678 -21.371857 
L 464.748564 -20.404946 
L 465.69145 -19.464929 
L 466.634336 -18.568992 
L 467.577222 -17.731463 
L 468.520108 -16.960961 
L 469.462994 -16.258411 
L 470.40588 -15.616642 
L 471.348766 -15.021825 
L 472.291653 -14.456415 
L 473.234539 -13.902733 
L 474.177425 -13.34615 
L 475.120311 -12.777079 
L 476.063197 -12.191556 
L 477.006083 -11.590693 
L 477.948969 -10.979615 
L 478.891855 -10.366385 
L 479.834741 -9.761173 
L 480.777628 -9.175543 
L 481.720514 -8.621544 
L 482.6634 -8.110367 
L 483.606286 -7.650602 
L 484.549172 -7.246516 
L 485.492058 -6.896974 
L 486.434944 -6.595513 
L 487.37783 -6.331672 
L 488.320716 -6.093156 
L 489.263603 -5.868135 
L 490.206489 -5.646993 
L 491.149375 -5.423209 
L 492.092261 -5.19345 
L 493.035147 -4.957231 
L 493.978033 -4.71644 
L 494.920919 -4.474884 
L 494.920919 -2.470909 
L 494.920919 -2.470909 
L 493.978033 -2.470909 
L 493.035147 -2.470909 
L 492.092261 -2.470909 
L 491.149375 -2.470909 
L 490.206489 -2.470909 
L 489.263603 -2.470909 
L 488.320716 -2.470909 
L 487.37783 -2.470909 
L 486.434944 -2.470909 
L 485.492058 -2.470909 
L 484.549172 -2.470909 
L 483.606286 -2.470909 
L 482.6634 -2.470909 
L 481.720514 -2.470909 
L 480.777628 -2.470909 
L 479.834741 -2.470909 
L 478.891855 -2.470909 
L 477.948969 -2.470909 
L 477.006083 -2.470909 
L 476.063197 -2.470909 
L 475.120311 -2.470909 
L 474.177425 -2.470909 
L 473.234539 -2.470909 
L 472.291653 -2.470909 
L 471.348766 -2.470909 
L 470.40588 -2.470909 
L 469.462994 -2.470909 
L 468.520108 -2.470909 
L 467.577222 -2.470909 
L 466.634336 -2.470909 
L 465.69145 -2.470909 
L 464.748564 -2.470909 
L 463.805678 -2.470909 
L 462.862791 -2.470909 
L 461.919905 -2.470909 
L 460.977019 -2.470909 
L 460.034133 -2.470909 
L 459.091247 -2.470909 
L 458.148361 -2.470909 
L 457.205475 -2.470909 
L 456.262589 -2.470909 
L 455.319703 -2.470909 
L 454.376816 -2.470909 
L 453.43393 -2.470909 
L 452.491044 -2.470909 
L 451.548158 -2.470909 
L 450.605272 -2.470909 
L 449.662386 -2.470909 
L 448.7195 -2.470909 
L 447.776614 -2.470909 
L 446.833728 -2.470909 
L 445.890842 -2.470909 
L 444.947955 -2.470909 
L 444.005069 -2.470909 
L 443.062183 -2.470909 
L 442.119297 -2.470909 
L 441.176411 -2.470909 
L 440.233525 -2.470909 
L 439.290639 -2.470909 
L 438.347753 -2.470909 
L 437.404867 -2.470909 
L 436.46198 -2.470909 
L 435.519094 -2.470909 
L 434.576208 -2.470909 
L 433.633322 -2.470909 
L 432.690436 -2.470909 
L 431.74755 -2.470909 
L 430.804664 -2.470909 
L 429.861778 -2.470909 
L 428.918892 -2.470909 
L 427.976005 -2.470909 
L 427.033119 -2.470909 
L 426.090233 -2.470909 
L 425.147347 -2.470909 
L 424.204461 -2.470909 
L 423.261575 -2.470909 
L 422.318689 -2.470909 
L 421.375803 -2.470909 
L 420.432917 -2.470909 
L 419.49003 -2.470909 
L 418.547144 -2.470909 
L 417.604258 -2.470909 
L 416.661372 -2.470909 
L 415.718486 -2.470909 
L 414.7756 -2.470909 
L 413.832714 -2.470909 
L 412.889828 -2.470909 
L 411.946942 -2.470909 
L 411.004055 -2.470909 
L 410.061169 -2.470909 
L 409.118283 -2.470909 
L 408.175397 -2.470909 
L 407.232511 -2.470909 
L 406.289625 -2.470909 
L 405.346739 -2.470909 
L 404.403853 -2.470909 
L 403.460967 -2.470909 
L 402.51808 -2.470909 
L 401.575194 -2.470909 
L 400.632308 -2.470909 
L 399.689422 -2.470909 
L 398.746536 -2.470909 
L 397.80365 -2.470909 
L 396.860764 -2.470909 
L 395.917878 -2.470909 
L 394.974992 -2.470909 
L 394.032105 -2.470909 
L 393.089219 -2.470909 
L 392.146333 -2.470909 
L 391.203447 -2.470909 
L 390.260561 -2.470909 
L 389.317675 -2.470909 
L 388.374789 -2.470909 
L 387.431903 -2.470909 
L 386.489017 -2.470909 
L 385.54613 -2.470909 
L 384.603244 -2.470909 
L 383.660358 -2.470909 
L 382.717472 -2.470909 
L 381.774586 -2.470909 
L 380.8317 -2.470909 
L 379.888814 -2.470909 
L 378.945928 -2.470909 
L 378.003042 -2.470909 
L 377.060155 -2.470909 
L 376.117269 -2.470909 
L 375.174383 -2.470909 
L 374.231497 -2.470909 
z
" style="stroke: #cf1313; stroke-opacity: 0.2"/>
    </defs>
    <g clip-path="url(#pfed9d51d7f)">
     <use xlink:href="#me95cd22484" x="0" y="54.36" style="fill: #cf1313; fill-opacity: 0.2; stroke: #cf1313; stroke-opacity: 0.2"/>
    </g>
   </g>
   <g id="PolyCollection_2">
    <defs>
     <path id="m963d3dd76c" d="M 393.089219 -2.470909 
L 393.089219 -4.103929 
L 394.032105 -4.242325 
L 394.974992 -4.372357 
L 395.917878 -4.492279 
L 396.860764 -4.60319 
L 397.80365 -4.709181 
L 398.746536 -4.816968 
L 399.689422 -4.935082 
L 400.632308 -5.072759 
L 401.575194 -5.238685 
L 402.51808 -5.4398 
L 403.460967 -5.680329 
L 404.403853 -5.96119 
L 405.346739 -6.2799 
L 406.289625 -6.631011 
L 407.232511 -7.007009 
L 408.175397 -7.399565 
L 409.118283 -7.800921 
L 410.061169 -8.205198 
L 411.004055 -8.609397 
L 411.946942 -9.013929 
L 412.889828 -9.422521 
L 413.832714 -9.841486 
L 414.7756 -10.278451 
L 415.718486 -10.740785 
L 416.661372 -11.234099 
L 417.604258 -11.761185 
L 418.547144 -12.321679 
L 419.49003 -12.912491 
L 420.432917 -13.528799 
L 421.375803 -14.16522 
L 422.318689 -14.81676 
L 423.261575 -15.479329 
L 424.204461 -16.149862 
L 425.147347 -16.826311 
L 426.090233 -17.507797 
L 427.033119 -18.19501 
L 427.976005 -18.890678 
L 428.918892 -19.599702 
L 429.861778 -20.328592 
L 430.804664 -21.084135 
L 431.74755 -21.871603 
L 432.690436 -22.693126 
L 433.633322 -23.546842 
L 434.576208 -24.427162 
L 435.519094 -25.326027 
L 436.46198 -26.234668 
L 437.404867 -27.145217 
L 438.347753 -28.05165 
L 439.290639 -28.949846 
L 440.233525 -29.836868 
L 441.176411 -30.70979 
L 442.119297 -31.564449 
L 443.062183 -32.394534 
L 444.005069 -33.191293 
L 444.947955 -33.944124 
L 445.890842 -34.642087 
L 446.833728 -35.276164 
L 447.776614 -35.841749 
L 448.7195 -36.340625 
L 449.662386 -36.781666 
L 450.605272 -37.179816 
L 451.548158 -37.553396 
L 452.491044 -37.920399 
L 453.43393 -38.294755 
L 454.376816 -38.683581 
L 455.319703 -39.086101 
L 456.262589 -39.494373 
L 457.205475 -39.895477 
L 458.148361 -40.274495 
L 459.091247 -40.617544 
L 460.034133 -40.914192 
L 460.977019 -41.158816 
L 461.919905 -41.350652 
L 462.862791 -41.492527 
L 463.805678 -41.588529 
L 464.748564 -41.641142 
L 465.69145 -41.648642 
L 466.634336 -41.603584 
L 467.577222 -41.493072 
L 468.520108 -41.301024 
L 469.462994 -41.012053 
L 470.40588 -40.616044 
L 471.348766 -40.112152 
L 472.291653 -39.51103 
L 473.234539 -38.834451 
L 474.177425 -38.112191 
L 475.120311 -37.376729 
L 476.063197 -36.656958 
L 477.006083 -35.972442 
L 477.948969 -35.329684 
L 478.891855 -34.721395 
L 479.834741 -34.12899 
L 480.777628 -33.527677 
L 481.720514 -32.892809 
L 482.6634 -32.205896 
L 483.606286 -31.458805 
L 484.549172 -30.655258 
L 485.492058 -29.809417 
L 486.434944 -28.942121 
L 487.37783 -28.075795 
L 488.320716 -27.229336 
L 489.263603 -26.414205 
L 490.206489 -25.632631 
L 491.149375 -24.8783 
L 492.092261 -24.139234 
L 493.035147 -23.401988 
L 493.978033 -22.655907 
L 494.920919 -21.896192 
L 495.863805 -21.124915 
L 496.806691 -20.349834 
L 497.749578 -19.581543 
L 498.692464 -18.830049 
L 499.63535 -18.101928 
L 500.578236 -17.39894 
L 501.521122 -16.718358 
L 502.464008 -16.054688 
L 503.406894 -15.401997 
L 504.34978 -14.755994 
L 505.292666 -14.115246 
L 506.235553 -13.48131 
L 507.178439 -12.858018 
L 508.121325 -12.250353 
L 509.064211 -11.663371 
L 510.007097 -11.10146 
L 510.949983 -10.56794 
L 511.892869 -10.064869 
L 512.835755 -9.592888 
L 513.778641 -9.151069 
L 514.721528 -8.736817 
L 515.664414 -8.345997 
L 516.6073 -7.97337 
L 517.550186 -7.613338 
L 518.493072 -7.260839 
L 519.435958 -6.912192 
L 520.378844 -6.565697 
L 521.32173 -6.221896 
L 522.264616 -5.883464 
L 523.207503 -5.554815 
L 524.150389 -5.241487 
L 525.093275 -4.949417 
L 526.036161 -4.684166 
L 526.979047 -4.450195 
L 527.921933 -4.250258 
L 528.864819 -4.085 
L 529.807705 -3.952826 
L 530.750591 -3.850052 
L 531.693478 -3.771324 
L 532.636364 -3.710232 
L 532.636364 -2.470909 
L 532.636364 -2.470909 
L 531.693478 -2.470909 
L 530.750591 -2.470909 
L 529.807705 -2.470909 
L 528.864819 -2.470909 
L 527.921933 -2.470909 
L 526.979047 -2.470909 
L 526.036161 -2.470909 
L 525.093275 -2.470909 
L 524.150389 -2.470909 
L 523.207503 -2.470909 
L 522.264616 -2.470909 
L 521.32173 -2.470909 
L 520.378844 -2.470909 
L 519.435958 -2.470909 
L 518.493072 -2.470909 
L 517.550186 -2.470909 
L 516.6073 -2.470909 
L 515.664414 -2.470909 
L 514.721528 -2.470909 
L 513.778641 -2.470909 
L 512.835755 -2.470909 
L 511.892869 -2.470909 
L 510.949983 -2.470909 
L 510.007097 -2.470909 
L 509.064211 -2.470909 
L 508.121325 -2.470909 
L 507.178439 -2.470909 
L 506.235553 -2.470909 
L 505.292666 -2.470909 
L 504.34978 -2.470909 
L 503.406894 -2.470909 
L 502.464008 -2.470909 
L 501.521122 -2.470909 
L 500.578236 -2.470909 
L 499.63535 -2.470909 
L 498.692464 -2.470909 
L 497.749578 -2.470909 
L 496.806691 -2.470909 
L 495.863805 -2.470909 
L 494.920919 -2.470909 
L 493.978033 -2.470909 
L 493.035147 -2.470909 
L 492.092261 -2.470909 
L 491.149375 -2.470909 
L 490.206489 -2.470909 
L 489.263603 -2.470909 
L 488.320716 -2.470909 
L 487.37783 -2.470909 
L 486.434944 -2.470909 
L 485.492058 -2.470909 
L 484.549172 -2.470909 
L 483.606286 -2.470909 
L 482.6634 -2.470909 
L 481.720514 -2.470909 
L 480.777628 -2.470909 
L 479.834741 -2.470909 
L 478.891855 -2.470909 
L 477.948969 -2.470909 
L 477.006083 -2.470909 
L 476.063197 -2.470909 
L 475.120311 -2.470909 
L 474.177425 -2.470909 
L 473.234539 -2.470909 
L 472.291653 -2.470909 
L 471.348766 -2.470909 
L 470.40588 -2.470909 
L 469.462994 -2.470909 
L 468.520108 -2.470909 
L 467.577222 -2.470909 
L 466.634336 -2.470909 
L 465.69145 -2.470909 
L 464.748564 -2.470909 
L 463.805678 -2.470909 
L 462.862791 -2.470909 
L 461.919905 -2.470909 
L 460.977019 -2.470909 
L 460.034133 -2.470909 
L 459.091247 -2.470909 
L 458.148361 -2.470909 
L 457.205475 -2.470909 
L 456.262589 -2.470909 
L 455.319703 -2.470909 
L 454.376816 -2.470909 
L 453.43393 -2.470909 
L 452.491044 -2.470909 
L 451.548158 -2.470909 
L 450.605272 -2.470909 
L 449.662386 -2.470909 
L 448.7195 -2.470909 
L 447.776614 -2.470909 
L 446.833728 -2.470909 
L 445.890842 -2.470909 
L 444.947955 -2.470909 
L 444.005069 -2.470909 
L 443.062183 -2.470909 
L 442.119297 -2.470909 
L 441.176411 -2.470909 
L 440.233525 -2.470909 
L 439.290639 -2.470909 
L 438.347753 -2.470909 
L 437.404867 -2.470909 
L 436.46198 -2.470909 
L 435.519094 -2.470909 
L 434.576208 -2.470909 
L 433.633322 -2.470909 
L 432.690436 -2.470909 
L 431.74755 -2.470909 
L 430.804664 -2.470909 
L 429.861778 -2.470909 
L 428.918892 -2.470909 
L 427.976005 -2.470909 
L 427.033119 -2.470909 
L 426.090233 -2.470909 
L 425.147347 -2.470909 
L 424.204461 -2.470909 
L 423.261575 -2.470909 
L 422.318689 -2.470909 
L 421.375803 -2.470909 
L 420.432917 -2.470909 
L 419.49003 -2.470909 
L 418.547144 -2.470909 
L 417.604258 -2.470909 
L 416.661372 -2.470909 
L 415.718486 -2.470909 
L 414.7756 -2.470909 
L 413.832714 -2.470909 
L 412.889828 -2.470909 
L 411.946942 -2.470909 
L 411.004055 -2.470909 
L 410.061169 -2.470909 
L 409.118283 -2.470909 
L 408.175397 -2.470909 
L 407.232511 -2.470909 
L 406.289625 -2.470909 
L 405.346739 -2.470909 
L 404.403853 -2.470909 
L 403.460967 -2.470909 
L 402.51808 -2.470909 
L 401.575194 -2.470909 
L 400.632308 -2.470909 
L 399.689422 -2.470909 
L 398.746536 -2.470909 
L 397.80365 -2.470909 
L 396.860764 -2.470909 
L 395.917878 -2.470909 
L 394.974992 -2.470909 
L 394.032105 -2.470909 
L 393.089219 -2.470909 
z
" style="stroke: #116dc2; stroke-opacity: 0.2"/>
    </defs>
    <g clip-path="url(#pfed9d51d7f)">
     <use xlink:href="#m963d3dd76c" x="0" y="54.36" style="fill: #116dc2; fill-opacity: 0.2; stroke: #116dc2; stroke-opacity: 0.2"/>
    </g>
   </g>
   <g id="PolyCollection_3">
    <defs>
     <path id="m1e6213e855" d="M 25.363636 -2.470909 
L 25.363636 -4.711533 
L 26.306522 -5.422073 
L 27.249409 -6.252368 
L 28.192295 -7.191577 
L 29.135181 -8.400634 
L 30.078067 -10.09149 
L 31.020953 -12.257605 
L 31.963839 -14.598247 
L 32.906725 -16.769566 
L 33.849611 -18.816138 
L 34.792497 -21.165832 
L 35.735384 -24.117209 
L 36.67827 -27.712192 
L 37.621156 -31.792465 
L 38.564042 -35.787225 
L 39.506928 -39.024466 
L 40.449814 -41.295987 
L 41.3927 -42.991547 
L 42.335586 -44.721772 
L 43.278472 -46.764636 
L 44.221359 -48.921638 
L 45.164245 -50.729027 
L 46.107131 -51.744378 
L 47.050017 -51.889091 
L 47.992903 -51.240201 
L 48.935789 -49.561591 
L 49.878675 -46.935173 
L 50.821561 -44.045799 
L 51.764447 -41.361821 
L 52.707334 -39.01575 
L 53.65022 -36.844001 
L 54.593106 -34.262404 
L 55.535992 -30.912593 
L 56.478878 -27.091632 
L 57.421764 -23.41546 
L 58.36465 -20.263066 
L 59.307536 -17.558607 
L 60.250422 -15.127936 
L 61.193309 -13.028507 
L 62.136195 -11.286846 
L 63.079081 -9.705699 
L 64.021967 -8.157996 
L 64.964853 -6.707018 
L 65.907739 -5.511196 
L 66.850625 -4.700549 
L 66.850625 -2.470909 
L 66.850625 -2.470909 
L 65.907739 -2.470909 
L 64.964853 -2.470909 
L 64.021967 -2.470909 
L 63.079081 -2.470909 
L 62.136195 -2.470909 
L 61.193309 -2.470909 
L 60.250422 -2.470909 
L 59.307536 -2.470909 
L 58.36465 -2.470909 
L 57.421764 -2.470909 
L 56.478878 -2.470909 
L 55.535992 -2.470909 
L 54.593106 -2.470909 
L 53.65022 -2.470909 
L 52.707334 -2.470909 
L 51.764447 -2.470909 
L 50.821561 -2.470909 
L 49.878675 -2.470909 
L 48.935789 -2.470909 
L 47.992903 -2.470909 
L 47.050017 -2.470909 
L 46.107131 -2.470909 
L 45.164245 -2.470909 
L 44.221359 -2.470909 
L 43.278472 -2.470909 
L 42.335586 -2.470909 
L 41.3927 -2.470909 
L 40.449814 -2.470909 
L 39.506928 -2.470909 
L 38.564042 -2.470909 
L 37.621156 -2.470909 
L 36.67827 -2.470909 
L 35.735384 -2.470909 
L 34.792497 -2.470909 
L 33.849611 -2.470909 
L 32.906725 -2.470909 
L 31.963839 -2.470909 
L 31.020953 -2.470909 
L 30.078067 -2.470909 
L 29.135181 -2.470909 
L 28.192295 -2.470909 
L 27.249409 -2.470909 
L 26.306522 -2.470909 
L 25.363636 -2.470909 
z
" style="stroke: #8a8a8a; stroke-opacity: 0.2"/>
    </defs>
    <g clip-path="url(#pfed9d51d7f)">
     <use xlink:href="#m1e6213e855" x="0" y="54.36" style="fill: #8a8a8a; fill-opacity: 0.2; stroke: #8a8a8a; stroke-opacity: 0.2"/>
    </g>
   </g>
   <g id="line2d_1">
    <path d="M 374.231497 50.397688 
L 377.060155 49.74625 
L 383.660358 47.83675 
L 385.54613 47.149186 
L 387.431903 46.2775 
L 390.260561 44.686894 
L 397.80365 40.256755 
L 399.689422 38.789016 
L 404.403853 34.910657 
L 407.232511 32.732473 
L 409.118283 30.984911 
L 411.004055 28.81914 
L 414.7756 24.078864 
L 416.661372 22.239088 
L 418.547144 20.916166 
L 423.261575 18.118953 
L 426.090233 15.866994 
L 427.976005 14.414638 
L 429.861778 13.319495 
L 431.74755 12.610867 
L 434.576208 11.912066 
L 436.46198 11.668893 
L 437.404867 11.697568 
L 438.347753 11.866094 
L 439.290639 12.182864 
L 441.176411 13.184036 
L 445.890842 16.342872 
L 447.776614 17.770074 
L 449.662386 19.434083 
L 457.205475 26.473493 
L 460.977019 30.082558 
L 467.577222 36.628537 
L 469.462994 38.101589 
L 472.291653 39.903585 
L 477.006083 42.769307 
L 481.720514 45.738456 
L 483.606286 46.709398 
L 485.492058 47.463026 
L 488.320716 48.266844 
L 494.920919 49.885116 
L 494.920919 49.885116 
" clip-path="url(#pfed9d51d7f)" style="fill: none; stroke: #cf1313; stroke-width: 1.5; stroke-linecap: square"/>
   </g>
   <g id="line2d_2">
    <path d="M 393.089219 50.256071 
L 397.80365 49.650819 
L 401.575194 49.121315 
L 403.460967 48.679671 
L 406.289625 47.728989 
L 411.004055 45.750603 
L 415.718486 43.619215 
L 418.547144 42.038321 
L 421.375803 40.19478 
L 427.033119 36.16499 
L 430.804664 33.275865 
L 433.633322 30.813158 
L 444.005069 21.168707 
L 445.890842 19.717913 
L 447.776614 18.518251 
L 449.662386 17.578334 
L 458.148361 14.085505 
L 460.034133 13.445808 
L 461.919905 13.009348 
L 463.805678 12.771471 
L 465.69145 12.711358 
L 467.577222 12.866928 
L 469.462994 13.347947 
L 471.348766 14.247848 
L 473.234539 15.525549 
L 477.948969 19.030316 
L 482.6634 22.154104 
L 484.549172 23.704742 
L 491.149375 29.4817 
L 503.406894 38.958003 
L 508.121325 42.109647 
L 510.949983 43.79206 
L 513.778641 45.208931 
L 517.550186 46.746662 
L 524.150389 49.118513 
L 526.979047 49.909805 
L 529.807705 50.407174 
L 532.636364 50.649768 
L 532.636364 50.649768 
" clip-path="url(#pfed9d51d7f)" style="fill: none; stroke: #116dc2; stroke-width: 1.5; stroke-linecap: square"/>
   </g>
   <g id="line2d_3">
    <path d="M 25.363636 49.648467 
L 26.306522 48.937927 
L 27.249409 48.107632 
L 28.192295 47.168423 
L 29.135181 45.959366 
L 30.078067 44.26851 
L 31.020953 42.102395 
L 31.963839 39.761753 
L 32.906725 37.590434 
L 33.849611 35.543862 
L 34.792497 33.194168 
L 35.735384 30.242791 
L 36.67827 26.647808 
L 37.621156 22.567535 
L 38.564042 18.572775 
L 39.506928 15.335534 
L 40.449814 13.064013 
L 41.3927 11.368453 
L 42.335586 9.638228 
L 43.278472 7.595364 
L 44.221359 5.438362 
L 45.164245 3.630973 
L 46.107131 2.615622 
L 47.050017 2.470909 
L 47.992903 3.119799 
L 48.935789 4.798409 
L 49.878675 7.424827 
L 50.821561 10.314201 
L 51.764447 12.998179 
L 52.707334 15.34425 
L 53.65022 17.515999 
L 54.593106 20.097596 
L 55.535992 23.447407 
L 56.478878 27.268368 
L 57.421764 30.94454 
L 58.36465 34.096934 
L 59.307536 36.801393 
L 60.250422 39.232064 
L 61.193309 41.331493 
L 62.136195 43.073154 
L 63.079081 44.654301 
L 64.021967 46.202004 
L 64.964853 47.652982 
L 65.907739 48.848804 
L 66.850625 49.659451 
" clip-path="url(#pfed9d51d7f)" style="fill: none; stroke: #8a8a8a; stroke-width: 1.5; stroke-linecap: square"/>
   </g>
  </g>
 </g>
 <defs>
  <clipPath id="pfed9d51d7f">
   <rect x="0" y="-0" width="558" height="54.36"/>
  </clipPath>
 </defs>
</svg>
