<?xml version="1.0" encoding="utf-8" standalone="no"?>
<!DOCTYPE svg PUBLIC "-//W3C//DTD SVG 1.1//EN"
  "http://www.w3.org/Graphics/SVG/1.1/DTD/svg11.dtd">
<svg xmlns:xlink="http://www.w3.org/1999/xlink" width="558pt" height="54.36pt" viewBox="0 0 558 54.36" xmlns="http://www.w3.org/2000/svg" version="1.1">
 <metadata>
  <rdf:RDF xmlns:dc="http://purl.org/dc/elements/1.1/" xmlns:cc="http://creativecommons.org/ns#" xmlns:rdf="http://www.w3.org/1999/02/22-rdf-syntax-ns#">
   <cc:Work>
    <dc:type rdf:resource="http://purl.org/dc/dcmitype/StillImage"/>
    <dc:date>2024-09-14T12:47:24.397805</dc:date>
    <dc:format>image/svg+xml</dc:format>
    <dc:creator>
     <cc:Agent>
      <dc:title>Matplotlib v3.5.2, https://matplotlib.org/</dc:title>
     </cc:Agent>
    </dc:creator>
   </cc:Work>
  </rdf:RDF>
 </metadata>
 <defs>
  <style type="text/css">*{stroke-linejoin: round; stroke-linecap: butt}</style>
 </defs>
 <g id="figure_1">
  <g id="patch_1">
   <path d="M 0 54.36 
L 558 54.36 
L 558 0 
L 0 0 
L 0 54.36 
z
" style="fill: none; opacity: 0"/>
  </g>
  <g id="axes_1">
   <g id="PolyCollection_1">
    <defs>
     <path id="m38691d31c1" d="M 369.854817 -2.470909 
L 369.854817 -3.950844 
L 370.801221 -4.096714 
L 371.747626 -4.264662 
L 372.69403 -4.454822 
L 373.640434 -4.664861 
L 374.586839 -4.890486 
L 375.533243 -5.126403 
L 376.479647 -5.367477 
L 377.426052 -5.609827 
L 378.372456 -5.851724 
L 379.31886 -6.094179 
L 380.265265 -6.341164 
L 381.211669 -6.599332 
L 382.158073 -6.877177 
L 383.104478 -7.183637 
L 384.050882 -7.526374 
L 384.997286 -7.910138 
L 385.943691 -8.335709 
L 386.890095 -8.799802 
L 387.836499 -9.296014 
L 388.782904 -9.816562 
L 389.729308 -10.354282 
L 390.675712 -10.904318 
L 391.622117 -11.465053 
L 392.568521 -12.038177 
L 393.514925 -12.627977 
L 394.46133 -13.240175 
L 395.407734 -13.880642 
L 396.354138 -14.554287 
L 397.300543 -15.264331 
L 398.246947 -16.012051 
L 399.193351 -16.796986 
L 400.139756 -17.617436 
L 401.08616 -18.471016 
L 402.032564 -19.35499 
L 402.978969 -20.266186 
L 403.925373 -21.200524 
L 404.871777 -22.152382 
L 405.818182 -23.114253 
L 406.764586 -24.077095 
L 407.710991 -25.031593 
L 408.657395 -25.970158 
L 409.603799 -26.889071 
L 410.550204 -27.78995 
L 411.496608 -28.679735 
L 412.443012 -29.568801 
L 413.389417 -30.46741 
L 414.335821 -31.381398 
L 415.282225 -32.308469 
L 416.22863 -33.236482 
L 417.175034 -34.144611 
L 418.121438 -35.007378 
L 419.067843 -35.800465 
L 420.014247 -36.506519 
L 420.960651 -37.119048 
L 421.907056 -37.643123 
L 422.85346 -38.092767 
L 423.799864 -38.486135 
L 424.746269 -38.840339 
L 425.692673 -39.167747 
L 426.639077 -39.474822 
L 427.585482 -39.763361 
L 428.531886 -40.033041 
L 429.47829 -40.283798 
L 430.424695 -40.516999 
L 431.371099 -40.735163 
L 432.317503 -40.940747 
L 433.263908 -41.134795 
L 434.210312 -41.316012 
L 435.156716 -41.480418 
L 436.103121 -41.621464 
L 437.049525 -41.73045 
L 437.995929 -41.797278 
L 438.942334 -41.811528 
L 439.888738 -41.763709 
L 440.835142 -41.646262 
L 441.781547 -41.453896 
L 442.727951 -41.18312 
L 443.674355 -40.831336 
L 444.62076 -40.396158 
L 445.567164 -39.875542 
L 446.513569 -39.268878 
L 447.459973 -38.578571 
L 448.406377 -37.811406 
L 449.352782 -36.979075 
L 450.299186 -36.097639 
L 451.24559 -35.186144 
L 452.191995 -34.264767 
L 453.138399 -33.352785 
L 454.084803 -32.466494 
L 455.031208 -31.617146 
L 455.977612 -30.809104 
L 456.924016 -30.038668 
L 457.870421 -29.294168 
L 458.816825 -28.55775 
L 459.763229 -27.808861 
L 460.709634 -27.028795 
L 461.656038 -26.205102 
L 462.602442 -25.334505 
L 463.548847 -24.423285 
L 464.495251 -23.484896 
L 465.441655 -22.535592 
L 466.38806 -21.589607 
L 467.334464 -20.655607 
L 468.280868 -19.735622 
L 469.227273 -18.826649 
L 470.173677 -17.924084 
L 471.120081 -17.025495 
L 472.066486 -16.133295 
L 473.01289 -15.255449 
L 473.959294 -14.404203 
L 474.905699 -13.593497 
L 475.852103 -12.836044 
L 476.798507 -12.140906 
L 477.744912 -11.512072 
L 478.691316 -10.948128 
L 479.63772 -10.442874 
L 480.584125 -9.986613 
L 481.530529 -9.567825 
L 482.476934 -9.174923 
L 483.423338 -8.797808 
L 484.369742 -8.428959 
L 485.316147 -8.063934 
L 486.262551 -7.701283 
L 487.208955 -7.342025 
L 488.15536 -6.988903 
L 489.101764 -6.645633 
L 490.048168 -6.316276 
L 490.994573 -6.00474 
L 491.940977 -5.714405 
L 492.887381 -5.44778 
L 493.833786 -5.206182 
L 494.78019 -4.989474 
L 495.726594 -4.795931 
L 496.672999 -4.622365 
L 497.619403 -4.464551 
L 498.565807 -4.317915 
L 499.512212 -4.178337 
L 499.512212 -2.470909 
L 499.512212 -2.470909 
L 498.565807 -2.470909 
L 497.619403 -2.470909 
L 496.672999 -2.470909 
L 495.726594 -2.470909 
L 494.78019 -2.470909 
L 493.833786 -2.470909 
L 492.887381 -2.470909 
L 491.940977 -2.470909 
L 490.994573 -2.470909 
L 490.048168 -2.470909 
L 489.101764 -2.470909 
L 488.15536 -2.470909 
L 487.208955 -2.470909 
L 486.262551 -2.470909 
L 485.316147 -2.470909 
L 484.369742 -2.470909 
L 483.423338 -2.470909 
L 482.476934 -2.470909 
L 481.530529 -2.470909 
L 480.584125 -2.470909 
L 479.63772 -2.470909 
L 478.691316 -2.470909 
L 477.744912 -2.470909 
L 476.798507 -2.470909 
L 475.852103 -2.470909 
L 474.905699 -2.470909 
L 473.959294 -2.470909 
L 473.01289 -2.470909 
L 472.066486 -2.470909 
L 471.120081 -2.470909 
L 470.173677 -2.470909 
L 469.227273 -2.470909 
L 468.280868 -2.470909 
L 467.334464 -2.470909 
L 466.38806 -2.470909 
L 465.441655 -2.470909 
L 464.495251 -2.470909 
L 463.548847 -2.470909 
L 462.602442 -2.470909 
L 461.656038 -2.470909 
L 460.709634 -2.470909 
L 459.763229 -2.470909 
L 458.816825 -2.470909 
L 457.870421 -2.470909 
L 456.924016 -2.470909 
L 455.977612 -2.470909 
L 455.031208 -2.470909 
L 454.084803 -2.470909 
L 453.138399 -2.470909 
L 452.191995 -2.470909 
L 451.24559 -2.470909 
L 450.299186 -2.470909 
L 449.352782 -2.470909 
L 448.406377 -2.470909 
L 447.459973 -2.470909 
L 446.513569 -2.470909 
L 445.567164 -2.470909 
L 444.62076 -2.470909 
L 443.674355 -2.470909 
L 442.727951 -2.470909 
L 441.781547 -2.470909 
L 440.835142 -2.470909 
L 439.888738 -2.470909 
L 438.942334 -2.470909 
L 437.995929 -2.470909 
L 437.049525 -2.470909 
L 436.103121 -2.470909 
L 435.156716 -2.470909 
L 434.210312 -2.470909 
L 433.263908 -2.470909 
L 432.317503 -2.470909 
L 431.371099 -2.470909 
L 430.424695 -2.470909 
L 429.47829 -2.470909 
L 428.531886 -2.470909 
L 427.585482 -2.470909 
L 426.639077 -2.470909 
L 425.692673 -2.470909 
L 424.746269 -2.470909 
L 423.799864 -2.470909 
L 422.85346 -2.470909 
L 421.907056 -2.470909 
L 420.960651 -2.470909 
L 420.014247 -2.470909 
L 419.067843 -2.470909 
L 418.121438 -2.470909 
L 417.175034 -2.470909 
L 416.22863 -2.470909 
L 415.282225 -2.470909 
L 414.335821 -2.470909 
L 413.389417 -2.470909 
L 412.443012 -2.470909 
L 411.496608 -2.470909 
L 410.550204 -2.470909 
L 409.603799 -2.470909 
L 408.657395 -2.470909 
L 407.710991 -2.470909 
L 406.764586 -2.470909 
L 405.818182 -2.470909 
L 404.871777 -2.470909 
L 403.925373 -2.470909 
L 402.978969 -2.470909 
L 402.032564 -2.470909 
L 401.08616 -2.470909 
L 400.139756 -2.470909 
L 399.193351 -2.470909 
L 398.246947 -2.470909 
L 397.300543 -2.470909 
L 396.354138 -2.470909 
L 395.407734 -2.470909 
L 394.46133 -2.470909 
L 393.514925 -2.470909 
L 392.568521 -2.470909 
L 391.622117 -2.470909 
L 390.675712 -2.470909 
L 389.729308 -2.470909 
L 388.782904 -2.470909 
L 387.836499 -2.470909 
L 386.890095 -2.470909 
L 385.943691 -2.470909 
L 384.997286 -2.470909 
L 384.050882 -2.470909 
L 383.104478 -2.470909 
L 382.158073 -2.470909 
L 381.211669 -2.470909 
L 380.265265 -2.470909 
L 379.31886 -2.470909 
L 378.372456 -2.470909 
L 377.426052 -2.470909 
L 376.479647 -2.470909 
L 375.533243 -2.470909 
L 374.586839 -2.470909 
L 373.640434 -2.470909 
L 372.69403 -2.470909 
L 371.747626 -2.470909 
L 370.801221 -2.470909 
L 369.854817 -2.470909 
z
" style="stroke: #cf1313; stroke-opacity: 0.2"/>
    </defs>
    <g clip-path="url(#p21dcd81613)">
     <use xlink:href="#m38691d31c1" x="0" y="54.36" style="fill: #cf1313; fill-opacity: 0.2; stroke: #cf1313; stroke-opacity: 0.2"/>
    </g>
   </g>
   <g id="PolyCollection_2">
    <defs>
     <path id="m4de6bcb5c7" d="M 395.407734 -2.470909 
L 395.407734 -4.197506 
L 396.354138 -4.320025 
L 397.300543 -4.433175 
L 398.246947 -4.539195 
L 399.193351 -4.643679 
L 400.139756 -4.755057 
L 401.08616 -4.883541 
L 402.032564 -5.039741 
L 402.978969 -5.23319 
L 403.925373 -5.471019 
L 404.871777 -5.756973 
L 405.818182 -6.090887 
L 406.764586 -6.468695 
L 407.710991 -6.882977 
L 408.657395 -7.323982 
L 409.603799 -7.781024 
L 410.550204 -8.244053 
L 411.496608 -8.70519 
L 412.443012 -9.15991 
L 413.389417 -9.607647 
L 414.335821 -10.05165 
L 415.282225 -10.498087 
L 416.22863 -10.954628 
L 417.175034 -11.428861 
L 418.121438 -11.926952 
L 419.067843 -12.452875 
L 420.014247 -13.008304 
L 420.960651 -13.59305 
L 421.907056 -14.20576 
L 422.85346 -14.844596 
L 423.799864 -15.507723 
L 424.746269 -16.193658 
L 425.692673 -16.901615 
L 426.639077 -17.632015 
L 427.585482 -18.387134 
L 428.531886 -19.171642 
L 429.47829 -19.992593 
L 430.424695 -20.858457 
L 431.371099 -21.777031 
L 432.317503 -22.752489 
L 433.263908 -23.782292 
L 434.210312 -24.854905 
L 435.156716 -25.949256 
L 436.103121 -27.036448 
L 437.049525 -28.083645 
L 437.995929 -29.059367 
L 438.942334 -29.938988 
L 439.888738 -30.709115 
L 440.835142 -31.36974 
L 441.781547 -31.93368 
L 442.727951 -32.423449 
L 443.674355 -32.866358 
L 444.62076 -33.289045 
L 445.567164 -33.712679 
L 446.513569 -34.149896 
L 447.459973 -34.604004 
L 448.406377 -35.070447 
L 449.352782 -35.53995 
L 450.299186 -36.002399 
L 451.24559 -36.450407 
L 452.191995 -36.881631 
L 453.138399 -37.299289 
L 454.084803 -37.71082 
L 455.031208 -38.12511 
L 455.977612 -38.549132 
L 456.924016 -38.984943 
L 457.870421 -39.427899 
L 458.816825 -39.866515 
L 459.763229 -40.283931 
L 460.709634 -40.660479 
L 461.656038 -40.976653 
L 462.602442 -41.215794 
L 463.548847 -41.366101 
L 464.495251 -41.421782 
L 465.441655 -41.38341 
L 466.38806 -41.2575 
L 467.334464 -41.055372 
L 468.280868 -40.791284 
L 469.227273 -40.480008 
L 470.173677 -40.134202 
L 471.120081 -39.76214 
L 472.066486 -39.366433 
L 473.01289 -38.944165 
L 473.959294 -38.48848 
L 474.905699 -37.991188 
L 475.852103 -37.44556 
L 476.798507 -36.848403 
L 477.744912 -36.20076 
L 478.691316 -35.507108 
L 479.63772 -34.773535 
L 480.584125 -34.005799 
L 481.530529 -33.208155 
L 482.476934 -32.383486 
L 483.423338 -31.534592 
L 484.369742 -30.66594 
L 485.316147 -29.784942 
L 486.262551 -28.902002 
L 487.208955 -28.029184 
L 488.15536 -27.177933 
L 489.101764 -26.356749 
L 490.048168 -25.569676 
L 490.994573 -24.816135 
L 491.940977 -24.092063 
L 492.887381 -23.3918 
L 493.833786 -22.709956 
L 494.78019 -22.04259 
L 495.726594 -21.387355 
L 496.672999 -20.742764 
L 497.619403 -20.107015 
L 498.565807 -19.477025 
L 499.512212 -18.848162 
L 500.458616 -18.214911 
L 501.40502 -17.572273 
L 502.351425 -16.917438 
L 503.297829 -16.251086 
L 504.244233 -15.577825 
L 505.190638 -14.905554 
L 506.137042 -14.243936 
L 507.083446 -13.602454 
L 508.029851 -12.988655 
L 508.976255 -12.407042 
L 509.922659 -11.858876 
L 510.869064 -11.342762 
L 511.815468 -10.855723 
L 512.761872 -10.394305 
L 513.708277 -9.955356 
L 514.654681 -9.536288 
L 515.601085 -9.134905 
L 516.54749 -8.749027 
L 517.493894 -8.376268 
L 518.440299 -8.014149 
L 519.386703 -7.660587 
L 520.333107 -7.314516 
L 521.279512 -6.976334 
L 522.225916 -6.64788 
L 523.17232 -6.331916 
L 524.118725 -6.031273 
L 525.065129 -5.748026 
L 526.011533 -5.483015 
L 526.957938 -5.235872 
L 527.904342 -5.005475 
L 528.850746 -4.790566 
L 529.797151 -4.590257 
L 530.743555 -4.404216 
L 531.689959 -4.232531 
L 532.636364 -4.075382 
L 532.636364 -2.470909 
L 532.636364 -2.470909 
L 531.689959 -2.470909 
L 530.743555 -2.470909 
L 529.797151 -2.470909 
L 528.850746 -2.470909 
L 527.904342 -2.470909 
L 526.957938 -2.470909 
L 526.011533 -2.470909 
L 525.065129 -2.470909 
L 524.118725 -2.470909 
L 523.17232 -2.470909 
L 522.225916 -2.470909 
L 521.279512 -2.470909 
L 520.333107 -2.470909 
L 519.386703 -2.470909 
L 518.440299 -2.470909 
L 517.493894 -2.470909 
L 516.54749 -2.470909 
L 515.601085 -2.470909 
L 514.654681 -2.470909 
L 513.708277 -2.470909 
L 512.761872 -2.470909 
L 511.815468 -2.470909 
L 510.869064 -2.470909 
L 509.922659 -2.470909 
L 508.976255 -2.470909 
L 508.029851 -2.470909 
L 507.083446 -2.470909 
L 506.137042 -2.470909 
L 505.190638 -2.470909 
L 504.244233 -2.470909 
L 503.297829 -2.470909 
L 502.351425 -2.470909 
L 501.40502 -2.470909 
L 500.458616 -2.470909 
L 499.512212 -2.470909 
L 498.565807 -2.470909 
L 497.619403 -2.470909 
L 496.672999 -2.470909 
L 495.726594 -2.470909 
L 494.78019 -2.470909 
L 493.833786 -2.470909 
L 492.887381 -2.470909 
L 491.940977 -2.470909 
L 490.994573 -2.470909 
L 490.048168 -2.470909 
L 489.101764 -2.470909 
L 488.15536 -2.470909 
L 487.208955 -2.470909 
L 486.262551 -2.470909 
L 485.316147 -2.470909 
L 484.369742 -2.470909 
L 483.423338 -2.470909 
L 482.476934 -2.470909 
L 481.530529 -2.470909 
L 480.584125 -2.470909 
L 479.63772 -2.470909 
L 478.691316 -2.470909 
L 477.744912 -2.470909 
L 476.798507 -2.470909 
L 475.852103 -2.470909 
L 474.905699 -2.470909 
L 473.959294 -2.470909 
L 473.01289 -2.470909 
L 472.066486 -2.470909 
L 471.120081 -2.470909 
L 470.173677 -2.470909 
L 469.227273 -2.470909 
L 468.280868 -2.470909 
L 467.334464 -2.470909 
L 466.38806 -2.470909 
L 465.441655 -2.470909 
L 464.495251 -2.470909 
L 463.548847 -2.470909 
L 462.602442 -2.470909 
L 461.656038 -2.470909 
L 460.709634 -2.470909 
L 459.763229 -2.470909 
L 458.816825 -2.470909 
L 457.870421 -2.470909 
L 456.924016 -2.470909 
L 455.977612 -2.470909 
L 455.031208 -2.470909 
L 454.084803 -2.470909 
L 453.138399 -2.470909 
L 452.191995 -2.470909 
L 451.24559 -2.470909 
L 450.299186 -2.470909 
L 449.352782 -2.470909 
L 448.406377 -2.470909 
L 447.459973 -2.470909 
L 446.513569 -2.470909 
L 445.567164 -2.470909 
L 444.62076 -2.470909 
L 443.674355 -2.470909 
L 442.727951 -2.470909 
L 441.781547 -2.470909 
L 440.835142 -2.470909 
L 439.888738 -2.470909 
L 438.942334 -2.470909 
L 437.995929 -2.470909 
L 437.049525 -2.470909 
L 436.103121 -2.470909 
L 435.156716 -2.470909 
L 434.210312 -2.470909 
L 433.263908 -2.470909 
L 432.317503 -2.470909 
L 431.371099 -2.470909 
L 430.424695 -2.470909 
L 429.47829 -2.470909 
L 428.531886 -2.470909 
L 427.585482 -2.470909 
L 426.639077 -2.470909 
L 425.692673 -2.470909 
L 424.746269 -2.470909 
L 423.799864 -2.470909 
L 422.85346 -2.470909 
L 421.907056 -2.470909 
L 420.960651 -2.470909 
L 420.014247 -2.470909 
L 419.067843 -2.470909 
L 418.121438 -2.470909 
L 417.175034 -2.470909 
L 416.22863 -2.470909 
L 415.282225 -2.470909 
L 414.335821 -2.470909 
L 413.389417 -2.470909 
L 412.443012 -2.470909 
L 411.496608 -2.470909 
L 410.550204 -2.470909 
L 409.603799 -2.470909 
L 408.657395 -2.470909 
L 407.710991 -2.470909 
L 406.764586 -2.470909 
L 405.818182 -2.470909 
L 404.871777 -2.470909 
L 403.925373 -2.470909 
L 402.978969 -2.470909 
L 402.032564 -2.470909 
L 401.08616 -2.470909 
L 400.139756 -2.470909 
L 399.193351 -2.470909 
L 398.246947 -2.470909 
L 397.300543 -2.470909 
L 396.354138 -2.470909 
L 395.407734 -2.470909 
z
" style="stroke: #116dc2; stroke-opacity: 0.2"/>
    </defs>
    <g clip-path="url(#p21dcd81613)">
     <use xlink:href="#m4de6bcb5c7" x="0" y="54.36" style="fill: #116dc2; fill-opacity: 0.2; stroke: #116dc2; stroke-opacity: 0.2"/>
    </g>
   </g>
   <g id="PolyCollection_3">
    <defs>
     <path id="m07b0670089" d="M 25.363636 -2.470909 
L 25.363636 -5.251402 
L 26.310041 -6.079041 
L 27.256445 -7.116498 
L 28.202849 -8.357876 
L 29.149254 -9.74264 
L 30.095658 -11.329233 
L 31.042062 -13.270475 
L 31.988467 -15.620309 
L 32.934871 -18.273805 
L 33.881275 -21.031924 
L 34.82768 -23.780364 
L 35.774084 -26.66861 
L 36.720488 -29.838624 
L 37.666893 -33.05371 
L 38.613297 -36.066973 
L 39.559701 -39.059032 
L 40.506106 -42.078265 
L 41.45251 -44.805439 
L 42.398915 -47.176182 
L 43.345319 -49.351247 
L 44.291723 -51.076865 
L 45.238128 -51.889091 
L 46.184532 -51.556845 
L 47.130936 -50.129007 
L 48.077341 -48.221948 
L 49.023745 -46.507736 
L 49.970149 -44.825007 
L 50.916554 -42.634682 
L 51.862958 -39.902004 
L 52.809362 -36.91731 
L 53.755767 -33.718127 
L 54.702171 -30.09653 
L 55.648575 -26.116224 
L 56.59498 -22.220203 
L 57.541384 -18.883381 
L 58.487788 -16.25225 
L 59.434193 -14.10911 
L 60.380597 -12.302055 
L 61.327001 -10.808578 
L 62.273406 -9.473222 
L 63.21981 -8.107018 
L 64.166214 -6.765565 
L 65.112619 -5.652363 
L 66.059023 -4.821053 
L 66.059023 -2.470909 
L 66.059023 -2.470909 
L 65.112619 -2.470909 
L 64.166214 -2.470909 
L 63.21981 -2.470909 
L 62.273406 -2.470909 
L 61.327001 -2.470909 
L 60.380597 -2.470909 
L 59.434193 -2.470909 
L 58.487788 -2.470909 
L 57.541384 -2.470909 
L 56.59498 -2.470909 
L 55.648575 -2.470909 
L 54.702171 -2.470909 
L 53.755767 -2.470909 
L 52.809362 -2.470909 
L 51.862958 -2.470909 
L 50.916554 -2.470909 
L 49.970149 -2.470909 
L 49.023745 -2.470909 
L 48.077341 -2.470909 
L 47.130936 -2.470909 
L 46.184532 -2.470909 
L 45.238128 -2.470909 
L 44.291723 -2.470909 
L 43.345319 -2.470909 
L 42.398915 -2.470909 
L 41.45251 -2.470909 
L 40.506106 -2.470909 
L 39.559701 -2.470909 
L 38.613297 -2.470909 
L 37.666893 -2.470909 
L 36.720488 -2.470909 
L 35.774084 -2.470909 
L 34.82768 -2.470909 
L 33.881275 -2.470909 
L 32.934871 -2.470909 
L 31.988467 -2.470909 
L 31.042062 -2.470909 
L 30.095658 -2.470909 
L 29.149254 -2.470909 
L 28.202849 -2.470909 
L 27.256445 -2.470909 
L 26.310041 -2.470909 
L 25.363636 -2.470909 
z
" style="stroke: #8a8a8a; stroke-opacity: 0.2"/>
    </defs>
    <g clip-path="url(#p21dcd81613)">
     <use xlink:href="#m07b0670089" x="0" y="54.36" style="fill: #8a8a8a; fill-opacity: 0.2; stroke: #8a8a8a; stroke-opacity: 0.2"/>
    </g>
   </g>
   <g id="line2d_1">
    <path d="M 369.854817 50.409156 
L 372.69403 49.905178 
L 377.426052 48.750173 
L 382.158073 47.482823 
L 384.997286 46.449862 
L 387.836499 45.063986 
L 391.622117 42.894947 
L 395.407734 40.479358 
L 398.246947 38.347949 
L 401.08616 35.888984 
L 404.871777 32.207618 
L 410.550204 26.57005 
L 419.067843 18.559535 
L 420.960651 17.240952 
L 422.85346 16.267233 
L 425.692673 15.192253 
L 429.47829 14.076202 
L 433.263908 13.225205 
L 436.103121 12.738536 
L 437.995929 12.562722 
L 439.888738 12.596291 
L 441.781547 12.906104 
L 443.674355 13.528664 
L 445.567164 14.484458 
L 447.459973 15.781429 
L 449.352782 17.380925 
L 456.924016 24.321332 
L 461.656038 28.154898 
L 464.495251 30.875104 
L 470.173677 36.435916 
L 473.959294 39.955797 
L 475.852103 41.523956 
L 477.744912 42.847928 
L 479.63772 43.917126 
L 482.476934 45.185077 
L 489.101764 47.714367 
L 491.940977 48.645595 
L 494.78019 49.370526 
L 498.565807 50.042085 
L 499.512212 50.181663 
L 499.512212 50.181663 
" clip-path="url(#p21dcd81613)" style="fill: none; stroke: #cf1313; stroke-width: 1.5; stroke-linecap: square"/>
   </g>
   <g id="line2d_2">
    <path d="M 395.407734 50.162494 
L 402.978969 49.12681 
L 404.871777 48.603027 
L 406.764586 47.891305 
L 410.550204 46.115947 
L 419.067843 41.907125 
L 421.907056 40.15424 
L 424.746269 38.166342 
L 427.585482 35.972866 
L 430.424695 33.501543 
L 432.317503 31.607511 
L 435.156716 28.410744 
L 437.995929 25.300633 
L 439.888738 23.650885 
L 441.781547 22.42632 
L 444.62076 21.070955 
L 448.406377 19.289553 
L 453.138399 17.060711 
L 461.656038 13.383347 
L 463.548847 12.993899 
L 465.441655 12.97659 
L 467.334464 13.304628 
L 469.227273 13.879992 
L 472.066486 14.993567 
L 474.905699 16.368812 
L 476.798507 17.511597 
L 479.63772 19.586465 
L 482.476934 21.976514 
L 490.994573 29.543865 
L 494.78019 32.31741 
L 508.029851 41.371345 
L 510.869064 43.017238 
L 513.708277 44.404644 
L 517.493894 45.983732 
L 522.225916 47.71212 
L 526.011533 48.876985 
L 529.797151 49.769743 
L 532.636364 50.284618 
L 532.636364 50.284618 
" clip-path="url(#p21dcd81613)" style="fill: none; stroke: #116dc2; stroke-width: 1.5; stroke-linecap: square"/>
   </g>
   <g id="line2d_3">
    <path d="M 25.363636 49.108598 
L 26.310041 48.280959 
L 27.256445 47.243502 
L 28.202849 46.002124 
L 29.149254 44.61736 
L 30.095658 43.030767 
L 31.042062 41.089525 
L 31.988467 38.739691 
L 32.934871 36.086195 
L 33.881275 33.328076 
L 34.82768 30.579636 
L 35.774084 27.69139 
L 36.720488 24.521376 
L 37.666893 21.30629 
L 38.613297 18.293027 
L 39.559701 15.300968 
L 40.506106 12.281735 
L 41.45251 9.554561 
L 42.398915 7.183818 
L 43.345319 5.008753 
L 44.291723 3.283135 
L 45.238128 2.470909 
L 46.184532 2.803155 
L 47.130936 4.230993 
L 48.077341 6.138052 
L 49.023745 7.852264 
L 49.970149 9.534993 
L 50.916554 11.725318 
L 51.862958 14.457996 
L 52.809362 17.44269 
L 53.755767 20.641873 
L 54.702171 24.26347 
L 55.648575 28.243776 
L 56.59498 32.139797 
L 57.541384 35.476619 
L 58.487788 38.10775 
L 59.434193 40.25089 
L 60.380597 42.057945 
L 61.327001 43.551422 
L 62.273406 44.886778 
L 63.21981 46.252982 
L 64.166214 47.594435 
L 65.112619 48.707637 
L 66.059023 49.538947 
" clip-path="url(#p21dcd81613)" style="fill: none; stroke: #8a8a8a; stroke-width: 1.5; stroke-linecap: square"/>
   </g>
  </g>
 </g>
 <defs>
  <clipPath id="p21dcd81613">
   <rect x="0" y="-0" width="558" height="54.36"/>
  </clipPath>
 </defs>
</svg>
