<?xml version="1.0" encoding="utf-8" standalone="no"?>
<!DOCTYPE svg PUBLIC "-//W3C//DTD SVG 1.1//EN"
  "http://www.w3.org/Graphics/SVG/1.1/DTD/svg11.dtd">
<svg xmlns:xlink="http://www.w3.org/1999/xlink" width="558pt" height="54.36pt" viewBox="0 0 558 54.36" xmlns="http://www.w3.org/2000/svg" version="1.1">
 <metadata>
  <rdf:RDF xmlns:dc="http://purl.org/dc/elements/1.1/" xmlns:cc="http://creativecommons.org/ns#" xmlns:rdf="http://www.w3.org/1999/02/22-rdf-syntax-ns#">
   <cc:Work>
    <dc:type rdf:resource="http://purl.org/dc/dcmitype/StillImage"/>
    <dc:date>2024-09-14T12:46:40.521373</dc:date>
    <dc:format>image/svg+xml</dc:format>
    <dc:creator>
     <cc:Agent>
      <dc:title>Matplotlib v3.5.2, https://matplotlib.org/</dc:title>
     </cc:Agent>
    </dc:creator>
   </cc:Work>
  </rdf:RDF>
 </metadata>
 <defs>
  <style type="text/css">*{stroke-linejoin: round; stroke-linecap: butt}</style>
 </defs>
 <g id="figure_1">
  <g id="patch_1">
   <path d="M 0 54.36 
L 558 54.36 
L 558 0 
L 0 0 
L 0 54.36 
z
" style="fill: none; opacity: 0"/>
  </g>
  <g id="axes_1">
   <g id="PolyCollection_1">
    <defs>
     <path id="m4752e7794f" d="M 283.785592 -2.470909 
L 283.785592 -3.656392 
L 284.317324 -3.68693 
L 284.849057 -3.718816 
L 285.380789 -3.752196 
L 285.912521 -3.787216 
L 286.444254 -3.824016 
L 286.975986 -3.862729 
L 287.507719 -3.903477 
L 288.039451 -3.946369 
L 288.571184 -3.991499 
L 289.102916 -4.038939 
L 289.634648 -4.088743 
L 290.166381 -4.140942 
L 290.698113 -4.195545 
L 291.229846 -4.252535 
L 291.761578 -4.311874 
L 292.29331 -4.373498 
L 292.825043 -4.437322 
L 293.356775 -4.503241 
L 293.888508 -4.571131 
L 294.42024 -4.640851 
L 294.951973 -4.712247 
L 295.483705 -4.785155 
L 296.015437 -4.859401 
L 296.54717 -4.934809 
L 297.078902 -5.011201 
L 297.610635 -5.088398 
L 298.142367 -5.166227 
L 298.674099 -5.244524 
L 299.205832 -5.32313 
L 299.737564 -5.4019 
L 300.269297 -5.4807 
L 300.801029 -5.559412 
L 301.332762 -5.637931 
L 301.864494 -5.71617 
L 302.396226 -5.794055 
L 302.927959 -5.87153 
L 303.459691 -5.948554 
L 303.991424 -6.025101 
L 304.523156 -6.10116 
L 305.054889 -6.176734 
L 305.586621 -6.251836 
L 306.118353 -6.326495 
L 306.650086 -6.400746 
L 307.181818 -6.474638 
L 307.713551 -6.548227 
L 308.245283 -6.621576 
L 308.777015 -6.694758 
L 309.308748 -6.767851 
L 309.84048 -6.84094 
L 310.372213 -6.914117 
L 310.903945 -6.987479 
L 311.435678 -7.061129 
L 311.96741 -7.135175 
L 312.499142 -7.209735 
L 313.030875 -7.284929 
L 313.562607 -7.360885 
L 314.09434 -7.437738 
L 314.626072 -7.515629 
L 315.157804 -7.594706 
L 315.689537 -7.675121 
L 316.221269 -7.757036 
L 316.753002 -7.840615 
L 317.284734 -7.926029 
L 317.816467 -8.013449 
L 318.348199 -8.103053 
L 318.879931 -8.195017 
L 319.411664 -8.289518 
L 319.943396 -8.38673 
L 320.475129 -8.486823 
L 321.006861 -8.589964 
L 321.538593 -8.696307 
L 322.070326 -8.806002 
L 322.602058 -8.919185 
L 323.133791 -9.035978 
L 323.665523 -9.156492 
L 324.197256 -9.280818 
L 324.728988 -9.409034 
L 325.26072 -9.541199 
L 325.792453 -9.677351 
L 326.324185 -9.817513 
L 326.855918 -9.961686 
L 327.38765 -10.109852 
L 327.919383 -10.261975 
L 328.451115 -10.417999 
L 328.982847 -10.577849 
L 329.51458 -10.74143 
L 330.046312 -10.908632 
L 330.578045 -11.079324 
L 331.109777 -11.253359 
L 331.641509 -11.430573 
L 332.173242 -11.610785 
L 332.704974 -11.793799 
L 333.236707 -11.979402 
L 333.768439 -12.167369 
L 334.300172 -12.357462 
L 334.831904 -12.54943 
L 335.363636 -12.743012 
L 335.895369 -12.937941 
L 336.427101 -13.133942 
L 336.958834 -13.330737 
L 337.490566 -13.528051 
L 338.022298 -13.725609 
L 338.554031 -13.923142 
L 339.085763 -14.120394 
L 339.617496 -14.317121 
L 340.149228 -14.513094 
L 340.680961 -14.708108 
L 341.212693 -14.901981 
L 341.744425 -15.094555 
L 342.276158 -15.285704 
L 342.80789 -15.475332 
L 343.339623 -15.663373 
L 343.871355 -15.849797 
L 344.403087 -16.034605 
L 344.93482 -16.217828 
L 345.466552 -16.399532 
L 345.998285 -16.579807 
L 346.530017 -16.758772 
L 347.06175 -16.936568 
L 347.593482 -17.113356 
L 348.125214 -17.289314 
L 348.656947 -17.46463 
L 349.188679 -17.639503 
L 349.720412 -17.814138 
L 350.252144 -17.98874 
L 350.783877 -18.163514 
L 351.315609 -18.338663 
L 351.847341 -18.514381 
L 352.379074 -18.690858 
L 352.910806 -18.868275 
L 353.442539 -19.046802 
L 353.974271 -19.226603 
L 354.506003 -19.407834 
L 355.037736 -19.590641 
L 355.569468 -19.775165 
L 356.101201 -19.961543 
L 356.632933 -20.149908 
L 357.164666 -20.340389 
L 357.696398 -20.533116 
L 358.22813 -20.72822 
L 358.759863 -20.925831 
L 359.291595 -21.126084 
L 359.823328 -21.329111 
L 360.35506 -21.535048 
L 360.886792 -21.74403 
L 361.418525 -21.95619 
L 361.950257 -22.171655 
L 362.48199 -22.390545 
L 363.013722 -22.612971 
L 363.545455 -22.839027 
L 364.077187 -23.068786 
L 364.608919 -23.302301 
L 365.140652 -23.539594 
L 365.672384 -23.780653 
L 366.204117 -24.025429 
L 366.735849 -24.27383 
L 367.267581 -24.525718 
L 367.799314 -24.780906 
L 368.331046 -25.039153 
L 368.862779 -25.300163 
L 369.394511 -25.563589 
L 369.926244 -25.829026 
L 370.457976 -26.096017 
L 370.989708 -26.364053 
L 371.521441 -26.632581 
L 372.053173 -26.901004 
L 372.584906 -27.168691 
L 373.116638 -27.434982 
L 373.64837 -27.699197 
L 374.180103 -27.960645 
L 374.711835 -28.218635 
L 375.243568 -28.472484 
L 375.7753 -28.721527 
L 376.307033 -28.96513 
L 376.838765 -29.202698 
L 377.370497 -29.433683 
L 377.90223 -29.657596 
L 378.433962 -29.874012 
L 378.965695 -30.082576 
L 379.497427 -30.283012 
L 380.02916 -30.475121 
L 380.560892 -30.658787 
L 381.092624 -30.833973 
L 381.624357 -31.000726 
L 382.156089 -31.159168 
L 382.687822 -31.309493 
L 383.219554 -31.451964 
L 383.751286 -31.586899 
L 384.283019 -31.714672 
L 384.814751 -31.835695 
L 385.346484 -31.950414 
L 385.878216 -32.059295 
L 386.409949 -32.162819 
L 386.941681 -32.261468 
L 387.473413 -32.355714 
L 388.005146 -32.446017 
L 388.536878 -32.532811 
L 389.068611 -32.616499 
L 389.600343 -32.697446 
L 390.132075 -32.775977 
L 390.663808 -32.85237 
L 391.19554 -32.926859 
L 391.727273 -32.999626 
L 392.259005 -33.070806 
L 392.790738 -33.140487 
L 393.32247 -33.208712 
L 393.854202 -33.275483 
L 394.385935 -33.340761 
L 394.917667 -33.404474 
L 395.4494 -33.46652 
L 395.981132 -33.52677 
L 396.512864 -33.585076 
L 397.044597 -33.641273 
L 397.576329 -33.695185 
L 398.108062 -33.746627 
L 398.639794 -33.795414 
L 399.171527 -33.841359 
L 399.703259 -33.884281 
L 400.234991 -33.924007 
L 400.766724 -33.960373 
L 401.298456 -33.993229 
L 401.830189 -34.02244 
L 402.361921 -34.047891 
L 402.893654 -34.069484 
L 403.425386 -34.087142 
L 403.957118 -34.100813 
L 404.488851 -34.110464 
L 405.020583 -34.116091 
L 405.552316 -34.11771 
L 406.084048 -34.115365 
L 406.61578 -34.109123 
L 407.147513 -34.099074 
L 407.679245 -34.085329 
L 408.210978 -34.068022 
L 408.74271 -34.047304 
L 409.274443 -34.02334 
L 409.806175 -33.996311 
L 410.337907 -33.966403 
L 410.86964 -33.93381 
L 411.401372 -33.898725 
L 411.933105 -33.861342 
L 412.464837 -33.821844 
L 412.996569 -33.780405 
L 413.528302 -33.737185 
L 414.060034 -33.692326 
L 414.591767 -33.64595 
L 415.123499 -33.598154 
L 415.655232 -33.549013 
L 416.186964 -33.498577 
L 416.718696 -33.446869 
L 417.250429 -33.393886 
L 417.782161 -33.339602 
L 418.313894 -33.283968 
L 418.845626 -33.226914 
L 419.377358 -33.168347 
L 419.909091 -33.108162 
L 420.440823 -33.046236 
L 420.972556 -32.982432 
L 421.504288 -32.916606 
L 422.036021 -32.848601 
L 422.567753 -32.778253 
L 423.099485 -32.705392 
L 423.631218 -32.62984 
L 424.16295 -32.551414 
L 424.694683 -32.469927 
L 425.226415 -32.385186 
L 425.758148 -32.296992 
L 426.28988 -32.205145 
L 426.821612 -32.10944 
L 427.353345 -32.009672 
L 427.885077 -31.905635 
L 428.41681 -31.797127 
L 428.948542 -31.683952 
L 429.480274 -31.565926 
L 430.012007 -31.442876 
L 430.543739 -31.314651 
L 431.075472 -31.181125 
L 431.607204 -31.042198 
L 432.138937 -30.897808 
L 432.670669 -30.747929 
L 433.202401 -30.592582 
L 433.734134 -30.431832 
L 434.265866 -30.265794 
L 434.797599 -30.094632 
L 435.329331 -29.918562 
L 435.861063 -29.737847 
L 436.392796 -29.552796 
L 436.924528 -29.36376 
L 437.456261 -29.171125 
L 437.987993 -28.975307 
L 438.519726 -28.776743 
L 439.051458 -28.575882 
L 439.58319 -28.373179 
L 440.114923 -28.169082 
L 440.646655 -27.964026 
L 441.178388 -27.758425 
L 441.71012 -27.552658 
L 442.241852 -27.347071 
L 442.773585 -27.141964 
L 443.305317 -26.937588 
L 443.83705 -26.734144 
L 444.368782 -26.531779 
L 444.900515 -26.330587 
L 445.432247 -26.13061 
L 445.963979 -25.931838 
L 446.495712 -25.73422 
L 447.027444 -25.537659 
L 447.559177 -25.342029 
L 448.090909 -25.14717 
L 448.622642 -24.952907 
L 449.154374 -24.759047 
L 449.686106 -24.565393 
L 450.217839 -24.371749 
L 450.749571 -24.177925 
L 451.281304 -23.983746 
L 451.813036 -23.789053 
L 452.344768 -23.593713 
L 452.876501 -23.397616 
L 453.408233 -23.20068 
L 453.939966 -23.002853 
L 454.471698 -22.804112 
L 455.003431 -22.604461 
L 455.535163 -22.403929 
L 456.066895 -22.20257 
L 456.598628 -22.000457 
L 457.13036 -21.79768 
L 457.662093 -21.59434 
L 458.193825 -21.390549 
L 458.725557 -21.186421 
L 459.25729 -20.982071 
L 459.789022 -20.777614 
L 460.320755 -20.573156 
L 460.852487 -20.368798 
L 461.38422 -20.164629 
L 461.915952 -19.960729 
L 462.447684 -19.757168 
L 462.979417 -19.554003 
L 463.511149 -19.351283 
L 464.042882 -19.149046 
L 464.574614 -18.947324 
L 465.106346 -18.746144 
L 465.638079 -18.545529 
L 466.169811 -18.3455 
L 466.701544 -18.146077 
L 467.233276 -17.947285 
L 467.765009 -17.749149 
L 468.296741 -17.551699 
L 468.828473 -17.354971 
L 469.360206 -17.159006 
L 469.891938 -16.963847 
L 470.423671 -16.769546 
L 470.955403 -16.576156 
L 471.487136 -16.383734 
L 472.018868 -16.192339 
L 472.5506 -16.002031 
L 473.082333 -15.812869 
L 473.614065 -15.624911 
L 474.145798 -15.438213 
L 474.67753 -15.252828 
L 475.209262 -15.068806 
L 475.740995 -14.886193 
L 476.272727 -14.705031 
L 476.80446 -14.525358 
L 477.336192 -14.347209 
L 477.867925 -14.170618 
L 478.399657 -13.995612 
L 478.931389 -13.822219 
L 479.463122 -13.650464 
L 479.994854 -13.480369 
L 480.526587 -13.311953 
L 481.058319 -13.145235 
L 481.590051 -12.980229 
L 482.121784 -12.816944 
L 482.653516 -12.655387 
L 483.185249 -12.495555 
L 483.716981 -12.337441 
L 484.248714 -12.181029 
L 484.780446 -12.026293 
L 485.312178 -11.873199 
L 485.843911 -11.721701 
L 486.375643 -11.571743 
L 486.907376 -11.423262 
L 487.439108 -11.276183 
L 487.97084 -11.130425 
L 488.502573 -10.985904 
L 489.034305 -10.84253 
L 489.566038 -10.700216 
L 490.09777 -10.558878 
L 490.629503 -10.418438 
L 491.161235 -10.27883 
L 491.692967 -10.140003 
L 492.2247 -10.001921 
L 492.756432 -9.86457 
L 493.288165 -9.727958 
L 493.819897 -9.592119 
L 494.35163 -9.45711 
L 494.883362 -9.323016 
L 495.415094 -9.189947 
L 495.946827 -9.058035 
L 496.478559 -8.927434 
L 497.010292 -8.798317 
L 497.542024 -8.67087 
L 498.073756 -8.545288 
L 498.605489 -8.421771 
L 499.137221 -8.300521 
L 499.668954 -8.181729 
L 500.200686 -8.065578 
L 500.732419 -7.952233 
L 501.264151 -7.841838 
L 501.795883 -7.734509 
L 502.327616 -7.630335 
L 502.859348 -7.529369 
L 503.391081 -7.431633 
L 503.922813 -7.337108 
L 504.454545 -7.24574 
L 504.986278 -7.157441 
L 505.51801 -7.072083 
L 506.049743 -6.989508 
L 506.581475 -6.909526 
L 507.113208 -6.831922 
L 507.64494 -6.756456 
L 508.176672 -6.682871 
L 508.708405 -6.610897 
L 509.240137 -6.540252 
L 509.77187 -6.470656 
L 510.303602 -6.401828 
L 510.835334 -6.333494 
L 511.367067 -6.265393 
L 511.898799 -6.197282 
L 512.430532 -6.128938 
L 512.962264 -6.060163 
L 513.493997 -5.990789 
L 514.025729 -5.920677 
L 514.557461 -5.849726 
L 515.089194 -5.777866 
L 515.620926 -5.705065 
L 516.152659 -5.631328 
L 516.684391 -5.556696 
L 517.216123 -5.481242 
L 517.747856 -5.405075 
L 518.279588 -5.328333 
L 518.811321 -5.251182 
L 519.343053 -5.173809 
L 519.874786 -5.096422 
L 520.406518 -5.019246 
L 520.93825 -4.942511 
L 521.469983 -4.866456 
L 522.001715 -4.79132 
L 522.533448 -4.717335 
L 523.06518 -4.644725 
L 523.596913 -4.573701 
L 524.128645 -4.504455 
L 524.660377 -4.437159 
L 525.19211 -4.37196 
L 525.723842 -4.308979 
L 526.255575 -4.248309 
L 526.787307 -4.190017 
L 527.319039 -4.134138 
L 527.850772 -4.080683 
L 528.382504 -4.029634 
L 528.914237 -3.980951 
L 529.445969 -3.934571 
L 529.977702 -3.890411 
L 530.509434 -3.848376 
L 531.041166 -3.808357 
L 531.572899 -3.770236 
L 532.104631 -3.73389 
L 532.636364 -3.699197 
L 532.636364 -2.470909 
L 532.636364 -2.470909 
L 532.104631 -2.470909 
L 531.572899 -2.470909 
L 531.041166 -2.470909 
L 530.509434 -2.470909 
L 529.977702 -2.470909 
L 529.445969 -2.470909 
L 528.914237 -2.470909 
L 528.382504 -2.470909 
L 527.850772 -2.470909 
L 527.319039 -2.470909 
L 526.787307 -2.470909 
L 526.255575 -2.470909 
L 525.723842 -2.470909 
L 525.19211 -2.470909 
L 524.660377 -2.470909 
L 524.128645 -2.470909 
L 523.596913 -2.470909 
L 523.06518 -2.470909 
L 522.533448 -2.470909 
L 522.001715 -2.470909 
L 521.469983 -2.470909 
L 520.93825 -2.470909 
L 520.406518 -2.470909 
L 519.874786 -2.470909 
L 519.343053 -2.470909 
L 518.811321 -2.470909 
L 518.279588 -2.470909 
L 517.747856 -2.470909 
L 517.216123 -2.470909 
L 516.684391 -2.470909 
L 516.152659 -2.470909 
L 515.620926 -2.470909 
L 515.089194 -2.470909 
L 514.557461 -2.470909 
L 514.025729 -2.470909 
L 513.493997 -2.470909 
L 512.962264 -2.470909 
L 512.430532 -2.470909 
L 511.898799 -2.470909 
L 511.367067 -2.470909 
L 510.835334 -2.470909 
L 510.303602 -2.470909 
L 509.77187 -2.470909 
L 509.240137 -2.470909 
L 508.708405 -2.470909 
L 508.176672 -2.470909 
L 507.64494 -2.470909 
L 507.113208 -2.470909 
L 506.581475 -2.470909 
L 506.049743 -2.470909 
L 505.51801 -2.470909 
L 504.986278 -2.470909 
L 504.454545 -2.470909 
L 503.922813 -2.470909 
L 503.391081 -2.470909 
L 502.859348 -2.470909 
L 502.327616 -2.470909 
L 501.795883 -2.470909 
L 501.264151 -2.470909 
L 500.732419 -2.470909 
L 500.200686 -2.470909 
L 499.668954 -2.470909 
L 499.137221 -2.470909 
L 498.605489 -2.470909 
L 498.073756 -2.470909 
L 497.542024 -2.470909 
L 497.010292 -2.470909 
L 496.478559 -2.470909 
L 495.946827 -2.470909 
L 495.415094 -2.470909 
L 494.883362 -2.470909 
L 494.35163 -2.470909 
L 493.819897 -2.470909 
L 493.288165 -2.470909 
L 492.756432 -2.470909 
L 492.2247 -2.470909 
L 491.692967 -2.470909 
L 491.161235 -2.470909 
L 490.629503 -2.470909 
L 490.09777 -2.470909 
L 489.566038 -2.470909 
L 489.034305 -2.470909 
L 488.502573 -2.470909 
L 487.97084 -2.470909 
L 487.439108 -2.470909 
L 486.907376 -2.470909 
L 486.375643 -2.470909 
L 485.843911 -2.470909 
L 485.312178 -2.470909 
L 484.780446 -2.470909 
L 484.248714 -2.470909 
L 483.716981 -2.470909 
L 483.185249 -2.470909 
L 482.653516 -2.470909 
L 482.121784 -2.470909 
L 481.590051 -2.470909 
L 481.058319 -2.470909 
L 480.526587 -2.470909 
L 479.994854 -2.470909 
L 479.463122 -2.470909 
L 478.931389 -2.470909 
L 478.399657 -2.470909 
L 477.867925 -2.470909 
L 477.336192 -2.470909 
L 476.80446 -2.470909 
L 476.272727 -2.470909 
L 475.740995 -2.470909 
L 475.209262 -2.470909 
L 474.67753 -2.470909 
L 474.145798 -2.470909 
L 473.614065 -2.470909 
L 473.082333 -2.470909 
L 472.5506 -2.470909 
L 472.018868 -2.470909 
L 471.487136 -2.470909 
L 470.955403 -2.470909 
L 470.423671 -2.470909 
L 469.891938 -2.470909 
L 469.360206 -2.470909 
L 468.828473 -2.470909 
L 468.296741 -2.470909 
L 467.765009 -2.470909 
L 467.233276 -2.470909 
L 466.701544 -2.470909 
L 466.169811 -2.470909 
L 465.638079 -2.470909 
L 465.106346 -2.470909 
L 464.574614 -2.470909 
L 464.042882 -2.470909 
L 463.511149 -2.470909 
L 462.979417 -2.470909 
L 462.447684 -2.470909 
L 461.915952 -2.470909 
L 461.38422 -2.470909 
L 460.852487 -2.470909 
L 460.320755 -2.470909 
L 459.789022 -2.470909 
L 459.25729 -2.470909 
L 458.725557 -2.470909 
L 458.193825 -2.470909 
L 457.662093 -2.470909 
L 457.13036 -2.470909 
L 456.598628 -2.470909 
L 456.066895 -2.470909 
L 455.535163 -2.470909 
L 455.003431 -2.470909 
L 454.471698 -2.470909 
L 453.939966 -2.470909 
L 453.408233 -2.470909 
L 452.876501 -2.470909 
L 452.344768 -2.470909 
L 451.813036 -2.470909 
L 451.281304 -2.470909 
L 450.749571 -2.470909 
L 450.217839 -2.470909 
L 449.686106 -2.470909 
L 449.154374 -2.470909 
L 448.622642 -2.470909 
L 448.090909 -2.470909 
L 447.559177 -2.470909 
L 447.027444 -2.470909 
L 446.495712 -2.470909 
L 445.963979 -2.470909 
L 445.432247 -2.470909 
L 444.900515 -2.470909 
L 444.368782 -2.470909 
L 443.83705 -2.470909 
L 443.305317 -2.470909 
L 442.773585 -2.470909 
L 442.241852 -2.470909 
L 441.71012 -2.470909 
L 441.178388 -2.470909 
L 440.646655 -2.470909 
L 440.114923 -2.470909 
L 439.58319 -2.470909 
L 439.051458 -2.470909 
L 438.519726 -2.470909 
L 437.987993 -2.470909 
L 437.456261 -2.470909 
L 436.924528 -2.470909 
L 436.392796 -2.470909 
L 435.861063 -2.470909 
L 435.329331 -2.470909 
L 434.797599 -2.470909 
L 434.265866 -2.470909 
L 433.734134 -2.470909 
L 433.202401 -2.470909 
L 432.670669 -2.470909 
L 432.138937 -2.470909 
L 431.607204 -2.470909 
L 431.075472 -2.470909 
L 430.543739 -2.470909 
L 430.012007 -2.470909 
L 429.480274 -2.470909 
L 428.948542 -2.470909 
L 428.41681 -2.470909 
L 427.885077 -2.470909 
L 427.353345 -2.470909 
L 426.821612 -2.470909 
L 426.28988 -2.470909 
L 425.758148 -2.470909 
L 425.226415 -2.470909 
L 424.694683 -2.470909 
L 424.16295 -2.470909 
L 423.631218 -2.470909 
L 423.099485 -2.470909 
L 422.567753 -2.470909 
L 422.036021 -2.470909 
L 421.504288 -2.470909 
L 420.972556 -2.470909 
L 420.440823 -2.470909 
L 419.909091 -2.470909 
L 419.377358 -2.470909 
L 418.845626 -2.470909 
L 418.313894 -2.470909 
L 417.782161 -2.470909 
L 417.250429 -2.470909 
L 416.718696 -2.470909 
L 416.186964 -2.470909 
L 415.655232 -2.470909 
L 415.123499 -2.470909 
L 414.591767 -2.470909 
L 414.060034 -2.470909 
L 413.528302 -2.470909 
L 412.996569 -2.470909 
L 412.464837 -2.470909 
L 411.933105 -2.470909 
L 411.401372 -2.470909 
L 410.86964 -2.470909 
L 410.337907 -2.470909 
L 409.806175 -2.470909 
L 409.274443 -2.470909 
L 408.74271 -2.470909 
L 408.210978 -2.470909 
L 407.679245 -2.470909 
L 407.147513 -2.470909 
L 406.61578 -2.470909 
L 406.084048 -2.470909 
L 405.552316 -2.470909 
L 405.020583 -2.470909 
L 404.488851 -2.470909 
L 403.957118 -2.470909 
L 403.425386 -2.470909 
L 402.893654 -2.470909 
L 402.361921 -2.470909 
L 401.830189 -2.470909 
L 401.298456 -2.470909 
L 400.766724 -2.470909 
L 400.234991 -2.470909 
L 399.703259 -2.470909 
L 399.171527 -2.470909 
L 398.639794 -2.470909 
L 398.108062 -2.470909 
L 397.576329 -2.470909 
L 397.044597 -2.470909 
L 396.512864 -2.470909 
L 395.981132 -2.470909 
L 395.4494 -2.470909 
L 394.917667 -2.470909 
L 394.385935 -2.470909 
L 393.854202 -2.470909 
L 393.32247 -2.470909 
L 392.790738 -2.470909 
L 392.259005 -2.470909 
L 391.727273 -2.470909 
L 391.19554 -2.470909 
L 390.663808 -2.470909 
L 390.132075 -2.470909 
L 389.600343 -2.470909 
L 389.068611 -2.470909 
L 388.536878 -2.470909 
L 388.005146 -2.470909 
L 387.473413 -2.470909 
L 386.941681 -2.470909 
L 386.409949 -2.470909 
L 385.878216 -2.470909 
L 385.346484 -2.470909 
L 384.814751 -2.470909 
L 384.283019 -2.470909 
L 383.751286 -2.470909 
L 383.219554 -2.470909 
L 382.687822 -2.470909 
L 382.156089 -2.470909 
L 381.624357 -2.470909 
L 381.092624 -2.470909 
L 380.560892 -2.470909 
L 380.02916 -2.470909 
L 379.497427 -2.470909 
L 378.965695 -2.470909 
L 378.433962 -2.470909 
L 377.90223 -2.470909 
L 377.370497 -2.470909 
L 376.838765 -2.470909 
L 376.307033 -2.470909 
L 375.7753 -2.470909 
L 375.243568 -2.470909 
L 374.711835 -2.470909 
L 374.180103 -2.470909 
L 373.64837 -2.470909 
L 373.116638 -2.470909 
L 372.584906 -2.470909 
L 372.053173 -2.470909 
L 371.521441 -2.470909 
L 370.989708 -2.470909 
L 370.457976 -2.470909 
L 369.926244 -2.470909 
L 369.394511 -2.470909 
L 368.862779 -2.470909 
L 368.331046 -2.470909 
L 367.799314 -2.470909 
L 367.267581 -2.470909 
L 366.735849 -2.470909 
L 366.204117 -2.470909 
L 365.672384 -2.470909 
L 365.140652 -2.470909 
L 364.608919 -2.470909 
L 364.077187 -2.470909 
L 363.545455 -2.470909 
L 363.013722 -2.470909 
L 362.48199 -2.470909 
L 361.950257 -2.470909 
L 361.418525 -2.470909 
L 360.886792 -2.470909 
L 360.35506 -2.470909 
L 359.823328 -2.470909 
L 359.291595 -2.470909 
L 358.759863 -2.470909 
L 358.22813 -2.470909 
L 357.696398 -2.470909 
L 357.164666 -2.470909 
L 356.632933 -2.470909 
L 356.101201 -2.470909 
L 355.569468 -2.470909 
L 355.037736 -2.470909 
L 354.506003 -2.470909 
L 353.974271 -2.470909 
L 353.442539 -2.470909 
L 352.910806 -2.470909 
L 352.379074 -2.470909 
L 351.847341 -2.470909 
L 351.315609 -2.470909 
L 350.783877 -2.470909 
L 350.252144 -2.470909 
L 349.720412 -2.470909 
L 349.188679 -2.470909 
L 348.656947 -2.470909 
L 348.125214 -2.470909 
L 347.593482 -2.470909 
L 347.06175 -2.470909 
L 346.530017 -2.470909 
L 345.998285 -2.470909 
L 345.466552 -2.470909 
L 344.93482 -2.470909 
L 344.403087 -2.470909 
L 343.871355 -2.470909 
L 343.339623 -2.470909 
L 342.80789 -2.470909 
L 342.276158 -2.470909 
L 341.744425 -2.470909 
L 341.212693 -2.470909 
L 340.680961 -2.470909 
L 340.149228 -2.470909 
L 339.617496 -2.470909 
L 339.085763 -2.470909 
L 338.554031 -2.470909 
L 338.022298 -2.470909 
L 337.490566 -2.470909 
L 336.958834 -2.470909 
L 336.427101 -2.470909 
L 335.895369 -2.470909 
L 335.363636 -2.470909 
L 334.831904 -2.470909 
L 334.300172 -2.470909 
L 333.768439 -2.470909 
L 333.236707 -2.470909 
L 332.704974 -2.470909 
L 332.173242 -2.470909 
L 331.641509 -2.470909 
L 331.109777 -2.470909 
L 330.578045 -2.470909 
L 330.046312 -2.470909 
L 329.51458 -2.470909 
L 328.982847 -2.470909 
L 328.451115 -2.470909 
L 327.919383 -2.470909 
L 327.38765 -2.470909 
L 326.855918 -2.470909 
L 326.324185 -2.470909 
L 325.792453 -2.470909 
L 325.26072 -2.470909 
L 324.728988 -2.470909 
L 324.197256 -2.470909 
L 323.665523 -2.470909 
L 323.133791 -2.470909 
L 322.602058 -2.470909 
L 322.070326 -2.470909 
L 321.538593 -2.470909 
L 321.006861 -2.470909 
L 320.475129 -2.470909 
L 319.943396 -2.470909 
L 319.411664 -2.470909 
L 318.879931 -2.470909 
L 318.348199 -2.470909 
L 317.816467 -2.470909 
L 317.284734 -2.470909 
L 316.753002 -2.470909 
L 316.221269 -2.470909 
L 315.689537 -2.470909 
L 315.157804 -2.470909 
L 314.626072 -2.470909 
L 314.09434 -2.470909 
L 313.562607 -2.470909 
L 313.030875 -2.470909 
L 312.499142 -2.470909 
L 311.96741 -2.470909 
L 311.435678 -2.470909 
L 310.903945 -2.470909 
L 310.372213 -2.470909 
L 309.84048 -2.470909 
L 309.308748 -2.470909 
L 308.777015 -2.470909 
L 308.245283 -2.470909 
L 307.713551 -2.470909 
L 307.181818 -2.470909 
L 306.650086 -2.470909 
L 306.118353 -2.470909 
L 305.586621 -2.470909 
L 305.054889 -2.470909 
L 304.523156 -2.470909 
L 303.991424 -2.470909 
L 303.459691 -2.470909 
L 302.927959 -2.470909 
L 302.396226 -2.470909 
L 301.864494 -2.470909 
L 301.332762 -2.470909 
L 300.801029 -2.470909 
L 300.269297 -2.470909 
L 299.737564 -2.470909 
L 299.205832 -2.470909 
L 298.674099 -2.470909 
L 298.142367 -2.470909 
L 297.610635 -2.470909 
L 297.078902 -2.470909 
L 296.54717 -2.470909 
L 296.015437 -2.470909 
L 295.483705 -2.470909 
L 294.951973 -2.470909 
L 294.42024 -2.470909 
L 293.888508 -2.470909 
L 293.356775 -2.470909 
L 292.825043 -2.470909 
L 292.29331 -2.470909 
L 291.761578 -2.470909 
L 291.229846 -2.470909 
L 290.698113 -2.470909 
L 290.166381 -2.470909 
L 289.634648 -2.470909 
L 289.102916 -2.470909 
L 288.571184 -2.470909 
L 288.039451 -2.470909 
L 287.507719 -2.470909 
L 286.975986 -2.470909 
L 286.444254 -2.470909 
L 285.912521 -2.470909 
L 285.380789 -2.470909 
L 284.849057 -2.470909 
L 284.317324 -2.470909 
L 283.785592 -2.470909 
z
" style="stroke: #cf1313; stroke-opacity: 0.2"/>
    </defs>
    <g clip-path="url(#p828a49f946)">
     <use xlink:href="#m4752e7794f" x="0" y="54.36" style="fill: #cf1313; fill-opacity: 0.2; stroke: #cf1313; stroke-opacity: 0.2"/>
    </g>
   </g>
   <g id="PolyCollection_2">
    <defs>
     <path id="mb29ccb27aa" d="M 25.363636 -2.470909 
L 25.363636 -4.679861 
L 25.895369 -4.741773 
L 26.427101 -4.797353 
L 26.958834 -4.846605 
L 27.490566 -4.889671 
L 28.022298 -4.926827 
L 28.554031 -4.958471 
L 29.085763 -4.985113 
L 29.617496 -5.007357 
L 30.149228 -5.025883 
L 30.680961 -5.04143 
L 31.212693 -5.05477 
L 31.744425 -5.066696 
L 32.276158 -5.077994 
L 32.80789 -5.089432 
L 33.339623 -5.101736 
L 33.871355 -5.115583 
L 34.403087 -5.131585 
L 34.93482 -5.150283 
L 35.466552 -5.172136 
L 35.998285 -5.197525 
L 36.530017 -5.226747 
L 37.06175 -5.260018 
L 37.593482 -5.29748 
L 38.125214 -5.339202 
L 38.656947 -5.38519 
L 39.188679 -5.435394 
L 39.720412 -5.489717 
L 40.252144 -5.548025 
L 40.783877 -5.610152 
L 41.315609 -5.675912 
L 41.847341 -5.745103 
L 42.379074 -5.81752 
L 42.910806 -5.892952 
L 43.442539 -5.971196 
L 43.974271 -6.052055 
L 44.506003 -6.135342 
L 45.037736 -6.220886 
L 45.569468 -6.308529 
L 46.101201 -6.398129 
L 46.632933 -6.489563 
L 47.164666 -6.582721 
L 47.696398 -6.677514 
L 48.22813 -6.773869 
L 48.759863 -6.87173 
L 49.291595 -6.971061 
L 49.823328 -7.071845 
L 50.35506 -7.174082 
L 50.886792 -7.277797 
L 51.418525 -7.383035 
L 51.950257 -7.489864 
L 52.48199 -7.598375 
L 53.013722 -7.708684 
L 53.545455 -7.820933 
L 54.077187 -7.935285 
L 54.608919 -8.051929 
L 55.140652 -8.171072 
L 55.672384 -8.29294 
L 56.204117 -8.417774 
L 56.735849 -8.545826 
L 57.267581 -8.677352 
L 57.799314 -8.812606 
L 58.331046 -8.951838 
L 58.862779 -9.09528 
L 59.394511 -9.243147 
L 59.926244 -9.395624 
L 60.457976 -9.55286 
L 60.989708 -9.714967 
L 61.521441 -9.882005 
L 62.053173 -10.053988 
L 62.584906 -10.230869 
L 63.116638 -10.412546 
L 63.64837 -10.598857 
L 64.180103 -10.789581 
L 64.711835 -10.984437 
L 65.243568 -11.18309 
L 65.7753 -11.385156 
L 66.307033 -11.590206 
L 66.838765 -11.797772 
L 67.370497 -12.007359 
L 67.90223 -12.218453 
L 68.433962 -12.43053 
L 68.965695 -12.643068 
L 69.497427 -12.855558 
L 70.02916 -13.067514 
L 70.560892 -13.278485 
L 71.092624 -13.488064 
L 71.624357 -13.695897 
L 72.156089 -13.901692 
L 72.687822 -14.105227 
L 73.219554 -14.30635 
L 73.751286 -14.504991 
L 74.283019 -14.701155 
L 74.814751 -14.894931 
L 75.346484 -15.086482 
L 75.878216 -15.27605 
L 76.409949 -15.463945 
L 76.941681 -15.650542 
L 77.473413 -15.836273 
L 78.005146 -16.021617 
L 78.536878 -16.207092 
L 79.068611 -16.393244 
L 79.600343 -16.580637 
L 80.132075 -16.769843 
L 80.663808 -16.961426 
L 81.19554 -17.155936 
L 81.727273 -17.353897 
L 82.259005 -17.555797 
L 82.790738 -17.762076 
L 83.32247 -17.973119 
L 83.854202 -18.18925 
L 84.385935 -18.410721 
L 84.917667 -18.637706 
L 85.4494 -18.870302 
L 85.981132 -19.108516 
L 86.512864 -19.352272 
L 87.044597 -19.601402 
L 87.576329 -19.85565 
L 88.108062 -20.114673 
L 88.639794 -20.378045 
L 89.171527 -20.645258 
L 89.703259 -20.915729 
L 90.234991 -21.18881 
L 90.766724 -21.463792 
L 91.298456 -21.739915 
L 91.830189 -22.016383 
L 92.361921 -22.29237 
L 92.893654 -22.567035 
L 93.425386 -22.839537 
L 93.957118 -23.109043 
L 94.488851 -23.374748 
L 95.020583 -23.635881 
L 95.552316 -23.891726 
L 96.084048 -24.141627 
L 96.61578 -24.385003 
L 97.147513 -24.621356 
L 97.679245 -24.850282 
L 98.210978 -25.071473 
L 98.74271 -25.284726 
L 99.274443 -25.489946 
L 99.806175 -25.687142 
L 100.337907 -25.876431 
L 100.86964 -26.058035 
L 101.401372 -26.23227 
L 101.933105 -26.399547 
L 102.464837 -26.56036 
L 102.996569 -26.715275 
L 103.528302 -26.864922 
L 104.060034 -27.009982 
L 104.591767 -27.151172 
L 105.123499 -27.289236 
L 105.655232 -27.424924 
L 106.186964 -27.558985 
L 106.718696 -27.692149 
L 107.250429 -27.825113 
L 107.782161 -27.958527 
L 108.313894 -28.092984 
L 108.845626 -28.229006 
L 109.377358 -28.367035 
L 109.909091 -28.507424 
L 110.440823 -28.650429 
L 110.972556 -28.79621 
L 111.504288 -28.944823 
L 112.036021 -29.096225 
L 112.567753 -29.250276 
L 113.099485 -29.406746 
L 113.631218 -29.565324 
L 114.16295 -29.725629 
L 114.694683 -29.887224 
L 115.226415 -30.049631 
L 115.758148 -30.212346 
L 116.28988 -30.374858 
L 116.821612 -30.536665 
L 117.353345 -30.697291 
L 117.885077 -30.856298 
L 118.41681 -31.013303 
L 118.948542 -31.167986 
L 119.480274 -31.320098 
L 120.012007 -31.469467 
L 120.543739 -31.615999 
L 121.075472 -31.759673 
L 121.607204 -31.900538 
L 122.138937 -32.038706 
L 122.670669 -32.174338 
L 123.202401 -32.30763 
L 123.734134 -32.438804 
L 124.265866 -32.568084 
L 124.797599 -32.695687 
L 125.329331 -32.821806 
L 125.861063 -32.946592 
L 126.392796 -33.070148 
L 126.924528 -33.192513 
L 127.456261 -33.313658 
L 127.987993 -33.433482 
L 128.519726 -33.551808 
L 129.051458 -33.668385 
L 129.58319 -33.782896 
L 130.114923 -33.894959 
L 130.646655 -34.004143 
L 131.178388 -34.109974 
L 131.71012 -34.21195 
L 132.241852 -34.309552 
L 132.773585 -34.40226 
L 133.305317 -34.489563 
L 133.83705 -34.570971 
L 134.368782 -34.646027 
L 134.900515 -34.714313 
L 135.432247 -34.775461 
L 135.963979 -34.829152 
L 136.495712 -34.875127 
L 137.027444 -34.91318 
L 137.559177 -34.943163 
L 138.090909 -34.964982 
L 138.622642 -34.978595 
L 139.154374 -34.984009 
L 139.686106 -34.981272 
L 140.217839 -34.970475 
L 140.749571 -34.95174 
L 141.281304 -34.925221 
L 141.813036 -34.891096 
L 142.344768 -34.849566 
L 142.876501 -34.800849 
L 143.408233 -34.745177 
L 143.939966 -34.68279 
L 144.471698 -34.613937 
L 145.003431 -34.538866 
L 145.535163 -34.457826 
L 146.066895 -34.371058 
L 146.598628 -34.278791 
L 147.13036 -34.181242 
L 147.662093 -34.078606 
L 148.193825 -33.971056 
L 148.725557 -33.858738 
L 149.25729 -33.741768 
L 149.789022 -33.620231 
L 150.320755 -33.494181 
L 150.852487 -33.363642 
L 151.38422 -33.228607 
L 151.915952 -33.089048 
L 152.447684 -32.944918 
L 152.979417 -32.796155 
L 153.511149 -32.642697 
L 154.042882 -32.48448 
L 154.574614 -32.321456 
L 155.106346 -32.153595 
L 155.638079 -31.980897 
L 156.169811 -31.803392 
L 156.701544 -31.621153 
L 157.233276 -31.434293 
L 157.765009 -31.24297 
L 158.296741 -31.047381 
L 158.828473 -30.847767 
L 159.360206 -30.644399 
L 159.891938 -30.437575 
L 160.423671 -30.227614 
L 160.955403 -30.01484 
L 161.487136 -29.799576 
L 162.018868 -29.582132 
L 162.5506 -29.362796 
L 163.082333 -29.141823 
L 163.614065 -28.919429 
L 164.145798 -28.695781 
L 164.67753 -28.470998 
L 165.209262 -28.245145 
L 165.740995 -28.018238 
L 166.272727 -27.790241 
L 166.80446 -27.561076 
L 167.336192 -27.330626 
L 167.867925 -27.09875 
L 168.399657 -26.865285 
L 168.931389 -26.630063 
L 169.463122 -26.39292 
L 169.994854 -26.153709 
L 170.526587 -25.912308 
L 171.058319 -25.668631 
L 171.590051 -25.422639 
L 172.121784 -25.174343 
L 172.653516 -24.923811 
L 173.185249 -24.67117 
L 173.716981 -24.416605 
L 174.248714 -24.160362 
L 174.780446 -23.902737 
L 175.312178 -23.644078 
L 175.843911 -23.384768 
L 176.375643 -23.125224 
L 176.907376 -22.865881 
L 177.439108 -22.607182 
L 177.97084 -22.349565 
L 178.502573 -22.093455 
L 179.034305 -21.839245 
L 179.566038 -21.587292 
L 180.09777 -21.337902 
L 180.629503 -21.091326 
L 181.161235 -20.847748 
L 181.692967 -20.607286 
L 182.2247 -20.369984 
L 182.756432 -20.135815 
L 183.288165 -19.904682 
L 183.819897 -19.67642 
L 184.35163 -19.450804 
L 184.883362 -19.227554 
L 185.415094 -19.006346 
L 185.946827 -18.786821 
L 186.478559 -18.568595 
L 187.010292 -18.351273 
L 187.542024 -18.134457 
L 188.073756 -17.917761 
L 188.605489 -17.700819 
L 189.137221 -17.483297 
L 189.668954 -17.2649 
L 190.200686 -17.045383 
L 190.732419 -16.824555 
L 191.264151 -16.602285 
L 191.795883 -16.378506 
L 192.327616 -16.153218 
L 192.859348 -15.926487 
L 193.391081 -15.698445 
L 193.922813 -15.469288 
L 194.454545 -15.239272 
L 194.986278 -15.008709 
L 195.51801 -14.777961 
L 196.049743 -14.547432 
L 196.581475 -14.317562 
L 197.113208 -14.088816 
L 197.64494 -13.861675 
L 198.176672 -13.63663 
L 198.708405 -13.414167 
L 199.240137 -13.19476 
L 199.77187 -12.978862 
L 200.303602 -12.766894 
L 200.835334 -12.559236 
L 201.367067 -12.356223 
L 201.898799 -12.158135 
L 202.430532 -11.965194 
L 202.962264 -11.777562 
L 203.493997 -11.595336 
L 204.025729 -11.418552 
L 204.557461 -11.247183 
L 205.089194 -11.081146 
L 205.620926 -10.920306 
L 206.152659 -10.76448 
L 206.684391 -10.613447 
L 207.216123 -10.466956 
L 207.747856 -10.324733 
L 208.279588 -10.186489 
L 208.811321 -10.051932 
L 209.343053 -9.920771 
L 209.874786 -9.792723 
L 210.406518 -9.667524 
L 210.93825 -9.544925 
L 211.469983 -9.424705 
L 212.001715 -9.306664 
L 212.533448 -9.19063 
L 213.06518 -9.076455 
L 213.596913 -8.964013 
L 214.128645 -8.853198 
L 214.660377 -8.74392 
L 215.19211 -8.636101 
L 215.723842 -8.52967 
L 216.255575 -8.424558 
L 216.787307 -8.320696 
L 217.319039 -8.21801 
L 217.850772 -8.116418 
L 218.382504 -8.015827 
L 218.914237 -7.916134 
L 219.445969 -7.817223 
L 219.977702 -7.718971 
L 220.509434 -7.621242 
L 221.041166 -7.523894 
L 221.572899 -7.426783 
L 222.104631 -7.329763 
L 222.636364 -7.232693 
L 223.168096 -7.135438 
L 223.699828 -7.037877 
L 224.231561 -6.939901 
L 224.763293 -6.841423 
L 225.295026 -6.742376 
L 225.826758 -6.642717 
L 226.358491 -6.54243 
L 226.890223 -6.441526 
L 227.421955 -6.340045 
L 227.953688 -6.238052 
L 228.48542 -6.135641 
L 229.017153 -6.032934 
L 229.548885 -5.930073 
L 230.080617 -5.827226 
L 230.61235 -5.724581 
L 231.144082 -5.62234 
L 231.675815 -5.520721 
L 232.207547 -5.419955 
L 232.73928 -5.320276 
L 233.271012 -5.221927 
L 233.802744 -5.125146 
L 234.334477 -5.030171 
L 234.866209 -4.937234 
L 235.397942 -4.846554 
L 235.929674 -4.758337 
L 236.461407 -4.672772 
L 236.993139 -4.59003 
L 237.524871 -4.510257 
L 238.056604 -4.433575 
L 238.588336 -4.360079 
L 239.120069 -4.289838 
L 239.651801 -4.222891 
L 240.183533 -4.159248 
L 240.715266 -4.098891 
L 241.246998 -4.041773 
L 241.778731 -3.987823 
L 242.310463 -3.936944 
L 242.842196 -3.889018 
L 243.373928 -3.843907 
L 243.90566 -3.801458 
L 244.437393 -3.761504 
L 244.969125 -3.72387 
L 245.500858 -3.688373 
L 246.03259 -3.654832 
L 246.564322 -3.623062 
L 247.096055 -3.592886 
L 247.627787 -3.564132 
L 248.15952 -3.536637 
L 248.691252 -3.510252 
L 249.222985 -3.484838 
L 249.754717 -3.460273 
L 250.286449 -3.436448 
L 250.286449 -2.470909 
L 250.286449 -2.470909 
L 249.754717 -2.470909 
L 249.222985 -2.470909 
L 248.691252 -2.470909 
L 248.15952 -2.470909 
L 247.627787 -2.470909 
L 247.096055 -2.470909 
L 246.564322 -2.470909 
L 246.03259 -2.470909 
L 245.500858 -2.470909 
L 244.969125 -2.470909 
L 244.437393 -2.470909 
L 243.90566 -2.470909 
L 243.373928 -2.470909 
L 242.842196 -2.470909 
L 242.310463 -2.470909 
L 241.778731 -2.470909 
L 241.246998 -2.470909 
L 240.715266 -2.470909 
L 240.183533 -2.470909 
L 239.651801 -2.470909 
L 239.120069 -2.470909 
L 238.588336 -2.470909 
L 238.056604 -2.470909 
L 237.524871 -2.470909 
L 236.993139 -2.470909 
L 236.461407 -2.470909 
L 235.929674 -2.470909 
L 235.397942 -2.470909 
L 234.866209 -2.470909 
L 234.334477 -2.470909 
L 233.802744 -2.470909 
L 233.271012 -2.470909 
L 232.73928 -2.470909 
L 232.207547 -2.470909 
L 231.675815 -2.470909 
L 231.144082 -2.470909 
L 230.61235 -2.470909 
L 230.080617 -2.470909 
L 229.548885 -2.470909 
L 229.017153 -2.470909 
L 228.48542 -2.470909 
L 227.953688 -2.470909 
L 227.421955 -2.470909 
L 226.890223 -2.470909 
L 226.358491 -2.470909 
L 225.826758 -2.470909 
L 225.295026 -2.470909 
L 224.763293 -2.470909 
L 224.231561 -2.470909 
L 223.699828 -2.470909 
L 223.168096 -2.470909 
L 222.636364 -2.470909 
L 222.104631 -2.470909 
L 221.572899 -2.470909 
L 221.041166 -2.470909 
L 220.509434 -2.470909 
L 219.977702 -2.470909 
L 219.445969 -2.470909 
L 218.914237 -2.470909 
L 218.382504 -2.470909 
L 217.850772 -2.470909 
L 217.319039 -2.470909 
L 216.787307 -2.470909 
L 216.255575 -2.470909 
L 215.723842 -2.470909 
L 215.19211 -2.470909 
L 214.660377 -2.470909 
L 214.128645 -2.470909 
L 213.596913 -2.470909 
L 213.06518 -2.470909 
L 212.533448 -2.470909 
L 212.001715 -2.470909 
L 211.469983 -2.470909 
L 210.93825 -2.470909 
L 210.406518 -2.470909 
L 209.874786 -2.470909 
L 209.343053 -2.470909 
L 208.811321 -2.470909 
L 208.279588 -2.470909 
L 207.747856 -2.470909 
L 207.216123 -2.470909 
L 206.684391 -2.470909 
L 206.152659 -2.470909 
L 205.620926 -2.470909 
L 205.089194 -2.470909 
L 204.557461 -2.470909 
L 204.025729 -2.470909 
L 203.493997 -2.470909 
L 202.962264 -2.470909 
L 202.430532 -2.470909 
L 201.898799 -2.470909 
L 201.367067 -2.470909 
L 200.835334 -2.470909 
L 200.303602 -2.470909 
L 199.77187 -2.470909 
L 199.240137 -2.470909 
L 198.708405 -2.470909 
L 198.176672 -2.470909 
L 197.64494 -2.470909 
L 197.113208 -2.470909 
L 196.581475 -2.470909 
L 196.049743 -2.470909 
L 195.51801 -2.470909 
L 194.986278 -2.470909 
L 194.454545 -2.470909 
L 193.922813 -2.470909 
L 193.391081 -2.470909 
L 192.859348 -2.470909 
L 192.327616 -2.470909 
L 191.795883 -2.470909 
L 191.264151 -2.470909 
L 190.732419 -2.470909 
L 190.200686 -2.470909 
L 189.668954 -2.470909 
L 189.137221 -2.470909 
L 188.605489 -2.470909 
L 188.073756 -2.470909 
L 187.542024 -2.470909 
L 187.010292 -2.470909 
L 186.478559 -2.470909 
L 185.946827 -2.470909 
L 185.415094 -2.470909 
L 184.883362 -2.470909 
L 184.35163 -2.470909 
L 183.819897 -2.470909 
L 183.288165 -2.470909 
L 182.756432 -2.470909 
L 182.2247 -2.470909 
L 181.692967 -2.470909 
L 181.161235 -2.470909 
L 180.629503 -2.470909 
L 180.09777 -2.470909 
L 179.566038 -2.470909 
L 179.034305 -2.470909 
L 178.502573 -2.470909 
L 177.97084 -2.470909 
L 177.439108 -2.470909 
L 176.907376 -2.470909 
L 176.375643 -2.470909 
L 175.843911 -2.470909 
L 175.312178 -2.470909 
L 174.780446 -2.470909 
L 174.248714 -2.470909 
L 173.716981 -2.470909 
L 173.185249 -2.470909 
L 172.653516 -2.470909 
L 172.121784 -2.470909 
L 171.590051 -2.470909 
L 171.058319 -2.470909 
L 170.526587 -2.470909 
L 169.994854 -2.470909 
L 169.463122 -2.470909 
L 168.931389 -2.470909 
L 168.399657 -2.470909 
L 167.867925 -2.470909 
L 167.336192 -2.470909 
L 166.80446 -2.470909 
L 166.272727 -2.470909 
L 165.740995 -2.470909 
L 165.209262 -2.470909 
L 164.67753 -2.470909 
L 164.145798 -2.470909 
L 163.614065 -2.470909 
L 163.082333 -2.470909 
L 162.5506 -2.470909 
L 162.018868 -2.470909 
L 161.487136 -2.470909 
L 160.955403 -2.470909 
L 160.423671 -2.470909 
L 159.891938 -2.470909 
L 159.360206 -2.470909 
L 158.828473 -2.470909 
L 158.296741 -2.470909 
L 157.765009 -2.470909 
L 157.233276 -2.470909 
L 156.701544 -2.470909 
L 156.169811 -2.470909 
L 155.638079 -2.470909 
L 155.106346 -2.470909 
L 154.574614 -2.470909 
L 154.042882 -2.470909 
L 153.511149 -2.470909 
L 152.979417 -2.470909 
L 152.447684 -2.470909 
L 151.915952 -2.470909 
L 151.38422 -2.470909 
L 150.852487 -2.470909 
L 150.320755 -2.470909 
L 149.789022 -2.470909 
L 149.25729 -2.470909 
L 148.725557 -2.470909 
L 148.193825 -2.470909 
L 147.662093 -2.470909 
L 147.13036 -2.470909 
L 146.598628 -2.470909 
L 146.066895 -2.470909 
L 145.535163 -2.470909 
L 145.003431 -2.470909 
L 144.471698 -2.470909 
L 143.939966 -2.470909 
L 143.408233 -2.470909 
L 142.876501 -2.470909 
L 142.344768 -2.470909 
L 141.813036 -2.470909 
L 141.281304 -2.470909 
L 140.749571 -2.470909 
L 140.217839 -2.470909 
L 139.686106 -2.470909 
L 139.154374 -2.470909 
L 138.622642 -2.470909 
L 138.090909 -2.470909 
L 137.559177 -2.470909 
L 137.027444 -2.470909 
L 136.495712 -2.470909 
L 135.963979 -2.470909 
L 135.432247 -2.470909 
L 134.900515 -2.470909 
L 134.368782 -2.470909 
L 133.83705 -2.470909 
L 133.305317 -2.470909 
L 132.773585 -2.470909 
L 132.241852 -2.470909 
L 131.71012 -2.470909 
L 131.178388 -2.470909 
L 130.646655 -2.470909 
L 130.114923 -2.470909 
L 129.58319 -2.470909 
L 129.051458 -2.470909 
L 128.519726 -2.470909 
L 127.987993 -2.470909 
L 127.456261 -2.470909 
L 126.924528 -2.470909 
L 126.392796 -2.470909 
L 125.861063 -2.470909 
L 125.329331 -2.470909 
L 124.797599 -2.470909 
L 124.265866 -2.470909 
L 123.734134 -2.470909 
L 123.202401 -2.470909 
L 122.670669 -2.470909 
L 122.138937 -2.470909 
L 121.607204 -2.470909 
L 121.075472 -2.470909 
L 120.543739 -2.470909 
L 120.012007 -2.470909 
L 119.480274 -2.470909 
L 118.948542 -2.470909 
L 118.41681 -2.470909 
L 117.885077 -2.470909 
L 117.353345 -2.470909 
L 116.821612 -2.470909 
L 116.28988 -2.470909 
L 115.758148 -2.470909 
L 115.226415 -2.470909 
L 114.694683 -2.470909 
L 114.16295 -2.470909 
L 113.631218 -2.470909 
L 113.099485 -2.470909 
L 112.567753 -2.470909 
L 112.036021 -2.470909 
L 111.504288 -2.470909 
L 110.972556 -2.470909 
L 110.440823 -2.470909 
L 109.909091 -2.470909 
L 109.377358 -2.470909 
L 108.845626 -2.470909 
L 108.313894 -2.470909 
L 107.782161 -2.470909 
L 107.250429 -2.470909 
L 106.718696 -2.470909 
L 106.186964 -2.470909 
L 105.655232 -2.470909 
L 105.123499 -2.470909 
L 104.591767 -2.470909 
L 104.060034 -2.470909 
L 103.528302 -2.470909 
L 102.996569 -2.470909 
L 102.464837 -2.470909 
L 101.933105 -2.470909 
L 101.401372 -2.470909 
L 100.86964 -2.470909 
L 100.337907 -2.470909 
L 99.806175 -2.470909 
L 99.274443 -2.470909 
L 98.74271 -2.470909 
L 98.210978 -2.470909 
L 97.679245 -2.470909 
L 97.147513 -2.470909 
L 96.61578 -2.470909 
L 96.084048 -2.470909 
L 95.552316 -2.470909 
L 95.020583 -2.470909 
L 94.488851 -2.470909 
L 93.957118 -2.470909 
L 93.425386 -2.470909 
L 92.893654 -2.470909 
L 92.361921 -2.470909 
L 91.830189 -2.470909 
L 91.298456 -2.470909 
L 90.766724 -2.470909 
L 90.234991 -2.470909 
L 89.703259 -2.470909 
L 89.171527 -2.470909 
L 88.639794 -2.470909 
L 88.108062 -2.470909 
L 87.576329 -2.470909 
L 87.044597 -2.470909 
L 86.512864 -2.470909 
L 85.981132 -2.470909 
L 85.4494 -2.470909 
L 84.917667 -2.470909 
L 84.385935 -2.470909 
L 83.854202 -2.470909 
L 83.32247 -2.470909 
L 82.790738 -2.470909 
L 82.259005 -2.470909 
L 81.727273 -2.470909 
L 81.19554 -2.470909 
L 80.663808 -2.470909 
L 80.132075 -2.470909 
L 79.600343 -2.470909 
L 79.068611 -2.470909 
L 78.536878 -2.470909 
L 78.005146 -2.470909 
L 77.473413 -2.470909 
L 76.941681 -2.470909 
L 76.409949 -2.470909 
L 75.878216 -2.470909 
L 75.346484 -2.470909 
L 74.814751 -2.470909 
L 74.283019 -2.470909 
L 73.751286 -2.470909 
L 73.219554 -2.470909 
L 72.687822 -2.470909 
L 72.156089 -2.470909 
L 71.624357 -2.470909 
L 71.092624 -2.470909 
L 70.560892 -2.470909 
L 70.02916 -2.470909 
L 69.497427 -2.470909 
L 68.965695 -2.470909 
L 68.433962 -2.470909 
L 67.90223 -2.470909 
L 67.370497 -2.470909 
L 66.838765 -2.470909 
L 66.307033 -2.470909 
L 65.7753 -2.470909 
L 65.243568 -2.470909 
L 64.711835 -2.470909 
L 64.180103 -2.470909 
L 63.64837 -2.470909 
L 63.116638 -2.470909 
L 62.584906 -2.470909 
L 62.053173 -2.470909 
L 61.521441 -2.470909 
L 60.989708 -2.470909 
L 60.457976 -2.470909 
L 59.926244 -2.470909 
L 59.394511 -2.470909 
L 58.862779 -2.470909 
L 58.331046 -2.470909 
L 57.799314 -2.470909 
L 57.267581 -2.470909 
L 56.735849 -2.470909 
L 56.204117 -2.470909 
L 55.672384 -2.470909 
L 55.140652 -2.470909 
L 54.608919 -2.470909 
L 54.077187 -2.470909 
L 53.545455 -2.470909 
L 53.013722 -2.470909 
L 52.48199 -2.470909 
L 51.950257 -2.470909 
L 51.418525 -2.470909 
L 50.886792 -2.470909 
L 50.35506 -2.470909 
L 49.823328 -2.470909 
L 49.291595 -2.470909 
L 48.759863 -2.470909 
L 48.22813 -2.470909 
L 47.696398 -2.470909 
L 47.164666 -2.470909 
L 46.632933 -2.470909 
L 46.101201 -2.470909 
L 45.569468 -2.470909 
L 45.037736 -2.470909 
L 44.506003 -2.470909 
L 43.974271 -2.470909 
L 43.442539 -2.470909 
L 42.910806 -2.470909 
L 42.379074 -2.470909 
L 41.847341 -2.470909 
L 41.315609 -2.470909 
L 40.783877 -2.470909 
L 40.252144 -2.470909 
L 39.720412 -2.470909 
L 39.188679 -2.470909 
L 38.656947 -2.470909 
L 38.125214 -2.470909 
L 37.593482 -2.470909 
L 37.06175 -2.470909 
L 36.530017 -2.470909 
L 35.998285 -2.470909 
L 35.466552 -2.470909 
L 34.93482 -2.470909 
L 34.403087 -2.470909 
L 33.871355 -2.470909 
L 33.339623 -2.470909 
L 32.80789 -2.470909 
L 32.276158 -2.470909 
L 31.744425 -2.470909 
L 31.212693 -2.470909 
L 30.680961 -2.470909 
L 30.149228 -2.470909 
L 29.617496 -2.470909 
L 29.085763 -2.470909 
L 28.554031 -2.470909 
L 28.022298 -2.470909 
L 27.490566 -2.470909 
L 26.958834 -2.470909 
L 26.427101 -2.470909 
L 25.895369 -2.470909 
L 25.363636 -2.470909 
z
" style="stroke: #116dc2; stroke-opacity: 0.2"/>
    </defs>
    <g clip-path="url(#p828a49f946)">
     <use xlink:href="#mb29ccb27aa" x="0" y="54.36" style="fill: #116dc2; fill-opacity: 0.2; stroke: #116dc2; stroke-opacity: 0.2"/>
    </g>
   </g>
   <g id="PolyCollection_3">
    <defs>
     <path id="m9692ebc77f" d="M 37.06175 -2.470909 
L 37.06175 -4.007254 
L 37.593482 -4.41667 
L 38.125214 -5.087465 
L 38.656947 -6.005574 
L 39.188679 -7.095372 
L 39.720412 -8.322281 
L 40.252144 -9.69692 
L 40.783877 -11.215381 
L 41.315609 -12.912857 
L 41.847341 -14.926314 
L 42.379074 -17.287239 
L 42.910806 -19.761281 
L 43.442539 -22.187118 
L 43.974271 -24.771915 
L 44.506003 -27.803673 
L 45.037736 -31.272428 
L 45.569468 -34.869069 
L 46.101201 -38.190321 
L 46.632933 -40.901363 
L 47.164666 -42.886466 
L 47.696398 -44.349865 
L 48.22813 -45.648611 
L 48.759863 -47.006267 
L 49.291595 -48.473586 
L 49.823328 -50.009664 
L 50.35506 -51.325348 
L 50.886792 -51.889091 
L 51.418525 -51.532005 
L 51.950257 -50.646332 
L 52.48199 -49.423691 
L 53.013722 -47.565528 
L 53.545455 -44.944921 
L 54.077187 -41.892641 
L 54.608919 -38.869641 
L 55.140652 -36.206545 
L 55.672384 -33.884571 
L 56.204117 -31.536422 
L 56.735849 -28.89251 
L 57.267581 -26.024709 
L 57.799314 -23.127371 
L 58.331046 -20.345645 
L 58.862779 -17.756487 
L 59.394511 -15.377367 
L 59.926244 -13.238334 
L 60.457976 -11.402348 
L 60.989708 -9.860647 
L 61.521441 -8.526918 
L 62.053173 -7.370553 
L 62.584906 -6.416842 
L 63.116638 -5.661955 
L 63.64837 -5.089389 
L 64.180103 -4.668807 
L 64.180103 -2.470909 
L 64.180103 -2.470909 
L 63.64837 -2.470909 
L 63.116638 -2.470909 
L 62.584906 -2.470909 
L 62.053173 -2.470909 
L 61.521441 -2.470909 
L 60.989708 -2.470909 
L 60.457976 -2.470909 
L 59.926244 -2.470909 
L 59.394511 -2.470909 
L 58.862779 -2.470909 
L 58.331046 -2.470909 
L 57.799314 -2.470909 
L 57.267581 -2.470909 
L 56.735849 -2.470909 
L 56.204117 -2.470909 
L 55.672384 -2.470909 
L 55.140652 -2.470909 
L 54.608919 -2.470909 
L 54.077187 -2.470909 
L 53.545455 -2.470909 
L 53.013722 -2.470909 
L 52.48199 -2.470909 
L 51.950257 -2.470909 
L 51.418525 -2.470909 
L 50.886792 -2.470909 
L 50.35506 -2.470909 
L 49.823328 -2.470909 
L 49.291595 -2.470909 
L 48.759863 -2.470909 
L 48.22813 -2.470909 
L 47.696398 -2.470909 
L 47.164666 -2.470909 
L 46.632933 -2.470909 
L 46.101201 -2.470909 
L 45.569468 -2.470909 
L 45.037736 -2.470909 
L 44.506003 -2.470909 
L 43.974271 -2.470909 
L 43.442539 -2.470909 
L 42.910806 -2.470909 
L 42.379074 -2.470909 
L 41.847341 -2.470909 
L 41.315609 -2.470909 
L 40.783877 -2.470909 
L 40.252144 -2.470909 
L 39.720412 -2.470909 
L 39.188679 -2.470909 
L 38.656947 -2.470909 
L 38.125214 -2.470909 
L 37.593482 -2.470909 
L 37.06175 -2.470909 
z
" style="stroke: #8a8a8a; stroke-opacity: 0.2"/>
    </defs>
    <g clip-path="url(#p828a49f946)">
     <use xlink:href="#m9692ebc77f" x="0" y="54.36" style="fill: #8a8a8a; fill-opacity: 0.2; stroke: #8a8a8a; stroke-opacity: 0.2"/>
    </g>
   </g>
   <g id="line2d_1">
    <path d="M 283.785592 50.703608 
L 289.634648 50.271257 
L 294.951973 49.647753 
L 315.157804 46.765294 
L 321.006861 45.770036 
L 325.26072 44.818801 
L 329.51458 43.61857 
L 334.300172 42.002538 
L 349.720412 36.545862 
L 357.696398 33.826884 
L 362.48199 31.969455 
L 366.735849 30.08617 
L 372.053173 27.458996 
L 376.838765 25.157302 
L 380.02916 23.884879 
L 382.687822 23.050507 
L 385.878216 22.300705 
L 390.132075 21.584023 
L 396.512864 20.774924 
L 401.298456 20.366771 
L 405.552316 20.24229 
L 409.806175 20.363689 
L 415.123499 20.761846 
L 422.036021 21.511399 
L 426.821612 22.25056 
L 430.543739 23.045349 
L 434.265866 24.094206 
L 437.987993 25.384693 
L 478.399657 40.364388 
L 484.780446 42.333707 
L 491.692967 44.219997 
L 499.668954 46.178271 
L 504.454545 47.11426 
L 509.77187 47.889344 
L 531.041166 50.551643 
L 532.636364 50.660803 
L 532.636364 50.660803 
" clip-path="url(#p828a49f946)" style="fill: none; stroke: #cf1313; stroke-width: 1.5; stroke-linecap: square"/>
   </g>
   <g id="line2d_2">
    <path d="M 25.363636 49.680139 
L 28.554031 49.401529 
L 33.871355 49.244417 
L 38.125214 49.020798 
L 42.379074 48.54248 
L 47.696398 47.682486 
L 54.077187 46.424715 
L 58.862779 45.26472 
L 62.584906 44.129131 
L 66.838765 42.562228 
L 76.409949 38.896055 
L 83.854202 36.17075 
L 87.576329 34.50435 
L 92.893654 31.792965 
L 96.61578 29.974997 
L 99.806175 28.672858 
L 102.996569 27.644725 
L 107.782161 26.401473 
L 113.099485 24.953254 
L 123.202401 22.05237 
L 129.58319 20.577104 
L 133.83705 19.789029 
L 137.027444 19.44682 
L 139.686106 19.378728 
L 142.344768 19.510434 
L 145.535163 19.902174 
L 149.25729 20.618232 
L 152.979417 21.563845 
L 156.701544 22.738847 
L 160.955403 24.34516 
L 167.867925 27.26125 
L 173.716981 29.943395 
L 183.288165 34.455318 
L 190.732419 37.535445 
L 203.493997 42.764664 
L 207.216123 43.893044 
L 211.469983 44.935295 
L 217.850772 46.243582 
L 236.993139 49.76997 
L 241.246998 50.318227 
L 246.03259 50.705168 
L 250.286449 50.923552 
L 250.286449 50.923552 
" clip-path="url(#p828a49f946)" style="fill: none; stroke: #116dc2; stroke-width: 1.5; stroke-linecap: square"/>
   </g>
   <g id="line2d_3">
    <path d="M 37.06175 50.352746 
L 37.593482 49.94333 
L 38.125214 49.272535 
L 38.656947 48.354426 
L 39.188679 47.264628 
L 39.720412 46.037719 
L 40.252144 44.66308 
L 40.783877 43.144619 
L 41.315609 41.447143 
L 41.847341 39.433686 
L 42.379074 37.072761 
L 42.910806 34.598719 
L 43.442539 32.172882 
L 43.974271 29.588085 
L 44.506003 26.556327 
L 45.037736 23.087572 
L 45.569468 19.490931 
L 46.101201 16.169679 
L 46.632933 13.458637 
L 47.164666 11.473534 
L 47.696398 10.010135 
L 48.22813 8.711389 
L 48.759863 7.353733 
L 49.291595 5.886414 
L 49.823328 4.350336 
L 50.35506 3.034652 
L 50.886792 2.470909 
L 51.418525 2.827995 
L 51.950257 3.713668 
L 52.48199 4.936309 
L 53.013722 6.794472 
L 53.545455 9.415079 
L 54.077187 12.467359 
L 54.608919 15.490359 
L 55.140652 18.153455 
L 55.672384 20.475429 
L 56.204117 22.823578 
L 56.735849 25.46749 
L 57.267581 28.335291 
L 57.799314 31.232629 
L 58.331046 34.014355 
L 58.862779 36.603513 
L 59.394511 38.982633 
L 59.926244 41.121666 
L 60.457976 42.957652 
L 60.989708 44.499353 
L 61.521441 45.833082 
L 62.053173 46.989447 
L 62.584906 47.943158 
L 63.116638 48.698045 
L 63.64837 49.270611 
L 64.180103 49.691193 
" clip-path="url(#p828a49f946)" style="fill: none; stroke: #8a8a8a; stroke-width: 1.5; stroke-linecap: square"/>
   </g>
  </g>
 </g>
 <defs>
  <clipPath id="p828a49f946">
   <rect x="0" y="-0" width="558" height="54.36"/>
  </clipPath>
 </defs>
</svg>
