<?xml version="1.0" encoding="utf-8" standalone="no"?>
<!DOCTYPE svg PUBLIC "-//W3C//DTD SVG 1.1//EN"
  "http://www.w3.org/Graphics/SVG/1.1/DTD/svg11.dtd">
<svg xmlns:xlink="http://www.w3.org/1999/xlink" width="558pt" height="54.36pt" viewBox="0 0 558 54.36" xmlns="http://www.w3.org/2000/svg" version="1.1">
 <metadata>
  <rdf:RDF xmlns:dc="http://purl.org/dc/elements/1.1/" xmlns:cc="http://creativecommons.org/ns#" xmlns:rdf="http://www.w3.org/1999/02/22-rdf-syntax-ns#">
   <cc:Work>
    <dc:type rdf:resource="http://purl.org/dc/dcmitype/StillImage"/>
    <dc:date>2024-09-15T09:30:40.810630</dc:date>
    <dc:format>image/svg+xml</dc:format>
    <dc:creator>
     <cc:Agent>
      <dc:title>Matplotlib v3.5.2, https://matplotlib.org/</dc:title>
     </cc:Agent>
    </dc:creator>
   </cc:Work>
  </rdf:RDF>
 </metadata>
 <defs>
  <style type="text/css">*{stroke-linejoin: round; stroke-linecap: butt}</style>
 </defs>
 <g id="figure_1">
  <g id="patch_1">
   <path d="M 0 54.36 
L 558 54.36 
L 558 0 
L 0 0 
L 0 54.36 
z
" style="fill: none; opacity: 0"/>
  </g>
  <g id="axes_1">
   <g id="PolyCollection_1">
    <defs>
     <path id="m408d398f36" d="M 287.060478 -2.470909 
L 287.060478 -3.744757 
L 287.597843 -3.783678 
L 288.135208 -3.823604 
L 288.672573 -3.864541 
L 289.209938 -3.906494 
L 289.747304 -3.949467 
L 290.284669 -3.993465 
L 290.822034 -4.03849 
L 291.359399 -4.084546 
L 291.896764 -4.131632 
L 292.434129 -4.179751 
L 292.971495 -4.2289 
L 293.50886 -4.279079 
L 294.046225 -4.330285 
L 294.58359 -4.382514 
L 295.120955 -4.435761 
L 295.65832 -4.490019 
L 296.195686 -4.54528 
L 296.733051 -4.601537 
L 297.270416 -4.658777 
L 297.807781 -4.716989 
L 298.345146 -4.776159 
L 298.882512 -4.83627 
L 299.419877 -4.897306 
L 299.957242 -4.959246 
L 300.494607 -5.022067 
L 301.031972 -5.085746 
L 301.569337 -5.150255 
L 302.106703 -5.215564 
L 302.644068 -5.281643 
L 303.181433 -5.348457 
L 303.718798 -5.415972 
L 304.256163 -5.484152 
L 304.793529 -5.55296 
L 305.330894 -5.622359 
L 305.868259 -5.692315 
L 306.405624 -5.762795 
L 306.942989 -5.833768 
L 307.480354 -5.905211 
L 308.01772 -5.977104 
L 308.555085 -6.049434 
L 309.09245 -6.122198 
L 309.629815 -6.195401 
L 310.16718 -6.269059 
L 310.704545 -6.343199 
L 311.241911 -6.417863 
L 311.779276 -6.493102 
L 312.316641 -6.568983 
L 312.854006 -6.645585 
L 313.391371 -6.723 
L 313.928737 -6.801335 
L 314.466102 -6.880704 
L 315.003467 -6.961235 
L 315.540832 -7.043063 
L 316.078197 -7.126332 
L 316.615562 -7.211187 
L 317.152928 -7.297781 
L 317.690293 -7.386263 
L 318.227658 -7.476781 
L 318.765023 -7.56948 
L 319.302388 -7.664495 
L 319.839753 -7.761954 
L 320.377119 -7.861971 
L 320.914484 -7.964648 
L 321.451849 -8.070071 
L 321.989214 -8.178309 
L 322.526579 -8.289414 
L 323.063945 -8.403421 
L 323.60131 -8.520345 
L 324.138675 -8.640184 
L 324.67604 -8.76292 
L 325.213405 -8.888519 
L 325.75077 -9.016932 
L 326.288136 -9.148098 
L 326.825501 -9.281947 
L 327.362866 -9.4184 
L 327.900231 -9.557371 
L 328.437596 -9.698775 
L 328.974961 -9.842523 
L 329.512327 -9.988529 
L 330.049692 -10.136711 
L 330.587057 -10.286994 
L 331.124422 -10.439309 
L 331.661787 -10.593601 
L 332.199153 -10.749821 
L 332.736518 -10.907934 
L 333.273883 -11.067917 
L 333.811248 -11.229761 
L 334.348613 -11.393465 
L 334.885978 -11.559044 
L 335.423344 -11.726521 
L 335.960709 -11.895927 
L 336.498074 -12.067302 
L 337.035439 -12.240692 
L 337.572804 -12.416144 
L 338.110169 -12.593708 
L 338.647535 -12.773432 
L 339.1849 -12.955362 
L 339.722265 -13.139539 
L 340.25963 -13.325997 
L 340.796995 -13.514761 
L 341.334361 -13.705847 
L 341.871726 -13.899261 
L 342.409091 -14.095 
L 342.946456 -14.293048 
L 343.483821 -14.49338 
L 344.021186 -14.695963 
L 344.558552 -14.900755 
L 345.095917 -15.107706 
L 345.633282 -15.316763 
L 346.170647 -15.527867 
L 346.708012 -15.740959 
L 347.245378 -15.955976 
L 347.782743 -16.172858 
L 348.320108 -16.391543 
L 348.857473 -16.611972 
L 349.394838 -16.834085 
L 349.932203 -17.057822 
L 350.469569 -17.283123 
L 351.006934 -17.509925 
L 351.544299 -17.738159 
L 352.081664 -17.96775 
L 352.619029 -18.198613 
L 353.156394 -18.430651 
L 353.69376 -18.663751 
L 354.231125 -18.897786 
L 354.76849 -19.132608 
L 355.305855 -19.368046 
L 355.84322 -19.603911 
L 356.380586 -19.83999 
L 356.917951 -20.076047 
L 357.455316 -20.311828 
L 357.992681 -20.547056 
L 358.530046 -20.781439 
L 359.067411 -21.014672 
L 359.604777 -21.24644 
L 360.142142 -21.476422 
L 360.679507 -21.704296 
L 361.216872 -21.929745 
L 361.754237 -22.152462 
L 362.291602 -22.372154 
L 362.828968 -22.588549 
L 363.366333 -22.801399 
L 363.903698 -23.010487 
L 364.441063 -23.21563 
L 364.978428 -23.416681 
L 365.515794 -23.613534 
L 366.053159 -23.806126 
L 366.590524 -23.994439 
L 367.127889 -24.178499 
L 367.665254 -24.358377 
L 368.202619 -24.534187 
L 368.739985 -24.706088 
L 369.27735 -24.874277 
L 369.814715 -25.038989 
L 370.35208 -25.200492 
L 370.889445 -25.359081 
L 371.42681 -25.515078 
L 371.964176 -25.668822 
L 372.501541 -25.820664 
L 373.038906 -25.970962 
L 373.576271 -26.120075 
L 374.113636 -26.268355 
L 374.651002 -26.416141 
L 375.188367 -26.563753 
L 375.725732 -26.711487 
L 376.263097 -26.859605 
L 376.800462 -27.008335 
L 377.337827 -27.157861 
L 377.875193 -27.308321 
L 378.412558 -27.459806 
L 378.949923 -27.612351 
L 379.487288 -27.76594 
L 380.024653 -27.920501 
L 380.562018 -28.075908 
L 381.099384 -28.231982 
L 381.636749 -28.388496 
L 382.174114 -28.545176 
L 382.711479 -28.701707 
L 383.248844 -28.85774 
L 383.78621 -29.012901 
L 384.323575 -29.166792 
L 384.86094 -29.31901 
L 385.398305 -29.469146 
L 385.93567 -29.616802 
L 386.473035 -29.761596 
L 387.010401 -29.903176 
L 387.547766 -30.041223 
L 388.085131 -30.175464 
L 388.622496 -30.30568 
L 389.159861 -30.431709 
L 389.697227 -30.553455 
L 390.234592 -30.670889 
L 390.771957 -30.784054 
L 391.309322 -30.893065 
L 391.846687 -30.998107 
L 392.384052 -31.099433 
L 392.921418 -31.19736 
L 393.458783 -31.292265 
L 393.996148 -31.384573 
L 394.533513 -31.474751 
L 395.070878 -31.563298 
L 395.608243 -31.650733 
L 396.145609 -31.737583 
L 396.682974 -31.82437 
L 397.220339 -31.911599 
L 397.757704 -31.999743 
L 398.295069 -32.089234 
L 398.832435 -32.180448 
L 399.3698 -32.273694 
L 399.907165 -32.369206 
L 400.44453 -32.467133 
L 400.981895 -32.567533 
L 401.51926 -32.670368 
L 402.056626 -32.775498 
L 402.593991 -32.882687 
L 403.131356 -32.991598 
L 403.668721 -33.101802 
L 404.206086 -33.212778 
L 404.743451 -33.323926 
L 405.280817 -33.434574 
L 405.818182 -33.54399 
L 406.355547 -33.651396 
L 406.892912 -33.755978 
L 407.430277 -33.856904 
L 407.967643 -33.953337 
L 408.505008 -34.044449 
L 409.042373 -34.129436 
L 409.579738 -34.20753 
L 410.117103 -34.278016 
L 410.654468 -34.340233 
L 411.191834 -34.393596 
L 411.729199 -34.437591 
L 412.266564 -34.471792 
L 412.803929 -34.495856 
L 413.341294 -34.509532 
L 413.878659 -34.512654 
L 414.416025 -34.505148 
L 414.95339 -34.487022 
L 415.490755 -34.458367 
L 416.02812 -34.419348 
L 416.565485 -34.370202 
L 417.102851 -34.311229 
L 417.640216 -34.242784 
L 418.177581 -34.165276 
L 418.714946 -34.079154 
L 419.252311 -33.984906 
L 419.789676 -33.88305 
L 420.327042 -33.77413 
L 420.864407 -33.65871 
L 421.401772 -33.537368 
L 421.939137 -33.410694 
L 422.476502 -33.279285 
L 423.013867 -33.14374 
L 423.551233 -33.004658 
L 424.088598 -32.862632 
L 424.625963 -32.718247 
L 425.163328 -32.572077 
L 425.700693 -32.424678 
L 426.238059 -32.276582 
L 426.775424 -32.128299 
L 427.312789 -31.980301 
L 427.850154 -31.833027 
L 428.387519 -31.686869 
L 428.924884 -31.542169 
L 429.46225 -31.399214 
L 429.999615 -31.258227 
L 430.53698 -31.119367 
L 431.074345 -30.98272 
L 431.61171 -30.848298 
L 432.149076 -30.716037 
L 432.686441 -30.585795 
L 433.223806 -30.457356 
L 433.761171 -30.33043 
L 434.298536 -30.204657 
L 434.835901 -30.079617 
L 435.373267 -29.954836 
L 435.910632 -29.829796 
L 436.447997 -29.703946 
L 436.985362 -29.576716 
L 437.522727 -29.447529 
L 438.060092 -29.315817 
L 438.597458 -29.18103 
L 439.134823 -29.042657 
L 439.672188 -28.900234 
L 440.209553 -28.753355 
L 440.746918 -28.601687 
L 441.284284 -28.444973 
L 441.821649 -28.283042 
L 442.359014 -28.115811 
L 442.896379 -27.943287 
L 443.433744 -27.765563 
L 443.971109 -27.582819 
L 444.508475 -27.395313 
L 445.04584 -27.20337 
L 445.583205 -27.007377 
L 446.12057 -26.807769 
L 446.657935 -26.605016 
L 447.1953 -26.39961 
L 447.732666 -26.192049 
L 448.270031 -25.982831 
L 448.807396 -25.772432 
L 449.344761 -25.561303 
L 449.882126 -25.349853 
L 450.419492 -25.138447 
L 450.956857 -24.927394 
L 451.494222 -24.716947 
L 452.031587 -24.507297 
L 452.568952 -24.298578 
L 453.106317 -24.090863 
L 453.643683 -23.884171 
L 454.181048 -23.678471 
L 454.718413 -23.473688 
L 455.255778 -23.269712 
L 455.793143 -23.066404 
L 456.330508 -22.863604 
L 456.867874 -22.661142 
L 457.405239 -22.458844 
L 457.942604 -22.256539 
L 458.479969 -22.054066 
L 459.017334 -21.851283 
L 459.5547 -21.648064 
L 460.092065 -21.44431 
L 460.62943 -21.239947 
L 461.166795 -21.034929 
L 461.70416 -20.829235 
L 462.241525 -20.62287 
L 462.778891 -20.415865 
L 463.316256 -20.208266 
L 463.853621 -20.000141 
L 464.390986 -19.791567 
L 464.928351 -19.582632 
L 465.465716 -19.373428 
L 466.003082 -19.164047 
L 466.540447 -18.954579 
L 467.077812 -18.745106 
L 467.615177 -18.535702 
L 468.152542 -18.326431 
L 468.689908 -18.117343 
L 469.227273 -17.908477 
L 469.764638 -17.699857 
L 470.302003 -17.491498 
L 470.839368 -17.283402 
L 471.376733 -17.075565 
L 471.914099 -16.867977 
L 472.451464 -16.660622 
L 472.988829 -16.453488 
L 473.526194 -16.246565 
L 474.063559 -16.039847 
L 474.600924 -15.833339 
L 475.13829 -15.627056 
L 475.675655 -15.421029 
L 476.21302 -15.215302 
L 476.750385 -15.009934 
L 477.28775 -14.805004 
L 477.825116 -14.600604 
L 478.362481 -14.396842 
L 478.899846 -14.193842 
L 479.437211 -13.991736 
L 479.974576 -13.790669 
L 480.511941 -13.59079 
L 481.049307 -13.392253 
L 481.586672 -13.195212 
L 482.124037 -12.999816 
L 482.661402 -12.806211 
L 483.198767 -12.614531 
L 483.736133 -12.424901 
L 484.273498 -12.237429 
L 484.810863 -12.05221 
L 485.348228 -11.869322 
L 485.885593 -11.688826 
L 486.422958 -11.510767 
L 486.960324 -11.335174 
L 487.497689 -11.16206 
L 488.035054 -10.991427 
L 488.572419 -10.823265 
L 489.109784 -10.657558 
L 489.647149 -10.494284 
L 490.184515 -10.333418 
L 490.72188 -10.174938 
L 491.259245 -10.018821 
L 491.79661 -9.865055 
L 492.333975 -9.713631 
L 492.871341 -9.564554 
L 493.408706 -9.417837 
L 493.946071 -9.273507 
L 494.483436 -9.131599 
L 495.020801 -8.992163 
L 495.558166 -8.855258 
L 496.095532 -8.720953 
L 496.632897 -8.589322 
L 497.170262 -8.460445 
L 497.707627 -8.334404 
L 498.244992 -8.211282 
L 498.782357 -8.091155 
L 499.319723 -7.974095 
L 499.857088 -7.860164 
L 500.394453 -7.749412 
L 500.931818 -7.641873 
L 501.469183 -7.537565 
L 502.006549 -7.436488 
L 502.543914 -7.33862 
L 503.081279 -7.24392 
L 503.618644 -7.152326 
L 504.156009 -7.063753 
L 504.693374 -6.978099 
L 505.23074 -6.895241 
L 505.768105 -6.815039 
L 506.30547 -6.737342 
L 506.842835 -6.661982 
L 507.3802 -6.588785 
L 507.917565 -6.517571 
L 508.454931 -6.448157 
L 508.992296 -6.38036 
L 509.529661 -6.314001 
L 510.067026 -6.24891 
L 510.604391 -6.184923 
L 511.141757 -6.12189 
L 511.679122 -6.059674 
L 512.216487 -5.998155 
L 512.753852 -5.937226 
L 513.291217 -5.876798 
L 513.828582 -5.816798 
L 514.365948 -5.757167 
L 514.903313 -5.697862 
L 515.440678 -5.638851 
L 515.978043 -5.580111 
L 516.515408 -5.521631 
L 517.052773 -5.463401 
L 517.590139 -5.405418 
L 518.127504 -5.347678 
L 518.664869 -5.290176 
L 519.202234 -5.232906 
L 519.739599 -5.175857 
L 520.276965 -5.119013 
L 520.81433 -5.062352 
L 521.351695 -5.005849 
L 521.88906 -4.949473 
L 522.426425 -4.89319 
L 522.96379 -4.836963 
L 523.501156 -4.780757 
L 524.038521 -4.724538 
L 524.575886 -4.668275 
L 525.113251 -4.611947 
L 525.650616 -4.555539 
L 526.187982 -4.499046 
L 526.725347 -4.442479 
L 527.262712 -4.38586 
L 527.800077 -4.329226 
L 528.337442 -4.27263 
L 528.874807 -4.216139 
L 529.412173 -4.159834 
L 529.949538 -4.10381 
L 530.486903 -4.048174 
L 531.024268 -3.993041 
L 531.561633 -3.938535 
L 532.098998 -3.884782 
L 532.636364 -3.831914 
L 532.636364 -2.470909 
L 532.636364 -2.470909 
L 532.098998 -2.470909 
L 531.561633 -2.470909 
L 531.024268 -2.470909 
L 530.486903 -2.470909 
L 529.949538 -2.470909 
L 529.412173 -2.470909 
L 528.874807 -2.470909 
L 528.337442 -2.470909 
L 527.800077 -2.470909 
L 527.262712 -2.470909 
L 526.725347 -2.470909 
L 526.187982 -2.470909 
L 525.650616 -2.470909 
L 525.113251 -2.470909 
L 524.575886 -2.470909 
L 524.038521 -2.470909 
L 523.501156 -2.470909 
L 522.96379 -2.470909 
L 522.426425 -2.470909 
L 521.88906 -2.470909 
L 521.351695 -2.470909 
L 520.81433 -2.470909 
L 520.276965 -2.470909 
L 519.739599 -2.470909 
L 519.202234 -2.470909 
L 518.664869 -2.470909 
L 518.127504 -2.470909 
L 517.590139 -2.470909 
L 517.052773 -2.470909 
L 516.515408 -2.470909 
L 515.978043 -2.470909 
L 515.440678 -2.470909 
L 514.903313 -2.470909 
L 514.365948 -2.470909 
L 513.828582 -2.470909 
L 513.291217 -2.470909 
L 512.753852 -2.470909 
L 512.216487 -2.470909 
L 511.679122 -2.470909 
L 511.141757 -2.470909 
L 510.604391 -2.470909 
L 510.067026 -2.470909 
L 509.529661 -2.470909 
L 508.992296 -2.470909 
L 508.454931 -2.470909 
L 507.917565 -2.470909 
L 507.3802 -2.470909 
L 506.842835 -2.470909 
L 506.30547 -2.470909 
L 505.768105 -2.470909 
L 505.23074 -2.470909 
L 504.693374 -2.470909 
L 504.156009 -2.470909 
L 503.618644 -2.470909 
L 503.081279 -2.470909 
L 502.543914 -2.470909 
L 502.006549 -2.470909 
L 501.469183 -2.470909 
L 500.931818 -2.470909 
L 500.394453 -2.470909 
L 499.857088 -2.470909 
L 499.319723 -2.470909 
L 498.782357 -2.470909 
L 498.244992 -2.470909 
L 497.707627 -2.470909 
L 497.170262 -2.470909 
L 496.632897 -2.470909 
L 496.095532 -2.470909 
L 495.558166 -2.470909 
L 495.020801 -2.470909 
L 494.483436 -2.470909 
L 493.946071 -2.470909 
L 493.408706 -2.470909 
L 492.871341 -2.470909 
L 492.333975 -2.470909 
L 491.79661 -2.470909 
L 491.259245 -2.470909 
L 490.72188 -2.470909 
L 490.184515 -2.470909 
L 489.647149 -2.470909 
L 489.109784 -2.470909 
L 488.572419 -2.470909 
L 488.035054 -2.470909 
L 487.497689 -2.470909 
L 486.960324 -2.470909 
L 486.422958 -2.470909 
L 485.885593 -2.470909 
L 485.348228 -2.470909 
L 484.810863 -2.470909 
L 484.273498 -2.470909 
L 483.736133 -2.470909 
L 483.198767 -2.470909 
L 482.661402 -2.470909 
L 482.124037 -2.470909 
L 481.586672 -2.470909 
L 481.049307 -2.470909 
L 480.511941 -2.470909 
L 479.974576 -2.470909 
L 479.437211 -2.470909 
L 478.899846 -2.470909 
L 478.362481 -2.470909 
L 477.825116 -2.470909 
L 477.28775 -2.470909 
L 476.750385 -2.470909 
L 476.21302 -2.470909 
L 475.675655 -2.470909 
L 475.13829 -2.470909 
L 474.600924 -2.470909 
L 474.063559 -2.470909 
L 473.526194 -2.470909 
L 472.988829 -2.470909 
L 472.451464 -2.470909 
L 471.914099 -2.470909 
L 471.376733 -2.470909 
L 470.839368 -2.470909 
L 470.302003 -2.470909 
L 469.764638 -2.470909 
L 469.227273 -2.470909 
L 468.689908 -2.470909 
L 468.152542 -2.470909 
L 467.615177 -2.470909 
L 467.077812 -2.470909 
L 466.540447 -2.470909 
L 466.003082 -2.470909 
L 465.465716 -2.470909 
L 464.928351 -2.470909 
L 464.390986 -2.470909 
L 463.853621 -2.470909 
L 463.316256 -2.470909 
L 462.778891 -2.470909 
L 462.241525 -2.470909 
L 461.70416 -2.470909 
L 461.166795 -2.470909 
L 460.62943 -2.470909 
L 460.092065 -2.470909 
L 459.5547 -2.470909 
L 459.017334 -2.470909 
L 458.479969 -2.470909 
L 457.942604 -2.470909 
L 457.405239 -2.470909 
L 456.867874 -2.470909 
L 456.330508 -2.470909 
L 455.793143 -2.470909 
L 455.255778 -2.470909 
L 454.718413 -2.470909 
L 454.181048 -2.470909 
L 453.643683 -2.470909 
L 453.106317 -2.470909 
L 452.568952 -2.470909 
L 452.031587 -2.470909 
L 451.494222 -2.470909 
L 450.956857 -2.470909 
L 450.419492 -2.470909 
L 449.882126 -2.470909 
L 449.344761 -2.470909 
L 448.807396 -2.470909 
L 448.270031 -2.470909 
L 447.732666 -2.470909 
L 447.1953 -2.470909 
L 446.657935 -2.470909 
L 446.12057 -2.470909 
L 445.583205 -2.470909 
L 445.04584 -2.470909 
L 444.508475 -2.470909 
L 443.971109 -2.470909 
L 443.433744 -2.470909 
L 442.896379 -2.470909 
L 442.359014 -2.470909 
L 441.821649 -2.470909 
L 441.284284 -2.470909 
L 440.746918 -2.470909 
L 440.209553 -2.470909 
L 439.672188 -2.470909 
L 439.134823 -2.470909 
L 438.597458 -2.470909 
L 438.060092 -2.470909 
L 437.522727 -2.470909 
L 436.985362 -2.470909 
L 436.447997 -2.470909 
L 435.910632 -2.470909 
L 435.373267 -2.470909 
L 434.835901 -2.470909 
L 434.298536 -2.470909 
L 433.761171 -2.470909 
L 433.223806 -2.470909 
L 432.686441 -2.470909 
L 432.149076 -2.470909 
L 431.61171 -2.470909 
L 431.074345 -2.470909 
L 430.53698 -2.470909 
L 429.999615 -2.470909 
L 429.46225 -2.470909 
L 428.924884 -2.470909 
L 428.387519 -2.470909 
L 427.850154 -2.470909 
L 427.312789 -2.470909 
L 426.775424 -2.470909 
L 426.238059 -2.470909 
L 425.700693 -2.470909 
L 425.163328 -2.470909 
L 424.625963 -2.470909 
L 424.088598 -2.470909 
L 423.551233 -2.470909 
L 423.013867 -2.470909 
L 422.476502 -2.470909 
L 421.939137 -2.470909 
L 421.401772 -2.470909 
L 420.864407 -2.470909 
L 420.327042 -2.470909 
L 419.789676 -2.470909 
L 419.252311 -2.470909 
L 418.714946 -2.470909 
L 418.177581 -2.470909 
L 417.640216 -2.470909 
L 417.102851 -2.470909 
L 416.565485 -2.470909 
L 416.02812 -2.470909 
L 415.490755 -2.470909 
L 414.95339 -2.470909 
L 414.416025 -2.470909 
L 413.878659 -2.470909 
L 413.341294 -2.470909 
L 412.803929 -2.470909 
L 412.266564 -2.470909 
L 411.729199 -2.470909 
L 411.191834 -2.470909 
L 410.654468 -2.470909 
L 410.117103 -2.470909 
L 409.579738 -2.470909 
L 409.042373 -2.470909 
L 408.505008 -2.470909 
L 407.967643 -2.470909 
L 407.430277 -2.470909 
L 406.892912 -2.470909 
L 406.355547 -2.470909 
L 405.818182 -2.470909 
L 405.280817 -2.470909 
L 404.743451 -2.470909 
L 404.206086 -2.470909 
L 403.668721 -2.470909 
L 403.131356 -2.470909 
L 402.593991 -2.470909 
L 402.056626 -2.470909 
L 401.51926 -2.470909 
L 400.981895 -2.470909 
L 400.44453 -2.470909 
L 399.907165 -2.470909 
L 399.3698 -2.470909 
L 398.832435 -2.470909 
L 398.295069 -2.470909 
L 397.757704 -2.470909 
L 397.220339 -2.470909 
L 396.682974 -2.470909 
L 396.145609 -2.470909 
L 395.608243 -2.470909 
L 395.070878 -2.470909 
L 394.533513 -2.470909 
L 393.996148 -2.470909 
L 393.458783 -2.470909 
L 392.921418 -2.470909 
L 392.384052 -2.470909 
L 391.846687 -2.470909 
L 391.309322 -2.470909 
L 390.771957 -2.470909 
L 390.234592 -2.470909 
L 389.697227 -2.470909 
L 389.159861 -2.470909 
L 388.622496 -2.470909 
L 388.085131 -2.470909 
L 387.547766 -2.470909 
L 387.010401 -2.470909 
L 386.473035 -2.470909 
L 385.93567 -2.470909 
L 385.398305 -2.470909 
L 384.86094 -2.470909 
L 384.323575 -2.470909 
L 383.78621 -2.470909 
L 383.248844 -2.470909 
L 382.711479 -2.470909 
L 382.174114 -2.470909 
L 381.636749 -2.470909 
L 381.099384 -2.470909 
L 380.562018 -2.470909 
L 380.024653 -2.470909 
L 379.487288 -2.470909 
L 378.949923 -2.470909 
L 378.412558 -2.470909 
L 377.875193 -2.470909 
L 377.337827 -2.470909 
L 376.800462 -2.470909 
L 376.263097 -2.470909 
L 375.725732 -2.470909 
L 375.188367 -2.470909 
L 374.651002 -2.470909 
L 374.113636 -2.470909 
L 373.576271 -2.470909 
L 373.038906 -2.470909 
L 372.501541 -2.470909 
L 371.964176 -2.470909 
L 371.42681 -2.470909 
L 370.889445 -2.470909 
L 370.35208 -2.470909 
L 369.814715 -2.470909 
L 369.27735 -2.470909 
L 368.739985 -2.470909 
L 368.202619 -2.470909 
L 367.665254 -2.470909 
L 367.127889 -2.470909 
L 366.590524 -2.470909 
L 366.053159 -2.470909 
L 365.515794 -2.470909 
L 364.978428 -2.470909 
L 364.441063 -2.470909 
L 363.903698 -2.470909 
L 363.366333 -2.470909 
L 362.828968 -2.470909 
L 362.291602 -2.470909 
L 361.754237 -2.470909 
L 361.216872 -2.470909 
L 360.679507 -2.470909 
L 360.142142 -2.470909 
L 359.604777 -2.470909 
L 359.067411 -2.470909 
L 358.530046 -2.470909 
L 357.992681 -2.470909 
L 357.455316 -2.470909 
L 356.917951 -2.470909 
L 356.380586 -2.470909 
L 355.84322 -2.470909 
L 355.305855 -2.470909 
L 354.76849 -2.470909 
L 354.231125 -2.470909 
L 353.69376 -2.470909 
L 353.156394 -2.470909 
L 352.619029 -2.470909 
L 352.081664 -2.470909 
L 351.544299 -2.470909 
L 351.006934 -2.470909 
L 350.469569 -2.470909 
L 349.932203 -2.470909 
L 349.394838 -2.470909 
L 348.857473 -2.470909 
L 348.320108 -2.470909 
L 347.782743 -2.470909 
L 347.245378 -2.470909 
L 346.708012 -2.470909 
L 346.170647 -2.470909 
L 345.633282 -2.470909 
L 345.095917 -2.470909 
L 344.558552 -2.470909 
L 344.021186 -2.470909 
L 343.483821 -2.470909 
L 342.946456 -2.470909 
L 342.409091 -2.470909 
L 341.871726 -2.470909 
L 341.334361 -2.470909 
L 340.796995 -2.470909 
L 340.25963 -2.470909 
L 339.722265 -2.470909 
L 339.1849 -2.470909 
L 338.647535 -2.470909 
L 338.110169 -2.470909 
L 337.572804 -2.470909 
L 337.035439 -2.470909 
L 336.498074 -2.470909 
L 335.960709 -2.470909 
L 335.423344 -2.470909 
L 334.885978 -2.470909 
L 334.348613 -2.470909 
L 333.811248 -2.470909 
L 333.273883 -2.470909 
L 332.736518 -2.470909 
L 332.199153 -2.470909 
L 331.661787 -2.470909 
L 331.124422 -2.470909 
L 330.587057 -2.470909 
L 330.049692 -2.470909 
L 329.512327 -2.470909 
L 328.974961 -2.470909 
L 328.437596 -2.470909 
L 327.900231 -2.470909 
L 327.362866 -2.470909 
L 326.825501 -2.470909 
L 326.288136 -2.470909 
L 325.75077 -2.470909 
L 325.213405 -2.470909 
L 324.67604 -2.470909 
L 324.138675 -2.470909 
L 323.60131 -2.470909 
L 323.063945 -2.470909 
L 322.526579 -2.470909 
L 321.989214 -2.470909 
L 321.451849 -2.470909 
L 320.914484 -2.470909 
L 320.377119 -2.470909 
L 319.839753 -2.470909 
L 319.302388 -2.470909 
L 318.765023 -2.470909 
L 318.227658 -2.470909 
L 317.690293 -2.470909 
L 317.152928 -2.470909 
L 316.615562 -2.470909 
L 316.078197 -2.470909 
L 315.540832 -2.470909 
L 315.003467 -2.470909 
L 314.466102 -2.470909 
L 313.928737 -2.470909 
L 313.391371 -2.470909 
L 312.854006 -2.470909 
L 312.316641 -2.470909 
L 311.779276 -2.470909 
L 311.241911 -2.470909 
L 310.704545 -2.470909 
L 310.16718 -2.470909 
L 309.629815 -2.470909 
L 309.09245 -2.470909 
L 308.555085 -2.470909 
L 308.01772 -2.470909 
L 307.480354 -2.470909 
L 306.942989 -2.470909 
L 306.405624 -2.470909 
L 305.868259 -2.470909 
L 305.330894 -2.470909 
L 304.793529 -2.470909 
L 304.256163 -2.470909 
L 303.718798 -2.470909 
L 303.181433 -2.470909 
L 302.644068 -2.470909 
L 302.106703 -2.470909 
L 301.569337 -2.470909 
L 301.031972 -2.470909 
L 300.494607 -2.470909 
L 299.957242 -2.470909 
L 299.419877 -2.470909 
L 298.882512 -2.470909 
L 298.345146 -2.470909 
L 297.807781 -2.470909 
L 297.270416 -2.470909 
L 296.733051 -2.470909 
L 296.195686 -2.470909 
L 295.65832 -2.470909 
L 295.120955 -2.470909 
L 294.58359 -2.470909 
L 294.046225 -2.470909 
L 293.50886 -2.470909 
L 292.971495 -2.470909 
L 292.434129 -2.470909 
L 291.896764 -2.470909 
L 291.359399 -2.470909 
L 290.822034 -2.470909 
L 290.284669 -2.470909 
L 289.747304 -2.470909 
L 289.209938 -2.470909 
L 288.672573 -2.470909 
L 288.135208 -2.470909 
L 287.597843 -2.470909 
L 287.060478 -2.470909 
z
" style="stroke: #cf1313; stroke-opacity: 0.2"/>
    </defs>
    <g clip-path="url(#pad3cdaa1e5)">
     <use xlink:href="#m408d398f36" x="0" y="54.36" style="fill: #cf1313; fill-opacity: 0.2; stroke: #cf1313; stroke-opacity: 0.2"/>
    </g>
   </g>
   <g id="PolyCollection_2">
    <defs>
     <path id="m47fe369b71" d="M 25.363636 -2.470909 
L 25.363636 -4.761428 
L 25.901002 -4.826577 
L 26.438367 -4.885518 
L 26.975732 -4.93829 
L 27.513097 -4.985075 
L 28.050462 -5.026193 
L 28.587827 -5.062094 
L 29.125193 -5.093345 
L 29.662558 -5.120611 
L 30.199923 -5.144641 
L 30.737288 -5.166245 
L 31.274653 -5.186271 
L 31.812018 -5.205586 
L 32.349384 -5.225051 
L 32.886749 -5.245502 
L 33.424114 -5.267731 
L 33.961479 -5.292467 
L 34.498844 -5.320365 
L 35.03621 -5.351989 
L 35.573575 -5.387806 
L 36.11094 -5.428181 
L 36.648305 -5.473375 
L 37.18567 -5.523543 
L 37.723035 -5.578741 
L 38.260401 -5.638932 
L 38.797766 -5.703994 
L 39.335131 -5.773729 
L 39.872496 -5.847882 
L 40.409861 -5.926148 
L 40.947227 -6.008188 
L 41.484592 -6.093645 
L 42.021957 -6.182154 
L 42.559322 -6.27336 
L 43.096687 -6.366925 
L 43.634052 -6.46254 
L 44.171418 -6.559931 
L 44.708783 -6.658869 
L 45.246148 -6.75917 
L 45.783513 -6.860698 
L 46.320878 -6.963366 
L 46.858243 -7.06713 
L 47.395609 -7.171988 
L 47.932974 -7.277976 
L 48.470339 -7.385155 
L 49.007704 -7.493614 
L 49.545069 -7.603451 
L 50.082435 -7.714778 
L 50.6198 -7.827704 
L 51.157165 -7.942335 
L 51.69453 -8.058768 
L 52.231895 -8.177086 
L 52.76926 -8.297354 
L 53.306626 -8.419622 
L 53.843991 -8.543919 
L 54.381356 -8.670256 
L 54.918721 -8.79863 
L 55.456086 -8.929018 
L 55.993451 -9.061388 
L 56.530817 -9.195694 
L 57.068182 -9.331882 
L 57.605547 -9.469891 
L 58.142912 -9.609654 
L 58.680277 -9.751099 
L 59.217643 -9.894153 
L 59.755008 -10.038738 
L 60.292373 -10.184772 
L 60.829738 -10.332175 
L 61.367103 -10.480861 
L 61.904468 -10.630747 
L 62.441834 -10.781748 
L 62.979199 -10.933781 
L 63.516564 -11.086768 
L 64.053929 -11.24064 
L 64.591294 -11.395337 
L 65.128659 -11.550814 
L 65.666025 -11.707049 
L 66.20339 -11.864041 
L 66.740755 -12.021819 
L 67.27812 -12.180448 
L 67.815485 -12.340026 
L 68.352851 -12.500696 
L 68.890216 -12.66264 
L 69.427581 -12.826082 
L 69.964946 -12.991292 
L 70.502311 -13.158574 
L 71.039676 -13.328271 
L 71.577042 -13.500755 
L 72.114407 -13.676419 
L 72.651772 -13.855674 
L 73.189137 -14.038931 
L 73.726502 -14.226599 
L 74.263867 -14.419068 
L 74.801233 -14.616701 
L 75.338598 -14.819819 
L 75.875963 -15.028696 
L 76.413328 -15.243542 
L 76.950693 -15.464498 
L 77.488059 -15.691625 
L 78.025424 -15.924902 
L 78.562789 -16.164216 
L 79.100154 -16.409363 
L 79.637519 -16.660048 
L 80.174884 -16.915885 
L 80.71225 -17.176403 
L 81.249615 -17.441055 
L 81.78698 -17.709223 
L 82.324345 -17.980234 
L 82.86171 -18.253373 
L 83.399076 -18.527895 
L 83.936441 -18.803046 
L 84.473806 -19.078079 
L 85.011171 -19.352271 
L 85.548536 -19.62494 
L 86.085901 -19.895463 
L 86.623267 -20.16329 
L 87.160632 -20.427961 
L 87.697997 -20.689109 
L 88.235362 -20.946475 
L 88.772727 -21.19991 
L 89.310092 -21.449377 
L 89.847458 -21.694944 
L 90.384823 -21.936786 
L 90.922188 -22.17517 
L 91.459553 -22.410444 
L 91.996918 -22.643022 
L 92.534284 -22.87337 
L 93.071649 -23.101982 
L 93.609014 -23.329366 
L 94.146379 -23.556024 
L 94.683744 -23.782428 
L 95.221109 -24.009009 
L 95.758475 -24.236139 
L 96.29584 -24.464114 
L 96.833205 -24.693148 
L 97.37057 -24.923363 
L 97.907935 -25.154782 
L 98.4453 -25.387333 
L 98.982666 -25.620845 
L 99.520031 -25.855058 
L 100.057396 -26.089627 
L 100.594761 -26.324135 
L 101.132126 -26.558106 
L 101.669492 -26.791015 
L 102.206857 -27.02231 
L 102.744222 -27.251425 
L 103.281587 -27.477796 
L 103.818952 -27.700879 
L 104.356317 -27.920163 
L 104.893683 -28.135187 
L 105.431048 -28.345548 
L 105.968413 -28.550915 
L 106.505778 -28.751032 
L 107.043143 -28.945727 
L 107.580508 -29.134909 
L 108.117874 -29.318571 
L 108.655239 -29.496783 
L 109.192604 -29.669685 
L 109.729969 -29.837482 
L 110.267334 -30.000432 
L 110.8047 -30.158831 
L 111.342065 -30.313006 
L 111.87943 -30.463299 
L 112.416795 -30.610054 
L 112.95416 -30.753609 
L 113.491525 -30.894283 
L 114.028891 -31.032368 
L 114.566256 -31.168126 
L 115.103621 -31.301781 
L 115.640986 -31.433517 
L 116.178351 -31.563484 
L 116.715716 -31.691792 
L 117.253082 -31.818522 
L 117.790447 -31.943725 
L 118.327812 -32.067433 
L 118.865177 -32.189662 
L 119.402542 -32.310417 
L 119.939908 -32.429701 
L 120.477273 -32.547515 
L 121.014638 -32.663866 
L 121.552003 -32.778765 
L 122.089368 -32.892226 
L 122.626733 -33.004271 
L 123.164099 -33.11492 
L 123.701464 -33.22419 
L 124.238829 -33.332091 
L 124.776194 -33.438617 
L 125.313559 -33.543743 
L 125.850924 -33.647415 
L 126.38829 -33.749545 
L 126.925655 -33.850007 
L 127.46302 -33.948629 
L 128.000385 -34.04519 
L 128.53775 -34.13942 
L 129.075116 -34.230995 
L 129.612481 -34.319541 
L 130.149846 -34.404633 
L 130.687211 -34.485804 
L 131.224576 -34.562544 
L 131.761941 -34.634316 
L 132.299307 -34.700556 
L 132.836672 -34.760691 
L 133.374037 -34.814147 
L 133.911402 -34.860364 
L 134.448767 -34.898808 
L 134.986133 -34.928982 
L 135.523498 -34.950447 
L 136.060863 -34.962828 
L 136.598228 -34.96583 
L 137.135593 -34.959247 
L 137.672958 -34.942971 
L 138.210324 -34.917 
L 138.747689 -34.88144 
L 139.285054 -34.836505 
L 139.822419 -34.782515 
L 140.359784 -34.719894 
L 140.897149 -34.649154 
L 141.434515 -34.570887 
L 141.97188 -34.485753 
L 142.509245 -34.394454 
L 143.04661 -34.297726 
L 143.583975 -34.196308 
L 144.121341 -34.090931 
L 144.658706 -33.982291 
L 145.196071 -33.871034 
L 145.733436 -33.757737 
L 146.270801 -33.642893 
L 146.808166 -33.526902 
L 147.345532 -33.410057 
L 147.882897 -33.292547 
L 148.420262 -33.17445 
L 148.957627 -33.055737 
L 149.494992 -32.936283 
L 150.032357 -32.815872 
L 150.569723 -32.694211 
L 151.107088 -32.570946 
L 151.644453 -32.445678 
L 152.181818 -32.317979 
L 152.719183 -32.187411 
L 153.256549 -32.053544 
L 153.793914 -31.915972 
L 154.331279 -31.774328 
L 154.868644 -31.628296 
L 155.406009 -31.477626 
L 155.943374 -31.322139 
L 156.48074 -31.161738 
L 157.018105 -30.996409 
L 157.55547 -30.826222 
L 158.092835 -30.651337 
L 158.6302 -30.471993 
L 159.167565 -30.288511 
L 159.704931 -30.101284 
L 160.242296 -29.910769 
L 160.779661 -29.71748 
L 161.317026 -29.521976 
L 161.854391 -29.324849 
L 162.391757 -29.126714 
L 162.929122 -28.928191 
L 163.466487 -28.729897 
L 164.003852 -28.532427 
L 164.541217 -28.336343 
L 165.078582 -28.142156 
L 165.615948 -27.95032 
L 166.153313 -27.761211 
L 166.690678 -27.575122 
L 167.228043 -27.392253 
L 167.765408 -27.212701 
L 168.302773 -27.036459 
L 168.840139 -26.86341 
L 169.377504 -26.693331 
L 169.914869 -26.525897 
L 170.452234 -26.360687 
L 170.989599 -26.197193 
L 171.526965 -26.034835 
L 172.06433 -25.872975 
L 172.601695 -25.710933 
L 173.13906 -25.548009 
L 173.676425 -25.383495 
L 174.21379 -25.216705 
L 174.751156 -25.046982 
L 175.288521 -24.873725 
L 175.825886 -24.696401 
L 176.363251 -24.514558 
L 176.900616 -24.327835 
L 177.437982 -24.135975 
L 177.975347 -23.938823 
L 178.512712 -23.73633 
L 179.050077 -23.528551 
L 179.587442 -23.315638 
L 180.124807 -23.097836 
L 180.662173 -22.875465 
L 181.199538 -22.648916 
L 181.736903 -22.418632 
L 182.274268 -22.185093 
L 182.811633 -21.948805 
L 183.348998 -21.710282 
L 183.886364 -21.470034 
L 184.423729 -21.22855 
L 184.961094 -20.986294 
L 185.498459 -20.743689 
L 186.035824 -20.50111 
L 186.57319 -20.258883 
L 187.110555 -20.017274 
L 187.64792 -19.776495 
L 188.185285 -19.536697 
L 188.72265 -19.297977 
L 189.260015 -19.060376 
L 189.797381 -18.823891 
L 190.334746 -18.588473 
L 190.872111 -18.354036 
L 191.409476 -18.120467 
L 191.946841 -17.887628 
L 192.484206 -17.655367 
L 193.021572 -17.423525 
L 193.558937 -17.19194 
L 194.096302 -16.960458 
L 194.633667 -16.728937 
L 195.171032 -16.497252 
L 195.708398 -16.265302 
L 196.245763 -16.033013 
L 196.783128 -15.800342 
L 197.320493 -15.567278 
L 197.857858 -15.333844 
L 198.395223 -15.1001 
L 198.932589 -14.866142 
L 199.469954 -14.632096 
L 200.007319 -14.398125 
L 200.544684 -14.164419 
L 201.082049 -13.931195 
L 201.619414 -13.698694 
L 202.15678 -13.467175 
L 202.694145 -13.236911 
L 203.23151 -13.008186 
L 203.768875 -12.781287 
L 204.30624 -12.556505 
L 204.843606 -12.334123 
L 205.380971 -12.114419 
L 205.918336 -11.897658 
L 206.455701 -11.68409 
L 206.993066 -11.473947 
L 207.530431 -11.267438 
L 208.067797 -11.064754 
L 208.605162 -10.866059 
L 209.142527 -10.671492 
L 209.679892 -10.481169 
L 210.217257 -10.295179 
L 210.754622 -10.113587 
L 211.291988 -9.936435 
L 211.829353 -9.763741 
L 212.366718 -9.595502 
L 212.904083 -9.431697 
L 213.441448 -9.272286 
L 213.978814 -9.117213 
L 214.516179 -8.966411 
L 215.053544 -8.819798 
L 215.590909 -8.677286 
L 216.128274 -8.538779 
L 216.665639 -8.404175 
L 217.203005 -8.273369 
L 217.74037 -8.146256 
L 218.277735 -8.022729 
L 218.8151 -7.902683 
L 219.352465 -7.786015 
L 219.889831 -7.672625 
L 220.427196 -7.562415 
L 220.964561 -7.455288 
L 221.501926 -7.351152 
L 222.039291 -7.249914 
L 222.576656 -7.151483 
L 223.114022 -7.055765 
L 223.651387 -6.962665 
L 224.188752 -6.872085 
L 224.726117 -6.783921 
L 225.263482 -6.698062 
L 225.800847 -6.614393 
L 226.338213 -6.532789 
L 226.875578 -6.453117 
L 227.412943 -6.375238 
L 227.950308 -6.299004 
L 228.487673 -6.224262 
L 229.025039 -6.150854 
L 229.562404 -6.078621 
L 230.099769 -6.007402 
L 230.637134 -5.937039 
L 231.174499 -5.867379 
L 231.711864 -5.798277 
L 232.24923 -5.729599 
L 232.786595 -5.661222 
L 233.32396 -5.593043 
L 233.861325 -5.524972 
L 234.39869 -5.456942 
L 234.936055 -5.388903 
L 235.473421 -5.320828 
L 236.010786 -5.25271 
L 236.548151 -5.18456 
L 237.085516 -5.116411 
L 237.622881 -5.048309 
L 238.160247 -4.980316 
L 238.697612 -4.912509 
L 239.234977 -4.84497 
L 239.772342 -4.77779 
L 240.309707 -4.711064 
L 240.847072 -4.644888 
L 241.384438 -4.579355 
L 241.921803 -4.514558 
L 242.459168 -4.450582 
L 242.996533 -4.387506 
L 243.533898 -4.3254 
L 244.071263 -4.264329 
L 244.608629 -4.204346 
L 245.145994 -4.145499 
L 245.683359 -4.087827 
L 246.220724 -4.031363 
L 246.758089 -3.976134 
L 247.295455 -3.922164 
L 247.83282 -3.869474 
L 247.83282 -2.470909 
L 247.83282 -2.470909 
L 247.295455 -2.470909 
L 246.758089 -2.470909 
L 246.220724 -2.470909 
L 245.683359 -2.470909 
L 245.145994 -2.470909 
L 244.608629 -2.470909 
L 244.071263 -2.470909 
L 243.533898 -2.470909 
L 242.996533 -2.470909 
L 242.459168 -2.470909 
L 241.921803 -2.470909 
L 241.384438 -2.470909 
L 240.847072 -2.470909 
L 240.309707 -2.470909 
L 239.772342 -2.470909 
L 239.234977 -2.470909 
L 238.697612 -2.470909 
L 238.160247 -2.470909 
L 237.622881 -2.470909 
L 237.085516 -2.470909 
L 236.548151 -2.470909 
L 236.010786 -2.470909 
L 235.473421 -2.470909 
L 234.936055 -2.470909 
L 234.39869 -2.470909 
L 233.861325 -2.470909 
L 233.32396 -2.470909 
L 232.786595 -2.470909 
L 232.24923 -2.470909 
L 231.711864 -2.470909 
L 231.174499 -2.470909 
L 230.637134 -2.470909 
L 230.099769 -2.470909 
L 229.562404 -2.470909 
L 229.025039 -2.470909 
L 228.487673 -2.470909 
L 227.950308 -2.470909 
L 227.412943 -2.470909 
L 226.875578 -2.470909 
L 226.338213 -2.470909 
L 225.800847 -2.470909 
L 225.263482 -2.470909 
L 224.726117 -2.470909 
L 224.188752 -2.470909 
L 223.651387 -2.470909 
L 223.114022 -2.470909 
L 222.576656 -2.470909 
L 222.039291 -2.470909 
L 221.501926 -2.470909 
L 220.964561 -2.470909 
L 220.427196 -2.470909 
L 219.889831 -2.470909 
L 219.352465 -2.470909 
L 218.8151 -2.470909 
L 218.277735 -2.470909 
L 217.74037 -2.470909 
L 217.203005 -2.470909 
L 216.665639 -2.470909 
L 216.128274 -2.470909 
L 215.590909 -2.470909 
L 215.053544 -2.470909 
L 214.516179 -2.470909 
L 213.978814 -2.470909 
L 213.441448 -2.470909 
L 212.904083 -2.470909 
L 212.366718 -2.470909 
L 211.829353 -2.470909 
L 211.291988 -2.470909 
L 210.754622 -2.470909 
L 210.217257 -2.470909 
L 209.679892 -2.470909 
L 209.142527 -2.470909 
L 208.605162 -2.470909 
L 208.067797 -2.470909 
L 207.530431 -2.470909 
L 206.993066 -2.470909 
L 206.455701 -2.470909 
L 205.918336 -2.470909 
L 205.380971 -2.470909 
L 204.843606 -2.470909 
L 204.30624 -2.470909 
L 203.768875 -2.470909 
L 203.23151 -2.470909 
L 202.694145 -2.470909 
L 202.15678 -2.470909 
L 201.619414 -2.470909 
L 201.082049 -2.470909 
L 200.544684 -2.470909 
L 200.007319 -2.470909 
L 199.469954 -2.470909 
L 198.932589 -2.470909 
L 198.395223 -2.470909 
L 197.857858 -2.470909 
L 197.320493 -2.470909 
L 196.783128 -2.470909 
L 196.245763 -2.470909 
L 195.708398 -2.470909 
L 195.171032 -2.470909 
L 194.633667 -2.470909 
L 194.096302 -2.470909 
L 193.558937 -2.470909 
L 193.021572 -2.470909 
L 192.484206 -2.470909 
L 191.946841 -2.470909 
L 191.409476 -2.470909 
L 190.872111 -2.470909 
L 190.334746 -2.470909 
L 189.797381 -2.470909 
L 189.260015 -2.470909 
L 188.72265 -2.470909 
L 188.185285 -2.470909 
L 187.64792 -2.470909 
L 187.110555 -2.470909 
L 186.57319 -2.470909 
L 186.035824 -2.470909 
L 185.498459 -2.470909 
L 184.961094 -2.470909 
L 184.423729 -2.470909 
L 183.886364 -2.470909 
L 183.348998 -2.470909 
L 182.811633 -2.470909 
L 182.274268 -2.470909 
L 181.736903 -2.470909 
L 181.199538 -2.470909 
L 180.662173 -2.470909 
L 180.124807 -2.470909 
L 179.587442 -2.470909 
L 179.050077 -2.470909 
L 178.512712 -2.470909 
L 177.975347 -2.470909 
L 177.437982 -2.470909 
L 176.900616 -2.470909 
L 176.363251 -2.470909 
L 175.825886 -2.470909 
L 175.288521 -2.470909 
L 174.751156 -2.470909 
L 174.21379 -2.470909 
L 173.676425 -2.470909 
L 173.13906 -2.470909 
L 172.601695 -2.470909 
L 172.06433 -2.470909 
L 171.526965 -2.470909 
L 170.989599 -2.470909 
L 170.452234 -2.470909 
L 169.914869 -2.470909 
L 169.377504 -2.470909 
L 168.840139 -2.470909 
L 168.302773 -2.470909 
L 167.765408 -2.470909 
L 167.228043 -2.470909 
L 166.690678 -2.470909 
L 166.153313 -2.470909 
L 165.615948 -2.470909 
L 165.078582 -2.470909 
L 164.541217 -2.470909 
L 164.003852 -2.470909 
L 163.466487 -2.470909 
L 162.929122 -2.470909 
L 162.391757 -2.470909 
L 161.854391 -2.470909 
L 161.317026 -2.470909 
L 160.779661 -2.470909 
L 160.242296 -2.470909 
L 159.704931 -2.470909 
L 159.167565 -2.470909 
L 158.6302 -2.470909 
L 158.092835 -2.470909 
L 157.55547 -2.470909 
L 157.018105 -2.470909 
L 156.48074 -2.470909 
L 155.943374 -2.470909 
L 155.406009 -2.470909 
L 154.868644 -2.470909 
L 154.331279 -2.470909 
L 153.793914 -2.470909 
L 153.256549 -2.470909 
L 152.719183 -2.470909 
L 152.181818 -2.470909 
L 151.644453 -2.470909 
L 151.107088 -2.470909 
L 150.569723 -2.470909 
L 150.032357 -2.470909 
L 149.494992 -2.470909 
L 148.957627 -2.470909 
L 148.420262 -2.470909 
L 147.882897 -2.470909 
L 147.345532 -2.470909 
L 146.808166 -2.470909 
L 146.270801 -2.470909 
L 145.733436 -2.470909 
L 145.196071 -2.470909 
L 144.658706 -2.470909 
L 144.121341 -2.470909 
L 143.583975 -2.470909 
L 143.04661 -2.470909 
L 142.509245 -2.470909 
L 141.97188 -2.470909 
L 141.434515 -2.470909 
L 140.897149 -2.470909 
L 140.359784 -2.470909 
L 139.822419 -2.470909 
L 139.285054 -2.470909 
L 138.747689 -2.470909 
L 138.210324 -2.470909 
L 137.672958 -2.470909 
L 137.135593 -2.470909 
L 136.598228 -2.470909 
L 136.060863 -2.470909 
L 135.523498 -2.470909 
L 134.986133 -2.470909 
L 134.448767 -2.470909 
L 133.911402 -2.470909 
L 133.374037 -2.470909 
L 132.836672 -2.470909 
L 132.299307 -2.470909 
L 131.761941 -2.470909 
L 131.224576 -2.470909 
L 130.687211 -2.470909 
L 130.149846 -2.470909 
L 129.612481 -2.470909 
L 129.075116 -2.470909 
L 128.53775 -2.470909 
L 128.000385 -2.470909 
L 127.46302 -2.470909 
L 126.925655 -2.470909 
L 126.38829 -2.470909 
L 125.850924 -2.470909 
L 125.313559 -2.470909 
L 124.776194 -2.470909 
L 124.238829 -2.470909 
L 123.701464 -2.470909 
L 123.164099 -2.470909 
L 122.626733 -2.470909 
L 122.089368 -2.470909 
L 121.552003 -2.470909 
L 121.014638 -2.470909 
L 120.477273 -2.470909 
L 119.939908 -2.470909 
L 119.402542 -2.470909 
L 118.865177 -2.470909 
L 118.327812 -2.470909 
L 117.790447 -2.470909 
L 117.253082 -2.470909 
L 116.715716 -2.470909 
L 116.178351 -2.470909 
L 115.640986 -2.470909 
L 115.103621 -2.470909 
L 114.566256 -2.470909 
L 114.028891 -2.470909 
L 113.491525 -2.470909 
L 112.95416 -2.470909 
L 112.416795 -2.470909 
L 111.87943 -2.470909 
L 111.342065 -2.470909 
L 110.8047 -2.470909 
L 110.267334 -2.470909 
L 109.729969 -2.470909 
L 109.192604 -2.470909 
L 108.655239 -2.470909 
L 108.117874 -2.470909 
L 107.580508 -2.470909 
L 107.043143 -2.470909 
L 106.505778 -2.470909 
L 105.968413 -2.470909 
L 105.431048 -2.470909 
L 104.893683 -2.470909 
L 104.356317 -2.470909 
L 103.818952 -2.470909 
L 103.281587 -2.470909 
L 102.744222 -2.470909 
L 102.206857 -2.470909 
L 101.669492 -2.470909 
L 101.132126 -2.470909 
L 100.594761 -2.470909 
L 100.057396 -2.470909 
L 99.520031 -2.470909 
L 98.982666 -2.470909 
L 98.4453 -2.470909 
L 97.907935 -2.470909 
L 97.37057 -2.470909 
L 96.833205 -2.470909 
L 96.29584 -2.470909 
L 95.758475 -2.470909 
L 95.221109 -2.470909 
L 94.683744 -2.470909 
L 94.146379 -2.470909 
L 93.609014 -2.470909 
L 93.071649 -2.470909 
L 92.534284 -2.470909 
L 91.996918 -2.470909 
L 91.459553 -2.470909 
L 90.922188 -2.470909 
L 90.384823 -2.470909 
L 89.847458 -2.470909 
L 89.310092 -2.470909 
L 88.772727 -2.470909 
L 88.235362 -2.470909 
L 87.697997 -2.470909 
L 87.160632 -2.470909 
L 86.623267 -2.470909 
L 86.085901 -2.470909 
L 85.548536 -2.470909 
L 85.011171 -2.470909 
L 84.473806 -2.470909 
L 83.936441 -2.470909 
L 83.399076 -2.470909 
L 82.86171 -2.470909 
L 82.324345 -2.470909 
L 81.78698 -2.470909 
L 81.249615 -2.470909 
L 80.71225 -2.470909 
L 80.174884 -2.470909 
L 79.637519 -2.470909 
L 79.100154 -2.470909 
L 78.562789 -2.470909 
L 78.025424 -2.470909 
L 77.488059 -2.470909 
L 76.950693 -2.470909 
L 76.413328 -2.470909 
L 75.875963 -2.470909 
L 75.338598 -2.470909 
L 74.801233 -2.470909 
L 74.263867 -2.470909 
L 73.726502 -2.470909 
L 73.189137 -2.470909 
L 72.651772 -2.470909 
L 72.114407 -2.470909 
L 71.577042 -2.470909 
L 71.039676 -2.470909 
L 70.502311 -2.470909 
L 69.964946 -2.470909 
L 69.427581 -2.470909 
L 68.890216 -2.470909 
L 68.352851 -2.470909 
L 67.815485 -2.470909 
L 67.27812 -2.470909 
L 66.740755 -2.470909 
L 66.20339 -2.470909 
L 65.666025 -2.470909 
L 65.128659 -2.470909 
L 64.591294 -2.470909 
L 64.053929 -2.470909 
L 63.516564 -2.470909 
L 62.979199 -2.470909 
L 62.441834 -2.470909 
L 61.904468 -2.470909 
L 61.367103 -2.470909 
L 60.829738 -2.470909 
L 60.292373 -2.470909 
L 59.755008 -2.470909 
L 59.217643 -2.470909 
L 58.680277 -2.470909 
L 58.142912 -2.470909 
L 57.605547 -2.470909 
L 57.068182 -2.470909 
L 56.530817 -2.470909 
L 55.993451 -2.470909 
L 55.456086 -2.470909 
L 54.918721 -2.470909 
L 54.381356 -2.470909 
L 53.843991 -2.470909 
L 53.306626 -2.470909 
L 52.76926 -2.470909 
L 52.231895 -2.470909 
L 51.69453 -2.470909 
L 51.157165 -2.470909 
L 50.6198 -2.470909 
L 50.082435 -2.470909 
L 49.545069 -2.470909 
L 49.007704 -2.470909 
L 48.470339 -2.470909 
L 47.932974 -2.470909 
L 47.395609 -2.470909 
L 46.858243 -2.470909 
L 46.320878 -2.470909 
L 45.783513 -2.470909 
L 45.246148 -2.470909 
L 44.708783 -2.470909 
L 44.171418 -2.470909 
L 43.634052 -2.470909 
L 43.096687 -2.470909 
L 42.559322 -2.470909 
L 42.021957 -2.470909 
L 41.484592 -2.470909 
L 40.947227 -2.470909 
L 40.409861 -2.470909 
L 39.872496 -2.470909 
L 39.335131 -2.470909 
L 38.797766 -2.470909 
L 38.260401 -2.470909 
L 37.723035 -2.470909 
L 37.18567 -2.470909 
L 36.648305 -2.470909 
L 36.11094 -2.470909 
L 35.573575 -2.470909 
L 35.03621 -2.470909 
L 34.498844 -2.470909 
L 33.961479 -2.470909 
L 33.424114 -2.470909 
L 32.886749 -2.470909 
L 32.349384 -2.470909 
L 31.812018 -2.470909 
L 31.274653 -2.470909 
L 30.737288 -2.470909 
L 30.199923 -2.470909 
L 29.662558 -2.470909 
L 29.125193 -2.470909 
L 28.587827 -2.470909 
L 28.050462 -2.470909 
L 27.513097 -2.470909 
L 26.975732 -2.470909 
L 26.438367 -2.470909 
L 25.901002 -2.470909 
L 25.363636 -2.470909 
z
" style="stroke: #116dc2; stroke-opacity: 0.2"/>
    </defs>
    <g clip-path="url(#pad3cdaa1e5)">
     <use xlink:href="#m47fe369b71" x="0" y="54.36" style="fill: #116dc2; fill-opacity: 0.2; stroke: #116dc2; stroke-opacity: 0.2"/>
    </g>
   </g>
   <g id="PolyCollection_3">
    <defs>
     <path id="mafb3636a6e" d="M 37.18567 -2.470909 
L 37.18567 -4.648352 
L 37.723035 -5.212778 
L 38.260401 -5.898129 
L 38.797766 -6.659502 
L 39.335131 -7.448452 
L 39.872496 -8.352798 
L 40.409861 -9.521049 
L 40.947227 -11.036054 
L 41.484592 -13.008995 
L 42.021957 -15.47412 
L 42.559322 -18.158954 
L 43.096687 -20.780546 
L 43.634052 -23.406069 
L 44.171418 -26.16441 
L 44.708783 -28.957381 
L 45.246148 -31.749561 
L 45.783513 -34.73609 
L 46.320878 -37.977746 
L 46.858243 -41.24803 
L 47.395609 -44.280042 
L 47.932974 -46.813348 
L 48.470339 -48.657159 
L 49.007704 -49.95759 
L 49.545069 -50.995978 
L 50.082435 -51.712665 
L 50.6198 -51.889091 
L 51.157165 -51.641654 
L 51.69453 -51.238408 
L 52.231895 -50.567706 
L 52.76926 -49.241669 
L 53.306626 -47.090777 
L 53.843991 -44.350178 
L 54.381356 -41.554906 
L 54.918721 -39.09825 
L 55.456086 -36.802633 
L 55.993451 -34.237401 
L 56.530817 -31.253056 
L 57.068182 -28.01386 
L 57.605547 -24.879905 
L 58.142912 -22.219823 
L 58.680277 -20.055131 
L 59.217643 -18.084689 
L 59.755008 -16.070581 
L 60.292373 -13.97307 
L 60.829738 -11.902877 
L 61.367103 -10.04215 
L 61.904468 -8.481719 
L 62.441834 -7.19351 
L 62.979199 -6.157645 
L 63.516564 -5.39767 
L 64.053929 -4.886703 
L 64.591294 -4.51374 
L 64.591294 -2.470909 
L 64.591294 -2.470909 
L 64.053929 -2.470909 
L 63.516564 -2.470909 
L 62.979199 -2.470909 
L 62.441834 -2.470909 
L 61.904468 -2.470909 
L 61.367103 -2.470909 
L 60.829738 -2.470909 
L 60.292373 -2.470909 
L 59.755008 -2.470909 
L 59.217643 -2.470909 
L 58.680277 -2.470909 
L 58.142912 -2.470909 
L 57.605547 -2.470909 
L 57.068182 -2.470909 
L 56.530817 -2.470909 
L 55.993451 -2.470909 
L 55.456086 -2.470909 
L 54.918721 -2.470909 
L 54.381356 -2.470909 
L 53.843991 -2.470909 
L 53.306626 -2.470909 
L 52.76926 -2.470909 
L 52.231895 -2.470909 
L 51.69453 -2.470909 
L 51.157165 -2.470909 
L 50.6198 -2.470909 
L 50.082435 -2.470909 
L 49.545069 -2.470909 
L 49.007704 -2.470909 
L 48.470339 -2.470909 
L 47.932974 -2.470909 
L 47.395609 -2.470909 
L 46.858243 -2.470909 
L 46.320878 -2.470909 
L 45.783513 -2.470909 
L 45.246148 -2.470909 
L 44.708783 -2.470909 
L 44.171418 -2.470909 
L 43.634052 -2.470909 
L 43.096687 -2.470909 
L 42.559322 -2.470909 
L 42.021957 -2.470909 
L 41.484592 -2.470909 
L 40.947227 -2.470909 
L 40.409861 -2.470909 
L 39.872496 -2.470909 
L 39.335131 -2.470909 
L 38.797766 -2.470909 
L 38.260401 -2.470909 
L 37.723035 -2.470909 
L 37.18567 -2.470909 
z
" style="stroke: #8a8a8a; stroke-opacity: 0.2"/>
    </defs>
    <g clip-path="url(#pad3cdaa1e5)">
     <use xlink:href="#mafb3636a6e" x="0" y="54.36" style="fill: #8a8a8a; fill-opacity: 0.2; stroke: #8a8a8a; stroke-opacity: 0.2"/>
    </g>
   </g>
   <g id="line2d_1">
    <path d="M 287.060478 50.615243 
L 295.120955 49.924239 
L 303.181433 49.011543 
L 313.928737 47.558665 
L 320.377119 46.498029 
L 325.213405 45.471481 
L 330.049692 44.223289 
L 335.960709 42.464073 
L 341.334361 40.654153 
L 346.708012 38.619041 
L 353.156394 35.929349 
L 364.441063 31.14437 
L 368.739985 29.653912 
L 373.576271 28.239925 
L 390.771957 23.575946 
L 395.070878 22.796702 
L 402.593991 21.477313 
L 409.579738 20.15247 
L 412.266564 19.888208 
L 414.95339 19.872978 
L 417.640216 20.117216 
L 420.327042 20.58587 
L 424.088598 21.497368 
L 434.835901 24.280383 
L 440.746918 25.758313 
L 444.508475 26.964687 
L 449.344761 28.798697 
L 460.62943 33.120053 
L 486.422958 42.849233 
L 491.79661 44.494945 
L 497.170262 45.899555 
L 502.006549 46.923512 
L 506.842835 47.698018 
L 513.828582 48.543202 
L 532.636364 50.528086 
L 532.636364 50.528086 
" clip-path="url(#pad3cdaa1e5)" style="fill: none; stroke: #cf1313; stroke-width: 1.5; stroke-linecap: square"/>
   </g>
   <g id="line2d_2">
    <path d="M 25.363636 49.598572 
L 28.587827 49.297906 
L 39.335131 48.586271 
L 43.634052 47.89746 
L 50.6198 46.532296 
L 56.530817 45.164306 
L 62.979199 43.426219 
L 71.039676 41.031729 
L 75.338598 39.540181 
L 78.562789 38.195784 
L 82.324345 36.379766 
L 89.847458 32.665056 
L 95.758475 30.123861 
L 107.580508 25.225091 
L 111.342065 24.046994 
L 116.178351 22.796516 
L 122.626733 21.355729 
L 129.075116 20.129005 
L 132.836672 19.599309 
L 135.523498 19.409553 
L 138.210324 19.443 
L 140.897149 19.710846 
L 144.121341 20.269069 
L 151.107088 21.789054 
L 155.406009 22.882374 
L 159.167565 24.071489 
L 172.601695 28.649067 
L 177.437982 30.224025 
L 181.199538 31.711084 
L 188.185285 34.823303 
L 200.544684 40.195581 
L 206.993066 42.886053 
L 211.291988 44.423565 
L 215.053544 45.540202 
L 219.352465 46.573985 
L 224.188752 47.487915 
L 230.099769 48.352598 
L 245.145994 50.214501 
L 247.83282 50.490526 
L 247.83282 50.490526 
" clip-path="url(#pad3cdaa1e5)" style="fill: none; stroke: #116dc2; stroke-width: 1.5; stroke-linecap: square"/>
   </g>
   <g id="line2d_3">
    <path d="M 37.18567 49.711648 
L 37.723035 49.147222 
L 38.260401 48.461871 
L 38.797766 47.700498 
L 39.335131 46.911548 
L 39.872496 46.007202 
L 40.409861 44.838951 
L 40.947227 43.323946 
L 41.484592 41.351005 
L 42.021957 38.88588 
L 42.559322 36.201046 
L 43.096687 33.579454 
L 43.634052 30.953931 
L 44.171418 28.19559 
L 44.708783 25.402619 
L 45.246148 22.610439 
L 45.783513 19.62391 
L 46.320878 16.382254 
L 46.858243 13.11197 
L 47.395609 10.079958 
L 47.932974 7.546652 
L 48.470339 5.702841 
L 49.007704 4.40241 
L 49.545069 3.364022 
L 50.082435 2.647335 
L 50.6198 2.470909 
L 51.157165 2.718346 
L 51.69453 3.121592 
L 52.231895 3.792294 
L 52.76926 5.118331 
L 53.306626 7.269223 
L 53.843991 10.009822 
L 54.381356 12.805094 
L 54.918721 15.26175 
L 55.456086 17.557367 
L 55.993451 20.122599 
L 56.530817 23.106944 
L 57.068182 26.34614 
L 57.605547 29.480095 
L 58.142912 32.140177 
L 58.680277 34.304869 
L 59.217643 36.275311 
L 59.755008 38.289419 
L 60.292373 40.38693 
L 60.829738 42.457123 
L 61.367103 44.31785 
L 61.904468 45.878281 
L 62.441834 47.16649 
L 62.979199 48.202355 
L 63.516564 48.96233 
L 64.053929 49.473297 
L 64.591294 49.84626 
" clip-path="url(#pad3cdaa1e5)" style="fill: none; stroke: #8a8a8a; stroke-width: 1.5; stroke-linecap: square"/>
   </g>
  </g>
 </g>
 <defs>
  <clipPath id="pad3cdaa1e5">
   <rect x="0" y="-0" width="558" height="54.36"/>
  </clipPath>
 </defs>
</svg>
