<?xml version="1.0" encoding="utf-8" standalone="no"?>
<!DOCTYPE svg PUBLIC "-//W3C//DTD SVG 1.1//EN"
  "http://www.w3.org/Graphics/SVG/1.1/DTD/svg11.dtd">
<svg xmlns:xlink="http://www.w3.org/1999/xlink" width="558pt" height="54.36pt" viewBox="0 0 558 54.36" xmlns="http://www.w3.org/2000/svg" version="1.1">
 <metadata>
  <rdf:RDF xmlns:dc="http://purl.org/dc/elements/1.1/" xmlns:cc="http://creativecommons.org/ns#" xmlns:rdf="http://www.w3.org/1999/02/22-rdf-syntax-ns#">
   <cc:Work>
    <dc:type rdf:resource="http://purl.org/dc/dcmitype/StillImage"/>
    <dc:date>2024-09-14T12:46:33.305434</dc:date>
    <dc:format>image/svg+xml</dc:format>
    <dc:creator>
     <cc:Agent>
      <dc:title>Matplotlib v3.5.2, https://matplotlib.org/</dc:title>
     </cc:Agent>
    </dc:creator>
   </cc:Work>
  </rdf:RDF>
 </metadata>
 <defs>
  <style type="text/css">*{stroke-linejoin: round; stroke-linecap: butt}</style>
 </defs>
 <g id="figure_1">
  <g id="patch_1">
   <path d="M 0 54.36 
L 558 54.36 
L 558 0 
L 0 0 
L 0 54.36 
z
" style="fill: none; opacity: 0"/>
  </g>
  <g id="axes_1">
   <g id="PolyCollection_1">
    <defs>
     <path id="m981491f7f8" d="M 310.742334 -2.470909 
L 310.742334 -3.958786 
L 311.34695 -4.002515 
L 311.951566 -4.047054 
L 312.556182 -4.092608 
L 313.160797 -4.139411 
L 313.765413 -4.187715 
L 314.370029 -4.237789 
L 314.974645 -4.289909 
L 315.579261 -4.344351 
L 316.183877 -4.40138 
L 316.788493 -4.461248 
L 317.393109 -4.524184 
L 317.997725 -4.590384 
L 318.60234 -4.660016 
L 319.206956 -4.733206 
L 319.811572 -4.810042 
L 320.416188 -4.890573 
L 321.020804 -4.974808 
L 321.62542 -5.062719 
L 322.230036 -5.154246 
L 322.834652 -5.249299 
L 323.439268 -5.347766 
L 324.043883 -5.449516 
L 324.648499 -5.554408 
L 325.253115 -5.662291 
L 325.857731 -5.773015 
L 326.462347 -5.88643 
L 327.066963 -6.002392 
L 327.671579 -6.120764 
L 328.276195 -6.241417 
L 328.88081 -6.364233 
L 329.485426 -6.489101 
L 330.090042 -6.615918 
L 330.694658 -6.744589 
L 331.299274 -6.875026 
L 331.90389 -7.007146 
L 332.508506 -7.140874 
L 333.113122 -7.276142 
L 333.717738 -7.412893 
L 334.322353 -7.55108 
L 334.926969 -7.690674 
L 335.531585 -7.831666 
L 336.136201 -7.974071 
L 336.740817 -8.117934 
L 337.345433 -8.263329 
L 337.950049 -8.410367 
L 338.554665 -8.559196 
L 339.159281 -8.709998 
L 339.763896 -8.862992 
L 340.368512 -9.018424 
L 340.973128 -9.176569 
L 341.577744 -9.33772 
L 342.18236 -9.50218 
L 342.786976 -9.670255 
L 343.391592 -9.842244 
L 343.996208 -10.018431 
L 344.600823 -10.19908 
L 345.205439 -10.384423 
L 345.810055 -10.574662 
L 346.414671 -10.769964 
L 347.019287 -10.970457 
L 347.623903 -11.17624 
L 348.228519 -11.387377 
L 348.833135 -11.603908 
L 349.437751 -11.825853 
L 350.042366 -12.053217 
L 350.646982 -12.285994 
L 351.251598 -12.524175 
L 351.856214 -12.767745 
L 352.46083 -13.016689 
L 353.065446 -13.270986 
L 353.670062 -13.53061 
L 354.274678 -13.795518 
L 354.879294 -14.065649 
L 355.483909 -14.340912 
L 356.088525 -14.621178 
L 356.693141 -14.906276 
L 357.297757 -15.19598 
L 357.902373 -15.490015 
L 358.506989 -15.788045 
L 359.111605 -16.089686 
L 359.716221 -16.394506 
L 360.320836 -16.702037 
L 360.925452 -17.011787 
L 361.530068 -17.323255 
L 362.134684 -17.635948 
L 362.7393 -17.949398 
L 363.343916 -18.263174 
L 363.948532 -18.576902 
L 364.553148 -18.890267 
L 365.157764 -19.203025 
L 365.762379 -19.515 
L 366.366995 -19.826081 
L 366.971611 -20.136215 
L 367.576227 -20.445387 
L 368.180843 -20.753611 
L 368.785459 -21.060904 
L 369.390075 -21.36727 
L 369.994691 -21.672679 
L 370.599307 -21.977051 
L 371.203922 -22.28024 
L 371.808538 -22.582032 
L 372.413154 -22.882137 
L 373.01777 -23.180196 
L 373.622386 -23.475788 
L 374.227002 -23.768453 
L 374.831618 -24.057704 
L 375.436234 -24.343057 
L 376.040849 -24.624056 
L 376.645465 -24.900298 
L 377.250081 -25.171461 
L 377.854697 -25.437322 
L 378.459313 -25.697775 
L 379.063929 -25.952847 
L 379.668545 -26.202698 
L 380.273161 -26.44762 
L 380.877777 -26.688033 
L 381.482392 -26.924469 
L 382.087008 -27.15755 
L 382.691624 -27.387974 
L 383.29624 -27.61648 
L 383.900856 -27.84383 
L 384.505472 -28.07078 
L 385.110088 -28.298059 
L 385.714704 -28.526347 
L 386.31932 -28.75626 
L 386.923935 -28.988335 
L 387.528551 -29.223027 
L 388.133167 -29.460702 
L 388.737783 -29.701638 
L 389.342399 -29.94603 
L 389.947015 -30.193996 
L 390.551631 -30.445584 
L 391.156247 -30.70078 
L 391.760862 -30.959517 
L 392.365478 -31.221682 
L 392.970094 -31.48712 
L 393.57471 -31.755638 
L 394.179326 -32.027003 
L 394.783942 -32.300946 
L 395.388558 -32.577151 
L 395.993174 -32.855255 
L 396.59779 -33.134836 
L 397.202405 -33.415411 
L 397.807021 -33.696419 
L 398.411637 -33.977224 
L 399.016253 -34.257098 
L 399.620869 -34.535227 
L 400.225485 -34.810703 
L 400.830101 -35.082524 
L 401.434717 -35.349607 
L 402.039333 -35.610788 
L 402.643948 -35.864841 
L 403.248564 -36.11049 
L 403.85318 -36.346438 
L 404.457796 -36.571381 
L 405.062412 -36.784048 
L 405.667028 -36.983222 
L 406.271644 -37.16778 
L 406.87626 -37.336722 
L 407.480876 -37.489209 
L 408.085491 -37.624594 
L 408.690107 -37.742449 
L 409.294723 -37.842596 
L 409.899339 -37.925123 
L 410.503955 -37.990397 
L 411.108571 -38.039072 
L 411.713187 -38.072082 
L 412.317803 -38.09063 
L 412.922418 -38.096165 
L 413.527034 -38.090344 
L 414.13165 -38.074997 
L 414.736266 -38.052073 
L 415.340882 -38.023581 
L 415.945498 -37.991535 
L 416.550114 -37.957886 
L 417.15473 -37.92446 
L 417.759346 -37.892897 
L 418.363961 -37.864597 
L 418.968577 -37.840672 
L 419.573193 -37.821904 
L 420.177809 -37.808727 
L 420.782425 -37.801205 
L 421.387041 -37.799035 
L 421.991657 -37.801561 
L 422.596273 -37.807797 
L 423.200889 -37.816468 
L 423.805504 -37.826052 
L 424.41012 -37.83484 
L 425.014736 -37.840995 
L 425.619352 -37.842618 
L 426.223968 -37.837807 
L 426.828584 -37.824726 
L 427.4332 -37.801657 
L 428.037816 -37.767053 
L 428.642431 -37.719581 
L 429.247047 -37.658156 
L 429.851663 -37.581959 
L 430.456279 -37.490458 
L 431.060895 -37.383401 
L 431.665511 -37.260818 
L 432.270127 -37.122997 
L 432.874743 -36.970471 
L 433.479359 -36.803981 
L 434.083974 -36.624452 
L 434.68859 -36.432954 
L 435.293206 -36.23067 
L 435.897822 -36.018862 
L 436.502438 -35.798838 
L 437.107054 -35.571925 
L 437.71167 -35.339437 
L 438.316286 -35.102657 
L 438.920902 -34.862815 
L 439.525517 -34.621069 
L 440.130133 -34.378493 
L 440.734749 -34.136062 
L 441.339365 -33.894643 
L 441.943981 -33.654984 
L 442.548597 -33.417706 
L 443.153213 -33.183296 
L 443.757829 -32.952101 
L 444.362444 -32.724323 
L 444.96706 -32.500016 
L 445.571676 -32.279085 
L 446.176292 -32.061294 
L 446.780908 -31.846264 
L 447.385524 -31.633491 
L 447.99014 -31.422355 
L 448.594756 -31.21214 
L 449.199372 -31.002056 
L 449.803987 -30.791264 
L 450.408603 -30.5789 
L 451.013219 -30.364107 
L 451.617835 -30.146062 
L 452.222451 -29.924002 
L 452.827067 -29.697248 
L 453.431683 -29.465229 
L 454.036299 -29.227496 
L 454.640915 -28.983736 
L 455.24553 -28.733776 
L 455.850146 -28.477588 
L 456.454762 -28.215282 
L 457.059378 -27.947101 
L 457.663994 -27.673405 
L 458.26861 -27.39466 
L 458.873226 -27.111417 
L 459.477842 -26.824299 
L 460.082457 -26.533978 
L 460.687073 -26.24116 
L 461.291689 -25.94657 
L 461.896305 -25.650936 
L 462.500921 -25.354977 
L 463.105537 -25.059391 
L 463.710153 -24.764852 
L 464.314769 -24.471993 
L 464.919385 -24.181411 
L 465.524 -23.893653 
L 466.128616 -23.609214 
L 466.733232 -23.328532 
L 467.337848 -23.051985 
L 467.942464 -22.779878 
L 468.54708 -22.512449 
L 469.151696 -22.24985 
L 469.756312 -21.992153 
L 470.360928 -21.739339 
L 470.965543 -21.491297 
L 471.570159 -21.247822 
L 472.174775 -21.008614 
L 472.779391 -20.773282 
L 473.384007 -20.541352 
L 473.988623 -20.312271 
L 474.593239 -20.085422 
L 475.197855 -19.860136 
L 475.80247 -19.635709 
L 476.407086 -19.411422 
L 477.011702 -19.186559 
L 477.616318 -18.960427 
L 478.220934 -18.73238 
L 478.82555 -18.501837 
L 479.430166 -18.268299 
L 480.034782 -18.031369 
L 480.639398 -17.790762 
L 481.244013 -17.546318 
L 481.848629 -17.298005 
L 482.453245 -17.045926 
L 483.057861 -16.790311 
L 483.662477 -16.531515 
L 484.267093 -16.270005 
L 484.871709 -16.006346 
L 485.476325 -15.741181 
L 486.080941 -15.475215 
L 486.685556 -15.209187 
L 487.290172 -14.943851 
L 487.894788 -14.679948 
L 488.499404 -14.418185 
L 489.10402 -14.159216 
L 489.708636 -13.903617 
L 490.313252 -13.651875 
L 490.917868 -13.404376 
L 491.522483 -13.161393 
L 492.127099 -12.923089 
L 492.731715 -12.689509 
L 493.336331 -12.460596 
L 493.940947 -12.23619 
L 494.545563 -12.016049 
L 495.150179 -11.799859 
L 495.754795 -11.587253 
L 496.359411 -11.377834 
L 496.964026 -11.171191 
L 497.568642 -10.966919 
L 498.173258 -10.76464 
L 498.777874 -10.564021 
L 499.38249 -10.364786 
L 499.987106 -10.166734 
L 500.591722 -9.969743 
L 501.196338 -9.77378 
L 501.800954 -9.578902 
L 502.405569 -9.385256 
L 503.010185 -9.193072 
L 503.614801 -9.002658 
L 504.219417 -8.814387 
L 504.824033 -8.628685 
L 505.428649 -8.446012 
L 506.033265 -8.266849 
L 506.637881 -8.091677 
L 507.242496 -7.920962 
L 507.847112 -7.755134 
L 508.451728 -7.594576 
L 509.056344 -7.439605 
L 509.66096 -7.290466 
L 510.265576 -7.14732 
L 510.870192 -7.010241 
L 511.474808 -6.879216 
L 512.079424 -6.754143 
L 512.684039 -6.634839 
L 513.288655 -6.521049 
L 513.893271 -6.412455 
L 514.497887 -6.308687 
L 515.102503 -6.209342 
L 515.707119 -6.113994 
L 516.311735 -6.02221 
L 516.916351 -5.933565 
L 517.520967 -5.847654 
L 518.125582 -5.764104 
L 518.730198 -5.68258 
L 519.334814 -5.602797 
L 519.93943 -5.524518 
L 520.544046 -5.447559 
L 521.148662 -5.371788 
L 521.753278 -5.29712 
L 522.357894 -5.223514 
L 522.962509 -5.150961 
L 523.567125 -5.079483 
L 524.171741 -5.009117 
L 524.776357 -4.939914 
L 525.380973 -4.871924 
L 525.985589 -4.80519 
L 526.590205 -4.739745 
L 527.194821 -4.675603 
L 527.799437 -4.612756 
L 528.404052 -4.551177 
L 529.008668 -4.490814 
L 529.613284 -4.431597 
L 530.2179 -4.373438 
L 530.822516 -4.316238 
L 531.427132 -4.25989 
L 532.031748 -4.204289 
L 532.636364 -4.149332 
L 532.636364 -2.470909 
L 532.636364 -2.470909 
L 532.031748 -2.470909 
L 531.427132 -2.470909 
L 530.822516 -2.470909 
L 530.2179 -2.470909 
L 529.613284 -2.470909 
L 529.008668 -2.470909 
L 528.404052 -2.470909 
L 527.799437 -2.470909 
L 527.194821 -2.470909 
L 526.590205 -2.470909 
L 525.985589 -2.470909 
L 525.380973 -2.470909 
L 524.776357 -2.470909 
L 524.171741 -2.470909 
L 523.567125 -2.470909 
L 522.962509 -2.470909 
L 522.357894 -2.470909 
L 521.753278 -2.470909 
L 521.148662 -2.470909 
L 520.544046 -2.470909 
L 519.93943 -2.470909 
L 519.334814 -2.470909 
L 518.730198 -2.470909 
L 518.125582 -2.470909 
L 517.520967 -2.470909 
L 516.916351 -2.470909 
L 516.311735 -2.470909 
L 515.707119 -2.470909 
L 515.102503 -2.470909 
L 514.497887 -2.470909 
L 513.893271 -2.470909 
L 513.288655 -2.470909 
L 512.684039 -2.470909 
L 512.079424 -2.470909 
L 511.474808 -2.470909 
L 510.870192 -2.470909 
L 510.265576 -2.470909 
L 509.66096 -2.470909 
L 509.056344 -2.470909 
L 508.451728 -2.470909 
L 507.847112 -2.470909 
L 507.242496 -2.470909 
L 506.637881 -2.470909 
L 506.033265 -2.470909 
L 505.428649 -2.470909 
L 504.824033 -2.470909 
L 504.219417 -2.470909 
L 503.614801 -2.470909 
L 503.010185 -2.470909 
L 502.405569 -2.470909 
L 501.800954 -2.470909 
L 501.196338 -2.470909 
L 500.591722 -2.470909 
L 499.987106 -2.470909 
L 499.38249 -2.470909 
L 498.777874 -2.470909 
L 498.173258 -2.470909 
L 497.568642 -2.470909 
L 496.964026 -2.470909 
L 496.359411 -2.470909 
L 495.754795 -2.470909 
L 495.150179 -2.470909 
L 494.545563 -2.470909 
L 493.940947 -2.470909 
L 493.336331 -2.470909 
L 492.731715 -2.470909 
L 492.127099 -2.470909 
L 491.522483 -2.470909 
L 490.917868 -2.470909 
L 490.313252 -2.470909 
L 489.708636 -2.470909 
L 489.10402 -2.470909 
L 488.499404 -2.470909 
L 487.894788 -2.470909 
L 487.290172 -2.470909 
L 486.685556 -2.470909 
L 486.080941 -2.470909 
L 485.476325 -2.470909 
L 484.871709 -2.470909 
L 484.267093 -2.470909 
L 483.662477 -2.470909 
L 483.057861 -2.470909 
L 482.453245 -2.470909 
L 481.848629 -2.470909 
L 481.244013 -2.470909 
L 480.639398 -2.470909 
L 480.034782 -2.470909 
L 479.430166 -2.470909 
L 478.82555 -2.470909 
L 478.220934 -2.470909 
L 477.616318 -2.470909 
L 477.011702 -2.470909 
L 476.407086 -2.470909 
L 475.80247 -2.470909 
L 475.197855 -2.470909 
L 474.593239 -2.470909 
L 473.988623 -2.470909 
L 473.384007 -2.470909 
L 472.779391 -2.470909 
L 472.174775 -2.470909 
L 471.570159 -2.470909 
L 470.965543 -2.470909 
L 470.360928 -2.470909 
L 469.756312 -2.470909 
L 469.151696 -2.470909 
L 468.54708 -2.470909 
L 467.942464 -2.470909 
L 467.337848 -2.470909 
L 466.733232 -2.470909 
L 466.128616 -2.470909 
L 465.524 -2.470909 
L 464.919385 -2.470909 
L 464.314769 -2.470909 
L 463.710153 -2.470909 
L 463.105537 -2.470909 
L 462.500921 -2.470909 
L 461.896305 -2.470909 
L 461.291689 -2.470909 
L 460.687073 -2.470909 
L 460.082457 -2.470909 
L 459.477842 -2.470909 
L 458.873226 -2.470909 
L 458.26861 -2.470909 
L 457.663994 -2.470909 
L 457.059378 -2.470909 
L 456.454762 -2.470909 
L 455.850146 -2.470909 
L 455.24553 -2.470909 
L 454.640915 -2.470909 
L 454.036299 -2.470909 
L 453.431683 -2.470909 
L 452.827067 -2.470909 
L 452.222451 -2.470909 
L 451.617835 -2.470909 
L 451.013219 -2.470909 
L 450.408603 -2.470909 
L 449.803987 -2.470909 
L 449.199372 -2.470909 
L 448.594756 -2.470909 
L 447.99014 -2.470909 
L 447.385524 -2.470909 
L 446.780908 -2.470909 
L 446.176292 -2.470909 
L 445.571676 -2.470909 
L 444.96706 -2.470909 
L 444.362444 -2.470909 
L 443.757829 -2.470909 
L 443.153213 -2.470909 
L 442.548597 -2.470909 
L 441.943981 -2.470909 
L 441.339365 -2.470909 
L 440.734749 -2.470909 
L 440.130133 -2.470909 
L 439.525517 -2.470909 
L 438.920902 -2.470909 
L 438.316286 -2.470909 
L 437.71167 -2.470909 
L 437.107054 -2.470909 
L 436.502438 -2.470909 
L 435.897822 -2.470909 
L 435.293206 -2.470909 
L 434.68859 -2.470909 
L 434.083974 -2.470909 
L 433.479359 -2.470909 
L 432.874743 -2.470909 
L 432.270127 -2.470909 
L 431.665511 -2.470909 
L 431.060895 -2.470909 
L 430.456279 -2.470909 
L 429.851663 -2.470909 
L 429.247047 -2.470909 
L 428.642431 -2.470909 
L 428.037816 -2.470909 
L 427.4332 -2.470909 
L 426.828584 -2.470909 
L 426.223968 -2.470909 
L 425.619352 -2.470909 
L 425.014736 -2.470909 
L 424.41012 -2.470909 
L 423.805504 -2.470909 
L 423.200889 -2.470909 
L 422.596273 -2.470909 
L 421.991657 -2.470909 
L 421.387041 -2.470909 
L 420.782425 -2.470909 
L 420.177809 -2.470909 
L 419.573193 -2.470909 
L 418.968577 -2.470909 
L 418.363961 -2.470909 
L 417.759346 -2.470909 
L 417.15473 -2.470909 
L 416.550114 -2.470909 
L 415.945498 -2.470909 
L 415.340882 -2.470909 
L 414.736266 -2.470909 
L 414.13165 -2.470909 
L 413.527034 -2.470909 
L 412.922418 -2.470909 
L 412.317803 -2.470909 
L 411.713187 -2.470909 
L 411.108571 -2.470909 
L 410.503955 -2.470909 
L 409.899339 -2.470909 
L 409.294723 -2.470909 
L 408.690107 -2.470909 
L 408.085491 -2.470909 
L 407.480876 -2.470909 
L 406.87626 -2.470909 
L 406.271644 -2.470909 
L 405.667028 -2.470909 
L 405.062412 -2.470909 
L 404.457796 -2.470909 
L 403.85318 -2.470909 
L 403.248564 -2.470909 
L 402.643948 -2.470909 
L 402.039333 -2.470909 
L 401.434717 -2.470909 
L 400.830101 -2.470909 
L 400.225485 -2.470909 
L 399.620869 -2.470909 
L 399.016253 -2.470909 
L 398.411637 -2.470909 
L 397.807021 -2.470909 
L 397.202405 -2.470909 
L 396.59779 -2.470909 
L 395.993174 -2.470909 
L 395.388558 -2.470909 
L 394.783942 -2.470909 
L 394.179326 -2.470909 
L 393.57471 -2.470909 
L 392.970094 -2.470909 
L 392.365478 -2.470909 
L 391.760862 -2.470909 
L 391.156247 -2.470909 
L 390.551631 -2.470909 
L 389.947015 -2.470909 
L 389.342399 -2.470909 
L 388.737783 -2.470909 
L 388.133167 -2.470909 
L 387.528551 -2.470909 
L 386.923935 -2.470909 
L 386.31932 -2.470909 
L 385.714704 -2.470909 
L 385.110088 -2.470909 
L 384.505472 -2.470909 
L 383.900856 -2.470909 
L 383.29624 -2.470909 
L 382.691624 -2.470909 
L 382.087008 -2.470909 
L 381.482392 -2.470909 
L 380.877777 -2.470909 
L 380.273161 -2.470909 
L 379.668545 -2.470909 
L 379.063929 -2.470909 
L 378.459313 -2.470909 
L 377.854697 -2.470909 
L 377.250081 -2.470909 
L 376.645465 -2.470909 
L 376.040849 -2.470909 
L 375.436234 -2.470909 
L 374.831618 -2.470909 
L 374.227002 -2.470909 
L 373.622386 -2.470909 
L 373.01777 -2.470909 
L 372.413154 -2.470909 
L 371.808538 -2.470909 
L 371.203922 -2.470909 
L 370.599307 -2.470909 
L 369.994691 -2.470909 
L 369.390075 -2.470909 
L 368.785459 -2.470909 
L 368.180843 -2.470909 
L 367.576227 -2.470909 
L 366.971611 -2.470909 
L 366.366995 -2.470909 
L 365.762379 -2.470909 
L 365.157764 -2.470909 
L 364.553148 -2.470909 
L 363.948532 -2.470909 
L 363.343916 -2.470909 
L 362.7393 -2.470909 
L 362.134684 -2.470909 
L 361.530068 -2.470909 
L 360.925452 -2.470909 
L 360.320836 -2.470909 
L 359.716221 -2.470909 
L 359.111605 -2.470909 
L 358.506989 -2.470909 
L 357.902373 -2.470909 
L 357.297757 -2.470909 
L 356.693141 -2.470909 
L 356.088525 -2.470909 
L 355.483909 -2.470909 
L 354.879294 -2.470909 
L 354.274678 -2.470909 
L 353.670062 -2.470909 
L 353.065446 -2.470909 
L 352.46083 -2.470909 
L 351.856214 -2.470909 
L 351.251598 -2.470909 
L 350.646982 -2.470909 
L 350.042366 -2.470909 
L 349.437751 -2.470909 
L 348.833135 -2.470909 
L 348.228519 -2.470909 
L 347.623903 -2.470909 
L 347.019287 -2.470909 
L 346.414671 -2.470909 
L 345.810055 -2.470909 
L 345.205439 -2.470909 
L 344.600823 -2.470909 
L 343.996208 -2.470909 
L 343.391592 -2.470909 
L 342.786976 -2.470909 
L 342.18236 -2.470909 
L 341.577744 -2.470909 
L 340.973128 -2.470909 
L 340.368512 -2.470909 
L 339.763896 -2.470909 
L 339.159281 -2.470909 
L 338.554665 -2.470909 
L 337.950049 -2.470909 
L 337.345433 -2.470909 
L 336.740817 -2.470909 
L 336.136201 -2.470909 
L 335.531585 -2.470909 
L 334.926969 -2.470909 
L 334.322353 -2.470909 
L 333.717738 -2.470909 
L 333.113122 -2.470909 
L 332.508506 -2.470909 
L 331.90389 -2.470909 
L 331.299274 -2.470909 
L 330.694658 -2.470909 
L 330.090042 -2.470909 
L 329.485426 -2.470909 
L 328.88081 -2.470909 
L 328.276195 -2.470909 
L 327.671579 -2.470909 
L 327.066963 -2.470909 
L 326.462347 -2.470909 
L 325.857731 -2.470909 
L 325.253115 -2.470909 
L 324.648499 -2.470909 
L 324.043883 -2.470909 
L 323.439268 -2.470909 
L 322.834652 -2.470909 
L 322.230036 -2.470909 
L 321.62542 -2.470909 
L 321.020804 -2.470909 
L 320.416188 -2.470909 
L 319.811572 -2.470909 
L 319.206956 -2.470909 
L 318.60234 -2.470909 
L 317.997725 -2.470909 
L 317.393109 -2.470909 
L 316.788493 -2.470909 
L 316.183877 -2.470909 
L 315.579261 -2.470909 
L 314.974645 -2.470909 
L 314.370029 -2.470909 
L 313.765413 -2.470909 
L 313.160797 -2.470909 
L 312.556182 -2.470909 
L 311.951566 -2.470909 
L 311.34695 -2.470909 
L 310.742334 -2.470909 
z
" style="stroke: #cf1313; stroke-opacity: 0.2"/>
    </defs>
    <g clip-path="url(#pe7cae12fb4)">
     <use xlink:href="#m981491f7f8" x="0" y="54.36" style="fill: #cf1313; fill-opacity: 0.2; stroke: #cf1313; stroke-opacity: 0.2"/>
    </g>
   </g>
   <g id="PolyCollection_2">
    <defs>
     <path id="mb6c618219e" d="M 36.246722 -2.470909 
L 36.246722 -4.17434 
L 36.851338 -4.264925 
L 37.455954 -4.359698 
L 38.06057 -4.458578 
L 38.665186 -4.561443 
L 39.269802 -4.668147 
L 39.874418 -4.778534 
L 40.479033 -4.892456 
L 41.083649 -5.009797 
L 41.688265 -5.130488 
L 42.292881 -5.25453 
L 42.897497 -5.38201 
L 43.502113 -5.513115 
L 44.106729 -5.648141 
L 44.711345 -5.787484 
L 45.315961 -5.93164 
L 45.920576 -6.081176 
L 46.525192 -6.236706 
L 47.129808 -6.398855 
L 47.734424 -6.568213 
L 48.33904 -6.745299 
L 48.943656 -6.930516 
L 49.548272 -7.124123 
L 50.152888 -7.326212 
L 50.757504 -7.536697 
L 51.362119 -7.755326 
L 51.966735 -7.981701 
L 52.571351 -8.215312 
L 53.175967 -8.455582 
L 53.780583 -8.701917 
L 54.385199 -8.953761 
L 54.989815 -9.210634 
L 55.594431 -9.472175 
L 56.199046 -9.738159 
L 56.803662 -10.008508 
L 57.408278 -10.283277 
L 58.012894 -10.562635 
L 58.61751 -10.846822 
L 59.222126 -11.136112 
L 59.826742 -11.430764 
L 60.431358 -11.730982 
L 61.035974 -12.036887 
L 61.640589 -12.348497 
L 62.245205 -12.665726 
L 62.849821 -12.988406 
L 63.454437 -13.316315 
L 64.059053 -13.649227 
L 64.663669 -13.986958 
L 65.268285 -14.329421 
L 65.872901 -14.676659 
L 66.477517 -15.02888 
L 67.082132 -15.38645 
L 67.686748 -15.74988 
L 68.291364 -16.119773 
L 68.89598 -16.49676 
L 69.500596 -16.881413 
L 70.105212 -17.274157 
L 70.709828 -17.67518 
L 71.314444 -18.084362 
L 71.919059 -18.501224 
L 72.523675 -18.924907 
L 73.128291 -19.354192 
L 73.732907 -19.787546 
L 74.337523 -20.223209 
L 74.942139 -20.659301 
L 75.546755 -21.093943 
L 76.151371 -21.525383 
L 76.755987 -21.952113 
L 77.360602 -22.372964 
L 77.965218 -22.787177 
L 78.569834 -23.194429 
L 79.17445 -23.594838 
L 79.779066 -23.98892 
L 80.383682 -24.377524 
L 80.988298 -24.761749 
L 81.592914 -25.142849 
L 82.19753 -25.522136 
L 82.802145 -25.900904 
L 83.406761 -26.280354 
L 84.011377 -26.661554 
L 84.615993 -27.045409 
L 85.220609 -27.432659 
L 85.825225 -27.823876 
L 86.429841 -28.219477 
L 87.034457 -28.619737 
L 87.639072 -29.024788 
L 88.243688 -29.434618 
L 88.848304 -29.849058 
L 89.45292 -30.267765 
L 90.057536 -30.690201 
L 90.662152 -31.115623 
L 91.266768 -31.543076 
L 91.871384 -31.971404 
L 92.476 -32.399286 
L 93.080615 -32.825275 
L 93.685231 -33.24787 
L 94.289847 -33.665586 
L 94.894463 -34.077031 
L 95.499079 -34.480978 
L 96.103695 -34.876421 
L 96.708311 -35.262612 
L 97.312927 -35.639067 
L 97.917543 -36.005554 
L 98.522158 -36.362041 
L 99.126774 -36.708638 
L 99.73139 -37.045517 
L 100.336006 -37.372835 
L 100.940622 -37.69066 
L 101.545238 -37.998915 
L 102.149854 -38.297346 
L 102.75447 -38.585504 
L 103.359085 -38.862762 
L 103.963701 -39.128336 
L 104.568317 -39.381327 
L 105.172933 -39.620751 
L 105.777549 -39.845578 
L 106.382165 -40.054753 
L 106.986781 -40.247204 
L 107.591397 -40.421845 
L 108.196013 -40.577577 
L 108.800628 -40.713293 
L 109.405244 -40.827892 
L 110.00986 -40.92032 
L 110.614476 -40.989624 
L 111.219092 -41.03503 
L 111.823708 -41.056035 
L 112.428324 -41.052489 
L 113.03294 -41.024677 
L 113.637556 -40.97336 
L 114.242171 -40.899783 
L 114.846787 -40.805634 
L 115.451403 -40.692948 
L 116.056019 -40.563977 
L 116.660635 -40.421015 
L 117.265251 -40.266224 
L 117.869867 -40.101455 
L 118.474483 -39.9281 
L 119.079098 -39.746989 
L 119.683714 -39.558344 
L 120.28833 -39.3618 
L 120.892946 -39.156487 
L 121.497562 -38.941167 
L 122.102178 -38.714409 
L 122.706794 -38.474783 
L 123.31141 -38.22105 
L 123.916026 -37.952326 
L 124.520641 -37.668203 
L 125.125257 -37.368807 
L 125.729873 -37.054804 
L 126.334489 -36.727334 
L 126.939105 -36.387904 
L 127.543721 -36.038238 
L 128.148337 -35.680118 
L 128.752953 -35.315225 
L 129.357569 -34.945004 
L 129.962184 -34.570568 
L 130.5668 -34.192642 
L 131.171416 -33.811558 
L 131.776032 -33.427281 
L 132.380648 -33.039477 
L 132.985264 -32.647588 
L 133.58988 -32.25092 
L 134.194496 -31.848727 
L 134.799111 -31.440279 
L 135.403727 -31.024928 
L 136.008343 -30.602146 
L 136.612959 -30.171572 
L 137.217575 -29.733035 
L 137.822191 -29.286586 
L 138.426807 -28.832517 
L 139.031423 -28.371379 
L 139.636039 -27.903982 
L 140.240654 -27.43139 
L 140.84527 -26.954879 
L 141.449886 -26.475888 
L 142.054502 -25.995942 
L 142.659118 -25.516556 
L 143.263734 -25.039136 
L 143.86835 -24.564889 
L 144.472966 -24.094741 
L 145.077582 -23.629287 
L 145.682197 -23.168777 
L 146.286813 -22.713141 
L 146.891429 -22.262045 
L 147.496045 -21.814985 
L 148.100661 -21.371384 
L 148.705277 -20.930711 
L 149.309893 -20.492569 
L 149.914509 -20.056776 
L 150.519124 -19.623404 
L 151.12374 -19.192784 
L 151.728356 -18.765477 
L 152.332972 -18.34221 
L 152.937588 -17.923802 
L 153.542204 -17.511071 
L 154.14682 -17.104756 
L 154.751436 -16.705446 
L 155.356052 -16.313546 
L 155.960667 -15.929254 
L 156.565283 -15.552581 
L 157.169899 -15.183388 
L 157.774515 -14.821433 
L 158.379131 -14.466433 
L 158.983747 -14.118117 
L 159.588363 -13.776266 
L 160.192979 -13.440737 
L 160.797595 -13.111467 
L 161.40221 -12.78846 
L 162.006826 -12.471758 
L 162.611442 -12.161408 
L 163.216058 -11.85743 
L 163.820674 -11.55979 
L 164.42529 -11.268387 
L 165.029906 -10.983058 
L 165.634522 -10.703586 
L 166.239138 -10.429728 
L 166.843753 -10.161241 
L 167.448369 -9.897911 
L 168.052985 -9.639565 
L 168.657601 -9.386085 
L 169.262217 -9.1374 
L 169.866833 -8.893468 
L 170.471449 -8.654256 
L 171.076065 -8.419706 
L 171.68068 -8.189717 
L 172.285296 -7.964124 
L 172.889912 -7.742693 
L 173.494528 -7.525125 
L 174.099144 -7.311084 
L 174.70376 -7.100223 
L 175.308376 -6.892226 
L 175.912992 -6.68685 
L 176.517608 -6.483965 
L 177.122223 -6.28359 
L 177.726839 -6.085914 
L 178.331455 -5.891309 
L 178.936071 -5.700322 
L 179.540687 -5.513662 
L 180.145303 -5.332163 
L 180.749919 -5.156744 
L 181.354535 -4.988357 
L 181.959151 -4.827934 
L 182.563766 -4.676327 
L 183.168382 -4.534258 
L 183.772998 -4.402273 
L 184.377614 -4.280703 
L 184.98223 -4.169644 
L 185.586846 -4.068945 
L 186.191462 -3.978218 
L 186.796078 -3.896854 
L 187.400693 -3.82406 
L 188.005309 -3.758907 
L 188.609925 -3.700378 
L 188.609925 -2.470909 
L 188.609925 -2.470909 
L 188.005309 -2.470909 
L 187.400693 -2.470909 
L 186.796078 -2.470909 
L 186.191462 -2.470909 
L 185.586846 -2.470909 
L 184.98223 -2.470909 
L 184.377614 -2.470909 
L 183.772998 -2.470909 
L 183.168382 -2.470909 
L 182.563766 -2.470909 
L 181.959151 -2.470909 
L 181.354535 -2.470909 
L 180.749919 -2.470909 
L 180.145303 -2.470909 
L 179.540687 -2.470909 
L 178.936071 -2.470909 
L 178.331455 -2.470909 
L 177.726839 -2.470909 
L 177.122223 -2.470909 
L 176.517608 -2.470909 
L 175.912992 -2.470909 
L 175.308376 -2.470909 
L 174.70376 -2.470909 
L 174.099144 -2.470909 
L 173.494528 -2.470909 
L 172.889912 -2.470909 
L 172.285296 -2.470909 
L 171.68068 -2.470909 
L 171.076065 -2.470909 
L 170.471449 -2.470909 
L 169.866833 -2.470909 
L 169.262217 -2.470909 
L 168.657601 -2.470909 
L 168.052985 -2.470909 
L 167.448369 -2.470909 
L 166.843753 -2.470909 
L 166.239138 -2.470909 
L 165.634522 -2.470909 
L 165.029906 -2.470909 
L 164.42529 -2.470909 
L 163.820674 -2.470909 
L 163.216058 -2.470909 
L 162.611442 -2.470909 
L 162.006826 -2.470909 
L 161.40221 -2.470909 
L 160.797595 -2.470909 
L 160.192979 -2.470909 
L 159.588363 -2.470909 
L 158.983747 -2.470909 
L 158.379131 -2.470909 
L 157.774515 -2.470909 
L 157.169899 -2.470909 
L 156.565283 -2.470909 
L 155.960667 -2.470909 
L 155.356052 -2.470909 
L 154.751436 -2.470909 
L 154.14682 -2.470909 
L 153.542204 -2.470909 
L 152.937588 -2.470909 
L 152.332972 -2.470909 
L 151.728356 -2.470909 
L 151.12374 -2.470909 
L 150.519124 -2.470909 
L 149.914509 -2.470909 
L 149.309893 -2.470909 
L 148.705277 -2.470909 
L 148.100661 -2.470909 
L 147.496045 -2.470909 
L 146.891429 -2.470909 
L 146.286813 -2.470909 
L 145.682197 -2.470909 
L 145.077582 -2.470909 
L 144.472966 -2.470909 
L 143.86835 -2.470909 
L 143.263734 -2.470909 
L 142.659118 -2.470909 
L 142.054502 -2.470909 
L 141.449886 -2.470909 
L 140.84527 -2.470909 
L 140.240654 -2.470909 
L 139.636039 -2.470909 
L 139.031423 -2.470909 
L 138.426807 -2.470909 
L 137.822191 -2.470909 
L 137.217575 -2.470909 
L 136.612959 -2.470909 
L 136.008343 -2.470909 
L 135.403727 -2.470909 
L 134.799111 -2.470909 
L 134.194496 -2.470909 
L 133.58988 -2.470909 
L 132.985264 -2.470909 
L 132.380648 -2.470909 
L 131.776032 -2.470909 
L 131.171416 -2.470909 
L 130.5668 -2.470909 
L 129.962184 -2.470909 
L 129.357569 -2.470909 
L 128.752953 -2.470909 
L 128.148337 -2.470909 
L 127.543721 -2.470909 
L 126.939105 -2.470909 
L 126.334489 -2.470909 
L 125.729873 -2.470909 
L 125.125257 -2.470909 
L 124.520641 -2.470909 
L 123.916026 -2.470909 
L 123.31141 -2.470909 
L 122.706794 -2.470909 
L 122.102178 -2.470909 
L 121.497562 -2.470909 
L 120.892946 -2.470909 
L 120.28833 -2.470909 
L 119.683714 -2.470909 
L 119.079098 -2.470909 
L 118.474483 -2.470909 
L 117.869867 -2.470909 
L 117.265251 -2.470909 
L 116.660635 -2.470909 
L 116.056019 -2.470909 
L 115.451403 -2.470909 
L 114.846787 -2.470909 
L 114.242171 -2.470909 
L 113.637556 -2.470909 
L 113.03294 -2.470909 
L 112.428324 -2.470909 
L 111.823708 -2.470909 
L 111.219092 -2.470909 
L 110.614476 -2.470909 
L 110.00986 -2.470909 
L 109.405244 -2.470909 
L 108.800628 -2.470909 
L 108.196013 -2.470909 
L 107.591397 -2.470909 
L 106.986781 -2.470909 
L 106.382165 -2.470909 
L 105.777549 -2.470909 
L 105.172933 -2.470909 
L 104.568317 -2.470909 
L 103.963701 -2.470909 
L 103.359085 -2.470909 
L 102.75447 -2.470909 
L 102.149854 -2.470909 
L 101.545238 -2.470909 
L 100.940622 -2.470909 
L 100.336006 -2.470909 
L 99.73139 -2.470909 
L 99.126774 -2.470909 
L 98.522158 -2.470909 
L 97.917543 -2.470909 
L 97.312927 -2.470909 
L 96.708311 -2.470909 
L 96.103695 -2.470909 
L 95.499079 -2.470909 
L 94.894463 -2.470909 
L 94.289847 -2.470909 
L 93.685231 -2.470909 
L 93.080615 -2.470909 
L 92.476 -2.470909 
L 91.871384 -2.470909 
L 91.266768 -2.470909 
L 90.662152 -2.470909 
L 90.057536 -2.470909 
L 89.45292 -2.470909 
L 88.848304 -2.470909 
L 88.243688 -2.470909 
L 87.639072 -2.470909 
L 87.034457 -2.470909 
L 86.429841 -2.470909 
L 85.825225 -2.470909 
L 85.220609 -2.470909 
L 84.615993 -2.470909 
L 84.011377 -2.470909 
L 83.406761 -2.470909 
L 82.802145 -2.470909 
L 82.19753 -2.470909 
L 81.592914 -2.470909 
L 80.988298 -2.470909 
L 80.383682 -2.470909 
L 79.779066 -2.470909 
L 79.17445 -2.470909 
L 78.569834 -2.470909 
L 77.965218 -2.470909 
L 77.360602 -2.470909 
L 76.755987 -2.470909 
L 76.151371 -2.470909 
L 75.546755 -2.470909 
L 74.942139 -2.470909 
L 74.337523 -2.470909 
L 73.732907 -2.470909 
L 73.128291 -2.470909 
L 72.523675 -2.470909 
L 71.919059 -2.470909 
L 71.314444 -2.470909 
L 70.709828 -2.470909 
L 70.105212 -2.470909 
L 69.500596 -2.470909 
L 68.89598 -2.470909 
L 68.291364 -2.470909 
L 67.686748 -2.470909 
L 67.082132 -2.470909 
L 66.477517 -2.470909 
L 65.872901 -2.470909 
L 65.268285 -2.470909 
L 64.663669 -2.470909 
L 64.059053 -2.470909 
L 63.454437 -2.470909 
L 62.849821 -2.470909 
L 62.245205 -2.470909 
L 61.640589 -2.470909 
L 61.035974 -2.470909 
L 60.431358 -2.470909 
L 59.826742 -2.470909 
L 59.222126 -2.470909 
L 58.61751 -2.470909 
L 58.012894 -2.470909 
L 57.408278 -2.470909 
L 56.803662 -2.470909 
L 56.199046 -2.470909 
L 55.594431 -2.470909 
L 54.989815 -2.470909 
L 54.385199 -2.470909 
L 53.780583 -2.470909 
L 53.175967 -2.470909 
L 52.571351 -2.470909 
L 51.966735 -2.470909 
L 51.362119 -2.470909 
L 50.757504 -2.470909 
L 50.152888 -2.470909 
L 49.548272 -2.470909 
L 48.943656 -2.470909 
L 48.33904 -2.470909 
L 47.734424 -2.470909 
L 47.129808 -2.470909 
L 46.525192 -2.470909 
L 45.920576 -2.470909 
L 45.315961 -2.470909 
L 44.711345 -2.470909 
L 44.106729 -2.470909 
L 43.502113 -2.470909 
L 42.897497 -2.470909 
L 42.292881 -2.470909 
L 41.688265 -2.470909 
L 41.083649 -2.470909 
L 40.479033 -2.470909 
L 39.874418 -2.470909 
L 39.269802 -2.470909 
L 38.665186 -2.470909 
L 38.06057 -2.470909 
L 37.455954 -2.470909 
L 36.851338 -2.470909 
L 36.246722 -2.470909 
z
" style="stroke: #116dc2; stroke-opacity: 0.2"/>
    </defs>
    <g clip-path="url(#pe7cae12fb4)">
     <use xlink:href="#mb6c618219e" x="0" y="54.36" style="fill: #116dc2; fill-opacity: 0.2; stroke: #116dc2; stroke-opacity: 0.2"/>
    </g>
   </g>
   <g id="PolyCollection_3">
    <defs>
     <path id="m8cf07d8b0f" d="M 25.363636 -2.470909 
L 25.363636 -4.792006 
L 25.968252 -5.338109 
L 26.572868 -6.031375 
L 27.177484 -6.828872 
L 27.7821 -7.659498 
L 28.386716 -8.474185 
L 28.991332 -9.274702 
L 29.595948 -10.10059 
L 30.200563 -11.000664 
L 30.805179 -12.017699 
L 31.409795 -13.181173 
L 32.014411 -14.498048 
L 32.619027 -15.954771 
L 33.223643 -17.537492 
L 33.828259 -19.247041 
L 34.432875 -21.089393 
L 35.037491 -23.056992 
L 35.642106 -25.125289 
L 36.246722 -27.26414 
L 36.851338 -29.444778 
L 37.455954 -31.635318 
L 38.06057 -33.80385 
L 38.665186 -35.940859 
L 39.269802 -38.06863 
L 39.874418 -40.200394 
L 40.479033 -42.277702 
L 41.083649 -44.161229 
L 41.688265 -45.703723 
L 42.292881 -46.845787 
L 42.897497 -47.646485 
L 43.502113 -48.226748 
L 44.106729 -48.691665 
L 44.711345 -49.100174 
L 45.315961 -49.480377 
L 45.920576 -49.858932 
L 46.525192 -50.286887 
L 47.129808 -50.821978 
L 47.734424 -51.430543 
L 48.33904 -51.889091 
L 48.943656 -51.841334 
L 49.548272 -51.01716 
L 50.152888 -49.413189 
L 50.757504 -47.270012 
L 51.362119 -44.906455 
L 51.966735 -42.578908 
L 52.571351 -40.433426 
L 53.175967 -38.501837 
L 53.780583 -36.707278 
L 54.385199 -34.910078 
L 54.989815 -33.001925 
L 55.594431 -30.975211 
L 56.199046 -28.903717 
L 56.803662 -26.873144 
L 57.408278 -24.938484 
L 58.012894 -23.117783 
L 58.61751 -21.390429 
L 59.222126 -19.704141 
L 59.826742 -18.009734 
L 60.431358 -16.301156 
L 61.035974 -14.623048 
L 61.640589 -13.046447 
L 62.245205 -11.638972 
L 62.849821 -10.442569 
L 63.454437 -9.459324 
L 64.059053 -8.651691 
L 64.663669 -7.962291 
L 65.268285 -7.340155 
L 65.872901 -6.752699 
L 66.477517 -6.182584 
L 67.082132 -5.626334 
L 67.686748 -5.098504 
L 68.291364 -4.626734 
L 68.291364 -2.470909 
L 68.291364 -2.470909 
L 67.686748 -2.470909 
L 67.082132 -2.470909 
L 66.477517 -2.470909 
L 65.872901 -2.470909 
L 65.268285 -2.470909 
L 64.663669 -2.470909 
L 64.059053 -2.470909 
L 63.454437 -2.470909 
L 62.849821 -2.470909 
L 62.245205 -2.470909 
L 61.640589 -2.470909 
L 61.035974 -2.470909 
L 60.431358 -2.470909 
L 59.826742 -2.470909 
L 59.222126 -2.470909 
L 58.61751 -2.470909 
L 58.012894 -2.470909 
L 57.408278 -2.470909 
L 56.803662 -2.470909 
L 56.199046 -2.470909 
L 55.594431 -2.470909 
L 54.989815 -2.470909 
L 54.385199 -2.470909 
L 53.780583 -2.470909 
L 53.175967 -2.470909 
L 52.571351 -2.470909 
L 51.966735 -2.470909 
L 51.362119 -2.470909 
L 50.757504 -2.470909 
L 50.152888 -2.470909 
L 49.548272 -2.470909 
L 48.943656 -2.470909 
L 48.33904 -2.470909 
L 47.734424 -2.470909 
L 47.129808 -2.470909 
L 46.525192 -2.470909 
L 45.920576 -2.470909 
L 45.315961 -2.470909 
L 44.711345 -2.470909 
L 44.106729 -2.470909 
L 43.502113 -2.470909 
L 42.897497 -2.470909 
L 42.292881 -2.470909 
L 41.688265 -2.470909 
L 41.083649 -2.470909 
L 40.479033 -2.470909 
L 39.874418 -2.470909 
L 39.269802 -2.470909 
L 38.665186 -2.470909 
L 38.06057 -2.470909 
L 37.455954 -2.470909 
L 36.851338 -2.470909 
L 36.246722 -2.470909 
L 35.642106 -2.470909 
L 35.037491 -2.470909 
L 34.432875 -2.470909 
L 33.828259 -2.470909 
L 33.223643 -2.470909 
L 32.619027 -2.470909 
L 32.014411 -2.470909 
L 31.409795 -2.470909 
L 30.805179 -2.470909 
L 30.200563 -2.470909 
L 29.595948 -2.470909 
L 28.991332 -2.470909 
L 28.386716 -2.470909 
L 27.7821 -2.470909 
L 27.177484 -2.470909 
L 26.572868 -2.470909 
L 25.968252 -2.470909 
L 25.363636 -2.470909 
z
" style="stroke: #8a8a8a; stroke-opacity: 0.2"/>
    </defs>
    <g clip-path="url(#pe7cae12fb4)">
     <use xlink:href="#m8cf07d8b0f" x="0" y="54.36" style="fill: #8a8a8a; fill-opacity: 0.2; stroke: #8a8a8a; stroke-opacity: 0.2"/>
    </g>
   </g>
   <g id="line2d_1">
    <path d="M 310.742334 50.401214 
L 317.997725 49.769616 
L 322.834652 49.110701 
L 328.276195 48.118583 
L 334.926969 46.669326 
L 341.577744 45.02228 
L 345.810055 43.785338 
L 350.042366 42.306783 
L 354.274678 40.564482 
L 358.506989 38.571955 
L 366.366995 34.533919 
L 374.831618 30.302296 
L 379.063929 28.407153 
L 383.900856 26.51617 
L 390.551631 23.914416 
L 395.993174 21.504745 
L 403.248564 18.24951 
L 405.667028 17.376778 
L 408.085491 16.735406 
L 410.503955 16.369603 
L 412.922418 16.263835 
L 416.550114 16.402114 
L 421.387041 16.560965 
L 428.642431 16.640419 
L 431.060895 16.976599 
L 433.479359 17.556019 
L 436.502438 18.561162 
L 442.548597 20.942294 
L 447.99014 22.937645 
L 454.036299 25.132504 
L 457.663994 26.686595 
L 463.710153 29.595148 
L 469.151696 32.11015 
L 473.384007 33.818648 
L 483.662477 37.828485 
L 493.336331 41.899404 
L 498.173258 43.59536 
L 506.033265 46.093151 
L 510.265576 47.21268 
L 513.893271 47.947545 
L 518.730198 48.67742 
L 527.194821 49.684397 
L 532.636364 50.210668 
L 532.636364 50.210668 
" clip-path="url(#pe7cae12fb4)" style="fill: none; stroke: #cf1313; stroke-width: 1.5; stroke-linecap: square"/>
   </g>
   <g id="line2d_2">
    <path d="M 36.246722 50.18566 
L 41.083649 49.350203 
L 45.920576 48.278824 
L 49.548272 47.235877 
L 52.571351 46.144688 
L 56.803662 44.351492 
L 61.035974 42.323113 
L 65.268285 40.030579 
L 69.500596 37.478587 
L 73.128291 35.005808 
L 79.779066 30.37108 
L 90.662152 23.244377 
L 96.708311 19.097388 
L 99.73139 17.314483 
L 102.75447 15.774496 
L 105.172933 14.739249 
L 107.591397 13.938155 
L 109.405244 13.532108 
L 111.219092 13.32497 
L 113.03294 13.335323 
L 114.846787 13.554366 
L 117.265251 14.093776 
L 120.28833 14.9982 
L 123.31141 16.13895 
L 125.729873 17.305196 
L 128.752953 19.044775 
L 133.58988 22.10908 
L 137.217575 24.626965 
L 141.449886 27.884112 
L 147.496045 32.545015 
L 153.542204 36.848929 
L 157.169899 39.176612 
L 160.797595 41.248533 
L 164.42529 43.091613 
L 168.657601 44.973915 
L 172.889912 46.617307 
L 178.331455 48.468691 
L 181.959151 49.532066 
L 184.98223 50.190356 
L 188.005309 50.601093 
L 188.609925 50.659622 
L 188.609925 50.659622 
" clip-path="url(#pe7cae12fb4)" style="fill: none; stroke: #116dc2; stroke-width: 1.5; stroke-linecap: square"/>
   </g>
   <g id="line2d_3">
    <path d="M 25.363636 49.567994 
L 25.968252 49.021891 
L 26.572868 48.328625 
L 27.177484 47.531128 
L 27.7821 46.700502 
L 28.386716 45.885815 
L 28.991332 45.085298 
L 29.595948 44.25941 
L 30.200563 43.359336 
L 30.805179 42.342301 
L 31.409795 41.178827 
L 32.014411 39.861952 
L 32.619027 38.405229 
L 33.223643 36.822508 
L 33.828259 35.112959 
L 34.432875 33.270607 
L 35.037491 31.303008 
L 35.642106 29.234711 
L 36.246722 27.09586 
L 36.851338 24.915222 
L 37.455954 22.724682 
L 38.06057 20.55615 
L 38.665186 18.419141 
L 39.269802 16.29137 
L 39.874418 14.159606 
L 40.479033 12.082298 
L 41.083649 10.198771 
L 41.688265 8.656277 
L 42.292881 7.514213 
L 42.897497 6.713515 
L 43.502113 6.133252 
L 44.106729 5.668335 
L 44.711345 5.259826 
L 45.315961 4.879623 
L 45.920576 4.501068 
L 46.525192 4.073113 
L 47.129808 3.538022 
L 47.734424 2.929457 
L 48.33904 2.470909 
L 48.943656 2.518666 
L 49.548272 3.34284 
L 50.152888 4.946811 
L 50.757504 7.089988 
L 51.362119 9.453545 
L 51.966735 11.781092 
L 52.571351 13.926574 
L 53.175967 15.858163 
L 53.780583 17.652722 
L 54.385199 19.449922 
L 54.989815 21.358075 
L 55.594431 23.384789 
L 56.199046 25.456283 
L 56.803662 27.486856 
L 57.408278 29.421516 
L 58.012894 31.242217 
L 58.61751 32.969571 
L 59.222126 34.655859 
L 59.826742 36.350266 
L 60.431358 38.058844 
L 61.035974 39.736952 
L 61.640589 41.313553 
L 62.245205 42.721028 
L 62.849821 43.917431 
L 63.454437 44.900676 
L 64.059053 45.708309 
L 64.663669 46.397709 
L 65.268285 47.019845 
L 65.872901 47.607301 
L 66.477517 48.177416 
L 67.082132 48.733666 
L 67.686748 49.261496 
L 68.291364 49.733266 
" clip-path="url(#pe7cae12fb4)" style="fill: none; stroke: #8a8a8a; stroke-width: 1.5; stroke-linecap: square"/>
   </g>
  </g>
 </g>
 <defs>
  <clipPath id="pe7cae12fb4">
   <rect x="0" y="-0" width="558" height="54.36"/>
  </clipPath>
 </defs>
</svg>
