<?xml version="1.0" encoding="utf-8" standalone="no"?>
<!DOCTYPE svg PUBLIC "-//W3C//DTD SVG 1.1//EN"
  "http://www.w3.org/Graphics/SVG/1.1/DTD/svg11.dtd">
<svg xmlns:xlink="http://www.w3.org/1999/xlink" width="558pt" height="54.36pt" viewBox="0 0 558 54.36" xmlns="http://www.w3.org/2000/svg" version="1.1">
 <metadata>
  <rdf:RDF xmlns:dc="http://purl.org/dc/elements/1.1/" xmlns:cc="http://creativecommons.org/ns#" xmlns:rdf="http://www.w3.org/1999/02/22-rdf-syntax-ns#">
   <cc:Work>
    <dc:type rdf:resource="http://purl.org/dc/dcmitype/StillImage"/>
    <dc:date>2024-09-15T09:30:33.170686</dc:date>
    <dc:format>image/svg+xml</dc:format>
    <dc:creator>
     <cc:Agent>
      <dc:title>Matplotlib v3.5.2, https://matplotlib.org/</dc:title>
     </cc:Agent>
    </dc:creator>
   </cc:Work>
  </rdf:RDF>
 </metadata>
 <defs>
  <style type="text/css">*{stroke-linejoin: round; stroke-linecap: butt}</style>
 </defs>
 <g id="figure_1">
  <g id="patch_1">
   <path d="M 0 54.36 
L 558 54.36 
L 558 0 
L 0 0 
L 0 54.36 
z
" style="fill: none; opacity: 0"/>
  </g>
  <g id="axes_1">
   <g id="PolyCollection_1">
    <defs>
     <path id="m2022508cff" d="M 312.898893 -2.470909 
L 312.898893 -4.045679 
L 313.504231 -4.107728 
L 314.109568 -4.170852 
L 314.714906 -4.235056 
L 315.320243 -4.30036 
L 315.92558 -4.366802 
L 316.530918 -4.43444 
L 317.136255 -4.50335 
L 317.741593 -4.573633 
L 318.34693 -4.64541 
L 318.952267 -4.718824 
L 319.557605 -4.794039 
L 320.162942 -4.871238 
L 320.768279 -4.950618 
L 321.373617 -5.032391 
L 321.978954 -5.116774 
L 322.584292 -5.203988 
L 323.189629 -5.294247 
L 323.794966 -5.387758 
L 324.400304 -5.484709 
L 325.005641 -5.585261 
L 325.610979 -5.689549 
L 326.216316 -5.797668 
L 326.821653 -5.909672 
L 327.426991 -6.02557 
L 328.032328 -6.145321 
L 328.637665 -6.268834 
L 329.243003 -6.395969 
L 329.84834 -6.526535 
L 330.453678 -6.660298 
L 331.059015 -6.796984 
L 331.664352 -6.936285 
L 332.26969 -7.077868 
L 332.875027 -7.221382 
L 333.480365 -7.366471 
L 334.085702 -7.51278 
L 334.691039 -7.659971 
L 335.296377 -7.80773 
L 335.901714 -7.955782 
L 336.507051 -8.103893 
L 337.112389 -8.251888 
L 337.717726 -8.399652 
L 338.323064 -8.547139 
L 338.928401 -8.694377 
L 339.533738 -8.84147 
L 340.139076 -8.988596 
L 340.744413 -9.136012 
L 341.34975 -9.284043 
L 341.955088 -9.433083 
L 342.560425 -9.583584 
L 343.165763 -9.73605 
L 343.7711 -9.891022 
L 344.376437 -10.049073 
L 344.981775 -10.210788 
L 345.587112 -10.376756 
L 346.19245 -10.54755 
L 346.797787 -10.723717 
L 347.403124 -10.905764 
L 348.008462 -11.094138 
L 348.613799 -11.289222 
L 349.219136 -11.491313 
L 349.824474 -11.700623 
L 350.429811 -11.91726 
L 351.035149 -12.141232 
L 351.640486 -12.372439 
L 352.245823 -12.610672 
L 352.851161 -12.855623 
L 353.456498 -13.106883 
L 354.061836 -13.363959 
L 354.667173 -13.626284 
L 355.27251 -13.893228 
L 355.877848 -14.164121 
L 356.483185 -14.438272 
L 357.088522 -14.714981 
L 357.69386 -14.993569 
L 358.299197 -15.27339 
L 358.904535 -15.553852 
L 359.509872 -15.834431 
L 360.115209 -16.114688 
L 360.720547 -16.394276 
L 361.325884 -16.67295 
L 361.931222 -16.950566 
L 362.536559 -17.227086 
L 363.141896 -17.502567 
L 363.747234 -17.77716 
L 364.352571 -18.051094 
L 364.957908 -18.324661 
L 365.563246 -18.598204 
L 366.168583 -18.87209 
L 366.773921 -19.146698 
L 367.379258 -19.42239 
L 367.984595 -19.699494 
L 368.589933 -19.978281 
L 369.19527 -20.258949 
L 369.800608 -20.5416 
L 370.405945 -20.826235 
L 371.011282 -21.112736 
L 371.61662 -21.400868 
L 372.221957 -21.690275 
L 372.827294 -21.980488 
L 373.432632 -22.27094 
L 374.037969 -22.560977 
L 374.643307 -22.849886 
L 375.248644 -23.136918 
L 375.853981 -23.421322 
L 376.459319 -23.70237 
L 377.064656 -23.979391 
L 377.669993 -24.251803 
L 378.275331 -24.519132 
L 378.880668 -24.78104 
L 379.486006 -25.037333 
L 380.091343 -25.287976 
L 380.69668 -25.533088 
L 381.302018 -25.77294 
L 381.907355 -26.00794 
L 382.512693 -26.238613 
L 383.11803 -26.465583 
L 383.723367 -26.689543 
L 384.328705 -26.911231 
L 384.934042 -27.131406 
L 385.539379 -27.350822 
L 386.144717 -27.570209 
L 386.750054 -27.790258 
L 387.355392 -28.011612 
L 387.960729 -28.234857 
L 388.566066 -28.460523 
L 389.171404 -28.689085 
L 389.776741 -28.920968 
L 390.382079 -29.156553 
L 390.987416 -29.396182 
L 391.592753 -29.640166 
L 392.198091 -29.888782 
L 392.803428 -30.142278 
L 393.408765 -30.400864 
L 394.014103 -30.664706 
L 394.61944 -30.933914 
L 395.224778 -31.208527 
L 395.830115 -31.488494 
L 396.435452 -31.773657 
L 397.04079 -32.063734 
L 397.646127 -32.358296 
L 398.251465 -32.65676 
L 398.856802 -32.958373 
L 399.462139 -33.26221 
L 400.067477 -33.567177 
L 400.672814 -33.872014 
L 401.278151 -34.17532 
L 401.883489 -34.475567 
L 402.488826 -34.771138 
L 403.094164 -35.060359 
L 403.699501 -35.341542 
L 404.304838 -35.613033 
L 404.910176 -35.873253 
L 405.515513 -36.120747 
L 406.120851 -36.354227 
L 406.726188 -36.572611 
L 407.331525 -36.775054 
L 407.936863 -36.960972 
L 408.5422 -37.130055 
L 409.147537 -37.282275 
L 409.752875 -37.417876 
L 410.358212 -37.53736 
L 410.96355 -37.641463 
L 411.568887 -37.73112 
L 412.174224 -37.807426 
L 412.779562 -37.871597 
L 413.384899 -37.924925 
L 413.990236 -37.968728 
L 414.595574 -38.004317 
L 415.200911 -38.032953 
L 415.806249 -38.055815 
L 416.411586 -38.073973 
L 417.016923 -38.088371 
L 417.622261 -38.099813 
L 418.227598 -38.108955 
L 418.832936 -38.116304 
L 419.438273 -38.122226 
L 420.04361 -38.126948 
L 420.648948 -38.130574 
L 421.254285 -38.13309 
L 421.859622 -38.134384 
L 422.46496 -38.134252 
L 423.070297 -38.132412 
L 423.675635 -38.128515 
L 424.280972 -38.122153 
L 424.886309 -38.112865 
L 425.491647 -38.10015 
L 426.096984 -38.083468 
L 426.702322 -38.062249 
L 427.307659 -38.035902 
L 427.912996 -38.00382 
L 428.518334 -37.96539 
L 429.123671 -37.920002 
L 429.729008 -37.867065 
L 430.334346 -37.806013 
L 430.939683 -37.736321 
L 431.545021 -37.65752 
L 432.150358 -37.569205 
L 432.755695 -37.471054 
L 433.361033 -37.362833 
L 433.96637 -37.244409 
L 434.571708 -37.115754 
L 435.177045 -36.97695 
L 435.782382 -36.828188 
L 436.38772 -36.669764 
L 436.993057 -36.502074 
L 437.598394 -36.3256 
L 438.203732 -36.140899 
L 438.809069 -35.948588 
L 439.414407 -35.749322 
L 440.019744 -35.543777 
L 440.625081 -35.332629 
L 441.230419 -35.116539 
L 441.835756 -34.896129 
L 442.441094 -34.671971 
L 443.046431 -34.444575 
L 443.651768 -34.214377 
L 444.257106 -33.981737 
L 444.862443 -33.746935 
L 445.46778 -33.510177 
L 446.073118 -33.271599 
L 446.678455 -33.031274 
L 447.283793 -32.789228 
L 447.88913 -32.545449 
L 448.494467 -32.299904 
L 449.099805 -32.05255 
L 449.705142 -31.803344 
L 450.310479 -31.552263 
L 450.915817 -31.299302 
L 451.521154 -31.044488 
L 452.126492 -30.787881 
L 452.731829 -30.529573 
L 453.337166 -30.26969 
L 453.942504 -30.008385 
L 454.547841 -29.745829 
L 455.153179 -29.482208 
L 455.758516 -29.217709 
L 456.363853 -28.952514 
L 456.969191 -28.686786 
L 457.574528 -28.420662 
L 458.179865 -28.154243 
L 458.785203 -27.887592 
L 459.39054 -27.620722 
L 459.995878 -27.3536 
L 460.601215 -27.086146 
L 461.206552 -26.818232 
L 461.81189 -26.549692 
L 462.417227 -26.280328 
L 463.022565 -26.009918 
L 463.627902 -25.738228 
L 464.233239 -25.465027 
L 464.838577 -25.190094 
L 465.443914 -24.913236 
L 466.049251 -24.634296 
L 466.654589 -24.353166 
L 467.259926 -24.069794 
L 467.865264 -23.784192 
L 468.470601 -23.496438 
L 469.075938 -23.206681 
L 469.681276 -22.915138 
L 470.286613 -22.622089 
L 470.891951 -22.327874 
L 471.497288 -22.032883 
L 472.102625 -21.737549 
L 472.707963 -21.442336 
L 473.3133 -21.147726 
L 473.918637 -20.854213 
L 474.523975 -20.562284 
L 475.129312 -20.272415 
L 475.73465 -19.985055 
L 476.339987 -19.70062 
L 476.945324 -19.419481 
L 477.550662 -19.141959 
L 478.155999 -18.868318 
L 478.761337 -18.598756 
L 479.366674 -18.333406 
L 479.972011 -18.07233 
L 480.577349 -17.815517 
L 481.182686 -17.562885 
L 481.788023 -17.314281 
L 482.393361 -17.06948 
L 482.998698 -16.828196 
L 483.604036 -16.590081 
L 484.209373 -16.354733 
L 484.81471 -16.121709 
L 485.420048 -15.890528 
L 486.025385 -15.660683 
L 486.630722 -15.431657 
L 487.23606 -15.202928 
L 487.841397 -14.973984 
L 488.446735 -14.74434 
L 489.052072 -14.51354 
L 489.657409 -14.28118 
L 490.262747 -14.04691 
L 490.868084 -13.810446 
L 491.473422 -13.571583 
L 492.078759 -13.330195 
L 492.684096 -13.086242 
L 493.289434 -12.839777 
L 493.894771 -12.590942 
L 494.500108 -12.339968 
L 495.105446 -12.087175 
L 495.710783 -11.832964 
L 496.316121 -11.577808 
L 496.921458 -11.322251 
L 497.526795 -11.06689 
L 498.132133 -10.812368 
L 498.73747 -10.559358 
L 499.342808 -10.308557 
L 499.948145 -10.060666 
L 500.553482 -9.816379 
L 501.15882 -9.576374 
L 501.764157 -9.341295 
L 502.369494 -9.111746 
L 502.974832 -8.88828 
L 503.580169 -8.671387 
L 504.185507 -8.461491 
L 504.790844 -8.258944 
L 505.396181 -8.064018 
L 506.001519 -7.876907 
L 506.606856 -7.697726 
L 507.212194 -7.526506 
L 507.817531 -7.363206 
L 508.422868 -7.207706 
L 509.028206 -7.059823 
L 509.633543 -6.919307 
L 510.23888 -6.785858 
L 510.844218 -6.659128 
L 511.449555 -6.538734 
L 512.054893 -6.424265 
L 512.66023 -6.315294 
L 513.265567 -6.211388 
L 513.870905 -6.112114 
L 514.476242 -6.017053 
L 515.08158 -5.9258 
L 515.686917 -5.837976 
L 516.292254 -5.753231 
L 516.897592 -5.671246 
L 517.502929 -5.591734 
L 518.108266 -5.514442 
L 518.713604 -5.43915 
L 519.318941 -5.365664 
L 519.924279 -5.293818 
L 520.529616 -5.22347 
L 521.134953 -5.154496 
L 521.740291 -5.086786 
L 522.345628 -5.020243 
L 522.950966 -4.95478 
L 523.556303 -4.890316 
L 524.16164 -4.826778 
L 524.766978 -4.764096 
L 525.372315 -4.702205 
L 525.977652 -4.641049 
L 526.58299 -4.580574 
L 527.188327 -4.520736 
L 527.793665 -4.461499 
L 528.399002 -4.402835 
L 529.004339 -4.344728 
L 529.609677 -4.28717 
L 530.215014 -4.230165 
L 530.820351 -4.173727 
L 531.425689 -4.117879 
L 532.031026 -4.062652 
L 532.636364 -4.008087 
L 532.636364 -2.470909 
L 532.636364 -2.470909 
L 532.031026 -2.470909 
L 531.425689 -2.470909 
L 530.820351 -2.470909 
L 530.215014 -2.470909 
L 529.609677 -2.470909 
L 529.004339 -2.470909 
L 528.399002 -2.470909 
L 527.793665 -2.470909 
L 527.188327 -2.470909 
L 526.58299 -2.470909 
L 525.977652 -2.470909 
L 525.372315 -2.470909 
L 524.766978 -2.470909 
L 524.16164 -2.470909 
L 523.556303 -2.470909 
L 522.950966 -2.470909 
L 522.345628 -2.470909 
L 521.740291 -2.470909 
L 521.134953 -2.470909 
L 520.529616 -2.470909 
L 519.924279 -2.470909 
L 519.318941 -2.470909 
L 518.713604 -2.470909 
L 518.108266 -2.470909 
L 517.502929 -2.470909 
L 516.897592 -2.470909 
L 516.292254 -2.470909 
L 515.686917 -2.470909 
L 515.08158 -2.470909 
L 514.476242 -2.470909 
L 513.870905 -2.470909 
L 513.265567 -2.470909 
L 512.66023 -2.470909 
L 512.054893 -2.470909 
L 511.449555 -2.470909 
L 510.844218 -2.470909 
L 510.23888 -2.470909 
L 509.633543 -2.470909 
L 509.028206 -2.470909 
L 508.422868 -2.470909 
L 507.817531 -2.470909 
L 507.212194 -2.470909 
L 506.606856 -2.470909 
L 506.001519 -2.470909 
L 505.396181 -2.470909 
L 504.790844 -2.470909 
L 504.185507 -2.470909 
L 503.580169 -2.470909 
L 502.974832 -2.470909 
L 502.369494 -2.470909 
L 501.764157 -2.470909 
L 501.15882 -2.470909 
L 500.553482 -2.470909 
L 499.948145 -2.470909 
L 499.342808 -2.470909 
L 498.73747 -2.470909 
L 498.132133 -2.470909 
L 497.526795 -2.470909 
L 496.921458 -2.470909 
L 496.316121 -2.470909 
L 495.710783 -2.470909 
L 495.105446 -2.470909 
L 494.500108 -2.470909 
L 493.894771 -2.470909 
L 493.289434 -2.470909 
L 492.684096 -2.470909 
L 492.078759 -2.470909 
L 491.473422 -2.470909 
L 490.868084 -2.470909 
L 490.262747 -2.470909 
L 489.657409 -2.470909 
L 489.052072 -2.470909 
L 488.446735 -2.470909 
L 487.841397 -2.470909 
L 487.23606 -2.470909 
L 486.630722 -2.470909 
L 486.025385 -2.470909 
L 485.420048 -2.470909 
L 484.81471 -2.470909 
L 484.209373 -2.470909 
L 483.604036 -2.470909 
L 482.998698 -2.470909 
L 482.393361 -2.470909 
L 481.788023 -2.470909 
L 481.182686 -2.470909 
L 480.577349 -2.470909 
L 479.972011 -2.470909 
L 479.366674 -2.470909 
L 478.761337 -2.470909 
L 478.155999 -2.470909 
L 477.550662 -2.470909 
L 476.945324 -2.470909 
L 476.339987 -2.470909 
L 475.73465 -2.470909 
L 475.129312 -2.470909 
L 474.523975 -2.470909 
L 473.918637 -2.470909 
L 473.3133 -2.470909 
L 472.707963 -2.470909 
L 472.102625 -2.470909 
L 471.497288 -2.470909 
L 470.891951 -2.470909 
L 470.286613 -2.470909 
L 469.681276 -2.470909 
L 469.075938 -2.470909 
L 468.470601 -2.470909 
L 467.865264 -2.470909 
L 467.259926 -2.470909 
L 466.654589 -2.470909 
L 466.049251 -2.470909 
L 465.443914 -2.470909 
L 464.838577 -2.470909 
L 464.233239 -2.470909 
L 463.627902 -2.470909 
L 463.022565 -2.470909 
L 462.417227 -2.470909 
L 461.81189 -2.470909 
L 461.206552 -2.470909 
L 460.601215 -2.470909 
L 459.995878 -2.470909 
L 459.39054 -2.470909 
L 458.785203 -2.470909 
L 458.179865 -2.470909 
L 457.574528 -2.470909 
L 456.969191 -2.470909 
L 456.363853 -2.470909 
L 455.758516 -2.470909 
L 455.153179 -2.470909 
L 454.547841 -2.470909 
L 453.942504 -2.470909 
L 453.337166 -2.470909 
L 452.731829 -2.470909 
L 452.126492 -2.470909 
L 451.521154 -2.470909 
L 450.915817 -2.470909 
L 450.310479 -2.470909 
L 449.705142 -2.470909 
L 449.099805 -2.470909 
L 448.494467 -2.470909 
L 447.88913 -2.470909 
L 447.283793 -2.470909 
L 446.678455 -2.470909 
L 446.073118 -2.470909 
L 445.46778 -2.470909 
L 444.862443 -2.470909 
L 444.257106 -2.470909 
L 443.651768 -2.470909 
L 443.046431 -2.470909 
L 442.441094 -2.470909 
L 441.835756 -2.470909 
L 441.230419 -2.470909 
L 440.625081 -2.470909 
L 440.019744 -2.470909 
L 439.414407 -2.470909 
L 438.809069 -2.470909 
L 438.203732 -2.470909 
L 437.598394 -2.470909 
L 436.993057 -2.470909 
L 436.38772 -2.470909 
L 435.782382 -2.470909 
L 435.177045 -2.470909 
L 434.571708 -2.470909 
L 433.96637 -2.470909 
L 433.361033 -2.470909 
L 432.755695 -2.470909 
L 432.150358 -2.470909 
L 431.545021 -2.470909 
L 430.939683 -2.470909 
L 430.334346 -2.470909 
L 429.729008 -2.470909 
L 429.123671 -2.470909 
L 428.518334 -2.470909 
L 427.912996 -2.470909 
L 427.307659 -2.470909 
L 426.702322 -2.470909 
L 426.096984 -2.470909 
L 425.491647 -2.470909 
L 424.886309 -2.470909 
L 424.280972 -2.470909 
L 423.675635 -2.470909 
L 423.070297 -2.470909 
L 422.46496 -2.470909 
L 421.859622 -2.470909 
L 421.254285 -2.470909 
L 420.648948 -2.470909 
L 420.04361 -2.470909 
L 419.438273 -2.470909 
L 418.832936 -2.470909 
L 418.227598 -2.470909 
L 417.622261 -2.470909 
L 417.016923 -2.470909 
L 416.411586 -2.470909 
L 415.806249 -2.470909 
L 415.200911 -2.470909 
L 414.595574 -2.470909 
L 413.990236 -2.470909 
L 413.384899 -2.470909 
L 412.779562 -2.470909 
L 412.174224 -2.470909 
L 411.568887 -2.470909 
L 410.96355 -2.470909 
L 410.358212 -2.470909 
L 409.752875 -2.470909 
L 409.147537 -2.470909 
L 408.5422 -2.470909 
L 407.936863 -2.470909 
L 407.331525 -2.470909 
L 406.726188 -2.470909 
L 406.120851 -2.470909 
L 405.515513 -2.470909 
L 404.910176 -2.470909 
L 404.304838 -2.470909 
L 403.699501 -2.470909 
L 403.094164 -2.470909 
L 402.488826 -2.470909 
L 401.883489 -2.470909 
L 401.278151 -2.470909 
L 400.672814 -2.470909 
L 400.067477 -2.470909 
L 399.462139 -2.470909 
L 398.856802 -2.470909 
L 398.251465 -2.470909 
L 397.646127 -2.470909 
L 397.04079 -2.470909 
L 396.435452 -2.470909 
L 395.830115 -2.470909 
L 395.224778 -2.470909 
L 394.61944 -2.470909 
L 394.014103 -2.470909 
L 393.408765 -2.470909 
L 392.803428 -2.470909 
L 392.198091 -2.470909 
L 391.592753 -2.470909 
L 390.987416 -2.470909 
L 390.382079 -2.470909 
L 389.776741 -2.470909 
L 389.171404 -2.470909 
L 388.566066 -2.470909 
L 387.960729 -2.470909 
L 387.355392 -2.470909 
L 386.750054 -2.470909 
L 386.144717 -2.470909 
L 385.539379 -2.470909 
L 384.934042 -2.470909 
L 384.328705 -2.470909 
L 383.723367 -2.470909 
L 383.11803 -2.470909 
L 382.512693 -2.470909 
L 381.907355 -2.470909 
L 381.302018 -2.470909 
L 380.69668 -2.470909 
L 380.091343 -2.470909 
L 379.486006 -2.470909 
L 378.880668 -2.470909 
L 378.275331 -2.470909 
L 377.669993 -2.470909 
L 377.064656 -2.470909 
L 376.459319 -2.470909 
L 375.853981 -2.470909 
L 375.248644 -2.470909 
L 374.643307 -2.470909 
L 374.037969 -2.470909 
L 373.432632 -2.470909 
L 372.827294 -2.470909 
L 372.221957 -2.470909 
L 371.61662 -2.470909 
L 371.011282 -2.470909 
L 370.405945 -2.470909 
L 369.800608 -2.470909 
L 369.19527 -2.470909 
L 368.589933 -2.470909 
L 367.984595 -2.470909 
L 367.379258 -2.470909 
L 366.773921 -2.470909 
L 366.168583 -2.470909 
L 365.563246 -2.470909 
L 364.957908 -2.470909 
L 364.352571 -2.470909 
L 363.747234 -2.470909 
L 363.141896 -2.470909 
L 362.536559 -2.470909 
L 361.931222 -2.470909 
L 361.325884 -2.470909 
L 360.720547 -2.470909 
L 360.115209 -2.470909 
L 359.509872 -2.470909 
L 358.904535 -2.470909 
L 358.299197 -2.470909 
L 357.69386 -2.470909 
L 357.088522 -2.470909 
L 356.483185 -2.470909 
L 355.877848 -2.470909 
L 355.27251 -2.470909 
L 354.667173 -2.470909 
L 354.061836 -2.470909 
L 353.456498 -2.470909 
L 352.851161 -2.470909 
L 352.245823 -2.470909 
L 351.640486 -2.470909 
L 351.035149 -2.470909 
L 350.429811 -2.470909 
L 349.824474 -2.470909 
L 349.219136 -2.470909 
L 348.613799 -2.470909 
L 348.008462 -2.470909 
L 347.403124 -2.470909 
L 346.797787 -2.470909 
L 346.19245 -2.470909 
L 345.587112 -2.470909 
L 344.981775 -2.470909 
L 344.376437 -2.470909 
L 343.7711 -2.470909 
L 343.165763 -2.470909 
L 342.560425 -2.470909 
L 341.955088 -2.470909 
L 341.34975 -2.470909 
L 340.744413 -2.470909 
L 340.139076 -2.470909 
L 339.533738 -2.470909 
L 338.928401 -2.470909 
L 338.323064 -2.470909 
L 337.717726 -2.470909 
L 337.112389 -2.470909 
L 336.507051 -2.470909 
L 335.901714 -2.470909 
L 335.296377 -2.470909 
L 334.691039 -2.470909 
L 334.085702 -2.470909 
L 333.480365 -2.470909 
L 332.875027 -2.470909 
L 332.26969 -2.470909 
L 331.664352 -2.470909 
L 331.059015 -2.470909 
L 330.453678 -2.470909 
L 329.84834 -2.470909 
L 329.243003 -2.470909 
L 328.637665 -2.470909 
L 328.032328 -2.470909 
L 327.426991 -2.470909 
L 326.821653 -2.470909 
L 326.216316 -2.470909 
L 325.610979 -2.470909 
L 325.005641 -2.470909 
L 324.400304 -2.470909 
L 323.794966 -2.470909 
L 323.189629 -2.470909 
L 322.584292 -2.470909 
L 321.978954 -2.470909 
L 321.373617 -2.470909 
L 320.768279 -2.470909 
L 320.162942 -2.470909 
L 319.557605 -2.470909 
L 318.952267 -2.470909 
L 318.34693 -2.470909 
L 317.741593 -2.470909 
L 317.136255 -2.470909 
L 316.530918 -2.470909 
L 315.92558 -2.470909 
L 315.320243 -2.470909 
L 314.714906 -2.470909 
L 314.109568 -2.470909 
L 313.504231 -2.470909 
L 312.898893 -2.470909 
z
" style="stroke: #cf1313; stroke-opacity: 0.2"/>
    </defs>
    <g clip-path="url(#p011983fca0)">
     <use xlink:href="#m2022508cff" x="0" y="54.36" style="fill: #cf1313; fill-opacity: 0.2; stroke: #cf1313; stroke-opacity: 0.2"/>
    </g>
   </g>
   <g id="PolyCollection_2">
    <defs>
     <path id="m306ab51295" d="M 33.83836 -2.470909 
L 33.83836 -3.867425 
L 34.443697 -3.940178 
L 35.049034 -4.015788 
L 35.654372 -4.094435 
L 36.259709 -4.176255 
L 36.865047 -4.261322 
L 37.470384 -4.34963 
L 38.075721 -4.441097 
L 38.681059 -4.535575 
L 39.286396 -4.63288 
L 39.891734 -4.732833 
L 40.497071 -4.835307 
L 41.102408 -4.940276 
L 41.707746 -5.047856 
L 42.313083 -5.158341 
L 42.91842 -5.272211 
L 43.523758 -5.390128 
L 44.129095 -5.5129 
L 44.734433 -5.641429 
L 45.33977 -5.776645 
L 45.945107 -5.919426 
L 46.550445 -6.07052 
L 47.155782 -6.230479 
L 47.76112 -6.3996 
L 48.366457 -6.577901 
L 48.971794 -6.765117 
L 49.577132 -6.960721 
L 50.182469 -7.163972 
L 50.787806 -7.373982 
L 51.393144 -7.589792 
L 51.998481 -7.810449 
L 52.603819 -8.035085 
L 53.209156 -8.262976 
L 53.814493 -8.493591 
L 54.419831 -8.726622 
L 55.025168 -8.961991 
L 55.630506 -9.19985 
L 56.235843 -9.440553 
L 56.84118 -9.684636 
L 57.446518 -9.932778 
L 58.051855 -10.185765 
L 58.657192 -10.444455 
L 59.26253 -10.709741 
L 59.867867 -10.982513 
L 60.473205 -11.263625 
L 61.078542 -11.553857 
L 61.683879 -11.85388 
L 62.289217 -12.164213 
L 62.894554 -12.485192 
L 63.499892 -12.816934 
L 64.105229 -13.159321 
L 64.710566 -13.511982 
L 65.315904 -13.874307 
L 65.921241 -14.245465 
L 66.526578 -14.624452 
L 67.131916 -15.01015 
L 67.737253 -15.401397 
L 68.342591 -15.797064 
L 68.947928 -16.196131 
L 69.553265 -16.597746 
L 70.158603 -17.001272 
L 70.76394 -17.406311 
L 71.369278 -17.812697 
L 71.974615 -18.22047 
L 72.579952 -18.629829 
L 73.18529 -19.041073 
L 73.790627 -19.45453 
L 74.395964 -19.870501 
L 75.001302 -20.289204 
L 75.606639 -20.71074 
L 76.211977 -21.135078 
L 76.817314 -21.562056 
L 77.422651 -21.991409 
L 78.027989 -22.422797 
L 78.633326 -22.855848 
L 79.238663 -23.290203 
L 79.844001 -23.725552 
L 80.449338 -24.161669 
L 81.054676 -24.598435 
L 81.660013 -25.035851 
L 82.26535 -25.474038 
L 82.870688 -25.913239 
L 83.476025 -26.3538 
L 84.081363 -26.796157 
L 84.6867 -27.240801 
L 85.292037 -27.688245 
L 85.897375 -28.138974 
L 86.502712 -28.593383 
L 87.108049 -29.051708 
L 87.713387 -29.513944 
L 88.318724 -29.979767 
L 88.924062 -30.448453 
L 89.529399 -30.918823 
L 90.134736 -31.38921 
L 90.740074 -31.857468 
L 91.345411 -32.321022 
L 91.950749 -32.776965 
L 92.556086 -33.222212 
L 93.161423 -33.653678 
L 93.766761 -34.068486 
L 94.372098 -34.464185 
L 94.977435 -34.838938 
L 95.582773 -35.191693 
L 96.18811 -35.522282 
L 96.793448 -35.831459 
L 97.398785 -36.120865 
L 98.004122 -36.392912 
L 98.60946 -36.650607 
L 99.214797 -36.897324 
L 99.820135 -37.136543 
L 100.425472 -37.371589 
L 101.030809 -37.605378 
L 101.636147 -37.840208 
L 102.241484 -38.077601 
L 102.846821 -38.318206 
L 103.452159 -38.56177 
L 104.057496 -38.807174 
L 104.662834 -39.052524 
L 105.268171 -39.295278 
L 105.873508 -39.532411 
L 106.478846 -39.760578 
L 107.084183 -39.97628 
L 107.689521 -40.176021 
L 108.294858 -40.356434 
L 108.900195 -40.514389 
L 109.505533 -40.647074 
L 110.11087 -40.752063 
L 110.716207 -40.827361 
L 111.321545 -40.871448 
L 111.926882 -40.883315 
L 112.53222 -40.862499 
L 113.137557 -40.809123 
L 113.742894 -40.723927 
L 114.348232 -40.608291 
L 114.953569 -40.464256 
L 115.558906 -40.294508 
L 116.164244 -40.102354 
L 116.769581 -39.891659 
L 117.374919 -39.666748 
L 117.980256 -39.432281 
L 118.585593 -39.193093 
L 119.190931 -38.954009 
L 119.796268 -38.719638 
L 120.401606 -38.494158 
L 121.006943 -38.281102 
L 121.61228 -38.083156 
L 122.217618 -37.90199 
L 122.822955 -37.738127 
L 123.428292 -37.590865 
L 124.03363 -37.458274 
L 124.638967 -37.33725 
L 125.244305 -37.223657 
L 125.849642 -37.112532 
L 126.454979 -36.998345 
L 127.060317 -36.875313 
L 127.665654 -36.737714 
L 128.270992 -36.580219 
L 128.876329 -36.398176 
L 129.481666 -36.18785 
L 130.087004 -35.946592 
L 130.692341 -35.672931 
L 131.297678 -35.36658 
L 131.903016 -35.028363 
L 132.508353 -34.660087 
L 133.113691 -34.264358 
L 133.719028 -33.844368 
L 134.324365 -33.403679 
L 134.929703 -32.946004 
L 135.53504 -32.475012 
L 136.140378 -31.994164 
L 136.745715 -31.506577 
L 137.351052 -31.014924 
L 137.95639 -30.521376 
L 138.561727 -30.027576 
L 139.167064 -29.534641 
L 139.772402 -29.043201 
L 140.377739 -28.553467 
L 140.983077 -28.065312 
L 141.588414 -27.578379 
L 142.193751 -27.092186 
L 142.799089 -26.606237 
L 143.404426 -26.120114 
L 144.009764 -25.633558 
L 144.615101 -25.146517 
L 145.220438 -24.659162 
L 145.825776 -24.171885 
L 146.431113 -23.685265 
L 147.03645 -23.200025 
L 147.641788 -22.716982 
L 148.247125 -22.237002 
L 148.852463 -21.760967 
L 149.4578 -21.289761 
L 150.063137 -20.824266 
L 150.668475 -20.365369 
L 151.273812 -19.913974 
L 151.879149 -19.471006 
L 152.484487 -19.037394 
L 153.089824 -18.614034 
L 153.695162 -18.201729 
L 154.300499 -17.801105 
L 154.905836 -17.412518 
L 155.511174 -17.035959 
L 156.116511 -16.67098 
L 156.721849 -16.31665 
L 157.327186 -15.971556 
L 157.932523 -15.63386 
L 158.537861 -15.301404 
L 159.143198 -14.971865 
L 159.748535 -14.64294 
L 160.353873 -14.312548 
L 160.95921 -13.979021 
L 161.564548 -13.641268 
L 162.169885 -13.298888 
L 162.775222 -12.952235 
L 163.38056 -12.602396 
L 163.985897 -12.251129 
L 164.591235 -11.90072 
L 165.196572 -11.553818 
L 165.801909 -11.213228 
L 166.407247 -10.881711 
L 167.012584 -10.561785 
L 167.617921 -10.25556 
L 168.223259 -9.964607 
L 168.828596 -9.689877 
L 169.433934 -9.431669 
L 170.039271 -9.18964 
L 170.644608 -8.962864 
L 171.249946 -8.749925 
L 171.855283 -8.549032 
L 172.460621 -8.358152 
L 173.065958 -8.175149 
L 173.671295 -7.997922 
L 174.276633 -7.824523 
L 174.88197 -7.653261 
L 175.487307 -7.482779 
L 176.092645 -7.312104 
L 176.697982 -7.140663 
L 177.30332 -6.968276 
L 177.908657 -6.795122 
L 178.513994 -6.621677 
L 179.119332 -6.448654 
L 179.724669 -6.276918 
L 180.330007 -6.10741 
L 180.935344 -5.941079 
L 181.540681 -5.778815 
L 182.146019 -5.621405 
L 182.751356 -5.469497 
L 183.356693 -5.323584 
L 183.962031 -5.183996 
L 184.567368 -5.050905 
L 185.172706 -4.924339 
L 185.778043 -4.804195 
L 186.38338 -4.690262 
L 186.988718 -4.582238 
L 187.594055 -4.47975 
L 188.199392 -4.382376 
L 188.80473 -4.289662 
L 189.410067 -4.20114 
L 189.410067 -2.470909 
L 189.410067 -2.470909 
L 188.80473 -2.470909 
L 188.199392 -2.470909 
L 187.594055 -2.470909 
L 186.988718 -2.470909 
L 186.38338 -2.470909 
L 185.778043 -2.470909 
L 185.172706 -2.470909 
L 184.567368 -2.470909 
L 183.962031 -2.470909 
L 183.356693 -2.470909 
L 182.751356 -2.470909 
L 182.146019 -2.470909 
L 181.540681 -2.470909 
L 180.935344 -2.470909 
L 180.330007 -2.470909 
L 179.724669 -2.470909 
L 179.119332 -2.470909 
L 178.513994 -2.470909 
L 177.908657 -2.470909 
L 177.30332 -2.470909 
L 176.697982 -2.470909 
L 176.092645 -2.470909 
L 175.487307 -2.470909 
L 174.88197 -2.470909 
L 174.276633 -2.470909 
L 173.671295 -2.470909 
L 173.065958 -2.470909 
L 172.460621 -2.470909 
L 171.855283 -2.470909 
L 171.249946 -2.470909 
L 170.644608 -2.470909 
L 170.039271 -2.470909 
L 169.433934 -2.470909 
L 168.828596 -2.470909 
L 168.223259 -2.470909 
L 167.617921 -2.470909 
L 167.012584 -2.470909 
L 166.407247 -2.470909 
L 165.801909 -2.470909 
L 165.196572 -2.470909 
L 164.591235 -2.470909 
L 163.985897 -2.470909 
L 163.38056 -2.470909 
L 162.775222 -2.470909 
L 162.169885 -2.470909 
L 161.564548 -2.470909 
L 160.95921 -2.470909 
L 160.353873 -2.470909 
L 159.748535 -2.470909 
L 159.143198 -2.470909 
L 158.537861 -2.470909 
L 157.932523 -2.470909 
L 157.327186 -2.470909 
L 156.721849 -2.470909 
L 156.116511 -2.470909 
L 155.511174 -2.470909 
L 154.905836 -2.470909 
L 154.300499 -2.470909 
L 153.695162 -2.470909 
L 153.089824 -2.470909 
L 152.484487 -2.470909 
L 151.879149 -2.470909 
L 151.273812 -2.470909 
L 150.668475 -2.470909 
L 150.063137 -2.470909 
L 149.4578 -2.470909 
L 148.852463 -2.470909 
L 148.247125 -2.470909 
L 147.641788 -2.470909 
L 147.03645 -2.470909 
L 146.431113 -2.470909 
L 145.825776 -2.470909 
L 145.220438 -2.470909 
L 144.615101 -2.470909 
L 144.009764 -2.470909 
L 143.404426 -2.470909 
L 142.799089 -2.470909 
L 142.193751 -2.470909 
L 141.588414 -2.470909 
L 140.983077 -2.470909 
L 140.377739 -2.470909 
L 139.772402 -2.470909 
L 139.167064 -2.470909 
L 138.561727 -2.470909 
L 137.95639 -2.470909 
L 137.351052 -2.470909 
L 136.745715 -2.470909 
L 136.140378 -2.470909 
L 135.53504 -2.470909 
L 134.929703 -2.470909 
L 134.324365 -2.470909 
L 133.719028 -2.470909 
L 133.113691 -2.470909 
L 132.508353 -2.470909 
L 131.903016 -2.470909 
L 131.297678 -2.470909 
L 130.692341 -2.470909 
L 130.087004 -2.470909 
L 129.481666 -2.470909 
L 128.876329 -2.470909 
L 128.270992 -2.470909 
L 127.665654 -2.470909 
L 127.060317 -2.470909 
L 126.454979 -2.470909 
L 125.849642 -2.470909 
L 125.244305 -2.470909 
L 124.638967 -2.470909 
L 124.03363 -2.470909 
L 123.428292 -2.470909 
L 122.822955 -2.470909 
L 122.217618 -2.470909 
L 121.61228 -2.470909 
L 121.006943 -2.470909 
L 120.401606 -2.470909 
L 119.796268 -2.470909 
L 119.190931 -2.470909 
L 118.585593 -2.470909 
L 117.980256 -2.470909 
L 117.374919 -2.470909 
L 116.769581 -2.470909 
L 116.164244 -2.470909 
L 115.558906 -2.470909 
L 114.953569 -2.470909 
L 114.348232 -2.470909 
L 113.742894 -2.470909 
L 113.137557 -2.470909 
L 112.53222 -2.470909 
L 111.926882 -2.470909 
L 111.321545 -2.470909 
L 110.716207 -2.470909 
L 110.11087 -2.470909 
L 109.505533 -2.470909 
L 108.900195 -2.470909 
L 108.294858 -2.470909 
L 107.689521 -2.470909 
L 107.084183 -2.470909 
L 106.478846 -2.470909 
L 105.873508 -2.470909 
L 105.268171 -2.470909 
L 104.662834 -2.470909 
L 104.057496 -2.470909 
L 103.452159 -2.470909 
L 102.846821 -2.470909 
L 102.241484 -2.470909 
L 101.636147 -2.470909 
L 101.030809 -2.470909 
L 100.425472 -2.470909 
L 99.820135 -2.470909 
L 99.214797 -2.470909 
L 98.60946 -2.470909 
L 98.004122 -2.470909 
L 97.398785 -2.470909 
L 96.793448 -2.470909 
L 96.18811 -2.470909 
L 95.582773 -2.470909 
L 94.977435 -2.470909 
L 94.372098 -2.470909 
L 93.766761 -2.470909 
L 93.161423 -2.470909 
L 92.556086 -2.470909 
L 91.950749 -2.470909 
L 91.345411 -2.470909 
L 90.740074 -2.470909 
L 90.134736 -2.470909 
L 89.529399 -2.470909 
L 88.924062 -2.470909 
L 88.318724 -2.470909 
L 87.713387 -2.470909 
L 87.108049 -2.470909 
L 86.502712 -2.470909 
L 85.897375 -2.470909 
L 85.292037 -2.470909 
L 84.6867 -2.470909 
L 84.081363 -2.470909 
L 83.476025 -2.470909 
L 82.870688 -2.470909 
L 82.26535 -2.470909 
L 81.660013 -2.470909 
L 81.054676 -2.470909 
L 80.449338 -2.470909 
L 79.844001 -2.470909 
L 79.238663 -2.470909 
L 78.633326 -2.470909 
L 78.027989 -2.470909 
L 77.422651 -2.470909 
L 76.817314 -2.470909 
L 76.211977 -2.470909 
L 75.606639 -2.470909 
L 75.001302 -2.470909 
L 74.395964 -2.470909 
L 73.790627 -2.470909 
L 73.18529 -2.470909 
L 72.579952 -2.470909 
L 71.974615 -2.470909 
L 71.369278 -2.470909 
L 70.76394 -2.470909 
L 70.158603 -2.470909 
L 69.553265 -2.470909 
L 68.947928 -2.470909 
L 68.342591 -2.470909 
L 67.737253 -2.470909 
L 67.131916 -2.470909 
L 66.526578 -2.470909 
L 65.921241 -2.470909 
L 65.315904 -2.470909 
L 64.710566 -2.470909 
L 64.105229 -2.470909 
L 63.499892 -2.470909 
L 62.894554 -2.470909 
L 62.289217 -2.470909 
L 61.683879 -2.470909 
L 61.078542 -2.470909 
L 60.473205 -2.470909 
L 59.867867 -2.470909 
L 59.26253 -2.470909 
L 58.657192 -2.470909 
L 58.051855 -2.470909 
L 57.446518 -2.470909 
L 56.84118 -2.470909 
L 56.235843 -2.470909 
L 55.630506 -2.470909 
L 55.025168 -2.470909 
L 54.419831 -2.470909 
L 53.814493 -2.470909 
L 53.209156 -2.470909 
L 52.603819 -2.470909 
L 51.998481 -2.470909 
L 51.393144 -2.470909 
L 50.787806 -2.470909 
L 50.182469 -2.470909 
L 49.577132 -2.470909 
L 48.971794 -2.470909 
L 48.366457 -2.470909 
L 47.76112 -2.470909 
L 47.155782 -2.470909 
L 46.550445 -2.470909 
L 45.945107 -2.470909 
L 45.33977 -2.470909 
L 44.734433 -2.470909 
L 44.129095 -2.470909 
L 43.523758 -2.470909 
L 42.91842 -2.470909 
L 42.313083 -2.470909 
L 41.707746 -2.470909 
L 41.102408 -2.470909 
L 40.497071 -2.470909 
L 39.891734 -2.470909 
L 39.286396 -2.470909 
L 38.681059 -2.470909 
L 38.075721 -2.470909 
L 37.470384 -2.470909 
L 36.865047 -2.470909 
L 36.259709 -2.470909 
L 35.654372 -2.470909 
L 35.049034 -2.470909 
L 34.443697 -2.470909 
L 33.83836 -2.470909 
z
" style="stroke: #116dc2; stroke-opacity: 0.2"/>
    </defs>
    <g clip-path="url(#p011983fca0)">
     <use xlink:href="#m306ab51295" x="0" y="54.36" style="fill: #116dc2; fill-opacity: 0.2; stroke: #116dc2; stroke-opacity: 0.2"/>
    </g>
   </g>
   <g id="PolyCollection_3">
    <defs>
     <path id="md63e72d8c6" d="M 25.363636 -2.470909 
L 25.363636 -4.279952 
L 25.968974 -4.625065 
L 26.574311 -5.047252 
L 27.179649 -5.527718 
L 27.784986 -6.056928 
L 28.390323 -6.650524 
L 28.995661 -7.333116 
L 29.600998 -8.108376 
L 30.206335 -8.957966 
L 30.811673 -9.878635 
L 31.41701 -10.912594 
L 32.022348 -12.123433 
L 32.627685 -13.530794 
L 33.233022 -15.074117 
L 33.83836 -16.656442 
L 34.443697 -18.231326 
L 35.049034 -19.837973 
L 35.654372 -21.544061 
L 36.259709 -23.366066 
L 36.865047 -25.260849 
L 37.470384 -27.19032 
L 38.075721 -29.180183 
L 38.681059 -31.309883 
L 39.286396 -33.634817 
L 39.891734 -36.097101 
L 40.497071 -38.506868 
L 41.102408 -40.631778 
L 41.707746 -42.333644 
L 42.313083 -43.644855 
L 42.91842 -44.729986 
L 43.523758 -45.767609 
L 44.129095 -46.845837 
L 44.734433 -47.947453 
L 45.33977 -49.009038 
L 45.945107 -49.972853 
L 46.550445 -50.790266 
L 47.155782 -51.410006 
L 47.76112 -51.786251 
L 48.366457 -51.889091 
L 48.971794 -51.690026 
L 49.577132 -51.146365 
L 50.182469 -50.226946 
L 50.787806 -48.959733 
L 51.393144 -47.440794 
L 51.998481 -45.795256 
L 52.603819 -44.129486 
L 53.209156 -42.493517 
L 53.814493 -40.861561 
L 54.419831 -39.159382 
L 55.025168 -37.334174 
L 55.630506 -35.396676 
L 56.235843 -33.390809 
L 56.84118 -31.341629 
L 57.446518 -29.248 
L 58.051855 -27.11034 
L 58.657192 -24.948241 
L 59.26253 -22.801564 
L 59.867867 -20.729235 
L 60.473205 -18.795194 
L 61.078542 -17.033842 
L 61.683879 -15.430735 
L 62.289217 -13.952789 
L 62.894554 -12.593797 
L 63.499892 -11.372437 
L 64.105229 -10.289251 
L 64.710566 -9.311299 
L 65.315904 -8.408112 
L 65.921241 -7.584472 
L 66.526578 -6.866305 
L 67.131916 -6.26592 
L 67.737253 -5.76866 
L 68.342591 -5.342138 
L 68.947928 -4.950953 
L 69.553265 -4.572448 
L 69.553265 -2.470909 
L 69.553265 -2.470909 
L 68.947928 -2.470909 
L 68.342591 -2.470909 
L 67.737253 -2.470909 
L 67.131916 -2.470909 
L 66.526578 -2.470909 
L 65.921241 -2.470909 
L 65.315904 -2.470909 
L 64.710566 -2.470909 
L 64.105229 -2.470909 
L 63.499892 -2.470909 
L 62.894554 -2.470909 
L 62.289217 -2.470909 
L 61.683879 -2.470909 
L 61.078542 -2.470909 
L 60.473205 -2.470909 
L 59.867867 -2.470909 
L 59.26253 -2.470909 
L 58.657192 -2.470909 
L 58.051855 -2.470909 
L 57.446518 -2.470909 
L 56.84118 -2.470909 
L 56.235843 -2.470909 
L 55.630506 -2.470909 
L 55.025168 -2.470909 
L 54.419831 -2.470909 
L 53.814493 -2.470909 
L 53.209156 -2.470909 
L 52.603819 -2.470909 
L 51.998481 -2.470909 
L 51.393144 -2.470909 
L 50.787806 -2.470909 
L 50.182469 -2.470909 
L 49.577132 -2.470909 
L 48.971794 -2.470909 
L 48.366457 -2.470909 
L 47.76112 -2.470909 
L 47.155782 -2.470909 
L 46.550445 -2.470909 
L 45.945107 -2.470909 
L 45.33977 -2.470909 
L 44.734433 -2.470909 
L 44.129095 -2.470909 
L 43.523758 -2.470909 
L 42.91842 -2.470909 
L 42.313083 -2.470909 
L 41.707746 -2.470909 
L 41.102408 -2.470909 
L 40.497071 -2.470909 
L 39.891734 -2.470909 
L 39.286396 -2.470909 
L 38.681059 -2.470909 
L 38.075721 -2.470909 
L 37.470384 -2.470909 
L 36.865047 -2.470909 
L 36.259709 -2.470909 
L 35.654372 -2.470909 
L 35.049034 -2.470909 
L 34.443697 -2.470909 
L 33.83836 -2.470909 
L 33.233022 -2.470909 
L 32.627685 -2.470909 
L 32.022348 -2.470909 
L 31.41701 -2.470909 
L 30.811673 -2.470909 
L 30.206335 -2.470909 
L 29.600998 -2.470909 
L 28.995661 -2.470909 
L 28.390323 -2.470909 
L 27.784986 -2.470909 
L 27.179649 -2.470909 
L 26.574311 -2.470909 
L 25.968974 -2.470909 
L 25.363636 -2.470909 
z
" style="stroke: #8a8a8a; stroke-opacity: 0.2"/>
    </defs>
    <g clip-path="url(#p011983fca0)">
     <use xlink:href="#md63e72d8c6" x="0" y="54.36" style="fill: #8a8a8a; fill-opacity: 0.2; stroke: #8a8a8a; stroke-opacity: 0.2"/>
    </g>
   </g>
   <g id="line2d_1">
    <path d="M 312.898893 50.314321 
L 320.768279 49.409382 
L 326.216316 48.562332 
L 331.059015 47.563016 
L 340.744413 45.223988 
L 346.797787 43.636283 
L 350.429811 42.44274 
L 354.061836 40.996041 
L 359.509872 38.525569 
L 380.69668 28.826912 
L 385.539379 27.009178 
L 391.592753 24.719834 
L 395.830115 22.871506 
L 401.278151 20.18468 
L 404.910176 18.486747 
L 407.331525 17.584946 
L 409.752875 16.942124 
L 412.174224 16.552574 
L 415.200911 16.327047 
L 420.648948 16.229426 
L 426.702322 16.297751 
L 430.334346 16.553987 
L 433.361033 16.997167 
L 436.38772 17.690236 
L 439.414407 18.610678 
L 443.651768 20.145623 
L 450.310479 22.807737 
L 458.179865 26.205757 
L 467.865264 30.575808 
L 481.182686 36.797115 
L 486.630722 38.928343 
L 494.500108 42.020032 
L 502.974832 45.47172 
L 506.606856 46.662274 
L 510.23888 47.574142 
L 513.870905 48.247886 
L 519.318941 48.994336 
L 527.793665 49.898501 
L 532.636364 50.351913 
L 532.636364 50.351913 
" clip-path="url(#p011983fca0)" style="fill: none; stroke: #cf1313; stroke-width: 1.5; stroke-linecap: square"/>
   </g>
   <g id="line2d_2">
    <path d="M 33.83836 50.492575 
L 39.286396 49.72712 
L 44.734433 48.718571 
L 47.76112 47.9604 
L 50.787806 46.986018 
L 55.630506 45.16015 
L 59.867867 43.377487 
L 62.894554 41.874808 
L 65.921241 40.114535 
L 70.76394 36.953689 
L 77.422651 32.368591 
L 86.502712 25.766617 
L 94.372098 19.895815 
L 96.18811 18.837718 
L 98.60946 17.709393 
L 106.478846 14.599422 
L 108.900195 13.845611 
L 110.716207 13.532639 
L 112.53222 13.497501 
L 114.348232 13.751709 
L 116.164244 14.257646 
L 119.190931 15.405991 
L 121.61228 16.276844 
L 124.03363 16.901726 
L 128.876329 17.961824 
L 130.692341 18.687069 
L 132.508353 19.699913 
L 134.929703 21.413996 
L 139.772402 25.316799 
L 150.668475 33.994631 
L 153.695162 36.158271 
L 156.721849 38.04335 
L 167.012584 43.798215 
L 169.433934 44.928331 
L 171.855283 45.810968 
L 176.092645 47.047896 
L 183.962031 49.176004 
L 187.594055 49.88025 
L 189.410067 50.15886 
L 189.410067 50.15886 
" clip-path="url(#p011983fca0)" style="fill: none; stroke: #116dc2; stroke-width: 1.5; stroke-linecap: square"/>
   </g>
   <g id="line2d_3">
    <path d="M 25.363636 50.080048 
L 25.968974 49.734935 
L 26.574311 49.312748 
L 27.179649 48.832282 
L 27.784986 48.303072 
L 28.390323 47.709476 
L 28.995661 47.026884 
L 29.600998 46.251624 
L 30.206335 45.402034 
L 30.811673 44.481365 
L 31.41701 43.447406 
L 32.022348 42.236567 
L 32.627685 40.829206 
L 33.233022 39.285883 
L 33.83836 37.703558 
L 34.443697 36.128674 
L 35.049034 34.522027 
L 35.654372 32.815939 
L 36.259709 30.993934 
L 36.865047 29.099151 
L 37.470384 27.16968 
L 38.075721 25.179817 
L 38.681059 23.050117 
L 39.286396 20.725183 
L 39.891734 18.262899 
L 40.497071 15.853132 
L 41.102408 13.728222 
L 41.707746 12.026356 
L 42.313083 10.715145 
L 42.91842 9.630014 
L 43.523758 8.592391 
L 44.129095 7.514163 
L 44.734433 6.412547 
L 45.33977 5.350962 
L 45.945107 4.387147 
L 46.550445 3.569734 
L 47.155782 2.949994 
L 47.76112 2.573749 
L 48.366457 2.470909 
L 48.971794 2.669974 
L 49.577132 3.213635 
L 50.182469 4.133054 
L 50.787806 5.400267 
L 51.393144 6.919206 
L 51.998481 8.564744 
L 52.603819 10.230514 
L 53.209156 11.866483 
L 53.814493 13.498439 
L 54.419831 15.200618 
L 55.025168 17.025826 
L 55.630506 18.963324 
L 56.235843 20.969191 
L 56.84118 23.018371 
L 57.446518 25.112 
L 58.051855 27.24966 
L 58.657192 29.411759 
L 59.26253 31.558436 
L 59.867867 33.630765 
L 60.473205 35.564806 
L 61.078542 37.326158 
L 61.683879 38.929265 
L 62.289217 40.407211 
L 62.894554 41.766203 
L 63.499892 42.987563 
L 64.105229 44.070749 
L 64.710566 45.048701 
L 65.315904 45.951888 
L 65.921241 46.775528 
L 66.526578 47.493695 
L 67.131916 48.09408 
L 67.737253 48.59134 
L 68.342591 49.017862 
L 68.947928 49.409047 
L 69.553265 49.787552 
" clip-path="url(#p011983fca0)" style="fill: none; stroke: #8a8a8a; stroke-width: 1.5; stroke-linecap: square"/>
   </g>
  </g>
 </g>
 <defs>
  <clipPath id="p011983fca0">
   <rect x="0" y="-0" width="558" height="54.36"/>
  </clipPath>
 </defs>
</svg>
