<?xml version="1.0" encoding="UTF-8" standalone="no"?>
<!-- Created with Inkscape (http://www.inkscape.org/) -->

<svg
   width="89.783463mm"
   height="114.28596mm"
   viewBox="0 0 89.783463 114.28595"
   version="1.1"
   id="svg5"
   xmlns="http://www.w3.org/2000/svg"
   xmlns:svg="http://www.w3.org/2000/svg">
  <defs
     id="defs2" />
  <g
     id="layer1"
     transform="translate(-143.92466,-140.57712)">
    <g
       id="g9061"
       transform="translate(-10.83737,36.1452)"
       style="stroke-width:4;stroke-miterlimit:4;stroke-dasharray:none">
      <path
         style="fill:none;stroke:#000000;stroke-width:13.7063;stroke-linecap:round;stroke-miterlimit:4;stroke-dasharray:none;paint-order:stroke fill markers"
         id="path853-10"
         transform="matrix(0,0.2918368,-0.2918368,0,361.58056,137.502)"
         d="m 76.426537,575.84987 12.12202,20.99595 -12.122018,20.99596 -24.244037,0 -12.12202,-20.99595 12.122018,-20.99596 z" />
      <path
         style="fill:none;stroke:#000000;stroke-width:13.7063;stroke-linecap:round;stroke-miterlimit:4;stroke-dasharray:none;paint-order:stroke fill markers"
         id="path853-0-5"
         transform="matrix(0,0.2918368,-0.2918368,0,343.19839,126.88905)"
         d="m 76.426537,575.84987 12.12202,20.99595 -12.122018,20.99596 -24.244037,0 -12.12202,-20.99595 12.122018,-20.99596 z" />
      <path
         style="fill:none;stroke:#000000;stroke-width:13.7063;stroke-linecap:round;stroke-miterlimit:4;stroke-dasharray:none;paint-order:stroke fill markers"
         id="path853-09-6"
         transform="matrix(0,0.2918368,-0.2918368,0,367.70795,148.11495)"
         d="m 76.426537,575.84987 12.12202,20.99595 -12.122018,20.99596 -24.244037,0 -12.12202,-20.99595 12.122018,-20.99596 z" />
      <path
         style="fill:none;stroke:#000000;stroke-width:13.7063;stroke-linecap:round;stroke-miterlimit:4;stroke-dasharray:none;paint-order:stroke fill markers"
         id="path853-0-3-8"
         transform="matrix(0,0.2918368,-0.2918368,0,373.83534,137.502)"
         d="m 76.426537,575.84987 12.12202,20.99595 -12.122018,20.99596 -24.244037,0 -12.12202,-20.99595 12.122018,-20.99596 z" />
      <path
         style="fill:none;stroke:#000000;stroke-width:13.7063;stroke-linecap:round;stroke-miterlimit:4;stroke-dasharray:none;paint-order:stroke fill markers"
         id="path853-1-76"
         transform="matrix(0,0.2918368,-0.2918368,0,349.32578,158.7279)"
         d="m 76.426537,575.84987 12.12202,20.99595 -12.122018,20.99596 -24.244037,0 -12.12202,-20.99595 12.122018,-20.99596 z" />
      <path
         style="fill:none;stroke:#000000;stroke-width:13.7063;stroke-linecap:round;stroke-miterlimit:4;stroke-dasharray:none;paint-order:stroke fill markers"
         id="path853-0-8-3"
         transform="matrix(0,0.2918368,-0.2918368,0,392.21751,126.88905)"
         d="m 76.426537,575.84987 12.12202,20.99595 -12.122018,20.99596 -24.244037,0 -12.12202,-20.99595 12.122018,-20.99596 z" />
      <path
         style="fill:none;stroke:#000000;stroke-width:13.7063;stroke-linecap:round;stroke-miterlimit:4;stroke-dasharray:none;paint-order:stroke fill markers"
         id="path853-09-5-1"
         transform="matrix(0,0.2918368,-0.2918368,0,355.45317,126.88905)"
         d="m 76.426537,575.84987 12.12202,20.99595 -12.122018,20.99596 -24.244037,0 -12.12202,-20.99595 12.122018,-20.99596 z" />
      <path
         style="fill:none;stroke:#000000;stroke-width:13.7063;stroke-linecap:round;stroke-miterlimit:4;stroke-dasharray:none;paint-order:stroke fill markers"
         id="path853-0-3-4-6"
         transform="matrix(0,0.2918368,-0.2918368,0,361.58056,158.7279)"
         d="m 76.426537,575.84987 12.12202,20.99595 -12.122018,20.99596 -24.244037,0 -12.12202,-20.99595 12.122018,-20.99596 z" />
      <path
         style="fill:none;stroke:#000000;stroke-width:13.7063;stroke-linecap:round;stroke-miterlimit:4;stroke-dasharray:none;paint-order:stroke fill markers"
         id="path853-7-2"
         transform="matrix(0,0.2918368,-0.2918368,0,337.071,158.7279)"
         d="m 76.426537,575.84987 12.12202,20.99595 -12.122018,20.99596 -24.244037,0 -12.12202,-20.99595 12.122018,-20.99596 z" />
      <path
         style="fill:none;stroke:#000000;stroke-width:13.7063;stroke-linecap:round;stroke-miterlimit:4;stroke-dasharray:none;paint-order:stroke fill markers"
         id="path853-0-38-0"
         transform="matrix(0,0.2918368,-0.2918368,0,355.45317,148.11495)"
         d="m 76.426537,575.84987 12.12202,20.99595 -12.122018,20.99596 -24.244037,0 -12.12202,-20.99595 12.122018,-20.99596 z" />
      <path
         style="fill:none;stroke:#000000;stroke-width:13.7063;stroke-linecap:round;stroke-miterlimit:4;stroke-dasharray:none;paint-order:stroke fill markers"
         id="path853-09-8-8"
         transform="matrix(0,0.2918368,-0.2918368,0,379.96273,190.56675)"
         d="m 76.426537,575.84987 12.12202,20.99595 -12.122018,20.99596 -24.244037,0 -12.12202,-20.99595 12.122018,-20.99596 z" />
      <path
         style="fill:none;stroke:#000000;stroke-width:13.7063;stroke-linecap:round;stroke-miterlimit:4;stroke-dasharray:none;paint-order:stroke fill markers"
         id="path853-0-3-2-6"
         transform="matrix(0,0.2918368,-0.2918368,0,392.21751,148.11495)"
         d="m 76.426537,575.84987 12.12202,20.99595 -12.122018,20.99596 -24.244037,0 -12.12202,-20.99595 12.122018,-20.99596 z" />
      <path
         style="fill:none;fill-opacity:1;stroke:#000000;stroke-width:13.7063;stroke-linecap:round;stroke-miterlimit:4;stroke-dasharray:none;paint-order:stroke fill markers"
         id="path853-1-9-3"
         transform="matrix(0,0.2918368,-0.2918368,0,349.32578,137.502)"
         d="m 76.426537,575.84987 12.12202,20.99595 -12.122018,20.99596 -24.244037,0 -12.12202,-20.99595 12.122018,-20.99596 z" />
      <path
         style="fill:none;stroke:#000000;stroke-width:13.7063;stroke-linecap:round;stroke-miterlimit:4;stroke-dasharray:none;paint-order:stroke fill markers"
         id="path853-0-8-8-8"
         transform="matrix(0,0.2918368,-0.2918368,0,349.32578,179.9538)"
         d="m 76.426537,575.84987 12.12202,20.99595 -12.122018,20.99596 -24.244037,0 -12.12202,-20.99595 12.122018,-20.99596 z" />
      <path
         style="fill:none;stroke:#000000;stroke-width:13.7063;stroke-linecap:round;stroke-miterlimit:4;stroke-dasharray:none;paint-order:stroke fill markers"
         id="path853-09-5-2-0"
         transform="matrix(0,0.2918368,-0.2918368,0,343.19839,148.11495)"
         d="m 76.426537,575.84987 12.12202,20.99595 -12.122018,20.99596 -24.244037,0 -12.12202,-20.99595 12.122018,-20.99596 z" />
      <path
         style="fill:none;stroke:#000000;stroke-width:13.7063;stroke-linecap:round;stroke-miterlimit:4;stroke-dasharray:none;paint-order:stroke fill markers"
         id="path853-0-3-4-1-28"
         transform="matrix(0,0.2918368,-0.2918368,0,404.47229,169.34085)"
         d="m 76.426537,575.84987 12.12202,20.99595 -12.122018,20.99596 -24.244037,0 -12.12202,-20.99595 12.122018,-20.99596 z" />
      <path
         style="fill:none;stroke:#000000;stroke-width:13.7063;stroke-linecap:round;stroke-miterlimit:4;stroke-dasharray:none;paint-order:stroke fill markers"
         id="path853-2-4"
         transform="matrix(0,0.2918368,-0.2918368,0,361.58056,116.2761)"
         d="m 76.426537,575.84987 12.12202,20.99595 -12.122018,20.99596 -24.244037,0 -12.12202,-20.99595 12.122018,-20.99596 z" />
      <path
         style="fill:none;stroke:#000000;stroke-width:13.7063;stroke-linecap:round;stroke-miterlimit:4;stroke-dasharray:none;paint-order:stroke fill markers"
         id="path853-0-2-8"
         transform="matrix(0,0.2918368,-0.2918368,0,367.70795,105.66315)"
         d="m 76.426537,575.84987 12.12202,20.99595 -12.122018,20.99596 -24.244037,0 -12.12202,-20.99595 12.122018,-20.99596 z" />
      <path
         style="fill:none;stroke:#000000;stroke-width:13.7063;stroke-linecap:round;stroke-miterlimit:4;stroke-dasharray:none;paint-order:stroke fill markers"
         id="path853-09-2-8"
         transform="matrix(0,0.2918368,-0.2918368,0,349.32578,116.2761)"
         d="m 76.426537,575.84987 12.12202,20.99595 -12.122018,20.99596 -24.244037,0 -12.12202,-20.99595 12.122018,-20.99596 z" />
      <path
         style="fill:none;stroke:#000000;stroke-width:13.7063;stroke-linecap:round;stroke-miterlimit:4;stroke-dasharray:none;paint-order:stroke fill markers"
         id="path853-0-3-48-9"
         transform="matrix(0,0.2918368,-0.2918368,0,373.83534,116.2761)"
         d="m 76.426537,575.84987 12.12202,20.99595 -12.122018,20.99596 -24.244037,0 -12.12202,-20.99595 12.122018,-20.99596 z" />
      <path
         style="fill:none;stroke:#000000;stroke-width:13.7063;stroke-linecap:round;stroke-miterlimit:4;stroke-dasharray:none;paint-order:stroke fill markers"
         id="path853-1-8-7"
         transform="matrix(0,0.2918368,-0.2918368,0,355.45317,105.66315)"
         d="m 76.426537,575.84987 12.12202,20.99595 -12.122018,20.99596 -24.244037,0 -12.12202,-20.99595 12.122018,-20.99596 z" />
      <path
         style="fill:none;stroke:#000000;stroke-width:13.7063;stroke-linecap:round;stroke-miterlimit:4;stroke-dasharray:none;paint-order:stroke fill markers"
         id="path853-0-8-2-9"
         transform="matrix(0,0.2918368,-0.2918368,0,373.83534,95.050204)"
         d="m 76.426537,575.84987 12.12202,20.99595 -12.122018,20.99596 -24.244037,0 -12.12202,-20.99595 12.122018,-20.99596 z" />
      <path
         style="fill:none;stroke:#000000;stroke-width:13.7063;stroke-linecap:round;stroke-miterlimit:4;stroke-dasharray:none;paint-order:stroke fill markers"
         id="path853-09-5-5-7"
         transform="matrix(0,0.2918368,-0.2918368,0,379.96273,105.66315)"
         d="m 76.426537,575.84987 12.12202,20.99595 -12.122018,20.99596 -24.244037,0 -12.12202,-20.99595 12.122018,-20.99596 z" />
      <path
         style="fill:none;stroke:#000000;stroke-width:13.7063;stroke-linecap:round;stroke-miterlimit:4;stroke-dasharray:none;paint-order:stroke fill markers"
         id="path853-0-3-4-3-8"
         transform="matrix(0,0.2918368,-0.2918368,0,361.58056,95.050204)"
         d="m 76.426537,575.84987 12.12202,20.99595 -12.122018,20.99596 -24.244037,0 -12.12202,-20.99595 12.122018,-20.99596 z" />
      <path
         style="fill:none;stroke:#000000;stroke-width:13.7063;stroke-linecap:round;stroke-miterlimit:4;stroke-dasharray:none;paint-order:stroke fill markers"
         id="path853-7-1-4"
         transform="matrix(0,0.2918368,-0.2918368,0,373.83534,158.7279)"
         d="m 76.426537,575.84987 12.12202,20.99595 -12.122018,20.99596 -24.244037,0 -12.12202,-20.99595 12.122018,-20.99596 z" />
      <path
         style="fill:none;stroke:#000000;stroke-width:13.7063;stroke-linecap:round;stroke-miterlimit:4;stroke-dasharray:none;paint-order:stroke fill markers"
         id="path853-0-38-2-5"
         transform="matrix(0,0.2918368,-0.2918368,0,410.59968,116.2761)"
         d="m 76.426537,575.84987 12.12202,20.99595 -12.122018,20.99596 -24.244037,0 -12.12202,-20.99595 12.122018,-20.99596 z" />
      <path
         style="fill:none;stroke:#000000;stroke-width:13.7063;stroke-linecap:round;stroke-miterlimit:4;stroke-dasharray:none;paint-order:stroke fill markers"
         id="path853-09-8-7-5"
         transform="matrix(0,0.2918368,-0.2918368,0,361.58056,179.9538)"
         d="m 76.426537,575.84987 12.12202,20.99595 -12.122018,20.99596 -24.244037,0 -12.12202,-20.99595 12.122018,-20.99596 z" />
      <path
         style="fill:none;stroke:#000000;stroke-width:13.7063;stroke-linecap:round;stroke-miterlimit:4;stroke-dasharray:none;paint-order:stroke fill markers"
         id="path853-0-3-2-0-9"
         transform="matrix(0,0.2918368,-0.2918368,0,386.09012,158.7279)"
         d="m 76.426537,575.84987 12.12202,20.99595 -12.122018,20.99596 -24.244037,0 -12.12202,-20.99595 12.122018,-20.99596 z" />
      <path
         style="fill:none;stroke:#000000;stroke-width:13.7063;stroke-linecap:round;stroke-miterlimit:4;stroke-dasharray:none;paint-order:stroke fill markers"
         id="path853-1-9-1-7"
         transform="matrix(0,0.2918368,-0.2918368,0,386.09012,116.2761)"
         d="m 76.426537,575.84987 12.12202,20.99595 -12.122018,20.99596 -24.244037,0 -12.12202,-20.99595 12.122018,-20.99596 z" />
      <path
         style="fill:none;stroke:#000000;stroke-width:13.7063;stroke-linecap:round;stroke-miterlimit:4;stroke-dasharray:none;paint-order:stroke fill markers"
         id="path853-0-8-8-2-5"
         transform="matrix(0,0.2918368,-0.2918368,0,392.21751,105.66315)"
         d="m 76.426537,575.84987 12.12202,20.99595 -12.122018,20.99596 -24.244037,0 -12.12202,-20.99595 12.122018,-20.99596 z" />
      <path
         style="fill:none;stroke:#000000;stroke-width:13.7063;stroke-linecap:round;stroke-miterlimit:4;stroke-dasharray:none;paint-order:stroke fill markers"
         id="path853-09-5-2-1-2"
         transform="matrix(0,0.2918368,-0.2918368,0,404.47229,105.66315)"
         d="m 76.426537,575.84987 12.12202,20.99595 -12.122018,20.99596 -24.244037,0 -12.12202,-20.99595 12.122018,-20.99596 z" />
      <path
         style="fill:none;stroke:#000000;stroke-width:13.7063;stroke-linecap:round;stroke-miterlimit:4;stroke-dasharray:none;paint-order:stroke fill markers"
         id="path853-0-3-4-1-8-2"
         transform="matrix(0,0.2918368,-0.2918368,0,398.3449,116.2761)"
         d="m 76.426537,575.84987 12.12202,20.99595 -12.122018,20.99596 -24.244037,0 -12.12202,-20.99595 12.122018,-20.99596 z" />
      <path
         style="fill:none;stroke:#000000;stroke-width:13.7063;stroke-linecap:round;stroke-miterlimit:4;stroke-dasharray:none;paint-order:stroke fill markers"
         id="path853-4-3"
         transform="matrix(0,0.2918368,-0.2918368,0,392.21751,169.34085)"
         d="m 76.426537,575.84987 12.12202,20.99595 -12.122018,20.99596 -24.244037,0 -12.12202,-20.99595 12.122018,-20.99596 z" />
      <path
         style="fill:none;stroke:#000000;stroke-width:13.7063;stroke-linecap:round;stroke-miterlimit:4;stroke-dasharray:none;paint-order:stroke fill markers"
         id="path853-0-28-3"
         transform="matrix(0,0.2918368,-0.2918368,0,373.83534,179.9538)"
         d="m 76.426537,575.84987 12.12202,20.99595 -12.122018,20.99596 -24.244037,0 -12.12202,-20.99595 12.122018,-20.99596 z" />
      <path
         style="fill:none;stroke:#000000;stroke-width:13.7063;stroke-linecap:round;stroke-miterlimit:4;stroke-dasharray:none;paint-order:stroke fill markers"
         id="path853-09-7-7"
         transform="matrix(0,0.2918368,-0.2918368,0,386.09012,137.502)"
         d="m 76.426537,575.84987 12.12202,20.99595 -12.122018,20.99596 -24.244037,0 -12.12202,-20.99595 12.122018,-20.99596 z" />
      <path
         style="fill:none;stroke:#000000;stroke-width:13.7063;stroke-linecap:round;stroke-miterlimit:4;stroke-dasharray:none;paint-order:stroke fill markers"
         id="path853-0-3-22-1"
         transform="matrix(0,0.2918368,-0.2918368,0,379.96273,169.34085)"
         d="m 76.426537,575.84987 12.12202,20.99595 -12.122018,20.99596 -24.244037,0 -12.12202,-20.99595 12.122018,-20.99596 z" />
      <path
         style="fill:none;stroke:#000000;stroke-width:13.7063;stroke-linecap:round;stroke-miterlimit:4;stroke-dasharray:none;paint-order:stroke fill markers"
         id="path853-1-7-9"
         transform="matrix(0,0.2918368,-0.2918368,0,398.3449,158.7279)"
         d="m 76.426537,575.84987 12.12202,20.99595 -12.122018,20.99596 -24.244037,0 -12.12202,-20.99595 12.122018,-20.99596 z" />
      <path
         style="fill:none;stroke:#000000;stroke-width:13.7063;stroke-linecap:round;stroke-miterlimit:4;stroke-dasharray:none;paint-order:stroke fill markers"
         id="path853-0-8-7-6"
         transform="matrix(0,0.2918368,-0.2918368,0,404.47229,126.88905)"
         d="m 76.426537,575.84987 12.12202,20.99595 -12.122018,20.99596 -24.244037,0 -12.12202,-20.99595 12.122018,-20.99596 z" />
      <path
         style="fill:none;stroke:#000000;stroke-width:13.7063;stroke-linecap:round;stroke-miterlimit:4;stroke-dasharray:none;paint-order:stroke fill markers"
         id="path853-09-5-0-3"
         transform="matrix(0,0.2918368,-0.2918368,0,386.09012,179.9538)"
         d="m 76.426537,575.84987 12.12202,20.99595 -12.122018,20.99596 -24.244037,0 -12.12202,-20.99595 12.122018,-20.99596 z" />
      <path
         style="fill:none;stroke:#000000;stroke-width:13.7063;stroke-linecap:round;stroke-miterlimit:4;stroke-dasharray:none;paint-order:stroke fill markers"
         id="path853-0-3-4-13-8"
         transform="matrix(0,0.2918368,-0.2918368,0,410.59968,158.7279)"
         d="m 76.426537,575.84987 12.12202,20.99595 -12.122018,20.99596 -24.244037,0 -12.12202,-20.99595 12.122018,-20.99596 z" />
      <path
         style="fill:none;fill-opacity:1;stroke:#000000;stroke-width:13.7063;stroke-linecap:round;stroke-miterlimit:4;stroke-dasharray:none;paint-order:stroke fill markers"
         id="path853-7-7-5"
         transform="matrix(0,0.2918368,-0.2918368,0,337.071,137.502)"
         d="m 76.426537,575.84987 12.12202,20.99595 -12.122018,20.99596 -24.244037,0 -12.12202,-20.99595 12.122018,-20.99596 z" />
      <path
         style="fill:none;stroke:#000000;stroke-width:13.7063;stroke-linecap:round;stroke-miterlimit:4;stroke-dasharray:none;paint-order:stroke fill markers"
         id="path853-0-38-5-7"
         transform="matrix(0,0.2918368,-0.2918368,0,398.3449,137.502)"
         d="m 76.426537,575.84987 12.12202,20.99595 -12.122018,20.99596 -24.244037,0 -12.12202,-20.99595 12.122018,-20.99596 z" />
      <path
         style="fill:none;stroke:#000000;stroke-width:13.7063;stroke-linecap:round;stroke-miterlimit:4;stroke-dasharray:none;paint-order:stroke fill markers"
         id="path853-09-8-78-8"
         transform="matrix(0,0.2918368,-0.2918368,0,379.96273,148.11495)"
         d="m 76.426537,575.84987 12.12202,20.99595 -12.122018,20.99596 -24.244037,0 -12.12202,-20.99595 12.122018,-20.99596 z" />
      <path
         style="fill:none;stroke:#000000;stroke-width:13.7063;stroke-linecap:round;stroke-miterlimit:4;stroke-dasharray:none;paint-order:stroke fill markers"
         id="path853-0-3-2-5-7"
         transform="matrix(0,0.2918368,-0.2918368,0,410.59968,137.502)"
         d="m 76.426537,575.84987 12.12202,20.99595 -12.122018,20.99596 -24.244037,0 -12.12202,-20.99595 12.122018,-20.99596 z" />
      <path
         style="fill:none;stroke:#000000;stroke-width:13.7063;stroke-linecap:round;stroke-miterlimit:4;stroke-dasharray:none;paint-order:stroke fill markers"
         id="path853-1-9-7-7"
         transform="matrix(0,0.2918368,-0.2918368,0,367.70795,169.34085)"
         d="m 76.426537,575.84987 12.12202,20.99595 -12.122018,20.99596 -24.244037,0 -12.12202,-20.99595 12.122018,-20.99596 z" />
      <path
         style="fill:none;stroke:#000000;stroke-width:13.7063;stroke-linecap:round;stroke-miterlimit:4;stroke-dasharray:none;paint-order:stroke fill markers"
         id="path853-0-8-8-0-4"
         transform="matrix(0,0.2918368,-0.2918368,0,398.3449,179.9538)"
         d="m 76.426537,575.84987 12.12202,20.99595 -12.122018,20.99596 -24.244037,0 -12.12202,-20.99595 12.122018,-20.99596 z" />
      <path
         style="fill:none;stroke:#000000;stroke-width:13.7063;stroke-linecap:round;stroke-miterlimit:4;stroke-dasharray:none;paint-order:stroke fill markers"
         id="path853-09-5-2-4-0"
         transform="matrix(0,0.2918368,-0.2918368,0,404.47229,148.11495)"
         d="m 76.426537,575.84987 12.12202,20.99595 -12.122018,20.99596 -24.244037,0 -12.12202,-20.99595 12.122018,-20.99596 z" />
      <path
         style="fill:none;stroke:#000000;stroke-width:13.7063;stroke-linecap:round;stroke-miterlimit:4;stroke-dasharray:none;paint-order:stroke fill markers"
         id="path853-0-3-4-1-2-2"
         transform="matrix(0,0.2918368,-0.2918368,0,355.45317,169.34085)"
         d="m 76.426537,575.84987 12.12202,20.99595 -12.122018,20.99596 -24.244037,0 -12.12202,-20.99595 12.122018,-20.99596 z" />
      <path
         style="fill:none;stroke:#000000;stroke-width:13.7063;stroke-linecap:round;stroke-miterlimit:4;stroke-dasharray:none;paint-order:stroke fill markers"
         id="path853-09-8-78-3-4"
         transform="matrix(0,0.2918368,-0.2918368,0,392.21751,190.56675)"
         d="m 76.426537,575.84987 12.12202,20.99595 -12.122018,20.99596 -24.244037,0 -12.12202,-20.99595 12.122018,-20.99596 z" />
      <path
         style="fill:none;stroke:#000000;stroke-width:13.7063;stroke-linecap:round;stroke-miterlimit:4;stroke-dasharray:none;paint-order:stroke fill markers"
         id="path853-09-8-78-4-5"
         transform="matrix(0,0.2918368,-0.2918368,0,343.19839,169.34085)"
         d="m 76.426537,575.84987 12.12202,20.99595 -12.122018,20.99596 -24.244037,0 -12.12202,-20.99595 12.122018,-20.99596 z" />
      <path
         style="fill:none;stroke:#000000;stroke-width:13.7063;stroke-linecap:round;stroke-miterlimit:4;stroke-dasharray:none;paint-order:stroke fill markers"
         id="path853-09-8-78-1-9"
         transform="matrix(0,0.2918368,-0.2918368,0,379.96273,126.88905)"
         d="m 76.426537,575.84987 12.12202,20.99595 -12.122018,20.99596 -24.244037,0 -12.12202,-20.99595 12.122018,-20.99596 z" />
      <path
         style="fill:none;stroke:#000000;stroke-width:13.7063;stroke-linecap:round;stroke-miterlimit:4;stroke-dasharray:none;paint-order:stroke fill markers"
         id="path853-09-8-78-2-4"
         transform="matrix(0,0.2918368,-0.2918368,0,367.70795,126.88905)"
         d="m 76.426537,575.84987 12.12202,20.99595 -12.122018,20.99596 -24.244037,0 -12.12202,-20.99595 12.122018,-20.99596 z" />
      <path
         style="fill:none;stroke:#000000;stroke-width:13.7063;stroke-linecap:round;stroke-miterlimit:4;stroke-dasharray:none;paint-order:stroke fill markers"
         id="path853-09-8-78-40-1"
         transform="matrix(0,0.2918368,-0.2918368,0,404.47229,190.56675)"
         d="m 76.426537,575.84987 12.12202,20.99595 -12.122018,20.99596 -24.244037,0 -12.12202,-20.99595 12.122018,-20.99596 z" />
      <path
         style="fill:none;stroke:#000000;stroke-width:13.7063;stroke-linecap:round;stroke-miterlimit:4;stroke-dasharray:none;paint-order:stroke fill markers"
         id="path853-09-8-78-6-0"
         transform="matrix(0,0.2918368,-0.2918368,0,367.70795,190.56675)"
         d="m 76.426537,575.84987 12.12202,20.99595 -12.122018,20.99596 -24.244037,0 -12.12202,-20.99595 12.122018,-20.99596 z" />
    </g>
    <path
       style="fill:#ff8080;stroke:#666666;stroke-width:3.77953;stroke-linecap:round;paint-order:stroke fill markers"
       id="path853"
       transform="matrix(0,0.2918368,-0.2918368,0,350.74319,173.6472)"
       d="m 76.426537,575.84987 12.12202,20.99595 -12.122018,20.99596 -24.244037,0 -12.12202,-20.99595 12.122018,-20.99596 z" />
    <path
       style="fill:#ff8080;stroke:#666666;stroke-width:3.77953;stroke-linecap:round;paint-order:stroke fill markers"
       id="path853-0"
       transform="matrix(0,0.2918368,-0.2918368,0,332.36102,163.03425)"
       d="m 76.426537,575.84987 12.12202,20.99595 -12.122018,20.99596 -24.244037,0 -12.12202,-20.99595 12.122018,-20.99596 z" />
    <path
       style="fill:#ff8080;stroke:#666666;stroke-width:3.77953;stroke-linecap:round;paint-order:stroke fill markers"
       id="path853-09"
       transform="matrix(0,0.2918368,-0.2918368,0,356.87058,184.26015)"
       d="m 76.426537,575.84987 12.12202,20.99595 -12.122018,20.99596 -24.244037,0 -12.12202,-20.99595 12.122018,-20.99596 z" />
    <path
       style="fill:#ff8080;stroke:#666666;stroke-width:3.77953;stroke-linecap:round;paint-order:stroke fill markers"
       id="path853-0-3"
       transform="matrix(0,0.2918368,-0.2918368,0,362.99797,173.6472)"
       d="m 76.426537,575.84987 12.12202,20.99595 -12.122018,20.99596 -24.244037,0 -12.12202,-20.99595 12.122018,-20.99596 z" />
    <path
       style="fill:#ff8080;stroke:#666666;stroke-width:3.77953;stroke-linecap:round;paint-order:stroke fill markers"
       id="path853-1"
       transform="matrix(0,0.2918368,-0.2918368,0,338.48841,194.8731)"
       d="m 76.426537,575.84987 12.12202,20.99595 -12.122018,20.99596 -24.244037,0 -12.12202,-20.99595 12.122018,-20.99596 z" />
    <path
       style="fill:#ff8080;stroke:#666666;stroke-width:3.77953;stroke-linecap:round;paint-order:stroke fill markers"
       id="path853-0-8"
       transform="matrix(0,0.2918368,-0.2918368,0,381.38014,163.03425)"
       d="m 76.426537,575.84987 12.12202,20.99595 -12.122018,20.99596 -24.244037,0 -12.12202,-20.99595 12.122018,-20.99596 z" />
    <path
       style="fill:#ff8080;stroke:#666666;stroke-width:3.77953;stroke-linecap:round;paint-order:stroke fill markers"
       id="path853-09-5"
       transform="matrix(0,0.2918368,-0.2918368,0,344.6158,163.03425)"
       d="m 76.426537,575.84987 12.12202,20.99595 -12.122018,20.99596 -24.244037,0 -12.12202,-20.99595 12.122018,-20.99596 z" />
    <path
       style="fill:#ff8080;stroke:#666666;stroke-width:3.77953;stroke-linecap:round;paint-order:stroke fill markers"
       id="path853-0-3-4"
       transform="matrix(0,0.2918368,-0.2918368,0,350.74319,194.8731)"
       d="m 76.426537,575.84987 12.12202,20.99595 -12.122018,20.99596 -24.244037,0 -12.12202,-20.99595 12.122018,-20.99596 z" />
    <path
       style="fill:#ff8080;stroke:#666666;stroke-width:3.77953;stroke-linecap:round;paint-order:stroke fill markers"
       id="path853-7"
       transform="matrix(0,0.2918368,-0.2918368,0,326.23363,194.8731)"
       d="m 76.426537,575.84987 12.12202,20.99595 -12.122018,20.99596 -24.244037,0 -12.12202,-20.99595 12.122018,-20.99596 z" />
    <path
       style="fill:#ff8080;stroke:#666666;stroke-width:3.77953;stroke-linecap:round;paint-order:stroke fill markers"
       id="path853-0-38"
       transform="matrix(0,0.2918368,-0.2918368,0,344.6158,184.26015)"
       d="m 76.426537,575.84987 12.12202,20.99595 -12.122018,20.99596 -24.244037,0 -12.12202,-20.99595 12.122018,-20.99596 z" />
    <path
       style="fill:#ff8080;stroke:#666666;stroke-width:3.77953;stroke-linecap:round;paint-order:stroke fill markers"
       id="path853-09-8"
       transform="matrix(0,0.2918368,-0.2918368,0,369.12536,226.71195)"
       d="m 76.426537,575.84987 12.12202,20.99595 -12.122018,20.99596 -24.244037,0 -12.12202,-20.99595 12.122018,-20.99596 z" />
    <path
       style="fill:#ff8080;stroke:#666666;stroke-width:3.77953;stroke-linecap:round;paint-order:stroke fill markers"
       id="path853-0-3-2"
       transform="matrix(0,0.2918368,-0.2918368,0,381.38014,184.26015)"
       d="m 76.426537,575.84987 12.12202,20.99595 -12.122018,20.99596 -24.244037,0 -12.12202,-20.99595 12.122018,-20.99596 z" />
    <path
       style="fill:#ff8080;fill-opacity:1;stroke:#666666;stroke-width:3.77953;stroke-linecap:round;paint-order:stroke fill markers"
       id="path853-1-9"
       transform="matrix(0,0.2918368,-0.2918368,0,338.48841,173.6472)"
       d="m 76.426537,575.84987 12.12202,20.99595 -12.122018,20.99596 -24.244037,0 -12.12202,-20.99595 12.122018,-20.99596 z" />
    <path
       style="fill:#ff8080;stroke:#666666;stroke-width:3.77953;stroke-linecap:round;paint-order:stroke fill markers"
       id="path853-0-8-8"
       transform="matrix(0,0.2918368,-0.2918368,0,338.48841,216.099)"
       d="m 76.426537,575.84987 12.12202,20.99595 -12.122018,20.99596 -24.244037,0 -12.12202,-20.99595 12.122018,-20.99596 z" />
    <path
       style="fill:#ff8080;stroke:#666666;stroke-width:3.77953;stroke-linecap:round;paint-order:stroke fill markers"
       id="path853-09-5-2"
       transform="matrix(0,0.2918368,-0.2918368,0,332.36102,184.26015)"
       d="m 76.426537,575.84987 12.12202,20.99595 -12.122018,20.99596 -24.244037,0 -12.12202,-20.99595 12.122018,-20.99596 z" />
    <path
       style="fill:#ff8080;stroke:#666666;stroke-width:3.77953;stroke-linecap:round;paint-order:stroke fill markers"
       id="path853-0-3-4-1"
       transform="matrix(0,0.2918368,-0.2918368,0,393.63492,205.48605)"
       d="m 76.426537,575.84987 12.12202,20.99595 -12.122018,20.99596 -24.244037,0 -12.12202,-20.99595 12.122018,-20.99596 z" />
    <path
       style="fill:#ff8080;stroke:#666666;stroke-width:3.77953;stroke-linecap:round;paint-order:stroke fill markers"
       id="path853-2"
       transform="matrix(0,0.2918368,-0.2918368,0,350.74319,152.4213)"
       d="m 76.426537,575.84987 12.12202,20.99595 -12.122018,20.99596 -24.244037,0 -12.12202,-20.99595 12.122018,-20.99596 z" />
    <path
       style="fill:#ff8080;stroke:#666666;stroke-width:3.77953;stroke-linecap:round;paint-order:stroke fill markers"
       id="path853-0-2"
       transform="matrix(0,0.2918368,-0.2918368,0,356.87058,141.80835)"
       d="m 76.426537,575.84987 12.12202,20.99595 -12.122018,20.99596 -24.244037,0 -12.12202,-20.99595 12.122018,-20.99596 z" />
    <path
       style="fill:#ff8080;stroke:#666666;stroke-width:3.77953;stroke-linecap:round;paint-order:stroke fill markers"
       id="path853-09-2"
       transform="matrix(0,0.2918368,-0.2918368,0,338.48841,152.4213)"
       d="m 76.426537,575.84987 12.12202,20.99595 -12.122018,20.99596 -24.244037,0 -12.12202,-20.99595 12.122018,-20.99596 z" />
    <path
       style="fill:#ff8080;stroke:#666666;stroke-width:3.77953;stroke-linecap:round;paint-order:stroke fill markers"
       id="path853-0-3-48"
       transform="matrix(0,0.2918368,-0.2918368,0,362.99797,152.4213)"
       d="m 76.426537,575.84987 12.12202,20.99595 -12.122018,20.99596 -24.244037,0 -12.12202,-20.99595 12.122018,-20.99596 z" />
    <path
       style="fill:#ff8080;stroke:#666666;stroke-width:3.77953;stroke-linecap:round;paint-order:stroke fill markers"
       id="path853-1-8"
       transform="matrix(0,0.2918368,-0.2918368,0,344.6158,141.80835)"
       d="m 76.426537,575.84987 12.12202,20.99595 -12.122018,20.99596 -24.244037,0 -12.12202,-20.99595 12.122018,-20.99596 z" />
    <path
       style="fill:#ff8080;stroke:#666666;stroke-width:3.77953;stroke-linecap:round;paint-order:stroke fill markers"
       id="path853-0-8-2"
       transform="matrix(0,0.2918368,-0.2918368,0,362.99797,131.1954)"
       d="m 76.426537,575.84987 12.12202,20.99595 -12.122018,20.99596 -24.244037,0 -12.12202,-20.99595 12.122018,-20.99596 z" />
    <path
       style="fill:#ff8080;stroke:#666666;stroke-width:3.77953;stroke-linecap:round;paint-order:stroke fill markers"
       id="path853-09-5-5"
       transform="matrix(0,0.2918368,-0.2918368,0,369.12536,141.80835)"
       d="m 76.426537,575.84987 12.12202,20.99595 -12.122018,20.99596 -24.244037,0 -12.12202,-20.99595 12.122018,-20.99596 z" />
    <path
       style="fill:#ff8080;stroke:#666666;stroke-width:3.77953;stroke-linecap:round;paint-order:stroke fill markers"
       id="path853-0-3-4-3"
       transform="matrix(0,0.2918368,-0.2918368,0,350.74319,131.1954)"
       d="m 76.426537,575.84987 12.12202,20.99595 -12.122018,20.99596 -24.244037,0 -12.12202,-20.99595 12.122018,-20.99596 z" />
    <path
       style="fill:#ff8080;stroke:#666666;stroke-width:3.77953;stroke-linecap:round;paint-order:stroke fill markers"
       id="path853-7-1"
       transform="matrix(0,0.2918368,-0.2918368,0,362.99797,194.8731)"
       d="m 76.426537,575.84987 12.12202,20.99595 -12.122018,20.99596 -24.244037,0 -12.12202,-20.99595 12.122018,-20.99596 z" />
    <path
       style="fill:#ff8080;stroke:#666666;stroke-width:3.77953;stroke-linecap:round;paint-order:stroke fill markers"
       id="path853-0-38-2"
       transform="matrix(0,0.2918368,-0.2918368,0,399.76231,152.4213)"
       d="m 76.426537,575.84987 12.12202,20.99595 -12.122018,20.99596 -24.244037,0 -12.12202,-20.99595 12.122018,-20.99596 z" />
    <path
       style="fill:#ff8080;stroke:#666666;stroke-width:3.77953;stroke-linecap:round;paint-order:stroke fill markers"
       id="path853-09-8-7"
       transform="matrix(0,0.2918368,-0.2918368,0,350.74319,216.099)"
       d="m 76.426537,575.84987 12.12202,20.99595 -12.122018,20.99596 -24.244037,0 -12.12202,-20.99595 12.122018,-20.99596 z" />
    <path
       style="fill:#ff8080;stroke:#666666;stroke-width:3.77953;stroke-linecap:round;paint-order:stroke fill markers"
       id="path853-0-3-2-0"
       transform="matrix(0,0.2918368,-0.2918368,0,375.25275,194.8731)"
       d="m 76.426537,575.84987 12.12202,20.99595 -12.122018,20.99596 -24.244037,0 -12.12202,-20.99595 12.122018,-20.99596 z" />
    <path
       style="fill:#ff8080;stroke:#666666;stroke-width:3.77953;stroke-linecap:round;paint-order:stroke fill markers"
       id="path853-1-9-1"
       transform="matrix(0,0.2918368,-0.2918368,0,375.25275,152.4213)"
       d="m 76.426537,575.84987 12.12202,20.99595 -12.122018,20.99596 -24.244037,0 -12.12202,-20.99595 12.122018,-20.99596 z" />
    <path
       style="fill:#ff8080;stroke:#666666;stroke-width:3.77953;stroke-linecap:round;paint-order:stroke fill markers"
       id="path853-0-8-8-2"
       transform="matrix(0,0.2918368,-0.2918368,0,381.38014,141.80835)"
       d="m 76.426537,575.84987 12.12202,20.99595 -12.122018,20.99596 -24.244037,0 -12.12202,-20.99595 12.122018,-20.99596 z" />
    <path
       style="fill:#ff8080;stroke:#666666;stroke-width:3.77953;stroke-linecap:round;paint-order:stroke fill markers"
       id="path853-09-5-2-1"
       transform="matrix(0,0.2918368,-0.2918368,0,393.63492,141.80835)"
       d="m 76.426537,575.84987 12.12202,20.99595 -12.122018,20.99596 -24.244037,0 -12.12202,-20.99595 12.122018,-20.99596 z" />
    <path
       style="fill:#ff8080;stroke:#666666;stroke-width:3.77953;stroke-linecap:round;paint-order:stroke fill markers"
       id="path853-0-3-4-1-8"
       transform="matrix(0,0.2918368,-0.2918368,0,387.50753,152.4213)"
       d="m 76.426537,575.84987 12.12202,20.99595 -12.122018,20.99596 -24.244037,0 -12.12202,-20.99595 12.122018,-20.99596 z" />
    <path
       style="fill:#ff8080;stroke:#666666;stroke-width:3.77953;stroke-linecap:round;paint-order:stroke fill markers"
       id="path853-4"
       transform="matrix(0,0.2918368,-0.2918368,0,381.38014,205.48605)"
       d="m 76.426537,575.84987 12.12202,20.99595 -12.122018,20.99596 -24.244037,0 -12.12202,-20.99595 12.122018,-20.99596 z" />
    <path
       style="fill:#ff8080;stroke:#666666;stroke-width:3.77953;stroke-linecap:round;paint-order:stroke fill markers"
       id="path853-0-28"
       transform="matrix(0,0.2918368,-0.2918368,0,362.99797,216.099)"
       d="m 76.426537,575.84987 12.12202,20.99595 -12.122018,20.99596 -24.244037,0 -12.12202,-20.99595 12.122018,-20.99596 z" />
    <path
       style="fill:#ff8080;stroke:#666666;stroke-width:3.77953;stroke-linecap:round;paint-order:stroke fill markers"
       id="path853-09-7"
       transform="matrix(0,0.2918368,-0.2918368,0,375.25275,173.6472)"
       d="m 76.426537,575.84987 12.12202,20.99595 -12.122018,20.99596 -24.244037,0 -12.12202,-20.99595 12.122018,-20.99596 z" />
    <path
       style="fill:#ff8080;stroke:#666666;stroke-width:3.77953;stroke-linecap:round;paint-order:stroke fill markers"
       id="path853-0-3-22"
       transform="matrix(0,0.2918368,-0.2918368,0,369.12536,205.48605)"
       d="m 76.426537,575.84987 12.12202,20.99595 -12.122018,20.99596 -24.244037,0 -12.12202,-20.99595 12.122018,-20.99596 z" />
    <path
       style="fill:#ff8080;stroke:#666666;stroke-width:3.77953;stroke-linecap:round;paint-order:stroke fill markers"
       id="path853-1-7"
       transform="matrix(0,0.2918368,-0.2918368,0,387.50753,194.8731)"
       d="m 76.426537,575.84987 12.12202,20.99595 -12.122018,20.99596 -24.244037,0 -12.12202,-20.99595 12.122018,-20.99596 z" />
    <path
       style="fill:#ff8080;stroke:#666666;stroke-width:3.77953;stroke-linecap:round;paint-order:stroke fill markers"
       id="path853-0-8-7"
       transform="matrix(0,0.2918368,-0.2918368,0,393.63492,163.03425)"
       d="m 76.426537,575.84987 12.12202,20.99595 -12.122018,20.99596 -24.244037,0 -12.12202,-20.99595 12.122018,-20.99596 z" />
    <path
       style="fill:#ff8080;stroke:#666666;stroke-width:3.77953;stroke-linecap:round;paint-order:stroke fill markers"
       id="path853-09-5-0"
       transform="matrix(0,0.2918368,-0.2918368,0,375.25275,216.099)"
       d="m 76.426537,575.84987 12.12202,20.99595 -12.122018,20.99596 -24.244037,0 -12.12202,-20.99595 12.122018,-20.99596 z" />
    <path
       style="fill:#ff8080;stroke:#666666;stroke-width:3.77953;stroke-linecap:round;paint-order:stroke fill markers"
       id="path853-0-3-4-13"
       transform="matrix(0,0.2918368,-0.2918368,0,399.76231,194.8731)"
       d="m 76.426537,575.84987 12.12202,20.99595 -12.122018,20.99596 -24.244037,0 -12.12202,-20.99595 12.122018,-20.99596 z" />
    <path
       style="fill:#ff8080;fill-opacity:1;stroke:#666666;stroke-width:3.77953;stroke-linecap:round;paint-order:stroke fill markers"
       id="path853-7-7"
       transform="matrix(0,0.2918368,-0.2918368,0,326.23363,173.6472)"
       d="m 76.426537,575.84987 12.12202,20.99595 -12.122018,20.99596 -24.244037,0 -12.12202,-20.99595 12.122018,-20.99596 z" />
    <path
       style="fill:#ff8080;stroke:#666666;stroke-width:3.77953;stroke-linecap:round;paint-order:stroke fill markers"
       id="path853-0-38-5"
       transform="matrix(0,0.2918368,-0.2918368,0,387.50753,173.6472)"
       d="m 76.426537,575.84987 12.12202,20.99595 -12.122018,20.99596 -24.244037,0 -12.12202,-20.99595 12.122018,-20.99596 z" />
    <path
       style="fill:#ff8080;stroke:#666666;stroke-width:3.77953;stroke-linecap:round;paint-order:stroke fill markers"
       id="path853-09-8-78"
       transform="matrix(0,0.2918368,-0.2918368,0,369.12536,184.26015)"
       d="m 76.426537,575.84987 12.12202,20.99595 -12.122018,20.99596 -24.244037,0 -12.12202,-20.99595 12.122018,-20.99596 z" />
    <path
       style="fill:#ff8080;stroke:#666666;stroke-width:3.77953;stroke-linecap:round;paint-order:stroke fill markers"
       id="path853-0-3-2-5"
       transform="matrix(0,0.2918368,-0.2918368,0,399.76231,173.6472)"
       d="m 76.426537,575.84987 12.12202,20.99595 -12.122018,20.99596 -24.244037,0 -12.12202,-20.99595 12.122018,-20.99596 z" />
    <path
       style="fill:#ff8080;stroke:#666666;stroke-width:3.77953;stroke-linecap:round;paint-order:stroke fill markers"
       id="path853-1-9-7"
       transform="matrix(0,0.2918368,-0.2918368,0,356.87058,205.48605)"
       d="m 76.426537,575.84987 12.12202,20.99595 -12.122018,20.99596 -24.244037,0 -12.12202,-20.99595 12.122018,-20.99596 z" />
    <path
       style="fill:#ff8080;stroke:#666666;stroke-width:3.77953;stroke-linecap:round;paint-order:stroke fill markers"
       id="path853-0-8-8-0"
       transform="matrix(0,0.2918368,-0.2918368,0,387.50753,216.099)"
       d="m 76.426537,575.84987 12.12202,20.99595 -12.122018,20.99596 -24.244037,0 -12.12202,-20.99595 12.122018,-20.99596 z" />
    <path
       style="fill:#ff8080;stroke:#666666;stroke-width:3.77953;stroke-linecap:round;paint-order:stroke fill markers"
       id="path853-09-5-2-4"
       transform="matrix(0,0.2918368,-0.2918368,0,393.63492,184.26015)"
       d="m 76.426537,575.84987 12.12202,20.99595 -12.122018,20.99596 -24.244037,0 -12.12202,-20.99595 12.122018,-20.99596 z" />
    <path
       style="fill:#ff8080;stroke:#666666;stroke-width:3.77953;stroke-linecap:round;paint-order:stroke fill markers"
       id="path853-0-3-4-1-2"
       transform="matrix(0,0.2918368,-0.2918368,0,344.6158,205.48605)"
       d="m 76.426537,575.84987 12.12202,20.99595 -12.122018,20.99596 -24.244037,0 -12.12202,-20.99595 12.122018,-20.99596 z" />
    <path
       style="fill:#ff8080;stroke:#666666;stroke-width:3.77953;stroke-linecap:round;paint-order:stroke fill markers"
       id="path853-09-8-78-3"
       transform="matrix(0,0.2918368,-0.2918368,0,381.38014,226.71195)"
       d="m 76.426537,575.84987 12.12202,20.99595 -12.122018,20.99596 -24.244037,0 -12.12202,-20.99595 12.122018,-20.99596 z" />
    <path
       style="fill:#ff8080;stroke:#666666;stroke-width:3.77953;stroke-linecap:round;paint-order:stroke fill markers"
       id="path853-09-8-78-4"
       transform="matrix(0,0.2918368,-0.2918368,0,332.36102,205.48605)"
       d="m 76.426537,575.84987 12.12202,20.99595 -12.122018,20.99596 -24.244037,0 -12.12202,-20.99595 12.122018,-20.99596 z" />
    <path
       style="fill:#ff8080;stroke:#666666;stroke-width:3.77953;stroke-linecap:round;paint-order:stroke fill markers"
       id="path853-09-8-78-1"
       transform="matrix(0,0.2918368,-0.2918368,0,369.12536,163.03425)"
       d="m 76.426537,575.84987 12.12202,20.99595 -12.122018,20.99596 -24.244037,0 -12.12202,-20.99595 12.122018,-20.99596 z" />
    <path
       style="fill:#ff8080;stroke:#666666;stroke-width:3.77953;stroke-linecap:round;paint-order:stroke fill markers"
       id="path853-09-8-78-2"
       transform="matrix(0,0.2918368,-0.2918368,0,356.87058,163.03425)"
       d="m 76.426537,575.84987 12.12202,20.99595 -12.122018,20.99596 -24.244037,0 -12.12202,-20.99595 12.122018,-20.99596 z" />
    <path
       style="fill:#ff8080;stroke:#666666;stroke-width:3.77953;stroke-linecap:round;paint-order:stroke fill markers"
       id="path853-09-8-78-40"
       transform="matrix(0,0.2918368,-0.2918368,0,393.63492,226.71195)"
       d="m 76.426537,575.84987 12.12202,20.99595 -12.122018,20.99596 -24.244037,0 -12.12202,-20.99595 12.122018,-20.99596 z" />
    <path
       style="fill:#ff8080;stroke:#666666;stroke-width:3.77953;stroke-linecap:round;paint-order:stroke fill markers"
       id="path853-09-8-78-6"
       transform="matrix(0,0.2918368,-0.2918368,0,356.87058,226.71195)"
       d="m 76.426537,575.84987 12.12202,20.99595 -12.122018,20.99596 -24.244037,0 -12.12202,-20.99595 12.122018,-20.99596 z" />
  </g>
</svg>
