<?xml version="1.0" encoding="UTF-8" standalone="no"?>
<!-- Created with Inkscape (http://www.inkscape.org/) -->

<svg
   width="89.783463mm"
   height="114.28596mm"
   viewBox="0 0 89.783463 114.28595"
   version="1.1"
   id="svg5"
   xmlns="http://www.w3.org/2000/svg"
   xmlns:svg="http://www.w3.org/2000/svg">
  <defs
     id="defs2" />
  <g
     id="layer1"
     transform="translate(-143.92466,-140.57712)">
    <!-- <g
       id="g9061"
       transform="translate(-10.83737,36.1452)"
       style="stroke-width:4;stroke-miterlimit:4;stroke-dasharray:none">
      <path
         style="fill:none;stroke:#000000;stroke-width:13.7063;stroke-linecap:round;stroke-miterlimit:4;stroke-dasharray:none;paint-order:stroke fill markers"
         id="ca-33"
         transform="matrix(0,0.2918368,-0.2918368,0,361.58056,137.502)"
         d="m 76.426537,575.84987 12.12202,20.99595 -12.122018,20.99596 -24.244037,0 -12.12202,-20.99595 12.122018,-20.99596 z" />
      <path
         style="fill:none;stroke:#000000;stroke-width:13.7063;stroke-linecap:round;stroke-miterlimit:4;stroke-dasharray:none;paint-order:stroke fill markers"
         id="ca-36"
         transform="matrix(0,0.2918368,-0.2918368,0,343.19839,126.88905)"
         d="m 76.426537,575.84987 12.12202,20.99595 -12.122018,20.99596 -24.244037,0 -12.12202,-20.99595 12.122018,-20.99596 z" />
      <path
         style="fill:none;stroke:#000000;stroke-width:13.7063;stroke-linecap:round;stroke-miterlimit:4;stroke-dasharray:none;paint-order:stroke fill markers"
         id="ca-25"
         transform="matrix(0,0.2918368,-0.2918368,0,367.70795,148.11495)"
         d="m 76.426537,575.84987 12.12202,20.99595 -12.122018,20.99596 -24.244037,0 -12.12202,-20.99595 12.122018,-20.99596 z" />
      <path
         style="fill:none;stroke:#000000;stroke-width:13.7063;stroke-linecap:round;stroke-miterlimit:4;stroke-dasharray:none;paint-order:stroke fill markers"
         id="ca-32"
         transform="matrix(0,0.2918368,-0.2918368,0,373.83534,137.502)"
         d="m 76.426537,575.84987 12.12202,20.99595 -12.122018,20.99596 -24.244037,0 -12.12202,-20.99595 12.122018,-20.99596 z" />
      <path
         style="fill:none;stroke:#000000;stroke-width:13.7063;stroke-linecap:round;stroke-miterlimit:4;stroke-dasharray:none;paint-order:stroke fill markers"
         id="ca-21"
         transform="matrix(0,0.2918368,-0.2918368,0,349.32578,158.7279)"
         d="m 76.426537,575.84987 12.12202,20.99595 -12.122018,20.99596 -24.244037,0 -12.12202,-20.99595 12.122018,-20.99596 z" />
      <path
         style="fill:none;stroke:#000000;stroke-width:13.7063;stroke-linecap:round;stroke-miterlimit:4;stroke-dasharray:none;paint-order:stroke fill markers"
         id="ca-40"
         transform="matrix(0,0.2918368,-0.2918368,0,392.21751,126.88905)"
         d="m 76.426537,575.84987 12.12202,20.99595 -12.122018,20.99596 -24.244037,0 -12.12202,-20.99595 12.122018,-20.99596 z" />
      <path
         style="fill:none;stroke:#000000;stroke-width:13.7063;stroke-linecap:round;stroke-miterlimit:4;stroke-dasharray:none;paint-order:stroke fill markers"
         id="ca-37"
         transform="matrix(0,0.2918368,-0.2918368,0,355.45317,126.88905)"
         d="m 76.426537,575.84987 12.12202,20.99595 -12.122018,20.99596 -24.244037,0 -12.12202,-20.99595 12.122018,-20.99596 z" />
      <path
         style="fill:none;stroke:#000000;stroke-width:13.7063;stroke-linecap:round;stroke-miterlimit:4;stroke-dasharray:none;paint-order:stroke fill markers"
         id="ca-20"
         transform="matrix(0,0.2918368,-0.2918368,0,361.58056,158.7279)"
         d="m 76.426537,575.84987 12.12202,20.99595 -12.122018,20.99596 -24.244037,0 -12.12202,-20.99595 12.122018,-20.99596 z" />
      <path
         style="fill:none;stroke:#000000;stroke-width:13.7063;stroke-linecap:round;stroke-miterlimit:4;stroke-dasharray:none;paint-order:stroke fill markers"
         id="ca-22"
         transform="matrix(0,0.2918368,-0.2918368,0,337.071,158.7279)"
         d="m 76.426537,575.84987 12.12202,20.99595 -12.122018,20.99596 -24.244037,0 -12.12202,-20.99595 12.122018,-20.99596 z" />
      <path
         style="fill:none;stroke:#000000;stroke-width:13.7063;stroke-linecap:round;stroke-miterlimit:4;stroke-dasharray:none;paint-order:stroke fill markers"
         id="ca-24"
         transform="matrix(0,0.2918368,-0.2918368,0,355.45317,148.11495)"
         d="m 76.426537,575.84987 12.12202,20.99595 -12.122018,20.99596 -24.244037,0 -12.12202,-20.99595 12.122018,-20.99596 z" />
      <path
         style="fill:none;stroke:#000000;stroke-width:13.7063;stroke-linecap:round;stroke-miterlimit:4;stroke-dasharray:none;paint-order:stroke fill markers"
         id="ca-2"
         transform="matrix(0,0.2918368,-0.2918368,0,379.96273,190.56675)"
         d="m 76.426537,575.84987 12.12202,20.99595 -12.122018,20.99596 -24.244037,0 -12.12202,-20.99595 12.122018,-20.99596 z" />
      <path
         style="fill:none;stroke:#000000;stroke-width:13.7063;stroke-linecap:round;stroke-miterlimit:4;stroke-dasharray:none;paint-order:stroke fill markers"
         id="ca-27"
         transform="matrix(0,0.2918368,-0.2918368,0,392.21751,148.11495)"
         d="m 76.426537,575.84987 12.12202,20.99595 -12.122018,20.99596 -24.244037,0 -12.12202,-20.99595 12.122018,-20.99596 z" />
      <path
         style="fill:none;fill-opacity:1;stroke:#000000;stroke-width:13.7063;stroke-linecap:round;stroke-miterlimit:4;stroke-dasharray:none;paint-order:stroke fill markers"
         id="ca-34"
         transform="matrix(0,0.2918368,-0.2918368,0,349.32578,137.502)"
         d="m 76.426537,575.84987 12.12202,20.99595 -12.122018,20.99596 -24.244037,0 -12.12202,-20.99595 12.122018,-20.99596 z" />
      <path
         style="fill:none;stroke:#000000;stroke-width:13.7063;stroke-linecap:round;stroke-miterlimit:4;stroke-dasharray:none;paint-order:stroke fill markers"
         id="ca-9"
         transform="matrix(0,0.2918368,-0.2918368,0,349.32578,179.9538)"
         d="m 76.426537,575.84987 12.12202,20.99595 -12.122018,20.99596 -24.244037,0 -12.12202,-20.99595 12.122018,-20.99596 z" />
      <path
         style="fill:none;stroke:#000000;stroke-width:13.7063;stroke-linecap:round;stroke-miterlimit:4;stroke-dasharray:none;paint-order:stroke fill markers"
         id="ca-23"
         transform="matrix(0,0.2918368,-0.2918368,0,343.19839,148.11495)"
         d="m 76.426537,575.84987 12.12202,20.99595 -12.122018,20.99596 -24.244037,0 -12.12202,-20.99595 12.122018,-20.99596 z" />
      <path
         style="fill:none;stroke:#000000;stroke-width:13.7063;stroke-linecap:round;stroke-miterlimit:4;stroke-dasharray:none;paint-order:stroke fill markers"
         id="ca-15"
         transform="matrix(0,0.2918368,-0.2918368,0,404.47229,169.34085)"
         d="m 76.426537,575.84987 12.12202,20.99595 -12.122018,20.99596 -24.244037,0 -12.12202,-20.99595 12.122018,-20.99596 z" />
      <path
         style="fill:none;stroke:#000000;stroke-width:13.7063;stroke-linecap:round;stroke-miterlimit:4;stroke-dasharray:none;paint-order:stroke fill markers"
         id="ca-46"
         transform="matrix(0,0.2918368,-0.2918368,0,361.58056,116.2761)"
         d="m 76.426537,575.84987 12.12202,20.99595 -12.122018,20.99596 -24.244037,0 -12.12202,-20.99595 12.122018,-20.99596 z" />
      <path
         style="fill:none;stroke:#000000;stroke-width:13.7063;stroke-linecap:round;stroke-miterlimit:4;stroke-dasharray:none;paint-order:stroke fill markers"
         id="ca-51"
         transform="matrix(0,0.2918368,-0.2918368,0,367.70795,105.66315)"
         d="m 76.426537,575.84987 12.12202,20.99595 -12.122018,20.99596 -24.244037,0 -12.12202,-20.99595 12.122018,-20.99596 z" />
      <path
         style="fill:none;stroke:#000000;stroke-width:13.7063;stroke-linecap:round;stroke-miterlimit:4;stroke-dasharray:none;paint-order:stroke fill markers"
         id="ca-47"
         transform="matrix(0,0.2918368,-0.2918368,0,349.32578,116.2761)"
         d="m 76.426537,575.84987 12.12202,20.99595 -12.122018,20.99596 -24.244037,0 -12.12202,-20.99595 12.122018,-20.99596 z" />
      <path
         style="fill:none;stroke:#000000;stroke-width:13.7063;stroke-linecap:round;stroke-miterlimit:4;stroke-dasharray:none;paint-order:stroke fill markers"
         id="ca-45"
         transform="matrix(0,0.2918368,-0.2918368,0,373.83534,116.2761)"
         d="m 76.426537,575.84987 12.12202,20.99595 -12.122018,20.99596 -24.244037,0 -12.12202,-20.99595 12.122018,-20.99596 z" />
      <path
         style="fill:none;stroke:#000000;stroke-width:13.7063;stroke-linecap:round;stroke-miterlimit:4;stroke-dasharray:none;paint-order:stroke fill markers"
         id="ca-52"
         transform="matrix(0,0.2918368,-0.2918368,0,355.45317,105.66315)"
         d="m 76.426537,575.84987 12.12202,20.99595 -12.122018,20.99596 -24.244037,0 -12.12202,-20.99595 12.122018,-20.99596 z" />
      <path
         style="fill:none;stroke:#000000;stroke-width:13.7063;stroke-linecap:round;stroke-miterlimit:4;stroke-dasharray:none;paint-order:stroke fill markers"
         id="ca-53"
         transform="matrix(0,0.2918368,-0.2918368,0,373.83534,95.050204)"
         d="m 76.426537,575.84987 12.12202,20.99595 -12.122018,20.99596 -24.244037,0 -12.12202,-20.99595 12.122018,-20.99596 z" />
      <path
         style="fill:none;stroke:#000000;stroke-width:13.7063;stroke-linecap:round;stroke-miterlimit:4;stroke-dasharray:none;paint-order:stroke fill markers"
         id="ca-50"
         transform="matrix(0,0.2918368,-0.2918368,0,379.96273,105.66315)"
         d="m 76.426537,575.84987 12.12202,20.99595 -12.122018,20.99596 -24.244037,0 -12.12202,-20.99595 12.122018,-20.99596 z" />
      <path
         style="fill:none;stroke:#000000;stroke-width:13.7063;stroke-linecap:round;stroke-miterlimit:4;stroke-dasharray:none;paint-order:stroke fill markers"
         id="ca-54"
         transform="matrix(0,0.2918368,-0.2918368,0,361.58056,95.050204)"
         d="m 76.426537,575.84987 12.12202,20.99595 -12.122018,20.99596 -24.244037,0 -12.12202,-20.99595 12.122018,-20.99596 z" />
      <path
         style="fill:none;stroke:#000000;stroke-width:13.7063;stroke-linecap:round;stroke-miterlimit:4;stroke-dasharray:none;paint-order:stroke fill markers"
         id="ca-19"
         transform="matrix(0,0.2918368,-0.2918368,0,373.83534,158.7279)"
         d="m 76.426537,575.84987 12.12202,20.99595 -12.122018,20.99596 -24.244037,0 -12.12202,-20.99595 12.122018,-20.99596 z" />
      <path
         style="fill:none;stroke:#000000;stroke-width:13.7063;stroke-linecap:round;stroke-miterlimit:4;stroke-dasharray:none;paint-order:stroke fill markers"
         id="ca-42"
         transform="matrix(0,0.2918368,-0.2918368,0,410.59968,116.2761)"
         d="m 76.426537,575.84987 12.12202,20.99595 -12.122018,20.99596 -24.244037,0 -12.12202,-20.99595 12.122018,-20.99596 z" />
      <path
         style="fill:none;stroke:#000000;stroke-width:13.7063;stroke-linecap:round;stroke-miterlimit:4;stroke-dasharray:none;paint-order:stroke fill markers"
         id="ca-8"
         transform="matrix(0,0.2918368,-0.2918368,0,361.58056,179.9538)"
         d="m 76.426537,575.84987 12.12202,20.99595 -12.122018,20.99596 -24.244037,0 -12.12202,-20.99595 12.122018,-20.99596 z" />
      <path
         style="fill:none;stroke:#000000;stroke-width:13.7063;stroke-linecap:round;stroke-miterlimit:4;stroke-dasharray:none;paint-order:stroke fill markers"
         id="ca-18"
         transform="matrix(0,0.2918368,-0.2918368,0,386.09012,158.7279)"
         d="m 76.426537,575.84987 12.12202,20.99595 -12.122018,20.99596 -24.244037,0 -12.12202,-20.99595 12.122018,-20.99596 z" />
      <path
         style="fill:none;stroke:#000000;stroke-width:13.7063;stroke-linecap:round;stroke-miterlimit:4;stroke-dasharray:none;paint-order:stroke fill markers"
         id="ca-44"
         transform="matrix(0,0.2918368,-0.2918368,0,386.09012,116.2761)"
         d="m 76.426537,575.84987 12.12202,20.99595 -12.122018,20.99596 -24.244037,0 -12.12202,-20.99595 12.122018,-20.99596 z" />
      <path
         style="fill:none;stroke:#000000;stroke-width:13.7063;stroke-linecap:round;stroke-miterlimit:4;stroke-dasharray:none;paint-order:stroke fill markers"
         id="ca-49"
         transform="matrix(0,0.2918368,-0.2918368,0,392.21751,105.66315)"
         d="m 76.426537,575.84987 12.12202,20.99595 -12.122018,20.99596 -24.244037,0 -12.12202,-20.99595 12.122018,-20.99596 z" />
      <path
         style="fill:none;stroke:#000000;stroke-width:13.7063;stroke-linecap:round;stroke-miterlimit:4;stroke-dasharray:none;paint-order:stroke fill markers"
         id="ca-48"
         transform="matrix(0,0.2918368,-0.2918368,0,404.47229,105.66315)"
         d="m 76.426537,575.84987 12.12202,20.99595 -12.122018,20.99596 -24.244037,0 -12.12202,-20.99595 12.122018,-20.99596 z" />
      <path
         style="fill:none;stroke:#000000;stroke-width:13.7063;stroke-linecap:round;stroke-miterlimit:4;stroke-dasharray:none;paint-order:stroke fill markers"
         id="ca-43"
         transform="matrix(0,0.2918368,-0.2918368,0,398.3449,116.2761)"
         d="m 76.426537,575.84987 12.12202,20.99595 -12.122018,20.99596 -24.244037,0 -12.12202,-20.99595 12.122018,-20.99596 z" />
      <path
         style="fill:none;stroke:#000000;stroke-width:13.7063;stroke-linecap:round;stroke-miterlimit:4;stroke-dasharray:none;paint-order:stroke fill markers"
         id="ca-14"
         transform="matrix(0,0.2918368,-0.2918368,0,392.21751,169.34085)"
         d="m 76.426537,575.84987 12.12202,20.99595 -12.122018,20.99596 -24.244037,0 -12.12202,-20.99595 12.122018,-20.99596 z" />
      <path
         style="fill:none;stroke:#000000;stroke-width:13.7063;stroke-linecap:round;stroke-miterlimit:4;stroke-dasharray:none;paint-order:stroke fill markers"
         id="ca-7"
         transform="matrix(0,0.2918368,-0.2918368,0,373.83534,179.9538)"
         d="m 76.426537,575.84987 12.12202,20.99595 -12.122018,20.99596 -24.244037,0 -12.12202,-20.99595 12.122018,-20.99596 z" />
      <path
         style="fill:none;stroke:#000000;stroke-width:13.7063;stroke-linecap:round;stroke-miterlimit:4;stroke-dasharray:none;paint-order:stroke fill markers"
         id="ca-31"
         transform="matrix(0,0.2918368,-0.2918368,0,386.09012,137.502)"
         d="m 76.426537,575.84987 12.12202,20.99595 -12.122018,20.99596 -24.244037,0 -12.12202,-20.99595 12.122018,-20.99596 z" />
      <path
         style="fill:none;stroke:#000000;stroke-width:13.7063;stroke-linecap:round;stroke-miterlimit:4;stroke-dasharray:none;paint-order:stroke fill markers"
         id="ca-13"
         transform="matrix(0,0.2918368,-0.2918368,0,379.96273,169.34085)"
         d="m 76.426537,575.84987 12.12202,20.99595 -12.122018,20.99596 -24.244037,0 -12.12202,-20.99595 12.122018,-20.99596 z" />
      <path
         style="fill:none;stroke:#000000;stroke-width:13.7063;stroke-linecap:round;stroke-miterlimit:4;stroke-dasharray:none;paint-order:stroke fill markers"
         id="ca-17"
         transform="matrix(0,0.2918368,-0.2918368,0,398.3449,158.7279)"
         d="m 76.426537,575.84987 12.12202,20.99595 -12.122018,20.99596 -24.244037,0 -12.12202,-20.99595 12.122018,-20.99596 z" />
      <path
         style="fill:none;stroke:#000000;stroke-width:13.7063;stroke-linecap:round;stroke-miterlimit:4;stroke-dasharray:none;paint-order:stroke fill markers"
         id="ca-41"
         transform="matrix(0,0.2918368,-0.2918368,0,404.47229,126.88905)"
         d="m 76.426537,575.84987 12.12202,20.99595 -12.122018,20.99596 -24.244037,0 -12.12202,-20.99595 12.122018,-20.99596 z" />
      <path
         style="fill:none;stroke:#000000;stroke-width:13.7063;stroke-linecap:round;stroke-miterlimit:4;stroke-dasharray:none;paint-order:stroke fill markers"
         id="ca-6"
         transform="matrix(0,0.2918368,-0.2918368,0,386.09012,179.9538)"
         d="m 76.426537,575.84987 12.12202,20.99595 -12.122018,20.99596 -24.244037,0 -12.12202,-20.99595 12.122018,-20.99596 z" />
      <path
         style="fill:none;stroke:#000000;stroke-width:13.7063;stroke-linecap:round;stroke-miterlimit:4;stroke-dasharray:none;paint-order:stroke fill markers"
         id="ca-16"
         transform="matrix(0,0.2918368,-0.2918368,0,410.59968,158.7279)"
         d="m 76.426537,575.84987 12.12202,20.99595 -12.122018,20.99596 -24.244037,0 -12.12202,-20.99595 12.122018,-20.99596 z" />
      <path
         style="fill:none;fill-opacity:1;stroke:#000000;stroke-width:13.7063;stroke-linecap:round;stroke-miterlimit:4;stroke-dasharray:none;paint-order:stroke fill markers"
         id="ca-35"
         transform="matrix(0,0.2918368,-0.2918368,0,337.071,137.502)"
         d="m 76.426537,575.84987 12.12202,20.99595 -12.122018,20.99596 -24.244037,0 -12.12202,-20.99595 12.122018,-20.99596 z" />
      <path
         style="fill:none;stroke:#000000;stroke-width:13.7063;stroke-linecap:round;stroke-miterlimit:4;stroke-dasharray:none;paint-order:stroke fill markers"
         id="ca-30"
         transform="matrix(0,0.2918368,-0.2918368,0,398.3449,137.502)"
         d="m 76.426537,575.84987 12.12202,20.99595 -12.122018,20.99596 -24.244037,0 -12.12202,-20.99595 12.122018,-20.99596 z" />
      <path
         style="fill:none;stroke:#000000;stroke-width:13.7063;stroke-linecap:round;stroke-miterlimit:4;stroke-dasharray:none;paint-order:stroke fill markers"
         id="ca-26"
         transform="matrix(0,0.2918368,-0.2918368,0,379.96273,148.11495)"
         d="m 76.426537,575.84987 12.12202,20.99595 -12.122018,20.99596 -24.244037,0 -12.12202,-20.99595 12.122018,-20.99596 z" />
      <path
         style="fill:none;stroke:#000000;stroke-width:13.7063;stroke-linecap:round;stroke-miterlimit:4;stroke-dasharray:none;paint-order:stroke fill markers"
         id="ca-29"
         transform="matrix(0,0.2918368,-0.2918368,0,410.59968,137.502)"
         d="m 76.426537,575.84987 12.12202,20.99595 -12.122018,20.99596 -24.244037,0 -12.12202,-20.99595 12.122018,-20.99596 z" />
      <path
         style="fill:none;stroke:#000000;stroke-width:13.7063;stroke-linecap:round;stroke-miterlimit:4;stroke-dasharray:none;paint-order:stroke fill markers"
         id="ca-12"
         transform="matrix(0,0.2918368,-0.2918368,0,367.70795,169.34085)"
         d="m 76.426537,575.84987 12.12202,20.99595 -12.122018,20.99596 -24.244037,0 -12.12202,-20.99595 12.122018,-20.99596 z" />
      <path
         style="fill:none;stroke:#000000;stroke-width:13.7063;stroke-linecap:round;stroke-miterlimit:4;stroke-dasharray:none;paint-order:stroke fill markers"
         id="ca-5"
         transform="matrix(0,0.2918368,-0.2918368,0,398.3449,179.9538)"
         d="m 76.426537,575.84987 12.12202,20.99595 -12.122018,20.99596 -24.244037,0 -12.12202,-20.99595 12.122018,-20.99596 z" />
      <path
         style="fill:none;stroke:#000000;stroke-width:13.7063;stroke-linecap:round;stroke-miterlimit:4;stroke-dasharray:none;paint-order:stroke fill markers"
         id="ca-28"
         transform="matrix(0,0.2918368,-0.2918368,0,404.47229,148.11495)"
         d="m 76.426537,575.84987 12.12202,20.99595 -12.122018,20.99596 -24.244037,0 -12.12202,-20.99595 12.122018,-20.99596 z" />
      <path
         style="fill:none;stroke:#000000;stroke-width:13.7063;stroke-linecap:round;stroke-miterlimit:4;stroke-dasharray:none;paint-order:stroke fill markers"
         id="ca-11"
         transform="matrix(0,0.2918368,-0.2918368,0,355.45317,169.34085)"
         d="m 76.426537,575.84987 12.12202,20.99595 -12.122018,20.99596 -24.244037,0 -12.12202,-20.99595 12.122018,-20.99596 z" />
      <path
         style="fill:none;stroke:#000000;stroke-width:13.7063;stroke-linecap:round;stroke-miterlimit:4;stroke-dasharray:none;paint-order:stroke fill markers"
         id="ca-3"
         transform="matrix(0,0.2918368,-0.2918368,0,392.21751,190.56675)"
         d="m 76.426537,575.84987 12.12202,20.99595 -12.122018,20.99596 -24.244037,0 -12.12202,-20.99595 12.122018,-20.99596 z" />
      <path
         style="fill:none;stroke:#000000;stroke-width:13.7063;stroke-linecap:round;stroke-miterlimit:4;stroke-dasharray:none;paint-order:stroke fill markers"
         id="ca-10"
         transform="matrix(0,0.2918368,-0.2918368,0,343.19839,169.34085)"
         d="m 76.426537,575.84987 12.12202,20.99595 -12.122018,20.99596 -24.244037,0 -12.12202,-20.99595 12.122018,-20.99596 z" />
      <path
         style="fill:none;stroke:#000000;stroke-width:13.7063;stroke-linecap:round;stroke-miterlimit:4;stroke-dasharray:none;paint-order:stroke fill markers"
         id="ca-39"
         transform="matrix(0,0.2918368,-0.2918368,0,379.96273,126.88905)"
         d="m 76.426537,575.84987 12.12202,20.99595 -12.122018,20.99596 -24.244037,0 -12.12202,-20.99595 12.122018,-20.99596 z" />
      <path
         style="fill:none;stroke:#000000;stroke-width:13.7063;stroke-linecap:round;stroke-miterlimit:4;stroke-dasharray:none;paint-order:stroke fill markers"
         id="ca-38"
         transform="matrix(0,0.2918368,-0.2918368,0,367.70795,126.88905)"
         d="m 76.426537,575.84987 12.12202,20.99595 -12.122018,20.99596 -24.244037,0 -12.12202,-20.99595 12.122018,-20.99596 z" />
      <path
         style="fill:none;stroke:#000000;stroke-width:13.7063;stroke-linecap:round;stroke-miterlimit:4;stroke-dasharray:none;paint-order:stroke fill markers"
         id="ca-4"
         transform="matrix(0,0.2918368,-0.2918368,0,404.47229,190.56675)"
         d="m 76.426537,575.84987 12.12202,20.99595 -12.122018,20.99596 -24.244037,0 -12.12202,-20.99595 12.122018,-20.99596 z" />
      <path
         style="fill:none;stroke:#000000;stroke-width:13.7063;stroke-linecap:round;stroke-miterlimit:4;stroke-dasharray:none;paint-order:stroke fill markers"
         id="ca-1"
         transform="matrix(0,0.2918368,-0.2918368,0,367.70795,190.56675)"
         d="m 76.426537,575.84987 12.12202,20.99595 -12.122018,20.99596 -24.244037,0 -12.12202,-20.99595 12.122018,-20.99596 z" />
    </g> -->
    <path
       style="fill:#ff8080;stroke:#666666;stroke-width:3.77953;stroke-linecap:round;paint-order:stroke fill markers"
       id="ca-33"
       transform="matrix(0,0.2918368,-0.2918368,0,350.74319,173.6472)"
       d="m 76.426537,575.84987 12.12202,20.99595 -12.122018,20.99596 -24.244037,0 -12.12202,-20.99595 12.122018,-20.99596 z" />
    <path
       style="fill:#ff8080;stroke:#666666;stroke-width:3.77953;stroke-linecap:round;paint-order:stroke fill markers"
       id="ca-36"
       transform="matrix(0,0.2918368,-0.2918368,0,332.36102,163.03425)"
       d="m 76.426537,575.84987 12.12202,20.99595 -12.122018,20.99596 -24.244037,0 -12.12202,-20.99595 12.122018,-20.99596 z" />
    <path
       style="fill:#ff8080;stroke:#666666;stroke-width:3.77953;stroke-linecap:round;paint-order:stroke fill markers"
       id="ca-25"
       transform="matrix(0,0.2918368,-0.2918368,0,356.87058,184.26015)"
       d="m 76.426537,575.84987 12.12202,20.99595 -12.122018,20.99596 -24.244037,0 -12.12202,-20.99595 12.122018,-20.99596 z" />
    <path
       style="fill:#ff8080;stroke:#666666;stroke-width:3.77953;stroke-linecap:round;paint-order:stroke fill markers"
       id="ca-32"
       transform="matrix(0,0.2918368,-0.2918368,0,362.99797,173.6472)"
       d="m 76.426537,575.84987 12.12202,20.99595 -12.122018,20.99596 -24.244037,0 -12.12202,-20.99595 12.122018,-20.99596 z" />
    <path
       style="fill:#ff8080;stroke:#666666;stroke-width:3.77953;stroke-linecap:round;paint-order:stroke fill markers"
       id="ca-21"
       transform="matrix(0,0.2918368,-0.2918368,0,338.48841,194.8731)"
       d="m 76.426537,575.84987 12.12202,20.99595 -12.122018,20.99596 -24.244037,0 -12.12202,-20.99595 12.122018,-20.99596 z" />
    <path
       style="fill:#ff8080;stroke:#666666;stroke-width:3.77953;stroke-linecap:round;paint-order:stroke fill markers"
       id="ca-40"
       transform="matrix(0,0.2918368,-0.2918368,0,381.38014,163.03425)"
       d="m 76.426537,575.84987 12.12202,20.99595 -12.122018,20.99596 -24.244037,0 -12.12202,-20.99595 12.122018,-20.99596 z" />
    <path
       style="fill:#ff8080;stroke:#666666;stroke-width:3.77953;stroke-linecap:round;paint-order:stroke fill markers"
       id="ca-37"
       transform="matrix(0,0.2918368,-0.2918368,0,344.6158,163.03425)"
       d="m 76.426537,575.84987 12.12202,20.99595 -12.122018,20.99596 -24.244037,0 -12.12202,-20.99595 12.122018,-20.99596 z" />
    <path
       style="fill:#ff8080;stroke:#666666;stroke-width:3.77953;stroke-linecap:round;paint-order:stroke fill markers"
       id="ca-20"
       transform="matrix(0,0.2918368,-0.2918368,0,350.74319,194.8731)"
       d="m 76.426537,575.84987 12.12202,20.99595 -12.122018,20.99596 -24.244037,0 -12.12202,-20.99595 12.122018,-20.99596 z" />
    <path
       style="fill:#ff8080;stroke:#666666;stroke-width:3.77953;stroke-linecap:round;paint-order:stroke fill markers"
       id="ca-22"
       transform="matrix(0,0.2918368,-0.2918368,0,326.23363,194.8731)"
       d="m 76.426537,575.84987 12.12202,20.99595 -12.122018,20.99596 -24.244037,0 -12.12202,-20.99595 12.122018,-20.99596 z" />
    <path
       style="fill:#ff8080;stroke:#666666;stroke-width:3.77953;stroke-linecap:round;paint-order:stroke fill markers"
       id="ca-24"
       transform="matrix(0,0.2918368,-0.2918368,0,344.6158,184.26015)"
       d="m 76.426537,575.84987 12.12202,20.99595 -12.122018,20.99596 -24.244037,0 -12.12202,-20.99595 12.122018,-20.99596 z" />
    <path
       style="fill:#ff8080;stroke:#666666;stroke-width:3.77953;stroke-linecap:round;paint-order:stroke fill markers"
       id="ca-2"
       transform="matrix(0,0.2918368,-0.2918368,0,369.12536,226.71195)"
       d="m 76.426537,575.84987 12.12202,20.99595 -12.122018,20.99596 -24.244037,0 -12.12202,-20.99595 12.122018,-20.99596 z" />
    <path
       style="fill:#ff8080;stroke:#666666;stroke-width:3.77953;stroke-linecap:round;paint-order:stroke fill markers"
       id="ca-27"
       transform="matrix(0,0.2918368,-0.2918368,0,381.38014,184.26015)"
       d="m 76.426537,575.84987 12.12202,20.99595 -12.122018,20.99596 -24.244037,0 -12.12202,-20.99595 12.122018,-20.99596 z" />
    <path
       style="fill:#ff8080;fill-opacity:1;stroke:#666666;stroke-width:3.77953;stroke-linecap:round;paint-order:stroke fill markers"
       id="ca-34"
       transform="matrix(0,0.2918368,-0.2918368,0,338.48841,173.6472)"
       d="m 76.426537,575.84987 12.12202,20.99595 -12.122018,20.99596 -24.244037,0 -12.12202,-20.99595 12.122018,-20.99596 z" />
    <path
       style="fill:#ff8080;stroke:#666666;stroke-width:3.77953;stroke-linecap:round;paint-order:stroke fill markers"
       id="ca-9"
       transform="matrix(0,0.2918368,-0.2918368,0,338.48841,216.099)"
       d="m 76.426537,575.84987 12.12202,20.99595 -12.122018,20.99596 -24.244037,0 -12.12202,-20.99595 12.122018,-20.99596 z" />
    <path
       style="fill:#ff8080;stroke:#666666;stroke-width:3.77953;stroke-linecap:round;paint-order:stroke fill markers"
       id="ca-23"
       transform="matrix(0,0.2918368,-0.2918368,0,332.36102,184.26015)"
       d="m 76.426537,575.84987 12.12202,20.99595 -12.122018,20.99596 -24.244037,0 -12.12202,-20.99595 12.122018,-20.99596 z" />
    <path
       style="fill:#ff8080;stroke:#666666;stroke-width:3.77953;stroke-linecap:round;paint-order:stroke fill markers"
       id="ca-15"
       transform="matrix(0,0.2918368,-0.2918368,0,393.63492,205.48605)"
       d="m 76.426537,575.84987 12.12202,20.99595 -12.122018,20.99596 -24.244037,0 -12.12202,-20.99595 12.122018,-20.99596 z" />
    <path
       style="fill:#ff8080;stroke:#666666;stroke-width:3.77953;stroke-linecap:round;paint-order:stroke fill markers"
       id="ca-46"
       transform="matrix(0,0.2918368,-0.2918368,0,350.74319,152.4213)"
       d="m 76.426537,575.84987 12.12202,20.99595 -12.122018,20.99596 -24.244037,0 -12.12202,-20.99595 12.122018,-20.99596 z" />
    <path
       style="fill:#ff8080;stroke:#666666;stroke-width:3.77953;stroke-linecap:round;paint-order:stroke fill markers"
       id="ca-51"
       transform="matrix(0,0.2918368,-0.2918368,0,356.87058,141.80835)"
       d="m 76.426537,575.84987 12.12202,20.99595 -12.122018,20.99596 -24.244037,0 -12.12202,-20.99595 12.122018,-20.99596 z" />
    <path
       style="fill:#ff8080;stroke:#666666;stroke-width:3.77953;stroke-linecap:round;paint-order:stroke fill markers"
       id="ca-47"
       transform="matrix(0,0.2918368,-0.2918368,0,338.48841,152.4213)"
       d="m 76.426537,575.84987 12.12202,20.99595 -12.122018,20.99596 -24.244037,0 -12.12202,-20.99595 12.122018,-20.99596 z" />
    <path
       style="fill:#ff8080;stroke:#666666;stroke-width:3.77953;stroke-linecap:round;paint-order:stroke fill markers"
       id="ca-45"
       transform="matrix(0,0.2918368,-0.2918368,0,362.99797,152.4213)"
       d="m 76.426537,575.84987 12.12202,20.99595 -12.122018,20.99596 -24.244037,0 -12.12202,-20.99595 12.122018,-20.99596 z" />
    <path
       style="fill:#ff8080;stroke:#666666;stroke-width:3.77953;stroke-linecap:round;paint-order:stroke fill markers"
       id="ca-52"
       transform="matrix(0,0.2918368,-0.2918368,0,344.6158,141.80835)"
       d="m 76.426537,575.84987 12.12202,20.99595 -12.122018,20.99596 -24.244037,0 -12.12202,-20.99595 12.122018,-20.99596 z" />
    <path
       style="fill:#ff8080;stroke:#666666;stroke-width:3.77953;stroke-linecap:round;paint-order:stroke fill markers"
       id="ca-53"
       transform="matrix(0,0.2918368,-0.2918368,0,362.99797,131.1954)"
       d="m 76.426537,575.84987 12.12202,20.99595 -12.122018,20.99596 -24.244037,0 -12.12202,-20.99595 12.122018,-20.99596 z" />
    <path
       style="fill:#ff8080;stroke:#666666;stroke-width:3.77953;stroke-linecap:round;paint-order:stroke fill markers"
       id="ca-50"
       transform="matrix(0,0.2918368,-0.2918368,0,369.12536,141.80835)"
       d="m 76.426537,575.84987 12.12202,20.99595 -12.122018,20.99596 -24.244037,0 -12.12202,-20.99595 12.122018,-20.99596 z" />
    <path
       style="fill:#ff8080;stroke:#666666;stroke-width:3.77953;stroke-linecap:round;paint-order:stroke fill markers"
       id="ca-54"
       transform="matrix(0,0.2918368,-0.2918368,0,350.74319,131.1954)"
       d="m 76.426537,575.84987 12.12202,20.99595 -12.122018,20.99596 -24.244037,0 -12.12202,-20.99595 12.122018,-20.99596 z" />
    <path
       style="fill:#ff8080;stroke:#666666;stroke-width:3.77953;stroke-linecap:round;paint-order:stroke fill markers"
       id="ca-19"
       transform="matrix(0,0.2918368,-0.2918368,0,362.99797,194.8731)"
       d="m 76.426537,575.84987 12.12202,20.99595 -12.122018,20.99596 -24.244037,0 -12.12202,-20.99595 12.122018,-20.99596 z" />
    <path
       style="fill:#ff8080;stroke:#666666;stroke-width:3.77953;stroke-linecap:round;paint-order:stroke fill markers"
       id="ca-42"
       transform="matrix(0,0.2918368,-0.2918368,0,399.76231,152.4213)"
       d="m 76.426537,575.84987 12.12202,20.99595 -12.122018,20.99596 -24.244037,0 -12.12202,-20.99595 12.122018,-20.99596 z" />
    <path
       style="fill:#ff8080;stroke:#666666;stroke-width:3.77953;stroke-linecap:round;paint-order:stroke fill markers"
       id="ca-8"
       transform="matrix(0,0.2918368,-0.2918368,0,350.74319,216.099)"
       d="m 76.426537,575.84987 12.12202,20.99595 -12.122018,20.99596 -24.244037,0 -12.12202,-20.99595 12.122018,-20.99596 z" />
    <path
       style="fill:#ff8080;stroke:#666666;stroke-width:3.77953;stroke-linecap:round;paint-order:stroke fill markers"
       id="ca-18"
       transform="matrix(0,0.2918368,-0.2918368,0,375.25275,194.8731)"
       d="m 76.426537,575.84987 12.12202,20.99595 -12.122018,20.99596 -24.244037,0 -12.12202,-20.99595 12.122018,-20.99596 z" />
    <path
       style="fill:#ff8080;stroke:#666666;stroke-width:3.77953;stroke-linecap:round;paint-order:stroke fill markers"
       id="ca-44"
       transform="matrix(0,0.2918368,-0.2918368,0,375.25275,152.4213)"
       d="m 76.426537,575.84987 12.12202,20.99595 -12.122018,20.99596 -24.244037,0 -12.12202,-20.99595 12.122018,-20.99596 z" />
    <path
       style="fill:#ff8080;stroke:#666666;stroke-width:3.77953;stroke-linecap:round;paint-order:stroke fill markers"
       id="ca-49"
       transform="matrix(0,0.2918368,-0.2918368,0,381.38014,141.80835)"
       d="m 76.426537,575.84987 12.12202,20.99595 -12.122018,20.99596 -24.244037,0 -12.12202,-20.99595 12.122018,-20.99596 z" />
    <path
       style="fill:#ff8080;stroke:#666666;stroke-width:3.77953;stroke-linecap:round;paint-order:stroke fill markers"
       id="ca-48"
       transform="matrix(0,0.2918368,-0.2918368,0,393.63492,141.80835)"
       d="m 76.426537,575.84987 12.12202,20.99595 -12.122018,20.99596 -24.244037,0 -12.12202,-20.99595 12.122018,-20.99596 z" />
    <path
       style="fill:#ff8080;stroke:#666666;stroke-width:3.77953;stroke-linecap:round;paint-order:stroke fill markers"
       id="ca-43"
       transform="matrix(0,0.2918368,-0.2918368,0,387.50753,152.4213)"
       d="m 76.426537,575.84987 12.12202,20.99595 -12.122018,20.99596 -24.244037,0 -12.12202,-20.99595 12.122018,-20.99596 z" />
    <path
       style="fill:#ff8080;stroke:#666666;stroke-width:3.77953;stroke-linecap:round;paint-order:stroke fill markers"
       id="ca-14"
       transform="matrix(0,0.2918368,-0.2918368,0,381.38014,205.48605)"
       d="m 76.426537,575.84987 12.12202,20.99595 -12.122018,20.99596 -24.244037,0 -12.12202,-20.99595 12.122018,-20.99596 z" />
    <path
       style="fill:#ff8080;stroke:#666666;stroke-width:3.77953;stroke-linecap:round;paint-order:stroke fill markers"
       id="ca-7"
       transform="matrix(0,0.2918368,-0.2918368,0,362.99797,216.099)"
       d="m 76.426537,575.84987 12.12202,20.99595 -12.122018,20.99596 -24.244037,0 -12.12202,-20.99595 12.122018,-20.99596 z" />
    <path
       style="fill:#ff8080;stroke:#666666;stroke-width:3.77953;stroke-linecap:round;paint-order:stroke fill markers"
       id="ca-31"
       transform="matrix(0,0.2918368,-0.2918368,0,375.25275,173.6472)"
       d="m 76.426537,575.84987 12.12202,20.99595 -12.122018,20.99596 -24.244037,0 -12.12202,-20.99595 12.122018,-20.99596 z" />
    <path
       style="fill:#ff8080;stroke:#666666;stroke-width:3.77953;stroke-linecap:round;paint-order:stroke fill markers"
       id="ca-13"
       transform="matrix(0,0.2918368,-0.2918368,0,369.12536,205.48605)"
       d="m 76.426537,575.84987 12.12202,20.99595 -12.122018,20.99596 -24.244037,0 -12.12202,-20.99595 12.122018,-20.99596 z" />
    <path
       style="fill:#ff8080;stroke:#666666;stroke-width:3.77953;stroke-linecap:round;paint-order:stroke fill markers"
       id="ca-17"
       transform="matrix(0,0.2918368,-0.2918368,0,387.50753,194.8731)"
       d="m 76.426537,575.84987 12.12202,20.99595 -12.122018,20.99596 -24.244037,0 -12.12202,-20.99595 12.122018,-20.99596 z" />
    <path
       style="fill:#ff8080;stroke:#666666;stroke-width:3.77953;stroke-linecap:round;paint-order:stroke fill markers"
       id="ca-41"
       transform="matrix(0,0.2918368,-0.2918368,0,393.63492,163.03425)"
       d="m 76.426537,575.84987 12.12202,20.99595 -12.122018,20.99596 -24.244037,0 -12.12202,-20.99595 12.122018,-20.99596 z" />
    <path
       style="fill:#ff8080;stroke:#666666;stroke-width:3.77953;stroke-linecap:round;paint-order:stroke fill markers"
       id="ca-6"
       transform="matrix(0,0.2918368,-0.2918368,0,375.25275,216.099)"
       d="m 76.426537,575.84987 12.12202,20.99595 -12.122018,20.99596 -24.244037,0 -12.12202,-20.99595 12.122018,-20.99596 z" />
    <path
       style="fill:#ff8080;stroke:#666666;stroke-width:3.77953;stroke-linecap:round;paint-order:stroke fill markers"
       id="ca-16"
       transform="matrix(0,0.2918368,-0.2918368,0,399.76231,194.8731)"
       d="m 76.426537,575.84987 12.12202,20.99595 -12.122018,20.99596 -24.244037,0 -12.12202,-20.99595 12.122018,-20.99596 z" />
    <path
       style="fill:#ff8080;fill-opacity:1;stroke:#666666;stroke-width:3.77953;stroke-linecap:round;paint-order:stroke fill markers"
       id="ca-35"
       transform="matrix(0,0.2918368,-0.2918368,0,326.23363,173.6472)"
       d="m 76.426537,575.84987 12.12202,20.99595 -12.122018,20.99596 -24.244037,0 -12.12202,-20.99595 12.122018,-20.99596 z" />
    <path
       style="fill:#ff8080;stroke:#666666;stroke-width:3.77953;stroke-linecap:round;paint-order:stroke fill markers"
       id="ca-30"
       transform="matrix(0,0.2918368,-0.2918368,0,387.50753,173.6472)"
       d="m 76.426537,575.84987 12.12202,20.99595 -12.122018,20.99596 -24.244037,0 -12.12202,-20.99595 12.122018,-20.99596 z" />
    <path
       style="fill:#ff8080;stroke:#666666;stroke-width:3.77953;stroke-linecap:round;paint-order:stroke fill markers"
       id="ca-26"
       transform="matrix(0,0.2918368,-0.2918368,0,369.12536,184.26015)"
       d="m 76.426537,575.84987 12.12202,20.99595 -12.122018,20.99596 -24.244037,0 -12.12202,-20.99595 12.122018,-20.99596 z" />
    <path
       style="fill:#ff8080;stroke:#666666;stroke-width:3.77953;stroke-linecap:round;paint-order:stroke fill markers"
       id="ca-29"
       transform="matrix(0,0.2918368,-0.2918368,0,399.76231,173.6472)"
       d="m 76.426537,575.84987 12.12202,20.99595 -12.122018,20.99596 -24.244037,0 -12.12202,-20.99595 12.122018,-20.99596 z" />
    <path
       style="fill:#ff8080;stroke:#666666;stroke-width:3.77953;stroke-linecap:round;paint-order:stroke fill markers"
       id="ca-12"
       transform="matrix(0,0.2918368,-0.2918368,0,356.87058,205.48605)"
       d="m 76.426537,575.84987 12.12202,20.99595 -12.122018,20.99596 -24.244037,0 -12.12202,-20.99595 12.122018,-20.99596 z" />
    <path
       style="fill:#ff8080;stroke:#666666;stroke-width:3.77953;stroke-linecap:round;paint-order:stroke fill markers"
       id="ca-5"
       transform="matrix(0,0.2918368,-0.2918368,0,387.50753,216.099)"
       d="m 76.426537,575.84987 12.12202,20.99595 -12.122018,20.99596 -24.244037,0 -12.12202,-20.99595 12.122018,-20.99596 z" />
    <path
       style="fill:#ff8080;stroke:#666666;stroke-width:3.77953;stroke-linecap:round;paint-order:stroke fill markers"
       id="ca-28"
       transform="matrix(0,0.2918368,-0.2918368,0,393.63492,184.26015)"
       d="m 76.426537,575.84987 12.12202,20.99595 -12.122018,20.99596 -24.244037,0 -12.12202,-20.99595 12.122018,-20.99596 z" />
    <path
       style="fill:#ff8080;stroke:#666666;stroke-width:3.77953;stroke-linecap:round;paint-order:stroke fill markers"
       id="ca-11"
       transform="matrix(0,0.2918368,-0.2918368,0,344.6158,205.48605)"
       d="m 76.426537,575.84987 12.12202,20.99595 -12.122018,20.99596 -24.244037,0 -12.12202,-20.99595 12.122018,-20.99596 z" />
    <path
       style="fill:#ff8080;stroke:#666666;stroke-width:3.77953;stroke-linecap:round;paint-order:stroke fill markers"
       id="ca-3"
       transform="matrix(0,0.2918368,-0.2918368,0,381.38014,226.71195)"
       d="m 76.426537,575.84987 12.12202,20.99595 -12.122018,20.99596 -24.244037,0 -12.12202,-20.99595 12.122018,-20.99596 z" />
    <path
       style="fill:#ff8080;stroke:#666666;stroke-width:3.77953;stroke-linecap:round;paint-order:stroke fill markers"
       id="ca-10"
       transform="matrix(0,0.2918368,-0.2918368,0,332.36102,205.48605)"
       d="m 76.426537,575.84987 12.12202,20.99595 -12.122018,20.99596 -24.244037,0 -12.12202,-20.99595 12.122018,-20.99596 z" />
    <path
       style="fill:#ff8080;stroke:#666666;stroke-width:3.77953;stroke-linecap:round;paint-order:stroke fill markers"
       id="ca-39"
       transform="matrix(0,0.2918368,-0.2918368,0,369.12536,163.03425)"
       d="m 76.426537,575.84987 12.12202,20.99595 -12.122018,20.99596 -24.244037,0 -12.12202,-20.99595 12.122018,-20.99596 z" />
    <path
       style="fill:#ff8080;stroke:#666666;stroke-width:3.77953;stroke-linecap:round;paint-order:stroke fill markers"
       id="ca-38"
       transform="matrix(0,0.2918368,-0.2918368,0,356.87058,163.03425)"
       d="m 76.426537,575.84987 12.12202,20.99595 -12.122018,20.99596 -24.244037,0 -12.12202,-20.99595 12.122018,-20.99596 z" />
    <path
       style="fill:#ff8080;stroke:#666666;stroke-width:3.77953;stroke-linecap:round;paint-order:stroke fill markers"
       id="ca-4"
       transform="matrix(0,0.2918368,-0.2918368,0,393.63492,226.71195)"
       d="m 76.426537,575.84987 12.12202,20.99595 -12.122018,20.99596 -24.244037,0 -12.12202,-20.99595 12.122018,-20.99596 z" />
    <path
       style="fill:#ff8080;stroke:#666666;stroke-width:3.77953;stroke-linecap:round;paint-order:stroke fill markers"
       id="ca-1"
       transform="matrix(0,0.2918368,-0.2918368,0,356.87058,226.71195)"
       d="m 76.426537,575.84987 12.12202,20.99595 -12.122018,20.99596 -24.244037,0 -12.12202,-20.99595 12.122018,-20.99596 z" />
  </g>
</svg>
